<svg xmlns="http://www.w3.org/2000/svg" viewBox="-1 -1 3 3">
<path d="M-0.125000 0.250000 L0.125000 0.250000 L0.125000 0.375000 L0.250000 0.500000 L0.250000 1.000000 L-0.250000 1.000000 L-0.250000 0.500000 L-0.125000 0.375000 z " fill="rgb(245,195,195)" />
<path d="M0 0 L0 1 L1 1 L1 0 z" fill="none" stroke="rgb(128,128,128)" stroke-width="0.01" />
<line x1="-0.25" y1="0.5" x2="-0.25" y2="1" style="stroke:rgb(246,147,147);stroke-width:0.01" />
<line x1="-0.125" y1="0.25" x2="-0.125" y2="0.375" style="stroke:rgb(246,147,147);stroke-width:0.01" />
<line x1="0" y1="0.25" x2="0" y2="1" style="stroke:rgb(246,147,147);stroke-width:0.01" />
<line x1="0.125" y1="0.25" x2="0.125" y2="0.375" style="stroke:rgb(246,147,147);stroke-width:0.01" />
<line x1="0.25" y1="0.5" x2="0.25" y2="1" style="stroke:rgb(246,147,147);stroke-width:0.01" />
<line x1="0" y1="0.25" x2="0.25" y2="0.5" style="stroke:rgb(246,147,147);stroke-width:0.01" />
<line x1="0" y1="0.25" x2="-0.25" y2="0.5" style="stroke:rgb(246,147,147);stroke-width:0.01" />
<line x1="-0.125" y1="0.375" x2="0" y2="0.5" style="stroke:rgb(246,147,147);stroke-width:0.01" />
<line x1="-0.125" y1="0.25" x2="0.125" y2="0.25" style="stroke:rgb(246,147,147);stroke-width:0.01" />
<line x1="0.125" y1="0.375" x2="0" y2="0.5" style="stroke:rgb(246,147,147);stroke-width:0.01" />
<line x1="-0.125" y1="0.375" x2="0.125" y2="0.375" style="stroke:rgb(246,147,147);stroke-width:0.01" />
<line x1="-0.25" y1="0.5" x2="0.25" y2="0.5" style="stroke:rgb(246,147,147);stroke-width:0.01" />
<line x1="-0.25" y1="1" x2="0.25" y2="1" style="stroke:rgb(246,147,147);stroke-width:0.01" />
</svg>
