<svg xmlns="http://www.w3.org/2000/svg" viewBox="-1.5 -1.5 3 3">
<path d="M0.144287 -0.258097 L0.420261 0.120859 L0.182344 -0.094913 L0.192383 -0.051871 L0.062889 0.284030 L0.062189 0.284765 L0.061455 0.284065 L-0.084261 -0.045123 L-0.076333 -0.088604 L-0.203447 0.038510 L-0.237835 0.038510 L-0.303447 -0.061490 L-0.224211 0.017746 L-0.046276 -0.253449 L0.050001 -0.214938 z " fill="rgb(245,195,195)" />
<path d="M-0.455052 -0.922132 L0.544948 -0.922132 L0.544948 0.077868 L-0.455052 0.077868  z" fill="none" stroke="rgb(128,128,128)" stroke-width="0.01" />
<line x1="0.144287" y1="-0.258097" x2="0.192383" y2="-0.0518706" style="stroke:rgb(246,147,147);stroke-width:0.01" />
<line x1="0.144287" y1="-0.258097" x2="0.420261" y2="0.120859" style="stroke:rgb(246,147,147);stroke-width:0.01" />
<line x1="0.0580618" y1="-0.218628" x2="0.0598845" y2="-0.173975" style="stroke:rgb(246,147,147);stroke-width:0.01" />
<line x1="0.0503564" y1="-0.215101" x2="0.0628888" y2="0.28403" style="stroke:rgb(246,147,147);stroke-width:0.01" />
<line x1="0.0500015" y1="-0.214938" x2="0.055055" y2="-0.00774426" style="stroke:rgb(246,147,147);stroke-width:0.01" />
<line x1="0.0496391" y1="-0.215083" x2="0.0614549" y2="0.284065" style="stroke:rgb(246,147,147);stroke-width:0.01" />
<line x1="0.041771" y1="-0.21823" x2="0.0421272" y2="-0.173542" style="stroke:rgb(246,147,147);stroke-width:0.01" />
<line x1="-0.0842606" y1="-0.0451232" x2="0.0614549" y2="0.284065" style="stroke:rgb(246,147,147);stroke-width:0.01" />
<line x1="-0.0462762" y1="-0.253449" x2="-0.0842606" y2="-0.0451232" style="stroke:rgb(246,147,147);stroke-width:0.01" />
<line x1="0.0580618" y1="-0.218628" x2="0.420261" y2="0.120859" style="stroke:rgb(246,147,147);stroke-width:0.01" />
<line x1="0.0503564" y1="-0.215101" x2="0.420261" y2="0.120859" style="stroke:rgb(246,147,147);stroke-width:0.01" />
<line x1="0.0500015" y1="-0.214938" x2="0.420261" y2="0.120859" style="stroke:rgb(246,147,147);stroke-width:0.01" />
<line x1="0.0598845" y1="-0.173975" x2="0.192383" y2="-0.0518706" style="stroke:rgb(246,147,147);stroke-width:0.01" />
<line x1="-0.303447" y1="-0.0614898" x2="-0.237835" y2="0.0385102" style="stroke:rgb(246,147,147);stroke-width:0.01" />
<line x1="-0.0694549" y1="-0.126325" x2="0.055055" y2="-0.00774426" style="stroke:rgb(246,147,147);stroke-width:0.01" />
<line x1="0.192383" y1="-0.0518706" x2="0.0628888" y2="0.28403" style="stroke:rgb(246,147,147);stroke-width:0.01" />
<line x1="-0.303447" y1="-0.0614898" x2="-0.206677" y2="0.0385102" style="stroke:rgb(246,147,147);stroke-width:0.01" />
<line x1="-0.303447" y1="-0.0614898" x2="-0.20359" y2="0.0385102" style="stroke:rgb(246,147,147);stroke-width:0.01" />
<line x1="-0.303447" y1="-0.0614898" x2="-0.203447" y2="0.0385102" style="stroke:rgb(246,147,147);stroke-width:0.01" />
<line x1="0.0614549" y1="0.284065" x2="0.0621894" y2="0.284765" style="stroke:rgb(246,147,147);stroke-width:0.01" />
<line x1="-0.0462762" y1="-0.253449" x2="-0.237835" y2="0.0385102" style="stroke:rgb(246,147,147);stroke-width:0.01" />
<line x1="-0.0462762" y1="-0.253449" x2="0.0500015" y2="-0.214938" style="stroke:rgb(246,147,147);stroke-width:0.01" />
<line x1="-0.0537594" y1="-0.212407" x2="0.0421272" y2="-0.173542" style="stroke:rgb(246,147,147);stroke-width:0.01" />
<line x1="0.0598845" y1="-0.173975" x2="0.173636" y2="-0.132254" style="stroke:rgb(246,147,147);stroke-width:0.01" />
<line x1="0.041771" y1="-0.21823" x2="-0.206677" y2="0.0385102" style="stroke:rgb(246,147,147);stroke-width:0.01" />
<line x1="0.0496391" y1="-0.215083" x2="-0.20359" y2="0.0385102" style="stroke:rgb(246,147,147);stroke-width:0.01" />
<line x1="0.0500015" y1="-0.214938" x2="-0.203447" y2="0.0385102" style="stroke:rgb(246,147,147);stroke-width:0.01" />
<line x1="0.0421272" y1="-0.173542" x2="-0.0842606" y2="-0.0451232" style="stroke:rgb(246,147,147);stroke-width:0.01" />
<line x1="0.173636" y1="-0.132254" x2="0.055055" y2="-0.00774426" style="stroke:rgb(246,147,147);stroke-width:0.01" />
<line x1="0.153762" y1="-0.217469" x2="-0.0537594" y2="-0.212407" style="stroke:rgb(246,147,147);stroke-width:0.01" />
<line x1="0.144287" y1="-0.258097" x2="0.0500015" y2="-0.214938" style="stroke:rgb(246,147,147);stroke-width:0.01" />
<line x1="0.153762" y1="-0.217469" x2="0.0598845" y2="-0.173975" style="stroke:rgb(246,147,147);stroke-width:0.01" />
<line x1="0.0421272" y1="-0.173542" x2="-0.0694549" y2="-0.126325" style="stroke:rgb(246,147,147);stroke-width:0.01" />
<line x1="0.0628888" y1="0.28403" x2="0.0621894" y2="0.284765" style="stroke:rgb(246,147,147);stroke-width:0.01" />
<line x1="-0.237835" y1="0.0385102" x2="-0.203447" y2="0.0385102" style="stroke:rgb(246,147,147);stroke-width:0.01" />
</svg>
