<svg xmlns="http://www.w3.org/2000/svg" viewBox="-1.5 -1.5 3 3">
<g transform="scale(1, -1)">
<path d="M0.599339 0.664035 L0.875313 1.042991 L0.637396 0.827219 L0.647435 0.870261 L0.517941 1.206162 L0.517241 1.206897 L0.516507 1.206197 L0.370791 0.877009 L0.378719 0.833528 L0.251605 0.960642 L0.217217 0.960642 L0.151605 0.860642 L0.230841 0.939878 L0.408776 0.668683 L0.505054 0.707194 z " fill="rgb(245,195,195)" />
<path d="M0.000000 0.000000 L1.000000 0.000000 L1.000000 1.000000 L0.000000 1.000000  z" fill="none" stroke="rgb(128,128,128)" stroke-width="0.01" />
<line x1="0.599339" y1="0.664035" x2="0.647435" y2="0.870261" style="stroke:rgb(246,147,147);stroke-width:0.01" />
<line x1="0.599339" y1="0.664035" x2="0.875313" y2="1.04299" style="stroke:rgb(246,147,147);stroke-width:0.01" />
<line x1="0.513114" y1="0.703504" x2="0.514937" y2="0.748156" style="stroke:rgb(246,147,147);stroke-width:0.01" />
<line x1="0.505408" y1="0.707031" x2="0.517941" y2="1.20616" style="stroke:rgb(246,147,147);stroke-width:0.01" />
<line x1="0.505054" y1="0.707194" x2="0.510107" y2="0.914388" style="stroke:rgb(246,147,147);stroke-width:0.01" />
<line x1="0.504691" y1="0.707049" x2="0.516507" y2="1.2062" style="stroke:rgb(246,147,147);stroke-width:0.01" />
<line x1="0.496823" y1="0.703902" x2="0.497179" y2="0.74859" style="stroke:rgb(246,147,147);stroke-width:0.01" />
<line x1="0.370791" y1="0.877009" x2="0.516507" y2="1.2062" style="stroke:rgb(246,147,147);stroke-width:0.01" />
<line x1="0.408776" y1="0.668683" x2="0.370791" y2="0.877009" style="stroke:rgb(246,147,147);stroke-width:0.01" />
<line x1="0.513114" y1="0.703504" x2="0.875313" y2="1.04299" style="stroke:rgb(246,147,147);stroke-width:0.01" />
<line x1="0.505408" y1="0.707031" x2="0.875313" y2="1.04299" style="stroke:rgb(246,147,147);stroke-width:0.01" />
<line x1="0.505054" y1="0.707194" x2="0.875313" y2="1.04299" style="stroke:rgb(246,147,147);stroke-width:0.01" />
<line x1="0.514937" y1="0.748156" x2="0.647435" y2="0.870261" style="stroke:rgb(246,147,147);stroke-width:0.01" />
<line x1="0.151605" y1="0.860642" x2="0.217217" y2="0.960642" style="stroke:rgb(246,147,147);stroke-width:0.01" />
<line x1="0.385597" y1="0.795807" x2="0.510107" y2="0.914388" style="stroke:rgb(246,147,147);stroke-width:0.01" />
<line x1="0.647435" y1="0.870261" x2="0.517941" y2="1.20616" style="stroke:rgb(246,147,147);stroke-width:0.01" />
<line x1="0.151605" y1="0.860642" x2="0.248375" y2="0.960642" style="stroke:rgb(246,147,147);stroke-width:0.01" />
<line x1="0.151605" y1="0.860642" x2="0.251462" y2="0.960642" style="stroke:rgb(246,147,147);stroke-width:0.01" />
<line x1="0.151605" y1="0.860642" x2="0.251605" y2="0.960642" style="stroke:rgb(246,147,147);stroke-width:0.01" />
<line x1="0.516507" y1="1.2062" x2="0.517241" y2="1.2069" style="stroke:rgb(246,147,147);stroke-width:0.01" />
<line x1="0.408776" y1="0.668683" x2="0.217217" y2="0.960642" style="stroke:rgb(246,147,147);stroke-width:0.01" />
<line x1="0.408776" y1="0.668683" x2="0.505054" y2="0.707194" style="stroke:rgb(246,147,147);stroke-width:0.01" />
<line x1="0.401293" y1="0.709725" x2="0.497179" y2="0.74859" style="stroke:rgb(246,147,147);stroke-width:0.01" />
<line x1="0.514937" y1="0.748156" x2="0.628688" y2="0.789878" style="stroke:rgb(246,147,147);stroke-width:0.01" />
<line x1="0.496823" y1="0.703902" x2="0.248375" y2="0.960642" style="stroke:rgb(246,147,147);stroke-width:0.01" />
<line x1="0.504691" y1="0.707049" x2="0.251462" y2="0.960642" style="stroke:rgb(246,147,147);stroke-width:0.01" />
<line x1="0.505054" y1="0.707194" x2="0.251605" y2="0.960642" style="stroke:rgb(246,147,147);stroke-width:0.01" />
<line x1="0.497179" y1="0.74859" x2="0.370791" y2="0.877009" style="stroke:rgb(246,147,147);stroke-width:0.01" />
<line x1="0.628688" y1="0.789878" x2="0.510107" y2="0.914388" style="stroke:rgb(246,147,147);stroke-width:0.01" />
<line x1="0.608814" y1="0.704663" x2="0.401293" y2="0.709725" style="stroke:rgb(246,147,147);stroke-width:0.01" />
<line x1="0.599339" y1="0.664035" x2="0.505054" y2="0.707194" style="stroke:rgb(246,147,147);stroke-width:0.01" />
<line x1="0.608814" y1="0.704663" x2="0.514937" y2="0.748156" style="stroke:rgb(246,147,147);stroke-width:0.01" />
<line x1="0.497179" y1="0.74859" x2="0.385597" y2="0.795807" style="stroke:rgb(246,147,147);stroke-width:0.01" />
<line x1="0.517941" y1="1.20616" x2="0.517241" y2="1.2069" style="stroke:rgb(246,147,147);stroke-width:0.01" />
<line x1="0.217217" y1="0.960642" x2="0.251605" y2="0.960642" style="stroke:rgb(246,147,147);stroke-width:0.01" />
</g>
</svg>
