<svg xmlns="http://www.w3.org/2000/svg" viewBox="-1.5 -1.5 3 3">
<g transform="scale(1, -1)">
<path d="M0.983607 0.819672 L1.002528 0.922882 L1.181818 0.909091 L1.197183 0.929577 L1.307692 0.923077 L1.413793 1.034483 L1.118780 1.027287 L1.105263 1.052632 L0.000000 1.000000 z " fill="rgb(245,195,195)" />
<path d="M0.000000 0.000000 L1.000000 0.000000 L1.000000 1.000000 L0.000000 1.000000  z" fill="none" stroke="rgb(128,128,128)" stroke-width="0.01" />
<line x1="1.18182" y1="0.909091" x2="1.25" y2="1" style="stroke:rgb(246,147,147);stroke-width:0.01" />
<line x1="1.06897" y1="0.965517" x2="1.10526" y2="1.05263" style="stroke:rgb(246,147,147);stroke-width:0.01" />
<line x1="1.30769" y1="0.923077" x2="1.41379" y2="1.03448" style="stroke:rgb(246,147,147);stroke-width:0.01" />
<line x1="1.03226" y1="0.967742" x2="1.04878" y2="1.02439" style="stroke:rgb(246,147,147);stroke-width:0.01" />
<line x1="0.983607" y1="0.819672" x2="1.02041" y2="1.02041" style="stroke:rgb(246,147,147);stroke-width:0.01" />
<line x1="1" y1="0.909091" x2="1" y2="1" style="stroke:rgb(246,147,147);stroke-width:0.01" />
<line x1="1.03226" y1="0.967742" x2="1.02041" y2="1.02041" style="stroke:rgb(246,147,147);stroke-width:0.01" />
<line x1="1.06897" y1="0.965517" x2="1.04878" y2="1.02439" style="stroke:rgb(246,147,147);stroke-width:0.01" />
<line x1="1.18182" y1="0.909091" x2="1.10526" y2="1.05263" style="stroke:rgb(246,147,147);stroke-width:0.01" />
<line x1="1.30769" y1="0.923077" x2="1.25" y2="1" style="stroke:rgb(246,147,147);stroke-width:0.01" />
<line x1="0.983607" y1="0.819672" x2="0" y2="1" style="stroke:rgb(246,147,147);stroke-width:0.01" />
<line x1="1" y1="0.909091" x2="0" y2="1" style="stroke:rgb(246,147,147);stroke-width:0.01" />
<line x1="1.18182" y1="0.909091" x2="0" y2="1" style="stroke:rgb(246,147,147);stroke-width:0.01" />
<line x1="1.30769" y1="0.923077" x2="0" y2="1" style="stroke:rgb(246,147,147);stroke-width:0.01" />
<line x1="0" y1="1" x2="1.10526" y2="1.05263" style="stroke:rgb(246,147,147);stroke-width:0.01" />
<line x1="1.06897" y1="0.965517" x2="0" y2="1" style="stroke:rgb(246,147,147);stroke-width:0.01" />
<line x1="1.03226" y1="0.967742" x2="0" y2="1" style="stroke:rgb(246,147,147);stroke-width:0.01" />
<line x1="0" y1="1" x2="1.41379" y2="1.03448" style="stroke:rgb(246,147,147);stroke-width:0.01" />
<line x1="0" y1="1" x2="1.04878" y2="1.02439" style="stroke:rgb(246,147,147);stroke-width:0.01" />
<line x1="0" y1="1" x2="1.02041" y2="1.02041" style="stroke:rgb(246,147,147);stroke-width:0.01" />
<line x1="0" y1="1" x2="1.25" y2="1" style="stroke:rgb(246,147,147);stroke-width:0.01" />
</g>
</svg>
