<svg xmlns="http://www.w3.org/2000/svg" viewBox="-1.5 -1.5 3 3">
<g transform="scale(1, -1)">
<path d="M0.495000 -0.505000 L0.495000 -0.485000 L-0.485000 0.495000 L-0.505000 0.495000 z " fill="rgb(245,195,195)" />
<path d="M-0.505000 -0.505000 L0.495000 -0.505000 L0.495000 0.495000 L-0.505000 0.495000  z" fill="none" stroke="rgb(128,128,128)" stroke-width="0.01" />
<line x1="-0.485" y1="0.475" x2="-0.485" y2="0.495" style="stroke:rgb(246,147,147);stroke-width:0.01" />
<line x1="-0.465" y1="0.455" x2="-0.465" y2="0.475" style="stroke:rgb(246,147,147);stroke-width:0.01" />
<line x1="-0.445" y1="0.435" x2="-0.445" y2="0.455" style="stroke:rgb(246,147,147);stroke-width:0.01" />
<line x1="-0.425" y1="0.415" x2="-0.425" y2="0.435" style="stroke:rgb(246,147,147);stroke-width:0.01" />
<line x1="-0.405" y1="0.395" x2="-0.405" y2="0.415" style="stroke:rgb(246,147,147);stroke-width:0.01" />
<line x1="-0.385" y1="0.375" x2="-0.385" y2="0.395" style="stroke:rgb(246,147,147);stroke-width:0.01" />
<line x1="-0.365" y1="0.355" x2="-0.365" y2="0.375" style="stroke:rgb(246,147,147);stroke-width:0.01" />
<line x1="-0.345" y1="0.335" x2="-0.345" y2="0.355" style="stroke:rgb(246,147,147);stroke-width:0.01" />
<line x1="-0.325" y1="0.315" x2="-0.325" y2="0.335" style="stroke:rgb(246,147,147);stroke-width:0.01" />
<line x1="-0.305" y1="0.295" x2="-0.305" y2="0.315" style="stroke:rgb(246,147,147);stroke-width:0.01" />
<line x1="-0.285" y1="0.275" x2="-0.285" y2="0.295" style="stroke:rgb(246,147,147);stroke-width:0.01" />
<line x1="-0.265" y1="0.255" x2="-0.265" y2="0.275" style="stroke:rgb(246,147,147);stroke-width:0.01" />
<line x1="-0.245" y1="0.235" x2="-0.245" y2="0.255" style="stroke:rgb(246,147,147);stroke-width:0.01" />
<line x1="-0.225" y1="0.215" x2="-0.225" y2="0.235" style="stroke:rgb(246,147,147);stroke-width:0.01" />
<line x1="-0.205" y1="0.195" x2="-0.205" y2="0.215" style="stroke:rgb(246,147,147);stroke-width:0.01" />
<line x1="-0.185" y1="0.175" x2="-0.185" y2="0.195" style="stroke:rgb(246,147,147);stroke-width:0.01" />
<line x1="-0.165" y1="0.155" x2="-0.165" y2="0.175" style="stroke:rgb(246,147,147);stroke-width:0.01" />
<line x1="-0.145" y1="0.135" x2="-0.145" y2="0.155" style="stroke:rgb(246,147,147);stroke-width:0.01" />
<line x1="-0.125" y1="0.115" x2="-0.125" y2="0.135" style="stroke:rgb(246,147,147);stroke-width:0.01" />
<line x1="-0.105" y1="0.095" x2="-0.105" y2="0.115" style="stroke:rgb(246,147,147);stroke-width:0.01" />
<line x1="-0.085" y1="0.075" x2="-0.085" y2="0.095" style="stroke:rgb(246,147,147);stroke-width:0.01" />
<line x1="-0.065" y1="0.055" x2="-0.065" y2="0.075" style="stroke:rgb(246,147,147);stroke-width:0.01" />
<line x1="-0.045" y1="0.035" x2="-0.045" y2="0.055" style="stroke:rgb(246,147,147);stroke-width:0.01" />
<line x1="-0.025" y1="0.015" x2="-0.025" y2="0.035" style="stroke:rgb(246,147,147);stroke-width:0.01" />
<line x1="-0.005" y1="-0.005" x2="-0.005" y2="0.015" style="stroke:rgb(246,147,147);stroke-width:0.01" />
<line x1="0.015" y1="-0.025" x2="0.015" y2="-0.005" style="stroke:rgb(246,147,147);stroke-width:0.01" />
<line x1="0.035" y1="-0.045" x2="0.035" y2="-0.025" style="stroke:rgb(246,147,147);stroke-width:0.01" />
<line x1="0.055" y1="-0.065" x2="0.055" y2="-0.045" style="stroke:rgb(246,147,147);stroke-width:0.01" />
<line x1="0.075" y1="-0.085" x2="0.075" y2="-0.065" style="stroke:rgb(246,147,147);stroke-width:0.01" />
<line x1="0.095" y1="-0.105" x2="0.095" y2="-0.085" style="stroke:rgb(246,147,147);stroke-width:0.01" />
<line x1="0.115" y1="-0.125" x2="0.115" y2="-0.105" style="stroke:rgb(246,147,147);stroke-width:0.01" />
<line x1="0.135" y1="-0.145" x2="0.135" y2="-0.125" style="stroke:rgb(246,147,147);stroke-width:0.01" />
<line x1="0.155" y1="-0.165" x2="0.155" y2="-0.145" style="stroke:rgb(246,147,147);stroke-width:0.01" />
<line x1="0.175" y1="-0.185" x2="0.175" y2="-0.165" style="stroke:rgb(246,147,147);stroke-width:0.01" />
<line x1="0.195" y1="-0.205" x2="0.195" y2="-0.185" style="stroke:rgb(246,147,147);stroke-width:0.01" />
<line x1="0.215" y1="-0.225" x2="0.215" y2="-0.205" style="stroke:rgb(246,147,147);stroke-width:0.01" />
<line x1="0.235" y1="-0.245" x2="0.235" y2="-0.225" style="stroke:rgb(246,147,147);stroke-width:0.01" />
<line x1="0.255" y1="-0.265" x2="0.255" y2="-0.245" style="stroke:rgb(246,147,147);stroke-width:0.01" />
<line x1="0.275" y1="-0.285" x2="0.275" y2="-0.265" style="stroke:rgb(246,147,147);stroke-width:0.01" />
<line x1="0.295" y1="-0.305" x2="0.295" y2="-0.285" style="stroke:rgb(246,147,147);stroke-width:0.01" />
<line x1="0.315" y1="-0.325" x2="0.315" y2="-0.305" style="stroke:rgb(246,147,147);stroke-width:0.01" />
<line x1="0.335" y1="-0.345" x2="0.335" y2="-0.325" style="stroke:rgb(246,147,147);stroke-width:0.01" />
<line x1="0.355" y1="-0.365" x2="0.355" y2="-0.345" style="stroke:rgb(246,147,147);stroke-width:0.01" />
<line x1="0.375" y1="-0.385" x2="0.375" y2="-0.365" style="stroke:rgb(246,147,147);stroke-width:0.01" />
<line x1="0.395" y1="-0.405" x2="0.395" y2="-0.385" style="stroke:rgb(246,147,147);stroke-width:0.01" />
<line x1="0.415" y1="-0.425" x2="0.415" y2="-0.405" style="stroke:rgb(246,147,147);stroke-width:0.01" />
<line x1="0.435" y1="-0.445" x2="0.435" y2="-0.425" style="stroke:rgb(246,147,147);stroke-width:0.01" />
<line x1="0.455" y1="-0.465" x2="0.455" y2="-0.445" style="stroke:rgb(246,147,147);stroke-width:0.01" />
<line x1="0.475" y1="-0.485" x2="0.475" y2="-0.465" style="stroke:rgb(246,147,147);stroke-width:0.01" />
<line x1="0.495" y1="-0.505" x2="0.495" y2="-0.485" style="stroke:rgb(246,147,147);stroke-width:0.01" />
<line x1="0.475" y1="-0.485" x2="0.495" y2="-0.485" style="stroke:rgb(246,147,147);stroke-width:0.01" />
<line x1="0.455" y1="-0.465" x2="0.475" y2="-0.465" style="stroke:rgb(246,147,147);stroke-width:0.01" />
<line x1="0.435" y1="-0.445" x2="0.455" y2="-0.445" style="stroke:rgb(246,147,147);stroke-width:0.01" />
<line x1="0.415" y1="-0.425" x2="0.435" y2="-0.425" style="stroke:rgb(246,147,147);stroke-width:0.01" />
<line x1="0.395" y1="-0.405" x2="0.415" y2="-0.405" style="stroke:rgb(246,147,147);stroke-width:0.01" />
<line x1="0.375" y1="-0.385" x2="0.395" y2="-0.385" style="stroke:rgb(246,147,147);stroke-width:0.01" />
<line x1="0.355" y1="-0.365" x2="0.375" y2="-0.365" style="stroke:rgb(246,147,147);stroke-width:0.01" />
<line x1="0.335" y1="-0.345" x2="0.355" y2="-0.345" style="stroke:rgb(246,147,147);stroke-width:0.01" />
<line x1="0.315" y1="-0.325" x2="0.335" y2="-0.325" style="stroke:rgb(246,147,147);stroke-width:0.01" />
<line x1="0.295" y1="-0.305" x2="0.315" y2="-0.305" style="stroke:rgb(246,147,147);stroke-width:0.01" />
<line x1="0.275" y1="-0.285" x2="0.295" y2="-0.285" style="stroke:rgb(246,147,147);stroke-width:0.01" />
<line x1="0.255" y1="-0.265" x2="0.275" y2="-0.265" style="stroke:rgb(246,147,147);stroke-width:0.01" />
<line x1="0.235" y1="-0.245" x2="0.255" y2="-0.245" style="stroke:rgb(246,147,147);stroke-width:0.01" />
<line x1="0.215" y1="-0.225" x2="0.235" y2="-0.225" style="stroke:rgb(246,147,147);stroke-width:0.01" />
<line x1="0.195" y1="-0.205" x2="0.215" y2="-0.205" style="stroke:rgb(246,147,147);stroke-width:0.01" />
<line x1="0.175" y1="-0.185" x2="0.195" y2="-0.185" style="stroke:rgb(246,147,147);stroke-width:0.01" />
<line x1="0.155" y1="-0.165" x2="0.175" y2="-0.165" style="stroke:rgb(246,147,147);stroke-width:0.01" />
<line x1="0.135" y1="-0.145" x2="0.155" y2="-0.145" style="stroke:rgb(246,147,147);stroke-width:0.01" />
<line x1="0.115" y1="-0.125" x2="0.135" y2="-0.125" style="stroke:rgb(246,147,147);stroke-width:0.01" />
<line x1="0.095" y1="-0.105" x2="0.115" y2="-0.105" style="stroke:rgb(246,147,147);stroke-width:0.01" />
<line x1="0.075" y1="-0.085" x2="0.095" y2="-0.085" style="stroke:rgb(246,147,147);stroke-width:0.01" />
<line x1="0.055" y1="-0.065" x2="0.075" y2="-0.065" style="stroke:rgb(246,147,147);stroke-width:0.01" />
<line x1="0.035" y1="-0.045" x2="0.055" y2="-0.045" style="stroke:rgb(246,147,147);stroke-width:0.01" />
<line x1="0.015" y1="-0.025" x2="0.035" y2="-0.025" style="stroke:rgb(246,147,147);stroke-width:0.01" />
<line x1="-0.005" y1="-0.005" x2="0.015" y2="-0.005" style="stroke:rgb(246,147,147);stroke-width:0.01" />
<line x1="0.495" y1="-0.505" x2="-0.505" y2="0.495" style="stroke:rgb(246,147,147);stroke-width:0.01" />
<line x1="0.495" y1="-0.485" x2="-0.485" y2="0.495" style="stroke:rgb(246,147,147);stroke-width:0.01" />
<line x1="-0.025" y1="0.015" x2="-0.005" y2="0.015" style="stroke:rgb(246,147,147);stroke-width:0.01" />
<line x1="-0.045" y1="0.035" x2="-0.025" y2="0.035" style="stroke:rgb(246,147,147);stroke-width:0.01" />
<line x1="-0.065" y1="0.055" x2="-0.045" y2="0.055" style="stroke:rgb(246,147,147);stroke-width:0.01" />
<line x1="-0.085" y1="0.075" x2="-0.065" y2="0.075" style="stroke:rgb(246,147,147);stroke-width:0.01" />
<line x1="-0.105" y1="0.095" x2="-0.085" y2="0.095" style="stroke:rgb(246,147,147);stroke-width:0.01" />
<line x1="-0.125" y1="0.115" x2="-0.105" y2="0.115" style="stroke:rgb(246,147,147);stroke-width:0.01" />
<line x1="-0.145" y1="0.135" x2="-0.125" y2="0.135" style="stroke:rgb(246,147,147);stroke-width:0.01" />
<line x1="-0.165" y1="0.155" x2="-0.145" y2="0.155" style="stroke:rgb(246,147,147);stroke-width:0.01" />
<line x1="-0.185" y1="0.175" x2="-0.165" y2="0.175" style="stroke:rgb(246,147,147);stroke-width:0.01" />
<line x1="-0.205" y1="0.195" x2="-0.185" y2="0.195" style="stroke:rgb(246,147,147);stroke-width:0.01" />
<line x1="-0.225" y1="0.215" x2="-0.205" y2="0.215" style="stroke:rgb(246,147,147);stroke-width:0.01" />
<line x1="-0.245" y1="0.235" x2="-0.225" y2="0.235" style="stroke:rgb(246,147,147);stroke-width:0.01" />
<line x1="-0.265" y1="0.255" x2="-0.245" y2="0.255" style="stroke:rgb(246,147,147);stroke-width:0.01" />
<line x1="-0.285" y1="0.275" x2="-0.265" y2="0.275" style="stroke:rgb(246,147,147);stroke-width:0.01" />
<line x1="-0.305" y1="0.295" x2="-0.285" y2="0.295" style="stroke:rgb(246,147,147);stroke-width:0.01" />
<line x1="-0.325" y1="0.315" x2="-0.305" y2="0.315" style="stroke:rgb(246,147,147);stroke-width:0.01" />
<line x1="-0.345" y1="0.335" x2="-0.325" y2="0.335" style="stroke:rgb(246,147,147);stroke-width:0.01" />
<line x1="-0.365" y1="0.355" x2="-0.345" y2="0.355" style="stroke:rgb(246,147,147);stroke-width:0.01" />
<line x1="-0.385" y1="0.375" x2="-0.365" y2="0.375" style="stroke:rgb(246,147,147);stroke-width:0.01" />
<line x1="-0.405" y1="0.395" x2="-0.385" y2="0.395" style="stroke:rgb(246,147,147);stroke-width:0.01" />
<line x1="-0.425" y1="0.415" x2="-0.405" y2="0.415" style="stroke:rgb(246,147,147);stroke-width:0.01" />
<line x1="-0.445" y1="0.435" x2="-0.425" y2="0.435" style="stroke:rgb(246,147,147);stroke-width:0.01" />
<line x1="-0.465" y1="0.455" x2="-0.445" y2="0.455" style="stroke:rgb(246,147,147);stroke-width:0.01" />
<line x1="-0.485" y1="0.475" x2="-0.465" y2="0.475" style="stroke:rgb(246,147,147);stroke-width:0.01" />
<line x1="-0.505" y1="0.495" x2="-0.485" y2="0.495" style="stroke:rgb(246,147,147);stroke-width:0.01" />
</g>
</svg>
