<svg xmlns="http://www.w3.org/2000/svg" viewBox="-1.5 -1.5 3 3">
<g transform="scale(1, -1)">
<path d="M1.100000 1.050000 L1.216667 1.066667 L1.200000 1.183333 L1.066667 1.283333 L1.033333 1.516667 L0.933333 1.383333 L0.900000 1.616667 L0.700000 1.350000 z " fill="rgb(245,195,195)" />
<path d="M0.000000 0.000000 L1.000000 0.000000 L1.000000 1.000000 L0.000000 1.000000  z" fill="none" stroke="rgb(128,128,128)" stroke-width="0.01" />
<line x1="0.833333" y1="1.25" x2="1.03333" y2="1.51667" style="stroke:rgb(246,147,147);stroke-width:0.01" />
<line x1="0.7" y1="1.35" x2="0.9" y2="1.61667" style="stroke:rgb(246,147,147);stroke-width:0.01" />
<line x1="0.966667" y1="1.15" x2="0.9" y2="1.61667" style="stroke:rgb(246,147,147);stroke-width:0.01" />
<line x1="1.1" y1="1.05" x2="1.03333" y2="1.51667" style="stroke:rgb(246,147,147);stroke-width:0.01" />
<line x1="1.21667" y1="1.06667" x2="1.2" y2="1.18333" style="stroke:rgb(246,147,147);stroke-width:0.01" />
<line x1="1.1" y1="1.05" x2="1.21667" y2="1.06667" style="stroke:rgb(246,147,147);stroke-width:0.01" />
<line x1="0.966667" y1="1.15" x2="1.2" y2="1.18333" style="stroke:rgb(246,147,147);stroke-width:0.01" />
<line x1="1.1" y1="1.05" x2="0.7" y2="1.35" style="stroke:rgb(246,147,147);stroke-width:0.01" />
<line x1="1.08333" y1="1.16667" x2="0.75" y2="1.41667" style="stroke:rgb(246,147,147);stroke-width:0.01" />
<line x1="1.2" y1="1.18333" x2="0.8" y2="1.48333" style="stroke:rgb(246,147,147);stroke-width:0.01" />
</g>
</svg>
