<svg xmlns="http://www.w3.org/2000/svg" viewBox="-1.5 -1.5 3 3">
<g transform="scale(1, -1)">
<path d="M1.433333 1.300000 L1.550000 1.316667 L1.533333 1.433333 L1.400000 1.533333 L1.366667 1.766667 L1.266667 1.633333 L1.233333 1.866667 L1.033333 1.600000 z " fill="rgb(245,195,195)" />
<path d="M0.000000 0.000000 L1.000000 0.000000 L1.000000 1.000000 L0.000000 1.000000  z" fill="none" stroke="rgb(128,128,128)" stroke-width="0.01" />
<line x1="1.16667" y1="1.5" x2="1.36667" y2="1.76667" style="stroke:rgb(246,147,147);stroke-width:0.01" />
<line x1="1.03333" y1="1.6" x2="1.23333" y2="1.86667" style="stroke:rgb(246,147,147);stroke-width:0.01" />
<line x1="1.3" y1="1.4" x2="1.23333" y2="1.86667" style="stroke:rgb(246,147,147);stroke-width:0.01" />
<line x1="1.43333" y1="1.3" x2="1.36667" y2="1.76667" style="stroke:rgb(246,147,147);stroke-width:0.01" />
<line x1="1.55" y1="1.31667" x2="1.53333" y2="1.43333" style="stroke:rgb(246,147,147);stroke-width:0.01" />
<line x1="1.43333" y1="1.3" x2="1.55" y2="1.31667" style="stroke:rgb(246,147,147);stroke-width:0.01" />
<line x1="1.3" y1="1.4" x2="1.53333" y2="1.43333" style="stroke:rgb(246,147,147);stroke-width:0.01" />
<line x1="1.43333" y1="1.3" x2="1.03333" y2="1.6" style="stroke:rgb(246,147,147);stroke-width:0.01" />
<line x1="1.41667" y1="1.41667" x2="1.08333" y2="1.66667" style="stroke:rgb(246,147,147);stroke-width:0.01" />
<line x1="1.53333" y1="1.43333" x2="1.13333" y2="1.73333" style="stroke:rgb(246,147,147);stroke-width:0.01" />
</g>
</svg>
