<svg xmlns="http://www.w3.org/2000/svg" viewBox="-1.5 -1.5 3 3">
<g transform="scale(1, -1)">
<path d="M2.100000 1.800000 L2.216667 1.816667 L2.200000 1.933333 L2.066667 2.033333 L2.033333 2.266667 L1.933333 2.133333 L1.900000 2.366667 L1.700000 2.100000 z " fill="rgb(245,195,195)" />
<path d="M0.000000 0.000000 L1.000000 0.000000 L1.000000 1.000000 L0.000000 1.000000  z" fill="none" stroke="rgb(128,128,128)" stroke-width="0.01" />
<line x1="1.83333" y1="2" x2="2.03333" y2="2.26667" style="stroke:rgb(246,147,147);stroke-width:0.01" />
<line x1="1.7" y1="2.1" x2="1.9" y2="2.36667" style="stroke:rgb(246,147,147);stroke-width:0.01" />
<line x1="1.96667" y1="1.9" x2="1.9" y2="2.36667" style="stroke:rgb(246,147,147);stroke-width:0.01" />
<line x1="2.1" y1="1.8" x2="2.03333" y2="2.26667" style="stroke:rgb(246,147,147);stroke-width:0.01" />
<line x1="2.21667" y1="1.81667" x2="2.2" y2="1.93333" style="stroke:rgb(246,147,147);stroke-width:0.01" />
<line x1="2.1" y1="1.8" x2="2.21667" y2="1.81667" style="stroke:rgb(246,147,147);stroke-width:0.01" />
<line x1="1.96667" y1="1.9" x2="2.2" y2="1.93333" style="stroke:rgb(246,147,147);stroke-width:0.01" />
<line x1="2.1" y1="1.8" x2="1.7" y2="2.1" style="stroke:rgb(246,147,147);stroke-width:0.01" />
<line x1="2.08333" y1="1.91667" x2="1.75" y2="2.16667" style="stroke:rgb(246,147,147);stroke-width:0.01" />
<line x1="2.2" y1="1.93333" x2="1.8" y2="2.23333" style="stroke:rgb(246,147,147);stroke-width:0.01" />
</g>
</svg>
