<svg xmlns="http://www.w3.org/2000/svg" viewBox="-1.5 -1.5 3 3">
<g transform="scale(1, -1)">
<path d="M2.433333 2.050000 L2.550000 2.066667 L2.533333 2.183333 L2.400000 2.283333 L2.366667 2.516667 L2.266667 2.383333 L2.233333 2.616667 L2.033333 2.350000 z " fill="rgb(245,195,195)" />
<path d="M0.000000 0.000000 L1.000000 0.000000 L1.000000 1.000000 L0.000000 1.000000  z" fill="none" stroke="rgb(128,128,128)" stroke-width="0.01" />
<line x1="2.16667" y1="2.25" x2="2.36667" y2="2.51667" style="stroke:rgb(246,147,147);stroke-width:0.01" />
<line x1="2.03333" y1="2.35" x2="2.23333" y2="2.61667" style="stroke:rgb(246,147,147);stroke-width:0.01" />
<line x1="2.3" y1="2.15" x2="2.23333" y2="2.61667" style="stroke:rgb(246,147,147);stroke-width:0.01" />
<line x1="2.43333" y1="2.05" x2="2.36667" y2="2.51667" style="stroke:rgb(246,147,147);stroke-width:0.01" />
<line x1="2.55" y1="2.06667" x2="2.53333" y2="2.18333" style="stroke:rgb(246,147,147);stroke-width:0.01" />
<line x1="2.43333" y1="2.05" x2="2.55" y2="2.06667" style="stroke:rgb(246,147,147);stroke-width:0.01" />
<line x1="2.3" y1="2.15" x2="2.53333" y2="2.18333" style="stroke:rgb(246,147,147);stroke-width:0.01" />
<line x1="2.43333" y1="2.05" x2="2.03333" y2="2.35" style="stroke:rgb(246,147,147);stroke-width:0.01" />
<line x1="2.41667" y1="2.16667" x2="2.08333" y2="2.41667" style="stroke:rgb(246,147,147);stroke-width:0.01" />
<line x1="2.53333" y1="2.18333" x2="2.13333" y2="2.48333" style="stroke:rgb(246,147,147);stroke-width:0.01" />
</g>
</svg>
