<svg xmlns="http://www.w3.org/2000/svg" viewBox="-1.5 -1.5 3 3">
<g transform="scale(1, -1)">
<path d="M2.766667 2.300000 L2.883333 2.316667 L2.866667 2.433333 L2.733333 2.533333 L2.700000 2.766667 L2.600000 2.633333 L2.566667 2.866667 L2.366667 2.600000 z " fill="rgb(245,195,195)" />
<path d="M0.000000 0.000000 L1.000000 0.000000 L1.000000 1.000000 L0.000000 1.000000  z" fill="none" stroke="rgb(128,128,128)" stroke-width="0.01" />
<line x1="2.5" y1="2.5" x2="2.7" y2="2.76667" style="stroke:rgb(246,147,147);stroke-width:0.01" />
<line x1="2.36667" y1="2.6" x2="2.56667" y2="2.86667" style="stroke:rgb(246,147,147);stroke-width:0.01" />
<line x1="2.63333" y1="2.4" x2="2.56667" y2="2.86667" style="stroke:rgb(246,147,147);stroke-width:0.01" />
<line x1="2.76667" y1="2.3" x2="2.7" y2="2.76667" style="stroke:rgb(246,147,147);stroke-width:0.01" />
<line x1="2.88333" y1="2.31667" x2="2.86667" y2="2.43333" style="stroke:rgb(246,147,147);stroke-width:0.01" />
<line x1="2.76667" y1="2.3" x2="2.88333" y2="2.31667" style="stroke:rgb(246,147,147);stroke-width:0.01" />
<line x1="2.63333" y1="2.4" x2="2.86667" y2="2.43333" style="stroke:rgb(246,147,147);stroke-width:0.01" />
<line x1="2.76667" y1="2.3" x2="2.36667" y2="2.6" style="stroke:rgb(246,147,147);stroke-width:0.01" />
<line x1="2.75" y1="2.41667" x2="2.41667" y2="2.66667" style="stroke:rgb(246,147,147);stroke-width:0.01" />
<line x1="2.86667" y1="2.43333" x2="2.46667" y2="2.73333" style="stroke:rgb(246,147,147);stroke-width:0.01" />
</g>
</svg>
