<svg xmlns="http://www.w3.org/2000/svg" viewBox="-1.5 -1.5 3 3">
<g transform="scale(1, -1)">
<path d="M3.100000 2.550000 L3.216667 2.566667 L3.200000 2.683333 L3.066667 2.783333 L3.033333 3.016667 L2.933333 2.883333 L2.900000 3.116667 L2.700000 2.850000 z " fill="rgb(245,195,195)" />
<path d="M0.000000 0.000000 L1.000000 0.000000 L1.000000 1.000000 L0.000000 1.000000  z" fill="none" stroke="rgb(128,128,128)" stroke-width="0.01" />
<line x1="2.83333" y1="2.75" x2="3.03333" y2="3.01667" style="stroke:rgb(246,147,147);stroke-width:0.01" />
<line x1="2.7" y1="2.85" x2="2.9" y2="3.11667" style="stroke:rgb(246,147,147);stroke-width:0.01" />
<line x1="2.96667" y1="2.65" x2="2.9" y2="3.11667" style="stroke:rgb(246,147,147);stroke-width:0.01" />
<line x1="3.1" y1="2.55" x2="3.03333" y2="3.01667" style="stroke:rgb(246,147,147);stroke-width:0.01" />
<line x1="3.21667" y1="2.56667" x2="3.2" y2="2.68333" style="stroke:rgb(246,147,147);stroke-width:0.01" />
<line x1="3.1" y1="2.55" x2="3.21667" y2="2.56667" style="stroke:rgb(246,147,147);stroke-width:0.01" />
<line x1="2.96667" y1="2.65" x2="3.2" y2="2.68333" style="stroke:rgb(246,147,147);stroke-width:0.01" />
<line x1="3.1" y1="2.55" x2="2.7" y2="2.85" style="stroke:rgb(246,147,147);stroke-width:0.01" />
<line x1="3.08333" y1="2.66667" x2="2.75" y2="2.91667" style="stroke:rgb(246,147,147);stroke-width:0.01" />
<line x1="3.2" y1="2.68333" x2="2.8" y2="2.98333" style="stroke:rgb(246,147,147);stroke-width:0.01" />
</g>
</svg>
