<svg xmlns="http://www.w3.org/2000/svg" viewBox="-1.5 -1.5 3 3">
<g transform="scale(1, -1)">
<path d="M3.433333 2.800000 L3.550000 2.816667 L3.533333 2.933333 L3.400000 3.033333 L3.366667 3.266667 L3.266667 3.133333 L3.233333 3.366667 L3.033333 3.100000 z " fill="rgb(245,195,195)" />
<path d="M0.000000 0.000000 L1.000000 0.000000 L1.000000 1.000000 L0.000000 1.000000  z" fill="none" stroke="rgb(128,128,128)" stroke-width="0.01" />
<line x1="3.16667" y1="3" x2="3.36667" y2="3.26667" style="stroke:rgb(246,147,147);stroke-width:0.01" />
<line x1="3.03333" y1="3.1" x2="3.23333" y2="3.36667" style="stroke:rgb(246,147,147);stroke-width:0.01" />
<line x1="3.3" y1="2.9" x2="3.23333" y2="3.36667" style="stroke:rgb(246,147,147);stroke-width:0.01" />
<line x1="3.43333" y1="2.8" x2="3.36667" y2="3.26667" style="stroke:rgb(246,147,147);stroke-width:0.01" />
<line x1="3.55" y1="2.81667" x2="3.53333" y2="2.93333" style="stroke:rgb(246,147,147);stroke-width:0.01" />
<line x1="3.43333" y1="2.8" x2="3.55" y2="2.81667" style="stroke:rgb(246,147,147);stroke-width:0.01" />
<line x1="3.3" y1="2.9" x2="3.53333" y2="2.93333" style="stroke:rgb(246,147,147);stroke-width:0.01" />
<line x1="3.43333" y1="2.8" x2="3.03333" y2="3.1" style="stroke:rgb(246,147,147);stroke-width:0.01" />
<line x1="3.41667" y1="2.91667" x2="3.08333" y2="3.16667" style="stroke:rgb(246,147,147);stroke-width:0.01" />
<line x1="3.53333" y1="2.93333" x2="3.13333" y2="3.23333" style="stroke:rgb(246,147,147);stroke-width:0.01" />
</g>
</svg>
