<svg xmlns="http://www.w3.org/2000/svg" viewBox="-1.5 -1.5 3 3">
<g transform="scale(1, -1)">
<path d="M3.766667 3.050000 L3.883333 3.066667 L3.866667 3.183333 L3.733333 3.283333 L3.700000 3.516667 L3.600000 3.383333 L3.566667 3.616667 L3.366667 3.350000 z " fill="rgb(245,195,195)" />
<path d="M0.000000 0.000000 L1.000000 0.000000 L1.000000 1.000000 L0.000000 1.000000  z" fill="none" stroke="rgb(128,128,128)" stroke-width="0.01" />
<line x1="3.5" y1="3.25" x2="3.7" y2="3.51667" style="stroke:rgb(246,147,147);stroke-width:0.01" />
<line x1="3.36667" y1="3.35" x2="3.56667" y2="3.61667" style="stroke:rgb(246,147,147);stroke-width:0.01" />
<line x1="3.63333" y1="3.15" x2="3.56667" y2="3.61667" style="stroke:rgb(246,147,147);stroke-width:0.01" />
<line x1="3.76667" y1="3.05" x2="3.7" y2="3.51667" style="stroke:rgb(246,147,147);stroke-width:0.01" />
<line x1="3.88333" y1="3.06667" x2="3.86667" y2="3.18333" style="stroke:rgb(246,147,147);stroke-width:0.01" />
<line x1="3.76667" y1="3.05" x2="3.88333" y2="3.06667" style="stroke:rgb(246,147,147);stroke-width:0.01" />
<line x1="3.63333" y1="3.15" x2="3.86667" y2="3.18333" style="stroke:rgb(246,147,147);stroke-width:0.01" />
<line x1="3.76667" y1="3.05" x2="3.36667" y2="3.35" style="stroke:rgb(246,147,147);stroke-width:0.01" />
<line x1="3.75" y1="3.16667" x2="3.41667" y2="3.41667" style="stroke:rgb(246,147,147);stroke-width:0.01" />
<line x1="3.86667" y1="3.18333" x2="3.46667" y2="3.48333" style="stroke:rgb(246,147,147);stroke-width:0.01" />
</g>
</svg>
