<svg xmlns="http://www.w3.org/2000/svg" viewBox="-1.5 -1.5 3 3">
<g transform="scale(1, -1)">
<path d="M4.100000 3.300000 L4.216667 3.316667 L4.200000 3.433333 L4.066667 3.533333 L4.033333 3.766667 L3.933333 3.633333 L3.900000 3.866667 L3.700000 3.600000 z " fill="rgb(245,195,195)" />
<path d="M0.000000 0.000000 L1.000000 0.000000 L1.000000 1.000000 L0.000000 1.000000  z" fill="none" stroke="rgb(128,128,128)" stroke-width="0.01" />
<line x1="3.83333" y1="3.5" x2="4.03333" y2="3.76667" style="stroke:rgb(246,147,147);stroke-width:0.01" />
<line x1="3.7" y1="3.6" x2="3.9" y2="3.86667" style="stroke:rgb(246,147,147);stroke-width:0.01" />
<line x1="3.96667" y1="3.4" x2="3.9" y2="3.86667" style="stroke:rgb(246,147,147);stroke-width:0.01" />
<line x1="4.1" y1="3.3" x2="4.03333" y2="3.76667" style="stroke:rgb(246,147,147);stroke-width:0.01" />
<line x1="4.21667" y1="3.31667" x2="4.2" y2="3.43333" style="stroke:rgb(246,147,147);stroke-width:0.01" />
<line x1="4.1" y1="3.3" x2="4.21667" y2="3.31667" style="stroke:rgb(246,147,147);stroke-width:0.01" />
<line x1="3.96667" y1="3.4" x2="4.2" y2="3.43333" style="stroke:rgb(246,147,147);stroke-width:0.01" />
<line x1="4.1" y1="3.3" x2="3.7" y2="3.6" style="stroke:rgb(246,147,147);stroke-width:0.01" />
<line x1="4.08333" y1="3.41667" x2="3.75" y2="3.66667" style="stroke:rgb(246,147,147);stroke-width:0.01" />
<line x1="4.2" y1="3.43333" x2="3.8" y2="3.73333" style="stroke:rgb(246,147,147);stroke-width:0.01" />
</g>
</svg>
