<svg xmlns="http://www.w3.org/2000/svg" viewBox="-1.5 -1.5 3 3">
<g transform="scale(1, -1)">
<path d="M4.433333 3.550000 L4.550000 3.566667 L4.533333 3.683333 L4.400000 3.783333 L4.366667 4.016667 L4.266667 3.883333 L4.233333 4.116667 L4.033333 3.850000 z " fill="rgb(245,195,195)" />
<path d="M0.000000 0.000000 L1.000000 0.000000 L1.000000 1.000000 L0.000000 1.000000  z" fill="none" stroke="rgb(128,128,128)" stroke-width="0.01" />
<line x1="4.16667" y1="3.75" x2="4.36667" y2="4.01667" style="stroke:rgb(246,147,147);stroke-width:0.01" />
<line x1="4.03333" y1="3.85" x2="4.23333" y2="4.11667" style="stroke:rgb(246,147,147);stroke-width:0.01" />
<line x1="4.3" y1="3.65" x2="4.23333" y2="4.11667" style="stroke:rgb(246,147,147);stroke-width:0.01" />
<line x1="4.43333" y1="3.55" x2="4.36667" y2="4.01667" style="stroke:rgb(246,147,147);stroke-width:0.01" />
<line x1="4.55" y1="3.56667" x2="4.53333" y2="3.68333" style="stroke:rgb(246,147,147);stroke-width:0.01" />
<line x1="4.43333" y1="3.55" x2="4.55" y2="3.56667" style="stroke:rgb(246,147,147);stroke-width:0.01" />
<line x1="4.3" y1="3.65" x2="4.53333" y2="3.68333" style="stroke:rgb(246,147,147);stroke-width:0.01" />
<line x1="4.43333" y1="3.55" x2="4.03333" y2="3.85" style="stroke:rgb(246,147,147);stroke-width:0.01" />
<line x1="4.41667" y1="3.66667" x2="4.08333" y2="3.91667" style="stroke:rgb(246,147,147);stroke-width:0.01" />
<line x1="4.53333" y1="3.68333" x2="4.13333" y2="3.98333" style="stroke:rgb(246,147,147);stroke-width:0.01" />
</g>
</svg>
