<svg xmlns="http://www.w3.org/2000/svg" viewBox="-1.5 -1.5 3 3">
<g transform="scale(1, -1)">
<path d="M4.766667 3.800000 L4.883333 3.816667 L4.866667 3.933333 L4.733333 4.033333 L4.700000 4.266667 L4.600000 4.133333 L4.566667 4.366667 L4.366667 4.100000 z " fill="rgb(245,195,195)" />
<path d="M0.000000 0.000000 L1.000000 0.000000 L1.000000 1.000000 L0.000000 1.000000  z" fill="none" stroke="rgb(128,128,128)" stroke-width="0.01" />
<line x1="4.5" y1="4" x2="4.7" y2="4.26667" style="stroke:rgb(246,147,147);stroke-width:0.01" />
<line x1="4.36667" y1="4.1" x2="4.56667" y2="4.36667" style="stroke:rgb(246,147,147);stroke-width:0.01" />
<line x1="4.63333" y1="3.9" x2="4.56667" y2="4.36667" style="stroke:rgb(246,147,147);stroke-width:0.01" />
<line x1="4.76667" y1="3.8" x2="4.7" y2="4.26667" style="stroke:rgb(246,147,147);stroke-width:0.01" />
<line x1="4.88333" y1="3.81667" x2="4.86667" y2="3.93333" style="stroke:rgb(246,147,147);stroke-width:0.01" />
<line x1="4.76667" y1="3.8" x2="4.88333" y2="3.81667" style="stroke:rgb(246,147,147);stroke-width:0.01" />
<line x1="4.63333" y1="3.9" x2="4.86667" y2="3.93333" style="stroke:rgb(246,147,147);stroke-width:0.01" />
<line x1="4.76667" y1="3.8" x2="4.36667" y2="4.1" style="stroke:rgb(246,147,147);stroke-width:0.01" />
<line x1="4.75" y1="3.91667" x2="4.41667" y2="4.16667" style="stroke:rgb(246,147,147);stroke-width:0.01" />
<line x1="4.86667" y1="3.93333" x2="4.46667" y2="4.23333" style="stroke:rgb(246,147,147);stroke-width:0.01" />
</g>
</svg>
