<svg xmlns="http://www.w3.org/2000/svg" viewBox="-1.5 -1.5 3 3">
<g transform="scale(1, -1)">
<path d="M-0.737174 -0.979107 L-0.549226 -0.847115 L-0.423529 -0.905882 L-0.321176 -0.686961 L0.081181 -0.404393 L-0.081058 -0.173375 L-0.000000 -0.000000 L-0.000000 0.000000 L-0.301961 0.141176 L-0.967059 -0.651765 z " fill="rgb(245,195,195)" />
<path d="M0.000000 0.000000 L1.000000 0.000000 L1.000000 1.000000 L0.000000 1.000000  z" fill="none" stroke="rgb(128,128,128)" stroke-width="0.01" />
<line x1="-0.423529" y1="-0.905882" x2="-0.967059" y2="-0.651765" style="stroke:rgb(246,147,147);stroke-width:0.01" />
<line x1="-0.737174" y1="-0.979107" x2="-0.967059" y2="-0.651765" style="stroke:rgb(246,147,147);stroke-width:0.01" />
<line x1="-0.737174" y1="-0.979107" x2="0.0811814" y2="-0.404393" style="stroke:rgb(246,147,147);stroke-width:0.01" />
<line x1="0.0811814" y1="-0.404393" x2="-0.301961" y2="0.141176" style="stroke:rgb(246,147,147);stroke-width:0.01" />
<line x1="-0.423529" y1="-0.905882" x2="-4.4545e-39" y2="-9.52769e-39" style="stroke:rgb(246,147,147);stroke-width:0.01" />
<line x1="-6.26388e-40" y1="2.92857e-40" x2="-0.301961" y2="0.141176" style="stroke:rgb(246,147,147);stroke-width:0.01" />
<line x1="-6.26388e-40" y1="2.92857e-40" x2="-1.28573e-39" y2="5.01185e-40" style="stroke:rgb(246,147,147);stroke-width:0.01" />
<line x1="-4.4545e-39" y1="-9.52769e-39" x2="-6.26388e-40" y2="2.92857e-40" style="stroke:rgb(246,147,147);stroke-width:0.01" />
<line x1="-4.4545e-39" y1="-9.52769e-39" x2="-1.28573e-39" y2="5.01185e-40" style="stroke:rgb(246,147,147);stroke-width:0.01" />
<line x1="-0.967059" y1="-0.651765" x2="-0.301961" y2="0.141176" style="stroke:rgb(246,147,147);stroke-width:0.01" />
</g>
</svg>
