<svg xmlns="http://www.w3.org/2000/svg" viewBox="-1.5 -1.5 3 3">
<g transform="scale(1, -1)">
<path d="M-0.429464 -0.344196 L-0.250893 -0.254911 L0.356250 -0.254911 L0.356250 0.316518 L0.570536 0.530804 L0.356250 0.530804 L-0.429464 -0.254911 L-0.529464 -0.269196 z " fill="rgb(245,195,195)" />
<path d="M-2.429464 -1999999999.469196 L-1.429464 -1999999999.469196 L-1.429464 -1999999998.469196 L-2.429464 -1999999998.469196  z" fill="none" stroke="rgb(128,128,128)" stroke-width="0.01" />
<line x1="0.35625" y1="-0.254911" x2="0.35625" y2="0.530804" style="stroke:rgb(246,147,147);stroke-width:0.01" />
<line x1="-0.429464" y1="-0.344196" x2="-0.429464" y2="-0.254911" style="stroke:rgb(246,147,147);stroke-width:0.01" />
<line x1="-0.179464" y1="-0.219196" x2="0.570536" y2="0.530804" style="stroke:rgb(246,147,147);stroke-width:0.01" />
<line x1="-0.429464" y1="-0.254911" x2="0.35625" y2="0.530804" style="stroke:rgb(246,147,147);stroke-width:0.01" />
<line x1="-0.429464" y1="-0.344196" x2="-0.529464" y2="-0.269196" style="stroke:rgb(246,147,147);stroke-width:0.01" />
<line x1="-0.429464" y1="-0.344196" x2="-0.179464" y2="-0.219196" style="stroke:rgb(246,147,147);stroke-width:0.01" />
<line x1="-0.529464" y1="-0.269196" x2="-0.179464" y2="-0.219196" style="stroke:rgb(246,147,147);stroke-width:0.01" />
<line x1="0.35625" y1="-0.254911" x2="-0.429464" y2="-0.254911" style="stroke:rgb(246,147,147);stroke-width:0.01" />
<line x1="0.570536" y1="0.530804" x2="0.35625" y2="0.530804" style="stroke:rgb(246,147,147);stroke-width:0.01" />
</g>
</svg>
