<svg xmlns="http://www.w3.org/2000/svg" viewBox="-1.5 -1.5 3 3">
<g transform="scale(1, -1)">
<path d="M-0.197724 -0.320677 L0.287210 -0.116494 L0.453583 0.008286 L0.412492 0.070865 L-0.012790 0.283506 L-0.135842 0.301085 L-0.252804 -0.014067 L-0.243472 -0.010433 L-0.310652 -0.202070 z " fill="rgb(245,195,195)" />
<path d="M2.487210 -1.716494 L3.487210 -1.716494 L3.487210 -0.716494 L2.487210 -0.716494  z" fill="none" stroke="rgb(128,128,128)" stroke-width="0.01" />
<line x1="-0.197724" y1="-0.320677" x2="-0.310652" y2="-0.20207" style="stroke:rgb(246,147,147);stroke-width:0.01" />
<line x1="-0.193693" y1="-0.223507" x2="-0.202371" y2="-0.192263" style="stroke:rgb(246,147,147);stroke-width:0.01" />
<line x1="0.183845" y1="0.0868709" x2="0.087731" y2="0.233245" style="stroke:rgb(246,147,147);stroke-width:0.01" />
<line x1="0.369972" y1="-0.0544223" x2="0.294294" y2="0.129964" style="stroke:rgb(246,147,147);stroke-width:0.01" />
<line x1="0.246958" y1="0.0605086" x2="0.216744" y2="0.168739" style="stroke:rgb(246,147,147);stroke-width:0.01" />
<line x1="0.453583" y1="0.00828586" x2="0.412492" y2="0.0708646" style="stroke:rgb(246,147,147);stroke-width:0.01" />
<line x1="0.452633" y1="0.00757356" x2="0.443172" y2="0.0204977" style="stroke:rgb(246,147,147);stroke-width:0.01" />
<line x1="0.452633" y1="0.00757356" x2="0.398723" y2="0.0777492" style="stroke:rgb(246,147,147);stroke-width:0.01" />
<line x1="0.167113" y1="0.103602" x2="0.151897" y2="0.201162" style="stroke:rgb(246,147,147);stroke-width:0.01" />
<line x1="0.453583" y1="0.00828586" x2="0.443172" y2="0.0204977" style="stroke:rgb(246,147,147);stroke-width:0.01" />
<line x1="0.183845" y1="0.0868709" x2="-0.0127903" y2="0.283506" style="stroke:rgb(246,147,147);stroke-width:0.01" />
<line x1="-0.130001" y1="0.219624" x2="-0.135842" y2="0.301085" style="stroke:rgb(246,147,147);stroke-width:0.01" />
<line x1="0.443172" y1="0.0204977" x2="0.3746" y2="0.0898104" style="stroke:rgb(246,147,147);stroke-width:0.01" />
<line x1="-0.130001" y1="0.219624" x2="-0.134342" y2="0.30087" style="stroke:rgb(246,147,147);stroke-width:0.01" />
<line x1="-0.197724" y1="-0.320677" x2="-0.202371" y2="-0.192263" style="stroke:rgb(246,147,147);stroke-width:0.01" />
<line x1="0.369972" y1="-0.0544223" x2="0.286531" y2="0.0121285" style="stroke:rgb(246,147,147);stroke-width:0.01" />
<line x1="0.0769329" y1="-0.173816" x2="-0.0174402" y2="-0.11517" style="stroke:rgb(246,147,147);stroke-width:0.01" />
<line x1="0.22599" y1="0.0591969" x2="0.183845" y2="0.0868709" style="stroke:rgb(246,147,147);stroke-width:0.01" />
<line x1="0.361116" y1="0.0916628" x2="0.361745" y2="0.0962383" style="stroke:rgb(246,147,147);stroke-width:0.01" />
<line x1="0.246958" y1="0.0605086" x2="0.249771" y2="0.0794712" style="stroke:rgb(246,147,147);stroke-width:0.01" />
<line x1="-0.0931717" y1="-0.276655" x2="-0.200672" y2="-0.239203" style="stroke:rgb(246,147,147);stroke-width:0.01" />
<line x1="0.412492" y1="0.0708646" x2="-0.0127903" y2="0.283506" style="stroke:rgb(246,147,147);stroke-width:0.01" />
<line x1="0.1724" y1="0.0983152" x2="0.173514" y2="0.102604" style="stroke:rgb(246,147,147);stroke-width:0.01" />
<line x1="0.0506602" y1="-0.216094" x2="-0.116872" y2="-0.179031" style="stroke:rgb(246,147,147);stroke-width:0.01" />
<line x1="-0.310652" y1="-0.20207" x2="-0.134342" y2="0.30087" style="stroke:rgb(246,147,147);stroke-width:0.01" />
<line x1="-0.252804" y1="-0.0140665" x2="-0.135842" y2="0.301085" style="stroke:rgb(246,147,147);stroke-width:0.01" />
<line x1="-0.0931717" y1="-0.276655" x2="-0.0174402" y2="-0.11517" style="stroke:rgb(246,147,147);stroke-width:0.01" />
<line x1="0.131731" y1="-0.181959" x2="-0.0302568" y2="-0.165626" style="stroke:rgb(246,147,147);stroke-width:0.01" />
<line x1="0.173514" y1="0.102604" x2="0.167113" y2="0.103602" style="stroke:rgb(246,147,147);stroke-width:0.01" />
<line x1="0.3746" y1="0.0898104" x2="0.361116" y2="0.0916628" style="stroke:rgb(246,147,147);stroke-width:0.01" />
<line x1="0.0506602" y1="-0.216094" x2="0.0769329" y2="-0.173816" style="stroke:rgb(246,147,147);stroke-width:0.01" />
<line x1="-0.193693" y1="-0.223507" x2="0.0426084" y2="-0.219484" style="stroke:rgb(246,147,147);stroke-width:0.01" />
<line x1="-0.0127903" y1="0.283506" x2="-0.135842" y2="0.301085" style="stroke:rgb(246,147,147);stroke-width:0.01" />
<line x1="0.131731" y1="-0.181959" x2="0.286531" y2="0.0121285" style="stroke:rgb(246,147,147);stroke-width:0.01" />
<line x1="0.398723" y1="0.0777492" x2="0.249771" y2="0.0794712" style="stroke:rgb(246,147,147);stroke-width:0.01" />
<line x1="-0.202371" y1="-0.192263" x2="0.28721" y2="-0.116494" style="stroke:rgb(246,147,147);stroke-width:0.01" />
<line x1="0.22599" y1="0.0591969" x2="0.412492" y2="0.0708646" style="stroke:rgb(246,147,147);stroke-width:0.01" />
<line x1="0.0426084" y1="-0.219484" x2="0.361745" y2="0.0962383" style="stroke:rgb(246,147,147);stroke-width:0.01" />
<line x1="0.28721" y1="-0.116494" x2="0.453583" y2="0.00828586" style="stroke:rgb(246,147,147);stroke-width:0.01" />
<line x1="-0.130001" y1="0.219624" x2="0.087731" y2="0.233245" style="stroke:rgb(246,147,147);stroke-width:0.01" />
<line x1="0.22599" y1="0.0591969" x2="0.249771" y2="0.0794712" style="stroke:rgb(246,147,147);stroke-width:0.01" />
<line x1="-0.197724" y1="-0.320677" x2="0.28721" y2="-0.116494" style="stroke:rgb(246,147,147);stroke-width:0.01" />
<line x1="-0.310652" y1="-0.20207" x2="-0.0174402" y2="-0.11517" style="stroke:rgb(246,147,147);stroke-width:0.01" />
<line x1="-0.200672" y1="-0.239203" x2="-0.0302568" y2="-0.165626" style="stroke:rgb(246,147,147);stroke-width:0.01" />
<line x1="0.1724" y1="0.0983152" x2="0.294294" y2="0.129964" style="stroke:rgb(246,147,147);stroke-width:0.01" />
<line x1="-0.193693" y1="-0.223507" x2="-0.116872" y2="-0.179031" style="stroke:rgb(246,147,147);stroke-width:0.01" />
<line x1="-0.252804" y1="-0.0140665" x2="0.216744" y2="0.168739" style="stroke:rgb(246,147,147);stroke-width:0.01" />
<line x1="-0.252804" y1="-0.0140665" x2="0.151897" y2="0.201162" style="stroke:rgb(246,147,147);stroke-width:0.01" />
</g>
</svg>
