<svg xmlns="http://www.w3.org/2000/svg" viewBox="-1.5 -1.5 3 3">
<g transform="scale(1, -1)">
<path d="M0.026667 -0.317778 L0.093333 -0.317778 L0.093333 -0.184444 L0.160000 -0.184444 L0.160000 0.082222 L0.193333 0.082222 L0.193333 0.115556 L-0.006667 0.315556 L-0.140000 0.182222 L-0.140000 0.148889 L-0.173333 0.148889 L-0.206667 0.115556 L-0.106667 0.015556 L-0.073333 0.015556 L-0.073333 -0.217778 z " fill="rgb(245,195,195)" />
<path d="M-0.206667 -0.317778 L0.793333 -0.317778 L0.793333 0.682222 L-0.206667 0.682222  z" fill="none" stroke="rgb(128,128,128)" stroke-width="0.01" />
<line x1="0.0266667" y1="-0.217778" x2="0.0766667" y2="-0.167778" style="stroke:rgb(246,147,147);stroke-width:0.01" />
<line x1="0.0266667" y1="-0.184444" x2="0.0933333" y2="-0.117778" style="stroke:rgb(246,147,147);stroke-width:0.01" />
<line x1="-0.0733333" y1="-0.217778" x2="0.16" y2="0.0155556" style="stroke:rgb(246,147,147);stroke-width:0.01" />
<line x1="0.0266667" y1="-0.317778" x2="0.0933333" y2="-0.317778" style="stroke:rgb(246,147,147);stroke-width:0.01" />
<line x1="-0.14" y1="0.0822222" x2="-0.14" y2="0.182222" style="stroke:rgb(246,147,147);stroke-width:0.01" />
<line x1="-0.0733333" y1="-0.217778" x2="-0.0733333" y2="0.248889" style="stroke:rgb(246,147,147);stroke-width:0.01" />
<line x1="-0.04" y1="-0.217778" x2="-0.04" y2="-0.0511111" style="stroke:rgb(246,147,147);stroke-width:0.01" />
<line x1="-0.04" y1="0.182222" x2="-0.04" y2="0.215556" style="stroke:rgb(246,147,147);stroke-width:0.01" />
<line x1="-0.00666667" y1="0.148889" x2="-0.00666667" y2="0.248889" style="stroke:rgb(246,147,147);stroke-width:0.01" />
<line x1="0.0266667" y1="-0.317778" x2="0.0266667" y2="0.148889" style="stroke:rgb(246,147,147);stroke-width:0.01" />
<line x1="0.06" y1="-0.184444" x2="0.06" y2="0.182222" style="stroke:rgb(246,147,147);stroke-width:0.01" />
<line x1="0.0933333" y1="-0.317778" x2="0.0933333" y2="-0.117778" style="stroke:rgb(246,147,147);stroke-width:0.01" />
<line x1="0.0933333" y1="0.115556" x2="0.0933333" y2="0.182222" style="stroke:rgb(246,147,147);stroke-width:0.01" />
<line x1="0.126667" y1="-0.0177778" x2="0.126667" y2="0.182222" style="stroke:rgb(246,147,147);stroke-width:0.01" />
<line x1="0.16" y1="-0.184444" x2="0.16" y2="0.148889" style="stroke:rgb(246,147,147);stroke-width:0.01" />
<line x1="0.193333" y1="0.0822222" x2="0.193333" y2="0.115556" style="stroke:rgb(246,147,147);stroke-width:0.01" />
<line x1="0.0933333" y1="0.148889" x2="0.126667" y2="0.182222" style="stroke:rgb(246,147,147);stroke-width:0.01" />
<line x1="-0.04" y1="-0.217778" x2="0.0933333" y2="-0.217778" style="stroke:rgb(246,147,147);stroke-width:0.01" />
<line x1="-0.106667" y1="0.0155556" x2="0.0266667" y2="0.148889" style="stroke:rgb(246,147,147);stroke-width:0.01" />
<line x1="0.0266667" y1="-0.317778" x2="-0.0733333" y2="-0.217778" style="stroke:rgb(246,147,147);stroke-width:0.01" />
<line x1="-0.0733333" y1="-0.184444" x2="0.16" y2="-0.184444" style="stroke:rgb(246,147,147);stroke-width:0.01" />
<line x1="-0.14" y1="0.115556" x2="0.0266667" y2="0.282222" style="stroke:rgb(246,147,147);stroke-width:0.01" />
<line x1="0.06" y1="-0.184444" x2="-0.0733333" y2="-0.0511111" style="stroke:rgb(246,147,147);stroke-width:0.01" />
<line x1="-0.206667" y1="0.115556" x2="-0.173333" y2="0.148889" style="stroke:rgb(246,147,147);stroke-width:0.01" />
<line x1="-0.14" y1="0.182222" x2="-0.00666667" y2="0.315556" style="stroke:rgb(246,147,147);stroke-width:0.01" />
<line x1="0.0933333" y1="-0.184444" x2="-0.0733333" y2="-0.0177778" style="stroke:rgb(246,147,147);stroke-width:0.01" />
<line x1="-0.106667" y1="0.0155556" x2="-0.206667" y2="0.115556" style="stroke:rgb(246,147,147);stroke-width:0.01" />
<line x1="0.0933333" y1="-0.117778" x2="-0.0733333" y2="0.0488889" style="stroke:rgb(246,147,147);stroke-width:0.01" />
<line x1="-0.14" y1="0.115556" x2="-0.173333" y2="0.148889" style="stroke:rgb(246,147,147);stroke-width:0.01" />
<line x1="-0.0733333" y1="-0.0511111" x2="-0.04" y2="-0.0511111" style="stroke:rgb(246,147,147);stroke-width:0.01" />
<line x1="-0.0733333" y1="-0.0177778" x2="0.126667" y2="-0.0177778" style="stroke:rgb(246,147,147);stroke-width:0.01" />
<line x1="-0.00666667" y1="0.115556" x2="-0.0733333" y2="0.182222" style="stroke:rgb(246,147,147);stroke-width:0.01" />
<line x1="-0.106667" y1="0.0155556" x2="0.16" y2="0.0155556" style="stroke:rgb(246,147,147);stroke-width:0.01" />
<line x1="0.06" y1="0.0822222" x2="-0.0566667" y2="0.198889" style="stroke:rgb(246,147,147);stroke-width:0.01" />
<line x1="0.16" y1="0.0155556" x2="-0.0733333" y2="0.248889" style="stroke:rgb(246,147,147);stroke-width:0.01" />
<line x1="0.06" y1="0.182222" x2="-0.00666667" y2="0.248889" style="stroke:rgb(246,147,147);stroke-width:0.01" />
<line x1="-0.14" y1="0.0822222" x2="0.193333" y2="0.0822222" style="stroke:rgb(246,147,147);stroke-width:0.01" />
<line x1="0.193333" y1="0.115556" x2="-0.00666667" y2="0.315556" style="stroke:rgb(246,147,147);stroke-width:0.01" />
<line x1="-0.206667" y1="0.115556" x2="0.193333" y2="0.115556" style="stroke:rgb(246,147,147);stroke-width:0.01" />
<line x1="-0.173333" y1="0.148889" x2="0.16" y2="0.148889" style="stroke:rgb(246,147,147);stroke-width:0.01" />
<line x1="-0.14" y1="0.182222" x2="0.126667" y2="0.182222" style="stroke:rgb(246,147,147);stroke-width:0.01" />
</g>
</svg>
