<svg xmlns="http://www.w3.org/2000/svg" viewBox="-1.5 -1.5 3 3">
<g transform="scale(1, -1)">
<path d="M25.388238 -0.286436 L25.638238 -0.286436 L25.888238 -0.036436 L26.138238 -0.036436 L26.138238 0.213564 L26.388238 0.463564 L26.388238 0.713564 L26.138238 0.463564 L25.638238 0.463564 L25.638238 -0.036436 z " fill="rgb(245,195,195)" />
<path d="M0.000000 0.000000 L1.000000 0.000000 L1.000000 1.000000 L0.000000 1.000000  z" fill="none" stroke="rgb(128,128,128)" stroke-width="0.01" />
<line x1="25.6382" y1="-0.286436" x2="26.3882" y2="0.463564" style="stroke:rgb(246,147,147);stroke-width:0.01" />
<line x1="25.3882" y1="-0.286436" x2="26.3882" y2="0.713564" style="stroke:rgb(246,147,147);stroke-width:0.01" />
<line x1="25.3882" y1="-0.286436" x2="25.6382" y2="-0.286436" style="stroke:rgb(246,147,147);stroke-width:0.01" />
<line x1="25.6382" y1="-0.0364361" x2="26.1382" y2="-0.0364361" style="stroke:rgb(246,147,147);stroke-width:0.01" />
<line x1="25.6382" y1="-0.286436" x2="25.6382" y2="0.463564" style="stroke:rgb(246,147,147);stroke-width:0.01" />
<line x1="26.1382" y1="-0.0364361" x2="26.1382" y2="0.463564" style="stroke:rgb(246,147,147);stroke-width:0.01" />
<line x1="26.3882" y1="0.463564" x2="26.3882" y2="0.713564" style="stroke:rgb(246,147,147);stroke-width:0.01" />
<line x1="25.6382" y1="0.463564" x2="26.3882" y2="0.463564" style="stroke:rgb(246,147,147);stroke-width:0.01" />
</g>
</svg>
