<svg xmlns="http://www.w3.org/2000/svg" viewBox="-1.5 -1.5 3 3">
<g transform="scale(1, -1)">
<path d="M-0.392052 -0.371775 L0.399377 -0.077272 L0.405360 -0.050119 L0.285499 0.007768 L0.213639 0.061430 L0.189847 0.053963 L-0.375649 0.327070 L-0.726022 0.048936 z " fill="rgb(245,195,195)" />
<path d="M-0.375649 -0.225582 L0.624351 -0.225582 L0.624351 0.774418 L-0.375649 0.774418  z" fill="none" stroke="rgb(128,128,128)" stroke-width="0.01" />
<line x1="0.376278" y1="-0.0858672" x2="0.40536" y2="-0.0501194" style="stroke:rgb(246,147,147);stroke-width:0.01" />
<line x1="0.000819239" y1="-0.225582" x2="0.198931" y2="-0.0544422" style="stroke:rgb(246,147,147);stroke-width:0.01" />
<line x1="0.399377" y1="-0.0772717" x2="0.40536" y2="-0.0501194" style="stroke:rgb(246,147,147);stroke-width:0.01" />
<line x1="0.211291" y1="-0.147261" x2="0.260907" y2="0.0261321" style="stroke:rgb(246,147,147);stroke-width:0.01" />
<line x1="-0.392052" y1="-0.371775" x2="0.399377" y2="-0.0772717" style="stroke:rgb(246,147,147);stroke-width:0.01" />
<line x1="-0.282509" y1="-0.319614" x2="0.260907" y2="0.0261321" style="stroke:rgb(246,147,147);stroke-width:0.01" />
<line x1="-0.392052" y1="-0.371775" x2="-0.726022" y2="0.0489357" style="stroke:rgb(246,147,147);stroke-width:0.01" />
<line x1="0.130879" y1="0.00822394" x2="0.206154" y2="0.0460877" style="stroke:rgb(246,147,147);stroke-width:0.01" />
<line x1="0.210266" y1="-0.147643" x2="0.213639" y2="0.0614295" style="stroke:rgb(246,147,147);stroke-width:0.01" />
<line x1="-0.392052" y1="-0.371775" x2="-0.402021" y2="-0.131773" style="stroke:rgb(246,147,147);stroke-width:0.01" />
<line x1="-0.375649" y1="-0.225582" x2="0.000819239" y2="-0.225582" style="stroke:rgb(246,147,147);stroke-width:0.01" />
<line x1="-0.375649" y1="-0.225582" x2="-0.375649" y2="0.32707" style="stroke:rgb(246,147,147);stroke-width:0.01" />
<line x1="-0.282509" y1="-0.319614" x2="-0.402021" y2="-0.131773" style="stroke:rgb(246,147,147);stroke-width:0.01" />
<line x1="-0.402021" y1="-0.131773" x2="0.213639" y2="0.0614295" style="stroke:rgb(246,147,147);stroke-width:0.01" />
<line x1="0.243822" y1="-0.135156" x2="0.206154" y2="0.0460877" style="stroke:rgb(246,147,147);stroke-width:0.01" />
<line x1="0.208007" y1="-0.145112" x2="0.130879" y2="0.00822394" style="stroke:rgb(246,147,147);stroke-width:0.01" />
<line x1="0.376278" y1="-0.0858672" x2="0.198931" y2="-0.0544422" style="stroke:rgb(246,147,147);stroke-width:0.01" />
<line x1="0.243822" y1="-0.135156" x2="0.198931" y2="-0.0544422" style="stroke:rgb(246,147,147);stroke-width:0.01" />
<line x1="0.211291" y1="-0.147261" x2="0.208007" y2="-0.145112" style="stroke:rgb(246,147,147);stroke-width:0.01" />
<line x1="0.210266" y1="-0.147643" x2="0.208007" y2="-0.145112" style="stroke:rgb(246,147,147);stroke-width:0.01" />
<line x1="-0.726022" y1="0.0489357" x2="-0.375649" y2="0.32707" style="stroke:rgb(246,147,147);stroke-width:0.01" />
<line x1="0.40536" y1="-0.0501194" x2="-0.375649" y2="0.32707" style="stroke:rgb(246,147,147);stroke-width:0.01" />
<line x1="0.399377" y1="-0.0772717" x2="0.213639" y2="0.0614295" style="stroke:rgb(246,147,147);stroke-width:0.01" />
</g>
</svg>
