<svg xmlns="http://www.w3.org/2000/svg" viewBox="-1.5 -1.5 3 3">
<g transform="scale(1, -1)">
<path d="M0.057846 -0.549867 L0.291888 -0.549867 L0.291888 -0.049867 L0.057846 0.184176 L0.057846 0.216090 L0.025931 0.216090 L-0.208112 0.450133 L-0.575133 0.083112 z " fill="rgb(245,195,195)" />
<path d="M-0.708112 -0.549867 L0.291888 -0.549867 L0.291888 0.450133 L-0.708112 0.450133  z" fill="none" stroke="rgb(128,128,128)" stroke-width="0.01" />
<line x1="0.0578457" y1="-0.549867" x2="0.291888" y2="-0.549867" style="stroke:rgb(246,147,147);stroke-width:0.01" />
<line x1="-0.442154" y1="-0.049867" x2="-0.442154" y2="0.21609" style="stroke:rgb(246,147,147);stroke-width:0.01" />
<line x1="-0.208112" y1="-0.049867" x2="-0.208112" y2="0.450133" style="stroke:rgb(246,147,147);stroke-width:0.01" />
<line x1="0.0578457" y1="-0.549867" x2="0.0578457" y2="0.21609" style="stroke:rgb(246,147,147);stroke-width:0.01" />
<line x1="0.291888" y1="-0.549867" x2="0.291888" y2="-0.049867" style="stroke:rgb(246,147,147);stroke-width:0.01" />
<line x1="-0.575133" y1="0.0831117" x2="-0.208112" y2="0.450133" style="stroke:rgb(246,147,147);stroke-width:0.01" />
<line x1="0.0578457" y1="-0.549867" x2="-0.575133" y2="0.0831117" style="stroke:rgb(246,147,147);stroke-width:0.01" />
<line x1="-0.442154" y1="-0.049867" x2="0.291888" y2="-0.049867" style="stroke:rgb(246,147,147);stroke-width:0.01" />
<line x1="0.291888" y1="-0.049867" x2="-0.208112" y2="0.450133" style="stroke:rgb(246,147,147);stroke-width:0.01" />
<line x1="-0.442154" y1="0.21609" x2="0.0578457" y2="0.21609" style="stroke:rgb(246,147,147);stroke-width:0.01" />
</g>
</svg>
