<svg xmlns="http://www.w3.org/2000/svg" viewBox="-1.5 -1.5 3 3">
<g transform="scale(1, -1)">
<path d="M-0.848430 -0.884444 L-0.646114 -0.775752 L-0.528302 -0.849057 L-0.400629 -0.643868 L0.032490 -0.411180 L-0.101110 -0.162499 L-0.000000 -0.000000 L-0.000000 0.000000 L-0.283019 0.176101 L-1.037736 -0.532075 z " fill="rgb(245,195,195)" />
<path d="M0.000000 0.000000 L1.000000 0.000000 L1.000000 1.000000 L0.000000 1.000000  z" fill="none" stroke="rgb(128,128,128)" stroke-width="0.01" />
<line x1="-0.528302" y1="-0.849057" x2="-1.03774" y2="-0.532075" style="stroke:rgb(246,147,147);stroke-width:0.01" />
<line x1="-0.84843" y1="-0.884444" x2="-1.03774" y2="-0.532075" style="stroke:rgb(246,147,147);stroke-width:0.01" />
<line x1="-0.84843" y1="-0.884444" x2="0.0324904" y2="-0.41118" style="stroke:rgb(246,147,147);stroke-width:0.01" />
<line x1="0.0324904" y1="-0.41118" x2="-0.283019" y2="0.176101" style="stroke:rgb(246,147,147);stroke-width:0.01" />
<line x1="-0.528302" y1="-0.849057" x2="-8.12098e-39" y2="-1.30516e-38" style="stroke:rgb(246,147,147);stroke-width:0.01" />
<line x1="-6.65374e-40" y1="4.14011e-40" x2="-0.283019" y2="0.176101" style="stroke:rgb(246,147,147);stroke-width:0.01" />
<line x1="-6.65374e-40" y1="4.14011e-40" x2="-1.3694e-39" y2="7.58209e-40" style="stroke:rgb(246,147,147);stroke-width:0.01" />
<line x1="-8.12098e-39" y1="-1.30516e-38" x2="-6.65374e-40" y2="4.14011e-40" style="stroke:rgb(246,147,147);stroke-width:0.01" />
<line x1="-8.12098e-39" y1="-1.30516e-38" x2="-1.3694e-39" y2="7.58209e-40" style="stroke:rgb(246,147,147);stroke-width:0.01" />
<line x1="-1.03774" y1="-0.532075" x2="-0.283019" y2="0.176101" style="stroke:rgb(246,147,147);stroke-width:0.01" />
</g>
</svg>
