<svg xmlns="http://www.w3.org/2000/svg" viewBox="-1.5 -1.5 3 3">
<g transform="scale(1, -1)">
<path d="M-0.467145 -0.476166 L-0.264829 -0.367474 L-0.147017 -0.440779 L-0.019344 -0.235591 L0.413775 -0.002902 L0.280175 0.245778 L0.381285 0.408277 L0.381285 0.408277 L0.098266 0.584378 L-0.656451 -0.123798 z " fill="rgb(245,195,195)" />
<path d="M0.381285 0.408277 L1.381285 0.408277 L1.381285 1.408277 L0.381285 1.408277  z" fill="none" stroke="rgb(128,128,128)" stroke-width="0.01" />
<line x1="-0.147017" y1="-0.440779" x2="-0.656451" y2="-0.123798" style="stroke:rgb(246,147,147);stroke-width:0.01" />
<line x1="-0.467145" y1="-0.476166" x2="-0.656451" y2="-0.123798" style="stroke:rgb(246,147,147);stroke-width:0.01" />
<line x1="-0.467145" y1="-0.476166" x2="0.413775" y2="-0.00290249" style="stroke:rgb(246,147,147);stroke-width:0.01" />
<line x1="0.413775" y1="-0.00290249" x2="0.0982661" y2="0.584378" style="stroke:rgb(246,147,147);stroke-width:0.01" />
<line x1="-0.147017" y1="-0.440779" x2="0.381285" y2="0.408277" style="stroke:rgb(246,147,147);stroke-width:0.01" />
<line x1="0.381285" y1="0.408277" x2="0.0982661" y2="0.584378" style="stroke:rgb(246,147,147);stroke-width:0.01" />
<line x1="0.381285" y1="0.408277" x2="0.381285" y2="0.408277" style="stroke:rgb(246,147,147);stroke-width:0.01" />
<line x1="0.381285" y1="0.408277" x2="0.381285" y2="0.408277" style="stroke:rgb(246,147,147);stroke-width:0.01" />
<line x1="0.381285" y1="0.408277" x2="0.381285" y2="0.408277" style="stroke:rgb(246,147,147);stroke-width:0.01" />
<line x1="-0.656451" y1="-0.123798" x2="0.0982661" y2="0.584378" style="stroke:rgb(246,147,147);stroke-width:0.01" />
</g>
</svg>
