<svg xmlns="http://www.w3.org/2000/svg" viewBox="-1.5 -1.5 3 3">
<g transform="scale(1, -1)">
<path d="M-0.724138 -0.689655 L-0.549138 -0.522989 L-0.071541 -0.406210 L-0.138591 -0.131991 L-0.000000 -0.000000 L-0.000000 0.000000 L-0.229885 0.241379 L-1.137931 -0.255172 L-1.042925 -0.643726 L-0.819832 -0.589177 z " fill="rgb(245,195,195)" />
<path d="M0.000000 0.000000 L1.000000 0.000000 L1.000000 1.000000 L0.000000 1.000000  z" fill="none" stroke="rgb(128,128,128)" stroke-width="0.01" />
<line x1="-0.724138" y1="-0.689655" x2="-1.13793" y2="-0.255172" style="stroke:rgb(246,147,147);stroke-width:0.01" />
<line x1="-1.04292" y1="-0.643726" x2="-0.071541" y2="-0.40621" style="stroke:rgb(246,147,147);stroke-width:0.01" />
<line x1="-1.04292" y1="-0.643726" x2="-1.13793" y2="-0.255172" style="stroke:rgb(246,147,147);stroke-width:0.01" />
<line x1="-0.071541" y1="-0.40621" x2="-0.229885" y2="0.241379" style="stroke:rgb(246,147,147);stroke-width:0.01" />
<line x1="-0.724138" y1="-0.689655" x2="-2.06725e-38" y2="-1.96881e-38" style="stroke:rgb(246,147,147);stroke-width:0.01" />
<line x1="-3.86041e-40" y1="4.05343e-40" x2="-0.229885" y2="0.241379" style="stroke:rgb(246,147,147);stroke-width:0.01" />
<line x1="-3.86041e-40" y1="4.05343e-40" x2="-7.87675e-40" y2="7.95241e-40" style="stroke:rgb(246,147,147);stroke-width:0.01" />
<line x1="-2.06725e-38" y1="-1.96881e-38" x2="-3.86041e-40" y2="4.05343e-40" style="stroke:rgb(246,147,147);stroke-width:0.01" />
<line x1="-2.06725e-38" y1="-1.96881e-38" x2="-7.87675e-40" y2="7.95241e-40" style="stroke:rgb(246,147,147);stroke-width:0.01" />
<line x1="-1.13793" y1="-0.255172" x2="-0.229885" y2="0.241379" style="stroke:rgb(246,147,147);stroke-width:0.01" />
</g>
</svg>
