<svg xmlns="http://www.w3.org/2000/svg" viewBox="-1.5 -1.5 3 3">
<g transform="scale(1, -1)">
<path d="M-0.252740 -0.389901 L-0.077740 -0.223234 L0.399857 -0.106456 L0.332807 0.167763 L0.471398 0.299754 L0.471398 0.299754 L0.241513 0.541133 L-0.666533 0.044582 L-0.571527 -0.343972 L-0.348434 -0.289423 z " fill="rgb(245,195,195)" />
<path d="M0.471398 0.299754 L1.471398 0.299754 L1.471398 1.299754 L0.471398 1.299754  z" fill="none" stroke="rgb(128,128,128)" stroke-width="0.01" />
<line x1="-0.25274" y1="-0.389901" x2="-0.666533" y2="0.0445816" style="stroke:rgb(246,147,147);stroke-width:0.01" />
<line x1="-0.571527" y1="-0.343972" x2="0.399857" y2="-0.106456" style="stroke:rgb(246,147,147);stroke-width:0.01" />
<line x1="-0.571527" y1="-0.343972" x2="-0.666533" y2="0.0445816" style="stroke:rgb(246,147,147);stroke-width:0.01" />
<line x1="0.399857" y1="-0.106456" x2="0.241513" y2="0.541133" style="stroke:rgb(246,147,147);stroke-width:0.01" />
<line x1="-0.25274" y1="-0.389901" x2="0.471398" y2="0.299754" style="stroke:rgb(246,147,147);stroke-width:0.01" />
<line x1="0.471398" y1="0.299754" x2="0.241513" y2="0.541133" style="stroke:rgb(246,147,147);stroke-width:0.01" />
<line x1="0.471398" y1="0.299754" x2="0.471398" y2="0.299754" style="stroke:rgb(246,147,147);stroke-width:0.01" />
<line x1="0.471398" y1="0.299754" x2="0.471398" y2="0.299754" style="stroke:rgb(246,147,147);stroke-width:0.01" />
<line x1="0.471398" y1="0.299754" x2="0.471398" y2="0.299754" style="stroke:rgb(246,147,147);stroke-width:0.01" />
<line x1="-0.666533" y1="0.0445816" x2="0.241513" y2="0.541133" style="stroke:rgb(246,147,147);stroke-width:0.01" />
</g>
</svg>
