<svg xmlns="http://www.w3.org/2000/svg" viewBox="-1.5 -1.5 3 3">
<g transform="scale(1, -1)">
<path d="M-0.849057 -0.528302 L-0.643868 -0.400629 L-0.152509 -0.383230 L-0.162499 -0.101110 L-0.000000 -0.000000 L-0.000000 0.000000 L-0.176101 0.283019 L-1.166038 -0.018868 L-1.151883 -0.418617 L-0.922362 -0.410490 z " fill="rgb(245,195,195)" />
<path d="M0.000000 0.000000 L1.000000 0.000000 L1.000000 1.000000 L0.000000 1.000000  z" fill="none" stroke="rgb(128,128,128)" stroke-width="0.01" />
<line x1="-0.849057" y1="-0.528302" x2="-1.16604" y2="-0.0188679" style="stroke:rgb(246,147,147);stroke-width:0.01" />
<line x1="-1.15188" y1="-0.418617" x2="-0.152509" y2="-0.38323" style="stroke:rgb(246,147,147);stroke-width:0.01" />
<line x1="-1.15188" y1="-0.418617" x2="-1.16604" y2="-0.0188679" style="stroke:rgb(246,147,147);stroke-width:0.01" />
<line x1="-0.152509" y1="-0.38323" x2="-0.176101" y2="0.283019" style="stroke:rgb(246,147,147);stroke-width:0.01" />
<line x1="-0.849057" y1="-0.528302" x2="-5.65568e-38" y2="-3.51909e-38" style="stroke:rgb(246,147,147);stroke-width:0.01" />
<line x1="-2.70007e-40" y1="4.3394e-40" x2="-0.176101" y2="0.283019" style="stroke:rgb(246,147,147);stroke-width:0.01" />
<line x1="-2.70007e-40" y1="4.3394e-40" x2="-5.46641e-40" y2="8.63685e-40" style="stroke:rgb(246,147,147);stroke-width:0.01" />
<line x1="-5.65568e-38" y1="-3.51909e-38" x2="-2.70007e-40" y2="4.3394e-40" style="stroke:rgb(246,147,147);stroke-width:0.01" />
<line x1="-5.65568e-38" y1="-3.51909e-38" x2="-5.46641e-40" y2="8.63685e-40" style="stroke:rgb(246,147,147);stroke-width:0.01" />
<line x1="-1.16604" y1="-0.0188679" x2="-0.176101" y2="0.283019" style="stroke:rgb(246,147,147);stroke-width:0.01" />
</g>
</svg>
