<svg xmlns="http://www.w3.org/2000/svg" viewBox="-1.5 -1.5 3 3">
<g transform="scale(1, -1)">
<path d="M0.296340 -0.288793 L0.372315 -0.016912 L0.557814 0.030198 L0.557814 0.030198 L0.475763 0.353275 L-0.559109 0.365583 L-0.666763 -0.019658 L-0.445572 -0.081469 L-0.411417 -0.215955 L-0.177186 -0.156468 z " fill="rgb(245,195,195)" />
<path d="M0.557814 0.030198 L1.557814 0.030198 L1.557814 1.030198 L0.557814 1.030198  z" fill="none" stroke="rgb(128,128,128)" stroke-width="0.01" />
<line x1="0.29634" y1="-0.288793" x2="-0.666763" y2="-0.0196579" style="stroke:rgb(246,147,147);stroke-width:0.01" />
<line x1="-0.411417" y1="-0.215955" x2="-0.559109" y2="0.365583" style="stroke:rgb(246,147,147);stroke-width:0.01" />
<line x1="-0.411417" y1="-0.215955" x2="0.557814" y2="0.0301985" style="stroke:rgb(246,147,147);stroke-width:0.01" />
<line x1="0.557814" y1="0.0301985" x2="0.475763" y2="0.353275" style="stroke:rgb(246,147,147);stroke-width:0.01" />
<line x1="0.557814" y1="0.0301985" x2="0.557814" y2="0.0301985" style="stroke:rgb(246,147,147);stroke-width:0.01" />
<line x1="0.557814" y1="0.0301985" x2="0.557814" y2="0.0301985" style="stroke:rgb(246,147,147);stroke-width:0.01" />
<line x1="0.557814" y1="0.0301985" x2="0.557814" y2="0.0301985" style="stroke:rgb(246,147,147);stroke-width:0.01" />
<line x1="0.29634" y1="-0.288793" x2="0.475763" y2="0.353275" style="stroke:rgb(246,147,147);stroke-width:0.01" />
<line x1="-0.666763" y1="-0.0196579" x2="-0.559109" y2="0.365583" style="stroke:rgb(246,147,147);stroke-width:0.01" />
<line x1="0.475763" y1="0.353275" x2="-0.559109" y2="0.365583" style="stroke:rgb(246,147,147);stroke-width:0.01" />
</g>
</svg>
