<svg xmlns="http://www.w3.org/2000/svg" viewBox="-1.5 -1.5 3 3">
<g transform="scale(1, -1)">
<path d="M-0.261475 -0.318991 L-0.185499 -0.047111 L-0.000000 -0.000000 L-0.000000 0.000000 L-0.082051 0.323077 L-1.116923 0.335385 L-1.224577 -0.049856 L-1.003386 -0.111667 L-0.969231 -0.246154 L-0.735000 -0.186667 z " fill="rgb(245,195,195)" />
<path d="M0.000000 0.000000 L1.000000 0.000000 L1.000000 1.000000 L0.000000 1.000000  z" fill="none" stroke="rgb(128,128,128)" stroke-width="0.01" />
<line x1="-0.261475" y1="-0.318991" x2="-1.22458" y2="-0.0498564" style="stroke:rgb(246,147,147);stroke-width:0.01" />
<line x1="-0.969231" y1="-0.246154" x2="-1.11692" y2="0.335385" style="stroke:rgb(246,147,147);stroke-width:0.01" />
<line x1="-0.969231" y1="-0.246154" x2="-6.6788e-39" y2="-1.6962e-39" style="stroke:rgb(246,147,147);stroke-width:0.01" />
<line x1="-9.64508e-40" y1="3.79775e-39" x2="-0.0820513" y2="0.323077" style="stroke:rgb(246,147,147);stroke-width:0.01" />
<line x1="-6.6788e-39" y1="-1.6962e-39" x2="-4.72142e-39" y2="4.91077e-39" style="stroke:rgb(246,147,147);stroke-width:0.01" />
<line x1="-6.6788e-39" y1="-1.6962e-39" x2="-9.64508e-40" y2="3.79775e-39" style="stroke:rgb(246,147,147);stroke-width:0.01" />
<line x1="-9.64508e-40" y1="3.79775e-39" x2="-4.72142e-39" y2="4.91077e-39" style="stroke:rgb(246,147,147);stroke-width:0.01" />
<line x1="-0.261475" y1="-0.318991" x2="-0.0820513" y2="0.323077" style="stroke:rgb(246,147,147);stroke-width:0.01" />
<line x1="-1.22458" y1="-0.0498564" x2="-1.11692" y2="0.335385" style="stroke:rgb(246,147,147);stroke-width:0.01" />
<line x1="-0.0820513" y1="0.323077" x2="-1.11692" y2="0.335385" style="stroke:rgb(246,147,147);stroke-width:0.01" />
</g>
</svg>
