<svg xmlns="http://www.w3.org/2000/svg" viewBox="-1.5 -1.5 3 3">
<g transform="scale(1, -1)">
<path d="M0.340476 -0.442857 L0.415476 -0.342857 L-0.084524 0.657143 L-0.459524 0.657143 L-0.459524 0.157143 L0.040476 -0.342857 L0.207143 -0.342857 z " fill="rgb(245,195,195)" />
<path d="M-0.459524 -0.342857 L0.540476 -0.342857 L0.540476 0.657143 L-0.459524 0.657143  z" fill="none" stroke="rgb(128,128,128)" stroke-width="0.01" />
<line x1="0.340476" y1="-0.442857" x2="0.415476" y2="-0.342857" style="stroke:rgb(246,147,147);stroke-width:0.01" />
<line x1="0.0404762" y1="-0.342857" x2="0.415476" y2="-0.342857" style="stroke:rgb(246,147,147);stroke-width:0.01" />
<line x1="-0.459524" y1="0.157143" x2="-0.459524" y2="0.657143" style="stroke:rgb(246,147,147);stroke-width:0.01" />
<line x1="0.0404762" y1="-0.342857" x2="0.0404762" y2="0.157143" style="stroke:rgb(246,147,147);stroke-width:0.01" />
<line x1="-0.459524" y1="0.157143" x2="-0.0845238" y2="0.657143" style="stroke:rgb(246,147,147);stroke-width:0.01" />
<line x1="0.0404762" y1="-0.342857" x2="-0.459524" y2="0.157143" style="stroke:rgb(246,147,147);stroke-width:0.01" />
<line x1="0.340476" y1="-0.442857" x2="-0.459524" y2="0.157143" style="stroke:rgb(246,147,147);stroke-width:0.01" />
<line x1="0.415476" y1="-0.342857" x2="-0.0845238" y2="0.657143" style="stroke:rgb(246,147,147);stroke-width:0.01" />
<line x1="-0.459524" y1="0.157143" x2="0.0404762" y2="0.157143" style="stroke:rgb(246,147,147);stroke-width:0.01" />
<line x1="-0.459524" y1="0.657143" x2="-0.0845238" y2="0.657143" style="stroke:rgb(246,147,147);stroke-width:0.01" />
</g>
</svg>
