<svg xmlns="http://www.w3.org/2000/svg" viewBox="-1.5 -1.5 3 3">
<g transform="scale(1, -1)">
<path d="M0.055898 -0.521238 L0.078398 -0.505771 L0.044028 -0.455775 L0.035679 -0.455933 L0.022014 -0.411796 L0.042360 -0.216597 L-0.074668 -0.123170 L0.012147 0.028265 L-0.019202 0.046236 L0.033851 0.082558 L0.303505 0.416376 L0.276104 0.480451 L0.201485 0.448541 L0.194100 0.437672 L0.097686 0.456439 L-0.154817 0.198937 L-0.199485 0.188062 L-0.209468 0.189728 L-0.210180 0.185458 L-0.246590 0.176594 L-0.291511 -0.140196 L0.008666 -0.504841 z " fill="rgb(245,195,195)" />
<path d="M-0.334679 -0.776417 L0.665321 -0.776417 L0.665321 0.223583 L-0.334679 0.223583  z" fill="none" stroke="rgb(128,128,128)" stroke-width="0.01" />
<line x1="0.0121881" y1="-0.506063" x2="0.0440282" y2="-0.455775" style="stroke:rgb(246,147,147);stroke-width:0.01" />
<line x1="0.121823" y1="0.191462" x2="0.156614" y2="0.382504" style="stroke:rgb(246,147,147);stroke-width:0.01" />
<line x1="-0.0305638" y1="-0.457186" x2="-0.010975" y2="-0.36628" style="stroke:rgb(246,147,147);stroke-width:0.01" />
<line x1="0.0121881" y1="-0.506063" x2="0.0423599" y2="-0.216597" style="stroke:rgb(246,147,147);stroke-width:0.01" />
<line x1="0.197064" y1="0.284608" x2="0.201485" y2="0.448541" style="stroke:rgb(246,147,147);stroke-width:0.01" />
<line x1="0.0558982" y1="-0.521238" x2="0.0783978" y2="-0.505771" style="stroke:rgb(246,147,147);stroke-width:0.01" />
<line x1="0.0338514" y1="0.082558" x2="0.156614" y2="0.382504" style="stroke:rgb(246,147,147);stroke-width:0.01" />
<line x1="-0.261021" y1="-0.119321" x2="-0.209468" y2="0.189728" style="stroke:rgb(246,147,147);stroke-width:0.01" />
<line x1="-0.291511" y1="-0.140196" x2="-0.24659" y2="0.176594" style="stroke:rgb(246,147,147);stroke-width:0.01" />
<line x1="-0.16944" y1="-0.288484" x2="0.012147" y2="0.0282645" style="stroke:rgb(246,147,147);stroke-width:0.01" />
<line x1="0.00866635" y1="-0.504841" x2="-0.010975" y2="-0.36628" style="stroke:rgb(246,147,147);stroke-width:0.01" />
<line x1="0.0558982" y1="-0.521238" x2="-0.0649437" y2="-0.130933" style="stroke:rgb(246,147,147);stroke-width:0.01" />
<line x1="0.156614" y1="0.382504" x2="0.201485" y2="0.448541" style="stroke:rgb(246,147,147);stroke-width:0.01" />
<line x1="0.147769" y1="0.223583" x2="0.0976855" y2="0.456439" style="stroke:rgb(246,147,147);stroke-width:0.01" />
<line x1="0.0338514" y1="0.082558" x2="0.303505" y2="0.416376" style="stroke:rgb(246,147,147);stroke-width:0.01" />
<line x1="-0.010975" y1="-0.36628" x2="-0.258401" y2="0.093303" style="stroke:rgb(246,147,147);stroke-width:0.01" />
<line x1="0.0812482" y1="0.141233" x2="0.0697484" y2="0.170265" style="stroke:rgb(246,147,147);stroke-width:0.01" />
<line x1="0.00866635" y1="-0.504841" x2="-0.291511" y2="-0.140196" style="stroke:rgb(246,147,147);stroke-width:0.01" />
<line x1="0.0783978" y1="-0.505771" x2="0.0440282" y2="-0.455775" style="stroke:rgb(246,147,147);stroke-width:0.01" />
<line x1="-0.0305638" y1="-0.457186" x2="0.0440282" y2="-0.455775" style="stroke:rgb(246,147,147);stroke-width:0.01" />
<line x1="0.0558982" y1="-0.521238" x2="0.00866635" y2="-0.504841" style="stroke:rgb(246,147,147);stroke-width:0.01" />
<line x1="-0.16944" y1="-0.288484" x2="0.0423599" y2="-0.216597" style="stroke:rgb(246,147,147);stroke-width:0.01" />
<line x1="-0.258401" y1="0.093303" x2="0.0976855" y2="0.456439" style="stroke:rgb(246,147,147);stroke-width:0.01" />
<line x1="-0.291511" y1="-0.140196" x2="0.0338514" y2="0.082558" style="stroke:rgb(246,147,147);stroke-width:0.01" />
<line x1="0.303505" y1="0.416376" x2="0.276104" y2="0.480451" style="stroke:rgb(246,147,147);stroke-width:0.01" />
<line x1="0.0423599" y1="-0.216597" x2="-0.267291" y2="0.0306065" style="stroke:rgb(246,147,147);stroke-width:0.01" />
<line x1="0.0697484" y1="0.170265" x2="0.122189" y2="0.193476" style="stroke:rgb(246,147,147);stroke-width:0.01" />
<line x1="-0.261021" y1="-0.119321" x2="-0.287763" y2="-0.113766" style="stroke:rgb(246,147,147);stroke-width:0.01" />
<line x1="-0.0649437" y1="-0.130933" x2="-0.287763" y2="-0.113766" style="stroke:rgb(246,147,147);stroke-width:0.01" />
<line x1="-0.267291" y1="0.0306065" x2="0.121823" y2="0.191462" style="stroke:rgb(246,147,147);stroke-width:0.01" />
<line x1="0.122189" y1="0.193476" x2="0.0915703" y2="0.223583" style="stroke:rgb(246,147,147);stroke-width:0.01" />
<line x1="0.012147" y1="0.0282645" x2="-0.24659" y2="0.176594" style="stroke:rgb(246,147,147);stroke-width:0.01" />
<line x1="0.201485" y1="0.448541" x2="0.276104" y2="0.480451" style="stroke:rgb(246,147,147);stroke-width:0.01" />
<line x1="-0.24659" y1="0.176594" x2="0.197064" y2="0.284608" style="stroke:rgb(246,147,147);stroke-width:0.01" />
<line x1="0.0812482" y1="0.141233" x2="-0.209468" y2="0.189728" style="stroke:rgb(246,147,147);stroke-width:0.01" />
<line x1="0.0915703" y1="0.223583" x2="0.147769" y2="0.223583" style="stroke:rgb(246,147,147);stroke-width:0.01" />
<line x1="0.303505" y1="0.416376" x2="0.0976855" y2="0.456439" style="stroke:rgb(246,147,147);stroke-width:0.01" />
</g>
</svg>
