<svg xmlns="http://www.w3.org/2000/svg" viewBox="-1.5 -1.5 3 3">
<g transform="scale(1, -1)">
<path d="M-0.218750 -0.222917 L-0.152083 -0.222917 L0.047917 -0.022917 L0.181250 -0.022917 L0.181250 0.010417 L0.281250 0.010417 L0.347917 0.077083 L0.381250 0.077083 L0.381250 0.177083 L-0.018750 0.177083 L-0.085417 0.110417 L-0.285417 0.110417 L-0.318750 0.077083 L-0.252083 0.010417 L-0.252083 -0.156250 L-0.218750 -0.189583 z " fill="rgb(245,195,195)" />
<path d="M-0.318750 -0.222917 L0.681250 -0.222917 L0.681250 0.777083 L-0.318750 0.777083  z" fill="none" stroke="rgb(128,128,128)" stroke-width="0.01" />
<line x1="0.28125" y1="0.0104167" x2="0.38125" y2="0.110417" style="stroke:rgb(246,147,147);stroke-width:0.01" />
<line x1="0.214583" y1="0.0104167" x2="0.314583" y2="0.110417" style="stroke:rgb(246,147,147);stroke-width:0.01" />
<line x1="-0.152083" y1="-0.222917" x2="0.18125" y2="0.110417" style="stroke:rgb(246,147,147);stroke-width:0.01" />
<line x1="-0.185417" y1="-0.222917" x2="0.08125" y2="0.04375" style="stroke:rgb(246,147,147);stroke-width:0.01" />
<line x1="-0.11875" y1="-0.122917" x2="0.114583" y2="0.110417" style="stroke:rgb(246,147,147);stroke-width:0.01" />
<line x1="0.0479167" y1="0.0770833" x2="0.08125" y2="0.110417" style="stroke:rgb(246,147,147);stroke-width:0.01" />
<line x1="-0.21875" y1="-0.222917" x2="-0.152083" y2="-0.222917" style="stroke:rgb(246,147,147);stroke-width:0.01" />
<line x1="-0.252083" y1="-0.15625" x2="-0.252083" y2="0.110417" style="stroke:rgb(246,147,147);stroke-width:0.01" />
<line x1="-0.21875" y1="-0.222917" x2="-0.21875" y2="-0.0229167" style="stroke:rgb(246,147,147);stroke-width:0.01" />
<line x1="-0.185417" y1="-0.222917" x2="-0.185417" y2="0.0104167" style="stroke:rgb(246,147,147);stroke-width:0.01" />
<line x1="-0.0854167" y1="-0.15625" x2="-0.0854167" y2="0.110417" style="stroke:rgb(246,147,147);stroke-width:0.01" />
<line x1="-0.0520833" y1="0.04375" x2="-0.0520833" y2="0.0770833" style="stroke:rgb(246,147,147);stroke-width:0.01" />
<line x1="-0.01875" y1="0.0104167" x2="-0.01875" y2="0.177083" style="stroke:rgb(246,147,147);stroke-width:0.01" />
<line x1="0.0479167" y1="0.04375" x2="0.0479167" y2="0.0770833" style="stroke:rgb(246,147,147);stroke-width:0.01" />
<line x1="0.08125" y1="-0.0229167" x2="0.08125" y2="0.110417" style="stroke:rgb(246,147,147);stroke-width:0.01" />
<line x1="0.114583" y1="0.04375" x2="0.114583" y2="0.0770833" style="stroke:rgb(246,147,147);stroke-width:0.01" />
<line x1="0.18125" y1="-0.0229167" x2="0.18125" y2="0.0104167" style="stroke:rgb(246,147,147);stroke-width:0.01" />
<line x1="0.247917" y1="0.04375" x2="0.247917" y2="0.177083" style="stroke:rgb(246,147,147);stroke-width:0.01" />
<line x1="0.314583" y1="0.04375" x2="0.314583" y2="0.110417" style="stroke:rgb(246,147,147);stroke-width:0.01" />
<line x1="0.38125" y1="0.0770833" x2="0.38125" y2="0.177083" style="stroke:rgb(246,147,147);stroke-width:0.01" />
<line x1="-0.21875" y1="-0.0229167" x2="-0.01875" y2="0.177083" style="stroke:rgb(246,147,147);stroke-width:0.01" />
<line x1="-0.252083" y1="-0.15625" x2="-0.21875" y2="-0.15625" style="stroke:rgb(246,147,147);stroke-width:0.01" />
<line x1="-0.185417" y1="-0.222917" x2="-0.252083" y2="-0.15625" style="stroke:rgb(246,147,147);stroke-width:0.01" />
<line x1="-0.152083" y1="-0.222917" x2="-0.21875" y2="-0.15625" style="stroke:rgb(246,147,147);stroke-width:0.01" />
<line x1="-0.285417" y1="0.04375" x2="-0.252083" y2="0.0770833" style="stroke:rgb(246,147,147);stroke-width:0.01" />
<line x1="-0.31875" y1="0.0770833" x2="-0.285417" y2="0.110417" style="stroke:rgb(246,147,147);stroke-width:0.01" />
<line x1="-0.0854167" y1="-0.15625" x2="-0.31875" y2="0.0770833" style="stroke:rgb(246,147,147);stroke-width:0.01" />
<line x1="-0.185417" y1="0.0104167" x2="-0.285417" y2="0.110417" style="stroke:rgb(246,147,147);stroke-width:0.01" />
<line x1="-0.21875" y1="-0.0229167" x2="0.18125" y2="-0.0229167" style="stroke:rgb(246,147,147);stroke-width:0.01" />
<line x1="-0.185417" y1="0.0104167" x2="0.28125" y2="0.0104167" style="stroke:rgb(246,147,147);stroke-width:0.01" />
<line x1="-0.285417" y1="0.04375" x2="0.114583" y2="0.04375" style="stroke:rgb(246,147,147);stroke-width:0.01" />
<line x1="0.247917" y1="0.04375" x2="0.314583" y2="0.04375" style="stroke:rgb(246,147,147);stroke-width:0.01" />
<line x1="-0.01875" y1="0.04375" x2="-0.0520833" y2="0.0770833" style="stroke:rgb(246,147,147);stroke-width:0.01" />
<line x1="-0.252083" y1="0.0770833" x2="0.38125" y2="0.0770833" style="stroke:rgb(246,147,147);stroke-width:0.01" />
<line x1="0.08125" y1="0.0104167" x2="0.0479167" y2="0.04375" style="stroke:rgb(246,147,147);stroke-width:0.01" />
<line x1="-0.285417" y1="0.110417" x2="0.18125" y2="0.110417" style="stroke:rgb(246,147,147);stroke-width:0.01" />
<line x1="0.314583" y1="0.110417" x2="0.38125" y2="0.110417" style="stroke:rgb(246,147,147);stroke-width:0.01" />
<line x1="0.08125" y1="0.0770833" x2="-0.01875" y2="0.177083" style="stroke:rgb(246,147,147);stroke-width:0.01" />
<line x1="0.18125" y1="0.0104167" x2="0.08125" y2="0.110417" style="stroke:rgb(246,147,147);stroke-width:0.01" />
<line x1="0.214583" y1="0.0104167" x2="0.114583" y2="0.110417" style="stroke:rgb(246,147,147);stroke-width:0.01" />
<line x1="-0.01875" y1="0.177083" x2="0.38125" y2="0.177083" style="stroke:rgb(246,147,147);stroke-width:0.01" />
<line x1="0.28125" y1="0.0104167" x2="0.18125" y2="0.110417" style="stroke:rgb(246,147,147);stroke-width:0.01" />
<line x1="0.347917" y1="0.0770833" x2="0.247917" y2="0.177083" style="stroke:rgb(246,147,147);stroke-width:0.01" />
</g>
</svg>
