<svg xmlns="http://www.w3.org/2000/svg" viewBox="-1.5 -1.5 3 3">
<g transform="scale(1, -1)">
<path d="M0.283333 0.000000 L0.316667 0.000000 L0.316667 0.166667 L0.350000 0.166667 L0.383333 0.200000 L0.450000 0.200000 L0.450000 0.266667 L0.350000 0.366667 L0.350000 0.400000 L0.316667 0.400000 L0.283333 0.433333 L0.216667 0.433333 L0.216667 0.366667 L0.183333 0.333333 L0.050000 0.333333 L0.000000 0.283333 z " fill="rgb(245,195,195)" />
<path d="M0.000000 0.000000 L1.000000 0.000000 L1.000000 1.000000 L0.000000 1.000000  z" fill="none" stroke="rgb(128,128,128)" stroke-width="0.01" />
<line x1="0.266667" y1="0.0166667" x2="0.283333" y2="0.0333333" style="stroke:rgb(246,147,147);stroke-width:0.01" />
<line x1="0.35" y1="0.166667" x2="0.45" y2="0.266667" style="stroke:rgb(246,147,147);stroke-width:0.01" />
<line x1="0.166667" y1="0.116667" x2="0.383333" y2="0.333333" style="stroke:rgb(246,147,147);stroke-width:0.01" />
<line x1="0.283333" y1="0" x2="0.316667" y2="0" style="stroke:rgb(246,147,147);stroke-width:0.01" />
<line x1="0.0166667" y1="0.266667" x2="0.0166667" y2="0.3" style="stroke:rgb(246,147,147);stroke-width:0.01" />
<line x1="0.05" y1="0.233333" x2="0.05" y2="0.266667" style="stroke:rgb(246,147,147);stroke-width:0.01" />
<line x1="0.15" y1="0.133333" x2="0.15" y2="0.333333" style="stroke:rgb(246,147,147);stroke-width:0.01" />
<line x1="0.183333" y1="0.166667" x2="0.183333" y2="0.333333" style="stroke:rgb(246,147,147);stroke-width:0.01" />
<line x1="0.216667" y1="0.166667" x2="0.216667" y2="0.433333" style="stroke:rgb(246,147,147);stroke-width:0.01" />
<line x1="0.25" y1="0.2" x2="0.25" y2="0.333333" style="stroke:rgb(246,147,147);stroke-width:0.01" />
<line x1="0.283333" y1="0" x2="0.283333" y2="0.433333" style="stroke:rgb(246,147,147);stroke-width:0.01" />
<line x1="0.316667" y1="0" x2="0.316667" y2="0.4" style="stroke:rgb(246,147,147);stroke-width:0.01" />
<line x1="0.35" y1="0.166667" x2="0.35" y2="0.4" style="stroke:rgb(246,147,147);stroke-width:0.01" />
<line x1="0.383333" y1="0.266667" x2="0.383333" y2="0.333333" style="stroke:rgb(246,147,147);stroke-width:0.01" />
<line x1="0.45" y1="0.2" x2="0.45" y2="0.266667" style="stroke:rgb(246,147,147);stroke-width:0.01" />
<line x1="0.183333" y1="0.2" x2="0.316667" y2="0.333333" style="stroke:rgb(246,147,147);stroke-width:0.01" />
<line x1="0.283333" y1="0.0333333" x2="0.316667" y2="0.0333333" style="stroke:rgb(246,147,147);stroke-width:0.01" />
<line x1="0.1" y1="0.183333" x2="0.316667" y2="0.4" style="stroke:rgb(246,147,147);stroke-width:0.01" />
<line x1="0.116667" y1="0.266667" x2="0.283333" y2="0.433333" style="stroke:rgb(246,147,147);stroke-width:0.01" />
<line x1="0.15" y1="0.133333" x2="0.183333" y2="0.133333" style="stroke:rgb(246,147,147);stroke-width:0.01" />
<line x1="0" y1="0.283333" x2="0.05" y2="0.333333" style="stroke:rgb(246,147,147);stroke-width:0.01" />
<line x1="0.283333" y1="0" x2="0" y2="0.283333" style="stroke:rgb(246,147,147);stroke-width:0.01" />
<line x1="0.283333" y1="0.0333333" x2="0.0166667" y2="0.3" style="stroke:rgb(246,147,147);stroke-width:0.01" />
<line x1="0.15" y1="0.166667" x2="0.35" y2="0.166667" style="stroke:rgb(246,147,147);stroke-width:0.01" />
<line x1="0.116667" y1="0.266667" x2="0.05" y2="0.333333" style="stroke:rgb(246,147,147);stroke-width:0.01" />
<line x1="0.15" y1="0.2" x2="0.45" y2="0.2" style="stroke:rgb(246,147,147);stroke-width:0.01" />
<line x1="0.05" y1="0.233333" x2="0.283333" y2="0.233333" style="stroke:rgb(246,147,147);stroke-width:0.01" />
<line x1="0.283333" y1="0.233333" x2="0.183333" y2="0.333333" style="stroke:rgb(246,147,147);stroke-width:0.01" />
<line x1="0.0166667" y1="0.266667" x2="0.05" y2="0.266667" style="stroke:rgb(246,147,147);stroke-width:0.01" />
<line x1="0.116667" y1="0.266667" x2="0.45" y2="0.266667" style="stroke:rgb(246,147,147);stroke-width:0.01" />
<line x1="0.383333" y1="0.2" x2="0.216667" y2="0.366667" style="stroke:rgb(246,147,147);stroke-width:0.01" />
<line x1="0.0166667" y1="0.3" x2="0.35" y2="0.3" style="stroke:rgb(246,147,147);stroke-width:0.01" />
<line x1="0.35" y1="0.3" x2="0.316667" y2="0.333333" style="stroke:rgb(246,147,147);stroke-width:0.01" />
<line x1="0.05" y1="0.333333" x2="0.383333" y2="0.333333" style="stroke:rgb(246,147,147);stroke-width:0.01" />
<line x1="0.45" y1="0.266667" x2="0.283333" y2="0.433333" style="stroke:rgb(246,147,147);stroke-width:0.01" />
<line x1="0.216667" y1="0.366667" x2="0.35" y2="0.366667" style="stroke:rgb(246,147,147);stroke-width:0.01" />
<line x1="0.316667" y1="0.4" x2="0.35" y2="0.4" style="stroke:rgb(246,147,147);stroke-width:0.01" />
<line x1="0.216667" y1="0.433333" x2="0.283333" y2="0.433333" style="stroke:rgb(246,147,147);stroke-width:0.01" />
</g>
</svg>
