<svg xmlns="http://www.w3.org/2000/svg" viewBox="-1.5 -1.5 3 3">
<g transform="scale(1, -1)">
<path d="M0.001042 -0.271875 L0.034375 -0.271875 L0.034375 -0.105208 L0.067708 -0.105208 L0.101042 -0.071875 L0.167708 -0.071875 L0.167708 -0.005208 L0.067708 0.094792 L0.067708 0.128125 L0.034375 0.128125 L0.001042 0.161458 L-0.065625 0.161458 L-0.065625 0.094792 L-0.098958 0.061458 L-0.232292 0.061458 L-0.282292 0.011458 z " fill="rgb(245,195,195)" />
<path d="M-0.282292 -0.271875 L0.717708 -0.271875 L0.717708 0.728125 L-0.282292 0.728125  z" fill="none" stroke="rgb(128,128,128)" stroke-width="0.01" />
<line x1="-0.015625" y1="-0.255208" x2="0.00104167" y2="-0.238542" style="stroke:rgb(246,147,147);stroke-width:0.01" />
<line x1="0.0677083" y1="-0.105208" x2="0.167708" y2="-0.00520833" style="stroke:rgb(246,147,147);stroke-width:0.01" />
<line x1="-0.115625" y1="-0.155208" x2="0.101042" y2="0.0614583" style="stroke:rgb(246,147,147);stroke-width:0.01" />
<line x1="0.00104167" y1="-0.271875" x2="0.034375" y2="-0.271875" style="stroke:rgb(246,147,147);stroke-width:0.01" />
<line x1="-0.265625" y1="-0.00520833" x2="-0.265625" y2="0.028125" style="stroke:rgb(246,147,147);stroke-width:0.01" />
<line x1="-0.232292" y1="-0.0385417" x2="-0.232292" y2="-0.00520833" style="stroke:rgb(246,147,147);stroke-width:0.01" />
<line x1="-0.132292" y1="-0.138542" x2="-0.132292" y2="0.0614583" style="stroke:rgb(246,147,147);stroke-width:0.01" />
<line x1="-0.0989583" y1="-0.105208" x2="-0.0989583" y2="0.0614583" style="stroke:rgb(246,147,147);stroke-width:0.01" />
<line x1="-0.065625" y1="-0.105208" x2="-0.065625" y2="0.161458" style="stroke:rgb(246,147,147);stroke-width:0.01" />
<line x1="-0.0322917" y1="-0.071875" x2="-0.0322917" y2="0.0614583" style="stroke:rgb(246,147,147);stroke-width:0.01" />
<line x1="0.00104167" y1="-0.271875" x2="0.00104167" y2="0.161458" style="stroke:rgb(246,147,147);stroke-width:0.01" />
<line x1="0.034375" y1="-0.271875" x2="0.034375" y2="0.128125" style="stroke:rgb(246,147,147);stroke-width:0.01" />
<line x1="0.0677083" y1="-0.105208" x2="0.0677083" y2="0.128125" style="stroke:rgb(246,147,147);stroke-width:0.01" />
<line x1="0.101042" y1="-0.00520833" x2="0.101042" y2="0.0614583" style="stroke:rgb(246,147,147);stroke-width:0.01" />
<line x1="0.167708" y1="-0.071875" x2="0.167708" y2="-0.00520833" style="stroke:rgb(246,147,147);stroke-width:0.01" />
<line x1="-0.0989583" y1="-0.071875" x2="0.034375" y2="0.0614583" style="stroke:rgb(246,147,147);stroke-width:0.01" />
<line x1="0.00104167" y1="-0.238542" x2="0.034375" y2="-0.238542" style="stroke:rgb(246,147,147);stroke-width:0.01" />
<line x1="-0.182292" y1="-0.0885417" x2="0.034375" y2="0.128125" style="stroke:rgb(246,147,147);stroke-width:0.01" />
<line x1="-0.165625" y1="-0.00520833" x2="0.00104167" y2="0.161458" style="stroke:rgb(246,147,147);stroke-width:0.01" />
<line x1="-0.132292" y1="-0.138542" x2="-0.0989583" y2="-0.138542" style="stroke:rgb(246,147,147);stroke-width:0.01" />
<line x1="-0.282292" y1="0.0114583" x2="-0.232292" y2="0.0614583" style="stroke:rgb(246,147,147);stroke-width:0.01" />
<line x1="0.00104167" y1="-0.271875" x2="-0.282292" y2="0.0114583" style="stroke:rgb(246,147,147);stroke-width:0.01" />
<line x1="0.00104167" y1="-0.238542" x2="-0.265625" y2="0.028125" style="stroke:rgb(246,147,147);stroke-width:0.01" />
<line x1="-0.132292" y1="-0.105208" x2="0.0677083" y2="-0.105208" style="stroke:rgb(246,147,147);stroke-width:0.01" />
<line x1="-0.165625" y1="-0.00520833" x2="-0.232292" y2="0.0614583" style="stroke:rgb(246,147,147);stroke-width:0.01" />
<line x1="-0.132292" y1="-0.071875" x2="0.167708" y2="-0.071875" style="stroke:rgb(246,147,147);stroke-width:0.01" />
<line x1="-0.232292" y1="-0.0385417" x2="0.00104167" y2="-0.0385417" style="stroke:rgb(246,147,147);stroke-width:0.01" />
<line x1="0.00104167" y1="-0.0385417" x2="-0.0989583" y2="0.0614583" style="stroke:rgb(246,147,147);stroke-width:0.01" />
<line x1="-0.265625" y1="-0.00520833" x2="-0.232292" y2="-0.00520833" style="stroke:rgb(246,147,147);stroke-width:0.01" />
<line x1="-0.165625" y1="-0.00520833" x2="0.167708" y2="-0.00520833" style="stroke:rgb(246,147,147);stroke-width:0.01" />
<line x1="0.101042" y1="-0.071875" x2="-0.065625" y2="0.0947917" style="stroke:rgb(246,147,147);stroke-width:0.01" />
<line x1="-0.265625" y1="0.028125" x2="0.0677083" y2="0.028125" style="stroke:rgb(246,147,147);stroke-width:0.01" />
<line x1="0.0677083" y1="0.028125" x2="0.034375" y2="0.0614583" style="stroke:rgb(246,147,147);stroke-width:0.01" />
<line x1="-0.232292" y1="0.0614583" x2="0.101042" y2="0.0614583" style="stroke:rgb(246,147,147);stroke-width:0.01" />
<line x1="0.167708" y1="-0.00520833" x2="0.00104167" y2="0.161458" style="stroke:rgb(246,147,147);stroke-width:0.01" />
<line x1="-0.065625" y1="0.0947917" x2="0.0677083" y2="0.0947917" style="stroke:rgb(246,147,147);stroke-width:0.01" />
<line x1="0.034375" y1="0.128125" x2="0.0677083" y2="0.128125" style="stroke:rgb(246,147,147);stroke-width:0.01" />
<line x1="-0.065625" y1="0.161458" x2="0.00104167" y2="0.161458" style="stroke:rgb(246,147,147);stroke-width:0.01" />
</g>
</svg>
