<svg xmlns="http://www.w3.org/2000/svg" viewBox="-1.5 -1.5 3 3">
<g transform="scale(1, -1)">
<path d="M-0.035556 -0.182222 L0.064444 -0.182222 L0.064444 -0.148889 L0.097778 -0.182222 L0.131111 -0.148889 L0.131111 -0.082222 L0.231111 0.017778 L0.131111 0.117778 L0.131111 0.184444 L-0.002222 0.184444 L-0.035556 0.217778 L-0.168889 0.217778 L-0.368889 0.017778 L-0.335556 -0.015556 L-0.035556 -0.015556 z " fill="rgb(245,195,195)" />
<path d="M-0.368889 -0.182222 L0.631111 -0.182222 L0.631111 0.817778 L-0.368889 0.817778  z" fill="none" stroke="rgb(128,128,128)" stroke-width="0.01" />
<line x1="0.0977778" y1="-0.182222" x2="0.131111" y2="-0.148889" style="stroke:rgb(246,147,147);stroke-width:0.01" />
<line x1="0.0311111" y1="-0.182222" x2="0.231111" y2="0.0177778" style="stroke:rgb(246,147,147);stroke-width:0.01" />
<line x1="0.0977778" y1="-0.0488889" x2="0.131111" y2="-0.0155556" style="stroke:rgb(246,147,147);stroke-width:0.01" />
<line x1="0.0977778" y1="-0.0155556" x2="0.131111" y2="0.0177778" style="stroke:rgb(246,147,147);stroke-width:0.01" />
<line x1="0.0644444" y1="-0.0155556" x2="0.131111" y2="0.0511111" style="stroke:rgb(246,147,147);stroke-width:0.01" />
<line x1="-0.0355556" y1="-0.0488889" x2="0.131111" y2="0.117778" style="stroke:rgb(246,147,147);stroke-width:0.01" />
<line x1="-0.0355556" y1="0.0177778" x2="0.0311111" y2="0.0844444" style="stroke:rgb(246,147,147);stroke-width:0.01" />
<line x1="0.0311111" y1="0.117778" x2="0.0644444" y2="0.151111" style="stroke:rgb(246,147,147);stroke-width:0.01" />
<line x1="0.0311111" y1="0.151111" x2="0.0644444" y2="0.184444" style="stroke:rgb(246,147,147);stroke-width:0.01" />
<line x1="-0.0355556" y1="-0.182222" x2="0.0644444" y2="-0.182222" style="stroke:rgb(246,147,147);stroke-width:0.01" />
<line x1="-0.302222" y1="0.0177778" x2="-0.302222" y2="0.0844444" style="stroke:rgb(246,147,147);stroke-width:0.01" />
<line x1="-0.168889" y1="0.0177778" x2="-0.168889" y2="0.217778" style="stroke:rgb(246,147,147);stroke-width:0.01" />
<line x1="-0.0355556" y1="-0.182222" x2="-0.0355556" y2="0.217778" style="stroke:rgb(246,147,147);stroke-width:0.01" />
<line x1="0.0311111" y1="-0.182222" x2="0.0311111" y2="0.184444" style="stroke:rgb(246,147,147);stroke-width:0.01" />
<line x1="0.0644444" y1="-0.182222" x2="0.0644444" y2="0.184444" style="stroke:rgb(246,147,147);stroke-width:0.01" />
<line x1="0.0977778" y1="-0.182222" x2="0.0977778" y2="0.151111" style="stroke:rgb(246,147,147);stroke-width:0.01" />
<line x1="0.131111" y1="-0.148889" x2="0.131111" y2="0.184444" style="stroke:rgb(246,147,147);stroke-width:0.01" />
<line x1="-0.335556" y1="-0.0155556" x2="-0.135556" y2="0.184444" style="stroke:rgb(246,147,147);stroke-width:0.01" />
<line x1="-0.368889" y1="0.0177778" x2="-0.168889" y2="0.217778" style="stroke:rgb(246,147,147);stroke-width:0.01" />
<line x1="-0.335556" y1="-0.0155556" x2="-0.368889" y2="0.0177778" style="stroke:rgb(246,147,147);stroke-width:0.01" />
<line x1="-0.0355556" y1="-0.0488889" x2="0.131111" y2="-0.0488889" style="stroke:rgb(246,147,147);stroke-width:0.01" />
<line x1="-0.335556" y1="-0.0155556" x2="0.131111" y2="-0.0155556" style="stroke:rgb(246,147,147);stroke-width:0.01" />
<line x1="-0.368889" y1="0.0177778" x2="0.131111" y2="0.0177778" style="stroke:rgb(246,147,147);stroke-width:0.01" />
<line x1="0.0311111" y1="-0.182222" x2="-0.0355556" y2="-0.115556" style="stroke:rgb(246,147,147);stroke-width:0.01" />
<line x1="0.0977778" y1="-0.182222" x2="0.0644444" y2="-0.148889" style="stroke:rgb(246,147,147);stroke-width:0.01" />
<line x1="-0.302222" y1="0.0844444" x2="0.0977778" y2="0.0844444" style="stroke:rgb(246,147,147);stroke-width:0.01" />
<line x1="0.131111" y1="-0.148889" x2="-0.0355556" y2="0.0177778" style="stroke:rgb(246,147,147);stroke-width:0.01" />
<line x1="0.0311111" y1="0.117778" x2="0.131111" y2="0.117778" style="stroke:rgb(246,147,147);stroke-width:0.01" />
<line x1="0.131111" y1="-0.0822222" x2="-0.135556" y2="0.184444" style="stroke:rgb(246,147,147);stroke-width:0.01" />
<line x1="0.0977778" y1="-0.0155556" x2="0.0644444" y2="0.0177778" style="stroke:rgb(246,147,147);stroke-width:0.01" />
<line x1="0.0311111" y1="0.151111" x2="0.131111" y2="0.151111" style="stroke:rgb(246,147,147);stroke-width:0.01" />
<line x1="0.164444" y1="-0.0488889" x2="0.0311111" y2="0.0844444" style="stroke:rgb(246,147,147);stroke-width:0.01" />
<line x1="0.131111" y1="0.0177778" x2="0.0311111" y2="0.117778" style="stroke:rgb(246,147,147);stroke-width:0.01" />
<line x1="-0.135556" y1="0.184444" x2="0.131111" y2="0.184444" style="stroke:rgb(246,147,147);stroke-width:0.01" />
<line x1="0.131111" y1="0.0511111" x2="-0.0355556" y2="0.217778" style="stroke:rgb(246,147,147);stroke-width:0.01" />
<line x1="-0.168889" y1="0.217778" x2="-0.0355556" y2="0.217778" style="stroke:rgb(246,147,147);stroke-width:0.01" />
<line x1="0.231111" y1="0.0177778" x2="0.0644444" y2="0.184444" style="stroke:rgb(246,147,147);stroke-width:0.01" />
</g>
</svg>
