<svg xmlns="http://www.w3.org/2000/svg" viewBox="-1.5 -1.5 3 3">
<g transform="scale(1, -1)">
<path d="M-0.030769 -0.184615 L0.169231 -0.184615 L0.169231 -0.084615 L0.202564 -0.051282 L0.202564 0.015385 L0.069231 0.015385 L0.069231 0.148718 L-0.064103 0.148718 L-0.064103 0.115385 L-0.097436 0.148718 L-0.297436 0.148718 L-0.297436 -0.117949 L-0.030769 -0.117949 z " fill="rgb(245,195,195)" />
<path d="M-0.297436 -0.184615 L0.702564 -0.184615 L0.702564 0.815385 L-0.297436 0.815385  z" fill="none" stroke="rgb(128,128,128)" stroke-width="0.01" />
<line x1="0.135897" y1="-0.184615" x2="0.169231" y2="-0.151282" style="stroke:rgb(246,147,147);stroke-width:0.01" />
<line x1="0.119231" y1="-0.134615" x2="0.202564" y2="-0.0512821" style="stroke:rgb(246,147,147);stroke-width:0.01" />
<line x1="0.102564" y1="-0.117949" x2="0.169231" y2="-0.0512821" style="stroke:rgb(246,147,147);stroke-width:0.01" />
<line x1="-0.164103" y1="-0.117949" x2="0.0025641" y2="0.0487179" style="stroke:rgb(246,147,147);stroke-width:0.01" />
<line x1="-0.0307692" y1="0.0487179" x2="0.0692308" y2="0.148718" style="stroke:rgb(246,147,147);stroke-width:0.01" />
<line x1="-0.0307692" y1="-0.184615" x2="0.169231" y2="-0.184615" style="stroke:rgb(246,147,147);stroke-width:0.01" />
<line x1="-0.297436" y1="-0.117949" x2="-0.297436" y2="0.148718" style="stroke:rgb(246,147,147);stroke-width:0.01" />
<line x1="-0.230769" y1="-0.0512821" x2="-0.230769" y2="0.148718" style="stroke:rgb(246,147,147);stroke-width:0.01" />
<line x1="-0.197436" y1="-0.0179487" x2="-0.197436" y2="0.0820513" style="stroke:rgb(246,147,147);stroke-width:0.01" />
<line x1="-0.130769" y1="-0.0179487" x2="-0.130769" y2="0.148718" style="stroke:rgb(246,147,147);stroke-width:0.01" />
<line x1="-0.0974359" y1="0.0487179" x2="-0.0974359" y2="0.148718" style="stroke:rgb(246,147,147);stroke-width:0.01" />
<line x1="-0.0641026" y1="0.0487179" x2="-0.0641026" y2="0.148718" style="stroke:rgb(246,147,147);stroke-width:0.01" />
<line x1="-0.0307692" y1="-0.184615" x2="-0.0307692" y2="0.0820513" style="stroke:rgb(246,147,147);stroke-width:0.01" />
<line x1="0.0025641" y1="-0.184615" x2="0.0025641" y2="0.0487179" style="stroke:rgb(246,147,147);stroke-width:0.01" />
<line x1="0.0358974" y1="-0.0512821" x2="0.0358974" y2="0.0487179" style="stroke:rgb(246,147,147);stroke-width:0.01" />
<line x1="0.0692308" y1="-0.184615" x2="0.0692308" y2="0.148718" style="stroke:rgb(246,147,147);stroke-width:0.01" />
<line x1="0.169231" y1="-0.184615" x2="0.169231" y2="0.0153846" style="stroke:rgb(246,147,147);stroke-width:0.01" />
<line x1="0.202564" y1="-0.0512821" x2="0.202564" y2="0.0153846" style="stroke:rgb(246,147,147);stroke-width:0.01" />
<line x1="-0.130769" y1="0.0153846" x2="-0.0474359" y2="0.0987179" style="stroke:rgb(246,147,147);stroke-width:0.01" />
<line x1="-0.230769" y1="-0.0512821" x2="-0.0974359" y2="0.0820513" style="stroke:rgb(246,147,147);stroke-width:0.01" />
<line x1="-0.197436" y1="0.0153846" x2="-0.130769" y2="0.0820513" style="stroke:rgb(246,147,147);stroke-width:0.01" />
<line x1="-0.297436" y1="-0.117949" x2="0.169231" y2="-0.117949" style="stroke:rgb(246,147,147);stroke-width:0.01" />
<line x1="0.0692308" y1="-0.0846154" x2="0.169231" y2="-0.0846154" style="stroke:rgb(246,147,147);stroke-width:0.01" />
<line x1="-0.164103" y1="-0.117949" x2="-0.230769" y2="-0.0512821" style="stroke:rgb(246,147,147);stroke-width:0.01" />
<line x1="-0.230769" y1="0.115385" x2="-0.197436" y2="0.148718" style="stroke:rgb(246,147,147);stroke-width:0.01" />
<line x1="0.0358974" y1="-0.0512821" x2="0.202564" y2="-0.0512821" style="stroke:rgb(246,147,147);stroke-width:0.01" />
<line x1="-0.297436" y1="-0.0179487" x2="0.0692308" y2="-0.0179487" style="stroke:rgb(246,147,147);stroke-width:0.01" />
<line x1="-0.130769" y1="0.0153846" x2="-0.230769" y2="0.115385" style="stroke:rgb(246,147,147);stroke-width:0.01" />
<line x1="-0.297436" y1="0.0153846" x2="-0.130769" y2="0.0153846" style="stroke:rgb(246,147,147);stroke-width:0.01" />
<line x1="-0.0307692" y1="0.0153846" x2="0.202564" y2="0.0153846" style="stroke:rgb(246,147,147);stroke-width:0.01" />
<line x1="0.135897" y1="-0.184615" x2="-0.0974359" y2="0.0487179" style="stroke:rgb(246,147,147);stroke-width:0.01" />
<line x1="-0.114103" y1="0.0653846" x2="-0.197436" y2="0.148718" style="stroke:rgb(246,147,147);stroke-width:0.01" />
<line x1="-0.130769" y1="0.0487179" x2="0.0358974" y2="0.0487179" style="stroke:rgb(246,147,147);stroke-width:0.01" />
<line x1="0.169231" y1="-0.184615" x2="-0.0974359" y2="0.0820513" style="stroke:rgb(246,147,147);stroke-width:0.01" />
<line x1="0.169231" y1="-0.151282" x2="-0.0641026" y2="0.0820513" style="stroke:rgb(246,147,147);stroke-width:0.01" />
<line x1="-0.297436" y1="0.0820513" x2="-0.0307692" y2="0.0820513" style="stroke:rgb(246,147,147);stroke-width:0.01" />
<line x1="0.169231" y1="-0.117949" x2="-0.0974359" y2="0.148718" style="stroke:rgb(246,147,147);stroke-width:0.01" />
<line x1="0.169231" y1="-0.0846154" x2="0.0358974" y2="0.0487179" style="stroke:rgb(246,147,147);stroke-width:0.01" />
<line x1="-0.297436" y1="0.148718" x2="-0.0974359" y2="0.148718" style="stroke:rgb(246,147,147);stroke-width:0.01" />
<line x1="-0.0641026" y1="0.148718" x2="0.0692308" y2="0.148718" style="stroke:rgb(246,147,147);stroke-width:0.01" />
</g>
</svg>
