<svg xmlns="http://www.w3.org/2000/svg" viewBox="-1.5 -1.5 3 3">
<g transform="scale(1, -1)">
<path d="M-0.196078 -0.233333 L-0.096078 -0.233333 L-0.096078 -0.100000 L0.437255 -0.100000 L0.437255 0.133333 L0.270588 0.133333 L0.237255 0.166667 L0.303922 0.233333 L0.270588 0.266667 L-0.196078 0.266667 L-0.196078 0.033333 L-0.212745 0.016667 L-0.162745 -0.033333 L-0.229412 -0.100000 L-0.229412 -0.133333 L-0.196078 -0.133333 L-0.146078 -0.183333 z " fill="rgb(245,195,195)" />
<path d="M-0.229412 -0.233333 L0.770588 -0.233333 L0.770588 0.766667 L-0.229412 0.766667  z" fill="none" stroke="rgb(128,128,128)" stroke-width="0.01" />
<line x1="0.137255" y1="0.0666667" x2="0.303922" y2="0.233333" style="stroke:rgb(246,147,147);stroke-width:0.01" />
<line x1="-0.196078" y1="-0.233333" x2="-0.0960784" y2="-0.133333" style="stroke:rgb(246,147,147);stroke-width:0.01" />
<line x1="-0.196078" y1="-0.233333" x2="-0.0960784" y2="-0.233333" style="stroke:rgb(246,147,147);stroke-width:0.01" />
<line x1="-0.129412" y1="-0.133333" x2="0.270588" y2="0.266667" style="stroke:rgb(246,147,147);stroke-width:0.01" />
<line x1="-0.229412" y1="-0.133333" x2="-0.229412" y2="-0.1" style="stroke:rgb(246,147,147);stroke-width:0.01" />
<line x1="-0.196078" y1="-0.133333" x2="-0.196078" y2="-0.0666667" style="stroke:rgb(246,147,147);stroke-width:0.01" />
<line x1="-0.196078" y1="0" x2="-0.196078" y2="0.266667" style="stroke:rgb(246,147,147);stroke-width:0.01" />
<line x1="-0.129412" y1="-0.133333" x2="-0.129412" y2="0.266667" style="stroke:rgb(246,147,147);stroke-width:0.01" />
<line x1="-0.0960784" y1="-0.233333" x2="-0.0960784" y2="0.0666667" style="stroke:rgb(246,147,147);stroke-width:0.01" />
<line x1="-0.0960784" y1="0.1" x2="-0.0960784" y2="0.266667" style="stroke:rgb(246,147,147);stroke-width:0.01" />
<line x1="-0.0627451" y1="-0.0666667" x2="-0.0627451" y2="0.0333333" style="stroke:rgb(246,147,147);stroke-width:0.01" />
<line x1="0.00392157" y1="0" x2="0.00392157" y2="0.133333" style="stroke:rgb(246,147,147);stroke-width:0.01" />
<line x1="0.103922" y1="0.1" x2="0.103922" y2="0.233333" style="stroke:rgb(246,147,147);stroke-width:0.01" />
<line x1="0.137255" y1="0.0666667" x2="0.137255" y2="0.266667" style="stroke:rgb(246,147,147);stroke-width:0.01" />
<line x1="0.170588" y1="-0.0333333" x2="0.170588" y2="0.233333" style="stroke:rgb(246,147,147);stroke-width:0.01" />
<line x1="0.237255" y1="-0.0333333" x2="0.237255" y2="0.266667" style="stroke:rgb(246,147,147);stroke-width:0.01" />
<line x1="0.270588" y1="-0.0333333" x2="0.270588" y2="0.133333" style="stroke:rgb(246,147,147);stroke-width:0.01" />
<line x1="0.270588" y1="0.2" x2="0.270588" y2="0.266667" style="stroke:rgb(246,147,147);stroke-width:0.01" />
<line x1="0.437255" y1="-0.1" x2="0.437255" y2="0.133333" style="stroke:rgb(246,147,147);stroke-width:0.01" />
<line x1="-0.162745" y1="-0.133333" x2="0.00392157" y2="0.0333333" style="stroke:rgb(246,147,147);stroke-width:0.01" />
<line x1="-0.212745" y1="-0.116667" x2="-0.162745" y2="-0.0666667" style="stroke:rgb(246,147,147);stroke-width:0.01" />
<line x1="-0.229412" y1="-0.1" x2="0.137255" y2="0.266667" style="stroke:rgb(246,147,147);stroke-width:0.01" />
<line x1="-0.0960784" y1="-0.233333" x2="-0.229412" y2="-0.1" style="stroke:rgb(246,147,147);stroke-width:0.01" />
<line x1="-0.179412" y1="-0.0166667" x2="-0.0960784" y2="0.0666667" style="stroke:rgb(246,147,147);stroke-width:0.01" />
<line x1="-0.162745" y1="-0.133333" x2="-0.212745" y2="-0.0833333" style="stroke:rgb(246,147,147);stroke-width:0.01" />
<line x1="-0.196078" y1="0" x2="-0.0960784" y2="0.1" style="stroke:rgb(246,147,147);stroke-width:0.01" />
<line x1="-0.229412" y1="-0.133333" x2="-0.129412" y2="-0.133333" style="stroke:rgb(246,147,147);stroke-width:0.01" />
<line x1="-0.212745" y1="0.0166667" x2="-0.129412" y2="0.1" style="stroke:rgb(246,147,147);stroke-width:0.01" />
<line x1="-0.0960784" y1="-0.133333" x2="-0.162745" y2="-0.0666667" style="stroke:rgb(246,147,147);stroke-width:0.01" />
<line x1="-0.229412" y1="-0.1" x2="0.437255" y2="-0.1" style="stroke:rgb(246,147,147);stroke-width:0.01" />
<line x1="-0.0960784" y1="-0.1" x2="-0.212745" y2="0.0166667" style="stroke:rgb(246,147,147);stroke-width:0.01" />
<line x1="-0.196078" y1="-0.0666667" x2="-0.0627451" y2="-0.0666667" style="stroke:rgb(246,147,147);stroke-width:0.01" />
<line x1="0.170588" y1="-0.0333333" x2="0.437255" y2="-0.0333333" style="stroke:rgb(246,147,147);stroke-width:0.01" />
<line x1="-0.0627451" y1="0.0333333" x2="-0.129412" y2="0.1" style="stroke:rgb(246,147,147);stroke-width:0.01" />
<line x1="-0.196078" y1="0" x2="0.00392157" y2="0" style="stroke:rgb(246,147,147);stroke-width:0.01" />
<line x1="-0.196078" y1="0.0333333" x2="0.00392157" y2="0.0333333" style="stroke:rgb(246,147,147);stroke-width:0.01" />
<line x1="-0.129412" y1="0.1" x2="0.103922" y2="0.1" style="stroke:rgb(246,147,147);stroke-width:0.01" />
<line x1="0.237255" y1="-0.0333333" x2="0.137255" y2="0.0666667" style="stroke:rgb(246,147,147);stroke-width:0.01" />
<line x1="0.00392157" y1="0.133333" x2="0.437255" y2="0.133333" style="stroke:rgb(246,147,147);stroke-width:0.01" />
<line x1="-0.196078" y1="0.2" x2="0.270588" y2="0.2" style="stroke:rgb(246,147,147);stroke-width:0.01" />
<line x1="0.437255" y1="-0.0333333" x2="0.137255" y2="0.266667" style="stroke:rgb(246,147,147);stroke-width:0.01" />
<line x1="0.103922" y1="0.233333" x2="0.170588" y2="0.233333" style="stroke:rgb(246,147,147);stroke-width:0.01" />
<line x1="-0.196078" y1="0.266667" x2="0.270588" y2="0.266667" style="stroke:rgb(246,147,147);stroke-width:0.01" />
<line x1="0.303922" y1="0.233333" x2="0.270588" y2="0.266667" style="stroke:rgb(246,147,147);stroke-width:0.01" />
</g>
</svg>
