<svg xmlns="http://www.w3.org/2000/svg" viewBox="-1.5 -1.5 3 3">
<g transform="scale(1, -1)">
<path d="M-0.277952 -0.468291 L0.296518 -0.125485 L0.371863 0.112891 L0.337278 0.146412 L0.035507 0.262931 L-0.112040 0.262931 L-0.173300 0.129647 L-0.146949 0.130512 L-0.330924 -0.451547 z " fill="rgb(245,195,195)" />
<path d="M1.333260 -0.737069 L2.333260 -0.737069 L2.333260 0.262931 L1.333260 0.262931  z" fill="none" stroke="rgb(128,128,128)" stroke-width="0.01" />
<line x1="0.0380063" y1="-0.279748" x2="-0.180234" y2="0.0252047" style="stroke:rgb(246,147,147);stroke-width:0.01" />
<line x1="0.0380063" y1="-0.279748" x2="-0.0169122" y2="-0.167458" style="stroke:rgb(246,147,147);stroke-width:0.01" />
<line x1="-0.0898018" y1="0.214547" x2="-0.11204" y2="0.262931" style="stroke:rgb(246,147,147);stroke-width:0.01" />
<line x1="-0.0898018" y1="0.214547" x2="-0.105095" y2="0.262931" style="stroke:rgb(246,147,147);stroke-width:0.01" />
<line x1="0.208887" y1="-0.177778" x2="0.132807" y2="-0.0942334" style="stroke:rgb(246,147,147);stroke-width:0.01" />
<line x1="0.208887" y1="-0.177778" x2="0.0572427" y2="0.254538" style="stroke:rgb(246,147,147);stroke-width:0.01" />
<line x1="-0.277952" y1="-0.468291" x2="-0.330924" y2="-0.451547" style="stroke:rgb(246,147,147);stroke-width:0.01" />
<line x1="0.371863" y1="0.112891" x2="0.337278" y2="0.146412" style="stroke:rgb(246,147,147);stroke-width:0.01" />
<line x1="-0.277952" y1="-0.468291" x2="-0.194614" y2="-0.0317296" style="stroke:rgb(246,147,147);stroke-width:0.01" />
<line x1="0.296518" y1="-0.125485" x2="0.371863" y2="0.112891" style="stroke:rgb(246,147,147);stroke-width:0.01" />
<line x1="0.296518" y1="-0.125485" x2="-0.194614" y2="-0.0317296" style="stroke:rgb(246,147,147);stroke-width:0.01" />
<line x1="0.337278" y1="0.146412" x2="0.0355069" y2="0.262931" style="stroke:rgb(246,147,147);stroke-width:0.01" />
<line x1="-0.330924" y1="-0.451547" x2="-0.105095" y2="0.262931" style="stroke:rgb(246,147,147);stroke-width:0.01" />
<line x1="-0.1733" y1="0.129647" x2="-0.11204" y2="0.262931" style="stroke:rgb(246,147,147);stroke-width:0.01" />
<line x1="-0.277952" y1="-0.468291" x2="0.296518" y2="-0.125485" style="stroke:rgb(246,147,147);stroke-width:0.01" />
<line x1="-0.1733" y1="0.129647" x2="0.337278" y2="0.146412" style="stroke:rgb(246,147,147);stroke-width:0.01" />
<line x1="-0.180234" y1="0.0252047" x2="0.371863" y2="0.112891" style="stroke:rgb(246,147,147);stroke-width:0.01" />
<line x1="-0.0169122" y1="-0.167458" x2="0.132807" y2="-0.0942334" style="stroke:rgb(246,147,147);stroke-width:0.01" />
<line x1="-0.11204" y1="0.262931" x2="0.0355069" y2="0.262931" style="stroke:rgb(246,147,147);stroke-width:0.01" />
<line x1="-0.1733" y1="0.129647" x2="0.0572427" y2="0.254538" style="stroke:rgb(246,147,147);stroke-width:0.01" />
<line x1="-0.0898018" y1="0.214547" x2="0.0355069" y2="0.262931" style="stroke:rgb(246,147,147);stroke-width:0.01" />
</g>
</svg>
