<svg xmlns="http://www.w3.org/2000/svg" viewBox="-1.5 -1.5 3 3">
<g transform="scale(1, -1)">
<path d="M-1.611212 0.268778 L-1.036742 0.611584 L-0.961397 0.849960 L-0.995982 0.883481 L-1.297753 1.000000 L-1.445300 1.000000 L-1.506560 0.866716 L-1.480209 0.867581 L-1.664184 0.285522 z " fill="rgb(245,195,195)" />
<path d="M0.000000 0.000000 L1.000000 0.000000 L1.000000 1.000000 L0.000000 1.000000  z" fill="none" stroke="rgb(128,128,128)" stroke-width="0.01" />
<line x1="-1.29525" y1="0.457321" x2="-1.51349" y2="0.762274" style="stroke:rgb(246,147,147);stroke-width:0.01" />
<line x1="-1.29525" y1="0.457321" x2="-1.35017" y2="0.569611" style="stroke:rgb(246,147,147);stroke-width:0.01" />
<line x1="-1.42306" y1="0.951616" x2="-1.4453" y2="1" style="stroke:rgb(246,147,147);stroke-width:0.01" />
<line x1="-1.42306" y1="0.951616" x2="-1.43835" y2="1" style="stroke:rgb(246,147,147);stroke-width:0.01" />
<line x1="-1.12437" y1="0.559291" x2="-1.20045" y2="0.642836" style="stroke:rgb(246,147,147);stroke-width:0.01" />
<line x1="-1.12437" y1="0.559291" x2="-1.27602" y2="0.991607" style="stroke:rgb(246,147,147);stroke-width:0.01" />
<line x1="-1.61121" y1="0.268778" x2="-1.66418" y2="0.285522" style="stroke:rgb(246,147,147);stroke-width:0.01" />
<line x1="-0.961397" y1="0.84996" x2="-0.995982" y2="0.883481" style="stroke:rgb(246,147,147);stroke-width:0.01" />
<line x1="-1.61121" y1="0.268778" x2="-1.52787" y2="0.705339" style="stroke:rgb(246,147,147);stroke-width:0.01" />
<line x1="-1.03674" y1="0.611584" x2="-0.961397" y2="0.84996" style="stroke:rgb(246,147,147);stroke-width:0.01" />
<line x1="-1.03674" y1="0.611584" x2="-1.52787" y2="0.705339" style="stroke:rgb(246,147,147);stroke-width:0.01" />
<line x1="-0.995982" y1="0.883481" x2="-1.29775" y2="1" style="stroke:rgb(246,147,147);stroke-width:0.01" />
<line x1="-1.66418" y1="0.285522" x2="-1.43835" y2="1" style="stroke:rgb(246,147,147);stroke-width:0.01" />
<line x1="-1.50656" y1="0.866716" x2="-1.4453" y2="1" style="stroke:rgb(246,147,147);stroke-width:0.01" />
<line x1="-1.61121" y1="0.268778" x2="-1.03674" y2="0.611584" style="stroke:rgb(246,147,147);stroke-width:0.01" />
<line x1="-1.50656" y1="0.866716" x2="-0.995982" y2="0.883481" style="stroke:rgb(246,147,147);stroke-width:0.01" />
<line x1="-1.51349" y1="0.762274" x2="-0.961397" y2="0.84996" style="stroke:rgb(246,147,147);stroke-width:0.01" />
<line x1="-1.35017" y1="0.569611" x2="-1.20045" y2="0.642836" style="stroke:rgb(246,147,147);stroke-width:0.01" />
<line x1="-1.4453" y1="1" x2="-1.29775" y2="1" style="stroke:rgb(246,147,147);stroke-width:0.01" />
<line x1="-1.50656" y1="0.866716" x2="-1.27602" y2="0.991607" style="stroke:rgb(246,147,147);stroke-width:0.01" />
<line x1="-1.42306" y1="0.951616" x2="-1.29775" y2="1" style="stroke:rgb(246,147,147);stroke-width:0.01" />
</g>
</svg>
