<svg xmlns="http://www.w3.org/2000/svg" viewBox="-1.5 -1.5 3 3">
<g transform="scale(1, -1)">
<path d="M-0.094444 -0.283333 L-0.061111 -0.283333 L0.072222 -0.150000 L0.072222 -0.116667 L0.105556 -0.116667 L0.138889 -0.150000 L0.172222 -0.150000 L0.172222 -0.116667 L0.138889 -0.083333 L0.138889 0.183333 L0.072222 0.183333 L0.072222 0.350000 L-0.127778 0.350000 L-0.127778 0.316667 L-0.261111 0.183333 L-0.194444 0.116667 L-0.194444 -0.116667 L-0.094444 -0.116667 z " fill="rgb(245,195,195)" />
<path d="M-0.261111 -0.283333 L0.738889 -0.283333 L0.738889 0.716667 L-0.261111 0.716667  z" fill="none" stroke="rgb(128,128,128)" stroke-width="0.01" />
<line x1="-0.0611111" y1="-0.283333" x2="0.0722222" y2="-0.15" style="stroke:rgb(246,147,147);stroke-width:0.01" />
<line x1="-0.0611111" y1="-0.25" x2="0.0722222" y2="-0.116667" style="stroke:rgb(246,147,147);stroke-width:0.01" />
<line x1="0.00555556" y1="-0.116667" x2="0.0722222" y2="-0.05" style="stroke:rgb(246,147,147);stroke-width:0.01" />
<line x1="-0.0277778" y1="-0.116667" x2="0.138889" y2="0.05" style="stroke:rgb(246,147,147);stroke-width:0.01" />
<line x1="-0.0111111" y1="-0.0666667" x2="0.138889" y2="0.0833333" style="stroke:rgb(246,147,147);stroke-width:0.01" />
<line x1="-0.0944444" y1="-0.283333" x2="-0.0611111" y2="-0.283333" style="stroke:rgb(246,147,147);stroke-width:0.01" />
<line x1="-0.194444" y1="-0.116667" x2="-0.194444" y2="0.25" style="stroke:rgb(246,147,147);stroke-width:0.01" />
<line x1="-0.127778" y1="-0.0166667" x2="-0.127778" y2="0.35" style="stroke:rgb(246,147,147);stroke-width:0.01" />
<line x1="-0.0944444" y1="-0.283333" x2="-0.0944444" y2="0.35" style="stroke:rgb(246,147,147);stroke-width:0.01" />
<line x1="-0.0611111" y1="-0.283333" x2="-0.0611111" y2="-0.25" style="stroke:rgb(246,147,147);stroke-width:0.01" />
<line x1="-0.0277778" y1="-0.25" x2="-0.0277778" y2="-0.116667" style="stroke:rgb(246,147,147);stroke-width:0.01" />
<line x1="0.00555556" y1="-0.116667" x2="0.00555556" y2="0.05" style="stroke:rgb(246,147,147);stroke-width:0.01" />
<line x1="0.0722222" y1="-0.15" x2="0.0722222" y2="0.35" style="stroke:rgb(246,147,147);stroke-width:0.01" />
<line x1="0.138889" y1="-0.15" x2="0.138889" y2="0.183333" style="stroke:rgb(246,147,147);stroke-width:0.01" />
<line x1="0.172222" y1="-0.15" x2="0.172222" y2="-0.116667" style="stroke:rgb(246,147,147);stroke-width:0.01" />
<line x1="-0.0611111" y1="-0.25" x2="-0.0277778" y2="-0.25" style="stroke:rgb(246,147,147);stroke-width:0.01" />
<line x1="-0.127778" y1="-0.0166667" x2="0.0722222" y2="0.183333" style="stroke:rgb(246,147,147);stroke-width:0.01" />
<line x1="0.138889" y1="-0.15" x2="0.172222" y2="-0.15" style="stroke:rgb(246,147,147);stroke-width:0.01" />
<line x1="-0.194444" y1="-0.116667" x2="0.172222" y2="-0.116667" style="stroke:rgb(246,147,147);stroke-width:0.01" />
<line x1="0.00555556" y1="-0.0833333" x2="0.138889" y2="-0.0833333" style="stroke:rgb(246,147,147);stroke-width:0.01" />
<line x1="-0.261111" y1="0.183333" x2="-0.0944444" y2="0.35" style="stroke:rgb(246,147,147);stroke-width:0.01" />
<line x1="0.00555556" y1="-0.05" x2="0.0722222" y2="-0.05" style="stroke:rgb(246,147,147);stroke-width:0.01" />
<line x1="0.0722222" y1="-0.15" x2="-0.261111" y2="0.183333" style="stroke:rgb(246,147,147);stroke-width:0.01" />
<line x1="0.0722222" y1="-0.116667" x2="-0.244444" y2="0.2" style="stroke:rgb(246,147,147);stroke-width:0.01" />
<line x1="-0.127778" y1="-0.0166667" x2="0.0722222" y2="-0.0166667" style="stroke:rgb(246,147,147);stroke-width:0.01" />
<line x1="0.138889" y1="-0.15" x2="-0.194444" y2="0.183333" style="stroke:rgb(246,147,147);stroke-width:0.01" />
<line x1="-0.127778" y1="0.0166667" x2="-0.0944444" y2="0.0166667" style="stroke:rgb(246,147,147);stroke-width:0.01" />
<line x1="0.172222" y1="-0.116667" x2="-0.194444" y2="0.25" style="stroke:rgb(246,147,147);stroke-width:0.01" />
<line x1="-0.0611111" y1="0.05" x2="0.138889" y2="0.05" style="stroke:rgb(246,147,147);stroke-width:0.01" />
<line x1="0.0722222" y1="0.0833333" x2="0.138889" y2="0.0833333" style="stroke:rgb(246,147,147);stroke-width:0.01" />
<line x1="0.0722222" y1="0.183333" x2="-0.0944444" y2="0.35" style="stroke:rgb(246,147,147);stroke-width:0.01" />
<line x1="-0.194444" y1="0.183333" x2="0.138889" y2="0.183333" style="stroke:rgb(246,147,147);stroke-width:0.01" />
<line x1="-0.127778" y1="0.35" x2="0.0722222" y2="0.35" style="stroke:rgb(246,147,147);stroke-width:0.01" />
</g>
</svg>
