<svg xmlns="http://www.w3.org/2000/svg" viewBox="-1.5 -1.5 3 3">
<g transform="scale(1, -1)">
<path d="M-0.156250 -0.343750 L0.343750 -0.343750 L0.343750 0.156250 L0.093750 0.406250 L0.093750 0.156250 L-0.156250 0.156250 L-0.156250 -0.093750 L-0.406250 -0.093750 z " fill="rgb(245,195,195)" />
<path d="M-0.406250 -0.343750 L0.593750 -0.343750 L0.593750 0.656250 L-0.406250 0.656250  z" fill="none" stroke="rgb(128,128,128)" stroke-width="0.01" />
<line x1="-0.15625" y1="-0.34375" x2="0.34375" y2="0.15625" style="stroke:rgb(246,147,147);stroke-width:0.01" />
<line x1="-0.15625" y1="-0.34375" x2="0.34375" y2="-0.34375" style="stroke:rgb(246,147,147);stroke-width:0.01" />
<line x1="-0.15625" y1="-0.34375" x2="-0.15625" y2="0.15625" style="stroke:rgb(246,147,147);stroke-width:0.01" />
<line x1="0.09375" y1="-0.34375" x2="0.09375" y2="0.40625" style="stroke:rgb(246,147,147);stroke-width:0.01" />
<line x1="0.34375" y1="-0.34375" x2="0.34375" y2="0.15625" style="stroke:rgb(246,147,147);stroke-width:0.01" />
<line x1="-0.15625" y1="-0.34375" x2="-0.40625" y2="-0.09375" style="stroke:rgb(246,147,147);stroke-width:0.01" />
<line x1="-0.40625" y1="-0.09375" x2="0.34375" y2="-0.09375" style="stroke:rgb(246,147,147);stroke-width:0.01" />
<line x1="-0.15625" y1="0.15625" x2="0.34375" y2="0.15625" style="stroke:rgb(246,147,147);stroke-width:0.01" />
<line x1="0.34375" y1="0.15625" x2="0.09375" y2="0.40625" style="stroke:rgb(246,147,147);stroke-width:0.01" />
</g>
</svg>
