<svg xmlns="http://www.w3.org/2000/svg" viewBox="-1.5 -1.5 3 3">
<g transform="scale(1, -1)">
<path d="M-0.235185 -0.290741 L0.331481 -0.290741 L0.331481 -0.224074 L0.131481 -0.024074 L0.131481 0.009259 L0.164815 0.009259 L0.164815 0.109259 L0.098148 0.175926 L0.098148 0.209259 L0.031481 0.275926 L-0.001852 0.275926 L-0.168519 0.109259 L-0.168519 0.042593 L-0.068519 0.042593 L-0.135185 -0.024074 L-0.168519 -0.024074 L-0.268519 -0.124074 L-0.268519 -0.257407 z " fill="rgb(245,195,195)" />
<path d="M-0.268519 -0.290741 L0.731481 -0.290741 L0.731481 0.709259 L-0.268519 0.709259  z" fill="none" stroke="rgb(128,128,128)" stroke-width="0.01" />
<line x1="-0.101852" y1="-0.290741" x2="0.0981481" y2="-0.0907407" style="stroke:rgb(246,147,147);stroke-width:0.01" />
<line x1="0.0314815" y1="-0.0574074" x2="0.164815" y2="0.0759259" style="stroke:rgb(246,147,147);stroke-width:0.01" />
<line x1="-0.235185" y1="-0.290741" x2="-0.168519" y2="-0.224074" style="stroke:rgb(246,147,147);stroke-width:0.01" />
<line x1="0.0981481" y1="0.0425926" x2="0.164815" y2="0.109259" style="stroke:rgb(246,147,147);stroke-width:0.01" />
<line x1="-0.235185" y1="-0.290741" x2="0.331481" y2="-0.290741" style="stroke:rgb(246,147,147);stroke-width:0.01" />
<line x1="-0.268519" y1="-0.257407" x2="-0.268519" y2="-0.124074" style="stroke:rgb(246,147,147);stroke-width:0.01" />
<line x1="-0.201852" y1="-0.124074" x2="-0.201852" y2="-0.0574074" style="stroke:rgb(246,147,147);stroke-width:0.01" />
<line x1="-0.168519" y1="-0.290741" x2="-0.168519" y2="-0.0240741" style="stroke:rgb(246,147,147);stroke-width:0.01" />
<line x1="-0.168519" y1="0.0425926" x2="-0.168519" y2="0.109259" style="stroke:rgb(246,147,147);stroke-width:0.01" />
<line x1="-0.135185" y1="-0.190741" x2="-0.135185" y2="-0.0574074" style="stroke:rgb(246,147,147);stroke-width:0.01" />
<line x1="-0.101852" y1="-0.224074" x2="-0.101852" y2="0.00925926" style="stroke:rgb(246,147,147);stroke-width:0.01" />
<line x1="-0.00185185" y1="-0.224074" x2="-0.00185185" y2="0.275926" style="stroke:rgb(246,147,147);stroke-width:0.01" />
<line x1="0.0314815" y1="-0.224074" x2="0.0314815" y2="0.275926" style="stroke:rgb(246,147,147);stroke-width:0.01" />
<line x1="0.0981481" y1="-0.0907407" x2="0.0981481" y2="0.209259" style="stroke:rgb(246,147,147);stroke-width:0.01" />
<line x1="0.131481" y1="-0.224074" x2="0.131481" y2="0.0759259" style="stroke:rgb(246,147,147);stroke-width:0.01" />
<line x1="0.164815" y1="0.00925926" x2="0.164815" y2="0.109259" style="stroke:rgb(246,147,147);stroke-width:0.01" />
<line x1="0.264815" y1="-0.290741" x2="0.264815" y2="-0.224074" style="stroke:rgb(246,147,147);stroke-width:0.01" />
<line x1="0.331481" y1="-0.290741" x2="0.331481" y2="-0.224074" style="stroke:rgb(246,147,147);stroke-width:0.01" />
<line x1="-0.235185" y1="-0.290741" x2="-0.268519" y2="-0.257407" style="stroke:rgb(246,147,147);stroke-width:0.01" />
<line x1="-0.00185185" y1="0.0425926" x2="0.0314815" y2="0.0759259" style="stroke:rgb(246,147,147);stroke-width:0.01" />
<line x1="-0.268519" y1="-0.257407" x2="0.331481" y2="-0.257407" style="stroke:rgb(246,147,147);stroke-width:0.01" />
<line x1="-0.168519" y1="-0.0574074" x2="0.0981481" y2="0.209259" style="stroke:rgb(246,147,147);stroke-width:0.01" />
<line x1="-0.168519" y1="-0.224074" x2="0.331481" y2="-0.224074" style="stroke:rgb(246,147,147);stroke-width:0.01" />
<line x1="-0.268519" y1="-0.124074" x2="-0.168519" y2="-0.0240741" style="stroke:rgb(246,147,147);stroke-width:0.01" />
<line x1="-0.101852" y1="-0.290741" x2="-0.168519" y2="-0.224074" style="stroke:rgb(246,147,147);stroke-width:0.01" />
<line x1="-0.135185" y1="-0.190741" x2="-0.00185185" y2="-0.190741" style="stroke:rgb(246,147,147);stroke-width:0.01" />
<line x1="-0.135185" y1="-0.190741" x2="-0.235185" y2="-0.0907407" style="stroke:rgb(246,147,147);stroke-width:0.01" />
<line x1="-0.168519" y1="0.109259" x2="-0.00185185" y2="0.275926" style="stroke:rgb(246,147,147);stroke-width:0.01" />
<line x1="-0.268519" y1="-0.124074" x2="-0.168519" y2="-0.124074" style="stroke:rgb(246,147,147);stroke-width:0.01" />
<line x1="-0.201852" y1="-0.0574074" x2="0.0314815" y2="-0.0574074" style="stroke:rgb(246,147,147);stroke-width:0.01" />
<line x1="-0.168519" y1="-0.0240741" x2="0.0981481" y2="-0.0240741" style="stroke:rgb(246,147,147);stroke-width:0.01" />
<line x1="0.0981481" y1="-0.0907407" x2="0.0314815" y2="-0.0240741" style="stroke:rgb(246,147,147);stroke-width:0.01" />
<line x1="-0.101852" y1="0.00925926" x2="0.164815" y2="0.00925926" style="stroke:rgb(246,147,147);stroke-width:0.01" />
<line x1="0.331481" y1="-0.290741" x2="0.264815" y2="-0.224074" style="stroke:rgb(246,147,147);stroke-width:0.01" />
<line x1="0.0648148" y1="-0.0240741" x2="-0.0351852" y2="0.0759259" style="stroke:rgb(246,147,147);stroke-width:0.01" />
<line x1="-0.168519" y1="0.0425926" x2="0.164815" y2="0.0425926" style="stroke:rgb(246,147,147);stroke-width:0.01" />
<line x1="0.331481" y1="-0.224074" x2="-0.00185185" y2="0.109259" style="stroke:rgb(246,147,147);stroke-width:0.01" />
<line x1="-0.0351852" y1="0.0759259" x2="0.164815" y2="0.0759259" style="stroke:rgb(246,147,147);stroke-width:0.01" />
<line x1="-0.168519" y1="0.109259" x2="0.0981481" y2="0.109259" style="stroke:rgb(246,147,147);stroke-width:0.01" />
<line x1="0.164815" y1="0.109259" x2="-0.00185185" y2="0.275926" style="stroke:rgb(246,147,147);stroke-width:0.01" />
<line x1="0.0981481" y1="0.209259" x2="0.0314815" y2="0.275926" style="stroke:rgb(246,147,147);stroke-width:0.01" />
<line x1="-0.00185185" y1="0.275926" x2="0.0314815" y2="0.275926" style="stroke:rgb(246,147,147);stroke-width:0.01" />
</g>
</svg>
