<svg xmlns="http://www.w3.org/2000/svg" viewBox="-1.5 -1.5 3 3">
<g transform="scale(1, -1)">
<path d="M0.500000 0.000000 L0.642857 0.142857 L0.857143 0.142857 L0.857143 0.357143 L1.000000 0.500000 L0.857143 0.642857 L0.857143 0.857143 L0.642857 0.857143 L0.500000 1.000000 L0.357143 0.857143 L0.142857 0.857143 L0.142857 0.642857 L0.000000 0.500000 L0.142857 0.357143 L0.142857 0.142857 L0.357143 0.142857 z " fill="rgb(245,195,195)" />
<path d="M0.000000 0.000000 L1.000000 0.000000 L1.000000 1.000000 L0.000000 1.000000  z" fill="none" stroke="rgb(128,128,128)" stroke-width="0.01" />
<line x1="0.5" y1="0" x2="1" y2="0.5" style="stroke:rgb(246,147,147);stroke-width:0.01" />
<line x1="0.5" y1="0.142857" x2="0.857143" y2="0.5" style="stroke:rgb(246,147,147);stroke-width:0.01" />
<line x1="0.142857" y1="0.142857" x2="0.142857" y2="0.857143" style="stroke:rgb(246,147,147);stroke-width:0.01" />
<line x1="0.5" y1="0" x2="0.5" y2="0.142857" style="stroke:rgb(246,147,147);stroke-width:0.01" />
<line x1="0.5" y1="0.857143" x2="0.5" y2="1" style="stroke:rgb(246,147,147);stroke-width:0.01" />
<line x1="0.857143" y1="0.142857" x2="0.857143" y2="0.857143" style="stroke:rgb(246,147,147);stroke-width:0.01" />
<line x1="0.142857" y1="0.142857" x2="0.857143" y2="0.142857" style="stroke:rgb(246,147,147);stroke-width:0.01" />
<line x1="0.142857" y1="0.5" x2="0.5" y2="0.857143" style="stroke:rgb(246,147,147);stroke-width:0.01" />
<line x1="0" y1="0.5" x2="0.5" y2="1" style="stroke:rgb(246,147,147);stroke-width:0.01" />
<line x1="0.5" y1="0" x2="0" y2="0.5" style="stroke:rgb(246,147,147);stroke-width:0.01" />
<line x1="0.5" y1="0.142857" x2="0.142857" y2="0.5" style="stroke:rgb(246,147,147);stroke-width:0.01" />
<line x1="0" y1="0.5" x2="0.142857" y2="0.5" style="stroke:rgb(246,147,147);stroke-width:0.01" />
<line x1="0.857143" y1="0.5" x2="1" y2="0.5" style="stroke:rgb(246,147,147);stroke-width:0.01" />
<line x1="0.857143" y1="0.5" x2="0.5" y2="0.857143" style="stroke:rgb(246,147,147);stroke-width:0.01" />
<line x1="1" y1="0.5" x2="0.5" y2="1" style="stroke:rgb(246,147,147);stroke-width:0.01" />
<line x1="0.142857" y1="0.857143" x2="0.857143" y2="0.857143" style="stroke:rgb(246,147,147);stroke-width:0.01" />
</g>
</svg>
