<svg xmlns="http://www.w3.org/2000/svg" viewBox="-1.5 -1.5 3 3">
<g transform="scale(1, -1)">
<path d="M0.000000 0.174326 L0.790015 0.537193 L0.751662 1.000000 L0.000000 1.000000 L0.000000 0.441875 L-0.132242 0.287910 z " fill="rgb(245,195,195)" />
<path d="M0.000000 0.000000 L1.000000 0.000000 L1.000000 1.000000 L0.000000 1.000000  z" fill="none" stroke="rgb(128,128,128)" stroke-width="0.01" />
<line x1="0" y1="0.174326" x2="0" y2="1" style="stroke:rgb(246,147,147);stroke-width:0.01" />
<line x1="0.790015" y1="0.537193" x2="0.751662" y2="1" style="stroke:rgb(246,147,147);stroke-width:0.01" />
<line x1="0" y1="0.174326" x2="-0.132242" y2="0.28791" style="stroke:rgb(246,147,147);stroke-width:0.01" />
<line x1="0.592283" y1="0.446372" x2="0.506712" y2="0.959121" style="stroke:rgb(246,147,147);stroke-width:0.01" />
<line x1="0" y1="0.174326" x2="0.790015" y2="0.537193" style="stroke:rgb(246,147,147);stroke-width:0.01" />
<line x1="-0.132242" y1="0.28791" x2="0.411511" y2="0.92098" style="stroke:rgb(246,147,147);stroke-width:0.01" />
<line x1="0.284506" y1="0.814917" x2="0.411511" y2="0.92098" style="stroke:rgb(246,147,147);stroke-width:0.01" />
<line x1="0.592283" y1="0.446372" x2="0.284506" y2="0.814917" style="stroke:rgb(246,147,147);stroke-width:0.01" />
<line x1="0.790015" y1="0.537193" x2="0.411511" y2="0.92098" style="stroke:rgb(246,147,147);stroke-width:0.01" />
<line x1="0.506712" y1="0.959121" x2="0.751662" y2="1" style="stroke:rgb(246,147,147);stroke-width:0.01" />
<line x1="0" y1="1" x2="0.751662" y2="1" style="stroke:rgb(246,147,147);stroke-width:0.01" />
</g>
</svg>
