<svg xmlns="http://www.w3.org/2000/svg" viewBox="-1.5 -1.5 3 3">
<g transform="scale(1, -1)">
<path d="M-0.087500 -0.187500 L0.100000 -0.187500 L0.225000 -0.062500 L0.225000 0.062500 L0.100000 0.187500 L-0.337500 0.187500 L-0.337500 0.062500 L0.100000 0.062500 L0.100000 -0.062500 L-0.087500 -0.062500 z " fill="rgb(245,195,195)" />
<path d="M-0.337500 -0.187500 L0.662500 -0.187500 L0.662500 0.812500 L-0.337500 0.812500  z" fill="none" stroke="rgb(128,128,128)" stroke-width="0.01" />
<line x1="0.1" y1="-0.1875" x2="0.225" y2="-0.0625" style="stroke:rgb(246,147,147);stroke-width:0.01" />
<line x1="-0.0875" y1="-0.1875" x2="0.1" y2="-0.1875" style="stroke:rgb(246,147,147);stroke-width:0.01" />
<line x1="-0.3375" y1="0.0625" x2="-0.3375" y2="0.1875" style="stroke:rgb(246,147,147);stroke-width:0.01" />
<line x1="-0.0875" y1="-0.1875" x2="-0.0875" y2="-0.0625" style="stroke:rgb(246,147,147);stroke-width:0.01" />
<line x1="0.1" y1="-0.1875" x2="0.1" y2="0.1875" style="stroke:rgb(246,147,147);stroke-width:0.01" />
<line x1="0.225" y1="-0.0625" x2="0.225" y2="0.0625" style="stroke:rgb(246,147,147);stroke-width:0.01" />
<line x1="-0.0875" y1="-0.0625" x2="0.225" y2="-0.0625" style="stroke:rgb(246,147,147);stroke-width:0.01" />
<line x1="-0.3375" y1="0.0625" x2="0.225" y2="0.0625" style="stroke:rgb(246,147,147);stroke-width:0.01" />
<line x1="-0.3375" y1="0.1875" x2="0.1" y2="0.1875" style="stroke:rgb(246,147,147);stroke-width:0.01" />
<line x1="0.225" y1="0.0625" x2="0.1" y2="0.1875" style="stroke:rgb(246,147,147);stroke-width:0.01" />
</g>
</svg>
