<svg xmlns="http://www.w3.org/2000/svg" viewBox="-1.5 -1.5 3 3">
<g transform="scale(1, -1)">
<path d="M0.216844 0.849713 L1.031805 1.096239 L1.457150 1.372881 L1.456730 1.456185 L1.273916 1.455264 L0.621073 1.748787 L0.253073 0.930292 L0.249607 0.928646 L0.204790 0.857283 z " fill="rgb(245,195,195)" />
<path d="M0.000000 0.000000 L1.000000 0.000000 L1.000000 1.000000 L0.000000 1.000000  z" fill="none" stroke="rgb(128,128,128)" stroke-width="0.01" />
<line x1="1.01018" y1="1.0897" x2="1.12974" y2="1.26307" style="stroke:rgb(246,147,147);stroke-width:0.01" />
<line x1="0.762918" y1="1.0149" x2="1.03914" y2="1.45408" style="stroke:rgb(246,147,147);stroke-width:0.01" />
<line x1="1.45715" y1="1.37288" x2="1.45673" y2="1.45619" style="stroke:rgb(246,147,147);stroke-width:0.01" />
<line x1="0.216844" y1="0.849713" x2="0.621073" y2="1.74879" style="stroke:rgb(246,147,147);stroke-width:0.01" />
<line x1="0.56721" y1="0.955699" x2="0.670069" y2="1.09232" style="stroke:rgb(246,147,147);stroke-width:0.01" />
<line x1="0.20479" y1="0.857283" x2="0.249607" y2="0.928646" style="stroke:rgb(246,147,147);stroke-width:0.01" />
<line x1="1.03181" y1="1.09624" x2="1.45715" y2="1.37288" style="stroke:rgb(246,147,147);stroke-width:0.01" />
<line x1="0.411616" y1="0.908631" x2="0.495588" y2="0.980869" style="stroke:rgb(246,147,147);stroke-width:0.01" />
<line x1="0.866458" y1="1.04622" x2="1.01448" y2="1.13245" style="stroke:rgb(246,147,147);stroke-width:0.01" />
<line x1="0.906132" y1="1.05822" x2="0.994787" y2="1.09584" style="stroke:rgb(246,147,147);stroke-width:0.01" />
<line x1="0.249607" y1="0.928646" x2="0.592307" y2="1.09147" style="stroke:rgb(246,147,147);stroke-width:0.01" />
<line x1="1.12974" y1="1.26307" x2="1.03914" y2="1.45408" style="stroke:rgb(246,147,147);stroke-width:0.01" />
<line x1="0.216844" y1="0.849713" x2="0.20479" y2="0.857283" style="stroke:rgb(246,147,147);stroke-width:0.01" />
<line x1="0.216844" y1="0.849713" x2="1.03181" y2="1.09624" style="stroke:rgb(246,147,147);stroke-width:0.01" />
<line x1="1.01448" y1="1.13245" x2="0.929065" y2="1.27907" style="stroke:rgb(246,147,147);stroke-width:0.01" />
<line x1="0.7136" y1="1.03704" x2="0.670069" y2="1.09232" style="stroke:rgb(246,147,147);stroke-width:0.01" />
<line x1="0.495588" y1="0.980869" x2="0.906132" y2="1.05822" style="stroke:rgb(246,147,147);stroke-width:0.01" />
<line x1="0.411616" y1="0.908631" x2="0.249607" y2="0.928646" style="stroke:rgb(246,147,147);stroke-width:0.01" />
<line x1="0.7136" y1="1.03704" x2="0.866458" y2="1.04622" style="stroke:rgb(246,147,147);stroke-width:0.01" />
<line x1="0.56721" y1="0.955699" x2="0.495588" y2="0.980869" style="stroke:rgb(246,147,147);stroke-width:0.01" />
<line x1="0.592307" y1="1.09147" x2="1.03181" y2="1.09624" style="stroke:rgb(246,147,147);stroke-width:0.01" />
<line x1="0.762918" y1="1.0149" x2="0.592307" y2="1.09147" style="stroke:rgb(246,147,147);stroke-width:0.01" />
<line x1="1.01018" y1="1.0897" x2="0.994787" y2="1.09584" style="stroke:rgb(246,147,147);stroke-width:0.01" />
<line x1="1.12974" y1="1.26307" x2="0.929065" y2="1.27907" style="stroke:rgb(246,147,147);stroke-width:0.01" />
<line x1="1.03914" y1="1.45408" x2="1.45673" y2="1.45619" style="stroke:rgb(246,147,147);stroke-width:0.01" />
<line x1="1.45715" y1="1.37288" x2="0.621073" y2="1.74879" style="stroke:rgb(246,147,147);stroke-width:0.01" />
</g>
</svg>
