<svg xmlns="http://www.w3.org/2000/svg" viewBox="-1.5 -1.5 3 3">
<g transform="scale(1, -1)">
<path d="M-0.534822 -0.338653 L0.280140 -0.092127 L0.705485 0.184516 L0.705065 0.267820 L0.522251 0.266899 L-0.130593 0.560421 L-0.498593 -0.258073 L-0.502058 -0.259720 L-0.546876 -0.331082 z " fill="rgb(245,195,195)" />
<path d="M-0.751665 -1.188366 L0.248335 -1.188366 L0.248335 -0.188366 L-0.751665 -0.188366  z" fill="none" stroke="rgb(128,128,128)" stroke-width="0.01" />
<line x1="0.258514" y1="-0.0986685" x2="0.378076" y2="0.0747049" style="stroke:rgb(246,147,147);stroke-width:0.01" />
<line x1="0.0112529" y1="-0.173465" x2="0.287475" y2="0.265716" style="stroke:rgb(246,147,147);stroke-width:0.01" />
<line x1="0.705485" y1="0.184516" x2="0.705065" y2="0.26782" style="stroke:rgb(246,147,147);stroke-width:0.01" />
<line x1="-0.534822" y1="-0.338653" x2="-0.130593" y2="0.560421" style="stroke:rgb(246,147,147);stroke-width:0.01" />
<line x1="-0.184455" y1="-0.232667" x2="-0.0815962" y2="-0.0960497" style="stroke:rgb(246,147,147);stroke-width:0.01" />
<line x1="-0.546876" y1="-0.331082" x2="-0.502058" y2="-0.25972" style="stroke:rgb(246,147,147);stroke-width:0.01" />
<line x1="0.28014" y1="-0.0921267" x2="0.705485" y2="0.184516" style="stroke:rgb(246,147,147);stroke-width:0.01" />
<line x1="-0.34005" y1="-0.279734" x2="-0.256077" y2="-0.207497" style="stroke:rgb(246,147,147);stroke-width:0.01" />
<line x1="0.114792" y1="-0.142144" x2="0.262811" y2="-0.0559194" style="stroke:rgb(246,147,147);stroke-width:0.01" />
<line x1="0.154467" y1="-0.130143" x2="0.243122" y2="-0.0925281" style="stroke:rgb(246,147,147);stroke-width:0.01" />
<line x1="-0.502058" y1="-0.25972" x2="-0.159358" y2="-0.096893" style="stroke:rgb(246,147,147);stroke-width:0.01" />
<line x1="0.378076" y1="0.0747049" x2="0.287475" y2="0.265716" style="stroke:rgb(246,147,147);stroke-width:0.01" />
<line x1="-0.534822" y1="-0.338653" x2="-0.546876" y2="-0.331082" style="stroke:rgb(246,147,147);stroke-width:0.01" />
<line x1="-0.534822" y1="-0.338653" x2="0.28014" y2="-0.0921267" style="stroke:rgb(246,147,147);stroke-width:0.01" />
<line x1="0.262811" y1="-0.0559194" x2="0.1774" y2="0.0907013" style="stroke:rgb(246,147,147);stroke-width:0.01" />
<line x1="-0.0380652" y1="-0.151331" x2="-0.0815962" y2="-0.0960497" style="stroke:rgb(246,147,147);stroke-width:0.01" />
<line x1="-0.256077" y1="-0.207497" x2="0.154467" y2="-0.130143" style="stroke:rgb(246,147,147);stroke-width:0.01" />
<line x1="-0.34005" y1="-0.279734" x2="-0.502058" y2="-0.25972" style="stroke:rgb(246,147,147);stroke-width:0.01" />
<line x1="-0.0380652" y1="-0.151331" x2="0.114792" y2="-0.142144" style="stroke:rgb(246,147,147);stroke-width:0.01" />
<line x1="-0.184455" y1="-0.232667" x2="-0.256077" y2="-0.207497" style="stroke:rgb(246,147,147);stroke-width:0.01" />
<line x1="-0.159358" y1="-0.096893" x2="0.28014" y2="-0.0921267" style="stroke:rgb(246,147,147);stroke-width:0.01" />
<line x1="0.0112529" y1="-0.173465" x2="-0.159358" y2="-0.096893" style="stroke:rgb(246,147,147);stroke-width:0.01" />
<line x1="0.258514" y1="-0.0986685" x2="0.243122" y2="-0.0925281" style="stroke:rgb(246,147,147);stroke-width:0.01" />
<line x1="0.378076" y1="0.0747049" x2="0.1774" y2="0.0907013" style="stroke:rgb(246,147,147);stroke-width:0.01" />
<line x1="0.287475" y1="0.265716" x2="0.705065" y2="0.26782" style="stroke:rgb(246,147,147);stroke-width:0.01" />
<line x1="0.705485" y1="0.184516" x2="-0.130593" y2="0.560421" style="stroke:rgb(246,147,147);stroke-width:0.01" />
</g>
</svg>
