<svg xmlns="http://www.w3.org/2000/svg" viewBox="-1.5 -1.5 3 3">
<g transform="scale(1, -1)">
<path d="M0.110000 0.332500 L0.133333 0.412500 L0.250000 0.500000 L0.375000 0.562500 L0.328125 0.656250 L0.171875 0.656250 L0.041667 0.395833 L0.050000 0.350000 z " fill="rgb(245,195,195)" />
<path d="M0.000000 0.000000 L1.000000 0.000000 L1.000000 1.000000 L0.000000 1.000000  z" fill="none" stroke="rgb(128,128,128)" stroke-width="0.01" />
<line x1="0.11" y1="0.3325" x2="0.195312" y2="0.625" style="stroke:rgb(246,147,147);stroke-width:0.01" />
<line x1="0.25" y1="0.5" x2="0.328125" y2="0.65625" style="stroke:rgb(246,147,147);stroke-width:0.01" />
<line x1="0.25" y1="0.5" x2="0.25" y2="0.65625" style="stroke:rgb(246,147,147);stroke-width:0.01" />
<line x1="0.05" y1="0.35" x2="0.0416667" y2="0.395833" style="stroke:rgb(246,147,147);stroke-width:0.01" />
<line x1="0.0416667" y1="0.395833" x2="0.171875" y2="0.65625" style="stroke:rgb(246,147,147);stroke-width:0.01" />
<line x1="0.05" y1="0.35" x2="0.275" y2="0.51875" style="stroke:rgb(246,147,147);stroke-width:0.01" />
<line x1="0.375" y1="0.5625" x2="0.328125" y2="0.65625" style="stroke:rgb(246,147,147);stroke-width:0.01" />
<line x1="0.0416667" y1="0.395833" x2="0.375" y2="0.5625" style="stroke:rgb(246,147,147);stroke-width:0.01" />
<line x1="0.25" y1="0.5" x2="0.15625" y2="0.625" style="stroke:rgb(246,147,147);stroke-width:0.01" />
<line x1="0.275" y1="0.51875" x2="0.171875" y2="0.65625" style="stroke:rgb(246,147,147);stroke-width:0.01" />
<line x1="0.11" y1="0.3325" x2="0.05" y2="0.35" style="stroke:rgb(246,147,147);stroke-width:0.01" />
<line x1="0.25" y1="0.5" x2="0.136364" y2="0.585227" style="stroke:rgb(246,147,147);stroke-width:0.01" />
<line x1="0.25" y1="0.5" x2="0.125" y2="0.5625" style="stroke:rgb(246,147,147);stroke-width:0.01" />
<line x1="0.25" y1="0.552083" x2="0.136364" y2="0.585227" style="stroke:rgb(246,147,147);stroke-width:0.01" />
<line x1="0.15625" y1="0.625" x2="0.195312" y2="0.625" style="stroke:rgb(246,147,147);stroke-width:0.01" />
<line x1="0.171875" y1="0.65625" x2="0.328125" y2="0.65625" style="stroke:rgb(246,147,147);stroke-width:0.01" />
</g>
</svg>
