<svg xmlns="http://www.w3.org/2000/svg" viewBox="-1.5 -1.5 3 3">
<g transform="scale(1, -1)">
<path d="M-0.072500 -0.150729 L-0.049167 -0.070729 L0.067500 0.016771 L0.192500 0.079271 L0.145625 0.173021 L-0.010625 0.173021 L-0.140833 -0.087396 L-0.132500 -0.133229 z " fill="rgb(245,195,195)" />
<path d="M-0.182500 -0.483229 L0.817500 -0.483229 L0.817500 0.516771 L-0.182500 0.516771  z" fill="none" stroke="rgb(128,128,128)" stroke-width="0.01" />
<line x1="-0.0725" y1="-0.150729" x2="0.0128125" y2="0.141771" style="stroke:rgb(246,147,147);stroke-width:0.01" />
<line x1="0.0675" y1="0.0167708" x2="0.145625" y2="0.173021" style="stroke:rgb(246,147,147);stroke-width:0.01" />
<line x1="0.0675" y1="0.0167708" x2="0.0675" y2="0.173021" style="stroke:rgb(246,147,147);stroke-width:0.01" />
<line x1="-0.1325" y1="-0.133229" x2="-0.140833" y2="-0.0873958" style="stroke:rgb(246,147,147);stroke-width:0.01" />
<line x1="-0.140833" y1="-0.0873958" x2="-0.010625" y2="0.173021" style="stroke:rgb(246,147,147);stroke-width:0.01" />
<line x1="-0.1325" y1="-0.133229" x2="0.0925" y2="0.0355208" style="stroke:rgb(246,147,147);stroke-width:0.01" />
<line x1="0.1925" y1="0.0792708" x2="0.145625" y2="0.173021" style="stroke:rgb(246,147,147);stroke-width:0.01" />
<line x1="-0.140833" y1="-0.0873958" x2="0.1925" y2="0.0792708" style="stroke:rgb(246,147,147);stroke-width:0.01" />
<line x1="0.0675" y1="0.0167708" x2="-0.02625" y2="0.141771" style="stroke:rgb(246,147,147);stroke-width:0.01" />
<line x1="0.0925" y1="0.0355208" x2="-0.010625" y2="0.173021" style="stroke:rgb(246,147,147);stroke-width:0.01" />
<line x1="-0.0725" y1="-0.150729" x2="-0.1325" y2="-0.133229" style="stroke:rgb(246,147,147);stroke-width:0.01" />
<line x1="0.0675" y1="0.0167708" x2="-0.0461364" y2="0.101998" style="stroke:rgb(246,147,147);stroke-width:0.01" />
<line x1="0.0675" y1="0.0167708" x2="-0.0575" y2="0.0792708" style="stroke:rgb(246,147,147);stroke-width:0.01" />
<line x1="0.0675" y1="0.0688542" x2="-0.0461364" y2="0.101998" style="stroke:rgb(246,147,147);stroke-width:0.01" />
<line x1="-0.02625" y1="0.141771" x2="0.0128125" y2="0.141771" style="stroke:rgb(246,147,147);stroke-width:0.01" />
<line x1="-0.010625" y1="0.173021" x2="0.145625" y2="0.173021" style="stroke:rgb(246,147,147);stroke-width:0.01" />
</g>
</svg>
