<svg xmlns="http://www.w3.org/2000/svg" viewBox="-1.5 -1.5 3 3">
<g transform="scale(1, -1)">
<path d="M0.600000 -0.200000 L0.675000 -0.100000 L0.792000 -0.144000 L0.942857 0.257143 L0.500000 0.500000 L0.000000 0.153846 L0.000000 0.000000 L0.333333 0.000000 z " fill="rgb(245,195,195)" />
<path d="M0.000000 0.000000 L1.000000 0.000000 L1.000000 1.000000 L0.000000 1.000000  z" fill="none" stroke="rgb(128,128,128)" stroke-width="0.01" />
<line x1="0.6" y1="-0.2" x2="0.942857" y2="0.257143" style="stroke:rgb(246,147,147);stroke-width:0.01" />
<line x1="0.792" y1="-0.144" x2="0.942857" y2="0.257143" style="stroke:rgb(246,147,147);stroke-width:0.01" />
<line x1="0.333333" y1="0" x2="0.5" y2="0.5" style="stroke:rgb(246,147,147);stroke-width:0.01" />
<line x1="0" y1="0" x2="0.5" y2="0" style="stroke:rgb(246,147,147);stroke-width:0.01" />
<line x1="0" y1="0" x2="0.5" y2="0.5" style="stroke:rgb(246,147,147);stroke-width:0.01" />
<line x1="0" y1="0" x2="0" y2="0.153846" style="stroke:rgb(246,147,147);stroke-width:0.01" />
<line x1="0.5" y1="0" x2="0.5" y2="0.5" style="stroke:rgb(246,147,147);stroke-width:0.01" />
<line x1="0" y1="0.153846" x2="0.5" y2="0.5" style="stroke:rgb(246,147,147);stroke-width:0.01" />
<line x1="0.792" y1="-0.144" x2="0" y2="0.153846" style="stroke:rgb(246,147,147);stroke-width:0.01" />
<line x1="0.6" y1="-0.2" x2="0.333333" y2="0" style="stroke:rgb(246,147,147);stroke-width:0.01" />
<line x1="0.942857" y1="0.257143" x2="0.5" y2="0.5" style="stroke:rgb(246,147,147);stroke-width:0.01" />
</g>
</svg>
