<svg xmlns="http://www.w3.org/2000/svg" viewBox="-1.5 -1.5 3 3">
<g transform="scale(1, -1)">
<path d="M0.119601 -0.258374 L0.194601 -0.158374 L0.311601 -0.202374 L0.462458 0.198769 L0.019601 0.441626 L-0.480399 0.095473 L-0.480399 -0.058374 L-0.147065 -0.058374 z " fill="rgb(245,195,195)" />
<path d="M-0.480399 -0.058374 L0.519601 -0.058374 L0.519601 0.941626 L-0.480399 0.941626  z" fill="none" stroke="rgb(128,128,128)" stroke-width="0.01" />
<line x1="0.119601" y1="-0.258374" x2="0.462458" y2="0.198769" style="stroke:rgb(246,147,147);stroke-width:0.01" />
<line x1="0.311601" y1="-0.202374" x2="0.462458" y2="0.198769" style="stroke:rgb(246,147,147);stroke-width:0.01" />
<line x1="-0.147065" y1="-0.0583736" x2="0.0196012" y2="0.441626" style="stroke:rgb(246,147,147);stroke-width:0.01" />
<line x1="-0.480399" y1="-0.0583736" x2="0.0196012" y2="-0.0583736" style="stroke:rgb(246,147,147);stroke-width:0.01" />
<line x1="-0.480399" y1="-0.0583736" x2="0.0196012" y2="0.441626" style="stroke:rgb(246,147,147);stroke-width:0.01" />
<line x1="-0.480399" y1="-0.0583736" x2="-0.480399" y2="0.0954725" style="stroke:rgb(246,147,147);stroke-width:0.01" />
<line x1="0.0196012" y1="-0.0583736" x2="0.0196012" y2="0.441626" style="stroke:rgb(246,147,147);stroke-width:0.01" />
<line x1="-0.480399" y1="0.0954725" x2="0.0196012" y2="0.441626" style="stroke:rgb(246,147,147);stroke-width:0.01" />
<line x1="0.311601" y1="-0.202374" x2="-0.480399" y2="0.0954725" style="stroke:rgb(246,147,147);stroke-width:0.01" />
<line x1="0.119601" y1="-0.258374" x2="-0.147065" y2="-0.0583736" style="stroke:rgb(246,147,147);stroke-width:0.01" />
<line x1="0.462458" y1="0.198769" x2="0.0196012" y2="0.441626" style="stroke:rgb(246,147,147);stroke-width:0.01" />
</g>
</svg>
