<svg xmlns="http://www.w3.org/2000/svg" viewBox="-1.5 -1.5 3 3">
<g transform="scale(1, -1)">
<path d="M1.000000 0.000000 L1.000000 0.020000 L0.020000 1.000000 L0.000000 1.000000 z " fill="rgb(245,195,195)" />
<path d="M0.000000 0.000000 L1.000000 0.000000 L1.000000 1.000000 L0.000000 1.000000  z" fill="none" stroke="rgb(128,128,128)" stroke-width="0.01" />
<line x1="0.02" y1="0.98" x2="0.02" y2="1" style="stroke:rgb(246,147,147);stroke-width:0.01" />
<line x1="0.04" y1="0.96" x2="0.04" y2="0.98" style="stroke:rgb(246,147,147);stroke-width:0.01" />
<line x1="0.06" y1="0.94" x2="0.06" y2="0.96" style="stroke:rgb(246,147,147);stroke-width:0.01" />
<line x1="0.08" y1="0.92" x2="0.08" y2="0.94" style="stroke:rgb(246,147,147);stroke-width:0.01" />
<line x1="0.1" y1="0.9" x2="0.1" y2="0.92" style="stroke:rgb(246,147,147);stroke-width:0.01" />
<line x1="0.12" y1="0.88" x2="0.12" y2="0.9" style="stroke:rgb(246,147,147);stroke-width:0.01" />
<line x1="0.14" y1="0.86" x2="0.14" y2="0.88" style="stroke:rgb(246,147,147);stroke-width:0.01" />
<line x1="0.16" y1="0.84" x2="0.16" y2="0.86" style="stroke:rgb(246,147,147);stroke-width:0.01" />
<line x1="0.18" y1="0.82" x2="0.18" y2="0.84" style="stroke:rgb(246,147,147);stroke-width:0.01" />
<line x1="0.2" y1="0.8" x2="0.2" y2="0.82" style="stroke:rgb(246,147,147);stroke-width:0.01" />
<line x1="0.22" y1="0.78" x2="0.22" y2="0.8" style="stroke:rgb(246,147,147);stroke-width:0.01" />
<line x1="0.24" y1="0.76" x2="0.24" y2="0.78" style="stroke:rgb(246,147,147);stroke-width:0.01" />
<line x1="0.26" y1="0.74" x2="0.26" y2="0.76" style="stroke:rgb(246,147,147);stroke-width:0.01" />
<line x1="0.28" y1="0.72" x2="0.28" y2="0.74" style="stroke:rgb(246,147,147);stroke-width:0.01" />
<line x1="0.3" y1="0.7" x2="0.3" y2="0.72" style="stroke:rgb(246,147,147);stroke-width:0.01" />
<line x1="0.32" y1="0.68" x2="0.32" y2="0.7" style="stroke:rgb(246,147,147);stroke-width:0.01" />
<line x1="0.34" y1="0.66" x2="0.34" y2="0.68" style="stroke:rgb(246,147,147);stroke-width:0.01" />
<line x1="0.36" y1="0.64" x2="0.36" y2="0.66" style="stroke:rgb(246,147,147);stroke-width:0.01" />
<line x1="0.38" y1="0.62" x2="0.38" y2="0.64" style="stroke:rgb(246,147,147);stroke-width:0.01" />
<line x1="0.4" y1="0.6" x2="0.4" y2="0.62" style="stroke:rgb(246,147,147);stroke-width:0.01" />
<line x1="0.42" y1="0.58" x2="0.42" y2="0.6" style="stroke:rgb(246,147,147);stroke-width:0.01" />
<line x1="0.44" y1="0.56" x2="0.44" y2="0.58" style="stroke:rgb(246,147,147);stroke-width:0.01" />
<line x1="0.46" y1="0.54" x2="0.46" y2="0.56" style="stroke:rgb(246,147,147);stroke-width:0.01" />
<line x1="0.48" y1="0.52" x2="0.48" y2="0.54" style="stroke:rgb(246,147,147);stroke-width:0.01" />
<line x1="0.5" y1="0.5" x2="0.5" y2="0.52" style="stroke:rgb(246,147,147);stroke-width:0.01" />
<line x1="0.52" y1="0.48" x2="0.52" y2="0.5" style="stroke:rgb(246,147,147);stroke-width:0.01" />
<line x1="0.54" y1="0.46" x2="0.54" y2="0.48" style="stroke:rgb(246,147,147);stroke-width:0.01" />
<line x1="0.56" y1="0.44" x2="0.56" y2="0.46" style="stroke:rgb(246,147,147);stroke-width:0.01" />
<line x1="0.58" y1="0.42" x2="0.58" y2="0.44" style="stroke:rgb(246,147,147);stroke-width:0.01" />
<line x1="0.6" y1="0.4" x2="0.6" y2="0.42" style="stroke:rgb(246,147,147);stroke-width:0.01" />
<line x1="0.62" y1="0.38" x2="0.62" y2="0.4" style="stroke:rgb(246,147,147);stroke-width:0.01" />
<line x1="0.64" y1="0.36" x2="0.64" y2="0.38" style="stroke:rgb(246,147,147);stroke-width:0.01" />
<line x1="0.66" y1="0.34" x2="0.66" y2="0.36" style="stroke:rgb(246,147,147);stroke-width:0.01" />
<line x1="0.68" y1="0.32" x2="0.68" y2="0.34" style="stroke:rgb(246,147,147);stroke-width:0.01" />
<line x1="0.7" y1="0.3" x2="0.7" y2="0.32" style="stroke:rgb(246,147,147);stroke-width:0.01" />
<line x1="0.72" y1="0.28" x2="0.72" y2="0.3" style="stroke:rgb(246,147,147);stroke-width:0.01" />
<line x1="0.74" y1="0.26" x2="0.74" y2="0.28" style="stroke:rgb(246,147,147);stroke-width:0.01" />
<line x1="0.76" y1="0.24" x2="0.76" y2="0.26" style="stroke:rgb(246,147,147);stroke-width:0.01" />
<line x1="0.78" y1="0.22" x2="0.78" y2="0.24" style="stroke:rgb(246,147,147);stroke-width:0.01" />
<line x1="0.8" y1="0.2" x2="0.8" y2="0.22" style="stroke:rgb(246,147,147);stroke-width:0.01" />
<line x1="0.82" y1="0.18" x2="0.82" y2="0.2" style="stroke:rgb(246,147,147);stroke-width:0.01" />
<line x1="0.84" y1="0.16" x2="0.84" y2="0.18" style="stroke:rgb(246,147,147);stroke-width:0.01" />
<line x1="0.86" y1="0.14" x2="0.86" y2="0.16" style="stroke:rgb(246,147,147);stroke-width:0.01" />
<line x1="0.88" y1="0.12" x2="0.88" y2="0.14" style="stroke:rgb(246,147,147);stroke-width:0.01" />
<line x1="0.9" y1="0.1" x2="0.9" y2="0.12" style="stroke:rgb(246,147,147);stroke-width:0.01" />
<line x1="0.92" y1="0.08" x2="0.92" y2="0.1" style="stroke:rgb(246,147,147);stroke-width:0.01" />
<line x1="0.94" y1="0.06" x2="0.94" y2="0.08" style="stroke:rgb(246,147,147);stroke-width:0.01" />
<line x1="0.96" y1="0.04" x2="0.96" y2="0.06" style="stroke:rgb(246,147,147);stroke-width:0.01" />
<line x1="0.98" y1="0.02" x2="0.98" y2="0.04" style="stroke:rgb(246,147,147);stroke-width:0.01" />
<line x1="1" y1="0" x2="1" y2="0.02" style="stroke:rgb(246,147,147);stroke-width:0.01" />
<line x1="0.98" y1="0.02" x2="1" y2="0.02" style="stroke:rgb(246,147,147);stroke-width:0.01" />
<line x1="0.96" y1="0.04" x2="0.98" y2="0.04" style="stroke:rgb(246,147,147);stroke-width:0.01" />
<line x1="0.94" y1="0.06" x2="0.96" y2="0.06" style="stroke:rgb(246,147,147);stroke-width:0.01" />
<line x1="0.92" y1="0.08" x2="0.94" y2="0.08" style="stroke:rgb(246,147,147);stroke-width:0.01" />
<line x1="0.9" y1="0.1" x2="0.92" y2="0.1" style="stroke:rgb(246,147,147);stroke-width:0.01" />
<line x1="0.88" y1="0.12" x2="0.9" y2="0.12" style="stroke:rgb(246,147,147);stroke-width:0.01" />
<line x1="0.86" y1="0.14" x2="0.88" y2="0.14" style="stroke:rgb(246,147,147);stroke-width:0.01" />
<line x1="0.84" y1="0.16" x2="0.86" y2="0.16" style="stroke:rgb(246,147,147);stroke-width:0.01" />
<line x1="0.82" y1="0.18" x2="0.84" y2="0.18" style="stroke:rgb(246,147,147);stroke-width:0.01" />
<line x1="0.8" y1="0.2" x2="0.82" y2="0.2" style="stroke:rgb(246,147,147);stroke-width:0.01" />
<line x1="0.78" y1="0.22" x2="0.8" y2="0.22" style="stroke:rgb(246,147,147);stroke-width:0.01" />
<line x1="0.76" y1="0.24" x2="0.78" y2="0.24" style="stroke:rgb(246,147,147);stroke-width:0.01" />
<line x1="0.74" y1="0.26" x2="0.76" y2="0.26" style="stroke:rgb(246,147,147);stroke-width:0.01" />
<line x1="0.72" y1="0.28" x2="0.74" y2="0.28" style="stroke:rgb(246,147,147);stroke-width:0.01" />
<line x1="0.7" y1="0.3" x2="0.72" y2="0.3" style="stroke:rgb(246,147,147);stroke-width:0.01" />
<line x1="0.68" y1="0.32" x2="0.7" y2="0.32" style="stroke:rgb(246,147,147);stroke-width:0.01" />
<line x1="0.66" y1="0.34" x2="0.68" y2="0.34" style="stroke:rgb(246,147,147);stroke-width:0.01" />
<line x1="0.64" y1="0.36" x2="0.66" y2="0.36" style="stroke:rgb(246,147,147);stroke-width:0.01" />
<line x1="0.62" y1="0.38" x2="0.64" y2="0.38" style="stroke:rgb(246,147,147);stroke-width:0.01" />
<line x1="0.6" y1="0.4" x2="0.62" y2="0.4" style="stroke:rgb(246,147,147);stroke-width:0.01" />
<line x1="0.58" y1="0.42" x2="0.6" y2="0.42" style="stroke:rgb(246,147,147);stroke-width:0.01" />
<line x1="0.56" y1="0.44" x2="0.58" y2="0.44" style="stroke:rgb(246,147,147);stroke-width:0.01" />
<line x1="0.54" y1="0.46" x2="0.56" y2="0.46" style="stroke:rgb(246,147,147);stroke-width:0.01" />
<line x1="0.52" y1="0.48" x2="0.54" y2="0.48" style="stroke:rgb(246,147,147);stroke-width:0.01" />
<line x1="0.5" y1="0.5" x2="0.52" y2="0.5" style="stroke:rgb(246,147,147);stroke-width:0.01" />
<line x1="1" y1="0" x2="0" y2="1" style="stroke:rgb(246,147,147);stroke-width:0.01" />
<line x1="1" y1="0.02" x2="0.02" y2="1" style="stroke:rgb(246,147,147);stroke-width:0.01" />
<line x1="0.48" y1="0.52" x2="0.5" y2="0.52" style="stroke:rgb(246,147,147);stroke-width:0.01" />
<line x1="0.46" y1="0.54" x2="0.48" y2="0.54" style="stroke:rgb(246,147,147);stroke-width:0.01" />
<line x1="0.44" y1="0.56" x2="0.46" y2="0.56" style="stroke:rgb(246,147,147);stroke-width:0.01" />
<line x1="0.42" y1="0.58" x2="0.44" y2="0.58" style="stroke:rgb(246,147,147);stroke-width:0.01" />
<line x1="0.4" y1="0.6" x2="0.42" y2="0.6" style="stroke:rgb(246,147,147);stroke-width:0.01" />
<line x1="0.38" y1="0.62" x2="0.4" y2="0.62" style="stroke:rgb(246,147,147);stroke-width:0.01" />
<line x1="0.36" y1="0.64" x2="0.38" y2="0.64" style="stroke:rgb(246,147,147);stroke-width:0.01" />
<line x1="0.34" y1="0.66" x2="0.36" y2="0.66" style="stroke:rgb(246,147,147);stroke-width:0.01" />
<line x1="0.32" y1="0.68" x2="0.34" y2="0.68" style="stroke:rgb(246,147,147);stroke-width:0.01" />
<line x1="0.3" y1="0.7" x2="0.32" y2="0.7" style="stroke:rgb(246,147,147);stroke-width:0.01" />
<line x1="0.28" y1="0.72" x2="0.3" y2="0.72" style="stroke:rgb(246,147,147);stroke-width:0.01" />
<line x1="0.26" y1="0.74" x2="0.28" y2="0.74" style="stroke:rgb(246,147,147);stroke-width:0.01" />
<line x1="0.24" y1="0.76" x2="0.26" y2="0.76" style="stroke:rgb(246,147,147);stroke-width:0.01" />
<line x1="0.22" y1="0.78" x2="0.24" y2="0.78" style="stroke:rgb(246,147,147);stroke-width:0.01" />
<line x1="0.2" y1="0.8" x2="0.22" y2="0.8" style="stroke:rgb(246,147,147);stroke-width:0.01" />
<line x1="0.18" y1="0.82" x2="0.2" y2="0.82" style="stroke:rgb(246,147,147);stroke-width:0.01" />
<line x1="0.16" y1="0.84" x2="0.18" y2="0.84" style="stroke:rgb(246,147,147);stroke-width:0.01" />
<line x1="0.14" y1="0.86" x2="0.16" y2="0.86" style="stroke:rgb(246,147,147);stroke-width:0.01" />
<line x1="0.12" y1="0.88" x2="0.14" y2="0.88" style="stroke:rgb(246,147,147);stroke-width:0.01" />
<line x1="0.1" y1="0.9" x2="0.12" y2="0.9" style="stroke:rgb(246,147,147);stroke-width:0.01" />
<line x1="0.08" y1="0.92" x2="0.1" y2="0.92" style="stroke:rgb(246,147,147);stroke-width:0.01" />
<line x1="0.06" y1="0.94" x2="0.08" y2="0.94" style="stroke:rgb(246,147,147);stroke-width:0.01" />
<line x1="0.04" y1="0.96" x2="0.06" y2="0.96" style="stroke:rgb(246,147,147);stroke-width:0.01" />
<line x1="0.02" y1="0.98" x2="0.04" y2="0.98" style="stroke:rgb(246,147,147);stroke-width:0.01" />
<line x1="0" y1="1" x2="0.02" y2="1" style="stroke:rgb(246,147,147);stroke-width:0.01" />
</g>
</svg>
