<svg xmlns="http://www.w3.org/2000/svg" viewBox="-1.5 -1.5 3 3">
<g transform="scale(1, -1)">
<path d="M-0.063464 -0.202365 L0.044968 -0.078120 L0.066804 -0.098917 L0.143432 -0.018457 L0.118096 0.005673 L0.155714 0.048776 L0.072000 0.121836 L0.037560 0.082373 L-0.063464 0.178587 L-0.174575 0.130968 L-0.174575 -0.160699 z M-0.063464 -0.033384 L-0.063464 0.025148 L-0.035568 -0.001420 z " fill="rgb(245,195,195)" />
<path d="M-0.174575 -0.535699 L0.825425 -0.535699 L0.825425 0.464301 L-0.174575 0.464301  z" fill="none" stroke="rgb(128,128,128)" stroke-width="0.01" />
<line x1="-0.174575" y1="-0.160699" x2="-0.174575" y2="0.130968" style="stroke:rgb(246,147,147);stroke-width:0.01" />
<line x1="-0.0634641" y1="-0.202365" x2="-0.0634641" y2="0.178587" style="stroke:rgb(246,147,147);stroke-width:0.01" />
<line x1="0.0668041" y1="-0.0989169" x2="0.143432" y2="-0.0184572" style="stroke:rgb(246,147,147);stroke-width:0.01" />
<line x1="-0.0634641" y1="-0.202365" x2="0.155714" y2="0.0487764" style="stroke:rgb(246,147,147);stroke-width:0.01" />
<line x1="-0.174575" y1="-0.160699" x2="0.0720001" y2="0.121836" style="stroke:rgb(246,147,147);stroke-width:0.01" />
<line x1="-0.0634641" y1="-0.202365" x2="-0.174575" y2="-0.160699" style="stroke:rgb(246,147,147);stroke-width:0.01" />
<line x1="0.0668041" y1="-0.0989169" x2="-0.174575" y2="0.130968" style="stroke:rgb(246,147,147);stroke-width:0.01" />
<line x1="0.143432" y1="-0.0184572" x2="-0.0634641" y2="0.178587" style="stroke:rgb(246,147,147);stroke-width:0.01" />
<line x1="0.155714" y1="0.0487764" x2="0.0720001" y2="0.121836" style="stroke:rgb(246,147,147);stroke-width:0.01" />
<line x1="-0.174575" y1="0.130968" x2="-0.0634641" y2="0.178587" style="stroke:rgb(246,147,147);stroke-width:0.01" />
</g>
</svg>
