<svg xmlns="http://www.w3.org/2000/svg" viewBox="-1.5 -1.5 3 3">
<g transform="scale(1, -1)">
<path d="M0.111111 0.333333 L0.219543 0.457578 L0.241379 0.436782 L0.318008 0.517241 L0.292671 0.541371 L0.330289 0.584475 L0.246575 0.657534 L0.212136 0.618072 L0.111111 0.714286 L0.000000 0.666667 L0.000000 0.375000 z M0.111111 0.502315 L0.111111 0.560847 L0.139007 0.534279 z " fill="rgb(245,195,195)" />
<path d="M0.000000 0.000000 L1.000000 0.000000 L1.000000 1.000000 L0.000000 1.000000  z" fill="none" stroke="rgb(128,128,128)" stroke-width="0.01" />
<line x1="0" y1="0.375" x2="0" y2="0.666667" style="stroke:rgb(246,147,147);stroke-width:0.01" />
<line x1="0.111111" y1="0.333333" x2="0.111111" y2="0.714286" style="stroke:rgb(246,147,147);stroke-width:0.01" />
<line x1="0.241379" y1="0.436782" x2="0.318008" y2="0.517241" style="stroke:rgb(246,147,147);stroke-width:0.01" />
<line x1="0.111111" y1="0.333333" x2="0.330289" y2="0.584475" style="stroke:rgb(246,147,147);stroke-width:0.01" />
<line x1="0" y1="0.375" x2="0.246575" y2="0.657534" style="stroke:rgb(246,147,147);stroke-width:0.01" />
<line x1="0.111111" y1="0.333333" x2="0" y2="0.375" style="stroke:rgb(246,147,147);stroke-width:0.01" />
<line x1="0.241379" y1="0.436782" x2="0" y2="0.666667" style="stroke:rgb(246,147,147);stroke-width:0.01" />
<line x1="0.318008" y1="0.517241" x2="0.111111" y2="0.714286" style="stroke:rgb(246,147,147);stroke-width:0.01" />
<line x1="0.330289" y1="0.584475" x2="0.246575" y2="0.657534" style="stroke:rgb(246,147,147);stroke-width:0.01" />
<line x1="0" y1="0.666667" x2="0.111111" y2="0.714286" style="stroke:rgb(246,147,147);stroke-width:0.01" />
</g>
</svg>
