<svg xmlns="http://www.w3.org/2000/svg" viewBox="-1.5 -1.5 3 3">
<g transform="scale(1, -1)">
<path d="M0.027778 -0.472222 L0.027778 -0.222222 L0.277778 -0.222222 L0.527778 0.027778 L0.027778 0.027778 L0.027778 0.527778 L-0.222222 0.277778 L-0.222222 0.027778 L-0.472222 0.027778 z " fill="rgb(245,195,195)" />
<path d="M-0.472222 -0.472222 L0.527778 -0.472222 L0.527778 0.527778 L-0.472222 0.527778  z" fill="none" stroke="rgb(128,128,128)" stroke-width="0.01" />
<line x1="0.277778" y1="-0.222222" x2="0.527778" y2="0.0277778" style="stroke:rgb(246,147,147);stroke-width:0.01" />
<line x1="-0.222222" y1="-0.222222" x2="0.0277778" y2="0.0277778" style="stroke:rgb(246,147,147);stroke-width:0.01" />
<line x1="-0.222222" y1="-0.222222" x2="-0.222222" y2="0.277778" style="stroke:rgb(246,147,147);stroke-width:0.01" />
<line x1="0.0277778" y1="-0.472222" x2="0.0277778" y2="0.527778" style="stroke:rgb(246,147,147);stroke-width:0.01" />
<line x1="-0.222222" y1="0.277778" x2="0.0277778" y2="0.527778" style="stroke:rgb(246,147,147);stroke-width:0.01" />
<line x1="-0.222222" y1="-0.222222" x2="0.277778" y2="-0.222222" style="stroke:rgb(246,147,147);stroke-width:0.01" />
<line x1="0.0277778" y1="-0.472222" x2="-0.472222" y2="0.0277778" style="stroke:rgb(246,147,147);stroke-width:0.01" />
<line x1="-0.472222" y1="0.0277778" x2="0.527778" y2="0.0277778" style="stroke:rgb(246,147,147);stroke-width:0.01" />
<line x1="0.277778" y1="-0.222222" x2="-0.222222" y2="0.277778" style="stroke:rgb(246,147,147);stroke-width:0.01" />
</g>
</svg>
