<svg xmlns="http://www.w3.org/2000/svg" viewBox="-1.5 -1.5 3 3">
<g transform="scale(1, -1)">
<path d="M0.750000 0.666667 L1.055556 0.666667 L1.108108 0.684685 L1.000000 1.000000 L0.750000 1.000000 z " fill="rgb(245,195,195)" />
<path d="M0.000000 0.000000 L1.000000 0.000000 L1.000000 1.000000 L0.000000 1.000000  z" fill="none" stroke="rgb(128,128,128)" stroke-width="0.01" />
<line x1="0.942857" y1="0.666667" x2="1" y2="0.833333" style="stroke:rgb(246,147,147);stroke-width:0.01" />
<line x1="0.75" y1="0.666667" x2="0.75" y2="1" style="stroke:rgb(246,147,147);stroke-width:0.01" />
<line x1="1" y1="0.666667" x2="1" y2="1" style="stroke:rgb(246,147,147);stroke-width:0.01" />
<line x1="1.05556" y1="0.666667" x2="1.10811" y2="0.684685" style="stroke:rgb(246,147,147);stroke-width:0.01" />
<line x1="0.942857" y1="0.666667" x2="0.837838" y2="0.972973" style="stroke:rgb(246,147,147);stroke-width:0.01" />
<line x1="1.10811" y1="0.684685" x2="1" y2="1" style="stroke:rgb(246,147,147);stroke-width:0.01" />
<line x1="0.75" y1="0.771429" x2="1" y2="0.857143" style="stroke:rgb(246,147,147);stroke-width:0.01" />
<line x1="0.75" y1="0.942857" x2="0.837838" y2="0.972973" style="stroke:rgb(246,147,147);stroke-width:0.01" />
<line x1="0.75" y1="0.666667" x2="1.05556" y2="0.666667" style="stroke:rgb(246,147,147);stroke-width:0.01" />
<line x1="0.75" y1="0.875" x2="1" y2="0.916667" style="stroke:rgb(246,147,147);stroke-width:0.01" />
<line x1="0.75" y1="0.958333" x2="1" y2="1" style="stroke:rgb(246,147,147);stroke-width:0.01" />
<line x1="1.05556" y1="0.666667" x2="0.75" y2="0.771429" style="stroke:rgb(246,147,147);stroke-width:0.01" />
<line x1="1" y1="0.833333" x2="0.75" y2="0.875" style="stroke:rgb(246,147,147);stroke-width:0.01" />
<line x1="0.75" y1="1" x2="1" y2="1" style="stroke:rgb(246,147,147);stroke-width:0.01" />
<line x1="1" y1="0.916667" x2="0.75" y2="0.958333" style="stroke:rgb(246,147,147);stroke-width:0.01" />
<line x1="1" y1="0.857143" x2="0.75" y2="0.942857" style="stroke:rgb(246,147,147);stroke-width:0.01" />
</g>
</svg>
