<svg xmlns="http://www.w3.org/2000/svg" viewBox="-1.5 -1.5 3 3">
<g transform="scale(1, -1)">
<path d="M-0.188553 -0.288433 L0.108024 -0.288433 L0.134095 -0.099580 L0.145492 -0.085126 L0.137013 -0.078441 L0.165312 0.126556 L-0.038618 0.274857 L-0.135237 0.141995 L-0.138975 0.155279 L-0.188553 0.141325 z " fill="rgb(245,195,195)" />
<path d="M-0.938553 -0.955100 L0.061447 -0.955100 L0.061447 0.044900 L-0.938553 0.044900  z" fill="none" stroke="rgb(128,128,128)" stroke-width="0.01" />
<line x1="0.119332" y1="-0.118303" x2="0.145492" y2="-0.0851259" style="stroke:rgb(246,147,147);stroke-width:0.01" />
<line x1="0.108024" y1="-0.288433" x2="0.165312" y2="0.126556" style="stroke:rgb(246,147,147);stroke-width:0.01" />
<line x1="-0.188553" y1="0.0686794" x2="-0.0386184" y2="0.274857" style="stroke:rgb(246,147,147);stroke-width:0.01" />
<line x1="-0.188553" y1="-0.288433" x2="-0.188553" y2="0.141325" style="stroke:rgb(246,147,147);stroke-width:0.01" />
<line x1="0.0614473" y1="-0.2751" x2="0.0614473" y2="0.0449" style="stroke:rgb(246,147,147);stroke-width:0.01" />
<line x1="-0.0486651" y1="-0.165587" x2="-0.138975" y2="0.155279" style="stroke:rgb(246,147,147);stroke-width:0.01" />
<line x1="0.020442" y1="-0.288433" x2="0.0614473" y2="-0.2751" style="stroke:rgb(246,147,147);stroke-width:0.01" />
<line x1="-0.188553" y1="0.0975836" x2="-0.133149" y2="0.134578" style="stroke:rgb(246,147,147);stroke-width:0.01" />
<line x1="-0.188553" y1="-0.220476" x2="0.131785" y2="-0.116315" style="stroke:rgb(246,147,147);stroke-width:0.01" />
<line x1="-0.188553" y1="-0.204959" x2="0.119332" y2="-0.118303" style="stroke:rgb(246,147,147);stroke-width:0.01" />
<line x1="-0.188553" y1="-0.00437996" x2="0.165312" y2="0.126556" style="stroke:rgb(246,147,147);stroke-width:0.01" />
<line x1="-0.188553" y1="-0.288433" x2="0.108024" y2="-0.288433" style="stroke:rgb(246,147,147);stroke-width:0.01" />
<line x1="0.0614473" y1="-0.2751" x2="-0.188553" y2="0.0686794" style="stroke:rgb(246,147,147);stroke-width:0.01" />
<line x1="-0.188553" y1="0.141325" x2="-0.138975" y2="0.155279" style="stroke:rgb(246,147,147);stroke-width:0.01" />
<line x1="0.020442" y1="-0.288433" x2="-0.188553" y2="-0.220476" style="stroke:rgb(246,147,147);stroke-width:0.01" />
<line x1="0.108024" y1="-0.288433" x2="-0.188553" y2="-0.204959" style="stroke:rgb(246,147,147);stroke-width:0.01" />
<line x1="-0.188553" y1="0.0449" x2="0.15404" y2="0.0449" style="stroke:rgb(246,147,147);stroke-width:0.01" />
<line x1="0.145492" y1="-0.0851259" x2="-0.133149" y2="0.134578" style="stroke:rgb(246,147,147);stroke-width:0.01" />
<line x1="0.131785" y1="-0.116315" x2="-0.188553" y2="0.0975836" style="stroke:rgb(246,147,147);stroke-width:0.01" />
<line x1="0.119332" y1="-0.118303" x2="-0.188553" y2="-0.00437996" style="stroke:rgb(246,147,147);stroke-width:0.01" />
<line x1="0.15404" y1="0.0449" x2="-0.188553" y2="0.141325" style="stroke:rgb(246,147,147);stroke-width:0.01" />
<line x1="0.165312" y1="0.126556" x2="-0.0386184" y2="0.274857" style="stroke:rgb(246,147,147);stroke-width:0.01" />
</g>
</svg>
