<svg xmlns="http://www.w3.org/2000/svg" viewBox="-1.5 -1.5 3 3">
<g transform="scale(1, -1)">
<path d="M0.092249 0.116860 L0.407369 0.797448 L0.398173 0.801706 L0.415474 0.829976 L0.345705 0.894951 L0.291919 0.874871 L0.051389 0.962270 L-0.210645 0.326746 L-0.195335 0.250015 z " fill="rgb(245,195,195)" />
<path d="M0.000000 0.000000 L1.000000 0.000000 L1.000000 1.000000 L0.000000 1.000000  z" fill="none" stroke="rgb(128,128,128)" stroke-width="0.01" />
<line x1="-0.195335" y1="0.250015" x2="-0.210645" y2="0.326746" style="stroke:rgb(246,147,147);stroke-width:0.01" />
<line x1="0.274431" y1="0.652741" x2="0.345705" y2="0.894951" style="stroke:rgb(246,147,147);stroke-width:0.01" />
<line x1="0.0922494" y1="0.11686" x2="0.407369" y2="0.797448" style="stroke:rgb(246,147,147);stroke-width:0.01" />
<line x1="-0.148463" y1="0.368535" x2="-0.167535" y2="0.431303" style="stroke:rgb(246,147,147);stroke-width:0.01" />
<line x1="0.238206" y1="0.628396" x2="0.240028" y2="0.675281" style="stroke:rgb(246,147,147);stroke-width:0.01" />
<line x1="-0.0714358" y1="0.384807" x2="-0.126779" y2="0.530149" style="stroke:rgb(246,147,147);stroke-width:0.01" />
<line x1="0.32977" y1="0.689931" x2="0.415474" y2="0.829976" style="stroke:rgb(246,147,147);stroke-width:0.01" />
<line x1="-0.210645" y1="0.326746" x2="0.0513888" y2="0.96227" style="stroke:rgb(246,147,147);stroke-width:0.01" />
<line x1="0.0922494" y1="0.11686" x2="-0.195335" y2="0.250015" style="stroke:rgb(246,147,147);stroke-width:0.01" />
<line x1="-0.148463" y1="0.368535" x2="-0.182134" y2="0.395893" style="stroke:rgb(246,147,147);stroke-width:0.01" />
<line x1="0.0788229" y1="0.563872" x2="-0.0297135" y2="0.765568" style="stroke:rgb(246,147,147);stroke-width:0.01" />
<line x1="0.253827" y1="0.638894" x2="0.240028" y2="0.675281" style="stroke:rgb(246,147,147);stroke-width:0.01" />
<line x1="-0.195335" y1="0.250015" x2="-0.0714358" y2="0.384807" style="stroke:rgb(246,147,147);stroke-width:0.01" />
<line x1="-0.210645" y1="0.326746" x2="0.32977" y2="0.689931" style="stroke:rgb(246,147,147);stroke-width:0.01" />
<line x1="-0.0714358" y1="0.384807" x2="-0.182134" y2="0.395893" style="stroke:rgb(246,147,147);stroke-width:0.01" />
<line x1="0.376307" y1="0.765975" x2="0.309273" y2="0.868565" style="stroke:rgb(246,147,147);stroke-width:0.01" />
<line x1="-0.167535" y1="0.431303" x2="0.0788229" y2="0.563872" style="stroke:rgb(246,147,147);stroke-width:0.01" />
<line x1="0.253827" y1="0.638894" x2="0.0838502" y2="0.79719" style="stroke:rgb(246,147,147);stroke-width:0.01" />
<line x1="-0.126779" y1="0.530149" x2="0.168089" y2="0.663537" style="stroke:rgb(246,147,147);stroke-width:0.01" />
<line x1="0.302329" y1="0.570585" x2="-0.0439928" y2="0.730936" style="stroke:rgb(246,147,147);stroke-width:0.01" />
<line x1="0.168089" y1="0.663537" x2="0.32977" y2="0.689931" style="stroke:rgb(246,147,147);stroke-width:0.01" />
<line x1="0.238206" y1="0.628396" x2="-0.0439928" y2="0.730936" style="stroke:rgb(246,147,147);stroke-width:0.01" />
<line x1="0.415474" y1="0.829976" x2="0.345705" y2="0.894951" style="stroke:rgb(246,147,147);stroke-width:0.01" />
<line x1="0.0838502" y1="0.79719" x2="0.345705" y2="0.894951" style="stroke:rgb(246,147,147);stroke-width:0.01" />
<line x1="0.274431" y1="0.652741" x2="0.168089" y2="0.663537" style="stroke:rgb(246,147,147);stroke-width:0.01" />
<line x1="-0.0297135" y1="0.765568" x2="0.309273" y2="0.868565" style="stroke:rgb(246,147,147);stroke-width:0.01" />
<line x1="0.376307" y1="0.765975" x2="0.0838502" y2="0.79719" style="stroke:rgb(246,147,147);stroke-width:0.01" />
<line x1="0.407369" y1="0.797448" x2="0.0513888" y2="0.96227" style="stroke:rgb(246,147,147);stroke-width:0.01" />
<line x1="0.415474" y1="0.829976" x2="0.0513888" y2="0.96227" style="stroke:rgb(246,147,147);stroke-width:0.01" />
</g>
</svg>
