<svg xmlns="http://www.w3.org/2000/svg" viewBox="-1.5 -1.5 3 3">
<g transform="scale(1, -1)">
<path d="M-0.085117 -0.533678 L0.230002 0.146910 L0.220807 0.151167 L0.238108 0.179438 L0.168338 0.244413 L0.114553 0.224333 L-0.125978 0.311732 L-0.388011 -0.323792 L-0.372702 -0.400523 z " fill="rgb(245,195,195)" />
<path d="M-0.177366 -0.650538 L0.822634 -0.650538 L0.822634 0.349462 L-0.177366 0.349462  z" fill="none" stroke="rgb(128,128,128)" stroke-width="0.01" />
<line x1="-0.372702" y1="-0.400523" x2="-0.388011" y2="-0.323792" style="stroke:rgb(246,147,147);stroke-width:0.01" />
<line x1="0.0970647" y1="0.00220283" x2="0.168338" y2="0.244413" style="stroke:rgb(246,147,147);stroke-width:0.01" />
<line x1="-0.085117" y1="-0.533678" x2="0.230002" y2="0.14691" style="stroke:rgb(246,147,147);stroke-width:0.01" />
<line x1="-0.32583" y1="-0.282003" x2="-0.344901" y2="-0.219236" style="stroke:rgb(246,147,147);stroke-width:0.01" />
<line x1="0.0608397" y1="-0.0221422" x2="0.0626611" y2="0.0247425" style="stroke:rgb(246,147,147);stroke-width:0.01" />
<line x1="-0.248802" y1="-0.265731" x2="-0.304146" y2="-0.120389" style="stroke:rgb(246,147,147);stroke-width:0.01" />
<line x1="0.152403" y1="0.039393" x2="0.238108" y2="0.179438" style="stroke:rgb(246,147,147);stroke-width:0.01" />
<line x1="-0.388011" y1="-0.323792" x2="-0.125978" y2="0.311732" style="stroke:rgb(246,147,147);stroke-width:0.01" />
<line x1="-0.085117" y1="-0.533678" x2="-0.372702" y2="-0.400523" style="stroke:rgb(246,147,147);stroke-width:0.01" />
<line x1="-0.32583" y1="-0.282003" x2="-0.359501" y2="-0.254645" style="stroke:rgb(246,147,147);stroke-width:0.01" />
<line x1="-0.0985435" y1="-0.0866661" x2="-0.20708" y2="0.11503" style="stroke:rgb(246,147,147);stroke-width:0.01" />
<line x1="0.0764602" y1="-0.0116444" x2="0.0626611" y2="0.0247425" style="stroke:rgb(246,147,147);stroke-width:0.01" />
<line x1="-0.372702" y1="-0.400523" x2="-0.248802" y2="-0.265731" style="stroke:rgb(246,147,147);stroke-width:0.01" />
<line x1="-0.388011" y1="-0.323792" x2="0.152403" y2="0.039393" style="stroke:rgb(246,147,147);stroke-width:0.01" />
<line x1="-0.248802" y1="-0.265731" x2="-0.359501" y2="-0.254645" style="stroke:rgb(246,147,147);stroke-width:0.01" />
<line x1="0.19894" y1="0.115437" x2="0.131907" y2="0.218027" style="stroke:rgb(246,147,147);stroke-width:0.01" />
<line x1="-0.344901" y1="-0.219236" x2="-0.0985435" y2="-0.0866661" style="stroke:rgb(246,147,147);stroke-width:0.01" />
<line x1="0.0764602" y1="-0.0116444" x2="-0.0935162" y2="0.146652" style="stroke:rgb(246,147,147);stroke-width:0.01" />
<line x1="-0.304146" y1="-0.120389" x2="-0.00927756" y2="0.0129985" style="stroke:rgb(246,147,147);stroke-width:0.01" />
<line x1="0.124962" y1="-0.0799528" x2="-0.221359" y2="0.0803977" style="stroke:rgb(246,147,147);stroke-width:0.01" />
<line x1="-0.00927756" y1="0.0129985" x2="0.152403" y2="0.039393" style="stroke:rgb(246,147,147);stroke-width:0.01" />
<line x1="0.0608397" y1="-0.0221422" x2="-0.221359" y2="0.0803977" style="stroke:rgb(246,147,147);stroke-width:0.01" />
<line x1="0.238108" y1="0.179438" x2="0.168338" y2="0.244413" style="stroke:rgb(246,147,147);stroke-width:0.01" />
<line x1="-0.0935162" y1="0.146652" x2="0.168338" y2="0.244413" style="stroke:rgb(246,147,147);stroke-width:0.01" />
<line x1="0.0970647" y1="0.00220283" x2="-0.00927756" y2="0.0129985" style="stroke:rgb(246,147,147);stroke-width:0.01" />
<line x1="-0.20708" y1="0.11503" x2="0.131907" y2="0.218027" style="stroke:rgb(246,147,147);stroke-width:0.01" />
<line x1="0.19894" y1="0.115437" x2="-0.0935162" y2="0.146652" style="stroke:rgb(246,147,147);stroke-width:0.01" />
<line x1="0.230002" y1="0.14691" x2="-0.125978" y2="0.311732" style="stroke:rgb(246,147,147);stroke-width:0.01" />
<line x1="0.238108" y1="0.179438" x2="-0.125978" y2="0.311732" style="stroke:rgb(246,147,147);stroke-width:0.01" />
</g>
</svg>
