<svg xmlns="http://www.w3.org/2000/svg" viewBox="-1.5 -1.5 3 3">
<g transform="scale(1, -1)">
<path d="M-2.398292 -0.931292 L-2.032000 -0.565000 L-1.832000 -0.565000 L-1.785846 -0.518846 L-1.776444 -0.520556 L-1.732000 -0.565000 L-1.681738 -0.552435 L-1.667955 -0.529045 L-1.732000 -0.465000 L-2.753429 -0.465000 L-2.865846 -0.655769 z " fill="rgb(245,195,195)" />
<path d="M0.000000 0.000000 L1.000000 0.000000 L1.000000 1.000000 L0.000000 1.000000  z" fill="none" stroke="rgb(128,128,128)" stroke-width="0.01" />
<line x1="-2.39829" y1="-0.931292" x2="-2.86585" y2="-0.655769" style="stroke:rgb(246,147,147);stroke-width:0.01" />
<line x1="-2.37245" y1="-0.905449" x2="-2.43537" y2="-0.868371" style="stroke:rgb(246,147,147);stroke-width:0.01" />
<line x1="-2.564" y1="-0.489" x2="-2.59376" y2="-0.465" style="stroke:rgb(246,147,147);stroke-width:0.01" />
<line x1="-2.507" y1="-0.565" x2="-2.522" y2="-0.545" style="stroke:rgb(246,147,147);stroke-width:0.01" />
<line x1="-2.312" y1="-0.625" x2="-2.432" y2="-0.465" style="stroke:rgb(246,147,147);stroke-width:0.01" />
<line x1="-2.702" y1="-0.552273" x2="-2.75343" y2="-0.465" style="stroke:rgb(246,147,147);stroke-width:0.01" />
<line x1="-1.96533" y1="-0.565" x2="-2.09867" y2="-0.465" style="stroke:rgb(246,147,147);stroke-width:0.01" />
<line x1="-2.39829" y1="-0.931292" x2="-2.43537" y2="-0.868371" style="stroke:rgb(246,147,147);stroke-width:0.01" />
<line x1="-2.37245" y1="-0.905449" x2="-2.51821" y2="-0.658103" style="stroke:rgb(246,147,147);stroke-width:0.01" />
<line x1="-1.932" y1="-0.565" x2="-2.032" y2="-0.465" style="stroke:rgb(246,147,147);stroke-width:0.01" />
<line x1="-1.932" y1="-0.565" x2="-2.132" y2="-0.465" style="stroke:rgb(246,147,147);stroke-width:0.01" />
<line x1="-1.832" y1="-0.565" x2="-1.932" y2="-0.465" style="stroke:rgb(246,147,147);stroke-width:0.01" />
<line x1="-1.752" y1="-0.525" x2="-1.832" y2="-0.465" style="stroke:rgb(246,147,147);stroke-width:0.01" />
<line x1="-1.68174" y1="-0.552435" x2="-1.7209" y2="-0.528516" style="stroke:rgb(246,147,147);stroke-width:0.01" />
<line x1="-1.732" y1="-0.565" x2="-1.832" y2="-0.465" style="stroke:rgb(246,147,147);stroke-width:0.01" />
<line x1="-2.16904" y1="-0.565" x2="-2.48756" y2="-0.465" style="stroke:rgb(246,147,147);stroke-width:0.01" />
<line x1="-1.88914" y1="-0.507857" x2="-1.992" y2="-0.465" style="stroke:rgb(246,147,147);stroke-width:0.01" />
<line x1="-1.66796" y1="-0.529045" x2="-1.732" y2="-0.465" style="stroke:rgb(246,147,147);stroke-width:0.01" />
<line x1="-1.69132" y1="-0.554831" x2="-1.71506" y2="-0.528765" style="stroke:rgb(246,147,147);stroke-width:0.01" />
<line x1="-1.68788" y1="-0.541471" x2="-1.71506" y2="-0.528765" style="stroke:rgb(246,147,147);stroke-width:0.01" />
<line x1="-1.68989" y1="-0.549211" x2="-1.76277" y2="-0.518846" style="stroke:rgb(246,147,147);stroke-width:0.01" />
<line x1="-1.732" y1="-0.515" x2="-1.81771" y2="-0.479286" style="stroke:rgb(246,147,147);stroke-width:0.01" />
<line x1="-1.68253" y1="-0.537632" x2="-1.704" y2="-0.511" style="stroke:rgb(246,147,147);stroke-width:0.01" />
<line x1="-2.632" y1="-0.565" x2="-2.702" y2="-0.552273" style="stroke:rgb(246,147,147);stroke-width:0.01" />
<line x1="-2.50892" y1="-0.680385" x2="-2.51821" y2="-0.658103" style="stroke:rgb(246,147,147);stroke-width:0.01" />
<line x1="-1.704" y1="-0.511" x2="-1.85052" y2="-0.465" style="stroke:rgb(246,147,147);stroke-width:0.01" />
<line x1="-1.68253" y1="-0.537632" x2="-2.082" y2="-0.465" style="stroke:rgb(246,147,147);stroke-width:0.01" />
<line x1="-1.68756" y1="-0.553889" x2="-1.732" y2="-0.465" style="stroke:rgb(246,147,147);stroke-width:0.01" />
<line x1="-1.86533" y1="-0.565" x2="-1.88914" y2="-0.507857" style="stroke:rgb(246,147,147);stroke-width:0.01" />
<line x1="-2.52783" y1="-0.565" x2="-2.557" y2="-0.465" style="stroke:rgb(246,147,147);stroke-width:0.01" />
<line x1="-1.81771" y1="-0.479286" x2="-1.82367" y2="-0.465" style="stroke:rgb(246,147,147);stroke-width:0.01" />
<line x1="-1.71506" y1="-0.528765" x2="-1.7209" y2="-0.528516" style="stroke:rgb(246,147,147);stroke-width:0.01" />
<line x1="-2.632" y1="-0.565" x2="-1.832" y2="-0.565" style="stroke:rgb(246,147,147);stroke-width:0.01" />
<line x1="-2.75343" y1="-0.465" x2="-1.732" y2="-0.465" style="stroke:rgb(246,147,147);stroke-width:0.01" />
<line x1="-1.732" y1="-0.565" x2="-1.68174" y2="-0.552435" style="stroke:rgb(246,147,147);stroke-width:0.01" />
<line x1="-2.632" y1="-0.565" x2="-2.082" y2="-0.465" style="stroke:rgb(246,147,147);stroke-width:0.01" />
<line x1="-1.68756" y1="-0.553889" x2="-1.68788" y2="-0.541471" style="stroke:rgb(246,147,147);stroke-width:0.01" />
<line x1="-1.752" y1="-0.525" x2="-1.704" y2="-0.511" style="stroke:rgb(246,147,147);stroke-width:0.01" />
<line x1="-1.732" y1="-0.565" x2="-1.732" y2="-0.515" style="stroke:rgb(246,147,147);stroke-width:0.01" />
<line x1="-2.16904" y1="-0.565" x2="-1.85052" y2="-0.465" style="stroke:rgb(246,147,147);stroke-width:0.01" />
<line x1="-1.76729" y1="-0.529706" x2="-1.732" y2="-0.515" style="stroke:rgb(246,147,147);stroke-width:0.01" />
<line x1="-1.732" y1="-0.565" x2="-1.68788" y2="-0.541471" style="stroke:rgb(246,147,147);stroke-width:0.01" />
<line x1="-2.564" y1="-0.489" x2="-2.48756" y2="-0.465" style="stroke:rgb(246,147,147);stroke-width:0.01" />
<line x1="-2.50892" y1="-0.680385" x2="-1.992" y2="-0.465" style="stroke:rgb(246,147,147);stroke-width:0.01" />
<line x1="-1.932" y1="-0.565" x2="-1.732" y2="-0.465" style="stroke:rgb(246,147,147);stroke-width:0.01" />
<line x1="-1.68253" y1="-0.537632" x2="-1.66796" y2="-0.529045" style="stroke:rgb(246,147,147);stroke-width:0.01" />
<line x1="-1.69132" y1="-0.554831" x2="-1.68989" y2="-0.549211" style="stroke:rgb(246,147,147);stroke-width:0.01" />
<line x1="-1.732" y1="-0.565" x2="-1.7209" y2="-0.528516" style="stroke:rgb(246,147,147);stroke-width:0.01" />
<line x1="-2.51821" y1="-0.658103" x2="-2.132" y2="-0.465" style="stroke:rgb(246,147,147);stroke-width:0.01" />
<line x1="-1.76729" y1="-0.529706" x2="-1.76277" y2="-0.518846" style="stroke:rgb(246,147,147);stroke-width:0.01" />
<line x1="-1.86533" y1="-0.565" x2="-1.82367" y2="-0.465" style="stroke:rgb(246,147,147);stroke-width:0.01" />
<line x1="-1.96533" y1="-0.565" x2="-1.832" y2="-0.465" style="stroke:rgb(246,147,147);stroke-width:0.01" />
<line x1="-1.68174" y1="-0.552435" x2="-1.66796" y2="-0.529045" style="stroke:rgb(246,147,147);stroke-width:0.01" />
<line x1="-1.832" y1="-0.565" x2="-1.732" y2="-0.465" style="stroke:rgb(246,147,147);stroke-width:0.01" />
<line x1="-2.52783" y1="-0.565" x2="-2.522" y2="-0.545" style="stroke:rgb(246,147,147);stroke-width:0.01" />
<line x1="-2.564" y1="-0.489" x2="-2.557" y2="-0.465" style="stroke:rgb(246,147,147);stroke-width:0.01" />
<line x1="-1.932" y1="-0.565" x2="-1.832" y2="-0.465" style="stroke:rgb(246,147,147);stroke-width:0.01" />
<line x1="-2.312" y1="-0.625" x2="-2.09867" y2="-0.465" style="stroke:rgb(246,147,147);stroke-width:0.01" />
<line x1="-2.39829" y1="-0.931292" x2="-1.932" y2="-0.465" style="stroke:rgb(246,147,147);stroke-width:0.01" />
<line x1="-2.43537" y1="-0.868371" x2="-2.032" y2="-0.465" style="stroke:rgb(246,147,147);stroke-width:0.01" />
<line x1="-2.702" y1="-0.552273" x2="-2.59376" y2="-0.465" style="stroke:rgb(246,147,147);stroke-width:0.01" />
<line x1="-2.507" y1="-0.565" x2="-2.432" y2="-0.465" style="stroke:rgb(246,147,147);stroke-width:0.01" />
<line x1="-2.86585" y1="-0.655769" x2="-2.75343" y2="-0.465" style="stroke:rgb(246,147,147);stroke-width:0.01" />
</g>
</svg>
