<svg xmlns="http://www.w3.org/2000/svg" viewBox="-1.5 -1.5 3 3">
<g transform="scale(1, -1)">
<path d="M-0.374878 -0.355570 L-0.008586 0.010722 L0.191414 0.010722 L0.237568 0.056876 L0.246969 0.055166 L0.291414 0.010722 L0.341675 0.023287 L0.355459 0.046677 L0.291414 0.110722 L-0.730015 0.110722 L-0.842432 -0.080047 z " fill="rgb(245,195,195)" />
<path d="M2.023414 0.575722 L3.023414 0.575722 L3.023414 1.575722 L2.023414 1.575722  z" fill="none" stroke="rgb(128,128,128)" stroke-width="0.01" />
<line x1="-0.374878" y1="-0.35557" x2="-0.842432" y2="-0.0800472" style="stroke:rgb(246,147,147);stroke-width:0.01" />
<line x1="-0.349036" y1="-0.329727" x2="-0.411957" y2="-0.292649" style="stroke:rgb(246,147,147);stroke-width:0.01" />
<line x1="-0.540586" y1="0.0867221" x2="-0.570351" y2="0.110722" style="stroke:rgb(246,147,147);stroke-width:0.01" />
<line x1="-0.483586" y1="0.0107221" x2="-0.498586" y2="0.0307221" style="stroke:rgb(246,147,147);stroke-width:0.01" />
<line x1="-0.288586" y1="-0.0492779" x2="-0.408586" y2="0.110722" style="stroke:rgb(246,147,147);stroke-width:0.01" />
<line x1="-0.678586" y1="0.0234493" x2="-0.730015" y2="0.110722" style="stroke:rgb(246,147,147);stroke-width:0.01" />
<line x1="0.0580804" y1="0.0107221" x2="-0.075253" y2="0.110722" style="stroke:rgb(246,147,147);stroke-width:0.01" />
<line x1="-0.374878" y1="-0.35557" x2="-0.411957" y2="-0.292649" style="stroke:rgb(246,147,147);stroke-width:0.01" />
<line x1="-0.349036" y1="-0.329727" x2="-0.494793" y2="-0.0823814" style="stroke:rgb(246,147,147);stroke-width:0.01" />
<line x1="0.0914137" y1="0.0107221" x2="-0.0085863" y2="0.110722" style="stroke:rgb(246,147,147);stroke-width:0.01" />
<line x1="0.0914137" y1="0.0107221" x2="-0.108586" y2="0.110722" style="stroke:rgb(246,147,147);stroke-width:0.01" />
<line x1="0.191414" y1="0.0107221" x2="0.0914137" y2="0.110722" style="stroke:rgb(246,147,147);stroke-width:0.01" />
<line x1="0.271414" y1="0.0507221" x2="0.191414" y2="0.110722" style="stroke:rgb(246,147,147);stroke-width:0.01" />
<line x1="0.341675" y1="0.0232875" x2="0.302517" y2="0.0472059" style="stroke:rgb(246,147,147);stroke-width:0.01" />
<line x1="0.291414" y1="0.0107221" x2="0.191414" y2="0.110722" style="stroke:rgb(246,147,147);stroke-width:0.01" />
<line x1="-0.145623" y1="0.0107221" x2="-0.464142" y2="0.110722" style="stroke:rgb(246,147,147);stroke-width:0.01" />
<line x1="0.134271" y1="0.0678649" x2="0.0314137" y2="0.110722" style="stroke:rgb(246,147,147);stroke-width:0.01" />
<line x1="0.355459" y1="0.0466771" x2="0.291414" y2="0.110722" style="stroke:rgb(246,147,147);stroke-width:0.01" />
<line x1="0.332092" y1="0.0208915" x2="0.308355" y2="0.0469573" style="stroke:rgb(246,147,147);stroke-width:0.01" />
<line x1="0.335531" y1="0.0342515" x2="0.308355" y2="0.0469573" style="stroke:rgb(246,147,147);stroke-width:0.01" />
<line x1="0.333519" y1="0.0265115" x2="0.260644" y2="0.0568759" style="stroke:rgb(246,147,147);stroke-width:0.01" />
<line x1="0.291414" y1="0.0607221" x2="0.205699" y2="0.0964363" style="stroke:rgb(246,147,147);stroke-width:0.01" />
<line x1="0.340887" y1="0.0380905" x2="0.319414" y2="0.0647221" style="stroke:rgb(246,147,147);stroke-width:0.01" />
<line x1="-0.608586" y1="0.0107221" x2="-0.678586" y2="0.0234493" style="stroke:rgb(246,147,147);stroke-width:0.01" />
<line x1="-0.485509" y1="-0.104663" x2="-0.494793" y2="-0.0823814" style="stroke:rgb(246,147,147);stroke-width:0.01" />
<line x1="0.319414" y1="0.0647221" x2="0.172895" y2="0.110722" style="stroke:rgb(246,147,147);stroke-width:0.01" />
<line x1="0.340887" y1="0.0380905" x2="-0.0585863" y2="0.110722" style="stroke:rgb(246,147,147);stroke-width:0.01" />
<line x1="0.335858" y1="0.0218332" x2="0.291414" y2="0.110722" style="stroke:rgb(246,147,147);stroke-width:0.01" />
<line x1="0.15808" y1="0.0107221" x2="0.134271" y2="0.0678649" style="stroke:rgb(246,147,147);stroke-width:0.01" />
<line x1="-0.50442" y1="0.0107221" x2="-0.533586" y2="0.110722" style="stroke:rgb(246,147,147);stroke-width:0.01" />
<line x1="0.205699" y1="0.0964363" x2="0.199747" y2="0.110722" style="stroke:rgb(246,147,147);stroke-width:0.01" />
<line x1="0.308355" y1="0.0469573" x2="0.302517" y2="0.0472059" style="stroke:rgb(246,147,147);stroke-width:0.01" />
<line x1="-0.608586" y1="0.0107221" x2="0.191414" y2="0.0107221" style="stroke:rgb(246,147,147);stroke-width:0.01" />
<line x1="-0.730015" y1="0.110722" x2="0.291414" y2="0.110722" style="stroke:rgb(246,147,147);stroke-width:0.01" />
<line x1="0.291414" y1="0.0107221" x2="0.341675" y2="0.0232875" style="stroke:rgb(246,147,147);stroke-width:0.01" />
<line x1="-0.608586" y1="0.0107221" x2="-0.0585863" y2="0.110722" style="stroke:rgb(246,147,147);stroke-width:0.01" />
<line x1="0.335858" y1="0.0218332" x2="0.335531" y2="0.0342515" style="stroke:rgb(246,147,147);stroke-width:0.01" />
<line x1="0.271414" y1="0.0507221" x2="0.319414" y2="0.0647221" style="stroke:rgb(246,147,147);stroke-width:0.01" />
<line x1="0.291414" y1="0.0107221" x2="0.291414" y2="0.0607221" style="stroke:rgb(246,147,147);stroke-width:0.01" />
<line x1="-0.145623" y1="0.0107221" x2="0.172895" y2="0.110722" style="stroke:rgb(246,147,147);stroke-width:0.01" />
<line x1="0.25612" y1="0.0460162" x2="0.291414" y2="0.0607221" style="stroke:rgb(246,147,147);stroke-width:0.01" />
<line x1="0.291414" y1="0.0107221" x2="0.335531" y2="0.0342515" style="stroke:rgb(246,147,147);stroke-width:0.01" />
<line x1="-0.540586" y1="0.0867221" x2="-0.464142" y2="0.110722" style="stroke:rgb(246,147,147);stroke-width:0.01" />
<line x1="-0.485509" y1="-0.104663" x2="0.0314137" y2="0.110722" style="stroke:rgb(246,147,147);stroke-width:0.01" />
<line x1="0.0914137" y1="0.0107221" x2="0.291414" y2="0.110722" style="stroke:rgb(246,147,147);stroke-width:0.01" />
<line x1="0.340887" y1="0.0380905" x2="0.355459" y2="0.0466771" style="stroke:rgb(246,147,147);stroke-width:0.01" />
<line x1="0.332092" y1="0.0208915" x2="0.333519" y2="0.0265115" style="stroke:rgb(246,147,147);stroke-width:0.01" />
<line x1="0.291414" y1="0.0107221" x2="0.302517" y2="0.0472059" style="stroke:rgb(246,147,147);stroke-width:0.01" />
<line x1="-0.494793" y1="-0.0823814" x2="-0.108586" y2="0.110722" style="stroke:rgb(246,147,147);stroke-width:0.01" />
<line x1="0.25612" y1="0.0460162" x2="0.260644" y2="0.0568759" style="stroke:rgb(246,147,147);stroke-width:0.01" />
<line x1="0.15808" y1="0.0107221" x2="0.199747" y2="0.110722" style="stroke:rgb(246,147,147);stroke-width:0.01" />
<line x1="0.0580804" y1="0.0107221" x2="0.191414" y2="0.110722" style="stroke:rgb(246,147,147);stroke-width:0.01" />
<line x1="0.341675" y1="0.0232875" x2="0.355459" y2="0.0466771" style="stroke:rgb(246,147,147);stroke-width:0.01" />
<line x1="0.191414" y1="0.0107221" x2="0.291414" y2="0.110722" style="stroke:rgb(246,147,147);stroke-width:0.01" />
<line x1="-0.50442" y1="0.0107221" x2="-0.498586" y2="0.0307221" style="stroke:rgb(246,147,147);stroke-width:0.01" />
<line x1="-0.540586" y1="0.0867221" x2="-0.533586" y2="0.110722" style="stroke:rgb(246,147,147);stroke-width:0.01" />
<line x1="0.0914137" y1="0.0107221" x2="0.191414" y2="0.110722" style="stroke:rgb(246,147,147);stroke-width:0.01" />
<line x1="-0.288586" y1="-0.0492779" x2="-0.075253" y2="0.110722" style="stroke:rgb(246,147,147);stroke-width:0.01" />
<line x1="-0.374878" y1="-0.35557" x2="0.0914137" y2="0.110722" style="stroke:rgb(246,147,147);stroke-width:0.01" />
<line x1="-0.411957" y1="-0.292649" x2="-0.0085863" y2="0.110722" style="stroke:rgb(246,147,147);stroke-width:0.01" />
<line x1="-0.678586" y1="0.0234493" x2="-0.570351" y2="0.110722" style="stroke:rgb(246,147,147);stroke-width:0.01" />
<line x1="-0.483586" y1="0.0107221" x2="-0.408586" y2="0.110722" style="stroke:rgb(246,147,147);stroke-width:0.01" />
<line x1="-0.842432" y1="-0.0800472" x2="-0.730015" y2="0.110722" style="stroke:rgb(246,147,147);stroke-width:0.01" />
</g>
</svg>
