<svg xmlns="http://www.w3.org/2000/svg" viewBox="-1.5 -1.5 3 3">
<g transform="scale(1, -1)">
<path d="M0.078854 -1.219283 L0.440180 -0.859005 L-0.104883 0.009676 L-0.244675 -0.039269 L-0.250110 -0.135129 L-0.627225 -0.511150 z " fill="rgb(245,195,195)" />
<path d="M0.000000 0.000000 L1.000000 0.000000 L1.000000 1.000000 L0.000000 1.000000  z" fill="none" stroke="rgb(128,128,128)" stroke-width="0.01" />
<line x1="-0.0220548" y1="-1.02085" x2="0.44018" y2="-0.859005" style="stroke:rgb(246,147,147);stroke-width:0.01" />
<line x1="0.0788538" y1="-1.21928" x2="0.44018" y2="-0.859005" style="stroke:rgb(246,147,147);stroke-width:0.01" />
<line x1="0.0788538" y1="-1.21928" x2="-0.627225" y2="-0.51115" style="stroke:rgb(246,147,147);stroke-width:0.01" />
<line x1="-0.141797" y1="-0.0889723" x2="-0.244675" y2="-0.0392687" style="stroke:rgb(246,147,147);stroke-width:0.01" />
<line x1="-0.0220548" y1="-1.02085" x2="-0.261547" y2="-0.336832" style="stroke:rgb(246,147,147);stroke-width:0.01" />
<line x1="0.44018" y1="-0.859005" x2="-0.104883" y2="0.00967615" style="stroke:rgb(246,147,147);stroke-width:0.01" />
<line x1="-0.261547" y1="-0.336832" x2="-0.244675" y2="-0.0392687" style="stroke:rgb(246,147,147);stroke-width:0.01" />
<line x1="-0.261547" y1="-0.336832" x2="-0.141797" y2="-0.0889723" style="stroke:rgb(246,147,147);stroke-width:0.01" />
<line x1="-0.244675" y1="-0.0392687" x2="-0.104883" y2="0.00967615" style="stroke:rgb(246,147,147);stroke-width:0.01" />
<line x1="-0.627225" y1="-0.51115" x2="-0.104883" y2="0.00967615" style="stroke:rgb(246,147,147);stroke-width:0.01" />
</g>
</svg>
