<svg xmlns="http://www.w3.org/2000/svg" viewBox="-1.5 -1.5 3 3">
<g transform="scale(1, -1)">
<path d="M-0.436635 -0.653464 L0.063365 -0.653464 L0.063365 -0.100273 L0.254542 0.111241 L0.115268 0.318854 L0.063365 0.284036 L0.063365 0.346536 L-0.186635 0.346536 z " fill="rgb(245,195,195)" />
<path d="M-0.936635 -0.653464 L0.063365 -0.653464 L0.063365 0.346536 L-0.936635 0.346536  z" fill="none" stroke="rgb(128,128,128)" stroke-width="0.01" />
<line x1="-0.436635" y1="-0.653464" x2="0.254542" y2="0.111241" style="stroke:rgb(246,147,147);stroke-width:0.01" />
<line x1="-0.436635" y1="-0.653464" x2="0.00454152" y2="-0.41817" style="stroke:rgb(246,147,147);stroke-width:0.01" />
<line x1="-0.436635" y1="-0.653464" x2="-0.186635" y2="0.346536" style="stroke:rgb(246,147,147);stroke-width:0.01" />
<line x1="-0.436635" y1="-0.653464" x2="0.0633651" y2="-0.653464" style="stroke:rgb(246,147,147);stroke-width:0.01" />
<line x1="0.0633651" y1="-0.653464" x2="0.0633651" y2="0.346536" style="stroke:rgb(246,147,147);stroke-width:0.01" />
<line x1="-0.255784" y1="0.0699398" x2="0.115268" y2="0.318854" style="stroke:rgb(246,147,147);stroke-width:0.01" />
<line x1="0.00454152" y1="-0.41817" x2="-0.255784" y2="0.0699398" style="stroke:rgb(246,147,147);stroke-width:0.01" />
<line x1="0.254542" y1="0.111241" x2="0.115268" y2="0.318854" style="stroke:rgb(246,147,147);stroke-width:0.01" />
<line x1="-0.186635" y1="0.346536" x2="0.0633651" y2="0.346536" style="stroke:rgb(246,147,147);stroke-width:0.01" />
<line x1="0.254542" y1="0.111241" x2="-0.186635" y2="0.346536" style="stroke:rgb(246,147,147);stroke-width:0.01" />
</g>
</svg>
