<svg xmlns="http://www.w3.org/2000/svg" viewBox="-1.5 -1.5 3 3">
<g transform="scale(1, -1)">
<path d="M0.750000 0.666667 L1.055556 0.666667 L1.108108 0.684685 L1.000000 1.000000 L0.750000 1.000000 z " fill="rgb(245,195,195)" />
<path d="M0.000000 0.000000 L1.000000 0.000000 L1.000000 1.000000 L0.000000 1.000000  z" fill="none" stroke="rgb(128,128,128)" stroke-width="0.01" />
<line x1="1.05342" y1="0.666667" x2="1.05387" y2="0.667244" style="stroke:rgb(246,147,147);stroke-width:0.01" />
<line x1="0.997419" y1="0.666667" x2="1.02542" y2="0.702703" style="stroke:rgb(246,147,147);stroke-width:0.01" />
<line x1="1.0899" y1="0.678441" x2="1.09858" y2="0.712484" style="stroke:rgb(246,147,147);stroke-width:0.01" />
<line x1="0.885714" y1="0.666667" x2="1" y2="1" style="stroke:rgb(246,147,147);stroke-width:0.01" />
<line x1="1.05556" y1="0.666667" x2="1.10193" y2="0.702703" style="stroke:rgb(246,147,147);stroke-width:0.01" />
<line x1="1.0123" y1="0.666667" x2="1.05868" y2="0.702703" style="stroke:rgb(246,147,147);stroke-width:0.01" />
<line x1="0.75" y1="0.666667" x2="0.75" y2="1" style="stroke:rgb(246,147,147);stroke-width:0.01" />
<line x1="0.855186" y1="0.666667" x2="0.855186" y2="0.724" style="stroke:rgb(246,147,147);stroke-width:0.01" />
<line x1="1.03378" y1="0.666667" x2="1.03378" y2="0.868726" style="stroke:rgb(246,147,147);stroke-width:0.01" />
<line x1="1.05387" y1="0.666667" x2="1.05387" y2="0.842875" style="stroke:rgb(246,147,147);stroke-width:0.01" />
<line x1="0.75" y1="0.805735" x2="1" y2="1" style="stroke:rgb(246,147,147);stroke-width:0.01" />
<line x1="0.75" y1="0.983349" x2="0.771429" y2="1" style="stroke:rgb(246,147,147);stroke-width:0.01" />
<line x1="1.05556" y1="0.666667" x2="1.10811" y2="0.684685" style="stroke:rgb(246,147,147);stroke-width:0.01" />
<line x1="0.885714" y1="0.666667" x2="0.771429" y2="1" style="stroke:rgb(246,147,147);stroke-width:0.01" />
<line x1="1.10811" y1="0.684685" x2="1" y2="1" style="stroke:rgb(246,147,147);stroke-width:0.01" />
<line x1="0.869716" y1="0.666667" x2="0.976304" y2="0.693838" style="stroke:rgb(246,147,147);stroke-width:0.01" />
<line x1="0.75" y1="0.771429" x2="1.03378" y2="0.868726" style="stroke:rgb(246,147,147);stroke-width:0.01" />
<line x1="0.75" y1="0.697185" x2="0.855186" y2="0.724" style="stroke:rgb(246,147,147);stroke-width:0.01" />
<line x1="0.75" y1="0.666667" x2="1.05556" y2="0.666667" style="stroke:rgb(246,147,147);stroke-width:0.01" />
<line x1="0.75" y1="0.693207" x2="0.978147" y2="0.693207" style="stroke:rgb(246,147,147);stroke-width:0.01" />
<line x1="0.75" y1="0.702703" x2="1.10193" y2="0.702703" style="stroke:rgb(246,147,147);stroke-width:0.01" />
<line x1="0.997419" y1="0.666667" x2="0.976304" y2="0.693838" style="stroke:rgb(246,147,147);stroke-width:0.01" />
<line x1="1.05342" y1="0.666667" x2="1.02542" y2="0.702703" style="stroke:rgb(246,147,147);stroke-width:0.01" />
<line x1="1.05387" y1="0.842875" x2="1.03378" y2="0.868726" style="stroke:rgb(246,147,147);stroke-width:0.01" />
<line x1="0.869716" y1="0.666667" x2="0.75" y2="0.697185" style="stroke:rgb(246,147,147);stroke-width:0.01" />
<line x1="0.855186" y1="0.724" x2="0.75" y2="0.805735" style="stroke:rgb(246,147,147);stroke-width:0.01" />
<line x1="1.0123" y1="0.666667" x2="0.978147" y2="0.693207" style="stroke:rgb(246,147,147);stroke-width:0.01" />
<line x1="1.05556" y1="0.666667" x2="0.75" y2="0.771429" style="stroke:rgb(246,147,147);stroke-width:0.01" />
<line x1="1.0899" y1="0.678441" x2="1.05868" y2="0.702703" style="stroke:rgb(246,147,147);stroke-width:0.01" />
<line x1="1.09858" y1="0.712484" x2="0.75" y2="0.983349" style="stroke:rgb(246,147,147);stroke-width:0.01" />
<line x1="0.75" y1="1" x2="1" y2="1" style="stroke:rgb(246,147,147);stroke-width:0.01" />
</g>
</svg>
