<svg xmlns="http://www.w3.org/2000/svg" viewBox="-1.5 -1.5 3 3">
<g transform="scale(1, -1)">
<path d="M-0.182733 -0.136937 L0.122823 -0.136937 L0.175375 -0.118919 L0.067267 0.196396 L-0.182733 0.196396 z " fill="rgb(245,195,195)" />
<path d="M-0.932733 -0.803604 L0.067267 -0.803604 L0.067267 0.196396 L-0.932733 0.196396  z" fill="none" stroke="rgb(128,128,128)" stroke-width="0.01" />
<line x1="0.12069" y1="-0.136937" x2="0.121139" y2="-0.13636" style="stroke:rgb(246,147,147);stroke-width:0.01" />
<line x1="0.0646858" y1="-0.136937" x2="0.0926879" y2="-0.100901" style="stroke:rgb(246,147,147);stroke-width:0.01" />
<line x1="0.157166" y1="-0.125162" x2="0.165844" y2="-0.0911194" style="stroke:rgb(246,147,147);stroke-width:0.01" />
<line x1="-0.0470184" y1="-0.136937" x2="0.0672673" y2="0.196396" style="stroke:rgb(246,147,147);stroke-width:0.01" />
<line x1="0.122823" y1="-0.136937" x2="0.169198" y2="-0.100901" style="stroke:rgb(246,147,147);stroke-width:0.01" />
<line x1="0.0795689" y1="-0.136937" x2="0.125944" y2="-0.100901" style="stroke:rgb(246,147,147);stroke-width:0.01" />
<line x1="-0.182733" y1="-0.136937" x2="-0.182733" y2="0.196396" style="stroke:rgb(246,147,147);stroke-width:0.01" />
<line x1="-0.0775465" y1="-0.136937" x2="-0.0775465" y2="-0.079604" style="stroke:rgb(246,147,147);stroke-width:0.01" />
<line x1="0.101051" y1="-0.136937" x2="0.101051" y2="0.0651223" style="stroke:rgb(246,147,147);stroke-width:0.01" />
<line x1="0.121139" y1="-0.136937" x2="0.121139" y2="0.0392714" style="stroke:rgb(246,147,147);stroke-width:0.01" />
<line x1="-0.182733" y1="0.00213183" x2="0.0672673" y2="0.196396" style="stroke:rgb(246,147,147);stroke-width:0.01" />
<line x1="-0.182733" y1="0.179745" x2="-0.161304" y2="0.196396" style="stroke:rgb(246,147,147);stroke-width:0.01" />
<line x1="0.122823" y1="-0.136937" x2="0.175375" y2="-0.118919" style="stroke:rgb(246,147,147);stroke-width:0.01" />
<line x1="-0.0470184" y1="-0.136937" x2="-0.161304" y2="0.196396" style="stroke:rgb(246,147,147);stroke-width:0.01" />
<line x1="0.175375" y1="-0.118919" x2="0.0672673" y2="0.196396" style="stroke:rgb(246,147,147);stroke-width:0.01" />
<line x1="-0.0630164" y1="-0.136937" x2="0.0435718" y2="-0.109765" style="stroke:rgb(246,147,147);stroke-width:0.01" />
<line x1="-0.182733" y1="-0.032175" x2="0.101051" y2="0.0651223" style="stroke:rgb(246,147,147);stroke-width:0.01" />
<line x1="-0.182733" y1="-0.106418" x2="-0.0775465" y2="-0.079604" style="stroke:rgb(246,147,147);stroke-width:0.01" />
<line x1="-0.182733" y1="-0.136937" x2="0.122823" y2="-0.136937" style="stroke:rgb(246,147,147);stroke-width:0.01" />
<line x1="-0.182733" y1="-0.110397" x2="0.0454143" y2="-0.110397" style="stroke:rgb(246,147,147);stroke-width:0.01" />
<line x1="-0.182733" y1="-0.100901" x2="0.169198" y2="-0.100901" style="stroke:rgb(246,147,147);stroke-width:0.01" />
<line x1="0.0646858" y1="-0.136937" x2="0.0435718" y2="-0.109765" style="stroke:rgb(246,147,147);stroke-width:0.01" />
<line x1="0.12069" y1="-0.136937" x2="0.0926879" y2="-0.100901" style="stroke:rgb(246,147,147);stroke-width:0.01" />
<line x1="0.121139" y1="0.0392714" x2="0.101051" y2="0.0651223" style="stroke:rgb(246,147,147);stroke-width:0.01" />
<line x1="-0.0630164" y1="-0.136937" x2="-0.182733" y2="-0.106418" style="stroke:rgb(246,147,147);stroke-width:0.01" />
<line x1="-0.0775465" y1="-0.079604" x2="-0.182733" y2="0.00213183" style="stroke:rgb(246,147,147);stroke-width:0.01" />
<line x1="0.0795689" y1="-0.136937" x2="0.0454143" y2="-0.110397" style="stroke:rgb(246,147,147);stroke-width:0.01" />
<line x1="0.122823" y1="-0.136937" x2="-0.182733" y2="-0.032175" style="stroke:rgb(246,147,147);stroke-width:0.01" />
<line x1="0.157166" y1="-0.125162" x2="0.125944" y2="-0.100901" style="stroke:rgb(246,147,147);stroke-width:0.01" />
<line x1="0.165844" y1="-0.0911194" x2="-0.182733" y2="0.179745" style="stroke:rgb(246,147,147);stroke-width:0.01" />
<line x1="-0.182733" y1="0.196396" x2="0.0672673" y2="0.196396" style="stroke:rgb(246,147,147);stroke-width:0.01" />
</g>
</svg>
