<svg xmlns="http://www.w3.org/2000/svg" viewBox="-1.5 -1.5 3 3">
<g transform="scale(1, -1)">
<path d="M1.000000 0.016523 L1.006551 0.028993 L1.000000 0.032462 L1.000000 0.376452 L1.003227 0.376949 L1.000000 0.447754 L-0.044038 0.423974 L-0.079516 0.261028 L0.004141 0.242813 L0.009163 0.223927 L0.057036 0.231296 L0.673123 0.097156 z " fill="rgb(245,195,195)" />
<path d="M0.000000 0.000000 L1.000000 0.000000 L1.000000 1.000000 L0.000000 1.000000  z" fill="none" stroke="rgb(128,128,128)" stroke-width="0.01" />
<line x1="1.0054" y1="0.0268431" x2="1.00655" y2="0.0289933" style="stroke:rgb(246,147,147);stroke-width:0.01" />
<line x1="1" y1="0.0165233" x2="1.00655" y2="0.0289933" style="stroke:rgb(246,147,147);stroke-width:0.01" />
<line x1="0.897591" y1="0.0482828" x2="0.984491" y2="0.4474" style="stroke:rgb(246,147,147);stroke-width:0.01" />
<line x1="0" y1="0.2632" x2="0" y2="0.424977" style="stroke:rgb(246,147,147);stroke-width:0.01" />
<line x1="1" y1="0.0165233" x2="1" y2="0.447754" style="stroke:rgb(246,147,147);stroke-width:0.01" />
<line x1="0.00916321" y1="0.223927" x2="0" y2="0.424977" style="stroke:rgb(246,147,147);stroke-width:0.01" />
<line x1="0.00916321" y1="0.223927" x2="-0.0440383" y2="0.423974" style="stroke:rgb(246,147,147);stroke-width:0.01" />
<line x1="-0.0795164" y1="0.261028" x2="-0.0440383" y2="0.423974" style="stroke:rgb(246,147,147);stroke-width:0.01" />
<line x1="1.00323" y1="0.376949" x2="1" y2="0.447754" style="stroke:rgb(246,147,147);stroke-width:0.01" />
<line x1="0" y1="0.2632" x2="0.0860137" y2="0.426936" style="stroke:rgb(246,147,147);stroke-width:0.01" />
<line x1="0.126033" y1="0.359696" x2="0.125771" y2="0.360232" style="stroke:rgb(246,147,147);stroke-width:0.01" />
<line x1="0.125194" y1="0.359949" x2="0.0860137" y2="0.426936" style="stroke:rgb(246,147,147);stroke-width:0.01" />
<line x1="0.126033" y1="0.359696" x2="0.247273" y2="0.430609" style="stroke:rgb(246,147,147);stroke-width:0.01" />
<line x1="0.00916321" y1="0.223927" x2="1.00323" y2="0.376949" style="stroke:rgb(246,147,147);stroke-width:0.01" />
<line x1="0.897591" y1="0.0482828" x2="-0.0795164" y2="0.261028" style="stroke:rgb(246,147,147);stroke-width:0.01" />
<line x1="0.125194" y1="0.359949" x2="0.125771" y2="0.360232" style="stroke:rgb(246,147,147);stroke-width:0.01" />
<line x1="1" y1="0.0165233" x2="0" y2="0.2632" style="stroke:rgb(246,147,147);stroke-width:0.01" />
<line x1="1.00323" y1="0.376949" x2="0.984491" y2="0.4474" style="stroke:rgb(246,147,147);stroke-width:0.01" />
<line x1="0.126033" y1="0.359696" x2="0.125194" y2="0.359949" style="stroke:rgb(246,147,147);stroke-width:0.01" />
<line x1="-0.0440383" y1="0.423974" x2="1" y2="0.447754" style="stroke:rgb(246,147,147);stroke-width:0.01" />
<line x1="1.0054" y1="0.0268431" x2="0.361797" y2="0.370447" style="stroke:rgb(246,147,147);stroke-width:0.01" />
<line x1="1.00655" y1="0.0289933" x2="0.361797" y2="0.370447" style="stroke:rgb(246,147,147);stroke-width:0.01" />
<line x1="0.361797" y1="0.370447" x2="0.247273" y2="0.430609" style="stroke:rgb(246,147,147);stroke-width:0.01" />
</g>
</svg>
