<svg xmlns="http://www.w3.org/2000/svg" viewBox="-1.5 -1.5 3 3">
<g transform="scale(1, -1)">
<path d="M0.375960 -0.253596 L0.390255 -0.204584 L0.107864 0.403062 L-0.423826 0.155969 L-0.440232 0.099719 L-0.020232 -0.022781 L-0.005749 -0.029195 L0.015960 -0.148596 z " fill="rgb(245,195,195)" />
<path d="M-0.684040 -0.573596 L0.315960 -0.573596 L0.315960 0.426404 L-0.684040 0.426404  z" fill="none" stroke="rgb(128,128,128)" stroke-width="0.01" />
<line x1="0.338792" y1="-0.173618" x2="0.356882" y2="-0.132772" style="stroke:rgb(246,147,147);stroke-width:0.01" />
<line x1="0.37596" y1="-0.253596" x2="0.390255" y2="-0.204584" style="stroke:rgb(246,147,147);stroke-width:0.01" />
<line x1="0.299768" y1="-0.220281" x2="0.372277" y2="-0.165899" style="stroke:rgb(246,147,147);stroke-width:0.01" />
<line x1="0.0159601" y1="-0.148596" x2="0.27422" y2="0.0450992" style="stroke:rgb(246,147,147);stroke-width:0.01" />
<line x1="-0.440232" y1="0.0997195" x2="-0.423826" y2="0.155969" style="stroke:rgb(246,147,147);stroke-width:0.01" />
<line x1="0.0159601" y1="-0.148596" x2="-0.069366" y2="0.320698" style="stroke:rgb(246,147,147);stroke-width:0.01" />
<line x1="0.338792" y1="-0.173618" x2="0.372277" y2="-0.165899" style="stroke:rgb(246,147,147);stroke-width:0.01" />
<line x1="-0.0202322" y1="-0.0227805" x2="-0.0965062" y2="0.308085" style="stroke:rgb(246,147,147);stroke-width:0.01" />
<line x1="-0.0202322" y1="-0.0227805" x2="0.27422" y2="0.0450992" style="stroke:rgb(246,147,147);stroke-width:0.01" />
<line x1="0.390255" y1="-0.204584" x2="0.107864" y2="0.403062" style="stroke:rgb(246,147,147);stroke-width:0.01" />
<line x1="-0.423826" y1="0.155969" x2="0.107864" y2="0.403062" style="stroke:rgb(246,147,147);stroke-width:0.01" />
<line x1="0.37596" y1="-0.253596" x2="0.0159601" y2="-0.148596" style="stroke:rgb(246,147,147);stroke-width:0.01" />
<line x1="0.299768" y1="-0.220281" x2="-0.0965062" y2="0.308085" style="stroke:rgb(246,147,147);stroke-width:0.01" />
<line x1="0.338792" y1="-0.173618" x2="-0.069366" y2="0.320698" style="stroke:rgb(246,147,147);stroke-width:0.01" />
<line x1="0.356882" y1="-0.132772" x2="-0.440232" y2="0.0997195" style="stroke:rgb(246,147,147);stroke-width:0.01" />
<line x1="0.390255" y1="-0.204584" x2="-0.423826" y2="0.155969" style="stroke:rgb(246,147,147);stroke-width:0.01" />
</g>
</svg>
