<svg xmlns="http://www.w3.org/2000/svg" viewBox="-1.5 -1.5 3 3">
<g transform="scale(1, -1)">
<path d="M0.366602 -0.356356 L0.384050 0.356112 L-0.117201 0.377016 L-0.119338 0.326959 L-0.117976 0.326892 L-0.136766 -0.342220 L-0.129648 -0.342420 L-0.129723 -0.345983 z " fill="rgb(245,195,195)" />
<path d="M-0.116557 0.302353 L0.883443 0.302353 L0.883443 1.302353 L-0.116557 1.302353  z" fill="none" stroke="rgb(128,128,128)" stroke-width="0.01" />
<line x1="0.366602" y1="-0.356356" x2="-0.129723" y2="-0.345983" style="stroke:rgb(246,147,147);stroke-width:0.01" />
<line x1="0.366602" y1="-0.356356" x2="-0.136766" y2="-0.34222" style="stroke:rgb(246,147,147);stroke-width:0.01" />
<line x1="0.366602" y1="-0.356356" x2="0.38405" y2="0.356112" style="stroke:rgb(246,147,147);stroke-width:0.01" />
<line x1="-0.115526" y1="0.302353" x2="-0.114378" y2="0.359746" style="stroke:rgb(246,147,147);stroke-width:0.01" />
<line x1="-0.114327" y1="0.350343" x2="-0.114249" y2="0.359745" style="stroke:rgb(246,147,147);stroke-width:0.01" />
<line x1="-0.114612" y1="0.302353" x2="-0.114249" y2="0.359745" style="stroke:rgb(246,147,147);stroke-width:0.01" />
<line x1="-0.129723" y1="-0.345983" x2="-0.114974" y2="0.35975" style="stroke:rgb(246,147,147);stroke-width:0.01" />
<line x1="-0.115201" y1="0.373381" x2="-0.11515" y2="0.376931" style="stroke:rgb(246,147,147);stroke-width:0.01" />
<line x1="-0.114927" y1="0.372586" x2="-0.114915" y2="0.376921" style="stroke:rgb(246,147,147);stroke-width:0.01" />
<line x1="-0.114927" y1="0.372586" x2="-0.114828" y2="0.376917" style="stroke:rgb(246,147,147);stroke-width:0.01" />
<line x1="-0.116557" y1="0.302353" x2="0.382734" y2="0.302353" style="stroke:rgb(246,147,147);stroke-width:0.01" />
<line x1="-0.116557" y1="0.302353" x2="-0.116557" y2="0.353903" style="stroke:rgb(246,147,147);stroke-width:0.01" />
<line x1="-0.114612" y1="0.302353" x2="-0.114974" y2="0.35975" style="stroke:rgb(246,147,147);stroke-width:0.01" />
<line x1="-0.114327" y1="0.350343" x2="-0.114378" y2="0.359746" style="stroke:rgb(246,147,147);stroke-width:0.01" />
<line x1="-0.115526" y1="0.302353" x2="-0.116557" y2="0.353903" style="stroke:rgb(246,147,147);stroke-width:0.01" />
<line x1="-0.115044" y1="0.373374" x2="-0.114922" y2="0.376921" style="stroke:rgb(246,147,147);stroke-width:0.01" />
<line x1="-0.136766" y1="-0.34222" x2="-0.116569" y2="0.37699" style="stroke:rgb(246,147,147);stroke-width:0.01" />
<line x1="-0.118605" y1="0.326923" x2="-0.117153" y2="0.377014" style="stroke:rgb(246,147,147);stroke-width:0.01" />
<line x1="-0.117375" y1="0.326863" x2="-0.114922" y2="0.376921" style="stroke:rgb(246,147,147);stroke-width:0.01" />
<line x1="-0.117345" y1="0.373483" x2="-0.117201" y2="0.377016" style="stroke:rgb(246,147,147);stroke-width:0.01" />
<line x1="-0.119338" y1="0.326959" x2="-0.117201" y2="0.377016" style="stroke:rgb(246,147,147);stroke-width:0.01" />
<line x1="-0.115044" y1="0.373374" x2="-0.114828" y2="0.376917" style="stroke:rgb(246,147,147);stroke-width:0.01" />
<line x1="-0.119338" y1="0.326959" x2="-0.116569" y2="0.37699" style="stroke:rgb(246,147,147);stroke-width:0.01" />
<line x1="-0.117345" y1="0.373483" x2="-0.117153" y2="0.377014" style="stroke:rgb(246,147,147);stroke-width:0.01" />
<line x1="-0.118605" y1="0.326923" x2="-0.11515" y2="0.376931" style="stroke:rgb(246,147,147);stroke-width:0.01" />
<line x1="-0.115201" y1="0.373381" x2="-0.114915" y2="0.376921" style="stroke:rgb(246,147,147);stroke-width:0.01" />
<line x1="0.382734" y1="0.302353" x2="-0.119338" y2="0.326959" style="stroke:rgb(246,147,147);stroke-width:0.01" />
<line x1="0.383892" y1="0.349633" x2="-0.114327" y2="0.350343" style="stroke:rgb(246,147,147);stroke-width:0.01" />
<line x1="-0.116557" y1="0.353903" x2="0.222294" y2="0.357291" style="stroke:rgb(246,147,147);stroke-width:0.01" />
<line x1="0.38405" y1="0.356112" x2="-0.114974" y2="0.35975" style="stroke:rgb(246,147,147);stroke-width:0.01" />
<line x1="0.383982" y1="0.353316" x2="0.22497" y2="0.357195" style="stroke:rgb(246,147,147);stroke-width:0.01" />
<line x1="0.383982" y1="0.353316" x2="0.222294" y2="0.357291" style="stroke:rgb(246,147,147);stroke-width:0.01" />
<line x1="0.0343265" y1="0.370697" x2="-0.114927" y2="0.372586" style="stroke:rgb(246,147,147);stroke-width:0.01" />
<line x1="0.383892" y1="0.349633" x2="-0.117345" y2="0.373483" style="stroke:rgb(246,147,147);stroke-width:0.01" />
<line x1="0.38405" y1="0.356112" x2="-0.117201" y2="0.377016" style="stroke:rgb(246,147,147);stroke-width:0.01" />
<line x1="0.22497" y1="0.357195" x2="0.0343265" y2="0.370697" style="stroke:rgb(246,147,147);stroke-width:0.01" />
</g>
</svg>
