<svg xmlns="http://www.w3.org/2000/svg" viewBox="-1.5 -1.5 3 3">
<g transform="scale(1, -1)">
<path d="M0.483159 -0.658709 L0.500607 0.053759 L-0.000645 0.074663 L-0.002781 0.024606 L-0.001419 0.024539 L-0.020209 -0.644573 L-0.013091 -0.644773 L-0.013166 -0.648336 z " fill="rgb(245,195,195)" />
<path d="M0.000000 0.000000 L1.000000 0.000000 L1.000000 1.000000 L0.000000 1.000000  z" fill="none" stroke="rgb(128,128,128)" stroke-width="0.01" />
<line x1="0.483159" y1="-0.658709" x2="-0.0131659" y2="-0.648336" style="stroke:rgb(246,147,147);stroke-width:0.01" />
<line x1="0.483159" y1="-0.658709" x2="-0.0202089" y2="-0.644573" style="stroke:rgb(246,147,147);stroke-width:0.01" />
<line x1="0.483159" y1="-0.658709" x2="0.500607" y2="0.0537592" style="stroke:rgb(246,147,147);stroke-width:0.01" />
<line x1="0.0010311" y1="0" x2="0.00217908" y2="0.057393" style="stroke:rgb(246,147,147);stroke-width:0.01" />
<line x1="0.00223003" y1="0.0479897" x2="0.00230775" y2="0.057392" style="stroke:rgb(246,147,147);stroke-width:0.01" />
<line x1="0.00194532" y1="0" x2="0.00230775" y2="0.057392" style="stroke:rgb(246,147,147);stroke-width:0.01" />
<line x1="-0.0131659" y1="-0.648336" x2="0.00158285" y2="0.0573973" style="stroke:rgb(246,147,147);stroke-width:0.01" />
<line x1="0.00135561" y1="0.0710285" x2="0.00140669" y2="0.0745777" style="stroke:rgb(246,147,147);stroke-width:0.01" />
<line x1="0.00163036" y1="0.070233" x2="0.00164188" y2="0.0745679" style="stroke:rgb(246,147,147);stroke-width:0.01" />
<line x1="0.00163036" y1="0.070233" x2="0.00172851" y2="0.0745643" style="stroke:rgb(246,147,147);stroke-width:0.01" />
<line x1="0" y1="0" x2="0.499291" y2="0" style="stroke:rgb(246,147,147);stroke-width:0.01" />
<line x1="0" y1="0" x2="0" y2="0.05155" style="stroke:rgb(246,147,147);stroke-width:0.01" />
<line x1="0.00194532" y1="0" x2="0.00158285" y2="0.0573973" style="stroke:rgb(246,147,147);stroke-width:0.01" />
<line x1="0.00223003" y1="0.0479897" x2="0.00217908" y2="0.057393" style="stroke:rgb(246,147,147);stroke-width:0.01" />
<line x1="0.0010311" y1="0" x2="0" y2="0.05155" style="stroke:rgb(246,147,147);stroke-width:0.01" />
<line x1="0.00151315" y1="0.071021" x2="0.00163518" y2="0.0745682" style="stroke:rgb(246,147,147);stroke-width:0.01" />
<line x1="-0.0202089" y1="-0.644573" x2="-1.2262e-05" y2="0.0746369" style="stroke:rgb(246,147,147);stroke-width:0.01" />
<line x1="-0.00204777" y1="0.0245701" x2="-0.000596203" y2="0.0746613" style="stroke:rgb(246,147,147);stroke-width:0.01" />
<line x1="-0.000818127" y1="0.0245098" x2="0.00163518" y2="0.0745682" style="stroke:rgb(246,147,147);stroke-width:0.01" />
<line x1="-0.000788424" y1="0.0711305" x2="-0.000644547" y2="0.0746633" style="stroke:rgb(246,147,147);stroke-width:0.01" />
<line x1="-0.00278103" y1="0.024606" x2="-0.000644547" y2="0.0746633" style="stroke:rgb(246,147,147);stroke-width:0.01" />
<line x1="0.00151315" y1="0.071021" x2="0.00172851" y2="0.0745643" style="stroke:rgb(246,147,147);stroke-width:0.01" />
<line x1="-0.00278103" y1="0.024606" x2="-1.2262e-05" y2="0.0746369" style="stroke:rgb(246,147,147);stroke-width:0.01" />
<line x1="-0.000788424" y1="0.0711305" x2="-0.000596203" y2="0.0746613" style="stroke:rgb(246,147,147);stroke-width:0.01" />
<line x1="-0.00204777" y1="0.0245701" x2="0.00140669" y2="0.0745777" style="stroke:rgb(246,147,147);stroke-width:0.01" />
<line x1="0.00135561" y1="0.0710285" x2="0.00164188" y2="0.0745679" style="stroke:rgb(246,147,147);stroke-width:0.01" />
<line x1="0.499291" y1="0" x2="-0.00278103" y2="0.024606" style="stroke:rgb(246,147,147);stroke-width:0.01" />
<line x1="0.500449" y1="0.0472805" x2="0.00223003" y2="0.0479897" style="stroke:rgb(246,147,147);stroke-width:0.01" />
<line x1="0" y1="0.05155" x2="0.338851" y2="0.0549385" style="stroke:rgb(246,147,147);stroke-width:0.01" />
<line x1="0.500607" y1="0.0537592" x2="0.00158285" y2="0.0573973" style="stroke:rgb(246,147,147);stroke-width:0.01" />
<line x1="0.500539" y1="0.0509634" x2="0.341527" y2="0.0548424" style="stroke:rgb(246,147,147);stroke-width:0.01" />
<line x1="0.500539" y1="0.0509634" x2="0.338851" y2="0.0549385" style="stroke:rgb(246,147,147);stroke-width:0.01" />
<line x1="0.150883" y1="0.068344" x2="0.00163036" y2="0.070233" style="stroke:rgb(246,147,147);stroke-width:0.01" />
<line x1="0.500449" y1="0.0472805" x2="-0.000788424" y2="0.0711305" style="stroke:rgb(246,147,147);stroke-width:0.01" />
<line x1="0.500607" y1="0.0537592" x2="-0.000644547" y2="0.0746633" style="stroke:rgb(246,147,147);stroke-width:0.01" />
<line x1="0.341527" y1="0.0548424" x2="0.150883" y2="0.068344" style="stroke:rgb(246,147,147);stroke-width:0.01" />
</g>
</svg>
