<svg xmlns="http://www.w3.org/2000/svg" viewBox="-1.5 -1.5 3 3">
<g transform="scale(1, -1)">
<path d="M-0.113870 -0.713077 L0.316085 -0.549017 L0.071280 0.092546 L0.129444 0.265012 L0.027226 0.342804 L0.027714 0.345026 L-0.017794 0.380705 L-0.019581 0.378426 L-0.025820 0.383175 L-0.035009 0.371101 L-0.181260 -0.644622 L-0.178415 -0.652080 z " fill="rgb(245,195,195)" />
<path d="M-0.675443 -0.734988 L0.324557 -0.734988 L0.324557 0.265012 L-0.675443 0.265012  z" fill="none" stroke="rgb(128,128,128)" stroke-width="0.01" />
<line x1="-0.18126" y1="-0.644622" x2="-0.174193" y2="-0.635335" style="stroke:rgb(246,147,147);stroke-width:0.01" />
<line x1="-0.181072" y1="-0.643313" x2="-0.172446" y2="-0.630157" style="stroke:rgb(246,147,147);stroke-width:0.01" />
<line x1="-0.11387" y1="-0.713077" x2="0.316085" y2="-0.549017" style="stroke:rgb(246,147,147);stroke-width:0.01" />
<line x1="-0.11387" y1="-0.713077" x2="0.049783" y2="-0.198673" style="stroke:rgb(246,147,147);stroke-width:0.01" />
<line x1="-0.18007" y1="-0.636353" x2="-0.149591" y2="-0.562387" style="stroke:rgb(246,147,147);stroke-width:0.01" />
<line x1="-0.174193" y1="-0.635335" x2="0.129444" y2="0.265012" style="stroke:rgb(246,147,147);stroke-width:0.01" />
<line x1="-0.174193" y1="-0.595537" x2="0.0685902" y2="0.230055" style="stroke:rgb(246,147,147);stroke-width:0.01" />
<line x1="-0.149591" y1="-0.562387" x2="0.0702252" y2="0.265012" style="stroke:rgb(246,147,147);stroke-width:0.01" />
<line x1="-0.166019" y1="-0.538768" x2="0.0277137" y2="0.345026" style="stroke:rgb(246,147,147);stroke-width:0.01" />
<line x1="-0.18126" y1="-0.644622" x2="-0.0350091" y2="0.371101" style="stroke:rgb(246,147,147);stroke-width:0.01" />
<line x1="-0.172446" y1="-0.630157" x2="-0.166019" y2="-0.538768" style="stroke:rgb(246,147,147);stroke-width:0.01" />
<line x1="-0.174193" y1="-0.635335" x2="-0.174193" y2="-0.595537" style="stroke:rgb(246,147,147);stroke-width:0.01" />
<line x1="-0.178415" y1="-0.65208" x2="-0.18007" y2="-0.636353" style="stroke:rgb(246,147,147);stroke-width:0.01" />
<line x1="-0.0350091" y1="0.371101" x2="-0.0258205" y2="0.383175" style="stroke:rgb(246,147,147);stroke-width:0.01" />
<line x1="-0.037188" y1="0.355968" x2="-0.0177938" y2="0.380705" style="stroke:rgb(246,147,147);stroke-width:0.01" />
<line x1="-0.178415" y1="-0.65208" x2="-0.181072" y2="-0.643313" style="stroke:rgb(246,147,147);stroke-width:0.01" />
<line x1="-0.178415" y1="-0.65208" x2="-0.18126" y2="-0.644622" style="stroke:rgb(246,147,147);stroke-width:0.01" />
<line x1="-0.0796463" y1="0.0610935" x2="0.0417304" y2="0.157757" style="stroke:rgb(246,147,147);stroke-width:0.01" />
<line x1="-0.11387" y1="-0.713077" x2="-0.178415" y2="-0.65208" style="stroke:rgb(246,147,147);stroke-width:0.01" />
<line x1="0.316085" y1="-0.549017" x2="-0.0350091" y2="0.371101" style="stroke:rgb(246,147,147);stroke-width:0.01" />
<line x1="-0.099099" y1="-0.0740067" x2="-0.0101834" y2="-0.0378179" style="stroke:rgb(246,147,147);stroke-width:0.01" />
<line x1="0.0417304" y1="0.157757" x2="-0.037188" y2="0.355968" style="stroke:rgb(246,147,147);stroke-width:0.01" />
<line x1="-0.0101834" y1="-0.0378179" x2="-0.0796463" y2="0.0610935" style="stroke:rgb(246,147,147);stroke-width:0.01" />
<line x1="-0.109742" y1="-0.147922" x2="-0.00906853" y2="-0.145706" style="stroke:rgb(246,147,147);stroke-width:0.01" />
<line x1="-0.00906853" y1="-0.145706" x2="-0.099099" y2="-0.0740067" style="stroke:rgb(246,147,147);stroke-width:0.01" />
<line x1="0.049783" y1="-0.198673" x2="-0.109742" y2="-0.147922" style="stroke:rgb(246,147,147);stroke-width:0.01" />
<line x1="-0.041119" y1="0.328667" x2="0.0277137" y2="0.345026" style="stroke:rgb(246,147,147);stroke-width:0.01" />
<line x1="-0.0502845" y1="0.265012" x2="0.129444" y2="0.265012" style="stroke:rgb(246,147,147);stroke-width:0.01" />
<line x1="0.0277137" y1="0.345026" x2="-0.0177938" y2="0.380705" style="stroke:rgb(246,147,147);stroke-width:0.01" />
<line x1="0.129444" y1="0.265012" x2="-0.0258205" y2="0.383175" style="stroke:rgb(246,147,147);stroke-width:0.01" />
<line x1="0.0702252" y1="0.265012" x2="-0.041119" y2="0.328667" style="stroke:rgb(246,147,147);stroke-width:0.01" />
<line x1="0.0685902" y1="0.230055" x2="-0.0502845" y2="0.265012" style="stroke:rgb(246,147,147);stroke-width:0.01" />
</g>
</svg>
