<svg xmlns="http://www.w3.org/2000/svg" viewBox="-1.5 -1.5 3 3">
<g transform="scale(1, -1)">
<path d="M0.561573 0.021911 L0.991527 0.185970 L0.746723 0.827534 L0.804886 1.000000 L0.702669 1.077792 L0.703156 1.080014 L0.657649 1.115693 L0.655862 1.113414 L0.649622 1.118163 L0.640434 1.106089 L0.494182 0.090365 L0.497028 0.082908 z " fill="rgb(245,195,195)" />
<path d="M0.000000 0.000000 L1.000000 0.000000 L1.000000 1.000000 L0.000000 1.000000  z" fill="none" stroke="rgb(128,128,128)" stroke-width="0.01" />
<line x1="0.494182" y1="0.0903654" x2="0.50125" y2="0.0996522" style="stroke:rgb(246,147,147);stroke-width:0.01" />
<line x1="0.494371" y1="0.0916742" x2="0.502996" y2="0.104831" style="stroke:rgb(246,147,147);stroke-width:0.01" />
<line x1="0.561573" y1="0.0219107" x2="0.991527" y2="0.18597" style="stroke:rgb(246,147,147);stroke-width:0.01" />
<line x1="0.561573" y1="0.0219107" x2="0.725226" y2="0.536314" style="stroke:rgb(246,147,147);stroke-width:0.01" />
<line x1="0.495373" y1="0.0986342" x2="0.525851" y2="0.1726" style="stroke:rgb(246,147,147);stroke-width:0.01" />
<line x1="0.50125" y1="0.0996522" x2="0.804886" y2="1" style="stroke:rgb(246,147,147);stroke-width:0.01" />
<line x1="0.50125" y1="0.139451" x2="0.744033" y2="0.965042" style="stroke:rgb(246,147,147);stroke-width:0.01" />
<line x1="0.525851" y1="0.1726" x2="0.745668" y2="1" style="stroke:rgb(246,147,147);stroke-width:0.01" />
<line x1="0.509424" y1="0.196219" x2="0.703156" y2="1.08001" style="stroke:rgb(246,147,147);stroke-width:0.01" />
<line x1="0.494182" y1="0.0903654" x2="0.640434" y2="1.10609" style="stroke:rgb(246,147,147);stroke-width:0.01" />
<line x1="0.502996" y1="0.104831" x2="0.509424" y2="0.196219" style="stroke:rgb(246,147,147);stroke-width:0.01" />
<line x1="0.50125" y1="0.0996522" x2="0.50125" y2="0.139451" style="stroke:rgb(246,147,147);stroke-width:0.01" />
<line x1="0.497028" y1="0.082908" x2="0.495373" y2="0.0986342" style="stroke:rgb(246,147,147);stroke-width:0.01" />
<line x1="0.640434" y1="1.10609" x2="0.649622" y2="1.11816" style="stroke:rgb(246,147,147);stroke-width:0.01" />
<line x1="0.638255" y1="1.09096" x2="0.657649" y2="1.11569" style="stroke:rgb(246,147,147);stroke-width:0.01" />
<line x1="0.497028" y1="0.082908" x2="0.494371" y2="0.0916742" style="stroke:rgb(246,147,147);stroke-width:0.01" />
<line x1="0.497028" y1="0.082908" x2="0.494182" y2="0.0903654" style="stroke:rgb(246,147,147);stroke-width:0.01" />
<line x1="0.595796" y1="0.796081" x2="0.717173" y2="0.892745" style="stroke:rgb(246,147,147);stroke-width:0.01" />
<line x1="0.561573" y1="0.0219107" x2="0.497028" y2="0.082908" style="stroke:rgb(246,147,147);stroke-width:0.01" />
<line x1="0.991527" y1="0.18597" x2="0.640434" y2="1.10609" style="stroke:rgb(246,147,147);stroke-width:0.01" />
<line x1="0.576344" y1="0.660981" x2="0.665259" y2="0.69717" style="stroke:rgb(246,147,147);stroke-width:0.01" />
<line x1="0.717173" y1="0.892745" x2="0.638255" y2="1.09096" style="stroke:rgb(246,147,147);stroke-width:0.01" />
<line x1="0.665259" y1="0.69717" x2="0.595796" y2="0.796081" style="stroke:rgb(246,147,147);stroke-width:0.01" />
<line x1="0.565701" y1="0.587066" x2="0.666374" y2="0.589281" style="stroke:rgb(246,147,147);stroke-width:0.01" />
<line x1="0.666374" y1="0.589281" x2="0.576344" y2="0.660981" style="stroke:rgb(246,147,147);stroke-width:0.01" />
<line x1="0.725226" y1="0.536314" x2="0.565701" y2="0.587066" style="stroke:rgb(246,147,147);stroke-width:0.01" />
<line x1="0.634324" y1="1.06365" x2="0.703156" y2="1.08001" style="stroke:rgb(246,147,147);stroke-width:0.01" />
<line x1="0.625158" y1="1" x2="0.804886" y2="1" style="stroke:rgb(246,147,147);stroke-width:0.01" />
<line x1="0.703156" y1="1.08001" x2="0.657649" y2="1.11569" style="stroke:rgb(246,147,147);stroke-width:0.01" />
<line x1="0.804886" y1="1" x2="0.649622" y2="1.11816" style="stroke:rgb(246,147,147);stroke-width:0.01" />
<line x1="0.745668" y1="1" x2="0.634324" y2="1.06365" style="stroke:rgb(246,147,147);stroke-width:0.01" />
<line x1="0.744033" y1="0.965042" x2="0.625158" y2="1" style="stroke:rgb(246,147,147);stroke-width:0.01" />
</g>
</svg>
