<svg xmlns="http://www.w3.org/2000/svg" viewBox="-1.5 -1.5 3 3">
<g transform="scale(1, -1)">
<path d="M0.042511 -0.031843 L0.193524 -0.015222 L0.390581 -0.005604 L0.484720 -0.018488 L0.487571 -0.000870 L0.017520 0.524815 L0.000000 0.525348 L-0.003314 0.470961 L-0.012747 0.470212 L-0.008571 0.384663 L-0.028865 0.051574 L-0.021032 0.051097 L-0.021062 0.050733 L0.000000 0.047850 L0.000000 0.000000 L0.010204 0.000000 L0.011381 -0.024113 L0.041498 -0.022643 z " fill="rgb(245,195,195)" />
<path d="M0.000000 0.000000 L1.000000 0.000000 L1.000000 1.000000 L0.000000 1.000000  z" fill="none" stroke="rgb(128,128,128)" stroke-width="0.01" />
<line x1="0.465839" y1="-0.0159038" x2="0.472908" y2="0.0155275" style="stroke:rgb(246,147,147);stroke-width:0.01" />
<line x1="0.48472" y1="-0.0184879" x2="0.487571" y2="-0.000870064" style="stroke:rgb(246,147,147);stroke-width:0.01" />
<line x1="0.48472" y1="-0.0184879" x2="0.486793" y2="0" style="stroke:rgb(246,147,147);stroke-width:0.01" />
<line x1="0.0425107" y1="-0.0318433" x2="0.472908" y2="0.0155275" style="stroke:rgb(246,147,147);stroke-width:0.01" />
<line x1="0.0113808" y1="-0.0241127" x2="0.487571" y2="-0.000870064" style="stroke:rgb(246,147,147);stroke-width:0.01" />
<line x1="0.465839" y1="-0.0159038" x2="0.46773" y2="0.0213186" style="stroke:rgb(246,147,147);stroke-width:0.01" />
<line x1="0" y1="0" x2="0.486793" y2="0" style="stroke:rgb(246,147,147);stroke-width:0.01" />
<line x1="0" y1="0" x2="0" y2="0.525348" style="stroke:rgb(246,147,147);stroke-width:0.01" />
<line x1="0.0113808" y1="-0.0241127" x2="-0.0127469" y2="0.470212" style="stroke:rgb(246,147,147);stroke-width:0.01" />
<line x1="-0.0288651" y1="0.0515742" x2="0" y2="0.525348" style="stroke:rgb(246,147,147);stroke-width:0.01" />
<line x1="-0.0210618" y1="0.0507329" x2="0.01752" y2="0.524815" style="stroke:rgb(246,147,147);stroke-width:0.01" />
<line x1="0.0425107" y1="-0.0318433" x2="-0.0127469" y2="0.470212" style="stroke:rgb(246,147,147);stroke-width:0.01" />
<line x1="-0.0210618" y1="0.0507329" x2="0.0611034" y2="0.476073" style="stroke:rgb(246,147,147);stroke-width:0.01" />
<line x1="0.48472" y1="-0.0184879" x2="-0.0210618" y2="0.0507329" style="stroke:rgb(246,147,147);stroke-width:0.01" />
<line x1="0.46773" y1="0.0213186" x2="-0.0288651" y2="0.0515742" style="stroke:rgb(246,147,147);stroke-width:0.01" />
<line x1="0.487571" y1="-0.000870064" x2="0.01752" y2="0.524815" style="stroke:rgb(246,147,147);stroke-width:0.01" />
<line x1="-0.0127469" y1="0.470212" x2="0.0611034" y2="0.476073" style="stroke:rgb(246,147,147);stroke-width:0.01" />
<line x1="0.01752" y1="0.524815" x2="0" y2="0.525348" style="stroke:rgb(246,147,147);stroke-width:0.01" />
</g>
</svg>
