<svg xmlns="http://www.w3.org/2000/svg" viewBox="-1.5 -1.5 3 3">
<g transform="scale(1, -1)">
<path d="M0.468373 -0.037645 L0.499380 -0.010466 L0.505352 0.000000 L1.000000 0.000000 L1.000000 0.005000 L0.774327 0.471390 L0.224231 0.490062 L0.001573 0.000000 L0.002608 -0.001185 L0.003965 0.000000 L0.407910 0.000000 L0.420808 -0.034412 z " fill="rgb(245,195,195)" />
<path d="M0.000000 0.000000 L1.000000 0.000000 L1.000000 1.000000 L0.000000 1.000000  z" fill="none" stroke="rgb(128,128,128)" stroke-width="0.01" />
<line x1="0.468373" y1="-0.0376451" x2="0.49938" y2="-0.0104664" style="stroke:rgb(246,147,147);stroke-width:0.01" />
<line x1="0.420808" y1="-0.0344124" x2="0.422133" y2="-0.0330882" style="stroke:rgb(246,147,147);stroke-width:0.01" />
<line x1="0.49938" y1="-0.0104664" x2="0.774327" y2="0.47139" style="stroke:rgb(246,147,147);stroke-width:0.01" />
<line x1="0.610714" y1="0.31308" x2="0.735914" y2="0.472694" style="stroke:rgb(246,147,147);stroke-width:0.01" />
<line x1="0.49938" y1="-0.0104664" x2="0.591195" y2="0.477606" style="stroke:rgb(246,147,147);stroke-width:0.01" />
<line x1="0.468373" y1="-0.0376451" x2="0.499894" y2="0.457759" style="stroke:rgb(246,147,147);stroke-width:0.01" />
<line x1="0.420563" y1="0.36382" x2="0.427442" y2="0.483164" style="stroke:rgb(246,147,147);stroke-width:0.01" />
<line x1="0.419146" y1="-0.0299774" x2="0.440706" y2="0.419238" style="stroke:rgb(246,147,147);stroke-width:0.01" />
<line x1="0.468373" y1="-0.0376451" x2="0.420808" y2="-0.0344124" style="stroke:rgb(246,147,147);stroke-width:0.01" />
<line x1="0.422133" y1="-0.0330882" x2="0.427442" y2="0.483164" style="stroke:rgb(246,147,147);stroke-width:0.01" />
<line x1="0.00260796" y1="-0.00118491" x2="0.420563" y2="0.36382" style="stroke:rgb(246,147,147);stroke-width:0.01" />
<line x1="0.00157316" y1="0" x2="0.224231" y2="0.490062" style="stroke:rgb(246,147,147);stroke-width:0.01" />
<line x1="0.00157316" y1="0" x2="1" y2="0" style="stroke:rgb(246,147,147);stroke-width:0.01" />
<line x1="1" y1="0" x2="1" y2="0.005" style="stroke:rgb(246,147,147);stroke-width:0.01" />
<line x1="0.00260796" y1="-0.00118491" x2="0.00157316" y2="0" style="stroke:rgb(246,147,147);stroke-width:0.01" />
<line x1="0.610714" y1="0.31308" x2="0.591195" y2="0.477606" style="stroke:rgb(246,147,147);stroke-width:0.01" />
<line x1="0.247297" y1="0.428521" x2="0.308405" y2="0.487205" style="stroke:rgb(246,147,147);stroke-width:0.01" />
<line x1="0.420808" y1="-0.0344124" x2="0.224231" y2="0.490062" style="stroke:rgb(246,147,147);stroke-width:0.01" />
<line x1="0.422133" y1="-0.0330882" x2="0.419146" y2="-0.0299774" style="stroke:rgb(246,147,147);stroke-width:0.01" />
<line x1="0.420563" y1="0.36382" x2="0.308405" y2="0.487205" style="stroke:rgb(246,147,147);stroke-width:0.01" />
<line x1="1" y1="0.005" x2="0.774327" y2="0.47139" style="stroke:rgb(246,147,147);stroke-width:0.01" />
<line x1="0.440706" y1="0.419238" x2="0.247297" y2="0.428521" style="stroke:rgb(246,147,147);stroke-width:0.01" />
<line x1="0.757208" y1="0.441388" x2="0.499894" y2="0.457759" style="stroke:rgb(246,147,147);stroke-width:0.01" />
<line x1="1" y1="0.005" x2="0.610714" y2="0.31308" style="stroke:rgb(246,147,147);stroke-width:0.01" />
<line x1="0.757208" y1="0.441388" x2="0.735914" y2="0.472694" style="stroke:rgb(246,147,147);stroke-width:0.01" />
<line x1="0.774327" y1="0.47139" x2="0.224231" y2="0.490062" style="stroke:rgb(246,147,147);stroke-width:0.01" />
</g>
</svg>
