<svg xmlns="http://www.w3.org/2000/svg" viewBox="-1.5 -1.5 3 3">
<g transform="scale(1, -1)">
<path d="M0.937132 -0.606904 L0.983436 -0.013726 L0.991564 -0.013754 L0.991856 -0.009351 L0.999704 -0.009256 L0.999790 0.000000 L1.000000 0.000000 L1.000000 0.022633 L-0.016400 0.027344 L-0.059835 -0.529081 z " fill="rgb(245,195,195)" />
<path d="M0.000000 0.000000 L1.000000 0.000000 L1.000000 1.000000 L0.000000 1.000000  z" fill="none" stroke="rgb(128,128,128)" stroke-width="0.01" />
<line x1="0.937132" y1="-0.606904" x2="-0.0598348" y2="-0.529081" style="stroke:rgb(246,147,147);stroke-width:0.01" />
<line x1="0.937132" y1="-0.606904" x2="0.986279" y2="0.0226969" style="stroke:rgb(246,147,147);stroke-width:0.01" />
<line x1="0.987839" y1="0" x2="0.989398" y2="0.0226824" style="stroke:rgb(246,147,147);stroke-width:0.01" />
<line x1="0.991564" y1="-0.0137535" x2="0.993978" y2="0.0226612" style="stroke:rgb(246,147,147);stroke-width:0.01" />
<line x1="0.99527" y1="0" x2="0.996562" y2="0.0226492" style="stroke:rgb(246,147,147);stroke-width:0.01" />
<line x1="0.695486" y1="-0.0127383" x2="0.999553" y2="-0.00473874" style="stroke:rgb(246,147,147);stroke-width:0.01" />
<line x1="0.998085" y1="-0.0092757" x2="0.998836" y2="0.0226387" style="stroke:rgb(246,147,147);stroke-width:0.01" />
<line x1="0.707913" y1="-0.0127809" x2="0.999704" y2="-0.00925614" style="stroke:rgb(246,147,147);stroke-width:0.01" />
<line x1="0.999158" y1="0" x2="0.999481" y2="0.0226357" style="stroke:rgb(246,147,147);stroke-width:0.01" />
<line x1="0.991564" y1="-0.0137535" x2="-0.0104051" y2="-0.0103179" style="stroke:rgb(246,147,147);stroke-width:0.01" />
<line x1="0.999704" y1="-0.00925614" x2="1" y2="0.0226333" style="stroke:rgb(246,147,147);stroke-width:0.01" />
<line x1="0.681945" y1="-0.0122891" x2="-0.000351836" y2="-0.00907301" style="stroke:rgb(246,147,147);stroke-width:0.01" />
<line x1="-0.0145208" y1="0" x2="-0.0164005" y2="0.0273443" style="stroke:rgb(246,147,147);stroke-width:0.01" />
<line x1="-0.0104051" y1="-0.0103179" x2="-0.0126424" y2="0.0273268" style="stroke:rgb(246,147,147);stroke-width:0.01" />
<line x1="-0.00635341" y1="0" x2="-0.0079101" y2="0.0273049" style="stroke:rgb(246,147,147);stroke-width:0.01" />
<line x1="-0.00300181" y1="-0.0103433" x2="-0.00479754" y2="0.0272905" style="stroke:rgb(246,147,147);stroke-width:0.01" />
<line x1="-0.00221686" y1="-0.010346" x2="-0.00240048" y2="0.000671818" style="stroke:rgb(246,147,147);stroke-width:0.01" />
<line x1="-0.000943086" y1="0" x2="-0.00133181" y2="0.0272744" style="stroke:rgb(246,147,147);stroke-width:0.01" />
<line x1="-0.000366983" y1="-0.0103523" x2="-0.000554408" y2="0.0272708" style="stroke:rgb(246,147,147);stroke-width:0.01" />
<line x1="-0.00034875" y1="-0.0103524" x2="-0.000351836" y2="-0.00907301" style="stroke:rgb(246,147,147);stroke-width:0.01" />
<line x1="-0.0145208" y1="0" x2="1" y2="0" style="stroke:rgb(246,147,147);stroke-width:0.01" />
<line x1="0" y1="0" x2="0" y2="0.0272683" style="stroke:rgb(246,147,147);stroke-width:0.01" />
<line x1="1" y1="0" x2="1" y2="0.0226333" style="stroke:rgb(246,147,147);stroke-width:0.01" />
<line x1="-0.00034875" y1="-0.0103524" x2="0" y2="0.0272683" style="stroke:rgb(246,147,147);stroke-width:0.01" />
<line x1="-0.000366983" y1="-0.0103523" x2="-0.000351836" y2="-0.00907301" style="stroke:rgb(246,147,147);stroke-width:0.01" />
<line x1="-0.000943086" y1="0" x2="-0.000554408" y2="0.0272708" style="stroke:rgb(246,147,147);stroke-width:0.01" />
<line x1="-0.00221686" y1="-0.010346" x2="-0.00133181" y2="0.0272744" style="stroke:rgb(246,147,147);stroke-width:0.01" />
<line x1="-0.00300181" y1="-0.0103433" x2="-0.00240048" y2="0.000671818" style="stroke:rgb(246,147,147);stroke-width:0.01" />
<line x1="-0.00635341" y1="0" x2="-0.00479754" y2="0.0272905" style="stroke:rgb(246,147,147);stroke-width:0.01" />
<line x1="0.707913" y1="-0.0127809" x2="-0.00240048" y2="0.000671818" style="stroke:rgb(246,147,147);stroke-width:0.01" />
<line x1="-0.0104051" y1="-0.0103179" x2="-0.0079101" y2="0.0273049" style="stroke:rgb(246,147,147);stroke-width:0.01" />
<line x1="-0.0145208" y1="0" x2="-0.0126424" y2="0.0273268" style="stroke:rgb(246,147,147);stroke-width:0.01" />
<line x1="-0.0598348" y1="-0.529081" x2="-0.0164005" y2="0.0273443" style="stroke:rgb(246,147,147);stroke-width:0.01" />
<line x1="0.99964" y1="-0.00925692" x2="0.999481" y2="0.0226357" style="stroke:rgb(246,147,147);stroke-width:0.01" />
<line x1="0.695486" y1="-0.0127383" x2="0.681945" y2="-0.0122891" style="stroke:rgb(246,147,147);stroke-width:0.01" />
<line x1="0.999158" y1="0" x2="0.998836" y2="0.0226387" style="stroke:rgb(246,147,147);stroke-width:0.01" />
<line x1="0.99964" y1="-0.00925692" x2="0.999553" y2="-0.00473874" style="stroke:rgb(246,147,147);stroke-width:0.01" />
<line x1="1" y1="0.0226333" x2="-0.0164005" y2="0.0273443" style="stroke:rgb(246,147,147);stroke-width:0.01" />
<line x1="0.999704" y1="-0.00925614" x2="0.999553" y2="-0.00473874" style="stroke:rgb(246,147,147);stroke-width:0.01" />
<line x1="0.998085" y1="-0.0092757" x2="0.996562" y2="0.0226492" style="stroke:rgb(246,147,147);stroke-width:0.01" />
<line x1="0.99527" y1="0" x2="0.993978" y2="0.0226612" style="stroke:rgb(246,147,147);stroke-width:0.01" />
<line x1="0.991564" y1="-0.0137535" x2="0.989398" y2="0.0226824" style="stroke:rgb(246,147,147);stroke-width:0.01" />
<line x1="0.987839" y1="0" x2="0.986279" y2="0.0226969" style="stroke:rgb(246,147,147);stroke-width:0.01" />
</g>
</svg>
