<svg xmlns="http://www.w3.org/2000/svg" viewBox="-1.5 -1.5 3 3">
<g transform="scale(1, -1)">
<path d="M0.378774 0.581917 L0.457031 0.678971 L0.216406 0.999805 L0.082812 0.899609 L0.116741 0.854371 L0.086851 0.817302 L0.232812 0.699609 L0.307812 0.599609 L0.333209 0.618657 z " fill="rgb(245,195,195)" />
<path d="M0.000000 0.000000 L1.000000 0.000000 L1.000000 1.000000 L0.000000 1.000000  z" fill="none" stroke="rgb(128,128,128)" stroke-width="0.01" />
<line x1="0.378774" y1="0.581917" x2="0.457031" y2="0.678971" style="stroke:rgb(246,147,147);stroke-width:0.01" />
<line x1="0.281466" y1="0.660379" x2="0.37965" y2="0.782146" style="stroke:rgb(246,147,147);stroke-width:0.01" />
<line x1="0.307812" y1="0.599609" x2="0.441406" y2="0.699805" style="stroke:rgb(246,147,147);stroke-width:0.01" />
<line x1="0.086851" y1="0.817302" x2="0.224888" y2="0.988495" style="stroke:rgb(246,147,147);stroke-width:0.01" />
<line x1="0.359375" y1="0.638281" x2="0.171875" y2="0.966406" style="stroke:rgb(246,147,147);stroke-width:0.01" />
<line x1="0.232812" y1="0.699609" x2="0.366406" y2="0.799805" style="stroke:rgb(246,147,147);stroke-width:0.01" />
<line x1="0.307812" y1="0.599609" x2="0.0828125" y2="0.899609" style="stroke:rgb(246,147,147);stroke-width:0.01" />
<line x1="0.359375" y1="0.638281" x2="0.457031" y2="0.678971" style="stroke:rgb(246,147,147);stroke-width:0.01" />
<line x1="0.457031" y1="0.678971" x2="0.216406" y2="0.999805" style="stroke:rgb(246,147,147);stroke-width:0.01" />
<line x1="0.296875" y1="0.747656" x2="0.37965" y2="0.782146" style="stroke:rgb(246,147,147);stroke-width:0.01" />
<line x1="0.0828125" y1="0.899609" x2="0.216406" y2="0.999805" style="stroke:rgb(246,147,147);stroke-width:0.01" />
<line x1="0.378774" y1="0.581917" x2="0.086851" y2="0.817302" style="stroke:rgb(246,147,147);stroke-width:0.01" />
<line x1="0.171875" y1="0.966406" x2="0.224888" y2="0.988495" style="stroke:rgb(246,147,147);stroke-width:0.01" />
</g>
</svg>
