<svg xmlns="http://www.w3.org/2000/svg" viewBox="-1.5 -1.5 3 3">
<g transform="scale(1, -1)">
<path d="M0.132946 -0.168066 L0.211203 -0.071012 L-0.029422 0.249821 L-0.163015 0.149626 L-0.129087 0.104388 L-0.158977 0.067318 L-0.013015 -0.050374 L0.061985 -0.150374 L0.087382 -0.131326 z " fill="rgb(245,195,195)" />
<path d="M-0.245828 -0.749983 L0.754172 -0.749983 L0.754172 0.250017 L-0.245828 0.250017  z" fill="none" stroke="rgb(128,128,128)" stroke-width="0.01" />
<line x1="0.132946" y1="-0.168066" x2="0.211203" y2="-0.0710121" style="stroke:rgb(246,147,147);stroke-width:0.01" />
<line x1="0.0356385" y1="-0.0896049" x2="0.133822" y2="0.0321625" style="stroke:rgb(246,147,147);stroke-width:0.01" />
<line x1="0.0619847" y1="-0.150374" x2="0.195578" y2="-0.0501788" style="stroke:rgb(246,147,147);stroke-width:0.01" />
<line x1="-0.158977" y1="0.0673182" x2="-0.0209394" y2="0.238512" style="stroke:rgb(246,147,147);stroke-width:0.01" />
<line x1="0.113547" y1="-0.111702" x2="-0.0739528" y2="0.216423" style="stroke:rgb(246,147,147);stroke-width:0.01" />
<line x1="-0.0130153" y1="-0.0503741" x2="0.120578" y2="0.0498212" style="stroke:rgb(246,147,147);stroke-width:0.01" />
<line x1="0.0619847" y1="-0.150374" x2="-0.163015" y2="0.149626" style="stroke:rgb(246,147,147);stroke-width:0.01" />
<line x1="0.113547" y1="-0.111702" x2="0.211203" y2="-0.0710121" style="stroke:rgb(246,147,147);stroke-width:0.01" />
<line x1="0.211203" y1="-0.0710121" x2="-0.0294216" y2="0.249821" style="stroke:rgb(246,147,147);stroke-width:0.01" />
<line x1="0.0510472" y1="-0.00232722" x2="0.133822" y2="0.0321625" style="stroke:rgb(246,147,147);stroke-width:0.01" />
<line x1="-0.163015" y1="0.149626" x2="-0.0294216" y2="0.249821" style="stroke:rgb(246,147,147);stroke-width:0.01" />
<line x1="0.132946" y1="-0.168066" x2="-0.158977" y2="0.0673182" style="stroke:rgb(246,147,147);stroke-width:0.01" />
<line x1="-0.0739528" y1="0.216423" x2="-0.0209394" y2="0.238512" style="stroke:rgb(246,147,147);stroke-width:0.01" />
</g>
</svg>
