<svg xmlns="http://www.w3.org/2000/svg" viewBox="-1.5 -1.5 3 3">
<g transform="scale(1, -1)">
<path d="M-0.160462 -0.636634 L0.339538 -0.636634 L0.618085 -0.221410 L0.158687 0.086770 L0.089538 0.363366 L-0.160462 0.363366 L-0.160462 0.300866 L-0.212365 0.335684 L-0.351638 0.128071 L-0.160462 -0.083443 z " fill="rgb(245,195,195)" />
<path d="M-0.160462 -0.636634 L0.839538 -0.636634 L0.839538 0.363366 L-0.160462 0.363366  z" fill="none" stroke="rgb(128,128,128)" stroke-width="0.01" />
<line x1="0.339538" y1="-0.636634" x2="0.618085" y2="-0.22141" style="stroke:rgb(246,147,147);stroke-width:0.01" />
<line x1="-0.160462" y1="-0.636634" x2="0.339538" y2="-0.636634" style="stroke:rgb(246,147,147);stroke-width:0.01" />
<line x1="-0.160462" y1="-0.636634" x2="-0.160462" y2="0.363366" style="stroke:rgb(246,147,147);stroke-width:0.01" />
<line x1="0.339538" y1="-0.636634" x2="0.0895384" y2="0.363366" style="stroke:rgb(246,147,147);stroke-width:0.01" />
<line x1="0.339538" y1="-0.636634" x2="-0.351638" y2="0.128071" style="stroke:rgb(246,147,147);stroke-width:0.01" />
<line x1="-0.351638" y1="0.128071" x2="-0.212365" y2="0.335684" style="stroke:rgb(246,147,147);stroke-width:0.01" />
<line x1="0.618085" y1="-0.22141" x2="-0.212365" y2="0.335684" style="stroke:rgb(246,147,147);stroke-width:0.01" />
<line x1="-0.351638" y1="0.128071" x2="0.0895384" y2="0.363366" style="stroke:rgb(246,147,147);stroke-width:0.01" />
<line x1="-0.160462" y1="0.363366" x2="0.0895384" y2="0.363366" style="stroke:rgb(246,147,147);stroke-width:0.01" />
</g>
</svg>
