<svg xmlns="http://www.w3.org/2000/svg" viewBox="-1.5 -1.5 3 3">
<g transform="scale(1, -1)">
<path d="M0.000000 0.000000 L0.500000 0.000000 L0.778547 0.415225 L0.319149 0.723404 L0.250000 1.000000 L0.000000 1.000000 L0.000000 0.937500 L-0.051903 0.972318 L-0.191176 0.764706 L0.000000 0.553191 z " fill="rgb(245,195,195)" />
<path d="M0.000000 0.000000 L1.000000 0.000000 L1.000000 1.000000 L0.000000 1.000000  z" fill="none" stroke="rgb(128,128,128)" stroke-width="0.01" />
<line x1="0.5" y1="0" x2="0.778547" y2="0.415225" style="stroke:rgb(246,147,147);stroke-width:0.01" />
<line x1="0" y1="0" x2="0.5" y2="0" style="stroke:rgb(246,147,147);stroke-width:0.01" />
<line x1="0" y1="0" x2="0" y2="1" style="stroke:rgb(246,147,147);stroke-width:0.01" />
<line x1="0.5" y1="0" x2="0.25" y2="1" style="stroke:rgb(246,147,147);stroke-width:0.01" />
<line x1="0.5" y1="0" x2="-0.191176" y2="0.764706" style="stroke:rgb(246,147,147);stroke-width:0.01" />
<line x1="-0.191176" y1="0.764706" x2="-0.0519031" y2="0.972318" style="stroke:rgb(246,147,147);stroke-width:0.01" />
<line x1="0.778547" y1="0.415225" x2="-0.0519031" y2="0.972318" style="stroke:rgb(246,147,147);stroke-width:0.01" />
<line x1="-0.191176" y1="0.764706" x2="0.25" y2="1" style="stroke:rgb(246,147,147);stroke-width:0.01" />
<line x1="0" y1="1" x2="0.25" y2="1" style="stroke:rgb(246,147,147);stroke-width:0.01" />
</g>
</svg>
