<svg xmlns="http://www.w3.org/2000/svg" viewBox="-1.5 -1.5 3 3">
<g transform="scale(1, -1)">
<path d="M-0.406528 -0.562519 L-0.073195 -0.562519 L0.260138 -0.229186 L0.510138 0.104147 L0.393472 0.504147 L-0.277496 0.308449 L-0.406528 0.437481 z " fill="rgb(245,195,195)" />
<path d="M-0.406528 -0.562519 L0.593472 -0.562519 L0.593472 0.437481 L-0.406528 0.437481  z" fill="none" stroke="rgb(128,128,128)" stroke-width="0.01" />
<line x1="0.260138" y1="-0.229186" x2="0.510138" y2="0.104147" style="stroke:rgb(246,147,147);stroke-width:0.01" />
<line x1="-0.0731951" y1="-0.562519" x2="0.260138" y2="-0.229186" style="stroke:rgb(246,147,147);stroke-width:0.01" />
<line x1="-0.406528" y1="-0.562519" x2="-0.0731951" y2="-0.562519" style="stroke:rgb(246,147,147);stroke-width:0.01" />
<line x1="-0.406528" y1="-0.562519" x2="-0.406528" y2="0.437481" style="stroke:rgb(246,147,147);stroke-width:0.01" />
<line x1="-0.0731951" y1="-0.562519" x2="-0.0731951" y2="0.104147" style="stroke:rgb(246,147,147);stroke-width:0.01" />
<line x1="0.510138" y1="0.104147" x2="0.393472" y2="0.504147" style="stroke:rgb(246,147,147);stroke-width:0.01" />
<line x1="0.260138" y1="-0.229186" x2="-0.406528" y2="0.437481" style="stroke:rgb(246,147,147);stroke-width:0.01" />
<line x1="0.260138" y1="-0.229186" x2="-0.406528" y2="0.270814" style="stroke:rgb(246,147,147);stroke-width:0.01" />
<line x1="-0.0731951" y1="0.104147" x2="0.510138" y2="0.104147" style="stroke:rgb(246,147,147);stroke-width:0.01" />
<line x1="-0.406528" y1="0.270814" x2="0.393472" y2="0.504147" style="stroke:rgb(246,147,147);stroke-width:0.01" />
</g>
</svg>
