<svg xmlns="http://www.w3.org/2000/svg" viewBox="-1.5 -1.5 3 3">
<g transform="scale(1, -1)">
<path d="M0.000000 1.000000 L1.000000 1.000000 L0.870968 1.129032 L1.066667 1.800000 L0.666667 1.916667 L0.333333 1.666667 L0.000000 1.333333 z " fill="rgb(245,195,195)" />
<path d="M0.000000 0.000000 L1.000000 0.000000 L1.000000 1.000000 L0.000000 1.000000  z" fill="none" stroke="rgb(128,128,128)" stroke-width="0.01" />
<line x1="0.833333" y1="1" x2="1.06667" y2="1.8" style="stroke:rgb(246,147,147);stroke-width:0.01" />
<line x1="0" y1="1" x2="0" y2="1.33333" style="stroke:rgb(246,147,147);stroke-width:0.01" />
<line x1="0.666667" y1="1.33333" x2="0.666667" y2="1.91667" style="stroke:rgb(246,147,147);stroke-width:0.01" />
<line x1="0" y1="1.33333" x2="0.333333" y2="1.66667" style="stroke:rgb(246,147,147);stroke-width:0.01" />
<line x1="0.833333" y1="1" x2="0.333333" y2="1.66667" style="stroke:rgb(246,147,147);stroke-width:0.01" />
<line x1="0.333333" y1="1.66667" x2="0.666667" y2="1.91667" style="stroke:rgb(246,147,147);stroke-width:0.01" />
<line x1="0" y1="1" x2="1" y2="1" style="stroke:rgb(246,147,147);stroke-width:0.01" />
<line x1="1" y1="1" x2="0.333333" y2="1.66667" style="stroke:rgb(246,147,147);stroke-width:0.01" />
<line x1="0" y1="1.33333" x2="0.666667" y2="1.33333" style="stroke:rgb(246,147,147);stroke-width:0.01" />
<line x1="1.06667" y1="1.8" x2="0.666667" y2="1.91667" style="stroke:rgb(246,147,147);stroke-width:0.01" />
</g>
</svg>
