<svg xmlns="http://www.w3.org/2000/svg" viewBox="-1.5 -1.5 3 3">
<g transform="scale(1, -1)">
<path d="M-1.760062 -0.179109 L-0.823685 0.176394 L-0.880439 0.355732 L-0.848936 0.397988 L-0.907669 0.441776 L-0.933695 0.423262 L-1.087601 0.768638 L-2.001014 0.361603 z " fill="rgb(245,195,195)" />
<path d="M0.000000 0.000000 L1.000000 0.000000 L1.000000 1.000000 L0.000000 1.000000  z" fill="none" stroke="rgb(128,128,128)" stroke-width="0.01" />
<line x1="-1.75202" y1="-0.176054" x2="-1.76381" y2="-0.167261" style="stroke:rgb(246,147,147);stroke-width:0.01" />
<line x1="-1.76006" y1="-0.179109" x2="-2.00101" y2="0.361603" style="stroke:rgb(246,147,147);stroke-width:0.01" />
<line x1="-1.76006" y1="-0.179109" x2="-1.76381" y2="-0.167261" style="stroke:rgb(246,147,147);stroke-width:0.01" />
<line x1="-0.823685" y1="0.176394" x2="-1.0876" y2="0.768638" style="stroke:rgb(246,147,147);stroke-width:0.01" />
<line x1="-0.823685" y1="0.176394" x2="-0.907669" y2="0.441776" style="stroke:rgb(246,147,147);stroke-width:0.01" />
<line x1="-0.848936" y1="0.397988" x2="-0.907669" y2="0.441776" style="stroke:rgb(246,147,147);stroke-width:0.01" />
<line x1="-1.08934" y1="0.0755356" x2="-1.67468" y2="0.196905" style="stroke:rgb(246,147,147);stroke-width:0.01" />
<line x1="-1.75202" y1="-0.176054" x2="-1.67468" y2="0.196905" style="stroke:rgb(246,147,147);stroke-width:0.01" />
<line x1="-1.76006" y1="-0.179109" x2="-0.823685" y2="0.176394" style="stroke:rgb(246,147,147);stroke-width:0.01" />
<line x1="-1.08934" y1="0.0755356" x2="-0.848936" y2="0.397988" style="stroke:rgb(246,147,147);stroke-width:0.01" />
<line x1="-1.76381" y1="-0.167261" x2="-0.907669" y2="0.441776" style="stroke:rgb(246,147,147);stroke-width:0.01" />
<line x1="-2.00101" y1="0.361603" x2="-1.0876" y2="0.768638" style="stroke:rgb(246,147,147);stroke-width:0.01" />
</g>
</svg>
