<svg xmlns="http://www.w3.org/2000/svg" viewBox="-1.5 -1.5 3 3">
<g transform="scale(1, -1)">
<path d="M0.093305 -1.274354 L0.485717 -1.134835 L0.960515 -1.078605 L0.947721 -0.970573 L1.035524 -0.939355 L0.998965 -0.836531 L0.445868 -0.566128 L0.061560 -1.185067 z " fill="rgb(245,195,195)" />
<path d="M0.000000 0.000000 L1.000000 0.000000 L1.000000 1.000000 L0.000000 1.000000  z" fill="none" stroke="rgb(128,128,128)" stroke-width="0.01" />
<line x1="0.0615598" y1="-1.18507" x2="0.960515" y2="-1.07861" style="stroke:rgb(246,147,147);stroke-width:0.01" />
<line x1="0.0933054" y1="-1.27435" x2="1.03552" y2="-0.939355" style="stroke:rgb(246,147,147);stroke-width:0.01" />
<line x1="0.136154" y1="-1.06493" x2="0.945416" y2="-0.95111" style="stroke:rgb(246,147,147);stroke-width:0.01" />
<line x1="0.15325" y1="-1.11656" x2="0.998965" y2="-0.836531" style="stroke:rgb(246,147,147);stroke-width:0.01" />
<line x1="0.0615598" y1="-1.18507" x2="0.445868" y2="-0.566128" style="stroke:rgb(246,147,147);stroke-width:0.01" />
<line x1="0.998965" y1="-0.836531" x2="0.445868" y2="-0.566128" style="stroke:rgb(246,147,147);stroke-width:0.01" />
<line x1="0.945416" y1="-0.95111" x2="0.445868" y2="-0.566128" style="stroke:rgb(246,147,147);stroke-width:0.01" />
<line x1="0.0933054" y1="-1.27435" x2="0.0615598" y2="-1.18507" style="stroke:rgb(246,147,147);stroke-width:0.01" />
<line x1="0.15325" y1="-1.11656" x2="0.136154" y2="-1.06493" style="stroke:rgb(246,147,147);stroke-width:0.01" />
<line x1="0.960515" y1="-1.07861" x2="0.945416" y2="-0.95111" style="stroke:rgb(246,147,147);stroke-width:0.01" />
<line x1="1.03552" y1="-0.939355" x2="0.998965" y2="-0.836531" style="stroke:rgb(246,147,147);stroke-width:0.01" />
</g>
</svg>
