<svg xmlns="http://www.w3.org/2000/svg" viewBox="-1.5 -1.5 3 3">
<g transform="scale(1, -1)">
<path d="M-0.535342 -0.276173 L-0.142930 -0.136654 L0.331868 -0.080424 L0.319074 0.027608 L0.406877 0.058826 L0.370319 0.161650 L-0.182779 0.432053 L-0.567087 -0.186886 z " fill="rgb(245,195,195)" />
<path d="M-0.628647 0.998181 L0.371353 0.998181 L0.371353 1.998181 L-0.628647 1.998181  z" fill="none" stroke="rgb(128,128,128)" stroke-width="0.01" />
<line x1="-0.567087" y1="-0.186886" x2="0.331868" y2="-0.0804245" style="stroke:rgb(246,147,147);stroke-width:0.01" />
<line x1="-0.535342" y1="-0.276173" x2="0.406877" y2="0.0588262" style="stroke:rgb(246,147,147);stroke-width:0.01" />
<line x1="-0.492492" y1="-0.0667491" x2="0.316769" y2="0.047071" style="stroke:rgb(246,147,147);stroke-width:0.01" />
<line x1="-0.475397" y1="-0.11838" x2="0.370319" y2="0.16165" style="stroke:rgb(246,147,147);stroke-width:0.01" />
<line x1="-0.567087" y1="-0.186886" x2="-0.182779" y2="0.432053" style="stroke:rgb(246,147,147);stroke-width:0.01" />
<line x1="0.370319" y1="0.16165" x2="-0.182779" y2="0.432053" style="stroke:rgb(246,147,147);stroke-width:0.01" />
<line x1="0.316769" y1="0.047071" x2="-0.182779" y2="0.432053" style="stroke:rgb(246,147,147);stroke-width:0.01" />
<line x1="-0.535342" y1="-0.276173" x2="-0.567087" y2="-0.186886" style="stroke:rgb(246,147,147);stroke-width:0.01" />
<line x1="-0.475397" y1="-0.11838" x2="-0.492492" y2="-0.0667491" style="stroke:rgb(246,147,147);stroke-width:0.01" />
<line x1="0.331868" y1="-0.0804245" x2="0.316769" y2="0.047071" style="stroke:rgb(246,147,147);stroke-width:0.01" />
<line x1="0.406877" y1="0.0588262" x2="0.370319" y2="0.16165" style="stroke:rgb(246,147,147);stroke-width:0.01" />
</g>
</svg>
