<svg xmlns="http://www.w3.org/2000/svg" viewBox="-1.5 -1.5 3 3">
<g transform="scale(1, -1)">
<path d="M-0.201815 -0.717798 L0.395493 -0.461876 L0.190285 0.538124 L0.045318 0.538124 L0.045318 0.476011 L-0.270793 0.340571 L-0.203804 -0.713155 z " fill="rgb(245,195,195)" />
<path d="M0.045318 -0.461876 L1.045318 -0.461876 L1.045318 0.538124 L0.045318 0.538124  z" fill="none" stroke="rgb(128,128,128)" stroke-width="0.01" />
<line x1="-0.201815" y1="-0.717798" x2="-0.203804" y2="-0.713155" style="stroke:rgb(246,147,147);stroke-width:0.01" />
<line x1="-0.201815" y1="-0.717798" x2="0.395493" y2="-0.461876" style="stroke:rgb(246,147,147);stroke-width:0.01" />
<line x1="-0.203804" y1="-0.713155" x2="-0.270793" y2="0.340571" style="stroke:rgb(246,147,147);stroke-width:0.01" />
<line x1="0.0453178" y1="-0.461876" x2="0.395493" y2="-0.461876" style="stroke:rgb(246,147,147);stroke-width:0.01" />
<line x1="0.0453178" y1="-0.461876" x2="0.0453178" y2="0.538124" style="stroke:rgb(246,147,147);stroke-width:0.01" />
<line x1="-0.203804" y1="-0.713155" x2="0.0690705" y2="0.243643" style="stroke:rgb(246,147,147);stroke-width:0.01" />
<line x1="0.395493" y1="-0.461876" x2="0.190285" y2="0.538124" style="stroke:rgb(246,147,147);stroke-width:0.01" />
<line x1="0.0690705" y1="0.243643" x2="-0.270793" y2="0.340571" style="stroke:rgb(246,147,147);stroke-width:0.01" />
<line x1="-0.270793" y1="0.340571" x2="0.190285" y2="0.538124" style="stroke:rgb(246,147,147);stroke-width:0.01" />
<line x1="0.0453178" y1="0.538124" x2="0.190285" y2="0.538124" style="stroke:rgb(246,147,147);stroke-width:0.01" />
</g>
</svg>
