<svg xmlns="http://www.w3.org/2000/svg" viewBox="-1.5 -1.5 3 3">
<g transform="scale(1, -1)">
<path d="M0.102257 1.438447 L0.154988 1.473013 L0.124800 1.628419 L0.484221 1.774323 L0.108088 2.700889 L-0.220680 2.567428 L-0.122124 1.528182 L0.068285 1.490274 z " fill="rgb(245,195,195)" />
<path d="M0.000000 0.000000 L1.000000 0.000000 L1.000000 1.000000 L0.000000 1.000000  z" fill="none" stroke="rgb(128,128,128)" stroke-width="0.01" />
<line x1="-0.122124" y1="1.52818" x2="-0.22068" y2="2.56743" style="stroke:rgb(246,147,147);stroke-width:0.01" />
<line x1="0.154988" y1="1.47301" x2="-0.0510419" y2="2.53366" style="stroke:rgb(246,147,147);stroke-width:0.01" />
<line x1="-0.150127" y1="1.82347" x2="0.0556002" y2="2.32235" style="stroke:rgb(246,147,147);stroke-width:0.01" />
<line x1="0.484221" y1="1.77432" x2="0.108088" y2="2.70089" style="stroke:rgb(246,147,147);stroke-width:0.01" />
<line x1="0.102257" y1="1.43845" x2="-0.150127" y2="1.82347" style="stroke:rgb(246,147,147);stroke-width:0.01" />
<line x1="0.102257" y1="1.43845" x2="0.154988" y2="1.47301" style="stroke:rgb(246,147,147);stroke-width:0.01" />
<line x1="-0.122124" y1="1.52818" x2="0.484221" y2="1.77432" style="stroke:rgb(246,147,147);stroke-width:0.01" />
<line x1="0.154988" y1="1.47301" x2="-0.122124" y2="1.52818" style="stroke:rgb(246,147,147);stroke-width:0.01" />
<line x1="-0.207737" y1="2.43094" x2="-0.0510419" y2="2.53366" style="stroke:rgb(246,147,147);stroke-width:0.01" />
<line x1="0.0556002" y1="2.32235" x2="-0.207737" y2="2.43094" style="stroke:rgb(246,147,147);stroke-width:0.01" />
<line x1="-0.22068" y1="2.56743" x2="0.108088" y2="2.70089" style="stroke:rgb(246,147,147);stroke-width:0.01" />
<line x1="-0.0510419" y1="2.53366" x2="-0.22068" y2="2.56743" style="stroke:rgb(246,147,147);stroke-width:0.01" />
</g>
</svg>
