<svg xmlns="http://www.w3.org/2000/svg" viewBox="-1.5 -1.5 3 3">
<g transform="scale(1, -1)">
<path d="M0.014778 -0.386674 L0.067509 -0.352109 L0.037321 -0.196703 L0.396741 -0.050799 L0.020608 0.875767 L-0.308160 0.742306 L-0.209603 -0.296940 L-0.019195 -0.334848 z " fill="rgb(245,195,195)" />
<path d="M-0.087479 -1.825122 L0.912521 -1.825122 L0.912521 -0.825122 L-0.087479 -0.825122  z" fill="none" stroke="rgb(128,128,128)" stroke-width="0.01" />
<line x1="-0.209603" y1="-0.29694" x2="-0.30816" y2="0.742306" style="stroke:rgb(246,147,147);stroke-width:0.01" />
<line x1="0.0675087" y1="-0.352109" x2="-0.138521" y2="0.708533" style="stroke:rgb(246,147,147);stroke-width:0.01" />
<line x1="-0.237607" y1="-0.00165292" x2="-0.0318792" y2="0.497224" style="stroke:rgb(246,147,147);stroke-width:0.01" />
<line x1="0.396741" y1="-0.0507986" x2="0.0206083" y2="0.875767" style="stroke:rgb(246,147,147);stroke-width:0.01" />
<line x1="0.0147781" y1="-0.386674" x2="-0.237607" y2="-0.00165292" style="stroke:rgb(246,147,147);stroke-width:0.01" />
<line x1="0.0147781" y1="-0.386674" x2="0.0675087" y2="-0.352109" style="stroke:rgb(246,147,147);stroke-width:0.01" />
<line x1="-0.209603" y1="-0.29694" x2="0.396741" y2="-0.0507986" style="stroke:rgb(246,147,147);stroke-width:0.01" />
<line x1="0.0675087" y1="-0.352109" x2="-0.209603" y2="-0.29694" style="stroke:rgb(246,147,147);stroke-width:0.01" />
<line x1="-0.295216" y1="0.605819" x2="-0.138521" y2="0.708533" style="stroke:rgb(246,147,147);stroke-width:0.01" />
<line x1="-0.0318792" y1="0.497224" x2="-0.295216" y2="0.605819" style="stroke:rgb(246,147,147);stroke-width:0.01" />
<line x1="-0.30816" y1="0.742306" x2="0.0206083" y2="0.875767" style="stroke:rgb(246,147,147);stroke-width:0.01" />
<line x1="-0.138521" y1="0.708533" x2="-0.30816" y2="0.742306" style="stroke:rgb(246,147,147);stroke-width:0.01" />
</g>
</svg>
