<svg xmlns="http://www.w3.org/2000/svg" viewBox="-1.5 -1.5 3 3">
<g transform="scale(1, -1)">
<path d="M-0.163147 -0.760687 L0.457240 -0.463362 L0.384846 0.409704 L0.306449 0.573284 L-0.444429 0.213419 L-0.540960 0.027641 z " fill="rgb(245,195,195)" />
<path d="M1.235125 0.185344 L2.235125 0.185344 L2.235125 1.185344 L1.235125 1.185344  z" fill="none" stroke="rgb(128,128,128)" stroke-width="0.01" />
<line x1="0.45724" y1="-0.463362" x2="0.157473" y2="-0.376689" style="stroke:rgb(246,147,147);stroke-width:0.01" />
<line x1="-0.163147" y1="-0.760687" x2="-0.54096" y2="0.0276414" style="stroke:rgb(246,147,147);stroke-width:0.01" />
<line x1="0.384846" y1="0.409704" x2="0.306449" y2="0.573284" style="stroke:rgb(246,147,147);stroke-width:0.01" />
<line x1="-0.416867" y1="0.0483632" x2="-0.444429" y2="0.213419" style="stroke:rgb(246,147,147);stroke-width:0.01" />
<line x1="-0.163147" y1="-0.760687" x2="0.45724" y2="-0.463362" style="stroke:rgb(246,147,147);stroke-width:0.01" />
<line x1="0.45724" y1="-0.463362" x2="0.384846" y2="0.409704" style="stroke:rgb(246,147,147);stroke-width:0.01" />
<line x1="-0.54096" y1="0.0276414" x2="-0.416867" y2="0.0483632" style="stroke:rgb(246,147,147);stroke-width:0.01" />
<line x1="0.157473" y1="-0.376689" x2="0.384846" y2="0.409704" style="stroke:rgb(246,147,147);stroke-width:0.01" />
<line x1="-0.444429" y1="0.213419" x2="0.306449" y2="0.573284" style="stroke:rgb(246,147,147);stroke-width:0.01" />
<line x1="-0.54096" y1="0.0276414" x2="-0.444429" y2="0.213419" style="stroke:rgb(246,147,147);stroke-width:0.01" />
</g>
</svg>
