<svg xmlns="http://www.w3.org/2000/svg" viewBox="-1.5 -1.5 3 3">
<g transform="scale(1, -1)">
<path d="M0.365054 -0.257374 L0.539374 0.224037 L-0.093827 0.453321 L-0.405862 -0.065620 L-0.264871 -0.222582 L-0.139868 -0.131782 z " fill="rgb(245,195,195)" />
<path d="M-1.643932 -1.350440 L-0.643932 -1.350440 L-0.643932 -0.350440 L-1.643932 -0.350440  z" fill="none" stroke="rgb(128,128,128)" stroke-width="0.01" />
<line x1="0.365054" y1="-0.257374" x2="0.539374" y2="0.224037" style="stroke:rgb(246,147,147);stroke-width:0.01" />
<line x1="0.365054" y1="-0.257374" x2="0.433229" y2="0.225841" style="stroke:rgb(246,147,147);stroke-width:0.01" />
<line x1="-0.405862" y1="-0.0656197" x2="-0.0938267" y2="0.453321" style="stroke:rgb(246,147,147);stroke-width:0.01" />
<line x1="-0.264871" y1="-0.222582" x2="0.148359" y2="0.234252" style="stroke:rgb(246,147,147);stroke-width:0.01" />
<line x1="-0.264871" y1="-0.222582" x2="0.0458143" y2="0.00309587" style="stroke:rgb(246,147,147);stroke-width:0.01" />
<line x1="-0.264871" y1="-0.222582" x2="-0.405862" y2="-0.0656197" style="stroke:rgb(246,147,147);stroke-width:0.01" />
<line x1="0.0458143" y1="0.00309587" x2="-0.178697" y2="0.312175" style="stroke:rgb(246,147,147);stroke-width:0.01" />
<line x1="0.365054" y1="-0.257374" x2="-0.405862" y2="-0.0656197" style="stroke:rgb(246,147,147);stroke-width:0.01" />
<line x1="0.148359" y1="0.234252" x2="-0.0938267" y2="0.453321" style="stroke:rgb(246,147,147);stroke-width:0.01" />
<line x1="0.433229" y1="0.225841" x2="-0.178697" y2="0.312175" style="stroke:rgb(246,147,147);stroke-width:0.01" />
<line x1="0.539374" y1="0.224037" x2="-0.0938267" y2="0.453321" style="stroke:rgb(246,147,147);stroke-width:0.01" />
</g>
</svg>
