<svg xmlns="http://www.w3.org/2000/svg" viewBox="-1.5 -1.5 3 3">
<g transform="scale(1, -1)">
<path d="M-0.063675 0.009034 L0.000000 0.228916 L0.053055 0.602857 L-0.157722 1.077356 L-0.746049 1.247730 L-1.024210 0.287196 z " fill="rgb(245,195,195)" />
<path d="M0.000000 0.000000 L1.000000 0.000000 L1.000000 1.000000 L0.000000 1.000000  z" fill="none" stroke="rgb(128,128,128)" stroke-width="0.01" />
<line x1="-0.0636755" y1="0.0090343" x2="-1.02421" y2="0.287196" style="stroke:rgb(246,147,147);stroke-width:0.01" />
<line x1="0" y1="0.228916" x2="0" y2="0.722294" style="stroke:rgb(246,147,147);stroke-width:0.01" />
<line x1="0" y1="0.228916" x2="0.0530549" y2="0.602857" style="stroke:rgb(246,147,147);stroke-width:0.01" />
<line x1="-0.0636755" y1="0.0090343" x2="0" y2="0.228916" style="stroke:rgb(246,147,147);stroke-width:0.01" />
<line x1="0.0530549" y1="0.602857" x2="-0.157722" y2="1.07736" style="stroke:rgb(246,147,147);stroke-width:0.01" />
<line x1="-0.279402" y1="0.82729" x2="-0.157722" y2="1.07736" style="stroke:rgb(246,147,147);stroke-width:0.01" />
<line x1="-1.02421" y1="0.287196" x2="-0.746049" y2="1.24773" style="stroke:rgb(246,147,147);stroke-width:0.01" />
<line x1="0" y1="0.722294" x2="-0.206059" y2="0.908466" style="stroke:rgb(246,147,147);stroke-width:0.01" />
<line x1="0.0530549" y1="0.602857" x2="-0.279402" y2="0.82729" style="stroke:rgb(246,147,147);stroke-width:0.01" />
<line x1="-0.279402" y1="0.82729" x2="-0.206059" y2="0.908466" style="stroke:rgb(246,147,147);stroke-width:0.01" />
<line x1="-0.157722" y1="1.07736" x2="-0.746049" y2="1.24773" style="stroke:rgb(246,147,147);stroke-width:0.01" />
</g>
</svg>
