<svg xmlns="http://www.w3.org/2000/svg" viewBox="-1.5 -1.5 3 3">
<g transform="scale(1, -1)">
<path d="M0.403248 -0.457669 L0.546861 -0.012313 L0.415341 0.030098 L0.416435 0.074229 L0.266998 0.077934 L-0.404879 0.294593 L-0.456891 0.133299 L-0.545980 0.134780 L-0.546590 0.098105 L-0.094543 -0.373058 z " fill="rgb(245,195,195)" />
<path d="M1.487803 -2.017747 L2.487803 -2.017747 L2.487803 -1.017747 L1.487803 -1.017747  z" fill="none" stroke="rgb(128,128,128)" stroke-width="0.01" />
<line x1="-0.0945428" y1="-0.373058" x2="-0.158543" y2="0.12834" style="stroke:rgb(246,147,147);stroke-width:0.01" />
<line x1="-0.0945428" y1="-0.373058" x2="-0.54659" y2="0.0981054" style="stroke:rgb(246,147,147);stroke-width:0.01" />
<line x1="0.403248" y1="-0.457669" x2="0.416435" y2="0.0742292" style="stroke:rgb(246,147,147);stroke-width:0.01" />
<line x1="-0.54659" y1="0.0981054" x2="-0.54598" y2="0.13478" style="stroke:rgb(246,147,147);stroke-width:0.01" />
<line x1="0.403248" y1="-0.457669" x2="0.546861" y2="-0.0123129" style="stroke:rgb(246,147,147);stroke-width:0.01" />
<line x1="-0.487949" y1="0.0369853" x2="-0.404879" y2="0.294593" style="stroke:rgb(246,147,147);stroke-width:0.01" />
<line x1="0.403248" y1="-0.457669" x2="-0.0945428" y2="-0.373058" style="stroke:rgb(246,147,147);stroke-width:0.01" />
<line x1="0.546861" y1="-0.0123129" x2="-0.404879" y2="0.294593" style="stroke:rgb(246,147,147);stroke-width:0.01" />
<line x1="0.416435" y1="0.0742292" x2="-0.54659" y2="0.0981054" style="stroke:rgb(246,147,147);stroke-width:0.01" />
<line x1="-0.158543" y1="0.12834" x2="-0.54598" y2="0.13478" style="stroke:rgb(246,147,147);stroke-width:0.01" />
<line x1="-0.487949" y1="0.0369853" x2="-0.158543" y2="0.12834" style="stroke:rgb(246,147,147);stroke-width:0.01" />
</g>
</svg>
