<svg xmlns="http://www.w3.org/2000/svg" viewBox="-1.5 -1.5 3 3">
<g transform="scale(1, -1)">
<path d="M-1.084555 1.560078 L-0.940942 2.005434 L-1.072462 2.047845 L-1.071368 2.091976 L-1.220805 2.095681 L-1.892682 2.312340 L-1.944694 2.151046 L-2.033783 2.152526 L-2.034392 2.115852 L-1.582346 1.644689 z " fill="rgb(245,195,195)" />
<path d="M0.000000 0.000000 L1.000000 0.000000 L1.000000 1.000000 L0.000000 1.000000  z" fill="none" stroke="rgb(128,128,128)" stroke-width="0.01" />
<line x1="-1.58235" y1="1.64469" x2="-1.64635" y2="2.14609" style="stroke:rgb(246,147,147);stroke-width:0.01" />
<line x1="-1.58235" y1="1.64469" x2="-2.03439" y2="2.11585" style="stroke:rgb(246,147,147);stroke-width:0.01" />
<line x1="-1.08456" y1="1.56008" x2="-1.07137" y2="2.09198" style="stroke:rgb(246,147,147);stroke-width:0.01" />
<line x1="-2.03439" y1="2.11585" x2="-2.03378" y2="2.15253" style="stroke:rgb(246,147,147);stroke-width:0.01" />
<line x1="-1.08456" y1="1.56008" x2="-0.940942" y2="2.00543" style="stroke:rgb(246,147,147);stroke-width:0.01" />
<line x1="-1.97575" y1="2.05473" x2="-1.89268" y2="2.31234" style="stroke:rgb(246,147,147);stroke-width:0.01" />
<line x1="-1.08456" y1="1.56008" x2="-1.58235" y2="1.64469" style="stroke:rgb(246,147,147);stroke-width:0.01" />
<line x1="-0.940942" y1="2.00543" x2="-1.89268" y2="2.31234" style="stroke:rgb(246,147,147);stroke-width:0.01" />
<line x1="-1.07137" y1="2.09198" x2="-2.03439" y2="2.11585" style="stroke:rgb(246,147,147);stroke-width:0.01" />
<line x1="-1.64635" y1="2.14609" x2="-2.03378" y2="2.15253" style="stroke:rgb(246,147,147);stroke-width:0.01" />
<line x1="-1.97575" y1="2.05473" x2="-1.64635" y2="2.14609" style="stroke:rgb(246,147,147);stroke-width:0.01" />
</g>
</svg>
