<svg xmlns="http://www.w3.org/2000/svg" viewBox="-1.5 -1.5 3 3">
<g transform="scale(1, -1)">
<path d="M-0.791651 0.030450 L0.105522 0.102566 L0.098875 0.205391 L0.095626 0.205493 L0.019231 1.000000 L0.000000 1.000000 L0.000000 0.996267 L-0.943569 0.813118 z " fill="rgb(245,195,195)" />
<path d="M0.000000 0.000000 L1.000000 0.000000 L1.000000 1.000000 L0.000000 1.000000  z" fill="none" stroke="rgb(128,128,128)" stroke-width="0.01" />
<line x1="-0.791651" y1="0.0304505" x2="-0.943569" y2="0.813118" style="stroke:rgb(246,147,147);stroke-width:0.01" />
<line x1="0" y1="0.0940842" x2="0" y2="1" style="stroke:rgb(246,147,147);stroke-width:0.01" />
<line x1="0" y1="0.0940842" x2="-0.0150281" y2="0.18696" style="stroke:rgb(246,147,147);stroke-width:0.01" />
<line x1="0.105522" y1="0.102566" x2="0.0988751" y2="0.205391" style="stroke:rgb(246,147,147);stroke-width:0.01" />
<line x1="0.105522" y1="0.102566" x2="0.0192308" y2="1" style="stroke:rgb(246,147,147);stroke-width:0.01" />
<line x1="-0.791651" y1="0.0304505" x2="-0.785307" y2="0.233076" style="stroke:rgb(246,147,147);stroke-width:0.01" />
<line x1="-0.791651" y1="0.0304505" x2="0.105522" y2="0.102566" style="stroke:rgb(246,147,147);stroke-width:0.01" />
<line x1="-0.0150281" y1="0.18696" x2="0.0988751" y2="0.205391" style="stroke:rgb(246,147,147);stroke-width:0.01" />
<line x1="0.0988751" y1="0.205391" x2="-0.785307" y2="0.233076" style="stroke:rgb(246,147,147);stroke-width:0.01" />
<line x1="-0.943569" y1="0.813118" x2="0.0192308" y2="1" style="stroke:rgb(246,147,147);stroke-width:0.01" />
<line x1="0" y1="1" x2="0.0192308" y2="1" style="stroke:rgb(246,147,147);stroke-width:0.01" />
</g>
</svg>
