<svg xmlns="http://www.w3.org/2000/svg" viewBox="-1.5 -1.5 3 3">
<g transform="scale(1, -1)">
<path d="M-0.554922 -0.259056 L0.563101 -0.137909 L0.593635 0.024497 L0.485470 0.044833 L0.455761 0.114766 L0.385900 0.101542 L0.377345 0.135990 L0.215028 0.095678 L-0.389147 0.209268 L-0.438749 -0.054559 L-0.549865 -0.075592 L-0.550384 -0.094415 L-0.593172 -0.105042 z " fill="rgb(245,195,195)" />
<path d="M-1.535576 -1.054833 L-0.535576 -1.054833 L-0.535576 -0.054833 L-1.535576 -0.054833  z" fill="none" stroke="rgb(128,128,128)" stroke-width="0.01" />
<line x1="0.563101" y1="-0.137909" x2="0.593635" y2="0.0244967" style="stroke:rgb(246,147,147);stroke-width:0.01" />
<line x1="-0.475579" y1="-0.250459" x2="-0.389147" y2="0.209268" style="stroke:rgb(246,147,147);stroke-width:0.01" />
<line x1="0.448454" y1="-0.150332" x2="0.455761" y2="0.114766" style="stroke:rgb(246,147,147);stroke-width:0.01" />
<line x1="-0.554922" y1="-0.259056" x2="-0.549865" y2="-0.0755924" style="stroke:rgb(246,147,147);stroke-width:0.01" />
<line x1="-0.554922" y1="-0.259056" x2="-0.593172" y2="-0.105042" style="stroke:rgb(246,147,147);stroke-width:0.01" />
<line x1="-0.475579" y1="-0.250459" x2="-0.549865" y2="-0.0755924" style="stroke:rgb(246,147,147);stroke-width:0.01" />
<line x1="0.448454" y1="-0.150332" x2="0.377345" y2="0.13599" style="stroke:rgb(246,147,147);stroke-width:0.01" />
<line x1="-0.593172" y1="-0.105042" x2="0.377345" y2="0.13599" style="stroke:rgb(246,147,147);stroke-width:0.01" />
<line x1="-0.554922" y1="-0.259056" x2="0.563101" y2="-0.137909" style="stroke:rgb(246,147,147);stroke-width:0.01" />
<line x1="-0.549865" y1="-0.0755924" x2="0.455761" y2="0.114766" style="stroke:rgb(246,147,147);stroke-width:0.01" />
<line x1="0.563101" y1="-0.137909" x2="0.455761" y2="0.114766" style="stroke:rgb(246,147,147);stroke-width:0.01" />
<line x1="0.593635" y1="0.0244967" x2="-0.389147" y2="0.209268" style="stroke:rgb(246,147,147);stroke-width:0.01" />
</g>
</svg>
