<svg xmlns="http://www.w3.org/2000/svg" viewBox="-1.5 -1.5 3 3">
<g transform="scale(1, -1)">
<path d="M0.980654 0.795776 L2.098677 0.916924 L2.129211 1.079329 L2.021046 1.099665 L1.991337 1.169599 L1.921477 1.156375 L1.912921 1.190823 L1.750604 1.150510 L1.146429 1.264100 L1.096828 1.000274 L0.985711 0.979240 L0.985192 0.960417 L0.942404 0.949791 z " fill="rgb(245,195,195)" />
<path d="M0.000000 0.000000 L1.000000 0.000000 L1.000000 1.000000 L0.000000 1.000000  z" fill="none" stroke="rgb(128,128,128)" stroke-width="0.01" />
<line x1="2.09868" y1="0.916924" x2="2.12921" y2="1.07933" style="stroke:rgb(246,147,147);stroke-width:0.01" />
<line x1="1.06" y1="0.804374" x2="1.14643" y2="1.2641" style="stroke:rgb(246,147,147);stroke-width:0.01" />
<line x1="1.98403" y1="0.904501" x2="1.99134" y2="1.1696" style="stroke:rgb(246,147,147);stroke-width:0.01" />
<line x1="0.980654" y1="0.795776" x2="0.985711" y2="0.97924" style="stroke:rgb(246,147,147);stroke-width:0.01" />
<line x1="0.980654" y1="0.795776" x2="0.942404" y2="0.949791" style="stroke:rgb(246,147,147);stroke-width:0.01" />
<line x1="1.06" y1="0.804374" x2="0.985711" y2="0.97924" style="stroke:rgb(246,147,147);stroke-width:0.01" />
<line x1="1.98403" y1="0.904501" x2="1.91292" y2="1.19082" style="stroke:rgb(246,147,147);stroke-width:0.01" />
<line x1="0.942404" y1="0.949791" x2="1.91292" y2="1.19082" style="stroke:rgb(246,147,147);stroke-width:0.01" />
<line x1="0.980654" y1="0.795776" x2="2.09868" y2="0.916924" style="stroke:rgb(246,147,147);stroke-width:0.01" />
<line x1="0.985711" y1="0.97924" x2="1.99134" y2="1.1696" style="stroke:rgb(246,147,147);stroke-width:0.01" />
<line x1="2.09868" y1="0.916924" x2="1.99134" y2="1.1696" style="stroke:rgb(246,147,147);stroke-width:0.01" />
<line x1="2.12921" y1="1.07933" x2="1.14643" y2="1.2641" style="stroke:rgb(246,147,147);stroke-width:0.01" />
</g>
</svg>
