<svg xmlns="http://www.w3.org/2000/svg" viewBox="-1.5 -1.5 3 3">
<g transform="scale(1, -1)">
<path d="M0.143403 -0.588311 L0.225267 -0.555954 L0.341280 0.017526 L0.192336 0.713000 L0.083362 0.755673 L-0.016906 0.499621 L-0.425876 0.082565 L-0.248380 -0.091490 L-0.281270 -0.175479 L-0.083923 -0.252758 L0.070708 -0.404391 z " fill="rgb(245,195,195)" />
<path d="M0.238748 2.608295 L1.238748 2.608295 L1.238748 3.608295 L0.238748 3.608295  z" fill="none" stroke="rgb(128,128,128)" stroke-width="0.01" />
<line x1="0.259405" y1="-0.387203" x2="0.0618867" y2="-0.382073" style="stroke:rgb(246,147,147);stroke-width:0.01" />
<line x1="0.143403" y1="-0.588311" x2="0.225267" y2="-0.555954" style="stroke:rgb(246,147,147);stroke-width:0.01" />
<line x1="0.259405" y1="-0.387203" x2="-0.28127" y2="-0.175479" style="stroke:rgb(246,147,147);stroke-width:0.01" />
<line x1="0.192336" y1="0.713" x2="0.0833616" y2="0.755673" style="stroke:rgb(246,147,147);stroke-width:0.01" />
<line x1="0.225267" y1="-0.555954" x2="-0.425876" y2="0.0825651" style="stroke:rgb(246,147,147);stroke-width:0.01" />
<line x1="-0.425876" y1="0.0825651" x2="0.192336" y2="0.713" style="stroke:rgb(246,147,147);stroke-width:0.01" />
<line x1="0.0618867" y1="-0.382073" x2="0.34128" y2="0.0175256" style="stroke:rgb(246,147,147);stroke-width:0.01" />
<line x1="0.143403" y1="-0.588311" x2="0.0618867" y2="-0.382073" style="stroke:rgb(246,147,147);stroke-width:0.01" />
<line x1="-0.28127" y1="-0.175479" x2="0.0833616" y2="0.755673" style="stroke:rgb(246,147,147);stroke-width:0.01" />
<line x1="0.225267" y1="-0.555954" x2="0.34128" y2="0.0175256" style="stroke:rgb(246,147,147);stroke-width:0.01" />
<line x1="0.34128" y1="0.0175256" x2="0.192336" y2="0.713" style="stroke:rgb(246,147,147);stroke-width:0.01" />
</g>
</svg>
