<svg xmlns="http://www.w3.org/2000/svg" viewBox="-1.5 -1.5 3 3">
<g transform="scale(1, -1)">
<path d="M-0.095345 -3.196606 L-0.013481 -3.164249 L0.102532 -2.590769 L-0.046412 -1.895296 L-0.155386 -1.852622 L-0.255654 -2.108675 L-0.664624 -2.525730 L-0.487128 -2.699785 L-0.520018 -2.783774 L-0.322671 -2.861054 L-0.168040 -3.012687 z " fill="rgb(245,195,195)" />
<path d="M0.000000 0.000000 L1.000000 0.000000 L1.000000 1.000000 L0.000000 1.000000  z" fill="none" stroke="rgb(128,128,128)" stroke-width="0.01" />
<line x1="0.0206571" y1="-2.9955" x2="-0.176861" y2="-2.99037" style="stroke:rgb(246,147,147);stroke-width:0.01" />
<line x1="-0.0953451" y1="-3.19661" x2="-0.0134805" y2="-3.16425" style="stroke:rgb(246,147,147);stroke-width:0.01" />
<line x1="0.0206571" y1="-2.9955" x2="-0.520018" y2="-2.78377" style="stroke:rgb(246,147,147);stroke-width:0.01" />
<line x1="-0.0464121" y1="-1.8953" x2="-0.155386" y2="-1.85262" style="stroke:rgb(246,147,147);stroke-width:0.01" />
<line x1="-0.0134805" y1="-3.16425" x2="-0.664624" y2="-2.52573" style="stroke:rgb(246,147,147);stroke-width:0.01" />
<line x1="-0.664624" y1="-2.52573" x2="-0.0464121" y2="-1.8953" style="stroke:rgb(246,147,147);stroke-width:0.01" />
<line x1="-0.176861" y1="-2.99037" x2="0.102532" y2="-2.59077" style="stroke:rgb(246,147,147);stroke-width:0.01" />
<line x1="-0.0953451" y1="-3.19661" x2="-0.176861" y2="-2.99037" style="stroke:rgb(246,147,147);stroke-width:0.01" />
<line x1="-0.520018" y1="-2.78377" x2="-0.155386" y2="-1.85262" style="stroke:rgb(246,147,147);stroke-width:0.01" />
<line x1="-0.0134805" y1="-3.16425" x2="0.102532" y2="-2.59077" style="stroke:rgb(246,147,147);stroke-width:0.01" />
<line x1="0.102532" y1="-2.59077" x2="-0.0464121" y2="-1.8953" style="stroke:rgb(246,147,147);stroke-width:0.01" />
</g>
</svg>
