<svg xmlns="http://www.w3.org/2000/svg" viewBox="-1.5 -1.5 3 3">
<g transform="scale(1, -1)">
<path d="M0.083335 -0.472742 L0.413008 -0.142631 L0.254278 0.654059 L-0.018433 0.693858 L-0.050825 0.471900 L-0.367701 0.282713 L-0.135254 -0.106620 L-0.162842 -0.295661 L-0.008983 -0.318114 L0.013321 -0.355472 L-0.019904 -0.411289 z " fill="rgb(245,195,195)" />
<path d="M1.217416 0.547308 L2.217416 0.547308 L2.217416 1.547308 L1.217416 1.547308  z" fill="none" stroke="rgb(128,128,128)" stroke-width="0.01" />
<line x1="0.0833355" y1="-0.472742" x2="-0.0199042" y2="-0.411289" style="stroke:rgb(246,147,147);stroke-width:0.01" />
<line x1="0.206371" y1="-0.349543" x2="-0.162842" y2="-0.295661" style="stroke:rgb(246,147,147);stroke-width:0.01" />
<line x1="0.413008" y1="-0.142631" x2="0.168776" y2="-0.0943076" style="stroke:rgb(246,147,147);stroke-width:0.01" />
<line x1="0.0833355" y1="-0.472742" x2="-0.367701" y2="0.282713" style="stroke:rgb(246,147,147);stroke-width:0.01" />
<line x1="0.413008" y1="-0.142631" x2="0.254278" y2="0.654059" style="stroke:rgb(246,147,147);stroke-width:0.01" />
<line x1="0.206371" y1="-0.349543" x2="0.168776" y2="-0.0943076" style="stroke:rgb(246,147,147);stroke-width:0.01" />
<line x1="0.254278" y1="0.654059" x2="-0.0184333" y2="0.693858" style="stroke:rgb(246,147,147);stroke-width:0.01" />
<line x1="0.0833355" y1="-0.472742" x2="0.413008" y2="-0.142631" style="stroke:rgb(246,147,147);stroke-width:0.01" />
<line x1="-0.162842" y1="-0.295661" x2="-0.0184333" y2="0.693858" style="stroke:rgb(246,147,147);stroke-width:0.01" />
<line x1="-0.0199042" y1="-0.411289" x2="0.168776" y2="-0.0943076" style="stroke:rgb(246,147,147);stroke-width:0.01" />
<line x1="-0.367701" y1="0.282713" x2="0.254278" y2="0.654059" style="stroke:rgb(246,147,147);stroke-width:0.01" />
</g>
</svg>
