<svg xmlns="http://www.w3.org/2000/svg" viewBox="-1.5 -1.5 3 3">
<g transform="scale(1, -1)">
<path d="M-1.134081 -1.020049 L-0.804408 -0.689939 L-0.963139 0.106751 L-1.235850 0.146550 L-1.268242 -0.075408 L-1.585117 -0.264595 L-1.352670 -0.653928 L-1.380258 -0.842968 L-1.226400 -0.865422 L-1.204096 -0.902779 L-1.237321 -0.958597 z " fill="rgb(245,195,195)" />
<path d="M0.000000 0.000000 L1.000000 0.000000 L1.000000 1.000000 L0.000000 1.000000  z" fill="none" stroke="rgb(128,128,128)" stroke-width="0.01" />
<line x1="-1.13408" y1="-1.02005" x2="-1.23732" y2="-0.958597" style="stroke:rgb(246,147,147);stroke-width:0.01" />
<line x1="-1.01105" y1="-0.896851" x2="-1.38026" y2="-0.842968" style="stroke:rgb(246,147,147);stroke-width:0.01" />
<line x1="-0.804408" y1="-0.689939" x2="-1.04864" y2="-0.641615" style="stroke:rgb(246,147,147);stroke-width:0.01" />
<line x1="-1.13408" y1="-1.02005" x2="-1.58512" y2="-0.264595" style="stroke:rgb(246,147,147);stroke-width:0.01" />
<line x1="-0.804408" y1="-0.689939" x2="-0.963139" y2="0.106751" style="stroke:rgb(246,147,147);stroke-width:0.01" />
<line x1="-1.01105" y1="-0.896851" x2="-1.04864" y2="-0.641615" style="stroke:rgb(246,147,147);stroke-width:0.01" />
<line x1="-0.963139" y1="0.106751" x2="-1.23585" y2="0.14655" style="stroke:rgb(246,147,147);stroke-width:0.01" />
<line x1="-1.13408" y1="-1.02005" x2="-0.804408" y2="-0.689939" style="stroke:rgb(246,147,147);stroke-width:0.01" />
<line x1="-1.38026" y1="-0.842968" x2="-1.23585" y2="0.14655" style="stroke:rgb(246,147,147);stroke-width:0.01" />
<line x1="-1.23732" y1="-0.958597" x2="-1.04864" y2="-0.641615" style="stroke:rgb(246,147,147);stroke-width:0.01" />
<line x1="-1.58512" y1="-0.264595" x2="-0.963139" y2="0.106751" style="stroke:rgb(246,147,147);stroke-width:0.01" />
</g>
</svg>
