<svg xmlns="http://www.w3.org/2000/svg" viewBox="-1.5 -1.5 3 3">
<g transform="scale(1, -1)">
<path d="M-0.096330 -0.703192 L-0.033023 -0.687042 L0.559514 0.075634 L0.458793 0.470452 L-0.252129 0.289090 L-0.255476 0.298933 L-0.381348 0.256125 z " fill="rgb(245,195,195)" />
<path d="M-0.033023 -0.924366 L0.966977 -0.924366 L0.966977 0.075634 L-0.033023 0.075634  z" fill="none" stroke="rgb(128,128,128)" stroke-width="0.01" />
<line x1="-0.0330234" y1="-0.687042" x2="-0.0330234" y2="0.0756341" style="stroke:rgb(246,147,147);stroke-width:0.01" />
<line x1="-0.0963299" y1="-0.703192" x2="-0.381348" y2="0.256125" style="stroke:rgb(246,147,147);stroke-width:0.01" />
<line x1="-0.0273428" y1="-0.67973" x2="-0.0196154" y2="-0.580909" style="stroke:rgb(246,147,147);stroke-width:0.01" />
<line x1="0.0454785" y1="-0.585999" x2="-0.255476" y2="0.298933" style="stroke:rgb(246,147,147);stroke-width:0.01" />
<line x1="-0.0330234" y1="-0.687042" x2="0.559514" y2="0.0756341" style="stroke:rgb(246,147,147);stroke-width:0.01" />
<line x1="0.559514" y1="0.0756341" x2="0.458793" y2="0.470452" style="stroke:rgb(246,147,147);stroke-width:0.01" />
<line x1="-0.0963299" y1="-0.703192" x2="-0.0273428" y2="-0.67973" style="stroke:rgb(246,147,147);stroke-width:0.01" />
<line x1="-0.0963299" y1="-0.703192" x2="-0.0330234" y2="-0.687042" style="stroke:rgb(246,147,147);stroke-width:0.01" />
<line x1="0.0454785" y1="-0.585999" x2="-0.0196154" y2="-0.580909" style="stroke:rgb(246,147,147);stroke-width:0.01" />
<line x1="-0.0330234" y1="0.0756341" x2="0.559514" y2="0.0756341" style="stroke:rgb(246,147,147);stroke-width:0.01" />
<line x1="-0.381348" y1="0.256125" x2="-0.255476" y2="0.298933" style="stroke:rgb(246,147,147);stroke-width:0.01" />
<line x1="-0.381348" y1="0.256125" x2="0.458793" y2="0.470452" style="stroke:rgb(246,147,147);stroke-width:0.01" />
</g>
</svg>
