<svg xmlns="http://www.w3.org/2000/svg" viewBox="-1.5 -1.5 3 3">
<g transform="scale(1, -1)">
<path d="M0.000000 0.228287 L0.811548 1.000000 L0.821024 1.188214 L0.331448 1.212865 L-0.184027 1.113056 L-0.227998 0.239766 z " fill="rgb(245,195,195)" />
<path d="M0.000000 0.000000 L1.000000 0.000000 L1.000000 1.000000 L0.000000 1.000000  z" fill="none" stroke="rgb(128,128,128)" stroke-width="0.01" />
<line x1="0.811548" y1="1" x2="0.821024" y2="1.18821" style="stroke:rgb(246,147,147);stroke-width:0.01" />
<line x1="0" y1="0.228287" x2="0" y2="1" style="stroke:rgb(246,147,147);stroke-width:0.01" />
<line x1="-0.227998" y1="0.239766" x2="-0.184027" y2="1.11306" style="stroke:rgb(246,147,147);stroke-width:0.01" />
<line x1="0" y1="0.228287" x2="0.811548" y2="1" style="stroke:rgb(246,147,147);stroke-width:0.01" />
<line x1="-0.131344" y1="0.999035" x2="-0.184027" y2="1.11306" style="stroke:rgb(246,147,147);stroke-width:0.01" />
<line x1="0" y1="0.228287" x2="-0.227998" y2="0.239766" style="stroke:rgb(246,147,147);stroke-width:0.01" />
<line x1="-0.131344" y1="0.999035" x2="0.331448" y2="1.21286" style="stroke:rgb(246,147,147);stroke-width:0.01" />
<line x1="0" y1="1" x2="0.811548" y2="1" style="stroke:rgb(246,147,147);stroke-width:0.01" />
<line x1="-0.184027" y1="1.11306" x2="0.331448" y2="1.21286" style="stroke:rgb(246,147,147);stroke-width:0.01" />
<line x1="0.821024" y1="1.18821" x2="0.331448" y2="1.21286" style="stroke:rgb(246,147,147);stroke-width:0.01" />
</g>
</svg>
