<svg xmlns="http://www.w3.org/2000/svg" viewBox="-1.5 -1.5 3 3">
<g transform="scale(1, -1)">
<path d="M-0.258666 -0.602078 L0.552882 0.169635 L0.562358 0.357849 L0.072782 0.382500 L-0.442693 0.282692 L-0.486664 -0.590598 z " fill="rgb(245,195,195)" />
<path d="M-0.258666 -0.830365 L0.741334 -0.830365 L0.741334 0.169635 L-0.258666 0.169635  z" fill="none" stroke="rgb(128,128,128)" stroke-width="0.01" />
<line x1="0.552882" y1="0.169635" x2="0.562358" y2="0.357849" style="stroke:rgb(246,147,147);stroke-width:0.01" />
<line x1="-0.258666" y1="-0.602078" x2="-0.258666" y2="0.169635" style="stroke:rgb(246,147,147);stroke-width:0.01" />
<line x1="-0.486664" y1="-0.590598" x2="-0.442693" y2="0.282692" style="stroke:rgb(246,147,147);stroke-width:0.01" />
<line x1="-0.258666" y1="-0.602078" x2="0.552882" y2="0.169635" style="stroke:rgb(246,147,147);stroke-width:0.01" />
<line x1="-0.39001" y1="0.16867" x2="-0.442693" y2="0.282692" style="stroke:rgb(246,147,147);stroke-width:0.01" />
<line x1="-0.258666" y1="-0.602078" x2="-0.486664" y2="-0.590598" style="stroke:rgb(246,147,147);stroke-width:0.01" />
<line x1="-0.39001" y1="0.16867" x2="0.0727825" y2="0.3825" style="stroke:rgb(246,147,147);stroke-width:0.01" />
<line x1="-0.258666" y1="0.169635" x2="0.552882" y2="0.169635" style="stroke:rgb(246,147,147);stroke-width:0.01" />
<line x1="-0.442693" y1="0.282692" x2="0.0727825" y2="0.3825" style="stroke:rgb(246,147,147);stroke-width:0.01" />
<line x1="0.562358" y1="0.357849" x2="0.0727825" y2="0.3825" style="stroke:rgb(246,147,147);stroke-width:0.01" />
</g>
</svg>
