<svg xmlns="http://www.w3.org/2000/svg" viewBox="-1.5 -1.5 3 3">
<g transform="scale(1, -1)">
<path d="M-0.255315 -0.621916 L0.668433 -0.238916 L0.530460 0.093857 L-0.109298 0.521171 L-0.387461 0.405840 L-0.446819 -0.160034 z " fill="rgb(245,195,195)" />
<path d="M-0.109298 0.093857 L0.890702 0.093857 L0.890702 1.093857 L-0.109298 1.093857  z" fill="none" stroke="rgb(128,128,128)" stroke-width="0.01" />
<line x1="-0.255315" y1="-0.621916" x2="0.668433" y2="-0.238916" style="stroke:rgb(246,147,147);stroke-width:0.01" />
<line x1="-0.255315" y1="-0.621916" x2="-0.446819" y2="-0.160034" style="stroke:rgb(246,147,147);stroke-width:0.01" />
<line x1="-0.109298" y1="0.0938565" x2="0.53046" y2="0.0938565" style="stroke:rgb(246,147,147);stroke-width:0.01" />
<line x1="-0.109298" y1="0.0938565" x2="-0.109298" y2="0.521171" style="stroke:rgb(246,147,147);stroke-width:0.01" />
<line x1="-0.446819" y1="-0.160034" x2="-0.387461" y2="0.40584" style="stroke:rgb(246,147,147);stroke-width:0.01" />
<line x1="-0.446819" y1="-0.160034" x2="-0.16365" y2="0.252042" style="stroke:rgb(246,147,147);stroke-width:0.01" />
<line x1="-0.16365" y1="0.252042" x2="-0.387461" y2="0.40584" style="stroke:rgb(246,147,147);stroke-width:0.01" />
<line x1="0.668433" y1="-0.238916" x2="0.53046" y2="0.0938565" style="stroke:rgb(246,147,147);stroke-width:0.01" />
<line x1="0.53046" y1="0.0938565" x2="-0.109298" y2="0.521171" style="stroke:rgb(246,147,147);stroke-width:0.01" />
<line x1="-0.387461" y1="0.40584" x2="-0.109298" y2="0.521171" style="stroke:rgb(246,147,147);stroke-width:0.01" />
</g>
</svg>
