<svg xmlns="http://www.w3.org/2000/svg" viewBox="-1.5 -1.5 3 3">
<g transform="scale(1, -1)">
<path d="M1.021709 0.919647 L1.826934 1.512707 L1.749583 1.620040 L1.747360 1.618438 L1.305160 2.205998 L0.918441 1.914952 L0.780136 1.240630 z " fill="rgb(245,195,195)" />
<path d="M0.000000 0.000000 L1.000000 0.000000 L1.000000 1.000000 L0.000000 1.000000  z" fill="none" stroke="rgb(128,128,128)" stroke-width="0.01" />
<line x1="0.780136" y1="1.24063" x2="0.918441" y2="1.91495" style="stroke:rgb(246,147,147);stroke-width:0.01" />
<line x1="1.02171" y1="0.919647" x2="1.82693" y2="1.51271" style="stroke:rgb(246,147,147);stroke-width:0.01" />
<line x1="0.938305" y1="1.03538" x2="1.74958" y2="1.62004" style="stroke:rgb(246,147,147);stroke-width:0.01" />
<line x1="0.780136" y1="1.24063" x2="1.17529" y2="1.46742" style="stroke:rgb(246,147,147);stroke-width:0.01" />
<line x1="0.918441" y1="1.91495" x2="1.30516" y2="2.206" style="stroke:rgb(246,147,147);stroke-width:0.01" />
<line x1="1.02171" y1="0.919647" x2="0.938305" y2="1.03538" style="stroke:rgb(246,147,147);stroke-width:0.01" />
<line x1="1.02171" y1="0.919647" x2="0.780136" y2="1.24063" style="stroke:rgb(246,147,147);stroke-width:0.01" />
<line x1="1.17529" y1="1.46742" x2="0.918441" y2="1.91495" style="stroke:rgb(246,147,147);stroke-width:0.01" />
<line x1="1.82693" y1="1.51271" x2="1.74958" y2="1.62004" style="stroke:rgb(246,147,147);stroke-width:0.01" />
<line x1="1.82693" y1="1.51271" x2="1.30516" y2="2.206" style="stroke:rgb(246,147,147);stroke-width:0.01" />
</g>
</svg>
