<svg xmlns="http://www.w3.org/2000/svg" viewBox="-1.5 -1.5 3 3">
<g transform="scale(1, -1)">
<path d="M-2.937234 2.127589 L-2.568912 2.254129 L-2.577460 2.317771 L-2.731598 2.491499 L-2.989528 2.402885 L-2.969944 2.345883 L-3.033275 2.244125 L-3.004805 2.209580 L-2.981453 2.195046 L-2.985241 2.185841 z " fill="rgb(245,195,195)" />
<path d="M0.000000 0.000000 L1.000000 0.000000 L1.000000 1.000000 L0.000000 1.000000  z" fill="none" stroke="rgb(128,128,128)" stroke-width="0.01" />
<line x1="-3.00481" y1="2.20958" x2="-3.01993" y2="2.24922" style="stroke:rgb(246,147,147);stroke-width:0.01" />
<line x1="-2.8416" y1="2.16045" x2="-2.85045" y2="2.17796" style="stroke:rgb(246,147,147);stroke-width:0.01" />
<line x1="-2.82723" y1="2.16538" x2="-2.93053" y2="2.37196" style="stroke:rgb(246,147,147);stroke-width:0.01" />
<line x1="-2.85302" y1="2.35109" x2="-2.89553" y2="2.43518" style="stroke:rgb(246,147,147);stroke-width:0.01" />
<line x1="-2.89941" y1="2.14058" x2="-2.98953" y2="2.40289" style="stroke:rgb(246,147,147);stroke-width:0.01" />
<line x1="-2.73404" y1="2.31981" x2="-2.79699" y2="2.46903" style="stroke:rgb(246,147,147);stroke-width:0.01" />
<line x1="-2.72785" y1="2.35663" x2="-2.75773" y2="2.43744" style="stroke:rgb(246,147,147);stroke-width:0.01" />
<line x1="-2.70097" y1="2.45138" x2="-2.70546" y2="2.46204" style="stroke:rgb(246,147,147);stroke-width:0.01" />
<line x1="-2.93723" y1="2.12759" x2="-2.98524" y2="2.18584" style="stroke:rgb(246,147,147);stroke-width:0.01" />
<line x1="-3.00481" y1="2.20958" x2="-3.03328" y2="2.24412" style="stroke:rgb(246,147,147);stroke-width:0.01" />
<line x1="-2.56891" y1="2.25413" x2="-2.66104" y2="2.41197" style="stroke:rgb(246,147,147);stroke-width:0.01" />
<line x1="-2.63914" y1="2.23" x2="-2.78228" y2="2.45086" style="stroke:rgb(246,147,147);stroke-width:0.01" />
<line x1="-2.7802" y1="2.4066" x2="-2.79699" y2="2.46903" style="stroke:rgb(246,147,147);stroke-width:0.01" />
<line x1="-2.82723" y1="2.16538" x2="-2.83731" y2="2.21555" style="stroke:rgb(246,147,147);stroke-width:0.01" />
<line x1="-2.8416" y1="2.16045" x2="-2.89553" y2="2.43518" style="stroke:rgb(246,147,147);stroke-width:0.01" />
<line x1="-2.69187" y1="2.35237" x2="-2.70681" y2="2.46356" style="stroke:rgb(246,147,147);stroke-width:0.01" />
<line x1="-2.56891" y1="2.25413" x2="-2.57746" y2="2.31777" style="stroke:rgb(246,147,147);stroke-width:0.01" />
<line x1="-2.57746" y1="2.31777" x2="-2.7316" y2="2.4915" style="stroke:rgb(246,147,147);stroke-width:0.01" />
<line x1="-2.63914" y1="2.23" x2="-2.65431" y2="2.40439" style="stroke:rgb(246,147,147);stroke-width:0.01" />
<line x1="-2.93473" y1="2.41648" x2="-2.93937" y2="2.42012" style="stroke:rgb(246,147,147);stroke-width:0.01" />
<line x1="-2.93723" y1="2.12759" x2="-2.93053" y2="2.37196" style="stroke:rgb(246,147,147);stroke-width:0.01" />
<line x1="-2.66821" y1="2.22002" x2="-2.93806" y2="2.42057" style="stroke:rgb(246,147,147);stroke-width:0.01" />
<line x1="-2.89589" y1="2.14179" x2="-3.00481" y2="2.20958" style="stroke:rgb(246,147,147);stroke-width:0.01" />
<line x1="-2.66104" y1="2.41197" x2="-2.74085" y2="2.47236" style="stroke:rgb(246,147,147);stroke-width:0.01" />
<line x1="-2.74393" y1="2.36241" x2="-2.8805" y2="2.44034" style="stroke:rgb(246,147,147);stroke-width:0.01" />
<line x1="-2.72742" y1="2.35652" x2="-2.71477" y2="2.41703" style="stroke:rgb(246,147,147);stroke-width:0.01" />
<line x1="-2.70546" y1="2.46204" x2="-2.74751" y2="2.48603" style="stroke:rgb(246,147,147);stroke-width:0.01" />
<line x1="-2.70651" y1="2.44637" x2="-2.70338" y2="2.45969" style="stroke:rgb(246,147,147);stroke-width:0.01" />
<line x1="-2.70097" y1="2.45138" x2="-2.69988" y2="2.45575" style="stroke:rgb(246,147,147);stroke-width:0.01" />
<line x1="-2.95021" y1="2.37664" x2="-2.93937" y2="2.42012" style="stroke:rgb(246,147,147);stroke-width:0.01" />
<line x1="-2.66821" y1="2.22002" x2="-2.62603" y2="2.37251" style="stroke:rgb(246,147,147);stroke-width:0.01" />
<line x1="-2.95021" y1="2.37664" x2="-2.93806" y2="2.42057" style="stroke:rgb(246,147,147);stroke-width:0.01" />
<line x1="-2.72742" y1="2.35652" x2="-2.72722" y2="2.35717" style="stroke:rgb(246,147,147);stroke-width:0.01" />
<line x1="-2.69187" y1="2.35237" x2="-2.8942" y2="2.43564" style="stroke:rgb(246,147,147);stroke-width:0.01" />
<line x1="-2.74393" y1="2.36241" x2="-2.91949" y2="2.42695" style="stroke:rgb(246,147,147);stroke-width:0.01" />
<line x1="-2.89589" y1="2.14179" x2="-2.78228" y2="2.45086" style="stroke:rgb(246,147,147);stroke-width:0.01" />
<line x1="-2.87019" y1="2.15062" x2="-2.90649" y2="2.16119" style="stroke:rgb(246,147,147);stroke-width:0.01" />
<line x1="-2.7802" y1="2.4066" x2="-2.74751" y2="2.48603" style="stroke:rgb(246,147,147);stroke-width:0.01" />
<line x1="-2.98524" y1="2.18584" x2="-2.8805" y2="2.44034" style="stroke:rgb(246,147,147);stroke-width:0.01" />
<line x1="-2.74393" y1="2.36241" x2="-2.7003" y2="2.45622" style="stroke:rgb(246,147,147);stroke-width:0.01" />
<line x1="-2.73404" y1="2.31981" x2="-2.98352" y2="2.3854" style="stroke:rgb(246,147,147);stroke-width:0.01" />
<line x1="-2.75773" y1="2.43744" x2="-2.7316" y2="2.4915" style="stroke:rgb(246,147,147);stroke-width:0.01" />
<line x1="-2.57746" y1="2.31777" x2="-2.72785" y2="2.35663" style="stroke:rgb(246,147,147);stroke-width:0.01" />
<line x1="-2.70681" y1="2.46356" x2="-2.74085" y2="2.47236" style="stroke:rgb(246,147,147);stroke-width:0.01" />
<line x1="-2.65431" y1="2.40439" x2="-2.71477" y2="2.41703" style="stroke:rgb(246,147,147);stroke-width:0.01" />
<line x1="-2.93053" y1="2.37196" x2="-2.8942" y2="2.43564" style="stroke:rgb(246,147,147);stroke-width:0.01" />
<line x1="-2.85045" y1="2.17796" x2="-2.91397" y2="2.18297" style="stroke:rgb(246,147,147);stroke-width:0.01" />
<line x1="-3.03328" y1="2.24412" x2="-2.91949" y2="2.42695" style="stroke:rgb(246,147,147);stroke-width:0.01" />
<line x1="-2.87019" y1="2.15062" x2="-2.85045" y2="2.17796" style="stroke:rgb(246,147,147);stroke-width:0.01" />
<line x1="-2.90649" y1="2.16119" x2="-2.69649" y2="2.45192" style="stroke:rgb(246,147,147);stroke-width:0.01" />
<line x1="-2.7802" y1="2.4066" x2="-2.94756" y2="2.4173" style="stroke:rgb(246,147,147);stroke-width:0.01" />
<line x1="-2.70097" y1="2.45138" x2="-2.69853" y2="2.45423" style="stroke:rgb(246,147,147);stroke-width:0.01" />
<line x1="-2.91397" y1="2.18297" x2="-2.66214" y2="2.41321" style="stroke:rgb(246,147,147);stroke-width:0.01" />
<line x1="-2.98524" y1="2.18584" x2="-2.83731" y2="2.21555" style="stroke:rgb(246,147,147);stroke-width:0.01" />
<line x1="-2.72785" y1="2.35663" x2="-2.66214" y2="2.41321" style="stroke:rgb(246,147,147);stroke-width:0.01" />
<line x1="-2.72722" y1="2.35717" x2="-2.62603" y2="2.37251" style="stroke:rgb(246,147,147);stroke-width:0.01" />
<line x1="-2.78228" y1="2.45086" x2="-2.70338" y2="2.45969" style="stroke:rgb(246,147,147);stroke-width:0.01" />
<line x1="-2.91394" y1="2.42885" x2="-2.69988" y2="2.45575" style="stroke:rgb(246,147,147);stroke-width:0.01" />
<line x1="-2.73404" y1="2.31981" x2="-2.69187" y2="2.35237" style="stroke:rgb(246,147,147);stroke-width:0.01" />
<line x1="-2.93723" y1="2.12759" x2="-2.56891" y2="2.25413" style="stroke:rgb(246,147,147);stroke-width:0.01" />
<line x1="-2.98352" y1="2.3854" x2="-2.94756" y2="2.4173" style="stroke:rgb(246,147,147);stroke-width:0.01" />
<line x1="-2.85302" y1="2.35109" x2="-2.69853" y2="2.45423" style="stroke:rgb(246,147,147);stroke-width:0.01" />
<line x1="-3.03328" y1="2.24412" x2="-3.01993" y2="2.24922" style="stroke:rgb(246,147,147);stroke-width:0.01" />
<line x1="-2.75773" y1="2.43744" x2="-2.7003" y2="2.45622" style="stroke:rgb(246,147,147);stroke-width:0.01" />
<line x1="-2.70651" y1="2.44637" x2="-2.69649" y2="2.45192" style="stroke:rgb(246,147,147);stroke-width:0.01" />
<line x1="-2.98953" y1="2.40289" x2="-2.7316" y2="2.4915" style="stroke:rgb(246,147,147);stroke-width:0.01" />
<line x1="-2.93473" y1="2.41648" x2="-2.91394" y2="2.42885" style="stroke:rgb(246,147,147);stroke-width:0.01" />
</g>
</svg>
