<svg xmlns="http://www.w3.org/2000/svg" viewBox="-1.5 -1.5 3 3">
<g transform="scale(1, -1)">
<path d="M-0.059289 -0.149846 L0.309034 -0.023305 L0.300485 0.040336 L0.146347 0.214064 L-0.111583 0.125450 L-0.091999 0.068449 L-0.155330 -0.033310 L-0.126860 -0.067855 L-0.103508 -0.082389 L-0.107296 -0.091594 z " fill="rgb(245,195,195)" />
<path d="M2.877945 -2.277435 L3.877945 -2.277435 L3.877945 -1.277435 L2.877945 -1.277435  z" fill="none" stroke="rgb(128,128,128)" stroke-width="0.01" />
<line x1="-0.12686" y1="-0.0678551" x2="-0.141983" y2="-0.0282177" style="stroke:rgb(246,147,147);stroke-width:0.01" />
<line x1="0.0363471" y1="-0.116989" x2="0.0274962" y2="-0.099479" style="stroke:rgb(246,147,147);stroke-width:0.01" />
<line x1="0.0507104" y1="-0.112054" x2="-0.052583" y2="0.0945283" style="stroke:rgb(246,147,147);stroke-width:0.01" />
<line x1="0.0249229" y1="0.0736563" x2="-0.0175819" y2="0.157745" style="stroke:rgb(246,147,147);stroke-width:0.01" />
<line x1="-0.0214667" y1="-0.136851" x2="-0.111583" y2="0.12545" style="stroke:rgb(246,147,147);stroke-width:0.01" />
<line x1="0.143902" y1="0.0423772" x2="0.0809594" y2="0.1916" style="stroke:rgb(246,147,147);stroke-width:0.01" />
<line x1="0.150099" y1="0.0791997" x2="0.120216" y2="0.160009" style="stroke:rgb(246,147,147);stroke-width:0.01" />
<line x1="0.17698" y1="0.173944" x2="0.172482" y2="0.184609" style="stroke:rgb(246,147,147);stroke-width:0.01" />
<line x1="-0.0592892" y1="-0.149846" x2="-0.107296" y2="-0.0915941" style="stroke:rgb(246,147,147);stroke-width:0.01" />
<line x1="-0.12686" y1="-0.0678551" x2="-0.15533" y2="-0.03331" style="stroke:rgb(246,147,147);stroke-width:0.01" />
<line x1="0.309034" y1="-0.0233054" x2="0.216907" y2="0.134536" style="stroke:rgb(246,147,147);stroke-width:0.01" />
<line x1="0.238806" y1="-0.0474325" x2="0.0956622" y2="0.173429" style="stroke:rgb(246,147,147);stroke-width:0.01" />
<line x1="0.097748" y1="0.129165" x2="0.0809594" y2="0.1916" style="stroke:rgb(246,147,147);stroke-width:0.01" />
<line x1="0.0507104" y1="-0.112054" x2="0.0406349" y2="-0.0618851" style="stroke:rgb(246,147,147);stroke-width:0.01" />
<line x1="0.0363471" y1="-0.116989" x2="-0.0175819" y2="0.157745" style="stroke:rgb(246,147,147);stroke-width:0.01" />
<line x1="0.186074" y1="0.0749369" x2="0.171139" y2="0.186122" style="stroke:rgb(246,147,147);stroke-width:0.01" />
<line x1="0.309034" y1="-0.0233054" x2="0.300485" y2="0.040336" style="stroke:rgb(246,147,147);stroke-width:0.01" />
<line x1="0.300485" y1="0.040336" x2="0.146347" y2="0.214064" style="stroke:rgb(246,147,147);stroke-width:0.01" />
<line x1="0.238806" y1="-0.0474325" x2="0.223632" y2="0.126957" style="stroke:rgb(246,147,147);stroke-width:0.01" />
<line x1="-0.0567812" y1="0.139048" x2="-0.0614212" y2="0.142684" style="stroke:rgb(246,147,147);stroke-width:0.01" />
<line x1="-0.0592892" y1="-0.149846" x2="-0.052583" y2="0.0945283" style="stroke:rgb(246,147,147);stroke-width:0.01" />
<line x1="0.209739" y1="-0.0574187" x2="-0.0601125" y2="0.143133" style="stroke:rgb(246,147,147);stroke-width:0.01" />
<line x1="-0.0179439" y1="-0.135641" x2="-0.12686" y2="-0.0678551" style="stroke:rgb(246,147,147);stroke-width:0.01" />
<line x1="0.216907" y1="0.134536" x2="0.137093" y2="0.19492" style="stroke:rgb(246,147,147);stroke-width:0.01" />
<line x1="0.134011" y1="0.0849798" x2="-0.00255719" y2="0.162907" style="stroke:rgb(246,147,147);stroke-width:0.01" />
<line x1="0.150525" y1="0.0790895" x2="0.16318" y2="0.1396" style="stroke:rgb(246,147,147);stroke-width:0.01" />
<line x1="0.172482" y1="0.184609" x2="0.130438" y2="0.208599" style="stroke:rgb(246,147,147);stroke-width:0.01" />
<line x1="0.171439" y1="0.168935" x2="0.174569" y2="0.182256" style="stroke:rgb(246,147,147);stroke-width:0.01" />
<line x1="0.17698" y1="0.173944" x2="0.178069" y2="0.178311" style="stroke:rgb(246,147,147);stroke-width:0.01" />
<line x1="-0.0722612" y1="0.0992056" x2="-0.0614212" y2="0.142684" style="stroke:rgb(246,147,147);stroke-width:0.01" />
<line x1="0.209739" y1="-0.0574187" x2="0.251914" y2="0.0950797" style="stroke:rgb(246,147,147);stroke-width:0.01" />
<line x1="-0.0722612" y1="0.0992056" x2="-0.0601125" y2="0.143133" style="stroke:rgb(246,147,147);stroke-width:0.01" />
<line x1="0.150525" y1="0.0790895" x2="0.150726" y2="0.0797399" style="stroke:rgb(246,147,147);stroke-width:0.01" />
<line x1="0.186074" y1="0.0749369" x2="-0.0162499" y2="0.158203" style="stroke:rgb(246,147,147);stroke-width:0.01" />
<line x1="0.134011" y1="0.0849798" x2="-0.0415485" y2="0.149511" style="stroke:rgb(246,147,147);stroke-width:0.01" />
<line x1="-0.0179439" y1="-0.135641" x2="0.0956622" y2="0.173429" style="stroke:rgb(246,147,147);stroke-width:0.01" />
<line x1="0.00775174" y1="-0.126813" x2="-0.0285472" y2="-0.116242" style="stroke:rgb(246,147,147);stroke-width:0.01" />
<line x1="0.097748" y1="0.129165" x2="0.130438" y2="0.208599" style="stroke:rgb(246,147,147);stroke-width:0.01" />
<line x1="-0.107296" y1="-0.0915941" x2="-0.00255719" y2="0.162907" style="stroke:rgb(246,147,147);stroke-width:0.01" />
<line x1="0.134011" y1="0.0849798" x2="0.177646" y2="0.178787" style="stroke:rgb(246,147,147);stroke-width:0.01" />
<line x1="0.143902" y1="0.0423772" x2="-0.105575" y2="0.107964" style="stroke:rgb(246,147,147);stroke-width:0.01" />
<line x1="0.120216" y1="0.160009" x2="0.146347" y2="0.214064" style="stroke:rgb(246,147,147);stroke-width:0.01" />
<line x1="0.300485" y1="0.040336" x2="0.150099" y2="0.0791997" style="stroke:rgb(246,147,147);stroke-width:0.01" />
<line x1="0.171139" y1="0.186122" x2="0.137093" y2="0.19492" style="stroke:rgb(246,147,147);stroke-width:0.01" />
<line x1="0.223632" y1="0.126957" x2="0.16318" y2="0.1396" style="stroke:rgb(246,147,147);stroke-width:0.01" />
<line x1="-0.052583" y1="0.0945283" x2="-0.0162499" y2="0.158203" style="stroke:rgb(246,147,147);stroke-width:0.01" />
<line x1="0.0274962" y1="-0.099479" x2="-0.036029" y2="-0.0944647" style="stroke:rgb(246,147,147);stroke-width:0.01" />
<line x1="-0.15533" y1="-0.03331" x2="-0.0415485" y2="0.149511" style="stroke:rgb(246,147,147);stroke-width:0.01" />
<line x1="0.00775174" y1="-0.126813" x2="0.0274962" y2="-0.099479" style="stroke:rgb(246,147,147);stroke-width:0.01" />
<line x1="-0.0285472" y1="-0.116242" x2="0.181459" y2="0.17449" style="stroke:rgb(246,147,147);stroke-width:0.01" />
<line x1="0.097748" y1="0.129165" x2="-0.0696143" y2="0.139869" style="stroke:rgb(246,147,147);stroke-width:0.01" />
<line x1="0.17698" y1="0.173944" x2="0.179417" y2="0.176791" style="stroke:rgb(246,147,147);stroke-width:0.01" />
<line x1="-0.036029" y1="-0.0944647" x2="0.21581" y2="0.135773" style="stroke:rgb(246,147,147);stroke-width:0.01" />
<line x1="-0.107296" y1="-0.0915941" x2="0.0406349" y2="-0.0618851" style="stroke:rgb(246,147,147);stroke-width:0.01" />
<line x1="0.150099" y1="0.0791997" x2="0.21581" y2="0.135773" style="stroke:rgb(246,147,147);stroke-width:0.01" />
<line x1="0.150726" y1="0.0797399" x2="0.251914" y2="0.0950797" style="stroke:rgb(246,147,147);stroke-width:0.01" />
<line x1="0.0956622" y1="0.173429" x2="0.174569" y2="0.182256" style="stroke:rgb(246,147,147);stroke-width:0.01" />
<line x1="-0.0359983" y1="0.151418" x2="0.178069" y2="0.178311" style="stroke:rgb(246,147,147);stroke-width:0.01" />
<line x1="0.143902" y1="0.0423772" x2="0.186074" y2="0.0749369" style="stroke:rgb(246,147,147);stroke-width:0.01" />
<line x1="-0.0592892" y1="-0.149846" x2="0.309034" y2="-0.0233054" style="stroke:rgb(246,147,147);stroke-width:0.01" />
<line x1="-0.105575" y1="0.107964" x2="-0.0696143" y2="0.139869" style="stroke:rgb(246,147,147);stroke-width:0.01" />
<line x1="0.0249229" y1="0.0736563" x2="0.179417" y2="0.176791" style="stroke:rgb(246,147,147);stroke-width:0.01" />
<line x1="-0.15533" y1="-0.03331" x2="-0.141983" y2="-0.0282177" style="stroke:rgb(246,147,147);stroke-width:0.01" />
<line x1="0.120216" y1="0.160009" x2="0.177646" y2="0.178787" style="stroke:rgb(246,147,147);stroke-width:0.01" />
<line x1="0.171439" y1="0.168935" x2="0.181459" y2="0.17449" style="stroke:rgb(246,147,147);stroke-width:0.01" />
<line x1="-0.111583" y1="0.12545" x2="0.146347" y2="0.214064" style="stroke:rgb(246,147,147);stroke-width:0.01" />
<line x1="-0.0567812" y1="0.139048" x2="-0.0359983" y2="0.151418" style="stroke:rgb(246,147,147);stroke-width:0.01" />
</g>
</svg>
