<svg xmlns="http://www.w3.org/2000/svg" viewBox="-1.5 -1.5 3 3">
<g transform="scale(1, -1)">
<path d="M-0.060466 -0.336513 L0.185907 -0.253130 L0.190230 -0.190072 L-0.023969 0.024127 L0.055526 0.183116 L0.041663 0.224075 L0.059620 0.264122 L0.047081 0.280396 L0.019435 0.289753 L-0.135080 0.135238 L-0.135080 -0.198095 L-0.128177 -0.211902 L-0.116692 -0.211114 z " fill="rgb(245,195,195)" />
<path d="M-0.468413 -0.531429 L0.531587 -0.531429 L0.531587 0.468571 L-0.468413 0.468571  z" fill="none" stroke="rgb(128,128,128)" stroke-width="0.01" />
<line x1="0.0583011" y1="-0.122014" x2="0.0744515" y2="-0.0742935" style="stroke:rgb(246,147,147);stroke-width:0.01" />
<line x1="0.0408664" y1="-0.0447712" x2="0.0423384" y2="-0.0421804" style="stroke:rgb(246,147,147);stroke-width:0.01" />
<line x1="-0.0139815" y1="0.0999733" x2="0.0470812" y2="0.280396" style="stroke:rgb(246,147,147);stroke-width:0.01" />
<line x1="-0.13508" y1="-0.198095" x2="0.0555258" y2="0.183116" style="stroke:rgb(246,147,147);stroke-width:0.01" />
<line x1="-0.13508" y1="-0.170106" x2="0.0596197" y2="0.264122" style="stroke:rgb(246,147,147);stroke-width:0.01" />
<line x1="-0.0855834" y1="-0.0398138" x2="-0.00345488" y2="0.266863" style="stroke:rgb(246,147,147);stroke-width:0.01" />
<line x1="0.185907" y1="-0.25313" x2="0.19023" y2="-0.190072" style="stroke:rgb(246,147,147);stroke-width:0.01" />
<line x1="-0.13508" y1="-0.113171" x2="-0.0139815" y2="0.0999733" style="stroke:rgb(246,147,147);stroke-width:0.01" />
<line x1="0.0273591" y1="-0.286615" x2="0.0446583" y2="-0.0445003" style="stroke:rgb(246,147,147);stroke-width:0.01" />
<line x1="-0.128177" y1="-0.211902" x2="-0.0868927" y2="-0.16406" style="stroke:rgb(246,147,147);stroke-width:0.01" />
<line x1="-0.0287259" y1="0.0146124" x2="-0.0112602" y2="0.259058" style="stroke:rgb(246,147,147);stroke-width:0.01" />
<line x1="-0.0604659" y1="-0.336513" x2="0.0273591" y2="-0.286615" style="stroke:rgb(246,147,147);stroke-width:0.01" />
<line x1="-0.100892" y1="-0.246353" x2="0.0575284" y2="-0.107091" style="stroke:rgb(246,147,147);stroke-width:0.01" />
<line x1="-0.0868927" y1="-0.16406" x2="-0.0722271" y2="0.0999204" style="stroke:rgb(246,147,147);stroke-width:0.01" />
<line x1="-0.13508" y1="-0.0937688" x2="-0.0268295" y2="0.0641368" style="stroke:rgb(246,147,147);stroke-width:0.01" />
<line x1="-0.13508" y1="-0.198095" x2="-0.13508" y2="0.135238" style="stroke:rgb(246,147,147);stroke-width:0.01" />
<line x1="0.0497119" y1="0.242025" x2="0.0470812" y2="0.280396" style="stroke:rgb(246,147,147);stroke-width:0.01" />
<line x1="-0.0604659" y1="-0.336513" x2="0.185907" y2="-0.25313" style="stroke:rgb(246,147,147);stroke-width:0.01" />
<line x1="-0.0886527" y1="-0.0374019" x2="-0.0287259" y2="0.0146124" style="stroke:rgb(246,147,147);stroke-width:0.01" />
<line x1="-0.0205116" y1="0.0310411" x2="-0.0268295" y2="0.0641368" style="stroke:rgb(246,147,147);stroke-width:0.01" />
<line x1="-0.13508" y1="-0.142981" x2="0.0423384" y2="-0.0421804" style="stroke:rgb(246,147,147);stroke-width:0.01" />
<line x1="-0.13508" y1="0.135238" x2="0.0194353" y2="0.289753" style="stroke:rgb(246,147,147);stroke-width:0.01" />
<line x1="-0.0499007" y1="-0.0277373" x2="-0.102126" y2="0.131368" style="stroke:rgb(246,147,147);stroke-width:0.01" />
<line x1="-0.0604659" y1="-0.336513" x2="-0.13508" y2="-0.170106" style="stroke:rgb(246,147,147);stroke-width:0.01" />
<line x1="-0.128177" y1="-0.211902" x2="-0.13508" y2="-0.198095" style="stroke:rgb(246,147,147);stroke-width:0.01" />
<line x1="-0.13508" y1="0.098805" x2="0.0497119" y2="0.242025" style="stroke:rgb(246,147,147);stroke-width:0.01" />
<line x1="0.0555258" y1="0.183116" x2="0.0194353" y2="0.289753" style="stroke:rgb(246,147,147);stroke-width:0.01" />
<line x1="-0.100892" y1="-0.246353" x2="-0.0621105" y2="-0.241603" style="stroke:rgb(246,147,147);stroke-width:0.01" />
<line x1="-0.0209446" y1="-0.314059" x2="-0.13508" y2="-0.113171" style="stroke:rgb(246,147,147);stroke-width:0.01" />
<line x1="-0.13508" y1="-0.145208" x2="0.0744515" y2="-0.0742935" style="stroke:rgb(246,147,147);stroke-width:0.01" />
<line x1="-0.048446" y1="-0.0248279" x2="-0.065104" y2="0.00923182" style="stroke:rgb(246,147,147);stroke-width:0.01" />
<line x1="-0.065104" y1="0.00923182" x2="-0.0205116" y2="0.0310411" style="stroke:rgb(246,147,147);stroke-width:0.01" />
<line x1="-0.128177" y1="-0.211902" x2="0.19023" y2="-0.190072" style="stroke:rgb(246,147,147);stroke-width:0.01" />
<line x1="-0.0868927" y1="-0.16406" x2="-0.13508" y2="-0.0937688" style="stroke:rgb(246,147,147);stroke-width:0.01" />
<line x1="-0.13508" y1="-0.0565654" x2="-0.0499007" y2="-0.0277373" style="stroke:rgb(246,147,147);stroke-width:0.01" />
<line x1="0.0273591" y1="-0.286615" x2="-0.0621105" y2="-0.241603" style="stroke:rgb(246,147,147);stroke-width:0.01" />
<line x1="-0.0671309" y1="-0.0621977" x2="-0.0886527" y2="-0.0374019" style="stroke:rgb(246,147,147);stroke-width:0.01" />
<line x1="-0.0666869" y1="-0.0613097" x2="-0.0855834" y2="-0.0398138" style="stroke:rgb(246,147,147);stroke-width:0.01" />
<line x1="-0.13508" y1="-0.0413661" x2="-0.048446" y2="-0.0248279" style="stroke:rgb(246,147,147);stroke-width:0.01" />
<line x1="0.0408664" y1="-0.0447712" x2="0.0268693" y2="-0.0267112" style="stroke:rgb(246,147,147);stroke-width:0.01" />
<line x1="-0.125387" y1="-0.148488" x2="-0.13508" y2="-0.142981" style="stroke:rgb(246,147,147);stroke-width:0.01" />
<line x1="0.185907" y1="-0.25313" x2="0.0575284" y2="-0.107091" style="stroke:rgb(246,147,147);stroke-width:0.01" />
<line x1="-0.13508" y1="-0.0559896" x2="-0.0806536" y2="-0.0517559" style="stroke:rgb(246,147,147);stroke-width:0.01" />
<line x1="-0.125387" y1="-0.148488" x2="-0.13508" y2="-0.145208" style="stroke:rgb(246,147,147);stroke-width:0.01" />
<line x1="-0.13508" y1="-0.0573427" x2="0.0446583" y2="-0.0445003" style="stroke:rgb(246,147,147);stroke-width:0.01" />
<line x1="-0.13508" y1="0.120551" x2="0.0555258" y2="0.183116" style="stroke:rgb(246,147,147);stroke-width:0.01" />
<line x1="-0.0671309" y1="-0.0621977" x2="-0.13508" y2="-0.0573427" style="stroke:rgb(246,147,147);stroke-width:0.01" />
<line x1="-0.0666869" y1="-0.0613097" x2="-0.13508" y2="-0.0559896" style="stroke:rgb(246,147,147);stroke-width:0.01" />
<line x1="0.19023" y1="-0.190072" x2="-0.13508" y2="0.135238" style="stroke:rgb(246,147,147);stroke-width:0.01" />
<line x1="-0.13508" y1="0.0867757" x2="-0.0722271" y2="0.0999204" style="stroke:rgb(246,147,147);stroke-width:0.01" />
<line x1="0.0583011" y1="-0.122014" x2="-0.13508" y2="-0.0565654" style="stroke:rgb(246,147,147);stroke-width:0.01" />
<line x1="-0.0806536" y1="-0.0517559" x2="-0.13508" y2="-0.0413661" style="stroke:rgb(246,147,147);stroke-width:0.01" />
<line x1="0.0596197" y1="0.264122" x2="0.0470812" y2="0.280396" style="stroke:rgb(246,147,147);stroke-width:0.01" />
<line x1="0.0268693" y1="-0.0267112" x2="-0.13508" y2="0.098805" style="stroke:rgb(246,147,147);stroke-width:0.01" />
<line x1="-0.00345488" y1="0.266863" x2="0.0470812" y2="0.280396" style="stroke:rgb(246,147,147);stroke-width:0.01" />
<line x1="-0.0268295" y1="0.0641368" x2="-0.13508" y2="0.0867757" style="stroke:rgb(246,147,147);stroke-width:0.01" />
<line x1="-0.0722271" y1="0.0999204" x2="-0.13508" y2="0.120551" style="stroke:rgb(246,147,147);stroke-width:0.01" />
<line x1="-0.0112602" y1="0.259058" x2="0.0596197" y2="0.264122" style="stroke:rgb(246,147,147);stroke-width:0.01" />
<line x1="0.0470812" y1="0.280396" x2="0.0194353" y2="0.289753" style="stroke:rgb(246,147,147);stroke-width:0.01" />
</g>
</svg>
