<svg xmlns="http://www.w3.org/2000/svg" viewBox="-1.5 -1.5 3 3">
<g transform="scale(1, -1)">
<path d="M0.407947 0.194916 L0.654321 0.278299 L0.658644 0.341356 L0.444444 0.555556 L0.523939 0.714545 L0.510077 0.755504 L0.528033 0.795551 L0.515494 0.811825 L0.487848 0.821182 L0.333333 0.666667 L0.333333 0.333333 L0.340236 0.319527 L0.351721 0.320315 z " fill="rgb(245,195,195)" />
<path d="M0.000000 0.000000 L1.000000 0.000000 L1.000000 1.000000 L0.000000 1.000000  z" fill="none" stroke="rgb(128,128,128)" stroke-width="0.01" />
<line x1="0.526714" y1="0.409415" x2="0.542865" y2="0.457135" style="stroke:rgb(246,147,147);stroke-width:0.01" />
<line x1="0.50928" y1="0.486658" x2="0.510752" y2="0.489248" style="stroke:rgb(246,147,147);stroke-width:0.01" />
<line x1="0.454432" y1="0.631402" x2="0.515494" y2="0.811825" style="stroke:rgb(246,147,147);stroke-width:0.01" />
<line x1="0.333333" y1="0.333333" x2="0.523939" y2="0.714545" style="stroke:rgb(246,147,147);stroke-width:0.01" />
<line x1="0.333333" y1="0.361323" x2="0.528033" y2="0.795551" style="stroke:rgb(246,147,147);stroke-width:0.01" />
<line x1="0.38283" y1="0.491615" x2="0.464958" y2="0.798292" style="stroke:rgb(246,147,147);stroke-width:0.01" />
<line x1="0.654321" y1="0.278299" x2="0.658644" y2="0.341356" style="stroke:rgb(246,147,147);stroke-width:0.01" />
<line x1="0.333333" y1="0.418258" x2="0.454432" y2="0.631402" style="stroke:rgb(246,147,147);stroke-width:0.01" />
<line x1="0.495772" y1="0.244814" x2="0.513071" y2="0.486929" style="stroke:rgb(246,147,147);stroke-width:0.01" />
<line x1="0.340236" y1="0.319527" x2="0.381521" y2="0.367369" style="stroke:rgb(246,147,147);stroke-width:0.01" />
<line x1="0.439687" y1="0.546041" x2="0.457153" y2="0.790486" style="stroke:rgb(246,147,147);stroke-width:0.01" />
<line x1="0.407947" y1="0.194916" x2="0.495772" y2="0.244814" style="stroke:rgb(246,147,147);stroke-width:0.01" />
<line x1="0.367521" y1="0.285075" x2="0.525942" y2="0.424338" style="stroke:rgb(246,147,147);stroke-width:0.01" />
<line x1="0.381521" y1="0.367369" x2="0.396186" y2="0.631349" style="stroke:rgb(246,147,147);stroke-width:0.01" />
<line x1="0.333333" y1="0.43766" x2="0.441584" y2="0.595566" style="stroke:rgb(246,147,147);stroke-width:0.01" />
<line x1="0.333333" y1="0.333333" x2="0.333333" y2="0.666667" style="stroke:rgb(246,147,147);stroke-width:0.01" />
<line x1="0.518125" y1="0.773454" x2="0.515494" y2="0.811825" style="stroke:rgb(246,147,147);stroke-width:0.01" />
<line x1="0.407947" y1="0.194916" x2="0.654321" y2="0.278299" style="stroke:rgb(246,147,147);stroke-width:0.01" />
<line x1="0.37976" y1="0.494027" x2="0.439687" y2="0.546041" style="stroke:rgb(246,147,147);stroke-width:0.01" />
<line x1="0.447902" y1="0.56247" x2="0.441584" y2="0.595566" style="stroke:rgb(246,147,147);stroke-width:0.01" />
<line x1="0.333333" y1="0.388448" x2="0.510752" y2="0.489248" style="stroke:rgb(246,147,147);stroke-width:0.01" />
<line x1="0.333333" y1="0.666667" x2="0.487848" y2="0.821182" style="stroke:rgb(246,147,147);stroke-width:0.01" />
<line x1="0.418512" y1="0.503692" x2="0.366288" y2="0.662797" style="stroke:rgb(246,147,147);stroke-width:0.01" />
<line x1="0.407947" y1="0.194916" x2="0.333333" y2="0.361323" style="stroke:rgb(246,147,147);stroke-width:0.01" />
<line x1="0.340236" y1="0.319527" x2="0.333333" y2="0.333333" style="stroke:rgb(246,147,147);stroke-width:0.01" />
<line x1="0.333333" y1="0.630234" x2="0.518125" y2="0.773454" style="stroke:rgb(246,147,147);stroke-width:0.01" />
<line x1="0.523939" y1="0.714545" x2="0.487848" y2="0.821182" style="stroke:rgb(246,147,147);stroke-width:0.01" />
<line x1="0.367521" y1="0.285075" x2="0.406303" y2="0.289826" style="stroke:rgb(246,147,147);stroke-width:0.01" />
<line x1="0.447469" y1="0.21737" x2="0.333333" y2="0.418258" style="stroke:rgb(246,147,147);stroke-width:0.01" />
<line x1="0.333333" y1="0.386221" x2="0.542865" y2="0.457135" style="stroke:rgb(246,147,147);stroke-width:0.01" />
<line x1="0.419967" y1="0.506601" x2="0.403309" y2="0.540661" style="stroke:rgb(246,147,147);stroke-width:0.01" />
<line x1="0.403309" y1="0.540661" x2="0.447902" y2="0.56247" style="stroke:rgb(246,147,147);stroke-width:0.01" />
<line x1="0.340236" y1="0.319527" x2="0.658644" y2="0.341356" style="stroke:rgb(246,147,147);stroke-width:0.01" />
<line x1="0.381521" y1="0.367369" x2="0.333333" y2="0.43766" style="stroke:rgb(246,147,147);stroke-width:0.01" />
<line x1="0.333333" y1="0.474863" x2="0.418512" y2="0.503692" style="stroke:rgb(246,147,147);stroke-width:0.01" />
<line x1="0.495772" y1="0.244814" x2="0.406303" y2="0.289826" style="stroke:rgb(246,147,147);stroke-width:0.01" />
<line x1="0.401282" y1="0.469231" x2="0.37976" y2="0.494027" style="stroke:rgb(246,147,147);stroke-width:0.01" />
<line x1="0.401726" y1="0.470119" x2="0.38283" y2="0.491615" style="stroke:rgb(246,147,147);stroke-width:0.01" />
<line x1="0.333333" y1="0.490063" x2="0.419967" y2="0.506601" style="stroke:rgb(246,147,147);stroke-width:0.01" />
<line x1="0.50928" y1="0.486658" x2="0.495282" y2="0.504718" style="stroke:rgb(246,147,147);stroke-width:0.01" />
<line x1="0.343026" y1="0.382941" x2="0.333333" y2="0.388448" style="stroke:rgb(246,147,147);stroke-width:0.01" />
<line x1="0.654321" y1="0.278299" x2="0.525942" y2="0.424338" style="stroke:rgb(246,147,147);stroke-width:0.01" />
<line x1="0.333333" y1="0.475439" x2="0.38776" y2="0.479673" style="stroke:rgb(246,147,147);stroke-width:0.01" />
<line x1="0.343026" y1="0.382941" x2="0.333333" y2="0.386221" style="stroke:rgb(246,147,147);stroke-width:0.01" />
<line x1="0.333333" y1="0.474086" x2="0.513071" y2="0.486929" style="stroke:rgb(246,147,147);stroke-width:0.01" />
<line x1="0.333333" y1="0.65198" x2="0.523939" y2="0.714545" style="stroke:rgb(246,147,147);stroke-width:0.01" />
<line x1="0.401282" y1="0.469231" x2="0.333333" y2="0.474086" style="stroke:rgb(246,147,147);stroke-width:0.01" />
<line x1="0.401726" y1="0.470119" x2="0.333333" y2="0.475439" style="stroke:rgb(246,147,147);stroke-width:0.01" />
<line x1="0.658644" y1="0.341356" x2="0.333333" y2="0.666667" style="stroke:rgb(246,147,147);stroke-width:0.01" />
<line x1="0.333333" y1="0.618205" x2="0.396186" y2="0.631349" style="stroke:rgb(246,147,147);stroke-width:0.01" />
<line x1="0.526714" y1="0.409415" x2="0.333333" y2="0.474863" style="stroke:rgb(246,147,147);stroke-width:0.01" />
<line x1="0.38776" y1="0.479673" x2="0.333333" y2="0.490063" style="stroke:rgb(246,147,147);stroke-width:0.01" />
<line x1="0.528033" y1="0.795551" x2="0.515494" y2="0.811825" style="stroke:rgb(246,147,147);stroke-width:0.01" />
<line x1="0.495282" y1="0.504718" x2="0.333333" y2="0.630234" style="stroke:rgb(246,147,147);stroke-width:0.01" />
<line x1="0.464958" y1="0.798292" x2="0.515494" y2="0.811825" style="stroke:rgb(246,147,147);stroke-width:0.01" />
<line x1="0.441584" y1="0.595566" x2="0.333333" y2="0.618205" style="stroke:rgb(246,147,147);stroke-width:0.01" />
<line x1="0.396186" y1="0.631349" x2="0.333333" y2="0.65198" style="stroke:rgb(246,147,147);stroke-width:0.01" />
<line x1="0.457153" y1="0.790486" x2="0.528033" y2="0.795551" style="stroke:rgb(246,147,147);stroke-width:0.01" />
<line x1="0.515494" y1="0.811825" x2="0.487848" y2="0.821182" style="stroke:rgb(246,147,147);stroke-width:0.01" />
</g>
</svg>
