<svg xmlns="http://www.w3.org/2000/svg" viewBox="-1.5 -1.5 3 3">
<g transform="scale(1, -1)">
<path d="M-0.283503 -0.241806 L-0.196153 -0.162303 L-0.052012 -0.156621 L-0.036688 -0.095169 L0.068074 -0.071824 L0.038214 -0.054402 L0.133410 -0.010741 L0.017595 0.032243 L0.153245 0.155708 L0.164671 0.240850 L0.193337 0.265680 L0.168244 0.267480 L-0.368433 -0.169095 z " fill="rgb(245,195,195)" />
<path d="M0.645676 -2.301822 L1.645676 -2.301822 L1.645676 -1.301822 L0.645676 -1.301822  z" fill="none" stroke="rgb(128,128,128)" stroke-width="0.01" />
<line x1="-0.304554" y1="-0.15486" x2="-0.309516" y2="-0.121167" style="stroke:rgb(246,147,147);stroke-width:0.01" />
<line x1="-0.304554" y1="-0.15486" x2="-0.313675" y2="-0.124551" style="stroke:rgb(246,147,147);stroke-width:0.01" />
<line x1="-0.285165" y1="-0.165812" x2="-0.302131" y2="-0.115159" style="stroke:rgb(246,147,147);stroke-width:0.01" />
<line x1="-0.0612977" y1="-0.0395621" x2="-0.0775297" y2="0.0675482" style="stroke:rgb(246,147,147);stroke-width:0.01" />
<line x1="-0.168589" y1="-0.161216" x2="-0.174498" y2="-0.0113329" style="stroke:rgb(246,147,147);stroke-width:0.01" />
<line x1="-0.329343" y1="-0.160384" x2="-0.329538" y2="-0.137455" style="stroke:rgb(246,147,147);stroke-width:0.01" />
<line x1="-0.329343" y1="-0.160384" x2="-0.337055" y2="-0.14357" style="stroke:rgb(246,147,147);stroke-width:0.01" />
<line x1="-0.0520125" y1="-0.156621" x2="-0.116483" y2="0.0358609" style="stroke:rgb(246,147,147);stroke-width:0.01" />
<line x1="-0.268511" y1="-0.165156" x2="-0.294553" y2="-0.108995" style="stroke:rgb(246,147,147);stroke-width:0.01" />
<line x1="0.153245" y1="0.155708" x2="0.168244" y2="0.26748" style="stroke:rgb(246,147,147);stroke-width:0.01" />
<line x1="-0.0520125" y1="-0.156621" x2="0.0246097" y2="0.150636" style="stroke:rgb(246,147,147);stroke-width:0.01" />
<line x1="-0.285165" y1="-0.165812" x2="-0.265001" y2="-0.0849553" style="stroke:rgb(246,147,147);stroke-width:0.01" />
<line x1="-0.268511" y1="-0.165156" x2="-0.26354" y2="-0.151763" style="stroke:rgb(246,147,147);stroke-width:0.01" />
<line x1="-0.283503" y1="-0.241806" x2="-0.368433" y2="-0.169095" style="stroke:rgb(246,147,147);stroke-width:0.01" />
<line x1="-0.305764" y1="-0.166625" x2="-0.337055" y2="-0.14357" style="stroke:rgb(246,147,147);stroke-width:0.01" />
<line x1="-0.228308" y1="-0.158233" x2="-0.294553" y2="-0.108995" style="stroke:rgb(246,147,147);stroke-width:0.01" />
<line x1="-0.283503" y1="-0.241806" x2="-0.228308" y2="-0.158233" style="stroke:rgb(246,147,147);stroke-width:0.01" />
<line x1="-0.228308" y1="-0.158233" x2="-0.302131" y2="-0.115159" style="stroke:rgb(246,147,147);stroke-width:0.01" />
<line x1="-0.26354" y1="-0.151763" x2="-0.313675" y2="-0.124551" style="stroke:rgb(246,147,147);stroke-width:0.01" />
<line x1="0.0680737" y1="-0.0718241" x2="-0.116483" y2="0.0358609" style="stroke:rgb(246,147,147);stroke-width:0.01" />
<line x1="-0.283503" y1="-0.241806" x2="0.153245" y2="0.155708" style="stroke:rgb(246,147,147);stroke-width:0.01" />
<line x1="-0.197138" y1="-0.162342" x2="-0.309516" y2="-0.121167" style="stroke:rgb(246,147,147);stroke-width:0.01" />
<line x1="-0.305764" y1="-0.166625" x2="0.193337" y2="0.26568" style="stroke:rgb(246,147,147);stroke-width:0.01" />
<line x1="-0.368433" y1="-0.169095" x2="0.168244" y2="0.26748" style="stroke:rgb(246,147,147);stroke-width:0.01" />
<line x1="0.13341" y1="-0.0107413" x2="-0.0775297" y2="0.0675482" style="stroke:rgb(246,147,147);stroke-width:0.01" />
<line x1="-0.26354" y1="-0.151763" x2="-0.329538" y2="-0.137455" style="stroke:rgb(246,147,147);stroke-width:0.01" />
<line x1="0.0680737" y1="-0.0718241" x2="-0.174498" y2="-0.0113329" style="stroke:rgb(246,147,147);stroke-width:0.01" />
<line x1="-0.197138" y1="-0.162342" x2="0.13341" y2="-0.0107413" style="stroke:rgb(246,147,147);stroke-width:0.01" />
<line x1="-0.368433" y1="-0.169095" x2="-0.0520125" y2="-0.156621" style="stroke:rgb(246,147,147);stroke-width:0.01" />
<line x1="-0.368433" y1="-0.169095" x2="0.0680737" y2="-0.0718241" style="stroke:rgb(246,147,147);stroke-width:0.01" />
<line x1="-0.265001" y1="-0.0849553" x2="0.0680737" y2="-0.0718241" style="stroke:rgb(246,147,147);stroke-width:0.01" />
<line x1="0.0246097" y1="0.150636" x2="0.153245" y2="0.155708" style="stroke:rgb(246,147,147);stroke-width:0.01" />
<line x1="0.193337" y1="0.26568" x2="0.168244" y2="0.26748" style="stroke:rgb(246,147,147);stroke-width:0.01" />
</g>
</svg>
