<svg xmlns="http://www.w3.org/2000/svg" viewBox="-1.5 -1.5 3 3">
<g transform="scale(1, -1)">
<path d="M-0.929179 2.060016 L-0.841830 2.139519 L-0.697689 2.145202 L-0.682364 2.206653 L-0.577603 2.229998 L-0.607462 2.247420 L-0.512266 2.291081 L-0.628081 2.334065 L-0.492431 2.457530 L-0.481005 2.542673 L-0.452339 2.567502 L-0.477432 2.569302 L-1.014110 2.132727 z " fill="rgb(245,195,195)" />
<path d="M0.000000 0.000000 L1.000000 0.000000 L1.000000 1.000000 L0.000000 1.000000  z" fill="none" stroke="rgb(128,128,128)" stroke-width="0.01" />
<line x1="-0.95023" y1="2.14696" x2="-0.955192" y2="2.18065" style="stroke:rgb(246,147,147);stroke-width:0.01" />
<line x1="-0.95023" y1="2.14696" x2="-0.959351" y2="2.17727" style="stroke:rgb(246,147,147);stroke-width:0.01" />
<line x1="-0.930841" y1="2.13601" x2="-0.947807" y2="2.18666" style="stroke:rgb(246,147,147);stroke-width:0.01" />
<line x1="-0.706974" y1="2.26226" x2="-0.723206" y2="2.36937" style="stroke:rgb(246,147,147);stroke-width:0.01" />
<line x1="-0.814265" y1="2.14061" x2="-0.820174" y2="2.29049" style="stroke:rgb(246,147,147);stroke-width:0.01" />
<line x1="-0.975019" y1="2.14144" x2="-0.975214" y2="2.16437" style="stroke:rgb(246,147,147);stroke-width:0.01" />
<line x1="-0.975019" y1="2.14144" x2="-0.982731" y2="2.15825" style="stroke:rgb(246,147,147);stroke-width:0.01" />
<line x1="-0.697689" y1="2.1452" x2="-0.762159" y2="2.33768" style="stroke:rgb(246,147,147);stroke-width:0.01" />
<line x1="-0.914187" y1="2.13667" x2="-0.940229" y2="2.19283" style="stroke:rgb(246,147,147);stroke-width:0.01" />
<line x1="-0.492431" y1="2.45753" x2="-0.477432" y2="2.5693" style="stroke:rgb(246,147,147);stroke-width:0.01" />
<line x1="-0.697689" y1="2.1452" x2="-0.621067" y2="2.45246" style="stroke:rgb(246,147,147);stroke-width:0.01" />
<line x1="-0.930841" y1="2.13601" x2="-0.910677" y2="2.21687" style="stroke:rgb(246,147,147);stroke-width:0.01" />
<line x1="-0.914187" y1="2.13667" x2="-0.909216" y2="2.15006" style="stroke:rgb(246,147,147);stroke-width:0.01" />
<line x1="-0.929179" y1="2.06002" x2="-1.01411" y2="2.13273" style="stroke:rgb(246,147,147);stroke-width:0.01" />
<line x1="-0.95144" y1="2.1352" x2="-0.982731" y2="2.15825" style="stroke:rgb(246,147,147);stroke-width:0.01" />
<line x1="-0.873984" y1="2.14359" x2="-0.940229" y2="2.19283" style="stroke:rgb(246,147,147);stroke-width:0.01" />
<line x1="-0.929179" y1="2.06002" x2="-0.873984" y2="2.14359" style="stroke:rgb(246,147,147);stroke-width:0.01" />
<line x1="-0.873984" y1="2.14359" x2="-0.947807" y2="2.18666" style="stroke:rgb(246,147,147);stroke-width:0.01" />
<line x1="-0.909216" y1="2.15006" x2="-0.959351" y2="2.17727" style="stroke:rgb(246,147,147);stroke-width:0.01" />
<line x1="-0.577603" y1="2.23" x2="-0.762159" y2="2.33768" style="stroke:rgb(246,147,147);stroke-width:0.01" />
<line x1="-0.929179" y1="2.06002" x2="-0.492431" y2="2.45753" style="stroke:rgb(246,147,147);stroke-width:0.01" />
<line x1="-0.842814" y1="2.13948" x2="-0.955192" y2="2.18065" style="stroke:rgb(246,147,147);stroke-width:0.01" />
<line x1="-0.95144" y1="2.1352" x2="-0.452339" y2="2.5675" style="stroke:rgb(246,147,147);stroke-width:0.01" />
<line x1="-1.01411" y1="2.13273" x2="-0.477432" y2="2.5693" style="stroke:rgb(246,147,147);stroke-width:0.01" />
<line x1="-0.512266" y1="2.29108" x2="-0.723206" y2="2.36937" style="stroke:rgb(246,147,147);stroke-width:0.01" />
<line x1="-0.909216" y1="2.15006" x2="-0.975214" y2="2.16437" style="stroke:rgb(246,147,147);stroke-width:0.01" />
<line x1="-0.577603" y1="2.23" x2="-0.820174" y2="2.29049" style="stroke:rgb(246,147,147);stroke-width:0.01" />
<line x1="-0.842814" y1="2.13948" x2="-0.512266" y2="2.29108" style="stroke:rgb(246,147,147);stroke-width:0.01" />
<line x1="-1.01411" y1="2.13273" x2="-0.697689" y2="2.1452" style="stroke:rgb(246,147,147);stroke-width:0.01" />
<line x1="-1.01411" y1="2.13273" x2="-0.577603" y2="2.23" style="stroke:rgb(246,147,147);stroke-width:0.01" />
<line x1="-0.910677" y1="2.21687" x2="-0.577603" y2="2.23" style="stroke:rgb(246,147,147);stroke-width:0.01" />
<line x1="-0.621067" y1="2.45246" x2="-0.492431" y2="2.45753" style="stroke:rgb(246,147,147);stroke-width:0.01" />
<line x1="-0.452339" y1="2.5675" x2="-0.477432" y2="2.5693" style="stroke:rgb(246,147,147);stroke-width:0.01" />
</g>
</svg>
