<svg xmlns="http://www.w3.org/2000/svg" viewBox="-1.5 -1.5 3 3">
<g transform="scale(1, -1)">
<path d="M-0.152489 -0.504025 L0.284553 -0.363978 L0.355555 -0.238008 L0.157854 0.151633 L0.209265 0.191760 L-0.014350 0.334697 L-0.072466 0.327084 L-0.114098 0.269288 L-0.114196 0.267311 L-0.102847 0.264661 L-0.115437 0.242323 L-0.150403 -0.462022 L-0.170941 -0.480725 z " fill="rgb(245,195,195)" />
<path d="M2.642665 1.109892 L3.642665 1.109892 L3.642665 2.109892 L2.642665 2.109892  z" fill="none" stroke="rgb(128,128,128)" stroke-width="0.01" />
<line x1="0.166013" y1="-0.401963" x2="-0.13889" y2="-0.230109" style="stroke:rgb(246,147,147);stroke-width:0.01" />
<line x1="0.0789604" y1="-0.325701" x2="0.0246614" y2="-0.302599" style="stroke:rgb(246,147,147);stroke-width:0.01" />
<line x1="0.284553" y1="-0.363978" x2="0.119005" y2="-0.286579" style="stroke:rgb(246,147,147);stroke-width:0.01" />
<line x1="-0.0619699" y1="-0.475019" x2="-0.0910004" y2="-0.44314" style="stroke:rgb(246,147,147);stroke-width:0.01" />
<line x1="0.0497338" y1="-0.246519" x2="-0.131137" y2="-0.0739333" style="stroke:rgb(246,147,147);stroke-width:0.01" />
<line x1="-0.152489" y1="-0.504025" x2="-0.170941" y2="-0.480725" style="stroke:rgb(246,147,147);stroke-width:0.01" />
<line x1="0.0400125" y1="-0.442339" x2="-0.0145142" y2="-0.373488" style="stroke:rgb(246,147,147);stroke-width:0.01" />
<line x1="0.0609356" y1="-0.435635" x2="-0.068528" y2="-0.269768" style="stroke:rgb(246,147,147);stroke-width:0.01" />
<line x1="-0.0432393" y1="0.303156" x2="-0.0724657" y2="0.327084" style="stroke:rgb(246,147,147);stroke-width:0.01" />
<line x1="0.209265" y1="0.19176" x2="-0.0143502" y2="0.334697" style="stroke:rgb(246,147,147);stroke-width:0.01" />
<line x1="-0.0432393" y1="0.303156" x2="-0.06728" y2="0.327763" style="stroke:rgb(246,147,147);stroke-width:0.01" />
<line x1="0.209265" y1="0.19176" x2="-0.114196" y2="0.267311" style="stroke:rgb(246,147,147);stroke-width:0.01" />
<line x1="-0.113041" y1="0.267463" x2="-0.114098" y2="0.269288" style="stroke:rgb(246,147,147);stroke-width:0.01" />
<line x1="0.355555" y1="-0.238008" x2="0.103043" y2="0.259658" style="stroke:rgb(246,147,147);stroke-width:0.01" />
<line x1="-0.068528" y1="-0.269768" x2="0.355555" y2="-0.238008" style="stroke:rgb(246,147,147);stroke-width:0.01" />
<line x1="0.0547734" y1="-0.145004" x2="-0.115437" y2="0.242323" style="stroke:rgb(246,147,147);stroke-width:0.01" />
<line x1="0.0789604" y1="-0.325701" x2="0.0669047" y2="-0.295426" style="stroke:rgb(246,147,147);stroke-width:0.01" />
<line x1="-0.113041" y1="0.267463" x2="-0.114185" y2="0.267535" style="stroke:rgb(246,147,147);stroke-width:0.01" />
<line x1="0.103043" y1="0.259658" x2="-0.114185" y2="0.267535" style="stroke:rgb(246,147,147);stroke-width:0.01" />
<line x1="0.0246614" y1="-0.302599" x2="0.119005" y2="-0.286579" style="stroke:rgb(246,147,147);stroke-width:0.01" />
<line x1="-0.152489" y1="-0.504025" x2="0.284553" y2="-0.363978" style="stroke:rgb(246,147,147);stroke-width:0.01" />
<line x1="-0.114196" y1="0.267311" x2="-0.113041" y2="0.267463" style="stroke:rgb(246,147,147);stroke-width:0.01" />
<line x1="-0.0724657" y1="0.327084" x2="-0.0143502" y2="0.334697" style="stroke:rgb(246,147,147);stroke-width:0.01" />
<line x1="-0.13889" y1="-0.230109" x2="0.0547734" y2="-0.145004" style="stroke:rgb(246,147,147);stroke-width:0.01" />
<line x1="0.0609356" y1="-0.435635" x2="0.0669047" y2="-0.295426" style="stroke:rgb(246,147,147);stroke-width:0.01" />
<line x1="0.0400125" y1="-0.442339" x2="0.0547734" y2="-0.145004" style="stroke:rgb(246,147,147);stroke-width:0.01" />
<line x1="-0.152489" y1="-0.504025" x2="-0.115437" y2="0.242323" style="stroke:rgb(246,147,147);stroke-width:0.01" />
<line x1="-0.114196" y1="0.267311" x2="-0.114098" y2="0.269288" style="stroke:rgb(246,147,147);stroke-width:0.01" />
<line x1="-0.170941" y1="-0.480725" x2="-0.0145142" y2="-0.373488" style="stroke:rgb(246,147,147);stroke-width:0.01" />
<line x1="-0.0619699" y1="-0.475019" x2="-0.043429" y2="-0.319235" style="stroke:rgb(246,147,147);stroke-width:0.01" />
<line x1="-0.043429" y1="-0.319235" x2="0.0497338" y2="-0.246519" style="stroke:rgb(246,147,147);stroke-width:0.01" />
<line x1="-0.0910004" y1="-0.44314" x2="-0.0145142" y2="-0.373488" style="stroke:rgb(246,147,147);stroke-width:0.01" />
<line x1="-0.170941" y1="-0.480725" x2="0.0246614" y2="-0.302599" style="stroke:rgb(246,147,147);stroke-width:0.01" />
<line x1="0.0789604" y1="-0.325701" x2="0.119005" y2="-0.286579" style="stroke:rgb(246,147,147);stroke-width:0.01" />
<line x1="-0.131137" y1="-0.0739333" x2="0.209265" y2="0.19176" style="stroke:rgb(246,147,147);stroke-width:0.01" />
<line x1="0.284553" y1="-0.363978" x2="0.355555" y2="-0.238008" style="stroke:rgb(246,147,147);stroke-width:0.01" />
<line x1="0.166013" y1="-0.401963" x2="0.20185" y2="-0.325312" style="stroke:rgb(246,147,147);stroke-width:0.01" />
<line x1="-0.043429" y1="-0.319235" x2="0.0547734" y2="-0.145004" style="stroke:rgb(246,147,147);stroke-width:0.01" />
<line x1="-0.0432393" y1="0.303156" x2="-0.0143502" y2="0.334697" style="stroke:rgb(246,147,147);stroke-width:0.01" />
<line x1="-0.115437" y1="0.242323" x2="-0.06728" y2="0.327763" style="stroke:rgb(246,147,147);stroke-width:0.01" />
<line x1="-0.114098" y1="0.269288" x2="-0.0724657" y2="0.327084" style="stroke:rgb(246,147,147);stroke-width:0.01" />
</g>
</svg>
