<svg xmlns="http://www.w3.org/2000/svg" viewBox="-1.5 -1.5 3 3">
<g transform="scale(1, -1)">
<path d="M-2.795153 -1.613917 L-2.358111 -1.473870 L-2.287110 -1.347900 L-2.484810 -0.958259 L-2.433399 -0.918131 L-2.657015 -0.775195 L-2.715130 -0.782808 L-2.756763 -0.840603 L-2.756861 -0.842580 L-2.745512 -0.845231 L-2.758102 -0.867569 L-2.793068 -1.571914 L-2.813606 -1.590616 z " fill="rgb(245,195,195)" />
<path d="M0.000000 0.000000 L1.000000 0.000000 L1.000000 1.000000 L0.000000 1.000000  z" fill="none" stroke="rgb(128,128,128)" stroke-width="0.01" />
<line x1="-2.47665" y1="-1.51186" x2="-2.78156" y2="-1.34" style="stroke:rgb(246,147,147);stroke-width:0.01" />
<line x1="-2.5637" y1="-1.43559" x2="-2.618" y2="-1.41249" style="stroke:rgb(246,147,147);stroke-width:0.01" />
<line x1="-2.35811" y1="-1.47387" x2="-2.52366" y2="-1.39647" style="stroke:rgb(246,147,147);stroke-width:0.01" />
<line x1="-2.70463" y1="-1.58491" x2="-2.73367" y2="-1.55303" style="stroke:rgb(246,147,147);stroke-width:0.01" />
<line x1="-2.59293" y1="-1.35641" x2="-2.7738" y2="-1.18383" style="stroke:rgb(246,147,147);stroke-width:0.01" />
<line x1="-2.79515" y1="-1.61392" x2="-2.81361" y2="-1.59062" style="stroke:rgb(246,147,147);stroke-width:0.01" />
<line x1="-2.60265" y1="-1.55223" x2="-2.65718" y2="-1.48338" style="stroke:rgb(246,147,147);stroke-width:0.01" />
<line x1="-2.58173" y1="-1.54553" x2="-2.71119" y2="-1.37966" style="stroke:rgb(246,147,147);stroke-width:0.01" />
<line x1="-2.6859" y1="-0.806736" x2="-2.71513" y2="-0.782808" style="stroke:rgb(246,147,147);stroke-width:0.01" />
<line x1="-2.4334" y1="-0.918131" x2="-2.65702" y2="-0.775195" style="stroke:rgb(246,147,147);stroke-width:0.01" />
<line x1="-2.6859" y1="-0.806736" x2="-2.70994" y2="-0.782129" style="stroke:rgb(246,147,147);stroke-width:0.01" />
<line x1="-2.4334" y1="-0.918131" x2="-2.75686" y2="-0.84258" style="stroke:rgb(246,147,147);stroke-width:0.01" />
<line x1="-2.75571" y1="-0.842429" x2="-2.75676" y2="-0.840603" style="stroke:rgb(246,147,147);stroke-width:0.01" />
<line x1="-2.28711" y1="-1.3479" x2="-2.53962" y2="-0.850234" style="stroke:rgb(246,147,147);stroke-width:0.01" />
<line x1="-2.71119" y1="-1.37966" x2="-2.28711" y2="-1.3479" style="stroke:rgb(246,147,147);stroke-width:0.01" />
<line x1="-2.58789" y1="-1.2549" x2="-2.7581" y2="-0.867569" style="stroke:rgb(246,147,147);stroke-width:0.01" />
<line x1="-2.5637" y1="-1.43559" x2="-2.57576" y2="-1.40532" style="stroke:rgb(246,147,147);stroke-width:0.01" />
<line x1="-2.75571" y1="-0.842429" x2="-2.75685" y2="-0.842357" style="stroke:rgb(246,147,147);stroke-width:0.01" />
<line x1="-2.53962" y1="-0.850234" x2="-2.75685" y2="-0.842357" style="stroke:rgb(246,147,147);stroke-width:0.01" />
<line x1="-2.618" y1="-1.41249" x2="-2.52366" y2="-1.39647" style="stroke:rgb(246,147,147);stroke-width:0.01" />
<line x1="-2.79515" y1="-1.61392" x2="-2.35811" y2="-1.47387" style="stroke:rgb(246,147,147);stroke-width:0.01" />
<line x1="-2.75686" y1="-0.84258" x2="-2.75571" y2="-0.842429" style="stroke:rgb(246,147,147);stroke-width:0.01" />
<line x1="-2.71513" y1="-0.782808" x2="-2.65702" y2="-0.775195" style="stroke:rgb(246,147,147);stroke-width:0.01" />
<line x1="-2.78156" y1="-1.34" x2="-2.58789" y2="-1.2549" style="stroke:rgb(246,147,147);stroke-width:0.01" />
<line x1="-2.58173" y1="-1.54553" x2="-2.57576" y2="-1.40532" style="stroke:rgb(246,147,147);stroke-width:0.01" />
<line x1="-2.60265" y1="-1.55223" x2="-2.58789" y2="-1.2549" style="stroke:rgb(246,147,147);stroke-width:0.01" />
<line x1="-2.79515" y1="-1.61392" x2="-2.7581" y2="-0.867569" style="stroke:rgb(246,147,147);stroke-width:0.01" />
<line x1="-2.75686" y1="-0.84258" x2="-2.75676" y2="-0.840603" style="stroke:rgb(246,147,147);stroke-width:0.01" />
<line x1="-2.81361" y1="-1.59062" x2="-2.65718" y2="-1.48338" style="stroke:rgb(246,147,147);stroke-width:0.01" />
<line x1="-2.70463" y1="-1.58491" x2="-2.68609" y2="-1.42913" style="stroke:rgb(246,147,147);stroke-width:0.01" />
<line x1="-2.68609" y1="-1.42913" x2="-2.59293" y2="-1.35641" style="stroke:rgb(246,147,147);stroke-width:0.01" />
<line x1="-2.73367" y1="-1.55303" x2="-2.65718" y2="-1.48338" style="stroke:rgb(246,147,147);stroke-width:0.01" />
<line x1="-2.81361" y1="-1.59062" x2="-2.618" y2="-1.41249" style="stroke:rgb(246,147,147);stroke-width:0.01" />
<line x1="-2.5637" y1="-1.43559" x2="-2.52366" y2="-1.39647" style="stroke:rgb(246,147,147);stroke-width:0.01" />
<line x1="-2.7738" y1="-1.18383" x2="-2.4334" y2="-0.918131" style="stroke:rgb(246,147,147);stroke-width:0.01" />
<line x1="-2.35811" y1="-1.47387" x2="-2.28711" y2="-1.3479" style="stroke:rgb(246,147,147);stroke-width:0.01" />
<line x1="-2.47665" y1="-1.51186" x2="-2.44081" y2="-1.4352" style="stroke:rgb(246,147,147);stroke-width:0.01" />
<line x1="-2.68609" y1="-1.42913" x2="-2.58789" y2="-1.2549" style="stroke:rgb(246,147,147);stroke-width:0.01" />
<line x1="-2.6859" y1="-0.806736" x2="-2.65702" y2="-0.775195" style="stroke:rgb(246,147,147);stroke-width:0.01" />
<line x1="-2.7581" y1="-0.867569" x2="-2.70994" y2="-0.782129" style="stroke:rgb(246,147,147);stroke-width:0.01" />
<line x1="-2.75676" y1="-0.840603" x2="-2.71513" y2="-0.782808" style="stroke:rgb(246,147,147);stroke-width:0.01" />
</g>
</svg>
