<svg xmlns="http://www.w3.org/2000/svg" viewBox="-1.5 -1.5 3 3">
<g transform="scale(1, -1)">
<path d="M0.097919 -0.060720 L0.426664 0.230169 L0.407750 0.258869 L0.384010 0.266441 L-0.000415 0.593346 L-0.002057 0.593036 L-0.013227 0.571475 L-0.002512 0.510530 L-0.005547 0.390678 L-0.092522 0.418417 L-0.125364 0.355024 L-0.136021 0.321608 L-0.141768 0.323360 L-0.145917 0.315353 L-0.232874 0.042448 L-0.232925 0.042463 L-0.233532 0.040383 z " fill="rgb(245,195,195)" />
<path d="M0.000000 0.000000 L1.000000 0.000000 L1.000000 1.000000 L0.000000 1.000000  z" fill="none" stroke="rgb(128,128,128)" stroke-width="0.01" />
<line x1="0.0979193" y1="-0.0607199" x2="0.426664" y2="0.230169" style="stroke:rgb(246,147,147);stroke-width:0.01" />
<line x1="0.402928" y1="0.209166" x2="0.40775" y2="0.258869" style="stroke:rgb(246,147,147);stroke-width:0.01" />
<line x1="0.0979193" y1="-0.0607199" x2="-0.233532" y2="0.040383" style="stroke:rgb(246,147,147);stroke-width:0.01" />
<line x1="0.103642" y1="-0.0556566" x2="-0.232925" y2="0.0424628" style="stroke:rgb(246,147,147);stroke-width:0.01" />
<line x1="0" y1="0.312155" x2="0" y2="0.592993" style="stroke:rgb(246,147,147);stroke-width:0.01" />
<line x1="0" y1="0.312155" x2="0.00689117" y2="0.587132" style="stroke:rgb(246,147,147);stroke-width:0.01" />
<line x1="-0.00987824" y1="0.219619" x2="-0.000415286" y2="0.593346" style="stroke:rgb(246,147,147);stroke-width:0.01" />
<line x1="0.0979193" y1="-0.0607199" x2="-0.0132269" y2="0.571475" style="stroke:rgb(246,147,147);stroke-width:0.01" />
<line x1="0.103642" y1="-0.0556566" x2="-0.000870353" y2="0.585301" style="stroke:rgb(246,147,147);stroke-width:0.01" />
<line x1="-0.226403" y1="0.0382086" x2="-0.145388" y2="0.316373" style="stroke:rgb(246,147,147);stroke-width:0.01" />
<line x1="-0.233532" y1="0.040383" x2="-0.232925" y2="0.0424628" style="stroke:rgb(246,147,147);stroke-width:0.01" />
<line x1="0.359323" y1="0.170583" x2="0.33519" y2="0.307956" style="stroke:rgb(246,147,147);stroke-width:0.01" />
<line x1="-0.226403" y1="0.0382086" x2="-0.125364" y2="0.355024" style="stroke:rgb(246,147,147);stroke-width:0.01" />
<line x1="-0.233532" y1="0.040383" x2="-0.145917" y2="0.315353" style="stroke:rgb(246,147,147);stroke-width:0.01" />
<line x1="-0.00268283" y1="0.576449" x2="-0.00641542" y2="0.584623" style="stroke:rgb(246,147,147);stroke-width:0.01" />
<line x1="0.00406069" y1="0.57963" x2="-0.00205686" y2="0.593036" style="stroke:rgb(246,147,147);stroke-width:0.01" />
<line x1="-0.00268283" y1="0.576449" x2="-0.00654316" y2="0.584376" style="stroke:rgb(246,147,147);stroke-width:0.01" />
<line x1="0.00406069" y1="0.57963" x2="-0.00227068" y2="0.592623" style="stroke:rgb(246,147,147);stroke-width:0.01" />
<line x1="-0.145917" y1="0.315353" x2="-0.141768" y2="0.32336" style="stroke:rgb(246,147,147);stroke-width:0.01" />
<line x1="-0.125364" y1="0.355024" x2="-0.0925221" y2="0.418417" style="stroke:rgb(246,147,147);stroke-width:0.01" />
<line x1="-0.0132269" y1="0.571475" x2="-0.00205686" y2="0.593036" style="stroke:rgb(246,147,147);stroke-width:0.01" />
<line x1="-0.140566" y1="0.322427" x2="-0.141768" y2="0.32336" style="stroke:rgb(246,147,147);stroke-width:0.01" />
<line x1="-0.145917" y1="0.315353" x2="-0.140566" y2="0.322427" style="stroke:rgb(246,147,147);stroke-width:0.01" />
<line x1="-0.125364" y1="0.355024" x2="-0.0829272" y2="0.411164" style="stroke:rgb(246,147,147);stroke-width:0.01" />
<line x1="-0.145388" y1="0.316373" x2="-0.140566" y2="0.322427" style="stroke:rgb(246,147,147);stroke-width:0.01" />
<line x1="0.402928" y1="0.209166" x2="-0.00987824" y2="0.219619" style="stroke:rgb(246,147,147);stroke-width:0.01" />
<line x1="-0.0829272" y1="0.411164" x2="-0.0925221" y2="0.418417" style="stroke:rgb(246,147,147);stroke-width:0.01" />
<line x1="0.359323" y1="0.170583" x2="-0.141768" y2="0.32336" style="stroke:rgb(246,147,147);stroke-width:0.01" />
<line x1="0.426664" y1="0.230169" x2="0.40775" y2="0.258869" style="stroke:rgb(246,147,147);stroke-width:0.01" />
<line x1="0.33519" y1="0.307956" x2="0" y2="0.312155" style="stroke:rgb(246,147,147);stroke-width:0.01" />
<line x1="0.426664" y1="0.230169" x2="-0.000415286" y2="0.593346" style="stroke:rgb(246,147,147);stroke-width:0.01" />
<line x1="0.40775" y1="0.258869" x2="-0.0925221" y2="0.418417" style="stroke:rgb(246,147,147);stroke-width:0.01" />
<line x1="-0.0132269" y1="0.571475" x2="0.00406069" y2="0.57963" style="stroke:rgb(246,147,147);stroke-width:0.01" />
<line x1="-0.00641542" y1="0.584623" x2="0.00689117" y2="0.587132" style="stroke:rgb(246,147,147);stroke-width:0.01" />
<line x1="-0.00654316" y1="0.584376" x2="-0.000870353" y2="0.585301" style="stroke:rgb(246,147,147);stroke-width:0.01" />
<line x1="-0.00205686" y1="0.593036" x2="-0.000415286" y2="0.593346" style="stroke:rgb(246,147,147);stroke-width:0.01" />
<line x1="-0.00227068" y1="0.592623" x2="0" y2="0.592993" style="stroke:rgb(246,147,147);stroke-width:0.01" />
</g>
</svg>
