<svg xmlns="http://www.w3.org/2000/svg" viewBox="-1.5 -1.5 3 3">
<g transform="scale(1, -1)">
<path d="M0.100763 -0.367360 L0.429507 -0.076471 L0.410593 -0.047771 L0.386853 -0.040199 L0.002428 0.286706 L0.000787 0.286396 L-0.010383 0.264835 L0.000331 0.203890 L-0.002703 0.084038 L-0.089679 0.111777 L-0.122520 0.048384 L-0.133178 0.014968 L-0.138925 0.016720 L-0.143073 0.008713 L-0.230030 -0.264192 L-0.230082 -0.264177 L-0.230688 -0.266257 z " fill="rgb(245,195,195)" />
<path d="M0.002843 -0.306640 L1.002843 -0.306640 L1.002843 0.693360 L0.002843 0.693360  z" fill="none" stroke="rgb(128,128,128)" stroke-width="0.01" />
<line x1="0.100763" y1="-0.36736" x2="0.429507" y2="-0.076471" style="stroke:rgb(246,147,147);stroke-width:0.01" />
<line x1="0.405771" y1="-0.0974737" x2="0.410593" y2="-0.0477706" style="stroke:rgb(246,147,147);stroke-width:0.01" />
<line x1="0.100763" y1="-0.36736" x2="-0.230688" y2="-0.266257" style="stroke:rgb(246,147,147);stroke-width:0.01" />
<line x1="0.106485" y1="-0.362296" x2="-0.230082" y2="-0.264177" style="stroke:rgb(246,147,147);stroke-width:0.01" />
<line x1="0.00284346" y1="0.00551555" x2="0.00284346" y2="0.286353" style="stroke:rgb(246,147,147);stroke-width:0.01" />
<line x1="0.00284346" y1="0.00551555" x2="0.00973463" y2="0.280493" style="stroke:rgb(246,147,147);stroke-width:0.01" />
<line x1="-0.00703478" y1="-0.0870212" x2="0.00242818" y2="0.286706" style="stroke:rgb(246,147,147);stroke-width:0.01" />
<line x1="0.100763" y1="-0.36736" x2="-0.0103834" y2="0.264835" style="stroke:rgb(246,147,147);stroke-width:0.01" />
<line x1="0.106485" y1="-0.362296" x2="0.00197311" y2="0.278661" style="stroke:rgb(246,147,147);stroke-width:0.01" />
<line x1="-0.22356" y1="-0.268431" x2="-0.142545" y2="0.00973301" style="stroke:rgb(246,147,147);stroke-width:0.01" />
<line x1="-0.230688" y1="-0.266257" x2="-0.230082" y2="-0.264177" style="stroke:rgb(246,147,147);stroke-width:0.01" />
<line x1="0.362166" y1="-0.136057" x2="0.338033" y2="0.00131614" style="stroke:rgb(246,147,147);stroke-width:0.01" />
<line x1="-0.22356" y1="-0.268431" x2="-0.12252" y2="0.0483844" style="stroke:rgb(246,147,147);stroke-width:0.01" />
<line x1="-0.230688" y1="-0.266257" x2="-0.143073" y2="0.0087126" style="stroke:rgb(246,147,147);stroke-width:0.01" />
<line x1="0.00016063" y1="0.269809" x2="-0.00357196" y2="0.277983" style="stroke:rgb(246,147,147);stroke-width:0.01" />
<line x1="0.00690415" y1="0.27299" x2="0.000786601" y2="0.286396" style="stroke:rgb(246,147,147);stroke-width:0.01" />
<line x1="0.00016063" y1="0.269809" x2="-0.00369969" y2="0.277736" style="stroke:rgb(246,147,147);stroke-width:0.01" />
<line x1="0.00690415" y1="0.27299" x2="0.000572784" y2="0.285983" style="stroke:rgb(246,147,147);stroke-width:0.01" />
<line x1="-0.143073" y1="0.0087126" x2="-0.138925" y2="0.0167201" style="stroke:rgb(246,147,147);stroke-width:0.01" />
<line x1="-0.12252" y1="0.0483844" x2="-0.0896787" y2="0.111777" style="stroke:rgb(246,147,147);stroke-width:0.01" />
<line x1="-0.0103834" y1="0.264835" x2="0.000786601" y2="0.286396" style="stroke:rgb(246,147,147);stroke-width:0.01" />
<line x1="-0.137723" y1="0.015787" x2="-0.138925" y2="0.0167201" style="stroke:rgb(246,147,147);stroke-width:0.01" />
<line x1="-0.143073" y1="0.0087126" x2="-0.137723" y2="0.015787" style="stroke:rgb(246,147,147);stroke-width:0.01" />
<line x1="-0.12252" y1="0.0483844" x2="-0.0800837" y2="0.104524" style="stroke:rgb(246,147,147);stroke-width:0.01" />
<line x1="-0.142545" y1="0.00973301" x2="-0.137723" y2="0.015787" style="stroke:rgb(246,147,147);stroke-width:0.01" />
<line x1="0.405771" y1="-0.0974737" x2="-0.00703478" y2="-0.0870212" style="stroke:rgb(246,147,147);stroke-width:0.01" />
<line x1="-0.0800837" y1="0.104524" x2="-0.0896787" y2="0.111777" style="stroke:rgb(246,147,147);stroke-width:0.01" />
<line x1="0.362166" y1="-0.136057" x2="-0.138925" y2="0.0167201" style="stroke:rgb(246,147,147);stroke-width:0.01" />
<line x1="0.429507" y1="-0.076471" x2="0.410593" y2="-0.0477706" style="stroke:rgb(246,147,147);stroke-width:0.01" />
<line x1="0.338033" y1="0.00131614" x2="0.00284346" y2="0.00551555" style="stroke:rgb(246,147,147);stroke-width:0.01" />
<line x1="0.429507" y1="-0.076471" x2="0.00242818" y2="0.286706" style="stroke:rgb(246,147,147);stroke-width:0.01" />
<line x1="0.410593" y1="-0.0477706" x2="-0.0896787" y2="0.111777" style="stroke:rgb(246,147,147);stroke-width:0.01" />
<line x1="-0.0103834" y1="0.264835" x2="0.00690415" y2="0.27299" style="stroke:rgb(246,147,147);stroke-width:0.01" />
<line x1="-0.00357196" y1="0.277983" x2="0.00973463" y2="0.280493" style="stroke:rgb(246,147,147);stroke-width:0.01" />
<line x1="-0.00369969" y1="0.277736" x2="0.00197311" y2="0.278661" style="stroke:rgb(246,147,147);stroke-width:0.01" />
<line x1="0.000786601" y1="0.286396" x2="0.00242818" y2="0.286706" style="stroke:rgb(246,147,147);stroke-width:0.01" />
<line x1="0.000572784" y1="0.285983" x2="0.00284346" y2="0.286353" style="stroke:rgb(246,147,147);stroke-width:0.01" />
</g>
</svg>
