<svg xmlns="http://www.w3.org/2000/svg" viewBox="-1.5 -1.5 3 3">
<g transform="scale(1, -1)">
<path d="M0.129539 -0.341934 L0.308181 -0.183863 L0.319155 -0.191002 L0.384236 -0.116567 L0.027585 0.237973 L-0.039972 0.249438 L-0.044074 0.247459 L-0.046550 0.233914 L0.027058 0.148389 L0.026073 0.109464 L-0.063782 0.138121 L-0.092535 0.077600 L-0.104401 0.040393 L-0.109477 0.041941 L-0.116564 0.027024 L-0.201254 -0.238767 L-0.201306 -0.238752 L-0.201912 -0.240832 z " fill="rgb(245,195,195)" />
<path d="M0.031620 -0.281215 L1.031620 -0.281215 L1.031620 0.718785 L0.031620 0.718785  z" fill="none" stroke="rgb(128,128,128)" stroke-width="0.01" />
<line x1="0.319155" y1="-0.191002" x2="0.384236" y2="-0.116567" style="stroke:rgb(246,147,147);stroke-width:0.01" />
<line x1="0.129539" y1="-0.341934" x2="0.384236" y2="-0.116567" style="stroke:rgb(246,147,147);stroke-width:0.01" />
<line x1="0.129539" y1="-0.341934" x2="-0.201912" y2="-0.240832" style="stroke:rgb(246,147,147);stroke-width:0.01" />
<line x1="0.135261" y1="-0.336871" x2="-0.201306" y2="-0.238752" style="stroke:rgb(246,147,147);stroke-width:0.01" />
<line x1="0.0316196" y1="0.0309409" x2="0.0316196" y2="0.233963" style="stroke:rgb(246,147,147);stroke-width:0.01" />
<line x1="0.0316196" y1="0.0309409" x2="0.0365839" y2="0.229028" style="stroke:rgb(246,147,147);stroke-width:0.01" />
<line x1="0.0217414" y1="-0.0615958" x2="0.0292839" y2="0.236285" style="stroke:rgb(246,147,147);stroke-width:0.01" />
<line x1="0.240827" y1="-0.0999909" x2="0.238457" y2="0.0283496" style="stroke:rgb(246,147,147);stroke-width:0.01" />
<line x1="0.340017" y1="-0.167141" x2="0.336967" y2="-0.0695775" style="stroke:rgb(246,147,147);stroke-width:0.01" />
<line x1="0.129539" y1="-0.341934" x2="0.0275853" y2="0.237973" style="stroke:rgb(246,147,147);stroke-width:0.01" />
<line x1="0.135261" y1="-0.336871" x2="0.0442269" y2="0.22143" style="stroke:rgb(246,147,147);stroke-width:0.01" />
<line x1="-0.0385078" y1="0.234417" x2="-0.0362491" y2="0.248806" style="stroke:rgb(246,147,147);stroke-width:0.01" />
<line x1="-0.046194" y1="0.233501" x2="-0.0440013" y2="0.247494" style="stroke:rgb(246,147,147);stroke-width:0.01" />
<line x1="-0.0402931" y1="0.226645" x2="-0.0362491" y2="0.248806" style="stroke:rgb(246,147,147);stroke-width:0.01" />
<line x1="-0.0465496" y1="0.233914" x2="-0.0440744" y2="0.247459" style="stroke:rgb(246,147,147);stroke-width:0.01" />
<line x1="-0.194783" y1="-0.243006" x2="-0.115462" y2="0.029343" style="stroke:rgb(246,147,147);stroke-width:0.01" />
<line x1="-0.201912" y1="-0.240832" x2="-0.201306" y2="-0.238752" style="stroke:rgb(246,147,147);stroke-width:0.01" />
<line x1="-0.194783" y1="-0.243006" x2="-0.0925354" y2="0.0776002" style="stroke:rgb(246,147,147);stroke-width:0.01" />
<line x1="-0.201912" y1="-0.240832" x2="-0.116564" y2="0.0270245" style="stroke:rgb(246,147,147);stroke-width:0.01" />
<line x1="0.290343" y1="-0.172259" x2="0.340017" y2="-0.167141" style="stroke:rgb(246,147,147);stroke-width:0.01" />
<line x1="0.290343" y1="-0.172259" x2="0.218639" y2="0.0480505" style="stroke:rgb(246,147,147);stroke-width:0.01" />
<line x1="0.378341" y1="-0.123308" x2="0.372658" y2="-0.105057" style="stroke:rgb(246,147,147);stroke-width:0.01" />
<line x1="-0.116564" y1="0.0270245" x2="-0.109477" y2="0.0419407" style="stroke:rgb(246,147,147);stroke-width:0.01" />
<line x1="-0.0925354" y1="0.0776002" x2="-0.0637824" y2="0.138121" style="stroke:rgb(246,147,147);stroke-width:0.01" />
<line x1="-0.0417483" y1="0.246214" x2="-0.0399715" y2="0.249438" style="stroke:rgb(246,147,147);stroke-width:0.01" />
<line x1="-0.107631" y1="0.0407014" x2="-0.109477" y2="0.0419407" style="stroke:rgb(246,147,147);stroke-width:0.01" />
<line x1="-0.116564" y1="0.0270245" x2="-0.107631" y2="0.0407014" style="stroke:rgb(246,147,147);stroke-width:0.01" />
<line x1="-0.0925354" y1="0.0776002" x2="-0.056242" y2="0.133198" style="stroke:rgb(246,147,147);stroke-width:0.01" />
<line x1="-0.115462" y1="0.029343" x2="-0.107631" y2="0.0407014" style="stroke:rgb(246,147,147);stroke-width:0.01" />
<line x1="0.319155" y1="-0.191002" x2="-0.0465496" y2="0.233914" style="stroke:rgb(246,147,147);stroke-width:0.01" />
<line x1="0.319155" y1="-0.191002" x2="0.290343" y2="-0.172259" style="stroke:rgb(246,147,147);stroke-width:0.01" />
<line x1="0.378341" y1="-0.123308" x2="0.240827" y2="-0.0999909" style="stroke:rgb(246,147,147);stroke-width:0.01" />
<line x1="0.336967" y1="-0.0695775" x2="0.0217414" y2="-0.0615958" style="stroke:rgb(246,147,147);stroke-width:0.01" />
<line x1="-0.056242" y1="0.133198" x2="-0.0637824" y2="0.138121" style="stroke:rgb(246,147,147);stroke-width:0.01" />
<line x1="0.372658" y1="-0.105057" x2="-0.109477" y2="0.0419407" style="stroke:rgb(246,147,147);stroke-width:0.01" />
<line x1="0.384236" y1="-0.116567" x2="0.0275853" y2="0.237973" style="stroke:rgb(246,147,147);stroke-width:0.01" />
<line x1="0.238457" y1="0.0283496" x2="0.0316196" y2="0.0309409" style="stroke:rgb(246,147,147);stroke-width:0.01" />
<line x1="0.218639" y1="0.0480505" x2="-0.0637824" y2="0.138121" style="stroke:rgb(246,147,147);stroke-width:0.01" />
<line x1="-0.0417483" y1="0.246214" x2="-0.0440013" y2="0.247494" style="stroke:rgb(246,147,147);stroke-width:0.01" />
<line x1="-0.0417483" y1="0.246214" x2="-0.0440744" y2="0.247459" style="stroke:rgb(246,147,147);stroke-width:0.01" />
<line x1="-0.0440744" y1="0.247459" x2="-0.0399715" y2="0.249438" style="stroke:rgb(246,147,147);stroke-width:0.01" />
<line x1="0.0442269" y1="0.22143" x2="-0.0385078" y2="0.234417" style="stroke:rgb(246,147,147);stroke-width:0.01" />
<line x1="0.0275853" y1="0.237973" x2="-0.0399715" y2="0.249438" style="stroke:rgb(246,147,147);stroke-width:0.01" />
<line x1="-0.0402931" y1="0.226645" x2="0.0365839" y2="0.229028" style="stroke:rgb(246,147,147);stroke-width:0.01" />
<line x1="-0.046194" y1="0.233501" x2="0.0316196" y2="0.233963" style="stroke:rgb(246,147,147);stroke-width:0.01" />
<line x1="-0.0465496" y1="0.233914" x2="0.0292839" y2="0.236285" style="stroke:rgb(246,147,147);stroke-width:0.01" />
</g>
</svg>
