<svg xmlns="http://www.w3.org/2000/svg" viewBox="-1.5 -1.5 3 3">
<g transform="scale(1, -1)">
<path d="M0.214416 -0.232015 L0.465280 -0.012281 L0.482680 -0.012737 L0.499357 0.000000 L0.505817 0.000000 L0.530864 0.024063 L0.655080 0.118933 L0.542730 0.286296 L0.133026 0.095121 L0.197756 -0.064364 L0.200469 -0.063361 L0.200576 -0.063115 L0.213816 -0.057250 L0.222596 -0.076162 L0.214337 -0.232010 z " fill="rgb(245,195,195)" />
<path d="M0.000000 0.000000 L1.000000 0.000000 L1.000000 1.000000 L0.000000 1.000000  z" fill="none" stroke="rgb(128,128,128)" stroke-width="0.01" />
<line x1="0.505817" y1="0" x2="0.645094" y2="0.133809" style="stroke:rgb(246,147,147);stroke-width:0.01" />
<line x1="0.48268" y1="-0.0127371" x2="0.65508" y2="0.118933" style="stroke:rgb(246,147,147);stroke-width:0.01" />
<line x1="0.214416" y1="-0.232015" x2="0.64027" y2="0.140994" style="stroke:rgb(246,147,147);stroke-width:0.01" />
<line x1="0.214416" y1="-0.232015" x2="0.214337" y2="-0.23201" style="stroke:rgb(246,147,147);stroke-width:0.01" />
<line x1="0.26907" y1="-0.107321" x2="0.65508" y2="0.118933" style="stroke:rgb(246,147,147);stroke-width:0.01" />
<line x1="0.558716" y1="0.100277" x2="0.55872" y2="0.100289" style="stroke:rgb(246,147,147);stroke-width:0.01" />
<line x1="0.420883" y1="0.111735" x2="0.521753" y2="0.276507" style="stroke:rgb(246,147,147);stroke-width:0.01" />
<line x1="0.495905" y1="0.0834322" x2="0.560271" y2="0.260166" style="stroke:rgb(246,147,147);stroke-width:0.01" />
<line x1="0.21998" y1="-0.0688416" x2="0.64027" y2="0.140994" style="stroke:rgb(246,147,147);stroke-width:0.01" />
<line x1="0.197756" y1="-0.064364" x2="0.645094" y2="0.133809" style="stroke:rgb(246,147,147);stroke-width:0.01" />
<line x1="0.197756" y1="-0.064364" x2="0.200469" y2="-0.0633612" style="stroke:rgb(246,147,147);stroke-width:0.01" />
<line x1="0.226314" y1="-0.00601272" x2="0.54273" y2="0.286296" style="stroke:rgb(246,147,147);stroke-width:0.01" />
<line x1="0.48268" y1="-0.0127371" x2="0.552371" y2="0.271933" style="stroke:rgb(246,147,147);stroke-width:0.01" />
<line x1="0.200469" y1="-0.0633612" x2="0.304489" y2="0.175128" style="stroke:rgb(246,147,147);stroke-width:0.01" />
<line x1="0.230231" y1="-0.0926062" x2="0.328711" y2="0.18643" style="stroke:rgb(246,147,147);stroke-width:0.01" />
<line x1="0.196585" y1="-0.0614786" x2="0.278029" y2="0.162782" style="stroke:rgb(246,147,147);stroke-width:0.01" />
<line x1="0.26907" y1="-0.107321" x2="0.311775" y2="0.178528" style="stroke:rgb(246,147,147);stroke-width:0.01" />
<line x1="0.505817" y1="0" x2="0.516308" y2="0.261887" style="stroke:rgb(246,147,147);stroke-width:0.01" />
<line x1="0.214416" y1="-0.232015" x2="0.232822" y2="0" style="stroke:rgb(246,147,147);stroke-width:0.01" />
<line x1="0.214337" y1="-0.23201" x2="0.226314" y2="-0.00601272" style="stroke:rgb(246,147,147);stroke-width:0.01" />
<line x1="0.26907" y1="-0.107321" x2="0.230231" y2="-0.0926062" style="stroke:rgb(246,147,147);stroke-width:0.01" />
<line x1="0.48268" y1="-0.0127371" x2="0.226314" y2="-0.00601272" style="stroke:rgb(246,147,147);stroke-width:0.01" />
<line x1="0.232822" y1="0" x2="0.505817" y2="0" style="stroke:rgb(246,147,147);stroke-width:0.01" />
<line x1="0.133026" y1="0.0951205" x2="0.54273" y2="0.286296" style="stroke:rgb(246,147,147);stroke-width:0.01" />
<line x1="0.200469" y1="-0.0633612" x2="0.196585" y2="-0.0614786" style="stroke:rgb(246,147,147);stroke-width:0.01" />
<line x1="0.197756" y1="-0.064364" x2="0.133026" y2="0.0951205" style="stroke:rgb(246,147,147);stroke-width:0.01" />
<line x1="0.230231" y1="-0.0926062" x2="0.141283" y2="0.0989734" style="stroke:rgb(246,147,147);stroke-width:0.01" />
<line x1="0.21998" y1="-0.0688416" x2="0.141283" y2="0.0989734" style="stroke:rgb(246,147,147);stroke-width:0.01" />
<line x1="0.21998" y1="-0.0688416" x2="0.133026" y2="0.0951205" style="stroke:rgb(246,147,147);stroke-width:0.01" />
<line x1="0.495905" y1="0.0834322" x2="0.278029" y2="0.162782" style="stroke:rgb(246,147,147);stroke-width:0.01" />
<line x1="0.558716" y1="0.100277" x2="0.304489" y2="0.175128" style="stroke:rgb(246,147,147);stroke-width:0.01" />
<line x1="0.420883" y1="0.111735" x2="0.311775" y2="0.178528" style="stroke:rgb(246,147,147);stroke-width:0.01" />
<line x1="0.55872" y1="0.100289" x2="0.328711" y2="0.18643" style="stroke:rgb(246,147,147);stroke-width:0.01" />
<line x1="0.560271" y1="0.260166" x2="0.516308" y2="0.261887" style="stroke:rgb(246,147,147);stroke-width:0.01" />
<line x1="0.65508" y1="0.118933" x2="0.54273" y2="0.286296" style="stroke:rgb(246,147,147);stroke-width:0.01" />
<line x1="0.552371" y1="0.271933" x2="0.521753" y2="0.276507" style="stroke:rgb(246,147,147);stroke-width:0.01" />
</g>
</svg>
