<svg xmlns="http://www.w3.org/2000/svg" viewBox="-1.5 -1.5 3 3">
<g transform="scale(1, -1)">
<path d="M-0.137504 -0.212756 L0.113360 0.006978 L0.130760 0.006522 L0.147437 0.019259 L0.153897 0.019259 L0.178944 0.043322 L0.303160 0.138191 L0.190810 0.305554 L-0.218894 0.114379 L-0.154164 -0.045105 L-0.151451 -0.044102 L-0.151343 -0.043856 L-0.138104 -0.037991 L-0.129324 -0.056903 L-0.137583 -0.212752 z " fill="rgb(245,195,195)" />
<path d="M-0.351920 0.019259 L0.648080 0.019259 L0.648080 1.019259 L-0.351920 1.019259  z" fill="none" stroke="rgb(128,128,128)" stroke-width="0.01" />
<line x1="0.153897" y1="0.0192588" x2="0.293174" y2="0.153068" style="stroke:rgb(246,147,147);stroke-width:0.01" />
<line x1="0.13076" y1="0.0065217" x2="0.30316" y2="0.138191" style="stroke:rgb(246,147,147);stroke-width:0.01" />
<line x1="-0.137504" y1="-0.212756" x2="0.28835" y2="0.160253" style="stroke:rgb(246,147,147);stroke-width:0.01" />
<line x1="-0.137504" y1="-0.212756" x2="-0.137583" y2="-0.212752" style="stroke:rgb(246,147,147);stroke-width:0.01" />
<line x1="-0.0828503" y1="-0.0880627" x2="0.30316" y2="0.138191" style="stroke:rgb(246,147,147);stroke-width:0.01" />
<line x1="0.206796" y1="0.119536" x2="0.2068" y2="0.119548" style="stroke:rgb(246,147,147);stroke-width:0.01" />
<line x1="0.0689635" y1="0.130994" x2="0.169833" y2="0.295766" style="stroke:rgb(246,147,147);stroke-width:0.01" />
<line x1="0.143985" y1="0.102691" x2="0.208351" y2="0.279424" style="stroke:rgb(246,147,147);stroke-width:0.01" />
<line x1="-0.13194" y1="-0.0495828" x2="0.28835" y2="0.160253" style="stroke:rgb(246,147,147);stroke-width:0.01" />
<line x1="-0.154164" y1="-0.0451053" x2="0.293174" y2="0.153068" style="stroke:rgb(246,147,147);stroke-width:0.01" />
<line x1="-0.154164" y1="-0.0451053" x2="-0.151451" y2="-0.0441024" style="stroke:rgb(246,147,147);stroke-width:0.01" />
<line x1="-0.125606" y1="0.013246" x2="0.19081" y2="0.305554" style="stroke:rgb(246,147,147);stroke-width:0.01" />
<line x1="0.13076" y1="0.0065217" x2="0.200451" y2="0.291192" style="stroke:rgb(246,147,147);stroke-width:0.01" />
<line x1="-0.151451" y1="-0.0441024" x2="-0.0474312" y2="0.194387" style="stroke:rgb(246,147,147);stroke-width:0.01" />
<line x1="-0.121689" y1="-0.0733474" x2="-0.0232094" y2="0.205689" style="stroke:rgb(246,147,147);stroke-width:0.01" />
<line x1="-0.155335" y1="-0.0422199" x2="-0.0738907" y2="0.18204" style="stroke:rgb(246,147,147);stroke-width:0.01" />
<line x1="-0.0828503" y1="-0.0880627" x2="-0.040145" y2="0.197787" style="stroke:rgb(246,147,147);stroke-width:0.01" />
<line x1="0.153897" y1="0.0192588" x2="0.164388" y2="0.281146" style="stroke:rgb(246,147,147);stroke-width:0.01" />
<line x1="-0.137504" y1="-0.212756" x2="-0.119098" y2="0.0192588" style="stroke:rgb(246,147,147);stroke-width:0.01" />
<line x1="-0.137583" y1="-0.212752" x2="-0.125606" y2="0.013246" style="stroke:rgb(246,147,147);stroke-width:0.01" />
<line x1="-0.0828503" y1="-0.0880627" x2="-0.121689" y2="-0.0733474" style="stroke:rgb(246,147,147);stroke-width:0.01" />
<line x1="0.13076" y1="0.0065217" x2="-0.125606" y2="0.013246" style="stroke:rgb(246,147,147);stroke-width:0.01" />
<line x1="-0.119098" y1="0.0192588" x2="0.153897" y2="0.0192588" style="stroke:rgb(246,147,147);stroke-width:0.01" />
<line x1="-0.218894" y1="0.114379" x2="0.19081" y2="0.305554" style="stroke:rgb(246,147,147);stroke-width:0.01" />
<line x1="-0.151451" y1="-0.0441024" x2="-0.155335" y2="-0.0422199" style="stroke:rgb(246,147,147);stroke-width:0.01" />
<line x1="-0.154164" y1="-0.0451053" x2="-0.218894" y2="0.114379" style="stroke:rgb(246,147,147);stroke-width:0.01" />
<line x1="-0.121689" y1="-0.0733474" x2="-0.210637" y2="0.118232" style="stroke:rgb(246,147,147);stroke-width:0.01" />
<line x1="-0.13194" y1="-0.0495828" x2="-0.210637" y2="0.118232" style="stroke:rgb(246,147,147);stroke-width:0.01" />
<line x1="-0.13194" y1="-0.0495828" x2="-0.218894" y2="0.114379" style="stroke:rgb(246,147,147);stroke-width:0.01" />
<line x1="0.143985" y1="0.102691" x2="-0.0738907" y2="0.18204" style="stroke:rgb(246,147,147);stroke-width:0.01" />
<line x1="0.206796" y1="0.119536" x2="-0.0474312" y2="0.194387" style="stroke:rgb(246,147,147);stroke-width:0.01" />
<line x1="0.0689635" y1="0.130994" x2="-0.040145" y2="0.197787" style="stroke:rgb(246,147,147);stroke-width:0.01" />
<line x1="0.2068" y1="0.119548" x2="-0.0232094" y2="0.205689" style="stroke:rgb(246,147,147);stroke-width:0.01" />
<line x1="0.208351" y1="0.279424" x2="0.164388" y2="0.281146" style="stroke:rgb(246,147,147);stroke-width:0.01" />
<line x1="0.30316" y1="0.138191" x2="0.19081" y2="0.305554" style="stroke:rgb(246,147,147);stroke-width:0.01" />
<line x1="0.200451" y1="0.291192" x2="0.169833" y2="0.295766" style="stroke:rgb(246,147,147);stroke-width:0.01" />
</g>
</svg>
