<svg xmlns="http://www.w3.org/2000/svg" viewBox="-1.5 -1.5 3 3">
<g transform="scale(1, -1)">
<path d="M-0.275914 -0.083795 L0.723821 -0.060321 L0.722936 -0.013726 L0.722517 -0.013734 L0.712909 0.329679 L-0.287091 0.315693 L-0.287091 -0.036940 L-0.292418 -0.037327 L-0.292171 -0.046439 L-0.294463 -0.046581 L-0.293644 -0.071180 L-0.292229 -0.071132 L-0.291190 -0.082548 L-0.275974 -0.081650 z " fill="rgb(245,195,195)" />
<path d="M-0.287091 -0.233564 L0.712909 -0.233564 L0.712909 0.766436 L-0.287091 0.766436  z" fill="none" stroke="rgb(128,128,128)" stroke-width="0.01" />
<line x1="-0.293644" y1="-0.0711796" x2="-0.294463" y2="-0.0465811" style="stroke:rgb(246,147,147);stroke-width:0.01" />
<line x1="-0.287091" y1="-0.0823057" x2="-0.287091" y2="0.315693" style="stroke:rgb(246,147,147);stroke-width:0.01" />
<line x1="0.712909" y1="-0.0232893" x2="0.712909" y2="0.329679" style="stroke:rgb(246,147,147);stroke-width:0.01" />
<line x1="-0.29119" y1="-0.0825477" x2="-0.292418" y2="-0.0373267" style="stroke:rgb(246,147,147);stroke-width:0.01" />
<line x1="-0.275914" y1="-0.0837953" x2="-0.276884" y2="-0.0327062" style="stroke:rgb(246,147,147);stroke-width:0.01" />
<line x1="-0.275914" y1="-0.0837953" x2="-0.287091" y2="0.315693" style="stroke:rgb(246,147,147);stroke-width:0.01" />
<line x1="-0.29119" y1="-0.0825477" x2="-0.294463" y2="-0.0465811" style="stroke:rgb(246,147,147);stroke-width:0.01" />
<line x1="-0.287091" y1="-0.0823057" x2="-0.292418" y2="-0.0373267" style="stroke:rgb(246,147,147);stroke-width:0.01" />
<line x1="0.723821" y1="-0.0603214" x2="0.722936" y2="-0.0137259" style="stroke:rgb(246,147,147);stroke-width:0.01" />
<line x1="0.707578" y1="-0.023604" x2="0.70598" y2="0.0352099" style="stroke:rgb(246,147,147);stroke-width:0.01" />
<line x1="0.723821" y1="-0.0603214" x2="0.712909" y2="0.329679" style="stroke:rgb(246,147,147);stroke-width:0.01" />
<line x1="0.705331" y1="-0.0237366" x2="0.704027" y2="0.0154179" style="stroke:rgb(246,147,147);stroke-width:0.01" />
<line x1="0.705331" y1="-0.0237366" x2="0.704133" y2="-0.00961581" style="stroke:rgb(246,147,147);stroke-width:0.01" />
<line x1="0.707578" y1="-0.023604" x2="0.704027" y2="0.0154179" style="stroke:rgb(246,147,147);stroke-width:0.01" />
<line x1="0.712909" y1="-0.0232893" x2="0.70598" y2="0.0352099" style="stroke:rgb(246,147,147);stroke-width:0.01" />
<line x1="0.154005" y1="-0.0562739" x2="0.704133" y2="-0.00961581" style="stroke:rgb(246,147,147);stroke-width:0.01" />
<line x1="-0.275914" y1="-0.0837953" x2="0.723821" y2="-0.0603214" style="stroke:rgb(246,147,147);stroke-width:0.01" />
<line x1="-0.29119" y1="-0.0825477" x2="0.712909" y2="-0.0232893" style="stroke:rgb(246,147,147);stroke-width:0.01" />
<line x1="-0.293644" y1="-0.0711796" x2="0.154005" y2="-0.0562739" style="stroke:rgb(246,147,147);stroke-width:0.01" />
<line x1="-0.294463" y1="-0.0465811" x2="0.704027" y2="0.0154179" style="stroke:rgb(246,147,147);stroke-width:0.01" />
<line x1="-0.292418" y1="-0.0373267" x2="0.70598" y2="0.0352099" style="stroke:rgb(246,147,147);stroke-width:0.01" />
<line x1="-0.276884" y1="-0.0327062" x2="0.722936" y2="-0.0137259" style="stroke:rgb(246,147,147);stroke-width:0.01" />
<line x1="-0.287091" y1="0.315693" x2="0.712909" y2="0.329679" style="stroke:rgb(246,147,147);stroke-width:0.01" />
</g>
</svg>
