<svg xmlns="http://www.w3.org/2000/svg" viewBox="-1.5 -1.5 3 3">
<g transform="scale(1, -1)">
<path d="M0.011177 0.149769 L1.010911 0.173243 L1.010027 0.219838 L1.009608 0.219830 L1.000000 0.563243 L0.000000 0.549257 L0.000000 0.196624 L-0.005328 0.196237 L-0.005080 0.187125 L-0.007372 0.186983 L-0.006553 0.162384 L-0.005138 0.162431 L-0.004099 0.151016 L0.011117 0.151914 z " fill="rgb(245,195,195)" />
<path d="M0.000000 0.000000 L1.000000 0.000000 L1.000000 1.000000 L0.000000 1.000000  z" fill="none" stroke="rgb(128,128,128)" stroke-width="0.01" />
<line x1="-0.00655282" y1="0.162384" x2="-0.0073719" y2="0.186983" style="stroke:rgb(246,147,147);stroke-width:0.01" />
<line x1="0" y1="0.151258" x2="0" y2="0.549257" style="stroke:rgb(246,147,147);stroke-width:0.01" />
<line x1="1" y1="0.210275" x2="1" y2="0.563243" style="stroke:rgb(246,147,147);stroke-width:0.01" />
<line x1="-0.00409927" y1="0.151016" x2="-0.00532755" y2="0.196237" style="stroke:rgb(246,147,147);stroke-width:0.01" />
<line x1="0.0111767" y1="0.149769" x2="0.0102068" y2="0.200858" style="stroke:rgb(246,147,147);stroke-width:0.01" />
<line x1="0.0111767" y1="0.149769" x2="0" y2="0.549257" style="stroke:rgb(246,147,147);stroke-width:0.01" />
<line x1="-0.00409927" y1="0.151016" x2="-0.0073719" y2="0.186983" style="stroke:rgb(246,147,147);stroke-width:0.01" />
<line x1="0" y1="0.151258" x2="-0.00532755" y2="0.196237" style="stroke:rgb(246,147,147);stroke-width:0.01" />
<line x1="1.01091" y1="0.173243" x2="1.01003" y2="0.219838" style="stroke:rgb(246,147,147);stroke-width:0.01" />
<line x1="0.994669" y1="0.20996" x2="0.993071" y2="0.268774" style="stroke:rgb(246,147,147);stroke-width:0.01" />
<line x1="1.01091" y1="0.173243" x2="1" y2="0.563243" style="stroke:rgb(246,147,147);stroke-width:0.01" />
<line x1="0.992422" y1="0.209827" x2="0.991118" y2="0.248982" style="stroke:rgb(246,147,147);stroke-width:0.01" />
<line x1="0.992422" y1="0.209827" x2="0.991224" y2="0.223948" style="stroke:rgb(246,147,147);stroke-width:0.01" />
<line x1="0.994669" y1="0.20996" x2="0.991118" y2="0.248982" style="stroke:rgb(246,147,147);stroke-width:0.01" />
<line x1="1" y1="0.210275" x2="0.993071" y2="0.268774" style="stroke:rgb(246,147,147);stroke-width:0.01" />
<line x1="0.441096" y1="0.17729" x2="0.991224" y2="0.223948" style="stroke:rgb(246,147,147);stroke-width:0.01" />
<line x1="0.0111767" y1="0.149769" x2="1.01091" y2="0.173243" style="stroke:rgb(246,147,147);stroke-width:0.01" />
<line x1="-0.00409927" y1="0.151016" x2="1" y2="0.210275" style="stroke:rgb(246,147,147);stroke-width:0.01" />
<line x1="-0.00655282" y1="0.162384" x2="0.441096" y2="0.17729" style="stroke:rgb(246,147,147);stroke-width:0.01" />
<line x1="-0.0073719" y1="0.186983" x2="0.991118" y2="0.248982" style="stroke:rgb(246,147,147);stroke-width:0.01" />
<line x1="-0.00532755" y1="0.196237" x2="0.993071" y2="0.268774" style="stroke:rgb(246,147,147);stroke-width:0.01" />
<line x1="0.0102068" y1="0.200858" x2="1.01003" y2="0.219838" style="stroke:rgb(246,147,147);stroke-width:0.01" />
<line x1="0" y1="0.549257" x2="1" y2="0.563243" style="stroke:rgb(246,147,147);stroke-width:0.01" />
</g>
</svg>
