<svg xmlns="http://www.w3.org/2000/svg" viewBox="-1.5 -1.5 3 3">
<g transform="scale(1, -1)">
<path d="M1.015694 -0.019946 L1.016851 -0.018860 L0.999253 0.000000 L1.000000 0.000000 L1.000000 0.006212 L1.011090 0.006315 L1.011021 0.013616 L0.767095 0.248806 L0.514183 0.000000 L0.514102 -0.004929 z " fill="rgb(245,195,195)" />
<path d="M0.000000 0.000000 L1.000000 0.000000 L1.000000 1.000000 L0.000000 1.000000  z" fill="none" stroke="rgb(128,128,128)" stroke-width="0.01" />
<line x1="1.01569" y1="-0.0199464" x2="1.01685" y2="-0.0188595" style="stroke:rgb(246,147,147);stroke-width:0.01" />
<line x1="1.01568" y1="-0.0199459" x2="1.01685" y2="-0.0188595" style="stroke:rgb(246,147,147);stroke-width:0.01" />
<line x1="0.514183" y1="0" x2="0.767095" y2="0.248806" style="stroke:rgb(246,147,147);stroke-width:0.01" />
<line x1="0.514102" y1="-0.00492863" x2="0.514323" y2="0.00013756" style="stroke:rgb(246,147,147);stroke-width:0.01" />
<line x1="0.5199" y1="-0.00510222" x2="0.520306" y2="0.00602302" style="stroke:rgb(246,147,147);stroke-width:0.01" />
<line x1="0.515731" y1="-0.00497739" x2="0.515961" y2="0.00174885" style="stroke:rgb(246,147,147);stroke-width:0.01" />
<line x1="0.518346" y1="-0.00505568" x2="0.518656" y2="0.00440016" style="stroke:rgb(246,147,147);stroke-width:0.01" />
<line x1="0.518346" y1="-0.00505568" x2="0.518601" y2="0.00434574" style="stroke:rgb(246,147,147);stroke-width:0.01" />
<line x1="0.514323" y1="0.00013756" x2="1.01102" y2="0.0136164" style="stroke:rgb(246,147,147);stroke-width:0.01" />
<line x1="0.515731" y1="-0.00497739" x2="0.515902" y2="0.00169139" style="stroke:rgb(246,147,147);stroke-width:0.01" />
<line x1="0.5199" y1="-0.00510222" x2="0.520158" y2="0.00587742" style="stroke:rgb(246,147,147);stroke-width:0.01" />
<line x1="0.514102" y1="-0.00492863" x2="0.514183" y2="0" style="stroke:rgb(246,147,147);stroke-width:0.01" />
<line x1="0.515961" y1="0.00174885" x2="1.00612" y2="0.0104712" style="stroke:rgb(246,147,147);stroke-width:0.01" />
<line x1="0.520306" y1="0.00602302" x2="1.00873" y2="0.015821" style="stroke:rgb(246,147,147);stroke-width:0.01" />
<line x1="0.518656" y1="0.00440016" x2="1.00879" y2="0.0124438" style="stroke:rgb(246,147,147);stroke-width:0.01" />
<line x1="0.515902" y1="0.00169139" x2="1.01109" y2="0.00631509" style="stroke:rgb(246,147,147);stroke-width:0.01" />
<line x1="0.518601" y1="0.00434574" x2="1" y2="0.00950681" style="stroke:rgb(246,147,147);stroke-width:0.01" />
<line x1="0.514183" y1="0" x2="1" y2="0" style="stroke:rgb(246,147,147);stroke-width:0.01" />
<line x1="1" y1="0" x2="1" y2="0.00950681" style="stroke:rgb(246,147,147);stroke-width:0.01" />
<line x1="0.520158" y1="0.00587742" x2="1.00612" y2="0.00931451" style="stroke:rgb(246,147,147);stroke-width:0.01" />
<line x1="1.00612" y1="0.00931451" x2="1.00612" y2="0.0104712" style="stroke:rgb(246,147,147);stroke-width:0.01" />
<line x1="1.01109" y1="0.00631509" x2="1.01102" y2="0.0136164" style="stroke:rgb(246,147,147);stroke-width:0.01" />
<line x1="1.01569" y1="-0.0199464" x2="0.514102" y2="-0.00492863" style="stroke:rgb(246,147,147);stroke-width:0.01" />
<line x1="1.00879" y1="0.0124438" x2="1.00873" y2="0.015821" style="stroke:rgb(246,147,147);stroke-width:0.01" />
<line x1="1.01569" y1="-0.0199464" x2="0.764449" y2="0.246203" style="stroke:rgb(246,147,147);stroke-width:0.01" />
<line x1="1.01568" y1="-0.0199459" x2="0.762596" y2="0.24438" style="stroke:rgb(246,147,147);stroke-width:0.01" />
<line x1="1.01685" y1="-0.0188595" x2="0.767095" y2="0.248806" style="stroke:rgb(246,147,147);stroke-width:0.01" />
<line x1="1" y1="0.00950681" x2="0.762596" y2="0.24438" style="stroke:rgb(246,147,147);stroke-width:0.01" />
<line x1="1.00612" y1="0.0104712" x2="0.764449" y2="0.246203" style="stroke:rgb(246,147,147);stroke-width:0.01" />
<line x1="1.01102" y1="0.0136164" x2="0.767095" y2="0.248806" style="stroke:rgb(246,147,147);stroke-width:0.01" />
</g>
</svg>
