<svg xmlns="http://www.w3.org/2000/svg" viewBox="-1.5 -1.5 3 3">
<g transform="scale(1, -1)">
<path d="M0.130765 -0.043068 L0.131922 -0.041981 L0.114324 -0.023121 L0.115071 -0.023121 L0.115071 -0.016910 L0.126161 -0.016806 L0.126093 -0.009505 L-0.117834 0.225685 L-0.370746 -0.023121 L-0.370826 -0.028050 z " fill="rgb(245,195,195)" />
<path d="M-0.884929 -0.023121 L0.115071 -0.023121 L0.115071 0.976879 L-0.884929 0.976879  z" fill="none" stroke="rgb(128,128,128)" stroke-width="0.01" />
<line x1="0.130765" y1="-0.0430678" x2="0.131922" y2="-0.041981" style="stroke:rgb(246,147,147);stroke-width:0.01" />
<line x1="0.130749" y1="-0.0430674" x2="0.131922" y2="-0.041981" style="stroke:rgb(246,147,147);stroke-width:0.01" />
<line x1="-0.370746" y1="-0.0231214" x2="-0.117834" y2="0.225685" style="stroke:rgb(246,147,147);stroke-width:0.01" />
<line x1="-0.370826" y1="-0.0280501" x2="-0.370606" y2="-0.0229839" style="stroke:rgb(246,147,147);stroke-width:0.01" />
<line x1="-0.365029" y1="-0.0282237" x2="-0.364623" y2="-0.0170984" style="stroke:rgb(246,147,147);stroke-width:0.01" />
<line x1="-0.369198" y1="-0.0280988" x2="-0.368968" y2="-0.0213726" style="stroke:rgb(246,147,147);stroke-width:0.01" />
<line x1="-0.366583" y1="-0.0281771" x2="-0.366273" y2="-0.0187213" style="stroke:rgb(246,147,147);stroke-width:0.01" />
<line x1="-0.366583" y1="-0.0281771" x2="-0.366328" y2="-0.0187757" style="stroke:rgb(246,147,147);stroke-width:0.01" />
<line x1="-0.370606" y1="-0.0229839" x2="0.126093" y2="-0.00950509" style="stroke:rgb(246,147,147);stroke-width:0.01" />
<line x1="-0.369198" y1="-0.0280988" x2="-0.369026" y2="-0.02143" style="stroke:rgb(246,147,147);stroke-width:0.01" />
<line x1="-0.365029" y1="-0.0282237" x2="-0.364771" y2="-0.017244" style="stroke:rgb(246,147,147);stroke-width:0.01" />
<line x1="-0.370826" y1="-0.0280501" x2="-0.370746" y2="-0.0231214" style="stroke:rgb(246,147,147);stroke-width:0.01" />
<line x1="-0.368968" y1="-0.0213726" x2="0.121188" y2="-0.0126503" style="stroke:rgb(246,147,147);stroke-width:0.01" />
<line x1="-0.364623" y1="-0.0170984" x2="0.123806" y2="-0.00730041" style="stroke:rgb(246,147,147);stroke-width:0.01" />
<line x1="-0.366273" y1="-0.0187213" x2="0.123861" y2="-0.0106777" style="stroke:rgb(246,147,147);stroke-width:0.01" />
<line x1="-0.369026" y1="-0.02143" x2="0.126161" y2="-0.0168064" style="stroke:rgb(246,147,147);stroke-width:0.01" />
<line x1="-0.366328" y1="-0.0187757" x2="0.115071" y2="-0.0136146" style="stroke:rgb(246,147,147);stroke-width:0.01" />
<line x1="-0.370746" y1="-0.0231214" x2="0.115071" y2="-0.0231214" style="stroke:rgb(246,147,147);stroke-width:0.01" />
<line x1="0.115071" y1="-0.0231214" x2="0.115071" y2="-0.0136146" style="stroke:rgb(246,147,147);stroke-width:0.01" />
<line x1="-0.364771" y1="-0.017244" x2="0.121196" y2="-0.0138069" style="stroke:rgb(246,147,147);stroke-width:0.01" />
<line x1="0.121196" y1="-0.0138069" x2="0.121188" y2="-0.0126503" style="stroke:rgb(246,147,147);stroke-width:0.01" />
<line x1="0.126161" y1="-0.0168064" x2="0.126093" y2="-0.00950509" style="stroke:rgb(246,147,147);stroke-width:0.01" />
<line x1="0.130765" y1="-0.0430678" x2="-0.370826" y2="-0.0280501" style="stroke:rgb(246,147,147);stroke-width:0.01" />
<line x1="0.123861" y1="-0.0106777" x2="0.123806" y2="-0.00730041" style="stroke:rgb(246,147,147);stroke-width:0.01" />
<line x1="0.130765" y1="-0.0430678" x2="-0.12048" y2="0.223082" style="stroke:rgb(246,147,147);stroke-width:0.01" />
<line x1="0.130749" y1="-0.0430674" x2="-0.122333" y2="0.221258" style="stroke:rgb(246,147,147);stroke-width:0.01" />
<line x1="0.131922" y1="-0.041981" x2="-0.117834" y2="0.225685" style="stroke:rgb(246,147,147);stroke-width:0.01" />
<line x1="0.115071" y1="-0.0136146" x2="-0.122333" y2="0.221258" style="stroke:rgb(246,147,147);stroke-width:0.01" />
<line x1="0.121188" y1="-0.0126503" x2="-0.12048" y2="0.223082" style="stroke:rgb(246,147,147);stroke-width:0.01" />
<line x1="0.126093" y1="-0.00950509" x2="-0.117834" y2="0.225685" style="stroke:rgb(246,147,147);stroke-width:0.01" />
</g>
</svg>
