<svg xmlns="http://www.w3.org/2000/svg" viewBox="-1.5 -1.5 3 3">
<g transform="scale(1, -1)">
<path d="M0.490322 -0.019916 L0.490388 -0.016638 L0.503317 -0.016720 L0.503393 -0.011621 L0.521027 -0.011676 L0.521822 0.245839 L0.258004 0.247791 L0.254498 -0.015132 z " fill="rgb(245,195,195)" />
<path d="M0.000000 0.000000 L1.000000 0.000000 L1.000000 1.000000 L0.000000 1.000000  z" fill="none" stroke="rgb(128,128,128)" stroke-width="0.01" />
<line x1="0.509309" y1="-0.00679079" x2="0.516049" y2="0.245882" style="stroke:rgb(246,147,147);stroke-width:0.01" />
<line x1="0.503317" y1="-0.0167201" x2="0.254498" y2="-0.0151322" style="stroke:rgb(246,147,147);stroke-width:0.01" />
<line x1="0.501352" y1="-0.00560031" x2="0.507208" y2="0.24299" style="stroke:rgb(246,147,147);stroke-width:0.01" />
<line x1="0.521027" y1="-0.0116759" x2="0.254555" y2="-0.0108535" style="stroke:rgb(246,147,147);stroke-width:0.01" />
<line x1="0.490322" y1="-0.0199162" x2="0.254498" y2="-0.0151322" style="stroke:rgb(246,147,147);stroke-width:0.01" />
<line x1="0.490322" y1="-0.0199162" x2="0.495717" y2="0.246032" style="stroke:rgb(246,147,147);stroke-width:0.01" />
<line x1="0.497078" y1="-0.00210593" x2="0.501568" y2="0.245989" style="stroke:rgb(246,147,147);stroke-width:0.01" />
<line x1="0.503317" y1="-0.0167201" x2="0.507208" y2="0.24299" style="stroke:rgb(246,147,147);stroke-width:0.01" />
<line x1="0.518954" y1="0.00101694" x2="0.521822" y2="0.245839" style="stroke:rgb(246,147,147);stroke-width:0.01" />
<line x1="0.503317" y1="-0.0167201" x2="0.254555" y2="-0.0108535" style="stroke:rgb(246,147,147);stroke-width:0.01" />
<line x1="0.254498" y1="-0.0151322" x2="0.258004" y2="0.247791" style="stroke:rgb(246,147,147);stroke-width:0.01" />
<line x1="0.521027" y1="-0.0116759" x2="0.521822" y2="0.245839" style="stroke:rgb(246,147,147);stroke-width:0.01" />
<line x1="0.2547" y1="0" x2="0.503567" y2="0" style="stroke:rgb(246,147,147);stroke-width:0.01" />
<line x1="0.254713" y1="0.000996754" x2="0.518954" y2="0.00101694" style="stroke:rgb(246,147,147);stroke-width:0.01" />
<line x1="0.497078" y1="-0.00210593" x2="0.254692" y2="-0.000577635" style="stroke:rgb(246,147,147);stroke-width:0.01" />
<line x1="0.502351" y1="0.00827114" x2="0.501568" y2="0.245989" style="stroke:rgb(246,147,147);stroke-width:0.01" />
<line x1="0.497078" y1="-0.00210593" x2="0.495717" y2="0.246032" style="stroke:rgb(246,147,147);stroke-width:0.01" />
<line x1="0.501352" y1="-0.00560031" x2="0.254692" y2="-0.000577635" style="stroke:rgb(246,147,147);stroke-width:0.01" />
<line x1="0.518954" y1="0.00101694" x2="0.516049" y2="0.245882" style="stroke:rgb(246,147,147);stroke-width:0.01" />
<line x1="0.254799" y1="0.0074554" x2="0.502351" y2="0.00827114" style="stroke:rgb(246,147,147);stroke-width:0.01" />
<line x1="0.509309" y1="-0.00679079" x2="0.2547" y2="0" style="stroke:rgb(246,147,147);stroke-width:0.01" />
<line x1="0.501352" y1="-0.00560031" x2="0.254713" y2="0.000996754" style="stroke:rgb(246,147,147);stroke-width:0.01" />
<line x1="0.503567" y1="0" x2="0.254799" y2="0.0074554" style="stroke:rgb(246,147,147);stroke-width:0.01" />
<line x1="0.521822" y1="0.245839" x2="0.258004" y2="0.247791" style="stroke:rgb(246,147,147);stroke-width:0.01" />
<line x1="0.507208" y1="0.24299" x2="0.258004" y2="0.247791" style="stroke:rgb(246,147,147);stroke-width:0.01" />
</g>
</svg>
