<svg xmlns="http://www.w3.org/2000/svg" viewBox="-1.5 -1.5 3 3">
<g transform="scale(1, -1)">
<path d="M0.047475 -0.070157 L0.047542 -0.066878 L0.060470 -0.066961 L0.060547 -0.061862 L0.078181 -0.061917 L0.078975 0.195598 L-0.184843 0.197550 L-0.188348 -0.065373 z " fill="rgb(245,195,195)" />
<path d="M-0.442846 -0.050241 L0.557154 -0.050241 L0.557154 0.949759 L-0.442846 0.949759  z" fill="none" stroke="rgb(128,128,128)" stroke-width="0.01" />
<line x1="0.066463" y1="-0.0570317" x2="0.0732021" y2="0.195641" style="stroke:rgb(246,147,147);stroke-width:0.01" />
<line x1="0.0604704" y1="-0.066961" x2="-0.188348" y2="-0.0653731" style="stroke:rgb(246,147,147);stroke-width:0.01" />
<line x1="0.0585057" y1="-0.0558412" x2="0.0643612" y2="0.192749" style="stroke:rgb(246,147,147);stroke-width:0.01" />
<line x1="0.0781807" y1="-0.0619168" x2="-0.188291" y2="-0.0610944" style="stroke:rgb(246,147,147);stroke-width:0.01" />
<line x1="0.0474755" y1="-0.0701571" x2="-0.188348" y2="-0.0653731" style="stroke:rgb(246,147,147);stroke-width:0.01" />
<line x1="0.0474755" y1="-0.0701571" x2="0.0528706" y2="0.195791" style="stroke:rgb(246,147,147);stroke-width:0.01" />
<line x1="0.0542315" y1="-0.0523468" x2="0.0587211" y2="0.195748" style="stroke:rgb(246,147,147);stroke-width:0.01" />
<line x1="0.0604704" y1="-0.066961" x2="0.0643612" y2="0.192749" style="stroke:rgb(246,147,147);stroke-width:0.01" />
<line x1="0.0761077" y1="-0.0492239" x2="0.0789755" y2="0.195598" style="stroke:rgb(246,147,147);stroke-width:0.01" />
<line x1="0.0604704" y1="-0.066961" x2="-0.188291" y2="-0.0610944" style="stroke:rgb(246,147,147);stroke-width:0.01" />
<line x1="-0.188348" y1="-0.0653731" x2="-0.184843" y2="0.19755" style="stroke:rgb(246,147,147);stroke-width:0.01" />
<line x1="0.0781807" y1="-0.0619168" x2="0.0789755" y2="0.195598" style="stroke:rgb(246,147,147);stroke-width:0.01" />
<line x1="-0.188146" y1="-0.0502409" x2="0.0607209" y2="-0.0502409" style="stroke:rgb(246,147,147);stroke-width:0.01" />
<line x1="-0.188133" y1="-0.0492441" x2="0.0761077" y2="-0.0492239" style="stroke:rgb(246,147,147);stroke-width:0.01" />
<line x1="0.0542315" y1="-0.0523468" x2="-0.188154" y2="-0.0508185" style="stroke:rgb(246,147,147);stroke-width:0.01" />
<line x1="0.0595044" y1="-0.0419697" x2="0.0587211" y2="0.195748" style="stroke:rgb(246,147,147);stroke-width:0.01" />
<line x1="0.0542315" y1="-0.0523468" x2="0.0528706" y2="0.195791" style="stroke:rgb(246,147,147);stroke-width:0.01" />
<line x1="0.0585057" y1="-0.0558412" x2="-0.188154" y2="-0.0508185" style="stroke:rgb(246,147,147);stroke-width:0.01" />
<line x1="0.0761077" y1="-0.0492239" x2="0.0732021" y2="0.195641" style="stroke:rgb(246,147,147);stroke-width:0.01" />
<line x1="-0.188047" y1="-0.0427855" x2="0.0595044" y2="-0.0419697" style="stroke:rgb(246,147,147);stroke-width:0.01" />
<line x1="0.066463" y1="-0.0570317" x2="-0.188146" y2="-0.0502409" style="stroke:rgb(246,147,147);stroke-width:0.01" />
<line x1="0.0585057" y1="-0.0558412" x2="-0.188133" y2="-0.0492441" style="stroke:rgb(246,147,147);stroke-width:0.01" />
<line x1="0.0607209" y1="-0.0502409" x2="-0.188047" y2="-0.0427855" style="stroke:rgb(246,147,147);stroke-width:0.01" />
<line x1="0.0789755" y1="0.195598" x2="-0.184843" y2="0.19755" style="stroke:rgb(246,147,147);stroke-width:0.01" />
<line x1="0.0643612" y1="0.192749" x2="-0.184843" y2="0.19755" style="stroke:rgb(246,147,147);stroke-width:0.01" />
</g>
</svg>
