<svg xmlns="http://www.w3.org/2000/svg" viewBox="-1.5 -1.5 3 3">
<g transform="scale(1, -1)">
<path d="M0.581999 0.199907 L0.597090 0.229147 L0.598184 0.227677 L0.598340 0.220533 L0.603418 0.220644 L0.768235 0.557872 L0.813305 0.591406 L0.799308 0.610218 L0.794901 0.612432 L0.794914 0.612460 L0.411385 0.805123 L0.199612 0.383590 L0.395697 0.280683 L0.402815 0.285979 z " fill="rgb(245,195,195)" />
<path d="M0.000000 0.000000 L1.000000 0.000000 L1.000000 1.000000 L0.000000 1.000000  z" fill="none" stroke="rgb(128,128,128)" stroke-width="0.01" />
<line x1="0.603418" y1="0.220644" x2="0.794914" y2="0.61246" style="stroke:rgb(246,147,147);stroke-width:0.01" />
<line x1="0.581999" y1="0.199907" x2="0.794914" y2="0.61246" style="stroke:rgb(246,147,147);stroke-width:0.01" />
<line x1="0.395697" y1="0.280683" x2="0.412708" y2="0.759856" style="stroke:rgb(246,147,147);stroke-width:0.01" />
<line x1="0.395697" y1="0.280683" x2="0.813305" y2="0.591406" style="stroke:rgb(246,147,147);stroke-width:0.01" />
<line x1="0.199612" y1="0.38359" x2="0.411385" y2="0.805123" style="stroke:rgb(246,147,147);stroke-width:0.01" />
<line x1="0.246235" y1="0.389962" x2="0.244432" y2="0.472804" style="stroke:rgb(246,147,147);stroke-width:0.01" />
<line x1="0.59834" y1="0.220533" x2="0.587504" y2="0.71665" style="stroke:rgb(246,147,147);stroke-width:0.01" />
<line x1="0.244432" y1="0.472804" x2="0.587504" y2="0.71665" style="stroke:rgb(246,147,147);stroke-width:0.01" />
<line x1="0.59834" y1="0.220533" x2="0.603418" y2="0.220644" style="stroke:rgb(246,147,147);stroke-width:0.01" />
<line x1="0.244396" y1="0.389922" x2="0.218397" y2="0.420981" style="stroke:rgb(246,147,147);stroke-width:0.01" />
<line x1="0.603418" y1="0.220644" x2="0.313484" y2="0.610252" style="stroke:rgb(246,147,147);stroke-width:0.01" />
<line x1="0.395697" y1="0.280683" x2="0.199612" y2="0.38359" style="stroke:rgb(246,147,147);stroke-width:0.01" />
<line x1="0.244396" y1="0.389922" x2="0.246235" y2="0.389962" style="stroke:rgb(246,147,147);stroke-width:0.01" />
<line x1="0.581999" y1="0.199907" x2="0.199612" y2="0.38359" style="stroke:rgb(246,147,147);stroke-width:0.01" />
<line x1="0.581999" y1="0.199907" x2="0.210518" y2="0.405297" style="stroke:rgb(246,147,147);stroke-width:0.01" />
<line x1="0.244396" y1="0.389922" x2="0.210518" y2="0.405297" style="stroke:rgb(246,147,147);stroke-width:0.01" />
<line x1="0.68237" y1="0.394389" x2="0.218397" y2="0.420981" style="stroke:rgb(246,147,147);stroke-width:0.01" />
<line x1="0.68237" y1="0.394389" x2="0.389065" y2="0.760695" style="stroke:rgb(246,147,147);stroke-width:0.01" />
<line x1="0.813305" y1="0.591406" x2="0.799308" y2="0.610218" style="stroke:rgb(246,147,147);stroke-width:0.01" />
<line x1="0.799308" y1="0.610218" x2="0.313484" y2="0.610252" style="stroke:rgb(246,147,147);stroke-width:0.01" />
<line x1="0.412708" y1="0.759856" x2="0.389065" y2="0.760695" style="stroke:rgb(246,147,147);stroke-width:0.01" />
<line x1="0.799308" y1="0.610218" x2="0.411385" y2="0.805123" style="stroke:rgb(246,147,147);stroke-width:0.01" />
<line x1="0.794914" y1="0.61246" x2="0.411385" y2="0.805123" style="stroke:rgb(246,147,147);stroke-width:0.01" />
</g>
</svg>
