<svg xmlns="http://www.w3.org/2000/svg" viewBox="-1.5 -1.5 3 3">
<g transform="scale(1, -1)">
<path d="M0.452152 0.232209 L0.726054 0.237244 L0.720335 0.740526 L0.715073 0.740496 L0.714894 0.746750 L0.443136 0.740471 L0.443219 0.735781 L0.440706 0.735738 L0.443676 0.477849 L0.446568 0.477882 z " fill="rgb(245,195,195)" />
<path d="M0.000000 0.000000 L1.000000 0.000000 L1.000000 1.000000 L0.000000 1.000000  z" fill="none" stroke="rgb(128,128,128)" stroke-width="0.01" />
<line x1="0.722629" y1="0.24448" x2="0.723782" y2="0.437219" style="stroke:rgb(246,147,147);stroke-width:0.01" />
<line x1="0.722629" y1="0.24448" x2="0.721993" y2="0.478566" style="stroke:rgb(246,147,147);stroke-width:0.01" />
<line x1="0.443676" y1="0.477849" x2="0.440706" y2="0.735738" style="stroke:rgb(246,147,147);stroke-width:0.01" />
<line x1="0.452152" y1="0.232209" x2="0.448806" y2="0.470621" style="stroke:rgb(246,147,147);stroke-width:0.01" />
<line x1="0.452104" y1="0.236053" x2="0.443136" y2="0.740471" style="stroke:rgb(246,147,147);stroke-width:0.01" />
<line x1="0.726054" y1="0.237244" x2="0.720335" y2="0.740526" style="stroke:rgb(246,147,147);stroke-width:0.01" />
<line x1="0.452152" y1="0.232209" x2="0.440706" y2="0.735738" style="stroke:rgb(246,147,147);stroke-width:0.01" />
<line x1="0.539456" y1="0.238779" x2="0.528797" y2="0.741538" style="stroke:rgb(246,147,147);stroke-width:0.01" />
<line x1="0.719504" y1="0.483278" x2="0.714894" y2="0.74675" style="stroke:rgb(246,147,147);stroke-width:0.01" />
<line x1="0.723782" y1="0.437219" x2="0.714894" y2="0.74675" style="stroke:rgb(246,147,147);stroke-width:0.01" />
<line x1="0.452104" y1="0.236053" x2="0.539456" y2="0.238779" style="stroke:rgb(246,147,147);stroke-width:0.01" />
<line x1="0.452152" y1="0.232209" x2="0.726054" y2="0.237244" style="stroke:rgb(246,147,147);stroke-width:0.01" />
<line x1="0.452072" y1="0.237801" x2="0.725972" y2="0.244474" style="stroke:rgb(246,147,147);stroke-width:0.01" />
<line x1="0.452072" y1="0.237801" x2="0.539456" y2="0.238779" style="stroke:rgb(246,147,147);stroke-width:0.01" />
<line x1="0.452104" y1="0.236053" x2="0.726054" y2="0.237244" style="stroke:rgb(246,147,147);stroke-width:0.01" />
<line x1="0.725972" y1="0.244474" x2="0.722629" y2="0.24448" style="stroke:rgb(246,147,147);stroke-width:0.01" />
<line x1="0.447908" y1="0.472078" x2="0.53446" y2="0.474403" style="stroke:rgb(246,147,147);stroke-width:0.01" />
<line x1="0.44789" y1="0.473057" x2="0.723312" y2="0.478569" style="stroke:rgb(246,147,147);stroke-width:0.01" />
<line x1="0.448806" y1="0.470621" x2="0.723358" y2="0.474473" style="stroke:rgb(246,147,147);stroke-width:0.01" />
<line x1="0.44789" y1="0.473057" x2="0.53446" y2="0.474403" style="stroke:rgb(246,147,147);stroke-width:0.01" />
<line x1="0.447803" y1="0.47798" x2="0.53434" y2="0.480087" style="stroke:rgb(246,147,147);stroke-width:0.01" />
<line x1="0.447908" y1="0.472078" x2="0.723358" y2="0.474473" style="stroke:rgb(246,147,147);stroke-width:0.01" />
<line x1="0.447793" y1="0.478524" x2="0.53434" y2="0.480087" style="stroke:rgb(246,147,147);stroke-width:0.01" />
<line x1="0.447793" y1="0.478524" x2="0.719504" y2="0.483278" style="stroke:rgb(246,147,147);stroke-width:0.01" />
<line x1="0.443676" y1="0.477849" x2="0.723283" y2="0.481069" style="stroke:rgb(246,147,147);stroke-width:0.01" />
<line x1="0.447803" y1="0.47798" x2="0.723283" y2="0.481069" style="stroke:rgb(246,147,147);stroke-width:0.01" />
<line x1="0.721993" y1="0.478566" x2="0.723312" y2="0.478569" style="stroke:rgb(246,147,147);stroke-width:0.01" />
<line x1="0.443163" y1="0.738972" x2="0.528797" y2="0.741538" style="stroke:rgb(246,147,147);stroke-width:0.01" />
<line x1="0.440706" y1="0.735738" x2="0.720335" y2="0.740526" style="stroke:rgb(246,147,147);stroke-width:0.01" />
<line x1="0.443136" y1="0.740471" x2="0.714894" y2="0.74675" style="stroke:rgb(246,147,147);stroke-width:0.01" />
<line x1="0.443136" y1="0.740471" x2="0.528797" y2="0.741538" style="stroke:rgb(246,147,147);stroke-width:0.01" />
<line x1="0.443163" y1="0.738972" x2="0.720335" y2="0.740526" style="stroke:rgb(246,147,147);stroke-width:0.01" />
</g>
</svg>
