<svg xmlns="http://www.w3.org/2000/svg" viewBox="-1.5 -1.5 3 3">
<g transform="scale(1, -1)">
<path d="M0.271068 -0.525076 L0.351692 -0.028710 L-0.274336 0.079414 L-0.317211 -0.162553 L-0.320064 -0.162080 L-0.362213 -0.416519 L-0.081378 -0.464660 L-0.082292 -0.470848 z " fill="rgb(245,195,195)" />
<path d="M0.000000 0.000000 L1.000000 0.000000 L1.000000 1.000000 L0.000000 1.000000  z" fill="none" stroke="rgb(128,128,128)" stroke-width="0.01" />
<line x1="0.271068" y1="-0.525076" x2="-0.0822923" y2="-0.470848" style="stroke:rgb(246,147,147);stroke-width:0.01" />
<line x1="0.271068" y1="-0.525076" x2="-0.362213" y2="-0.416519" style="stroke:rgb(246,147,147);stroke-width:0.01" />
<line x1="0.312995" y1="-0.26695" x2="-0.0408618" y2="-0.210614" style="stroke:rgb(246,147,147);stroke-width:0.01" />
<line x1="0.312995" y1="-0.26695" x2="-0.320064" y2="-0.16208" style="stroke:rgb(246,147,147);stroke-width:0.01" />
<line x1="0.313907" y1="-0.261337" x2="-0.0450922" y2="-0.205109" style="stroke:rgb(246,147,147);stroke-width:0.01" />
<line x1="0.313907" y1="-0.261337" x2="-0.313894" y2="-0.155716" style="stroke:rgb(246,147,147);stroke-width:0.01" />
<line x1="0.271068" y1="-0.525076" x2="0.351692" y2="-0.0287098" style="stroke:rgb(246,147,147);stroke-width:0.01" />
<line x1="-0.0822923" y1="-0.470848" x2="-0.0408618" y2="-0.210614" style="stroke:rgb(246,147,147);stroke-width:0.01" />
<line x1="-0.0822923" y1="-0.470848" x2="-0.00886957" y2="0.0261588" style="stroke:rgb(246,147,147);stroke-width:0.01" />
<line x1="-0.0450922" y1="-0.205109" x2="-0.00886957" y2="0.0261588" style="stroke:rgb(246,147,147);stroke-width:0.01" />
<line x1="0.351692" y1="-0.0287098" x2="-0.00886957" y2="0.0261588" style="stroke:rgb(246,147,147);stroke-width:0.01" />
<line x1="0.351692" y1="-0.0287098" x2="-0.274336" y2="0.0794144" style="stroke:rgb(246,147,147);stroke-width:0.01" />
<line x1="-0.313894" y1="-0.155716" x2="-0.274336" y2="0.0794144" style="stroke:rgb(246,147,147);stroke-width:0.01" />
<line x1="-0.362213" y1="-0.416519" x2="-0.320064" y2="-0.16208" style="stroke:rgb(246,147,147);stroke-width:0.01" />
<line x1="-0.362213" y1="-0.416519" x2="-0.274336" y2="0.0794144" style="stroke:rgb(246,147,147);stroke-width:0.01" />
</g>
</svg>
