<svg xmlns="http://www.w3.org/2000/svg" viewBox="-1.5 -1.5 3 3">
<g transform="scale(1, -1)">
<path d="M-0.000442 0.005094 L1.001400 0.013477 L1.002603 0.194210 L0.999602 0.194230 L0.999572 0.197395 L-0.003603 0.193782 L-0.004094 0.142305 L-0.002740 0.142292 z " fill="rgb(245,195,195)" />
<path d="M0.000000 0.000000 L1.000000 0.000000 L1.000000 1.000000 L0.000000 1.000000  z" fill="none" stroke="rgb(128,128,128)" stroke-width="0.01" />
<line x1="0.99586" y1="0.132758" x2="0.996477" y2="0.197384" style="stroke:rgb(246,147,147);stroke-width:0.01" />
<line x1="1.0014" y1="0.013477" x2="1.0026" y2="0.19421" style="stroke:rgb(246,147,147);stroke-width:0.01" />
<line x1="0.999569" y1="0.196274" x2="0.999572" y2="0.197395" style="stroke:rgb(246,147,147);stroke-width:0.01" />
<line x1="0.999558" y1="0.0134616" x2="0.999561" y2="0.197395" style="stroke:rgb(246,147,147);stroke-width:0.01" />
<line x1="0.00133754" y1="0.00737104" x2="0.00257778" y2="0.193772" style="stroke:rgb(246,147,147);stroke-width:0.01" />
<line x1="-0.000441885" y1="0.00509441" x2="-0.00360257" y2="0.193782" style="stroke:rgb(246,147,147);stroke-width:0.01" />
<line x1="-0.000441885" y1="0.00509441" x2="-0.000438993" y2="0.193758" style="stroke:rgb(246,147,147);stroke-width:0.01" />
<line x1="0.00133754" y1="0.00737104" x2="-0.000438993" y2="0.193758" style="stroke:rgb(246,147,147);stroke-width:0.01" />
<line x1="-0.00409401" y1="0.142305" x2="-0.00360257" y2="0.193782" style="stroke:rgb(246,147,147);stroke-width:0.01" />
<line x1="0.00269244" y1="0.186682" x2="0.00257778" y2="0.193772" style="stroke:rgb(246,147,147);stroke-width:0.01" />
<line x1="0.327784" y1="0.00784074" x2="1.00129" y2="0.0181429" style="stroke:rgb(246,147,147);stroke-width:0.01" />
<line x1="-0.000441885" y1="0.00509441" x2="1.0014" y2="0.013477" style="stroke:rgb(246,147,147);stroke-width:0.01" />
<line x1="0.279025" y1="0.00777059" x2="1.00131" y2="0.014655" style="stroke:rgb(246,147,147);stroke-width:0.01" />
<line x1="1.00132" y1="0.0134764" x2="1.00129" y2="0.0181429" style="stroke:rgb(246,147,147);stroke-width:0.01" />
<line x1="0.999569" y1="0.196274" x2="0.999561" y2="0.197395" style="stroke:rgb(246,147,147);stroke-width:0.01" />
<line x1="0.00133754" y1="0.00737104" x2="0.327784" y2="0.00784074" style="stroke:rgb(246,147,147);stroke-width:0.01" />
<line x1="1.00132" y1="0.0134764" x2="0.999572" y2="0.197395" style="stroke:rgb(246,147,147);stroke-width:0.01" />
<line x1="0.279025" y1="0.00777059" x2="0.00135249" y2="0.0096181" style="stroke:rgb(246,147,147);stroke-width:0.01" />
<line x1="0.999558" y1="0.0134616" x2="0.996477" y2="0.197384" style="stroke:rgb(246,147,147);stroke-width:0.01" />
<line x1="1.0014" y1="0.013477" x2="1.00129" y2="0.0181429" style="stroke:rgb(246,147,147);stroke-width:0.01" />
<line x1="0.99586" y1="0.132758" x2="-0.00409401" y2="0.142305" style="stroke:rgb(246,147,147);stroke-width:0.01" />
<line x1="0.00269244" y1="0.186682" x2="0.56939" y2="0.195846" style="stroke:rgb(246,147,147);stroke-width:0.01" />
<line x1="0.624039" y1="0.195356" x2="0.69101" y2="0.196284" style="stroke:rgb(246,147,147);stroke-width:0.01" />
<line x1="-0.000438993" y1="0.193758" x2="0.0301449" y2="0.193904" style="stroke:rgb(246,147,147);stroke-width:0.01" />
<line x1="-0.00360257" y1="0.193782" x2="0.999572" y2="0.197395" style="stroke:rgb(246,147,147);stroke-width:0.01" />
<line x1="0.0301449" y1="0.193904" x2="0.999569" y2="0.196274" style="stroke:rgb(246,147,147);stroke-width:0.01" />
<line x1="1.0026" y1="0.19421" x2="0.69101" y2="0.196284" style="stroke:rgb(246,147,147);stroke-width:0.01" />
<line x1="0.624039" y1="0.195356" x2="0.56939" y2="0.195846" style="stroke:rgb(246,147,147);stroke-width:0.01" />
</g>
</svg>
