<svg xmlns="http://www.w3.org/2000/svg" viewBox="-1.5 -1.5 3 3">
<g transform="scale(1, -1)">
<path d="M1.118097 0.456501 L1.309688 0.695000 L1.238403 0.848046 L1.163002 0.812927 L1.122775 0.863438 L1.052020 0.960758 L1.045629 0.960304 L1.017803 0.995243 L0.966916 0.954716 L0.794430 0.942469 L0.773739 0.904283 L0.812146 0.831686 L0.808817 0.828803 L0.822183 0.812713 L0.918491 0.630672 L0.894630 0.571687 z " fill="rgb(245,195,195)" />
<path d="M0.000000 0.000000 L1.000000 0.000000 L1.000000 1.000000 L0.000000 1.000000  z" fill="none" stroke="rgb(128,128,128)" stroke-width="0.01" />
<line x1="1.1181" y1="0.456501" x2="1.30969" y2="0.695" style="stroke:rgb(246,147,147);stroke-width:0.01" />
<line x1="1.05007" y1="0.538389" x2="1.18549" y2="0.784696" style="stroke:rgb(246,147,147);stroke-width:0.01" />
<line x1="0.89463" y1="0.571687" x2="1" y2="0.737005" style="stroke:rgb(246,147,147);stroke-width:0.01" />
<line x1="0.89463" y1="0.571687" x2="1.05202" y2="0.960758" style="stroke:rgb(246,147,147);stroke-width:0.01" />
<line x1="1.08889" y1="0.732192" x2="1.11848" y2="0.869344" style="stroke:rgb(246,147,147);stroke-width:0.01" />
<line x1="1.07434" y1="0.565216" x2="1.24664" y2="0.69306" style="stroke:rgb(246,147,147);stroke-width:0.01" />
<line x1="1" y1="0.517374" x2="1.24664" y2="0.69306" style="stroke:rgb(246,147,147);stroke-width:0.01" />
<line x1="0.773739" y1="0.904283" x2="0.79443" y2="0.942469" style="stroke:rgb(246,147,147);stroke-width:0.01" />
<line x1="1.23204" y1="0.598343" x2="1.24225" y2="0.699099" style="stroke:rgb(246,147,147);stroke-width:0.01" />
<line x1="1" y1="0.517374" x2="1" y2="0.737005" style="stroke:rgb(246,147,147);stroke-width:0.01" />
<line x1="0.831761" y1="0.801183" x2="0.830182" y2="0.84731" style="stroke:rgb(246,147,147);stroke-width:0.01" />
<line x1="0.808817" y1="0.828803" x2="0.830182" y2="0.84731" style="stroke:rgb(246,147,147);stroke-width:0.01" />
<line x1="1.20429" y1="0.563802" x2="1.18549" y2="0.784696" style="stroke:rgb(246,147,147);stroke-width:0.01" />
<line x1="0.808817" y1="0.828803" x2="1.0178" y2="0.995243" style="stroke:rgb(246,147,147);stroke-width:0.01" />
<line x1="1.05007" y1="0.538389" x2="1.23204" y2="0.598343" style="stroke:rgb(246,147,147);stroke-width:0.01" />
<line x1="1" y1="0.737005" x2="1.2384" y2="0.848046" style="stroke:rgb(246,147,147);stroke-width:0.01" />
<line x1="0.970342" y1="0.532661" x2="1.20429" y2="0.563802" style="stroke:rgb(246,147,147);stroke-width:0.01" />
<line x1="0.970342" y1="0.532661" x2="0.773739" y2="0.904283" style="stroke:rgb(246,147,147);stroke-width:0.01" />
<line x1="1.30969" y1="0.695" x2="1.2384" y2="0.848046" style="stroke:rgb(246,147,147);stroke-width:0.01" />
<line x1="1.07434" y1="0.565216" x2="0.79443" y2="0.942469" style="stroke:rgb(246,147,147);stroke-width:0.01" />
<line x1="1.1181" y1="0.456501" x2="0.808817" y2="0.828803" style="stroke:rgb(246,147,147);stroke-width:0.01" />
<line x1="1.1181" y1="0.456501" x2="0.89463" y2="0.571687" style="stroke:rgb(246,147,147);stroke-width:0.01" />
<line x1="1.27585" y1="0.652882" x2="1.05202" y2="0.960758" style="stroke:rgb(246,147,147);stroke-width:0.01" />
<line x1="0.79443" y1="0.942469" x2="1.05202" y2="0.960758" style="stroke:rgb(246,147,147);stroke-width:0.01" />
<line x1="1.18549" y1="0.784696" x2="1.0178" y2="0.995243" style="stroke:rgb(246,147,147);stroke-width:0.01" />
<line x1="1.24225" y1="0.699099" x2="1.08889" y2="0.732192" style="stroke:rgb(246,147,147);stroke-width:0.01" />
<line x1="1.30969" y1="0.695" x2="0.831761" y2="0.801183" style="stroke:rgb(246,147,147);stroke-width:0.01" />
<line x1="1.11848" y1="0.869344" x2="0.773739" y2="0.904283" style="stroke:rgb(246,147,147);stroke-width:0.01" />
<line x1="1.27585" y1="0.652882" x2="0.830182" y2="0.84731" style="stroke:rgb(246,147,147);stroke-width:0.01" />
</g>
</svg>
