<svg xmlns="http://www.w3.org/2000/svg" viewBox="-1.5 -1.5 3 3">
<g transform="scale(1, -1)">
<path d="M0.126924 -0.360326 L0.318515 -0.121828 L0.247230 0.031219 L0.171829 -0.003901 L0.131602 0.046610 L0.060847 0.143930 L0.054456 0.143476 L0.026630 0.178415 L-0.024257 0.137888 L-0.196743 0.125641 L-0.217434 0.087455 L-0.179027 0.014859 L-0.182356 0.011975 L-0.168990 -0.004115 L-0.072682 -0.186156 L-0.096543 -0.245141 z " fill="rgb(245,195,195)" />
<path d="M-0.991173 -0.816828 L0.008827 -0.816828 L0.008827 0.183172 L-0.991173 0.183172  z" fill="none" stroke="rgb(128,128,128)" stroke-width="0.01" />
<line x1="0.126924" y1="-0.360326" x2="0.318515" y2="-0.121828" style="stroke:rgb(246,147,147);stroke-width:0.01" />
<line x1="0.0588978" y1="-0.278439" x2="0.194313" y2="-0.0321321" style="stroke:rgb(246,147,147);stroke-width:0.01" />
<line x1="-0.0965435" y1="-0.245141" x2="0.00882701" y2="-0.0798228" style="stroke:rgb(246,147,147);stroke-width:0.01" />
<line x1="-0.0965435" y1="-0.245141" x2="0.0608473" y2="0.14393" style="stroke:rgb(246,147,147);stroke-width:0.01" />
<line x1="0.0977133" y1="-0.0846355" x2="0.127308" y2="0.0525159" style="stroke:rgb(246,147,147);stroke-width:0.01" />
<line x1="0.0831626" y1="-0.251612" x2="0.255471" y2="-0.123768" style="stroke:rgb(246,147,147);stroke-width:0.01" />
<line x1="0.00882701" y1="-0.299454" x2="0.255471" y2="-0.123768" style="stroke:rgb(246,147,147);stroke-width:0.01" />
<line x1="-0.217434" y1="0.0874554" x2="-0.196743" y2="0.125641" style="stroke:rgb(246,147,147);stroke-width:0.01" />
<line x1="0.240869" y1="-0.218485" x2="0.25108" y2="-0.117729" style="stroke:rgb(246,147,147);stroke-width:0.01" />
<line x1="0.00882701" y1="-0.299454" x2="0.00882701" y2="-0.0798228" style="stroke:rgb(246,147,147);stroke-width:0.01" />
<line x1="-0.159412" y1="-0.0156447" x2="-0.160991" y2="0.0304825" style="stroke:rgb(246,147,147);stroke-width:0.01" />
<line x1="-0.182356" y1="0.0119752" x2="-0.160991" y2="0.0304825" style="stroke:rgb(246,147,147);stroke-width:0.01" />
<line x1="0.213121" y1="-0.253026" x2="0.194313" y2="-0.0321321" style="stroke:rgb(246,147,147);stroke-width:0.01" />
<line x1="-0.182356" y1="0.0119752" x2="0.0266298" y2="0.178415" style="stroke:rgb(246,147,147);stroke-width:0.01" />
<line x1="0.0588978" y1="-0.278439" x2="0.240869" y2="-0.218485" style="stroke:rgb(246,147,147);stroke-width:0.01" />
<line x1="0.00882701" y1="-0.0798228" x2="0.24723" y2="0.0312186" style="stroke:rgb(246,147,147);stroke-width:0.01" />
<line x1="-0.0208308" y1="-0.284167" x2="0.213121" y2="-0.253026" style="stroke:rgb(246,147,147);stroke-width:0.01" />
<line x1="-0.0208308" y1="-0.284167" x2="-0.217434" y2="0.0874554" style="stroke:rgb(246,147,147);stroke-width:0.01" />
<line x1="0.318515" y1="-0.121828" x2="0.24723" y2="0.0312186" style="stroke:rgb(246,147,147);stroke-width:0.01" />
<line x1="0.0831626" y1="-0.251612" x2="-0.196743" y2="0.125641" style="stroke:rgb(246,147,147);stroke-width:0.01" />
<line x1="0.126924" y1="-0.360326" x2="-0.182356" y2="0.0119752" style="stroke:rgb(246,147,147);stroke-width:0.01" />
<line x1="0.126924" y1="-0.360326" x2="-0.0965435" y2="-0.245141" style="stroke:rgb(246,147,147);stroke-width:0.01" />
<line x1="0.284681" y1="-0.163946" x2="0.0608473" y2="0.14393" style="stroke:rgb(246,147,147);stroke-width:0.01" />
<line x1="-0.196743" y1="0.125641" x2="0.0608473" y2="0.14393" style="stroke:rgb(246,147,147);stroke-width:0.01" />
<line x1="0.194313" y1="-0.0321321" x2="0.0266298" y2="0.178415" style="stroke:rgb(246,147,147);stroke-width:0.01" />
<line x1="0.25108" y1="-0.117729" x2="0.0977133" y2="-0.0846355" style="stroke:rgb(246,147,147);stroke-width:0.01" />
<line x1="0.318515" y1="-0.121828" x2="-0.159412" y2="-0.0156447" style="stroke:rgb(246,147,147);stroke-width:0.01" />
<line x1="0.127308" y1="0.0525159" x2="-0.217434" y2="0.0874554" style="stroke:rgb(246,147,147);stroke-width:0.01" />
<line x1="0.284681" y1="-0.163946" x2="-0.160991" y2="0.0304825" style="stroke:rgb(246,147,147);stroke-width:0.01" />
</g>
</svg>
