<svg xmlns="http://www.w3.org/2000/svg" viewBox="-1.5 -1.5 3 3">
<g transform="scale(1, -1)">
<path d="M0.570557 -0.870256 L0.575629 -0.842200 L0.577832 -0.842577 L0.661033 -0.369699 L-0.318516 -0.195000 L-0.403479 -0.671131 L-0.403389 -0.671147 L-0.407170 -0.692360 L0.569343 -0.870035 L0.569342 -0.870038 z " fill="rgb(245,195,195)" />
<path d="M0.000000 0.000000 L1.000000 0.000000 L1.000000 1.000000 L0.000000 1.000000  z" fill="none" stroke="rgb(128,128,128)" stroke-width="0.01" />
<line x1="0.570557" y1="-0.870256" x2="0.569342" y2="-0.870038" style="stroke:rgb(246,147,147);stroke-width:0.01" />
<line x1="0.570557" y1="-0.870256" x2="-0.40717" y2="-0.69236" style="stroke:rgb(246,147,147);stroke-width:0.01" />
<line x1="-0.402257" y1="-0.693218" x2="-0.40717" y2="-0.69236" style="stroke:rgb(246,147,147);stroke-width:0.01" />
<line x1="0.572121" y1="-0.861605" x2="0.570875" y2="-0.861384" style="stroke:rgb(246,147,147);stroke-width:0.01" />
<line x1="0.572121" y1="-0.861605" x2="-0.405214" y2="-0.681384" style="stroke:rgb(246,147,147);stroke-width:0.01" />
<line x1="-0.400363" y1="-0.682218" x2="-0.405214" y2="-0.681384" style="stroke:rgb(246,147,147);stroke-width:0.01" />
<line x1="0.578225" y1="-0.840208" x2="0.189739" y2="-0.776246" style="stroke:rgb(246,147,147);stroke-width:0.01" />
<line x1="0.578225" y1="-0.840208" x2="0.578192" y2="-0.840203" style="stroke:rgb(246,147,147);stroke-width:0.01" />
<line x1="0.577832" y1="-0.842577" x2="0.189739" y2="-0.776246" style="stroke:rgb(246,147,147);stroke-width:0.01" />
<line x1="-0.399748" y1="-0.671801" x2="-0.403479" y2="-0.671131" style="stroke:rgb(246,147,147);stroke-width:0.01" />
<line x1="0.189739" y1="-0.776246" x2="-0.403479" y2="-0.671131" style="stroke:rgb(246,147,147);stroke-width:0.01" />
<line x1="0.661033" y1="-0.369699" x2="-0.318516" y2="-0.195" style="stroke:rgb(246,147,147);stroke-width:0.01" />
<line x1="0.569342" y1="-0.870038" x2="0.660424" y2="-0.369591" style="stroke:rgb(246,147,147);stroke-width:0.01" />
<line x1="0.570557" y1="-0.870256" x2="0.661033" y2="-0.369699" style="stroke:rgb(246,147,147);stroke-width:0.01" />
<line x1="0.569342" y1="-0.870038" x2="0.570875" y2="-0.861384" style="stroke:rgb(246,147,147);stroke-width:0.01" />
<line x1="0.577832" y1="-0.842577" x2="0.661033" y2="-0.369699" style="stroke:rgb(246,147,147);stroke-width:0.01" />
<line x1="0.577797" y1="-0.84257" x2="0.660424" y2="-0.369591" style="stroke:rgb(246,147,147);stroke-width:0.01" />
<line x1="0.577797" y1="-0.84257" x2="0.578192" y2="-0.840203" style="stroke:rgb(246,147,147);stroke-width:0.01" />
<line x1="0.577832" y1="-0.842577" x2="0.578225" y2="-0.840208" style="stroke:rgb(246,147,147);stroke-width:0.01" />
<line x1="-0.402257" y1="-0.693218" x2="-0.400363" y2="-0.682218" style="stroke:rgb(246,147,147);stroke-width:0.01" />
<line x1="-0.402257" y1="-0.693218" x2="-0.314208" y2="-0.195768" style="stroke:rgb(246,147,147);stroke-width:0.01" />
<line x1="-0.399748" y1="-0.671801" x2="-0.314208" y2="-0.195768" style="stroke:rgb(246,147,147);stroke-width:0.01" />
<line x1="-0.40717" y1="-0.69236" x2="-0.318516" y2="-0.195" style="stroke:rgb(246,147,147);stroke-width:0.01" />
<line x1="-0.403479" y1="-0.671131" x2="-0.318516" y2="-0.195" style="stroke:rgb(246,147,147);stroke-width:0.01" />
</g>
</svg>
