<svg xmlns="http://www.w3.org/2000/svg" viewBox="-1.5 -1.5 3 3">
<g transform="scale(1, -1)">
<path d="M1.037938 -0.781529 L1.037938 -0.731529 L0.087938 0.218471 L0.037938 0.218471 z " fill="rgb(245,195,195)" />
<path d="M0.000000 0.000000 L1.000000 0.000000 L1.000000 1.000000 L0.000000 1.000000  z" fill="none" stroke="rgb(128,128,128)" stroke-width="0.01" />
<line x1="0.987938" y1="-0.731529" x2="1.03794" y2="-0.731529" style="stroke:rgb(246,147,147);stroke-width:0.01" />
<line x1="0.937938" y1="-0.681529" x2="0.987938" y2="-0.681529" style="stroke:rgb(246,147,147);stroke-width:0.01" />
<line x1="0.887938" y1="-0.631529" x2="0.937938" y2="-0.631529" style="stroke:rgb(246,147,147);stroke-width:0.01" />
<line x1="0.837938" y1="-0.581529" x2="0.887938" y2="-0.581529" style="stroke:rgb(246,147,147);stroke-width:0.01" />
<line x1="0.787938" y1="-0.531529" x2="0.837938" y2="-0.531529" style="stroke:rgb(246,147,147);stroke-width:0.01" />
<line x1="0.737938" y1="-0.481529" x2="0.787938" y2="-0.481529" style="stroke:rgb(246,147,147);stroke-width:0.01" />
<line x1="0.687938" y1="-0.431529" x2="0.737938" y2="-0.431529" style="stroke:rgb(246,147,147);stroke-width:0.01" />
<line x1="0.637938" y1="-0.381529" x2="0.687938" y2="-0.381529" style="stroke:rgb(246,147,147);stroke-width:0.01" />
<line x1="0.587938" y1="-0.331529" x2="0.637938" y2="-0.331529" style="stroke:rgb(246,147,147);stroke-width:0.01" />
<line x1="0.537938" y1="-0.281529" x2="0.587938" y2="-0.281529" style="stroke:rgb(246,147,147);stroke-width:0.01" />
<line x1="0.487938" y1="-0.231529" x2="0.537938" y2="-0.231529" style="stroke:rgb(246,147,147);stroke-width:0.01" />
<line x1="0.437938" y1="-0.181529" x2="0.487938" y2="-0.181529" style="stroke:rgb(246,147,147);stroke-width:0.01" />
<line x1="0.387938" y1="-0.131529" x2="0.437938" y2="-0.131529" style="stroke:rgb(246,147,147);stroke-width:0.01" />
<line x1="0.337938" y1="-0.0815293" x2="0.387938" y2="-0.0815293" style="stroke:rgb(246,147,147);stroke-width:0.01" />
<line x1="0.287938" y1="-0.0315293" x2="0.337938" y2="-0.0315293" style="stroke:rgb(246,147,147);stroke-width:0.01" />
<line x1="0.0879381" y1="0.168471" x2="0.0879381" y2="0.218471" style="stroke:rgb(246,147,147);stroke-width:0.01" />
<line x1="0.137938" y1="0.118471" x2="0.137938" y2="0.168471" style="stroke:rgb(246,147,147);stroke-width:0.01" />
<line x1="0.187938" y1="0.0684707" x2="0.187938" y2="0.118471" style="stroke:rgb(246,147,147);stroke-width:0.01" />
<line x1="0.237938" y1="0.0184707" x2="0.237938" y2="0.0684707" style="stroke:rgb(246,147,147);stroke-width:0.01" />
<line x1="0.287938" y1="-0.0315293" x2="0.287938" y2="0.0184707" style="stroke:rgb(246,147,147);stroke-width:0.01" />
<line x1="0.337938" y1="-0.0815293" x2="0.337938" y2="-0.0315293" style="stroke:rgb(246,147,147);stroke-width:0.01" />
<line x1="0.387938" y1="-0.131529" x2="0.387938" y2="-0.0815293" style="stroke:rgb(246,147,147);stroke-width:0.01" />
<line x1="0.437938" y1="-0.181529" x2="0.437938" y2="-0.131529" style="stroke:rgb(246,147,147);stroke-width:0.01" />
<line x1="0.487938" y1="-0.231529" x2="0.487938" y2="-0.181529" style="stroke:rgb(246,147,147);stroke-width:0.01" />
<line x1="0.537938" y1="-0.281529" x2="0.537938" y2="-0.231529" style="stroke:rgb(246,147,147);stroke-width:0.01" />
<line x1="0.587938" y1="-0.331529" x2="0.587938" y2="-0.281529" style="stroke:rgb(246,147,147);stroke-width:0.01" />
<line x1="0.637938" y1="-0.381529" x2="0.637938" y2="-0.331529" style="stroke:rgb(246,147,147);stroke-width:0.01" />
<line x1="0.687938" y1="-0.431529" x2="0.687938" y2="-0.381529" style="stroke:rgb(246,147,147);stroke-width:0.01" />
<line x1="0.737938" y1="-0.481529" x2="0.737938" y2="-0.431529" style="stroke:rgb(246,147,147);stroke-width:0.01" />
<line x1="0.787938" y1="-0.531529" x2="0.787938" y2="-0.481529" style="stroke:rgb(246,147,147);stroke-width:0.01" />
<line x1="0.837938" y1="-0.581529" x2="0.837938" y2="-0.531529" style="stroke:rgb(246,147,147);stroke-width:0.01" />
<line x1="0.887938" y1="-0.631529" x2="0.887938" y2="-0.581529" style="stroke:rgb(246,147,147);stroke-width:0.01" />
<line x1="0.937938" y1="-0.681529" x2="0.937938" y2="-0.631529" style="stroke:rgb(246,147,147);stroke-width:0.01" />
<line x1="0.987938" y1="-0.731529" x2="0.987938" y2="-0.681529" style="stroke:rgb(246,147,147);stroke-width:0.01" />
<line x1="1.03794" y1="-0.781529" x2="1.03794" y2="-0.731529" style="stroke:rgb(246,147,147);stroke-width:0.01" />
<line x1="0.237938" y1="0.0184707" x2="0.287938" y2="0.0184707" style="stroke:rgb(246,147,147);stroke-width:0.01" />
<line x1="0.187938" y1="0.0684707" x2="0.237938" y2="0.0684707" style="stroke:rgb(246,147,147);stroke-width:0.01" />
<line x1="0.137938" y1="0.118471" x2="0.187938" y2="0.118471" style="stroke:rgb(246,147,147);stroke-width:0.01" />
<line x1="1.03794" y1="-0.781529" x2="0.0379381" y2="0.218471" style="stroke:rgb(246,147,147);stroke-width:0.01" />
<line x1="1.03794" y1="-0.731529" x2="0.0879381" y2="0.218471" style="stroke:rgb(246,147,147);stroke-width:0.01" />
<line x1="0.0879381" y1="0.168471" x2="0.137938" y2="0.168471" style="stroke:rgb(246,147,147);stroke-width:0.01" />
<line x1="0.0379381" y1="0.218471" x2="0.0879381" y2="0.218471" style="stroke:rgb(246,147,147);stroke-width:0.01" />
</g>
</svg>
