<svg xmlns="http://www.w3.org/2000/svg" viewBox="-1.5 -1.5 3 3">
<g transform="scale(1, -1)">
<path d="M-0.753488 -1.035726 L-0.753488 -0.985726 L-1.703488 -0.035726 L-1.753488 -0.035726 z " fill="rgb(245,195,195)" />
<path d="M0.000000 0.000000 L1.000000 0.000000 L1.000000 1.000000 L0.000000 1.000000  z" fill="none" stroke="rgb(128,128,128)" stroke-width="0.01" />
<line x1="-0.803488" y1="-0.985726" x2="-0.753488" y2="-0.985726" style="stroke:rgb(246,147,147);stroke-width:0.01" />
<line x1="-0.853488" y1="-0.935726" x2="-0.803488" y2="-0.935726" style="stroke:rgb(246,147,147);stroke-width:0.01" />
<line x1="-0.753488" y1="-1.03573" x2="-1.75349" y2="-0.0357258" style="stroke:rgb(246,147,147);stroke-width:0.01" />
<line x1="-0.903488" y1="-0.885726" x2="-0.853488" y2="-0.885726" style="stroke:rgb(246,147,147);stroke-width:0.01" />
<line x1="-0.753488" y1="-0.985726" x2="-1.70349" y2="-0.0357258" style="stroke:rgb(246,147,147);stroke-width:0.01" />
<line x1="-0.953488" y1="-0.835726" x2="-0.903488" y2="-0.835726" style="stroke:rgb(246,147,147);stroke-width:0.01" />
<line x1="-1.00349" y1="-0.785726" x2="-0.953488" y2="-0.785726" style="stroke:rgb(246,147,147);stroke-width:0.01" />
<line x1="-1.05349" y1="-0.735726" x2="-1.00349" y2="-0.735726" style="stroke:rgb(246,147,147);stroke-width:0.01" />
<line x1="-1.10349" y1="-0.685726" x2="-1.05349" y2="-0.685726" style="stroke:rgb(246,147,147);stroke-width:0.01" />
<line x1="-1.15349" y1="-0.635726" x2="-1.10349" y2="-0.635726" style="stroke:rgb(246,147,147);stroke-width:0.01" />
<line x1="-1.20349" y1="-0.585726" x2="-1.15349" y2="-0.585726" style="stroke:rgb(246,147,147);stroke-width:0.01" />
<line x1="-1.25349" y1="-0.535726" x2="-1.20349" y2="-0.535726" style="stroke:rgb(246,147,147);stroke-width:0.01" />
<line x1="-1.30349" y1="-0.485726" x2="-1.25349" y2="-0.485726" style="stroke:rgb(246,147,147);stroke-width:0.01" />
<line x1="-1.35349" y1="-0.435726" x2="-1.30349" y2="-0.435726" style="stroke:rgb(246,147,147);stroke-width:0.01" />
<line x1="-1.40349" y1="-0.385726" x2="-1.35349" y2="-0.385726" style="stroke:rgb(246,147,147);stroke-width:0.01" />
<line x1="-1.45349" y1="-0.335726" x2="-1.40349" y2="-0.335726" style="stroke:rgb(246,147,147);stroke-width:0.01" />
<line x1="-1.50349" y1="-0.285726" x2="-1.45349" y2="-0.285726" style="stroke:rgb(246,147,147);stroke-width:0.01" />
<line x1="-1.55349" y1="-0.235726" x2="-1.50349" y2="-0.235726" style="stroke:rgb(246,147,147);stroke-width:0.01" />
<line x1="-1.60349" y1="-0.185726" x2="-1.55349" y2="-0.185726" style="stroke:rgb(246,147,147);stroke-width:0.01" />
<line x1="-1.65349" y1="-0.135726" x2="-1.60349" y2="-0.135726" style="stroke:rgb(246,147,147);stroke-width:0.01" />
<line x1="-1.70349" y1="-0.0857258" x2="-1.65349" y2="-0.0857258" style="stroke:rgb(246,147,147);stroke-width:0.01" />
<line x1="-1.75349" y1="-0.0357258" x2="-1.70349" y2="-0.0357258" style="stroke:rgb(246,147,147);stroke-width:0.01" />
<line x1="-1.70349" y1="-0.0857258" x2="-1.70349" y2="-0.0357258" style="stroke:rgb(246,147,147);stroke-width:0.01" />
<line x1="-1.65349" y1="-0.135726" x2="-1.65349" y2="-0.0857258" style="stroke:rgb(246,147,147);stroke-width:0.01" />
<line x1="-1.60349" y1="-0.185726" x2="-1.60349" y2="-0.135726" style="stroke:rgb(246,147,147);stroke-width:0.01" />
<line x1="-1.55349" y1="-0.235726" x2="-1.55349" y2="-0.185726" style="stroke:rgb(246,147,147);stroke-width:0.01" />
<line x1="-1.50349" y1="-0.285726" x2="-1.50349" y2="-0.235726" style="stroke:rgb(246,147,147);stroke-width:0.01" />
<line x1="-1.45349" y1="-0.335726" x2="-1.45349" y2="-0.285726" style="stroke:rgb(246,147,147);stroke-width:0.01" />
<line x1="-1.40349" y1="-0.385726" x2="-1.40349" y2="-0.335726" style="stroke:rgb(246,147,147);stroke-width:0.01" />
<line x1="-1.35349" y1="-0.435726" x2="-1.35349" y2="-0.385726" style="stroke:rgb(246,147,147);stroke-width:0.01" />
<line x1="-1.30349" y1="-0.485726" x2="-1.30349" y2="-0.435726" style="stroke:rgb(246,147,147);stroke-width:0.01" />
<line x1="-1.25349" y1="-0.535726" x2="-1.25349" y2="-0.485726" style="stroke:rgb(246,147,147);stroke-width:0.01" />
<line x1="-1.20349" y1="-0.585726" x2="-1.20349" y2="-0.535726" style="stroke:rgb(246,147,147);stroke-width:0.01" />
<line x1="-1.15349" y1="-0.635726" x2="-1.15349" y2="-0.585726" style="stroke:rgb(246,147,147);stroke-width:0.01" />
<line x1="-1.10349" y1="-0.685726" x2="-1.10349" y2="-0.635726" style="stroke:rgb(246,147,147);stroke-width:0.01" />
<line x1="-1.05349" y1="-0.735726" x2="-1.05349" y2="-0.685726" style="stroke:rgb(246,147,147);stroke-width:0.01" />
<line x1="-1.00349" y1="-0.785726" x2="-1.00349" y2="-0.735726" style="stroke:rgb(246,147,147);stroke-width:0.01" />
<line x1="-0.953488" y1="-0.835726" x2="-0.953488" y2="-0.785726" style="stroke:rgb(246,147,147);stroke-width:0.01" />
<line x1="-0.903488" y1="-0.885726" x2="-0.903488" y2="-0.835726" style="stroke:rgb(246,147,147);stroke-width:0.01" />
<line x1="-0.853488" y1="-0.935726" x2="-0.853488" y2="-0.885726" style="stroke:rgb(246,147,147);stroke-width:0.01" />
<line x1="-0.803488" y1="-0.985726" x2="-0.803488" y2="-0.935726" style="stroke:rgb(246,147,147);stroke-width:0.01" />
<line x1="-0.753488" y1="-1.03573" x2="-0.753488" y2="-0.985726" style="stroke:rgb(246,147,147);stroke-width:0.01" />
</g>
</svg>
