<svg xmlns="http://www.w3.org/2000/svg" viewBox="-1.5 -1.5 3 3">
<g transform="scale(1, -1)">
<path d="M-0.209446 0.342889 L-0.209446 0.392889 L-1.159446 1.342889 L-1.209446 1.342889 z " fill="rgb(245,195,195)" />
<path d="M0.000000 0.000000 L1.000000 0.000000 L1.000000 1.000000 L0.000000 1.000000  z" fill="none" stroke="rgb(128,128,128)" stroke-width="0.01" />
<line x1="-1.15945" y1="1.29289" x2="-1.15945" y2="1.34289" style="stroke:rgb(246,147,147);stroke-width:0.01" />
<line x1="-1.10945" y1="1.24289" x2="-1.10945" y2="1.29289" style="stroke:rgb(246,147,147);stroke-width:0.01" />
<line x1="-1.05945" y1="1.19289" x2="-1.05945" y2="1.24289" style="stroke:rgb(246,147,147);stroke-width:0.01" />
<line x1="-1.00945" y1="1.14289" x2="-1.00945" y2="1.19289" style="stroke:rgb(246,147,147);stroke-width:0.01" />
<line x1="-0.959446" y1="1.09289" x2="-0.959446" y2="1.14289" style="stroke:rgb(246,147,147);stroke-width:0.01" />
<line x1="-0.909446" y1="1.04289" x2="-0.909446" y2="1.09289" style="stroke:rgb(246,147,147);stroke-width:0.01" />
<line x1="-0.859446" y1="0.992889" x2="-0.859446" y2="1.04289" style="stroke:rgb(246,147,147);stroke-width:0.01" />
<line x1="-0.809446" y1="0.942889" x2="-0.809446" y2="0.992889" style="stroke:rgb(246,147,147);stroke-width:0.01" />
<line x1="-0.759446" y1="0.892889" x2="-0.759446" y2="0.942889" style="stroke:rgb(246,147,147);stroke-width:0.01" />
<line x1="-0.709446" y1="0.842889" x2="-0.709446" y2="0.892889" style="stroke:rgb(246,147,147);stroke-width:0.01" />
<line x1="-0.659446" y1="0.792889" x2="-0.659446" y2="0.842889" style="stroke:rgb(246,147,147);stroke-width:0.01" />
<line x1="-0.609446" y1="0.742889" x2="-0.609446" y2="0.792889" style="stroke:rgb(246,147,147);stroke-width:0.01" />
<line x1="-0.559446" y1="0.692889" x2="-0.559446" y2="0.742889" style="stroke:rgb(246,147,147);stroke-width:0.01" />
<line x1="-0.509446" y1="0.642889" x2="-0.509446" y2="0.692889" style="stroke:rgb(246,147,147);stroke-width:0.01" />
<line x1="-0.459446" y1="0.592889" x2="-0.459446" y2="0.642889" style="stroke:rgb(246,147,147);stroke-width:0.01" />
<line x1="-0.409446" y1="0.542889" x2="-0.409446" y2="0.592889" style="stroke:rgb(246,147,147);stroke-width:0.01" />
<line x1="-0.359446" y1="0.492889" x2="-0.359446" y2="0.542889" style="stroke:rgb(246,147,147);stroke-width:0.01" />
<line x1="-0.309446" y1="0.442889" x2="-0.309446" y2="0.492889" style="stroke:rgb(246,147,147);stroke-width:0.01" />
<line x1="-0.259446" y1="0.392889" x2="-0.259446" y2="0.442889" style="stroke:rgb(246,147,147);stroke-width:0.01" />
<line x1="-0.209446" y1="0.342889" x2="-0.209446" y2="0.392889" style="stroke:rgb(246,147,147);stroke-width:0.01" />
<line x1="-0.209446" y1="0.342889" x2="-1.20945" y2="1.34289" style="stroke:rgb(246,147,147);stroke-width:0.01" />
<line x1="-0.209446" y1="0.392889" x2="-1.15945" y2="1.34289" style="stroke:rgb(246,147,147);stroke-width:0.01" />
<line x1="-0.259446" y1="0.392889" x2="-0.209446" y2="0.392889" style="stroke:rgb(246,147,147);stroke-width:0.01" />
<line x1="-0.309446" y1="0.442889" x2="-0.259446" y2="0.442889" style="stroke:rgb(246,147,147);stroke-width:0.01" />
<line x1="-0.359446" y1="0.492889" x2="-0.309446" y2="0.492889" style="stroke:rgb(246,147,147);stroke-width:0.01" />
<line x1="-0.409446" y1="0.542889" x2="-0.359446" y2="0.542889" style="stroke:rgb(246,147,147);stroke-width:0.01" />
<line x1="-0.459446" y1="0.592889" x2="-0.409446" y2="0.592889" style="stroke:rgb(246,147,147);stroke-width:0.01" />
<line x1="-0.509446" y1="0.642889" x2="-0.459446" y2="0.642889" style="stroke:rgb(246,147,147);stroke-width:0.01" />
<line x1="-0.559446" y1="0.692889" x2="-0.509446" y2="0.692889" style="stroke:rgb(246,147,147);stroke-width:0.01" />
<line x1="-0.609446" y1="0.742889" x2="-0.559446" y2="0.742889" style="stroke:rgb(246,147,147);stroke-width:0.01" />
<line x1="-0.659446" y1="0.792889" x2="-0.609446" y2="0.792889" style="stroke:rgb(246,147,147);stroke-width:0.01" />
<line x1="-0.709446" y1="0.842889" x2="-0.659446" y2="0.842889" style="stroke:rgb(246,147,147);stroke-width:0.01" />
<line x1="-0.759446" y1="0.892889" x2="-0.709446" y2="0.892889" style="stroke:rgb(246,147,147);stroke-width:0.01" />
<line x1="-0.809446" y1="0.942889" x2="-0.759446" y2="0.942889" style="stroke:rgb(246,147,147);stroke-width:0.01" />
<line x1="-0.859446" y1="0.992889" x2="-0.809446" y2="0.992889" style="stroke:rgb(246,147,147);stroke-width:0.01" />
<line x1="-0.909446" y1="1.04289" x2="-0.859446" y2="1.04289" style="stroke:rgb(246,147,147);stroke-width:0.01" />
<line x1="-0.959446" y1="1.09289" x2="-0.909446" y2="1.09289" style="stroke:rgb(246,147,147);stroke-width:0.01" />
<line x1="-1.00945" y1="1.14289" x2="-0.959446" y2="1.14289" style="stroke:rgb(246,147,147);stroke-width:0.01" />
<line x1="-1.05945" y1="1.19289" x2="-1.00945" y2="1.19289" style="stroke:rgb(246,147,147);stroke-width:0.01" />
<line x1="-1.10945" y1="1.24289" x2="-1.05945" y2="1.24289" style="stroke:rgb(246,147,147);stroke-width:0.01" />
<line x1="-1.15945" y1="1.29289" x2="-1.10945" y2="1.29289" style="stroke:rgb(246,147,147);stroke-width:0.01" />
<line x1="-1.20945" y1="1.34289" x2="-1.15945" y2="1.34289" style="stroke:rgb(246,147,147);stroke-width:0.01" />
</g>
</svg>
