<svg xmlns="http://www.w3.org/2000/svg" viewBox="-1.5 -1.5 3 3">
<g transform="scale(1, -1)">
<path d="M4.190370 0.044301 L4.190370 0.094301 L3.240370 1.044301 L3.190370 1.044301 z " fill="rgb(245,195,195)" />
<path d="M0.000000 0.000000 L1.000000 0.000000 L1.000000 1.000000 L0.000000 1.000000  z" fill="none" stroke="rgb(128,128,128)" stroke-width="0.01" />
<line x1="3.24037" y1="0.994301" x2="3.24037" y2="1.0443" style="stroke:rgb(246,147,147);stroke-width:0.01" />
<line x1="3.29037" y1="0.944301" x2="3.29037" y2="0.994301" style="stroke:rgb(246,147,147);stroke-width:0.01" />
<line x1="3.34037" y1="0.894301" x2="3.34037" y2="0.944301" style="stroke:rgb(246,147,147);stroke-width:0.01" />
<line x1="3.39037" y1="0.844301" x2="3.39037" y2="0.894301" style="stroke:rgb(246,147,147);stroke-width:0.01" />
<line x1="3.44037" y1="0.794301" x2="3.44037" y2="0.844301" style="stroke:rgb(246,147,147);stroke-width:0.01" />
<line x1="3.49037" y1="0.744301" x2="3.49037" y2="0.794301" style="stroke:rgb(246,147,147);stroke-width:0.01" />
<line x1="3.54037" y1="0.694301" x2="3.54037" y2="0.744301" style="stroke:rgb(246,147,147);stroke-width:0.01" />
<line x1="3.59037" y1="0.644301" x2="3.59037" y2="0.694301" style="stroke:rgb(246,147,147);stroke-width:0.01" />
<line x1="3.64037" y1="0.594301" x2="3.64037" y2="0.644301" style="stroke:rgb(246,147,147);stroke-width:0.01" />
<line x1="3.69037" y1="0.544301" x2="3.69037" y2="0.594301" style="stroke:rgb(246,147,147);stroke-width:0.01" />
<line x1="3.74037" y1="0.494301" x2="3.74037" y2="0.544301" style="stroke:rgb(246,147,147);stroke-width:0.01" />
<line x1="3.79037" y1="0.444301" x2="3.79037" y2="0.494301" style="stroke:rgb(246,147,147);stroke-width:0.01" />
<line x1="3.84037" y1="0.394301" x2="3.84037" y2="0.444301" style="stroke:rgb(246,147,147);stroke-width:0.01" />
<line x1="3.89037" y1="0.344301" x2="3.89037" y2="0.394301" style="stroke:rgb(246,147,147);stroke-width:0.01" />
<line x1="3.94037" y1="0.294301" x2="3.94037" y2="0.344301" style="stroke:rgb(246,147,147);stroke-width:0.01" />
<line x1="3.99037" y1="0.244301" x2="3.99037" y2="0.294301" style="stroke:rgb(246,147,147);stroke-width:0.01" />
<line x1="4.04037" y1="0.194301" x2="4.04037" y2="0.244301" style="stroke:rgb(246,147,147);stroke-width:0.01" />
<line x1="4.09037" y1="0.144301" x2="4.09037" y2="0.194301" style="stroke:rgb(246,147,147);stroke-width:0.01" />
<line x1="4.14037" y1="0.0943007" x2="4.14037" y2="0.144301" style="stroke:rgb(246,147,147);stroke-width:0.01" />
<line x1="4.19037" y1="0.0443007" x2="4.19037" y2="0.0943007" style="stroke:rgb(246,147,147);stroke-width:0.01" />
<line x1="4.14037" y1="0.0943007" x2="4.19037" y2="0.0943007" style="stroke:rgb(246,147,147);stroke-width:0.01" />
<line x1="4.09037" y1="0.144301" x2="4.14037" y2="0.144301" style="stroke:rgb(246,147,147);stroke-width:0.01" />
<line x1="4.04037" y1="0.194301" x2="4.09037" y2="0.194301" style="stroke:rgb(246,147,147);stroke-width:0.01" />
<line x1="3.99037" y1="0.244301" x2="4.04037" y2="0.244301" style="stroke:rgb(246,147,147);stroke-width:0.01" />
<line x1="3.94037" y1="0.294301" x2="3.99037" y2="0.294301" style="stroke:rgb(246,147,147);stroke-width:0.01" />
<line x1="3.89037" y1="0.344301" x2="3.94037" y2="0.344301" style="stroke:rgb(246,147,147);stroke-width:0.01" />
<line x1="3.84037" y1="0.394301" x2="3.89037" y2="0.394301" style="stroke:rgb(246,147,147);stroke-width:0.01" />
<line x1="3.79037" y1="0.444301" x2="3.84037" y2="0.444301" style="stroke:rgb(246,147,147);stroke-width:0.01" />
<line x1="3.74037" y1="0.494301" x2="3.79037" y2="0.494301" style="stroke:rgb(246,147,147);stroke-width:0.01" />
<line x1="3.69037" y1="0.544301" x2="3.74037" y2="0.544301" style="stroke:rgb(246,147,147);stroke-width:0.01" />
<line x1="3.64037" y1="0.594301" x2="3.69037" y2="0.594301" style="stroke:rgb(246,147,147);stroke-width:0.01" />
<line x1="3.59037" y1="0.644301" x2="3.64037" y2="0.644301" style="stroke:rgb(246,147,147);stroke-width:0.01" />
<line x1="3.54037" y1="0.694301" x2="3.59037" y2="0.694301" style="stroke:rgb(246,147,147);stroke-width:0.01" />
<line x1="3.49037" y1="0.744301" x2="3.54037" y2="0.744301" style="stroke:rgb(246,147,147);stroke-width:0.01" />
<line x1="3.44037" y1="0.794301" x2="3.49037" y2="0.794301" style="stroke:rgb(246,147,147);stroke-width:0.01" />
<line x1="3.39037" y1="0.844301" x2="3.44037" y2="0.844301" style="stroke:rgb(246,147,147);stroke-width:0.01" />
<line x1="3.34037" y1="0.894301" x2="3.39037" y2="0.894301" style="stroke:rgb(246,147,147);stroke-width:0.01" />
<line x1="3.29037" y1="0.944301" x2="3.34037" y2="0.944301" style="stroke:rgb(246,147,147);stroke-width:0.01" />
<line x1="3.24037" y1="0.994301" x2="3.29037" y2="0.994301" style="stroke:rgb(246,147,147);stroke-width:0.01" />
<line x1="3.19037" y1="1.0443" x2="3.24037" y2="1.0443" style="stroke:rgb(246,147,147);stroke-width:0.01" />
<line x1="4.19037" y1="0.0443007" x2="3.19037" y2="1.0443" style="stroke:rgb(246,147,147);stroke-width:0.01" />
<line x1="4.19037" y1="0.0943007" x2="3.24037" y2="1.0443" style="stroke:rgb(246,147,147);stroke-width:0.01" />
</g>
</svg>
