<svg xmlns="http://www.w3.org/2000/svg" viewBox="-1.5 -1.5 3 3">
<g transform="scale(1, -1)">
<path d="M-1.573627 -0.869345 L-1.573627 -0.819345 L-2.523627 0.130655 L-2.573627 0.130655 z " fill="rgb(245,195,195)" />
<path d="M0.000000 0.000000 L1.000000 0.000000 L1.000000 1.000000 L0.000000 1.000000  z" fill="none" stroke="rgb(128,128,128)" stroke-width="0.01" />
<line x1="-1.57363" y1="-0.869345" x2="-2.57363" y2="0.130655" style="stroke:rgb(246,147,147);stroke-width:0.01" />
<line x1="-1.57363" y1="-0.819345" x2="-2.52363" y2="0.130655" style="stroke:rgb(246,147,147);stroke-width:0.01" />
<line x1="-1.62363" y1="-0.819345" x2="-1.57363" y2="-0.819345" style="stroke:rgb(246,147,147);stroke-width:0.01" />
<line x1="-1.67363" y1="-0.769345" x2="-1.62363" y2="-0.769345" style="stroke:rgb(246,147,147);stroke-width:0.01" />
<line x1="-1.72363" y1="-0.719345" x2="-1.67363" y2="-0.719345" style="stroke:rgb(246,147,147);stroke-width:0.01" />
<line x1="-1.77363" y1="-0.669345" x2="-1.72363" y2="-0.669345" style="stroke:rgb(246,147,147);stroke-width:0.01" />
<line x1="-1.82363" y1="-0.619345" x2="-1.77363" y2="-0.619345" style="stroke:rgb(246,147,147);stroke-width:0.01" />
<line x1="-1.87363" y1="-0.569345" x2="-1.82363" y2="-0.569345" style="stroke:rgb(246,147,147);stroke-width:0.01" />
<line x1="-1.92363" y1="-0.519345" x2="-1.87363" y2="-0.519345" style="stroke:rgb(246,147,147);stroke-width:0.01" />
<line x1="-1.97363" y1="-0.469345" x2="-1.92363" y2="-0.469345" style="stroke:rgb(246,147,147);stroke-width:0.01" />
<line x1="-2.02363" y1="-0.419345" x2="-1.97363" y2="-0.419345" style="stroke:rgb(246,147,147);stroke-width:0.01" />
<line x1="-2.07363" y1="-0.369345" x2="-2.02363" y2="-0.369345" style="stroke:rgb(246,147,147);stroke-width:0.01" />
<line x1="-2.12363" y1="-0.319345" x2="-2.07363" y2="-0.319345" style="stroke:rgb(246,147,147);stroke-width:0.01" />
<line x1="-2.17363" y1="-0.269345" x2="-2.12363" y2="-0.269345" style="stroke:rgb(246,147,147);stroke-width:0.01" />
<line x1="-2.22363" y1="-0.219345" x2="-2.17363" y2="-0.219345" style="stroke:rgb(246,147,147);stroke-width:0.01" />
<line x1="-2.27363" y1="-0.169345" x2="-2.22363" y2="-0.169345" style="stroke:rgb(246,147,147);stroke-width:0.01" />
<line x1="-2.32363" y1="-0.119345" x2="-2.27363" y2="-0.119345" style="stroke:rgb(246,147,147);stroke-width:0.01" />
<line x1="-2.37363" y1="-0.0693452" x2="-2.32363" y2="-0.0693452" style="stroke:rgb(246,147,147);stroke-width:0.01" />
<line x1="-2.42363" y1="-0.0193452" x2="-2.37363" y2="-0.0193452" style="stroke:rgb(246,147,147);stroke-width:0.01" />
<line x1="-2.52363" y1="0.0806548" x2="-2.52363" y2="0.130655" style="stroke:rgb(246,147,147);stroke-width:0.01" />
<line x1="-2.47363" y1="0.0306548" x2="-2.47363" y2="0.0806548" style="stroke:rgb(246,147,147);stroke-width:0.01" />
<line x1="-2.42363" y1="-0.0193452" x2="-2.42363" y2="0.0306548" style="stroke:rgb(246,147,147);stroke-width:0.01" />
<line x1="-2.37363" y1="-0.0693452" x2="-2.37363" y2="-0.0193452" style="stroke:rgb(246,147,147);stroke-width:0.01" />
<line x1="-2.32363" y1="-0.119345" x2="-2.32363" y2="-0.0693452" style="stroke:rgb(246,147,147);stroke-width:0.01" />
<line x1="-2.27363" y1="-0.169345" x2="-2.27363" y2="-0.119345" style="stroke:rgb(246,147,147);stroke-width:0.01" />
<line x1="-2.22363" y1="-0.219345" x2="-2.22363" y2="-0.169345" style="stroke:rgb(246,147,147);stroke-width:0.01" />
<line x1="-2.17363" y1="-0.269345" x2="-2.17363" y2="-0.219345" style="stroke:rgb(246,147,147);stroke-width:0.01" />
<line x1="-2.12363" y1="-0.319345" x2="-2.12363" y2="-0.269345" style="stroke:rgb(246,147,147);stroke-width:0.01" />
<line x1="-2.07363" y1="-0.369345" x2="-2.07363" y2="-0.319345" style="stroke:rgb(246,147,147);stroke-width:0.01" />
<line x1="-2.02363" y1="-0.419345" x2="-2.02363" y2="-0.369345" style="stroke:rgb(246,147,147);stroke-width:0.01" />
<line x1="-1.97363" y1="-0.469345" x2="-1.97363" y2="-0.419345" style="stroke:rgb(246,147,147);stroke-width:0.01" />
<line x1="-1.92363" y1="-0.519345" x2="-1.92363" y2="-0.469345" style="stroke:rgb(246,147,147);stroke-width:0.01" />
<line x1="-1.87363" y1="-0.569345" x2="-1.87363" y2="-0.519345" style="stroke:rgb(246,147,147);stroke-width:0.01" />
<line x1="-1.82363" y1="-0.619345" x2="-1.82363" y2="-0.569345" style="stroke:rgb(246,147,147);stroke-width:0.01" />
<line x1="-1.77363" y1="-0.669345" x2="-1.77363" y2="-0.619345" style="stroke:rgb(246,147,147);stroke-width:0.01" />
<line x1="-1.72363" y1="-0.719345" x2="-1.72363" y2="-0.669345" style="stroke:rgb(246,147,147);stroke-width:0.01" />
<line x1="-1.67363" y1="-0.769345" x2="-1.67363" y2="-0.719345" style="stroke:rgb(246,147,147);stroke-width:0.01" />
<line x1="-1.62363" y1="-0.819345" x2="-1.62363" y2="-0.769345" style="stroke:rgb(246,147,147);stroke-width:0.01" />
<line x1="-1.57363" y1="-0.869345" x2="-1.57363" y2="-0.819345" style="stroke:rgb(246,147,147);stroke-width:0.01" />
<line x1="-2.47363" y1="0.0306548" x2="-2.42363" y2="0.0306548" style="stroke:rgb(246,147,147);stroke-width:0.01" />
<line x1="-2.52363" y1="0.0806548" x2="-2.47363" y2="0.0806548" style="stroke:rgb(246,147,147);stroke-width:0.01" />
<line x1="-2.57363" y1="0.130655" x2="-2.52363" y2="0.130655" style="stroke:rgb(246,147,147);stroke-width:0.01" />
</g>
</svg>
