<svg xmlns="http://www.w3.org/2000/svg" viewBox="-1.5 -1.5 3 3">
<g transform="scale(1, -1)">
<path d="M-0.805776 -0.189566 L-0.805776 -0.139566 L-1.755776 0.810434 L-1.805776 0.810434 z " fill="rgb(245,195,195)" />
<path d="M0.000000 0.000000 L1.000000 0.000000 L1.000000 1.000000 L0.000000 1.000000  z" fill="none" stroke="rgb(128,128,128)" stroke-width="0.01" />
<line x1="-0.805776" y1="-0.189566" x2="-1.80578" y2="0.810434" style="stroke:rgb(246,147,147);stroke-width:0.01" />
<line x1="-0.805776" y1="-0.139566" x2="-1.75578" y2="0.810434" style="stroke:rgb(246,147,147);stroke-width:0.01" />
<line x1="-0.855776" y1="-0.139566" x2="-0.805776" y2="-0.139566" style="stroke:rgb(246,147,147);stroke-width:0.01" />
<line x1="-0.905776" y1="-0.0895665" x2="-0.855776" y2="-0.0895665" style="stroke:rgb(246,147,147);stroke-width:0.01" />
<line x1="-0.955776" y1="-0.0395665" x2="-0.905776" y2="-0.0395665" style="stroke:rgb(246,147,147);stroke-width:0.01" />
<line x1="-1.75578" y1="0.760434" x2="-1.75578" y2="0.810434" style="stroke:rgb(246,147,147);stroke-width:0.01" />
<line x1="-1.70578" y1="0.710434" x2="-1.70578" y2="0.760434" style="stroke:rgb(246,147,147);stroke-width:0.01" />
<line x1="-1.65578" y1="0.660434" x2="-1.65578" y2="0.710434" style="stroke:rgb(246,147,147);stroke-width:0.01" />
<line x1="-1.60578" y1="0.610434" x2="-1.60578" y2="0.660434" style="stroke:rgb(246,147,147);stroke-width:0.01" />
<line x1="-1.55578" y1="0.560434" x2="-1.55578" y2="0.610434" style="stroke:rgb(246,147,147);stroke-width:0.01" />
<line x1="-1.50578" y1="0.510434" x2="-1.50578" y2="0.560434" style="stroke:rgb(246,147,147);stroke-width:0.01" />
<line x1="-1.45578" y1="0.460434" x2="-1.45578" y2="0.510434" style="stroke:rgb(246,147,147);stroke-width:0.01" />
<line x1="-1.40578" y1="0.410434" x2="-1.40578" y2="0.460434" style="stroke:rgb(246,147,147);stroke-width:0.01" />
<line x1="-1.35578" y1="0.360434" x2="-1.35578" y2="0.410434" style="stroke:rgb(246,147,147);stroke-width:0.01" />
<line x1="-1.30578" y1="0.310434" x2="-1.30578" y2="0.360434" style="stroke:rgb(246,147,147);stroke-width:0.01" />
<line x1="-1.25578" y1="0.260434" x2="-1.25578" y2="0.310434" style="stroke:rgb(246,147,147);stroke-width:0.01" />
<line x1="-1.20578" y1="0.210434" x2="-1.20578" y2="0.260434" style="stroke:rgb(246,147,147);stroke-width:0.01" />
<line x1="-1.15578" y1="0.160434" x2="-1.15578" y2="0.210434" style="stroke:rgb(246,147,147);stroke-width:0.01" />
<line x1="-1.10578" y1="0.110434" x2="-1.10578" y2="0.160434" style="stroke:rgb(246,147,147);stroke-width:0.01" />
<line x1="-1.05578" y1="0.0604335" x2="-1.05578" y2="0.110434" style="stroke:rgb(246,147,147);stroke-width:0.01" />
<line x1="-1.00578" y1="0.0104335" x2="-1.00578" y2="0.0604335" style="stroke:rgb(246,147,147);stroke-width:0.01" />
<line x1="-0.955776" y1="-0.0395665" x2="-0.955776" y2="0.0104335" style="stroke:rgb(246,147,147);stroke-width:0.01" />
<line x1="-0.905776" y1="-0.0895665" x2="-0.905776" y2="-0.0395665" style="stroke:rgb(246,147,147);stroke-width:0.01" />
<line x1="-0.855776" y1="-0.139566" x2="-0.855776" y2="-0.0895665" style="stroke:rgb(246,147,147);stroke-width:0.01" />
<line x1="-0.805776" y1="-0.189566" x2="-0.805776" y2="-0.139566" style="stroke:rgb(246,147,147);stroke-width:0.01" />
<line x1="-1.00578" y1="0.0104335" x2="-0.955776" y2="0.0104335" style="stroke:rgb(246,147,147);stroke-width:0.01" />
<line x1="-1.05578" y1="0.0604335" x2="-1.00578" y2="0.0604335" style="stroke:rgb(246,147,147);stroke-width:0.01" />
<line x1="-1.10578" y1="0.110434" x2="-1.05578" y2="0.110434" style="stroke:rgb(246,147,147);stroke-width:0.01" />
<line x1="-1.15578" y1="0.160434" x2="-1.10578" y2="0.160434" style="stroke:rgb(246,147,147);stroke-width:0.01" />
<line x1="-1.20578" y1="0.210434" x2="-1.15578" y2="0.210434" style="stroke:rgb(246,147,147);stroke-width:0.01" />
<line x1="-1.25578" y1="0.260434" x2="-1.20578" y2="0.260434" style="stroke:rgb(246,147,147);stroke-width:0.01" />
<line x1="-1.30578" y1="0.310434" x2="-1.25578" y2="0.310434" style="stroke:rgb(246,147,147);stroke-width:0.01" />
<line x1="-1.35578" y1="0.360434" x2="-1.30578" y2="0.360434" style="stroke:rgb(246,147,147);stroke-width:0.01" />
<line x1="-1.40578" y1="0.410434" x2="-1.35578" y2="0.410434" style="stroke:rgb(246,147,147);stroke-width:0.01" />
<line x1="-1.45578" y1="0.460434" x2="-1.40578" y2="0.460434" style="stroke:rgb(246,147,147);stroke-width:0.01" />
<line x1="-1.50578" y1="0.510434" x2="-1.45578" y2="0.510434" style="stroke:rgb(246,147,147);stroke-width:0.01" />
<line x1="-1.55578" y1="0.560434" x2="-1.50578" y2="0.560434" style="stroke:rgb(246,147,147);stroke-width:0.01" />
<line x1="-1.60578" y1="0.610434" x2="-1.55578" y2="0.610434" style="stroke:rgb(246,147,147);stroke-width:0.01" />
<line x1="-1.65578" y1="0.660434" x2="-1.60578" y2="0.660434" style="stroke:rgb(246,147,147);stroke-width:0.01" />
<line x1="-1.70578" y1="0.710434" x2="-1.65578" y2="0.710434" style="stroke:rgb(246,147,147);stroke-width:0.01" />
<line x1="-1.75578" y1="0.760434" x2="-1.70578" y2="0.760434" style="stroke:rgb(246,147,147);stroke-width:0.01" />
<line x1="-1.80578" y1="0.810434" x2="-1.75578" y2="0.810434" style="stroke:rgb(246,147,147);stroke-width:0.01" />
</g>
</svg>
