<svg xmlns="http://www.w3.org/2000/svg" viewBox="-1.5 -1.5 3 3">
<g transform="scale(1, -1)">
<path d="M0.547048 -1.495646 L0.547048 -1.445646 L-0.402952 -0.495646 L-0.452952 -0.495646 z " fill="rgb(245,195,195)" />
<path d="M0.000000 0.000000 L1.000000 0.000000 L1.000000 1.000000 L0.000000 1.000000  z" fill="none" stroke="rgb(128,128,128)" stroke-width="0.01" />
<line x1="0.497048" y1="-1.44565" x2="0.547048" y2="-1.44565" style="stroke:rgb(246,147,147);stroke-width:0.01" />
<line x1="0.447048" y1="-1.39565" x2="0.497048" y2="-1.39565" style="stroke:rgb(246,147,147);stroke-width:0.01" />
<line x1="0.397048" y1="-1.34565" x2="0.447048" y2="-1.34565" style="stroke:rgb(246,147,147);stroke-width:0.01" />
<line x1="0.347048" y1="-1.29565" x2="0.397048" y2="-1.29565" style="stroke:rgb(246,147,147);stroke-width:0.01" />
<line x1="0.297048" y1="-1.24565" x2="0.347048" y2="-1.24565" style="stroke:rgb(246,147,147);stroke-width:0.01" />
<line x1="0.247048" y1="-1.19565" x2="0.297048" y2="-1.19565" style="stroke:rgb(246,147,147);stroke-width:0.01" />
<line x1="0.197048" y1="-1.14565" x2="0.247048" y2="-1.14565" style="stroke:rgb(246,147,147);stroke-width:0.01" />
<line x1="0.147048" y1="-1.09565" x2="0.197048" y2="-1.09565" style="stroke:rgb(246,147,147);stroke-width:0.01" />
<line x1="0.0970479" y1="-1.04565" x2="0.147048" y2="-1.04565" style="stroke:rgb(246,147,147);stroke-width:0.01" />
<line x1="0.0470479" y1="-0.995646" x2="0.0970479" y2="-0.995646" style="stroke:rgb(246,147,147);stroke-width:0.01" />
<line x1="-0.00295207" y1="-0.945646" x2="0.0470479" y2="-0.945646" style="stroke:rgb(246,147,147);stroke-width:0.01" />
<line x1="-0.0529521" y1="-0.895646" x2="-0.00295207" y2="-0.895646" style="stroke:rgb(246,147,147);stroke-width:0.01" />
<line x1="-0.102952" y1="-0.845646" x2="-0.0529521" y2="-0.845646" style="stroke:rgb(246,147,147);stroke-width:0.01" />
<line x1="-0.152952" y1="-0.795646" x2="-0.102952" y2="-0.795646" style="stroke:rgb(246,147,147);stroke-width:0.01" />
<line x1="-0.202952" y1="-0.745646" x2="-0.152952" y2="-0.745646" style="stroke:rgb(246,147,147);stroke-width:0.01" />
<line x1="-0.252952" y1="-0.695646" x2="-0.202952" y2="-0.695646" style="stroke:rgb(246,147,147);stroke-width:0.01" />
<line x1="-0.302952" y1="-0.645646" x2="-0.252952" y2="-0.645646" style="stroke:rgb(246,147,147);stroke-width:0.01" />
<line x1="-0.352952" y1="-0.595646" x2="-0.302952" y2="-0.595646" style="stroke:rgb(246,147,147);stroke-width:0.01" />
<line x1="-0.402952" y1="-0.545646" x2="-0.352952" y2="-0.545646" style="stroke:rgb(246,147,147);stroke-width:0.01" />
<line x1="-0.452952" y1="-0.495646" x2="-0.402952" y2="-0.495646" style="stroke:rgb(246,147,147);stroke-width:0.01" />
<line x1="0.547048" y1="-1.49565" x2="-0.452952" y2="-0.495646" style="stroke:rgb(246,147,147);stroke-width:0.01" />
<line x1="0.547048" y1="-1.44565" x2="-0.402952" y2="-0.495646" style="stroke:rgb(246,147,147);stroke-width:0.01" />
<line x1="-0.402952" y1="-0.545646" x2="-0.402952" y2="-0.495646" style="stroke:rgb(246,147,147);stroke-width:0.01" />
<line x1="-0.352952" y1="-0.595646" x2="-0.352952" y2="-0.545646" style="stroke:rgb(246,147,147);stroke-width:0.01" />
<line x1="-0.302952" y1="-0.645646" x2="-0.302952" y2="-0.595646" style="stroke:rgb(246,147,147);stroke-width:0.01" />
<line x1="-0.252952" y1="-0.695646" x2="-0.252952" y2="-0.645646" style="stroke:rgb(246,147,147);stroke-width:0.01" />
<line x1="-0.202952" y1="-0.745646" x2="-0.202952" y2="-0.695646" style="stroke:rgb(246,147,147);stroke-width:0.01" />
<line x1="-0.152952" y1="-0.795646" x2="-0.152952" y2="-0.745646" style="stroke:rgb(246,147,147);stroke-width:0.01" />
<line x1="-0.102952" y1="-0.845646" x2="-0.102952" y2="-0.795646" style="stroke:rgb(246,147,147);stroke-width:0.01" />
<line x1="-0.0529521" y1="-0.895646" x2="-0.0529521" y2="-0.845646" style="stroke:rgb(246,147,147);stroke-width:0.01" />
<line x1="-0.00295207" y1="-0.945646" x2="-0.00295207" y2="-0.895646" style="stroke:rgb(246,147,147);stroke-width:0.01" />
<line x1="0.0470479" y1="-0.995646" x2="0.0470479" y2="-0.945646" style="stroke:rgb(246,147,147);stroke-width:0.01" />
<line x1="0.0970479" y1="-1.04565" x2="0.0970479" y2="-0.995646" style="stroke:rgb(246,147,147);stroke-width:0.01" />
<line x1="0.147048" y1="-1.09565" x2="0.147048" y2="-1.04565" style="stroke:rgb(246,147,147);stroke-width:0.01" />
<line x1="0.197048" y1="-1.14565" x2="0.197048" y2="-1.09565" style="stroke:rgb(246,147,147);stroke-width:0.01" />
<line x1="0.247048" y1="-1.19565" x2="0.247048" y2="-1.14565" style="stroke:rgb(246,147,147);stroke-width:0.01" />
<line x1="0.297048" y1="-1.24565" x2="0.297048" y2="-1.19565" style="stroke:rgb(246,147,147);stroke-width:0.01" />
<line x1="0.347048" y1="-1.29565" x2="0.347048" y2="-1.24565" style="stroke:rgb(246,147,147);stroke-width:0.01" />
<line x1="0.397048" y1="-1.34565" x2="0.397048" y2="-1.29565" style="stroke:rgb(246,147,147);stroke-width:0.01" />
<line x1="0.447048" y1="-1.39565" x2="0.447048" y2="-1.34565" style="stroke:rgb(246,147,147);stroke-width:0.01" />
<line x1="0.497048" y1="-1.44565" x2="0.497048" y2="-1.39565" style="stroke:rgb(246,147,147);stroke-width:0.01" />
<line x1="0.547048" y1="-1.49565" x2="0.547048" y2="-1.44565" style="stroke:rgb(246,147,147);stroke-width:0.01" />
</g>
</svg>
