<svg xmlns="http://www.w3.org/2000/svg" viewBox="-1.5 -1.5 3 3">
<g transform="scale(1, -1)">
<path d="M1.933866 -1.656290 L1.933866 -1.606290 L0.983866 -0.656290 L0.933866 -0.656290 z " fill="rgb(245,195,195)" />
<path d="M0.000000 0.000000 L1.000000 0.000000 L1.000000 1.000000 L0.000000 1.000000  z" fill="none" stroke="rgb(128,128,128)" stroke-width="0.01" />
<line x1="1.88387" y1="-1.60629" x2="1.93387" y2="-1.60629" style="stroke:rgb(246,147,147);stroke-width:0.01" />
<line x1="1.83387" y1="-1.55629" x2="1.88387" y2="-1.55629" style="stroke:rgb(246,147,147);stroke-width:0.01" />
<line x1="1.78387" y1="-1.50629" x2="1.83387" y2="-1.50629" style="stroke:rgb(246,147,147);stroke-width:0.01" />
<line x1="1.73387" y1="-1.45629" x2="1.78387" y2="-1.45629" style="stroke:rgb(246,147,147);stroke-width:0.01" />
<line x1="1.68387" y1="-1.40629" x2="1.73387" y2="-1.40629" style="stroke:rgb(246,147,147);stroke-width:0.01" />
<line x1="1.63387" y1="-1.35629" x2="1.68387" y2="-1.35629" style="stroke:rgb(246,147,147);stroke-width:0.01" />
<line x1="1.58387" y1="-1.30629" x2="1.63387" y2="-1.30629" style="stroke:rgb(246,147,147);stroke-width:0.01" />
<line x1="1.53387" y1="-1.25629" x2="1.58387" y2="-1.25629" style="stroke:rgb(246,147,147);stroke-width:0.01" />
<line x1="1.48387" y1="-1.20629" x2="1.53387" y2="-1.20629" style="stroke:rgb(246,147,147);stroke-width:0.01" />
<line x1="1.43387" y1="-1.15629" x2="1.48387" y2="-1.15629" style="stroke:rgb(246,147,147);stroke-width:0.01" />
<line x1="1.38387" y1="-1.10629" x2="1.43387" y2="-1.10629" style="stroke:rgb(246,147,147);stroke-width:0.01" />
<line x1="1.33387" y1="-1.05629" x2="1.38387" y2="-1.05629" style="stroke:rgb(246,147,147);stroke-width:0.01" />
<line x1="1.28387" y1="-1.00629" x2="1.33387" y2="-1.00629" style="stroke:rgb(246,147,147);stroke-width:0.01" />
<line x1="1.23387" y1="-0.95629" x2="1.28387" y2="-0.95629" style="stroke:rgb(246,147,147);stroke-width:0.01" />
<line x1="1.18387" y1="-0.90629" x2="1.23387" y2="-0.90629" style="stroke:rgb(246,147,147);stroke-width:0.01" />
<line x1="1.13387" y1="-0.85629" x2="1.18387" y2="-0.85629" style="stroke:rgb(246,147,147);stroke-width:0.01" />
<line x1="1.08387" y1="-0.80629" x2="1.13387" y2="-0.80629" style="stroke:rgb(246,147,147);stroke-width:0.01" />
<line x1="1.03387" y1="-0.75629" x2="1.08387" y2="-0.75629" style="stroke:rgb(246,147,147);stroke-width:0.01" />
<line x1="0.983866" y1="-0.70629" x2="1.03387" y2="-0.70629" style="stroke:rgb(246,147,147);stroke-width:0.01" />
<line x1="0.933866" y1="-0.65629" x2="0.983866" y2="-0.65629" style="stroke:rgb(246,147,147);stroke-width:0.01" />
<line x1="0.983866" y1="-0.70629" x2="0.983866" y2="-0.65629" style="stroke:rgb(246,147,147);stroke-width:0.01" />
<line x1="1.03387" y1="-0.75629" x2="1.03387" y2="-0.70629" style="stroke:rgb(246,147,147);stroke-width:0.01" />
<line x1="1.08387" y1="-0.80629" x2="1.08387" y2="-0.75629" style="stroke:rgb(246,147,147);stroke-width:0.01" />
<line x1="1.13387" y1="-0.85629" x2="1.13387" y2="-0.80629" style="stroke:rgb(246,147,147);stroke-width:0.01" />
<line x1="1.18387" y1="-0.90629" x2="1.18387" y2="-0.85629" style="stroke:rgb(246,147,147);stroke-width:0.01" />
<line x1="1.23387" y1="-0.95629" x2="1.23387" y2="-0.90629" style="stroke:rgb(246,147,147);stroke-width:0.01" />
<line x1="1.28387" y1="-1.00629" x2="1.28387" y2="-0.95629" style="stroke:rgb(246,147,147);stroke-width:0.01" />
<line x1="1.33387" y1="-1.05629" x2="1.33387" y2="-1.00629" style="stroke:rgb(246,147,147);stroke-width:0.01" />
<line x1="1.38387" y1="-1.10629" x2="1.38387" y2="-1.05629" style="stroke:rgb(246,147,147);stroke-width:0.01" />
<line x1="1.43387" y1="-1.15629" x2="1.43387" y2="-1.10629" style="stroke:rgb(246,147,147);stroke-width:0.01" />
<line x1="1.48387" y1="-1.20629" x2="1.48387" y2="-1.15629" style="stroke:rgb(246,147,147);stroke-width:0.01" />
<line x1="1.53387" y1="-1.25629" x2="1.53387" y2="-1.20629" style="stroke:rgb(246,147,147);stroke-width:0.01" />
<line x1="1.58387" y1="-1.30629" x2="1.58387" y2="-1.25629" style="stroke:rgb(246,147,147);stroke-width:0.01" />
<line x1="1.63387" y1="-1.35629" x2="1.63387" y2="-1.30629" style="stroke:rgb(246,147,147);stroke-width:0.01" />
<line x1="1.68387" y1="-1.40629" x2="1.68387" y2="-1.35629" style="stroke:rgb(246,147,147);stroke-width:0.01" />
<line x1="1.73387" y1="-1.45629" x2="1.73387" y2="-1.40629" style="stroke:rgb(246,147,147);stroke-width:0.01" />
<line x1="1.78387" y1="-1.50629" x2="1.78387" y2="-1.45629" style="stroke:rgb(246,147,147);stroke-width:0.01" />
<line x1="1.83387" y1="-1.55629" x2="1.83387" y2="-1.50629" style="stroke:rgb(246,147,147);stroke-width:0.01" />
<line x1="1.88387" y1="-1.60629" x2="1.88387" y2="-1.55629" style="stroke:rgb(246,147,147);stroke-width:0.01" />
<line x1="1.93387" y1="-1.65629" x2="1.93387" y2="-1.60629" style="stroke:rgb(246,147,147);stroke-width:0.01" />
<line x1="1.93387" y1="-1.65629" x2="0.933866" y2="-0.65629" style="stroke:rgb(246,147,147);stroke-width:0.01" />
<line x1="1.93387" y1="-1.60629" x2="0.983866" y2="-0.65629" style="stroke:rgb(246,147,147);stroke-width:0.01" />
</g>
</svg>
