<svg xmlns="http://www.w3.org/2000/svg" viewBox="-1.5 -1.5 3 3">
<g transform="scale(1, -1)">
<path d="M-0.022917 -0.368750 L0.477083 -0.368750 L0.477083 0.131250 L0.227083 0.131250 L0.077083 0.331250 L-0.189583 0.131250 L-0.522917 0.131250 L-0.522917 -0.118750 z " fill="rgb(245,195,195)" />
<path d="M-0.522917 -0.368750 L0.477083 -0.368750 L0.477083 0.631250 L-0.522917 0.631250  z" fill="none" stroke="rgb(128,128,128)" stroke-width="0.01" />
<line x1="-0.0229167" y1="-0.36875" x2="0.227083" y2="0.13125" style="stroke:rgb(246,147,147);stroke-width:0.01" />
<line x1="-0.0229167" y1="-0.36875" x2="0.477083" y2="-0.36875" style="stroke:rgb(246,147,147);stroke-width:0.01" />
<line x1="-0.522917" y1="-0.11875" x2="-0.522917" y2="0.13125" style="stroke:rgb(246,147,147);stroke-width:0.01" />
<line x1="-0.0229167" y1="-0.36875" x2="-0.0229167" y2="0.13125" style="stroke:rgb(246,147,147);stroke-width:0.01" />
<line x1="0.477083" y1="-0.36875" x2="0.477083" y2="0.13125" style="stroke:rgb(246,147,147);stroke-width:0.01" />
<line x1="-0.522917" y1="-0.11875" x2="0.0770833" y2="0.33125" style="stroke:rgb(246,147,147);stroke-width:0.01" />
<line x1="-0.0229167" y1="-0.36875" x2="-0.522917" y2="-0.11875" style="stroke:rgb(246,147,147);stroke-width:0.01" />
<line x1="-0.522917" y1="0.13125" x2="0.477083" y2="0.13125" style="stroke:rgb(246,147,147);stroke-width:0.01" />
<line x1="0.227083" y1="0.13125" x2="0.0770833" y2="0.33125" style="stroke:rgb(246,147,147);stroke-width:0.01" />
</g>
</svg>
