<svg xmlns="http://www.w3.org/2000/svg" viewBox="-1.5 -1.5 3 3">
<g transform="scale(1, -1)">
<path d="M0.935623 -0.160162 L0.935623 -0.110162 L-0.014377 0.839838 L-0.064377 0.839838 z " fill="rgb(245,195,195)" />
<path d="M0.000000 0.000000 L1.000000 0.000000 L1.000000 1.000000 L0.000000 1.000000  z" fill="none" stroke="rgb(128,128,128)" stroke-width="0.01" />
<line x1="0.885623" y1="-0.110162" x2="0.935623" y2="-0.110162" style="stroke:rgb(246,147,147);stroke-width:0.01" />
<line x1="0.835623" y1="-0.0601622" x2="0.885623" y2="-0.0601622" style="stroke:rgb(246,147,147);stroke-width:0.01" />
<line x1="0.785623" y1="-0.0101622" x2="0.835623" y2="-0.0101622" style="stroke:rgb(246,147,147);stroke-width:0.01" />
<line x1="-0.0143772" y1="0.789838" x2="-0.0143772" y2="0.839838" style="stroke:rgb(246,147,147);stroke-width:0.01" />
<line x1="0.0356228" y1="0.739838" x2="0.0356228" y2="0.789838" style="stroke:rgb(246,147,147);stroke-width:0.01" />
<line x1="0.0856228" y1="0.689838" x2="0.0856228" y2="0.739838" style="stroke:rgb(246,147,147);stroke-width:0.01" />
<line x1="0.135623" y1="0.639838" x2="0.135623" y2="0.689838" style="stroke:rgb(246,147,147);stroke-width:0.01" />
<line x1="0.185623" y1="0.589838" x2="0.185623" y2="0.639838" style="stroke:rgb(246,147,147);stroke-width:0.01" />
<line x1="0.235623" y1="0.539838" x2="0.235623" y2="0.589838" style="stroke:rgb(246,147,147);stroke-width:0.01" />
<line x1="0.285623" y1="0.489838" x2="0.285623" y2="0.539838" style="stroke:rgb(246,147,147);stroke-width:0.01" />
<line x1="0.335623" y1="0.439838" x2="0.335623" y2="0.489838" style="stroke:rgb(246,147,147);stroke-width:0.01" />
<line x1="0.385623" y1="0.389838" x2="0.385623" y2="0.439838" style="stroke:rgb(246,147,147);stroke-width:0.01" />
<line x1="0.435623" y1="0.339838" x2="0.435623" y2="0.389838" style="stroke:rgb(246,147,147);stroke-width:0.01" />
<line x1="0.485623" y1="0.289838" x2="0.485623" y2="0.339838" style="stroke:rgb(246,147,147);stroke-width:0.01" />
<line x1="0.535623" y1="0.239838" x2="0.535623" y2="0.289838" style="stroke:rgb(246,147,147);stroke-width:0.01" />
<line x1="0.585623" y1="0.189838" x2="0.585623" y2="0.239838" style="stroke:rgb(246,147,147);stroke-width:0.01" />
<line x1="0.635623" y1="0.139838" x2="0.635623" y2="0.189838" style="stroke:rgb(246,147,147);stroke-width:0.01" />
<line x1="0.685623" y1="0.0898378" x2="0.685623" y2="0.139838" style="stroke:rgb(246,147,147);stroke-width:0.01" />
<line x1="0.735623" y1="0.0398378" x2="0.735623" y2="0.0898378" style="stroke:rgb(246,147,147);stroke-width:0.01" />
<line x1="0.785623" y1="-0.0101622" x2="0.785623" y2="0.0398378" style="stroke:rgb(246,147,147);stroke-width:0.01" />
<line x1="0.835623" y1="-0.0601622" x2="0.835623" y2="-0.0101622" style="stroke:rgb(246,147,147);stroke-width:0.01" />
<line x1="0.885623" y1="-0.110162" x2="0.885623" y2="-0.0601622" style="stroke:rgb(246,147,147);stroke-width:0.01" />
<line x1="0.935623" y1="-0.160162" x2="0.935623" y2="-0.110162" style="stroke:rgb(246,147,147);stroke-width:0.01" />
<line x1="0.735623" y1="0.0398378" x2="0.785623" y2="0.0398378" style="stroke:rgb(246,147,147);stroke-width:0.01" />
<line x1="0.685623" y1="0.0898378" x2="0.735623" y2="0.0898378" style="stroke:rgb(246,147,147);stroke-width:0.01" />
<line x1="0.635623" y1="0.139838" x2="0.685623" y2="0.139838" style="stroke:rgb(246,147,147);stroke-width:0.01" />
<line x1="0.585623" y1="0.189838" x2="0.635623" y2="0.189838" style="stroke:rgb(246,147,147);stroke-width:0.01" />
<line x1="0.535623" y1="0.239838" x2="0.585623" y2="0.239838" style="stroke:rgb(246,147,147);stroke-width:0.01" />
<line x1="0.485623" y1="0.289838" x2="0.535623" y2="0.289838" style="stroke:rgb(246,147,147);stroke-width:0.01" />
<line x1="0.435623" y1="0.339838" x2="0.485623" y2="0.339838" style="stroke:rgb(246,147,147);stroke-width:0.01" />
<line x1="0.935623" y1="-0.160162" x2="-0.0643772" y2="0.839838" style="stroke:rgb(246,147,147);stroke-width:0.01" />
<line x1="0.385623" y1="0.389838" x2="0.435623" y2="0.389838" style="stroke:rgb(246,147,147);stroke-width:0.01" />
<line x1="0.935623" y1="-0.110162" x2="-0.0143772" y2="0.839838" style="stroke:rgb(246,147,147);stroke-width:0.01" />
<line x1="0.335623" y1="0.439838" x2="0.385623" y2="0.439838" style="stroke:rgb(246,147,147);stroke-width:0.01" />
<line x1="0.285623" y1="0.489838" x2="0.335623" y2="0.489838" style="stroke:rgb(246,147,147);stroke-width:0.01" />
<line x1="0.235623" y1="0.539838" x2="0.285623" y2="0.539838" style="stroke:rgb(246,147,147);stroke-width:0.01" />
<line x1="0.185623" y1="0.589838" x2="0.235623" y2="0.589838" style="stroke:rgb(246,147,147);stroke-width:0.01" />
<line x1="0.135623" y1="0.639838" x2="0.185623" y2="0.639838" style="stroke:rgb(246,147,147);stroke-width:0.01" />
<line x1="0.0856228" y1="0.689838" x2="0.135623" y2="0.689838" style="stroke:rgb(246,147,147);stroke-width:0.01" />
<line x1="0.0356228" y1="0.739838" x2="0.0856228" y2="0.739838" style="stroke:rgb(246,147,147);stroke-width:0.01" />
<line x1="-0.0143772" y1="0.789838" x2="0.0356228" y2="0.789838" style="stroke:rgb(246,147,147);stroke-width:0.01" />
<line x1="-0.0643772" y1="0.839838" x2="-0.0143772" y2="0.839838" style="stroke:rgb(246,147,147);stroke-width:0.01" />
</g>
</svg>
