<svg xmlns="http://www.w3.org/2000/svg" viewBox="-1.5 -1.5 3 3">
<g transform="scale(1, -1)">
<path d="M0.487500 -0.512500 L0.487500 -0.462500 L-0.462500 0.487500 L-0.512500 0.487500 z " fill="rgb(245,195,195)" />
<path d="M-1.397097 -0.223819 L-0.397097 -0.223819 L-0.397097 0.776181 L-1.397097 0.776181  z" fill="none" stroke="rgb(128,128,128)" stroke-width="0.01" />
<line x1="0.4375" y1="-0.4625" x2="0.4875" y2="-0.4625" style="stroke:rgb(246,147,147);stroke-width:0.01" />
<line x1="0.3875" y1="-0.4125" x2="0.4375" y2="-0.4125" style="stroke:rgb(246,147,147);stroke-width:0.01" />
<line x1="0.3375" y1="-0.3625" x2="0.3875" y2="-0.3625" style="stroke:rgb(246,147,147);stroke-width:0.01" />
<line x1="0.2875" y1="-0.3125" x2="0.3375" y2="-0.3125" style="stroke:rgb(246,147,147);stroke-width:0.01" />
<line x1="0.2375" y1="-0.2625" x2="0.2875" y2="-0.2625" style="stroke:rgb(246,147,147);stroke-width:0.01" />
<line x1="-0.4625" y1="0.4375" x2="-0.4625" y2="0.4875" style="stroke:rgb(246,147,147);stroke-width:0.01" />
<line x1="-0.4125" y1="0.3875" x2="-0.4125" y2="0.4375" style="stroke:rgb(246,147,147);stroke-width:0.01" />
<line x1="-0.3625" y1="0.3375" x2="-0.3625" y2="0.3875" style="stroke:rgb(246,147,147);stroke-width:0.01" />
<line x1="-0.3125" y1="0.2875" x2="-0.3125" y2="0.3375" style="stroke:rgb(246,147,147);stroke-width:0.01" />
<line x1="-0.2625" y1="0.2375" x2="-0.2625" y2="0.2875" style="stroke:rgb(246,147,147);stroke-width:0.01" />
<line x1="-0.2125" y1="0.1875" x2="-0.2125" y2="0.2375" style="stroke:rgb(246,147,147);stroke-width:0.01" />
<line x1="-0.1625" y1="0.1375" x2="-0.1625" y2="0.1875" style="stroke:rgb(246,147,147);stroke-width:0.01" />
<line x1="-0.1125" y1="0.0875" x2="-0.1125" y2="0.1375" style="stroke:rgb(246,147,147);stroke-width:0.01" />
<line x1="-0.0625" y1="0.0375" x2="-0.0625" y2="0.0875" style="stroke:rgb(246,147,147);stroke-width:0.01" />
<line x1="-0.0125" y1="-0.0125" x2="-0.0125" y2="0.0375" style="stroke:rgb(246,147,147);stroke-width:0.01" />
<line x1="0.0375" y1="-0.0625" x2="0.0375" y2="-0.0125" style="stroke:rgb(246,147,147);stroke-width:0.01" />
<line x1="0.0875" y1="-0.1125" x2="0.0875" y2="-0.0625" style="stroke:rgb(246,147,147);stroke-width:0.01" />
<line x1="0.1375" y1="-0.1625" x2="0.1375" y2="-0.1125" style="stroke:rgb(246,147,147);stroke-width:0.01" />
<line x1="0.1875" y1="-0.2125" x2="0.1875" y2="-0.1625" style="stroke:rgb(246,147,147);stroke-width:0.01" />
<line x1="0.2375" y1="-0.2625" x2="0.2375" y2="-0.2125" style="stroke:rgb(246,147,147);stroke-width:0.01" />
<line x1="0.2875" y1="-0.3125" x2="0.2875" y2="-0.2625" style="stroke:rgb(246,147,147);stroke-width:0.01" />
<line x1="0.3375" y1="-0.3625" x2="0.3375" y2="-0.3125" style="stroke:rgb(246,147,147);stroke-width:0.01" />
<line x1="0.3875" y1="-0.4125" x2="0.3875" y2="-0.3625" style="stroke:rgb(246,147,147);stroke-width:0.01" />
<line x1="0.4375" y1="-0.4625" x2="0.4375" y2="-0.4125" style="stroke:rgb(246,147,147);stroke-width:0.01" />
<line x1="0.4875" y1="-0.5125" x2="0.4875" y2="-0.4625" style="stroke:rgb(246,147,147);stroke-width:0.01" />
<line x1="0.1875" y1="-0.2125" x2="0.2375" y2="-0.2125" style="stroke:rgb(246,147,147);stroke-width:0.01" />
<line x1="0.1375" y1="-0.1625" x2="0.1875" y2="-0.1625" style="stroke:rgb(246,147,147);stroke-width:0.01" />
<line x1="0.0875" y1="-0.1125" x2="0.1375" y2="-0.1125" style="stroke:rgb(246,147,147);stroke-width:0.01" />
<line x1="0.0375" y1="-0.0625" x2="0.0875" y2="-0.0625" style="stroke:rgb(246,147,147);stroke-width:0.01" />
<line x1="-0.0125" y1="-0.0125" x2="0.0375" y2="-0.0125" style="stroke:rgb(246,147,147);stroke-width:0.01" />
<line x1="-0.0625" y1="0.0375" x2="-0.0125" y2="0.0375" style="stroke:rgb(246,147,147);stroke-width:0.01" />
<line x1="-0.1125" y1="0.0875" x2="-0.0625" y2="0.0875" style="stroke:rgb(246,147,147);stroke-width:0.01" />
<line x1="-0.1625" y1="0.1375" x2="-0.1125" y2="0.1375" style="stroke:rgb(246,147,147);stroke-width:0.01" />
<line x1="-0.2125" y1="0.1875" x2="-0.1625" y2="0.1875" style="stroke:rgb(246,147,147);stroke-width:0.01" />
<line x1="-0.2625" y1="0.2375" x2="-0.2125" y2="0.2375" style="stroke:rgb(246,147,147);stroke-width:0.01" />
<line x1="-0.3125" y1="0.2875" x2="-0.2625" y2="0.2875" style="stroke:rgb(246,147,147);stroke-width:0.01" />
<line x1="-0.3625" y1="0.3375" x2="-0.3125" y2="0.3375" style="stroke:rgb(246,147,147);stroke-width:0.01" />
<line x1="-0.4125" y1="0.3875" x2="-0.3625" y2="0.3875" style="stroke:rgb(246,147,147);stroke-width:0.01" />
<line x1="-0.4625" y1="0.4375" x2="-0.4125" y2="0.4375" style="stroke:rgb(246,147,147);stroke-width:0.01" />
<line x1="-0.5125" y1="0.4875" x2="-0.4625" y2="0.4875" style="stroke:rgb(246,147,147);stroke-width:0.01" />
<line x1="0.4875" y1="-0.5125" x2="-0.5125" y2="0.4875" style="stroke:rgb(246,147,147);stroke-width:0.01" />
<line x1="0.4875" y1="-0.4625" x2="-0.4625" y2="0.4875" style="stroke:rgb(246,147,147);stroke-width:0.01" />
</g>
</svg>
