<svg xmlns="http://www.w3.org/2000/svg" viewBox="-1.5 -1.5 3 3">
<g transform="scale(1, -1)">
<path d="M-0.110577 -0.182692 L0.076923 -0.182692 L0.201923 -0.057692 L0.201923 0.067308 L0.076923 0.192308 L-0.048077 0.192308 L-0.173077 0.067308 L-0.173077 -0.057692 L-0.110577 -0.057692 z M-0.048077 -0.057692 L-0.048077 0.067308 L0.076923 0.067308 L0.076923 -0.057692 z " fill="rgb(245,195,195)" />
<path d="M-0.173077 -0.182692 L0.826923 -0.182692 L0.826923 0.817308 L-0.173077 0.817308  z" fill="none" stroke="rgb(128,128,128)" stroke-width="0.01" />
<line x1="0.0769231" y1="-0.182692" x2="0.201923" y2="-0.0576923" style="stroke:rgb(246,147,147);stroke-width:0.01" />
<line x1="-0.110577" y1="-0.182692" x2="0.0769231" y2="-0.182692" style="stroke:rgb(246,147,147);stroke-width:0.01" />
<line x1="-0.173077" y1="-0.0576923" x2="-0.173077" y2="0.0673077" style="stroke:rgb(246,147,147);stroke-width:0.01" />
<line x1="-0.110577" y1="-0.182692" x2="-0.110577" y2="-0.0576923" style="stroke:rgb(246,147,147);stroke-width:0.01" />
<line x1="-0.0480769" y1="-0.0576923" x2="-0.0480769" y2="0.192308" style="stroke:rgb(246,147,147);stroke-width:0.01" />
<line x1="0.0769231" y1="-0.182692" x2="0.0769231" y2="0.192308" style="stroke:rgb(246,147,147);stroke-width:0.01" />
<line x1="0.201923" y1="-0.0576923" x2="0.201923" y2="0.0673077" style="stroke:rgb(246,147,147);stroke-width:0.01" />
<line x1="-0.173077" y1="0.0673077" x2="-0.0480769" y2="0.192308" style="stroke:rgb(246,147,147);stroke-width:0.01" />
<line x1="-0.173077" y1="-0.0576923" x2="0.201923" y2="-0.0576923" style="stroke:rgb(246,147,147);stroke-width:0.01" />
<line x1="-0.173077" y1="0.00480769" x2="-0.0480769" y2="0.00480769" style="stroke:rgb(246,147,147);stroke-width:0.01" />
<line x1="-0.173077" y1="0.0673077" x2="0.201923" y2="0.0673077" style="stroke:rgb(246,147,147);stroke-width:0.01" />
<line x1="0.201923" y1="0.0673077" x2="0.0769231" y2="0.192308" style="stroke:rgb(246,147,147);stroke-width:0.01" />
<line x1="-0.0480769" y1="0.192308" x2="0.0769231" y2="0.192308" style="stroke:rgb(246,147,147);stroke-width:0.01" />
</g>
</svg>
