<svg xmlns="http://www.w3.org/2000/svg" viewBox="-1.5 -1.5 3 3">
<g transform="scale(1, -1)">
<path d="M1.048913 0.869565 L1.070277 0.913388 L1.101911 0.910828 L1.105732 0.917483 L1.273764 0.904943 L1.349015 0.986374 L1.394366 0.985915 L1.414201 1.005917 L1.400000 1.020000 L1.343866 1.019198 L1.300000 1.066667 L1.033964 1.053024 L1.026667 1.075556 L0.000000 1.000000 z " fill="rgb(245,195,195)" />
<path d="M0.000000 0.000000 L1.000000 0.000000 L1.000000 1.000000 L0.000000 1.000000  z" fill="none" stroke="rgb(128,128,128)" stroke-width="0.01" />
<line x1="1.10191" y1="0.910828" x2="1.17877" y2="1.04469" style="stroke:rgb(246,147,147);stroke-width:0.01" />
<line x1="1.16495" y1="0.979381" x2="1.18349" y2="1.00917" style="stroke:rgb(246,147,147);stroke-width:0.01" />
<line x1="1.04891" y1="0.869565" x2="1.13115" y2="1.03825" style="stroke:rgb(246,147,147);stroke-width:0.01" />
<line x1="1.21739" y1="0.956522" x2="1.3" y2="1.06667" style="stroke:rgb(246,147,147);stroke-width:0.01" />
<line x1="1.05405" y1="0.990991" x2="1.0625" y2="1.01562" style="stroke:rgb(246,147,147);stroke-width:0.01" />
<line x1="1.27376" y1="0.904943" x2="1.37113" y2="1.01031" style="stroke:rgb(246,147,147);stroke-width:0.01" />
<line x1="1.37113" y1="0.989691" x2="1.4" y2="1.02" style="stroke:rgb(246,147,147);stroke-width:0.01" />
<line x1="1.39437" y1="0.985915" x2="1.4142" y2="1.00592" style="stroke:rgb(246,147,147);stroke-width:0.01" />
<line x1="1.01408" y1="0.985915" x2="1.01899" y2="1.01266" style="stroke:rgb(246,147,147);stroke-width:0.01" />
<line x1="1" y1="0.916667" x2="1.02667" y2="1.07556" style="stroke:rgb(246,147,147);stroke-width:0.01" />
<line x1="1" y1="0.96" x2="1.00617" y2="1.03704" style="stroke:rgb(246,147,147);stroke-width:0.01" />
<line x1="1" y1="0.916667" x2="1" y2="1" style="stroke:rgb(246,147,147);stroke-width:0.01" />
<line x1="1.01408" y1="0.985915" x2="1.00617" y2="1.03704" style="stroke:rgb(246,147,147);stroke-width:0.01" />
<line x1="1.04891" y1="0.869565" x2="1.01899" y2="1.01266" style="stroke:rgb(246,147,147);stroke-width:0.01" />
<line x1="1.05405" y1="0.990991" x2="1.02667" y2="1.07556" style="stroke:rgb(246,147,147);stroke-width:0.01" />
<line x1="1.10191" y1="0.910828" x2="1.0625" y2="1.01562" style="stroke:rgb(246,147,147);stroke-width:0.01" />
<line x1="1.16495" y1="0.979381" x2="1.13115" y2="1.03825" style="stroke:rgb(246,147,147);stroke-width:0.01" />
<line x1="1.21739" y1="0.956522" x2="1.18349" y2="1.00917" style="stroke:rgb(246,147,147);stroke-width:0.01" />
<line x1="1.27376" y1="0.904943" x2="1.17877" y2="1.04469" style="stroke:rgb(246,147,147);stroke-width:0.01" />
<line x1="1.04891" y1="0.869565" x2="0" y2="1" style="stroke:rgb(246,147,147);stroke-width:0.01" />
<line x1="1" y1="0.916667" x2="0" y2="1" style="stroke:rgb(246,147,147);stroke-width:0.01" />
<line x1="1.10191" y1="0.910828" x2="0" y2="1" style="stroke:rgb(246,147,147);stroke-width:0.01" />
<line x1="1.27376" y1="0.904943" x2="0" y2="1" style="stroke:rgb(246,147,147);stroke-width:0.01" />
<line x1="0" y1="1" x2="1.02667" y2="1.07556" style="stroke:rgb(246,147,147);stroke-width:0.01" />
<line x1="0" y1="1" x2="1.3" y2="1.06667" style="stroke:rgb(246,147,147);stroke-width:0.01" />
<line x1="1" y1="0.96" x2="0" y2="1" style="stroke:rgb(246,147,147);stroke-width:0.01" />
<line x1="0" y1="1" x2="1.17877" y2="1.04469" style="stroke:rgb(246,147,147);stroke-width:0.01" />
<line x1="0" y1="1" x2="1.00617" y2="1.03704" style="stroke:rgb(246,147,147);stroke-width:0.01" />
<line x1="1.21739" y1="0.956522" x2="0" y2="1" style="stroke:rgb(246,147,147);stroke-width:0.01" />
<line x1="0" y1="1" x2="1.13115" y2="1.03825" style="stroke:rgb(246,147,147);stroke-width:0.01" />
<line x1="1.16495" y1="0.979381" x2="0" y2="1" style="stroke:rgb(246,147,147);stroke-width:0.01" />
<line x1="0" y1="1" x2="1.0625" y2="1.01562" style="stroke:rgb(246,147,147);stroke-width:0.01" />
<line x1="0" y1="1" x2="1.4" y2="1.02" style="stroke:rgb(246,147,147);stroke-width:0.01" />
<line x1="1.01408" y1="0.985915" x2="0" y2="1" style="stroke:rgb(246,147,147);stroke-width:0.01" />
<line x1="0" y1="1" x2="1.01899" y2="1.01266" style="stroke:rgb(246,147,147);stroke-width:0.01" />
<line x1="1.39437" y1="0.985915" x2="0" y2="1" style="stroke:rgb(246,147,147);stroke-width:0.01" />
<line x1="1.05405" y1="0.990991" x2="0" y2="1" style="stroke:rgb(246,147,147);stroke-width:0.01" />
<line x1="0" y1="1" x2="1.18349" y2="1.00917" style="stroke:rgb(246,147,147);stroke-width:0.01" />
<line x1="0" y1="1" x2="1.37113" y2="1.01031" style="stroke:rgb(246,147,147);stroke-width:0.01" />
<line x1="1.37113" y1="0.989691" x2="0" y2="1" style="stroke:rgb(246,147,147);stroke-width:0.01" />
<line x1="0" y1="1" x2="1" y2="1" style="stroke:rgb(246,147,147);stroke-width:0.01" />
<line x1="1.37113" y1="0.989691" x2="1.3" y2="1.06667" style="stroke:rgb(246,147,147);stroke-width:0.01" />
<line x1="1.39437" y1="0.985915" x2="1.37113" y2="1.01031" style="stroke:rgb(246,147,147);stroke-width:0.01" />
<line x1="1.4142" y1="1.00592" x2="1.4" y2="1.02" style="stroke:rgb(246,147,147);stroke-width:0.01" />
</g>
</svg>
