<svg xmlns="http://www.w3.org/2000/svg" viewBox="-1.5 -1.5 3 3">
<g transform="scale(1, -1)">
<path d="M-0.125025 -0.118103 L-0.111274 -0.066286 L0.014510 -0.076040 L0.034317 -0.046000 L0.126943 -0.050660 L0.164372 -0.006001 L0.218924 -0.006776 L0.288090 0.068069 L0.253353 0.100170 L0.132320 0.092457 L0.128496 0.096839 L-1.125025 0.012332 z " fill="rgb(245,195,195)" />
<path d="M-1.125025 -0.987668 L-0.125025 -0.987668 L-0.125025 0.012332 L-1.125025 0.012332  z" fill="none" stroke="rgb(128,128,128)" stroke-width="0.01" />
<line x1="0.0488878" y1="0.00612061" x2="0.058461" y2="0.0215061" style="stroke:rgb(246,147,147);stroke-width:0.01" />
<line x1="-0.00257626" y1="-0.00807637" x2="0.0255124" y2="0.0445899" style="stroke:rgb(246,147,147);stroke-width:0.01" />
<line x1="0.0145096" y1="-0.0760403" x2="0.128496" y2="0.0968388" style="stroke:rgb(246,147,147);stroke-width:0.01" />
<line x1="-0.0662017" y1="-0.0464917" x2="-0.0341161" y2="0.0305136" style="stroke:rgb(246,147,147);stroke-width:0.01" />
<line x1="-0.074886" y1="-0.046164" x2="-0.034573" y2="0.0575579" style="stroke:rgb(246,147,147);stroke-width:0.01" />
<line x1="0.126943" y1="-0.0506603" x2="0.253353" y2="0.10017" style="stroke:rgb(246,147,147);stroke-width:0.01" />
<line x1="0.218924" y1="-0.00677649" x2="0.28809" y2="0.0680695" style="stroke:rgb(246,147,147);stroke-width:0.01" />
<line x1="-0.125025" y1="-0.118103" x2="-0.0870506" y2="0.02499" style="stroke:rgb(246,147,147);stroke-width:0.01" />
<line x1="-0.110137" y1="-0.0199263" x2="-0.0976696" y2="0.0396874" style="stroke:rgb(246,147,147);stroke-width:0.01" />
<line x1="-0.125025" y1="-0.0501682" x2="-0.116057" y2="0.0213004" style="stroke:rgb(246,147,147);stroke-width:0.01" />
<line x1="-0.125025" y1="-0.118103" x2="-0.125025" y2="0.0123318" style="stroke:rgb(246,147,147);stroke-width:0.01" />
<line x1="-0.110137" y1="-0.0199263" x2="-0.116057" y2="0.0213004" style="stroke:rgb(246,147,147);stroke-width:0.01" />
<line x1="-0.074886" y1="-0.046164" x2="-0.0976696" y2="0.0396874" style="stroke:rgb(246,147,147);stroke-width:0.01" />
<line x1="-0.0662017" y1="-0.0464917" x2="-0.0870506" y2="0.02499" style="stroke:rgb(246,147,147);stroke-width:0.01" />
<line x1="0.0145096" y1="-0.0760403" x2="-0.0341161" y2="0.0305136" style="stroke:rgb(246,147,147);stroke-width:0.01" />
<line x1="-0.00257626" y1="-0.00807637" x2="-0.034573" y2="0.0575579" style="stroke:rgb(246,147,147);stroke-width:0.01" />
<line x1="0.0488878" y1="0.00612061" x2="0.0255124" y2="0.0445899" style="stroke:rgb(246,147,147);stroke-width:0.01" />
<line x1="0.0685231" y1="0.00588018" x2="0.058461" y2="0.0215061" style="stroke:rgb(246,147,147);stroke-width:0.01" />
<line x1="0.126943" y1="-0.0506603" x2="0.0783646" y2="0.0208064" style="stroke:rgb(246,147,147);stroke-width:0.01" />
<line x1="-0.125025" y1="-0.118103" x2="-1.12503" y2="0.0123318" style="stroke:rgb(246,147,147);stroke-width:0.01" />
<line x1="0.0145096" y1="-0.0760403" x2="-1.12503" y2="0.0123318" style="stroke:rgb(246,147,147);stroke-width:0.01" />
<line x1="-1.12503" y1="0.0123318" x2="0.128496" y2="0.0968388" style="stroke:rgb(246,147,147);stroke-width:0.01" />
<line x1="-1.12503" y1="0.0123318" x2="0.253353" y2="0.10017" style="stroke:rgb(246,147,147);stroke-width:0.01" />
<line x1="-0.125025" y1="-0.0501682" x2="-1.12503" y2="0.0123318" style="stroke:rgb(246,147,147);stroke-width:0.01" />
<line x1="-0.074886" y1="-0.046164" x2="-1.12503" y2="0.0123318" style="stroke:rgb(246,147,147);stroke-width:0.01" />
<line x1="-0.0662017" y1="-0.0464917" x2="-1.12503" y2="0.0123318" style="stroke:rgb(246,147,147);stroke-width:0.01" />
<line x1="0.126943" y1="-0.0506603" x2="-1.12503" y2="0.0123318" style="stroke:rgb(246,147,147);stroke-width:0.01" />
<line x1="-1.12503" y1="0.0123318" x2="-0.034573" y2="0.0575579" style="stroke:rgb(246,147,147);stroke-width:0.01" />
<line x1="-0.110137" y1="-0.0199263" x2="-1.12503" y2="0.0123318" style="stroke:rgb(246,147,147);stroke-width:0.01" />
<line x1="-1.12503" y1="0.0123318" x2="0.0255124" y2="0.0445899" style="stroke:rgb(246,147,147);stroke-width:0.01" />
<line x1="-1.12503" y1="0.0123318" x2="-0.0976696" y2="0.0396874" style="stroke:rgb(246,147,147);stroke-width:0.01" />
<line x1="-0.00257626" y1="-0.00807637" x2="-1.12503" y2="0.0123318" style="stroke:rgb(246,147,147);stroke-width:0.01" />
<line x1="-1.12503" y1="0.0123318" x2="-0.0341161" y2="0.0305136" style="stroke:rgb(246,147,147);stroke-width:0.01" />
<line x1="0.218924" y1="-0.00677649" x2="-1.12503" y2="0.0123318" style="stroke:rgb(246,147,147);stroke-width:0.01" />
<line x1="-1.12503" y1="0.0123318" x2="-0.0870506" y2="0.02499" style="stroke:rgb(246,147,147);stroke-width:0.01" />
<line x1="-1.12503" y1="0.0123318" x2="-0.116057" y2="0.0213004" style="stroke:rgb(246,147,147);stroke-width:0.01" />
<line x1="-1.12503" y1="0.0123318" x2="0.058461" y2="0.0215061" style="stroke:rgb(246,147,147);stroke-width:0.01" />
<line x1="-1.12503" y1="0.0123318" x2="0.0783646" y2="0.0208064" style="stroke:rgb(246,147,147);stroke-width:0.01" />
<line x1="0.0685231" y1="0.00588018" x2="-1.12503" y2="0.0123318" style="stroke:rgb(246,147,147);stroke-width:0.01" />
<line x1="0.0488878" y1="0.00612061" x2="-1.12503" y2="0.0123318" style="stroke:rgb(246,147,147);stroke-width:0.01" />
<line x1="-1.12503" y1="0.0123318" x2="-0.125025" y2="0.0123318" style="stroke:rgb(246,147,147);stroke-width:0.01" />
<line x1="0.218924" y1="-0.00677649" x2="0.128496" y2="0.0968388" style="stroke:rgb(246,147,147);stroke-width:0.01" />
<line x1="0.28809" y1="0.0680695" x2="0.253353" y2="0.10017" style="stroke:rgb(246,147,147);stroke-width:0.01" />
</g>
</svg>
