<svg xmlns="http://www.w3.org/2000/svg" viewBox="-1.5 -1.5 3 3">
<g transform="scale(1, -1)">
<path d="M1.000000 0.869565 L1.013752 0.921383 L1.139535 0.911628 L1.159342 0.941668 L1.251969 0.937008 L1.289397 0.981667 L1.343949 0.980892 L1.413115 1.055738 L1.378378 1.087838 L1.257345 1.080125 L1.253521 1.084507 L0.000000 1.000000 z " fill="rgb(245,195,195)" />
<path d="M0.000000 0.000000 L1.000000 0.000000 L1.000000 1.000000 L0.000000 1.000000  z" fill="none" stroke="rgb(128,128,128)" stroke-width="0.01" />
<line x1="1.17391" y1="0.993789" x2="1.18349" y2="1.00917" style="stroke:rgb(246,147,147);stroke-width:0.01" />
<line x1="1.12245" y1="0.979592" x2="1.15054" y2="1.03226" style="stroke:rgb(246,147,147);stroke-width:0.01" />
<line x1="1.13953" y1="0.911628" x2="1.25352" y2="1.08451" style="stroke:rgb(246,147,147);stroke-width:0.01" />
<line x1="1.05882" y1="0.941176" x2="1.09091" y2="1.01818" style="stroke:rgb(246,147,147);stroke-width:0.01" />
<line x1="1.05014" y1="0.941504" x2="1.09045" y2="1.04523" style="stroke:rgb(246,147,147);stroke-width:0.01" />
<line x1="1.25197" y1="0.937008" x2="1.37838" y2="1.08784" style="stroke:rgb(246,147,147);stroke-width:0.01" />
<line x1="1.34395" y1="0.980892" x2="1.41311" y2="1.05574" style="stroke:rgb(246,147,147);stroke-width:0.01" />
<line x1="1" y1="0.869565" x2="1.03797" y2="1.01266" style="stroke:rgb(246,147,147);stroke-width:0.01" />
<line x1="1.01489" y1="0.967742" x2="1.02736" y2="1.02736" style="stroke:rgb(246,147,147);stroke-width:0.01" />
<line x1="1" y1="0.9375" x2="1.00897" y2="1.00897" style="stroke:rgb(246,147,147);stroke-width:0.01" />
<line x1="1" y1="0.869565" x2="1" y2="1" style="stroke:rgb(246,147,147);stroke-width:0.01" />
<line x1="1.01489" y1="0.967742" x2="1.00897" y2="1.00897" style="stroke:rgb(246,147,147);stroke-width:0.01" />
<line x1="1.05014" y1="0.941504" x2="1.02736" y2="1.02736" style="stroke:rgb(246,147,147);stroke-width:0.01" />
<line x1="1.05882" y1="0.941176" x2="1.03797" y2="1.01266" style="stroke:rgb(246,147,147);stroke-width:0.01" />
<line x1="1.13953" y1="0.911628" x2="1.09091" y2="1.01818" style="stroke:rgb(246,147,147);stroke-width:0.01" />
<line x1="1.12245" y1="0.979592" x2="1.09045" y2="1.04523" style="stroke:rgb(246,147,147);stroke-width:0.01" />
<line x1="1.17391" y1="0.993789" x2="1.15054" y2="1.03226" style="stroke:rgb(246,147,147);stroke-width:0.01" />
<line x1="1.19355" y1="0.993548" x2="1.18349" y2="1.00917" style="stroke:rgb(246,147,147);stroke-width:0.01" />
<line x1="1.25197" y1="0.937008" x2="1.20339" y2="1.00847" style="stroke:rgb(246,147,147);stroke-width:0.01" />
<line x1="1" y1="0.869565" x2="0" y2="1" style="stroke:rgb(246,147,147);stroke-width:0.01" />
<line x1="1.13953" y1="0.911628" x2="0" y2="1" style="stroke:rgb(246,147,147);stroke-width:0.01" />
<line x1="0" y1="1" x2="1.25352" y2="1.08451" style="stroke:rgb(246,147,147);stroke-width:0.01" />
<line x1="0" y1="1" x2="1.37838" y2="1.08784" style="stroke:rgb(246,147,147);stroke-width:0.01" />
<line x1="1" y1="0.9375" x2="0" y2="1" style="stroke:rgb(246,147,147);stroke-width:0.01" />
<line x1="1.05014" y1="0.941504" x2="0" y2="1" style="stroke:rgb(246,147,147);stroke-width:0.01" />
<line x1="1.05882" y1="0.941176" x2="0" y2="1" style="stroke:rgb(246,147,147);stroke-width:0.01" />
<line x1="1.25197" y1="0.937008" x2="0" y2="1" style="stroke:rgb(246,147,147);stroke-width:0.01" />
<line x1="0" y1="1" x2="1.09045" y2="1.04523" style="stroke:rgb(246,147,147);stroke-width:0.01" />
<line x1="1.01489" y1="0.967742" x2="0" y2="1" style="stroke:rgb(246,147,147);stroke-width:0.01" />
<line x1="0" y1="1" x2="1.15054" y2="1.03226" style="stroke:rgb(246,147,147);stroke-width:0.01" />
<line x1="0" y1="1" x2="1.02736" y2="1.02736" style="stroke:rgb(246,147,147);stroke-width:0.01" />
<line x1="1.12245" y1="0.979592" x2="0" y2="1" style="stroke:rgb(246,147,147);stroke-width:0.01" />
<line x1="0" y1="1" x2="1.09091" y2="1.01818" style="stroke:rgb(246,147,147);stroke-width:0.01" />
<line x1="1.34395" y1="0.980892" x2="0" y2="1" style="stroke:rgb(246,147,147);stroke-width:0.01" />
<line x1="0" y1="1" x2="1.03797" y2="1.01266" style="stroke:rgb(246,147,147);stroke-width:0.01" />
<line x1="0" y1="1" x2="1.00897" y2="1.00897" style="stroke:rgb(246,147,147);stroke-width:0.01" />
<line x1="0" y1="1" x2="1.18349" y2="1.00917" style="stroke:rgb(246,147,147);stroke-width:0.01" />
<line x1="0" y1="1" x2="1.20339" y2="1.00847" style="stroke:rgb(246,147,147);stroke-width:0.01" />
<line x1="1.19355" y1="0.993548" x2="0" y2="1" style="stroke:rgb(246,147,147);stroke-width:0.01" />
<line x1="1.17391" y1="0.993789" x2="0" y2="1" style="stroke:rgb(246,147,147);stroke-width:0.01" />
<line x1="0" y1="1" x2="1" y2="1" style="stroke:rgb(246,147,147);stroke-width:0.01" />
<line x1="1.34395" y1="0.980892" x2="1.25352" y2="1.08451" style="stroke:rgb(246,147,147);stroke-width:0.01" />
<line x1="1.41311" y1="1.05574" x2="1.37838" y2="1.08784" style="stroke:rgb(246,147,147);stroke-width:0.01" />
</g>
</svg>
