<svg xmlns="http://www.w3.org/2000/svg" viewBox="-1.5 -1.5 3 3">
<g transform="scale(1, -1)">
<path d="M1.041237 0.865979 L1.069414 0.926247 L1.318182 0.909091 L1.414201 1.005917 L1.322581 1.096774 L1.016016 1.074343 L1.012780 1.086262 L0.000000 1.000000 z " fill="rgb(245,195,195)" />
<path d="M0.000000 0.000000 L1.000000 0.000000 L1.000000 1.000000 L0.000000 1.000000  z" fill="none" stroke="rgb(128,128,128)" stroke-width="0.01" />
<line x1="1.12931" y1="0.965517" x2="1.19231" y2="1.07692" style="stroke:rgb(246,147,147);stroke-width:0.01" />
<line x1="1.1626" y1="0.97561" x2="1.1875" y2="1.01562" style="stroke:rgb(246,147,147);stroke-width:0.01" />
<line x1="1.04124" y1="0.865979" x2="1.10811" y2="1.00901" style="stroke:rgb(246,147,147);stroke-width:0.01" />
<line x1="1.09091" y1="0.981818" x2="1.12136" y2="1.04854" style="stroke:rgb(246,147,147);stroke-width:0.01" />
<line x1="1.22222" y1="0.962963" x2="1.32258" y2="1.09677" style="stroke:rgb(246,147,147);stroke-width:0.01" />
<line x1="1.31818" y1="0.909091" x2="1.4142" y2="1.00592" style="stroke:rgb(246,147,147);stroke-width:0.01" />
<line x1="1.03883" y1="0.990291" x2="1.05882" y2="1.05882" style="stroke:rgb(246,147,147);stroke-width:0.01" />
<line x1="1.00437" y1="0.978166" x2="1.01075" y2="1.03226" style="stroke:rgb(246,147,147);stroke-width:0.01" />
<line x1="1.00415" y1="0.995851" x2="1.01278" y2="1.08626" style="stroke:rgb(246,147,147);stroke-width:0.01" />
<line x1="1" y1="0.965517" x2="1.00256" y2="1.00256" style="stroke:rgb(246,147,147);stroke-width:0.01" />
<line x1="1" y1="0.967742" x2="1.00281" y2="1.01124" style="stroke:rgb(246,147,147);stroke-width:0.01" />
<line x1="1" y1="0.965517" x2="1" y2="1" style="stroke:rgb(246,147,147);stroke-width:0.01" />
<line x1="1.00437" y1="0.978166" x2="1.00256" y2="1.00256" style="stroke:rgb(246,147,147);stroke-width:0.01" />
<line x1="1.00415" y1="0.995851" x2="1.00281" y2="1.01124" style="stroke:rgb(246,147,147);stroke-width:0.01" />
<line x1="1.04124" y1="0.865979" x2="1.01075" y2="1.03226" style="stroke:rgb(246,147,147);stroke-width:0.01" />
<line x1="1.03883" y1="0.990291" x2="1.01278" y2="1.08626" style="stroke:rgb(246,147,147);stroke-width:0.01" />
<line x1="1.09091" y1="0.981818" x2="1.05882" y2="1.05882" style="stroke:rgb(246,147,147);stroke-width:0.01" />
<line x1="1.12931" y1="0.965517" x2="1.10811" y2="1.00901" style="stroke:rgb(246,147,147);stroke-width:0.01" />
<line x1="1.1626" y1="0.97561" x2="1.12136" y2="1.04854" style="stroke:rgb(246,147,147);stroke-width:0.01" />
<line x1="1.22222" y1="0.962963" x2="1.1875" y2="1.01562" style="stroke:rgb(246,147,147);stroke-width:0.01" />
<line x1="1.31818" y1="0.909091" x2="1.19231" y2="1.07692" style="stroke:rgb(246,147,147);stroke-width:0.01" />
<line x1="1.04124" y1="0.865979" x2="0" y2="1" style="stroke:rgb(246,147,147);stroke-width:0.01" />
<line x1="0" y1="1" x2="1.01278" y2="1.08626" style="stroke:rgb(246,147,147);stroke-width:0.01" />
<line x1="0" y1="1" x2="1.32258" y2="1.09677" style="stroke:rgb(246,147,147);stroke-width:0.01" />
<line x1="1.31818" y1="0.909091" x2="0" y2="1" style="stroke:rgb(246,147,147);stroke-width:0.01" />
<line x1="0" y1="1" x2="1.19231" y2="1.07692" style="stroke:rgb(246,147,147);stroke-width:0.01" />
<line x1="0" y1="1" x2="1.05882" y2="1.05882" style="stroke:rgb(246,147,147);stroke-width:0.01" />
<line x1="0" y1="1" x2="1.12136" y2="1.04854" style="stroke:rgb(246,147,147);stroke-width:0.01" />
<line x1="1" y1="0.965517" x2="0" y2="1" style="stroke:rgb(246,147,147);stroke-width:0.01" />
<line x1="1" y1="0.967742" x2="0" y2="1" style="stroke:rgb(246,147,147);stroke-width:0.01" />
<line x1="0" y1="1" x2="1.01075" y2="1.03226" style="stroke:rgb(246,147,147);stroke-width:0.01" />
<line x1="1.12931" y1="0.965517" x2="0" y2="1" style="stroke:rgb(246,147,147);stroke-width:0.01" />
<line x1="1.22222" y1="0.962963" x2="0" y2="1" style="stroke:rgb(246,147,147);stroke-width:0.01" />
<line x1="1.00437" y1="0.978166" x2="0" y2="1" style="stroke:rgb(246,147,147);stroke-width:0.01" />
<line x1="1.1626" y1="0.97561" x2="0" y2="1" style="stroke:rgb(246,147,147);stroke-width:0.01" />
<line x1="1.09091" y1="0.981818" x2="0" y2="1" style="stroke:rgb(246,147,147);stroke-width:0.01" />
<line x1="0" y1="1" x2="1.1875" y2="1.01562" style="stroke:rgb(246,147,147);stroke-width:0.01" />
<line x1="0" y1="1" x2="1.00281" y2="1.01124" style="stroke:rgb(246,147,147);stroke-width:0.01" />
<line x1="1.03883" y1="0.990291" x2="0" y2="1" style="stroke:rgb(246,147,147);stroke-width:0.01" />
<line x1="0" y1="1" x2="1.10811" y2="1.00901" style="stroke:rgb(246,147,147);stroke-width:0.01" />
<line x1="1.00415" y1="0.995851" x2="0" y2="1" style="stroke:rgb(246,147,147);stroke-width:0.01" />
<line x1="0" y1="1" x2="1.00256" y2="1.00256" style="stroke:rgb(246,147,147);stroke-width:0.01" />
<line x1="0" y1="1" x2="1" y2="1" style="stroke:rgb(246,147,147);stroke-width:0.01" />
<line x1="1.4142" y1="1.00592" x2="1.32258" y2="1.09677" style="stroke:rgb(246,147,147);stroke-width:0.01" />
</g>
</svg>
