<svg xmlns="http://www.w3.org/2000/svg" viewBox="-1.5 -1.5 3 3">
<g transform="scale(1, -1)">
<path d="M1.028169 0.915493 L1.031641 0.925618 L1.103806 0.920415 L1.113819 0.938121 L1.200000 0.933333 L1.224719 0.966292 L1.345679 0.962963 L1.413793 1.034483 L1.299609 1.031698 L1.285714 1.047619 L1.174974 1.043518 L1.174129 1.044776 L1.036033 1.039510 L1.016327 1.102041 L0.000000 1.000000 z " fill="rgb(245,195,195)" />
<path d="M0.000000 0.000000 L1.000000 0.000000 L1.000000 1.000000 L0.000000 1.000000  z" fill="none" stroke="rgb(128,128,128)" stroke-width="0.01" />
<line x1="1.10381" y1="0.920415" x2="1.17413" y2="1.04478" style="stroke:rgb(246,147,147);stroke-width:0.01" />
<line x1="1.2" y1="0.933333" x2="1.28571" y2="1.04762" style="stroke:rgb(246,147,147);stroke-width:0.01" />
<line x1="1.07317" y1="0.97561" x2="1.08955" y2="1.01493" style="stroke:rgb(246,147,147);stroke-width:0.01" />
<line x1="1.05581" y1="0.976744" x2="1.06844" y2="1.01141" style="stroke:rgb(246,147,147);stroke-width:0.01" />
<line x1="1.02817" y1="0.915493" x2="1.06061" y2="1.0101" style="stroke:rgb(246,147,147);stroke-width:0.01" />
<line x1="1.34568" y1="0.962963" x2="1.41379" y2="1.03448" style="stroke:rgb(246,147,147);stroke-width:0.01" />
<line x1="1" y1="0.947368" x2="1.01633" y2="1.10204" style="stroke:rgb(246,147,147);stroke-width:0.01" />
<line x1="1" y1="0.962963" x2="1.00619" y2="1.04644" style="stroke:rgb(246,147,147);stroke-width:0.01" />
<line x1="1" y1="0.947368" x2="1" y2="1" style="stroke:rgb(246,147,147);stroke-width:0.01" />
<line x1="1.02817" y1="0.915493" x2="1.00619" y2="1.04644" style="stroke:rgb(246,147,147);stroke-width:0.01" />
<line x1="1.05581" y1="0.976744" x2="1.01633" y2="1.10204" style="stroke:rgb(246,147,147);stroke-width:0.01" />
<line x1="1.07317" y1="0.97561" x2="1.06061" y2="1.0101" style="stroke:rgb(246,147,147);stroke-width:0.01" />
<line x1="1.10381" y1="0.920415" x2="1.06844" y2="1.01141" style="stroke:rgb(246,147,147);stroke-width:0.01" />
<line x1="1.11952" y1="0.948207" x2="1.08955" y2="1.01493" style="stroke:rgb(246,147,147);stroke-width:0.01" />
<line x1="1.2" y1="0.933333" x2="1.15464" y2="1.01031" style="stroke:rgb(246,147,147);stroke-width:0.01" />
<line x1="1.22581" y1="0.967742" x2="1.17413" y2="1.04478" style="stroke:rgb(246,147,147);stroke-width:0.01" />
<line x1="0" y1="1" x2="1.01633" y2="1.10204" style="stroke:rgb(246,147,147);stroke-width:0.01" />
<line x1="1.02817" y1="0.915493" x2="0" y2="1" style="stroke:rgb(246,147,147);stroke-width:0.01" />
<line x1="1.10381" y1="0.920415" x2="0" y2="1" style="stroke:rgb(246,147,147);stroke-width:0.01" />
<line x1="1.2" y1="0.933333" x2="0" y2="1" style="stroke:rgb(246,147,147);stroke-width:0.01" />
<line x1="1" y1="0.947368" x2="0" y2="1" style="stroke:rgb(246,147,147);stroke-width:0.01" />
<line x1="1.11952" y1="0.948207" x2="0" y2="1" style="stroke:rgb(246,147,147);stroke-width:0.01" />
<line x1="0" y1="1" x2="1.00619" y2="1.04644" style="stroke:rgb(246,147,147);stroke-width:0.01" />
<line x1="0" y1="1" x2="1.17413" y2="1.04478" style="stroke:rgb(246,147,147);stroke-width:0.01" />
<line x1="0" y1="1" x2="1.28571" y2="1.04762" style="stroke:rgb(246,147,147);stroke-width:0.01" />
<line x1="1" y1="0.962963" x2="0" y2="1" style="stroke:rgb(246,147,147);stroke-width:0.01" />
<line x1="0" y1="1" x2="1.28" y2="1.04" style="stroke:rgb(246,147,147);stroke-width:0.01" />
<line x1="1.34568" y1="0.962963" x2="0" y2="1" style="stroke:rgb(246,147,147);stroke-width:0.01" />
<line x1="1.22581" y1="0.967742" x2="0" y2="1" style="stroke:rgb(246,147,147);stroke-width:0.01" />
<line x1="0" y1="1" x2="1.41379" y2="1.03448" style="stroke:rgb(246,147,147);stroke-width:0.01" />
<line x1="1.07317" y1="0.97561" x2="0" y2="1" style="stroke:rgb(246,147,147);stroke-width:0.01" />
<line x1="1.05581" y1="0.976744" x2="0" y2="1" style="stroke:rgb(246,147,147);stroke-width:0.01" />
<line x1="1.35294" y1="0.970588" x2="0" y2="1" style="stroke:rgb(246,147,147);stroke-width:0.01" />
<line x1="0" y1="1" x2="1.08955" y2="1.01493" style="stroke:rgb(246,147,147);stroke-width:0.01" />
<line x1="0" y1="1" x2="1.06844" y2="1.01141" style="stroke:rgb(246,147,147);stroke-width:0.01" />
<line x1="0" y1="1" x2="1.06061" y2="1.0101" style="stroke:rgb(246,147,147);stroke-width:0.01" />
<line x1="0" y1="1" x2="1.15464" y2="1.01031" style="stroke:rgb(246,147,147);stroke-width:0.01" />
<line x1="0" y1="1" x2="1" y2="1" style="stroke:rgb(246,147,147);stroke-width:0.01" />
<line x1="1.34568" y1="0.962963" x2="1.28" y2="1.04" style="stroke:rgb(246,147,147);stroke-width:0.01" />
<line x1="1.35294" y1="0.970588" x2="1.28571" y2="1.04762" style="stroke:rgb(246,147,147);stroke-width:0.01" />
</g>
</svg>
