<svg xmlns="http://www.w3.org/2000/svg" viewBox="-1.5 -1.5 3 3">
<g transform="scale(1, -1)">
<path d="M-0.068392 -0.078232 L-0.064920 -0.068107 L0.007245 -0.073310 L0.017258 -0.055604 L0.103439 -0.060392 L0.128158 -0.027433 L0.249118 -0.030762 L0.317232 0.040757 L0.203048 0.037972 L0.189153 0.053894 L0.078413 0.049792 L0.077569 0.051051 L-0.060528 0.045784 L-0.080234 0.108315 L-1.096561 0.006275 z " fill="rgb(245,195,195)" />
<path d="M-1.096561 -0.993725 L-0.096561 -0.993725 L-0.096561 0.006275 L-1.096561 0.006275  z" fill="none" stroke="rgb(128,128,128)" stroke-width="0.01" />
<line x1="0.00724544" y1="-0.0733101" x2="0.0775686" y2="0.0510508" style="stroke:rgb(246,147,147);stroke-width:0.01" />
<line x1="0.103439" y1="-0.060392" x2="0.189153" y2="0.0538937" style="stroke:rgb(246,147,147);stroke-width:0.01" />
<line x1="-0.0233901" y1="-0.0181156" x2="-0.00700855" y2="0.0212" style="stroke:rgb(246,147,147);stroke-width:0.01" />
<line x1="-0.0407468" y1="-0.0169811" x2="-0.0281197" y2="0.0176815" style="stroke:rgb(246,147,147);stroke-width:0.01" />
<line x1="-0.0683918" y1="-0.0782324" x2="-0.0359547" y2="0.0163757" style="stroke:rgb(246,147,147);stroke-width:0.01" />
<line x1="0.249118" y1="-0.0307624" x2="0.317232" y2="0.0407574" style="stroke:rgb(246,147,147);stroke-width:0.01" />
<line x1="-0.0965608" y1="-0.0463569" x2="-0.0802343" y2="0.108315" style="stroke:rgb(246,147,147);stroke-width:0.01" />
<line x1="-0.0965608" y1="-0.0307624" x2="-0.0903688" y2="0.0527143" style="stroke:rgb(246,147,147);stroke-width:0.01" />
<line x1="-0.0965608" y1="-0.0463569" x2="-0.0965608" y2="0.00627467" style="stroke:rgb(246,147,147);stroke-width:0.01" />
<line x1="-0.0683918" y1="-0.0782324" x2="-0.0903688" y2="0.0527143" style="stroke:rgb(246,147,147);stroke-width:0.01" />
<line x1="-0.0407468" y1="-0.0169811" x2="-0.0802343" y2="0.108315" style="stroke:rgb(246,147,147);stroke-width:0.01" />
<line x1="-0.0233901" y1="-0.0181156" x2="-0.0359547" y2="0.0163757" style="stroke:rgb(246,147,147);stroke-width:0.01" />
<line x1="0.00724544" y1="-0.0733101" x2="-0.0281197" y2="0.0176815" style="stroke:rgb(246,147,147);stroke-width:0.01" />
<line x1="0.0229611" y1="-0.0455182" x2="-0.00700855" y2="0.0212" style="stroke:rgb(246,147,147);stroke-width:0.01" />
<line x1="0.103439" y1="-0.060392" x2="0.0580784" y2="0.0165839" style="stroke:rgb(246,147,147);stroke-width:0.01" />
<line x1="0.129246" y1="-0.0259834" x2="0.0775686" y2="0.0510508" style="stroke:rgb(246,147,147);stroke-width:0.01" />
<line x1="-1.09656" y1="0.00627467" x2="-0.0802343" y2="0.108315" style="stroke:rgb(246,147,147);stroke-width:0.01" />
<line x1="-0.0683918" y1="-0.0782324" x2="-1.09656" y2="0.00627467" style="stroke:rgb(246,147,147);stroke-width:0.01" />
<line x1="0.00724544" y1="-0.0733101" x2="-1.09656" y2="0.00627467" style="stroke:rgb(246,147,147);stroke-width:0.01" />
<line x1="0.103439" y1="-0.060392" x2="-1.09656" y2="0.00627467" style="stroke:rgb(246,147,147);stroke-width:0.01" />
<line x1="-0.0965608" y1="-0.0463569" x2="-1.09656" y2="0.00627467" style="stroke:rgb(246,147,147);stroke-width:0.01" />
<line x1="0.0229611" y1="-0.0455182" x2="-1.09656" y2="0.00627467" style="stroke:rgb(246,147,147);stroke-width:0.01" />
<line x1="-1.09656" y1="0.00627467" x2="-0.0903688" y2="0.0527143" style="stroke:rgb(246,147,147);stroke-width:0.01" />
<line x1="-1.09656" y1="0.00627467" x2="0.0775686" y2="0.0510508" style="stroke:rgb(246,147,147);stroke-width:0.01" />
<line x1="-1.09656" y1="0.00627467" x2="0.189153" y2="0.0538937" style="stroke:rgb(246,147,147);stroke-width:0.01" />
<line x1="-0.0965608" y1="-0.0307624" x2="-1.09656" y2="0.00627467" style="stroke:rgb(246,147,147);stroke-width:0.01" />
<line x1="-1.09656" y1="0.00627467" x2="0.183439" y2="0.0462747" style="stroke:rgb(246,147,147);stroke-width:0.01" />
<line x1="0.249118" y1="-0.0307624" x2="-1.09656" y2="0.00627467" style="stroke:rgb(246,147,147);stroke-width:0.01" />
<line x1="0.129246" y1="-0.0259834" x2="-1.09656" y2="0.00627467" style="stroke:rgb(246,147,147);stroke-width:0.01" />
<line x1="-1.09656" y1="0.00627467" x2="0.317232" y2="0.0407574" style="stroke:rgb(246,147,147);stroke-width:0.01" />
<line x1="-0.0233901" y1="-0.0181156" x2="-1.09656" y2="0.00627467" style="stroke:rgb(246,147,147);stroke-width:0.01" />
<line x1="-0.0407468" y1="-0.0169811" x2="-1.09656" y2="0.00627467" style="stroke:rgb(246,147,147);stroke-width:0.01" />
<line x1="0.25638" y1="-0.0231371" x2="-1.09656" y2="0.00627467" style="stroke:rgb(246,147,147);stroke-width:0.01" />
<line x1="-1.09656" y1="0.00627467" x2="-0.00700855" y2="0.0212" style="stroke:rgb(246,147,147);stroke-width:0.01" />
<line x1="-1.09656" y1="0.00627467" x2="-0.0281197" y2="0.0176815" style="stroke:rgb(246,147,147);stroke-width:0.01" />
<line x1="-1.09656" y1="0.00627467" x2="-0.0359547" y2="0.0163757" style="stroke:rgb(246,147,147);stroke-width:0.01" />
<line x1="-1.09656" y1="0.00627467" x2="0.0580784" y2="0.0165839" style="stroke:rgb(246,147,147);stroke-width:0.01" />
<line x1="-1.09656" y1="0.00627467" x2="-0.0965608" y2="0.00627467" style="stroke:rgb(246,147,147);stroke-width:0.01" />
<line x1="0.249118" y1="-0.0307624" x2="0.183439" y2="0.0462747" style="stroke:rgb(246,147,147);stroke-width:0.01" />
<line x1="0.25638" y1="-0.0231371" x2="0.189153" y2="0.0538937" style="stroke:rgb(246,147,147);stroke-width:0.01" />
</g>
</svg>
