<svg xmlns="http://www.w3.org/2000/svg" viewBox="-1.5 -1.5 3 3">
<g transform="scale(1, -1)">
<path d="M0.012583 -0.136243 L0.034798 -0.101745 L0.053800 -0.104032 L0.121628 -0.006105 L0.210950 -0.008896 L0.340706 0.143299 L0.294586 0.182619 L-1.069050 0.031104 z " fill="rgb(245,195,195)" />
<path d="M-1.069050 -0.968896 L-0.069050 -0.968896 L-0.069050 0.031104 L-1.069050 0.031104  z" fill="none" stroke="rgb(128,128,128)" stroke-width="0.01" />
<line x1="0.0125825" y1="-0.136243" x2="0.133379" y2="0.0513465" style="stroke:rgb(246,147,147);stroke-width:0.01" />
<line x1="0.0538" y1="-0.104032" x2="0.163508" y2="0.0543594" style="stroke:rgb(246,147,147);stroke-width:0.01" />
<line x1="0.163508" y1="0.00784777" x2="0.294586" y2="0.182619" style="stroke:rgb(246,147,147);stroke-width:0.01" />
<line x1="0.21095" y1="-0.00889641" x2="0.340706" y2="0.143299" style="stroke:rgb(246,147,147);stroke-width:0.01" />
<line x1="-0.0290501" y1="-0.0355631" x2="-0.00148255" y2="0.0401126" style="stroke:rgb(246,147,147);stroke-width:0.01" />
<line x1="-0.0450501" y1="-0.00889641" x2="-0.0336519" y2="0.0340534" style="stroke:rgb(246,147,147);stroke-width:0.01" />
<line x1="-0.0617508" y1="-0.0199913" x2="-0.048642" y2="0.0515117" style="stroke:rgb(246,147,147);stroke-width:0.01" />
<line x1="-0.0561469" y1="0.024652" x2="-0.0537829" y2="0.0387372" style="stroke:rgb(246,147,147);stroke-width:0.01" />
<line x1="-0.0655166" y1="0.0205029" x2="-0.0616972" y2="0.0605154" style="stroke:rgb(246,147,147);stroke-width:0.01" />
<line x1="-0.0690501" y1="-0.00593345" x2="-0.0660828" y2="0.0340709" style="stroke:rgb(246,147,147);stroke-width:0.01" />
<line x1="-0.0690501" y1="-0.00115448" x2="-0.0666578" y2="0.0358883" style="stroke:rgb(246,147,147);stroke-width:0.01" />
<line x1="-0.0690501" y1="-0.00593345" x2="-0.0690501" y2="0.0311036" style="stroke:rgb(246,147,147);stroke-width:0.01" />
<line x1="-0.0655166" y1="0.0205029" x2="-0.0666578" y2="0.0358883" style="stroke:rgb(246,147,147);stroke-width:0.01" />
<line x1="-0.0617508" y1="-0.0199913" x2="-0.0660828" y2="0.0340709" style="stroke:rgb(246,147,147);stroke-width:0.01" />
<line x1="-0.0561469" y1="0.024652" x2="-0.0616972" y2="0.0605154" style="stroke:rgb(246,147,147);stroke-width:0.01" />
<line x1="-0.0450501" y1="-0.00889641" x2="-0.0537829" y2="0.0387372" style="stroke:rgb(246,147,147);stroke-width:0.01" />
<line x1="-0.0290501" y1="-0.0355631" x2="-0.048642" y2="0.0515117" style="stroke:rgb(246,147,147);stroke-width:0.01" />
<line x1="0.0125825" y1="-0.136243" x2="-0.0336519" y2="0.0340534" style="stroke:rgb(246,147,147);stroke-width:0.01" />
<line x1="0.0538" y1="-0.104032" x2="-0.00148255" y2="0.0401126" style="stroke:rgb(246,147,147);stroke-width:0.01" />
<line x1="0.163508" y1="0.00784777" x2="0.133379" y2="0.0513465" style="stroke:rgb(246,147,147);stroke-width:0.01" />
<line x1="0.21095" y1="-0.00889641" x2="0.163508" y2="0.0543594" style="stroke:rgb(246,147,147);stroke-width:0.01" />
<line x1="0.0125825" y1="-0.136243" x2="-1.06905" y2="0.0311036" style="stroke:rgb(246,147,147);stroke-width:0.01" />
<line x1="0.0538" y1="-0.104032" x2="-1.06905" y2="0.0311036" style="stroke:rgb(246,147,147);stroke-width:0.01" />
<line x1="-1.06905" y1="0.0311036" x2="0.294586" y2="0.182619" style="stroke:rgb(246,147,147);stroke-width:0.01" />
<line x1="-0.0290501" y1="-0.0355631" x2="-1.06905" y2="0.0311036" style="stroke:rgb(246,147,147);stroke-width:0.01" />
<line x1="-0.0617508" y1="-0.0199913" x2="-1.06905" y2="0.0311036" style="stroke:rgb(246,147,147);stroke-width:0.01" />
<line x1="-0.0450501" y1="-0.00889641" x2="-1.06905" y2="0.0311036" style="stroke:rgb(246,147,147);stroke-width:0.01" />
<line x1="-0.0690501" y1="-0.00593345" x2="-1.06905" y2="0.0311036" style="stroke:rgb(246,147,147);stroke-width:0.01" />
<line x1="-0.0690501" y1="-0.00115448" x2="-1.06905" y2="0.0311036" style="stroke:rgb(246,147,147);stroke-width:0.01" />
<line x1="0.21095" y1="-0.00889641" x2="-1.06905" y2="0.0311036" style="stroke:rgb(246,147,147);stroke-width:0.01" />
<line x1="-1.06905" y1="0.0311036" x2="-0.0616972" y2="0.0605154" style="stroke:rgb(246,147,147);stroke-width:0.01" />
<line x1="-1.06905" y1="0.0311036" x2="-0.048642" y2="0.0515117" style="stroke:rgb(246,147,147);stroke-width:0.01" />
<line x1="-1.06905" y1="0.0311036" x2="0.163508" y2="0.0543594" style="stroke:rgb(246,147,147);stroke-width:0.01" />
<line x1="0.163508" y1="0.00784777" x2="-1.06905" y2="0.0311036" style="stroke:rgb(246,147,147);stroke-width:0.01" />
<line x1="-1.06905" y1="0.0311036" x2="0.133379" y2="0.0513465" style="stroke:rgb(246,147,147);stroke-width:0.01" />
<line x1="-0.0655166" y1="0.0205029" x2="-1.06905" y2="0.0311036" style="stroke:rgb(246,147,147);stroke-width:0.01" />
<line x1="-1.06905" y1="0.0311036" x2="-0.00148255" y2="0.0401126" style="stroke:rgb(246,147,147);stroke-width:0.01" />
<line x1="-1.06905" y1="0.0311036" x2="-0.0537829" y2="0.0387372" style="stroke:rgb(246,147,147);stroke-width:0.01" />
<line x1="-0.0561469" y1="0.024652" x2="-1.06905" y2="0.0311036" style="stroke:rgb(246,147,147);stroke-width:0.01" />
<line x1="-1.06905" y1="0.0311036" x2="-0.0666578" y2="0.0358883" style="stroke:rgb(246,147,147);stroke-width:0.01" />
<line x1="-1.06905" y1="0.0311036" x2="-0.0660828" y2="0.0340709" style="stroke:rgb(246,147,147);stroke-width:0.01" />
<line x1="-1.06905" y1="0.0311036" x2="-0.0336519" y2="0.0340534" style="stroke:rgb(246,147,147);stroke-width:0.01" />
<line x1="-1.06905" y1="0.0311036" x2="-0.0690501" y2="0.0311036" style="stroke:rgb(246,147,147);stroke-width:0.01" />
<line x1="0.340706" y1="0.143299" x2="0.294586" y2="0.182619" style="stroke:rgb(246,147,147);stroke-width:0.01" />
</g>
</svg>
