<svg xmlns="http://www.w3.org/2000/svg" viewBox="-1.5 -1.5 3 3">
<g transform="scale(1, -1)">
<path d="M-0.142197 -0.082122 L-0.133185 -0.042068 L-0.049890 -0.047934 L-0.043338 -0.035650 L0.165495 -0.047934 L0.173654 -0.039367 L0.232803 -0.042440 L0.271596 -0.005494 L0.238755 0.028989 L0.171905 0.028989 L0.137803 0.068989 L0.079177 0.067157 L0.039621 0.119898 L-1.142197 0.028989 z " fill="rgb(245,195,195)" />
<path d="M-1.142197 -0.971011 L-0.142197 -0.971011 L-0.142197 0.028989 L-1.142197 0.028989  z" fill="none" stroke="rgb(128,128,128)" stroke-width="0.01" />
<line x1="0.00874602" y1="0.0252152" x2="0.0529246" y2="0.10216" style="stroke:rgb(246,147,147);stroke-width:0.01" />
<line x1="-0.0498897" y1="-0.0479343" x2="0.0396208" y2="0.119898" style="stroke:rgb(246,147,147);stroke-width:0.01" />
<line x1="-0.0665671" y1="-0.0466414" x2="-0.012887" y2="0.0634716" style="stroke:rgb(246,147,147);stroke-width:0.01" />
<line x1="0.107803" y1="0.0289888" x2="0.137803" y2="0.0689888" style="stroke:rgb(246,147,147);stroke-width:0.01" />
<line x1="0.165495" y1="-0.0479343" x2="0.238755" y2="0.0289888" style="stroke:rgb(246,147,147);stroke-width:0.01" />
<line x1="-0.100531" y1="0.0289888" x2="-0.0904732" y2="0.0634716" style="stroke:rgb(246,147,147);stroke-width:0.01" />
<line x1="0.232803" y1="-0.0424398" x2="0.271596" y2="-0.00549394" style="stroke:rgb(246,147,147);stroke-width:0.01" />
<line x1="-0.111741" y1="0.0239127" x2="-0.101929" y2="0.0625459" style="stroke:rgb(246,147,147);stroke-width:0.01" />
<line x1="-0.142197" y1="-0.0821223" x2="-0.109939" y2="0.0612469" style="stroke:rgb(246,147,147);stroke-width:0.01" />
<line x1="-0.142197" y1="-0.0744595" x2="-0.118942" y2="0.0367408" style="stroke:rgb(246,147,147);stroke-width:0.01" />
<line x1="-0.142197" y1="-0.0821223" x2="-0.142197" y2="0.0289888" style="stroke:rgb(246,147,147);stroke-width:0.01" />
<line x1="-0.117197" y1="0.0289888" x2="-0.118942" y2="0.0367408" style="stroke:rgb(246,147,147);stroke-width:0.01" />
<line x1="-0.111741" y1="0.0239127" x2="-0.11517" y2="0.0379978" style="stroke:rgb(246,147,147);stroke-width:0.01" />
<line x1="-0.100531" y1="0.0289888" x2="-0.109939" y2="0.0612469" style="stroke:rgb(246,147,147);stroke-width:0.01" />
<line x1="-0.0665671" y1="-0.0466414" x2="-0.101929" y2="0.0625459" style="stroke:rgb(246,147,147);stroke-width:0.01" />
<line x1="-0.0498897" y1="-0.0479343" x2="-0.0904732" y2="0.0634716" style="stroke:rgb(246,147,147);stroke-width:0.01" />
<line x1="0.00874602" y1="0.0252152" x2="-0.012887" y2="0.0634716" style="stroke:rgb(246,147,147);stroke-width:0.01" />
<line x1="0.165495" y1="-0.0479343" x2="0.0396208" y2="0.119898" style="stroke:rgb(246,147,147);stroke-width:0.01" />
<line x1="-0.142197" y1="-0.0821223" x2="-1.1422" y2="0.0289888" style="stroke:rgb(246,147,147);stroke-width:0.01" />
<line x1="-0.142197" y1="-0.0744595" x2="-1.1422" y2="0.0289888" style="stroke:rgb(246,147,147);stroke-width:0.01" />
<line x1="-1.1422" y1="0.0289888" x2="0.0396208" y2="0.119898" style="stroke:rgb(246,147,147);stroke-width:0.01" />
<line x1="-0.0498897" y1="-0.0479343" x2="-1.1422" y2="0.0289888" style="stroke:rgb(246,147,147);stroke-width:0.01" />
<line x1="-0.0665671" y1="-0.0466414" x2="-1.1422" y2="0.0289888" style="stroke:rgb(246,147,147);stroke-width:0.01" />
<line x1="-1.1422" y1="0.0289888" x2="0.0529246" y2="0.10216" style="stroke:rgb(246,147,147);stroke-width:0.01" />
<line x1="0.165495" y1="-0.0479343" x2="-1.1422" y2="0.0289888" style="stroke:rgb(246,147,147);stroke-width:0.01" />
<line x1="0.232803" y1="-0.0424398" x2="-1.1422" y2="0.0289888" style="stroke:rgb(246,147,147);stroke-width:0.01" />
<line x1="-1.1422" y1="0.0289888" x2="-0.0904732" y2="0.0634716" style="stroke:rgb(246,147,147);stroke-width:0.01" />
<line x1="-1.1422" y1="0.0289888" x2="-0.101929" y2="0.0625459" style="stroke:rgb(246,147,147);stroke-width:0.01" />
<line x1="-1.1422" y1="0.0289888" x2="0.137803" y2="0.0689888" style="stroke:rgb(246,147,147);stroke-width:0.01" />
<line x1="-1.1422" y1="0.0289888" x2="-0.012887" y2="0.0634716" style="stroke:rgb(246,147,147);stroke-width:0.01" />
<line x1="-1.1422" y1="0.0289888" x2="-0.11517" y2="0.0379978" style="stroke:rgb(246,147,147);stroke-width:0.01" />
<line x1="-1.1422" y1="0.0289888" x2="-0.118942" y2="0.0367408" style="stroke:rgb(246,147,147);stroke-width:0.01" />
<line x1="-0.111741" y1="0.0239127" x2="-1.1422" y2="0.0289888" style="stroke:rgb(246,147,147);stroke-width:0.01" />
<line x1="0.00874602" y1="0.0252152" x2="-1.1422" y2="0.0289888" style="stroke:rgb(246,147,147);stroke-width:0.01" />
<line x1="-1.1422" y1="0.0289888" x2="0.238755" y2="0.0289888" style="stroke:rgb(246,147,147);stroke-width:0.01" />
<line x1="0.232803" y1="-0.0424398" x2="0.137803" y2="0.0689888" style="stroke:rgb(246,147,147);stroke-width:0.01" />
<line x1="0.271596" y1="-0.00549394" x2="0.238755" y2="0.0289888" style="stroke:rgb(246,147,147);stroke-width:0.01" />
</g>
</svg>
