<svg xmlns="http://www.w3.org/2000/svg" viewBox="-1.5 -1.5 3 3">
<g transform="scale(1, -1)">
<path d="M-0.106313 -0.097600 L-0.081550 -0.038168 L-0.054994 -0.038949 L-0.052215 -0.033250 L0.166704 -0.038538 L0.178301 -0.025692 L0.248232 -0.026691 L0.262433 -0.012608 L0.232379 0.017699 L0.155403 0.016343 L0.105901 0.073064 L0.076842 0.071221 L0.020646 0.139861 L-1.151768 -0.006691 z " fill="rgb(245,195,195)" />
<path d="M-1.151768 -1.006691 L-0.151768 -1.006691 L-0.151768 -0.006691 L-1.151768 -0.006691  z" fill="none" stroke="rgb(128,128,128)" stroke-width="0.01" />
<line x1="0.0387084" y1="-0.0270991" x2="0.105901" y2="0.0730636" style="stroke:rgb(246,147,147);stroke-width:0.01" />
<line x1="-0.0549936" y1="-0.038949" x2="-0.0105914" y2="0.0521326" style="stroke:rgb(246,147,147);stroke-width:0.01" />
<line x1="-0.0517678" y1="-0.0150243" x2="0.020646" y2="0.139861" style="stroke:rgb(246,147,147);stroke-width:0.01" />
<line x1="-0.106313" y1="-0.0976001" x2="-0.0622156" y2="0.0082344" style="stroke:rgb(246,147,147);stroke-width:0.01" />
<line x1="0.166704" y1="-0.0385381" x2="0.211869" y2="0.0114908" style="stroke:rgb(246,147,147);stroke-width:0.01" />
<line x1="0.192181" y1="-0.0257993" x2="0.232379" y2="0.0176993" style="stroke:rgb(246,147,147);stroke-width:0.01" />
<line x1="-0.106824" y1="-0.0179269" x2="-0.0882758" y2="0.0409281" style="stroke:rgb(246,147,147);stroke-width:0.01" />
<line x1="0.248232" y1="-0.026691" x2="0.262433" y2="-0.0126081" style="stroke:rgb(246,147,147);stroke-width:0.01" />
<line x1="-0.136879" y1="-0.038949" x2="-0.128512" y2="0.00106097" style="stroke:rgb(246,147,147);stroke-width:0.01" />
<line x1="-0.151768" y1="-0.0733576" x2="-0.132537" y2="0.0702321" style="stroke:rgb(246,147,147);stroke-width:0.01" />
<line x1="-0.151768" y1="-0.038949" x2="-0.147149" y2="0.03257" style="stroke:rgb(246,147,147);stroke-width:0.01" />
<line x1="-0.151768" y1="-0.0733576" x2="-0.151768" y2="-0.00669097" style="stroke:rgb(246,147,147);stroke-width:0.01" />
<line x1="-0.136879" y1="-0.038949" x2="-0.147149" y2="0.03257" style="stroke:rgb(246,147,147);stroke-width:0.01" />
<line x1="-0.106313" y1="-0.0976001" x2="-0.128512" y2="0.00106097" style="stroke:rgb(246,147,147);stroke-width:0.01" />
<line x1="-0.106824" y1="-0.0179269" x2="-0.132537" y2="0.0702321" style="stroke:rgb(246,147,147);stroke-width:0.01" />
<line x1="-0.0549936" y1="-0.038949" x2="-0.0882758" y2="0.0409281" style="stroke:rgb(246,147,147);stroke-width:0.01" />
<line x1="-0.0517678" y1="-0.0150243" x2="-0.0622156" y2="0.0082344" style="stroke:rgb(246,147,147);stroke-width:0.01" />
<line x1="0.0387084" y1="-0.0270991" x2="-0.0105914" y2="0.0521326" style="stroke:rgb(246,147,147);stroke-width:0.01" />
<line x1="-1.15177" y1="-0.00669097" x2="0.020646" y2="0.139861" style="stroke:rgb(246,147,147);stroke-width:0.01" />
<line x1="-0.106313" y1="-0.0976001" x2="-1.15177" y2="-0.00669097" style="stroke:rgb(246,147,147);stroke-width:0.01" />
<line x1="-1.15177" y1="-0.00669097" x2="-0.132537" y2="0.0702321" style="stroke:rgb(246,147,147);stroke-width:0.01" />
<line x1="-0.151768" y1="-0.0733576" x2="-1.15177" y2="-0.00669097" style="stroke:rgb(246,147,147);stroke-width:0.01" />
<line x1="-1.15177" y1="-0.00669097" x2="0.105901" y2="0.0730636" style="stroke:rgb(246,147,147);stroke-width:0.01" />
<line x1="-1.15177" y1="-0.00669097" x2="-0.0105914" y2="0.0521326" style="stroke:rgb(246,147,147);stroke-width:0.01" />
<line x1="-1.15177" y1="-0.00669097" x2="-0.0882758" y2="0.0409281" style="stroke:rgb(246,147,147);stroke-width:0.01" />
<line x1="-1.15177" y1="-0.00669097" x2="-0.147149" y2="0.03257" style="stroke:rgb(246,147,147);stroke-width:0.01" />
<line x1="-0.151768" y1="-0.038949" x2="-1.15177" y2="-0.00669097" style="stroke:rgb(246,147,147);stroke-width:0.01" />
<line x1="-0.136879" y1="-0.038949" x2="-1.15177" y2="-0.00669097" style="stroke:rgb(246,147,147);stroke-width:0.01" />
<line x1="-0.0549936" y1="-0.038949" x2="-1.15177" y2="-0.00669097" style="stroke:rgb(246,147,147);stroke-width:0.01" />
<line x1="0.166704" y1="-0.0385381" x2="-1.15177" y2="-0.00669097" style="stroke:rgb(246,147,147);stroke-width:0.01" />
<line x1="-1.15177" y1="-0.00669097" x2="0.232379" y2="0.0176993" style="stroke:rgb(246,147,147);stroke-width:0.01" />
<line x1="0.0387084" y1="-0.0270991" x2="-1.15177" y2="-0.00669097" style="stroke:rgb(246,147,147);stroke-width:0.01" />
<line x1="0.248232" y1="-0.026691" x2="-1.15177" y2="-0.00669097" style="stroke:rgb(246,147,147);stroke-width:0.01" />
<line x1="0.192181" y1="-0.0257993" x2="-1.15177" y2="-0.00669097" style="stroke:rgb(246,147,147);stroke-width:0.01" />
<line x1="-1.15177" y1="-0.00669097" x2="-0.0622156" y2="0.0082344" style="stroke:rgb(246,147,147);stroke-width:0.01" />
<line x1="-1.15177" y1="-0.00669097" x2="0.211869" y2="0.0114908" style="stroke:rgb(246,147,147);stroke-width:0.01" />
<line x1="-0.106824" y1="-0.0179269" x2="-1.15177" y2="-0.00669097" style="stroke:rgb(246,147,147);stroke-width:0.01" />
<line x1="-1.15177" y1="-0.00669097" x2="-0.128512" y2="0.00106097" style="stroke:rgb(246,147,147);stroke-width:0.01" />
<line x1="-0.0517678" y1="-0.0150243" x2="-1.15177" y2="-0.00669097" style="stroke:rgb(246,147,147);stroke-width:0.01" />
<line x1="-1.15177" y1="-0.00669097" x2="-0.151768" y2="-0.00669097" style="stroke:rgb(246,147,147);stroke-width:0.01" />
<line x1="0.166704" y1="-0.0385381" x2="0.020646" y2="0.139861" style="stroke:rgb(246,147,147);stroke-width:0.01" />
<line x1="0.192181" y1="-0.0257993" x2="0.105901" y2="0.0730636" style="stroke:rgb(246,147,147);stroke-width:0.01" />
<line x1="0.248232" y1="-0.026691" x2="0.211869" y2="0.0114908" style="stroke:rgb(246,147,147);stroke-width:0.01" />
<line x1="0.262433" y1="-0.0126081" x2="0.232379" y2="0.0176993" style="stroke:rgb(246,147,147);stroke-width:0.01" />
</g>
</svg>
