<svg xmlns="http://www.w3.org/2000/svg" viewBox="-1.5 -1.5 3 3">
<g transform="scale(1, -1)">
<path d="M1.053333 0.800000 L1.127198 0.918712 L1.136612 0.918033 L1.178552 0.983164 L1.400000 0.980000 L1.414201 0.994083 L1.394366 1.014085 L1.367794 1.013816 L1.345679 1.037037 L1.314559 1.036181 L1.246914 1.111111 L0.000000 1.000000 z " fill="rgb(245,195,195)" />
<path d="M0.000000 0.000000 L1.000000 0.000000 L1.000000 1.000000 L0.000000 1.000000  z" fill="none" stroke="rgb(128,128,128)" stroke-width="0.01" />
<line x1="1.05333" y1="0.8" x2="1.24691" y2="1.11111" style="stroke:rgb(246,147,147);stroke-width:0.01" />
<line x1="1.13661" y1="0.918033" x2="1.23474" y2="1.07042" style="stroke:rgb(246,147,147);stroke-width:0.01" />
<line x1="1.30303" y1="0.987013" x2="1.34568" y2="1.03704" style="stroke:rgb(246,147,147);stroke-width:0.01" />
<line x1="1.36364" y1="0.981818" x2="1.39437" y2="1.01408" style="stroke:rgb(246,147,147);stroke-width:0.01" />
<line x1="1.4" y1="0.98" x2="1.4142" y2="0.994083" style="stroke:rgb(246,147,147);stroke-width:0.01" />
<line x1="1.03636" y1="0.981818" x2="1.0641" y2="1.07692" style="stroke:rgb(246,147,147);stroke-width:0.01" />
<line x1="1.01613" y1="0.946237" x2="1.03046" y2="1.00508" style="stroke:rgb(246,147,147);stroke-width:0.01" />
<line x1="1.00837" y1="0.995816" x2="1.0122" y2="1.02439" style="stroke:rgb(246,147,147);stroke-width:0.01" />
<line x1="1.00437" y1="0.978166" x2="1.00738" y2="1.00369" style="stroke:rgb(246,147,147);stroke-width:0.01" />
<line x1="1" y1="0.952381" x2="1.00637" y2="1.01911" style="stroke:rgb(246,147,147);stroke-width:0.01" />
<line x1="1" y1="0.965517" x2="1.00256" y2="1.00256" style="stroke:rgb(246,147,147);stroke-width:0.01" />
<line x1="1" y1="0.952381" x2="1" y2="1" style="stroke:rgb(246,147,147);stroke-width:0.01" />
<line x1="1.00437" y1="0.978166" x2="1.00256" y2="1.00256" style="stroke:rgb(246,147,147);stroke-width:0.01" />
<line x1="1.00837" y1="0.995816" x2="1.00738" y2="1.00369" style="stroke:rgb(246,147,147);stroke-width:0.01" />
<line x1="1.01613" y1="0.946237" x2="1.00637" y2="1.01911" style="stroke:rgb(246,147,147);stroke-width:0.01" />
<line x1="1.05333" y1="0.8" x2="1.0122" y2="1.02439" style="stroke:rgb(246,147,147);stroke-width:0.01" />
<line x1="1.03636" y1="0.981818" x2="1.03046" y2="1.00508" style="stroke:rgb(246,147,147);stroke-width:0.01" />
<line x1="1.13661" y1="0.918033" x2="1.0641" y2="1.07692" style="stroke:rgb(246,147,147);stroke-width:0.01" />
<line x1="1.05333" y1="0.8" x2="0" y2="1" style="stroke:rgb(246,147,147);stroke-width:0.01" />
<line x1="0" y1="1" x2="1.24691" y2="1.11111" style="stroke:rgb(246,147,147);stroke-width:0.01" />
<line x1="0" y1="1" x2="1.0641" y2="1.07692" style="stroke:rgb(246,147,147);stroke-width:0.01" />
<line x1="1.13661" y1="0.918033" x2="0" y2="1" style="stroke:rgb(246,147,147);stroke-width:0.01" />
<line x1="0" y1="1" x2="1.23474" y2="1.07042" style="stroke:rgb(246,147,147);stroke-width:0.01" />
<line x1="1.01613" y1="0.946237" x2="0" y2="1" style="stroke:rgb(246,147,147);stroke-width:0.01" />
<line x1="1" y1="0.952381" x2="0" y2="1" style="stroke:rgb(246,147,147);stroke-width:0.01" />
<line x1="1" y1="0.965517" x2="0" y2="1" style="stroke:rgb(246,147,147);stroke-width:0.01" />
<line x1="0" y1="1" x2="1.34568" y2="1.03704" style="stroke:rgb(246,147,147);stroke-width:0.01" />
<line x1="0" y1="1" x2="1.0122" y2="1.02439" style="stroke:rgb(246,147,147);stroke-width:0.01" />
<line x1="1.00437" y1="0.978166" x2="0" y2="1" style="stroke:rgb(246,147,147);stroke-width:0.01" />
<line x1="0" y1="1" x2="1.00637" y2="1.01911" style="stroke:rgb(246,147,147);stroke-width:0.01" />
<line x1="1.03636" y1="0.981818" x2="0" y2="1" style="stroke:rgb(246,147,147);stroke-width:0.01" />
<line x1="1.4" y1="0.98" x2="0" y2="1" style="stroke:rgb(246,147,147);stroke-width:0.01" />
<line x1="1.36364" y1="0.981818" x2="0" y2="1" style="stroke:rgb(246,147,147);stroke-width:0.01" />
<line x1="0" y1="1" x2="1.39437" y2="1.01408" style="stroke:rgb(246,147,147);stroke-width:0.01" />
<line x1="1.30303" y1="0.987013" x2="0" y2="1" style="stroke:rgb(246,147,147);stroke-width:0.01" />
<line x1="0" y1="1" x2="1.03046" y2="1.00508" style="stroke:rgb(246,147,147);stroke-width:0.01" />
<line x1="1.00837" y1="0.995816" x2="0" y2="1" style="stroke:rgb(246,147,147);stroke-width:0.01" />
<line x1="0" y1="1" x2="1.00738" y2="1.00369" style="stroke:rgb(246,147,147);stroke-width:0.01" />
<line x1="0" y1="1" x2="1.00256" y2="1.00256" style="stroke:rgb(246,147,147);stroke-width:0.01" />
<line x1="0" y1="1" x2="1" y2="1" style="stroke:rgb(246,147,147);stroke-width:0.01" />
<line x1="1.30303" y1="0.987013" x2="1.23474" y2="1.07042" style="stroke:rgb(246,147,147);stroke-width:0.01" />
<line x1="1.36364" y1="0.981818" x2="1.24691" y2="1.11111" style="stroke:rgb(246,147,147);stroke-width:0.01" />
<line x1="1.4" y1="0.98" x2="1.34568" y2="1.03704" style="stroke:rgb(246,147,147);stroke-width:0.01" />
<line x1="1.4142" y1="0.994083" x2="1.39437" y2="1.01408" style="stroke:rgb(246,147,147);stroke-width:0.01" />
</g>
</svg>
