<svg xmlns="http://www.w3.org/2000/svg" viewBox="-1.5 -1.5 3 3">
<g transform="scale(1, -1)">
<path d="M-0.005899 -0.104108 L0.014886 -0.057837 L0.145320 -0.065084 L0.149187 -0.059928 L0.357691 -0.070582 L0.239438 0.060407 L0.075755 0.052966 L0.069458 0.063652 L0.017511 0.060784 L-0.008667 0.118147 L-1.054680 0.001583 z " fill="rgb(245,195,195)" />
<path d="M-1.054680 -0.998417 L-0.054680 -0.998417 L-0.054680 0.001583 L-1.054680 0.001583  z" fill="none" stroke="rgb(128,128,128)" stroke-width="0.01" />
<line x1="0.110675" y1="-0.00629098" x2="0.133873" y2="0.0318861" style="stroke:rgb(246,147,147);stroke-width:0.01" />
<line x1="0.0509542" y1="-0.0125015" x2="0.0796487" y2="0.0463592" style="stroke:rgb(246,147,147);stroke-width:0.01" />
<line x1="-0.00589915" y1="-0.104108" x2="0.0694583" y2="0.063652" style="stroke:rgb(246,147,147);stroke-width:0.01" />
<line x1="0.14532" y1="-0.0650836" x2="0.239438" y2="0.0604066" style="stroke:rgb(246,147,147);stroke-width:0.01" />
<line x1="0.192234" y1="-0.0539725" x2="0.263792" y2="0.0334302" style="stroke:rgb(246,147,147);stroke-width:0.01" />
<line x1="-0.0337737" y1="-0.00190129" x2="-0.00866737" y2="0.118147" style="stroke:rgb(246,147,147);stroke-width:0.01" />
<line x1="-0.0378729" y1="-0.0152237" x2="-0.0322077" y2="0.012819" style="stroke:rgb(246,147,147);stroke-width:0.01" />
<line x1="-0.0483102" y1="-0.0175252" x2="-0.0435065" y2="0.0183428" style="stroke:rgb(246,147,147);stroke-width:0.01" />
<line x1="-0.0546796" y1="-0.038417" x2="-0.0508628" y2="0.00921662" style="stroke:rgb(246,147,147);stroke-width:0.01" />
<line x1="-0.0546796" y1="-0.030675" x2="-0.0482072" y2="0.0695442" style="stroke:rgb(246,147,147);stroke-width:0.01" />
<line x1="-0.0546796" y1="-0.038417" x2="-0.0546796" y2="0.00158304" style="stroke:rgb(246,147,147);stroke-width:0.01" />
<line x1="-0.0483102" y1="-0.0175252" x2="-0.0508628" y2="0.00921662" style="stroke:rgb(246,147,147);stroke-width:0.01" />
<line x1="-0.0378729" y1="-0.0152237" x2="-0.0435065" y2="0.0183428" style="stroke:rgb(246,147,147);stroke-width:0.01" />
<line x1="-0.0337737" y1="-0.00190129" x2="-0.0482072" y2="0.0695442" style="stroke:rgb(246,147,147);stroke-width:0.01" />
<line x1="-0.00589915" y1="-0.104108" x2="-0.0322077" y2="0.012819" style="stroke:rgb(246,147,147);stroke-width:0.01" />
<line x1="0.0509542" y1="-0.0125015" x2="-0.00866737" y2="0.118147" style="stroke:rgb(246,147,147);stroke-width:0.01" />
<line x1="0.14532" y1="-0.0650836" x2="0.0694583" y2="0.063652" style="stroke:rgb(246,147,147);stroke-width:0.01" />
<line x1="0.192234" y1="-0.0539725" x2="0.133873" y2="0.0318861" style="stroke:rgb(246,147,147);stroke-width:0.01" />
<line x1="-1.05468" y1="0.00158304" x2="-0.00866737" y2="0.118147" style="stroke:rgb(246,147,147);stroke-width:0.01" />
<line x1="-0.00589915" y1="-0.104108" x2="-1.05468" y2="0.00158304" style="stroke:rgb(246,147,147);stroke-width:0.01" />
<line x1="-1.05468" y1="0.00158304" x2="-0.0482072" y2="0.0695442" style="stroke:rgb(246,147,147);stroke-width:0.01" />
<line x1="0.14532" y1="-0.0650836" x2="-1.05468" y2="0.00158304" style="stroke:rgb(246,147,147);stroke-width:0.01" />
<line x1="-1.05468" y1="0.00158304" x2="0.0694583" y2="0.063652" style="stroke:rgb(246,147,147);stroke-width:0.01" />
<line x1="0.357691" y1="-0.0705819" x2="-1.05468" y2="0.00158304" style="stroke:rgb(246,147,147);stroke-width:0.01" />
<line x1="-1.05468" y1="0.00158304" x2="0.239438" y2="0.0604066" style="stroke:rgb(246,147,147);stroke-width:0.01" />
<line x1="0.192234" y1="-0.0539725" x2="-1.05468" y2="0.00158304" style="stroke:rgb(246,147,147);stroke-width:0.01" />
<line x1="-0.0546796" y1="-0.038417" x2="-1.05468" y2="0.00158304" style="stroke:rgb(246,147,147);stroke-width:0.01" />
<line x1="-1.05468" y1="0.00158304" x2="0.0796487" y2="0.0463592" style="stroke:rgb(246,147,147);stroke-width:0.01" />
<line x1="-0.0546796" y1="-0.030675" x2="-1.05468" y2="0.00158304" style="stroke:rgb(246,147,147);stroke-width:0.01" />
<line x1="-1.05468" y1="0.00158304" x2="0.133873" y2="0.0318861" style="stroke:rgb(246,147,147);stroke-width:0.01" />
<line x1="-1.05468" y1="0.00158304" x2="0.263792" y2="0.0334302" style="stroke:rgb(246,147,147);stroke-width:0.01" />
<line x1="-0.0483102" y1="-0.0175252" x2="-1.05468" y2="0.00158304" style="stroke:rgb(246,147,147);stroke-width:0.01" />
<line x1="-1.05468" y1="0.00158304" x2="-0.0435065" y2="0.0183428" style="stroke:rgb(246,147,147);stroke-width:0.01" />
<line x1="-0.0378729" y1="-0.0152237" x2="-1.05468" y2="0.00158304" style="stroke:rgb(246,147,147);stroke-width:0.01" />
<line x1="0.0509542" y1="-0.0125015" x2="-1.05468" y2="0.00158304" style="stroke:rgb(246,147,147);stroke-width:0.01" />
<line x1="-1.05468" y1="0.00158304" x2="-0.0322077" y2="0.012819" style="stroke:rgb(246,147,147);stroke-width:0.01" />
<line x1="-1.05468" y1="0.00158304" x2="-0.0508628" y2="0.00921662" style="stroke:rgb(246,147,147);stroke-width:0.01" />
<line x1="0.110675" y1="-0.00629098" x2="-1.05468" y2="0.00158304" style="stroke:rgb(246,147,147);stroke-width:0.01" />
<line x1="-0.0337737" y1="-0.00190129" x2="-1.05468" y2="0.00158304" style="stroke:rgb(246,147,147);stroke-width:0.01" />
<line x1="-1.05468" y1="0.00158304" x2="-0.0546796" y2="0.00158304" style="stroke:rgb(246,147,147);stroke-width:0.01" />
<line x1="0.357691" y1="-0.0705819" x2="0.239438" y2="0.0604066" style="stroke:rgb(246,147,147);stroke-width:0.01" />
</g>
</svg>
