<svg xmlns="http://www.w3.org/2000/svg" viewBox="-1.5 -1.5 3 3">
<g transform="scale(1, -1)">
<path d="M1.141643 0.815864 L1.235568 0.930586 L1.369231 0.923077 L1.413793 0.965517 L1.333333 1.050000 L1.265005 1.047438 L1.244898 1.071429 L1.011936 1.058062 L1.010638 1.063830 L0.000000 1.000000 z " fill="rgb(245,195,195)" />
<path d="M0.000000 0.000000 L1.000000 0.000000 L1.000000 1.000000 L0.000000 1.000000  z" fill="none" stroke="rgb(128,128,128)" stroke-width="0.01" />
<line x1="1.11765" y1="0.970588" x2="1.14634" y2="1.02439" style="stroke:rgb(246,147,147);stroke-width:0.01" />
<line x1="1.17822" y1="0.970297" x2="1.2449" y2="1.07143" style="stroke:rgb(246,147,147);stroke-width:0.01" />
<line x1="1.07979" y1="0.957447" x2="1.10152" y2="1.00508" style="stroke:rgb(246,147,147);stroke-width:0.01" />
<line x1="1.14164" y1="0.815864" x2="1.33333" y2="1.05" style="stroke:rgb(246,147,147);stroke-width:0.01" />
<line x1="1.04969" y1="0.950311" x2="1.06969" y2="1.00348" style="stroke:rgb(246,147,147);stroke-width:0.01" />
<line x1="1.36923" y1="0.923077" x2="1.41379" y2="0.965517" style="stroke:rgb(246,147,147);stroke-width:0.01" />
<line x1="1.02941" y1="0.980392" x2="1.04712" y2="1.04712" style="stroke:rgb(246,147,147);stroke-width:0.01" />
<line x1="1.01408" y1="0.985915" x2="1.02454" y2="1.04294" style="stroke:rgb(246,147,147);stroke-width:0.01" />
<line x1="1.00407" y1="0.97561" x2="1.00909" y2="1.01818" style="stroke:rgb(246,147,147);stroke-width:0.01" />
<line x1="1" y1="0.952381" x2="1.01064" y2="1.06383" style="stroke:rgb(246,147,147);stroke-width:0.01" />
<line x1="1" y1="0.967742" x2="1.00223" y2="1.00223" style="stroke:rgb(246,147,147);stroke-width:0.01" />
<line x1="1" y1="0.952381" x2="1" y2="1" style="stroke:rgb(246,147,147);stroke-width:0.01" />
<line x1="1.00407" y1="0.97561" x2="1.00223" y2="1.00223" style="stroke:rgb(246,147,147);stroke-width:0.01" />
<line x1="1.01408" y1="0.985915" x2="1.00909" y2="1.01818" style="stroke:rgb(246,147,147);stroke-width:0.01" />
<line x1="1.02941" y1="0.980392" x2="1.01064" y2="1.06383" style="stroke:rgb(246,147,147);stroke-width:0.01" />
<line x1="1.04969" y1="0.950311" x2="1.02454" y2="1.04294" style="stroke:rgb(246,147,147);stroke-width:0.01" />
<line x1="1.07979" y1="0.957447" x2="1.04712" y2="1.04712" style="stroke:rgb(246,147,147);stroke-width:0.01" />
<line x1="1.14164" y1="0.815864" x2="1.06969" y2="1.00348" style="stroke:rgb(246,147,147);stroke-width:0.01" />
<line x1="1.11765" y1="0.970588" x2="1.10152" y2="1.00508" style="stroke:rgb(246,147,147);stroke-width:0.01" />
<line x1="1.17822" y1="0.970297" x2="1.14634" y2="1.02439" style="stroke:rgb(246,147,147);stroke-width:0.01" />
<line x1="1.14164" y1="0.815864" x2="0" y2="1" style="stroke:rgb(246,147,147);stroke-width:0.01" />
<line x1="0" y1="1" x2="1.01064" y2="1.06383" style="stroke:rgb(246,147,147);stroke-width:0.01" />
<line x1="0" y1="1" x2="1.2449" y2="1.07143" style="stroke:rgb(246,147,147);stroke-width:0.01" />
<line x1="1.36923" y1="0.923077" x2="0" y2="1" style="stroke:rgb(246,147,147);stroke-width:0.01" />
<line x1="1" y1="0.952381" x2="0" y2="1" style="stroke:rgb(246,147,147);stroke-width:0.01" />
<line x1="1.04969" y1="0.950311" x2="0" y2="1" style="stroke:rgb(246,147,147);stroke-width:0.01" />
<line x1="0" y1="1" x2="1.04712" y2="1.04712" style="stroke:rgb(246,147,147);stroke-width:0.01" />
<line x1="0" y1="1" x2="1.02454" y2="1.04294" style="stroke:rgb(246,147,147);stroke-width:0.01" />
<line x1="1.07979" y1="0.957447" x2="0" y2="1" style="stroke:rgb(246,147,147);stroke-width:0.01" />
<line x1="0" y1="1" x2="1.33333" y2="1.05" style="stroke:rgb(246,147,147);stroke-width:0.01" />
<line x1="1" y1="0.967742" x2="0" y2="1" style="stroke:rgb(246,147,147);stroke-width:0.01" />
<line x1="1.11765" y1="0.970588" x2="0" y2="1" style="stroke:rgb(246,147,147);stroke-width:0.01" />
<line x1="1.17822" y1="0.970297" x2="0" y2="1" style="stroke:rgb(246,147,147);stroke-width:0.01" />
<line x1="1.00407" y1="0.97561" x2="0" y2="1" style="stroke:rgb(246,147,147);stroke-width:0.01" />
<line x1="0" y1="1" x2="1.14634" y2="1.02439" style="stroke:rgb(246,147,147);stroke-width:0.01" />
<line x1="1.02941" y1="0.980392" x2="0" y2="1" style="stroke:rgb(246,147,147);stroke-width:0.01" />
<line x1="0" y1="1" x2="1.00909" y2="1.01818" style="stroke:rgb(246,147,147);stroke-width:0.01" />
<line x1="1.01408" y1="0.985915" x2="0" y2="1" style="stroke:rgb(246,147,147);stroke-width:0.01" />
<line x1="0" y1="1" x2="1.10152" y2="1.00508" style="stroke:rgb(246,147,147);stroke-width:0.01" />
<line x1="0" y1="1" x2="1.06969" y2="1.00348" style="stroke:rgb(246,147,147);stroke-width:0.01" />
<line x1="0" y1="1" x2="1.00223" y2="1.00223" style="stroke:rgb(246,147,147);stroke-width:0.01" />
<line x1="0" y1="1" x2="1" y2="1" style="stroke:rgb(246,147,147);stroke-width:0.01" />
<line x1="1.36923" y1="0.923077" x2="1.2449" y2="1.07143" style="stroke:rgb(246,147,147);stroke-width:0.01" />
<line x1="1.41379" y1="0.965517" x2="1.33333" y2="1.05" style="stroke:rgb(246,147,147);stroke-width:0.01" />
</g>
</svg>
