<svg xmlns="http://www.w3.org/2000/svg" viewBox="-1.5 -1.5 3 3">
<g transform="scale(1, -1)">
<path d="M0.039039 -0.176716 L0.132963 -0.061994 L0.266626 -0.069503 L0.311189 -0.027063 L0.230729 0.057420 L0.162400 0.054857 L0.142293 0.078848 L-0.090668 0.065482 L-0.091966 0.071250 L-1.102604 0.007420 z " fill="rgb(245,195,195)" />
<path d="M-1.102604 -0.992580 L-0.102604 -0.992580 L-0.102604 0.007420 L-1.102604 0.007420  z" fill="none" stroke="rgb(128,128,128)" stroke-width="0.01" />
<line x1="0.0150426" y1="-0.021992" x2="0.043737" y2="0.03181" style="stroke:rgb(246,147,147);stroke-width:0.01" />
<line x1="0.0756133" y1="-0.0222832" x2="0.142293" y2="0.0788483" style="stroke:rgb(246,147,147);stroke-width:0.01" />
<line x1="-0.0228172" y1="-0.0351334" x2="-0.00108163" y2="0.0124959" style="stroke:rgb(246,147,147);stroke-width:0.01" />
<line x1="0.0390386" y1="-0.176716" x2="0.230729" y2="0.0574198" style="stroke:rgb(246,147,147);stroke-width:0.01" />
<line x1="-0.052915" y1="-0.0422697" x2="-0.0329181" y2="0.0109041" style="stroke:rgb(246,147,147);stroke-width:0.01" />
<line x1="0.266626" y1="-0.0695033" x2="0.311189" y2="-0.027063" style="stroke:rgb(246,147,147);stroke-width:0.01" />
<line x1="-0.0731927" y1="-0.0121881" x2="-0.0554841" y2="0.0545402" style="stroke:rgb(246,147,147);stroke-width:0.01" />
<line x1="-0.08852" y1="-0.00666473" x2="-0.0780646" y2="0.0503646" style="stroke:rgb(246,147,147);stroke-width:0.01" />
<line x1="-0.0985394" y1="-0.0169705" x2="-0.0935136" y2="0.0256016" style="stroke:rgb(246,147,147);stroke-width:0.01" />
<line x1="-0.102604" y1="-0.0401993" x2="-0.0919662" y2="0.0712496" style="stroke:rgb(246,147,147);stroke-width:0.01" />
<line x1="-0.102604" y1="-0.0248383" x2="-0.100377" y2="0.00964695" style="stroke:rgb(246,147,147);stroke-width:0.01" />
<line x1="-0.102604" y1="-0.0401993" x2="-0.102604" y2="0.00741978" style="stroke:rgb(246,147,147);stroke-width:0.01" />
<line x1="-0.0985394" y1="-0.0169705" x2="-0.100377" y2="0.00964695" style="stroke:rgb(246,147,147);stroke-width:0.01" />
<line x1="-0.08852" y1="-0.00666473" x2="-0.0935136" y2="0.0256016" style="stroke:rgb(246,147,147);stroke-width:0.01" />
<line x1="-0.0731927" y1="-0.0121881" x2="-0.0919662" y2="0.0712496" style="stroke:rgb(246,147,147);stroke-width:0.01" />
<line x1="-0.052915" y1="-0.0422697" x2="-0.0780646" y2="0.0503646" style="stroke:rgb(246,147,147);stroke-width:0.01" />
<line x1="-0.0228172" y1="-0.0351334" x2="-0.0554841" y2="0.0545402" style="stroke:rgb(246,147,147);stroke-width:0.01" />
<line x1="0.0390386" y1="-0.176716" x2="-0.0329181" y2="0.0109041" style="stroke:rgb(246,147,147);stroke-width:0.01" />
<line x1="0.0150426" y1="-0.021992" x2="-0.00108163" y2="0.0124959" style="stroke:rgb(246,147,147);stroke-width:0.01" />
<line x1="0.0756133" y1="-0.0222832" x2="0.043737" y2="0.03181" style="stroke:rgb(246,147,147);stroke-width:0.01" />
<line x1="0.0390386" y1="-0.176716" x2="-1.1026" y2="0.00741978" style="stroke:rgb(246,147,147);stroke-width:0.01" />
<line x1="-1.1026" y1="0.00741978" x2="-0.0919662" y2="0.0712496" style="stroke:rgb(246,147,147);stroke-width:0.01" />
<line x1="-1.1026" y1="0.00741978" x2="0.142293" y2="0.0788483" style="stroke:rgb(246,147,147);stroke-width:0.01" />
<line x1="0.266626" y1="-0.0695033" x2="-1.1026" y2="0.00741978" style="stroke:rgb(246,147,147);stroke-width:0.01" />
<line x1="-0.102604" y1="-0.0401993" x2="-1.1026" y2="0.00741978" style="stroke:rgb(246,147,147);stroke-width:0.01" />
<line x1="-0.052915" y1="-0.0422697" x2="-1.1026" y2="0.00741978" style="stroke:rgb(246,147,147);stroke-width:0.01" />
<line x1="-1.1026" y1="0.00741978" x2="-0.0554841" y2="0.0545402" style="stroke:rgb(246,147,147);stroke-width:0.01" />
<line x1="-1.1026" y1="0.00741978" x2="-0.0780646" y2="0.0503646" style="stroke:rgb(246,147,147);stroke-width:0.01" />
<line x1="-0.0228172" y1="-0.0351334" x2="-1.1026" y2="0.00741978" style="stroke:rgb(246,147,147);stroke-width:0.01" />
<line x1="-1.1026" y1="0.00741978" x2="0.230729" y2="0.0574198" style="stroke:rgb(246,147,147);stroke-width:0.01" />
<line x1="-0.102604" y1="-0.0248383" x2="-1.1026" y2="0.00741978" style="stroke:rgb(246,147,147);stroke-width:0.01" />
<line x1="0.0150426" y1="-0.021992" x2="-1.1026" y2="0.00741978" style="stroke:rgb(246,147,147);stroke-width:0.01" />
<line x1="0.0756133" y1="-0.0222832" x2="-1.1026" y2="0.00741978" style="stroke:rgb(246,147,147);stroke-width:0.01" />
<line x1="-0.0985394" y1="-0.0169705" x2="-1.1026" y2="0.00741978" style="stroke:rgb(246,147,147);stroke-width:0.01" />
<line x1="-1.1026" y1="0.00741978" x2="0.043737" y2="0.03181" style="stroke:rgb(246,147,147);stroke-width:0.01" />
<line x1="-0.0731927" y1="-0.0121881" x2="-1.1026" y2="0.00741978" style="stroke:rgb(246,147,147);stroke-width:0.01" />
<line x1="-1.1026" y1="0.00741978" x2="-0.0935136" y2="0.0256016" style="stroke:rgb(246,147,147);stroke-width:0.01" />
<line x1="-0.08852" y1="-0.00666473" x2="-1.1026" y2="0.00741978" style="stroke:rgb(246,147,147);stroke-width:0.01" />
<line x1="-1.1026" y1="0.00741978" x2="-0.00108163" y2="0.0124959" style="stroke:rgb(246,147,147);stroke-width:0.01" />
<line x1="-1.1026" y1="0.00741978" x2="-0.0329181" y2="0.0109041" style="stroke:rgb(246,147,147);stroke-width:0.01" />
<line x1="-1.1026" y1="0.00741978" x2="-0.100377" y2="0.00964695" style="stroke:rgb(246,147,147);stroke-width:0.01" />
<line x1="-1.1026" y1="0.00741978" x2="-0.102604" y2="0.00741978" style="stroke:rgb(246,147,147);stroke-width:0.01" />
<line x1="0.266626" y1="-0.0695033" x2="0.142293" y2="0.0788483" style="stroke:rgb(246,147,147);stroke-width:0.01" />
<line x1="0.311189" y1="-0.027063" x2="0.230729" y2="0.0574198" style="stroke:rgb(246,147,147);stroke-width:0.01" />
</g>
</svg>
