<svg xmlns="http://www.w3.org/2000/svg" viewBox="-1.5 -1.5 3 3">
<g transform="scale(1, -1)">
<path d="M1.322581 0.903226 L1.414201 0.994083 L1.394366 1.014085 L1.315674 1.013290 L1.285714 1.047619 L1.186025 1.043927 L1.169492 1.067797 L1.070876 1.062080 L1.025907 1.160622 L0.000000 1.000000 z " fill="rgb(245,195,195)" />
<path d="M0.000000 0.000000 L1.000000 0.000000 L1.000000 1.000000 L0.000000 1.000000  z" fill="none" stroke="rgb(128,128,128)" stroke-width="0.01" />
<line x1="1.11494" y1="0.965517" x2="1.16949" y2="1.0678" style="stroke:rgb(246,147,147);stroke-width:0.01" />
<line x1="1.18321" y1="0.961832" x2="1.22857" y2="1.02857" style="stroke:rgb(246,147,147);stroke-width:0.01" />
<line x1="1.23256" y1="0.976744" x2="1.28571" y2="1.04762" style="stroke:rgb(246,147,147);stroke-width:0.01" />
<line x1="1.06061" y1="0.989899" x2="1.08163" y2="1.04762" style="stroke:rgb(246,147,147);stroke-width:0.01" />
<line x1="1.35294" y1="0.970588" x2="1.39437" y2="1.01408" style="stroke:rgb(246,147,147);stroke-width:0.01" />
<line x1="1.32258" y1="0.903226" x2="1.4142" y2="0.994083" style="stroke:rgb(246,147,147);stroke-width:0.01" />
<line x1="1.00909" y1="0.981818" x2="1.02597" y2="1.09091" style="stroke:rgb(246,147,147);stroke-width:0.01" />
<line x1="1" y1="0.941176" x2="1.02591" y2="1.16062" style="stroke:rgb(246,147,147);stroke-width:0.01" />
<line x1="1.00503" y1="0.994975" x2="1.00621" y2="1.00621" style="stroke:rgb(246,147,147);stroke-width:0.01" />
<line x1="1" y1="0.96" x2="1.00382" y2="1.00763" style="stroke:rgb(246,147,147);stroke-width:0.01" />
<line x1="1" y1="0.941176" x2="1" y2="1" style="stroke:rgb(246,147,147);stroke-width:0.01" />
<line x1="1.00503" y1="0.994975" x2="1.00382" y2="1.00763" style="stroke:rgb(246,147,147);stroke-width:0.01" />
<line x1="1.00909" y1="0.981818" x2="1.00621" y2="1.00621" style="stroke:rgb(246,147,147);stroke-width:0.01" />
<line x1="1.06061" y1="0.989899" x2="1.02597" y2="1.09091" style="stroke:rgb(246,147,147);stroke-width:0.01" />
<line x1="1.11494" y1="0.965517" x2="1.02591" y2="1.16062" style="stroke:rgb(246,147,147);stroke-width:0.01" />
<line x1="1.11765" y1="0.970588" x2="1.08163" y2="1.04762" style="stroke:rgb(246,147,147);stroke-width:0.01" />
<line x1="1.18321" y1="0.961832" x2="1.14634" y2="1.02439" style="stroke:rgb(246,147,147);stroke-width:0.01" />
<line x1="1.23256" y1="0.976744" x2="1.16949" y2="1.0678" style="stroke:rgb(246,147,147);stroke-width:0.01" />
<line x1="1.32258" y1="0.903226" x2="1.22857" y2="1.02857" style="stroke:rgb(246,147,147);stroke-width:0.01" />
<line x1="0" y1="1" x2="1.02591" y2="1.16062" style="stroke:rgb(246,147,147);stroke-width:0.01" />
<line x1="0" y1="1" x2="1.02597" y2="1.09091" style="stroke:rgb(246,147,147);stroke-width:0.01" />
<line x1="1.32258" y1="0.903226" x2="0" y2="1" style="stroke:rgb(246,147,147);stroke-width:0.01" />
<line x1="1" y1="0.941176" x2="0" y2="1" style="stroke:rgb(246,147,147);stroke-width:0.01" />
<line x1="0" y1="1" x2="1.16949" y2="1.0678" style="stroke:rgb(246,147,147);stroke-width:0.01" />
<line x1="0" y1="1" x2="1.08163" y2="1.04762" style="stroke:rgb(246,147,147);stroke-width:0.01" />
<line x1="1" y1="0.96" x2="0" y2="1" style="stroke:rgb(246,147,147);stroke-width:0.01" />
<line x1="0" y1="1" x2="1.28571" y2="1.04762" style="stroke:rgb(246,147,147);stroke-width:0.01" />
<line x1="1.18321" y1="0.961832" x2="0" y2="1" style="stroke:rgb(246,147,147);stroke-width:0.01" />
<line x1="1.11494" y1="0.965517" x2="0" y2="1" style="stroke:rgb(246,147,147);stroke-width:0.01" />
<line x1="1.11765" y1="0.970588" x2="0" y2="1" style="stroke:rgb(246,147,147);stroke-width:0.01" />
<line x1="0" y1="1" x2="1.22857" y2="1.02857" style="stroke:rgb(246,147,147);stroke-width:0.01" />
<line x1="1.35294" y1="0.970588" x2="0" y2="1" style="stroke:rgb(246,147,147);stroke-width:0.01" />
<line x1="0" y1="1" x2="1.14634" y2="1.02439" style="stroke:rgb(246,147,147);stroke-width:0.01" />
<line x1="1.23256" y1="0.976744" x2="0" y2="1" style="stroke:rgb(246,147,147);stroke-width:0.01" />
<line x1="1.00909" y1="0.981818" x2="0" y2="1" style="stroke:rgb(246,147,147);stroke-width:0.01" />
<line x1="0" y1="1" x2="1.39437" y2="1.01408" style="stroke:rgb(246,147,147);stroke-width:0.01" />
<line x1="1.06061" y1="0.989899" x2="0" y2="1" style="stroke:rgb(246,147,147);stroke-width:0.01" />
<line x1="0" y1="1" x2="1.00382" y2="1.00763" style="stroke:rgb(246,147,147);stroke-width:0.01" />
<line x1="0" y1="1" x2="1.00621" y2="1.00621" style="stroke:rgb(246,147,147);stroke-width:0.01" />
<line x1="1.00503" y1="0.994975" x2="0" y2="1" style="stroke:rgb(246,147,147);stroke-width:0.01" />
<line x1="0" y1="1" x2="1" y2="1" style="stroke:rgb(246,147,147);stroke-width:0.01" />
<line x1="1.35294" y1="0.970588" x2="1.28571" y2="1.04762" style="stroke:rgb(246,147,147);stroke-width:0.01" />
<line x1="1.4142" y1="0.994083" x2="1.39437" y2="1.01408" style="stroke:rgb(246,147,147);stroke-width:0.01" />
</g>
</svg>
