<svg xmlns="http://www.w3.org/2000/svg" viewBox="-1.5 -1.5 3 3">
<g transform="scale(1, -1)">
<path d="M0.204097 -0.127447 L0.295718 -0.036590 L0.275883 -0.016588 L0.197191 -0.017383 L0.167231 0.016946 L0.067541 0.013254 L0.051008 0.037124 L-0.047607 0.031407 L-0.092577 0.129949 L-1.118484 -0.030673 z " fill="rgb(245,195,195)" />
<path d="M-1.118484 -1.030673 L-0.118484 -1.030673 L-0.118484 -0.030673 L-1.118484 -0.030673  z" fill="none" stroke="rgb(128,128,128)" stroke-width="0.01" />
<line x1="-0.00354108" y1="-0.0651554" x2="0.0510079" y2="0.0371239" style="stroke:rgb(246,147,147);stroke-width:0.01" />
<line x1="0.0647225" y1="-0.0688406" x2="0.110088" y2="-0.00210126" style="stroke:rgb(246,147,147);stroke-width:0.01" />
<line x1="0.114075" y1="-0.0539285" x2="0.167231" y2="0.0169464" style="stroke:rgb(246,147,147);stroke-width:0.01" />
<line x1="-0.0578775" y1="-0.0407737" x2="-0.036851" y2="0.0169464" style="stroke:rgb(246,147,147);stroke-width:0.01" />
<line x1="0.234458" y1="-0.0600844" x2="0.275883" y2="-0.0165882" style="stroke:rgb(246,147,147);stroke-width:0.01" />
<line x1="0.204097" y1="-0.127447" x2="0.295718" y2="-0.0365898" style="stroke:rgb(246,147,147);stroke-width:0.01" />
<line x1="-0.109393" y1="-0.0488545" x2="-0.0925096" y2="0.0602364" style="stroke:rgb(246,147,147);stroke-width:0.01" />
<line x1="-0.118484" y1="-0.0894962" x2="-0.0925769" y2="0.129949" style="stroke:rgb(246,147,147);stroke-width:0.01" />
<line x1="-0.113458" y1="-0.0356978" x2="-0.112272" y2="-0.0244615" style="stroke:rgb(246,147,147);stroke-width:0.01" />
<line x1="-0.118484" y1="-0.0706727" x2="-0.114667" y2="-0.0230391" style="stroke:rgb(246,147,147);stroke-width:0.01" />
<line x1="-0.118484" y1="-0.0894962" x2="-0.118484" y2="-0.0306727" style="stroke:rgb(246,147,147);stroke-width:0.01" />
<line x1="-0.113458" y1="-0.0356978" x2="-0.114667" y2="-0.0230391" style="stroke:rgb(246,147,147);stroke-width:0.01" />
<line x1="-0.109393" y1="-0.0488545" x2="-0.112272" y2="-0.0244615" style="stroke:rgb(246,147,147);stroke-width:0.01" />
<line x1="-0.0578775" y1="-0.0407737" x2="-0.0925096" y2="0.0602364" style="stroke:rgb(246,147,147);stroke-width:0.01" />
<line x1="-0.00354108" y1="-0.0651554" x2="-0.0925769" y2="0.129949" style="stroke:rgb(246,147,147);stroke-width:0.01" />
<line x1="-0.000836547" y1="-0.0600844" x2="-0.036851" y2="0.0169464" style="stroke:rgb(246,147,147);stroke-width:0.01" />
<line x1="0.0647225" y1="-0.0688406" x2="0.0278579" y2="-0.00628244" style="stroke:rgb(246,147,147);stroke-width:0.01" />
<line x1="0.114075" y1="-0.0539285" x2="0.0510079" y2="0.0371239" style="stroke:rgb(246,147,147);stroke-width:0.01" />
<line x1="0.204097" y1="-0.127447" x2="0.110088" y2="-0.00210126" style="stroke:rgb(246,147,147);stroke-width:0.01" />
<line x1="-1.11848" y1="-0.0306727" x2="-0.0925769" y2="0.129949" style="stroke:rgb(246,147,147);stroke-width:0.01" />
<line x1="-1.11848" y1="-0.0306727" x2="-0.0925096" y2="0.0602364" style="stroke:rgb(246,147,147);stroke-width:0.01" />
<line x1="0.204097" y1="-0.127447" x2="-1.11848" y2="-0.0306727" style="stroke:rgb(246,147,147);stroke-width:0.01" />
<line x1="-0.118484" y1="-0.0894962" x2="-1.11848" y2="-0.0306727" style="stroke:rgb(246,147,147);stroke-width:0.01" />
<line x1="-1.11848" y1="-0.0306727" x2="0.0510079" y2="0.0371239" style="stroke:rgb(246,147,147);stroke-width:0.01" />
<line x1="-1.11848" y1="-0.0306727" x2="-0.036851" y2="0.0169464" style="stroke:rgb(246,147,147);stroke-width:0.01" />
<line x1="-0.118484" y1="-0.0706727" x2="-1.11848" y2="-0.0306727" style="stroke:rgb(246,147,147);stroke-width:0.01" />
<line x1="-1.11848" y1="-0.0306727" x2="0.167231" y2="0.0169464" style="stroke:rgb(246,147,147);stroke-width:0.01" />
<line x1="0.0647225" y1="-0.0688406" x2="-1.11848" y2="-0.0306727" style="stroke:rgb(246,147,147);stroke-width:0.01" />
<line x1="-0.00354108" y1="-0.0651554" x2="-1.11848" y2="-0.0306727" style="stroke:rgb(246,147,147);stroke-width:0.01" />
<line x1="-0.000836547" y1="-0.0600844" x2="-1.11848" y2="-0.0306727" style="stroke:rgb(246,147,147);stroke-width:0.01" />
<line x1="-1.11848" y1="-0.0306727" x2="0.110088" y2="-0.00210126" style="stroke:rgb(246,147,147);stroke-width:0.01" />
<line x1="0.234458" y1="-0.0600844" x2="-1.11848" y2="-0.0306727" style="stroke:rgb(246,147,147);stroke-width:0.01" />
<line x1="-1.11848" y1="-0.0306727" x2="0.0278579" y2="-0.00628244" style="stroke:rgb(246,147,147);stroke-width:0.01" />
<line x1="0.114075" y1="-0.0539285" x2="-1.11848" y2="-0.0306727" style="stroke:rgb(246,147,147);stroke-width:0.01" />
<line x1="-0.109393" y1="-0.0488545" x2="-1.11848" y2="-0.0306727" style="stroke:rgb(246,147,147);stroke-width:0.01" />
<line x1="-1.11848" y1="-0.0306727" x2="0.275883" y2="-0.0165882" style="stroke:rgb(246,147,147);stroke-width:0.01" />
<line x1="-0.0578775" y1="-0.0407737" x2="-1.11848" y2="-0.0306727" style="stroke:rgb(246,147,147);stroke-width:0.01" />
<line x1="-1.11848" y1="-0.0306727" x2="-0.114667" y2="-0.0230391" style="stroke:rgb(246,147,147);stroke-width:0.01" />
<line x1="-1.11848" y1="-0.0306727" x2="-0.112272" y2="-0.0244615" style="stroke:rgb(246,147,147);stroke-width:0.01" />
<line x1="-0.113458" y1="-0.0356978" x2="-1.11848" y2="-0.0306727" style="stroke:rgb(246,147,147);stroke-width:0.01" />
<line x1="-1.11848" y1="-0.0306727" x2="-0.118484" y2="-0.0306727" style="stroke:rgb(246,147,147);stroke-width:0.01" />
<line x1="0.234458" y1="-0.0600844" x2="0.167231" y2="0.0169464" style="stroke:rgb(246,147,147);stroke-width:0.01" />
<line x1="0.295718" y1="-0.0365898" x2="0.275883" y2="-0.0165882" style="stroke:rgb(246,147,147);stroke-width:0.01" />
</g>
</svg>
