<svg xmlns="http://www.w3.org/2000/svg" viewBox="-1.5 -1.5 3 3">
<g transform="scale(1, -1)">
<path d="M0.066026 -0.171013 L0.113149 -0.115740 L0.224594 -0.129286 L0.335551 -0.026750 L0.259335 0.055725 L0.104649 0.052632 L0.076282 0.095654 L-0.045735 0.088604 L-0.056287 0.121186 L-1.077564 0.028987 z " fill="rgb(245,195,195)" />
<path d="M-1.077564 -0.971013 L-0.077564 -0.971013 L-0.077564 0.028987 L-1.077564 0.028987  z" fill="none" stroke="rgb(128,128,128)" stroke-width="0.01" />
<line x1="0.034168" y1="0.0122277" x2="0.0762823" y2="0.0956541" style="stroke:rgb(246,147,147);stroke-width:0.01" />
<line x1="-0.0184505" y1="0.0043569" x2="0.00664671" y2="0.0710927" style="stroke:rgb(246,147,147);stroke-width:0.01" />
<line x1="0.0660259" y1="-0.171013" x2="0.259335" y2="0.0557254" style="stroke:rgb(246,147,147);stroke-width:0.01" />
<line x1="-0.03141" y1="0.0136028" x2="-0.0184505" y2="0.053618" style="stroke:rgb(246,147,147);stroke-width:0.01" />
<line x1="-0.0387289" y1="0.0192787" x2="-0.0358972" y2="0.0289874" style="stroke:rgb(246,147,147);stroke-width:0.01" />
<line x1="0.224594" y1="-0.129286" x2="0.335551" y2="-0.0267503" style="stroke:rgb(246,147,147);stroke-width:0.01" />
<line x1="-0.0572936" y1="-0.0250666" x2="-0.0421656" y2="0.0319373" style="stroke:rgb(246,147,147);stroke-width:0.01" />
<line x1="-0.0696898" y1="0.0211134" x2="-0.0562872" y2="0.121186" style="stroke:rgb(246,147,147);stroke-width:0.01" />
<line x1="-0.0740795" y1="0.0255031" x2="-0.0708524" y2="0.0625445" style="stroke:rgb(246,147,147);stroke-width:0.01" />
<line x1="-0.0775638" y1="-0.0080496" x2="-0.0745965" y2="0.0319548" style="stroke:rgb(246,147,147);stroke-width:0.01" />
<line x1="-0.0775638" y1="-0.00549532" x2="-0.0734988" y2="0.0533777" style="stroke:rgb(246,147,147);stroke-width:0.01" />
<line x1="-0.0775638" y1="-0.0080496" x2="-0.0775638" y2="0.0289874" style="stroke:rgb(246,147,147);stroke-width:0.01" />
<line x1="-0.0740795" y1="0.0255031" x2="-0.0745965" y2="0.0319548" style="stroke:rgb(246,147,147);stroke-width:0.01" />
<line x1="-0.0696898" y1="0.0211134" x2="-0.0734988" y2="0.0533777" style="stroke:rgb(246,147,147);stroke-width:0.01" />
<line x1="-0.0572936" y1="-0.0250666" x2="-0.0708524" y2="0.0625445" style="stroke:rgb(246,147,147);stroke-width:0.01" />
<line x1="-0.0387289" y1="0.0192787" x2="-0.0421656" y2="0.0319373" style="stroke:rgb(246,147,147);stroke-width:0.01" />
<line x1="-0.03141" y1="0.0136028" x2="-0.0358972" y2="0.0289874" style="stroke:rgb(246,147,147);stroke-width:0.01" />
<line x1="-0.0184505" y1="0.0043569" x2="-0.0562872" y2="0.121186" style="stroke:rgb(246,147,147);stroke-width:0.01" />
<line x1="0.0660259" y1="-0.171013" x2="-0.0184505" y2="0.053618" style="stroke:rgb(246,147,147);stroke-width:0.01" />
<line x1="0.034168" y1="0.0122277" x2="0.00664671" y2="0.0710927" style="stroke:rgb(246,147,147);stroke-width:0.01" />
<line x1="0.224594" y1="-0.129286" x2="0.0762823" y2="0.0956541" style="stroke:rgb(246,147,147);stroke-width:0.01" />
<line x1="0.0660259" y1="-0.171013" x2="-1.07756" y2="0.0289874" style="stroke:rgb(246,147,147);stroke-width:0.01" />
<line x1="0.224594" y1="-0.129286" x2="-1.07756" y2="0.0289874" style="stroke:rgb(246,147,147);stroke-width:0.01" />
<line x1="-1.07756" y1="0.0289874" x2="-0.0562872" y2="0.121186" style="stroke:rgb(246,147,147);stroke-width:0.01" />
<line x1="-1.07756" y1="0.0289874" x2="0.0762823" y2="0.0956541" style="stroke:rgb(246,147,147);stroke-width:0.01" />
<line x1="-0.0572936" y1="-0.0250666" x2="-1.07756" y2="0.0289874" style="stroke:rgb(246,147,147);stroke-width:0.01" />
<line x1="-1.07756" y1="0.0289874" x2="0.00664671" y2="0.0710927" style="stroke:rgb(246,147,147);stroke-width:0.01" />
<line x1="-0.0775638" y1="-0.0080496" x2="-1.07756" y2="0.0289874" style="stroke:rgb(246,147,147);stroke-width:0.01" />
<line x1="-0.0775638" y1="-0.00549532" x2="-1.07756" y2="0.0289874" style="stroke:rgb(246,147,147);stroke-width:0.01" />
<line x1="-1.07756" y1="0.0289874" x2="-0.0708524" y2="0.0625445" style="stroke:rgb(246,147,147);stroke-width:0.01" />
<line x1="-1.07756" y1="0.0289874" x2="-0.0734988" y2="0.0533777" style="stroke:rgb(246,147,147);stroke-width:0.01" />
<line x1="-1.07756" y1="0.0289874" x2="-0.0184505" y2="0.053618" style="stroke:rgb(246,147,147);stroke-width:0.01" />
<line x1="-0.0184505" y1="0.0043569" x2="-1.07756" y2="0.0289874" style="stroke:rgb(246,147,147);stroke-width:0.01" />
<line x1="-1.07756" y1="0.0289874" x2="0.259335" y2="0.0557254" style="stroke:rgb(246,147,147);stroke-width:0.01" />
<line x1="0.034168" y1="0.0122277" x2="-1.07756" y2="0.0289874" style="stroke:rgb(246,147,147);stroke-width:0.01" />
<line x1="-0.03141" y1="0.0136028" x2="-1.07756" y2="0.0289874" style="stroke:rgb(246,147,147);stroke-width:0.01" />
<line x1="-0.0387289" y1="0.0192787" x2="-1.07756" y2="0.0289874" style="stroke:rgb(246,147,147);stroke-width:0.01" />
<line x1="-0.0696898" y1="0.0211134" x2="-1.07756" y2="0.0289874" style="stroke:rgb(246,147,147);stroke-width:0.01" />
<line x1="-0.0740795" y1="0.0255031" x2="-1.07756" y2="0.0289874" style="stroke:rgb(246,147,147);stroke-width:0.01" />
<line x1="-1.07756" y1="0.0289874" x2="-0.0745965" y2="0.0319548" style="stroke:rgb(246,147,147);stroke-width:0.01" />
<line x1="-1.07756" y1="0.0289874" x2="-0.0421656" y2="0.0319373" style="stroke:rgb(246,147,147);stroke-width:0.01" />
<line x1="-1.07756" y1="0.0289874" x2="-0.0358972" y2="0.0289874" style="stroke:rgb(246,147,147);stroke-width:0.01" />
<line x1="0.335551" y1="-0.0267503" x2="0.259335" y2="0.0557254" style="stroke:rgb(246,147,147);stroke-width:0.01" />
</g>
</svg>
