<svg xmlns="http://www.w3.org/2000/svg" viewBox="-1.5 -1.5 3 3">
<g transform="scale(1, -1)">
<path d="M0.426091 -0.175782 L0.258650 0.047474 L0.148134 0.045389 L0.141034 0.058701 L-0.973909 0.024218 z " fill="rgb(245,195,195)" />
<path d="M-0.973909 -0.975782 L0.026091 -0.975782 L0.026091 0.024218 L-0.973909 0.024218  z" fill="none" stroke="rgb(128,128,128)" stroke-width="0.01" />
<line x1="0.159425" y1="-0.0957818" x2="0.25865" y2="0.047474" style="stroke:rgb(246,147,147);stroke-width:0.01" />
<line x1="0.108396" y1="-0.0128189" x2="0.141034" y2="0.0587009" style="stroke:rgb(246,147,147);stroke-width:0.01" />
<line x1="0.0863324" y1="-0.00389429" x2="0.103014" y2="0.0396028" style="stroke:rgb(246,147,147);stroke-width:0.01" />
<line x1="0.0778155" y1="-0.0102646" x2="0.0923897" y2="0.029743" style="stroke:rgb(246,147,147);stroke-width:0.01" />
<line x1="0.0653071" y1="-0.0051936" x2="0.0758839" y2="0.0283675" style="stroke:rgb(246,147,147);stroke-width:0.01" />
<line x1="0.0380674" y1="-0.0536261" x2="0.062455" y2="0.0424" style="stroke:rgb(246,147,147);stroke-width:0.01" />
<line x1="0.0383363" y1="-0.0206798" x2="0.0522923" y2="0.0460522" style="stroke:rgb(246,147,147);stroke-width:0.01" />
<line x1="0.0260914" y1="-0.0102646" x2="0.0301564" y2="0.0486084" style="stroke:rgb(246,147,147);stroke-width:0.01" />
<line x1="0.0260914" y1="-0.0102646" x2="0.0260914" y2="0.0242182" style="stroke:rgb(246,147,147);stroke-width:0.01" />
<line x1="0.0380674" y1="-0.0536261" x2="0.0293809" y2="0.0373761" style="stroke:rgb(246,147,147);stroke-width:0.01" />
<line x1="0.0383363" y1="-0.0206798" x2="0.0301564" y2="0.0486084" style="stroke:rgb(246,147,147);stroke-width:0.01" />
<line x1="0.0653071" y1="-0.0051936" x2="0.0522923" y2="0.0460522" style="stroke:rgb(246,147,147);stroke-width:0.01" />
<line x1="0.0778155" y1="-0.0102646" x2="0.062455" y2="0.0424" style="stroke:rgb(246,147,147);stroke-width:0.01" />
<line x1="0.0863324" y1="-0.00389429" x2="0.0758839" y2="0.0283675" style="stroke:rgb(246,147,147);stroke-width:0.01" />
<line x1="0.108396" y1="-0.0128189" x2="0.0923897" y2="0.029743" style="stroke:rgb(246,147,147);stroke-width:0.01" />
<line x1="0.159425" y1="-0.0957818" x2="0.103014" y2="0.0396028" style="stroke:rgb(246,147,147);stroke-width:0.01" />
<line x1="0.195583" y1="-0.0435784" x2="0.141034" y2="0.0587009" style="stroke:rgb(246,147,147);stroke-width:0.01" />
<line x1="0.426091" y1="-0.175782" x2="0.25865" y2="0.047474" style="stroke:rgb(246,147,147);stroke-width:0.01" />
<line x1="0.426091" y1="-0.175782" x2="-0.973909" y2="0.0242182" style="stroke:rgb(246,147,147);stroke-width:0.01" />
<line x1="0.159425" y1="-0.0957818" x2="-0.973909" y2="0.0242182" style="stroke:rgb(246,147,147);stroke-width:0.01" />
<line x1="0.0380674" y1="-0.0536261" x2="-0.973909" y2="0.0242182" style="stroke:rgb(246,147,147);stroke-width:0.01" />
<line x1="0.195583" y1="-0.0435784" x2="-0.973909" y2="0.0242182" style="stroke:rgb(246,147,147);stroke-width:0.01" />
<line x1="0.0383363" y1="-0.0206798" x2="-0.973909" y2="0.0242182" style="stroke:rgb(246,147,147);stroke-width:0.01" />
<line x1="0.0260914" y1="-0.0102646" x2="-0.973909" y2="0.0242182" style="stroke:rgb(246,147,147);stroke-width:0.01" />
<line x1="0.108396" y1="-0.0128189" x2="-0.973909" y2="0.0242182" style="stroke:rgb(246,147,147);stroke-width:0.01" />
<line x1="0.0778155" y1="-0.0102646" x2="-0.973909" y2="0.0242182" style="stroke:rgb(246,147,147);stroke-width:0.01" />
<line x1="-0.973909" y1="0.0242182" x2="0.141034" y2="0.0587009" style="stroke:rgb(246,147,147);stroke-width:0.01" />
<line x1="0.0653071" y1="-0.0051936" x2="-0.973909" y2="0.0242182" style="stroke:rgb(246,147,147);stroke-width:0.01" />
<line x1="0.0863324" y1="-0.00389429" x2="-0.973909" y2="0.0242182" style="stroke:rgb(246,147,147);stroke-width:0.01" />
<line x1="-0.973909" y1="0.0242182" x2="0.0301564" y2="0.0486084" style="stroke:rgb(246,147,147);stroke-width:0.01" />
<line x1="-0.973909" y1="0.0242182" x2="0.0522923" y2="0.0460522" style="stroke:rgb(246,147,147);stroke-width:0.01" />
<line x1="-0.973909" y1="0.0242182" x2="0.25865" y2="0.047474" style="stroke:rgb(246,147,147);stroke-width:0.01" />
<line x1="-0.973909" y1="0.0242182" x2="0.062455" y2="0.0424" style="stroke:rgb(246,147,147);stroke-width:0.01" />
<line x1="-0.973909" y1="0.0242182" x2="0.103014" y2="0.0396028" style="stroke:rgb(246,147,147);stroke-width:0.01" />
<line x1="-0.973909" y1="0.0242182" x2="0.0293809" y2="0.0373761" style="stroke:rgb(246,147,147);stroke-width:0.01" />
<line x1="-0.973909" y1="0.0242182" x2="0.0923897" y2="0.029743" style="stroke:rgb(246,147,147);stroke-width:0.01" />
<line x1="-0.973909" y1="0.0242182" x2="0.0758839" y2="0.0283675" style="stroke:rgb(246,147,147);stroke-width:0.01" />
<line x1="-0.973909" y1="0.0242182" x2="0.0260914" y2="0.0242182" style="stroke:rgb(246,147,147);stroke-width:0.01" />
</g>
</svg>
