<svg xmlns="http://www.w3.org/2000/svg" viewBox="-1.5 -1.5 3 3">
<g transform="scale(1, -1)">
<path d="M1.400000 0.800000 L1.232558 1.023256 L1.122042 1.021171 L1.114943 1.034483 L0.000000 1.000000 z " fill="rgb(245,195,195)" />
<path d="M0.000000 0.000000 L1.000000 0.000000 L1.000000 1.000000 L0.000000 1.000000  z" fill="none" stroke="rgb(128,128,128)" stroke-width="0.01" />
<line x1="1.13333" y1="0.88" x2="1.23256" y2="1.02326" style="stroke:rgb(246,147,147);stroke-width:0.01" />
<line x1="1.0823" y1="0.962963" x2="1.11494" y2="1.03448" style="stroke:rgb(246,147,147);stroke-width:0.01" />
<line x1="1.06024" y1="0.971888" x2="1.07692" y2="1.01538" style="stroke:rgb(246,147,147);stroke-width:0.01" />
<line x1="1.05172" y1="0.965517" x2="1.0663" y2="1.00552" style="stroke:rgb(246,147,147);stroke-width:0.01" />
<line x1="1.03922" y1="0.970588" x2="1.04979" y2="1.00415" style="stroke:rgb(246,147,147);stroke-width:0.01" />
<line x1="1.01198" y1="0.922156" x2="1.03636" y2="1.01818" style="stroke:rgb(246,147,147);stroke-width:0.01" />
<line x1="1.01224" y1="0.955102" x2="1.0262" y2="1.02183" style="stroke:rgb(246,147,147);stroke-width:0.01" />
<line x1="1" y1="0.965517" x2="1.00407" y2="1.02439" style="stroke:rgb(246,147,147);stroke-width:0.01" />
<line x1="1" y1="0.965517" x2="1" y2="1" style="stroke:rgb(246,147,147);stroke-width:0.01" />
<line x1="1.01198" y1="0.922156" x2="1.00329" y2="1.01316" style="stroke:rgb(246,147,147);stroke-width:0.01" />
<line x1="1.01224" y1="0.955102" x2="1.00407" y2="1.02439" style="stroke:rgb(246,147,147);stroke-width:0.01" />
<line x1="1.03922" y1="0.970588" x2="1.0262" y2="1.02183" style="stroke:rgb(246,147,147);stroke-width:0.01" />
<line x1="1.05172" y1="0.965517" x2="1.03636" y2="1.01818" style="stroke:rgb(246,147,147);stroke-width:0.01" />
<line x1="1.06024" y1="0.971888" x2="1.04979" y2="1.00415" style="stroke:rgb(246,147,147);stroke-width:0.01" />
<line x1="1.0823" y1="0.962963" x2="1.0663" y2="1.00552" style="stroke:rgb(246,147,147);stroke-width:0.01" />
<line x1="1.13333" y1="0.88" x2="1.07692" y2="1.01538" style="stroke:rgb(246,147,147);stroke-width:0.01" />
<line x1="1.16949" y1="0.932203" x2="1.11494" y2="1.03448" style="stroke:rgb(246,147,147);stroke-width:0.01" />
<line x1="1.4" y1="0.8" x2="1.23256" y2="1.02326" style="stroke:rgb(246,147,147);stroke-width:0.01" />
<line x1="1.4" y1="0.8" x2="0" y2="1" style="stroke:rgb(246,147,147);stroke-width:0.01" />
<line x1="1.13333" y1="0.88" x2="0" y2="1" style="stroke:rgb(246,147,147);stroke-width:0.01" />
<line x1="1.01198" y1="0.922156" x2="0" y2="1" style="stroke:rgb(246,147,147);stroke-width:0.01" />
<line x1="1.16949" y1="0.932203" x2="0" y2="1" style="stroke:rgb(246,147,147);stroke-width:0.01" />
<line x1="1.01224" y1="0.955102" x2="0" y2="1" style="stroke:rgb(246,147,147);stroke-width:0.01" />
<line x1="1" y1="0.965517" x2="0" y2="1" style="stroke:rgb(246,147,147);stroke-width:0.01" />
<line x1="1.0823" y1="0.962963" x2="0" y2="1" style="stroke:rgb(246,147,147);stroke-width:0.01" />
<line x1="1.05172" y1="0.965517" x2="0" y2="1" style="stroke:rgb(246,147,147);stroke-width:0.01" />
<line x1="0" y1="1" x2="1.11494" y2="1.03448" style="stroke:rgb(246,147,147);stroke-width:0.01" />
<line x1="1.03922" y1="0.970588" x2="0" y2="1" style="stroke:rgb(246,147,147);stroke-width:0.01" />
<line x1="1.06024" y1="0.971888" x2="0" y2="1" style="stroke:rgb(246,147,147);stroke-width:0.01" />
<line x1="0" y1="1" x2="1.00407" y2="1.02439" style="stroke:rgb(246,147,147);stroke-width:0.01" />
<line x1="0" y1="1" x2="1.0262" y2="1.02183" style="stroke:rgb(246,147,147);stroke-width:0.01" />
<line x1="0" y1="1" x2="1.23256" y2="1.02326" style="stroke:rgb(246,147,147);stroke-width:0.01" />
<line x1="0" y1="1" x2="1.03636" y2="1.01818" style="stroke:rgb(246,147,147);stroke-width:0.01" />
<line x1="0" y1="1" x2="1.07692" y2="1.01538" style="stroke:rgb(246,147,147);stroke-width:0.01" />
<line x1="0" y1="1" x2="1.00329" y2="1.01316" style="stroke:rgb(246,147,147);stroke-width:0.01" />
<line x1="0" y1="1" x2="1.0663" y2="1.00552" style="stroke:rgb(246,147,147);stroke-width:0.01" />
<line x1="0" y1="1" x2="1.04979" y2="1.00415" style="stroke:rgb(246,147,147);stroke-width:0.01" />
<line x1="0" y1="1" x2="1" y2="1" style="stroke:rgb(246,147,147);stroke-width:0.01" />
</g>
</svg>
