<svg xmlns="http://www.w3.org/2000/svg" viewBox="-1.5 -1.5 3 3">
<g transform="scale(1, -1)">
<path d="M1.072072 0.858859 L1.097117 0.902479 L1.125000 0.900000 L1.135874 0.916887 L1.322581 0.903226 L1.414201 0.994083 L1.246696 1.162996 L0.000000 1.000000 z " fill="rgb(245,195,195)" />
<path d="M0.000000 0.000000 L1.000000 0.000000 L1.000000 1.000000 L0.000000 1.000000  z" fill="none" stroke="rgb(128,128,128)" stroke-width="0.01" />
<line x1="1.07207" y1="0.858859" x2="1.2467" y2="1.163" style="stroke:rgb(246,147,147);stroke-width:0.01" />
<line x1="1.125" y1="0.9" x2="1.19355" y2="1.00645" style="stroke:rgb(246,147,147);stroke-width:0.01" />
<line x1="1.22222" y1="0.962963" x2="1.25" y2="1" style="stroke:rgb(246,147,147);stroke-width:0.01" />
<line x1="1.03509" y1="0.935673" x2="1.06897" y2="1.03448" style="stroke:rgb(246,147,147);stroke-width:0.01" />
<line x1="1.32258" y1="0.903226" x2="1.4142" y2="0.994083" style="stroke:rgb(246,147,147);stroke-width:0.01" />
<line x1="1.01439" y1="0.971223" x2="1.02643" y2="1.03084" style="stroke:rgb(246,147,147);stroke-width:0.01" />
<line x1="1.00432" y1="0.971922" x2="1.01047" y2="1.02094" style="stroke:rgb(246,147,147);stroke-width:0.01" />
<line x1="1.00562" y1="0.988764" x2="1.00844" y2="1.01266" style="stroke:rgb(246,147,147);stroke-width:0.01" />
<line x1="1" y1="0.96" x2="1.00382" y2="1.00763" style="stroke:rgb(246,147,147);stroke-width:0.01" />
<line x1="1" y1="0.967742" x2="1.00223" y2="1.00223" style="stroke:rgb(246,147,147);stroke-width:0.01" />
<line x1="1" y1="0.96" x2="1" y2="1" style="stroke:rgb(246,147,147);stroke-width:0.01" />
<line x1="1.00432" y1="0.971922" x2="1.00223" y2="1.00223" style="stroke:rgb(246,147,147);stroke-width:0.01" />
<line x1="1.00562" y1="0.988764" x2="1.00382" y2="1.00763" style="stroke:rgb(246,147,147);stroke-width:0.01" />
<line x1="1.01439" y1="0.971223" x2="1.00844" y2="1.01266" style="stroke:rgb(246,147,147);stroke-width:0.01" />
<line x1="1.01681" y1="0.983193" x2="1.01047" y2="1.02094" style="stroke:rgb(246,147,147);stroke-width:0.01" />
<line x1="1.03509" y1="0.935673" x2="1.02091" y2="1.00348" style="stroke:rgb(246,147,147);stroke-width:0.01" />
<line x1="1.07207" y1="0.858859" x2="1.02643" y2="1.03084" style="stroke:rgb(246,147,147);stroke-width:0.01" />
<line x1="1.125" y1="0.9" x2="1.06897" y2="1.03448" style="stroke:rgb(246,147,147);stroke-width:0.01" />
<line x1="1.22222" y1="0.962963" x2="1.19355" y2="1.00645" style="stroke:rgb(246,147,147);stroke-width:0.01" />
<line x1="1.32258" y1="0.903226" x2="1.25" y2="1" style="stroke:rgb(246,147,147);stroke-width:0.01" />
<line x1="1.07207" y1="0.858859" x2="0" y2="1" style="stroke:rgb(246,147,147);stroke-width:0.01" />
<line x1="0" y1="1" x2="1.2467" y2="1.163" style="stroke:rgb(246,147,147);stroke-width:0.01" />
<line x1="1.125" y1="0.9" x2="0" y2="1" style="stroke:rgb(246,147,147);stroke-width:0.01" />
<line x1="1.32258" y1="0.903226" x2="0" y2="1" style="stroke:rgb(246,147,147);stroke-width:0.01" />
<line x1="1.03509" y1="0.935673" x2="0" y2="1" style="stroke:rgb(246,147,147);stroke-width:0.01" />
<line x1="1" y1="0.96" x2="0" y2="1" style="stroke:rgb(246,147,147);stroke-width:0.01" />
<line x1="0" y1="1" x2="1.06897" y2="1.03448" style="stroke:rgb(246,147,147);stroke-width:0.01" />
<line x1="1" y1="0.967742" x2="0" y2="1" style="stroke:rgb(246,147,147);stroke-width:0.01" />
<line x1="1.22222" y1="0.962963" x2="0" y2="1" style="stroke:rgb(246,147,147);stroke-width:0.01" />
<line x1="0" y1="1" x2="1.02643" y2="1.03084" style="stroke:rgb(246,147,147);stroke-width:0.01" />
<line x1="1.01439" y1="0.971223" x2="0" y2="1" style="stroke:rgb(246,147,147);stroke-width:0.01" />
<line x1="1.00432" y1="0.971922" x2="0" y2="1" style="stroke:rgb(246,147,147);stroke-width:0.01" />
<line x1="0" y1="1" x2="1.01047" y2="1.02094" style="stroke:rgb(246,147,147);stroke-width:0.01" />
<line x1="1.01681" y1="0.983193" x2="0" y2="1" style="stroke:rgb(246,147,147);stroke-width:0.01" />
<line x1="0" y1="1" x2="1.00844" y2="1.01266" style="stroke:rgb(246,147,147);stroke-width:0.01" />
<line x1="1.00562" y1="0.988764" x2="0" y2="1" style="stroke:rgb(246,147,147);stroke-width:0.01" />
<line x1="0" y1="1" x2="1.00382" y2="1.00763" style="stroke:rgb(246,147,147);stroke-width:0.01" />
<line x1="0" y1="1" x2="1.19355" y2="1.00645" style="stroke:rgb(246,147,147);stroke-width:0.01" />
<line x1="0" y1="1" x2="1.02091" y2="1.00348" style="stroke:rgb(246,147,147);stroke-width:0.01" />
<line x1="0" y1="1" x2="1.00223" y2="1.00223" style="stroke:rgb(246,147,147);stroke-width:0.01" />
<line x1="0" y1="1" x2="1.25" y2="1" style="stroke:rgb(246,147,147);stroke-width:0.01" />
<line x1="1.4142" y1="0.994083" x2="1.2467" y2="1.163" style="stroke:rgb(246,147,147);stroke-width:0.01" />
</g>
</svg>
