<svg xmlns="http://www.w3.org/2000/svg" viewBox="-1.5 -1.5 3 3">
<g transform="scale(1, -1)">
<path d="M-0.017847 -0.101718 L0.006401 -0.043522 L0.063579 -0.047140 L0.071032 -0.034160 L0.250903 -0.043384 L0.364018 0.079020 L0.164987 0.071170 L0.146025 0.096453 L-1.049097 0.023282 z " fill="rgb(245,195,195)" />
<path d="M-1.049097 -0.976718 L-0.049097 -0.976718 L-0.049097 0.023282 L-1.049097 0.023282  z" fill="none" stroke="rgb(128,128,128)" stroke-width="0.01" />
<line x1="0.0635789" y1="-0.0471404" x2="0.146025" y2="0.0964529" style="stroke:rgb(246,147,147);stroke-width:0.01" />
<line x1="0.125321" y1="2.63682e-05" x2="0.168294" y2="0.0667604" style="stroke:rgb(246,147,147);stroke-width:0.01" />
<line x1="0.0431538" y1="-0.0320684" x2="0.0897917" y2="0.0603192" style="stroke:rgb(246,147,147);stroke-width:0.01" />
<line x1="-0.0178472" y1="-0.101718" x2="0.0342362" y2="0.0232822" style="stroke:rgb(246,147,147);stroke-width:0.01" />
<line x1="0.250903" y1="-0.0433845" x2="0.364018" y2="0.0790199" style="stroke:rgb(246,147,147);stroke-width:0.01" />
<line x1="-0.00814153" y1="-0.000608603" x2="0.00955387" y2="0.0555402" style="stroke:rgb(246,147,147);stroke-width:0.01" />
<line x1="-0.0220701" y1="0.0142732" x2="-0.017295" y2="0.0338829" style="stroke:rgb(246,147,147);stroke-width:0.01" />
<line x1="-0.0436476" y1="0.00420861" x2="-0.0351111" y2="0.0722332" style="stroke:rgb(246,147,147);stroke-width:0.01" />
<line x1="-0.0490972" y1="-0.0293494" x2="-0.0409671" y2="0.0476724" style="stroke:rgb(246,147,147);stroke-width:0.01" />
<line x1="-0.0490972" y1="-0.0112006" x2="-0.0460942" y2="0.0322912" style="stroke:rgb(246,147,147);stroke-width:0.01" />
<line x1="-0.0490972" y1="-0.0293494" x2="-0.0490972" y2="0.0232822" style="stroke:rgb(246,147,147);stroke-width:0.01" />
<line x1="-0.0436476" y1="0.00420861" x2="-0.0460942" y2="0.0322912" style="stroke:rgb(246,147,147);stroke-width:0.01" />
<line x1="-0.0178472" y1="-0.101718" x2="-0.0409671" y2="0.0476724" style="stroke:rgb(246,147,147);stroke-width:0.01" />
<line x1="-0.0220701" y1="0.0142732" x2="-0.0351111" y2="0.0722332" style="stroke:rgb(246,147,147);stroke-width:0.01" />
<line x1="-0.00814153" y1="-0.000608603" x2="-0.017295" y2="0.0338829" style="stroke:rgb(246,147,147);stroke-width:0.01" />
<line x1="0.0431538" y1="-0.0320684" x2="0.00955387" y2="0.0555402" style="stroke:rgb(246,147,147);stroke-width:0.01" />
<line x1="0.0635789" y1="-0.0471404" x2="0.0342362" y2="0.0232822" style="stroke:rgb(246,147,147);stroke-width:0.01" />
<line x1="0.125321" y1="2.63682e-05" x2="0.0897917" y2="0.0603192" style="stroke:rgb(246,147,147);stroke-width:0.01" />
<line x1="0.250903" y1="-0.0433845" x2="0.146025" y2="0.0964529" style="stroke:rgb(246,147,147);stroke-width:0.01" />
<line x1="-0.0178472" y1="-0.101718" x2="-1.0491" y2="0.0232822" style="stroke:rgb(246,147,147);stroke-width:0.01" />
<line x1="0.0635789" y1="-0.0471404" x2="-1.0491" y2="0.0232822" style="stroke:rgb(246,147,147);stroke-width:0.01" />
<line x1="-1.0491" y1="0.0232822" x2="0.146025" y2="0.0964529" style="stroke:rgb(246,147,147);stroke-width:0.01" />
<line x1="-0.0490972" y1="-0.0293494" x2="-1.0491" y2="0.0232822" style="stroke:rgb(246,147,147);stroke-width:0.01" />
<line x1="0.250903" y1="-0.0433845" x2="-1.0491" y2="0.0232822" style="stroke:rgb(246,147,147);stroke-width:0.01" />
<line x1="0.0431538" y1="-0.0320684" x2="-1.0491" y2="0.0232822" style="stroke:rgb(246,147,147);stroke-width:0.01" />
<line x1="-1.0491" y1="0.0232822" x2="-0.0351111" y2="0.0722332" style="stroke:rgb(246,147,147);stroke-width:0.01" />
<line x1="-1.0491" y1="0.0232822" x2="0.364018" y2="0.0790199" style="stroke:rgb(246,147,147);stroke-width:0.01" />
<line x1="-1.0491" y1="0.0232822" x2="0.168294" y2="0.0667604" style="stroke:rgb(246,147,147);stroke-width:0.01" />
<line x1="-0.0490972" y1="-0.0112006" x2="-1.0491" y2="0.0232822" style="stroke:rgb(246,147,147);stroke-width:0.01" />
<line x1="-1.0491" y1="0.0232822" x2="0.0897917" y2="0.0603192" style="stroke:rgb(246,147,147);stroke-width:0.01" />
<line x1="-1.0491" y1="0.0232822" x2="0.00955387" y2="0.0555402" style="stroke:rgb(246,147,147);stroke-width:0.01" />
<line x1="-1.0491" y1="0.0232822" x2="-0.0409671" y2="0.0476724" style="stroke:rgb(246,147,147);stroke-width:0.01" />
<line x1="-0.00814153" y1="-0.000608603" x2="-1.0491" y2="0.0232822" style="stroke:rgb(246,147,147);stroke-width:0.01" />
<line x1="0.125321" y1="2.63682e-05" x2="-1.0491" y2="0.0232822" style="stroke:rgb(246,147,147);stroke-width:0.01" />
<line x1="-0.0436476" y1="0.00420861" x2="-1.0491" y2="0.0232822" style="stroke:rgb(246,147,147);stroke-width:0.01" />
<line x1="-1.0491" y1="0.0232822" x2="-0.017295" y2="0.0338829" style="stroke:rgb(246,147,147);stroke-width:0.01" />
<line x1="-1.0491" y1="0.0232822" x2="-0.0460942" y2="0.0322912" style="stroke:rgb(246,147,147);stroke-width:0.01" />
<line x1="-0.0220701" y1="0.0142732" x2="-1.0491" y2="0.0232822" style="stroke:rgb(246,147,147);stroke-width:0.01" />
<line x1="-1.0491" y1="0.0232822" x2="0.0342362" y2="0.0232822" style="stroke:rgb(246,147,147);stroke-width:0.01" />
</g>
</svg>
