<svg xmlns="http://www.w3.org/2000/svg" viewBox="-1.5 -1.5 3 3">
<g transform="scale(1, -1)">
<path d="M-0.074188 -0.096553 L-0.048580 -0.048538 L0.096636 -0.056870 L0.108619 -0.042572 L0.145856 -0.044265 L0.182936 -0.003191 L0.215374 -0.003623 L0.265531 0.049041 L0.246475 0.067190 L0.020461 0.058661 L-0.010858 0.106162 L-1.148262 0.014558 z " fill="rgb(245,195,195)" />
<path d="M-1.148262 -0.985442 L-0.148262 -0.985442 L-0.148262 0.014558 L-1.148262 0.014558  z" fill="none" stroke="rgb(128,128,128)" stroke-width="0.01" />
<line x1="-0.074188" y1="-0.0965526" x2="0.0104681" y2="0.0621775" style="stroke:rgb(246,147,147);stroke-width:0.01" />
<line x1="0.0452863" y1="0.00810686" x2="0.0739601" y2="0.0515955" style="stroke:rgb(246,147,147);stroke-width:0.01" />
<line x1="-0.0587099" y1="-0.000366904" x2="-0.0108575" y2="0.106162" style="stroke:rgb(246,147,147);stroke-width:0.01" />
<line x1="-0.079821" y1="0.00315162" x2="-0.07034" y2="0.0275455" style="stroke:rgb(246,147,147);stroke-width:0.01" />
<line x1="0.0966359" y1="-0.0568701" x2="0.176941" y2="0.0389487" style="stroke:rgb(246,147,147);stroke-width:0.01" />
<line x1="0.145856" y1="-0.0442651" x2="0.246475" y2="0.06719" style="stroke:rgb(246,147,147);stroke-width:0.01" />
<line x1="0.215374" y1="-0.00362335" x2="0.265531" y2="0.0490412" style="stroke:rgb(246,147,147);stroke-width:0.01" />
<line x1="-0.119136" y1="-0.0534027" x2="-0.0909373" y2="0.0336667" style="stroke:rgb(246,147,147);stroke-width:0.01" />
<line x1="-0.114364" y1="0.00608389" x2="-0.109427" y2="0.0242672" style="stroke:rgb(246,147,147);stroke-width:0.01" />
<line x1="-0.148262" y1="-0.0479415" x2="-0.132514" y2="0.0775506" style="stroke:rgb(246,147,147);stroke-width:0.01" />
<line x1="-0.148262" y1="-0.0176996" x2="-0.14238" y2="0.073382" style="stroke:rgb(246,147,147);stroke-width:0.01" />
<line x1="-0.148262" y1="-0.0479415" x2="-0.148262" y2="0.0145585" style="stroke:rgb(246,147,147);stroke-width:0.01" />
<line x1="-0.119136" y1="-0.0534027" x2="-0.14238" y2="0.073382" style="stroke:rgb(246,147,147);stroke-width:0.01" />
<line x1="-0.114364" y1="0.00608389" x2="-0.132514" y2="0.0775506" style="stroke:rgb(246,147,147);stroke-width:0.01" />
<line x1="-0.074188" y1="-0.0965526" x2="-0.109427" y2="0.0242672" style="stroke:rgb(246,147,147);stroke-width:0.01" />
<line x1="-0.079821" y1="0.00315162" x2="-0.0909373" y2="0.0336667" style="stroke:rgb(246,147,147);stroke-width:0.01" />
<line x1="-0.0587099" y1="-0.000366904" x2="-0.07034" y2="0.0275455" style="stroke:rgb(246,147,147);stroke-width:0.01" />
<line x1="0.0452863" y1="0.00810686" x2="0.0104681" y2="0.0621775" style="stroke:rgb(246,147,147);stroke-width:0.01" />
<line x1="0.0966359" y1="-0.0568701" x2="-0.0108575" y2="0.106162" style="stroke:rgb(246,147,147);stroke-width:0.01" />
<line x1="0.145856" y1="-0.0442651" x2="0.0739601" y2="0.0515955" style="stroke:rgb(246,147,147);stroke-width:0.01" />
<line x1="-0.074188" y1="-0.0965526" x2="-1.14826" y2="0.0145585" style="stroke:rgb(246,147,147);stroke-width:0.01" />
<line x1="-1.14826" y1="0.0145585" x2="-0.0108575" y2="0.106162" style="stroke:rgb(246,147,147);stroke-width:0.01" />
<line x1="-0.119136" y1="-0.0534027" x2="-1.14826" y2="0.0145585" style="stroke:rgb(246,147,147);stroke-width:0.01" />
<line x1="-0.148262" y1="-0.0479415" x2="-1.14826" y2="0.0145585" style="stroke:rgb(246,147,147);stroke-width:0.01" />
<line x1="-1.14826" y1="0.0145585" x2="-0.132514" y2="0.0775506" style="stroke:rgb(246,147,147);stroke-width:0.01" />
<line x1="-1.14826" y1="0.0145585" x2="-0.14238" y2="0.073382" style="stroke:rgb(246,147,147);stroke-width:0.01" />
<line x1="0.0966359" y1="-0.0568701" x2="-1.14826" y2="0.0145585" style="stroke:rgb(246,147,147);stroke-width:0.01" />
<line x1="0.145856" y1="-0.0442651" x2="-1.14826" y2="0.0145585" style="stroke:rgb(246,147,147);stroke-width:0.01" />
<line x1="-1.14826" y1="0.0145585" x2="0.0104681" y2="0.0621775" style="stroke:rgb(246,147,147);stroke-width:0.01" />
<line x1="-1.14826" y1="0.0145585" x2="0.246475" y2="0.06719" style="stroke:rgb(246,147,147);stroke-width:0.01" />
<line x1="-0.148262" y1="-0.0176996" x2="-1.14826" y2="0.0145585" style="stroke:rgb(246,147,147);stroke-width:0.01" />
<line x1="-1.14826" y1="0.0145585" x2="0.0739601" y2="0.0515955" style="stroke:rgb(246,147,147);stroke-width:0.01" />
<line x1="-1.14826" y1="0.0145585" x2="0.176941" y2="0.0389487" style="stroke:rgb(246,147,147);stroke-width:0.01" />
<line x1="-1.14826" y1="0.0145585" x2="-0.0909373" y2="0.0336667" style="stroke:rgb(246,147,147);stroke-width:0.01" />
<line x1="-0.0587099" y1="-0.000366904" x2="-1.14826" y2="0.0145585" style="stroke:rgb(246,147,147);stroke-width:0.01" />
<line x1="0.215374" y1="-0.00362335" x2="-1.14826" y2="0.0145585" style="stroke:rgb(246,147,147);stroke-width:0.01" />
<line x1="-1.14826" y1="0.0145585" x2="-0.07034" y2="0.0275455" style="stroke:rgb(246,147,147);stroke-width:0.01" />
<line x1="-0.079821" y1="0.00315162" x2="-1.14826" y2="0.0145585" style="stroke:rgb(246,147,147);stroke-width:0.01" />
<line x1="-1.14826" y1="0.0145585" x2="-0.109427" y2="0.0242672" style="stroke:rgb(246,147,147);stroke-width:0.01" />
<line x1="-0.114364" y1="0.00608389" x2="-1.14826" y2="0.0145585" style="stroke:rgb(246,147,147);stroke-width:0.01" />
<line x1="0.0452863" y1="0.00810686" x2="-1.14826" y2="0.0145585" style="stroke:rgb(246,147,147);stroke-width:0.01" />
<line x1="-1.14826" y1="0.0145585" x2="-0.148262" y2="0.0145585" style="stroke:rgb(246,147,147);stroke-width:0.01" />
<line x1="0.215374" y1="-0.00362335" x2="0.176941" y2="0.0389487" style="stroke:rgb(246,147,147);stroke-width:0.01" />
<line x1="0.265531" y1="0.0490412" x2="0.246475" y2="0.06719" style="stroke:rgb(246,147,147);stroke-width:0.01" />
</g>
</svg>
