<svg xmlns="http://www.w3.org/2000/svg" viewBox="-1.5 -1.5 3 3">
<g transform="scale(1, -1)">
<path d="M1.048780 0.792683 L1.144899 0.947159 L1.382979 0.936170 L1.413793 0.965517 L1.333333 1.050000 L1.038524 1.038945 L1.033210 1.055351 L0.000000 1.000000 z " fill="rgb(245,195,195)" />
<path d="M0.000000 0.000000 L1.000000 0.000000 L1.000000 1.000000 L0.000000 1.000000  z" fill="none" stroke="rgb(128,128,128)" stroke-width="0.01" />
<line x1="1.08671" y1="0.890173" x2="1.17143" y2="1.04" style="stroke:rgb(246,147,147);stroke-width:0.01" />
<line x1="1.04878" y1="0.792683" x2="1.1875" y2="1.01562" style="stroke:rgb(246,147,147);stroke-width:0.01" />
<line x1="1.20339" y1="0.991525" x2="1.22857" y2="1.02857" style="stroke:rgb(246,147,147);stroke-width:0.01" />
<line x1="1.22222" y1="0.962963" x2="1.28571" y2="1.04762" style="stroke:rgb(246,147,147);stroke-width:0.01" />
<line x1="1.27027" y1="0.972973" x2="1.33333" y2="1.05" style="stroke:rgb(246,147,147);stroke-width:0.01" />
<line x1="1.38298" y1="0.93617" x2="1.41379" y2="0.965517" style="stroke:rgb(246,147,147);stroke-width:0.01" />
<line x1="1.01302" y1="0.958785" x2="1.03321" y2="1.05535" style="stroke:rgb(246,147,147);stroke-width:0.01" />
<line x1="1" y1="0.923077" x2="1.0129" y2="1.00645" style="stroke:rgb(246,147,147);stroke-width:0.01" />
<line x1="1.00459" y1="0.990826" x2="1.0066" y2="1.0099" style="stroke:rgb(246,147,147);stroke-width:0.01" />
<line x1="1" y1="0.96" x2="1.00348" y2="1.00348" style="stroke:rgb(246,147,147);stroke-width:0.01" />
<line x1="1" y1="0.923077" x2="1" y2="1" style="stroke:rgb(246,147,147);stroke-width:0.01" />
<line x1="1.00459" y1="0.990826" x2="1.00348" y2="1.00348" style="stroke:rgb(246,147,147);stroke-width:0.01" />
<line x1="1.01302" y1="0.958785" x2="1.0066" y2="1.0099" style="stroke:rgb(246,147,147);stroke-width:0.01" />
<line x1="1.04878" y1="0.792683" x2="1.0129" y2="1.00645" style="stroke:rgb(246,147,147);stroke-width:0.01" />
<line x1="1.08671" y1="0.890173" x2="1.03321" y2="1.05535" style="stroke:rgb(246,147,147);stroke-width:0.01" />
<line x1="1.22222" y1="0.962963" x2="1.17143" y2="1.04" style="stroke:rgb(246,147,147);stroke-width:0.01" />
<line x1="1.27027" y1="0.972973" x2="1.22857" y2="1.02857" style="stroke:rgb(246,147,147);stroke-width:0.01" />
<line x1="1.04878" y1="0.792683" x2="0" y2="1" style="stroke:rgb(246,147,147);stroke-width:0.01" />
<line x1="1.08671" y1="0.890173" x2="0" y2="1" style="stroke:rgb(246,147,147);stroke-width:0.01" />
<line x1="1" y1="0.923077" x2="0" y2="1" style="stroke:rgb(246,147,147);stroke-width:0.01" />
<line x1="0" y1="1" x2="1.03321" y2="1.05535" style="stroke:rgb(246,147,147);stroke-width:0.01" />
<line x1="1.38298" y1="0.93617" x2="0" y2="1" style="stroke:rgb(246,147,147);stroke-width:0.01" />
<line x1="1.01302" y1="0.958785" x2="0" y2="1" style="stroke:rgb(246,147,147);stroke-width:0.01" />
<line x1="1" y1="0.96" x2="0" y2="1" style="stroke:rgb(246,147,147);stroke-width:0.01" />
<line x1="0" y1="1" x2="1.33333" y2="1.05" style="stroke:rgb(246,147,147);stroke-width:0.01" />
<line x1="0" y1="1" x2="1.28571" y2="1.04762" style="stroke:rgb(246,147,147);stroke-width:0.01" />
<line x1="0" y1="1" x2="1.17143" y2="1.04" style="stroke:rgb(246,147,147);stroke-width:0.01" />
<line x1="1.22222" y1="0.962963" x2="0" y2="1" style="stroke:rgb(246,147,147);stroke-width:0.01" />
<line x1="0" y1="1" x2="1.22857" y2="1.02857" style="stroke:rgb(246,147,147);stroke-width:0.01" />
<line x1="1.27027" y1="0.972973" x2="0" y2="1" style="stroke:rgb(246,147,147);stroke-width:0.01" />
<line x1="0" y1="1" x2="1.1875" y2="1.01562" style="stroke:rgb(246,147,147);stroke-width:0.01" />
<line x1="0" y1="1" x2="1.0066" y2="1.0099" style="stroke:rgb(246,147,147);stroke-width:0.01" />
<line x1="1.00459" y1="0.990826" x2="0" y2="1" style="stroke:rgb(246,147,147);stroke-width:0.01" />
<line x1="1.20339" y1="0.991525" x2="0" y2="1" style="stroke:rgb(246,147,147);stroke-width:0.01" />
<line x1="0" y1="1" x2="1.0129" y2="1.00645" style="stroke:rgb(246,147,147);stroke-width:0.01" />
<line x1="0" y1="1" x2="1.00348" y2="1.00348" style="stroke:rgb(246,147,147);stroke-width:0.01" />
<line x1="0" y1="1" x2="1.25" y2="1" style="stroke:rgb(246,147,147);stroke-width:0.01" />
<line x1="1.38298" y1="0.93617" x2="1.28571" y2="1.04762" style="stroke:rgb(246,147,147);stroke-width:0.01" />
<line x1="1.41379" y1="0.965517" x2="1.33333" y2="1.05" style="stroke:rgb(246,147,147);stroke-width:0.01" />
</g>
</svg>
