<svg xmlns="http://www.w3.org/2000/svg" viewBox="-1.5 -1.5 3 3">
<g transform="scale(1, -1)">
<path d="M-0.000659 -0.180545 L0.095459 -0.026069 L0.333539 -0.037058 L0.364353 -0.007711 L0.283894 0.076772 L-0.010916 0.065717 L-0.016229 0.082123 L-1.049440 0.026772 z " fill="rgb(245,195,195)" />
<path d="M-1.049440 -0.973228 L-0.049440 -0.973228 L-0.049440 0.026772 L-1.049440 0.026772  z" fill="none" stroke="rgb(128,128,128)" stroke-width="0.01" />
<line x1="0.0372654" y1="-0.0830546" x2="0.121989" y2="0.066772" style="stroke:rgb(246,147,147);stroke-width:0.01" />
<line x1="-0.000659291" y1="-0.180545" x2="0.13806" y2="0.042397" style="stroke:rgb(246,147,147);stroke-width:0.01" />
<line x1="0.15395" y1="0.0182974" x2="0.179132" y2="0.0553434" style="stroke:rgb(246,147,147);stroke-width:0.01" />
<line x1="0.172782" y1="-0.010265" x2="0.236275" y2="0.074391" style="stroke:rgb(246,147,147);stroke-width:0.01" />
<line x1="0.22083" y1="-0.000255039" x2="0.283894" y2="0.076772" style="stroke:rgb(246,147,147);stroke-width:0.01" />
<line x1="0.333539" y1="-0.0370578" x2="0.364353" y2="-0.00771077" style="stroke:rgb(246,147,147);stroke-width:0.01" />
<line x1="-0.0364246" y1="-0.0144428" x2="-0.0162294" y2="0.0821225" style="stroke:rgb(246,147,147);stroke-width:0.01" />
<line x1="-0.0494398" y1="-0.0501511" x2="-0.0365366" y2="0.0332236" style="stroke:rgb(246,147,147);stroke-width:0.01" />
<line x1="-0.0448526" y1="0.0175977" x2="-0.0428391" y2="0.036673" style="stroke:rgb(246,147,147);stroke-width:0.01" />
<line x1="-0.0494398" y1="-0.013228" x2="-0.0459555" y2="0.0302563" style="stroke:rgb(246,147,147);stroke-width:0.01" />
<line x1="-0.0494398" y1="-0.0501511" x2="-0.0494398" y2="0.026772" style="stroke:rgb(246,147,147);stroke-width:0.01" />
<line x1="-0.0448526" y1="0.0175977" x2="-0.0459555" y2="0.0302563" style="stroke:rgb(246,147,147);stroke-width:0.01" />
<line x1="-0.0364246" y1="-0.0144428" x2="-0.0428391" y2="0.036673" style="stroke:rgb(246,147,147);stroke-width:0.01" />
<line x1="-0.000659291" y1="-0.180545" x2="-0.0365366" y2="0.0332236" style="stroke:rgb(246,147,147);stroke-width:0.01" />
<line x1="0.0372654" y1="-0.0830546" x2="-0.0162294" y2="0.0821225" style="stroke:rgb(246,147,147);stroke-width:0.01" />
<line x1="0.172782" y1="-0.010265" x2="0.121989" y2="0.066772" style="stroke:rgb(246,147,147);stroke-width:0.01" />
<line x1="0.22083" y1="-0.000255039" x2="0.179132" y2="0.0553434" style="stroke:rgb(246,147,147);stroke-width:0.01" />
<line x1="-0.000659291" y1="-0.180545" x2="-1.04944" y2="0.026772" style="stroke:rgb(246,147,147);stroke-width:0.01" />
<line x1="0.0372654" y1="-0.0830546" x2="-1.04944" y2="0.026772" style="stroke:rgb(246,147,147);stroke-width:0.01" />
<line x1="-0.0494398" y1="-0.0501511" x2="-1.04944" y2="0.026772" style="stroke:rgb(246,147,147);stroke-width:0.01" />
<line x1="-1.04944" y1="0.026772" x2="-0.0162294" y2="0.0821225" style="stroke:rgb(246,147,147);stroke-width:0.01" />
<line x1="0.333539" y1="-0.0370578" x2="-1.04944" y2="0.026772" style="stroke:rgb(246,147,147);stroke-width:0.01" />
<line x1="-0.0364246" y1="-0.0144428" x2="-1.04944" y2="0.026772" style="stroke:rgb(246,147,147);stroke-width:0.01" />
<line x1="-0.0494398" y1="-0.013228" x2="-1.04944" y2="0.026772" style="stroke:rgb(246,147,147);stroke-width:0.01" />
<line x1="-1.04944" y1="0.026772" x2="0.283894" y2="0.076772" style="stroke:rgb(246,147,147);stroke-width:0.01" />
<line x1="-1.04944" y1="0.026772" x2="0.236275" y2="0.074391" style="stroke:rgb(246,147,147);stroke-width:0.01" />
<line x1="-1.04944" y1="0.026772" x2="0.121989" y2="0.066772" style="stroke:rgb(246,147,147);stroke-width:0.01" />
<line x1="0.172782" y1="-0.010265" x2="-1.04944" y2="0.026772" style="stroke:rgb(246,147,147);stroke-width:0.01" />
<line x1="-1.04944" y1="0.026772" x2="0.179132" y2="0.0553434" style="stroke:rgb(246,147,147);stroke-width:0.01" />
<line x1="0.22083" y1="-0.000255039" x2="-1.04944" y2="0.026772" style="stroke:rgb(246,147,147);stroke-width:0.01" />
<line x1="-1.04944" y1="0.026772" x2="0.13806" y2="0.042397" style="stroke:rgb(246,147,147);stroke-width:0.01" />
<line x1="-1.04944" y1="0.026772" x2="-0.0428391" y2="0.036673" style="stroke:rgb(246,147,147);stroke-width:0.01" />
<line x1="-0.0448526" y1="0.0175977" x2="-1.04944" y2="0.026772" style="stroke:rgb(246,147,147);stroke-width:0.01" />
<line x1="0.15395" y1="0.0182974" x2="-1.04944" y2="0.026772" style="stroke:rgb(246,147,147);stroke-width:0.01" />
<line x1="-1.04944" y1="0.026772" x2="-0.0365366" y2="0.0332236" style="stroke:rgb(246,147,147);stroke-width:0.01" />
<line x1="-1.04944" y1="0.026772" x2="-0.0459555" y2="0.0302563" style="stroke:rgb(246,147,147);stroke-width:0.01" />
<line x1="-1.04944" y1="0.026772" x2="0.20056" y2="0.026772" style="stroke:rgb(246,147,147);stroke-width:0.01" />
<line x1="0.333539" y1="-0.0370578" x2="0.236275" y2="0.074391" style="stroke:rgb(246,147,147);stroke-width:0.01" />
<line x1="0.364353" y1="-0.00771077" x2="0.283894" y2="0.076772" style="stroke:rgb(246,147,147);stroke-width:0.01" />
</g>
</svg>
