<svg xmlns="http://www.w3.org/2000/svg" viewBox="-1.5 -1.5 3 3">
<g transform="scale(1, -1)">
<path d="M-0.048892 -0.105431 L-0.041103 -0.089454 L-0.017017 -0.092545 L0.020350 -0.026464 L0.185117 -0.037071 L0.230090 0.012745 L0.325686 0.010413 L0.245226 0.094896 L0.097547 0.089358 L0.091104 0.098659 L-1.088107 0.044896 z " fill="rgb(245,195,195)" />
<path d="M-1.088107 -0.955104 L-0.088107 -0.955104 L-0.088107 0.044896 L-1.088107 0.044896  z" fill="none" stroke="rgb(128,128,128)" stroke-width="0.01" />
<line x1="-0.0170172" y1="-0.092545" x2="0.0911042" y2="0.0986592" style="stroke:rgb(246,147,147);stroke-width:0.01" />
<line x1="0.0681427" y1="-0.0265328" x2="0.137699" y2="0.0771538" style="stroke:rgb(246,147,147);stroke-width:0.01" />
<line x1="-0.0488916" y1="-0.105431" x2="0.0281718" y2="0.0526477" style="stroke:rgb(246,147,147);stroke-width:0.01" />
<line x1="0.182163" y1="0.0178687" x2="0.245226" y2="0.0948957" style="stroke:rgb(246,147,147);stroke-width:0.01" />
<line x1="0.185117" y1="-0.0370715" x2="0.275529" y2="0.0630776" style="stroke:rgb(246,147,147);stroke-width:0.01" />
<line x1="-0.0631073" y1="0.0448957" x2="-0.0586955" y2="0.0645036" style="stroke:rgb(246,147,147);stroke-width:0.01" />
<line x1="-0.0881073" y1="-0.0585525" x2="-0.0648515" y2="0.0526477" style="stroke:rgb(246,147,147);stroke-width:0.01" />
<line x1="-0.077798" y1="0.0345865" x2="-0.0752041" y2="0.0513474" style="stroke:rgb(246,147,147);stroke-width:0.01" />
<line x1="-0.0807272" y1="0.0412057" x2="-0.0797391" y2="0.0490798" style="stroke:rgb(246,147,147);stroke-width:0.01" />
<line x1="-0.0881073" y1="0.00489575" x2="-0.0833903" y2="0.0637637" style="stroke:rgb(246,147,147);stroke-width:0.01" />
<line x1="-0.0881073" y1="-0.0585525" x2="-0.0881073" y2="0.0448957" style="stroke:rgb(246,147,147);stroke-width:0.01" />
<line x1="-0.0807272" y1="0.0412057" x2="-0.0833903" y2="0.0637637" style="stroke:rgb(246,147,147);stroke-width:0.01" />
<line x1="-0.077798" y1="0.0345865" x2="-0.0797391" y2="0.0490798" style="stroke:rgb(246,147,147);stroke-width:0.01" />
<line x1="-0.0488916" y1="-0.105431" x2="-0.0752041" y2="0.0513474" style="stroke:rgb(246,147,147);stroke-width:0.01" />
<line x1="-0.0631073" y1="0.0448957" x2="-0.0648515" y2="0.0526477" style="stroke:rgb(246,147,147);stroke-width:0.01" />
<line x1="-0.0170172" y1="-0.092545" x2="-0.0586955" y2="0.0645036" style="stroke:rgb(246,147,147);stroke-width:0.01" />
<line x1="0.0681427" y1="-0.0265328" x2="0.0281718" y2="0.0526477" style="stroke:rgb(246,147,147);stroke-width:0.01" />
<line x1="0.185117" y1="-0.0370715" x2="0.0911042" y2="0.0986592" style="stroke:rgb(246,147,147);stroke-width:0.01" />
<line x1="0.182163" y1="0.0178687" x2="0.137699" y2="0.0771538" style="stroke:rgb(246,147,147);stroke-width:0.01" />
<line x1="-0.0488916" y1="-0.105431" x2="-1.08811" y2="0.0448957" style="stroke:rgb(246,147,147);stroke-width:0.01" />
<line x1="-0.0170172" y1="-0.092545" x2="-1.08811" y2="0.0448957" style="stroke:rgb(246,147,147);stroke-width:0.01" />
<line x1="-0.0881073" y1="-0.0585525" x2="-1.08811" y2="0.0448957" style="stroke:rgb(246,147,147);stroke-width:0.01" />
<line x1="0.185117" y1="-0.0370715" x2="-1.08811" y2="0.0448957" style="stroke:rgb(246,147,147);stroke-width:0.01" />
<line x1="0.0681427" y1="-0.0265328" x2="-1.08811" y2="0.0448957" style="stroke:rgb(246,147,147);stroke-width:0.01" />
<line x1="-1.08811" y1="0.0448957" x2="0.0911042" y2="0.0986592" style="stroke:rgb(246,147,147);stroke-width:0.01" />
<line x1="-0.0881073" y1="0.00489575" x2="-1.08811" y2="0.0448957" style="stroke:rgb(246,147,147);stroke-width:0.01" />
<line x1="-1.08811" y1="0.0448957" x2="0.245226" y2="0.0948957" style="stroke:rgb(246,147,147);stroke-width:0.01" />
<line x1="-1.08811" y1="0.0448957" x2="0.137699" y2="0.0771538" style="stroke:rgb(246,147,147);stroke-width:0.01" />
<line x1="0.325686" y1="0.010413" x2="-1.08811" y2="0.0448957" style="stroke:rgb(246,147,147);stroke-width:0.01" />
<line x1="0.182163" y1="0.0178687" x2="-1.08811" y2="0.0448957" style="stroke:rgb(246,147,147);stroke-width:0.01" />
<line x1="-1.08811" y1="0.0448957" x2="-0.0586955" y2="0.0645036" style="stroke:rgb(246,147,147);stroke-width:0.01" />
<line x1="-1.08811" y1="0.0448957" x2="-0.0833903" y2="0.0637637" style="stroke:rgb(246,147,147);stroke-width:0.01" />
<line x1="-1.08811" y1="0.0448957" x2="0.275529" y2="0.0630776" style="stroke:rgb(246,147,147);stroke-width:0.01" />
<line x1="-0.077798" y1="0.0345865" x2="-1.08811" y2="0.0448957" style="stroke:rgb(246,147,147);stroke-width:0.01" />
<line x1="-1.08811" y1="0.0448957" x2="-0.0648515" y2="0.0526477" style="stroke:rgb(246,147,147);stroke-width:0.01" />
<line x1="-1.08811" y1="0.0448957" x2="0.0281718" y2="0.0526477" style="stroke:rgb(246,147,147);stroke-width:0.01" />
<line x1="-1.08811" y1="0.0448957" x2="-0.0752041" y2="0.0513474" style="stroke:rgb(246,147,147);stroke-width:0.01" />
<line x1="-1.08811" y1="0.0448957" x2="-0.0797391" y2="0.0490798" style="stroke:rgb(246,147,147);stroke-width:0.01" />
<line x1="-0.0807272" y1="0.0412057" x2="-1.08811" y2="0.0448957" style="stroke:rgb(246,147,147);stroke-width:0.01" />
<line x1="-1.08811" y1="0.0448957" x2="-0.0631073" y2="0.0448957" style="stroke:rgb(246,147,147);stroke-width:0.01" />
<line x1="0.325686" y1="0.010413" x2="0.245226" y2="0.0948957" style="stroke:rgb(246,147,147);stroke-width:0.01" />
</g>
</svg>
