<svg xmlns="http://www.w3.org/2000/svg" viewBox="-1.5 -1.5 3 3">
<g transform="scale(1, -1)">
<path d="M0.020260 -0.191261 L0.174313 -0.020618 L0.267805 -0.023602 L0.278613 -0.013308 L0.228456 0.039356 L0.209854 0.039108 L0.196617 0.053433 L-0.119946 0.045765 L-0.120792 0.049952 L-1.135180 0.021175 z " fill="rgb(245,195,195)" />
<path d="M-1.135180 -0.978825 L-0.135180 -0.978825 L-0.135180 0.021175 L-1.135180 0.021175  z" fill="none" stroke="rgb(128,128,128)" stroke-width="0.01" />
<line x1="-0.00614798" y1="-0.0325889" x2="0.0338338" y2="0.035259" style="stroke:rgb(246,147,147);stroke-width:0.01" />
<line x1="-0.0907358" y1="-0.0988255" x2="-0.0336574" y2="0.0262507" style="stroke:rgb(246,147,147);stroke-width:0.01" />
<line x1="0.0967038" y1="-0.065782" x2="0.196617" y2="0.0534326" style="stroke:rgb(246,147,147);stroke-width:0.01" />
<line x1="0.0202602" y1="-0.191261" x2="0.228456" y2="0.0393564" style="stroke:rgb(246,147,147);stroke-width:0.01" />
<line x1="-0.0974444" y1="-0.0354292" x2="-0.0706641" y2="0.0426799" style="stroke:rgb(246,147,147);stroke-width:0.01" />
<line x1="0.267805" y1="-0.0236016" x2="0.278613" y2="-0.0133082" style="stroke:rgb(246,147,147);stroke-width:0.01" />
<line x1="-0.119913" y1="0.0135409" x2="-0.114772" y2="0.0415827" style="stroke:rgb(246,147,147);stroke-width:0.01" />
<line x1="-0.12705" y1="-0.00321571" x2="-0.122277" y2="0.0276261" style="stroke:rgb(246,147,147);stroke-width:0.01" />
<line x1="-0.126741" y1="0.00851631" x2="-0.120792" y2="0.0499515" style="stroke:rgb(246,147,147);stroke-width:0.01" />
<line x1="-0.13518" y1="-0.031457" x2="-0.128969" y2="0.0273857" style="stroke:rgb(246,147,147);stroke-width:0.01" />
<line x1="-0.13518" y1="-0.0110835" x2="-0.131779" y2="0.0415827" style="stroke:rgb(246,147,147);stroke-width:0.01" />
<line x1="-0.13518" y1="-0.031457" x2="-0.13518" y2="0.0211745" style="stroke:rgb(246,147,147);stroke-width:0.01" />
<line x1="-0.12705" y1="-0.00321571" x2="-0.131779" y2="0.0415827" style="stroke:rgb(246,147,147);stroke-width:0.01" />
<line x1="-0.126741" y1="0.00851631" x2="-0.128969" y2="0.0273857" style="stroke:rgb(246,147,147);stroke-width:0.01" />
<line x1="-0.119913" y1="0.0135409" x2="-0.122277" y2="0.0276261" style="stroke:rgb(246,147,147);stroke-width:0.01" />
<line x1="-0.0907358" y1="-0.0988255" x2="-0.120792" y2="0.0499515" style="stroke:rgb(246,147,147);stroke-width:0.01" />
<line x1="-0.0974444" y1="-0.0354292" x2="-0.114772" y2="0.0415827" style="stroke:rgb(246,147,147);stroke-width:0.01" />
<line x1="0.0202602" y1="-0.191261" x2="-0.0706641" y2="0.0426799" style="stroke:rgb(246,147,147);stroke-width:0.01" />
<line x1="-0.00614798" y1="-0.0325889" x2="-0.0336574" y2="0.0262507" style="stroke:rgb(246,147,147);stroke-width:0.01" />
<line x1="0.0967038" y1="-0.065782" x2="0.0338338" y2="0.035259" style="stroke:rgb(246,147,147);stroke-width:0.01" />
<line x1="0.0202602" y1="-0.191261" x2="-1.13518" y2="0.0211745" style="stroke:rgb(246,147,147);stroke-width:0.01" />
<line x1="-0.0907358" y1="-0.0988255" x2="-1.13518" y2="0.0211745" style="stroke:rgb(246,147,147);stroke-width:0.01" />
<line x1="0.0967038" y1="-0.065782" x2="-1.13518" y2="0.0211745" style="stroke:rgb(246,147,147);stroke-width:0.01" />
<line x1="-0.0974444" y1="-0.0354292" x2="-1.13518" y2="0.0211745" style="stroke:rgb(246,147,147);stroke-width:0.01" />
<line x1="-0.13518" y1="-0.031457" x2="-1.13518" y2="0.0211745" style="stroke:rgb(246,147,147);stroke-width:0.01" />
<line x1="-0.00614798" y1="-0.0325889" x2="-1.13518" y2="0.0211745" style="stroke:rgb(246,147,147);stroke-width:0.01" />
<line x1="-0.13518" y1="-0.0110835" x2="-1.13518" y2="0.0211745" style="stroke:rgb(246,147,147);stroke-width:0.01" />
<line x1="0.267805" y1="-0.0236016" x2="-1.13518" y2="0.0211745" style="stroke:rgb(246,147,147);stroke-width:0.01" />
<line x1="-1.13518" y1="0.0211745" x2="-0.120792" y2="0.0499515" style="stroke:rgb(246,147,147);stroke-width:0.01" />
<line x1="-1.13518" y1="0.0211745" x2="0.196617" y2="0.0534326" style="stroke:rgb(246,147,147);stroke-width:0.01" />
<line x1="-0.12705" y1="-0.00321571" x2="-1.13518" y2="0.0211745" style="stroke:rgb(246,147,147);stroke-width:0.01" />
<line x1="-1.13518" y1="0.0211745" x2="-0.131779" y2="0.0415827" style="stroke:rgb(246,147,147);stroke-width:0.01" />
<line x1="-1.13518" y1="0.0211745" x2="-0.0706641" y2="0.0426799" style="stroke:rgb(246,147,147);stroke-width:0.01" />
<line x1="-1.13518" y1="0.0211745" x2="-0.114772" y2="0.0415827" style="stroke:rgb(246,147,147);stroke-width:0.01" />
<line x1="-1.13518" y1="0.0211745" x2="0.228456" y2="0.0393564" style="stroke:rgb(246,147,147);stroke-width:0.01" />
<line x1="-0.126741" y1="0.00851631" x2="-1.13518" y2="0.0211745" style="stroke:rgb(246,147,147);stroke-width:0.01" />
<line x1="-1.13518" y1="0.0211745" x2="0.0338338" y2="0.035259" style="stroke:rgb(246,147,147);stroke-width:0.01" />
<line x1="-0.119913" y1="0.0135409" x2="-1.13518" y2="0.0211745" style="stroke:rgb(246,147,147);stroke-width:0.01" />
<line x1="-1.13518" y1="0.0211745" x2="-0.122277" y2="0.0276261" style="stroke:rgb(246,147,147);stroke-width:0.01" />
<line x1="-1.13518" y1="0.0211745" x2="-0.128969" y2="0.0273857" style="stroke:rgb(246,147,147);stroke-width:0.01" />
<line x1="-1.13518" y1="0.0211745" x2="-0.0336574" y2="0.0262507" style="stroke:rgb(246,147,147);stroke-width:0.01" />
<line x1="-1.13518" y1="0.0211745" x2="-0.13518" y2="0.0211745" style="stroke:rgb(246,147,147);stroke-width:0.01" />
<line x1="0.267805" y1="-0.0236016" x2="0.196617" y2="0.0534326" style="stroke:rgb(246,147,147);stroke-width:0.01" />
<line x1="0.278613" y1="-0.0133082" x2="0.228456" y2="0.0393564" style="stroke:rgb(246,147,147);stroke-width:0.01" />
</g>
</svg>
