<svg xmlns="http://www.w3.org/2000/svg" viewBox="-1.5 -1.5 3 3">
<g transform="scale(1, -1)">
<path d="M0.057999 -0.143855 L0.126643 -0.042870 L0.346152 -0.049875 L0.356960 -0.039582 L0.223868 0.100164 L-0.023487 0.079833 L-0.031301 0.101284 L-1.056833 -0.005099 z " fill="rgb(245,195,195)" />
<path d="M-1.056833 -1.005099 L-0.056833 -1.005099 L-0.056833 -0.005099 L-1.056833 -0.005099  z" fill="none" stroke="rgb(128,128,128)" stroke-width="0.01" />
<line x1="0.0563742" y1="-0.042835" x2="0.0860238" y2="0.012758" style="stroke:rgb(246,147,147);stroke-width:0.01" />
<line x1="0.113379" y1="-0.0348864" x2="0.160558" y2="0.0383791" style="stroke:rgb(246,147,147);stroke-width:0.01" />
<line x1="0.0579992" y1="-0.143855" x2="0.223868" y2="0.100164" style="stroke:rgb(246,147,147);stroke-width:0.01" />
<line x1="0.219029" y1="-0.0395819" x2="0.274964" y2="0.0271589" style="stroke:rgb(246,147,147);stroke-width:0.01" />
<line x1="0.346152" y1="-0.0498753" x2="0.35696" y2="-0.0395819" style="stroke:rgb(246,147,147);stroke-width:0.01" />
<line x1="-0.0214351" y1="-0.00804902" x2="0.0019902" y2="0.0782342" style="stroke:rgb(246,147,147);stroke-width:0.01" />
<line x1="-0.0441215" y1="-0.0728958" x2="-0.0250312" y2="0.00550154" style="stroke:rgb(246,147,147);stroke-width:0.01" />
<line x1="-0.0478647" y1="-0.0140678" x2="-0.0313014" y2="0.101284" style="stroke:rgb(246,147,147);stroke-width:0.01" />
<line x1="-0.0532998" y1="-0.0156999" x2="-0.0508632" y2="0.00982621" style="stroke:rgb(246,147,147);stroke-width:0.01" />
<line x1="-0.0568333" y1="-0.0485774" x2="-0.0522462" y2="0.00407515" style="stroke:rgb(246,147,147);stroke-width:0.01" />
<line x1="-0.0568333" y1="-0.0373572" x2="-0.054441" y2="-0.000314474" style="stroke:rgb(246,147,147);stroke-width:0.01" />
<line x1="-0.0568333" y1="-0.0485774" x2="-0.0568333" y2="-0.00509916" style="stroke:rgb(246,147,147);stroke-width:0.01" />
<line x1="-0.0532998" y1="-0.0156999" x2="-0.054441" y2="-0.000314474" style="stroke:rgb(246,147,147);stroke-width:0.01" />
<line x1="-0.0441215" y1="-0.0728958" x2="-0.0522462" y2="0.00407515" style="stroke:rgb(246,147,147);stroke-width:0.01" />
<line x1="-0.0478647" y1="-0.0140678" x2="-0.0508632" y2="0.00982621" style="stroke:rgb(246,147,147);stroke-width:0.01" />
<line x1="-0.0214351" y1="-0.00804902" x2="-0.0250312" y2="0.00550154" style="stroke:rgb(246,147,147);stroke-width:0.01" />
<line x1="0.0579992" y1="-0.143855" x2="-0.0313014" y2="0.101284" style="stroke:rgb(246,147,147);stroke-width:0.01" />
<line x1="0.0563742" y1="-0.042835" x2="0.0019902" y2="0.0782342" style="stroke:rgb(246,147,147);stroke-width:0.01" />
<line x1="0.113379" y1="-0.0348864" x2="0.0860238" y2="0.012758" style="stroke:rgb(246,147,147);stroke-width:0.01" />
<line x1="0.219029" y1="-0.0395819" x2="0.160558" y2="0.0383791" style="stroke:rgb(246,147,147);stroke-width:0.01" />
<line x1="0.0579992" y1="-0.143855" x2="-1.05683" y2="-0.00509916" style="stroke:rgb(246,147,147);stroke-width:0.01" />
<line x1="-1.05683" y1="-0.00509916" x2="-0.0313014" y2="0.101284" style="stroke:rgb(246,147,147);stroke-width:0.01" />
<line x1="-1.05683" y1="-0.00509916" x2="0.223868" y2="0.100164" style="stroke:rgb(246,147,147);stroke-width:0.01" />
<line x1="-1.05683" y1="-0.00509916" x2="0.0019902" y2="0.0782342" style="stroke:rgb(246,147,147);stroke-width:0.01" />
<line x1="-0.0441215" y1="-0.0728958" x2="-1.05683" y2="-0.00509916" style="stroke:rgb(246,147,147);stroke-width:0.01" />
<line x1="-0.0568333" y1="-0.0485774" x2="-1.05683" y2="-0.00509916" style="stroke:rgb(246,147,147);stroke-width:0.01" />
<line x1="-1.05683" y1="-0.00509916" x2="0.160558" y2="0.0383791" style="stroke:rgb(246,147,147);stroke-width:0.01" />
<line x1="0.0563742" y1="-0.042835" x2="-1.05683" y2="-0.00509916" style="stroke:rgb(246,147,147);stroke-width:0.01" />
<line x1="-0.0568333" y1="-0.0373572" x2="-1.05683" y2="-0.00509916" style="stroke:rgb(246,147,147);stroke-width:0.01" />
<line x1="0.346152" y1="-0.0498753" x2="-1.05683" y2="-0.00509916" style="stroke:rgb(246,147,147);stroke-width:0.01" />
<line x1="0.219029" y1="-0.0395819" x2="-1.05683" y2="-0.00509916" style="stroke:rgb(246,147,147);stroke-width:0.01" />
<line x1="0.113379" y1="-0.0348864" x2="-1.05683" y2="-0.00509916" style="stroke:rgb(246,147,147);stroke-width:0.01" />
<line x1="-1.05683" y1="-0.00509916" x2="0.274964" y2="0.0271589" style="stroke:rgb(246,147,147);stroke-width:0.01" />
<line x1="-1.05683" y1="-0.00509916" x2="0.0860238" y2="0.012758" style="stroke:rgb(246,147,147);stroke-width:0.01" />
<line x1="-1.05683" y1="-0.00509916" x2="-0.0508632" y2="0.00982621" style="stroke:rgb(246,147,147);stroke-width:0.01" />
<line x1="-0.0532998" y1="-0.0156999" x2="-1.05683" y2="-0.00509916" style="stroke:rgb(246,147,147);stroke-width:0.01" />
<line x1="-1.05683" y1="-0.00509916" x2="-0.0250312" y2="0.00550154" style="stroke:rgb(246,147,147);stroke-width:0.01" />
<line x1="-1.05683" y1="-0.00509916" x2="-0.0522462" y2="0.00407515" style="stroke:rgb(246,147,147);stroke-width:0.01" />
<line x1="-0.0478647" y1="-0.0140678" x2="-1.05683" y2="-0.00509916" style="stroke:rgb(246,147,147);stroke-width:0.01" />
<line x1="-1.05683" y1="-0.00509916" x2="-0.054441" y2="-0.000314474" style="stroke:rgb(246,147,147);stroke-width:0.01" />
<line x1="-0.0214351" y1="-0.00804902" x2="-1.05683" y2="-0.00509916" style="stroke:rgb(246,147,147);stroke-width:0.01" />
<line x1="-1.05683" y1="-0.00509916" x2="-0.0568333" y2="-0.00509916" style="stroke:rgb(246,147,147);stroke-width:0.01" />
<line x1="0.346152" y1="-0.0498753" x2="0.274964" y2="0.0271589" style="stroke:rgb(246,147,147);stroke-width:0.01" />
<line x1="0.35696" y1="-0.0395819" x2="0.223868" y2="0.100164" style="stroke:rgb(246,147,147);stroke-width:0.01" />
</g>
</svg>
