<svg xmlns="http://www.w3.org/2000/svg" viewBox="-1.5 -1.5 3 3">
<g transform="scale(1, -1)">
<path d="M1.114833 0.861244 L1.183476 0.962229 L1.402985 0.955224 L1.413793 0.965517 L1.280702 1.105263 L1.033346 1.084933 L1.025532 1.106383 L0.000000 1.000000 z " fill="rgb(245,195,195)" />
<path d="M0.000000 0.000000 L1.000000 0.000000 L1.000000 1.000000 L0.000000 1.000000  z" fill="none" stroke="rgb(128,128,128)" stroke-width="0.01" />
<line x1="1.11321" y1="0.962264" x2="1.14286" y2="1.01786" style="stroke:rgb(246,147,147);stroke-width:0.01" />
<line x1="1.17021" y1="0.970213" x2="1.21739" y2="1.04348" style="stroke:rgb(246,147,147);stroke-width:0.01" />
<line x1="1.11483" y1="0.861244" x2="1.2807" y2="1.10526" style="stroke:rgb(246,147,147);stroke-width:0.01" />
<line x1="1.27586" y1="0.965517" x2="1.3318" y2="1.03226" style="stroke:rgb(246,147,147);stroke-width:0.01" />
<line x1="1.40299" y1="0.955224" x2="1.41379" y2="0.965517" style="stroke:rgb(246,147,147);stroke-width:0.01" />
<line x1="1.0354" y1="0.99705" x2="1.05882" y2="1.08333" style="stroke:rgb(246,147,147);stroke-width:0.01" />
<line x1="1.01271" y1="0.932203" x2="1.0318" y2="1.0106" style="stroke:rgb(246,147,147);stroke-width:0.01" />
<line x1="1.00897" y1="0.991031" x2="1.02553" y2="1.10638" style="stroke:rgb(246,147,147);stroke-width:0.01" />
<line x1="1.00353" y1="0.989399" x2="1.00597" y2="1.01493" style="stroke:rgb(246,147,147);stroke-width:0.01" />
<line x1="1" y1="0.956522" x2="1.00459" y2="1.00917" style="stroke:rgb(246,147,147);stroke-width:0.01" />
<line x1="1" y1="0.967742" x2="1.00239" y2="1.00478" style="stroke:rgb(246,147,147);stroke-width:0.01" />
<line x1="1" y1="0.956522" x2="1" y2="1" style="stroke:rgb(246,147,147);stroke-width:0.01" />
<line x1="1.00353" y1="0.989399" x2="1.00239" y2="1.00478" style="stroke:rgb(246,147,147);stroke-width:0.01" />
<line x1="1.01271" y1="0.932203" x2="1.00459" y2="1.00917" style="stroke:rgb(246,147,147);stroke-width:0.01" />
<line x1="1.00897" y1="0.991031" x2="1.00597" y2="1.01493" style="stroke:rgb(246,147,147);stroke-width:0.01" />
<line x1="1.0354" y1="0.99705" x2="1.0318" y2="1.0106" style="stroke:rgb(246,147,147);stroke-width:0.01" />
<line x1="1.11483" y1="0.861244" x2="1.02553" y2="1.10638" style="stroke:rgb(246,147,147);stroke-width:0.01" />
<line x1="1.11321" y1="0.962264" x2="1.05882" y2="1.08333" style="stroke:rgb(246,147,147);stroke-width:0.01" />
<line x1="1.17021" y1="0.970213" x2="1.14286" y2="1.01786" style="stroke:rgb(246,147,147);stroke-width:0.01" />
<line x1="1.27586" y1="0.965517" x2="1.21739" y2="1.04348" style="stroke:rgb(246,147,147);stroke-width:0.01" />
<line x1="1.11483" y1="0.861244" x2="0" y2="1" style="stroke:rgb(246,147,147);stroke-width:0.01" />
<line x1="0" y1="1" x2="1.02553" y2="1.10638" style="stroke:rgb(246,147,147);stroke-width:0.01" />
<line x1="0" y1="1" x2="1.2807" y2="1.10526" style="stroke:rgb(246,147,147);stroke-width:0.01" />
<line x1="0" y1="1" x2="1.05882" y2="1.08333" style="stroke:rgb(246,147,147);stroke-width:0.01" />
<line x1="1.01271" y1="0.932203" x2="0" y2="1" style="stroke:rgb(246,147,147);stroke-width:0.01" />
<line x1="1" y1="0.956522" x2="0" y2="1" style="stroke:rgb(246,147,147);stroke-width:0.01" />
<line x1="0" y1="1" x2="1.21739" y2="1.04348" style="stroke:rgb(246,147,147);stroke-width:0.01" />
<line x1="1.11321" y1="0.962264" x2="0" y2="1" style="stroke:rgb(246,147,147);stroke-width:0.01" />
<line x1="1" y1="0.967742" x2="0" y2="1" style="stroke:rgb(246,147,147);stroke-width:0.01" />
<line x1="1.40299" y1="0.955224" x2="0" y2="1" style="stroke:rgb(246,147,147);stroke-width:0.01" />
<line x1="1.27586" y1="0.965517" x2="0" y2="1" style="stroke:rgb(246,147,147);stroke-width:0.01" />
<line x1="1.17021" y1="0.970213" x2="0" y2="1" style="stroke:rgb(246,147,147);stroke-width:0.01" />
<line x1="0" y1="1" x2="1.3318" y2="1.03226" style="stroke:rgb(246,147,147);stroke-width:0.01" />
<line x1="0" y1="1" x2="1.14286" y2="1.01786" style="stroke:rgb(246,147,147);stroke-width:0.01" />
<line x1="0" y1="1" x2="1.00597" y2="1.01493" style="stroke:rgb(246,147,147);stroke-width:0.01" />
<line x1="1.00353" y1="0.989399" x2="0" y2="1" style="stroke:rgb(246,147,147);stroke-width:0.01" />
<line x1="0" y1="1" x2="1.0318" y2="1.0106" style="stroke:rgb(246,147,147);stroke-width:0.01" />
<line x1="0" y1="1" x2="1.00459" y2="1.00917" style="stroke:rgb(246,147,147);stroke-width:0.01" />
<line x1="1.00897" y1="0.991031" x2="0" y2="1" style="stroke:rgb(246,147,147);stroke-width:0.01" />
<line x1="0" y1="1" x2="1.00239" y2="1.00478" style="stroke:rgb(246,147,147);stroke-width:0.01" />
<line x1="1.0354" y1="0.99705" x2="0" y2="1" style="stroke:rgb(246,147,147);stroke-width:0.01" />
<line x1="0" y1="1" x2="1" y2="1" style="stroke:rgb(246,147,147);stroke-width:0.01" />
<line x1="1.40299" y1="0.955224" x2="1.3318" y2="1.03226" style="stroke:rgb(246,147,147);stroke-width:0.01" />
<line x1="1.41379" y1="0.965517" x2="1.2807" y2="1.10526" style="stroke:rgb(246,147,147);stroke-width:0.01" />
</g>
</svg>
