<svg xmlns="http://www.w3.org/2000/svg" viewBox="-1.5 -1.5 3 3">
<g transform="scale(1, -1)">
<path d="M-0.033782 -0.131872 L-0.018701 -0.084018 L0.030321 -0.089137 L0.058244 -0.033823 L0.378589 -0.050191 L0.284689 0.053821 L0.193976 0.051630 L0.176744 0.074606 L-0.010968 0.066444 L-0.025331 0.120566 L-1.033782 0.021974 z " fill="rgb(245,195,195)" />
<path d="M-1.033782 -0.978026 L-0.033782 -0.978026 L-0.033782 0.021974 L-1.033782 0.021974  z" fill="none" stroke="rgb(128,128,128)" stroke-width="0.01" />
<line x1="0.109075" y1="0.00411696" x2="0.127601" y2="0.0363833" style="stroke:rgb(246,147,147);stroke-width:0.01" />
<line x1="0.140131" y1="0.0157629" x2="0.176744" y2="0.0746057" style="stroke:rgb(246,147,147);stroke-width:0.01" />
<line x1="0.0838652" y1="-0.00743766" x2="0.0995515" y2="0.0219741" style="stroke:rgb(246,147,147);stroke-width:0.01" />
<line x1="0.0303207" y1="-0.089137" x2="0.0928004" y2="0.0346323" style="stroke:rgb(246,147,147);stroke-width:0.01" />
<line x1="0.12838" y1="-0.03208" x2="0.169608" y2="0.0304487" style="stroke:rgb(246,147,147);stroke-width:0.01" />
<line x1="0.0431412" y1="0.00658949" x2="0.0592414" y2="0.0452299" style="stroke:rgb(246,147,147);stroke-width:0.01" />
<line x1="0.213132" y1="-0.0335815" x2="0.284689" y2="0.0538212" style="stroke:rgb(246,147,147);stroke-width:0.01" />
<line x1="0.24208" y1="-0.0125087" x2="0.291421" y2="0.0463643" style="stroke:rgb(246,147,147);stroke-width:0.01" />
<line x1="-0.0337819" y1="-0.131872" x2="0.0248692" y2="0.0542322" style="stroke:rgb(246,147,147);stroke-width:0.01" />
<line x1="-0.0337819" y1="-0.010284" x2="-0.0253312" y2="0.120566" style="stroke:rgb(246,147,147);stroke-width:0.01" />
<line x1="-0.0337819" y1="-0.131872" x2="-0.0337819" y2="0.0219741" style="stroke:rgb(246,147,147);stroke-width:0.01" />
<line x1="0.0303207" y1="-0.089137" x2="-0.0253312" y2="0.120566" style="stroke:rgb(246,147,147);stroke-width:0.01" />
<line x1="0.0431412" y1="0.00658949" x2="0.0248692" y2="0.0542322" style="stroke:rgb(246,147,147);stroke-width:0.01" />
<line x1="0.0838652" y1="-0.00743766" x2="0.0592414" y2="0.0452299" style="stroke:rgb(246,147,147);stroke-width:0.01" />
<line x1="0.12838" y1="-0.03208" x2="0.0928004" y2="0.0346323" style="stroke:rgb(246,147,147);stroke-width:0.01" />
<line x1="0.140131" y1="0.0157629" x2="0.127601" y2="0.0363833" style="stroke:rgb(246,147,147);stroke-width:0.01" />
<line x1="0.213132" y1="-0.0335815" x2="0.169608" y2="0.0304487" style="stroke:rgb(246,147,147);stroke-width:0.01" />
<line x1="0.24208" y1="-0.0125087" x2="0.176744" y2="0.0746057" style="stroke:rgb(246,147,147);stroke-width:0.01" />
<line x1="-0.0337819" y1="-0.131872" x2="-1.03378" y2="0.0219741" style="stroke:rgb(246,147,147);stroke-width:0.01" />
<line x1="0.0303207" y1="-0.089137" x2="-1.03378" y2="0.0219741" style="stroke:rgb(246,147,147);stroke-width:0.01" />
<line x1="-1.03378" y1="0.0219741" x2="-0.0253312" y2="0.120566" style="stroke:rgb(246,147,147);stroke-width:0.01" />
<line x1="0.378589" y1="-0.0501908" x2="-1.03378" y2="0.0219741" style="stroke:rgb(246,147,147);stroke-width:0.01" />
<line x1="0.12838" y1="-0.03208" x2="-1.03378" y2="0.0219741" style="stroke:rgb(246,147,147);stroke-width:0.01" />
<line x1="0.213132" y1="-0.0335815" x2="-1.03378" y2="0.0219741" style="stroke:rgb(246,147,147);stroke-width:0.01" />
<line x1="-1.03378" y1="0.0219741" x2="0.176744" y2="0.0746057" style="stroke:rgb(246,147,147);stroke-width:0.01" />
<line x1="-0.0337819" y1="-0.010284" x2="-1.03378" y2="0.0219741" style="stroke:rgb(246,147,147);stroke-width:0.01" />
<line x1="-1.03378" y1="0.0219741" x2="0.0248692" y2="0.0542322" style="stroke:rgb(246,147,147);stroke-width:0.01" />
<line x1="0.24208" y1="-0.0125087" x2="-1.03378" y2="0.0219741" style="stroke:rgb(246,147,147);stroke-width:0.01" />
<line x1="0.0838652" y1="-0.00743766" x2="-1.03378" y2="0.0219741" style="stroke:rgb(246,147,147);stroke-width:0.01" />
<line x1="-1.03378" y1="0.0219741" x2="0.284689" y2="0.0538212" style="stroke:rgb(246,147,147);stroke-width:0.01" />
<line x1="-1.03378" y1="0.0219741" x2="0.0592414" y2="0.0452299" style="stroke:rgb(246,147,147);stroke-width:0.01" />
<line x1="-1.03378" y1="0.0219741" x2="0.291421" y2="0.0463643" style="stroke:rgb(246,147,147);stroke-width:0.01" />
<line x1="0.109075" y1="0.00411696" x2="-1.03378" y2="0.0219741" style="stroke:rgb(246,147,147);stroke-width:0.01" />
<line x1="0.0431412" y1="0.00658949" x2="-1.03378" y2="0.0219741" style="stroke:rgb(246,147,147);stroke-width:0.01" />
<line x1="-1.03378" y1="0.0219741" x2="0.127601" y2="0.0363833" style="stroke:rgb(246,147,147);stroke-width:0.01" />
<line x1="-1.03378" y1="0.0219741" x2="0.0928004" y2="0.0346323" style="stroke:rgb(246,147,147);stroke-width:0.01" />
<line x1="-1.03378" y1="0.0219741" x2="0.169608" y2="0.0304487" style="stroke:rgb(246,147,147);stroke-width:0.01" />
<line x1="0.140131" y1="0.0157629" x2="-1.03378" y2="0.0219741" style="stroke:rgb(246,147,147);stroke-width:0.01" />
<line x1="-1.03378" y1="0.0219741" x2="0.0995515" y2="0.0219741" style="stroke:rgb(246,147,147);stroke-width:0.01" />
<line x1="0.378589" y1="-0.0501908" x2="0.284689" y2="0.0538212" style="stroke:rgb(246,147,147);stroke-width:0.01" />
</g>
</svg>
