<svg xmlns="http://www.w3.org/2000/svg" viewBox="-1.5 -1.5 3 3">
<g transform="scale(1, -1)">
<path d="M-0.024511 -0.109855 L-0.003940 -0.056928 L0.050871 -0.058623 L0.052155 -0.056216 L0.103714 -0.057697 L0.117713 -0.035958 L0.251718 -0.037298 L0.346888 0.071750 L0.261132 0.146591 L-0.045066 0.107143 L-0.046604 0.111231 L-1.064071 -0.024140 z " fill="rgb(245,195,195)" />
<path d="M-1.064071 -1.024140 L-0.064071 -1.024140 L-0.064071 -0.024140 L-1.064071 -0.024140  z" fill="none" stroke="rgb(128,128,128)" stroke-width="0.01" />
<line x1="0.0868723" y1="-0.0279139" x2="0.112585" y2="0.0168692" style="stroke:rgb(246,147,147);stroke-width:0.01" />
<line x1="0.0508714" y1="-0.058623" x2="0.076774" y2="-0.0100558" style="stroke:rgb(246,147,147);stroke-width:0.01" />
<line x1="0.103714" y1="-0.0576973" x2="0.17545" y2="0.053704" style="stroke:rgb(246,147,147);stroke-width:0.01" />
<line x1="0.142571" y1="-0.0278303" x2="0.261132" y2="0.146591" style="stroke:rgb(246,147,147);stroke-width:0.01" />
<line x1="0.026838" y1="-0.0423221" x2="0.0572881" y2="0.0244034" style="stroke:rgb(246,147,147);stroke-width:0.01" />
<line x1="-0.0245107" y1="-0.109855" x2="0.0209147" y2="0.0070212" style="stroke:rgb(246,147,147);stroke-width:0.01" />
<line x1="0.251718" y1="-0.0372982" x2="0.346888" y2="0.0717501" style="stroke:rgb(246,147,147);stroke-width:0.01" />
<line x1="-0.0545017" y1="-0.028925" x2="-0.0491828" y2="0.00811779" style="stroke:rgb(246,147,147);stroke-width:0.01" />
<line x1="-0.0640711" y1="-0.0829638" x2="-0.0561971" y2="-0.0162663" style="stroke:rgb(246,147,147);stroke-width:0.01" />
<line x1="-0.0640711" y1="-0.0717593" x2="-0.0466039" y2="0.111231" style="stroke:rgb(246,147,147);stroke-width:0.01" />
<line x1="-0.0640711" y1="-0.0829638" x2="-0.0640711" y2="-0.0241403" style="stroke:rgb(246,147,147);stroke-width:0.01" />
<line x1="-0.0545017" y1="-0.028925" x2="-0.0561971" y2="-0.0162663" style="stroke:rgb(246,147,147);stroke-width:0.01" />
<line x1="-0.0245107" y1="-0.109855" x2="-0.0491828" y2="0.00811779" style="stroke:rgb(246,147,147);stroke-width:0.01" />
<line x1="0.00651712" y1="-0.0300226" x2="-0.0466039" y2="0.111231" style="stroke:rgb(246,147,147);stroke-width:0.01" />
<line x1="0.026838" y1="-0.0423221" x2="0.013851" y2="-0.0111533" style="stroke:rgb(246,147,147);stroke-width:0.01" />
<line x1="0.0508714" y1="-0.058623" x2="0.0209147" y2="0.0070212" style="stroke:rgb(246,147,147);stroke-width:0.01" />
<line x1="0.103714" y1="-0.0576973" x2="0.0572881" y2="0.0244034" style="stroke:rgb(246,147,147);stroke-width:0.01" />
<line x1="0.142571" y1="-0.0278303" x2="0.112585" y2="0.0168692" style="stroke:rgb(246,147,147);stroke-width:0.01" />
<line x1="-1.06407" y1="-0.0241403" x2="-0.0466039" y2="0.111231" style="stroke:rgb(246,147,147);stroke-width:0.01" />
<line x1="-1.06407" y1="-0.0241403" x2="0.261132" y2="0.146591" style="stroke:rgb(246,147,147);stroke-width:0.01" />
<line x1="-0.0245107" y1="-0.109855" x2="-1.06407" y2="-0.0241403" style="stroke:rgb(246,147,147);stroke-width:0.01" />
<line x1="-1.06407" y1="-0.0241403" x2="0.17545" y2="0.053704" style="stroke:rgb(246,147,147);stroke-width:0.01" />
<line x1="-0.0640711" y1="-0.0829638" x2="-1.06407" y2="-0.0241403" style="stroke:rgb(246,147,147);stroke-width:0.01" />
<line x1="-0.0640711" y1="-0.0717593" x2="-1.06407" y2="-0.0241403" style="stroke:rgb(246,147,147);stroke-width:0.01" />
<line x1="-1.06407" y1="-0.0241403" x2="0.0572881" y2="0.0244034" style="stroke:rgb(246,147,147);stroke-width:0.01" />
<line x1="-1.06407" y1="-0.0241403" x2="0.112585" y2="0.0168692" style="stroke:rgb(246,147,147);stroke-width:0.01" />
<line x1="-1.06407" y1="-0.0241403" x2="-0.0491828" y2="0.00811779" style="stroke:rgb(246,147,147);stroke-width:0.01" />
<line x1="0.0508714" y1="-0.058623" x2="-1.06407" y2="-0.0241403" style="stroke:rgb(246,147,147);stroke-width:0.01" />
<line x1="0.103714" y1="-0.0576973" x2="-1.06407" y2="-0.0241403" style="stroke:rgb(246,147,147);stroke-width:0.01" />
<line x1="-1.06407" y1="-0.0241403" x2="0.0209147" y2="0.0070212" style="stroke:rgb(246,147,147);stroke-width:0.01" />
<line x1="0.026838" y1="-0.0423221" x2="-1.06407" y2="-0.0241403" style="stroke:rgb(246,147,147);stroke-width:0.01" />
<line x1="-1.06407" y1="-0.0241403" x2="0.076774" y2="-0.0100558" style="stroke:rgb(246,147,147);stroke-width:0.01" />
<line x1="-1.06407" y1="-0.0241403" x2="0.013851" y2="-0.0111533" style="stroke:rgb(246,147,147);stroke-width:0.01" />
<line x1="0.251718" y1="-0.0372982" x2="-1.06407" y2="-0.0241403" style="stroke:rgb(246,147,147);stroke-width:0.01" />
<line x1="-1.06407" y1="-0.0241403" x2="-0.0561971" y2="-0.0162663" style="stroke:rgb(246,147,147);stroke-width:0.01" />
<line x1="0.00651712" y1="-0.0300226" x2="-1.06407" y2="-0.0241403" style="stroke:rgb(246,147,147);stroke-width:0.01" />
<line x1="-0.0545017" y1="-0.028925" x2="-1.06407" y2="-0.0241403" style="stroke:rgb(246,147,147);stroke-width:0.01" />
<line x1="0.0868723" y1="-0.0279139" x2="-1.06407" y2="-0.0241403" style="stroke:rgb(246,147,147);stroke-width:0.01" />
<line x1="0.142571" y1="-0.0278303" x2="-1.06407" y2="-0.0241403" style="stroke:rgb(246,147,147);stroke-width:0.01" />
<line x1="-1.06407" y1="-0.0241403" x2="-0.0640711" y2="-0.0241403" style="stroke:rgb(246,147,147);stroke-width:0.01" />
<line x1="0.251718" y1="-0.0372982" x2="0.17545" y2="0.053704" style="stroke:rgb(246,147,147);stroke-width:0.01" />
<line x1="0.346888" y1="0.0717501" x2="0.261132" y2="0.146591" style="stroke:rgb(246,147,147);stroke-width:0.01" />
</g>
</svg>
