<svg xmlns="http://www.w3.org/2000/svg" viewBox="-1.5 -1.5 3 3">
<g transform="scale(1, -1)">
<path d="M1.000000 0.900000 L1.001072 0.905304 L1.042254 0.901408 L1.068281 0.963875 L1.131148 0.961749 L1.135171 0.968757 L1.345679 0.962963 L1.413793 1.034483 L1.394737 1.052632 L1.273143 1.048043 L1.248521 1.076923 L1.127913 1.069492 L1.118644 1.084746 L0.000000 1.000000 z " fill="rgb(245,195,195)" />
<path d="M0.000000 0.000000 L1.000000 0.000000 L1.000000 1.000000 L0.000000 1.000000  z" fill="none" stroke="rgb(128,128,128)" stroke-width="0.01" />
<line x1="1.13115" y1="0.961749" x2="1.17021" y2="1.02979" style="stroke:rgb(246,147,147);stroke-width:0.01" />
<line x1="1.19355" y1="0.993548" x2="1.24852" y2="1.07692" style="stroke:rgb(246,147,147);stroke-width:0.01" />
<line x1="1.18631" y1="0.973384" x2="1.25258" y2="1.07216" style="stroke:rgb(246,147,147);stroke-width:0.01" />
<line x1="1.04225" y1="0.901408" x2="1.11864" y2="1.08475" style="stroke:rgb(246,147,147);stroke-width:0.01" />
<line x1="1.33019" y1="0.981132" x2="1.39474" y2="1.05263" style="stroke:rgb(246,147,147);stroke-width:0.01" />
<line x1="1.34568" y1="0.962963" x2="1.41379" y2="1.03448" style="stroke:rgb(246,147,147);stroke-width:0.01" />
<line x1="1.02514" y1="0.98324" x2="1.03863" y2="1.03863" style="stroke:rgb(246,147,147);stroke-width:0.01" />
<line x1="1" y1="0.9" x2="1.02091" y2="1.00348" style="stroke:rgb(246,147,147);stroke-width:0.01" />
<line x1="1.0066" y1="0.990099" x2="1.01302" y2="1.04121" style="stroke:rgb(246,147,147);stroke-width:0.01" />
<line x1="1" y1="0.956522" x2="1.00459" y2="1.00917" style="stroke:rgb(246,147,147);stroke-width:0.01" />
<line x1="1" y1="0.9" x2="1" y2="1" style="stroke:rgb(246,147,147);stroke-width:0.01" />
<line x1="1.0066" y1="0.990099" x2="1.00459" y2="1.00917" style="stroke:rgb(246,147,147);stroke-width:0.01" />
<line x1="1.04225" y1="0.901408" x2="1.01302" y2="1.04121" style="stroke:rgb(246,147,147);stroke-width:0.01" />
<line x1="1.06522" y1="0.956522" x2="1.03863" y2="1.03863" style="stroke:rgb(246,147,147);stroke-width:0.01" />
<line x1="1.13115" y1="0.961749" x2="1.09677" y2="1.03226" style="stroke:rgb(246,147,147);stroke-width:0.01" />
<line x1="1.18631" y1="0.973384" x2="1.11864" y2="1.08475" style="stroke:rgb(246,147,147);stroke-width:0.01" />
<line x1="1.19355" y1="0.993548" x2="1.17021" y2="1.02979" style="stroke:rgb(246,147,147);stroke-width:0.01" />
<line x1="1" y1="0.9" x2="0" y2="1" style="stroke:rgb(246,147,147);stroke-width:0.01" />
<line x1="1.04225" y1="0.901408" x2="0" y2="1" style="stroke:rgb(246,147,147);stroke-width:0.01" />
<line x1="0" y1="1" x2="1.11864" y2="1.08475" style="stroke:rgb(246,147,147);stroke-width:0.01" />
<line x1="0" y1="1" x2="1.24852" y2="1.07692" style="stroke:rgb(246,147,147);stroke-width:0.01" />
<line x1="0" y1="1" x2="1.25258" y2="1.07216" style="stroke:rgb(246,147,147);stroke-width:0.01" />
<line x1="1" y1="0.956522" x2="0" y2="1" style="stroke:rgb(246,147,147);stroke-width:0.01" />
<line x1="1.06522" y1="0.956522" x2="0" y2="1" style="stroke:rgb(246,147,147);stroke-width:0.01" />
<line x1="0" y1="1" x2="1.01302" y2="1.04121" style="stroke:rgb(246,147,147);stroke-width:0.01" />
<line x1="0" y1="1" x2="1.39474" y2="1.05263" style="stroke:rgb(246,147,147);stroke-width:0.01" />
<line x1="0" y1="1" x2="1.03863" y2="1.03863" style="stroke:rgb(246,147,147);stroke-width:0.01" />
<line x1="1.13115" y1="0.961749" x2="0" y2="1" style="stroke:rgb(246,147,147);stroke-width:0.01" />
<line x1="0" y1="1" x2="1.09677" y2="1.03226" style="stroke:rgb(246,147,147);stroke-width:0.01" />
<line x1="1.34568" y1="0.962963" x2="0" y2="1" style="stroke:rgb(246,147,147);stroke-width:0.01" />
<line x1="0" y1="1" x2="1.17021" y2="1.02979" style="stroke:rgb(246,147,147);stroke-width:0.01" />
<line x1="1.18631" y1="0.973384" x2="0" y2="1" style="stroke:rgb(246,147,147);stroke-width:0.01" />
<line x1="1.02514" y1="0.98324" x2="0" y2="1" style="stroke:rgb(246,147,147);stroke-width:0.01" />
<line x1="1.33019" y1="0.981132" x2="0" y2="1" style="stroke:rgb(246,147,147);stroke-width:0.01" />
<line x1="1.0066" y1="0.990099" x2="0" y2="1" style="stroke:rgb(246,147,147);stroke-width:0.01" />
<line x1="0" y1="1" x2="1.00459" y2="1.00917" style="stroke:rgb(246,147,147);stroke-width:0.01" />
<line x1="1.19355" y1="0.993548" x2="0" y2="1" style="stroke:rgb(246,147,147);stroke-width:0.01" />
<line x1="0" y1="1" x2="1.02091" y2="1.00348" style="stroke:rgb(246,147,147);stroke-width:0.01" />
<line x1="0" y1="1" x2="1" y2="1" style="stroke:rgb(246,147,147);stroke-width:0.01" />
<line x1="1.34568" y1="0.962963" x2="1.24852" y2="1.07692" style="stroke:rgb(246,147,147);stroke-width:0.01" />
<line x1="1.41379" y1="1.03448" x2="1.39474" y2="1.05263" style="stroke:rgb(246,147,147);stroke-width:0.01" />
</g>
</svg>
