<svg xmlns="http://www.w3.org/2000/svg" viewBox="-1.5 -1.5 3 3">
<g transform="scale(1, -1)">
<path d="M-0.092882 -0.095027 L-0.091811 -0.089723 L-0.050629 -0.093618 L-0.024601 -0.031152 L0.038265 -0.033278 L0.042289 -0.026270 L0.252797 -0.032064 L0.320911 0.039456 L0.301854 0.057605 L0.180260 0.053016 L0.155638 0.081896 L0.035030 0.074466 L0.025762 0.089719 L-1.092882 0.004973 z " fill="rgb(245,195,195)" />
<path d="M-1.092882 -0.995027 L-0.092882 -0.995027 L-0.092882 0.004973 L-1.092882 0.004973  z" fill="none" stroke="rgb(128,128,128)" stroke-width="0.01" />
<line x1="0.0382651" y1="-0.0332781" x2="0.0773303" y2="0.0347605" style="stroke:rgb(246,147,147);stroke-width:0.01" />
<line x1="0.100666" y1="-0.00147832" x2="0.155638" y2="0.0818964" style="stroke:rgb(246,147,147);stroke-width:0.01" />
<line x1="0.0934293" y1="-0.0216427" x2="0.159695" y2="0.0771382" style="stroke:rgb(246,147,147);stroke-width:0.01" />
<line x1="-0.0506289" y1="-0.0936183" x2="0.0257616" y2="0.0897191" style="stroke:rgb(246,147,147);stroke-width:0.01" />
<line x1="0.237306" y1="-0.0138946" x2="0.301854" y2="0.0576049" style="stroke:rgb(246,147,147);stroke-width:0.01" />
<line x1="0.252797" y1="-0.0320637" x2="0.320911" y2="0.039456" style="stroke:rgb(246,147,147);stroke-width:0.01" />
<line x1="-0.0677428" y1="-0.0117865" x2="-0.0542558" y2="0.0435999" style="stroke:rgb(246,147,147);stroke-width:0.01" />
<line x1="-0.0928824" y1="-0.0950267" x2="-0.0719765" y2="0.00845761" style="stroke:rgb(246,147,147);stroke-width:0.01" />
<line x1="-0.0862818" y1="-0.0049277" x2="-0.0798673" y2="0.046188" style="stroke:rgb(246,147,147);stroke-width:0.01" />
<line x1="-0.0928824" y1="-0.038505" x2="-0.0882953" y2="0.0141476" style="stroke:rgb(246,147,147);stroke-width:0.01" />
<line x1="-0.0928824" y1="-0.0950267" x2="-0.0928824" y2="0.00497329" style="stroke:rgb(246,147,147);stroke-width:0.01" />
<line x1="-0.0862818" y1="-0.0049277" x2="-0.0882953" y2="0.0141476" style="stroke:rgb(246,147,147);stroke-width:0.01" />
<line x1="-0.0506289" y1="-0.0936183" x2="-0.0798673" y2="0.046188" style="stroke:rgb(246,147,147);stroke-width:0.01" />
<line x1="-0.027665" y1="-0.038505" x2="-0.0542558" y2="0.0435999" style="stroke:rgb(246,147,147);stroke-width:0.01" />
<line x1="0.0382651" y1="-0.0332781" x2="0.00389175" y2="0.0372314" style="stroke:rgb(246,147,147);stroke-width:0.01" />
<line x1="0.0934293" y1="-0.0216427" x2="0.0257616" y2="0.0897191" style="stroke:rgb(246,147,147);stroke-width:0.01" />
<line x1="0.100666" y1="-0.00147832" x2="0.0773303" y2="0.0347605" style="stroke:rgb(246,147,147);stroke-width:0.01" />
<line x1="-0.0928824" y1="-0.0950267" x2="-1.09288" y2="0.00497329" style="stroke:rgb(246,147,147);stroke-width:0.01" />
<line x1="-0.0506289" y1="-0.0936183" x2="-1.09288" y2="0.00497329" style="stroke:rgb(246,147,147);stroke-width:0.01" />
<line x1="-1.09288" y1="0.00497329" x2="0.0257616" y2="0.0897191" style="stroke:rgb(246,147,147);stroke-width:0.01" />
<line x1="-1.09288" y1="0.00497329" x2="0.155638" y2="0.0818964" style="stroke:rgb(246,147,147);stroke-width:0.01" />
<line x1="-1.09288" y1="0.00497329" x2="0.159695" y2="0.0771382" style="stroke:rgb(246,147,147);stroke-width:0.01" />
<line x1="-0.0928824" y1="-0.038505" x2="-1.09288" y2="0.00497329" style="stroke:rgb(246,147,147);stroke-width:0.01" />
<line x1="-0.027665" y1="-0.038505" x2="-1.09288" y2="0.00497329" style="stroke:rgb(246,147,147);stroke-width:0.01" />
<line x1="-1.09288" y1="0.00497329" x2="-0.0798673" y2="0.046188" style="stroke:rgb(246,147,147);stroke-width:0.01" />
<line x1="-1.09288" y1="0.00497329" x2="0.301854" y2="0.0576049" style="stroke:rgb(246,147,147);stroke-width:0.01" />
<line x1="-1.09288" y1="0.00497329" x2="-0.0542558" y2="0.0435999" style="stroke:rgb(246,147,147);stroke-width:0.01" />
<line x1="0.0382651" y1="-0.0332781" x2="-1.09288" y2="0.00497329" style="stroke:rgb(246,147,147);stroke-width:0.01" />
<line x1="-1.09288" y1="0.00497329" x2="0.00389175" y2="0.0372314" style="stroke:rgb(246,147,147);stroke-width:0.01" />
<line x1="0.252797" y1="-0.0320637" x2="-1.09288" y2="0.00497329" style="stroke:rgb(246,147,147);stroke-width:0.01" />
<line x1="-1.09288" y1="0.00497329" x2="0.0773303" y2="0.0347605" style="stroke:rgb(246,147,147);stroke-width:0.01" />
<line x1="0.0934293" y1="-0.0216427" x2="-1.09288" y2="0.00497329" style="stroke:rgb(246,147,147);stroke-width:0.01" />
<line x1="-0.0677428" y1="-0.0117865" x2="-1.09288" y2="0.00497329" style="stroke:rgb(246,147,147);stroke-width:0.01" />
<line x1="0.237306" y1="-0.0138946" x2="-1.09288" y2="0.00497329" style="stroke:rgb(246,147,147);stroke-width:0.01" />
<line x1="-0.0862818" y1="-0.0049277" x2="-1.09288" y2="0.00497329" style="stroke:rgb(246,147,147);stroke-width:0.01" />
<line x1="-1.09288" y1="0.00497329" x2="-0.0882953" y2="0.0141476" style="stroke:rgb(246,147,147);stroke-width:0.01" />
<line x1="0.100666" y1="-0.00147832" x2="-1.09288" y2="0.00497329" style="stroke:rgb(246,147,147);stroke-width:0.01" />
<line x1="-1.09288" y1="0.00497329" x2="-0.0719765" y2="0.00845761" style="stroke:rgb(246,147,147);stroke-width:0.01" />
<line x1="-1.09288" y1="0.00497329" x2="-0.0928824" y2="0.00497329" style="stroke:rgb(246,147,147);stroke-width:0.01" />
<line x1="0.252797" y1="-0.0320637" x2="0.155638" y2="0.0818964" style="stroke:rgb(246,147,147);stroke-width:0.01" />
<line x1="0.320911" y1="0.039456" x2="0.301854" y2="0.0576049" style="stroke:rgb(246,147,147);stroke-width:0.01" />
</g>
</svg>
