<svg xmlns="http://www.w3.org/2000/svg" viewBox="-1.5 -1.5 3 3">
<g transform="scale(1, -1)">
<path d="M1.115385 0.875000 L1.145837 0.921186 L1.268456 0.912752 L1.314559 0.963819 L1.345679 0.962963 L1.413793 1.034483 L1.394737 1.052632 L1.273143 1.048043 L1.159091 1.181818 L0.000000 1.000000 z " fill="rgb(245,195,195)" />
<path d="M0.000000 0.000000 L1.000000 0.000000 L1.000000 1.000000 L0.000000 1.000000  z" fill="none" stroke="rgb(128,128,128)" stroke-width="0.01" />
<line x1="1.11538" y1="0.875" x2="1.20339" y2="1.00847" style="stroke:rgb(246,147,147);stroke-width:0.01" />
<line x1="1.08333" y1="1" x2="1.15909" y2="1.18182" style="stroke:rgb(246,147,147);stroke-width:0.01" />
<line x1="1.07194" y1="0.997602" x2="1.07792" y2="1.01299" style="stroke:rgb(246,147,147);stroke-width:0.01" />
<line x1="1.26846" y1="0.912752" x2="1.39474" y2="1.05263" style="stroke:rgb(246,147,147);stroke-width:0.01" />
<line x1="1.34568" y1="0.962963" x2="1.41379" y2="1.03448" style="stroke:rgb(246,147,147);stroke-width:0.01" />
<line x1="1.02454" y1="0.957055" x2="1.05063" y2="1.05316" style="stroke:rgb(246,147,147);stroke-width:0.01" />
<line x1="1.01271" y1="0.932203" x2="1.03046" y2="1.00508" style="stroke:rgb(246,147,147);stroke-width:0.01" />
<line x1="1.00619" y1="0.95356" x2="1.01527" y2="1.00763" style="stroke:rgb(246,147,147);stroke-width:0.01" />
<line x1="1" y1="0.967742" x2="1.0034" y2="1.02041" style="stroke:rgb(246,147,147);stroke-width:0.01" />
<line x1="1" y1="0.967742" x2="1" y2="1" style="stroke:rgb(246,147,147);stroke-width:0.01" />
<line x1="1.00619" y1="0.95356" x2="1.00239" y2="1.00478" style="stroke:rgb(246,147,147);stroke-width:0.01" />
<line x1="1.01271" y1="0.932203" x2="1.0034" y2="1.02041" style="stroke:rgb(246,147,147);stroke-width:0.01" />
<line x1="1.02454" y1="0.957055" x2="1.01527" y2="1.00763" style="stroke:rgb(246,147,147);stroke-width:0.01" />
<line x1="1.0339" y1="0.991525" x2="1.03046" y2="1.00508" style="stroke:rgb(246,147,147);stroke-width:0.01" />
<line x1="1.11538" y1="0.875" x2="1.04969" y2="1.04969" style="stroke:rgb(246,147,147);stroke-width:0.01" />
<line x1="1.07194" y1="0.997602" x2="1.05063" y2="1.05316" style="stroke:rgb(246,147,147);stroke-width:0.01" />
<line x1="1.08333" y1="1" x2="1.07792" y2="1.01299" style="stroke:rgb(246,147,147);stroke-width:0.01" />
<line x1="1.26846" y1="0.912752" x2="1.20339" y2="1.00847" style="stroke:rgb(246,147,147);stroke-width:0.01" />
<line x1="0" y1="1" x2="1.15909" y2="1.18182" style="stroke:rgb(246,147,147);stroke-width:0.01" />
<line x1="1.11538" y1="0.875" x2="0" y2="1" style="stroke:rgb(246,147,147);stroke-width:0.01" />
<line x1="1.26846" y1="0.912752" x2="0" y2="1" style="stroke:rgb(246,147,147);stroke-width:0.01" />
<line x1="1.01271" y1="0.932203" x2="0" y2="1" style="stroke:rgb(246,147,147);stroke-width:0.01" />
<line x1="0" y1="1" x2="1.05063" y2="1.05316" style="stroke:rgb(246,147,147);stroke-width:0.01" />
<line x1="0" y1="1" x2="1.04969" y2="1.04969" style="stroke:rgb(246,147,147);stroke-width:0.01" />
<line x1="1.00619" y1="0.95356" x2="0" y2="1" style="stroke:rgb(246,147,147);stroke-width:0.01" />
<line x1="1.02454" y1="0.957055" x2="0" y2="1" style="stroke:rgb(246,147,147);stroke-width:0.01" />
<line x1="0" y1="1" x2="1.39474" y2="1.05263" style="stroke:rgb(246,147,147);stroke-width:0.01" />
<line x1="1" y1="0.967742" x2="0" y2="1" style="stroke:rgb(246,147,147);stroke-width:0.01" />
<line x1="1.34568" y1="0.962963" x2="0" y2="1" style="stroke:rgb(246,147,147);stroke-width:0.01" />
<line x1="0" y1="1" x2="1.0034" y2="1.02041" style="stroke:rgb(246,147,147);stroke-width:0.01" />
<line x1="0" y1="1" x2="1.07792" y2="1.01299" style="stroke:rgb(246,147,147);stroke-width:0.01" />
<line x1="1.0339" y1="0.991525" x2="0" y2="1" style="stroke:rgb(246,147,147);stroke-width:0.01" />
<line x1="0" y1="1" x2="1.01527" y2="1.00763" style="stroke:rgb(246,147,147);stroke-width:0.01" />
<line x1="0" y1="1" x2="1.20339" y2="1.00847" style="stroke:rgb(246,147,147);stroke-width:0.01" />
<line x1="0" y1="1" x2="1.03046" y2="1.00508" style="stroke:rgb(246,147,147);stroke-width:0.01" />
<line x1="0" y1="1" x2="1.00239" y2="1.00478" style="stroke:rgb(246,147,147);stroke-width:0.01" />
<line x1="1.07194" y1="0.997602" x2="0" y2="1" style="stroke:rgb(246,147,147);stroke-width:0.01" />
<line x1="0" y1="1" x2="1.08333" y2="1" style="stroke:rgb(246,147,147);stroke-width:0.01" />
<line x1="1.34568" y1="0.962963" x2="1.15909" y2="1.18182" style="stroke:rgb(246,147,147);stroke-width:0.01" />
<line x1="1.41379" y1="1.03448" x2="1.39474" y2="1.05263" style="stroke:rgb(246,147,147);stroke-width:0.01" />
</g>
</svg>
