<svg xmlns="http://www.w3.org/2000/svg" viewBox="-1.5 -1.5 3 3">
<g transform="scale(1, -1)">
<path d="M-0.027683 -0.120270 L0.002769 -0.074084 L0.125388 -0.082518 L0.171491 -0.031450 L0.202611 -0.032307 L0.270725 0.039213 L0.251669 0.057362 L0.130075 0.052774 L0.016023 0.186549 L-1.143068 0.004730 z " fill="rgb(245,195,195)" />
<path d="M-1.143068 -0.995270 L-0.143068 -0.995270 L-0.143068 0.004730 L-1.143068 0.004730  z" fill="none" stroke="rgb(128,128,128)" stroke-width="0.01" />
<line x1="-0.0276833" y1="-0.12027" x2="0.0603219" y2="0.013205" style="stroke:rgb(246,147,147);stroke-width:0.01" />
<line x1="-0.0597346" y1="0.00473044" x2="0.0160229" y2="0.186549" style="stroke:rgb(246,147,147);stroke-width:0.01" />
<line x1="-0.0711255" y1="0.00233236" x2="-0.0651459" y2="0.0177175" style="stroke:rgb(246,147,147);stroke-width:0.01" />
<line x1="0.125388" y1="-0.0825179" x2="0.251669" y2="0.057362" style="stroke:rgb(246,147,147);stroke-width:0.01" />
<line x1="0.202611" y1="-0.0323066" x2="0.270725" y2="0.0392132" style="stroke:rgb(246,147,147);stroke-width:0.01" />
<line x1="-0.118528" y1="-0.0382143" x2="-0.0924351" y2="0.057895" style="stroke:rgb(246,147,147);stroke-width:0.01" />
<line x1="-0.130356" y1="-0.0630662" x2="-0.112611" y2="0.00980658" style="stroke:rgb(246,147,147);stroke-width:0.01" />
<line x1="-0.136876" y1="-0.0417092" x2="-0.127801" y2="0.012364" style="stroke:rgb(246,147,147);stroke-width:0.01" />
<line x1="-0.143068" y1="-0.0275276" x2="-0.139667" y2="0.0251386" style="stroke:rgb(246,147,147);stroke-width:0.01" />
<line x1="-0.143068" y1="-0.0275276" x2="-0.143068" y2="0.00473044" style="stroke:rgb(246,147,147);stroke-width:0.01" />
<line x1="-0.136876" y1="-0.0417092" x2="-0.140676" y2="0.00951513" style="stroke:rgb(246,147,147);stroke-width:0.01" />
<line x1="-0.130356" y1="-0.0630662" x2="-0.139667" y2="0.0251386" style="stroke:rgb(246,147,147);stroke-width:0.01" />
<line x1="-0.118528" y1="-0.0382143" x2="-0.127801" y2="0.012364" style="stroke:rgb(246,147,147);stroke-width:0.01" />
<line x1="-0.10917" y1="-0.00374413" x2="-0.112611" y2="0.00980658" style="stroke:rgb(246,147,147);stroke-width:0.01" />
<line x1="-0.0276833" y1="-0.12027" x2="-0.0933785" y2="0.0544199" style="stroke:rgb(246,147,147);stroke-width:0.01" />
<line x1="-0.0711255" y1="0.00233236" x2="-0.0924351" y2="0.057895" style="stroke:rgb(246,147,147);stroke-width:0.01" />
<line x1="-0.0597346" y1="0.00473044" x2="-0.0651459" y2="0.0177175" style="stroke:rgb(246,147,147);stroke-width:0.01" />
<line x1="0.125388" y1="-0.0825179" x2="0.0603219" y2="0.013205" style="stroke:rgb(246,147,147);stroke-width:0.01" />
<line x1="-1.14307" y1="0.00473044" x2="0.0160229" y2="0.186549" style="stroke:rgb(246,147,147);stroke-width:0.01" />
<line x1="-0.0276833" y1="-0.12027" x2="-1.14307" y2="0.00473044" style="stroke:rgb(246,147,147);stroke-width:0.01" />
<line x1="0.125388" y1="-0.0825179" x2="-1.14307" y2="0.00473044" style="stroke:rgb(246,147,147);stroke-width:0.01" />
<line x1="-0.130356" y1="-0.0630662" x2="-1.14307" y2="0.00473044" style="stroke:rgb(246,147,147);stroke-width:0.01" />
<line x1="-1.14307" y1="0.00473044" x2="-0.0924351" y2="0.057895" style="stroke:rgb(246,147,147);stroke-width:0.01" />
<line x1="-1.14307" y1="0.00473044" x2="-0.0933785" y2="0.0544199" style="stroke:rgb(246,147,147);stroke-width:0.01" />
<line x1="-0.136876" y1="-0.0417092" x2="-1.14307" y2="0.00473044" style="stroke:rgb(246,147,147);stroke-width:0.01" />
<line x1="-0.118528" y1="-0.0382143" x2="-1.14307" y2="0.00473044" style="stroke:rgb(246,147,147);stroke-width:0.01" />
<line x1="-1.14307" y1="0.00473044" x2="0.251669" y2="0.057362" style="stroke:rgb(246,147,147);stroke-width:0.01" />
<line x1="-0.143068" y1="-0.0275276" x2="-1.14307" y2="0.00473044" style="stroke:rgb(246,147,147);stroke-width:0.01" />
<line x1="0.202611" y1="-0.0323066" x2="-1.14307" y2="0.00473044" style="stroke:rgb(246,147,147);stroke-width:0.01" />
<line x1="-1.14307" y1="0.00473044" x2="-0.139667" y2="0.0251386" style="stroke:rgb(246,147,147);stroke-width:0.01" />
<line x1="-1.14307" y1="0.00473044" x2="-0.0651459" y2="0.0177175" style="stroke:rgb(246,147,147);stroke-width:0.01" />
<line x1="-0.10917" y1="-0.00374413" x2="-1.14307" y2="0.00473044" style="stroke:rgb(246,147,147);stroke-width:0.01" />
<line x1="-1.14307" y1="0.00473044" x2="-0.127801" y2="0.012364" style="stroke:rgb(246,147,147);stroke-width:0.01" />
<line x1="-1.14307" y1="0.00473044" x2="0.0603219" y2="0.013205" style="stroke:rgb(246,147,147);stroke-width:0.01" />
<line x1="-1.14307" y1="0.00473044" x2="-0.112611" y2="0.00980658" style="stroke:rgb(246,147,147);stroke-width:0.01" />
<line x1="-1.14307" y1="0.00473044" x2="-0.140676" y2="0.00951513" style="stroke:rgb(246,147,147);stroke-width:0.01" />
<line x1="-0.0711255" y1="0.00233236" x2="-1.14307" y2="0.00473044" style="stroke:rgb(246,147,147);stroke-width:0.01" />
<line x1="-1.14307" y1="0.00473044" x2="-0.0597346" y2="0.00473044" style="stroke:rgb(246,147,147);stroke-width:0.01" />
<line x1="0.202611" y1="-0.0323066" x2="0.0160229" y2="0.186549" style="stroke:rgb(246,147,147);stroke-width:0.01" />
<line x1="0.270725" y1="0.0392132" x2="0.251669" y2="0.057362" style="stroke:rgb(246,147,147);stroke-width:0.01" />
</g>
</svg>
