<svg xmlns="http://www.w3.org/2000/svg" viewBox="-1.5 -1.5 3 3">
<g transform="scale(1, -1)">
<path d="M-0.121309 -0.084086 L-0.117451 -0.070859 L0.018980 -0.081259 L0.028063 -0.068146 L0.136764 -0.075144 L0.184831 -0.021900 L0.216481 -0.022588 L0.277333 0.041306 L0.258277 0.059455 L0.148495 0.055312 L0.129026 0.077620 L0.001699 0.070497 L-0.024728 0.112969 L-1.136460 0.006823 z " fill="rgb(245,195,195)" />
<path d="M-1.136460 -0.993177 L-0.136460 -0.993177 L-0.136460 0.006823 L-1.136460 0.006823  z" fill="none" stroke="rgb(128,128,128)" stroke-width="0.01" />
<line x1="0.0540159" y1="-0.0135847" x2="0.07375" y2="0.0158325" style="stroke:rgb(246,147,147);stroke-width:0.01" />
<line x1="0.0189802" y1="-0.0812595" x2="0.129026" y2="0.0776199" style="stroke:rgb(246,147,147);stroke-width:0.01" />
<line x1="-0.043437" y1="-0.0164324" x2="-0.0283521" y2="0.0158325" style="stroke:rgb(246,147,147);stroke-width:0.01" />
<line x1="-0.0778092" y1="-0.0254346" x2="-0.0247284" y2="0.112969" style="stroke:rgb(246,147,147);stroke-width:0.01" />
<line x1="-0.0913475" y1="-0.0458081" x2="-0.0632895" y2="0.0312137" style="stroke:rgb(246,147,147);stroke-width:0.01" />
<line x1="0.136764" y1="-0.0751438" x2="0.258277" y2="0.059455" style="stroke:rgb(246,147,147);stroke-width:0.01" />
<line x1="0.216481" y1="-0.0225883" x2="0.277333" y2="0.0413062" style="stroke:rgb(246,147,147);stroke-width:0.01" />
<line x1="-0.121309" y1="-0.0840856" x2="-0.0915164" y2="0.0180594" style="stroke:rgb(246,147,147);stroke-width:0.01" />
<line x1="-0.130091" y1="-0.0122848" x2="-0.119654" y2="0.065647" style="stroke:rgb(246,147,147);stroke-width:0.01" />
<line x1="-0.13646" y1="-0.0302136" x2="-0.132554" y2="0.0224484" style="stroke:rgb(246,147,147);stroke-width:0.01" />
<line x1="-0.13646" y1="-0.0254346" x2="-0.133383" y2="0.0222081" style="stroke:rgb(246,147,147);stroke-width:0.01" />
<line x1="-0.13646" y1="-0.0302136" x2="-0.13646" y2="0.00682344" style="stroke:rgb(246,147,147);stroke-width:0.01" />
<line x1="-0.130091" y1="-0.0122848" x2="-0.133383" y2="0.0222081" style="stroke:rgb(246,147,147);stroke-width:0.01" />
<line x1="-0.121309" y1="-0.0840856" x2="-0.132554" y2="0.0224484" style="stroke:rgb(246,147,147);stroke-width:0.01" />
<line x1="-0.0913475" y1="-0.0458081" x2="-0.119654" y2="0.065647" style="stroke:rgb(246,147,147);stroke-width:0.01" />
<line x1="-0.0778092" y1="-0.0254346" x2="-0.0915164" y2="0.0180594" style="stroke:rgb(246,147,147);stroke-width:0.01" />
<line x1="-0.043437" y1="-0.0164324" x2="-0.0632895" y2="0.0312137" style="stroke:rgb(246,147,147);stroke-width:0.01" />
<line x1="0.0189802" y1="-0.0812595" x2="-0.0283521" y2="0.0158325" style="stroke:rgb(246,147,147);stroke-width:0.01" />
<line x1="0.0540159" y1="-0.0135847" x2="-0.0247284" y2="0.112969" style="stroke:rgb(246,147,147);stroke-width:0.01" />
<line x1="0.136764" y1="-0.0751438" x2="0.07375" y2="0.0158325" style="stroke:rgb(246,147,147);stroke-width:0.01" />
<line x1="-1.13646" y1="0.00682344" x2="-0.0247284" y2="0.112969" style="stroke:rgb(246,147,147);stroke-width:0.01" />
<line x1="-0.121309" y1="-0.0840856" x2="-1.13646" y2="0.00682344" style="stroke:rgb(246,147,147);stroke-width:0.01" />
<line x1="0.0189802" y1="-0.0812595" x2="-1.13646" y2="0.00682344" style="stroke:rgb(246,147,147);stroke-width:0.01" />
<line x1="0.136764" y1="-0.0751438" x2="-1.13646" y2="0.00682344" style="stroke:rgb(246,147,147);stroke-width:0.01" />
<line x1="-1.13646" y1="0.00682344" x2="-0.119654" y2="0.065647" style="stroke:rgb(246,147,147);stroke-width:0.01" />
<line x1="-1.13646" y1="0.00682344" x2="0.129026" y2="0.0776199" style="stroke:rgb(246,147,147);stroke-width:0.01" />
<line x1="-0.0913475" y1="-0.0458081" x2="-1.13646" y2="0.00682344" style="stroke:rgb(246,147,147);stroke-width:0.01" />
<line x1="-1.13646" y1="0.00682344" x2="0.258277" y2="0.059455" style="stroke:rgb(246,147,147);stroke-width:0.01" />
<line x1="-0.13646" y1="-0.0302136" x2="-1.13646" y2="0.00682344" style="stroke:rgb(246,147,147);stroke-width:0.01" />
<line x1="-0.13646" y1="-0.0254346" x2="-1.13646" y2="0.00682344" style="stroke:rgb(246,147,147);stroke-width:0.01" />
<line x1="-0.0778092" y1="-0.0254346" x2="-1.13646" y2="0.00682344" style="stroke:rgb(246,147,147);stroke-width:0.01" />
<line x1="-1.13646" y1="0.00682344" x2="-0.0632895" y2="0.0312137" style="stroke:rgb(246,147,147);stroke-width:0.01" />
<line x1="0.216481" y1="-0.0225883" x2="-1.13646" y2="0.00682344" style="stroke:rgb(246,147,147);stroke-width:0.01" />
<line x1="-0.043437" y1="-0.0164324" x2="-1.13646" y2="0.00682344" style="stroke:rgb(246,147,147);stroke-width:0.01" />
<line x1="-0.130091" y1="-0.0122848" x2="-1.13646" y2="0.00682344" style="stroke:rgb(246,147,147);stroke-width:0.01" />
<line x1="0.0540159" y1="-0.0135847" x2="-1.13646" y2="0.00682344" style="stroke:rgb(246,147,147);stroke-width:0.01" />
<line x1="-1.13646" y1="0.00682344" x2="-0.132554" y2="0.0224484" style="stroke:rgb(246,147,147);stroke-width:0.01" />
<line x1="-1.13646" y1="0.00682344" x2="-0.133383" y2="0.0222081" style="stroke:rgb(246,147,147);stroke-width:0.01" />
<line x1="-1.13646" y1="0.00682344" x2="-0.0915164" y2="0.0180594" style="stroke:rgb(246,147,147);stroke-width:0.01" />
<line x1="-1.13646" y1="0.00682344" x2="-0.0283521" y2="0.0158325" style="stroke:rgb(246,147,147);stroke-width:0.01" />
<line x1="-1.13646" y1="0.00682344" x2="0.07375" y2="0.0158325" style="stroke:rgb(246,147,147);stroke-width:0.01" />
<line x1="-1.13646" y1="0.00682344" x2="-0.13646" y2="0.00682344" style="stroke:rgb(246,147,147);stroke-width:0.01" />
<line x1="0.216481" y1="-0.0225883" x2="0.129026" y2="0.0776199" style="stroke:rgb(246,147,147);stroke-width:0.01" />
<line x1="0.277333" y1="0.0413062" x2="0.258277" y2="0.059455" style="stroke:rgb(246,147,147);stroke-width:0.01" />
</g>
</svg>
