<svg xmlns="http://www.w3.org/2000/svg" viewBox="-1.5 -1.5 3 3">
<g transform="scale(1, -1)">
<path d="M0.064783 -0.107517 L0.105855 -0.057351 L0.124412 -0.058363 L0.158821 -0.018003 L0.258315 -0.020173 L0.282906 0.004213 L0.213532 0.074170 L-0.026032 0.062762 L-0.051296 0.110130 L-1.131296 0.010130 z " fill="rgb(245,195,195)" />
<path d="M-1.131296 -0.989870 L-0.131296 -0.989870 L-0.131296 0.010130 L-1.131296 0.010130  z" fill="none" stroke="rgb(128,128,128)" stroke-width="0.01" />
<line x1="0.0308666" y1="-0.0439237" x2="0.0720943" y2="0.0186049" style="stroke:rgb(246,147,147);stroke-width:0.01" />
<line x1="-0.0678035" y1="-0.0374887" x2="-0.0260324" y2="0.062762" style="stroke:rgb(246,147,147);stroke-width:0.01" />
<line x1="0.0647829" y1="-0.107517" x2="0.213532" y2="0.0741698" style="stroke:rgb(246,147,147);stroke-width:0.01" />
<line x1="0.124412" y1="-0.0583628" x2="0.205603" y2="0.0368683" style="stroke:rgb(246,147,147);stroke-width:0.01" />
<line x1="-0.093678" y1="-0.0243524" x2="-0.0512956" y2="0.11013" style="stroke:rgb(246,147,147);stroke-width:0.01" />
<line x1="0.258315" y1="-0.0201727" x2="0.282906" y2="0.00421321" style="stroke:rgb(246,147,147);stroke-width:0.01" />
<line x1="-0.0990375" y1="-0.0221277" x2="-0.0863517" y2="0.0213663" style="stroke:rgb(246,147,147);stroke-width:0.01" />
<line x1="-0.11039" y1="0.00664605" x2="-0.106156" y2="0.0268901" style="stroke:rgb(246,147,147);stroke-width:0.01" />
<line x1="-0.119461" y1="-0.0312897" x2="-0.108824" y2="0.0213663" style="stroke:rgb(246,147,147);stroke-width:0.01" />
<line x1="-0.131296" y1="-0.0807787" x2="-0.112947" y2="0.0193047" style="stroke:rgb(246,147,147);stroke-width:0.01" />
<line x1="-0.131296" y1="-0.0221277" x2="-0.127493" y2="0.0367463" style="stroke:rgb(246,147,147);stroke-width:0.01" />
<line x1="-0.131296" y1="-0.0807787" x2="-0.131296" y2="0.0101304" style="stroke:rgb(246,147,147);stroke-width:0.01" />
<line x1="-0.119461" y1="-0.0312897" x2="-0.127493" y2="0.0367463" style="stroke:rgb(246,147,147);stroke-width:0.01" />
<line x1="-0.11039" y1="0.00664605" x2="-0.112947" y2="0.0193047" style="stroke:rgb(246,147,147);stroke-width:0.01" />
<line x1="-0.0990375" y1="-0.0221277" x2="-0.108824" y2="0.0213663" style="stroke:rgb(246,147,147);stroke-width:0.01" />
<line x1="-0.093678" y1="-0.0243524" x2="-0.106156" y2="0.0268901" style="stroke:rgb(246,147,147);stroke-width:0.01" />
<line x1="-0.0678035" y1="-0.0374887" x2="-0.0863517" y2="0.0213663" style="stroke:rgb(246,147,147);stroke-width:0.01" />
<line x1="0.0647829" y1="-0.107517" x2="-0.0512956" y2="0.11013" style="stroke:rgb(246,147,147);stroke-width:0.01" />
<line x1="0.124412" y1="-0.0583628" x2="0.0720943" y2="0.0186049" style="stroke:rgb(246,147,147);stroke-width:0.01" />
<line x1="0.0647829" y1="-0.107517" x2="-1.1313" y2="0.0101304" style="stroke:rgb(246,147,147);stroke-width:0.01" />
<line x1="-1.1313" y1="0.0101304" x2="-0.0512956" y2="0.11013" style="stroke:rgb(246,147,147);stroke-width:0.01" />
<line x1="-0.131296" y1="-0.0807787" x2="-1.1313" y2="0.0101304" style="stroke:rgb(246,147,147);stroke-width:0.01" />
<line x1="0.124412" y1="-0.0583628" x2="-1.1313" y2="0.0101304" style="stroke:rgb(246,147,147);stroke-width:0.01" />
<line x1="-1.1313" y1="0.0101304" x2="0.213532" y2="0.0741698" style="stroke:rgb(246,147,147);stroke-width:0.01" />
<line x1="0.0308666" y1="-0.0439237" x2="-1.1313" y2="0.0101304" style="stroke:rgb(246,147,147);stroke-width:0.01" />
<line x1="-0.0678035" y1="-0.0374887" x2="-1.1313" y2="0.0101304" style="stroke:rgb(246,147,147);stroke-width:0.01" />
<line x1="-0.119461" y1="-0.0312897" x2="-1.1313" y2="0.0101304" style="stroke:rgb(246,147,147);stroke-width:0.01" />
<line x1="-0.093678" y1="-0.0243524" x2="-1.1313" y2="0.0101304" style="stroke:rgb(246,147,147);stroke-width:0.01" />
<line x1="-0.131296" y1="-0.0221277" x2="-1.1313" y2="0.0101304" style="stroke:rgb(246,147,147);stroke-width:0.01" />
<line x1="-0.0990375" y1="-0.0221277" x2="-1.1313" y2="0.0101304" style="stroke:rgb(246,147,147);stroke-width:0.01" />
<line x1="-1.1313" y1="0.0101304" x2="-0.127493" y2="0.0367463" style="stroke:rgb(246,147,147);stroke-width:0.01" />
<line x1="0.258315" y1="-0.0201727" x2="-1.1313" y2="0.0101304" style="stroke:rgb(246,147,147);stroke-width:0.01" />
<line x1="-1.1313" y1="0.0101304" x2="0.205603" y2="0.0368683" style="stroke:rgb(246,147,147);stroke-width:0.01" />
<line x1="-1.1313" y1="0.0101304" x2="-0.106156" y2="0.0268901" style="stroke:rgb(246,147,147);stroke-width:0.01" />
<line x1="-1.1313" y1="0.0101304" x2="-0.108824" y2="0.0213663" style="stroke:rgb(246,147,147);stroke-width:0.01" />
<line x1="-1.1313" y1="0.0101304" x2="-0.0863517" y2="0.0213663" style="stroke:rgb(246,147,147);stroke-width:0.01" />
<line x1="-1.1313" y1="0.0101304" x2="-0.112947" y2="0.0193047" style="stroke:rgb(246,147,147);stroke-width:0.01" />
<line x1="-1.1313" y1="0.0101304" x2="0.0720943" y2="0.0186049" style="stroke:rgb(246,147,147);stroke-width:0.01" />
<line x1="-0.11039" y1="0.00664605" x2="-1.1313" y2="0.0101304" style="stroke:rgb(246,147,147);stroke-width:0.01" />
<line x1="-1.1313" y1="0.0101304" x2="-0.131296" y2="0.0101304" style="stroke:rgb(246,147,147);stroke-width:0.01" />
<line x1="0.258315" y1="-0.0201727" x2="0.205603" y2="0.0368683" style="stroke:rgb(246,147,147);stroke-width:0.01" />
<line x1="0.282906" y1="0.00421321" x2="0.213532" y2="0.0741698" style="stroke:rgb(246,147,147);stroke-width:0.01" />
</g>
</svg>
