<svg xmlns="http://www.w3.org/2000/svg" viewBox="-1.5 -1.5 3 3">
<g transform="scale(1, -1)">
<path d="M1.400000 0.800000 L1.192308 1.076923 L0.000000 1.000000 z " fill="rgb(245,195,195)" />
<path d="M0.000000 0.000000 L1.000000 0.000000 L1.000000 1.000000 L0.000000 1.000000  z" fill="none" stroke="rgb(128,128,128)" stroke-width="0.01" />
<line x1="1.10381" y1="0.920415" x2="1.19231" y2="1.07692" style="stroke:rgb(246,147,147);stroke-width:0.01" />
<line x1="1.12903" y1="0.83871" x2="1.25" y2="1" style="stroke:rgb(246,147,147);stroke-width:0.01" />
<line x1="1.03488" y1="0.976744" x2="1.05505" y2="1.04587" style="stroke:rgb(246,147,147);stroke-width:0.01" />
<line x1="1.01399" y1="0.951049" x2="1.03008" y2="1.02256" style="stroke:rgb(246,147,147);stroke-width:0.01" />
<line x1="1.01198" y1="0.988024" x2="1.0202" y2="1.03704" style="stroke:rgb(246,147,147);stroke-width:0.01" />
<line x1="1.00787" y1="0.992126" x2="1.00957" y2="1.00478" style="stroke:rgb(246,147,147);stroke-width:0.01" />
<line x1="1" y1="0.952381" x2="1.00597" y2="1.01493" style="stroke:rgb(246,147,147);stroke-width:0.01" />
<line x1="1" y1="0.962963" x2="1.00297" y2="1.00297" style="stroke:rgb(246,147,147);stroke-width:0.01" />
<line x1="1" y1="0.952381" x2="1" y2="1" style="stroke:rgb(246,147,147);stroke-width:0.01" />
<line x1="1.00382" y1="0.992366" x2="1.00297" y2="1.00297" style="stroke:rgb(246,147,147);stroke-width:0.01" />
<line x1="1.00787" y1="0.992126" x2="1.00562" y2="1.01124" style="stroke:rgb(246,147,147);stroke-width:0.01" />
<line x1="1.01399" y1="0.951049" x2="1.00597" y2="1.01493" style="stroke:rgb(246,147,147);stroke-width:0.01" />
<line x1="1.01198" y1="0.988024" x2="1.00957" y2="1.00478" style="stroke:rgb(246,147,147);stroke-width:0.01" />
<line x1="1.03488" y1="0.976744" x2="1.0202" y2="1.03704" style="stroke:rgb(246,147,147);stroke-width:0.01" />
<line x1="1.03883" y1="0.990291" x2="1.03008" y2="1.02256" style="stroke:rgb(246,147,147);stroke-width:0.01" />
<line x1="1.12903" y1="0.83871" x2="1.05333" y2="1.04" style="stroke:rgb(246,147,147);stroke-width:0.01" />
<line x1="1.10381" y1="0.920415" x2="1.05505" y2="1.04587" style="stroke:rgb(246,147,147);stroke-width:0.01" />
<line x1="1.4" y1="0.8" x2="1.19231" y2="1.07692" style="stroke:rgb(246,147,147);stroke-width:0.01" />
<line x1="1.4" y1="0.8" x2="0" y2="1" style="stroke:rgb(246,147,147);stroke-width:0.01" />
<line x1="1.10381" y1="0.920415" x2="0" y2="1" style="stroke:rgb(246,147,147);stroke-width:0.01" />
<line x1="0" y1="1" x2="1.19231" y2="1.07692" style="stroke:rgb(246,147,147);stroke-width:0.01" />
<line x1="1.01399" y1="0.951049" x2="0" y2="1" style="stroke:rgb(246,147,147);stroke-width:0.01" />
<line x1="1" y1="0.952381" x2="0" y2="1" style="stroke:rgb(246,147,147);stroke-width:0.01" />
<line x1="0" y1="1" x2="1.05505" y2="1.04587" style="stroke:rgb(246,147,147);stroke-width:0.01" />
<line x1="0" y1="1" x2="1.05333" y2="1.04" style="stroke:rgb(246,147,147);stroke-width:0.01" />
<line x1="1" y1="0.962963" x2="0" y2="1" style="stroke:rgb(246,147,147);stroke-width:0.01" />
<line x1="0" y1="1" x2="1.0202" y2="1.03704" style="stroke:rgb(246,147,147);stroke-width:0.01" />
<line x1="1.03488" y1="0.976744" x2="0" y2="1" style="stroke:rgb(246,147,147);stroke-width:0.01" />
<line x1="0" y1="1" x2="1.03008" y2="1.02256" style="stroke:rgb(246,147,147);stroke-width:0.01" />
<line x1="0" y1="1" x2="1.00597" y2="1.01493" style="stroke:rgb(246,147,147);stroke-width:0.01" />
<line x1="1.01198" y1="0.988024" x2="0" y2="1" style="stroke:rgb(246,147,147);stroke-width:0.01" />
<line x1="0" y1="1" x2="1.00562" y2="1.01124" style="stroke:rgb(246,147,147);stroke-width:0.01" />
<line x1="1.03883" y1="0.990291" x2="0" y2="1" style="stroke:rgb(246,147,147);stroke-width:0.01" />
<line x1="1.00787" y1="0.992126" x2="0" y2="1" style="stroke:rgb(246,147,147);stroke-width:0.01" />
<line x1="1.00382" y1="0.992366" x2="0" y2="1" style="stroke:rgb(246,147,147);stroke-width:0.01" />
<line x1="0" y1="1" x2="1.00957" y2="1.00478" style="stroke:rgb(246,147,147);stroke-width:0.01" />
<line x1="0" y1="1" x2="1.00297" y2="1.00297" style="stroke:rgb(246,147,147);stroke-width:0.01" />
<line x1="0" y1="1" x2="1.25" y2="1" style="stroke:rgb(246,147,147);stroke-width:0.01" />
</g>
</svg>
