<svg xmlns="http://www.w3.org/2000/svg" viewBox="-1.5 -1.5 3 3">
<g transform="scale(1, -1)">
<path d="M0.535897 -0.158974 L0.328205 0.117949 L-0.864103 0.041026 z " fill="rgb(245,195,195)" />
<path d="M-0.864103 -0.958974 L0.135897 -0.958974 L0.135897 0.041026 L-0.864103 0.041026  z" fill="none" stroke="rgb(128,128,128)" stroke-width="0.01" />
<line x1="0.239704" y1="-0.0385591" x2="0.328205" y2="0.117949" style="stroke:rgb(246,147,147);stroke-width:0.01" />
<line x1="0.26493" y1="-0.120265" x2="0.385897" y2="0.0410256" style="stroke:rgb(246,147,147);stroke-width:0.01" />
<line x1="0.170781" y1="0.0177698" x2="0.190943" y2="0.0868972" style="stroke:rgb(246,147,147);stroke-width:0.01" />
<line x1="0.149883" y1="-0.00792541" x2="0.165973" y2="0.063582" style="stroke:rgb(246,147,147);stroke-width:0.01" />
<line x1="0.147873" y1="0.0290496" x2="0.156099" y2="0.0780627" style="stroke:rgb(246,147,147);stroke-width:0.01" />
<line x1="0.143771" y1="0.0331516" x2="0.145467" y2="0.0458103" style="stroke:rgb(246,147,147);stroke-width:0.01" />
<line x1="0.135897" y1="-0.00659341" x2="0.141868" y2="0.055951" style="stroke:rgb(246,147,147);stroke-width:0.01" />
<line x1="0.135897" y1="0.0039886" x2="0.138865" y2="0.043993" style="stroke:rgb(246,147,147);stroke-width:0.01" />
<line x1="0.135897" y1="-0.00659341" x2="0.135897" y2="0.0410256" style="stroke:rgb(246,147,147);stroke-width:0.01" />
<line x1="0.139714" y1="0.0333921" x2="0.138865" y2="0.043993" style="stroke:rgb(246,147,147);stroke-width:0.01" />
<line x1="0.143771" y1="0.0331516" x2="0.141515" y2="0.0522616" style="stroke:rgb(246,147,147);stroke-width:0.01" />
<line x1="0.149883" y1="-0.00792541" x2="0.141868" y2="0.055951" style="stroke:rgb(246,147,147);stroke-width:0.01" />
<line x1="0.147873" y1="0.0290496" x2="0.145467" y2="0.0458103" style="stroke:rgb(246,147,147);stroke-width:0.01" />
<line x1="0.170781" y1="0.0177698" x2="0.156099" y2="0.0780627" style="stroke:rgb(246,147,147);stroke-width:0.01" />
<line x1="0.174732" y1="0.0313169" x2="0.165973" y2="0.063582" style="stroke:rgb(246,147,147);stroke-width:0.01" />
<line x1="0.26493" y1="-0.120265" x2="0.189231" y2="0.0810256" style="stroke:rgb(246,147,147);stroke-width:0.01" />
<line x1="0.239704" y1="-0.0385591" x2="0.190943" y2="0.0868972" style="stroke:rgb(246,147,147);stroke-width:0.01" />
<line x1="0.535897" y1="-0.158974" x2="0.328205" y2="0.117949" style="stroke:rgb(246,147,147);stroke-width:0.01" />
<line x1="0.535897" y1="-0.158974" x2="-0.864103" y2="0.0410256" style="stroke:rgb(246,147,147);stroke-width:0.01" />
<line x1="0.239704" y1="-0.0385591" x2="-0.864103" y2="0.0410256" style="stroke:rgb(246,147,147);stroke-width:0.01" />
<line x1="-0.864103" y1="0.0410256" x2="0.328205" y2="0.117949" style="stroke:rgb(246,147,147);stroke-width:0.01" />
<line x1="0.149883" y1="-0.00792541" x2="-0.864103" y2="0.0410256" style="stroke:rgb(246,147,147);stroke-width:0.01" />
<line x1="0.135897" y1="-0.00659341" x2="-0.864103" y2="0.0410256" style="stroke:rgb(246,147,147);stroke-width:0.01" />
<line x1="-0.864103" y1="0.0410256" x2="0.190943" y2="0.0868972" style="stroke:rgb(246,147,147);stroke-width:0.01" />
<line x1="-0.864103" y1="0.0410256" x2="0.189231" y2="0.0810256" style="stroke:rgb(246,147,147);stroke-width:0.01" />
<line x1="0.135897" y1="0.0039886" x2="-0.864103" y2="0.0410256" style="stroke:rgb(246,147,147);stroke-width:0.01" />
<line x1="-0.864103" y1="0.0410256" x2="0.156099" y2="0.0780627" style="stroke:rgb(246,147,147);stroke-width:0.01" />
<line x1="0.170781" y1="0.0177698" x2="-0.864103" y2="0.0410256" style="stroke:rgb(246,147,147);stroke-width:0.01" />
<line x1="-0.864103" y1="0.0410256" x2="0.165973" y2="0.063582" style="stroke:rgb(246,147,147);stroke-width:0.01" />
<line x1="-0.864103" y1="0.0410256" x2="0.141868" y2="0.055951" style="stroke:rgb(246,147,147);stroke-width:0.01" />
<line x1="0.147873" y1="0.0290496" x2="-0.864103" y2="0.0410256" style="stroke:rgb(246,147,147);stroke-width:0.01" />
<line x1="-0.864103" y1="0.0410256" x2="0.141515" y2="0.0522616" style="stroke:rgb(246,147,147);stroke-width:0.01" />
<line x1="0.174732" y1="0.0313169" x2="-0.864103" y2="0.0410256" style="stroke:rgb(246,147,147);stroke-width:0.01" />
<line x1="0.143771" y1="0.0331516" x2="-0.864103" y2="0.0410256" style="stroke:rgb(246,147,147);stroke-width:0.01" />
<line x1="0.139714" y1="0.0333921" x2="-0.864103" y2="0.0410256" style="stroke:rgb(246,147,147);stroke-width:0.01" />
<line x1="-0.864103" y1="0.0410256" x2="0.145467" y2="0.0458103" style="stroke:rgb(246,147,147);stroke-width:0.01" />
<line x1="-0.864103" y1="0.0410256" x2="0.138865" y2="0.043993" style="stroke:rgb(246,147,147);stroke-width:0.01" />
<line x1="-0.864103" y1="0.0410256" x2="0.385897" y2="0.0410256" style="stroke:rgb(246,147,147);stroke-width:0.01" />
</g>
</svg>
