<svg xmlns="http://www.w3.org/2000/svg" viewBox="-1.5 -1.5 3 3">
<g transform="scale(1, -1)">
<path d="M1.141176 0.900000 L1.164854 0.934833 L1.265487 0.929204 L1.410959 1.095890 L1.387597 1.116279 L1.027618 1.086113 L1.024096 1.096386 L1.020044 1.096004 L1.019934 1.096346 L0.000000 1.000000 z " fill="rgb(245,195,195)" />
<path d="M0.000000 0.000000 L1.000000 0.000000 L1.000000 1.000000 L0.000000 1.000000  z" fill="none" stroke="rgb(128,128,128)" stroke-width="0.01" />
<line x1="1.12963" y1="0.933333" x2="1.19178" y2="1.03562" style="stroke:rgb(246,147,147);stroke-width:0.01" />
<line x1="1.14118" y1="0.9" x2="1.22857" y2="1.02857" style="stroke:rgb(246,147,147);stroke-width:0.01" />
<line x1="1.27027" y1="0.972973" x2="1.3876" y2="1.11628" style="stroke:rgb(246,147,147);stroke-width:0.01" />
<line x1="1.06369" y1="0.980892" x2="1.08389" y2="1.03356" style="stroke:rgb(246,147,147);stroke-width:0.01" />
<line x1="1.26549" y1="0.929204" x2="1.41096" y2="1.09589" style="stroke:rgb(246,147,147);stroke-width:0.01" />
<line x1="1.05405" y1="0.990991" x2="1.07407" y2="1.04938" style="stroke:rgb(246,147,147);stroke-width:0.01" />
<line x1="1.00844" y1="0.987342" x2="1.0241" y2="1.09639" style="stroke:rgb(246,147,147);stroke-width:0.01" />
<line x1="1.00738" y1="0.99631" x2="1.01993" y2="1.09635" style="stroke:rgb(246,147,147);stroke-width:0.01" />
<line x1="1.00276" y1="0.994475" x2="1.00472" y2="1.01887" style="stroke:rgb(246,147,147);stroke-width:0.01" />
<line x1="1" y1="0.965517" x2="1.00407" y2="1.02439" style="stroke:rgb(246,147,147);stroke-width:0.01" />
<line x1="1" y1="0.967742" x2="1.00223" y2="1.00223" style="stroke:rgb(246,147,147);stroke-width:0.01" />
<line x1="1" y1="0.965517" x2="1" y2="1" style="stroke:rgb(246,147,147);stroke-width:0.01" />
<line x1="1.00276" y1="0.994475" x2="1.00223" y2="1.00223" style="stroke:rgb(246,147,147);stroke-width:0.01" />
<line x1="1.00844" y1="0.987342" x2="1.00407" y2="1.02439" style="stroke:rgb(246,147,147);stroke-width:0.01" />
<line x1="1.05405" y1="0.990991" x2="1.01993" y2="1.09635" style="stroke:rgb(246,147,147);stroke-width:0.01" />
<line x1="1.06369" y1="0.980892" x2="1.0241" y2="1.09639" style="stroke:rgb(246,147,147);stroke-width:0.01" />
<line x1="1.14118" y1="0.9" x2="1.07407" y2="1.04938" style="stroke:rgb(246,147,147);stroke-width:0.01" />
<line x1="1.12963" y1="0.933333" x2="1.08389" y2="1.03356" style="stroke:rgb(246,147,147);stroke-width:0.01" />
<line x1="1.26549" y1="0.929204" x2="1.19178" y2="1.03562" style="stroke:rgb(246,147,147);stroke-width:0.01" />
<line x1="1.27027" y1="0.972973" x2="1.22857" y2="1.02857" style="stroke:rgb(246,147,147);stroke-width:0.01" />
<line x1="0" y1="1" x2="1.01993" y2="1.09635" style="stroke:rgb(246,147,147);stroke-width:0.01" />
<line x1="0" y1="1" x2="1.0241" y2="1.09639" style="stroke:rgb(246,147,147);stroke-width:0.01" />
<line x1="1.14118" y1="0.9" x2="0" y2="1" style="stroke:rgb(246,147,147);stroke-width:0.01" />
<line x1="0" y1="1" x2="1.3876" y2="1.11628" style="stroke:rgb(246,147,147);stroke-width:0.01" />
<line x1="1.12963" y1="0.933333" x2="0" y2="1" style="stroke:rgb(246,147,147);stroke-width:0.01" />
<line x1="1.26549" y1="0.929204" x2="0" y2="1" style="stroke:rgb(246,147,147);stroke-width:0.01" />
<line x1="0" y1="1" x2="1.07407" y2="1.04938" style="stroke:rgb(246,147,147);stroke-width:0.01" />
<line x1="1" y1="0.965517" x2="0" y2="1" style="stroke:rgb(246,147,147);stroke-width:0.01" />
<line x1="1" y1="0.967742" x2="0" y2="1" style="stroke:rgb(246,147,147);stroke-width:0.01" />
<line x1="0" y1="1" x2="1.08389" y2="1.03356" style="stroke:rgb(246,147,147);stroke-width:0.01" />
<line x1="0" y1="1" x2="1.19178" y2="1.03562" style="stroke:rgb(246,147,147);stroke-width:0.01" />
<line x1="0" y1="1" x2="1.00407" y2="1.02439" style="stroke:rgb(246,147,147);stroke-width:0.01" />
<line x1="0" y1="1" x2="1.22857" y2="1.02857" style="stroke:rgb(246,147,147);stroke-width:0.01" />
<line x1="1.27027" y1="0.972973" x2="0" y2="1" style="stroke:rgb(246,147,147);stroke-width:0.01" />
<line x1="0" y1="1" x2="1.00472" y2="1.01887" style="stroke:rgb(246,147,147);stroke-width:0.01" />
<line x1="1.06369" y1="0.980892" x2="0" y2="1" style="stroke:rgb(246,147,147);stroke-width:0.01" />
<line x1="1.00844" y1="0.987342" x2="0" y2="1" style="stroke:rgb(246,147,147);stroke-width:0.01" />
<line x1="1.05405" y1="0.990991" x2="0" y2="1" style="stroke:rgb(246,147,147);stroke-width:0.01" />
<line x1="1.00276" y1="0.994475" x2="0" y2="1" style="stroke:rgb(246,147,147);stroke-width:0.01" />
<line x1="1.00738" y1="0.99631" x2="0" y2="1" style="stroke:rgb(246,147,147);stroke-width:0.01" />
<line x1="0" y1="1" x2="1.00223" y2="1.00223" style="stroke:rgb(246,147,147);stroke-width:0.01" />
<line x1="0" y1="1" x2="1" y2="1" style="stroke:rgb(246,147,147);stroke-width:0.01" />
<line x1="1.41096" y1="1.09589" x2="1.3876" y2="1.11628" style="stroke:rgb(246,147,147);stroke-width:0.01" />
</g>
</svg>
