<svg xmlns="http://www.w3.org/2000/svg" viewBox="-1.5 -1.5 3 3">
<g transform="scale(1, -1)">
<path d="M-0.119058 -0.061754 L-0.114997 -0.049909 L0.010560 -0.056250 L0.020153 -0.041950 L0.024625 -0.042119 L0.024949 -0.041643 L0.179187 -0.047426 L0.208270 -0.016890 L0.245854 -0.017426 L0.260055 -0.003344 L0.240220 0.016658 L0.213648 0.016390 L0.123082 0.111484 L-0.070112 0.095011 L-0.092290 0.136594 L-1.154146 0.002574 z " fill="rgb(245,195,195)" />
<path d="M-1.154146 -0.997426 L-0.154146 -0.997426 L-0.154146 0.002574 L-1.154146 0.002574  z" fill="none" stroke="rgb(128,128,128)" stroke-width="0.01" />
<line x1="-0.0364989" y1="-0.0268382" x2="-0.0112888" y2="0.0204307" style="stroke:rgb(246,147,147);stroke-width:0.01" />
<line x1="0.0105599" y1="-0.05625" x2="0.123082" y2="0.111484" style="stroke:rgb(246,147,147);stroke-width:0.01" />
<line x1="0.024625" y1="-0.0421192" x2="0.0927676" y2="0.0581291" style="stroke:rgb(246,147,147);stroke-width:0.01" />
<line x1="-0.119058" y1="-0.061754" x2="-0.0772229" y2="0.0602658" style="stroke:rgb(246,147,147);stroke-width:0.01" />
<line x1="0.179187" y1="-0.0474265" x2="0.24022" y2="0.016658" style="stroke:rgb(246,147,147);stroke-width:0.01" />
<line x1="0.245854" y1="-0.0174265" x2="0.260055" y2="-0.00334363" style="stroke:rgb(246,147,147);stroke-width:0.01" />
<line x1="-0.129006" y1="-0.0141863" x2="-0.0922903" y2="0.136594" style="stroke:rgb(246,147,147);stroke-width:0.01" />
<line x1="-0.139757" y1="-0.0262035" x2="-0.13324" y2="0.00605785" style="stroke:rgb(246,147,147);stroke-width:0.01" />
<line x1="-0.147104" y1="-0.011511" x2="-0.140257" y2="0.0396106" style="stroke:rgb(246,147,147);stroke-width:0.01" />
<line x1="-0.154146" y1="-0.0409047" x2="-0.147915" y2="0.0306109" style="stroke:rgb(246,147,147);stroke-width:0.01" />
<line x1="-0.154146" y1="-0.0319092" x2="-0.15051" y2="0.0207553" style="stroke:rgb(246,147,147);stroke-width:0.01" />
<line x1="-0.154146" y1="-0.0409047" x2="-0.154146" y2="0.00257353" style="stroke:rgb(246,147,147);stroke-width:0.01" />
<line x1="-0.147104" y1="-0.011511" x2="-0.15051" y2="0.0207553" style="stroke:rgb(246,147,147);stroke-width:0.01" />
<line x1="-0.139757" y1="-0.0262035" x2="-0.147915" y2="0.0306109" style="stroke:rgb(246,147,147);stroke-width:0.01" />
<line x1="-0.119058" y1="-0.061754" x2="-0.140257" y2="0.0396106" style="stroke:rgb(246,147,147);stroke-width:0.01" />
<line x1="-0.0364989" y1="-0.0268382" x2="-0.0772229" y2="0.0602658" style="stroke:rgb(246,147,147);stroke-width:0.01" />
<line x1="0.0105599" y1="-0.05625" x2="-0.0922903" y2="0.136594" style="stroke:rgb(246,147,147);stroke-width:0.01" />
<line x1="0.024625" y1="-0.0421192" x2="-0.0112888" y2="0.0204307" style="stroke:rgb(246,147,147);stroke-width:0.01" />
<line x1="-1.15415" y1="0.00257353" x2="-0.0922903" y2="0.136594" style="stroke:rgb(246,147,147);stroke-width:0.01" />
<line x1="-1.15415" y1="0.00257353" x2="0.123082" y2="0.111484" style="stroke:rgb(246,147,147);stroke-width:0.01" />
<line x1="-0.119058" y1="-0.061754" x2="-1.15415" y2="0.00257353" style="stroke:rgb(246,147,147);stroke-width:0.01" />
<line x1="-1.15415" y1="0.00257353" x2="-0.0772229" y2="0.0602658" style="stroke:rgb(246,147,147);stroke-width:0.01" />
<line x1="0.0105599" y1="-0.05625" x2="-1.15415" y2="0.00257353" style="stroke:rgb(246,147,147);stroke-width:0.01" />
<line x1="-1.15415" y1="0.00257353" x2="0.0927676" y2="0.0581291" style="stroke:rgb(246,147,147);stroke-width:0.01" />
<line x1="-0.154146" y1="-0.0409047" x2="-1.15415" y2="0.00257353" style="stroke:rgb(246,147,147);stroke-width:0.01" />
<line x1="0.024625" y1="-0.0421192" x2="-1.15415" y2="0.00257353" style="stroke:rgb(246,147,147);stroke-width:0.01" />
<line x1="0.179187" y1="-0.0474265" x2="-1.15415" y2="0.00257353" style="stroke:rgb(246,147,147);stroke-width:0.01" />
<line x1="-1.15415" y1="0.00257353" x2="-0.140257" y2="0.0396106" style="stroke:rgb(246,147,147);stroke-width:0.01" />
<line x1="-0.154146" y1="-0.0319092" x2="-1.15415" y2="0.00257353" style="stroke:rgb(246,147,147);stroke-width:0.01" />
<line x1="-0.139757" y1="-0.0262035" x2="-1.15415" y2="0.00257353" style="stroke:rgb(246,147,147);stroke-width:0.01" />
<line x1="-1.15415" y1="0.00257353" x2="-0.147915" y2="0.0306109" style="stroke:rgb(246,147,147);stroke-width:0.01" />
<line x1="-0.0364989" y1="-0.0268382" x2="-1.15415" y2="0.00257353" style="stroke:rgb(246,147,147);stroke-width:0.01" />
<line x1="-1.15415" y1="0.00257353" x2="-0.15051" y2="0.0207553" style="stroke:rgb(246,147,147);stroke-width:0.01" />
<line x1="-0.129006" y1="-0.0141863" x2="-1.15415" y2="0.00257353" style="stroke:rgb(246,147,147);stroke-width:0.01" />
<line x1="-1.15415" y1="0.00257353" x2="-0.0112888" y2="0.0204307" style="stroke:rgb(246,147,147);stroke-width:0.01" />
<line x1="0.245854" y1="-0.0174265" x2="-1.15415" y2="0.00257353" style="stroke:rgb(246,147,147);stroke-width:0.01" />
<line x1="-0.147104" y1="-0.011511" x2="-1.15415" y2="0.00257353" style="stroke:rgb(246,147,147);stroke-width:0.01" />
<line x1="-1.15415" y1="0.00257353" x2="0.24022" y2="0.016658" style="stroke:rgb(246,147,147);stroke-width:0.01" />
<line x1="-1.15415" y1="0.00257353" x2="-0.13324" y2="0.00605785" style="stroke:rgb(246,147,147);stroke-width:0.01" />
<line x1="-1.15415" y1="0.00257353" x2="-0.154146" y2="0.00257353" style="stroke:rgb(246,147,147);stroke-width:0.01" />
<line x1="0.179187" y1="-0.0474265" x2="0.0927676" y2="0.0581291" style="stroke:rgb(246,147,147);stroke-width:0.01" />
<line x1="0.245854" y1="-0.0174265" x2="0.123082" y2="0.111484" style="stroke:rgb(246,147,147);stroke-width:0.01" />
<line x1="0.260055" y1="-0.00334363" x2="0.24022" y2="0.016658" style="stroke:rgb(246,147,147);stroke-width:0.01" />
</g>
</svg>
