<svg xmlns="http://www.w3.org/2000/svg" viewBox="-1.5 -1.5 3 3">
<g transform="scale(1, -1)">
<path d="M-0.048465 -0.080144 L-0.042862 -0.053356 L0.106976 -0.064779 L0.119845 -0.046199 L0.335849 -0.059049 L0.364650 -0.032434 L0.230173 0.113087 L-0.007575 0.096393 L-0.010126 0.103176 L-1.048465 0.023304 z " fill="rgb(245,195,195)" />
<path d="M-1.048465 -0.976696 L-0.048465 -0.976696 L-0.048465 0.023304 L-1.048465 0.023304  z" fill="none" stroke="rgb(128,128,128)" stroke-width="0.01" />
<line x1="0.0842367" y1="-0.0383073" x2="0.131022" y2="0.0386887" style="stroke:rgb(246,147,147);stroke-width:0.01" />
<line x1="0.106976" y1="-0.0647789" x2="0.230173" y2="0.113087" style="stroke:rgb(246,147,147);stroke-width:0.01" />
<line x1="0.0445586" y1="4.82209e-05" x2="0.0596434" y2="0.032313" style="stroke:rgb(246,147,147);stroke-width:0.01" />
<line x1="0.0492552" y1="0.0200467" x2="0.0530582" y2="0.0283802" style="stroke:rgb(246,147,147);stroke-width:0.01" />
<line x1="0.168927" y1="-0.0201742" x2="0.231535" y2="0.063304" style="stroke:rgb(246,147,147);stroke-width:0.01" />
<line x1="0.0221235" y1="0.0174217" x2="0.0352562" y2="0.051211" style="stroke:rgb(246,147,147);stroke-width:0.01" />
<line x1="0.0212217" y1="0.0198197" x2="0.0284584" y2="0.0386887" style="stroke:rgb(246,147,147);stroke-width:0.01" />
<line x1="-0.00301015" y1="-0.0107869" x2="0.0140353" y2="0.038929" style="stroke:rgb(246,147,147);stroke-width:0.01" />
<line x1="0.335849" y1="-0.0590489" x2="0.36465" y2="-0.0324337" style="stroke:rgb(246,147,147);stroke-width:0.01" />
<line x1="-0.0484647" y1="-0.0801442" x2="-0.010126" y2="0.103176" style="stroke:rgb(246,147,147);stroke-width:0.01" />
<line x1="-0.0484647" y1="-0.0600293" x2="-0.0259928" y2="0.0738658" style="stroke:rgb(246,147,147);stroke-width:0.01" />
<line x1="-0.0484647" y1="-0.0801442" x2="-0.0484647" y2="0.023304" style="stroke:rgb(246,147,147);stroke-width:0.01" />
<line x1="-0.00301015" y1="-0.0107869" x2="-0.0259928" y2="0.0738658" style="stroke:rgb(246,147,147);stroke-width:0.01" />
<line x1="0.0221235" y1="0.0174217" x2="-0.010126" y2="0.103176" style="stroke:rgb(246,147,147);stroke-width:0.01" />
<line x1="0.0445586" y1="4.82209e-05" x2="0.0284584" y2="0.0386887" style="stroke:rgb(246,147,147);stroke-width:0.01" />
<line x1="0.0492552" y1="0.0200467" x2="0.0352562" y2="0.051211" style="stroke:rgb(246,147,147);stroke-width:0.01" />
<line x1="0.0842367" y1="-0.0383073" x2="0.0530582" y2="0.0283802" style="stroke:rgb(246,147,147);stroke-width:0.01" />
<line x1="0.106976" y1="-0.0647789" x2="0.0596434" y2="0.032313" style="stroke:rgb(246,147,147);stroke-width:0.01" />
<line x1="0.168927" y1="-0.0201742" x2="0.131022" y2="0.0386887" style="stroke:rgb(246,147,147);stroke-width:0.01" />
<line x1="-0.0484647" y1="-0.0801442" x2="-1.04846" y2="0.023304" style="stroke:rgb(246,147,147);stroke-width:0.01" />
<line x1="-0.0484647" y1="-0.0600293" x2="-1.04846" y2="0.023304" style="stroke:rgb(246,147,147);stroke-width:0.01" />
<line x1="-1.04846" y1="0.023304" x2="-0.010126" y2="0.103176" style="stroke:rgb(246,147,147);stroke-width:0.01" />
<line x1="0.106976" y1="-0.0647789" x2="-1.04846" y2="0.023304" style="stroke:rgb(246,147,147);stroke-width:0.01" />
<line x1="-1.04846" y1="0.023304" x2="0.230173" y2="0.113087" style="stroke:rgb(246,147,147);stroke-width:0.01" />
<line x1="0.335849" y1="-0.0590489" x2="-1.04846" y2="0.023304" style="stroke:rgb(246,147,147);stroke-width:0.01" />
<line x1="0.0842367" y1="-0.0383073" x2="-1.04846" y2="0.023304" style="stroke:rgb(246,147,147);stroke-width:0.01" />
<line x1="-1.04846" y1="0.023304" x2="-0.0259928" y2="0.0738658" style="stroke:rgb(246,147,147);stroke-width:0.01" />
<line x1="0.168927" y1="-0.0201742" x2="-1.04846" y2="0.023304" style="stroke:rgb(246,147,147);stroke-width:0.01" />
<line x1="-0.00301015" y1="-0.0107869" x2="-1.04846" y2="0.023304" style="stroke:rgb(246,147,147);stroke-width:0.01" />
<line x1="-1.04846" y1="0.023304" x2="0.231535" y2="0.063304" style="stroke:rgb(246,147,147);stroke-width:0.01" />
<line x1="-1.04846" y1="0.023304" x2="0.0352562" y2="0.051211" style="stroke:rgb(246,147,147);stroke-width:0.01" />
<line x1="0.0445586" y1="4.82209e-05" x2="-1.04846" y2="0.023304" style="stroke:rgb(246,147,147);stroke-width:0.01" />
<line x1="-1.04846" y1="0.023304" x2="0.0140353" y2="0.038929" style="stroke:rgb(246,147,147);stroke-width:0.01" />
<line x1="-1.04846" y1="0.023304" x2="0.0284584" y2="0.0386887" style="stroke:rgb(246,147,147);stroke-width:0.01" />
<line x1="-1.04846" y1="0.023304" x2="0.131022" y2="0.0386887" style="stroke:rgb(246,147,147);stroke-width:0.01" />
<line x1="-1.04846" y1="0.023304" x2="0.0596434" y2="0.032313" style="stroke:rgb(246,147,147);stroke-width:0.01" />
<line x1="0.0221235" y1="0.0174217" x2="-1.04846" y2="0.023304" style="stroke:rgb(246,147,147);stroke-width:0.01" />
<line x1="-1.04846" y1="0.023304" x2="0.0530582" y2="0.0283802" style="stroke:rgb(246,147,147);stroke-width:0.01" />
<line x1="0.0212217" y1="0.0198197" x2="-1.04846" y2="0.023304" style="stroke:rgb(246,147,147);stroke-width:0.01" />
<line x1="0.0492552" y1="0.0200467" x2="-1.04846" y2="0.023304" style="stroke:rgb(246,147,147);stroke-width:0.01" />
<line x1="-1.04846" y1="0.023304" x2="-0.0484647" y2="0.023304" style="stroke:rgb(246,147,147);stroke-width:0.01" />
<line x1="0.335849" y1="-0.0590489" x2="0.231535" y2="0.063304" style="stroke:rgb(246,147,147);stroke-width:0.01" />
<line x1="0.36465" y1="-0.0324337" x2="0.230173" y2="0.113087" style="stroke:rgb(246,147,147);stroke-width:0.01" />
</g>
</svg>
