<svg xmlns="http://www.w3.org/2000/svg" viewBox="-1.5 -1.5 3 3">
<g transform="scale(1, -1)">
<path d="M0.175494 -0.087953 L0.218154 -0.037916 L0.309638 -0.038840 L0.329473 -0.018838 L0.237852 0.072019 L0.041762 0.057670 L0.036484 0.066153 L-0.036798 0.060212 L-0.059412 0.114485 L-1.084729 -0.024756 L-0.084729 -0.087256 L-0.083188 -0.074980 z " fill="rgb(245,195,195)" />
<path d="M-1.084729 -1.024756 L-0.084729 -1.024756 L-0.084729 -0.024756 L-1.084729 -0.024756  z" fill="none" stroke="rgb(128,128,128)" stroke-width="0.01" />
<line x1="0.0842855" y1="-0.0388401" x2="0.105748" y2="-0.00434748" style="stroke:rgb(246,147,147);stroke-width:0.01" />
<line x1="0.108042" y1="-0.048852" x2="0.128037" y2="-0.0194365" style="stroke:rgb(246,147,147);stroke-width:0.01" />
<line x1="0.125482" y1="-0.0337647" x2="0.14783" y2="-0.00149983" style="stroke:rgb(246,147,147);stroke-width:0.01" />
<line x1="0.00482364" y1="-0.039681" x2="0.0394093" y2="0.0373133" style="stroke:rgb(246,147,147);stroke-width:0.01" />
<line x1="0.165271" y1="-0.0247556" x2="0.237852" y2="0.0720186" style="stroke:rgb(246,147,147);stroke-width:0.01" />
<line x1="-0.0195112" y1="-0.0682339" x2="0.0364835" y2="0.0661534" style="stroke:rgb(246,147,147);stroke-width:0.01" />
<line x1="0.175494" y1="-0.0879527" x2="0.26095" y2="0.0122814" style="stroke:rgb(246,147,147);stroke-width:0.01" />
<line x1="0.309638" y1="-0.0388401" x2="0.329473" y2="-0.0188385" style="stroke:rgb(246,147,147);stroke-width:0.01" />
<line x1="-0.0771814" y1="-0.0436236" x2="-0.0619149" y2="0.0626968" style="stroke:rgb(246,147,147);stroke-width:0.01" />
<line x1="-0.0847286" y1="-0.0872556" x2="-0.0594121" y2="0.114485" style="stroke:rgb(246,147,147);stroke-width:0.01" />
<line x1="-0.0847286" y1="-0.0592384" x2="-0.0810922" y2="-0.00657382" style="stroke:rgb(246,147,147);stroke-width:0.01" />
<line x1="-0.0847286" y1="-0.0872556" x2="-0.0847286" y2="-0.0247556" style="stroke:rgb(246,147,147);stroke-width:0.01" />
<line x1="-0.0771814" y1="-0.0436236" x2="-0.0810922" y2="-0.00657382" style="stroke:rgb(246,147,147);stroke-width:0.01" />
<line x1="-0.0195112" y1="-0.0682339" x2="-0.0619149" y2="0.0626968" style="stroke:rgb(246,147,147);stroke-width:0.01" />
<line x1="0.00482364" y1="-0.039681" x2="-0.0594121" y2="0.114485" style="stroke:rgb(246,147,147);stroke-width:0.01" />
<line x1="0.0842855" y1="-0.0388401" x2="0.0394093" y2="0.0373133" style="stroke:rgb(246,147,147);stroke-width:0.01" />
<line x1="0.108042" y1="-0.048852" x2="0.0364835" y2="0.0661534" style="stroke:rgb(246,147,147);stroke-width:0.01" />
<line x1="0.125482" y1="-0.0337647" x2="0.105748" y2="-0.00434748" style="stroke:rgb(246,147,147);stroke-width:0.01" />
<line x1="0.175494" y1="-0.0879527" x2="0.128037" y2="-0.0194365" style="stroke:rgb(246,147,147);stroke-width:0.01" />
<line x1="0.165271" y1="-0.0247556" x2="0.14783" y2="-0.00149983" style="stroke:rgb(246,147,147);stroke-width:0.01" />
<line x1="-1.08473" y1="-0.0247556" x2="-0.0594121" y2="0.114485" style="stroke:rgb(246,147,147);stroke-width:0.01" />
<line x1="-1.08473" y1="-0.0247556" x2="-0.0619149" y2="0.0626968" style="stroke:rgb(246,147,147);stroke-width:0.01" />
<line x1="-1.08473" y1="-0.0247556" x2="0.0364835" y2="0.0661534" style="stroke:rgb(246,147,147);stroke-width:0.01" />
<line x1="-1.08473" y1="-0.0247556" x2="0.237852" y2="0.0720186" style="stroke:rgb(246,147,147);stroke-width:0.01" />
<line x1="-0.0847286" y1="-0.0872556" x2="-1.08473" y2="-0.0247556" style="stroke:rgb(246,147,147);stroke-width:0.01" />
<line x1="-1.08473" y1="-0.0247556" x2="0.0394093" y2="0.0373133" style="stroke:rgb(246,147,147);stroke-width:0.01" />
<line x1="0.175494" y1="-0.0879527" x2="-1.08473" y2="-0.0247556" style="stroke:rgb(246,147,147);stroke-width:0.01" />
<line x1="-0.0195112" y1="-0.0682339" x2="-1.08473" y2="-0.0247556" style="stroke:rgb(246,147,147);stroke-width:0.01" />
<line x1="-0.0847286" y1="-0.0592384" x2="-1.08473" y2="-0.0247556" style="stroke:rgb(246,147,147);stroke-width:0.01" />
<line x1="-1.08473" y1="-0.0247556" x2="0.26095" y2="0.0122814" style="stroke:rgb(246,147,147);stroke-width:0.01" />
<line x1="0.108042" y1="-0.048852" x2="-1.08473" y2="-0.0247556" style="stroke:rgb(246,147,147);stroke-width:0.01" />
<line x1="-1.08473" y1="-0.0247556" x2="0.14783" y2="-0.00149983" style="stroke:rgb(246,147,147);stroke-width:0.01" />
<line x1="-0.0771814" y1="-0.0436236" x2="-1.08473" y2="-0.0247556" style="stroke:rgb(246,147,147);stroke-width:0.01" />
<line x1="-1.08473" y1="-0.0247556" x2="-0.0810922" y2="-0.00657382" style="stroke:rgb(246,147,147);stroke-width:0.01" />
<line x1="-1.08473" y1="-0.0247556" x2="0.105748" y2="-0.00434748" style="stroke:rgb(246,147,147);stroke-width:0.01" />
<line x1="0.00482364" y1="-0.039681" x2="-1.08473" y2="-0.0247556" style="stroke:rgb(246,147,147);stroke-width:0.01" />
<line x1="0.0842855" y1="-0.0388401" x2="-1.08473" y2="-0.0247556" style="stroke:rgb(246,147,147);stroke-width:0.01" />
<line x1="0.309638" y1="-0.0388401" x2="-1.08473" y2="-0.0247556" style="stroke:rgb(246,147,147);stroke-width:0.01" />
<line x1="0.125482" y1="-0.0337647" x2="-1.08473" y2="-0.0247556" style="stroke:rgb(246,147,147);stroke-width:0.01" />
<line x1="-1.08473" y1="-0.0247556" x2="0.128037" y2="-0.0194365" style="stroke:rgb(246,147,147);stroke-width:0.01" />
<line x1="-1.08473" y1="-0.0247556" x2="0.165271" y2="-0.0247556" style="stroke:rgb(246,147,147);stroke-width:0.01" />
<line x1="0.309638" y1="-0.0388401" x2="0.26095" y2="0.0122814" style="stroke:rgb(246,147,147);stroke-width:0.01" />
<line x1="0.329473" y1="-0.0188385" x2="0.237852" y2="0.0720186" style="stroke:rgb(246,147,147);stroke-width:0.01" />
</g>
</svg>
