<svg xmlns="http://www.w3.org/2000/svg" viewBox="-1.5 -1.5 3 3">
<g transform="scale(1, -1)">
<path d="M0.001768 -0.109237 L0.044173 -0.029728 L0.197203 -0.038545 L0.231959 0.002222 L0.358419 -0.000863 L0.221853 0.142531 L-1.055375 0.033620 z " fill="rgb(245,195,195)" />
<path d="M-1.055375 -0.966380 L-0.055375 -0.966380 L-0.055375 0.033620 L-1.055375 0.033620  z" fill="none" stroke="rgb(128,128,128)" stroke-width="0.01" />
<line x1="0.0984716" y1="-0.00484143" x2="0.135102" y2="0.0540283" style="stroke:rgb(246,147,147);stroke-width:0.01" />
<line x1="0.00176829" y1="-0.109237" x2="0.0779588" y2="0.0336201" style="stroke:rgb(246,147,147);stroke-width:0.01" />
<line x1="0.109331" y1="-0.0252034" x2="0.221853" y2="0.142531" style="stroke:rgb(246,147,147);stroke-width:0.01" />
<line x1="0.0101992" y1="-0.0483471" x2="0.0622725" y2="0.0630319" style="stroke:rgb(246,147,147);stroke-width:0.01" />
<line x1="0.197203" y1="-0.0385448" x2="0.290304" y2="0.0706571" style="stroke:rgb(246,147,147);stroke-width:0.01" />
<line x1="-0.0272056" y1="0.0195356" x2="-0.0190109" y2="0.0518019" style="stroke:rgb(246,147,147);stroke-width:0.01" />
<line x1="-0.0409861" y1="0.00484313" x2="-0.0329027" y2="0.0448561" style="stroke:rgb(246,147,147);stroke-width:0.01" />
<line x1="-0.0553746" y1="-0.0378085" x2="-0.0393746" y2="0.0736201" style="stroke:rgb(246,147,147);stroke-width:0.01" />
<line x1="-0.0483323" y1="0.0195356" x2="-0.0458052" y2="0.0384048" style="stroke:rgb(246,147,147);stroke-width:0.01" />
<line x1="-0.0553746" y1="0.00136204" x2="-0.0519732" y2="0.0540283" style="stroke:rgb(246,147,147);stroke-width:0.01" />
<line x1="-0.0553746" y1="-0.0378085" x2="-0.0553746" y2="0.0336201" style="stroke:rgb(246,147,147);stroke-width:0.01" />
<line x1="-0.0483323" y1="0.0195356" x2="-0.0519732" y2="0.0540283" style="stroke:rgb(246,147,147);stroke-width:0.01" />
<line x1="-0.0409861" y1="0.00484313" x2="-0.0458052" y2="0.0384048" style="stroke:rgb(246,147,147);stroke-width:0.01" />
<line x1="0.00176829" y1="-0.109237" x2="-0.0393746" y2="0.0736201" style="stroke:rgb(246,147,147);stroke-width:0.01" />
<line x1="0.0101992" y1="-0.0483471" x2="-0.0190109" y2="0.0518019" style="stroke:rgb(246,147,147);stroke-width:0.01" />
<line x1="0.109331" y1="-0.0252034" x2="0.0622725" y2="0.0630319" style="stroke:rgb(246,147,147);stroke-width:0.01" />
<line x1="0.197203" y1="-0.0385448" x2="0.135102" y2="0.0540283" style="stroke:rgb(246,147,147);stroke-width:0.01" />
<line x1="0.00176829" y1="-0.109237" x2="-1.05537" y2="0.0336201" style="stroke:rgb(246,147,147);stroke-width:0.01" />
<line x1="-1.05537" y1="0.0336201" x2="0.221853" y2="0.142531" style="stroke:rgb(246,147,147);stroke-width:0.01" />
<line x1="0.0101992" y1="-0.0483471" x2="-1.05537" y2="0.0336201" style="stroke:rgb(246,147,147);stroke-width:0.01" />
<line x1="-0.0553746" y1="-0.0378085" x2="-1.05537" y2="0.0336201" style="stroke:rgb(246,147,147);stroke-width:0.01" />
<line x1="0.197203" y1="-0.0385448" x2="-1.05537" y2="0.0336201" style="stroke:rgb(246,147,147);stroke-width:0.01" />
<line x1="0.109331" y1="-0.0252034" x2="-1.05537" y2="0.0336201" style="stroke:rgb(246,147,147);stroke-width:0.01" />
<line x1="-1.05537" y1="0.0336201" x2="-0.0393746" y2="0.0736201" style="stroke:rgb(246,147,147);stroke-width:0.01" />
<line x1="0.0984716" y1="-0.00484143" x2="-1.05537" y2="0.0336201" style="stroke:rgb(246,147,147);stroke-width:0.01" />
<line x1="-0.0553746" y1="0.00136204" x2="-1.05537" y2="0.0336201" style="stroke:rgb(246,147,147);stroke-width:0.01" />
<line x1="-0.0409861" y1="0.00484313" x2="-1.05537" y2="0.0336201" style="stroke:rgb(246,147,147);stroke-width:0.01" />
<line x1="-1.05537" y1="0.0336201" x2="0.290304" y2="0.0706571" style="stroke:rgb(246,147,147);stroke-width:0.01" />
<line x1="-1.05537" y1="0.0336201" x2="0.0622725" y2="0.0630319" style="stroke:rgb(246,147,147);stroke-width:0.01" />
<line x1="0.358419" y1="-0.000862651" x2="-1.05537" y2="0.0336201" style="stroke:rgb(246,147,147);stroke-width:0.01" />
<line x1="-1.05537" y1="0.0336201" x2="-0.0519732" y2="0.0540283" style="stroke:rgb(246,147,147);stroke-width:0.01" />
<line x1="-1.05537" y1="0.0336201" x2="-0.0190109" y2="0.0518019" style="stroke:rgb(246,147,147);stroke-width:0.01" />
<line x1="-1.05537" y1="0.0336201" x2="0.135102" y2="0.0540283" style="stroke:rgb(246,147,147);stroke-width:0.01" />
<line x1="-0.0483323" y1="0.0195356" x2="-1.05537" y2="0.0336201" style="stroke:rgb(246,147,147);stroke-width:0.01" />
<line x1="-0.0272056" y1="0.0195356" x2="-1.05537" y2="0.0336201" style="stroke:rgb(246,147,147);stroke-width:0.01" />
<line x1="-1.05537" y1="0.0336201" x2="-0.0329027" y2="0.0448561" style="stroke:rgb(246,147,147);stroke-width:0.01" />
<line x1="-1.05537" y1="0.0336201" x2="-0.0458052" y2="0.0384048" style="stroke:rgb(246,147,147);stroke-width:0.01" />
<line x1="-1.05537" y1="0.0336201" x2="0.0779588" y2="0.0336201" style="stroke:rgb(246,147,147);stroke-width:0.01" />
<line x1="0.358419" y1="-0.000862651" x2="0.221853" y2="0.142531" style="stroke:rgb(246,147,147);stroke-width:0.01" />
</g>
</svg>
