<svg xmlns="http://www.w3.org/2000/svg" viewBox="-1.5 -1.5 3 3">
<g transform="scale(1, -1)">
<path d="M0.213083 -0.152481 L0.326876 -0.044106 L0.284217 0.000686 L0.218816 0.000194 L0.043924 0.205330 L-1.086917 -0.009623 z " fill="rgb(245,195,195)" />
<path d="M-1.086917 -1.009623 L-0.086917 -1.009623 L-0.086917 -0.009623 L-1.086917 -0.009623  z" fill="none" stroke="rgb(128,128,128)" stroke-width="0.01" />
<line x1="0.083296" y1="-0.0394106" x2="0.109712" y2="0.00161259" style="stroke:rgb(246,147,147);stroke-width:0.01" />
<line x1="-0.0389168" y1="-0.0736234" x2="0.0183464" y2="0.07371" style="stroke:rgb(246,147,147);stroke-width:0.01" />
<line x1="-0.0381363" y1="-0.0340136" x2="0.0439243" y2="0.20533" style="stroke:rgb(246,147,147);stroke-width:0.01" />
<line x1="0.249982" y1="-0.0363613" x2="0.284217" y2="0.000685914" style="stroke:rgb(246,147,147);stroke-width:0.01" />
<line x1="0.213083" y1="-0.152481" x2="0.326876" y2="-0.0441061" style="stroke:rgb(246,147,147);stroke-width:0.01" />
<line x1="-0.0644449" y1="-0.0208593" x2="-0.0546587" y2="0.0226347" style="stroke:rgb(246,147,147);stroke-width:0.01" />
<line x1="-0.0764456" y1="-0.0305658" x2="-0.0701101" y2="0.00718336" style="stroke:rgb(246,147,147);stroke-width:0.01" />
<line x1="-0.0806863" y1="-0.0376607" x2="-0.0720285" y2="0.0226347" style="stroke:rgb(246,147,147);stroke-width:0.01" />
<line x1="-0.0869168" y1="-0.0531016" x2="-0.0814672" y2="0.00945021" style="stroke:rgb(246,147,147);stroke-width:0.01" />
<line x1="-0.0869168" y1="-0.0466604" x2="-0.083691" y2="-0.00317175" style="stroke:rgb(246,147,147);stroke-width:0.01" />
<line x1="-0.0869168" y1="-0.0531016" x2="-0.0869168" y2="-0.00962336" style="stroke:rgb(246,147,147);stroke-width:0.01" />
<line x1="-0.0806863" y1="-0.0376607" x2="-0.083691" y2="-0.00317175" style="stroke:rgb(246,147,147);stroke-width:0.01" />
<line x1="-0.0764456" y1="-0.0305658" x2="-0.0814672" y2="0.00945021" style="stroke:rgb(246,147,147);stroke-width:0.01" />
<line x1="-0.0644449" y1="-0.0208593" x2="-0.0701101" y2="0.00718336" style="stroke:rgb(246,147,147);stroke-width:0.01" />
<line x1="-0.063661" y1="-0.0173753" x2="-0.0720285" y2="0.0226347" style="stroke:rgb(246,147,147);stroke-width:0.01" />
<line x1="-0.0389168" y1="-0.0736234" x2="-0.0587478" y2="0.00446114" style="stroke:rgb(246,147,147);stroke-width:0.01" />
<line x1="-0.0381363" y1="-0.0340136" x2="-0.0546587" y2="0.0226347" style="stroke:rgb(246,147,147);stroke-width:0.01" />
<line x1="0.083296" y1="-0.0394106" x2="0.0183464" y2="0.07371" style="stroke:rgb(246,147,147);stroke-width:0.01" />
<line x1="0.213083" y1="-0.152481" x2="0.109712" y2="0.00161259" style="stroke:rgb(246,147,147);stroke-width:0.01" />
<line x1="-1.08692" y1="-0.00962336" x2="0.0439243" y2="0.20533" style="stroke:rgb(246,147,147);stroke-width:0.01" />
<line x1="0.213083" y1="-0.152481" x2="-1.08692" y2="-0.00962336" style="stroke:rgb(246,147,147);stroke-width:0.01" />
<line x1="-1.08692" y1="-0.00962336" x2="0.0183464" y2="0.07371" style="stroke:rgb(246,147,147);stroke-width:0.01" />
<line x1="-0.0389168" y1="-0.0736234" x2="-1.08692" y2="-0.00962336" style="stroke:rgb(246,147,147);stroke-width:0.01" />
<line x1="-0.0869168" y1="-0.0531016" x2="-1.08692" y2="-0.00962336" style="stroke:rgb(246,147,147);stroke-width:0.01" />
<line x1="-0.0869168" y1="-0.0466604" x2="-1.08692" y2="-0.00962336" style="stroke:rgb(246,147,147);stroke-width:0.01" />
<line x1="-1.08692" y1="-0.00962336" x2="-0.0720285" y2="0.0226347" style="stroke:rgb(246,147,147);stroke-width:0.01" />
<line x1="-1.08692" y1="-0.00962336" x2="-0.0546587" y2="0.0226347" style="stroke:rgb(246,147,147);stroke-width:0.01" />
<line x1="-0.0806863" y1="-0.0376607" x2="-1.08692" y2="-0.00962336" style="stroke:rgb(246,147,147);stroke-width:0.01" />
<line x1="0.083296" y1="-0.0394106" x2="-1.08692" y2="-0.00962336" style="stroke:rgb(246,147,147);stroke-width:0.01" />
<line x1="-0.0381363" y1="-0.0340136" x2="-1.08692" y2="-0.00962336" style="stroke:rgb(246,147,147);stroke-width:0.01" />
<line x1="-0.0764456" y1="-0.0305658" x2="-1.08692" y2="-0.00962336" style="stroke:rgb(246,147,147);stroke-width:0.01" />
<line x1="0.249982" y1="-0.0363613" x2="-1.08692" y2="-0.00962336" style="stroke:rgb(246,147,147);stroke-width:0.01" />
<line x1="-1.08692" y1="-0.00962336" x2="-0.0814672" y2="0.00945021" style="stroke:rgb(246,147,147);stroke-width:0.01" />
<line x1="-1.08692" y1="-0.00962336" x2="-0.0701101" y2="0.00718336" style="stroke:rgb(246,147,147);stroke-width:0.01" />
<line x1="-1.08692" y1="-0.00962336" x2="-0.0587478" y2="0.00446114" style="stroke:rgb(246,147,147);stroke-width:0.01" />
<line x1="-0.0644449" y1="-0.0208593" x2="-1.08692" y2="-0.00962336" style="stroke:rgb(246,147,147);stroke-width:0.01" />
<line x1="-1.08692" y1="-0.00962336" x2="0.109712" y2="0.00161259" style="stroke:rgb(246,147,147);stroke-width:0.01" />
<line x1="-0.063661" y1="-0.0173753" x2="-1.08692" y2="-0.00962336" style="stroke:rgb(246,147,147);stroke-width:0.01" />
<line x1="-1.08692" y1="-0.00962336" x2="0.284217" y2="0.000685914" style="stroke:rgb(246,147,147);stroke-width:0.01" />
<line x1="-1.08692" y1="-0.00962336" x2="-0.083691" y2="-0.00317175" style="stroke:rgb(246,147,147);stroke-width:0.01" />
<line x1="-1.08692" y1="-0.00962336" x2="-0.0869168" y2="-0.00962336" style="stroke:rgb(246,147,147);stroke-width:0.01" />
<line x1="0.249982" y1="-0.0363613" x2="0.0439243" y2="0.20533" style="stroke:rgb(246,147,147);stroke-width:0.01" />
<line x1="0.326876" y1="-0.0441061" x2="0.284217" y2="0.000685914" style="stroke:rgb(246,147,147);stroke-width:0.01" />
</g>
</svg>
