<svg xmlns="http://www.w3.org/2000/svg" viewBox="-1.5 -1.5 3 3">
<g transform="scale(1, -1)">
<path d="M0.124851 -0.123700 L0.139197 -0.108175 L0.204537 -0.114863 L0.309052 -0.015325 L0.266393 0.029467 L0.105407 0.028256 L0.064750 0.086954 L-0.046958 0.080478 L-0.062488 0.117749 L-1.104741 0.019158 z " fill="rgb(245,195,195)" />
<path d="M-1.104741 -0.980842 L-0.104741 -0.980842 L-0.104741 0.019158 L-1.104741 0.019158  z" fill="none" stroke="rgb(128,128,128)" stroke-width="0.01" />
<line x1="0.000521975" y1="-0.033474" x2="0.0647503" y2="0.0869542" style="stroke:rgb(246,147,147);stroke-width:0.01" />
<line x1="-0.0278181" y1="0.00377296" x2="0.000521975" y2="0.0717892" style="stroke:rgb(246,147,147);stroke-width:0.01" />
<line x1="-0.0441351" y1="0.00905657" x2="-0.0371736" y2="0.0281666" style="stroke:rgb(246,147,147);stroke-width:0.01" />
<line x1="0.124851" y1="-0.1237" x2="0.266393" y2="0.0294669" style="stroke:rgb(246,147,147);stroke-width:0.01" />
<line x1="0.204537" y1="-0.114863" x2="0.309052" y2="-0.0153252" style="stroke:rgb(246,147,147);stroke-width:0.01" />
<line x1="-0.074666" y1="-0.00339882" x2="-0.0592866" y2="0.0532485" style="stroke:rgb(246,147,147);stroke-width:0.01" />
<line x1="-0.0886984" y1="-0.00758039" x2="-0.0624877" y2="0.117749" style="stroke:rgb(246,147,147);stroke-width:0.01" />
<line x1="-0.096373" y1="0.0149735" x2="-0.0898158" y2="0.0639337" style="stroke:rgb(246,147,147);stroke-width:0.01" />
<line x1="-0.104741" y1="-0.039666" x2="-0.0956503" y2="0.0373394" style="stroke:rgb(246,147,147);stroke-width:0.01" />
<line x1="-0.104741" y1="-0.039666" x2="-0.104741" y2="0.0191576" style="stroke:rgb(246,147,147);stroke-width:0.01" />
<line x1="-0.096373" y1="0.0149735" x2="-0.0973611" y2="0.0228476" style="stroke:rgb(246,147,147);stroke-width:0.01" />
<line x1="-0.0886984" y1="-0.00758039" x2="-0.0956503" y2="0.0373394" style="stroke:rgb(246,147,147);stroke-width:0.01" />
<line x1="-0.074666" y1="-0.00339882" x2="-0.0898158" y2="0.0639337" style="stroke:rgb(246,147,147);stroke-width:0.01" />
<line x1="-0.0441351" y1="0.00905657" x2="-0.0592866" y2="0.0532485" style="stroke:rgb(246,147,147);stroke-width:0.01" />
<line x1="-0.0278181" y1="0.00377296" x2="-0.0371736" y2="0.0281666" style="stroke:rgb(246,147,147);stroke-width:0.01" />
<line x1="0.000521975" y1="-0.033474" x2="-0.0624877" y2="0.117749" style="stroke:rgb(246,147,147);stroke-width:0.01" />
<line x1="0.0285922" y1="0.0191576" x2="0.000521975" y2="0.0717892" style="stroke:rgb(246,147,147);stroke-width:0.01" />
<line x1="0.124851" y1="-0.1237" x2="0.0361039" y2="0.0332421" style="stroke:rgb(246,147,147);stroke-width:0.01" />
<line x1="0.204537" y1="-0.114863" x2="0.0647503" y2="0.0869542" style="stroke:rgb(246,147,147);stroke-width:0.01" />
<line x1="0.124851" y1="-0.1237" x2="-1.10474" y2="0.0191576" style="stroke:rgb(246,147,147);stroke-width:0.01" />
<line x1="0.204537" y1="-0.114863" x2="-1.10474" y2="0.0191576" style="stroke:rgb(246,147,147);stroke-width:0.01" />
<line x1="-1.10474" y1="0.0191576" x2="-0.0624877" y2="0.117749" style="stroke:rgb(246,147,147);stroke-width:0.01" />
<line x1="-0.104741" y1="-0.039666" x2="-1.10474" y2="0.0191576" style="stroke:rgb(246,147,147);stroke-width:0.01" />
<line x1="-1.10474" y1="0.0191576" x2="0.0647503" y2="0.0869542" style="stroke:rgb(246,147,147);stroke-width:0.01" />
<line x1="-1.10474" y1="0.0191576" x2="0.000521975" y2="0.0717892" style="stroke:rgb(246,147,147);stroke-width:0.01" />
<line x1="0.000521975" y1="-0.033474" x2="-1.10474" y2="0.0191576" style="stroke:rgb(246,147,147);stroke-width:0.01" />
<line x1="-1.10474" y1="0.0191576" x2="-0.0898158" y2="0.0639337" style="stroke:rgb(246,147,147);stroke-width:0.01" />
<line x1="-1.10474" y1="0.0191576" x2="-0.0592866" y2="0.0532485" style="stroke:rgb(246,147,147);stroke-width:0.01" />
<line x1="-0.0886984" y1="-0.00758039" x2="-1.10474" y2="0.0191576" style="stroke:rgb(246,147,147);stroke-width:0.01" />
<line x1="-0.074666" y1="-0.00339882" x2="-1.10474" y2="0.0191576" style="stroke:rgb(246,147,147);stroke-width:0.01" />
<line x1="-1.10474" y1="0.0191576" x2="-0.0956503" y2="0.0373394" style="stroke:rgb(246,147,147);stroke-width:0.01" />
<line x1="-0.0278181" y1="0.00377296" x2="-1.10474" y2="0.0191576" style="stroke:rgb(246,147,147);stroke-width:0.01" />
<line x1="-1.10474" y1="0.0191576" x2="0.0361039" y2="0.0332421" style="stroke:rgb(246,147,147);stroke-width:0.01" />
<line x1="-0.0441351" y1="0.00905657" x2="-1.10474" y2="0.0191576" style="stroke:rgb(246,147,147);stroke-width:0.01" />
<line x1="-1.10474" y1="0.0191576" x2="-0.0371736" y2="0.0281666" style="stroke:rgb(246,147,147);stroke-width:0.01" />
<line x1="-1.10474" y1="0.0191576" x2="0.266393" y2="0.0294669" style="stroke:rgb(246,147,147);stroke-width:0.01" />
<line x1="-0.096373" y1="0.0149735" x2="-1.10474" y2="0.0191576" style="stroke:rgb(246,147,147);stroke-width:0.01" />
<line x1="-1.10474" y1="0.0191576" x2="-0.0973611" y2="0.0228476" style="stroke:rgb(246,147,147);stroke-width:0.01" />
<line x1="-1.10474" y1="0.0191576" x2="0.0285922" y2="0.0191576" style="stroke:rgb(246,147,147);stroke-width:0.01" />
<line x1="0.309052" y1="-0.0153252" x2="0.266393" y2="0.0294669" style="stroke:rgb(246,147,147);stroke-width:0.01" />
</g>
</svg>
