<svg xmlns="http://www.w3.org/2000/svg" viewBox="-1.5 -1.5 3 3">
<g transform="scale(1, -1)">
<path d="M-0.097978 -0.100075 L-0.082729 -0.066126 L0.156928 -0.080223 L0.177244 -0.058891 L0.201437 -0.059904 L0.263437 0.002617 L0.249236 0.016700 L0.138561 0.015119 L0.101204 0.059692 L0.053781 0.057306 L0.044358 0.069870 L-0.022596 0.065771 L-0.032120 0.081445 L-1.150764 -0.003300 z " fill="rgb(245,195,195)" />
<path d="M-1.150764 -1.003300 L-0.150764 -1.003300 L-0.150764 -0.003300 L-1.150764 -0.003300  z" fill="none" stroke="rgb(128,128,128)" stroke-width="0.01" />
<line x1="-0.00790701" y1="-0.0211575" x2="0.0443578" y2="0.0698704" style="stroke:rgb(246,147,147);stroke-width:0.01" />
<line x1="0.037788" y1="-0.0336034" x2="0.101204" y2="0.0596918" style="stroke:rgb(246,147,147);stroke-width:0.01" />
<line x1="-0.0979782" y1="-0.100075" x2="-0.0375566" y2="0.0344355" style="stroke:rgb(246,147,147);stroke-width:0.01" />
<line x1="-0.0738411" y1="-0.0186849" x2="-0.0321201" y2="0.0814454" style="stroke:rgb(246,147,147);stroke-width:0.01" />
<line x1="-0.101984" y1="-0.0276906" x2="-0.0870699" y2="0.015808" style="stroke:rgb(246,147,147);stroke-width:0.01" />
<line x1="0.156928" y1="-0.0802234" x2="0.249236" y2="0.0166997" style="stroke:rgb(246,147,147);stroke-width:0.01" />
<line x1="0.201437" y1="-0.0599041" x2="0.263437" y2="0.00261683" style="stroke:rgb(246,147,147);stroke-width:0.01" />
<line x1="-0.134635" y1="-0.0570638" x2="-0.11588" y2="0.0199555" style="stroke:rgb(246,147,147);stroke-width:0.01" />
<line x1="-0.133523" y1="-0.0377831" x2="-0.123737" y2="0.00570868" style="stroke:rgb(246,147,147);stroke-width:0.01" />
<line x1="-0.150764" y1="-0.0509194" x2="-0.144395" y2="0.015808" style="stroke:rgb(246,147,147);stroke-width:0.01" />
<line x1="-0.150764" y1="-0.0403374" x2="-0.14505" y2="0.0366997" style="stroke:rgb(246,147,147);stroke-width:0.01" />
<line x1="-0.150764" y1="-0.0509194" x2="-0.150764" y2="-0.00330033" style="stroke:rgb(246,147,147);stroke-width:0.01" />
<line x1="-0.134635" y1="-0.0570638" x2="-0.144395" y2="0.015808" style="stroke:rgb(246,147,147);stroke-width:0.01" />
<line x1="-0.133523" y1="-0.0377831" x2="-0.14505" y2="0.0366997" style="stroke:rgb(246,147,147);stroke-width:0.01" />
<line x1="-0.0979782" y1="-0.100075" x2="-0.123737" y2="0.00570868" style="stroke:rgb(246,147,147);stroke-width:0.01" />
<line x1="-0.101984" y1="-0.0276906" x2="-0.11588" y2="0.0199555" style="stroke:rgb(246,147,147);stroke-width:0.01" />
<line x1="-0.0738411" y1="-0.0186849" x2="-0.0870699" y2="0.015808" style="stroke:rgb(246,147,147);stroke-width:0.01" />
<line x1="-0.00790701" y1="-0.0211575" x2="-0.0375566" y2="0.0344355" style="stroke:rgb(246,147,147);stroke-width:0.01" />
<line x1="0.037788" y1="-0.0336034" x2="-0.0321201" y2="0.0814454" style="stroke:rgb(246,147,147);stroke-width:0.01" />
<line x1="0.156928" y1="-0.0802234" x2="0.0443578" y2="0.0698704" style="stroke:rgb(246,147,147);stroke-width:0.01" />
<line x1="-0.0979782" y1="-0.100075" x2="-1.15076" y2="-0.00330033" style="stroke:rgb(246,147,147);stroke-width:0.01" />
<line x1="-1.15076" y1="-0.00330033" x2="-0.0321201" y2="0.0814454" style="stroke:rgb(246,147,147);stroke-width:0.01" />
<line x1="-1.15076" y1="-0.00330033" x2="0.0443578" y2="0.0698704" style="stroke:rgb(246,147,147);stroke-width:0.01" />
<line x1="0.156928" y1="-0.0802234" x2="-1.15076" y2="-0.00330033" style="stroke:rgb(246,147,147);stroke-width:0.01" />
<line x1="-0.134635" y1="-0.0570638" x2="-1.15076" y2="-0.00330033" style="stroke:rgb(246,147,147);stroke-width:0.01" />
<line x1="-1.15076" y1="-0.00330033" x2="0.101204" y2="0.0596918" style="stroke:rgb(246,147,147);stroke-width:0.01" />
<line x1="-0.150764" y1="-0.0509194" x2="-1.15076" y2="-0.00330033" style="stroke:rgb(246,147,147);stroke-width:0.01" />
<line x1="0.201437" y1="-0.0599041" x2="-1.15076" y2="-0.00330033" style="stroke:rgb(246,147,147);stroke-width:0.01" />
<line x1="-1.15076" y1="-0.00330033" x2="-0.14505" y2="0.0366997" style="stroke:rgb(246,147,147);stroke-width:0.01" />
<line x1="-0.150764" y1="-0.0403374" x2="-1.15076" y2="-0.00330033" style="stroke:rgb(246,147,147);stroke-width:0.01" />
<line x1="-1.15076" y1="-0.00330033" x2="-0.0375566" y2="0.0344355" style="stroke:rgb(246,147,147);stroke-width:0.01" />
<line x1="-0.133523" y1="-0.0377831" x2="-1.15076" y2="-0.00330033" style="stroke:rgb(246,147,147);stroke-width:0.01" />
<line x1="0.037788" y1="-0.0336034" x2="-1.15076" y2="-0.00330033" style="stroke:rgb(246,147,147);stroke-width:0.01" />
<line x1="-0.101984" y1="-0.0276906" x2="-1.15076" y2="-0.00330033" style="stroke:rgb(246,147,147);stroke-width:0.01" />
<line x1="-1.15076" y1="-0.00330033" x2="-0.11588" y2="0.0199555" style="stroke:rgb(246,147,147);stroke-width:0.01" />
<line x1="-1.15076" y1="-0.00330033" x2="-0.144395" y2="0.015808" style="stroke:rgb(246,147,147);stroke-width:0.01" />
<line x1="-1.15076" y1="-0.00330033" x2="-0.0870699" y2="0.015808" style="stroke:rgb(246,147,147);stroke-width:0.01" />
<line x1="-0.00790701" y1="-0.0211575" x2="-1.15076" y2="-0.00330033" style="stroke:rgb(246,147,147);stroke-width:0.01" />
<line x1="-1.15076" y1="-0.00330033" x2="0.249236" y2="0.0166997" style="stroke:rgb(246,147,147);stroke-width:0.01" />
<line x1="-0.0738411" y1="-0.0186849" x2="-1.15076" y2="-0.00330033" style="stroke:rgb(246,147,147);stroke-width:0.01" />
<line x1="-1.15076" y1="-0.00330033" x2="-0.123737" y2="0.00570868" style="stroke:rgb(246,147,147);stroke-width:0.01" />
<line x1="-1.15076" y1="-0.00330033" x2="-0.150764" y2="-0.00330033" style="stroke:rgb(246,147,147);stroke-width:0.01" />
<line x1="0.201437" y1="-0.0599041" x2="0.101204" y2="0.0596918" style="stroke:rgb(246,147,147);stroke-width:0.01" />
<line x1="0.263437" y1="0.00261683" x2="0.249236" y2="0.0166997" style="stroke:rgb(246,147,147);stroke-width:0.01" />
</g>
</svg>
