<svg xmlns="http://www.w3.org/2000/svg" viewBox="-1.5 -1.5 3 3">
<g transform="scale(1, -1)">
<path d="M-0.391451 -0.401542 L-0.312243 -0.359768 L0.233709 -0.359768 L0.233709 -0.071832 L0.330044 -0.021025 L0.233709 0.161635 L0.233709 0.640232 L-0.018704 0.640232 L-0.542480 -0.228164 z " fill="rgb(245,195,195)" />
<path d="M-0.766291 -0.359768 L0.233709 -0.359768 L0.233709 0.640232 L-0.766291 0.640232  z" fill="none" stroke="rgb(128,128,128)" stroke-width="0.01" />
<line x1="-0.391451" y1="-0.401542" x2="-0.283926" y2="-0.251846" style="stroke:rgb(246,147,147);stroke-width:0.01" />
<line x1="-0.391451" y1="-0.401542" x2="0.330044" y2="-0.0210253" style="stroke:rgb(246,147,147);stroke-width:0.01" />
<line x1="-0.54248" y1="-0.228164" x2="-0.0187041" y2="0.640232" style="stroke:rgb(246,147,147);stroke-width:0.01" />
<line x1="-0.427841" y1="-0.359768" x2="-0.401234" y2="-0.167585" style="stroke:rgb(246,147,147);stroke-width:0.01" />
<line x1="-0.427841" y1="-0.359768" x2="0.233709" y2="-0.359768" style="stroke:rgb(246,147,147);stroke-width:0.01" />
<line x1="0.233709" y1="-0.359768" x2="0.233709" y2="0.640232" style="stroke:rgb(246,147,147);stroke-width:0.01" />
<line x1="-0.54248" y1="-0.228164" x2="-0.401234" y2="-0.167585" style="stroke:rgb(246,147,147);stroke-width:0.01" />
<line x1="-0.391451" y1="-0.401542" x2="-0.54248" y2="-0.228164" style="stroke:rgb(246,147,147);stroke-width:0.01" />
<line x1="-0.283926" y1="-0.251846" x2="-0.401234" y2="-0.167585" style="stroke:rgb(246,147,147);stroke-width:0.01" />
<line x1="0.330044" y1="-0.0210253" x2="-0.0187041" y2="0.640232" style="stroke:rgb(246,147,147);stroke-width:0.01" />
<line x1="-0.0187041" y1="0.640232" x2="0.233709" y2="0.640232" style="stroke:rgb(246,147,147);stroke-width:0.01" />
</g>
</svg>
