<svg xmlns="http://www.w3.org/2000/svg" viewBox="-1.5 -1.5 3 3">
<g transform="scale(1, -1)">
<path d="M-0.260116 -0.407594 L-0.210116 -0.407594 L-0.201292 -0.372299 L0.539884 -0.372299 L0.539884 -0.054652 L0.198708 0.627701 L-0.001292 0.627701 L-0.009135 0.619857 L-0.060116 0.492406 L-0.276292 -0.372299 L-0.260116 -0.380927 z " fill="rgb(245,195,195)" />
<path d="M0.755884 2.191406 L1.755884 2.191406 L1.755884 3.191406 L0.755884 3.191406  z" fill="none" stroke="rgb(128,128,128)" stroke-width="0.01" />
<line x1="-0.260116" y1="-0.407594" x2="-0.210116" y2="-0.407594" style="stroke:rgb(246,147,147);stroke-width:0.01" />
<line x1="-0.276292" y1="-0.372299" x2="0.539884" y2="-0.372299" style="stroke:rgb(246,147,147);stroke-width:0.01" />
<line x1="-0.210116" y1="-0.407594" x2="-0.276292" y2="-0.372299" style="stroke:rgb(246,147,147);stroke-width:0.01" />
<line x1="-0.135116" y1="0.192406" x2="-0.0601159" y2="0.192406" style="stroke:rgb(246,147,147);stroke-width:0.01" />
<line x1="-0.126292" y1="0.227701" x2="-0.00129234" y2="0.227701" style="stroke:rgb(246,147,147);stroke-width:0.01" />
<line x1="-0.0248217" y1="0.133583" x2="-0.135116" y2="0.192406" style="stroke:rgb(246,147,147);stroke-width:0.01" />
<line x1="-0.0601159" y1="0.192406" x2="-0.126292" y2="0.227701" style="stroke:rgb(246,147,147);stroke-width:0.01" />
<line x1="0.298708" y1="0.327701" x2="0.348708" y2="0.327701" style="stroke:rgb(246,147,147);stroke-width:0.01" />
<line x1="0.539884" y1="-0.128182" x2="0.198708" y2="0.127701" style="stroke:rgb(246,147,147);stroke-width:0.01" />
<line x1="-0.00129234" y1="0.627701" x2="0.198708" y2="0.627701" style="stroke:rgb(246,147,147);stroke-width:0.01" />
<line x1="0.481061" y1="-0.172299" x2="0.539884" y2="-0.128182" style="stroke:rgb(246,147,147);stroke-width:0.01" />
<line x1="0.298708" y1="0.427701" x2="0.138708" y2="0.547701" style="stroke:rgb(246,147,147);stroke-width:0.01" />
<line x1="-0.0280171" y1="0.572653" x2="-0.0082565" y2="0.58382" style="stroke:rgb(246,147,147);stroke-width:0.01" />
<line x1="0.539884" y1="-0.0546524" x2="0.198708" y2="0.627701" style="stroke:rgb(246,147,147);stroke-width:0.01" />
<line x1="-0.0934492" y1="0.359073" x2="0.0065508" y2="0.459073" style="stroke:rgb(246,147,147);stroke-width:0.01" />
<line x1="0.198708" y1="0.127701" x2="0.348708" y2="0.327701" style="stroke:rgb(246,147,147);stroke-width:0.01" />
<line x1="-0.00913547" y1="0.619857" x2="-0.00129234" y2="0.627701" style="stroke:rgb(246,147,147);stroke-width:0.01" />
<line x1="-0.0248217" y1="0.133583" x2="-0.0934492" y2="0.359073" style="stroke:rgb(246,147,147);stroke-width:0.01" />
<line x1="0.481061" y1="-0.172299" x2="0.539884" y2="-0.0546524" style="stroke:rgb(246,147,147);stroke-width:0.01" />
<line x1="0.0065508" y1="0.459073" x2="-0.0280171" y2="0.572653" style="stroke:rgb(246,147,147);stroke-width:0.01" />
<line x1="0.138708" y1="0.547701" x2="0.198708" y2="0.627701" style="stroke:rgb(246,147,147);stroke-width:0.01" />
<line x1="-0.260116" y1="-0.307594" x2="-0.0248217" y2="0.133583" style="stroke:rgb(246,147,147);stroke-width:0.01" />
<line x1="0.198708" y1="0.127701" x2="0.138708" y2="0.547701" style="stroke:rgb(246,147,147);stroke-width:0.01" />
<line x1="-0.0601159" y1="0.492406" x2="-0.0082565" y2="0.58382" style="stroke:rgb(246,147,147);stroke-width:0.01" />
<line x1="-0.0082565" y1="0.58382" x2="-0.00913547" y2="0.619857" style="stroke:rgb(246,147,147);stroke-width:0.01" />
<line x1="-0.260116" y1="-0.407594" x2="-0.260116" y2="-0.307594" style="stroke:rgb(246,147,147);stroke-width:0.01" />
<line x1="-0.00129234" y1="0.227701" x2="-0.00129234" y2="0.627701" style="stroke:rgb(246,147,147);stroke-width:0.01" />
<line x1="0.298708" y1="0.327701" x2="0.298708" y2="0.427701" style="stroke:rgb(246,147,147);stroke-width:0.01" />
<line x1="0.481061" y1="-0.372299" x2="0.481061" y2="-0.172299" style="stroke:rgb(246,147,147);stroke-width:0.01" />
<line x1="0.539884" y1="-0.372299" x2="0.539884" y2="-0.0546524" style="stroke:rgb(246,147,147);stroke-width:0.01" />
<line x1="-0.0601159" y1="0.492406" x2="-0.00913547" y2="0.619857" style="stroke:rgb(246,147,147);stroke-width:0.01" />
<line x1="-0.210116" y1="-0.407594" x2="0.0065508" y2="0.459073" style="stroke:rgb(246,147,147);stroke-width:0.01" />
<line x1="-0.276292" y1="-0.372299" x2="-0.0601159" y2="0.492406" style="stroke:rgb(246,147,147);stroke-width:0.01" />
</g>
</svg>
