<svg xmlns="http://www.w3.org/2000/svg" viewBox="-1.5 -1.5 3 3">
<g transform="scale(1, -1)">
<path d="M-1.016000 -2.599000 L-0.966000 -2.599000 L-0.957176 -2.563706 L-0.216000 -2.563706 L-0.216000 -2.246059 L-0.557176 -1.563706 L-0.757176 -1.563706 L-0.765020 -1.571549 L-0.816000 -1.699000 L-1.032176 -2.563706 L-1.016000 -2.572333 z " fill="rgb(245,195,195)" />
<path d="M0.000000 0.000000 L1.000000 0.000000 L1.000000 1.000000 L0.000000 1.000000  z" fill="none" stroke="rgb(128,128,128)" stroke-width="0.01" />
<line x1="-1.016" y1="-2.599" x2="-0.966" y2="-2.599" style="stroke:rgb(246,147,147);stroke-width:0.01" />
<line x1="-1.03218" y1="-2.56371" x2="-0.216" y2="-2.56371" style="stroke:rgb(246,147,147);stroke-width:0.01" />
<line x1="-0.966" y1="-2.599" x2="-1.03218" y2="-2.56371" style="stroke:rgb(246,147,147);stroke-width:0.01" />
<line x1="-0.891" y1="-1.999" x2="-0.816" y2="-1.999" style="stroke:rgb(246,147,147);stroke-width:0.01" />
<line x1="-0.882176" y1="-1.96371" x2="-0.757176" y2="-1.96371" style="stroke:rgb(246,147,147);stroke-width:0.01" />
<line x1="-0.780706" y1="-2.05782" x2="-0.891" y2="-1.999" style="stroke:rgb(246,147,147);stroke-width:0.01" />
<line x1="-0.816" y1="-1.999" x2="-0.882176" y2="-1.96371" style="stroke:rgb(246,147,147);stroke-width:0.01" />
<line x1="-0.457176" y1="-1.86371" x2="-0.407176" y2="-1.86371" style="stroke:rgb(246,147,147);stroke-width:0.01" />
<line x1="-0.216" y1="-2.31959" x2="-0.557176" y2="-2.06371" style="stroke:rgb(246,147,147);stroke-width:0.01" />
<line x1="-0.757176" y1="-1.56371" x2="-0.557176" y2="-1.56371" style="stroke:rgb(246,147,147);stroke-width:0.01" />
<line x1="-0.274824" y1="-2.36371" x2="-0.216" y2="-2.31959" style="stroke:rgb(246,147,147);stroke-width:0.01" />
<line x1="-0.457176" y1="-1.76371" x2="-0.617176" y2="-1.64371" style="stroke:rgb(246,147,147);stroke-width:0.01" />
<line x1="-0.783901" y1="-1.61875" x2="-0.764141" y2="-1.60759" style="stroke:rgb(246,147,147);stroke-width:0.01" />
<line x1="-0.216" y1="-2.24606" x2="-0.557176" y2="-1.56371" style="stroke:rgb(246,147,147);stroke-width:0.01" />
<line x1="-0.849333" y1="-1.83233" x2="-0.749333" y2="-1.73233" style="stroke:rgb(246,147,147);stroke-width:0.01" />
<line x1="-0.557176" y1="-2.06371" x2="-0.407176" y2="-1.86371" style="stroke:rgb(246,147,147);stroke-width:0.01" />
<line x1="-0.76502" y1="-1.57155" x2="-0.757176" y2="-1.56371" style="stroke:rgb(246,147,147);stroke-width:0.01" />
<line x1="-0.780706" y1="-2.05782" x2="-0.849333" y2="-1.83233" style="stroke:rgb(246,147,147);stroke-width:0.01" />
<line x1="-0.274824" y1="-2.36371" x2="-0.216" y2="-2.24606" style="stroke:rgb(246,147,147);stroke-width:0.01" />
<line x1="-0.749333" y1="-1.73233" x2="-0.783901" y2="-1.61875" style="stroke:rgb(246,147,147);stroke-width:0.01" />
<line x1="-0.617176" y1="-1.64371" x2="-0.557176" y2="-1.56371" style="stroke:rgb(246,147,147);stroke-width:0.01" />
<line x1="-1.016" y1="-2.499" x2="-0.780706" y2="-2.05782" style="stroke:rgb(246,147,147);stroke-width:0.01" />
<line x1="-0.557176" y1="-2.06371" x2="-0.617176" y2="-1.64371" style="stroke:rgb(246,147,147);stroke-width:0.01" />
<line x1="-0.816" y1="-1.699" x2="-0.764141" y2="-1.60759" style="stroke:rgb(246,147,147);stroke-width:0.01" />
<line x1="-0.764141" y1="-1.60759" x2="-0.76502" y2="-1.57155" style="stroke:rgb(246,147,147);stroke-width:0.01" />
<line x1="-1.016" y1="-2.599" x2="-1.016" y2="-2.499" style="stroke:rgb(246,147,147);stroke-width:0.01" />
<line x1="-0.757176" y1="-1.96371" x2="-0.757176" y2="-1.56371" style="stroke:rgb(246,147,147);stroke-width:0.01" />
<line x1="-0.457176" y1="-1.86371" x2="-0.457176" y2="-1.76371" style="stroke:rgb(246,147,147);stroke-width:0.01" />
<line x1="-0.274824" y1="-2.56371" x2="-0.274824" y2="-2.36371" style="stroke:rgb(246,147,147);stroke-width:0.01" />
<line x1="-0.216" y1="-2.56371" x2="-0.216" y2="-2.24606" style="stroke:rgb(246,147,147);stroke-width:0.01" />
<line x1="-0.816" y1="-1.699" x2="-0.76502" y2="-1.57155" style="stroke:rgb(246,147,147);stroke-width:0.01" />
<line x1="-0.966" y1="-2.599" x2="-0.749333" y2="-1.73233" style="stroke:rgb(246,147,147);stroke-width:0.01" />
<line x1="-1.03218" y1="-2.56371" x2="-0.816" y2="-1.699" style="stroke:rgb(246,147,147);stroke-width:0.01" />
</g>
</svg>
