<svg xmlns="http://www.w3.org/2000/svg" viewBox="-1.5 -1.5 3 3">
<g transform="scale(1, -1)">
<path d="M0.194179 -0.411020 L0.641238 -0.259051 L0.533441 0.058065 L-0.315232 0.472013 L-0.627399 0.365898 L-0.426227 -0.225904 z " fill="rgb(245,195,195)" />
<path d="M0.166420 0.614197 L1.166420 0.614197 L1.166420 1.614197 L0.166420 1.614197  z" fill="none" stroke="rgb(128,128,128)" stroke-width="0.01" />
<line x1="0.194179" y1="-0.41102" x2="-0.426227" y2="-0.225904" style="stroke:rgb(246,147,147);stroke-width:0.01" />
<line x1="0.194179" y1="-0.41102" x2="0.641238" y2="-0.259051" style="stroke:rgb(246,147,147);stroke-width:0.01" />
<line x1="-0.094541" y1="-0.160905" x2="0.533441" y2="0.058065" style="stroke:rgb(246,147,147);stroke-width:0.01" />
<line x1="0.194179" y1="-0.41102" x2="-0.13076" y2="0.00491983" style="stroke:rgb(246,147,147);stroke-width:0.01" />
<line x1="0.533441" y1="0.058065" x2="-0.315232" y2="0.472013" style="stroke:rgb(246,147,147);stroke-width:0.01" />
<line x1="-0.426227" y1="-0.225904" x2="-0.627399" y2="0.365898" style="stroke:rgb(246,147,147);stroke-width:0.01" />
<line x1="-0.426227" y1="-0.225904" x2="-0.13076" y2="0.00491983" style="stroke:rgb(246,147,147);stroke-width:0.01" />
<line x1="-0.094541" y1="-0.160905" x2="-0.315232" y2="0.472013" style="stroke:rgb(246,147,147);stroke-width:0.01" />
<line x1="-0.627399" y1="0.365898" x2="-0.315232" y2="0.472013" style="stroke:rgb(246,147,147);stroke-width:0.01" />
<line x1="0.641238" y1="-0.259051" x2="0.533441" y2="0.058065" style="stroke:rgb(246,147,147);stroke-width:0.01" />
</g>
</svg>
