<svg xmlns="http://www.w3.org/2000/svg" viewBox="-1 -1 3 3">
<path d="M0.000000 0.500000 L0.500000 0.500000 L1.000000 0.750000 L1.000000 1.000000 L0.875000 1.000000 L0.840000 1.120000 L0.600000 1.050000 L0.590909 1.000000 L0.000000 1.000000 z " fill="rgb(245,195,195)" />
<path d="M0 0 L0 1 L1 1 L1 0 z" fill="none" stroke="rgb(128,128,128)" stroke-width="0.01" />
<line x1="0.5" y1="0.5" x2="0.6" y2="1.05" style="stroke:rgb(246,147,147);stroke-width:0.01" />
<line x1="0.5" y1="0.5" x2="0.875" y2="1" style="stroke:rgb(246,147,147);stroke-width:0.01" />
<line x1="0" y1="0.5" x2="0" y2="1" style="stroke:rgb(246,147,147);stroke-width:0.01" />
<line x1="1" y1="0.75" x2="1" y2="1" style="stroke:rgb(246,147,147);stroke-width:0.01" />
<line x1="0.5" y1="0.5" x2="1" y2="0.75" style="stroke:rgb(246,147,147);stroke-width:0.01" />
<line x1="0.875" y1="1" x2="0.84" y2="1.12" style="stroke:rgb(246,147,147);stroke-width:0.01" />
<line x1="0" y1="0.5" x2="0.5" y2="0.5" style="stroke:rgb(246,147,147);stroke-width:0.01" />
<line x1="0.6" y1="1.05" x2="0.84" y2="1.12" style="stroke:rgb(246,147,147);stroke-width:0.01" />
<line x1="1" y1="0.75" x2="0.6" y2="1.05" style="stroke:rgb(246,147,147);stroke-width:0.01" />
<line x1="0" y1="1" x2="1" y2="1" style="stroke:rgb(246,147,147);stroke-width:0.01" />
</svg>
