<svg xmlns="http://www.w3.org/2000/svg" viewBox="-1.5 -1.5 3 3">
<g transform="scale(1, -1)">
<path d="M0.125000 -0.392857 L0.375000 -0.392857 L0.375000 0.107143 L0.125000 0.357143 L-0.375000 0.357143 L-0.375000 -0.017857 L-0.250000 -0.017857 z " fill="rgb(245,195,195)" />
<path d="M-0.375000 -0.392857 L0.625000 -0.392857 L0.625000 0.607143 L-0.375000 0.607143  z" fill="none" stroke="rgb(128,128,128)" stroke-width="0.01" />
<line x1="0.25" y1="-0.0178571" x2="0.375" y2="0.107143" style="stroke:rgb(246,147,147);stroke-width:0.01" />
<line x1="0.125" y1="-0.392857" x2="0.375" y2="-0.392857" style="stroke:rgb(246,147,147);stroke-width:0.01" />
<line x1="-0.375" y1="-0.0178571" x2="-0.375" y2="0.357143" style="stroke:rgb(246,147,147);stroke-width:0.01" />
<line x1="0.125" y1="-0.392857" x2="0.125" y2="0.357143" style="stroke:rgb(246,147,147);stroke-width:0.01" />
<line x1="0.375" y1="-0.392857" x2="0.375" y2="0.107143" style="stroke:rgb(246,147,147);stroke-width:0.01" />
<line x1="0.125" y1="-0.392857" x2="-0.375" y2="0.107143" style="stroke:rgb(246,147,147);stroke-width:0.01" />
<line x1="-0.375" y1="-0.0178571" x2="0.375" y2="-0.0178571" style="stroke:rgb(246,147,147);stroke-width:0.01" />
<line x1="-0.375" y1="0.107143" x2="0.375" y2="0.107143" style="stroke:rgb(246,147,147);stroke-width:0.01" />
<line x1="0.25" y1="-0.0178571" x2="0.125" y2="0.107143" style="stroke:rgb(246,147,147);stroke-width:0.01" />
<line x1="0.375" y1="0.107143" x2="0.125" y2="0.357143" style="stroke:rgb(246,147,147);stroke-width:0.01" />
<line x1="-0.375" y1="0.357143" x2="0.125" y2="0.357143" style="stroke:rgb(246,147,147);stroke-width:0.01" />
</g>
</svg>
