<svg xmlns="http://www.w3.org/2000/svg" viewBox="-1.5 -1.5 3 3">
<g transform="scale(1, -1)">
<path d="M0.263891 -0.206161 L0.291363 0.498802 L-0.277627 -0.094948 L-0.277627 -0.197694 z " fill="rgb(245,195,195)" />
<path d="M-0.293252 -0.485573 L0.706748 -0.485573 L0.706748 0.514427 L-0.293252 0.514427  z" fill="none" stroke="rgb(128,128,128)" stroke-width="0.01" />
<line x1="0.20979" y1="0.215034" x2="0.291363" y2="0.498802" style="stroke:rgb(246,147,147);stroke-width:0.01" />
<line x1="0.263891" y1="-0.206161" x2="0.291363" y2="0.498802" style="stroke:rgb(246,147,147);stroke-width:0.01" />
<line x1="-0.0699225" y1="-0.0306023" x2="-0.0488037" y2="0.143833" style="stroke:rgb(246,147,147);stroke-width:0.01" />
<line x1="-0.193201" y1="-0.170481" x2="-0.179295" y2="0.00766316" style="stroke:rgb(246,147,147);stroke-width:0.01" />
<line x1="-0.277627" y1="-0.197694" x2="-0.277362" y2="-0.189231" style="stroke:rgb(246,147,147);stroke-width:0.01" />
<line x1="-0.277627" y1="-0.197694" x2="-0.277627" y2="-0.0949476" style="stroke:rgb(246,147,147);stroke-width:0.01" />
<line x1="-0.0567858" y1="0.109433" x2="-0.0618848" y2="0.130183" style="stroke:rgb(246,147,147);stroke-width:0.01" />
<line x1="-0.277627" y1="-0.0949476" x2="0.291363" y2="0.498802" style="stroke:rgb(246,147,147);stroke-width:0.01" />
<line x1="0.263891" y1="-0.206161" x2="-0.277627" y2="-0.197694" style="stroke:rgb(246,147,147);stroke-width:0.01" />
<line x1="0.263891" y1="-0.206161" x2="-0.277362" y2="-0.189231" style="stroke:rgb(246,147,147);stroke-width:0.01" />
<line x1="0.263891" y1="-0.206161" x2="-0.193201" y2="-0.170481" style="stroke:rgb(246,147,147);stroke-width:0.01" />
<line x1="-0.277627" y1="-0.0949476" x2="0.269133" y2="-0.0716515" style="stroke:rgb(246,147,147);stroke-width:0.01" />
<line x1="-0.179295" y1="0.00766316" x2="0.274364" y2="0.0625873" style="stroke:rgb(246,147,147);stroke-width:0.01" />
<line x1="0.269133" y1="-0.0716515" x2="-0.0699225" y2="-0.0306023" style="stroke:rgb(246,147,147);stroke-width:0.01" />
<line x1="-0.0567858" y1="0.109433" x2="0.279409" y2="0.19205" style="stroke:rgb(246,147,147);stroke-width:0.01" />
<line x1="-0.0488037" y1="0.143833" x2="0.279636" y2="0.19787" style="stroke:rgb(246,147,147);stroke-width:0.01" />
<line x1="0.274364" y1="0.0625873" x2="-0.0618848" y2="0.130183" style="stroke:rgb(246,147,147);stroke-width:0.01" />
<line x1="0.279636" y1="0.19787" x2="0.20979" y2="0.215034" style="stroke:rgb(246,147,147);stroke-width:0.01" />
<line x1="0.279409" y1="0.19205" x2="0.20979" y2="0.215034" style="stroke:rgb(246,147,147);stroke-width:0.01" />
</g>
</svg>
