<svg xmlns="http://www.w3.org/2000/svg" viewBox="-1.5 -1.5 3 3">
<g transform="scale(1, -1)">
<path d="M0.557143 0.279412 L0.584615 0.984375 L0.015625 0.390625 L0.015625 0.287879 z " fill="rgb(245,195,195)" />
<path d="M0.000000 0.000000 L1.000000 0.000000 L1.000000 1.000000 L0.000000 1.000000  z" fill="none" stroke="rgb(128,128,128)" stroke-width="0.01" />
<line x1="0.503042" y1="0.700606" x2="0.584615" y2="0.984375" style="stroke:rgb(246,147,147);stroke-width:0.01" />
<line x1="0.557143" y1="0.279412" x2="0.584615" y2="0.984375" style="stroke:rgb(246,147,147);stroke-width:0.01" />
<line x1="0.22333" y1="0.45497" x2="0.244448" y2="0.629406" style="stroke:rgb(246,147,147);stroke-width:0.01" />
<line x1="0.100051" y1="0.315092" x2="0.113957" y2="0.493236" style="stroke:rgb(246,147,147);stroke-width:0.01" />
<line x1="0.015625" y1="0.287879" x2="0.0158897" y2="0.296342" style="stroke:rgb(246,147,147);stroke-width:0.01" />
<line x1="0.015625" y1="0.287879" x2="0.015625" y2="0.390625" style="stroke:rgb(246,147,147);stroke-width:0.01" />
<line x1="0.236466" y1="0.595006" x2="0.231367" y2="0.615755" style="stroke:rgb(246,147,147);stroke-width:0.01" />
<line x1="0.015625" y1="0.390625" x2="0.584615" y2="0.984375" style="stroke:rgb(246,147,147);stroke-width:0.01" />
<line x1="0.557143" y1="0.279412" x2="0.015625" y2="0.287879" style="stroke:rgb(246,147,147);stroke-width:0.01" />
<line x1="0.557143" y1="0.279412" x2="0.0158897" y2="0.296342" style="stroke:rgb(246,147,147);stroke-width:0.01" />
<line x1="0.557143" y1="0.279412" x2="0.100051" y2="0.315092" style="stroke:rgb(246,147,147);stroke-width:0.01" />
<line x1="0.015625" y1="0.390625" x2="0.562385" y2="0.413921" style="stroke:rgb(246,147,147);stroke-width:0.01" />
<line x1="0.113957" y1="0.493236" x2="0.567616" y2="0.54816" style="stroke:rgb(246,147,147);stroke-width:0.01" />
<line x1="0.562385" y1="0.413921" x2="0.22333" y2="0.45497" style="stroke:rgb(246,147,147);stroke-width:0.01" />
<line x1="0.236466" y1="0.595006" x2="0.572661" y2="0.677623" style="stroke:rgb(246,147,147);stroke-width:0.01" />
<line x1="0.244448" y1="0.629406" x2="0.572888" y2="0.683442" style="stroke:rgb(246,147,147);stroke-width:0.01" />
<line x1="0.567616" y1="0.54816" x2="0.231367" y2="0.615755" style="stroke:rgb(246,147,147);stroke-width:0.01" />
<line x1="0.572888" y1="0.683442" x2="0.503042" y2="0.700606" style="stroke:rgb(246,147,147);stroke-width:0.01" />
<line x1="0.572661" y1="0.677623" x2="0.503042" y2="0.700606" style="stroke:rgb(246,147,147);stroke-width:0.01" />
</g>
</svg>
