<svg xmlns="http://www.w3.org/2000/svg" viewBox="-1.5 -1.5 3 3">
<g transform="scale(1, -1)">
<path d="M0.098248 -0.355603 L0.222800 -0.235265 L0.433671 -0.184994 L0.520623 0.052480 L-0.133200 0.477860 L-0.365715 0.151644 L-0.337958 0.131860 L-0.438468 -0.037982 z " fill="rgb(245,195,195)" />
<path d="M1.189590 -0.231236 L2.189590 -0.231236 L2.189590 0.768764 L1.189590 0.768764  z" fill="none" stroke="rgb(128,128,128)" stroke-width="0.01" />
<line x1="0.0982476" y1="-0.355603" x2="-0.438468" y2="-0.0379821" style="stroke:rgb(246,147,147);stroke-width:0.01" />
<line x1="0.0982476" y1="-0.355603" x2="-0.082162" y2="-0.0253192" style="stroke:rgb(246,147,147);stroke-width:0.01" />
<line x1="0.188565" y1="-0.243426" x2="-0.365715" y2="0.151644" style="stroke:rgb(246,147,147);stroke-width:0.01" />
<line x1="0.27638" y1="-0.222492" x2="0.203382" y2="-0.103643" style="stroke:rgb(246,147,147);stroke-width:0.01" />
<line x1="0.433671" y1="-0.184994" x2="0.289846" y2="-0.0505364" style="stroke:rgb(246,147,147);stroke-width:0.01" />
<line x1="0.520623" y1="0.0524805" x2="-0.1332" y2="0.47786" style="stroke:rgb(246,147,147);stroke-width:0.01" />
<line x1="0.27638" y1="-0.222492" x2="0.31052" y2="0.189174" style="stroke:rgb(246,147,147);stroke-width:0.01" />
<line x1="0.188565" y1="-0.243426" x2="0.433671" y2="-0.184994" style="stroke:rgb(246,147,147);stroke-width:0.01" />
<line x1="0.433671" y1="-0.184994" x2="0.520623" y2="0.0524805" style="stroke:rgb(246,147,147);stroke-width:0.01" />
<line x1="0.188565" y1="-0.243426" x2="0.289846" y2="-0.0505364" style="stroke:rgb(246,147,147);stroke-width:0.01" />
<line x1="0.0982476" y1="-0.355603" x2="0.520623" y2="0.0524805" style="stroke:rgb(246,147,147);stroke-width:0.01" />
<line x1="0.203382" y1="-0.103643" x2="0.289846" y2="-0.0505364" style="stroke:rgb(246,147,147);stroke-width:0.01" />
<line x1="-0.082162" y1="-0.0253192" x2="0.31052" y2="0.189174" style="stroke:rgb(246,147,147);stroke-width:0.01" />
<line x1="-0.438468" y1="-0.0379821" x2="-0.1332" y2="0.47786" style="stroke:rgb(246,147,147);stroke-width:0.01" />
<line x1="-0.365715" y1="0.151644" x2="-0.1332" y2="0.47786" style="stroke:rgb(246,147,147);stroke-width:0.01" />
</g>
</svg>
