<svg xmlns="http://www.w3.org/2000/svg" viewBox="-1.5 -1.5 3 3">
<g transform="scale(1, -1)">
<path d="M-0.105029 -0.238610 L0.015274 -0.224560 L0.048280 -0.133402 L0.089207 -0.147434 L0.140804 0.003057 L0.142941 0.128039 L0.022561 0.171625 L-0.066300 0.298307 L-0.287738 0.142978 z " fill="rgb(245,195,195)" />
<path d="M-1.355162 -0.746984 L-0.355162 -0.746984 L-0.355162 0.253016 L-1.355162 0.253016  z" fill="none" stroke="rgb(128,128,128)" stroke-width="0.01" />
<line x1="0.0892073" y1="-0.147434" x2="0.140804" y2="0.00305707" style="stroke:rgb(246,147,147);stroke-width:0.01" />
<line x1="0.0152738" y1="-0.22456" x2="0.142941" y2="0.128039" style="stroke:rgb(246,147,147);stroke-width:0.01" />
<line x1="-0.105029" y1="-0.23861" x2="0.140804" y2="0.00305707" style="stroke:rgb(246,147,147);stroke-width:0.01" />
<line x1="-0.180569" y1="0.0339612" x2="-0.0230588" y2="0.236661" style="stroke:rgb(246,147,147);stroke-width:0.01" />
<line x1="-0.28408" y1="0.135339" x2="-0.266649" y2="0.157771" style="stroke:rgb(246,147,147);stroke-width:0.01" />
<line x1="-0.180569" y1="0.0339612" x2="-0.155162" y2="0.0530161" style="stroke:rgb(246,147,147);stroke-width:0.01" />
<line x1="0.140804" y1="0.00305707" x2="0.142941" y2="0.128039" style="stroke:rgb(246,147,147);stroke-width:0.01" />
<line x1="-0.155162" y1="0.00811669" x2="-0.155162" y2="0.235974" style="stroke:rgb(246,147,147);stroke-width:0.01" />
<line x1="-0.153312" y1="-0.13777" x2="0.140804" y2="0.00305707" style="stroke:rgb(246,147,147);stroke-width:0.01" />
<line x1="-0.287738" y1="0.142978" x2="-0.0663005" y2="0.298307" style="stroke:rgb(246,147,147);stroke-width:0.01" />
<line x1="-0.105029" y1="-0.23861" x2="0.0152738" y2="-0.22456" style="stroke:rgb(246,147,147);stroke-width:0.01" />
<line x1="-0.0487432" y1="-0.100137" x2="-0.157147" y2="0.234582" style="stroke:rgb(246,147,147);stroke-width:0.01" />
<line x1="-0.266649" y1="0.157771" x2="-0.0230588" y2="0.236661" style="stroke:rgb(246,147,147);stroke-width:0.01" />
<line x1="-0.105029" y1="-0.23861" x2="-0.287738" y2="0.142978" style="stroke:rgb(246,147,147);stroke-width:0.01" />
<line x1="0.140804" y1="0.00305707" x2="-0.155162" y2="0.00811669" style="stroke:rgb(246,147,147);stroke-width:0.01" />
<line x1="0.0152738" y1="-0.22456" x2="-0.245077" y2="0.172903" style="stroke:rgb(246,147,147);stroke-width:0.01" />
<line x1="-0.155162" y1="0.0530161" x2="-0.245077" y2="0.172903" style="stroke:rgb(246,147,147);stroke-width:0.01" />
<line x1="0.142941" y1="0.128039" x2="-0.28408" y2="0.135339" style="stroke:rgb(246,147,147);stroke-width:0.01" />
<line x1="0.140804" y1="0.00305707" x2="-0.0663005" y2="0.298307" style="stroke:rgb(246,147,147);stroke-width:0.01" />
<line x1="-0.0487432" y1="-0.100137" x2="-0.287738" y2="0.142978" style="stroke:rgb(246,147,147);stroke-width:0.01" />
<line x1="0.0892073" y1="-0.147434" x2="-0.0487432" y2="-0.100137" style="stroke:rgb(246,147,147);stroke-width:0.01" />
<line x1="0.140804" y1="0.00305707" x2="-0.157147" y2="0.234582" style="stroke:rgb(246,147,147);stroke-width:0.01" />
<line x1="0.142941" y1="0.128039" x2="-0.155162" y2="0.235974" style="stroke:rgb(246,147,147);stroke-width:0.01" />
</g>
</svg>
