<svg xmlns="http://www.w3.org/2000/svg" viewBox="-1.5 -1.5 3 3">
<g transform="scale(1, -1)">
<path d="M-8862938119652500307968.000000 -79766443076872497528832.000000 L-8862938119652500307968.000000 -79766443076872497528832.000000 L-8862938119652500307968.000000 -79766443076872497528832.000000 L-8862938119652500307968.000000 -79766443076872497528832.000000 z " fill="rgb(245,195,195)" />
<path d="M0.000000 0.000000 L1.000000 0.000000 L1.000000 1.000000 L0.000000 1.000000  z" fill="none" stroke="rgb(128,128,128)" stroke-width="0.01" />
<line x1="-8.86294e+21" y1="-7.97664e+22" x2="-8.86294e+21" y2="-7.97664e+22" style="stroke:rgb(246,147,147);stroke-width:0.01" />
<line x1="-8.86294e+21" y1="-7.97664e+22" x2="-8.86294e+21" y2="-7.97664e+22" style="stroke:rgb(246,147,147);stroke-width:0.01" />
<line x1="-8.86294e+21" y1="-7.97664e+22" x2="-8.86294e+21" y2="-7.97664e+22" style="stroke:rgb(246,147,147);stroke-width:0.01" />
<line x1="-8.86294e+21" y1="-7.97664e+22" x2="-8.86294e+21" y2="-7.97664e+22" style="stroke:rgb(246,147,147);stroke-width:0.01" />
<line x1="-8.86294e+21" y1="-7.97664e+22" x2="-8.86294e+21" y2="-7.97664e+22" style="stroke:rgb(246,147,147);stroke-width:0.01" />
<line x1="-8.86294e+21" y1="-7.97664e+22" x2="-8.86294e+21" y2="-7.97664e+22" style="stroke:rgb(246,147,147);stroke-width:0.01" />
</g>
</svg>
