<svg xmlns="http://www.w3.org/2000/svg" viewBox="-1.5 -1.5 3 3">
<g transform="scale(1, -1)">
<path d="M2682793332.631929 -530647850.933565 L2682793332.740037 -530647850.618249 L2682793332.532830 -530647850.194826 L2682793332.217515 -530647850.086718 L2682793332.109407 -530647850.402033 L2682793332.424722 -530647850.510141 L2682793332.316614 -530647850.825457 z " fill="rgb(245,195,195)" />
<path d="M0.000000 0.000000 L1.000000 0.000000 L1.000000 1.000000 L0.000000 1.000000  z" fill="none" stroke="rgb(128,128,128)" stroke-width="0.01" />
<line x1="2.68279e+09" y1="-5.30648e+08" x2="2.68279e+09" y2="-5.30648e+08" style="stroke:rgb(246,147,147);stroke-width:0.01" />
<line x1="2.68279e+09" y1="-5.30648e+08" x2="2.68279e+09" y2="-5.30648e+08" style="stroke:rgb(246,147,147);stroke-width:0.01" />
<line x1="2.68279e+09" y1="-5.30648e+08" x2="2.68279e+09" y2="-5.30648e+08" style="stroke:rgb(246,147,147);stroke-width:0.01" />
<line x1="2.68279e+09" y1="-5.30648e+08" x2="2.68279e+09" y2="-5.30648e+08" style="stroke:rgb(246,147,147);stroke-width:0.01" />
<line x1="2.68279e+09" y1="-5.30648e+08" x2="2.68279e+09" y2="-5.30648e+08" style="stroke:rgb(246,147,147);stroke-width:0.01" />
<line x1="2.68279e+09" y1="-5.30648e+08" x2="2.68279e+09" y2="-5.30648e+08" style="stroke:rgb(246,147,147);stroke-width:0.01" />
<line x1="2.68279e+09" y1="-5.30648e+08" x2="2.68279e+09" y2="-5.30648e+08" style="stroke:rgb(246,147,147);stroke-width:0.01" />
</g>
</svg>
