<svg xmlns="http://www.w3.org/2000/svg" viewBox="-1.5 -1.5 3 3">
<g transform="scale(1, -1)">
<path d="M-420439996.008870 1309274616.862213 L-420439995.728870 1309274617.822213 L-420439996.688870 1309274618.102213 L-420439996.462203 1309274617.688879 L-420439996.555536 1309274617.368879 L-420439996.235536 1309274617.275546 z " fill="rgb(245,195,195)" />
<path d="M0.000000 0.000000 L1.000000 0.000000 L1.000000 1.000000 L0.000000 1.000000  z" fill="none" stroke="rgb(128,128,128)" stroke-width="0.01" />
<line x1="-4.2044e+08" y1="1.30927e+09" x2="-4.2044e+08" y2="1.30927e+09" style="stroke:rgb(246,147,147);stroke-width:0.01" />
<line x1="-4.2044e+08" y1="1.30927e+09" x2="-4.2044e+08" y2="1.30927e+09" style="stroke:rgb(246,147,147);stroke-width:0.01" />
<line x1="-4.2044e+08" y1="1.30927e+09" x2="-4.2044e+08" y2="1.30927e+09" style="stroke:rgb(246,147,147);stroke-width:0.01" />
<line x1="-4.2044e+08" y1="1.30927e+09" x2="-4.2044e+08" y2="1.30927e+09" style="stroke:rgb(246,147,147);stroke-width:0.01" />
<line x1="-4.2044e+08" y1="1.30927e+09" x2="-4.2044e+08" y2="1.30927e+09" style="stroke:rgb(246,147,147);stroke-width:0.01" />
<line x1="-4.2044e+08" y1="1.30927e+09" x2="-4.2044e+08" y2="1.30927e+09" style="stroke:rgb(246,147,147);stroke-width:0.01" />
</g>
</svg>
