<svg xmlns="http://www.w3.org/2000/svg" viewBox="-1.5 -1.5 3 3">
<g transform="scale(1, -1)">
<path d="M0.721272 0.966735 L0.846249 0.969137 L0.878044 1.035904 L0.398809 1.729875 L0.319643 1.681771 L0.321279 1.669365 L0.307895 1.658919 L0.325657 1.636161 L0.409909 0.997256 L0.721155 0.972846 z " fill="rgb(245,195,195)" />
<path d="M0.000000 0.000000 L1.000000 0.000000 L1.000000 1.000000 L0.000000 1.000000  z" fill="none" stroke="rgb(128,128,128)" stroke-width="0.01" />
<line x1="0.846249" y1="0.969137" x2="0.878044" y2="1.0359" style="stroke:rgb(246,147,147);stroke-width:0.01" />
<line x1="0.783761" y1="0.967936" x2="0.849534" y2="1.07719" style="stroke:rgb(246,147,147);stroke-width:0.01" />
<line x1="0.409909" y1="0.997256" x2="0.460374" y2="1.64072" style="stroke:rgb(246,147,147);stroke-width:0.01" />
<line x1="0.721272" y1="0.966735" x2="0.715417" y2="1.2714" style="stroke:rgb(246,147,147);stroke-width:0.01" />
<line x1="0.409909" y1="0.997256" x2="0.319643" y2="1.68177" style="stroke:rgb(246,147,147);stroke-width:0.01" />
<line x1="0.783761" y1="0.967936" x2="0.449002" y2="1.49573" style="stroke:rgb(246,147,147);stroke-width:0.01" />
<line x1="0.354687" y1="1.41602" x2="0.526542" y2="1.54491" style="stroke:rgb(246,147,147);stroke-width:0.01" />
<line x1="0.878044" y1="1.0359" x2="0.398809" y2="1.72988" style="stroke:rgb(246,147,147);stroke-width:0.01" />
<line x1="0.846249" y1="0.969137" x2="0.307895" y2="1.65892" style="stroke:rgb(246,147,147);stroke-width:0.01" />
<line x1="0.449002" y1="1.49573" x2="0.526542" y2="1.54491" style="stroke:rgb(246,147,147);stroke-width:0.01" />
<line x1="0.307895" y1="1.65892" x2="0.398809" y2="1.72988" style="stroke:rgb(246,147,147);stroke-width:0.01" />
<line x1="0.409909" y1="0.997256" x2="0.849534" y2="1.07719" style="stroke:rgb(246,147,147);stroke-width:0.01" />
<line x1="0.721272" y1="0.966735" x2="0.846249" y2="0.969137" style="stroke:rgb(246,147,147);stroke-width:0.01" />
<line x1="0.409909" y1="0.997256" x2="0.878044" y2="1.0359" style="stroke:rgb(246,147,147);stroke-width:0.01" />
<line x1="0.783761" y1="0.967936" x2="0.409909" y2="0.997256" style="stroke:rgb(246,147,147);stroke-width:0.01" />
<line x1="0.319643" y1="1.68177" x2="0.398809" y2="1.72988" style="stroke:rgb(246,147,147);stroke-width:0.01" />
<line x1="0.715417" y1="1.2714" x2="0.354687" y2="1.41602" style="stroke:rgb(246,147,147);stroke-width:0.01" />
<line x1="0.460374" y1="1.64072" x2="0.319643" y2="1.68177" style="stroke:rgb(246,147,147);stroke-width:0.01" />
</g>
</svg>
