<svg xmlns="http://www.w3.org/2000/svg" viewBox="-1.5 -1.5 3 3">
<g transform="scale(1, -1)">
<path d="M0.196281 -0.365062 L0.321258 -0.362660 L0.353053 -0.295893 L-0.126182 0.398078 L-0.205348 0.349974 L-0.203712 0.337568 L-0.217096 0.327123 L-0.199334 0.304364 L-0.115083 -0.334541 L0.196164 -0.358951 z " fill="rgb(245,195,195)" />
<path d="M-0.524991 -1.331797 L0.475009 -1.331797 L0.475009 -0.331797 L-0.524991 -0.331797  z" fill="none" stroke="rgb(128,128,128)" stroke-width="0.01" />
<line x1="0.321258" y1="-0.36266" x2="0.353053" y2="-0.295893" style="stroke:rgb(246,147,147);stroke-width:0.01" />
<line x1="0.25877" y1="-0.363861" x2="0.324543" y2="-0.254609" style="stroke:rgb(246,147,147);stroke-width:0.01" />
<line x1="-0.115083" y1="-0.334541" x2="-0.0646174" y2="0.308927" style="stroke:rgb(246,147,147);stroke-width:0.01" />
<line x1="0.196281" y1="-0.365062" x2="0.190426" y2="-0.0603958" style="stroke:rgb(246,147,147);stroke-width:0.01" />
<line x1="-0.115083" y1="-0.334541" x2="-0.205348" y2="0.349974" style="stroke:rgb(246,147,147);stroke-width:0.01" />
<line x1="0.25877" y1="-0.363861" x2="-0.0759892" y2="0.163929" style="stroke:rgb(246,147,147);stroke-width:0.01" />
<line x1="-0.170304" y1="0.0842187" x2="0.00155121" y2="0.21311" style="stroke:rgb(246,147,147);stroke-width:0.01" />
<line x1="0.353053" y1="-0.295893" x2="-0.126182" y2="0.398078" style="stroke:rgb(246,147,147);stroke-width:0.01" />
<line x1="0.321258" y1="-0.36266" x2="-0.217096" y2="0.327123" style="stroke:rgb(246,147,147);stroke-width:0.01" />
<line x1="-0.0759892" y1="0.163929" x2="0.00155121" y2="0.21311" style="stroke:rgb(246,147,147);stroke-width:0.01" />
<line x1="-0.217096" y1="0.327123" x2="-0.126182" y2="0.398078" style="stroke:rgb(246,147,147);stroke-width:0.01" />
<line x1="-0.115083" y1="-0.334541" x2="0.324543" y2="-0.254609" style="stroke:rgb(246,147,147);stroke-width:0.01" />
<line x1="0.196281" y1="-0.365062" x2="0.321258" y2="-0.36266" style="stroke:rgb(246,147,147);stroke-width:0.01" />
<line x1="-0.115083" y1="-0.334541" x2="0.353053" y2="-0.295893" style="stroke:rgb(246,147,147);stroke-width:0.01" />
<line x1="0.25877" y1="-0.363861" x2="-0.115083" y2="-0.334541" style="stroke:rgb(246,147,147);stroke-width:0.01" />
<line x1="-0.205348" y1="0.349974" x2="-0.126182" y2="0.398078" style="stroke:rgb(246,147,147);stroke-width:0.01" />
<line x1="0.190426" y1="-0.0603958" x2="-0.170304" y2="0.0842187" style="stroke:rgb(246,147,147);stroke-width:0.01" />
<line x1="-0.0646174" y1="0.308927" x2="-0.205348" y2="0.349974" style="stroke:rgb(246,147,147);stroke-width:0.01" />
</g>
</svg>
