<svg xmlns="http://www.w3.org/2000/svg" viewBox="-1.5 -1.5 3 3">
<g transform="scale(1, -1)">
<path d="M0.082402 -0.304929 L0.408350 0.046752 L0.364350 0.163752 L0.208350 0.105085 L-0.251650 0.239252 L-0.438442 0.222978 L-0.403937 -0.173078 L0.030577 -0.299811 z " fill="rgb(245,195,195)" />
<path d="M-1.411650 -1.093248 L-0.411650 -1.093248 L-0.411650 -0.093248 L-1.411650 -0.093248  z" fill="none" stroke="rgb(128,128,128)" stroke-width="0.01" />
<line x1="0.0824019" y1="-0.304929" x2="0.40835" y2="0.0467516" style="stroke:rgb(246,147,147);stroke-width:0.01" />
<line x1="-0.194423" y1="-0.234186" x2="-0.0716498" y2="0.186752" style="stroke:rgb(246,147,147);stroke-width:0.01" />
<line x1="-0.21082" y1="-0.229403" x2="-0.182119" y2="-0.191998" style="stroke:rgb(246,147,147);stroke-width:0.01" />
<line x1="-0.374423" y1="-0.181686" x2="-0.25165" y2="0.239252" style="stroke:rgb(246,147,147);stroke-width:0.01" />
<line x1="-0.416744" y1="-0.0260786" x2="-0.25165" y2="0.239252" style="stroke:rgb(246,147,147);stroke-width:0.01" />
<line x1="-0.403937" y1="-0.173078" x2="-0.352275" y2="-0.105748" style="stroke:rgb(246,147,147);stroke-width:0.01" />
<line x1="-0.403937" y1="-0.173078" x2="-0.438442" y2="0.222978" style="stroke:rgb(246,147,147);stroke-width:0.01" />
<line x1="-0.21082" y1="-0.229403" x2="-0.25165" y2="0.239252" style="stroke:rgb(246,147,147);stroke-width:0.01" />
<line x1="-0.192819" y1="-0.205944" x2="-0.199134" y2="-0.183373" style="stroke:rgb(246,147,147);stroke-width:0.01" />
<line x1="-0.273173" y1="-0.211217" x2="-0.199134" y2="-0.183373" style="stroke:rgb(246,147,147);stroke-width:0.01" />
<line x1="-0.243059" y1="-0.22" x2="-0.192819" y2="-0.205944" style="stroke:rgb(246,147,147);stroke-width:0.01" />
<line x1="-0.352275" y1="-0.105748" x2="0.36435" y2="0.163752" style="stroke:rgb(246,147,147);stroke-width:0.01" />
<line x1="0.40835" y1="0.0467516" x2="0.36435" y2="0.163752" style="stroke:rgb(246,147,147);stroke-width:0.01" />
<line x1="-0.273173" y1="-0.211217" x2="-0.352275" y2="-0.105748" style="stroke:rgb(246,147,147);stroke-width:0.01" />
<line x1="0.0824019" y1="-0.304929" x2="-0.25165" y2="0.239252" style="stroke:rgb(246,147,147);stroke-width:0.01" />
<line x1="0.0824019" y1="-0.304929" x2="0.0305768" y2="-0.299811" style="stroke:rgb(246,147,147);stroke-width:0.01" />
<line x1="-0.243059" y1="-0.22" x2="-0.416744" y2="-0.0260786" style="stroke:rgb(246,147,147);stroke-width:0.01" />
<line x1="0.0305768" y1="-0.299811" x2="-0.403937" y2="-0.173078" style="stroke:rgb(246,147,147);stroke-width:0.01" />
<line x1="0.0305768" y1="-0.299811" x2="-0.352275" y2="-0.105748" style="stroke:rgb(246,147,147);stroke-width:0.01" />
<line x1="-0.438442" y1="0.222978" x2="-0.25165" y2="0.239252" style="stroke:rgb(246,147,147);stroke-width:0.01" />
<line x1="0.40835" y1="0.0467516" x2="-0.25165" y2="0.239252" style="stroke:rgb(246,147,147);stroke-width:0.01" />
</g>
</svg>
