<svg xmlns="http://www.w3.org/2000/svg" viewBox="-1.5 -1.5 3 3">
<g transform="scale(1, -1)">
<path d="M1.494052 0.788319 L1.820000 1.140000 L1.776000 1.257000 L1.620000 1.198333 L1.160000 1.332500 L0.973208 1.316226 L1.007712 0.920171 L1.442227 0.793437 z " fill="rgb(245,195,195)" />
<path d="M0.000000 0.000000 L1.000000 0.000000 L1.000000 1.000000 L0.000000 1.000000  z" fill="none" stroke="rgb(128,128,128)" stroke-width="0.01" />
<line x1="1.49405" y1="0.788319" x2="1.82" y2="1.14" style="stroke:rgb(246,147,147);stroke-width:0.01" />
<line x1="1.21723" y1="0.859062" x2="1.34" y2="1.28" style="stroke:rgb(246,147,147);stroke-width:0.01" />
<line x1="1.20083" y1="0.863845" x2="1.22953" y2="0.90125" style="stroke:rgb(246,147,147);stroke-width:0.01" />
<line x1="1.03723" y1="0.911562" x2="1.16" y2="1.3325" style="stroke:rgb(246,147,147);stroke-width:0.01" />
<line x1="0.994906" y1="1.06717" x2="1.16" y2="1.3325" style="stroke:rgb(246,147,147);stroke-width:0.01" />
<line x1="1.00771" y1="0.920171" x2="1.05937" y2="0.9875" style="stroke:rgb(246,147,147);stroke-width:0.01" />
<line x1="1.00771" y1="0.920171" x2="0.973208" y2="1.31623" style="stroke:rgb(246,147,147);stroke-width:0.01" />
<line x1="1.20083" y1="0.863845" x2="1.16" y2="1.3325" style="stroke:rgb(246,147,147);stroke-width:0.01" />
<line x1="1.21883" y1="0.887304" x2="1.21252" y2="0.909875" style="stroke:rgb(246,147,147);stroke-width:0.01" />
<line x1="1.13848" y1="0.882031" x2="1.21252" y2="0.909875" style="stroke:rgb(246,147,147);stroke-width:0.01" />
<line x1="1.16859" y1="0.873248" x2="1.21883" y2="0.887304" style="stroke:rgb(246,147,147);stroke-width:0.01" />
<line x1="1.05937" y1="0.9875" x2="1.776" y2="1.257" style="stroke:rgb(246,147,147);stroke-width:0.01" />
<line x1="1.82" y1="1.14" x2="1.776" y2="1.257" style="stroke:rgb(246,147,147);stroke-width:0.01" />
<line x1="1.13848" y1="0.882031" x2="1.05937" y2="0.9875" style="stroke:rgb(246,147,147);stroke-width:0.01" />
<line x1="1.49405" y1="0.788319" x2="1.16" y2="1.3325" style="stroke:rgb(246,147,147);stroke-width:0.01" />
<line x1="1.49405" y1="0.788319" x2="1.44223" y2="0.793437" style="stroke:rgb(246,147,147);stroke-width:0.01" />
<line x1="1.16859" y1="0.873248" x2="0.994906" y2="1.06717" style="stroke:rgb(246,147,147);stroke-width:0.01" />
<line x1="1.44223" y1="0.793437" x2="1.00771" y2="0.920171" style="stroke:rgb(246,147,147);stroke-width:0.01" />
<line x1="1.44223" y1="0.793437" x2="1.05937" y2="0.9875" style="stroke:rgb(246,147,147);stroke-width:0.01" />
<line x1="0.973208" y1="1.31623" x2="1.16" y2="1.3325" style="stroke:rgb(246,147,147);stroke-width:0.01" />
<line x1="1.82" y1="1.14" x2="1.16" y2="1.3325" style="stroke:rgb(246,147,147);stroke-width:0.01" />
</g>
</svg>
