<svg xmlns="http://www.w3.org/2000/svg" viewBox="-1.5 -1.5 3 3">
<g transform="scale(1, -1)">
<path d="M0.326932 1.431067 L0.477708 1.901272 L0.249706 2.124112 L0.131581 2.083228 L0.186092 1.925728 L0.128225 1.745266 L0.120000 1.740000 L0.054241 1.514539 z " fill="rgb(245,195,195)" />
<path d="M0.000000 0.000000 L1.000000 0.000000 L1.000000 1.000000 L0.000000 1.000000  z" fill="none" stroke="rgb(128,128,128)" stroke-width="0.01" />
<line x1="0.138882" y1="1.48863" x2="0.12" y2="1.74" style="stroke:rgb(246,147,147);stroke-width:0.01" />
<line x1="0.326932" y1="1.43107" x2="0.463432" y2="1.89907" style="stroke:rgb(246,147,147);stroke-width:0.01" />
<line x1="0.146961" y1="1.48616" x2="0.12" y2="1.74" style="stroke:rgb(246,147,147);stroke-width:0.01" />
<line x1="0.326932" y1="1.43107" x2="0.477708" y2="1.90127" style="stroke:rgb(246,147,147);stroke-width:0.01" />
<line x1="0.466127" y1="1.86515" x2="0.463432" y2="1.89907" style="stroke:rgb(246,147,147);stroke-width:0.01" />
<line x1="0.0542406" y1="1.51454" x2="0.12" y2="1.74" style="stroke:rgb(246,147,147);stroke-width:0.01" />
<line x1="0.0542406" y1="1.51454" x2="0.249706" y2="2.12411" style="stroke:rgb(246,147,147);stroke-width:0.01" />
<line x1="0.341535" y1="1.47661" x2="0.131581" y2="2.08323" style="stroke:rgb(246,147,147);stroke-width:0.01" />
<line x1="0.292288" y1="1.44167" x2="0.1875" y2="1.72031" style="stroke:rgb(246,147,147);stroke-width:0.01" />
<line x1="0.138882" y1="1.48863" x2="0.463432" y2="1.89907" style="stroke:rgb(246,147,147);stroke-width:0.01" />
<line x1="0.146961" y1="1.48616" x2="0.466127" y2="1.86515" style="stroke:rgb(246,147,147);stroke-width:0.01" />
<line x1="0.463432" y1="1.89907" x2="0.435822" y2="1.94219" style="stroke:rgb(246,147,147);stroke-width:0.01" />
<line x1="0.292288" y1="1.44167" x2="0.341535" y2="1.47661" style="stroke:rgb(246,147,147);stroke-width:0.01" />
<line x1="0.12" y1="1.74" x2="0.435822" y2="1.94219" style="stroke:rgb(246,147,147);stroke-width:0.01" />
<line x1="0.477708" y1="1.90127" x2="0.249706" y2="2.12411" style="stroke:rgb(246,147,147);stroke-width:0.01" />
<line x1="0.12" y1="1.74" x2="0.463432" y2="1.89907" style="stroke:rgb(246,147,147);stroke-width:0.01" />
<line x1="0.326932" y1="1.43107" x2="0.0542406" y2="1.51454" style="stroke:rgb(246,147,147);stroke-width:0.01" />
<line x1="0.123293" y1="1.69617" x2="0.1875" y2="1.72031" style="stroke:rgb(246,147,147);stroke-width:0.01" />
<line x1="0.387828" y1="1.63985" x2="0.12" y2="1.74" style="stroke:rgb(246,147,147);stroke-width:0.01" />
<line x1="0.39375" y1="1.66016" x2="0.12" y2="1.74" style="stroke:rgb(246,147,147);stroke-width:0.01" />
<line x1="0.387828" y1="1.63985" x2="0.123293" y2="1.69617" style="stroke:rgb(246,147,147);stroke-width:0.01" />
<line x1="0.463432" y1="1.89907" x2="0.477708" y2="1.90127" style="stroke:rgb(246,147,147);stroke-width:0.01" />
<line x1="0.131581" y1="2.08323" x2="0.249706" y2="2.12411" style="stroke:rgb(246,147,147);stroke-width:0.01" />
</g>
</svg>
