<svg xmlns="http://www.w3.org/2000/svg" viewBox="-1.5 -1.5 3 3">
<g transform="scale(1, -1)">
<path d="M0.117622 -0.377085 L0.268397 0.093120 L0.040395 0.315960 L-0.077730 0.275077 L-0.023218 0.117577 L-0.081085 -0.062886 L-0.089311 -0.068152 L-0.155070 -0.293612 z " fill="rgb(245,195,195)" />
<path d="M-0.209311 -1.808152 L0.790689 -1.808152 L0.790689 -0.808152 L-0.209311 -0.808152  z" fill="none" stroke="rgb(128,128,128)" stroke-width="0.01" />
<line x1="-0.0704284" y1="-0.319522" x2="-0.0893107" y2="-0.0681516" style="stroke:rgb(246,147,147);stroke-width:0.01" />
<line x1="0.117622" y1="-0.377085" x2="0.254121" y2="0.0909138" style="stroke:rgb(246,147,147);stroke-width:0.01" />
<line x1="-0.0623501" y1="-0.321994" x2="-0.0893107" y2="-0.0681516" style="stroke:rgb(246,147,147);stroke-width:0.01" />
<line x1="0.117622" y1="-0.377085" x2="0.268397" y2="0.0931203" style="stroke:rgb(246,147,147);stroke-width:0.01" />
<line x1="0.256816" y1="0.0570033" x2="0.254121" y2="0.0909138" style="stroke:rgb(246,147,147);stroke-width:0.01" />
<line x1="-0.15507" y1="-0.293612" x2="-0.0893107" y2="-0.0681516" style="stroke:rgb(246,147,147);stroke-width:0.01" />
<line x1="-0.15507" y1="-0.293612" x2="0.0403953" y2="0.31596" style="stroke:rgb(246,147,147);stroke-width:0.01" />
<line x1="0.132224" y1="-0.331545" x2="-0.0777298" y2="0.275077" style="stroke:rgb(246,147,147);stroke-width:0.01" />
<line x1="0.0829772" y1="-0.36648" x2="-0.0218107" y2="-0.0878391" style="stroke:rgb(246,147,147);stroke-width:0.01" />
<line x1="-0.0704284" y1="-0.319522" x2="0.254121" y2="0.0909138" style="stroke:rgb(246,147,147);stroke-width:0.01" />
<line x1="-0.0623501" y1="-0.321994" x2="0.256816" y2="0.0570033" style="stroke:rgb(246,147,147);stroke-width:0.01" />
<line x1="0.254121" y1="0.0909138" x2="0.226511" y2="0.13404" style="stroke:rgb(246,147,147);stroke-width:0.01" />
<line x1="0.0829772" y1="-0.36648" x2="0.132224" y2="-0.331545" style="stroke:rgb(246,147,147);stroke-width:0.01" />
<line x1="-0.0893107" y1="-0.0681516" x2="0.226511" y2="0.13404" style="stroke:rgb(246,147,147);stroke-width:0.01" />
<line x1="0.268397" y1="0.0931203" x2="0.0403953" y2="0.31596" style="stroke:rgb(246,147,147);stroke-width:0.01" />
<line x1="-0.0893107" y1="-0.0681516" x2="0.254121" y2="0.0909138" style="stroke:rgb(246,147,147);stroke-width:0.01" />
<line x1="0.117622" y1="-0.377085" x2="-0.15507" y2="-0.293612" style="stroke:rgb(246,147,147);stroke-width:0.01" />
<line x1="-0.086018" y1="-0.111985" x2="-0.0218107" y2="-0.0878391" style="stroke:rgb(246,147,147);stroke-width:0.01" />
<line x1="0.178517" y1="-0.168301" x2="-0.0893107" y2="-0.0681516" style="stroke:rgb(246,147,147);stroke-width:0.01" />
<line x1="0.184439" y1="-0.147995" x2="-0.0893107" y2="-0.0681516" style="stroke:rgb(246,147,147);stroke-width:0.01" />
<line x1="0.178517" y1="-0.168301" x2="-0.086018" y2="-0.111985" style="stroke:rgb(246,147,147);stroke-width:0.01" />
<line x1="0.254121" y1="0.0909138" x2="0.268397" y2="0.0931203" style="stroke:rgb(246,147,147);stroke-width:0.01" />
<line x1="-0.0777298" y1="0.275077" x2="0.0403953" y2="0.31596" style="stroke:rgb(246,147,147);stroke-width:0.01" />
</g>
</svg>
