<svg xmlns="http://www.w3.org/2000/svg" viewBox="-1 -1 3 3">
<path d="M0.571429 0.428571 L0.714286 0.428571 L0.928571 0.571429 L1.142857 0.571429 L1.142857 0.714286 L1.000000 0.928571 L1.000000 1.142857 L0.857143 1.142857 L0.642857 1.000000 L0.428571 1.000000 L0.428571 0.857143 L0.571429 0.642857 z " fill="rgb(245,195,195)" />
<path d="M0 0 L0 1 L1 1 L1 0 z" fill="none" stroke="rgb(128,128,128)" stroke-width="0.01" />
<line x1="0.714286" y1="0.428571" x2="1.14286" y2="0.714286" style="stroke:rgb(246,147,147);stroke-width:0.01" />
<line x1="0.428571" y1="0.857143" x2="0.428571" y2="1" style="stroke:rgb(246,147,147);stroke-width:0.01" />
<line x1="0.571429" y1="0.428571" x2="0.571429" y2="1" style="stroke:rgb(246,147,147);stroke-width:0.01" />
<line x1="0.714286" y1="0.428571" x2="0.714286" y2="1" style="stroke:rgb(246,147,147);stroke-width:0.01" />
<line x1="0.857143" y1="0.571429" x2="0.857143" y2="1.14286" style="stroke:rgb(246,147,147);stroke-width:0.01" />
<line x1="1" y1="0.571429" x2="1" y2="1.14286" style="stroke:rgb(246,147,147);stroke-width:0.01" />
<line x1="1.14286" y1="0.571429" x2="1.14286" y2="0.714286" style="stroke:rgb(246,147,147);stroke-width:0.01" />
<line x1="0.428571" y1="0.857143" x2="0.857143" y2="1.14286" style="stroke:rgb(246,147,147);stroke-width:0.01" />
<line x1="0.571429" y1="0.428571" x2="0.714286" y2="0.428571" style="stroke:rgb(246,147,147);stroke-width:0.01" />
<line x1="0.714286" y1="0.428571" x2="0.428571" y2="0.857143" style="stroke:rgb(246,147,147);stroke-width:0.01" />
<line x1="0.571429" y1="0.571429" x2="1.14286" y2="0.571429" style="stroke:rgb(246,147,147);stroke-width:0.01" />
<line x1="0.571429" y1="0.714286" x2="1.14286" y2="0.714286" style="stroke:rgb(246,147,147);stroke-width:0.01" />
<line x1="1.14286" y1="0.714286" x2="0.857143" y2="1.14286" style="stroke:rgb(246,147,147);stroke-width:0.01" />
<line x1="0.428571" y1="0.857143" x2="1" y2="0.857143" style="stroke:rgb(246,147,147);stroke-width:0.01" />
<line x1="0.428571" y1="1" x2="1" y2="1" style="stroke:rgb(246,147,147);stroke-width:0.01" />
<line x1="0.857143" y1="1.14286" x2="1" y2="1.14286" style="stroke:rgb(246,147,147);stroke-width:0.01" />
</svg>
