<svg xmlns="http://www.w3.org/2000/svg" viewBox="-1.5 -1.5 3 3">
<g transform="scale(1, -1)">
<path d="M1368485026.652986 818320145.577592 L1368485027.295322 818320146.344015 L1368485026.528898 818320146.986351 L1368485026.570261 818320146.516765 L1368485026.356149 818320146.261290 L1368485026.611624 818320146.047178 z " fill="rgb(245,195,195)" />
<path d="M0.000000 0.000000 L1.000000 0.000000 L1.000000 1.000000 L0.000000 1.000000  z" fill="none" stroke="rgb(128,128,128)" stroke-width="0.01" />
<line x1="1.36849e+09" y1="8.1832e+08" x2="1.36849e+09" y2="8.1832e+08" style="stroke:rgb(246,147,147);stroke-width:0.01" />
<line x1="1.36849e+09" y1="8.1832e+08" x2="1.36849e+09" y2="8.1832e+08" style="stroke:rgb(246,147,147);stroke-width:0.01" />
<line x1="1.36849e+09" y1="8.1832e+08" x2="1.36849e+09" y2="8.1832e+08" style="stroke:rgb(246,147,147);stroke-width:0.01" />
<line x1="1.36849e+09" y1="8.1832e+08" x2="1.36849e+09" y2="8.1832e+08" style="stroke:rgb(246,147,147);stroke-width:0.01" />
<line x1="1.36849e+09" y1="8.1832e+08" x2="1.36849e+09" y2="8.1832e+08" style="stroke:rgb(246,147,147);stroke-width:0.01" />
<line x1="1.36849e+09" y1="8.1832e+08" x2="1.36849e+09" y2="8.1832e+08" style="stroke:rgb(246,147,147);stroke-width:0.01" />
</g>
</svg>
