<svg xmlns="http://www.w3.org/2000/svg" viewBox="-1.5 -1.5 3 3">
<g transform="scale(1, -1)">
<path d="M-541639663.209188 1461353649.870644 L-541639662.979303 1461353650.112023 L-541639662.990797 1461353650.583288 L-541639663.232176 1461353650.813173 L-541639663.462061 1461353650.571793 L-541639663.220682 1461353650.341908 L-541639663.450567 1461353650.100529 z " fill="rgb(245,195,195)" />
<path d="M0.000000 0.000000 L1.000000 0.000000 L1.000000 1.000000 L0.000000 1.000000  z" fill="none" stroke="rgb(128,128,128)" stroke-width="0.01" />
<line x1="-5.4164e+08" y1="1.46135e+09" x2="-5.4164e+08" y2="1.46135e+09" style="stroke:rgb(246,147,147);stroke-width:0.01" />
<line x1="-5.4164e+08" y1="1.46135e+09" x2="-5.4164e+08" y2="1.46135e+09" style="stroke:rgb(246,147,147);stroke-width:0.01" />
<line x1="-5.4164e+08" y1="1.46135e+09" x2="-5.4164e+08" y2="1.46135e+09" style="stroke:rgb(246,147,147);stroke-width:0.01" />
<line x1="-5.4164e+08" y1="1.46135e+09" x2="-5.4164e+08" y2="1.46135e+09" style="stroke:rgb(246,147,147);stroke-width:0.01" />
<line x1="-5.4164e+08" y1="1.46135e+09" x2="-5.4164e+08" y2="1.46135e+09" style="stroke:rgb(246,147,147);stroke-width:0.01" />
<line x1="-5.4164e+08" y1="1.46135e+09" x2="-5.4164e+08" y2="1.46135e+09" style="stroke:rgb(246,147,147);stroke-width:0.01" />
<line x1="-5.4164e+08" y1="1.46135e+09" x2="-5.4164e+08" y2="1.46135e+09" style="stroke:rgb(246,147,147);stroke-width:0.01" />
</g>
</svg>
