<svg xmlns="http://www.w3.org/2000/svg" viewBox="-1.5 -1.5 3 3">
<g transform="scale(1, -1)">
<path d="M262499404.209751 987925089.531974 L262499404.561751 987925090.467974 L262499403.625751 987925090.819974 L262499403.820418 987925090.390640 L262499403.703084 987925090.078640 L262499404.015085 987925089.961307 z " fill="rgb(245,195,195)" />
<path d="M0.000000 0.000000 L1.000000 0.000000 L1.000000 1.000000 L0.000000 1.000000  z" fill="none" stroke="rgb(128,128,128)" stroke-width="0.01" />
<line x1="2.62499e+08" y1="9.87925e+08" x2="2.62499e+08" y2="9.87925e+08" style="stroke:rgb(246,147,147);stroke-width:0.01" />
<line x1="2.62499e+08" y1="9.87925e+08" x2="2.62499e+08" y2="9.87925e+08" style="stroke:rgb(246,147,147);stroke-width:0.01" />
<line x1="2.62499e+08" y1="9.87925e+08" x2="2.62499e+08" y2="9.87925e+08" style="stroke:rgb(246,147,147);stroke-width:0.01" />
<line x1="2.62499e+08" y1="9.87925e+08" x2="2.62499e+08" y2="9.87925e+08" style="stroke:rgb(246,147,147);stroke-width:0.01" />
<line x1="2.62499e+08" y1="9.87925e+08" x2="2.62499e+08" y2="9.87925e+08" style="stroke:rgb(246,147,147);stroke-width:0.01" />
<line x1="2.62499e+08" y1="9.87925e+08" x2="2.62499e+08" y2="9.87925e+08" style="stroke:rgb(246,147,147);stroke-width:0.01" />
</g>
</svg>
