<svg xmlns="http://www.w3.org/2000/svg" viewBox="-1.5 -1.5 3 3">
<g transform="scale(1, -1)">
<path d="M1527493419.005606 -659053129.376530 L1527493419.155607 -659053129.176530 L1527493419.405607 -659053129.176530 L1527493419.405607 -659053128.843197 L1527493419.605606 -659053128.576530 L1527493419.405607 -659053128.426530 L1527493418.405607 -659053128.926530 L1527493418.405607 -659053129.176530 L1527493418.738940 -659053129.176530 z " fill="rgb(245,195,195)" />
<path d="M0.000000 0.000000 L1.000000 0.000000 L1.000000 1.000000 L0.000000 1.000000  z" fill="none" stroke="rgb(128,128,128)" stroke-width="0.01" />
<line x1="1.52749e+09" y1="-6.59053e+08" x2="1.52749e+09" y2="-6.59053e+08" style="stroke:rgb(246,147,147);stroke-width:0.01" />
<line x1="1.52749e+09" y1="-6.59053e+08" x2="1.52749e+09" y2="-6.59053e+08" style="stroke:rgb(246,147,147);stroke-width:0.01" />
<line x1="1.52749e+09" y1="-6.59053e+08" x2="1.52749e+09" y2="-6.59053e+08" style="stroke:rgb(246,147,147);stroke-width:0.01" />
<line x1="1.52749e+09" y1="-6.59053e+08" x2="1.52749e+09" y2="-6.59053e+08" style="stroke:rgb(246,147,147);stroke-width:0.01" />
<line x1="1.52749e+09" y1="-6.59053e+08" x2="1.52749e+09" y2="-6.59053e+08" style="stroke:rgb(246,147,147);stroke-width:0.01" />
<line x1="1.52749e+09" y1="-6.59053e+08" x2="1.52749e+09" y2="-6.59053e+08" style="stroke:rgb(246,147,147);stroke-width:0.01" />
<line x1="1.52749e+09" y1="-6.59053e+08" x2="1.52749e+09" y2="-6.59053e+08" style="stroke:rgb(246,147,147);stroke-width:0.01" />
</g>
</svg>
