<svg xmlns="http://www.w3.org/2000/svg" viewBox="-1.5 -1.5 3 3">
<g transform="scale(1, -1)">
<path d="M-1837004527151.736816 -790832198225.759644 L-1837004527150.818359 -790832198225.364258 L-1837004527151.213867 -790832198224.445679 L-1837004527151.344727 -790832198224.774170 L-1837004527151.803955 -790832198224.971924 L-1837004527151.606201 -790832198225.431152 z " fill="rgb(245,195,195)" />
<path d="M0.000000 0.000000 L1.000000 0.000000 L1.000000 1.000000 L0.000000 1.000000  z" fill="none" stroke="rgb(128,128,128)" stroke-width="0.01" />
<line x1="-1.837e+12" y1="-7.90832e+11" x2="-1.837e+12" y2="-7.90832e+11" style="stroke:rgb(246,147,147);stroke-width:0.01" />
<line x1="-1.837e+12" y1="-7.90832e+11" x2="-1.837e+12" y2="-7.90832e+11" style="stroke:rgb(246,147,147);stroke-width:0.01" />
<line x1="-1.837e+12" y1="-7.90832e+11" x2="-1.837e+12" y2="-7.90832e+11" style="stroke:rgb(246,147,147);stroke-width:0.01" />
<line x1="-1.837e+12" y1="-7.90832e+11" x2="-1.837e+12" y2="-7.90832e+11" style="stroke:rgb(246,147,147);stroke-width:0.01" />
<line x1="-1.837e+12" y1="-7.90832e+11" x2="-1.837e+12" y2="-7.90832e+11" style="stroke:rgb(246,147,147);stroke-width:0.01" />
<line x1="-1.837e+12" y1="-7.90832e+11" x2="-1.837e+12" y2="-7.90832e+11" style="stroke:rgb(246,147,147);stroke-width:0.01" />
</g>
</svg>
