<svg xmlns="http://www.w3.org/2000/svg" viewBox="-1.5 -1.5 3 3">
<g transform="scale(1, -1)">
<path d="M0.000000 0.000000 L0.900000 0.000000 L0.900000 0.047619 L0.952381 0.047619 L0.952381 0.947619 L0.900000 0.947619 L0.000000 0.047619 z " fill="rgb(245,195,195)" />
<path d="M0.000000 0.000000 L1.000000 0.000000 L1.000000 1.000000 L0.000000 1.000000  z" fill="none" stroke="rgb(128,128,128)" stroke-width="0.01" />
<line x1="0" y1="0" x2="0.9" y2="0" style="stroke:rgb(246,147,147);stroke-width:0.01" />
<line x1="0" y1="0" x2="0" y2="0.047619" style="stroke:rgb(246,147,147);stroke-width:0.01" />
<line x1="0.8" y1="0" x2="0.8" y2="0.847619" style="stroke:rgb(246,147,147);stroke-width:0.01" />
<line x1="0.9" y1="0" x2="0.9" y2="0.947619" style="stroke:rgb(246,147,147);stroke-width:0.01" />
<line x1="0.952381" y1="0.047619" x2="0.952381" y2="0.947619" style="stroke:rgb(246,147,147);stroke-width:0.01" />
<line x1="0" y1="0.047619" x2="0.9" y2="0.947619" style="stroke:rgb(246,147,147);stroke-width:0.01" />
<line x1="0" y1="0.047619" x2="0.952381" y2="0.047619" style="stroke:rgb(246,147,147);stroke-width:0.01" />
<line x1="0.8" y1="0.847619" x2="0.952381" y2="0.847619" style="stroke:rgb(246,147,147);stroke-width:0.01" />
<line x1="0.9" y1="0.947619" x2="0.952381" y2="0.947619" style="stroke:rgb(246,147,147);stroke-width:0.01" />
</g>
</svg>
