<svg xmlns="http://www.w3.org/2000/svg" viewBox="-1.5 -1.5 3 3">
<g transform="scale(1, -1)">
<path d="M0.029383 -0.243984 L0.145191 -0.026842 L0.223316 0.031752 L0.223316 0.119642 L-0.128246 0.207533 L-0.221996 0.098158 L-0.146169 -0.008690 L-0.089184 0.031752 L-0.035612 -0.209320 z " fill="rgb(245,195,195)" />
<path d="M-0.701684 -0.718248 L0.298316 -0.718248 L0.298316 0.281752 L-0.701684 0.281752  z" fill="none" stroke="rgb(128,128,128)" stroke-width="0.01" />
<line x1="0.0293826" y1="-0.243984" x2="0.223316" y2="0.119642" style="stroke:rgb(246,147,147);stroke-width:0.01" />
<line x1="0.0367355" y1="0.035428" x2="0.0983164" y2="0.150892" style="stroke:rgb(246,147,147);stroke-width:0.01" />
<line x1="-0.0356122" y1="-0.20932" x2="0.145191" y2="0.0317515" style="stroke:rgb(246,147,147);stroke-width:0.01" />
<line x1="0.0983164" y1="-0.0619985" x2="0.0983164" y2="0.150892" style="stroke:rgb(246,147,147);stroke-width:0.01" />
<line x1="0.223316" y1="0.0317515" x2="0.223316" y2="0.119642" style="stroke:rgb(246,147,147);stroke-width:0.01" />
<line x1="-0.107041" y1="0.112109" x2="-0.0501211" y2="0.188002" style="stroke:rgb(246,147,147);stroke-width:0.01" />
<line x1="0.0983164" y1="-0.0619985" x2="0.223316" y2="0.0317515" style="stroke:rgb(246,147,147);stroke-width:0.01" />
<line x1="-0.221996" y1="0.0981578" x2="-0.128246" y2="0.207533" style="stroke:rgb(246,147,147);stroke-width:0.01" />
<line x1="-0.0321983" y1="0.0721927" x2="-0.0501211" y2="0.188002" style="stroke:rgb(246,147,147);stroke-width:0.01" />
<line x1="-0.0356122" y1="-0.20932" x2="-0.128246" y2="0.207533" style="stroke:rgb(246,147,147);stroke-width:0.01" />
<line x1="-0.146169" y1="-0.00868967" x2="0.0838075" y2="0.154519" style="stroke:rgb(246,147,147);stroke-width:0.01" />
<line x1="-0.0891836" y1="0.0317515" x2="0.142187" y2="0.139925" style="stroke:rgb(246,147,147);stroke-width:0.01" />
<line x1="0.145191" y1="0.0317515" x2="0.0838075" y2="0.154519" style="stroke:rgb(246,147,147);stroke-width:0.01" />
<line x1="-0.146169" y1="-0.00868967" x2="-0.221996" y2="0.0981578" style="stroke:rgb(246,147,147);stroke-width:0.01" />
<line x1="-0.0891836" y1="0.0317515" x2="-0.177725" y2="0.149807" style="stroke:rgb(246,147,147);stroke-width:0.01" />
<line x1="0.0293826" y1="-0.243984" x2="-0.0356122" y2="-0.20932" style="stroke:rgb(246,147,147);stroke-width:0.01" />
<line x1="0.223316" y1="0.0317515" x2="0.142187" y2="0.139925" style="stroke:rgb(246,147,147);stroke-width:0.01" />
<line x1="-0.0891836" y1="0.0317515" x2="0.223316" y2="0.0317515" style="stroke:rgb(246,147,147);stroke-width:0.01" />
<line x1="0.0983164" y1="-0.0619985" x2="-0.221996" y2="0.0981578" style="stroke:rgb(246,147,147);stroke-width:0.01" />
<line x1="0.0367355" y1="0.035428" x2="-0.177725" y2="0.149807" style="stroke:rgb(246,147,147);stroke-width:0.01" />
<line x1="0.223316" y1="0.119642" x2="-0.128246" y2="0.207533" style="stroke:rgb(246,147,147);stroke-width:0.01" />
</g>
</svg>
