<svg xmlns="http://www.w3.org/2000/svg" viewBox="-1.5 -1.5 3 3">
<g transform="scale(1, -1)">
<path d="M0.396450 -0.308796 L0.499300 -0.190883 L0.434431 0.060593 L0.252587 0.051693 L0.229733 0.108959 L-0.185734 0.387145 L-0.432802 0.018151 L-0.585429 0.010682 L-0.608537 -0.137545 z " fill="rgb(245,195,195)" />
<path d="M0.623433 -1.796717 L1.623433 -1.796717 L1.623433 -0.796717 L0.623433 -0.796717  z" fill="none" stroke="rgb(128,128,128)" stroke-width="0.01" />
<line x1="-0.544373" y1="-0.148478" x2="-0.585429" y2="0.0106818" style="stroke:rgb(246,147,147);stroke-width:0.01" />
<line x1="0.4993" y1="-0.190883" x2="0.434431" y2="0.0605925" style="stroke:rgb(246,147,147);stroke-width:0.01" />
<line x1="0.377352" y1="-0.305542" x2="0.434431" y2="0.0605925" style="stroke:rgb(246,147,147);stroke-width:0.01" />
<line x1="0.145346" y1="-0.266008" x2="0.158755" y2="-0.151133" style="stroke:rgb(246,147,147);stroke-width:0.01" />
<line x1="0.377352" y1="-0.305542" x2="0.382241" y2="-0.279111" style="stroke:rgb(246,147,147);stroke-width:0.01" />
<line x1="0.39645" y1="-0.308796" x2="0.229733" y2="0.108959" style="stroke:rgb(246,147,147);stroke-width:0.01" />
<line x1="0.145346" y1="-0.266008" x2="0.229733" y2="0.108959" style="stroke:rgb(246,147,147);stroke-width:0.01" />
<line x1="-0.608537" y1="-0.137545" x2="-0.585429" y2="0.0106818" style="stroke:rgb(246,147,147);stroke-width:0.01" />
<line x1="-0.608537" y1="-0.137545" x2="-0.601078" y2="-0.09722" style="stroke:rgb(246,147,147);stroke-width:0.01" />
<line x1="0.39645" y1="-0.308796" x2="0.4993" y2="-0.190883" style="stroke:rgb(246,147,147);stroke-width:0.01" />
<line x1="-0.544373" y1="-0.148478" x2="-0.185734" y2="0.387145" style="stroke:rgb(246,147,147);stroke-width:0.01" />
<line x1="0.229733" y1="0.108959" x2="-0.185734" y2="0.387145" style="stroke:rgb(246,147,147);stroke-width:0.01" />
<line x1="0.39645" y1="-0.308796" x2="-0.608537" y2="-0.137545" style="stroke:rgb(246,147,147);stroke-width:0.01" />
<line x1="0.382241" y1="-0.279111" x2="-0.601078" y2="-0.09722" style="stroke:rgb(246,147,147);stroke-width:0.01" />
<line x1="0.4993" y1="-0.190883" x2="0.158755" y2="-0.151133" style="stroke:rgb(246,147,147);stroke-width:0.01" />
<line x1="-0.585429" y1="0.0106818" x2="0.434431" y2="0.0605925" style="stroke:rgb(246,147,147);stroke-width:0.01" />
</g>
</svg>
