<svg xmlns="http://www.w3.org/2000/svg" viewBox="-1.5 -1.5 3 3">
<g transform="scale(1, -1)">
<path d="M-0.659006 -0.288199 L0.240994 -0.288199 L0.240994 -0.244720 L0.297516 -0.244720 L0.297516 0.655280 L0.240994 0.655280 L-0.659006 -0.244720 z " fill="rgb(245,195,195)" />
<path d="M-0.659006 -0.288199 L0.340994 -0.288199 L0.340994 0.711801 L-0.659006 0.711801  z" fill="none" stroke="rgb(128,128,128)" stroke-width="0.01" />
<line x1="-0.659006" y1="-0.288199" x2="0.240994" y2="-0.288199" style="stroke:rgb(246,147,147);stroke-width:0.01" />
<line x1="-0.659006" y1="-0.288199" x2="-0.659006" y2="-0.24472" style="stroke:rgb(246,147,147);stroke-width:0.01" />
<line x1="0.140994" y1="-0.288199" x2="0.140994" y2="0.55528" style="stroke:rgb(246,147,147);stroke-width:0.01" />
<line x1="0.240994" y1="-0.288199" x2="0.240994" y2="0.65528" style="stroke:rgb(246,147,147);stroke-width:0.01" />
<line x1="0.297516" y1="-0.24472" x2="0.297516" y2="0.65528" style="stroke:rgb(246,147,147);stroke-width:0.01" />
<line x1="-0.659006" y1="-0.24472" x2="0.240994" y2="0.65528" style="stroke:rgb(246,147,147);stroke-width:0.01" />
<line x1="-0.659006" y1="-0.24472" x2="0.297516" y2="-0.24472" style="stroke:rgb(246,147,147);stroke-width:0.01" />
<line x1="0.140994" y1="0.55528" x2="0.297516" y2="0.55528" style="stroke:rgb(246,147,147);stroke-width:0.01" />
<line x1="0.240994" y1="0.65528" x2="0.297516" y2="0.65528" style="stroke:rgb(246,147,147);stroke-width:0.01" />
</g>
</svg>
