<svg xmlns="http://www.w3.org/2000/svg" viewBox="-1.5 -1.5 3 3">
<g transform="scale(1, -1)">
<path d="M0.000000 0.000000 L0.900000 0.000000 L0.900000 0.043478 L0.956522 0.043478 L0.956522 0.943478 L0.900000 0.943478 L0.000000 0.043478 z " fill="rgb(245,195,195)" />
<path d="M0.000000 0.000000 L1.000000 0.000000 L1.000000 1.000000 L0.000000 1.000000  z" fill="none" stroke="rgb(128,128,128)" stroke-width="0.01" />
<line x1="0" y1="0" x2="0.9" y2="0" style="stroke:rgb(246,147,147);stroke-width:0.01" />
<line x1="0" y1="0" x2="0" y2="0.0434783" style="stroke:rgb(246,147,147);stroke-width:0.01" />
<line x1="0.8" y1="0" x2="0.8" y2="0.843478" style="stroke:rgb(246,147,147);stroke-width:0.01" />
<line x1="0.9" y1="0" x2="0.9" y2="0.943478" style="stroke:rgb(246,147,147);stroke-width:0.01" />
<line x1="0.956522" y1="0.0434783" x2="0.956522" y2="0.943478" style="stroke:rgb(246,147,147);stroke-width:0.01" />
<line x1="0" y1="0.0434783" x2="0.9" y2="0.943478" style="stroke:rgb(246,147,147);stroke-width:0.01" />
<line x1="0" y1="0.0434783" x2="0.956522" y2="0.0434783" style="stroke:rgb(246,147,147);stroke-width:0.01" />
<line x1="0.8" y1="0.843478" x2="0.956522" y2="0.843478" style="stroke:rgb(246,147,147);stroke-width:0.01" />
<line x1="0.9" y1="0.943478" x2="0.956522" y2="0.943478" style="stroke:rgb(246,147,147);stroke-width:0.01" />
</g>
</svg>
