<svg xmlns="http://www.w3.org/2000/svg" viewBox="-1.5 -1.5 3 3">
<g transform="scale(1, -1)">
<path d="M-0.023997 -0.381177 L0.093799 -0.329117 L0.292009 0.218713 L0.198323 0.291158 L0.136100 0.224340 L-0.186419 0.235982 L-0.308494 0.028824 L-0.093109 -0.098099 L-0.108213 -0.190624 z " fill="rgb(245,195,195)" />
<path d="M0.545352 -0.240407 L1.545352 -0.240407 L1.545352 0.759593 L0.545352 0.759593  z" fill="none" stroke="rgb(128,128,128)" stroke-width="0.01" />
<line x1="-0.023997" y1="-0.381177" x2="-0.108213" y2="-0.190624" style="stroke:rgb(246,147,147);stroke-width:0.01" />
<line x1="0.0937995" y1="-0.329117" x2="-0.186419" y2="0.235982" style="stroke:rgb(246,147,147);stroke-width:0.01" />
<line x1="0.129847" y1="-0.229484" x2="-0.308494" y2="0.0288242" style="stroke:rgb(246,147,147);stroke-width:0.01" />
<line x1="0.14587" y1="-0.185198" x2="-0.071113" y2="0.00345253" style="stroke:rgb(246,147,147);stroke-width:0.01" />
<line x1="0.211515" y1="-0.00376499" x2="0.0977161" y2="0.225726" style="stroke:rgb(246,147,147);stroke-width:0.01" />
<line x1="0.129847" y1="-0.229484" x2="-0.108213" y2="-0.190624" style="stroke:rgb(246,147,147);stroke-width:0.01" />
<line x1="0.23799" y1="0.0694099" x2="0.121394" y2="0.224871" style="stroke:rgb(246,147,147);stroke-width:0.01" />
<line x1="-0.0665555" y1="-0.189735" x2="-0.0678899" y2="-0.127249" style="stroke:rgb(246,147,147);stroke-width:0.01" />
<line x1="-0.108213" y1="-0.190624" x2="0.14587" y2="-0.185198" style="stroke:rgb(246,147,147);stroke-width:0.01" />
<line x1="-0.023997" y1="-0.381177" x2="0.0937995" y2="-0.329117" style="stroke:rgb(246,147,147);stroke-width:0.01" />
<line x1="-0.108213" y1="-0.190624" x2="-0.0780058" y2="-0.00557343" style="stroke:rgb(246,147,147);stroke-width:0.01" />
<line x1="0.0937995" y1="-0.329117" x2="0.292009" y2="0.218713" style="stroke:rgb(246,147,147);stroke-width:0.01" />
<line x1="0.292009" y1="0.218713" x2="0.198323" y2="0.291158" style="stroke:rgb(246,147,147);stroke-width:0.01" />
<line x1="-0.108213" y1="-0.190624" x2="0.198323" y2="0.291158" style="stroke:rgb(246,147,147);stroke-width:0.01" />
<line x1="-0.0931093" y1="-0.0980988" x2="0.0977161" y2="0.225726" style="stroke:rgb(246,147,147);stroke-width:0.01" />
<line x1="-0.0678899" y1="-0.127249" x2="0.211515" y2="-0.00376499" style="stroke:rgb(246,147,147);stroke-width:0.01" />
<line x1="-0.0780058" y1="-0.00557343" x2="0.23799" y2="0.0694099" style="stroke:rgb(246,147,147);stroke-width:0.01" />
<line x1="-0.071113" y1="0.00345253" x2="0.121394" y2="0.224871" style="stroke:rgb(246,147,147);stroke-width:0.01" />
<line x1="-0.0780058" y1="-0.00557343" x2="0.198323" y2="0.291158" style="stroke:rgb(246,147,147);stroke-width:0.01" />
<line x1="-0.308494" y1="0.0288242" x2="-0.186419" y2="0.235982" style="stroke:rgb(246,147,147);stroke-width:0.01" />
<line x1="0.292009" y1="0.218713" x2="-0.186419" y2="0.235982" style="stroke:rgb(246,147,147);stroke-width:0.01" />
</g>
</svg>
