<svg xmlns="http://www.w3.org/2000/svg" viewBox="-1.5 -1.5 3 3">
<g transform="scale(1, -1)">
<path d="M0.837641 0.335686 L0.857662 0.341709 L1.023032 0.592015 L0.950863 0.639695 L1.093242 0.809577 L1.019256 1.219622 L0.276053 1.085523 L0.188681 1.143248 L0.133558 1.059813 L0.332685 0.757685 z " fill="rgb(245,195,195)" />
<path d="M0.000000 0.000000 L1.000000 0.000000 L1.000000 1.000000 L0.000000 1.000000  z" fill="none" stroke="rgb(128,128,128)" stroke-width="0.01" />
<line x1="0.857662" y1="0.341709" x2="1.02303" y2="0.592015" style="stroke:rgb(246,147,147);stroke-width:0.01" />
<line x1="0.754386" y1="0.405263" x2="0.860068" y2="0.532082" style="stroke:rgb(246,147,147);stroke-width:0.01" />
<line x1="0.754386" y1="0.405263" x2="1.09324" y2="0.809577" style="stroke:rgb(246,147,147);stroke-width:0.01" />
<line x1="0.837641" y1="0.335686" x2="0.860068" y2="0.532082" style="stroke:rgb(246,147,147);stroke-width:0.01" />
<line x1="0.509346" y1="0.610047" x2="0.50991" y2="0.811214" style="stroke:rgb(246,147,147);stroke-width:0.01" />
<line x1="0.837641" y1="0.335686" x2="0.857662" y2="0.341709" style="stroke:rgb(246,147,147);stroke-width:0.01" />
<line x1="1.09324" y1="0.809577" x2="1.01926" y2="1.21962" style="stroke:rgb(246,147,147);stroke-width:0.01" />
<line x1="0.133558" y1="1.05981" x2="0.188681" y2="1.14325" style="stroke:rgb(246,147,147);stroke-width:0.01" />
<line x1="0.332685" y1="0.757685" x2="0.133558" y2="1.05981" style="stroke:rgb(246,147,147);stroke-width:0.01" />
<line x1="0.802153" y1="0.365343" x2="0.627273" y2="0.631667" style="stroke:rgb(246,147,147);stroke-width:0.01" />
<line x1="0.509346" y1="0.610047" x2="0.627273" y2="0.631667" style="stroke:rgb(246,147,147);stroke-width:0.01" />
<line x1="0.857662" y1="0.341709" x2="0.802153" y2="0.365343" style="stroke:rgb(246,147,147);stroke-width:0.01" />
<line x1="0.837641" y1="0.335686" x2="0.332685" y2="0.757685" style="stroke:rgb(246,147,147);stroke-width:0.01" />
<line x1="0.860068" y1="0.532082" x2="0.332685" y2="0.757685" style="stroke:rgb(246,147,147);stroke-width:0.01" />
<line x1="1.09324" y1="0.809577" x2="0.50991" y2="0.811214" style="stroke:rgb(246,147,147);stroke-width:0.01" />
<line x1="1.02303" y1="0.592015" x2="0.188681" y2="1.14325" style="stroke:rgb(246,147,147);stroke-width:0.01" />
<line x1="0.133558" y1="1.05981" x2="1.01926" y2="1.21962" style="stroke:rgb(246,147,147);stroke-width:0.01" />
</g>
</svg>
