<svg xmlns="http://www.w3.org/2000/svg" viewBox="-1.5 -1.5 3 3">
<g transform="scale(1, -1)">
<path d="M-0.102336 -0.349200 L0.190492 -0.316312 L0.295469 -0.052039 L0.156052 0.228737 L0.155818 0.228621 L0.082361 0.393277 L-0.192984 0.422383 L-0.218499 0.181007 L-0.214992 0.162444 L0.050432 -0.150942 L0.030537 -0.176761 L-0.112582 -0.236419 L-0.119769 -0.334795 z " fill="rgb(245,195,195)" />
<path d="M-1.399871 -1.193991 L-0.399871 -1.193991 L-0.399871 -0.193991 L-1.399871 -0.193991  z" fill="none" stroke="rgb(128,128,128)" stroke-width="0.01" />
<line x1="0.190492" y1="-0.316312" x2="0.295469" y2="-0.052039" style="stroke:rgb(246,147,147);stroke-width:0.01" />
<line x1="0.0050724" y1="-0.337137" x2="0.202227" y2="-0.0718483" style="stroke:rgb(246,147,147);stroke-width:0.01" />
<line x1="-0.102336" y1="-0.3492" x2="0.0595125" y2="-0.139158" style="stroke:rgb(246,147,147);stroke-width:0.01" />
<line x1="0.162454" y1="-0.283207" x2="0.212094" y2="-0.00112876" style="stroke:rgb(246,147,147);stroke-width:0.01" />
<line x1="-0.214992" y1="0.162444" x2="-0.21256" y2="0.169562" style="stroke:rgb(246,147,147);stroke-width:0.01" />
<line x1="-0.144671" y1="0.0794153" x2="0.0823608" y2="0.393277" style="stroke:rgb(246,147,147);stroke-width:0.01" />
<line x1="0.040845" y1="-0.333119" x2="0.0595125" y2="-0.139158" style="stroke:rgb(246,147,147);stroke-width:0.01" />
<line x1="-0.218499" y1="0.181007" x2="-0.192984" y2="0.422383" style="stroke:rgb(246,147,147);stroke-width:0.01" />
<line x1="-0.119769" y1="-0.334795" x2="-0.112582" y2="-0.236419" style="stroke:rgb(246,147,147);stroke-width:0.01" />
<line x1="0.0715935" y1="-0.329666" x2="0.0743052" y2="-0.158517" style="stroke:rgb(246,147,147);stroke-width:0.01" />
<line x1="0.0362819" y1="-0.333631" x2="0.0333577" y2="-0.173101" style="stroke:rgb(246,147,147);stroke-width:0.01" />
<line x1="0.0896086" y1="-0.177585" x2="0.0491062" y2="0.152018" style="stroke:rgb(246,147,147);stroke-width:0.01" />
<line x1="-0.214992" y1="0.162444" x2="-0.218499" y2="0.181007" style="stroke:rgb(246,147,147);stroke-width:0.01" />
<line x1="0.0362819" y1="-0.333631" x2="0.0282345" y2="-0.295018" style="stroke:rgb(246,147,147);stroke-width:0.01" />
<line x1="-0.112582" y1="-0.236419" x2="0.288667" y2="-0.0691622" style="stroke:rgb(246,147,147);stroke-width:0.01" />
<line x1="0.0715935" y1="-0.329666" x2="0.0333577" y2="-0.173101" style="stroke:rgb(246,147,147);stroke-width:0.01" />
<line x1="0.0896086" y1="-0.177585" x2="0.0561465" y2="-0.0387022" style="stroke:rgb(246,147,147);stroke-width:0.01" />
<line x1="0.0595125" y1="-0.139158" x2="0.295469" y2="-0.052039" style="stroke:rgb(246,147,147);stroke-width:0.01" />
<line x1="-0.119769" y1="-0.334795" x2="0.0282345" y2="-0.295018" style="stroke:rgb(246,147,147);stroke-width:0.01" />
<line x1="0.040845" y1="-0.333119" x2="0.0282345" y2="-0.295018" style="stroke:rgb(246,147,147);stroke-width:0.01" />
<line x1="-0.144671" y1="0.0794153" x2="0.156052" y2="0.228737" style="stroke:rgb(246,147,147);stroke-width:0.01" />
<line x1="-0.216033" y1="0.167954" x2="-0.21256" y2="0.169562" style="stroke:rgb(246,147,147);stroke-width:0.01" />
<line x1="-0.102336" y1="-0.3492" x2="0.190492" y2="-0.316312" style="stroke:rgb(246,147,147);stroke-width:0.01" />
<line x1="0.0896086" y1="-0.177585" x2="0.257704" y2="-0.14711" style="stroke:rgb(246,147,147);stroke-width:0.01" />
<line x1="0.0561465" y1="-0.0387022" x2="0.212094" y2="-0.00112876" style="stroke:rgb(246,147,147);stroke-width:0.01" />
<line x1="-0.21256" y1="0.169562" x2="-0.218499" y2="0.181007" style="stroke:rgb(246,147,147);stroke-width:0.01" />
<line x1="0.288667" y1="-0.0691622" x2="0.0823608" y2="0.393277" style="stroke:rgb(246,147,147);stroke-width:0.01" />
<line x1="0.162454" y1="-0.283207" x2="0.203788" y2="-0.282841" style="stroke:rgb(246,147,147);stroke-width:0.01" />
<line x1="0.295469" y1="-0.052039" x2="0.156052" y2="0.228737" style="stroke:rgb(246,147,147);stroke-width:0.01" />
<line x1="0.287534" y1="-0.0720146" x2="0.202227" y2="-0.0718483" style="stroke:rgb(246,147,147);stroke-width:0.01" />
<line x1="-0.102336" y1="-0.3492" x2="-0.119769" y2="-0.334795" style="stroke:rgb(246,147,147);stroke-width:0.01" />
<line x1="0.190492" y1="-0.316312" x2="-0.214992" y2="0.162444" style="stroke:rgb(246,147,147);stroke-width:0.01" />
<line x1="0.257704" y1="-0.14711" x2="0.202227" y2="-0.0718483" style="stroke:rgb(246,147,147);stroke-width:0.01" />
<line x1="0.0050724" y1="-0.337137" x2="-0.112582" y2="-0.236419" style="stroke:rgb(246,147,147);stroke-width:0.01" />
<line x1="0.203788" y1="-0.282841" x2="0.0743052" y2="-0.158517" style="stroke:rgb(246,147,147);stroke-width:0.01" />
<line x1="0.0491062" y1="0.152018" x2="-0.216033" y2="0.167954" style="stroke:rgb(246,147,147);stroke-width:0.01" />
<line x1="0.287534" y1="-0.0720146" x2="0.0491062" y2="0.152018" style="stroke:rgb(246,147,147);stroke-width:0.01" />
<line x1="0.0823608" y1="0.393277" x2="-0.192984" y2="0.422383" style="stroke:rgb(246,147,147);stroke-width:0.01" />
</g>
</svg>
