<svg xmlns="http://www.w3.org/2000/svg" viewBox="-1.5 -1.5 3 3">
<g transform="scale(1, -1)">
<path d="M-0.288117 -0.266775 L0.173698 0.160832 L0.168182 0.383333 L-0.250000 0.583333 L-0.350000 0.450000 L-0.294444 0.408333 L-0.358834 0.154798 L-0.400373 0.144418 L-0.495538 -0.097226 L-0.429450 -0.123253 L-0.455128 -0.224359 z " fill="rgb(245,195,195)" />
<path d="M0.000000 0.000000 L1.000000 0.000000 L1.000000 1.000000 L0.000000 1.000000  z" fill="none" stroke="rgb(128,128,128)" stroke-width="0.01" />
<line x1="-0.288117" y1="-0.266775" x2="-0.455128" y2="-0.224359" style="stroke:rgb(246,147,147);stroke-width:0.01" />
<line x1="-0.221543" y1="-0.205132" x2="-0.495538" y2="-0.0972257" style="stroke:rgb(246,147,147);stroke-width:0.01" />
<line x1="-0.125773" y1="-0.116457" x2="-0.1695" y2="-0.0740597" style="stroke:rgb(246,147,147);stroke-width:0.01" />
<line x1="-0.341411" y1="0.0941585" x2="-0.400373" y2="0.144418" style="stroke:rgb(246,147,147);stroke-width:0.01" />
<line x1="-0.125773" y1="-0.116457" x2="-0.321126" y2="0.11876" style="stroke:rgb(246,147,147);stroke-width:0.01" />
<line x1="-0.341411" y1="0.0941585" x2="-0.361173" y2="0.154213" style="stroke:rgb(246,147,147);stroke-width:0.01" />
<line x1="-0.221543" y1="-0.205132" x2="-0.321126" y2="0.11876" style="stroke:rgb(246,147,147);stroke-width:0.01" />
<line x1="-0.288117" y1="-0.266775" x2="-0.361173" y2="0.154213" style="stroke:rgb(246,147,147);stroke-width:0.01" />
<line x1="-0.288117" y1="-0.266775" x2="0.173698" y2="0.160832" style="stroke:rgb(246,147,147);stroke-width:0.01" />
<line x1="0.173698" y1="0.160832" x2="0.168182" y2="0.383333" style="stroke:rgb(246,147,147);stroke-width:0.01" />
<line x1="-0.1695" y1="-0.0740597" x2="0.0686426" y2="0.17155" style="stroke:rgb(246,147,147);stroke-width:0.01" />
<line x1="0.111878" y1="0.103591" x2="0.0686426" y2="0.17155" style="stroke:rgb(246,147,147);stroke-width:0.01" />
<line x1="-0.455128" y1="-0.224359" x2="-0.25" y2="0.583333" style="stroke:rgb(246,147,147);stroke-width:0.01" />
<line x1="0.111878" y1="0.103591" x2="-0.35" y2="0.45" style="stroke:rgb(246,147,147);stroke-width:0.01" />
<line x1="-0.495538" y1="-0.0972257" x2="-0.400373" y2="0.144418" style="stroke:rgb(246,147,147);stroke-width:0.01" />
<line x1="0.173698" y1="0.160832" x2="-0.187294" y2="0.197662" style="stroke:rgb(246,147,147);stroke-width:0.01" />
<line x1="-0.341411" y1="0.0941585" x2="-0.187294" y2="0.197662" style="stroke:rgb(246,147,147);stroke-width:0.01" />
<line x1="-0.321126" y1="0.11876" x2="0.168182" y2="0.383333" style="stroke:rgb(246,147,147);stroke-width:0.01" />
<line x1="-0.400373" y1="0.144418" x2="-0.187294" y2="0.197662" style="stroke:rgb(246,147,147);stroke-width:0.01" />
<line x1="-0.35" y1="0.45" x2="-0.25" y2="0.583333" style="stroke:rgb(246,147,147);stroke-width:0.01" />
<line x1="0.168182" y1="0.383333" x2="-0.25" y2="0.583333" style="stroke:rgb(246,147,147);stroke-width:0.01" />
</g>
</svg>
