<svg xmlns="http://www.w3.org/2000/svg" viewBox="-1.5 -1.5 3 3">
<g transform="scale(1, -1)">
<path d="M1.550610 0.580488 L1.584185 0.729709 L1.595628 0.737749 L1.753384 1.279007 L1.823780 1.339024 L1.784355 1.385268 L1.787290 1.395337 L1.698076 1.472956 L1.396389 1.348546 L1.274997 1.318539 L1.415167 0.610962 z " fill="rgb(245,195,195)" />
<path d="M0.000000 0.000000 L1.000000 0.000000 L1.000000 1.000000 L0.000000 1.000000  z" fill="none" stroke="rgb(128,128,128)" stroke-width="0.01" />
<line x1="1.59563" y1="0.737749" x2="1.78729" y2="1.39534" style="stroke:rgb(246,147,147);stroke-width:0.01" />
<line x1="1.54202" y1="0.867753" x2="1.69808" y2="1.47296" style="stroke:rgb(246,147,147);stroke-width:0.01" />
<line x1="1.55061" y1="0.580488" x2="1.74268" y2="1.43415" style="stroke:rgb(246,147,147);stroke-width:0.01" />
<line x1="1.41517" y1="0.610962" x2="1.59563" y2="0.737749" style="stroke:rgb(246,147,147);stroke-width:0.01" />
<line x1="1.35082" y1="0.935794" x2="1.82378" y2="1.33902" style="stroke:rgb(246,147,147);stroke-width:0.01" />
<line x1="1.41517" y1="0.610962" x2="1.275" y2="1.31854" style="stroke:rgb(246,147,147);stroke-width:0.01" />
<line x1="1.3514" y1="1.32999" x2="1.69808" y2="1.47296" style="stroke:rgb(246,147,147);stroke-width:0.01" />
<line x1="1.59563" y1="0.737749" x2="1.3514" y2="1.32999" style="stroke:rgb(246,147,147);stroke-width:0.01" />
<line x1="1.55061" y1="0.580488" x2="1.41517" y2="0.610962" style="stroke:rgb(246,147,147);stroke-width:0.01" />
<line x1="1.275" y1="1.31854" x2="1.74268" y2="1.43415" style="stroke:rgb(246,147,147);stroke-width:0.01" />
<line x1="1.275" y1="1.31854" x2="1.78729" y2="1.39534" style="stroke:rgb(246,147,147);stroke-width:0.01" />
<line x1="1.62712" y1="0.845807" x2="1.54202" y2="0.867753" style="stroke:rgb(246,147,147);stroke-width:0.01" />
<line x1="1.62712" y1="0.845807" x2="1.35082" y2="0.935794" style="stroke:rgb(246,147,147);stroke-width:0.01" />
<line x1="1.82378" y1="1.33902" x2="1.74268" y2="1.43415" style="stroke:rgb(246,147,147);stroke-width:0.01" />
<line x1="1.78729" y1="1.39534" x2="1.69808" y2="1.47296" style="stroke:rgb(246,147,147);stroke-width:0.01" />
</g>
</svg>
