<svg xmlns="http://www.w3.org/2000/svg" viewBox="-1.5 -1.5 3 3">
<g transform="scale(1, -1)">
<path d="M-0.055196 -0.528383 L-0.021621 -0.379162 L-0.010178 -0.371122 L0.147579 0.170136 L0.217975 0.230153 L0.178550 0.276396 L0.181484 0.286465 L0.092270 0.364085 L-0.209417 0.239674 L-0.330809 0.209667 L-0.190638 -0.497909 z " fill="rgb(245,195,195)" />
<path d="M-1.605806 -1.108871 L-0.605806 -1.108871 L-0.605806 -0.108871 L-1.605806 -0.108871  z" fill="none" stroke="rgb(128,128,128)" stroke-width="0.01" />
<line x1="-0.0101776" y1="-0.371122" x2="0.181484" y2="0.286465" style="stroke:rgb(246,147,147);stroke-width:0.01" />
<line x1="-0.0637892" y1="-0.241118" x2="0.0922704" y2="0.364085" style="stroke:rgb(246,147,147);stroke-width:0.01" />
<line x1="-0.0551958" y1="-0.528383" x2="0.136877" y2="0.325275" style="stroke:rgb(246,147,147);stroke-width:0.01" />
<line x1="-0.190638" y1="-0.497909" x2="-0.0101776" y2="-0.371122" style="stroke:rgb(246,147,147);stroke-width:0.01" />
<line x1="-0.254987" y1="-0.173077" x2="0.217975" y2="0.230153" style="stroke:rgb(246,147,147);stroke-width:0.01" />
<line x1="-0.190638" y1="-0.497909" x2="-0.330809" y2="0.209667" style="stroke:rgb(246,147,147);stroke-width:0.01" />
<line x1="-0.254408" y1="0.22112" x2="0.0922704" y2="0.364085" style="stroke:rgb(246,147,147);stroke-width:0.01" />
<line x1="-0.0101776" y1="-0.371122" x2="-0.254408" y2="0.22112" style="stroke:rgb(246,147,147);stroke-width:0.01" />
<line x1="-0.0551958" y1="-0.528383" x2="-0.190638" y2="-0.497909" style="stroke:rgb(246,147,147);stroke-width:0.01" />
<line x1="-0.330809" y1="0.209667" x2="0.136877" y2="0.325275" style="stroke:rgb(246,147,147);stroke-width:0.01" />
<line x1="-0.330809" y1="0.209667" x2="0.181484" y2="0.286465" style="stroke:rgb(246,147,147);stroke-width:0.01" />
<line x1="0.0213174" y1="-0.263064" x2="-0.0637892" y2="-0.241118" style="stroke:rgb(246,147,147);stroke-width:0.01" />
<line x1="0.0213174" y1="-0.263064" x2="-0.254987" y2="-0.173077" style="stroke:rgb(246,147,147);stroke-width:0.01" />
<line x1="0.217975" y1="0.230153" x2="0.136877" y2="0.325275" style="stroke:rgb(246,147,147);stroke-width:0.01" />
<line x1="0.181484" y1="0.286465" x2="0.0922704" y2="0.364085" style="stroke:rgb(246,147,147);stroke-width:0.01" />
</g>
</svg>
