<svg xmlns="http://www.w3.org/2000/svg" viewBox="-1.5 -1.5 3 3">
<g transform="scale(1, -1)">
<path d="M0.217944 -0.441680 L0.295616 -0.327946 L0.000000 0.167059 L0.000000 0.186538 L-0.034367 0.224607 L-0.135385 0.149965 L0.133846 -0.300859 L0.131237 -0.300422 L0.110595 -0.423706 z " fill="rgb(245,195,195)" />
<path d="M0.000000 0.000000 L1.000000 0.000000 L1.000000 1.000000 L0.000000 1.000000  z" fill="none" stroke="rgb(128,128,128)" stroke-width="0.01" />
<line x1="0.217944" y1="-0.44168" x2="0.110595" y2="-0.423706" style="stroke:rgb(246,147,147);stroke-width:0.01" />
<line x1="0.295616" y1="-0.327946" x2="0.131237" y2="-0.300422" style="stroke:rgb(246,147,147);stroke-width:0.01" />
<line x1="0.217944" y1="-0.44168" x2="0.295616" y2="-0.327946" style="stroke:rgb(246,147,147);stroke-width:0.01" />
<line x1="0.110595" y1="-0.423706" x2="0.131237" y2="-0.300422" style="stroke:rgb(246,147,147);stroke-width:0.01" />
<line x1="0.217944" y1="-0.44168" x2="-0.135385" y2="0.149965" style="stroke:rgb(246,147,147);stroke-width:0.01" />
<line x1="0" y1="0" x2="0" y2="0.186538" style="stroke:rgb(246,147,147);stroke-width:0.01" />
<line x1="0" y1="0" x2="-0.0555556" y2="0.125" style="stroke:rgb(246,147,147);stroke-width:0.01" />
<line x1="0" y1="0" x2="-0.135385" y2="0.149965" style="stroke:rgb(246,147,147);stroke-width:0.01" />
<line x1="0.295616" y1="-0.327946" x2="-0.034367" y2="0.224607" style="stroke:rgb(246,147,147);stroke-width:0.01" />
<line x1="-0.0555556" y1="0.125" x2="0" y2="0.186538" style="stroke:rgb(246,147,147);stroke-width:0.01" />
<line x1="0" y1="0.186538" x2="-0.034367" y2="0.224607" style="stroke:rgb(246,147,147);stroke-width:0.01" />
<line x1="-0.0555556" y1="0.125" x2="0" y2="0.125" style="stroke:rgb(246,147,147);stroke-width:0.01" />
<line x1="-0.135385" y1="0.149965" x2="-0.034367" y2="0.224607" style="stroke:rgb(246,147,147);stroke-width:0.01" />
</g>
</svg>
