<svg xmlns="http://www.w3.org/2000/svg" viewBox="-1.5 -1.5 3 3">
<g transform="scale(1, -1)">
<path d="M0.138001 -0.323187 L0.215673 -0.209452 L-0.079943 0.285553 L-0.079943 0.305032 L-0.114310 0.343100 L-0.215328 0.268459 L0.053903 -0.182365 L0.051295 -0.181929 L0.030652 -0.305212 z " fill="rgb(245,195,195)" />
<path d="M-0.079943 0.118494 L0.920057 0.118494 L0.920057 1.118494 L-0.079943 1.118494  z" fill="none" stroke="rgb(128,128,128)" stroke-width="0.01" />
<line x1="0.138001" y1="-0.323187" x2="0.0306521" y2="-0.305212" style="stroke:rgb(246,147,147);stroke-width:0.01" />
<line x1="0.215673" y1="-0.209452" x2="0.0512945" y2="-0.181929" style="stroke:rgb(246,147,147);stroke-width:0.01" />
<line x1="0.138001" y1="-0.323187" x2="0.215673" y2="-0.209452" style="stroke:rgb(246,147,147);stroke-width:0.01" />
<line x1="0.0306521" y1="-0.305212" x2="0.0512945" y2="-0.181929" style="stroke:rgb(246,147,147);stroke-width:0.01" />
<line x1="0.138001" y1="-0.323187" x2="-0.215328" y2="0.268459" style="stroke:rgb(246,147,147);stroke-width:0.01" />
<line x1="-0.0799428" y1="0.118494" x2="-0.0799428" y2="0.305032" style="stroke:rgb(246,147,147);stroke-width:0.01" />
<line x1="-0.0799428" y1="0.118494" x2="-0.135498" y2="0.243494" style="stroke:rgb(246,147,147);stroke-width:0.01" />
<line x1="-0.0799428" y1="0.118494" x2="-0.215328" y2="0.268459" style="stroke:rgb(246,147,147);stroke-width:0.01" />
<line x1="0.215673" y1="-0.209452" x2="-0.11431" y2="0.3431" style="stroke:rgb(246,147,147);stroke-width:0.01" />
<line x1="-0.135498" y1="0.243494" x2="-0.0799428" y2="0.305032" style="stroke:rgb(246,147,147);stroke-width:0.01" />
<line x1="-0.0799428" y1="0.305032" x2="-0.11431" y2="0.3431" style="stroke:rgb(246,147,147);stroke-width:0.01" />
<line x1="-0.135498" y1="0.243494" x2="-0.0799428" y2="0.243494" style="stroke:rgb(246,147,147);stroke-width:0.01" />
<line x1="-0.215328" y1="0.268459" x2="-0.11431" y2="0.3431" style="stroke:rgb(246,147,147);stroke-width:0.01" />
</g>
</svg>
