<svg xmlns="http://www.w3.org/2000/svg" viewBox="-1.5 -1.5 3 3">
<g transform="scale(1, -1)">
<path d="M-0.220680 -0.502851 L-0.209535 -0.493827 L0.349235 0.146431 L0.250418 0.265044 L0.193920 0.243565 L0.031826 0.344938 L-0.017186 0.305255 L-0.377997 -0.308553 z " fill="rgb(245,195,195)" />
<path d="M0.150782 -0.418927 L1.150782 -0.418927 L1.150782 0.581073 L0.150782 0.581073  z" fill="none" stroke="rgb(128,128,128)" stroke-width="0.01" />
<line x1="-0.22068" y1="-0.502851" x2="-0.377997" y2="-0.308553" style="stroke:rgb(246,147,147);stroke-width:0.01" />
<line x1="-0.131713" y1="-0.351501" x2="-0.377997" y2="-0.308553" style="stroke:rgb(246,147,147);stroke-width:0.01" />
<line x1="-0.131713" y1="-0.351501" x2="-0.0171864" y2="0.305255" style="stroke:rgb(246,147,147);stroke-width:0.01" />
<line x1="-0.029154" y1="0.0816369" x2="0.0318256" y2="0.344938" style="stroke:rgb(246,147,147);stroke-width:0.01" />
<line x1="0.238575" y1="0.0196319" x2="0.158553" y2="0.230119" style="stroke:rgb(246,147,147);stroke-width:0.01" />
<line x1="-0.22068" y1="-0.502851" x2="-0.209535" y2="-0.493827" style="stroke:rgb(246,147,147);stroke-width:0.01" />
<line x1="-0.209535" y1="-0.493827" x2="0.250418" y2="0.265044" style="stroke:rgb(246,147,147);stroke-width:0.01" />
<line x1="-0.209535" y1="-0.493827" x2="0.349235" y2="0.146431" style="stroke:rgb(246,147,147);stroke-width:0.01" />
<line x1="-0.377997" y1="-0.308553" x2="-0.0171864" y2="0.305255" style="stroke:rgb(246,147,147);stroke-width:0.01" />
<line x1="0.349235" y1="0.146431" x2="0.250418" y2="0.265044" style="stroke:rgb(246,147,147);stroke-width:0.01" />
<line x1="0.238575" y1="0.0196319" x2="-0.029154" y2="0.0816369" style="stroke:rgb(246,147,147);stroke-width:0.01" />
<line x1="0.349235" y1="0.146431" x2="0.0318256" y2="0.344938" style="stroke:rgb(246,147,147);stroke-width:0.01" />
<line x1="-0.0171864" y1="0.305255" x2="0.0318256" y2="0.344938" style="stroke:rgb(246,147,147);stroke-width:0.01" />
<line x1="0.158553" y1="0.230119" x2="0.250418" y2="0.265044" style="stroke:rgb(246,147,147);stroke-width:0.01" />
</g>
</svg>
