<svg xmlns="http://www.w3.org/2000/svg" viewBox="-1.5 -1.5 3 3">
<g transform="scale(1, -1)">
<path d="M-0.371462 -0.083924 L-0.360317 -0.074900 L0.198454 0.565358 L0.099637 0.683971 L0.043138 0.662492 L-0.118956 0.763865 L-0.167968 0.724182 L-0.528778 0.110374 z " fill="rgb(245,195,195)" />
<path d="M0.000000 0.000000 L1.000000 0.000000 L1.000000 1.000000 L0.000000 1.000000  z" fill="none" stroke="rgb(128,128,128)" stroke-width="0.01" />
<line x1="-0.371462" y1="-0.0839238" x2="-0.528778" y2="0.110374" style="stroke:rgb(246,147,147);stroke-width:0.01" />
<line x1="-0.282495" y1="0.0674261" x2="-0.528778" y2="0.110374" style="stroke:rgb(246,147,147);stroke-width:0.01" />
<line x1="-0.282495" y1="0.0674261" x2="-0.167968" y2="0.724182" style="stroke:rgb(246,147,147);stroke-width:0.01" />
<line x1="-0.179936" y1="0.500564" x2="-0.118956" y2="0.763865" style="stroke:rgb(246,147,147);stroke-width:0.01" />
<line x1="0.087793" y1="0.438559" x2="0.00777151" y2="0.649046" style="stroke:rgb(246,147,147);stroke-width:0.01" />
<line x1="-0.371462" y1="-0.0839238" x2="-0.360317" y2="-0.0749002" style="stroke:rgb(246,147,147);stroke-width:0.01" />
<line x1="-0.360317" y1="-0.0749002" x2="0.0996369" y2="0.683971" style="stroke:rgb(246,147,147);stroke-width:0.01" />
<line x1="-0.360317" y1="-0.0749002" x2="0.198454" y2="0.565358" style="stroke:rgb(246,147,147);stroke-width:0.01" />
<line x1="-0.528778" y1="0.110374" x2="-0.167968" y2="0.724182" style="stroke:rgb(246,147,147);stroke-width:0.01" />
<line x1="0.198454" y1="0.565358" x2="0.0996369" y2="0.683971" style="stroke:rgb(246,147,147);stroke-width:0.01" />
<line x1="0.087793" y1="0.438559" x2="-0.179936" y2="0.500564" style="stroke:rgb(246,147,147);stroke-width:0.01" />
<line x1="0.198454" y1="0.565358" x2="-0.118956" y2="0.763865" style="stroke:rgb(246,147,147);stroke-width:0.01" />
<line x1="-0.167968" y1="0.724182" x2="-0.118956" y2="0.763865" style="stroke:rgb(246,147,147);stroke-width:0.01" />
<line x1="0.00777151" y1="0.649046" x2="0.0996369" y2="0.683971" style="stroke:rgb(246,147,147);stroke-width:0.01" />
</g>
</svg>
