<svg xmlns="http://www.w3.org/2000/svg" viewBox="-1.5 -1.5 3 3">
<g transform="scale(1, -1)">
<path d="M0.176503 -0.313388 L0.343307 -0.063182 L0.197775 0.098661 L0.008765 0.054251 L-0.010908 0.061157 L-0.005932 0.050798 L-0.114562 0.025274 L-0.203919 0.126115 L-0.391029 -0.039685 z " fill="rgb(245,195,195)" />
<path d="M-0.102567 -1.731993 L0.897433 -1.731993 L0.897433 -0.731993 L-0.102567 -0.731993  z" fill="none" stroke="rgb(128,128,128)" stroke-width="0.01" />
<line x1="0.0971802" y1="-0.275134" x2="0.102591" y2="-0.173174" style="stroke:rgb(246,147,147);stroke-width:0.01" />
<line x1="-0.116899" y1="-0.17189" x2="-0.144123" y2="-0.000472939" style="stroke:rgb(246,147,147);stroke-width:0.01" />
<line x1="0.102591" y1="-0.173174" x2="0.197775" y2="0.0986613" style="stroke:rgb(246,147,147);stroke-width:0.01" />
<line x1="0.176503" y1="-0.313388" x2="0.343307" y2="-0.063182" style="stroke:rgb(246,147,147);stroke-width:0.01" />
<line x1="0.163421" y1="-0.301761" x2="-0.0109083" y2="0.0611569" style="stroke:rgb(246,147,147);stroke-width:0.01" />
<line x1="0.102591" y1="-0.173174" x2="0.253003" y2="0.0372437" style="stroke:rgb(246,147,147);stroke-width:0.01" />
<line x1="0.0971802" y1="-0.275134" x2="0.127682" y2="-0.248105" style="stroke:rgb(246,147,147);stroke-width:0.01" />
<line x1="0.180379" y1="-0.307575" x2="-0.203919" y2="0.126115" style="stroke:rgb(246,147,147);stroke-width:0.01" />
<line x1="0.176503" y1="-0.313388" x2="0.163421" y2="-0.301761" style="stroke:rgb(246,147,147);stroke-width:0.01" />
<line x1="0.343307" y1="-0.063182" x2="0.197775" y2="0.0986613" style="stroke:rgb(246,147,147);stroke-width:0.01" />
<line x1="-0.391029" y1="-0.0396854" x2="-0.203919" y2="0.126115" style="stroke:rgb(246,147,147);stroke-width:0.01" />
<line x1="-0.116899" y1="-0.17189" x2="0.253003" y2="0.0372437" style="stroke:rgb(246,147,147);stroke-width:0.01" />
<line x1="0.176503" y1="-0.313388" x2="-0.391029" y2="-0.0396854" style="stroke:rgb(246,147,147);stroke-width:0.01" />
<line x1="0.180379" y1="-0.307575" x2="0.163421" y2="-0.301761" style="stroke:rgb(246,147,147);stroke-width:0.01" />
<line x1="0.343307" y1="-0.063182" x2="-0.0109083" y2="0.0611569" style="stroke:rgb(246,147,147);stroke-width:0.01" />
<line x1="-0.391029" y1="-0.0396854" x2="0.197775" y2="0.0986613" style="stroke:rgb(246,147,147);stroke-width:0.01" />
<line x1="-0.391029" y1="-0.0396854" x2="-0.144123" y2="-0.000472939" style="stroke:rgb(246,147,147);stroke-width:0.01" />
</g>
</svg>
