<svg xmlns="http://www.w3.org/2000/svg" viewBox="-1.5 -1.5 3 3">
<g transform="scale(1, -1)">
<path d="M0.279070 1.418605 L0.445874 1.668811 L0.300342 1.830654 L0.111332 1.786244 L0.091659 1.793150 L0.096635 1.782791 L-0.011995 1.757267 L-0.101351 1.858108 L-0.288462 1.692308 z " fill="rgb(245,195,195)" />
<path d="M0.000000 0.000000 L1.000000 0.000000 L1.000000 1.000000 L0.000000 1.000000  z" fill="none" stroke="rgb(128,128,128)" stroke-width="0.01" />
<line x1="0.199747" y1="1.45686" x2="0.205158" y2="1.55882" style="stroke:rgb(246,147,147);stroke-width:0.01" />
<line x1="-0.0143323" y1="1.5601" x2="-0.0415559" y2="1.73152" style="stroke:rgb(246,147,147);stroke-width:0.01" />
<line x1="0.205158" y1="1.55882" x2="0.300342" y2="1.83065" style="stroke:rgb(246,147,147);stroke-width:0.01" />
<line x1="0.27907" y1="1.4186" x2="0.445874" y2="1.66881" style="stroke:rgb(246,147,147);stroke-width:0.01" />
<line x1="0.265988" y1="1.43023" x2="0.0916589" y2="1.79315" style="stroke:rgb(246,147,147);stroke-width:0.01" />
<line x1="0.205158" y1="1.55882" x2="0.35557" y2="1.76924" style="stroke:rgb(246,147,147);stroke-width:0.01" />
<line x1="0.199747" y1="1.45686" x2="0.230249" y2="1.48389" style="stroke:rgb(246,147,147);stroke-width:0.01" />
<line x1="0.282946" y1="1.42442" x2="-0.101351" y2="1.85811" style="stroke:rgb(246,147,147);stroke-width:0.01" />
<line x1="0.27907" y1="1.4186" x2="0.265988" y2="1.43023" style="stroke:rgb(246,147,147);stroke-width:0.01" />
<line x1="0.445874" y1="1.66881" x2="0.300342" y2="1.83065" style="stroke:rgb(246,147,147);stroke-width:0.01" />
<line x1="-0.288462" y1="1.69231" x2="-0.101351" y2="1.85811" style="stroke:rgb(246,147,147);stroke-width:0.01" />
<line x1="-0.0143323" y1="1.5601" x2="0.35557" y2="1.76924" style="stroke:rgb(246,147,147);stroke-width:0.01" />
<line x1="0.27907" y1="1.4186" x2="-0.288462" y2="1.69231" style="stroke:rgb(246,147,147);stroke-width:0.01" />
<line x1="0.282946" y1="1.42442" x2="0.265988" y2="1.43023" style="stroke:rgb(246,147,147);stroke-width:0.01" />
<line x1="0.445874" y1="1.66881" x2="0.0916589" y2="1.79315" style="stroke:rgb(246,147,147);stroke-width:0.01" />
<line x1="-0.288462" y1="1.69231" x2="0.300342" y2="1.83065" style="stroke:rgb(246,147,147);stroke-width:0.01" />
<line x1="-0.288462" y1="1.69231" x2="-0.0415559" y2="1.73152" style="stroke:rgb(246,147,147);stroke-width:0.01" />
</g>
</svg>
