<svg xmlns="http://www.w3.org/2000/svg" viewBox="-1.5 -1.5 3 3">
<g transform="scale(1, -1)">
<path d="M-0.660000 -0.285714 L0.240000 -0.285714 L0.240000 -0.245714 L0.300000 -0.245714 L0.300000 0.654286 L0.240000 0.654286 L-0.660000 -0.245714 z " fill="rgb(245,195,195)" />
<path d="M-0.660000 -0.285714 L0.340000 -0.285714 L0.340000 0.714286 L-0.660000 0.714286  z" fill="none" stroke="rgb(128,128,128)" stroke-width="0.01" />
<line x1="-0.66" y1="-0.285714" x2="0.24" y2="-0.285714" style="stroke:rgb(246,147,147);stroke-width:0.01" />
<line x1="-0.66" y1="-0.285714" x2="-0.66" y2="-0.245714" style="stroke:rgb(246,147,147);stroke-width:0.01" />
<line x1="0.14" y1="-0.285714" x2="0.14" y2="0.554286" style="stroke:rgb(246,147,147);stroke-width:0.01" />
<line x1="0.24" y1="-0.285714" x2="0.24" y2="0.654286" style="stroke:rgb(246,147,147);stroke-width:0.01" />
<line x1="0.3" y1="-0.245714" x2="0.3" y2="0.654286" style="stroke:rgb(246,147,147);stroke-width:0.01" />
<line x1="-0.66" y1="-0.245714" x2="0.24" y2="0.654286" style="stroke:rgb(246,147,147);stroke-width:0.01" />
<line x1="-0.66" y1="-0.245714" x2="0.3" y2="-0.245714" style="stroke:rgb(246,147,147);stroke-width:0.01" />
<line x1="0.14" y1="0.554286" x2="0.3" y2="0.554286" style="stroke:rgb(246,147,147);stroke-width:0.01" />
<line x1="0.24" y1="0.654286" x2="0.3" y2="0.654286" style="stroke:rgb(246,147,147);stroke-width:0.01" />
</g>
</svg>
