<svg xmlns="http://www.w3.org/2000/svg" viewBox="-1.5 -1.5 3 3">
<g transform="scale(1, -1)">
<path d="M0.195987 -0.482724 L0.315339 0.054360 L0.095953 0.310311 L0.096298 0.311154 L0.084789 0.323335 L-0.135641 0.124948 L-0.135641 0.024948 L-0.071572 0.024948 L-0.211832 -0.275052 L-0.233680 -0.416228 z " fill="rgb(245,195,195)" />
<path d="M-0.135641 0.024948 L0.864359 0.024948 L0.864359 1.024948 L-0.135641 1.024948  z" fill="none" stroke="rgb(128,128,128)" stroke-width="0.01" />
<line x1="0.195987" y1="-0.482724" x2="-0.23368" y2="-0.416228" style="stroke:rgb(246,147,147);stroke-width:0.01" />
<line x1="0.195987" y1="-0.482724" x2="0.133379" y2="-0.464464" style="stroke:rgb(246,147,147);stroke-width:0.01" />
<line x1="0.280045" y1="0.0383936" x2="0.315339" y2="0.05436" style="stroke:rgb(246,147,147);stroke-width:0.01" />
<line x1="0.133379" y1="-0.464464" x2="0.280045" y2="0.0383936" style="stroke:rgb(246,147,147);stroke-width:0.01" />
<line x1="0.195987" y1="-0.482724" x2="0.315339" y2="0.05436" style="stroke:rgb(246,147,147);stroke-width:0.01" />
<line x1="-0.211832" y1="-0.275052" x2="0.198043" y2="0.191206" style="stroke:rgb(246,147,147);stroke-width:0.01" />
<line x1="0.0135302" y1="0.109202" x2="0.0962979" y2="0.311154" style="stroke:rgb(246,147,147);stroke-width:0.01" />
<line x1="-0.0012411" y1="0.0641482" x2="0.198043" y2="0.191206" style="stroke:rgb(246,147,147);stroke-width:0.01" />
<line x1="-0.211832" y1="-0.275052" x2="0.0556892" y2="0.297146" style="stroke:rgb(246,147,147);stroke-width:0.01" />
<line x1="-0.135641" y1="0.0249482" x2="0.308803" y2="0.0249482" style="stroke:rgb(246,147,147);stroke-width:0.01" />
<line x1="-0.135641" y1="0.0249482" x2="-0.135641" y2="0.124948" style="stroke:rgb(246,147,147);stroke-width:0.01" />
<line x1="-0.23368" y1="-0.416228" x2="-0.211832" y2="-0.275052" style="stroke:rgb(246,147,147);stroke-width:0.01" />
<line x1="-0.135641" y1="0.124948" x2="0.084789" y2="0.323335" style="stroke:rgb(246,147,147);stroke-width:0.01" />
<line x1="-0.0012411" y1="0.0641482" x2="-0.0748743" y2="0.179638" style="stroke:rgb(246,147,147);stroke-width:0.01" />
<line x1="0.0135302" y1="0.109202" x2="-0.135641" y2="0.124948" style="stroke:rgb(246,147,147);stroke-width:0.01" />
<line x1="0.0135302" y1="0.109202" x2="-0.0748743" y2="0.179638" style="stroke:rgb(246,147,147);stroke-width:0.01" />
<line x1="0.308803" y1="0.0249482" x2="0.280045" y2="0.0383936" style="stroke:rgb(246,147,147);stroke-width:0.01" />
<line x1="0.0556892" y1="0.297146" x2="0.0962979" y2="0.311154" style="stroke:rgb(246,147,147);stroke-width:0.01" />
<line x1="0.315339" y1="0.05436" x2="0.084789" y2="0.323335" style="stroke:rgb(246,147,147);stroke-width:0.01" />
<line x1="0.0962979" y1="0.311154" x2="0.084789" y2="0.323335" style="stroke:rgb(246,147,147);stroke-width:0.01" />
</g>
</svg>
