<svg xmlns="http://www.w3.org/2000/svg" viewBox="-1.5 -1.5 3 3">
<g transform="scale(1, -1)">
<path d="M0.331628 -0.507673 L0.450980 0.029412 L0.231594 0.285363 L0.231939 0.286205 L0.220430 0.298387 L0.000000 0.100000 L0.000000 0.000000 L0.064069 0.000000 L-0.076190 -0.300000 L-0.098039 -0.441176 z " fill="rgb(245,195,195)" />
<path d="M0.000000 0.000000 L1.000000 0.000000 L1.000000 1.000000 L0.000000 1.000000  z" fill="none" stroke="rgb(128,128,128)" stroke-width="0.01" />
<line x1="0.331628" y1="-0.507673" x2="-0.0980392" y2="-0.441176" style="stroke:rgb(246,147,147);stroke-width:0.01" />
<line x1="0.331628" y1="-0.507673" x2="0.26902" y2="-0.489412" style="stroke:rgb(246,147,147);stroke-width:0.01" />
<line x1="0.415686" y1="0.0134454" x2="0.45098" y2="0.0294118" style="stroke:rgb(246,147,147);stroke-width:0.01" />
<line x1="0.26902" y1="-0.489412" x2="0.415686" y2="0.0134454" style="stroke:rgb(246,147,147);stroke-width:0.01" />
<line x1="0.331628" y1="-0.507673" x2="0.45098" y2="0.0294118" style="stroke:rgb(246,147,147);stroke-width:0.01" />
<line x1="-0.0761905" y1="-0.3" x2="0.333684" y2="0.166258" style="stroke:rgb(246,147,147);stroke-width:0.01" />
<line x1="0.149171" y1="0.0842541" x2="0.231939" y2="0.286205" style="stroke:rgb(246,147,147);stroke-width:0.01" />
<line x1="0.1344" y1="0.0392" x2="0.333684" y2="0.166258" style="stroke:rgb(246,147,147);stroke-width:0.01" />
<line x1="-0.0761905" y1="-0.3" x2="0.19133" y2="0.272197" style="stroke:rgb(246,147,147);stroke-width:0.01" />
<line x1="0" y1="0" x2="0.444444" y2="0" style="stroke:rgb(246,147,147);stroke-width:0.01" />
<line x1="0" y1="0" x2="0" y2="0.1" style="stroke:rgb(246,147,147);stroke-width:0.01" />
<line x1="-0.0980392" y1="-0.441176" x2="-0.0761905" y2="-0.3" style="stroke:rgb(246,147,147);stroke-width:0.01" />
<line x1="0" y1="0.1" x2="0.22043" y2="0.298387" style="stroke:rgb(246,147,147);stroke-width:0.01" />
<line x1="0.1344" y1="0.0392" x2="0.0607668" y2="0.15469" style="stroke:rgb(246,147,147);stroke-width:0.01" />
<line x1="0.149171" y1="0.0842541" x2="0" y2="0.1" style="stroke:rgb(246,147,147);stroke-width:0.01" />
<line x1="0.149171" y1="0.0842541" x2="0.0607668" y2="0.15469" style="stroke:rgb(246,147,147);stroke-width:0.01" />
<line x1="0.444444" y1="0" x2="0.415686" y2="0.0134454" style="stroke:rgb(246,147,147);stroke-width:0.01" />
<line x1="0.19133" y1="0.272197" x2="0.231939" y2="0.286205" style="stroke:rgb(246,147,147);stroke-width:0.01" />
<line x1="0.45098" y1="0.0294118" x2="0.22043" y2="0.298387" style="stroke:rgb(246,147,147);stroke-width:0.01" />
<line x1="0.231939" y1="0.286205" x2="0.22043" y2="0.298387" style="stroke:rgb(246,147,147);stroke-width:0.01" />
</g>
</svg>
