<svg xmlns="http://www.w3.org/2000/svg" viewBox="-1.5 -1.5 3 3">
<g transform="scale(1, -1)">
<path d="M0.480612 -0.216568 L0.910699 0.038433 L0.854032 0.134007 L0.550218 0.347598 L0.297345 0.371681 L0.125000 0.156250 L0.097561 0.021951 L0.178693 -0.036509 L0.285758 0.112076 z " fill="rgb(245,195,195)" />
<path d="M0.000000 0.000000 L1.000000 0.000000 L1.000000 1.000000 L0.000000 1.000000  z" fill="none" stroke="rgb(128,128,128)" stroke-width="0.01" />
<line x1="0.480612" y1="-0.216568" x2="0.910699" y2="0.0384326" style="stroke:rgb(246,147,147);stroke-width:0.01" />
<line x1="0.178693" y1="-0.0365093" x2="0.352149" y2="0.204214" style="stroke:rgb(246,147,147);stroke-width:0.01" />
<line x1="0.097561" y1="0.0219512" x2="0.125" y2="0.15625" style="stroke:rgb(246,147,147);stroke-width:0.01" />
<line x1="0.243902" y1="0.054878" x2="0.26087" y2="0.326087" style="stroke:rgb(246,147,147);stroke-width:0.01" />
<line x1="0.22546" y1="0.0954483" x2="0.23687" y2="0.296087" style="stroke:rgb(246,147,147);stroke-width:0.01" />
<line x1="0.097561" y1="0.0219512" x2="0.243902" y2="0.054878" style="stroke:rgb(246,147,147);stroke-width:0.01" />
<line x1="0.125" y1="0.15625" x2="0.297345" y2="0.371681" style="stroke:rgb(246,147,147);stroke-width:0.01" />
<line x1="0.178693" y1="-0.0365093" x2="0.097561" y2="0.0219512" style="stroke:rgb(246,147,147);stroke-width:0.01" />
<line x1="0.125" y1="0.15625" x2="0.550218" y2="0.347598" style="stroke:rgb(246,147,147);stroke-width:0.01" />
<line x1="0.22546" y1="0.0954483" x2="0.113874" y2="0.101794" style="stroke:rgb(246,147,147);stroke-width:0.01" />
<line x1="0.352149" y1="0.204214" x2="0.297345" y2="0.371681" style="stroke:rgb(246,147,147);stroke-width:0.01" />
<line x1="0.243902" y1="0.054878" x2="0.113874" y2="0.101794" style="stroke:rgb(246,147,147);stroke-width:0.01" />
<line x1="0.480612" y1="-0.216568" x2="0.202287" y2="0.252859" style="stroke:rgb(246,147,147);stroke-width:0.01" />
<line x1="0.23687" y1="0.296087" x2="0.450533" y2="0.357092" style="stroke:rgb(246,147,147);stroke-width:0.01" />
<line x1="0.26087" y1="0.326087" x2="0.387692" y2="0.363077" style="stroke:rgb(246,147,147);stroke-width:0.01" />
<line x1="0.854032" y1="0.134007" x2="0.822857" y2="0.14" style="stroke:rgb(246,147,147);stroke-width:0.01" />
<line x1="0.352149" y1="0.204214" x2="0.202287" y2="0.252859" style="stroke:rgb(246,147,147);stroke-width:0.01" />
<line x1="0.550218" y1="0.347598" x2="0.297345" y2="0.371681" style="stroke:rgb(246,147,147);stroke-width:0.01" />
<line x1="0.910699" y1="0.0384326" x2="0.854032" y2="0.134007" style="stroke:rgb(246,147,147);stroke-width:0.01" />
<line x1="0.822857" y1="0.14" x2="0.387692" y2="0.363077" style="stroke:rgb(246,147,147);stroke-width:0.01" />
<line x1="0.757231" y1="0.202062" x2="0.450533" y2="0.357092" style="stroke:rgb(246,147,147);stroke-width:0.01" />
<line x1="0.822857" y1="0.14" x2="0.757231" y2="0.202062" style="stroke:rgb(246,147,147);stroke-width:0.01" />
<line x1="0.854032" y1="0.134007" x2="0.550218" y2="0.347598" style="stroke:rgb(246,147,147);stroke-width:0.01" />
</g>
</svg>
