<svg xmlns="http://www.w3.org/2000/svg" viewBox="-1.5 -1.5 3 3">
<g transform="scale(1, -1)">
<path d="M0.060621 -0.319781 L0.490708 -0.064781 L0.434041 0.030794 L0.130227 0.244385 L-0.122646 0.268468 L-0.294991 0.053037 L-0.322430 -0.081262 L-0.241298 -0.139723 L-0.134233 0.008863 z " fill="rgb(245,195,195)" />
<path d="M-0.419991 -0.103213 L0.580009 -0.103213 L0.580009 0.896787 L-0.419991 0.896787  z" fill="none" stroke="rgb(128,128,128)" stroke-width="0.01" />
<line x1="0.060621" y1="-0.319781" x2="0.490708" y2="-0.0647808" style="stroke:rgb(246,147,147);stroke-width:0.01" />
<line x1="-0.241298" y1="-0.139723" x2="-0.067842" y2="0.101001" style="stroke:rgb(246,147,147);stroke-width:0.01" />
<line x1="-0.32243" y1="-0.0812622" x2="-0.294991" y2="0.0530366" style="stroke:rgb(246,147,147);stroke-width:0.01" />
<line x1="-0.176089" y1="-0.0483353" x2="-0.159121" y2="0.222874" style="stroke:rgb(246,147,147);stroke-width:0.01" />
<line x1="-0.194531" y1="-0.00776503" x2="-0.183121" y2="0.192874" style="stroke:rgb(246,147,147);stroke-width:0.01" />
<line x1="-0.32243" y1="-0.0812622" x2="-0.176089" y2="-0.0483353" style="stroke:rgb(246,147,147);stroke-width:0.01" />
<line x1="-0.294991" y1="0.0530366" x2="-0.122646" y2="0.268468" style="stroke:rgb(246,147,147);stroke-width:0.01" />
<line x1="-0.241298" y1="-0.139723" x2="-0.32243" y2="-0.0812622" style="stroke:rgb(246,147,147);stroke-width:0.01" />
<line x1="-0.294991" y1="0.0530366" x2="0.130227" y2="0.244385" style="stroke:rgb(246,147,147);stroke-width:0.01" />
<line x1="-0.194531" y1="-0.00776503" x2="-0.306117" y2="-0.00141953" style="stroke:rgb(246,147,147);stroke-width:0.01" />
<line x1="-0.067842" y1="0.101001" x2="-0.122646" y2="0.268468" style="stroke:rgb(246,147,147);stroke-width:0.01" />
<line x1="-0.176089" y1="-0.0483353" x2="-0.306117" y2="-0.00141953" style="stroke:rgb(246,147,147);stroke-width:0.01" />
<line x1="0.060621" y1="-0.319781" x2="-0.217704" y2="0.149646" style="stroke:rgb(246,147,147);stroke-width:0.01" />
<line x1="-0.183121" y1="0.192874" x2="0.0305419" y2="0.253879" style="stroke:rgb(246,147,147);stroke-width:0.01" />
<line x1="-0.159121" y1="0.222874" x2="-0.0322987" y2="0.259864" style="stroke:rgb(246,147,147);stroke-width:0.01" />
<line x1="0.434041" y1="0.0307941" x2="0.402866" y2="0.0367866" style="stroke:rgb(246,147,147);stroke-width:0.01" />
<line x1="-0.067842" y1="0.101001" x2="-0.217704" y2="0.149646" style="stroke:rgb(246,147,147);stroke-width:0.01" />
<line x1="0.130227" y1="0.244385" x2="-0.122646" y2="0.268468" style="stroke:rgb(246,147,147);stroke-width:0.01" />
<line x1="0.490708" y1="-0.0647808" x2="0.434041" y2="0.0307941" style="stroke:rgb(246,147,147);stroke-width:0.01" />
<line x1="0.402866" y1="0.0367866" x2="-0.0322987" y2="0.259864" style="stroke:rgb(246,147,147);stroke-width:0.01" />
<line x1="0.33724" y1="0.0988487" x2="0.0305419" y2="0.253879" style="stroke:rgb(246,147,147);stroke-width:0.01" />
<line x1="0.402866" y1="0.0367866" x2="0.33724" y2="0.0988487" style="stroke:rgb(246,147,147);stroke-width:0.01" />
<line x1="0.434041" y1="0.0307941" x2="0.130227" y2="0.244385" style="stroke:rgb(246,147,147);stroke-width:0.01" />
</g>
</svg>
