<svg xmlns="http://www.w3.org/2000/svg" viewBox="-1.5 -1.5 3 3">
<g transform="scale(1, -1)">
<path d="M0.010758 -0.358126 L0.303258 -0.248126 L0.274579 -0.171867 L-0.060242 0.274561 L-0.117208 0.274561 L-0.165242 0.109874 L-0.112742 0.094561 L-0.133159 0.024561 z " fill="rgb(245,195,195)" />
<path d="M0.139758 -0.530126 L1.139758 -0.530126 L1.139758 0.469874 L0.139758 0.469874  z" fill="none" stroke="rgb(128,128,128)" stroke-width="0.01" />
<line x1="0.0107577" y1="-0.358126" x2="-0.133159" y2="0.0245614" style="stroke:rgb(246,147,147);stroke-width:0.01" />
<line x1="-0.0602423" y1="0.0792489" x2="-0.117208" y2="0.274561" style="stroke:rgb(246,147,147);stroke-width:0.01" />
<line x1="-0.0602423" y1="0.0792489" x2="-0.0602423" y2="0.274561" style="stroke:rgb(246,147,147);stroke-width:0.01" />
<line x1="0.0692577" y1="-0.336126" x2="0.109371" y2="0.0484101" style="stroke:rgb(246,147,147);stroke-width:0.01" />
<line x1="-0.0185757" y1="-0.280126" x2="0.086242" y2="0.0792489" style="stroke:rgb(246,147,147);stroke-width:0.01" />
<line x1="0.303258" y1="-0.248126" x2="0.274579" y2="-0.171867" style="stroke:rgb(246,147,147);stroke-width:0.01" />
<line x1="0.0692577" y1="-0.336126" x2="-0.0185757" y2="-0.280126" style="stroke:rgb(246,147,147);stroke-width:0.01" />
<line x1="-0.133159" y1="0.0245614" x2="-0.0602423" y2="0.274561" style="stroke:rgb(246,147,147);stroke-width:0.01" />
<line x1="-0.0602423" y1="0.0792489" x2="-0.101258" y2="0.133936" style="stroke:rgb(246,147,147);stroke-width:0.01" />
<line x1="-0.165242" y1="0.109874" x2="-0.117208" y2="0.274561" style="stroke:rgb(246,147,147);stroke-width:0.01" />
<line x1="0.0107577" y1="-0.358126" x2="0.303258" y2="-0.248126" style="stroke:rgb(246,147,147);stroke-width:0.01" />
<line x1="0.274579" y1="-0.171867" x2="-0.0602423" y2="0.274561" style="stroke:rgb(246,147,147);stroke-width:0.01" />
<line x1="0.274579" y1="-0.171867" x2="-0.0602423" y2="0.0792489" style="stroke:rgb(246,147,147);stroke-width:0.01" />
<line x1="-0.0602423" y1="0.0792489" x2="0.0129999" y2="0.176905" style="stroke:rgb(246,147,147);stroke-width:0.01" />
<line x1="-0.133159" y1="0.0245614" x2="0.0335077" y2="0.149561" style="stroke:rgb(246,147,147);stroke-width:0.01" />
<line x1="-0.0602423" y1="0.0792489" x2="-0.165242" y2="0.109874" style="stroke:rgb(246,147,147);stroke-width:0.01" />
<line x1="0.109371" y1="0.0484101" x2="-0.0602423" y2="0.0792489" style="stroke:rgb(246,147,147);stroke-width:0.01" />
<line x1="-0.0602423" y1="0.0792489" x2="0.086242" y2="0.0792489" style="stroke:rgb(246,147,147);stroke-width:0.01" />
<line x1="-0.101258" y1="0.133936" x2="0.0129999" y2="0.176905" style="stroke:rgb(246,147,147);stroke-width:0.01" />
<line x1="-0.117208" y1="0.274561" x2="-0.0602423" y2="0.274561" style="stroke:rgb(246,147,147);stroke-width:0.01" />
</g>
</svg>
