<svg xmlns="http://www.w3.org/2000/svg" viewBox="-1.5 -1.5 3 3">
<g transform="scale(1, -1)">
<path d="M-0.129000 0.172000 L0.163500 0.282000 L0.134821 0.358259 L-0.200000 0.804688 L-0.256966 0.804688 L-0.305000 0.640000 L-0.252500 0.624687 L-0.272917 0.554688 z " fill="rgb(245,195,195)" />
<path d="M0.000000 0.000000 L1.000000 0.000000 L1.000000 1.000000 L0.000000 1.000000  z" fill="none" stroke="rgb(128,128,128)" stroke-width="0.01" />
<line x1="-0.129" y1="0.172" x2="-0.272917" y2="0.554688" style="stroke:rgb(246,147,147);stroke-width:0.01" />
<line x1="-0.2" y1="0.609375" x2="-0.256966" y2="0.804688" style="stroke:rgb(246,147,147);stroke-width:0.01" />
<line x1="-0.2" y1="0.609375" x2="-0.2" y2="0.804688" style="stroke:rgb(246,147,147);stroke-width:0.01" />
<line x1="-0.0705" y1="0.194" x2="-0.0303865" y2="0.578536" style="stroke:rgb(246,147,147);stroke-width:0.01" />
<line x1="-0.158333" y1="0.25" x2="-0.0535156" y2="0.609375" style="stroke:rgb(246,147,147);stroke-width:0.01" />
<line x1="0.1635" y1="0.282" x2="0.134821" y2="0.358259" style="stroke:rgb(246,147,147);stroke-width:0.01" />
<line x1="-0.0705" y1="0.194" x2="-0.158333" y2="0.25" style="stroke:rgb(246,147,147);stroke-width:0.01" />
<line x1="-0.272917" y1="0.554688" x2="-0.2" y2="0.804688" style="stroke:rgb(246,147,147);stroke-width:0.01" />
<line x1="-0.2" y1="0.609375" x2="-0.241016" y2="0.664062" style="stroke:rgb(246,147,147);stroke-width:0.01" />
<line x1="-0.305" y1="0.64" x2="-0.256966" y2="0.804688" style="stroke:rgb(246,147,147);stroke-width:0.01" />
<line x1="-0.129" y1="0.172" x2="0.1635" y2="0.282" style="stroke:rgb(246,147,147);stroke-width:0.01" />
<line x1="0.134821" y1="0.358259" x2="-0.2" y2="0.804688" style="stroke:rgb(246,147,147);stroke-width:0.01" />
<line x1="0.134821" y1="0.358259" x2="-0.2" y2="0.609375" style="stroke:rgb(246,147,147);stroke-width:0.01" />
<line x1="-0.2" y1="0.609375" x2="-0.126758" y2="0.707031" style="stroke:rgb(246,147,147);stroke-width:0.01" />
<line x1="-0.272917" y1="0.554688" x2="-0.10625" y2="0.679688" style="stroke:rgb(246,147,147);stroke-width:0.01" />
<line x1="-0.2" y1="0.609375" x2="-0.305" y2="0.64" style="stroke:rgb(246,147,147);stroke-width:0.01" />
<line x1="-0.0303865" y1="0.578536" x2="-0.2" y2="0.609375" style="stroke:rgb(246,147,147);stroke-width:0.01" />
<line x1="-0.2" y1="0.609375" x2="-0.0535156" y2="0.609375" style="stroke:rgb(246,147,147);stroke-width:0.01" />
<line x1="-0.241016" y1="0.664062" x2="-0.126758" y2="0.707031" style="stroke:rgb(246,147,147);stroke-width:0.01" />
<line x1="-0.256966" y1="0.804688" x2="-0.2" y2="0.804688" style="stroke:rgb(246,147,147);stroke-width:0.01" />
</g>
</svg>
