<svg xmlns="http://www.w3.org/2000/svg" viewBox="-1.5 -1.5 3 3">
<g transform="scale(1, -1)">
<path d="M0.929762 0.538330 L1.310718 0.650350 L1.323044 1.240010 L1.266538 1.351509 L0.940889 1.186477 L0.882019 1.004175 L0.885118 0.998058 L1.074277 0.796168 L1.062989 0.776029 L0.984589 0.792262 L0.867383 0.571439 z " fill="rgb(245,195,195)" />
<path d="M0.000000 0.000000 L1.000000 0.000000 L1.000000 1.000000 L0.000000 1.000000  z" fill="none" stroke="rgb(128,128,128)" stroke-width="0.01" />
<line x1="0.929762" y1="0.53833" x2="1.32304" y2="1.24001" style="stroke:rgb(246,147,147);stroke-width:0.01" />
<line x1="0.867383" y1="0.571439" x2="0.984589" y2="0.792262" style="stroke:rgb(246,147,147);stroke-width:0.01" />
<line x1="1.23246" y1="0.627338" x2="1.25248" y2="0.736795" style="stroke:rgb(246,147,147);stroke-width:0.01" />
<line x1="0.882019" y1="1.00417" x2="0.940889" y2="1.18648" style="stroke:rgb(246,147,147);stroke-width:0.01" />
<line x1="1.31072" y1="0.65035" x2="1.32304" y2="1.24001" style="stroke:rgb(246,147,147);stroke-width:0.01" />
<line x1="0.995141" y1="0.574799" x2="1.3127" y2="0.745141" style="stroke:rgb(246,147,147);stroke-width:0.01" />
<line x1="1.00313" y1="0.559904" x2="0.984589" y2="0.792262" style="stroke:rgb(246,147,147);stroke-width:0.01" />
<line x1="0.929762" y1="0.53833" x2="1.31072" y2="0.65035" style="stroke:rgb(246,147,147);stroke-width:0.01" />
<line x1="0.882019" y1="1.00417" x2="1.00284" y2="1.06662" style="stroke:rgb(246,147,147);stroke-width:0.01" />
<line x1="1.00313" y1="0.559904" x2="0.995141" y2="0.574799" style="stroke:rgb(246,147,147);stroke-width:0.01" />
<line x1="0.885118" y1="0.998058" x2="0.882019" y2="1.00417" style="stroke:rgb(246,147,147);stroke-width:0.01" />
<line x1="0.940889" y1="1.18648" x2="1.26654" y2="1.35151" style="stroke:rgb(246,147,147);stroke-width:0.01" />
<line x1="1.00284" y1="1.06662" x2="0.940889" y2="1.18648" style="stroke:rgb(246,147,147);stroke-width:0.01" />
<line x1="1.32304" y1="1.24001" x2="1.26654" y2="1.35151" style="stroke:rgb(246,147,147);stroke-width:0.01" />
<line x1="0.929762" y1="0.53833" x2="0.867383" y2="0.571439" style="stroke:rgb(246,147,147);stroke-width:0.01" />
<line x1="1.31072" y1="0.65035" x2="1.25248" y2="0.736795" style="stroke:rgb(246,147,147);stroke-width:0.01" />
<line x1="1.23246" y1="0.627338" x2="0.885118" y2="0.998058" style="stroke:rgb(246,147,147);stroke-width:0.01" />
<line x1="1.25248" y1="0.736795" x2="0.984589" y2="0.792262" style="stroke:rgb(246,147,147);stroke-width:0.01" />
<line x1="1.3127" y1="0.745141" x2="0.885118" y2="0.998058" style="stroke:rgb(246,147,147);stroke-width:0.01" />
</g>
</svg>
