<svg xmlns="http://www.w3.org/2000/svg" viewBox="-1.5 -1.5 3 3">
<g transform="scale(1, -1)">
<path d="M-0.118176 -0.362107 L0.262779 -0.250087 L0.275105 0.339573 L0.218599 0.451072 L-0.107050 0.286040 L-0.165920 0.103738 L-0.162820 0.097622 L0.026338 -0.104269 L0.015050 -0.124408 L-0.063349 -0.108175 L-0.180556 -0.328998 z " fill="rgb(245,195,195)" />
<path d="M-1.047939 -0.900437 L-0.047939 -0.900437 L-0.047939 0.099563 L-1.047939 0.099563  z" fill="none" stroke="rgb(128,128,128)" stroke-width="0.01" />
<line x1="-0.118176" y1="-0.362107" x2="0.275105" y2="0.339573" style="stroke:rgb(246,147,147);stroke-width:0.01" />
<line x1="-0.180556" y1="-0.328998" x2="-0.0633494" y2="-0.108175" style="stroke:rgb(246,147,147);stroke-width:0.01" />
<line x1="0.184521" y1="-0.273099" x2="0.204538" y2="-0.163641" style="stroke:rgb(246,147,147);stroke-width:0.01" />
<line x1="-0.16592" y1="0.103738" x2="-0.10705" y2="0.28604" style="stroke:rgb(246,147,147);stroke-width:0.01" />
<line x1="0.262779" y1="-0.250087" x2="0.275105" y2="0.339573" style="stroke:rgb(246,147,147);stroke-width:0.01" />
<line x1="-0.0527982" y1="-0.325637" x2="0.26476" y2="-0.155295" style="stroke:rgb(246,147,147);stroke-width:0.01" />
<line x1="-0.044808" y1="-0.340533" x2="-0.0633494" y2="-0.108175" style="stroke:rgb(246,147,147);stroke-width:0.01" />
<line x1="-0.118176" y1="-0.362107" x2="0.262779" y2="-0.250087" style="stroke:rgb(246,147,147);stroke-width:0.01" />
<line x1="-0.16592" y1="0.103738" x2="-0.0451025" y2="0.166181" style="stroke:rgb(246,147,147);stroke-width:0.01" />
<line x1="-0.044808" y1="-0.340533" x2="-0.0527982" y2="-0.325637" style="stroke:rgb(246,147,147);stroke-width:0.01" />
<line x1="-0.16282" y1="0.0976216" x2="-0.16592" y2="0.103738" style="stroke:rgb(246,147,147);stroke-width:0.01" />
<line x1="-0.10705" y1="0.28604" x2="0.218599" y2="0.451072" style="stroke:rgb(246,147,147);stroke-width:0.01" />
<line x1="-0.0451025" y1="0.166181" x2="-0.10705" y2="0.28604" style="stroke:rgb(246,147,147);stroke-width:0.01" />
<line x1="0.275105" y1="0.339573" x2="0.218599" y2="0.451072" style="stroke:rgb(246,147,147);stroke-width:0.01" />
<line x1="-0.118176" y1="-0.362107" x2="-0.180556" y2="-0.328998" style="stroke:rgb(246,147,147);stroke-width:0.01" />
<line x1="0.262779" y1="-0.250087" x2="0.204538" y2="-0.163641" style="stroke:rgb(246,147,147);stroke-width:0.01" />
<line x1="0.184521" y1="-0.273099" x2="-0.16282" y2="0.0976216" style="stroke:rgb(246,147,147);stroke-width:0.01" />
<line x1="0.204538" y1="-0.163641" x2="-0.0633494" y2="-0.108175" style="stroke:rgb(246,147,147);stroke-width:0.01" />
<line x1="0.26476" y1="-0.155295" x2="-0.16282" y2="0.0976216" style="stroke:rgb(246,147,147);stroke-width:0.01" />
</g>
</svg>
