<svg xmlns="http://www.w3.org/2000/svg" viewBox="-1.5 -1.5 3 3">
<g transform="scale(1, -1)">
<path d="M0.034375 -0.718750 L0.067897 -0.693609 L-0.146661 0.078799 L-0.157812 0.084375 L-0.212500 -0.025000 L-0.285017 -0.139328 L-0.276630 -0.153260 L-0.321875 -0.243750 L-0.288431 -0.288342 L-0.325660 -0.653482 L0.011182 -0.687826 z " fill="rgb(245,195,195)" />
<path d="M0.000000 0.000000 L1.000000 0.000000 L1.000000 1.000000 L0.000000 1.000000  z" fill="none" stroke="rgb(128,128,128)" stroke-width="0.01" />
<line x1="0.0678969" y1="-0.693609" x2="-0.32566" y2="-0.653482" style="stroke:rgb(246,147,147);stroke-width:0.01" />
<line x1="0.034375" y1="-0.71875" x2="0.0678969" y2="-0.693609" style="stroke:rgb(246,147,147);stroke-width:0.01" />
<line x1="-0.321875" y1="-0.24375" x2="-0.0570638" y2="-0.24375" style="stroke:rgb(246,147,147);stroke-width:0.01" />
<line x1="0.034375" y1="-0.71875" x2="-0.321875" y2="-0.24375" style="stroke:rgb(246,147,147);stroke-width:0.01" />
<line x1="-0.0802712" y1="-0.160203" x2="-0.285017" y2="-0.139328" style="stroke:rgb(246,147,147);stroke-width:0.01" />
<line x1="-0.178239" y1="-0.316698" x2="-0.285017" y2="-0.139328" style="stroke:rgb(246,147,147);stroke-width:0.01" />
<line x1="-0.178239" y1="-0.316698" x2="-0.0570638" y2="-0.24375" style="stroke:rgb(246,147,147);stroke-width:0.01" />
<line x1="-0.0391602" y1="-0.308203" x2="-0.228125" y2="-0.05625" style="stroke:rgb(246,147,147);stroke-width:0.01" />
<line x1="-0.1" y1="-0.175" x2="-0.2125" y2="-0.025" style="stroke:rgb(246,147,147);stroke-width:0.01" />
<line x1="-0.1" y1="-0.175" x2="-0.0802712" y2="-0.160203" style="stroke:rgb(246,147,147);stroke-width:0.01" />
<line x1="-0.228125" y1="-0.05625" x2="-0.109147" y2="-0.05625" style="stroke:rgb(246,147,147);stroke-width:0.01" />
<line x1="-0.131072" y1="0.0226792" x2="-0.165625" y2="0.06875" style="stroke:rgb(246,147,147);stroke-width:0.01" />
<line x1="0.0678969" y1="-0.693609" x2="-0.146661" y2="0.0787991" style="stroke:rgb(246,147,147);stroke-width:0.01" />
<line x1="-0.2125" y1="-0.025" x2="-0.117828" y2="-0.025" style="stroke:rgb(246,147,147);stroke-width:0.01" />
<line x1="-0.0769498" y1="-0.67884" x2="-0.0391602" y2="-0.308203" style="stroke:rgb(246,147,147);stroke-width:0.01" />
<line x1="-0.146661" y1="0.0787991" x2="-0.157812" y2="0.084375" style="stroke:rgb(246,147,147);stroke-width:0.01" />
<line x1="-0.274944" y1="-0.156061" x2="-0.109147" y2="-0.05625" style="stroke:rgb(246,147,147);stroke-width:0.01" />
<line x1="-0.201305" y1="-0.666161" x2="-0.131072" y2="0.0226792" style="stroke:rgb(246,147,147);stroke-width:0.01" />
<line x1="-0.180093" y1="-0.150026" x2="-0.158697" y2="0.0598238" style="stroke:rgb(246,147,147);stroke-width:0.01" />
<line x1="-0.32566" y1="-0.653482" x2="-0.270982" y2="-0.1172" style="stroke:rgb(246,147,147);stroke-width:0.01" />
<line x1="-0.270982" y1="-0.1172" x2="-0.117828" y2="-0.025" style="stroke:rgb(246,147,147);stroke-width:0.01" />
<line x1="-0.165625" y1="0.06875" x2="-0.143869" y2="0.06875" style="stroke:rgb(246,147,147);stroke-width:0.01" />
<line x1="-0.321875" y1="-0.24375" x2="-0.157812" y2="0.084375" style="stroke:rgb(246,147,147);stroke-width:0.01" />
<line x1="-0.285017" y1="-0.139328" x2="-0.146661" y2="0.0787991" style="stroke:rgb(246,147,147);stroke-width:0.01" />
<line x1="-0.158697" y1="0.0598238" x2="-0.143869" y2="0.06875" style="stroke:rgb(246,147,147);stroke-width:0.01" />
</g>
</svg>
