<svg xmlns="http://www.w3.org/2000/svg" viewBox="-1.5 -1.5 3 3">
<g transform="scale(1, -1)">
<path d="M0.207205 -0.406007 L0.240727 -0.380866 L0.026170 0.391542 L0.015018 0.397118 L-0.039670 0.287743 L-0.112187 0.173415 L-0.103800 0.159483 L-0.149045 0.068993 L-0.115601 0.024401 L-0.152830 -0.340739 L0.184012 -0.375083 z " fill="rgb(245,195,195)" />
<path d="M0.172830 0.312743 L1.172830 0.312743 L1.172830 1.312743 L0.172830 1.312743  z" fill="none" stroke="rgb(128,128,128)" stroke-width="0.01" />
<line x1="0.240727" y1="-0.380866" x2="-0.15283" y2="-0.340739" style="stroke:rgb(246,147,147);stroke-width:0.01" />
<line x1="0.207205" y1="-0.406007" x2="0.240727" y2="-0.380866" style="stroke:rgb(246,147,147);stroke-width:0.01" />
<line x1="-0.149045" y1="0.0689929" x2="0.115767" y2="0.0689929" style="stroke:rgb(246,147,147);stroke-width:0.01" />
<line x1="0.207205" y1="-0.406007" x2="-0.149045" y2="0.0689929" style="stroke:rgb(246,147,147);stroke-width:0.01" />
<line x1="0.0925591" y1="0.15254" x2="-0.112187" y2="0.173415" style="stroke:rgb(246,147,147);stroke-width:0.01" />
<line x1="-0.00540885" y1="-0.00395546" x2="-0.112187" y2="0.173415" style="stroke:rgb(246,147,147);stroke-width:0.01" />
<line x1="-0.00540885" y1="-0.00395546" x2="0.115767" y2="0.0689929" style="stroke:rgb(246,147,147);stroke-width:0.01" />
<line x1="0.13367" y1="0.00453979" x2="-0.0552947" y2="0.256493" style="stroke:rgb(246,147,147);stroke-width:0.01" />
<line x1="0.0728303" y1="0.137743" x2="-0.0396697" y2="0.287743" style="stroke:rgb(246,147,147);stroke-width:0.01" />
<line x1="0.0728303" y1="0.137743" x2="0.0925591" y2="0.15254" style="stroke:rgb(246,147,147);stroke-width:0.01" />
<line x1="-0.0552947" y1="0.256493" x2="0.0636832" y2="0.256493" style="stroke:rgb(246,147,147);stroke-width:0.01" />
<line x1="0.0417584" y1="0.335422" x2="0.00720532" y2="0.381493" style="stroke:rgb(246,147,147);stroke-width:0.01" />
<line x1="0.240727" y1="-0.380866" x2="0.0261695" y2="0.391542" style="stroke:rgb(246,147,147);stroke-width:0.01" />
<line x1="-0.0396697" y1="0.287743" x2="0.0550026" y2="0.287743" style="stroke:rgb(246,147,147);stroke-width:0.01" />
<line x1="0.0958805" y1="-0.366097" x2="0.13367" y2="0.00453979" style="stroke:rgb(246,147,147);stroke-width:0.01" />
<line x1="0.0261695" y1="0.391542" x2="0.0150178" y2="0.397118" style="stroke:rgb(246,147,147);stroke-width:0.01" />
<line x1="-0.102114" y1="0.156682" x2="0.0636832" y2="0.256493" style="stroke:rgb(246,147,147);stroke-width:0.01" />
<line x1="-0.0284748" y1="-0.353418" x2="0.0417584" y2="0.335422" style="stroke:rgb(246,147,147);stroke-width:0.01" />
<line x1="-0.00726236" y1="0.162717" x2="0.0141336" y2="0.372567" style="stroke:rgb(246,147,147);stroke-width:0.01" />
<line x1="-0.15283" y1="-0.340739" x2="-0.0981515" y2="0.195543" style="stroke:rgb(246,147,147);stroke-width:0.01" />
<line x1="-0.0981515" y1="0.195543" x2="0.0550026" y2="0.287743" style="stroke:rgb(246,147,147);stroke-width:0.01" />
<line x1="0.00720532" y1="0.381493" x2="0.028961" y2="0.381493" style="stroke:rgb(246,147,147);stroke-width:0.01" />
<line x1="-0.149045" y1="0.0689929" x2="0.0150178" y2="0.397118" style="stroke:rgb(246,147,147);stroke-width:0.01" />
<line x1="-0.112187" y1="0.173415" x2="0.0261695" y2="0.391542" style="stroke:rgb(246,147,147);stroke-width:0.01" />
<line x1="0.0141336" y1="0.372567" x2="0.028961" y2="0.381493" style="stroke:rgb(246,147,147);stroke-width:0.01" />
</g>
</svg>
