<svg xmlns="http://www.w3.org/2000/svg" viewBox="-1.5 -1.5 3 3">
<g transform="scale(1, -1)">
<path d="M-0.041751 -0.295514 L0.069896 -0.049279 L0.277249 0.106236 L0.219437 0.183320 L-0.193584 0.108225 L-0.193584 -0.012514 L-0.137663 -0.040474 z " fill="rgb(245,195,195)" />
<path d="M-0.781084 -1.004180 L0.218916 -1.004180 L0.218916 -0.004180 L-0.781084 -0.004180  z" fill="none" stroke="rgb(128,128,128)" stroke-width="0.01" />
<line x1="0.193916" y1="0.0958195" x2="0.219437" y2="0.18332" style="stroke:rgb(246,147,147);stroke-width:0.01" />
<line x1="-0.0417508" y1="-0.295514" x2="0.1714" y2="0.174586" style="stroke:rgb(246,147,147);stroke-width:0.01" />
<line x1="0.0772492" y1="-0.0437638" x2="0.139228" y2="0.168736" style="stroke:rgb(246,147,147);stroke-width:0.01" />
<line x1="0.193916" y1="0.0958195" x2="0.206069" y2="0.180889" style="stroke:rgb(246,147,147);stroke-width:0.01" />
<line x1="0.127249" y1="-0.00626382" x2="0.152596" y2="0.171167" style="stroke:rgb(246,147,147);stroke-width:0.01" />
<line x1="-0.193584" y1="-0.0125138" x2="-0.193584" y2="0.108225" style="stroke:rgb(246,147,147);stroke-width:0.01" />
<line x1="-0.00608413" y1="-0.106264" x2="-0.0498341" y2="0.134361" style="stroke:rgb(246,147,147);stroke-width:0.01" />
<line x1="-0.00608413" y1="-0.106264" x2="0.277249" y2="0.106236" style="stroke:rgb(246,147,147);stroke-width:0.01" />
<line x1="-0.0417508" y1="-0.295514" x2="-0.193584" y2="0.108225" style="stroke:rgb(246,147,147);stroke-width:0.01" />
<line x1="-0.193584" y1="-0.0125138" x2="0.0189159" y2="0.146861" style="stroke:rgb(246,147,147);stroke-width:0.01" />
<line x1="-0.131084" y1="-0.0437638" x2="-0.193584" y2="0.0395695" style="stroke:rgb(246,147,147);stroke-width:0.01" />
<line x1="0.193916" y1="0.0958195" x2="0.152596" y2="0.171167" style="stroke:rgb(246,147,147);stroke-width:0.01" />
<line x1="0.255821" y1="0.0901648" x2="0.206069" y2="0.180889" style="stroke:rgb(246,147,147);stroke-width:0.01" />
<line x1="0.193916" y1="0.0958195" x2="0.139228" y2="0.168736" style="stroke:rgb(246,147,147);stroke-width:0.01" />
<line x1="-0.0352508" y1="0.0541528" x2="0.193916" y2="0.0958195" style="stroke:rgb(246,147,147);stroke-width:0.01" />
<line x1="0.277249" y1="0.106236" x2="0.219437" y2="0.18332" style="stroke:rgb(246,147,147);stroke-width:0.01" />
<line x1="-0.131084" y1="-0.0437638" x2="0.0772492" y2="-0.0437638" style="stroke:rgb(246,147,147);stroke-width:0.01" />
<line x1="-0.193584" y1="0.108225" x2="0.219437" y2="0.18332" style="stroke:rgb(246,147,147);stroke-width:0.01" />
<line x1="-0.00608413" y1="-0.106264" x2="-0.193584" y2="-0.0125138" style="stroke:rgb(246,147,147);stroke-width:0.01" />
<line x1="0.255821" y1="0.0901648" x2="0.1714" y2="0.174586" style="stroke:rgb(246,147,147);stroke-width:0.01" />
<line x1="0.127249" y1="-0.00626382" x2="-0.193584" y2="0.0395695" style="stroke:rgb(246,147,147);stroke-width:0.01" />
<line x1="0.193916" y1="0.0958195" x2="0.0189159" y2="0.146861" style="stroke:rgb(246,147,147);stroke-width:0.01" />
</g>
</svg>
