<svg xmlns="http://www.w3.org/2000/svg" viewBox="-1.5 -1.5 3 3">
<g transform="scale(1, -1)">
<path d="M0.278103 -0.247392 L0.353319 -0.055592 L-0.002734 0.466489 L-0.122588 0.461551 L-0.124644 0.189720 L-0.232699 -0.055592 L-0.092322 -0.209027 L-0.015517 -0.138758 L-0.015323 -0.138857 L-0.015060 -0.138341 L-0.010535 -0.134201 z " fill="rgb(245,195,195)" />
<path d="M-0.340660 -0.255592 L0.659340 -0.255592 L0.659340 0.744408 L-0.340660 0.744408  z" fill="none" stroke="rgb(128,128,128)" stroke-width="0.01" />
<line x1="0.278103" y1="-0.247392" x2="0.353319" y2="-0.0555923" style="stroke:rgb(246,147,147);stroke-width:0.01" />
<line x1="-0.0153233" y1="-0.138857" x2="0.166595" y2="0.218202" style="stroke:rgb(246,147,147);stroke-width:0.01" />
<line x1="-0.0923216" y1="-0.209027" x2="0.246532" y2="0.100989" style="stroke:rgb(246,147,147);stroke-width:0.01" />
<line x1="0.0593401" y1="-0.0555923" x2="0.253836" y2="0.0902797" style="stroke:rgb(246,147,147);stroke-width:0.01" />
<line x1="-0.0710119" y1="-0.110484" x2="0.253836" y2="0.0902797" style="stroke:rgb(246,147,147);stroke-width:0.01" />
<line x1="-0.232699" y1="-0.0555923" x2="-0.00273398" y2="0.466489" style="stroke:rgb(246,147,147);stroke-width:0.01" />
<line x1="-0.126701" y1="-0.0821111" x2="-0.122588" y2="0.461551" style="stroke:rgb(246,147,147);stroke-width:0.01" />
<line x1="-0.0710119" y1="-0.110484" x2="-0.122588" y2="0.461551" style="stroke:rgb(246,147,147);stroke-width:0.01" />
<line x1="-0.126701" y1="-0.0821111" x2="0.246532" y2="0.100989" style="stroke:rgb(246,147,147);stroke-width:0.01" />
<line x1="-0.0923216" y1="-0.209027" x2="-0.232699" y2="-0.0555923" style="stroke:rgb(246,147,147);stroke-width:0.01" />
<line x1="-0.232699" y1="-0.0555923" x2="0.353319" y2="-0.0555923" style="stroke:rgb(246,147,147);stroke-width:0.01" />
<line x1="0.278103" y1="-0.247392" x2="-0.0710119" y2="-0.110484" style="stroke:rgb(246,147,147);stroke-width:0.01" />
<line x1="-0.0153233" y1="-0.138857" x2="-0.126701" y2="-0.0821111" style="stroke:rgb(246,147,147);stroke-width:0.01" />
<line x1="0.0593401" y1="-0.0555923" x2="-0.124644" y2="0.18972" style="stroke:rgb(246,147,147);stroke-width:0.01" />
<line x1="0.353319" y1="-0.0555923" x2="-0.00273398" y2="0.466489" style="stroke:rgb(246,147,147);stroke-width:0.01" />
<line x1="-0.124644" y1="0.18972" x2="0.166595" y2="0.218202" style="stroke:rgb(246,147,147);stroke-width:0.01" />
<line x1="-0.122588" y1="0.461551" x2="-0.00273398" y2="0.466489" style="stroke:rgb(246,147,147);stroke-width:0.01" />
</g>
</svg>
