<svg xmlns="http://www.w3.org/2000/svg" viewBox="-1.5 -1.5 3 3">
<g transform="scale(1, -1)">
<path d="M0.618763 0.008200 L0.693979 0.200000 L0.337926 0.722082 L0.218072 0.717144 L0.216016 0.445312 L0.107961 0.200000 L0.248338 0.046565 L0.325143 0.116834 L0.325337 0.116735 L0.325600 0.117251 L0.330125 0.121392 z " fill="rgb(245,195,195)" />
<path d="M0.000000 0.000000 L1.000000 0.000000 L1.000000 1.000000 L0.000000 1.000000  z" fill="none" stroke="rgb(128,128,128)" stroke-width="0.01" />
<line x1="0.618763" y1="0.00819989" x2="0.693979" y2="0.2" style="stroke:rgb(246,147,147);stroke-width:0.01" />
<line x1="0.325337" y1="0.116735" x2="0.507255" y2="0.473794" style="stroke:rgb(246,147,147);stroke-width:0.01" />
<line x1="0.248338" y1="0.0465653" x2="0.587192" y2="0.356582" style="stroke:rgb(246,147,147);stroke-width:0.01" />
<line x1="0.4" y1="0.2" x2="0.594496" y2="0.345872" style="stroke:rgb(246,147,147);stroke-width:0.01" />
<line x1="0.269648" y1="0.145108" x2="0.594496" y2="0.345872" style="stroke:rgb(246,147,147);stroke-width:0.01" />
<line x1="0.107961" y1="0.2" x2="0.337926" y2="0.722082" style="stroke:rgb(246,147,147);stroke-width:0.01" />
<line x1="0.213959" y1="0.173481" x2="0.218072" y2="0.717144" style="stroke:rgb(246,147,147);stroke-width:0.01" />
<line x1="0.269648" y1="0.145108" x2="0.218072" y2="0.717144" style="stroke:rgb(246,147,147);stroke-width:0.01" />
<line x1="0.213959" y1="0.173481" x2="0.587192" y2="0.356582" style="stroke:rgb(246,147,147);stroke-width:0.01" />
<line x1="0.248338" y1="0.0465653" x2="0.107961" y2="0.2" style="stroke:rgb(246,147,147);stroke-width:0.01" />
<line x1="0.107961" y1="0.2" x2="0.693979" y2="0.2" style="stroke:rgb(246,147,147);stroke-width:0.01" />
<line x1="0.618763" y1="0.00819989" x2="0.269648" y2="0.145108" style="stroke:rgb(246,147,147);stroke-width:0.01" />
<line x1="0.325337" y1="0.116735" x2="0.213959" y2="0.173481" style="stroke:rgb(246,147,147);stroke-width:0.01" />
<line x1="0.4" y1="0.2" x2="0.216016" y2="0.445312" style="stroke:rgb(246,147,147);stroke-width:0.01" />
<line x1="0.693979" y1="0.2" x2="0.337926" y2="0.722082" style="stroke:rgb(246,147,147);stroke-width:0.01" />
<line x1="0.216016" y1="0.445312" x2="0.507255" y2="0.473794" style="stroke:rgb(246,147,147);stroke-width:0.01" />
<line x1="0.218072" y1="0.717144" x2="0.337926" y2="0.722082" style="stroke:rgb(246,147,147);stroke-width:0.01" />
</g>
</svg>
