<svg xmlns="http://www.w3.org/2000/svg" viewBox="-1.5 -1.5 3 3">
<g transform="scale(1, -1)">
<path d="M0.540905 0.367309 L0.662570 0.395991 L0.759021 0.804009 L1.124016 0.890055 L1.098919 0.996511 L0.669390 1.184212 L0.613110 1.137271 L0.418275 0.600000 L0.433219 0.587521 L0.463500 0.507000 L0.504352 0.522363 z " fill="rgb(245,195,195)" />
<path d="M0.000000 0.000000 L1.000000 0.000000 L1.000000 1.000000 L0.000000 1.000000  z" fill="none" stroke="rgb(128,128,128)" stroke-width="0.01" />
<line x1="0.759021" y1="0.804009" x2="0.884155" y2="1.09036" style="stroke:rgb(246,147,147);stroke-width:0.01" />
<line x1="0.66257" y1="0.395991" x2="0.759021" y2="0.804009" style="stroke:rgb(246,147,147);stroke-width:0.01" />
<line x1="0.418275" y1="0.6" x2="0.61311" y2="1.13727" style="stroke:rgb(246,147,147);stroke-width:0.01" />
<line x1="0.540905" y1="0.367309" x2="0.459348" y2="0.713261" style="stroke:rgb(246,147,147);stroke-width:0.01" />
<line x1="0.710795" y1="0.6" x2="0.61311" y2="1.13727" style="stroke:rgb(246,147,147);stroke-width:0.01" />
<line x1="0.759021" y1="0.804009" x2="0.66939" y2="1.18421" style="stroke:rgb(246,147,147);stroke-width:0.01" />
<line x1="0.4635" y1="0.507" x2="0.423307" y2="0.613876" style="stroke:rgb(246,147,147);stroke-width:0.01" />
<line x1="0.540905" y1="0.367309" x2="0.66257" y2="0.395991" style="stroke:rgb(246,147,147);stroke-width:0.01" />
<line x1="0.459348" y1="0.713261" x2="0.6625" y2="0.865625" style="stroke:rgb(246,147,147);stroke-width:0.01" />
<line x1="0.423307" y1="0.613876" x2="1.09892" y2="0.996511" style="stroke:rgb(246,147,147);stroke-width:0.01" />
<line x1="0.4635" y1="0.507" x2="0.710795" y2="0.6" style="stroke:rgb(246,147,147);stroke-width:0.01" />
<line x1="1.12402" y1="0.890055" x2="1.09892" y2="0.996511" style="stroke:rgb(246,147,147);stroke-width:0.01" />
<line x1="0.61311" y1="1.13727" x2="0.66939" y2="1.18421" style="stroke:rgb(246,147,147);stroke-width:0.01" />
<line x1="0.66257" y1="0.395991" x2="0.418275" y2="0.6" style="stroke:rgb(246,147,147);stroke-width:0.01" />
<line x1="0.759021" y1="0.804009" x2="1.12402" y2="0.890055" style="stroke:rgb(246,147,147);stroke-width:0.01" />
<line x1="0.418275" y1="0.6" x2="0.710795" y2="0.6" style="stroke:rgb(246,147,147);stroke-width:0.01" />
<line x1="0.759021" y1="0.804009" x2="0.573095" y2="1.02693" style="stroke:rgb(246,147,147);stroke-width:0.01" />
<line x1="0.573095" y1="1.02693" x2="0.63125" y2="1.0375" style="stroke:rgb(246,147,147);stroke-width:0.01" />
<line x1="0.759021" y1="0.804009" x2="0.528748" y2="0.904636" style="stroke:rgb(246,147,147);stroke-width:0.01" />
<line x1="0.6625" y1="0.865625" x2="0.528748" y2="0.904636" style="stroke:rgb(246,147,147);stroke-width:0.01" />
<line x1="1.09892" y1="0.996511" x2="0.66939" y2="1.18421" style="stroke:rgb(246,147,147);stroke-width:0.01" />
</g>
</svg>
