<svg xmlns="http://www.w3.org/2000/svg" viewBox="-1.5 -1.5 3 3">
<g transform="scale(1, -1)">
<path d="M-0.121575 -0.359258 L0.000090 -0.330576 L0.096542 0.077441 L0.461536 0.163487 L0.436439 0.269944 L0.006910 0.457644 L-0.049370 0.410703 L-0.244204 -0.126567 L-0.229261 -0.139046 L-0.198980 -0.219567 L-0.158128 -0.204204 z " fill="rgb(245,195,195)" />
<path d="M-0.662480 -0.726567 L0.337520 -0.726567 L0.337520 0.273433 L-0.662480 0.273433  z" fill="none" stroke="rgb(128,128,128)" stroke-width="0.01" />
<line x1="0.0965415" y1="0.0774414" x2="0.221675" y2="0.363794" style="stroke:rgb(246,147,147);stroke-width:0.01" />
<line x1="9.00735e-05" y1="-0.330576" x2="0.0965415" y2="0.0774414" style="stroke:rgb(246,147,147);stroke-width:0.01" />
<line x1="-0.244204" y1="-0.126567" x2="-0.0493698" y2="0.410703" style="stroke:rgb(246,147,147);stroke-width:0.01" />
<line x1="-0.121575" y1="-0.359258" x2="-0.203131" y2="-0.0133063" style="stroke:rgb(246,147,147);stroke-width:0.01" />
<line x1="0.0483158" y1="-0.126567" x2="-0.0493698" y2="0.410703" style="stroke:rgb(246,147,147);stroke-width:0.01" />
<line x1="0.0965415" y1="0.0774414" x2="0.00691038" y2="0.457644" style="stroke:rgb(246,147,147);stroke-width:0.01" />
<line x1="-0.19898" y1="-0.219567" x2="-0.239172" y2="-0.112692" style="stroke:rgb(246,147,147);stroke-width:0.01" />
<line x1="-0.121575" y1="-0.359258" x2="9.00735e-05" y2="-0.330576" style="stroke:rgb(246,147,147);stroke-width:0.01" />
<line x1="-0.203131" y1="-0.0133063" x2="2.03393e-05" y2="0.139058" style="stroke:rgb(246,147,147);stroke-width:0.01" />
<line x1="-0.239172" y1="-0.112692" x2="0.436439" y2="0.269944" style="stroke:rgb(246,147,147);stroke-width:0.01" />
<line x1="-0.19898" y1="-0.219567" x2="0.0483158" y2="-0.126567" style="stroke:rgb(246,147,147);stroke-width:0.01" />
<line x1="0.461536" y1="0.163487" x2="0.436439" y2="0.269944" style="stroke:rgb(246,147,147);stroke-width:0.01" />
<line x1="-0.0493698" y1="0.410703" x2="0.00691038" y2="0.457644" style="stroke:rgb(246,147,147);stroke-width:0.01" />
<line x1="9.00735e-05" y1="-0.330576" x2="-0.244204" y2="-0.126567" style="stroke:rgb(246,147,147);stroke-width:0.01" />
<line x1="0.0965415" y1="0.0774414" x2="0.461536" y2="0.163487" style="stroke:rgb(246,147,147);stroke-width:0.01" />
<line x1="-0.244204" y1="-0.126567" x2="0.0483158" y2="-0.126567" style="stroke:rgb(246,147,147);stroke-width:0.01" />
<line x1="0.0965415" y1="0.0774414" x2="-0.0893847" y2="0.300359" style="stroke:rgb(246,147,147);stroke-width:0.01" />
<line x1="-0.0893847" y1="0.300359" x2="-0.0312297" y2="0.310933" style="stroke:rgb(246,147,147);stroke-width:0.01" />
<line x1="0.0965415" y1="0.0774414" x2="-0.133732" y2="0.178069" style="stroke:rgb(246,147,147);stroke-width:0.01" />
<line x1="2.03393e-05" y1="0.139058" x2="-0.133732" y2="0.178069" style="stroke:rgb(246,147,147);stroke-width:0.01" />
<line x1="0.436439" y1="0.269944" x2="0.00691038" y2="0.457644" style="stroke:rgb(246,147,147);stroke-width:0.01" />
</g>
</svg>
