<svg xmlns="http://www.w3.org/2000/svg" viewBox="-1.5 -1.5 3 3">
<g transform="scale(1, -1)">
<path d="M-0.144701 -0.514025 L-0.095401 -0.473752 L-0.101125 -0.448310 L0.437987 0.364714 L0.375701 0.473091 L0.231199 0.390043 L0.078176 0.408786 L-0.316303 0.023062 L-0.465531 -0.223609 z " fill="rgb(245,195,195)" />
<path d="M-1.182763 -1.854830 L-0.182763 -1.854830 L-0.182763 -0.854830 L-1.182763 -0.854830  z" fill="none" stroke="rgb(128,128,128)" stroke-width="0.01" />
<line x1="-0.393521" y1="-0.234282" x2="-0.316303" y2="0.0230622" style="stroke:rgb(246,147,147);stroke-width:0.01" />
<line x1="-0.144701" y1="-0.514025" x2="0.437987" y2="0.364714" style="stroke:rgb(246,147,147);stroke-width:0.01" />
<line x1="-0.427675" y1="-0.257877" x2="-0.368477" y2="-0.150819" style="stroke:rgb(246,147,147);stroke-width:0.01" />
<line x1="-0.368477" y1="-0.150819" x2="-0.186502" y2="0.149982" style="stroke:rgb(246,147,147);stroke-width:0.01" />
<line x1="-0.465531" y1="-0.223609" x2="-0.316303" y2="0.0230622" style="stroke:rgb(246,147,147);stroke-width:0.01" />
<line x1="0.129053" y1="-0.101183" x2="0.0781755" y2="0.408786" style="stroke:rgb(246,147,147);stroke-width:0.01" />
<line x1="-0.144701" y1="-0.514025" x2="-0.0954008" y2="-0.473752" style="stroke:rgb(246,147,147);stroke-width:0.01" />
<line x1="-0.0954008" y1="-0.473752" x2="-0.177718" y2="-0.107898" style="stroke:rgb(246,147,147);stroke-width:0.01" />
<line x1="-0.393521" y1="-0.234282" x2="-0.424901" y2="-0.156448" style="stroke:rgb(246,147,147);stroke-width:0.01" />
<line x1="-0.316303" y1="0.0230622" x2="0.0781755" y2="0.408786" style="stroke:rgb(246,147,147);stroke-width:0.01" />
<line x1="-0.465531" y1="-0.223609" x2="-0.368477" y2="-0.150819" style="stroke:rgb(246,147,147);stroke-width:0.01" />
<line x1="-0.427675" y1="-0.257877" x2="-0.393521" y2="-0.234282" style="stroke:rgb(246,147,147);stroke-width:0.01" />
<line x1="-0.281584" y1="-0.390119" x2="-0.420274" y2="-0.1488" style="stroke:rgb(246,147,147);stroke-width:0.01" />
<line x1="-0.186502" y1="0.149982" x2="0.375701" y2="0.473091" style="stroke:rgb(246,147,147);stroke-width:0.01" />
<line x1="0.437987" y1="0.364714" x2="0.375701" y2="0.473091" style="stroke:rgb(246,147,147);stroke-width:0.01" />
<line x1="-0.144701" y1="-0.514025" x2="-0.465531" y2="-0.223609" style="stroke:rgb(246,147,147);stroke-width:0.01" />
<line x1="-0.368477" y1="-0.150819" x2="-0.177718" y2="-0.107898" style="stroke:rgb(246,147,147);stroke-width:0.01" />
<line x1="-0.0954008" y1="-0.473752" x2="-0.281584" y2="-0.390119" style="stroke:rgb(246,147,147);stroke-width:0.01" />
<line x1="-0.424901" y1="-0.156448" x2="0.129053" y2="-0.101183" style="stroke:rgb(246,147,147);stroke-width:0.01" />
<line x1="-0.368477" y1="-0.150819" x2="-0.40729" y2="-0.127338" style="stroke:rgb(246,147,147);stroke-width:0.01" />
<line x1="-0.368477" y1="-0.150819" x2="-0.420274" y2="-0.1488" style="stroke:rgb(246,147,147);stroke-width:0.01" />
<line x1="0.437987" y1="0.364714" x2="0.0781755" y2="0.408786" style="stroke:rgb(246,147,147);stroke-width:0.01" />
</g>
</svg>
