<svg xmlns="http://www.w3.org/2000/svg" viewBox="-1.5 -1.5 3 3">
<g transform="scale(1, -1)">
<path d="M0.000000 0.000000 L0.900000 0.000000 L0.900000 0.037037 L0.962963 0.037037 L0.962963 0.937037 L0.900000 0.937037 L0.000000 0.037037 z " fill="rgb(245,195,195)" />
<path d="M0.000000 0.000000 L1.000000 0.000000 L1.000000 1.000000 L0.000000 1.000000  z" fill="none" stroke="rgb(128,128,128)" stroke-width="0.01" />
<line x1="0" y1="0" x2="0.9" y2="0" style="stroke:rgb(246,147,147);stroke-width:0.01" />
<line x1="0" y1="0" x2="0" y2="0.037037" style="stroke:rgb(246,147,147);stroke-width:0.01" />
<line x1="0.8" y1="0" x2="0.8" y2="0.837037" style="stroke:rgb(246,147,147);stroke-width:0.01" />
<line x1="0.9" y1="0" x2="0.9" y2="0.937037" style="stroke:rgb(246,147,147);stroke-width:0.01" />
<line x1="0.962963" y1="0.037037" x2="0.962963" y2="0.937037" style="stroke:rgb(246,147,147);stroke-width:0.01" />
<line x1="0" y1="0.037037" x2="0.9" y2="0.937037" style="stroke:rgb(246,147,147);stroke-width:0.01" />
<line x1="0" y1="0.037037" x2="0.962963" y2="0.037037" style="stroke:rgb(246,147,147);stroke-width:0.01" />
<line x1="0.8" y1="0.837037" x2="0.962963" y2="0.837037" style="stroke:rgb(246,147,147);stroke-width:0.01" />
<line x1="0.9" y1="0.937037" x2="0.962963" y2="0.937037" style="stroke:rgb(246,147,147);stroke-width:0.01" />
</g>
</svg>
