<svg xmlns="http://www.w3.org/2000/svg" viewBox="-1.5 -1.5 3 3">
<g transform="scale(1, -1)">
<path d="M-0.660847 -0.283598 L0.239153 -0.283598 L0.239153 -0.246561 L0.302116 -0.246561 L0.302116 0.653439 L0.239153 0.653439 L-0.660847 -0.246561 z " fill="rgb(245,195,195)" />
<path d="M-0.660847 -0.283598 L0.339153 -0.283598 L0.339153 0.716402 L-0.660847 0.716402  z" fill="none" stroke="rgb(128,128,128)" stroke-width="0.01" />
<line x1="-0.660847" y1="-0.283598" x2="0.239153" y2="-0.283598" style="stroke:rgb(246,147,147);stroke-width:0.01" />
<line x1="-0.660847" y1="-0.283598" x2="-0.660847" y2="-0.246561" style="stroke:rgb(246,147,147);stroke-width:0.01" />
<line x1="0.139153" y1="-0.283598" x2="0.139153" y2="0.553439" style="stroke:rgb(246,147,147);stroke-width:0.01" />
<line x1="0.239153" y1="-0.283598" x2="0.239153" y2="0.653439" style="stroke:rgb(246,147,147);stroke-width:0.01" />
<line x1="0.302116" y1="-0.246561" x2="0.302116" y2="0.653439" style="stroke:rgb(246,147,147);stroke-width:0.01" />
<line x1="-0.660847" y1="-0.246561" x2="0.239153" y2="0.653439" style="stroke:rgb(246,147,147);stroke-width:0.01" />
<line x1="-0.660847" y1="-0.246561" x2="0.302116" y2="-0.246561" style="stroke:rgb(246,147,147);stroke-width:0.01" />
<line x1="0.139153" y1="0.553439" x2="0.302116" y2="0.553439" style="stroke:rgb(246,147,147);stroke-width:0.01" />
<line x1="0.239153" y1="0.653439" x2="0.302116" y2="0.653439" style="stroke:rgb(246,147,147);stroke-width:0.01" />
</g>
</svg>
