<svg xmlns="http://www.w3.org/2000/svg" viewBox="-1.5 -1.5 3 3">
<g transform="scale(1, -1)">
<path d="M0.050667 -0.320109 L0.280556 -0.013590 L0.256326 0.218687 L0.080826 0.284687 L0.024909 0.135999 L-0.014674 0.165687 L-0.186833 -0.063859 L-0.159302 -0.093564 L-0.177174 -0.096813 L-0.155299 -0.217126 z " fill="rgb(245,195,195)" />
<path d="M-0.777174 -1.071813 L0.222826 -1.071813 L0.222826 -0.071813 L-0.777174 -0.071813  z" fill="none" stroke="rgb(128,128,128)" stroke-width="0.01" />
<line x1="0.210468" y1="-0.107041" x2="0.235326" y2="-0.0218132" style="stroke:rgb(246,147,147);stroke-width:0.01" />
<line x1="0.0506666" y1="-0.320109" x2="0.280556" y2="-0.0135895" style="stroke:rgb(246,147,147);stroke-width:0.01" />
<line x1="-0.0896743" y1="-0.168688" x2="0.0808257" y2="0.284687" style="stroke:rgb(246,147,147);stroke-width:0.01" />
<line x1="-0.0141061" y1="-0.250222" x2="0.185326" y2="0.0156868" style="stroke:rgb(246,147,147);stroke-width:0.01" />
<line x1="0.235326" y1="-0.0738966" x2="0.235326" y2="-0.0218132" style="stroke:rgb(246,147,147);stroke-width:0.01" />
<line x1="-0.186833" y1="-0.0638587" x2="-0.0146743" y2="0.165687" style="stroke:rgb(246,147,147);stroke-width:0.01" />
<line x1="0.280556" y1="-0.0135895" x2="0.256326" y2="0.218687" style="stroke:rgb(246,147,147);stroke-width:0.01" />
<line x1="-0.155299" y1="-0.217126" x2="-0.177174" y2="-0.0968132" style="stroke:rgb(246,147,147);stroke-width:0.01" />
<line x1="-0.0141061" y1="-0.250222" x2="0.210468" y2="-0.107041" style="stroke:rgb(246,147,147);stroke-width:0.01" />
<line x1="-0.155299" y1="-0.217126" x2="0.235326" y2="-0.0218132" style="stroke:rgb(246,147,147);stroke-width:0.01" />
<line x1="-0.186833" y1="-0.0638587" x2="0.256326" y2="0.218687" style="stroke:rgb(246,147,147);stroke-width:0.01" />
<line x1="-0.0896743" y1="-0.168688" x2="0.235326" y2="-0.0738966" style="stroke:rgb(246,147,147);stroke-width:0.01" />
<line x1="0.0506666" y1="-0.320109" x2="-0.186833" y2="-0.0638587" style="stroke:rgb(246,147,147);stroke-width:0.01" />
<line x1="-0.177174" y1="-0.0968132" x2="0.280556" y2="-0.0135895" style="stroke:rgb(246,147,147);stroke-width:0.01" />
<line x1="0.254857" y1="-0.0478549" x2="0.235326" y2="-0.0218132" style="stroke:rgb(246,147,147);stroke-width:0.01" />
<line x1="0.0506666" y1="-0.320109" x2="-0.155299" y2="-0.217126" style="stroke:rgb(246,147,147);stroke-width:0.01" />
<line x1="0.260326" y1="-0.0405632" x2="-0.0146743" y2="0.165687" style="stroke:rgb(246,147,147);stroke-width:0.01" />
<line x1="0.254857" y1="-0.0478549" x2="-0.00717428" y2="0.0506868" style="stroke:rgb(246,147,147);stroke-width:0.01" />
<line x1="0.256326" y1="0.218687" x2="0.0808257" y2="0.284687" style="stroke:rgb(246,147,147);stroke-width:0.01" />
</g>
</svg>
