<svg xmlns="http://www.w3.org/2000/svg" viewBox="-1.5 -1.5 3 3">
<g transform="scale(1, -1)">
<path d="M0.825701 -0.074862 L1.077776 0.342551 L0.614434 0.711987 L0.441079 0.615391 L0.536377 0.444366 L0.460000 0.182500 L0.620898 0.135571 L0.615941 -0.069798 z " fill="rgb(245,195,195)" />
<path d="M0.000000 0.000000 L1.000000 0.000000 L1.000000 1.000000 L0.000000 1.000000  z" fill="none" stroke="rgb(128,128,128)" stroke-width="0.01" />
<line x1="0.825701" y1="-0.0748617" x2="1.07778" y2="0.342551" style="stroke:rgb(246,147,147);stroke-width:0.01" />
<line x1="0.9625" y1="0.23125" x2="1.07778" y2="0.342551" style="stroke:rgb(246,147,147);stroke-width:0.01" />
<line x1="0.9625" y1="0.23125" x2="1.01847" y2="0.389836" style="stroke:rgb(246,147,147);stroke-width:0.01" />
<line x1="0.684456" y1="0.178621" x2="0.91563" y2="0.471835" style="stroke:rgb(246,147,147);stroke-width:0.01" />
<line x1="0.64" y1="0.13" x2="0.91563" y2="0.471835" style="stroke:rgb(246,147,147);stroke-width:0.01" />
<line x1="0.659032" y1="0.121525" x2="0.684456" y2="0.178621" style="stroke:rgb(246,147,147);stroke-width:0.01" />
<line x1="0.620968" y1="0.138475" x2="1.01847" y2="0.389836" style="stroke:rgb(246,147,147);stroke-width:0.01" />
<line x1="0.46" y1="0.1825" x2="0.614434" y2="0.711987" style="stroke:rgb(246,147,147);stroke-width:0.01" />
<line x1="0.64" y1="0.13" x2="0.9625" y2="0.23125" style="stroke:rgb(246,147,147);stroke-width:0.01" />
<line x1="0.825701" y1="-0.0748617" x2="0.615941" y2="-0.0697981" style="stroke:rgb(246,147,147);stroke-width:0.01" />
<line x1="0.615941" y1="-0.0697981" x2="0.620968" y2="0.138475" style="stroke:rgb(246,147,147);stroke-width:0.01" />
<line x1="0.97455" y1="0.171618" x2="0.684456" y2="0.178621" style="stroke:rgb(246,147,147);stroke-width:0.01" />
<line x1="0.441079" y1="0.615391" x2="0.614434" y2="0.711987" style="stroke:rgb(246,147,147);stroke-width:0.01" />
<line x1="0.64" y1="0.13" x2="0.46" y2="0.1825" style="stroke:rgb(246,147,147);stroke-width:0.01" />
<line x1="0.825701" y1="-0.0748617" x2="0.441079" y2="0.615391" style="stroke:rgb(246,147,147);stroke-width:0.01" />
<line x1="0.883845" y1="0.0214194" x2="0.620968" y2="0.138475" style="stroke:rgb(246,147,147);stroke-width:0.01" />
<line x1="0.883845" y1="0.0214194" x2="0.684456" y2="0.178621" style="stroke:rgb(246,147,147);stroke-width:0.01" />
<line x1="0.97455" y1="0.171618" x2="0.720625" y2="0.627318" style="stroke:rgb(246,147,147);stroke-width:0.01" />
<line x1="1.07778" y1="0.342551" x2="0.614434" y2="0.711987" style="stroke:rgb(246,147,147);stroke-width:0.01" />
<line x1="0.720625" y1="0.627318" x2="0.6" y2="0.6625" style="stroke:rgb(246,147,147);stroke-width:0.01" />
</g>
</svg>
