<svg xmlns="http://www.w3.org/2000/svg" viewBox="-1.5 -1.5 3 3">
<g transform="scale(1, -1)">
<path d="M0.176675 -0.360825 L0.428750 0.056587 L-0.034592 0.426024 L-0.207947 0.329427 L-0.112648 0.158402 L-0.189026 -0.103463 L-0.028128 -0.150392 L-0.033085 -0.355761 z " fill="rgb(245,195,195)" />
<path d="M-0.649026 -0.285963 L0.350974 -0.285963 L0.350974 0.714037 L-0.649026 0.714037  z" fill="none" stroke="rgb(128,128,128)" stroke-width="0.01" />
<line x1="0.176675" y1="-0.360825" x2="0.42875" y2="0.0565875" style="stroke:rgb(246,147,147);stroke-width:0.01" />
<line x1="0.313474" y1="-0.0547132" x2="0.42875" y2="0.0565875" style="stroke:rgb(246,147,147);stroke-width:0.01" />
<line x1="0.313474" y1="-0.0547132" x2="0.369446" y2="0.103873" style="stroke:rgb(246,147,147);stroke-width:0.01" />
<line x1="0.0354299" y1="-0.107342" x2="0.266604" y2="0.185871" style="stroke:rgb(246,147,147);stroke-width:0.01" />
<line x1="-0.00902568" y1="-0.155963" x2="0.266604" y2="0.185871" style="stroke:rgb(246,147,147);stroke-width:0.01" />
<line x1="0.0100061" y1="-0.164438" x2="0.0354299" y2="-0.107342" style="stroke:rgb(246,147,147);stroke-width:0.01" />
<line x1="-0.0280575" y1="-0.147489" x2="0.369446" y2="0.103873" style="stroke:rgb(246,147,147);stroke-width:0.01" />
<line x1="-0.189026" y1="-0.103463" x2="-0.0345919" y2="0.426024" style="stroke:rgb(246,147,147);stroke-width:0.01" />
<line x1="-0.00902568" y1="-0.155963" x2="0.313474" y2="-0.0547132" style="stroke:rgb(246,147,147);stroke-width:0.01" />
<line x1="0.176675" y1="-0.360825" x2="-0.0330852" y2="-0.355761" style="stroke:rgb(246,147,147);stroke-width:0.01" />
<line x1="-0.0330852" y1="-0.355761" x2="-0.0280575" y2="-0.147489" style="stroke:rgb(246,147,147);stroke-width:0.01" />
<line x1="0.325524" y1="-0.114345" x2="0.0354299" y2="-0.107342" style="stroke:rgb(246,147,147);stroke-width:0.01" />
<line x1="-0.207947" y1="0.329427" x2="-0.0345919" y2="0.426024" style="stroke:rgb(246,147,147);stroke-width:0.01" />
<line x1="-0.00902568" y1="-0.155963" x2="-0.189026" y2="-0.103463" style="stroke:rgb(246,147,147);stroke-width:0.01" />
<line x1="0.176675" y1="-0.360825" x2="-0.207947" y2="0.329427" style="stroke:rgb(246,147,147);stroke-width:0.01" />
<line x1="0.234819" y1="-0.264544" x2="-0.0280575" y2="-0.147489" style="stroke:rgb(246,147,147);stroke-width:0.01" />
<line x1="0.234819" y1="-0.264544" x2="0.0354299" y2="-0.107342" style="stroke:rgb(246,147,147);stroke-width:0.01" />
<line x1="0.325524" y1="-0.114345" x2="0.0715993" y2="0.341354" style="stroke:rgb(246,147,147);stroke-width:0.01" />
<line x1="0.42875" y1="0.0565875" x2="-0.0345919" y2="0.426024" style="stroke:rgb(246,147,147);stroke-width:0.01" />
<line x1="0.0715993" y1="0.341354" x2="-0.0490257" y2="0.376537" style="stroke:rgb(246,147,147);stroke-width:0.01" />
</g>
</svg>
