<svg xmlns="http://www.w3.org/2000/svg" viewBox="-1.5 -1.5 3 3">
<g transform="scale(1, -1)">
<path d="M-0.163260 0.584684 L0.223634 0.935837 L0.123115 1.140931 L-0.012844 1.081631 L-0.040611 1.098749 L-0.088348 1.069174 L-0.100000 1.075000 L-0.200000 1.000000 L-0.523115 0.859069 L-0.540031 0.684817 L-0.258776 0.657513 z " fill="rgb(245,195,195)" />
<path d="M0.000000 0.000000 L1.000000 0.000000 L1.000000 1.000000 L0.000000 1.000000  z" fill="none" stroke="rgb(128,128,128)" stroke-width="0.01" />
<line x1="-0.1" y1="0.6421" x2="-0.1" y2="1.075" style="stroke:rgb(246,147,147);stroke-width:0.01" />
<line x1="-0.264729" y1="0.662053" x2="-0.26226" y2="0.972844" style="stroke:rgb(246,147,147);stroke-width:0.01" />
<line x1="-0.0796364" y1="0.660582" x2="-0.0406111" y2="1.09875" style="stroke:rgb(246,147,147);stroke-width:0.01" />
<line x1="-0.540031" y1="0.684817" x2="-0.523115" y2="0.859069" style="stroke:rgb(246,147,147);stroke-width:0.01" />
<line x1="-0.16326" y1="0.584684" x2="-0.359389" y2="0.901251" style="stroke:rgb(246,147,147);stroke-width:0.01" />
<line x1="0.20754" y1="0.92123" x2="0.123115" y2="1.14093" style="stroke:rgb(246,147,147);stroke-width:0.01" />
<line x1="0.000210286" y1="0.733053" x2="-0.2" y2="1" style="stroke:rgb(246,147,147);stroke-width:0.01" />
<line x1="0.223634" y1="0.935837" x2="0.123115" y2="1.14093" style="stroke:rgb(246,147,147);stroke-width:0.01" />
<line x1="-0.16326" y1="0.584684" x2="-0.523115" y2="0.859069" style="stroke:rgb(246,147,147);stroke-width:0.01" />
<line x1="0.000210286" y1="0.733053" x2="-0.26226" y2="0.972844" style="stroke:rgb(246,147,147);stroke-width:0.01" />
<line x1="-0.16326" y1="0.584684" x2="0.223634" y2="0.935837" style="stroke:rgb(246,147,147);stroke-width:0.01" />
<line x1="-0.1" y1="0.6421" x2="-0.540031" y2="0.684817" style="stroke:rgb(246,147,147);stroke-width:0.01" />
<line x1="-0.0796364" y1="0.660582" x2="-0.264729" y2="0.662053" style="stroke:rgb(246,147,147);stroke-width:0.01" />
<line x1="-0.2" y1="1" x2="-0.1" y2="1.075" style="stroke:rgb(246,147,147);stroke-width:0.01" />
<line x1="0.223634" y1="0.935837" x2="-0.0406111" y2="1.09875" style="stroke:rgb(246,147,147);stroke-width:0.01" />
<line x1="-0.359389" y1="0.901251" x2="-0.0406111" y2="1.09875" style="stroke:rgb(246,147,147);stroke-width:0.01" />
<line x1="0.20754" y1="0.92123" x2="-0.1" y2="1.075" style="stroke:rgb(246,147,147);stroke-width:0.01" />
<line x1="-0.523115" y1="0.859069" x2="0.123115" y2="1.14093" style="stroke:rgb(246,147,147);stroke-width:0.01" />
</g>
</svg>
