<svg xmlns="http://www.w3.org/2000/svg" viewBox="-1.5 -1.5 3 3">
<g transform="scale(1, -1)">
<path d="M-0.019602 -0.341444 L0.367292 0.009709 L0.266773 0.214803 L0.130814 0.155503 L0.103047 0.172622 L0.055310 0.143046 L0.043658 0.148872 L-0.056342 0.073872 L-0.379457 -0.067059 L-0.396373 -0.241311 L-0.115118 -0.268614 z " fill="rgb(245,195,195)" />
<path d="M0.143658 -0.926128 L1.143658 -0.926128 L1.143658 0.073872 L0.143658 0.073872  z" fill="none" stroke="rgb(128,128,128)" stroke-width="0.01" />
<line x1="0.0436579" y1="-0.284028" x2="0.0436579" y2="0.148872" style="stroke:rgb(246,147,147);stroke-width:0.01" />
<line x1="-0.121071" y1="-0.264075" x2="-0.118602" y2="0.0467167" style="stroke:rgb(246,147,147);stroke-width:0.01" />
<line x1="0.0640214" y1="-0.265546" x2="0.103047" y2="0.172622" style="stroke:rgb(246,147,147);stroke-width:0.01" />
<line x1="-0.396373" y1="-0.241311" x2="-0.379457" y2="-0.0670589" style="stroke:rgb(246,147,147);stroke-width:0.01" />
<line x1="-0.0196019" y1="-0.341444" x2="-0.215731" y2="-0.0248771" style="stroke:rgb(246,147,147);stroke-width:0.01" />
<line x1="0.351198" y1="-0.00489765" x2="0.266773" y2="0.214803" style="stroke:rgb(246,147,147);stroke-width:0.01" />
<line x1="0.143868" y1="-0.193075" x2="-0.0563421" y2="0.0738723" style="stroke:rgb(246,147,147);stroke-width:0.01" />
<line x1="0.367292" y1="0.00970947" x2="0.266773" y2="0.214803" style="stroke:rgb(246,147,147);stroke-width:0.01" />
<line x1="-0.0196019" y1="-0.341444" x2="-0.379457" y2="-0.0670589" style="stroke:rgb(246,147,147);stroke-width:0.01" />
<line x1="0.143868" y1="-0.193075" x2="-0.118602" y2="0.0467167" style="stroke:rgb(246,147,147);stroke-width:0.01" />
<line x1="-0.0196019" y1="-0.341444" x2="0.367292" y2="0.00970947" style="stroke:rgb(246,147,147);stroke-width:0.01" />
<line x1="0.0436579" y1="-0.284028" x2="-0.396373" y2="-0.241311" style="stroke:rgb(246,147,147);stroke-width:0.01" />
<line x1="0.0640214" y1="-0.265546" x2="-0.121071" y2="-0.264075" style="stroke:rgb(246,147,147);stroke-width:0.01" />
<line x1="-0.0563421" y1="0.0738723" x2="0.0436579" y2="0.148872" style="stroke:rgb(246,147,147);stroke-width:0.01" />
<line x1="0.367292" y1="0.00970947" x2="0.103047" y2="0.172622" style="stroke:rgb(246,147,147);stroke-width:0.01" />
<line x1="-0.215731" y1="-0.0248771" x2="0.103047" y2="0.172622" style="stroke:rgb(246,147,147);stroke-width:0.01" />
<line x1="0.351198" y1="-0.00489765" x2="0.0436579" y2="0.148872" style="stroke:rgb(246,147,147);stroke-width:0.01" />
<line x1="-0.379457" y1="-0.0670589" x2="0.266773" y2="0.214803" style="stroke:rgb(246,147,147);stroke-width:0.01" />
</g>
</svg>
