<svg xmlns="http://www.w3.org/2000/svg" viewBox="-1.5 -1.5 3 3">
<g transform="scale(1, -1)">
<path d="M0.241140 0.956250 L0.262500 0.956250 L0.450000 1.050000 L0.450000 1.362500 L0.200000 1.362500 L0.196064 1.401364 L-0.180570 1.708731 L-0.167976 1.584367 L0.048064 1.243252 L-0.002218 1.176209 z " fill="rgb(245,195,195)" />
<path d="M0.000000 0.000000 L1.000000 0.000000 L1.000000 1.000000 L0.000000 1.000000  z" fill="none" stroke="rgb(128,128,128)" stroke-width="0.01" />
<line x1="-0.167976" y1="1.58437" x2="-0.18057" y2="1.70873" style="stroke:rgb(246,147,147);stroke-width:0.01" />
<line x1="0.2" y1="0.993434" x2="0.2" y2="1.3625" style="stroke:rgb(246,147,147);stroke-width:0.01" />
<line x1="0.45" y1="1.05" x2="0.45" y2="1.3625" style="stroke:rgb(246,147,147);stroke-width:0.01" />
<line x1="0.068268" y1="1.1125" x2="0.0563521" y2="1.23017" style="stroke:rgb(246,147,147);stroke-width:0.01" />
<line x1="0.24114" y1="0.95625" x2="0.196064" y2="1.40136" style="stroke:rgb(246,147,147);stroke-width:0.01" />
<line x1="0.205904" y1="0.994032" x2="0.232797" y2="1.03864" style="stroke:rgb(246,147,147);stroke-width:0.01" />
<line x1="0.0563521" y1="1.23017" x2="0.153167" y2="1.39074" style="stroke:rgb(246,147,147);stroke-width:0.01" />
<line x1="0.214695" y1="0.980153" x2="-0.167976" y2="1.58437" style="stroke:rgb(246,147,147);stroke-width:0.01" />
<line x1="-0.00221839" y1="1.17621" x2="0.1" y2="1.3125" style="stroke:rgb(246,147,147);stroke-width:0.01" />
<line x1="0.00614741" y1="1.16865" x2="0.196064" y2="1.40136" style="stroke:rgb(246,147,147);stroke-width:0.01" />
<line x1="0.00614741" y1="1.16865" x2="0.2" y2="1.3625" style="stroke:rgb(246,147,147);stroke-width:0.01" />
<line x1="0.232797" y1="1.03864" x2="0.0563521" y2="1.23017" style="stroke:rgb(246,147,147);stroke-width:0.01" />
<line x1="-0.00221839" y1="1.17621" x2="0.2" y2="1.3625" style="stroke:rgb(246,147,147);stroke-width:0.01" />
<line x1="0.24114" y1="0.95625" x2="-0.00221839" y2="1.17621" style="stroke:rgb(246,147,147);stroke-width:0.01" />
<line x1="0.2625" y1="0.95625" x2="0.45" y2="1.05" style="stroke:rgb(246,147,147);stroke-width:0.01" />
<line x1="0.2625" y1="0.95625" x2="0.214695" y2="0.980153" style="stroke:rgb(246,147,147);stroke-width:0.01" />
<line x1="0.45" y1="1.05" x2="0.1" y2="1.3125" style="stroke:rgb(246,147,147);stroke-width:0.01" />
<line x1="0.196064" y1="1.40136" x2="-0.18057" y2="1.70873" style="stroke:rgb(246,147,147);stroke-width:0.01" />
<line x1="0.24114" y1="0.95625" x2="0.2625" y2="0.95625" style="stroke:rgb(246,147,147);stroke-width:0.01" />
<line x1="0.2" y1="0.993434" x2="0.236995" y2="0.997181" style="stroke:rgb(246,147,147);stroke-width:0.01" />
<line x1="0.2" y1="1.3625" x2="-0.167976" y2="1.58437" style="stroke:rgb(246,147,147);stroke-width:0.01" />
<line x1="0.068268" y1="1.1125" x2="0.45" y2="1.1125" style="stroke:rgb(246,147,147);stroke-width:0.01" />
<line x1="0.0563521" y1="1.23017" x2="0.211807" y2="1.24591" style="stroke:rgb(246,147,147);stroke-width:0.01" />
<line x1="0.2" y1="1.3625" x2="0.45" y2="1.3625" style="stroke:rgb(246,147,147);stroke-width:0.01" />
</g>
</svg>
