<svg xmlns="http://www.w3.org/2000/svg" viewBox="-1.5 -1.5 3 3">
<g transform="scale(1, -1)">
<path d="M0.091440 -0.323892 L0.112800 -0.323892 L0.300300 -0.230142 L0.300300 0.082358 L0.050300 0.082358 L0.046364 0.121222 L-0.330271 0.428588 L-0.317677 0.304225 L-0.101636 -0.036890 L-0.151919 -0.103933 z " fill="rgb(245,195,195)" />
<path d="M-0.149700 -1.280142 L0.850300 -1.280142 L0.850300 -0.280142 L-0.149700 -0.280142  z" fill="none" stroke="rgb(128,128,128)" stroke-width="0.01" />
<line x1="-0.317677" y1="0.304225" x2="-0.330271" y2="0.428588" style="stroke:rgb(246,147,147);stroke-width:0.01" />
<line x1="0.0502996" y1="-0.286708" x2="0.0502996" y2="0.0823578" style="stroke:rgb(246,147,147);stroke-width:0.01" />
<line x1="0.3003" y1="-0.230142" x2="0.3003" y2="0.0823578" style="stroke:rgb(246,147,147);stroke-width:0.01" />
<line x1="-0.0814324" y1="-0.167642" x2="-0.0933483" y2="-0.0499761" style="stroke:rgb(246,147,147);stroke-width:0.01" />
<line x1="0.0914399" y1="-0.323892" x2="0.0463639" y2="0.121222" style="stroke:rgb(246,147,147);stroke-width:0.01" />
<line x1="0.0562039" y1="-0.28611" x2="0.0830969" y2="-0.241507" style="stroke:rgb(246,147,147);stroke-width:0.01" />
<line x1="-0.0933483" y1="-0.0499761" x2="0.00346628" y2="0.110595" style="stroke:rgb(246,147,147);stroke-width:0.01" />
<line x1="0.0649946" y1="-0.29999" x2="-0.317677" y2="0.304225" style="stroke:rgb(246,147,147);stroke-width:0.01" />
<line x1="-0.151919" y1="-0.103933" x2="-0.0497004" y2="0.0323578" style="stroke:rgb(246,147,147);stroke-width:0.01" />
<line x1="-0.143553" y1="-0.111495" x2="0.0463639" y2="0.121222" style="stroke:rgb(246,147,147);stroke-width:0.01" />
<line x1="-0.143553" y1="-0.111495" x2="0.0502996" y2="0.0823578" style="stroke:rgb(246,147,147);stroke-width:0.01" />
<line x1="0.0830969" y1="-0.241507" x2="-0.0933483" y2="-0.0499761" style="stroke:rgb(246,147,147);stroke-width:0.01" />
<line x1="-0.151919" y1="-0.103933" x2="0.0502996" y2="0.0823578" style="stroke:rgb(246,147,147);stroke-width:0.01" />
<line x1="0.0914399" y1="-0.323892" x2="-0.151919" y2="-0.103933" style="stroke:rgb(246,147,147);stroke-width:0.01" />
<line x1="0.1128" y1="-0.323892" x2="0.3003" y2="-0.230142" style="stroke:rgb(246,147,147);stroke-width:0.01" />
<line x1="0.1128" y1="-0.323892" x2="0.0649946" y2="-0.29999" style="stroke:rgb(246,147,147);stroke-width:0.01" />
<line x1="0.3003" y1="-0.230142" x2="-0.0497004" y2="0.0323578" style="stroke:rgb(246,147,147);stroke-width:0.01" />
<line x1="0.0463639" y1="0.121222" x2="-0.330271" y2="0.428588" style="stroke:rgb(246,147,147);stroke-width:0.01" />
<line x1="0.0914399" y1="-0.323892" x2="0.1128" y2="-0.323892" style="stroke:rgb(246,147,147);stroke-width:0.01" />
<line x1="0.0502996" y1="-0.286708" x2="0.0872949" y2="-0.282961" style="stroke:rgb(246,147,147);stroke-width:0.01" />
<line x1="0.0502996" y1="0.0823578" x2="-0.317677" y2="0.304225" style="stroke:rgb(246,147,147);stroke-width:0.01" />
<line x1="-0.0814324" y1="-0.167642" x2="0.3003" y2="-0.167642" style="stroke:rgb(246,147,147);stroke-width:0.01" />
<line x1="-0.0933483" y1="-0.0499761" x2="0.0621066" y2="-0.0342334" style="stroke:rgb(246,147,147);stroke-width:0.01" />
<line x1="0.0502996" y1="0.0823578" x2="0.3003" y2="0.0823578" style="stroke:rgb(246,147,147);stroke-width:0.01" />
</g>
</svg>
