<svg xmlns="http://www.w3.org/2000/svg" viewBox="-1.5 -1.5 3 3">
<g transform="scale(1, -1)">
<path d="M-0.045571 -0.330811 L0.204429 -0.143311 L0.199220 0.080648 L0.070190 0.099081 L-0.087125 0.206014 L-0.070571 0.119189 L-0.270571 -0.030811 z " fill="rgb(245,195,195)" />
<path d="M-0.520571 -1.680811 L0.479429 -1.680811 L0.479429 -0.680811 L-0.520571 -0.680811  z" fill="none" stroke="rgb(128,128,128)" stroke-width="0.01" />
<line x1="0.204429" y1="-0.143311" x2="0.19922" y2="0.0806478" style="stroke:rgb(246,147,147);stroke-width:0.01" />
<line x1="-0.0540172" y1="0.0323651" x2="-0.0871253" y2="0.206014" style="stroke:rgb(246,147,147);stroke-width:0.01" />
<line x1="-0.0455712" y1="-0.330811" x2="0.204429" y2="-0.143311" style="stroke:rgb(246,147,147);stroke-width:0.01" />
<line x1="-0.0455712" y1="-0.330811" x2="-0.270571" y2="-0.0308106" style="stroke:rgb(246,147,147);stroke-width:0.01" />
<line x1="-0.120571" y1="-0.230811" x2="0.200857" y2="0.0102609" style="stroke:rgb(246,147,147);stroke-width:0.01" />
<line x1="0.154429" y1="-0.180811" x2="-0.0705712" y2="0.119189" style="stroke:rgb(246,147,147);stroke-width:0.01" />
<line x1="-0.270571" y1="-0.0308106" x2="-0.0705712" y2="0.119189" style="stroke:rgb(246,147,147);stroke-width:0.01" />
<line x1="0.204429" y1="-0.143311" x2="-0.0540172" y2="0.0323651" style="stroke:rgb(246,147,147);stroke-width:0.01" />
<line x1="0.200857" y1="0.0102609" x2="-0.0871253" y2="0.206014" style="stroke:rgb(246,147,147);stroke-width:0.01" />
<line x1="-0.0540172" y1="0.0323651" x2="0.19922" y2="0.0806478" style="stroke:rgb(246,147,147);stroke-width:0.01" />
<line x1="0.19922" y1="0.0806478" x2="-0.0705712" y2="0.119189" style="stroke:rgb(246,147,147);stroke-width:0.01" />
</g>
</svg>
