<svg xmlns="http://www.w3.org/2000/svg" viewBox="-1.5 -1.5 3 3">
<g transform="scale(1, -1)">
<path d="M0.475000 1.350000 L0.725000 1.537500 L0.719792 1.761458 L0.590761 1.779891 L0.433446 1.886824 L0.450000 1.800000 L0.250000 1.650000 z " fill="rgb(245,195,195)" />
<path d="M0.000000 0.000000 L1.000000 0.000000 L1.000000 1.000000 L0.000000 1.000000  z" fill="none" stroke="rgb(128,128,128)" stroke-width="0.01" />
<line x1="0.725" y1="1.5375" x2="0.719792" y2="1.76146" style="stroke:rgb(246,147,147);stroke-width:0.01" />
<line x1="0.466554" y1="1.71318" x2="0.433446" y2="1.88682" style="stroke:rgb(246,147,147);stroke-width:0.01" />
<line x1="0.475" y1="1.35" x2="0.725" y2="1.5375" style="stroke:rgb(246,147,147);stroke-width:0.01" />
<line x1="0.475" y1="1.35" x2="0.25" y2="1.65" style="stroke:rgb(246,147,147);stroke-width:0.01" />
<line x1="0.4" y1="1.45" x2="0.721429" y2="1.69107" style="stroke:rgb(246,147,147);stroke-width:0.01" />
<line x1="0.675" y1="1.5" x2="0.45" y2="1.8" style="stroke:rgb(246,147,147);stroke-width:0.01" />
<line x1="0.25" y1="1.65" x2="0.45" y2="1.8" style="stroke:rgb(246,147,147);stroke-width:0.01" />
<line x1="0.725" y1="1.5375" x2="0.466554" y2="1.71318" style="stroke:rgb(246,147,147);stroke-width:0.01" />
<line x1="0.721429" y1="1.69107" x2="0.433446" y2="1.88682" style="stroke:rgb(246,147,147);stroke-width:0.01" />
<line x1="0.466554" y1="1.71318" x2="0.719792" y2="1.76146" style="stroke:rgb(246,147,147);stroke-width:0.01" />
<line x1="0.719792" y1="1.76146" x2="0.45" y2="1.8" style="stroke:rgb(246,147,147);stroke-width:0.01" />
</g>
</svg>
