<svg xmlns="http://www.w3.org/2000/svg" viewBox="-1.5 -1.5 3 3">
<g transform="scale(1, -1)">
<path d="M1.029912 0.565612 L1.470824 0.758353 L1.360313 1.051443 L1.439400 1.175487 L1.281300 1.276287 L1.227858 1.244285 L1.165689 1.250715 L1.148540 1.084933 L0.823123 0.733217 L0.974268 0.593374 z " fill="rgb(245,195,195)" />
<path d="M0.000000 0.000000 L1.000000 0.000000 L1.000000 1.000000 L0.000000 1.000000  z" fill="none" stroke="rgb(128,128,128)" stroke-width="0.01" />
<line x1="1.05854" y1="0.578127" x2="1.4394" y2="1.17549" style="stroke:rgb(246,147,147);stroke-width:0.01" />
<line x1="1.02991" y1="0.565612" x2="1.22786" y2="1.24428" style="stroke:rgb(246,147,147);stroke-width:0.01" />
<line x1="1.2" y1="1.14877" x2="1.2813" y2="1.27629" style="stroke:rgb(246,147,147);stroke-width:0.01" />
<line x1="1.09789" y1="0.59533" x2="1.16569" y2="1.25072" style="stroke:rgb(246,147,147);stroke-width:0.01" />
<line x1="0.823123" y1="0.733217" x2="1.29003" y2="1.23785" style="stroke:rgb(246,147,147);stroke-width:0.01" />
<line x1="1.06979" y1="0.702344" x2="1.2" y2="0.8" style="stroke:rgb(246,147,147);stroke-width:0.01" />
<line x1="1.2" y1="0.639965" x2="1.2" y2="1.14877" style="stroke:rgb(246,147,147);stroke-width:0.01" />
<line x1="1.02991" y1="0.565612" x2="1.47082" y2="0.758353" style="stroke:rgb(246,147,147);stroke-width:0.01" />
<line x1="1.305" y1="0.964687" x2="1.2813" y2="1.27629" style="stroke:rgb(246,147,147);stroke-width:0.01" />
<line x1="1.22786" y1="1.24428" x2="1.2813" y2="1.27629" style="stroke:rgb(246,147,147);stroke-width:0.01" />
<line x1="1.12676" y1="0.897656" x2="1.305" y2="0.964687" style="stroke:rgb(246,147,147);stroke-width:0.01" />
<line x1="1.095" y1="0.635312" x2="1.06979" y2="0.702344" style="stroke:rgb(246,147,147);stroke-width:0.01" />
<line x1="1.04923" y1="0.631831" x2="1.095" y2="0.635312" style="stroke:rgb(246,147,147);stroke-width:0.01" />
<line x1="1.47082" y1="0.758353" x2="1.29003" y2="1.23785" style="stroke:rgb(246,147,147);stroke-width:0.01" />
<line x1="1.47082" y1="0.758353" x2="1.22786" y2="1.24428" style="stroke:rgb(246,147,147);stroke-width:0.01" />
<line x1="1.05854" y1="0.578127" x2="0.974268" y2="0.593374" style="stroke:rgb(246,147,147);stroke-width:0.01" />
<line x1="0.974268" y1="0.593374" x2="0.823123" y2="0.733217" style="stroke:rgb(246,147,147);stroke-width:0.01" />
<line x1="1.2" y1="0.8" x2="1.12676" y2="0.897656" style="stroke:rgb(246,147,147);stroke-width:0.01" />
<line x1="1.02991" y1="0.565612" x2="0.974268" y2="0.593374" style="stroke:rgb(246,147,147);stroke-width:0.01" />
<line x1="1.09789" y1="0.59533" x2="1.04923" y2="0.631831" style="stroke:rgb(246,147,147);stroke-width:0.01" />
<line x1="1.2" y1="0.639965" x2="0.95046" y2="0.870845" style="stroke:rgb(246,147,147);stroke-width:0.01" />
<line x1="1.29003" y1="1.23785" x2="1.16569" y2="1.25072" style="stroke:rgb(246,147,147);stroke-width:0.01" />
<line x1="1.4394" y1="1.17549" x2="1.2813" y2="1.27629" style="stroke:rgb(246,147,147);stroke-width:0.01" />
</g>
</svg>
