<svg xmlns="http://www.w3.org/2000/svg" viewBox="-1.5 -1.5 3 3">
<g transform="scale(1, -1)">
<path d="M0.148927 -0.385283 L0.347610 0.014911 L0.253093 0.334487 L0.130026 0.356384 L0.100830 0.192294 L-0.188258 -0.077672 L-0.396114 -0.077672 L-0.396114 -0.357449 z " fill="rgb(245,195,195)" />
<path d="M-0.496114 -1.677672 L0.503886 -1.677672 L0.503886 -0.677672 L-0.496114 -0.677672  z" fill="none" stroke="rgb(128,128,128)" stroke-width="0.01" />
<line x1="-0.000580098" y1="-0.377648" x2="0.130026" y2="0.356384" style="stroke:rgb(246,147,147);stroke-width:0.01" />
<line x1="0.148927" y1="-0.385283" x2="0.34761" y2="0.0149105" style="stroke:rgb(246,147,147);stroke-width:0.01" />
<line x1="-0.396114" y1="-0.357449" x2="-0.396114" y2="-0.0776721" style="stroke:rgb(246,147,147);stroke-width:0.01" />
<line x1="-0.396114" y1="-0.357449" x2="-0.386414" y2="-0.26272" style="stroke:rgb(246,147,147);stroke-width:0.01" />
<line x1="-0.000580098" y1="-0.377648" x2="-0.0194017" y2="-0.123905" style="stroke:rgb(246,147,147);stroke-width:0.01" />
<line x1="0.34761" y1="0.0149105" x2="0.253093" y2="0.334487" style="stroke:rgb(246,147,147);stroke-width:0.01" />
<line x1="0.148927" y1="-0.385283" x2="0.0335735" y2="-0.0776721" style="stroke:rgb(246,147,147);stroke-width:0.01" />
<line x1="-0.293035" y1="-0.362713" x2="0.0335735" y2="-0.0776721" style="stroke:rgb(246,147,147);stroke-width:0.01" />
<line x1="-0.386414" y1="-0.26272" x2="0.253093" y2="0.334487" style="stroke:rgb(246,147,147);stroke-width:0.01" />
<line x1="-0.293035" y1="-0.362713" x2="-0.386414" y2="-0.26272" style="stroke:rgb(246,147,147);stroke-width:0.01" />
<line x1="-0.277243" y1="-0.363519" x2="0.049008" y2="-0.118831" style="stroke:rgb(246,147,147);stroke-width:0.01" />
<line x1="-0.277243" y1="-0.363519" x2="-0.386414" y2="-0.26272" style="stroke:rgb(246,147,147);stroke-width:0.01" />
<line x1="-0.386414" y1="-0.26272" x2="0.34761" y2="0.0149105" style="stroke:rgb(246,147,147);stroke-width:0.01" />
<line x1="0.148927" y1="-0.385283" x2="-0.396114" y2="-0.357449" style="stroke:rgb(246,147,147);stroke-width:0.01" />
<line x1="-0.0194017" y1="-0.123905" x2="0.049008" y2="-0.118831" style="stroke:rgb(246,147,147);stroke-width:0.01" />
<line x1="-0.396114" y1="-0.0776721" x2="0.0335735" y2="-0.0776721" style="stroke:rgb(246,147,147);stroke-width:0.01" />
<line x1="0.253093" y1="0.334487" x2="0.130026" y2="0.356384" style="stroke:rgb(246,147,147);stroke-width:0.01" />
</g>
</svg>
