<svg xmlns="http://www.w3.org/2000/svg" viewBox="-1 -1 3 3">
<path d="M0.381818 0.127273 L0.575758 0.272727 L0.727273 0.272727 L0.872727 0.381818 L0.727273 0.575758 L0.727273 0.727273 L0.618182 0.872727 L0.424242 0.727273 L0.272727 0.727273 L0.127273 0.618182 L0.272727 0.424242 L0.272727 0.272727 z " fill="rgb(245,195,195)" />
<path d="M0 0 L0 1 L1 1 L1 0 z" fill="none" stroke="rgb(128,128,128)" stroke-width="0.01" />
<line x1="0.727273" y1="0.272727" x2="0.872727" y2="0.381818" style="stroke:rgb(246,147,147);stroke-width:0.01" />
<line x1="0.381818" y1="0.127273" x2="0.818182" y2="0.454545" style="stroke:rgb(246,147,147);stroke-width:0.01" />
<line x1="0.272727" y1="0.272727" x2="0.272727" y2="0.727273" style="stroke:rgb(246,147,147);stroke-width:0.01" />
<line x1="0.727273" y1="0.272727" x2="0.727273" y2="0.727273" style="stroke:rgb(246,147,147);stroke-width:0.01" />
<line x1="0.272727" y1="0.272727" x2="0.709091" y2="0.6" style="stroke:rgb(246,147,147);stroke-width:0.01" />
<line x1="0.290909" y1="0.4" x2="0.727273" y2="0.727273" style="stroke:rgb(246,147,147);stroke-width:0.01" />
<line x1="0.381818" y1="0.127273" x2="0.272727" y2="0.272727" style="stroke:rgb(246,147,147);stroke-width:0.01" />
<line x1="0.181818" y1="0.545455" x2="0.618182" y2="0.872727" style="stroke:rgb(246,147,147);stroke-width:0.01" />
<line x1="0.272727" y1="0.272727" x2="0.727273" y2="0.272727" style="stroke:rgb(246,147,147);stroke-width:0.01" />
<line x1="0.454545" y1="0.181818" x2="0.127273" y2="0.618182" style="stroke:rgb(246,147,147);stroke-width:0.01" />
<line x1="0.127273" y1="0.618182" x2="0.272727" y2="0.727273" style="stroke:rgb(246,147,147);stroke-width:0.01" />
<line x1="0.6" y1="0.290909" x2="0.272727" y2="0.727273" style="stroke:rgb(246,147,147);stroke-width:0.01" />
<line x1="0.727273" y1="0.272727" x2="0.4" y2="0.709091" style="stroke:rgb(246,147,147);stroke-width:0.01" />
<line x1="0.872727" y1="0.381818" x2="0.545455" y2="0.818182" style="stroke:rgb(246,147,147);stroke-width:0.01" />
<line x1="0.727273" y1="0.727273" x2="0.618182" y2="0.872727" style="stroke:rgb(246,147,147);stroke-width:0.01" />
<line x1="0.272727" y1="0.727273" x2="0.727273" y2="0.727273" style="stroke:rgb(246,147,147);stroke-width:0.01" />
</svg>
