<svg xmlns="http://www.w3.org/2000/svg" viewBox="-1.5 -1.5 3 3">
<path d="M-0.118182 -0.372727 L0.075758 -0.227273 L0.227273 -0.227273 L0.372727 -0.118182 L0.227273 0.075758 L0.227273 0.227273 L0.118182 0.372727 L-0.075758 0.227273 L-0.227273 0.227273 L-0.372727 0.118182 L-0.227273 -0.075758 L-0.227273 -0.227273 z " fill="rgb(245,195,195)" />
<path d="M-0.500000 -0.500000 L0.500000 -0.500000 L0.500000 0.500000 L-0.500000 0.500000  z" fill="none" stroke="rgb(128,128,128)" stroke-width="0.01" />
<line x1="0.227273" y1="-0.227273" x2="0.372727" y2="-0.118182" style="stroke:rgb(246,147,147);stroke-width:0.01" />
<line x1="-0.118182" y1="-0.372727" x2="0.318182" y2="-0.0454545" style="stroke:rgb(246,147,147);stroke-width:0.01" />
<line x1="-0.227273" y1="-0.227273" x2="-0.227273" y2="0.227273" style="stroke:rgb(246,147,147);stroke-width:0.01" />
<line x1="0.227273" y1="-0.227273" x2="0.227273" y2="0.227273" style="stroke:rgb(246,147,147);stroke-width:0.01" />
<line x1="-0.227273" y1="-0.227273" x2="0.209091" y2="0.1" style="stroke:rgb(246,147,147);stroke-width:0.01" />
<line x1="-0.209091" y1="-0.1" x2="0.227273" y2="0.227273" style="stroke:rgb(246,147,147);stroke-width:0.01" />
<line x1="-0.118182" y1="-0.372727" x2="-0.227273" y2="-0.227273" style="stroke:rgb(246,147,147);stroke-width:0.01" />
<line x1="-0.318182" y1="0.0454545" x2="0.118182" y2="0.372727" style="stroke:rgb(246,147,147);stroke-width:0.01" />
<line x1="-0.227273" y1="-0.227273" x2="0.227273" y2="-0.227273" style="stroke:rgb(246,147,147);stroke-width:0.01" />
<line x1="-0.0454545" y1="-0.318182" x2="-0.372727" y2="0.118182" style="stroke:rgb(246,147,147);stroke-width:0.01" />
<line x1="-0.372727" y1="0.118182" x2="-0.227273" y2="0.227273" style="stroke:rgb(246,147,147);stroke-width:0.01" />
<line x1="0.1" y1="-0.209091" x2="-0.227273" y2="0.227273" style="stroke:rgb(246,147,147);stroke-width:0.01" />
<line x1="0.227273" y1="-0.227273" x2="-0.1" y2="0.209091" style="stroke:rgb(246,147,147);stroke-width:0.01" />
<line x1="0.372727" y1="-0.118182" x2="0.0454545" y2="0.318182" style="stroke:rgb(246,147,147);stroke-width:0.01" />
<line x1="0.227273" y1="0.227273" x2="0.118182" y2="0.372727" style="stroke:rgb(246,147,147);stroke-width:0.01" />
<line x1="-0.227273" y1="0.227273" x2="0.227273" y2="0.227273" style="stroke:rgb(246,147,147);stroke-width:0.01" />
</svg>
