<svg xmlns="http://www.w3.org/2000/svg" viewBox="-1.5 -1.5 3 3">
<g transform="scale(1, -1)">
<path d="M-0.661576 -0.281773 L0.238424 -0.281773 L0.238424 -0.247291 L0.303941 -0.247291 L0.303941 0.652709 L0.238424 0.652709 L-0.661576 -0.247291 z " fill="rgb(245,195,195)" />
<path d="M-0.661576 -0.281773 L0.338424 -0.281773 L0.338424 0.718227 L-0.661576 0.718227  z" fill="none" stroke="rgb(128,128,128)" stroke-width="0.01" />
<line x1="-0.661576" y1="-0.281773" x2="0.238424" y2="-0.281773" style="stroke:rgb(246,147,147);stroke-width:0.01" />
<line x1="-0.661576" y1="-0.281773" x2="-0.661576" y2="-0.247291" style="stroke:rgb(246,147,147);stroke-width:0.01" />
<line x1="0.138424" y1="-0.281773" x2="0.138424" y2="0.552709" style="stroke:rgb(246,147,147);stroke-width:0.01" />
<line x1="0.238424" y1="-0.281773" x2="0.238424" y2="0.652709" style="stroke:rgb(246,147,147);stroke-width:0.01" />
<line x1="0.303941" y1="-0.247291" x2="0.303941" y2="0.652709" style="stroke:rgb(246,147,147);stroke-width:0.01" />
<line x1="-0.661576" y1="-0.247291" x2="0.238424" y2="0.652709" style="stroke:rgb(246,147,147);stroke-width:0.01" />
<line x1="-0.661576" y1="-0.247291" x2="0.303941" y2="-0.247291" style="stroke:rgb(246,147,147);stroke-width:0.01" />
<line x1="0.138424" y1="0.552709" x2="0.303941" y2="0.552709" style="stroke:rgb(246,147,147);stroke-width:0.01" />
<line x1="0.238424" y1="0.652709" x2="0.303941" y2="0.652709" style="stroke:rgb(246,147,147);stroke-width:0.01" />
</g>
</svg>
