<svg xmlns="http://www.w3.org/2000/svg" viewBox="-1.5 -1.5 3 3">
<g transform="scale(1, -1)">
<path d="M-0.272514 -0.376346 L-0.089151 -0.218928 L0.393834 -0.126938 L0.341017 0.150374 L0.486231 0.275041 L0.486231 0.275041 L0.269102 0.527956 L-0.663346 0.078901 L-0.588507 -0.314035 L-0.362898 -0.271066 z " fill="rgb(245,195,195)" />
<path d="M0.486231 0.275041 L1.486231 0.275041 L1.486231 1.275041 L0.486231 1.275041  z" fill="none" stroke="rgb(128,128,128)" stroke-width="0.01" />
<line x1="-0.272514" y1="-0.376346" x2="-0.663346" y2="0.0789011" style="stroke:rgb(246,147,147);stroke-width:0.01" />
<line x1="-0.588507" y1="-0.314035" x2="0.393834" y2="-0.126938" style="stroke:rgb(246,147,147);stroke-width:0.01" />
<line x1="-0.588507" y1="-0.314035" x2="-0.663346" y2="0.0789011" style="stroke:rgb(246,147,147);stroke-width:0.01" />
<line x1="0.393834" y1="-0.126938" x2="0.269102" y2="0.527956" style="stroke:rgb(246,147,147);stroke-width:0.01" />
<line x1="-0.272514" y1="-0.376346" x2="0.486231" y2="0.275041" style="stroke:rgb(246,147,147);stroke-width:0.01" />
<line x1="0.486231" y1="0.275041" x2="0.269102" y2="0.527956" style="stroke:rgb(246,147,147);stroke-width:0.01" />
<line x1="0.486231" y1="0.275041" x2="0.486231" y2="0.275041" style="stroke:rgb(246,147,147);stroke-width:0.01" />
<line x1="0.486231" y1="0.275041" x2="0.486231" y2="0.275041" style="stroke:rgb(246,147,147);stroke-width:0.01" />
<line x1="0.486231" y1="0.275041" x2="0.486231" y2="0.275041" style="stroke:rgb(246,147,147);stroke-width:0.01" />
<line x1="-0.663346" y1="0.0789011" x2="0.269102" y2="0.527956" style="stroke:rgb(246,147,147);stroke-width:0.01" />
</g>
</svg>
