<svg xmlns="http://www.w3.org/2000/svg" viewBox="-1.5 -1.5 3 3">
<g transform="scale(1, -1)">
<path d="M-0.758745 -0.651387 L-0.575382 -0.493969 L-0.092397 -0.401979 L-0.145214 -0.124667 L-0.000000 -0.000000 L-0.000000 0.000000 L-0.217129 0.252915 L-1.149578 -0.196140 L-1.074739 -0.589076 L-0.849129 -0.546107 z " fill="rgb(245,195,195)" />
<path d="M0.000000 0.000000 L1.000000 0.000000 L1.000000 1.000000 L0.000000 1.000000  z" fill="none" stroke="rgb(128,128,128)" stroke-width="0.01" />
<line x1="-0.758745" y1="-0.651387" x2="-1.14958" y2="-0.19614" style="stroke:rgb(246,147,147);stroke-width:0.01" />
<line x1="-1.07474" y1="-0.589076" x2="-0.0923975" y2="-0.401979" style="stroke:rgb(246,147,147);stroke-width:0.01" />
<line x1="-1.07474" y1="-0.589076" x2="-1.14958" y2="-0.19614" style="stroke:rgb(246,147,147);stroke-width:0.01" />
<line x1="-0.0923975" y1="-0.401979" x2="-0.217129" y2="0.252915" style="stroke:rgb(246,147,147);stroke-width:0.01" />
<line x1="-0.758745" y1="-0.651387" x2="-7.98017e-39" y2="-6.85102e-39" style="stroke:rgb(246,147,147);stroke-width:0.01" />
<line x1="-4.50413e-40" y1="5.24648e-40" x2="-0.217129" y2="0.252915" style="stroke:rgb(246,147,147);stroke-width:0.01" />
<line x1="-4.50413e-40" y1="5.24648e-40" x2="-9.65637e-40" y2="9.85811e-40" style="stroke:rgb(246,147,147);stroke-width:0.01" />
<line x1="-7.98017e-39" y1="-6.85102e-39" x2="-4.50413e-40" y2="5.24648e-40" style="stroke:rgb(246,147,147);stroke-width:0.01" />
<line x1="-7.98017e-39" y1="-6.85102e-39" x2="-9.65637e-40" y2="9.85811e-40" style="stroke:rgb(246,147,147);stroke-width:0.01" />
<line x1="-1.14958" y1="-0.19614" x2="-0.217129" y2="0.252915" style="stroke:rgb(246,147,147);stroke-width:0.01" />
</g>
</svg>
