<svg xmlns="http://www.w3.org/2000/svg" viewBox="-1.5 -1.5 3 3">
<g transform="scale(1, -1)">
<path d="M0.463459 -0.278757 L0.689509 -0.171979 L0.356682 -0.052707 L0.143127 0.399393 L-0.308973 0.185838 L-0.641800 0.305110 L-0.535023 0.079060 L-0.202195 -0.040212 L-0.095418 -0.266262 L0.130632 -0.159484 z " fill="rgb(245,195,195)" />
<path d="M0.297187 1.584206 L1.297187 1.584206 L1.297187 2.584206 L0.297187 2.584206  z" fill="none" stroke="rgb(128,128,128)" stroke-width="0.01" />
<line x1="0.463459" y1="-0.278757" x2="-0.535023" y2="0.0790603" style="stroke:rgb(246,147,147);stroke-width:0.01" />
<line x1="0.463459" y1="-0.278757" x2="0.689509" y2="-0.171979" style="stroke:rgb(246,147,147);stroke-width:0.01" />
<line x1="0.689509" y1="-0.171979" x2="-0.6418" y2="0.30511" style="stroke:rgb(246,147,147);stroke-width:0.01" />
<line x1="-0.0954179" y1="-0.266262" x2="0.356682" y2="-0.0527069" style="stroke:rgb(246,147,147);stroke-width:0.01" />
<line x1="-0.535023" y1="0.0790603" x2="0.143127" y2="0.399393" style="stroke:rgb(246,147,147);stroke-width:0.01" />
<line x1="-0.535023" y1="0.0790603" x2="-0.6418" y2="0.30511" style="stroke:rgb(246,147,147);stroke-width:0.01" />
<line x1="-0.0954179" y1="-0.266262" x2="-0.308973" y2="0.185838" style="stroke:rgb(246,147,147);stroke-width:0.01" />
<line x1="0.463459" y1="-0.278757" x2="0.143127" y2="0.399393" style="stroke:rgb(246,147,147);stroke-width:0.01" />
</g>
</svg>
