<svg xmlns="http://www.w3.org/2000/svg" viewBox="-1.5 -1.5 3 3">
<g transform="scale(1, -1)">
<path d="M-0.662212 -0.280184 L0.237788 -0.280184 L0.237788 -0.247926 L0.305530 -0.247926 L0.305530 0.652074 L0.237788 0.652074 L-0.662212 -0.247926 z " fill="rgb(245,195,195)" />
<path d="M-0.662212 -0.280184 L0.337788 -0.280184 L0.337788 0.719816 L-0.662212 0.719816  z" fill="none" stroke="rgb(128,128,128)" stroke-width="0.01" />
<line x1="-0.662212" y1="-0.280184" x2="0.237788" y2="-0.280184" style="stroke:rgb(246,147,147);stroke-width:0.01" />
<line x1="-0.662212" y1="-0.280184" x2="-0.662212" y2="-0.247926" style="stroke:rgb(246,147,147);stroke-width:0.01" />
<line x1="0.137788" y1="-0.280184" x2="0.137788" y2="0.552074" style="stroke:rgb(246,147,147);stroke-width:0.01" />
<line x1="0.237788" y1="-0.280184" x2="0.237788" y2="0.652074" style="stroke:rgb(246,147,147);stroke-width:0.01" />
<line x1="0.30553" y1="-0.247926" x2="0.30553" y2="0.652074" style="stroke:rgb(246,147,147);stroke-width:0.01" />
<line x1="-0.662212" y1="-0.247926" x2="0.237788" y2="0.652074" style="stroke:rgb(246,147,147);stroke-width:0.01" />
<line x1="-0.662212" y1="-0.247926" x2="0.30553" y2="-0.247926" style="stroke:rgb(246,147,147);stroke-width:0.01" />
<line x1="0.137788" y1="0.552074" x2="0.30553" y2="0.552074" style="stroke:rgb(246,147,147);stroke-width:0.01" />
<line x1="0.237788" y1="0.652074" x2="0.30553" y2="0.652074" style="stroke:rgb(246,147,147);stroke-width:0.01" />
</g>
</svg>
