<svg xmlns="http://www.w3.org/2000/svg" viewBox="-1.5 -1.5 3 3">
<g transform="scale(1, -1)">
<path d="M-0.662771 -0.278788 L0.237229 -0.278788 L0.237229 -0.248485 L0.306926 -0.248485 L0.306926 0.651515 L0.237229 0.651515 L-0.662771 -0.248485 z " fill="rgb(245,195,195)" />
<path d="M-0.662771 -0.278788 L0.337229 -0.278788 L0.337229 0.721212 L-0.662771 0.721212  z" fill="none" stroke="rgb(128,128,128)" stroke-width="0.01" />
<line x1="-0.662771" y1="-0.278788" x2="0.237229" y2="-0.278788" style="stroke:rgb(246,147,147);stroke-width:0.01" />
<line x1="-0.662771" y1="-0.278788" x2="-0.662771" y2="-0.248485" style="stroke:rgb(246,147,147);stroke-width:0.01" />
<line x1="0.137229" y1="-0.278788" x2="0.137229" y2="0.551515" style="stroke:rgb(246,147,147);stroke-width:0.01" />
<line x1="0.237229" y1="-0.278788" x2="0.237229" y2="0.651515" style="stroke:rgb(246,147,147);stroke-width:0.01" />
<line x1="0.306926" y1="-0.248485" x2="0.306926" y2="0.651515" style="stroke:rgb(246,147,147);stroke-width:0.01" />
<line x1="-0.662771" y1="-0.248485" x2="0.237229" y2="0.651515" style="stroke:rgb(246,147,147);stroke-width:0.01" />
<line x1="-0.662771" y1="-0.248485" x2="0.306926" y2="-0.248485" style="stroke:rgb(246,147,147);stroke-width:0.01" />
<line x1="0.137229" y1="0.551515" x2="0.306926" y2="0.551515" style="stroke:rgb(246,147,147);stroke-width:0.01" />
<line x1="0.237229" y1="0.651515" x2="0.306926" y2="0.651515" style="stroke:rgb(246,147,147);stroke-width:0.01" />
</g>
</svg>
