<svg xmlns="http://www.w3.org/2000/svg" viewBox="-1.5 -1.5 3 3">
<g transform="scale(1, -1)">
<path d="M-0.663265 -0.277551 L0.236735 -0.277551 L0.236735 -0.248980 L0.308163 -0.248980 L0.308163 0.651020 L0.236735 0.651020 L-0.663265 -0.248980 z " fill="rgb(245,195,195)" />
<path d="M-0.663265 -0.277551 L0.336735 -0.277551 L0.336735 0.722449 L-0.663265 0.722449  z" fill="none" stroke="rgb(128,128,128)" stroke-width="0.01" />
<line x1="-0.663265" y1="-0.277551" x2="0.236735" y2="-0.277551" style="stroke:rgb(246,147,147);stroke-width:0.01" />
<line x1="-0.663265" y1="-0.277551" x2="-0.663265" y2="-0.24898" style="stroke:rgb(246,147,147);stroke-width:0.01" />
<line x1="0.136735" y1="-0.277551" x2="0.136735" y2="0.55102" style="stroke:rgb(246,147,147);stroke-width:0.01" />
<line x1="0.236735" y1="-0.277551" x2="0.236735" y2="0.65102" style="stroke:rgb(246,147,147);stroke-width:0.01" />
<line x1="0.308163" y1="-0.24898" x2="0.308163" y2="0.65102" style="stroke:rgb(246,147,147);stroke-width:0.01" />
<line x1="-0.663265" y1="-0.24898" x2="0.236735" y2="0.65102" style="stroke:rgb(246,147,147);stroke-width:0.01" />
<line x1="-0.663265" y1="-0.24898" x2="0.308163" y2="-0.24898" style="stroke:rgb(246,147,147);stroke-width:0.01" />
<line x1="0.136735" y1="0.55102" x2="0.308163" y2="0.55102" style="stroke:rgb(246,147,147);stroke-width:0.01" />
<line x1="0.236735" y1="0.65102" x2="0.308163" y2="0.65102" style="stroke:rgb(246,147,147);stroke-width:0.01" />
</g>
</svg>
