<svg xmlns="http://www.w3.org/2000/svg" viewBox="-1.5 -1.5 3 3">
<g transform="scale(1, -1)">
<path d="M0.393823 -0.379558 L0.018598 0.550022 L-0.412420 -0.170464 z " fill="rgb(245,195,195)" />
<path d="M-0.513870 -0.434353 L0.486130 -0.434353 L0.486130 0.565647 L-0.513870 0.565647  z" fill="none" stroke="rgb(128,128,128)" stroke-width="0.01" />
<line x1="0.305847" y1="-0.206925" x2="0.321019" y2="-0.199194" style="stroke:rgb(246,147,147);stroke-width:0.01" />
<line x1="-0.0679858" y1="-0.016725" x2="0.0616783" y2="0.443295" style="stroke:rgb(246,147,147);stroke-width:0.01" />
<line x1="0.00606243" y1="0.475124" x2="0.0185978" y2="0.550022" style="stroke:rgb(246,147,147);stroke-width:0.01" />
<line x1="0.0348504" y1="-0.286461" x2="0.321019" y2="-0.199194" style="stroke:rgb(246,147,147);stroke-width:0.01" />
<line x1="-0.41242" y1="-0.170464" x2="0.0185978" y2="0.550022" style="stroke:rgb(246,147,147);stroke-width:0.01" />
<line x1="-0.41242" y1="-0.170464" x2="-0.299458" y2="0.00549035" style="stroke:rgb(246,147,147);stroke-width:0.01" />
<line x1="-0.41242" y1="-0.170464" x2="0.180892" y2="0.147955" style="stroke:rgb(246,147,147);stroke-width:0.01" />
<line x1="0.0677526" y1="0.116064" x2="-0.0311338" y2="0.466891" style="stroke:rgb(246,147,147);stroke-width:0.01" />
<line x1="0.393823" y1="-0.379558" x2="-0.41242" y2="-0.170464" style="stroke:rgb(246,147,147);stroke-width:0.01" />
<line x1="0.393823" y1="-0.379558" x2="0.0185978" y2="0.550022" style="stroke:rgb(246,147,147);stroke-width:0.01" />
<line x1="0.0348504" y1="-0.286461" x2="-0.284021" y2="0.044168" style="stroke:rgb(246,147,147);stroke-width:0.01" />
<line x1="0.0677526" y1="0.116064" x2="0.180892" y2="0.147955" style="stroke:rgb(246,147,147);stroke-width:0.01" />
<line x1="0.393823" y1="-0.379558" x2="0.305847" y2="-0.206925" style="stroke:rgb(246,147,147);stroke-width:0.01" />
<line x1="-0.299458" y1="0.00549035" x2="-0.305022" y2="0.00906248" style="stroke:rgb(246,147,147);stroke-width:0.01" />
<line x1="0.393823" y1="-0.379558" x2="-0.305022" y2="0.00906248" style="stroke:rgb(246,147,147);stroke-width:0.01" />
<line x1="-0.0679858" y1="-0.016725" x2="-0.284021" y2="0.044168" style="stroke:rgb(246,147,147);stroke-width:0.01" />
<line x1="-0.0311338" y1="0.466891" x2="0.00606243" y2="0.475124" style="stroke:rgb(246,147,147);stroke-width:0.01" />
<line x1="0.00606243" y1="0.475124" x2="-0.0175561" y2="0.489588" style="stroke:rgb(246,147,147);stroke-width:0.01" />
<line x1="0.0616783" y1="0.443295" x2="-0.0175561" y2="0.489588" style="stroke:rgb(246,147,147);stroke-width:0.01" />
</g>
</svg>
