<svg xmlns="http://www.w3.org/2000/svg" viewBox="-1.5 -1.5 3 3">
<g transform="scale(1, -1)">
<path d="M-0.071429 -0.392857 L0.071429 -0.392857 L0.357143 -0.107143 L0.071429 0.178571 L0.071429 0.321429 L-0.071429 0.321429 L-0.071429 0.178571 L-0.357143 -0.107143 z " fill="rgb(245,195,195)" />
<path d="M-0.500000 -0.678571 L0.500000 -0.678571 L0.500000 0.321429 L-0.500000 0.321429  z" fill="none" stroke="rgb(128,128,128)" stroke-width="0.01" />
<line x1="0.0714286" y1="-0.392857" x2="0.357143" y2="-0.107143" style="stroke:rgb(246,147,147);stroke-width:0.01" />
<line x1="-0.0714286" y1="-0.392857" x2="-0.0714286" y2="0.321429" style="stroke:rgb(246,147,147);stroke-width:0.01" />
<line x1="0.0714286" y1="-0.392857" x2="0.0714286" y2="0.321429" style="stroke:rgb(246,147,147);stroke-width:0.01" />
<line x1="-0.357143" y1="-0.107143" x2="0.0714286" y2="0.321429" style="stroke:rgb(246,147,147);stroke-width:0.01" />
<line x1="-0.0714286" y1="-0.392857" x2="0.0714286" y2="-0.392857" style="stroke:rgb(246,147,147);stroke-width:0.01" />
<line x1="-0.0714286" y1="-0.392857" x2="-0.357143" y2="-0.107143" style="stroke:rgb(246,147,147);stroke-width:0.01" />
<line x1="-0.357143" y1="-0.107143" x2="0.357143" y2="-0.107143" style="stroke:rgb(246,147,147);stroke-width:0.01" />
<line x1="0.357143" y1="-0.107143" x2="-0.0714286" y2="0.321429" style="stroke:rgb(246,147,147);stroke-width:0.01" />
<line x1="-0.0714286" y1="0.321429" x2="0.0714286" y2="0.321429" style="stroke:rgb(246,147,147);stroke-width:0.01" />
</g>
</svg>
