<svg xmlns="http://www.w3.org/2000/svg" viewBox="-1.5 -1.5 3 3">
<g transform="scale(1, -1)">
<path d="M0.428571 0.285714 L0.571429 0.285714 L0.857143 0.571429 L0.571429 0.857143 L0.571429 1.000000 L0.428571 1.000000 L0.428571 0.857143 L0.142857 0.571429 z " fill="rgb(245,195,195)" />
<path d="M0.000000 0.000000 L1.000000 0.000000 L1.000000 1.000000 L0.000000 1.000000  z" fill="none" stroke="rgb(128,128,128)" stroke-width="0.01" />
<line x1="0.571429" y1="0.285714" x2="0.857143" y2="0.571429" style="stroke:rgb(246,147,147);stroke-width:0.01" />
<line x1="0.428571" y1="0.285714" x2="0.428571" y2="1" style="stroke:rgb(246,147,147);stroke-width:0.01" />
<line x1="0.571429" y1="0.285714" x2="0.571429" y2="1" style="stroke:rgb(246,147,147);stroke-width:0.01" />
<line x1="0.142857" y1="0.571429" x2="0.571429" y2="1" style="stroke:rgb(246,147,147);stroke-width:0.01" />
<line x1="0.428571" y1="0.285714" x2="0.571429" y2="0.285714" style="stroke:rgb(246,147,147);stroke-width:0.01" />
<line x1="0.428571" y1="0.285714" x2="0.142857" y2="0.571429" style="stroke:rgb(246,147,147);stroke-width:0.01" />
<line x1="0.142857" y1="0.571429" x2="0.857143" y2="0.571429" style="stroke:rgb(246,147,147);stroke-width:0.01" />
<line x1="0.857143" y1="0.571429" x2="0.428571" y2="1" style="stroke:rgb(246,147,147);stroke-width:0.01" />
<line x1="0.428571" y1="1" x2="0.571429" y2="1" style="stroke:rgb(246,147,147);stroke-width:0.01" />
</g>
</svg>
