<svg xmlns="http://www.w3.org/2000/svg" viewBox="-1.5 -1.5 3 3">
<g transform="scale(1, -1)">
<path d="M-73786976294838206464.000000 -147573952589676412928.000000 L-73786976294838198272.000000 -147573952589676396544.000000 L-73786976294838198272.000000 -147573952589676396544.000000 L-73786976294838206464.000000 -147573952589676396544.000000 z " fill="rgb(245,195,195)" />
<path d="M0.000000 0.000000 L1.000000 0.000000 L1.000000 1.000000 L0.000000 1.000000  z" fill="none" stroke="rgb(128,128,128)" stroke-width="0.01" />
<line x1="-7.3787e+19" y1="-1.47574e+20" x2="-7.3787e+19" y2="-1.47574e+20" style="stroke:rgb(246,147,147);stroke-width:0.01" />
<line x1="-7.3787e+19" y1="-1.47574e+20" x2="-7.3787e+19" y2="-1.47574e+20" style="stroke:rgb(246,147,147);stroke-width:0.01" />
<line x1="-7.3787e+19" y1="-1.47574e+20" x2="-7.3787e+19" y2="-1.47574e+20" style="stroke:rgb(246,147,147);stroke-width:0.01" />
<line x1="-7.3787e+19" y1="-1.47574e+20" x2="-7.3787e+19" y2="-1.47574e+20" style="stroke:rgb(246,147,147);stroke-width:0.01" />
<line x1="-7.3787e+19" y1="-1.47574e+20" x2="-7.3787e+19" y2="-1.47574e+20" style="stroke:rgb(246,147,147);stroke-width:0.01" />
<line x1="-7.3787e+19" y1="-1.47574e+20" x2="-7.3787e+19" y2="-1.47574e+20" style="stroke:rgb(246,147,147);stroke-width:0.01" />
</g>
</svg>
