<svg xmlns="http://www.w3.org/2000/svg" viewBox="-1.5 -1.5 3 3">
<g transform="scale(1, -1)">
<path d="M-0.663707 -0.276448 L0.236293 -0.276448 L0.236293 -0.249421 L0.309266 -0.249421 L0.309266 0.650579 L0.236293 0.650579 L-0.663707 -0.249421 z " fill="rgb(245,195,195)" />
<path d="M-0.663707 -0.276448 L0.336293 -0.276448 L0.336293 0.723552 L-0.663707 0.723552  z" fill="none" stroke="rgb(128,128,128)" stroke-width="0.01" />
<line x1="-0.663707" y1="-0.276448" x2="0.236293" y2="-0.276448" style="stroke:rgb(246,147,147);stroke-width:0.01" />
<line x1="-0.663707" y1="-0.276448" x2="-0.663707" y2="-0.249421" style="stroke:rgb(246,147,147);stroke-width:0.01" />
<line x1="0.136293" y1="-0.276448" x2="0.136293" y2="0.550579" style="stroke:rgb(246,147,147);stroke-width:0.01" />
<line x1="0.236293" y1="-0.276448" x2="0.236293" y2="0.650579" style="stroke:rgb(246,147,147);stroke-width:0.01" />
<line x1="0.309266" y1="-0.249421" x2="0.309266" y2="0.650579" style="stroke:rgb(246,147,147);stroke-width:0.01" />
<line x1="-0.663707" y1="-0.249421" x2="0.236293" y2="0.650579" style="stroke:rgb(246,147,147);stroke-width:0.01" />
<line x1="-0.663707" y1="-0.249421" x2="0.309266" y2="-0.249421" style="stroke:rgb(246,147,147);stroke-width:0.01" />
<line x1="0.136293" y1="0.550579" x2="0.309266" y2="0.550579" style="stroke:rgb(246,147,147);stroke-width:0.01" />
<line x1="0.236293" y1="0.650579" x2="0.309266" y2="0.650579" style="stroke:rgb(246,147,147);stroke-width:0.01" />
</g>
</svg>
