<svg xmlns="http://www.w3.org/2000/svg" viewBox="-1.5 -1.5 3 3">
<g transform="scale(1, -1)">
<path d="M0.000000 0.000000 L0.900000 0.000000 L0.900000 0.027027 L0.972973 0.027027 L0.972973 0.927027 L0.900000 0.927027 L0.000000 0.027027 z " fill="rgb(245,195,195)" />
<path d="M0.000000 0.000000 L1.000000 0.000000 L1.000000 1.000000 L0.000000 1.000000  z" fill="none" stroke="rgb(128,128,128)" stroke-width="0.01" />
<line x1="0" y1="0" x2="0.9" y2="0" style="stroke:rgb(246,147,147);stroke-width:0.01" />
<line x1="0" y1="0" x2="0" y2="0.027027" style="stroke:rgb(246,147,147);stroke-width:0.01" />
<line x1="0.8" y1="0" x2="0.8" y2="0.827027" style="stroke:rgb(246,147,147);stroke-width:0.01" />
<line x1="0.9" y1="0" x2="0.9" y2="0.927027" style="stroke:rgb(246,147,147);stroke-width:0.01" />
<line x1="0.972973" y1="0.027027" x2="0.972973" y2="0.927027" style="stroke:rgb(246,147,147);stroke-width:0.01" />
<line x1="0" y1="0.027027" x2="0.9" y2="0.927027" style="stroke:rgb(246,147,147);stroke-width:0.01" />
<line x1="0" y1="0.027027" x2="0.972973" y2="0.027027" style="stroke:rgb(246,147,147);stroke-width:0.01" />
<line x1="0.8" y1="0.827027" x2="0.972973" y2="0.827027" style="stroke:rgb(246,147,147);stroke-width:0.01" />
<line x1="0.9" y1="0.927027" x2="0.972973" y2="0.927027" style="stroke:rgb(246,147,147);stroke-width:0.01" />
</g>
</svg>
