<svg xmlns="http://www.w3.org/2000/svg" viewBox="-1.5 -1.5 3 3">
<g transform="scale(1, -1)">
<path d="M0.461538 0.073770 L0.661538 0.073770 L0.677163 0.105020 L0.581070 0.233145 L0.701538 0.393770 L0.676538 0.412520 L0.561538 0.259187 L0.446538 0.412520 L0.421538 0.393770 L0.542007 0.233145 L0.445913 0.105020 z M0.484976 0.105020 L0.561538 0.207104 L0.638101 0.105020 z " fill="rgb(245,195,195)" />
<path d="M0.000000 0.000000 L1.000000 0.000000 L1.000000 1.000000 L0.000000 1.000000  z" fill="none" stroke="rgb(128,128,128)" stroke-width="0.01" />
<line x1="0.661538" y1="0.0737705" x2="0.677163" y2="0.10502" style="stroke:rgb(246,147,147);stroke-width:0.01" />
<line x1="0.461538" y1="0.0737705" x2="0.701538" y2="0.39377" style="stroke:rgb(246,147,147);stroke-width:0.01" />
<line x1="0.445913" y1="0.10502" x2="0.676538" y2="0.41252" style="stroke:rgb(246,147,147);stroke-width:0.01" />
<line x1="0.421538" y1="0.39377" x2="0.446538" y2="0.41252" style="stroke:rgb(246,147,147);stroke-width:0.01" />
<line x1="0.461538" y1="0.0737705" x2="0.661538" y2="0.0737705" style="stroke:rgb(246,147,147);stroke-width:0.01" />
<line x1="0.445913" y1="0.10502" x2="0.677163" y2="0.10502" style="stroke:rgb(246,147,147);stroke-width:0.01" />
<line x1="0.461538" y1="0.0737705" x2="0.445913" y2="0.10502" style="stroke:rgb(246,147,147);stroke-width:0.01" />
<line x1="0.661538" y1="0.0737705" x2="0.421538" y2="0.39377" style="stroke:rgb(246,147,147);stroke-width:0.01" />
<line x1="0.677163" y1="0.10502" x2="0.446538" y2="0.41252" style="stroke:rgb(246,147,147);stroke-width:0.01" />
<line x1="0.701538" y1="0.39377" x2="0.676538" y2="0.41252" style="stroke:rgb(246,147,147);stroke-width:0.01" />
</g>
</svg>
