<svg xmlns="http://www.w3.org/2000/svg" viewBox="-1.5 -1.5 3 3">
<g transform="scale(1, -1)">
<path d="M-0.100000 -0.148571 L0.100000 -0.148571 L0.115625 -0.117321 L0.019531 0.010804 L0.140000 0.171429 L0.115000 0.190179 L0.000000 0.036845 L-0.115000 0.190179 L-0.140000 0.171429 L-0.019531 0.010804 L-0.115625 -0.117321 z M-0.076562 -0.117321 L0.000000 -0.015238 L0.076562 -0.117321 z " fill="rgb(245,195,195)" />
<path d="M-0.561538 -0.222342 L0.438462 -0.222342 L0.438462 0.777658 L-0.561538 0.777658  z" fill="none" stroke="rgb(128,128,128)" stroke-width="0.01" />
<line x1="0.1" y1="-0.148571" x2="0.115625" y2="-0.117321" style="stroke:rgb(246,147,147);stroke-width:0.01" />
<line x1="-0.1" y1="-0.148571" x2="0.14" y2="0.171429" style="stroke:rgb(246,147,147);stroke-width:0.01" />
<line x1="-0.115625" y1="-0.117321" x2="0.115" y2="0.190179" style="stroke:rgb(246,147,147);stroke-width:0.01" />
<line x1="-0.14" y1="0.171429" x2="-0.115" y2="0.190179" style="stroke:rgb(246,147,147);stroke-width:0.01" />
<line x1="-0.1" y1="-0.148571" x2="0.1" y2="-0.148571" style="stroke:rgb(246,147,147);stroke-width:0.01" />
<line x1="-0.115625" y1="-0.117321" x2="0.115625" y2="-0.117321" style="stroke:rgb(246,147,147);stroke-width:0.01" />
<line x1="-0.1" y1="-0.148571" x2="-0.115625" y2="-0.117321" style="stroke:rgb(246,147,147);stroke-width:0.01" />
<line x1="0.1" y1="-0.148571" x2="-0.14" y2="0.171429" style="stroke:rgb(246,147,147);stroke-width:0.01" />
<line x1="0.115625" y1="-0.117321" x2="-0.115" y2="0.190179" style="stroke:rgb(246,147,147);stroke-width:0.01" />
<line x1="0.14" y1="0.171429" x2="0.115" y2="0.190179" style="stroke:rgb(246,147,147);stroke-width:0.01" />
</g>
</svg>
