<svg xmlns="http://www.w3.org/2000/svg" viewBox="-1.5 -1.5 3 3">
<g transform="scale(1, -1)">
<path d="M0.020833 0.000000 L0.104167 0.000000 L0.187500 0.083333 L0.562500 0.083333 L0.437500 0.208333 L0.479167 0.208333 L0.479167 0.458333 L0.312500 0.458333 L0.312500 0.541667 L0.187500 0.541667 L0.000000 0.354167 L0.020833 0.333333 z " fill="rgb(245,195,195)" />
<path d="M0.000000 0.000000 L1.000000 0.000000 L1.000000 1.000000 L0.000000 1.000000  z" fill="none" stroke="rgb(128,128,128)" stroke-width="0.01" />
<line x1="0.3125" y1="0.0833333" x2="0.4375" y2="0.208333" style="stroke:rgb(246,147,147);stroke-width:0.01" />
<line x1="0.270833" y1="0.0833333" x2="0.416667" y2="0.229167" style="stroke:rgb(246,147,147);stroke-width:0.01" />
<line x1="0.104167" y1="0" x2="0.416667" y2="0.3125" style="stroke:rgb(246,147,147);stroke-width:0.01" />
<line x1="0.104167" y1="0.0833333" x2="0.375" y2="0.354167" style="stroke:rgb(246,147,147);stroke-width:0.01" />
<line x1="0.0208333" y1="0" x2="0.104167" y2="0" style="stroke:rgb(246,147,147);stroke-width:0.01" />
<line x1="0.0208333" y1="0" x2="0.0208333" y2="0.375" style="stroke:rgb(246,147,147);stroke-width:0.01" />
<line x1="0.0625" y1="0.291667" x2="0.0625" y2="0.333333" style="stroke:rgb(246,147,147);stroke-width:0.01" />
<line x1="0.104167" y1="0" x2="0.104167" y2="0.0833333" style="stroke:rgb(246,147,147);stroke-width:0.01" />
<line x1="0.1875" y1="0.333333" x2="0.1875" y2="0.541667" style="stroke:rgb(246,147,147);stroke-width:0.01" />
<line x1="0.270833" y1="0.0833333" x2="0.270833" y2="0.25" style="stroke:rgb(246,147,147);stroke-width:0.01" />
<line x1="0.270833" y1="0.291667" x2="0.270833" y2="0.541667" style="stroke:rgb(246,147,147);stroke-width:0.01" />
<line x1="0.3125" y1="0.0833333" x2="0.3125" y2="0.125" style="stroke:rgb(246,147,147);stroke-width:0.01" />
<line x1="0.3125" y1="0.208333" x2="0.3125" y2="0.541667" style="stroke:rgb(246,147,147);stroke-width:0.01" />
<line x1="0.354167" y1="0.0833333" x2="0.354167" y2="0.166667" style="stroke:rgb(246,147,147);stroke-width:0.01" />
<line x1="0.395833" y1="0.166667" x2="0.395833" y2="0.208333" style="stroke:rgb(246,147,147);stroke-width:0.01" />
<line x1="0.4375" y1="0.0833333" x2="0.4375" y2="0.291667" style="stroke:rgb(246,147,147);stroke-width:0.01" />
<line x1="0.479167" y1="0.208333" x2="0.479167" y2="0.458333" style="stroke:rgb(246,147,147);stroke-width:0.01" />
<line x1="0.520833" y1="0.0833333" x2="0.520833" y2="0.125" style="stroke:rgb(246,147,147);stroke-width:0.01" />
<line x1="0.1875" y1="0.333333" x2="0.3125" y2="0.458333" style="stroke:rgb(246,147,147);stroke-width:0.01" />
<line x1="0.104167" y1="0.0833333" x2="0.5625" y2="0.0833333" style="stroke:rgb(246,147,147);stroke-width:0.01" />
<line x1="0.3125" y1="0.125" x2="0.520833" y2="0.125" style="stroke:rgb(246,147,147);stroke-width:0.01" />
<line x1="0.0416667" y1="0.3125" x2="0.270833" y2="0.541667" style="stroke:rgb(246,147,147);stroke-width:0.01" />
<line x1="0.354167" y1="0.166667" x2="0.395833" y2="0.166667" style="stroke:rgb(246,147,147);stroke-width:0.01" />
<line x1="0" y1="0.354167" x2="0.1875" y2="0.541667" style="stroke:rgb(246,147,147);stroke-width:0.01" />
<line x1="0.270833" y1="0.0833333" x2="0" y2="0.354167" style="stroke:rgb(246,147,147);stroke-width:0.01" />
<line x1="0.3125" y1="0.0833333" x2="0.0208333" y2="0.375" style="stroke:rgb(246,147,147);stroke-width:0.01" />
<line x1="0.3125" y1="0.208333" x2="0.479167" y2="0.208333" style="stroke:rgb(246,147,147);stroke-width:0.01" />
<line x1="0.270833" y1="0.25" x2="0.479167" y2="0.25" style="stroke:rgb(246,147,147);stroke-width:0.01" />
<line x1="0.3125" y1="0.208333" x2="0.1875" y2="0.333333" style="stroke:rgb(246,147,147);stroke-width:0.01" />
<line x1="0.0625" y1="0.291667" x2="0.4375" y2="0.291667" style="stroke:rgb(246,147,147);stroke-width:0.01" />
<line x1="0.5625" y1="0.0833333" x2="0.145833" y2="0.5" style="stroke:rgb(246,147,147);stroke-width:0.01" />
<line x1="0.479167" y1="0.25" x2="0.1875" y2="0.541667" style="stroke:rgb(246,147,147);stroke-width:0.01" />
<line x1="0.0208333" y1="0.375" x2="0.270833" y2="0.375" style="stroke:rgb(246,147,147);stroke-width:0.01" />
<line x1="0.3125" y1="0.5" x2="0.270833" y2="0.541667" style="stroke:rgb(246,147,147);stroke-width:0.01" />
<line x1="0.1875" y1="0.458333" x2="0.479167" y2="0.458333" style="stroke:rgb(246,147,147);stroke-width:0.01" />
<line x1="0.270833" y1="0.5" x2="0.3125" y2="0.5" style="stroke:rgb(246,147,147);stroke-width:0.01" />
<line x1="0.1875" y1="0.541667" x2="0.3125" y2="0.541667" style="stroke:rgb(246,147,147);stroke-width:0.01" />
</g>
</svg>
