<svg xmlns="http://www.w3.org/2000/svg" viewBox="-1.5 -1.5 3 3">
<g transform="scale(1, -1)">
<path d="M-0.237847 -0.272569 L-0.154514 -0.272569 L-0.071181 -0.189236 L0.303819 -0.189236 L0.178819 -0.064236 L0.220486 -0.064236 L0.220486 0.185764 L0.053819 0.185764 L0.053819 0.269097 L-0.071181 0.269097 L-0.258681 0.081597 L-0.237847 0.060764 z " fill="rgb(245,195,195)" />
<path d="M-0.258681 -0.272569 L0.741319 -0.272569 L0.741319 0.727431 L-0.258681 0.727431  z" fill="none" stroke="rgb(128,128,128)" stroke-width="0.01" />
<line x1="0.0538194" y1="-0.189236" x2="0.178819" y2="-0.0642361" style="stroke:rgb(246,147,147);stroke-width:0.01" />
<line x1="0.0121528" y1="-0.189236" x2="0.157986" y2="-0.0434028" style="stroke:rgb(246,147,147);stroke-width:0.01" />
<line x1="-0.154514" y1="-0.272569" x2="0.157986" y2="0.0399306" style="stroke:rgb(246,147,147);stroke-width:0.01" />
<line x1="-0.154514" y1="-0.189236" x2="0.116319" y2="0.0815972" style="stroke:rgb(246,147,147);stroke-width:0.01" />
<line x1="-0.237847" y1="-0.272569" x2="-0.154514" y2="-0.272569" style="stroke:rgb(246,147,147);stroke-width:0.01" />
<line x1="-0.237847" y1="-0.272569" x2="-0.237847" y2="0.102431" style="stroke:rgb(246,147,147);stroke-width:0.01" />
<line x1="-0.196181" y1="0.0190972" x2="-0.196181" y2="0.0607639" style="stroke:rgb(246,147,147);stroke-width:0.01" />
<line x1="-0.154514" y1="-0.272569" x2="-0.154514" y2="-0.189236" style="stroke:rgb(246,147,147);stroke-width:0.01" />
<line x1="-0.0711806" y1="0.0607639" x2="-0.0711806" y2="0.269097" style="stroke:rgb(246,147,147);stroke-width:0.01" />
<line x1="0.0121528" y1="-0.189236" x2="0.0121528" y2="-0.0225694" style="stroke:rgb(246,147,147);stroke-width:0.01" />
<line x1="0.0121528" y1="0.0190972" x2="0.0121528" y2="0.269097" style="stroke:rgb(246,147,147);stroke-width:0.01" />
<line x1="0.0538194" y1="-0.189236" x2="0.0538194" y2="-0.147569" style="stroke:rgb(246,147,147);stroke-width:0.01" />
<line x1="0.0538194" y1="-0.0642361" x2="0.0538194" y2="0.269097" style="stroke:rgb(246,147,147);stroke-width:0.01" />
<line x1="0.0954861" y1="-0.189236" x2="0.0954861" y2="-0.105903" style="stroke:rgb(246,147,147);stroke-width:0.01" />
<line x1="0.137153" y1="-0.105903" x2="0.137153" y2="-0.0642361" style="stroke:rgb(246,147,147);stroke-width:0.01" />
<line x1="0.178819" y1="-0.189236" x2="0.178819" y2="0.0190972" style="stroke:rgb(246,147,147);stroke-width:0.01" />
<line x1="0.220486" y1="-0.0642361" x2="0.220486" y2="0.185764" style="stroke:rgb(246,147,147);stroke-width:0.01" />
<line x1="0.262153" y1="-0.189236" x2="0.262153" y2="-0.147569" style="stroke:rgb(246,147,147);stroke-width:0.01" />
<line x1="-0.0711806" y1="0.0607639" x2="0.0538194" y2="0.185764" style="stroke:rgb(246,147,147);stroke-width:0.01" />
<line x1="-0.154514" y1="-0.189236" x2="0.303819" y2="-0.189236" style="stroke:rgb(246,147,147);stroke-width:0.01" />
<line x1="0.0538194" y1="-0.147569" x2="0.262153" y2="-0.147569" style="stroke:rgb(246,147,147);stroke-width:0.01" />
<line x1="-0.217014" y1="0.0399306" x2="0.0121528" y2="0.269097" style="stroke:rgb(246,147,147);stroke-width:0.01" />
<line x1="0.0954861" y1="-0.105903" x2="0.137153" y2="-0.105903" style="stroke:rgb(246,147,147);stroke-width:0.01" />
<line x1="-0.258681" y1="0.0815972" x2="-0.0711806" y2="0.269097" style="stroke:rgb(246,147,147);stroke-width:0.01" />
<line x1="0.0121528" y1="-0.189236" x2="-0.258681" y2="0.0815972" style="stroke:rgb(246,147,147);stroke-width:0.01" />
<line x1="0.0538194" y1="-0.189236" x2="-0.237847" y2="0.102431" style="stroke:rgb(246,147,147);stroke-width:0.01" />
<line x1="0.0538194" y1="-0.0642361" x2="0.220486" y2="-0.0642361" style="stroke:rgb(246,147,147);stroke-width:0.01" />
<line x1="0.0121528" y1="-0.0225694" x2="0.220486" y2="-0.0225694" style="stroke:rgb(246,147,147);stroke-width:0.01" />
<line x1="0.0538194" y1="-0.0642361" x2="-0.0711806" y2="0.0607639" style="stroke:rgb(246,147,147);stroke-width:0.01" />
<line x1="-0.196181" y1="0.0190972" x2="0.178819" y2="0.0190972" style="stroke:rgb(246,147,147);stroke-width:0.01" />
<line x1="0.303819" y1="-0.189236" x2="-0.112847" y2="0.227431" style="stroke:rgb(246,147,147);stroke-width:0.01" />
<line x1="0.220486" y1="-0.0225694" x2="-0.0711806" y2="0.269097" style="stroke:rgb(246,147,147);stroke-width:0.01" />
<line x1="-0.237847" y1="0.102431" x2="0.0121528" y2="0.102431" style="stroke:rgb(246,147,147);stroke-width:0.01" />
<line x1="0.0538194" y1="0.227431" x2="0.0121528" y2="0.269097" style="stroke:rgb(246,147,147);stroke-width:0.01" />
<line x1="-0.0711806" y1="0.185764" x2="0.220486" y2="0.185764" style="stroke:rgb(246,147,147);stroke-width:0.01" />
<line x1="0.0121528" y1="0.227431" x2="0.0538194" y2="0.227431" style="stroke:rgb(246,147,147);stroke-width:0.01" />
<line x1="-0.0711806" y1="0.269097" x2="0.0538194" y2="0.269097" style="stroke:rgb(246,147,147);stroke-width:0.01" />
</g>
</svg>
