<svg xmlns="http://www.w3.org/2000/svg" viewBox="-1.5 -1.5 3 3">
<g transform="scale(1, -1)">
<path d="M-0.098958 -0.291667 L0.067708 -0.291667 L0.067708 -0.041667 L0.151042 -0.041667 L0.151042 0.041667 L0.401042 0.041667 L0.401042 0.125000 L0.234375 0.291667 L0.067708 0.291667 L-0.098958 0.125000 L-0.265625 0.125000 L-0.307292 0.083333 L-0.307292 -0.041667 L-0.223958 -0.125000 L-0.140625 -0.125000 L-0.098958 -0.166667 z " fill="rgb(245,195,195)" />
<path d="M-0.307292 -0.291667 L0.692708 -0.291667 L0.692708 0.708333 L-0.307292 0.708333  z" fill="none" stroke="rgb(128,128,128)" stroke-width="0.01" />
<line x1="0.0677083" y1="0.0416667" x2="0.151042" y2="0.125" style="stroke:rgb(246,147,147);stroke-width:0.01" />
<line x1="-0.0989583" y1="-0.291667" x2="0.0677083" y2="-0.291667" style="stroke:rgb(246,147,147);stroke-width:0.01" />
<line x1="-0.307292" y1="-0.0416667" x2="-0.307292" y2="0.0833333" style="stroke:rgb(246,147,147);stroke-width:0.01" />
<line x1="-0.223958" y1="-0.0416667" x2="-0.223958" y2="0" style="stroke:rgb(246,147,147);stroke-width:0.01" />
<line x1="-0.182292" y1="-0.0833333" x2="-0.182292" y2="0" style="stroke:rgb(246,147,147);stroke-width:0.01" />
<line x1="-0.140625" y1="-0.125" x2="-0.140625" y2="0.0833333" style="stroke:rgb(246,147,147);stroke-width:0.01" />
<line x1="-0.0989583" y1="-0.291667" x2="-0.0989583" y2="0.125" style="stroke:rgb(246,147,147);stroke-width:0.01" />
<line x1="-0.0572917" y1="-0.291667" x2="-0.0572917" y2="0.166667" style="stroke:rgb(246,147,147);stroke-width:0.01" />
<line x1="0.0260417" y1="-0.291667" x2="0.0260417" y2="-0.208333" style="stroke:rgb(246,147,147);stroke-width:0.01" />
<line x1="0.0260417" y1="-0.0416667" x2="0.0260417" y2="0.25" style="stroke:rgb(246,147,147);stroke-width:0.01" />
<line x1="0.0677083" y1="-0.291667" x2="0.0677083" y2="0.291667" style="stroke:rgb(246,147,147);stroke-width:0.01" />
<line x1="0.151042" y1="-0.0416667" x2="0.151042" y2="0.125" style="stroke:rgb(246,147,147);stroke-width:0.01" />
<line x1="0.192708" y1="0.0416667" x2="0.192708" y2="0.0833333" style="stroke:rgb(246,147,147);stroke-width:0.01" />
<line x1="0.359375" y1="0.0416667" x2="0.359375" y2="0.166667" style="stroke:rgb(246,147,147);stroke-width:0.01" />
<line x1="0.401042" y1="0.0416667" x2="0.401042" y2="0.125" style="stroke:rgb(246,147,147);stroke-width:0.01" />
<line x1="-0.140625" y1="-0.0833333" x2="0.234375" y2="0.291667" style="stroke:rgb(246,147,147);stroke-width:0.01" />
<line x1="-0.223958" y1="-0.125" x2="-0.0989583" y2="0" style="stroke:rgb(246,147,147);stroke-width:0.01" />
<line x1="-0.0572917" y1="-0.208333" x2="0.0260417" y2="-0.208333" style="stroke:rgb(246,147,147);stroke-width:0.01" />
<line x1="-0.244792" y1="-0.0208333" x2="0.0677083" y2="0.291667" style="stroke:rgb(246,147,147);stroke-width:0.01" />
<line x1="-0.223958" y1="-0.125" x2="-0.307292" y2="-0.0416667" style="stroke:rgb(246,147,147);stroke-width:0.01" />
<line x1="-0.223958" y1="-0.125" x2="-0.0572917" y2="-0.125" style="stroke:rgb(246,147,147);stroke-width:0.01" />
<line x1="0.0260417" y1="-0.291667" x2="-0.244792" y2="-0.0208333" style="stroke:rgb(246,147,147);stroke-width:0.01" />
<line x1="-0.307292" y1="0.0833333" x2="-0.265625" y2="0.125" style="stroke:rgb(246,147,147);stroke-width:0.01" />
<line x1="-0.182292" y1="-0.0833333" x2="-0.140625" y2="-0.0833333" style="stroke:rgb(246,147,147);stroke-width:0.01" />
<line x1="-0.0989583" y1="-0.0833333" x2="-0.0572917" y2="-0.0833333" style="stroke:rgb(246,147,147);stroke-width:0.01" />
<line x1="0.0260417" y1="-0.208333" x2="-0.203125" y2="0.0208333" style="stroke:rgb(246,147,147);stroke-width:0.01" />
<line x1="-0.0572917" y1="-0.0833333" x2="-0.265625" y2="0.125" style="stroke:rgb(246,147,147);stroke-width:0.01" />
<line x1="-0.307292" y1="-0.0416667" x2="0.151042" y2="-0.0416667" style="stroke:rgb(246,147,147);stroke-width:0.01" />
<line x1="-0.223958" y1="0" x2="-0.182292" y2="0" style="stroke:rgb(246,147,147);stroke-width:0.01" />
<line x1="-0.0989583" y1="0" x2="-0.0572917" y2="0" style="stroke:rgb(246,147,147);stroke-width:0.01" />
<line x1="0.0260417" y1="0.0416667" x2="0.401042" y2="0.0416667" style="stroke:rgb(246,147,147);stroke-width:0.01" />
<line x1="-0.307292" y1="0.0833333" x2="0.192708" y2="0.0833333" style="stroke:rgb(246,147,147);stroke-width:0.01" />
<line x1="-0.265625" y1="0.125" x2="0.401042" y2="0.125" style="stroke:rgb(246,147,147);stroke-width:0.01" />
<line x1="0.192708" y1="0.0833333" x2="0.0260417" y2="0.25" style="stroke:rgb(246,147,147);stroke-width:0.01" />
<line x1="-0.0572917" y1="0.166667" x2="0.359375" y2="0.166667" style="stroke:rgb(246,147,147);stroke-width:0.01" />
<line x1="0.401042" y1="0.125" x2="0.234375" y2="0.291667" style="stroke:rgb(246,147,147);stroke-width:0.01" />
<line x1="0.0677083" y1="0.291667" x2="0.234375" y2="0.291667" style="stroke:rgb(246,147,147);stroke-width:0.01" />
</g>
</svg>
