<svg xmlns="http://www.w3.org/2000/svg" viewBox="-1.5 -1.5 3 3">
<g transform="scale(1, -1)">
<path d="M0.066964 -0.302083 L0.108631 -0.302083 L0.108631 -0.093750 L0.150298 -0.093750 L0.191964 -0.052083 L0.191964 0.114583 L0.150298 0.114583 L0.150298 0.156250 L-0.224702 0.156250 L-0.224702 0.114583 L-0.183036 0.114583 L-0.141369 0.072917 L-0.141369 0.031250 L-0.203869 -0.031250 z " fill="rgb(245,195,195)" />
<path d="M-0.224702 -0.302083 L0.775298 -0.302083 L0.775298 0.697917 L-0.224702 0.697917  z" fill="none" stroke="rgb(128,128,128)" stroke-width="0.01" />
<line x1="0.150298" y1="-0.09375" x2="0.191964" y2="-0.0520833" style="stroke:rgb(246,147,147);stroke-width:0.01" />
<line x1="0.0669643" y1="-0.302083" x2="0.108631" y2="-0.302083" style="stroke:rgb(246,147,147);stroke-width:0.01" />
<line x1="-0.078869" y1="-0.15625" x2="0.150298" y2="0.0729167" style="stroke:rgb(246,147,147);stroke-width:0.01" />
<line x1="-0.224702" y1="0.114583" x2="-0.224702" y2="0.15625" style="stroke:rgb(246,147,147);stroke-width:0.01" />
<line x1="-0.141369" y1="-0.09375" x2="-0.141369" y2="0.15625" style="stroke:rgb(246,147,147);stroke-width:0.01" />
<line x1="-0.0580357" y1="-0.135417" x2="-0.0580357" y2="0.15625" style="stroke:rgb(246,147,147);stroke-width:0.01" />
<line x1="-0.016369" y1="-0.0104167" x2="-0.016369" y2="0.15625" style="stroke:rgb(246,147,147);stroke-width:0.01" />
<line x1="0.0252976" y1="-0.0520833" x2="0.0252976" y2="0.15625" style="stroke:rgb(246,147,147);stroke-width:0.01" />
<line x1="0.0669643" y1="-0.302083" x2="0.0669643" y2="-0.09375" style="stroke:rgb(246,147,147);stroke-width:0.01" />
<line x1="0.108631" y1="-0.302083" x2="0.108631" y2="0.15625" style="stroke:rgb(246,147,147);stroke-width:0.01" />
<line x1="0.150298" y1="0.0729167" x2="0.150298" y2="0.15625" style="stroke:rgb(246,147,147);stroke-width:0.01" />
<line x1="0.191964" y1="-0.0520833" x2="0.191964" y2="0.114583" style="stroke:rgb(246,147,147);stroke-width:0.01" />
<line x1="-0.078869" y1="-0.0729167" x2="-0.0580357" y2="-0.0520833" style="stroke:rgb(246,147,147);stroke-width:0.01" />
<line x1="-0.141369" y1="-0.0520833" x2="0.0669643" y2="0.15625" style="stroke:rgb(246,147,147);stroke-width:0.01" />
<line x1="-0.183036" y1="-0.0520833" x2="0.0252976" y2="0.15625" style="stroke:rgb(246,147,147);stroke-width:0.01" />
<line x1="-0.203869" y1="-0.03125" x2="-0.016369" y2="0.15625" style="stroke:rgb(246,147,147);stroke-width:0.01" />
<line x1="0.0669643" y1="-0.302083" x2="-0.203869" y2="-0.03125" style="stroke:rgb(246,147,147);stroke-width:0.01" />
<line x1="-0.0580357" y1="-0.135417" x2="-0.183036" y2="-0.0104167" style="stroke:rgb(246,147,147);stroke-width:0.01" />
<line x1="-0.0372024" y1="-0.114583" x2="-0.141369" y2="-0.0104167" style="stroke:rgb(246,147,147);stroke-width:0.01" />
<line x1="-0.141369" y1="-0.09375" x2="0.150298" y2="-0.09375" style="stroke:rgb(246,147,147);stroke-width:0.01" />
<line x1="-0.0580357" y1="-0.0520833" x2="-0.141369" y2="0.03125" style="stroke:rgb(246,147,147);stroke-width:0.01" />
<line x1="0.00446429" y1="-0.0729167" x2="-0.224702" y2="0.15625" style="stroke:rgb(246,147,147);stroke-width:0.01" />
<line x1="-0.183036" y1="-0.0520833" x2="0.191964" y2="-0.0520833" style="stroke:rgb(246,147,147);stroke-width:0.01" />
<line x1="0.0669643" y1="-0.09375" x2="-0.0997024" y2="0.0729167" style="stroke:rgb(246,147,147);stroke-width:0.01" />
<line x1="-0.141369" y1="-0.0104167" x2="0.0669643" y2="-0.0104167" style="stroke:rgb(246,147,147);stroke-width:0.01" />
<line x1="0.150298" y1="-0.09375" x2="0.0669643" y2="-0.0104167" style="stroke:rgb(246,147,147);stroke-width:0.01" />
<line x1="-0.141369" y1="0.03125" x2="0.108631" y2="0.03125" style="stroke:rgb(246,147,147);stroke-width:0.01" />
<line x1="0.150298" y1="0.0729167" x2="0.0669643" y2="0.15625" style="stroke:rgb(246,147,147);stroke-width:0.01" />
<line x1="-0.224702" y1="0.114583" x2="0.191964" y2="0.114583" style="stroke:rgb(246,147,147);stroke-width:0.01" />
<line x1="-0.224702" y1="0.15625" x2="0.150298" y2="0.15625" style="stroke:rgb(246,147,147);stroke-width:0.01" />
</g>
</svg>
