<svg xmlns="http://www.w3.org/2000/svg" viewBox="-1.5 -1.5 3 3">
<g transform="scale(1, -1)">
<path d="M-0.260417 -0.258333 L-0.135417 -0.258333 L-0.093750 -0.216667 L-0.093750 -0.133333 L-0.052083 -0.175000 L0.031250 -0.175000 L0.031250 -0.050000 L0.072917 -0.050000 L0.072917 0.033333 L0.156250 0.033333 L0.156250 0.075000 L0.197917 0.075000 L0.197917 0.116667 L0.156250 0.116667 L0.156250 0.200000 L-0.010417 0.200000 L-0.052083 0.158333 L-0.093750 0.158333 L-0.177083 0.075000 L-0.260417 0.075000 z " fill="rgb(245,195,195)" />
<path d="M-0.260417 -0.258333 L0.739583 -0.258333 L0.739583 0.741667 L-0.260417 0.741667  z" fill="none" stroke="rgb(128,128,128)" stroke-width="0.01" />
<line x1="-0.135417" y1="-0.258333" x2="-0.09375" y2="-0.216667" style="stroke:rgb(246,147,147);stroke-width:0.01" />
<line x1="-0.260417" y1="-0.258333" x2="-0.135417" y2="-0.258333" style="stroke:rgb(246,147,147);stroke-width:0.01" />
<line x1="-0.0520833" y1="-0.05" x2="-0.0104167" y2="-0.00833333" style="stroke:rgb(246,147,147);stroke-width:0.01" />
<line x1="-0.260417" y1="-0.258333" x2="-0.260417" y2="0.075" style="stroke:rgb(246,147,147);stroke-width:0.01" />
<line x1="-0.177083" y1="-0.133333" x2="-0.177083" y2="0.075" style="stroke:rgb(246,147,147);stroke-width:0.01" />
<line x1="-0.135417" y1="-0.258333" x2="-0.135417" y2="0.116667" style="stroke:rgb(246,147,147);stroke-width:0.01" />
<line x1="-0.09375" y1="-0.216667" x2="-0.09375" y2="0.158333" style="stroke:rgb(246,147,147);stroke-width:0.01" />
<line x1="-0.0520833" y1="-0.175" x2="-0.0520833" y2="0.116667" style="stroke:rgb(246,147,147);stroke-width:0.01" />
<line x1="-0.0104167" y1="-0.175" x2="-0.0104167" y2="0.2" style="stroke:rgb(246,147,147);stroke-width:0.01" />
<line x1="0.03125" y1="-0.175" x2="0.03125" y2="0.158333" style="stroke:rgb(246,147,147);stroke-width:0.01" />
<line x1="0.0729167" y1="-0.05" x2="0.0729167" y2="0.2" style="stroke:rgb(246,147,147);stroke-width:0.01" />
<line x1="0.15625" y1="0.0333333" x2="0.15625" y2="0.2" style="stroke:rgb(246,147,147);stroke-width:0.01" />
<line x1="0.197917" y1="0.075" x2="0.197917" y2="0.116667" style="stroke:rgb(246,147,147);stroke-width:0.01" />
<line x1="-0.177083" y1="-0.133333" x2="0.03125" y2="0.075" style="stroke:rgb(246,147,147);stroke-width:0.01" />
<line x1="-0.177083" y1="-0.05" x2="0.0729167" y2="0.2" style="stroke:rgb(246,147,147);stroke-width:0.01" />
<line x1="-0.135417" y1="0.0333333" x2="0.03125" y2="0.2" style="stroke:rgb(246,147,147);stroke-width:0.01" />
<line x1="-0.0520833" y1="-0.175" x2="0.03125" y2="-0.175" style="stroke:rgb(246,147,147);stroke-width:0.01" />
<line x1="-0.260417" y1="-0.05" x2="-0.0104167" y2="0.2" style="stroke:rgb(246,147,147);stroke-width:0.01" />
<line x1="-0.09375" y1="-0.216667" x2="-0.177083" y2="-0.133333" style="stroke:rgb(246,147,147);stroke-width:0.01" />
<line x1="-0.177083" y1="0.075" x2="-0.09375" y2="0.158333" style="stroke:rgb(246,147,147);stroke-width:0.01" />
<line x1="-0.0520833" y1="-0.175" x2="-0.177083" y2="-0.05" style="stroke:rgb(246,147,147);stroke-width:0.01" />
<line x1="-0.135417" y1="-0.0916667" x2="0.03125" y2="-0.0916667" style="stroke:rgb(246,147,147);stroke-width:0.01" />
<line x1="-0.260417" y1="-0.05" x2="0.0729167" y2="-0.05" style="stroke:rgb(246,147,147);stroke-width:0.01" />
<line x1="-0.0104167" y1="-0.0916667" x2="-0.177083" y2="0.075" style="stroke:rgb(246,147,147);stroke-width:0.01" />
<line x1="-0.0520833" y1="-0.00833333" x2="-0.09375" y2="0.0333333" style="stroke:rgb(246,147,147);stroke-width:0.01" />
<line x1="-0.260417" y1="-0.00833333" x2="0.03125" y2="-0.00833333" style="stroke:rgb(246,147,147);stroke-width:0.01" />
<line x1="-0.0104167" y1="0.0333333" x2="-0.0520833" y2="0.075" style="stroke:rgb(246,147,147);stroke-width:0.01" />
<line x1="-0.177083" y1="0.0333333" x2="0.15625" y2="0.0333333" style="stroke:rgb(246,147,147);stroke-width:0.01" />
<line x1="0.03125" y1="0.075" x2="-0.0104167" y2="0.116667" style="stroke:rgb(246,147,147);stroke-width:0.01" />
<line x1="-0.260417" y1="0.075" x2="0.197917" y2="0.075" style="stroke:rgb(246,147,147);stroke-width:0.01" />
<line x1="-0.135417" y1="0.116667" x2="0.197917" y2="0.116667" style="stroke:rgb(246,147,147);stroke-width:0.01" />
<line x1="0.15625" y1="0.075" x2="0.03125" y2="0.2" style="stroke:rgb(246,147,147);stroke-width:0.01" />
<line x1="0.197917" y1="0.075" x2="0.0729167" y2="0.2" style="stroke:rgb(246,147,147);stroke-width:0.01" />
<line x1="-0.09375" y1="0.158333" x2="0.03125" y2="0.158333" style="stroke:rgb(246,147,147);stroke-width:0.01" />
<line x1="-0.0104167" y1="0.2" x2="0.15625" y2="0.2" style="stroke:rgb(246,147,147);stroke-width:0.01" />
</g>
</svg>
