<svg xmlns="http://www.w3.org/2000/svg" viewBox="-1.5 -1.5 3 3">
<g transform="scale(1, -1)">
<path d="M0.583333 0.000000 L0.625000 0.041667 L0.625000 0.375000 L0.458333 0.541667 L0.458333 0.583333 L0.500000 0.625000 L0.625000 0.625000 L0.625000 0.708333 L0.166667 0.708333 L0.166667 0.666667 L0.208333 0.666667 L0.208333 0.500000 L0.000000 0.291667 L0.291667 0.291667 z " fill="rgb(245,195,195)" />
<path d="M0.000000 0.000000 L1.000000 0.000000 L1.000000 1.000000 L0.000000 1.000000  z" fill="none" stroke="rgb(128,128,128)" stroke-width="0.01" />
<line x1="0.583333" y1="0" x2="0.625" y2="0.0416667" style="stroke:rgb(246,147,147);stroke-width:0.01" />
<line x1="0.541667" y1="0.291667" x2="0.625" y2="0.375" style="stroke:rgb(246,147,147);stroke-width:0.01" />
<line x1="0.166667" y1="0.666667" x2="0.166667" y2="0.708333" style="stroke:rgb(246,147,147);stroke-width:0.01" />
<line x1="0.208333" y1="0.291667" x2="0.208333" y2="0.708333" style="stroke:rgb(246,147,147);stroke-width:0.01" />
<line x1="0.333333" y1="0.416667" x2="0.333333" y2="0.666667" style="stroke:rgb(246,147,147);stroke-width:0.01" />
<line x1="0.375" y1="0.625" x2="0.375" y2="0.708333" style="stroke:rgb(246,147,147);stroke-width:0.01" />
<line x1="0.416667" y1="0.5" x2="0.416667" y2="0.666667" style="stroke:rgb(246,147,147);stroke-width:0.01" />
<line x1="0.458333" y1="0.458333" x2="0.458333" y2="0.708333" style="stroke:rgb(246,147,147);stroke-width:0.01" />
<line x1="0.541667" y1="0.0416667" x2="0.541667" y2="0.458333" style="stroke:rgb(246,147,147);stroke-width:0.01" />
<line x1="0.583333" y1="0" x2="0.583333" y2="0.0833333" style="stroke:rgb(246,147,147);stroke-width:0.01" />
<line x1="0.625" y1="0.0416667" x2="0.625" y2="0.375" style="stroke:rgb(246,147,147);stroke-width:0.01" />
<line x1="0.625" y1="0.625" x2="0.625" y2="0.708333" style="stroke:rgb(246,147,147);stroke-width:0.01" />
<line x1="0.583333" y1="0.625" x2="0.625" y2="0.666667" style="stroke:rgb(246,147,147);stroke-width:0.01" />
<line x1="0.208333" y1="0.291667" x2="0.458333" y2="0.541667" style="stroke:rgb(246,147,147);stroke-width:0.01" />
<line x1="0.541667" y1="0.0416667" x2="0.625" y2="0.0416667" style="stroke:rgb(246,147,147);stroke-width:0.01" />
<line x1="0.229167" y1="0.354167" x2="0.541667" y2="0.666667" style="stroke:rgb(246,147,147);stroke-width:0.01" />
<line x1="0.541667" y1="0.0833333" x2="0.583333" y2="0.0833333" style="stroke:rgb(246,147,147);stroke-width:0.01" />
<line x1="0.208333" y1="0.416667" x2="0.375" y2="0.583333" style="stroke:rgb(246,147,147);stroke-width:0.01" />
<line x1="0" y1="0.291667" x2="0.395833" y2="0.6875" style="stroke:rgb(246,147,147);stroke-width:0.01" />
<line x1="0.333333" y1="0.666667" x2="0.375" y2="0.708333" style="stroke:rgb(246,147,147);stroke-width:0.01" />
<line x1="0.25" y1="0.666667" x2="0.291667" y2="0.708333" style="stroke:rgb(246,147,147);stroke-width:0.01" />
<line x1="0.208333" y1="0.666667" x2="0.25" y2="0.708333" style="stroke:rgb(246,147,147);stroke-width:0.01" />
<line x1="0.166667" y1="0.666667" x2="0.208333" y2="0.708333" style="stroke:rgb(246,147,147);stroke-width:0.01" />
<line x1="0" y1="0.291667" x2="0.625" y2="0.291667" style="stroke:rgb(246,147,147);stroke-width:0.01" />
<line x1="0.583333" y1="0" x2="0.208333" y2="0.375" style="stroke:rgb(246,147,147);stroke-width:0.01" />
<line x1="0.583333" y1="0.0416667" x2="0.25" y2="0.375" style="stroke:rgb(246,147,147);stroke-width:0.01" />
<line x1="0.625" y1="0.0416667" x2="0.583333" y2="0.0833333" style="stroke:rgb(246,147,147);stroke-width:0.01" />
<line x1="0.208333" y1="0.375" x2="0.25" y2="0.375" style="stroke:rgb(246,147,147);stroke-width:0.01" />
<line x1="0.208333" y1="0.416667" x2="0.333333" y2="0.416667" style="stroke:rgb(246,147,147);stroke-width:0.01" />
<line x1="0.208333" y1="0.666667" x2="0.166667" y2="0.708333" style="stroke:rgb(246,147,147);stroke-width:0.01" />
<line x1="0.458333" y1="0.458333" x2="0.541667" y2="0.458333" style="stroke:rgb(246,147,147);stroke-width:0.01" />
<line x1="0.458333" y1="0.458333" x2="0.208333" y2="0.708333" style="stroke:rgb(246,147,147);stroke-width:0.01" />
<line x1="0.4375" y1="0.520833" x2="0.25" y2="0.708333" style="stroke:rgb(246,147,147);stroke-width:0.01" />
<line x1="0.208333" y1="0.5" x2="0.416667" y2="0.5" style="stroke:rgb(246,147,147);stroke-width:0.01" />
<line x1="0.625" y1="0.375" x2="0.291667" y2="0.708333" style="stroke:rgb(246,147,147);stroke-width:0.01" />
<line x1="0.458333" y1="0.583333" x2="0.375" y2="0.666667" style="stroke:rgb(246,147,147);stroke-width:0.01" />
<line x1="0.479167" y1="0.604167" x2="0.375" y2="0.708333" style="stroke:rgb(246,147,147);stroke-width:0.01" />
<line x1="0.375" y1="0.583333" x2="0.458333" y2="0.583333" style="stroke:rgb(246,147,147);stroke-width:0.01" />
<line x1="0.583333" y1="0.625" x2="0.541667" y2="0.666667" style="stroke:rgb(246,147,147);stroke-width:0.01" />
<line x1="0.375" y1="0.625" x2="0.625" y2="0.625" style="stroke:rgb(246,147,147);stroke-width:0.01" />
<line x1="0.166667" y1="0.666667" x2="0.625" y2="0.666667" style="stroke:rgb(246,147,147);stroke-width:0.01" />
<line x1="0.166667" y1="0.708333" x2="0.625" y2="0.708333" style="stroke:rgb(246,147,147);stroke-width:0.01" />
</g>
</svg>
