<svg xmlns="http://www.w3.org/2000/svg" viewBox="-1.5 -1.5 3 3">
<g transform="scale(1, -1)">
<path d="M0.187500 -0.473214 L0.229167 -0.431548 L0.229167 -0.098214 L0.062500 0.068452 L0.062500 0.110119 L0.104167 0.151786 L0.229167 0.151786 L0.229167 0.235119 L-0.229167 0.235119 L-0.229167 0.193452 L-0.187500 0.193452 L-0.187500 0.026786 L-0.395833 -0.181548 L-0.104167 -0.181548 z " fill="rgb(245,195,195)" />
<path d="M-0.395833 -0.473214 L0.604167 -0.473214 L0.604167 0.526786 L-0.395833 0.526786  z" fill="none" stroke="rgb(128,128,128)" stroke-width="0.01" />
<line x1="0.1875" y1="-0.473214" x2="0.229167" y2="-0.431548" style="stroke:rgb(246,147,147);stroke-width:0.01" />
<line x1="0.145833" y1="-0.181548" x2="0.229167" y2="-0.0982143" style="stroke:rgb(246,147,147);stroke-width:0.01" />
<line x1="-0.229167" y1="0.193452" x2="-0.229167" y2="0.235119" style="stroke:rgb(246,147,147);stroke-width:0.01" />
<line x1="-0.1875" y1="-0.181548" x2="-0.1875" y2="0.235119" style="stroke:rgb(246,147,147);stroke-width:0.01" />
<line x1="-0.0625" y1="-0.0565476" x2="-0.0625" y2="0.193452" style="stroke:rgb(246,147,147);stroke-width:0.01" />
<line x1="-0.0208333" y1="0.151786" x2="-0.0208333" y2="0.235119" style="stroke:rgb(246,147,147);stroke-width:0.01" />
<line x1="0.0208333" y1="0.0267857" x2="0.0208333" y2="0.193452" style="stroke:rgb(246,147,147);stroke-width:0.01" />
<line x1="0.0625" y1="-0.014881" x2="0.0625" y2="0.235119" style="stroke:rgb(246,147,147);stroke-width:0.01" />
<line x1="0.145833" y1="-0.431548" x2="0.145833" y2="-0.014881" style="stroke:rgb(246,147,147);stroke-width:0.01" />
<line x1="0.1875" y1="-0.473214" x2="0.1875" y2="-0.389881" style="stroke:rgb(246,147,147);stroke-width:0.01" />
<line x1="0.229167" y1="-0.431548" x2="0.229167" y2="-0.0982143" style="stroke:rgb(246,147,147);stroke-width:0.01" />
<line x1="0.229167" y1="0.151786" x2="0.229167" y2="0.235119" style="stroke:rgb(246,147,147);stroke-width:0.01" />
<line x1="0.1875" y1="0.151786" x2="0.229167" y2="0.193452" style="stroke:rgb(246,147,147);stroke-width:0.01" />
<line x1="-0.1875" y1="-0.181548" x2="0.0625" y2="0.0684524" style="stroke:rgb(246,147,147);stroke-width:0.01" />
<line x1="0.145833" y1="-0.431548" x2="0.229167" y2="-0.431548" style="stroke:rgb(246,147,147);stroke-width:0.01" />
<line x1="-0.166667" y1="-0.119048" x2="0.145833" y2="0.193452" style="stroke:rgb(246,147,147);stroke-width:0.01" />
<line x1="0.145833" y1="-0.389881" x2="0.1875" y2="-0.389881" style="stroke:rgb(246,147,147);stroke-width:0.01" />
<line x1="-0.1875" y1="-0.0565476" x2="-0.0208333" y2="0.110119" style="stroke:rgb(246,147,147);stroke-width:0.01" />
<line x1="-0.395833" y1="-0.181548" x2="0" y2="0.214286" style="stroke:rgb(246,147,147);stroke-width:0.01" />
<line x1="-0.0625" y1="0.193452" x2="-0.0208333" y2="0.235119" style="stroke:rgb(246,147,147);stroke-width:0.01" />
<line x1="-0.145833" y1="0.193452" x2="-0.104167" y2="0.235119" style="stroke:rgb(246,147,147);stroke-width:0.01" />
<line x1="-0.1875" y1="0.193452" x2="-0.145833" y2="0.235119" style="stroke:rgb(246,147,147);stroke-width:0.01" />
<line x1="-0.229167" y1="0.193452" x2="-0.1875" y2="0.235119" style="stroke:rgb(246,147,147);stroke-width:0.01" />
<line x1="-0.395833" y1="-0.181548" x2="0.229167" y2="-0.181548" style="stroke:rgb(246,147,147);stroke-width:0.01" />
<line x1="0.1875" y1="-0.473214" x2="-0.1875" y2="-0.0982143" style="stroke:rgb(246,147,147);stroke-width:0.01" />
<line x1="0.1875" y1="-0.431548" x2="-0.145833" y2="-0.0982143" style="stroke:rgb(246,147,147);stroke-width:0.01" />
<line x1="0.229167" y1="-0.431548" x2="0.1875" y2="-0.389881" style="stroke:rgb(246,147,147);stroke-width:0.01" />
<line x1="-0.1875" y1="-0.0982143" x2="-0.145833" y2="-0.0982143" style="stroke:rgb(246,147,147);stroke-width:0.01" />
<line x1="-0.1875" y1="-0.0565476" x2="-0.0625" y2="-0.0565476" style="stroke:rgb(246,147,147);stroke-width:0.01" />
<line x1="-0.1875" y1="0.193452" x2="-0.229167" y2="0.235119" style="stroke:rgb(246,147,147);stroke-width:0.01" />
<line x1="0.0625" y1="-0.014881" x2="0.145833" y2="-0.014881" style="stroke:rgb(246,147,147);stroke-width:0.01" />
<line x1="0.0625" y1="-0.014881" x2="-0.1875" y2="0.235119" style="stroke:rgb(246,147,147);stroke-width:0.01" />
<line x1="0.0416667" y1="0.047619" x2="-0.145833" y2="0.235119" style="stroke:rgb(246,147,147);stroke-width:0.01" />
<line x1="-0.1875" y1="0.0267857" x2="0.0208333" y2="0.0267857" style="stroke:rgb(246,147,147);stroke-width:0.01" />
<line x1="0.229167" y1="-0.0982143" x2="-0.104167" y2="0.235119" style="stroke:rgb(246,147,147);stroke-width:0.01" />
<line x1="0.0625" y1="0.110119" x2="-0.0208333" y2="0.193452" style="stroke:rgb(246,147,147);stroke-width:0.01" />
<line x1="0.0833333" y1="0.130952" x2="-0.0208333" y2="0.235119" style="stroke:rgb(246,147,147);stroke-width:0.01" />
<line x1="-0.0208333" y1="0.110119" x2="0.0625" y2="0.110119" style="stroke:rgb(246,147,147);stroke-width:0.01" />
<line x1="0.1875" y1="0.151786" x2="0.145833" y2="0.193452" style="stroke:rgb(246,147,147);stroke-width:0.01" />
<line x1="-0.0208333" y1="0.151786" x2="0.229167" y2="0.151786" style="stroke:rgb(246,147,147);stroke-width:0.01" />
<line x1="-0.229167" y1="0.193452" x2="0.229167" y2="0.193452" style="stroke:rgb(246,147,147);stroke-width:0.01" />
<line x1="-0.229167" y1="0.235119" x2="0.229167" y2="0.235119" style="stroke:rgb(246,147,147);stroke-width:0.01" />
</g>
</svg>
