<svg xmlns="http://www.w3.org/2000/svg" viewBox="-1.5 -1.5 3 3">
<g transform="scale(1, -1)">
<path d="M-0.014205 -0.188447 L0.027462 -0.146780 L0.152462 -0.146780 L0.173295 -0.125947 L0.152462 -0.105114 L0.152462 -0.063447 L0.277462 -0.063447 L0.277462 -0.021780 L0.152462 0.103220 L0.152462 0.228220 L0.110795 0.228220 L0.069129 0.186553 L0.069129 0.144886 L0.027462 0.103220 L-0.139205 0.103220 L-0.139205 0.061553 L-0.097538 0.019886 L-0.389205 0.019886 L-0.389205 -0.021780 L-0.347538 -0.021780 L-0.222538 -0.146780 L-0.055871 -0.146780 z " fill="rgb(245,195,195)" />
<path d="M-0.389205 -0.188447 L0.610795 -0.188447 L0.610795 0.811553 L-0.389205 0.811553  z" fill="none" stroke="rgb(128,128,128)" stroke-width="0.01" />
<line x1="0.152462" y1="-0.14678" x2="0.173295" y2="-0.125947" style="stroke:rgb(246,147,147);stroke-width:0.01" />
<line x1="0.110795" y1="-0.14678" x2="0.152462" y2="-0.105114" style="stroke:rgb(246,147,147);stroke-width:0.01" />
<line x1="0.0691288" y1="-0.14678" x2="0.235795" y2="0.0198864" style="stroke:rgb(246,147,147);stroke-width:0.01" />
<line x1="-0.0142045" y1="-0.188447" x2="0.0274621" y2="-0.14678" style="stroke:rgb(246,147,147);stroke-width:0.01" />
<line x1="0.0691288" y1="-0.105114" x2="0.214962" y2="0.0407197" style="stroke:rgb(246,147,147);stroke-width:0.01" />
<line x1="0.0691288" y1="-0.063447" x2="0.194129" y2="0.061553" style="stroke:rgb(246,147,147);stroke-width:0.01" />
<line x1="-0.139205" y1="-0.14678" x2="0.0274621" y2="0.0198864" style="stroke:rgb(246,147,147);stroke-width:0.01" />
<line x1="-0.222538" y1="-0.14678" x2="0.152462" y2="0.22822" style="stroke:rgb(246,147,147);stroke-width:0.01" />
<line x1="0.0691288" y1="0.186553" x2="0.110795" y2="0.22822" style="stroke:rgb(246,147,147);stroke-width:0.01" />
<line x1="-0.389205" y1="-0.0217803" x2="-0.389205" y2="0.0198864" style="stroke:rgb(246,147,147);stroke-width:0.01" />
<line x1="-0.180871" y1="-0.14678" x2="-0.180871" y2="-0.105114" style="stroke:rgb(246,147,147);stroke-width:0.01" />
<line x1="-0.139205" y1="0.061553" x2="-0.139205" y2="0.10322" style="stroke:rgb(246,147,147);stroke-width:0.01" />
<line x1="-0.0975379" y1="-0.105114" x2="-0.0975379" y2="-0.0217803" style="stroke:rgb(246,147,147);stroke-width:0.01" />
<line x1="-0.0558712" y1="-0.14678" x2="-0.0558712" y2="0.0198864" style="stroke:rgb(246,147,147);stroke-width:0.01" />
<line x1="-0.0142045" y1="-0.188447" x2="-0.0142045" y2="0.10322" style="stroke:rgb(246,147,147);stroke-width:0.01" />
<line x1="0.0274621" y1="-0.14678" x2="0.0274621" y2="0.10322" style="stroke:rgb(246,147,147);stroke-width:0.01" />
<line x1="0.0691288" y1="-0.14678" x2="0.0691288" y2="0.186553" style="stroke:rgb(246,147,147);stroke-width:0.01" />
<line x1="0.110795" y1="-0.14678" x2="0.110795" y2="0.22822" style="stroke:rgb(246,147,147);stroke-width:0.01" />
<line x1="0.152462" y1="-0.14678" x2="0.152462" y2="0.22822" style="stroke:rgb(246,147,147);stroke-width:0.01" />
<line x1="0.194129" y1="0.0198864" x2="0.194129" y2="0.061553" style="stroke:rgb(246,147,147);stroke-width:0.01" />
<line x1="0.277462" y1="-0.063447" x2="0.277462" y2="-0.0217803" style="stroke:rgb(246,147,147);stroke-width:0.01" />
<line x1="-0.222538" y1="-0.14678" x2="0.152462" y2="-0.14678" style="stroke:rgb(246,147,147);stroke-width:0.01" />
<line x1="-0.180871" y1="-0.105114" x2="0.152462" y2="-0.105114" style="stroke:rgb(246,147,147);stroke-width:0.01" />
<line x1="-0.222538" y1="-0.14678" x2="-0.389205" y2="0.0198864" style="stroke:rgb(246,147,147);stroke-width:0.01" />
<line x1="-0.139205" y1="-0.063447" x2="0.277462" y2="-0.063447" style="stroke:rgb(246,147,147);stroke-width:0.01" />
<line x1="-0.139205" y1="-0.14678" x2="-0.180871" y2="-0.105114" style="stroke:rgb(246,147,147);stroke-width:0.01" />
<line x1="-0.389205" y1="-0.0217803" x2="0.277462" y2="-0.0217803" style="stroke:rgb(246,147,147);stroke-width:0.01" />
<line x1="-0.0142045" y1="-0.188447" x2="-0.139205" y2="-0.063447" style="stroke:rgb(246,147,147);stroke-width:0.01" />
<line x1="-0.389205" y1="0.0198864" x2="0.0274621" y2="0.0198864" style="stroke:rgb(246,147,147);stroke-width:0.01" />
<line x1="0.152462" y1="0.0198864" x2="0.194129" y2="0.0198864" style="stroke:rgb(246,147,147);stroke-width:0.01" />
<line x1="-0.139205" y1="0.061553" x2="0.194129" y2="0.061553" style="stroke:rgb(246,147,147);stroke-width:0.01" />
<line x1="0.0691288" y1="-0.14678" x2="-0.139205" y2="0.061553" style="stroke:rgb(246,147,147);stroke-width:0.01" />
<line x1="0.110795" y1="-0.14678" x2="-0.0558712" y2="0.0198864" style="stroke:rgb(246,147,147);stroke-width:0.01" />
<line x1="-0.139205" y1="0.10322" x2="0.152462" y2="0.10322" style="stroke:rgb(246,147,147);stroke-width:0.01" />
<line x1="0.152462" y1="-0.14678" x2="-0.0142045" y2="0.0198864" style="stroke:rgb(246,147,147);stroke-width:0.01" />
<line x1="0.173295" y1="-0.125947" x2="-0.0142045" y2="0.061553" style="stroke:rgb(246,147,147);stroke-width:0.01" />
<line x1="0.110795" y1="0.22822" x2="0.152462" y2="0.22822" style="stroke:rgb(246,147,147);stroke-width:0.01" />
<line x1="0.277462" y1="-0.0217803" x2="0.0691288" y2="0.186553" style="stroke:rgb(246,147,147);stroke-width:0.01" />
</g>
</svg>
