<svg xmlns="http://www.w3.org/2000/svg" viewBox="-1.5 -1.5 3 3">
<g transform="scale(1, -1)">
<path d="M-0.664103 -0.275458 L0.235897 -0.275458 L0.235897 -0.249817 L0.310256 -0.249817 L0.310256 0.650183 L0.235897 0.650183 L-0.664103 -0.249817 z " fill="rgb(245,195,195)" />
<path d="M-0.664103 -0.275458 L0.335897 -0.275458 L0.335897 0.724542 L-0.664103 0.724542  z" fill="none" stroke="rgb(128,128,128)" stroke-width="0.01" />
<line x1="-0.664103" y1="-0.275458" x2="0.235897" y2="-0.275458" style="stroke:rgb(246,147,147);stroke-width:0.01" />
<line x1="-0.664103" y1="-0.275458" x2="-0.664103" y2="-0.249817" style="stroke:rgb(246,147,147);stroke-width:0.01" />
<line x1="0.135897" y1="-0.275458" x2="0.135897" y2="0.550183" style="stroke:rgb(246,147,147);stroke-width:0.01" />
<line x1="0.235897" y1="-0.275458" x2="0.235897" y2="0.650183" style="stroke:rgb(246,147,147);stroke-width:0.01" />
<line x1="0.310256" y1="-0.249817" x2="0.310256" y2="0.650183" style="stroke:rgb(246,147,147);stroke-width:0.01" />
<line x1="-0.664103" y1="-0.249817" x2="0.235897" y2="0.650183" style="stroke:rgb(246,147,147);stroke-width:0.01" />
<line x1="-0.664103" y1="-0.249817" x2="0.310256" y2="-0.249817" style="stroke:rgb(246,147,147);stroke-width:0.01" />
<line x1="0.135897" y1="0.550183" x2="0.310256" y2="0.550183" style="stroke:rgb(246,147,147);stroke-width:0.01" />
<line x1="0.235897" y1="0.650183" x2="0.310256" y2="0.650183" style="stroke:rgb(246,147,147);stroke-width:0.01" />
</g>
</svg>
