<svg xmlns="http://www.w3.org/2000/svg" viewBox="-1.5 -1.5 3 3">
<g transform="scale(1, -1)">
<path d="M0.437206 -0.318356 L0.671755 -0.231829 L0.350680 -0.083807 L0.177627 0.385290 L-0.291471 0.212237 L-0.612546 0.360260 L-0.526020 0.125711 L-0.204944 -0.022311 L-0.118418 -0.256860 L0.116131 -0.170334 z " fill="rgb(245,195,195)" />
<path d="M-1.014845 1.541990 L-0.014845 1.541990 L-0.014845 2.541990 L-1.014845 2.541990  z" fill="none" stroke="rgb(128,128,128)" stroke-width="0.01" />
<line x1="0.437206" y1="-0.318356" x2="0.671755" y2="-0.231829" style="stroke:rgb(246,147,147);stroke-width:0.01" />
<line x1="-0.118418" y1="-0.25686" x2="0.35068" y2="-0.0838072" style="stroke:rgb(246,147,147);stroke-width:0.01" />
<line x1="-0.52602" y1="0.125711" x2="0.177627" y2="0.38529" style="stroke:rgb(246,147,147);stroke-width:0.01" />
<line x1="0.437206" y1="-0.318356" x2="-0.52602" y2="0.125711" style="stroke:rgb(246,147,147);stroke-width:0.01" />
<line x1="0.671755" y1="-0.231829" x2="-0.612546" y2="0.36026" style="stroke:rgb(246,147,147);stroke-width:0.01" />
<line x1="-0.52602" y1="0.125711" x2="-0.612546" y2="0.36026" style="stroke:rgb(246,147,147);stroke-width:0.01" />
<line x1="-0.118418" y1="-0.25686" x2="-0.291471" y2="0.212237" style="stroke:rgb(246,147,147);stroke-width:0.01" />
<line x1="0.437206" y1="-0.318356" x2="0.177627" y2="0.38529" style="stroke:rgb(246,147,147);stroke-width:0.01" />
</g>
</svg>
