<svg xmlns="http://www.w3.org/2000/svg" viewBox="-1.5 -1.5 3 3">
<g transform="scale(1, -1)">
<path d="M1.452052 -1.860346 L1.686600 -1.773819 L1.365525 -1.625797 L1.192472 -1.156700 L0.723374 -1.329753 L0.402299 -1.181730 L0.488825 -1.416279 L0.809901 -1.564302 L0.896427 -1.798850 L1.130976 -1.712324 z " fill="rgb(245,195,195)" />
<path d="M0.000000 0.000000 L1.000000 0.000000 L1.000000 1.000000 L0.000000 1.000000  z" fill="none" stroke="rgb(128,128,128)" stroke-width="0.01" />
<line x1="1.45205" y1="-1.86035" x2="1.6866" y2="-1.77382" style="stroke:rgb(246,147,147);stroke-width:0.01" />
<line x1="0.896427" y1="-1.79885" x2="1.36553" y2="-1.6258" style="stroke:rgb(246,147,147);stroke-width:0.01" />
<line x1="0.488825" y1="-1.41628" x2="1.19247" y2="-1.1567" style="stroke:rgb(246,147,147);stroke-width:0.01" />
<line x1="1.45205" y1="-1.86035" x2="0.488825" y2="-1.41628" style="stroke:rgb(246,147,147);stroke-width:0.01" />
<line x1="1.6866" y1="-1.77382" x2="0.402299" y2="-1.18173" style="stroke:rgb(246,147,147);stroke-width:0.01" />
<line x1="0.488825" y1="-1.41628" x2="0.402299" y2="-1.18173" style="stroke:rgb(246,147,147);stroke-width:0.01" />
<line x1="0.896427" y1="-1.79885" x2="0.723374" y2="-1.32975" style="stroke:rgb(246,147,147);stroke-width:0.01" />
<line x1="1.45205" y1="-1.86035" x2="1.19247" y2="-1.1567" style="stroke:rgb(246,147,147);stroke-width:0.01" />
</g>
</svg>
