<svg xmlns="http://www.w3.org/2000/svg" viewBox="-1.5 -1.5 3 3">
<g transform="scale(1, -1)">
<path d="M-0.164062 -0.255208 L0.127604 -0.255208 L0.127604 -0.171875 L0.169271 -0.171875 L0.169271 -0.005208 L0.127604 0.036458 L0.169271 0.078125 L0.169271 0.119792 L0.085938 0.203125 L-0.039062 0.203125 L-0.059896 0.223958 L-0.205729 0.078125 L-0.205729 -0.005208 L-0.164062 -0.005208 L-0.143229 -0.026042 L-0.164062 -0.046875 z " fill="rgb(245,195,195)" />
<path d="M-0.205729 -0.255208 L0.794271 -0.255208 L0.794271 0.744792 L-0.205729 0.744792  z" fill="none" stroke="rgb(128,128,128)" stroke-width="0.01" />
<line x1="0.127604" y1="-0.046875" x2="0.169271" y2="-0.00520833" style="stroke:rgb(246,147,147);stroke-width:0.01" />
<line x1="-0.164062" y1="-0.255208" x2="0.169271" y2="0.078125" style="stroke:rgb(246,147,147);stroke-width:0.01" />
<line x1="-0.164062" y1="-0.255208" x2="0.127604" y2="-0.255208" style="stroke:rgb(246,147,147);stroke-width:0.01" />
<line x1="-0.205729" y1="-0.00520833" x2="-0.205729" y2="0.078125" style="stroke:rgb(246,147,147);stroke-width:0.01" />
<line x1="-0.164062" y1="-0.255208" x2="-0.164062" y2="-0.046875" style="stroke:rgb(246,147,147);stroke-width:0.01" />
<line x1="-0.122396" y1="-0.046875" x2="-0.122396" y2="0.161458" style="stroke:rgb(246,147,147);stroke-width:0.01" />
<line x1="-0.0807292" y1="-0.255208" x2="-0.0807292" y2="0.119792" style="stroke:rgb(246,147,147);stroke-width:0.01" />
<line x1="-0.0390625" y1="-0.046875" x2="-0.0390625" y2="0.203125" style="stroke:rgb(246,147,147);stroke-width:0.01" />
<line x1="0.00260417" y1="0.078125" x2="0.00260417" y2="0.119792" style="stroke:rgb(246,147,147);stroke-width:0.01" />
<line x1="0.0442708" y1="0.0364583" x2="0.0442708" y2="0.119792" style="stroke:rgb(246,147,147);stroke-width:0.01" />
<line x1="0.0859375" y1="-0.171875" x2="0.0859375" y2="0.203125" style="stroke:rgb(246,147,147);stroke-width:0.01" />
<line x1="0.127604" y1="-0.255208" x2="0.127604" y2="0.0364583" style="stroke:rgb(246,147,147);stroke-width:0.01" />
<line x1="0.169271" y1="-0.171875" x2="0.169271" y2="-0.00520833" style="stroke:rgb(246,147,147);stroke-width:0.01" />
<line x1="0.169271" y1="0.078125" x2="0.169271" y2="0.119792" style="stroke:rgb(246,147,147);stroke-width:0.01" />
<line x1="-0.164062" y1="-0.171875" x2="0.0859375" y2="0.078125" style="stroke:rgb(246,147,147);stroke-width:0.01" />
<line x1="-0.122396" y1="-0.046875" x2="0.0442708" y2="0.119792" style="stroke:rgb(246,147,147);stroke-width:0.01" />
<line x1="-0.164062" y1="-0.046875" x2="0.0859375" y2="0.203125" style="stroke:rgb(246,147,147);stroke-width:0.01" />
<line x1="-0.164062" y1="-0.171875" x2="0.169271" y2="-0.171875" style="stroke:rgb(246,147,147);stroke-width:0.01" />
<line x1="-0.205729" y1="0.0364583" x2="-0.0390625" y2="0.203125" style="stroke:rgb(246,147,147);stroke-width:0.01" />
<line x1="-0.122396" y1="-0.046875" x2="-0.205729" y2="0.0364583" style="stroke:rgb(246,147,147);stroke-width:0.01" />
<line x1="-0.205729" y1="0.078125" x2="-0.0598958" y2="0.223958" style="stroke:rgb(246,147,147);stroke-width:0.01" />
<line x1="-0.164062" y1="-0.046875" x2="-0.0390625" y2="-0.046875" style="stroke:rgb(246,147,147);stroke-width:0.01" />
<line x1="-0.0807292" y1="0.0364583" x2="-0.164062" y2="0.119792" style="stroke:rgb(246,147,147);stroke-width:0.01" />
<line x1="-0.0390625" y1="0.0364583" x2="-0.122396" y2="0.119792" style="stroke:rgb(246,147,147);stroke-width:0.01" />
<line x1="-0.205729" y1="-0.00520833" x2="0.169271" y2="-0.00520833" style="stroke:rgb(246,147,147);stroke-width:0.01" />
<line x1="-0.0390625" y1="0.078125" x2="-0.122396" y2="0.161458" style="stroke:rgb(246,147,147);stroke-width:0.01" />
<line x1="0.127604" y1="-0.046875" x2="-0.0390625" y2="0.119792" style="stroke:rgb(246,147,147);stroke-width:0.01" />
<line x1="-0.205729" y1="0.0364583" x2="0.127604" y2="0.0364583" style="stroke:rgb(246,147,147);stroke-width:0.01" />
<line x1="0.0234375" y1="0.0989583" x2="0.00260417" y2="0.119792" style="stroke:rgb(246,147,147);stroke-width:0.01" />
<line x1="0.169271" y1="-0.00520833" x2="-0.0598958" y2="0.223958" style="stroke:rgb(246,147,147);stroke-width:0.01" />
<line x1="-0.205729" y1="0.078125" x2="0.169271" y2="0.078125" style="stroke:rgb(246,147,147);stroke-width:0.01" />
<line x1="-0.164062" y1="0.119792" x2="0.169271" y2="0.119792" style="stroke:rgb(246,147,147);stroke-width:0.01" />
<line x1="0.169271" y1="0.119792" x2="0.0859375" y2="0.203125" style="stroke:rgb(246,147,147);stroke-width:0.01" />
<line x1="-0.0390625" y1="0.203125" x2="0.0859375" y2="0.203125" style="stroke:rgb(246,147,147);stroke-width:0.01" />
</g>
</svg>
