<svg xmlns="http://www.w3.org/2000/svg" viewBox="-1.5 -1.5 3 3">
<g transform="scale(1, -1)">
<path d="M-0.400895 -0.519485 L0.250973 -0.103531 L0.432317 0.173751 L-0.282395 0.449265 z " fill="rgb(245,195,195)" />
<path d="M-0.552058 -0.535110 L0.447942 -0.535110 L0.447942 0.464890 L-0.552058 0.464890  z" fill="none" stroke="rgb(128,128,128)" stroke-width="0.01" />
<line x1="0.250973" y1="-0.103531" x2="0.432317" y2="0.173751" style="stroke:rgb(246,147,147);stroke-width:0.01" />
<line x1="0.257586" y1="0.155651" x2="0.302311" y2="0.223867" style="stroke:rgb(246,147,147);stroke-width:0.01" />
<line x1="0.250973" y1="-0.103531" x2="0.302311" y2="0.223867" style="stroke:rgb(246,147,147);stroke-width:0.01" />
<line x1="-0.0164481" y1="0.291847" x2="-0.00122763" y2="0.340878" style="stroke:rgb(246,147,147);stroke-width:0.01" />
<line x1="-0.400895" y1="-0.519485" x2="0.250973" y2="-0.103531" style="stroke:rgb(246,147,147);stroke-width:0.01" />
<line x1="-0.400895" y1="-0.519485" x2="-0.00122763" y2="0.340878" style="stroke:rgb(246,147,147);stroke-width:0.01" />
<line x1="-0.400895" y1="-0.519485" x2="-0.170963" y2="0.406309" style="stroke:rgb(246,147,147);stroke-width:0.01" />
<line x1="-0.400895" y1="-0.519485" x2="-0.282395" y2="0.449265" style="stroke:rgb(246,147,147);stroke-width:0.01" />
<line x1="-0.192749" y1="0.365704" x2="-0.170963" y2="0.406309" style="stroke:rgb(246,147,147);stroke-width:0.01" />
<line x1="0.279081" y1="0.0757252" x2="0.432317" y2="0.173751" style="stroke:rgb(246,147,147);stroke-width:0.01" />
<line x1="-0.225735" y1="0.383402" x2="-0.243931" y2="0.434438" style="stroke:rgb(246,147,147);stroke-width:0.01" />
<line x1="0.265525" y1="-0.0812804" x2="0.236425" y2="0.0124591" style="stroke:rgb(246,147,147);stroke-width:0.01" />
<line x1="0.236425" y1="0.0124591" x2="0.285839" y2="0.0277987" style="stroke:rgb(246,147,147);stroke-width:0.01" />
<line x1="0.254264" y1="-0.0825404" x2="0.265525" y2="-0.0812804" style="stroke:rgb(246,147,147);stroke-width:0.01" />
<line x1="0.323946" y1="0.00804755" x2="0.257586" y2="0.155651" style="stroke:rgb(246,147,147);stroke-width:0.01" />
<line x1="0.419173" y1="0.153652" x2="0.415072" y2="0.162719" style="stroke:rgb(246,147,147);stroke-width:0.01" />
<line x1="0.323946" y1="0.00804755" x2="0.268557" y2="0.00860618" style="stroke:rgb(246,147,147);stroke-width:0.01" />
<line x1="-0.225735" y1="0.383402" x2="-0.282395" y2="0.449265" style="stroke:rgb(246,147,147);stroke-width:0.01" />
<line x1="-0.287038" y1="0.411311" x2="-0.243931" y2="0.434438" style="stroke:rgb(246,147,147);stroke-width:0.01" />
<line x1="0.262329" y1="-0.0861663" x2="-0.287038" y2="0.411311" style="stroke:rgb(246,147,147);stroke-width:0.01" />
<line x1="0.314902" y1="-0.0057808" x2="0.285839" y2="0.0277987" style="stroke:rgb(246,147,147);stroke-width:0.01" />
<line x1="0.328833" y1="0.0155199" x2="0.279081" y2="0.0757252" style="stroke:rgb(246,147,147);stroke-width:0.01" />
<line x1="0.262329" y1="-0.0861663" x2="0.254264" y2="-0.0825404" style="stroke:rgb(246,147,147);stroke-width:0.01" />
<line x1="0.419173" y1="0.153652" x2="0.257586" y2="0.155651" style="stroke:rgb(246,147,147);stroke-width:0.01" />
<line x1="0.314902" y1="-0.0057808" x2="0.268557" y2="0.00860618" style="stroke:rgb(246,147,147);stroke-width:0.01" />
<line x1="0.328833" y1="0.0155199" x2="0.285839" y2="0.0277987" style="stroke:rgb(246,147,147);stroke-width:0.01" />
<line x1="0.420785" y1="0.156118" x2="0.415072" y2="0.162719" style="stroke:rgb(246,147,147);stroke-width:0.01" />
<line x1="-0.192749" y1="0.365704" x2="-0.225735" y2="0.383402" style="stroke:rgb(246,147,147);stroke-width:0.01" />
<line x1="0.420785" y1="0.156118" x2="-0.0164481" y2="0.291847" style="stroke:rgb(246,147,147);stroke-width:0.01" />
<line x1="0.432317" y1="0.173751" x2="-0.282395" y2="0.449265" style="stroke:rgb(246,147,147);stroke-width:0.01" />
</g>
</svg>
