<svg xmlns="http://www.w3.org/2000/svg" viewBox="-1.5 -1.5 3 3">
<g transform="scale(1, -1)">
<path d="M-0.281250 -0.447917 L0.218750 -0.447917 L0.218750 0.052083 L0.052083 0.218750 L0.052083 0.552083 L-0.114583 0.385417 L-0.114583 -0.114583 L-0.031250 -0.197917 z " fill="rgb(245,195,195)" />
<path d="M-0.281250 -0.447917 L0.718750 -0.447917 L0.718750 0.552083 L-0.281250 0.552083  z" fill="none" stroke="rgb(128,128,128)" stroke-width="0.01" />
<line x1="-0.28125" y1="-0.447917" x2="0.21875" y2="-0.447917" style="stroke:rgb(246,147,147);stroke-width:0.01" />
<line x1="-0.28125" y1="-0.447917" x2="0.21875" y2="0.0520833" style="stroke:rgb(246,147,147);stroke-width:0.01" />
<line x1="-0.114583" y1="-0.114583" x2="-0.114583" y2="0.385417" style="stroke:rgb(246,147,147);stroke-width:0.01" />
<line x1="0.0520833" y1="0.0520833" x2="0.0520833" y2="0.552083" style="stroke:rgb(246,147,147);stroke-width:0.01" />
<line x1="0.21875" y1="-0.447917" x2="0.21875" y2="0.0520833" style="stroke:rgb(246,147,147);stroke-width:0.01" />
<line x1="-0.114583" y1="-0.114583" x2="0.0520833" y2="0.0520833" style="stroke:rgb(246,147,147);stroke-width:0.01" />
<line x1="0.21875" y1="-0.447917" x2="-0.114583" y2="-0.114583" style="stroke:rgb(246,147,147);stroke-width:0.01" />
<line x1="-0.114583" y1="0.385417" x2="0.0520833" y2="0.552083" style="stroke:rgb(246,147,147);stroke-width:0.01" />
<line x1="-0.114583" y1="0.0520833" x2="0.21875" y2="0.0520833" style="stroke:rgb(246,147,147);stroke-width:0.01" />
<line x1="0.21875" y1="0.0520833" x2="-0.114583" y2="0.385417" style="stroke:rgb(246,147,147);stroke-width:0.01" />
</g>
</svg>
