<svg xmlns="http://www.w3.org/2000/svg" viewBox="-1.5 -1.5 3 3">
<g transform="scale(1, -1)">
<path d="M-0.059896 -0.197917 L-0.018229 -0.197917 L0.106771 -0.072917 L0.190104 -0.072917 L0.190104 -0.031250 L0.169271 -0.010417 L0.252604 0.072917 L0.065104 0.260417 L-0.059896 0.260417 L-0.059896 0.135417 L-0.101562 0.093750 L-0.184896 0.093750 L-0.184896 -0.031250 L-0.143229 -0.031250 L-0.059896 -0.114583 L-0.101562 -0.156250 z " fill="rgb(245,195,195)" />
<path d="M-0.184896 -0.197917 L0.815104 -0.197917 L0.815104 0.802083 L-0.184896 0.802083  z" fill="none" stroke="rgb(128,128,128)" stroke-width="0.01" />
<line x1="-0.0182292" y1="-0.197917" x2="0.252604" y2="0.0729167" style="stroke:rgb(246,147,147);stroke-width:0.01" />
<line x1="-0.0598958" y1="-0.197917" x2="0.0234375" y2="-0.114583" style="stroke:rgb(246,147,147);stroke-width:0.01" />
<line x1="-0.101562" y1="-0.15625" x2="-0.0598958" y2="-0.114583" style="stroke:rgb(246,147,147);stroke-width:0.01" />
<line x1="0.0442708" y1="-0.0104167" x2="0.190104" y2="0.135417" style="stroke:rgb(246,147,147);stroke-width:0.01" />
<line x1="-0.0598958" y1="-0.197917" x2="-0.0182292" y2="-0.197917" style="stroke:rgb(246,147,147);stroke-width:0.01" />
<line x1="-0.184896" y1="-0.03125" x2="-0.184896" y2="0.09375" style="stroke:rgb(246,147,147);stroke-width:0.01" />
<line x1="-0.0598958" y1="-0.197917" x2="-0.0598958" y2="0.260417" style="stroke:rgb(246,147,147);stroke-width:0.01" />
<line x1="-0.0182292" y1="-0.15625" x2="-0.0182292" y2="0.09375" style="stroke:rgb(246,147,147);stroke-width:0.01" />
<line x1="-0.0182292" y1="0.135417" x2="-0.0182292" y2="0.21875" style="stroke:rgb(246,147,147);stroke-width:0.01" />
<line x1="0.0234375" y1="-0.114583" x2="0.0234375" y2="0.177083" style="stroke:rgb(246,147,147);stroke-width:0.01" />
<line x1="0.0651042" y1="0.0104167" x2="0.0651042" y2="0.260417" style="stroke:rgb(246,147,147);stroke-width:0.01" />
<line x1="0.106771" y1="-0.0729167" x2="0.106771" y2="0.21875" style="stroke:rgb(246,147,147);stroke-width:0.01" />
<line x1="0.148438" y1="-0.0729167" x2="0.148438" y2="0.177083" style="stroke:rgb(246,147,147);stroke-width:0.01" />
<line x1="0.190104" y1="-0.0729167" x2="0.190104" y2="-0.03125" style="stroke:rgb(246,147,147);stroke-width:0.01" />
<line x1="-0.0598958" y1="-0.03125" x2="0.148438" y2="0.177083" style="stroke:rgb(246,147,147);stroke-width:0.01" />
<line x1="-0.101562" y1="-0.15625" x2="-0.0182292" y2="-0.15625" style="stroke:rgb(246,147,147);stroke-width:0.01" />
<line x1="-0.0598958" y1="0.0520833" x2="0.0442708" y2="0.15625" style="stroke:rgb(246,147,147);stroke-width:0.01" />
<line x1="-0.0598958" y1="-0.197917" x2="-0.101562" y2="-0.15625" style="stroke:rgb(246,147,147);stroke-width:0.01" />
<line x1="-0.0598958" y1="0.09375" x2="0.0234375" y2="0.177083" style="stroke:rgb(246,147,147);stroke-width:0.01" />
<line x1="-0.0598958" y1="-0.114583" x2="0.0234375" y2="-0.114583" style="stroke:rgb(246,147,147);stroke-width:0.01" />
<line x1="-0.0182292" y1="-0.197917" x2="-0.0598958" y2="-0.15625" style="stroke:rgb(246,147,147);stroke-width:0.01" />
<line x1="-0.184896" y1="0.0104167" x2="-0.0182292" y2="0.177083" style="stroke:rgb(246,147,147);stroke-width:0.01" />
<line x1="-0.0182292" y1="-0.15625" x2="-0.184896" y2="0.0104167" style="stroke:rgb(246,147,147);stroke-width:0.01" />
<line x1="0.106771" y1="-0.0729167" x2="0.190104" y2="-0.0729167" style="stroke:rgb(246,147,147);stroke-width:0.01" />
<line x1="-0.0598958" y1="0.21875" x2="-0.0390625" y2="0.239583" style="stroke:rgb(246,147,147);stroke-width:0.01" />
<line x1="-0.184896" y1="-0.03125" x2="0.190104" y2="-0.03125" style="stroke:rgb(246,147,147);stroke-width:0.01" />
<line x1="0.0234375" y1="-0.03125" x2="-0.0598958" y2="0.0520833" style="stroke:rgb(246,147,147);stroke-width:0.01" />
<line x1="-0.184896" y1="0.0104167" x2="0.0651042" y2="0.0104167" style="stroke:rgb(246,147,147);stroke-width:0.01" />
<line x1="0.106771" y1="-0.0729167" x2="-0.0598958" y2="0.09375" style="stroke:rgb(246,147,147);stroke-width:0.01" />
<line x1="0.0234375" y1="0.0520833" x2="-0.0598958" y2="0.135417" style="stroke:rgb(246,147,147);stroke-width:0.01" />
<line x1="-0.184896" y1="0.0520833" x2="0.106771" y2="0.0520833" style="stroke:rgb(246,147,147);stroke-width:0.01" />
<line x1="0.190104" y1="-0.03125" x2="-0.0598958" y2="0.21875" style="stroke:rgb(246,147,147);stroke-width:0.01" />
<line x1="-0.184896" y1="0.09375" x2="0.148438" y2="0.09375" style="stroke:rgb(246,147,147);stroke-width:0.01" />
<line x1="0.0442708" y1="0.15625" x2="-0.0390625" y2="0.239583" style="stroke:rgb(246,147,147);stroke-width:0.01" />
<line x1="-0.0598958" y1="0.135417" x2="0.0234375" y2="0.135417" style="stroke:rgb(246,147,147);stroke-width:0.01" />
<line x1="0.252604" y1="0.0729167" x2="0.0651042" y2="0.260417" style="stroke:rgb(246,147,147);stroke-width:0.01" />
<line x1="-0.0598958" y1="0.177083" x2="0.148438" y2="0.177083" style="stroke:rgb(246,147,147);stroke-width:0.01" />
<line x1="-0.0598958" y1="0.21875" x2="0.106771" y2="0.21875" style="stroke:rgb(246,147,147);stroke-width:0.01" />
<line x1="-0.0598958" y1="0.260417" x2="0.0651042" y2="0.260417" style="stroke:rgb(246,147,147);stroke-width:0.01" />
</g>
</svg>
