<svg xmlns="http://www.w3.org/2000/svg" viewBox="-1.5 -1.5 3 3">
<g transform="scale(1, -1)">
<path d="M0.301034 -0.283896 L0.372543 -0.010807 L0.557244 0.039338 L0.557244 0.039338 L0.469908 0.361027 L-0.565027 0.356369 L-0.666351 -0.030585 L-0.444177 -0.088762 L-0.407821 -0.222670 L-0.174597 -0.159352 z " fill="rgb(245,195,195)" />
<path d="M0.557244 0.039338 L1.557244 0.039338 L1.557244 1.039338 L0.557244 1.039338  z" fill="none" stroke="rgb(128,128,128)" stroke-width="0.01" />
<line x1="0.301034" y1="-0.283896" x2="-0.666351" y2="-0.0305851" style="stroke:rgb(246,147,147);stroke-width:0.01" />
<line x1="-0.407821" y1="-0.22267" x2="-0.565027" y2="0.356369" style="stroke:rgb(246,147,147);stroke-width:0.01" />
<line x1="-0.407821" y1="-0.22267" x2="0.557244" y2="0.0393383" style="stroke:rgb(246,147,147);stroke-width:0.01" />
<line x1="0.557244" y1="0.0393383" x2="0.469908" y2="0.361027" style="stroke:rgb(246,147,147);stroke-width:0.01" />
<line x1="0.557244" y1="0.0393383" x2="0.557244" y2="0.0393383" style="stroke:rgb(246,147,147);stroke-width:0.01" />
<line x1="0.557244" y1="0.0393383" x2="0.557244" y2="0.0393383" style="stroke:rgb(246,147,147);stroke-width:0.01" />
<line x1="0.557244" y1="0.0393383" x2="0.557244" y2="0.0393383" style="stroke:rgb(246,147,147);stroke-width:0.01" />
<line x1="0.301034" y1="-0.283896" x2="0.469908" y2="0.361027" style="stroke:rgb(246,147,147);stroke-width:0.01" />
<line x1="-0.666351" y1="-0.0305851" x2="-0.565027" y2="0.356369" style="stroke:rgb(246,147,147);stroke-width:0.01" />
<line x1="-0.565027" y1="0.356369" x2="0.469908" y2="0.361027" style="stroke:rgb(246,147,147);stroke-width:0.01" />
</g>
</svg>
