<svg xmlns="http://www.w3.org/2000/svg" viewBox="-1.5 -1.5 3 3">
<g transform="scale(1, -1)">
<path d="M-3.261030 10.441542 L-2.764684 11.144969 L-2.778022 11.183099 L-2.781460 11.183315 L-2.781681 11.179789 L-2.787010 11.174967 L-3.142885 11.322783 L-3.139518 11.421871 L-3.403002 11.430826 L-3.516686 10.907287 L-3.371028 10.509208 z " fill="rgb(245,195,195)" />
<path d="M0.000000 0.000000 L1.000000 0.000000 L1.000000 1.000000 L0.000000 1.000000  z" fill="none" stroke="rgb(128,128,128)" stroke-width="0.01" />
<line x1="-3.24882" y1="10.4588" x2="-3.33376" y2="10.7917" style="stroke:rgb(246,147,147);stroke-width:0.01" />
<line x1="-3.35271" y1="10.5226" x2="-3.3519" y2="10.5674" style="stroke:rgb(246,147,147);stroke-width:0.01" />
<line x1="-3.16837" y1="10.5729" x2="-3.13952" y2="11.4219" style="stroke:rgb(246,147,147);stroke-width:0.01" />
<line x1="-3.37103" y1="10.5092" x2="-3.51669" y2="10.9073" style="stroke:rgb(246,147,147);stroke-width:0.01" />
<line x1="-2.78352" y1="11.1505" x2="-2.78146" y2="11.1833" style="stroke:rgb(246,147,147);stroke-width:0.01" />
<line x1="-3.2839" y1="10.4556" x2="-3.30837" y2="10.5176" style="stroke:rgb(246,147,147);stroke-width:0.01" />
<line x1="-2.76468" y1="11.145" x2="-2.77802" y2="11.1831" style="stroke:rgb(246,147,147);stroke-width:0.01" />
<line x1="-3.32565" y1="10.5393" x2="-3.36093" y2="10.615" style="stroke:rgb(246,147,147);stroke-width:0.01" />
<line x1="-3.38183" y1="10.5387" x2="-3.33707" y2="10.7692" style="stroke:rgb(246,147,147);stroke-width:0.01" />
<line x1="-3.51669" y1="10.9073" x2="-3.403" y2="11.4308" style="stroke:rgb(246,147,147);stroke-width:0.01" />
<line x1="-3.17468" y1="10.5639" x2="-3.33376" y2="10.7917" style="stroke:rgb(246,147,147);stroke-width:0.01" />
<line x1="-3.37103" y1="10.5092" x2="-3.3519" y2="10.5674" style="stroke:rgb(246,147,147);stroke-width:0.01" />
<line x1="-2.78352" y1="11.1505" x2="-2.77317" y2="11.1692" style="stroke:rgb(246,147,147);stroke-width:0.01" />
<line x1="-3.3789" y1="10.5307" x2="-3.21539" y2="10.7873" style="stroke:rgb(246,147,147);stroke-width:0.01" />
<line x1="-3.26103" y1="10.4415" x2="-3.38183" y2="10.5387" style="stroke:rgb(246,147,147);stroke-width:0.01" />
<line x1="-3.26103" y1="10.4415" x2="-2.76468" y2="11.145" style="stroke:rgb(246,147,147);stroke-width:0.01" />
<line x1="-3.33707" y1="10.7692" x2="-3.51669" y2="10.9073" style="stroke:rgb(246,147,147);stroke-width:0.01" />
<line x1="-3.39498" y1="10.5747" x2="-3.21539" y2="10.7873" style="stroke:rgb(246,147,147);stroke-width:0.01" />
<line x1="-3.26103" y1="10.4415" x2="-3.37103" y2="10.5092" style="stroke:rgb(246,147,147);stroke-width:0.01" />
<line x1="-3.21539" y1="10.7873" x2="-2.77802" y2="11.1831" style="stroke:rgb(246,147,147);stroke-width:0.01" />
<line x1="-2.77317" y1="11.1692" x2="-3.403" y2="11.4308" style="stroke:rgb(246,147,147);stroke-width:0.01" />
<line x1="-3.35271" y1="10.5226" x2="-3.3789" y2="10.5307" style="stroke:rgb(246,147,147);stroke-width:0.01" />
<line x1="-3.17468" y1="10.5639" x2="-3.36093" y2="10.615" style="stroke:rgb(246,147,147);stroke-width:0.01" />
<line x1="-2.76468" y1="11.145" x2="-2.78352" y2="11.1505" style="stroke:rgb(246,147,147);stroke-width:0.01" />
<line x1="-3.3519" y1="10.5674" x2="-3.39498" y2="10.5747" style="stroke:rgb(246,147,147);stroke-width:0.01" />
<line x1="-3.37381" y1="10.5168" x2="-3.32565" y2="10.5393" style="stroke:rgb(246,147,147);stroke-width:0.01" />
<line x1="-3.45421" y1="10.7365" x2="-3.33376" y2="10.7917" style="stroke:rgb(246,147,147);stroke-width:0.01" />
<line x1="-3.30837" y1="10.5176" x2="-3.16837" y2="10.5729" style="stroke:rgb(246,147,147);stroke-width:0.01" />
<line x1="-3.37381" y1="10.5168" x2="-3.35271" y2="10.5226" style="stroke:rgb(246,147,147);stroke-width:0.01" />
<line x1="-3.2839" y1="10.4556" x2="-3.24882" y2="10.4588" style="stroke:rgb(246,147,147);stroke-width:0.01" />
<line x1="-3.45421" y1="10.7365" x2="-3.33707" y2="10.7692" style="stroke:rgb(246,147,147);stroke-width:0.01" />
<line x1="-2.77802" y1="11.1831" x2="-2.78146" y2="11.1833" style="stroke:rgb(246,147,147);stroke-width:0.01" />
<line x1="-3.13952" y1="11.4219" x2="-3.403" y2="11.4308" style="stroke:rgb(246,147,147);stroke-width:0.01" />
</g>
</svg>
