<svg xmlns="http://www.w3.org/2000/svg" viewBox="-1.5 -1.5 3 3">
<g transform="scale(1, -1)">
<path d="M-0.194939 -0.640245 L0.301407 0.063182 L0.288069 0.101313 L0.284631 0.101528 L0.284410 0.098002 L0.279081 0.093180 L-0.076794 0.240996 L-0.073426 0.340085 L-0.336910 0.349039 L-0.450594 -0.174500 L-0.304937 -0.572579 z " fill="rgb(245,195,195)" />
<path d="M3.066092 -11.081787 L4.066092 -11.081787 L4.066092 -10.081787 L3.066092 -10.081787  z" fill="none" stroke="rgb(128,128,128)" stroke-width="0.01" />
<line x1="-0.182729" y1="-0.622941" x2="-0.267668" y2="-0.290045" style="stroke:rgb(246,147,147);stroke-width:0.01" />
<line x1="-0.28662" y1="-0.559222" x2="-0.285807" y2="-0.514418" style="stroke:rgb(246,147,147);stroke-width:0.01" />
<line x1="-0.10228" y1="-0.508928" x2="-0.0734262" y2="0.340085" style="stroke:rgb(246,147,147);stroke-width:0.01" />
<line x1="-0.304937" y1="-0.572579" x2="-0.450594" y2="-0.1745" style="stroke:rgb(246,147,147);stroke-width:0.01" />
<line x1="0.282574" y1="0.0686651" x2="0.284631" y2="0.101528" style="stroke:rgb(246,147,147);stroke-width:0.01" />
<line x1="-0.217806" y1="-0.626178" x2="-0.242274" y2="-0.564163" style="stroke:rgb(246,147,147);stroke-width:0.01" />
<line x1="0.301407" y1="0.0631818" x2="0.288069" y2="0.101313" style="stroke:rgb(246,147,147);stroke-width:0.01" />
<line x1="-0.259561" y1="-0.542532" x2="-0.294838" y2="-0.466792" style="stroke:rgb(246,147,147);stroke-width:0.01" />
<line x1="-0.315736" y1="-0.543065" x2="-0.270983" y2="-0.312586" style="stroke:rgb(246,147,147);stroke-width:0.01" />
<line x1="-0.450594" y1="-0.1745" x2="-0.33691" y2="0.349039" style="stroke:rgb(246,147,147);stroke-width:0.01" />
<line x1="-0.108593" y1="-0.517875" x2="-0.267668" y2="-0.290045" style="stroke:rgb(246,147,147);stroke-width:0.01" />
<line x1="-0.304937" y1="-0.572579" x2="-0.285807" y2="-0.514418" style="stroke:rgb(246,147,147);stroke-width:0.01" />
<line x1="0.282574" y1="0.0686651" x2="0.292926" y2="0.0874292" style="stroke:rgb(246,147,147);stroke-width:0.01" />
<line x1="-0.312808" y1="-0.551065" x2="-0.149299" y2="-0.294458" style="stroke:rgb(246,147,147);stroke-width:0.01" />
<line x1="-0.194939" y1="-0.640245" x2="-0.315736" y2="-0.543065" style="stroke:rgb(246,147,147);stroke-width:0.01" />
<line x1="-0.194939" y1="-0.640245" x2="0.301407" y2="0.0631818" style="stroke:rgb(246,147,147);stroke-width:0.01" />
<line x1="-0.270983" y1="-0.312586" x2="-0.450594" y2="-0.1745" style="stroke:rgb(246,147,147);stroke-width:0.01" />
<line x1="-0.32889" y1="-0.507113" x2="-0.149299" y2="-0.294458" style="stroke:rgb(246,147,147);stroke-width:0.01" />
<line x1="-0.194939" y1="-0.640245" x2="-0.304937" y2="-0.572579" style="stroke:rgb(246,147,147);stroke-width:0.01" />
<line x1="-0.149299" y1="-0.294458" x2="0.288069" y2="0.101313" style="stroke:rgb(246,147,147);stroke-width:0.01" />
<line x1="0.292926" y1="0.0874292" x2="-0.33691" y2="0.349039" style="stroke:rgb(246,147,147);stroke-width:0.01" />
<line x1="-0.28662" y1="-0.559222" x2="-0.312808" y2="-0.551065" style="stroke:rgb(246,147,147);stroke-width:0.01" />
<line x1="-0.108593" y1="-0.517875" x2="-0.294838" y2="-0.466792" style="stroke:rgb(246,147,147);stroke-width:0.01" />
<line x1="0.301407" y1="0.0631818" x2="0.282574" y2="0.0686651" style="stroke:rgb(246,147,147);stroke-width:0.01" />
<line x1="-0.285807" y1="-0.514418" x2="-0.32889" y2="-0.507113" style="stroke:rgb(246,147,147);stroke-width:0.01" />
<line x1="-0.307723" y1="-0.564964" x2="-0.259561" y2="-0.542532" style="stroke:rgb(246,147,147);stroke-width:0.01" />
<line x1="-0.38812" y1="-0.34524" x2="-0.267668" y2="-0.290045" style="stroke:rgb(246,147,147);stroke-width:0.01" />
<line x1="-0.242274" y1="-0.564163" x2="-0.10228" y2="-0.508928" style="stroke:rgb(246,147,147);stroke-width:0.01" />
<line x1="-0.307723" y1="-0.564964" x2="-0.28662" y2="-0.559222" style="stroke:rgb(246,147,147);stroke-width:0.01" />
<line x1="-0.217806" y1="-0.626178" x2="-0.182729" y2="-0.622941" style="stroke:rgb(246,147,147);stroke-width:0.01" />
<line x1="-0.38812" y1="-0.34524" x2="-0.270983" y2="-0.312586" style="stroke:rgb(246,147,147);stroke-width:0.01" />
<line x1="0.288069" y1="0.101313" x2="0.284631" y2="0.101528" style="stroke:rgb(246,147,147);stroke-width:0.01" />
<line x1="-0.0734262" y1="0.340085" x2="-0.33691" y2="0.349039" style="stroke:rgb(246,147,147);stroke-width:0.01" />
</g>
</svg>
