<svg xmlns="http://www.w3.org/2000/svg" viewBox="-1.5 -1.5 3 3">
<g transform="scale(1, -1)">
<path d="M-0.031250 -0.269676 L0.177083 -0.269676 L0.302083 -0.144676 L0.302083 -0.103009 L0.177083 0.021991 L0.177083 0.146991 L0.052083 0.146991 L0.010417 0.188657 L-0.031250 0.188657 L-0.031250 0.063657 L-0.052083 0.042824 L-0.031250 0.021991 L-0.114583 0.021991 L-0.156250 0.063657 L-0.281250 0.063657 L-0.281250 0.021991 L-0.156250 -0.103009 L-0.031250 -0.103009 z " fill="rgb(245,195,195)" />
<path d="M-0.281250 -0.269676 L0.718750 -0.269676 L0.718750 0.730324 L-0.281250 0.730324  z" fill="none" stroke="rgb(128,128,128)" stroke-width="0.01" />
<line x1="0.177083" y1="-0.269676" x2="0.302083" y2="-0.144676" style="stroke:rgb(246,147,147);stroke-width:0.01" />
<line x1="0.0520833" y1="-0.103009" x2="0.177083" y2="0.0219907" style="stroke:rgb(246,147,147);stroke-width:0.01" />
<line x1="0.0104167" y1="-0.103009" x2="0.15625" y2="0.0428241" style="stroke:rgb(246,147,147);stroke-width:0.01" />
<line x1="-0.03125" y1="-0.269676" x2="0.177083" y2="-0.269676" style="stroke:rgb(246,147,147);stroke-width:0.01" />
<line x1="0.0104167" y1="0.0219907" x2="0.09375" y2="0.105324" style="stroke:rgb(246,147,147);stroke-width:0.01" />
<line x1="-0.28125" y1="0.0219907" x2="-0.28125" y2="0.0636574" style="stroke:rgb(246,147,147);stroke-width:0.01" />
<line x1="-0.15625" y1="-0.103009" x2="-0.15625" y2="0.0636574" style="stroke:rgb(246,147,147);stroke-width:0.01" />
<line x1="-0.03125" y1="-0.269676" x2="-0.03125" y2="0.188657" style="stroke:rgb(246,147,147);stroke-width:0.01" />
<line x1="0.0104167" y1="-0.103009" x2="0.0104167" y2="0.188657" style="stroke:rgb(246,147,147);stroke-width:0.01" />
<line x1="0.0520833" y1="-0.103009" x2="0.0520833" y2="0.146991" style="stroke:rgb(246,147,147);stroke-width:0.01" />
<line x1="0.09375" y1="-0.103009" x2="0.09375" y2="0.146991" style="stroke:rgb(246,147,147);stroke-width:0.01" />
<line x1="0.135417" y1="-0.103009" x2="0.135417" y2="0.146991" style="stroke:rgb(246,147,147);stroke-width:0.01" />
<line x1="0.177083" y1="-0.269676" x2="0.177083" y2="0.146991" style="stroke:rgb(246,147,147);stroke-width:0.01" />
<line x1="0.302083" y1="-0.144676" x2="0.302083" y2="-0.103009" style="stroke:rgb(246,147,147);stroke-width:0.01" />
<line x1="-0.15625" y1="-0.103009" x2="0.0729167" y2="0.126157" style="stroke:rgb(246,147,147);stroke-width:0.01" />
<line x1="-0.0520833" y1="0.0428241" x2="0.0520833" y2="0.146991" style="stroke:rgb(246,147,147);stroke-width:0.01" />
<line x1="-0.15625" y1="-0.103009" x2="-0.28125" y2="0.0219907" style="stroke:rgb(246,147,147);stroke-width:0.01" />
<line x1="-0.15625" y1="-0.103009" x2="0.302083" y2="-0.103009" style="stroke:rgb(246,147,147);stroke-width:0.01" />
<line x1="0.0104167" y1="-0.103009" x2="-0.15625" y2="0.0636574" style="stroke:rgb(246,147,147);stroke-width:0.01" />
<line x1="0.09375" y1="-0.103009" x2="-0.0520833" y2="0.0428241" style="stroke:rgb(246,147,147);stroke-width:0.01" />
<line x1="-0.28125" y1="0.0219907" x2="0.177083" y2="0.0219907" style="stroke:rgb(246,147,147);stroke-width:0.01" />
<line x1="-0.28125" y1="0.0636574" x2="-0.15625" y2="0.0636574" style="stroke:rgb(246,147,147);stroke-width:0.01" />
<line x1="-0.03125" y1="0.0636574" x2="0.135417" y2="0.0636574" style="stroke:rgb(246,147,147);stroke-width:0.01" />
<line x1="0.302083" y1="-0.144676" x2="0.0520833" y2="0.105324" style="stroke:rgb(246,147,147);stroke-width:0.01" />
<line x1="0.0520833" y1="0.105324" x2="0.09375" y2="0.105324" style="stroke:rgb(246,147,147);stroke-width:0.01" />
<line x1="0.302083" y1="-0.103009" x2="0.0104167" y2="0.188657" style="stroke:rgb(246,147,147);stroke-width:0.01" />
<line x1="0.0520833" y1="0.146991" x2="0.177083" y2="0.146991" style="stroke:rgb(246,147,147);stroke-width:0.01" />
<line x1="-0.03125" y1="0.188657" x2="0.0104167" y2="0.188657" style="stroke:rgb(246,147,147);stroke-width:0.01" />
</g>
</svg>
