<svg xmlns="http://www.w3.org/2000/svg" viewBox="-1.5 -1.5 3 3">
<g transform="scale(1, -1)">
<path d="M-0.080882 -0.144608 L-0.039216 -0.144608 L0.044118 -0.061275 L0.169118 -0.061275 L0.169118 -0.102941 L0.210784 -0.102941 L0.377451 0.063725 L0.252451 0.188725 L0.169118 0.188725 L0.169118 0.105392 L-0.205882 0.105392 L-0.247549 0.063725 L-0.330882 0.063725 L-0.330882 -0.019608 L-0.122549 -0.019608 L-0.122549 -0.061275 L-0.080882 -0.061275 z " fill="rgb(245,195,195)" />
<path d="M-0.330882 -0.144608 L0.669118 -0.144608 L0.669118 0.855392 L-0.330882 0.855392  z" fill="none" stroke="rgb(128,128,128)" stroke-width="0.01" />
<line x1="0.210784" y1="-0.102941" x2="0.377451" y2="0.0637255" style="stroke:rgb(246,147,147);stroke-width:0.01" />
<line x1="0.210784" y1="-0.0196078" x2="0.335784" y2="0.105392" style="stroke:rgb(246,147,147);stroke-width:0.01" />
<line x1="-0.0392157" y1="-0.144608" x2="0.210784" y2="0.105392" style="stroke:rgb(246,147,147);stroke-width:0.01" />
<line x1="-0.0392157" y1="-0.0612745" x2="0.00245098" y2="-0.0196078" style="stroke:rgb(246,147,147);stroke-width:0.01" />
<line x1="-0.0183824" y1="0.00122549" x2="0.0857843" y2="0.105392" style="stroke:rgb(246,147,147);stroke-width:0.01" />
<line x1="-0.0808824" y1="-0.0196078" x2="-0.0183824" y2="0.0428922" style="stroke:rgb(246,147,147);stroke-width:0.01" />
<line x1="-0.0808824" y1="-0.144608" x2="-0.0392157" y2="-0.144608" style="stroke:rgb(246,147,147);stroke-width:0.01" />
<line x1="-0.330882" y1="-0.0196078" x2="-0.330882" y2="0.0637255" style="stroke:rgb(246,147,147);stroke-width:0.01" />
<line x1="-0.164216" y1="-0.0196078" x2="-0.164216" y2="0.105392" style="stroke:rgb(246,147,147);stroke-width:0.01" />
<line x1="-0.122549" y1="-0.0612745" x2="-0.122549" y2="0.0637255" style="stroke:rgb(246,147,147);stroke-width:0.01" />
<line x1="-0.0808824" y1="-0.144608" x2="-0.0808824" y2="0.105392" style="stroke:rgb(246,147,147);stroke-width:0.01" />
<line x1="-0.0392157" y1="-0.144608" x2="-0.0392157" y2="0.105392" style="stroke:rgb(246,147,147);stroke-width:0.01" />
<line x1="0.00245098" y1="-0.102941" x2="0.00245098" y2="0.105392" style="stroke:rgb(246,147,147);stroke-width:0.01" />
<line x1="0.0441176" y1="-0.0612745" x2="0.0441176" y2="0.0637255" style="stroke:rgb(246,147,147);stroke-width:0.01" />
<line x1="0.0857843" y1="-0.0612745" x2="0.0857843" y2="0.105392" style="stroke:rgb(246,147,147);stroke-width:0.01" />
<line x1="0.127451" y1="0.0220588" x2="0.127451" y2="0.0637255" style="stroke:rgb(246,147,147);stroke-width:0.01" />
<line x1="0.169118" y1="-0.102941" x2="0.169118" y2="0.188725" style="stroke:rgb(246,147,147);stroke-width:0.01" />
<line x1="0.210784" y1="-0.102941" x2="0.210784" y2="0.105392" style="stroke:rgb(246,147,147);stroke-width:0.01" />
<line x1="0.252451" y1="-0.0612745" x2="0.252451" y2="0.188725" style="stroke:rgb(246,147,147);stroke-width:0.01" />
<line x1="0.294118" y1="-0.0196078" x2="0.294118" y2="0.105392" style="stroke:rgb(246,147,147);stroke-width:0.01" />
<line x1="-0.164216" y1="0.0637255" x2="-0.122549" y2="0.105392" style="stroke:rgb(246,147,147);stroke-width:0.01" />
<line x1="-0.0808824" y1="-0.102941" x2="0.00245098" y2="-0.102941" style="stroke:rgb(246,147,147);stroke-width:0.01" />
<line x1="0.169118" y1="-0.102941" x2="0.210784" y2="-0.102941" style="stroke:rgb(246,147,147);stroke-width:0.01" />
<line x1="-0.330882" y1="-0.0196078" x2="-0.205882" y2="0.105392" style="stroke:rgb(246,147,147);stroke-width:0.01" />
<line x1="-0.122549" y1="-0.0612745" x2="0.252451" y2="-0.0612745" style="stroke:rgb(246,147,147);stroke-width:0.01" />
<line x1="-0.330882" y1="-0.0196078" x2="0.294118" y2="-0.0196078" style="stroke:rgb(246,147,147);stroke-width:0.01" />
<line x1="-0.122549" y1="0.0220588" x2="0.127451" y2="0.0220588" style="stroke:rgb(246,147,147);stroke-width:0.01" />
<line x1="0.00245098" y1="-0.102941" x2="-0.205882" y2="0.105392" style="stroke:rgb(246,147,147);stroke-width:0.01" />
<line x1="-0.330882" y1="0.0637255" x2="0.127451" y2="0.0637255" style="stroke:rgb(246,147,147);stroke-width:0.01" />
<line x1="0.00245098" y1="-0.0612745" x2="-0.122549" y2="0.0637255" style="stroke:rgb(246,147,147);stroke-width:0.01" />
<line x1="0.0441176" y1="-0.0612745" x2="-0.122549" y2="0.105392" style="stroke:rgb(246,147,147);stroke-width:0.01" />
<line x1="-0.205882" y1="0.105392" x2="0.335784" y2="0.105392" style="stroke:rgb(246,147,147);stroke-width:0.01" />
<line x1="0.00245098" y1="0.0220588" x2="-0.0808824" y2="0.105392" style="stroke:rgb(246,147,147);stroke-width:0.01" />
<line x1="0.169118" y1="0.188725" x2="0.252451" y2="0.188725" style="stroke:rgb(246,147,147);stroke-width:0.01" />
<line x1="0.210784" y1="-0.0196078" x2="0.0857843" y2="0.105392" style="stroke:rgb(246,147,147);stroke-width:0.01" />
<line x1="0.294118" y1="-0.0196078" x2="0.169118" y2="0.105392" style="stroke:rgb(246,147,147);stroke-width:0.01" />
<line x1="0.377451" y1="0.0637255" x2="0.252451" y2="0.188725" style="stroke:rgb(246,147,147);stroke-width:0.01" />
</g>
</svg>
