<svg xmlns="http://www.w3.org/2000/svg" viewBox="-1.5 -1.5 3 3">
<g transform="scale(1, -1)">
<path d="M-0.038194 -0.315972 L0.045139 -0.315972 L0.170139 -0.190972 L0.170139 -0.065972 L0.107639 -0.003472 L0.128472 0.017361 L0.253472 0.017361 L0.253472 0.184028 L0.086806 0.184028 L-0.079861 0.350694 L-0.246528 0.350694 L-0.246528 0.184028 L-0.163194 0.100694 L-0.079861 0.100694 L-0.079861 -0.065972 L-0.121528 -0.065972 L-0.121528 -0.190972 L-0.038194 -0.274306 z " fill="rgb(245,195,195)" />
<path d="M-0.246528 -0.315972 L0.753472 -0.315972 L0.753472 0.684028 L-0.246528 0.684028  z" fill="none" stroke="rgb(128,128,128)" stroke-width="0.01" />
<line x1="0.0451389" y1="-0.315972" x2="0.170139" y2="-0.190972" style="stroke:rgb(246,147,147);stroke-width:0.01" />
<line x1="0.00347222" y1="-0.315972" x2="0.0868056" y2="-0.232639" style="stroke:rgb(246,147,147);stroke-width:0.01" />
<line x1="-0.0381944" y1="-0.274306" x2="0.0451389" y2="-0.190972" style="stroke:rgb(246,147,147);stroke-width:0.01" />
<line x1="0.128472" y1="-0.107639" x2="0.170139" y2="-0.0659722" style="stroke:rgb(246,147,147);stroke-width:0.01" />
<line x1="-0.0381944" y1="-0.149306" x2="0.253472" y2="0.142361" style="stroke:rgb(246,147,147);stroke-width:0.01" />
<line x1="-0.0381944" y1="-0.315972" x2="0.0451389" y2="-0.315972" style="stroke:rgb(246,147,147);stroke-width:0.01" />
<line x1="-0.246528" y1="0.184028" x2="-0.246528" y2="0.350694" style="stroke:rgb(246,147,147);stroke-width:0.01" />
<line x1="-0.121528" y1="-0.190972" x2="-0.121528" y2="-0.0659722" style="stroke:rgb(246,147,147);stroke-width:0.01" />
<line x1="-0.0798611" y1="-0.232639" x2="-0.0798611" y2="0.350694" style="stroke:rgb(246,147,147);stroke-width:0.01" />
<line x1="-0.0381944" y1="-0.315972" x2="-0.0381944" y2="0.184028" style="stroke:rgb(246,147,147);stroke-width:0.01" />
<line x1="0.00347222" y1="-0.315972" x2="0.00347222" y2="0.184028" style="stroke:rgb(246,147,147);stroke-width:0.01" />
<line x1="0.0451389" y1="-0.315972" x2="0.0451389" y2="0.142361" style="stroke:rgb(246,147,147);stroke-width:0.01" />
<line x1="0.0868056" y1="-0.274306" x2="0.0868056" y2="0.184028" style="stroke:rgb(246,147,147);stroke-width:0.01" />
<line x1="0.128472" y1="-0.232639" x2="0.128472" y2="-0.107639" style="stroke:rgb(246,147,147);stroke-width:0.01" />
<line x1="0.170139" y1="-0.190972" x2="0.170139" y2="-0.0659722" style="stroke:rgb(246,147,147);stroke-width:0.01" />
<line x1="0.253472" y1="0.0173611" x2="0.253472" y2="0.184028" style="stroke:rgb(246,147,147);stroke-width:0.01" />
<line x1="0.00347222" y1="0.0173611" x2="0.0868056" y2="0.100694" style="stroke:rgb(246,147,147);stroke-width:0.01" />
<line x1="-0.0381944" y1="-0.274306" x2="0.0451389" y2="-0.274306" style="stroke:rgb(246,147,147);stroke-width:0.01" />
<line x1="0.00347222" y1="0.100694" x2="0.0868056" y2="0.184028" style="stroke:rgb(246,147,147);stroke-width:0.01" />
<line x1="-0.0798611" y1="-0.232639" x2="0.128472" y2="-0.232639" style="stroke:rgb(246,147,147);stroke-width:0.01" />
<line x1="-0.121528" y1="-0.190972" x2="0.170139" y2="-0.190972" style="stroke:rgb(246,147,147);stroke-width:0.01" />
<line x1="0.00347222" y1="-0.315972" x2="-0.121528" y2="-0.190972" style="stroke:rgb(246,147,147);stroke-width:0.01" />
<line x1="-0.163194" y1="0.100694" x2="-0.0798611" y2="0.184028" style="stroke:rgb(246,147,147);stroke-width:0.01" />
<line x1="0.0868056" y1="-0.274306" x2="-0.0381944" y2="-0.149306" style="stroke:rgb(246,147,147);stroke-width:0.01" />
<line x1="0.0451389" y1="-0.107639" x2="0.170139" y2="-0.107639" style="stroke:rgb(246,147,147);stroke-width:0.01" />
<line x1="0.0868056" y1="-0.232639" x2="-0.0798611" y2="-0.0659722" style="stroke:rgb(246,147,147);stroke-width:0.01" />
<line x1="-0.121528" y1="-0.0659722" x2="0.0868056" y2="-0.0659722" style="stroke:rgb(246,147,147);stroke-width:0.01" />
<line x1="-0.163194" y1="0.100694" x2="-0.246528" y2="0.184028" style="stroke:rgb(246,147,147);stroke-width:0.01" />
<line x1="-0.0381944" y1="0.0173611" x2="0.253472" y2="0.0173611" style="stroke:rgb(246,147,147);stroke-width:0.01" />
<line x1="0.170139" y1="-0.0659722" x2="0.0451389" y2="0.0590278" style="stroke:rgb(246,147,147);stroke-width:0.01" />
<line x1="0.00347222" y1="0.100694" x2="-0.0798611" y2="0.184028" style="stroke:rgb(246,147,147);stroke-width:0.01" />
<line x1="0.0868056" y1="0.100694" x2="0.00347222" y2="0.184028" style="stroke:rgb(246,147,147);stroke-width:0.01" />
<line x1="-0.163194" y1="0.100694" x2="0.0868056" y2="0.100694" style="stroke:rgb(246,147,147);stroke-width:0.01" />
<line x1="0.0868056" y1="0.184028" x2="-0.0798611" y2="0.350694" style="stroke:rgb(246,147,147);stroke-width:0.01" />
<line x1="-0.0381944" y1="0.142361" x2="0.253472" y2="0.142361" style="stroke:rgb(246,147,147);stroke-width:0.01" />
<line x1="-0.246528" y1="0.184028" x2="0.253472" y2="0.184028" style="stroke:rgb(246,147,147);stroke-width:0.01" />
<line x1="-0.246528" y1="0.350694" x2="-0.0798611" y2="0.350694" style="stroke:rgb(246,147,147);stroke-width:0.01" />
</g>
</svg>
