<svg xmlns="http://www.w3.org/2000/svg" viewBox="-1.5 -1.5 3 3">
<g transform="scale(1, -1)">
<path d="M-0.140625 -0.346354 L0.151042 -0.346354 L0.151042 -0.138021 L0.192708 -0.096354 L0.151042 -0.054688 L0.151042 0.070312 L0.109375 0.070312 L0.067708 0.111979 L0.026042 0.111979 L0.026042 0.070312 L-0.057292 0.153646 L-0.057292 0.320312 L-0.098958 0.320312 L-0.265625 0.153646 L-0.265625 -0.138021 L-0.140625 -0.263021 z " fill="rgb(245,195,195)" />
<path d="M-0.265625 -0.346354 L0.734375 -0.346354 L0.734375 0.653646 L-0.265625 0.653646  z" fill="none" stroke="rgb(128,128,128)" stroke-width="0.01" />
<line x1="-0.0572917" y1="-0.346354" x2="0.192708" y2="-0.0963542" style="stroke:rgb(246,147,147);stroke-width:0.01" />
<line x1="0.109375" y1="-0.0963542" x2="0.151042" y2="-0.0546875" style="stroke:rgb(246,147,147);stroke-width:0.01" />
<line x1="-0.140625" y1="-0.346354" x2="0.151042" y2="-0.346354" style="stroke:rgb(246,147,147);stroke-width:0.01" />
<line x1="-0.015625" y1="-0.0963542" x2="0.0260417" y2="-0.0546875" style="stroke:rgb(246,147,147);stroke-width:0.01" />
<line x1="-0.265625" y1="-0.138021" x2="-0.265625" y2="0.153646" style="stroke:rgb(246,147,147);stroke-width:0.01" />
<line x1="-0.140625" y1="-0.346354" x2="-0.140625" y2="0.0703125" style="stroke:rgb(246,147,147);stroke-width:0.01" />
<line x1="-0.0989583" y1="-0.346354" x2="-0.0989583" y2="0.320312" style="stroke:rgb(246,147,147);stroke-width:0.01" />
<line x1="-0.0572917" y1="-0.346354" x2="-0.0572917" y2="0.320312" style="stroke:rgb(246,147,147);stroke-width:0.01" />
<line x1="-0.015625" y1="-0.0963542" x2="-0.015625" y2="-0.0546875" style="stroke:rgb(246,147,147);stroke-width:0.01" />
<line x1="0.0260417" y1="0.0286458" x2="0.0260417" y2="0.111979" style="stroke:rgb(246,147,147);stroke-width:0.01" />
<line x1="0.0677083" y1="-0.0546875" x2="0.0677083" y2="0.111979" style="stroke:rgb(246,147,147);stroke-width:0.01" />
<line x1="0.109375" y1="-0.346354" x2="0.109375" y2="0.0703125" style="stroke:rgb(246,147,147);stroke-width:0.01" />
<line x1="0.151042" y1="-0.346354" x2="0.151042" y2="0.0703125" style="stroke:rgb(246,147,147);stroke-width:0.01" />
<line x1="-0.0989583" y1="-0.0963542" x2="0.0885417" y2="0.0911458" style="stroke:rgb(246,147,147);stroke-width:0.01" />
<line x1="-0.265625" y1="-0.138021" x2="-0.0572917" y2="0.0703125" style="stroke:rgb(246,147,147);stroke-width:0.01" />
<line x1="-0.0572917" y1="-0.346354" x2="-0.265625" y2="-0.138021" style="stroke:rgb(246,147,147);stroke-width:0.01" />
<line x1="-0.161458" y1="0.0494792" x2="-0.0572917" y2="0.153646" style="stroke:rgb(246,147,147);stroke-width:0.01" />
<line x1="-0.265625" y1="0.153646" x2="-0.0989583" y2="0.320312" style="stroke:rgb(246,147,147);stroke-width:0.01" />
<line x1="-0.0989583" y1="-0.0963542" x2="0.151042" y2="-0.0963542" style="stroke:rgb(246,147,147);stroke-width:0.01" />
<line x1="0.0885417" y1="-0.200521" x2="-0.265625" y2="0.153646" style="stroke:rgb(246,147,147);stroke-width:0.01" />
<line x1="-0.0572917" y1="-0.0546875" x2="0.151042" y2="-0.0546875" style="stroke:rgb(246,147,147);stroke-width:0.01" />
<line x1="0.130208" y1="-0.158854" x2="-0.119792" y2="0.0911458" style="stroke:rgb(246,147,147);stroke-width:0.01" />
<line x1="0.109375" y1="-0.0963542" x2="0.0677083" y2="-0.0546875" style="stroke:rgb(246,147,147);stroke-width:0.01" />
<line x1="-0.0989583" y1="-0.0130208" x2="-0.0572917" y2="-0.0130208" style="stroke:rgb(246,147,147);stroke-width:0.01" />
<line x1="0.192708" y1="-0.0963542" x2="-0.0572917" y2="0.153646" style="stroke:rgb(246,147,147);stroke-width:0.01" />
<line x1="0.0260417" y1="0.0286458" x2="0.151042" y2="0.0286458" style="stroke:rgb(246,147,147);stroke-width:0.01" />
<line x1="0.0677083" y1="0.0703125" x2="0.0260417" y2="0.111979" style="stroke:rgb(246,147,147);stroke-width:0.01" />
<line x1="0.151042" y1="0.0286458" x2="0.0677083" y2="0.111979" style="stroke:rgb(246,147,147);stroke-width:0.01" />
<line x1="-0.265625" y1="0.0703125" x2="0.151042" y2="0.0703125" style="stroke:rgb(246,147,147);stroke-width:0.01" />
<line x1="0.0260417" y1="0.111979" x2="0.0677083" y2="0.111979" style="stroke:rgb(246,147,147);stroke-width:0.01" />
<line x1="-0.265625" y1="0.153646" x2="-0.0572917" y2="0.153646" style="stroke:rgb(246,147,147);stroke-width:0.01" />
<line x1="-0.0989583" y1="0.320312" x2="-0.0572917" y2="0.320312" style="stroke:rgb(246,147,147);stroke-width:0.01" />
</g>
</svg>
