<svg xmlns="http://www.w3.org/2000/svg" viewBox="-1.5 -1.5 3 3">
<g transform="scale(1, -1)">
<path d="M-0.324219 -0.298177 L0.050781 -0.298177 L0.050781 -0.131510 L0.134115 -0.131510 L0.134115 -0.048177 L0.154948 -0.027344 L0.134115 -0.006510 L0.134115 0.118490 L0.050781 0.118490 L0.050781 0.160156 L0.134115 0.243490 L0.134115 0.285156 L0.050781 0.285156 L-0.282552 -0.048177 L-0.282552 -0.089844 L-0.324219 -0.131510 z " fill="rgb(245,195,195)" />
<path d="M-0.324219 -0.298177 L0.675781 -0.298177 L0.675781 0.701823 L-0.324219 0.701823  z" fill="none" stroke="rgb(128,128,128)" stroke-width="0.01" />
<line x1="-0.115885" y1="-0.298177" x2="0.154948" y2="-0.0273438" style="stroke:rgb(246,147,147);stroke-width:0.01" />
<line x1="-0.324219" y1="-0.298177" x2="0.0507812" y2="-0.298177" style="stroke:rgb(246,147,147);stroke-width:0.01" />
<line x1="-0.324219" y1="-0.298177" x2="0.0507812" y2="0.0768229" style="stroke:rgb(246,147,147);stroke-width:0.01" />
<line x1="-0.324219" y1="-0.298177" x2="-0.324219" y2="-0.13151" style="stroke:rgb(246,147,147);stroke-width:0.01" />
<line x1="-0.282552" y1="-0.13151" x2="-0.282552" y2="-0.0481771" style="stroke:rgb(246,147,147);stroke-width:0.01" />
<line x1="-0.240885" y1="-0.13151" x2="-0.240885" y2="-0.0481771" style="stroke:rgb(246,147,147);stroke-width:0.01" />
<line x1="-0.199219" y1="-0.0898438" x2="-0.199219" y2="-0.00651042" style="stroke:rgb(246,147,147);stroke-width:0.01" />
<line x1="-0.157552" y1="-0.0481771" x2="-0.157552" y2="0.0768229" style="stroke:rgb(246,147,147);stroke-width:0.01" />
<line x1="-0.115885" y1="-0.298177" x2="-0.115885" y2="0.11849" style="stroke:rgb(246,147,147);stroke-width:0.01" />
<line x1="-0.0325521" y1="0.0351562" x2="-0.0325521" y2="0.11849" style="stroke:rgb(246,147,147);stroke-width:0.01" />
<line x1="0.00911458" y1="-0.00651042" x2="0.00911458" y2="0.24349" style="stroke:rgb(246,147,147);stroke-width:0.01" />
<line x1="0.0507812" y1="-0.298177" x2="0.0507812" y2="0.285156" style="stroke:rgb(246,147,147);stroke-width:0.01" />
<line x1="0.0924479" y1="-0.0898438" x2="0.0924479" y2="0.11849" style="stroke:rgb(246,147,147);stroke-width:0.01" />
<line x1="0.134115" y1="-0.13151" x2="0.134115" y2="0.11849" style="stroke:rgb(246,147,147);stroke-width:0.01" />
<line x1="0.134115" y1="0.24349" x2="0.134115" y2="0.285156" style="stroke:rgb(246,147,147);stroke-width:0.01" />
<line x1="-0.240885" y1="-0.13151" x2="0.134115" y2="0.24349" style="stroke:rgb(246,147,147);stroke-width:0.01" />
<line x1="-0.324219" y1="-0.13151" x2="-0.0325521" y2="0.160156" style="stroke:rgb(246,147,147);stroke-width:0.01" />
<line x1="-0.282552" y1="-0.0481771" x2="0.0507812" y2="0.285156" style="stroke:rgb(246,147,147);stroke-width:0.01" />
<line x1="-0.324219" y1="-0.13151" x2="0.134115" y2="-0.13151" style="stroke:rgb(246,147,147);stroke-width:0.01" />
<line x1="-0.199219" y1="-0.0898438" x2="-0.240885" y2="-0.0481771" style="stroke:rgb(246,147,147);stroke-width:0.01" />
<line x1="-0.282552" y1="-0.0898438" x2="0.0924479" y2="-0.0898438" style="stroke:rgb(246,147,147);stroke-width:0.01" />
<line x1="-0.157552" y1="-0.0481771" x2="-0.199219" y2="-0.00651042" style="stroke:rgb(246,147,147);stroke-width:0.01" />
<line x1="-0.282552" y1="-0.0481771" x2="0.0507812" y2="-0.0481771" style="stroke:rgb(246,147,147);stroke-width:0.01" />
<line x1="0.0924479" y1="-0.0481771" x2="0.134115" y2="-0.0481771" style="stroke:rgb(246,147,147);stroke-width:0.01" />
<line x1="0.00911458" y1="-0.00651042" x2="0.134115" y2="-0.00651042" style="stroke:rgb(246,147,147);stroke-width:0.01" />
<line x1="0.0924479" y1="-0.0898438" x2="-0.115885" y2="0.11849" style="stroke:rgb(246,147,147);stroke-width:0.01" />
<line x1="-0.0325521" y1="0.0351562" x2="0.0924479" y2="0.0351562" style="stroke:rgb(246,147,147);stroke-width:0.01" />
<line x1="0.0924479" y1="-0.0481771" x2="-0.0742188" y2="0.11849" style="stroke:rgb(246,147,147);stroke-width:0.01" />
<line x1="-0.157552" y1="0.0768229" x2="0.0507812" y2="0.0768229" style="stroke:rgb(246,147,147);stroke-width:0.01" />
<line x1="0.154948" y1="-0.0273438" x2="-0.0325521" y2="0.160156" style="stroke:rgb(246,147,147);stroke-width:0.01" />
<line x1="-0.115885" y1="0.11849" x2="0.134115" y2="0.11849" style="stroke:rgb(246,147,147);stroke-width:0.01" />
<line x1="0.00911458" y1="0.24349" x2="0.134115" y2="0.24349" style="stroke:rgb(246,147,147);stroke-width:0.01" />
<line x1="0.0507812" y1="0.285156" x2="0.134115" y2="0.285156" style="stroke:rgb(246,147,147);stroke-width:0.01" />
</g>
</svg>
