<svg xmlns="http://www.w3.org/2000/svg" viewBox="-1.5 -1.5 3 3">
<g transform="scale(1, -1)">
<path d="M0.000000 0.000000 L0.900000 0.000000 L0.900000 0.024390 L0.975610 0.024390 L0.975610 0.924390 L0.900000 0.924390 L0.000000 0.024390 z " fill="rgb(245,195,195)" />
<path d="M0.000000 0.000000 L1.000000 0.000000 L1.000000 1.000000 L0.000000 1.000000  z" fill="none" stroke="rgb(128,128,128)" stroke-width="0.01" />
<line x1="0" y1="0" x2="0.9" y2="0" style="stroke:rgb(246,147,147);stroke-width:0.01" />
<line x1="0" y1="0" x2="0" y2="0.0243902" style="stroke:rgb(246,147,147);stroke-width:0.01" />
<line x1="0.8" y1="0" x2="0.8" y2="0.82439" style="stroke:rgb(246,147,147);stroke-width:0.01" />
<line x1="0.9" y1="0" x2="0.9" y2="0.92439" style="stroke:rgb(246,147,147);stroke-width:0.01" />
<line x1="0.97561" y1="0.0243902" x2="0.97561" y2="0.92439" style="stroke:rgb(246,147,147);stroke-width:0.01" />
<line x1="0" y1="0.0243902" x2="0.9" y2="0.92439" style="stroke:rgb(246,147,147);stroke-width:0.01" />
<line x1="0" y1="0.0243902" x2="0.97561" y2="0.0243902" style="stroke:rgb(246,147,147);stroke-width:0.01" />
<line x1="0.8" y1="0.82439" x2="0.97561" y2="0.82439" style="stroke:rgb(246,147,147);stroke-width:0.01" />
<line x1="0.9" y1="0.92439" x2="0.97561" y2="0.92439" style="stroke:rgb(246,147,147);stroke-width:0.01" />
</g>
</svg>
