<svg xmlns="http://www.w3.org/2000/svg" viewBox="-1.5 -1.5 3 3">
<g transform="scale(1, -1)">
<path d="M-0.664460 -0.274564 L0.235540 -0.274564 L0.235540 -0.250174 L0.311150 -0.250174 L0.311150 0.649826 L0.235540 0.649826 L-0.664460 -0.250174 z " fill="rgb(245,195,195)" />
<path d="M-0.664460 -0.274564 L0.335540 -0.274564 L0.335540 0.725436 L-0.664460 0.725436  z" fill="none" stroke="rgb(128,128,128)" stroke-width="0.01" />
<line x1="-0.66446" y1="-0.274564" x2="0.23554" y2="-0.274564" style="stroke:rgb(246,147,147);stroke-width:0.01" />
<line x1="-0.66446" y1="-0.274564" x2="-0.66446" y2="-0.250174" style="stroke:rgb(246,147,147);stroke-width:0.01" />
<line x1="0.13554" y1="-0.274564" x2="0.13554" y2="0.549826" style="stroke:rgb(246,147,147);stroke-width:0.01" />
<line x1="0.23554" y1="-0.274564" x2="0.23554" y2="0.649826" style="stroke:rgb(246,147,147);stroke-width:0.01" />
<line x1="0.31115" y1="-0.250174" x2="0.31115" y2="0.649826" style="stroke:rgb(246,147,147);stroke-width:0.01" />
<line x1="-0.66446" y1="-0.250174" x2="0.23554" y2="0.649826" style="stroke:rgb(246,147,147);stroke-width:0.01" />
<line x1="-0.66446" y1="-0.250174" x2="0.31115" y2="-0.250174" style="stroke:rgb(246,147,147);stroke-width:0.01" />
<line x1="0.13554" y1="0.549826" x2="0.31115" y2="0.549826" style="stroke:rgb(246,147,147);stroke-width:0.01" />
<line x1="0.23554" y1="0.649826" x2="0.31115" y2="0.649826" style="stroke:rgb(246,147,147);stroke-width:0.01" />
</g>
</svg>
