<svg xmlns="http://www.w3.org/2000/svg" viewBox="-1.5 -1.5 3 3">
<g transform="scale(1, -1)">
<path d="M-0.102679 -0.183036 L-0.019345 -0.099702 L0.188988 -0.099702 L0.188988 -0.058036 L0.105655 0.025298 L0.188988 0.108631 L0.188988 0.150298 L0.105655 0.233631 L-0.144345 0.233631 L-0.144345 -0.016369 L-0.165179 -0.037202 L-0.144345 -0.058036 L-0.144345 -0.099702 L-0.102679 -0.099702 z " fill="rgb(245,195,195)" />
<path d="M-0.165179 -0.183036 L0.834821 -0.183036 L0.834821 0.816964 L-0.165179 0.816964  z" fill="none" stroke="rgb(128,128,128)" stroke-width="0.01" />
<line x1="-0.102679" y1="-0.183036" x2="0.188988" y2="0.108631" style="stroke:rgb(246,147,147);stroke-width:0.01" />
<line x1="-0.144345" y1="-0.0997024" x2="-0.144345" y2="0.233631" style="stroke:rgb(246,147,147);stroke-width:0.01" />
<line x1="-0.102679" y1="-0.183036" x2="-0.102679" y2="0.108631" style="stroke:rgb(246,147,147);stroke-width:0.01" />
<line x1="-0.0610119" y1="-0.141369" x2="-0.0610119" y2="0.0669643" style="stroke:rgb(246,147,147);stroke-width:0.01" />
<line x1="-0.0193452" y1="-0.0997024" x2="-0.0193452" y2="0.150298" style="stroke:rgb(246,147,147);stroke-width:0.01" />
<line x1="0.0223214" y1="-0.0997024" x2="0.0223214" y2="0.150298" style="stroke:rgb(246,147,147);stroke-width:0.01" />
<line x1="0.0639881" y1="-0.0997024" x2="0.0639881" y2="0.0669643" style="stroke:rgb(246,147,147);stroke-width:0.01" />
<line x1="0.105655" y1="0.0252976" x2="0.105655" y2="0.233631" style="stroke:rgb(246,147,147);stroke-width:0.01" />
<line x1="0.188988" y1="-0.0997024" x2="0.188988" y2="-0.0580357" style="stroke:rgb(246,147,147);stroke-width:0.01" />
<line x1="0.188988" y1="0.108631" x2="0.188988" y2="0.150298" style="stroke:rgb(246,147,147);stroke-width:0.01" />
<line x1="-0.144345" y1="-0.0580357" x2="0.0223214" y2="0.108631" style="stroke:rgb(246,147,147);stroke-width:0.01" />
<line x1="-0.165179" y1="-0.0372024" x2="0.105655" y2="0.233631" style="stroke:rgb(246,147,147);stroke-width:0.01" />
<line x1="-0.0610119" y1="-0.141369" x2="-0.165179" y2="-0.0372024" style="stroke:rgb(246,147,147);stroke-width:0.01" />
<line x1="-0.144345" y1="-0.0997024" x2="0.188988" y2="-0.0997024" style="stroke:rgb(246,147,147);stroke-width:0.01" />
<line x1="-0.0193452" y1="-0.0997024" x2="-0.102679" y2="-0.016369" style="stroke:rgb(246,147,147);stroke-width:0.01" />
<line x1="-0.144345" y1="-0.0580357" x2="0.188988" y2="-0.0580357" style="stroke:rgb(246,147,147);stroke-width:0.01" />
<line x1="0.0014881" y1="-0.078869" x2="-0.102679" y2="0.0252976" style="stroke:rgb(246,147,147);stroke-width:0.01" />
<line x1="-0.144345" y1="-0.016369" x2="0.0639881" y2="-0.016369" style="stroke:rgb(246,147,147);stroke-width:0.01" />
<line x1="0.0639881" y1="-0.016369" x2="-0.0193452" y2="0.0669643" style="stroke:rgb(246,147,147);stroke-width:0.01" />
<line x1="-0.102679" y1="0.0252976" x2="0.105655" y2="0.0252976" style="stroke:rgb(246,147,147);stroke-width:0.01" />
<line x1="0.188988" y1="-0.0580357" x2="-0.0193452" y2="0.150298" style="stroke:rgb(246,147,147);stroke-width:0.01" />
<line x1="-0.0610119" y1="0.0669643" x2="0.0639881" y2="0.0669643" style="stroke:rgb(246,147,147);stroke-width:0.01" />
<line x1="-0.102679" y1="0.108631" x2="0.188988" y2="0.108631" style="stroke:rgb(246,147,147);stroke-width:0.01" />
<line x1="-0.144345" y1="0.150298" x2="0.188988" y2="0.150298" style="stroke:rgb(246,147,147);stroke-width:0.01" />
<line x1="0.188988" y1="0.150298" x2="0.105655" y2="0.233631" style="stroke:rgb(246,147,147);stroke-width:0.01" />
<line x1="-0.144345" y1="0.233631" x2="0.105655" y2="0.233631" style="stroke:rgb(246,147,147);stroke-width:0.01" />
</g>
</svg>
