<svg xmlns="http://www.w3.org/2000/svg" viewBox="-1.5 -1.5 3 3">
<g transform="scale(1, -1)">
<path d="M0.023611 -0.193056 L0.106944 -0.193056 L0.106944 -0.109722 L0.148611 -0.109722 L0.148611 0.140278 L0.106944 0.140278 L0.065278 0.098611 L0.023611 0.140278 L0.002778 0.119444 L-0.018056 0.140278 L-0.143056 0.140278 L-0.143056 -0.026389 L-0.184722 -0.068056 L-0.184722 -0.109722 L-0.059722 -0.109722 z " fill="rgb(245,195,195)" />
<path d="M-0.184722 -0.193056 L0.815278 -0.193056 L0.815278 0.806944 L-0.184722 0.806944  z" fill="none" stroke="rgb(128,128,128)" stroke-width="0.01" />
<line x1="0.106944" y1="-0.0680556" x2="0.148611" y2="-0.0263889" style="stroke:rgb(246,147,147);stroke-width:0.01" />
<line x1="-0.0180556" y1="-0.151389" x2="0.148611" y2="0.0152778" style="stroke:rgb(246,147,147);stroke-width:0.01" />
<line x1="-0.0180556" y1="-0.109722" x2="0.127778" y2="0.0361111" style="stroke:rgb(246,147,147);stroke-width:0.01" />
<line x1="0.0236111" y1="-0.0263889" x2="0.106944" y2="0.0569444" style="stroke:rgb(246,147,147);stroke-width:0.01" />
<line x1="0.0236111" y1="-0.193056" x2="0.106944" y2="-0.193056" style="stroke:rgb(246,147,147);stroke-width:0.01" />
<line x1="-0.184722" y1="-0.109722" x2="-0.184722" y2="-0.0680556" style="stroke:rgb(246,147,147);stroke-width:0.01" />
<line x1="-0.143056" y1="-0.0680556" x2="-0.143056" y2="0.140278" style="stroke:rgb(246,147,147);stroke-width:0.01" />
<line x1="-0.101389" y1="-0.0680556" x2="-0.101389" y2="0.0152778" style="stroke:rgb(246,147,147);stroke-width:0.01" />
<line x1="-0.0180556" y1="-0.151389" x2="-0.0180556" y2="0.140278" style="stroke:rgb(246,147,147);stroke-width:0.01" />
<line x1="0.0236111" y1="-0.193056" x2="0.0236111" y2="0.140278" style="stroke:rgb(246,147,147);stroke-width:0.01" />
<line x1="0.0652778" y1="-0.0680556" x2="0.0652778" y2="0.0986111" style="stroke:rgb(246,147,147);stroke-width:0.01" />
<line x1="0.106944" y1="-0.193056" x2="0.106944" y2="0.140278" style="stroke:rgb(246,147,147);stroke-width:0.01" />
<line x1="0.148611" y1="-0.109722" x2="0.148611" y2="0.140278" style="stroke:rgb(246,147,147);stroke-width:0.01" />
<line x1="-0.101389" y1="-0.0680556" x2="0.106944" y2="0.140278" style="stroke:rgb(246,147,147);stroke-width:0.01" />
<line x1="-0.0180556" y1="-0.151389" x2="0.106944" y2="-0.151389" style="stroke:rgb(246,147,147);stroke-width:0.01" />
<line x1="-0.184722" y1="-0.0680556" x2="0.0236111" y2="0.140278" style="stroke:rgb(246,147,147);stroke-width:0.01" />
<line x1="-0.184722" y1="-0.109722" x2="0.148611" y2="-0.109722" style="stroke:rgb(246,147,147);stroke-width:0.01" />
<line x1="0.0236111" y1="-0.193056" x2="-0.101389" y2="-0.0680556" style="stroke:rgb(246,147,147);stroke-width:0.01" />
<line x1="-0.184722" y1="-0.0680556" x2="0.148611" y2="-0.0680556" style="stroke:rgb(246,147,147);stroke-width:0.01" />
<line x1="0.0236111" y1="-0.109722" x2="-0.0597222" y2="-0.0263889" style="stroke:rgb(246,147,147);stroke-width:0.01" />
<line x1="-0.143056" y1="-0.0263889" x2="0.106944" y2="-0.0263889" style="stroke:rgb(246,147,147);stroke-width:0.01" />
<line x1="-0.101389" y1="0.0152778" x2="0.148611" y2="0.0152778" style="stroke:rgb(246,147,147);stroke-width:0.01" />
<line x1="0.148611" y1="-0.109722" x2="-0.0388889" y2="0.0777778" style="stroke:rgb(246,147,147);stroke-width:0.01" />
<line x1="0.106944" y1="-0.0263889" x2="0.0236111" y2="0.0569444" style="stroke:rgb(246,147,147);stroke-width:0.01" />
<line x1="-0.0180556" y1="0.0569444" x2="0.106944" y2="0.0569444" style="stroke:rgb(246,147,147);stroke-width:0.01" />
<line x1="0.148611" y1="-0.0263889" x2="-0.0180556" y2="0.140278" style="stroke:rgb(246,147,147);stroke-width:0.01" />
<line x1="0.148611" y1="0.0152778" x2="0.0236111" y2="0.140278" style="stroke:rgb(246,147,147);stroke-width:0.01" />
<line x1="0.0236111" y1="0.0986111" x2="0.106944" y2="0.0986111" style="stroke:rgb(246,147,147);stroke-width:0.01" />
<line x1="-0.143056" y1="0.140278" x2="-0.0180556" y2="0.140278" style="stroke:rgb(246,147,147);stroke-width:0.01" />
<line x1="0.106944" y1="0.140278" x2="0.148611" y2="0.140278" style="stroke:rgb(246,147,147);stroke-width:0.01" />
</g>
</svg>
