<svg xmlns="http://www.w3.org/2000/svg" viewBox="-1.5 -1.5 3 3">
<g transform="scale(1, -1)">
<path d="M0.208333 0.000000 L0.291667 0.000000 L0.291667 0.083333 L0.333333 0.083333 L0.333333 0.333333 L0.291667 0.333333 L0.250000 0.291667 L0.208333 0.333333 L0.187500 0.312500 L0.166667 0.333333 L0.041667 0.333333 L0.041667 0.166667 L0.000000 0.125000 L0.000000 0.083333 L0.125000 0.083333 z " fill="rgb(245,195,195)" />
<path d="M0.000000 0.000000 L1.000000 0.000000 L1.000000 1.000000 L0.000000 1.000000  z" fill="none" stroke="rgb(128,128,128)" stroke-width="0.01" />
<line x1="0.291667" y1="0.125" x2="0.333333" y2="0.166667" style="stroke:rgb(246,147,147);stroke-width:0.01" />
<line x1="0.166667" y1="0.0416667" x2="0.333333" y2="0.208333" style="stroke:rgb(246,147,147);stroke-width:0.01" />
<line x1="0.166667" y1="0.0833333" x2="0.3125" y2="0.229167" style="stroke:rgb(246,147,147);stroke-width:0.01" />
<line x1="0.208333" y1="0.166667" x2="0.291667" y2="0.25" style="stroke:rgb(246,147,147);stroke-width:0.01" />
<line x1="0.208333" y1="0" x2="0.291667" y2="0" style="stroke:rgb(246,147,147);stroke-width:0.01" />
<line x1="0" y1="0.0833333" x2="0" y2="0.125" style="stroke:rgb(246,147,147);stroke-width:0.01" />
<line x1="0.0416667" y1="0.125" x2="0.0416667" y2="0.333333" style="stroke:rgb(246,147,147);stroke-width:0.01" />
<line x1="0.0833333" y1="0.125" x2="0.0833333" y2="0.208333" style="stroke:rgb(246,147,147);stroke-width:0.01" />
<line x1="0.166667" y1="0.0416667" x2="0.166667" y2="0.333333" style="stroke:rgb(246,147,147);stroke-width:0.01" />
<line x1="0.208333" y1="0" x2="0.208333" y2="0.333333" style="stroke:rgb(246,147,147);stroke-width:0.01" />
<line x1="0.25" y1="0.125" x2="0.25" y2="0.291667" style="stroke:rgb(246,147,147);stroke-width:0.01" />
<line x1="0.291667" y1="0" x2="0.291667" y2="0.333333" style="stroke:rgb(246,147,147);stroke-width:0.01" />
<line x1="0.333333" y1="0.0833333" x2="0.333333" y2="0.333333" style="stroke:rgb(246,147,147);stroke-width:0.01" />
<line x1="0.0833333" y1="0.125" x2="0.291667" y2="0.333333" style="stroke:rgb(246,147,147);stroke-width:0.01" />
<line x1="0.166667" y1="0.0416667" x2="0.291667" y2="0.0416667" style="stroke:rgb(246,147,147);stroke-width:0.01" />
<line x1="0" y1="0.125" x2="0.208333" y2="0.333333" style="stroke:rgb(246,147,147);stroke-width:0.01" />
<line x1="0" y1="0.0833333" x2="0.333333" y2="0.0833333" style="stroke:rgb(246,147,147);stroke-width:0.01" />
<line x1="0.208333" y1="0" x2="0.0833333" y2="0.125" style="stroke:rgb(246,147,147);stroke-width:0.01" />
<line x1="0" y1="0.125" x2="0.333333" y2="0.125" style="stroke:rgb(246,147,147);stroke-width:0.01" />
<line x1="0.208333" y1="0.0833333" x2="0.125" y2="0.166667" style="stroke:rgb(246,147,147);stroke-width:0.01" />
<line x1="0.0416667" y1="0.166667" x2="0.291667" y2="0.166667" style="stroke:rgb(246,147,147);stroke-width:0.01" />
<line x1="0.0833333" y1="0.208333" x2="0.333333" y2="0.208333" style="stroke:rgb(246,147,147);stroke-width:0.01" />
<line x1="0.333333" y1="0.0833333" x2="0.145833" y2="0.270833" style="stroke:rgb(246,147,147);stroke-width:0.01" />
<line x1="0.291667" y1="0.166667" x2="0.208333" y2="0.25" style="stroke:rgb(246,147,147);stroke-width:0.01" />
<line x1="0.166667" y1="0.25" x2="0.291667" y2="0.25" style="stroke:rgb(246,147,147);stroke-width:0.01" />
<line x1="0.333333" y1="0.166667" x2="0.166667" y2="0.333333" style="stroke:rgb(246,147,147);stroke-width:0.01" />
<line x1="0.333333" y1="0.208333" x2="0.208333" y2="0.333333" style="stroke:rgb(246,147,147);stroke-width:0.01" />
<line x1="0.208333" y1="0.291667" x2="0.291667" y2="0.291667" style="stroke:rgb(246,147,147);stroke-width:0.01" />
<line x1="0.0416667" y1="0.333333" x2="0.166667" y2="0.333333" style="stroke:rgb(246,147,147);stroke-width:0.01" />
<line x1="0.291667" y1="0.333333" x2="0.333333" y2="0.333333" style="stroke:rgb(246,147,147);stroke-width:0.01" />
</g>
</svg>
