<svg xmlns="http://www.w3.org/2000/svg" viewBox="-1.5 -1.5 3 3">
<g transform="scale(1, -1)">
<path d="M-0.665079 -0.273016 L0.234921 -0.273016 L0.234921 -0.250794 L0.312698 -0.250794 L0.312698 0.649206 L0.234921 0.649206 L-0.665079 -0.250794 z " fill="rgb(245,195,195)" />
<path d="M-0.665079 -0.273016 L0.334921 -0.273016 L0.334921 0.726984 L-0.665079 0.726984  z" fill="none" stroke="rgb(128,128,128)" stroke-width="0.01" />
<line x1="-0.665079" y1="-0.273016" x2="0.234921" y2="-0.273016" style="stroke:rgb(246,147,147);stroke-width:0.01" />
<line x1="-0.665079" y1="-0.273016" x2="-0.665079" y2="-0.250794" style="stroke:rgb(246,147,147);stroke-width:0.01" />
<line x1="0.134921" y1="-0.273016" x2="0.134921" y2="0.549206" style="stroke:rgb(246,147,147);stroke-width:0.01" />
<line x1="0.234921" y1="-0.273016" x2="0.234921" y2="0.649206" style="stroke:rgb(246,147,147);stroke-width:0.01" />
<line x1="0.312698" y1="-0.250794" x2="0.312698" y2="0.649206" style="stroke:rgb(246,147,147);stroke-width:0.01" />
<line x1="-0.665079" y1="-0.250794" x2="0.234921" y2="0.649206" style="stroke:rgb(246,147,147);stroke-width:0.01" />
<line x1="-0.665079" y1="-0.250794" x2="0.312698" y2="-0.250794" style="stroke:rgb(246,147,147);stroke-width:0.01" />
<line x1="0.134921" y1="0.549206" x2="0.312698" y2="0.549206" style="stroke:rgb(246,147,147);stroke-width:0.01" />
<line x1="0.234921" y1="0.649206" x2="0.312698" y2="0.649206" style="stroke:rgb(246,147,147);stroke-width:0.01" />
</g>
</svg>
