<svg xmlns="http://www.w3.org/2000/svg" viewBox="-1.5 -1.5 3 3">
<g transform="scale(1, -1)">
<path d="M-0.665350 -0.272340 L0.234650 -0.272340 L0.234650 -0.251064 L0.313374 -0.251064 L0.313374 0.648936 L0.234650 0.648936 L-0.665350 -0.251064 z " fill="rgb(245,195,195)" />
<path d="M-0.665350 -0.272340 L0.334650 -0.272340 L0.334650 0.727660 L-0.665350 0.727660  z" fill="none" stroke="rgb(128,128,128)" stroke-width="0.01" />
<line x1="-0.66535" y1="-0.27234" x2="0.23465" y2="-0.27234" style="stroke:rgb(246,147,147);stroke-width:0.01" />
<line x1="-0.66535" y1="-0.27234" x2="-0.66535" y2="-0.251064" style="stroke:rgb(246,147,147);stroke-width:0.01" />
<line x1="0.13465" y1="-0.27234" x2="0.13465" y2="0.548936" style="stroke:rgb(246,147,147);stroke-width:0.01" />
<line x1="0.23465" y1="-0.27234" x2="0.23465" y2="0.648936" style="stroke:rgb(246,147,147);stroke-width:0.01" />
<line x1="0.313374" y1="-0.251064" x2="0.313374" y2="0.648936" style="stroke:rgb(246,147,147);stroke-width:0.01" />
<line x1="-0.66535" y1="-0.251064" x2="0.23465" y2="0.648936" style="stroke:rgb(246,147,147);stroke-width:0.01" />
<line x1="-0.66535" y1="-0.251064" x2="0.313374" y2="-0.251064" style="stroke:rgb(246,147,147);stroke-width:0.01" />
<line x1="0.13465" y1="0.548936" x2="0.313374" y2="0.548936" style="stroke:rgb(246,147,147);stroke-width:0.01" />
<line x1="0.23465" y1="0.648936" x2="0.313374" y2="0.648936" style="stroke:rgb(246,147,147);stroke-width:0.01" />
</g>
</svg>
