<svg xmlns="http://www.w3.org/2000/svg" viewBox="-1.5 -1.5 3 3">
<g transform="scale(1, -1)">
<path d="M0.065452 -0.322140 L0.446886 -0.060842 L0.170203 0.219757 L-0.160677 0.323774 L-0.521864 -0.160550 z " fill="rgb(245,195,195)" />
<path d="M-0.537489 -0.337765 L0.462511 -0.337765 L0.462511 0.662235 L-0.537489 0.662235  z" fill="none" stroke="rgb(128,128,128)" stroke-width="0.01" />
<line x1="0.402181" y1="-0.0914664" x2="0.410139" y2="-0.0700335" style="stroke:rgb(246,147,147);stroke-width:0.01" />
<line x1="0.0654522" y1="-0.32214" x2="0.446886" y2="-0.0608417" style="stroke:rgb(246,147,147);stroke-width:0.01" />
<line x1="0.0654522" y1="-0.32214" x2="0.214517" y2="0.0626817" style="stroke:rgb(246,147,147);stroke-width:0.01" />
<line x1="-0.0986574" y1="-0.178209" x2="0.051168" y2="0.00997542" style="stroke:rgb(246,147,147);stroke-width:0.01" />
<line x1="-0.292182" y1="-0.0817065" x2="-0.2889" y2="0.151838" style="stroke:rgb(246,147,147);stroke-width:0.01" />
<line x1="-0.286697" y1="-0.0284987" x2="-0.0872139" y2="0.214955" style="stroke:rgb(246,147,147);stroke-width:0.01" />
<line x1="0.410139" y1="-0.0700335" x2="0.446886" y2="-0.0608417" style="stroke:rgb(246,147,147);stroke-width:0.01" />
<line x1="-0.286697" y1="-0.0284987" x2="-0.30376" y2="0.131911" style="stroke:rgb(246,147,147);stroke-width:0.01" />
<line x1="-0.521864" y1="-0.16055" x2="-0.160677" y2="0.323774" style="stroke:rgb(246,147,147);stroke-width:0.01" />
<line x1="-0.521864" y1="-0.16055" x2="-0.412361" y2="-0.0417203" style="stroke:rgb(246,147,147);stroke-width:0.01" />
<line x1="-0.521864" y1="-0.16055" x2="0.051168" y2="0.00997542" style="stroke:rgb(246,147,147);stroke-width:0.01" />
<line x1="0.0654522" y1="-0.32214" x2="-0.521864" y2="-0.16055" style="stroke:rgb(246,147,147);stroke-width:0.01" />
<line x1="-0.412361" y1="-0.0417203" x2="-0.424739" y2="-0.030313" style="stroke:rgb(246,147,147);stroke-width:0.01" />
<line x1="0.402181" y1="-0.0914664" x2="-0.292182" y2="-0.0817065" style="stroke:rgb(246,147,147);stroke-width:0.01" />
<line x1="0.0654522" y1="-0.32214" x2="-0.424739" y2="-0.030313" style="stroke:rgb(246,147,147);stroke-width:0.01" />
<line x1="-0.0986574" y1="-0.178209" x2="-0.286697" y2="-0.0284987" style="stroke:rgb(246,147,147);stroke-width:0.01" />
<line x1="0.420311" y1="-0.0790468" x2="0.393419" y2="-0.0066181" style="stroke:rgb(246,147,147);stroke-width:0.01" />
<line x1="-0.2889" y1="0.151838" x2="-0.0872139" y2="0.214955" style="stroke:rgb(246,147,147);stroke-width:0.01" />
<line x1="0.051168" y1="0.00997542" x2="-0.160677" y2="0.323774" style="stroke:rgb(246,147,147);stroke-width:0.01" />
<line x1="-0.30376" y1="0.131911" x2="0.170203" y2="0.219757" style="stroke:rgb(246,147,147);stroke-width:0.01" />
<line x1="0.393419" y1="-0.0066181" x2="0.214517" y2="0.0626817" style="stroke:rgb(246,147,147);stroke-width:0.01" />
<line x1="0.420311" y1="-0.0790468" x2="0.410139" y2="-0.0700335" style="stroke:rgb(246,147,147);stroke-width:0.01" />
<line x1="0.446886" y1="-0.0608417" x2="0.170203" y2="0.219757" style="stroke:rgb(246,147,147);stroke-width:0.01" />
<line x1="0.170203" y1="0.219757" x2="-0.160677" y2="0.323774" style="stroke:rgb(246,147,147);stroke-width:0.01" />
</g>
</svg>
