<svg xmlns="http://www.w3.org/2000/svg" viewBox="-1.5 -1.5 3 3">
<g transform="scale(1, -1)">
<path d="M0.602941 0.015625 L0.984375 0.276923 L0.707692 0.557522 L0.376812 0.661538 L0.015625 0.177215 z " fill="rgb(245,195,195)" />
<path d="M0.000000 0.000000 L1.000000 0.000000 L1.000000 1.000000 L0.000000 1.000000  z" fill="none" stroke="rgb(128,128,128)" stroke-width="0.01" />
<line x1="0.93967" y1="0.246298" x2="0.947628" y2="0.267731" style="stroke:rgb(246,147,147);stroke-width:0.01" />
<line x1="0.602941" y1="0.015625" x2="0.984375" y2="0.276923" style="stroke:rgb(246,147,147);stroke-width:0.01" />
<line x1="0.602941" y1="0.015625" x2="0.752006" y2="0.400446" style="stroke:rgb(246,147,147);stroke-width:0.01" />
<line x1="0.438832" y1="0.159556" x2="0.588657" y2="0.34774" style="stroke:rgb(246,147,147);stroke-width:0.01" />
<line x1="0.245307" y1="0.256058" x2="0.24859" y2="0.489603" style="stroke:rgb(246,147,147);stroke-width:0.01" />
<line x1="0.250792" y1="0.309266" x2="0.450275" y2="0.55272" style="stroke:rgb(246,147,147);stroke-width:0.01" />
<line x1="0.947628" y1="0.267731" x2="0.984375" y2="0.276923" style="stroke:rgb(246,147,147);stroke-width:0.01" />
<line x1="0.250792" y1="0.309266" x2="0.233729" y2="0.469676" style="stroke:rgb(246,147,147);stroke-width:0.01" />
<line x1="0.015625" y1="0.177215" x2="0.376812" y2="0.661538" style="stroke:rgb(246,147,147);stroke-width:0.01" />
<line x1="0.015625" y1="0.177215" x2="0.125128" y2="0.296044" style="stroke:rgb(246,147,147);stroke-width:0.01" />
<line x1="0.015625" y1="0.177215" x2="0.588657" y2="0.34774" style="stroke:rgb(246,147,147);stroke-width:0.01" />
<line x1="0.602941" y1="0.015625" x2="0.015625" y2="0.177215" style="stroke:rgb(246,147,147);stroke-width:0.01" />
<line x1="0.125128" y1="0.296044" x2="0.11275" y2="0.307452" style="stroke:rgb(246,147,147);stroke-width:0.01" />
<line x1="0.93967" y1="0.246298" x2="0.245307" y2="0.256058" style="stroke:rgb(246,147,147);stroke-width:0.01" />
<line x1="0.602941" y1="0.015625" x2="0.11275" y2="0.307452" style="stroke:rgb(246,147,147);stroke-width:0.01" />
<line x1="0.438832" y1="0.159556" x2="0.250792" y2="0.309266" style="stroke:rgb(246,147,147);stroke-width:0.01" />
<line x1="0.9578" y1="0.258718" x2="0.930908" y2="0.331147" style="stroke:rgb(246,147,147);stroke-width:0.01" />
<line x1="0.24859" y1="0.489603" x2="0.450275" y2="0.55272" style="stroke:rgb(246,147,147);stroke-width:0.01" />
<line x1="0.588657" y1="0.34774" x2="0.376812" y2="0.661538" style="stroke:rgb(246,147,147);stroke-width:0.01" />
<line x1="0.233729" y1="0.469676" x2="0.707692" y2="0.557522" style="stroke:rgb(246,147,147);stroke-width:0.01" />
<line x1="0.930908" y1="0.331147" x2="0.752006" y2="0.400446" style="stroke:rgb(246,147,147);stroke-width:0.01" />
<line x1="0.9578" y1="0.258718" x2="0.947628" y2="0.267731" style="stroke:rgb(246,147,147);stroke-width:0.01" />
<line x1="0.984375" y1="0.276923" x2="0.707692" y2="0.557522" style="stroke:rgb(246,147,147);stroke-width:0.01" />
<line x1="0.707692" y1="0.557522" x2="0.376812" y2="0.661538" style="stroke:rgb(246,147,147);stroke-width:0.01" />
</g>
</svg>
