<svg xmlns="http://www.w3.org/2000/svg" viewBox="-1 -1 3 3">
<path d="M0.375000 -0.125000 L0.500000 0.000000 L0.541667 0.000000 L0.562500 -0.062500 L0.625000 -0.125000 L1.125000 -0.125000 L1.000000 0.000000 L1.000000 0.041667 L1.062500 0.062500 L1.125000 0.125000 L1.125000 0.625000 L1.000000 0.500000 L0.958333 0.500000 L0.937500 0.562500 L0.875000 0.625000 L0.375000 0.625000 L0.500000 0.500000 L0.500000 0.458333 L0.437500 0.437500 L0.375000 0.375000 z " fill="rgb(245,195,195)" />
<path d="M0 0 L0 1 L1 1 L1 0 z" fill="none" stroke="rgb(128,128,128)" stroke-width="0.01" />
<line x1="1.0625" y1="0.0625" x2="1.125" y2="0.125" style="stroke:rgb(246,147,147);stroke-width:0.01" />
<line x1="0.875" y1="0" x2="1" y2="0.125" style="stroke:rgb(246,147,147);stroke-width:0.01" />
<line x1="0.75" y1="0" x2="1" y2="0.25" style="stroke:rgb(246,147,147);stroke-width:0.01" />
<line x1="0.5625" y1="-0.0625" x2="0.8125" y2="0.1875" style="stroke:rgb(246,147,147);stroke-width:0.01" />
<line x1="1" y1="0.375" x2="1.125" y2="0.5" style="stroke:rgb(246,147,147);stroke-width:0.01" />
<line x1="0.875" y1="0" x2="1.0625" y2="0.0625" style="stroke:rgb(246,147,147);stroke-width:0.01" />
<line x1="0.375" y1="-0.125" x2="0.6875" y2="0.1875" style="stroke:rgb(246,147,147);stroke-width:0.01" />
<line x1="0.8125" y1="0.3125" x2="1.125" y2="0.625" style="stroke:rgb(246,147,147);stroke-width:0.01" />
<line x1="0.5625" y1="-0.0625" x2="0.75" y2="0" style="stroke:rgb(246,147,147);stroke-width:0.01" />
<line x1="0.375" y1="0" x2="0.5" y2="0.125" style="stroke:rgb(246,147,147);stroke-width:0.01" />
<line x1="0.6875" y1="0.3125" x2="0.9375" y2="0.5625" style="stroke:rgb(246,147,147);stroke-width:0.01" />
<line x1="0.625" y1="-0.125" x2="1.125" y2="-0.125" style="stroke:rgb(246,147,147);stroke-width:0.01" />
<line x1="0.5" y1="0.25" x2="0.75" y2="0.5" style="stroke:rgb(246,147,147);stroke-width:0.01" />
<line x1="0.8125" y1="0.1875" x2="1" y2="0.25" style="stroke:rgb(246,147,147);stroke-width:0.01" />
<line x1="0.5" y1="0.375" x2="0.625" y2="0.5" style="stroke:rgb(246,147,147);stroke-width:0.01" />
<line x1="0.5" y1="0.125" x2="0.6875" y2="0.1875" style="stroke:rgb(246,147,147);stroke-width:0.01" />
<line x1="0.375" y1="0" x2="0.625" y2="0" style="stroke:rgb(246,147,147);stroke-width:0.01" />
<line x1="0.375" y1="0.375" x2="0.4375" y2="0.4375" style="stroke:rgb(246,147,147);stroke-width:0.01" />
<line x1="0.375" y1="-0.125" x2="0.375" y2="0.375" style="stroke:rgb(246,147,147);stroke-width:0.01" />
<line x1="0.5" y1="0.375" x2="0.5" y2="0.625" style="stroke:rgb(246,147,147);stroke-width:0.01" />
<line x1="0.625" y1="-0.125" x2="0.625" y2="0" style="stroke:rgb(246,147,147);stroke-width:0.01" />
<line x1="0.875" y1="0.5" x2="0.875" y2="0.625" style="stroke:rgb(246,147,147);stroke-width:0.01" />
<line x1="1" y1="-0.125" x2="1" y2="0.125" style="stroke:rgb(246,147,147);stroke-width:0.01" />
<line x1="1.125" y1="0.125" x2="1.125" y2="0.625" style="stroke:rgb(246,147,147);stroke-width:0.01" />
<line x1="0.8125" y1="0.3125" x2="1" y2="0.375" style="stroke:rgb(246,147,147);stroke-width:0.01" />
<line x1="0.5" y1="0.25" x2="0.6875" y2="0.3125" style="stroke:rgb(246,147,147);stroke-width:0.01" />
<line x1="1" y1="0.125" x2="1.125" y2="0.125" style="stroke:rgb(246,147,147);stroke-width:0.01" />
<line x1="0.5625" y1="-0.0625" x2="0.5" y2="0.125" style="stroke:rgb(246,147,147);stroke-width:0.01" />
<line x1="0.5" y1="0.25" x2="0.4375" y2="0.4375" style="stroke:rgb(246,147,147);stroke-width:0.01" />
<line x1="0.75" y1="0.5" x2="0.9375" y2="0.5625" style="stroke:rgb(246,147,147);stroke-width:0.01" />
<line x1="0.75" y1="0" x2="0.6875" y2="0.1875" style="stroke:rgb(246,147,147);stroke-width:0.01" />
<line x1="0.6875" y1="0.3125" x2="0.625" y2="0.5" style="stroke:rgb(246,147,147);stroke-width:0.01" />
<line x1="0.625" y1="-0.125" x2="0.5625" y2="-0.0625" style="stroke:rgb(246,147,147);stroke-width:0.01" />
<line x1="0.4375" y1="0.4375" x2="0.625" y2="0.5" style="stroke:rgb(246,147,147);stroke-width:0.01" />
<line x1="0.875" y1="0" x2="0.8125" y2="0.1875" style="stroke:rgb(246,147,147);stroke-width:0.01" />
<line x1="0.8125" y1="0.3125" x2="0.75" y2="0.5" style="stroke:rgb(246,147,147);stroke-width:0.01" />
<line x1="0.625" y1="0" x2="0.5" y2="0.125" style="stroke:rgb(246,147,147);stroke-width:0.01" />
<line x1="1.0625" y1="0.0625" x2="1" y2="0.25" style="stroke:rgb(246,147,147);stroke-width:0.01" />
<line x1="1" y1="0.375" x2="0.9375" y2="0.5625" style="stroke:rgb(246,147,147);stroke-width:0.01" />
<line x1="0.375" y1="0.375" x2="0.5" y2="0.375" style="stroke:rgb(246,147,147);stroke-width:0.01" />
<line x1="0.75" y1="0" x2="0.5" y2="0.25" style="stroke:rgb(246,147,147);stroke-width:0.01" />
<line x1="1" y1="-0.125" x2="0.875" y2="0" style="stroke:rgb(246,147,147);stroke-width:0.01" />
<line x1="0.6875" y1="0.1875" x2="0.4375" y2="0.4375" style="stroke:rgb(246,147,147);stroke-width:0.01" />
<line x1="0.875" y1="0.5" x2="1.125" y2="0.5" style="stroke:rgb(246,147,147);stroke-width:0.01" />
<line x1="1.125" y1="-0.125" x2="0.8125" y2="0.1875" style="stroke:rgb(246,147,147);stroke-width:0.01" />
<line x1="0.6875" y1="0.3125" x2="0.375" y2="0.625" style="stroke:rgb(246,147,147);stroke-width:0.01" />
<line x1="1.0625" y1="0.0625" x2="0.8125" y2="0.3125" style="stroke:rgb(246,147,147);stroke-width:0.01" />
<line x1="0.625" y1="0.5" x2="0.5" y2="0.625" style="stroke:rgb(246,147,147);stroke-width:0.01" />
<line x1="0.375" y1="0.625" x2="0.875" y2="0.625" style="stroke:rgb(246,147,147);stroke-width:0.01" />
<line x1="1" y1="0.25" x2="0.75" y2="0.5" style="stroke:rgb(246,147,147);stroke-width:0.01" />
<line x1="1" y1="0.375" x2="0.875" y2="0.5" style="stroke:rgb(246,147,147);stroke-width:0.01" />
<line x1="0.9375" y1="0.5625" x2="0.875" y2="0.625" style="stroke:rgb(246,147,147);stroke-width:0.01" />
</svg>
