<svg xmlns="http://www.w3.org/2000/svg" viewBox="-1.5 -1.5 3 3">
<path d="M-0.375000 -0.375000 L-0.250000 -0.250000 L-0.208333 -0.250000 L-0.187500 -0.312500 L-0.125000 -0.375000 L0.375000 -0.375000 L0.250000 -0.250000 L0.250000 -0.208333 L0.312500 -0.187500 L0.375000 -0.125000 L0.375000 0.375000 L0.250000 0.250000 L0.208333 0.250000 L0.187500 0.312500 L0.125000 0.375000 L-0.375000 0.375000 L-0.250000 0.250000 L-0.250000 0.208333 L-0.312500 0.187500 L-0.375000 0.125000 z " fill="rgb(245,195,195)" />
<path d="M-0.750000 -0.250000 L0.250000 -0.250000 L0.250000 0.750000 L-0.750000 0.750000  z" fill="none" stroke="rgb(128,128,128)" stroke-width="0.01" />
<line x1="0.3125" y1="-0.1875" x2="0.375" y2="-0.125" style="stroke:rgb(246,147,147);stroke-width:0.01" />
<line x1="0.125" y1="-0.25" x2="0.25" y2="-0.125" style="stroke:rgb(246,147,147);stroke-width:0.01" />
<line x1="0" y1="-0.25" x2="0.25" y2="0" style="stroke:rgb(246,147,147);stroke-width:0.01" />
<line x1="-0.1875" y1="-0.3125" x2="0.0625" y2="-0.0625" style="stroke:rgb(246,147,147);stroke-width:0.01" />
<line x1="0.25" y1="0.125" x2="0.375" y2="0.25" style="stroke:rgb(246,147,147);stroke-width:0.01" />
<line x1="0.125" y1="-0.25" x2="0.3125" y2="-0.1875" style="stroke:rgb(246,147,147);stroke-width:0.01" />
<line x1="-0.375" y1="-0.375" x2="-0.0625" y2="-0.0625" style="stroke:rgb(246,147,147);stroke-width:0.01" />
<line x1="0.0625" y1="0.0625" x2="0.375" y2="0.375" style="stroke:rgb(246,147,147);stroke-width:0.01" />
<line x1="-0.1875" y1="-0.3125" x2="0" y2="-0.25" style="stroke:rgb(246,147,147);stroke-width:0.01" />
<line x1="-0.375" y1="-0.25" x2="-0.25" y2="-0.125" style="stroke:rgb(246,147,147);stroke-width:0.01" />
<line x1="-0.0625" y1="0.0625" x2="0.1875" y2="0.3125" style="stroke:rgb(246,147,147);stroke-width:0.01" />
<line x1="-0.125" y1="-0.375" x2="0.375" y2="-0.375" style="stroke:rgb(246,147,147);stroke-width:0.01" />
<line x1="-0.25" y1="0" x2="0" y2="0.25" style="stroke:rgb(246,147,147);stroke-width:0.01" />
<line x1="0.0625" y1="-0.0625" x2="0.25" y2="0" style="stroke:rgb(246,147,147);stroke-width:0.01" />
<line x1="-0.25" y1="0.125" x2="-0.125" y2="0.25" style="stroke:rgb(246,147,147);stroke-width:0.01" />
<line x1="-0.25" y1="-0.125" x2="-0.0625" y2="-0.0625" style="stroke:rgb(246,147,147);stroke-width:0.01" />
<line x1="-0.375" y1="-0.25" x2="-0.125" y2="-0.25" style="stroke:rgb(246,147,147);stroke-width:0.01" />
<line x1="-0.375" y1="0.125" x2="-0.3125" y2="0.1875" style="stroke:rgb(246,147,147);stroke-width:0.01" />
<line x1="-0.375" y1="-0.375" x2="-0.375" y2="0.125" style="stroke:rgb(246,147,147);stroke-width:0.01" />
<line x1="-0.25" y1="0.125" x2="-0.25" y2="0.375" style="stroke:rgb(246,147,147);stroke-width:0.01" />
<line x1="-0.125" y1="-0.375" x2="-0.125" y2="-0.25" style="stroke:rgb(246,147,147);stroke-width:0.01" />
<line x1="0.125" y1="0.25" x2="0.125" y2="0.375" style="stroke:rgb(246,147,147);stroke-width:0.01" />
<line x1="0.25" y1="-0.375" x2="0.25" y2="-0.125" style="stroke:rgb(246,147,147);stroke-width:0.01" />
<line x1="0.375" y1="-0.125" x2="0.375" y2="0.375" style="stroke:rgb(246,147,147);stroke-width:0.01" />
<line x1="0.0625" y1="0.0625" x2="0.25" y2="0.125" style="stroke:rgb(246,147,147);stroke-width:0.01" />
<line x1="-0.25" y1="0" x2="-0.0625" y2="0.0625" style="stroke:rgb(246,147,147);stroke-width:0.01" />
<line x1="0.25" y1="-0.125" x2="0.375" y2="-0.125" style="stroke:rgb(246,147,147);stroke-width:0.01" />
<line x1="-0.1875" y1="-0.3125" x2="-0.25" y2="-0.125" style="stroke:rgb(246,147,147);stroke-width:0.01" />
<line x1="-0.25" y1="0" x2="-0.3125" y2="0.1875" style="stroke:rgb(246,147,147);stroke-width:0.01" />
<line x1="0" y1="0.25" x2="0.1875" y2="0.3125" style="stroke:rgb(246,147,147);stroke-width:0.01" />
<line x1="0" y1="-0.25" x2="-0.0625" y2="-0.0625" style="stroke:rgb(246,147,147);stroke-width:0.01" />
<line x1="-0.0625" y1="0.0625" x2="-0.125" y2="0.25" style="stroke:rgb(246,147,147);stroke-width:0.01" />
<line x1="-0.125" y1="-0.375" x2="-0.1875" y2="-0.3125" style="stroke:rgb(246,147,147);stroke-width:0.01" />
<line x1="-0.3125" y1="0.1875" x2="-0.125" y2="0.25" style="stroke:rgb(246,147,147);stroke-width:0.01" />
<line x1="0.125" y1="-0.25" x2="0.0625" y2="-0.0625" style="stroke:rgb(246,147,147);stroke-width:0.01" />
<line x1="0.0625" y1="0.0625" x2="0" y2="0.25" style="stroke:rgb(246,147,147);stroke-width:0.01" />
<line x1="-0.125" y1="-0.25" x2="-0.25" y2="-0.125" style="stroke:rgb(246,147,147);stroke-width:0.01" />
<line x1="0.3125" y1="-0.1875" x2="0.25" y2="0" style="stroke:rgb(246,147,147);stroke-width:0.01" />
<line x1="0.25" y1="0.125" x2="0.1875" y2="0.3125" style="stroke:rgb(246,147,147);stroke-width:0.01" />
<line x1="-0.375" y1="0.125" x2="-0.25" y2="0.125" style="stroke:rgb(246,147,147);stroke-width:0.01" />
<line x1="0" y1="-0.25" x2="-0.25" y2="0" style="stroke:rgb(246,147,147);stroke-width:0.01" />
<line x1="0.25" y1="-0.375" x2="0.125" y2="-0.25" style="stroke:rgb(246,147,147);stroke-width:0.01" />
<line x1="-0.0625" y1="-0.0625" x2="-0.3125" y2="0.1875" style="stroke:rgb(246,147,147);stroke-width:0.01" />
<line x1="0.125" y1="0.25" x2="0.375" y2="0.25" style="stroke:rgb(246,147,147);stroke-width:0.01" />
<line x1="0.375" y1="-0.375" x2="0.0625" y2="-0.0625" style="stroke:rgb(246,147,147);stroke-width:0.01" />
<line x1="-0.0625" y1="0.0625" x2="-0.375" y2="0.375" style="stroke:rgb(246,147,147);stroke-width:0.01" />
<line x1="0.3125" y1="-0.1875" x2="0.0625" y2="0.0625" style="stroke:rgb(246,147,147);stroke-width:0.01" />
<line x1="-0.125" y1="0.25" x2="-0.25" y2="0.375" style="stroke:rgb(246,147,147);stroke-width:0.01" />
<line x1="-0.375" y1="0.375" x2="0.125" y2="0.375" style="stroke:rgb(246,147,147);stroke-width:0.01" />
<line x1="0.25" y1="0" x2="0" y2="0.25" style="stroke:rgb(246,147,147);stroke-width:0.01" />
<line x1="0.25" y1="0.125" x2="0.125" y2="0.25" style="stroke:rgb(246,147,147);stroke-width:0.01" />
<line x1="0.1875" y1="0.3125" x2="0.125" y2="0.375" style="stroke:rgb(246,147,147);stroke-width:0.01" />
</svg>
