<svg xmlns="http://www.w3.org/2000/svg" viewBox="-1.5 -1.5 3 3">
<g transform="scale(1, -1)">
<path d="M0.243685 0.019561 L1.000000 0.581949 L1.000000 1.000000 L0.084496 1.000000 L0.000000 0.407526 L0.000000 0.045403 z " fill="rgb(245,195,195)" />
<path d="M0.000000 0.000000 L1.000000 0.000000 L1.000000 1.000000 L0.000000 1.000000  z" fill="none" stroke="rgb(128,128,128)" stroke-width="0.01" />
<line x1="0.243685" y1="0.0195608" x2="1" y2="0.581949" style="stroke:rgb(246,147,147);stroke-width:0.01" />
<line x1="0.278055" y1="0.201835" x2="0.442689" y2="0.749487" style="stroke:rgb(246,147,147);stroke-width:0.01" />
<line x1="0.243685" y1="0.0195608" x2="0.278055" y2="0.201835" style="stroke:rgb(246,147,147);stroke-width:0.01" />
<line x1="0.264566" y1="0.0350875" x2="0.278055" y2="0.201835" style="stroke:rgb(246,147,147);stroke-width:0.01" />
<line x1="0" y1="0.0454033" x2="0" y2="0.407526" style="stroke:rgb(246,147,147);stroke-width:0.01" />
<line x1="1" y1="0.581949" x2="1" y2="1" style="stroke:rgb(246,147,147);stroke-width:0.01" />
<line x1="0" y1="0.0454033" x2="0.00952281" y2="0.0897967" style="stroke:rgb(246,147,147);stroke-width:0.01" />
<line x1="0" y1="0.407526" x2="0.0844957" y2="1" style="stroke:rgb(246,147,147);stroke-width:0.01" />
<line x1="0" y1="0.407526" x2="0.165623" y2="0.97638" style="stroke:rgb(246,147,147);stroke-width:0.01" />
<line x1="0.243685" y1="0.0195608" x2="0" y2="0.0454033" style="stroke:rgb(246,147,147);stroke-width:0.01" />
<line x1="0.264566" y1="0.0350875" x2="0.00952281" y2="0.0897967" style="stroke:rgb(246,147,147);stroke-width:0.01" />
<line x1="1" y1="0.581949" x2="0.442689" y2="0.749487" style="stroke:rgb(246,147,147);stroke-width:0.01" />
<line x1="0.165623" y1="0.97638" x2="0.0844957" y2="1" style="stroke:rgb(246,147,147);stroke-width:0.01" />
<line x1="0.0844957" y1="1" x2="1" y2="1" style="stroke:rgb(246,147,147);stroke-width:0.01" />
</g>
</svg>
