<svg xmlns="http://www.w3.org/2000/svg" viewBox="-1.5 -1.5 3 3">
<g transform="scale(1, -1)">
<path d="M-0.144345 -0.489512 L0.611970 0.072876 L0.611970 0.490927 L-0.303534 0.490927 L-0.388030 -0.101548 L-0.388030 -0.463670 z " fill="rgb(245,195,195)" />
<path d="M-0.388030 -0.509073 L0.611970 -0.509073 L0.611970 0.490927 L-0.388030 0.490927  z" fill="none" stroke="rgb(128,128,128)" stroke-width="0.01" />
<line x1="-0.144345" y1="-0.489512" x2="0.61197" y2="0.0728757" style="stroke:rgb(246,147,147);stroke-width:0.01" />
<line x1="-0.109976" y1="-0.307238" x2="0.0546591" y2="0.240414" style="stroke:rgb(246,147,147);stroke-width:0.01" />
<line x1="-0.144345" y1="-0.489512" x2="-0.109976" y2="-0.307238" style="stroke:rgb(246,147,147);stroke-width:0.01" />
<line x1="-0.123464" y1="-0.473986" x2="-0.109976" y2="-0.307238" style="stroke:rgb(246,147,147);stroke-width:0.01" />
<line x1="-0.38803" y1="-0.46367" x2="-0.38803" y2="-0.101548" style="stroke:rgb(246,147,147);stroke-width:0.01" />
<line x1="0.61197" y1="0.0728757" x2="0.61197" y2="0.490927" style="stroke:rgb(246,147,147);stroke-width:0.01" />
<line x1="-0.38803" y1="-0.46367" x2="-0.378507" y2="-0.419276" style="stroke:rgb(246,147,147);stroke-width:0.01" />
<line x1="-0.38803" y1="-0.101548" x2="-0.303534" y2="0.490927" style="stroke:rgb(246,147,147);stroke-width:0.01" />
<line x1="-0.38803" y1="-0.101548" x2="-0.222407" y2="0.467307" style="stroke:rgb(246,147,147);stroke-width:0.01" />
<line x1="-0.144345" y1="-0.489512" x2="-0.38803" y2="-0.46367" style="stroke:rgb(246,147,147);stroke-width:0.01" />
<line x1="-0.123464" y1="-0.473986" x2="-0.378507" y2="-0.419276" style="stroke:rgb(246,147,147);stroke-width:0.01" />
<line x1="0.61197" y1="0.0728757" x2="0.0546591" y2="0.240414" style="stroke:rgb(246,147,147);stroke-width:0.01" />
<line x1="-0.222407" y1="0.467307" x2="-0.303534" y2="0.490927" style="stroke:rgb(246,147,147);stroke-width:0.01" />
<line x1="-0.303534" y1="0.490927" x2="0.61197" y2="0.490927" style="stroke:rgb(246,147,147);stroke-width:0.01" />
</g>
</svg>
