<svg xmlns="http://www.w3.org/2000/svg" viewBox="-1.5 -1.5 3 3">
<g transform="scale(1, -1)">
<path d="M0.000000 -0.000000 L0.000000 0.000000 L1.000000 0.000000 L0.666667 0.666667 L0.200000 0.600000 L0.428571 0.428571 L0.000000 0.000000 L0.000000 0.000000 z " fill="rgb(245,195,195)" />
<path d="M0.000000 0.000000 L1.000000 0.000000 L1.000000 1.000000 L0.000000 1.000000  z" fill="none" stroke="rgb(128,128,128)" stroke-width="0.01" />
<line x1="6.25176e-27" y1="0" x2="6.25176e-27" y2="6.25176e-27" style="stroke:rgb(246,147,147);stroke-width:0.01" />
<line x1="6.25176e-27" y1="0" x2="1" y2="0" style="stroke:rgb(246,147,147);stroke-width:0.01" />
<line x1="6.25176e-27" y1="6.25176e-27" x2="0.666667" y2="0.666667" style="stroke:rgb(246,147,147);stroke-width:0.01" />
<line x1="1.25035e-26" y1="-7.81689e-53" x2="6.25176e-27" y2="0" style="stroke:rgb(246,147,147);stroke-width:0.01" />
<line x1="1.25035e-26" y1="-7.81689e-53" x2="6.25176e-27" y2="6.25176e-27" style="stroke:rgb(246,147,147);stroke-width:0.01" />
<line x1="1" y1="0" x2="0.666667" y2="0.666667" style="stroke:rgb(246,147,147);stroke-width:0.01" />
<line x1="1" y1="0" x2="0.2" y2="0.6" style="stroke:rgb(246,147,147);stroke-width:0.01" />
<line x1="0.2" y1="0.6" x2="0.666667" y2="0.666667" style="stroke:rgb(246,147,147);stroke-width:0.01" />
</g>
</svg>
