<svg xmlns="http://www.w3.org/2000/svg" viewBox="-1.5 -1.5 3 3">
<g transform="scale(1, -1)">
<path d="M0.089046 -0.229982 L0.350203 -0.002307 L0.349781 0.114689 L0.091321 0.364846 L-0.057353 0.359421 L-0.048000 0.103132 L0.090335 0.107151 L0.090057 0.034453 L-0.131013 0.065692 L-0.165385 -0.171379 L-0.163676 -0.171630 L-0.166056 -0.188917 L-0.164175 -0.189176 L-0.165087 -0.195995 z " fill="rgb(245,195,195)" />
<path d="M0.094945 -0.488301 L1.094945 -0.488301 L1.094945 0.511699 L0.094945 0.511699  z" fill="none" stroke="rgb(128,128,128)" stroke-width="0.01" />
<line x1="-0.0480004" y1="0.103132" x2="-0.0573525" y2="0.359421" style="stroke:rgb(246,147,147);stroke-width:0.01" />
<line x1="-0.0470637" y1="0.103159" x2="-0.0553359" y2="0.35643" style="stroke:rgb(246,147,147);stroke-width:0.01" />
<line x1="-0.0470637" y1="0.103159" x2="-0.0532982" y2="0.348145" style="stroke:rgb(246,147,147);stroke-width:0.01" />
<line x1="-0.0480004" y1="0.103132" x2="-0.0532982" y2="0.348145" style="stroke:rgb(246,147,147);stroke-width:0.01" />
<line x1="0.0949454" y1="-0.224839" x2="0.0949454" y2="0.361338" style="stroke:rgb(246,147,147);stroke-width:0.01" />
<line x1="0.0890462" y1="-0.229982" x2="0.0913209" y2="0.364846" style="stroke:rgb(246,147,147);stroke-width:0.01" />
<line x1="0.109874" y1="-0.211824" x2="0.104734" y2="0.351864" style="stroke:rgb(246,147,147);stroke-width:0.01" />
<line x1="0.350203" y1="-0.00230671" x2="0.349781" y2="0.114689" style="stroke:rgb(246,147,147);stroke-width:0.01" />
<line x1="-0.165087" y1="-0.195995" x2="-0.130106" y2="0.0655637" style="stroke:rgb(246,147,147);stroke-width:0.01" />
<line x1="-0.166056" y1="-0.188917" x2="-0.131013" y2="0.0656919" style="stroke:rgb(246,147,147);stroke-width:0.01" />
<line x1="-0.165385" y1="-0.171379" x2="-0.131013" y2="0.0656919" style="stroke:rgb(246,147,147);stroke-width:0.01" />
<line x1="-0.165385" y1="-0.171379" x2="-0.130106" y2="0.0655637" style="stroke:rgb(246,147,147);stroke-width:0.01" />
<line x1="0.0890462" y1="-0.229982" x2="0.350203" y2="-0.00230671" style="stroke:rgb(246,147,147);stroke-width:0.01" />
<line x1="0.0890462" y1="-0.229982" x2="-0.165087" y2="-0.195995" style="stroke:rgb(246,147,147);stroke-width:0.01" />
<line x1="0.0949454" y1="-0.224839" x2="-0.166056" y2="-0.188917" style="stroke:rgb(246,147,147);stroke-width:0.01" />
<line x1="0.109874" y1="-0.211824" x2="-0.165385" y2="-0.171379" style="stroke:rgb(246,147,147);stroke-width:0.01" />
<line x1="0.349781" y1="0.114689" x2="0.0913209" y2="0.364846" style="stroke:rgb(246,147,147);stroke-width:0.01" />
<line x1="0.350203" y1="-0.00230671" x2="-0.131013" y2="0.0656919" style="stroke:rgb(246,147,147);stroke-width:0.01" />
<line x1="-0.0480004" y1="0.103132" x2="0.349781" y2="0.114689" style="stroke:rgb(246,147,147);stroke-width:0.01" />
<line x1="-0.0532982" y1="0.348145" x2="0.104734" y2="0.351864" style="stroke:rgb(246,147,147);stroke-width:0.01" />
<line x1="-0.0553359" y1="0.35643" x2="0.0949454" y2="0.361338" style="stroke:rgb(246,147,147);stroke-width:0.01" />
<line x1="-0.0573525" y1="0.359421" x2="0.0913209" y2="0.364846" style="stroke:rgb(246,147,147);stroke-width:0.01" />
</g>
</svg>
