<svg xmlns="http://www.w3.org/2000/svg" viewBox="-1.5 -1.5 3 3">
<g transform="scale(1, -1)">
<path d="M-0.500000 -0.500000 L-0.375000 -0.500000 L-0.250000 -0.375000 L0.375000 -0.375000 L0.375000 0.250000 L0.500000 0.375000 L0.500000 0.500000 L0.375000 0.500000 L0.250000 0.375000 L-0.375000 0.375000 L-0.375000 -0.250000 L-0.500000 -0.375000 z " fill="rgb(245,195,195)" />
<path d="M-0.500000 -0.500000 L0.500000 -0.500000 L0.500000 0.500000 L-0.500000 0.500000  z" fill="none" stroke="rgb(128,128,128)" stroke-width="0.01" />
<line x1="-0.375" y1="-0.5" x2="0.5" y2="0.375" style="stroke:rgb(246,147,147);stroke-width:0.01" />
<line x1="-0.5" y1="-0.5" x2="-0.375" y2="-0.5" style="stroke:rgb(246,147,147);stroke-width:0.01" />
<line x1="-0.5" y1="-0.5" x2="-0.5" y2="-0.375" style="stroke:rgb(246,147,147);stroke-width:0.01" />
<line x1="-0.375" y1="-0.5" x2="-0.375" y2="0.375" style="stroke:rgb(246,147,147);stroke-width:0.01" />
<line x1="0.375" y1="-0.375" x2="0.375" y2="0.5" style="stroke:rgb(246,147,147);stroke-width:0.01" />
<line x1="0.5" y1="0.375" x2="0.5" y2="0.5" style="stroke:rgb(246,147,147);stroke-width:0.01" />
<line x1="-0.5" y1="-0.375" x2="0.375" y2="0.5" style="stroke:rgb(246,147,147);stroke-width:0.01" />
<line x1="-0.5" y1="-0.375" x2="0.375" y2="-0.375" style="stroke:rgb(246,147,147);stroke-width:0.01" />
<line x1="-0.375" y1="0.375" x2="0.5" y2="0.375" style="stroke:rgb(246,147,147);stroke-width:0.01" />
<line x1="0.375" y1="0.5" x2="0.5" y2="0.5" style="stroke:rgb(246,147,147);stroke-width:0.01" />
</g>
</svg>
