<svg xmlns="http://www.w3.org/2000/svg" viewBox="-1.5 -1.5 3 3">
<g transform="scale(1, -1)">
<path d="M-0.136344 -0.202139 L0.202648 -0.120948 L0.177381 -0.009337 L0.174602 -0.009961 L0.172198 -0.000449 L0.171404 -0.000646 L0.162703 0.033296 L0.025310 -0.001925 L0.073335 0.085226 L-0.137896 0.208473 L-0.286226 0.122914 L-0.288709 -0.082424 z M-0.136943 -0.043519 L-0.137256 0.039134 L-0.036207 -0.017695 z " fill="rgb(245,195,195)" />
<path d="M-0.771797 -0.549639 L0.228203 -0.549639 L0.228203 0.450361 L-0.771797 0.450361  z" fill="none" stroke="rgb(128,128,128)" stroke-width="0.01" />
<line x1="0.0203651" y1="-0.010899" x2="0.0733351" y2="0.0852265" style="stroke:rgb(246,147,147);stroke-width:0.01" />
<line x1="0.000221795" y1="-0.0381822" x2="0.0705422" y2="0.086856" style="stroke:rgb(246,147,147);stroke-width:0.01" />
<line x1="0.0128656" y1="-0.0139872" x2="0.0701612" y2="0.0870783" style="stroke:rgb(246,147,147);stroke-width:0.01" />
<line x1="0.0128656" y1="-0.0139872" x2="0.07103" y2="0.0865714" style="stroke:rgb(246,147,147);stroke-width:0.01" />
<line x1="0.00579596" y1="-0.0242674" x2="0.07103" y2="0.0865714" style="stroke:rgb(246,147,147);stroke-width:0.01" />
<line x1="0.0039808" y1="-0.0231736" x2="0.0701612" y2="0.0870783" style="stroke:rgb(246,147,147);stroke-width:0.01" />
<line x1="0.00579596" y1="-0.0242674" x2="0.0733351" y2="0.0852265" style="stroke:rgb(246,147,147);stroke-width:0.01" />
<line x1="0.0039808" y1="-0.0231736" x2="0.0705422" y2="0.086856" style="stroke:rgb(246,147,147);stroke-width:0.01" />
<line x1="-0.260174" y1="-0.104844" x2="-0.255075" y2="0.140882" style="stroke:rgb(246,147,147);stroke-width:0.01" />
<line x1="-0.288709" y1="-0.0824236" x2="-0.286226" y2="0.122914" style="stroke:rgb(246,147,147);stroke-width:0.01" />
<line x1="-0.257392" y1="-0.107029" x2="-0.256322" y2="0.140163" style="stroke:rgb(246,147,147);stroke-width:0.01" />
<line x1="-0.136344" y1="-0.202139" x2="-0.137896" y2="0.208473" style="stroke:rgb(246,147,147);stroke-width:0.01" />
<line x1="-0.257438" y1="-0.106993" x2="-0.261815" y2="0.136995" style="stroke:rgb(246,147,147);stroke-width:0.01" />
<line x1="-0.136344" y1="-0.202139" x2="0.202648" y2="-0.120948" style="stroke:rgb(246,147,147);stroke-width:0.01" />
<line x1="0.199292" y1="-0.121752" x2="0.175364" y2="-0.00979041" style="stroke:rgb(246,147,147);stroke-width:0.01" />
<line x1="0.202267" y1="-0.12104" x2="0.177381" y2="-0.00933748" style="stroke:rgb(246,147,147);stroke-width:0.01" />
<line x1="0.202648" y1="-0.120948" x2="0.177381" y2="-0.00933748" style="stroke:rgb(246,147,147);stroke-width:0.01" />
<line x1="0.201602" y1="-0.121199" x2="0.175364" y2="-0.00979041" style="stroke:rgb(246,147,147);stroke-width:0.01" />
<line x1="0.201602" y1="-0.121199" x2="0.172198" y2="-0.000449108" style="stroke:rgb(246,147,147);stroke-width:0.01" />
<line x1="0.202648" y1="-0.120948" x2="0.172198" y2="-0.000449108" style="stroke:rgb(246,147,147);stroke-width:0.01" />
<line x1="0.202267" y1="-0.12104" x2="0.162703" y2="0.0332956" style="stroke:rgb(246,147,147);stroke-width:0.01" />
<line x1="0.199292" y1="-0.121752" x2="0.164821" y2="0.00803384" style="stroke:rgb(246,147,147);stroke-width:0.01" />
<line x1="-0.260174" y1="-0.104844" x2="0.164821" y2="0.00803384" style="stroke:rgb(246,147,147);stroke-width:0.01" />
<line x1="-0.286226" y1="0.122914" x2="-0.137896" y2="0.208473" style="stroke:rgb(246,147,147);stroke-width:0.01" />
<line x1="-0.257392" y1="-0.107029" x2="0.172198" y2="-0.000449108" style="stroke:rgb(246,147,147);stroke-width:0.01" />
<line x1="-0.257438" y1="-0.106993" x2="0.177381" y2="-0.00933748" style="stroke:rgb(246,147,147);stroke-width:0.01" />
<line x1="-0.288709" y1="-0.0824236" x2="0.162703" y2="0.0332956" style="stroke:rgb(246,147,147);stroke-width:0.01" />
<line x1="-0.136344" y1="-0.202139" x2="-0.288709" y2="-0.0824236" style="stroke:rgb(246,147,147);stroke-width:0.01" />
<line x1="0.000221795" y1="-0.0381822" x2="-0.286226" y2="0.122914" style="stroke:rgb(246,147,147);stroke-width:0.01" />
<line x1="0.00579596" y1="-0.0242674" x2="-0.261815" y2="0.136995" style="stroke:rgb(246,147,147);stroke-width:0.01" />
<line x1="0.0128656" y1="-0.0139872" x2="-0.256322" y2="0.140163" style="stroke:rgb(246,147,147);stroke-width:0.01" />
<line x1="0.0203651" y1="-0.010899" x2="-0.255075" y2="0.140882" style="stroke:rgb(246,147,147);stroke-width:0.01" />
<line x1="0.0733351" y1="0.0852265" x2="-0.137896" y2="0.208473" style="stroke:rgb(246,147,147);stroke-width:0.01" />
</g>
</svg>
