<svg xmlns="http://www.w3.org/2000/svg" viewBox="-1.5 -1.5 3 3">
<g transform="scale(1, -1)">
<path d="M0.635454 0.347501 L0.974446 0.428691 L0.949178 0.540302 L0.946400 0.539678 L0.943996 0.549190 L0.943201 0.548993 L0.934500 0.582935 L0.797108 0.547715 L0.845133 0.634866 L0.633901 0.758113 L0.485571 0.672553 L0.483089 0.467216 z M0.634854 0.506121 L0.634541 0.588774 L0.735590 0.531945 z " fill="rgb(245,195,195)" />
<path d="M0.000000 0.000000 L1.000000 0.000000 L1.000000 1.000000 L0.000000 1.000000  z" fill="none" stroke="rgb(128,128,128)" stroke-width="0.01" />
<line x1="0.792163" y1="0.53874" x2="0.845133" y2="0.634866" style="stroke:rgb(246,147,147);stroke-width:0.01" />
<line x1="0.772019" y1="0.511457" x2="0.84234" y2="0.636495" style="stroke:rgb(246,147,147);stroke-width:0.01" />
<line x1="0.784663" y1="0.535652" x2="0.841959" y2="0.636718" style="stroke:rgb(246,147,147);stroke-width:0.01" />
<line x1="0.784663" y1="0.535652" x2="0.842827" y2="0.636211" style="stroke:rgb(246,147,147);stroke-width:0.01" />
<line x1="0.777593" y1="0.525372" x2="0.842827" y2="0.636211" style="stroke:rgb(246,147,147);stroke-width:0.01" />
<line x1="0.775778" y1="0.526466" x2="0.841959" y2="0.636718" style="stroke:rgb(246,147,147);stroke-width:0.01" />
<line x1="0.777593" y1="0.525372" x2="0.845133" y2="0.634866" style="stroke:rgb(246,147,147);stroke-width:0.01" />
<line x1="0.775778" y1="0.526466" x2="0.84234" y2="0.636495" style="stroke:rgb(246,147,147);stroke-width:0.01" />
<line x1="0.511624" y1="0.444796" x2="0.516722" y2="0.690522" style="stroke:rgb(246,147,147);stroke-width:0.01" />
<line x1="0.483089" y1="0.467216" x2="0.485571" y2="0.672553" style="stroke:rgb(246,147,147);stroke-width:0.01" />
<line x1="0.514405" y1="0.44261" x2="0.515475" y2="0.689802" style="stroke:rgb(246,147,147);stroke-width:0.01" />
<line x1="0.635454" y1="0.347501" x2="0.633901" y2="0.758113" style="stroke:rgb(246,147,147);stroke-width:0.01" />
<line x1="0.514359" y1="0.442646" x2="0.509983" y2="0.686634" style="stroke:rgb(246,147,147);stroke-width:0.01" />
<line x1="0.635454" y1="0.347501" x2="0.974446" y2="0.428691" style="stroke:rgb(246,147,147);stroke-width:0.01" />
<line x1="0.971089" y1="0.427887" x2="0.947161" y2="0.539849" style="stroke:rgb(246,147,147);stroke-width:0.01" />
<line x1="0.974064" y1="0.4286" x2="0.949178" y2="0.540302" style="stroke:rgb(246,147,147);stroke-width:0.01" />
<line x1="0.974446" y1="0.428691" x2="0.949178" y2="0.540302" style="stroke:rgb(246,147,147);stroke-width:0.01" />
<line x1="0.973399" y1="0.42844" x2="0.947161" y2="0.539849" style="stroke:rgb(246,147,147);stroke-width:0.01" />
<line x1="0.973399" y1="0.42844" x2="0.943996" y2="0.54919" style="stroke:rgb(246,147,147);stroke-width:0.01" />
<line x1="0.974446" y1="0.428691" x2="0.943996" y2="0.54919" style="stroke:rgb(246,147,147);stroke-width:0.01" />
<line x1="0.974064" y1="0.4286" x2="0.9345" y2="0.582935" style="stroke:rgb(246,147,147);stroke-width:0.01" />
<line x1="0.971089" y1="0.427887" x2="0.936619" y2="0.557673" style="stroke:rgb(246,147,147);stroke-width:0.01" />
<line x1="0.511624" y1="0.444796" x2="0.936619" y2="0.557673" style="stroke:rgb(246,147,147);stroke-width:0.01" />
<line x1="0.485571" y1="0.672553" x2="0.633901" y2="0.758113" style="stroke:rgb(246,147,147);stroke-width:0.01" />
<line x1="0.514405" y1="0.44261" x2="0.943996" y2="0.54919" style="stroke:rgb(246,147,147);stroke-width:0.01" />
<line x1="0.514359" y1="0.442646" x2="0.949178" y2="0.540302" style="stroke:rgb(246,147,147);stroke-width:0.01" />
<line x1="0.483089" y1="0.467216" x2="0.9345" y2="0.582935" style="stroke:rgb(246,147,147);stroke-width:0.01" />
<line x1="0.635454" y1="0.347501" x2="0.483089" y2="0.467216" style="stroke:rgb(246,147,147);stroke-width:0.01" />
<line x1="0.772019" y1="0.511457" x2="0.485571" y2="0.672553" style="stroke:rgb(246,147,147);stroke-width:0.01" />
<line x1="0.777593" y1="0.525372" x2="0.509983" y2="0.686634" style="stroke:rgb(246,147,147);stroke-width:0.01" />
<line x1="0.784663" y1="0.535652" x2="0.515475" y2="0.689802" style="stroke:rgb(246,147,147);stroke-width:0.01" />
<line x1="0.792163" y1="0.53874" x2="0.516722" y2="0.690522" style="stroke:rgb(246,147,147);stroke-width:0.01" />
<line x1="0.845133" y1="0.634866" x2="0.633901" y2="0.758113" style="stroke:rgb(246,147,147);stroke-width:0.01" />
</g>
</svg>
