<svg xmlns="http://www.w3.org/2000/svg" viewBox="-1.5 -1.5 3 3">
<g transform="scale(1, -1)">
<path d="M-0.250000 -0.214286 L0.000000 0.035714 L0.250000 -0.214286 L0.250000 0.035714 L0.125000 0.160714 L-0.125000 0.160714 L-0.250000 0.035714 z " fill="rgb(245,195,195)" />
<path d="M-0.250000 -0.214286 L0.750000 -0.214286 L0.750000 0.785714 L-0.250000 0.785714  z" fill="none" stroke="rgb(128,128,128)" stroke-width="0.01" />
<line x1="-0.25" y1="-0.214286" x2="0.125" y2="0.160714" style="stroke:rgb(246,147,147);stroke-width:0.01" />
<line x1="-0.25" y1="-0.214286" x2="-0.25" y2="0.0357143" style="stroke:rgb(246,147,147);stroke-width:0.01" />
<line x1="0" y1="0.0357143" x2="0" y2="0.160714" style="stroke:rgb(246,147,147);stroke-width:0.01" />
<line x1="0.25" y1="-0.214286" x2="0.25" y2="0.0357143" style="stroke:rgb(246,147,147);stroke-width:0.01" />
<line x1="-0.25" y1="0.0357143" x2="-0.125" y2="0.160714" style="stroke:rgb(246,147,147);stroke-width:0.01" />
<line x1="-0.25" y1="0.0357143" x2="0.25" y2="0.0357143" style="stroke:rgb(246,147,147);stroke-width:0.01" />
<line x1="0.25" y1="-0.214286" x2="-0.125" y2="0.160714" style="stroke:rgb(246,147,147);stroke-width:0.01" />
<line x1="-0.125" y1="0.160714" x2="0.125" y2="0.160714" style="stroke:rgb(246,147,147);stroke-width:0.01" />
<line x1="0.25" y1="0.0357143" x2="0.125" y2="0.160714" style="stroke:rgb(246,147,147);stroke-width:0.01" />
</g>
</svg>
