<svg xmlns="http://www.w3.org/2000/svg" viewBox="-1.5 -1.5 3 3">
<g transform="scale(1, -1)">
<path d="M-0.607143 -0.321429 L0.142857 -0.321429 L0.392857 -0.071429 L0.142857 -0.071429 L0.142857 0.178571 L-0.107143 0.428571 L-0.107143 0.178571 z " fill="rgb(245,195,195)" />
<path d="M-0.607143 -0.321429 L0.392857 -0.321429 L0.392857 0.678571 L-0.607143 0.678571  z" fill="none" stroke="rgb(128,128,128)" stroke-width="0.01" />
<line x1="0.142857" y1="-0.321429" x2="0.392857" y2="-0.0714286" style="stroke:rgb(246,147,147);stroke-width:0.01" />
<line x1="-0.107143" y1="-0.0714286" x2="0.142857" y2="0.178571" style="stroke:rgb(246,147,147);stroke-width:0.01" />
<line x1="-0.607143" y1="-0.321429" x2="0.142857" y2="-0.321429" style="stroke:rgb(246,147,147);stroke-width:0.01" />
<line x1="-0.607143" y1="-0.321429" x2="-0.107143" y2="0.178571" style="stroke:rgb(246,147,147);stroke-width:0.01" />
<line x1="-0.357143" y1="-0.321429" x2="-0.357143" y2="-0.0714286" style="stroke:rgb(246,147,147);stroke-width:0.01" />
<line x1="-0.107143" y1="-0.321429" x2="-0.107143" y2="0.428571" style="stroke:rgb(246,147,147);stroke-width:0.01" />
<line x1="0.142857" y1="-0.321429" x2="0.142857" y2="0.178571" style="stroke:rgb(246,147,147);stroke-width:0.01" />
<line x1="-0.357143" y1="-0.0714286" x2="0.392857" y2="-0.0714286" style="stroke:rgb(246,147,147);stroke-width:0.01" />
<line x1="0.142857" y1="-0.321429" x2="-0.107143" y2="-0.0714286" style="stroke:rgb(246,147,147);stroke-width:0.01" />
<line x1="-0.107143" y1="0.178571" x2="0.142857" y2="0.178571" style="stroke:rgb(246,147,147);stroke-width:0.01" />
<line x1="0.142857" y1="0.178571" x2="-0.107143" y2="0.428571" style="stroke:rgb(246,147,147);stroke-width:0.01" />
</g>
</svg>
