<svg xmlns="http://www.w3.org/2000/svg" viewBox="-1.5 -1.5 3 3">
<g transform="scale(1, -1)">
<path d="M-0.630769 -0.046154 L-0.560440 0.230769 L-0.000000 0.000000 L-0.000000 0.000000 L-0.000000 0.000000 L-0.000000 0.000000 L-0.384615 0.923077 L-0.871795 0.358974 z " fill="rgb(245,195,195)" />
<path d="M0.000000 0.000000 L1.000000 0.000000 L1.000000 1.000000 L0.000000 1.000000  z" fill="none" stroke="rgb(128,128,128)" stroke-width="0.01" />
<line x1="-0.630769" y1="-0.0461538" x2="-0.871795" y2="0.358974" style="stroke:rgb(246,147,147);stroke-width:0.01" />
<line x1="-2.40452e-27" y1="5.77085e-27" x2="-4.80904e-27" y2="1.15417e-26" style="stroke:rgb(246,147,147);stroke-width:0.01" />
<line x1="-2.40452e-27" y1="5.77085e-27" x2="-0.384615" y2="0.923077" style="stroke:rgb(246,147,147);stroke-width:0.01" />
<line x1="-8.17537e-27" y1="3.36633e-27" x2="-0.871795" y2="0.358974" style="stroke:rgb(246,147,147);stroke-width:0.01" />
<line x1="-8.17537e-27" y1="3.36633e-27" x2="-4.80904e-27" y2="1.15417e-26" style="stroke:rgb(246,147,147);stroke-width:0.01" />
<line x1="-8.17537e-27" y1="3.36633e-27" x2="-2.40452e-27" y2="5.77085e-27" style="stroke:rgb(246,147,147);stroke-width:0.01" />
<line x1="-0.630769" y1="-0.0461538" x2="-0.384615" y2="0.923077" style="stroke:rgb(246,147,147);stroke-width:0.01" />
<line x1="-0.871795" y1="0.358974" x2="-0.384615" y2="0.923077" style="stroke:rgb(246,147,147);stroke-width:0.01" />
</g>
</svg>
