<svg xmlns="http://www.w3.org/2000/svg" viewBox="-1.5 -1.5 3 3">
<g transform="scale(1, -1)">
<path d="M0.133303 0.169903 L0.223053 0.246675 L0.176708 0.300853 L0.852752 1.000000 L0.847806 1.147165 L-0.151629 1.113575 L-0.136626 0.667154 L0.054724 0.174700 z " fill="rgb(245,195,195)" />
<path d="M0.000000 0.000000 L1.000000 0.000000 L1.000000 1.000000 L0.000000 1.000000  z" fill="none" stroke="rgb(128,128,128)" stroke-width="0.01" />
<line x1="-0.136626" y1="0.667154" x2="-0.151629" y2="1.11357" style="stroke:rgb(246,147,147);stroke-width:0.01" />
<line x1="0" y1="0.315537" x2="0" y2="1" style="stroke:rgb(246,147,147);stroke-width:0.01" />
<line x1="0.852752" y1="1" x2="0.847806" y2="1.14716" style="stroke:rgb(246,147,147);stroke-width:0.01" />
<line x1="0.133303" y1="0.169903" x2="0.223053" y2="0.246675" style="stroke:rgb(246,147,147);stroke-width:0.01" />
<line x1="0.054724" y1="0.1747" x2="-0.136626" y2="0.667154" style="stroke:rgb(246,147,147);stroke-width:0.01" />
<line x1="0.054724" y1="0.1747" x2="0.852752" y2="1" style="stroke:rgb(246,147,147);stroke-width:0.01" />
<line x1="0.133303" y1="0.169903" x2="0" y2="0.315537" style="stroke:rgb(246,147,147);stroke-width:0.01" />
<line x1="0.133303" y1="0.169903" x2="0.054724" y2="0.1747" style="stroke:rgb(246,147,147);stroke-width:0.01" />
<line x1="0.223053" y1="0.246675" x2="-0.136626" y2="0.667154" style="stroke:rgb(246,147,147);stroke-width:0.01" />
<line x1="0" y1="1" x2="0.852752" y2="1" style="stroke:rgb(246,147,147);stroke-width:0.01" />
<line x1="-0.151629" y1="1.11357" x2="0.847806" y2="1.14716" style="stroke:rgb(246,147,147);stroke-width:0.01" />
</g>
</svg>
