<svg xmlns="http://www.w3.org/2000/svg" viewBox="-1.5 -1.5 3 3">
<g transform="scale(1, -1)">
<path d="M0.187780 -0.352821 L0.332771 0.067309 L0.022838 -0.083588 L-0.076508 0.040682 L0.138925 0.309785 L-0.302818 0.260855 L-0.302989 -0.242222 z " fill="rgb(245,195,195)" />
<path d="M-0.302989 -0.242222 L0.697011 -0.242222 L0.697011 0.757778 L-0.302989 0.757778  z" fill="none" stroke="rgb(128,128,128)" stroke-width="0.01" />
<line x1="0.18778" y1="-0.352821" x2="0.332771" y2="0.0673087" style="stroke:rgb(246,147,147);stroke-width:0.01" />
<line x1="0.18778" y1="-0.352821" x2="0.193934" y2="-0.297607" style="stroke:rgb(246,147,147);stroke-width:0.01" />
<line x1="-0.302989" y1="-0.242222" x2="0.332771" y2="0.0673087" style="stroke:rgb(246,147,147);stroke-width:0.01" />
<line x1="-0.302989" y1="-0.242222" x2="0.138925" y2="0.309785" style="stroke:rgb(246,147,147);stroke-width:0.01" />
<line x1="-0.302989" y1="-0.242222" x2="-0.247604" y2="0.254701" style="stroke:rgb(246,147,147);stroke-width:0.01" />
<line x1="-0.302989" y1="-0.242222" x2="-0.302818" y2="0.260855" style="stroke:rgb(246,147,147);stroke-width:0.01" />
<line x1="0.18778" y1="-0.352821" x2="-0.302989" y2="-0.242222" style="stroke:rgb(246,147,147);stroke-width:0.01" />
<line x1="0.193934" y1="-0.297607" x2="-0.302989" y2="-0.242222" style="stroke:rgb(246,147,147);stroke-width:0.01" />
<line x1="0.193934" y1="-0.297607" x2="-0.247604" y2="0.254701" style="stroke:rgb(246,147,147);stroke-width:0.01" />
<line x1="-0.247604" y1="0.254701" x2="-0.302818" y2="0.260855" style="stroke:rgb(246,147,147);stroke-width:0.01" />
<line x1="-0.302818" y1="0.260855" x2="0.138925" y2="0.309785" style="stroke:rgb(246,147,147);stroke-width:0.01" />
</g>
</svg>
