<svg xmlns="http://www.w3.org/2000/svg" viewBox="-1.5 -1.5 3 3">
<g transform="scale(1, -1)">
<path d="M0.492000 -0.656000 L0.625000 -0.200000 L0.475000 0.000000 L0.000000 0.000000 L0.000000 -0.200000 L0.416667 -0.200000 L0.300000 -0.600000 z " fill="rgb(245,195,195)" />
<path d="M0.000000 0.000000 L1.000000 0.000000 L1.000000 1.000000 L0.000000 1.000000  z" fill="none" stroke="rgb(128,128,128)" stroke-width="0.01" />
<line x1="0.3" y1="-0.6" x2="0.534" y2="-0.512" style="stroke:rgb(246,147,147);stroke-width:0.01" />
<line x1="0.384" y1="-0.6245" x2="0.534" y2="-0.512" style="stroke:rgb(246,147,147);stroke-width:0.01" />
<line x1="0.492" y1="-0.656" x2="0.3" y2="-0.6" style="stroke:rgb(246,147,147);stroke-width:0.01" />
<line x1="0.332667" y1="-0.488" x2="0.599333" y2="-0.288" style="stroke:rgb(246,147,147);stroke-width:0.01" />
<line x1="0.384" y1="-0.312" x2="0.618" y2="-0.224" style="stroke:rgb(246,147,147);stroke-width:0.01" />
<line x1="0.3" y1="-0.2" x2="0.45" y2="0" style="stroke:rgb(246,147,147);stroke-width:0.01" />
<line x1="0" y1="-0.2" x2="0.625" y2="-0.2" style="stroke:rgb(246,147,147);stroke-width:0.01" />
<line x1="0.116667" y1="-0.2" x2="0.383333" y2="0" style="stroke:rgb(246,147,147);stroke-width:0.01" />
<line x1="0.492" y1="-0.656" x2="0.625" y2="-0.2" style="stroke:rgb(246,147,147);stroke-width:0.01" />
<line x1="0.3" y1="-0.6" x2="0.475" y2="0" style="stroke:rgb(246,147,147);stroke-width:0.01" />
<line x1="0.116667" y1="-0.2" x2="0" y2="-0.1125" style="stroke:rgb(246,147,147);stroke-width:0.01" />
<line x1="0" y1="-0.1125" x2="0.15" y2="0" style="stroke:rgb(246,147,147);stroke-width:0.01" />
<line x1="0" y1="-0.2" x2="0.15" y2="0" style="stroke:rgb(246,147,147);stroke-width:0.01" />
<line x1="0" y1="0" x2="0.475" y2="0" style="stroke:rgb(246,147,147);stroke-width:0.01" />
<line x1="0" y1="-0.2" x2="0" y2="0" style="stroke:rgb(246,147,147);stroke-width:0.01" />
<line x1="0.384" y1="-0.6245" x2="0.332667" y2="-0.488" style="stroke:rgb(246,147,147);stroke-width:0.01" />
<line x1="0.534" y1="-0.512" x2="0.384" y2="-0.312" style="stroke:rgb(246,147,147);stroke-width:0.01" />
<line x1="0.3" y1="-0.2" x2="0.15" y2="0" style="stroke:rgb(246,147,147);stroke-width:0.01" />
<line x1="0.599333" y1="-0.288" x2="0.507143" y2="-0.0428571" style="stroke:rgb(246,147,147);stroke-width:0.01" />
<line x1="0.618" y1="-0.224" x2="0.592857" y2="-0.157143" style="stroke:rgb(246,147,147);stroke-width:0.01" />
<line x1="0.592857" y1="-0.157143" x2="0.383333" y2="0" style="stroke:rgb(246,147,147);stroke-width:0.01" />
<line x1="0.507143" y1="-0.0428571" x2="0.45" y2="0" style="stroke:rgb(246,147,147);stroke-width:0.01" />
<line x1="0.625" y1="-0.2" x2="0.475" y2="0" style="stroke:rgb(246,147,147);stroke-width:0.01" />
</g>
</svg>
