<svg xmlns="http://www.w3.org/2000/svg" viewBox="-1.5 -1.5 3 3">
<g transform="scale(1, -1)">
<path d="M-0.023810 -0.385758 L0.023810 -0.385758 L0.049020 -0.335338 L0.388889 -0.100044 L0.293333 0.227575 L0.207570 0.202561 L0.138095 0.295194 L0.000000 0.191623 L-0.138095 0.295194 L-0.207570 0.202561 L-0.293333 0.227575 L-0.388889 -0.100044 L-0.049020 -0.335338 z " fill="rgb(245,195,195)" />
<path d="M0.000000 -0.385758 L1.000000 -0.385758 L1.000000 0.614242 L0.000000 0.614242  z" fill="none" stroke="rgb(128,128,128)" stroke-width="0.01" />
<line x1="-0.0238095" y1="-0.385758" x2="-0.27381" y2="0.114242" style="stroke:rgb(246,147,147);stroke-width:0.01" />
<line x1="0.0238095" y1="-0.385758" x2="0.27381" y2="0.114242" style="stroke:rgb(246,147,147);stroke-width:0.01" />
<line x1="-0.0238095" y1="-0.385758" x2="-0.0952381" y2="0.114242" style="stroke:rgb(246,147,147);stroke-width:0.01" />
<line x1="0.0238095" y1="-0.385758" x2="0.0952381" y2="0.114242" style="stroke:rgb(246,147,147);stroke-width:0.01" />
<line x1="-0.0238095" y1="-0.385758" x2="0.0238095" y2="-0.385758" style="stroke:rgb(246,147,147);stroke-width:0.01" />
<line x1="-0.0238095" y1="-0.385758" x2="0.388889" y2="-0.100044" style="stroke:rgb(246,147,147);stroke-width:0.01" />
<line x1="0.0238095" y1="-0.385758" x2="-0.388889" y2="-0.100044" style="stroke:rgb(246,147,147);stroke-width:0.01" />
<line x1="-0.388889" y1="-0.100044" x2="-0.293333" y2="0.227575" style="stroke:rgb(246,147,147);stroke-width:0.01" />
<line x1="0.388889" y1="-0.100044" x2="0.293333" y2="0.227575" style="stroke:rgb(246,147,147);stroke-width:0.01" />
<line x1="-0.27381" y1="0.114242" x2="-0.138095" y2="0.295194" style="stroke:rgb(246,147,147);stroke-width:0.01" />
<line x1="0.27381" y1="0.114242" x2="0.138095" y2="0.295194" style="stroke:rgb(246,147,147);stroke-width:0.01" />
<line x1="-0.388889" y1="-0.100044" x2="0.138095" y2="0.295194" style="stroke:rgb(246,147,147);stroke-width:0.01" />
<line x1="0.388889" y1="-0.100044" x2="-0.138095" y2="0.295194" style="stroke:rgb(246,147,147);stroke-width:0.01" />
<line x1="-0.0952381" y1="0.114242" x2="0.293333" y2="0.227575" style="stroke:rgb(246,147,147);stroke-width:0.01" />
<line x1="0.0952381" y1="0.114242" x2="-0.293333" y2="0.227575" style="stroke:rgb(246,147,147);stroke-width:0.01" />
<line x1="-0.27381" y1="0.114242" x2="0.27381" y2="0.114242" style="stroke:rgb(246,147,147);stroke-width:0.01" />
</g>
</svg>
