<svg xmlns="http://www.w3.org/2000/svg" viewBox="-1 -1 3 3">
<path d="M-0.023810 0.000000 L0.023810 0.000000 L0.049020 0.050420 L0.388889 0.285714 L0.293333 0.613333 L0.207570 0.588319 L0.138095 0.680952 L0.000000 0.577381 L-0.138095 0.680952 L-0.207570 0.588319 L-0.293333 0.613333 L-0.388889 0.285714 L-0.049020 0.050420 z " fill="rgb(245,195,195)" />
<path d="M0 0 L0 1 L1 1 L1 0 z" fill="none" stroke="rgb(128,128,128)" stroke-width="0.01" />
<line x1="-0.0238095" y1="0" x2="-0.27381" y2="0.5" style="stroke:rgb(246,147,147);stroke-width:0.01" />
<line x1="0.0238095" y1="0" x2="0.27381" y2="0.5" style="stroke:rgb(246,147,147);stroke-width:0.01" />
<line x1="-0.0238095" y1="0" x2="-0.0952381" y2="0.5" style="stroke:rgb(246,147,147);stroke-width:0.01" />
<line x1="0.0238095" y1="0" x2="0.0952381" y2="0.5" style="stroke:rgb(246,147,147);stroke-width:0.01" />
<line x1="-0.0238095" y1="0" x2="0.0238095" y2="0" style="stroke:rgb(246,147,147);stroke-width:0.01" />
<line x1="-0.0238095" y1="0" x2="0.388889" y2="0.285714" style="stroke:rgb(246,147,147);stroke-width:0.01" />
<line x1="0.0238095" y1="0" x2="-0.388889" y2="0.285714" style="stroke:rgb(246,147,147);stroke-width:0.01" />
<line x1="-0.388889" y1="0.285714" x2="-0.293333" y2="0.613333" style="stroke:rgb(246,147,147);stroke-width:0.01" />
<line x1="0.388889" y1="0.285714" x2="0.293333" y2="0.613333" style="stroke:rgb(246,147,147);stroke-width:0.01" />
<line x1="-0.27381" y1="0.5" x2="-0.138095" y2="0.680952" style="stroke:rgb(246,147,147);stroke-width:0.01" />
<line x1="0.27381" y1="0.5" x2="0.138095" y2="0.680952" style="stroke:rgb(246,147,147);stroke-width:0.01" />
<line x1="-0.388889" y1="0.285714" x2="0.138095" y2="0.680952" style="stroke:rgb(246,147,147);stroke-width:0.01" />
<line x1="0.388889" y1="0.285714" x2="-0.138095" y2="0.680952" style="stroke:rgb(246,147,147);stroke-width:0.01" />
<line x1="-0.0952381" y1="0.5" x2="0.293333" y2="0.613333" style="stroke:rgb(246,147,147);stroke-width:0.01" />
<line x1="0.0952381" y1="0.5" x2="-0.293333" y2="0.613333" style="stroke:rgb(246,147,147);stroke-width:0.01" />
<line x1="-0.27381" y1="0.5" x2="0.27381" y2="0.5" style="stroke:rgb(246,147,147);stroke-width:0.01" />
</svg>
