<svg xmlns="http://www.w3.org/2000/svg" viewBox="-1.5 -1.5 3 3">
<g transform="scale(1, -1)">
<path d="M0.162190 -0.390857 L0.295190 0.065143 L0.145190 0.265143 L-0.329810 0.265143 L-0.329810 0.065143 L0.086857 0.065143 L-0.029810 -0.334857 z " fill="rgb(245,195,195)" />
<path d="M-0.329810 0.265143 L0.670190 0.265143 L0.670190 1.265143 L-0.329810 1.265143  z" fill="none" stroke="rgb(128,128,128)" stroke-width="0.01" />
<line x1="-0.0298095" y1="-0.334857" x2="0.20419" y2="-0.246857" style="stroke:rgb(246,147,147);stroke-width:0.01" />
<line x1="0.0541905" y1="-0.359357" x2="0.20419" y2="-0.246857" style="stroke:rgb(246,147,147);stroke-width:0.01" />
<line x1="0.16219" y1="-0.390857" x2="-0.0298095" y2="-0.334857" style="stroke:rgb(246,147,147);stroke-width:0.01" />
<line x1="0.00285714" y1="-0.222857" x2="0.269524" y2="-0.0228571" style="stroke:rgb(246,147,147);stroke-width:0.01" />
<line x1="0.0541905" y1="-0.0468571" x2="0.28819" y2="0.0411429" style="stroke:rgb(246,147,147);stroke-width:0.01" />
<line x1="-0.0298095" y1="0.0651429" x2="0.12019" y2="0.265143" style="stroke:rgb(246,147,147);stroke-width:0.01" />
<line x1="-0.32981" y1="0.0651429" x2="0.29519" y2="0.0651429" style="stroke:rgb(246,147,147);stroke-width:0.01" />
<line x1="-0.213143" y1="0.0651429" x2="0.0535238" y2="0.265143" style="stroke:rgb(246,147,147);stroke-width:0.01" />
<line x1="0.16219" y1="-0.390857" x2="0.29519" y2="0.0651429" style="stroke:rgb(246,147,147);stroke-width:0.01" />
<line x1="-0.0298095" y1="-0.334857" x2="0.14519" y2="0.265143" style="stroke:rgb(246,147,147);stroke-width:0.01" />
<line x1="-0.213143" y1="0.0651429" x2="-0.32981" y2="0.152643" style="stroke:rgb(246,147,147);stroke-width:0.01" />
<line x1="-0.32981" y1="0.152643" x2="-0.17981" y2="0.265143" style="stroke:rgb(246,147,147);stroke-width:0.01" />
<line x1="-0.32981" y1="0.0651429" x2="-0.17981" y2="0.265143" style="stroke:rgb(246,147,147);stroke-width:0.01" />
<line x1="-0.32981" y1="0.265143" x2="0.14519" y2="0.265143" style="stroke:rgb(246,147,147);stroke-width:0.01" />
<line x1="-0.32981" y1="0.0651429" x2="-0.32981" y2="0.265143" style="stroke:rgb(246,147,147);stroke-width:0.01" />
<line x1="0.0541905" y1="-0.359357" x2="0.00285714" y2="-0.222857" style="stroke:rgb(246,147,147);stroke-width:0.01" />
<line x1="0.20419" y1="-0.246857" x2="0.0541905" y2="-0.0468571" style="stroke:rgb(246,147,147);stroke-width:0.01" />
<line x1="-0.0298095" y1="0.0651429" x2="-0.17981" y2="0.265143" style="stroke:rgb(246,147,147);stroke-width:0.01" />
<line x1="0.269524" y1="-0.0228571" x2="0.177333" y2="0.222286" style="stroke:rgb(246,147,147);stroke-width:0.01" />
<line x1="0.28819" y1="0.0411429" x2="0.263048" y2="0.108" style="stroke:rgb(246,147,147);stroke-width:0.01" />
<line x1="0.263048" y1="0.108" x2="0.0535238" y2="0.265143" style="stroke:rgb(246,147,147);stroke-width:0.01" />
<line x1="0.177333" y1="0.222286" x2="0.12019" y2="0.265143" style="stroke:rgb(246,147,147);stroke-width:0.01" />
<line x1="0.29519" y1="0.0651429" x2="0.14519" y2="0.265143" style="stroke:rgb(246,147,147);stroke-width:0.01" />
</g>
</svg>
