<svg xmlns="http://www.w3.org/2000/svg" viewBox="-1.5 -1.5 3 3">
<g transform="scale(1, -1)">
<path d="M-0.041542 -0.279775 L0.159281 -0.130880 L0.509001 -0.182807 L0.709824 -0.033911 L0.360105 0.018016 L0.062313 0.419663 L-0.339334 0.121871 L-0.689053 0.173799 L-0.540157 -0.027024 L-0.190438 -0.078952 z " fill="rgb(245,195,195)" />
<path d="M2.575027 1.415911 L3.575027 1.415911 L3.575027 2.415911 L2.575027 2.415911  z" fill="none" stroke="rgb(128,128,128)" stroke-width="0.01" />
<line x1="-0.540157" y1="-0.0270244" x2="-0.689053" y2="0.173799" style="stroke:rgb(246,147,147);stroke-width:0.01" />
<line x1="0.509001" y1="-0.182807" x2="-0.540157" y2="-0.0270244" style="stroke:rgb(246,147,147);stroke-width:0.01" />
<line x1="-0.0415421" y1="-0.279775" x2="-0.339334" y2="0.121871" style="stroke:rgb(246,147,147);stroke-width:0.01" />
<line x1="0.709824" y1="-0.0339114" x2="-0.689053" y2="0.173799" style="stroke:rgb(246,147,147);stroke-width:0.01" />
<line x1="0.509001" y1="-0.182807" x2="0.0623131" y2="0.419663" style="stroke:rgb(246,147,147);stroke-width:0.01" />
<line x1="0.509001" y1="-0.182807" x2="0.709824" y2="-0.0339114" style="stroke:rgb(246,147,147);stroke-width:0.01" />
<line x1="-0.0415421" y1="-0.279775" x2="0.360105" y2="0.0180162" style="stroke:rgb(246,147,147);stroke-width:0.01" />
<line x1="-0.540157" y1="-0.0270244" x2="0.0623131" y2="0.419663" style="stroke:rgb(246,147,147);stroke-width:0.01" />
</g>
</svg>
