<svg xmlns="http://www.w3.org/2000/svg" viewBox="-1.5 -1.5 3 3">
<g transform="scale(1, -1)">
<path d="M-2.616569 -1.695687 L-2.415746 -1.546791 L-2.066027 -1.598718 L-1.865203 -1.449823 L-2.214922 -1.397895 L-2.512714 -0.996248 L-2.914361 -1.294040 L-3.264080 -1.242112 L-3.115184 -1.442936 L-2.765465 -1.494863 z " fill="rgb(245,195,195)" />
<path d="M0.000000 0.000000 L1.000000 0.000000 L1.000000 1.000000 L0.000000 1.000000  z" fill="none" stroke="rgb(128,128,128)" stroke-width="0.01" />
<line x1="-3.11518" y1="-1.44294" x2="-3.26408" y2="-1.24211" style="stroke:rgb(246,147,147);stroke-width:0.01" />
<line x1="-2.06603" y1="-1.59872" x2="-3.11518" y2="-1.44294" style="stroke:rgb(246,147,147);stroke-width:0.01" />
<line x1="-2.61657" y1="-1.69569" x2="-2.91436" y2="-1.29404" style="stroke:rgb(246,147,147);stroke-width:0.01" />
<line x1="-1.8652" y1="-1.44982" x2="-3.26408" y2="-1.24211" style="stroke:rgb(246,147,147);stroke-width:0.01" />
<line x1="-2.06603" y1="-1.59872" x2="-2.51271" y2="-0.996248" style="stroke:rgb(246,147,147);stroke-width:0.01" />
<line x1="-2.06603" y1="-1.59872" x2="-1.8652" y2="-1.44982" style="stroke:rgb(246,147,147);stroke-width:0.01" />
<line x1="-2.61657" y1="-1.69569" x2="-2.21492" y2="-1.39789" style="stroke:rgb(246,147,147);stroke-width:0.01" />
<line x1="-3.11518" y1="-1.44294" x2="-2.51271" y2="-0.996248" style="stroke:rgb(246,147,147);stroke-width:0.01" />
</g>
</svg>
