<svg xmlns="http://www.w3.org/2000/svg" viewBox="-1.5 -1.5 3 3">
<g transform="scale(1, -1)">
<path d="M1.277622 -0.410451 L1.476442 -0.384474 L1.480219 0.573030 L1.443477 0.619719 L1.425727 0.617400 L1.377168 0.468790 L1.330874 0.425345 L1.347732 0.407382 L1.186800 0.206169 L1.208303 0.155485 L1.138568 0.149486 L1.119418 0.109943 L1.107484 0.045685 L1.220959 -0.009270 L1.210031 -0.042713 L1.230609 -0.050630 z " fill="rgb(245,195,195)" />
<path d="M0.000000 0.000000 L1.000000 0.000000 L1.000000 1.000000 L0.000000 1.000000  z" fill="none" stroke="rgb(128,128,128)" stroke-width="0.01" />
<line x1="1.43494" y1="-0.378717" x2="1.47669" y2="-0.321515" style="stroke:rgb(246,147,147);stroke-width:0.01" />
<line x1="1.35546" y1="-0.191368" x2="1.47743" y2="-0.133479" style="stroke:rgb(246,147,147);stroke-width:0.01" />
<line x1="1.35546" y1="-0.191368" x2="1.47738" y2="-0.145563" style="stroke:rgb(246,147,147);stroke-width:0.01" />
<line x1="1.22399" y1="1.42261e-05" x2="1.47901" y2="0.267494" style="stroke:rgb(246,147,147);stroke-width:0.01" />
<line x1="1.27762" y1="-0.410451" x2="1.47644" y2="-0.384474" style="stroke:rgb(246,147,147);stroke-width:0.01" />
<line x1="1.1868" y1="0.206169" x2="1.48022" y2="0.57303" style="stroke:rgb(246,147,147);stroke-width:0.01" />
<line x1="1.33087" y1="0.425345" x2="1.48019" y2="0.565474" style="stroke:rgb(246,147,147);stroke-width:0.01" />
<line x1="1.11942" y1="0.109943" x2="1.13857" y2="0.149486" style="stroke:rgb(246,147,147);stroke-width:0.01" />
<line x1="1.33066" y1="0.326449" x2="1.44348" y2="0.619719" style="stroke:rgb(246,147,147);stroke-width:0.01" />
<line x1="1.21003" y1="-0.0427132" x2="1.42573" y2="0.6174" style="stroke:rgb(246,147,147);stroke-width:0.01" />
<line x1="1.2293" y1="-0.0479301" x2="1.33066" y2="0.326449" style="stroke:rgb(246,147,147);stroke-width:0.01" />
<line x1="1.10748" y1="0.0456853" x2="1.11942" y2="0.109943" style="stroke:rgb(246,147,147);stroke-width:0.01" />
<line x1="1.47644" y1="-0.384474" x2="1.43494" y2="-0.378717" style="stroke:rgb(246,147,147);stroke-width:0.01" />
<line x1="1.10748" y1="0.0456853" x2="1.12469" y2="0.0471299" style="stroke:rgb(246,147,147);stroke-width:0.01" />
<line x1="1.47644" y1="-0.384474" x2="1.48022" y2="0.57303" style="stroke:rgb(246,147,147);stroke-width:0.01" />
<line x1="1.13857" y1="0.149486" x2="1.47866" y2="0.178741" style="stroke:rgb(246,147,147);stroke-width:0.01" />
<line x1="1.12469" y1="0.0471299" x2="1.11942" y2="0.109943" style="stroke:rgb(246,147,147);stroke-width:0.01" />
<line x1="1.27762" y1="-0.410451" x2="1.22399" y2="1.42261e-05" style="stroke:rgb(246,147,147);stroke-width:0.01" />
<line x1="1.2293" y1="-0.0479301" x2="1.21003" y2="-0.0427132" style="stroke:rgb(246,147,147);stroke-width:0.01" />
<line x1="1.47866" y1="0.178741" x2="1.1868" y2="0.206169" style="stroke:rgb(246,147,147);stroke-width:0.01" />
<line x1="1.47738" y1="-0.145563" x2="1.21003" y2="-0.0427132" style="stroke:rgb(246,147,147);stroke-width:0.01" />
<line x1="1.42573" y1="0.6174" x2="1.44348" y2="0.619719" style="stroke:rgb(246,147,147);stroke-width:0.01" />
<line x1="1.43494" y1="-0.378717" x2="1.1868" y2="0.206169" style="stroke:rgb(246,147,147);stroke-width:0.01" />
<line x1="1.47743" y1="-0.133479" x2="1.10748" y2="0.0456853" style="stroke:rgb(246,147,147);stroke-width:0.01" />
<line x1="1.47669" y1="-0.321515" x2="1.13857" y2="0.149486" style="stroke:rgb(246,147,147);stroke-width:0.01" />
<line x1="1.47901" y1="0.267494" x2="1.33087" y2="0.425345" style="stroke:rgb(246,147,147);stroke-width:0.01" />
<line x1="1.48022" y1="0.57303" x2="1.44348" y2="0.619719" style="stroke:rgb(246,147,147);stroke-width:0.01" />
<line x1="1.48019" y1="0.565474" x2="1.42573" y2="0.6174" style="stroke:rgb(246,147,147);stroke-width:0.01" />
</g>
</svg>
