<svg xmlns="http://www.w3.org/2000/svg" viewBox="-1.5 -1.5 3 3">
<g transform="scale(1, -1)">
<path d="M0.583333 0.200000 L0.833333 0.200000 L1.083333 0.450000 L0.833333 0.450000 L0.708333 0.325000 L0.458333 0.575000 L0.583333 0.700000 L0.583333 0.950000 L0.333333 0.700000 L0.333333 0.450000 z " fill="rgb(245,195,195)" />
<path d="M0.000000 0.000000 L1.000000 0.000000 L1.000000 1.000000 L0.000000 1.000000  z" fill="none" stroke="rgb(128,128,128)" stroke-width="0.01" />
<line x1="0.833333" y1="0.2" x2="1.08333" y2="0.45" style="stroke:rgb(246,147,147);stroke-width:0.01" />
<line x1="0.583333" y1="0.2" x2="0.833333" y2="0.45" style="stroke:rgb(246,147,147);stroke-width:0.01" />
<line x1="0.333333" y1="0.45" x2="0.333333" y2="0.7" style="stroke:rgb(246,147,147);stroke-width:0.01" />
<line x1="0.583333" y1="0.2" x2="0.583333" y2="0.45" style="stroke:rgb(246,147,147);stroke-width:0.01" />
<line x1="0.583333" y1="0.7" x2="0.583333" y2="0.95" style="stroke:rgb(246,147,147);stroke-width:0.01" />
<line x1="0.833333" y1="0.2" x2="0.833333" y2="0.45" style="stroke:rgb(246,147,147);stroke-width:0.01" />
<line x1="0.333333" y1="0.45" x2="0.583333" y2="0.7" style="stroke:rgb(246,147,147);stroke-width:0.01" />
<line x1="0.333333" y1="0.7" x2="0.583333" y2="0.95" style="stroke:rgb(246,147,147);stroke-width:0.01" />
<line x1="0.583333" y1="0.2" x2="0.833333" y2="0.2" style="stroke:rgb(246,147,147);stroke-width:0.01" />
<line x1="0.583333" y1="0.2" x2="0.333333" y2="0.45" style="stroke:rgb(246,147,147);stroke-width:0.01" />
<line x1="0.333333" y1="0.45" x2="0.583333" y2="0.45" style="stroke:rgb(246,147,147);stroke-width:0.01" />
<line x1="0.833333" y1="0.45" x2="1.08333" y2="0.45" style="stroke:rgb(246,147,147);stroke-width:0.01" />
<line x1="0.833333" y1="0.2" x2="0.333333" y2="0.7" style="stroke:rgb(246,147,147);stroke-width:0.01" />
<line x1="0.333333" y1="0.7" x2="0.583333" y2="0.7" style="stroke:rgb(246,147,147);stroke-width:0.01" />
</g>
</svg>
