<svg xmlns="http://www.w3.org/2000/svg" viewBox="-1.5 -1.5 3 3">
<g transform="scale(1, -1)">
<path d="M-0.050000 -0.300000 L0.200000 -0.300000 L0.450000 -0.050000 L0.200000 -0.050000 L0.075000 -0.175000 L-0.175000 0.075000 L-0.050000 0.200000 L-0.050000 0.450000 L-0.300000 0.200000 L-0.300000 -0.050000 z " fill="rgb(245,195,195)" />
<path d="M-0.633333 -0.500000 L0.366667 -0.500000 L0.366667 0.500000 L-0.633333 0.500000  z" fill="none" stroke="rgb(128,128,128)" stroke-width="0.01" />
<line x1="0.2" y1="-0.3" x2="0.45" y2="-0.05" style="stroke:rgb(246,147,147);stroke-width:0.01" />
<line x1="-0.05" y1="-0.3" x2="0.2" y2="-0.05" style="stroke:rgb(246,147,147);stroke-width:0.01" />
<line x1="-0.3" y1="-0.05" x2="-0.3" y2="0.2" style="stroke:rgb(246,147,147);stroke-width:0.01" />
<line x1="-0.05" y1="-0.3" x2="-0.05" y2="-0.05" style="stroke:rgb(246,147,147);stroke-width:0.01" />
<line x1="-0.05" y1="0.2" x2="-0.05" y2="0.45" style="stroke:rgb(246,147,147);stroke-width:0.01" />
<line x1="0.2" y1="-0.3" x2="0.2" y2="-0.05" style="stroke:rgb(246,147,147);stroke-width:0.01" />
<line x1="-0.3" y1="-0.05" x2="-0.05" y2="0.2" style="stroke:rgb(246,147,147);stroke-width:0.01" />
<line x1="-0.3" y1="0.2" x2="-0.05" y2="0.45" style="stroke:rgb(246,147,147);stroke-width:0.01" />
<line x1="-0.05" y1="-0.3" x2="0.2" y2="-0.3" style="stroke:rgb(246,147,147);stroke-width:0.01" />
<line x1="-0.05" y1="-0.3" x2="-0.3" y2="-0.05" style="stroke:rgb(246,147,147);stroke-width:0.01" />
<line x1="-0.3" y1="-0.05" x2="-0.05" y2="-0.05" style="stroke:rgb(246,147,147);stroke-width:0.01" />
<line x1="0.2" y1="-0.05" x2="0.45" y2="-0.05" style="stroke:rgb(246,147,147);stroke-width:0.01" />
<line x1="0.2" y1="-0.3" x2="-0.3" y2="0.2" style="stroke:rgb(246,147,147);stroke-width:0.01" />
<line x1="-0.3" y1="0.2" x2="-0.05" y2="0.2" style="stroke:rgb(246,147,147);stroke-width:0.01" />
</g>
</svg>
