<svg xmlns="http://www.w3.org/2000/svg" viewBox="-1.5 -1.5 3 3">
<g transform="scale(1, -1)">
<path d="M-0.128447 -0.481328 L-0.009690 -0.388850 L-0.030100 -0.036579 L0.029035 0.139757 L0.112849 0.125043 L0.138482 0.139062 L0.153571 0.120103 L0.275230 0.067953 L0.338200 0.214854 L0.322536 0.239722 L-0.010473 0.326218 L-0.214658 0.242210 L-0.344564 -0.221869 L-0.317044 -0.244438 L-0.314927 -0.241856 z " fill="rgb(245,195,195)" />
<path d="M-0.867980 -0.190729 L0.132020 -0.190729 L0.132020 0.809271 L-0.867980 0.809271  z" fill="none" stroke="rgb(128,128,128)" stroke-width="0.01" />
<line x1="-0.128447" y1="-0.481328" x2="-0.00968996" y2="-0.38885" style="stroke:rgb(246,147,147);stroke-width:0.01" />
<line x1="0.27523" y1="0.0679534" x2="0.3382" y2="0.214854" style="stroke:rgb(246,147,147);stroke-width:0.01" />
<line x1="-0.317044" y1="-0.244438" x2="0.122598" y2="0.291654" style="stroke:rgb(246,147,147);stroke-width:0.01" />
<line x1="-0.0736457" y1="-0.166426" x2="0.0833906" y2="0.301837" style="stroke:rgb(246,147,147);stroke-width:0.01" />
<line x1="-0.340843" y1="-0.208575" x2="-0.129578" y2="-0.128258" style="stroke:rgb(246,147,147);stroke-width:0.01" />
<line x1="0.112849" y1="0.125043" x2="0.322536" y2="0.239722" style="stroke:rgb(246,147,147);stroke-width:0.01" />
<line x1="0.0692362" y1="0.226067" x2="0.0833906" y2="0.301837" style="stroke:rgb(246,147,147);stroke-width:0.01" />
<line x1="-0.344564" y1="-0.221869" x2="-0.214658" y2="0.24221" style="stroke:rgb(246,147,147);stroke-width:0.01" />
<line x1="-0.344564" y1="-0.221869" x2="-0.125167" y2="-0.190729" style="stroke:rgb(246,147,147);stroke-width:0.01" />
<line x1="-0.335847" y1="-0.190729" x2="-0.125167" y2="-0.190729" style="stroke:rgb(246,147,147);stroke-width:0.01" />
<line x1="-0.00968996" y1="-0.38885" x2="-0.0501745" y2="0.309883" style="stroke:rgb(246,147,147);stroke-width:0.01" />
<line x1="-0.125167" y1="-0.190729" x2="-0.157403" y2="0.265766" style="stroke:rgb(246,147,147);stroke-width:0.01" />
<line x1="-0.214658" y1="0.24221" x2="-0.0104726" y2="0.326218" style="stroke:rgb(246,147,147);stroke-width:0.01" />
<line x1="0.153571" y1="0.120103" x2="0.122598" y2="0.291654" style="stroke:rgb(246,147,147);stroke-width:0.01" />
<line x1="-0.129578" y1="-0.128258" x2="-0.307126" y2="-0.088126" style="stroke:rgb(246,147,147);stroke-width:0.01" />
<line x1="-0.00968996" y1="-0.38885" x2="-0.335847" y2="-0.190729" style="stroke:rgb(246,147,147);stroke-width:0.01" />
<line x1="-0.317044" y1="-0.244438" x2="-0.344564" y2="-0.221869" style="stroke:rgb(246,147,147);stroke-width:0.01" />
<line x1="-0.128447" y1="-0.481328" x2="-0.340843" y2="-0.208575" style="stroke:rgb(246,147,147);stroke-width:0.01" />
<line x1="-0.0736457" y1="-0.166426" x2="-0.307126" y2="-0.088126" style="stroke:rgb(246,147,147);stroke-width:0.01" />
<line x1="0.3382" y1="0.214854" x2="0.0692362" y2="0.226067" style="stroke:rgb(246,147,147);stroke-width:0.01" />
<line x1="0.112849" y1="0.125043" x2="-0.0629465" y2="0.155905" style="stroke:rgb(246,147,147);stroke-width:0.01" />
<line x1="-0.0629465" y1="0.155905" x2="-0.157403" y2="0.265766" style="stroke:rgb(246,147,147);stroke-width:0.01" />
<line x1="-0.0629465" y1="0.155905" x2="-0.214658" y2="0.24221" style="stroke:rgb(246,147,147);stroke-width:0.01" />
<line x1="0.153571" y1="0.120103" x2="-0.0104726" y2="0.326218" style="stroke:rgb(246,147,147);stroke-width:0.01" />
<line x1="0.112849" y1="0.125043" x2="-0.0501745" y2="0.309883" style="stroke:rgb(246,147,147);stroke-width:0.01" />
<line x1="0.27523" y1="0.0679534" x2="0.153571" y2="0.120103" style="stroke:rgb(246,147,147);stroke-width:0.01" />
<line x1="0.3382" y1="0.214854" x2="0.322536" y2="0.239722" style="stroke:rgb(246,147,147);stroke-width:0.01" />
<line x1="0.322536" y1="0.239722" x2="-0.0104726" y2="0.326218" style="stroke:rgb(246,147,147);stroke-width:0.01" />
</g>
</svg>
