<svg xmlns="http://www.w3.org/2000/svg" viewBox="-1.5 -1.5 3 3">
<g transform="scale(1, -1)">
<path d="M0.739533 -0.290600 L0.858290 -0.198122 L0.837880 0.154149 L0.897016 0.330485 L0.980829 0.315772 L1.006462 0.329790 L1.021551 0.310832 L1.143210 0.258682 L1.206180 0.405582 L1.190517 0.430450 L0.857508 0.516946 L0.653323 0.432938 L0.523416 -0.031141 L0.550936 -0.053710 L0.553054 -0.051128 z " fill="rgb(245,195,195)" />
<path d="M0.000000 0.000000 L1.000000 0.000000 L1.000000 1.000000 L0.000000 1.000000  z" fill="none" stroke="rgb(128,128,128)" stroke-width="0.01" />
<line x1="0.739533" y1="-0.2906" x2="0.85829" y2="-0.198122" style="stroke:rgb(246,147,147);stroke-width:0.01" />
<line x1="1.14321" y1="0.258682" x2="1.20618" y2="0.405582" style="stroke:rgb(246,147,147);stroke-width:0.01" />
<line x1="0.550936" y1="-0.0537096" x2="0.990579" y2="0.482382" style="stroke:rgb(246,147,147);stroke-width:0.01" />
<line x1="0.794335" y1="0.0243027" x2="0.951371" y2="0.492566" style="stroke:rgb(246,147,147);stroke-width:0.01" />
<line x1="0.527137" y1="-0.0178469" x2="0.738402" y2="0.06247" style="stroke:rgb(246,147,147);stroke-width:0.01" />
<line x1="0.980829" y1="0.315772" x2="1.19052" y2="0.43045" style="stroke:rgb(246,147,147);stroke-width:0.01" />
<line x1="0.937217" y1="0.416795" x2="0.951371" y2="0.492566" style="stroke:rgb(246,147,147);stroke-width:0.01" />
<line x1="0.523416" y1="-0.0311407" x2="0.653323" y2="0.432938" style="stroke:rgb(246,147,147);stroke-width:0.01" />
<line x1="0.523416" y1="-0.0311407" x2="0.742813" y2="0" style="stroke:rgb(246,147,147);stroke-width:0.01" />
<line x1="0.532133" y1="0" x2="0.742813" y2="0" style="stroke:rgb(246,147,147);stroke-width:0.01" />
<line x1="0.85829" y1="-0.198122" x2="0.817806" y2="0.500612" style="stroke:rgb(246,147,147);stroke-width:0.01" />
<line x1="0.742813" y1="0" x2="0.710578" y2="0.456495" style="stroke:rgb(246,147,147);stroke-width:0.01" />
<line x1="0.653323" y1="0.432938" x2="0.857508" y2="0.516946" style="stroke:rgb(246,147,147);stroke-width:0.01" />
<line x1="1.02155" y1="0.310832" x2="0.990579" y2="0.482382" style="stroke:rgb(246,147,147);stroke-width:0.01" />
<line x1="0.738402" y1="0.06247" x2="0.560854" y2="0.102602" style="stroke:rgb(246,147,147);stroke-width:0.01" />
<line x1="0.85829" y1="-0.198122" x2="0.532133" y2="0" style="stroke:rgb(246,147,147);stroke-width:0.01" />
<line x1="0.550936" y1="-0.0537096" x2="0.523416" y2="-0.0311407" style="stroke:rgb(246,147,147);stroke-width:0.01" />
<line x1="0.739533" y1="-0.2906" x2="0.527137" y2="-0.0178469" style="stroke:rgb(246,147,147);stroke-width:0.01" />
<line x1="0.794335" y1="0.0243027" x2="0.560854" y2="0.102602" style="stroke:rgb(246,147,147);stroke-width:0.01" />
<line x1="1.20618" y1="0.405582" x2="0.937217" y2="0.416795" style="stroke:rgb(246,147,147);stroke-width:0.01" />
<line x1="0.980829" y1="0.315772" x2="0.805034" y2="0.346633" style="stroke:rgb(246,147,147);stroke-width:0.01" />
<line x1="0.805034" y1="0.346633" x2="0.710578" y2="0.456495" style="stroke:rgb(246,147,147);stroke-width:0.01" />
<line x1="0.805034" y1="0.346633" x2="0.653323" y2="0.432938" style="stroke:rgb(246,147,147);stroke-width:0.01" />
<line x1="1.02155" y1="0.310832" x2="0.857508" y2="0.516946" style="stroke:rgb(246,147,147);stroke-width:0.01" />
<line x1="0.980829" y1="0.315772" x2="0.817806" y2="0.500612" style="stroke:rgb(246,147,147);stroke-width:0.01" />
<line x1="1.14321" y1="0.258682" x2="1.02155" y2="0.310832" style="stroke:rgb(246,147,147);stroke-width:0.01" />
<line x1="1.20618" y1="0.405582" x2="1.19052" y2="0.43045" style="stroke:rgb(246,147,147);stroke-width:0.01" />
<line x1="1.19052" y1="0.43045" x2="0.857508" y2="0.516946" style="stroke:rgb(246,147,147);stroke-width:0.01" />
</g>
</svg>
