<svg xmlns="http://www.w3.org/2000/svg" viewBox="-1.5 -1.5 3 3">
<g transform="scale(1, -1)">
<path d="M-0.330317 -0.524887 L-0.363322 -0.193772 L-0.000000 -0.000000 L-0.000000 0.000000 L-0.470588 0.882353 L-0.588235 -0.313725 z " fill="rgb(245,195,195)" />
<path d="M0.000000 0.000000 L1.000000 0.000000 L1.000000 1.000000 L0.000000 1.000000  z" fill="none" stroke="rgb(128,128,128)" stroke-width="0.01" />
<line x1="-0.330317" y1="-0.524887" x2="-0.588235" y2="-0.313725" style="stroke:rgb(246,147,147);stroke-width:0.01" />
<line x1="-0.330317" y1="-0.524887" x2="-0.470588" y2="0.882353" style="stroke:rgb(246,147,147);stroke-width:0.01" />
<line x1="-1.28529e-40" y1="-6.33177e-41" x2="-1.04655e-39" y2="1.96227e-39" style="stroke:rgb(246,147,147);stroke-width:0.01" />
<line x1="-6.3244e-41" y1="-3.37301e-41" x2="-1.04655e-39" y2="1.96227e-39" style="stroke:rgb(246,147,147);stroke-width:0.01" />
<line x1="-1.28529e-40" y1="-6.33177e-41" x2="-6.3244e-41" y2="-3.37301e-41" style="stroke:rgb(246,147,147);stroke-width:0.01" />
<line x1="-0.588235" y1="-0.313725" x2="-6.3244e-41" y2="-3.37301e-41" style="stroke:rgb(246,147,147);stroke-width:0.01" />
<line x1="-1.04655e-39" y1="1.96227e-39" x2="-0.470588" y2="0.882353" style="stroke:rgb(246,147,147);stroke-width:0.01" />
<line x1="-0.588235" y1="-0.313725" x2="-0.470588" y2="0.882353" style="stroke:rgb(246,147,147);stroke-width:0.01" />
</g>
</svg>
