<svg xmlns="http://www.w3.org/2000/svg" viewBox="-1.5 -1.5 3 3">
<g transform="scale(1, -1)">
<path d="M0.002044 -0.302829 L0.366574 -0.302829 L0.450810 0.237352 L0.002044 0.449085 L-0.189431 0.291339 L-0.155697 0.250391 L0.002044 0.242104 L0.002044 0.093042 L-0.006357 -0.002625 L-0.209276 -0.118757 L-0.216077 -0.148915 L-0.023027 -0.192449 L-0.027742 -0.246146 L0.002044 -0.248761 z " fill="rgb(245,195,195)" />
<path d="M0.002044 -0.302829 L1.002044 -0.302829 L1.002044 0.697171 L0.002044 0.697171  z" fill="none" stroke="rgb(128,128,128)" stroke-width="0.01" />
<line x1="0.366574" y1="-0.302829" x2="0.45081" y2="0.237352" style="stroke:rgb(246,147,147);stroke-width:0.01" />
<line x1="0.00204443" y1="-0.302829" x2="0.366574" y2="-0.302829" style="stroke:rgb(246,147,147);stroke-width:0.01" />
<line x1="0.00204443" y1="-0.302829" x2="0.00204443" y2="0.449085" style="stroke:rgb(246,147,147);stroke-width:0.01" />
<line x1="-0.0277423" y1="-0.246146" x2="0.0320675" y2="0.434919" style="stroke:rgb(246,147,147);stroke-width:0.01" />
<line x1="0.434812" y1="0.219367" x2="0.45081" y2="0.237352" style="stroke:rgb(246,147,147);stroke-width:0.01" />
<line x1="0.369967" y1="-0.281072" x2="-0.0277423" y2="-0.246146" style="stroke:rgb(246,147,147);stroke-width:0.01" />
<line x1="-0.216077" y1="-0.148915" x2="-0.209276" y2="-0.118757" style="stroke:rgb(246,147,147);stroke-width:0.01" />
<line x1="0.434812" y1="0.219367" x2="0.430065" y2="0.24714" style="stroke:rgb(246,147,147);stroke-width:0.01" />
<line x1="0.369967" y1="-0.281072" x2="-0.216077" y2="-0.148915" style="stroke:rgb(246,147,147);stroke-width:0.01" />
<line x1="0.366574" y1="-0.302829" x2="-0.209276" y2="-0.118757" style="stroke:rgb(246,147,147);stroke-width:0.01" />
<line x1="-0.155697" y1="0.250391" x2="-0.189431" y2="0.291339" style="stroke:rgb(246,147,147);stroke-width:0.01" />
<line x1="-0.209276" y1="-0.118757" x2="0.430065" y2="0.24714" style="stroke:rgb(246,147,147);stroke-width:0.01" />
<line x1="-0.155697" y1="0.250391" x2="0.0320675" y2="0.434919" style="stroke:rgb(246,147,147);stroke-width:0.01" />
<line x1="-0.189431" y1="0.291339" x2="0.00204443" y2="0.449085" style="stroke:rgb(246,147,147);stroke-width:0.01" />
<line x1="0.434812" y1="0.219367" x2="-0.155697" y2="0.250391" style="stroke:rgb(246,147,147);stroke-width:0.01" />
<line x1="0.45081" y1="0.237352" x2="0.00204443" y2="0.449085" style="stroke:rgb(246,147,147);stroke-width:0.01" />
</g>
</svg>
