<svg xmlns="http://www.w3.org/2000/svg" viewBox="-1.5 -1.5 3 3">
<g transform="scale(1, -1)">
<path d="M-0.479167 -0.229167 L-0.145833 -0.229167 L0.020833 -0.062500 L0.187500 -0.229167 L0.520833 0.104167 L0.187500 0.104167 L-0.145833 0.437500 L-0.145833 0.104167 z " fill="rgb(245,195,195)" />
<path d="M-0.479167 -0.229167 L0.520833 -0.229167 L0.520833 0.770833 L-0.479167 0.770833  z" fill="none" stroke="rgb(128,128,128)" stroke-width="0.01" />
<line x1="0.1875" y1="-0.229167" x2="0.520833" y2="0.104167" style="stroke:rgb(246,147,147);stroke-width:0.01" />
<line x1="-0.145833" y1="-0.229167" x2="0.1875" y2="0.104167" style="stroke:rgb(246,147,147);stroke-width:0.01" />
<line x1="-0.479167" y1="-0.229167" x2="-0.145833" y2="-0.229167" style="stroke:rgb(246,147,147);stroke-width:0.01" />
<line x1="-0.479167" y1="-0.229167" x2="-0.145833" y2="0.104167" style="stroke:rgb(246,147,147);stroke-width:0.01" />
<line x1="-0.145833" y1="-0.229167" x2="-0.145833" y2="0.4375" style="stroke:rgb(246,147,147);stroke-width:0.01" />
<line x1="0.1875" y1="-0.229167" x2="0.1875" y2="0.104167" style="stroke:rgb(246,147,147);stroke-width:0.01" />
<line x1="-0.145833" y1="0.104167" x2="0.520833" y2="0.104167" style="stroke:rgb(246,147,147);stroke-width:0.01" />
<line x1="0.1875" y1="-0.229167" x2="-0.145833" y2="0.104167" style="stroke:rgb(246,147,147);stroke-width:0.01" />
<line x1="0.1875" y1="0.104167" x2="-0.145833" y2="0.4375" style="stroke:rgb(246,147,147);stroke-width:0.01" />
</g>
</svg>
