<svg xmlns="http://www.w3.org/2000/svg" viewBox="-1 -1 3 3">
<path d="M-0.200000 0.200000 L0.100000 0.200000 L0.150000 0.250000 L0.200000 0.200000 L0.200000 0.500000 L0.150000 0.550000 L0.200000 0.600000 L-0.100000 0.600000 L-0.150000 0.550000 L-0.200000 0.600000 L-0.200000 0.300000 L-0.150000 0.250000 z " fill="rgb(245,195,195)" />
<path d="M0 0 L0 1 L1 1 L1 0 z" fill="none" stroke="rgb(128,128,128)" stroke-width="0.01" />
<line x1="-0.2" y1="0.3" x2="-0.2" y2="0.6" style="stroke:rgb(246,147,147);stroke-width:0.01" />
<line x1="-0.1" y1="0.4" x2="-0.1" y2="0.6" style="stroke:rgb(246,147,147);stroke-width:0.01" />
<line x1="0" y1="0.2" x2="0" y2="0.6" style="stroke:rgb(246,147,147);stroke-width:0.01" />
<line x1="-0.1" y1="0.2" x2="-0.2" y2="0.4" style="stroke:rgb(246,147,147);stroke-width:0.01" />
<line x1="0.1" y1="0.2" x2="0.1" y2="0.4" style="stroke:rgb(246,147,147);stroke-width:0.01" />
<line x1="0.2" y1="0.2" x2="0.2" y2="0.5" style="stroke:rgb(246,147,147);stroke-width:0.01" />
<line x1="-0.1" y1="0.3" x2="-0.2" y2="0.5" style="stroke:rgb(246,147,147);stroke-width:0.01" />
<line x1="0" y1="0.2" x2="-0.1" y2="0.4" style="stroke:rgb(246,147,147);stroke-width:0.01" />
<line x1="0.1" y1="0.2" x2="0.2" y2="0.3" style="stroke:rgb(246,147,147);stroke-width:0.01" />
<line x1="-0.1" y1="0.2" x2="-0.2" y2="0.3" style="stroke:rgb(246,147,147);stroke-width:0.01" />
<line x1="0" y1="0.3" x2="-0.1" y2="0.5" style="stroke:rgb(246,147,147);stroke-width:0.01" />
<line x1="0" y1="0.2" x2="0.2" y2="0.4" style="stroke:rgb(246,147,147);stroke-width:0.01" />
<line x1="0" y1="0.2" x2="-0.2" y2="0.4" style="stroke:rgb(246,147,147);stroke-width:0.01" />
<line x1="0.1" y1="0.3" x2="0" y2="0.5" style="stroke:rgb(246,147,147);stroke-width:0.01" />
<line x1="0.1" y1="0.4" x2="0" y2="0.6" style="stroke:rgb(246,147,147);stroke-width:0.01" />
<line x1="0.2" y1="0.3" x2="0.1" y2="0.5" style="stroke:rgb(246,147,147);stroke-width:0.01" />
<line x1="-0.1" y1="0.2" x2="0.1" y2="0.4" style="stroke:rgb(246,147,147);stroke-width:0.01" />
<line x1="0" y1="0.3" x2="-0.2" y2="0.5" style="stroke:rgb(246,147,147);stroke-width:0.01" />
<line x1="0" y1="0.2" x2="0.2" y2="0.3" style="stroke:rgb(246,147,147);stroke-width:0.01" />
<line x1="0.2" y1="0.4" x2="0.1" y2="0.6" style="stroke:rgb(246,147,147);stroke-width:0.01" />
<line x1="-0.2" y1="0.2" x2="0.2" y2="0.6" style="stroke:rgb(246,147,147);stroke-width:0.01" />
<line x1="-0.1" y1="0.2" x2="0.1" y2="0.3" style="stroke:rgb(246,147,147);stroke-width:0.01" />
<line x1="-0.2" y1="0.2" x2="0.1" y2="0.2" style="stroke:rgb(246,147,147);stroke-width:0.01" />
<line x1="0.2" y1="0.2" x2="-0.2" y2="0.6" style="stroke:rgb(246,147,147);stroke-width:0.01" />
<line x1="0" y1="0.3" x2="0.2" y2="0.4" style="stroke:rgb(246,147,147);stroke-width:0.01" />
<line x1="-0.1" y1="0.4" x2="0.1" y2="0.6" style="stroke:rgb(246,147,147);stroke-width:0.01" />
<line x1="0.2" y1="0.3" x2="0" y2="0.5" style="stroke:rgb(246,147,147);stroke-width:0.01" />
<line x1="-0.1" y1="0.3" x2="0.1" y2="0.4" style="stroke:rgb(246,147,147);stroke-width:0.01" />
<line x1="-0.2" y1="0.4" x2="0" y2="0.6" style="stroke:rgb(246,147,147);stroke-width:0.01" />
<line x1="-0.2" y1="0.3" x2="0" y2="0.3" style="stroke:rgb(246,147,147);stroke-width:0.01" />
<line x1="0.2" y1="0.4" x2="0" y2="0.6" style="stroke:rgb(246,147,147);stroke-width:0.01" />
<line x1="-0.2" y1="0.5" x2="-0.1" y2="0.6" style="stroke:rgb(246,147,147);stroke-width:0.01" />
<line x1="0.2" y1="0.5" x2="0.1" y2="0.6" style="stroke:rgb(246,147,147);stroke-width:0.01" />
<line x1="-0.1" y1="0.4" x2="0.1" y2="0.5" style="stroke:rgb(246,147,147);stroke-width:0.01" />
<line x1="-0.2" y1="0.4" x2="0" y2="0.5" style="stroke:rgb(246,147,147);stroke-width:0.01" />
<line x1="-0.2" y1="0.4" x2="0.2" y2="0.4" style="stroke:rgb(246,147,147);stroke-width:0.01" />
<line x1="-0.1" y1="0.5" x2="0.1" y2="0.6" style="stroke:rgb(246,147,147);stroke-width:0.01" />
<line x1="-0.2" y1="0.5" x2="0" y2="0.6" style="stroke:rgb(246,147,147);stroke-width:0.01" />
<line x1="0" y1="0.5" x2="0.2" y2="0.5" style="stroke:rgb(246,147,147);stroke-width:0.01" />
<line x1="-0.1" y1="0.6" x2="0.2" y2="0.6" style="stroke:rgb(246,147,147);stroke-width:0.01" />
</svg>
