<svg xmlns="http://www.w3.org/2000/svg" viewBox="-1.5 -1.5 3 3">
<g transform="scale(1, -1)">
<path d="M-0.457786 -0.418386 L-0.401722 -0.090387 L-0.000000 -0.000000 L-0.000000 0.000000 L-0.219512 0.975610 L-0.650407 -0.146341 z " fill="rgb(245,195,195)" />
<path d="M0.000000 0.000000 L1.000000 0.000000 L1.000000 1.000000 L0.000000 1.000000  z" fill="none" stroke="rgb(128,128,128)" stroke-width="0.01" />
<line x1="-0.457786" y1="-0.418386" x2="-0.650407" y2="-0.146341" style="stroke:rgb(246,147,147);stroke-width:0.01" />
<line x1="-1.32415e-21" y1="-2.39446e-22" x2="-3.48286e-21" y2="1.54794e-20" style="stroke:rgb(246,147,147);stroke-width:0.01" />
<line x1="-6.56993e-22" y1="-1.47823e-22" x2="-3.48286e-21" y2="1.54794e-20" style="stroke:rgb(246,147,147);stroke-width:0.01" />
<line x1="-1.32415e-21" y1="-2.39446e-22" x2="-6.56993e-22" y2="-1.47823e-22" style="stroke:rgb(246,147,147);stroke-width:0.01" />
<line x1="-0.650407" y1="-0.146341" x2="-6.56993e-22" y2="-1.47823e-22" style="stroke:rgb(246,147,147);stroke-width:0.01" />
<line x1="-3.48286e-21" y1="1.54794e-20" x2="-0.219512" y2="0.97561" style="stroke:rgb(246,147,147);stroke-width:0.01" />
<line x1="-0.457786" y1="-0.418386" x2="-0.219512" y2="0.97561" style="stroke:rgb(246,147,147);stroke-width:0.01" />
<line x1="-0.650407" y1="-0.146341" x2="-0.219512" y2="0.97561" style="stroke:rgb(246,147,147);stroke-width:0.01" />
</g>
</svg>
