<svg xmlns="http://www.w3.org/2000/svg" viewBox="-1.5 -1.5 3 3">
<g transform="scale(1, -1)">
<path d="M-0.724138 -0.689655 L0.459770 -0.482759 L0.594164 -0.177719 L0.283976 -0.298174 L0.000000 -0.000000 L-0.000000 -0.000000 z " fill="rgb(245,195,195)" />
<path d="M0.000000 0.000000 L1.000000 0.000000 L1.000000 1.000000 L0.000000 1.000000  z" fill="none" stroke="rgb(128,128,128)" stroke-width="0.01" />
<line x1="-0.724138" y1="-0.689655" x2="0.45977" y2="-0.482759" style="stroke:rgb(246,147,147);stroke-width:0.01" />
<line x1="-0.724138" y1="-0.689655" x2="0.594164" y2="-0.177719" style="stroke:rgb(246,147,147);stroke-width:0.01" />
<line x1="0.45977" y1="-0.482759" x2="0.594164" y2="-0.177719" style="stroke:rgb(246,147,147);stroke-width:0.01" />
<line x1="-1.50983e-20" y1="-1.43793e-20" x2="8.60395e-22" y2="-9.61288e-22" style="stroke:rgb(246,147,147);stroke-width:0.01" />
<line x1="-1.50983e-20" y1="-1.43793e-20" x2="4.45075e-22" y2="-4.67329e-22" style="stroke:rgb(246,147,147);stroke-width:0.01" />
<line x1="-0.724138" y1="-0.689655" x2="-1.50983e-20" y2="-1.43793e-20" style="stroke:rgb(246,147,147);stroke-width:0.01" />
<line x1="0.45977" y1="-0.482759" x2="4.45075e-22" y2="-4.67329e-22" style="stroke:rgb(246,147,147);stroke-width:0.01" />
<line x1="8.60395e-22" y1="-9.61288e-22" x2="4.45075e-22" y2="-4.67329e-22" style="stroke:rgb(246,147,147);stroke-width:0.01" />
</g>
</svg>
