<svg xmlns="http://www.w3.org/2000/svg" viewBox="-1.5 -1.5 3 3">
<g transform="scale(1, -1)">
<path d="M0.240203 -0.504330 L0.529670 -0.504330 L0.529670 0.495670 L-0.324488 0.495670 L-0.470330 0.221526 L-0.470330 0.214330 L-0.034393 -0.418537 z " fill="rgb(245,195,195)" />
<path d="M-0.470330 -0.504330 L0.529670 -0.504330 L0.529670 0.495670 L-0.470330 0.495670  z" fill="none" stroke="rgb(128,128,128)" stroke-width="0.01" />
<line x1="-0.0343929" y1="-0.418537" x2="-0.00627988" y2="0.0373161" style="stroke:rgb(246,147,147);stroke-width:0.01" />
<line x1="0.240203" y1="-0.50433" x2="0.52967" y2="-0.50433" style="stroke:rgb(246,147,147);stroke-width:0.01" />
<line x1="-0.47033" y1="0.21433" x2="-0.47033" y2="0.221526" style="stroke:rgb(246,147,147);stroke-width:0.01" />
<line x1="0.52967" y1="-0.50433" x2="0.52967" y2="0.49567" style="stroke:rgb(246,147,147);stroke-width:0.01" />
<line x1="-0.171831" y1="-0.219013" x2="-0.221846" y2="-0.0157177" style="stroke:rgb(246,147,147);stroke-width:0.01" />
<line x1="-0.47033" y1="0.221526" x2="-0.324488" y2="0.49567" style="stroke:rgb(246,147,147);stroke-width:0.01" />
<line x1="0.240203" y1="-0.50433" x2="-0.0343929" y2="-0.418537" style="stroke:rgb(246,147,147);stroke-width:0.01" />
<line x1="-0.0343929" y1="-0.418537" x2="-0.47033" y2="0.21433" style="stroke:rgb(246,147,147);stroke-width:0.01" />
<line x1="0.240203" y1="-0.50433" x2="-0.171831" y2="-0.219013" style="stroke:rgb(246,147,147);stroke-width:0.01" />
<line x1="-0.242987" y1="0.374726" x2="-0.324488" y2="0.49567" style="stroke:rgb(246,147,147);stroke-width:0.01" />
<line x1="-0.221846" y1="-0.0157177" x2="-0.00627988" y2="0.0373161" style="stroke:rgb(246,147,147);stroke-width:0.01" />
<line x1="-0.47033" y1="0.221526" x2="-0.242987" y2="0.374726" style="stroke:rgb(246,147,147);stroke-width:0.01" />
<line x1="-0.00627988" y1="0.0373161" x2="-0.47033" y2="0.21433" style="stroke:rgb(246,147,147);stroke-width:0.01" />
<line x1="-0.324488" y1="0.49567" x2="0.52967" y2="0.49567" style="stroke:rgb(246,147,147);stroke-width:0.01" />
</g>
</svg>
