<svg xmlns="http://www.w3.org/2000/svg" viewBox="-1.5 -1.5 3 3">
<g transform="scale(1, -1)">
<path d="M0.352201 -0.566038 L0.545718 -0.294630 L0.217536 -0.349612 L0.000000 -0.000000 L-0.000000 -0.000000 L-0.849057 -0.528302 z " fill="rgb(245,195,195)" />
<path d="M0.000000 0.000000 L1.000000 0.000000 L1.000000 1.000000 L0.000000 1.000000  z" fill="none" stroke="rgb(128,128,128)" stroke-width="0.01" />
<line x1="0.352201" y1="-0.566038" x2="-0.849057" y2="-0.528302" style="stroke:rgb(246,147,147);stroke-width:0.01" />
<line x1="-0.849057" y1="-0.528302" x2="0.545718" y2="-0.29463" style="stroke:rgb(246,147,147);stroke-width:0.01" />
<line x1="0.352201" y1="-0.566038" x2="0.545718" y2="-0.29463" style="stroke:rgb(246,147,147);stroke-width:0.01" />
<line x1="-1.48476e-20" y1="-9.23848e-21" x2="5.62336e-22" y2="-9.72001e-22" style="stroke:rgb(246,147,147);stroke-width:0.01" />
<line x1="-1.48476e-20" y1="-9.23848e-21" x2="2.9678e-22" y2="-4.76968e-22" style="stroke:rgb(246,147,147);stroke-width:0.01" />
<line x1="-0.849057" y1="-0.528302" x2="-1.48476e-20" y2="-9.23848e-21" style="stroke:rgb(246,147,147);stroke-width:0.01" />
<line x1="0.352201" y1="-0.566038" x2="2.9678e-22" y2="-4.76968e-22" style="stroke:rgb(246,147,147);stroke-width:0.01" />
<line x1="5.62336e-22" y1="-9.72001e-22" x2="2.9678e-22" y2="-4.76968e-22" style="stroke:rgb(246,147,147);stroke-width:0.01" />
</g>
</svg>
