<svg xmlns="http://www.w3.org/2000/svg" viewBox="-1.5 -1.5 3 3">
<g transform="scale(1, -1)">
<path d="M-0.095238 -0.571429 L0.571429 0.095238 L0.238095 0.095238 L-0.095238 0.428571 L-0.095238 0.095238 L-0.428571 0.095238 L-0.095238 -0.238095 z " fill="rgb(245,195,195)" />
<path d="M-0.428571 -0.571429 L0.571429 -0.571429 L0.571429 0.428571 L-0.428571 0.428571  z" fill="none" stroke="rgb(128,128,128)" stroke-width="0.01" />
<line x1="-0.0952381" y1="-0.571429" x2="0.571429" y2="0.0952381" style="stroke:rgb(246,147,147);stroke-width:0.01" />
<line x1="-0.0952381" y1="-0.238095" x2="0.238095" y2="0.0952381" style="stroke:rgb(246,147,147);stroke-width:0.01" />
<line x1="-0.0952381" y1="-0.571429" x2="-0.0952381" y2="0.428571" style="stroke:rgb(246,147,147);stroke-width:0.01" />
<line x1="0.238095" y1="-0.238095" x2="0.238095" y2="0.0952381" style="stroke:rgb(246,147,147);stroke-width:0.01" />
<line x1="-0.0952381" y1="-0.238095" x2="0.238095" y2="-0.238095" style="stroke:rgb(246,147,147);stroke-width:0.01" />
<line x1="-0.0952381" y1="-0.238095" x2="-0.428571" y2="0.0952381" style="stroke:rgb(246,147,147);stroke-width:0.01" />
<line x1="0.238095" y1="-0.238095" x2="-0.0952381" y2="0.0952381" style="stroke:rgb(246,147,147);stroke-width:0.01" />
<line x1="-0.428571" y1="0.0952381" x2="0.571429" y2="0.0952381" style="stroke:rgb(246,147,147);stroke-width:0.01" />
<line x1="0.238095" y1="0.0952381" x2="-0.0952381" y2="0.428571" style="stroke:rgb(246,147,147);stroke-width:0.01" />
</g>
</svg>
