<svg xmlns="http://www.w3.org/2000/svg" viewBox="-1.5 -1.5 3 3">
<g transform="scale(1, -1)">
<path d="M-0.033654 -0.221154 L0.028846 -0.221154 L0.153846 -0.096154 L0.153846 0.216346 L0.028846 0.216346 L0.028846 0.153846 L-0.033654 0.153846 L-0.158654 0.028846 L-0.158654 -0.096154 z M-0.033654 -0.096154 L-0.033654 0.028846 L0.028846 0.028846 L0.028846 -0.096154 z " fill="rgb(245,195,195)" />
<path d="M-0.158654 -0.221154 L0.841346 -0.221154 L0.841346 0.778846 L-0.158654 0.778846  z" fill="none" stroke="rgb(128,128,128)" stroke-width="0.01" />
<line x1="0.0288462" y1="-0.221154" x2="0.153846" y2="-0.0961538" style="stroke:rgb(246,147,147);stroke-width:0.01" />
<line x1="-0.0336538" y1="-0.221154" x2="0.0288462" y2="-0.221154" style="stroke:rgb(246,147,147);stroke-width:0.01" />
<line x1="-0.158654" y1="-0.0961538" x2="-0.158654" y2="0.0288462" style="stroke:rgb(246,147,147);stroke-width:0.01" />
<line x1="-0.0336538" y1="-0.221154" x2="-0.0336538" y2="0.153846" style="stroke:rgb(246,147,147);stroke-width:0.01" />
<line x1="0.0288462" y1="-0.221154" x2="0.0288462" y2="0.216346" style="stroke:rgb(246,147,147);stroke-width:0.01" />
<line x1="0.0913462" y1="0.0288462" x2="0.0913462" y2="0.153846" style="stroke:rgb(246,147,147);stroke-width:0.01" />
<line x1="0.153846" y1="-0.0961538" x2="0.153846" y2="0.216346" style="stroke:rgb(246,147,147);stroke-width:0.01" />
<line x1="-0.0336538" y1="-0.221154" x2="-0.158654" y2="-0.0961538" style="stroke:rgb(246,147,147);stroke-width:0.01" />
<line x1="-0.158654" y1="0.0288462" x2="-0.0336538" y2="0.153846" style="stroke:rgb(246,147,147);stroke-width:0.01" />
<line x1="-0.158654" y1="-0.0961538" x2="0.153846" y2="-0.0961538" style="stroke:rgb(246,147,147);stroke-width:0.01" />
<line x1="-0.158654" y1="0.0288462" x2="0.0913462" y2="0.0288462" style="stroke:rgb(246,147,147);stroke-width:0.01" />
<line x1="-0.0336538" y1="0.153846" x2="0.0913462" y2="0.153846" style="stroke:rgb(246,147,147);stroke-width:0.01" />
<line x1="0.0288462" y1="0.216346" x2="0.153846" y2="0.216346" style="stroke:rgb(246,147,147);stroke-width:0.01" />
</g>
</svg>
