<svg xmlns="http://www.w3.org/2000/svg" viewBox="-1.5 -1.5 3 3">
<g transform="scale(1, -1)">
<path d="M0.187500 -0.437500 L0.312500 -0.437500 L0.312500 -0.125000 L0.187500 0.000000 L0.125000 0.000000 L0.000000 -0.125000 L0.000000 -0.250000 L0.125000 -0.375000 L0.187500 -0.375000 z M0.125000 -0.250000 L0.125000 -0.125000 L0.187500 -0.125000 L0.187500 -0.250000 z " fill="rgb(245,195,195)" />
<path d="M0.000000 0.000000 L1.000000 0.000000 L1.000000 1.000000 L0.000000 1.000000  z" fill="none" stroke="rgb(128,128,128)" stroke-width="0.01" />
<line x1="0.1875" y1="-0.4375" x2="0.3125" y2="-0.4375" style="stroke:rgb(246,147,147);stroke-width:0.01" />
<line x1="0.125" y1="-0.375" x2="0.25" y2="-0.375" style="stroke:rgb(246,147,147);stroke-width:0.01" />
<line x1="0" y1="-0.25" x2="0.25" y2="-0.25" style="stroke:rgb(246,147,147);stroke-width:0.01" />
<line x1="0.125" y1="-0.375" x2="0" y2="-0.25" style="stroke:rgb(246,147,147);stroke-width:0.01" />
<line x1="0" y1="-0.125" x2="0.3125" y2="-0.125" style="stroke:rgb(246,147,147);stroke-width:0.01" />
<line x1="0" y1="-0.125" x2="0.125" y2="0" style="stroke:rgb(246,147,147);stroke-width:0.01" />
<line x1="0.125" y1="0" x2="0.1875" y2="0" style="stroke:rgb(246,147,147);stroke-width:0.01" />
<line x1="0" y1="-0.25" x2="0" y2="-0.125" style="stroke:rgb(246,147,147);stroke-width:0.01" />
<line x1="0.125" y1="-0.375" x2="0.125" y2="0" style="stroke:rgb(246,147,147);stroke-width:0.01" />
<line x1="0.1875" y1="-0.4375" x2="0.1875" y2="0" style="stroke:rgb(246,147,147);stroke-width:0.01" />
<line x1="0.25" y1="-0.375" x2="0.25" y2="-0.25" style="stroke:rgb(246,147,147);stroke-width:0.01" />
<line x1="0.3125" y1="-0.4375" x2="0.3125" y2="-0.125" style="stroke:rgb(246,147,147);stroke-width:0.01" />
<line x1="0.3125" y1="-0.125" x2="0.1875" y2="0" style="stroke:rgb(246,147,147);stroke-width:0.01" />
</g>
</svg>
