<svg xmlns="http://www.w3.org/2000/svg" viewBox="-1.5 -1.5 3 3">
<g transform="scale(1, -1)">
<path d="M0.423077 0.307692 L0.500000 0.346154 L0.500000 0.458333 L0.595385 0.486154 L0.610769 0.570769 L0.487692 0.663077 L0.410769 0.624615 L0.410769 0.512436 L0.315385 0.484615 L0.300000 0.400000 z M0.423077 0.403846 L0.392308 0.426923 L0.423077 0.435897 z M0.487692 0.534872 L0.487692 0.566923 L0.518462 0.543846 z " fill="rgb(245,195,195)" />
<path d="M0.000000 0.000000 L1.000000 0.000000 L1.000000 1.000000 L0.000000 1.000000  z" fill="none" stroke="rgb(128,128,128)" stroke-width="0.01" />
<line x1="0.595385" y1="0.486154" x2="0.610769" y2="0.570769" style="stroke:rgb(246,147,147);stroke-width:0.01" />
<line x1="0.3" y1="0.4" x2="0.315385" y2="0.484615" style="stroke:rgb(246,147,147);stroke-width:0.01" />
<line x1="0.410769" y1="0.509231" x2="0.410769" y2="0.624615" style="stroke:rgb(246,147,147);stroke-width:0.01" />
<line x1="0.423077" y1="0.307692" x2="0.423077" y2="0.5" style="stroke:rgb(246,147,147);stroke-width:0.01" />
<line x1="0.487692" y1="0.509231" x2="0.487692" y2="0.663077" style="stroke:rgb(246,147,147);stroke-width:0.01" />
<line x1="0.5" y1="0.346154" x2="0.5" y2="0.5" style="stroke:rgb(246,147,147);stroke-width:0.01" />
<line x1="0.423077" y1="0.307692" x2="0.5" y2="0.346154" style="stroke:rgb(246,147,147);stroke-width:0.01" />
<line x1="0.3" y1="0.4" x2="0.595385" y2="0.486154" style="stroke:rgb(246,147,147);stroke-width:0.01" />
<line x1="0.410769" y1="0.624615" x2="0.487692" y2="0.663077" style="stroke:rgb(246,147,147);stroke-width:0.01" />
<line x1="0.315385" y1="0.484615" x2="0.610769" y2="0.570769" style="stroke:rgb(246,147,147);stroke-width:0.01" />
<line x1="0.423077" y1="0.307692" x2="0.3" y2="0.4" style="stroke:rgb(246,147,147);stroke-width:0.01" />
<line x1="0.5" y1="0.346154" x2="0.315385" y2="0.484615" style="stroke:rgb(246,147,147);stroke-width:0.01" />
<line x1="0.423077" y1="0.5" x2="0.5" y2="0.5" style="stroke:rgb(246,147,147);stroke-width:0.01" />
<line x1="0.410769" y1="0.509231" x2="0.487692" y2="0.509231" style="stroke:rgb(246,147,147);stroke-width:0.01" />
<line x1="0.595385" y1="0.486154" x2="0.410769" y2="0.624615" style="stroke:rgb(246,147,147);stroke-width:0.01" />
<line x1="0.610769" y1="0.570769" x2="0.487692" y2="0.663077" style="stroke:rgb(246,147,147);stroke-width:0.01" />
</g>
</svg>
