<svg xmlns="http://www.w3.org/2000/svg" viewBox="-1.5 -1.5 3 3">
<g transform="scale(1, -1)">
<path d="M-0.032308 -0.177692 L0.044615 -0.139231 L0.044615 -0.027051 L0.140000 0.000769 L0.155385 0.085385 L0.032308 0.177692 L-0.044615 0.139231 L-0.044615 0.027051 L-0.140000 -0.000769 L-0.155385 -0.085385 z M-0.032308 -0.081538 L-0.063077 -0.058462 L-0.032308 -0.049487 z M0.032308 0.049487 L0.032308 0.081538 L0.063077 0.058462 z " fill="rgb(245,195,195)" />
<path d="M-0.455385 -0.485385 L0.544615 -0.485385 L0.544615 0.514615 L-0.455385 0.514615  z" fill="none" stroke="rgb(128,128,128)" stroke-width="0.01" />
<line x1="0.14" y1="0.000769231" x2="0.155385" y2="0.0853846" style="stroke:rgb(246,147,147);stroke-width:0.01" />
<line x1="-0.155385" y1="-0.0853846" x2="-0.14" y2="-0.000769231" style="stroke:rgb(246,147,147);stroke-width:0.01" />
<line x1="-0.0446154" y1="0.0238462" x2="-0.0446154" y2="0.139231" style="stroke:rgb(246,147,147);stroke-width:0.01" />
<line x1="-0.0323077" y1="-0.177692" x2="-0.0323077" y2="0.0146154" style="stroke:rgb(246,147,147);stroke-width:0.01" />
<line x1="0.0323077" y1="0.0238462" x2="0.0323077" y2="0.177692" style="stroke:rgb(246,147,147);stroke-width:0.01" />
<line x1="0.0446154" y1="-0.139231" x2="0.0446154" y2="0.0146154" style="stroke:rgb(246,147,147);stroke-width:0.01" />
<line x1="-0.0323077" y1="-0.177692" x2="0.0446154" y2="-0.139231" style="stroke:rgb(246,147,147);stroke-width:0.01" />
<line x1="-0.155385" y1="-0.0853846" x2="0.14" y2="0.000769231" style="stroke:rgb(246,147,147);stroke-width:0.01" />
<line x1="-0.0446154" y1="0.139231" x2="0.0323077" y2="0.177692" style="stroke:rgb(246,147,147);stroke-width:0.01" />
<line x1="-0.14" y1="-0.000769231" x2="0.155385" y2="0.0853846" style="stroke:rgb(246,147,147);stroke-width:0.01" />
<line x1="-0.0323077" y1="-0.177692" x2="-0.155385" y2="-0.0853846" style="stroke:rgb(246,147,147);stroke-width:0.01" />
<line x1="0.0446154" y1="-0.139231" x2="-0.14" y2="-0.000769231" style="stroke:rgb(246,147,147);stroke-width:0.01" />
<line x1="-0.0323077" y1="0.0146154" x2="0.0446154" y2="0.0146154" style="stroke:rgb(246,147,147);stroke-width:0.01" />
<line x1="-0.0446154" y1="0.0238462" x2="0.0323077" y2="0.0238462" style="stroke:rgb(246,147,147);stroke-width:0.01" />
<line x1="0.14" y1="0.000769231" x2="-0.0446154" y2="0.139231" style="stroke:rgb(246,147,147);stroke-width:0.01" />
<line x1="0.155385" y1="0.0853846" x2="0.0323077" y2="0.177692" style="stroke:rgb(246,147,147);stroke-width:0.01" />
</g>
</svg>
