<svg xmlns="http://www.w3.org/2000/svg" viewBox="-1.5 -1.5 3 3">
<g transform="scale(1, -1)">
<path d="M0.576923 0.307692 L0.700000 0.400000 L0.684615 0.484615 L0.589231 0.512436 L0.589231 0.624615 L0.512308 0.663077 L0.389231 0.570769 L0.404615 0.486154 L0.500000 0.458333 L0.500000 0.346154 z M0.576923 0.403846 L0.576923 0.435897 L0.607692 0.426923 z M0.512308 0.534872 L0.481538 0.543846 L0.512308 0.566923 z " fill="rgb(245,195,195)" />
<path d="M0.000000 0.000000 L1.000000 0.000000 L1.000000 1.000000 L0.000000 1.000000  z" fill="none" stroke="rgb(128,128,128)" stroke-width="0.01" />
<line x1="0.576923" y1="0.307692" x2="0.7" y2="0.4" style="stroke:rgb(246,147,147);stroke-width:0.01" />
<line x1="0.5" y1="0.346154" x2="0.684615" y2="0.484615" style="stroke:rgb(246,147,147);stroke-width:0.01" />
<line x1="0.5" y1="0.346154" x2="0.5" y2="0.5" style="stroke:rgb(246,147,147);stroke-width:0.01" />
<line x1="0.512308" y1="0.509231" x2="0.512308" y2="0.663077" style="stroke:rgb(246,147,147);stroke-width:0.01" />
<line x1="0.576923" y1="0.307692" x2="0.576923" y2="0.5" style="stroke:rgb(246,147,147);stroke-width:0.01" />
<line x1="0.589231" y1="0.509231" x2="0.589231" y2="0.624615" style="stroke:rgb(246,147,147);stroke-width:0.01" />
<line x1="0.404615" y1="0.486154" x2="0.389231" y2="0.570769" style="stroke:rgb(246,147,147);stroke-width:0.01" />
<line x1="0.404615" y1="0.486154" x2="0.589231" y2="0.624615" style="stroke:rgb(246,147,147);stroke-width:0.01" />
<line x1="0.7" y1="0.4" x2="0.684615" y2="0.484615" style="stroke:rgb(246,147,147);stroke-width:0.01" />
<line x1="0.389231" y1="0.570769" x2="0.512308" y2="0.663077" style="stroke:rgb(246,147,147);stroke-width:0.01" />
<line x1="0.576923" y1="0.307692" x2="0.5" y2="0.346154" style="stroke:rgb(246,147,147);stroke-width:0.01" />
<line x1="0.5" y1="0.5" x2="0.576923" y2="0.5" style="stroke:rgb(246,147,147);stroke-width:0.01" />
<line x1="0.512308" y1="0.509231" x2="0.589231" y2="0.509231" style="stroke:rgb(246,147,147);stroke-width:0.01" />
<line x1="0.7" y1="0.4" x2="0.404615" y2="0.486154" style="stroke:rgb(246,147,147);stroke-width:0.01" />
<line x1="0.684615" y1="0.484615" x2="0.389231" y2="0.570769" style="stroke:rgb(246,147,147);stroke-width:0.01" />
<line x1="0.589231" y1="0.624615" x2="0.512308" y2="0.663077" style="stroke:rgb(246,147,147);stroke-width:0.01" />
</g>
</svg>
