<svg xmlns="http://www.w3.org/2000/svg" viewBox="-1.5 -1.5 3 3">
<g transform="scale(1, -1)">
<path d="M-0.062500 -0.187500 L0.062500 -0.187500 L0.187500 -0.062500 L0.187500 0.062500 L0.062500 0.187500 L-0.062500 0.187500 L-0.187500 0.062500 L-0.187500 -0.062500 z M-0.062500 -0.062500 L-0.062500 0.062500 L0.062500 0.062500 L0.062500 -0.062500 z " fill="rgb(245,195,195)" />
<path d="M-0.187500 -0.187500 L0.812500 -0.187500 L0.812500 0.812500 L-0.187500 0.812500  z" fill="none" stroke="rgb(128,128,128)" stroke-width="0.01" />
<line x1="0.0625" y1="-0.1875" x2="0.1875" y2="-0.0625" style="stroke:rgb(246,147,147);stroke-width:0.01" />
<line x1="-0.0625" y1="-0.1875" x2="0.0625" y2="-0.1875" style="stroke:rgb(246,147,147);stroke-width:0.01" />
<line x1="-0.1875" y1="-0.0625" x2="-0.1875" y2="0.0625" style="stroke:rgb(246,147,147);stroke-width:0.01" />
<line x1="-0.0625" y1="-0.1875" x2="-0.0625" y2="0.1875" style="stroke:rgb(246,147,147);stroke-width:0.01" />
<line x1="0.0625" y1="-0.1875" x2="0.0625" y2="0.1875" style="stroke:rgb(246,147,147);stroke-width:0.01" />
<line x1="0.1875" y1="-0.0625" x2="0.1875" y2="0.0625" style="stroke:rgb(246,147,147);stroke-width:0.01" />
<line x1="-0.0625" y1="-0.1875" x2="-0.1875" y2="-0.0625" style="stroke:rgb(246,147,147);stroke-width:0.01" />
<line x1="-0.1875" y1="0.0625" x2="-0.0625" y2="0.1875" style="stroke:rgb(246,147,147);stroke-width:0.01" />
<line x1="-0.1875" y1="-0.0625" x2="0.1875" y2="-0.0625" style="stroke:rgb(246,147,147);stroke-width:0.01" />
<line x1="-0.1875" y1="0.0625" x2="0.1875" y2="0.0625" style="stroke:rgb(246,147,147);stroke-width:0.01" />
<line x1="0.1875" y1="0.0625" x2="0.0625" y2="0.1875" style="stroke:rgb(246,147,147);stroke-width:0.01" />
<line x1="-0.0625" y1="0.1875" x2="0.0625" y2="0.1875" style="stroke:rgb(246,147,147);stroke-width:0.01" />
</g>
</svg>
