<svg xmlns="http://www.w3.org/2000/svg" viewBox="-1.5 -1.5 3 3">
<g transform="scale(1, -1)">
<path d="M0.570769 0.389231 L0.663077 0.512308 L0.624615 0.589231 L0.512436 0.589231 L0.484615 0.684615 L0.400000 0.700000 L0.307692 0.576923 L0.346154 0.500000 L0.458333 0.500000 L0.486154 0.404615 z M0.543846 0.481538 L0.534872 0.512308 L0.566923 0.512308 z M0.403846 0.576923 L0.426923 0.607692 L0.435897 0.576923 z " fill="rgb(245,195,195)" />
<path d="M0.000000 0.000000 L1.000000 0.000000 L1.000000 1.000000 L0.000000 1.000000  z" fill="none" stroke="rgb(128,128,128)" stroke-width="0.01" />
<line x1="0.570769" y1="0.389231" x2="0.663077" y2="0.512308" style="stroke:rgb(246,147,147);stroke-width:0.01" />
<line x1="0.486154" y1="0.404615" x2="0.624615" y2="0.589231" style="stroke:rgb(246,147,147);stroke-width:0.01" />
<line x1="0.5" y1="0.5" x2="0.5" y2="0.576923" style="stroke:rgb(246,147,147);stroke-width:0.01" />
<line x1="0.509231" y1="0.512308" x2="0.509231" y2="0.589231" style="stroke:rgb(246,147,147);stroke-width:0.01" />
<line x1="0.346154" y1="0.5" x2="0.484615" y2="0.684615" style="stroke:rgb(246,147,147);stroke-width:0.01" />
<line x1="0.307692" y1="0.576923" x2="0.4" y2="0.7" style="stroke:rgb(246,147,147);stroke-width:0.01" />
<line x1="0.486154" y1="0.404615" x2="0.4" y2="0.7" style="stroke:rgb(246,147,147);stroke-width:0.01" />
<line x1="0.570769" y1="0.389231" x2="0.484615" y2="0.684615" style="stroke:rgb(246,147,147);stroke-width:0.01" />
<line x1="0.346154" y1="0.5" x2="0.307692" y2="0.576923" style="stroke:rgb(246,147,147);stroke-width:0.01" />
<line x1="0.663077" y1="0.512308" x2="0.624615" y2="0.589231" style="stroke:rgb(246,147,147);stroke-width:0.01" />
<line x1="0.570769" y1="0.389231" x2="0.486154" y2="0.404615" style="stroke:rgb(246,147,147);stroke-width:0.01" />
<line x1="0.346154" y1="0.5" x2="0.5" y2="0.5" style="stroke:rgb(246,147,147);stroke-width:0.01" />
<line x1="0.509231" y1="0.512308" x2="0.663077" y2="0.512308" style="stroke:rgb(246,147,147);stroke-width:0.01" />
<line x1="0.307692" y1="0.576923" x2="0.5" y2="0.576923" style="stroke:rgb(246,147,147);stroke-width:0.01" />
<line x1="0.509231" y1="0.589231" x2="0.624615" y2="0.589231" style="stroke:rgb(246,147,147);stroke-width:0.01" />
<line x1="0.484615" y1="0.684615" x2="0.4" y2="0.7" style="stroke:rgb(246,147,147);stroke-width:0.01" />
</g>
</svg>
