<svg xmlns="http://www.w3.org/2000/svg" viewBox="-1.5 -1.5 3 3">
<g transform="scale(1, -1)">
<path d="M0.085385 -0.155385 L0.177692 -0.032308 L0.139231 0.044615 L0.027051 0.044615 L-0.000769 0.140000 L-0.085385 0.155385 L-0.177692 0.032308 L-0.139231 -0.044615 L-0.027051 -0.044615 L0.000769 -0.140000 z M0.058462 -0.063077 L0.049487 -0.032308 L0.081538 -0.032308 z M-0.081538 0.032308 L-0.058462 0.063077 L-0.049487 0.032308 z " fill="rgb(245,195,195)" />
<path d="M-0.485385 -0.544615 L0.514615 -0.544615 L0.514615 0.455385 L-0.485385 0.455385  z" fill="none" stroke="rgb(128,128,128)" stroke-width="0.01" />
<line x1="0.0853846" y1="-0.155385" x2="0.177692" y2="-0.0323077" style="stroke:rgb(246,147,147);stroke-width:0.01" />
<line x1="0.000769231" y1="-0.14" x2="0.139231" y2="0.0446154" style="stroke:rgb(246,147,147);stroke-width:0.01" />
<line x1="0.0146154" y1="-0.0446154" x2="0.0146154" y2="0.0323077" style="stroke:rgb(246,147,147);stroke-width:0.01" />
<line x1="0.0238462" y1="-0.0323077" x2="0.0238462" y2="0.0446154" style="stroke:rgb(246,147,147);stroke-width:0.01" />
<line x1="-0.139231" y1="-0.0446154" x2="-0.000769231" y2="0.14" style="stroke:rgb(246,147,147);stroke-width:0.01" />
<line x1="-0.177692" y1="0.0323077" x2="-0.0853846" y2="0.155385" style="stroke:rgb(246,147,147);stroke-width:0.01" />
<line x1="0.000769231" y1="-0.14" x2="-0.0853846" y2="0.155385" style="stroke:rgb(246,147,147);stroke-width:0.01" />
<line x1="0.0853846" y1="-0.155385" x2="-0.000769231" y2="0.14" style="stroke:rgb(246,147,147);stroke-width:0.01" />
<line x1="-0.139231" y1="-0.0446154" x2="-0.177692" y2="0.0323077" style="stroke:rgb(246,147,147);stroke-width:0.01" />
<line x1="0.177692" y1="-0.0323077" x2="0.139231" y2="0.0446154" style="stroke:rgb(246,147,147);stroke-width:0.01" />
<line x1="0.0853846" y1="-0.155385" x2="0.000769231" y2="-0.14" style="stroke:rgb(246,147,147);stroke-width:0.01" />
<line x1="-0.139231" y1="-0.0446154" x2="0.0146154" y2="-0.0446154" style="stroke:rgb(246,147,147);stroke-width:0.01" />
<line x1="0.0238462" y1="-0.0323077" x2="0.177692" y2="-0.0323077" style="stroke:rgb(246,147,147);stroke-width:0.01" />
<line x1="-0.177692" y1="0.0323077" x2="0.0146154" y2="0.0323077" style="stroke:rgb(246,147,147);stroke-width:0.01" />
<line x1="0.0238462" y1="0.0446154" x2="0.139231" y2="0.0446154" style="stroke:rgb(246,147,147);stroke-width:0.01" />
<line x1="-0.000769231" y1="0.14" x2="-0.0853846" y2="0.155385" style="stroke:rgb(246,147,147);stroke-width:0.01" />
</g>
</svg>
