<svg xmlns="http://www.w3.org/2000/svg" viewBox="-1.5 -1.5 3 3">
<g transform="scale(1, -1)">
<path d="M0.400000 0.300000 L0.484615 0.315385 L0.512436 0.410769 L0.624615 0.410769 L0.663077 0.487692 L0.570769 0.610769 L0.486154 0.595385 L0.458333 0.500000 L0.346154 0.500000 L0.307692 0.423077 z M0.426923 0.392308 L0.403846 0.423077 L0.435897 0.423077 z M0.534872 0.487692 L0.543846 0.518462 L0.566923 0.487692 z " fill="rgb(245,195,195)" />
<path d="M0.000000 0.000000 L1.000000 0.000000 L1.000000 1.000000 L0.000000 1.000000  z" fill="none" stroke="rgb(128,128,128)" stroke-width="0.01" />
<line x1="0.624615" y1="0.410769" x2="0.663077" y2="0.487692" style="stroke:rgb(246,147,147);stroke-width:0.01" />
<line x1="0.484615" y1="0.315385" x2="0.570769" y2="0.610769" style="stroke:rgb(246,147,147);stroke-width:0.01" />
<line x1="0.4" y1="0.3" x2="0.486154" y2="0.595385" style="stroke:rgb(246,147,147);stroke-width:0.01" />
<line x1="0.307692" y1="0.423077" x2="0.346154" y2="0.5" style="stroke:rgb(246,147,147);stroke-width:0.01" />
<line x1="0.5" y1="0.423077" x2="0.5" y2="0.5" style="stroke:rgb(246,147,147);stroke-width:0.01" />
<line x1="0.509231" y1="0.410769" x2="0.509231" y2="0.487692" style="stroke:rgb(246,147,147);stroke-width:0.01" />
<line x1="0.4" y1="0.3" x2="0.484615" y2="0.315385" style="stroke:rgb(246,147,147);stroke-width:0.01" />
<line x1="0.4" y1="0.3" x2="0.307692" y2="0.423077" style="stroke:rgb(246,147,147);stroke-width:0.01" />
<line x1="0.484615" y1="0.315385" x2="0.346154" y2="0.5" style="stroke:rgb(246,147,147);stroke-width:0.01" />
<line x1="0.509231" y1="0.410769" x2="0.624615" y2="0.410769" style="stroke:rgb(246,147,147);stroke-width:0.01" />
<line x1="0.307692" y1="0.423077" x2="0.5" y2="0.423077" style="stroke:rgb(246,147,147);stroke-width:0.01" />
<line x1="0.624615" y1="0.410769" x2="0.486154" y2="0.595385" style="stroke:rgb(246,147,147);stroke-width:0.01" />
<line x1="0.509231" y1="0.487692" x2="0.663077" y2="0.487692" style="stroke:rgb(246,147,147);stroke-width:0.01" />
<line x1="0.486154" y1="0.595385" x2="0.570769" y2="0.610769" style="stroke:rgb(246,147,147);stroke-width:0.01" />
<line x1="0.663077" y1="0.487692" x2="0.570769" y2="0.610769" style="stroke:rgb(246,147,147);stroke-width:0.01" />
<line x1="0.346154" y1="0.5" x2="0.5" y2="0.5" style="stroke:rgb(246,147,147);stroke-width:0.01" />
</g>
</svg>
