<svg xmlns="http://www.w3.org/2000/svg" viewBox="-1.5 -1.5 3 3">
<g transform="scale(1, -1)">
<path d="M-0.047500 -0.500000 L0.202500 -0.500000 L0.452500 0.000000 L0.202500 0.500000 L-0.047500 0.500000 L-0.047500 0.250000 L-0.247500 0.100000 L-0.172500 0.000000 L-0.247500 -0.100000 L-0.047500 -0.250000 z " fill="rgb(245,195,195)" />
<path d="M-0.047500 -0.500000 L0.952500 -0.500000 L0.952500 0.500000 L-0.047500 0.500000  z" fill="none" stroke="rgb(128,128,128)" stroke-width="0.01" />
<line x1="0.2025" y1="-0.5" x2="0.4525" y2="0" style="stroke:rgb(246,147,147);stroke-width:0.01" />
<line x1="-0.0475" y1="-0.5" x2="0.2025" y2="-0.5" style="stroke:rgb(246,147,147);stroke-width:0.01" />
<line x1="-0.0475" y1="-0.5" x2="-0.0475" y2="0.5" style="stroke:rgb(246,147,147);stroke-width:0.01" />
<line x1="0.2025" y1="-0.5" x2="-0.2475" y2="0.1" style="stroke:rgb(246,147,147);stroke-width:0.01" />
<line x1="-0.0475" y1="-0.25" x2="-0.2475" y2="-0.1" style="stroke:rgb(246,147,147);stroke-width:0.01" />
<line x1="-0.0475" y1="-0.25" x2="0.4525" y2="0" style="stroke:rgb(246,147,147);stroke-width:0.01" />
<line x1="-0.2475" y1="-0.1" x2="0.2025" y2="0.5" style="stroke:rgb(246,147,147);stroke-width:0.01" />
<line x1="0.4525" y1="0" x2="0.2025" y2="0.5" style="stroke:rgb(246,147,147);stroke-width:0.01" />
<line x1="-0.2475" y1="0.1" x2="-0.0475" y2="0.25" style="stroke:rgb(246,147,147);stroke-width:0.01" />
<line x1="-0.0475" y1="0" x2="0.4525" y2="0" style="stroke:rgb(246,147,147);stroke-width:0.01" />
<line x1="0.4525" y1="0" x2="-0.0475" y2="0.25" style="stroke:rgb(246,147,147);stroke-width:0.01" />
<line x1="-0.0475" y1="0.5" x2="0.2025" y2="0.5" style="stroke:rgb(246,147,147);stroke-width:0.01" />
</g>
</svg>
