<svg xmlns="http://www.w3.org/2000/svg" viewBox="-1.5 -1.5 3 3">
<g transform="scale(1, -1)">
<path d="M-0.050000 -0.350000 L-0.025000 -0.175000 L0.175000 -0.025000 L0.350000 -0.050000 L0.050000 0.350000 L0.025000 0.175000 L-0.175000 0.025000 L-0.350000 0.050000 z " fill="rgb(245,195,195)" />
<path d="M-0.500000 0.250000 L0.500000 0.250000 L0.500000 1.250000 L-0.500000 1.250000  z" fill="none" stroke="rgb(128,128,128)" stroke-width="0.01" />
<line x1="-0.125" y1="-0.25" x2="0.275" y2="0.05" style="stroke:rgb(246,147,147);stroke-width:0.01" />
<line x1="-0.2" y1="-0.15" x2="0.2" y2="0.15" style="stroke:rgb(246,147,147);stroke-width:0.01" />
<line x1="-0.025" y1="-0.175" x2="-0.2" y2="-0.15" style="stroke:rgb(246,147,147);stroke-width:0.01" />
<line x1="-0.275" y1="-0.05" x2="0.125" y2="0.25" style="stroke:rgb(246,147,147);stroke-width:0.01" />
<line x1="0.35" y1="-0.05" x2="-0.35" y2="0.05" style="stroke:rgb(246,147,147);stroke-width:0.01" />
<line x1="0.175" y1="-0.025" x2="0.2" y2="0.15" style="stroke:rgb(246,147,147);stroke-width:0.01" />
<line x1="-0.05" y1="-0.35" x2="0.05" y2="0.35" style="stroke:rgb(246,147,147);stroke-width:0.01" />
<line x1="-0.2" y1="-0.15" x2="-0.175" y2="0.025" style="stroke:rgb(246,147,147);stroke-width:0.01" />
<line x1="-0.05" y1="-0.35" x2="-0.35" y2="0.05" style="stroke:rgb(246,147,147);stroke-width:0.01" />
<line x1="0.2" y1="0.15" x2="0.025" y2="0.175" style="stroke:rgb(246,147,147);stroke-width:0.01" />
<line x1="0.075" y1="-0.1" x2="-0.075" y2="0.1" style="stroke:rgb(246,147,147);stroke-width:0.01" />
<line x1="0.35" y1="-0.05" x2="0.05" y2="0.35" style="stroke:rgb(246,147,147);stroke-width:0.01" />
</g>
</svg>
