<svg xmlns="http://www.w3.org/2000/svg" viewBox="-1.5 -1.5 3 3">
<g transform="scale(1, -1)">
<path d="M0.680000 -1.240000 L0.990000 -1.070000 L1.060000 -0.830000 L1.300000 -0.900000 L1.130000 -0.590000 L0.890000 -0.520000 L0.960000 -0.280000 L0.650000 -0.450000 L0.580000 -0.690000 L0.340000 -0.620000 L0.510000 -0.930000 L0.750000 -1.000000 z " fill="rgb(245,195,195)" />
<path d="M0.000000 0.000000 L1.000000 0.000000 L1.000000 1.000000 L0.000000 1.000000  z" fill="none" stroke="rgb(128,128,128)" stroke-width="0.01" />
<line x1="0.68" y1="-1.24" x2="0.99" y2="-1.07" style="stroke:rgb(246,147,147);stroke-width:0.01" />
<line x1="0.51" y1="-0.93" x2="1.13" y2="-0.59" style="stroke:rgb(246,147,147);stroke-width:0.01" />
<line x1="0.99" y1="-1.07" x2="0.51" y2="-0.93" style="stroke:rgb(246,147,147);stroke-width:0.01" />
<line x1="0.65" y1="-0.45" x2="0.96" y2="-0.28" style="stroke:rgb(246,147,147);stroke-width:0.01" />
<line x1="1.3" y1="-0.9" x2="0.34" y2="-0.62" style="stroke:rgb(246,147,147);stroke-width:0.01" />
<line x1="0.99" y1="-1.07" x2="1.13" y2="-0.59" style="stroke:rgb(246,147,147);stroke-width:0.01" />
<line x1="0.68" y1="-1.24" x2="0.96" y2="-0.28" style="stroke:rgb(246,147,147);stroke-width:0.01" />
<line x1="1.13" y1="-0.59" x2="0.65" y2="-0.45" style="stroke:rgb(246,147,147);stroke-width:0.01" />
<line x1="0.51" y1="-0.93" x2="0.65" y2="-0.45" style="stroke:rgb(246,147,147);stroke-width:0.01" />
<line x1="0.51" y1="-0.93" x2="0.34" y2="-0.62" style="stroke:rgb(246,147,147);stroke-width:0.01" />
<line x1="0.99" y1="-1.07" x2="0.65" y2="-0.45" style="stroke:rgb(246,147,147);stroke-width:0.01" />
<line x1="1.3" y1="-0.9" x2="1.13" y2="-0.59" style="stroke:rgb(246,147,147);stroke-width:0.01" />
</g>
</svg>
