<svg xmlns="http://www.w3.org/2000/svg" viewBox="-1.5 -1.5 3 3">
<g transform="scale(1, -1)">
<path d="M0.625019 0.191014 L0.963052 0.553766 L1.000000 0.560976 L1.000000 1.000000 L0.000000 1.000000 L0.000000 0.760668 L-0.137536 0.704871 L0.000000 0.365854 L0.361665 0.436422 z " fill="rgb(245,195,195)" />
<path d="M0.000000 0.000000 L1.000000 0.000000 L1.000000 1.000000 L0.000000 1.000000  z" fill="none" stroke="rgb(128,128,128)" stroke-width="0.01" />
<line x1="0.625019" y1="0.191014" x2="0.990831" y2="0.583577" style="stroke:rgb(246,147,147);stroke-width:0.01" />
<line x1="0" y1="0.365854" x2="0" y2="1" style="stroke:rgb(246,147,147);stroke-width:0.01" />
<line x1="1" y1="0.560976" x2="1" y2="1" style="stroke:rgb(246,147,147);stroke-width:0.01" />
<line x1="0" y1="0.365854" x2="-0.137536" y2="0.704871" style="stroke:rgb(246,147,147);stroke-width:0.01" />
<line x1="0" y1="0.365854" x2="1" y2="0.560976" style="stroke:rgb(246,147,147);stroke-width:0.01" />
<line x1="0.625019" y1="0.191014" x2="0.0095511" y2="0.764543" style="stroke:rgb(246,147,147);stroke-width:0.01" />
<line x1="1" y1="0.560976" x2="0.990831" y2="0.583577" style="stroke:rgb(246,147,147);stroke-width:0.01" />
<line x1="-0.137536" y1="0.704871" x2="0.0095511" y2="0.764543" style="stroke:rgb(246,147,147);stroke-width:0.01" />
<line x1="0.990831" y1="0.583577" x2="0.0095511" y2="0.764543" style="stroke:rgb(246,147,147);stroke-width:0.01" />
<line x1="0" y1="1" x2="1" y2="1" style="stroke:rgb(246,147,147);stroke-width:0.01" />
</g>
</svg>
