<svg xmlns="http://www.w3.org/2000/svg" viewBox="-1.5 -1.5 3 3">
<g transform="scale(1, -1)">
<path d="M-0.665598 -0.271720 L0.234402 -0.271720 L0.234402 -0.251312 L0.313994 -0.251312 L0.313994 0.648688 L0.234402 0.648688 L-0.665598 -0.251312 z " fill="rgb(245,195,195)" />
<path d="M-0.665598 -0.271720 L0.334402 -0.271720 L0.334402 0.728280 L-0.665598 0.728280  z" fill="none" stroke="rgb(128,128,128)" stroke-width="0.01" />
<line x1="-0.665598" y1="-0.27172" x2="0.234402" y2="-0.27172" style="stroke:rgb(246,147,147);stroke-width:0.01" />
<line x1="-0.665598" y1="-0.27172" x2="-0.665598" y2="-0.251312" style="stroke:rgb(246,147,147);stroke-width:0.01" />
<line x1="0.134402" y1="-0.27172" x2="0.134402" y2="0.548688" style="stroke:rgb(246,147,147);stroke-width:0.01" />
<line x1="0.234402" y1="-0.27172" x2="0.234402" y2="0.648688" style="stroke:rgb(246,147,147);stroke-width:0.01" />
<line x1="0.313994" y1="-0.251312" x2="0.313994" y2="0.648688" style="stroke:rgb(246,147,147);stroke-width:0.01" />
<line x1="-0.665598" y1="-0.251312" x2="0.234402" y2="0.648688" style="stroke:rgb(246,147,147);stroke-width:0.01" />
<line x1="-0.665598" y1="-0.251312" x2="0.313994" y2="-0.251312" style="stroke:rgb(246,147,147);stroke-width:0.01" />
<line x1="0.134402" y1="0.548688" x2="0.313994" y2="0.548688" style="stroke:rgb(246,147,147);stroke-width:0.01" />
<line x1="0.234402" y1="0.648688" x2="0.313994" y2="0.648688" style="stroke:rgb(246,147,147);stroke-width:0.01" />
</g>
</svg>
