<svg xmlns="http://www.w3.org/2000/svg" viewBox="-1.5 -1.5 3 3">
<g transform="scale(1, -1)">
<path d="M0.192308 -0.461538 L0.326923 -0.134615 L0.230769 0.096154 L0.461538 0.192308 L0.134615 0.326923 L-0.096154 0.230769 L-0.192308 0.461538 L-0.326923 0.134615 L-0.230769 -0.096154 L-0.461538 -0.192308 L-0.134615 -0.326923 L0.096154 -0.230769 z " fill="rgb(245,195,195)" />
<path d="M-1.115385 0.076923 L-0.115385 0.076923 L-0.115385 1.076923 L-1.115385 1.076923  z" fill="none" stroke="rgb(128,128,128)" stroke-width="0.01" />
<line x1="-0.134615" y1="-0.326923" x2="0.326923" y2="-0.134615" style="stroke:rgb(246,147,147);stroke-width:0.01" />
<line x1="0.192308" y1="-0.461538" x2="0.326923" y2="-0.134615" style="stroke:rgb(246,147,147);stroke-width:0.01" />
<line x1="-0.461538" y1="-0.192308" x2="0.461538" y2="0.192308" style="stroke:rgb(246,147,147);stroke-width:0.01" />
<line x1="-0.134615" y1="-0.326923" x2="0.134615" y2="0.326923" style="stroke:rgb(246,147,147);stroke-width:0.01" />
<line x1="-0.326923" y1="0.134615" x2="-0.192308" y2="0.461538" style="stroke:rgb(246,147,147);stroke-width:0.01" />
<line x1="-0.326923" y1="0.134615" x2="0.134615" y2="0.326923" style="stroke:rgb(246,147,147);stroke-width:0.01" />
<line x1="-0.134615" y1="-0.326923" x2="-0.461538" y2="-0.192308" style="stroke:rgb(246,147,147);stroke-width:0.01" />
<line x1="-0.134615" y1="-0.326923" x2="-0.326923" y2="0.134615" style="stroke:rgb(246,147,147);stroke-width:0.01" />
<line x1="0.326923" y1="-0.134615" x2="-0.326923" y2="0.134615" style="stroke:rgb(246,147,147);stroke-width:0.01" />
<line x1="0.192308" y1="-0.461538" x2="-0.192308" y2="0.461538" style="stroke:rgb(246,147,147);stroke-width:0.01" />
<line x1="0.326923" y1="-0.134615" x2="0.134615" y2="0.326923" style="stroke:rgb(246,147,147);stroke-width:0.01" />
<line x1="0.461538" y1="0.192308" x2="0.134615" y2="0.326923" style="stroke:rgb(246,147,147);stroke-width:0.01" />
</g>
</svg>
