<svg xmlns="http://www.w3.org/2000/svg" viewBox="-1.5 -1.5 3 3">
<g transform="scale(1, -1)">
<path d="M1.307692 -0.538462 L1.442308 -0.211538 L1.346154 0.019231 L1.576923 0.115385 L1.250000 0.250000 L1.019231 0.153846 L0.923077 0.384615 L0.788462 0.057692 L0.884615 -0.173077 L0.653846 -0.269231 L0.980769 -0.403846 L1.211538 -0.307692 z " fill="rgb(245,195,195)" />
<path d="M0.000000 0.000000 L1.000000 0.000000 L1.000000 1.000000 L0.000000 1.000000  z" fill="none" stroke="rgb(128,128,128)" stroke-width="0.01" />
<line x1="0.980769" y1="-0.403846" x2="1.44231" y2="-0.211538" style="stroke:rgb(246,147,147);stroke-width:0.01" />
<line x1="1.30769" y1="-0.538462" x2="1.44231" y2="-0.211538" style="stroke:rgb(246,147,147);stroke-width:0.01" />
<line x1="0.653846" y1="-0.269231" x2="1.57692" y2="0.115385" style="stroke:rgb(246,147,147);stroke-width:0.01" />
<line x1="0.980769" y1="-0.403846" x2="1.25" y2="0.25" style="stroke:rgb(246,147,147);stroke-width:0.01" />
<line x1="0.788462" y1="0.0576923" x2="0.923077" y2="0.384615" style="stroke:rgb(246,147,147);stroke-width:0.01" />
<line x1="0.788462" y1="0.0576923" x2="1.25" y2="0.25" style="stroke:rgb(246,147,147);stroke-width:0.01" />
<line x1="0.980769" y1="-0.403846" x2="0.653846" y2="-0.269231" style="stroke:rgb(246,147,147);stroke-width:0.01" />
<line x1="0.980769" y1="-0.403846" x2="0.788462" y2="0.0576923" style="stroke:rgb(246,147,147);stroke-width:0.01" />
<line x1="1.44231" y1="-0.211538" x2="0.788462" y2="0.0576923" style="stroke:rgb(246,147,147);stroke-width:0.01" />
<line x1="1.30769" y1="-0.538462" x2="0.923077" y2="0.384615" style="stroke:rgb(246,147,147);stroke-width:0.01" />
<line x1="1.44231" y1="-0.211538" x2="1.25" y2="0.25" style="stroke:rgb(246,147,147);stroke-width:0.01" />
<line x1="1.57692" y1="0.115385" x2="1.25" y2="0.25" style="stroke:rgb(246,147,147);stroke-width:0.01" />
</g>
</svg>
