<svg xmlns="http://www.w3.org/2000/svg" viewBox="-1.5 -1.5 3 3">
<g transform="scale(1, -1)">
<path d="M-0.100000 0.700000 L0.050000 0.900000 L0.250000 0.750000 L0.600000 0.800000 L0.400000 0.950000 L0.550000 1.150000 L0.500000 1.500000 L0.350000 1.300000 L0.150000 1.450000 L-0.200000 1.400000 L0.000000 1.250000 L-0.150000 1.050000 z " fill="rgb(245,195,195)" />
<path d="M0.000000 0.000000 L1.000000 0.000000 L1.000000 1.000000 L0.000000 1.000000  z" fill="none" stroke="rgb(128,128,128)" stroke-width="0.01" />
<line x1="-0.1" y1="0.7" x2="-0.15" y2="1.05" style="stroke:rgb(246,147,147);stroke-width:0.01" />
<line x1="0.25" y1="0.75" x2="0.15" y2="1.45" style="stroke:rgb(246,147,147);stroke-width:0.01" />
<line x1="0.55" y1="1.15" x2="0.5" y2="1.5" style="stroke:rgb(246,147,147);stroke-width:0.01" />
<line x1="0.25" y1="0.75" x2="0.55" y2="1.15" style="stroke:rgb(246,147,147);stroke-width:0.01" />
<line x1="-0.1" y1="0.7" x2="0.5" y2="1.5" style="stroke:rgb(246,147,147);stroke-width:0.01" />
<line x1="-0.15" y1="1.05" x2="0.15" y2="1.45" style="stroke:rgb(246,147,147);stroke-width:0.01" />
<line x1="0.25" y1="0.75" x2="-0.15" y2="1.05" style="stroke:rgb(246,147,147);stroke-width:0.01" />
<line x1="0.25" y1="0.75" x2="0.6" y2="0.8" style="stroke:rgb(246,147,147);stroke-width:0.01" />
<line x1="0.6" y1="0.8" x2="-0.2" y2="1.4" style="stroke:rgb(246,147,147);stroke-width:0.01" />
<line x1="0.55" y1="1.15" x2="0.15" y2="1.45" style="stroke:rgb(246,147,147);stroke-width:0.01" />
<line x1="-0.15" y1="1.05" x2="0.55" y2="1.15" style="stroke:rgb(246,147,147);stroke-width:0.01" />
<line x1="-0.2" y1="1.4" x2="0.15" y2="1.45" style="stroke:rgb(246,147,147);stroke-width:0.01" />
</g>
</svg>
