<svg xmlns="http://www.w3.org/2000/svg" viewBox="-1.5 -1.5 3 3">
<g transform="scale(1, -1)">
<path d="M1.038462 -1.192308 L0.942308 -0.961538 L1.173077 -0.865385 L1.307692 -0.538462 L1.076923 -0.634615 L0.980769 -0.403846 L0.653846 -0.269231 L0.750000 -0.500000 L0.519231 -0.596154 L0.384615 -0.923077 L0.615385 -0.826923 L0.711538 -1.057692 z " fill="rgb(245,195,195)" />
<path d="M0.000000 0.000000 L1.000000 0.000000 L1.000000 1.000000 L0.000000 1.000000  z" fill="none" stroke="rgb(128,128,128)" stroke-width="0.01" />
<line x1="0.711538" y1="-1.05769" x2="1.17308" y2="-0.865385" style="stroke:rgb(246,147,147);stroke-width:0.01" />
<line x1="0.384615" y1="-0.923077" x2="1.30769" y2="-0.538462" style="stroke:rgb(246,147,147);stroke-width:0.01" />
<line x1="0.519231" y1="-0.596154" x2="0.980769" y2="-0.403846" style="stroke:rgb(246,147,147);stroke-width:0.01" />
<line x1="1.03846" y1="-1.19231" x2="0.711538" y2="-1.05769" style="stroke:rgb(246,147,147);stroke-width:0.01" />
<line x1="1.17308" y1="-0.865385" x2="1.30769" y2="-0.538462" style="stroke:rgb(246,147,147);stroke-width:0.01" />
<line x1="0.711538" y1="-1.05769" x2="0.980769" y2="-0.403846" style="stroke:rgb(246,147,147);stroke-width:0.01" />
<line x1="1.17308" y1="-0.865385" x2="0.519231" y2="-0.596154" style="stroke:rgb(246,147,147);stroke-width:0.01" />
<line x1="0.384615" y1="-0.923077" x2="0.519231" y2="-0.596154" style="stroke:rgb(246,147,147);stroke-width:0.01" />
<line x1="0.980769" y1="-0.403846" x2="0.653846" y2="-0.269231" style="stroke:rgb(246,147,147);stroke-width:0.01" />
<line x1="0.711538" y1="-1.05769" x2="0.519231" y2="-0.596154" style="stroke:rgb(246,147,147);stroke-width:0.01" />
<line x1="1.03846" y1="-1.19231" x2="0.653846" y2="-0.269231" style="stroke:rgb(246,147,147);stroke-width:0.01" />
<line x1="1.17308" y1="-0.865385" x2="0.980769" y2="-0.403846" style="stroke:rgb(246,147,147);stroke-width:0.01" />
</g>
</svg>
