<svg xmlns="http://www.w3.org/2000/svg" viewBox="-1.5 -1.5 3 3">
<g transform="scale(1, -1)">
<path d="M-0.083333 -0.472222 L-0.083333 -0.222222 L0.166667 -0.222222 L0.416667 0.027778 L0.166667 0.027778 L0.166667 0.277778 L-0.083333 0.527778 L-0.333333 0.277778 L-0.333333 -0.222222 z " fill="rgb(245,195,195)" />
<path d="M-0.583333 -0.472222 L0.416667 -0.472222 L0.416667 0.527778 L-0.583333 0.527778  z" fill="none" stroke="rgb(128,128,128)" stroke-width="0.01" />
<line x1="0.166667" y1="-0.222222" x2="0.416667" y2="0.0277778" style="stroke:rgb(246,147,147);stroke-width:0.01" />
<line x1="-0.333333" y1="-0.222222" x2="0.166667" y2="0.277778" style="stroke:rgb(246,147,147);stroke-width:0.01" />
<line x1="-0.333333" y1="-0.222222" x2="-0.333333" y2="0.277778" style="stroke:rgb(246,147,147);stroke-width:0.01" />
<line x1="-0.0833333" y1="-0.472222" x2="-0.0833333" y2="0.527778" style="stroke:rgb(246,147,147);stroke-width:0.01" />
<line x1="0.166667" y1="-0.222222" x2="0.166667" y2="0.277778" style="stroke:rgb(246,147,147);stroke-width:0.01" />
<line x1="-0.333333" y1="0.277778" x2="-0.0833333" y2="0.527778" style="stroke:rgb(246,147,147);stroke-width:0.01" />
<line x1="-0.333333" y1="-0.222222" x2="0.166667" y2="-0.222222" style="stroke:rgb(246,147,147);stroke-width:0.01" />
<line x1="-0.0833333" y1="-0.472222" x2="-0.333333" y2="-0.222222" style="stroke:rgb(246,147,147);stroke-width:0.01" />
<line x1="-0.0833333" y1="0.0277778" x2="0.416667" y2="0.0277778" style="stroke:rgb(246,147,147);stroke-width:0.01" />
<line x1="0.166667" y1="-0.222222" x2="-0.333333" y2="0.277778" style="stroke:rgb(246,147,147);stroke-width:0.01" />
<line x1="-0.333333" y1="0.277778" x2="0.166667" y2="0.277778" style="stroke:rgb(246,147,147);stroke-width:0.01" />
<line x1="0.166667" y1="0.277778" x2="-0.0833333" y2="0.527778" style="stroke:rgb(246,147,147);stroke-width:0.01" />
</g>
</svg>
