<svg xmlns="http://www.w3.org/2000/svg" viewBox="-1.5 -1.5 3 3">
<g transform="scale(1, -1)">
<path d="M0.000338 -0.338898 L0.009591 -0.282719 L0.313548 -0.282719 L0.313548 0.717281 L0.041613 0.717281 L-0.337879 -0.247507 L-0.340759 -0.282719 z " fill="rgb(245,195,195)" />
<path d="M-0.686452 -0.282719 L0.313548 -0.282719 L0.313548 0.717281 L-0.686452 0.717281  z" fill="none" stroke="rgb(128,128,128)" stroke-width="0.01" />
<line x1="-0.337879" y1="-0.247507" x2="0.261639" y2="0.512508" style="stroke:rgb(246,147,147);stroke-width:0.01" />
<line x1="-0.337879" y1="-0.247507" x2="0.0416126" y2="0.717281" style="stroke:rgb(246,147,147);stroke-width:0.01" />
<line x1="0.00033841" y1="-0.338898" x2="0.162849" y2="0.647809" style="stroke:rgb(246,147,147);stroke-width:0.01" />
<line x1="-0.340759" y1="-0.282719" x2="-0.337879" y2="-0.247507" style="stroke:rgb(246,147,147);stroke-width:0.01" />
<line x1="-0.340759" y1="-0.282719" x2="0.313548" y2="-0.282719" style="stroke:rgb(246,147,147);stroke-width:0.01" />
<line x1="0.313548" y1="-0.282719" x2="0.313548" y2="0.717281" style="stroke:rgb(246,147,147);stroke-width:0.01" />
<line x1="0.00033841" y1="-0.338898" x2="-0.340759" y2="-0.282719" style="stroke:rgb(246,147,147);stroke-width:0.01" />
<line x1="0.261639" y1="0.512508" x2="0.0416126" y2="0.717281" style="stroke:rgb(246,147,147);stroke-width:0.01" />
<line x1="0.261639" y1="0.512508" x2="0.0233252" y2="0.670789" style="stroke:rgb(246,147,147);stroke-width:0.01" />
<line x1="0.0416126" y1="0.717281" x2="0.313548" y2="0.717281" style="stroke:rgb(246,147,147);stroke-width:0.01" />
<line x1="0.162849" y1="0.647809" x2="0.0233252" y2="0.670789" style="stroke:rgb(246,147,147);stroke-width:0.01" />
</g>
</svg>
