<svg xmlns="http://www.w3.org/2000/svg" viewBox="-1.5 -1.5 3 3">
<g transform="scale(1, -1)">
<path d="M0.480000 0.640000 L0.526316 0.763158 L1.000000 1.000000 L0.600000 1.300000 L0.272727 0.863636 z " fill="rgb(245,195,195)" />
<path d="M0.000000 0.000000 L1.000000 0.000000 L1.000000 1.000000 L0.000000 1.000000  z" fill="none" stroke="rgb(128,128,128)" stroke-width="0.01" />
<line x1="0.48" y1="0.64" x2="0.656" y2="1.108" style="stroke:rgb(246,147,147);stroke-width:0.01" />
<line x1="0.5" y1="0.75" x2="0.439024" y2="1.08537" style="stroke:rgb(246,147,147);stroke-width:0.01" />
<line x1="0.48" y1="0.64" x2="0.375" y2="1" style="stroke:rgb(246,147,147);stroke-width:0.01" />
<line x1="0.272727" y1="0.863636" x2="0.6" y2="1.3" style="stroke:rgb(246,147,147);stroke-width:0.01" />
<line x1="0.5" y1="0.75" x2="1" y2="1" style="stroke:rgb(246,147,147);stroke-width:0.01" />
<line x1="0.272727" y1="0.863636" x2="0.656" y2="1.108" style="stroke:rgb(246,147,147);stroke-width:0.01" />
<line x1="0.48" y1="0.64" x2="0.272727" y2="0.863636" style="stroke:rgb(246,147,147);stroke-width:0.01" />
<line x1="0.5" y1="0.75" x2="0.272727" y2="0.863636" style="stroke:rgb(246,147,147);stroke-width:0.01" />
<line x1="0.375" y1="1" x2="1" y2="1" style="stroke:rgb(246,147,147);stroke-width:0.01" />
<line x1="0.439024" y1="1.08537" x2="0.656" y2="1.108" style="stroke:rgb(246,147,147);stroke-width:0.01" />
<line x1="1" y1="1" x2="0.6" y2="1.3" style="stroke:rgb(246,147,147);stroke-width:0.01" />
</g>
</svg>
