<svg xmlns="http://www.w3.org/2000/svg" viewBox="-1.5 -1.5 3 3">
<g transform="scale(1, -1)">
<path d="M-0.095809 -0.273359 L-0.049493 -0.150201 L0.424191 0.086641 L0.024191 0.386641 L-0.303081 -0.049722 z " fill="rgb(245,195,195)" />
<path d="M-0.575809 -0.913359 L0.424191 -0.913359 L0.424191 0.086641 L-0.575809 0.086641  z" fill="none" stroke="rgb(128,128,128)" stroke-width="0.01" />
<line x1="-0.0958086" y1="-0.273359" x2="0.0801914" y2="0.194641" style="stroke:rgb(246,147,147);stroke-width:0.01" />
<line x1="-0.0758086" y1="-0.163359" x2="-0.136784" y2="0.172007" style="stroke:rgb(246,147,147);stroke-width:0.01" />
<line x1="-0.0958086" y1="-0.273359" x2="-0.200809" y2="0.0866411" style="stroke:rgb(246,147,147);stroke-width:0.01" />
<line x1="-0.303081" y1="-0.0497225" x2="0.0241914" y2="0.386641" style="stroke:rgb(246,147,147);stroke-width:0.01" />
<line x1="-0.0758086" y1="-0.163359" x2="0.424191" y2="0.0866411" style="stroke:rgb(246,147,147);stroke-width:0.01" />
<line x1="-0.303081" y1="-0.0497225" x2="0.0801914" y2="0.194641" style="stroke:rgb(246,147,147);stroke-width:0.01" />
<line x1="-0.0958086" y1="-0.273359" x2="-0.303081" y2="-0.0497225" style="stroke:rgb(246,147,147);stroke-width:0.01" />
<line x1="-0.0758086" y1="-0.163359" x2="-0.303081" y2="-0.0497225" style="stroke:rgb(246,147,147);stroke-width:0.01" />
<line x1="-0.200809" y1="0.0866411" x2="0.424191" y2="0.0866411" style="stroke:rgb(246,147,147);stroke-width:0.01" />
<line x1="-0.136784" y1="0.172007" x2="0.0801914" y2="0.194641" style="stroke:rgb(246,147,147);stroke-width:0.01" />
<line x1="0.424191" y1="0.0866411" x2="0.0241914" y2="0.386641" style="stroke:rgb(246,147,147);stroke-width:0.01" />
</g>
</svg>
