<svg xmlns="http://www.w3.org/2000/svg" viewBox="-1.5 -1.5 3 3">
<g transform="scale(1, -1)">
<path d="M0.219832 -0.411289 L0.276106 -0.197718 L0.284608 -0.197718 L0.284608 -0.165452 L0.474629 0.555706 L0.446420 0.563139 L0.035279 0.413633 L-0.715392 -0.164863 L-0.715392 -0.197718 L-0.590700 -0.197718 z " fill="rgb(245,195,195)" />
<path d="M-0.715392 -0.197718 L0.284608 -0.197718 L0.284608 0.802282 L-0.715392 0.802282  z" fill="none" stroke="rgb(128,128,128)" stroke-width="0.01" />
<line x1="0.349791" y1="0.426523" x2="0.44642" y2="0.563139" style="stroke:rgb(246,147,147);stroke-width:0.01" />
<line x1="0.219832" y1="-0.411289" x2="0.474629" y2="0.555706" style="stroke:rgb(246,147,147);stroke-width:0.01" />
<line x1="-0.715392" y1="-0.197718" x2="0.284608" y2="-0.197718" style="stroke:rgb(246,147,147);stroke-width:0.01" />
<line x1="-0.715392" y1="-0.197718" x2="-0.715392" y2="-0.164863" style="stroke:rgb(246,147,147);stroke-width:0.01" />
<line x1="0.284608" y1="-0.197718" x2="0.284608" y2="0.504298" style="stroke:rgb(246,147,147);stroke-width:0.01" />
<line x1="-0.715392" y1="-0.164863" x2="0.0352793" y2="0.413633" style="stroke:rgb(246,147,147);stroke-width:0.01" />
<line x1="0.219832" y1="-0.411289" x2="-0.715392" y2="-0.164863" style="stroke:rgb(246,147,147);stroke-width:0.01" />
<line x1="0.0352793" y1="0.413633" x2="0.44642" y2="0.563139" style="stroke:rgb(246,147,147);stroke-width:0.01" />
<line x1="0.0352793" y1="0.413633" x2="0.349791" y2="0.426523" style="stroke:rgb(246,147,147);stroke-width:0.01" />
<line x1="0.349791" y1="0.426523" x2="0.284608" y2="0.504298" style="stroke:rgb(246,147,147);stroke-width:0.01" />
<line x1="0.474629" y1="0.555706" x2="0.44642" y2="0.563139" style="stroke:rgb(246,147,147);stroke-width:0.01" />
</g>
</svg>
