<svg xmlns="http://www.w3.org/2000/svg" viewBox="-1.5 -1.5 3 3">
<g transform="scale(1, -1)">
<path d="M0.935223 -0.213570 L0.991498 0.000000 L1.000000 0.000000 L1.000000 0.032267 L1.190021 0.753424 L1.161812 0.760857 L0.750671 0.611351 L0.000000 0.032856 L0.000000 0.000000 L0.124692 0.000000 z " fill="rgb(245,195,195)" />
<path d="M0.000000 0.000000 L1.000000 0.000000 L1.000000 1.000000 L0.000000 1.000000  z" fill="none" stroke="rgb(128,128,128)" stroke-width="0.01" />
<line x1="1.06518" y1="0.624242" x2="1.16181" y2="0.760857" style="stroke:rgb(246,147,147);stroke-width:0.01" />
<line x1="0.935223" y1="-0.21357" x2="1.19002" y2="0.753424" style="stroke:rgb(246,147,147);stroke-width:0.01" />
<line x1="0" y1="0" x2="1" y2="0" style="stroke:rgb(246,147,147);stroke-width:0.01" />
<line x1="0" y1="0" x2="0" y2="0.0328556" style="stroke:rgb(246,147,147);stroke-width:0.01" />
<line x1="1" y1="0" x2="1" y2="0.702016" style="stroke:rgb(246,147,147);stroke-width:0.01" />
<line x1="0" y1="0.0328556" x2="0.750671" y2="0.611351" style="stroke:rgb(246,147,147);stroke-width:0.01" />
<line x1="0.935223" y1="-0.21357" x2="0" y2="0.0328556" style="stroke:rgb(246,147,147);stroke-width:0.01" />
<line x1="0.750671" y1="0.611351" x2="1.16181" y2="0.760857" style="stroke:rgb(246,147,147);stroke-width:0.01" />
<line x1="0.750671" y1="0.611351" x2="1.06518" y2="0.624242" style="stroke:rgb(246,147,147);stroke-width:0.01" />
<line x1="1.06518" y1="0.624242" x2="1" y2="0.702016" style="stroke:rgb(246,147,147);stroke-width:0.01" />
<line x1="1.19002" y1="0.753424" x2="1.16181" y2="0.760857" style="stroke:rgb(246,147,147);stroke-width:0.01" />
</g>
</svg>
