<svg xmlns="http://www.w3.org/2000/svg" viewBox="-1.5 -1.5 3 3">
<g transform="scale(1, -1)">
<path d="M-0.174150 -0.266600 L0.008432 -0.052807 L0.043524 -0.137028 L0.315018 -0.023906 L0.315018 -0.023906 L0.218864 0.206863 L-0.137471 0.297361 L-0.263053 0.196101 L-0.268448 -0.186068 z M-0.002601 -0.026328 L-0.035497 0.001766 L-0.019636 0.014555 z " fill="rgb(245,195,195)" />
<path d="M0.315018 -0.023906 L1.315018 -0.023906 L1.315018 0.976094 L0.315018 0.976094  z" fill="none" stroke="rgb(128,128,128)" stroke-width="0.01" />
<line x1="-0.17415" y1="-0.2666" x2="-0.268448" y2="-0.186068" style="stroke:rgb(246,147,147);stroke-width:0.01" />
<line x1="-0.135949" y1="-0.221869" x2="-0.267369" y2="-0.109635" style="stroke:rgb(246,147,147);stroke-width:0.01" />
<line x1="0.0168554" y1="-0.042944" x2="-0.263053" y2="0.196101" style="stroke:rgb(246,147,147);stroke-width:0.01" />
<line x1="0.0435244" y1="-0.137028" x2="-0.137471" y2="0.297361" style="stroke:rgb(246,147,147);stroke-width:0.01" />
<line x1="0.260719" y1="-0.0465307" x2="0.147597" y2="0.224962" style="stroke:rgb(246,147,147);stroke-width:0.01" />
<line x1="0.315018" y1="-0.0239063" x2="0.315018" y2="-0.0239063" style="stroke:rgb(246,147,147);stroke-width:0.01" />
<line x1="0.0435244" y1="-0.137028" x2="0.315018" y2="-0.0239063" style="stroke:rgb(246,147,147);stroke-width:0.01" />
<line x1="0.315018" y1="-0.0239063" x2="0.218864" y2="0.206863" style="stroke:rgb(246,147,147);stroke-width:0.01" />
<line x1="0.315018" y1="-0.0239063" x2="0.315018" y2="-0.0239063" style="stroke:rgb(246,147,147);stroke-width:0.01" />
<line x1="0.315018" y1="-0.0239063" x2="0.315018" y2="-0.0239063" style="stroke:rgb(246,147,147);stroke-width:0.01" />
<line x1="-0.268448" y1="-0.186068" x2="-0.263053" y2="0.196101" style="stroke:rgb(246,147,147);stroke-width:0.01" />
<line x1="-0.17415" y1="-0.2666" x2="0.0168554" y2="-0.042944" style="stroke:rgb(246,147,147);stroke-width:0.01" />
<line x1="-0.268448" y1="-0.186068" x2="0.218864" y2="0.206863" style="stroke:rgb(246,147,147);stroke-width:0.01" />
<line x1="0.218864" y1="0.206863" x2="-0.137471" y2="0.297361" style="stroke:rgb(246,147,147);stroke-width:0.01" />
<line x1="-0.267369" y1="-0.109635" x2="0.147597" y2="0.224962" style="stroke:rgb(246,147,147);stroke-width:0.01" />
<line x1="-0.263053" y1="0.196101" x2="-0.137471" y2="0.297361" style="stroke:rgb(246,147,147);stroke-width:0.01" />
</g>
</svg>
