<svg xmlns="http://www.w3.org/2000/svg" viewBox="-1.5 -1.5 3 3">
<g transform="scale(1, -1)">
<path d="M143165576.466667 0.111121 L143165577.466667 0.444454 L143165577.466667 1.000010 L143165576.466667 0.666677 L143165576.466667 0.250010 L143165576.400000 0.200010 z " fill="rgb(245,195,195)" />
<path d="M0.000000 0.000000 L1.000000 0.000000 L1.000000 1.000000 L0.000000 1.000000  z" fill="none" stroke="rgb(128,128,128)" stroke-width="0.01" />
<line x1="1.43166e+08" y1="0.20001" x2="1.43166e+08" y2="1.00001" style="stroke:rgb(246,147,147);stroke-width:0.01" />
<line x1="1.43166e+08" y1="0.111121" x2="1.43166e+08" y2="0.444454" style="stroke:rgb(246,147,147);stroke-width:0.01" />
<line x1="1.43166e+08" y1="0.666677" x2="1.43166e+08" y2="1.00001" style="stroke:rgb(246,147,147);stroke-width:0.01" />
<line x1="1.43166e+08" y1="0.111121" x2="1.43166e+08" y2="0.666677" style="stroke:rgb(246,147,147);stroke-width:0.01" />
<line x1="1.43166e+08" y1="0.444454" x2="1.43166e+08" y2="1.00001" style="stroke:rgb(246,147,147);stroke-width:0.01" />
<line x1="1.43166e+08" y1="0.111121" x2="1.43166e+08" y2="0.20001" style="stroke:rgb(246,147,147);stroke-width:0.01" />
<line x1="1.43166e+08" y1="0.40001" x2="1.43166e+08" y2="0.666677" style="stroke:rgb(246,147,147);stroke-width:0.01" />
<line x1="1.43166e+08" y1="0.444454" x2="1.43166e+08" y2="0.80001" style="stroke:rgb(246,147,147);stroke-width:0.01" />
</g>
</svg>
