<svg xmlns="http://www.w3.org/2000/svg" viewBox="-1.5 -1.5 3 3">
<path d="M0.037500 -0.212500 L0.162500 -0.087500 L0.162500 0.037500 L0.037500 0.162500 L-0.087500 0.162500 L-0.212500 0.037500 z M-0.087500 -0.087500 L-0.087500 0.037500 L0.037500 0.037500 L0.037500 -0.087500 z " fill="rgb(245,195,195)" />
<path d="M-0.212500 -0.212500 L0.787500 -0.212500 L0.787500 0.787500 L-0.212500 0.787500  z" fill="none" stroke="rgb(128,128,128)" stroke-width="0.01" />
<line x1="0.0375" y1="-0.2125" x2="0.1625" y2="-0.0875" style="stroke:rgb(246,147,147);stroke-width:0.01" />
<line x1="-0.0875" y1="-0.0875" x2="-0.0875" y2="0.1625" style="stroke:rgb(246,147,147);stroke-width:0.01" />
<line x1="0.0375" y1="-0.2125" x2="0.0375" y2="0.1625" style="stroke:rgb(246,147,147);stroke-width:0.01" />
<line x1="0.1625" y1="-0.0875" x2="0.1625" y2="0.0375" style="stroke:rgb(246,147,147);stroke-width:0.01" />
<line x1="-0.2125" y1="0.0375" x2="-0.0875" y2="0.1625" style="stroke:rgb(246,147,147);stroke-width:0.01" />
<line x1="-0.0875" y1="-0.0875" x2="0.1625" y2="-0.0875" style="stroke:rgb(246,147,147);stroke-width:0.01" />
<line x1="0.0375" y1="-0.2125" x2="-0.2125" y2="0.0375" style="stroke:rgb(246,147,147);stroke-width:0.01" />
<line x1="-0.2125" y1="0.0375" x2="0.1625" y2="0.0375" style="stroke:rgb(246,147,147);stroke-width:0.01" />
<line x1="0.1625" y1="0.0375" x2="0.0375" y2="0.1625" style="stroke:rgb(246,147,147);stroke-width:0.01" />
<line x1="-0.0875" y1="0.1625" x2="0.0375" y2="0.1625" style="stroke:rgb(246,147,147);stroke-width:0.01" />
</svg>
