<svg xmlns="http://www.w3.org/2000/svg" viewBox="-1.5 -1.5 3 3">
<g transform="scale(1, -1)">
<path d="M5.100000 4.050000 L5.216667 4.066667 L5.200000 4.183333 L5.066667 4.283333 L5.033333 4.516667 L4.933333 4.383333 L4.900000 4.616667 L4.700000 4.350000 z " fill="rgb(245,195,195)" />
<path d="M0.000000 0.000000 L1.000000 0.000000 L1.000000 1.000000 L0.000000 1.000000  z" fill="none" stroke="rgb(128,128,128)" stroke-width="0.01" />
<line x1="4.83333" y1="4.25" x2="5.03333" y2="4.51667" style="stroke:rgb(246,147,147);stroke-width:0.01" />
<line x1="4.7" y1="4.35" x2="4.9" y2="4.61667" style="stroke:rgb(246,147,147);stroke-width:0.01" />
<line x1="4.96667" y1="4.15" x2="4.9" y2="4.61667" style="stroke:rgb(246,147,147);stroke-width:0.01" />
<line x1="5.1" y1="4.05" x2="5.03333" y2="4.51667" style="stroke:rgb(246,147,147);stroke-width:0.01" />
<line x1="5.21667" y1="4.06667" x2="5.2" y2="4.18333" style="stroke:rgb(246,147,147);stroke-width:0.01" />
<line x1="5.1" y1="4.05" x2="5.21667" y2="4.06667" style="stroke:rgb(246,147,147);stroke-width:0.01" />
<line x1="4.96667" y1="4.15" x2="5.2" y2="4.18333" style="stroke:rgb(246,147,147);stroke-width:0.01" />
<line x1="5.1" y1="4.05" x2="4.7" y2="4.35" style="stroke:rgb(246,147,147);stroke-width:0.01" />
<line x1="5.08333" y1="4.16667" x2="4.75" y2="4.41667" style="stroke:rgb(246,147,147);stroke-width:0.01" />
<line x1="5.2" y1="4.18333" x2="4.8" y2="4.48333" style="stroke:rgb(246,147,147);stroke-width:0.01" />
</g>
</svg>
