<svg xmlns="http://www.w3.org/2000/svg" viewBox="-1.5 -1.5 3 3">
<g transform="scale(1, -1)">
<path d="M0.081250 -0.256250 L0.197917 -0.239583 L0.181250 -0.122917 L0.047917 -0.022917 L0.014583 0.210417 L-0.085417 0.077083 L-0.118750 0.310417 L-0.318750 0.043750 z " fill="rgb(245,195,195)" />
<path d="M-5.018750 -4.306250 L-4.018750 -4.306250 L-4.018750 -3.306250 L-5.018750 -3.306250  z" fill="none" stroke="rgb(128,128,128)" stroke-width="0.01" />
<line x1="-0.185417" y1="-0.05625" x2="0.0145833" y2="0.210417" style="stroke:rgb(246,147,147);stroke-width:0.01" />
<line x1="-0.31875" y1="0.04375" x2="-0.11875" y2="0.310417" style="stroke:rgb(246,147,147);stroke-width:0.01" />
<line x1="-0.0520833" y1="-0.15625" x2="-0.11875" y2="0.310417" style="stroke:rgb(246,147,147);stroke-width:0.01" />
<line x1="0.08125" y1="-0.25625" x2="0.0145833" y2="0.210417" style="stroke:rgb(246,147,147);stroke-width:0.01" />
<line x1="0.197917" y1="-0.239583" x2="0.18125" y2="-0.122917" style="stroke:rgb(246,147,147);stroke-width:0.01" />
<line x1="0.08125" y1="-0.25625" x2="0.197917" y2="-0.239583" style="stroke:rgb(246,147,147);stroke-width:0.01" />
<line x1="-0.0520833" y1="-0.15625" x2="0.18125" y2="-0.122917" style="stroke:rgb(246,147,147);stroke-width:0.01" />
<line x1="0.08125" y1="-0.25625" x2="-0.31875" y2="0.04375" style="stroke:rgb(246,147,147);stroke-width:0.01" />
<line x1="0.0645833" y1="-0.139583" x2="-0.26875" y2="0.110417" style="stroke:rgb(246,147,147);stroke-width:0.01" />
<line x1="0.18125" y1="-0.122917" x2="-0.21875" y2="0.177083" style="stroke:rgb(246,147,147);stroke-width:0.01" />
</g>
</svg>
