<svg xmlns="http://www.w3.org/2000/svg" viewBox="-1.5 -1.5 3 3">
<g transform="scale(1, -1)">
<path d="M5.766667 4.550000 L5.883333 4.566667 L5.866667 4.683333 L5.733333 4.783333 L5.700000 5.016667 L5.600000 4.883333 L5.566667 5.116667 L5.366667 4.850000 z " fill="rgb(245,195,195)" />
<path d="M0.000000 0.000000 L1.000000 0.000000 L1.000000 1.000000 L0.000000 1.000000  z" fill="none" stroke="rgb(128,128,128)" stroke-width="0.01" />
<line x1="5.5" y1="4.75" x2="5.7" y2="5.01667" style="stroke:rgb(246,147,147);stroke-width:0.01" />
<line x1="5.36667" y1="4.85" x2="5.56667" y2="5.11667" style="stroke:rgb(246,147,147);stroke-width:0.01" />
<line x1="5.63333" y1="4.65" x2="5.56667" y2="5.11667" style="stroke:rgb(246,147,147);stroke-width:0.01" />
<line x1="5.76667" y1="4.55" x2="5.7" y2="5.01667" style="stroke:rgb(246,147,147);stroke-width:0.01" />
<line x1="5.88333" y1="4.56667" x2="5.86667" y2="4.68333" style="stroke:rgb(246,147,147);stroke-width:0.01" />
<line x1="5.76667" y1="4.55" x2="5.88333" y2="4.56667" style="stroke:rgb(246,147,147);stroke-width:0.01" />
<line x1="5.63333" y1="4.65" x2="5.86667" y2="4.68333" style="stroke:rgb(246,147,147);stroke-width:0.01" />
<line x1="5.76667" y1="4.55" x2="5.36667" y2="4.85" style="stroke:rgb(246,147,147);stroke-width:0.01" />
<line x1="5.75" y1="4.66667" x2="5.41667" y2="4.91667" style="stroke:rgb(246,147,147);stroke-width:0.01" />
<line x1="5.86667" y1="4.68333" x2="5.46667" y2="4.98333" style="stroke:rgb(246,147,147);stroke-width:0.01" />
</g>
</svg>
