<svg xmlns="http://www.w3.org/2000/svg" viewBox="-1.5 -1.5 3 3">
<g transform="scale(1, -1)">
<path d="M6.100000 4.800000 L6.216667 4.816667 L6.200000 4.933333 L6.066667 5.033333 L6.033333 5.266667 L5.933333 5.133333 L5.900000 5.366667 L5.700000 5.100000 z " fill="rgb(245,195,195)" />
<path d="M0.000000 0.000000 L1.000000 0.000000 L1.000000 1.000000 L0.000000 1.000000  z" fill="none" stroke="rgb(128,128,128)" stroke-width="0.01" />
<line x1="5.83333" y1="5" x2="6.03333" y2="5.26667" style="stroke:rgb(246,147,147);stroke-width:0.01" />
<line x1="5.7" y1="5.1" x2="5.9" y2="5.36667" style="stroke:rgb(246,147,147);stroke-width:0.01" />
<line x1="5.96667" y1="4.9" x2="5.9" y2="5.36667" style="stroke:rgb(246,147,147);stroke-width:0.01" />
<line x1="6.1" y1="4.8" x2="6.03333" y2="5.26667" style="stroke:rgb(246,147,147);stroke-width:0.01" />
<line x1="6.21667" y1="4.81667" x2="6.2" y2="4.93333" style="stroke:rgb(246,147,147);stroke-width:0.01" />
<line x1="6.1" y1="4.8" x2="6.21667" y2="4.81667" style="stroke:rgb(246,147,147);stroke-width:0.01" />
<line x1="5.96667" y1="4.9" x2="6.2" y2="4.93333" style="stroke:rgb(246,147,147);stroke-width:0.01" />
<line x1="6.1" y1="4.8" x2="5.7" y2="5.1" style="stroke:rgb(246,147,147);stroke-width:0.01" />
<line x1="6.08333" y1="4.91667" x2="5.75" y2="5.16667" style="stroke:rgb(246,147,147);stroke-width:0.01" />
<line x1="6.2" y1="4.93333" x2="5.8" y2="5.23333" style="stroke:rgb(246,147,147);stroke-width:0.01" />
</g>
</svg>
