<svg xmlns="http://www.w3.org/2000/svg" viewBox="-1.5 -1.5 3 3">
<g transform="scale(1, -1)">
<path d="M6.433333 5.050000 L6.550000 5.066667 L6.533333 5.183333 L6.400000 5.283333 L6.366667 5.516667 L6.266667 5.383333 L6.233333 5.616667 L6.033333 5.350000 z " fill="rgb(245,195,195)" />
<path d="M0.000000 0.000000 L1.000000 0.000000 L1.000000 1.000000 L0.000000 1.000000  z" fill="none" stroke="rgb(128,128,128)" stroke-width="0.01" />
<line x1="6.16667" y1="5.25" x2="6.36667" y2="5.51667" style="stroke:rgb(246,147,147);stroke-width:0.01" />
<line x1="6.03333" y1="5.35" x2="6.23333" y2="5.61667" style="stroke:rgb(246,147,147);stroke-width:0.01" />
<line x1="6.3" y1="5.15" x2="6.23333" y2="5.61667" style="stroke:rgb(246,147,147);stroke-width:0.01" />
<line x1="6.43333" y1="5.05" x2="6.36667" y2="5.51667" style="stroke:rgb(246,147,147);stroke-width:0.01" />
<line x1="6.55" y1="5.06667" x2="6.53333" y2="5.18333" style="stroke:rgb(246,147,147);stroke-width:0.01" />
<line x1="6.43333" y1="5.05" x2="6.55" y2="5.06667" style="stroke:rgb(246,147,147);stroke-width:0.01" />
<line x1="6.3" y1="5.15" x2="6.53333" y2="5.18333" style="stroke:rgb(246,147,147);stroke-width:0.01" />
<line x1="6.43333" y1="5.05" x2="6.03333" y2="5.35" style="stroke:rgb(246,147,147);stroke-width:0.01" />
<line x1="6.41667" y1="5.16667" x2="6.08333" y2="5.41667" style="stroke:rgb(246,147,147);stroke-width:0.01" />
<line x1="6.53333" y1="5.18333" x2="6.13333" y2="5.48333" style="stroke:rgb(246,147,147);stroke-width:0.01" />
</g>
</svg>
