<svg xmlns="http://www.w3.org/2000/svg" viewBox="-1.5 -1.5 3 3">
<g transform="scale(1, -1)">
<path d="M6.766667 5.300000 L6.883333 5.316667 L6.866667 5.433333 L6.733333 5.533333 L6.700000 5.766667 L6.600000 5.633333 L6.566667 5.866667 L6.366667 5.600000 z " fill="rgb(245,195,195)" />
<path d="M0.000000 0.000000 L1.000000 0.000000 L1.000000 1.000000 L0.000000 1.000000  z" fill="none" stroke="rgb(128,128,128)" stroke-width="0.01" />
<line x1="6.5" y1="5.5" x2="6.7" y2="5.76667" style="stroke:rgb(246,147,147);stroke-width:0.01" />
<line x1="6.36667" y1="5.6" x2="6.56667" y2="5.86667" style="stroke:rgb(246,147,147);stroke-width:0.01" />
<line x1="6.63333" y1="5.4" x2="6.56667" y2="5.86667" style="stroke:rgb(246,147,147);stroke-width:0.01" />
<line x1="6.76667" y1="5.3" x2="6.7" y2="5.76667" style="stroke:rgb(246,147,147);stroke-width:0.01" />
<line x1="6.88333" y1="5.31667" x2="6.86667" y2="5.43333" style="stroke:rgb(246,147,147);stroke-width:0.01" />
<line x1="6.76667" y1="5.3" x2="6.88333" y2="5.31667" style="stroke:rgb(246,147,147);stroke-width:0.01" />
<line x1="6.63333" y1="5.4" x2="6.86667" y2="5.43333" style="stroke:rgb(246,147,147);stroke-width:0.01" />
<line x1="6.76667" y1="5.3" x2="6.36667" y2="5.6" style="stroke:rgb(246,147,147);stroke-width:0.01" />
<line x1="6.75" y1="5.41667" x2="6.41667" y2="5.66667" style="stroke:rgb(246,147,147);stroke-width:0.01" />
<line x1="6.86667" y1="5.43333" x2="6.46667" y2="5.73333" style="stroke:rgb(246,147,147);stroke-width:0.01" />
</g>
</svg>
