<svg xmlns="http://www.w3.org/2000/svg" viewBox="-1.5 -1.5 3 3">
<g transform="scale(1, -1)">
<path d="M0.000000 0.000000 L0.266667 0.200000 L0.300000 0.433333 L0.533333 0.400000 L0.600000 0.866667 L0.333333 0.666667 L-0.133333 0.733333 L0.066667 0.466667 z " fill="rgb(245,195,195)" />
<path d="M0.000000 0.000000 L1.000000 0.000000 L1.000000 1.000000 L0.000000 1.000000  z" fill="none" stroke="rgb(128,128,128)" stroke-width="0.01" />
<line x1="0.533333" y1="0.4" x2="0.6" y2="0.866667" style="stroke:rgb(246,147,147);stroke-width:0.01" />
<line x1="0.266667" y1="0.2" x2="0.333333" y2="0.666667" style="stroke:rgb(246,147,147);stroke-width:0.01" />
<line x1="0" y1="0" x2="0.266667" y2="0.2" style="stroke:rgb(246,147,147);stroke-width:0.01" />
<line x1="0" y1="0" x2="0.0666667" y2="0.466667" style="stroke:rgb(246,147,147);stroke-width:0.01" />
<line x1="0.266667" y1="0.2" x2="-0.133333" y2="0.733333" style="stroke:rgb(246,147,147);stroke-width:0.01" />
<line x1="0.0666667" y1="0.466667" x2="0.6" y2="0.866667" style="stroke:rgb(246,147,147);stroke-width:0.01" />
<line x1="0.533333" y1="0.4" x2="0.333333" y2="0.666667" style="stroke:rgb(246,147,147);stroke-width:0.01" />
<line x1="0.533333" y1="0.4" x2="0.0666667" y2="0.466667" style="stroke:rgb(246,147,147);stroke-width:0.01" />
<line x1="0.333333" y1="0.666667" x2="-0.133333" y2="0.733333" style="stroke:rgb(246,147,147);stroke-width:0.01" />
</g>
</svg>
