<svg xmlns="http://www.w3.org/2000/svg" viewBox="-1.5 -1.5 3 3">
<g transform="scale(1, -1)">
<path d="M-0.245833 -0.470833 L0.020833 -0.270833 L0.054167 -0.037500 L0.287500 -0.070833 L0.354167 0.395833 L0.087500 0.195833 L-0.379167 0.262500 L-0.179167 -0.004167 z " fill="rgb(245,195,195)" />
<path d="M-0.245833 -0.470833 L0.754167 -0.470833 L0.754167 0.529167 L-0.245833 0.529167  z" fill="none" stroke="rgb(128,128,128)" stroke-width="0.01" />
<line x1="0.2875" y1="-0.0708333" x2="0.354167" y2="0.395833" style="stroke:rgb(246,147,147);stroke-width:0.01" />
<line x1="0.0208333" y1="-0.270833" x2="0.0875" y2="0.195833" style="stroke:rgb(246,147,147);stroke-width:0.01" />
<line x1="-0.245833" y1="-0.470833" x2="0.0208333" y2="-0.270833" style="stroke:rgb(246,147,147);stroke-width:0.01" />
<line x1="-0.245833" y1="-0.470833" x2="-0.179167" y2="-0.00416667" style="stroke:rgb(246,147,147);stroke-width:0.01" />
<line x1="0.0208333" y1="-0.270833" x2="-0.379167" y2="0.2625" style="stroke:rgb(246,147,147);stroke-width:0.01" />
<line x1="-0.179167" y1="-0.00416667" x2="0.354167" y2="0.395833" style="stroke:rgb(246,147,147);stroke-width:0.01" />
<line x1="0.2875" y1="-0.0708333" x2="0.0875" y2="0.195833" style="stroke:rgb(246,147,147);stroke-width:0.01" />
<line x1="0.2875" y1="-0.0708333" x2="-0.179167" y2="-0.00416667" style="stroke:rgb(246,147,147);stroke-width:0.01" />
<line x1="0.0875" y1="0.195833" x2="-0.379167" y2="0.2625" style="stroke:rgb(246,147,147);stroke-width:0.01" />
</g>
</svg>
