<svg xmlns="http://www.w3.org/2000/svg" viewBox="-1.5 -1.5 3 3">
<g transform="scale(1, -1)">
<path d="M0.092593 -0.425926 L0.092593 -0.259259 L0.259259 -0.259259 L0.259259 0.574074 L-0.074074 0.574074 L-0.074074 0.240741 L-0.240741 0.074074 L-0.240741 -0.259259 L-0.074074 -0.259259 z " fill="rgb(245,195,195)" />
<path d="M-0.740741 -0.425926 L0.259259 -0.425926 L0.259259 0.574074 L-0.740741 0.574074  z" fill="none" stroke="rgb(128,128,128)" stroke-width="0.01" />
<line x1="-0.0740741" y1="-0.259259" x2="0.0925926" y2="-0.0925926" style="stroke:rgb(246,147,147);stroke-width:0.01" />
<line x1="-0.240741" y1="0.0740741" x2="0.259259" y2="0.574074" style="stroke:rgb(246,147,147);stroke-width:0.01" />
<line x1="-0.240741" y1="-0.259259" x2="-0.240741" y2="0.0740741" style="stroke:rgb(246,147,147);stroke-width:0.01" />
<line x1="-0.0740741" y1="-0.259259" x2="-0.0740741" y2="0.574074" style="stroke:rgb(246,147,147);stroke-width:0.01" />
<line x1="0.0925926" y1="-0.425926" x2="0.0925926" y2="0.574074" style="stroke:rgb(246,147,147);stroke-width:0.01" />
<line x1="0.259259" y1="-0.259259" x2="0.259259" y2="0.574074" style="stroke:rgb(246,147,147);stroke-width:0.01" />
<line x1="-0.240741" y1="-0.259259" x2="0.259259" y2="-0.259259" style="stroke:rgb(246,147,147);stroke-width:0.01" />
<line x1="-0.240741" y1="-0.0925926" x2="0.259259" y2="-0.0925926" style="stroke:rgb(246,147,147);stroke-width:0.01" />
<line x1="0.0925926" y1="-0.425926" x2="-0.0740741" y2="-0.259259" style="stroke:rgb(246,147,147);stroke-width:0.01" />
<line x1="-0.240741" y1="0.0740741" x2="0.259259" y2="0.0740741" style="stroke:rgb(246,147,147);stroke-width:0.01" />
<line x1="-0.0740741" y1="0.574074" x2="0.259259" y2="0.574074" style="stroke:rgb(246,147,147);stroke-width:0.01" />
</g>
</svg>
