<svg xmlns="http://www.w3.org/2000/svg" viewBox="-1.5 -1.5 3 3">
<g transform="scale(1, -1)">
<path d="M0.266667 -0.514286 L0.400000 0.419048 L0.133333 0.219048 L-0.333333 0.285714 L-0.133333 0.019048 L-0.400000 -0.180952 L0.066667 -0.247619 z " fill="rgb(245,195,195)" />
<path d="M0.000000 -0.714286 L1.000000 -0.714286 L1.000000 0.285714 L0.000000 0.285714  z" fill="none" stroke="rgb(128,128,128)" stroke-width="0.01" />
<line x1="0.266667" y1="-0.514286" x2="0.4" y2="0.419048" style="stroke:rgb(246,147,147);stroke-width:0.01" />
<line x1="0.0666667" y1="-0.247619" x2="0.133333" y2="0.219048" style="stroke:rgb(246,147,147);stroke-width:0.01" />
<line x1="0.266667" y1="-0.514286" x2="-0.333333" y2="0.285714" style="stroke:rgb(246,147,147);stroke-width:0.01" />
<line x1="0.0666667" y1="-0.247619" x2="0.333333" y2="-0.047619" style="stroke:rgb(246,147,147);stroke-width:0.01" />
<line x1="0.333333" y1="-0.047619" x2="0.133333" y2="0.219048" style="stroke:rgb(246,147,147);stroke-width:0.01" />
<line x1="0.0666667" y1="-0.247619" x2="-0.4" y2="-0.180952" style="stroke:rgb(246,147,147);stroke-width:0.01" />
<line x1="-0.4" y1="-0.180952" x2="0.4" y2="0.419048" style="stroke:rgb(246,147,147);stroke-width:0.01" />
<line x1="0.333333" y1="-0.047619" x2="-0.133333" y2="0.0190476" style="stroke:rgb(246,147,147);stroke-width:0.01" />
<line x1="0.133333" y1="0.219048" x2="-0.333333" y2="0.285714" style="stroke:rgb(246,147,147);stroke-width:0.01" />
</g>
</svg>
