<svg xmlns="http://www.w3.org/2000/svg" viewBox="-1.5 -1.5 3 3">
<g transform="scale(1, -1)">
<path d="M0.191077 0.306435 L0.244273 0.328475 L0.243895 0.366636 L0.236591 0.416288 L0.246565 0.440362 L0.246256 0.502488 L0.214663 0.565361 L0.199130 0.670960 L0.245092 0.736486 L0.241931 1.371952 L0.231790 1.375511 L0.228884 1.367228 L-0.296450 1.176996 L-0.167496 0.665008 z " fill="rgb(245,195,195)" />
<path d="M0.000000 0.000000 L1.000000 0.000000 L1.000000 1.000000 L0.000000 1.000000  z" fill="none" stroke="rgb(128,128,128)" stroke-width="0.01" />
<line x1="0.239298" y1="0.330421" x2="0.243895" y2="0.366636" style="stroke:rgb(246,147,147);stroke-width:0.01" />
<line x1="0.191077" y1="0.306435" x2="0.246565" y2="0.440362" style="stroke:rgb(246,147,147);stroke-width:0.01" />
<line x1="0.239298" y1="0.330421" x2="0.244185" y2="0.337271" style="stroke:rgb(246,147,147);stroke-width:0.01" />
<line x1="-0.156333" y1="0.653846" x2="-0.156333" y2="0.960624" style="stroke:rgb(246,147,147);stroke-width:0.01" />
<line x1="-0.167496" y1="0.665008" x2="-0.29645" y2="1.177" style="stroke:rgb(246,147,147);stroke-width:0.01" />
<line x1="0.232263" y1="0.473934" x2="0.246256" y2="0.502488" style="stroke:rgb(246,147,147);stroke-width:0.01" />
<line x1="0.246565" y1="0.440362" x2="0.246256" y2="0.502488" style="stroke:rgb(246,147,147);stroke-width:0.01" />
<line x1="0.245092" y1="0.736486" x2="0.241931" y2="1.37195" style="stroke:rgb(246,147,147);stroke-width:0.01" />
<line x1="0.244273" y1="0.328475" x2="0.243895" y2="0.366636" style="stroke:rgb(246,147,147);stroke-width:0.01" />
<line x1="0.243895" y1="0.366636" x2="0.115775" y2="1.23763" style="stroke:rgb(246,147,147);stroke-width:0.01" />
<line x1="0.142651" y1="0.354861" x2="0.246297" y2="0.494207" style="stroke:rgb(246,147,147);stroke-width:0.01" />
<line x1="0.085653" y1="0.959049" x2="0.23179" y2="1.37551" style="stroke:rgb(246,147,147);stroke-width:0.01" />
<line x1="0.0455317" y1="0.451981" x2="0.245092" y2="0.736486" style="stroke:rgb(246,147,147);stroke-width:0.01" />
<line x1="0.246565" y1="0.440362" x2="0.232263" y2="0.473934" style="stroke:rgb(246,147,147);stroke-width:0.01" />
<line x1="0.142651" y1="0.354861" x2="0.199597" y2="0.397218" style="stroke:rgb(246,147,147);stroke-width:0.01" />
<line x1="0.191077" y1="0.306435" x2="0.244273" y2="0.328475" style="stroke:rgb(246,147,147);stroke-width:0.01" />
<line x1="0.246256" y1="0.502488" x2="0.212711" y2="0.569245" style="stroke:rgb(246,147,147);stroke-width:0.01" />
<line x1="0.244185" y1="0.337271" x2="0.199597" y2="0.397218" style="stroke:rgb(246,147,147);stroke-width:0.01" />
<line x1="0.191077" y1="0.306435" x2="-0.167496" y2="0.665008" style="stroke:rgb(246,147,147);stroke-width:0.01" />
<line x1="0.0455317" y1="0.451981" x2="0.212711" y2="0.569245" style="stroke:rgb(246,147,147);stroke-width:0.01" />
<line x1="0.246297" y1="0.494207" x2="0.243806" y2="0.497488" style="stroke:rgb(246,147,147);stroke-width:0.01" />
<line x1="0.245092" y1="0.736486" x2="0.085653" y2="0.959049" style="stroke:rgb(246,147,147);stroke-width:0.01" />
<line x1="0.244273" y1="0.328475" x2="0.239298" y2="0.330421" style="stroke:rgb(246,147,147);stroke-width:0.01" />
<line x1="0.232263" y1="0.473934" x2="0.24638" y2="0.47764" style="stroke:rgb(246,147,147);stroke-width:0.01" />
<line x1="0.167479" y1="0.497512" x2="-0.123178" y2="0.653846" style="stroke:rgb(246,147,147);stroke-width:0.01" />
<line x1="0.243806" y1="0.497488" x2="0.246281" y2="0.497512" style="stroke:rgb(246,147,147);stroke-width:0.01" />
<line x1="0.167479" y1="0.497512" x2="0.246281" y2="0.497512" style="stroke:rgb(246,147,147);stroke-width:0.01" />
<line x1="0.24638" y1="0.47764" x2="0.167479" y2="0.497512" style="stroke:rgb(246,147,147);stroke-width:0.01" />
<line x1="0.212711" y1="0.569245" x2="-0.167496" y2="0.665008" style="stroke:rgb(246,147,147);stroke-width:0.01" />
<line x1="-0.156333" y1="0.653846" x2="-0.123178" y2="0.653846" style="stroke:rgb(246,147,147);stroke-width:0.01" />
<line x1="0.085653" y1="0.959049" x2="0.243977" y2="0.960624" style="stroke:rgb(246,147,147);stroke-width:0.01" />
<line x1="-0.156333" y1="0.960624" x2="0.243977" y2="0.960624" style="stroke:rgb(246,147,147);stroke-width:0.01" />
<line x1="-0.29645" y1="1.177" x2="0.241931" y2="1.37195" style="stroke:rgb(246,147,147);stroke-width:0.01" />
<line x1="-0.29645" y1="1.177" x2="0.115775" y2="1.23763" style="stroke:rgb(246,147,147);stroke-width:0.01" />
<line x1="0.241931" y1="1.37195" x2="0.23179" y2="1.37551" style="stroke:rgb(246,147,147);stroke-width:0.01" />
</g>
</svg>
