<svg xmlns="http://www.w3.org/2000/svg" viewBox="-1.5 -1.5 3 3">
<g transform="scale(1, -1)">
<path d="M0.026349 -0.428578 L0.079544 -0.406539 L0.079166 -0.368377 L0.071863 -0.318725 L0.081837 -0.294652 L0.081528 -0.232526 L0.049934 -0.169652 L0.034401 -0.064053 L0.080364 0.001473 L0.077202 0.636939 L0.067061 0.640497 L0.064155 0.632215 L-0.461179 0.441983 L-0.332224 -0.070005 z " fill="rgb(245,195,195)" />
<path d="M-0.164729 -0.735013 L0.835271 -0.735013 L0.835271 0.264987 L-0.164729 0.264987  z" fill="none" stroke="rgb(128,128,128)" stroke-width="0.01" />
<line x1="0.0745696" y1="-0.404592" x2="0.0791661" y2="-0.368377" style="stroke:rgb(246,147,147);stroke-width:0.01" />
<line x1="0.0263487" y1="-0.428578" x2="0.0818368" y2="-0.294652" style="stroke:rgb(246,147,147);stroke-width:0.01" />
<line x1="0.0745696" y1="-0.404592" x2="0.0794568" y2="-0.397742" style="stroke:rgb(246,147,147);stroke-width:0.01" />
<line x1="-0.321062" y1="-0.0811674" x2="-0.321062" y2="0.225611" style="stroke:rgb(246,147,147);stroke-width:0.01" />
<line x1="-0.332224" y1="-0.070005" x2="-0.461179" y2="0.441983" style="stroke:rgb(246,147,147);stroke-width:0.01" />
<line x1="0.0675341" y1="-0.261079" x2="0.0815277" y2="-0.232526" style="stroke:rgb(246,147,147);stroke-width:0.01" />
<line x1="0.0818368" y1="-0.294652" x2="0.0815277" y2="-0.232526" style="stroke:rgb(246,147,147);stroke-width:0.01" />
<line x1="0.0803635" y1="0.00147309" x2="0.077202" y2="0.636939" style="stroke:rgb(246,147,147);stroke-width:0.01" />
<line x1="0.0795439" y1="-0.406539" x2="0.0791661" y2="-0.368377" style="stroke:rgb(246,147,147);stroke-width:0.01" />
<line x1="0.0791661" y1="-0.368377" x2="-0.0489539" y2="0.502619" style="stroke:rgb(246,147,147);stroke-width:0.01" />
<line x1="-0.0220773" y1="-0.380152" x2="0.0815689" y2="-0.240806" style="stroke:rgb(246,147,147);stroke-width:0.01" />
<line x1="-0.0790756" y1="0.224036" x2="0.0670615" y2="0.640497" style="stroke:rgb(246,147,147);stroke-width:0.01" />
<line x1="-0.119197" y1="-0.283033" x2="0.0803635" y2="0.00147309" style="stroke:rgb(246,147,147);stroke-width:0.01" />
<line x1="0.0818368" y1="-0.294652" x2="0.0675341" y2="-0.261079" style="stroke:rgb(246,147,147);stroke-width:0.01" />
<line x1="-0.0220773" y1="-0.380152" x2="0.0348682" y2="-0.337796" style="stroke:rgb(246,147,147);stroke-width:0.01" />
<line x1="0.0263487" y1="-0.428578" x2="0.0795439" y2="-0.406539" style="stroke:rgb(246,147,147);stroke-width:0.01" />
<line x1="0.0815277" y1="-0.232526" x2="0.0479827" y2="-0.165768" style="stroke:rgb(246,147,147);stroke-width:0.01" />
<line x1="0.0794568" y1="-0.397742" x2="0.0348682" y2="-0.337796" style="stroke:rgb(246,147,147);stroke-width:0.01" />
<line x1="0.0263487" y1="-0.428578" x2="-0.332224" y2="-0.070005" style="stroke:rgb(246,147,147);stroke-width:0.01" />
<line x1="-0.119197" y1="-0.283033" x2="0.0479827" y2="-0.165768" style="stroke:rgb(246,147,147);stroke-width:0.01" />
<line x1="0.0815689" y1="-0.240806" x2="0.0790774" y2="-0.237525" style="stroke:rgb(246,147,147);stroke-width:0.01" />
<line x1="0.0803635" y1="0.00147309" x2="-0.0790756" y2="0.224036" style="stroke:rgb(246,147,147);stroke-width:0.01" />
<line x1="0.0795439" y1="-0.406539" x2="0.0745696" y2="-0.404592" style="stroke:rgb(246,147,147);stroke-width:0.01" />
<line x1="0.0675341" y1="-0.261079" x2="0.0816513" y2="-0.257374" style="stroke:rgb(246,147,147);stroke-width:0.01" />
<line x1="0.00275083" y1="-0.237501" x2="-0.287906" y2="-0.0811674" style="stroke:rgb(246,147,147);stroke-width:0.01" />
<line x1="0.0790774" y1="-0.237525" x2="0.0815524" y2="-0.237501" style="stroke:rgb(246,147,147);stroke-width:0.01" />
<line x1="0.00275083" y1="-0.237501" x2="0.0815524" y2="-0.237501" style="stroke:rgb(246,147,147);stroke-width:0.01" />
<line x1="0.0816513" y1="-0.257374" x2="0.00275083" y2="-0.237501" style="stroke:rgb(246,147,147);stroke-width:0.01" />
<line x1="0.0479827" y1="-0.165768" x2="-0.332224" y2="-0.070005" style="stroke:rgb(246,147,147);stroke-width:0.01" />
<line x1="-0.321062" y1="-0.0811674" x2="-0.287906" y2="-0.0811674" style="stroke:rgb(246,147,147);stroke-width:0.01" />
<line x1="-0.0790756" y1="0.224036" x2="0.0792484" y2="0.225611" style="stroke:rgb(246,147,147);stroke-width:0.01" />
<line x1="-0.321062" y1="0.225611" x2="0.0792484" y2="0.225611" style="stroke:rgb(246,147,147);stroke-width:0.01" />
<line x1="-0.461179" y1="0.441983" x2="0.077202" y2="0.636939" style="stroke:rgb(246,147,147);stroke-width:0.01" />
<line x1="-0.461179" y1="0.441983" x2="-0.0489539" y2="0.502619" style="stroke:rgb(246,147,147);stroke-width:0.01" />
<line x1="0.077202" y1="0.636939" x2="0.0670615" y2="0.640497" style="stroke:rgb(246,147,147);stroke-width:0.01" />
</g>
</svg>
