<svg xmlns="http://www.w3.org/2000/svg" viewBox="-1.5 -1.5 3 3">
<g transform="scale(1, -1)">
<path d="M-0.060000 -0.189524 L0.000000 -0.109524 L0.060000 -0.189524 L0.140000 -0.129524 L0.062500 -0.026190 L0.150000 0.090476 L0.100000 0.190476 L-0.100000 0.190476 L-0.150000 0.090476 L-0.062500 -0.026190 L-0.140000 -0.129524 z M0.000000 0.057143 L-0.025000 0.090476 L0.025000 0.090476 z " fill="rgb(245,195,195)" />
<path d="M-0.500000 -0.309524 L0.500000 -0.309524 L0.500000 0.690476 L-0.500000 0.690476  z" fill="none" stroke="rgb(128,128,128)" stroke-width="0.01" />
<line x1="0.06" y1="-0.189524" x2="0.14" y2="-0.129524" style="stroke:rgb(246,147,147);stroke-width:0.01" />
<line x1="-0.06" y1="-0.189524" x2="0.15" y2="0.0904762" style="stroke:rgb(246,147,147);stroke-width:0.01" />
<line x1="-0.14" y1="-0.129524" x2="0.1" y2="0.190476" style="stroke:rgb(246,147,147);stroke-width:0.01" />
<line x1="-0.15" y1="0.0904762" x2="-0.1" y2="0.190476" style="stroke:rgb(246,147,147);stroke-width:0.01" />
<line x1="-0.06" y1="-0.189524" x2="-0.14" y2="-0.129524" style="stroke:rgb(246,147,147);stroke-width:0.01" />
<line x1="0.06" y1="-0.189524" x2="-0.15" y2="0.0904762" style="stroke:rgb(246,147,147);stroke-width:0.01" />
<line x1="0.15" y1="0.0904762" x2="0.1" y2="0.190476" style="stroke:rgb(246,147,147);stroke-width:0.01" />
<line x1="0.14" y1="-0.129524" x2="-0.1" y2="0.190476" style="stroke:rgb(246,147,147);stroke-width:0.01" />
<line x1="-0.15" y1="0.0904762" x2="0.15" y2="0.0904762" style="stroke:rgb(246,147,147);stroke-width:0.01" />
<line x1="-0.1" y1="0.190476" x2="0.1" y2="0.190476" style="stroke:rgb(246,147,147);stroke-width:0.01" />
</g>
</svg>
