<svg xmlns="http://www.w3.org/2000/svg" viewBox="-1.5 -1.5 3 3">
<g transform="scale(1, -1)">
<path d="M-0.665826 -0.271148 L0.234174 -0.271148 L0.234174 -0.251541 L0.314566 -0.251541 L0.314566 0.648459 L0.234174 0.648459 L-0.665826 -0.251541 z " fill="rgb(245,195,195)" />
<path d="M-0.665826 -0.271148 L0.334174 -0.271148 L0.334174 0.728852 L-0.665826 0.728852  z" fill="none" stroke="rgb(128,128,128)" stroke-width="0.01" />
<line x1="-0.665826" y1="-0.271148" x2="0.234174" y2="-0.271148" style="stroke:rgb(246,147,147);stroke-width:0.01" />
<line x1="-0.665826" y1="-0.271148" x2="-0.665826" y2="-0.251541" style="stroke:rgb(246,147,147);stroke-width:0.01" />
<line x1="0.134174" y1="-0.271148" x2="0.134174" y2="0.548459" style="stroke:rgb(246,147,147);stroke-width:0.01" />
<line x1="0.234174" y1="-0.271148" x2="0.234174" y2="0.648459" style="stroke:rgb(246,147,147);stroke-width:0.01" />
<line x1="0.314566" y1="-0.251541" x2="0.314566" y2="0.648459" style="stroke:rgb(246,147,147);stroke-width:0.01" />
<line x1="-0.665826" y1="-0.251541" x2="0.234174" y2="0.648459" style="stroke:rgb(246,147,147);stroke-width:0.01" />
<line x1="-0.665826" y1="-0.251541" x2="0.314566" y2="-0.251541" style="stroke:rgb(246,147,147);stroke-width:0.01" />
<line x1="0.134174" y1="0.548459" x2="0.314566" y2="0.548459" style="stroke:rgb(246,147,147);stroke-width:0.01" />
<line x1="0.234174" y1="0.648459" x2="0.314566" y2="0.648459" style="stroke:rgb(246,147,147);stroke-width:0.01" />
</g>
</svg>
