<svg xmlns="http://www.w3.org/2000/svg" viewBox="-1.5 -1.5 3 3">
<g transform="scale(1, -1)">
<path d="M-0.245726 -0.432644 L0.737746 -0.249156 L0.596972 0.653490 L-0.223527 0.525527 L-0.353212 0.256557 L-0.254477 -0.376528 L-0.257776 -0.377245 z " fill="rgb(245,195,195)" />
<path d="M-1.793421 0.866519 L-0.793421 0.866519 L-0.793421 1.866519 L-1.793421 1.866519  z" fill="none" stroke="rgb(128,128,128)" stroke-width="0.01" />
<line x1="-0.245726" y1="-0.432644" x2="0.737746" y2="-0.249156" style="stroke:rgb(246,147,147);stroke-width:0.01" />
<line x1="-0.257776" y1="-0.377245" x2="0.719372" y2="-0.164689" style="stroke:rgb(246,147,147);stroke-width:0.01" />
<line x1="-0.353212" y1="0.256557" x2="-0.139626" y2="0.378152" style="stroke:rgb(246,147,147);stroke-width:0.01" />
<line x1="-0.353212" y1="0.256557" x2="-0.223527" y2="0.525527" style="stroke:rgb(246,147,147);stroke-width:0.01" />
<line x1="-0.223527" y1="0.525527" x2="0.596972" y2="0.65349" style="stroke:rgb(246,147,147);stroke-width:0.01" />
<line x1="-0.245726" y1="-0.432644" x2="-0.353212" y2="0.256557" style="stroke:rgb(246,147,147);stroke-width:0.01" />
<line x1="-0.245726" y1="-0.432644" x2="-0.257776" y2="-0.377245" style="stroke:rgb(246,147,147);stroke-width:0.01" />
<line x1="0.737746" y1="-0.249156" x2="0.596972" y2="0.65349" style="stroke:rgb(246,147,147);stroke-width:0.01" />
<line x1="0.737746" y1="-0.249156" x2="0.719372" y2="-0.164689" style="stroke:rgb(246,147,147);stroke-width:0.01" />
<line x1="-0.139626" y1="0.378152" x2="-0.223527" y2="0.525527" style="stroke:rgb(246,147,147);stroke-width:0.01" />
</g>
</svg>
