<svg xmlns="http://www.w3.org/2000/svg" viewBox="-1.5 -1.5 3 3">
<g transform="scale(1, -1)">
<path d="M1.547695 -1.299163 L2.531167 -1.115675 L2.390393 -0.213029 L1.569895 -0.340992 L1.440209 -0.609961 L1.538944 -1.243047 L1.535645 -1.243764 z " fill="rgb(245,195,195)" />
<path d="M0.000000 0.000000 L1.000000 0.000000 L1.000000 1.000000 L0.000000 1.000000  z" fill="none" stroke="rgb(128,128,128)" stroke-width="0.01" />
<line x1="1.5477" y1="-1.29916" x2="2.53117" y2="-1.11568" style="stroke:rgb(246,147,147);stroke-width:0.01" />
<line x1="1.53564" y1="-1.24376" x2="2.51279" y2="-1.03121" style="stroke:rgb(246,147,147);stroke-width:0.01" />
<line x1="1.44021" y1="-0.609961" x2="1.6538" y2="-0.488366" style="stroke:rgb(246,147,147);stroke-width:0.01" />
<line x1="1.44021" y1="-0.609961" x2="1.56989" y2="-0.340992" style="stroke:rgb(246,147,147);stroke-width:0.01" />
<line x1="1.56989" y1="-0.340992" x2="2.39039" y2="-0.213029" style="stroke:rgb(246,147,147);stroke-width:0.01" />
<line x1="1.5477" y1="-1.29916" x2="1.44021" y2="-0.609961" style="stroke:rgb(246,147,147);stroke-width:0.01" />
<line x1="1.5477" y1="-1.29916" x2="1.53564" y2="-1.24376" style="stroke:rgb(246,147,147);stroke-width:0.01" />
<line x1="2.53117" y1="-1.11568" x2="2.39039" y2="-0.213029" style="stroke:rgb(246,147,147);stroke-width:0.01" />
<line x1="2.53117" y1="-1.11568" x2="2.51279" y2="-1.03121" style="stroke:rgb(246,147,147);stroke-width:0.01" />
<line x1="1.6538" y1="-0.488366" x2="1.56989" y2="-0.340992" style="stroke:rgb(246,147,147);stroke-width:0.01" />
</g>
</svg>
