<svg xmlns="http://www.w3.org/2000/svg" viewBox="-1.5 -1.5 3 3">
<g transform="scale(1, -1)">
<path d="M-0.092593 -0.324074 L0.407407 -0.324074 L0.407407 -0.074074 L0.157407 0.175926 L-0.009259 0.175926 L-0.092593 0.259259 L-0.342593 0.259259 L-0.342593 -0.074074 L-0.092593 -0.074074 z " fill="rgb(245,195,195)" />
<path d="M-0.342593 -0.324074 L0.657407 -0.324074 L0.657407 0.675926 L-0.342593 0.675926  z" fill="none" stroke="rgb(128,128,128)" stroke-width="0.01" />
<line x1="-0.0925926" y1="-0.324074" x2="0.407407" y2="-0.324074" style="stroke:rgb(246,147,147);stroke-width:0.01" />
<line x1="0.0740741" y1="0.0925926" x2="0.157407" y2="0.175926" style="stroke:rgb(246,147,147);stroke-width:0.01" />
<line x1="-0.342593" y1="-0.0740741" x2="-0.342593" y2="0.259259" style="stroke:rgb(246,147,147);stroke-width:0.01" />
<line x1="-0.0925926" y1="-0.324074" x2="-0.0925926" y2="0.259259" style="stroke:rgb(246,147,147);stroke-width:0.01" />
<line x1="0.407407" y1="-0.324074" x2="0.407407" y2="-0.0740741" style="stroke:rgb(246,147,147);stroke-width:0.01" />
<line x1="-0.342593" y1="-0.0740741" x2="0.407407" y2="-0.0740741" style="stroke:rgb(246,147,147);stroke-width:0.01" />
<line x1="-0.342593" y1="0.0925926" x2="0.0740741" y2="0.0925926" style="stroke:rgb(246,147,147);stroke-width:0.01" />
<line x1="0.0740741" y1="0.0925926" x2="-0.0925926" y2="0.259259" style="stroke:rgb(246,147,147);stroke-width:0.01" />
<line x1="-0.342593" y1="0.175926" x2="0.157407" y2="0.175926" style="stroke:rgb(246,147,147);stroke-width:0.01" />
<line x1="0.407407" y1="-0.0740741" x2="0.157407" y2="0.175926" style="stroke:rgb(246,147,147);stroke-width:0.01" />
<line x1="-0.342593" y1="0.259259" x2="-0.0925926" y2="0.259259" style="stroke:rgb(246,147,147);stroke-width:0.01" />
</g>
</svg>
