<svg xmlns="http://www.w3.org/2000/svg" viewBox="-1.5 -1.5 3 3">
<g transform="scale(1, -1)">
<path d="M-0.136932 -0.623127 L0.680410 0.128395 L0.680410 0.192183 L-0.078455 0.192183 L-0.252512 0.206814 L-0.253742 0.192183 L-0.319590 0.192183 L-0.319590 -0.480814 z " fill="rgb(245,195,195)" />
<path d="M-0.319590 -0.807817 L0.680410 -0.807817 L0.680410 0.192183 L-0.319590 0.192183  z" fill="none" stroke="rgb(128,128,128)" stroke-width="0.01" />
<line x1="-0.31959" y1="-0.480814" x2="-0.31959" y2="0.192183" style="stroke:rgb(246,147,147);stroke-width:0.01" />
<line x1="0.68041" y1="0.128395" x2="0.68041" y2="0.192183" style="stroke:rgb(246,147,147);stroke-width:0.01" />
<line x1="-0.301118" y1="-0.37144" x2="-0.252512" y2="0.206814" style="stroke:rgb(246,147,147);stroke-width:0.01" />
<line x1="-0.136932" y1="-0.623127" x2="0.68041" y2="0.128395" style="stroke:rgb(246,147,147);stroke-width:0.01" />
<line x1="0.0176874" y1="-0.480958" x2="-0.00251465" y2="-0.400852" style="stroke:rgb(246,147,147);stroke-width:0.01" />
<line x1="-0.136932" y1="-0.623127" x2="-0.301118" y2="-0.37144" style="stroke:rgb(246,147,147);stroke-width:0.01" />
<line x1="-0.136932" y1="-0.623127" x2="-0.31959" y2="-0.480814" style="stroke:rgb(246,147,147);stroke-width:0.01" />
<line x1="-0.31959" y1="-0.480814" x2="-0.00251465" y2="-0.400852" style="stroke:rgb(246,147,147);stroke-width:0.01" />
<line x1="0.0176874" y1="-0.480958" x2="-0.301118" y2="-0.37144" style="stroke:rgb(246,147,147);stroke-width:0.01" />
<line x1="-0.31959" y1="0.192183" x2="0.68041" y2="0.192183" style="stroke:rgb(246,147,147);stroke-width:0.01" />
<line x1="0.68041" y1="0.128395" x2="-0.252512" y2="0.206814" style="stroke:rgb(246,147,147);stroke-width:0.01" />
</g>
</svg>
