<svg xmlns="http://www.w3.org/2000/svg" viewBox="-1.5 -1.5 3 3">
<g transform="scale(1, -1)">
<path d="M0.000000 0.000000 L0.222222 0.000000 L0.222222 0.222222 L0.000000 0.222222 L0.000000 0.000000 z " fill="rgb(245,195,195)" />
<path d="M0.000000 0.000000 L1.000000 0.000000 L1.000000 1.000000 L0.000000 1.000000  z" fill="none" stroke="rgb(128,128,128)" stroke-width="0.01" />
<line x1="6.82018e-13" y1="0" x2="0.222222" y2="0" style="stroke:rgb(246,147,147);stroke-width:0.01" />
<line x1="0" y1="6.82018e-13" x2="0" y2="0.222222" style="stroke:rgb(246,147,147);stroke-width:0.01" />
<line x1="6.82018e-13" y1="0" x2="6.82018e-13" y2="6.82018e-13" style="stroke:rgb(246,147,147);stroke-width:0.01" />
<line x1="0.126984" y1="0" x2="0.126984" y2="0.222222" style="stroke:rgb(246,147,147);stroke-width:0.01" />
<line x1="0.174603" y1="0" x2="0.174603" y2="0.222222" style="stroke:rgb(246,147,147);stroke-width:0.01" />
<line x1="0.222222" y1="0" x2="0.222222" y2="0.222222" style="stroke:rgb(246,147,147);stroke-width:0.01" />
<line x1="6.82018e-13" y1="0" x2="0" y2="6.82018e-13" style="stroke:rgb(246,147,147);stroke-width:0.01" />
<line x1="0" y1="6.82018e-13" x2="6.82018e-13" y2="6.82018e-13" style="stroke:rgb(246,147,147);stroke-width:0.01" />
<line x1="0" y1="0.015873" x2="0.222222" y2="0.015873" style="stroke:rgb(246,147,147);stroke-width:0.01" />
<line x1="0" y1="0.126984" x2="0.222222" y2="0.126984" style="stroke:rgb(246,147,147);stroke-width:0.01" />
<line x1="0" y1="0.15873" x2="0.222222" y2="0.15873" style="stroke:rgb(246,147,147);stroke-width:0.01" />
<line x1="0" y1="0.222222" x2="0.222222" y2="0.222222" style="stroke:rgb(246,147,147);stroke-width:0.01" />
</g>
</svg>
