<svg xmlns="http://www.w3.org/2000/svg" viewBox="-1.5 -1.5 3 3">
<g transform="scale(1, -1)">
<path d="M-0.088889 -0.088889 L0.133333 -0.088889 L0.133333 0.133333 L-0.088889 0.133333 L-0.088889 -0.088889 z " fill="rgb(245,195,195)" />
<path d="M-0.088889 -0.088889 L0.911111 -0.088889 L0.911111 0.911111 L-0.088889 0.911111  z" fill="none" stroke="rgb(128,128,128)" stroke-width="0.01" />
<line x1="-0.0888889" y1="-0.0888889" x2="0.133333" y2="-0.0888889" style="stroke:rgb(246,147,147);stroke-width:0.01" />
<line x1="-0.0888889" y1="-0.0888889" x2="-0.0888889" y2="0.133333" style="stroke:rgb(246,147,147);stroke-width:0.01" />
<line x1="-0.0888889" y1="-0.0888889" x2="-0.0888889" y2="-0.0888889" style="stroke:rgb(246,147,147);stroke-width:0.01" />
<line x1="0.0380952" y1="-0.0888889" x2="0.0380952" y2="0.133333" style="stroke:rgb(246,147,147);stroke-width:0.01" />
<line x1="0.0857143" y1="-0.0888889" x2="0.0857143" y2="0.133333" style="stroke:rgb(246,147,147);stroke-width:0.01" />
<line x1="0.133333" y1="-0.0888889" x2="0.133333" y2="0.133333" style="stroke:rgb(246,147,147);stroke-width:0.01" />
<line x1="-0.0888889" y1="-0.0888889" x2="-0.0888889" y2="-0.0888889" style="stroke:rgb(246,147,147);stroke-width:0.01" />
<line x1="-0.0888889" y1="-0.0888889" x2="-0.0888889" y2="-0.0888889" style="stroke:rgb(246,147,147);stroke-width:0.01" />
<line x1="-0.0888889" y1="-0.0730159" x2="0.133333" y2="-0.0730159" style="stroke:rgb(246,147,147);stroke-width:0.01" />
<line x1="-0.0888889" y1="0.0380952" x2="0.133333" y2="0.0380952" style="stroke:rgb(246,147,147);stroke-width:0.01" />
<line x1="-0.0888889" y1="0.0698413" x2="0.133333" y2="0.0698413" style="stroke:rgb(246,147,147);stroke-width:0.01" />
<line x1="-0.0888889" y1="0.133333" x2="0.133333" y2="0.133333" style="stroke:rgb(246,147,147);stroke-width:0.01" />
</g>
</svg>
