<svg xmlns="http://www.w3.org/2000/svg" viewBox="-1.5 -1.5 3 3">
<g transform="scale(1, -1)">
<path d="M0.125000 -0.375000 L0.325000 -0.225000 L0.375000 0.125000 L0.225000 0.325000 L0.025000 0.175000 L-0.125000 0.375000 L-0.325000 0.225000 L-0.375000 -0.125000 L-0.225000 -0.325000 L-0.025000 -0.175000 z " fill="rgb(245,195,195)" />
<path d="M-0.075000 -0.525000 L0.925000 -0.525000 L0.925000 0.475000 L-0.075000 0.475000  z" fill="none" stroke="rgb(128,128,128)" stroke-width="0.01" />
<line x1="0.325" y1="-0.225" x2="0.375" y2="0.125" style="stroke:rgb(246,147,147);stroke-width:0.01" />
<line x1="0.125" y1="-0.375" x2="0.325" y2="-0.225" style="stroke:rgb(246,147,147);stroke-width:0.01" />
<line x1="-0.225" y1="-0.325" x2="-0.375" y2="-0.125" style="stroke:rgb(246,147,147);stroke-width:0.01" />
<line x1="-0.375" y1="-0.125" x2="-0.325" y2="0.225" style="stroke:rgb(246,147,147);stroke-width:0.01" />
<line x1="0.125" y1="-0.375" x2="-0.325" y2="0.225" style="stroke:rgb(246,147,147);stroke-width:0.01" />
<line x1="-0.225" y1="-0.325" x2="0.375" y2="0.125" style="stroke:rgb(246,147,147);stroke-width:0.01" />
<line x1="0.325" y1="-0.225" x2="-0.125" y2="0.375" style="stroke:rgb(246,147,147);stroke-width:0.01" />
<line x1="0.325" y1="-0.225" x2="-0.375" y2="-0.125" style="stroke:rgb(246,147,147);stroke-width:0.01" />
<line x1="-0.375" y1="-0.125" x2="0.225" y2="0.325" style="stroke:rgb(246,147,147);stroke-width:0.01" />
<line x1="0.375" y1="0.125" x2="0.225" y2="0.325" style="stroke:rgb(246,147,147);stroke-width:0.01" />
<line x1="-0.325" y1="0.225" x2="-0.125" y2="0.375" style="stroke:rgb(246,147,147);stroke-width:0.01" />
</g>
</svg>
