<svg xmlns="http://www.w3.org/2000/svg" viewBox="-1.5 -1.5 3 3">
<g transform="scale(1, -1)">
<path d="M-0.145512 -0.268774 L0.037070 -0.054980 L0.072162 -0.139202 L0.343656 -0.026080 L0.247502 0.204690 L-0.108833 0.295187 L-0.234415 0.193928 L-0.239810 -0.188242 z M0.026037 -0.028502 L-0.006859 -0.000408 L0.009002 0.012382 z " fill="rgb(245,195,195)" />
<path d="M0.343656 -0.026080 L1.343656 -0.026080 L1.343656 0.973920 L0.343656 0.973920  z" fill="none" stroke="rgb(128,128,128)" stroke-width="0.01" />
<line x1="-0.145512" y1="-0.268774" x2="-0.23981" y2="-0.188242" style="stroke:rgb(246,147,147);stroke-width:0.01" />
<line x1="-0.107311" y1="-0.224042" x2="-0.238731" y2="-0.111808" style="stroke:rgb(246,147,147);stroke-width:0.01" />
<line x1="0.0454934" y1="-0.0451173" x2="-0.234415" y2="0.193928" style="stroke:rgb(246,147,147);stroke-width:0.01" />
<line x1="0.0721623" y1="-0.139202" x2="-0.108833" y2="0.295187" style="stroke:rgb(246,147,147);stroke-width:0.01" />
<line x1="0.289357" y1="-0.0487041" x2="0.176235" y2="0.222789" style="stroke:rgb(246,147,147);stroke-width:0.01" />
<line x1="0.343656" y1="-0.0260796" x2="0.247502" y2="0.20469" style="stroke:rgb(246,147,147);stroke-width:0.01" />
<line x1="0.343656" y1="-0.0260796" x2="0.247502" y2="0.20469" style="stroke:rgb(246,147,147);stroke-width:0.01" />
<line x1="0.343656" y1="-0.0260796" x2="0.343656" y2="-0.0260796" style="stroke:rgb(246,147,147);stroke-width:0.01" />
<line x1="0.0721623" y1="-0.139202" x2="0.343656" y2="-0.0260796" style="stroke:rgb(246,147,147);stroke-width:0.01" />
<line x1="-0.23981" y1="-0.188242" x2="-0.234415" y2="0.193928" style="stroke:rgb(246,147,147);stroke-width:0.01" />
<line x1="-0.145512" y1="-0.268774" x2="0.0454934" y2="-0.0451173" style="stroke:rgb(246,147,147);stroke-width:0.01" />
<line x1="-0.23981" y1="-0.188242" x2="0.247502" y2="0.20469" style="stroke:rgb(246,147,147);stroke-width:0.01" />
<line x1="0.247502" y1="0.20469" x2="-0.108833" y2="0.295187" style="stroke:rgb(246,147,147);stroke-width:0.01" />
<line x1="-0.238731" y1="-0.111808" x2="0.176235" y2="0.222789" style="stroke:rgb(246,147,147);stroke-width:0.01" />
<line x1="-0.234415" y1="0.193928" x2="-0.108833" y2="0.295187" style="stroke:rgb(246,147,147);stroke-width:0.01" />
</g>
</svg>
