<svg xmlns="http://www.w3.org/2000/svg" viewBox="-1.5 -1.5 3 3">
<g transform="scale(1, -1)">
<path d="M-0.192720 -0.283190 L-0.166667 -0.062500 L0.151910 -0.062500 L0.292535 0.062500 L0.316858 0.268534 L0.192720 0.283190 L0.166667 0.062500 L-0.151910 0.062500 L-0.292535 -0.062500 L-0.316858 -0.268534 z " fill="rgb(245,195,195)" />
<path d="M-0.500000 -0.062500 L0.500000 -0.062500 L0.500000 0.937500 L-0.500000 0.937500  z" fill="none" stroke="rgb(128,128,128)" stroke-width="0.01" />
<line x1="0.15191" y1="-0.0625" x2="0.292535" y2="0.0625" style="stroke:rgb(246,147,147);stroke-width:0.01" />
<line x1="-0.19272" y1="-0.28319" x2="-0.316858" y2="-0.268534" style="stroke:rgb(246,147,147);stroke-width:0.01" />
<line x1="-0.292535" y1="-0.0625" x2="-0.15191" y2="0.0625" style="stroke:rgb(246,147,147);stroke-width:0.01" />
<line x1="0.292535" y1="0.0625" x2="0.316858" y2="0.268534" style="stroke:rgb(246,147,147);stroke-width:0.01" />
<line x1="0.15191" y1="-0.0625" x2="0.19272" y2="0.28319" style="stroke:rgb(246,147,147);stroke-width:0.01" />
<line x1="-0.19272" y1="-0.28319" x2="-0.15191" y2="0.0625" style="stroke:rgb(246,147,147);stroke-width:0.01" />
<line x1="-0.316858" y1="-0.268534" x2="-0.292535" y2="-0.0625" style="stroke:rgb(246,147,147);stroke-width:0.01" />
<line x1="-0.292535" y1="-0.0625" x2="0.15191" y2="-0.0625" style="stroke:rgb(246,147,147);stroke-width:0.01" />
<line x1="-0.15191" y1="0.0625" x2="0.292535" y2="0.0625" style="stroke:rgb(246,147,147);stroke-width:0.01" />
<line x1="0.316858" y1="0.268534" x2="0.19272" y2="0.28319" style="stroke:rgb(246,147,147);stroke-width:0.01" />
</g>
</svg>
