<svg xmlns="http://www.w3.org/2000/svg" viewBox="-1.5 -1.5 3 3">
<g transform="scale(1, -1)">
<path d="M0.307280 -0.220690 L0.333333 0.000000 L0.651910 0.000000 L0.792535 0.125000 L0.816858 0.331034 L0.692720 0.345690 L0.666667 0.125000 L0.348090 0.125000 L0.207465 0.000000 L0.183142 -0.206034 z " fill="rgb(245,195,195)" />
<path d="M0.000000 0.000000 L1.000000 0.000000 L1.000000 1.000000 L0.000000 1.000000  z" fill="none" stroke="rgb(128,128,128)" stroke-width="0.01" />
<line x1="0.65191" y1="0" x2="0.792535" y2="0.125" style="stroke:rgb(246,147,147);stroke-width:0.01" />
<line x1="0.30728" y1="-0.22069" x2="0.183142" y2="-0.206034" style="stroke:rgb(246,147,147);stroke-width:0.01" />
<line x1="0.207465" y1="0" x2="0.34809" y2="0.125" style="stroke:rgb(246,147,147);stroke-width:0.01" />
<line x1="0.792535" y1="0.125" x2="0.816858" y2="0.331034" style="stroke:rgb(246,147,147);stroke-width:0.01" />
<line x1="0.65191" y1="0" x2="0.69272" y2="0.34569" style="stroke:rgb(246,147,147);stroke-width:0.01" />
<line x1="0.30728" y1="-0.22069" x2="0.34809" y2="0.125" style="stroke:rgb(246,147,147);stroke-width:0.01" />
<line x1="0.183142" y1="-0.206034" x2="0.207465" y2="0" style="stroke:rgb(246,147,147);stroke-width:0.01" />
<line x1="0.207465" y1="0" x2="0.65191" y2="0" style="stroke:rgb(246,147,147);stroke-width:0.01" />
<line x1="0.34809" y1="0.125" x2="0.792535" y2="0.125" style="stroke:rgb(246,147,147);stroke-width:0.01" />
<line x1="0.816858" y1="0.331034" x2="0.69272" y2="0.34569" style="stroke:rgb(246,147,147);stroke-width:0.01" />
</g>
</svg>
