<svg xmlns="http://www.w3.org/2000/svg" viewBox="-1.5 -1.5 3 3">
<g transform="scale(1, -1)">
<path d="M0.666164 -0.315507 L0.118239 0.395041 L-0.178941 0.223526 L-0.335810 -0.046685 L-0.119603 -0.172203 L-0.063818 -0.076111 L-0.086230 -0.008061 z " fill="rgb(245,195,195)" />
<path d="M-1.482362 0.194694 L-0.482362 0.194694 L-0.482362 1.194694 L-1.482362 1.194694  z" fill="none" stroke="rgb(128,128,128)" stroke-width="0.01" />
<line x1="-0.33581" y1="-0.0466853" x2="-0.154776" y2="0.125728" style="stroke:rgb(246,147,147);stroke-width:0.01" />
<line x1="-0.119603" y1="-0.172203" x2="-0.0638178" y2="-0.0761106" style="stroke:rgb(246,147,147);stroke-width:0.01" />
<line x1="-0.24578" y1="0.0481394" x2="-0.188587" y2="0.0892247" style="stroke:rgb(246,147,147);stroke-width:0.01" />
<line x1="-0.231656" y1="0.132724" x2="0.117638" y2="0.394694" style="stroke:rgb(246,147,147);stroke-width:0.01" />
<line x1="-0.33581" y1="-0.0466853" x2="-0.198868" y2="0.0114239" style="stroke:rgb(246,147,147);stroke-width:0.01" />
<line x1="-0.33581" y1="-0.0466853" x2="-0.178941" y2="0.223526" style="stroke:rgb(246,147,147);stroke-width:0.01" />
<line x1="-0.208802" y1="0.168677" x2="-0.17822" y2="0.223942" style="stroke:rgb(246,147,147);stroke-width:0.01" />
<line x1="-0.178941" y1="0.223526" x2="0.118239" y2="0.395041" style="stroke:rgb(246,147,147);stroke-width:0.01" />
<line x1="-0.158053" y1="0.223569" x2="0.137783" y2="0.347494" style="stroke:rgb(246,147,147);stroke-width:0.01" />
<line x1="-0.24578" y1="0.0481394" x2="-0.174695" y2="0.225976" style="stroke:rgb(246,147,147);stroke-width:0.01" />
<line x1="-0.18274" y1="0.216982" x2="-0.171367" y2="0.219542" style="stroke:rgb(246,147,147);stroke-width:0.01" />
<line x1="-0.198868" y1="0.0114239" x2="-0.170172" y2="0.228587" style="stroke:rgb(246,147,147);stroke-width:0.01" />
<line x1="-0.249554" y1="-0.0100841" x2="-0.231656" y2="0.132724" style="stroke:rgb(246,147,147);stroke-width:0.01" />
<line x1="-0.178941" y1="0.223526" x2="-0.158053" y2="0.223569" style="stroke:rgb(246,147,147);stroke-width:0.01" />
<line x1="-0.158053" y1="0.223569" x2="-0.17822" y2="0.223942" style="stroke:rgb(246,147,147);stroke-width:0.01" />
<line x1="-0.158053" y1="0.223569" x2="-0.158803" y2="0.235149" style="stroke:rgb(246,147,147);stroke-width:0.01" />
<line x1="-0.154776" y1="0.125728" x2="-0.22853" y2="0.138107" style="stroke:rgb(246,147,147);stroke-width:0.01" />
<line x1="-0.158053" y1="0.223569" x2="-0.174695" y2="0.225976" style="stroke:rgb(246,147,147);stroke-width:0.01" />
<line x1="-0.0638178" y1="-0.0761106" x2="-0.294843" y2="0.0238822" style="stroke:rgb(246,147,147);stroke-width:0.01" />
<line x1="0.666164" y1="-0.315507" x2="-0.269832" y2="0.0669632" style="stroke:rgb(246,147,147);stroke-width:0.01" />
<line x1="-0.119603" y1="-0.172203" x2="-0.33581" y2="-0.0466853" style="stroke:rgb(246,147,147);stroke-width:0.01" />
<line x1="-0.154776" y1="0.125728" x2="-0.18274" y2="0.216982" style="stroke:rgb(246,147,147);stroke-width:0.01" />
<line x1="-0.0638178" y1="-0.0761106" x2="-0.16513" y2="0.231497" style="stroke:rgb(246,147,147);stroke-width:0.01" />
<line x1="-0.249554" y1="-0.0100841" x2="-0.294843" y2="0.0238822" style="stroke:rgb(246,147,147);stroke-width:0.01" />
<line x1="-0.158053" y1="0.223569" x2="-0.170172" y2="0.228587" style="stroke:rgb(246,147,147);stroke-width:0.01" />
<line x1="-0.198868" y1="0.0114239" x2="-0.269832" y2="0.0669632" style="stroke:rgb(246,147,147);stroke-width:0.01" />
<line x1="0.666164" y1="-0.315507" x2="-0.208802" y2="0.168677" style="stroke:rgb(246,147,147);stroke-width:0.01" />
<line x1="-0.171367" y1="0.219542" x2="-0.178941" y2="0.223526" style="stroke:rgb(246,147,147);stroke-width:0.01" />
<line x1="-0.188587" y1="0.0892247" x2="-0.22853" y2="0.138107" style="stroke:rgb(246,147,147);stroke-width:0.01" />
<line x1="0.137783" y1="0.347494" x2="0.118239" y2="0.395041" style="stroke:rgb(246,147,147);stroke-width:0.01" />
<line x1="0.137783" y1="0.347494" x2="0.117638" y2="0.394694" style="stroke:rgb(246,147,147);stroke-width:0.01" />
<line x1="0.666164" y1="-0.315507" x2="-0.178941" y2="0.223526" style="stroke:rgb(246,147,147);stroke-width:0.01" />
<line x1="0.666164" y1="-0.315507" x2="-0.158803" y2="0.235149" style="stroke:rgb(246,147,147);stroke-width:0.01" />
<line x1="-0.158053" y1="0.223569" x2="-0.16513" y2="0.231497" style="stroke:rgb(246,147,147);stroke-width:0.01" />
<line x1="0.666164" y1="-0.315507" x2="0.118239" y2="0.395041" style="stroke:rgb(246,147,147);stroke-width:0.01" />
</g>
</svg>
