<svg xmlns="http://www.w3.org/2000/svg" viewBox="-1.5 -1.5 3 3">
<g transform="scale(1, -1)">
<path d="M-0.292857 -0.621429 L0.307143 -0.171429 L0.357143 0.178571 L0.157143 0.028571 L0.007143 0.228571 L-0.342857 0.278571 L-0.192857 0.078571 z " fill="rgb(245,195,195)" />
<path d="M-0.292857 -0.621429 L0.707143 -0.621429 L0.707143 0.378571 L-0.292857 0.378571  z" fill="none" stroke="rgb(128,128,128)" stroke-width="0.01" />
<line x1="0.307143" y1="-0.171429" x2="0.357143" y2="0.178571" style="stroke:rgb(246,147,147);stroke-width:0.01" />
<line x1="-0.0428571" y1="-0.121429" x2="0.00714286" y2="0.228571" style="stroke:rgb(246,147,147);stroke-width:0.01" />
<line x1="-0.292857" y1="-0.621429" x2="0.307143" y2="-0.171429" style="stroke:rgb(246,147,147);stroke-width:0.01" />
<line x1="-0.292857" y1="-0.621429" x2="-0.192857" y2="0.0785714" style="stroke:rgb(246,147,147);stroke-width:0.01" />
<line x1="-0.0928571" y1="-0.471429" x2="-0.242857" y2="-0.271429" style="stroke:rgb(246,147,147);stroke-width:0.01" />
<line x1="-0.242857" y1="-0.271429" x2="0.357143" y2="0.178571" style="stroke:rgb(246,147,147);stroke-width:0.01" />
<line x1="0.107143" y1="-0.321429" x2="-0.342857" y2="0.278571" style="stroke:rgb(246,147,147);stroke-width:0.01" />
<line x1="-0.192857" y1="0.0785714" x2="0.00714286" y2="0.228571" style="stroke:rgb(246,147,147);stroke-width:0.01" />
<line x1="0.307143" y1="-0.171429" x2="0.00714286" y2="0.228571" style="stroke:rgb(246,147,147);stroke-width:0.01" />
<line x1="0.307143" y1="-0.171429" x2="-0.0428571" y2="-0.121429" style="stroke:rgb(246,147,147);stroke-width:0.01" />
<line x1="0.00714286" y1="0.228571" x2="-0.342857" y2="0.278571" style="stroke:rgb(246,147,147);stroke-width:0.01" />
</g>
</svg>
