<svg xmlns="http://www.w3.org/2000/svg" viewBox="-1.5 -1.5 3 3">
<g transform="scale(1, -1)">
<path d="M-0.200000 -0.400000 L0.050000 -0.400000 L0.150000 -0.200000 L0.400000 -0.200000 L0.400000 0.050000 L0.200000 0.150000 L0.200000 0.400000 L-0.050000 0.400000 L-0.150000 0.200000 L-0.400000 0.200000 L-0.400000 -0.050000 L-0.200000 -0.150000 z " fill="rgb(245,195,195)" />
<path d="M-0.500000 -0.500000 L0.500000 -0.500000 L0.500000 0.500000 L-0.500000 0.500000  z" fill="none" stroke="rgb(128,128,128)" stroke-width="0.01" />
<line x1="0.05" y1="-0.4" x2="0.2" y2="-0.1" style="stroke:rgb(246,147,147);stroke-width:0.01" />
<line x1="-0.1" y1="-0.2" x2="0.1" y2="0.2" style="stroke:rgb(246,147,147);stroke-width:0.01" />
<line x1="0.2" y1="-0.1" x2="0.4" y2="0.05" style="stroke:rgb(246,147,147);stroke-width:0.01" />
<line x1="-0.2" y1="0.1" x2="-0.05" y2="0.4" style="stroke:rgb(246,147,147);stroke-width:0.01" />
<line x1="-0.4" y1="-0.05" x2="-0.4" y2="0.2" style="stroke:rgb(246,147,147);stroke-width:0.01" />
<line x1="-0.2" y1="-0.4" x2="-0.2" y2="0.1" style="stroke:rgb(246,147,147);stroke-width:0.01" />
<line x1="0.2" y1="-0.1" x2="0.2" y2="0.4" style="stroke:rgb(246,147,147);stroke-width:0.01" />
<line x1="0.4" y1="-0.2" x2="0.4" y2="0.05" style="stroke:rgb(246,147,147);stroke-width:0.01" />
<line x1="-0.2" y1="-0.4" x2="0.05" y2="-0.4" style="stroke:rgb(246,147,147);stroke-width:0.01" />
<line x1="-0.1" y1="-0.2" x2="0.2" y2="-0.1" style="stroke:rgb(246,147,147);stroke-width:0.01" />
<line x1="-0.1" y1="-0.2" x2="-0.2" y2="0.1" style="stroke:rgb(246,147,147);stroke-width:0.01" />
<line x1="-0.4" y1="-0.05" x2="-0.2" y2="0.1" style="stroke:rgb(246,147,147);stroke-width:0.01" />
<line x1="0.2" y1="-0.1" x2="0.1" y2="0.2" style="stroke:rgb(246,147,147);stroke-width:0.01" />
<line x1="-0.1" y1="-0.2" x2="0.4" y2="-0.2" style="stroke:rgb(246,147,147);stroke-width:0.01" />
<line x1="0.05" y1="-0.4" x2="-0.1" y2="-0.2" style="stroke:rgb(246,147,147);stroke-width:0.01" />
<line x1="-0.1" y1="-0.2" x2="-0.4" y2="-0.05" style="stroke:rgb(246,147,147);stroke-width:0.01" />
<line x1="-0.2" y1="0.1" x2="0.1" y2="0.2" style="stroke:rgb(246,147,147);stroke-width:0.01" />
<line x1="0.1" y1="0.2" x2="-0.05" y2="0.4" style="stroke:rgb(246,147,147);stroke-width:0.01" />
<line x1="0.2" y1="-0.1" x2="-0.2" y2="0.1" style="stroke:rgb(246,147,147);stroke-width:0.01" />
<line x1="-0.4" y1="0.2" x2="0.1" y2="0.2" style="stroke:rgb(246,147,147);stroke-width:0.01" />
<line x1="0.4" y1="0.05" x2="0.1" y2="0.2" style="stroke:rgb(246,147,147);stroke-width:0.01" />
<line x1="-0.05" y1="0.4" x2="0.2" y2="0.4" style="stroke:rgb(246,147,147);stroke-width:0.01" />
</g>
</svg>
