<svg xmlns="http://www.w3.org/2000/svg" viewBox="-1.5 -1.5 3 3">
<g transform="scale(1, -1)">
<path d="M0.300000 0.100000 L0.550000 0.100000 L0.650000 0.300000 L0.900000 0.300000 L0.900000 0.550000 L0.700000 0.650000 L0.700000 0.900000 L0.450000 0.900000 L0.350000 0.700000 L0.100000 0.700000 L0.100000 0.450000 L0.300000 0.350000 z " fill="rgb(245,195,195)" />
<path d="M0.000000 0.000000 L1.000000 0.000000 L1.000000 1.000000 L0.000000 1.000000  z" fill="none" stroke="rgb(128,128,128)" stroke-width="0.01" />
<line x1="0.55" y1="0.1" x2="0.7" y2="0.4" style="stroke:rgb(246,147,147);stroke-width:0.01" />
<line x1="0.4" y1="0.3" x2="0.6" y2="0.7" style="stroke:rgb(246,147,147);stroke-width:0.01" />
<line x1="0.7" y1="0.4" x2="0.9" y2="0.55" style="stroke:rgb(246,147,147);stroke-width:0.01" />
<line x1="0.3" y1="0.6" x2="0.45" y2="0.9" style="stroke:rgb(246,147,147);stroke-width:0.01" />
<line x1="0.1" y1="0.45" x2="0.1" y2="0.7" style="stroke:rgb(246,147,147);stroke-width:0.01" />
<line x1="0.3" y1="0.1" x2="0.3" y2="0.6" style="stroke:rgb(246,147,147);stroke-width:0.01" />
<line x1="0.7" y1="0.4" x2="0.7" y2="0.9" style="stroke:rgb(246,147,147);stroke-width:0.01" />
<line x1="0.9" y1="0.3" x2="0.9" y2="0.55" style="stroke:rgb(246,147,147);stroke-width:0.01" />
<line x1="0.3" y1="0.1" x2="0.55" y2="0.1" style="stroke:rgb(246,147,147);stroke-width:0.01" />
<line x1="0.4" y1="0.3" x2="0.7" y2="0.4" style="stroke:rgb(246,147,147);stroke-width:0.01" />
<line x1="0.4" y1="0.3" x2="0.3" y2="0.6" style="stroke:rgb(246,147,147);stroke-width:0.01" />
<line x1="0.1" y1="0.45" x2="0.3" y2="0.6" style="stroke:rgb(246,147,147);stroke-width:0.01" />
<line x1="0.7" y1="0.4" x2="0.6" y2="0.7" style="stroke:rgb(246,147,147);stroke-width:0.01" />
<line x1="0.4" y1="0.3" x2="0.9" y2="0.3" style="stroke:rgb(246,147,147);stroke-width:0.01" />
<line x1="0.55" y1="0.1" x2="0.4" y2="0.3" style="stroke:rgb(246,147,147);stroke-width:0.01" />
<line x1="0.4" y1="0.3" x2="0.1" y2="0.45" style="stroke:rgb(246,147,147);stroke-width:0.01" />
<line x1="0.3" y1="0.6" x2="0.6" y2="0.7" style="stroke:rgb(246,147,147);stroke-width:0.01" />
<line x1="0.6" y1="0.7" x2="0.45" y2="0.9" style="stroke:rgb(246,147,147);stroke-width:0.01" />
<line x1="0.7" y1="0.4" x2="0.3" y2="0.6" style="stroke:rgb(246,147,147);stroke-width:0.01" />
<line x1="0.1" y1="0.7" x2="0.6" y2="0.7" style="stroke:rgb(246,147,147);stroke-width:0.01" />
<line x1="0.9" y1="0.55" x2="0.6" y2="0.7" style="stroke:rgb(246,147,147);stroke-width:0.01" />
<line x1="0.45" y1="0.9" x2="0.7" y2="0.9" style="stroke:rgb(246,147,147);stroke-width:0.01" />
</g>
</svg>
