<svg xmlns="http://www.w3.org/2000/svg" viewBox="-1.5 -1.5 3 3">
<g transform="scale(1, -1)">
<path d="M-0.326389 -0.187500 L-0.201389 -0.187500 L-0.013889 0.000000 L0.048611 -0.062500 L0.173611 0.062500 L0.423611 0.062500 L0.298611 0.187500 L-0.201389 0.187500 L-0.201389 -0.062500 z " fill="rgb(245,195,195)" />
<path d="M-0.326389 -0.250000 L0.673611 -0.250000 L0.673611 0.750000 L-0.326389 0.750000  z" fill="none" stroke="rgb(128,128,128)" stroke-width="0.01" />
<line x1="0.0486111" y1="-0.0625" x2="0.298611" y2="0.1875" style="stroke:rgb(246,147,147);stroke-width:0.01" />
<line x1="-0.201389" y1="-0.1875" x2="0.173611" y2="0.1875" style="stroke:rgb(246,147,147);stroke-width:0.01" />
<line x1="-0.201389" y1="-0.1875" x2="-0.201389" y2="0.1875" style="stroke:rgb(246,147,147);stroke-width:0.01" />
<line x1="-0.326389" y1="-0.1875" x2="0.0486111" y2="0.1875" style="stroke:rgb(246,147,147);stroke-width:0.01" />
<line x1="-0.326389" y1="-0.1875" x2="-0.201389" y2="-0.1875" style="stroke:rgb(246,147,147);stroke-width:0.01" />
<line x1="-0.201389" y1="0.0625" x2="-0.0763889" y2="0.1875" style="stroke:rgb(246,147,147);stroke-width:0.01" />
<line x1="0.0486111" y1="-0.0625" x2="-0.201389" y2="0.1875" style="stroke:rgb(246,147,147);stroke-width:0.01" />
<line x1="-0.201389" y1="0.0625" x2="0.423611" y2="0.0625" style="stroke:rgb(246,147,147);stroke-width:0.01" />
<line x1="0.111111" y1="0" x2="-0.0763889" y2="0.1875" style="stroke:rgb(246,147,147);stroke-width:0.01" />
<line x1="0.173611" y1="0.0625" x2="0.0486111" y2="0.1875" style="stroke:rgb(246,147,147);stroke-width:0.01" />
<line x1="-0.201389" y1="0.1875" x2="0.298611" y2="0.1875" style="stroke:rgb(246,147,147);stroke-width:0.01" />
<line x1="0.236111" y1="0.125" x2="0.173611" y2="0.1875" style="stroke:rgb(246,147,147);stroke-width:0.01" />
<line x1="0.423611" y1="0.0625" x2="0.298611" y2="0.1875" style="stroke:rgb(246,147,147);stroke-width:0.01" />
</g>
</svg>
