<svg xmlns="http://www.w3.org/2000/svg" viewBox="-1.5 -1.5 3 3">
<g transform="scale(1, -1)">
<path d="M0.277778 0.111111 L0.333333 0.111111 L0.500000 0.277778 L0.500000 0.555556 L0.333333 0.555556 L0.333333 0.500000 L0.277778 0.500000 L0.111111 0.333333 L0.111111 0.277778 z M0.277778 0.277778 L0.277778 0.333333 L0.333333 0.333333 L0.333333 0.277778 z " fill="rgb(245,195,195)" />
<path d="M0.000000 0.000000 L1.000000 0.000000 L1.000000 1.000000 L0.000000 1.000000  z" fill="none" stroke="rgb(128,128,128)" stroke-width="0.01" />
<line x1="0.333333" y1="0.111111" x2="0.5" y2="0.277778" style="stroke:rgb(246,147,147);stroke-width:0.01" />
<line x1="0.111111" y1="0.277778" x2="0.111111" y2="0.333333" style="stroke:rgb(246,147,147);stroke-width:0.01" />
<line x1="0.277778" y1="0.111111" x2="0.277778" y2="0.5" style="stroke:rgb(246,147,147);stroke-width:0.01" />
<line x1="0.333333" y1="0.111111" x2="0.333333" y2="0.555556" style="stroke:rgb(246,147,147);stroke-width:0.01" />
<line x1="0.388889" y1="0.333333" x2="0.388889" y2="0.5" style="stroke:rgb(246,147,147);stroke-width:0.01" />
<line x1="0.5" y1="0.277778" x2="0.5" y2="0.555556" style="stroke:rgb(246,147,147);stroke-width:0.01" />
<line x1="0.111111" y1="0.333333" x2="0.277778" y2="0.5" style="stroke:rgb(246,147,147);stroke-width:0.01" />
<line x1="0.277778" y1="0.111111" x2="0.333333" y2="0.111111" style="stroke:rgb(246,147,147);stroke-width:0.01" />
<line x1="0.277778" y1="0.111111" x2="0.111111" y2="0.277778" style="stroke:rgb(246,147,147);stroke-width:0.01" />
<line x1="0.111111" y1="0.277778" x2="0.5" y2="0.277778" style="stroke:rgb(246,147,147);stroke-width:0.01" />
<line x1="0.111111" y1="0.333333" x2="0.388889" y2="0.333333" style="stroke:rgb(246,147,147);stroke-width:0.01" />
<line x1="0.277778" y1="0.5" x2="0.388889" y2="0.5" style="stroke:rgb(246,147,147);stroke-width:0.01" />
<line x1="0.333333" y1="0.555556" x2="0.5" y2="0.555556" style="stroke:rgb(246,147,147);stroke-width:0.01" />
</g>
</svg>
