<svg xmlns="http://www.w3.org/2000/svg" viewBox="-1.5 -1.5 3 3">
<g transform="scale(1, -1)">
<path d="M-0.029915 -0.230769 L0.025641 -0.230769 L0.192308 -0.064103 L0.192308 0.213675 L0.025641 0.213675 L0.025641 0.158120 L-0.029915 0.158120 L-0.196581 -0.008547 L-0.196581 -0.064103 z M-0.029915 -0.064103 L-0.029915 -0.008547 L0.025641 -0.008547 L0.025641 -0.064103 z " fill="rgb(245,195,195)" />
<path d="M-0.307692 -0.341880 L0.692308 -0.341880 L0.692308 0.658120 L-0.307692 0.658120  z" fill="none" stroke="rgb(128,128,128)" stroke-width="0.01" />
<line x1="0.025641" y1="-0.230769" x2="0.192308" y2="-0.0641026" style="stroke:rgb(246,147,147);stroke-width:0.01" />
<line x1="-0.196581" y1="-0.0641026" x2="-0.196581" y2="-0.00854701" style="stroke:rgb(246,147,147);stroke-width:0.01" />
<line x1="-0.0299145" y1="-0.230769" x2="-0.0299145" y2="0.15812" style="stroke:rgb(246,147,147);stroke-width:0.01" />
<line x1="0.025641" y1="-0.230769" x2="0.025641" y2="0.213675" style="stroke:rgb(246,147,147);stroke-width:0.01" />
<line x1="0.0811966" y1="-0.00854701" x2="0.0811966" y2="0.15812" style="stroke:rgb(246,147,147);stroke-width:0.01" />
<line x1="0.192308" y1="-0.0641026" x2="0.192308" y2="0.213675" style="stroke:rgb(246,147,147);stroke-width:0.01" />
<line x1="-0.196581" y1="-0.00854701" x2="-0.0299145" y2="0.15812" style="stroke:rgb(246,147,147);stroke-width:0.01" />
<line x1="-0.0299145" y1="-0.230769" x2="0.025641" y2="-0.230769" style="stroke:rgb(246,147,147);stroke-width:0.01" />
<line x1="-0.0299145" y1="-0.230769" x2="-0.196581" y2="-0.0641026" style="stroke:rgb(246,147,147);stroke-width:0.01" />
<line x1="-0.196581" y1="-0.0641026" x2="0.192308" y2="-0.0641026" style="stroke:rgb(246,147,147);stroke-width:0.01" />
<line x1="-0.196581" y1="-0.00854701" x2="0.0811966" y2="-0.00854701" style="stroke:rgb(246,147,147);stroke-width:0.01" />
<line x1="-0.0299145" y1="0.15812" x2="0.0811966" y2="0.15812" style="stroke:rgb(246,147,147);stroke-width:0.01" />
<line x1="0.025641" y1="0.213675" x2="0.192308" y2="0.213675" style="stroke:rgb(246,147,147);stroke-width:0.01" />
</g>
</svg>
