<svg xmlns="http://www.w3.org/2000/svg" viewBox="-1.5 -1.5 3 3">
<g transform="scale(1, -1)">
<path d="M0.062500 -0.423611 L0.187500 -0.298611 L0.187500 0.201389 L-0.062500 0.201389 L-0.187500 0.326389 L-0.187500 0.201389 L0.000000 0.013889 L-0.062500 -0.048611 L0.062500 -0.173611 z " fill="rgb(245,195,195)" />
<path d="M-0.187500 0.326389 L0.812500 0.326389 L0.812500 1.326389 L-0.187500 1.326389  z" fill="none" stroke="rgb(128,128,128)" stroke-width="0.01" />
<line x1="0.0625" y1="-0.423611" x2="0.1875" y2="-0.298611" style="stroke:rgb(246,147,147);stroke-width:0.01" />
<line x1="0.125" y1="-0.236111" x2="0.1875" y2="-0.173611" style="stroke:rgb(246,147,147);stroke-width:0.01" />
<line x1="0.0625" y1="-0.173611" x2="0.1875" y2="-0.0486111" style="stroke:rgb(246,147,147);stroke-width:0.01" />
<line x1="0" y1="-0.111111" x2="0.1875" y2="0.0763889" style="stroke:rgb(246,147,147);stroke-width:0.01" />
<line x1="-0.0625" y1="-0.0486111" x2="0.1875" y2="0.201389" style="stroke:rgb(246,147,147);stroke-width:0.01" />
<line x1="0.1875" y1="-0.298611" x2="-0.0625" y2="-0.0486111" style="stroke:rgb(246,147,147);stroke-width:0.01" />
<line x1="-0.1875" y1="0.201389" x2="0.1875" y2="0.201389" style="stroke:rgb(246,147,147);stroke-width:0.01" />
<line x1="0.1875" y1="-0.173611" x2="-0.1875" y2="0.201389" style="stroke:rgb(246,147,147);stroke-width:0.01" />
<line x1="-0.1875" y1="0.201389" x2="-0.1875" y2="0.326389" style="stroke:rgb(246,147,147);stroke-width:0.01" />
<line x1="0.1875" y1="-0.0486111" x2="-0.1875" y2="0.326389" style="stroke:rgb(246,147,147);stroke-width:0.01" />
<line x1="0.0625" y1="-0.423611" x2="0.0625" y2="0.201389" style="stroke:rgb(246,147,147);stroke-width:0.01" />
<line x1="0.1875" y1="-0.298611" x2="0.1875" y2="0.201389" style="stroke:rgb(246,147,147);stroke-width:0.01" />
<line x1="0.1875" y1="0.0763889" x2="0.0625" y2="0.201389" style="stroke:rgb(246,147,147);stroke-width:0.01" />
</g>
</svg>
