<svg xmlns="http://www.w3.org/2000/svg" viewBox="-1.5 -1.5 3 3">
<g transform="scale(1, -1)">
<path d="M0.079050 -0.159636 L0.239499 -0.050585 L0.229829 -0.033511 L0.232386 -0.030222 L0.224490 -0.024085 L0.220743 -0.027324 L0.107968 0.112538 L0.062991 0.102719 L0.075661 0.204077 L-0.274339 0.029077 L-0.256321 -0.021976 L-0.281433 -0.034458 L-0.331139 -0.008323 L-0.329385 -0.058292 z " fill="rgb(245,195,195)" />
<path d="M-1.624339 -0.395923 L-0.624339 -0.395923 L-0.624339 0.604077 L-1.624339 0.604077  z" fill="none" stroke="rgb(128,128,128)" stroke-width="0.01" />
<line x1="0.190873" y1="-0.0836335" x2="0.232386" y2="-0.0302216" style="stroke:rgb(246,147,147);stroke-width:0.01" />
<line x1="0.0701908" y1="-0.157438" x2="0.22449" y2="-0.0240849" style="stroke:rgb(246,147,147);stroke-width:0.01" />
<line x1="0.0790498" y1="-0.159636" x2="0.239499" y2="-0.0505846" style="stroke:rgb(246,147,147);stroke-width:0.01" />
<line x1="0.0506909" y1="-0.107409" x2="0.0510208" y2="-0.106759" style="stroke:rgb(246,147,147);stroke-width:0.01" />
<line x1="-0.182424" y1="-0.0947576" x2="0.0756608" y2="0.204077" style="stroke:rgb(246,147,147);stroke-width:0.01" />
<line x1="-0.23526" y1="-0.0816474" x2="-0.0703786" y2="0.070445" style="stroke:rgb(246,147,147);stroke-width:0.01" />
<line x1="0.0316663" y1="-0.147879" x2="0.0488167" y2="-0.102601" style="stroke:rgb(246,147,147);stroke-width:0.01" />
<line x1="-0.224339" y1="-0.0843571" x2="-0.211141" y2="-0.0593993" style="stroke:rgb(246,147,147);stroke-width:0.01" />
<line x1="-0.194153" y1="-0.0437285" x2="-0.0650602" y2="0.0627238" style="stroke:rgb(246,147,147);stroke-width:0.01" />
<line x1="0.0412281" y1="-0.150252" x2="0.107968" y2="0.112538" style="stroke:rgb(246,147,147);stroke-width:0.01" />
<line x1="0.0186923" y1="-0.14466" x2="0.0328037" y2="-0.13878" style="stroke:rgb(246,147,147);stroke-width:0.01" />
<line x1="0.0412281" y1="-0.150252" x2="0.0515326" y2="-0.107724" style="stroke:rgb(246,147,147);stroke-width:0.01" />
<line x1="-0.293623" y1="-0.067166" x2="-0.0650602" y2="0.0627238" style="stroke:rgb(246,147,147);stroke-width:0.01" />
<line x1="-0.329385" y1="-0.0582923" x2="-0.0703786" y2="0.070445" style="stroke:rgb(246,147,147);stroke-width:0.01" />
<line x1="-0.211141" y1="-0.0593993" x2="-0.134575" y2="-0.0265047" style="stroke:rgb(246,147,147);stroke-width:0.01" />
<line x1="-0.00132821" y1="-0.139692" x2="0.190873" y2="-0.0836335" style="stroke:rgb(246,147,147);stroke-width:0.01" />
<line x1="-0.274339" y1="0.0290769" x2="0.0756608" y2="0.204077" style="stroke:rgb(246,147,147);stroke-width:0.01" />
<line x1="0.0316663" y1="-0.147879" x2="0.0756608" y2="0.204077" style="stroke:rgb(246,147,147);stroke-width:0.01" />
<line x1="-0.152739" y1="-0.102123" x2="-0.134835" y2="0.0384076" style="stroke:rgb(246,147,147);stroke-width:0.01" />
<line x1="-0.224339" y1="-0.0843571" x2="-0.224339" y2="0.0540769" style="stroke:rgb(246,147,147);stroke-width:0.01" />
<line x1="-0.329385" y1="-0.0582923" x2="-0.331139" y2="-0.00832306" style="stroke:rgb(246,147,147);stroke-width:0.01" />
<line x1="-0.274339" y1="0.0290769" x2="0.107968" y2="0.112538" style="stroke:rgb(246,147,147);stroke-width:0.01" />
<line x1="-0.152739" y1="-0.102123" x2="-0.16795" y2="0.0219481" style="stroke:rgb(246,147,147);stroke-width:0.01" />
<line x1="0.0190279" y1="-0.111212" x2="0.00836252" y2="-0.04387" style="stroke:rgb(246,147,147);stroke-width:0.01" />
<line x1="0.0488167" y1="-0.102601" x2="-0.152739" y2="-0.102123" style="stroke:rgb(246,147,147);stroke-width:0.01" />
<line x1="-0.182424" y1="-0.0947576" x2="-0.194153" y2="-0.0437285" style="stroke:rgb(246,147,147);stroke-width:0.01" />
<line x1="-0.23526" y1="-0.0816474" x2="-0.274339" y2="0.0290769" style="stroke:rgb(246,147,147);stroke-width:0.01" />
<line x1="0.0510208" y1="-0.106759" x2="-0.329385" y2="-0.0582923" style="stroke:rgb(246,147,147);stroke-width:0.01" />
<line x1="-0.134575" y1="-0.0265047" x2="-0.146185" y2="0.000518679" style="stroke:rgb(246,147,147);stroke-width:0.01" />
<line x1="0.0701908" y1="-0.157438" x2="0.0488167" y2="-0.102601" style="stroke:rgb(246,147,147);stroke-width:0.01" />
<line x1="0.0790498" y1="-0.159636" x2="-0.329385" y2="-0.0582923" style="stroke:rgb(246,147,147);stroke-width:0.01" />
<line x1="0.0488167" y1="-0.102601" x2="-0.194153" y2="-0.0437285" style="stroke:rgb(246,147,147);stroke-width:0.01" />
<line x1="-0.293623" y1="-0.067166" x2="-0.331139" y2="-0.00832306" style="stroke:rgb(246,147,147);stroke-width:0.01" />
<line x1="0.0190279" y1="-0.111212" x2="-0.194153" y2="-0.0437285" style="stroke:rgb(246,147,147);stroke-width:0.01" />
<line x1="0.0790498" y1="-0.159636" x2="0.0488167" y2="-0.102601" style="stroke:rgb(246,147,147);stroke-width:0.01" />
<line x1="0.0515326" y1="-0.107724" x2="0.0506909" y2="-0.107409" style="stroke:rgb(246,147,147);stroke-width:0.01" />
<line x1="-0.152739" y1="-0.102123" x2="-0.331139" y2="-0.00832306" style="stroke:rgb(246,147,147);stroke-width:0.01" />
<line x1="0.0488167" y1="-0.102601" x2="-0.0703786" y2="0.070445" style="stroke:rgb(246,147,147);stroke-width:0.01" />
<line x1="0.239499" y1="-0.0505846" x2="0.22449" y2="-0.0240849" style="stroke:rgb(246,147,147);stroke-width:0.01" />
<line x1="0.0186923" y1="-0.14466" x2="-0.120535" y2="0.0241786" style="stroke:rgb(246,147,147);stroke-width:0.01" />
<line x1="0.0488167" y1="-0.102601" x2="-0.146185" y2="0.000518679" style="stroke:rgb(246,147,147);stroke-width:0.01" />
<line x1="-0.00132821" y1="-0.139692" x2="-0.16795" y2="0.0219481" style="stroke:rgb(246,147,147);stroke-width:0.01" />
<line x1="0.0328037" y1="-0.13878" x2="-0.224339" y2="0.0540769" style="stroke:rgb(246,147,147);stroke-width:0.01" />
<line x1="0.0190279" y1="-0.111212" x2="-0.120535" y2="0.0241786" style="stroke:rgb(246,147,147);stroke-width:0.01" />
<line x1="0.00836252" y1="-0.04387" x2="-0.134835" y2="0.0384076" style="stroke:rgb(246,147,147);stroke-width:0.01" />
<line x1="0.239499" y1="-0.0505846" x2="0.107968" y2="0.112538" style="stroke:rgb(246,147,147);stroke-width:0.01" />
<line x1="0.232386" y1="-0.0302216" x2="0.22449" y2="-0.0240849" style="stroke:rgb(246,147,147);stroke-width:0.01" />
</g>
</svg>
