<svg xmlns="http://www.w3.org/2000/svg" viewBox="-1.5 -1.5 3 3">
<g transform="scale(1, -1)">
<path d="M1.703389 0.236287 L1.863838 0.345338 L1.854168 0.362412 L1.856725 0.365702 L1.848830 0.371838 L1.845082 0.368599 L1.732308 0.508462 L1.687330 0.498643 L1.700000 0.600000 L1.350000 0.425000 L1.368019 0.373947 L1.342906 0.361465 L1.293200 0.387600 L1.294954 0.337631 z " fill="rgb(245,195,195)" />
<path d="M0.000000 0.000000 L1.000000 0.000000 L1.000000 1.000000 L0.000000 1.000000  z" fill="none" stroke="rgb(128,128,128)" stroke-width="0.01" />
<line x1="1.81521" y1="0.31229" x2="1.85673" y2="0.365702" style="stroke:rgb(246,147,147);stroke-width:0.01" />
<line x1="1.69453" y1="0.238485" x2="1.84883" y2="0.371838" style="stroke:rgb(246,147,147);stroke-width:0.01" />
<line x1="1.70339" y1="0.236287" x2="1.86384" y2="0.345338" style="stroke:rgb(246,147,147);stroke-width:0.01" />
<line x1="1.67503" y1="0.288514" x2="1.67536" y2="0.289164" style="stroke:rgb(246,147,147);stroke-width:0.01" />
<line x1="1.44192" y1="0.301166" x2="1.7" y2="0.6" style="stroke:rgb(246,147,147);stroke-width:0.01" />
<line x1="1.38908" y1="0.314276" x2="1.55396" y2="0.466368" style="stroke:rgb(246,147,147);stroke-width:0.01" />
<line x1="1.65601" y1="0.248044" x2="1.67316" y2="0.293322" style="stroke:rgb(246,147,147);stroke-width:0.01" />
<line x1="1.4" y1="0.311566" x2="1.4132" y2="0.336524" style="stroke:rgb(246,147,147);stroke-width:0.01" />
<line x1="1.43019" y1="0.352195" x2="1.55928" y2="0.458647" style="stroke:rgb(246,147,147);stroke-width:0.01" />
<line x1="1.66557" y1="0.245671" x2="1.73231" y2="0.508462" style="stroke:rgb(246,147,147);stroke-width:0.01" />
<line x1="1.64303" y1="0.251263" x2="1.65714" y2="0.257143" style="stroke:rgb(246,147,147);stroke-width:0.01" />
<line x1="1.66557" y1="0.245671" x2="1.67587" y2="0.288199" style="stroke:rgb(246,147,147);stroke-width:0.01" />
<line x1="1.33072" y1="0.328757" x2="1.55928" y2="0.458647" style="stroke:rgb(246,147,147);stroke-width:0.01" />
<line x1="1.29495" y1="0.337631" x2="1.55396" y2="0.466368" style="stroke:rgb(246,147,147);stroke-width:0.01" />
<line x1="1.4132" y1="0.336524" x2="1.48976" y2="0.369418" style="stroke:rgb(246,147,147);stroke-width:0.01" />
<line x1="1.62301" y1="0.256231" x2="1.81521" y2="0.31229" style="stroke:rgb(246,147,147);stroke-width:0.01" />
<line x1="1.35" y1="0.425" x2="1.7" y2="0.6" style="stroke:rgb(246,147,147);stroke-width:0.01" />
<line x1="1.65601" y1="0.248044" x2="1.7" y2="0.6" style="stroke:rgb(246,147,147);stroke-width:0.01" />
<line x1="1.4716" y1="0.2938" x2="1.4895" y2="0.434331" style="stroke:rgb(246,147,147);stroke-width:0.01" />
<line x1="1.4" y1="0.311566" x2="1.4" y2="0.45" style="stroke:rgb(246,147,147);stroke-width:0.01" />
<line x1="1.29495" y1="0.337631" x2="1.2932" y2="0.3876" style="stroke:rgb(246,147,147);stroke-width:0.01" />
<line x1="1.35" y1="0.425" x2="1.73231" y2="0.508462" style="stroke:rgb(246,147,147);stroke-width:0.01" />
<line x1="1.4716" y1="0.2938" x2="1.45639" y2="0.417871" style="stroke:rgb(246,147,147);stroke-width:0.01" />
<line x1="1.64337" y1="0.284711" x2="1.6327" y2="0.352053" style="stroke:rgb(246,147,147);stroke-width:0.01" />
<line x1="1.67316" y1="0.293322" x2="1.4716" y2="0.2938" style="stroke:rgb(246,147,147);stroke-width:0.01" />
<line x1="1.44192" y1="0.301166" x2="1.43019" y2="0.352195" style="stroke:rgb(246,147,147);stroke-width:0.01" />
<line x1="1.38908" y1="0.314276" x2="1.35" y2="0.425" style="stroke:rgb(246,147,147);stroke-width:0.01" />
<line x1="1.67536" y1="0.289164" x2="1.29495" y2="0.337631" style="stroke:rgb(246,147,147);stroke-width:0.01" />
<line x1="1.48976" y1="0.369418" x2="1.47815" y2="0.396442" style="stroke:rgb(246,147,147);stroke-width:0.01" />
<line x1="1.69453" y1="0.238485" x2="1.67316" y2="0.293322" style="stroke:rgb(246,147,147);stroke-width:0.01" />
<line x1="1.70339" y1="0.236287" x2="1.29495" y2="0.337631" style="stroke:rgb(246,147,147);stroke-width:0.01" />
<line x1="1.67316" y1="0.293322" x2="1.43019" y2="0.352195" style="stroke:rgb(246,147,147);stroke-width:0.01" />
<line x1="1.33072" y1="0.328757" x2="1.2932" y2="0.3876" style="stroke:rgb(246,147,147);stroke-width:0.01" />
<line x1="1.64337" y1="0.284711" x2="1.43019" y2="0.352195" style="stroke:rgb(246,147,147);stroke-width:0.01" />
<line x1="1.70339" y1="0.236287" x2="1.67316" y2="0.293322" style="stroke:rgb(246,147,147);stroke-width:0.01" />
<line x1="1.67587" y1="0.288199" x2="1.67503" y2="0.288514" style="stroke:rgb(246,147,147);stroke-width:0.01" />
<line x1="1.4716" y1="0.2938" x2="1.2932" y2="0.3876" style="stroke:rgb(246,147,147);stroke-width:0.01" />
<line x1="1.67316" y1="0.293322" x2="1.55396" y2="0.466368" style="stroke:rgb(246,147,147);stroke-width:0.01" />
<line x1="1.86384" y1="0.345338" x2="1.84883" y2="0.371838" style="stroke:rgb(246,147,147);stroke-width:0.01" />
<line x1="1.64303" y1="0.251263" x2="1.5038" y2="0.420102" style="stroke:rgb(246,147,147);stroke-width:0.01" />
<line x1="1.67316" y1="0.293322" x2="1.47815" y2="0.396442" style="stroke:rgb(246,147,147);stroke-width:0.01" />
<line x1="1.62301" y1="0.256231" x2="1.45639" y2="0.417871" style="stroke:rgb(246,147,147);stroke-width:0.01" />
<line x1="1.65714" y1="0.257143" x2="1.4" y2="0.45" style="stroke:rgb(246,147,147);stroke-width:0.01" />
<line x1="1.64337" y1="0.284711" x2="1.5038" y2="0.420102" style="stroke:rgb(246,147,147);stroke-width:0.01" />
<line x1="1.6327" y1="0.352053" x2="1.4895" y2="0.434331" style="stroke:rgb(246,147,147);stroke-width:0.01" />
<line x1="1.86384" y1="0.345338" x2="1.73231" y2="0.508462" style="stroke:rgb(246,147,147);stroke-width:0.01" />
<line x1="1.85673" y1="0.365702" x2="1.84883" y2="0.371838" style="stroke:rgb(246,147,147);stroke-width:0.01" />
</g>
</svg>
