<svg xmlns="http://www.w3.org/2000/svg" viewBox="-1.5 -1.5 3 3">
<g transform="scale(1, -1)">
<path d="M0.636364 0.636364 L1.136364 0.636364 L1.636364 0.886364 L1.636364 1.136364 L1.303030 1.136364 L1.036364 1.336364 L0.886364 1.136364 L0.636364 1.136364 z " fill="rgb(245,195,195)" />
<path d="M0.000000 0.000000 L1.000000 0.000000 L1.000000 1.000000 L0.000000 1.000000  z" fill="none" stroke="rgb(128,128,128)" stroke-width="0.01" />
<line x1="0.886364" y1="1.13636" x2="1.03636" y2="1.33636" style="stroke:rgb(246,147,147);stroke-width:0.01" />
<line x1="0.636364" y1="0.636364" x2="0.636364" y2="1.13636" style="stroke:rgb(246,147,147);stroke-width:0.01" />
<line x1="1.13636" y1="0.636364" x2="1.13636" y2="1.13636" style="stroke:rgb(246,147,147);stroke-width:0.01" />
<line x1="1.63636" y1="0.886364" x2="1.63636" y2="1.13636" style="stroke:rgb(246,147,147);stroke-width:0.01" />
<line x1="1.13636" y1="0.636364" x2="1.63636" y2="0.886364" style="stroke:rgb(246,147,147);stroke-width:0.01" />
<line x1="1.13636" y1="0.636364" x2="0.886364" y2="1.13636" style="stroke:rgb(246,147,147);stroke-width:0.01" />
<line x1="0.636364" y1="0.636364" x2="1.13636" y2="0.636364" style="stroke:rgb(246,147,147);stroke-width:0.01" />
<line x1="0.636364" y1="1.13636" x2="1.63636" y2="1.13636" style="stroke:rgb(246,147,147);stroke-width:0.01" />
<line x1="1.63636" y1="0.886364" x2="1.03636" y2="1.33636" style="stroke:rgb(246,147,147);stroke-width:0.01" />
</g>
</svg>
