<svg xmlns="http://www.w3.org/2000/svg" viewBox="-1.5 -1.5 3 3">
<g transform="scale(1, -1)">
<path d="M0.307692 0.128205 L0.666667 1.000000 L0.358974 0.871795 L-0.076923 1.051282 L0.051282 0.743590 L-0.256410 0.615385 L0.179487 0.435897 z " fill="rgb(245,195,195)" />
<path d="M0.000000 0.000000 L1.000000 0.000000 L1.000000 1.000000 L0.000000 1.000000  z" fill="none" stroke="rgb(128,128,128)" stroke-width="0.01" />
<line x1="0.307692" y1="0.128205" x2="0.666667" y2="1" style="stroke:rgb(246,147,147);stroke-width:0.01" />
<line x1="0.179487" y1="0.435897" x2="0.358974" y2="0.871795" style="stroke:rgb(246,147,147);stroke-width:0.01" />
<line x1="0.307692" y1="0.128205" x2="-0.0769231" y2="1.05128" style="stroke:rgb(246,147,147);stroke-width:0.01" />
<line x1="0.487179" y1="0.564103" x2="0.358974" y2="0.871795" style="stroke:rgb(246,147,147);stroke-width:0.01" />
<line x1="0.179487" y1="0.435897" x2="0.487179" y2="0.564103" style="stroke:rgb(246,147,147);stroke-width:0.01" />
<line x1="0.179487" y1="0.435897" x2="-0.25641" y2="0.615385" style="stroke:rgb(246,147,147);stroke-width:0.01" />
<line x1="-0.25641" y1="0.615385" x2="0.666667" y2="1" style="stroke:rgb(246,147,147);stroke-width:0.01" />
<line x1="0.487179" y1="0.564103" x2="0.0512821" y2="0.74359" style="stroke:rgb(246,147,147);stroke-width:0.01" />
<line x1="0.358974" y1="0.871795" x2="-0.0769231" y2="1.05128" style="stroke:rgb(246,147,147);stroke-width:0.01" />
</g>
</svg>
