<svg xmlns="http://www.w3.org/2000/svg" viewBox="-1.5 -1.5 3 3">
<g transform="scale(1, -1)">
<path d="M0.000000 0.175000 L0.168000 0.224000 L0.162264 0.243666 L0.267692 0.181538 L0.369231 0.353846 L0.000000 0.571429 L-0.200000 0.457143 L-0.200000 0.325000 z " fill="rgb(245,195,195)" />
<path d="M0.000000 0.000000 L1.000000 0.000000 L1.000000 1.000000 L0.000000 1.000000  z" fill="none" stroke="rgb(128,128,128)" stroke-width="0.01" />
<line x1="0.267692" y1="0.181538" x2="0.369231" y2="0.353846" style="stroke:rgb(246,147,147);stroke-width:0.01" />
<line x1="-0.2" y1="0.325" x2="-0.2" y2="0.457143" style="stroke:rgb(246,147,147);stroke-width:0.01" />
<line x1="0" y1="0.175" x2="0" y2="0.571429" style="stroke:rgb(246,147,147);stroke-width:0.01" />
<line x1="0.168" y1="0.224" x2="0.112" y2="0.416" style="stroke:rgb(246,147,147);stroke-width:0.01" />
<line x1="0" y1="0.175" x2="-0.2" y2="0.325" style="stroke:rgb(246,147,147);stroke-width:0.01" />
<line x1="0" y1="0.175" x2="0.168" y2="0.224" style="stroke:rgb(246,147,147);stroke-width:0.01" />
<line x1="0.267692" y1="0.181538" x2="-0.2" y2="0.457143" style="stroke:rgb(246,147,147);stroke-width:0.01" />
<line x1="-0.2" y1="0.325" x2="0.112" y2="0.416" style="stroke:rgb(246,147,147);stroke-width:0.01" />
<line x1="0.369231" y1="0.353846" x2="0" y2="0.571429" style="stroke:rgb(246,147,147);stroke-width:0.01" />
<line x1="-0.2" y1="0.457143" x2="0" y2="0.571429" style="stroke:rgb(246,147,147);stroke-width:0.01" />
</g>
</svg>
