<svg xmlns="http://www.w3.org/2000/svg" viewBox="-1.5 -1.5 3 3">
<g transform="scale(1, -1)">
<path d="M0.384356 -0.390048 L0.407428 -0.183687 L0.433297 -0.127792 L-0.099239 0.353889 L-0.263294 0.372166 L-0.288366 0.405492 L-0.356890 0.382594 L-0.288366 -0.262833 L0.018813 -0.196864 L0.052262 -0.352918 z " fill="rgb(245,195,195)" />
<path d="M-1.288366 -0.262833 L-0.288366 -0.262833 L-0.288366 0.737167 L-1.288366 0.737167  z" fill="none" stroke="rgb(128,128,128)" stroke-width="0.01" />
<line x1="0.0522624" y1="-0.352918" x2="0.433297" y2="-0.127792" style="stroke:rgb(246,147,147);stroke-width:0.01" />
<line x1="0.339524" y1="-0.330412" x2="0.433297" y2="-0.127792" style="stroke:rgb(246,147,147);stroke-width:0.01" />
<line x1="-0.313266" y1="-0.0283" x2="-0.0889653" y2="0.140449" style="stroke:rgb(246,147,147);stroke-width:0.01" />
<line x1="-0.288366" y1="-0.262833" x2="0.41548" y2="-0.111676" style="stroke:rgb(246,147,147);stroke-width:0.01" />
<line x1="0.384356" y1="-0.390048" x2="0.41548" y2="-0.111676" style="stroke:rgb(246,147,147);stroke-width:0.01" />
<line x1="-0.288366" y1="-0.262833" x2="-0.288366" y2="0.405492" style="stroke:rgb(246,147,147);stroke-width:0.01" />
<line x1="0.384356" y1="-0.390048" x2="0.0522624" y2="-0.352918" style="stroke:rgb(246,147,147);stroke-width:0.01" />
<line x1="-0.288366" y1="-0.262833" x2="-0.35689" y2="0.382594" style="stroke:rgb(246,147,147);stroke-width:0.01" />
<line x1="0.0522624" y1="-0.352918" x2="-0.0992393" y2="0.353889" style="stroke:rgb(246,147,147);stroke-width:0.01" />
<line x1="-0.35689" y1="0.382594" x2="-0.288366" y2="0.405492" style="stroke:rgb(246,147,147);stroke-width:0.01" />
<line x1="0.339524" y1="-0.330412" x2="-0.313266" y2="-0.0283" style="stroke:rgb(246,147,147);stroke-width:0.01" />
<line x1="-0.0889653" y1="0.140449" x2="-0.288366" y2="0.405492" style="stroke:rgb(246,147,147);stroke-width:0.01" />
<line x1="-0.0992393" y1="0.353889" x2="-0.35689" y2="0.382594" style="stroke:rgb(246,147,147);stroke-width:0.01" />
<line x1="0.433297" y1="-0.127792" x2="-0.0992393" y2="0.353889" style="stroke:rgb(246,147,147);stroke-width:0.01" />
</g>
</svg>
