<svg xmlns="http://www.w3.org/2000/svg" viewBox="-1.5 -1.5 3 3">
<g transform="scale(1, -1)">
<path d="M1.672722 -0.127215 L1.695794 0.079146 L1.721663 0.135041 L1.189127 0.616722 L1.025072 0.634999 L1.000000 0.668325 L0.931476 0.645427 L1.000000 0.000000 L1.307179 0.065969 L1.340628 -0.090084 z " fill="rgb(245,195,195)" />
<path d="M0.000000 0.000000 L1.000000 0.000000 L1.000000 1.000000 L0.000000 1.000000  z" fill="none" stroke="rgb(128,128,128)" stroke-width="0.01" />
<line x1="1.34063" y1="-0.0900845" x2="1.72166" y2="0.135041" style="stroke:rgb(246,147,147);stroke-width:0.01" />
<line x1="1.62789" y1="-0.0675787" x2="1.72166" y2="0.135041" style="stroke:rgb(246,147,147);stroke-width:0.01" />
<line x1="0.9751" y1="0.234533" x2="1.1994" y2="0.403282" style="stroke:rgb(246,147,147);stroke-width:0.01" />
<line x1="1" y1="0" x2="1.70385" y2="0.151157" style="stroke:rgb(246,147,147);stroke-width:0.01" />
<line x1="1.67272" y1="-0.127215" x2="1.70385" y2="0.151157" style="stroke:rgb(246,147,147);stroke-width:0.01" />
<line x1="1" y1="0" x2="1" y2="0.668325" style="stroke:rgb(246,147,147);stroke-width:0.01" />
<line x1="1.67272" y1="-0.127215" x2="1.34063" y2="-0.0900845" style="stroke:rgb(246,147,147);stroke-width:0.01" />
<line x1="1" y1="0" x2="0.931476" y2="0.645427" style="stroke:rgb(246,147,147);stroke-width:0.01" />
<line x1="1.34063" y1="-0.0900845" x2="1.18913" y2="0.616722" style="stroke:rgb(246,147,147);stroke-width:0.01" />
<line x1="0.931476" y1="0.645427" x2="1" y2="0.668325" style="stroke:rgb(246,147,147);stroke-width:0.01" />
<line x1="1.62789" y1="-0.0675787" x2="0.9751" y2="0.234533" style="stroke:rgb(246,147,147);stroke-width:0.01" />
<line x1="1.1994" y1="0.403282" x2="1" y2="0.668325" style="stroke:rgb(246,147,147);stroke-width:0.01" />
<line x1="1.18913" y1="0.616722" x2="0.931476" y2="0.645427" style="stroke:rgb(246,147,147);stroke-width:0.01" />
<line x1="1.72166" y1="0.135041" x2="1.18913" y2="0.616722" style="stroke:rgb(246,147,147);stroke-width:0.01" />
</g>
</svg>
