<svg xmlns="http://www.w3.org/2000/svg" viewBox="-1.5 -1.5 3 3">
<g transform="scale(1, -1)">
<path d="M0.084936 -0.283654 L0.520833 -0.104167 L0.213141 0.024038 L0.033654 0.459936 L-0.094551 0.152244 L-0.530449 -0.027244 L-0.222756 -0.155449 L-0.004808 -0.065705 z " fill="rgb(245,195,195)" />
<path d="M-0.530449 -0.027244 L0.469551 -0.027244 L0.469551 0.972756 L-0.530449 0.972756  z" fill="none" stroke="rgb(128,128,128)" stroke-width="0.01" />
<line x1="0.0849359" y1="-0.283654" x2="0.520833" y2="-0.104167" style="stroke:rgb(246,147,147);stroke-width:0.01" />
<line x1="0.0849359" y1="-0.283654" x2="0.213141" y2="0.0240385" style="stroke:rgb(246,147,147);stroke-width:0.01" />
<line x1="-0.222756" y1="-0.155449" x2="0.213141" y2="0.0240385" style="stroke:rgb(246,147,147);stroke-width:0.01" />
<line x1="-0.222756" y1="-0.155449" x2="0.0336538" y2="0.459936" style="stroke:rgb(246,147,147);stroke-width:0.01" />
<line x1="-0.530449" y1="-0.0272436" x2="-0.0945513" y2="0.152244" style="stroke:rgb(246,147,147);stroke-width:0.01" />
<line x1="-0.222756" y1="-0.155449" x2="-0.530449" y2="-0.0272436" style="stroke:rgb(246,147,147);stroke-width:0.01" />
<line x1="0.0849359" y1="-0.283654" x2="-0.0945513" y2="0.152244" style="stroke:rgb(246,147,147);stroke-width:0.01" />
<line x1="0.213141" y1="0.0240385" x2="0.0336538" y2="0.459936" style="stroke:rgb(246,147,147);stroke-width:0.01" />
<line x1="0.520833" y1="-0.104167" x2="-0.0945513" y2="0.152244" style="stroke:rgb(246,147,147);stroke-width:0.01" />
</g>
</svg>
