<svg xmlns="http://www.w3.org/2000/svg" viewBox="-1.5 -1.5 3 3">
<g transform="scale(1, -1)">
<path d="M0.615385 -0.256410 L1.051282 -0.076923 L0.743590 0.051282 L0.564103 0.487179 L0.435897 0.179487 L0.000000 0.000000 L0.307692 -0.128205 L0.525641 -0.038462 z " fill="rgb(245,195,195)" />
<path d="M0.000000 0.000000 L1.000000 0.000000 L1.000000 1.000000 L0.000000 1.000000  z" fill="none" stroke="rgb(128,128,128)" stroke-width="0.01" />
<line x1="0.615385" y1="-0.25641" x2="1.05128" y2="-0.0769231" style="stroke:rgb(246,147,147);stroke-width:0.01" />
<line x1="0.615385" y1="-0.25641" x2="0.74359" y2="0.0512821" style="stroke:rgb(246,147,147);stroke-width:0.01" />
<line x1="0.307692" y1="-0.128205" x2="0.74359" y2="0.0512821" style="stroke:rgb(246,147,147);stroke-width:0.01" />
<line x1="0.307692" y1="-0.128205" x2="0.564103" y2="0.487179" style="stroke:rgb(246,147,147);stroke-width:0.01" />
<line x1="0" y1="0" x2="0.435897" y2="0.179487" style="stroke:rgb(246,147,147);stroke-width:0.01" />
<line x1="0.307692" y1="-0.128205" x2="0" y2="0" style="stroke:rgb(246,147,147);stroke-width:0.01" />
<line x1="0.615385" y1="-0.25641" x2="0.435897" y2="0.179487" style="stroke:rgb(246,147,147);stroke-width:0.01" />
<line x1="0.74359" y1="0.0512821" x2="0.564103" y2="0.487179" style="stroke:rgb(246,147,147);stroke-width:0.01" />
<line x1="1.05128" y1="-0.0769231" x2="0.435897" y2="0.179487" style="stroke:rgb(246,147,147);stroke-width:0.01" />
</g>
</svg>
