<svg xmlns="http://www.w3.org/2000/svg" viewBox="-1.5 -1.5 3 3">
<g transform="scale(1, -1)">
<path d="M-0.000217 -0.196320 L0.156926 -0.167749 L0.228355 -0.024892 L0.156926 0.117966 L-0.000217 0.146537 L-0.089420 0.063861 L-0.100788 0.071108 L-0.102842 0.051421 L-0.117360 0.037966 L-0.104741 0.033220 L-0.117360 -0.087749 z M0.071212 -0.142749 L-0.031645 -0.112749 L-0.069360 -0.012463 L-0.052709 0.013653 L-0.050503 0.012823 L-0.046568 0.023284 L-0.040560 0.032708 L-0.042548 0.033976 L-0.031645 0.062966 L0.071212 0.092966 L0.156926 0.028680 L0.156926 -0.078463 z " fill="rgb(245,195,195)" />
<path d="M-0.128788 -0.196320 L0.871212 -0.196320 L0.871212 0.803680 L-0.128788 0.803680  z" fill="none" stroke="rgb(128,128,128)" stroke-width="0.01" />
<line x1="0.156926" y1="-0.167749" x2="0.228355" y2="-0.0248916" style="stroke:rgb(246,147,147);stroke-width:0.01" />
<line x1="-0.000216838" y1="-0.19632" x2="0.228355" y2="-0.0248916" style="stroke:rgb(246,147,147);stroke-width:0.01" />
<line x1="-0.000216838" y1="-0.19632" x2="0.156926" y2="-0.167749" style="stroke:rgb(246,147,147);stroke-width:0.01" />
<line x1="-0.11736" y1="-0.0877487" x2="-0.100788" y2="0.0711084" style="stroke:rgb(246,147,147);stroke-width:0.01" />
<line x1="0.156926" y1="-0.167749" x2="0.156926" y2="0.117966" style="stroke:rgb(246,147,147);stroke-width:0.01" />
<line x1="-0.0505026" y1="0.0128227" x2="-0.000216838" y2="0.146537" style="stroke:rgb(246,147,147);stroke-width:0.01" />
<line x1="-0.11736" y1="-0.0877487" x2="-0.0405597" y2="0.0327084" style="stroke:rgb(246,147,147);stroke-width:0.01" />
<line x1="-0.000216838" y1="-0.19632" x2="-0.100788" y2="0.0711084" style="stroke:rgb(246,147,147);stroke-width:0.01" />
<line x1="-0.000216838" y1="-0.19632" x2="-0.11736" y2="-0.0877487" style="stroke:rgb(246,147,147);stroke-width:0.01" />
<line x1="0.156926" y1="-0.167749" x2="-0.11736" y2="-0.0877487" style="stroke:rgb(246,147,147);stroke-width:0.01" />
<line x1="-0.11736" y1="0.0379656" x2="-0.000216838" y2="0.146537" style="stroke:rgb(246,147,147);stroke-width:0.01" />
<line x1="0.228355" y1="-0.0248916" x2="0.156926" y2="0.117966" style="stroke:rgb(246,147,147);stroke-width:0.01" />
<line x1="-0.0405597" y1="0.0327084" x2="-0.100788" y2="0.0711084" style="stroke:rgb(246,147,147);stroke-width:0.01" />
<line x1="-0.0505026" y1="0.0128227" x2="-0.11736" y2="0.0379656" style="stroke:rgb(246,147,147);stroke-width:0.01" />
<line x1="-0.11736" y1="0.0379656" x2="0.156926" y2="0.117966" style="stroke:rgb(246,147,147);stroke-width:0.01" />
<line x1="0.228355" y1="-0.0248916" x2="-0.000216838" y2="0.146537" style="stroke:rgb(246,147,147);stroke-width:0.01" />
<line x1="0.156926" y1="0.117966" x2="-0.000216838" y2="0.146537" style="stroke:rgb(246,147,147);stroke-width:0.01" />
</g>
</svg>
