<svg xmlns="http://www.w3.org/2000/svg" viewBox="-1 -1 3 3">
<path d="M0.128571 0.000000 L0.285714 0.028571 L0.357143 0.171429 L0.285714 0.314286 L0.128571 0.342857 L0.039368 0.260181 L0.028000 0.267429 L0.025946 0.247741 L0.011429 0.234286 L0.024048 0.229540 L0.011429 0.108571 z M0.200000 0.053571 L0.097143 0.083571 L0.059429 0.183857 L0.076079 0.209973 L0.078286 0.209143 L0.082220 0.219604 L0.088229 0.229029 L0.086241 0.230296 L0.097143 0.259286 L0.200000 0.289286 L0.285714 0.225000 L0.285714 0.117857 z " fill="rgb(245,195,195)" />
<path d="M0 0 L0 1 L1 1 L1 0 z" fill="none" stroke="rgb(128,128,128)" stroke-width="0.01" />
<line x1="0.285714" y1="0.0285714" x2="0.357143" y2="0.171429" style="stroke:rgb(246,147,147);stroke-width:0.01" />
<line x1="0.128571" y1="0" x2="0.357143" y2="0.171429" style="stroke:rgb(246,147,147);stroke-width:0.01" />
<line x1="0.128571" y1="0" x2="0.285714" y2="0.0285714" style="stroke:rgb(246,147,147);stroke-width:0.01" />
<line x1="0.0114286" y1="0.108571" x2="0.028" y2="0.267429" style="stroke:rgb(246,147,147);stroke-width:0.01" />
<line x1="0.285714" y1="0.0285714" x2="0.285714" y2="0.314286" style="stroke:rgb(246,147,147);stroke-width:0.01" />
<line x1="0.0782857" y1="0.209143" x2="0.128571" y2="0.342857" style="stroke:rgb(246,147,147);stroke-width:0.01" />
<line x1="0.0114286" y1="0.108571" x2="0.0882286" y2="0.229029" style="stroke:rgb(246,147,147);stroke-width:0.01" />
<line x1="0.128571" y1="0" x2="0.028" y2="0.267429" style="stroke:rgb(246,147,147);stroke-width:0.01" />
<line x1="0.128571" y1="0" x2="0.0114286" y2="0.108571" style="stroke:rgb(246,147,147);stroke-width:0.01" />
<line x1="0.285714" y1="0.0285714" x2="0.0114286" y2="0.108571" style="stroke:rgb(246,147,147);stroke-width:0.01" />
<line x1="0.0114286" y1="0.234286" x2="0.128571" y2="0.342857" style="stroke:rgb(246,147,147);stroke-width:0.01" />
<line x1="0.357143" y1="0.171429" x2="0.285714" y2="0.314286" style="stroke:rgb(246,147,147);stroke-width:0.01" />
<line x1="0.0882286" y1="0.229029" x2="0.028" y2="0.267429" style="stroke:rgb(246,147,147);stroke-width:0.01" />
<line x1="0.0782857" y1="0.209143" x2="0.0114286" y2="0.234286" style="stroke:rgb(246,147,147);stroke-width:0.01" />
<line x1="0.0114286" y1="0.234286" x2="0.285714" y2="0.314286" style="stroke:rgb(246,147,147);stroke-width:0.01" />
<line x1="0.357143" y1="0.171429" x2="0.128571" y2="0.342857" style="stroke:rgb(246,147,147);stroke-width:0.01" />
<line x1="0.285714" y1="0.314286" x2="0.128571" y2="0.342857" style="stroke:rgb(246,147,147);stroke-width:0.01" />
</svg>
