<svg xmlns="http://www.w3.org/2000/svg" viewBox="-1.5 -1.5 3 3">
<g transform="scale(1, -1)">
<path d="M0.714286 0.571429 L0.857143 0.571429 L1.047619 0.857143 L1.142857 0.857143 L1.142857 1.000000 L0.857143 1.190476 L0.857143 1.285714 L0.714286 1.285714 L0.523810 1.000000 L0.428571 1.000000 L0.428571 0.857143 L0.714286 0.666667 z " fill="rgb(245,195,195)" />
<path d="M0.000000 0.000000 L1.000000 0.000000 L1.000000 1.000000 L0.000000 1.000000  z" fill="none" stroke="rgb(128,128,128)" stroke-width="0.01" />
<line x1="0.857143" y1="0.571429" x2="1.14286" y2="1" style="stroke:rgb(246,147,147);stroke-width:0.01" />
<line x1="0.428571" y1="0.857143" x2="0.428571" y2="1" style="stroke:rgb(246,147,147);stroke-width:0.01" />
<line x1="0.714286" y1="0.571429" x2="0.714286" y2="1.28571" style="stroke:rgb(246,147,147);stroke-width:0.01" />
<line x1="0.857143" y1="0.571429" x2="0.857143" y2="1.28571" style="stroke:rgb(246,147,147);stroke-width:0.01" />
<line x1="1.14286" y1="0.857143" x2="1.14286" y2="1" style="stroke:rgb(246,147,147);stroke-width:0.01" />
<line x1="0.428571" y1="0.857143" x2="0.714286" y2="1.28571" style="stroke:rgb(246,147,147);stroke-width:0.01" />
<line x1="0.857143" y1="0.571429" x2="0.692308" y2="0.967033" style="stroke:rgb(246,147,147);stroke-width:0.01" />
<line x1="0.879121" y1="0.89011" x2="0.714286" y2="1.28571" style="stroke:rgb(246,147,147);stroke-width:0.01" />
<line x1="0.747253" y1="0.835165" x2="1.14286" y2="1" style="stroke:rgb(246,147,147);stroke-width:0.01" />
<line x1="0.714286" y1="0.571429" x2="0.857143" y2="0.571429" style="stroke:rgb(246,147,147);stroke-width:0.01" />
<line x1="0.428571" y1="0.857143" x2="0.824176" y2="1.02198" style="stroke:rgb(246,147,147);stroke-width:0.01" />
<line x1="0.857143" y1="0.571429" x2="0.428571" y2="0.857143" style="stroke:rgb(246,147,147);stroke-width:0.01" />
<line x1="0.428571" y1="0.857143" x2="1.14286" y2="0.857143" style="stroke:rgb(246,147,147);stroke-width:0.01" />
<line x1="0.428571" y1="1" x2="1.14286" y2="1" style="stroke:rgb(246,147,147);stroke-width:0.01" />
<line x1="1.14286" y1="1" x2="0.714286" y2="1.28571" style="stroke:rgb(246,147,147);stroke-width:0.01" />
<line x1="0.714286" y1="1.28571" x2="0.857143" y2="1.28571" style="stroke:rgb(246,147,147);stroke-width:0.01" />
</g>
</svg>
