<svg xmlns="http://www.w3.org/2000/svg" viewBox="-1.5 -1.5 3 3">
<g transform="scale(1, -1)">
<path d="M0.027778 -0.372222 L0.327778 -0.372222 L0.477778 -0.222222 L0.177778 -0.222222 L0.177778 0.177778 L-0.222222 0.177778 L-0.222222 0.477778 L-0.372222 0.327778 L-0.372222 0.027778 z " fill="rgb(245,195,195)" />
<path d="M-0.522222 -0.522222 L0.477778 -0.522222 L0.477778 0.477778 L-0.522222 0.477778  z" fill="none" stroke="rgb(128,128,128)" stroke-width="0.01" />
<line x1="0.327778" y1="-0.372222" x2="0.477778" y2="-0.222222" style="stroke:rgb(246,147,147);stroke-width:0.01" />
<line x1="0.0277778" y1="-0.372222" x2="0.177778" y2="-0.222222" style="stroke:rgb(246,147,147);stroke-width:0.01" />
<line x1="-0.372222" y1="0.0277778" x2="-0.372222" y2="0.327778" style="stroke:rgb(246,147,147);stroke-width:0.01" />
<line x1="-0.222222" y1="0.177778" x2="-0.222222" y2="0.477778" style="stroke:rgb(246,147,147);stroke-width:0.01" />
<line x1="0.177778" y1="-0.372222" x2="0.177778" y2="0.177778" style="stroke:rgb(246,147,147);stroke-width:0.01" />
<line x1="0.0277778" y1="-0.372222" x2="0.327778" y2="-0.372222" style="stroke:rgb(246,147,147);stroke-width:0.01" />
<line x1="-0.372222" y1="0.0277778" x2="-0.222222" y2="0.177778" style="stroke:rgb(246,147,147);stroke-width:0.01" />
<line x1="0.177778" y1="-0.222222" x2="0.477778" y2="-0.222222" style="stroke:rgb(246,147,147);stroke-width:0.01" />
<line x1="-0.372222" y1="0.327778" x2="-0.222222" y2="0.477778" style="stroke:rgb(246,147,147);stroke-width:0.01" />
<line x1="0.0277778" y1="-0.372222" x2="-0.372222" y2="0.0277778" style="stroke:rgb(246,147,147);stroke-width:0.01" />
<line x1="0.327778" y1="-0.372222" x2="-0.372222" y2="0.327778" style="stroke:rgb(246,147,147);stroke-width:0.01" />
<line x1="-0.372222" y1="0.177778" x2="0.177778" y2="0.177778" style="stroke:rgb(246,147,147);stroke-width:0.01" />
</g>
</svg>
