<svg xmlns="http://www.w3.org/2000/svg" viewBox="-1.5 -1.5 3 3">
<g transform="scale(1, -1)">
<path d="M-0.015132 -0.218705 L0.148800 -0.054773 L0.158691 -0.008587 L0.066122 0.053126 L0.035640 0.117960 L-0.003515 0.099551 L-0.010615 0.104284 L-0.046890 0.079158 L-0.135571 0.037464 L-0.105239 -0.027050 L-0.092291 -0.182428 z " fill="rgb(245,195,195)" />
<path d="M0.342630 -0.158240 L1.342630 -0.158240 L1.342630 0.841760 L0.342630 0.841760  z" fill="none" stroke="rgb(128,128,128)" stroke-width="0.01" />
<line x1="-0.0151318" y1="-0.218705" x2="-0.0922911" y2="-0.182428" style="stroke:rgb(246,147,147);stroke-width:0.01" />
<line x1="-0.0151318" y1="-0.218705" x2="-0.135571" y2="0.0374643" style="stroke:rgb(246,147,147);stroke-width:0.01" />
<line x1="-0.063165" y1="-0.141088" x2="-0.103879" y2="-0.0433752" style="stroke:rgb(246,147,147);stroke-width:0.01" />
<line x1="0.0254968" y1="-0.178076" x2="-0.0974716" y2="-0.120262" style="stroke:rgb(246,147,147);stroke-width:0.01" />
<line x1="0.0254968" y1="-0.178076" x2="-0.0866534" y2="0.060463" style="stroke:rgb(246,147,147);stroke-width:0.01" />
<line x1="0.045811" y1="-0.157762" x2="-0.0621948" y2="0.0719623" style="stroke:rgb(246,147,147);stroke-width:0.01" />
<line x1="0.045811" y1="-0.157762" x2="-0.100062" y2="-0.0891792" style="stroke:rgb(246,147,147);stroke-width:0.01" />
<line x1="0.0496208" y1="-0.130693" x2="-0.0211952" y2="0.0392652" style="stroke:rgb(246,147,147);stroke-width:0.01" />
<line x1="0.0771294" y1="-0.126444" x2="0.00375287" y2="0.0496602" style="stroke:rgb(246,147,147);stroke-width:0.01" />
<line x1="0.118465" y1="-0.0851081" x2="0.0588464" y2="0.0579762" style="stroke:rgb(246,147,147);stroke-width:0.01" />
<line x1="0.127068" y1="-0.0765048" x2="0.0356398" y2="0.11796" style="stroke:rgb(246,147,147);stroke-width:0.01" />
<line x1="0.0771294" y1="-0.126444" x2="0.0754784" y2="-0.125756" style="stroke:rgb(246,147,147);stroke-width:0.01" />
<line x1="-0.0922911" y1="-0.182428" x2="-0.110423" y2="0.0351525" style="stroke:rgb(246,147,147);stroke-width:0.01" />
<line x1="0.118465" y1="-0.0851081" x2="0.0806759" y2="-0.0693627" style="stroke:rgb(246,147,147);stroke-width:0.01" />
<line x1="0.127068" y1="-0.0765048" x2="-0.110423" y2="0.0351525" style="stroke:rgb(246,147,147);stroke-width:0.01" />
<line x1="0.0453329" y1="0.0579762" x2="0.0453329" y2="0.0669852" style="stroke:rgb(246,147,147);stroke-width:0.01" />
<line x1="0.158691" y1="-0.0085872" x2="-0.0106148" y2="0.104284" style="stroke:rgb(246,147,147);stroke-width:0.01" />
<line x1="0.075241" y1="-0.128332" x2="0.0806759" y2="-0.0693627" style="stroke:rgb(246,147,147);stroke-width:0.01" />
<line x1="0.1488" y1="-0.0547728" x2="0.158691" y2="-0.0085872" style="stroke:rgb(246,147,147);stroke-width:0.01" />
<line x1="-0.0938025" y1="-4.94895e-05" x2="-0.10776" y2="0.00319656" style="stroke:rgb(246,147,147);stroke-width:0.01" />
<line x1="-0.063165" y1="-0.141088" x2="0.075241" y2="-0.128332" style="stroke:rgb(246,147,147);stroke-width:0.01" />
<line x1="0.0784547" y1="-0.125118" x2="0.110318" y2="0.0236616" style="stroke:rgb(246,147,147);stroke-width:0.01" />
<line x1="0.0496208" y1="-0.130693" x2="0.0861317" y2="0.039786" style="stroke:rgb(246,147,147);stroke-width:0.01" />
<line x1="-0.063165" y1="-0.141088" x2="-0.0106148" y2="0.104284" style="stroke:rgb(246,147,147);stroke-width:0.01" />
<line x1="0.0754784" y1="-0.125756" x2="0.0784547" y2="-0.125118" style="stroke:rgb(246,147,147);stroke-width:0.01" />
<line x1="-0.103879" y1="-0.0433752" x2="-0.0938025" y2="-4.94895e-05" style="stroke:rgb(246,147,147);stroke-width:0.01" />
<line x1="0.0806759" y1="-0.0693627" x2="0.1488" y2="-0.0547728" style="stroke:rgb(246,147,147);stroke-width:0.01" />
<line x1="-0.0151318" y1="-0.218705" x2="0.1488" y2="-0.0547728" style="stroke:rgb(246,147,147);stroke-width:0.01" />
<line x1="-0.0922911" y1="-0.182428" x2="0.158691" y2="-0.0085872" style="stroke:rgb(246,147,147);stroke-width:0.01" />
<line x1="0.0453329" y1="0.0579762" x2="0.0588464" y2="0.0579762" style="stroke:rgb(246,147,147);stroke-width:0.01" />
<line x1="-0.0974716" y1="-0.120262" x2="0.110318" y2="0.0236616" style="stroke:rgb(246,147,147);stroke-width:0.01" />
<line x1="-0.100062" y1="-0.0891792" x2="0.0861317" y2="0.039786" style="stroke:rgb(246,147,147);stroke-width:0.01" />
<line x1="-0.10776" y1="0.00319656" x2="0.0453329" y2="0.0669852" style="stroke:rgb(246,147,147);stroke-width:0.01" />
<line x1="-0.110423" y1="0.0351525" x2="-0.0106148" y2="0.104284" style="stroke:rgb(246,147,147);stroke-width:0.01" />
<line x1="-0.135571" y1="0.0374643" x2="0.0356398" y2="0.11796" style="stroke:rgb(246,147,147);stroke-width:0.01" />
</g>
</svg>
