<svg xmlns="http://www.w3.org/2000/svg" viewBox="-1.5 -1.5 3 3">
<g transform="scale(1, -1)">
<path d="M-0.357762 -0.060465 L-0.193830 0.103467 L-0.183939 0.149653 L-0.276509 0.211366 L-0.306990 0.276200 L-0.346146 0.257791 L-0.353245 0.262524 L-0.389520 0.237398 L-0.478201 0.195704 L-0.447869 0.131190 L-0.434921 -0.024188 z " fill="rgb(245,195,195)" />
<path d="M0.000000 0.000000 L1.000000 0.000000 L1.000000 1.000000 L0.000000 1.000000  z" fill="none" stroke="rgb(128,128,128)" stroke-width="0.01" />
<line x1="-0.357762" y1="-0.0604647" x2="-0.434921" y2="-0.0241879" style="stroke:rgb(246,147,147);stroke-width:0.01" />
<line x1="-0.357762" y1="-0.0604647" x2="-0.478201" y2="0.195704" style="stroke:rgb(246,147,147);stroke-width:0.01" />
<line x1="-0.405795" y1="0.0171518" x2="-0.446509" y2="0.114865" style="stroke:rgb(246,147,147);stroke-width:0.01" />
<line x1="-0.317133" y1="-0.0198361" x2="-0.440102" y2="0.037978" style="stroke:rgb(246,147,147);stroke-width:0.01" />
<line x1="-0.317133" y1="-0.0198361" x2="-0.429284" y2="0.218703" style="stroke:rgb(246,147,147);stroke-width:0.01" />
<line x1="-0.296819" y1="0.000478129" x2="-0.404825" y2="0.230202" style="stroke:rgb(246,147,147);stroke-width:0.01" />
<line x1="-0.296819" y1="0.000478129" x2="-0.442692" y2="0.0690609" style="stroke:rgb(246,147,147);stroke-width:0.01" />
<line x1="-0.293009" y1="0.0275468" x2="-0.363825" y2="0.197505" style="stroke:rgb(246,147,147);stroke-width:0.01" />
<line x1="-0.265501" y1="0.0317965" x2="-0.338877" y2="0.2079" style="stroke:rgb(246,147,147);stroke-width:0.01" />
<line x1="-0.224165" y1="0.073132" x2="-0.283784" y2="0.216216" style="stroke:rgb(246,147,147);stroke-width:0.01" />
<line x1="-0.215562" y1="0.0817352" x2="-0.30699" y2="0.2762" style="stroke:rgb(246,147,147);stroke-width:0.01" />
<line x1="-0.265501" y1="0.0317965" x2="-0.267152" y2="0.0324844" style="stroke:rgb(246,147,147);stroke-width:0.01" />
<line x1="-0.434921" y1="-0.0241879" x2="-0.453053" y2="0.193393" style="stroke:rgb(246,147,147);stroke-width:0.01" />
<line x1="-0.224165" y1="0.073132" x2="-0.261954" y2="0.0888773" style="stroke:rgb(246,147,147);stroke-width:0.01" />
<line x1="-0.215562" y1="0.0817352" x2="-0.453053" y2="0.193393" style="stroke:rgb(246,147,147);stroke-width:0.01" />
<line x1="-0.297297" y1="0.216216" x2="-0.297297" y2="0.225225" style="stroke:rgb(246,147,147);stroke-width:0.01" />
<line x1="-0.183939" y1="0.149653" x2="-0.353245" y2="0.262524" style="stroke:rgb(246,147,147);stroke-width:0.01" />
<line x1="-0.267389" y1="0.0299081" x2="-0.261954" y2="0.0888773" style="stroke:rgb(246,147,147);stroke-width:0.01" />
<line x1="-0.19383" y1="0.103467" x2="-0.183939" y2="0.149653" style="stroke:rgb(246,147,147);stroke-width:0.01" />
<line x1="-0.436433" y1="0.158191" x2="-0.45039" y2="0.161437" style="stroke:rgb(246,147,147);stroke-width:0.01" />
<line x1="-0.405795" y1="0.0171518" x2="-0.267389" y2="0.0299081" style="stroke:rgb(246,147,147);stroke-width:0.01" />
<line x1="-0.264175" y1="0.0331218" x2="-0.232312" y2="0.181902" style="stroke:rgb(246,147,147);stroke-width:0.01" />
<line x1="-0.293009" y1="0.0275468" x2="-0.256499" y2="0.198026" style="stroke:rgb(246,147,147);stroke-width:0.01" />
<line x1="-0.405795" y1="0.0171518" x2="-0.353245" y2="0.262524" style="stroke:rgb(246,147,147);stroke-width:0.01" />
<line x1="-0.267152" y1="0.0324844" x2="-0.264175" y2="0.0331218" style="stroke:rgb(246,147,147);stroke-width:0.01" />
<line x1="-0.446509" y1="0.114865" x2="-0.436433" y2="0.158191" style="stroke:rgb(246,147,147);stroke-width:0.01" />
<line x1="-0.261954" y1="0.0888773" x2="-0.19383" y2="0.103467" style="stroke:rgb(246,147,147);stroke-width:0.01" />
<line x1="-0.357762" y1="-0.0604647" x2="-0.19383" y2="0.103467" style="stroke:rgb(246,147,147);stroke-width:0.01" />
<line x1="-0.434921" y1="-0.0241879" x2="-0.183939" y2="0.149653" style="stroke:rgb(246,147,147);stroke-width:0.01" />
<line x1="-0.297297" y1="0.216216" x2="-0.283784" y2="0.216216" style="stroke:rgb(246,147,147);stroke-width:0.01" />
<line x1="-0.440102" y1="0.037978" x2="-0.232312" y2="0.181902" style="stroke:rgb(246,147,147);stroke-width:0.01" />
<line x1="-0.442692" y1="0.0690609" x2="-0.256499" y2="0.198026" style="stroke:rgb(246,147,147);stroke-width:0.01" />
<line x1="-0.45039" y1="0.161437" x2="-0.297297" y2="0.225225" style="stroke:rgb(246,147,147);stroke-width:0.01" />
<line x1="-0.453053" y1="0.193393" x2="-0.353245" y2="0.262524" style="stroke:rgb(246,147,147);stroke-width:0.01" />
<line x1="-0.478201" y1="0.195704" x2="-0.30699" y2="0.2762" style="stroke:rgb(246,147,147);stroke-width:0.01" />
</g>
</svg>
