<svg xmlns="http://www.w3.org/2000/svg" viewBox="-1.5 -1.5 3 3">
<g transform="scale(1, -1)">
<path d="M-0.019231 -0.490385 L-0.019231 -0.240385 L0.230769 -0.240385 L0.355769 -0.115385 L0.355769 0.009615 L0.230769 0.009615 L0.230769 0.259615 L-0.019231 0.509615 L-0.019231 0.259615 L-0.269231 0.259615 L-0.519231 0.009615 L-0.269231 0.009615 L-0.269231 -0.240385 z " fill="rgb(245,195,195)" />
<path d="M-0.581731 -0.490385 L0.418269 -0.490385 L0.418269 0.509615 L-0.581731 0.509615  z" fill="none" stroke="rgb(128,128,128)" stroke-width="0.01" />
<line x1="0.230769" y1="-0.240385" x2="0.355769" y2="-0.115385" style="stroke:rgb(246,147,147);stroke-width:0.01" />
<line x1="-0.269231" y1="-0.240385" x2="0.230769" y2="0.259615" style="stroke:rgb(246,147,147);stroke-width:0.01" />
<line x1="-0.269231" y1="-0.240385" x2="-0.269231" y2="0.259615" style="stroke:rgb(246,147,147);stroke-width:0.01" />
<line x1="-0.0192308" y1="-0.490385" x2="-0.0192308" y2="0.509615" style="stroke:rgb(246,147,147);stroke-width:0.01" />
<line x1="0.230769" y1="-0.240385" x2="0.230769" y2="0.259615" style="stroke:rgb(246,147,147);stroke-width:0.01" />
<line x1="0.355769" y1="-0.115385" x2="0.355769" y2="0.00961538" style="stroke:rgb(246,147,147);stroke-width:0.01" />
<line x1="-0.519231" y1="0.00961538" x2="-0.269231" y2="0.259615" style="stroke:rgb(246,147,147);stroke-width:0.01" />
<line x1="-0.269231" y1="-0.240385" x2="0.230769" y2="-0.240385" style="stroke:rgb(246,147,147);stroke-width:0.01" />
<line x1="-0.0192308" y1="-0.490385" x2="-0.269231" y2="-0.240385" style="stroke:rgb(246,147,147);stroke-width:0.01" />
<line x1="-0.519231" y1="0.00961538" x2="0.355769" y2="0.00961538" style="stroke:rgb(246,147,147);stroke-width:0.01" />
<line x1="0.230769" y1="-0.240385" x2="-0.269231" y2="0.259615" style="stroke:rgb(246,147,147);stroke-width:0.01" />
<line x1="0.355769" y1="-0.115385" x2="0.230769" y2="0.00961538" style="stroke:rgb(246,147,147);stroke-width:0.01" />
<line x1="-0.269231" y1="0.259615" x2="0.230769" y2="0.259615" style="stroke:rgb(246,147,147);stroke-width:0.01" />
<line x1="0.230769" y1="0.259615" x2="-0.0192308" y2="0.509615" style="stroke:rgb(246,147,147);stroke-width:0.01" />
</g>
</svg>
