<svg xmlns="http://www.w3.org/2000/svg" viewBox="-1.5 -1.5 3 3">
<g transform="scale(1, -1)">
<path d="M0.562500 0.000000 L0.562500 0.250000 L0.812500 0.250000 L0.937500 0.375000 L0.937500 0.500000 L0.812500 0.500000 L0.812500 0.750000 L0.562500 1.000000 L0.562500 0.750000 L0.312500 0.750000 L0.062500 0.500000 L0.312500 0.500000 L0.312500 0.250000 z " fill="rgb(245,195,195)" />
<path d="M0.000000 0.000000 L1.000000 0.000000 L1.000000 1.000000 L0.000000 1.000000  z" fill="none" stroke="rgb(128,128,128)" stroke-width="0.01" />
<line x1="0.8125" y1="0.25" x2="0.9375" y2="0.375" style="stroke:rgb(246,147,147);stroke-width:0.01" />
<line x1="0.3125" y1="0.25" x2="0.8125" y2="0.75" style="stroke:rgb(246,147,147);stroke-width:0.01" />
<line x1="0.3125" y1="0.25" x2="0.3125" y2="0.75" style="stroke:rgb(246,147,147);stroke-width:0.01" />
<line x1="0.5625" y1="0" x2="0.5625" y2="1" style="stroke:rgb(246,147,147);stroke-width:0.01" />
<line x1="0.8125" y1="0.25" x2="0.8125" y2="0.75" style="stroke:rgb(246,147,147);stroke-width:0.01" />
<line x1="0.9375" y1="0.375" x2="0.9375" y2="0.5" style="stroke:rgb(246,147,147);stroke-width:0.01" />
<line x1="0.0625" y1="0.5" x2="0.3125" y2="0.75" style="stroke:rgb(246,147,147);stroke-width:0.01" />
<line x1="0.3125" y1="0.25" x2="0.8125" y2="0.25" style="stroke:rgb(246,147,147);stroke-width:0.01" />
<line x1="0.5625" y1="0" x2="0.3125" y2="0.25" style="stroke:rgb(246,147,147);stroke-width:0.01" />
<line x1="0.0625" y1="0.5" x2="0.9375" y2="0.5" style="stroke:rgb(246,147,147);stroke-width:0.01" />
<line x1="0.8125" y1="0.25" x2="0.3125" y2="0.75" style="stroke:rgb(246,147,147);stroke-width:0.01" />
<line x1="0.9375" y1="0.375" x2="0.8125" y2="0.5" style="stroke:rgb(246,147,147);stroke-width:0.01" />
<line x1="0.3125" y1="0.75" x2="0.8125" y2="0.75" style="stroke:rgb(246,147,147);stroke-width:0.01" />
<line x1="0.8125" y1="0.75" x2="0.5625" y2="1" style="stroke:rgb(246,147,147);stroke-width:0.01" />
</g>
</svg>
