<svg xmlns="http://www.w3.org/2000/svg" viewBox="-1.5 -1.5 3 3">
<g transform="scale(1, -1)">
<path d="M-0.115385 -0.355769 L0.009615 -0.355769 L0.009615 -0.230769 L0.259615 -0.230769 L0.509615 0.019231 L0.259615 0.019231 L0.259615 0.269231 L0.009615 0.519231 L0.009615 0.269231 L-0.240385 0.269231 L-0.490385 0.019231 L-0.240385 0.019231 L-0.240385 -0.230769 z " fill="rgb(245,195,195)" />
<path d="M-0.490385 0.581731 L0.509615 0.581731 L0.509615 1.581731 L-0.490385 1.581731  z" fill="none" stroke="rgb(128,128,128)" stroke-width="0.01" />
<line x1="-0.115385" y1="-0.355769" x2="0.00961538" y2="-0.355769" style="stroke:rgb(246,147,147);stroke-width:0.01" />
<line x1="-0.240385" y1="-0.230769" x2="0.259615" y2="-0.230769" style="stroke:rgb(246,147,147);stroke-width:0.01" />
<line x1="0.259615" y1="-0.230769" x2="0.509615" y2="0.0192308" style="stroke:rgb(246,147,147);stroke-width:0.01" />
<line x1="-0.115385" y1="-0.355769" x2="0.00961538" y2="-0.230769" style="stroke:rgb(246,147,147);stroke-width:0.01" />
<line x1="-0.490385" y1="0.0192308" x2="0.509615" y2="0.0192308" style="stroke:rgb(246,147,147);stroke-width:0.01" />
<line x1="-0.240385" y1="-0.230769" x2="0.259615" y2="0.269231" style="stroke:rgb(246,147,147);stroke-width:0.01" />
<line x1="-0.240385" y1="0.269231" x2="0.259615" y2="0.269231" style="stroke:rgb(246,147,147);stroke-width:0.01" />
<line x1="-0.115385" y1="-0.355769" x2="-0.240385" y2="-0.230769" style="stroke:rgb(246,147,147);stroke-width:0.01" />
<line x1="-0.490385" y1="0.0192308" x2="-0.240385" y2="0.269231" style="stroke:rgb(246,147,147);stroke-width:0.01" />
<line x1="0.259615" y1="-0.230769" x2="-0.240385" y2="0.269231" style="stroke:rgb(246,147,147);stroke-width:0.01" />
<line x1="-0.240385" y1="-0.230769" x2="-0.240385" y2="0.269231" style="stroke:rgb(246,147,147);stroke-width:0.01" />
<line x1="0.00961538" y1="-0.355769" x2="0.00961538" y2="0.519231" style="stroke:rgb(246,147,147);stroke-width:0.01" />
<line x1="0.259615" y1="-0.230769" x2="0.259615" y2="0.269231" style="stroke:rgb(246,147,147);stroke-width:0.01" />
<line x1="0.259615" y1="0.269231" x2="0.00961538" y2="0.519231" style="stroke:rgb(246,147,147);stroke-width:0.01" />
</g>
</svg>
