<svg xmlns="http://www.w3.org/2000/svg" viewBox="-1.5 -1.5 3 3">
<g transform="scale(1, -1)">
<path d="M-0.314286 -0.314286 L0.485714 -0.314286 L0.185714 -0.014286 L0.185714 0.185714 L-0.114286 0.485714 L-0.114286 0.085714 L-0.314286 -0.114286 z " fill="rgb(245,195,195)" />
<path d="M-0.314286 -0.314286 L0.685714 -0.314286 L0.685714 0.685714 L-0.314286 0.685714  z" fill="none" stroke="rgb(128,128,128)" stroke-width="0.01" />
<line x1="-0.314286" y1="-0.314286" x2="0.485714" y2="-0.314286" style="stroke:rgb(246,147,147);stroke-width:0.01" />
<line x1="-0.114286" y1="-0.114286" x2="0.185714" y2="0.185714" style="stroke:rgb(246,147,147);stroke-width:0.01" />
<line x1="-0.314286" y1="-0.314286" x2="-0.314286" y2="-0.114286" style="stroke:rgb(246,147,147);stroke-width:0.01" />
<line x1="-0.114286" y1="-0.114286" x2="-0.114286" y2="0.485714" style="stroke:rgb(246,147,147);stroke-width:0.01" />
<line x1="0.0857143" y1="-0.314286" x2="0.0857143" y2="0.0857143" style="stroke:rgb(246,147,147);stroke-width:0.01" />
<line x1="0.185714" y1="-0.314286" x2="0.185714" y2="0.185714" style="stroke:rgb(246,147,147);stroke-width:0.01" />
<line x1="-0.314286" y1="-0.114286" x2="0.0857143" y2="0.285714" style="stroke:rgb(246,147,147);stroke-width:0.01" />
<line x1="-0.314286" y1="-0.114286" x2="-0.114286" y2="-0.114286" style="stroke:rgb(246,147,147);stroke-width:0.01" />
<line x1="0.485714" y1="-0.314286" x2="0.0857143" y2="0.0857143" style="stroke:rgb(246,147,147);stroke-width:0.01" />
<line x1="0.185714" y1="0.185714" x2="-0.114286" y2="0.485714" style="stroke:rgb(246,147,147);stroke-width:0.01" />
</g>
</svg>
