<svg xmlns="http://www.w3.org/2000/svg" viewBox="-1.5 -1.5 3 3">
<g transform="scale(1, -1)">
<path d="M-0.500000 0.062500 L-0.500000 0.312500 L-0.250000 0.312500 L0.000000 0.562500 L-0.250000 0.562500 L-0.250000 0.812500 L-0.375000 0.937500 L-0.500000 0.937500 L-0.500000 0.812500 L-0.750000 0.812500 L-1.000000 0.562500 L-0.750000 0.562500 L-0.750000 0.312500 z " fill="rgb(245,195,195)" />
<path d="M0.000000 0.000000 L1.000000 0.000000 L1.000000 1.000000 L0.000000 1.000000  z" fill="none" stroke="rgb(128,128,128)" stroke-width="0.01" />
<line x1="-0.5" y1="0.0625" x2="-0.75" y2="0.3125" style="stroke:rgb(246,147,147);stroke-width:0.01" />
<line x1="-0.75" y1="0.3125" x2="-0.75" y2="0.8125" style="stroke:rgb(246,147,147);stroke-width:0.01" />
<line x1="-0.5" y1="0.0625" x2="-0.5" y2="0.9375" style="stroke:rgb(246,147,147);stroke-width:0.01" />
<line x1="-0.25" y1="0.3125" x2="-0.25" y2="0.8125" style="stroke:rgb(246,147,147);stroke-width:0.01" />
<line x1="-0.25" y1="0.3125" x2="-0.75" y2="0.8125" style="stroke:rgb(246,147,147);stroke-width:0.01" />
<line x1="-0.25" y1="0.3125" x2="0" y2="0.5625" style="stroke:rgb(246,147,147);stroke-width:0.01" />
<line x1="-0.25" y1="0.8125" x2="-0.375" y2="0.9375" style="stroke:rgb(246,147,147);stroke-width:0.01" />
<line x1="-0.75" y1="0.3125" x2="-0.25" y2="0.3125" style="stroke:rgb(246,147,147);stroke-width:0.01" />
<line x1="-0.75" y1="0.3125" x2="-0.25" y2="0.8125" style="stroke:rgb(246,147,147);stroke-width:0.01" />
<line x1="-1" y1="0.5625" x2="0" y2="0.5625" style="stroke:rgb(246,147,147);stroke-width:0.01" />
<line x1="-0.5" y1="0.8125" x2="-0.375" y2="0.9375" style="stroke:rgb(246,147,147);stroke-width:0.01" />
<line x1="-1" y1="0.5625" x2="-0.75" y2="0.8125" style="stroke:rgb(246,147,147);stroke-width:0.01" />
<line x1="-0.75" y1="0.8125" x2="-0.25" y2="0.8125" style="stroke:rgb(246,147,147);stroke-width:0.01" />
<line x1="-0.5" y1="0.9375" x2="-0.375" y2="0.9375" style="stroke:rgb(246,147,147);stroke-width:0.01" />
</g>
</svg>
