<svg xmlns="http://www.w3.org/2000/svg" viewBox="-1.5 -1.5 3 3">
<g transform="scale(1, -1)">
<path d="M-0.096154 -0.158654 L0.028846 -0.158654 L0.153846 -0.033654 L0.153846 0.028846 L0.216346 0.028846 L0.216346 0.153846 L-0.096154 0.153846 L-0.221154 0.028846 L-0.221154 -0.033654 z M-0.096154 -0.033654 L-0.096154 0.028846 L0.028846 0.028846 L0.028846 -0.033654 z " fill="rgb(245,195,195)" />
<path d="M-0.221154 -0.158654 L0.778846 -0.158654 L0.778846 0.841346 L-0.221154 0.841346  z" fill="none" stroke="rgb(128,128,128)" stroke-width="0.01" />
<line x1="0.0288462" y1="-0.158654" x2="0.153846" y2="-0.0336538" style="stroke:rgb(246,147,147);stroke-width:0.01" />
<line x1="-0.0961538" y1="-0.158654" x2="0.0288462" y2="-0.158654" style="stroke:rgb(246,147,147);stroke-width:0.01" />
<line x1="-0.221154" y1="-0.0336538" x2="-0.221154" y2="0.0288462" style="stroke:rgb(246,147,147);stroke-width:0.01" />
<line x1="-0.0961538" y1="-0.158654" x2="-0.0961538" y2="0.153846" style="stroke:rgb(246,147,147);stroke-width:0.01" />
<line x1="0.0288462" y1="-0.158654" x2="0.0288462" y2="0.0913462" style="stroke:rgb(246,147,147);stroke-width:0.01" />
<line x1="0.153846" y1="-0.0336538" x2="0.153846" y2="0.0913462" style="stroke:rgb(246,147,147);stroke-width:0.01" />
<line x1="0.216346" y1="0.0288462" x2="0.216346" y2="0.153846" style="stroke:rgb(246,147,147);stroke-width:0.01" />
<line x1="-0.0961538" y1="-0.158654" x2="-0.221154" y2="-0.0336538" style="stroke:rgb(246,147,147);stroke-width:0.01" />
<line x1="-0.221154" y1="0.0288462" x2="-0.0961538" y2="0.153846" style="stroke:rgb(246,147,147);stroke-width:0.01" />
<line x1="-0.221154" y1="-0.0336538" x2="0.153846" y2="-0.0336538" style="stroke:rgb(246,147,147);stroke-width:0.01" />
<line x1="-0.221154" y1="0.0288462" x2="0.216346" y2="0.0288462" style="stroke:rgb(246,147,147);stroke-width:0.01" />
<line x1="0.0288462" y1="0.0913462" x2="0.153846" y2="0.0913462" style="stroke:rgb(246,147,147);stroke-width:0.01" />
<line x1="-0.0961538" y1="0.153846" x2="0.216346" y2="0.153846" style="stroke:rgb(246,147,147);stroke-width:0.01" />
</g>
</svg>
