<svg xmlns="http://www.w3.org/2000/svg" viewBox="-1.5 -1.5 3 3">
<g transform="scale(1, -1)">
<path d="M-0.055325 -0.203842 L0.026272 -0.203842 L0.166897 -0.078842 L0.191221 0.127193 L0.120483 0.135544 L0.103896 0.204814 L-0.097865 0.156503 L-0.205516 0.002193 L-0.195950 -0.078842 z M-0.070082 -0.078842 L-0.083109 0.031503 L0.058046 0.065302 L0.041029 -0.078842 z " fill="rgb(245,195,195)" />
<path d="M-0.625637 -0.203842 L0.374363 -0.203842 L0.374363 0.796158 L-0.625637 0.796158  z" fill="none" stroke="rgb(128,128,128)" stroke-width="0.01" />
<line x1="0.0262725" y1="-0.203842" x2="0.166897" y2="-0.0788419" style="stroke:rgb(246,147,147);stroke-width:0.01" />
<line x1="-0.205516" y1="0.00219259" x2="-0.0978654" y2="0.156503" style="stroke:rgb(246,147,147);stroke-width:0.01" />
<line x1="0.166897" y1="-0.0788419" x2="0.191221" y2="0.127193" style="stroke:rgb(246,147,147);stroke-width:0.01" />
<line x1="0.0262725" y1="-0.203842" x2="0.0670831" y2="0.141848" style="stroke:rgb(246,147,147);stroke-width:0.01" />
<line x1="-0.0553247" y1="-0.203842" x2="0.0262725" y2="-0.203842" style="stroke:rgb(246,147,147);stroke-width:0.01" />
<line x1="-0.19595" y1="-0.0788419" x2="-0.205516" y2="0.00219259" style="stroke:rgb(246,147,147);stroke-width:0.01" />
<line x1="-0.0553247" y1="-0.203842" x2="-0.0978654" y2="0.156503" style="stroke:rgb(246,147,147);stroke-width:0.01" />
<line x1="-0.205516" y1="0.00219259" x2="0.133005" y2="0.0832509" style="stroke:rgb(246,147,147);stroke-width:0.01" />
<line x1="-0.19595" y1="-0.0788419" x2="0.166897" y2="-0.0788419" style="stroke:rgb(246,147,147);stroke-width:0.01" />
<line x1="0.133005" y1="0.0832509" x2="0.103896" y2="0.204814" style="stroke:rgb(246,147,147);stroke-width:0.01" />
<line x1="-0.0978654" y1="0.156503" x2="0.103896" y2="0.204814" style="stroke:rgb(246,147,147);stroke-width:0.01" />
<line x1="-0.0553247" y1="-0.203842" x2="-0.19595" y2="-0.0788419" style="stroke:rgb(246,147,147);stroke-width:0.01" />
<line x1="0.191221" y1="0.127193" x2="0.0670831" y2="0.141848" style="stroke:rgb(246,147,147);stroke-width:0.01" />
</g>
</svg>
