<svg xmlns="http://www.w3.org/2000/svg" viewBox="-1.5 -1.5 3 3">
<g transform="scale(1, -1)">
<path d="M0.570312 0.000000 L0.651910 0.000000 L0.792535 0.125000 L0.816858 0.331034 L0.746120 0.339385 L0.729534 0.408656 L0.527772 0.360345 L0.420121 0.206034 L0.429688 0.125000 z M0.555556 0.125000 L0.542529 0.235345 L0.683684 0.269144 L0.666667 0.125000 z " fill="rgb(245,195,195)" />
<path d="M0.000000 0.000000 L1.000000 0.000000 L1.000000 1.000000 L0.000000 1.000000  z" fill="none" stroke="rgb(128,128,128)" stroke-width="0.01" />
<line x1="0.65191" y1="0" x2="0.792535" y2="0.125" style="stroke:rgb(246,147,147);stroke-width:0.01" />
<line x1="0.420121" y1="0.206034" x2="0.527772" y2="0.360345" style="stroke:rgb(246,147,147);stroke-width:0.01" />
<line x1="0.792535" y1="0.125" x2="0.816858" y2="0.331034" style="stroke:rgb(246,147,147);stroke-width:0.01" />
<line x1="0.65191" y1="0" x2="0.69272" y2="0.34569" style="stroke:rgb(246,147,147);stroke-width:0.01" />
<line x1="0.570312" y1="0" x2="0.65191" y2="0" style="stroke:rgb(246,147,147);stroke-width:0.01" />
<line x1="0.429688" y1="0.125" x2="0.420121" y2="0.206034" style="stroke:rgb(246,147,147);stroke-width:0.01" />
<line x1="0.570312" y1="0" x2="0.527772" y2="0.360345" style="stroke:rgb(246,147,147);stroke-width:0.01" />
<line x1="0.420121" y1="0.206034" x2="0.758642" y2="0.287093" style="stroke:rgb(246,147,147);stroke-width:0.01" />
<line x1="0.429688" y1="0.125" x2="0.792535" y2="0.125" style="stroke:rgb(246,147,147);stroke-width:0.01" />
<line x1="0.758642" y1="0.287093" x2="0.729534" y2="0.408656" style="stroke:rgb(246,147,147);stroke-width:0.01" />
<line x1="0.527772" y1="0.360345" x2="0.729534" y2="0.408656" style="stroke:rgb(246,147,147);stroke-width:0.01" />
<line x1="0.570312" y1="0" x2="0.429688" y2="0.125" style="stroke:rgb(246,147,147);stroke-width:0.01" />
<line x1="0.816858" y1="0.331034" x2="0.69272" y2="0.34569" style="stroke:rgb(246,147,147);stroke-width:0.01" />
</g>
</svg>
