<svg xmlns="http://www.w3.org/2000/svg" viewBox="-1.5 -1.5 3 3">
<g transform="scale(1, -1)">
<path d="M-0.100001 0.000000 L0.050000 0.000000 L0.050000 0.770000 L0.000000 0.800000 L-0.176471 0.705882 L-0.147475 0.651516 L-0.400001 0.500000 z " fill="rgb(245,195,195)" />
<path d="M0.000000 0.000000 L1.000000 0.000000 L1.000000 1.000000 L0.000000 1.000000  z" fill="none" stroke="rgb(128,128,128)" stroke-width="0.01" />
<line x1="-0.100001" y1="0" x2="-0.400001" y2="0.5" style="stroke:rgb(246,147,147);stroke-width:0.01" />
<line x1="-0.100001" y1="0" x2="0.0499995" y2="0" style="stroke:rgb(246,147,147);stroke-width:0.01" />
<line x1="0" y1="0" x2="0" y2="0.8" style="stroke:rgb(246,147,147);stroke-width:0.01" />
<line x1="0.0499995" y1="0" x2="0.0499995" y2="0.77" style="stroke:rgb(246,147,147);stroke-width:0.01" />
<line x1="-0.100001" y1="0" x2="0.0499995" y2="0.281251" style="stroke:rgb(246,147,147);stroke-width:0.01" />
<line x1="0.0499995" y1="0.281251" x2="-0.176471" y2="0.705882" style="stroke:rgb(246,147,147);stroke-width:0.01" />
<line x1="-0.400001" y1="0.5" x2="0.0499995" y2="0.77" style="stroke:rgb(246,147,147);stroke-width:0.01" />
<line x1="0.0499995" y1="0.77" x2="0" y2="0.8" style="stroke:rgb(246,147,147);stroke-width:0.01" />
<line x1="-0.176471" y1="0.705882" x2="0" y2="0.8" style="stroke:rgb(246,147,147);stroke-width:0.01" />
</g>
</svg>
