<svg xmlns="http://www.w3.org/2000/svg" viewBox="-1.5 -1.5 3 3">
<g transform="scale(1, -1)">
<path d="M0.003420 -0.489628 L0.153421 -0.489628 L0.153421 0.280372 L0.103421 0.310372 L-0.073049 0.216254 L-0.044054 0.161887 L-0.296580 0.010372 z " fill="rgb(245,195,195)" />
<path d="M0.103421 -0.489628 L1.103421 -0.489628 L1.103421 0.510372 L0.103421 0.510372  z" fill="none" stroke="rgb(128,128,128)" stroke-width="0.01" />
<line x1="0.00342024" y1="-0.489628" x2="-0.29658" y2="0.0103717" style="stroke:rgb(246,147,147);stroke-width:0.01" />
<line x1="0.00342024" y1="-0.489628" x2="0.153421" y2="-0.489628" style="stroke:rgb(246,147,147);stroke-width:0.01" />
<line x1="0.103421" y1="-0.489628" x2="0.103421" y2="0.310372" style="stroke:rgb(246,147,147);stroke-width:0.01" />
<line x1="0.153421" y1="-0.489628" x2="0.153421" y2="0.280372" style="stroke:rgb(246,147,147);stroke-width:0.01" />
<line x1="0.00342024" y1="-0.489628" x2="0.153421" y2="-0.208377" style="stroke:rgb(246,147,147);stroke-width:0.01" />
<line x1="0.153421" y1="-0.208377" x2="-0.0730494" y2="0.216254" style="stroke:rgb(246,147,147);stroke-width:0.01" />
<line x1="-0.29658" y1="0.0103717" x2="0.153421" y2="0.280372" style="stroke:rgb(246,147,147);stroke-width:0.01" />
<line x1="0.153421" y1="0.280372" x2="0.103421" y2="0.310372" style="stroke:rgb(246,147,147);stroke-width:0.01" />
<line x1="-0.0730494" y1="0.216254" x2="0.103421" y2="0.310372" style="stroke:rgb(246,147,147);stroke-width:0.01" />
</g>
</svg>
