<svg xmlns="http://www.w3.org/2000/svg" viewBox="-1.5 -1.5 3 3">
<path d="M-0.084615 -0.119231 L0.005128 -0.051923 L0.084615 -0.111538 L0.161538 -0.073077 L0.161538 0.080769 L0.084615 0.119231 L-0.005128 0.051923 L-0.084615 0.111538 L-0.161538 0.073077 L-0.161538 -0.080769 z M-0.084615 -0.023077 L-0.084615 0.015385 L-0.058974 -0.003846 z M0.084615 -0.015385 L0.058974 0.003846 L0.084615 0.023077 z " fill="rgb(245,195,195)" />
<path d="M-0.238462 -0.111538 L0.761538 -0.111538 L0.761538 0.888462 L-0.238462 0.888462  z" fill="none" stroke="rgb(128,128,128)" stroke-width="0.01" />
<line x1="0.0846154" y1="-0.111538" x2="0.161538" y2="-0.0730769" style="stroke:rgb(246,147,147);stroke-width:0.01" />
<line x1="-0.0846154" y1="-0.119231" x2="0.00769231" y2="-0.05" style="stroke:rgb(246,147,147);stroke-width:0.01" />
<line x1="0.00769231" y1="-0.0346154" x2="0.161538" y2="0.0807692" style="stroke:rgb(246,147,147);stroke-width:0.01" />
<line x1="-0.161538" y1="-0.0807692" x2="-0.0384615" y2="0.0115385" style="stroke:rgb(246,147,147);stroke-width:0.01" />
<line x1="-0.0384615" y1="0.0269231" x2="0.0846154" y2="0.119231" style="stroke:rgb(246,147,147);stroke-width:0.01" />
<line x1="-0.161538" y1="-0.0807692" x2="-0.161538" y2="0.0730769" style="stroke:rgb(246,147,147);stroke-width:0.01" />
<line x1="-0.0846154" y1="-0.119231" x2="-0.0846154" y2="0.111538" style="stroke:rgb(246,147,147);stroke-width:0.01" />
<line x1="0.0846154" y1="-0.111538" x2="0.0846154" y2="0.119231" style="stroke:rgb(246,147,147);stroke-width:0.01" />
<line x1="0.161538" y1="-0.0730769" x2="0.161538" y2="0.0807692" style="stroke:rgb(246,147,147);stroke-width:0.01" />
<line x1="-0.0846154" y1="-0.119231" x2="-0.161538" y2="-0.0807692" style="stroke:rgb(246,147,147);stroke-width:0.01" />
<line x1="-0.161538" y1="0.0730769" x2="-0.0846154" y2="0.111538" style="stroke:rgb(246,147,147);stroke-width:0.01" />
<line x1="0.00769231" y1="-0.05" x2="-0.0384615" y2="0.0115385" style="stroke:rgb(246,147,147);stroke-width:0.01" />
<line x1="0.00769231" y1="-0.0346154" x2="-0.0384615" y2="0.0269231" style="stroke:rgb(246,147,147);stroke-width:0.01" />
<line x1="0.0846154" y1="-0.111538" x2="-0.161538" y2="0.0730769" style="stroke:rgb(246,147,147);stroke-width:0.01" />
<line x1="0.161538" y1="-0.0730769" x2="-0.0846154" y2="0.111538" style="stroke:rgb(246,147,147);stroke-width:0.01" />
<line x1="0.161538" y1="0.0807692" x2="0.0846154" y2="0.119231" style="stroke:rgb(246,147,147);stroke-width:0.01" />
</svg>
