<svg xmlns="http://www.w3.org/2000/svg" viewBox="-1 -1 3 3">
<path d="M0.153846 -0.007692 L0.243590 0.059615 L0.323077 0.000000 L0.400000 0.038462 L0.400000 0.192308 L0.323077 0.230769 L0.233333 0.163462 L0.153846 0.223077 L0.076923 0.184615 L0.076923 0.030769 z M0.153846 0.088462 L0.153846 0.126923 L0.179487 0.107692 z M0.323077 0.096154 L0.297436 0.115385 L0.323077 0.134615 z " fill="rgb(245,195,195)" />
<path d="M0 0 L0 1 L1 1 L1 0 z" fill="none" stroke="rgb(128,128,128)" stroke-width="0.01" />
<line x1="0.323077" y1="0" x2="0.4" y2="0.0384615" style="stroke:rgb(246,147,147);stroke-width:0.01" />
<line x1="0.153846" y1="-0.00769231" x2="0.246154" y2="0.0615385" style="stroke:rgb(246,147,147);stroke-width:0.01" />
<line x1="0.246154" y1="0.0769231" x2="0.4" y2="0.192308" style="stroke:rgb(246,147,147);stroke-width:0.01" />
<line x1="0.0769231" y1="0.0307692" x2="0.2" y2="0.123077" style="stroke:rgb(246,147,147);stroke-width:0.01" />
<line x1="0.2" y1="0.138462" x2="0.323077" y2="0.230769" style="stroke:rgb(246,147,147);stroke-width:0.01" />
<line x1="0.0769231" y1="0.0307692" x2="0.0769231" y2="0.184615" style="stroke:rgb(246,147,147);stroke-width:0.01" />
<line x1="0.153846" y1="-0.00769231" x2="0.153846" y2="0.223077" style="stroke:rgb(246,147,147);stroke-width:0.01" />
<line x1="0.323077" y1="0" x2="0.323077" y2="0.230769" style="stroke:rgb(246,147,147);stroke-width:0.01" />
<line x1="0.4" y1="0.0384615" x2="0.4" y2="0.192308" style="stroke:rgb(246,147,147);stroke-width:0.01" />
<line x1="0.153846" y1="-0.00769231" x2="0.0769231" y2="0.0307692" style="stroke:rgb(246,147,147);stroke-width:0.01" />
<line x1="0.0769231" y1="0.184615" x2="0.153846" y2="0.223077" style="stroke:rgb(246,147,147);stroke-width:0.01" />
<line x1="0.246154" y1="0.0615385" x2="0.2" y2="0.123077" style="stroke:rgb(246,147,147);stroke-width:0.01" />
<line x1="0.246154" y1="0.0769231" x2="0.2" y2="0.138462" style="stroke:rgb(246,147,147);stroke-width:0.01" />
<line x1="0.323077" y1="0" x2="0.0769231" y2="0.184615" style="stroke:rgb(246,147,147);stroke-width:0.01" />
<line x1="0.4" y1="0.0384615" x2="0.153846" y2="0.223077" style="stroke:rgb(246,147,147);stroke-width:0.01" />
<line x1="0.4" y1="0.192308" x2="0.323077" y2="0.230769" style="stroke:rgb(246,147,147);stroke-width:0.01" />
</svg>
