<svg xmlns="http://www.w3.org/2000/svg" viewBox="-1.5 -1.5 3 3">
<g transform="scale(1, -1)">
<path d="M0.166667 0.000000 L0.222222 0.000000 L0.388889 0.166667 L0.388889 0.222222 L0.444444 0.222222 L0.444444 0.388889 L0.166667 0.388889 L0.000000 0.222222 L0.000000 0.166667 z M0.166667 0.166667 L0.166667 0.222222 L0.222222 0.222222 L0.222222 0.166667 z " fill="rgb(245,195,195)" />
<path d="M0.000000 0.000000 L1.000000 0.000000 L1.000000 1.000000 L0.000000 1.000000  z" fill="none" stroke="rgb(128,128,128)" stroke-width="0.01" />
<line x1="0.222222" y1="0" x2="0.388889" y2="0.166667" style="stroke:rgb(246,147,147);stroke-width:0.01" />
<line x1="0.166667" y1="0" x2="0.222222" y2="0" style="stroke:rgb(246,147,147);stroke-width:0.01" />
<line x1="0" y1="0.166667" x2="0" y2="0.222222" style="stroke:rgb(246,147,147);stroke-width:0.01" />
<line x1="0.166667" y1="0" x2="0.166667" y2="0.388889" style="stroke:rgb(246,147,147);stroke-width:0.01" />
<line x1="0.222222" y1="0" x2="0.222222" y2="0.277778" style="stroke:rgb(246,147,147);stroke-width:0.01" />
<line x1="0.388889" y1="0.166667" x2="0.388889" y2="0.277778" style="stroke:rgb(246,147,147);stroke-width:0.01" />
<line x1="0.444444" y1="0.222222" x2="0.444444" y2="0.388889" style="stroke:rgb(246,147,147);stroke-width:0.01" />
<line x1="0.166667" y1="0" x2="0" y2="0.166667" style="stroke:rgb(246,147,147);stroke-width:0.01" />
<line x1="0" y1="0.222222" x2="0.166667" y2="0.388889" style="stroke:rgb(246,147,147);stroke-width:0.01" />
<line x1="0" y1="0.166667" x2="0.388889" y2="0.166667" style="stroke:rgb(246,147,147);stroke-width:0.01" />
<line x1="0" y1="0.222222" x2="0.444444" y2="0.222222" style="stroke:rgb(246,147,147);stroke-width:0.01" />
<line x1="0.222222" y1="0.277778" x2="0.388889" y2="0.277778" style="stroke:rgb(246,147,147);stroke-width:0.01" />
<line x1="0.166667" y1="0.388889" x2="0.444444" y2="0.388889" style="stroke:rgb(246,147,147);stroke-width:0.01" />
</g>
</svg>
