<svg xmlns="http://www.w3.org/2000/svg" viewBox="-1.5 -1.5 3 3">
<g transform="scale(1, -1)">
<path d="M-0.064103 -0.196581 L-0.008547 -0.196581 L0.158120 -0.029915 L0.158120 0.025641 L0.213675 0.025641 L0.213675 0.192308 L-0.064103 0.192308 L-0.230769 0.025641 L-0.230769 -0.029915 z M-0.064103 -0.029915 L-0.064103 0.025641 L-0.008547 0.025641 L-0.008547 -0.029915 z " fill="rgb(245,195,195)" />
<path d="M-0.230769 -0.196581 L0.769231 -0.196581 L0.769231 0.803419 L-0.230769 0.803419  z" fill="none" stroke="rgb(128,128,128)" stroke-width="0.01" />
<line x1="-0.00854701" y1="-0.196581" x2="0.15812" y2="-0.0299145" style="stroke:rgb(246,147,147);stroke-width:0.01" />
<line x1="-0.0641026" y1="-0.196581" x2="-0.00854701" y2="-0.196581" style="stroke:rgb(246,147,147);stroke-width:0.01" />
<line x1="-0.230769" y1="-0.0299145" x2="-0.230769" y2="0.025641" style="stroke:rgb(246,147,147);stroke-width:0.01" />
<line x1="-0.0641026" y1="-0.196581" x2="-0.0641026" y2="0.192308" style="stroke:rgb(246,147,147);stroke-width:0.01" />
<line x1="-0.00854701" y1="-0.196581" x2="-0.00854701" y2="0.0811966" style="stroke:rgb(246,147,147);stroke-width:0.01" />
<line x1="0.15812" y1="-0.0299145" x2="0.15812" y2="0.0811966" style="stroke:rgb(246,147,147);stroke-width:0.01" />
<line x1="0.213675" y1="0.025641" x2="0.213675" y2="0.192308" style="stroke:rgb(246,147,147);stroke-width:0.01" />
<line x1="-0.0641026" y1="-0.196581" x2="-0.230769" y2="-0.0299145" style="stroke:rgb(246,147,147);stroke-width:0.01" />
<line x1="-0.230769" y1="0.025641" x2="-0.0641026" y2="0.192308" style="stroke:rgb(246,147,147);stroke-width:0.01" />
<line x1="-0.230769" y1="-0.0299145" x2="0.15812" y2="-0.0299145" style="stroke:rgb(246,147,147);stroke-width:0.01" />
<line x1="-0.230769" y1="0.025641" x2="0.213675" y2="0.025641" style="stroke:rgb(246,147,147);stroke-width:0.01" />
<line x1="-0.00854701" y1="0.0811966" x2="0.15812" y2="0.0811966" style="stroke:rgb(246,147,147);stroke-width:0.01" />
<line x1="-0.0641026" y1="0.192308" x2="0.213675" y2="0.192308" style="stroke:rgb(246,147,147);stroke-width:0.01" />
</g>
</svg>
