<svg xmlns="http://www.w3.org/2000/svg" viewBox="-1.5 -1.5 3 3">
<g transform="scale(1, -1)">
<path d="M0.158889 -0.445556 L0.088889 -0.205556 L0.328889 -0.135556 L0.498889 0.174444 L0.018889 0.034444 L-0.121111 0.514444 L-0.291111 0.204444 L-0.221111 -0.035556 L-0.461111 -0.105556 z " fill="rgb(245,195,195)" />
<path d="M-1.321111 -0.585556 L-0.321111 -0.585556 L-0.321111 0.414444 L-1.321111 0.414444  z" fill="none" stroke="rgb(128,128,128)" stroke-width="0.01" />
<line x1="0.328889" y1="-0.135556" x2="0.498889" y2="0.174444" style="stroke:rgb(246,147,147);stroke-width:0.01" />
<line x1="-0.151111" y1="-0.275556" x2="0.0188889" y2="0.0344444" style="stroke:rgb(246,147,147);stroke-width:0.01" />
<line x1="-0.291111" y1="0.204444" x2="-0.121111" y2="0.514444" style="stroke:rgb(246,147,147);stroke-width:0.01" />
<line x1="-0.151111" y1="-0.275556" x2="0.328889" y2="-0.135556" style="stroke:rgb(246,147,147);stroke-width:0.01" />
<line x1="-0.461111" y1="-0.105556" x2="0.498889" y2="0.174444" style="stroke:rgb(246,147,147);stroke-width:0.01" />
<line x1="-0.151111" y1="-0.275556" x2="-0.291111" y2="0.204444" style="stroke:rgb(246,147,147);stroke-width:0.01" />
<line x1="0.158889" y1="-0.445556" x2="-0.121111" y2="0.514444" style="stroke:rgb(246,147,147);stroke-width:0.01" />
<line x1="0.158889" y1="-0.445556" x2="-0.461111" y2="-0.105556" style="stroke:rgb(246,147,147);stroke-width:0.01" />
<line x1="0.328889" y1="-0.135556" x2="-0.291111" y2="0.204444" style="stroke:rgb(246,147,147);stroke-width:0.01" />
</g>
</svg>
