<svg xmlns="http://www.w3.org/2000/svg" viewBox="-1.5 -1.5 3 3">
<g transform="scale(1, -1)">
<path d="M1.480000 0.140000 L1.410000 0.380000 L1.650000 0.450000 L1.820000 0.760000 L1.340000 0.620000 L1.200000 1.100000 L1.030000 0.790000 L1.100000 0.550000 L0.860000 0.480000 z " fill="rgb(245,195,195)" />
<path d="M0.000000 0.000000 L1.000000 0.000000 L1.000000 1.000000 L0.000000 1.000000  z" fill="none" stroke="rgb(128,128,128)" stroke-width="0.01" />
<line x1="1.65" y1="0.45" x2="1.82" y2="0.76" style="stroke:rgb(246,147,147);stroke-width:0.01" />
<line x1="1.17" y1="0.31" x2="1.34" y2="0.62" style="stroke:rgb(246,147,147);stroke-width:0.01" />
<line x1="1.03" y1="0.79" x2="1.2" y2="1.1" style="stroke:rgb(246,147,147);stroke-width:0.01" />
<line x1="1.17" y1="0.31" x2="1.65" y2="0.45" style="stroke:rgb(246,147,147);stroke-width:0.01" />
<line x1="0.86" y1="0.48" x2="1.82" y2="0.76" style="stroke:rgb(246,147,147);stroke-width:0.01" />
<line x1="1.17" y1="0.31" x2="1.03" y2="0.79" style="stroke:rgb(246,147,147);stroke-width:0.01" />
<line x1="1.48" y1="0.14" x2="1.2" y2="1.1" style="stroke:rgb(246,147,147);stroke-width:0.01" />
<line x1="1.48" y1="0.14" x2="0.86" y2="0.48" style="stroke:rgb(246,147,147);stroke-width:0.01" />
<line x1="1.65" y1="0.45" x2="1.03" y2="0.79" style="stroke:rgb(246,147,147);stroke-width:0.01" />
</g>
</svg>
