<svg xmlns="http://www.w3.org/2000/svg" viewBox="-1.5 -1.5 3 3">
<g transform="scale(1, -1)">
<path d="M-0.787290 -0.238661 L-0.667406 0.246754 L-0.790229 0.792111 L-1.032936 0.852053 L-1.062907 0.730700 L-1.187799 0.725493 L-1.177385 0.475710 L-1.131024 0.454896 L-1.272705 -0.118777 z " fill="rgb(245,195,195)" />
<path d="M0.000000 0.000000 L1.000000 0.000000 L1.000000 1.000000 L0.000000 1.000000  z" fill="none" stroke="rgb(128,128,128)" stroke-width="0.01" />
<line x1="-0.78729" y1="-0.238661" x2="-1.27271" y2="-0.118777" style="stroke:rgb(246,147,147);stroke-width:0.01" />
<line x1="-0.667406" y1="0.246754" x2="-1.06291" y2="0.7307" style="stroke:rgb(246,147,147);stroke-width:0.01" />
<line x1="-0.667406" y1="0.246754" x2="-0.790229" y2="0.792111" style="stroke:rgb(246,147,147);stroke-width:0.01" />
<line x1="-1.17739" y1="0.47571" x2="-1.1878" y2="0.725493" style="stroke:rgb(246,147,147);stroke-width:0.01" />
<line x1="-0.667406" y1="0.246754" x2="-1.17739" y2="0.47571" style="stroke:rgb(246,147,147);stroke-width:0.01" />
<line x1="-0.78729" y1="-0.238661" x2="-0.667406" y2="0.246754" style="stroke:rgb(246,147,147);stroke-width:0.01" />
<line x1="-1.27271" y1="-0.118777" x2="-1.03294" y2="0.852053" style="stroke:rgb(246,147,147);stroke-width:0.01" />
<line x1="-0.790229" y1="0.792111" x2="-1.03294" y2="0.852053" style="stroke:rgb(246,147,147);stroke-width:0.01" />
<line x1="-1.1878" y1="0.725493" x2="-1.06291" y2="0.7307" style="stroke:rgb(246,147,147);stroke-width:0.01" />
<line x1="-1.17739" y1="0.47571" x2="-0.790229" y2="0.792111" style="stroke:rgb(246,147,147);stroke-width:0.01" />
</g>
</svg>
