<svg xmlns="http://www.w3.org/2000/svg" viewBox="-1.5 -1.5 3 3">
<g transform="scale(1, -1)">
<path d="M0.224896 -0.674248 L0.344781 -0.188833 L0.221958 0.356525 L-0.020749 0.416467 L-0.050720 0.295113 L-0.175612 0.289906 L-0.165199 0.040123 L-0.118837 0.019309 L-0.260519 -0.554363 z " fill="rgb(245,195,195)" />
<path d="M1.012187 -0.435587 L2.012187 -0.435587 L2.012187 0.564413 L1.012187 0.564413  z" fill="none" stroke="rgb(128,128,128)" stroke-width="0.01" />
<line x1="0.224896" y1="-0.674248" x2="-0.260519" y2="-0.554363" style="stroke:rgb(246,147,147);stroke-width:0.01" />
<line x1="0.344781" y1="-0.188833" x2="-0.0507205" y2="0.295113" style="stroke:rgb(246,147,147);stroke-width:0.01" />
<line x1="0.344781" y1="-0.188833" x2="0.221958" y2="0.356525" style="stroke:rgb(246,147,147);stroke-width:0.01" />
<line x1="-0.165199" y1="0.0401233" x2="-0.175612" y2="0.289906" style="stroke:rgb(246,147,147);stroke-width:0.01" />
<line x1="0.344781" y1="-0.188833" x2="-0.165199" y2="0.0401233" style="stroke:rgb(246,147,147);stroke-width:0.01" />
<line x1="0.224896" y1="-0.674248" x2="0.344781" y2="-0.188833" style="stroke:rgb(246,147,147);stroke-width:0.01" />
<line x1="-0.260519" y1="-0.554363" x2="-0.0207493" y2="0.416467" style="stroke:rgb(246,147,147);stroke-width:0.01" />
<line x1="0.221958" y1="0.356525" x2="-0.0207493" y2="0.416467" style="stroke:rgb(246,147,147);stroke-width:0.01" />
<line x1="-0.175612" y1="0.289906" x2="-0.0507205" y2="0.295113" style="stroke:rgb(246,147,147);stroke-width:0.01" />
<line x1="-0.165199" y1="0.0401233" x2="0.221958" y2="0.356525" style="stroke:rgb(246,147,147);stroke-width:0.01" />
</g>
</svg>
