<svg xmlns="http://www.w3.org/2000/svg" viewBox="-1.5 -1.5 3 3">
<g transform="scale(1, -1)">
<path d="M-0.318285 -0.260137 L-0.291108 0.072087 L-0.568978 0.763711 L-1.233425 0.818065 L-1.260602 0.485841 L-0.982732 -0.205783 z " fill="rgb(245,195,195)" />
<path d="M0.000000 0.000000 L1.000000 0.000000 L1.000000 1.000000 L0.000000 1.000000  z" fill="none" stroke="rgb(128,128,128)" stroke-width="0.01" />
<line x1="-0.982732" y1="-0.205783" x2="-1.2606" y2="0.485841" style="stroke:rgb(246,147,147);stroke-width:0.01" />
<line x1="-0.761656" y1="0.0436896" x2="-1.2606" y2="0.485841" style="stroke:rgb(246,147,147);stroke-width:0.01" />
<line x1="-0.318285" y1="-0.260137" x2="-0.982732" y2="-0.205783" style="stroke:rgb(246,147,147);stroke-width:0.01" />
<line x1="-0.291108" y1="0.0720866" x2="-0.790053" y2="0.514238" style="stroke:rgb(246,147,147);stroke-width:0.01" />
<line x1="-0.291108" y1="0.0720866" x2="-0.568978" y2="0.763711" style="stroke:rgb(246,147,147);stroke-width:0.01" />
<line x1="-0.318285" y1="-0.260137" x2="-0.291108" y2="0.0720866" style="stroke:rgb(246,147,147);stroke-width:0.01" />
<line x1="-1.2606" y1="0.485841" x2="-1.23342" y2="0.818065" style="stroke:rgb(246,147,147);stroke-width:0.01" />
<line x1="-0.982732" y1="-0.205783" x2="-0.761656" y2="0.0436896" style="stroke:rgb(246,147,147);stroke-width:0.01" />
<line x1="-0.790053" y1="0.514238" x2="-0.568978" y2="0.763711" style="stroke:rgb(246,147,147);stroke-width:0.01" />
<line x1="-0.568978" y1="0.763711" x2="-1.23342" y2="0.818065" style="stroke:rgb(246,147,147);stroke-width:0.01" />
</g>
</svg>
