<svg xmlns="http://www.w3.org/2000/svg" viewBox="-1.5 -1.5 3 3">
<g transform="scale(1, -1)">
<path d="M0.457570 -0.539101 L0.484747 -0.206877 L0.206877 0.484747 L-0.457570 0.539101 L-0.484747 0.206877 L-0.206877 -0.484747 z " fill="rgb(245,195,195)" />
<path d="M0.775855 -0.278964 L1.775855 -0.278964 L1.775855 0.721036 L0.775855 0.721036  z" fill="none" stroke="rgb(128,128,128)" stroke-width="0.01" />
<line x1="-0.206877" y1="-0.484747" x2="-0.484747" y2="0.206877" style="stroke:rgb(246,147,147);stroke-width:0.01" />
<line x1="0.0141985" y1="-0.235274" x2="-0.484747" y2="0.206877" style="stroke:rgb(246,147,147);stroke-width:0.01" />
<line x1="0.45757" y1="-0.539101" x2="-0.206877" y2="-0.484747" style="stroke:rgb(246,147,147);stroke-width:0.01" />
<line x1="0.484747" y1="-0.206877" x2="-0.0141985" y2="0.235274" style="stroke:rgb(246,147,147);stroke-width:0.01" />
<line x1="0.484747" y1="-0.206877" x2="0.206877" y2="0.484747" style="stroke:rgb(246,147,147);stroke-width:0.01" />
<line x1="0.45757" y1="-0.539101" x2="0.484747" y2="-0.206877" style="stroke:rgb(246,147,147);stroke-width:0.01" />
<line x1="-0.484747" y1="0.206877" x2="-0.45757" y2="0.539101" style="stroke:rgb(246,147,147);stroke-width:0.01" />
<line x1="-0.206877" y1="-0.484747" x2="0.0141985" y2="-0.235274" style="stroke:rgb(246,147,147);stroke-width:0.01" />
<line x1="-0.0141985" y1="0.235274" x2="0.206877" y2="0.484747" style="stroke:rgb(246,147,147);stroke-width:0.01" />
<line x1="0.206877" y1="0.484747" x2="-0.45757" y2="0.539101" style="stroke:rgb(246,147,147);stroke-width:0.01" />
</g>
</svg>
