<svg xmlns="http://www.w3.org/2000/svg" viewBox="-1.5 -1.5 3 3">
<g transform="scale(1, -1)">
<path d="M1.198241 0.761813 L1.289119 1.758120 L0.382208 1.868121 L0.282218 1.043746 L0.505784 0.845803 L1.141860 0.768652 L1.141653 0.765282 z " fill="rgb(245,195,195)" />
<path d="M0.000000 0.000000 L1.000000 0.000000 L1.000000 1.000000 L0.000000 1.000000  z" fill="none" stroke="rgb(128,128,128)" stroke-width="0.01" />
<line x1="1.19824" y1="0.761813" x2="1.28912" y2="1.75812" style="stroke:rgb(246,147,147);stroke-width:0.01" />
<line x1="1.14165" y1="0.765282" x2="1.20284" y2="1.76341" style="stroke:rgb(246,147,147);stroke-width:0.01" />
<line x1="0.282218" y1="1.04375" x2="0.382208" y2="1.86812" style="stroke:rgb(246,147,147);stroke-width:0.01" />
<line x1="0.505784" y1="0.845803" x2="0.446855" y2="1.08441" style="stroke:rgb(246,147,147);stroke-width:0.01" />
<line x1="0.505784" y1="0.845803" x2="0.282218" y2="1.04375" style="stroke:rgb(246,147,147);stroke-width:0.01" />
<line x1="1.19824" y1="0.761813" x2="1.14165" y2="0.765282" style="stroke:rgb(246,147,147);stroke-width:0.01" />
<line x1="1.19824" y1="0.761813" x2="0.505784" y2="0.845803" style="stroke:rgb(246,147,147);stroke-width:0.01" />
<line x1="0.282218" y1="1.04375" x2="0.446855" y2="1.08441" style="stroke:rgb(246,147,147);stroke-width:0.01" />
<line x1="1.28912" y1="1.75812" x2="1.20284" y2="1.76341" style="stroke:rgb(246,147,147);stroke-width:0.01" />
<line x1="1.28912" y1="1.75812" x2="0.382208" y2="1.86812" style="stroke:rgb(246,147,147);stroke-width:0.01" />
</g>
</svg>
