<svg xmlns="http://www.w3.org/2000/svg" viewBox="-1.5 -1.5 3 3">
<g transform="scale(1, -1)">
<path d="M-0.036237 -0.418404 L0.207275 -0.361818 L0.178982 -0.240062 L0.287945 -0.178809 L0.165439 0.039118 L0.114679 0.036656 L-0.019070 0.612229 L-0.506093 0.499057 L-0.392921 0.012033 z " fill="rgb(245,195,195)" />
<path d="M-0.604665 0.225217 L0.395335 0.225217 L0.395335 1.225217 L-0.604665 1.225217  z" fill="none" stroke="rgb(128,128,128)" stroke-width="0.01" />
<line x1="-0.036237" y1="-0.418404" x2="0.207275" y2="-0.361818" style="stroke:rgb(246,147,147);stroke-width:0.01" />
<line x1="0.178982" y1="-0.240062" x2="0.287945" y2="-0.178809" style="stroke:rgb(246,147,147);stroke-width:0.01" />
<line x1="-0.036237" y1="-0.418404" x2="0.165439" y2="0.0391181" style="stroke:rgb(246,147,147);stroke-width:0.01" />
<line x1="-0.392921" y1="0.0120334" x2="0.165439" y2="0.0391181" style="stroke:rgb(246,147,147);stroke-width:0.01" />
<line x1="0.178982" y1="-0.240062" x2="-0.392921" y2="0.0120334" style="stroke:rgb(246,147,147);stroke-width:0.01" />
<line x1="-0.036237" y1="-0.418404" x2="-0.392921" y2="0.0120334" style="stroke:rgb(246,147,147);stroke-width:0.01" />
<line x1="-0.392921" y1="0.0120334" x2="-0.506093" y2="0.499057" style="stroke:rgb(246,147,147);stroke-width:0.01" />
<line x1="0.207275" y1="-0.361818" x2="-0.0190696" y2="0.612229" style="stroke:rgb(246,147,147);stroke-width:0.01" />
<line x1="-0.506093" y1="0.499057" x2="-0.0190696" y2="0.612229" style="stroke:rgb(246,147,147);stroke-width:0.01" />
<line x1="0.287945" y1="-0.178809" x2="0.165439" y2="0.0391181" style="stroke:rgb(246,147,147);stroke-width:0.01" />
</g>
</svg>
