<svg xmlns="http://www.w3.org/2000/svg" viewBox="-1.5 -1.5 3 3">
<g transform="scale(1, -1)">
<path d="M0.568428 -0.643621 L0.811940 -0.587035 L0.783647 -0.465279 L0.892610 -0.404026 L0.770104 -0.186099 L0.719344 -0.188561 L0.585595 0.387013 L0.098571 0.273840 L0.211744 -0.213183 z " fill="rgb(245,195,195)" />
<path d="M0.000000 0.000000 L1.000000 0.000000 L1.000000 1.000000 L0.000000 1.000000  z" fill="none" stroke="rgb(128,128,128)" stroke-width="0.01" />
<line x1="0.568428" y1="-0.643621" x2="0.81194" y2="-0.587035" style="stroke:rgb(246,147,147);stroke-width:0.01" />
<line x1="0.783647" y1="-0.465279" x2="0.89261" y2="-0.404026" style="stroke:rgb(246,147,147);stroke-width:0.01" />
<line x1="0.568428" y1="-0.643621" x2="0.770104" y2="-0.186099" style="stroke:rgb(246,147,147);stroke-width:0.01" />
<line x1="0.211744" y1="-0.213183" x2="0.770104" y2="-0.186099" style="stroke:rgb(246,147,147);stroke-width:0.01" />
<line x1="0.783647" y1="-0.465279" x2="0.211744" y2="-0.213183" style="stroke:rgb(246,147,147);stroke-width:0.01" />
<line x1="0.568428" y1="-0.643621" x2="0.211744" y2="-0.213183" style="stroke:rgb(246,147,147);stroke-width:0.01" />
<line x1="0.211744" y1="-0.213183" x2="0.0985715" y2="0.27384" style="stroke:rgb(246,147,147);stroke-width:0.01" />
<line x1="0.81194" y1="-0.587035" x2="0.585595" y2="0.387013" style="stroke:rgb(246,147,147);stroke-width:0.01" />
<line x1="0.0985715" y1="0.27384" x2="0.585595" y2="0.387013" style="stroke:rgb(246,147,147);stroke-width:0.01" />
<line x1="0.89261" y1="-0.404026" x2="0.770104" y2="-0.186099" style="stroke:rgb(246,147,147);stroke-width:0.01" />
</g>
</svg>
