<svg xmlns="http://www.w3.org/2000/svg" viewBox="-1.5 -1.5 3 3">
<g transform="scale(1, -1)">
<path d="M0.151026 -0.474081 L0.683646 0.372796 L-0.074880 0.881939 L-0.537687 0.192446 L-0.428134 -0.085333 L0.103870 -0.442429 L0.102158 -0.445339 z " fill="rgb(245,195,195)" />
<path d="M-0.793086 -0.662896 L0.206914 -0.662896 L0.206914 0.337104 L-0.793086 0.337104  z" fill="none" stroke="rgb(128,128,128)" stroke-width="0.01" />
<line x1="0.151026" y1="-0.474081" x2="0.683646" y2="0.372796" style="stroke:rgb(246,147,147);stroke-width:0.01" />
<line x1="0.102158" y1="-0.445339" x2="0.609136" y2="0.416621" style="stroke:rgb(246,147,147);stroke-width:0.01" />
<line x1="-0.428134" y1="-0.0853329" x2="-0.372505" y2="0.154062" style="stroke:rgb(246,147,147);stroke-width:0.01" />
<line x1="-0.537687" y1="0.192446" x2="-0.0748796" y2="0.881939" style="stroke:rgb(246,147,147);stroke-width:0.01" />
<line x1="-0.428134" y1="-0.0853329" x2="-0.537687" y2="0.192446" style="stroke:rgb(246,147,147);stroke-width:0.01" />
<line x1="0.151026" y1="-0.474081" x2="0.102158" y2="-0.445339" style="stroke:rgb(246,147,147);stroke-width:0.01" />
<line x1="0.151026" y1="-0.474081" x2="-0.428134" y2="-0.0853329" style="stroke:rgb(246,147,147);stroke-width:0.01" />
<line x1="-0.372505" y1="0.154062" x2="-0.537687" y2="0.192446" style="stroke:rgb(246,147,147);stroke-width:0.01" />
<line x1="0.683646" y1="0.372796" x2="-0.0748796" y2="0.881939" style="stroke:rgb(246,147,147);stroke-width:0.01" />
<line x1="0.683646" y1="0.372796" x2="0.609136" y2="0.416621" style="stroke:rgb(246,147,147);stroke-width:0.01" />
</g>
</svg>
