<svg xmlns="http://www.w3.org/2000/svg" viewBox="-1.5 -1.5 3 3">
<g transform="scale(1, -1)">
<path d="M0.068529 -0.471505 L0.246044 -0.295470 L0.083762 -0.131825 L0.268529 -0.054839 L0.268529 0.278495 L-0.067606 0.278495 L-0.204844 0.414589 L-0.331471 0.286898 L-0.331471 -0.304839 z " fill="rgb(245,195,195)" />
<path d="M-0.931471 -0.721505 L0.068529 -0.721505 L0.068529 0.278495 L-0.931471 0.278495  z" fill="none" stroke="rgb(128,128,128)" stroke-width="0.01" />
<line x1="0.0685288" y1="-0.471505" x2="0.246044" y2="-0.29547" style="stroke:rgb(246,147,147);stroke-width:0.01" />
<line x1="-0.331471" y1="-0.304839" x2="-0.331471" y2="0.286898" style="stroke:rgb(246,147,147);stroke-width:0.01" />
<line x1="0.0685288" y1="-0.471505" x2="0.0685288" y2="0.278495" style="stroke:rgb(246,147,147);stroke-width:0.01" />
<line x1="0.268529" y1="-0.0548386" x2="0.268529" y2="0.278495" style="stroke:rgb(246,147,147);stroke-width:0.01" />
<line x1="-0.331471" y1="-0.304839" x2="0.268529" y2="-0.0548386" style="stroke:rgb(246,147,147);stroke-width:0.01" />
<line x1="-0.331471" y1="0.286898" x2="-0.204844" y2="0.414589" style="stroke:rgb(246,147,147);stroke-width:0.01" />
<line x1="0.0685288" y1="-0.471505" x2="-0.331471" y2="-0.304839" style="stroke:rgb(246,147,147);stroke-width:0.01" />
<line x1="0.246044" y1="-0.29547" x2="-0.331471" y2="0.286898" style="stroke:rgb(246,147,147);stroke-width:0.01" />
<line x1="0.268529" y1="-0.0548386" x2="-0.204844" y2="0.414589" style="stroke:rgb(246,147,147);stroke-width:0.01" />
<line x1="-0.331471" y1="0.278495" x2="0.268529" y2="0.278495" style="stroke:rgb(246,147,147);stroke-width:0.01" />
</g>
</svg>
