<svg xmlns="http://www.w3.org/2000/svg" viewBox="-1.5 -1.5 3 3">
<g transform="scale(1, -1)">
<path d="M-0.131303 -0.370528 L0.387415 -0.162126 L0.407798 0.087042 L0.283214 0.097233 L0.258114 0.219687 L0.013206 0.169488 L0.000069 0.120395 L-0.588873 0.168572 L-0.629639 -0.329763 z " fill="rgb(245,195,195)" />
<path d="M0.073462 -0.818068 L1.073462 -0.818068 L1.073462 0.181932 L0.073462 0.181932  z" fill="none" stroke="rgb(128,128,128)" stroke-width="0.01" />
<line x1="0.387415" y1="-0.162126" x2="0.407798" y2="0.0870417" style="stroke:rgb(246,147,147);stroke-width:0.01" />
<line x1="-0.629639" y1="-0.329763" x2="-0.588873" y2="0.168572" style="stroke:rgb(246,147,147);stroke-width:0.01" />
<line x1="0.283214" y1="0.0972331" x2="0.258114" y2="0.219687" style="stroke:rgb(246,147,147);stroke-width:0.01" />
<line x1="-0.131303" y1="-0.370528" x2="0.0132058" y2="0.169488" style="stroke:rgb(246,147,147);stroke-width:0.01" />
<line x1="-0.131303" y1="-0.370528" x2="0.283214" y2="0.0972331" style="stroke:rgb(246,147,147);stroke-width:0.01" />
<line x1="-0.131303" y1="-0.370528" x2="-0.629639" y2="-0.329763" style="stroke:rgb(246,147,147);stroke-width:0.01" />
<line x1="-0.131303" y1="-0.370528" x2="0.387415" y2="-0.162126" style="stroke:rgb(246,147,147);stroke-width:0.01" />
<line x1="0.387415" y1="-0.162126" x2="0.0132058" y2="0.169488" style="stroke:rgb(246,147,147);stroke-width:0.01" />
<line x1="0.407798" y1="0.0870417" x2="-0.588873" y2="0.168572" style="stroke:rgb(246,147,147);stroke-width:0.01" />
<line x1="0.0132058" y1="0.169488" x2="0.258114" y2="0.219687" style="stroke:rgb(246,147,147);stroke-width:0.01" />
</g>
</svg>
