<svg xmlns="http://www.w3.org/2000/svg" viewBox="-1.5 -1.5 3 3">
<g transform="scale(1, -1)">
<path d="M-0.204765 0.447540 L0.313953 0.655942 L0.334336 0.905110 L0.209752 0.915302 L0.184652 1.037756 L-0.060256 0.987556 L-0.073393 0.938464 L-0.662335 0.986641 L-0.703100 0.488306 z " fill="rgb(245,195,195)" />
<path d="M0.000000 0.000000 L1.000000 0.000000 L1.000000 1.000000 L0.000000 1.000000  z" fill="none" stroke="rgb(128,128,128)" stroke-width="0.01" />
<line x1="0.313953" y1="0.655942" x2="0.334336" y2="0.90511" style="stroke:rgb(246,147,147);stroke-width:0.01" />
<line x1="-0.7031" y1="0.488306" x2="-0.662335" y2="0.986641" style="stroke:rgb(246,147,147);stroke-width:0.01" />
<line x1="0.209752" y1="0.915302" x2="0.184652" y2="1.03776" style="stroke:rgb(246,147,147);stroke-width:0.01" />
<line x1="-0.204765" y1="0.44754" x2="-0.0602558" y2="0.987556" style="stroke:rgb(246,147,147);stroke-width:0.01" />
<line x1="-0.204765" y1="0.44754" x2="0.209752" y2="0.915302" style="stroke:rgb(246,147,147);stroke-width:0.01" />
<line x1="-0.204765" y1="0.44754" x2="-0.7031" y2="0.488306" style="stroke:rgb(246,147,147);stroke-width:0.01" />
<line x1="-0.204765" y1="0.44754" x2="0.313953" y2="0.655942" style="stroke:rgb(246,147,147);stroke-width:0.01" />
<line x1="0.313953" y1="0.655942" x2="-0.0602558" y2="0.987556" style="stroke:rgb(246,147,147);stroke-width:0.01" />
<line x1="0.334336" y1="0.90511" x2="-0.662335" y2="0.986641" style="stroke:rgb(246,147,147);stroke-width:0.01" />
<line x1="-0.0602558" y1="0.987556" x2="0.184652" y2="1.03776" style="stroke:rgb(246,147,147);stroke-width:0.01" />
</g>
</svg>
