<svg xmlns="http://www.w3.org/2000/svg" viewBox="-1.5 -1.5 3 3">
<g transform="scale(1, -1)">
<path d="M0.373851 -0.600196 L0.449300 -0.275513 L0.275513 0.449300 L-0.373851 0.600196 L-0.449300 0.275513 L-0.275513 -0.449300 z " fill="rgb(245,195,195)" />
<path d="M1.116906 -0.588377 L2.116906 -0.588377 L2.116906 0.411623 L1.116906 0.411623  z" fill="none" stroke="rgb(128,128,128)" stroke-width="0.01" />
<line x1="-0.0203455" y1="-0.234823" x2="-0.4493" y2="0.275513" style="stroke:rgb(246,147,147);stroke-width:0.01" />
<line x1="-0.275513" y1="-0.4493" x2="-0.4493" y2="0.275513" style="stroke:rgb(246,147,147);stroke-width:0.01" />
<line x1="0.4493" y1="-0.275513" x2="0.0203455" y2="0.234823" style="stroke:rgb(246,147,147);stroke-width:0.01" />
<line x1="0.373851" y1="-0.600196" x2="-0.275513" y2="-0.4493" style="stroke:rgb(246,147,147);stroke-width:0.01" />
<line x1="0.4493" y1="-0.275513" x2="0.275513" y2="0.4493" style="stroke:rgb(246,147,147);stroke-width:0.01" />
<line x1="0.373851" y1="-0.600196" x2="0.4493" y2="-0.275513" style="stroke:rgb(246,147,147);stroke-width:0.01" />
<line x1="-0.4493" y1="0.275513" x2="-0.373851" y2="0.600196" style="stroke:rgb(246,147,147);stroke-width:0.01" />
<line x1="-0.275513" y1="-0.4493" x2="-0.0203455" y2="-0.234823" style="stroke:rgb(246,147,147);stroke-width:0.01" />
<line x1="0.275513" y1="0.4493" x2="-0.373851" y2="0.600196" style="stroke:rgb(246,147,147);stroke-width:0.01" />
<line x1="0.0203455" y1="0.234823" x2="0.275513" y2="0.4493" style="stroke:rgb(246,147,147);stroke-width:0.01" />
</g>
</svg>
