<svg xmlns="http://www.w3.org/2000/svg" viewBox="-1.5 -1.5 3 3">
<g transform="scale(1, -1)">
<path d="M-0.111782 -0.560042 L0.146999 -0.411061 L0.422493 0.167427 L0.425622 0.166159 L0.446913 0.218704 L-0.468725 0.621808 L-0.861520 -0.202994 z " fill="rgb(245,195,195)" />
<path d="M1.547614 -1.442218 L2.547614 -1.442218 L2.547614 -0.442218 L1.547614 -0.442218  z" fill="none" stroke="rgb(128,128,128)" stroke-width="0.01" />
<line x1="-0.111782" y1="-0.560042" x2="-0.86152" y2="-0.202994" style="stroke:rgb(246,147,147);stroke-width:0.01" />
<line x1="-0.111782" y1="-0.560042" x2="-0.0979554" y2="-0.391023" style="stroke:rgb(246,147,147);stroke-width:0.01" />
<line x1="0.425622" y1="0.166159" x2="0.446913" y2="0.218704" style="stroke:rgb(246,147,147);stroke-width:0.01" />
<line x1="0.146999" y1="-0.411061" x2="0.446913" y2="0.218704" style="stroke:rgb(246,147,147);stroke-width:0.01" />
<line x1="0.146999" y1="-0.411061" x2="-0.0979554" y2="-0.391023" style="stroke:rgb(246,147,147);stroke-width:0.01" />
<line x1="0.446913" y1="0.218704" x2="-0.468725" y2="0.621808" style="stroke:rgb(246,147,147);stroke-width:0.01" />
<line x1="0.425622" y1="0.166159" x2="-0.501187" y2="0.541693" style="stroke:rgb(246,147,147);stroke-width:0.01" />
<line x1="-0.501187" y1="0.541693" x2="-0.468725" y2="0.621808" style="stroke:rgb(246,147,147);stroke-width:0.01" />
<line x1="-0.86152" y1="-0.202994" x2="-0.468725" y2="0.621808" style="stroke:rgb(246,147,147);stroke-width:0.01" />
<line x1="-0.111782" y1="-0.560042" x2="0.146999" y2="-0.411061" style="stroke:rgb(246,147,147);stroke-width:0.01" />
</g>
</svg>
