<svg xmlns="http://www.w3.org/2000/svg" viewBox="-1.5 -1.5 3 3">
<g transform="scale(1, -1)">
<path d="M-1.659396 0.882176 L-1.400615 1.031157 L-1.125121 1.609645 L-1.121992 1.608377 L-1.100701 1.660922 L-2.016339 2.064027 L-2.409135 1.239225 z " fill="rgb(245,195,195)" />
<path d="M0.000000 0.000000 L1.000000 0.000000 L1.000000 1.000000 L0.000000 1.000000  z" fill="none" stroke="rgb(128,128,128)" stroke-width="0.01" />
<line x1="-1.6594" y1="0.882176" x2="-2.40913" y2="1.23922" style="stroke:rgb(246,147,147);stroke-width:0.01" />
<line x1="-1.6594" y1="0.882176" x2="-1.64557" y2="1.05119" style="stroke:rgb(246,147,147);stroke-width:0.01" />
<line x1="-1.12199" y1="1.60838" x2="-1.1007" y2="1.66092" style="stroke:rgb(246,147,147);stroke-width:0.01" />
<line x1="-1.40061" y1="1.03116" x2="-1.1007" y2="1.66092" style="stroke:rgb(246,147,147);stroke-width:0.01" />
<line x1="-1.40061" y1="1.03116" x2="-1.64557" y2="1.05119" style="stroke:rgb(246,147,147);stroke-width:0.01" />
<line x1="-1.1007" y1="1.66092" x2="-2.01634" y2="2.06403" style="stroke:rgb(246,147,147);stroke-width:0.01" />
<line x1="-1.12199" y1="1.60838" x2="-2.0488" y2="1.98391" style="stroke:rgb(246,147,147);stroke-width:0.01" />
<line x1="-2.0488" y1="1.98391" x2="-2.01634" y2="2.06403" style="stroke:rgb(246,147,147);stroke-width:0.01" />
<line x1="-2.40913" y1="1.23922" x2="-2.01634" y2="2.06403" style="stroke:rgb(246,147,147);stroke-width:0.01" />
<line x1="-1.6594" y1="0.882176" x2="-1.40061" y2="1.03116" style="stroke:rgb(246,147,147);stroke-width:0.01" />
</g>
</svg>
