<svg xmlns="http://www.w3.org/2000/svg" viewBox="-1.5 -1.5 3 3">
<g transform="scale(1, -1)">
<path d="M0.172078 0.208604 L0.750000 0.237500 L0.750000 0.250000 L0.748607 0.251393 L0.745012 0.287251 L0.707230 0.292770 L0.678571 0.321429 L0.661765 0.352941 L0.882353 0.470588 L0.544118 0.573529 L0.323529 0.455882 L0.205882 0.676471 L0.115417 0.379227 L-0.019950 0.399002 L0.140520 0.267775 z " fill="rgb(245,195,195)" />
<path d="M0.000000 0.000000 L1.000000 0.000000 L1.000000 1.000000 L0.000000 1.000000  z" fill="none" stroke="rgb(128,128,128)" stroke-width="0.01" />
<line x1="0.736842" y1="0.236842" x2="0.75" y2="0.25" style="stroke:rgb(246,147,147);stroke-width:0.01" />
<line x1="0.724026" y1="0.236201" x2="0.745012" y2="0.287251" style="stroke:rgb(246,147,147);stroke-width:0.01" />
<line x1="0.448052" y1="0.222403" x2="0.490025" y2="0.324501" style="stroke:rgb(246,147,147);stroke-width:0.01" />
<line x1="0.437086" y1="0.221854" x2="0.544118" y2="0.573529" style="stroke:rgb(246,147,147);stroke-width:0.01" />
<line x1="0.285714" y1="0.214286" x2="0.38803" y2="0.339401" style="stroke:rgb(246,147,147);stroke-width:0.01" />
<line x1="0.172078" y1="0.208604" x2="0.235037" y2="0.361752" style="stroke:rgb(246,147,147);stroke-width:0.01" />
<line x1="0.413793" y1="0.22069" x2="0.882353" y2="0.470588" style="stroke:rgb(246,147,147);stroke-width:0.01" />
<line x1="0.210526" y1="0.210526" x2="0.25" y2="0.25" style="stroke:rgb(246,147,147);stroke-width:0.01" />
<line x1="0.102941" y1="0.338235" x2="0.205882" y2="0.676471" style="stroke:rgb(246,147,147);stroke-width:0.01" />
<line x1="0.25" y1="0.2125" x2="0.25" y2="0.25" style="stroke:rgb(246,147,147);stroke-width:0.01" />
<line x1="0.5" y1="0.225" x2="0.5" y2="0.5" style="stroke:rgb(246,147,147);stroke-width:0.01" />
<line x1="0.75" y1="0.2375" x2="0.75" y2="0.25" style="stroke:rgb(246,147,147);stroke-width:0.01" />
<line x1="0.478528" y1="0.223926" x2="0.660017" y2="0.299667" style="stroke:rgb(246,147,147);stroke-width:0.01" />
<line x1="0.25" y1="0.2125" x2="0.235037" y2="0.361752" style="stroke:rgb(246,147,147);stroke-width:0.01" />
<line x1="0.5" y1="0.225" x2="0.490025" y2="0.324501" style="stroke:rgb(246,147,147);stroke-width:0.01" />
<line x1="0.75" y1="0.2375" x2="0.745012" y2="0.287251" style="stroke:rgb(246,147,147);stroke-width:0.01" />
<line x1="0.172078" y1="0.208604" x2="0.102941" y2="0.338235" style="stroke:rgb(246,147,147);stroke-width:0.01" />
<line x1="0.437086" y1="0.221854" x2="0.38803" y2="0.339401" style="stroke:rgb(246,147,147);stroke-width:0.01" />
<line x1="0.172078" y1="0.208604" x2="0.75" y2="0.2375" style="stroke:rgb(246,147,147);stroke-width:0.01" />
<line x1="0.102941" y1="0.338235" x2="0.544118" y2="0.573529" style="stroke:rgb(246,147,147);stroke-width:0.01" />
<line x1="0.210526" y1="0.210526" x2="-0.0199501" y2="0.399002" style="stroke:rgb(246,147,147);stroke-width:0.01" />
<line x1="0.448052" y1="0.222403" x2="0.205882" y2="0.676471" style="stroke:rgb(246,147,147);stroke-width:0.01" />
<line x1="0.25" y1="0.25" x2="0.75" y2="0.25" style="stroke:rgb(246,147,147);stroke-width:0.01" />
<line x1="0.285714" y1="0.214286" x2="0.25" y2="0.25" style="stroke:rgb(246,147,147);stroke-width:0.01" />
<line x1="0.413793" y1="0.22069" x2="-0.0199501" y2="0.399002" style="stroke:rgb(246,147,147);stroke-width:0.01" />
<line x1="0.478528" y1="0.223926" x2="0.102941" y2="0.338235" style="stroke:rgb(246,147,147);stroke-width:0.01" />
<line x1="0.724026" y1="0.236201" x2="0.544118" y2="0.573529" style="stroke:rgb(246,147,147);stroke-width:0.01" />
<line x1="0.745012" y1="0.287251" x2="-0.0199501" y2="0.399002" style="stroke:rgb(246,147,147);stroke-width:0.01" />
<line x1="0.75" y1="0.25" x2="0.5" y2="0.5" style="stroke:rgb(246,147,147);stroke-width:0.01" />
<line x1="0.736842" y1="0.236842" x2="0.660017" y2="0.299667" style="stroke:rgb(246,147,147);stroke-width:0.01" />
<line x1="0.882353" y1="0.470588" x2="0.544118" y2="0.573529" style="stroke:rgb(246,147,147);stroke-width:0.01" />
</g>
</svg>
