<svg xmlns="http://www.w3.org/2000/svg" viewBox="-1.5 -1.5 3 3">
<g transform="scale(1, -1)">
<path d="M-0.321598 -0.153020 L0.256325 -0.124124 L0.256325 -0.111624 L0.254932 -0.110231 L0.251337 -0.074374 L0.213554 -0.068854 L0.184896 -0.040196 L0.168089 -0.008683 L0.388677 0.108964 L0.050442 0.211905 L-0.170146 0.094258 L-0.287793 0.314846 L-0.378259 0.017603 L-0.513626 0.037378 L-0.353156 -0.093849 z " fill="rgb(245,195,195)" />
<path d="M-0.493675 -0.361624 L0.506325 -0.361624 L0.506325 0.638376 L-0.493675 0.638376  z" fill="none" stroke="rgb(128,128,128)" stroke-width="0.01" />
<line x1="0.243167" y1="-0.124782" x2="0.256325" y2="-0.111624" style="stroke:rgb(246,147,147);stroke-width:0.01" />
<line x1="0.23035" y1="-0.125423" x2="0.251337" y2="-0.0743736" style="stroke:rgb(246,147,147);stroke-width:0.01" />
<line x1="-0.0456236" y1="-0.139222" x2="-0.00365056" y2="-0.0371229" style="stroke:rgb(246,147,147);stroke-width:0.01" />
<line x1="-0.0565894" y1="-0.13977" x2="0.0504421" y2="0.211905" style="stroke:rgb(246,147,147);stroke-width:0.01" />
<line x1="-0.207961" y1="-0.147338" x2="-0.105646" y2="-0.0222227" style="stroke:rgb(246,147,147);stroke-width:0.01" />
<line x1="-0.321598" y1="-0.15302" x2="-0.258638" y2="0.00012769" style="stroke:rgb(246,147,147);stroke-width:0.01" />
<line x1="-0.0798824" y1="-0.140935" x2="0.388677" y2="0.108964" style="stroke:rgb(246,147,147);stroke-width:0.01" />
<line x1="-0.283149" y1="-0.151098" x2="-0.243675" y2="-0.111624" style="stroke:rgb(246,147,147);stroke-width:0.01" />
<line x1="-0.390734" y1="-0.0233889" x2="-0.287793" y2="0.314846" style="stroke:rgb(246,147,147);stroke-width:0.01" />
<line x1="-0.243675" y1="-0.149124" x2="-0.243675" y2="-0.111624" style="stroke:rgb(246,147,147);stroke-width:0.01" />
<line x1="0.0063245" y1="-0.136624" x2="0.0063245" y2="0.138376" style="stroke:rgb(246,147,147);stroke-width:0.01" />
<line x1="0.256325" y1="-0.124124" x2="0.256325" y2="-0.111624" style="stroke:rgb(246,147,147);stroke-width:0.01" />
<line x1="-0.0151479" y1="-0.137698" x2="0.166341" y2="-0.0619567" style="stroke:rgb(246,147,147);stroke-width:0.01" />
<line x1="-0.243675" y1="-0.149124" x2="-0.258638" y2="0.00012769" style="stroke:rgb(246,147,147);stroke-width:0.01" />
<line x1="0.0063245" y1="-0.136624" x2="-0.00365056" y2="-0.0371229" style="stroke:rgb(246,147,147);stroke-width:0.01" />
<line x1="0.256325" y1="-0.124124" x2="0.251337" y2="-0.0743736" style="stroke:rgb(246,147,147);stroke-width:0.01" />
<line x1="-0.321598" y1="-0.15302" x2="-0.390734" y2="-0.0233889" style="stroke:rgb(246,147,147);stroke-width:0.01" />
<line x1="-0.0565894" y1="-0.13977" x2="-0.105646" y2="-0.0222227" style="stroke:rgb(246,147,147);stroke-width:0.01" />
<line x1="-0.321598" y1="-0.15302" x2="0.256325" y2="-0.124124" style="stroke:rgb(246,147,147);stroke-width:0.01" />
<line x1="-0.390734" y1="-0.0233889" x2="0.0504421" y2="0.211905" style="stroke:rgb(246,147,147);stroke-width:0.01" />
<line x1="-0.283149" y1="-0.151098" x2="-0.513626" y2="0.0373783" style="stroke:rgb(246,147,147);stroke-width:0.01" />
<line x1="-0.0456236" y1="-0.139222" x2="-0.287793" y2="0.314846" style="stroke:rgb(246,147,147);stroke-width:0.01" />
<line x1="-0.243675" y1="-0.111624" x2="0.256325" y2="-0.111624" style="stroke:rgb(246,147,147);stroke-width:0.01" />
<line x1="-0.207961" y1="-0.147338" x2="-0.243675" y2="-0.111624" style="stroke:rgb(246,147,147);stroke-width:0.01" />
<line x1="-0.0798824" y1="-0.140935" x2="-0.513626" y2="0.0373783" style="stroke:rgb(246,147,147);stroke-width:0.01" />
<line x1="-0.0151479" y1="-0.137698" x2="-0.390734" y2="-0.0233889" style="stroke:rgb(246,147,147);stroke-width:0.01" />
<line x1="0.23035" y1="-0.125423" x2="0.0504421" y2="0.211905" style="stroke:rgb(246,147,147);stroke-width:0.01" />
<line x1="0.251337" y1="-0.0743736" x2="-0.513626" y2="0.0373783" style="stroke:rgb(246,147,147);stroke-width:0.01" />
<line x1="0.256325" y1="-0.111624" x2="0.0063245" y2="0.138376" style="stroke:rgb(246,147,147);stroke-width:0.01" />
<line x1="0.243167" y1="-0.124782" x2="0.166341" y2="-0.0619567" style="stroke:rgb(246,147,147);stroke-width:0.01" />
<line x1="0.388677" y1="0.108964" x2="0.0504421" y2="0.211905" style="stroke:rgb(246,147,147);stroke-width:0.01" />
</g>
</svg>
