<svg xmlns="http://www.w3.org/2000/svg" viewBox="-1.5 -1.5 3 3">
<g transform="scale(1, -1)">
<path d="M-0.834717 0.438702 L-0.349302 0.558586 L0.076171 0.921178 L0.016228 1.163886 L-0.105125 1.133915 L-0.167877 1.242022 L-0.384092 1.116520 L-0.380929 1.065799 L-0.954602 0.924117 z " fill="rgb(245,195,195)" />
<path d="M0.000000 0.000000 L1.000000 0.000000 L1.000000 1.000000 L0.000000 1.000000  z" fill="none" stroke="rgb(128,128,128)" stroke-width="0.01" />
<line x1="-0.834717" y1="0.438702" x2="-0.954602" y2="0.924117" style="stroke:rgb(246,147,147);stroke-width:0.01" />
<line x1="-0.349302" y1="0.558586" x2="-0.384092" y2="1.11652" style="stroke:rgb(246,147,147);stroke-width:0.01" />
<line x1="0.0761706" y1="0.921178" x2="0.0162283" y2="1.16389" style="stroke:rgb(246,147,147);stroke-width:0.01" />
<line x1="-0.349302" y1="0.558586" x2="-0.105125" y2="1.13391" style="stroke:rgb(246,147,147);stroke-width:0.01" />
<line x1="-0.105125" y1="1.13391" x2="-0.167877" y2="1.24202" style="stroke:rgb(246,147,147);stroke-width:0.01" />
<line x1="-0.349302" y1="0.558586" x2="0.0761706" y2="0.921178" style="stroke:rgb(246,147,147);stroke-width:0.01" />
<line x1="-0.834717" y1="0.438702" x2="-0.349302" y2="0.558586" style="stroke:rgb(246,147,147);stroke-width:0.01" />
<line x1="0.0761706" y1="0.921178" x2="-0.384092" y2="1.11652" style="stroke:rgb(246,147,147);stroke-width:0.01" />
<line x1="-0.384092" y1="1.11652" x2="-0.167877" y2="1.24202" style="stroke:rgb(246,147,147);stroke-width:0.01" />
<line x1="-0.954602" y1="0.924117" x2="0.0162283" y2="1.16389" style="stroke:rgb(246,147,147);stroke-width:0.01" />
</g>
</svg>
