<svg xmlns="http://www.w3.org/2000/svg" viewBox="-1.5 -1.5 3 3">
<g transform="scale(1, -1)">
<path d="M1.000000 0.250000 L1.161031 0.409689 L1.777778 0.666667 L1.777778 1.000000 L1.441643 1.000000 L1.304405 1.136095 L1.169444 1.000000 L0.888889 1.000000 L0.888889 0.296296 z " fill="rgb(245,195,195)" />
<path d="M0.000000 0.000000 L1.000000 0.000000 L1.000000 1.000000 L0.000000 1.000000  z" fill="none" stroke="rgb(128,128,128)" stroke-width="0.01" />
<line x1="1" y1="0.25" x2="1.17751" y2="0.426036" style="stroke:rgb(246,147,147);stroke-width:0.01" />
<line x1="0.888889" y1="0.717087" x2="1.3044" y2="1.13609" style="stroke:rgb(246,147,147);stroke-width:0.01" />
<line x1="0.888889" y1="0.296296" x2="1.77778" y2="0.666667" style="stroke:rgb(246,147,147);stroke-width:0.01" />
<line x1="0.888889" y1="0.296296" x2="0.888889" y2="1" style="stroke:rgb(246,147,147);stroke-width:0.01" />
<line x1="1" y1="0.25" x2="1" y2="1" style="stroke:rgb(246,147,147);stroke-width:0.01" />
<line x1="1.77778" y1="0.666667" x2="1.77778" y2="1" style="stroke:rgb(246,147,147);stroke-width:0.01" />
<line x1="1" y1="0.25" x2="0.888889" y2="0.296296" style="stroke:rgb(246,147,147);stroke-width:0.01" />
<line x1="1.17751" y1="0.426036" x2="0.888889" y2="0.717087" style="stroke:rgb(246,147,147);stroke-width:0.01" />
<line x1="0.888889" y1="1" x2="1.77778" y2="1" style="stroke:rgb(246,147,147);stroke-width:0.01" />
<line x1="1.77778" y1="0.666667" x2="1.3044" y2="1.13609" style="stroke:rgb(246,147,147);stroke-width:0.01" />
</g>
</svg>
