<svg xmlns="http://www.w3.org/2000/svg" viewBox="-1.5 -1.5 3 3">
<g transform="scale(1, -1)">
<path d="M-0.457570 -0.539101 L-0.125346 -0.511924 L0.511924 -0.125346 L0.457570 0.539101 L0.125346 0.511924 L-0.511924 0.125346 z " fill="rgb(245,195,195)" />
<path d="M-0.030660 -0.128598 L0.969340 -0.128598 L0.969340 0.871402 L-0.030660 0.871402  z" fill="none" stroke="rgb(128,128,128)" stroke-width="0.01" />
<line x1="-0.45757" y1="-0.539101" x2="-0.125346" y2="-0.511924" style="stroke:rgb(246,147,147);stroke-width:0.01" />
<line x1="-0.125346" y1="-0.511924" x2="0.511924" y2="-0.125346" style="stroke:rgb(246,147,147);stroke-width:0.01" />
<line x1="-0.125346" y1="-0.511924" x2="0.229839" y2="0.0522462" style="stroke:rgb(246,147,147);stroke-width:0.01" />
<line x1="-0.45757" y1="-0.539101" x2="-0.511924" y2="0.125346" style="stroke:rgb(246,147,147);stroke-width:0.01" />
<line x1="-0.229839" y1="-0.0522462" x2="-0.511924" y2="0.125346" style="stroke:rgb(246,147,147);stroke-width:0.01" />
<line x1="0.511924" y1="-0.125346" x2="0.45757" y2="0.539101" style="stroke:rgb(246,147,147);stroke-width:0.01" />
<line x1="-0.229839" y1="-0.0522462" x2="0.125346" y2="0.511924" style="stroke:rgb(246,147,147);stroke-width:0.01" />
<line x1="0.511924" y1="-0.125346" x2="0.229839" y2="0.0522462" style="stroke:rgb(246,147,147);stroke-width:0.01" />
<line x1="-0.511924" y1="0.125346" x2="0.125346" y2="0.511924" style="stroke:rgb(246,147,147);stroke-width:0.01" />
<line x1="0.125346" y1="0.511924" x2="0.45757" y2="0.539101" style="stroke:rgb(246,147,147);stroke-width:0.01" />
</g>
</svg>
