<svg xmlns="http://www.w3.org/2000/svg" viewBox="-1.5 -1.5 3 3">
<g transform="scale(1, -1)">
<path d="M-0.426910 -0.410502 L-0.094687 -0.383326 L0.542583 0.003252 L0.488230 0.667699 L0.156006 0.640522 L-0.481264 0.253945 z " fill="rgb(245,195,195)" />
<path d="M0.000000 0.000000 L1.000000 0.000000 L1.000000 1.000000 L0.000000 1.000000  z" fill="none" stroke="rgb(128,128,128)" stroke-width="0.01" />
<line x1="-0.42691" y1="-0.410502" x2="-0.0946869" y2="-0.383326" style="stroke:rgb(246,147,147);stroke-width:0.01" />
<line x1="-0.0946869" y1="-0.383326" x2="0.542583" y2="0.00325191" style="stroke:rgb(246,147,147);stroke-width:0.01" />
<line x1="-0.0946869" y1="-0.383326" x2="0.260498" y2="0.180845" style="stroke:rgb(246,147,147);stroke-width:0.01" />
<line x1="-0.42691" y1="-0.410502" x2="-0.481264" y2="0.253945" style="stroke:rgb(246,147,147);stroke-width:0.01" />
<line x1="-0.199179" y1="0.0763522" x2="-0.481264" y2="0.253945" style="stroke:rgb(246,147,147);stroke-width:0.01" />
<line x1="0.542583" y1="0.00325191" x2="0.48823" y2="0.667699" style="stroke:rgb(246,147,147);stroke-width:0.01" />
<line x1="-0.199179" y1="0.0763522" x2="0.156006" y2="0.640522" style="stroke:rgb(246,147,147);stroke-width:0.01" />
<line x1="0.542583" y1="0.00325191" x2="0.260498" y2="0.180845" style="stroke:rgb(246,147,147);stroke-width:0.01" />
<line x1="-0.481264" y1="0.253945" x2="0.156006" y2="0.640522" style="stroke:rgb(246,147,147);stroke-width:0.01" />
<line x1="0.156006" y1="0.640522" x2="0.48823" y2="0.667699" style="stroke:rgb(246,147,147);stroke-width:0.01" />
</g>
</svg>
