<svg xmlns="http://www.w3.org/2000/svg" viewBox="-1.5 -1.5 3 3">
<g transform="scale(1, -1)">
<path d="M0.642186 -0.440393 L0.752187 0.466518 L-0.072188 0.566508 L-0.270131 0.342943 L-0.347282 -0.293134 L-0.350652 -0.292927 L-0.354120 -0.349515 z " fill="rgb(245,195,195)" />
<path d="M-0.923842 1.393069 L0.076158 1.393069 L0.076158 2.393069 L-0.923842 2.393069  z" fill="none" stroke="rgb(128,128,128)" stroke-width="0.01" />
<line x1="0.642186" y1="-0.440393" x2="-0.35412" y2="-0.349515" style="stroke:rgb(246,147,147);stroke-width:0.01" />
<line x1="0.647475" y1="-0.354112" x2="-0.350652" y2="-0.292927" style="stroke:rgb(246,147,147);stroke-width:0.01" />
<line x1="-0.270131" y1="0.342943" x2="-0.0315272" y2="0.401871" style="stroke:rgb(246,147,147);stroke-width:0.01" />
<line x1="-0.270131" y1="0.342943" x2="-0.072188" y2="0.566508" style="stroke:rgb(246,147,147);stroke-width:0.01" />
<line x1="0.752187" y1="0.466518" x2="-0.072188" y2="0.566508" style="stroke:rgb(246,147,147);stroke-width:0.01" />
<line x1="0.642186" y1="-0.440393" x2="0.752187" y2="0.466518" style="stroke:rgb(246,147,147);stroke-width:0.01" />
<line x1="0.642186" y1="-0.440393" x2="0.647475" y2="-0.354112" style="stroke:rgb(246,147,147);stroke-width:0.01" />
<line x1="-0.35412" y1="-0.349515" x2="-0.270131" y2="0.342943" style="stroke:rgb(246,147,147);stroke-width:0.01" />
<line x1="-0.35412" y1="-0.349515" x2="-0.350652" y2="-0.292927" style="stroke:rgb(246,147,147);stroke-width:0.01" />
<line x1="-0.0315272" y1="0.401871" x2="-0.072188" y2="0.566508" style="stroke:rgb(246,147,147);stroke-width:0.01" />
</g>
</svg>
