<svg xmlns="http://www.w3.org/2000/svg" viewBox="-1.5 -1.5 3 3">
<g transform="scale(1, -1)">
<path d="M1.566027 -1.833462 L1.676028 -0.926551 L0.851654 -0.826561 L0.653711 -1.050127 L0.576560 -1.686203 L0.573190 -1.685996 L0.569721 -1.742584 z " fill="rgb(245,195,195)" />
<path d="M0.000000 0.000000 L1.000000 0.000000 L1.000000 1.000000 L0.000000 1.000000  z" fill="none" stroke="rgb(128,128,128)" stroke-width="0.01" />
<line x1="1.56603" y1="-1.83346" x2="0.569721" y2="-1.74258" style="stroke:rgb(246,147,147);stroke-width:0.01" />
<line x1="1.57132" y1="-1.74718" x2="0.57319" y2="-1.686" style="stroke:rgb(246,147,147);stroke-width:0.01" />
<line x1="0.653711" y1="-1.05013" x2="0.892314" y2="-0.991198" style="stroke:rgb(246,147,147);stroke-width:0.01" />
<line x1="0.653711" y1="-1.05013" x2="0.851654" y2="-0.826561" style="stroke:rgb(246,147,147);stroke-width:0.01" />
<line x1="1.67603" y1="-0.926551" x2="0.851654" y2="-0.826561" style="stroke:rgb(246,147,147);stroke-width:0.01" />
<line x1="1.56603" y1="-1.83346" x2="1.67603" y2="-0.926551" style="stroke:rgb(246,147,147);stroke-width:0.01" />
<line x1="1.56603" y1="-1.83346" x2="1.57132" y2="-1.74718" style="stroke:rgb(246,147,147);stroke-width:0.01" />
<line x1="0.569721" y1="-1.74258" x2="0.653711" y2="-1.05013" style="stroke:rgb(246,147,147);stroke-width:0.01" />
<line x1="0.569721" y1="-1.74258" x2="0.57319" y2="-1.686" style="stroke:rgb(246,147,147);stroke-width:0.01" />
<line x1="0.892314" y1="-0.991198" x2="0.851654" y2="-0.826561" style="stroke:rgb(246,147,147);stroke-width:0.01" />
</g>
</svg>
