<svg xmlns="http://www.w3.org/2000/svg" viewBox="-1.5 -1.5 3 3">
<g transform="scale(1, -1)">
<path d="M0.315990 0.247659 L0.859600 0.377998 L0.916186 0.621510 L0.794430 0.649803 L0.787500 0.774611 L0.537884 0.760750 L0.517712 0.714106 L-0.057861 0.847855 L-0.171034 0.360831 z " fill="rgb(245,195,195)" />
<path d="M0.000000 0.000000 L1.000000 0.000000 L1.000000 1.000000 L0.000000 1.000000  z" fill="none" stroke="rgb(128,128,128)" stroke-width="0.01" />
<line x1="0.8596" y1="0.377998" x2="0.916186" y2="0.62151" style="stroke:rgb(246,147,147);stroke-width:0.01" />
<line x1="0.31599" y1="0.247659" x2="0.537884" y2="0.76075" style="stroke:rgb(246,147,147);stroke-width:0.01" />
<line x1="0.31599" y1="0.247659" x2="0.79443" y2="0.649803" style="stroke:rgb(246,147,147);stroke-width:0.01" />
<line x1="0.79443" y1="0.649803" x2="0.7875" y2="0.774611" style="stroke:rgb(246,147,147);stroke-width:0.01" />
<line x1="-0.171034" y1="0.360831" x2="-0.0578613" y2="0.847855" style="stroke:rgb(246,147,147);stroke-width:0.01" />
<line x1="0.31599" y1="0.247659" x2="0.8596" y2="0.377998" style="stroke:rgb(246,147,147);stroke-width:0.01" />
<line x1="0.31599" y1="0.247659" x2="-0.171034" y2="0.360831" style="stroke:rgb(246,147,147);stroke-width:0.01" />
<line x1="0.8596" y1="0.377998" x2="0.537884" y2="0.76075" style="stroke:rgb(246,147,147);stroke-width:0.01" />
<line x1="0.537884" y1="0.76075" x2="0.7875" y2="0.774611" style="stroke:rgb(246,147,147);stroke-width:0.01" />
<line x1="0.916186" y1="0.62151" x2="-0.0578613" y2="0.847855" style="stroke:rgb(246,147,147);stroke-width:0.01" />
</g>
</svg>
