<svg xmlns="http://www.w3.org/2000/svg" viewBox="-1.5 -1.5 3 3">
<g transform="scale(1, -1)">
<path d="M-0.281690 -0.445453 L0.445453 -0.281690 L0.605300 0.365530 L0.281690 0.445453 L-0.445453 0.281690 L-0.605300 -0.365530 z " fill="rgb(245,195,195)" />
<path d="M-0.265124 -0.236677 L0.734876 -0.236677 L0.734876 0.763323 L-0.265124 0.763323  z" fill="none" stroke="rgb(128,128,128)" stroke-width="0.01" />
<line x1="-0.28169" y1="-0.445453" x2="-0.6053" y2="-0.36553" style="stroke:rgb(246,147,147);stroke-width:0.01" />
<line x1="-0.28169" y1="-0.445453" x2="0.445453" y2="-0.28169" style="stroke:rgb(246,147,147);stroke-width:0.01" />
<line x1="0.445453" y1="-0.28169" x2="0.6053" y2="0.36553" style="stroke:rgb(246,147,147);stroke-width:0.01" />
<line x1="-0.28169" y1="-0.445453" x2="0.234519" y2="-0.0235851" style="stroke:rgb(246,147,147);stroke-width:0.01" />
<line x1="-0.6053" y1="-0.36553" x2="-0.445453" y2="0.28169" style="stroke:rgb(246,147,147);stroke-width:0.01" />
<line x1="-0.234519" y1="0.0235851" x2="-0.445453" y2="0.28169" style="stroke:rgb(246,147,147);stroke-width:0.01" />
<line x1="-0.234519" y1="0.0235851" x2="0.28169" y2="0.445453" style="stroke:rgb(246,147,147);stroke-width:0.01" />
<line x1="0.445453" y1="-0.28169" x2="0.234519" y2="-0.0235851" style="stroke:rgb(246,147,147);stroke-width:0.01" />
<line x1="-0.445453" y1="0.28169" x2="0.28169" y2="0.445453" style="stroke:rgb(246,147,147);stroke-width:0.01" />
<line x1="0.6053" y1="0.36553" x2="0.28169" y2="0.445453" style="stroke:rgb(246,147,147);stroke-width:0.01" />
</g>
</svg>
