<svg xmlns="http://www.w3.org/2000/svg" viewBox="-1.5 -1.5 3 3">
<g transform="scale(1, -1)">
<path d="M0.091771 -0.465677 L0.269285 -0.289641 L0.091771 -0.110635 L0.091771 -0.108534 L0.234628 -0.049010 L0.234628 0.284323 L-0.101507 0.284323 L-0.238745 0.420418 L-0.336801 0.321538 L-0.336801 -0.287105 z " fill="rgb(245,195,195)" />
<path d="M-0.908229 -0.715677 L0.091771 -0.715677 L0.091771 0.284323 L-0.908229 0.284323  z" fill="none" stroke="rgb(128,128,128)" stroke-width="0.01" />
<line x1="0.0917707" y1="-0.465677" x2="0.269285" y2="-0.289641" style="stroke:rgb(246,147,147);stroke-width:0.01" />
<line x1="-0.336801" y1="-0.287105" x2="-0.336801" y2="0.321538" style="stroke:rgb(246,147,147);stroke-width:0.01" />
<line x1="0.0917707" y1="-0.465677" x2="0.0917707" y2="0.284323" style="stroke:rgb(246,147,147);stroke-width:0.01" />
<line x1="0.234628" y1="-0.0490101" x2="0.234628" y2="0.284323" style="stroke:rgb(246,147,147);stroke-width:0.01" />
<line x1="-0.336801" y1="-0.287105" x2="0.234628" y2="-0.0490101" style="stroke:rgb(246,147,147);stroke-width:0.01" />
<line x1="-0.336801" y1="0.321538" x2="-0.238745" y2="0.420418" style="stroke:rgb(246,147,147);stroke-width:0.01" />
<line x1="0.0917707" y1="-0.465677" x2="-0.336801" y2="-0.287105" style="stroke:rgb(246,147,147);stroke-width:0.01" />
<line x1="0.269285" y1="-0.289641" x2="-0.336801" y2="0.321538" style="stroke:rgb(246,147,147);stroke-width:0.01" />
<line x1="0.234628" y1="-0.0490101" x2="-0.238745" y2="0.420418" style="stroke:rgb(246,147,147);stroke-width:0.01" />
<line x1="-0.336801" y1="0.284323" x2="0.234628" y2="0.284323" style="stroke:rgb(246,147,147);stroke-width:0.01" />
</g>
</svg>
