<svg xmlns="http://www.w3.org/2000/svg" viewBox="-1.5 -1.5 3 3">
<g transform="scale(1, -1)">
<path d="M0.329763 -0.629639 L0.370528 -0.131303 L0.162126 0.387415 L-0.087042 0.407798 L-0.097233 0.283214 L-0.219687 0.258114 L-0.169488 0.013206 L-0.120395 0.000069 L-0.168572 -0.588873 z " fill="rgb(245,195,195)" />
<path d="M1.607909 -0.739659 L2.607909 -0.739659 L2.607909 0.260341 L1.607909 0.260341  z" fill="none" stroke="rgb(128,128,128)" stroke-width="0.01" />
<line x1="0.370528" y1="-0.131303" x2="0.162126" y2="0.387415" style="stroke:rgb(246,147,147);stroke-width:0.01" />
<line x1="-0.169488" y1="0.0132058" x2="-0.219687" y2="0.258114" style="stroke:rgb(246,147,147);stroke-width:0.01" />
<line x1="0.370528" y1="-0.131303" x2="-0.0972331" y2="0.283214" style="stroke:rgb(246,147,147);stroke-width:0.01" />
<line x1="0.329763" y1="-0.629639" x2="-0.168572" y2="-0.588873" style="stroke:rgb(246,147,147);stroke-width:0.01" />
<line x1="0.329763" y1="-0.629639" x2="0.370528" y2="-0.131303" style="stroke:rgb(246,147,147);stroke-width:0.01" />
<line x1="-0.168572" y1="-0.588873" x2="-0.0870417" y2="0.407798" style="stroke:rgb(246,147,147);stroke-width:0.01" />
<line x1="0.370528" y1="-0.131303" x2="-0.169488" y2="0.0132058" style="stroke:rgb(246,147,147);stroke-width:0.01" />
<line x1="0.162126" y1="0.387415" x2="-0.0870417" y2="0.407798" style="stroke:rgb(246,147,147);stroke-width:0.01" />
<line x1="-0.169488" y1="0.0132058" x2="0.162126" y2="0.387415" style="stroke:rgb(246,147,147);stroke-width:0.01" />
<line x1="-0.219687" y1="0.258114" x2="-0.0972331" y2="0.283214" style="stroke:rgb(246,147,147);stroke-width:0.01" />
</g>
</svg>
