<svg xmlns="http://www.w3.org/2000/svg" viewBox="-1.5 -1.5 3 3">
<g transform="scale(1, -1)">
<path d="M-0.373851 -0.600196 L-0.049169 -0.524748 L0.524748 -0.049169 L0.373851 0.600196 L0.049169 0.524748 L-0.524748 0.049169 z " fill="rgb(245,195,195)" />
<path d="M0.418090 -0.650910 L1.418090 -0.650910 L1.418090 0.349090 L0.418090 0.349090  z" fill="none" stroke="rgb(128,128,128)" stroke-width="0.01" />
<line x1="-0.373851" y1="-0.600196" x2="-0.524748" y2="0.049169" style="stroke:rgb(246,147,147);stroke-width:0.01" />
<line x1="0.524748" y1="-0.049169" x2="0.373851" y2="0.600196" style="stroke:rgb(246,147,147);stroke-width:0.01" />
<line x1="-0.049169" y1="-0.524748" x2="0.219733" y2="0.085282" style="stroke:rgb(246,147,147);stroke-width:0.01" />
<line x1="-0.373851" y1="-0.600196" x2="-0.049169" y2="-0.524748" style="stroke:rgb(246,147,147);stroke-width:0.01" />
<line x1="-0.219733" y1="-0.085282" x2="-0.524748" y2="0.049169" style="stroke:rgb(246,147,147);stroke-width:0.01" />
<line x1="-0.049169" y1="-0.524748" x2="0.524748" y2="-0.049169" style="stroke:rgb(246,147,147);stroke-width:0.01" />
<line x1="-0.219733" y1="-0.085282" x2="0.049169" y2="0.524748" style="stroke:rgb(246,147,147);stroke-width:0.01" />
<line x1="0.524748" y1="-0.049169" x2="0.219733" y2="0.085282" style="stroke:rgb(246,147,147);stroke-width:0.01" />
<line x1="-0.524748" y1="0.049169" x2="0.049169" y2="0.524748" style="stroke:rgb(246,147,147);stroke-width:0.01" />
<line x1="0.049169" y1="0.524748" x2="0.373851" y2="0.600196" style="stroke:rgb(246,147,147);stroke-width:0.01" />
</g>
</svg>
