<svg xmlns="http://www.w3.org/2000/svg" viewBox="-1.5 -1.5 3 3">
<g transform="scale(1, -1)">
<path d="M0.288428 -0.405428 L0.537365 0.563549 L-0.340308 0.817077 L-0.570763 0.019278 L-0.381707 -0.211850 L0.233864 -0.389666 L0.233121 -0.392960 z " fill="rgb(245,195,195)" />
<path d="M-0.573830 -1.033279 L0.426170 -1.033279 L0.426170 -0.033279 L-0.573830 -0.033279  z" fill="none" stroke="rgb(128,128,128)" stroke-width="0.01" />
<line x1="0.288428" y1="-0.405428" x2="0.537365" y2="0.563549" style="stroke:rgb(246,147,147);stroke-width:0.01" />
<line x1="0.233121" y1="-0.39296" x2="0.453039" y2="0.582559" style="stroke:rgb(246,147,147);stroke-width:0.01" />
<line x1="-0.381707" y1="-0.21185" x2="-0.401745" y2="0.0331046" style="stroke:rgb(246,147,147);stroke-width:0.01" />
<line x1="-0.570763" y1="0.0192783" x2="-0.340308" y2="0.817077" style="stroke:rgb(246,147,147);stroke-width:0.01" />
<line x1="-0.381707" y1="-0.21185" x2="-0.570763" y2="0.0192783" style="stroke:rgb(246,147,147);stroke-width:0.01" />
<line x1="0.288428" y1="-0.405428" x2="0.233121" y2="-0.39296" style="stroke:rgb(246,147,147);stroke-width:0.01" />
<line x1="0.288428" y1="-0.405428" x2="-0.381707" y2="-0.21185" style="stroke:rgb(246,147,147);stroke-width:0.01" />
<line x1="-0.570763" y1="0.0192783" x2="-0.401745" y2="0.0331046" style="stroke:rgb(246,147,147);stroke-width:0.01" />
<line x1="0.537365" y1="0.563549" x2="0.453039" y2="0.582559" style="stroke:rgb(246,147,147);stroke-width:0.01" />
<line x1="0.537365" y1="0.563549" x2="-0.340308" y2="0.817077" style="stroke:rgb(246,147,147);stroke-width:0.01" />
</g>
</svg>
