<svg xmlns="http://www.w3.org/2000/svg" viewBox="-1.5 -1.5 3 3">
<g transform="scale(1, -1)">
<path d="M962860748.432001 1853992243.789295 L962860748.867203 1853992244.456035 L962860748.906892 1853992244.448528 L962860748.925088 1853992244.544716 L962860748.019454 1853992244.909195 L962860747.975145 1853992244.918888 L962860747.640153 1853992244.405673 L962860747.873736 1853992244.153692 z " fill="rgb(245,195,195)" />
<path d="M0.000000 0.000000 L1.000000 0.000000 L1.000000 1.000000 L0.000000 1.000000  z" fill="none" stroke="rgb(128,128,128)" stroke-width="0.01" />
<line x1="9.62861e+08" y1="1.85399e+09" x2="9.62861e+08" y2="1.85399e+09" style="stroke:rgb(246,147,147);stroke-width:0.01" />
<line x1="9.62861e+08" y1="1.85399e+09" x2="9.62861e+08" y2="1.85399e+09" style="stroke:rgb(246,147,147);stroke-width:0.01" />
<line x1="9.62861e+08" y1="1.85399e+09" x2="9.62861e+08" y2="1.85399e+09" style="stroke:rgb(246,147,147);stroke-width:0.01" />
<line x1="9.62861e+08" y1="1.85399e+09" x2="9.62861e+08" y2="1.85399e+09" style="stroke:rgb(246,147,147);stroke-width:0.01" />
<line x1="9.62861e+08" y1="1.85399e+09" x2="9.62861e+08" y2="1.85399e+09" style="stroke:rgb(246,147,147);stroke-width:0.01" />
<line x1="9.62861e+08" y1="1.85399e+09" x2="9.62861e+08" y2="1.85399e+09" style="stroke:rgb(246,147,147);stroke-width:0.01" />
<line x1="9.62861e+08" y1="1.85399e+09" x2="9.62861e+08" y2="1.85399e+09" style="stroke:rgb(246,147,147);stroke-width:0.01" />
<line x1="9.62861e+08" y1="1.85399e+09" x2="9.62861e+08" y2="1.85399e+09" style="stroke:rgb(246,147,147);stroke-width:0.01" />
<line x1="9.62861e+08" y1="1.85399e+09" x2="9.62861e+08" y2="1.85399e+09" style="stroke:rgb(246,147,147);stroke-width:0.01" />
<line x1="9.62861e+08" y1="1.85399e+09" x2="9.62861e+08" y2="1.85399e+09" style="stroke:rgb(246,147,147);stroke-width:0.01" />
<line x1="9.62861e+08" y1="1.85399e+09" x2="9.62861e+08" y2="1.85399e+09" style="stroke:rgb(246,147,147);stroke-width:0.01" />
<line x1="9.62861e+08" y1="1.85399e+09" x2="9.62861e+08" y2="1.85399e+09" style="stroke:rgb(246,147,147);stroke-width:0.01" />
<line x1="9.62861e+08" y1="1.85399e+09" x2="9.62861e+08" y2="1.85399e+09" style="stroke:rgb(246,147,147);stroke-width:0.01" />
<line x1="9.62861e+08" y1="1.85399e+09" x2="9.62861e+08" y2="1.85399e+09" style="stroke:rgb(246,147,147);stroke-width:0.01" />
<line x1="9.62861e+08" y1="1.85399e+09" x2="9.62861e+08" y2="1.85399e+09" style="stroke:rgb(246,147,147);stroke-width:0.01" />
<line x1="9.62861e+08" y1="1.85399e+09" x2="9.62861e+08" y2="1.85399e+09" style="stroke:rgb(246,147,147);stroke-width:0.01" />
<line x1="9.62861e+08" y1="1.85399e+09" x2="9.62861e+08" y2="1.85399e+09" style="stroke:rgb(246,147,147);stroke-width:0.01" />
<line x1="9.62861e+08" y1="1.85399e+09" x2="9.62861e+08" y2="1.85399e+09" style="stroke:rgb(246,147,147);stroke-width:0.01" />
<line x1="9.62861e+08" y1="1.85399e+09" x2="9.62861e+08" y2="1.85399e+09" style="stroke:rgb(246,147,147);stroke-width:0.01" />
<line x1="9.62861e+08" y1="1.85399e+09" x2="9.62861e+08" y2="1.85399e+09" style="stroke:rgb(246,147,147);stroke-width:0.01" />
<line x1="9.62861e+08" y1="1.85399e+09" x2="9.62861e+08" y2="1.85399e+09" style="stroke:rgb(246,147,147);stroke-width:0.01" />
<line x1="9.62861e+08" y1="1.85399e+09" x2="9.62861e+08" y2="1.85399e+09" style="stroke:rgb(246,147,147);stroke-width:0.01" />
</g>
</svg>
