<svg xmlns="http://www.w3.org/2000/svg" viewBox="-1.5 -1.5 3 3">
<g transform="scale(1, -1)">
<path d="M-0.096657 -0.286248 L-0.024188 -0.280946 L0.001051 -0.211840 L0.092603 -0.142120 L0.032343 -0.126160 L0.332753 0.696392 L-0.337904 0.350922 z " fill="rgb(245,195,195)" />
<path d="M-0.667247 -0.303608 L0.332753 -0.303608 L0.332753 0.696392 L-0.667247 0.696392  z" fill="none" stroke="rgb(128,128,128)" stroke-width="0.01" />
<line x1="-0.096657" y1="-0.286248" x2="0.0926028" y2="-0.14212" style="stroke:rgb(246,147,147);stroke-width:0.01" />
<line x1="-0.12177" y1="-0.21992" x2="-0.0440787" y2="-0.105919" style="stroke:rgb(246,147,147);stroke-width:0.01" />
<line x1="-0.0241879" y1="-0.280946" x2="0.332753" y2="0.696392" style="stroke:rgb(246,147,147);stroke-width:0.01" />
<line x1="-0.103674" y1="-0.203348" x2="0.332753" y2="0.696392" style="stroke:rgb(246,147,147);stroke-width:0.01" />
<line x1="-0.0672474" y1="-0.103608" x2="0.332753" y2="0.696392" style="stroke:rgb(246,147,147);stroke-width:0.01" />
<line x1="-0.14401" y1="-0.161181" x2="-0.0672474" y2="-0.103608" style="stroke:rgb(246,147,147);stroke-width:0.01" />
<line x1="-0.178404" y1="-0.0703428" x2="0.332753" y2="0.696392" style="stroke:rgb(246,147,147);stroke-width:0.01" />
<line x1="-0.236624" y1="0.0834268" x2="-0.0998369" y2="0.411257" style="stroke:rgb(246,147,147);stroke-width:0.01" />
<line x1="-0.15946" y1="-0.120374" x2="-0.107706" y2="-0.0890672" style="stroke:rgb(246,147,147);stroke-width:0.01" />
<line x1="-0.142335" y1="-0.165607" x2="-0.0998369" y2="0.411257" style="stroke:rgb(246,147,147);stroke-width:0.01" />
<line x1="-0.096657" y1="-0.286248" x2="-0.0241879" y2="-0.280946" style="stroke:rgb(246,147,147);stroke-width:0.01" />
<line x1="-0.0403" y1="-0.152826" x2="-0.0440787" y2="-0.105919" style="stroke:rgb(246,147,147);stroke-width:0.01" />
<line x1="-0.15946" y1="-0.120374" x2="-0.0672474" y2="-0.103608" style="stroke:rgb(246,147,147);stroke-width:0.01" />
<line x1="-0.14401" y1="-0.161181" x2="0.0926028" y2="-0.14212" style="stroke:rgb(246,147,147);stroke-width:0.01" />
<line x1="-0.0738929" y1="-0.149667" x2="0.0926028" y2="-0.14212" style="stroke:rgb(246,147,147);stroke-width:0.01" />
<line x1="-0.096657" y1="-0.286248" x2="-0.337904" y2="0.350922" style="stroke:rgb(246,147,147);stroke-width:0.01" />
<line x1="-0.012075" y1="-0.247779" x2="-0.12177" y2="-0.21992" style="stroke:rgb(246,147,147);stroke-width:0.01" />
<line x1="-0.0738929" y1="-0.149667" x2="-0.107706" y2="-0.0890672" style="stroke:rgb(246,147,147);stroke-width:0.01" />
<line x1="-0.012075" y1="-0.247779" x2="-0.103674" y2="-0.203348" style="stroke:rgb(246,147,147);stroke-width:0.01" />
<line x1="-0.0241879" y1="-0.280946" x2="-0.142335" y2="-0.165607" style="stroke:rgb(246,147,147);stroke-width:0.01" />
<line x1="0.0926028" y1="-0.14212" x2="-0.178404" y2="-0.0703428" style="stroke:rgb(246,147,147);stroke-width:0.01" />
<line x1="-0.0672474" y1="-0.103608" x2="-0.137836" y2="-0.00949083" style="stroke:rgb(246,147,147);stroke-width:0.01" />
<line x1="-0.337904" y1="0.350922" x2="0.332753" y2="0.696392" style="stroke:rgb(246,147,147);stroke-width:0.01" />
<line x1="0.0568905" y1="-0.0589451" x2="-0.137836" y2="-0.00949083" style="stroke:rgb(246,147,147);stroke-width:0.01" />
<line x1="0.0568905" y1="-0.0589451" x2="-0.236624" y2="0.0834268" style="stroke:rgb(246,147,147);stroke-width:0.01" />
<line x1="-0.337904" y1="0.350922" x2="-0.0998369" y2="0.411257" style="stroke:rgb(246,147,147);stroke-width:0.01" />
</g>
</svg>
