<svg xmlns="http://www.w3.org/2000/svg" viewBox="-1.5 -1.5 3 3">
<g transform="scale(1, -1)">
<path d="M-0.357143 0.066667 L-0.062500 0.066667 L-0.062500 0.260317 L-0.357143 0.260317 z " fill="rgb(245,195,195)" />
<path d="M0.000000 0.000000 L1.000000 0.000000 L1.000000 1.000000 L0.000000 1.000000  z" fill="none" stroke="rgb(128,128,128)" stroke-width="0.01" />
<line x1="-0.357143" y1="0.0666667" x2="-0.357143" y2="0.260317" style="stroke:rgb(246,147,147);stroke-width:0.01" />
<line x1="-0.318182" y1="0.0666667" x2="-0.318182" y2="0.260317" style="stroke:rgb(246,147,147);stroke-width:0.01" />
<line x1="-0.136364" y1="0.0666667" x2="-0.136364" y2="0.260317" style="stroke:rgb(246,147,147);stroke-width:0.01" />
<line x1="-0.0892857" y1="0.0666667" x2="-0.0892857" y2="0.260317" style="stroke:rgb(246,147,147);stroke-width:0.01" />
<line x1="-0.0625" y1="0.0666667" x2="-0.0625" y2="0.260317" style="stroke:rgb(246,147,147);stroke-width:0.01" />
<line x1="-0.357143" y1="0.0666667" x2="-0.0625" y2="0.0666667" style="stroke:rgb(246,147,147);stroke-width:0.01" />
<line x1="-0.357143" y1="0.123016" x2="-0.0625" y2="0.123016" style="stroke:rgb(246,147,147);stroke-width:0.01" />
<line x1="-0.357143" y1="0.136905" x2="-0.0625" y2="0.136905" style="stroke:rgb(246,147,147);stroke-width:0.01" />
<line x1="-0.357143" y1="0.177778" x2="-0.0625" y2="0.177778" style="stroke:rgb(246,147,147);stroke-width:0.01" />
<line x1="-0.357143" y1="0.247619" x2="-0.0625" y2="0.247619" style="stroke:rgb(246,147,147);stroke-width:0.01" />
<line x1="-0.357143" y1="0.260317" x2="-0.0625" y2="0.260317" style="stroke:rgb(246,147,147);stroke-width:0.01" />
</g>
</svg>
