<svg xmlns="http://www.w3.org/2000/svg" viewBox="-1.5 -1.5 3 3">
<g transform="scale(1, -1)">
<path d="M-0.147321 -0.096825 L0.147321 -0.096825 L0.147321 0.096825 L-0.147321 0.096825 z " fill="rgb(245,195,195)" />
<path d="M0.209821 -0.163492 L1.209821 -0.163492 L1.209821 0.836508 L0.209821 0.836508  z" fill="none" stroke="rgb(128,128,128)" stroke-width="0.01" />
<line x1="-0.147321" y1="-0.0968254" x2="-0.147321" y2="0.0968254" style="stroke:rgb(246,147,147);stroke-width:0.01" />
<line x1="-0.10836" y1="-0.0968254" x2="-0.10836" y2="0.0968254" style="stroke:rgb(246,147,147);stroke-width:0.01" />
<line x1="0.0734578" y1="-0.0968254" x2="0.0734578" y2="0.0968254" style="stroke:rgb(246,147,147);stroke-width:0.01" />
<line x1="0.120536" y1="-0.0968254" x2="0.120536" y2="0.0968254" style="stroke:rgb(246,147,147);stroke-width:0.01" />
<line x1="0.147321" y1="-0.0968254" x2="0.147321" y2="0.0968254" style="stroke:rgb(246,147,147);stroke-width:0.01" />
<line x1="-0.147321" y1="-0.0968254" x2="0.147321" y2="-0.0968254" style="stroke:rgb(246,147,147);stroke-width:0.01" />
<line x1="-0.147321" y1="-0.0404762" x2="0.147321" y2="-0.0404762" style="stroke:rgb(246,147,147);stroke-width:0.01" />
<line x1="-0.147321" y1="-0.0265873" x2="0.147321" y2="-0.0265873" style="stroke:rgb(246,147,147);stroke-width:0.01" />
<line x1="-0.147321" y1="0.0142857" x2="0.147321" y2="0.0142857" style="stroke:rgb(246,147,147);stroke-width:0.01" />
<line x1="-0.147321" y1="0.084127" x2="0.147321" y2="0.084127" style="stroke:rgb(246,147,147);stroke-width:0.01" />
<line x1="-0.147321" y1="0.0968254" x2="0.147321" y2="0.0968254" style="stroke:rgb(246,147,147);stroke-width:0.01" />
</g>
</svg>
