<svg xmlns="http://www.w3.org/2000/svg" viewBox="-1.5 -1.5 3 3">
<g transform="scale(1, -1)">
<path d="M0.782683 0.822819 L1.179636 1.018635 L1.128205 1.136752 L1.022894 1.092872 L0.954135 1.069219 L0.852564 1.292735 L0.750000 1.250000 L0.752716 1.243481 L0.728005 1.231292 L0.829161 1.026228 L0.858451 1.014167 L0.723581 0.952877 L0.738267 0.920560 L0.732259 0.917355 z " fill="rgb(245,195,195)" />
<path d="M0.000000 0.000000 L1.000000 0.000000 L1.000000 1.000000 L0.000000 1.000000  z" fill="none" stroke="rgb(128,128,128)" stroke-width="0.01" />
<line x1="0.782683" y1="0.822819" x2="1.17964" y2="1.01863" style="stroke:rgb(246,147,147);stroke-width:0.01" />
<line x1="0.732259" y1="0.917355" x2="1.1311" y2="1.1301" style="stroke:rgb(246,147,147);stroke-width:0.01" />
<line x1="0.782683" y1="0.822819" x2="0.723581" y2="0.952877" style="stroke:rgb(246,147,147);stroke-width:0.01" />
<line x1="0.846154" y1="1.01923" x2="0.75" y2="1.25" style="stroke:rgb(246,147,147);stroke-width:0.01" />
<line x1="1.00694" y1="0.953026" x2="1.17964" y2="1.01863" style="stroke:rgb(246,147,147);stroke-width:0.01" />
<line x1="0.782683" y1="0.822819" x2="0.732259" y2="0.917355" style="stroke:rgb(246,147,147);stroke-width:0.01" />
<line x1="0.723581" y1="0.952877" x2="1.12821" y2="1.13675" style="stroke:rgb(246,147,147);stroke-width:0.01" />
<line x1="0.829161" y1="1.02623" x2="0.728005" y2="1.23129" style="stroke:rgb(246,147,147);stroke-width:0.01" />
<line x1="1.00694" y1="0.953026" x2="0.852564" y2="1.29274" style="stroke:rgb(246,147,147);stroke-width:0.01" />
<line x1="0.846154" y1="1.01923" x2="1.12821" y2="1.13675" style="stroke:rgb(246,147,147);stroke-width:0.01" />
<line x1="1.17964" y1="1.01863" x2="1.12821" y2="1.13675" style="stroke:rgb(246,147,147);stroke-width:0.01" />
<line x1="0.829161" y1="1.02623" x2="1.1311" y2="1.1301" style="stroke:rgb(246,147,147);stroke-width:0.01" />
<line x1="0.728005" y1="1.23129" x2="0.852564" y2="1.29274" style="stroke:rgb(246,147,147);stroke-width:0.01" />
<line x1="0.75" y1="1.25" x2="0.852564" y2="1.29274" style="stroke:rgb(246,147,147);stroke-width:0.01" />
<line x1="1.00694" y1="0.953026" x2="0.829161" y2="1.02623" style="stroke:rgb(246,147,147);stroke-width:0.01" />
</g>
</svg>
