<svg xmlns="http://www.w3.org/2000/svg" viewBox="-1.5 -1.5 3 3">
<g transform="scale(1, -1)">
<path d="M-0.076785 -0.247823 L0.320168 -0.052008 L0.268737 0.066110 L0.163425 0.022230 L0.094667 -0.001423 L-0.006904 0.222093 L-0.109468 0.179358 L-0.106752 0.172839 L-0.131463 0.160650 L-0.030308 -0.044414 L-0.001017 -0.056475 L-0.135888 -0.117765 L-0.121201 -0.150083 L-0.127210 -0.153287 z " fill="rgb(245,195,195)" />
<path d="M-0.859468 -1.070642 L0.140532 -1.070642 L0.140532 -0.070642 L-0.859468 -0.070642  z" fill="none" stroke="rgb(128,128,128)" stroke-width="0.01" />
<line x1="-0.076785" y1="-0.247823" x2="0.320168" y2="-0.0520079" style="stroke:rgb(246,147,147);stroke-width:0.01" />
<line x1="-0.12721" y1="-0.153287" x2="0.271635" y2="0.0594541" style="stroke:rgb(246,147,147);stroke-width:0.01" />
<line x1="-0.076785" y1="-0.247823" x2="-0.135888" y2="-0.117765" style="stroke:rgb(246,147,147);stroke-width:0.01" />
<line x1="-0.0133145" y1="-0.0514116" x2="-0.109468" y2="0.179358" style="stroke:rgb(246,147,147);stroke-width:0.01" />
<line x1="0.147467" y1="-0.117616" x2="0.320168" y2="-0.0520079" style="stroke:rgb(246,147,147);stroke-width:0.01" />
<line x1="-0.076785" y1="-0.247823" x2="-0.12721" y2="-0.153287" style="stroke:rgb(246,147,147);stroke-width:0.01" />
<line x1="-0.135888" y1="-0.117765" x2="0.268737" y2="0.0661098" style="stroke:rgb(246,147,147);stroke-width:0.01" />
<line x1="-0.0303078" y1="-0.0444144" x2="-0.131463" y2="0.16065" style="stroke:rgb(246,147,147);stroke-width:0.01" />
<line x1="0.147467" y1="-0.117616" x2="-0.00690423" y2="0.222093" style="stroke:rgb(246,147,147);stroke-width:0.01" />
<line x1="-0.0133145" y1="-0.0514116" x2="0.268737" y2="0.0661098" style="stroke:rgb(246,147,147);stroke-width:0.01" />
<line x1="0.320168" y1="-0.0520079" x2="0.268737" y2="0.0661098" style="stroke:rgb(246,147,147);stroke-width:0.01" />
<line x1="-0.0303078" y1="-0.0444144" x2="0.271635" y2="0.0594541" style="stroke:rgb(246,147,147);stroke-width:0.01" />
<line x1="-0.131463" y1="0.16065" x2="-0.00690423" y2="0.222093" style="stroke:rgb(246,147,147);stroke-width:0.01" />
<line x1="-0.109468" y1="0.179358" x2="-0.00690423" y2="0.222093" style="stroke:rgb(246,147,147);stroke-width:0.01" />
<line x1="0.147467" y1="-0.117616" x2="-0.0303078" y2="-0.0444144" style="stroke:rgb(246,147,147);stroke-width:0.01" />
</g>
</svg>
