<svg xmlns="http://www.w3.org/2000/svg" viewBox="-1.5 -1.5 3 3">
<g transform="scale(1, -1)">
<path d="M0.457871 -0.271040 L0.496675 -0.078960 L0.537079 -0.078960 L0.537079 0.121040 L-0.462921 0.221040 L-0.481523 0.128960 L-0.542129 0.128960 L-0.542129 -0.171040 z " fill="rgb(245,195,195)" />
<path d="M-0.462921 -0.078960 L0.537079 -0.078960 L0.537079 0.921040 L-0.462921 0.921040  z" fill="none" stroke="rgb(128,128,128)" stroke-width="0.01" />
<line x1="0.457871" y1="-0.27104" x2="0.537079" y2="0.12104" style="stroke:rgb(246,147,147);stroke-width:0.01" />
<line x1="0.457871" y1="-0.27104" x2="-0.542129" y2="-0.17104" style="stroke:rgb(246,147,147);stroke-width:0.01" />
<line x1="-0.542129" y1="-0.17104" x2="-0.542129" y2="0.12896" style="stroke:rgb(246,147,147);stroke-width:0.01" />
<line x1="-0.462921" y1="-0.0789604" x2="0.537079" y2="-0.0789604" style="stroke:rgb(246,147,147);stroke-width:0.01" />
<line x1="-0.462921" y1="-0.0789604" x2="-0.462921" y2="0.22104" style="stroke:rgb(246,147,147);stroke-width:0.01" />
<line x1="0.457871" y1="-0.27104" x2="0.457871" y2="0.12896" style="stroke:rgb(246,147,147);stroke-width:0.01" />
<line x1="0.537079" y1="-0.0789604" x2="0.537079" y2="0.12104" style="stroke:rgb(246,147,147);stroke-width:0.01" />
<line x1="-0.542129" y1="-0.17104" x2="-0.462921" y2="0.22104" style="stroke:rgb(246,147,147);stroke-width:0.01" />
<line x1="-0.542129" y1="0.12896" x2="0.457871" y2="0.12896" style="stroke:rgb(246,147,147);stroke-width:0.01" />
<line x1="0.537079" y1="0.12104" x2="-0.462921" y2="0.22104" style="stroke:rgb(246,147,147);stroke-width:0.01" />
</g>
</svg>
