<svg xmlns="http://www.w3.org/2000/svg" viewBox="-1.5 -1.5 3 3">
<g transform="scale(1, -1)">
<path d="M-0.389397 -0.216987 L-0.329870 -0.126758 L0.329870 -0.126758 L0.389397 -0.216987 L0.407895 -0.126758 L0.315297 -0.013251 L0.367647 0.005595 L0.385269 0.191939 L0.273642 0.099600 L0.000000 0.373242 L-0.273642 0.099600 L-0.385269 0.191939 L-0.367647 0.005595 L-0.315297 -0.013251 L-0.407895 -0.126758 z " fill="rgb(245,195,195)" />
<path d="M-0.500000 -0.126758 L0.500000 -0.126758 L0.500000 0.873242 L-0.500000 0.873242  z" fill="none" stroke="rgb(128,128,128)" stroke-width="0.01" />
<line x1="0" y1="-0.126758" x2="0.385269" y2="0.191939" style="stroke:rgb(246,147,147);stroke-width:0.01" />
<line x1="0.389397" y1="-0.216987" x2="0.407895" y2="-0.126758" style="stroke:rgb(246,147,147);stroke-width:0.01" />
<line x1="0" y1="-0.126758" x2="0.367647" y2="0.00559478" style="stroke:rgb(246,147,147);stroke-width:0.01" />
<line x1="0.367647" y1="0.00559478" x2="0.385269" y2="0.191939" style="stroke:rgb(246,147,147);stroke-width:0.01" />
<line x1="-0.389397" y1="-0.216987" x2="0" y2="0.373242" style="stroke:rgb(246,147,147);stroke-width:0.01" />
<line x1="-0.407895" y1="-0.126758" x2="0" y2="0.373242" style="stroke:rgb(246,147,147);stroke-width:0.01" />
<line x1="-0.407895" y1="-0.126758" x2="0.407895" y2="-0.126758" style="stroke:rgb(246,147,147);stroke-width:0.01" />
<line x1="-0.367647" y1="0.00559478" x2="0" y2="0.373242" style="stroke:rgb(246,147,147);stroke-width:0.01" />
<line x1="0" y1="-0.126758" x2="0" y2="0.373242" style="stroke:rgb(246,147,147);stroke-width:0.01" />
<line x1="-0.367647" y1="0.00559478" x2="-0.385269" y2="0.191939" style="stroke:rgb(246,147,147);stroke-width:0.01" />
<line x1="-0.389397" y1="-0.216987" x2="-0.407895" y2="-0.126758" style="stroke:rgb(246,147,147);stroke-width:0.01" />
<line x1="0" y1="-0.126758" x2="-0.367647" y2="0.00559478" style="stroke:rgb(246,147,147);stroke-width:0.01" />
<line x1="0" y1="-0.126758" x2="-0.385269" y2="0.191939" style="stroke:rgb(246,147,147);stroke-width:0.01" />
<line x1="0.389397" y1="-0.216987" x2="0" y2="0.373242" style="stroke:rgb(246,147,147);stroke-width:0.01" />
<line x1="0.407895" y1="-0.126758" x2="0" y2="0.373242" style="stroke:rgb(246,147,147);stroke-width:0.01" />
<line x1="0.367647" y1="0.00559478" x2="0" y2="0.373242" style="stroke:rgb(246,147,147);stroke-width:0.01" />
</g>
</svg>
