<svg xmlns="http://www.w3.org/2000/svg" viewBox="-1.5 -1.5 3 3">
<g transform="scale(1, -1)">
<path d="M-0.457287 -0.126174 L-0.423932 -0.086833 L0.423932 -0.086833 L0.457287 -0.126174 L0.460526 -0.086833 L0.397416 -0.018313 L0.426471 -0.013304 L0.471132 0.080603 L0.368897 0.044270 L0.000000 0.413167 L-0.368897 0.044270 L-0.471132 0.080603 L-0.426471 -0.013304 L-0.397416 -0.018313 L-0.460526 -0.086833 z " fill="rgb(245,195,195)" />
<path d="M-0.500000 -0.086833 L0.500000 -0.086833 L0.500000 0.913167 L-0.500000 0.913167  z" fill="none" stroke="rgb(128,128,128)" stroke-width="0.01" />
<line x1="0.426471" y1="-0.0133037" x2="0.471132" y2="0.0806034" style="stroke:rgb(246,147,147);stroke-width:0.01" />
<line x1="0" y1="-0.0868331" x2="0.471132" y2="0.0806034" style="stroke:rgb(246,147,147);stroke-width:0.01" />
<line x1="0" y1="-0.0868331" x2="0.426471" y2="-0.0133037" style="stroke:rgb(246,147,147);stroke-width:0.01" />
<line x1="0.457287" y1="-0.126174" x2="0.460526" y2="-0.0868331" style="stroke:rgb(246,147,147);stroke-width:0.01" />
<line x1="-0.457287" y1="-0.126174" x2="0" y2="0.413167" style="stroke:rgb(246,147,147);stroke-width:0.01" />
<line x1="-0.460526" y1="-0.0868331" x2="0" y2="0.413167" style="stroke:rgb(246,147,147);stroke-width:0.01" />
<line x1="-0.460526" y1="-0.0868331" x2="0.460526" y2="-0.0868331" style="stroke:rgb(246,147,147);stroke-width:0.01" />
<line x1="-0.426471" y1="-0.0133037" x2="0" y2="0.413167" style="stroke:rgb(246,147,147);stroke-width:0.01" />
<line x1="0" y1="-0.0868331" x2="0" y2="0.413167" style="stroke:rgb(246,147,147);stroke-width:0.01" />
<line x1="-0.457287" y1="-0.126174" x2="-0.460526" y2="-0.0868331" style="stroke:rgb(246,147,147);stroke-width:0.01" />
<line x1="-0.426471" y1="-0.0133037" x2="-0.471132" y2="0.0806034" style="stroke:rgb(246,147,147);stroke-width:0.01" />
<line x1="0" y1="-0.0868331" x2="-0.426471" y2="-0.0133037" style="stroke:rgb(246,147,147);stroke-width:0.01" />
<line x1="0" y1="-0.0868331" x2="-0.471132" y2="0.0806034" style="stroke:rgb(246,147,147);stroke-width:0.01" />
<line x1="0.457287" y1="-0.126174" x2="0" y2="0.413167" style="stroke:rgb(246,147,147);stroke-width:0.01" />
<line x1="0.460526" y1="-0.0868331" x2="0" y2="0.413167" style="stroke:rgb(246,147,147);stroke-width:0.01" />
<line x1="0.426471" y1="-0.0133037" x2="0" y2="0.413167" style="stroke:rgb(246,147,147);stroke-width:0.01" />
</g>
</svg>
