<svg xmlns="http://www.w3.org/2000/svg" viewBox="-1.5 -1.5 3 3">
<g transform="scale(1, -1)">
<path d="M-0.457287 -0.079049 L-0.423932 -0.039708 L0.423932 -0.039708 L0.457287 -0.079049 L0.460526 -0.039708 L0.448022 -0.026132 L0.485294 -0.025003 L0.499083 -0.009433 L0.471404 -0.011112 L0.000000 0.460292 L-0.471404 -0.011112 L-0.499083 -0.009433 L-0.485294 -0.025003 L-0.448022 -0.026132 L-0.460526 -0.039708 z " fill="rgb(245,195,195)" />
<path d="M-0.500000 -0.039708 L0.500000 -0.039708 L0.500000 0.960292 L-0.500000 0.960292  z" fill="none" stroke="rgb(128,128,128)" stroke-width="0.01" />
<line x1="0.485294" y1="-0.0250025" x2="0.499083" y2="-0.00943319" style="stroke:rgb(246,147,147);stroke-width:0.01" />
<line x1="0.457287" y1="-0.079049" x2="0.460526" y2="-0.0397084" style="stroke:rgb(246,147,147);stroke-width:0.01" />
<line x1="-0.457287" y1="-0.079049" x2="0" y2="0.460292" style="stroke:rgb(246,147,147);stroke-width:0.01" />
<line x1="0" y1="-0.0397084" x2="0.499083" y2="-0.00943319" style="stroke:rgb(246,147,147);stroke-width:0.01" />
<line x1="-0.460526" y1="-0.0397084" x2="0" y2="0.460292" style="stroke:rgb(246,147,147);stroke-width:0.01" />
<line x1="0" y1="-0.0397084" x2="0.485294" y2="-0.0250025" style="stroke:rgb(246,147,147);stroke-width:0.01" />
<line x1="-0.460526" y1="-0.0397084" x2="0.460526" y2="-0.0397084" style="stroke:rgb(246,147,147);stroke-width:0.01" />
<line x1="-0.485294" y1="-0.0250025" x2="0" y2="0.460292" style="stroke:rgb(246,147,147);stroke-width:0.01" />
<line x1="0" y1="-0.0397084" x2="0" y2="0.460292" style="stroke:rgb(246,147,147);stroke-width:0.01" />
<line x1="-0.457287" y1="-0.079049" x2="-0.460526" y2="-0.0397084" style="stroke:rgb(246,147,147);stroke-width:0.01" />
<line x1="-0.485294" y1="-0.0250025" x2="-0.499083" y2="-0.00943319" style="stroke:rgb(246,147,147);stroke-width:0.01" />
<line x1="0" y1="-0.0397084" x2="-0.485294" y2="-0.0250025" style="stroke:rgb(246,147,147);stroke-width:0.01" />
<line x1="0" y1="-0.0397084" x2="-0.499083" y2="-0.00943319" style="stroke:rgb(246,147,147);stroke-width:0.01" />
<line x1="0.457287" y1="-0.079049" x2="0" y2="0.460292" style="stroke:rgb(246,147,147);stroke-width:0.01" />
<line x1="0.460526" y1="-0.0397084" x2="0" y2="0.460292" style="stroke:rgb(246,147,147);stroke-width:0.01" />
<line x1="0.485294" y1="-0.0250025" x2="0" y2="0.460292" style="stroke:rgb(246,147,147);stroke-width:0.01" />
</g>
</svg>
