<svg xmlns="http://www.w3.org/2000/svg" viewBox="-1.5 -1.5 3 3">
<g transform="scale(1, -1)">
<path d="M-0.287500 -0.456250 L-0.037500 -0.456250 L0.275000 -0.143750 L0.275000 0.168750 L0.212500 0.168750 L0.087500 0.293750 L-0.037500 0.168750 L-0.100000 0.168750 L-0.100000 0.043750 L-0.287500 0.043750 z " fill="rgb(245,195,195)" />
<path d="M-0.287500 -0.456250 L0.712500 -0.456250 L0.712500 0.543750 L-0.287500 0.543750  z" fill="none" stroke="rgb(128,128,128)" stroke-width="0.01" />
<line x1="-0.0375" y1="-0.45625" x2="0.275" y2="-0.14375" style="stroke:rgb(246,147,147);stroke-width:0.01" />
<line x1="0.0875" y1="-0.20625" x2="0.275" y2="-0.01875" style="stroke:rgb(246,147,147);stroke-width:0.01" />
<line x1="-0.2875" y1="-0.45625" x2="-0.0375" y2="-0.45625" style="stroke:rgb(246,147,147);stroke-width:0.01" />
<line x1="-0.0375" y1="-0.20625" x2="0.275" y2="0.10625" style="stroke:rgb(246,147,147);stroke-width:0.01" />
<line x1="-0.2875" y1="-0.45625" x2="-0.2875" y2="0.04375" style="stroke:rgb(246,147,147);stroke-width:0.01" />
<line x1="-0.1" y1="-0.14375" x2="-0.1" y2="0.16875" style="stroke:rgb(246,147,147);stroke-width:0.01" />
<line x1="-0.0375" y1="-0.45625" x2="-0.0375" y2="-0.20625" style="stroke:rgb(246,147,147);stroke-width:0.01" />
<line x1="0.0875" y1="-0.33125" x2="0.0875" y2="0.29375" style="stroke:rgb(246,147,147);stroke-width:0.01" />
<line x1="0.275" y1="-0.14375" x2="0.275" y2="0.16875" style="stroke:rgb(246,147,147);stroke-width:0.01" />
<line x1="-0.1" y1="-0.14375" x2="0.0875" y2="0.04375" style="stroke:rgb(246,147,147);stroke-width:0.01" />
<line x1="-0.1" y1="-0.01875" x2="0.0875" y2="0.16875" style="stroke:rgb(246,147,147);stroke-width:0.01" />
<line x1="-0.1" y1="0.10625" x2="0.0875" y2="0.29375" style="stroke:rgb(246,147,147);stroke-width:0.01" />
<line x1="-0.0375" y1="-0.20625" x2="0.0875" y2="-0.20625" style="stroke:rgb(246,147,147);stroke-width:0.01" />
<line x1="0.0875" y1="-0.33125" x2="-0.1" y2="-0.14375" style="stroke:rgb(246,147,147);stroke-width:0.01" />
<line x1="0.0875" y1="-0.20625" x2="-0.1" y2="-0.01875" style="stroke:rgb(246,147,147);stroke-width:0.01" />
<line x1="0.0875" y1="-0.08125" x2="-0.1" y2="0.10625" style="stroke:rgb(246,147,147);stroke-width:0.01" />
<line x1="0.275" y1="-0.14375" x2="0.0875" y2="0.04375" style="stroke:rgb(246,147,147);stroke-width:0.01" />
<line x1="-0.2875" y1="0.04375" x2="0.275" y2="0.04375" style="stroke:rgb(246,147,147);stroke-width:0.01" />
<line x1="0.275" y1="-0.01875" x2="0.0875" y2="0.16875" style="stroke:rgb(246,147,147);stroke-width:0.01" />
<line x1="0.275" y1="0.10625" x2="0.0875" y2="0.29375" style="stroke:rgb(246,147,147);stroke-width:0.01" />
<line x1="-0.1" y1="0.16875" x2="0.275" y2="0.16875" style="stroke:rgb(246,147,147);stroke-width:0.01" />
</g>
</svg>
