<svg xmlns="http://www.w3.org/2000/svg" viewBox="-1.5 -1.5 3 3">
<path d="M-0.055172 -0.315709 L0.101916 -0.311877 L0.331801 -0.070498 L-0.060920 -0.080077 L-0.064751 0.077011 L0.327969 0.086590 L0.086590 0.316475 L-0.070498 0.312644 L-0.300383 0.071264 L-0.296552 -0.085824 z " fill="rgb(245,195,195)" />
<path d="M-0.878927 -0.430651 L0.121073 -0.430651 L0.121073 0.569349 L-0.878927 0.569349  z" fill="none" stroke="rgb(128,128,128)" stroke-width="0.01" />
<line x1="0.101916" y1="-0.311877" x2="0.331801" y2="-0.0704981" style="stroke:rgb(246,147,147);stroke-width:0.01" />
<line x1="-0.216092" y1="-0.162452" x2="-0.0628352" y2="-0.00153257" style="stroke:rgb(246,147,147);stroke-width:0.01" />
<line x1="-0.143295" y1="0.0750958" x2="0.08659" y2="0.316475" style="stroke:rgb(246,147,147);stroke-width:0.01" />
<line x1="-0.300383" y1="0.0712644" x2="-0.0704981" y2="0.312644" style="stroke:rgb(246,147,147);stroke-width:0.01" />
<line x1="-0.296552" y1="-0.0858238" x2="-0.300383" y2="0.0712644" style="stroke:rgb(246,147,147);stroke-width:0.01" />
<line x1="-0.0551724" y1="-0.315709" x2="-0.0704981" y2="0.312644" style="stroke:rgb(246,147,147);stroke-width:0.01" />
<line x1="-0.0551724" y1="-0.315709" x2="0.101916" y2="-0.311877" style="stroke:rgb(246,147,147);stroke-width:0.01" />
<line x1="-0.296552" y1="-0.0858238" x2="0.331801" y2="-0.0704981" style="stroke:rgb(246,147,147);stroke-width:0.01" />
<line x1="-0.0551724" y1="-0.315709" x2="-0.296552" y2="-0.0858238" style="stroke:rgb(246,147,147);stroke-width:0.01" />
<line x1="-0.300383" y1="0.0712644" x2="0.327969" y2="0.08659" style="stroke:rgb(246,147,147);stroke-width:0.01" />
<line x1="0.101916" y1="-0.311877" x2="-0.139464" y2="-0.0819923" style="stroke:rgb(246,147,147);stroke-width:0.01" />
<line x1="-0.0628352" y1="-0.00153257" x2="-0.223755" y2="0.151724" style="stroke:rgb(246,147,147);stroke-width:0.01" />
<line x1="-0.0704981" y1="0.312644" x2="0.08659" y2="0.316475" style="stroke:rgb(246,147,147);stroke-width:0.01" />
<line x1="0.327969" y1="0.08659" x2="0.08659" y2="0.316475" style="stroke:rgb(246,147,147);stroke-width:0.01" />
</svg>
