<svg xmlns="http://www.w3.org/2000/svg" viewBox="-1.5 -1.5 3 3">
<g transform="scale(1, -1)">
<path d="M0.823755 0.114943 L0.980843 0.118774 L1.210728 0.360153 L0.818008 0.350575 L0.814176 0.507663 L1.206897 0.517241 L0.965517 0.747126 L0.808429 0.743295 L0.578544 0.501916 L0.582375 0.344828 z " fill="rgb(245,195,195)" />
<path d="M0.000000 0.000000 L1.000000 0.000000 L1.000000 1.000000 L0.000000 1.000000  z" fill="none" stroke="rgb(128,128,128)" stroke-width="0.01" />
<line x1="0.980843" y1="0.118774" x2="1.21073" y2="0.360153" style="stroke:rgb(246,147,147);stroke-width:0.01" />
<line x1="0.662835" y1="0.268199" x2="0.816092" y2="0.429119" style="stroke:rgb(246,147,147);stroke-width:0.01" />
<line x1="0.735632" y1="0.505747" x2="0.965517" y2="0.747126" style="stroke:rgb(246,147,147);stroke-width:0.01" />
<line x1="0.578544" y1="0.501916" x2="0.808429" y2="0.743295" style="stroke:rgb(246,147,147);stroke-width:0.01" />
<line x1="0.582375" y1="0.344828" x2="0.578544" y2="0.501916" style="stroke:rgb(246,147,147);stroke-width:0.01" />
<line x1="0.823755" y1="0.114943" x2="0.808429" y2="0.743295" style="stroke:rgb(246,147,147);stroke-width:0.01" />
<line x1="0.823755" y1="0.114943" x2="0.980843" y2="0.118774" style="stroke:rgb(246,147,147);stroke-width:0.01" />
<line x1="0.582375" y1="0.344828" x2="1.21073" y2="0.360153" style="stroke:rgb(246,147,147);stroke-width:0.01" />
<line x1="0.823755" y1="0.114943" x2="0.582375" y2="0.344828" style="stroke:rgb(246,147,147);stroke-width:0.01" />
<line x1="0.578544" y1="0.501916" x2="1.2069" y2="0.517241" style="stroke:rgb(246,147,147);stroke-width:0.01" />
<line x1="0.980843" y1="0.118774" x2="0.739464" y2="0.348659" style="stroke:rgb(246,147,147);stroke-width:0.01" />
<line x1="0.816092" y1="0.429119" x2="0.655172" y2="0.582375" style="stroke:rgb(246,147,147);stroke-width:0.01" />
<line x1="0.808429" y1="0.743295" x2="0.965517" y2="0.747126" style="stroke:rgb(246,147,147);stroke-width:0.01" />
<line x1="1.2069" y1="0.517241" x2="0.965517" y2="0.747126" style="stroke:rgb(246,147,147);stroke-width:0.01" />
</g>
</svg>
