<svg xmlns="http://www.w3.org/2000/svg" viewBox="-1.5 -1.5 3 3">
<g transform="scale(1, -1)">
<path d="M1.076923 0.411765 L1.115727 0.603844 L1.156131 0.603844 L1.156131 0.803844 L0.156131 0.903844 L0.137529 0.811765 L0.076923 0.811765 L0.076923 0.511765 z " fill="rgb(245,195,195)" />
<path d="M0.000000 0.000000 L1.000000 0.000000 L1.000000 1.000000 L0.000000 1.000000  z" fill="none" stroke="rgb(128,128,128)" stroke-width="0.01" />
<line x1="1.07692" y1="0.411765" x2="1.15613" y2="0.803844" style="stroke:rgb(246,147,147);stroke-width:0.01" />
<line x1="0.0769231" y1="0.511765" x2="0.0769231" y2="0.811765" style="stroke:rgb(246,147,147);stroke-width:0.01" />
<line x1="0.156131" y1="0.603844" x2="0.156131" y2="0.903844" style="stroke:rgb(246,147,147);stroke-width:0.01" />
<line x1="1.07692" y1="0.411765" x2="1.07692" y2="0.811765" style="stroke:rgb(246,147,147);stroke-width:0.01" />
<line x1="1.15613" y1="0.603844" x2="1.15613" y2="0.803844" style="stroke:rgb(246,147,147);stroke-width:0.01" />
<line x1="0.0769231" y1="0.511765" x2="0.156131" y2="0.903844" style="stroke:rgb(246,147,147);stroke-width:0.01" />
<line x1="1.07692" y1="0.411765" x2="0.0769231" y2="0.511765" style="stroke:rgb(246,147,147);stroke-width:0.01" />
<line x1="0.156131" y1="0.603844" x2="1.15613" y2="0.603844" style="stroke:rgb(246,147,147);stroke-width:0.01" />
<line x1="0.0769231" y1="0.811765" x2="1.07692" y2="0.811765" style="stroke:rgb(246,147,147);stroke-width:0.01" />
<line x1="1.15613" y1="0.803844" x2="0.156131" y2="0.903844" style="stroke:rgb(246,147,147);stroke-width:0.01" />
</g>
</svg>
