<svg xmlns="http://www.w3.org/2000/svg" viewBox="-1.5 -1.5 3 3">
<g transform="scale(1, -1)">
<path d="M-0.342393 -0.212906 L0.408159 -0.175378 L0.478150 0.054592 L0.257562 -0.063055 L0.139915 0.157533 L-0.198321 0.260474 L-0.080673 0.039886 L-0.238246 -0.044153 L-0.424153 -0.016994 z " fill="rgb(245,195,195)" />
<path d="M-0.404203 -0.415996 L0.595797 -0.415996 L0.595797 0.584004 L-0.404203 0.584004  z" fill="none" stroke="rgb(128,128,128)" stroke-width="0.01" />
<line x1="0.357702" y1="-0.177901" x2="0.391807" y2="-0.136196" style="stroke:rgb(246,147,147);stroke-width:0.01" />
<line x1="0.332639" y1="-0.179154" x2="0.345797" y2="-0.165996" style="stroke:rgb(246,147,147);stroke-width:0.01" />
<line x1="0.319823" y1="-0.179795" x2="0.34081" y2="-0.128746" style="stroke:rgb(246,147,147);stroke-width:0.01" />
<line x1="0.408159" y1="-0.175378" x2="0.47815" y2="0.054592" style="stroke:rgb(246,147,147);stroke-width:0.01" />
<line x1="0.0328832" y1="-0.194142" x2="0.139915" y2="0.157533" style="stroke:rgb(246,147,147);stroke-width:0.01" />
<line x1="-0.118489" y1="-0.201711" x2="-0.016173" y2="-0.0765948" style="stroke:rgb(246,147,147);stroke-width:0.01" />
<line x1="-0.232125" y1="-0.207392" x2="-0.169165" y2="-0.0542444" style="stroke:rgb(246,147,147);stroke-width:0.01" />
<line x1="0.00959021" y1="-0.195307" x2="0.47815" y2="0.054592" style="stroke:rgb(246,147,147);stroke-width:0.01" />
<line x1="-0.193677" y1="-0.20547" x2="-0.154203" y2="-0.165996" style="stroke:rgb(246,147,147);stroke-width:0.01" />
<line x1="-0.342393" y1="-0.212906" x2="-0.301262" y2="-0.077761" style="stroke:rgb(246,147,147);stroke-width:0.01" />
<line x1="-0.154203" y1="-0.203496" x2="-0.154203" y2="-0.165996" style="stroke:rgb(246,147,147);stroke-width:0.01" />
<line x1="0.345797" y1="-0.178496" x2="0.345797" y2="-0.165996" style="stroke:rgb(246,147,147);stroke-width:0.01" />
<line x1="0.0743247" y1="-0.19207" x2="0.255814" y2="-0.116329" style="stroke:rgb(246,147,147);stroke-width:0.01" />
<line x1="-0.154203" y1="-0.203496" x2="-0.169165" y2="-0.0542444" style="stroke:rgb(246,147,147);stroke-width:0.01" />
<line x1="-0.342393" y1="-0.212906" x2="-0.424153" y2="-0.0169938" style="stroke:rgb(246,147,147);stroke-width:0.01" />
<line x1="0.345797" y1="-0.178496" x2="0.34081" y2="-0.128746" style="stroke:rgb(246,147,147);stroke-width:0.01" />
<line x1="-0.232125" y1="-0.207392" x2="-0.301262" y2="-0.077761" style="stroke:rgb(246,147,147);stroke-width:0.01" />
<line x1="0.0328832" y1="-0.194142" x2="-0.016173" y2="-0.0765948" style="stroke:rgb(246,147,147);stroke-width:0.01" />
<line x1="-0.342393" y1="-0.212906" x2="0.408159" y2="-0.175378" style="stroke:rgb(246,147,147);stroke-width:0.01" />
<line x1="-0.301262" y1="-0.077761" x2="0.139915" y2="0.157533" style="stroke:rgb(246,147,147);stroke-width:0.01" />
<line x1="-0.193677" y1="-0.20547" x2="-0.424153" y2="-0.0169938" style="stroke:rgb(246,147,147);stroke-width:0.01" />
<line x1="0.0369736" y1="-0.180702" x2="-0.198321" y2="0.260474" style="stroke:rgb(246,147,147);stroke-width:0.01" />
<line x1="-0.154203" y1="-0.165996" x2="0.345797" y2="-0.165996" style="stroke:rgb(246,147,147);stroke-width:0.01" />
<line x1="-0.118489" y1="-0.201711" x2="-0.154203" y2="-0.165996" style="stroke:rgb(246,147,147);stroke-width:0.01" />
<line x1="0.408159" y1="-0.175378" x2="0.391807" y2="-0.136196" style="stroke:rgb(246,147,147);stroke-width:0.01" />
<line x1="0.00959021" y1="-0.195307" x2="-0.424153" y2="-0.0169938" style="stroke:rgb(246,147,147);stroke-width:0.01" />
<line x1="0.0743247" y1="-0.19207" x2="-0.301262" y2="-0.077761" style="stroke:rgb(246,147,147);stroke-width:0.01" />
<line x1="0.319823" y1="-0.179795" x2="0.139915" y2="0.157533" style="stroke:rgb(246,147,147);stroke-width:0.01" />
<line x1="0.391807" y1="-0.136196" x2="-0.424153" y2="-0.0169938" style="stroke:rgb(246,147,147);stroke-width:0.01" />
<line x1="0.357702" y1="-0.177901" x2="0.345797" y2="-0.165996" style="stroke:rgb(246,147,147);stroke-width:0.01" />
<line x1="0.332639" y1="-0.179154" x2="0.255814" y2="-0.116329" style="stroke:rgb(246,147,147);stroke-width:0.01" />
<line x1="0.139915" y1="0.157533" x2="-0.198321" y2="0.260474" style="stroke:rgb(246,147,147);stroke-width:0.01" />
</g>
</svg>
