<svg xmlns="http://www.w3.org/2000/svg" viewBox="-1.5 -1.5 3 3">
<g transform="scale(1, -1)">
<path d="M0.800000 -0.600000 L0.950000 -0.400000 L1.150000 -0.550000 L1.500000 -0.500000 L1.300000 -0.350000 L1.450000 -0.150000 L1.400000 0.200000 L1.250000 0.000000 L1.050000 0.150000 L0.700000 0.100000 L0.900000 -0.050000 L0.750000 -0.250000 z " fill="rgb(245,195,195)" />
<path d="M0.000000 0.000000 L1.000000 0.000000 L1.000000 1.000000 L0.000000 1.000000  z" fill="none" stroke="rgb(128,128,128)" stroke-width="0.01" />
<line x1="1.15" y1="-0.55" x2="1.45" y2="-0.15" style="stroke:rgb(246,147,147);stroke-width:0.01" />
<line x1="1.15" y1="-0.55" x2="1.5" y2="-0.5" style="stroke:rgb(246,147,147);stroke-width:0.01" />
<line x1="0.8" y1="-0.6" x2="1.4" y2="0.2" style="stroke:rgb(246,147,147);stroke-width:0.01" />
<line x1="0.75" y1="-0.25" x2="1.05" y2="0.15" style="stroke:rgb(246,147,147);stroke-width:0.01" />
<line x1="0.75" y1="-0.25" x2="1.45" y2="-0.15" style="stroke:rgb(246,147,147);stroke-width:0.01" />
<line x1="0.7" y1="0.1" x2="1.05" y2="0.15" style="stroke:rgb(246,147,147);stroke-width:0.01" />
<line x1="0.8" y1="-0.6" x2="0.75" y2="-0.25" style="stroke:rgb(246,147,147);stroke-width:0.01" />
<line x1="1.15" y1="-0.55" x2="1.05" y2="0.15" style="stroke:rgb(246,147,147);stroke-width:0.01" />
<line x1="1.15" y1="-0.55" x2="0.75" y2="-0.25" style="stroke:rgb(246,147,147);stroke-width:0.01" />
<line x1="1.45" y1="-0.15" x2="1.4" y2="0.2" style="stroke:rgb(246,147,147);stroke-width:0.01" />
<line x1="1.5" y1="-0.5" x2="0.7" y2="0.1" style="stroke:rgb(246,147,147);stroke-width:0.01" />
<line x1="1.45" y1="-0.15" x2="1.05" y2="0.15" style="stroke:rgb(246,147,147);stroke-width:0.01" />
</g>
</svg>
