<svg xmlns="http://www.w3.org/2000/svg" viewBox="-1.5 -1.5 3 3">
<g transform="scale(1, -1)">
<path d="M-0.225000 -0.150000 L0.025000 -0.150000 L0.150000 -0.025000 L0.275000 -0.150000 L0.525000 -0.150000 L0.275000 0.100000 L0.025000 0.100000 L-0.100000 -0.025000 L-0.475000 0.350000 L-0.475000 0.100000 z " fill="rgb(245,195,195)" />
<path d="M-0.475000 -0.650000 L0.525000 -0.650000 L0.525000 0.350000 L-0.475000 0.350000  z" fill="none" stroke="rgb(128,128,128)" stroke-width="0.01" />
<line x1="0.025" y1="-0.15" x2="0.275" y2="0.1" style="stroke:rgb(246,147,147);stroke-width:0.01" />
<line x1="-0.475" y1="0.1" x2="-0.475" y2="0.35" style="stroke:rgb(246,147,147);stroke-width:0.01" />
<line x1="-0.225" y1="-0.15" x2="-0.225" y2="0.1" style="stroke:rgb(246,147,147);stroke-width:0.01" />
<line x1="0.025" y1="-0.15" x2="0.025" y2="0.1" style="stroke:rgb(246,147,147);stroke-width:0.01" />
<line x1="0.275" y1="-0.15" x2="0.275" y2="0.1" style="stroke:rgb(246,147,147);stroke-width:0.01" />
<line x1="-0.225" y1="-0.15" x2="0.025" y2="0.1" style="stroke:rgb(246,147,147);stroke-width:0.01" />
<line x1="-0.225" y1="-0.15" x2="-0.475" y2="0.1" style="stroke:rgb(246,147,147);stroke-width:0.01" />
<line x1="-0.225" y1="-0.15" x2="0.025" y2="-0.15" style="stroke:rgb(246,147,147);stroke-width:0.01" />
<line x1="0.275" y1="-0.15" x2="0.525" y2="-0.15" style="stroke:rgb(246,147,147);stroke-width:0.01" />
<line x1="0.025" y1="-0.15" x2="-0.475" y2="0.35" style="stroke:rgb(246,147,147);stroke-width:0.01" />
<line x1="0.275" y1="-0.15" x2="0.025" y2="0.1" style="stroke:rgb(246,147,147);stroke-width:0.01" />
<line x1="-0.475" y1="0.1" x2="-0.225" y2="0.1" style="stroke:rgb(246,147,147);stroke-width:0.01" />
<line x1="0.025" y1="0.1" x2="0.275" y2="0.1" style="stroke:rgb(246,147,147);stroke-width:0.01" />
<line x1="0.525" y1="-0.15" x2="0.275" y2="0.1" style="stroke:rgb(246,147,147);stroke-width:0.01" />
</g>
</svg>
