<svg xmlns="http://www.w3.org/2000/svg" viewBox="-1.5 -1.5 3 3">
<g transform="scale(1, -1)">
<path d="M0.186064 -0.211211 L0.206051 -0.210645 L0.200178 -0.003435 L0.218595 0.267691 L0.192430 0.269938 L0.191486 0.303250 L-0.321129 0.367562 L-0.439819 -0.021909 L-0.199226 -0.099949 L-0.197943 -0.139950 L-0.086889 -0.136388 L-0.085013 -0.123148 L0.058163 -0.164001 L0.077051 -0.097805 z " fill="rgb(245,195,195)" />
<path d="M538924663.812165 -2847372860.656142 L538924664.812165 -2847372860.656142 L538924664.812165 -2847372859.656142 L538924663.812165 -2847372859.656142  z" fill="none" stroke="rgb(128,128,128)" stroke-width="0.01" />
<line x1="-0.318646" y1="0.313834" x2="-0.321129" y2="0.367562" style="stroke:rgb(246,147,147);stroke-width:0.01" />
<line x1="-0.197943" y1="-0.13995" x2="-0.213788" y2="0.354095" style="stroke:rgb(246,147,147);stroke-width:0.01" />
<line x1="0.206051" y1="-0.210645" x2="0.191486" y2="0.30325" style="stroke:rgb(246,147,147);stroke-width:0.01" />
<line x1="0.196449" y1="0.0545525" x2="0.142175" y2="0.274254" style="stroke:rgb(246,147,147);stroke-width:0.01" />
<line x1="0.186064" y1="-0.211211" x2="0.218595" y2="0.267691" style="stroke:rgb(246,147,147);stroke-width:0.01" />
<line x1="0.196449" y1="0.0545525" x2="0.218595" y2="0.267691" style="stroke:rgb(246,147,147);stroke-width:0.01" />
<line x1="-0.0527711" y1="0.0372472" x2="-0.0208014" y2="0.329883" style="stroke:rgb(246,147,147);stroke-width:0.01" />
<line x1="-0.0868895" y1="-0.136388" x2="-0.0208014" y2="0.329883" style="stroke:rgb(246,147,147);stroke-width:0.01" />
<line x1="0.058163" y1="-0.164001" x2="0.191486" y2="0.30325" style="stroke:rgb(246,147,147);stroke-width:0.01" />
<line x1="-0.247005" y1="0.239307" x2="-0.213788" y2="0.354095" style="stroke:rgb(246,147,147);stroke-width:0.01" />
<line x1="-0.439819" y1="-0.021909" x2="-0.321129" y2="0.367562" style="stroke:rgb(246,147,147);stroke-width:0.01" />
<line x1="0.118301" y1="0.219855" x2="0.142175" y2="0.274254" style="stroke:rgb(246,147,147);stroke-width:0.01" />
<line x1="0.186064" y1="-0.211211" x2="-0.318646" y2="0.313834" style="stroke:rgb(246,147,147);stroke-width:0.01" />
<line x1="0.118301" y1="0.219855" x2="-0.0416312" y2="0.290041" style="stroke:rgb(246,147,147);stroke-width:0.01" />
<line x1="-0.0868895" y1="-0.136388" x2="-0.439819" y2="-0.021909" style="stroke:rgb(246,147,147);stroke-width:0.01" />
<line x1="0.058163" y1="-0.164001" x2="-0.439819" y2="-0.021909" style="stroke:rgb(246,147,147);stroke-width:0.01" />
<line x1="0.191486" y1="0.30325" x2="-0.321129" y2="0.367562" style="stroke:rgb(246,147,147);stroke-width:0.01" />
<line x1="0.218595" y1="0.267691" x2="-0.318646" y2="0.313834" style="stroke:rgb(246,147,147);stroke-width:0.01" />
<line x1="-0.247005" y1="0.239307" x2="-0.0416312" y2="0.290041" style="stroke:rgb(246,147,147);stroke-width:0.01" />
<line x1="0.186064" y1="-0.211211" x2="0.206051" y2="-0.210645" style="stroke:rgb(246,147,147);stroke-width:0.01" />
<line x1="-0.197943" y1="-0.13995" x2="-0.0868895" y2="-0.136388" style="stroke:rgb(246,147,147);stroke-width:0.01" />
<line x1="-0.0527711" y1="0.0372472" x2="0.196449" y2="0.0545525" style="stroke:rgb(246,147,147);stroke-width:0.01" />
</g>
</svg>
