<svg xmlns="http://www.w3.org/2000/svg" viewBox="-1.5 -1.5 3 3">
<g transform="scale(1, -1)">
<path d="M-538924663.626100 2847372860.444931 L-538924663.606114 2847372860.445498 L-538924663.611986 2847372860.652708 L-538924663.593569 2847372860.923833 L-538924663.619734 2847372860.926080 L-538924663.620678 2847372860.959392 L-538924664.133294 2847372861.023705 L-538924664.251984 2847372860.634233 L-538924664.011391 2847372860.556193 L-538924664.010108 2847372860.516192 L-538924663.899054 2847372860.519754 L-538924663.897178 2847372860.532995 L-538924663.754002 2847372860.492141 L-538924663.735114 2847372860.558337 z " fill="rgb(245,195,195)" />
<path d="M0.000000 0.000000 L1.000000 0.000000 L1.000000 1.000000 L0.000000 1.000000  z" fill="none" stroke="rgb(128,128,128)" stroke-width="0.01" />
<line x1="-5.38925e+08" y1="2.84737e+09" x2="-5.38925e+08" y2="2.84737e+09" style="stroke:rgb(246,147,147);stroke-width:0.01" />
<line x1="-5.38925e+08" y1="2.84737e+09" x2="-5.38925e+08" y2="2.84737e+09" style="stroke:rgb(246,147,147);stroke-width:0.01" />
<line x1="-5.38925e+08" y1="2.84737e+09" x2="-5.38925e+08" y2="2.84737e+09" style="stroke:rgb(246,147,147);stroke-width:0.01" />
<line x1="-5.38925e+08" y1="2.84737e+09" x2="-5.38925e+08" y2="2.84737e+09" style="stroke:rgb(246,147,147);stroke-width:0.01" />
<line x1="-5.38925e+08" y1="2.84737e+09" x2="-5.38925e+08" y2="2.84737e+09" style="stroke:rgb(246,147,147);stroke-width:0.01" />
<line x1="-5.38925e+08" y1="2.84737e+09" x2="-5.38925e+08" y2="2.84737e+09" style="stroke:rgb(246,147,147);stroke-width:0.01" />
<line x1="-5.38925e+08" y1="2.84737e+09" x2="-5.38925e+08" y2="2.84737e+09" style="stroke:rgb(246,147,147);stroke-width:0.01" />
<line x1="-5.38925e+08" y1="2.84737e+09" x2="-5.38925e+08" y2="2.84737e+09" style="stroke:rgb(246,147,147);stroke-width:0.01" />
<line x1="-5.38925e+08" y1="2.84737e+09" x2="-5.38925e+08" y2="2.84737e+09" style="stroke:rgb(246,147,147);stroke-width:0.01" />
<line x1="-5.38925e+08" y1="2.84737e+09" x2="-5.38925e+08" y2="2.84737e+09" style="stroke:rgb(246,147,147);stroke-width:0.01" />
<line x1="-5.38925e+08" y1="2.84737e+09" x2="-5.38925e+08" y2="2.84737e+09" style="stroke:rgb(246,147,147);stroke-width:0.01" />
<line x1="-5.38925e+08" y1="2.84737e+09" x2="-5.38925e+08" y2="2.84737e+09" style="stroke:rgb(246,147,147);stroke-width:0.01" />
<line x1="-5.38925e+08" y1="2.84737e+09" x2="-5.38925e+08" y2="2.84737e+09" style="stroke:rgb(246,147,147);stroke-width:0.01" />
<line x1="-5.38925e+08" y1="2.84737e+09" x2="-5.38925e+08" y2="2.84737e+09" style="stroke:rgb(246,147,147);stroke-width:0.01" />
<line x1="-5.38925e+08" y1="2.84737e+09" x2="-5.38925e+08" y2="2.84737e+09" style="stroke:rgb(246,147,147);stroke-width:0.01" />
<line x1="-5.38925e+08" y1="2.84737e+09" x2="-5.38925e+08" y2="2.84737e+09" style="stroke:rgb(246,147,147);stroke-width:0.01" />
<line x1="-5.38925e+08" y1="2.84737e+09" x2="-5.38925e+08" y2="2.84737e+09" style="stroke:rgb(246,147,147);stroke-width:0.01" />
<line x1="-5.38925e+08" y1="2.84737e+09" x2="-5.38925e+08" y2="2.84737e+09" style="stroke:rgb(246,147,147);stroke-width:0.01" />
<line x1="-5.38925e+08" y1="2.84737e+09" x2="-5.38925e+08" y2="2.84737e+09" style="stroke:rgb(246,147,147);stroke-width:0.01" />
<line x1="-5.38925e+08" y1="2.84737e+09" x2="-5.38925e+08" y2="2.84737e+09" style="stroke:rgb(246,147,147);stroke-width:0.01" />
<line x1="-5.38925e+08" y1="2.84737e+09" x2="-5.38925e+08" y2="2.84737e+09" style="stroke:rgb(246,147,147);stroke-width:0.01" />
<line x1="-5.38925e+08" y1="2.84737e+09" x2="-5.38925e+08" y2="2.84737e+09" style="stroke:rgb(246,147,147);stroke-width:0.01" />
</g>
</svg>
