<svg xmlns="http://www.w3.org/2000/svg" viewBox="-1.5 -1.5 3 3">
<g transform="scale(1, -1)">
<path d="M-0.063697 -0.244449 L-0.029214 -0.208242 L0.010412 -0.238733 L0.282377 0.114711 L0.227559 0.242620 L0.031130 0.242620 L-0.114703 0.096787 L-0.120185 -0.007380 L-0.093870 -0.010158 L-0.093870 -0.036547 L-0.043389 -0.041875 L-0.154214 -0.158242 z M0.031130 0.036370 L0.031130 0.104462 L0.099402 0.108055 z " fill="rgb(245,195,195)" />
<path d="M-0.093870 -0.007380 L0.906130 -0.007380 L0.906130 0.992620 L-0.093870 0.992620  z" fill="none" stroke="rgb(128,128,128)" stroke-width="0.01" />
<line x1="0.0104122" y1="-0.238733" x2="0.282377" y2="0.114711" style="stroke:rgb(246,147,147);stroke-width:0.01" />
<line x1="-0.0636971" y1="-0.244449" x2="0.28113" y2="0.11762" style="stroke:rgb(246,147,147);stroke-width:0.01" />
<line x1="-0.0827534" y1="-0.2263" x2="0.28113" y2="0.11762" style="stroke:rgb(246,147,147);stroke-width:0.01" />
<line x1="-0.0474136" y1="-0.227351" x2="-0.14703" y2="-0.150699" style="stroke:rgb(246,147,147);stroke-width:0.01" />
<line x1="-0.0636971" y1="-0.244449" x2="-0.154214" y2="-0.158242" style="stroke:rgb(246,147,147);stroke-width:0.01" />
<line x1="0.0104122" y1="-0.238733" x2="-0.128831" y2="-0.13159" style="stroke:rgb(246,147,147);stroke-width:0.01" />
<line x1="-0.0827534" y1="-0.2263" x2="-0.14703" y2="-0.150699" style="stroke:rgb(246,147,147);stroke-width:0.01" />
<line x1="-0.0474136" y1="-0.227351" x2="-0.128831" y2="-0.13159" style="stroke:rgb(246,147,147);stroke-width:0.01" />
<line x1="-0.0386209" y1="-0.0571037" x2="0.0311304" y2="-0.049741" style="stroke:rgb(246,147,147);stroke-width:0.01" />
<line x1="-0.154214" y1="-0.158242" x2="0.227559" y2="0.24262" style="stroke:rgb(246,147,147);stroke-width:0.01" />
<line x1="0.0311304" y1="-0.049741" x2="-0.0938696" y2="-0.0365466" style="stroke:rgb(246,147,147);stroke-width:0.01" />
<line x1="-0.0938696" y1="-0.0365466" x2="0.0311304" y2="-0.0233521" style="stroke:rgb(246,147,147);stroke-width:0.01" />
<line x1="0.0311304" y1="-0.0233521" x2="-0.120185" y2="-0.00737989" style="stroke:rgb(246,147,147);stroke-width:0.01" />
<line x1="-0.120185" y1="-0.00737989" x2="0.0311304" y2="-0.00737989" style="stroke:rgb(246,147,147);stroke-width:0.01" />
<line x1="-0.0938696" y1="-0.0365466" x2="-0.0938696" y2="0.11762" style="stroke:rgb(246,147,147);stroke-width:0.01" />
<line x1="0.0311304" y1="-0.049741" x2="0.0311304" y2="0.24262" style="stroke:rgb(246,147,147);stroke-width:0.01" />
<line x1="-0.120185" y1="-0.00737989" x2="-0.114703" y2="0.0967868" style="stroke:rgb(246,147,147);stroke-width:0.01" />
<line x1="-0.0386209" y1="-0.0571037" x2="-0.0605781" y2="0.150912" style="stroke:rgb(246,147,147);stroke-width:0.01" />
<line x1="-0.114703" y1="0.0967868" x2="0.0311304" y2="0.24262" style="stroke:rgb(246,147,147);stroke-width:0.01" />
<line x1="-0.114703" y1="0.0967868" x2="0.28113" y2="0.11762" style="stroke:rgb(246,147,147);stroke-width:0.01" />
<line x1="-0.0938696" y1="0.11762" x2="0.28113" y2="0.11762" style="stroke:rgb(246,147,147);stroke-width:0.01" />
<line x1="0.282377" y1="0.114711" x2="0.227559" y2="0.24262" style="stroke:rgb(246,147,147);stroke-width:0.01" />
<line x1="0.282377" y1="0.114711" x2="-0.0605781" y2="0.150912" style="stroke:rgb(246,147,147);stroke-width:0.01" />
<line x1="0.0311304" y1="0.24262" x2="0.227559" y2="0.24262" style="stroke:rgb(246,147,147);stroke-width:0.01" />
</g>
</svg>
