<svg xmlns="http://www.w3.org/2000/svg" viewBox="-1.5 -1.5 3 3">
<g transform="scale(1, -1)">
<path d="M0.030172 -0.237069 L0.064655 -0.200862 L0.104282 -0.231354 L0.376247 0.122091 L0.321429 0.250000 L0.125000 0.250000 L-0.020833 0.104167 L-0.026316 0.000000 L0.000000 -0.002778 L0.000000 -0.029167 L0.050481 -0.034495 L-0.060345 -0.150862 z M0.125000 0.043750 L0.125000 0.111842 L0.193272 0.115435 z " fill="rgb(245,195,195)" />
<path d="M0.000000 0.000000 L1.000000 0.000000 L1.000000 1.000000 L0.000000 1.000000  z" fill="none" stroke="rgb(128,128,128)" stroke-width="0.01" />
<line x1="0.104282" y1="-0.231354" x2="0.376247" y2="0.122091" style="stroke:rgb(246,147,147);stroke-width:0.01" />
<line x1="0.0301724" y1="-0.237069" x2="0.375" y2="0.125" style="stroke:rgb(246,147,147);stroke-width:0.01" />
<line x1="0.0111162" y1="-0.21892" x2="0.375" y2="0.125" style="stroke:rgb(246,147,147);stroke-width:0.01" />
<line x1="0.0464559" y1="-0.219971" x2="-0.0531609" y2="-0.143319" style="stroke:rgb(246,147,147);stroke-width:0.01" />
<line x1="0.0301724" y1="-0.237069" x2="-0.0603448" y2="-0.150862" style="stroke:rgb(246,147,147);stroke-width:0.01" />
<line x1="0.104282" y1="-0.231354" x2="-0.0349617" y2="-0.12421" style="stroke:rgb(246,147,147);stroke-width:0.01" />
<line x1="0.0111162" y1="-0.21892" x2="-0.0531609" y2="-0.143319" style="stroke:rgb(246,147,147);stroke-width:0.01" />
<line x1="0.0464559" y1="-0.219971" x2="-0.0349617" y2="-0.12421" style="stroke:rgb(246,147,147);stroke-width:0.01" />
<line x1="0.0552486" y1="-0.0497238" x2="0.125" y2="-0.0423611" style="stroke:rgb(246,147,147);stroke-width:0.01" />
<line x1="-0.0603448" y1="-0.150862" x2="0.321429" y2="0.25" style="stroke:rgb(246,147,147);stroke-width:0.01" />
<line x1="0.125" y1="-0.0423611" x2="0" y2="-0.0291667" style="stroke:rgb(246,147,147);stroke-width:0.01" />
<line x1="0" y1="-0.0291667" x2="0.125" y2="-0.0159722" style="stroke:rgb(246,147,147);stroke-width:0.01" />
<line x1="0.125" y1="-0.0159722" x2="-0.0263158" y2="0" style="stroke:rgb(246,147,147);stroke-width:0.01" />
<line x1="-0.0263158" y1="0" x2="0.125" y2="0" style="stroke:rgb(246,147,147);stroke-width:0.01" />
<line x1="0" y1="-0.0291667" x2="0" y2="0.125" style="stroke:rgb(246,147,147);stroke-width:0.01" />
<line x1="0.125" y1="-0.0423611" x2="0.125" y2="0.25" style="stroke:rgb(246,147,147);stroke-width:0.01" />
<line x1="-0.0263158" y1="0" x2="-0.0208333" y2="0.104167" style="stroke:rgb(246,147,147);stroke-width:0.01" />
<line x1="0.0552486" y1="-0.0497238" x2="0.0332915" y2="0.158291" style="stroke:rgb(246,147,147);stroke-width:0.01" />
<line x1="-0.0208333" y1="0.104167" x2="0.125" y2="0.25" style="stroke:rgb(246,147,147);stroke-width:0.01" />
<line x1="-0.0208333" y1="0.104167" x2="0.375" y2="0.125" style="stroke:rgb(246,147,147);stroke-width:0.01" />
<line x1="0" y1="0.125" x2="0.375" y2="0.125" style="stroke:rgb(246,147,147);stroke-width:0.01" />
<line x1="0.376247" y1="0.122091" x2="0.321429" y2="0.25" style="stroke:rgb(246,147,147);stroke-width:0.01" />
<line x1="0.376247" y1="0.122091" x2="0.0332915" y2="0.158291" style="stroke:rgb(246,147,147);stroke-width:0.01" />
<line x1="0.125" y1="0.25" x2="0.321429" y2="0.25" style="stroke:rgb(246,147,147);stroke-width:0.01" />
</g>
</svg>
