<svg xmlns="http://www.w3.org/2000/svg" viewBox="-1.5 -1.5 3 3">
<g transform="scale(1, -1)">
<path d="M0.684615 0.176923 L1.026923 0.265385 L1.153846 0.480769 L1.369231 0.353846 L1.280769 0.696154 L1.065385 0.823077 L1.192308 1.038462 L0.850000 0.950000 L0.723077 0.734615 L0.507692 0.861538 L0.596154 0.519231 L0.811538 0.392308 z " fill="rgb(245,195,195)" />
<path d="M0.000000 0.000000 L1.000000 0.000000 L1.000000 1.000000 L0.000000 1.000000  z" fill="none" stroke="rgb(128,128,128)" stroke-width="0.01" />
<line x1="1.02692" y1="0.265385" x2="1.28077" y2="0.696154" style="stroke:rgb(246,147,147);stroke-width:0.01" />
<line x1="0.684615" y1="0.176923" x2="1.19231" y2="1.03846" style="stroke:rgb(246,147,147);stroke-width:0.01" />
<line x1="0.596154" y1="0.519231" x2="0.85" y2="0.95" style="stroke:rgb(246,147,147);stroke-width:0.01" />
<line x1="0.684615" y1="0.176923" x2="1.02692" y2="0.265385" style="stroke:rgb(246,147,147);stroke-width:0.01" />
<line x1="0.596154" y1="0.519231" x2="0.507692" y2="0.861538" style="stroke:rgb(246,147,147);stroke-width:0.01" />
<line x1="1.02692" y1="0.265385" x2="0.85" y2="0.95" style="stroke:rgb(246,147,147);stroke-width:0.01" />
<line x1="0.596154" y1="0.519231" x2="1.28077" y2="0.696154" style="stroke:rgb(246,147,147);stroke-width:0.01" />
<line x1="1.36923" y1="0.353846" x2="1.28077" y2="0.696154" style="stroke:rgb(246,147,147);stroke-width:0.01" />
<line x1="1.02692" y1="0.265385" x2="0.596154" y2="0.519231" style="stroke:rgb(246,147,147);stroke-width:0.01" />
<line x1="0.85" y1="0.95" x2="1.19231" y2="1.03846" style="stroke:rgb(246,147,147);stroke-width:0.01" />
<line x1="1.36923" y1="0.353846" x2="0.507692" y2="0.861538" style="stroke:rgb(246,147,147);stroke-width:0.01" />
<line x1="1.28077" y1="0.696154" x2="0.85" y2="0.95" style="stroke:rgb(246,147,147);stroke-width:0.01" />
</g>
</svg>
