<svg xmlns="http://www.w3.org/2000/svg" viewBox="-1.5 -1.5 3 3">
<g transform="scale(1, -1)">
<path d="M0.861538 -0.507692 L0.988462 -0.292308 L1.203846 -0.419231 L1.546154 -0.330769 L1.330769 -0.203846 L1.457692 0.011538 L1.369231 0.353846 L1.242308 0.138462 L1.026923 0.265385 L0.684615 0.176923 L0.900000 0.050000 L0.773077 -0.165385 z " fill="rgb(245,195,195)" />
<path d="M0.000000 0.000000 L1.000000 0.000000 L1.000000 1.000000 L0.000000 1.000000  z" fill="none" stroke="rgb(128,128,128)" stroke-width="0.01" />
<line x1="1.20385" y1="-0.419231" x2="1.54615" y2="-0.330769" style="stroke:rgb(246,147,147);stroke-width:0.01" />
<line x1="1.20385" y1="-0.419231" x2="1.45769" y2="0.0115385" style="stroke:rgb(246,147,147);stroke-width:0.01" />
<line x1="0.861538" y1="-0.507692" x2="1.36923" y2="0.353846" style="stroke:rgb(246,147,147);stroke-width:0.01" />
<line x1="0.773077" y1="-0.165385" x2="1.02692" y2="0.265385" style="stroke:rgb(246,147,147);stroke-width:0.01" />
<line x1="0.773077" y1="-0.165385" x2="1.45769" y2="0.0115385" style="stroke:rgb(246,147,147);stroke-width:0.01" />
<line x1="0.684615" y1="0.176923" x2="1.02692" y2="0.265385" style="stroke:rgb(246,147,147);stroke-width:0.01" />
<line x1="0.861538" y1="-0.507692" x2="0.773077" y2="-0.165385" style="stroke:rgb(246,147,147);stroke-width:0.01" />
<line x1="1.20385" y1="-0.419231" x2="0.773077" y2="-0.165385" style="stroke:rgb(246,147,147);stroke-width:0.01" />
<line x1="1.20385" y1="-0.419231" x2="1.02692" y2="0.265385" style="stroke:rgb(246,147,147);stroke-width:0.01" />
<line x1="1.45769" y1="0.0115385" x2="1.36923" y2="0.353846" style="stroke:rgb(246,147,147);stroke-width:0.01" />
<line x1="1.54615" y1="-0.330769" x2="0.684615" y2="0.176923" style="stroke:rgb(246,147,147);stroke-width:0.01" />
<line x1="1.45769" y1="0.0115385" x2="1.02692" y2="0.265385" style="stroke:rgb(246,147,147);stroke-width:0.01" />
</g>
</svg>
