<svg xmlns="http://www.w3.org/2000/svg" viewBox="-1.5 -1.5 3 3">
<g transform="scale(1, -1)">
<path d="M0.269231 0.653846 L0.403846 0.980769 L0.307692 1.211538 L0.538462 1.307692 L0.211538 1.442308 L-0.019231 1.346154 L-0.115385 1.576923 L-0.250000 1.250000 L-0.153846 1.019231 L-0.384615 0.923077 L-0.057692 0.788462 L0.173077 0.884615 z " fill="rgb(245,195,195)" />
<path d="M0.000000 0.000000 L1.000000 0.000000 L1.000000 1.000000 L0.000000 1.000000  z" fill="none" stroke="rgb(128,128,128)" stroke-width="0.01" />
<line x1="0.269231" y1="0.653846" x2="0.403846" y2="0.980769" style="stroke:rgb(246,147,147);stroke-width:0.01" />
<line x1="-0.0576923" y1="0.788462" x2="-0.25" y2="1.25" style="stroke:rgb(246,147,147);stroke-width:0.01" />
<line x1="-0.0576923" y1="0.788462" x2="0.211538" y2="1.44231" style="stroke:rgb(246,147,147);stroke-width:0.01" />
<line x1="0.269231" y1="0.653846" x2="-0.115385" y2="1.57692" style="stroke:rgb(246,147,147);stroke-width:0.01" />
<line x1="-0.25" y1="1.25" x2="-0.115385" y2="1.57692" style="stroke:rgb(246,147,147);stroke-width:0.01" />
<line x1="0.403846" y1="0.980769" x2="0.211538" y2="1.44231" style="stroke:rgb(246,147,147);stroke-width:0.01" />
<line x1="-0.0576923" y1="0.788462" x2="-0.384615" y2="0.923077" style="stroke:rgb(246,147,147);stroke-width:0.01" />
<line x1="-0.0576923" y1="0.788462" x2="0.403846" y2="0.980769" style="stroke:rgb(246,147,147);stroke-width:0.01" />
<line x1="-0.384615" y1="0.923077" x2="0.538462" y2="1.30769" style="stroke:rgb(246,147,147);stroke-width:0.01" />
<line x1="0.403846" y1="0.980769" x2="-0.25" y2="1.25" style="stroke:rgb(246,147,147);stroke-width:0.01" />
<line x1="-0.25" y1="1.25" x2="0.211538" y2="1.44231" style="stroke:rgb(246,147,147);stroke-width:0.01" />
<line x1="0.538462" y1="1.30769" x2="0.211538" y2="1.44231" style="stroke:rgb(246,147,147);stroke-width:0.01" />
</g>
</svg>
