<svg xmlns="http://www.w3.org/2000/svg" viewBox="-1.5 -1.5 3 3">
<g transform="scale(1, -1)">
<path d="M-0.800000 0.600000 L-0.450000 0.650000 L-0.300000 0.850000 L-0.100000 0.700000 L-0.150000 1.050000 L-0.350000 1.200000 L-0.200000 1.400000 L-0.550000 1.350000 L-0.700000 1.150000 L-0.900000 1.300000 L-0.850000 0.950000 L-0.650000 0.800000 z " fill="rgb(245,195,195)" />
<path d="M0.000000 0.000000 L1.000000 0.000000 L1.000000 1.000000 L0.000000 1.000000  z" fill="none" stroke="rgb(128,128,128)" stroke-width="0.01" />
<line x1="-0.85" y1="0.95" x2="-0.9" y2="1.3" style="stroke:rgb(246,147,147);stroke-width:0.01" />
<line x1="-0.45" y1="0.65" x2="-0.55" y2="1.35" style="stroke:rgb(246,147,147);stroke-width:0.01" />
<line x1="-0.1" y1="0.7" x2="-0.15" y2="1.05" style="stroke:rgb(246,147,147);stroke-width:0.01" />
<line x1="-0.45" y1="0.65" x2="-0.85" y2="0.95" style="stroke:rgb(246,147,147);stroke-width:0.01" />
<line x1="-0.1" y1="0.7" x2="-0.9" y2="1.3" style="stroke:rgb(246,147,147);stroke-width:0.01" />
<line x1="-0.45" y1="0.65" x2="-0.15" y2="1.05" style="stroke:rgb(246,147,147);stroke-width:0.01" />
<line x1="-0.8" y1="0.6" x2="-0.2" y2="1.4" style="stroke:rgb(246,147,147);stroke-width:0.01" />
<line x1="-0.15" y1="1.05" x2="-0.55" y2="1.35" style="stroke:rgb(246,147,147);stroke-width:0.01" />
<line x1="-0.8" y1="0.6" x2="-0.45" y2="0.65" style="stroke:rgb(246,147,147);stroke-width:0.01" />
<line x1="-0.85" y1="0.95" x2="-0.55" y2="1.35" style="stroke:rgb(246,147,147);stroke-width:0.01" />
<line x1="-0.85" y1="0.95" x2="-0.15" y2="1.05" style="stroke:rgb(246,147,147);stroke-width:0.01" />
<line x1="-0.55" y1="1.35" x2="-0.2" y2="1.4" style="stroke:rgb(246,147,147);stroke-width:0.01" />
</g>
</svg>
