<svg xmlns="http://www.w3.org/2000/svg" viewBox="-1.5 -1.5 3 3">
<g transform="scale(1, -1)">
<path d="M0.707101 0.002959 L1.060651 0.004438 L1.236686 0.181953 L1.414201 0.005917 L1.412722 0.359467 L1.235207 0.535503 L1.411243 0.713018 L1.057692 0.711538 L0.881657 0.534024 L0.704142 0.710059 L0.705621 0.356509 L0.883136 0.180473 z " fill="rgb(245,195,195)" />
<path d="M0.000000 0.000000 L1.000000 0.000000 L1.000000 1.000000 L0.000000 1.000000  z" fill="none" stroke="rgb(128,128,128)" stroke-width="0.01" />
<line x1="1.06065" y1="0.00443787" x2="1.41272" y2="0.359467" style="stroke:rgb(246,147,147);stroke-width:0.01" />
<line x1="0.707101" y1="0.00295858" x2="1.41124" y2="0.713018" style="stroke:rgb(246,147,147);stroke-width:0.01" />
<line x1="0.705621" y1="0.356509" x2="1.05769" y2="0.711538" style="stroke:rgb(246,147,147);stroke-width:0.01" />
<line x1="0.707101" y1="0.00295858" x2="1.06065" y2="0.00443787" style="stroke:rgb(246,147,147);stroke-width:0.01" />
<line x1="0.705621" y1="0.356509" x2="0.704142" y2="0.710059" style="stroke:rgb(246,147,147);stroke-width:0.01" />
<line x1="1.06065" y1="0.00443787" x2="1.05769" y2="0.711538" style="stroke:rgb(246,147,147);stroke-width:0.01" />
<line x1="1.4142" y1="0.00591716" x2="1.41272" y2="0.359467" style="stroke:rgb(246,147,147);stroke-width:0.01" />
<line x1="0.705621" y1="0.356509" x2="1.41272" y2="0.359467" style="stroke:rgb(246,147,147);stroke-width:0.01" />
<line x1="1.06065" y1="0.00443787" x2="0.705621" y2="0.356509" style="stroke:rgb(246,147,147);stroke-width:0.01" />
<line x1="1.05769" y1="0.711538" x2="1.41124" y2="0.713018" style="stroke:rgb(246,147,147);stroke-width:0.01" />
<line x1="1.4142" y1="0.00591716" x2="0.704142" y2="0.710059" style="stroke:rgb(246,147,147);stroke-width:0.01" />
<line x1="1.41272" y1="0.359467" x2="1.05769" y2="0.711538" style="stroke:rgb(246,147,147);stroke-width:0.01" />
</g>
</svg>
