<svg xmlns="http://www.w3.org/2000/svg" viewBox="-1.5 -1.5 3 3">
<g transform="scale(1, -1)">
<path d="M-0.352071 -0.355030 L0.001479 -0.353550 L0.177515 -0.176036 L0.355030 -0.352071 L0.353550 0.001479 L0.176036 0.177515 L0.352071 0.355030 L-0.001479 0.353550 L-0.177515 0.176036 L-0.355030 0.352071 L-0.353550 -0.001479 L-0.176036 -0.177515 z " fill="rgb(245,195,195)" />
<path d="M-1.059172 -0.357988 L-0.059172 -0.357988 L-0.059172 0.642012 L-1.059172 0.642012  z" fill="none" stroke="rgb(128,128,128)" stroke-width="0.01" />
<line x1="0.00147929" y1="-0.35355" x2="0.35355" y2="0.00147929" style="stroke:rgb(246,147,147);stroke-width:0.01" />
<line x1="-0.352071" y1="-0.35503" x2="0.352071" y2="0.35503" style="stroke:rgb(246,147,147);stroke-width:0.01" />
<line x1="-0.35355" y1="-0.00147929" x2="-0.00147929" y2="0.35355" style="stroke:rgb(246,147,147);stroke-width:0.01" />
<line x1="-0.352071" y1="-0.35503" x2="0.00147929" y2="-0.35355" style="stroke:rgb(246,147,147);stroke-width:0.01" />
<line x1="-0.35355" y1="-0.00147929" x2="-0.35503" y2="0.352071" style="stroke:rgb(246,147,147);stroke-width:0.01" />
<line x1="0.00147929" y1="-0.35355" x2="-0.00147929" y2="0.35355" style="stroke:rgb(246,147,147);stroke-width:0.01" />
<line x1="0.35503" y1="-0.352071" x2="0.35355" y2="0.00147929" style="stroke:rgb(246,147,147);stroke-width:0.01" />
<line x1="-0.35355" y1="-0.00147929" x2="0.35355" y2="0.00147929" style="stroke:rgb(246,147,147);stroke-width:0.01" />
<line x1="0.00147929" y1="-0.35355" x2="-0.35355" y2="-0.00147929" style="stroke:rgb(246,147,147);stroke-width:0.01" />
<line x1="-0.00147929" y1="0.35355" x2="0.352071" y2="0.35503" style="stroke:rgb(246,147,147);stroke-width:0.01" />
<line x1="0.35503" y1="-0.352071" x2="-0.35503" y2="0.352071" style="stroke:rgb(246,147,147);stroke-width:0.01" />
<line x1="0.35355" y1="0.00147929" x2="-0.00147929" y2="0.35355" style="stroke:rgb(246,147,147);stroke-width:0.01" />
</g>
</svg>
