<svg xmlns="http://www.w3.org/2000/svg" viewBox="-1.5 -1.5 3 3">
<g transform="scale(1, -1)">
<path d="M-0.051071 -0.382500 L0.323929 -0.257500 L0.323929 -0.007500 L0.181071 -0.007500 L0.223929 0.292500 L0.023929 0.142500 L0.002500 -0.007500 L-0.176071 -0.007500 L-0.426071 0.242500 L-0.426071 -0.007500 z " fill="rgb(245,195,195)" />
<path d="M-0.426071 -0.757500 L0.573929 -0.757500 L0.573929 0.242500 L-0.426071 0.242500  z" fill="none" stroke="rgb(128,128,128)" stroke-width="0.01" />
<line x1="0.136429" y1="-0.32" x2="0.223929" y2="0.2925" style="stroke:rgb(246,147,147);stroke-width:0.01" />
<line x1="-0.0510714" y1="-0.3825" x2="0.0239286" y2="0.1425" style="stroke:rgb(246,147,147);stroke-width:0.01" />
<line x1="-0.426071" y1="-0.0075" x2="-0.426071" y2="0.2425" style="stroke:rgb(246,147,147);stroke-width:0.01" />
<line x1="0.323929" y1="-0.2575" x2="0.323929" y2="-0.0075" style="stroke:rgb(246,147,147);stroke-width:0.01" />
<line x1="-0.0510714" y1="-0.3825" x2="0.323929" y2="-0.2575" style="stroke:rgb(246,147,147);stroke-width:0.01" />
<line x1="0.0239286" y1="0.1425" x2="0.223929" y2="0.2925" style="stroke:rgb(246,147,147);stroke-width:0.01" />
<line x1="-0.0510714" y1="-0.3825" x2="-0.426071" y2="-0.0075" style="stroke:rgb(246,147,147);stroke-width:0.01" />
<line x1="0.136429" y1="-0.32" x2="-0.426071" y2="0.2425" style="stroke:rgb(246,147,147);stroke-width:0.01" />
<line x1="0.323929" y1="-0.2575" x2="0.0239286" y2="0.1425" style="stroke:rgb(246,147,147);stroke-width:0.01" />
<line x1="-0.426071" y1="-0.0075" x2="0.323929" y2="-0.0075" style="stroke:rgb(246,147,147);stroke-width:0.01" />
</g>
</svg>
