<svg xmlns="http://www.w3.org/2000/svg" viewBox="-1.5 -1.5 3 3">
<g transform="scale(1, -1)">
<path d="M0.375000 0.375000 L0.750000 0.500000 L0.750000 0.750000 L0.607143 0.750000 L0.650000 1.050000 L0.450000 0.900000 L0.428571 0.750000 L0.250000 0.750000 L0.000000 1.000000 L0.000000 0.750000 z " fill="rgb(245,195,195)" />
<path d="M0.000000 0.000000 L1.000000 0.000000 L1.000000 1.000000 L0.000000 1.000000  z" fill="none" stroke="rgb(128,128,128)" stroke-width="0.01" />
<line x1="0.5625" y1="0.4375" x2="0.65" y2="1.05" style="stroke:rgb(246,147,147);stroke-width:0.01" />
<line x1="0.375" y1="0.375" x2="0.45" y2="0.9" style="stroke:rgb(246,147,147);stroke-width:0.01" />
<line x1="0" y1="0.75" x2="0" y2="1" style="stroke:rgb(246,147,147);stroke-width:0.01" />
<line x1="0.75" y1="0.5" x2="0.75" y2="0.75" style="stroke:rgb(246,147,147);stroke-width:0.01" />
<line x1="0.375" y1="0.375" x2="0.75" y2="0.5" style="stroke:rgb(246,147,147);stroke-width:0.01" />
<line x1="0.45" y1="0.9" x2="0.65" y2="1.05" style="stroke:rgb(246,147,147);stroke-width:0.01" />
<line x1="0.375" y1="0.375" x2="0" y2="0.75" style="stroke:rgb(246,147,147);stroke-width:0.01" />
<line x1="0.5625" y1="0.4375" x2="0" y2="1" style="stroke:rgb(246,147,147);stroke-width:0.01" />
<line x1="0.75" y1="0.5" x2="0.45" y2="0.9" style="stroke:rgb(246,147,147);stroke-width:0.01" />
<line x1="0" y1="0.75" x2="0.75" y2="0.75" style="stroke:rgb(246,147,147);stroke-width:0.01" />
</g>
</svg>
