<svg xmlns="http://www.w3.org/2000/svg" viewBox="-1.5 -1.5 3 3">
<g transform="scale(1, -1)">
<path d="M-0.254167 -0.259722 L-0.129167 -0.259722 L0.037500 -0.093056 L0.120833 -0.093056 L0.162500 -0.134722 L0.287500 -0.134722 L0.287500 -0.009722 L0.308333 0.011111 L-0.004167 0.323611 L-0.045833 0.281944 L-0.045833 0.198611 L-0.170833 0.198611 L-0.170833 0.031944 L-0.129167 0.031944 L-0.254167 -0.093056 z " fill="rgb(245,195,195)" />
<path d="M-0.254167 -0.259722 L0.745833 -0.259722 L0.745833 0.740278 L-0.254167 0.740278  z" fill="none" stroke="rgb(128,128,128)" stroke-width="0.01" />
<line x1="0.1625" y1="-0.134722" x2="0.308333" y2="0.0111111" style="stroke:rgb(246,147,147);stroke-width:0.01" />
<line x1="0.141667" y1="-0.113889" x2="0.2875" y2="0.0319444" style="stroke:rgb(246,147,147);stroke-width:0.01" />
<line x1="-0.129167" y1="-0.259722" x2="0.225" y2="0.0944444" style="stroke:rgb(246,147,147);stroke-width:0.01" />
<line x1="-0.129167" y1="-0.176389" x2="0.183333" y2="0.136111" style="stroke:rgb(246,147,147);stroke-width:0.01" />
<line x1="-0.254167" y1="-0.259722" x2="-0.129167" y2="-0.259722" style="stroke:rgb(246,147,147);stroke-width:0.01" />
<line x1="-0.254167" y1="-0.259722" x2="-0.254167" y2="-0.0930556" style="stroke:rgb(246,147,147);stroke-width:0.01" />
<line x1="-0.170833" y1="0.0319444" x2="-0.170833" y2="0.198611" style="stroke:rgb(246,147,147);stroke-width:0.01" />
<line x1="-0.129167" y1="-0.259722" x2="-0.129167" y2="-0.176389" style="stroke:rgb(246,147,147);stroke-width:0.01" />
<line x1="-0.129167" y1="0.0319444" x2="-0.129167" y2="0.198611" style="stroke:rgb(246,147,147);stroke-width:0.01" />
<line x1="-0.0458333" y1="-0.176389" x2="-0.0458333" y2="0.281944" style="stroke:rgb(246,147,147);stroke-width:0.01" />
<line x1="-0.00416667" y1="0.0319444" x2="-0.00416667" y2="0.0736111" style="stroke:rgb(246,147,147);stroke-width:0.01" />
<line x1="0.0375" y1="-0.00972222" x2="0.0375" y2="0.281944" style="stroke:rgb(246,147,147);stroke-width:0.01" />
<line x1="0.0791667" y1="-0.0513889" x2="0.0791667" y2="0.156944" style="stroke:rgb(246,147,147);stroke-width:0.01" />
<line x1="0.1625" y1="-0.134722" x2="0.1625" y2="-0.0930556" style="stroke:rgb(246,147,147);stroke-width:0.01" />
<line x1="0.1625" y1="0.0319444" x2="0.1625" y2="0.0736111" style="stroke:rgb(246,147,147);stroke-width:0.01" />
<line x1="0.204167" y1="-0.134722" x2="0.204167" y2="0.0319444" style="stroke:rgb(246,147,147);stroke-width:0.01" />
<line x1="0.245833" y1="-0.0513889" x2="0.245833" y2="0.0319444" style="stroke:rgb(246,147,147);stroke-width:0.01" />
<line x1="0.2875" y1="-0.134722" x2="0.2875" y2="0.0319444" style="stroke:rgb(246,147,147);stroke-width:0.01" />
<line x1="-0.254167" y1="-0.0930556" x2="0.0791667" y2="0.240278" style="stroke:rgb(246,147,147);stroke-width:0.01" />
<line x1="-0.129167" y1="-0.176389" x2="-0.0458333" y2="-0.176389" style="stroke:rgb(246,147,147);stroke-width:0.01" />
<line x1="-0.170833" y1="0.0736111" x2="-0.0458333" y2="0.198611" style="stroke:rgb(246,147,147);stroke-width:0.01" />
<line x1="0.1625" y1="-0.134722" x2="0.2875" y2="-0.134722" style="stroke:rgb(246,147,147);stroke-width:0.01" />
<line x1="-0.0458333" y1="0.281944" x2="-0.00416667" y2="0.323611" style="stroke:rgb(246,147,147);stroke-width:0.01" />
<line x1="-0.254167" y1="-0.0930556" x2="0.204167" y2="-0.0930556" style="stroke:rgb(246,147,147);stroke-width:0.01" />
<line x1="0.0791667" y1="-0.0513889" x2="0.245833" y2="-0.0513889" style="stroke:rgb(246,147,147);stroke-width:0.01" />
<line x1="-0.129167" y1="0.0319444" x2="-0.170833" y2="0.0736111" style="stroke:rgb(246,147,147);stroke-width:0.01" />
<line x1="0.0375" y1="-0.00972222" x2="0.2875" y2="-0.00972222" style="stroke:rgb(246,147,147);stroke-width:0.01" />
<line x1="0.1625" y1="-0.134722" x2="-0.0666667" y2="0.0944444" style="stroke:rgb(246,147,147);stroke-width:0.01" />
<line x1="-0.170833" y1="0.0319444" x2="0.2875" y2="0.0319444" style="stroke:rgb(246,147,147);stroke-width:0.01" />
<line x1="0.120833" y1="-0.00972222" x2="0.0375" y2="0.0736111" style="stroke:rgb(246,147,147);stroke-width:0.01" />
<line x1="-0.170833" y1="0.0736111" x2="-0.129167" y2="0.0736111" style="stroke:rgb(246,147,147);stroke-width:0.01" />
<line x1="-0.0458333" y1="0.0736111" x2="0.1625" y2="0.0736111" style="stroke:rgb(246,147,147);stroke-width:0.01" />
<line x1="-0.00416667" y1="0.156944" x2="-0.0458333" y2="0.198611" style="stroke:rgb(246,147,147);stroke-width:0.01" />
<line x1="0.204167" y1="0.0319444" x2="-0.0458333" y2="0.281944" style="stroke:rgb(246,147,147);stroke-width:0.01" />
<line x1="-0.00416667" y1="0.156944" x2="0.0791667" y2="0.156944" style="stroke:rgb(246,147,147);stroke-width:0.01" />
<line x1="0.308333" y1="0.0111111" x2="-0.00416667" y2="0.323611" style="stroke:rgb(246,147,147);stroke-width:0.01" />
<line x1="-0.170833" y1="0.198611" x2="0.0375" y2="0.198611" style="stroke:rgb(246,147,147);stroke-width:0.01" />
<line x1="-0.0458333" y1="0.281944" x2="0.0375" y2="0.281944" style="stroke:rgb(246,147,147);stroke-width:0.01" />
</g>
</svg>
