<svg xmlns="http://www.w3.org/2000/svg" viewBox="-1.5 -1.5 3 3">
<g transform="scale(1, -1)">
<path d="M0.090909 0.772727 L0.181818 0.818182 L0.181818 1.000000 L0.152829 1.000000 L0.155245 1.021678 L0.069930 1.076923 L-0.060606 1.000000 L-0.066667 0.890909 L0.002237 0.839231 L-0.016654 0.805121 L0.036364 0.775758 L0.066265 0.791211 z M0.051948 0.915584 L0.018182 0.940909 L0.057343 0.963986 z " fill="rgb(245,195,195)" />
<path d="M0.000000 0.000000 L1.000000 0.000000 L1.000000 1.000000 L0.000000 1.000000  z" fill="none" stroke="rgb(128,128,128)" stroke-width="0.01" />
<line x1="0.133427" y1="0.825921" x2="0.155245" y2="1.02168" style="stroke:rgb(246,147,147);stroke-width:0.01" />
<line x1="0.0909091" y1="0.772727" x2="0.0909091" y2="1" style="stroke:rgb(246,147,147);stroke-width:0.01" />
<line x1="0.181818" y1="0.818182" x2="0.181818" y2="1" style="stroke:rgb(246,147,147);stroke-width:0.01" />
<line x1="0.0363636" y1="0.775758" x2="0.0699301" y2="1.07692" style="stroke:rgb(246,147,147);stroke-width:0.01" />
<line x1="-0.0666667" y1="0.890909" x2="-0.0606061" y2="1" style="stroke:rgb(246,147,147);stroke-width:0.01" />
<line x1="-0.0166541" y1="0.805121" x2="0.0273911" y2="0.884648" style="stroke:rgb(246,147,147);stroke-width:0.01" />
<line x1="0.0909091" y1="0.772727" x2="-0.0666667" y2="0.890909" style="stroke:rgb(246,147,147);stroke-width:0.01" />
<line x1="0.0909091" y1="0.772727" x2="0.181818" y2="0.818182" style="stroke:rgb(246,147,147);stroke-width:0.01" />
<line x1="0.0363636" y1="0.775758" x2="0.133427" y2="0.825921" style="stroke:rgb(246,147,147);stroke-width:0.01" />
<line x1="0.0363636" y1="0.775758" x2="-0.0166541" y2="0.805121" style="stroke:rgb(246,147,147);stroke-width:0.01" />
<line x1="0.181818" y1="0.818182" x2="-0.0606061" y2="1" style="stroke:rgb(246,147,147);stroke-width:0.01" />
<line x1="0.133427" y1="0.825921" x2="0.0273911" y2="0.884648" style="stroke:rgb(246,147,147);stroke-width:0.01" />
<line x1="-0.0666667" y1="0.890909" x2="0.155245" y2="1.02168" style="stroke:rgb(246,147,147);stroke-width:0.01" />
<line x1="-0.0606061" y1="1" x2="0.0699301" y2="1.07692" style="stroke:rgb(246,147,147);stroke-width:0.01" />
<line x1="0.155245" y1="1.02168" x2="0.0699301" y2="1.07692" style="stroke:rgb(246,147,147);stroke-width:0.01" />
<line x1="0.0909091" y1="1" x2="0.181818" y2="1" style="stroke:rgb(246,147,147);stroke-width:0.01" />
</g>
</svg>
