<svg xmlns="http://www.w3.org/2000/svg" viewBox="-1.5 -1.5 3 3">
<g transform="scale(1, -1)">
<path d="M0.029512 -0.134754 L0.120421 -0.089299 L0.120421 0.092519 L0.091431 0.092519 L0.093847 0.114197 L0.008533 0.169442 L-0.122003 0.092519 L-0.128064 -0.016572 L-0.059160 -0.068250 L-0.078051 -0.102360 L-0.025034 -0.131724 L0.004867 -0.116271 z M-0.009449 0.008103 L-0.043216 0.033428 L-0.004055 0.056505 z " fill="rgb(245,195,195)" />
<path d="M-0.061397 -0.907481 L0.938603 -0.907481 L0.938603 0.092519 L-0.061397 0.092519  z" fill="none" stroke="rgb(128,128,128)" stroke-width="0.01" />
<line x1="0.0720292" y1="-0.0815605" x2="0.0938474" y2="0.114197" style="stroke:rgb(246,147,147);stroke-width:0.01" />
<line x1="0.0295117" y1="-0.134754" x2="0.0295117" y2="0.0925187" style="stroke:rgb(246,147,147);stroke-width:0.01" />
<line x1="0.120421" y1="-0.0892995" x2="0.120421" y2="0.0925187" style="stroke:rgb(246,147,147);stroke-width:0.01" />
<line x1="-0.0250337" y1="-0.131724" x2="0.00853273" y2="0.169442" style="stroke:rgb(246,147,147);stroke-width:0.01" />
<line x1="-0.128064" y1="-0.0165722" x2="-0.122003" y2="0.0925187" style="stroke:rgb(246,147,147);stroke-width:0.01" />
<line x1="-0.0780515" y1="-0.10236" x2="-0.0340063" y2="-0.0228336" style="stroke:rgb(246,147,147);stroke-width:0.01" />
<line x1="0.0295117" y1="-0.134754" x2="-0.128064" y2="-0.0165722" style="stroke:rgb(246,147,147);stroke-width:0.01" />
<line x1="0.0295117" y1="-0.134754" x2="0.120421" y2="-0.0892995" style="stroke:rgb(246,147,147);stroke-width:0.01" />
<line x1="-0.0250337" y1="-0.131724" x2="0.0720292" y2="-0.0815605" style="stroke:rgb(246,147,147);stroke-width:0.01" />
<line x1="-0.0250337" y1="-0.131724" x2="-0.0780515" y2="-0.10236" style="stroke:rgb(246,147,147);stroke-width:0.01" />
<line x1="0.120421" y1="-0.0892995" x2="-0.122003" y2="0.0925187" style="stroke:rgb(246,147,147);stroke-width:0.01" />
<line x1="0.0720292" y1="-0.0815605" x2="-0.0340063" y2="-0.0228336" style="stroke:rgb(246,147,147);stroke-width:0.01" />
<line x1="-0.128064" y1="-0.0165722" x2="0.0938474" y2="0.114197" style="stroke:rgb(246,147,147);stroke-width:0.01" />
<line x1="-0.122003" y1="0.0925187" x2="0.00853273" y2="0.169442" style="stroke:rgb(246,147,147);stroke-width:0.01" />
<line x1="0.0938474" y1="0.114197" x2="0.00853273" y2="0.169442" style="stroke:rgb(246,147,147);stroke-width:0.01" />
<line x1="0.0295117" y1="0.0925187" x2="0.120421" y2="0.0925187" style="stroke:rgb(246,147,147);stroke-width:0.01" />
</g>
</svg>
