<svg xmlns="http://www.w3.org/2000/svg" viewBox="-1.5 -1.5 3 3">
<g transform="scale(1, -1)">
<path d="M-0.214286 -0.357143 L-0.071429 -0.357143 L0.142857 -0.214286 L0.357143 -0.214286 L0.357143 -0.071429 L0.214286 0.142857 L0.214286 0.357143 L0.071429 0.357143 L-0.142857 0.214286 L-0.357143 0.214286 L-0.357143 0.071429 L-0.214286 -0.142857 z " fill="rgb(245,195,195)" />
<path d="M-13.131393 -10.662257 L-12.131393 -10.662257 L-12.131393 -9.662257 L-13.131393 -9.662257  z" fill="none" stroke="rgb(128,128,128)" stroke-width="0.01" />
<line x1="0.0714286" y1="-0.214286" x2="0.214286" y2="0.0714286" style="stroke:rgb(246,147,147);stroke-width:0.01" />
<line x1="-0.0714286" y1="-0.357143" x2="0.0934066" y2="0.0384615" style="stroke:rgb(246,147,147);stroke-width:0.01" />
<line x1="-0.0934066" y1="-0.0384615" x2="0.0714286" y2="0.357143" style="stroke:rgb(246,147,147);stroke-width:0.01" />
<line x1="-0.214286" y1="-0.0714286" x2="-0.0714286" y2="0.214286" style="stroke:rgb(246,147,147);stroke-width:0.01" />
<line x1="-0.357143" y1="0.0714286" x2="-0.357143" y2="0.214286" style="stroke:rgb(246,147,147);stroke-width:0.01" />
<line x1="-0.214286" y1="-0.357143" x2="-0.214286" y2="-0.0714286" style="stroke:rgb(246,147,147);stroke-width:0.01" />
<line x1="-0.0714286" y1="-0.357143" x2="-0.0714286" y2="0.214286" style="stroke:rgb(246,147,147);stroke-width:0.01" />
<line x1="0.0714286" y1="-0.214286" x2="0.0714286" y2="0.357143" style="stroke:rgb(246,147,147);stroke-width:0.01" />
<line x1="0.214286" y1="0.0714286" x2="0.214286" y2="0.357143" style="stroke:rgb(246,147,147);stroke-width:0.01" />
<line x1="0.357143" y1="-0.214286" x2="0.357143" y2="-0.0714286" style="stroke:rgb(246,147,147);stroke-width:0.01" />
<line x1="-0.0714286" y1="-0.357143" x2="0.357143" y2="-0.0714286" style="stroke:rgb(246,147,147);stroke-width:0.01" />
<line x1="-0.357143" y1="0.0714286" x2="0.0714286" y2="0.357143" style="stroke:rgb(246,147,147);stroke-width:0.01" />
<line x1="-0.0714286" y1="-0.357143" x2="-0.357143" y2="0.0714286" style="stroke:rgb(246,147,147);stroke-width:0.01" />
<line x1="0.357143" y1="-0.0714286" x2="0.0714286" y2="0.357143" style="stroke:rgb(246,147,147);stroke-width:0.01" />
<line x1="-0.214286" y1="-0.357143" x2="-0.0714286" y2="-0.357143" style="stroke:rgb(246,147,147);stroke-width:0.01" />
<line x1="0.0714286" y1="-0.214286" x2="0.357143" y2="-0.214286" style="stroke:rgb(246,147,147);stroke-width:0.01" />
<line x1="-0.214286" y1="-0.0714286" x2="0.357143" y2="-0.0714286" style="stroke:rgb(246,147,147);stroke-width:0.01" />
<line x1="-0.357143" y1="0.0714286" x2="0.214286" y2="0.0714286" style="stroke:rgb(246,147,147);stroke-width:0.01" />
<line x1="-0.357143" y1="0.214286" x2="-0.0714286" y2="0.214286" style="stroke:rgb(246,147,147);stroke-width:0.01" />
<line x1="0.0714286" y1="0.357143" x2="0.214286" y2="0.357143" style="stroke:rgb(246,147,147);stroke-width:0.01" />
<line x1="0.0714286" y1="-0.214286" x2="-0.214286" y2="-0.0714286" style="stroke:rgb(246,147,147);stroke-width:0.01" />
<line x1="0.0384615" y1="-0.0934066" x2="-0.357143" y2="0.0714286" style="stroke:rgb(246,147,147);stroke-width:0.01" />
<line x1="0.357143" y1="-0.0714286" x2="-0.0384615" y2="0.0934066" style="stroke:rgb(246,147,147);stroke-width:0.01" />
<line x1="0.214286" y1="0.0714286" x2="-0.0714286" y2="0.214286" style="stroke:rgb(246,147,147);stroke-width:0.01" />
</g>
</svg>
