<svg xmlns="http://www.w3.org/2000/svg" viewBox="-1.5 -1.5 3 3">
<g transform="scale(1, -1)">
<path d="M12.917107 10.305115 L13.059965 10.305115 L13.274250 10.447972 L13.488536 10.447972 L13.488536 10.590829 L13.345679 10.805115 L13.345679 11.019400 L13.202822 11.019400 L12.988536 10.876543 L12.774250 10.876543 L12.774250 10.733686 L12.917107 10.519400 z " fill="rgb(245,195,195)" />
<path d="M0.000000 0.000000 L1.000000 0.000000 L1.000000 1.000000 L0.000000 1.000000  z" fill="none" stroke="rgb(128,128,128)" stroke-width="0.01" />
<line x1="13.2028" y1="10.448" x2="13.3457" y2="10.7337" style="stroke:rgb(246,147,147);stroke-width:0.01" />
<line x1="13.06" y1="10.3051" x2="13.2248" y2="10.7007" style="stroke:rgb(246,147,147);stroke-width:0.01" />
<line x1="13.038" y1="10.6238" x2="13.2028" y2="11.0194" style="stroke:rgb(246,147,147);stroke-width:0.01" />
<line x1="12.9171" y1="10.5908" x2="13.06" y2="10.8765" style="stroke:rgb(246,147,147);stroke-width:0.01" />
<line x1="12.7743" y1="10.7337" x2="12.7743" y2="10.8765" style="stroke:rgb(246,147,147);stroke-width:0.01" />
<line x1="12.9171" y1="10.3051" x2="12.9171" y2="10.5908" style="stroke:rgb(246,147,147);stroke-width:0.01" />
<line x1="13.06" y1="10.3051" x2="13.06" y2="10.8765" style="stroke:rgb(246,147,147);stroke-width:0.01" />
<line x1="13.2028" y1="10.448" x2="13.2028" y2="11.0194" style="stroke:rgb(246,147,147);stroke-width:0.01" />
<line x1="13.3457" y1="10.7337" x2="13.3457" y2="11.0194" style="stroke:rgb(246,147,147);stroke-width:0.01" />
<line x1="13.4885" y1="10.448" x2="13.4885" y2="10.5908" style="stroke:rgb(246,147,147);stroke-width:0.01" />
<line x1="13.06" y1="10.3051" x2="13.4885" y2="10.5908" style="stroke:rgb(246,147,147);stroke-width:0.01" />
<line x1="12.7743" y1="10.7337" x2="13.2028" y2="11.0194" style="stroke:rgb(246,147,147);stroke-width:0.01" />
<line x1="13.06" y1="10.3051" x2="12.7743" y2="10.7337" style="stroke:rgb(246,147,147);stroke-width:0.01" />
<line x1="13.4885" y1="10.5908" x2="13.2028" y2="11.0194" style="stroke:rgb(246,147,147);stroke-width:0.01" />
<line x1="12.9171" y1="10.3051" x2="13.06" y2="10.3051" style="stroke:rgb(246,147,147);stroke-width:0.01" />
<line x1="13.2028" y1="10.448" x2="13.4885" y2="10.448" style="stroke:rgb(246,147,147);stroke-width:0.01" />
<line x1="12.9171" y1="10.5908" x2="13.4885" y2="10.5908" style="stroke:rgb(246,147,147);stroke-width:0.01" />
<line x1="12.7743" y1="10.7337" x2="13.3457" y2="10.7337" style="stroke:rgb(246,147,147);stroke-width:0.01" />
<line x1="12.7743" y1="10.8765" x2="13.06" y2="10.8765" style="stroke:rgb(246,147,147);stroke-width:0.01" />
<line x1="13.2028" y1="11.0194" x2="13.3457" y2="11.0194" style="stroke:rgb(246,147,147);stroke-width:0.01" />
<line x1="13.2028" y1="10.448" x2="12.9171" y2="10.5908" style="stroke:rgb(246,147,147);stroke-width:0.01" />
<line x1="13.1699" y1="10.5689" x2="12.7743" y2="10.7337" style="stroke:rgb(246,147,147);stroke-width:0.01" />
<line x1="13.4885" y1="10.5908" x2="13.0929" y2="10.7557" style="stroke:rgb(246,147,147);stroke-width:0.01" />
<line x1="13.3457" y1="10.7337" x2="13.06" y2="10.8765" style="stroke:rgb(246,147,147);stroke-width:0.01" />
</g>
</svg>
