<svg xmlns="http://www.w3.org/2000/svg" viewBox="-1.5 -1.5 3 3">
<g transform="scale(1, -1)">
<path d="M-0.069505 -0.397938 L0.123104 -0.325369 L0.222500 -0.189504 L0.188920 0.042252 L0.188630 0.043904 L-0.013768 0.447693 L-0.126366 0.465410 L-0.513515 -0.086450 z " fill="rgb(245,195,195)" />
<path d="M0.022035 0.210429 L1.022035 0.210429 L1.022035 1.210429 L0.022035 1.210429  z" fill="none" stroke="rgb(128,128,128)" stroke-width="0.01" />
<line x1="-0.0695053" y1="-0.397938" x2="0.123104" y2="-0.325369" style="stroke:rgb(246,147,147);stroke-width:0.01" />
<line x1="0.0839136" y1="-0.340134" x2="0.0302829" y2="-0.321179" style="stroke:rgb(246,147,147);stroke-width:0.01" />
<line x1="-0.0695053" y1="-0.397938" x2="-0.513515" y2="-0.0864495" style="stroke:rgb(246,147,147);stroke-width:0.01" />
<line x1="-0.0582891" y1="-0.393712" x2="-0.499724" y2="-0.0840304" style="stroke:rgb(246,147,147);stroke-width:0.01" />
<line x1="0.021349" y1="-0.325447" x2="0.0302829" y2="-0.321179" style="stroke:rgb(246,147,147);stroke-width:0.01" />
<line x1="0.214817" y1="-0.183646" x2="0.221501" y2="-0.182609" style="stroke:rgb(246,147,147);stroke-width:0.01" />
<line x1="0.129989" y1="-0.19494" x2="0.221501" y2="-0.182609" style="stroke:rgb(246,147,147);stroke-width:0.01" />
<line x1="-0.015062" y1="-0.173909" x2="0.178972" y2="-0.17036" style="stroke:rgb(246,147,147);stroke-width:0.01" />
<line x1="0.205108" y1="-0.213277" x2="0.129989" y2="-0.19494" style="stroke:rgb(246,147,147);stroke-width:0.01" />
<line x1="0.123104" y1="-0.325369" x2="0.2225" y2="-0.189504" style="stroke:rgb(246,147,147);stroke-width:0.01" />
<line x1="0.0839136" y1="-0.340134" x2="0.178972" y2="-0.17036" style="stroke:rgb(246,147,147);stroke-width:0.01" />
<line x1="0.2225" y1="-0.189504" x2="0.214817" y2="-0.183646" style="stroke:rgb(246,147,147);stroke-width:0.01" />
<line x1="0.0368384" y1="-0.357871" x2="0.021349" y2="-0.325447" style="stroke:rgb(246,147,147);stroke-width:0.01" />
<line x1="0.0461375" y1="-0.354367" x2="0.0302829" y2="-0.321179" style="stroke:rgb(246,147,147);stroke-width:0.01" />
<line x1="0.0368384" y1="-0.357871" x2="-0.015062" y2="-0.173909" style="stroke:rgb(246,147,147);stroke-width:0.01" />
<line x1="0.0461375" y1="-0.354367" x2="-0.00482737" y2="-0.173722" style="stroke:rgb(246,147,147);stroke-width:0.01" />
<line x1="0.205108" y1="-0.213277" x2="0.178972" y2="-0.17036" style="stroke:rgb(246,147,147);stroke-width:0.01" />
<line x1="-0.0776596" y1="0.307741" x2="-0.126666" y2="0.460957" style="stroke:rgb(246,147,147);stroke-width:0.01" />
<line x1="-0.0776596" y1="0.307741" x2="-0.126366" y2="0.46541" style="stroke:rgb(246,147,147);stroke-width:0.01" />
<line x1="-0.0682142" y1="0.310711" x2="-0.117235" y2="0.463974" style="stroke:rgb(246,147,147);stroke-width:0.01" />
<line x1="-0.0682142" y1="0.310711" x2="-0.115474" y2="0.463696" style="stroke:rgb(246,147,147);stroke-width:0.01" />
<line x1="-0.0582891" y1="-0.393712" x2="-0.00482737" y2="-0.173722" style="stroke:rgb(246,147,147);stroke-width:0.01" />
<line x1="-0.0695053" y1="-0.397938" x2="-0.015062" y2="-0.173909" style="stroke:rgb(246,147,147);stroke-width:0.01" />
<line x1="0.123104" y1="-0.325369" x2="0.129989" y2="-0.19494" style="stroke:rgb(246,147,147);stroke-width:0.01" />
<line x1="0.18863" y1="0.0439043" x2="-0.0776766" y2="0.326548" style="stroke:rgb(246,147,147);stroke-width:0.01" />
<line x1="-0.00261302" y1="0.314763" x2="0.0112638" y2="0.397755" style="stroke:rgb(246,147,147);stroke-width:0.01" />
<line x1="0.214817" y1="-0.183646" x2="0.18892" y2="0.0422521" style="stroke:rgb(246,147,147);stroke-width:0.01" />
<line x1="0.2225" y1="-0.189504" x2="0.18892" y2="0.0422521" style="stroke:rgb(246,147,147);stroke-width:0.01" />
<line x1="0.18892" y1="0.0422521" x2="0.18863" y2="0.0439043" style="stroke:rgb(246,147,147);stroke-width:0.01" />
<line x1="0.18863" y1="0.0439043" x2="-0.0137676" y2="0.447693" style="stroke:rgb(246,147,147);stroke-width:0.01" />
<line x1="-0.0776766" y1="0.326548" x2="-0.0137676" y2="0.447693" style="stroke:rgb(246,147,147);stroke-width:0.01" />
<line x1="-0.00261302" y1="0.314763" x2="0.0381358" y2="0.344144" style="stroke:rgb(246,147,147);stroke-width:0.01" />
<line x1="-0.00261302" y1="0.314763" x2="-0.0776766" y2="0.326548" style="stroke:rgb(246,147,147);stroke-width:0.01" />
<line x1="-0.0776596" y1="0.307741" x2="0.0381358" y2="0.344144" style="stroke:rgb(246,147,147);stroke-width:0.01" />
<line x1="0.0112638" y1="0.397755" x2="-0.117235" y2="0.463974" style="stroke:rgb(246,147,147);stroke-width:0.01" />
<line x1="-0.499724" y1="-0.0840304" x2="-0.115474" y2="0.463696" style="stroke:rgb(246,147,147);stroke-width:0.01" />
<line x1="-0.513515" y1="-0.0864495" x2="-0.126366" y2="0.46541" style="stroke:rgb(246,147,147);stroke-width:0.01" />
<line x1="-0.0137676" y1="0.447693" x2="-0.126366" y2="0.46541" style="stroke:rgb(246,147,147);stroke-width:0.01" />
<line x1="-0.126666" y1="0.460957" x2="-0.117235" y2="0.463974" style="stroke:rgb(246,147,147);stroke-width:0.01" />
</g>
</svg>
