<svg xmlns="http://www.w3.org/2000/svg" viewBox="-1.5 -1.5 3 3">
<g transform="scale(1, -1)">
<path d="M-0.091540 -0.608368 L0.101069 -0.535798 L0.200465 -0.399933 L0.166886 -0.168177 L0.166596 -0.166525 L-0.035802 0.237264 L-0.148400 0.254981 L-0.535550 -0.296879 z " fill="rgb(245,195,195)" />
<path d="M0.000000 0.000000 L1.000000 0.000000 L1.000000 1.000000 L0.000000 1.000000  z" fill="none" stroke="rgb(128,128,128)" stroke-width="0.01" />
<line x1="-0.0915398" y1="-0.608368" x2="0.101069" y2="-0.535798" style="stroke:rgb(246,147,147);stroke-width:0.01" />
<line x1="0.0618791" y1="-0.550564" x2="0.00824841" y2="-0.531609" style="stroke:rgb(246,147,147);stroke-width:0.01" />
<line x1="-0.0915398" y1="-0.608368" x2="-0.53555" y2="-0.296879" style="stroke:rgb(246,147,147);stroke-width:0.01" />
<line x1="-0.0803236" y1="-0.604142" x2="-0.521758" y2="-0.29446" style="stroke:rgb(246,147,147);stroke-width:0.01" />
<line x1="-0.000685495" y1="-0.535877" x2="0.00824841" y2="-0.531609" style="stroke:rgb(246,147,147);stroke-width:0.01" />
<line x1="0.192782" y1="-0.394075" x2="0.199466" y2="-0.393039" style="stroke:rgb(246,147,147);stroke-width:0.01" />
<line x1="0.107954" y1="-0.40537" x2="0.199466" y2="-0.393039" style="stroke:rgb(246,147,147);stroke-width:0.01" />
<line x1="-0.0370965" y1="-0.384339" x2="0.156937" y2="-0.380789" style="stroke:rgb(246,147,147);stroke-width:0.01" />
<line x1="0.183073" y1="-0.423706" x2="0.107954" y2="-0.40537" style="stroke:rgb(246,147,147);stroke-width:0.01" />
<line x1="0.101069" y1="-0.535798" x2="0.200465" y2="-0.399933" style="stroke:rgb(246,147,147);stroke-width:0.01" />
<line x1="0.0618791" y1="-0.550564" x2="0.156937" y2="-0.380789" style="stroke:rgb(246,147,147);stroke-width:0.01" />
<line x1="0.200465" y1="-0.399933" x2="0.192782" y2="-0.394075" style="stroke:rgb(246,147,147);stroke-width:0.01" />
<line x1="0.0148039" y1="-0.5683" x2="-0.000685495" y2="-0.535877" style="stroke:rgb(246,147,147);stroke-width:0.01" />
<line x1="0.0241029" y1="-0.564797" x2="0.00824841" y2="-0.531609" style="stroke:rgb(246,147,147);stroke-width:0.01" />
<line x1="0.0148039" y1="-0.5683" x2="-0.0370965" y2="-0.384339" style="stroke:rgb(246,147,147);stroke-width:0.01" />
<line x1="0.0241029" y1="-0.564797" x2="-0.0268619" y2="-0.384151" style="stroke:rgb(246,147,147);stroke-width:0.01" />
<line x1="0.183073" y1="-0.423706" x2="0.156937" y2="-0.380789" style="stroke:rgb(246,147,147);stroke-width:0.01" />
<line x1="-0.0996941" y1="0.0973119" x2="-0.1487" y2="0.250528" style="stroke:rgb(246,147,147);stroke-width:0.01" />
<line x1="-0.0996941" y1="0.0973119" x2="-0.1484" y2="0.254981" style="stroke:rgb(246,147,147);stroke-width:0.01" />
<line x1="-0.0902488" y1="0.100281" x2="-0.13927" y2="0.253544" style="stroke:rgb(246,147,147);stroke-width:0.01" />
<line x1="-0.0902488" y1="0.100281" x2="-0.137508" y2="0.253267" style="stroke:rgb(246,147,147);stroke-width:0.01" />
<line x1="-0.0803236" y1="-0.604142" x2="-0.0268619" y2="-0.384151" style="stroke:rgb(246,147,147);stroke-width:0.01" />
<line x1="-0.0915398" y1="-0.608368" x2="-0.0370965" y2="-0.384339" style="stroke:rgb(246,147,147);stroke-width:0.01" />
<line x1="0.101069" y1="-0.535798" x2="0.107954" y2="-0.40537" style="stroke:rgb(246,147,147);stroke-width:0.01" />
<line x1="0.166596" y1="-0.166525" x2="-0.0997111" y2="0.116119" style="stroke:rgb(246,147,147);stroke-width:0.01" />
<line x1="-0.0246475" y1="0.104334" x2="-0.0107708" y2="0.187325" style="stroke:rgb(246,147,147);stroke-width:0.01" />
<line x1="0.192782" y1="-0.394075" x2="0.166886" y2="-0.168177" style="stroke:rgb(246,147,147);stroke-width:0.01" />
<line x1="0.200465" y1="-0.399933" x2="0.166886" y2="-0.168177" style="stroke:rgb(246,147,147);stroke-width:0.01" />
<line x1="0.166886" y1="-0.168177" x2="0.166596" y2="-0.166525" style="stroke:rgb(246,147,147);stroke-width:0.01" />
<line x1="0.166596" y1="-0.166525" x2="-0.0358021" y2="0.237264" style="stroke:rgb(246,147,147);stroke-width:0.01" />
<line x1="-0.0997111" y1="0.116119" x2="-0.0358021" y2="0.237264" style="stroke:rgb(246,147,147);stroke-width:0.01" />
<line x1="-0.0246475" y1="0.104334" x2="0.0161013" y2="0.133715" style="stroke:rgb(246,147,147);stroke-width:0.01" />
<line x1="-0.0246475" y1="0.104334" x2="-0.0997111" y2="0.116119" style="stroke:rgb(246,147,147);stroke-width:0.01" />
<line x1="-0.0996941" y1="0.0973119" x2="0.0161013" y2="0.133715" style="stroke:rgb(246,147,147);stroke-width:0.01" />
<line x1="-0.0107708" y1="0.187325" x2="-0.13927" y2="0.253544" style="stroke:rgb(246,147,147);stroke-width:0.01" />
<line x1="-0.521758" y1="-0.29446" x2="-0.137508" y2="0.253267" style="stroke:rgb(246,147,147);stroke-width:0.01" />
<line x1="-0.53555" y1="-0.296879" x2="-0.1484" y2="0.254981" style="stroke:rgb(246,147,147);stroke-width:0.01" />
<line x1="-0.0358021" y1="0.237264" x2="-0.1484" y2="0.254981" style="stroke:rgb(246,147,147);stroke-width:0.01" />
<line x1="-0.1487" y1="0.250528" x2="-0.13927" y2="0.253544" style="stroke:rgb(246,147,147);stroke-width:0.01" />
</g>
</svg>
