<svg xmlns="http://www.w3.org/2000/svg" viewBox="-1.5 -1.5 3 3">
<g transform="scale(1, -1)">
<path d="M0.609092 -0.510878 L0.469092 -0.030878 L-0.080908 0.069122 L-0.130908 0.169122 L-0.238752 0.169122 L-0.393071 0.396149 L-0.403636 0.169122 L0.169092 -0.430878 z " fill="rgb(245,195,195)" />
<path d="M-1.430908 -1.230878 L-0.430908 -1.230878 L-0.430908 -0.230878 L-1.430908 -0.230878  z" fill="none" stroke="rgb(128,128,128)" stroke-width="0.01" />
<line x1="0.169092" y1="-0.430878" x2="0.469092" y2="-0.0308784" style="stroke:rgb(246,147,147);stroke-width:0.01" />
<line x1="-0.250908" y1="0.00912162" x2="-0.130908" y2="0.169122" style="stroke:rgb(246,147,147);stroke-width:0.01" />
<line x1="-0.403636" y1="0.169122" x2="-0.393071" y2="0.396149" style="stroke:rgb(246,147,147);stroke-width:0.01" />
<line x1="-0.355908" y1="0.119122" x2="-0.393071" y2="0.396149" style="stroke:rgb(246,147,147);stroke-width:0.01" />
<line x1="-0.250908" y1="0.00912162" x2="-0.168206" y2="0.0653378" style="stroke:rgb(246,147,147);stroke-width:0.01" />
<line x1="0.609092" y1="-0.510878" x2="0.469092" y2="-0.0308784" style="stroke:rgb(246,147,147);stroke-width:0.01" />
<line x1="0.169092" y1="-0.430878" x2="-0.130908" y2="0.169122" style="stroke:rgb(246,147,147);stroke-width:0.01" />
<line x1="0.169092" y1="-0.430878" x2="-0.393071" y2="0.396149" style="stroke:rgb(246,147,147);stroke-width:0.01" />
<line x1="0.609092" y1="-0.510878" x2="0.169092" y2="-0.430878" style="stroke:rgb(246,147,147);stroke-width:0.01" />
<line x1="0.169092" y1="-0.430878" x2="-0.403636" y2="0.169122" style="stroke:rgb(246,147,147);stroke-width:0.01" />
<line x1="-0.403636" y1="0.169122" x2="-0.130908" y2="0.169122" style="stroke:rgb(246,147,147);stroke-width:0.01" />
<line x1="0.609092" y1="-0.510878" x2="-0.190908" y2="0.0891216" style="stroke:rgb(246,147,147);stroke-width:0.01" />
<line x1="0.469092" y1="-0.0308784" x2="-0.355908" y2="0.119122" style="stroke:rgb(246,147,147);stroke-width:0.01" />
</g>
</svg>
