<svg xmlns="http://www.w3.org/2000/svg" viewBox="-1.5 -1.5 3 3">
<g transform="scale(1, -1)">
<path d="M0.058311 -0.286913 L0.085605 -0.156403 L0.417891 -0.059487 L0.508292 -0.059487 L0.508292 -0.033119 L-0.215340 0.509605 L-0.491708 0.440513 L-0.491708 -0.059487 L-0.193240 -0.059487 L-0.186395 -0.235737 z " fill="rgb(245,195,195)" />
<path d="M-0.491708 -0.059487 L0.508292 -0.059487 L0.508292 0.940513 L-0.491708 0.940513  z" fill="none" stroke="rgb(128,128,128)" stroke-width="0.01" />
<line x1="-0.186395" y1="-0.235737" x2="0.508292" y2="-0.0331194" style="stroke:rgb(246,147,147);stroke-width:0.01" />
<line x1="0.0583107" y1="-0.286913" x2="0.165202" y2="0.224198" style="stroke:rgb(246,147,147);stroke-width:0.01" />
<line x1="0.0583107" y1="-0.286913" x2="-0.186395" y2="-0.235737" style="stroke:rgb(246,147,147);stroke-width:0.01" />
<line x1="-0.256414" y1="-0.000663055" x2="0.165202" y2="0.224198" style="stroke:rgb(246,147,147);stroke-width:0.01" />
<line x1="-0.491708" y1="-0.0594866" x2="0.508292" y2="-0.0594866" style="stroke:rgb(246,147,147);stroke-width:0.01" />
<line x1="-0.491708" y1="-0.0594866" x2="-0.491708" y2="0.440513" style="stroke:rgb(246,147,147);stroke-width:0.01" />
<line x1="0.508292" y1="-0.0594866" x2="0.508292" y2="-0.0331194" style="stroke:rgb(246,147,147);stroke-width:0.01" />
<line x1="-0.186395" y1="-0.235737" x2="-0.21534" y2="0.509605" style="stroke:rgb(246,147,147);stroke-width:0.01" />
<line x1="-0.256414" y1="-0.000663055" x2="-0.491708" y2="0.440513" style="stroke:rgb(246,147,147);stroke-width:0.01" />
<line x1="-0.491708" y1="0.440513" x2="-0.21534" y2="0.509605" style="stroke:rgb(246,147,147);stroke-width:0.01" />
<line x1="0.508292" y1="-0.0331194" x2="-0.21534" y2="0.509605" style="stroke:rgb(246,147,147);stroke-width:0.01" />
</g>
</svg>
