<svg xmlns="http://www.w3.org/2000/svg" viewBox="-1.5 -1.5 3 3">
<g transform="scale(1, -1)">
<path d="M0.550018 -0.227426 L0.577312 -0.096917 L0.909598 0.000000 L1.000000 0.000000 L1.000000 0.026367 L0.276367 0.569092 L0.000000 0.500000 L0.000000 0.000000 L0.298468 0.000000 L0.305312 -0.176250 z " fill="rgb(245,195,195)" />
<path d="M0.000000 0.000000 L1.000000 0.000000 L1.000000 1.000000 L0.000000 1.000000  z" fill="none" stroke="rgb(128,128,128)" stroke-width="0.01" />
<line x1="0.305312" y1="-0.17625" x2="1" y2="0.0263672" style="stroke:rgb(246,147,147);stroke-width:0.01" />
<line x1="0.550018" y1="-0.227426" x2="0.656909" y2="0.283685" style="stroke:rgb(246,147,147);stroke-width:0.01" />
<line x1="0.550018" y1="-0.227426" x2="0.305312" y2="-0.17625" style="stroke:rgb(246,147,147);stroke-width:0.01" />
<line x1="0.235294" y1="0.0588235" x2="0.656909" y2="0.283685" style="stroke:rgb(246,147,147);stroke-width:0.01" />
<line x1="0" y1="0" x2="1" y2="0" style="stroke:rgb(246,147,147);stroke-width:0.01" />
<line x1="0" y1="0" x2="0" y2="0.5" style="stroke:rgb(246,147,147);stroke-width:0.01" />
<line x1="1" y1="0" x2="1" y2="0.0263672" style="stroke:rgb(246,147,147);stroke-width:0.01" />
<line x1="0.305312" y1="-0.17625" x2="0.276367" y2="0.569092" style="stroke:rgb(246,147,147);stroke-width:0.01" />
<line x1="0.235294" y1="0.0588235" x2="0" y2="0.5" style="stroke:rgb(246,147,147);stroke-width:0.01" />
<line x1="0" y1="0.5" x2="0.276367" y2="0.569092" style="stroke:rgb(246,147,147);stroke-width:0.01" />
<line x1="1" y1="0.0263672" x2="0.276367" y2="0.569092" style="stroke:rgb(246,147,147);stroke-width:0.01" />
</g>
</svg>
