<svg xmlns="http://www.w3.org/2000/svg" viewBox="-1.5 -1.5 3 3">
<g transform="scale(1, -1)">
<path d="M0.043750 -0.537500 L0.243750 -0.387500 L0.306250 0.050000 L0.118750 0.300000 L0.068750 0.262500 L-0.106250 0.287500 L-0.131250 0.112500 L-0.181250 0.075000 L-0.106250 -0.025000 L-0.256250 -0.137500 z " fill="rgb(245,195,195)" />
<path d="M0.043750 -0.537500 L1.043750 -0.537500 L1.043750 0.462500 L0.043750 0.462500  z" fill="none" stroke="rgb(128,128,128)" stroke-width="0.01" />
<line x1="0.24375" y1="-0.3875" x2="0.30625" y2="0.05" style="stroke:rgb(246,147,147);stroke-width:0.01" />
<line x1="0.19375" y1="-0.1125" x2="0.23125" y2="0.15" style="stroke:rgb(246,147,147);stroke-width:0.01" />
<line x1="0.04375" y1="-0.5375" x2="0.24375" y2="-0.3875" style="stroke:rgb(246,147,147);stroke-width:0.01" />
<line x1="0.09375" y1="-0.1875" x2="0.15625" y2="0.25" style="stroke:rgb(246,147,147);stroke-width:0.01" />
<line x1="0.04375" y1="-0.5375" x2="-0.25625" y2="-0.1375" style="stroke:rgb(246,147,147);stroke-width:0.01" />
<line x1="0.00625" y1="-0.175" x2="0.04375" y2="0.0875" style="stroke:rgb(246,147,147);stroke-width:0.01" />
<line x1="-0.06875" y1="-0.075" x2="-0.03125" y2="0.1875" style="stroke:rgb(246,147,147);stroke-width:0.01" />
<line x1="-0.14375" y1="0.025" x2="-0.10625" y2="0.2875" style="stroke:rgb(246,147,147);stroke-width:0.01" />
<line x1="0.00625" y1="-0.175" x2="-0.18125" y2="0.075" style="stroke:rgb(246,147,147);stroke-width:0.01" />
<line x1="0.24375" y1="-0.3875" x2="0.09375" y2="-0.1875" style="stroke:rgb(246,147,147);stroke-width:0.01" />
<line x1="0.09375" y1="-0.1875" x2="0.19375" y2="-0.1125" style="stroke:rgb(246,147,147);stroke-width:0.01" />
<line x1="0.26875" y1="-0.2125" x2="-0.10625" y2="0.2875" style="stroke:rgb(246,147,147);stroke-width:0.01" />
<line x1="0.30625" y1="0.05" x2="0.11875" y2="0.3" style="stroke:rgb(246,147,147);stroke-width:0.01" />
<line x1="0.26875" y1="-0.2125" x2="0.00625" y2="-0.175" style="stroke:rgb(246,147,147);stroke-width:0.01" />
<line x1="-0.25625" y1="-0.1375" x2="0.19375" y2="0.2" style="stroke:rgb(246,147,147);stroke-width:0.01" />
<line x1="0.19375" y1="-0.1125" x2="-0.06875" y2="-0.075" style="stroke:rgb(246,147,147);stroke-width:0.01" />
<line x1="-0.18125" y1="0.075" x2="0.11875" y2="0.3" style="stroke:rgb(246,147,147);stroke-width:0.01" />
<line x1="0.11875" y1="-0.0125" x2="-0.14375" y2="0.025" style="stroke:rgb(246,147,147);stroke-width:0.01" />
<line x1="0.30625" y1="0.05" x2="0.04375" y2="0.0875" style="stroke:rgb(246,147,147);stroke-width:0.01" />
<line x1="0.23125" y1="0.15" x2="-0.03125" y2="0.1875" style="stroke:rgb(246,147,147);stroke-width:0.01" />
<line x1="0.15625" y1="0.25" x2="-0.10625" y2="0.2875" style="stroke:rgb(246,147,147);stroke-width:0.01" />
</g>
</svg>
