<svg xmlns="http://www.w3.org/2000/svg" viewBox="-1.5 -1.5 3 3">
<g transform="scale(1, -1)">
<path d="M-0.356917 -0.343001 L-0.025707 -0.307514 L0.518083 -0.014704 L0.578863 0.094946 L0.193542 0.349004 L0.154224 0.289371 L0.089279 0.319107 L-0.050352 0.014142 L-0.356917 0.014142 L-0.356917 -0.212105 L-0.387182 -0.203387 z " fill="rgb(245,195,195)" />
<path d="M-0.356917 -0.485858 L0.643083 -0.485858 L0.643083 0.514142 L-0.356917 0.514142  z" fill="none" stroke="rgb(128,128,128)" stroke-width="0.01" />
<line x1="0.518083" y1="-0.0147044" x2="0.578863" y2="0.0949462" style="stroke:rgb(246,147,147);stroke-width:0.01" />
<line x1="0.124565" y1="-0.226599" x2="0.143083" y2="0.0141417" style="stroke:rgb(246,147,147);stroke-width:0.01" />
<line x1="-0.102859" y1="-0.100537" x2="0.0892786" y2="0.319107" style="stroke:rgb(246,147,147);stroke-width:0.01" />
<line x1="-0.0257065" y1="-0.307514" x2="0.518083" y2="-0.0147044" style="stroke:rgb(246,147,147);stroke-width:0.01" />
<line x1="-0.255565" y1="-0.332142" x2="0.193542" y2="0.349004" style="stroke:rgb(246,147,147);stroke-width:0.01" />
<line x1="-0.356917" y1="-0.343001" x2="-0.356917" y2="0.0141417" style="stroke:rgb(246,147,147);stroke-width:0.01" />
<line x1="0.143083" y1="-0.216628" x2="0.143083" y2="0.0141417" style="stroke:rgb(246,147,147);stroke-width:0.01" />
<line x1="-0.356917" y1="-0.343001" x2="-0.387182" y2="-0.203387" style="stroke:rgb(246,147,147);stroke-width:0.01" />
<line x1="-0.255565" y1="-0.332142" x2="-0.387182" y2="-0.203387" style="stroke:rgb(246,147,147);stroke-width:0.01" />
<line x1="-0.356917" y1="-0.343001" x2="-0.0257065" y2="-0.307514" style="stroke:rgb(246,147,147);stroke-width:0.01" />
<line x1="-0.0257065" y1="-0.307514" x2="-0.387182" y2="-0.203387" style="stroke:rgb(246,147,147);stroke-width:0.01" />
<line x1="0.124565" y1="-0.226599" x2="-0.102859" y2="-0.100537" style="stroke:rgb(246,147,147);stroke-width:0.01" />
<line x1="0.143083" y1="-0.216628" x2="-0.0816874" y2="-0.0684271" style="stroke:rgb(246,147,147);stroke-width:0.01" />
<line x1="-0.356917" y1="0.0141417" x2="0.143083" y2="0.0141417" style="stroke:rgb(246,147,147);stroke-width:0.01" />
<line x1="0.518083" y1="-0.0147044" x2="0.143083" y2="0.0141417" style="stroke:rgb(246,147,147);stroke-width:0.01" />
<line x1="0.578863" y1="0.0949462" x2="0.0892786" y2="0.319107" style="stroke:rgb(246,147,147);stroke-width:0.01" />
<line x1="0.578863" y1="0.0949462" x2="0.193542" y2="0.349004" style="stroke:rgb(246,147,147);stroke-width:0.01" />
</g>
</svg>
