<svg xmlns="http://www.w3.org/2000/svg" viewBox="-1.5 -1.5 3 3">
<path d="M-0.072917 -0.302083 L0.010417 -0.218750 L0.010417 -0.052083 L0.177083 0.114583 L0.010417 0.114583 L0.177083 0.281250 L-0.156250 0.281250 L-0.156250 -0.218750 z " fill="rgb(245,195,195)" />
<path d="M-0.656250 -0.885417 L0.343750 -0.885417 L0.343750 0.114583 L-0.656250 0.114583  z" fill="none" stroke="rgb(128,128,128)" stroke-width="0.01" />
<line x1="-0.0729167" y1="-0.302083" x2="0.0104167" y2="-0.21875" style="stroke:rgb(246,147,147);stroke-width:0.01" />
<line x1="-0.15625" y1="-0.21875" x2="-0.15625" y2="0.28125" style="stroke:rgb(246,147,147);stroke-width:0.01" />
<line x1="-0.0729167" y1="-0.135417" x2="-0.0729167" y2="0.114583" style="stroke:rgb(246,147,147);stroke-width:0.01" />
<line x1="0.0104167" y1="-0.21875" x2="0.0104167" y2="0.28125" style="stroke:rgb(246,147,147);stroke-width:0.01" />
<line x1="-0.15625" y1="-0.21875" x2="0.177083" y2="0.114583" style="stroke:rgb(246,147,147);stroke-width:0.01" />
<line x1="-0.15625" y1="-0.0520833" x2="0.177083" y2="0.28125" style="stroke:rgb(246,147,147);stroke-width:0.01" />
<line x1="-0.0729167" y1="-0.302083" x2="-0.15625" y2="-0.21875" style="stroke:rgb(246,147,147);stroke-width:0.01" />
<line x1="0.0104167" y1="-0.21875" x2="-0.15625" y2="-0.0520833" style="stroke:rgb(246,147,147);stroke-width:0.01" />
<line x1="0.0104167" y1="-0.0520833" x2="-0.15625" y2="0.114583" style="stroke:rgb(246,147,147);stroke-width:0.01" />
<line x1="-0.15625" y1="0.114583" x2="0.177083" y2="0.114583" style="stroke:rgb(246,147,147);stroke-width:0.01" />
<line x1="-0.15625" y1="0.28125" x2="0.177083" y2="0.28125" style="stroke:rgb(246,147,147);stroke-width:0.01" />
</svg>
