<svg xmlns="http://www.w3.org/2000/svg" viewBox="-1 -1 3 3">
<path d="M0.583333 0.583333 L0.666667 0.666667 L0.666667 0.833333 L0.833333 1.000000 L0.666667 1.000000 L0.833333 1.166667 L0.500000 1.166667 L0.500000 0.666667 z " fill="rgb(245,195,195)" />
<path d="M0 0 L0 1 L1 1 L1 0 z" fill="none" stroke="rgb(128,128,128)" stroke-width="0.01" />
<line x1="0.583333" y1="0.583333" x2="0.666667" y2="0.666667" style="stroke:rgb(246,147,147);stroke-width:0.01" />
<line x1="0.5" y1="0.666667" x2="0.5" y2="1.16667" style="stroke:rgb(246,147,147);stroke-width:0.01" />
<line x1="0.583333" y1="0.75" x2="0.583333" y2="1" style="stroke:rgb(246,147,147);stroke-width:0.01" />
<line x1="0.666667" y1="0.666667" x2="0.666667" y2="1.16667" style="stroke:rgb(246,147,147);stroke-width:0.01" />
<line x1="0.5" y1="0.666667" x2="0.833333" y2="1" style="stroke:rgb(246,147,147);stroke-width:0.01" />
<line x1="0.5" y1="0.833333" x2="0.833333" y2="1.16667" style="stroke:rgb(246,147,147);stroke-width:0.01" />
<line x1="0.583333" y1="0.583333" x2="0.5" y2="0.666667" style="stroke:rgb(246,147,147);stroke-width:0.01" />
<line x1="0.666667" y1="0.666667" x2="0.5" y2="0.833333" style="stroke:rgb(246,147,147);stroke-width:0.01" />
<line x1="0.666667" y1="0.833333" x2="0.5" y2="1" style="stroke:rgb(246,147,147);stroke-width:0.01" />
<line x1="0.5" y1="1" x2="0.833333" y2="1" style="stroke:rgb(246,147,147);stroke-width:0.01" />
<line x1="0.5" y1="1.16667" x2="0.833333" y2="1.16667" style="stroke:rgb(246,147,147);stroke-width:0.01" />
</svg>
