<svg xmlns="http://www.w3.org/2000/svg" viewBox="-1.5 -1.5 3 3">
<g transform="scale(1, -1)">
<path d="M0.861004 0.405405 L1.084496 0.572255 L0.953895 1.041335 L0.778378 1.003414 L0.781786 0.982327 L0.675676 0.945946 L0.691892 0.898649 L0.646558 0.877557 L0.666844 0.833954 L0.622015 0.862044 L0.503348 0.727742 L0.540817 0.694635 L0.511826 0.653898 L0.529715 0.641168 L0.508477 0.590346 L0.794458 0.452763 z " fill="rgb(245,195,195)" />
<path d="M0.000000 0.000000 L1.000000 0.000000 L1.000000 1.000000 L0.000000 1.000000  z" fill="none" stroke="rgb(128,128,128)" stroke-width="0.01" />
<line x1="0.861004" y1="0.405405" x2="1.0845" y2="0.572255" style="stroke:rgb(246,147,147);stroke-width:0.01" />
<line x1="0.508477" y1="0.590346" x2="0.622015" y2="0.862044" style="stroke:rgb(246,147,147);stroke-width:0.01" />
<line x1="0.508477" y1="0.590346" x2="0.648253" y2="0.845603" style="stroke:rgb(246,147,147);stroke-width:0.01" />
<line x1="0.511826" y1="0.653898" x2="0.648253" y2="0.845603" style="stroke:rgb(246,147,147);stroke-width:0.01" />
<line x1="0.503348" y1="0.727742" x2="0.622015" y2="0.862044" style="stroke:rgb(246,147,147);stroke-width:0.01" />
<line x1="0.873501" y1="0.414736" x2="0.778378" y2="1.00341" style="stroke:rgb(246,147,147);stroke-width:0.01" />
<line x1="0.861004" y1="0.405405" x2="0.675676" y2="0.945946" style="stroke:rgb(246,147,147);stroke-width:0.01" />
<line x1="1.0845" y1="0.572255" x2="0.953895" y2="1.04134" style="stroke:rgb(246,147,147);stroke-width:0.01" />
<line x1="0.86488" y1="0.408299" x2="0.646558" y2="0.877557" style="stroke:rgb(246,147,147);stroke-width:0.01" />
<line x1="0.646558" y1="0.877557" x2="0.95902" y2="1.02293" style="stroke:rgb(246,147,147);stroke-width:0.01" />
<line x1="0.675676" y1="0.945946" x2="0.953895" y2="1.04134" style="stroke:rgb(246,147,147);stroke-width:0.01" />
<line x1="0.86488" y1="0.408299" x2="0.503348" y2="0.727742" style="stroke:rgb(246,147,147);stroke-width:0.01" />
<line x1="0.861004" y1="0.405405" x2="0.511826" y2="0.653898" style="stroke:rgb(246,147,147);stroke-width:0.01" />
<line x1="0.873501" y1="0.414736" x2="0.508477" y2="0.590346" style="stroke:rgb(246,147,147);stroke-width:0.01" />
<line x1="0.778378" y1="1.00341" x2="0.953895" y2="1.04134" style="stroke:rgb(246,147,147);stroke-width:0.01" />
<line x1="1.0845" y1="0.572255" x2="0.622015" y2="0.862044" style="stroke:rgb(246,147,147);stroke-width:0.01" />
<line x1="0.778378" y1="1.00341" x2="0.95902" y2="1.02293" style="stroke:rgb(246,147,147);stroke-width:0.01" />
</g>
</svg>
