<svg xmlns="http://www.w3.org/2000/svg" viewBox="-1.5 -1.5 3 3">
<g transform="scale(1, -1)">
<path d="M0.030000 -0.321250 L0.280000 -0.133750 L0.342500 0.303750 L0.192500 0.503750 L-0.207500 0.203750 L-0.095000 0.053750 L-0.195000 -0.021250 L-0.157500 -0.071250 L-0.182500 -0.246250 L-0.007500 -0.271250 z " fill="rgb(245,195,195)" />
<path d="M-0.207500 -0.321250 L0.792500 -0.321250 L0.792500 0.678750 L-0.207500 0.678750  z" fill="none" stroke="rgb(128,128,128)" stroke-width="0.01" />
<line x1="0.03" y1="-0.32125" x2="0.28" y2="-0.13375" style="stroke:rgb(246,147,147);stroke-width:0.01" />
<line x1="0.28" y1="-0.13375" x2="0.3425" y2="0.30375" style="stroke:rgb(246,147,147);stroke-width:0.01" />
<line x1="0.18" y1="-0.20875" x2="0.2175" y2="0.05375" style="stroke:rgb(246,147,147);stroke-width:0.01" />
<line x1="0.08" y1="-0.28375" x2="0.1425" y2="0.15375" style="stroke:rgb(246,147,147);stroke-width:0.01" />
<line x1="0.0175" y1="-0.09625" x2="0.055" y2="0.16625" style="stroke:rgb(246,147,147);stroke-width:0.01" />
<line x1="-0.0825" y1="-0.17125" x2="-0.045" y2="0.09125" style="stroke:rgb(246,147,147);stroke-width:0.01" />
<line x1="-0.1825" y1="-0.24625" x2="-0.145" y2="0.01625" style="stroke:rgb(246,147,147);stroke-width:0.01" />
<line x1="-0.1825" y1="-0.24625" x2="0.3175" y2="0.12875" style="stroke:rgb(246,147,147);stroke-width:0.01" />
<line x1="0.08" y1="-0.28375" x2="-0.1825" y2="-0.24625" style="stroke:rgb(246,147,147);stroke-width:0.01" />
<line x1="0.03" y1="-0.32125" x2="-0.195" y2="-0.02125" style="stroke:rgb(246,147,147);stroke-width:0.01" />
<line x1="0.1425" y1="0.15375" x2="0.3425" y2="0.30375" style="stroke:rgb(246,147,147);stroke-width:0.01" />
<line x1="0.18" y1="-0.20875" x2="-0.0825" y2="-0.17125" style="stroke:rgb(246,147,147);stroke-width:0.01" />
<line x1="-0.195" y1="-0.02125" x2="0.055" y2="0.16625" style="stroke:rgb(246,147,147);stroke-width:0.01" />
<line x1="0.13" y1="-0.24625" x2="-0.2075" y2="0.20375" style="stroke:rgb(246,147,147);stroke-width:0.01" />
<line x1="0.28" y1="-0.13375" x2="0.0175" y2="-0.09625" style="stroke:rgb(246,147,147);stroke-width:0.01" />
<line x1="-0.2075" y1="0.20375" x2="0.1925" y2="0.50375" style="stroke:rgb(246,147,147);stroke-width:0.01" />
<line x1="0.2175" y1="0.05375" x2="0.1425" y2="0.15375" style="stroke:rgb(246,147,147);stroke-width:0.01" />
<line x1="0.1175" y1="-0.02125" x2="-0.145" y2="0.01625" style="stroke:rgb(246,147,147);stroke-width:0.01" />
<line x1="0.2175" y1="0.05375" x2="-0.045" y2="0.09125" style="stroke:rgb(246,147,147);stroke-width:0.01" />
<line x1="0.3425" y1="0.30375" x2="0.1925" y2="0.50375" style="stroke:rgb(246,147,147);stroke-width:0.01" />
<line x1="0.3175" y1="0.12875" x2="0.055" y2="0.16625" style="stroke:rgb(246,147,147);stroke-width:0.01" />
</g>
</svg>
