<svg xmlns="http://www.w3.org/2000/svg" viewBox="-1.5 -1.5 3 3">
<g transform="scale(1, -1)">
<path d="M401109010.891495 1081031045.343329 L401109011.404410 1081031045.952313 L401109011.442895 1081031045.940043 L401109011.472631 1081031046.033311 L401109010.617936 1081031046.505025 L401109010.575131 1081031046.520025 L401109010.180321 1081031046.051267 L401109010.381590 1081031045.772796 z " fill="rgb(245,195,195)" />
<path d="M0.000000 0.000000 L1.000000 0.000000 L1.000000 1.000000 L0.000000 1.000000  z" fill="none" stroke="rgb(128,128,128)" stroke-width="0.01" />
<line x1="4.01109e+08" y1="1.08103e+09" x2="4.01109e+08" y2="1.08103e+09" style="stroke:rgb(246,147,147);stroke-width:0.01" />
<line x1="4.01109e+08" y1="1.08103e+09" x2="4.01109e+08" y2="1.08103e+09" style="stroke:rgb(246,147,147);stroke-width:0.01" />
<line x1="4.01109e+08" y1="1.08103e+09" x2="4.01109e+08" y2="1.08103e+09" style="stroke:rgb(246,147,147);stroke-width:0.01" />
<line x1="4.01109e+08" y1="1.08103e+09" x2="4.01109e+08" y2="1.08103e+09" style="stroke:rgb(246,147,147);stroke-width:0.01" />
<line x1="4.01109e+08" y1="1.08103e+09" x2="4.01109e+08" y2="1.08103e+09" style="stroke:rgb(246,147,147);stroke-width:0.01" />
<line x1="4.01109e+08" y1="1.08103e+09" x2="4.01109e+08" y2="1.08103e+09" style="stroke:rgb(246,147,147);stroke-width:0.01" />
<line x1="4.01109e+08" y1="1.08103e+09" x2="4.01109e+08" y2="1.08103e+09" style="stroke:rgb(246,147,147);stroke-width:0.01" />
<line x1="4.01109e+08" y1="1.08103e+09" x2="4.01109e+08" y2="1.08103e+09" style="stroke:rgb(246,147,147);stroke-width:0.01" />
<line x1="4.01109e+08" y1="1.08103e+09" x2="4.01109e+08" y2="1.08103e+09" style="stroke:rgb(246,147,147);stroke-width:0.01" />
<line x1="4.01109e+08" y1="1.08103e+09" x2="4.01109e+08" y2="1.08103e+09" style="stroke:rgb(246,147,147);stroke-width:0.01" />
<line x1="4.01109e+08" y1="1.08103e+09" x2="4.01109e+08" y2="1.08103e+09" style="stroke:rgb(246,147,147);stroke-width:0.01" />
<line x1="4.01109e+08" y1="1.08103e+09" x2="4.01109e+08" y2="1.08103e+09" style="stroke:rgb(246,147,147);stroke-width:0.01" />
<line x1="4.01109e+08" y1="1.08103e+09" x2="4.01109e+08" y2="1.08103e+09" style="stroke:rgb(246,147,147);stroke-width:0.01" />
<line x1="4.01109e+08" y1="1.08103e+09" x2="4.01109e+08" y2="1.08103e+09" style="stroke:rgb(246,147,147);stroke-width:0.01" />
<line x1="4.01109e+08" y1="1.08103e+09" x2="4.01109e+08" y2="1.08103e+09" style="stroke:rgb(246,147,147);stroke-width:0.01" />
<line x1="4.01109e+08" y1="1.08103e+09" x2="4.01109e+08" y2="1.08103e+09" style="stroke:rgb(246,147,147);stroke-width:0.01" />
<line x1="4.01109e+08" y1="1.08103e+09" x2="4.01109e+08" y2="1.08103e+09" style="stroke:rgb(246,147,147);stroke-width:0.01" />
<line x1="4.01109e+08" y1="1.08103e+09" x2="4.01109e+08" y2="1.08103e+09" style="stroke:rgb(246,147,147);stroke-width:0.01" />
<line x1="4.01109e+08" y1="1.08103e+09" x2="4.01109e+08" y2="1.08103e+09" style="stroke:rgb(246,147,147);stroke-width:0.01" />
<line x1="4.01109e+08" y1="1.08103e+09" x2="4.01109e+08" y2="1.08103e+09" style="stroke:rgb(246,147,147);stroke-width:0.01" />
<line x1="4.01109e+08" y1="1.08103e+09" x2="4.01109e+08" y2="1.08103e+09" style="stroke:rgb(246,147,147);stroke-width:0.01" />
<line x1="4.01109e+08" y1="1.08103e+09" x2="4.01109e+08" y2="1.08103e+09" style="stroke:rgb(246,147,147);stroke-width:0.01" />
</g>
</svg>
