<svg xmlns="http://www.w3.org/2000/svg" viewBox="-1.5 -1.5 3 3">
<g transform="scale(1, -1)">
<path d="M0.020694 -0.671434 L0.533609 -0.062451 L0.572094 -0.074721 L0.601830 0.018548 L-0.252865 0.490261 L-0.295670 0.505261 L-0.690480 0.036504 L-0.489211 -0.241968 z " fill="rgb(245,195,195)" />
<path d="M-401109010.870801 -1081031046.014764 L-401109009.870801 -1081031046.014764 L-401109009.870801 -1081031045.014764 L-401109010.870801 -1081031045.014764  z" fill="none" stroke="rgb(128,128,128)" stroke-width="0.01" />
<line x1="-0.241664" y1="0.479825" x2="-0.240523" y2="0.483449" style="stroke:rgb(246,147,147);stroke-width:0.01" />
<line x1="0.572094" y1="-0.0747207" x2="0.60183" y2="0.0185478" style="stroke:rgb(246,147,147);stroke-width:0.01" />
<line x1="-0.291691" y1="0.351515" x2="-0.240655" y2="0.483522" style="stroke:rgb(246,147,147);stroke-width:0.01" />
<line x1="-0.291691" y1="0.351515" x2="-0.29567" y2="0.505261" style="stroke:rgb(246,147,147);stroke-width:0.01" />
<line x1="-0.242041" y1="0.481658" x2="-0.240655" y2="0.483522" style="stroke:rgb(246,147,147);stroke-width:0.01" />
<line x1="0.0206936" y1="-0.671434" x2="0.60183" y2="0.0185478" style="stroke:rgb(246,147,147);stroke-width:0.01" />
<line x1="-0.69048" y1="0.0365036" x2="-0.29567" y2="0.505261" style="stroke:rgb(246,147,147);stroke-width:0.01" />
<line x1="-0.242041" y1="0.481658" x2="-0.240523" y2="0.483449" style="stroke:rgb(246,147,147);stroke-width:0.01" />
<line x1="-0.489211" y1="-0.241968" x2="-0.613118" y2="0.0674804" style="stroke:rgb(246,147,147);stroke-width:0.01" />
<line x1="0.381544" y1="-0.0139685" x2="0.355996" y2="0.0290116" style="stroke:rgb(246,147,147);stroke-width:0.01" />
<line x1="-0.489211" y1="-0.241968" x2="-0.69048" y2="0.0365036" style="stroke:rgb(246,147,147);stroke-width:0.01" />
<line x1="0.355996" y1="0.0290116" x2="0.131284" y2="0.278246" style="stroke:rgb(246,147,147);stroke-width:0.01" />
<line x1="-0.69048" y1="0.0365036" x2="-0.613118" y2="0.0674804" style="stroke:rgb(246,147,147);stroke-width:0.01" />
<line x1="-0.0909866" y1="0.3616" x2="-0.223706" y2="0.474168" style="stroke:rgb(246,147,147);stroke-width:0.01" />
<line x1="0.0206936" y1="-0.671434" x2="-0.489211" y2="-0.241968" style="stroke:rgb(246,147,147);stroke-width:0.01" />
<line x1="0.381544" y1="-0.0139685" x2="-0.252865" y2="0.490261" style="stroke:rgb(246,147,147);stroke-width:0.01" />
<line x1="0.355996" y1="0.0290116" x2="-0.0909866" y2="0.3616" style="stroke:rgb(246,147,147);stroke-width:0.01" />
<line x1="0.60183" y1="0.0185478" x2="-0.252865" y2="0.490261" style="stroke:rgb(246,147,147);stroke-width:0.01" />
<line x1="-0.252865" y1="0.490261" x2="-0.29567" y2="0.505261" style="stroke:rgb(246,147,147);stroke-width:0.01" />
<line x1="0.572094" y1="-0.0747207" x2="0.381544" y2="-0.0139685" style="stroke:rgb(246,147,147);stroke-width:0.01" />
<line x1="-0.223706" y1="0.474168" x2="-0.241664" y2="0.479825" style="stroke:rgb(246,147,147);stroke-width:0.01" />
<line x1="0.131284" y1="0.278246" x2="-0.291691" y2="0.351515" style="stroke:rgb(246,147,147);stroke-width:0.01" />
</g>
</svg>
