<svg xmlns="http://www.w3.org/2000/svg" viewBox="-1.5 -1.5 3 3">
<g transform="scale(1, -1)">
<path d="M0.034987 -0.265822 L0.251971 -0.136208 L0.308776 0.080199 L0.189488 0.228544 L-0.057285 0.240522 L-0.284938 0.182996 L-0.302438 -0.078261 L-0.140563 -0.251970 z " fill="rgb(245,195,195)" />
<path d="M-1.539247 -1.762209 L-0.539247 -1.762209 L-0.539247 -0.762209 L-1.539247 -0.762209  z" fill="none" stroke="rgb(128,128,128)" stroke-width="0.01" />
<line x1="0.251971" y1="-0.136208" x2="0.308776" y2="0.0801989" style="stroke:rgb(246,147,147);stroke-width:0.01" />
<line x1="0.0485621" y1="-0.0311583" x2="0.0797816" y2="0.0752132" style="stroke:rgb(246,147,147);stroke-width:0.01" />
<line x1="-0.0737487" y1="0.0427001" x2="-0.0106897" y2="0.143038" style="stroke:rgb(246,147,147);stroke-width:0.01" />
<line x1="0.0349875" y1="-0.265822" x2="0.0659782" y2="0.126934" style="stroke:rgb(246,147,147);stroke-width:0.01" />
<line x1="-0.0930069" y1="-0.196035" x2="-0.0572847" y2="0.240522" style="stroke:rgb(246,147,147);stroke-width:0.01" />
<line x1="-0.217038" y1="-0.0303701" x2="-0.0826229" y2="0.181722" style="stroke:rgb(246,147,147);stroke-width:0.01" />
<line x1="-0.302438" y1="-0.0782609" x2="-0.284938" y2="0.182996" style="stroke:rgb(246,147,147);stroke-width:0.01" />
<line x1="-0.0645083" y1="-0.222709" x2="0.0231706" y2="-0.129033" style="stroke:rgb(246,147,147);stroke-width:0.01" />
<line x1="-0.302438" y1="-0.0782609" x2="-0.14554" y2="0.141344" style="stroke:rgb(246,147,147);stroke-width:0.01" />
<line x1="-0.140563" y1="-0.25197" x2="-0.138149" y2="0.00772673" style="stroke:rgb(246,147,147);stroke-width:0.01" />
<line x1="-0.140563" y1="-0.25197" x2="0.0148899" y2="-0.0855036" style="stroke:rgb(246,147,147);stroke-width:0.01" />
<line x1="-0.126695" y1="0.00484872" x2="0.0104666" y2="0.172382" style="stroke:rgb(246,147,147);stroke-width:0.01" />
<line x1="0.192316" y1="-0.00538786" x2="0.189488" y2="0.228544" style="stroke:rgb(246,147,147);stroke-width:0.01" />
<line x1="0.0258809" y1="-0.066676" x2="0.146659" y2="0.0580378" style="stroke:rgb(246,147,147);stroke-width:0.01" />
<line x1="0.128444" y1="-0.0843717" x2="0.308776" y2="0.0801989" style="stroke:rgb(246,147,147);stroke-width:0.01" />
<line x1="0.0390306" y1="0.091758" x2="0.189488" y2="0.228544" style="stroke:rgb(246,147,147);stroke-width:0.01" />
<line x1="0.0258809" y1="-0.066676" x2="-0.0106897" y2="0.143038" style="stroke:rgb(246,147,147);stroke-width:0.01" />
<line x1="0.0231706" y1="-0.129033" x2="-0.0572847" y2="0.240522" style="stroke:rgb(246,147,147);stroke-width:0.01" />
<line x1="0.0349875" y1="-0.265822" x2="0.251971" y2="-0.136208" style="stroke:rgb(246,147,147);stroke-width:0.01" />
<line x1="-0.0930069" y1="-0.196035" x2="0.192316" y2="-0.00538786" style="stroke:rgb(246,147,147);stroke-width:0.01" />
<line x1="-0.217038" y1="-0.0303701" x2="-0.284938" y2="0.182996" style="stroke:rgb(246,147,147);stroke-width:0.01" />
<line x1="-0.138149" y1="0.00772673" x2="0.0659782" y2="0.126934" style="stroke:rgb(246,147,147);stroke-width:0.01" />
<line x1="0.128444" y1="-0.0843717" x2="0.0390306" y2="0.091758" style="stroke:rgb(246,147,147);stroke-width:0.01" />
<line x1="0.0349875" y1="-0.265822" x2="-0.126695" y2="0.00484872" style="stroke:rgb(246,147,147);stroke-width:0.01" />
<line x1="0.251971" y1="-0.136208" x2="0.146659" y2="0.0580378" style="stroke:rgb(246,147,147);stroke-width:0.01" />
<line x1="0.0485621" y1="-0.0311583" x2="-0.0826229" y2="0.181722" style="stroke:rgb(246,147,147);stroke-width:0.01" />
<line x1="0.0148899" y1="-0.0855036" x2="-0.14554" y2="0.141344" style="stroke:rgb(246,147,147);stroke-width:0.01" />
<line x1="-0.140563" y1="-0.25197" x2="-0.302438" y2="-0.0782609" style="stroke:rgb(246,147,147);stroke-width:0.01" />
<line x1="-0.126695" y1="0.00484872" x2="0.146659" y2="0.0580378" style="stroke:rgb(246,147,147);stroke-width:0.01" />
<line x1="-0.302438" y1="-0.0782609" x2="0.0485621" y2="-0.0311583" style="stroke:rgb(246,147,147);stroke-width:0.01" />
<line x1="-0.284938" y1="0.182996" x2="-0.0572847" y2="0.240522" style="stroke:rgb(246,147,147);stroke-width:0.01" />
<line x1="-0.0645083" y1="-0.222709" x2="-0.0930069" y2="-0.196035" style="stroke:rgb(246,147,147);stroke-width:0.01" />
<line x1="0.0349875" y1="-0.265822" x2="-0.140563" y2="-0.25197" style="stroke:rgb(246,147,147);stroke-width:0.01" />
<line x1="0.308776" y1="0.0801989" x2="0.189488" y2="0.228544" style="stroke:rgb(246,147,147);stroke-width:0.01" />
<line x1="0.0148899" y1="-0.0855036" x2="-0.138149" y2="0.00772673" style="stroke:rgb(246,147,147);stroke-width:0.01" />
<line x1="0.0659782" y1="0.126934" x2="0.0104666" y2="0.172382" style="stroke:rgb(246,147,147);stroke-width:0.01" />
<line x1="0.0231706" y1="-0.129033" x2="-0.217038" y2="-0.0303701" style="stroke:rgb(246,147,147);stroke-width:0.01" />
<line x1="-0.0826229" y1="0.181722" x2="-0.284938" y2="0.182996" style="stroke:rgb(246,147,147);stroke-width:0.01" />
<line x1="0.128444" y1="-0.0843717" x2="-0.0737487" y2="0.0427001" style="stroke:rgb(246,147,147);stroke-width:0.01" />
<line x1="0.251971" y1="-0.136208" x2="0.0258809" y2="-0.066676" style="stroke:rgb(246,147,147);stroke-width:0.01" />
<line x1="0.192316" y1="-0.00538786" x2="0.0390306" y2="0.091758" style="stroke:rgb(246,147,147);stroke-width:0.01" />
<line x1="0.189488" y1="0.228544" x2="-0.0572847" y2="0.240522" style="stroke:rgb(246,147,147);stroke-width:0.01" />
<line x1="0.308776" y1="0.0801989" x2="-0.0106897" y2="0.143038" style="stroke:rgb(246,147,147);stroke-width:0.01" />
<line x1="0.0797816" y1="0.0752132" x2="-0.14554" y2="0.141344" style="stroke:rgb(246,147,147);stroke-width:0.01" />
</g>
</svg>
