<svg xmlns="http://www.w3.org/2000/svg" viewBox="-1.5 -1.5 3 3">
<g transform="scale(1, -1)">
<path d="M2.863165 0.356689 L3.012682 0.377815 L3.206206 0.494469 L3.279267 0.648237 L3.227455 0.809953 L3.133607 0.969522 L2.955441 0.981210 L2.756030 0.853297 L2.694743 0.722046 L2.711884 0.551534 z " fill="rgb(245,195,195)" />
<path d="M0.000000 0.000000 L1.000000 0.000000 L1.000000 1.000000 L0.000000 1.000000  z" fill="none" stroke="rgb(128,128,128)" stroke-width="0.01" />
<line x1="2.90911" y1="0.549635" x2="3.08722" y2="0.770428" style="stroke:rgb(246,147,147);stroke-width:0.01" />
<line x1="2.93741" y1="0.599083" x2="3.0774" y2="0.79392" style="stroke:rgb(246,147,147);stroke-width:0.01" />
<line x1="3.20621" y1="0.494469" x2="3.27927" y2="0.648237" style="stroke:rgb(246,147,147);stroke-width:0.01" />
<line x1="2.86316" y1="0.356689" x2="3.1604" y2="0.573563" style="stroke:rgb(246,147,147);stroke-width:0.01" />
<line x1="3.01268" y1="0.377815" x2="3.20621" y2="0.494469" style="stroke:rgb(246,147,147);stroke-width:0.01" />
<line x1="2.90054" y1="0.781927" x2="3.13361" y2="0.969522" style="stroke:rgb(246,147,147);stroke-width:0.01" />
<line x1="2.69474" y1="0.722046" x2="2.75603" y2="0.853297" style="stroke:rgb(246,147,147);stroke-width:0.01" />
<line x1="2.95057" y1="0.602589" x2="3.12906" y2="0.701058" style="stroke:rgb(246,147,147);stroke-width:0.01" />
<line x1="2.99226" y1="0.607925" x2="3.15584" y2="0.694151" style="stroke:rgb(246,147,147);stroke-width:0.01" />
<line x1="2.92442" y1="0.521355" x2="2.96729" y2="0.665269" style="stroke:rgb(246,147,147);stroke-width:0.01" />
<line x1="3.00686" y1="0.692295" x2="3.22745" y2="0.809953" style="stroke:rgb(246,147,147);stroke-width:0.01" />
<line x1="2.90701" y1="0.690041" x2="3.04985" y2="0.766364" style="stroke:rgb(246,147,147);stroke-width:0.01" />
<line x1="2.75603" y1="0.853297" x2="2.95544" y2="0.98121" style="stroke:rgb(246,147,147);stroke-width:0.01" />
<line x1="2.71188" y1="0.551534" x2="2.96729" y2="0.665269" style="stroke:rgb(246,147,147);stroke-width:0.01" />
<line x1="3.07283" y1="0.589298" x2="3.27927" y2="0.648237" style="stroke:rgb(246,147,147);stroke-width:0.01" />
<line x1="2.93741" y1="0.599083" x2="3.1413" y2="0.660303" style="stroke:rgb(246,147,147);stroke-width:0.01" />
<line x1="2.90701" y1="0.690041" x2="2.91433" y2="0.78391" style="stroke:rgb(246,147,147);stroke-width:0.01" />
<line x1="2.94279" y1="0.765693" x2="2.95544" y2="0.98121" style="stroke:rgb(246,147,147);stroke-width:0.01" />
<line x1="3.00077" y1="0.747608" x2="3.22745" y2="0.809953" style="stroke:rgb(246,147,147);stroke-width:0.01" />
<line x1="2.86316" y1="0.356689" x2="3.01268" y2="0.377815" style="stroke:rgb(246,147,147);stroke-width:0.01" />
<line x1="2.90911" y1="0.549635" x2="2.98627" y2="0.564711" style="stroke:rgb(246,147,147);stroke-width:0.01" />
<line x1="2.92442" y1="0.521355" x2="2.92275" y2="0.744968" style="stroke:rgb(246,147,147);stroke-width:0.01" />
<line x1="2.94279" y1="0.765693" x2="3.0774" y2="0.79392" style="stroke:rgb(246,147,147);stroke-width:0.01" />
<line x1="2.84149" y1="0.551969" x2="3.15761" y2="0.594344" style="stroke:rgb(246,147,147);stroke-width:0.01" />
<line x1="3.15584" y1="0.694151" x2="3.13361" y2="0.969522" style="stroke:rgb(246,147,147);stroke-width:0.01" />
<line x1="2.71188" y1="0.551534" x2="2.69474" y2="0.722046" style="stroke:rgb(246,147,147);stroke-width:0.01" />
<line x1="2.84149" y1="0.551969" x2="2.98627" y2="0.564711" style="stroke:rgb(246,147,147);stroke-width:0.01" />
<line x1="2.86316" y1="0.356689" x2="2.84149" y2="0.551969" style="stroke:rgb(246,147,147);stroke-width:0.01" />
<line x1="3.00686" y1="0.692295" x2="3.00077" y2="0.747608" style="stroke:rgb(246,147,147);stroke-width:0.01" />
<line x1="3.07283" y1="0.589298" x2="3.04985" y2="0.766364" style="stroke:rgb(246,147,147);stroke-width:0.01" />
<line x1="3.01268" y1="0.377815" x2="2.98627" y2="0.564711" style="stroke:rgb(246,147,147);stroke-width:0.01" />
<line x1="3.1604" y1="0.573563" x2="3.15761" y2="0.594344" style="stroke:rgb(246,147,147);stroke-width:0.01" />
<line x1="2.69474" y1="0.722046" x2="2.92275" y2="0.744968" style="stroke:rgb(246,147,147);stroke-width:0.01" />
<line x1="2.95057" y1="0.602589" x2="2.92275" y2="0.744968" style="stroke:rgb(246,147,147);stroke-width:0.01" />
<line x1="2.92442" y1="0.521355" x2="2.71188" y2="0.551534" style="stroke:rgb(246,147,147);stroke-width:0.01" />
<line x1="3.1413" y1="0.660303" x2="3.12906" y2="0.701058" style="stroke:rgb(246,147,147);stroke-width:0.01" />
<line x1="3.08722" y1="0.770428" x2="2.91433" y2="0.78391" style="stroke:rgb(246,147,147);stroke-width:0.01" />
<line x1="3.27927" y1="0.648237" x2="3.22745" y2="0.809953" style="stroke:rgb(246,147,147);stroke-width:0.01" />
<line x1="3.13361" y1="0.969522" x2="2.95544" y2="0.98121" style="stroke:rgb(246,147,147);stroke-width:0.01" />
<line x1="3.20621" y1="0.494469" x2="3.08722" y2="0.770428" style="stroke:rgb(246,147,147);stroke-width:0.01" />
<line x1="3.07283" y1="0.589298" x2="3.00077" y2="0.747608" style="stroke:rgb(246,147,147);stroke-width:0.01" />
<line x1="2.99226" y1="0.607925" x2="2.90054" y2="0.781927" style="stroke:rgb(246,147,147);stroke-width:0.01" />
<line x1="3.01268" y1="0.377815" x2="2.90911" y2="0.549635" style="stroke:rgb(246,147,147);stroke-width:0.01" />
<line x1="2.86316" y1="0.356689" x2="2.71188" y2="0.551534" style="stroke:rgb(246,147,147);stroke-width:0.01" />
<line x1="3.15584" y1="0.694151" x2="2.94279" y2="0.765693" style="stroke:rgb(246,147,147);stroke-width:0.01" />
<line x1="2.93741" y1="0.599083" x2="2.75603" y2="0.853297" style="stroke:rgb(246,147,147);stroke-width:0.01" />
<line x1="3.22745" y1="0.809953" x2="3.13361" y2="0.969522" style="stroke:rgb(246,147,147);stroke-width:0.01" />
<line x1="2.95057" y1="0.602589" x2="2.69474" y2="0.722046" style="stroke:rgb(246,147,147);stroke-width:0.01" />
<line x1="3.0774" y1="0.79392" x2="2.95544" y2="0.98121" style="stroke:rgb(246,147,147);stroke-width:0.01" />
<line x1="3.1604" y1="0.573563" x2="2.96729" y2="0.665269" style="stroke:rgb(246,147,147);stroke-width:0.01" />
<line x1="3.12906" y1="0.701058" x2="2.75603" y2="0.853297" style="stroke:rgb(246,147,147);stroke-width:0.01" />
<line x1="3.20621" y1="0.494469" x2="2.90701" y2="0.690041" style="stroke:rgb(246,147,147);stroke-width:0.01" />
<line x1="3.27927" y1="0.648237" x2="3.04985" y2="0.766364" style="stroke:rgb(246,147,147);stroke-width:0.01" />
<line x1="3.00686" y1="0.692295" x2="2.90054" y2="0.781927" style="stroke:rgb(246,147,147);stroke-width:0.01" />
</g>
</svg>
