<svg xmlns="http://www.w3.org/2000/svg" viewBox="-1.5 -1.5 3 3">
<g transform="scale(1, -1)">
<path d="M-0.120883 -0.319788 L0.028634 -0.298663 L0.222158 -0.182008 L0.295219 -0.028240 L0.243407 0.133476 L0.149559 0.293045 L-0.028607 0.304733 L-0.228018 0.176820 L-0.289305 0.045569 L-0.272164 -0.124943 z " fill="rgb(245,195,195)" />
<path d="M-2.984048 -0.676477 L-1.984048 -0.676477 L-1.984048 0.323523 L-2.984048 0.323523  z" fill="none" stroke="rgb(128,128,128)" stroke-width="0.01" />
<line x1="-0.0749376" y1="-0.126842" x2="0.103174" y2="0.0939506" style="stroke:rgb(246,147,147);stroke-width:0.01" />
<line x1="-0.0466411" y1="-0.077394" x2="0.0933557" y2="0.117443" style="stroke:rgb(246,147,147);stroke-width:0.01" />
<line x1="0.222158" y1="-0.182008" x2="0.295219" y2="-0.0282405" style="stroke:rgb(246,147,147);stroke-width:0.01" />
<line x1="-0.120883" y1="-0.319788" x2="0.176351" y2="-0.102914" style="stroke:rgb(246,147,147);stroke-width:0.01" />
<line x1="0.028634" y1="-0.298663" x2="0.222158" y2="-0.182008" style="stroke:rgb(246,147,147);stroke-width:0.01" />
<line x1="-0.0835047" y1="0.10545" x2="0.149559" y2="0.293045" style="stroke:rgb(246,147,147);stroke-width:0.01" />
<line x1="-0.289305" y1="0.0455691" x2="-0.228018" y2="0.17682" style="stroke:rgb(246,147,147);stroke-width:0.01" />
<line x1="-0.0334767" y1="-0.0738887" x2="0.145012" y2="0.0245809" style="stroke:rgb(246,147,147);stroke-width:0.01" />
<line x1="0.00821573" y1="-0.0685524" x2="0.171795" y2="0.0176741" style="stroke:rgb(246,147,147);stroke-width:0.01" />
<line x1="-0.0596319" y1="-0.155122" x2="-0.0167571" y2="-0.0112086" style="stroke:rgb(246,147,147);stroke-width:0.01" />
<line x1="0.0228121" y1="0.0158179" x2="0.243407" y2="0.133476" style="stroke:rgb(246,147,147);stroke-width:0.01" />
<line x1="-0.0770348" y1="0.0135633" x2="0.0658068" y2="0.0898868" style="stroke:rgb(246,147,147);stroke-width:0.01" />
<line x1="-0.228018" y1="0.17682" x2="-0.028607" y2="0.304733" style="stroke:rgb(246,147,147);stroke-width:0.01" />
<line x1="-0.272164" y1="-0.124943" x2="-0.0167571" y2="-0.0112086" style="stroke:rgb(246,147,147);stroke-width:0.01" />
<line x1="0.0887858" y1="-0.087179" x2="0.295219" y2="-0.0282405" style="stroke:rgb(246,147,147);stroke-width:0.01" />
<line x1="-0.0466411" y1="-0.077394" x2="0.157249" y2="-0.0161746" style="stroke:rgb(246,147,147);stroke-width:0.01" />
<line x1="-0.0770348" y1="0.0135633" x2="-0.0697146" y2="0.107433" style="stroke:rgb(246,147,147);stroke-width:0.01" />
<line x1="-0.0412583" y1="0.0892159" x2="-0.028607" y2="0.304733" style="stroke:rgb(246,147,147);stroke-width:0.01" />
<line x1="0.0167239" y1="0.0711312" x2="0.243407" y2="0.133476" style="stroke:rgb(246,147,147);stroke-width:0.01" />
<line x1="-0.120883" y1="-0.319788" x2="0.028634" y2="-0.298663" style="stroke:rgb(246,147,147);stroke-width:0.01" />
<line x1="-0.0749376" y1="-0.126842" x2="0.00222672" y2="-0.111766" style="stroke:rgb(246,147,147);stroke-width:0.01" />
<line x1="-0.0596319" y1="-0.155122" x2="-0.0612945" y2="0.0684905" style="stroke:rgb(246,147,147);stroke-width:0.01" />
<line x1="-0.0412583" y1="0.0892159" x2="0.0933557" y2="0.117443" style="stroke:rgb(246,147,147);stroke-width:0.01" />
<line x1="-0.142553" y1="-0.124508" x2="0.173566" y2="-0.0821337" style="stroke:rgb(246,147,147);stroke-width:0.01" />
<line x1="0.171795" y1="0.0176741" x2="0.149559" y2="0.293045" style="stroke:rgb(246,147,147);stroke-width:0.01" />
<line x1="-0.272164" y1="-0.124943" x2="-0.289305" y2="0.0455691" style="stroke:rgb(246,147,147);stroke-width:0.01" />
<line x1="-0.142553" y1="-0.124508" x2="0.00222672" y2="-0.111766" style="stroke:rgb(246,147,147);stroke-width:0.01" />
<line x1="-0.120883" y1="-0.319788" x2="-0.142553" y2="-0.124508" style="stroke:rgb(246,147,147);stroke-width:0.01" />
<line x1="0.0228121" y1="0.0158179" x2="0.0167239" y2="0.0711312" style="stroke:rgb(246,147,147);stroke-width:0.01" />
<line x1="0.0887858" y1="-0.087179" x2="0.0658068" y2="0.0898868" style="stroke:rgb(246,147,147);stroke-width:0.01" />
<line x1="0.028634" y1="-0.298663" x2="0.00222672" y2="-0.111766" style="stroke:rgb(246,147,147);stroke-width:0.01" />
<line x1="0.176351" y1="-0.102914" x2="0.173566" y2="-0.0821337" style="stroke:rgb(246,147,147);stroke-width:0.01" />
<line x1="-0.289305" y1="0.0455691" x2="-0.0612945" y2="0.0684905" style="stroke:rgb(246,147,147);stroke-width:0.01" />
<line x1="-0.0334767" y1="-0.0738887" x2="-0.0612945" y2="0.0684905" style="stroke:rgb(246,147,147);stroke-width:0.01" />
<line x1="-0.0596319" y1="-0.155122" x2="-0.272164" y2="-0.124943" style="stroke:rgb(246,147,147);stroke-width:0.01" />
<line x1="0.157249" y1="-0.0161746" x2="0.145012" y2="0.0245809" style="stroke:rgb(246,147,147);stroke-width:0.01" />
<line x1="0.103174" y1="0.0939506" x2="-0.0697146" y2="0.107433" style="stroke:rgb(246,147,147);stroke-width:0.01" />
<line x1="0.295219" y1="-0.0282405" x2="0.243407" y2="0.133476" style="stroke:rgb(246,147,147);stroke-width:0.01" />
<line x1="0.149559" y1="0.293045" x2="-0.028607" y2="0.304733" style="stroke:rgb(246,147,147);stroke-width:0.01" />
<line x1="0.222158" y1="-0.182008" x2="0.103174" y2="0.0939506" style="stroke:rgb(246,147,147);stroke-width:0.01" />
<line x1="0.0887858" y1="-0.087179" x2="0.0167239" y2="0.0711312" style="stroke:rgb(246,147,147);stroke-width:0.01" />
<line x1="0.00821573" y1="-0.0685524" x2="-0.0835047" y2="0.10545" style="stroke:rgb(246,147,147);stroke-width:0.01" />
<line x1="0.028634" y1="-0.298663" x2="-0.0749376" y2="-0.126842" style="stroke:rgb(246,147,147);stroke-width:0.01" />
<line x1="-0.120883" y1="-0.319788" x2="-0.272164" y2="-0.124943" style="stroke:rgb(246,147,147);stroke-width:0.01" />
<line x1="0.171795" y1="0.0176741" x2="-0.0412583" y2="0.0892159" style="stroke:rgb(246,147,147);stroke-width:0.01" />
<line x1="-0.0466411" y1="-0.077394" x2="-0.228018" y2="0.17682" style="stroke:rgb(246,147,147);stroke-width:0.01" />
<line x1="0.243407" y1="0.133476" x2="0.149559" y2="0.293045" style="stroke:rgb(246,147,147);stroke-width:0.01" />
<line x1="-0.0334767" y1="-0.0738887" x2="-0.289305" y2="0.0455691" style="stroke:rgb(246,147,147);stroke-width:0.01" />
<line x1="0.0933557" y1="0.117443" x2="-0.028607" y2="0.304733" style="stroke:rgb(246,147,147);stroke-width:0.01" />
<line x1="0.176351" y1="-0.102914" x2="-0.0167571" y2="-0.0112086" style="stroke:rgb(246,147,147);stroke-width:0.01" />
<line x1="0.145012" y1="0.0245809" x2="-0.228018" y2="0.17682" style="stroke:rgb(246,147,147);stroke-width:0.01" />
<line x1="0.222158" y1="-0.182008" x2="-0.0770348" y2="0.0135633" style="stroke:rgb(246,147,147);stroke-width:0.01" />
<line x1="0.295219" y1="-0.0282405" x2="0.0658068" y2="0.0898868" style="stroke:rgb(246,147,147);stroke-width:0.01" />
<line x1="0.0228121" y1="0.0158179" x2="-0.0835047" y2="0.10545" style="stroke:rgb(246,147,147);stroke-width:0.01" />
</g>
</svg>
