<svg xmlns="http://www.w3.org/2000/svg" viewBox="-1.5 -1.5 3 3">
<g transform="scale(1, -1)">
<path d="M0.811354 1.119838 L0.892874 1.554889 L0.767521 1.584615 L0.739438 1.474038 L0.717106 1.404840 L0.477350 1.457692 L0.450000 1.350000 L0.456845 1.348262 L0.451770 1.321180 L0.676514 1.279065 L0.703737 1.295261 L0.671847 1.150591 L0.706512 1.142949 L0.705471 1.136220 z " fill="rgb(245,195,195)" />
<path d="M0.000000 0.000000 L1.000000 0.000000 L1.000000 1.000000 L0.000000 1.000000  z" fill="none" stroke="rgb(128,128,128)" stroke-width="0.01" />
<line x1="0.84174" y1="1.37736" x2="0.892874" y2="1.55489" style="stroke:rgb(246,147,147);stroke-width:0.01" />
<line x1="0.811354" y1="1.11984" x2="0.892874" y2="1.55489" style="stroke:rgb(246,147,147);stroke-width:0.01" />
<line x1="0.671847" y1="1.15059" x2="0.767521" y2="1.58462" style="stroke:rgb(246,147,147);stroke-width:0.01" />
<line x1="0.692308" y1="1.28846" x2="0.767521" y2="1.58462" style="stroke:rgb(246,147,147);stroke-width:0.01" />
<line x1="0.705471" y1="1.13622" x2="0.774585" y2="1.58294" style="stroke:rgb(246,147,147);stroke-width:0.01" />
<line x1="0.676514" y1="1.27907" x2="0.774585" y2="1.58294" style="stroke:rgb(246,147,147);stroke-width:0.01" />
<line x1="0.45177" y1="1.32118" x2="0.47735" y2="1.45769" style="stroke:rgb(246,147,147);stroke-width:0.01" />
<line x1="0.45" y1="1.35" x2="0.47735" y2="1.45769" style="stroke:rgb(246,147,147);stroke-width:0.01" />
<line x1="0.676514" y1="1.27907" x2="0.84174" y2="1.37736" style="stroke:rgb(246,147,147);stroke-width:0.01" />
<line x1="0.811354" y1="1.11984" x2="0.705471" y2="1.13622" style="stroke:rgb(246,147,147);stroke-width:0.01" />
<line x1="0.811354" y1="1.11984" x2="0.671847" y2="1.15059" style="stroke:rgb(246,147,147);stroke-width:0.01" />
<line x1="0.676514" y1="1.27907" x2="0.45177" y2="1.32118" style="stroke:rgb(246,147,147);stroke-width:0.01" />
<line x1="0.692308" y1="1.28846" x2="0.45" y2="1.35" style="stroke:rgb(246,147,147);stroke-width:0.01" />
<line x1="0.84174" y1="1.37736" x2="0.47735" y2="1.45769" style="stroke:rgb(246,147,147);stroke-width:0.01" />
<line x1="0.892874" y1="1.55489" x2="0.767521" y2="1.58462" style="stroke:rgb(246,147,147);stroke-width:0.01" />
</g>
</svg>
