<svg xmlns="http://www.w3.org/2000/svg" viewBox="-1.5 -1.5 3 3">
<g transform="scale(1, -1)">
<path d="M0.152187 -0.210122 L0.233707 0.224929 L0.108354 0.254655 L0.080271 0.144078 L0.057938 0.074879 L-0.181817 0.127732 L-0.209167 0.020040 L-0.202323 0.018302 L-0.207397 -0.008781 L0.017347 -0.050895 L0.044570 -0.034699 L0.012679 -0.179369 L0.047345 -0.187011 L0.046304 -0.193740 z " fill="rgb(245,195,195)" />
<path d="M-0.659167 -1.329960 L0.340833 -1.329960 L0.340833 -0.329960 L-0.659167 -0.329960  z" fill="none" stroke="rgb(128,128,128)" stroke-width="0.01" />
<line x1="0.182573" y1="0.0474043" x2="0.233707" y2="0.224929" style="stroke:rgb(246,147,147);stroke-width:0.01" />
<line x1="0.152187" y1="-0.210122" x2="0.233707" y2="0.224929" style="stroke:rgb(246,147,147);stroke-width:0.01" />
<line x1="0.0126794" y1="-0.179369" x2="0.108354" y2="0.254655" style="stroke:rgb(246,147,147);stroke-width:0.01" />
<line x1="0.0331406" y1="-0.0414986" x2="0.108354" y2="0.254655" style="stroke:rgb(246,147,147);stroke-width:0.01" />
<line x1="0.0463042" y1="-0.19374" x2="0.115418" y2="0.25298" style="stroke:rgb(246,147,147);stroke-width:0.01" />
<line x1="0.0173468" y1="-0.0508949" x2="0.115418" y2="0.25298" style="stroke:rgb(246,147,147);stroke-width:0.01" />
<line x1="-0.207397" y1="-0.0087806" x2="-0.181817" y2="0.127732" style="stroke:rgb(246,147,147);stroke-width:0.01" />
<line x1="-0.209167" y1="0.0200399" x2="-0.181817" y2="0.127732" style="stroke:rgb(246,147,147);stroke-width:0.01" />
<line x1="0.0173468" y1="-0.0508949" x2="0.182573" y2="0.0474043" style="stroke:rgb(246,147,147);stroke-width:0.01" />
<line x1="0.152187" y1="-0.210122" x2="0.0463042" y2="-0.19374" style="stroke:rgb(246,147,147);stroke-width:0.01" />
<line x1="0.152187" y1="-0.210122" x2="0.0126794" y2="-0.179369" style="stroke:rgb(246,147,147);stroke-width:0.01" />
<line x1="0.0173468" y1="-0.0508949" x2="-0.207397" y2="-0.0087806" style="stroke:rgb(246,147,147);stroke-width:0.01" />
<line x1="0.0331406" y1="-0.0414986" x2="-0.209167" y2="0.0200399" style="stroke:rgb(246,147,147);stroke-width:0.01" />
<line x1="0.182573" y1="0.0474043" x2="-0.181817" y2="0.127732" style="stroke:rgb(246,147,147);stroke-width:0.01" />
<line x1="0.233707" y1="0.224929" x2="0.108354" y2="0.254655" style="stroke:rgb(246,147,147);stroke-width:0.01" />
</g>
</svg>
