<svg xmlns="http://www.w3.org/2000/svg" viewBox="-1.5 -1.5 3 3">
<g transform="scale(1, -1)">
<path d="M0.310016 -0.358625 L0.334184 -0.259561 L0.218382 -0.129641 L0.239839 -0.079219 L0.233060 -0.076308 L0.310374 0.347778 L0.146443 0.377665 L0.042661 0.245724 L-0.081792 0.290805 L-0.127958 0.399926 L-0.209109 0.414721 L-0.278932 0.031729 L-0.273932 0.030087 L-0.381212 -0.207396 L-0.210220 -0.284640 L-0.134717 -0.215695 L-0.068246 -0.261155 L-0.068844 -0.266196 z " fill="rgb(245,195,195)" />
<path d="M-1.282870 -2.674713 L-0.282870 -2.674713 L-0.282870 -1.674713 L-1.282870 -1.674713  z" fill="none" stroke="rgb(128,128,128)" stroke-width="0.01" />
<line x1="0.310016" y1="-0.358625" x2="0.334184" y2="-0.259561" style="stroke:rgb(246,147,147);stroke-width:0.01" />
<line x1="0.227223" y1="-0.108323" x2="0.310374" y2="0.347778" style="stroke:rgb(246,147,147);stroke-width:0.01" />
<line x1="0.153473" y1="-0.282178" x2="0.239839" y2="-0.0792193" style="stroke:rgb(246,147,147);stroke-width:0.01" />
<line x1="0.227223" y1="-0.108323" x2="0.239839" y2="-0.0792193" style="stroke:rgb(246,147,147);stroke-width:0.01" />
<line x1="-0.0609119" y1="-0.26617" x2="0.0578137" y2="0.119924" style="stroke:rgb(246,147,147);stroke-width:0.01" />
<line x1="-0.0688438" y1="-0.266196" x2="-0.0208179" y2="0.138721" style="stroke:rgb(246,147,147);stroke-width:0.01" />
<line x1="-0.278932" y1="0.0317287" x2="-0.209109" y2="0.414721" style="stroke:rgb(246,147,147);stroke-width:0.01" />
<line x1="0.0772963" y1="-0.0852296" x2="0.135292" y2="0.0308571" style="stroke:rgb(246,147,147);stroke-width:0.01" />
<line x1="-0.146585" y1="0.00513164" x2="-0.114572" y2="0.072998" style="stroke:rgb(246,147,147);stroke-width:0.01" />
<line x1="-0.381212" y1="-0.207396" x2="-0.201997" y2="0.189325" style="stroke:rgb(246,147,147);stroke-width:0.01" />
<line x1="-0.278932" y1="0.0317287" x2="-0.201997" y2="0.189325" style="stroke:rgb(246,147,147);stroke-width:0.01" />
<line x1="-0.177748" y1="0.325564" x2="-0.127958" y2="0.399926" style="stroke:rgb(246,147,147);stroke-width:0.01" />
<line x1="-0.146585" y1="0.00513164" x2="0.146443" y2="0.377665" style="stroke:rgb(246,147,147);stroke-width:0.01" />
<line x1="-0.0337017" y1="-0.114063" x2="0.236217" y2="0.175612" style="stroke:rgb(246,147,147);stroke-width:0.01" />
<line x1="-0.21022" y1="-0.28464" x2="-0.264975" y2="-0.126612" style="stroke:rgb(246,147,147);stroke-width:0.01" />
<line x1="-0.0337017" y1="-0.114063" x2="-0.177748" y2="0.325564" style="stroke:rgb(246,147,147);stroke-width:0.01" />
<line x1="-0.21022" y1="-0.28464" x2="0.135292" y2="0.0308571" style="stroke:rgb(246,147,147);stroke-width:0.01" />
<line x1="0.0772963" y1="-0.0852296" x2="-0.127958" y2="0.399926" style="stroke:rgb(246,147,147);stroke-width:0.01" />
<line x1="0.236217" y1="0.175612" x2="0.146443" y2="0.377665" style="stroke:rgb(246,147,147);stroke-width:0.01" />
<line x1="-0.264975" y1="-0.126612" x2="0.0578137" y2="0.119924" style="stroke:rgb(246,147,147);stroke-width:0.01" />
<line x1="-0.114572" y1="0.072998" x2="-0.0208179" y2="0.138721" style="stroke:rgb(246,147,147);stroke-width:0.01" />
<line x1="0.153473" y1="-0.282178" x2="-0.114572" y2="0.072998" style="stroke:rgb(246,147,147);stroke-width:0.01" />
<line x1="-0.0337017" y1="-0.114063" x2="-0.146585" y2="0.00513164" style="stroke:rgb(246,147,147);stroke-width:0.01" />
<line x1="0.135292" y1="0.0308571" x2="0.0578137" y2="0.119924" style="stroke:rgb(246,147,147);stroke-width:0.01" />
<line x1="0.334184" y1="-0.259561" x2="-0.0208179" y2="0.138721" style="stroke:rgb(246,147,147);stroke-width:0.01" />
<line x1="-0.0337017" y1="-0.114063" x2="0.0772963" y2="-0.0852296" style="stroke:rgb(246,147,147);stroke-width:0.01" />
<line x1="0.153473" y1="-0.282178" x2="0.334184" y2="-0.259561" style="stroke:rgb(246,147,147);stroke-width:0.01" />
<line x1="-0.0609119" y1="-0.26617" x2="-0.264975" y2="-0.126612" style="stroke:rgb(246,147,147);stroke-width:0.01" />
<line x1="-0.21022" y1="-0.28464" x2="-0.381212" y2="-0.207396" style="stroke:rgb(246,147,147);stroke-width:0.01" />
<line x1="-0.0688438" y1="-0.266196" x2="-0.0609119" y2="-0.26617" style="stroke:rgb(246,147,147);stroke-width:0.01" />
<line x1="0.310016" y1="-0.358625" x2="-0.0688438" y2="-0.266196" style="stroke:rgb(246,147,147);stroke-width:0.01" />
<line x1="0.0772963" y1="-0.0852296" x2="-0.278932" y2="0.0317287" style="stroke:rgb(246,147,147);stroke-width:0.01" />
<line x1="0.239839" y1="-0.0792193" x2="-0.114572" y2="0.072998" style="stroke:rgb(246,147,147);stroke-width:0.01" />
<line x1="0.135292" y1="0.0308571" x2="-0.201997" y2="0.189325" style="stroke:rgb(246,147,147);stroke-width:0.01" />
<line x1="0.227223" y1="-0.108323" x2="-0.146585" y2="0.00513164" style="stroke:rgb(246,147,147);stroke-width:0.01" />
<line x1="0.0578137" y1="0.119924" x2="-0.0208179" y2="0.138721" style="stroke:rgb(246,147,147);stroke-width:0.01" />
<line x1="0.236217" y1="0.175612" x2="-0.177748" y2="0.325564" style="stroke:rgb(246,147,147);stroke-width:0.01" />
<line x1="-0.127958" y1="0.399926" x2="-0.209109" y2="0.414721" style="stroke:rgb(246,147,147);stroke-width:0.01" />
<line x1="0.310374" y1="0.347778" x2="0.146443" y2="0.377665" style="stroke:rgb(246,147,147);stroke-width:0.01" />
</g>
</svg>
