<svg xmlns="http://www.w3.org/2000/svg" viewBox="-1.5 -1.5 3 3">
<g transform="scale(1, -1)">
<path d="M-0.180424 1.192202 L-0.079428 1.224610 L-0.053280 1.383238 L0.050582 1.405954 L0.176995 1.348300 L0.226710 1.374470 L0.158132 1.504747 L0.146015 1.746831 L-0.195653 1.729730 L-0.222836 1.766602 L-0.293738 1.724821 L-0.293412 1.723734 L-0.352882 1.729638 L-0.444765 1.564759 L-0.576012 1.445390 L-0.535878 1.401263 L-0.257800 1.433331 L-0.247821 1.402235 L-0.252491 1.352725 L-0.225529 1.332766 z " fill="rgb(245,195,195)" />
<path d="M0.000000 0.000000 L1.000000 0.000000 L1.000000 1.000000 L0.000000 1.000000  z" fill="none" stroke="rgb(128,128,128)" stroke-width="0.01" />
<line x1="0.00086727" y1="1.46316" x2="-0.00192308" y2="1.6948" style="stroke:rgb(246,147,147);stroke-width:0.01" />
<line x1="0.161858" y1="1.43029" x2="0.146015" y2="1.74683" style="stroke:rgb(246,147,147);stroke-width:0.01" />
<line x1="-0.252491" y1="1.35272" x2="-0.219155" y2="1.70618" style="stroke:rgb(246,147,147);stroke-width:0.01" />
<line x1="-0.0794284" y1="1.22461" x2="-0.00192308" y2="1.6948" style="stroke:rgb(246,147,147);stroke-width:0.01" />
<line x1="-0.180424" y1="1.1922" x2="-0.352882" y2="1.72964" style="stroke:rgb(246,147,147);stroke-width:0.01" />
<line x1="-0.182843" y1="1.3549" x2="-0.293738" y2="1.72482" style="stroke:rgb(246,147,147);stroke-width:0.01" />
<line x1="0.176995" y1="1.3483" x2="0.13242" y2="1.53827" style="stroke:rgb(246,147,147);stroke-width:0.01" />
<line x1="-0.182843" y1="1.3549" x2="-0.282541" y2="1.55788" style="stroke:rgb(246,147,147);stroke-width:0.01" />
<line x1="0.161858" y1="1.43029" x2="0.0494629" y2="1.71118" style="stroke:rgb(246,147,147);stroke-width:0.01" />
<line x1="-0.282541" y1="1.55788" x2="-0.219155" y2="1.70618" style="stroke:rgb(246,147,147);stroke-width:0.01" />
<line x1="-0.535878" y1="1.40126" x2="-0.576012" y2="1.44539" style="stroke:rgb(246,147,147);stroke-width:0.01" />
<line x1="0.22671" y1="1.37447" x2="0.0494629" y2="1.71118" style="stroke:rgb(246,147,147);stroke-width:0.01" />
<line x1="0.00086727" y1="1.46316" x2="-0.222836" y2="1.7666" style="stroke:rgb(246,147,147);stroke-width:0.01" />
<line x1="-0.535878" y1="1.40126" x2="-0.352882" y2="1.72964" style="stroke:rgb(246,147,147);stroke-width:0.01" />
<line x1="-0.0794284" y1="1.22461" x2="-0.252491" y2="1.35272" style="stroke:rgb(246,147,147);stroke-width:0.01" />
<line x1="0.176995" y1="1.3483" x2="0.22671" y2="1.37447" style="stroke:rgb(246,147,147);stroke-width:0.01" />
<line x1="-0.576012" y1="1.44539" x2="-0.222836" y2="1.7666" style="stroke:rgb(246,147,147);stroke-width:0.01" />
<line x1="-0.182843" y1="1.3549" x2="0.00086727" y2="1.46316" style="stroke:rgb(246,147,147);stroke-width:0.01" />
<line x1="-0.180424" y1="1.1922" x2="-0.0794284" y2="1.22461" style="stroke:rgb(246,147,147);stroke-width:0.01" />
<line x1="0.176995" y1="1.3483" x2="-0.282541" y2="1.55788" style="stroke:rgb(246,147,147);stroke-width:0.01" />
<line x1="-0.252491" y1="1.35272" x2="0.13242" y2="1.53827" style="stroke:rgb(246,147,147);stroke-width:0.01" />
<line x1="0.13242" y1="1.53827" x2="-0.219155" y2="1.70618" style="stroke:rgb(246,147,147);stroke-width:0.01" />
<line x1="-0.182843" y1="1.3549" x2="0.161858" y2="1.43029" style="stroke:rgb(246,147,147);stroke-width:0.01" />
<line x1="-0.282541" y1="1.55788" x2="0.0494629" y2="1.71118" style="stroke:rgb(246,147,147);stroke-width:0.01" />
<line x1="-0.293738" y1="1.72482" x2="-0.222836" y2="1.7666" style="stroke:rgb(246,147,147);stroke-width:0.01" />
<line x1="-0.535878" y1="1.40126" x2="0.00086727" y2="1.46316" style="stroke:rgb(246,147,147);stroke-width:0.01" />
<line x1="-0.00192308" y1="1.6948" x2="-0.352882" y2="1.72964" style="stroke:rgb(246,147,147);stroke-width:0.01" />
<line x1="-0.00192308" y1="1.6948" x2="-0.219155" y2="1.70618" style="stroke:rgb(246,147,147);stroke-width:0.01" />
<line x1="-0.293738" y1="1.72482" x2="0.146015" y2="1.74683" style="stroke:rgb(246,147,147);stroke-width:0.01" />
</g>
</svg>
