<svg xmlns="http://www.w3.org/2000/svg" viewBox="-1.5 -1.5 3 3">
<g transform="scale(1, -1)">
<path d="M-0.271285 -0.125596 L0.017838 -0.114367 L0.197838 -0.061867 L0.197838 -0.034302 L0.222453 -0.014624 L0.197838 0.008515 L0.162662 -0.006696 L-0.014962 0.271899 L-0.155495 0.182299 L-0.246289 -0.059129 L-0.308436 -0.046132 z " fill="rgb(245,195,195)" />
<path d="M-0.302162 -0.457701 L0.697838 -0.457701 L0.697838 0.542299 L-0.302162 0.542299  z" fill="none" stroke="rgb(128,128,128)" stroke-width="0.01" />
<line x1="0.097838" y1="-0.0910341" x2="0.160338" y2="-0.00770077" style="stroke:rgb(246,147,147);stroke-width:0.01" />
<line x1="-0.0679953" y1="-0.117701" x2="-0.0637306" y2="-0.0973086" style="stroke:rgb(246,147,147);stroke-width:0.01" />
<line x1="-0.101476" y1="-0.119001" x2="-0.014962" y2="0.271899" style="stroke:rgb(246,147,147);stroke-width:0.01" />
<line x1="-0.147471" y1="-0.120787" x2="-0.133647" y2="-0.0826868" style="stroke:rgb(246,147,147);stroke-width:0.01" />
<line x1="-0.135121" y1="-0.105597" x2="-0.133647" y2="-0.0826868" style="stroke:rgb(246,147,147);stroke-width:0.01" />
<line x1="0.0507792" y1="-0.10476" x2="0.138314" y2="-0.0172246" style="stroke:rgb(246,147,147);stroke-width:0.01" />
<line x1="0.197838" y1="-0.0618674" x2="0.197838" y2="0.00851545" style="stroke:rgb(246,147,147);stroke-width:0.01" />
<line x1="-0.128581" y1="-0.107841" x2="-0.1291" y2="-0.0967355" style="stroke:rgb(246,147,147);stroke-width:0.01" />
<line x1="0.143552" y1="-0.0777008" x2="0.222453" y2="-0.0146238" style="stroke:rgb(246,147,147);stroke-width:0.01" />
<line x1="-0.271285" y1="-0.125596" x2="-0.155495" y2="0.182299" style="stroke:rgb(246,147,147);stroke-width:0.01" />
<line x1="-0.135121" y1="-0.105597" x2="-0.1291" y2="-0.0967355" style="stroke:rgb(246,147,147);stroke-width:0.01" />
<line x1="-0.26453" y1="-0.125333" x2="-0.224726" y2="-0.0382136" style="stroke:rgb(246,147,147);stroke-width:0.01" />
<line x1="-0.128581" y1="-0.107841" x2="-0.111093" y2="-0.0874035" style="stroke:rgb(246,147,147);stroke-width:0.01" />
<line x1="-0.271285" y1="-0.125596" x2="-0.308436" y2="-0.0461321" style="stroke:rgb(246,147,147);stroke-width:0.01" />
<line x1="-0.136598" y1="-0.120365" x2="-0.107096" y2="-0.0882394" style="stroke:rgb(246,147,147);stroke-width:0.01" />
<line x1="-0.101476" y1="-0.119001" x2="-0.111093" y2="-0.0874035" style="stroke:rgb(246,147,147);stroke-width:0.01" />
<line x1="-0.0679953" y1="-0.117701" x2="-0.155495" y2="0.182299" style="stroke:rgb(246,147,147);stroke-width:0.01" />
<line x1="-0.26453" y1="-0.125333" x2="-0.308436" y2="-0.0461321" style="stroke:rgb(246,147,147);stroke-width:0.01" />
<line x1="-0.0966064" y1="-0.118812" x2="-0.107096" y2="-0.0882394" style="stroke:rgb(246,147,147);stroke-width:0.01" />
<line x1="-0.147471" y1="-0.120787" x2="-0.214162" y2="0.0262992" style="stroke:rgb(246,147,147);stroke-width:0.01" />
<line x1="-0.0966064" y1="-0.118812" x2="-0.0637306" y2="-0.0973086" style="stroke:rgb(246,147,147);stroke-width:0.01" />
<line x1="-0.0966064" y1="-0.118812" x2="0.197838" y2="0.00851545" style="stroke:rgb(246,147,147);stroke-width:0.01" />
<line x1="0.017838" y1="-0.114367" x2="0.197838" y2="-0.0618674" style="stroke:rgb(246,147,147);stroke-width:0.01" />
<line x1="-0.136598" y1="-0.120365" x2="-0.224726" y2="-0.0382136" style="stroke:rgb(246,147,147);stroke-width:0.01" />
<line x1="-0.271285" y1="-0.125596" x2="0.017838" y2="-0.114367" style="stroke:rgb(246,147,147);stroke-width:0.01" />
<line x1="0.197838" y1="-0.0618674" x2="-0.014962" y2="0.271899" style="stroke:rgb(246,147,147);stroke-width:0.01" />
<line x1="-0.0966064" y1="-0.118812" x2="-0.239305" y2="-0.0405579" style="stroke:rgb(246,147,147);stroke-width:0.01" />
<line x1="-0.0966064" y1="-0.118812" x2="-0.308436" y2="-0.0461321" style="stroke:rgb(246,147,147);stroke-width:0.01" />
<line x1="-0.1291" y1="-0.0967355" x2="-0.308436" y2="-0.0461321" style="stroke:rgb(246,147,147);stroke-width:0.01" />
<line x1="-0.155495" y1="0.182299" x2="-0.014962" y2="0.271899" style="stroke:rgb(246,147,147);stroke-width:0.01" />
<line x1="0.017838" y1="-0.114367" x2="-0.308436" y2="-0.0461321" style="stroke:rgb(246,147,147);stroke-width:0.01" />
<line x1="0.0507792" y1="-0.10476" x2="-0.239305" y2="-0.0405579" style="stroke:rgb(246,147,147);stroke-width:0.01" />
<line x1="0.143552" y1="-0.0777008" x2="-0.224726" y2="-0.0382136" style="stroke:rgb(246,147,147);stroke-width:0.01" />
<line x1="0.138314" y1="-0.0172246" x2="0.222453" y2="-0.0146238" style="stroke:rgb(246,147,147);stroke-width:0.01" />
<line x1="0.097838" y1="-0.0910341" x2="-0.214162" y2="0.0262992" style="stroke:rgb(246,147,147);stroke-width:0.01" />
<line x1="0.222453" y1="-0.0146238" x2="0.160338" y2="-0.00770077" style="stroke:rgb(246,147,147);stroke-width:0.01" />
<line x1="0.222453" y1="-0.0146238" x2="0.197838" y2="0.00851545" style="stroke:rgb(246,147,147);stroke-width:0.01" />
</g>
</svg>
