<svg xmlns="http://www.w3.org/2000/svg" viewBox="-1.5 -1.5 3 3">
<g transform="scale(1, -1)">
<path d="M2.891692 0.264512 L2.960502 0.335351 L2.977927 0.326263 L3.010690 0.343779 L3.084510 0.325586 L3.241082 0.270754 L3.310951 0.470262 L3.289430 0.487392 L3.294947 0.495747 L3.277578 0.534822 L3.315315 0.543193 L3.317341 0.571715 L3.382308 0.614670 L3.364310 0.722113 L3.181315 0.691459 L3.153842 0.724656 L3.051768 0.716829 L3.024136 0.775963 L2.911179 0.788226 L2.885868 0.555094 L2.907527 0.542953 L2.875023 0.518975 L2.881882 0.414267 L2.847518 0.394278 L2.842863 0.266288 z " fill="rgb(245,195,195)" />
<path d="M0.000000 0.000000 L1.000000 0.000000 L1.000000 1.000000 L0.000000 1.000000  z" fill="none" stroke="rgb(128,128,128)" stroke-width="0.01" />
<line x1="3.21304" y1="0.371702" x2="3.29495" y2="0.495747" style="stroke:rgb(246,147,147);stroke-width:0.01" />
<line x1="2.89169" y1="0.264512" x2="3.23886" y2="0.621921" style="stroke:rgb(246,147,147);stroke-width:0.01" />
<line x1="2.92222" y1="0.599049" x2="3.00563" y2="0.713292" style="stroke:rgb(246,147,147);stroke-width:0.01" />
<line x1="3.2176" y1="0.411332" x2="3.31095" y2="0.470262" style="stroke:rgb(246,147,147);stroke-width:0.01" />
<line x1="2.93444" y1="0.641534" x2="3.02414" y2="0.775963" style="stroke:rgb(246,147,147);stroke-width:0.01" />
<line x1="2.98294" y1="0.350616" x2="3.38231" y2="0.61467" style="stroke:rgb(246,147,147);stroke-width:0.01" />
<line x1="2.88587" y1="0.555094" x2="3.01346" y2="0.653533" style="stroke:rgb(246,147,147);stroke-width:0.01" />
<line x1="2.87502" y1="0.518975" x2="3.15384" y2="0.724656" style="stroke:rgb(246,147,147);stroke-width:0.01" />
<line x1="2.97793" y1="0.326263" x2="3.29495" y2="0.495747" style="stroke:rgb(246,147,147);stroke-width:0.01" />
<line x1="3.24108" y1="0.270754" x2="3.31095" y2="0.470262" style="stroke:rgb(246,147,147);stroke-width:0.01" />
<line x1="2.84752" y1="0.394278" x2="3.23886" y2="0.621921" style="stroke:rgb(246,147,147);stroke-width:0.01" />
<line x1="2.93998" y1="0.459939" x2="3.32308" y2="0.652498" style="stroke:rgb(246,147,147);stroke-width:0.01" />
<line x1="3.01834" y1="0.348758" x2="3.16038" y2="0.409915" style="stroke:rgb(246,147,147);stroke-width:0.01" />
<line x1="3.08915" y1="0.324443" x2="3.21304" y2="0.371702" style="stroke:rgb(246,147,147);stroke-width:0.01" />
<line x1="3.08915" y1="0.324443" x2="3.13547" y2="0.626519" style="stroke:rgb(246,147,147);stroke-width:0.01" />
<line x1="3.2176" y1="0.411332" x2="3.24903" y2="0.662397" style="stroke:rgb(246,147,147);stroke-width:0.01" />
<line x1="2.97793" y1="0.326263" x2="3.01346" y2="0.653533" style="stroke:rgb(246,147,147);stroke-width:0.01" />
<line x1="2.88587" y1="0.555094" x2="2.91118" y2="0.788226" style="stroke:rgb(246,147,147);stroke-width:0.01" />
<line x1="3.31531" y1="0.543193" x2="3.32308" y2="0.652498" style="stroke:rgb(246,147,147);stroke-width:0.01" />
<line x1="2.93998" y1="0.459939" x2="3.31531" y2="0.543193" style="stroke:rgb(246,147,147);stroke-width:0.01" />
<line x1="2.84286" y1="0.266288" x2="2.84752" y2="0.394278" style="stroke:rgb(246,147,147);stroke-width:0.01" />
<line x1="2.98294" y1="0.350616" x2="2.99281" y2="0.659881" style="stroke:rgb(246,147,147);stroke-width:0.01" />
<line x1="2.92222" y1="0.599049" x2="3.24903" y2="0.662397" style="stroke:rgb(246,147,147);stroke-width:0.01" />
<line x1="3.16038" y1="0.409915" x2="3.15384" y2="0.724656" style="stroke:rgb(246,147,147);stroke-width:0.01" />
<line x1="3.01834" y1="0.348758" x2="3.00563" y2="0.713292" style="stroke:rgb(246,147,147);stroke-width:0.01" />
<line x1="2.99281" y1="0.659881" x2="3.36431" y2="0.722113" style="stroke:rgb(246,147,147);stroke-width:0.01" />
<line x1="2.89169" y1="0.264512" x2="2.87502" y2="0.518975" style="stroke:rgb(246,147,147);stroke-width:0.01" />
<line x1="2.89169" y1="0.264512" x2="2.84286" y2="0.266288" style="stroke:rgb(246,147,147);stroke-width:0.01" />
<line x1="2.93998" y1="0.459939" x2="2.92222" y2="0.599049" style="stroke:rgb(246,147,147);stroke-width:0.01" />
<line x1="3.00563" y1="0.713292" x2="3.15384" y2="0.724656" style="stroke:rgb(246,147,147);stroke-width:0.01" />
<line x1="3.38231" y1="0.61467" x2="3.36431" y2="0.722113" style="stroke:rgb(246,147,147);stroke-width:0.01" />
<line x1="3.13547" y1="0.626519" x2="2.93444" y2="0.641534" style="stroke:rgb(246,147,147);stroke-width:0.01" />
<line x1="3.08915" y1="0.324443" x2="2.98294" y2="0.350616" style="stroke:rgb(246,147,147);stroke-width:0.01" />
<line x1="2.98294" y1="0.350616" x2="2.93998" y2="0.459939" style="stroke:rgb(246,147,147);stroke-width:0.01" />
<line x1="3.02414" y1="0.775963" x2="2.91118" y2="0.788226" style="stroke:rgb(246,147,147);stroke-width:0.01" />
<line x1="3.24108" y1="0.270754" x2="3.01834" y2="0.348758" style="stroke:rgb(246,147,147);stroke-width:0.01" />
<line x1="3.08915" y1="0.324443" x2="2.93444" y2="0.641534" style="stroke:rgb(246,147,147);stroke-width:0.01" />
<line x1="3.13547" y1="0.626519" x2="2.99281" y2="0.659881" style="stroke:rgb(246,147,147);stroke-width:0.01" />
<line x1="3.21304" y1="0.371702" x2="3.02414" y2="0.775963" style="stroke:rgb(246,147,147);stroke-width:0.01" />
<line x1="3.29495" y1="0.495747" x2="3.23886" y2="0.621921" style="stroke:rgb(246,147,147);stroke-width:0.01" />
<line x1="3.16038" y1="0.409915" x2="2.87502" y2="0.518975" style="stroke:rgb(246,147,147);stroke-width:0.01" />
<line x1="2.97793" y1="0.326263" x2="2.84752" y2="0.394278" style="stroke:rgb(246,147,147);stroke-width:0.01" />
<line x1="3.31531" y1="0.543193" x2="3.24903" y2="0.662397" style="stroke:rgb(246,147,147);stroke-width:0.01" />
<line x1="3.21304" y1="0.371702" x2="2.88587" y2="0.555094" style="stroke:rgb(246,147,147);stroke-width:0.01" />
<line x1="3.2176" y1="0.411332" x2="2.92222" y2="0.599049" style="stroke:rgb(246,147,147);stroke-width:0.01" />
<line x1="3.29495" y1="0.495747" x2="3.01346" y2="0.653533" style="stroke:rgb(246,147,147);stroke-width:0.01" />
<line x1="3.23886" y1="0.621921" x2="3.15384" y2="0.724656" style="stroke:rgb(246,147,147);stroke-width:0.01" />
<line x1="3.31095" y1="0.470262" x2="3.00563" y2="0.713292" style="stroke:rgb(246,147,147);stroke-width:0.01" />
<line x1="3.38231" y1="0.61467" x2="3.32308" y2="0.652498" style="stroke:rgb(246,147,147);stroke-width:0.01" />
</g>
</svg>
