<svg xmlns="http://www.w3.org/2000/svg" viewBox="-1.5 -1.5 3 3">
<g transform="scale(1, -1)">
<path d="M-0.199568 -0.243294 L-0.130758 -0.172455 L-0.113334 -0.181543 L-0.080571 -0.164027 L-0.006750 -0.182220 L0.149822 -0.237052 L0.219691 -0.037544 L0.198170 -0.020414 L0.203687 -0.012059 L0.186318 0.027017 L0.224055 0.035387 L0.226081 0.063909 L0.291048 0.106865 L0.273050 0.214307 L0.090055 0.183653 L0.062582 0.216850 L-0.039492 0.209023 L-0.067124 0.268157 L-0.180081 0.280420 L-0.205392 0.047288 L-0.183733 0.035147 L-0.216237 0.011169 L-0.209378 -0.093539 L-0.243742 -0.113528 L-0.248397 -0.241517 z " fill="rgb(245,195,195)" />
<path d="M-3.091260 -0.507806 L-2.091260 -0.507806 L-2.091260 0.492194 L-3.091260 0.492194  z" fill="none" stroke="rgb(128,128,128)" stroke-width="0.01" />
<line x1="0.121777" y1="-0.136104" x2="0.203687" y2="-0.0120587" style="stroke:rgb(246,147,147);stroke-width:0.01" />
<line x1="-0.199568" y1="-0.243294" x2="0.147604" y2="0.114115" style="stroke:rgb(246,147,147);stroke-width:0.01" />
<line x1="-0.169037" y1="0.0912433" x2="-0.0856318" y2="0.205486" style="stroke:rgb(246,147,147);stroke-width:0.01" />
<line x1="0.126338" y1="-0.0964735" x2="0.219691" y2="-0.0375442" style="stroke:rgb(246,147,147);stroke-width:0.01" />
<line x1="-0.15682" y1="0.133728" x2="-0.0671241" y2="0.268157" style="stroke:rgb(246,147,147);stroke-width:0.01" />
<line x1="-0.108315" y1="-0.15719" x2="0.291048" y2="0.106865" style="stroke:rgb(246,147,147);stroke-width:0.01" />
<line x1="-0.205392" y1="0.0472879" x2="-0.0778024" y2="0.145728" style="stroke:rgb(246,147,147);stroke-width:0.01" />
<line x1="-0.216237" y1="0.0111691" x2="0.0625818" y2="0.21685" style="stroke:rgb(246,147,147);stroke-width:0.01" />
<line x1="-0.113334" y1="-0.181543" x2="0.203687" y2="-0.0120587" style="stroke:rgb(246,147,147);stroke-width:0.01" />
<line x1="0.149822" y1="-0.237052" x2="0.219691" y2="-0.0375442" style="stroke:rgb(246,147,147);stroke-width:0.01" />
<line x1="-0.243742" y1="-0.113528" x2="0.147604" y2="0.114115" style="stroke:rgb(246,147,147);stroke-width:0.01" />
<line x1="-0.151278" y1="-0.0478664" x2="0.23182" y2="0.144692" style="stroke:rgb(246,147,147);stroke-width:0.01" />
<line x1="-0.0729172" y1="-0.159048" x2="0.0691178" y2="-0.0978907" style="stroke:rgb(246,147,147);stroke-width:0.01" />
<line x1="-0.00211038" y1="-0.183363" x2="0.121777" y2="-0.136104" style="stroke:rgb(246,147,147);stroke-width:0.01" />
<line x1="-0.00211038" y1="-0.183363" x2="0.044205" y2="0.118714" style="stroke:rgb(246,147,147);stroke-width:0.01" />
<line x1="0.126338" y1="-0.0964735" x2="0.157771" y2="0.154591" style="stroke:rgb(246,147,147);stroke-width:0.01" />
<line x1="-0.113334" y1="-0.181543" x2="-0.0778024" y2="0.145728" style="stroke:rgb(246,147,147);stroke-width:0.01" />
<line x1="-0.205392" y1="0.0472879" x2="-0.180081" y2="0.28042" style="stroke:rgb(246,147,147);stroke-width:0.01" />
<line x1="0.224055" y1="0.035387" x2="0.23182" y2="0.144692" style="stroke:rgb(246,147,147);stroke-width:0.01" />
<line x1="-0.151278" y1="-0.0478664" x2="0.224055" y2="0.035387" style="stroke:rgb(246,147,147);stroke-width:0.01" />
<line x1="-0.248397" y1="-0.241517" x2="-0.243742" y2="-0.113528" style="stroke:rgb(246,147,147);stroke-width:0.01" />
<line x1="-0.108315" y1="-0.15719" x2="-0.0984537" y2="0.152075" style="stroke:rgb(246,147,147);stroke-width:0.01" />
<line x1="-0.169037" y1="0.0912433" x2="0.157771" y2="0.154591" style="stroke:rgb(246,147,147);stroke-width:0.01" />
<line x1="0.0691178" y1="-0.0978907" x2="0.0625818" y2="0.21685" style="stroke:rgb(246,147,147);stroke-width:0.01" />
<line x1="-0.0729172" y1="-0.159048" x2="-0.0856318" y2="0.205486" style="stroke:rgb(246,147,147);stroke-width:0.01" />
<line x1="-0.0984537" y1="0.152075" x2="0.27305" y2="0.214307" style="stroke:rgb(246,147,147);stroke-width:0.01" />
<line x1="-0.199568" y1="-0.243294" x2="-0.216237" y2="0.0111691" style="stroke:rgb(246,147,147);stroke-width:0.01" />
<line x1="-0.199568" y1="-0.243294" x2="-0.248397" y2="-0.241517" style="stroke:rgb(246,147,147);stroke-width:0.01" />
<line x1="-0.151278" y1="-0.0478664" x2="-0.169037" y2="0.0912433" style="stroke:rgb(246,147,147);stroke-width:0.01" />
<line x1="-0.0856318" y1="0.205486" x2="0.0625818" y2="0.21685" style="stroke:rgb(246,147,147);stroke-width:0.01" />
<line x1="0.291048" y1="0.106865" x2="0.27305" y2="0.214307" style="stroke:rgb(246,147,147);stroke-width:0.01" />
<line x1="0.044205" y1="0.118714" x2="-0.15682" y2="0.133728" style="stroke:rgb(246,147,147);stroke-width:0.01" />
<line x1="-0.00211038" y1="-0.183363" x2="-0.108315" y2="-0.15719" style="stroke:rgb(246,147,147);stroke-width:0.01" />
<line x1="-0.108315" y1="-0.15719" x2="-0.151278" y2="-0.0478664" style="stroke:rgb(246,147,147);stroke-width:0.01" />
<line x1="-0.0671241" y1="0.268157" x2="-0.180081" y2="0.28042" style="stroke:rgb(246,147,147);stroke-width:0.01" />
<line x1="0.149822" y1="-0.237052" x2="-0.0729172" y2="-0.159048" style="stroke:rgb(246,147,147);stroke-width:0.01" />
<line x1="-0.00211038" y1="-0.183363" x2="-0.15682" y2="0.133728" style="stroke:rgb(246,147,147);stroke-width:0.01" />
<line x1="0.044205" y1="0.118714" x2="-0.0984537" y2="0.152075" style="stroke:rgb(246,147,147);stroke-width:0.01" />
<line x1="0.121777" y1="-0.136104" x2="-0.0671241" y2="0.268157" style="stroke:rgb(246,147,147);stroke-width:0.01" />
<line x1="0.203687" y1="-0.0120587" x2="0.147604" y2="0.114115" style="stroke:rgb(246,147,147);stroke-width:0.01" />
<line x1="0.0691178" y1="-0.0978907" x2="-0.216237" y2="0.0111691" style="stroke:rgb(246,147,147);stroke-width:0.01" />
<line x1="-0.113334" y1="-0.181543" x2="-0.243742" y2="-0.113528" style="stroke:rgb(246,147,147);stroke-width:0.01" />
<line x1="0.224055" y1="0.035387" x2="0.157771" y2="0.154591" style="stroke:rgb(246,147,147);stroke-width:0.01" />
<line x1="0.121777" y1="-0.136104" x2="-0.205392" y2="0.0472879" style="stroke:rgb(246,147,147);stroke-width:0.01" />
<line x1="0.126338" y1="-0.0964735" x2="-0.169037" y2="0.0912433" style="stroke:rgb(246,147,147);stroke-width:0.01" />
<line x1="0.203687" y1="-0.0120587" x2="-0.0778024" y2="0.145728" style="stroke:rgb(246,147,147);stroke-width:0.01" />
<line x1="0.147604" y1="0.114115" x2="0.0625818" y2="0.21685" style="stroke:rgb(246,147,147);stroke-width:0.01" />
<line x1="0.219691" y1="-0.0375442" x2="-0.0856318" y2="0.205486" style="stroke:rgb(246,147,147);stroke-width:0.01" />
<line x1="0.291048" y1="0.106865" x2="0.23182" y2="0.144692" style="stroke:rgb(246,147,147);stroke-width:0.01" />
</g>
</svg>
