<svg xmlns="http://www.w3.org/2000/svg" viewBox="-1.5 -1.5 3 3">
<g transform="scale(1, -1)">
<path d="M-0.156250 -0.234375 L-0.031250 -0.234375 L-0.031250 -0.109375 L0.031250 -0.109375 L0.156250 0.015625 L0.156250 0.078125 L0.031250 0.203125 L-0.156250 0.203125 z M-0.031250 0.015625 L-0.031250 0.078125 L0.031250 0.078125 L0.031250 0.015625 z " fill="rgb(245,195,195)" />
<path d="M-0.156250 -0.234375 L0.843750 -0.234375 L0.843750 0.765625 L-0.156250 0.765625  z" fill="none" stroke="rgb(128,128,128)" stroke-width="0.01" />
<line x1="0.03125" y1="-0.109375" x2="0.15625" y2="0.015625" style="stroke:rgb(246,147,147);stroke-width:0.01" />
<line x1="-0.15625" y1="-0.234375" x2="-0.03125" y2="-0.234375" style="stroke:rgb(246,147,147);stroke-width:0.01" />
<line x1="-0.15625" y1="-0.234375" x2="-0.15625" y2="0.203125" style="stroke:rgb(246,147,147);stroke-width:0.01" />
<line x1="-0.03125" y1="-0.234375" x2="-0.03125" y2="0.203125" style="stroke:rgb(246,147,147);stroke-width:0.01" />
<line x1="0.03125" y1="-0.109375" x2="0.03125" y2="0.203125" style="stroke:rgb(246,147,147);stroke-width:0.01" />
<line x1="0.15625" y1="0.015625" x2="0.15625" y2="0.078125" style="stroke:rgb(246,147,147);stroke-width:0.01" />
<line x1="-0.03125" y1="-0.109375" x2="0.03125" y2="-0.109375" style="stroke:rgb(246,147,147);stroke-width:0.01" />
<line x1="-0.03125" y1="0.078125" x2="-0.15625" y2="0.203125" style="stroke:rgb(246,147,147);stroke-width:0.01" />
<line x1="-0.03125" y1="0.015625" x2="0.15625" y2="0.015625" style="stroke:rgb(246,147,147);stroke-width:0.01" />
<line x1="-0.03125" y1="0.078125" x2="0.15625" y2="0.078125" style="stroke:rgb(246,147,147);stroke-width:0.01" />
<line x1="0.15625" y1="0.078125" x2="0.03125" y2="0.203125" style="stroke:rgb(246,147,147);stroke-width:0.01" />
<line x1="-0.15625" y1="0.203125" x2="0.03125" y2="0.203125" style="stroke:rgb(246,147,147);stroke-width:0.01" />
</g>
</svg>
