<svg xmlns="http://www.w3.org/2000/svg" viewBox="-1.5 -1.5 3 3">
<g transform="scale(1, -1)">
<path d="M2.541746 1.440866 L2.802918 1.506429 L2.897641 1.485695 L2.904972 1.492153 L2.954045 1.451175 L3.021033 1.471951 L2.991207 1.568118 L3.012292 1.586692 L2.957224 1.764245 L2.942286 1.779116 L2.946368 1.805948 L2.907337 1.840998 L2.910561 1.845793 L2.784681 2.034396 L2.731501 1.998902 L2.722473 1.873009 L2.702011 1.873012 L2.681691 1.848679 L2.612136 1.831580 L2.624707 1.780439 L2.598017 1.748476 L2.599580 1.636765 L2.513191 1.554616 z " fill="rgb(245,195,195)" />
<path d="M0.000000 0.000000 L1.000000 0.000000 L1.000000 1.000000 L0.000000 1.000000  z" fill="none" stroke="rgb(128,128,128)" stroke-width="0.01" />
<line x1="2.69783" y1="1.52943" x2="2.91056" y2="1.84579" style="stroke:rgb(246,147,147);stroke-width:0.01" />
<line x1="2.69299" y1="1.68983" x2="2.77585" y2="1.87183" style="stroke:rgb(246,147,147);stroke-width:0.01" />
<line x1="2.59984" y1="1.61817" x2="2.76654" y2="1.87524" style="stroke:rgb(246,147,147);stroke-width:0.01" />
<line x1="2.91142" y1="1.67312" x2="2.93381" y2="1.75318" style="stroke:rgb(246,147,147);stroke-width:0.01" />
<line x1="2.89764" y1="1.4857" x2="3.01229" y2="1.58669" style="stroke:rgb(246,147,147);stroke-width:0.01" />
<line x1="2.59802" y1="1.74848" x2="2.70201" y2="1.87301" style="stroke:rgb(246,147,147);stroke-width:0.01" />
<line x1="2.51319" y1="1.55462" x2="2.84799" y2="1.87299" style="stroke:rgb(246,147,147);stroke-width:0.01" />
<line x1="2.64953" y1="1.57384" x2="2.70201" y2="1.87301" style="stroke:rgb(246,147,147);stroke-width:0.01" />
<line x1="2.89764" y1="1.4857" x2="2.94637" y2="1.80595" style="stroke:rgb(246,147,147);stroke-width:0.01" />
<line x1="2.64581" y1="1.51414" x2="2.95722" y2="1.76425" style="stroke:rgb(246,147,147);stroke-width:0.01" />
<line x1="2.95405" y1="1.45118" x2="2.96722" y2="1.55914" style="stroke:rgb(246,147,147);stroke-width:0.01" />
<line x1="2.69783" y1="1.52943" x2="2.7315" y2="1.9989" style="stroke:rgb(246,147,147);stroke-width:0.01" />
<line x1="2.83813" y1="1.51527" x2="2.84799" y2="1.87299" style="stroke:rgb(246,147,147);stroke-width:0.01" />
<line x1="2.59984" y1="1.61817" x2="2.59802" y2="1.74848" style="stroke:rgb(246,147,147);stroke-width:0.01" />
<line x1="2.7315" y1="1.9989" x2="2.78468" y2="2.0344" style="stroke:rgb(246,147,147);stroke-width:0.01" />
<line x1="2.64581" y1="1.51414" x2="2.63101" y2="1.70159" style="stroke:rgb(246,147,147);stroke-width:0.01" />
<line x1="2.69299" y1="1.68983" x2="2.94637" y2="1.80595" style="stroke:rgb(246,147,147);stroke-width:0.01" />
<line x1="2.95405" y1="1.45118" x2="3.02103" y2="1.47195" style="stroke:rgb(246,147,147);stroke-width:0.01" />
<line x1="2.54175" y1="1.44087" x2="2.51319" y2="1.55462" style="stroke:rgb(246,147,147);stroke-width:0.01" />
<line x1="2.69406" y1="1.49831" x2="3.01229" y2="1.58669" style="stroke:rgb(246,147,147);stroke-width:0.01" />
<line x1="2.69406" y1="1.49831" x2="2.61214" y2="1.83158" style="stroke:rgb(246,147,147);stroke-width:0.01" />
<line x1="2.54175" y1="1.44087" x2="2.83813" y2="1.51527" style="stroke:rgb(246,147,147);stroke-width:0.01" />
<line x1="2.69406" y1="1.49831" x2="2.63101" y2="1.70159" style="stroke:rgb(246,147,147);stroke-width:0.01" />
<line x1="3.02103" y1="1.47195" x2="2.93381" y2="1.75318" style="stroke:rgb(246,147,147);stroke-width:0.01" />
<line x1="3.01229" y1="1.58669" x2="2.95722" y2="1.76425" style="stroke:rgb(246,147,147);stroke-width:0.01" />
<line x1="2.61214" y1="1.83158" x2="2.77585" y2="1.87183" style="stroke:rgb(246,147,147);stroke-width:0.01" />
<line x1="2.59984" y1="1.61817" x2="2.91142" y2="1.67312" style="stroke:rgb(246,147,147);stroke-width:0.01" />
<line x1="2.63101" y1="1.70159" x2="2.95722" y2="1.76425" style="stroke:rgb(246,147,147);stroke-width:0.01" />
<line x1="2.96722" y1="1.55914" x2="2.64953" y2="1.57384" style="stroke:rgb(246,147,147);stroke-width:0.01" />
<line x1="2.59802" y1="1.74848" x2="2.93381" y2="1.75318" style="stroke:rgb(246,147,147);stroke-width:0.01" />
<line x1="2.84799" y1="1.87299" x2="2.70201" y2="1.87301" style="stroke:rgb(246,147,147);stroke-width:0.01" />
<line x1="2.91056" y1="1.84579" x2="2.78468" y2="2.0344" style="stroke:rgb(246,147,147);stroke-width:0.01" />
<line x1="2.91142" y1="1.67312" x2="2.76654" y2="1.87524" style="stroke:rgb(246,147,147);stroke-width:0.01" />
<line x1="2.89764" y1="1.4857" x2="2.69783" y2="1.52943" style="stroke:rgb(246,147,147);stroke-width:0.01" />
<line x1="2.96722" y1="1.55914" x2="2.70201" y2="1.87301" style="stroke:rgb(246,147,147);stroke-width:0.01" />
<line x1="2.64581" y1="1.51414" x2="2.51319" y2="1.55462" style="stroke:rgb(246,147,147);stroke-width:0.01" />
<line x1="3.01229" y1="1.58669" x2="2.77585" y2="1.87183" style="stroke:rgb(246,147,147);stroke-width:0.01" />
<line x1="2.69783" y1="1.52943" x2="2.59984" y2="1.61817" style="stroke:rgb(246,147,147);stroke-width:0.01" />
<line x1="2.83813" y1="1.51527" x2="2.64953" y2="1.57384" style="stroke:rgb(246,147,147);stroke-width:0.01" />
<line x1="2.89764" y1="1.4857" x2="2.69299" y2="1.68983" style="stroke:rgb(246,147,147);stroke-width:0.01" />
<line x1="2.95405" y1="1.45118" x2="2.59802" y2="1.74848" style="stroke:rgb(246,147,147);stroke-width:0.01" />
<line x1="2.91056" y1="1.84579" x2="2.76654" y2="1.87524" style="stroke:rgb(246,147,147);stroke-width:0.01" />
<line x1="2.95722" y1="1.76425" x2="2.84799" y2="1.87299" style="stroke:rgb(246,147,147);stroke-width:0.01" />
<line x1="2.94637" y1="1.80595" x2="2.7315" y2="1.9989" style="stroke:rgb(246,147,147);stroke-width:0.01" />
</g>
</svg>
