<svg xmlns="http://www.w3.org/2000/svg" viewBox="-1.5 -1.5 3 3">
<g transform="scale(1, -1)">
<path d="M-0.256498 -0.264310 L0.004674 -0.198747 L0.099397 -0.219481 L0.106728 -0.213023 L0.155801 -0.254001 L0.222789 -0.233225 L0.192963 -0.137059 L0.214048 -0.118485 L0.158980 0.059069 L0.144042 0.073940 L0.148124 0.100771 L0.109093 0.135822 L0.112317 0.140617 L-0.013563 0.329220 L-0.066743 0.293726 L-0.075772 0.167833 L-0.096234 0.167836 L-0.116554 0.143502 L-0.186109 0.126404 L-0.173537 0.075263 L-0.200228 0.043299 L-0.198664 -0.068411 L-0.285053 -0.150560 z " fill="rgb(245,195,195)" />
<path d="M-2.798244 -1.705176 L-1.798244 -1.705176 L-1.798244 -0.705176 L-2.798244 -0.705176  z" fill="none" stroke="rgb(128,128,128)" stroke-width="0.01" />
<line x1="-0.100411" y1="-0.175746" x2="0.112317" y2="0.140617" style="stroke:rgb(246,147,147);stroke-width:0.01" />
<line x1="-0.10525" y1="-0.0153484" x2="-0.0223944" y2="0.166649" style="stroke:rgb(246,147,147);stroke-width:0.01" />
<line x1="-0.198404" y1="-0.0870089" x2="-0.0317004" y2="0.170064" style="stroke:rgb(246,147,147);stroke-width:0.01" />
<line x1="0.113173" y1="-0.0320572" x2="0.135567" y2="0.048" style="stroke:rgb(246,147,147);stroke-width:0.01" />
<line x1="0.099397" y1="-0.219481" x2="0.214048" y2="-0.118485" style="stroke:rgb(246,147,147);stroke-width:0.01" />
<line x1="-0.200228" y1="0.0432994" x2="-0.0962338" y2="0.167836" style="stroke:rgb(246,147,147);stroke-width:0.01" />
<line x1="-0.285053" y1="-0.15056" x2="0.0497492" y2="0.16781" style="stroke:rgb(246,147,147);stroke-width:0.01" />
<line x1="-0.148716" y1="-0.131341" x2="-0.0962338" y2="0.167836" style="stroke:rgb(246,147,147);stroke-width:0.01" />
<line x1="0.099397" y1="-0.219481" x2="0.148124" y2="0.100771" style="stroke:rgb(246,147,147);stroke-width:0.01" />
<line x1="-0.152438" y1="-0.191039" x2="0.15898" y2="0.059069" style="stroke:rgb(246,147,147);stroke-width:0.01" />
<line x1="0.155801" y1="-0.254001" x2="0.168978" y2="-0.146032" style="stroke:rgb(246,147,147);stroke-width:0.01" />
<line x1="-0.100411" y1="-0.175746" x2="-0.0667432" y2="0.293726" style="stroke:rgb(246,147,147);stroke-width:0.01" />
<line x1="0.0398833" y1="-0.189908" x2="0.0497492" y2="0.16781" style="stroke:rgb(246,147,147);stroke-width:0.01" />
<line x1="-0.198404" y1="-0.0870089" x2="-0.200228" y2="0.0432994" style="stroke:rgb(246,147,147);stroke-width:0.01" />
<line x1="-0.0667432" y1="0.293726" x2="-0.0135631" y2="0.32922" style="stroke:rgb(246,147,147);stroke-width:0.01" />
<line x1="-0.152438" y1="-0.191039" x2="-0.167231" y2="-0.00358182" style="stroke:rgb(246,147,147);stroke-width:0.01" />
<line x1="-0.10525" y1="-0.0153484" x2="0.148124" y2="0.100771" style="stroke:rgb(246,147,147);stroke-width:0.01" />
<line x1="0.155801" y1="-0.254001" x2="0.222789" y2="-0.233225" style="stroke:rgb(246,147,147);stroke-width:0.01" />
<line x1="-0.256498" y1="-0.26431" x2="-0.285053" y2="-0.15056" style="stroke:rgb(246,147,147);stroke-width:0.01" />
<line x1="-0.104183" y1="-0.206864" x2="0.214048" y2="-0.118485" style="stroke:rgb(246,147,147);stroke-width:0.01" />
<line x1="-0.104183" y1="-0.206864" x2="-0.186109" y2="0.126404" style="stroke:rgb(246,147,147);stroke-width:0.01" />
<line x1="-0.256498" y1="-0.26431" x2="0.0398833" y2="-0.189908" style="stroke:rgb(246,147,147);stroke-width:0.01" />
<line x1="-0.104183" y1="-0.206864" x2="-0.167231" y2="-0.00358182" style="stroke:rgb(246,147,147);stroke-width:0.01" />
<line x1="0.222789" y1="-0.233225" x2="0.135567" y2="0.048" style="stroke:rgb(246,147,147);stroke-width:0.01" />
<line x1="0.214048" y1="-0.118485" x2="0.15898" y2="0.059069" style="stroke:rgb(246,147,147);stroke-width:0.01" />
<line x1="-0.186109" y1="0.126404" x2="-0.0223944" y2="0.166649" style="stroke:rgb(246,147,147);stroke-width:0.01" />
<line x1="-0.198404" y1="-0.0870089" x2="0.113173" y2="-0.0320572" style="stroke:rgb(246,147,147);stroke-width:0.01" />
<line x1="-0.167231" y1="-0.00358182" x2="0.15898" y2="0.059069" style="stroke:rgb(246,147,147);stroke-width:0.01" />
<line x1="0.168978" y1="-0.146032" x2="-0.148716" y2="-0.131341" style="stroke:rgb(246,147,147);stroke-width:0.01" />
<line x1="-0.200228" y1="0.0432994" x2="0.135567" y2="0.048" style="stroke:rgb(246,147,147);stroke-width:0.01" />
<line x1="0.0497492" y1="0.16781" x2="-0.0962338" y2="0.167836" style="stroke:rgb(246,147,147);stroke-width:0.01" />
<line x1="0.112317" y1="0.140617" x2="-0.0135631" y2="0.32922" style="stroke:rgb(246,147,147);stroke-width:0.01" />
<line x1="0.113173" y1="-0.0320572" x2="-0.0317004" y2="0.170064" style="stroke:rgb(246,147,147);stroke-width:0.01" />
<line x1="0.099397" y1="-0.219481" x2="-0.100411" y2="-0.175746" style="stroke:rgb(246,147,147);stroke-width:0.01" />
<line x1="0.168978" y1="-0.146032" x2="-0.0962338" y2="0.167836" style="stroke:rgb(246,147,147);stroke-width:0.01" />
<line x1="-0.152438" y1="-0.191039" x2="-0.285053" y2="-0.15056" style="stroke:rgb(246,147,147);stroke-width:0.01" />
<line x1="0.214048" y1="-0.118485" x2="-0.0223944" y2="0.166649" style="stroke:rgb(246,147,147);stroke-width:0.01" />
<line x1="-0.100411" y1="-0.175746" x2="-0.198404" y2="-0.0870089" style="stroke:rgb(246,147,147);stroke-width:0.01" />
<line x1="0.0398833" y1="-0.189908" x2="-0.148716" y2="-0.131341" style="stroke:rgb(246,147,147);stroke-width:0.01" />
<line x1="0.099397" y1="-0.219481" x2="-0.10525" y2="-0.0153484" style="stroke:rgb(246,147,147);stroke-width:0.01" />
<line x1="0.155801" y1="-0.254001" x2="-0.200228" y2="0.0432994" style="stroke:rgb(246,147,147);stroke-width:0.01" />
<line x1="0.112317" y1="0.140617" x2="-0.0317004" y2="0.170064" style="stroke:rgb(246,147,147);stroke-width:0.01" />
<line x1="0.15898" y1="0.059069" x2="0.0497492" y2="0.16781" style="stroke:rgb(246,147,147);stroke-width:0.01" />
<line x1="0.148124" y1="0.100771" x2="-0.0667432" y2="0.293726" style="stroke:rgb(246,147,147);stroke-width:0.01" />
</g>
</svg>
