<svg xmlns="http://www.w3.org/2000/svg" viewBox="-1.5 -1.5 3 3">
<g transform="scale(1, -1)">
<path d="M0.882169 0.941454 L0.928413 0.963973 L0.928991 0.976427 L0.952654 1.006851 L1.014516 1.043011 L1.070430 1.172312 L1.055663 1.222066 L1.058210 1.223589 L1.052259 1.233535 L1.023118 1.331720 L0.949731 1.422849 L0.839516 1.417473 L0.753699 1.400999 L0.729668 1.422250 L0.724515 1.416423 L0.726769 1.395830 L0.719086 1.394355 L0.593817 1.290323 L0.594892 1.176882 L0.644892 1.049731 L0.773925 0.965054 L0.870328 0.965770 z " fill="rgb(245,195,195)" />
<path d="M0.000000 0.000000 L1.000000 0.000000 L1.000000 1.000000 L0.000000 1.000000  z" fill="none" stroke="rgb(128,128,128)" stroke-width="0.01" />
<line x1="1.01452" y1="1.04301" x2="1.07043" y2="1.17231" style="stroke:rgb(246,147,147);stroke-width:0.01" />
<line x1="0.773925" y1="0.965054" x2="0.922746" y2="1.25151" style="stroke:rgb(246,147,147);stroke-width:0.01" />
<line x1="0.922228" y1="0.967731" x2="0.969585" y2="1.02862" style="stroke:rgb(246,147,147);stroke-width:0.01" />
<line x1="0.981719" y1="1.20555" x2="1.02941" y2="1.27172" style="stroke:rgb(246,147,147);stroke-width:0.01" />
<line x1="0.735714" y1="1.04121" x2="0.754206" y2="1.319" style="stroke:rgb(246,147,147);stroke-width:0.01" />
<line x1="0.928413" y1="0.963973" x2="0.949731" y2="1.42285" style="stroke:rgb(246,147,147);stroke-width:0.01" />
<line x1="0.594892" y1="1.17688" x2="0.593817" y2="1.29032" style="stroke:rgb(246,147,147);stroke-width:0.01" />
<line x1="0.814536" y1="1.07056" x2="0.92365" y2="1.19169" style="stroke:rgb(246,147,147);stroke-width:0.01" />
<line x1="0.882527" y1="0.96586" x2="0.848423" y2="1.32634" style="stroke:rgb(246,147,147);stroke-width:0.01" />
<line x1="0.773925" y1="0.965054" x2="0.724515" y2="1.41642" style="stroke:rgb(246,147,147);stroke-width:0.01" />
<line x1="0.748156" y1="1.1395" x2="0.731854" y2="1.28577" style="stroke:rgb(246,147,147);stroke-width:0.01" />
<line x1="0.90266" y1="1.09164" x2="0.87941" y2="1.31053" style="stroke:rgb(246,147,147);stroke-width:0.01" />
<line x1="0.771236" y1="1.21415" x2="0.754206" y2="1.319" style="stroke:rgb(246,147,147);stroke-width:0.01" />
<line x1="0.771536" y1="1.05207" x2="0.92365" y2="1.19169" style="stroke:rgb(246,147,147);stroke-width:0.01" />
<line x1="0.922228" y1="0.967731" x2="0.839516" y2="1.41747" style="stroke:rgb(246,147,147);stroke-width:0.01" />
<line x1="0.722452" y1="1.19206" x2="0.848423" y2="1.32634" style="stroke:rgb(246,147,147);stroke-width:0.01" />
<line x1="0.644892" y1="1.04973" x2="0.864427" y2="1.26542" style="stroke:rgb(246,147,147);stroke-width:0.01" />
<line x1="0.748156" y1="1.1395" x2="0.871084" y2="1.25744" style="stroke:rgb(246,147,147);stroke-width:0.01" />
<line x1="0.90266" y1="1.09164" x2="0.864427" y2="1.26542" style="stroke:rgb(246,147,147);stroke-width:0.01" />
<line x1="0.611583" y1="1.15865" x2="0.731854" y2="1.28577" style="stroke:rgb(246,147,147);stroke-width:0.01" />
<line x1="0.724515" y1="1.41642" x2="0.729668" y2="1.42225" style="stroke:rgb(246,147,147);stroke-width:0.01" />
<line x1="0.814536" y1="1.07056" x2="0.719086" y2="1.39435" style="stroke:rgb(246,147,147);stroke-width:0.01" />
<line x1="0.882527" y1="0.96586" x2="1.01452" y2="1.04301" style="stroke:rgb(246,147,147);stroke-width:0.01" />
<line x1="0.644892" y1="1.04973" x2="0.594892" y2="1.17688" style="stroke:rgb(246,147,147);stroke-width:0.01" />
<line x1="1.07043" y1="1.17231" x2="1.02312" y2="1.33172" style="stroke:rgb(246,147,147);stroke-width:0.01" />
<line x1="0.969585" y1="1.02862" x2="0.839516" y2="1.41747" style="stroke:rgb(246,147,147);stroke-width:0.01" />
<line x1="0.882169" y1="0.941454" x2="0.928413" y2="0.963973" style="stroke:rgb(246,147,147);stroke-width:0.01" />
<line x1="0.771536" y1="1.05207" x2="1.05821" y2="1.22359" style="stroke:rgb(246,147,147);stroke-width:0.01" />
<line x1="0.593817" y1="1.29032" x2="0.719086" y2="1.39435" style="stroke:rgb(246,147,147);stroke-width:0.01" />
<line x1="0.882169" y1="0.941454" x2="0.721127" y2="1.27216" style="stroke:rgb(246,147,147);stroke-width:0.01" />
<line x1="0.721127" y1="1.27216" x2="0.949731" y2="1.42285" style="stroke:rgb(246,147,147);stroke-width:0.01" />
<line x1="0.735714" y1="1.04121" x2="1.07043" y2="1.17231" style="stroke:rgb(246,147,147);stroke-width:0.01" />
<line x1="0.771236" y1="1.21415" x2="1.02312" y2="1.33172" style="stroke:rgb(246,147,147);stroke-width:0.01" />
<line x1="0.722452" y1="1.19206" x2="0.871084" y2="1.25744" style="stroke:rgb(246,147,147);stroke-width:0.01" />
<line x1="0.594892" y1="1.17688" x2="0.87941" y2="1.31053" style="stroke:rgb(246,147,147);stroke-width:0.01" />
<line x1="0.882527" y1="0.96586" x2="0.722452" y2="1.19206" style="stroke:rgb(246,147,147);stroke-width:0.01" />
<line x1="0.771536" y1="1.05207" x2="0.593817" y2="1.29032" style="stroke:rgb(246,147,147);stroke-width:0.01" />
<line x1="1.05821" y1="1.22359" x2="1.02941" y2="1.27172" style="stroke:rgb(246,147,147);stroke-width:0.01" />
<line x1="1.01452" y1="1.04301" x2="0.871084" y2="1.25744" style="stroke:rgb(246,147,147);stroke-width:0.01" />
<line x1="0.771236" y1="1.21415" x2="0.721127" y2="1.27216" style="stroke:rgb(246,147,147);stroke-width:0.01" />
<line x1="0.735714" y1="1.04121" x2="0.611583" y2="1.15865" style="stroke:rgb(246,147,147);stroke-width:0.01" />
<line x1="0.644892" y1="1.04973" x2="0.90266" y2="1.09164" style="stroke:rgb(246,147,147);stroke-width:0.01" />
<line x1="0.773925" y1="0.965054" x2="0.882527" y2="0.96586" style="stroke:rgb(246,147,147);stroke-width:0.01" />
<line x1="1.02312" y1="1.33172" x2="0.949731" y2="1.42285" style="stroke:rgb(246,147,147);stroke-width:0.01" />
<line x1="0.773925" y1="0.965054" x2="0.644892" y2="1.04973" style="stroke:rgb(246,147,147);stroke-width:0.01" />
<line x1="0.92365" y1="1.19169" x2="0.719086" y2="1.39435" style="stroke:rgb(246,147,147);stroke-width:0.01" />
<line x1="0.981719" y1="1.20555" x2="0.87941" y2="1.31053" style="stroke:rgb(246,147,147);stroke-width:0.01" />
<line x1="0.928413" y1="0.963973" x2="0.922228" y2="0.967731" style="stroke:rgb(246,147,147);stroke-width:0.01" />
<line x1="0.594892" y1="1.17688" x2="0.981719" y2="1.20555" style="stroke:rgb(246,147,147);stroke-width:0.01" />
<line x1="0.922746" y1="1.25151" x2="0.729668" y2="1.42225" style="stroke:rgb(246,147,147);stroke-width:0.01" />
<line x1="0.969585" y1="1.02862" x2="0.814536" y2="1.07056" style="stroke:rgb(246,147,147);stroke-width:0.01" />
<line x1="0.719086" y1="1.39435" x2="0.839516" y2="1.41747" style="stroke:rgb(246,147,147);stroke-width:0.01" />
<line x1="1.01452" y1="1.04301" x2="0.748156" y2="1.1395" style="stroke:rgb(246,147,147);stroke-width:0.01" />
<line x1="0.848423" y1="1.32634" x2="0.724515" y2="1.41642" style="stroke:rgb(246,147,147);stroke-width:0.01" />
<line x1="0.754206" y1="1.319" x2="1.02312" y2="1.33172" style="stroke:rgb(246,147,147);stroke-width:0.01" />
<line x1="1.02941" y1="1.27172" x2="0.593817" y2="1.29032" style="stroke:rgb(246,147,147);stroke-width:0.01" />
<line x1="0.839516" y1="1.41747" x2="0.949731" y2="1.42285" style="stroke:rgb(246,147,147);stroke-width:0.01" />
<line x1="1.07043" y1="1.17231" x2="0.731854" y2="1.28577" style="stroke:rgb(246,147,147);stroke-width:0.01" />
<line x1="0.922746" y1="1.25151" x2="0.864427" y2="1.26542" style="stroke:rgb(246,147,147);stroke-width:0.01" />
</g>
</svg>
