<svg xmlns="http://www.w3.org/2000/svg" viewBox="-1.5 -1.5 3 3">
<g transform="scale(1, -1)">
<path d="M-0.215909 -0.329545 L-0.090909 -0.204545 L0.159091 -0.204545 L0.409091 0.045455 L0.159091 0.045455 L0.284091 0.170455 L0.159091 0.295455 L-0.090909 0.295455 L-0.090909 0.045455 L-0.340909 0.045455 L-0.340909 -0.204545 z " fill="rgb(245,195,195)" />
<path d="M-0.340909 -0.204545 L0.659091 -0.204545 L0.659091 0.795455 L-0.340909 0.795455  z" fill="none" stroke="rgb(128,128,128)" stroke-width="0.01" />
<line x1="0.159091" y1="-0.204545" x2="0.409091" y2="0.0454545" style="stroke:rgb(246,147,147);stroke-width:0.01" />
<line x1="-0.215909" y1="-0.329545" x2="0.284091" y2="0.170455" style="stroke:rgb(246,147,147);stroke-width:0.01" />
<line x1="-0.340909" y1="-0.204545" x2="0.159091" y2="-0.204545" style="stroke:rgb(246,147,147);stroke-width:0.01" />
<line x1="-0.340909" y1="-0.204545" x2="0.159091" y2="0.295455" style="stroke:rgb(246,147,147);stroke-width:0.01" />
<line x1="-0.340909" y1="-0.204545" x2="-0.340909" y2="0.0454545" style="stroke:rgb(246,147,147);stroke-width:0.01" />
<line x1="-0.215909" y1="-0.329545" x2="-0.340909" y2="-0.204545" style="stroke:rgb(246,147,147);stroke-width:0.01" />
<line x1="-0.0909091" y1="-0.204545" x2="-0.0909091" y2="0.295455" style="stroke:rgb(246,147,147);stroke-width:0.01" />
<line x1="0.159091" y1="-0.204545" x2="0.159091" y2="0.295455" style="stroke:rgb(246,147,147);stroke-width:0.01" />
<line x1="-0.340909" y1="0.0454545" x2="0.409091" y2="0.0454545" style="stroke:rgb(246,147,147);stroke-width:0.01" />
<line x1="0.159091" y1="-0.204545" x2="-0.0909091" y2="0.0454545" style="stroke:rgb(246,147,147);stroke-width:0.01" />
<line x1="-0.0909091" y1="0.295455" x2="0.159091" y2="0.295455" style="stroke:rgb(246,147,147);stroke-width:0.01" />
<line x1="0.284091" y1="0.170455" x2="0.159091" y2="0.295455" style="stroke:rgb(246,147,147);stroke-width:0.01" />
</g>
</svg>
