<svg xmlns="http://www.w3.org/2000/svg" viewBox="-1.5 -1.5 3 3">
<g transform="scale(1, -1)">
<path d="M0.681481 -0.047425 L1.141339 0.234423 L1.379500 0.633854 L1.368655 0.730805 L0.669214 0.652566 L0.613387 0.720444 L0.509076 0.634653 L0.636343 0.333503 L0.542805 0.295699 L0.594031 0.168953 L0.551489 0.102102 z " fill="rgb(245,195,195)" />
<path d="M0.000000 0.000000 L1.000000 0.000000 L1.000000 1.000000 L0.000000 1.000000  z" fill="none" stroke="rgb(128,128,128)" stroke-width="0.01" />
<line x1="1.14134" y1="0.234423" x2="1.3795" y2="0.633854" style="stroke:rgb(246,147,147);stroke-width:0.01" />
<line x1="0.929259" y1="0.114444" x2="1.02265" y2="0.22651" style="stroke:rgb(246,147,147);stroke-width:0.01" />
<line x1="0.924382" y1="0.110787" x2="0.935062" y2="0.121408" style="stroke:rgb(246,147,147);stroke-width:0.01" />
<line x1="0.935062" y1="0.121408" x2="0.986874" y2="0.196927" style="stroke:rgb(246,147,147);stroke-width:0.01" />
<line x1="0.924382" y1="0.110787" x2="0.929259" y2="0.114444" style="stroke:rgb(246,147,147);stroke-width:0.01" />
<line x1="0.929259" y1="0.114444" x2="0.982329" y2="0.220974" style="stroke:rgb(246,147,147);stroke-width:0.01" />
<line x1="0.681481" y1="-0.0474255" x2="1.14134" y2="0.234423" style="stroke:rgb(246,147,147);stroke-width:0.01" />
<line x1="0.786835" y1="0.0348641" x2="0.924382" y2="0.110787" style="stroke:rgb(246,147,147);stroke-width:0.01" />
<line x1="0.551489" y1="0.102102" x2="0.613291" y2="0.199219" style="stroke:rgb(246,147,147);stroke-width:0.01" />
<line x1="0.982329" y1="0.220974" x2="0.988979" y2="0.224265" style="stroke:rgb(246,147,147);stroke-width:0.01" />
<line x1="0.786835" y1="0.0348641" x2="0.839164" y2="0.214278" style="stroke:rgb(246,147,147);stroke-width:0.01" />
<line x1="0.839216" y1="0.214161" x2="0.839535" y2="0.214302" style="stroke:rgb(246,147,147);stroke-width:0.01" />
<line x1="0.968689" y1="0.193593" x2="0.986874" y2="0.196927" style="stroke:rgb(246,147,147);stroke-width:0.01" />
<line x1="0.542805" y1="0.295699" x2="1.3795" y2="0.633854" style="stroke:rgb(246,147,147);stroke-width:0.01" />
<line x1="0.509076" y1="0.634653" x2="0.613387" y2="0.720444" style="stroke:rgb(246,147,147);stroke-width:0.01" />
<line x1="0.613291" y1="0.199219" x2="1.14134" y2="0.234423" style="stroke:rgb(246,147,147);stroke-width:0.01" />
<line x1="1.3795" y1="0.633854" x2="1.36866" y2="0.730805" style="stroke:rgb(246,147,147);stroke-width:0.01" />
<line x1="0.986874" y1="0.196927" x2="0.982329" y2="0.220974" style="stroke:rgb(246,147,147);stroke-width:0.01" />
<line x1="0.681481" y1="-0.0474255" x2="0.542805" y2="0.295699" style="stroke:rgb(246,147,147);stroke-width:0.01" />
<line x1="0.786835" y1="0.0348641" x2="0.551489" y2="0.102102" style="stroke:rgb(246,147,147);stroke-width:0.01" />
<line x1="0.773493" y1="0.00896894" x2="0.509076" y2="0.634653" style="stroke:rgb(246,147,147);stroke-width:0.01" />
<line x1="0.681481" y1="-0.0474255" x2="0.551489" y2="0.102102" style="stroke:rgb(246,147,147);stroke-width:0.01" />
<line x1="0.839216" y1="0.214161" x2="0.839164" y2="0.214278" style="stroke:rgb(246,147,147);stroke-width:0.01" />
<line x1="0.773493" y1="0.00896894" x2="0.613291" y2="0.199219" style="stroke:rgb(246,147,147);stroke-width:0.01" />
<line x1="1.05609" y1="0.182174" x2="1.04618" y2="0.204899" style="stroke:rgb(246,147,147);stroke-width:0.01" />
<line x1="0.978659" y1="0.173724" x2="0.839535" y2="0.214302" style="stroke:rgb(246,147,147);stroke-width:0.01" />
<line x1="0.978659" y1="0.173724" x2="0.968689" y2="0.193593" style="stroke:rgb(246,147,147);stroke-width:0.01" />
<line x1="1.04618" y1="0.204899" x2="0.988979" y2="0.224265" style="stroke:rgb(246,147,147);stroke-width:0.01" />
<line x1="0.509076" y1="0.634653" x2="1.36866" y2="0.730805" style="stroke:rgb(246,147,147);stroke-width:0.01" />
<line x1="1.05609" y1="0.182174" x2="0.613387" y2="0.720444" style="stroke:rgb(246,147,147);stroke-width:0.01" />
<line x1="1.04618" y1="0.204899" x2="1.02265" y2="0.22651" style="stroke:rgb(246,147,147);stroke-width:0.01" />
</g>
</svg>
