<svg xmlns="http://www.w3.org/2000/svg" viewBox="-1.5 -1.5 3 3">
<g transform="scale(1, -1)">
<path d="M0.169887 -1.110804 L0.532852 -1.019313 L0.597797 -1.103314 L0.756649 -1.062464 L0.715631 -0.902956 L0.940246 -0.467300 L0.909963 -0.423902 L0.846494 -0.468190 L0.604418 -0.470487 L0.536706 -0.558676 L0.234678 -0.551821 L0.191387 -0.925315 L0.089879 -0.996145 z " fill="rgb(245,195,195)" />
<path d="M0.000000 0.000000 L1.000000 0.000000 L1.000000 1.000000 L0.000000 1.000000  z" fill="none" stroke="rgb(128,128,128)" stroke-width="0.01" />
<line x1="0.597797" y1="-1.10331" x2="0.756649" y2="-1.06246" style="stroke:rgb(246,147,147);stroke-width:0.01" />
<line x1="0.169887" y1="-1.1108" x2="0.67398" y2="-0.983739" style="stroke:rgb(246,147,147);stroke-width:0.01" />
<line x1="0.255487" y1="-0.848553" x2="0.758596" y2="-0.813273" style="stroke:rgb(246,147,147);stroke-width:0.01" />
<line x1="0.0898793" y1="-0.996145" x2="0.909963" y2="-0.423902" style="stroke:rgb(246,147,147);stroke-width:0.01" />
<line x1="0.357335" y1="-0.792291" x2="0.597253" y2="-0.56005" style="stroke:rgb(246,147,147);stroke-width:0.01" />
<line x1="0.597253" y1="-0.56005" x2="0.234678" y2="-0.551821" style="stroke:rgb(246,147,147);stroke-width:0.01" />
<line x1="0.597797" y1="-1.10331" x2="0.758596" y2="-0.813273" style="stroke:rgb(246,147,147);stroke-width:0.01" />
<line x1="0.67398" y1="-0.983739" x2="0.940246" y2="-0.4673" style="stroke:rgb(246,147,147);stroke-width:0.01" />
<line x1="0.604418" y1="-0.470487" x2="0.940246" y2="-0.4673" style="stroke:rgb(246,147,147);stroke-width:0.01" />
<line x1="0.357335" y1="-0.792291" x2="0.604418" y2="-0.470487" style="stroke:rgb(246,147,147);stroke-width:0.01" />
<line x1="0.67398" y1="-0.983739" x2="0.357335" y2="-0.792291" style="stroke:rgb(246,147,147);stroke-width:0.01" />
<line x1="0.169887" y1="-1.1108" x2="0.0898793" y2="-0.996145" style="stroke:rgb(246,147,147);stroke-width:0.01" />
<line x1="0.597797" y1="-1.10331" x2="0.357335" y2="-0.792291" style="stroke:rgb(246,147,147);stroke-width:0.01" />
<line x1="0.169887" y1="-1.1108" x2="0.234678" y2="-0.551821" style="stroke:rgb(246,147,147);stroke-width:0.01" />
<line x1="0.255487" y1="-0.848553" x2="0.234678" y2="-0.551821" style="stroke:rgb(246,147,147);stroke-width:0.01" />
<line x1="0.67398" y1="-0.983739" x2="0.597253" y2="-0.56005" style="stroke:rgb(246,147,147);stroke-width:0.01" />
<line x1="0.758596" y1="-0.813273" x2="0.597253" y2="-0.56005" style="stroke:rgb(246,147,147);stroke-width:0.01" />
<line x1="0.756649" y1="-1.06246" x2="0.604418" y2="-0.470487" style="stroke:rgb(246,147,147);stroke-width:0.01" />
<line x1="0.940246" y1="-0.4673" x2="0.909963" y2="-0.423902" style="stroke:rgb(246,147,147);stroke-width:0.01" />
</g>
</svg>
