<svg xmlns="http://www.w3.org/2000/svg" viewBox="-1.5 -1.5 3 3">
<g transform="scale(1, -1)">
<path d="M-0.378312 -0.336905 L-0.015347 -0.245414 L0.049598 -0.329416 L0.208450 -0.288565 L0.167432 -0.129057 L0.392047 0.306599 L0.361764 0.349997 L0.298295 0.305709 L0.056219 0.303412 L-0.011493 0.215223 L-0.313521 0.222078 L-0.356812 -0.151416 L-0.458320 -0.222246 z " fill="rgb(245,195,195)" />
<path d="M-0.548199 0.773899 L0.451801 0.773899 L0.451801 1.773899 L-0.548199 1.773899  z" fill="none" stroke="rgb(128,128,128)" stroke-width="0.01" />
<line x1="0.0495975" y1="-0.329416" x2="0.20845" y2="-0.288565" style="stroke:rgb(246,147,147);stroke-width:0.01" />
<line x1="-0.378312" y1="-0.336905" x2="0.125781" y2="-0.20984" style="stroke:rgb(246,147,147);stroke-width:0.01" />
<line x1="-0.292712" y1="-0.0746543" x2="0.210397" y2="-0.0393738" style="stroke:rgb(246,147,147);stroke-width:0.01" />
<line x1="-0.45832" y1="-0.222246" x2="0.361764" y2="0.349997" style="stroke:rgb(246,147,147);stroke-width:0.01" />
<line x1="-0.190864" y1="-0.018392" x2="0.0490544" y2="0.213849" style="stroke:rgb(246,147,147);stroke-width:0.01" />
<line x1="0.0490544" y1="0.213849" x2="-0.313521" y2="0.222078" style="stroke:rgb(246,147,147);stroke-width:0.01" />
<line x1="0.0495975" y1="-0.329416" x2="0.210397" y2="-0.0393738" style="stroke:rgb(246,147,147);stroke-width:0.01" />
<line x1="0.125781" y1="-0.20984" x2="0.392047" y2="0.306599" style="stroke:rgb(246,147,147);stroke-width:0.01" />
<line x1="0.0562192" y1="0.303412" x2="0.392047" y2="0.306599" style="stroke:rgb(246,147,147);stroke-width:0.01" />
<line x1="-0.190864" y1="-0.018392" x2="0.0562192" y2="0.303412" style="stroke:rgb(246,147,147);stroke-width:0.01" />
<line x1="0.125781" y1="-0.20984" x2="-0.190864" y2="-0.018392" style="stroke:rgb(246,147,147);stroke-width:0.01" />
<line x1="-0.378312" y1="-0.336905" x2="-0.45832" y2="-0.222246" style="stroke:rgb(246,147,147);stroke-width:0.01" />
<line x1="0.0495975" y1="-0.329416" x2="-0.190864" y2="-0.018392" style="stroke:rgb(246,147,147);stroke-width:0.01" />
<line x1="-0.378312" y1="-0.336905" x2="-0.313521" y2="0.222078" style="stroke:rgb(246,147,147);stroke-width:0.01" />
<line x1="-0.292712" y1="-0.0746543" x2="-0.313521" y2="0.222078" style="stroke:rgb(246,147,147);stroke-width:0.01" />
<line x1="0.125781" y1="-0.20984" x2="0.0490544" y2="0.213849" style="stroke:rgb(246,147,147);stroke-width:0.01" />
<line x1="0.210397" y1="-0.0393738" x2="0.0490544" y2="0.213849" style="stroke:rgb(246,147,147);stroke-width:0.01" />
<line x1="0.20845" y1="-0.288565" x2="0.0562192" y2="0.303412" style="stroke:rgb(246,147,147);stroke-width:0.01" />
<line x1="0.392047" y1="0.306599" x2="0.361764" y2="0.349997" style="stroke:rgb(246,147,147);stroke-width:0.01" />
</g>
</svg>
