<svg xmlns="http://www.w3.org/2000/svg" viewBox="-1.5 -1.5 3 3">
<g transform="scale(1, -1)">
<path d="M-0.073697 -0.487448 L0.532705 0.135798 L0.459165 0.253122 L0.398325 0.214987 L-0.209540 0.573192 L-0.448276 0.168064 L-0.244753 -0.188101 L-0.283642 -0.212477 L-0.130286 -0.457137 z " fill="rgb(245,195,195)" />
<path d="M-0.165181 -0.831936 L0.834819 -0.831936 L0.834819 0.168064 L-0.165181 0.168064  z" fill="none" stroke="rgb(128,128,128)" stroke-width="0.01" />
<line x1="-0.165181" y1="-0.327353" x2="-0.165181" y2="0.168064" style="stroke:rgb(246,147,147);stroke-width:0.01" />
<line x1="-0.0418474" y1="-0.454714" x2="-0.0418474" y2="0.168064" style="stroke:rgb(246,147,147);stroke-width:0.01" />
<line x1="-0.130286" y1="-0.457137" x2="-0.283642" y2="-0.212477" style="stroke:rgb(246,147,147);stroke-width:0.01" />
<line x1="-0.0736974" y1="-0.487448" x2="0.532705" y2="0.135798" style="stroke:rgb(246,147,147);stroke-width:0.01" />
<line x1="-0.0736974" y1="-0.487448" x2="-0.448276" y2="0.168064" style="stroke:rgb(246,147,147);stroke-width:0.01" />
<line x1="-0.00803146" y1="-0.419958" x2="-0.179141" y2="-0.146974" style="stroke:rgb(246,147,147);stroke-width:0.01" />
<line x1="-0.0736974" y1="-0.487448" x2="-0.130286" y2="-0.457137" style="stroke:rgb(246,147,147);stroke-width:0.01" />
<line x1="-0.130286" y1="-0.457137" x2="-0.0418474" y2="-0.454714" style="stroke:rgb(246,147,147);stroke-width:0.01" />
<line x1="-0.00803146" y1="-0.419958" x2="-0.165181" y2="-0.327353" style="stroke:rgb(246,147,147);stroke-width:0.01" />
<line x1="-0.448276" y1="0.168064" x2="-0.20954" y2="0.573192" style="stroke:rgb(246,147,147);stroke-width:0.01" />
<line x1="-0.283642" y1="-0.212477" x2="0.459165" y2="0.253122" style="stroke:rgb(246,147,147);stroke-width:0.01" />
<line x1="0.532705" y1="0.135798" x2="0.459165" y2="0.253122" style="stroke:rgb(246,147,147);stroke-width:0.01" />
<line x1="-0.448276" y1="0.168064" x2="-0.0418474" y2="0.168064" style="stroke:rgb(246,147,147);stroke-width:0.01" />
<line x1="0.532705" y1="0.135798" x2="-0.20954" y2="0.573192" style="stroke:rgb(246,147,147);stroke-width:0.01" />
</g>
</svg>
