<svg xmlns="http://www.w3.org/2000/svg" viewBox="-1.5 -1.5 3 3">
<g transform="scale(1, -1)">
<path d="M0.091483 0.344487 L0.697885 0.967734 L0.624346 1.085058 L0.563505 1.046922 L-0.044359 1.405128 L-0.283095 1.000000 L-0.079572 0.643835 L-0.118461 0.619459 L0.034894 0.374799 z " fill="rgb(245,195,195)" />
<path d="M0.000000 0.000000 L1.000000 0.000000 L1.000000 1.000000 L0.000000 1.000000  z" fill="none" stroke="rgb(128,128,128)" stroke-width="0.01" />
<line x1="0" y1="0.504583" x2="0" y2="1" style="stroke:rgb(246,147,147);stroke-width:0.01" />
<line x1="0.123333" y1="0.377222" x2="0.123333" y2="1" style="stroke:rgb(246,147,147);stroke-width:0.01" />
<line x1="0.0348943" y1="0.374799" x2="-0.118461" y2="0.619459" style="stroke:rgb(246,147,147);stroke-width:0.01" />
<line x1="0.0914833" y1="0.344487" x2="0.697885" y2="0.967734" style="stroke:rgb(246,147,147);stroke-width:0.01" />
<line x1="0.0914833" y1="0.344487" x2="-0.283095" y2="1" style="stroke:rgb(246,147,147);stroke-width:0.01" />
<line x1="0.157149" y1="0.411978" x2="-0.0139598" y2="0.684962" style="stroke:rgb(246,147,147);stroke-width:0.01" />
<line x1="0.0914833" y1="0.344487" x2="0.0348943" y2="0.374799" style="stroke:rgb(246,147,147);stroke-width:0.01" />
<line x1="0.0348943" y1="0.374799" x2="0.123333" y2="0.377222" style="stroke:rgb(246,147,147);stroke-width:0.01" />
<line x1="0.157149" y1="0.411978" x2="0" y2="0.504583" style="stroke:rgb(246,147,147);stroke-width:0.01" />
<line x1="-0.283095" y1="1" x2="-0.044359" y2="1.40513" style="stroke:rgb(246,147,147);stroke-width:0.01" />
<line x1="-0.118461" y1="0.619459" x2="0.624346" y2="1.08506" style="stroke:rgb(246,147,147);stroke-width:0.01" />
<line x1="0.697885" y1="0.967734" x2="0.624346" y2="1.08506" style="stroke:rgb(246,147,147);stroke-width:0.01" />
<line x1="-0.283095" y1="1" x2="0.123333" y2="1" style="stroke:rgb(246,147,147);stroke-width:0.01" />
<line x1="0.697885" y1="0.967734" x2="-0.044359" y2="1.40513" style="stroke:rgb(246,147,147);stroke-width:0.01" />
</g>
</svg>
