<svg xmlns="http://www.w3.org/2000/svg" viewBox="-1.5 -1.5 3 3">
<g transform="scale(1, -1)">
<path d="M-0.072532 -0.240180 L-0.056640 -0.238956 L0.081036 -0.071777 L0.080865 -0.069560 L-0.072532 -0.081377 L-0.072532 0.093007 L0.160715 0.024976 L0.236016 0.116413 L0.249868 0.163904 L-0.072532 0.257937 L-0.230866 0.139187 L-0.230866 -0.093575 z " fill="rgb(245,195,195)" />
<path d="M-0.174199 -0.406229 L0.825801 -0.406229 L0.825801 0.593771 L-0.174199 0.593771  z" fill="none" stroke="rgb(128,128,128)" stroke-width="0.01" />
<line x1="0.236016" y1="0.116413" x2="0.249868" y2="0.163904" style="stroke:rgb(246,147,147);stroke-width:0.01" />
<line x1="-0.230866" y1="-0.0935749" x2="-0.230866" y2="0.139187" style="stroke:rgb(246,147,147);stroke-width:0.01" />
<line x1="-0.174199" y1="-0.146044" x2="-0.174199" y2="0.181687" style="stroke:rgb(246,147,147);stroke-width:0.01" />
<line x1="-0.152532" y1="-0.166106" x2="-0.152532" y2="0.197937" style="stroke:rgb(246,147,147);stroke-width:0.01" />
<line x1="-0.140866" y1="-0.176908" x2="-0.140866" y2="0.206687" style="stroke:rgb(246,147,147);stroke-width:0.01" />
<line x1="-0.135866" y1="-0.181538" x2="-0.135866" y2="0.210437" style="stroke:rgb(246,147,147);stroke-width:0.01" />
<line x1="-0.0725322" y1="-0.24018" x2="-0.0725322" y2="0.257937" style="stroke:rgb(246,147,147);stroke-width:0.01" />
<line x1="-0.0566402" y1="-0.238956" x2="0.0810359" y2="-0.0717774" style="stroke:rgb(246,147,147);stroke-width:0.01" />
<line x1="0.160715" y1="0.0249763" x2="0.236016" y2="0.116413" style="stroke:rgb(246,147,147);stroke-width:0.01" />
<line x1="-0.0566402" y1="-0.238956" x2="-0.0740233" y2="-0.0898552" style="stroke:rgb(246,147,147);stroke-width:0.01" />
<line x1="0.0810359" y1="-0.0717774" x2="0.0808651" y2="-0.0695601" style="stroke:rgb(246,147,147);stroke-width:0.01" />
<line x1="-0.000785246" y1="-0.171132" x2="-0.011116" y2="-0.0825211" style="stroke:rgb(246,147,147);stroke-width:0.01" />
<line x1="0.00362436" y1="-0.165777" x2="-0.00614967" y2="-0.0819421" style="stroke:rgb(246,147,147);stroke-width:0.01" />
<line x1="0.0139134" y1="-0.153283" x2="0.00543851" y2="-0.080591" style="stroke:rgb(246,147,147);stroke-width:0.01" />
<line x1="0.0330217" y1="-0.13008" x2="0.0269594" y2="-0.078082" style="stroke:rgb(246,147,147);stroke-width:0.01" />
<line x1="-0.0725322" y1="-0.24018" x2="-0.230866" y2="-0.0935749" style="stroke:rgb(246,147,147);stroke-width:0.01" />
<line x1="-0.0725322" y1="-0.24018" x2="-0.0566402" y2="-0.238956" style="stroke:rgb(246,147,147);stroke-width:0.01" />
<line x1="-0.135866" y1="-0.181538" x2="-0.000785246" y2="-0.171132" style="stroke:rgb(246,147,147);stroke-width:0.01" />
<line x1="-0.140866" y1="-0.176908" x2="0.00362436" y2="-0.165777" style="stroke:rgb(246,147,147);stroke-width:0.01" />
<line x1="0.160715" y1="0.0249763" x2="0.139292" y2="0.066457" style="stroke:rgb(246,147,147);stroke-width:0.01" />
<line x1="-0.152532" y1="-0.166106" x2="0.0139134" y2="-0.153283" style="stroke:rgb(246,147,147);stroke-width:0.01" />
<line x1="0.139292" y1="0.066457" x2="0.236016" y2="0.116413" style="stroke:rgb(246,147,147);stroke-width:0.01" />
<line x1="0.199912" y1="0.0725718" x2="0.18964" y2="0.0924605" style="stroke:rgb(246,147,147);stroke-width:0.01" />
<line x1="-0.174199" y1="-0.146044" x2="0.0330217" y2="-0.13008" style="stroke:rgb(246,147,147);stroke-width:0.01" />
<line x1="0.214899" y1="0.0907701" x2="0.20889" y2="0.102403" style="stroke:rgb(246,147,147);stroke-width:0.01" />
<line x1="0.222968" y1="0.100569" x2="0.219256" y2="0.107757" style="stroke:rgb(246,147,147);stroke-width:0.01" />
<line x1="0.226427" y1="0.104769" x2="0.223699" y2="0.110051" style="stroke:rgb(246,147,147);stroke-width:0.01" />
<line x1="-0.0740233" y1="-0.0898552" x2="0.0810359" y2="-0.0717774" style="stroke:rgb(246,147,147);stroke-width:0.01" />
<line x1="-0.230866" y1="-0.0935749" x2="0.0808651" y2="-0.0695601" style="stroke:rgb(246,147,147);stroke-width:0.01" />
<line x1="-0.230866" y1="0.139187" x2="-0.0725322" y2="0.257937" style="stroke:rgb(246,147,147);stroke-width:0.01" />
<line x1="0.160715" y1="0.0249763" x2="-0.230866" y2="0.139187" style="stroke:rgb(246,147,147);stroke-width:0.01" />
<line x1="0.199912" y1="0.0725718" x2="-0.174199" y2="0.181687" style="stroke:rgb(246,147,147);stroke-width:0.01" />
<line x1="0.214899" y1="0.0907701" x2="-0.152532" y2="0.197937" style="stroke:rgb(246,147,147);stroke-width:0.01" />
<line x1="0.222968" y1="0.100569" x2="-0.140866" y2="0.206687" style="stroke:rgb(246,147,147);stroke-width:0.01" />
<line x1="0.226427" y1="0.104769" x2="-0.135866" y2="0.210437" style="stroke:rgb(246,147,147);stroke-width:0.01" />
<line x1="0.249868" y1="0.163904" x2="-0.0725322" y2="0.257937" style="stroke:rgb(246,147,147);stroke-width:0.01" />
</g>
</svg>
