<svg xmlns="http://www.w3.org/2000/svg" viewBox="-1.5 -1.5 3 3">
<g transform="scale(1, -1)">
<path d="M0.101667 0.166049 L0.117559 0.167274 L0.255235 0.334452 L0.255064 0.336669 L0.101667 0.324852 L0.101667 0.499236 L0.334914 0.431206 L0.410215 0.522642 L0.424067 0.570133 L0.101667 0.664167 L-0.056667 0.545417 L-0.056667 0.312654 z " fill="rgb(245,195,195)" />
<path d="M0.000000 0.000000 L1.000000 0.000000 L1.000000 1.000000 L0.000000 1.000000  z" fill="none" stroke="rgb(128,128,128)" stroke-width="0.01" />
<line x1="0.410215" y1="0.522642" x2="0.424067" y2="0.570133" style="stroke:rgb(246,147,147);stroke-width:0.01" />
<line x1="-0.0566667" y1="0.312654" x2="-0.0566667" y2="0.545417" style="stroke:rgb(246,147,147);stroke-width:0.01" />
<line x1="0" y1="0.260185" x2="0" y2="0.587917" style="stroke:rgb(246,147,147);stroke-width:0.01" />
<line x1="0.0216667" y1="0.240123" x2="0.0216667" y2="0.604167" style="stroke:rgb(246,147,147);stroke-width:0.01" />
<line x1="0.0333333" y1="0.229321" x2="0.0333333" y2="0.612917" style="stroke:rgb(246,147,147);stroke-width:0.01" />
<line x1="0.0383333" y1="0.224691" x2="0.0383333" y2="0.616667" style="stroke:rgb(246,147,147);stroke-width:0.01" />
<line x1="0.101667" y1="0.166049" x2="0.101667" y2="0.664167" style="stroke:rgb(246,147,147);stroke-width:0.01" />
<line x1="0.117559" y1="0.167274" x2="0.255235" y2="0.334452" style="stroke:rgb(246,147,147);stroke-width:0.01" />
<line x1="0.334914" y1="0.431206" x2="0.410215" y2="0.522642" style="stroke:rgb(246,147,147);stroke-width:0.01" />
<line x1="0.117559" y1="0.167274" x2="0.100176" y2="0.316374" style="stroke:rgb(246,147,147);stroke-width:0.01" />
<line x1="0.255235" y1="0.334452" x2="0.255064" y2="0.336669" style="stroke:rgb(246,147,147);stroke-width:0.01" />
<line x1="0.173414" y1="0.235098" x2="0.163083" y2="0.323708" style="stroke:rgb(246,147,147);stroke-width:0.01" />
<line x1="0.177823" y1="0.240452" x2="0.168049" y2="0.324287" style="stroke:rgb(246,147,147);stroke-width:0.01" />
<line x1="0.188112" y1="0.252946" x2="0.179637" y2="0.325638" style="stroke:rgb(246,147,147);stroke-width:0.01" />
<line x1="0.207221" y1="0.276149" x2="0.201158" y2="0.328147" style="stroke:rgb(246,147,147);stroke-width:0.01" />
<line x1="0.101667" y1="0.166049" x2="-0.0566667" y2="0.312654" style="stroke:rgb(246,147,147);stroke-width:0.01" />
<line x1="0.101667" y1="0.166049" x2="0.117559" y2="0.167274" style="stroke:rgb(246,147,147);stroke-width:0.01" />
<line x1="0.0383333" y1="0.224691" x2="0.173414" y2="0.235098" style="stroke:rgb(246,147,147);stroke-width:0.01" />
<line x1="0.0333333" y1="0.229321" x2="0.177823" y2="0.240452" style="stroke:rgb(246,147,147);stroke-width:0.01" />
<line x1="0.334914" y1="0.431206" x2="0.313491" y2="0.472686" style="stroke:rgb(246,147,147);stroke-width:0.01" />
<line x1="0.0216667" y1="0.240123" x2="0.188112" y2="0.252946" style="stroke:rgb(246,147,147);stroke-width:0.01" />
<line x1="0.313491" y1="0.472686" x2="0.410215" y2="0.522642" style="stroke:rgb(246,147,147);stroke-width:0.01" />
<line x1="0.374111" y1="0.478801" x2="0.363839" y2="0.49869" style="stroke:rgb(246,147,147);stroke-width:0.01" />
<line x1="0" y1="0.260185" x2="0.207221" y2="0.276149" style="stroke:rgb(246,147,147);stroke-width:0.01" />
<line x1="0.389097" y1="0.496999" x2="0.383089" y2="0.508632" style="stroke:rgb(246,147,147);stroke-width:0.01" />
<line x1="0.397167" y1="0.506798" x2="0.393455" y2="0.513986" style="stroke:rgb(246,147,147);stroke-width:0.01" />
<line x1="0.400626" y1="0.510998" x2="0.397898" y2="0.51628" style="stroke:rgb(246,147,147);stroke-width:0.01" />
<line x1="0.100176" y1="0.316374" x2="0.255235" y2="0.334452" style="stroke:rgb(246,147,147);stroke-width:0.01" />
<line x1="-0.0566667" y1="0.312654" x2="0.255064" y2="0.336669" style="stroke:rgb(246,147,147);stroke-width:0.01" />
<line x1="-0.0566667" y1="0.545417" x2="0.101667" y2="0.664167" style="stroke:rgb(246,147,147);stroke-width:0.01" />
<line x1="0.334914" y1="0.431206" x2="-0.0566667" y2="0.545417" style="stroke:rgb(246,147,147);stroke-width:0.01" />
<line x1="0.374111" y1="0.478801" x2="0" y2="0.587917" style="stroke:rgb(246,147,147);stroke-width:0.01" />
<line x1="0.389097" y1="0.496999" x2="0.0216667" y2="0.604167" style="stroke:rgb(246,147,147);stroke-width:0.01" />
<line x1="0.397167" y1="0.506798" x2="0.0333333" y2="0.612917" style="stroke:rgb(246,147,147);stroke-width:0.01" />
<line x1="0.400626" y1="0.510998" x2="0.0383333" y2="0.616667" style="stroke:rgb(246,147,147);stroke-width:0.01" />
<line x1="0.424067" y1="0.570133" x2="0.101667" y2="0.664167" style="stroke:rgb(246,147,147);stroke-width:0.01" />
</g>
</svg>
