<svg xmlns="http://www.w3.org/2000/svg" viewBox="-1.5 -1.5 3 3">
<g transform="scale(1, -1)">
<path d="M-0.079804 -0.262707 L-0.020108 -0.230861 L-0.013244 -0.202973 L0.179357 -0.030126 L0.169930 0.092244 L0.332707 0.072440 L0.346330 0.140359 L0.128680 0.358009 L-0.130158 0.128752 L-0.130158 0.027760 L-0.167545 0.034753 L-0.180444 -0.034215 L-0.215998 -0.030360 L-0.219545 -0.063076 z " fill="rgb(245,195,195)" />
<path d="M-0.396825 -0.423153 L0.603175 -0.423153 L0.603175 0.576847 L-0.396825 0.576847  z" fill="none" stroke="rgb(128,128,128)" stroke-width="0.01" />
<line x1="0.332707" y1="0.0724404" x2="0.34633" y2="0.140359" style="stroke:rgb(246,147,147);stroke-width:0.01" />
<line x1="0.314657" y1="0.0746363" x2="0.325221" y2="0.161468" style="stroke:rgb(246,147,147);stroke-width:0.01" />
<line x1="-0.0201082" y1="-0.230861" x2="0.0074387" y2="-0.118945" style="stroke:rgb(246,147,147);stroke-width:0.01" />
<line x1="-0.0798038" y1="-0.262707" x2="0.179357" y2="-0.0301264" style="stroke:rgb(246,147,147);stroke-width:0.01" />
<line x1="0.332707" y1="0.0724404" x2="0.336159" y2="0.15053" style="stroke:rgb(246,147,147);stroke-width:0.01" />
<line x1="-0.192865" y1="-0.10119" x2="-0.1844" y2="-0.0717264" style="stroke:rgb(246,147,147);stroke-width:0.01" />
<line x1="-0.192948" y1="-0.101072" x2="-0.167545" y2="0.0347526" style="stroke:rgb(246,147,147);stroke-width:0.01" />
<line x1="0.0790605" y1="-0.120136" x2="0.0963493" y2="0.329373" style="stroke:rgb(246,147,147);stroke-width:0.01" />
<line x1="-0.219545" y1="-0.0630757" x2="-0.215998" y2="-0.0303595" style="stroke:rgb(246,147,147);stroke-width:0.01" />
<line x1="-0.0798038" y1="-0.262707" x2="-0.0201082" y2="-0.230861" style="stroke:rgb(246,147,147);stroke-width:0.01" />
<line x1="-0.130158" y1="-0.190772" x2="-0.130158" y2="0.128752" style="stroke:rgb(246,147,147);stroke-width:0.01" />
<line x1="0.136509" y1="-0.06858" x2="0.136509" y2="0.350181" style="stroke:rgb(246,147,147);stroke-width:0.01" />
<line x1="0.179357" y1="-0.0301264" x2="0.15119" y2="0.335499" style="stroke:rgb(246,147,147);stroke-width:0.01" />
<line x1="0.177755" y1="0.143527" x2="0.162821" y2="0.323868" style="stroke:rgb(246,147,147);stroke-width:0.01" />
<line x1="0.147338" y1="0.139827" x2="0.121747" y2="0.350181" style="stroke:rgb(246,147,147);stroke-width:0.01" />
<line x1="0.111454" y1="0.33856" x2="0.12868" y2="0.358009" style="stroke:rgb(246,147,147);stroke-width:0.01" />
<line x1="0.158755" y1="0.102736" x2="0.111454" y2="0.33856" style="stroke:rgb(246,147,147);stroke-width:0.01" />
<line x1="-0.130158" y1="0.128752" x2="0.12868" y2="0.358009" style="stroke:rgb(246,147,147);stroke-width:0.01" />
<line x1="-0.0798038" y1="-0.262707" x2="-0.219545" y2="-0.0630757" style="stroke:rgb(246,147,147);stroke-width:0.01" />
<line x1="-0.0201082" y1="-0.230861" x2="-0.130158" y2="-0.190772" style="stroke:rgb(246,147,147);stroke-width:0.01" />
<line x1="0.0790605" y1="-0.120136" x2="-0.192865" y2="-0.10119" style="stroke:rgb(246,147,147);stroke-width:0.01" />
<line x1="0.0038011" y1="-0.133724" x2="-0.192948" y2="-0.101072" style="stroke:rgb(246,147,147);stroke-width:0.01" />
<line x1="0.0038011" y1="-0.133724" x2="-0.1844" y2="-0.0717264" style="stroke:rgb(246,147,147);stroke-width:0.01" />
<line x1="0.0074387" y1="-0.118945" x2="-0.219545" y2="-0.0630757" style="stroke:rgb(246,147,147);stroke-width:0.01" />
<line x1="0.158755" y1="0.102736" x2="0.34633" y2="0.140359" style="stroke:rgb(246,147,147);stroke-width:0.01" />
<line x1="0.136509" y1="-0.06858" x2="-0.215998" y2="-0.0303595" style="stroke:rgb(246,147,147);stroke-width:0.01" />
<line x1="0.179357" y1="-0.0301264" x2="-0.167545" y2="0.0347526" style="stroke:rgb(246,147,147);stroke-width:0.01" />
<line x1="0.147338" y1="0.139827" x2="0.325221" y2="0.161468" style="stroke:rgb(246,147,147);stroke-width:0.01" />
<line x1="0.177755" y1="0.143527" x2="0.336159" y2="0.15053" style="stroke:rgb(246,147,147);stroke-width:0.01" />
<line x1="0.332707" y1="0.0724404" x2="-0.130158" y2="0.128752" style="stroke:rgb(246,147,147);stroke-width:0.01" />
<line x1="0.34633" y1="0.140359" x2="0.12868" y2="0.358009" style="stroke:rgb(246,147,147);stroke-width:0.01" />
<line x1="0.121747" y1="0.350181" x2="0.136509" y2="0.350181" style="stroke:rgb(246,147,147);stroke-width:0.01" />
<line x1="0.162821" y1="0.323868" x2="0.0963493" y2="0.329373" style="stroke:rgb(246,147,147);stroke-width:0.01" />
<line x1="0.15119" y1="0.335499" x2="0.111454" y2="0.33856" style="stroke:rgb(246,147,147);stroke-width:0.01" />
</g>
</svg>
