<svg xmlns="http://www.w3.org/2000/svg" viewBox="-1.5 -1.5 3 3">
<g transform="scale(1, -1)">
<path d="M0.317021 0.160446 L0.376717 0.192291 L0.383581 0.220179 L0.576182 0.393026 L0.566755 0.515396 L0.729532 0.495593 L0.743155 0.563512 L0.525505 0.781162 L0.266667 0.551905 L0.266667 0.450913 L0.229280 0.457905 L0.216381 0.388938 L0.180827 0.392793 L0.177279 0.360077 z " fill="rgb(245,195,195)" />
<path d="M0.000000 0.000000 L1.000000 0.000000 L1.000000 1.000000 L0.000000 1.000000  z" fill="none" stroke="rgb(128,128,128)" stroke-width="0.01" />
<line x1="0.729532" y1="0.495593" x2="0.743155" y2="0.563512" style="stroke:rgb(246,147,147);stroke-width:0.01" />
<line x1="0.711482" y1="0.497789" x2="0.722046" y2="0.584621" style="stroke:rgb(246,147,147);stroke-width:0.01" />
<line x1="0.376717" y1="0.192291" x2="0.404263" y2="0.304207" style="stroke:rgb(246,147,147);stroke-width:0.01" />
<line x1="0.317021" y1="0.160446" x2="0.576182" y2="0.393026" style="stroke:rgb(246,147,147);stroke-width:0.01" />
<line x1="0.729532" y1="0.495593" x2="0.732984" y2="0.573683" style="stroke:rgb(246,147,147);stroke-width:0.01" />
<line x1="0.20396" y1="0.321963" x2="0.212425" y2="0.351426" style="stroke:rgb(246,147,147);stroke-width:0.01" />
<line x1="0.203877" y1="0.32208" x2="0.22928" y2="0.457905" style="stroke:rgb(246,147,147);stroke-width:0.01" />
<line x1="0.475885" y1="0.303017" x2="0.493174" y2="0.752526" style="stroke:rgb(246,147,147);stroke-width:0.01" />
<line x1="0.177279" y1="0.360077" x2="0.180827" y2="0.392793" style="stroke:rgb(246,147,147);stroke-width:0.01" />
<line x1="0.317021" y1="0.160446" x2="0.376717" y2="0.192291" style="stroke:rgb(246,147,147);stroke-width:0.01" />
<line x1="0.266667" y1="0.232381" x2="0.266667" y2="0.551905" style="stroke:rgb(246,147,147);stroke-width:0.01" />
<line x1="0.533333" y1="0.354573" x2="0.533333" y2="0.773333" style="stroke:rgb(246,147,147);stroke-width:0.01" />
<line x1="0.576182" y1="0.393026" x2="0.548015" y2="0.758652" style="stroke:rgb(246,147,147);stroke-width:0.01" />
<line x1="0.57458" y1="0.56668" x2="0.559646" y2="0.747021" style="stroke:rgb(246,147,147);stroke-width:0.01" />
<line x1="0.544163" y1="0.56298" x2="0.518571" y2="0.773333" style="stroke:rgb(246,147,147);stroke-width:0.01" />
<line x1="0.508279" y1="0.761713" x2="0.525505" y2="0.781162" style="stroke:rgb(246,147,147);stroke-width:0.01" />
<line x1="0.55558" y1="0.525889" x2="0.508279" y2="0.761713" style="stroke:rgb(246,147,147);stroke-width:0.01" />
<line x1="0.266667" y1="0.551905" x2="0.525505" y2="0.781162" style="stroke:rgb(246,147,147);stroke-width:0.01" />
<line x1="0.317021" y1="0.160446" x2="0.177279" y2="0.360077" style="stroke:rgb(246,147,147);stroke-width:0.01" />
<line x1="0.376717" y1="0.192291" x2="0.266667" y2="0.232381" style="stroke:rgb(246,147,147);stroke-width:0.01" />
<line x1="0.475885" y1="0.303017" x2="0.20396" y2="0.321963" style="stroke:rgb(246,147,147);stroke-width:0.01" />
<line x1="0.400626" y1="0.289429" x2="0.203877" y2="0.32208" style="stroke:rgb(246,147,147);stroke-width:0.01" />
<line x1="0.400626" y1="0.289429" x2="0.212425" y2="0.351426" style="stroke:rgb(246,147,147);stroke-width:0.01" />
<line x1="0.404263" y1="0.304207" x2="0.177279" y2="0.360077" style="stroke:rgb(246,147,147);stroke-width:0.01" />
<line x1="0.55558" y1="0.525889" x2="0.743155" y2="0.563512" style="stroke:rgb(246,147,147);stroke-width:0.01" />
<line x1="0.533333" y1="0.354573" x2="0.180827" y2="0.392793" style="stroke:rgb(246,147,147);stroke-width:0.01" />
<line x1="0.576182" y1="0.393026" x2="0.22928" y2="0.457905" style="stroke:rgb(246,147,147);stroke-width:0.01" />
<line x1="0.544163" y1="0.56298" x2="0.722046" y2="0.584621" style="stroke:rgb(246,147,147);stroke-width:0.01" />
<line x1="0.57458" y1="0.56668" x2="0.732984" y2="0.573683" style="stroke:rgb(246,147,147);stroke-width:0.01" />
<line x1="0.729532" y1="0.495593" x2="0.266667" y2="0.551905" style="stroke:rgb(246,147,147);stroke-width:0.01" />
<line x1="0.743155" y1="0.563512" x2="0.525505" y2="0.781162" style="stroke:rgb(246,147,147);stroke-width:0.01" />
<line x1="0.518571" y1="0.773333" x2="0.533333" y2="0.773333" style="stroke:rgb(246,147,147);stroke-width:0.01" />
<line x1="0.559646" y1="0.747021" x2="0.493174" y2="0.752526" style="stroke:rgb(246,147,147);stroke-width:0.01" />
<line x1="0.548015" y1="0.758652" x2="0.508279" y2="0.761713" style="stroke:rgb(246,147,147);stroke-width:0.01" />
</g>
</svg>
