<svg xmlns="http://www.w3.org/2000/svg" viewBox="-1.5 -1.5 3 3">
<g transform="scale(1, -1)">
<path d="M-0.204545 -0.340909 L0.045455 -0.340909 L0.045455 -0.090909 L0.295455 -0.090909 L0.295455 0.159091 L0.170455 0.284091 L0.045455 0.159091 L0.045455 0.409091 L-0.204545 0.159091 L-0.204545 -0.090909 L-0.329545 -0.215909 z " fill="rgb(245,195,195)" />
<path d="M-0.204545 -0.340909 L0.795455 -0.340909 L0.795455 0.659091 L-0.204545 0.659091  z" fill="none" stroke="rgb(128,128,128)" stroke-width="0.01" />
<line x1="-0.204545" y1="-0.340909" x2="0.0454545" y2="-0.340909" style="stroke:rgb(246,147,147);stroke-width:0.01" />
<line x1="-0.204545" y1="-0.340909" x2="0.295455" y2="0.159091" style="stroke:rgb(246,147,147);stroke-width:0.01" />
<line x1="-0.204545" y1="-0.340909" x2="-0.204545" y2="0.159091" style="stroke:rgb(246,147,147);stroke-width:0.01" />
<line x1="-0.204545" y1="-0.340909" x2="-0.329545" y2="-0.215909" style="stroke:rgb(246,147,147);stroke-width:0.01" />
<line x1="0.0454545" y1="-0.340909" x2="0.0454545" y2="0.409091" style="stroke:rgb(246,147,147);stroke-width:0.01" />
<line x1="0.295455" y1="-0.0909091" x2="0.295455" y2="0.159091" style="stroke:rgb(246,147,147);stroke-width:0.01" />
<line x1="-0.329545" y1="-0.215909" x2="0.170455" y2="0.284091" style="stroke:rgb(246,147,147);stroke-width:0.01" />
<line x1="-0.204545" y1="0.159091" x2="0.0454545" y2="0.409091" style="stroke:rgb(246,147,147);stroke-width:0.01" />
<line x1="-0.204545" y1="-0.0909091" x2="0.295455" y2="-0.0909091" style="stroke:rgb(246,147,147);stroke-width:0.01" />
<line x1="0.0454545" y1="-0.0909091" x2="-0.204545" y2="0.159091" style="stroke:rgb(246,147,147);stroke-width:0.01" />
<line x1="-0.204545" y1="0.159091" x2="0.295455" y2="0.159091" style="stroke:rgb(246,147,147);stroke-width:0.01" />
<line x1="0.295455" y1="0.159091" x2="0.170455" y2="0.284091" style="stroke:rgb(246,147,147);stroke-width:0.01" />
</g>
</svg>
