<svg xmlns="http://www.w3.org/2000/svg" viewBox="-1.5 -1.5 3 3">
<g transform="scale(1, -1)">
<path d="M0.584887 -0.188473 L0.766358 0.006521 L0.759792 0.012631 L0.397810 0.013353 L0.086166 0.349567 L-0.275107 0.014695 L-0.581550 0.015307 L-0.598282 0.008041 L-0.646944 -0.044247 L-0.493129 -0.187395 z " fill="rgb(245,195,195)" />
<path d="M-0.619917 -0.341758 L0.380083 -0.341758 L0.380083 0.658242 L-0.619917 0.658242  z" fill="none" stroke="rgb(128,128,128)" stroke-width="0.01" />
<line x1="0.584887" y1="-0.188473" x2="0.766358" y2="0.00652061" style="stroke:rgb(246,147,147);stroke-width:0.01" />
<line x1="0.542012" y1="-0.18843" x2="0.759792" y2="0.012631" style="stroke:rgb(246,147,147);stroke-width:0.01" />
<line x1="-0.118936" y1="-0.187769" x2="0.329898" y2="0.00818753" style="stroke:rgb(246,147,147);stroke-width:0.01" />
<line x1="0.329898" y1="-0.188218" x2="0.330302" y2="0.0134877" style="stroke:rgb(246,147,147);stroke-width:0.01" />
<line x1="0.330287" y1="0.00619377" x2="0.330302" y2="0.0134877" style="stroke:rgb(246,147,147);stroke-width:0.01" />
<line x1="0.329898" y1="-0.188218" x2="0.329898" y2="0.00818753" style="stroke:rgb(246,147,147);stroke-width:0.01" />
<line x1="-0.493129" y1="-0.187395" x2="0.0861656" y2="0.349567" style="stroke:rgb(246,147,147);stroke-width:0.01" />
<line x1="-0.493129" y1="-0.187395" x2="-0.646944" y2="-0.0442471" style="stroke:rgb(246,147,147);stroke-width:0.01" />
<line x1="-0.646944" y1="-0.0442471" x2="-0.598282" y2="0.00804109" style="stroke:rgb(246,147,147);stroke-width:0.01" />
<line x1="0.584887" y1="-0.188473" x2="-0.493129" y2="-0.187395" style="stroke:rgb(246,147,147);stroke-width:0.01" />
<line x1="-0.598282" y1="0.00804109" x2="-0.58155" y2="0.0153066" style="stroke:rgb(246,147,147);stroke-width:0.01" />
<line x1="-0.118936" y1="-0.187769" x2="-0.58155" y2="0.0153066" style="stroke:rgb(246,147,147);stroke-width:0.01" />
<line x1="0.330287" y1="0.00619377" x2="-0.598282" y2="0.00804109" style="stroke:rgb(246,147,147);stroke-width:0.01" />
<line x1="0.759792" y1="0.012631" x2="-0.58155" y2="0.0153066" style="stroke:rgb(246,147,147);stroke-width:0.01" />
<line x1="0.542012" y1="-0.18843" x2="0.329898" y2="0.00818753" style="stroke:rgb(246,147,147);stroke-width:0.01" />
<line x1="0.584887" y1="-0.188473" x2="0.0861656" y2="0.349567" style="stroke:rgb(246,147,147);stroke-width:0.01" />
<line x1="0.766358" y1="0.00652061" x2="0.759792" y2="0.012631" style="stroke:rgb(246,147,147);stroke-width:0.01" />
</g>
</svg>
