<svg xmlns="http://www.w3.org/2000/svg" viewBox="-1.5 -1.5 3 3">
<g transform="scale(1, -1)">
<path d="M-0.573057 -0.148985 L-0.124644 -0.068633 L0.230911 -0.068633 L0.297578 -0.035299 L0.291682 0.005970 L0.411264 0.027399 L-0.169089 0.431367 L-0.669089 -0.068633 L-0.517126 -0.068633 z M0.273769 -0.011490 L0.261684 0.000595 L0.286116 0.004973 z " fill="rgb(245,195,195)" />
<path d="M-0.669089 -0.068633 L0.330911 -0.068633 L0.330911 0.931367 L-0.669089 0.931367  z" fill="none" stroke="rgb(128,128,128)" stroke-width="0.01" />
<line x1="0.230911" y1="-0.0686326" x2="0.290911" y2="0.0113674" style="stroke:rgb(246,147,147);stroke-width:0.01" />
<line x1="0.230911" y1="-0.0686326" x2="0.297578" y2="-0.0352992" style="stroke:rgb(246,147,147);stroke-width:0.01" />
<line x1="-0.573057" y1="-0.148985" x2="0.411264" y2="0.0273988" style="stroke:rgb(246,147,147);stroke-width:0.01" />
<line x1="-0.573057" y1="-0.148985" x2="-0.169089" y2="0.431367" style="stroke:rgb(246,147,147);stroke-width:0.01" />
<line x1="-0.669089" y1="-0.0686326" x2="0.230911" y2="-0.0686326" style="stroke:rgb(246,147,147);stroke-width:0.01" />
<line x1="-0.669089" y1="-0.0686326" x2="-0.169089" y2="0.431367" style="stroke:rgb(246,147,147);stroke-width:0.01" />
<line x1="-0.124644" y1="-0.0686326" x2="-0.169089" y2="0.431367" style="stroke:rgb(246,147,147);stroke-width:0.01" />
<line x1="0.297578" y1="-0.0352992" x2="0.290911" y2="0.0113674" style="stroke:rgb(246,147,147);stroke-width:0.01" />
<line x1="0.297578" y1="-0.0352992" x2="-0.169089" y2="0.431367" style="stroke:rgb(246,147,147);stroke-width:0.01" />
<line x1="0.411264" y1="0.0273988" x2="-0.169089" y2="0.431367" style="stroke:rgb(246,147,147);stroke-width:0.01" />
</g>
</svg>
