<svg xmlns="http://www.w3.org/2000/svg" viewBox="-1.5 -1.5 3 3">
<g transform="scale(1, -1)">
<path d="M0.531250 3.641593 L0.781250 3.891593 L0.781250 4.141593 L1.031250 4.141593 L0.781250 4.391593 L0.531250 4.391593 L0.531250 4.641593 L0.281250 4.391593 L0.281250 4.141593 L0.031250 4.141593 L0.281250 3.891593 L0.531250 3.891593 z " fill="rgb(245,195,195)" />
<path d="M0.000000 0.000000 L1.000000 0.000000 L1.000000 1.000000 L0.000000 1.000000  z" fill="none" stroke="rgb(128,128,128)" stroke-width="0.01" />
<line x1="0.28125" y1="3.89159" x2="0.28125" y2="4.39159" style="stroke:rgb(246,147,147);stroke-width:0.01" />
<line x1="0.53125" y1="3.64159" x2="0.53125" y2="4.64159" style="stroke:rgb(246,147,147);stroke-width:0.01" />
<line x1="0.78125" y1="3.89159" x2="0.78125" y2="4.39159" style="stroke:rgb(246,147,147);stroke-width:0.01" />
<line x1="0.53125" y1="3.64159" x2="0.78125" y2="3.89159" style="stroke:rgb(246,147,147);stroke-width:0.01" />
<line x1="0.28125" y1="3.89159" x2="0.78125" y2="4.39159" style="stroke:rgb(246,147,147);stroke-width:0.01" />
<line x1="0.28125" y1="4.39159" x2="0.53125" y2="4.64159" style="stroke:rgb(246,147,147);stroke-width:0.01" />
<line x1="0.28125" y1="3.89159" x2="0.03125" y2="4.14159" style="stroke:rgb(246,147,147);stroke-width:0.01" />
<line x1="0.78125" y1="3.89159" x2="0.28125" y2="4.39159" style="stroke:rgb(246,147,147);stroke-width:0.01" />
<line x1="1.03125" y1="4.14159" x2="0.78125" y2="4.39159" style="stroke:rgb(246,147,147);stroke-width:0.01" />
<line x1="0.28125" y1="3.89159" x2="0.78125" y2="3.89159" style="stroke:rgb(246,147,147);stroke-width:0.01" />
<line x1="0.03125" y1="4.14159" x2="1.03125" y2="4.14159" style="stroke:rgb(246,147,147);stroke-width:0.01" />
<line x1="0.28125" y1="4.39159" x2="0.78125" y2="4.39159" style="stroke:rgb(246,147,147);stroke-width:0.01" />
</g>
</svg>
