<svg xmlns="http://www.w3.org/2000/svg" viewBox="-1.5 -1.5 3 3">
<g transform="scale(1, -1)">
<path d="M0.200000 0.000000 L0.375000 0.025000 L0.350000 0.200000 L0.500000 0.400000 L0.450000 0.750000 L0.300000 0.550000 L0.275000 0.725000 L0.100000 0.700000 L-0.050000 0.500000 L0.150000 0.350000 L0.000000 0.150000 z " fill="rgb(245,195,195)" />
<path d="M0.000000 0.000000 L1.000000 0.000000 L1.000000 1.000000 L0.000000 1.000000  z" fill="none" stroke="rgb(128,128,128)" stroke-width="0.01" />
<line x1="0.2" y1="0" x2="0.5" y2="0.4" style="stroke:rgb(246,147,147);stroke-width:0.01" />
<line x1="0.2" y1="0" x2="0.375" y2="0.025" style="stroke:rgb(246,147,147);stroke-width:0.01" />
<line x1="0.2" y1="0" x2="0.1" y2="0.7" style="stroke:rgb(246,147,147);stroke-width:0.01" />
<line x1="0.375" y1="0.025" x2="0.275" y2="0.725" style="stroke:rgb(246,147,147);stroke-width:0.01" />
<line x1="0" y1="0.15" x2="0.45" y2="0.75" style="stroke:rgb(246,147,147);stroke-width:0.01" />
<line x1="0.5" y1="0.4" x2="0.45" y2="0.75" style="stroke:rgb(246,147,147);stroke-width:0.01" />
<line x1="0.2" y1="0" x2="0" y2="0.15" style="stroke:rgb(246,147,147);stroke-width:0.01" />
<line x1="-0.05" y1="0.5" x2="0.1" y2="0.7" style="stroke:rgb(246,147,147);stroke-width:0.01" />
<line x1="0.35" y1="0.2" x2="-0.05" y2="0.5" style="stroke:rgb(246,147,147);stroke-width:0.01" />
<line x1="0.15" y1="0.35" x2="0.5" y2="0.4" style="stroke:rgb(246,147,147);stroke-width:0.01" />
<line x1="0.5" y1="0.4" x2="0.1" y2="0.7" style="stroke:rgb(246,147,147);stroke-width:0.01" />
<line x1="0.1" y1="0.7" x2="0.275" y2="0.725" style="stroke:rgb(246,147,147);stroke-width:0.01" />
</g>
</svg>
