<svg xmlns="http://www.w3.org/2000/svg" viewBox="-1.5 -1.5 3 3">
<g transform="scale(1, -1)">
<path d="M-0.251612 -0.267332 L0.000000 -0.105760 L0.251612 -0.267332 L0.386696 -0.056970 L0.027060 0.173970 L0.018479 0.203213 L-0.018479 0.203213 L-0.027060 0.173970 L-0.386696 -0.056970 z " fill="rgb(245,195,195)" />
<path d="M-0.500000 -0.296787 L0.500000 -0.296787 L0.500000 0.703213 L-0.500000 0.703213  z" fill="none" stroke="rgb(128,128,128)" stroke-width="0.01" />
<line x1="0.251612" y1="-0.267332" x2="0.386696" y2="-0.05697" style="stroke:rgb(246,147,147);stroke-width:0.01" />
<line x1="-0.251612" y1="-0.267332" x2="0.0918367" y2="-0.0467872" style="stroke:rgb(246,147,147);stroke-width:0.01" />
<line x1="-0.0918367" y1="-0.0467872" x2="-0.0184793" y2="0.203213" style="stroke:rgb(246,147,147);stroke-width:0.01" />
<line x1="-0.386696" y1="-0.05697" x2="0.0184793" y2="0.203213" style="stroke:rgb(246,147,147);stroke-width:0.01" />
<line x1="-0.251612" y1="-0.267332" x2="-0.386696" y2="-0.05697" style="stroke:rgb(246,147,147);stroke-width:0.01" />
<line x1="0.0918367" y1="-0.0467872" x2="0.0184793" y2="0.203213" style="stroke:rgb(246,147,147);stroke-width:0.01" />
<line x1="-0.0918367" y1="-0.0467872" x2="0.0918367" y2="-0.0467872" style="stroke:rgb(246,147,147);stroke-width:0.01" />
<line x1="0.251612" y1="-0.267332" x2="-0.0918367" y2="-0.0467872" style="stroke:rgb(246,147,147);stroke-width:0.01" />
<line x1="-0.0184793" y1="0.203213" x2="0.0184793" y2="0.203213" style="stroke:rgb(246,147,147);stroke-width:0.01" />
<line x1="0.386696" y1="-0.05697" x2="-0.0184793" y2="0.203213" style="stroke:rgb(246,147,147);stroke-width:0.01" />
</g>
</svg>
