<svg xmlns="http://www.w3.org/2000/svg" viewBox="-1.5 -1.5 3 3">
<g transform="scale(1, -1)">
<path d="M0.284435 -0.379874 L0.354635 -0.308655 L0.284435 -0.239460 L0.284435 -0.013207 L0.402082 0.049538 L0.284435 0.270126 L-0.127953 0.167029 L-0.357547 0.393339 L-0.708545 0.037248 L-0.700413 0.023914 z " fill="rgb(245,195,195)" />
<path d="M-0.715565 -0.479874 L0.284435 -0.479874 L0.284435 0.520126 L-0.715565 0.520126  z" fill="none" stroke="rgb(128,128,128)" stroke-width="0.01" />
<line x1="0.284435" y1="-0.379874" x2="0.354635" y2="-0.308655" style="stroke:rgb(246,147,147);stroke-width:0.01" />
<line x1="-0.104257" y1="-0.22051" x2="0.402082" y2="0.0495382" style="stroke:rgb(246,147,147);stroke-width:0.01" />
<line x1="0.284435" y1="-0.379874" x2="0.284435" y2="0.270126" style="stroke:rgb(246,147,147);stroke-width:0.01" />
<line x1="-0.700413" y1="0.0239143" x2="-0.708545" y2="0.0372483" style="stroke:rgb(246,147,147);stroke-width:0.01" />
<line x1="-0.104257" y1="-0.22051" x2="-0.231269" y2="0.186271" style="stroke:rgb(246,147,147);stroke-width:0.01" />
<line x1="-0.708545" y1="0.0372483" x2="-0.357547" y2="0.393339" style="stroke:rgb(246,147,147);stroke-width:0.01" />
<line x1="0.284435" y1="-0.379874" x2="-0.700413" y2="0.0239143" style="stroke:rgb(246,147,147);stroke-width:0.01" />
<line x1="-0.708545" y1="0.0372483" x2="-0.231269" y2="0.186271" style="stroke:rgb(246,147,147);stroke-width:0.01" />
<line x1="-0.700413" y1="0.0239143" x2="0.284435" y2="0.270126" style="stroke:rgb(246,147,147);stroke-width:0.01" />
<line x1="0.402082" y1="0.0495382" x2="0.284435" y2="0.270126" style="stroke:rgb(246,147,147);stroke-width:0.01" />
<line x1="0.354635" y1="-0.308655" x2="-0.357547" y2="0.393339" style="stroke:rgb(246,147,147);stroke-width:0.01" />
</g>
</svg>
