<svg xmlns="http://www.w3.org/2000/svg" viewBox="-1.5 -1.5 3 3">
<g transform="scale(1, -1)">
<path d="M1.000000 0.100000 L1.070199 0.171218 L1.000000 0.240414 L1.000000 0.466667 L1.117647 0.529412 L1.000000 0.750000 L0.587612 0.646903 L0.358017 0.873213 L0.007020 0.517122 L0.015152 0.503788 z " fill="rgb(245,195,195)" />
<path d="M0.000000 0.000000 L1.000000 0.000000 L1.000000 1.000000 L0.000000 1.000000  z" fill="none" stroke="rgb(128,128,128)" stroke-width="0.01" />
<line x1="1" y1="0.1" x2="1.0702" y2="0.171218" style="stroke:rgb(246,147,147);stroke-width:0.01" />
<line x1="0.611307" y1="0.259364" x2="1.11765" y2="0.529412" style="stroke:rgb(246,147,147);stroke-width:0.01" />
<line x1="1" y1="0.1" x2="1" y2="0.75" style="stroke:rgb(246,147,147);stroke-width:0.01" />
<line x1="0.0151515" y1="0.503788" x2="0.00701995" y2="0.517122" style="stroke:rgb(246,147,147);stroke-width:0.01" />
<line x1="0.611307" y1="0.259364" x2="0.484296" y2="0.666145" style="stroke:rgb(246,147,147);stroke-width:0.01" />
<line x1="0.00701995" y1="0.517122" x2="0.358017" y2="0.873213" style="stroke:rgb(246,147,147);stroke-width:0.01" />
<line x1="1" y1="0.1" x2="0.0151515" y2="0.503788" style="stroke:rgb(246,147,147);stroke-width:0.01" />
<line x1="0.00701995" y1="0.517122" x2="0.484296" y2="0.666145" style="stroke:rgb(246,147,147);stroke-width:0.01" />
<line x1="0.0151515" y1="0.503788" x2="1" y2="0.75" style="stroke:rgb(246,147,147);stroke-width:0.01" />
<line x1="1.11765" y1="0.529412" x2="1" y2="0.75" style="stroke:rgb(246,147,147);stroke-width:0.01" />
<line x1="1.0702" y1="0.171218" x2="0.358017" y2="0.873213" style="stroke:rgb(246,147,147);stroke-width:0.01" />
</g>
</svg>
