<svg xmlns="http://www.w3.org/2000/svg" viewBox="-1.5 -1.5 3 3">
<g transform="scale(1, -1)">
<path d="M-0.313973 -0.438091 L0.338716 -0.412229 L0.332169 0.249013 L0.327894 0.256741 L0.318850 0.260846 L-0.340891 0.241244 L-0.334552 -0.078825 L-0.328213 -0.078699 z " fill="rgb(245,195,195)" />
<path d="M0.005251 -0.065560 L1.005251 -0.065560 L1.005251 0.934440 L0.005251 0.934440  z" fill="none" stroke="rgb(128,128,128)" stroke-width="0.01" />
<line x1="-0.313973" y1="-0.438091" x2="0.338716" y2="-0.412229" style="stroke:rgb(246,147,147);stroke-width:0.01" />
<line x1="0.338716" y1="-0.412229" x2="-0.00801484" y2="-0.405362" style="stroke:rgb(246,147,147);stroke-width:0.01" />
<line x1="-0.0078188" y1="-0.395463" x2="0.33612" y2="-0.150066" style="stroke:rgb(246,147,147);stroke-width:0.01" />
<line x1="-0.0078188" y1="-0.395463" x2="0.332169" y2="0.249013" style="stroke:rgb(246,147,147);stroke-width:0.01" />
<line x1="-0.313973" y1="-0.438091" x2="-0.340891" y2="0.241244" style="stroke:rgb(246,147,147);stroke-width:0.01" />
<line x1="-0.334552" y1="-0.078825" x2="-0.340891" y2="0.241244" style="stroke:rgb(246,147,147);stroke-width:0.01" />
<line x1="-0.334552" y1="-0.078825" x2="-0.324653" y2="-0.078629" style="stroke:rgb(246,147,147);stroke-width:0.01" />
<line x1="-0.00801484" y1="-0.405362" x2="-0.0078188" y2="-0.395463" style="stroke:rgb(246,147,147);stroke-width:0.01" />
<line x1="0.338716" y1="-0.412229" x2="0.332169" y2="0.249013" style="stroke:rgb(246,147,147);stroke-width:0.01" />
<line x1="0.0302791" y1="0.108612" x2="-0.0155459" y2="0.25091" style="stroke:rgb(246,147,147);stroke-width:0.01" />
<line x1="-0.0342715" y1="0.178225" x2="-0.0155459" y2="0.25091" style="stroke:rgb(246,147,147);stroke-width:0.01" />
<line x1="-0.0342715" y1="0.178225" x2="-0.0911316" y2="0.248665" style="stroke:rgb(246,147,147);stroke-width:0.01" />
<line x1="0.0302791" y1="0.108612" x2="-0.0785548" y2="0.249038" style="stroke:rgb(246,147,147);stroke-width:0.01" />
<line x1="0.33612" y1="-0.150066" x2="-0.132357" y2="0.170383" style="stroke:rgb(246,147,147);stroke-width:0.01" />
<line x1="-0.324653" y1="-0.078629" x2="0.31885" y2="0.260846" style="stroke:rgb(246,147,147);stroke-width:0.01" />
<line x1="-0.132357" y1="0.170383" x2="-0.0785548" y2="0.249038" style="stroke:rgb(246,147,147);stroke-width:0.01" />
<line x1="-0.324653" y1="-0.078629" x2="-0.0911316" y2="0.248665" style="stroke:rgb(246,147,147);stroke-width:0.01" />
<line x1="0.332169" y1="0.249013" x2="0.327894" y2="0.256741" style="stroke:rgb(246,147,147);stroke-width:0.01" />
<line x1="-0.0342715" y1="0.178225" x2="0.327894" y2="0.256741" style="stroke:rgb(246,147,147);stroke-width:0.01" />
<line x1="-0.340891" y1="0.241244" x2="0.31885" y2="0.260846" style="stroke:rgb(246,147,147);stroke-width:0.01" />
<line x1="0.327894" y1="0.256741" x2="0.31885" y2="0.260846" style="stroke:rgb(246,147,147);stroke-width:0.01" />
</g>
</svg>
