<svg xmlns="http://www.w3.org/2000/svg" viewBox="-1.5 -1.5 3 3">
<g transform="scale(1, -1)">
<path d="M-0.319224 -0.372531 L0.333465 -0.346669 L0.326918 0.314573 L0.322644 0.322301 L0.313600 0.326405 L-0.346141 0.306804 L-0.339803 -0.013265 L-0.333464 -0.013140 z " fill="rgb(245,195,195)" />
<path d="M0.000000 0.000000 L1.000000 0.000000 L1.000000 1.000000 L0.000000 1.000000  z" fill="none" stroke="rgb(128,128,128)" stroke-width="0.01" />
<line x1="-0.319224" y1="-0.372531" x2="0.333465" y2="-0.346669" style="stroke:rgb(246,147,147);stroke-width:0.01" />
<line x1="0.333465" y1="-0.346669" x2="-0.0132654" y2="-0.339803" style="stroke:rgb(246,147,147);stroke-width:0.01" />
<line x1="-0.0130693" y1="-0.329904" x2="0.33087" y2="-0.0845059" style="stroke:rgb(246,147,147);stroke-width:0.01" />
<line x1="-0.0130693" y1="-0.329904" x2="0.326918" y2="0.314573" style="stroke:rgb(246,147,147);stroke-width:0.01" />
<line x1="-0.319224" y1="-0.372531" x2="-0.346141" y2="0.306804" style="stroke:rgb(246,147,147);stroke-width:0.01" />
<line x1="-0.339803" y1="-0.0132654" x2="-0.346141" y2="0.306804" style="stroke:rgb(246,147,147);stroke-width:0.01" />
<line x1="-0.339803" y1="-0.0132654" x2="-0.329904" y2="-0.0130693" style="stroke:rgb(246,147,147);stroke-width:0.01" />
<line x1="-0.0132654" y1="-0.339803" x2="-0.0130693" y2="-0.329904" style="stroke:rgb(246,147,147);stroke-width:0.01" />
<line x1="0.333465" y1="-0.346669" x2="0.326918" y2="0.314573" style="stroke:rgb(246,147,147);stroke-width:0.01" />
<line x1="0.0250285" y1="0.174172" x2="-0.0207964" y2="0.31647" style="stroke:rgb(246,147,147);stroke-width:0.01" />
<line x1="-0.0395221" y1="0.243785" x2="-0.0207964" y2="0.31647" style="stroke:rgb(246,147,147);stroke-width:0.01" />
<line x1="-0.0395221" y1="0.243785" x2="-0.0963822" y2="0.314224" style="stroke:rgb(246,147,147);stroke-width:0.01" />
<line x1="0.0250285" y1="0.174172" x2="-0.0838053" y2="0.314598" style="stroke:rgb(246,147,147);stroke-width:0.01" />
<line x1="0.33087" y1="-0.0845059" x2="-0.137607" y2="0.235943" style="stroke:rgb(246,147,147);stroke-width:0.01" />
<line x1="-0.329904" y1="-0.0130693" x2="0.3136" y2="0.326405" style="stroke:rgb(246,147,147);stroke-width:0.01" />
<line x1="-0.137607" y1="0.235943" x2="-0.0838053" y2="0.314598" style="stroke:rgb(246,147,147);stroke-width:0.01" />
<line x1="-0.329904" y1="-0.0130693" x2="-0.0963822" y2="0.314224" style="stroke:rgb(246,147,147);stroke-width:0.01" />
<line x1="0.326918" y1="0.314573" x2="0.322644" y2="0.322301" style="stroke:rgb(246,147,147);stroke-width:0.01" />
<line x1="-0.0395221" y1="0.243785" x2="0.322644" y2="0.322301" style="stroke:rgb(246,147,147);stroke-width:0.01" />
<line x1="-0.346141" y1="0.306804" x2="0.3136" y2="0.326405" style="stroke:rgb(246,147,147);stroke-width:0.01" />
<line x1="0.322644" y1="0.322301" x2="0.3136" y2="0.326405" style="stroke:rgb(246,147,147);stroke-width:0.01" />
</g>
</svg>
