<svg xmlns="http://www.w3.org/2000/svg" viewBox="-1.5 -1.5 3 3">
<g transform="scale(1, -1)">
<path d="M-0.383135 -0.504947 L0.278934 -0.426786 L0.208917 0.166298 L0.241141 0.175697 L0.185141 0.367697 L-0.530997 0.222042 z " fill="rgb(245,195,195)" />
<path d="M-6.023135 -7.691614 L-5.023135 -7.691614 L-5.023135 -6.691614 L-6.023135 -6.691614  z" fill="none" stroke="rgb(128,128,128)" stroke-width="0.01" />
<line x1="-0.230583" y1="-0.00499295" x2="-0.263802" y2="0.276386" style="stroke:rgb(246,147,147);stroke-width:0.01" />
<line x1="0.278934" y1="-0.426786" x2="0.185141" y2="0.367697" style="stroke:rgb(246,147,147);stroke-width:0.01" />
<line x1="-0.383135" y1="-0.504947" x2="-0.530997" y2="0.222042" style="stroke:rgb(246,147,147);stroke-width:0.01" />
<line x1="-0.0631351" y1="-0.411614" x2="-0.263802" y2="0.276386" style="stroke:rgb(246,147,147);stroke-width:0.01" />
<line x1="0.241141" y1="0.175697" x2="0.185141" y2="0.367697" style="stroke:rgb(246,147,147);stroke-width:0.01" />
<line x1="-0.383135" y1="-0.504947" x2="-0.0631351" y2="-0.411614" style="stroke:rgb(246,147,147);stroke-width:0.01" />
<line x1="-0.478859" y1="-0.0343033" x2="0.241141" y2="0.175697" style="stroke:rgb(246,147,147);stroke-width:0.01" />
<line x1="-0.383135" y1="-0.504947" x2="0.278934" y2="-0.426786" style="stroke:rgb(246,147,147);stroke-width:0.01" />
<line x1="-0.530997" y1="0.222042" x2="0.185141" y2="0.367697" style="stroke:rgb(246,147,147);stroke-width:0.01" />
<line x1="-0.478859" y1="-0.0343033" x2="-0.230583" y2="-0.00499295" style="stroke:rgb(246,147,147);stroke-width:0.01" />
</g>
</svg>
