<svg xmlns="http://www.w3.org/2000/svg" viewBox="-1.5 -1.5 3 3">
<g transform="scale(1, -1)">
<path d="M-0.281250 -0.187500 L-0.031250 -0.187500 L0.093750 -0.062500 L0.218750 -0.187500 L0.343750 -0.062500 L-0.031250 0.312500 L-0.281250 0.312500 L-0.031250 0.062500 z " fill="rgb(245,195,195)" />
<path d="M-0.281250 -0.187500 L0.718750 -0.187500 L0.718750 0.812500 L-0.281250 0.812500  z" fill="none" stroke="rgb(128,128,128)" stroke-width="0.01" />
<line x1="0.21875" y1="-0.1875" x2="0.34375" y2="-0.0625" style="stroke:rgb(246,147,147);stroke-width:0.01" />
<line x1="-0.03125" y1="-0.1875" x2="0.21875" y2="0.0625" style="stroke:rgb(246,147,147);stroke-width:0.01" />
<line x1="-0.28125" y1="-0.1875" x2="-0.03125" y2="-0.1875" style="stroke:rgb(246,147,147);stroke-width:0.01" />
<line x1="-0.28125" y1="-0.1875" x2="-0.03125" y2="0.0625" style="stroke:rgb(246,147,147);stroke-width:0.01" />
<line x1="-0.03125" y1="-0.1875" x2="-0.03125" y2="0.3125" style="stroke:rgb(246,147,147);stroke-width:0.01" />
<line x1="0.21875" y1="-0.1875" x2="0.21875" y2="0.0625" style="stroke:rgb(246,147,147);stroke-width:0.01" />
<line x1="-0.03125" y1="0.0625" x2="0.21875" y2="0.0625" style="stroke:rgb(246,147,147);stroke-width:0.01" />
<line x1="0.21875" y1="-0.1875" x2="-0.28125" y2="0.3125" style="stroke:rgb(246,147,147);stroke-width:0.01" />
<line x1="0.34375" y1="-0.0625" x2="-0.03125" y2="0.3125" style="stroke:rgb(246,147,147);stroke-width:0.01" />
<line x1="-0.28125" y1="0.3125" x2="-0.03125" y2="0.3125" style="stroke:rgb(246,147,147);stroke-width:0.01" />
</g>
</svg>
