<svg xmlns="http://www.w3.org/2000/svg" viewBox="-1.5 -1.5 3 3">
<g transform="scale(1, -1)">
<path d="M6.252528 7.072167 L6.306929 7.354744 L6.478752 7.408894 L6.378559 7.726813 L5.589087 7.681325 L5.620370 7.138373 L5.718567 7.119469 L5.728784 7.172540 L5.729685 7.172824 z " fill="rgb(245,195,195)" />
<path d="M0.000000 0.000000 L1.000000 0.000000 L1.000000 1.000000 L0.000000 1.000000  z" fill="none" stroke="rgb(128,128,128)" stroke-width="0.01" />
<line x1="6.25253" y1="7.07217" x2="6.37856" y2="7.72681" style="stroke:rgb(246,147,147);stroke-width:0.01" />
<line x1="5.71857" y1="7.11947" x2="5.8294" y2="7.69517" style="stroke:rgb(246,147,147);stroke-width:0.01" />
<line x1="5.62037" y1="7.13837" x2="5.58909" y2="7.68133" style="stroke:rgb(246,147,147);stroke-width:0.01" />
<line x1="5.95376" y1="7.30058" x2="5.8294" y2="7.69517" style="stroke:rgb(246,147,147);stroke-width:0.01" />
<line x1="6.47875" y1="7.40889" x2="6.37856" y2="7.72681" style="stroke:rgb(246,147,147);stroke-width:0.01" />
<line x1="5.62037" y1="7.13837" x2="6.47875" y2="7.40889" style="stroke:rgb(246,147,147);stroke-width:0.01" />
<line x1="5.61714" y1="7.19449" x2="5.95376" y2="7.30058" style="stroke:rgb(246,147,147);stroke-width:0.01" />
<line x1="5.58909" y1="7.68133" x2="6.37856" y2="7.72681" style="stroke:rgb(246,147,147);stroke-width:0.01" />
<line x1="5.71857" y1="7.11947" x2="5.62037" y2="7.13837" style="stroke:rgb(246,147,147);stroke-width:0.01" />
<line x1="6.25253" y1="7.07217" x2="5.61714" y2="7.19449" style="stroke:rgb(246,147,147);stroke-width:0.01" />
</g>
</svg>
