<svg xmlns="http://www.w3.org/2000/svg" viewBox="-1.5 -1.5 3 3">
<g transform="scale(1, -1)">
<path d="M0.274388 -0.244183 L0.328789 0.038394 L0.500612 0.092544 L0.400419 0.410463 L-0.389053 0.364976 L-0.357770 -0.177976 L-0.259573 -0.196881 L-0.249356 -0.143810 L-0.248455 -0.143526 z " fill="rgb(245,195,195)" />
<path d="M-5.978140 -7.316350 L-4.978140 -7.316350 L-4.978140 -6.316350 L-5.978140 -6.316350  z" fill="none" stroke="rgb(128,128,128)" stroke-width="0.01" />
<line x1="0.274388" y1="-0.244183" x2="0.400419" y2="0.410463" style="stroke:rgb(246,147,147);stroke-width:0.01" />
<line x1="-0.259573" y1="-0.196881" x2="-0.14874" y2="0.378822" style="stroke:rgb(246,147,147);stroke-width:0.01" />
<line x1="-0.35777" y1="-0.177976" x2="-0.389053" y2="0.364976" style="stroke:rgb(246,147,147);stroke-width:0.01" />
<line x1="-0.0243831" y1="-0.0157719" x2="-0.14874" y2="0.378822" style="stroke:rgb(246,147,147);stroke-width:0.01" />
<line x1="0.500612" y1="0.0925438" x2="0.400419" y2="0.410463" style="stroke:rgb(246,147,147);stroke-width:0.01" />
<line x1="-0.35777" y1="-0.177976" x2="0.500612" y2="0.0925438" style="stroke:rgb(246,147,147);stroke-width:0.01" />
<line x1="-0.361003" y1="-0.121858" x2="-0.0243831" y2="-0.0157719" style="stroke:rgb(246,147,147);stroke-width:0.01" />
<line x1="-0.389053" y1="0.364976" x2="0.400419" y2="0.410463" style="stroke:rgb(246,147,147);stroke-width:0.01" />
<line x1="-0.259573" y1="-0.196881" x2="-0.35777" y2="-0.177976" style="stroke:rgb(246,147,147);stroke-width:0.01" />
<line x1="0.274388" y1="-0.244183" x2="-0.361003" y2="-0.121858" style="stroke:rgb(246,147,147);stroke-width:0.01" />
</g>
</svg>
