<svg xmlns="http://www.w3.org/2000/svg" viewBox="-1.5 -1.5 3 3">
<g transform="scale(1, -1)">
<path d="M-0.207365 -0.412629 L-0.176851 -0.402167 L-0.176996 -0.401742 L0.703611 -0.086059 L0.382277 0.810311 L-0.524675 0.492287 z " fill="rgb(245,195,195)" />
<path d="M-5.548175 -6.559205 L-4.548175 -6.559205 L-4.548175 -5.559205 L-5.548175 -5.559205  z" fill="none" stroke="rgb(128,128,128)" stroke-width="0.01" />
<line x1="-0.176851" y1="-0.402167" x2="-0.487937" y2="0.505169" style="stroke:rgb(246,147,147);stroke-width:0.01" />
<line x1="-0.207365" y1="-0.412629" x2="-0.524675" y2="0.492287" style="stroke:rgb(246,147,147);stroke-width:0.01" />
<line x1="-0.474164" y1="0.466747" x2="-0.487937" y2="0.505169" style="stroke:rgb(246,147,147);stroke-width:0.01" />
<line x1="0.397771" y1="0.765119" x2="0.382277" y2="0.810311" style="stroke:rgb(246,147,147);stroke-width:0.01" />
<line x1="0.703611" y1="-0.0860593" x2="0.382277" y2="0.810311" style="stroke:rgb(246,147,147);stroke-width:0.01" />
<line x1="-0.207365" y1="-0.412629" x2="0.703611" y2="-0.0860593" style="stroke:rgb(246,147,147);stroke-width:0.01" />
<line x1="-0.207365" y1="-0.412629" x2="-0.176851" y2="-0.402167" style="stroke:rgb(246,147,147);stroke-width:0.01" />
<line x1="-0.511079" y1="0.453513" x2="-0.474164" y2="0.466747" style="stroke:rgb(246,147,147);stroke-width:0.01" />
<line x1="-0.524675" y1="0.492287" x2="0.382277" y2="0.810311" style="stroke:rgb(246,147,147);stroke-width:0.01" />
<line x1="-0.511079" y1="0.453513" x2="0.397771" y2="0.765119" style="stroke:rgb(246,147,147);stroke-width:0.01" />
</g>
</svg>
