<svg xmlns="http://www.w3.org/2000/svg" viewBox="-1.5 -1.5 3 3">
<g transform="scale(1, -1)">
<path d="M-0.164486 -0.485853 L0.188229 -0.441532 L0.197446 -0.434448 L0.406125 0.168104 L0.329497 0.263888 L0.194578 0.263888 L0.172792 0.236869 L-0.274402 0.263888 L-0.316656 0.263888 L-0.369888 0.232786 L-0.363234 -0.331477 z " fill="rgb(245,195,195)" />
<path d="M-0.470503 -0.736112 L0.529497 -0.736112 L0.529497 0.263888 L-0.470503 0.263888  z" fill="none" stroke="rgb(128,128,128)" stroke-width="0.01" />
<line x1="0.197446" y1="-0.434448" x2="0.406125" y2="0.168104" style="stroke:rgb(246,147,147);stroke-width:0.01" />
<line x1="0.042313" y1="-0.459867" x2="0.0688254" y2="-0.398072" style="stroke:rgb(246,147,147);stroke-width:0.01" />
<line x1="0.188229" y1="-0.441532" x2="0.197446" y2="-0.434448" style="stroke:rgb(246,147,147);stroke-width:0.01" />
<line x1="0.321973" y1="0.230444" x2="0.329497" y2="0.263888" style="stroke:rgb(246,147,147);stroke-width:0.01" />
<line x1="0.349813" y1="0.161766" x2="0.36017" y2="0.225547" style="stroke:rgb(246,147,147);stroke-width:0.01" />
<line x1="-0.121188" y1="-0.480412" x2="0.0320704" y2="0.0690669" style="stroke:rgb(246,147,147);stroke-width:0.01" />
<line x1="0.402604" y1="0.167708" x2="0.402989" y2="0.172024" style="stroke:rgb(246,147,147);stroke-width:0.01" />
<line x1="-0.164486" y1="-0.485853" x2="-0.0505022" y2="-0.339107" style="stroke:rgb(246,147,147);stroke-width:0.01" />
<line x1="-0.363234" y1="-0.331477" x2="-0.369888" y2="0.232786" style="stroke:rgb(246,147,147);stroke-width:0.01" />
<line x1="-0.0612162" y1="-0.472876" x2="0.0688254" y2="-0.398072" style="stroke:rgb(246,147,147);stroke-width:0.01" />
<line x1="0.0618851" y1="0.099323" x2="0.194578" y2="0.263888" style="stroke:rgb(246,147,147);stroke-width:0.01" />
<line x1="0.321973" y1="0.230444" x2="0.341731" y2="0.248595" style="stroke:rgb(246,147,147);stroke-width:0.01" />
<line x1="0.0688254" y1="-0.398072" x2="0.0294975" y2="-0.236112" style="stroke:rgb(246,147,147);stroke-width:0.01" />
<line x1="0.197446" y1="-0.434448" x2="0.0618851" y2="0.099323" style="stroke:rgb(246,147,147);stroke-width:0.01" />
<line x1="-0.342585" y1="0.21697" x2="-0.315407" y2="0.263888" style="stroke:rgb(246,147,147);stroke-width:0.01" />
<line x1="-0.164486" y1="-0.485853" x2="0.188229" y2="-0.441532" style="stroke:rgb(246,147,147);stroke-width:0.01" />
<line x1="-0.121188" y1="-0.480412" x2="-0.137812" y2="-0.451512" style="stroke:rgb(246,147,147);stroke-width:0.01" />
<line x1="0.255268" y1="0.18862" x2="0.341731" y2="0.248595" style="stroke:rgb(246,147,147);stroke-width:0.01" />
<line x1="-0.164486" y1="-0.485853" x2="-0.363234" y2="-0.331477" style="stroke:rgb(246,147,147);stroke-width:0.01" />
<line x1="-0.314768" y1="0.262784" x2="-0.315407" y2="0.263888" style="stroke:rgb(246,147,147);stroke-width:0.01" />
<line x1="0.402604" y1="0.167708" x2="0.399998" y2="0.175763" style="stroke:rgb(246,147,147);stroke-width:0.01" />
<line x1="-0.0612162" y1="-0.472876" x2="-0.137812" y2="-0.451512" style="stroke:rgb(246,147,147);stroke-width:0.01" />
<line x1="0.042313" y1="-0.459867" x2="-0.0505022" y2="-0.339107" style="stroke:rgb(246,147,147);stroke-width:0.01" />
<line x1="-0.363234" y1="-0.331477" x2="0.0294975" y2="-0.236112" style="stroke:rgb(246,147,147);stroke-width:0.01" />
<line x1="0.349813" y1="0.161766" x2="0.321973" y2="0.230444" style="stroke:rgb(246,147,147);stroke-width:0.01" />
<line x1="0.221191" y1="0.246209" x2="0.251068" y2="0.263888" style="stroke:rgb(246,147,147);stroke-width:0.01" />
<line x1="0.188229" y1="-0.441532" x2="-0.0505022" y2="-0.339107" style="stroke:rgb(246,147,147);stroke-width:0.01" />
<line x1="0.255268" y1="0.18862" x2="0.221191" y2="0.246209" style="stroke:rgb(246,147,147);stroke-width:0.01" />
<line x1="-0.369888" y1="0.232786" x2="-0.316656" y2="0.263888" style="stroke:rgb(246,147,147);stroke-width:0.01" />
<line x1="0.255268" y1="0.18862" x2="0.194578" y2="0.263888" style="stroke:rgb(246,147,147);stroke-width:0.01" />
<line x1="-0.342585" y1="0.21697" x2="-0.369888" y2="0.232786" style="stroke:rgb(246,147,147);stroke-width:0.01" />
<line x1="0.406125" y1="0.168104" x2="0.329497" y2="0.263888" style="stroke:rgb(246,147,147);stroke-width:0.01" />
<line x1="0.349813" y1="0.161766" x2="0.406125" y2="0.168104" style="stroke:rgb(246,147,147);stroke-width:0.01" />
<line x1="-0.314768" y1="0.262784" x2="-0.316656" y2="0.263888" style="stroke:rgb(246,147,147);stroke-width:0.01" />
<line x1="0.341898" y1="-0.017349" x2="0.0320704" y2="0.0690669" style="stroke:rgb(246,147,147);stroke-width:0.01" />
<line x1="0.341898" y1="-0.017349" x2="0.0618851" y2="0.099323" style="stroke:rgb(246,147,147);stroke-width:0.01" />
<line x1="-0.296274" y1="0.262566" x2="-0.286357" y2="0.263888" style="stroke:rgb(246,147,147);stroke-width:0.01" />
<line x1="-0.296274" y1="0.262566" x2="-0.274402" y2="0.263888" style="stroke:rgb(246,147,147);stroke-width:0.01" />
<line x1="-0.316656" y1="0.263888" x2="-0.274402" y2="0.263888" style="stroke:rgb(246,147,147);stroke-width:0.01" />
<line x1="0.194578" y1="0.263888" x2="0.329497" y2="0.263888" style="stroke:rgb(246,147,147);stroke-width:0.01" />
<line x1="-0.296274" y1="0.262566" x2="-0.314768" y2="0.262784" style="stroke:rgb(246,147,147);stroke-width:0.01" />
<line x1="0.402989" y1="0.172024" x2="-0.286357" y2="0.263888" style="stroke:rgb(246,147,147);stroke-width:0.01" />
<line x1="0.36017" y1="0.225547" x2="-0.274402" y2="0.263888" style="stroke:rgb(246,147,147);stroke-width:0.01" />
<line x1="0.399998" y1="0.175763" x2="0.251068" y2="0.263888" style="stroke:rgb(246,147,147);stroke-width:0.01" />
</g>
</svg>
