<svg xmlns="http://www.w3.org/2000/svg" viewBox="-1.5 -1.5 3 3">
<g transform="scale(1, -1)">
<path d="M0.306017 0.250259 L0.658732 0.294581 L0.667948 0.301665 L0.876627 0.904216 L0.800000 1.000000 L0.665080 1.000000 L0.643294 0.972981 L0.196101 1.000000 L0.153846 1.000000 L0.100615 0.968898 L0.107268 0.404635 z " fill="rgb(245,195,195)" />
<path d="M0.000000 0.000000 L1.000000 0.000000 L1.000000 1.000000 L0.000000 1.000000  z" fill="none" stroke="rgb(128,128,128)" stroke-width="0.01" />
<line x1="0.667948" y1="0.301665" x2="0.876627" y2="0.904216" style="stroke:rgb(246,147,147);stroke-width:0.01" />
<line x1="0.512815" y1="0.276245" x2="0.539328" y2="0.33804" style="stroke:rgb(246,147,147);stroke-width:0.01" />
<line x1="0.658732" y1="0.294581" x2="0.667948" y2="0.301665" style="stroke:rgb(246,147,147);stroke-width:0.01" />
<line x1="0.792475" y1="0.966556" x2="0.8" y2="1" style="stroke:rgb(246,147,147);stroke-width:0.01" />
<line x1="0.820316" y1="0.897878" x2="0.830672" y2="0.96166" style="stroke:rgb(246,147,147);stroke-width:0.01" />
<line x1="0.349314" y1="0.2557" x2="0.502573" y2="0.805179" style="stroke:rgb(246,147,147);stroke-width:0.01" />
<line x1="0.873107" y1="0.90382" x2="0.873491" y2="0.908136" style="stroke:rgb(246,147,147);stroke-width:0.01" />
<line x1="0.306017" y1="0.250259" x2="0.42" y2="0.397006" style="stroke:rgb(246,147,147);stroke-width:0.01" />
<line x1="0.107268" y1="0.404635" x2="0.100615" y2="0.968898" style="stroke:rgb(246,147,147);stroke-width:0.01" />
<line x1="0.409286" y1="0.263236" x2="0.539328" y2="0.33804" style="stroke:rgb(246,147,147);stroke-width:0.01" />
<line x1="0.532388" y1="0.835435" x2="0.66508" y2="1" style="stroke:rgb(246,147,147);stroke-width:0.01" />
<line x1="0.792475" y1="0.966556" x2="0.812234" y2="0.984708" style="stroke:rgb(246,147,147);stroke-width:0.01" />
<line x1="0.539328" y1="0.33804" x2="0.5" y2="0.5" style="stroke:rgb(246,147,147);stroke-width:0.01" />
<line x1="0.667948" y1="0.301665" x2="0.532388" y2="0.835435" style="stroke:rgb(246,147,147);stroke-width:0.01" />
<line x1="0.127917" y1="0.953083" x2="0.155096" y2="1" style="stroke:rgb(246,147,147);stroke-width:0.01" />
<line x1="0.306017" y1="0.250259" x2="0.658732" y2="0.294581" style="stroke:rgb(246,147,147);stroke-width:0.01" />
<line x1="0.349314" y1="0.2557" x2="0.33269" y2="0.2846" style="stroke:rgb(246,147,147);stroke-width:0.01" />
<line x1="0.72577" y1="0.924733" x2="0.812234" y2="0.984708" style="stroke:rgb(246,147,147);stroke-width:0.01" />
<line x1="0.306017" y1="0.250259" x2="0.107268" y2="0.404635" style="stroke:rgb(246,147,147);stroke-width:0.01" />
<line x1="0.155735" y1="0.998897" x2="0.155096" y2="1" style="stroke:rgb(246,147,147);stroke-width:0.01" />
<line x1="0.873107" y1="0.90382" x2="0.8705" y2="0.911875" style="stroke:rgb(246,147,147);stroke-width:0.01" />
<line x1="0.409286" y1="0.263236" x2="0.33269" y2="0.2846" style="stroke:rgb(246,147,147);stroke-width:0.01" />
<line x1="0.512815" y1="0.276245" x2="0.42" y2="0.397006" style="stroke:rgb(246,147,147);stroke-width:0.01" />
<line x1="0.107268" y1="0.404635" x2="0.5" y2="0.5" style="stroke:rgb(246,147,147);stroke-width:0.01" />
<line x1="0.820316" y1="0.897878" x2="0.792475" y2="0.966556" style="stroke:rgb(246,147,147);stroke-width:0.01" />
<line x1="0.691694" y1="0.982321" x2="0.721571" y2="1" style="stroke:rgb(246,147,147);stroke-width:0.01" />
<line x1="0.658732" y1="0.294581" x2="0.42" y2="0.397006" style="stroke:rgb(246,147,147);stroke-width:0.01" />
<line x1="0.72577" y1="0.924733" x2="0.691694" y2="0.982321" style="stroke:rgb(246,147,147);stroke-width:0.01" />
<line x1="0.100615" y1="0.968898" x2="0.153846" y2="1" style="stroke:rgb(246,147,147);stroke-width:0.01" />
<line x1="0.72577" y1="0.924733" x2="0.66508" y2="1" style="stroke:rgb(246,147,147);stroke-width:0.01" />
<line x1="0.127917" y1="0.953083" x2="0.100615" y2="0.968898" style="stroke:rgb(246,147,147);stroke-width:0.01" />
<line x1="0.876627" y1="0.904216" x2="0.8" y2="1" style="stroke:rgb(246,147,147);stroke-width:0.01" />
<line x1="0.820316" y1="0.897878" x2="0.876627" y2="0.904216" style="stroke:rgb(246,147,147);stroke-width:0.01" />
<line x1="0.155735" y1="0.998897" x2="0.153846" y2="1" style="stroke:rgb(246,147,147);stroke-width:0.01" />
<line x1="0.8124" y1="0.718763" x2="0.502573" y2="0.805179" style="stroke:rgb(246,147,147);stroke-width:0.01" />
<line x1="0.8124" y1="0.718763" x2="0.532388" y2="0.835435" style="stroke:rgb(246,147,147);stroke-width:0.01" />
<line x1="0.174229" y1="0.998678" x2="0.184145" y2="1" style="stroke:rgb(246,147,147);stroke-width:0.01" />
<line x1="0.174229" y1="0.998678" x2="0.196101" y2="1" style="stroke:rgb(246,147,147);stroke-width:0.01" />
<line x1="0.153846" y1="1" x2="0.196101" y2="1" style="stroke:rgb(246,147,147);stroke-width:0.01" />
<line x1="0.66508" y1="1" x2="0.8" y2="1" style="stroke:rgb(246,147,147);stroke-width:0.01" />
<line x1="0.174229" y1="0.998678" x2="0.155735" y2="0.998897" style="stroke:rgb(246,147,147);stroke-width:0.01" />
<line x1="0.873491" y1="0.908136" x2="0.184145" y2="1" style="stroke:rgb(246,147,147);stroke-width:0.01" />
<line x1="0.830672" y1="0.96166" x2="0.196101" y2="1" style="stroke:rgb(246,147,147);stroke-width:0.01" />
<line x1="0.8705" y1="0.911875" x2="0.721571" y2="1" style="stroke:rgb(246,147,147);stroke-width:0.01" />
</g>
</svg>
