<svg xmlns="http://www.w3.org/2000/svg" viewBox="-1.5 -1.5 3 3">
<g transform="scale(1, -1)">
<path d="M-0.395833 -0.458333 L-0.062500 -0.458333 L0.270833 -0.125000 L0.270833 0.208333 L0.020833 0.458333 L0.020833 0.291667 L-0.062500 0.208333 L-0.062500 -0.125000 z " fill="rgb(245,195,195)" />
<path d="M-0.395833 -0.458333 L0.604167 -0.458333 L0.604167 0.541667 L-0.395833 0.541667  z" fill="none" stroke="rgb(128,128,128)" stroke-width="0.01" />
<line x1="-0.0625" y1="-0.458333" x2="0.270833" y2="-0.125" style="stroke:rgb(246,147,147);stroke-width:0.01" />
<line x1="-0.395833" y1="-0.458333" x2="-0.0625" y2="-0.458333" style="stroke:rgb(246,147,147);stroke-width:0.01" />
<line x1="-0.395833" y1="-0.458333" x2="0.270833" y2="0.208333" style="stroke:rgb(246,147,147);stroke-width:0.01" />
<line x1="-0.0625" y1="-0.458333" x2="-0.0625" y2="0.208333" style="stroke:rgb(246,147,147);stroke-width:0.01" />
<line x1="0.0208333" y1="0.208333" x2="0.0208333" y2="0.458333" style="stroke:rgb(246,147,147);stroke-width:0.01" />
<line x1="0.270833" y1="-0.125" x2="0.270833" y2="0.208333" style="stroke:rgb(246,147,147);stroke-width:0.01" />
<line x1="0.0208333" y1="0.208333" x2="0.145833" y2="0.333333" style="stroke:rgb(246,147,147);stroke-width:0.01" />
<line x1="-0.0625" y1="0.208333" x2="0.104167" y2="0.375" style="stroke:rgb(246,147,147);stroke-width:0.01" />
<line x1="-0.0625" y1="-0.125" x2="0.270833" y2="-0.125" style="stroke:rgb(246,147,147);stroke-width:0.01" />
<line x1="0.270833" y1="-0.125" x2="-0.0625" y2="0.208333" style="stroke:rgb(246,147,147);stroke-width:0.01" />
<line x1="-0.0625" y1="0.208333" x2="0.0208333" y2="0.208333" style="stroke:rgb(246,147,147);stroke-width:0.01" />
<line x1="0.270833" y1="0.208333" x2="0.0208333" y2="0.458333" style="stroke:rgb(246,147,147);stroke-width:0.01" />
</g>
</svg>
