<svg xmlns="http://www.w3.org/2000/svg" viewBox="-1.5 -1.5 3 3">
<g transform="scale(1, -1)">
<path d="M0.152397 -0.364726 L0.164384 -0.188356 L0.352740 -0.023973 L0.376712 0.328767 L0.188356 0.164384 L0.200342 0.340753 L0.023973 0.352740 L-0.164384 0.188356 L0.000000 0.000000 L-0.188356 -0.164384 L-0.023973 -0.352740 z " fill="rgb(245,195,195)" />
<path d="M0.000000 0.000000 L1.000000 0.000000 L1.000000 1.000000 L0.000000 1.000000  z" fill="none" stroke="rgb(128,128,128)" stroke-width="0.01" />
<line x1="0.152397" y1="-0.364726" x2="-0.0239726" y2="-0.35274" style="stroke:rgb(246,147,147);stroke-width:0.01" />
<line x1="-0.0239726" y1="-0.35274" x2="0.35274" y2="-0.0239726" style="stroke:rgb(246,147,147);stroke-width:0.01" />
<line x1="-0.0239726" y1="-0.35274" x2="-0.188356" y2="-0.164384" style="stroke:rgb(246,147,147);stroke-width:0.01" />
<line x1="0.35274" y1="-0.0239726" x2="0.376712" y2="0.328767" style="stroke:rgb(246,147,147);stroke-width:0.01" />
<line x1="0.152397" y1="-0.364726" x2="0.200342" y2="0.340753" style="stroke:rgb(246,147,147);stroke-width:0.01" />
<line x1="-0.188356" y1="-0.164384" x2="0.376712" y2="0.328767" style="stroke:rgb(246,147,147);stroke-width:0.01" />
<line x1="-0.0239726" y1="-0.35274" x2="0.0239726" y2="0.35274" style="stroke:rgb(246,147,147);stroke-width:0.01" />
<line x1="0.164384" y1="-0.188356" x2="-0.164384" y2="0.188356" style="stroke:rgb(246,147,147);stroke-width:0.01" />
<line x1="0.35274" y1="-0.0239726" x2="0" y2="0" style="stroke:rgb(246,147,147);stroke-width:0.01" />
<line x1="0.35274" y1="-0.0239726" x2="0.0239726" y2="0.35274" style="stroke:rgb(246,147,147);stroke-width:0.01" />
<line x1="-0.164384" y1="0.188356" x2="0.0239726" y2="0.35274" style="stroke:rgb(246,147,147);stroke-width:0.01" />
<line x1="0.200342" y1="0.340753" x2="0.0239726" y2="0.35274" style="stroke:rgb(246,147,147);stroke-width:0.01" />
</g>
</svg>
