<svg xmlns="http://www.w3.org/2000/svg" viewBox="-1.5 -1.5 3 3">
<g transform="scale(1, -1)">
<path d="M0.054016 -0.390255 L0.066002 -0.213885 L0.254359 -0.049502 L0.278331 0.303238 L0.089975 0.138854 L0.101961 0.315224 L-0.074408 0.327210 L-0.262765 0.162827 L-0.098381 -0.025529 L-0.286737 -0.189913 L-0.122354 -0.378269 z " fill="rgb(245,195,195)" />
<path d="M-0.098381 -0.025529 L0.901619 -0.025529 L0.901619 0.974471 L-0.098381 0.974471  z" fill="none" stroke="rgb(128,128,128)" stroke-width="0.01" />
<line x1="0.0540162" y1="-0.390255" x2="-0.122354" y2="-0.378269" style="stroke:rgb(246,147,147);stroke-width:0.01" />
<line x1="-0.122354" y1="-0.378269" x2="0.254359" y2="-0.0495019" style="stroke:rgb(246,147,147);stroke-width:0.01" />
<line x1="-0.122354" y1="-0.378269" x2="-0.286737" y2="-0.189913" style="stroke:rgb(246,147,147);stroke-width:0.01" />
<line x1="0.254359" y1="-0.0495019" x2="0.278331" y2="0.303238" style="stroke:rgb(246,147,147);stroke-width:0.01" />
<line x1="0.0540162" y1="-0.390255" x2="0.101961" y2="0.315224" style="stroke:rgb(246,147,147);stroke-width:0.01" />
<line x1="-0.286737" y1="-0.189913" x2="0.278331" y2="0.303238" style="stroke:rgb(246,147,147);stroke-width:0.01" />
<line x1="-0.122354" y1="-0.378269" x2="-0.0744085" y2="0.32721" style="stroke:rgb(246,147,147);stroke-width:0.01" />
<line x1="0.0660025" y1="-0.213885" x2="-0.262765" y2="0.162827" style="stroke:rgb(246,147,147);stroke-width:0.01" />
<line x1="0.254359" y1="-0.0495019" x2="-0.0983811" y2="-0.0255293" style="stroke:rgb(246,147,147);stroke-width:0.01" />
<line x1="0.254359" y1="-0.0495019" x2="-0.0744085" y2="0.32721" style="stroke:rgb(246,147,147);stroke-width:0.01" />
<line x1="-0.262765" y1="0.162827" x2="-0.0744085" y2="0.32721" style="stroke:rgb(246,147,147);stroke-width:0.01" />
<line x1="0.101961" y1="0.315224" x2="-0.0744085" y2="0.32721" style="stroke:rgb(246,147,147);stroke-width:0.01" />
</g>
</svg>
