<svg xmlns="http://www.w3.org/2000/svg" viewBox="-1.5 -1.5 3 3">
<g transform="scale(1, -1)">
<path d="M0.250000 0.125000 L0.375000 0.125000 L0.250000 0.250000 L0.250000 0.312500 L0.400000 0.500000 L0.378049 0.597561 L0.228659 0.692073 L0.271875 0.500000 L0.125000 0.500000 L0.125000 0.250000 z " fill="rgb(245,195,195)" />
<path d="M0.000000 0.000000 L1.000000 0.000000 L1.000000 1.000000 L0.000000 1.000000  z" fill="none" stroke="rgb(128,128,128)" stroke-width="0.01" />
<line x1="0.222222" y1="0.277778" x2="0.4" y2="0.5" style="stroke:rgb(246,147,147);stroke-width:0.01" />
<line x1="0.189024" y1="0.29878" x2="0.378049" y2="0.597561" style="stroke:rgb(246,147,147);stroke-width:0.01" />
<line x1="0.125" y1="0.25" x2="0.125" y2="0.5" style="stroke:rgb(246,147,147);stroke-width:0.01" />
<line x1="0.25" y1="0.125" x2="0.25" y2="0.5" style="stroke:rgb(246,147,147);stroke-width:0.01" />
<line x1="0.125" y1="0.25" x2="0.375" y2="0.5" style="stroke:rgb(246,147,147);stroke-width:0.01" />
<line x1="0.3" y1="0.375" x2="0.228659" y2="0.692073" style="stroke:rgb(246,147,147);stroke-width:0.01" />
<line x1="0.4" y1="0.5" x2="0.378049" y2="0.597561" style="stroke:rgb(246,147,147);stroke-width:0.01" />
<line x1="0.125" y1="0.375" x2="0.25" y2="0.5" style="stroke:rgb(246,147,147);stroke-width:0.01" />
<line x1="0.25" y1="0.125" x2="0.375" y2="0.125" style="stroke:rgb(246,147,147);stroke-width:0.01" />
<line x1="0.25" y1="0.125" x2="0.125" y2="0.25" style="stroke:rgb(246,147,147);stroke-width:0.01" />
<line x1="0.375" y1="0.125" x2="0.125" y2="0.375" style="stroke:rgb(246,147,147);stroke-width:0.01" />
<line x1="0.222222" y1="0.277778" x2="0.189024" y2="0.29878" style="stroke:rgb(246,147,147);stroke-width:0.01" />
<line x1="0.277778" y1="0.347222" x2="0.125" y2="0.5" style="stroke:rgb(246,147,147);stroke-width:0.01" />
<line x1="0.277778" y1="0.347222" x2="0.23628" y2="0.373476" style="stroke:rgb(246,147,147);stroke-width:0.01" />
<line x1="0.125" y1="0.375" x2="0.3" y2="0.375" style="stroke:rgb(246,147,147);stroke-width:0.01" />
<line x1="0.333333" y1="0.416667" x2="0.25" y2="0.5" style="stroke:rgb(246,147,147);stroke-width:0.01" />
<line x1="0.388889" y1="0.486111" x2="0.375" y2="0.5" style="stroke:rgb(246,147,147);stroke-width:0.01" />
<line x1="0.333333" y1="0.416667" x2="0.283537" y2="0.448171" style="stroke:rgb(246,147,147);stroke-width:0.01" />
<line x1="0.125" y1="0.5" x2="0.4" y2="0.5" style="stroke:rgb(246,147,147);stroke-width:0.01" />
<line x1="0.388889" y1="0.486111" x2="0.330793" y2="0.522866" style="stroke:rgb(246,147,147);stroke-width:0.01" />
<line x1="0.378049" y1="0.597561" x2="0.228659" y2="0.692073" style="stroke:rgb(246,147,147);stroke-width:0.01" />
</g>
</svg>
