<svg xmlns="http://www.w3.org/2000/svg" viewBox="-1.5 -1.5 3 3">
<g transform="scale(1, -1)">
<path d="M-0.015358 -0.260213 L0.109642 -0.260213 L-0.015358 -0.135213 L-0.015358 -0.072713 L0.134642 0.114787 L0.112691 0.212348 L-0.036700 0.306860 L0.006517 0.114787 L-0.140358 0.114787 L-0.140358 -0.135213 z " fill="rgb(245,195,195)" />
<path d="M-0.265358 -0.385213 L0.734642 -0.385213 L0.734642 0.614787 L-0.265358 0.614787  z" fill="none" stroke="rgb(128,128,128)" stroke-width="0.01" />
<line x1="-0.043136" y1="-0.107436" x2="0.134642" y2="0.114787" style="stroke:rgb(246,147,147);stroke-width:0.01" />
<line x1="-0.0763338" y1="-0.0864329" x2="0.112691" y2="0.212348" style="stroke:rgb(246,147,147);stroke-width:0.01" />
<line x1="-0.140358" y1="-0.135213" x2="-0.140358" y2="0.114787" style="stroke:rgb(246,147,147);stroke-width:0.01" />
<line x1="-0.0153582" y1="-0.260213" x2="-0.0153582" y2="0.114787" style="stroke:rgb(246,147,147);stroke-width:0.01" />
<line x1="-0.140358" y1="-0.135213" x2="0.109642" y2="0.114787" style="stroke:rgb(246,147,147);stroke-width:0.01" />
<line x1="0.0346418" y1="-0.0102134" x2="-0.0366997" y2="0.30686" style="stroke:rgb(246,147,147);stroke-width:0.01" />
<line x1="0.134642" y1="0.114787" x2="0.112691" y2="0.212348" style="stroke:rgb(246,147,147);stroke-width:0.01" />
<line x1="-0.140358" y1="-0.0102134" x2="-0.0153582" y2="0.114787" style="stroke:rgb(246,147,147);stroke-width:0.01" />
<line x1="-0.0153582" y1="-0.260213" x2="0.109642" y2="-0.260213" style="stroke:rgb(246,147,147);stroke-width:0.01" />
<line x1="-0.0153582" y1="-0.260213" x2="-0.140358" y2="-0.135213" style="stroke:rgb(246,147,147);stroke-width:0.01" />
<line x1="0.109642" y1="-0.260213" x2="-0.140358" y2="-0.0102134" style="stroke:rgb(246,147,147);stroke-width:0.01" />
<line x1="-0.043136" y1="-0.107436" x2="-0.0763338" y2="-0.0864329" style="stroke:rgb(246,147,147);stroke-width:0.01" />
<line x1="0.0124195" y1="-0.0379912" x2="-0.140358" y2="0.114787" style="stroke:rgb(246,147,147);stroke-width:0.01" />
<line x1="0.0124195" y1="-0.0379912" x2="-0.0290777" y2="-0.0117378" style="stroke:rgb(246,147,147);stroke-width:0.01" />
<line x1="-0.140358" y1="-0.0102134" x2="0.0346418" y2="-0.0102134" style="stroke:rgb(246,147,147);stroke-width:0.01" />
<line x1="0.0679751" y1="0.0314533" x2="-0.0153582" y2="0.114787" style="stroke:rgb(246,147,147);stroke-width:0.01" />
<line x1="0.123531" y1="0.100898" x2="0.109642" y2="0.114787" style="stroke:rgb(246,147,147);stroke-width:0.01" />
<line x1="0.0679751" y1="0.0314533" x2="0.0181784" y2="0.0629573" style="stroke:rgb(246,147,147);stroke-width:0.01" />
<line x1="-0.140358" y1="0.114787" x2="0.134642" y2="0.114787" style="stroke:rgb(246,147,147);stroke-width:0.01" />
<line x1="0.123531" y1="0.100898" x2="0.0654345" y2="0.137652" style="stroke:rgb(246,147,147);stroke-width:0.01" />
<line x1="0.112691" y1="0.212348" x2="-0.0366997" y2="0.30686" style="stroke:rgb(246,147,147);stroke-width:0.01" />
</g>
</svg>
