<svg xmlns="http://www.w3.org/2000/svg" viewBox="-1.5 -1.5 3 3">
<g transform="scale(1, -1)">
<path d="M-0.034601 -0.240689 L0.086906 -0.211343 L-0.056964 -0.123449 L-0.005569 -0.072055 L0.000681 -0.078305 L-0.004045 -0.085774 L0.029153 -0.106777 L0.206931 0.115445 L0.184980 0.213006 L0.035589 0.307519 L0.078806 0.115445 L-0.120614 0.115445 L-0.122639 0.123830 L-0.157355 0.115445 L-0.121261 -0.187746 z " fill="rgb(245,195,195)" />
<path d="M-0.193069 -0.384555 L0.806931 -0.384555 L0.806931 0.615445 L-0.193069 0.615445  z" fill="none" stroke="rgb(128,128,128)" stroke-width="0.01" />
<line x1="0.0291531" y1="-0.106777" x2="0.206931" y2="0.115445" style="stroke:rgb(246,147,147);stroke-width:0.01" />
<line x1="-0.0040447" y1="-0.085774" x2="0.18498" y2="0.213006" style="stroke:rgb(246,147,147);stroke-width:0.01" />
<line x1="-0.121261" y1="-0.187746" x2="-0.157355" y2="0.115445" style="stroke:rgb(246,147,147);stroke-width:0.01" />
<line x1="-0.0346007" y1="-0.240689" x2="-0.122639" y2="0.12383" style="stroke:rgb(246,147,147);stroke-width:0.01" />
<line x1="-0.121261" y1="-0.187746" x2="0.181931" y2="0.115445" style="stroke:rgb(246,147,147);stroke-width:0.01" />
<line x1="0.106931" y1="-0.00955451" x2="0.0355894" y2="0.307519" style="stroke:rgb(246,147,147);stroke-width:0.01" />
<line x1="-0.0346007" y1="-0.240689" x2="0.0869058" y2="-0.211343" style="stroke:rgb(246,147,147);stroke-width:0.01" />
<line x1="-0.152529" y1="0.074905" x2="-0.122639" y2="0.12383" style="stroke:rgb(246,147,147);stroke-width:0.01" />
<line x1="0.206931" y1="0.115445" x2="0.18498" y2="0.213006" style="stroke:rgb(246,147,147);stroke-width:0.01" />
<line x1="-0.134558" y1="-0.0760439" x2="0.0569309" y2="0.115445" style="stroke:rgb(246,147,147);stroke-width:0.01" />
<line x1="-0.0346007" y1="-0.240689" x2="-0.121261" y2="-0.187746" style="stroke:rgb(246,147,147);stroke-width:0.01" />
<line x1="-0.147856" y1="0.0356583" x2="-0.0680691" y2="0.115445" style="stroke:rgb(246,147,147);stroke-width:0.01" />
<line x1="0.0291531" y1="-0.106777" x2="-0.152529" y2="0.074905" style="stroke:rgb(246,147,147);stroke-width:0.01" />
<line x1="0.0869058" y1="-0.211343" x2="-0.134558" y2="-0.0760439" style="stroke:rgb(246,147,147);stroke-width:0.01" />
<line x1="0.0291531" y1="-0.106777" x2="-0.0040447" y2="-0.085774" style="stroke:rgb(246,147,147);stroke-width:0.01" />
<line x1="0.0847087" y1="-0.0373323" x2="-0.0680691" y2="0.115445" style="stroke:rgb(246,147,147);stroke-width:0.01" />
<line x1="-0.0932927" y1="0.00232364" x2="-0.147856" y2="0.0356583" style="stroke:rgb(246,147,147);stroke-width:0.01" />
<line x1="-0.142474" y1="-0.00955451" x2="-0.0932927" y2="0.00232364" style="stroke:rgb(246,147,147);stroke-width:0.01" />
<line x1="0.0847087" y1="-0.0373323" x2="0.0432114" y2="-0.0110789" style="stroke:rgb(246,147,147);stroke-width:0.01" />
<line x1="-0.142474" y1="-0.00955451" x2="0.106931" y2="-0.00955451" style="stroke:rgb(246,147,147);stroke-width:0.01" />
<line x1="0.140264" y1="0.0321122" x2="0.0569309" y2="0.115445" style="stroke:rgb(246,147,147);stroke-width:0.01" />
<line x1="0.19582" y1="0.101557" x2="0.181931" y2="0.115445" style="stroke:rgb(246,147,147);stroke-width:0.01" />
<line x1="0.140264" y1="0.0321122" x2="0.0904675" y2="0.0636162" style="stroke:rgb(246,147,147);stroke-width:0.01" />
<line x1="-0.157355" y1="0.115445" x2="-0.122639" y2="0.12383" style="stroke:rgb(246,147,147);stroke-width:0.01" />
<line x1="-0.157355" y1="0.115445" x2="0.206931" y2="0.115445" style="stroke:rgb(246,147,147);stroke-width:0.01" />
<line x1="0.19582" y1="0.101557" x2="0.137724" y2="0.138311" style="stroke:rgb(246,147,147);stroke-width:0.01" />
<line x1="0.18498" y1="0.213006" x2="0.0355894" y2="0.307519" style="stroke:rgb(246,147,147);stroke-width:0.01" />
</g>
</svg>
