<svg xmlns="http://www.w3.org/2000/svg" viewBox="-1.5 -1.5 3 3">
<g transform="scale(1, -1)">
<path d="M0.158468 0.143865 L0.279975 0.173211 L0.136106 0.261106 L0.187500 0.312500 L0.193750 0.306250 L0.189024 0.298780 L0.222222 0.277778 L0.400000 0.500000 L0.378049 0.597561 L0.228659 0.692073 L0.271875 0.500000 L0.072455 0.500000 L0.070430 0.508385 L0.035714 0.500000 L0.071809 0.196809 z " fill="rgb(245,195,195)" />
<path d="M0.000000 0.000000 L1.000000 0.000000 L1.000000 1.000000 L0.000000 1.000000  z" fill="none" stroke="rgb(128,128,128)" stroke-width="0.01" />
<line x1="0.222222" y1="0.277778" x2="0.4" y2="0.5" style="stroke:rgb(246,147,147);stroke-width:0.01" />
<line x1="0.189024" y1="0.29878" x2="0.378049" y2="0.597561" style="stroke:rgb(246,147,147);stroke-width:0.01" />
<line x1="0.0718085" y1="0.196809" x2="0.0357143" y2="0.5" style="stroke:rgb(246,147,147);stroke-width:0.01" />
<line x1="0.158468" y1="0.143865" x2="0.0704304" y2="0.508385" style="stroke:rgb(246,147,147);stroke-width:0.01" />
<line x1="0.0718085" y1="0.196809" x2="0.375" y2="0.5" style="stroke:rgb(246,147,147);stroke-width:0.01" />
<line x1="0.3" y1="0.375" x2="0.228659" y2="0.692073" style="stroke:rgb(246,147,147);stroke-width:0.01" />
<line x1="0.158468" y1="0.143865" x2="0.279975" y2="0.173211" style="stroke:rgb(246,147,147);stroke-width:0.01" />
<line x1="0.0405405" y1="0.459459" x2="0.0704304" y2="0.508385" style="stroke:rgb(246,147,147);stroke-width:0.01" />
<line x1="0.4" y1="0.5" x2="0.378049" y2="0.597561" style="stroke:rgb(246,147,147);stroke-width:0.01" />
<line x1="0.0585106" y1="0.308511" x2="0.25" y2="0.5" style="stroke:rgb(246,147,147);stroke-width:0.01" />
<line x1="0.158468" y1="0.143865" x2="0.0718085" y2="0.196809" style="stroke:rgb(246,147,147);stroke-width:0.01" />
<line x1="0.0452128" y1="0.420213" x2="0.125" y2="0.5" style="stroke:rgb(246,147,147);stroke-width:0.01" />
<line x1="0.222222" y1="0.277778" x2="0.0405405" y2="0.459459" style="stroke:rgb(246,147,147);stroke-width:0.01" />
<line x1="0.279975" y1="0.173211" x2="0.0585106" y2="0.308511" style="stroke:rgb(246,147,147);stroke-width:0.01" />
<line x1="0.222222" y1="0.277778" x2="0.189024" y2="0.29878" style="stroke:rgb(246,147,147);stroke-width:0.01" />
<line x1="0.277778" y1="0.347222" x2="0.125" y2="0.5" style="stroke:rgb(246,147,147);stroke-width:0.01" />
<line x1="0.0997764" y1="0.386878" x2="0.0452128" y2="0.420213" style="stroke:rgb(246,147,147);stroke-width:0.01" />
<line x1="0.0505952" y1="0.375" x2="0.0997764" y2="0.386878" style="stroke:rgb(246,147,147);stroke-width:0.01" />
<line x1="0.277778" y1="0.347222" x2="0.23628" y2="0.373476" style="stroke:rgb(246,147,147);stroke-width:0.01" />
<line x1="0.0505952" y1="0.375" x2="0.3" y2="0.375" style="stroke:rgb(246,147,147);stroke-width:0.01" />
<line x1="0.333333" y1="0.416667" x2="0.25" y2="0.5" style="stroke:rgb(246,147,147);stroke-width:0.01" />
<line x1="0.388889" y1="0.486111" x2="0.375" y2="0.5" style="stroke:rgb(246,147,147);stroke-width:0.01" />
<line x1="0.333333" y1="0.416667" x2="0.283537" y2="0.448171" style="stroke:rgb(246,147,147);stroke-width:0.01" />
<line x1="0.0357143" y1="0.5" x2="0.0704304" y2="0.508385" style="stroke:rgb(246,147,147);stroke-width:0.01" />
<line x1="0.0357143" y1="0.5" x2="0.4" y2="0.5" style="stroke:rgb(246,147,147);stroke-width:0.01" />
<line x1="0.388889" y1="0.486111" x2="0.330793" y2="0.522866" style="stroke:rgb(246,147,147);stroke-width:0.01" />
<line x1="0.378049" y1="0.597561" x2="0.228659" y2="0.692073" style="stroke:rgb(246,147,147);stroke-width:0.01" />
</g>
</svg>
