<svg xmlns="http://www.w3.org/2000/svg" viewBox="-1.5 -1.5 3 3">
<g transform="scale(1, -1)">
<path d="M0.468049 -0.481500 L0.577617 0.142836 L-0.000688 0.343863 L-0.000688 0.356899 L-0.188901 0.409288 L-0.425226 -0.346611 L-0.430162 -0.424775 z " fill="rgb(245,195,195)" />
<path d="M-1.000688 0.256899 L-0.000688 0.256899 L-0.000688 1.256899 L-1.000688 1.256899  z" fill="none" stroke="rgb(128,128,128)" stroke-width="0.01" />
<line x1="0.39152" y1="-0.178362" x2="0.448481" y2="-0.0961704" style="stroke:rgb(246,147,147);stroke-width:0.01" />
<line x1="0.448481" y1="-0.0961704" x2="0.577617" y2="0.142836" style="stroke:rgb(246,147,147);stroke-width:0.01" />
<line x1="0.468049" y1="-0.4815" x2="-0.430162" y2="-0.424775" style="stroke:rgb(246,147,147);stroke-width:0.01" />
<line x1="0.448481" y1="-0.0961704" x2="0.549244" y2="0.152698" style="stroke:rgb(246,147,147);stroke-width:0.01" />
<line x1="0.372065" y1="-0.453443" x2="0.549244" y2="0.152698" style="stroke:rgb(246,147,147);stroke-width:0.01" />
<line x1="-0.425226" y1="-0.346611" x2="-0.000688432" y2="0.356899" style="stroke:rgb(246,147,147);stroke-width:0.01" />
<line x1="0.468049" y1="-0.4815" x2="0.372065" y2="-0.453443" style="stroke:rgb(246,147,147);stroke-width:0.01" />
<line x1="0.468049" y1="-0.4815" x2="0.577617" y2="0.142836" style="stroke:rgb(246,147,147);stroke-width:0.01" />
<line x1="-0.425226" y1="-0.346611" x2="-0.188901" y2="0.409288" style="stroke:rgb(246,147,147);stroke-width:0.01" />
<line x1="-0.430162" y1="-0.424775" x2="-0.425226" y2="-0.346611" style="stroke:rgb(246,147,147);stroke-width:0.01" />
<line x1="-0.236544" y1="0.256899" x2="-0.000688432" y2="0.256899" style="stroke:rgb(246,147,147);stroke-width:0.01" />
<line x1="-0.000688432" y1="0.256899" x2="-0.000688432" y2="0.356899" style="stroke:rgb(246,147,147);stroke-width:0.01" />
<line x1="-0.000688432" y1="0.356899" x2="-0.188901" y2="0.409288" style="stroke:rgb(246,147,147);stroke-width:0.01" />
<line x1="0.39152" y1="-0.178362" x2="-0.236544" y2="0.256899" style="stroke:rgb(246,147,147);stroke-width:0.01" />
<line x1="0.577617" y1="0.142836" x2="-0.188901" y2="0.409288" style="stroke:rgb(246,147,147);stroke-width:0.01" />
</g>
</svg>
