<svg xmlns="http://www.w3.org/2000/svg" viewBox="-1.5 -1.5 3 3">
<g transform="scale(1, -1)">
<path d="M0.492188 -0.507812 L0.492188 -0.476562 L-0.476562 0.492188 L-0.507812 0.492188 z " fill="rgb(245,195,195)" />
<path d="M-0.007812 -0.007812 L0.992188 -0.007812 L0.992188 0.992188 L-0.007812 0.992188  z" fill="none" stroke="rgb(128,128,128)" stroke-width="0.01" />
<line x1="0.460938" y1="-0.476562" x2="0.492188" y2="-0.476562" style="stroke:rgb(246,147,147);stroke-width:0.01" />
<line x1="0.429688" y1="-0.445312" x2="0.460938" y2="-0.445312" style="stroke:rgb(246,147,147);stroke-width:0.01" />
<line x1="0.398438" y1="-0.414062" x2="0.429688" y2="-0.414062" style="stroke:rgb(246,147,147);stroke-width:0.01" />
<line x1="0.367188" y1="-0.382812" x2="0.398438" y2="-0.382812" style="stroke:rgb(246,147,147);stroke-width:0.01" />
<line x1="0.335938" y1="-0.351562" x2="0.367188" y2="-0.351562" style="stroke:rgb(246,147,147);stroke-width:0.01" />
<line x1="0.304688" y1="-0.320312" x2="0.335938" y2="-0.320312" style="stroke:rgb(246,147,147);stroke-width:0.01" />
<line x1="0.273438" y1="-0.289062" x2="0.304688" y2="-0.289062" style="stroke:rgb(246,147,147);stroke-width:0.01" />
<line x1="0.242188" y1="-0.257812" x2="0.273438" y2="-0.257812" style="stroke:rgb(246,147,147);stroke-width:0.01" />
<line x1="0.210938" y1="-0.226562" x2="0.242188" y2="-0.226562" style="stroke:rgb(246,147,147);stroke-width:0.01" />
<line x1="0.179688" y1="-0.195312" x2="0.210938" y2="-0.195312" style="stroke:rgb(246,147,147);stroke-width:0.01" />
<line x1="0.148438" y1="-0.164062" x2="0.179688" y2="-0.164062" style="stroke:rgb(246,147,147);stroke-width:0.01" />
<line x1="0.117188" y1="-0.132812" x2="0.148438" y2="-0.132812" style="stroke:rgb(246,147,147);stroke-width:0.01" />
<line x1="0.0859375" y1="-0.101562" x2="0.117188" y2="-0.101562" style="stroke:rgb(246,147,147);stroke-width:0.01" />
<line x1="0.0546875" y1="-0.0703125" x2="0.0859375" y2="-0.0703125" style="stroke:rgb(246,147,147);stroke-width:0.01" />
<line x1="0.0234375" y1="-0.0390625" x2="0.0546875" y2="-0.0390625" style="stroke:rgb(246,147,147);stroke-width:0.01" />
<line x1="-0.476562" y1="0.460938" x2="-0.476562" y2="0.492188" style="stroke:rgb(246,147,147);stroke-width:0.01" />
<line x1="-0.445312" y1="0.429688" x2="-0.445312" y2="0.460938" style="stroke:rgb(246,147,147);stroke-width:0.01" />
<line x1="-0.414062" y1="0.398438" x2="-0.414062" y2="0.429688" style="stroke:rgb(246,147,147);stroke-width:0.01" />
<line x1="-0.382812" y1="0.367188" x2="-0.382812" y2="0.398438" style="stroke:rgb(246,147,147);stroke-width:0.01" />
<line x1="-0.351562" y1="0.335938" x2="-0.351562" y2="0.367188" style="stroke:rgb(246,147,147);stroke-width:0.01" />
<line x1="-0.320312" y1="0.304688" x2="-0.320312" y2="0.335938" style="stroke:rgb(246,147,147);stroke-width:0.01" />
<line x1="-0.289062" y1="0.273438" x2="-0.289062" y2="0.304688" style="stroke:rgb(246,147,147);stroke-width:0.01" />
<line x1="-0.257812" y1="0.242188" x2="-0.257812" y2="0.273438" style="stroke:rgb(246,147,147);stroke-width:0.01" />
<line x1="-0.226562" y1="0.210938" x2="-0.226562" y2="0.242188" style="stroke:rgb(246,147,147);stroke-width:0.01" />
<line x1="-0.195312" y1="0.179688" x2="-0.195312" y2="0.210938" style="stroke:rgb(246,147,147);stroke-width:0.01" />
<line x1="-0.164062" y1="0.148438" x2="-0.164062" y2="0.179688" style="stroke:rgb(246,147,147);stroke-width:0.01" />
<line x1="-0.132812" y1="0.117188" x2="-0.132812" y2="0.148438" style="stroke:rgb(246,147,147);stroke-width:0.01" />
<line x1="-0.101562" y1="0.0859375" x2="-0.101562" y2="0.117188" style="stroke:rgb(246,147,147);stroke-width:0.01" />
<line x1="-0.0703125" y1="0.0546875" x2="-0.0703125" y2="0.0859375" style="stroke:rgb(246,147,147);stroke-width:0.01" />
<line x1="-0.0390625" y1="0.0234375" x2="-0.0390625" y2="0.0546875" style="stroke:rgb(246,147,147);stroke-width:0.01" />
<line x1="-0.0078125" y1="-0.0078125" x2="0.0234375" y2="-0.0078125" style="stroke:rgb(246,147,147);stroke-width:0.01" />
<line x1="-0.0078125" y1="-0.0078125" x2="-0.0078125" y2="0.0234375" style="stroke:rgb(246,147,147);stroke-width:0.01" />
<line x1="0.492188" y1="-0.507812" x2="-0.507812" y2="0.492188" style="stroke:rgb(246,147,147);stroke-width:0.01" />
<line x1="0.0234375" y1="-0.0390625" x2="0.0234375" y2="-0.0078125" style="stroke:rgb(246,147,147);stroke-width:0.01" />
<line x1="0.0546875" y1="-0.0703125" x2="0.0546875" y2="-0.0390625" style="stroke:rgb(246,147,147);stroke-width:0.01" />
<line x1="0.0859375" y1="-0.101562" x2="0.0859375" y2="-0.0703125" style="stroke:rgb(246,147,147);stroke-width:0.01" />
<line x1="0.117188" y1="-0.132812" x2="0.117188" y2="-0.101562" style="stroke:rgb(246,147,147);stroke-width:0.01" />
<line x1="0.148438" y1="-0.164062" x2="0.148438" y2="-0.132812" style="stroke:rgb(246,147,147);stroke-width:0.01" />
<line x1="0.179688" y1="-0.195312" x2="0.179688" y2="-0.164062" style="stroke:rgb(246,147,147);stroke-width:0.01" />
<line x1="0.210938" y1="-0.226562" x2="0.210938" y2="-0.195312" style="stroke:rgb(246,147,147);stroke-width:0.01" />
<line x1="0.242188" y1="-0.257812" x2="0.242188" y2="-0.226562" style="stroke:rgb(246,147,147);stroke-width:0.01" />
<line x1="0.273438" y1="-0.289062" x2="0.273438" y2="-0.257812" style="stroke:rgb(246,147,147);stroke-width:0.01" />
<line x1="0.304688" y1="-0.320312" x2="0.304688" y2="-0.289062" style="stroke:rgb(246,147,147);stroke-width:0.01" />
<line x1="0.335938" y1="-0.351562" x2="0.335938" y2="-0.320312" style="stroke:rgb(246,147,147);stroke-width:0.01" />
<line x1="0.367188" y1="-0.382812" x2="0.367188" y2="-0.351562" style="stroke:rgb(246,147,147);stroke-width:0.01" />
<line x1="0.398438" y1="-0.414062" x2="0.398438" y2="-0.382812" style="stroke:rgb(246,147,147);stroke-width:0.01" />
<line x1="0.429688" y1="-0.445312" x2="0.429688" y2="-0.414062" style="stroke:rgb(246,147,147);stroke-width:0.01" />
<line x1="0.460938" y1="-0.476562" x2="0.460938" y2="-0.445312" style="stroke:rgb(246,147,147);stroke-width:0.01" />
<line x1="0.492188" y1="-0.507812" x2="0.492188" y2="-0.476562" style="stroke:rgb(246,147,147);stroke-width:0.01" />
<line x1="0.492188" y1="-0.476562" x2="-0.476562" y2="0.492188" style="stroke:rgb(246,147,147);stroke-width:0.01" />
<line x1="-0.0390625" y1="0.0234375" x2="-0.0078125" y2="0.0234375" style="stroke:rgb(246,147,147);stroke-width:0.01" />
<line x1="-0.0703125" y1="0.0546875" x2="-0.0390625" y2="0.0546875" style="stroke:rgb(246,147,147);stroke-width:0.01" />
<line x1="-0.101562" y1="0.0859375" x2="-0.0703125" y2="0.0859375" style="stroke:rgb(246,147,147);stroke-width:0.01" />
<line x1="-0.132812" y1="0.117188" x2="-0.101562" y2="0.117188" style="stroke:rgb(246,147,147);stroke-width:0.01" />
<line x1="-0.164062" y1="0.148438" x2="-0.132812" y2="0.148438" style="stroke:rgb(246,147,147);stroke-width:0.01" />
<line x1="-0.195312" y1="0.179688" x2="-0.164062" y2="0.179688" style="stroke:rgb(246,147,147);stroke-width:0.01" />
<line x1="-0.226562" y1="0.210938" x2="-0.195312" y2="0.210938" style="stroke:rgb(246,147,147);stroke-width:0.01" />
<line x1="-0.257812" y1="0.242188" x2="-0.226562" y2="0.242188" style="stroke:rgb(246,147,147);stroke-width:0.01" />
<line x1="-0.289062" y1="0.273438" x2="-0.257812" y2="0.273438" style="stroke:rgb(246,147,147);stroke-width:0.01" />
<line x1="-0.320312" y1="0.304688" x2="-0.289062" y2="0.304688" style="stroke:rgb(246,147,147);stroke-width:0.01" />
<line x1="-0.351562" y1="0.335938" x2="-0.320312" y2="0.335938" style="stroke:rgb(246,147,147);stroke-width:0.01" />
<line x1="-0.382812" y1="0.367188" x2="-0.351562" y2="0.367188" style="stroke:rgb(246,147,147);stroke-width:0.01" />
<line x1="-0.414062" y1="0.398438" x2="-0.382812" y2="0.398438" style="stroke:rgb(246,147,147);stroke-width:0.01" />
<line x1="-0.445312" y1="0.429688" x2="-0.414062" y2="0.429688" style="stroke:rgb(246,147,147);stroke-width:0.01" />
<line x1="-0.476562" y1="0.460938" x2="-0.445312" y2="0.460938" style="stroke:rgb(246,147,147);stroke-width:0.01" />
<line x1="-0.507812" y1="0.492188" x2="-0.476562" y2="0.492188" style="stroke:rgb(246,147,147);stroke-width:0.01" />
</g>
</svg>
