<svg xmlns="http://www.w3.org/2000/svg" viewBox="-1.5 -1.5 3 3">
<g transform="scale(1, -1)">
<path d="M0.500000 -0.500000 L0.500000 -0.468750 L-0.468750 0.500000 L-0.500000 0.500000 z " fill="rgb(245,195,195)" />
<path d="M0.000000 0.000000 L1.000000 0.000000 L1.000000 1.000000 L0.000000 1.000000  z" fill="none" stroke="rgb(128,128,128)" stroke-width="0.01" />
<line x1="0.46875" y1="-0.46875" x2="0.5" y2="-0.46875" style="stroke:rgb(246,147,147);stroke-width:0.01" />
<line x1="0.4375" y1="-0.4375" x2="0.46875" y2="-0.4375" style="stroke:rgb(246,147,147);stroke-width:0.01" />
<line x1="0.40625" y1="-0.40625" x2="0.4375" y2="-0.40625" style="stroke:rgb(246,147,147);stroke-width:0.01" />
<line x1="0.375" y1="-0.375" x2="0.40625" y2="-0.375" style="stroke:rgb(246,147,147);stroke-width:0.01" />
<line x1="0.34375" y1="-0.34375" x2="0.375" y2="-0.34375" style="stroke:rgb(246,147,147);stroke-width:0.01" />
<line x1="0.3125" y1="-0.3125" x2="0.34375" y2="-0.3125" style="stroke:rgb(246,147,147);stroke-width:0.01" />
<line x1="0.28125" y1="-0.28125" x2="0.3125" y2="-0.28125" style="stroke:rgb(246,147,147);stroke-width:0.01" />
<line x1="0.25" y1="-0.25" x2="0.28125" y2="-0.25" style="stroke:rgb(246,147,147);stroke-width:0.01" />
<line x1="0.21875" y1="-0.21875" x2="0.25" y2="-0.21875" style="stroke:rgb(246,147,147);stroke-width:0.01" />
<line x1="0.1875" y1="-0.1875" x2="0.21875" y2="-0.1875" style="stroke:rgb(246,147,147);stroke-width:0.01" />
<line x1="0.15625" y1="-0.15625" x2="0.1875" y2="-0.15625" style="stroke:rgb(246,147,147);stroke-width:0.01" />
<line x1="0.125" y1="-0.125" x2="0.15625" y2="-0.125" style="stroke:rgb(246,147,147);stroke-width:0.01" />
<line x1="0.09375" y1="-0.09375" x2="0.125" y2="-0.09375" style="stroke:rgb(246,147,147);stroke-width:0.01" />
<line x1="0.0625" y1="-0.0625" x2="0.09375" y2="-0.0625" style="stroke:rgb(246,147,147);stroke-width:0.01" />
<line x1="0.03125" y1="-0.03125" x2="0.0625" y2="-0.03125" style="stroke:rgb(246,147,147);stroke-width:0.01" />
<line x1="-0.46875" y1="0.46875" x2="-0.46875" y2="0.5" style="stroke:rgb(246,147,147);stroke-width:0.01" />
<line x1="-0.4375" y1="0.4375" x2="-0.4375" y2="0.46875" style="stroke:rgb(246,147,147);stroke-width:0.01" />
<line x1="-0.40625" y1="0.40625" x2="-0.40625" y2="0.4375" style="stroke:rgb(246,147,147);stroke-width:0.01" />
<line x1="-0.375" y1="0.375" x2="-0.375" y2="0.40625" style="stroke:rgb(246,147,147);stroke-width:0.01" />
<line x1="-0.34375" y1="0.34375" x2="-0.34375" y2="0.375" style="stroke:rgb(246,147,147);stroke-width:0.01" />
<line x1="-0.3125" y1="0.3125" x2="-0.3125" y2="0.34375" style="stroke:rgb(246,147,147);stroke-width:0.01" />
<line x1="-0.28125" y1="0.28125" x2="-0.28125" y2="0.3125" style="stroke:rgb(246,147,147);stroke-width:0.01" />
<line x1="-0.25" y1="0.25" x2="-0.25" y2="0.28125" style="stroke:rgb(246,147,147);stroke-width:0.01" />
<line x1="-0.21875" y1="0.21875" x2="-0.21875" y2="0.25" style="stroke:rgb(246,147,147);stroke-width:0.01" />
<line x1="-0.1875" y1="0.1875" x2="-0.1875" y2="0.21875" style="stroke:rgb(246,147,147);stroke-width:0.01" />
<line x1="-0.15625" y1="0.15625" x2="-0.15625" y2="0.1875" style="stroke:rgb(246,147,147);stroke-width:0.01" />
<line x1="-0.125" y1="0.125" x2="-0.125" y2="0.15625" style="stroke:rgb(246,147,147);stroke-width:0.01" />
<line x1="-0.09375" y1="0.09375" x2="-0.09375" y2="0.125" style="stroke:rgb(246,147,147);stroke-width:0.01" />
<line x1="-0.0625" y1="0.0625" x2="-0.0625" y2="0.09375" style="stroke:rgb(246,147,147);stroke-width:0.01" />
<line x1="-0.03125" y1="0.03125" x2="-0.03125" y2="0.0625" style="stroke:rgb(246,147,147);stroke-width:0.01" />
<line x1="0" y1="0" x2="0.03125" y2="0" style="stroke:rgb(246,147,147);stroke-width:0.01" />
<line x1="0" y1="0" x2="0" y2="0.03125" style="stroke:rgb(246,147,147);stroke-width:0.01" />
<line x1="0.5" y1="-0.5" x2="-0.5" y2="0.5" style="stroke:rgb(246,147,147);stroke-width:0.01" />
<line x1="0.03125" y1="-0.03125" x2="0.03125" y2="0" style="stroke:rgb(246,147,147);stroke-width:0.01" />
<line x1="0.0625" y1="-0.0625" x2="0.0625" y2="-0.03125" style="stroke:rgb(246,147,147);stroke-width:0.01" />
<line x1="0.09375" y1="-0.09375" x2="0.09375" y2="-0.0625" style="stroke:rgb(246,147,147);stroke-width:0.01" />
<line x1="0.125" y1="-0.125" x2="0.125" y2="-0.09375" style="stroke:rgb(246,147,147);stroke-width:0.01" />
<line x1="0.15625" y1="-0.15625" x2="0.15625" y2="-0.125" style="stroke:rgb(246,147,147);stroke-width:0.01" />
<line x1="0.1875" y1="-0.1875" x2="0.1875" y2="-0.15625" style="stroke:rgb(246,147,147);stroke-width:0.01" />
<line x1="0.21875" y1="-0.21875" x2="0.21875" y2="-0.1875" style="stroke:rgb(246,147,147);stroke-width:0.01" />
<line x1="0.25" y1="-0.25" x2="0.25" y2="-0.21875" style="stroke:rgb(246,147,147);stroke-width:0.01" />
<line x1="0.28125" y1="-0.28125" x2="0.28125" y2="-0.25" style="stroke:rgb(246,147,147);stroke-width:0.01" />
<line x1="0.3125" y1="-0.3125" x2="0.3125" y2="-0.28125" style="stroke:rgb(246,147,147);stroke-width:0.01" />
<line x1="0.34375" y1="-0.34375" x2="0.34375" y2="-0.3125" style="stroke:rgb(246,147,147);stroke-width:0.01" />
<line x1="0.375" y1="-0.375" x2="0.375" y2="-0.34375" style="stroke:rgb(246,147,147);stroke-width:0.01" />
<line x1="0.40625" y1="-0.40625" x2="0.40625" y2="-0.375" style="stroke:rgb(246,147,147);stroke-width:0.01" />
<line x1="0.4375" y1="-0.4375" x2="0.4375" y2="-0.40625" style="stroke:rgb(246,147,147);stroke-width:0.01" />
<line x1="0.46875" y1="-0.46875" x2="0.46875" y2="-0.4375" style="stroke:rgb(246,147,147);stroke-width:0.01" />
<line x1="0.5" y1="-0.5" x2="0.5" y2="-0.46875" style="stroke:rgb(246,147,147);stroke-width:0.01" />
<line x1="0.5" y1="-0.46875" x2="-0.46875" y2="0.5" style="stroke:rgb(246,147,147);stroke-width:0.01" />
<line x1="-0.03125" y1="0.03125" x2="0" y2="0.03125" style="stroke:rgb(246,147,147);stroke-width:0.01" />
<line x1="-0.0625" y1="0.0625" x2="-0.03125" y2="0.0625" style="stroke:rgb(246,147,147);stroke-width:0.01" />
<line x1="-0.09375" y1="0.09375" x2="-0.0625" y2="0.09375" style="stroke:rgb(246,147,147);stroke-width:0.01" />
<line x1="-0.125" y1="0.125" x2="-0.09375" y2="0.125" style="stroke:rgb(246,147,147);stroke-width:0.01" />
<line x1="-0.15625" y1="0.15625" x2="-0.125" y2="0.15625" style="stroke:rgb(246,147,147);stroke-width:0.01" />
<line x1="-0.1875" y1="0.1875" x2="-0.15625" y2="0.1875" style="stroke:rgb(246,147,147);stroke-width:0.01" />
<line x1="-0.21875" y1="0.21875" x2="-0.1875" y2="0.21875" style="stroke:rgb(246,147,147);stroke-width:0.01" />
<line x1="-0.25" y1="0.25" x2="-0.21875" y2="0.25" style="stroke:rgb(246,147,147);stroke-width:0.01" />
<line x1="-0.28125" y1="0.28125" x2="-0.25" y2="0.28125" style="stroke:rgb(246,147,147);stroke-width:0.01" />
<line x1="-0.3125" y1="0.3125" x2="-0.28125" y2="0.3125" style="stroke:rgb(246,147,147);stroke-width:0.01" />
<line x1="-0.34375" y1="0.34375" x2="-0.3125" y2="0.34375" style="stroke:rgb(246,147,147);stroke-width:0.01" />
<line x1="-0.375" y1="0.375" x2="-0.34375" y2="0.375" style="stroke:rgb(246,147,147);stroke-width:0.01" />
<line x1="-0.40625" y1="0.40625" x2="-0.375" y2="0.40625" style="stroke:rgb(246,147,147);stroke-width:0.01" />
<line x1="-0.4375" y1="0.4375" x2="-0.40625" y2="0.4375" style="stroke:rgb(246,147,147);stroke-width:0.01" />
<line x1="-0.46875" y1="0.46875" x2="-0.4375" y2="0.46875" style="stroke:rgb(246,147,147);stroke-width:0.01" />
<line x1="-0.5" y1="0.5" x2="-0.46875" y2="0.5" style="stroke:rgb(246,147,147);stroke-width:0.01" />
</g>
</svg>
