<svg xmlns="http://www.w3.org/2000/svg" viewBox="-1.5 -1.5 3 3">
<g transform="scale(1, -1)">
<path d="M999739745.223539 -794277472.466238 L999739745.317250 -794277472.281337 L999739745.462805 -794277472.051855 L999739745.440884 -794277472.037395 L999739745.455949 -794277472.007670 L999739745.036141 -794277471.706552 L999739744.745995 -794277471.992191 L999739744.920194 -794277472.175576 L999739744.902235 -794277472.211341 L999739745.001530 -794277472.261201 L999739745.009497 -794277472.250461 L999739745.115829 -794277472.354681 L999739745.164014 -794277472.305520 L999739745.205704 -794277472.457200 z " fill="rgb(245,195,195)" />
<path d="M0.000000 0.000000 L1.000000 0.000000 L1.000000 1.000000 L0.000000 1.000000  z" fill="none" stroke="rgb(128,128,128)" stroke-width="0.01" />
<line x1="9.9974e+08" y1="-7.94277e+08" x2="9.9974e+08" y2="-7.94277e+08" style="stroke:rgb(246,147,147);stroke-width:0.01" />
<line x1="9.9974e+08" y1="-7.94277e+08" x2="9.9974e+08" y2="-7.94277e+08" style="stroke:rgb(246,147,147);stroke-width:0.01" />
<line x1="9.9974e+08" y1="-7.94277e+08" x2="9.9974e+08" y2="-7.94277e+08" style="stroke:rgb(246,147,147);stroke-width:0.01" />
<line x1="9.9974e+08" y1="-7.94277e+08" x2="9.9974e+08" y2="-7.94277e+08" style="stroke:rgb(246,147,147);stroke-width:0.01" />
<line x1="9.9974e+08" y1="-7.94277e+08" x2="9.9974e+08" y2="-7.94277e+08" style="stroke:rgb(246,147,147);stroke-width:0.01" />
<line x1="9.9974e+08" y1="-7.94277e+08" x2="9.9974e+08" y2="-7.94277e+08" style="stroke:rgb(246,147,147);stroke-width:0.01" />
<line x1="9.9974e+08" y1="-7.94277e+08" x2="9.9974e+08" y2="-7.94277e+08" style="stroke:rgb(246,147,147);stroke-width:0.01" />
<line x1="9.9974e+08" y1="-7.94277e+08" x2="9.9974e+08" y2="-7.94277e+08" style="stroke:rgb(246,147,147);stroke-width:0.01" />
<line x1="9.9974e+08" y1="-7.94277e+08" x2="9.9974e+08" y2="-7.94277e+08" style="stroke:rgb(246,147,147);stroke-width:0.01" />
<line x1="9.9974e+08" y1="-7.94277e+08" x2="9.9974e+08" y2="-7.94277e+08" style="stroke:rgb(246,147,147);stroke-width:0.01" />
<line x1="9.9974e+08" y1="-7.94277e+08" x2="9.9974e+08" y2="-7.94277e+08" style="stroke:rgb(246,147,147);stroke-width:0.01" />
<line x1="9.9974e+08" y1="-7.94277e+08" x2="9.9974e+08" y2="-7.94277e+08" style="stroke:rgb(246,147,147);stroke-width:0.01" />
<line x1="9.9974e+08" y1="-7.94277e+08" x2="9.9974e+08" y2="-7.94277e+08" style="stroke:rgb(246,147,147);stroke-width:0.01" />
<line x1="9.9974e+08" y1="-7.94277e+08" x2="9.9974e+08" y2="-7.94277e+08" style="stroke:rgb(246,147,147);stroke-width:0.01" />
<line x1="9.9974e+08" y1="-7.94277e+08" x2="9.9974e+08" y2="-7.94277e+08" style="stroke:rgb(246,147,147);stroke-width:0.01" />
<line x1="9.9974e+08" y1="-7.94277e+08" x2="9.9974e+08" y2="-7.94277e+08" style="stroke:rgb(246,147,147);stroke-width:0.01" />
<line x1="9.9974e+08" y1="-7.94277e+08" x2="9.9974e+08" y2="-7.94277e+08" style="stroke:rgb(246,147,147);stroke-width:0.01" />
<line x1="9.9974e+08" y1="-7.94277e+08" x2="9.9974e+08" y2="-7.94277e+08" style="stroke:rgb(246,147,147);stroke-width:0.01" />
<line x1="9.9974e+08" y1="-7.94277e+08" x2="9.9974e+08" y2="-7.94277e+08" style="stroke:rgb(246,147,147);stroke-width:0.01" />
<line x1="9.9974e+08" y1="-7.94277e+08" x2="9.9974e+08" y2="-7.94277e+08" style="stroke:rgb(246,147,147);stroke-width:0.01" />
<line x1="9.9974e+08" y1="-7.94277e+08" x2="9.9974e+08" y2="-7.94277e+08" style="stroke:rgb(246,147,147);stroke-width:0.01" />
<line x1="9.9974e+08" y1="-7.94277e+08" x2="9.9974e+08" y2="-7.94277e+08" style="stroke:rgb(246,147,147);stroke-width:0.01" />
</g>
</svg>
