<svg xmlns="http://www.w3.org/2000/svg" viewBox="-1.5 -1.5 3 3">
<g transform="scale(1, -1)">
<path d="M0.080570 -0.283437 L0.174281 -0.098535 L0.319836 0.130946 L0.297915 0.145406 L0.312980 0.175131 L-0.106828 0.476250 L-0.396974 0.190610 L-0.222775 0.007226 L-0.240734 -0.028539 L-0.141439 -0.078400 L-0.133472 -0.067660 L-0.027140 -0.171880 L0.021045 -0.122719 L0.062735 -0.274398 z " fill="rgb(245,195,195)" />
<path d="M-999739745.142969 794277472.182801 L-999739744.142969 794277472.182801 L-999739744.142969 794277473.182801 L-999739745.142969 794277473.182801  z" fill="none" stroke="rgb(128,128,128)" stroke-width="0.01" />
<line x1="0.208871" y1="0.136763" x2="0.255809" y2="0.173179" style="stroke:rgb(246,147,147);stroke-width:0.01" />
<line x1="-0.396974" y1="0.19061" x2="-0.106828" y2="0.47625" style="stroke:rgb(246,147,147);stroke-width:0.01" />
<line x1="-0.102884" y1="0.328168" x2="-0.0189208" y2="0.413196" style="stroke:rgb(246,147,147);stroke-width:0.01" />
<line x1="-0.0271401" y1="-0.17188" x2="0.31298" y2="0.175131" style="stroke:rgb(246,147,147);stroke-width:0.01" />
<line x1="-0.141439" y1="-0.0783998" x2="0.139126" y2="0.299832" style="stroke:rgb(246,147,147);stroke-width:0.01" />
<line x1="-0.0286032" y1="0.0579137" x2="0.139126" y2="0.299832" style="stroke:rgb(246,147,147);stroke-width:0.01" />
<line x1="0.198673" y1="-0.045796" x2="0.319836" y2="0.130946" style="stroke:rgb(246,147,147);stroke-width:0.01" />
<line x1="0.0627351" y1="-0.274398" x2="0.319836" y2="0.130946" style="stroke:rgb(246,147,147);stroke-width:0.01" />
<line x1="0.0805699" y1="-0.283437" x2="0.31298" y2="0.175131" style="stroke:rgb(246,147,147);stroke-width:0.01" />
<line x1="-0.240734" y1="-0.0285394" x2="-0.0189208" y2="0.413196" style="stroke:rgb(246,147,147);stroke-width:0.01" />
<line x1="-0.130282" y1="0.427847" x2="-0.106828" y2="0.47625" style="stroke:rgb(246,147,147);stroke-width:0.01" />
<line x1="0.10181" y1="0.274758" x2="-0.102884" y2="0.328168" style="stroke:rgb(246,147,147);stroke-width:0.01" />
<line x1="0.198673" y1="-0.045796" x2="0.255809" y2="0.173179" style="stroke:rgb(246,147,147);stroke-width:0.01" />
<line x1="0.198673" y1="-0.045796" x2="-0.0286032" y2="0.0579137" style="stroke:rgb(246,147,147);stroke-width:0.01" />
<line x1="-0.141439" y1="-0.0783998" x2="-0.240734" y2="-0.0285394" style="stroke:rgb(246,147,147);stroke-width:0.01" />
<line x1="0.0805699" y1="-0.283437" x2="0.0627351" y2="-0.274398" style="stroke:rgb(246,147,147);stroke-width:0.01" />
<line x1="0.319836" y1="0.130946" x2="-0.130282" y2="0.427847" style="stroke:rgb(246,147,147);stroke-width:0.01" />
<line x1="0.31298" y1="0.175131" x2="-0.106828" y2="0.47625" style="stroke:rgb(246,147,147);stroke-width:0.01" />
<line x1="-0.0271401" y1="-0.17188" x2="-0.396974" y2="0.19061" style="stroke:rgb(246,147,147);stroke-width:0.01" />
<line x1="-0.141439" y1="-0.0783998" x2="-0.396974" y2="0.19061" style="stroke:rgb(246,147,147);stroke-width:0.01" />
<line x1="0.208871" y1="0.136763" x2="0.10181" y2="0.274758" style="stroke:rgb(246,147,147);stroke-width:0.01" />
<line x1="0.0627351" y1="-0.274398" x2="-0.130282" y2="0.427847" style="stroke:rgb(246,147,147);stroke-width:0.01" />
</g>
</svg>
