<svg xmlns="http://www.w3.org/2000/svg" viewBox="-1.5 -1.5 3 3">
<g transform="scale(1, -1)">
<path d="M0.090000 -0.130000 L0.810000 0.080000 L0.740000 0.320000 L0.980000 0.390000 L0.910000 0.630000 L0.190000 0.420000 L0.260000 0.180000 L0.020000 0.110000 z " fill="rgb(245,195,195)" />
<path d="M0.000000 0.000000 L1.000000 0.000000 L1.000000 1.000000 L0.000000 1.000000  z" fill="none" stroke="rgb(128,128,128)" stroke-width="0.01" />
<line x1="0.57" y1="0.01" x2="0.91" y2="0.63" style="stroke:rgb(246,147,147);stroke-width:0.01" />
<line x1="0.09" y1="-0.13" x2="0.81" y2="0.08" style="stroke:rgb(246,147,147);stroke-width:0.01" />
<line x1="0.09" y1="-0.13" x2="0.43" y2="0.49" style="stroke:rgb(246,147,147);stroke-width:0.01" />
<line x1="0.09" y1="-0.13" x2="0.02" y2="0.11" style="stroke:rgb(246,147,147);stroke-width:0.01" />
<line x1="0.26" y1="0.18" x2="0.19" y2="0.42" style="stroke:rgb(246,147,147);stroke-width:0.01" />
<line x1="0.02" y1="0.11" x2="0.98" y2="0.39" style="stroke:rgb(246,147,147);stroke-width:0.01" />
<line x1="0.57" y1="0.01" x2="0.43" y2="0.49" style="stroke:rgb(246,147,147);stroke-width:0.01" />
<line x1="0.81" y1="0.08" x2="0.74" y2="0.32" style="stroke:rgb(246,147,147);stroke-width:0.01" />
<line x1="0.57" y1="0.01" x2="0.26" y2="0.18" style="stroke:rgb(246,147,147);stroke-width:0.01" />
<line x1="0.98" y1="0.39" x2="0.91" y2="0.63" style="stroke:rgb(246,147,147);stroke-width:0.01" />
<line x1="0.19" y1="0.42" x2="0.91" y2="0.63" style="stroke:rgb(246,147,147);stroke-width:0.01" />
<line x1="0.74" y1="0.32" x2="0.43" y2="0.49" style="stroke:rgb(246,147,147);stroke-width:0.01" />
</g>
</svg>
