<svg xmlns="http://www.w3.org/2000/svg" viewBox="-1.5 -1.5 3 3">
<g transform="scale(1, -1)">
<path d="M-0.410000 -0.380000 L0.310000 -0.170000 L0.240000 0.070000 L0.480000 0.140000 L0.410000 0.380000 L-0.310000 0.170000 L-0.240000 -0.070000 L-0.480000 -0.140000 z " fill="rgb(245,195,195)" />
<path d="M-0.500000 -0.250000 L0.500000 -0.250000 L0.500000 0.750000 L-0.500000 0.750000  z" fill="none" stroke="rgb(128,128,128)" stroke-width="0.01" />
<line x1="0.07" y1="-0.24" x2="0.41" y2="0.38" style="stroke:rgb(246,147,147);stroke-width:0.01" />
<line x1="-0.41" y1="-0.38" x2="0.31" y2="-0.17" style="stroke:rgb(246,147,147);stroke-width:0.01" />
<line x1="-0.41" y1="-0.38" x2="-0.07" y2="0.24" style="stroke:rgb(246,147,147);stroke-width:0.01" />
<line x1="-0.41" y1="-0.38" x2="-0.48" y2="-0.14" style="stroke:rgb(246,147,147);stroke-width:0.01" />
<line x1="-0.24" y1="-0.07" x2="-0.31" y2="0.17" style="stroke:rgb(246,147,147);stroke-width:0.01" />
<line x1="-0.48" y1="-0.14" x2="0.48" y2="0.14" style="stroke:rgb(246,147,147);stroke-width:0.01" />
<line x1="0.07" y1="-0.24" x2="-0.07" y2="0.24" style="stroke:rgb(246,147,147);stroke-width:0.01" />
<line x1="0.31" y1="-0.17" x2="0.24" y2="0.07" style="stroke:rgb(246,147,147);stroke-width:0.01" />
<line x1="0.07" y1="-0.24" x2="-0.24" y2="-0.07" style="stroke:rgb(246,147,147);stroke-width:0.01" />
<line x1="0.48" y1="0.14" x2="0.41" y2="0.38" style="stroke:rgb(246,147,147);stroke-width:0.01" />
<line x1="-0.31" y1="0.17" x2="0.41" y2="0.38" style="stroke:rgb(246,147,147);stroke-width:0.01" />
<line x1="0.24" y1="0.07" x2="-0.07" y2="0.24" style="stroke:rgb(246,147,147);stroke-width:0.01" />
</g>
</svg>
