<svg xmlns="http://www.w3.org/2000/svg" viewBox="-1.5 -1.5 3 3">
<g transform="scale(1, -1)">
<path d="M0.529891 0.399457 L0.899753 0.457856 L0.975063 0.739411 L0.853034 0.889223 L0.700772 0.765199 L0.387565 1.248971 L0.303739 1.253278 L0.290701 0.999485 L0.289367 0.996051 L0.344595 0.609459 z " fill="rgb(245,195,195)" />
<path d="M0.000000 0.000000 L1.000000 0.000000 L1.000000 1.000000 L0.000000 1.000000  z" fill="none" stroke="rgb(128,128,128)" stroke-width="0.01" />
<line x1="0.899753" y1="0.457856" x2="0.975063" y2="0.739411" style="stroke:rgb(246,147,147);stroke-width:0.01" />
<line x1="0.529891" y1="0.399457" x2="0.572594" y2="0.54716" style="stroke:rgb(246,147,147);stroke-width:0.01" />
<line x1="0.41762" y1="0.526698" x2="0.448657" y2="0.584975" style="stroke:rgb(246,147,147);stroke-width:0.01" />
<line x1="0.396932" y1="0.550144" x2="0.488134" y2="0.736818" style="stroke:rgb(246,147,147);stroke-width:0.01" />
<line x1="0.440016" y1="0.501315" x2="0.448657" y2="0.584975" style="stroke:rgb(246,147,147);stroke-width:0.01" />
<line x1="0.50784" y1="0.424448" x2="0.514894" y2="0.431256" style="stroke:rgb(246,147,147);stroke-width:0.01" />
<line x1="0.290218" y1="0.990095" x2="0.303739" y2="1.25328" style="stroke:rgb(246,147,147);stroke-width:0.01" />
<line x1="0.498574" y1="0.43495" x2="0.5" y2="0.5" style="stroke:rgb(246,147,147);stroke-width:0.01" />
<line x1="0.50784" y1="0.424448" x2="0.546009" y2="0.455206" style="stroke:rgb(246,147,147);stroke-width:0.01" />
<line x1="0.289367" y1="0.996051" x2="0.387565" y2="1.24897" style="stroke:rgb(246,147,147);stroke-width:0.01" />
<line x1="0.520908" y1="0.409637" x2="0.488134" y2="0.736818" style="stroke:rgb(246,147,147);stroke-width:0.01" />
<line x1="0.344595" y1="0.609459" x2="0.289367" y2="0.996051" style="stroke:rgb(246,147,147);stroke-width:0.01" />
<line x1="0.413584" y1="0.531272" x2="0.464691" y2="0.580083" style="stroke:rgb(246,147,147);stroke-width:0.01" />
<line x1="0.491542" y1="0.55009" x2="0.508567" y2="0.564655" style="stroke:rgb(246,147,147);stroke-width:0.01" />
<line x1="0.413584" y1="0.531272" x2="0.853034" y2="0.889223" style="stroke:rgb(246,147,147);stroke-width:0.01" />
<line x1="0.495881" y1="0.438001" x2="0.464691" y2="0.580083" style="stroke:rgb(246,147,147);stroke-width:0.01" />
<line x1="0.519145" y1="0.411635" x2="0.514894" y2="0.431256" style="stroke:rgb(246,147,147);stroke-width:0.01" />
<line x1="0.473758" y1="0.463075" x2="0.290218" y2="0.990095" style="stroke:rgb(246,147,147);stroke-width:0.01" />
<line x1="0.546009" y1="0.455206" x2="0.508567" y2="0.564655" style="stroke:rgb(246,147,147);stroke-width:0.01" />
<line x1="0.529891" y1="0.399457" x2="0.899753" y2="0.457856" style="stroke:rgb(246,147,147);stroke-width:0.01" />
<line x1="0.41762" y1="0.526698" x2="0.975063" y2="0.739411" style="stroke:rgb(246,147,147);stroke-width:0.01" />
<line x1="0.396932" y1="0.550144" x2="0.470085" y2="0.57517" style="stroke:rgb(246,147,147);stroke-width:0.01" />
<line x1="0.529891" y1="0.399457" x2="0.344595" y2="0.609459" style="stroke:rgb(246,147,147);stroke-width:0.01" />
<line x1="0.491542" y1="0.55009" x2="0.470085" y2="0.57517" style="stroke:rgb(246,147,147);stroke-width:0.01" />
<line x1="0.538947" y1="0.43078" x2="0.498574" y2="0.43495" style="stroke:rgb(246,147,147);stroke-width:0.01" />
<line x1="0.532095" y1="0.40708" x2="0.520908" y2="0.409637" style="stroke:rgb(246,147,147);stroke-width:0.01" />
<line x1="0.488134" y1="0.736818" x2="0.289367" y2="0.996051" style="stroke:rgb(246,147,147);stroke-width:0.01" />
<line x1="0.5" y1="0.5" x2="0.440016" y2="0.501315" style="stroke:rgb(246,147,147);stroke-width:0.01" />
<line x1="0.532095" y1="0.40708" x2="0.519145" y2="0.411635" style="stroke:rgb(246,147,147);stroke-width:0.01" />
<line x1="0.514894" y1="0.431256" x2="0.495881" y2="0.438001" style="stroke:rgb(246,147,147);stroke-width:0.01" />
<line x1="0.899753" y1="0.457856" x2="0.387565" y2="1.24897" style="stroke:rgb(246,147,147);stroke-width:0.01" />
<line x1="0.538947" y1="0.43078" x2="0.473758" y2="0.463075" style="stroke:rgb(246,147,147);stroke-width:0.01" />
<line x1="0.572594" y1="0.54716" x2="0.344595" y2="0.609459" style="stroke:rgb(246,147,147);stroke-width:0.01" />
<line x1="0.572594" y1="0.54716" x2="0.448657" y2="0.584975" style="stroke:rgb(246,147,147);stroke-width:0.01" />
<line x1="0.975063" y1="0.739411" x2="0.853034" y2="0.889223" style="stroke:rgb(246,147,147);stroke-width:0.01" />
<line x1="0.387565" y1="1.24897" x2="0.303739" y2="1.25328" style="stroke:rgb(246,147,147);stroke-width:0.01" />
</g>
</svg>
