<svg xmlns="http://www.w3.org/2000/svg" viewBox="-1.5 -1.5 3 3">
<g transform="scale(1, -1)">
<path d="M-0.006250 -0.356250 L0.303750 -0.186250 L0.443750 0.293750 L0.203750 0.363750 L0.133750 0.123750 L-0.176250 -0.046250 L-0.416250 0.023750 L-0.486250 -0.216250 z " fill="rgb(245,195,195)" />
<path d="M-1.432917 -3.926250 L-0.432917 -3.926250 L-0.432917 -2.926250 L-1.432917 -2.926250  z" fill="none" stroke="rgb(128,128,128)" stroke-width="0.01" />
<line x1="0.30375" y1="-0.18625" x2="0.44375" y2="0.29375" style="stroke:rgb(246,147,147);stroke-width:0.01" />
<line x1="-0.00625" y1="-0.35625" x2="0.20375" y2="0.36375" style="stroke:rgb(246,147,147);stroke-width:0.01" />
<line x1="-0.24625" y1="-0.28625" x2="-0.17625" y2="-0.04625" style="stroke:rgb(246,147,147);stroke-width:0.01" />
<line x1="-0.48625" y1="-0.21625" x2="-0.41625" y2="0.02375" style="stroke:rgb(246,147,147);stroke-width:0.01" />
<line x1="-0.00625" y1="-0.35625" x2="-0.17625" y2="-0.04625" style="stroke:rgb(246,147,147);stroke-width:0.01" />
<line x1="0.30375" y1="-0.18625" x2="0.13375" y2="0.12375" style="stroke:rgb(246,147,147);stroke-width:0.01" />
<line x1="-0.00625" y1="-0.35625" x2="0.30375" y2="-0.18625" style="stroke:rgb(246,147,147);stroke-width:0.01" />
<line x1="-0.48625" y1="-0.21625" x2="0.44375" y2="0.29375" style="stroke:rgb(246,147,147);stroke-width:0.01" />
<line x1="-0.00625" y1="-0.35625" x2="-0.48625" y2="-0.21625" style="stroke:rgb(246,147,147);stroke-width:0.01" />
<line x1="0.30375" y1="-0.18625" x2="-0.41625" y2="0.02375" style="stroke:rgb(246,147,147);stroke-width:0.01" />
<line x1="0.37375" y1="0.05375" x2="0.13375" y2="0.12375" style="stroke:rgb(246,147,147);stroke-width:0.01" />
<line x1="0.44375" y1="0.29375" x2="0.20375" y2="0.36375" style="stroke:rgb(246,147,147);stroke-width:0.01" />
</g>
</svg>
