<svg xmlns="http://www.w3.org/2000/svg" viewBox="-1.5 -1.5 3 3">
<g transform="scale(1, -1)">
<path d="M0.169181 -0.313578 L0.531250 0.031250 L0.358836 0.212284 L0.177802 0.039871 L-0.175647 0.048491 L-0.348060 0.229526 L-0.529095 0.057112 L-0.184267 -0.304957 z " fill="rgb(245,195,195)" />
<path d="M-0.440425 -0.885991 L0.559575 -0.885991 L0.559575 0.114009 L-0.440425 0.114009  z" fill="none" stroke="rgb(128,128,128)" stroke-width="0.01" />
<line x1="0.169181" y1="-0.313578" x2="0.177802" y2="0.0398707" style="stroke:rgb(246,147,147);stroke-width:0.01" />
<line x1="-0.184267" y1="-0.304957" x2="-0.175647" y2="0.0484914" style="stroke:rgb(246,147,147);stroke-width:0.01" />
<line x1="0.169181" y1="-0.313578" x2="0.53125" y2="0.03125" style="stroke:rgb(246,147,147);stroke-width:0.01" />
<line x1="-0.184267" y1="-0.304957" x2="0.358836" y2="0.212284" style="stroke:rgb(246,147,147);stroke-width:0.01" />
<line x1="-0.356681" y1="-0.123922" x2="-0.175647" y2="0.0484914" style="stroke:rgb(246,147,147);stroke-width:0.01" />
<line x1="-0.184267" y1="-0.304957" x2="-0.529095" y2="0.0571121" style="stroke:rgb(246,147,147);stroke-width:0.01" />
<line x1="-0.529095" y1="0.0571121" x2="-0.34806" y2="0.229526" style="stroke:rgb(246,147,147);stroke-width:0.01" />
<line x1="0.169181" y1="-0.313578" x2="-0.34806" y2="0.229526" style="stroke:rgb(246,147,147);stroke-width:0.01" />
<line x1="0.169181" y1="-0.313578" x2="-0.184267" y2="-0.304957" style="stroke:rgb(246,147,147);stroke-width:0.01" />
<line x1="0.350216" y1="-0.141164" x2="0.177802" y2="0.0398707" style="stroke:rgb(246,147,147);stroke-width:0.01" />
<line x1="0.53125" y1="0.03125" x2="0.358836" y2="0.212284" style="stroke:rgb(246,147,147);stroke-width:0.01" />
<line x1="0.53125" y1="0.03125" x2="-0.529095" y2="0.0571121" style="stroke:rgb(246,147,147);stroke-width:0.01" />
</g>
</svg>
