<svg xmlns="http://www.w3.org/2000/svg" viewBox="-1.5 -1.5 3 3">
<g transform="scale(1, -1)">
<path d="M0.079044 -0.347426 L0.520221 -0.112132 L0.402574 0.108456 L0.181985 -0.009191 L-0.156250 0.093750 L-0.273897 0.314338 L-0.494485 0.196691 L-0.259191 -0.244485 z " fill="rgb(245,195,195)" />
<path d="M-1.808211 -3.965074 L-0.808211 -3.965074 L-0.808211 -2.965074 L-1.808211 -2.965074  z" fill="none" stroke="rgb(128,128,128)" stroke-width="0.01" />
<line x1="0.0790441" y1="-0.347426" x2="0.181985" y2="-0.00919118" style="stroke:rgb(246,147,147);stroke-width:0.01" />
<line x1="-0.259191" y1="-0.244485" x2="-0.15625" y2="0.09375" style="stroke:rgb(246,147,147);stroke-width:0.01" />
<line x1="-0.259191" y1="-0.244485" x2="-0.494485" y2="0.196691" style="stroke:rgb(246,147,147);stroke-width:0.01" />
<line x1="0.0790441" y1="-0.347426" x2="-0.273897" y2="0.314338" style="stroke:rgb(246,147,147);stroke-width:0.01" />
<line x1="0.299632" y1="-0.229779" x2="0.181985" y2="-0.00919118" style="stroke:rgb(246,147,147);stroke-width:0.01" />
<line x1="0.520221" y1="-0.112132" x2="0.402574" y2="0.108456" style="stroke:rgb(246,147,147);stroke-width:0.01" />
<line x1="0.0790441" y1="-0.347426" x2="0.520221" y2="-0.112132" style="stroke:rgb(246,147,147);stroke-width:0.01" />
<line x1="-0.259191" y1="-0.244485" x2="0.402574" y2="0.108456" style="stroke:rgb(246,147,147);stroke-width:0.01" />
<line x1="-0.376838" y1="-0.0238971" x2="-0.15625" y2="0.09375" style="stroke:rgb(246,147,147);stroke-width:0.01" />
<line x1="-0.494485" y1="0.196691" x2="-0.273897" y2="0.314338" style="stroke:rgb(246,147,147);stroke-width:0.01" />
<line x1="0.0790441" y1="-0.347426" x2="-0.259191" y2="-0.244485" style="stroke:rgb(246,147,147);stroke-width:0.01" />
<line x1="0.520221" y1="-0.112132" x2="-0.494485" y2="0.196691" style="stroke:rgb(246,147,147);stroke-width:0.01" />
</g>
</svg>
