<svg xmlns="http://www.w3.org/2000/svg" viewBox="-1.5 -1.5 3 3">
<g transform="scale(1, -1)">
<path d="M1.887255 3.617647 L2.328431 3.852941 L2.210784 4.073529 L1.990196 3.955882 L1.651961 4.058824 L1.534314 4.279412 L1.313725 4.161765 L1.549020 3.720588 z " fill="rgb(245,195,195)" />
<path d="M0.000000 0.000000 L1.000000 0.000000 L1.000000 1.000000 L0.000000 1.000000  z" fill="none" stroke="rgb(128,128,128)" stroke-width="0.01" />
<line x1="1.88725" y1="3.61765" x2="1.9902" y2="3.95588" style="stroke:rgb(246,147,147);stroke-width:0.01" />
<line x1="1.54902" y1="3.72059" x2="1.65196" y2="4.05882" style="stroke:rgb(246,147,147);stroke-width:0.01" />
<line x1="1.54902" y1="3.72059" x2="1.31373" y2="4.16176" style="stroke:rgb(246,147,147);stroke-width:0.01" />
<line x1="1.88725" y1="3.61765" x2="1.53431" y2="4.27941" style="stroke:rgb(246,147,147);stroke-width:0.01" />
<line x1="2.10784" y1="3.73529" x2="1.9902" y2="3.95588" style="stroke:rgb(246,147,147);stroke-width:0.01" />
<line x1="2.32843" y1="3.85294" x2="2.21078" y2="4.07353" style="stroke:rgb(246,147,147);stroke-width:0.01" />
<line x1="1.88725" y1="3.61765" x2="2.32843" y2="3.85294" style="stroke:rgb(246,147,147);stroke-width:0.01" />
<line x1="1.54902" y1="3.72059" x2="2.21078" y2="4.07353" style="stroke:rgb(246,147,147);stroke-width:0.01" />
<line x1="1.43137" y1="3.94118" x2="1.65196" y2="4.05882" style="stroke:rgb(246,147,147);stroke-width:0.01" />
<line x1="1.31373" y1="4.16176" x2="1.53431" y2="4.27941" style="stroke:rgb(246,147,147);stroke-width:0.01" />
<line x1="1.88725" y1="3.61765" x2="1.54902" y2="3.72059" style="stroke:rgb(246,147,147);stroke-width:0.01" />
<line x1="2.32843" y1="3.85294" x2="1.31373" y2="4.16176" style="stroke:rgb(246,147,147);stroke-width:0.01" />
</g>
</svg>
