<svg xmlns="http://www.w3.org/2000/svg" viewBox="-1.5 -1.5 3 3">
<g transform="scale(1, -1)">
<path d="M-0.045673 -0.353365 L0.281250 -0.218750 L0.473558 0.242788 L0.242788 0.338942 L0.146635 0.108173 L-0.180288 -0.026442 L-0.411058 0.069712 L-0.507212 -0.161058 z " fill="rgb(245,195,195)" />
<path d="M-1.481571 -3.949519 L-0.481571 -3.949519 L-0.481571 -2.949519 L-1.481571 -2.949519  z" fill="none" stroke="rgb(128,128,128)" stroke-width="0.01" />
<line x1="0.28125" y1="-0.21875" x2="0.473558" y2="0.242788" style="stroke:rgb(246,147,147);stroke-width:0.01" />
<line x1="-0.0456731" y1="-0.353365" x2="0.242788" y2="0.338942" style="stroke:rgb(246,147,147);stroke-width:0.01" />
<line x1="-0.276442" y1="-0.257212" x2="-0.180288" y2="-0.0264423" style="stroke:rgb(246,147,147);stroke-width:0.01" />
<line x1="-0.507212" y1="-0.161058" x2="-0.411058" y2="0.0697115" style="stroke:rgb(246,147,147);stroke-width:0.01" />
<line x1="-0.0456731" y1="-0.353365" x2="-0.180288" y2="-0.0264423" style="stroke:rgb(246,147,147);stroke-width:0.01" />
<line x1="0.28125" y1="-0.21875" x2="0.146635" y2="0.108173" style="stroke:rgb(246,147,147);stroke-width:0.01" />
<line x1="-0.0456731" y1="-0.353365" x2="0.28125" y2="-0.21875" style="stroke:rgb(246,147,147);stroke-width:0.01" />
<line x1="-0.507212" y1="-0.161058" x2="0.473558" y2="0.242788" style="stroke:rgb(246,147,147);stroke-width:0.01" />
<line x1="-0.0456731" y1="-0.353365" x2="-0.507212" y2="-0.161058" style="stroke:rgb(246,147,147);stroke-width:0.01" />
<line x1="0.28125" y1="-0.21875" x2="-0.411058" y2="0.0697115" style="stroke:rgb(246,147,147);stroke-width:0.01" />
<line x1="0.377404" y1="0.0120192" x2="0.146635" y2="0.108173" style="stroke:rgb(246,147,147);stroke-width:0.01" />
<line x1="0.473558" y1="0.242788" x2="0.242788" y2="0.338942" style="stroke:rgb(246,147,147);stroke-width:0.01" />
</g>
</svg>
