<svg xmlns="http://www.w3.org/2000/svg" viewBox="-1.5 -1.5 3 3">
<g transform="scale(1, -1)">
<path d="M0.035714 -0.464286 L0.285714 -0.214286 L0.285714 0.035714 L0.035714 0.035714 L0.035714 0.285714 L-0.214286 0.285714 L-0.464286 0.035714 z " fill="rgb(245,195,195)" />
<path d="M-0.464286 -0.464286 L0.535714 -0.464286 L0.535714 0.535714 L-0.464286 0.535714  z" fill="none" stroke="rgb(128,128,128)" stroke-width="0.01" />
<line x1="0.0357143" y1="-0.464286" x2="0.285714" y2="-0.214286" style="stroke:rgb(246,147,147);stroke-width:0.01" />
<line x1="-0.214286" y1="-0.214286" x2="-0.214286" y2="0.285714" style="stroke:rgb(246,147,147);stroke-width:0.01" />
<line x1="0.0357143" y1="-0.464286" x2="0.0357143" y2="0.285714" style="stroke:rgb(246,147,147);stroke-width:0.01" />
<line x1="0.285714" y1="-0.214286" x2="0.285714" y2="0.0357143" style="stroke:rgb(246,147,147);stroke-width:0.01" />
<line x1="-0.464286" y1="0.0357143" x2="-0.214286" y2="0.285714" style="stroke:rgb(246,147,147);stroke-width:0.01" />
<line x1="-0.214286" y1="-0.214286" x2="0.285714" y2="-0.214286" style="stroke:rgb(246,147,147);stroke-width:0.01" />
<line x1="0.0357143" y1="-0.464286" x2="-0.464286" y2="0.0357143" style="stroke:rgb(246,147,147);stroke-width:0.01" />
<line x1="-0.464286" y1="0.0357143" x2="0.285714" y2="0.0357143" style="stroke:rgb(246,147,147);stroke-width:0.01" />
<line x1="-0.214286" y1="0.285714" x2="0.0357143" y2="0.285714" style="stroke:rgb(246,147,147);stroke-width:0.01" />
</g>
</svg>
