<svg xmlns="http://www.w3.org/2000/svg" viewBox="-1.5 -1.5 3 3">
<g transform="scale(1, -1)">
<path d="M-0.131250 -0.331250 L0.218750 -0.281250 L0.518750 0.118750 L0.318750 0.268750 L0.168750 0.068750 L-0.181250 0.018750 L-0.381250 0.168750 L-0.531250 -0.031250 z " fill="rgb(245,195,195)" />
<path d="M-1.597917 -3.981250 L-0.597917 -3.981250 L-0.597917 -2.981250 L-1.597917 -2.981250  z" fill="none" stroke="rgb(128,128,128)" stroke-width="0.01" />
<line x1="-0.13125" y1="-0.33125" x2="-0.18125" y2="0.01875" style="stroke:rgb(246,147,147);stroke-width:0.01" />
<line x1="0.21875" y1="-0.28125" x2="0.16875" y2="0.06875" style="stroke:rgb(246,147,147);stroke-width:0.01" />
<line x1="0.21875" y1="-0.28125" x2="0.51875" y2="0.11875" style="stroke:rgb(246,147,147);stroke-width:0.01" />
<line x1="-0.13125" y1="-0.33125" x2="0.31875" y2="0.26875" style="stroke:rgb(246,147,147);stroke-width:0.01" />
<line x1="-0.33125" y1="-0.18125" x2="-0.18125" y2="0.01875" style="stroke:rgb(246,147,147);stroke-width:0.01" />
<line x1="-0.53125" y1="-0.03125" x2="-0.38125" y2="0.16875" style="stroke:rgb(246,147,147);stroke-width:0.01" />
<line x1="-0.13125" y1="-0.33125" x2="-0.53125" y2="-0.03125" style="stroke:rgb(246,147,147);stroke-width:0.01" />
<line x1="0.21875" y1="-0.28125" x2="-0.38125" y2="0.16875" style="stroke:rgb(246,147,147);stroke-width:0.01" />
<line x1="-0.13125" y1="-0.33125" x2="0.21875" y2="-0.28125" style="stroke:rgb(246,147,147);stroke-width:0.01" />
<line x1="0.36875" y1="-0.08125" x2="0.16875" y2="0.06875" style="stroke:rgb(246,147,147);stroke-width:0.01" />
<line x1="0.51875" y1="0.11875" x2="0.31875" y2="0.26875" style="stroke:rgb(246,147,147);stroke-width:0.01" />
<line x1="-0.53125" y1="-0.03125" x2="0.51875" y2="0.11875" style="stroke:rgb(246,147,147);stroke-width:0.01" />
</g>
</svg>
