<svg xmlns="http://www.w3.org/2000/svg" viewBox="-1.5 -1.5 3 3">
<g transform="scale(1, -1)">
<path d="M1.466667 3.650000 L1.816667 3.700000 L2.116667 4.100000 L1.916667 4.250000 L1.766667 4.050000 L1.416667 4.000000 L1.216667 4.150000 L1.066667 3.950000 z " fill="rgb(245,195,195)" />
<path d="M0.000000 0.000000 L1.000000 0.000000 L1.000000 1.000000 L0.000000 1.000000  z" fill="none" stroke="rgb(128,128,128)" stroke-width="0.01" />
<line x1="1.46667" y1="3.65" x2="1.41667" y2="4" style="stroke:rgb(246,147,147);stroke-width:0.01" />
<line x1="1.81667" y1="3.7" x2="1.76667" y2="4.05" style="stroke:rgb(246,147,147);stroke-width:0.01" />
<line x1="1.81667" y1="3.7" x2="2.11667" y2="4.1" style="stroke:rgb(246,147,147);stroke-width:0.01" />
<line x1="1.46667" y1="3.65" x2="1.91667" y2="4.25" style="stroke:rgb(246,147,147);stroke-width:0.01" />
<line x1="1.26667" y1="3.8" x2="1.41667" y2="4" style="stroke:rgb(246,147,147);stroke-width:0.01" />
<line x1="1.06667" y1="3.95" x2="1.21667" y2="4.15" style="stroke:rgb(246,147,147);stroke-width:0.01" />
<line x1="1.46667" y1="3.65" x2="1.06667" y2="3.95" style="stroke:rgb(246,147,147);stroke-width:0.01" />
<line x1="1.81667" y1="3.7" x2="1.21667" y2="4.15" style="stroke:rgb(246,147,147);stroke-width:0.01" />
<line x1="1.46667" y1="3.65" x2="1.81667" y2="3.7" style="stroke:rgb(246,147,147);stroke-width:0.01" />
<line x1="1.96667" y1="3.9" x2="1.76667" y2="4.05" style="stroke:rgb(246,147,147);stroke-width:0.01" />
<line x1="2.11667" y1="4.1" x2="1.91667" y2="4.25" style="stroke:rgb(246,147,147);stroke-width:0.01" />
<line x1="1.06667" y1="3.95" x2="2.11667" y2="4.1" style="stroke:rgb(246,147,147);stroke-width:0.01" />
</g>
</svg>
