<svg xmlns="http://www.w3.org/2000/svg" viewBox="-1.5 -1.5 3 3">
<g transform="scale(1, -1)">
<path d="M-0.456766 -0.106377 L0.529637 -0.106377 L0.575780 -0.056596 L0.747362 -0.055992 L0.753918 -0.049871 L0.667662 0.042529 L0.392062 0.042043 L0.073790 0.385408 L-0.297958 0.040826 L-0.614972 0.040267 L-0.659460 -0.001262 L-0.610718 -0.053476 L-0.593975 -0.060716 L-0.506361 -0.060407 z " fill="rgb(245,195,195)" />
<path d="M-0.217478 -0.366377 L0.782522 -0.366377 L0.782522 0.633623 L-0.217478 0.633623  z" fill="none" stroke="rgb(128,128,128)" stroke-width="0.01" />
<line x1="0.747362" y1="-0.0559916" x2="0.753918" y2="-0.0498711" style="stroke:rgb(246,147,147);stroke-width:0.01" />
<line x1="0.529637" y1="-0.106377" x2="0.667662" y2="0.0425294" style="stroke:rgb(246,147,147);stroke-width:0.01" />
<line x1="0.479782" y1="-0.106377" x2="0.640373" y2="0.0424813" style="stroke:rgb(246,147,147);stroke-width:0.01" />
<line x1="-0.610718" y1="-0.0534759" x2="-0.65946" y2="-0.00126204" style="stroke:rgb(246,147,147);stroke-width:0.01" />
<line x1="0.317522" y1="-0.106377" x2="0.317522" y2="0.0440281" style="stroke:rgb(246,147,147);stroke-width:0.01" />
<line x1="0.317873" y1="-0.0575042" x2="0.317847" y2="-0.0502103" style="stroke:rgb(246,147,147);stroke-width:0.01" />
<line x1="0.317873" y1="-0.0575042" x2="0.317522" y2="0.0419119" style="stroke:rgb(246,147,147);stroke-width:0.01" />
<line x1="-0.456766" y1="-0.106377" x2="-0.614972" y2="0.0402673" style="stroke:rgb(246,147,147);stroke-width:0.01" />
<line x1="-0.593975" y1="-0.0607158" x2="-0.610718" y2="-0.0534759" style="stroke:rgb(246,147,147);stroke-width:0.01" />
<line x1="-0.0269775" y1="-0.106377" x2="0.317522" y2="0.0440281" style="stroke:rgb(246,147,147);stroke-width:0.01" />
<line x1="-0.456766" y1="-0.106377" x2="0.0737898" y2="0.385408" style="stroke:rgb(246,147,147);stroke-width:0.01" />
<line x1="-0.456766" y1="-0.106377" x2="0.529637" y2="-0.106377" style="stroke:rgb(246,147,147);stroke-width:0.01" />
<line x1="-0.0269775" y1="-0.106377" x2="-0.363878" y2="0.0407102" style="stroke:rgb(246,147,147);stroke-width:0.01" />
<line x1="-0.593975" y1="-0.0607158" x2="0.747362" y2="-0.0559916" style="stroke:rgb(246,147,147);stroke-width:0.01" />
<line x1="-0.610718" y1="-0.0534759" x2="0.317847" y2="-0.0502103" style="stroke:rgb(246,147,147);stroke-width:0.01" />
<line x1="-0.593975" y1="-0.0607158" x2="-0.363878" y2="0.0407102" style="stroke:rgb(246,147,147);stroke-width:0.01" />
<line x1="-0.614972" y1="0.0402673" x2="0.667662" y2="0.0425294" style="stroke:rgb(246,147,147);stroke-width:0.01" />
<line x1="-0.65946" y1="-0.00126204" x2="-0.614972" y2="0.0402673" style="stroke:rgb(246,147,147);stroke-width:0.01" />
<line x1="0.479782" y1="-0.106377" x2="0.317522" y2="0.0440281" style="stroke:rgb(246,147,147);stroke-width:0.01" />
<line x1="0.529637" y1="-0.106377" x2="0.0737898" y2="0.385408" style="stroke:rgb(246,147,147);stroke-width:0.01" />
<line x1="0.753918" y1="-0.0498711" x2="0.667662" y2="0.0425294" style="stroke:rgb(246,147,147);stroke-width:0.01" />
<line x1="0.747362" y1="-0.0559916" x2="0.640373" y2="0.0424813" style="stroke:rgb(246,147,147);stroke-width:0.01" />
</g>
</svg>
