<svg xmlns="http://www.w3.org/2000/svg" viewBox="-1.5 -1.5 3 3">
<g transform="scale(1, -1)">
<path d="M-0.239289 0.260000 L0.747114 0.260000 L0.793258 0.309781 L0.964839 0.310386 L0.971396 0.316506 L0.885139 0.408907 L0.609540 0.408421 L0.291267 0.751785 L-0.080480 0.407204 L-0.397495 0.406645 L-0.441982 0.365115 L-0.393241 0.312901 L-0.376497 0.305662 L-0.288883 0.305970 z " fill="rgb(245,195,195)" />
<path d="M0.000000 0.000000 L1.000000 0.000000 L1.000000 1.000000 L0.000000 1.000000  z" fill="none" stroke="rgb(128,128,128)" stroke-width="0.01" />
<line x1="0.964839" y1="0.310386" x2="0.971396" y2="0.316506" style="stroke:rgb(246,147,147);stroke-width:0.01" />
<line x1="0.747114" y1="0.26" x2="0.885139" y2="0.408907" style="stroke:rgb(246,147,147);stroke-width:0.01" />
<line x1="0.69726" y1="0.26" x2="0.857851" y2="0.408859" style="stroke:rgb(246,147,147);stroke-width:0.01" />
<line x1="-0.393241" y1="0.312901" x2="-0.441982" y2="0.365115" style="stroke:rgb(246,147,147);stroke-width:0.01" />
<line x1="0.535" y1="0.26" x2="0.535" y2="0.410405" style="stroke:rgb(246,147,147);stroke-width:0.01" />
<line x1="0.535351" y1="0.308873" x2="0.535325" y2="0.316167" style="stroke:rgb(246,147,147);stroke-width:0.01" />
<line x1="0.535351" y1="0.308873" x2="0.535" y2="0.408289" style="stroke:rgb(246,147,147);stroke-width:0.01" />
<line x1="-0.239289" y1="0.26" x2="-0.397495" y2="0.406645" style="stroke:rgb(246,147,147);stroke-width:0.01" />
<line x1="-0.376497" y1="0.305662" x2="-0.393241" y2="0.312901" style="stroke:rgb(246,147,147);stroke-width:0.01" />
<line x1="0.1905" y1="0.26" x2="0.535" y2="0.410405" style="stroke:rgb(246,147,147);stroke-width:0.01" />
<line x1="-0.239289" y1="0.26" x2="0.291267" y2="0.751785" style="stroke:rgb(246,147,147);stroke-width:0.01" />
<line x1="-0.239289" y1="0.26" x2="0.747114" y2="0.26" style="stroke:rgb(246,147,147);stroke-width:0.01" />
<line x1="0.1905" y1="0.26" x2="-0.1464" y2="0.407087" style="stroke:rgb(246,147,147);stroke-width:0.01" />
<line x1="-0.376497" y1="0.305662" x2="0.964839" y2="0.310386" style="stroke:rgb(246,147,147);stroke-width:0.01" />
<line x1="-0.393241" y1="0.312901" x2="0.535325" y2="0.316167" style="stroke:rgb(246,147,147);stroke-width:0.01" />
<line x1="-0.376497" y1="0.305662" x2="-0.1464" y2="0.407087" style="stroke:rgb(246,147,147);stroke-width:0.01" />
<line x1="-0.397495" y1="0.406645" x2="0.885139" y2="0.408907" style="stroke:rgb(246,147,147);stroke-width:0.01" />
<line x1="-0.441982" y1="0.365115" x2="-0.397495" y2="0.406645" style="stroke:rgb(246,147,147);stroke-width:0.01" />
<line x1="0.69726" y1="0.26" x2="0.535" y2="0.410405" style="stroke:rgb(246,147,147);stroke-width:0.01" />
<line x1="0.747114" y1="0.26" x2="0.291267" y2="0.751785" style="stroke:rgb(246,147,147);stroke-width:0.01" />
<line x1="0.971396" y1="0.316506" x2="0.885139" y2="0.408907" style="stroke:rgb(246,147,147);stroke-width:0.01" />
<line x1="0.964839" y1="0.310386" x2="0.857851" y2="0.408859" style="stroke:rgb(246,147,147);stroke-width:0.01" />
</g>
</svg>
