<svg xmlns="http://www.w3.org/2000/svg" viewBox="-1.5 -1.5 3 3">
<g transform="scale(1, -1)">
<path d="M0.286126 -0.310090 L0.389596 -0.235956 L0.083995 0.190571 L0.087765 0.193387 L-0.054429 0.383770 L-0.462355 0.085341 L-0.330698 -0.307022 z " fill="rgb(245,195,195)" />
<path d="M-0.663480 -0.305366 L0.336520 -0.305366 L0.336520 0.694634 L-0.663480 0.694634  z" fill="none" stroke="rgb(128,128,128)" stroke-width="0.01" />
<line x1="0.286126" y1="-0.31009" x2="0.389596" y2="-0.235956" style="stroke:rgb(246,147,147);stroke-width:0.01" />
<line x1="-0.330698" y1="-0.307022" x2="-0.0662692" y2="-0.104973" style="stroke:rgb(246,147,147);stroke-width:0.01" />
<line x1="-0.115995" y1="-0.142578" x2="-0.0662692" y2="-0.104973" style="stroke:rgb(246,147,147);stroke-width:0.01" />
<line x1="-0.335081" y1="-0.29396" x2="-0.0653347" y2="-0.0982398" style="stroke:rgb(246,147,147);stroke-width:0.01" />
<line x1="-0.132157" y1="-0.155318" x2="-0.116328" y2="-0.0985322" style="stroke:rgb(246,147,147);stroke-width:0.01" />
<line x1="-0.142244" y1="-0.000620329" x2="-0.107046" y2="0.112521" style="stroke:rgb(246,147,147);stroke-width:0.01" />
<line x1="-0.141292" y1="-0.00576865" x2="-0.107046" y2="0.112521" style="stroke:rgb(246,147,147);stroke-width:0.01" />
<line x1="-0.0662692" y1="-0.104973" x2="-0.0389215" y2="0.0920647" style="stroke:rgb(246,147,147);stroke-width:0.01" />
<line x1="-0.381103" y1="-0.156806" x2="0.0877654" y2="0.193387" style="stroke:rgb(246,147,147);stroke-width:0.01" />
<line x1="-0.158332" y1="-0.307879" x2="-0.148925" y2="0.00821627" style="stroke:rgb(246,147,147);stroke-width:0.01" />
<line x1="0.286126" y1="-0.31009" x2="-0.330698" y2="-0.307022" style="stroke:rgb(246,147,147);stroke-width:0.01" />
<line x1="-0.335081" y1="-0.29396" x2="-0.158677" y2="-0.290467" style="stroke:rgb(246,147,147);stroke-width:0.01" />
<line x1="-0.115625" y1="-0.142685" x2="-0.116328" y2="-0.0985322" style="stroke:rgb(246,147,147);stroke-width:0.01" />
<line x1="-0.158332" y1="-0.307879" x2="-0.158677" y2="-0.290467" style="stroke:rgb(246,147,147);stroke-width:0.01" />
<line x1="-0.395954" y1="-0.112546" x2="-0.148925" y2="0.00821627" style="stroke:rgb(246,147,147);stroke-width:0.01" />
<line x1="-0.330698" y1="-0.307022" x2="-0.462355" y2="0.0853406" style="stroke:rgb(246,147,147);stroke-width:0.01" />
<line x1="-0.115932" y1="-0.14292" x2="-0.142244" y2="-0.000620329" style="stroke:rgb(246,147,147);stroke-width:0.01" />
<line x1="-0.395954" y1="-0.112546" x2="-0.241601" y2="-0.0824139" style="stroke:rgb(246,147,147);stroke-width:0.01" />
<line x1="-0.381103" y1="-0.156806" x2="-0.132157" y2="-0.155318" style="stroke:rgb(246,147,147);stroke-width:0.01" />
<line x1="-0.462355" y1="0.0853406" x2="-0.0544295" y2="0.38377" style="stroke:rgb(246,147,147);stroke-width:0.01" />
<line x1="-0.0662692" y1="-0.104973" x2="-0.241601" y2="-0.0824139" style="stroke:rgb(246,147,147);stroke-width:0.01" />
<line x1="-0.115625" y1="-0.142685" x2="-0.115995" y2="-0.142578" style="stroke:rgb(246,147,147);stroke-width:0.01" />
<line x1="-0.115932" y1="-0.14292" x2="-0.241601" y2="-0.0824139" style="stroke:rgb(246,147,147);stroke-width:0.01" />
<line x1="-0.0662692" y1="-0.104973" x2="-0.141292" y2="-0.00576865" style="stroke:rgb(246,147,147);stroke-width:0.01" />
<line x1="-0.0653347" y1="-0.0982398" x2="-0.142244" y2="-0.000620329" style="stroke:rgb(246,147,147);stroke-width:0.01" />
<line x1="-0.462355" y1="0.0853406" x2="-0.0389215" y2="0.0920647" style="stroke:rgb(246,147,147);stroke-width:0.01" />
<line x1="0.286126" y1="-0.31009" x2="-0.148925" y2="0.00821627" style="stroke:rgb(246,147,147);stroke-width:0.01" />
<line x1="0.389596" y1="-0.235956" x2="-0.0544295" y2="0.38377" style="stroke:rgb(246,147,147);stroke-width:0.01" />
<line x1="-0.0389215" y1="0.0920647" x2="-0.107046" y2="0.112521" style="stroke:rgb(246,147,147);stroke-width:0.01" />
<line x1="0.0877654" y1="0.193387" x2="-0.0544295" y2="0.38377" style="stroke:rgb(246,147,147);stroke-width:0.01" />
</g>
</svg>
