<svg xmlns="http://www.w3.org/2000/svg" viewBox="-1.5 -1.5 3 3">
<g transform="scale(1, -1)">
<path d="M0.949606 -0.004724 L1.053075 0.069410 L0.747475 0.495936 L0.751245 0.498752 L0.609050 0.689135 L0.201125 0.390706 L0.332781 -0.001656 z " fill="rgb(245,195,195)" />
<path d="M0.000000 0.000000 L1.000000 0.000000 L1.000000 1.000000 L0.000000 1.000000  z" fill="none" stroke="rgb(128,128,128)" stroke-width="0.01" />
<line x1="0.949606" y1="-0.00472441" x2="1.05308" y2="0.0694103" style="stroke:rgb(246,147,147);stroke-width:0.01" />
<line x1="0.332781" y1="-0.00165563" x2="0.59721" y2="0.200393" style="stroke:rgb(246,147,147);stroke-width:0.01" />
<line x1="0.547484" y1="0.162788" x2="0.59721" y2="0.200393" style="stroke:rgb(246,147,147);stroke-width:0.01" />
<line x1="0.328399" y1="0.0114055" x2="0.598145" y2="0.207126" style="stroke:rgb(246,147,147);stroke-width:0.01" />
<line x1="0.531322" y1="0.150048" x2="0.547152" y2="0.206834" style="stroke:rgb(246,147,147);stroke-width:0.01" />
<line x1="0.521236" y1="0.304746" x2="0.556433" y2="0.417886" style="stroke:rgb(246,147,147);stroke-width:0.01" />
<line x1="0.522188" y1="0.299597" x2="0.556433" y2="0.417886" style="stroke:rgb(246,147,147);stroke-width:0.01" />
<line x1="0.59721" y1="0.200393" x2="0.624558" y2="0.397431" style="stroke:rgb(246,147,147);stroke-width:0.01" />
<line x1="0.282377" y1="0.14856" x2="0.751245" y2="0.498752" style="stroke:rgb(246,147,147);stroke-width:0.01" />
<line x1="0.505148" y1="-0.00251317" x2="0.514555" y2="0.313582" style="stroke:rgb(246,147,147);stroke-width:0.01" />
<line x1="0.949606" y1="-0.00472441" x2="0.332781" y2="-0.00165563" style="stroke:rgb(246,147,147);stroke-width:0.01" />
<line x1="0.328399" y1="0.0114055" x2="0.504803" y2="0.014899" style="stroke:rgb(246,147,147);stroke-width:0.01" />
<line x1="0.547855" y1="0.162681" x2="0.547152" y2="0.206834" style="stroke:rgb(246,147,147);stroke-width:0.01" />
<line x1="0.505148" y1="-0.00251317" x2="0.504803" y2="0.014899" style="stroke:rgb(246,147,147);stroke-width:0.01" />
<line x1="0.267526" y1="0.19282" x2="0.514555" y2="0.313582" style="stroke:rgb(246,147,147);stroke-width:0.01" />
<line x1="0.332781" y1="-0.00165563" x2="0.201125" y2="0.390706" style="stroke:rgb(246,147,147);stroke-width:0.01" />
<line x1="0.547548" y1="0.162446" x2="0.521236" y2="0.304746" style="stroke:rgb(246,147,147);stroke-width:0.01" />
<line x1="0.267526" y1="0.19282" x2="0.421879" y2="0.222952" style="stroke:rgb(246,147,147);stroke-width:0.01" />
<line x1="0.282377" y1="0.14856" x2="0.531322" y2="0.150048" style="stroke:rgb(246,147,147);stroke-width:0.01" />
<line x1="0.201125" y1="0.390706" x2="0.60905" y2="0.689135" style="stroke:rgb(246,147,147);stroke-width:0.01" />
<line x1="0.59721" y1="0.200393" x2="0.421879" y2="0.222952" style="stroke:rgb(246,147,147);stroke-width:0.01" />
<line x1="0.547855" y1="0.162681" x2="0.547484" y2="0.162788" style="stroke:rgb(246,147,147);stroke-width:0.01" />
<line x1="0.547548" y1="0.162446" x2="0.421879" y2="0.222952" style="stroke:rgb(246,147,147);stroke-width:0.01" />
<line x1="0.59721" y1="0.200393" x2="0.522188" y2="0.299597" style="stroke:rgb(246,147,147);stroke-width:0.01" />
<line x1="0.598145" y1="0.207126" x2="0.521236" y2="0.304746" style="stroke:rgb(246,147,147);stroke-width:0.01" />
<line x1="0.201125" y1="0.390706" x2="0.624558" y2="0.397431" style="stroke:rgb(246,147,147);stroke-width:0.01" />
<line x1="0.949606" y1="-0.00472441" x2="0.514555" y2="0.313582" style="stroke:rgb(246,147,147);stroke-width:0.01" />
<line x1="1.05308" y1="0.0694103" x2="0.60905" y2="0.689135" style="stroke:rgb(246,147,147);stroke-width:0.01" />
<line x1="0.624558" y1="0.397431" x2="0.556433" y2="0.417886" style="stroke:rgb(246,147,147);stroke-width:0.01" />
<line x1="0.751245" y1="0.498752" x2="0.60905" y2="0.689135" style="stroke:rgb(246,147,147);stroke-width:0.01" />
</g>
</svg>
