<svg xmlns="http://www.w3.org/2000/svg" viewBox="-1.5 -1.5 3 3">
<g transform="scale(1, -1)">
<path d="M0.082353 -0.070588 L0.538462 0.000000 L0.900000 0.000000 L0.966667 0.033333 L0.962063 0.065557 L1.070588 0.082353 L0.500000 0.500000 L0.000000 0.000000 L0.134021 0.000000 z M0.942857 0.057143 L0.938144 0.061856 L0.947475 0.063300 z " fill="rgb(245,195,195)" />
<path d="M0.000000 0.000000 L1.000000 0.000000 L1.000000 1.000000 L0.000000 1.000000  z" fill="none" stroke="rgb(128,128,128)" stroke-width="0.01" />
<line x1="0.9" y1="0" x2="0.96" y2="0.08" style="stroke:rgb(246,147,147);stroke-width:0.01" />
<line x1="0.9" y1="0" x2="0.966667" y2="0.0333333" style="stroke:rgb(246,147,147);stroke-width:0.01" />
<line x1="0.0823529" y1="-0.0705882" x2="1.07059" y2="0.0823529" style="stroke:rgb(246,147,147);stroke-width:0.01" />
<line x1="0.0823529" y1="-0.0705882" x2="0.5" y2="0.5" style="stroke:rgb(246,147,147);stroke-width:0.01" />
<line x1="0" y1="0" x2="0.9" y2="0" style="stroke:rgb(246,147,147);stroke-width:0.01" />
<line x1="0" y1="0" x2="0.5" y2="0.5" style="stroke:rgb(246,147,147);stroke-width:0.01" />
<line x1="0.538462" y1="0" x2="0.5" y2="0.5" style="stroke:rgb(246,147,147);stroke-width:0.01" />
<line x1="0.966667" y1="0.0333333" x2="0.96" y2="0.08" style="stroke:rgb(246,147,147);stroke-width:0.01" />
<line x1="0.966667" y1="0.0333333" x2="0.5" y2="0.5" style="stroke:rgb(246,147,147);stroke-width:0.01" />
<line x1="1.07059" y1="0.0823529" x2="0.5" y2="0.5" style="stroke:rgb(246,147,147);stroke-width:0.01" />
</g>
</svg>
