<svg xmlns="http://www.w3.org/2000/svg" viewBox="-1.5 -1.5 3 3">
<g transform="scale(1, -1)">
<path d="M-0.582866 -0.136668 L-0.126758 -0.066079 L0.234781 -0.066079 L0.301448 -0.032746 L0.296844 -0.000522 L0.405369 0.016273 L-0.165219 0.433921 L-0.665219 -0.066079 L-0.531199 -0.066079 z M0.277638 -0.008937 L0.272925 -0.004224 L0.282256 -0.002780 z " fill="rgb(245,195,195)" />
<path d="M-0.665219 -0.066079 L0.334781 -0.066079 L0.334781 0.933921 L-0.665219 0.933921  z" fill="none" stroke="rgb(128,128,128)" stroke-width="0.01" />
<line x1="0.234781" y1="-0.0660795" x2="0.294781" y2="0.0139205" style="stroke:rgb(246,147,147);stroke-width:0.01" />
<line x1="0.234781" y1="-0.0660795" x2="0.301448" y2="-0.0327461" style="stroke:rgb(246,147,147);stroke-width:0.01" />
<line x1="-0.582866" y1="-0.136668" x2="0.405369" y2="0.0162735" style="stroke:rgb(246,147,147);stroke-width:0.01" />
<line x1="-0.582866" y1="-0.136668" x2="-0.165219" y2="0.433921" style="stroke:rgb(246,147,147);stroke-width:0.01" />
<line x1="-0.665219" y1="-0.0660795" x2="0.234781" y2="-0.0660795" style="stroke:rgb(246,147,147);stroke-width:0.01" />
<line x1="-0.665219" y1="-0.0660795" x2="-0.165219" y2="0.433921" style="stroke:rgb(246,147,147);stroke-width:0.01" />
<line x1="-0.126758" y1="-0.0660795" x2="-0.165219" y2="0.433921" style="stroke:rgb(246,147,147);stroke-width:0.01" />
<line x1="0.301448" y1="-0.0327461" x2="0.294781" y2="0.0139205" style="stroke:rgb(246,147,147);stroke-width:0.01" />
<line x1="0.301448" y1="-0.0327461" x2="-0.165219" y2="0.433921" style="stroke:rgb(246,147,147);stroke-width:0.01" />
<line x1="0.405369" y1="0.0162735" x2="-0.165219" y2="0.433921" style="stroke:rgb(246,147,147);stroke-width:0.01" />
</g>
</svg>
