<svg xmlns="http://www.w3.org/2000/svg" viewBox="-1.5 -1.5 3 3">
<g transform="scale(1, -1)">
<path d="M141421356237309493248.000000 1.144737 L141421356237309493248.000000 1.144737 L141421356237309493248.000000 1.269737 L141421356237309493248.000000 1.394737 L141421356237309493248.000000 1.894737 L141421356237309493248.000000 1.894737 L141421356237309493248.000000 1.394737 L141421356237309493248.000000 1.269737 z " fill="rgb(245,195,195)" />
<path d="M0.000000 0.000000 L1.000000 0.000000 L1.000000 1.000000 L0.000000 1.000000  z" fill="none" stroke="rgb(128,128,128)" stroke-width="0.01" />
<line x1="1.41421e+20" y1="1.14474" x2="1.41421e+20" y2="1.39474" style="stroke:rgb(246,147,147);stroke-width:0.01" />
<line x1="1.41421e+20" y1="1.39474" x2="1.41421e+20" y2="1.89474" style="stroke:rgb(246,147,147);stroke-width:0.01" />
<line x1="1.41421e+20" y1="1.14474" x2="1.41421e+20" y2="1.89474" style="stroke:rgb(246,147,147);stroke-width:0.01" />
<line x1="1.41421e+20" y1="1.14474" x2="1.41421e+20" y2="1.89474" style="stroke:rgb(246,147,147);stroke-width:0.01" />
<line x1="1.41421e+20" y1="1.14474" x2="1.41421e+20" y2="1.89474" style="stroke:rgb(246,147,147);stroke-width:0.01" />
<line x1="1.41421e+20" y1="1.39474" x2="1.41421e+20" y2="1.89474" style="stroke:rgb(246,147,147);stroke-width:0.01" />
<line x1="1.41421e+20" y1="1.14474" x2="1.41421e+20" y2="1.14474" style="stroke:rgb(246,147,147);stroke-width:0.01" />
<line x1="1.41421e+20" y1="1.39474" x2="1.41421e+20" y2="1.39474" style="stroke:rgb(246,147,147);stroke-width:0.01" />
<line x1="1.41421e+20" y1="1.89474" x2="1.41421e+20" y2="1.89474" style="stroke:rgb(246,147,147);stroke-width:0.01" />
<line x1="1.41421e+20" y1="1.14474" x2="1.41421e+20" y2="1.39474" style="stroke:rgb(246,147,147);stroke-width:0.01" />
</g>
</svg>
