<svg xmlns="http://www.w3.org/2000/svg" viewBox="-1.5 -1.5 3 3">
<g transform="scale(1, -1)">
<path d="M-0.240360 -0.349945 L0.025116 -0.349945 L0.250116 0.025055 L0.126586 0.256673 L0.349801 0.375720 L0.356176 0.398660 L-0.071226 0.517433 L-0.204296 0.080202 L-0.070183 -0.171259 L-0.121313 -0.224945 L-0.143634 -0.224945 L-0.256781 -0.332704 z " fill="rgb(245,195,195)" />
<path d="M-0.049884 -0.849945 L0.950116 -0.849945 L0.950116 0.150055 L-0.049884 0.150055  z" fill="none" stroke="rgb(128,128,128)" stroke-width="0.01" />
<line x1="0.349801" y1="0.37572" x2="0.356176" y2="0.39866" style="stroke:rgb(246,147,147);stroke-width:0.01" />
<line x1="0.0751157" y1="-0.266612" x2="0.188351" y2="0.140864" style="stroke:rgb(246,147,147);stroke-width:0.01" />
<line x1="0.139717" y1="0.263675" x2="0.185935" y2="0.429992" style="stroke:rgb(246,147,147);stroke-width:0.01" />
<line x1="0.0756228" y1="0.178199" x2="0.11118" y2="0.285559" style="stroke:rgb(246,147,147);stroke-width:0.01" />
<line x1="-0.128738" y1="0.0301259" x2="0.000115699" y2="0.493805" style="stroke:rgb(246,147,147);stroke-width:0.01" />
<line x1="0.0251157" y1="-0.349945" x2="0.250116" y2="0.0250549" style="stroke:rgb(246,147,147);stroke-width:0.01" />
<line x1="-0.204296" y1="0.080202" x2="-0.0712258" y2="0.517433" style="stroke:rgb(246,147,147);stroke-width:0.01" />
<line x1="0.0251157" y1="-0.349945" x2="-0.204296" y2="0.080202" style="stroke:rgb(246,147,147);stroke-width:0.01" />
<line x1="-0.24036" y1="-0.349945" x2="-0.256781" y2="-0.332704" style="stroke:rgb(246,147,147);stroke-width:0.01" />
<line x1="0.100116" y1="-0.224945" x2="-0.152825" y2="0.24932" style="stroke:rgb(246,147,147);stroke-width:0.01" />
<line x1="-0.0123843" y1="-0.349945" x2="0.0751157" y2="-0.266612" style="stroke:rgb(246,147,147);stroke-width:0.01" />
<line x1="-0.0123843" y1="-0.349945" x2="-0.143634" y2="-0.224945" style="stroke:rgb(246,147,147);stroke-width:0.01" />
<line x1="0.250116" y1="0.0250549" x2="0.000115699" y2="0.493805" style="stroke:rgb(246,147,147);stroke-width:0.01" />
<line x1="-0.24036" y1="-0.349945" x2="0.116782" y2="0.0250549" style="stroke:rgb(246,147,147);stroke-width:0.01" />
<line x1="-0.256781" y1="-0.332704" x2="-0.143634" y2="-0.224945" style="stroke:rgb(246,147,147);stroke-width:0.01" />
<line x1="0.198582" y1="-0.0608346" x2="0.116782" y2="0.0250549" style="stroke:rgb(246,147,147);stroke-width:0.01" />
<line x1="-0.24036" y1="-0.349945" x2="0.0251157" y2="-0.349945" style="stroke:rgb(246,147,147);stroke-width:0.01" />
<line x1="-0.143634" y1="-0.224945" x2="0.100116" y2="-0.224945" style="stroke:rgb(246,147,147);stroke-width:0.01" />
<line x1="-0.204296" y1="0.080202" x2="0.349801" y2="0.37572" style="stroke:rgb(246,147,147);stroke-width:0.01" />
<line x1="0.198582" y1="-0.0608346" x2="-0.128738" y2="0.0301259" style="stroke:rgb(246,147,147);stroke-width:0.01" />
<line x1="0.116782" y1="0.0250549" x2="0.250116" y2="0.0250549" style="stroke:rgb(246,147,147);stroke-width:0.01" />
<line x1="-0.152825" y1="0.24932" x2="0.185935" y2="0.429992" style="stroke:rgb(246,147,147);stroke-width:0.01" />
<line x1="0.188351" y1="0.140864" x2="0.0756228" y2="0.178199" style="stroke:rgb(246,147,147);stroke-width:0.01" />
<line x1="0.139717" y1="0.263675" x2="-0.122069" y2="0.350378" style="stroke:rgb(246,147,147);stroke-width:0.01" />
<line x1="0.11118" y1="0.285559" x2="-0.122069" y2="0.350378" style="stroke:rgb(246,147,147);stroke-width:0.01" />
<line x1="0.349801" y1="0.37572" x2="0.185935" y2="0.429992" style="stroke:rgb(246,147,147);stroke-width:0.01" />
<line x1="0.000115699" y1="0.493805" x2="-0.0712258" y2="0.517433" style="stroke:rgb(246,147,147);stroke-width:0.01" />
<line x1="0.356176" y1="0.39866" x2="-0.0712258" y2="0.517433" style="stroke:rgb(246,147,147);stroke-width:0.01" />
</g>
</svg>
