<svg xmlns="http://www.w3.org/2000/svg" viewBox="-1.5 -1.5 3 3">
<g transform="scale(1, -1)">
<path d="M0.043047 -0.532858 L0.423814 -0.305273 L0.198971 0.092627 L-0.075613 0.168932 L-0.079227 0.242982 L-0.063833 0.259146 L-0.063833 0.415396 L-0.087643 0.415396 L-0.270730 0.223154 L-0.154350 -0.198398 L0.098565 -0.268682 L0.030831 -0.512421 z " fill="rgb(245,195,195)" />
<path d="M-0.563833 -0.584604 L0.436167 -0.584604 L0.436167 0.415396 L-0.563833 0.415396  z" fill="none" stroke="rgb(128,128,128)" stroke-width="0.01" />
<line x1="0.0430468" y1="-0.532858" x2="0.423814" y2="-0.305273" style="stroke:rgb(246,147,147);stroke-width:0.01" />
<line x1="0.357503" y1="-0.340639" x2="0.423814" y2="-0.305273" style="stroke:rgb(246,147,147);stroke-width:0.01" />
<line x1="0.0308315" y1="-0.512421" x2="0.183142" y2="-0.431189" style="stroke:rgb(246,147,147);stroke-width:0.01" />
<line x1="0.183142" y1="-0.431189" x2="0.285939" y2="-0.0612779" style="stroke:rgb(246,147,147);stroke-width:0.01" />
<line x1="0.0308315" y1="-0.512421" x2="0.198971" y2="0.0926268" style="stroke:rgb(246,147,147);stroke-width:0.01" />
<line x1="0.130108" y1="-0.277447" x2="0.337907" y2="-0.153245" style="stroke:rgb(246,147,147);stroke-width:0.01" />
<line x1="0.0945811" y1="-0.283019" x2="0.337907" y2="-0.153245" style="stroke:rgb(246,147,147);stroke-width:0.01" />
<line x1="-0.15435" y1="-0.198398" x2="-0.0623963" y2="-0.101846" style="stroke:rgb(246,147,147);stroke-width:0.01" />
<line x1="-0.244868" y1="0.129476" x2="-0.244868" y2="0.250309" style="stroke:rgb(246,147,147);stroke-width:0.01" />
<line x1="-0.0638331" y1="0.259146" x2="-0.0638331" y2="0.415396" style="stroke:rgb(246,147,147);stroke-width:0.01" />
<line x1="-0.0623963" y1="-0.101846" x2="-0.0876426" y2="0.415396" style="stroke:rgb(246,147,147);stroke-width:0.01" />
<line x1="-0.0278924" y1="-0.23354" x2="0.076887" y2="-0.177657" style="stroke:rgb(246,147,147);stroke-width:0.01" />
<line x1="-0.15435" y1="-0.198398" x2="-0.27073" y2="0.223154" style="stroke:rgb(246,147,147);stroke-width:0.01" />
<line x1="-0.231937" y1="0.082637" x2="-0.0638331" y2="0.259146" style="stroke:rgb(246,147,147);stroke-width:0.01" />
<line x1="-0.181006" y1="-0.101846" x2="0.1106" y2="0.0724478" style="stroke:rgb(246,147,147);stroke-width:0.01" />
<line x1="-0.27073" y1="0.223154" x2="-0.0876426" y2="0.415396" style="stroke:rgb(246,147,147);stroke-width:0.01" />
<line x1="0.0430468" y1="-0.532858" x2="0.0308315" y2="-0.512421" style="stroke:rgb(246,147,147);stroke-width:0.01" />
<line x1="-0.0278924" y1="-0.23354" x2="-0.244868" y2="0.129476" style="stroke:rgb(246,147,147);stroke-width:0.01" />
<line x1="0.130108" y1="-0.277447" x2="0.076887" y2="-0.177657" style="stroke:rgb(246,147,147);stroke-width:0.01" />
<line x1="0.183142" y1="-0.431189" x2="0.0945811" y2="-0.283019" style="stroke:rgb(246,147,147);stroke-width:0.01" />
<line x1="0.357503" y1="-0.340639" x2="-0.15435" y2="-0.198398" style="stroke:rgb(246,147,147);stroke-width:0.01" />
<line x1="0.357503" y1="-0.340639" x2="0.1106" y2="0.0724478" style="stroke:rgb(246,147,147);stroke-width:0.01" />
<line x1="-0.181006" y1="-0.101846" x2="-0.0623963" y2="-0.101846" style="stroke:rgb(246,147,147);stroke-width:0.01" />
<line x1="0.423814" y1="-0.305273" x2="0.198971" y2="0.0926268" style="stroke:rgb(246,147,147);stroke-width:0.01" />
<line x1="0.285939" y1="-0.0612779" x2="-0.231937" y2="0.082637" style="stroke:rgb(246,147,147);stroke-width:0.01" />
<line x1="-0.244868" y1="0.250309" x2="-0.0638331" y2="0.259146" style="stroke:rgb(246,147,147);stroke-width:0.01" />
<line x1="0.198971" y1="0.0926268" x2="-0.27073" y2="0.223154" style="stroke:rgb(246,147,147);stroke-width:0.01" />
<line x1="-0.0876426" y1="0.415396" x2="-0.0638331" y2="0.415396" style="stroke:rgb(246,147,147);stroke-width:0.01" />
</g>
</svg>
