<svg xmlns="http://www.w3.org/2000/svg" viewBox="-1.5 -1.5 3 3">
<g transform="scale(1, -1)">
<path d="M0.491667 -0.508333 L0.491667 -0.475000 L-0.475000 0.491667 L-0.508333 0.491667 z " fill="rgb(245,195,195)" />
<path d="M-0.008333 -0.008333 L0.991667 -0.008333 L0.991667 0.991667 L-0.008333 0.991667  z" fill="none" stroke="rgb(128,128,128)" stroke-width="0.01" />
<line x1="0.458333" y1="-0.475" x2="0.491667" y2="-0.475" style="stroke:rgb(246,147,147);stroke-width:0.01" />
<line x1="0.425" y1="-0.441667" x2="0.458333" y2="-0.441667" style="stroke:rgb(246,147,147);stroke-width:0.01" />
<line x1="0.391667" y1="-0.408333" x2="0.425" y2="-0.408333" style="stroke:rgb(246,147,147);stroke-width:0.01" />
<line x1="0.358333" y1="-0.375" x2="0.391667" y2="-0.375" style="stroke:rgb(246,147,147);stroke-width:0.01" />
<line x1="0.325" y1="-0.341667" x2="0.358333" y2="-0.341667" style="stroke:rgb(246,147,147);stroke-width:0.01" />
<line x1="0.291667" y1="-0.308333" x2="0.325" y2="-0.308333" style="stroke:rgb(246,147,147);stroke-width:0.01" />
<line x1="0.258333" y1="-0.275" x2="0.291667" y2="-0.275" style="stroke:rgb(246,147,147);stroke-width:0.01" />
<line x1="0.225" y1="-0.241667" x2="0.258333" y2="-0.241667" style="stroke:rgb(246,147,147);stroke-width:0.01" />
<line x1="0.191667" y1="-0.208333" x2="0.225" y2="-0.208333" style="stroke:rgb(246,147,147);stroke-width:0.01" />
<line x1="0.158333" y1="-0.175" x2="0.191667" y2="-0.175" style="stroke:rgb(246,147,147);stroke-width:0.01" />
<line x1="0.125" y1="-0.141667" x2="0.158333" y2="-0.141667" style="stroke:rgb(246,147,147);stroke-width:0.01" />
<line x1="0.0916667" y1="-0.108333" x2="0.125" y2="-0.108333" style="stroke:rgb(246,147,147);stroke-width:0.01" />
<line x1="0.0583333" y1="-0.075" x2="0.0916667" y2="-0.075" style="stroke:rgb(246,147,147);stroke-width:0.01" />
<line x1="0.025" y1="-0.0416667" x2="0.0583333" y2="-0.0416667" style="stroke:rgb(246,147,147);stroke-width:0.01" />
<line x1="-0.475" y1="0.458333" x2="-0.475" y2="0.491667" style="stroke:rgb(246,147,147);stroke-width:0.01" />
<line x1="-0.441667" y1="0.425" x2="-0.441667" y2="0.458333" style="stroke:rgb(246,147,147);stroke-width:0.01" />
<line x1="-0.408333" y1="0.391667" x2="-0.408333" y2="0.425" style="stroke:rgb(246,147,147);stroke-width:0.01" />
<line x1="-0.375" y1="0.358333" x2="-0.375" y2="0.391667" style="stroke:rgb(246,147,147);stroke-width:0.01" />
<line x1="-0.341667" y1="0.325" x2="-0.341667" y2="0.358333" style="stroke:rgb(246,147,147);stroke-width:0.01" />
<line x1="-0.308333" y1="0.291667" x2="-0.308333" y2="0.325" style="stroke:rgb(246,147,147);stroke-width:0.01" />
<line x1="-0.275" y1="0.258333" x2="-0.275" y2="0.291667" style="stroke:rgb(246,147,147);stroke-width:0.01" />
<line x1="-0.241667" y1="0.225" x2="-0.241667" y2="0.258333" style="stroke:rgb(246,147,147);stroke-width:0.01" />
<line x1="-0.208333" y1="0.191667" x2="-0.208333" y2="0.225" style="stroke:rgb(246,147,147);stroke-width:0.01" />
<line x1="-0.175" y1="0.158333" x2="-0.175" y2="0.191667" style="stroke:rgb(246,147,147);stroke-width:0.01" />
<line x1="-0.141667" y1="0.125" x2="-0.141667" y2="0.158333" style="stroke:rgb(246,147,147);stroke-width:0.01" />
<line x1="-0.108333" y1="0.0916667" x2="-0.108333" y2="0.125" style="stroke:rgb(246,147,147);stroke-width:0.01" />
<line x1="-0.075" y1="0.0583333" x2="-0.075" y2="0.0916667" style="stroke:rgb(246,147,147);stroke-width:0.01" />
<line x1="-0.0416667" y1="0.025" x2="-0.0416667" y2="0.0583333" style="stroke:rgb(246,147,147);stroke-width:0.01" />
<line x1="-0.00833333" y1="-0.00833333" x2="0.025" y2="-0.00833333" style="stroke:rgb(246,147,147);stroke-width:0.01" />
<line x1="-0.00833333" y1="-0.00833333" x2="-0.00833333" y2="0.025" style="stroke:rgb(246,147,147);stroke-width:0.01" />
<line x1="0.491667" y1="-0.508333" x2="-0.508333" y2="0.491667" style="stroke:rgb(246,147,147);stroke-width:0.01" />
<line x1="0.025" y1="-0.0416667" x2="0.025" y2="-0.00833333" style="stroke:rgb(246,147,147);stroke-width:0.01" />
<line x1="0.0583333" y1="-0.075" x2="0.0583333" y2="-0.0416667" style="stroke:rgb(246,147,147);stroke-width:0.01" />
<line x1="0.0916667" y1="-0.108333" x2="0.0916667" y2="-0.075" style="stroke:rgb(246,147,147);stroke-width:0.01" />
<line x1="0.125" y1="-0.141667" x2="0.125" y2="-0.108333" style="stroke:rgb(246,147,147);stroke-width:0.01" />
<line x1="0.158333" y1="-0.175" x2="0.158333" y2="-0.141667" style="stroke:rgb(246,147,147);stroke-width:0.01" />
<line x1="0.191667" y1="-0.208333" x2="0.191667" y2="-0.175" style="stroke:rgb(246,147,147);stroke-width:0.01" />
<line x1="0.225" y1="-0.241667" x2="0.225" y2="-0.208333" style="stroke:rgb(246,147,147);stroke-width:0.01" />
<line x1="0.258333" y1="-0.275" x2="0.258333" y2="-0.241667" style="stroke:rgb(246,147,147);stroke-width:0.01" />
<line x1="0.291667" y1="-0.308333" x2="0.291667" y2="-0.275" style="stroke:rgb(246,147,147);stroke-width:0.01" />
<line x1="0.325" y1="-0.341667" x2="0.325" y2="-0.308333" style="stroke:rgb(246,147,147);stroke-width:0.01" />
<line x1="0.358333" y1="-0.375" x2="0.358333" y2="-0.341667" style="stroke:rgb(246,147,147);stroke-width:0.01" />
<line x1="0.391667" y1="-0.408333" x2="0.391667" y2="-0.375" style="stroke:rgb(246,147,147);stroke-width:0.01" />
<line x1="0.425" y1="-0.441667" x2="0.425" y2="-0.408333" style="stroke:rgb(246,147,147);stroke-width:0.01" />
<line x1="0.458333" y1="-0.475" x2="0.458333" y2="-0.441667" style="stroke:rgb(246,147,147);stroke-width:0.01" />
<line x1="0.491667" y1="-0.508333" x2="0.491667" y2="-0.475" style="stroke:rgb(246,147,147);stroke-width:0.01" />
<line x1="0.491667" y1="-0.475" x2="-0.475" y2="0.491667" style="stroke:rgb(246,147,147);stroke-width:0.01" />
<line x1="-0.0416667" y1="0.025" x2="-0.00833333" y2="0.025" style="stroke:rgb(246,147,147);stroke-width:0.01" />
<line x1="-0.075" y1="0.0583333" x2="-0.0416667" y2="0.0583333" style="stroke:rgb(246,147,147);stroke-width:0.01" />
<line x1="-0.108333" y1="0.0916667" x2="-0.075" y2="0.0916667" style="stroke:rgb(246,147,147);stroke-width:0.01" />
<line x1="-0.141667" y1="0.125" x2="-0.108333" y2="0.125" style="stroke:rgb(246,147,147);stroke-width:0.01" />
<line x1="-0.175" y1="0.158333" x2="-0.141667" y2="0.158333" style="stroke:rgb(246,147,147);stroke-width:0.01" />
<line x1="-0.208333" y1="0.191667" x2="-0.175" y2="0.191667" style="stroke:rgb(246,147,147);stroke-width:0.01" />
<line x1="-0.241667" y1="0.225" x2="-0.208333" y2="0.225" style="stroke:rgb(246,147,147);stroke-width:0.01" />
<line x1="-0.275" y1="0.258333" x2="-0.241667" y2="0.258333" style="stroke:rgb(246,147,147);stroke-width:0.01" />
<line x1="-0.308333" y1="0.291667" x2="-0.275" y2="0.291667" style="stroke:rgb(246,147,147);stroke-width:0.01" />
<line x1="-0.341667" y1="0.325" x2="-0.308333" y2="0.325" style="stroke:rgb(246,147,147);stroke-width:0.01" />
<line x1="-0.375" y1="0.358333" x2="-0.341667" y2="0.358333" style="stroke:rgb(246,147,147);stroke-width:0.01" />
<line x1="-0.408333" y1="0.391667" x2="-0.375" y2="0.391667" style="stroke:rgb(246,147,147);stroke-width:0.01" />
<line x1="-0.441667" y1="0.425" x2="-0.408333" y2="0.425" style="stroke:rgb(246,147,147);stroke-width:0.01" />
<line x1="-0.475" y1="0.458333" x2="-0.441667" y2="0.458333" style="stroke:rgb(246,147,147);stroke-width:0.01" />
<line x1="-0.508333" y1="0.491667" x2="-0.475" y2="0.491667" style="stroke:rgb(246,147,147);stroke-width:0.01" />
</g>
</svg>
