<svg xmlns="http://www.w3.org/2000/svg" viewBox="-1.5 -1.5 3 3">
<g transform="scale(1, -1)">
<path d="M0.196359 0.741738 L0.313745 0.774915 L0.652969 1.097544 L0.723077 1.215385 L0.481778 1.006990 L0.334000 0.928822 L0.180117 0.993753 L0.189237 0.852247 L0.149127 0.831031 z " fill="rgb(245,195,195)" />
<path d="M0.000000 0.000000 L1.000000 0.000000 L1.000000 1.000000 L0.000000 1.000000  z" fill="none" stroke="rgb(128,128,128)" stroke-width="0.01" />
<line x1="0.313745" y1="0.774915" x2="0.355184" y2="0.897659" style="stroke:rgb(246,147,147);stroke-width:0.01" />
<line x1="0.652969" y1="1.09754" x2="0.723077" y2="1.21538" style="stroke:rgb(246,147,147);stroke-width:0.01" />
<line x1="0.328879" y1="0.789309" x2="0.384615" y2="0.923077" style="stroke:rgb(246,147,147);stroke-width:0.01" />
<line x1="0.196359" y1="0.741738" x2="0.180117" y2="0.993753" style="stroke:rgb(246,147,147);stroke-width:0.01" />
<line x1="0.371225" y1="0.90057" x2="0.384615" y2="0.923077" style="stroke:rgb(246,147,147);stroke-width:0.01" />
<line x1="0.546116" y1="0.995918" x2="0.723077" y2="1.21538" style="stroke:rgb(246,147,147);stroke-width:0.01" />
<line x1="0.463462" y1="0.917308" x2="0.723077" y2="1.21538" style="stroke:rgb(246,147,147);stroke-width:0.01" />
<line x1="0.432062" y1="0.887444" x2="0.410843" y2="0.945728" style="stroke:rgb(246,147,147);stroke-width:0.01" />
<line x1="0.196359" y1="0.741738" x2="0.149127" y2="0.831031" style="stroke:rgb(246,147,147);stroke-width:0.01" />
<line x1="0.313745" y1="0.774915" x2="0.652969" y2="1.09754" style="stroke:rgb(246,147,147);stroke-width:0.01" />
<line x1="0.355184" y1="0.897659" x2="0.723077" y2="1.21538" style="stroke:rgb(246,147,147);stroke-width:0.01" />
<line x1="0.395646" y1="0.85281" x2="0.36465" y2="0.905834" style="stroke:rgb(246,147,147);stroke-width:0.01" />
<line x1="0.196359" y1="0.741738" x2="0.546116" y2="0.995918" style="stroke:rgb(246,147,147);stroke-width:0.01" />
<line x1="0.149127" y1="0.831031" x2="0.652969" y2="1.09754" style="stroke:rgb(246,147,147);stroke-width:0.01" />
<line x1="0.196359" y1="0.741738" x2="0.328879" y2="0.789309" style="stroke:rgb(246,147,147);stroke-width:0.01" />
<line x1="0.196359" y1="0.741738" x2="0.313745" y2="0.774915" style="stroke:rgb(246,147,147);stroke-width:0.01" />
<line x1="0.371225" y1="0.90057" x2="0.36465" y2="0.905834" style="stroke:rgb(246,147,147);stroke-width:0.01" />
<line x1="0.395646" y1="0.85281" x2="0.180117" y2="0.993753" style="stroke:rgb(246,147,147);stroke-width:0.01" />
<line x1="0.355184" y1="0.897659" x2="0.463462" y2="0.917308" style="stroke:rgb(246,147,147);stroke-width:0.01" />
<line x1="0.463462" y1="0.917308" x2="0.410843" y2="0.945728" style="stroke:rgb(246,147,147);stroke-width:0.01" />
<line x1="0.432062" y1="0.887444" x2="0.180117" y2="0.993753" style="stroke:rgb(246,147,147);stroke-width:0.01" />
</g>
</svg>
