<svg xmlns="http://www.w3.org/2000/svg" viewBox="-1.5 -1.5 3 3">
<g transform="scale(1, -1)">
<path d="M-0.161464 -0.196309 L-0.044079 -0.163132 L0.295146 0.159496 L0.365254 0.277337 L0.123955 0.068943 L-0.023823 -0.009226 L-0.177706 0.055706 L-0.168586 -0.085800 L-0.208696 -0.107017 z " fill="rgb(245,195,195)" />
<path d="M-0.357823 -0.938047 L0.642177 -0.938047 L0.642177 0.061953 L-0.357823 0.061953  z" fill="none" stroke="rgb(128,128,128)" stroke-width="0.01" />
<line x1="-0.0440787" y1="-0.163132" x2="-0.00263932" y2="-0.0403883" style="stroke:rgb(246,147,147);stroke-width:0.01" />
<line x1="0.295146" y1="0.159496" x2="0.365254" y2="0.277337" style="stroke:rgb(246,147,147);stroke-width:0.01" />
<line x1="-0.0289443" y1="-0.148738" x2="0.0267921" y2="-0.0149702" style="stroke:rgb(246,147,147);stroke-width:0.01" />
<line x1="-0.161464" y1="-0.196309" x2="-0.177706" y2="0.055706" style="stroke:rgb(246,147,147);stroke-width:0.01" />
<line x1="0.0134018" y1="-0.0374773" x2="0.0267921" y2="-0.0149702" style="stroke:rgb(246,147,147);stroke-width:0.01" />
<line x1="0.188293" y1="0.0578711" x2="0.365254" y2="0.277337" style="stroke:rgb(246,147,147);stroke-width:0.01" />
<line x1="0.105638" y1="-0.0207394" x2="0.365254" y2="0.277337" style="stroke:rgb(246,147,147);stroke-width:0.01" />
<line x1="0.0742386" y1="-0.0506029" x2="0.0530198" y2="0.00768094" style="stroke:rgb(246,147,147);stroke-width:0.01" />
<line x1="-0.161464" y1="-0.196309" x2="-0.208696" y2="-0.107017" style="stroke:rgb(246,147,147);stroke-width:0.01" />
<line x1="-0.0440787" y1="-0.163132" x2="0.295146" y2="0.159496" style="stroke:rgb(246,147,147);stroke-width:0.01" />
<line x1="-0.00263932" y1="-0.0403883" x2="0.365254" y2="0.277337" style="stroke:rgb(246,147,147);stroke-width:0.01" />
<line x1="0.0378227" y1="-0.0852371" x2="0.0068264" y2="-0.0322133" style="stroke:rgb(246,147,147);stroke-width:0.01" />
<line x1="-0.161464" y1="-0.196309" x2="0.188293" y2="0.0578711" style="stroke:rgb(246,147,147);stroke-width:0.01" />
<line x1="-0.208696" y1="-0.107017" x2="0.295146" y2="0.159496" style="stroke:rgb(246,147,147);stroke-width:0.01" />
<line x1="-0.161464" y1="-0.196309" x2="-0.0289443" y2="-0.148738" style="stroke:rgb(246,147,147);stroke-width:0.01" />
<line x1="-0.161464" y1="-0.196309" x2="-0.0440787" y2="-0.163132" style="stroke:rgb(246,147,147);stroke-width:0.01" />
<line x1="0.0134018" y1="-0.0374773" x2="0.0068264" y2="-0.0322133" style="stroke:rgb(246,147,147);stroke-width:0.01" />
<line x1="0.0378227" y1="-0.0852371" x2="-0.177706" y2="0.055706" style="stroke:rgb(246,147,147);stroke-width:0.01" />
<line x1="-0.00263932" y1="-0.0403883" x2="0.105638" y2="-0.0207394" style="stroke:rgb(246,147,147);stroke-width:0.01" />
<line x1="0.105638" y1="-0.0207394" x2="0.0530198" y2="0.00768094" style="stroke:rgb(246,147,147);stroke-width:0.01" />
<line x1="0.0742386" y1="-0.0506029" x2="-0.177706" y2="0.055706" style="stroke:rgb(246,147,147);stroke-width:0.01" />
</g>
</svg>
