<svg xmlns="http://www.w3.org/2000/svg" viewBox="-1.5 -1.5 3 3">
<g transform="scale(1, -1)">
<path d="M0.503309 -0.742157 L0.546560 -0.047924 L0.304654 0.037722 L0.128928 0.210556 L-0.183509 0.210556 L-0.433755 0.299155 L-0.444752 0.283697 L-0.435144 0.276862 L-0.439275 0.210556 L0.452984 -0.739022 z " fill="rgb(245,195,195)" />
<path d="M-0.547016 -0.789444 L0.452984 -0.789444 L0.452984 0.210556 L-0.547016 0.210556  z" fill="none" stroke="rgb(128,128,128)" stroke-width="0.01" />
<line x1="0.370094" y1="-0.295981" x2="0.54656" y2="-0.0479243" style="stroke:rgb(246,147,147);stroke-width:0.01" />
<line x1="0.503309" y1="-0.742157" x2="0.54656" y2="-0.0479243" style="stroke:rgb(246,147,147);stroke-width:0.01" />
<line x1="-0.439275" y1="0.210556" x2="-0.433755" y2="0.299155" style="stroke:rgb(246,147,147);stroke-width:0.01" />
<line x1="0.452984" y1="-0.739022" x2="0.452984" y2="-0.108166" style="stroke:rgb(246,147,147);stroke-width:0.01" />
<line x1="0.134306" y1="-0.113455" x2="0.128928" y2="0.210556" style="stroke:rgb(246,147,147);stroke-width:0.01" />
<line x1="0.503309" y1="-0.742157" x2="0.452984" y2="-0.739022" style="stroke:rgb(246,147,147);stroke-width:0.01" />
<line x1="-0.444752" y1="0.283697" x2="-0.433755" y2="0.299155" style="stroke:rgb(246,147,147);stroke-width:0.01" />
<line x1="0.452984" y1="-0.739022" x2="-0.439275" y2="0.210556" style="stroke:rgb(246,147,147);stroke-width:0.01" />
<line x1="0.134306" y1="-0.113455" x2="0.452984" y2="-0.108166" style="stroke:rgb(246,147,147);stroke-width:0.01" />
<line x1="0.370094" y1="-0.295981" x2="-0.444752" y2="0.283697" style="stroke:rgb(246,147,147);stroke-width:0.01" />
<line x1="0.452984" y1="-0.108166" x2="0.128928" y2="0.210556" style="stroke:rgb(246,147,147);stroke-width:0.01" />
<line x1="-0.439275" y1="0.210556" x2="0.128928" y2="0.210556" style="stroke:rgb(246,147,147);stroke-width:0.01" />
<line x1="0.54656" y1="-0.0479243" x2="-0.433755" y2="0.299155" style="stroke:rgb(246,147,147);stroke-width:0.01" />
</g>
</svg>
