<svg xmlns="http://www.w3.org/2000/svg" viewBox="-1.5 -1.5 3 3">
<g transform="scale(1, -1)">
<path d="M0.349412 -0.357647 L0.174706 -0.178824 L0.353529 -0.004118 L0.357647 0.349412 L0.178824 0.174706 L0.004118 0.353529 L-0.349412 0.357647 L-0.174706 0.178824 L-0.353529 0.004118 L-0.357647 -0.349412 L-0.178824 -0.174706 L-0.004118 -0.353529 z " fill="rgb(245,195,195)" />
<path d="M-0.008235 -0.707059 L0.991765 -0.707059 L0.991765 0.292941 L-0.008235 0.292941  z" fill="none" stroke="rgb(128,128,128)" stroke-width="0.01" />
<line x1="0.353529" y1="-0.00411765" x2="0.357647" y2="0.349412" style="stroke:rgb(246,147,147);stroke-width:0.01" />
<line x1="-0.00411765" y1="-0.353529" x2="0.00411765" y2="0.353529" style="stroke:rgb(246,147,147);stroke-width:0.01" />
<line x1="-0.357647" y1="-0.349412" x2="-0.353529" y2="0.00411765" style="stroke:rgb(246,147,147);stroke-width:0.01" />
<line x1="-0.00411765" y1="-0.353529" x2="-0.353529" y2="0.00411765" style="stroke:rgb(246,147,147);stroke-width:0.01" />
<line x1="-0.00411765" y1="-0.353529" x2="0.353529" y2="-0.00411765" style="stroke:rgb(246,147,147);stroke-width:0.01" />
<line x1="0.349412" y1="-0.357647" x2="-0.349412" y2="0.357647" style="stroke:rgb(246,147,147);stroke-width:0.01" />
<line x1="0.349412" y1="-0.357647" x2="-0.00411765" y2="-0.353529" style="stroke:rgb(246,147,147);stroke-width:0.01" />
<line x1="-0.357647" y1="-0.349412" x2="0.357647" y2="0.349412" style="stroke:rgb(246,147,147);stroke-width:0.01" />
<line x1="0.353529" y1="-0.00411765" x2="0.00411765" y2="0.353529" style="stroke:rgb(246,147,147);stroke-width:0.01" />
<line x1="-0.353529" y1="0.00411765" x2="0.00411765" y2="0.353529" style="stroke:rgb(246,147,147);stroke-width:0.01" />
<line x1="0.353529" y1="-0.00411765" x2="-0.353529" y2="0.00411765" style="stroke:rgb(246,147,147);stroke-width:0.01" />
<line x1="0.00411765" y1="0.353529" x2="-0.349412" y2="0.357647" style="stroke:rgb(246,147,147);stroke-width:0.01" />
</g>
</svg>
