<svg xmlns="http://www.w3.org/2000/svg" viewBox="-1.5 -1.5 3 3">
<g transform="scale(1, -1)">
<path d="M-0.258145 -0.338881 L-0.216478 -0.338881 L-0.043145 -0.218881 L0.399389 0.404270 L0.431855 0.831119 L0.221022 0.270494 L-0.058145 0.061119 L0.004445 -0.022334 L-0.078145 -0.098881 L-0.068145 -0.133166 L-0.143145 -0.143881 L-0.191364 -0.272100 z " fill="rgb(245,195,195)" />
<path d="M0.506855 -0.943881 L1.506855 -0.943881 L1.506855 0.056119 L0.506855 0.056119  z" fill="none" stroke="rgb(128,128,128)" stroke-width="0.01" />
<line x1="-0.0431449" y1="-0.218881" x2="-0.0781449" y2="-0.0988806" style="stroke:rgb(246,147,147);stroke-width:0.01" />
<line x1="0.0101168" y1="-0.143881" x2="-0.00802942" y2="-0.0918845" style="stroke:rgb(246,147,147);stroke-width:0.01" />
<line x1="0.0274209" y1="-0.119514" x2="0.00952831" y2="-0.0283864" style="stroke:rgb(246,147,147);stroke-width:0.01" />
<line x1="0.399389" y1="0.40427" x2="0.431855" y2="0.831119" style="stroke:rgb(246,147,147);stroke-width:0.01" />
<line x1="0.338711" y1="0.318826" x2="0.431855" y2="0.831119" style="stroke:rgb(246,147,147);stroke-width:0.01" />
<line x1="0.0516946" y1="-0.0853333" x2="-0.0581449" y2="0.0611194" style="stroke:rgb(246,147,147);stroke-width:0.01" />
<line x1="0.0167347" y1="-0.134562" x2="-0.0107306" y2="-0.101653" style="stroke:rgb(246,147,147);stroke-width:0.01" />
<line x1="0.309312" y1="0.277428" x2="0.431855" y2="0.831119" style="stroke:rgb(246,147,147);stroke-width:0.01" />
<line x1="-0.0431449" y1="-0.218881" x2="0.00952831" y2="-0.0283864" style="stroke:rgb(246,147,147);stroke-width:0.01" />
<line x1="-0.0431449" y1="-0.218881" x2="-0.143145" y2="-0.143881" style="stroke:rgb(246,147,147);stroke-width:0.01" />
<line x1="0.12718" y1="0.0209612" x2="0.431855" y2="0.831119" style="stroke:rgb(246,147,147);stroke-width:0.01" />
<line x1="0.273571" y1="0.2271" x2="0.305369" y2="0.299929" style="stroke:rgb(246,147,147);stroke-width:0.01" />
<line x1="-0.216478" y1="-0.338881" x2="-0.143145" y2="-0.143881" style="stroke:rgb(246,147,147);stroke-width:0.01" />
<line x1="0.189618" y1="0.108882" x2="0.254653" y2="0.243646" style="stroke:rgb(246,147,147);stroke-width:0.01" />
<line x1="-0.0431449" y1="-0.218881" x2="0.399389" y2="0.40427" style="stroke:rgb(246,147,147);stroke-width:0.01" />
<line x1="0.0167347" y1="-0.134562" x2="-0.0781449" y2="-0.0988806" style="stroke:rgb(246,147,147);stroke-width:0.01" />
<line x1="-0.258145" y1="-0.338881" x2="-0.216478" y2="-0.338881" style="stroke:rgb(246,147,147);stroke-width:0.01" />
<line x1="0.0516946" y1="-0.0853333" x2="-0.00153973" y2="-0.0684143" style="stroke:rgb(246,147,147);stroke-width:0.01" />
<line x1="0.00952831" y1="-0.0283864" x2="0.399389" y2="0.40427" style="stroke:rgb(246,147,147);stroke-width:0.01" />
<line x1="-0.258145" y1="-0.338881" x2="0.189618" y2="0.108882" style="stroke:rgb(246,147,147);stroke-width:0.01" />
<line x1="0.0183075" y1="-0.0730994" x2="-0.00153973" y2="-0.0684143" style="stroke:rgb(246,147,147);stroke-width:0.01" />
<line x1="-0.0781449" y1="-0.0988806" x2="0.273571" y2="0.2271" style="stroke:rgb(246,147,147);stroke-width:0.01" />
<line x1="-0.216478" y1="-0.338881" x2="-0.0431449" y2="-0.218881" style="stroke:rgb(246,147,147);stroke-width:0.01" />
<line x1="-0.00802942" y1="-0.0918845" x2="0.12718" y2="0.0209612" style="stroke:rgb(246,147,147);stroke-width:0.01" />
<line x1="-0.143145" y1="-0.143881" x2="0.0101168" y2="-0.143881" style="stroke:rgb(246,147,147);stroke-width:0.01" />
<line x1="-0.00802942" y1="-0.0918845" x2="0.0183075" y2="-0.0730994" style="stroke:rgb(246,147,147);stroke-width:0.01" />
<line x1="-0.143145" y1="-0.143881" x2="0.0274209" y2="-0.119514" style="stroke:rgb(246,147,147);stroke-width:0.01" />
<line x1="-0.00802942" y1="-0.0918845" x2="0.0216923" y2="-0.0903381" style="stroke:rgb(246,147,147);stroke-width:0.01" />
<line x1="-0.0107306" y1="-0.101653" x2="0.0216923" y2="-0.0903381" style="stroke:rgb(246,147,147);stroke-width:0.01" />
<line x1="-0.0581449" y1="0.0611194" x2="0.399389" y2="0.40427" style="stroke:rgb(246,147,147);stroke-width:0.01" />
<line x1="0.254653" y1="0.243646" x2="0.309312" y2="0.277428" style="stroke:rgb(246,147,147);stroke-width:0.01" />
<line x1="0.305369" y1="0.299929" x2="0.338711" y2="0.318826" style="stroke:rgb(246,147,147);stroke-width:0.01" />
</g>
</svg>
