<svg xmlns="http://www.w3.org/2000/svg" viewBox="-1.5 -1.5 3 3">
<g transform="scale(1, -1)">
<path d="M0.119870 -0.182945 L0.211676 -0.106440 L0.242692 -0.155478 L0.271050 -0.165420 L0.452218 0.020711 L0.422967 0.069635 L0.339987 0.083760 L0.187368 0.169497 L0.148953 0.154853 L0.164680 0.113599 L0.061384 0.131181 L-0.088861 0.012237 L-0.277805 0.188916 L-0.282874 0.189779 L-0.403804 0.174682 L-0.372567 -0.075551 L-0.298285 -0.143202 L-0.298905 -0.154048 L-0.299872 -0.154813 L-0.299872 -0.170952 z " fill="rgb(245,195,195)" />
<path d="M-0.299872 -0.658286 L0.700128 -0.658286 L0.700128 0.341714 L-0.299872 0.341714  z" fill="none" stroke="rgb(128,128,128)" stroke-width="0.01" />
<line x1="0.316027" y1="-0.119211" x2="0.379107" y2="0.077101" style="stroke:rgb(246,147,147);stroke-width:0.01" />
<line x1="0.24902" y1="0.00957149" x2="0.269344" y2="0.095784" style="stroke:rgb(246,147,147);stroke-width:0.01" />
<line x1="0.242692" y1="-0.155478" x2="0.269344" y2="0.095784" style="stroke:rgb(246,147,147);stroke-width:0.01" />
<line x1="0.27105" y1="-0.16542" x2="0.452218" y2="0.0207109" style="stroke:rgb(246,147,147);stroke-width:0.01" />
<line x1="0.0495294" y1="-0.180935" x2="0.0554181" y2="-0.122677" style="stroke:rgb(246,147,147);stroke-width:0.01" />
<line x1="-0.0707208" y1="-0.177499" x2="-0.0332912" y2="0.0550168" style="stroke:rgb(246,147,147);stroke-width:0.01" />
<line x1="0.378586" y1="0.0573068" x2="0.379107" y2="0.077101" style="stroke:rgb(246,147,147);stroke-width:0.01" />
<line x1="-0.299872" y1="-0.170952" x2="-0.299872" y2="-0.154813" style="stroke:rgb(246,147,147);stroke-width:0.01" />
<line x1="-0.372567" y1="-0.0755508" x2="-0.403804" y2="0.174682" style="stroke:rgb(246,147,147);stroke-width:0.01" />
<line x1="-0.299872" y1="-0.170952" x2="-0.279277" y2="0.189166" style="stroke:rgb(246,147,147);stroke-width:0.01" />
<line x1="0.244692" y1="-0.0789269" x2="0.378586" y2="0.0573068" style="stroke:rgb(246,147,147);stroke-width:0.01" />
<line x1="0.0495294" y1="-0.180935" x2="0.0397781" y2="0.0425219" style="stroke:rgb(246,147,147);stroke-width:0.01" />
<line x1="-0.0707208" y1="-0.177499" x2="-0.073849" y2="-0.147082" style="stroke:rgb(246,147,147);stroke-width:0.01" />
<line x1="0.0219044" y1="-0.128354" x2="0.0179013" y2="-0.0875952" style="stroke:rgb(246,147,147);stroke-width:0.01" />
<line x1="-0.279573" y1="0.188137" x2="-0.279277" y2="0.189166" style="stroke:rgb(246,147,147);stroke-width:0.01" />
<line x1="0.11987" y1="-0.182945" x2="0.422967" y2="0.0696355" style="stroke:rgb(246,147,147);stroke-width:0.01" />
<line x1="0.245362" y1="-0.144043" x2="0.187368" y2="0.169497" style="stroke:rgb(246,147,147);stroke-width:0.01" />
<line x1="0.0923068" y1="-0.182157" x2="0.244692" y2="-0.0789269" style="stroke:rgb(246,147,147);stroke-width:0.01" />
<line x1="-0.0321231" y1="-0.178602" x2="0.24902" y2="0.00957149" style="stroke:rgb(246,147,147);stroke-width:0.01" />
<line x1="0.27105" y1="-0.16542" x2="0.148953" y2="0.154853" style="stroke:rgb(246,147,147);stroke-width:0.01" />
<line x1="-0.266777" y1="-0.171898" x2="0.0989202" y2="0.124792" style="stroke:rgb(246,147,147);stroke-width:0.01" />
<line x1="-0.266777" y1="-0.171898" x2="-0.372567" y2="-0.0755508" style="stroke:rgb(246,147,147);stroke-width:0.01" />
<line x1="0.245362" y1="-0.144043" x2="0.316027" y2="-0.119211" style="stroke:rgb(246,147,147);stroke-width:0.01" />
<line x1="-0.299872" y1="-0.154813" x2="0.0613844" y2="0.131181" style="stroke:rgb(246,147,147);stroke-width:0.01" />
<line x1="0.242692" y1="-0.155478" x2="0.0613844" y2="0.131181" style="stroke:rgb(246,147,147);stroke-width:0.01" />
<line x1="0.275095" y1="-0.161264" x2="0.0989202" y2="0.124792" style="stroke:rgb(246,147,147);stroke-width:0.01" />
<line x1="-0.0321231" y1="-0.178602" x2="-0.073849" y2="-0.147082" style="stroke:rgb(246,147,147);stroke-width:0.01" />
<line x1="-0.221972" y1="-0.173178" x2="-0.073849" y2="-0.147082" style="stroke:rgb(246,147,147);stroke-width:0.01" />
<line x1="0.0219044" y1="-0.128354" x2="0.0554181" y2="-0.122677" style="stroke:rgb(246,147,147);stroke-width:0.01" />
<line x1="0.11987" y1="-0.182945" x2="-0.277805" y2="0.188916" style="stroke:rgb(246,147,147);stroke-width:0.01" />
<line x1="-0.221972" y1="-0.173178" x2="-0.299872" y2="-0.154813" style="stroke:rgb(246,147,147);stroke-width:0.01" />
<line x1="0.11987" y1="-0.182945" x2="-0.299872" y2="-0.170952" style="stroke:rgb(246,147,147);stroke-width:0.01" />
<line x1="0.0923068" y1="-0.182157" x2="0.0219044" y2="-0.128354" style="stroke:rgb(246,147,147);stroke-width:0.01" />
<line x1="0.452218" y1="0.0207109" x2="0.422967" y2="0.0696355" style="stroke:rgb(246,147,147);stroke-width:0.01" />
<line x1="0.148953" y1="0.154853" x2="0.187368" y2="0.169497" style="stroke:rgb(246,147,147);stroke-width:0.01" />
<line x1="0.0179013" y1="-0.0875952" x2="-0.372567" y2="-0.0755508" style="stroke:rgb(246,147,147);stroke-width:0.01" />
<line x1="0.27105" y1="-0.16542" x2="0.242692" y2="-0.155478" style="stroke:rgb(246,147,147);stroke-width:0.01" />
<line x1="0.275095" y1="-0.161264" x2="0.245362" y2="-0.144043" style="stroke:rgb(246,147,147);stroke-width:0.01" />
<line x1="0.0397781" y1="0.0425219" x2="0.378586" y2="0.0573068" style="stroke:rgb(246,147,147);stroke-width:0.01" />
<line x1="-0.279573" y1="0.188137" x2="-0.282874" y2="0.189779" style="stroke:rgb(246,147,147);stroke-width:0.01" />
<line x1="-0.279573" y1="0.188137" x2="-0.277805" y2="0.188916" style="stroke:rgb(246,147,147);stroke-width:0.01" />
<line x1="0.24902" y1="0.00957149" x2="-0.0332912" y2="0.0550168" style="stroke:rgb(246,147,147);stroke-width:0.01" />
<line x1="0.422967" y1="0.0696355" x2="0.0613844" y2="0.131181" style="stroke:rgb(246,147,147);stroke-width:0.01" />
<line x1="-0.277805" y1="0.188916" x2="-0.282874" y2="0.189779" style="stroke:rgb(246,147,147);stroke-width:0.01" />
<line x1="-0.403804" y1="0.174682" x2="-0.282874" y2="0.189779" style="stroke:rgb(246,147,147);stroke-width:0.01" />
<line x1="0.452218" y1="0.0207109" x2="0.187368" y2="0.169497" style="stroke:rgb(246,147,147);stroke-width:0.01" />
</g>
</svg>
