<svg xmlns="http://www.w3.org/2000/svg" viewBox="-1.5 -1.5 3 3">
<g transform="scale(1, -1)">
<path d="M0.419742 0.475341 L0.511548 0.551846 L0.542564 0.502807 L0.570922 0.492865 L0.752090 0.678997 L0.722839 0.727921 L0.639859 0.742045 L0.487240 0.827783 L0.448826 0.813138 L0.464553 0.771885 L0.361257 0.789467 L0.211011 0.670523 L0.022067 0.847201 L0.016998 0.848064 L-0.103932 0.832968 L-0.072695 0.582735 L0.001587 0.515083 L0.000967 0.504238 L0.000000 0.503472 L0.000000 0.487333 z " fill="rgb(245,195,195)" />
<path d="M0.000000 0.000000 L1.000000 0.000000 L1.000000 1.000000 L0.000000 1.000000  z" fill="none" stroke="rgb(128,128,128)" stroke-width="0.01" />
<line x1="0.615899" y1="0.539074" x2="0.678979" y2="0.735387" style="stroke:rgb(246,147,147);stroke-width:0.01" />
<line x1="0.548892" y1="0.667857" x2="0.569216" y2="0.75407" style="stroke:rgb(246,147,147);stroke-width:0.01" />
<line x1="0.542564" y1="0.502807" x2="0.569216" y2="0.75407" style="stroke:rgb(246,147,147);stroke-width:0.01" />
<line x1="0.570922" y1="0.492865" x2="0.75209" y2="0.678997" style="stroke:rgb(246,147,147);stroke-width:0.01" />
<line x1="0.349401" y1="0.47735" x2="0.35529" y2="0.535609" style="stroke:rgb(246,147,147);stroke-width:0.01" />
<line x1="0.229151" y1="0.480786" x2="0.266581" y2="0.713302" style="stroke:rgb(246,147,147);stroke-width:0.01" />
<line x1="0.678458" y1="0.715592" x2="0.678979" y2="0.735387" style="stroke:rgb(246,147,147);stroke-width:0.01" />
<line x1="0" y1="0.487333" x2="0" y2="0.503472" style="stroke:rgb(246,147,147);stroke-width:0.01" />
<line x1="-0.0726945" y1="0.582735" x2="-0.103932" y2="0.832968" style="stroke:rgb(246,147,147);stroke-width:0.01" />
<line x1="0" y1="0.487333" x2="0.020595" y2="0.847452" style="stroke:rgb(246,147,147);stroke-width:0.01" />
<line x1="0.544564" y1="0.579359" x2="0.678458" y2="0.715592" style="stroke:rgb(246,147,147);stroke-width:0.01" />
<line x1="0.349401" y1="0.47735" x2="0.33965" y2="0.700808" style="stroke:rgb(246,147,147);stroke-width:0.01" />
<line x1="0.229151" y1="0.480786" x2="0.226023" y2="0.511204" style="stroke:rgb(246,147,147);stroke-width:0.01" />
<line x1="0.321776" y1="0.529932" x2="0.317773" y2="0.57069" style="stroke:rgb(246,147,147);stroke-width:0.01" />
<line x1="0.020299" y1="0.846423" x2="0.020595" y2="0.847452" style="stroke:rgb(246,147,147);stroke-width:0.01" />
<line x1="0.419742" y1="0.475341" x2="0.722839" y2="0.727921" style="stroke:rgb(246,147,147);stroke-width:0.01" />
<line x1="0.545234" y1="0.514242" x2="0.48724" y2="0.827783" style="stroke:rgb(246,147,147);stroke-width:0.01" />
<line x1="0.392179" y1="0.476128" x2="0.544564" y2="0.579359" style="stroke:rgb(246,147,147);stroke-width:0.01" />
<line x1="0.267749" y1="0.479683" x2="0.548892" y2="0.667857" style="stroke:rgb(246,147,147);stroke-width:0.01" />
<line x1="0.570922" y1="0.492865" x2="0.448826" y2="0.813138" style="stroke:rgb(246,147,147);stroke-width:0.01" />
<line x1="0.0330946" y1="0.486388" x2="0.398792" y2="0.783078" style="stroke:rgb(246,147,147);stroke-width:0.01" />
<line x1="0.0330946" y1="0.486388" x2="-0.0726945" y2="0.582735" style="stroke:rgb(246,147,147);stroke-width:0.01" />
<line x1="0.545234" y1="0.514242" x2="0.615899" y2="0.539074" style="stroke:rgb(246,147,147);stroke-width:0.01" />
<line x1="0" y1="0.503472" x2="0.361257" y2="0.789467" style="stroke:rgb(246,147,147);stroke-width:0.01" />
<line x1="0.542564" y1="0.502807" x2="0.361257" y2="0.789467" style="stroke:rgb(246,147,147);stroke-width:0.01" />
<line x1="0.574967" y1="0.497021" x2="0.398792" y2="0.783078" style="stroke:rgb(246,147,147);stroke-width:0.01" />
<line x1="0.267749" y1="0.479683" x2="0.226023" y2="0.511204" style="stroke:rgb(246,147,147);stroke-width:0.01" />
<line x1="0.0779001" y1="0.485108" x2="0.226023" y2="0.511204" style="stroke:rgb(246,147,147);stroke-width:0.01" />
<line x1="0.321776" y1="0.529932" x2="0.35529" y2="0.535609" style="stroke:rgb(246,147,147);stroke-width:0.01" />
<line x1="0.419742" y1="0.475341" x2="0.0220674" y2="0.847201" style="stroke:rgb(246,147,147);stroke-width:0.01" />
<line x1="0.0779001" y1="0.485108" x2="0" y2="0.503472" style="stroke:rgb(246,147,147);stroke-width:0.01" />
<line x1="0.419742" y1="0.475341" x2="0" y2="0.487333" style="stroke:rgb(246,147,147);stroke-width:0.01" />
<line x1="0.392179" y1="0.476128" x2="0.321776" y2="0.529932" style="stroke:rgb(246,147,147);stroke-width:0.01" />
<line x1="0.75209" y1="0.678997" x2="0.722839" y2="0.727921" style="stroke:rgb(246,147,147);stroke-width:0.01" />
<line x1="0.448826" y1="0.813138" x2="0.48724" y2="0.827783" style="stroke:rgb(246,147,147);stroke-width:0.01" />
<line x1="0.317773" y1="0.57069" x2="-0.0726945" y2="0.582735" style="stroke:rgb(246,147,147);stroke-width:0.01" />
<line x1="0.570922" y1="0.492865" x2="0.542564" y2="0.502807" style="stroke:rgb(246,147,147);stroke-width:0.01" />
<line x1="0.574967" y1="0.497021" x2="0.545234" y2="0.514242" style="stroke:rgb(246,147,147);stroke-width:0.01" />
<line x1="0.33965" y1="0.700808" x2="0.678458" y2="0.715592" style="stroke:rgb(246,147,147);stroke-width:0.01" />
<line x1="0.020299" y1="0.846423" x2="0.0169977" y2="0.848064" style="stroke:rgb(246,147,147);stroke-width:0.01" />
<line x1="0.020299" y1="0.846423" x2="0.0220674" y2="0.847201" style="stroke:rgb(246,147,147);stroke-width:0.01" />
<line x1="0.548892" y1="0.667857" x2="0.266581" y2="0.713302" style="stroke:rgb(246,147,147);stroke-width:0.01" />
<line x1="0.722839" y1="0.727921" x2="0.361257" y2="0.789467" style="stroke:rgb(246,147,147);stroke-width:0.01" />
<line x1="0.0220674" y1="0.847201" x2="0.0169977" y2="0.848064" style="stroke:rgb(246,147,147);stroke-width:0.01" />
<line x1="-0.103932" y1="0.832968" x2="0.0169977" y2="0.848064" style="stroke:rgb(246,147,147);stroke-width:0.01" />
<line x1="0.75209" y1="0.678997" x2="0.48724" y2="0.827783" style="stroke:rgb(246,147,147);stroke-width:0.01" />
</g>
</svg>
