<svg xmlns="http://www.w3.org/2000/svg" viewBox="-1.5 -1.5 3 3">
<g transform="scale(1, -1)">
<path d="M-0.200296 0.701235 L-0.119059 0.715594 L-0.099629 0.808787 L-0.145784 1.069904 L-0.412171 1.561369 L-0.395647 1.061642 L-0.177233 0.857210 L-0.178491 0.848703 L-0.289092 0.865056 z " fill="rgb(245,195,195)" />
<path d="M0.000000 0.000000 L1.000000 0.000000 L1.000000 1.000000 L0.000000 1.000000  z" fill="none" stroke="rgb(128,128,128)" stroke-width="0.01" />
<line x1="-0.309605" y1="0.981108" x2="-0.412171" y2="1.56137" style="stroke:rgb(246,147,147);stroke-width:0.01" />
<line x1="-0.395647" y1="1.06164" x2="-0.412171" y2="1.56137" style="stroke:rgb(246,147,147);stroke-width:0.01" />
<line x1="-0.113508" y1="0.742221" x2="-0.115924" y2="0.784241" style="stroke:rgb(246,147,147);stroke-width:0.01" />
<line x1="-0.137521" y1="0.820041" x2="-0.145784" y2="1.0699" style="stroke:rgb(246,147,147);stroke-width:0.01" />
<line x1="-0.0996287" y1="0.808787" x2="-0.145784" y2="1.0699" style="stroke:rgb(246,147,147);stroke-width:0.01" />
<line x1="-0.200296" y1="0.701235" x2="-0.145784" y2="1.0699" style="stroke:rgb(246,147,147);stroke-width:0.01" />
<line x1="-0.113508" y1="0.742221" x2="-0.124072" y2="0.771968" style="stroke:rgb(246,147,147);stroke-width:0.01" />
<line x1="-0.119059" y1="0.715594" x2="-0.0996287" y2="0.808787" style="stroke:rgb(246,147,147);stroke-width:0.01" />
<line x1="-0.200296" y1="0.701235" x2="-0.289092" y2="0.865056" style="stroke:rgb(246,147,147);stroke-width:0.01" />
<line x1="-0.145784" y1="1.0699" x2="-0.412171" y2="1.56137" style="stroke:rgb(246,147,147);stroke-width:0.01" />
<line x1="-0.172036" y1="0.783166" x2="-0.115014" y2="0.895826" style="stroke:rgb(246,147,147);stroke-width:0.01" />
<line x1="-0.148515" y1="0.735149" x2="-0.0996287" y2="0.808787" style="stroke:rgb(246,147,147);stroke-width:0.01" />
<line x1="-0.103853" y1="0.788528" x2="-0.395647" y2="1.06164" style="stroke:rgb(246,147,147);stroke-width:0.01" />
<line x1="-0.115014" y1="0.895826" x2="-0.164653" y2="0.942288" style="stroke:rgb(246,147,147);stroke-width:0.01" />
<line x1="-0.119059" y1="0.715594" x2="-0.148515" y2="0.735149" style="stroke:rgb(246,147,147);stroke-width:0.01" />
<line x1="-0.113508" y1="0.742221" x2="-0.289092" y2="0.865056" style="stroke:rgb(246,147,147);stroke-width:0.01" />
<line x1="-0.172036" y1="0.783166" x2="-0.137521" y2="0.820041" style="stroke:rgb(246,147,147);stroke-width:0.01" />
<line x1="-0.107102" y1="0.772944" x2="-0.289092" y2="0.865056" style="stroke:rgb(246,147,147);stroke-width:0.01" />
<line x1="-0.186668" y1="0.793402" x2="-0.104757" y2="0.8378" style="stroke:rgb(246,147,147);stroke-width:0.01" />
<line x1="-0.200296" y1="0.701235" x2="-0.119059" y2="0.715594" style="stroke:rgb(246,147,147);stroke-width:0.01" />
<line x1="-0.115924" y1="0.784241" x2="-0.103853" y2="0.788528" style="stroke:rgb(246,147,147);stroke-width:0.01" />
<line x1="-0.148515" y1="0.735149" x2="-0.113508" y2="0.742221" style="stroke:rgb(246,147,147);stroke-width:0.01" />
<line x1="-0.186668" y1="0.793402" x2="-0.101827" y2="0.821221" style="stroke:rgb(246,147,147);stroke-width:0.01" />
<line x1="-0.124072" y1="0.771968" x2="-0.107102" y2="0.772944" style="stroke:rgb(246,147,147);stroke-width:0.01" />
<line x1="-0.104757" y1="0.8378" x2="-0.289092" y2="0.865056" style="stroke:rgb(246,147,147);stroke-width:0.01" />
<line x1="-0.183942" y1="0.811836" x2="-0.102706" y2="0.826195" style="stroke:rgb(246,147,147);stroke-width:0.01" />
<line x1="-0.164653" y1="0.942288" x2="-0.126552" y2="0.961106" style="stroke:rgb(246,147,147);stroke-width:0.01" />
<line x1="-0.137521" y1="0.820041" x2="-0.101827" y2="0.821221" style="stroke:rgb(246,147,147);stroke-width:0.01" />
<line x1="-0.126552" y1="0.961106" x2="-0.309605" y2="0.981108" style="stroke:rgb(246,147,147);stroke-width:0.01" />
<line x1="-0.395647" y1="1.06164" x2="-0.145784" y2="1.0699" style="stroke:rgb(246,147,147);stroke-width:0.01" />
</g>
</svg>
