<svg xmlns="http://www.w3.org/2000/svg" viewBox="-1.5 -1.5 3 3">
<g transform="scale(1, -1)">
<path d="M0.023860 -0.242043 L0.105096 -0.227684 L0.124527 -0.134491 L0.078372 0.126627 L-0.188016 0.618091 L-0.171491 0.118364 L0.046923 -0.086067 L0.045665 -0.094575 L-0.064936 -0.078222 z " fill="rgb(245,195,195)" />
<path d="M0.224156 -0.943278 L1.224156 -0.943278 L1.224156 0.056722 L0.224156 0.056722  z" fill="none" stroke="rgb(128,128,128)" stroke-width="0.01" />
<line x1="-0.0854494" y1="0.0378306" x2="-0.188016" y2="0.618091" style="stroke:rgb(246,147,147);stroke-width:0.01" />
<line x1="-0.171491" y1="0.118364" x2="-0.188016" y2="0.618091" style="stroke:rgb(246,147,147);stroke-width:0.01" />
<line x1="0.110648" y1="-0.201057" x2="0.108232" y2="-0.159037" style="stroke:rgb(246,147,147);stroke-width:0.01" />
<line x1="0.0866344" y1="-0.123237" x2="0.0783722" y2="0.126627" style="stroke:rgb(246,147,147);stroke-width:0.01" />
<line x1="0.124527" y1="-0.134491" x2="0.0783722" y2="0.126627" style="stroke:rgb(246,147,147);stroke-width:0.01" />
<line x1="0.0238599" y1="-0.242043" x2="0.0783722" y2="0.126627" style="stroke:rgb(246,147,147);stroke-width:0.01" />
<line x1="0.110648" y1="-0.201057" x2="0.100084" y2="-0.17131" style="stroke:rgb(246,147,147);stroke-width:0.01" />
<line x1="0.105096" y1="-0.227684" x2="0.124527" y2="-0.134491" style="stroke:rgb(246,147,147);stroke-width:0.01" />
<line x1="0.0238599" y1="-0.242043" x2="-0.0649361" y2="-0.0782216" style="stroke:rgb(246,147,147);stroke-width:0.01" />
<line x1="0.0783722" y1="0.126627" x2="-0.188016" y2="0.618091" style="stroke:rgb(246,147,147);stroke-width:0.01" />
<line x1="0.0521199" y1="-0.160112" x2="0.109142" y2="-0.0474517" style="stroke:rgb(246,147,147);stroke-width:0.01" />
<line x1="0.0756409" y1="-0.208129" x2="0.124527" y2="-0.134491" style="stroke:rgb(246,147,147);stroke-width:0.01" />
<line x1="0.120303" y1="-0.15475" x2="-0.171491" y2="0.118364" style="stroke:rgb(246,147,147);stroke-width:0.01" />
<line x1="0.109142" y1="-0.0474517" x2="0.0595025" y2="-0.000989892" style="stroke:rgb(246,147,147);stroke-width:0.01" />
<line x1="0.105096" y1="-0.227684" x2="0.0756409" y2="-0.208129" style="stroke:rgb(246,147,147);stroke-width:0.01" />
<line x1="0.110648" y1="-0.201057" x2="-0.0649361" y2="-0.0782216" style="stroke:rgb(246,147,147);stroke-width:0.01" />
<line x1="0.0521199" y1="-0.160112" x2="0.0866344" y2="-0.123237" style="stroke:rgb(246,147,147);stroke-width:0.01" />
<line x1="0.117054" y1="-0.170334" x2="-0.0649361" y2="-0.0782216" style="stroke:rgb(246,147,147);stroke-width:0.01" />
<line x1="0.0374879" y1="-0.149876" x2="0.119399" y2="-0.105478" style="stroke:rgb(246,147,147);stroke-width:0.01" />
<line x1="0.0238599" y1="-0.242043" x2="0.105096" y2="-0.227684" style="stroke:rgb(246,147,147);stroke-width:0.01" />
<line x1="0.108232" y1="-0.159037" x2="0.120303" y2="-0.15475" style="stroke:rgb(246,147,147);stroke-width:0.01" />
<line x1="0.0756409" y1="-0.208129" x2="0.110648" y2="-0.201057" style="stroke:rgb(246,147,147);stroke-width:0.01" />
<line x1="0.0374879" y1="-0.149876" x2="0.122329" y2="-0.122057" style="stroke:rgb(246,147,147);stroke-width:0.01" />
<line x1="0.100084" y1="-0.17131" x2="0.117054" y2="-0.170334" style="stroke:rgb(246,147,147);stroke-width:0.01" />
<line x1="0.119399" y1="-0.105478" x2="-0.0649361" y2="-0.0782216" style="stroke:rgb(246,147,147);stroke-width:0.01" />
<line x1="0.0402136" y1="-0.131442" x2="0.12145" y2="-0.117083" style="stroke:rgb(246,147,147);stroke-width:0.01" />
<line x1="0.0595025" y1="-0.000989892" x2="0.0976034" y2="0.0178277" style="stroke:rgb(246,147,147);stroke-width:0.01" />
<line x1="0.0866344" y1="-0.123237" x2="0.122329" y2="-0.122057" style="stroke:rgb(246,147,147);stroke-width:0.01" />
<line x1="0.0976034" y1="0.0178277" x2="-0.0854494" y2="0.0378306" style="stroke:rgb(246,147,147);stroke-width:0.01" />
<line x1="-0.171491" y1="0.118364" x2="0.0783722" y2="0.126627" style="stroke:rgb(246,147,147);stroke-width:0.01" />
</g>
</svg>
