<svg xmlns="http://www.w3.org/2000/svg" viewBox="-1.5 -1.5 3 3">
<g transform="scale(1, -1)">
<path d="M0.366178 0.302944 L0.487164 0.303008 L0.772601 0.534926 L0.770604 0.546303 L0.752204 0.543072 L0.566638 0.617185 L0.562943 0.626408 L0.581506 0.653811 L0.538780 0.692265 L0.700842 0.816967 L0.714790 0.811524 L0.723812 0.834641 L0.508687 0.995985 L0.355000 0.857667 L0.355000 0.319444 z " fill="rgb(245,195,195)" />
<path d="M0.000000 0.000000 L1.000000 0.000000 L1.000000 1.000000 L0.000000 1.000000  z" fill="none" stroke="rgb(128,128,128)" stroke-width="0.01" />
<line x1="0.71479" y1="0.811524" x2="0.723812" y2="0.834641" style="stroke:rgb(246,147,147);stroke-width:0.01" />
<line x1="0.487164" y1="0.303008" x2="0.529295" y2="0.503933" style="stroke:rgb(246,147,147);stroke-width:0.01" />
<line x1="0.366178" y1="0.302944" x2="0.612308" y2="0.918269" style="stroke:rgb(246,147,147);stroke-width:0.01" />
<line x1="0.406361" y1="0.506116" x2="0.475023" y2="0.749646" style="stroke:rgb(246,147,147);stroke-width:0.01" />
<line x1="0.355" y1="0.319444" x2="0.581506" y2="0.653811" style="stroke:rgb(246,147,147);stroke-width:0.01" />
<line x1="0.487164" y1="0.303008" x2="0.772601" y2="0.534926" style="stroke:rgb(246,147,147);stroke-width:0.01" />
<line x1="0.459282" y1="0.489687" x2="0.512428" y2="0.993179" style="stroke:rgb(246,147,147);stroke-width:0.01" />
<line x1="0.355" y1="0.61214" x2="0.506444" y2="0.898683" style="stroke:rgb(246,147,147);stroke-width:0.01" />
<line x1="0.466492" y1="0.908416" x2="0.508687" y2="0.995985" style="stroke:rgb(246,147,147);stroke-width:0.01" />
<line x1="0.355" y1="0.319444" x2="0.355" y2="0.857667" style="stroke:rgb(246,147,147);stroke-width:0.01" />
<line x1="0.406361" y1="0.506116" x2="0.581506" y2="0.653811" style="stroke:rgb(246,147,147);stroke-width:0.01" />
<line x1="0.772601" y1="0.534926" x2="0.770604" y2="0.546303" style="stroke:rgb(246,147,147);stroke-width:0.01" />
<line x1="0.355" y1="0.550851" x2="0.723812" y2="0.834641" style="stroke:rgb(246,147,147);stroke-width:0.01" />
<line x1="0.543" y1="0.864" x2="0.506081" y2="0.990578" style="stroke:rgb(246,147,147);stroke-width:0.01" />
<line x1="0.366178" y1="0.302944" x2="0.355" y2="0.319444" style="stroke:rgb(246,147,147);stroke-width:0.01" />
<line x1="0.543" y1="0.864" x2="0.612308" y2="0.918269" style="stroke:rgb(246,147,147);stroke-width:0.01" />
<line x1="0.409595" y1="0.508842" x2="0.355" y2="0.61214" style="stroke:rgb(246,147,147);stroke-width:0.01" />
<line x1="0.642078" y1="0.428876" x2="0.439743" y2="0.933936" style="stroke:rgb(246,147,147);stroke-width:0.01" />
<line x1="0.355" y1="0.857667" x2="0.508687" y2="0.995985" style="stroke:rgb(246,147,147);stroke-width:0.01" />
<line x1="0.366178" y1="0.302944" x2="0.487164" y2="0.303008" style="stroke:rgb(246,147,147);stroke-width:0.01" />
<line x1="0.529295" y1="0.503933" x2="0.770604" y2="0.546303" style="stroke:rgb(246,147,147);stroke-width:0.01" />
<line x1="0.355" y1="0.500694" x2="0.406361" y2="0.506116" style="stroke:rgb(246,147,147);stroke-width:0.01" />
<line x1="0.355" y1="0.70171" x2="0.475023" y2="0.749646" style="stroke:rgb(246,147,147);stroke-width:0.01" />
<line x1="0.409595" y1="0.508842" x2="0.355" y2="0.550851" style="stroke:rgb(246,147,147);stroke-width:0.01" />
<line x1="0.459282" y1="0.489687" x2="0.355" y2="0.500694" style="stroke:rgb(246,147,147);stroke-width:0.01" />
<line x1="0.642078" y1="0.428876" x2="0.529295" y2="0.503933" style="stroke:rgb(246,147,147);stroke-width:0.01" />
<line x1="0.581506" y1="0.653811" x2="0.355" y2="0.857667" style="stroke:rgb(246,147,147);stroke-width:0.01" />
<line x1="0.506081" y1="0.990578" x2="0.512428" y2="0.993179" style="stroke:rgb(246,147,147);stroke-width:0.01" />
<line x1="0.772601" y1="0.534926" x2="0.355" y2="0.70171" style="stroke:rgb(246,147,147);stroke-width:0.01" />
<line x1="0.723812" y1="0.834641" x2="0.508687" y2="0.995985" style="stroke:rgb(246,147,147);stroke-width:0.01" />
<line x1="0.543" y1="0.864" x2="0.466492" y2="0.908416" style="stroke:rgb(246,147,147);stroke-width:0.01" />
<line x1="0.506444" y1="0.898683" x2="0.439743" y2="0.933936" style="stroke:rgb(246,147,147);stroke-width:0.01" />
<line x1="0.71479" y1="0.811524" x2="0.466492" y2="0.908416" style="stroke:rgb(246,147,147);stroke-width:0.01" />
</g>
</svg>
