<svg xmlns="http://www.w3.org/2000/svg" viewBox="-1.5 -1.5 3 3">
<g transform="scale(1, -1)">
<path d="M-0.217606 -0.327466 L-0.096619 -0.327402 L0.188818 -0.095484 L0.186821 -0.084107 L0.168421 -0.087338 L-0.017145 -0.013225 L-0.020840 -0.004002 L-0.002277 0.023401 L-0.045003 0.061855 L0.117058 0.186557 L0.131007 0.181113 L0.140028 0.204231 L-0.075096 0.365575 L-0.228783 0.227257 L-0.228783 -0.310966 z " fill="rgb(245,195,195)" />
<path d="M-0.583783 -0.630410 L0.416217 -0.630410 L0.416217 0.369590 L-0.583783 0.369590  z" fill="none" stroke="rgb(128,128,128)" stroke-width="0.01" />
<line x1="0.131007" y1="0.181113" x2="0.140028" y2="0.204231" style="stroke:rgb(246,147,147);stroke-width:0.01" />
<line x1="-0.0966194" y1="-0.327402" x2="-0.0544879" y2="-0.126477" style="stroke:rgb(246,147,147);stroke-width:0.01" />
<line x1="-0.217606" y1="-0.327466" x2="0.0285244" y2="0.287859" style="stroke:rgb(246,147,147);stroke-width:0.01" />
<line x1="-0.177422" y1="-0.124294" x2="-0.10876" y2="0.119236" style="stroke:rgb(246,147,147);stroke-width:0.01" />
<line x1="-0.228783" y1="-0.310966" x2="-0.00227697" y2="0.0234009" style="stroke:rgb(246,147,147);stroke-width:0.01" />
<line x1="-0.0966194" y1="-0.327402" x2="0.188818" y2="-0.0954838" style="stroke:rgb(246,147,147);stroke-width:0.01" />
<line x1="-0.124502" y1="-0.140723" x2="-0.0713552" y2="0.362769" style="stroke:rgb(246,147,147);stroke-width:0.01" />
<line x1="-0.228783" y1="-0.0182704" x2="-0.0773395" y2="0.268273" style="stroke:rgb(246,147,147);stroke-width:0.01" />
<line x1="-0.117291" y1="0.278006" x2="-0.0750964" y2="0.365575" style="stroke:rgb(246,147,147);stroke-width:0.01" />
<line x1="-0.228783" y1="-0.310966" x2="-0.228783" y2="0.227257" style="stroke:rgb(246,147,147);stroke-width:0.01" />
<line x1="-0.177422" y1="-0.124294" x2="-0.00227697" y2="0.0234009" style="stroke:rgb(246,147,147);stroke-width:0.01" />
<line x1="0.188818" y1="-0.0954838" x2="0.186821" y2="-0.0841069" style="stroke:rgb(246,147,147);stroke-width:0.01" />
<line x1="-0.228783" y1="-0.0795587" x2="0.140028" y2="0.204231" style="stroke:rgb(246,147,147);stroke-width:0.01" />
<line x1="-0.0407833" y1="0.23359" x2="-0.0777018" y2="0.360168" style="stroke:rgb(246,147,147);stroke-width:0.01" />
<line x1="-0.217606" y1="-0.327466" x2="-0.228783" y2="-0.310966" style="stroke:rgb(246,147,147);stroke-width:0.01" />
<line x1="-0.0407833" y1="0.23359" x2="0.0285244" y2="0.287859" style="stroke:rgb(246,147,147);stroke-width:0.01" />
<line x1="-0.174189" y1="-0.121568" x2="-0.228783" y2="-0.0182704" style="stroke:rgb(246,147,147);stroke-width:0.01" />
<line x1="0.0582943" y1="-0.201534" x2="-0.14404" y2="0.303526" style="stroke:rgb(246,147,147);stroke-width:0.01" />
<line x1="-0.228783" y1="0.227257" x2="-0.0750964" y2="0.365575" style="stroke:rgb(246,147,147);stroke-width:0.01" />
<line x1="-0.217606" y1="-0.327466" x2="-0.0966194" y2="-0.327402" style="stroke:rgb(246,147,147);stroke-width:0.01" />
<line x1="-0.0544879" y1="-0.126477" x2="0.186821" y2="-0.0841069" style="stroke:rgb(246,147,147);stroke-width:0.01" />
<line x1="-0.228783" y1="-0.129716" x2="-0.177422" y2="-0.124294" style="stroke:rgb(246,147,147);stroke-width:0.01" />
<line x1="-0.228783" y1="0.0713002" x2="-0.10876" y2="0.119236" style="stroke:rgb(246,147,147);stroke-width:0.01" />
<line x1="-0.174189" y1="-0.121568" x2="-0.228783" y2="-0.0795587" style="stroke:rgb(246,147,147);stroke-width:0.01" />
<line x1="-0.124502" y1="-0.140723" x2="-0.228783" y2="-0.129716" style="stroke:rgb(246,147,147);stroke-width:0.01" />
<line x1="0.0582943" y1="-0.201534" x2="-0.0544879" y2="-0.126477" style="stroke:rgb(246,147,147);stroke-width:0.01" />
<line x1="-0.00227697" y1="0.0234009" x2="-0.228783" y2="0.227257" style="stroke:rgb(246,147,147);stroke-width:0.01" />
<line x1="-0.0777018" y1="0.360168" x2="-0.0713552" y2="0.362769" style="stroke:rgb(246,147,147);stroke-width:0.01" />
<line x1="0.188818" y1="-0.0954838" x2="-0.228783" y2="0.0713002" style="stroke:rgb(246,147,147);stroke-width:0.01" />
<line x1="0.140028" y1="0.204231" x2="-0.0750964" y2="0.365575" style="stroke:rgb(246,147,147);stroke-width:0.01" />
<line x1="-0.0407833" y1="0.23359" x2="-0.117291" y2="0.278006" style="stroke:rgb(246,147,147);stroke-width:0.01" />
<line x1="-0.0773395" y1="0.268273" x2="-0.14404" y2="0.303526" style="stroke:rgb(246,147,147);stroke-width:0.01" />
<line x1="0.131007" y1="0.181113" x2="-0.117291" y2="0.278006" style="stroke:rgb(246,147,147);stroke-width:0.01" />
</g>
</svg>
