<svg xmlns="http://www.w3.org/2000/svg" viewBox="-1.5 -1.5 3 3">
<g transform="scale(1, -1)">
<path d="M-0.300965 -0.202758 L-0.238552 -0.178240 L-0.240545 -0.172659 L-0.203080 -0.153995 L-0.208032 -0.144054 L-0.185887 -0.131226 L-0.150391 -0.112384 L-0.151090 -0.111068 L-0.109497 -0.086973 L-0.125057 -0.059295 L0.207233 -0.044689 L0.364900 0.104356 L0.365214 0.154634 L0.378169 0.227690 L0.365684 0.229976 L0.365816 0.251046 L0.237194 0.253508 L0.222921 0.111457 L-0.233895 0.134303 L-0.360139 -0.069628 z " fill="rgb(245,195,195)" />
<path d="M-0.505686 -0.966667 L0.494314 -0.966667 L0.494314 0.033333 L-0.505686 0.033333  z" fill="none" stroke="rgb(128,128,128)" stroke-width="0.01" />
<line x1="0.354566" y1="0.0945871" x2="0.378169" y2="0.22769" style="stroke:rgb(246,147,147);stroke-width:0.01" />
<line x1="0.207233" y1="-0.0446891" x2="0.237194" y2="0.253508" style="stroke:rgb(246,147,147);stroke-width:0.01" />
<line x1="0.289768" y1="0.0333328" x2="0.30126" y2="0.237555" style="stroke:rgb(246,147,147);stroke-width:0.01" />
<line x1="0.336661" y1="0.0776612" x2="0.341863" y2="0.24871" style="stroke:rgb(246,147,147);stroke-width:0.01" />
<line x1="0.3649" y1="0.104356" x2="0.365816" y2="0.251046" style="stroke:rgb(246,147,147);stroke-width:0.01" />
<line x1="0.207233" y1="-0.0446891" x2="0.3649" y2="0.104356" style="stroke:rgb(246,147,147);stroke-width:0.01" />
<line x1="-0.238552" y1="-0.17824" x2="-0.307615" y2="0.0152176" style="stroke:rgb(246,147,147);stroke-width:0.01" />
<line x1="-0.360139" y1="-0.0696284" x2="-0.233895" y2="0.134303" style="stroke:rgb(246,147,147);stroke-width:0.01" />
<line x1="-0.300965" y1="-0.202758" x2="-0.360139" y2="-0.0696284" style="stroke:rgb(246,147,147);stroke-width:0.01" />
<line x1="-0.20308" y1="-0.153995" x2="-0.296401" y2="0.0333328" style="stroke:rgb(246,147,147);stroke-width:0.01" />
<line x1="-0.150391" y1="-0.112384" x2="-0.259435" y2="0.0930469" style="stroke:rgb(246,147,147);stroke-width:0.01" />
<line x1="-0.109497" y1="-0.0869734" x2="-0.233895" y2="0.134303" style="stroke:rgb(246,147,147);stroke-width:0.01" />
<line x1="-0.302686" y1="-0.198886" x2="-0.109497" y2="-0.0869734" style="stroke:rgb(246,147,147);stroke-width:0.01" />
<line x1="-0.305034" y1="-0.193605" x2="-0.109497" y2="-0.0869734" style="stroke:rgb(246,147,147);stroke-width:0.01" />
<line x1="-0.304723" y1="-0.194304" x2="-0.150391" y2="-0.112384" style="stroke:rgb(246,147,147);stroke-width:0.01" />
<line x1="-0.300965" y1="-0.202758" x2="-0.20308" y2="-0.153995" style="stroke:rgb(246,147,147);stroke-width:0.01" />
<line x1="-0.300965" y1="-0.202758" x2="-0.238552" y2="-0.17824" style="stroke:rgb(246,147,147);stroke-width:0.01" />
<line x1="-0.304723" y1="-0.194304" x2="-0.241074" y2="-0.171177" style="stroke:rgb(246,147,147);stroke-width:0.01" />
<line x1="-0.305034" y1="-0.193605" x2="-0.241074" y2="-0.171177" style="stroke:rgb(246,147,147);stroke-width:0.01" />
<line x1="-0.302686" y1="-0.198886" x2="-0.238552" y2="-0.17824" style="stroke:rgb(246,147,147);stroke-width:0.01" />
<line x1="-0.360139" y1="-0.0696284" x2="0.207233" y2="-0.0446891" style="stroke:rgb(246,147,147);stroke-width:0.01" />
<line x1="-0.307615" y1="0.0152176" x2="0.354566" y2="0.0945871" style="stroke:rgb(246,147,147);stroke-width:0.01" />
<line x1="-0.296401" y1="0.0333328" x2="0.289768" y2="0.0333328" style="stroke:rgb(246,147,147);stroke-width:0.01" />
<line x1="0.336661" y1="0.0776612" x2="-0.259435" y2="0.0930469" style="stroke:rgb(246,147,147);stroke-width:0.01" />
<line x1="0.3649" y1="0.104356" x2="-0.233895" y2="0.134303" style="stroke:rgb(246,147,147);stroke-width:0.01" />
<line x1="0.23686" y1="0.250187" x2="0.365816" y2="0.251046" style="stroke:rgb(246,147,147);stroke-width:0.01" />
<line x1="0.365816" y1="0.251046" x2="0.237194" y2="0.253508" style="stroke:rgb(246,147,147);stroke-width:0.01" />
<line x1="0.341863" y1="0.24871" x2="0.237032" y2="0.251898" style="stroke:rgb(246,147,147);stroke-width:0.01" />
<line x1="0.30126" y1="0.237555" x2="0.23596" y2="0.24123" style="stroke:rgb(246,147,147);stroke-width:0.01" />
<line x1="0.376943" y1="0.220777" x2="0.23596" y2="0.24123" style="stroke:rgb(246,147,147);stroke-width:0.01" />
<line x1="0.378169" y1="0.22769" x2="0.237032" y2="0.251898" style="stroke:rgb(246,147,147);stroke-width:0.01" />
<line x1="0.378169" y1="0.22769" x2="0.237194" y2="0.253508" style="stroke:rgb(246,147,147);stroke-width:0.01" />
<line x1="0.376943" y1="0.220777" x2="0.23686" y2="0.250187" style="stroke:rgb(246,147,147);stroke-width:0.01" />
</g>
</svg>
