<svg xmlns="http://www.w3.org/2000/svg" viewBox="-1.5 -1.5 3 3">
<g transform="scale(1, -1)">
<path d="M-0.176795 -0.648071 L0.491942 -0.215944 L0.525148 -0.238944 L0.580888 -0.158468 L-0.098246 0.542812 L-0.134784 0.569687 L-0.649536 0.237062 L-0.538617 -0.088134 z " fill="rgb(245,195,195)" />
<path d="M-1991479201.987307 -102510619.078801 L-1991479200.987307 -102510619.078801 L-1991479200.987307 -102510618.078801 L-1991479201.987307 -102510618.078801  z" fill="none" stroke="rgb(128,128,128)" stroke-width="0.01" />
<line x1="-0.175993" y1="0.421513" x2="-0.088544" y2="0.532793" style="stroke:rgb(246,147,147);stroke-width:0.01" />
<line x1="0.525148" y1="-0.238944" x2="0.580888" y2="-0.158468" style="stroke:rgb(246,147,147);stroke-width:0.01" />
<line x1="-0.0905915" y1="0.529554" x2="-0.088439" y2="0.532685" style="stroke:rgb(246,147,147);stroke-width:0.01" />
<line x1="-0.0904156" y1="0.531417" x2="-0.088544" y2="0.532793" style="stroke:rgb(246,147,147);stroke-width:0.01" />
<line x1="-0.176795" y1="-0.648071" x2="0.580888" y2="-0.158468" style="stroke:rgb(246,147,147);stroke-width:0.01" />
<line x1="-0.649536" y1="0.237062" x2="-0.134784" y2="0.569687" style="stroke:rgb(246,147,147);stroke-width:0.01" />
<line x1="-0.0904156" y1="0.531417" x2="-0.088439" y2="0.532685" style="stroke:rgb(246,147,147);stroke-width:0.01" />
<line x1="-0.175993" y1="0.421513" x2="-0.134784" y2="0.569687" style="stroke:rgb(246,147,147);stroke-width:0.01" />
<line x1="-0.649536" y1="0.237062" x2="-0.566495" y2="0.244032" style="stroke:rgb(246,147,147);stroke-width:0.01" />
<line x1="-0.538617" y1="-0.0881339" x2="-0.566495" y2="0.244032" style="stroke:rgb(246,147,147);stroke-width:0.01" />
<line x1="0.360735" y1="-0.125065" x2="0.34889" y2="-0.0764879" style="stroke:rgb(246,147,147);stroke-width:0.01" />
<line x1="-0.538617" y1="-0.0881339" x2="-0.649536" y2="0.237062" style="stroke:rgb(246,147,147);stroke-width:0.01" />
<line x1="0.34889" y1="-0.0764879" x2="0.206996" y2="0.227616" style="stroke:rgb(246,147,147);stroke-width:0.01" />
<line x1="0.206996" y1="0.227616" x2="-0.175993" y2="0.421513" style="stroke:rgb(246,147,147);stroke-width:0.01" />
<line x1="0.0188694" y1="0.372393" x2="-0.0750768" y2="0.518887" style="stroke:rgb(246,147,147);stroke-width:0.01" />
<line x1="-0.176795" y1="-0.648071" x2="-0.538617" y2="-0.0881339" style="stroke:rgb(246,147,147);stroke-width:0.01" />
<line x1="0.360735" y1="-0.125065" x2="-0.0982464" y2="0.542812" style="stroke:rgb(246,147,147);stroke-width:0.01" />
<line x1="0.34889" y1="-0.0764879" x2="0.0188694" y2="0.372393" style="stroke:rgb(246,147,147);stroke-width:0.01" />
<line x1="-0.0750768" y1="0.518887" x2="-0.0905915" y2="0.529554" style="stroke:rgb(246,147,147);stroke-width:0.01" />
<line x1="0.525148" y1="-0.238944" x2="0.360735" y2="-0.125065" style="stroke:rgb(246,147,147);stroke-width:0.01" />
<line x1="-0.0982464" y1="0.542812" x2="-0.134784" y2="0.569687" style="stroke:rgb(246,147,147);stroke-width:0.01" />
<line x1="0.580888" y1="-0.158468" x2="-0.0982464" y2="0.542812" style="stroke:rgb(246,147,147);stroke-width:0.01" />
</g>
</svg>
