<svg xmlns="http://www.w3.org/2000/svg" viewBox="-1.5 -1.5 3 3">
<g transform="scale(1, -1)">
<path d="M1991479201.810512 102510618.430730 L1991479202.479250 102510618.862857 L1991479202.512455 102510618.839858 L1991479202.568196 102510618.920333 L1991479201.889061 102510619.621613 L1991479201.852524 102510619.648488 L1991479201.337771 102510619.315864 L1991479201.448690 102510618.990667 z " fill="rgb(245,195,195)" />
<path d="M0.000000 0.000000 L1.000000 0.000000 L1.000000 1.000000 L0.000000 1.000000  z" fill="none" stroke="rgb(128,128,128)" stroke-width="0.01" />
<line x1="1.99148e+09" y1="1.02511e+08" x2="1.99148e+09" y2="1.02511e+08" style="stroke:rgb(246,147,147);stroke-width:0.01" />
<line x1="1.99148e+09" y1="1.02511e+08" x2="1.99148e+09" y2="1.02511e+08" style="stroke:rgb(246,147,147);stroke-width:0.01" />
<line x1="1.99148e+09" y1="1.02511e+08" x2="1.99148e+09" y2="1.02511e+08" style="stroke:rgb(246,147,147);stroke-width:0.01" />
<line x1="1.99148e+09" y1="1.02511e+08" x2="1.99148e+09" y2="1.02511e+08" style="stroke:rgb(246,147,147);stroke-width:0.01" />
<line x1="1.99148e+09" y1="1.02511e+08" x2="1.99148e+09" y2="1.02511e+08" style="stroke:rgb(246,147,147);stroke-width:0.01" />
<line x1="1.99148e+09" y1="1.02511e+08" x2="1.99148e+09" y2="1.02511e+08" style="stroke:rgb(246,147,147);stroke-width:0.01" />
<line x1="1.99148e+09" y1="1.02511e+08" x2="1.99148e+09" y2="1.02511e+08" style="stroke:rgb(246,147,147);stroke-width:0.01" />
<line x1="1.99148e+09" y1="1.02511e+08" x2="1.99148e+09" y2="1.02511e+08" style="stroke:rgb(246,147,147);stroke-width:0.01" />
<line x1="1.99148e+09" y1="1.02511e+08" x2="1.99148e+09" y2="1.02511e+08" style="stroke:rgb(246,147,147);stroke-width:0.01" />
<line x1="1.99148e+09" y1="1.02511e+08" x2="1.99148e+09" y2="1.02511e+08" style="stroke:rgb(246,147,147);stroke-width:0.01" />
<line x1="1.99148e+09" y1="1.02511e+08" x2="1.99148e+09" y2="1.02511e+08" style="stroke:rgb(246,147,147);stroke-width:0.01" />
<line x1="1.99148e+09" y1="1.02511e+08" x2="1.99148e+09" y2="1.02511e+08" style="stroke:rgb(246,147,147);stroke-width:0.01" />
<line x1="1.99148e+09" y1="1.02511e+08" x2="1.99148e+09" y2="1.02511e+08" style="stroke:rgb(246,147,147);stroke-width:0.01" />
<line x1="1.99148e+09" y1="1.02511e+08" x2="1.99148e+09" y2="1.02511e+08" style="stroke:rgb(246,147,147);stroke-width:0.01" />
<line x1="1.99148e+09" y1="1.02511e+08" x2="1.99148e+09" y2="1.02511e+08" style="stroke:rgb(246,147,147);stroke-width:0.01" />
<line x1="1.99148e+09" y1="1.02511e+08" x2="1.99148e+09" y2="1.02511e+08" style="stroke:rgb(246,147,147);stroke-width:0.01" />
<line x1="1.99148e+09" y1="1.02511e+08" x2="1.99148e+09" y2="1.02511e+08" style="stroke:rgb(246,147,147);stroke-width:0.01" />
<line x1="1.99148e+09" y1="1.02511e+08" x2="1.99148e+09" y2="1.02511e+08" style="stroke:rgb(246,147,147);stroke-width:0.01" />
<line x1="1.99148e+09" y1="1.02511e+08" x2="1.99148e+09" y2="1.02511e+08" style="stroke:rgb(246,147,147);stroke-width:0.01" />
<line x1="1.99148e+09" y1="1.02511e+08" x2="1.99148e+09" y2="1.02511e+08" style="stroke:rgb(246,147,147);stroke-width:0.01" />
<line x1="1.99148e+09" y1="1.02511e+08" x2="1.99148e+09" y2="1.02511e+08" style="stroke:rgb(246,147,147);stroke-width:0.01" />
<line x1="1.99148e+09" y1="1.02511e+08" x2="1.99148e+09" y2="1.02511e+08" style="stroke:rgb(246,147,147);stroke-width:0.01" />
</g>
</svg>
