<svg xmlns="http://www.w3.org/2000/svg" viewBox="-1.5 -1.5 3 3">
<g transform="scale(1, -1)">
<path d="M1043795861.939326 -387365268.887079 L1043795862.164045 -387365268.777528 L1043795862.017977 -387365268.477903 L1043795862.080899 -387365268.150562 L1043795861.835393 -387365268.103371 L1043795861.725843 -387365267.878652 L1043795861.583915 -387365267.947841 L1043795861.633319 -387365268.843973 z " fill="rgb(245,195,195)" />
<path d="M0.000000 0.000000 L1.000000 0.000000 L1.000000 1.000000 L0.000000 1.000000  z" fill="none" stroke="rgb(128,128,128)" stroke-width="0.01" />
<line x1="1.0438e+09" y1="-3.87365e+08" x2="1.0438e+09" y2="-3.87365e+08" style="stroke:rgb(246,147,147);stroke-width:0.01" />
<line x1="1.0438e+09" y1="-3.87365e+08" x2="1.0438e+09" y2="-3.87365e+08" style="stroke:rgb(246,147,147);stroke-width:0.01" />
<line x1="1.0438e+09" y1="-3.87365e+08" x2="1.0438e+09" y2="-3.87365e+08" style="stroke:rgb(246,147,147);stroke-width:0.01" />
<line x1="1.0438e+09" y1="-3.87365e+08" x2="1.0438e+09" y2="-3.87365e+08" style="stroke:rgb(246,147,147);stroke-width:0.01" />
<line x1="1.0438e+09" y1="-3.87365e+08" x2="1.0438e+09" y2="-3.87365e+08" style="stroke:rgb(246,147,147);stroke-width:0.01" />
<line x1="1.0438e+09" y1="-3.87365e+08" x2="1.0438e+09" y2="-3.87365e+08" style="stroke:rgb(246,147,147);stroke-width:0.01" />
<line x1="1.0438e+09" y1="-3.87365e+08" x2="1.0438e+09" y2="-3.87365e+08" style="stroke:rgb(246,147,147);stroke-width:0.01" />
<line x1="1.0438e+09" y1="-3.87365e+08" x2="1.0438e+09" y2="-3.87365e+08" style="stroke:rgb(246,147,147);stroke-width:0.01" />
<line x1="1.0438e+09" y1="-3.87365e+08" x2="1.0438e+09" y2="-3.87365e+08" style="stroke:rgb(246,147,147);stroke-width:0.01" />
<line x1="1.0438e+09" y1="-3.87365e+08" x2="1.0438e+09" y2="-3.87365e+08" style="stroke:rgb(246,147,147);stroke-width:0.01" />
<line x1="1.0438e+09" y1="-3.87365e+08" x2="1.0438e+09" y2="-3.87365e+08" style="stroke:rgb(246,147,147);stroke-width:0.01" />
<line x1="1.0438e+09" y1="-3.87365e+08" x2="1.0438e+09" y2="-3.87365e+08" style="stroke:rgb(246,147,147);stroke-width:0.01" />
<line x1="1.0438e+09" y1="-3.87365e+08" x2="1.0438e+09" y2="-3.87365e+08" style="stroke:rgb(246,147,147);stroke-width:0.01" />
<line x1="1.0438e+09" y1="-3.87365e+08" x2="1.0438e+09" y2="-3.87365e+08" style="stroke:rgb(246,147,147);stroke-width:0.01" />
<line x1="1.0438e+09" y1="-3.87365e+08" x2="1.0438e+09" y2="-3.87365e+08" style="stroke:rgb(246,147,147);stroke-width:0.01" />
<line x1="1.0438e+09" y1="-3.87365e+08" x2="1.0438e+09" y2="-3.87365e+08" style="stroke:rgb(246,147,147);stroke-width:0.01" />
<line x1="1.0438e+09" y1="-3.87365e+08" x2="1.0438e+09" y2="-3.87365e+08" style="stroke:rgb(246,147,147);stroke-width:0.01" />
<line x1="1.0438e+09" y1="-3.87365e+08" x2="1.0438e+09" y2="-3.87365e+08" style="stroke:rgb(246,147,147);stroke-width:0.01" />
<line x1="1.0438e+09" y1="-3.87365e+08" x2="1.0438e+09" y2="-3.87365e+08" style="stroke:rgb(246,147,147);stroke-width:0.01" />
<line x1="1.0438e+09" y1="-3.87365e+08" x2="1.0438e+09" y2="-3.87365e+08" style="stroke:rgb(246,147,147);stroke-width:0.01" />
<line x1="1.0438e+09" y1="-3.87365e+08" x2="1.0438e+09" y2="-3.87365e+08" style="stroke:rgb(246,147,147);stroke-width:0.01" />
<line x1="1.0438e+09" y1="-3.87365e+08" x2="1.0438e+09" y2="-3.87365e+08" style="stroke:rgb(246,147,147);stroke-width:0.01" />
<line x1="1.0438e+09" y1="-3.87365e+08" x2="1.0438e+09" y2="-3.87365e+08" style="stroke:rgb(246,147,147);stroke-width:0.01" />
</g>
</svg>
