<svg xmlns="http://www.w3.org/2000/svg" viewBox="-1.5 -1.5 3 3">
<g transform="scale(1, -1)">
<path d="M0.006147 -0.671725 L0.532131 -0.073993 L0.570341 -0.087094 L0.602091 0.005509 L-0.242188 0.495623 L-0.284658 0.511546 L-0.689528 0.051450 L-0.494337 -0.231316 z " fill="rgb(245,195,195)" />
<path d="M-404908164.699929 -872454186.708715 L-404908163.699929 -872454186.708715 L-404908163.699929 -872454185.708715 L-404908164.699929 -872454185.708715  z" fill="none" stroke="rgb(128,128,128)" stroke-width="0.01" />
<line x1="-0.231215" y1="0.484947" x2="-0.229996" y2="0.488545" style="stroke:rgb(246,147,147);stroke-width:0.01" />
<line x1="0.570341" y1="-0.0870936" x2="0.602091" y2="0.0055089" style="stroke:rgb(246,147,147);stroke-width:0.01" />
<line x1="-0.284009" y1="0.35775" x2="-0.230126" y2="0.488621" style="stroke:rgb(246,147,147);stroke-width:0.01" />
<line x1="-0.284009" y1="0.35775" x2="-0.284658" y2="0.511546" style="stroke:rgb(246,147,147);stroke-width:0.01" />
<line x1="-0.231553" y1="0.486788" x2="-0.230126" y2="0.488621" style="stroke:rgb(246,147,147);stroke-width:0.01" />
<line x1="0.0061467" y1="-0.671725" x2="0.602091" y2="0.0055089" style="stroke:rgb(246,147,147);stroke-width:0.01" />
<line x1="-0.689528" y1="0.0514496" x2="-0.284658" y2="0.511546" style="stroke:rgb(246,147,147);stroke-width:0.01" />
<line x1="-0.231553" y1="0.486788" x2="-0.229996" y2="0.488545" style="stroke:rgb(246,147,147);stroke-width:0.01" />
<line x1="-0.494337" y1="-0.231316" x2="-0.611513" y2="0.0807435" style="stroke:rgb(246,147,147);stroke-width:0.01" />
<line x1="0.381152" y1="-0.0222287" x2="0.356541" y2="0.0212946" style="stroke:rgb(246,147,147);stroke-width:0.01" />
<line x1="-0.494337" y1="-0.231316" x2="-0.689528" y2="0.0514496" style="stroke:rgb(246,147,147);stroke-width:0.01" />
<line x1="0.356541" y1="0.0212946" x2="0.13728" y2="0.275337" style="stroke:rgb(246,147,147);stroke-width:0.01" />
<line x1="-0.689528" y1="0.0514496" x2="-0.611513" y2="0.0807435" style="stroke:rgb(246,147,147);stroke-width:0.01" />
<line x1="-0.0831336" y1="0.363486" x2="-0.213384" y2="0.478902" style="stroke:rgb(246,147,147);stroke-width:0.01" />
<line x1="0.0061467" y1="-0.671725" x2="-0.494337" y2="-0.231316" style="stroke:rgb(246,147,147);stroke-width:0.01" />
<line x1="0.381152" y1="-0.0222287" x2="-0.242188" y2="0.495623" style="stroke:rgb(246,147,147);stroke-width:0.01" />
<line x1="0.356541" y1="0.0212946" x2="-0.0831336" y2="0.363486" style="stroke:rgb(246,147,147);stroke-width:0.01" />
<line x1="0.602091" y1="0.0055089" x2="-0.242188" y2="0.495623" style="stroke:rgb(246,147,147);stroke-width:0.01" />
<line x1="-0.242188" y1="0.495623" x2="-0.284658" y2="0.511546" style="stroke:rgb(246,147,147);stroke-width:0.01" />
<line x1="0.570341" y1="-0.0870936" x2="0.381152" y2="-0.0222287" style="stroke:rgb(246,147,147);stroke-width:0.01" />
<line x1="-0.213384" y1="0.478902" x2="-0.231215" y2="0.484947" style="stroke:rgb(246,147,147);stroke-width:0.01" />
<line x1="0.13728" y1="0.275337" x2="-0.284009" y2="0.35775" style="stroke:rgb(246,147,147);stroke-width:0.01" />
</g>
</svg>
