<svg xmlns="http://www.w3.org/2000/svg" viewBox="-1.5 -1.5 3 3">
<g transform="scale(1, -1)">
<path d="M404908164.706076 872454186.036990 L404908165.232060 872454186.634722 L404908165.270270 872454186.621622 L404908165.302020 872454186.714224 L404908164.457741 872454187.204338 L404908164.415271 872454187.220261 L404908164.010401 872454186.760165 L404908164.205592 872454186.477399 z " fill="rgb(245,195,195)" />
<path d="M0.000000 0.000000 L1.000000 0.000000 L1.000000 1.000000 L0.000000 1.000000  z" fill="none" stroke="rgb(128,128,128)" stroke-width="0.01" />
<line x1="4.04908e+08" y1="8.72454e+08" x2="4.04908e+08" y2="8.72454e+08" style="stroke:rgb(246,147,147);stroke-width:0.01" />
<line x1="4.04908e+08" y1="8.72454e+08" x2="4.04908e+08" y2="8.72454e+08" style="stroke:rgb(246,147,147);stroke-width:0.01" />
<line x1="4.04908e+08" y1="8.72454e+08" x2="4.04908e+08" y2="8.72454e+08" style="stroke:rgb(246,147,147);stroke-width:0.01" />
<line x1="4.04908e+08" y1="8.72454e+08" x2="4.04908e+08" y2="8.72454e+08" style="stroke:rgb(246,147,147);stroke-width:0.01" />
<line x1="4.04908e+08" y1="8.72454e+08" x2="4.04908e+08" y2="8.72454e+08" style="stroke:rgb(246,147,147);stroke-width:0.01" />
<line x1="4.04908e+08" y1="8.72454e+08" x2="4.04908e+08" y2="8.72454e+08" style="stroke:rgb(246,147,147);stroke-width:0.01" />
<line x1="4.04908e+08" y1="8.72454e+08" x2="4.04908e+08" y2="8.72454e+08" style="stroke:rgb(246,147,147);stroke-width:0.01" />
<line x1="4.04908e+08" y1="8.72454e+08" x2="4.04908e+08" y2="8.72454e+08" style="stroke:rgb(246,147,147);stroke-width:0.01" />
<line x1="4.04908e+08" y1="8.72454e+08" x2="4.04908e+08" y2="8.72454e+08" style="stroke:rgb(246,147,147);stroke-width:0.01" />
<line x1="4.04908e+08" y1="8.72454e+08" x2="4.04908e+08" y2="8.72454e+08" style="stroke:rgb(246,147,147);stroke-width:0.01" />
<line x1="4.04908e+08" y1="8.72454e+08" x2="4.04908e+08" y2="8.72454e+08" style="stroke:rgb(246,147,147);stroke-width:0.01" />
<line x1="4.04908e+08" y1="8.72454e+08" x2="4.04908e+08" y2="8.72454e+08" style="stroke:rgb(246,147,147);stroke-width:0.01" />
<line x1="4.04908e+08" y1="8.72454e+08" x2="4.04908e+08" y2="8.72454e+08" style="stroke:rgb(246,147,147);stroke-width:0.01" />
<line x1="4.04908e+08" y1="8.72454e+08" x2="4.04908e+08" y2="8.72454e+08" style="stroke:rgb(246,147,147);stroke-width:0.01" />
<line x1="4.04908e+08" y1="8.72454e+08" x2="4.04908e+08" y2="8.72454e+08" style="stroke:rgb(246,147,147);stroke-width:0.01" />
<line x1="4.04908e+08" y1="8.72454e+08" x2="4.04908e+08" y2="8.72454e+08" style="stroke:rgb(246,147,147);stroke-width:0.01" />
<line x1="4.04908e+08" y1="8.72454e+08" x2="4.04908e+08" y2="8.72454e+08" style="stroke:rgb(246,147,147);stroke-width:0.01" />
<line x1="4.04908e+08" y1="8.72454e+08" x2="4.04908e+08" y2="8.72454e+08" style="stroke:rgb(246,147,147);stroke-width:0.01" />
<line x1="4.04908e+08" y1="8.72454e+08" x2="4.04908e+08" y2="8.72454e+08" style="stroke:rgb(246,147,147);stroke-width:0.01" />
<line x1="4.04908e+08" y1="8.72454e+08" x2="4.04908e+08" y2="8.72454e+08" style="stroke:rgb(246,147,147);stroke-width:0.01" />
<line x1="4.04908e+08" y1="8.72454e+08" x2="4.04908e+08" y2="8.72454e+08" style="stroke:rgb(246,147,147);stroke-width:0.01" />
<line x1="4.04908e+08" y1="8.72454e+08" x2="4.04908e+08" y2="8.72454e+08" style="stroke:rgb(246,147,147);stroke-width:0.01" />
</g>
</svg>
