<svg xmlns="http://www.w3.org/2000/svg" viewBox="-1.5 -1.5 3 3">
<g transform="scale(1, -1)">
<path d="M72826024.023539 1819137287.933761 L72826024.117250 1819137288.118663 L72826024.262805 1819137288.348145 L72826024.240884 1819137288.362604 L72826024.255949 1819137288.392330 L72826023.836141 1819137288.693448 L72826023.545995 1819137288.407809 L72826023.720194 1819137288.224424 L72826023.702235 1819137288.188659 L72826023.801530 1819137288.138799 L72826023.809497 1819137288.149539 L72826023.915829 1819137288.045319 L72826023.964014 1819137288.094480 L72826024.005704 1819137287.942800 z " fill="rgb(245,195,195)" />
<path d="M0.000000 0.000000 L1.000000 0.000000 L1.000000 1.000000 L0.000000 1.000000  z" fill="none" stroke="rgb(128,128,128)" stroke-width="0.01" />
<line x1="7.2826e+07" y1="1.81914e+09" x2="7.2826e+07" y2="1.81914e+09" style="stroke:rgb(246,147,147);stroke-width:0.01" />
<line x1="7.2826e+07" y1="1.81914e+09" x2="7.2826e+07" y2="1.81914e+09" style="stroke:rgb(246,147,147);stroke-width:0.01" />
<line x1="7.2826e+07" y1="1.81914e+09" x2="7.2826e+07" y2="1.81914e+09" style="stroke:rgb(246,147,147);stroke-width:0.01" />
<line x1="7.2826e+07" y1="1.81914e+09" x2="7.2826e+07" y2="1.81914e+09" style="stroke:rgb(246,147,147);stroke-width:0.01" />
<line x1="7.2826e+07" y1="1.81914e+09" x2="7.2826e+07" y2="1.81914e+09" style="stroke:rgb(246,147,147);stroke-width:0.01" />
<line x1="7.2826e+07" y1="1.81914e+09" x2="7.2826e+07" y2="1.81914e+09" style="stroke:rgb(246,147,147);stroke-width:0.01" />
<line x1="7.2826e+07" y1="1.81914e+09" x2="7.2826e+07" y2="1.81914e+09" style="stroke:rgb(246,147,147);stroke-width:0.01" />
<line x1="7.2826e+07" y1="1.81914e+09" x2="7.2826e+07" y2="1.81914e+09" style="stroke:rgb(246,147,147);stroke-width:0.01" />
<line x1="7.2826e+07" y1="1.81914e+09" x2="7.2826e+07" y2="1.81914e+09" style="stroke:rgb(246,147,147);stroke-width:0.01" />
<line x1="7.2826e+07" y1="1.81914e+09" x2="7.2826e+07" y2="1.81914e+09" style="stroke:rgb(246,147,147);stroke-width:0.01" />
<line x1="7.2826e+07" y1="1.81914e+09" x2="7.2826e+07" y2="1.81914e+09" style="stroke:rgb(246,147,147);stroke-width:0.01" />
<line x1="7.2826e+07" y1="1.81914e+09" x2="7.2826e+07" y2="1.81914e+09" style="stroke:rgb(246,147,147);stroke-width:0.01" />
<line x1="7.2826e+07" y1="1.81914e+09" x2="7.2826e+07" y2="1.81914e+09" style="stroke:rgb(246,147,147);stroke-width:0.01" />
<line x1="7.2826e+07" y1="1.81914e+09" x2="7.2826e+07" y2="1.81914e+09" style="stroke:rgb(246,147,147);stroke-width:0.01" />
<line x1="7.2826e+07" y1="1.81914e+09" x2="7.2826e+07" y2="1.81914e+09" style="stroke:rgb(246,147,147);stroke-width:0.01" />
<line x1="7.2826e+07" y1="1.81914e+09" x2="7.2826e+07" y2="1.81914e+09" style="stroke:rgb(246,147,147);stroke-width:0.01" />
<line x1="7.2826e+07" y1="1.81914e+09" x2="7.2826e+07" y2="1.81914e+09" style="stroke:rgb(246,147,147);stroke-width:0.01" />
<line x1="7.2826e+07" y1="1.81914e+09" x2="7.2826e+07" y2="1.81914e+09" style="stroke:rgb(246,147,147);stroke-width:0.01" />
<line x1="7.2826e+07" y1="1.81914e+09" x2="7.2826e+07" y2="1.81914e+09" style="stroke:rgb(246,147,147);stroke-width:0.01" />
<line x1="7.2826e+07" y1="1.81914e+09" x2="7.2826e+07" y2="1.81914e+09" style="stroke:rgb(246,147,147);stroke-width:0.01" />
<line x1="7.2826e+07" y1="1.81914e+09" x2="7.2826e+07" y2="1.81914e+09" style="stroke:rgb(246,147,147);stroke-width:0.01" />
<line x1="7.2826e+07" y1="1.81914e+09" x2="7.2826e+07" y2="1.81914e+09" style="stroke:rgb(246,147,147);stroke-width:0.01" />
</g>
</svg>
