<svg xmlns="http://www.w3.org/2000/svg" viewBox="-1.5 -1.5 3 3">
<g transform="scale(1, -1)">
<path d="M-0.019346 -0.507748 L0.220654 -0.437748 L0.127321 -0.117748 L0.244654 0.194252 L0.010654 0.282252 L-0.059346 0.522252 L-0.210925 0.478041 L-0.313667 -0.413551 z " fill="rgb(245,195,195)" />
<path d="M-382922144.531346 -1075085196.573748 L-382922143.531346 -1075085196.573748 L-382922143.531346 -1075085195.573748 L-382922144.531346 -1075085195.573748  z" fill="none" stroke="rgb(128,128,128)" stroke-width="0.01" />
<line x1="-0.220057" y1="-0.443511" x2="-0.0580909" y2="0.391899" style="stroke:rgb(246,147,147);stroke-width:0.01" />
<line x1="-0.313667" y1="-0.413551" x2="-0.210925" y2="0.478041" style="stroke:rgb(246,147,147);stroke-width:0.01" />
<line x1="-0.0193458" y1="-0.507748" x2="0.0448736" y2="-0.266137" style="stroke:rgb(246,147,147);stroke-width:0.01" />
<line x1="-0.0193458" y1="-0.507748" x2="0.244654" y2="0.194252" style="stroke:rgb(246,147,147);stroke-width:0.01" />
<line x1="-0.220057" y1="-0.443511" x2="-0.135749" y2="-0.258706" style="stroke:rgb(246,147,147);stroke-width:0.01" />
<line x1="-0.313667" y1="-0.413551" x2="-0.296435" y2="-0.382363" style="stroke:rgb(246,147,147);stroke-width:0.01" />
<line x1="-0.173575" y1="-0.29303" x2="-0.182794" y2="-0.253689" style="stroke:rgb(246,147,147);stroke-width:0.01" />
<line x1="0.220654" y1="-0.437748" x2="-0.0593458" y2="0.522252" style="stroke:rgb(246,147,147);stroke-width:0.01" />
<line x1="-0.296435" y1="-0.382363" x2="-0.148415" y2="-0.214762" style="stroke:rgb(246,147,147);stroke-width:0.01" />
<line x1="-0.129697" y1="-0.261126" x2="-0.148415" y2="-0.214762" style="stroke:rgb(246,147,147);stroke-width:0.01" />
<line x1="-0.296435" y1="-0.382363" x2="-0.129697" y2="-0.261126" style="stroke:rgb(246,147,147);stroke-width:0.01" />
<line x1="-0.0193458" y1="-0.507748" x2="-0.202241" y2="-0.275708" style="stroke:rgb(246,147,147);stroke-width:0.01" />
<line x1="-0.135749" y1="-0.258706" x2="-0.163996" y2="-0.232404" style="stroke:rgb(246,147,147);stroke-width:0.01" />
<line x1="-0.129697" y1="-0.261126" x2="-0.163996" y2="-0.232404" style="stroke:rgb(246,147,147);stroke-width:0.01" />
<line x1="-0.0193458" y1="-0.507748" x2="0.220654" y2="-0.437748" style="stroke:rgb(246,147,147);stroke-width:0.01" />
<line x1="-0.210925" y1="0.478041" x2="-0.0593458" y2="0.522252" style="stroke:rgb(246,147,147);stroke-width:0.01" />
<line x1="-0.173575" y1="-0.29303" x2="-0.202241" y2="-0.275708" style="stroke:rgb(246,147,147);stroke-width:0.01" />
<line x1="-0.0580909" y1="0.391899" x2="-0.210925" y2="0.478041" style="stroke:rgb(246,147,147);stroke-width:0.01" />
<line x1="-0.223346" y1="0.370252" x2="-0.0580909" y2="0.391899" style="stroke:rgb(246,147,147);stroke-width:0.01" />
<line x1="0.244654" y1="0.194252" x2="-0.223346" y2="0.370252" style="stroke:rgb(246,147,147);stroke-width:0.01" />
<line x1="-0.0193458" y1="-0.507748" x2="-0.313667" y2="-0.413551" style="stroke:rgb(246,147,147);stroke-width:0.01" />
<line x1="0.0448736" y1="-0.266137" x2="-0.148415" y2="-0.214762" style="stroke:rgb(246,147,147);stroke-width:0.01" />
<line x1="-0.135749" y1="-0.258706" x2="-0.182794" y2="-0.253689" style="stroke:rgb(246,147,147);stroke-width:0.01" />
</g>
</svg>
