<svg xmlns="http://www.w3.org/2000/svg" viewBox="-1.5 -1.5 3 3">
<g transform="scale(1, -1)">
<path d="M382922144.512000 1075085196.066000 L382922144.752000 1075085196.136000 L382922144.658667 1075085196.456000 L382922144.776000 1075085196.768000 L382922144.542000 1075085196.856000 L382922144.472000 1075085197.096000 L382922144.320421 1075085197.051789 L382922144.217679 1075085196.160197 z " fill="rgb(245,195,195)" />
<path d="M0.000000 0.000000 L1.000000 0.000000 L1.000000 1.000000 L0.000000 1.000000  z" fill="none" stroke="rgb(128,128,128)" stroke-width="0.01" />
<line x1="3.82922e+08" y1="1.07509e+09" x2="3.82922e+08" y2="1.07509e+09" style="stroke:rgb(246,147,147);stroke-width:0.01" />
<line x1="3.82922e+08" y1="1.07509e+09" x2="3.82922e+08" y2="1.07509e+09" style="stroke:rgb(246,147,147);stroke-width:0.01" />
<line x1="3.82922e+08" y1="1.07509e+09" x2="3.82922e+08" y2="1.07509e+09" style="stroke:rgb(246,147,147);stroke-width:0.01" />
<line x1="3.82922e+08" y1="1.07509e+09" x2="3.82922e+08" y2="1.07509e+09" style="stroke:rgb(246,147,147);stroke-width:0.01" />
<line x1="3.82922e+08" y1="1.07509e+09" x2="3.82922e+08" y2="1.07509e+09" style="stroke:rgb(246,147,147);stroke-width:0.01" />
<line x1="3.82922e+08" y1="1.07509e+09" x2="3.82922e+08" y2="1.07509e+09" style="stroke:rgb(246,147,147);stroke-width:0.01" />
<line x1="3.82922e+08" y1="1.07509e+09" x2="3.82922e+08" y2="1.07509e+09" style="stroke:rgb(246,147,147);stroke-width:0.01" />
<line x1="3.82922e+08" y1="1.07509e+09" x2="3.82922e+08" y2="1.07509e+09" style="stroke:rgb(246,147,147);stroke-width:0.01" />
<line x1="3.82922e+08" y1="1.07509e+09" x2="3.82922e+08" y2="1.07509e+09" style="stroke:rgb(246,147,147);stroke-width:0.01" />
<line x1="3.82922e+08" y1="1.07509e+09" x2="3.82922e+08" y2="1.07509e+09" style="stroke:rgb(246,147,147);stroke-width:0.01" />
<line x1="3.82922e+08" y1="1.07509e+09" x2="3.82922e+08" y2="1.07509e+09" style="stroke:rgb(246,147,147);stroke-width:0.01" />
<line x1="3.82922e+08" y1="1.07509e+09" x2="3.82922e+08" y2="1.07509e+09" style="stroke:rgb(246,147,147);stroke-width:0.01" />
<line x1="3.82922e+08" y1="1.07509e+09" x2="3.82922e+08" y2="1.07509e+09" style="stroke:rgb(246,147,147);stroke-width:0.01" />
<line x1="3.82922e+08" y1="1.07509e+09" x2="3.82922e+08" y2="1.07509e+09" style="stroke:rgb(246,147,147);stroke-width:0.01" />
<line x1="3.82922e+08" y1="1.07509e+09" x2="3.82922e+08" y2="1.07509e+09" style="stroke:rgb(246,147,147);stroke-width:0.01" />
<line x1="3.82922e+08" y1="1.07509e+09" x2="3.82922e+08" y2="1.07509e+09" style="stroke:rgb(246,147,147);stroke-width:0.01" />
<line x1="3.82922e+08" y1="1.07509e+09" x2="3.82922e+08" y2="1.07509e+09" style="stroke:rgb(246,147,147);stroke-width:0.01" />
<line x1="3.82922e+08" y1="1.07509e+09" x2="3.82922e+08" y2="1.07509e+09" style="stroke:rgb(246,147,147);stroke-width:0.01" />
<line x1="3.82922e+08" y1="1.07509e+09" x2="3.82922e+08" y2="1.07509e+09" style="stroke:rgb(246,147,147);stroke-width:0.01" />
<line x1="3.82922e+08" y1="1.07509e+09" x2="3.82922e+08" y2="1.07509e+09" style="stroke:rgb(246,147,147);stroke-width:0.01" />
<line x1="3.82922e+08" y1="1.07509e+09" x2="3.82922e+08" y2="1.07509e+09" style="stroke:rgb(246,147,147);stroke-width:0.01" />
<line x1="3.82922e+08" y1="1.07509e+09" x2="3.82922e+08" y2="1.07509e+09" style="stroke:rgb(246,147,147);stroke-width:0.01" />
<line x1="3.82922e+08" y1="1.07509e+09" x2="3.82922e+08" y2="1.07509e+09" style="stroke:rgb(246,147,147);stroke-width:0.01" />
</g>
</svg>
