<svg xmlns="http://www.w3.org/2000/svg" viewBox="-1.5 -1.5 3 3">
<g transform="scale(1, -1)">
<path d="M0.043845 -0.670321 L0.535446 -0.044005 L0.574331 -0.054940 L0.600832 0.039299 L-0.269628 0.481246 L-0.312925 0.494760 L-0.691329 0.012661 L-0.480573 -0.258701 z " fill="rgb(245,195,195)" />
<path d="M-718404247.296147 -3110688590.865908 L-718404246.296147 -3110688590.865908 L-718404246.296147 -3110688589.865908 L-718404247.296147 -3110688589.865908  z" fill="none" stroke="rgb(128,128,128)" stroke-width="0.01" />
<line x1="-0.258074" y1="0.471203" x2="-0.257058" y2="0.474864" style="stroke:rgb(246,147,147);stroke-width:0.01" />
<line x1="0.574331" y1="-0.0549399" x2="0.600832" y2="0.0392989" style="stroke:rgb(246,147,147);stroke-width:0.01" />
<line x1="-0.303644" y1="0.341243" x2="-0.312925" y2="0.49476" style="stroke:rgb(246,147,147);stroke-width:0.01" />
<line x1="-0.303644" y1="0.341243" x2="-0.257192" y2="0.474932" style="stroke:rgb(246,147,147);stroke-width:0.01" />
<line x1="-0.258514" y1="0.473022" x2="-0.257192" y2="0.474932" style="stroke:rgb(246,147,147);stroke-width:0.01" />
<line x1="-0.480573" y1="-0.258701" x2="-0.615081" y2="0.0462886" style="stroke:rgb(246,147,147);stroke-width:0.01" />
<line x1="0.0438446" y1="-0.670321" x2="0.600832" y2="0.0392989" style="stroke:rgb(246,147,147);stroke-width:0.01" />
<line x1="-0.691329" y1="0.0126615" x2="-0.312925" y2="0.49476" style="stroke:rgb(246,147,147);stroke-width:0.01" />
<line x1="-0.258514" y1="0.473022" x2="-0.257058" y2="0.474864" style="stroke:rgb(246,147,147);stroke-width:0.01" />
<line x1="0.381799" y1="-0.000797524" x2="0.354783" y2="0.0412756" style="stroke:rgb(246,147,147);stroke-width:0.01" />
<line x1="-0.480573" y1="-0.258701" x2="-0.691329" y2="0.0126615" style="stroke:rgb(246,147,147);stroke-width:0.01" />
<line x1="0.354783" y1="0.0412756" x2="0.121607" y2="0.28261" style="stroke:rgb(246,147,147);stroke-width:0.01" />
<line x1="-0.103407" y1="0.358246" x2="-0.239931" y2="0.466168" style="stroke:rgb(246,147,147);stroke-width:0.01" />
<line x1="0.0438446" y1="-0.670321" x2="-0.480573" y2="-0.258701" style="stroke:rgb(246,147,147);stroke-width:0.01" />
<line x1="-0.691329" y1="0.0126615" x2="-0.615081" y2="0.0462886" style="stroke:rgb(246,147,147);stroke-width:0.01" />
<line x1="0.381799" y1="-0.000797524" x2="-0.269628" y2="0.481246" style="stroke:rgb(246,147,147);stroke-width:0.01" />
<line x1="0.354783" y1="0.0412756" x2="-0.103407" y2="0.358246" style="stroke:rgb(246,147,147);stroke-width:0.01" />
<line x1="0.600832" y1="0.0392989" x2="-0.269628" y2="0.481246" style="stroke:rgb(246,147,147);stroke-width:0.01" />
<line x1="-0.269628" y1="0.481246" x2="-0.312925" y2="0.49476" style="stroke:rgb(246,147,147);stroke-width:0.01" />
<line x1="0.574331" y1="-0.0549399" x2="0.381799" y2="-0.000797524" style="stroke:rgb(246,147,147);stroke-width:0.01" />
<line x1="-0.239931" y1="0.466168" x2="-0.258074" y2="0.471203" style="stroke:rgb(246,147,147);stroke-width:0.01" />
<line x1="0.121607" y1="0.28261" x2="-0.303644" y2="0.341243" style="stroke:rgb(246,147,147);stroke-width:0.01" />
</g>
</svg>
