<svg xmlns="http://www.w3.org/2000/svg" viewBox="-1.5 -1.5 3 3">
<g transform="scale(1, -1)">
<path d="M1534573273.445157 1323059147.585199 L1534573273.509487 1323059147.782258 L1534573273.618232 1323059148.031301 L1534573273.594357 1323059148.042238 L1534573273.604699 1323059148.073918 L1534573273.143777 1323059148.307288 L1534573272.900730 1323059147.980633 L1534573273.100926 1323059147.826049 L1534573273.088649 1323059147.787958 L1534573273.194402 1323059147.753870 L1534573273.200632 1323059147.765703 L1534573273.321653 1323059147.678971 L1534573273.361752 1323059147.734923 L1534573273.426150 1323059147.591404 z " fill="rgb(245,195,195)" />
<path d="M0.000000 0.000000 L1.000000 0.000000 L1.000000 1.000000 L0.000000 1.000000  z" fill="none" stroke="rgb(128,128,128)" stroke-width="0.01" />
<line x1="1.53457e+09" y1="1.32306e+09" x2="1.53457e+09" y2="1.32306e+09" style="stroke:rgb(246,147,147);stroke-width:0.01" />
<line x1="1.53457e+09" y1="1.32306e+09" x2="1.53457e+09" y2="1.32306e+09" style="stroke:rgb(246,147,147);stroke-width:0.01" />
<line x1="1.53457e+09" y1="1.32306e+09" x2="1.53457e+09" y2="1.32306e+09" style="stroke:rgb(246,147,147);stroke-width:0.01" />
<line x1="1.53457e+09" y1="1.32306e+09" x2="1.53457e+09" y2="1.32306e+09" style="stroke:rgb(246,147,147);stroke-width:0.01" />
<line x1="1.53457e+09" y1="1.32306e+09" x2="1.53457e+09" y2="1.32306e+09" style="stroke:rgb(246,147,147);stroke-width:0.01" />
<line x1="1.53457e+09" y1="1.32306e+09" x2="1.53457e+09" y2="1.32306e+09" style="stroke:rgb(246,147,147);stroke-width:0.01" />
<line x1="1.53457e+09" y1="1.32306e+09" x2="1.53457e+09" y2="1.32306e+09" style="stroke:rgb(246,147,147);stroke-width:0.01" />
<line x1="1.53457e+09" y1="1.32306e+09" x2="1.53457e+09" y2="1.32306e+09" style="stroke:rgb(246,147,147);stroke-width:0.01" />
<line x1="1.53457e+09" y1="1.32306e+09" x2="1.53457e+09" y2="1.32306e+09" style="stroke:rgb(246,147,147);stroke-width:0.01" />
<line x1="1.53457e+09" y1="1.32306e+09" x2="1.53457e+09" y2="1.32306e+09" style="stroke:rgb(246,147,147);stroke-width:0.01" />
<line x1="1.53457e+09" y1="1.32306e+09" x2="1.53457e+09" y2="1.32306e+09" style="stroke:rgb(246,147,147);stroke-width:0.01" />
<line x1="1.53457e+09" y1="1.32306e+09" x2="1.53457e+09" y2="1.32306e+09" style="stroke:rgb(246,147,147);stroke-width:0.01" />
<line x1="1.53457e+09" y1="1.32306e+09" x2="1.53457e+09" y2="1.32306e+09" style="stroke:rgb(246,147,147);stroke-width:0.01" />
<line x1="1.53457e+09" y1="1.32306e+09" x2="1.53457e+09" y2="1.32306e+09" style="stroke:rgb(246,147,147);stroke-width:0.01" />
<line x1="1.53457e+09" y1="1.32306e+09" x2="1.53457e+09" y2="1.32306e+09" style="stroke:rgb(246,147,147);stroke-width:0.01" />
<line x1="1.53457e+09" y1="1.32306e+09" x2="1.53457e+09" y2="1.32306e+09" style="stroke:rgb(246,147,147);stroke-width:0.01" />
<line x1="1.53457e+09" y1="1.32306e+09" x2="1.53457e+09" y2="1.32306e+09" style="stroke:rgb(246,147,147);stroke-width:0.01" />
<line x1="1.53457e+09" y1="1.32306e+09" x2="1.53457e+09" y2="1.32306e+09" style="stroke:rgb(246,147,147);stroke-width:0.01" />
<line x1="1.53457e+09" y1="1.32306e+09" x2="1.53457e+09" y2="1.32306e+09" style="stroke:rgb(246,147,147);stroke-width:0.01" />
<line x1="1.53457e+09" y1="1.32306e+09" x2="1.53457e+09" y2="1.32306e+09" style="stroke:rgb(246,147,147);stroke-width:0.01" />
<line x1="1.53457e+09" y1="1.32306e+09" x2="1.53457e+09" y2="1.32306e+09" style="stroke:rgb(246,147,147);stroke-width:0.01" />
<line x1="1.53457e+09" y1="1.32306e+09" x2="1.53457e+09" y2="1.32306e+09" style="stroke:rgb(246,147,147);stroke-width:0.01" />
</g>
</svg>
