<svg xmlns="http://www.w3.org/2000/svg" viewBox="-1.5 -1.5 3 3">
<g transform="scale(1, -1)">
<path d="M0.122971 -0.267780 L0.187301 -0.070721 L0.296047 0.178322 L0.272171 0.189259 L0.282513 0.220938 L-0.178409 0.454308 L-0.421456 0.127654 L-0.221259 -0.026931 L-0.233537 -0.065022 L-0.127784 -0.099109 L-0.121554 -0.087277 L-0.000533 -0.174009 L0.039566 -0.118056 L0.103964 -0.261575 z " fill="rgb(245,195,195)" />
<path d="M-1534573273.322186 -1323059147.852980 L-1534573272.322186 -1323059147.852980 L-1534573272.322186 -1323059146.852980 L-1534573273.322186 -1323059146.852980  z" fill="none" stroke="rgb(128,128,128)" stroke-width="0.01" />
<line x1="0.20334" y1="-0.0148719" x2="0.296047" y2="0.178322" style="stroke:rgb(246,147,147);stroke-width:0.01" />
<line x1="0.103964" y1="-0.261575" x2="0.296047" y2="0.178322" style="stroke:rgb(246,147,147);stroke-width:0.01" />
<line x1="-0.0371241" y1="0.0528578" x2="0.0916329" y2="0.317583" style="stroke:rgb(246,147,147);stroke-width:0.01" />
<line x1="-0.127784" y1="-0.0991093" x2="0.0916329" y2="0.317583" style="stroke:rgb(246,147,147);stroke-width:0.01" />
<line x1="0.122971" y1="-0.26778" x2="0.282513" y2="0.220938" style="stroke:rgb(246,147,147);stroke-width:0.01" />
<line x1="-0.233537" y1="-0.0650219" x2="-0.0818929" y2="0.405441" style="stroke:rgb(246,147,147);stroke-width:0.01" />
<line x1="-0.194185" y1="0.402888" x2="-0.178409" y2="0.454308" style="stroke:rgb(246,147,147);stroke-width:0.01" />
<line x1="-0.000533272" y1="-0.174009" x2="0.282513" y2="0.220938" style="stroke:rgb(246,147,147);stroke-width:0.01" />
<line x1="-0.151864" y1="0.308571" x2="-0.0818929" y2="0.405441" style="stroke:rgb(246,147,147);stroke-width:0.01" />
<line x1="-0.421456" y1="0.127654" x2="-0.178409" y2="0.454308" style="stroke:rgb(246,147,147);stroke-width:0.01" />
<line x1="0.185497" y1="0.167099" x2="0.226313" y2="0.210266" style="stroke:rgb(246,147,147);stroke-width:0.01" />
<line x1="0.20334" y1="-0.0148719" x2="0.226313" y2="0.210266" style="stroke:rgb(246,147,147);stroke-width:0.01" />
<line x1="0.103964" y1="-0.261575" x2="-0.194185" y2="0.402888" style="stroke:rgb(246,147,147);stroke-width:0.01" />
<line x1="0.0585903" y1="0.287096" x2="-0.151864" y2="0.308571" style="stroke:rgb(246,147,147);stroke-width:0.01" />
<line x1="0.185497" y1="0.167099" x2="0.0585903" y2="0.287096" style="stroke:rgb(246,147,147);stroke-width:0.01" />
<line x1="-0.127784" y1="-0.0991093" x2="-0.421456" y2="0.127654" style="stroke:rgb(246,147,147);stroke-width:0.01" />
<line x1="-0.000533272" y1="-0.174009" x2="-0.421456" y2="0.127654" style="stroke:rgb(246,147,147);stroke-width:0.01" />
<line x1="0.20334" y1="-0.0148719" x2="-0.0371241" y2="0.0528578" style="stroke:rgb(246,147,147);stroke-width:0.01" />
<line x1="-0.127784" y1="-0.0991093" x2="-0.233537" y2="-0.0650219" style="stroke:rgb(246,147,147);stroke-width:0.01" />
<line x1="0.122971" y1="-0.26778" x2="0.103964" y2="-0.261575" style="stroke:rgb(246,147,147);stroke-width:0.01" />
<line x1="0.282513" y1="0.220938" x2="-0.178409" y2="0.454308" style="stroke:rgb(246,147,147);stroke-width:0.01" />
<line x1="0.296047" y1="0.178322" x2="-0.194185" y2="0.402888" style="stroke:rgb(246,147,147);stroke-width:0.01" />
</g>
</svg>
