<svg xmlns="http://www.w3.org/2000/svg" viewBox="-1.5 -1.5 3 3">
<g transform="scale(1, -1)">
<path d="M0.147860 -0.254884 L0.193174 -0.052604 L0.277762 0.205646 L0.252956 0.214265 L0.260241 0.246784 L-0.220771 0.435300 L-0.431679 0.087028 L-0.217699 -0.047834 L-0.226302 -0.086919 L-0.117788 -0.110803 L-0.112710 -0.098432 L0.016004 -0.173272 L0.050605 -0.113762 L0.128349 -0.250513 z " fill="rgb(245,195,195)" />
<path d="M-614028082.968183 119578236.418907 L-614028081.968183 119578236.418907 L-614028081.968183 119578237.418907 L-614028082.968183 119578237.418907  z" fill="none" stroke="rgb(128,128,128)" stroke-width="0.01" />
<line x1="0.168779" y1="0.18397" x2="0.205309" y2="0.230819" style="stroke:rgb(246,147,147);stroke-width:0.01" />
<line x1="-0.431679" y1="0.0870283" x2="-0.220771" y2="0.4353" style="stroke:rgb(246,147,147);stroke-width:0.01" />
<line x1="-0.180498" y1="0.292745" x2="-0.120048" y2="0.395825" style="stroke:rgb(246,147,147);stroke-width:0.01" />
<line x1="0.0160039" y1="-0.173272" x2="0.260241" y2="0.246784" style="stroke:rgb(246,147,147);stroke-width:0.01" />
<line x1="-0.117788" y1="-0.110803" x2="0.0610407" y2="0.324853" style="stroke:rgb(246,147,147);stroke-width:0.01" />
<line x1="-0.0419788" y1="0.049091" x2="0.0610407" y2="0.324853" style="stroke:rgb(246,147,147);stroke-width:0.01" />
<line x1="0.203833" y1="0.00451724" x2="0.277762" y2="0.205646" style="stroke:rgb(246,147,147);stroke-width:0.01" />
<line x1="0.128349" y1="-0.250513" x2="0.277762" y2="0.205646" style="stroke:rgb(246,147,147);stroke-width:0.01" />
<line x1="0.14786" y1="-0.254884" x2="0.260241" y2="0.246784" style="stroke:rgb(246,147,147);stroke-width:0.01" />
<line x1="-0.226302" y1="-0.086919" x2="-0.120048" y2="0.395825" style="stroke:rgb(246,147,147);stroke-width:0.01" />
<line x1="-0.23159" y1="0.382613" x2="-0.220771" y2="0.4353" style="stroke:rgb(246,147,147);stroke-width:0.01" />
<line x1="0.0310445" y1="0.291365" x2="-0.180498" y2="0.292745" style="stroke:rgb(246,147,147);stroke-width:0.01" />
<line x1="0.203833" y1="0.00451724" x2="-0.0419788" y2="0.049091" style="stroke:rgb(246,147,147);stroke-width:0.01" />
<line x1="0.203833" y1="0.00451724" x2="0.205309" y2="0.230819" style="stroke:rgb(246,147,147);stroke-width:0.01" />
<line x1="-0.117788" y1="-0.110803" x2="-0.226302" y2="-0.086919" style="stroke:rgb(246,147,147);stroke-width:0.01" />
<line x1="0.14786" y1="-0.254884" x2="0.128349" y2="-0.250513" style="stroke:rgb(246,147,147);stroke-width:0.01" />
<line x1="0.277762" y1="0.205646" x2="-0.23159" y2="0.382613" style="stroke:rgb(246,147,147);stroke-width:0.01" />
<line x1="0.260241" y1="0.246784" x2="-0.220771" y2="0.4353" style="stroke:rgb(246,147,147);stroke-width:0.01" />
<line x1="0.0160039" y1="-0.173272" x2="-0.431679" y2="0.0870283" style="stroke:rgb(246,147,147);stroke-width:0.01" />
<line x1="-0.117788" y1="-0.110803" x2="-0.431679" y2="0.0870283" style="stroke:rgb(246,147,147);stroke-width:0.01" />
<line x1="0.168779" y1="0.18397" x2="0.0310445" y2="0.291365" style="stroke:rgb(246,147,147);stroke-width:0.01" />
<line x1="0.128349" y1="-0.250513" x2="-0.23159" y2="0.382613" style="stroke:rgb(246,147,147);stroke-width:0.01" />
</g>
</svg>
