<svg xmlns="http://www.w3.org/2000/svg" viewBox="-1.5 -1.5 3 3">
<g transform="scale(1, -1)">
<path d="M614028083.116042 -119578236.673791 L614028083.161356 -119578236.471511 L614028083.245945 -119578236.213261 L614028083.221138 -119578236.204643 L614028083.228423 -119578236.172124 L614028082.747411 -119578235.983608 L614028082.536504 -119578236.331879 L614028082.750483 -119578236.466741 L614028082.741880 -119578236.505826 L614028082.850394 -119578236.529711 L614028082.855472 -119578236.517340 L614028082.984186 -119578236.592179 L614028083.018788 -119578236.532670 L614028083.096532 -119578236.669420 z " fill="rgb(245,195,195)" />
<path d="M0.000000 0.000000 L1.000000 0.000000 L1.000000 1.000000 L0.000000 1.000000  z" fill="none" stroke="rgb(128,128,128)" stroke-width="0.01" />
<line x1="6.14028e+08" y1="-1.19578e+08" x2="6.14028e+08" y2="-1.19578e+08" style="stroke:rgb(246,147,147);stroke-width:0.01" />
<line x1="6.14028e+08" y1="-1.19578e+08" x2="6.14028e+08" y2="-1.19578e+08" style="stroke:rgb(246,147,147);stroke-width:0.01" />
<line x1="6.14028e+08" y1="-1.19578e+08" x2="6.14028e+08" y2="-1.19578e+08" style="stroke:rgb(246,147,147);stroke-width:0.01" />
<line x1="6.14028e+08" y1="-1.19578e+08" x2="6.14028e+08" y2="-1.19578e+08" style="stroke:rgb(246,147,147);stroke-width:0.01" />
<line x1="6.14028e+08" y1="-1.19578e+08" x2="6.14028e+08" y2="-1.19578e+08" style="stroke:rgb(246,147,147);stroke-width:0.01" />
<line x1="6.14028e+08" y1="-1.19578e+08" x2="6.14028e+08" y2="-1.19578e+08" style="stroke:rgb(246,147,147);stroke-width:0.01" />
<line x1="6.14028e+08" y1="-1.19578e+08" x2="6.14028e+08" y2="-1.19578e+08" style="stroke:rgb(246,147,147);stroke-width:0.01" />
<line x1="6.14028e+08" y1="-1.19578e+08" x2="6.14028e+08" y2="-1.19578e+08" style="stroke:rgb(246,147,147);stroke-width:0.01" />
<line x1="6.14028e+08" y1="-1.19578e+08" x2="6.14028e+08" y2="-1.19578e+08" style="stroke:rgb(246,147,147);stroke-width:0.01" />
<line x1="6.14028e+08" y1="-1.19578e+08" x2="6.14028e+08" y2="-1.19578e+08" style="stroke:rgb(246,147,147);stroke-width:0.01" />
<line x1="6.14028e+08" y1="-1.19578e+08" x2="6.14028e+08" y2="-1.19578e+08" style="stroke:rgb(246,147,147);stroke-width:0.01" />
<line x1="6.14028e+08" y1="-1.19578e+08" x2="6.14028e+08" y2="-1.19578e+08" style="stroke:rgb(246,147,147);stroke-width:0.01" />
<line x1="6.14028e+08" y1="-1.19578e+08" x2="6.14028e+08" y2="-1.19578e+08" style="stroke:rgb(246,147,147);stroke-width:0.01" />
<line x1="6.14028e+08" y1="-1.19578e+08" x2="6.14028e+08" y2="-1.19578e+08" style="stroke:rgb(246,147,147);stroke-width:0.01" />
<line x1="6.14028e+08" y1="-1.19578e+08" x2="6.14028e+08" y2="-1.19578e+08" style="stroke:rgb(246,147,147);stroke-width:0.01" />
<line x1="6.14028e+08" y1="-1.19578e+08" x2="6.14028e+08" y2="-1.19578e+08" style="stroke:rgb(246,147,147);stroke-width:0.01" />
<line x1="6.14028e+08" y1="-1.19578e+08" x2="6.14028e+08" y2="-1.19578e+08" style="stroke:rgb(246,147,147);stroke-width:0.01" />
<line x1="6.14028e+08" y1="-1.19578e+08" x2="6.14028e+08" y2="-1.19578e+08" style="stroke:rgb(246,147,147);stroke-width:0.01" />
<line x1="6.14028e+08" y1="-1.19578e+08" x2="6.14028e+08" y2="-1.19578e+08" style="stroke:rgb(246,147,147);stroke-width:0.01" />
<line x1="6.14028e+08" y1="-1.19578e+08" x2="6.14028e+08" y2="-1.19578e+08" style="stroke:rgb(246,147,147);stroke-width:0.01" />
<line x1="6.14028e+08" y1="-1.19578e+08" x2="6.14028e+08" y2="-1.19578e+08" style="stroke:rgb(246,147,147);stroke-width:0.01" />
<line x1="6.14028e+08" y1="-1.19578e+08" x2="6.14028e+08" y2="-1.19578e+08" style="stroke:rgb(246,147,147);stroke-width:0.01" />
</g>
</svg>
