<svg xmlns="http://www.w3.org/2000/svg" viewBox="-1.5 -1.5 3 3">
<g transform="scale(1, -1)">
<path d="M-0.160742 -0.482022 L0.089258 -0.482022 L0.089258 -0.148688 L0.289258 0.117978 L0.089258 0.267978 L0.089258 0.517978 L-0.068636 0.517978 L-0.416914 -0.309182 z " fill="rgb(245,195,195)" />
<path d="M-1788649761.110741 -225712897.082022 L-1788649760.110741 -225712897.082022 L-1788649760.110741 -225712896.082022 L-1788649761.110741 -225712896.082022  z" fill="none" stroke="rgb(128,128,128)" stroke-width="0.01" />
<line x1="-0.335438" y1="-0.364154" x2="-0.202757" y2="-0.210348" style="stroke:rgb(246,147,147);stroke-width:0.01" />
<line x1="-0.416914" y1="-0.309182" x2="-0.391639" y2="-0.284066" style="stroke:rgb(246,147,147);stroke-width:0.01" />
<line x1="-0.160742" y1="-0.482022" x2="0.289258" y2="0.117978" style="stroke:rgb(246,147,147);stroke-width:0.01" />
<line x1="-0.160742" y1="-0.482022" x2="-0.0314398" y2="-0.268057" style="stroke:rgb(246,147,147);stroke-width:0.01" />
<line x1="-0.335438" y1="-0.364154" x2="0.0539643" y2="0.392488" style="stroke:rgb(246,147,147);stroke-width:0.01" />
<line x1="-0.391639" y1="-0.284066" x2="-0.202612" y2="-0.164615" style="stroke:rgb(246,147,147);stroke-width:0.01" />
<line x1="-0.416914" y1="-0.309182" x2="-0.0686363" y2="0.517978" style="stroke:rgb(246,147,147);stroke-width:0.01" />
<line x1="-0.391639" y1="-0.284066" x2="-0.197624" y2="-0.214366" style="stroke:rgb(246,147,147);stroke-width:0.01" />
<line x1="-0.248681" y1="-0.232708" x2="-0.246515" y2="-0.192359" style="stroke:rgb(246,147,147);stroke-width:0.01" />
<line x1="0.0892584" y1="-0.482022" x2="0.0892584" y2="0.517978" style="stroke:rgb(246,147,147);stroke-width:0.01" />
<line x1="-0.197624" y1="-0.214366" x2="-0.202612" y2="-0.164615" style="stroke:rgb(246,147,147);stroke-width:0.01" />
<line x1="-0.160742" y1="-0.482022" x2="0.0892584" y2="-0.482022" style="stroke:rgb(246,147,147);stroke-width:0.01" />
<line x1="-0.0686363" y1="0.517978" x2="0.0892584" y2="0.517978" style="stroke:rgb(246,147,147);stroke-width:0.01" />
<line x1="0.0539643" y1="0.392488" x2="-0.110742" y2="0.417978" style="stroke:rgb(246,147,147);stroke-width:0.01" />
<line x1="-0.160742" y1="-0.482022" x2="-0.271349" y2="-0.208052" style="stroke:rgb(246,147,147);stroke-width:0.01" />
<line x1="-0.202757" y1="-0.210348" x2="-0.246515" y2="-0.192359" style="stroke:rgb(246,147,147);stroke-width:0.01" />
<line x1="-0.202757" y1="-0.210348" x2="-0.22251" y2="-0.177189" style="stroke:rgb(246,147,147);stroke-width:0.01" />
<line x1="-0.197624" y1="-0.214366" x2="-0.22251" y2="-0.177189" style="stroke:rgb(246,147,147);stroke-width:0.01" />
<line x1="-0.0314398" y1="-0.268057" x2="-0.202612" y2="-0.164615" style="stroke:rgb(246,147,147);stroke-width:0.01" />
<line x1="-0.160742" y1="-0.482022" x2="-0.416914" y2="-0.309182" style="stroke:rgb(246,147,147);stroke-width:0.01" />
<line x1="-0.248681" y1="-0.232708" x2="-0.271349" y2="-0.208052" style="stroke:rgb(246,147,147);stroke-width:0.01" />
<line x1="0.289258" y1="0.117978" x2="-0.110742" y2="0.417978" style="stroke:rgb(246,147,147);stroke-width:0.01" />
<line x1="0.0539643" y1="0.392488" x2="-0.0686363" y2="0.517978" style="stroke:rgb(246,147,147);stroke-width:0.01" />
</g>
</svg>
