<svg xmlns="http://www.w3.org/2000/svg" viewBox="-1.5 -1.5 3 3">
<g transform="scale(1, -1)">
<path d="M1788649760.950000 225712896.600000 L1788649761.200000 225712896.600000 L1788649761.200000 225712896.933333 L1788649761.400000 225712897.200000 L1788649761.200000 225712897.350000 L1788649761.200000 225712897.600000 L1788649761.042105 225712897.600000 L1788649760.693827 225712896.772839 z " fill="rgb(245,195,195)" />
<path d="M0.000000 0.000000 L1.000000 0.000000 L1.000000 1.000000 L0.000000 1.000000  z" fill="none" stroke="rgb(128,128,128)" stroke-width="0.01" />
<line x1="1.78865e+09" y1="2.25713e+08" x2="1.78865e+09" y2="2.25713e+08" style="stroke:rgb(246,147,147);stroke-width:0.01" />
<line x1="1.78865e+09" y1="2.25713e+08" x2="1.78865e+09" y2="2.25713e+08" style="stroke:rgb(246,147,147);stroke-width:0.01" />
<line x1="1.78865e+09" y1="2.25713e+08" x2="1.78865e+09" y2="2.25713e+08" style="stroke:rgb(246,147,147);stroke-width:0.01" />
<line x1="1.78865e+09" y1="2.25713e+08" x2="1.78865e+09" y2="2.25713e+08" style="stroke:rgb(246,147,147);stroke-width:0.01" />
<line x1="1.78865e+09" y1="2.25713e+08" x2="1.78865e+09" y2="2.25713e+08" style="stroke:rgb(246,147,147);stroke-width:0.01" />
<line x1="1.78865e+09" y1="2.25713e+08" x2="1.78865e+09" y2="2.25713e+08" style="stroke:rgb(246,147,147);stroke-width:0.01" />
<line x1="1.78865e+09" y1="2.25713e+08" x2="1.78865e+09" y2="2.25713e+08" style="stroke:rgb(246,147,147);stroke-width:0.01" />
<line x1="1.78865e+09" y1="2.25713e+08" x2="1.78865e+09" y2="2.25713e+08" style="stroke:rgb(246,147,147);stroke-width:0.01" />
<line x1="1.78865e+09" y1="2.25713e+08" x2="1.78865e+09" y2="2.25713e+08" style="stroke:rgb(246,147,147);stroke-width:0.01" />
<line x1="1.78865e+09" y1="2.25713e+08" x2="1.78865e+09" y2="2.25713e+08" style="stroke:rgb(246,147,147);stroke-width:0.01" />
<line x1="1.78865e+09" y1="2.25713e+08" x2="1.78865e+09" y2="2.25713e+08" style="stroke:rgb(246,147,147);stroke-width:0.01" />
<line x1="1.78865e+09" y1="2.25713e+08" x2="1.78865e+09" y2="2.25713e+08" style="stroke:rgb(246,147,147);stroke-width:0.01" />
<line x1="1.78865e+09" y1="2.25713e+08" x2="1.78865e+09" y2="2.25713e+08" style="stroke:rgb(246,147,147);stroke-width:0.01" />
<line x1="1.78865e+09" y1="2.25713e+08" x2="1.78865e+09" y2="2.25713e+08" style="stroke:rgb(246,147,147);stroke-width:0.01" />
<line x1="1.78865e+09" y1="2.25713e+08" x2="1.78865e+09" y2="2.25713e+08" style="stroke:rgb(246,147,147);stroke-width:0.01" />
<line x1="1.78865e+09" y1="2.25713e+08" x2="1.78865e+09" y2="2.25713e+08" style="stroke:rgb(246,147,147);stroke-width:0.01" />
<line x1="1.78865e+09" y1="2.25713e+08" x2="1.78865e+09" y2="2.25713e+08" style="stroke:rgb(246,147,147);stroke-width:0.01" />
<line x1="1.78865e+09" y1="2.25713e+08" x2="1.78865e+09" y2="2.25713e+08" style="stroke:rgb(246,147,147);stroke-width:0.01" />
<line x1="1.78865e+09" y1="2.25713e+08" x2="1.78865e+09" y2="2.25713e+08" style="stroke:rgb(246,147,147);stroke-width:0.01" />
<line x1="1.78865e+09" y1="2.25713e+08" x2="1.78865e+09" y2="2.25713e+08" style="stroke:rgb(246,147,147);stroke-width:0.01" />
<line x1="1.78865e+09" y1="2.25713e+08" x2="1.78865e+09" y2="2.25713e+08" style="stroke:rgb(246,147,147);stroke-width:0.01" />
<line x1="1.78865e+09" y1="2.25713e+08" x2="1.78865e+09" y2="2.25713e+08" style="stroke:rgb(246,147,147);stroke-width:0.01" />
<line x1="1.78865e+09" y1="2.25713e+08" x2="1.78865e+09" y2="2.25713e+08" style="stroke:rgb(246,147,147);stroke-width:0.01" />
</g>
</svg>
