<svg xmlns="http://www.w3.org/2000/svg" viewBox="-1.5 -1.5 3 3">
<g transform="scale(1, -1)">
<path d="M0.047338 -0.420120 L0.191971 -0.168218 L0.247338 -0.153453 L0.247338 0.179880 L0.055951 0.179880 L-0.084612 0.424694 L-0.352662 0.270789 L-0.352662 -0.313453 z " fill="rgb(245,195,195)" />
<path d="M-0.952662 -0.820120 L0.047338 -0.820120 L0.047338 0.179880 L-0.952662 0.179880  z" fill="none" stroke="rgb(128,128,128)" stroke-width="0.01" />
<line x1="0.0473381" y1="-0.42012" x2="0.246508" y2="-0.0732318" style="stroke:rgb(246,147,147);stroke-width:0.01" />
<line x1="-0.352662" y1="-0.313453" x2="-0.352662" y2="0.270789" style="stroke:rgb(246,147,147);stroke-width:0.01" />
<line x1="0.0473381" y1="-0.42012" x2="0.0473381" y2="0.17988" style="stroke:rgb(246,147,147);stroke-width:0.01" />
<line x1="0.247338" y1="-0.153453" x2="0.247338" y2="0.17988" style="stroke:rgb(246,147,147);stroke-width:0.01" />
<line x1="-0.352662" y1="-0.313453" x2="0.247338" y2="-0.153453" style="stroke:rgb(246,147,147);stroke-width:0.01" />
<line x1="-0.352662" y1="0.270789" x2="-0.0846121" y2="0.424694" style="stroke:rgb(246,147,147);stroke-width:0.01" />
<line x1="0.0473381" y1="-0.42012" x2="-0.352662" y2="-0.313453" style="stroke:rgb(246,147,147);stroke-width:0.01" />
<line x1="0.247338" y1="-0.153453" x2="-0.0846121" y2="0.424694" style="stroke:rgb(246,147,147);stroke-width:0.01" />
<line x1="-0.352662" y1="0.17988" x2="0.247338" y2="0.17988" style="stroke:rgb(246,147,147);stroke-width:0.01" />
<line x1="0.246508" y1="-0.0732318" x2="-0.352662" y2="0.270789" style="stroke:rgb(246,147,147);stroke-width:0.01" />
</g>
</svg>
