<svg xmlns="http://www.w3.org/2000/svg" viewBox="-1.5 -1.5 3 3">
<g transform="scale(1, -1)">
<path d="M1.000000 0.400000 L1.144633 0.651902 L1.200000 0.666667 L1.200000 1.000000 L1.008612 1.000000 L0.868050 1.244813 L0.600000 1.090909 L0.600000 0.506667 z " fill="rgb(245,195,195)" />
<path d="M0.000000 0.000000 L1.000000 0.000000 L1.000000 1.000000 L0.000000 1.000000  z" fill="none" stroke="rgb(128,128,128)" stroke-width="0.01" />
<line x1="1" y1="0.4" x2="1.19917" y2="0.746888" style="stroke:rgb(246,147,147);stroke-width:0.01" />
<line x1="0.6" y1="0.506667" x2="0.6" y2="1.09091" style="stroke:rgb(246,147,147);stroke-width:0.01" />
<line x1="1" y1="0.4" x2="1" y2="1" style="stroke:rgb(246,147,147);stroke-width:0.01" />
<line x1="1.2" y1="0.666667" x2="1.2" y2="1" style="stroke:rgb(246,147,147);stroke-width:0.01" />
<line x1="0.6" y1="0.506667" x2="1.2" y2="0.666667" style="stroke:rgb(246,147,147);stroke-width:0.01" />
<line x1="0.6" y1="1.09091" x2="0.86805" y2="1.24481" style="stroke:rgb(246,147,147);stroke-width:0.01" />
<line x1="1" y1="0.4" x2="0.6" y2="0.506667" style="stroke:rgb(246,147,147);stroke-width:0.01" />
<line x1="1.2" y1="0.666667" x2="0.86805" y2="1.24481" style="stroke:rgb(246,147,147);stroke-width:0.01" />
<line x1="0.6" y1="1" x2="1.2" y2="1" style="stroke:rgb(246,147,147);stroke-width:0.01" />
<line x1="1.19917" y1="0.746888" x2="0.6" y2="1.09091" style="stroke:rgb(246,147,147);stroke-width:0.01" />
</g>
</svg>
