<svg xmlns="http://www.w3.org/2000/svg" viewBox="-1.5 -1.5 3 3">
<g transform="scale(1, -1)">
<path d="M-0.092308 -0.217949 L0.092308 -0.217949 L0.092308 0.217949 L-0.092308 0.217949 z " fill="rgb(245,195,195)" />
<path d="M-0.189744 -0.012821 L0.810256 -0.012821 L0.810256 0.987179 L-0.189744 0.987179  z" fill="none" stroke="rgb(128,128,128)" stroke-width="0.01" />
<line x1="-0.0923077" y1="-0.217949" x2="0.0923077" y2="-0.217949" style="stroke:rgb(246,147,147);stroke-width:0.01" />
<line x1="-0.0923077" y1="-0.134615" x2="0.0923077" y2="-0.134615" style="stroke:rgb(246,147,147);stroke-width:0.01" />
<line x1="-0.0923077" y1="-0.0512821" x2="0.0923077" y2="-0.0512821" style="stroke:rgb(246,147,147);stroke-width:0.01" />
<line x1="-0.0923077" y1="-0.217949" x2="-0.0923077" y2="0.217949" style="stroke:rgb(246,147,147);stroke-width:0.01" />
<line x1="-0.0700855" y1="-0.217949" x2="-0.0700855" y2="0.217949" style="stroke:rgb(246,147,147);stroke-width:0.01" />
<line x1="-0.0230769" y1="-0.217949" x2="-0.0230769" y2="0.217949" style="stroke:rgb(246,147,147);stroke-width:0.01" />
<line x1="0.0324786" y1="-0.217949" x2="0.0324786" y2="0.217949" style="stroke:rgb(246,147,147);stroke-width:0.01" />
<line x1="0.0769231" y1="-0.217949" x2="0.0769231" y2="0.217949" style="stroke:rgb(246,147,147);stroke-width:0.01" />
<line x1="0.0923077" y1="-0.217949" x2="0.0923077" y2="0.217949" style="stroke:rgb(246,147,147);stroke-width:0.01" />
<line x1="-0.0923077" y1="0.115385" x2="0.0923077" y2="0.115385" style="stroke:rgb(246,147,147);stroke-width:0.01" />
<line x1="-0.0923077" y1="0.153846" x2="0.0923077" y2="0.153846" style="stroke:rgb(246,147,147);stroke-width:0.01" />
<line x1="-0.0923077" y1="0.217949" x2="0.0923077" y2="0.217949" style="stroke:rgb(246,147,147);stroke-width:0.01" />
</g>
</svg>
