<svg xmlns="http://www.w3.org/2000/svg" viewBox="-1.5 -1.5 3 3">
<g transform="scale(1, -1)">
<path d="M0.097436 -0.205128 L0.282051 -0.205128 L0.282051 0.230769 L0.097436 0.230769 z " fill="rgb(245,195,195)" />
<path d="M0.000000 0.000000 L1.000000 0.000000 L1.000000 1.000000 L0.000000 1.000000  z" fill="none" stroke="rgb(128,128,128)" stroke-width="0.01" />
<line x1="0.0974359" y1="-0.205128" x2="0.282051" y2="-0.205128" style="stroke:rgb(246,147,147);stroke-width:0.01" />
<line x1="0.0974359" y1="-0.121795" x2="0.282051" y2="-0.121795" style="stroke:rgb(246,147,147);stroke-width:0.01" />
<line x1="0.0974359" y1="-0.0384615" x2="0.282051" y2="-0.0384615" style="stroke:rgb(246,147,147);stroke-width:0.01" />
<line x1="0.0974359" y1="-0.205128" x2="0.0974359" y2="0.230769" style="stroke:rgb(246,147,147);stroke-width:0.01" />
<line x1="0.119658" y1="-0.205128" x2="0.119658" y2="0.230769" style="stroke:rgb(246,147,147);stroke-width:0.01" />
<line x1="0.166667" y1="-0.205128" x2="0.166667" y2="0.230769" style="stroke:rgb(246,147,147);stroke-width:0.01" />
<line x1="0.222222" y1="-0.205128" x2="0.222222" y2="0.230769" style="stroke:rgb(246,147,147);stroke-width:0.01" />
<line x1="0.266667" y1="-0.205128" x2="0.266667" y2="0.230769" style="stroke:rgb(246,147,147);stroke-width:0.01" />
<line x1="0.282051" y1="-0.205128" x2="0.282051" y2="0.230769" style="stroke:rgb(246,147,147);stroke-width:0.01" />
<line x1="0.0974359" y1="0.128205" x2="0.282051" y2="0.128205" style="stroke:rgb(246,147,147);stroke-width:0.01" />
<line x1="0.0974359" y1="0.166667" x2="0.282051" y2="0.166667" style="stroke:rgb(246,147,147);stroke-width:0.01" />
<line x1="0.0974359" y1="0.230769" x2="0.282051" y2="0.230769" style="stroke:rgb(246,147,147);stroke-width:0.01" />
</g>
</svg>
