<svg xmlns="http://www.w3.org/2000/svg" viewBox="-1.5 -1.5 3 3">
<g transform="scale(1, -1)">
<path d="M-0.173312 -0.369404 L-0.012382 -0.300655 L-0.059216 -0.191024 L-0.043315 -0.191583 L0.131685 -0.022617 L0.131685 0.188294 L0.215217 0.220563 L0.152155 0.383806 L0.131685 0.375898 L-0.043315 0.120690 L-0.043315 -0.016475 L-0.135160 -0.013251 L-0.252412 -0.184244 z " fill="rgb(245,195,195)" />
<path d="M-0.604982 -0.602157 L0.395018 -0.602157 L0.395018 0.397843 L-0.604982 0.397843  z" fill="none" stroke="rgb(128,128,128)" stroke-width="0.01" />
<line x1="-0.0433151" y1="-0.191583" x2="0.131685" y2="-0.022617" style="stroke:rgb(246,147,147);stroke-width:0.01" />
<line x1="-0.252412" y1="-0.184244" x2="-0.13516" y2="-0.0132511" style="stroke:rgb(246,147,147);stroke-width:0.01" />
<line x1="-0.0433151" y1="0.12069" x2="0.131685" y2="0.375898" style="stroke:rgb(246,147,147);stroke-width:0.01" />
<line x1="-0.0433151" y1="-0.191583" x2="-0.0433151" y2="0.12069" style="stroke:rgb(246,147,147);stroke-width:0.01" />
<line x1="0.0450182" y1="-0.106295" x2="0.0450182" y2="0.249509" style="stroke:rgb(246,147,147);stroke-width:0.01" />
<line x1="0.0783516" y1="-0.0741113" x2="0.0783516" y2="0.298121" style="stroke:rgb(246,147,147);stroke-width:0.01" />
<line x1="0.0883516" y1="-0.0644561" x2="0.0883516" y2="0.312704" style="stroke:rgb(246,147,147);stroke-width:0.01" />
<line x1="0.131685" y1="-0.022617" x2="0.131685" y2="0.375898" style="stroke:rgb(246,147,147);stroke-width:0.01" />
<line x1="-0.173312" y1="-0.369404" x2="-0.0123816" y2="-0.300655" style="stroke:rgb(246,147,147);stroke-width:0.01" />
<line x1="-0.173312" y1="-0.369404" x2="-0.252412" y2="-0.184244" style="stroke:rgb(246,147,147);stroke-width:0.01" />
<line x1="-0.0920803" y1="-0.334702" x2="-0.193228" y2="-0.0979331" style="stroke:rgb(246,147,147);stroke-width:0.01" />
<line x1="-0.061427" y1="-0.321607" x2="-0.170894" y2="-0.0653631" style="stroke:rgb(246,147,147);stroke-width:0.01" />
<line x1="-0.0522309" y1="-0.317678" x2="-0.164194" y2="-0.0555921" style="stroke:rgb(246,147,147);stroke-width:0.01" />
<line x1="-0.0123816" y1="-0.300655" x2="-0.13516" y2="-0.0132511" style="stroke:rgb(246,147,147);stroke-width:0.01" />
<line x1="0.215217" y1="0.220563" x2="0.152155" y2="0.383806" style="stroke:rgb(246,147,147);stroke-width:0.01" />
<line x1="-0.0433151" y1="-0.191583" x2="-0.252412" y2="-0.184244" style="stroke:rgb(246,147,147);stroke-width:0.01" />
<line x1="-0.0433151" y1="0.12069" x2="0.215217" y2="0.220563" style="stroke:rgb(246,147,147);stroke-width:0.01" />
<line x1="0.0450182" y1="-0.106295" x2="-0.193228" y2="-0.0979331" style="stroke:rgb(246,147,147);stroke-width:0.01" />
<line x1="0.0450182" y1="0.249509" x2="0.183386" y2="0.302962" style="stroke:rgb(246,147,147);stroke-width:0.01" />
<line x1="0.0783516" y1="-0.0741113" x2="-0.170894" y2="-0.0653631" style="stroke:rgb(246,147,147);stroke-width:0.01" />
<line x1="0.0783516" y1="0.298121" x2="0.171374" y2="0.334056" style="stroke:rgb(246,147,147);stroke-width:0.01" />
<line x1="0.0883516" y1="-0.0644561" x2="-0.164194" y2="-0.0555921" style="stroke:rgb(246,147,147);stroke-width:0.01" />
<line x1="0.0883516" y1="0.312704" x2="0.16777" y2="0.343384" style="stroke:rgb(246,147,147);stroke-width:0.01" />
<line x1="0.131685" y1="0.375898" x2="0.152155" y2="0.383806" style="stroke:rgb(246,147,147);stroke-width:0.01" />
<line x1="0.131685" y1="-0.022617" x2="-0.13516" y2="-0.0132511" style="stroke:rgb(246,147,147);stroke-width:0.01" />
</g>
</svg>
