<svg xmlns="http://www.w3.org/2000/svg" viewBox="-1.5 -1.5 3 3">
<g transform="scale(1, -1)">
<path d="M0.431670 0.232753 L0.592600 0.301503 L0.545766 0.411133 L0.561667 0.410575 L0.736667 0.579540 L0.736667 0.790451 L0.820199 0.822721 L0.757137 0.985963 L0.736667 0.978056 L0.561667 0.722847 L0.561667 0.585682 L0.469821 0.588906 L0.352569 0.417914 z " fill="rgb(245,195,195)" />
<path d="M0.000000 0.000000 L1.000000 0.000000 L1.000000 1.000000 L0.000000 1.000000  z" fill="none" stroke="rgb(128,128,128)" stroke-width="0.01" />
<line x1="0.561667" y1="0.410575" x2="0.736667" y2="0.57954" style="stroke:rgb(246,147,147);stroke-width:0.01" />
<line x1="0.352569" y1="0.417914" x2="0.469821" y2="0.588906" style="stroke:rgb(246,147,147);stroke-width:0.01" />
<line x1="0.561667" y1="0.722847" x2="0.736667" y2="0.978056" style="stroke:rgb(246,147,147);stroke-width:0.01" />
<line x1="0.561667" y1="0.410575" x2="0.561667" y2="0.722847" style="stroke:rgb(246,147,147);stroke-width:0.01" />
<line x1="0.65" y1="0.495862" x2="0.65" y2="0.851667" style="stroke:rgb(246,147,147);stroke-width:0.01" />
<line x1="0.683333" y1="0.528046" x2="0.683333" y2="0.900278" style="stroke:rgb(246,147,147);stroke-width:0.01" />
<line x1="0.693333" y1="0.537701" x2="0.693333" y2="0.914861" style="stroke:rgb(246,147,147);stroke-width:0.01" />
<line x1="0.736667" y1="0.57954" x2="0.736667" y2="0.978056" style="stroke:rgb(246,147,147);stroke-width:0.01" />
<line x1="0.43167" y1="0.232753" x2="0.5926" y2="0.301503" style="stroke:rgb(246,147,147);stroke-width:0.01" />
<line x1="0.43167" y1="0.232753" x2="0.352569" y2="0.417914" style="stroke:rgb(246,147,147);stroke-width:0.01" />
<line x1="0.512901" y1="0.267455" x2="0.411754" y2="0.504224" style="stroke:rgb(246,147,147);stroke-width:0.01" />
<line x1="0.543555" y1="0.28055" x2="0.434087" y2="0.536794" style="stroke:rgb(246,147,147);stroke-width:0.01" />
<line x1="0.552751" y1="0.284479" x2="0.440788" y2="0.546565" style="stroke:rgb(246,147,147);stroke-width:0.01" />
<line x1="0.5926" y1="0.301503" x2="0.469821" y2="0.588906" style="stroke:rgb(246,147,147);stroke-width:0.01" />
<line x1="0.820199" y1="0.822721" x2="0.757137" y2="0.985963" style="stroke:rgb(246,147,147);stroke-width:0.01" />
<line x1="0.561667" y1="0.410575" x2="0.352569" y2="0.417914" style="stroke:rgb(246,147,147);stroke-width:0.01" />
<line x1="0.561667" y1="0.722847" x2="0.820199" y2="0.822721" style="stroke:rgb(246,147,147);stroke-width:0.01" />
<line x1="0.65" y1="0.495862" x2="0.411754" y2="0.504224" style="stroke:rgb(246,147,147);stroke-width:0.01" />
<line x1="0.65" y1="0.851667" x2="0.788368" y2="0.905119" style="stroke:rgb(246,147,147);stroke-width:0.01" />
<line x1="0.683333" y1="0.528046" x2="0.434087" y2="0.536794" style="stroke:rgb(246,147,147);stroke-width:0.01" />
<line x1="0.683333" y1="0.900278" x2="0.776356" y2="0.936213" style="stroke:rgb(246,147,147);stroke-width:0.01" />
<line x1="0.693333" y1="0.537701" x2="0.440788" y2="0.546565" style="stroke:rgb(246,147,147);stroke-width:0.01" />
<line x1="0.693333" y1="0.914861" x2="0.772752" y2="0.945541" style="stroke:rgb(246,147,147);stroke-width:0.01" />
<line x1="0.736667" y1="0.978056" x2="0.757137" y2="0.985963" style="stroke:rgb(246,147,147);stroke-width:0.01" />
<line x1="0.736667" y1="0.57954" x2="0.469821" y2="0.588906" style="stroke:rgb(246,147,147);stroke-width:0.01" />
</g>
</svg>
