<svg xmlns="http://www.w3.org/2000/svg" viewBox="-1.5 -1.5 3 3">
<g transform="scale(1, -1)">
<path d="M-0.001044 -0.369551 L0.026618 -0.263441 L0.198956 -0.241346 L0.198956 0.091987 L0.119277 0.091987 L0.134790 0.151496 L0.093755 0.162193 L0.030780 0.403759 L-0.401044 0.291185 L-0.401044 -0.318269 z " fill="rgb(245,195,195)" />
<path d="M-1.001044 -0.908013 L-0.001044 -0.908013 L-0.001044 0.091987 L-1.001044 0.091987  z" fill="none" stroke="rgb(128,128,128)" stroke-width="0.01" />
<line x1="-0.00104411" y1="-0.369551" x2="0.13479" y2="0.151496" style="stroke:rgb(246,147,147);stroke-width:0.01" />
<line x1="-0.401044" y1="-0.318269" x2="-0.401044" y2="0.291185" style="stroke:rgb(246,147,147);stroke-width:0.01" />
<line x1="-0.00104411" y1="-0.369551" x2="-0.00104411" y2="0.0919871" style="stroke:rgb(246,147,147);stroke-width:0.01" />
<line x1="0.198956" y1="-0.241346" x2="0.198956" y2="0.0919871" style="stroke:rgb(246,147,147);stroke-width:0.01" />
<line x1="0.198956" y1="-0.241346" x2="0.03078" y2="0.403759" style="stroke:rgb(246,147,147);stroke-width:0.01" />
<line x1="-0.401044" y1="-0.318269" x2="0.198956" y2="-0.241346" style="stroke:rgb(246,147,147);stroke-width:0.01" />
<line x1="-0.00104411" y1="-0.369551" x2="-0.401044" y2="-0.318269" style="stroke:rgb(246,147,147);stroke-width:0.01" />
<line x1="-0.401044" y1="0.291185" x2="0.03078" y2="0.403759" style="stroke:rgb(246,147,147);stroke-width:0.01" />
<line x1="-0.401044" y1="0.0919871" x2="0.198956" y2="0.0919871" style="stroke:rgb(246,147,147);stroke-width:0.01" />
<line x1="0.13479" y1="0.151496" x2="-0.401044" y2="0.291185" style="stroke:rgb(246,147,147);stroke-width:0.01" />
</g>
</svg>
