<svg xmlns="http://www.w3.org/2000/svg" viewBox="-1.5 -1.5 3 3">
<g transform="scale(1, -1)">
<path d="M0.346519 0.063471 L0.361091 0.113566 L0.770830 0.137319 L0.883288 0.288646 L0.865704 0.387067 L0.583326 0.336619 L0.369221 0.564195 L0.386098 0.936448 L0.342787 0.938411 L0.162681 0.783729 L0.135177 0.266653 L0.317253 0.068320 z " fill="rgb(245,195,195)" />
<path d="M0.000000 0.000000 L1.000000 0.000000 L1.000000 1.000000 L0.000000 1.000000  z" fill="none" stroke="rgb(128,128,128)" stroke-width="0.01" />
<line x1="0.77083" y1="0.137319" x2="0.883288" y2="0.288646" style="stroke:rgb(246,147,147);stroke-width:0.01" />
<line x1="0.346519" y1="0.0634708" x2="0.381747" y2="0.184578" style="stroke:rgb(246,147,147);stroke-width:0.01" />
<line x1="0.262198" y1="0.12829" x2="0.271534" y2="0.169632" style="stroke:rgb(246,147,147);stroke-width:0.01" />
<line x1="0.28003" y1="0.108866" x2="0.302023" y2="0.261266" style="stroke:rgb(246,147,147);stroke-width:0.01" />
<line x1="0.189121" y1="0.207891" x2="0.200677" y2="0.264538" style="stroke:rgb(246,147,147);stroke-width:0.01" />
<line x1="0.256967" y1="0.133988" x2="0.342787" y2="0.938411" style="stroke:rgb(246,147,147);stroke-width:0.01" />
<line x1="0.14314" y1="0.257978" x2="0.14538" y2="0.266323" style="stroke:rgb(246,147,147);stroke-width:0.01" />
<line x1="0.346519" y1="0.0634708" x2="0.386098" y2="0.936448" style="stroke:rgb(246,147,147);stroke-width:0.01" />
<line x1="0.135177" y1="0.266653" x2="0.162681" y2="0.783729" style="stroke:rgb(246,147,147);stroke-width:0.01" />
<line x1="0.317253" y1="0.0683195" x2="0.302023" y2="0.261266" style="stroke:rgb(246,147,147);stroke-width:0.01" />
<line x1="0.211877" y1="0.183104" x2="0.200677" y2="0.264538" style="stroke:rgb(246,147,147);stroke-width:0.01" />
<line x1="0.148143" y1="0.252529" x2="0.14538" y2="0.266323" style="stroke:rgb(246,147,147);stroke-width:0.01" />
<line x1="0.262198" y1="0.12829" x2="0.311979" y2="0.135136" style="stroke:rgb(246,147,147);stroke-width:0.01" />
<line x1="0.28003" y1="0.108866" x2="0.77083" y2="0.137319" style="stroke:rgb(246,147,147);stroke-width:0.01" />
<line x1="0.346519" y1="0.0634708" x2="0.317253" y2="0.0683195" style="stroke:rgb(246,147,147);stroke-width:0.01" />
<line x1="0.256967" y1="0.133988" x2="0.311979" y2="0.135136" style="stroke:rgb(246,147,147);stroke-width:0.01" />
<line x1="0.883288" y1="0.288646" x2="0.865704" y2="0.387067" style="stroke:rgb(246,147,147);stroke-width:0.01" />
<line x1="0.189121" y1="0.207891" x2="0.883288" y2="0.288646" style="stroke:rgb(246,147,147);stroke-width:0.01" />
<line x1="0.317253" y1="0.0683195" x2="0.135177" y2="0.266653" style="stroke:rgb(246,147,147);stroke-width:0.01" />
<line x1="0.271534" y1="0.169632" x2="0.211877" y2="0.183104" style="stroke:rgb(246,147,147);stroke-width:0.01" />
<line x1="0.14314" y1="0.257978" x2="0.865704" y2="0.387067" style="stroke:rgb(246,147,147);stroke-width:0.01" />
<line x1="0.302023" y1="0.261266" x2="0.135177" y2="0.266653" style="stroke:rgb(246,147,147);stroke-width:0.01" />
<line x1="0.381747" y1="0.184578" x2="0.148143" y2="0.252529" style="stroke:rgb(246,147,147);stroke-width:0.01" />
<line x1="0.162681" y1="0.783729" x2="0.342787" y2="0.938411" style="stroke:rgb(246,147,147);stroke-width:0.01" />
<line x1="0.77083" y1="0.137319" x2="0.162681" y2="0.783729" style="stroke:rgb(246,147,147);stroke-width:0.01" />
<line x1="0.386098" y1="0.936448" x2="0.342787" y2="0.938411" style="stroke:rgb(246,147,147);stroke-width:0.01" />
</g>
</svg>
