<svg xmlns="http://www.w3.org/2000/svg" viewBox="-1.5 -1.5 3 3">
<g transform="scale(1, -1)">
<path d="M1.000000 0.538462 L1.019759 0.614255 L1.428571 0.666667 L1.428571 1.000000 L1.341673 1.000000 L1.260395 1.311772 L0.714286 1.169404 L0.714286 0.575092 z " fill="rgb(245,195,195)" />
<path d="M0.000000 0.000000 L1.000000 0.000000 L1.000000 1.000000 L0.000000 1.000000  z" fill="none" stroke="rgb(128,128,128)" stroke-width="0.01" />
<line x1="1" y1="0.538462" x2="1.13583" y2="1.05951" style="stroke:rgb(246,147,147);stroke-width:0.01" />
<line x1="0.714286" y1="0.575092" x2="0.714286" y2="1.1694" style="stroke:rgb(246,147,147);stroke-width:0.01" />
<line x1="1" y1="0.538462" x2="1" y2="1" style="stroke:rgb(246,147,147);stroke-width:0.01" />
<line x1="1.42857" y1="0.666667" x2="1.42857" y2="1" style="stroke:rgb(246,147,147);stroke-width:0.01" />
<line x1="1.42857" y1="0.666667" x2="1.2604" y2="1.31177" style="stroke:rgb(246,147,147);stroke-width:0.01" />
<line x1="0.714286" y1="0.575092" x2="1.42857" y2="0.666667" style="stroke:rgb(246,147,147);stroke-width:0.01" />
<line x1="1" y1="0.538462" x2="0.714286" y2="0.575092" style="stroke:rgb(246,147,147);stroke-width:0.01" />
<line x1="0.714286" y1="1.1694" x2="1.2604" y2="1.31177" style="stroke:rgb(246,147,147);stroke-width:0.01" />
<line x1="0.714286" y1="1" x2="1.42857" y2="1" style="stroke:rgb(246,147,147);stroke-width:0.01" />
<line x1="1.13583" y1="1.05951" x2="0.714286" y2="1.1694" style="stroke:rgb(246,147,147);stroke-width:0.01" />
</g>
</svg>
