<svg xmlns="http://www.w3.org/2000/svg" viewBox="-1.5 -1.5 3 3">
<g transform="scale(1, -1)">
<path d="M0.024997 -0.679467 L0.239550 -0.559332 L0.048648 -0.218393 L0.273463 0.406798 L0.261604 0.424007 L0.210758 0.388969 L-0.222458 0.265786 L-0.249006 0.313200 L-0.448446 0.201528 L-0.139110 -0.543096 z " fill="rgb(245,195,195)" />
<path d="M-0.708073 -0.664380 L0.291927 -0.664380 L0.291927 0.335620 L-0.708073 0.335620  z" fill="none" stroke="rgb(128,128,128)" stroke-width="0.01" />
<line x1="0.0249975" y1="-0.679467" x2="0.23955" y2="-0.559332" style="stroke:rgb(246,147,147);stroke-width:0.01" />
<line x1="0.0249975" y1="-0.679467" x2="0.0301034" y2="-0.66438" style="stroke:rgb(246,147,147);stroke-width:0.01" />
<line x1="-0.0844467" y1="-0.58852" x2="-0.0420839" y2="-0.563739" style="stroke:rgb(246,147,147);stroke-width:0.01" />
<line x1="-0.0844467" y1="-0.58852" x2="0.273463" y2="0.406798" style="stroke:rgb(246,147,147);stroke-width:0.01" />
<line x1="0.00684238" y1="-0.66438" x2="0.0301034" y2="-0.66438" style="stroke:rgb(246,147,147);stroke-width:0.01" />
<line x1="0.00684238" y1="-0.66438" x2="-0.124027" y2="0.038455" style="stroke:rgb(246,147,147);stroke-width:0.01" />
<line x1="-0.13911" y1="-0.543096" x2="-0.448446" y2="0.201528" style="stroke:rgb(246,147,147);stroke-width:0.01" />
<line x1="-0.0420839" y1="-0.563739" x2="-0.13911" y2="-0.543096" style="stroke:rgb(246,147,147);stroke-width:0.01" />
<line x1="-0.362272" y1="-0.00590682" x2="0.261604" y2="0.424007" style="stroke:rgb(246,147,147);stroke-width:0.01" />
<line x1="0.0301034" y1="-0.66438" x2="-0.0420839" y2="-0.563739" style="stroke:rgb(246,147,147);stroke-width:0.01" />
<line x1="0.0249975" y1="-0.679467" x2="-0.13911" y2="-0.543096" style="stroke:rgb(246,147,147);stroke-width:0.01" />
<line x1="0.23955" y1="-0.559332" x2="-0.249006" y2="0.3132" style="stroke:rgb(246,147,147);stroke-width:0.01" />
<line x1="-0.448446" y1="0.201528" x2="-0.249006" y2="0.3132" style="stroke:rgb(246,147,147);stroke-width:0.01" />
<line x1="-0.362272" y1="-0.00590682" x2="-0.124027" y2="0.038455" style="stroke:rgb(246,147,147);stroke-width:0.01" />
<line x1="-0.448446" y1="0.201528" x2="0.273463" y2="0.406798" style="stroke:rgb(246,147,147);stroke-width:0.01" />
<line x1="0.273463" y1="0.406798" x2="0.261604" y2="0.424007" style="stroke:rgb(246,147,147);stroke-width:0.01" />
</g>
</svg>
