<svg xmlns="http://www.w3.org/2000/svg" viewBox="-1.5 -1.5 3 3">
<g transform="scale(1, -1)">
<path d="M0.733070 -0.015087 L0.947623 0.105048 L0.756721 0.445987 L0.981536 1.071178 L0.969677 1.088387 L0.918831 1.053349 L0.485615 0.930166 L0.459066 0.977580 L0.259627 0.865908 L0.568963 0.121285 z " fill="rgb(245,195,195)" />
<path d="M0.000000 0.000000 L1.000000 0.000000 L1.000000 1.000000 L0.000000 1.000000  z" fill="none" stroke="rgb(128,128,128)" stroke-width="0.01" />
<line x1="0.73307" y1="-0.0150866" x2="0.947623" y2="0.105048" style="stroke:rgb(246,147,147);stroke-width:0.01" />
<line x1="0.73307" y1="-0.0150866" x2="0.738176" y2="0" style="stroke:rgb(246,147,147);stroke-width:0.01" />
<line x1="0.623626" y1="0.07586" x2="0.665989" y2="0.100641" style="stroke:rgb(246,147,147);stroke-width:0.01" />
<line x1="0.623626" y1="0.07586" x2="0.981536" y2="1.07118" style="stroke:rgb(246,147,147);stroke-width:0.01" />
<line x1="0.714915" y1="0" x2="0.738176" y2="0" style="stroke:rgb(246,147,147);stroke-width:0.01" />
<line x1="0.714915" y1="0" x2="0.584046" y2="0.702835" style="stroke:rgb(246,147,147);stroke-width:0.01" />
<line x1="0.568963" y1="0.121285" x2="0.259627" y2="0.865908" style="stroke:rgb(246,147,147);stroke-width:0.01" />
<line x1="0.665989" y1="0.100641" x2="0.568963" y2="0.121285" style="stroke:rgb(246,147,147);stroke-width:0.01" />
<line x1="0.345801" y1="0.658473" x2="0.969677" y2="1.08839" style="stroke:rgb(246,147,147);stroke-width:0.01" />
<line x1="0.738176" y1="0" x2="0.665989" y2="0.100641" style="stroke:rgb(246,147,147);stroke-width:0.01" />
<line x1="0.73307" y1="-0.0150866" x2="0.568963" y2="0.121285" style="stroke:rgb(246,147,147);stroke-width:0.01" />
<line x1="0.947623" y1="0.105048" x2="0.459066" y2="0.97758" style="stroke:rgb(246,147,147);stroke-width:0.01" />
<line x1="0.259627" y1="0.865908" x2="0.459066" y2="0.97758" style="stroke:rgb(246,147,147);stroke-width:0.01" />
<line x1="0.345801" y1="0.658473" x2="0.584046" y2="0.702835" style="stroke:rgb(246,147,147);stroke-width:0.01" />
<line x1="0.259627" y1="0.865908" x2="0.981536" y2="1.07118" style="stroke:rgb(246,147,147);stroke-width:0.01" />
<line x1="0.981536" y1="1.07118" x2="0.969677" y2="1.08839" style="stroke:rgb(246,147,147);stroke-width:0.01" />
</g>
</svg>
