<svg xmlns="http://www.w3.org/2000/svg" viewBox="-1.5 -1.5 3 3">
<g transform="scale(1, -1)">
<path d="M-0.119843 -0.381389 L0.047061 -0.252062 L0.037776 0.005594 L0.247520 0.068517 L0.199323 0.318055 L0.098979 0.338534 L-0.277036 0.137097 L-0.233780 -0.234347 z " fill="rgb(245,195,195)" />
<path d="M-0.421460 -0.166344 L0.578540 -0.166344 L0.578540 0.833656 L-0.421460 0.833656  z" fill="none" stroke="rgb(128,128,128)" stroke-width="0.01" />
<line x1="-0.119843" y1="-0.381389" x2="0.047061" y2="-0.252062" style="stroke:rgb(246,147,147);stroke-width:0.01" />
<line x1="0.0731311" y1="0.274903" x2="0.0989794" y2="0.338534" style="stroke:rgb(246,147,147);stroke-width:0.01" />
<line x1="-0.044246" y1="-0.019013" x2="0.0902791" y2="0.329662" style="stroke:rgb(246,147,147);stroke-width:0.01" />
<line x1="0.0731311" y1="0.274903" x2="0.0857088" y2="0.331425" style="stroke:rgb(246,147,147);stroke-width:0.01" />
<line x1="-0.23378" y1="-0.234347" x2="-0.164751" y2="-0.0827752" style="stroke:rgb(246,147,147);stroke-width:0.01" />
<line x1="-0.0801527" y1="-0.029785" x2="0.0144015" y2="0.293225" style="stroke:rgb(246,147,147);stroke-width:0.01" />
<line x1="-0.216435" y1="-0.203755" x2="0.0434279" y2="-0.151246" style="stroke:rgb(246,147,147);stroke-width:0.01" />
<line x1="-0.255137" y1="-0.0509564" x2="0.0356901" y2="0.260129" style="stroke:rgb(246,147,147);stroke-width:0.01" />
<line x1="-0.263777" y1="0.0232413" x2="-0.16406" y2="0.19762" style="stroke:rgb(246,147,147);stroke-width:0.01" />
<line x1="-0.2478" y1="-0.11396" x2="-0.164751" y2="-0.0827752" style="stroke:rgb(246,147,147);stroke-width:0.01" />
<line x1="-0.265782" y1="0.0404552" x2="-0.269061" y2="0.14137" style="stroke:rgb(246,147,147);stroke-width:0.01" />
<line x1="0.047061" y1="-0.252062" x2="0.0271642" y2="0.300062" style="stroke:rgb(246,147,147);stroke-width:0.01" />
<line x1="-0.23378" y1="-0.234347" x2="-0.277036" y2="0.137097" style="stroke:rgb(246,147,147);stroke-width:0.01" />
<line x1="-0.0801527" y1="-0.029785" x2="0.24752" y2="0.0685168" style="stroke:rgb(246,147,147);stroke-width:0.01" />
<line x1="-0.216435" y1="-0.203755" x2="-0.265782" y2="0.0404552" style="stroke:rgb(246,147,147);stroke-width:0.01" />
<line x1="-0.0208191" y1="0.172906" x2="0.199323" y2="0.318055" style="stroke:rgb(246,147,147);stroke-width:0.01" />
<line x1="-0.119843" y1="-0.381389" x2="-0.23378" y2="-0.234347" style="stroke:rgb(246,147,147);stroke-width:0.01" />
<line x1="0.0434279" y1="-0.151246" x2="-0.2478" y2="-0.11396" style="stroke:rgb(246,147,147);stroke-width:0.01" />
<line x1="0.0517068" y1="0.00977284" x2="0.00542989" y2="0.288419" style="stroke:rgb(246,147,147);stroke-width:0.01" />
<line x1="0.24752" y1="0.0685168" x2="0.199323" y2="0.318055" style="stroke:rgb(246,147,147);stroke-width:0.01" />
<line x1="0.047061" y1="-0.252062" x2="-0.255137" y2="-0.0509564" style="stroke:rgb(246,147,147);stroke-width:0.01" />
<line x1="-0.164751" y1="-0.0827752" x2="-0.263777" y2="0.0232413" style="stroke:rgb(246,147,147);stroke-width:0.01" />
<line x1="-0.277036" y1="0.137097" x2="0.0989794" y2="0.338534" style="stroke:rgb(246,147,147);stroke-width:0.01" />
<line x1="0.0517068" y1="0.00977284" x2="-0.0208191" y2="0.172906" style="stroke:rgb(246,147,147);stroke-width:0.01" />
<line x1="-0.0801527" y1="-0.029785" x2="-0.277036" y2="0.137097" style="stroke:rgb(246,147,147);stroke-width:0.01" />
<line x1="0.24752" y1="0.0685168" x2="0.204468" y2="0.172625" style="stroke:rgb(246,147,147);stroke-width:0.01" />
<line x1="-0.044246" y1="-0.019013" x2="-0.269061" y2="0.14137" style="stroke:rgb(246,147,147);stroke-width:0.01" />
<line x1="0.204468" y1="0.172625" x2="-0.16406" y2="0.19762" style="stroke:rgb(246,147,147);stroke-width:0.01" />
<line x1="0.0356901" y1="0.260129" x2="0.00542989" y2="0.288419" style="stroke:rgb(246,147,147);stroke-width:0.01" />
<line x1="0.204468" y1="0.172625" x2="0.0271642" y2="0.300062" style="stroke:rgb(246,147,147);stroke-width:0.01" />
<line x1="0.0731311" y1="0.274903" x2="0.0144015" y2="0.293225" style="stroke:rgb(246,147,147);stroke-width:0.01" />
<line x1="0.199323" y1="0.318055" x2="0.0989794" y2="0.338534" style="stroke:rgb(246,147,147);stroke-width:0.01" />
<line x1="0.0902791" y1="0.329662" x2="0.0857088" y2="0.331425" style="stroke:rgb(246,147,147);stroke-width:0.01" />
</g>
</svg>
