<svg xmlns="http://www.w3.org/2000/svg" viewBox="-1.5 -1.5 3 3">
<g transform="scale(1, -1)">
<path d="M0.301616 -0.215045 L0.468521 -0.085718 L0.459236 0.171937 L0.668980 0.234861 L0.620783 0.484399 L0.520439 0.504878 L0.144423 0.303441 L0.187680 -0.068003 z " fill="rgb(245,195,195)" />
<path d="M0.000000 0.000000 L1.000000 0.000000 L1.000000 1.000000 L0.000000 1.000000  z" fill="none" stroke="rgb(128,128,128)" stroke-width="0.01" />
<line x1="0.301616" y1="-0.215045" x2="0.468521" y2="-0.085718" style="stroke:rgb(246,147,147);stroke-width:0.01" />
<line x1="0.494591" y1="0.441246" x2="0.520439" y2="0.504878" style="stroke:rgb(246,147,147);stroke-width:0.01" />
<line x1="0.377214" y1="0.147331" x2="0.511739" y2="0.496006" style="stroke:rgb(246,147,147);stroke-width:0.01" />
<line x1="0.494591" y1="0.441246" x2="0.507169" y2="0.497769" style="stroke:rgb(246,147,147);stroke-width:0.01" />
<line x1="0.18768" y1="-0.0680028" x2="0.256709" y2="0.0835686" style="stroke:rgb(246,147,147);stroke-width:0.01" />
<line x1="0.341307" y1="0.136559" x2="0.435861" y2="0.459569" style="stroke:rgb(246,147,147);stroke-width:0.01" />
<line x1="0.205024" y1="-0.0374113" x2="0.464888" y2="0.0150981" style="stroke:rgb(246,147,147);stroke-width:0.01" />
<line x1="0.166323" y1="0.115387" x2="0.45715" y2="0.426473" style="stroke:rgb(246,147,147);stroke-width:0.01" />
<line x1="0.157682" y1="0.189585" x2="0.257399" y2="0.363964" style="stroke:rgb(246,147,147);stroke-width:0.01" />
<line x1="0.17366" y1="0.0523843" x2="0.256709" y2="0.0835686" style="stroke:rgb(246,147,147);stroke-width:0.01" />
<line x1="0.155678" y1="0.206799" x2="0.152399" y2="0.307714" style="stroke:rgb(246,147,147);stroke-width:0.01" />
<line x1="0.468521" y1="-0.085718" x2="0.448624" y2="0.466406" style="stroke:rgb(246,147,147);stroke-width:0.01" />
<line x1="0.18768" y1="-0.0680028" x2="0.144423" y2="0.303441" style="stroke:rgb(246,147,147);stroke-width:0.01" />
<line x1="0.341307" y1="0.136559" x2="0.66898" y2="0.234861" style="stroke:rgb(246,147,147);stroke-width:0.01" />
<line x1="0.205024" y1="-0.0374113" x2="0.155678" y2="0.206799" style="stroke:rgb(246,147,147);stroke-width:0.01" />
<line x1="0.400641" y1="0.33925" x2="0.620783" y2="0.484399" style="stroke:rgb(246,147,147);stroke-width:0.01" />
<line x1="0.301616" y1="-0.215045" x2="0.18768" y2="-0.0680028" style="stroke:rgb(246,147,147);stroke-width:0.01" />
<line x1="0.464888" y1="0.0150981" x2="0.17366" y2="0.0523843" style="stroke:rgb(246,147,147);stroke-width:0.01" />
<line x1="0.473167" y1="0.176117" x2="0.42689" y2="0.454762" style="stroke:rgb(246,147,147);stroke-width:0.01" />
<line x1="0.66898" y1="0.234861" x2="0.620783" y2="0.484399" style="stroke:rgb(246,147,147);stroke-width:0.01" />
<line x1="0.468521" y1="-0.085718" x2="0.166323" y2="0.115387" style="stroke:rgb(246,147,147);stroke-width:0.01" />
<line x1="0.256709" y1="0.0835686" x2="0.157682" y2="0.189585" style="stroke:rgb(246,147,147);stroke-width:0.01" />
<line x1="0.144423" y1="0.303441" x2="0.520439" y2="0.504878" style="stroke:rgb(246,147,147);stroke-width:0.01" />
<line x1="0.473167" y1="0.176117" x2="0.400641" y2="0.33925" style="stroke:rgb(246,147,147);stroke-width:0.01" />
<line x1="0.341307" y1="0.136559" x2="0.144423" y2="0.303441" style="stroke:rgb(246,147,147);stroke-width:0.01" />
<line x1="0.66898" y1="0.234861" x2="0.625928" y2="0.338969" style="stroke:rgb(246,147,147);stroke-width:0.01" />
<line x1="0.377214" y1="0.147331" x2="0.152399" y2="0.307714" style="stroke:rgb(246,147,147);stroke-width:0.01" />
<line x1="0.625928" y1="0.338969" x2="0.257399" y2="0.363964" style="stroke:rgb(246,147,147);stroke-width:0.01" />
<line x1="0.45715" y1="0.426473" x2="0.42689" y2="0.454762" style="stroke:rgb(246,147,147);stroke-width:0.01" />
<line x1="0.625928" y1="0.338969" x2="0.448624" y2="0.466406" style="stroke:rgb(246,147,147);stroke-width:0.01" />
<line x1="0.494591" y1="0.441246" x2="0.435861" y2="0.459569" style="stroke:rgb(246,147,147);stroke-width:0.01" />
<line x1="0.620783" y1="0.484399" x2="0.520439" y2="0.504878" style="stroke:rgb(246,147,147);stroke-width:0.01" />
<line x1="0.511739" y1="0.496006" x2="0.507169" y2="0.497769" style="stroke:rgb(246,147,147);stroke-width:0.01" />
</g>
</svg>
