<svg xmlns="http://www.w3.org/2000/svg" viewBox="-1.5 -1.5 3 3">
<g transform="scale(1, -1)">
<path d="M0.180508 -0.413809 L0.538286 0.023475 L0.439738 0.263578 L0.072947 0.113034 L-0.040647 0.134896 L-0.110247 0.083421 L-0.113482 0.036516 L-0.485371 -0.116122 L-0.481732 -0.124989 z " fill="rgb(245,195,195)" />
<path d="M-0.137270 -0.047575 L0.862730 -0.047575 L0.862730 0.952425 L-0.137270 0.952425  z" fill="none" stroke="rgb(128,128,128)" stroke-width="0.01" />
<line x1="0.180508" y1="-0.413809" x2="0.538286" y2="0.0234747" style="stroke:rgb(246,147,147);stroke-width:0.01" />
<line x1="0.180508" y1="-0.413809" x2="-0.481732" y2="-0.124989" style="stroke:rgb(246,147,147);stroke-width:0.01" />
<line x1="-0.481732" y1="-0.124989" x2="-0.485371" y2="-0.116122" style="stroke:rgb(246,147,147);stroke-width:0.01" />
<line x1="-0.0567705" y1="-0.0151417" x2="-0.0406472" y2="0.134896" style="stroke:rgb(246,147,147);stroke-width:0.01" />
<line x1="-0.0960411" y1="-0.0109216" x2="-0.0798505" y2="0.105902" style="stroke:rgb(246,147,147);stroke-width:0.01" />
<line x1="-0.115379" y1="0.00900554" x2="-0.110247" y2="0.0834206" style="stroke:rgb(246,147,147);stroke-width:0.01" />
<line x1="-0.115379" y1="0.00900554" x2="-0.0767342" y2="0.0506291" style="stroke:rgb(246,147,147);stroke-width:0.01" />
<line x1="-0.115073" y1="0.0134484" x2="-0.0767342" y2="0.0506291" style="stroke:rgb(246,147,147);stroke-width:0.01" />
<line x1="0.180508" y1="-0.413809" x2="-0.115379" y2="0.00900554" style="stroke:rgb(246,147,147);stroke-width:0.01" />
<line x1="-0.0960411" y1="-0.0109216" x2="-0.115073" y2="0.0134484" style="stroke:rgb(246,147,147);stroke-width:0.01" />
<line x1="-0.0567705" y1="-0.0151417" x2="-0.0960411" y2="-0.0109216" style="stroke:rgb(246,147,147);stroke-width:0.01" />
<line x1="-0.481732" y1="-0.124989" x2="0.445609" y2="0.222806" style="stroke:rgb(246,147,147);stroke-width:0.01" />
<line x1="-0.485371" y1="-0.116122" x2="0.439738" y2="0.263578" style="stroke:rgb(246,147,147);stroke-width:0.01" />
<line x1="-0.110247" y1="0.0834206" x2="-0.0406472" y2="0.134896" style="stroke:rgb(246,147,147);stroke-width:0.01" />
<line x1="-0.0767342" y1="0.0506291" x2="-0.110247" y2="0.0834206" style="stroke:rgb(246,147,147);stroke-width:0.01" />
<line x1="0.525999" y1="0.00845761" x2="-0.0798505" y2="0.105902" style="stroke:rgb(246,147,147);stroke-width:0.01" />
<line x1="0.538286" y1="0.0234747" x2="-0.0406472" y2="0.134896" style="stroke:rgb(246,147,147);stroke-width:0.01" />
<line x1="0.525999" y1="0.00845761" x2="0.445609" y2="0.222806" style="stroke:rgb(246,147,147);stroke-width:0.01" />
<line x1="0.538286" y1="0.0234747" x2="0.439738" y2="0.263578" style="stroke:rgb(246,147,147);stroke-width:0.01" />
</g>
</svg>
