<svg xmlns="http://www.w3.org/2000/svg" viewBox="-1.5 -1.5 3 3">
<g transform="scale(1, -1)">
<path d="M0.317778 -0.366234 L0.675556 0.071050 L0.577008 0.311153 L0.210217 0.160608 L0.096623 0.182471 L0.027023 0.130995 L0.023788 0.084091 L-0.348102 -0.068547 L-0.344462 -0.077414 z " fill="rgb(245,195,195)" />
<path d="M0.000000 0.000000 L1.000000 0.000000 L1.000000 1.000000 L0.000000 1.000000  z" fill="none" stroke="rgb(128,128,128)" stroke-width="0.01" />
<line x1="0.317778" y1="-0.366234" x2="0.675556" y2="0.0710496" style="stroke:rgb(246,147,147);stroke-width:0.01" />
<line x1="0.317778" y1="-0.366234" x2="-0.344462" y2="-0.0774137" style="stroke:rgb(246,147,147);stroke-width:0.01" />
<line x1="-0.344462" y1="-0.0774137" x2="-0.348102" y2="-0.0685467" style="stroke:rgb(246,147,147);stroke-width:0.01" />
<line x1="0.0804993" y1="0.0324332" x2="0.0966226" y2="0.182471" style="stroke:rgb(246,147,147);stroke-width:0.01" />
<line x1="0.0412287" y1="0.0366533" x2="0.0574193" y2="0.153476" style="stroke:rgb(246,147,147);stroke-width:0.01" />
<line x1="0.0218906" y1="0.0565804" x2="0.0270227" y2="0.130995" style="stroke:rgb(246,147,147);stroke-width:0.01" />
<line x1="0.0218906" y1="0.0565804" x2="0.0605356" y2="0.098204" style="stroke:rgb(246,147,147);stroke-width:0.01" />
<line x1="0.022197" y1="0.0610233" x2="0.0605356" y2="0.098204" style="stroke:rgb(246,147,147);stroke-width:0.01" />
<line x1="0.317778" y1="-0.366234" x2="0.0218906" y2="0.0565804" style="stroke:rgb(246,147,147);stroke-width:0.01" />
<line x1="0.0412287" y1="0.0366533" x2="0.022197" y2="0.0610233" style="stroke:rgb(246,147,147);stroke-width:0.01" />
<line x1="0.0804993" y1="0.0324332" x2="0.0412287" y2="0.0366533" style="stroke:rgb(246,147,147);stroke-width:0.01" />
<line x1="-0.344462" y1="-0.0774137" x2="0.582879" y2="0.270381" style="stroke:rgb(246,147,147);stroke-width:0.01" />
<line x1="-0.348102" y1="-0.0685467" x2="0.577008" y2="0.311153" style="stroke:rgb(246,147,147);stroke-width:0.01" />
<line x1="0.0270227" y1="0.130995" x2="0.0966226" y2="0.182471" style="stroke:rgb(246,147,147);stroke-width:0.01" />
<line x1="0.0605356" y1="0.098204" x2="0.0270227" y2="0.130995" style="stroke:rgb(246,147,147);stroke-width:0.01" />
<line x1="0.663269" y1="0.0560325" x2="0.0574193" y2="0.153476" style="stroke:rgb(246,147,147);stroke-width:0.01" />
<line x1="0.675556" y1="0.0710496" x2="0.0966226" y2="0.182471" style="stroke:rgb(246,147,147);stroke-width:0.01" />
<line x1="0.663269" y1="0.0560325" x2="0.582879" y2="0.270381" style="stroke:rgb(246,147,147);stroke-width:0.01" />
<line x1="0.675556" y1="0.0710496" x2="0.577008" y2="0.311153" style="stroke:rgb(246,147,147);stroke-width:0.01" />
</g>
</svg>
