<svg xmlns="http://www.w3.org/2000/svg" viewBox="-1.5 -1.5 3 3">
<g transform="scale(1, -1)">
<path d="M0.320517 -0.439690 L0.451748 -0.133276 L0.320517 -0.077073 L0.320517 0.226977 L-0.305721 0.226977 L-0.320042 0.260415 L-0.393768 0.228840 L-0.393768 -0.293170 z " fill="rgb(245,195,195)" />
<path d="M-1.108054 -0.773023 L-0.108054 -0.773023 L-0.108054 0.226977 L-1.108054 0.226977  z" fill="none" stroke="rgb(128,128,128)" stroke-width="0.01" />
<line x1="0.320517" y1="-0.43969" x2="0.451748" y2="-0.133276" style="stroke:rgb(246,147,147);stroke-width:0.01" />
<line x1="-0.393768" y1="-0.29317" x2="-0.393768" y2="0.22884" style="stroke:rgb(246,147,147);stroke-width:0.01" />
<line x1="-0.108054" y1="-0.234562" x2="-0.108054" y2="0.226977" style="stroke:rgb(246,147,147);stroke-width:0.01" />
<line x1="0.320517" y1="-0.43969" x2="0.320517" y2="0.226977" style="stroke:rgb(246,147,147);stroke-width:0.01" />
<line x1="-0.393768" y1="-0.29317" x2="-0.108054" y2="-0.234562" style="stroke:rgb(246,147,147);stroke-width:0.01" />
<line x1="-0.108054" y1="-0.234562" x2="-0.320042" y2="0.260415" style="stroke:rgb(246,147,147);stroke-width:0.01" />
<line x1="-0.393768" y1="0.22884" x2="-0.320042" y2="0.260415" style="stroke:rgb(246,147,147);stroke-width:0.01" />
<line x1="0.320517" y1="-0.43969" x2="-0.393768" y2="-0.29317" style="stroke:rgb(246,147,147);stroke-width:0.01" />
<line x1="-0.393768" y1="0.226977" x2="0.320517" y2="0.226977" style="stroke:rgb(246,147,147);stroke-width:0.01" />
<line x1="0.451748" y1="-0.133276" x2="-0.393768" y2="0.22884" style="stroke:rgb(246,147,147);stroke-width:0.01" />
</g>
</svg>
