<svg xmlns="http://www.w3.org/2000/svg" viewBox="-1.5 -1.5 3 3">
<g transform="scale(1, -1)">
<path d="M0.057949 -0.334906 L0.170051 -0.287312 L0.193798 -0.123481 L0.044406 0.108299 L0.091267 0.198093 L-0.172337 0.377779 L-0.259232 0.279569 L-0.125901 -0.218042 z " fill="rgb(245,195,195)" />
<path d="M-0.948795 -0.290813 L0.051205 -0.290813 L0.051205 0.709187 L-0.948795 0.709187  z" fill="none" stroke="rgb(128,128,128)" stroke-width="0.01" />
<line x1="0.0579488" y1="-0.334906" x2="0.170051" y2="-0.287312" style="stroke:rgb(246,147,147);stroke-width:0.01" />
<line x1="-0.125901" y1="-0.218042" x2="0.0912669" y2="0.198093" style="stroke:rgb(246,147,147);stroke-width:0.01" />
<line x1="-0.0147484" y1="0.0761446" x2="0.0912669" y2="0.198093" style="stroke:rgb(246,147,147);stroke-width:0.01" />
<line x1="-0.136111" y1="-0.0349472" x2="0.0170061" y2="0.15081" style="stroke:rgb(246,147,147);stroke-width:0.01" />
<line x1="-0.180253" y1="-0.015193" x2="-0.0348675" y2="0.136123" style="stroke:rgb(246,147,147);stroke-width:0.01" />
<line x1="-0.027798" y1="0.143481" x2="-0.0151433" y2="0.156652" style="stroke:rgb(246,147,147);stroke-width:0.01" />
<line x1="-0.00382823" y1="0.088706" x2="0.0206629" y2="0.2044" style="stroke:rgb(246,147,147);stroke-width:0.01" />
<line x1="-0.0348675" y1="0.136123" x2="-0.00616123" y2="0.264505" style="stroke:rgb(246,147,147);stroke-width:0.01" />
<line x1="0.170051" y1="-0.287312" x2="0.193798" y2="-0.123481" style="stroke:rgb(246,147,147);stroke-width:0.01" />
<line x1="-0.0151433" y1="0.156652" x2="-0.00205943" y2="0.261709" style="stroke:rgb(246,147,147);stroke-width:0.01" />
<line x1="-0.0147484" y1="0.0761446" x2="0.00562938" y2="0.256468" style="stroke:rgb(246,147,147);stroke-width:0.01" />
<line x1="-0.259232" y1="0.279569" x2="-0.172337" y2="0.377779" style="stroke:rgb(246,147,147);stroke-width:0.01" />
<line x1="-0.0443035" y1="0.238736" x2="-0.00616123" y2="0.264505" style="stroke:rgb(246,147,147);stroke-width:0.01" />
<line x1="-0.229499" y1="0.168601" x2="-0.136889" y2="0.238637" style="stroke:rgb(246,147,147);stroke-width:0.01" />
<line x1="-0.0443035" y1="0.238736" x2="-0.00205943" y2="0.261709" style="stroke:rgb(246,147,147);stroke-width:0.01" />
<line x1="-0.0963322" y1="0.0551309" x2="-0.00382823" y2="0.088706" style="stroke:rgb(246,147,147);stroke-width:0.01" />
<line x1="-0.22092" y1="0.136582" x2="0.00562938" y2="0.256468" style="stroke:rgb(246,147,147);stroke-width:0.01" />
<line x1="0.0579488" y1="-0.334906" x2="0.0402028" y2="0.146214" style="stroke:rgb(246,147,147);stroke-width:0.01" />
<line x1="-0.13789" y1="0.135691" x2="-0.148207" y2="0.350289" style="stroke:rgb(246,147,147);stroke-width:0.01" />
<line x1="-0.237376" y1="0.197996" x2="-0.152769" y2="0.24395" style="stroke:rgb(246,147,147);stroke-width:0.01" />
<line x1="-0.0963322" y1="0.0551309" x2="-0.0147484" y2="0.0761446" style="stroke:rgb(246,147,147);stroke-width:0.01" />
<line x1="-0.217019" y1="0.122024" x2="-0.012855" y2="0.197139" style="stroke:rgb(246,147,147);stroke-width:0.01" />
<line x1="-0.027798" y1="0.143481" x2="-0.0295811" y2="0.154264" style="stroke:rgb(246,147,147);stroke-width:0.01" />
<line x1="-0.208428" y1="0.0899611" x2="0.0170061" y2="0.15081" style="stroke:rgb(246,147,147);stroke-width:0.01" />
<line x1="-0.208428" y1="0.0899611" x2="-0.0348675" y2="0.136123" style="stroke:rgb(246,147,147);stroke-width:0.01" />
<line x1="-0.125901" y1="-0.218042" x2="-0.259232" y2="0.279569" style="stroke:rgb(246,147,147);stroke-width:0.01" />
<line x1="-0.114417" y1="0.159773" x2="-0.136889" y2="0.238637" style="stroke:rgb(246,147,147);stroke-width:0.01" />
<line x1="-0.13789" y1="0.135691" x2="-0.201289" y2="0.345057" style="stroke:rgb(246,147,147);stroke-width:0.01" />
<line x1="-0.0963322" y1="0.0551309" x2="-0.190005" y2="0.35781" style="stroke:rgb(246,147,147);stroke-width:0.01" />
<line x1="-0.217019" y1="0.122024" x2="-0.13789" y2="0.135691" style="stroke:rgb(246,147,147);stroke-width:0.01" />
<line x1="-0.0295811" y1="0.154264" x2="-0.0151433" y2="0.156652" style="stroke:rgb(246,147,147);stroke-width:0.01" />
<line x1="0.0849238" y1="0.190797" x2="0.0793196" y2="0.206237" style="stroke:rgb(246,147,147);stroke-width:0.01" />
<line x1="-0.114417" y1="0.159773" x2="-0.152769" y2="0.24395" style="stroke:rgb(246,147,147);stroke-width:0.01" />
<line x1="-0.22092" y1="0.136582" x2="0.0402028" y2="0.146214" style="stroke:rgb(246,147,147);stroke-width:0.01" />
<line x1="0.0579488" y1="-0.334906" x2="-0.125901" y2="-0.218042" style="stroke:rgb(246,147,147);stroke-width:0.01" />
<line x1="0.193798" y1="-0.123481" x2="-0.180253" y2="-0.015193" style="stroke:rgb(246,147,147);stroke-width:0.01" />
<line x1="-0.237376" y1="0.197996" x2="0.0793196" y2="0.206237" style="stroke:rgb(246,147,147);stroke-width:0.01" />
<line x1="-0.027798" y1="0.143481" x2="-0.229499" y2="0.168601" style="stroke:rgb(246,147,147);stroke-width:0.01" />
<line x1="-0.0443035" y1="0.238736" x2="-0.0980256" y2="0.327124" style="stroke:rgb(246,147,147);stroke-width:0.01" />
<line x1="0.170051" y1="-0.287312" x2="-0.136111" y2="-0.0349472" style="stroke:rgb(246,147,147);stroke-width:0.01" />
<line x1="0.193798" y1="-0.123481" x2="-0.012855" y2="0.197139" style="stroke:rgb(246,147,147);stroke-width:0.01" />
<line x1="0.0849238" y1="0.190797" x2="0.0206629" y2="0.2044" style="stroke:rgb(246,147,147);stroke-width:0.01" />
<line x1="-0.148207" y1="0.350289" x2="-0.172337" y2="0.377779" style="stroke:rgb(246,147,147);stroke-width:0.01" />
<line x1="-0.012855" y1="0.197139" x2="-0.259232" y2="0.279569" style="stroke:rgb(246,147,147);stroke-width:0.01" />
<line x1="-0.0980256" y1="0.327124" x2="-0.201289" y2="0.345057" style="stroke:rgb(246,147,147);stroke-width:0.01" />
<line x1="-0.148207" y1="0.350289" x2="-0.190005" y2="0.35781" style="stroke:rgb(246,147,147);stroke-width:0.01" />
<line x1="0.0912669" y1="0.198093" x2="-0.172337" y2="0.377779" style="stroke:rgb(246,147,147);stroke-width:0.01" />
</g>
</svg>
