<svg xmlns="http://www.w3.org/2000/svg" viewBox="-1.5 -1.5 3 3">
<g transform="scale(1, -1)">
<path d="M1.006744 -0.044092 L1.118846 0.003501 L1.142593 0.167333 L0.993201 0.399113 L1.040062 0.488907 L0.776458 0.668592 L0.689563 0.570382 L0.822894 0.072772 z " fill="rgb(245,195,195)" />
<path d="M0.000000 0.000000 L1.000000 0.000000 L1.000000 1.000000 L0.000000 1.000000  z" fill="none" stroke="rgb(128,128,128)" stroke-width="0.01" />
<line x1="1.00674" y1="-0.0440921" x2="1.11885" y2="0.00350099" style="stroke:rgb(246,147,147);stroke-width:0.01" />
<line x1="0.822894" y1="0.0727719" x2="1.04006" y2="0.488907" style="stroke:rgb(246,147,147);stroke-width:0.01" />
<line x1="0.934047" y1="0.366958" x2="1.04006" y2="0.488907" style="stroke:rgb(246,147,147);stroke-width:0.01" />
<line x1="0.812684" y1="0.255866" x2="0.965801" y2="0.441623" style="stroke:rgb(246,147,147);stroke-width:0.01" />
<line x1="0.768542" y1="0.27562" x2="0.913928" y2="0.426936" style="stroke:rgb(246,147,147);stroke-width:0.01" />
<line x1="0.920997" y1="0.434294" x2="0.933652" y2="0.447465" style="stroke:rgb(246,147,147);stroke-width:0.01" />
<line x1="0.944967" y1="0.379519" x2="0.969458" y2="0.495214" style="stroke:rgb(246,147,147);stroke-width:0.01" />
<line x1="0.913928" y1="0.426936" x2="0.942634" y2="0.555319" style="stroke:rgb(246,147,147);stroke-width:0.01" />
<line x1="1.11885" y1="0.00350099" x2="1.14259" y2="0.167333" style="stroke:rgb(246,147,147);stroke-width:0.01" />
<line x1="0.933652" y1="0.447465" x2="0.946736" y2="0.552523" style="stroke:rgb(246,147,147);stroke-width:0.01" />
<line x1="0.934047" y1="0.366958" x2="0.954424" y2="0.547281" style="stroke:rgb(246,147,147);stroke-width:0.01" />
<line x1="0.689563" y1="0.570382" x2="0.776458" y2="0.668592" style="stroke:rgb(246,147,147);stroke-width:0.01" />
<line x1="0.904492" y1="0.529549" x2="0.942634" y2="0.555319" style="stroke:rgb(246,147,147);stroke-width:0.01" />
<line x1="0.719296" y1="0.459414" x2="0.811906" y2="0.52945" style="stroke:rgb(246,147,147);stroke-width:0.01" />
<line x1="0.904492" y1="0.529549" x2="0.946736" y2="0.552523" style="stroke:rgb(246,147,147);stroke-width:0.01" />
<line x1="0.852463" y1="0.345944" x2="0.944967" y2="0.379519" style="stroke:rgb(246,147,147);stroke-width:0.01" />
<line x1="0.727875" y1="0.427396" x2="0.954424" y2="0.547281" style="stroke:rgb(246,147,147);stroke-width:0.01" />
<line x1="1.00674" y1="-0.0440921" x2="0.988998" y2="0.437027" style="stroke:rgb(246,147,147);stroke-width:0.01" />
<line x1="0.810905" y1="0.426505" x2="0.800588" y2="0.641102" style="stroke:rgb(246,147,147);stroke-width:0.01" />
<line x1="0.71142" y1="0.488809" x2="0.796026" y2="0.534763" style="stroke:rgb(246,147,147);stroke-width:0.01" />
<line x1="0.852463" y1="0.345944" x2="0.934047" y2="0.366958" style="stroke:rgb(246,147,147);stroke-width:0.01" />
<line x1="0.731776" y1="0.412837" x2="0.93594" y2="0.487953" style="stroke:rgb(246,147,147);stroke-width:0.01" />
<line x1="0.920997" y1="0.434294" x2="0.919214" y2="0.445078" style="stroke:rgb(246,147,147);stroke-width:0.01" />
<line x1="0.740367" y1="0.380774" x2="0.965801" y2="0.441623" style="stroke:rgb(246,147,147);stroke-width:0.01" />
<line x1="0.740367" y1="0.380774" x2="0.913928" y2="0.426936" style="stroke:rgb(246,147,147);stroke-width:0.01" />
<line x1="0.822894" y1="0.0727719" x2="0.689563" y2="0.570382" style="stroke:rgb(246,147,147);stroke-width:0.01" />
<line x1="0.834378" y1="0.450586" x2="0.811906" y2="0.52945" style="stroke:rgb(246,147,147);stroke-width:0.01" />
<line x1="0.810905" y1="0.426505" x2="0.747506" y2="0.63587" style="stroke:rgb(246,147,147);stroke-width:0.01" />
<line x1="0.852463" y1="0.345944" x2="0.75879" y2="0.648623" style="stroke:rgb(246,147,147);stroke-width:0.01" />
<line x1="0.731776" y1="0.412837" x2="0.810905" y2="0.426505" style="stroke:rgb(246,147,147);stroke-width:0.01" />
<line x1="0.919214" y1="0.445078" x2="0.933652" y2="0.447465" style="stroke:rgb(246,147,147);stroke-width:0.01" />
<line x1="1.03372" y1="0.48161" x2="1.02811" y2="0.497051" style="stroke:rgb(246,147,147);stroke-width:0.01" />
<line x1="0.834378" y1="0.450586" x2="0.796026" y2="0.534763" style="stroke:rgb(246,147,147);stroke-width:0.01" />
<line x1="0.727875" y1="0.427396" x2="0.988998" y2="0.437027" style="stroke:rgb(246,147,147);stroke-width:0.01" />
<line x1="1.00674" y1="-0.0440921" x2="0.822894" y2="0.0727719" style="stroke:rgb(246,147,147);stroke-width:0.01" />
<line x1="1.14259" y1="0.167333" x2="0.768542" y2="0.27562" style="stroke:rgb(246,147,147);stroke-width:0.01" />
<line x1="0.71142" y1="0.488809" x2="1.02811" y2="0.497051" style="stroke:rgb(246,147,147);stroke-width:0.01" />
<line x1="0.920997" y1="0.434294" x2="0.719296" y2="0.459414" style="stroke:rgb(246,147,147);stroke-width:0.01" />
<line x1="0.904492" y1="0.529549" x2="0.850769" y2="0.617938" style="stroke:rgb(246,147,147);stroke-width:0.01" />
<line x1="1.11885" y1="0.00350099" x2="0.812684" y2="0.255866" style="stroke:rgb(246,147,147);stroke-width:0.01" />
<line x1="1.14259" y1="0.167333" x2="0.93594" y2="0.487953" style="stroke:rgb(246,147,147);stroke-width:0.01" />
<line x1="1.03372" y1="0.48161" x2="0.969458" y2="0.495214" style="stroke:rgb(246,147,147);stroke-width:0.01" />
<line x1="0.800588" y1="0.641102" x2="0.776458" y2="0.668592" style="stroke:rgb(246,147,147);stroke-width:0.01" />
<line x1="0.93594" y1="0.487953" x2="0.689563" y2="0.570382" style="stroke:rgb(246,147,147);stroke-width:0.01" />
<line x1="0.850769" y1="0.617938" x2="0.747506" y2="0.63587" style="stroke:rgb(246,147,147);stroke-width:0.01" />
<line x1="0.800588" y1="0.641102" x2="0.75879" y2="0.648623" style="stroke:rgb(246,147,147);stroke-width:0.01" />
<line x1="1.04006" y1="0.488907" x2="0.776458" y2="0.668592" style="stroke:rgb(246,147,147);stroke-width:0.01" />
</g>
</svg>
