<svg xmlns="http://www.w3.org/2000/svg" viewBox="-1.5 -1.5 3 3">
<g transform="scale(1, -1)">
<path d="M0.784530 -0.001887 L0.796841 0.000000 L0.786072 0.141348 L0.932781 0.156056 L0.912834 0.355021 L0.624299 0.752558 L0.479708 0.687933 L0.436352 0.564976 L0.449386 0.559233 L0.043710 0.110854 L0.008941 0.116235 L0.000762 0.063386 L0.000000 0.062544 L0.000000 0.058462 z " fill="rgb(245,195,195)" />
<path d="M0.000000 0.000000 L1.000000 0.000000 L1.000000 1.000000 L0.000000 1.000000  z" fill="none" stroke="rgb(128,128,128)" stroke-width="0.01" />
<line x1="0.589298" y1="0.013131" x2="0.602664" y2="0.0554949" style="stroke:rgb(246,147,147);stroke-width:0.01" />
<line x1="0.706099" y1="0.492364" x2="0.735061" y2="0.599953" style="stroke:rgb(246,147,147);stroke-width:0.01" />
<line x1="0.78453" y1="-0.00188693" x2="0.796841" y2="0" style="stroke:rgb(246,147,147);stroke-width:0.01" />
<line x1="0.436352" y1="0.564976" x2="0.479708" y2="0.687933" style="stroke:rgb(246,147,147);stroke-width:0.01" />
<line x1="0.76" y1="0" x2="0.796841" y2="0" style="stroke:rgb(246,147,147);stroke-width:0.01" />
<line x1="0" y1="0.0584615" x2="0" y2="0.0625439" style="stroke:rgb(246,147,147);stroke-width:0.01" />
<line x1="0" y1="0.0584615" x2="0.00894118" y2="0.116235" style="stroke:rgb(246,147,147);stroke-width:0.01" />
<line x1="0" y1="0.0625439" x2="0.624299" y2="0.752558" style="stroke:rgb(246,147,147);stroke-width:0.01" />
<line x1="0.78453" y1="-0.00188693" x2="0" y2="0.0584615" style="stroke:rgb(246,147,147);stroke-width:0.01" />
<line x1="0.796841" y1="0" x2="0.753015" y2="0.575216" style="stroke:rgb(246,147,147);stroke-width:0.01" />
<line x1="0" y1="0.0625439" x2="0.932781" y2="0.156056" style="stroke:rgb(246,147,147);stroke-width:0.01" />
<line x1="0.589298" y1="0.013131" x2="0.497453" y2="0.612361" style="stroke:rgb(246,147,147);stroke-width:0.01" />
<line x1="0.932781" y1="0.156056" x2="0.912834" y2="0.355021" style="stroke:rgb(246,147,147);stroke-width:0.01" />
<line x1="0.76" y1="0" x2="0.00894118" y2="0.116235" style="stroke:rgb(246,147,147);stroke-width:0.01" />
<line x1="0.78453" y1="-0.00188693" x2="0.602664" y2="0.0554949" style="stroke:rgb(246,147,147);stroke-width:0.01" />
<line x1="0.479708" y1="0.687933" x2="0.624299" y2="0.752558" style="stroke:rgb(246,147,147);stroke-width:0.01" />
<line x1="0.912834" y1="0.355021" x2="0.624299" y2="0.752558" style="stroke:rgb(246,147,147);stroke-width:0.01" />
<line x1="0.912834" y1="0.355021" x2="0.436352" y2="0.564976" style="stroke:rgb(246,147,147);stroke-width:0.01" />
<line x1="0.706099" y1="0.492364" x2="0.436352" y2="0.564976" style="stroke:rgb(246,147,147);stroke-width:0.01" />
<line x1="0.735061" y1="0.599953" x2="0.497453" y2="0.612361" style="stroke:rgb(246,147,147);stroke-width:0.01" />
<line x1="0.753015" y1="0.575216" x2="0.479708" y2="0.687933" style="stroke:rgb(246,147,147);stroke-width:0.01" />
</g>
</svg>
