<svg xmlns="http://www.w3.org/2000/svg" viewBox="-1.5 -1.5 3 3">
<g transform="scale(1, -1)">
<path d="M0.337658 -0.260938 L0.349969 -0.259051 L0.339199 -0.117703 L0.485908 -0.102996 L0.465962 0.095970 L0.177426 0.493507 L0.032835 0.428882 L-0.010520 0.305925 L0.002513 0.300182 L-0.403163 -0.148197 L-0.437931 -0.142816 L-0.446110 -0.195665 L-0.446873 -0.196508 L-0.446873 -0.200590 z " fill="rgb(245,195,195)" />
<path d="M-0.446873 -0.259051 L0.553127 -0.259051 L0.553127 0.740949 L-0.446873 0.740949  z" fill="none" stroke="rgb(128,128,128)" stroke-width="0.01" />
<line x1="0.142425" y1="-0.245921" x2="0.155791" y2="-0.203557" style="stroke:rgb(246,147,147);stroke-width:0.01" />
<line x1="0.259227" y1="0.233313" x2="0.288188" y2="0.340902" style="stroke:rgb(246,147,147);stroke-width:0.01" />
<line x1="0.337658" y1="-0.260938" x2="0.349969" y2="-0.259051" style="stroke:rgb(246,147,147);stroke-width:0.01" />
<line x1="-0.0105202" y1="0.305925" x2="0.0328354" y2="0.428882" style="stroke:rgb(246,147,147);stroke-width:0.01" />
<line x1="0.313127" y1="-0.259051" x2="0.349969" y2="-0.259051" style="stroke:rgb(246,147,147);stroke-width:0.01" />
<line x1="-0.446873" y1="-0.20059" x2="-0.446873" y2="-0.196508" style="stroke:rgb(246,147,147);stroke-width:0.01" />
<line x1="-0.446873" y1="-0.20059" x2="-0.437931" y2="-0.142816" style="stroke:rgb(246,147,147);stroke-width:0.01" />
<line x1="-0.446873" y1="-0.196508" x2="0.177426" y2="0.493507" style="stroke:rgb(246,147,147);stroke-width:0.01" />
<line x1="0.337658" y1="-0.260938" x2="-0.446873" y2="-0.20059" style="stroke:rgb(246,147,147);stroke-width:0.01" />
<line x1="0.349969" y1="-0.259051" x2="0.306143" y2="0.316164" style="stroke:rgb(246,147,147);stroke-width:0.01" />
<line x1="-0.446873" y1="-0.196508" x2="0.485908" y2="-0.102996" style="stroke:rgb(246,147,147);stroke-width:0.01" />
<line x1="0.142425" y1="-0.245921" x2="0.0505806" y2="0.353309" style="stroke:rgb(246,147,147);stroke-width:0.01" />
<line x1="0.485908" y1="-0.102996" x2="0.465962" y2="0.0959696" style="stroke:rgb(246,147,147);stroke-width:0.01" />
<line x1="0.313127" y1="-0.259051" x2="-0.437931" y2="-0.142816" style="stroke:rgb(246,147,147);stroke-width:0.01" />
<line x1="0.337658" y1="-0.260938" x2="0.155791" y2="-0.203557" style="stroke:rgb(246,147,147);stroke-width:0.01" />
<line x1="0.0328354" y1="0.428882" x2="0.177426" y2="0.493507" style="stroke:rgb(246,147,147);stroke-width:0.01" />
<line x1="0.465962" y1="0.0959696" x2="0.177426" y2="0.493507" style="stroke:rgb(246,147,147);stroke-width:0.01" />
<line x1="0.465962" y1="0.0959696" x2="-0.0105202" y2="0.305925" style="stroke:rgb(246,147,147);stroke-width:0.01" />
<line x1="0.259227" y1="0.233313" x2="-0.0105202" y2="0.305925" style="stroke:rgb(246,147,147);stroke-width:0.01" />
<line x1="0.288188" y1="0.340902" x2="0.0505806" y2="0.353309" style="stroke:rgb(246,147,147);stroke-width:0.01" />
<line x1="0.306143" y1="0.316164" x2="0.0328354" y2="0.428882" style="stroke:rgb(246,147,147);stroke-width:0.01" />
</g>
</svg>
