<svg xmlns="http://www.w3.org/2000/svg" viewBox="-1.5 -1.5 3 3">
<g transform="scale(1, -1)">
<path d="M6.386667 4.960000 L6.566667 5.200000 L6.556667 5.270000 L6.626667 5.280000 L6.386667 5.460000 L6.316667 5.450000 L6.306667 5.520000 L6.126667 5.280000 L6.136667 5.210000 L6.066667 5.200000 L6.306667 5.020000 L6.376667 5.030000 z " fill="rgb(245,195,195)" />
<path d="M0.000000 0.000000 L1.000000 0.000000 L1.000000 1.000000 L0.000000 1.000000  z" fill="none" stroke="rgb(128,128,128)" stroke-width="0.01" />
<line x1="6.38667" y1="4.96" x2="6.56667" y2="5.2" style="stroke:rgb(246,147,147);stroke-width:0.01" />
<line x1="6.30667" y1="5.02" x2="6.42667" y2="5.18" style="stroke:rgb(246,147,147);stroke-width:0.01" />
<line x1="6.22667" y1="5.08" x2="6.46667" y2="5.4" style="stroke:rgb(246,147,147);stroke-width:0.01" />
<line x1="6.26667" y1="5.3" x2="6.38667" y2="5.46" style="stroke:rgb(246,147,147);stroke-width:0.01" />
<line x1="6.12667" y1="5.28" x2="6.30667" y2="5.52" style="stroke:rgb(246,147,147);stroke-width:0.01" />
<line x1="6.50667" y1="5.12" x2="6.54667" y2="5.34" style="stroke:rgb(246,147,147);stroke-width:0.01" />
<line x1="6.44667" y1="5.04" x2="6.48667" y2="5.26" style="stroke:rgb(246,147,147);stroke-width:0.01" />
<line x1="6.42667" y1="5.18" x2="6.46667" y2="5.4" style="stroke:rgb(246,147,147);stroke-width:0.01" />
<line x1="6.36667" y1="5.1" x2="6.40667" y2="5.32" style="stroke:rgb(246,147,147);stroke-width:0.01" />
<line x1="6.28667" y1="5.16" x2="6.32667" y2="5.38" style="stroke:rgb(246,147,147);stroke-width:0.01" />
<line x1="6.22667" y1="5.08" x2="6.26667" y2="5.3" style="stroke:rgb(246,147,147);stroke-width:0.01" />
<line x1="6.20667" y1="5.22" x2="6.24667" y2="5.44" style="stroke:rgb(246,147,147);stroke-width:0.01" />
<line x1="6.14667" y1="5.14" x2="6.18667" y2="5.36" style="stroke:rgb(246,147,147);stroke-width:0.01" />
<line x1="6.14667" y1="5.14" x2="6.12667" y2="5.28" style="stroke:rgb(246,147,147);stroke-width:0.01" />
<line x1="6.22667" y1="5.08" x2="6.18667" y2="5.36" style="stroke:rgb(246,147,147);stroke-width:0.01" />
<line x1="6.28667" y1="5.16" x2="6.24667" y2="5.44" style="stroke:rgb(246,147,147);stroke-width:0.01" />
<line x1="6.38667" y1="4.96" x2="6.30667" y2="5.52" style="stroke:rgb(246,147,147);stroke-width:0.01" />
<line x1="6.44667" y1="5.04" x2="6.40667" y2="5.32" style="stroke:rgb(246,147,147);stroke-width:0.01" />
<line x1="6.50667" y1="5.12" x2="6.46667" y2="5.4" style="stroke:rgb(246,147,147);stroke-width:0.01" />
<line x1="6.56667" y1="5.2" x2="6.54667" y2="5.34" style="stroke:rgb(246,147,147);stroke-width:0.01" />
<line x1="6.30667" y1="5.02" x2="6.44667" y2="5.04" style="stroke:rgb(246,147,147);stroke-width:0.01" />
<line x1="6.22667" y1="5.08" x2="6.50667" y2="5.12" style="stroke:rgb(246,147,147);stroke-width:0.01" />
<line x1="6.14667" y1="5.14" x2="6.42667" y2="5.18" style="stroke:rgb(246,147,147);stroke-width:0.01" />
<line x1="6.06667" y1="5.2" x2="6.62667" y2="5.28" style="stroke:rgb(246,147,147);stroke-width:0.01" />
<line x1="6.26667" y1="5.3" x2="6.54667" y2="5.34" style="stroke:rgb(246,147,147);stroke-width:0.01" />
<line x1="6.18667" y1="5.36" x2="6.46667" y2="5.4" style="stroke:rgb(246,147,147);stroke-width:0.01" />
<line x1="6.24667" y1="5.44" x2="6.38667" y2="5.46" style="stroke:rgb(246,147,147);stroke-width:0.01" />
<line x1="6.44667" y1="5.04" x2="6.22667" y2="5.08" style="stroke:rgb(246,147,147);stroke-width:0.01" />
<line x1="6.36667" y1="5.1" x2="6.14667" y2="5.14" style="stroke:rgb(246,147,147);stroke-width:0.01" />
<line x1="6.50667" y1="5.12" x2="6.28667" y2="5.16" style="stroke:rgb(246,147,147);stroke-width:0.01" />
<line x1="6.42667" y1="5.18" x2="6.20667" y2="5.22" style="stroke:rgb(246,147,147);stroke-width:0.01" />
<line x1="6.48667" y1="5.26" x2="6.26667" y2="5.3" style="stroke:rgb(246,147,147);stroke-width:0.01" />
<line x1="6.30667" y1="5.02" x2="6.06667" y2="5.2" style="stroke:rgb(246,147,147);stroke-width:0.01" />
<line x1="6.40667" y1="5.32" x2="6.18667" y2="5.36" style="stroke:rgb(246,147,147);stroke-width:0.01" />
<line x1="6.28667" y1="5.16" x2="6.12667" y2="5.28" style="stroke:rgb(246,147,147);stroke-width:0.01" />
<line x1="6.54667" y1="5.34" x2="6.32667" y2="5.38" style="stroke:rgb(246,147,147);stroke-width:0.01" />
<line x1="6.46667" y1="5.4" x2="6.24667" y2="5.44" style="stroke:rgb(246,147,147);stroke-width:0.01" />
<line x1="6.50667" y1="5.12" x2="6.18667" y2="5.36" style="stroke:rgb(246,147,147);stroke-width:0.01" />
<line x1="6.56667" y1="5.2" x2="6.40667" y2="5.32" style="stroke:rgb(246,147,147);stroke-width:0.01" />
<line x1="6.62667" y1="5.28" x2="6.38667" y2="5.46" style="stroke:rgb(246,147,147);stroke-width:0.01" />
</g>
</svg>
