<svg xmlns="http://www.w3.org/2000/svg" viewBox="-1.5 -1.5 3 3">
<g transform="scale(1, -1)">
<path d="M6.720000 5.210000 L6.900000 5.450000 L6.890000 5.520000 L6.960000 5.530000 L6.720000 5.710000 L6.650000 5.700000 L6.640000 5.770000 L6.460000 5.530000 L6.470000 5.460000 L6.400000 5.450000 L6.640000 5.270000 L6.710000 5.280000 z " fill="rgb(245,195,195)" />
<path d="M0.000000 0.000000 L1.000000 0.000000 L1.000000 1.000000 L0.000000 1.000000  z" fill="none" stroke="rgb(128,128,128)" stroke-width="0.01" />
<line x1="6.72" y1="5.21" x2="6.9" y2="5.45" style="stroke:rgb(246,147,147);stroke-width:0.01" />
<line x1="6.64" y1="5.27" x2="6.76" y2="5.43" style="stroke:rgb(246,147,147);stroke-width:0.01" />
<line x1="6.56" y1="5.33" x2="6.8" y2="5.65" style="stroke:rgb(246,147,147);stroke-width:0.01" />
<line x1="6.6" y1="5.55" x2="6.72" y2="5.71" style="stroke:rgb(246,147,147);stroke-width:0.01" />
<line x1="6.46" y1="5.53" x2="6.64" y2="5.77" style="stroke:rgb(246,147,147);stroke-width:0.01" />
<line x1="6.84" y1="5.37" x2="6.88" y2="5.59" style="stroke:rgb(246,147,147);stroke-width:0.01" />
<line x1="6.78" y1="5.29" x2="6.82" y2="5.51" style="stroke:rgb(246,147,147);stroke-width:0.01" />
<line x1="6.76" y1="5.43" x2="6.8" y2="5.65" style="stroke:rgb(246,147,147);stroke-width:0.01" />
<line x1="6.7" y1="5.35" x2="6.74" y2="5.57" style="stroke:rgb(246,147,147);stroke-width:0.01" />
<line x1="6.62" y1="5.41" x2="6.66" y2="5.63" style="stroke:rgb(246,147,147);stroke-width:0.01" />
<line x1="6.56" y1="5.33" x2="6.6" y2="5.55" style="stroke:rgb(246,147,147);stroke-width:0.01" />
<line x1="6.54" y1="5.47" x2="6.58" y2="5.69" style="stroke:rgb(246,147,147);stroke-width:0.01" />
<line x1="6.48" y1="5.39" x2="6.52" y2="5.61" style="stroke:rgb(246,147,147);stroke-width:0.01" />
<line x1="6.48" y1="5.39" x2="6.46" y2="5.53" style="stroke:rgb(246,147,147);stroke-width:0.01" />
<line x1="6.56" y1="5.33" x2="6.52" y2="5.61" style="stroke:rgb(246,147,147);stroke-width:0.01" />
<line x1="6.62" y1="5.41" x2="6.58" y2="5.69" style="stroke:rgb(246,147,147);stroke-width:0.01" />
<line x1="6.72" y1="5.21" x2="6.64" y2="5.77" style="stroke:rgb(246,147,147);stroke-width:0.01" />
<line x1="6.78" y1="5.29" x2="6.74" y2="5.57" style="stroke:rgb(246,147,147);stroke-width:0.01" />
<line x1="6.84" y1="5.37" x2="6.8" y2="5.65" style="stroke:rgb(246,147,147);stroke-width:0.01" />
<line x1="6.9" y1="5.45" x2="6.88" y2="5.59" style="stroke:rgb(246,147,147);stroke-width:0.01" />
<line x1="6.64" y1="5.27" x2="6.78" y2="5.29" style="stroke:rgb(246,147,147);stroke-width:0.01" />
<line x1="6.56" y1="5.33" x2="6.84" y2="5.37" style="stroke:rgb(246,147,147);stroke-width:0.01" />
<line x1="6.48" y1="5.39" x2="6.76" y2="5.43" style="stroke:rgb(246,147,147);stroke-width:0.01" />
<line x1="6.4" y1="5.45" x2="6.96" y2="5.53" style="stroke:rgb(246,147,147);stroke-width:0.01" />
<line x1="6.6" y1="5.55" x2="6.88" y2="5.59" style="stroke:rgb(246,147,147);stroke-width:0.01" />
<line x1="6.52" y1="5.61" x2="6.8" y2="5.65" style="stroke:rgb(246,147,147);stroke-width:0.01" />
<line x1="6.58" y1="5.69" x2="6.72" y2="5.71" style="stroke:rgb(246,147,147);stroke-width:0.01" />
<line x1="6.78" y1="5.29" x2="6.56" y2="5.33" style="stroke:rgb(246,147,147);stroke-width:0.01" />
<line x1="6.7" y1="5.35" x2="6.48" y2="5.39" style="stroke:rgb(246,147,147);stroke-width:0.01" />
<line x1="6.84" y1="5.37" x2="6.62" y2="5.41" style="stroke:rgb(246,147,147);stroke-width:0.01" />
<line x1="6.76" y1="5.43" x2="6.54" y2="5.47" style="stroke:rgb(246,147,147);stroke-width:0.01" />
<line x1="6.82" y1="5.51" x2="6.6" y2="5.55" style="stroke:rgb(246,147,147);stroke-width:0.01" />
<line x1="6.64" y1="5.27" x2="6.4" y2="5.45" style="stroke:rgb(246,147,147);stroke-width:0.01" />
<line x1="6.74" y1="5.57" x2="6.52" y2="5.61" style="stroke:rgb(246,147,147);stroke-width:0.01" />
<line x1="6.88" y1="5.59" x2="6.66" y2="5.63" style="stroke:rgb(246,147,147);stroke-width:0.01" />
<line x1="6.62" y1="5.41" x2="6.46" y2="5.53" style="stroke:rgb(246,147,147);stroke-width:0.01" />
<line x1="6.8" y1="5.65" x2="6.58" y2="5.69" style="stroke:rgb(246,147,147);stroke-width:0.01" />
<line x1="6.84" y1="5.37" x2="6.52" y2="5.61" style="stroke:rgb(246,147,147);stroke-width:0.01" />
<line x1="6.9" y1="5.45" x2="6.74" y2="5.57" style="stroke:rgb(246,147,147);stroke-width:0.01" />
<line x1="6.96" y1="5.53" x2="6.72" y2="5.71" style="stroke:rgb(246,147,147);stroke-width:0.01" />
</g>
</svg>
