<svg xmlns="http://www.w3.org/2000/svg" viewBox="-1.5 -1.5 3 3">
<g transform="scale(1, -1)">
<path d="M7.053333 5.460000 L7.233333 5.700000 L7.223333 5.770000 L7.293333 5.780000 L7.053333 5.960000 L6.983333 5.950000 L6.973333 6.020000 L6.793333 5.780000 L6.803333 5.710000 L6.733333 5.700000 L6.973333 5.520000 L7.043333 5.530000 z " fill="rgb(245,195,195)" />
<path d="M0.000000 0.000000 L1.000000 0.000000 L1.000000 1.000000 L0.000000 1.000000  z" fill="none" stroke="rgb(128,128,128)" stroke-width="0.01" />
<line x1="7.05333" y1="5.46" x2="7.23333" y2="5.7" style="stroke:rgb(246,147,147);stroke-width:0.01" />
<line x1="6.97333" y1="5.52" x2="7.09333" y2="5.68" style="stroke:rgb(246,147,147);stroke-width:0.01" />
<line x1="6.89333" y1="5.58" x2="7.13333" y2="5.9" style="stroke:rgb(246,147,147);stroke-width:0.01" />
<line x1="6.93333" y1="5.8" x2="7.05333" y2="5.96" style="stroke:rgb(246,147,147);stroke-width:0.01" />
<line x1="6.79333" y1="5.78" x2="6.97333" y2="6.02" style="stroke:rgb(246,147,147);stroke-width:0.01" />
<line x1="7.17333" y1="5.62" x2="7.21333" y2="5.84" style="stroke:rgb(246,147,147);stroke-width:0.01" />
<line x1="7.11333" y1="5.54" x2="7.15333" y2="5.76" style="stroke:rgb(246,147,147);stroke-width:0.01" />
<line x1="7.09333" y1="5.68" x2="7.13333" y2="5.9" style="stroke:rgb(246,147,147);stroke-width:0.01" />
<line x1="7.03333" y1="5.6" x2="7.07333" y2="5.82" style="stroke:rgb(246,147,147);stroke-width:0.01" />
<line x1="6.95333" y1="5.66" x2="6.99333" y2="5.88" style="stroke:rgb(246,147,147);stroke-width:0.01" />
<line x1="6.89333" y1="5.58" x2="6.93333" y2="5.8" style="stroke:rgb(246,147,147);stroke-width:0.01" />
<line x1="6.87333" y1="5.72" x2="6.91333" y2="5.94" style="stroke:rgb(246,147,147);stroke-width:0.01" />
<line x1="6.81333" y1="5.64" x2="6.85333" y2="5.86" style="stroke:rgb(246,147,147);stroke-width:0.01" />
<line x1="6.81333" y1="5.64" x2="6.79333" y2="5.78" style="stroke:rgb(246,147,147);stroke-width:0.01" />
<line x1="6.89333" y1="5.58" x2="6.85333" y2="5.86" style="stroke:rgb(246,147,147);stroke-width:0.01" />
<line x1="6.95333" y1="5.66" x2="6.91333" y2="5.94" style="stroke:rgb(246,147,147);stroke-width:0.01" />
<line x1="7.05333" y1="5.46" x2="6.97333" y2="6.02" style="stroke:rgb(246,147,147);stroke-width:0.01" />
<line x1="7.11333" y1="5.54" x2="7.07333" y2="5.82" style="stroke:rgb(246,147,147);stroke-width:0.01" />
<line x1="7.17333" y1="5.62" x2="7.13333" y2="5.9" style="stroke:rgb(246,147,147);stroke-width:0.01" />
<line x1="7.23333" y1="5.7" x2="7.21333" y2="5.84" style="stroke:rgb(246,147,147);stroke-width:0.01" />
<line x1="6.97333" y1="5.52" x2="7.11333" y2="5.54" style="stroke:rgb(246,147,147);stroke-width:0.01" />
<line x1="6.89333" y1="5.58" x2="7.17333" y2="5.62" style="stroke:rgb(246,147,147);stroke-width:0.01" />
<line x1="6.81333" y1="5.64" x2="7.09333" y2="5.68" style="stroke:rgb(246,147,147);stroke-width:0.01" />
<line x1="6.73333" y1="5.7" x2="7.29333" y2="5.78" style="stroke:rgb(246,147,147);stroke-width:0.01" />
<line x1="6.93333" y1="5.8" x2="7.21333" y2="5.84" style="stroke:rgb(246,147,147);stroke-width:0.01" />
<line x1="6.85333" y1="5.86" x2="7.13333" y2="5.9" style="stroke:rgb(246,147,147);stroke-width:0.01" />
<line x1="6.91333" y1="5.94" x2="7.05333" y2="5.96" style="stroke:rgb(246,147,147);stroke-width:0.01" />
<line x1="7.11333" y1="5.54" x2="6.89333" y2="5.58" style="stroke:rgb(246,147,147);stroke-width:0.01" />
<line x1="7.03333" y1="5.6" x2="6.81333" y2="5.64" style="stroke:rgb(246,147,147);stroke-width:0.01" />
<line x1="7.17333" y1="5.62" x2="6.95333" y2="5.66" style="stroke:rgb(246,147,147);stroke-width:0.01" />
<line x1="7.09333" y1="5.68" x2="6.87333" y2="5.72" style="stroke:rgb(246,147,147);stroke-width:0.01" />
<line x1="7.15333" y1="5.76" x2="6.93333" y2="5.8" style="stroke:rgb(246,147,147);stroke-width:0.01" />
<line x1="7.07333" y1="5.82" x2="6.85333" y2="5.86" style="stroke:rgb(246,147,147);stroke-width:0.01" />
<line x1="6.97333" y1="5.52" x2="6.73333" y2="5.7" style="stroke:rgb(246,147,147);stroke-width:0.01" />
<line x1="7.21333" y1="5.84" x2="6.99333" y2="5.88" style="stroke:rgb(246,147,147);stroke-width:0.01" />
<line x1="6.95333" y1="5.66" x2="6.79333" y2="5.78" style="stroke:rgb(246,147,147);stroke-width:0.01" />
<line x1="7.13333" y1="5.9" x2="6.91333" y2="5.94" style="stroke:rgb(246,147,147);stroke-width:0.01" />
<line x1="7.17333" y1="5.62" x2="6.85333" y2="5.86" style="stroke:rgb(246,147,147);stroke-width:0.01" />
<line x1="7.23333" y1="5.7" x2="7.07333" y2="5.82" style="stroke:rgb(246,147,147);stroke-width:0.01" />
<line x1="7.29333" y1="5.78" x2="7.05333" y2="5.96" style="stroke:rgb(246,147,147);stroke-width:0.01" />
</g>
</svg>
