<svg xmlns="http://www.w3.org/2000/svg" viewBox="-1.5 -1.5 3 3">
<g transform="scale(1, -1)">
<path d="M0.232412 -0.339440 L0.266511 -0.007855 L0.232412 -0.004349 L0.232412 0.327227 L-0.481874 0.327227 L-0.481874 -0.302810 z " fill="rgb(245,195,195)" />
<path d="M-1.196159 -0.672773 L-0.196159 -0.672773 L-0.196159 0.327227 L-1.196159 0.327227  z" fill="none" stroke="rgb(128,128,128)" stroke-width="0.01" />
<line x1="0.232412" y1="-0.33944" x2="0.266511" y2="-0.00785518" style="stroke:rgb(246,147,147);stroke-width:0.01" />
<line x1="-0.481874" y1="-0.30281" x2="-0.481874" y2="0.327227" style="stroke:rgb(246,147,147);stroke-width:0.01" />
<line x1="-0.196159" y1="-0.288158" x2="-0.196159" y2="0.327227" style="stroke:rgb(246,147,147);stroke-width:0.01" />
<line x1="0.232412" y1="-0.33944" x2="0.232412" y2="0.327227" style="stroke:rgb(246,147,147);stroke-width:0.01" />
<line x1="-0.196159" y1="-0.288158" x2="-0.235504" y2="0.0944399" style="stroke:rgb(246,147,147);stroke-width:0.01" />
<line x1="-0.481874" y1="-0.30281" x2="-0.196159" y2="-0.288158" style="stroke:rgb(246,147,147);stroke-width:0.01" />
<line x1="0.232412" y1="-0.33944" x2="-0.481874" y2="-0.30281" style="stroke:rgb(246,147,147);stroke-width:0.01" />
<line x1="-0.481874" y1="0.0691046" x2="-0.235504" y2="0.0944399" style="stroke:rgb(246,147,147);stroke-width:0.01" />
<line x1="0.266511" y1="-0.00785518" x2="-0.481874" y2="0.0691046" style="stroke:rgb(246,147,147);stroke-width:0.01" />
<line x1="-0.481874" y1="0.327227" x2="0.232412" y2="0.327227" style="stroke:rgb(246,147,147);stroke-width:0.01" />
</g>
</svg>
