<svg xmlns="http://www.w3.org/2000/svg" viewBox="-1.5 -1.5 3 3">
<g transform="scale(1, -1)">
<path d="M1.428571 0.333333 L1.462670 0.664918 L1.428571 0.668425 L1.428571 1.000000 L0.714286 1.000000 L0.714286 0.369963 z " fill="rgb(245,195,195)" />
<path d="M0.000000 0.000000 L1.000000 0.000000 L1.000000 1.000000 L0.000000 1.000000  z" fill="none" stroke="rgb(128,128,128)" stroke-width="0.01" />
<line x1="1.42857" y1="0.333333" x2="1.46267" y2="0.664918" style="stroke:rgb(246,147,147);stroke-width:0.01" />
<line x1="0.714286" y1="0.369963" x2="0.714286" y2="1" style="stroke:rgb(246,147,147);stroke-width:0.01" />
<line x1="1" y1="0.384615" x2="1" y2="1" style="stroke:rgb(246,147,147);stroke-width:0.01" />
<line x1="1.42857" y1="0.333333" x2="1.42857" y2="1" style="stroke:rgb(246,147,147);stroke-width:0.01" />
<line x1="1" y1="0.384615" x2="0.960656" y2="0.767213" style="stroke:rgb(246,147,147);stroke-width:0.01" />
<line x1="0.714286" y1="0.369963" x2="1" y2="0.384615" style="stroke:rgb(246,147,147);stroke-width:0.01" />
<line x1="1.42857" y1="0.333333" x2="0.714286" y2="0.369963" style="stroke:rgb(246,147,147);stroke-width:0.01" />
<line x1="0.714286" y1="0.741878" x2="0.960656" y2="0.767213" style="stroke:rgb(246,147,147);stroke-width:0.01" />
<line x1="1.46267" y1="0.664918" x2="0.714286" y2="0.741878" style="stroke:rgb(246,147,147);stroke-width:0.01" />
<line x1="0.714286" y1="1" x2="1.42857" y2="1" style="stroke:rgb(246,147,147);stroke-width:0.01" />
</g>
</svg>
