<svg xmlns="http://www.w3.org/2000/svg" viewBox="-1.5 -1.5 3 3">
<g transform="scale(1, -1)">
<path d="M7.386667 5.710000 L7.566667 5.950000 L7.556667 6.020000 L7.626667 6.030000 L7.386667 6.210000 L7.316667 6.200000 L7.306667 6.270000 L7.126667 6.030000 L7.136667 5.960000 L7.066667 5.950000 L7.306667 5.770000 L7.376667 5.780000 z " fill="rgb(245,195,195)" />
<path d="M0.000000 0.000000 L1.000000 0.000000 L1.000000 1.000000 L0.000000 1.000000  z" fill="none" stroke="rgb(128,128,128)" stroke-width="0.01" />
<line x1="7.38667" y1="5.71" x2="7.56667" y2="5.95" style="stroke:rgb(246,147,147);stroke-width:0.01" />
<line x1="7.30667" y1="5.77" x2="7.42667" y2="5.93" style="stroke:rgb(246,147,147);stroke-width:0.01" />
<line x1="7.22667" y1="5.83" x2="7.46667" y2="6.15" style="stroke:rgb(246,147,147);stroke-width:0.01" />
<line x1="7.26667" y1="6.05" x2="7.38667" y2="6.21" style="stroke:rgb(246,147,147);stroke-width:0.01" />
<line x1="7.12667" y1="6.03" x2="7.30667" y2="6.27" style="stroke:rgb(246,147,147);stroke-width:0.01" />
<line x1="7.50667" y1="5.87" x2="7.54667" y2="6.09" style="stroke:rgb(246,147,147);stroke-width:0.01" />
<line x1="7.44667" y1="5.79" x2="7.48667" y2="6.01" style="stroke:rgb(246,147,147);stroke-width:0.01" />
<line x1="7.42667" y1="5.93" x2="7.46667" y2="6.15" style="stroke:rgb(246,147,147);stroke-width:0.01" />
<line x1="7.36667" y1="5.85" x2="7.40667" y2="6.07" style="stroke:rgb(246,147,147);stroke-width:0.01" />
<line x1="7.28667" y1="5.91" x2="7.32667" y2="6.13" style="stroke:rgb(246,147,147);stroke-width:0.01" />
<line x1="7.22667" y1="5.83" x2="7.26667" y2="6.05" style="stroke:rgb(246,147,147);stroke-width:0.01" />
<line x1="7.20667" y1="5.97" x2="7.24667" y2="6.19" style="stroke:rgb(246,147,147);stroke-width:0.01" />
<line x1="7.14667" y1="5.89" x2="7.18667" y2="6.11" style="stroke:rgb(246,147,147);stroke-width:0.01" />
<line x1="7.14667" y1="5.89" x2="7.12667" y2="6.03" style="stroke:rgb(246,147,147);stroke-width:0.01" />
<line x1="7.22667" y1="5.83" x2="7.18667" y2="6.11" style="stroke:rgb(246,147,147);stroke-width:0.01" />
<line x1="7.28667" y1="5.91" x2="7.24667" y2="6.19" style="stroke:rgb(246,147,147);stroke-width:0.01" />
<line x1="7.38667" y1="5.71" x2="7.30667" y2="6.27" style="stroke:rgb(246,147,147);stroke-width:0.01" />
<line x1="7.44667" y1="5.79" x2="7.40667" y2="6.07" style="stroke:rgb(246,147,147);stroke-width:0.01" />
<line x1="7.50667" y1="5.87" x2="7.46667" y2="6.15" style="stroke:rgb(246,147,147);stroke-width:0.01" />
<line x1="7.56667" y1="5.95" x2="7.54667" y2="6.09" style="stroke:rgb(246,147,147);stroke-width:0.01" />
<line x1="7.30667" y1="5.77" x2="7.44667" y2="5.79" style="stroke:rgb(246,147,147);stroke-width:0.01" />
<line x1="7.22667" y1="5.83" x2="7.50667" y2="5.87" style="stroke:rgb(246,147,147);stroke-width:0.01" />
<line x1="7.14667" y1="5.89" x2="7.42667" y2="5.93" style="stroke:rgb(246,147,147);stroke-width:0.01" />
<line x1="7.06667" y1="5.95" x2="7.62667" y2="6.03" style="stroke:rgb(246,147,147);stroke-width:0.01" />
<line x1="7.26667" y1="6.05" x2="7.54667" y2="6.09" style="stroke:rgb(246,147,147);stroke-width:0.01" />
<line x1="7.18667" y1="6.11" x2="7.46667" y2="6.15" style="stroke:rgb(246,147,147);stroke-width:0.01" />
<line x1="7.24667" y1="6.19" x2="7.38667" y2="6.21" style="stroke:rgb(246,147,147);stroke-width:0.01" />
<line x1="7.44667" y1="5.79" x2="7.22667" y2="5.83" style="stroke:rgb(246,147,147);stroke-width:0.01" />
<line x1="7.36667" y1="5.85" x2="7.14667" y2="5.89" style="stroke:rgb(246,147,147);stroke-width:0.01" />
<line x1="7.50667" y1="5.87" x2="7.28667" y2="5.91" style="stroke:rgb(246,147,147);stroke-width:0.01" />
<line x1="7.42667" y1="5.93" x2="7.20667" y2="5.97" style="stroke:rgb(246,147,147);stroke-width:0.01" />
<line x1="7.48667" y1="6.01" x2="7.26667" y2="6.05" style="stroke:rgb(246,147,147);stroke-width:0.01" />
<line x1="7.40667" y1="6.07" x2="7.18667" y2="6.11" style="stroke:rgb(246,147,147);stroke-width:0.01" />
<line x1="7.30667" y1="5.77" x2="7.06667" y2="5.95" style="stroke:rgb(246,147,147);stroke-width:0.01" />
<line x1="7.54667" y1="6.09" x2="7.32667" y2="6.13" style="stroke:rgb(246,147,147);stroke-width:0.01" />
<line x1="7.46667" y1="6.15" x2="7.24667" y2="6.19" style="stroke:rgb(246,147,147);stroke-width:0.01" />
<line x1="7.28667" y1="5.91" x2="7.12667" y2="6.03" style="stroke:rgb(246,147,147);stroke-width:0.01" />
<line x1="7.50667" y1="5.87" x2="7.18667" y2="6.11" style="stroke:rgb(246,147,147);stroke-width:0.01" />
<line x1="7.56667" y1="5.95" x2="7.40667" y2="6.07" style="stroke:rgb(246,147,147);stroke-width:0.01" />
<line x1="7.62667" y1="6.03" x2="7.38667" y2="6.21" style="stroke:rgb(246,147,147);stroke-width:0.01" />
</g>
</svg>
