<svg xmlns="http://www.w3.org/2000/svg" viewBox="-1.5 -1.5 3 3">
<g transform="scale(1, -1)">
<path d="M8.053333 6.210000 L8.233333 6.450000 L8.223333 6.520000 L8.293333 6.530000 L8.053333 6.710000 L7.983333 6.700000 L7.973333 6.770000 L7.793333 6.530000 L7.803333 6.460000 L7.733333 6.450000 L7.973333 6.270000 L8.043333 6.280000 z " fill="rgb(245,195,195)" />
<path d="M0.000000 0.000000 L1.000000 0.000000 L1.000000 1.000000 L0.000000 1.000000  z" fill="none" stroke="rgb(128,128,128)" stroke-width="0.01" />
<line x1="8.05333" y1="6.21" x2="8.23333" y2="6.45" style="stroke:rgb(246,147,147);stroke-width:0.01" />
<line x1="7.97333" y1="6.27" x2="8.09333" y2="6.43" style="stroke:rgb(246,147,147);stroke-width:0.01" />
<line x1="7.89333" y1="6.33" x2="8.13333" y2="6.65" style="stroke:rgb(246,147,147);stroke-width:0.01" />
<line x1="7.93333" y1="6.55" x2="8.05333" y2="6.71" style="stroke:rgb(246,147,147);stroke-width:0.01" />
<line x1="7.79333" y1="6.53" x2="7.97333" y2="6.77" style="stroke:rgb(246,147,147);stroke-width:0.01" />
<line x1="8.17333" y1="6.37" x2="8.21333" y2="6.59" style="stroke:rgb(246,147,147);stroke-width:0.01" />
<line x1="8.11333" y1="6.29" x2="8.15333" y2="6.51" style="stroke:rgb(246,147,147);stroke-width:0.01" />
<line x1="8.09333" y1="6.43" x2="8.13333" y2="6.65" style="stroke:rgb(246,147,147);stroke-width:0.01" />
<line x1="8.03333" y1="6.35" x2="8.07333" y2="6.57" style="stroke:rgb(246,147,147);stroke-width:0.01" />
<line x1="7.95333" y1="6.41" x2="7.99333" y2="6.63" style="stroke:rgb(246,147,147);stroke-width:0.01" />
<line x1="7.89333" y1="6.33" x2="7.93333" y2="6.55" style="stroke:rgb(246,147,147);stroke-width:0.01" />
<line x1="7.87333" y1="6.47" x2="7.91333" y2="6.69" style="stroke:rgb(246,147,147);stroke-width:0.01" />
<line x1="7.81333" y1="6.39" x2="7.85333" y2="6.61" style="stroke:rgb(246,147,147);stroke-width:0.01" />
<line x1="7.81333" y1="6.39" x2="7.79333" y2="6.53" style="stroke:rgb(246,147,147);stroke-width:0.01" />
<line x1="7.89333" y1="6.33" x2="7.85333" y2="6.61" style="stroke:rgb(246,147,147);stroke-width:0.01" />
<line x1="7.95333" y1="6.41" x2="7.91333" y2="6.69" style="stroke:rgb(246,147,147);stroke-width:0.01" />
<line x1="8.05333" y1="6.21" x2="7.97333" y2="6.77" style="stroke:rgb(246,147,147);stroke-width:0.01" />
<line x1="8.11333" y1="6.29" x2="8.07333" y2="6.57" style="stroke:rgb(246,147,147);stroke-width:0.01" />
<line x1="8.17333" y1="6.37" x2="8.13333" y2="6.65" style="stroke:rgb(246,147,147);stroke-width:0.01" />
<line x1="8.23333" y1="6.45" x2="8.21333" y2="6.59" style="stroke:rgb(246,147,147);stroke-width:0.01" />
<line x1="7.97333" y1="6.27" x2="8.11333" y2="6.29" style="stroke:rgb(246,147,147);stroke-width:0.01" />
<line x1="7.89333" y1="6.33" x2="8.17333" y2="6.37" style="stroke:rgb(246,147,147);stroke-width:0.01" />
<line x1="7.81333" y1="6.39" x2="8.09333" y2="6.43" style="stroke:rgb(246,147,147);stroke-width:0.01" />
<line x1="7.73333" y1="6.45" x2="8.29333" y2="6.53" style="stroke:rgb(246,147,147);stroke-width:0.01" />
<line x1="7.93333" y1="6.55" x2="8.21333" y2="6.59" style="stroke:rgb(246,147,147);stroke-width:0.01" />
<line x1="7.85333" y1="6.61" x2="8.13333" y2="6.65" style="stroke:rgb(246,147,147);stroke-width:0.01" />
<line x1="7.91333" y1="6.69" x2="8.05333" y2="6.71" style="stroke:rgb(246,147,147);stroke-width:0.01" />
<line x1="8.11333" y1="6.29" x2="7.89333" y2="6.33" style="stroke:rgb(246,147,147);stroke-width:0.01" />
<line x1="8.03333" y1="6.35" x2="7.81333" y2="6.39" style="stroke:rgb(246,147,147);stroke-width:0.01" />
<line x1="8.17333" y1="6.37" x2="7.95333" y2="6.41" style="stroke:rgb(246,147,147);stroke-width:0.01" />
<line x1="8.09333" y1="6.43" x2="7.87333" y2="6.47" style="stroke:rgb(246,147,147);stroke-width:0.01" />
<line x1="8.15333" y1="6.51" x2="7.93333" y2="6.55" style="stroke:rgb(246,147,147);stroke-width:0.01" />
<line x1="8.07333" y1="6.57" x2="7.85333" y2="6.61" style="stroke:rgb(246,147,147);stroke-width:0.01" />
<line x1="8.21333" y1="6.59" x2="7.99333" y2="6.63" style="stroke:rgb(246,147,147);stroke-width:0.01" />
<line x1="7.97333" y1="6.27" x2="7.73333" y2="6.45" style="stroke:rgb(246,147,147);stroke-width:0.01" />
<line x1="8.13333" y1="6.65" x2="7.91333" y2="6.69" style="stroke:rgb(246,147,147);stroke-width:0.01" />
<line x1="7.95333" y1="6.41" x2="7.79333" y2="6.53" style="stroke:rgb(246,147,147);stroke-width:0.01" />
<line x1="8.17333" y1="6.37" x2="7.85333" y2="6.61" style="stroke:rgb(246,147,147);stroke-width:0.01" />
<line x1="8.23333" y1="6.45" x2="8.07333" y2="6.57" style="stroke:rgb(246,147,147);stroke-width:0.01" />
<line x1="8.29333" y1="6.53" x2="8.05333" y2="6.71" style="stroke:rgb(246,147,147);stroke-width:0.01" />
</g>
</svg>
