<svg xmlns="http://www.w3.org/2000/svg" viewBox="-1.5 -1.5 3 3">
<g transform="scale(1, -1)">
<path d="M8.386667 6.460000 L8.566667 6.700000 L8.556667 6.770000 L8.626667 6.780000 L8.386667 6.960000 L8.316667 6.950000 L8.306667 7.020000 L8.126667 6.780000 L8.136667 6.710000 L8.066667 6.700000 L8.306667 6.520000 L8.376667 6.530000 z " fill="rgb(245,195,195)" />
<path d="M0.000000 0.000000 L1.000000 0.000000 L1.000000 1.000000 L0.000000 1.000000  z" fill="none" stroke="rgb(128,128,128)" stroke-width="0.01" />
<line x1="8.38667" y1="6.46" x2="8.56667" y2="6.7" style="stroke:rgb(246,147,147);stroke-width:0.01" />
<line x1="8.30667" y1="6.52" x2="8.42667" y2="6.68" style="stroke:rgb(246,147,147);stroke-width:0.01" />
<line x1="8.22667" y1="6.58" x2="8.46667" y2="6.9" style="stroke:rgb(246,147,147);stroke-width:0.01" />
<line x1="8.26667" y1="6.8" x2="8.38667" y2="6.96" style="stroke:rgb(246,147,147);stroke-width:0.01" />
<line x1="8.12667" y1="6.78" x2="8.30667" y2="7.02" style="stroke:rgb(246,147,147);stroke-width:0.01" />
<line x1="8.50667" y1="6.62" x2="8.54667" y2="6.84" style="stroke:rgb(246,147,147);stroke-width:0.01" />
<line x1="8.44667" y1="6.54" x2="8.48667" y2="6.76" style="stroke:rgb(246,147,147);stroke-width:0.01" />
<line x1="8.42667" y1="6.68" x2="8.46667" y2="6.9" style="stroke:rgb(246,147,147);stroke-width:0.01" />
<line x1="8.36667" y1="6.6" x2="8.40667" y2="6.82" style="stroke:rgb(246,147,147);stroke-width:0.01" />
<line x1="8.28667" y1="6.66" x2="8.32667" y2="6.88" style="stroke:rgb(246,147,147);stroke-width:0.01" />
<line x1="8.22667" y1="6.58" x2="8.26667" y2="6.8" style="stroke:rgb(246,147,147);stroke-width:0.01" />
<line x1="8.20667" y1="6.72" x2="8.24667" y2="6.94" style="stroke:rgb(246,147,147);stroke-width:0.01" />
<line x1="8.14667" y1="6.64" x2="8.18667" y2="6.86" style="stroke:rgb(246,147,147);stroke-width:0.01" />
<line x1="8.14667" y1="6.64" x2="8.12667" y2="6.78" style="stroke:rgb(246,147,147);stroke-width:0.01" />
<line x1="8.22667" y1="6.58" x2="8.18667" y2="6.86" style="stroke:rgb(246,147,147);stroke-width:0.01" />
<line x1="8.28667" y1="6.66" x2="8.24667" y2="6.94" style="stroke:rgb(246,147,147);stroke-width:0.01" />
<line x1="8.38667" y1="6.46" x2="8.30667" y2="7.02" style="stroke:rgb(246,147,147);stroke-width:0.01" />
<line x1="8.44667" y1="6.54" x2="8.40667" y2="6.82" style="stroke:rgb(246,147,147);stroke-width:0.01" />
<line x1="8.50667" y1="6.62" x2="8.46667" y2="6.9" style="stroke:rgb(246,147,147);stroke-width:0.01" />
<line x1="8.56667" y1="6.7" x2="8.54667" y2="6.84" style="stroke:rgb(246,147,147);stroke-width:0.01" />
<line x1="8.30667" y1="6.52" x2="8.44667" y2="6.54" style="stroke:rgb(246,147,147);stroke-width:0.01" />
<line x1="8.22667" y1="6.58" x2="8.50667" y2="6.62" style="stroke:rgb(246,147,147);stroke-width:0.01" />
<line x1="8.14667" y1="6.64" x2="8.42667" y2="6.68" style="stroke:rgb(246,147,147);stroke-width:0.01" />
<line x1="8.06667" y1="6.7" x2="8.62667" y2="6.78" style="stroke:rgb(246,147,147);stroke-width:0.01" />
<line x1="8.26667" y1="6.8" x2="8.54667" y2="6.84" style="stroke:rgb(246,147,147);stroke-width:0.01" />
<line x1="8.18667" y1="6.86" x2="8.46667" y2="6.9" style="stroke:rgb(246,147,147);stroke-width:0.01" />
<line x1="8.24667" y1="6.94" x2="8.38667" y2="6.96" style="stroke:rgb(246,147,147);stroke-width:0.01" />
<line x1="8.44667" y1="6.54" x2="8.22667" y2="6.58" style="stroke:rgb(246,147,147);stroke-width:0.01" />
<line x1="8.36667" y1="6.6" x2="8.14667" y2="6.64" style="stroke:rgb(246,147,147);stroke-width:0.01" />
<line x1="8.50667" y1="6.62" x2="8.28667" y2="6.66" style="stroke:rgb(246,147,147);stroke-width:0.01" />
<line x1="8.42667" y1="6.68" x2="8.20667" y2="6.72" style="stroke:rgb(246,147,147);stroke-width:0.01" />
<line x1="8.48667" y1="6.76" x2="8.26667" y2="6.8" style="stroke:rgb(246,147,147);stroke-width:0.01" />
<line x1="8.40667" y1="6.82" x2="8.18667" y2="6.86" style="stroke:rgb(246,147,147);stroke-width:0.01" />
<line x1="8.54667" y1="6.84" x2="8.32667" y2="6.88" style="stroke:rgb(246,147,147);stroke-width:0.01" />
<line x1="8.30667" y1="6.52" x2="8.06667" y2="6.7" style="stroke:rgb(246,147,147);stroke-width:0.01" />
<line x1="8.46667" y1="6.9" x2="8.24667" y2="6.94" style="stroke:rgb(246,147,147);stroke-width:0.01" />
<line x1="8.28667" y1="6.66" x2="8.12667" y2="6.78" style="stroke:rgb(246,147,147);stroke-width:0.01" />
<line x1="8.50667" y1="6.62" x2="8.18667" y2="6.86" style="stroke:rgb(246,147,147);stroke-width:0.01" />
<line x1="8.56667" y1="6.7" x2="8.40667" y2="6.82" style="stroke:rgb(246,147,147);stroke-width:0.01" />
<line x1="8.62667" y1="6.78" x2="8.38667" y2="6.96" style="stroke:rgb(246,147,147);stroke-width:0.01" />
</g>
</svg>
