<svg xmlns="http://www.w3.org/2000/svg" viewBox="-1.5 -1.5 3 3">
<g transform="scale(1, -1)">
<path d="M9.053333 6.960000 L9.233333 7.200000 L9.223333 7.270000 L9.293333 7.280000 L9.053333 7.460000 L8.983333 7.450000 L8.973333 7.520000 L8.793333 7.280000 L8.803333 7.210000 L8.733333 7.200000 L8.973333 7.020000 L9.043333 7.030000 z " fill="rgb(245,195,195)" />
<path d="M0.000000 0.000000 L1.000000 0.000000 L1.000000 1.000000 L0.000000 1.000000  z" fill="none" stroke="rgb(128,128,128)" stroke-width="0.01" />
<line x1="9.05333" y1="6.96" x2="9.23333" y2="7.2" style="stroke:rgb(246,147,147);stroke-width:0.01" />
<line x1="8.97333" y1="7.02" x2="9.09333" y2="7.18" style="stroke:rgb(246,147,147);stroke-width:0.01" />
<line x1="8.89333" y1="7.08" x2="9.13333" y2="7.4" style="stroke:rgb(246,147,147);stroke-width:0.01" />
<line x1="8.93333" y1="7.3" x2="9.05333" y2="7.46" style="stroke:rgb(246,147,147);stroke-width:0.01" />
<line x1="8.79333" y1="7.28" x2="8.97333" y2="7.52" style="stroke:rgb(246,147,147);stroke-width:0.01" />
<line x1="9.17333" y1="7.12" x2="9.21333" y2="7.34" style="stroke:rgb(246,147,147);stroke-width:0.01" />
<line x1="9.11333" y1="7.04" x2="9.15333" y2="7.26" style="stroke:rgb(246,147,147);stroke-width:0.01" />
<line x1="9.09333" y1="7.18" x2="9.13333" y2="7.4" style="stroke:rgb(246,147,147);stroke-width:0.01" />
<line x1="9.03333" y1="7.1" x2="9.07333" y2="7.32" style="stroke:rgb(246,147,147);stroke-width:0.01" />
<line x1="8.95333" y1="7.16" x2="8.99333" y2="7.38" style="stroke:rgb(246,147,147);stroke-width:0.01" />
<line x1="8.89333" y1="7.08" x2="8.93333" y2="7.3" style="stroke:rgb(246,147,147);stroke-width:0.01" />
<line x1="8.87333" y1="7.22" x2="8.91333" y2="7.44" style="stroke:rgb(246,147,147);stroke-width:0.01" />
<line x1="8.81333" y1="7.14" x2="8.85333" y2="7.36" style="stroke:rgb(246,147,147);stroke-width:0.01" />
<line x1="8.81333" y1="7.14" x2="8.79333" y2="7.28" style="stroke:rgb(246,147,147);stroke-width:0.01" />
<line x1="8.89333" y1="7.08" x2="8.85333" y2="7.36" style="stroke:rgb(246,147,147);stroke-width:0.01" />
<line x1="8.95333" y1="7.16" x2="8.91333" y2="7.44" style="stroke:rgb(246,147,147);stroke-width:0.01" />
<line x1="9.05333" y1="6.96" x2="8.97333" y2="7.52" style="stroke:rgb(246,147,147);stroke-width:0.01" />
<line x1="9.11333" y1="7.04" x2="9.07333" y2="7.32" style="stroke:rgb(246,147,147);stroke-width:0.01" />
<line x1="9.17333" y1="7.12" x2="9.13333" y2="7.4" style="stroke:rgb(246,147,147);stroke-width:0.01" />
<line x1="9.23333" y1="7.2" x2="9.21333" y2="7.34" style="stroke:rgb(246,147,147);stroke-width:0.01" />
<line x1="8.97333" y1="7.02" x2="9.11333" y2="7.04" style="stroke:rgb(246,147,147);stroke-width:0.01" />
<line x1="8.89333" y1="7.08" x2="9.17333" y2="7.12" style="stroke:rgb(246,147,147);stroke-width:0.01" />
<line x1="8.81333" y1="7.14" x2="9.09333" y2="7.18" style="stroke:rgb(246,147,147);stroke-width:0.01" />
<line x1="8.73333" y1="7.2" x2="9.29333" y2="7.28" style="stroke:rgb(246,147,147);stroke-width:0.01" />
<line x1="8.93333" y1="7.3" x2="9.21333" y2="7.34" style="stroke:rgb(246,147,147);stroke-width:0.01" />
<line x1="8.85333" y1="7.36" x2="9.13333" y2="7.4" style="stroke:rgb(246,147,147);stroke-width:0.01" />
<line x1="8.91333" y1="7.44" x2="9.05333" y2="7.46" style="stroke:rgb(246,147,147);stroke-width:0.01" />
<line x1="9.11333" y1="7.04" x2="8.89333" y2="7.08" style="stroke:rgb(246,147,147);stroke-width:0.01" />
<line x1="9.03333" y1="7.1" x2="8.81333" y2="7.14" style="stroke:rgb(246,147,147);stroke-width:0.01" />
<line x1="9.17333" y1="7.12" x2="8.95333" y2="7.16" style="stroke:rgb(246,147,147);stroke-width:0.01" />
<line x1="9.09333" y1="7.18" x2="8.87333" y2="7.22" style="stroke:rgb(246,147,147);stroke-width:0.01" />
<line x1="9.15333" y1="7.26" x2="8.93333" y2="7.3" style="stroke:rgb(246,147,147);stroke-width:0.01" />
<line x1="9.07333" y1="7.32" x2="8.85333" y2="7.36" style="stroke:rgb(246,147,147);stroke-width:0.01" />
<line x1="9.21333" y1="7.34" x2="8.99333" y2="7.38" style="stroke:rgb(246,147,147);stroke-width:0.01" />
<line x1="9.13333" y1="7.4" x2="8.91333" y2="7.44" style="stroke:rgb(246,147,147);stroke-width:0.01" />
<line x1="8.97333" y1="7.02" x2="8.73333" y2="7.2" style="stroke:rgb(246,147,147);stroke-width:0.01" />
<line x1="8.95333" y1="7.16" x2="8.79333" y2="7.28" style="stroke:rgb(246,147,147);stroke-width:0.01" />
<line x1="9.17333" y1="7.12" x2="8.85333" y2="7.36" style="stroke:rgb(246,147,147);stroke-width:0.01" />
<line x1="9.23333" y1="7.2" x2="9.07333" y2="7.32" style="stroke:rgb(246,147,147);stroke-width:0.01" />
<line x1="9.29333" y1="7.28" x2="9.05333" y2="7.46" style="stroke:rgb(246,147,147);stroke-width:0.01" />
</g>
</svg>
