<svg xmlns="http://www.w3.org/2000/svg" viewBox="-1.5 -1.5 3 3">
<g transform="scale(1, -1)">
<path d="M9.386667 7.210000 L9.566667 7.450000 L9.556667 7.520000 L9.626667 7.530000 L9.386667 7.710000 L9.316667 7.700000 L9.306667 7.770000 L9.126667 7.530000 L9.136667 7.460000 L9.066667 7.450000 L9.306667 7.270000 L9.376667 7.280000 z " fill="rgb(245,195,195)" />
<path d="M0.000000 0.000000 L1.000000 0.000000 L1.000000 1.000000 L0.000000 1.000000  z" fill="none" stroke="rgb(128,128,128)" stroke-width="0.01" />
<line x1="9.38667" y1="7.21" x2="9.56667" y2="7.45" style="stroke:rgb(246,147,147);stroke-width:0.01" />
<line x1="9.30667" y1="7.27" x2="9.42667" y2="7.43" style="stroke:rgb(246,147,147);stroke-width:0.01" />
<line x1="9.22667" y1="7.33" x2="9.46667" y2="7.65" style="stroke:rgb(246,147,147);stroke-width:0.01" />
<line x1="9.26667" y1="7.55" x2="9.38667" y2="7.71" style="stroke:rgb(246,147,147);stroke-width:0.01" />
<line x1="9.12667" y1="7.53" x2="9.30667" y2="7.77" style="stroke:rgb(246,147,147);stroke-width:0.01" />
<line x1="9.50667" y1="7.37" x2="9.54667" y2="7.59" style="stroke:rgb(246,147,147);stroke-width:0.01" />
<line x1="9.44667" y1="7.29" x2="9.48667" y2="7.51" style="stroke:rgb(246,147,147);stroke-width:0.01" />
<line x1="9.42667" y1="7.43" x2="9.46667" y2="7.65" style="stroke:rgb(246,147,147);stroke-width:0.01" />
<line x1="9.36667" y1="7.35" x2="9.40667" y2="7.57" style="stroke:rgb(246,147,147);stroke-width:0.01" />
<line x1="9.28667" y1="7.41" x2="9.32667" y2="7.63" style="stroke:rgb(246,147,147);stroke-width:0.01" />
<line x1="9.22667" y1="7.33" x2="9.26667" y2="7.55" style="stroke:rgb(246,147,147);stroke-width:0.01" />
<line x1="9.20667" y1="7.47" x2="9.24667" y2="7.69" style="stroke:rgb(246,147,147);stroke-width:0.01" />
<line x1="9.14667" y1="7.39" x2="9.18667" y2="7.61" style="stroke:rgb(246,147,147);stroke-width:0.01" />
<line x1="9.14667" y1="7.39" x2="9.12667" y2="7.53" style="stroke:rgb(246,147,147);stroke-width:0.01" />
<line x1="9.22667" y1="7.33" x2="9.18667" y2="7.61" style="stroke:rgb(246,147,147);stroke-width:0.01" />
<line x1="9.28667" y1="7.41" x2="9.24667" y2="7.69" style="stroke:rgb(246,147,147);stroke-width:0.01" />
<line x1="9.38667" y1="7.21" x2="9.30667" y2="7.77" style="stroke:rgb(246,147,147);stroke-width:0.01" />
<line x1="9.44667" y1="7.29" x2="9.40667" y2="7.57" style="stroke:rgb(246,147,147);stroke-width:0.01" />
<line x1="9.50667" y1="7.37" x2="9.46667" y2="7.65" style="stroke:rgb(246,147,147);stroke-width:0.01" />
<line x1="9.56667" y1="7.45" x2="9.54667" y2="7.59" style="stroke:rgb(246,147,147);stroke-width:0.01" />
<line x1="9.30667" y1="7.27" x2="9.44667" y2="7.29" style="stroke:rgb(246,147,147);stroke-width:0.01" />
<line x1="9.22667" y1="7.33" x2="9.50667" y2="7.37" style="stroke:rgb(246,147,147);stroke-width:0.01" />
<line x1="9.14667" y1="7.39" x2="9.42667" y2="7.43" style="stroke:rgb(246,147,147);stroke-width:0.01" />
<line x1="9.06667" y1="7.45" x2="9.62667" y2="7.53" style="stroke:rgb(246,147,147);stroke-width:0.01" />
<line x1="9.26667" y1="7.55" x2="9.54667" y2="7.59" style="stroke:rgb(246,147,147);stroke-width:0.01" />
<line x1="9.18667" y1="7.61" x2="9.46667" y2="7.65" style="stroke:rgb(246,147,147);stroke-width:0.01" />
<line x1="9.24667" y1="7.69" x2="9.38667" y2="7.71" style="stroke:rgb(246,147,147);stroke-width:0.01" />
<line x1="9.44667" y1="7.29" x2="9.22667" y2="7.33" style="stroke:rgb(246,147,147);stroke-width:0.01" />
<line x1="9.36667" y1="7.35" x2="9.14667" y2="7.39" style="stroke:rgb(246,147,147);stroke-width:0.01" />
<line x1="9.50667" y1="7.37" x2="9.28667" y2="7.41" style="stroke:rgb(246,147,147);stroke-width:0.01" />
<line x1="9.42667" y1="7.43" x2="9.20667" y2="7.47" style="stroke:rgb(246,147,147);stroke-width:0.01" />
<line x1="9.48667" y1="7.51" x2="9.26667" y2="7.55" style="stroke:rgb(246,147,147);stroke-width:0.01" />
<line x1="9.40667" y1="7.57" x2="9.18667" y2="7.61" style="stroke:rgb(246,147,147);stroke-width:0.01" />
<line x1="9.54667" y1="7.59" x2="9.32667" y2="7.63" style="stroke:rgb(246,147,147);stroke-width:0.01" />
<line x1="9.46667" y1="7.65" x2="9.24667" y2="7.69" style="stroke:rgb(246,147,147);stroke-width:0.01" />
<line x1="9.30667" y1="7.27" x2="9.06667" y2="7.45" style="stroke:rgb(246,147,147);stroke-width:0.01" />
<line x1="9.28667" y1="7.41" x2="9.12667" y2="7.53" style="stroke:rgb(246,147,147);stroke-width:0.01" />
<line x1="9.50667" y1="7.37" x2="9.18667" y2="7.61" style="stroke:rgb(246,147,147);stroke-width:0.01" />
<line x1="9.56667" y1="7.45" x2="9.40667" y2="7.57" style="stroke:rgb(246,147,147);stroke-width:0.01" />
<line x1="9.62667" y1="7.53" x2="9.38667" y2="7.71" style="stroke:rgb(246,147,147);stroke-width:0.01" />
</g>
</svg>
