<svg xmlns="http://www.w3.org/2000/svg" viewBox="-1.5 -1.5 3 3">
<g transform="scale(1, -1)">
<path d="M-0.178571 -0.154762 L0.178571 -0.154762 L0.178571 0.154762 L-0.178571 0.154762 z " fill="rgb(245,195,195)" />
<path d="M-0.909341 -0.511905 L0.090659 -0.511905 L0.090659 0.488095 L-0.909341 0.488095  z" fill="none" stroke="rgb(128,128,128)" stroke-width="0.01" />
<line x1="-0.178571" y1="-0.154762" x2="-0.178571" y2="0.154762" style="stroke:rgb(246,147,147);stroke-width:0.01" />
<line x1="-0.123016" y1="-0.154762" x2="-0.123016" y2="0.154762" style="stroke:rgb(246,147,147);stroke-width:0.01" />
<line x1="-0.107143" y1="-0.154762" x2="-0.107143" y2="0.154762" style="stroke:rgb(246,147,147);stroke-width:0.01" />
<line x1="0.0674603" y1="-0.154762" x2="0.0674603" y2="0.154762" style="stroke:rgb(246,147,147);stroke-width:0.01" />
<line x1="0.178571" y1="-0.154762" x2="0.178571" y2="0.154762" style="stroke:rgb(246,147,147);stroke-width:0.01" />
<line x1="-0.178571" y1="-0.154762" x2="0.178571" y2="-0.154762" style="stroke:rgb(246,147,147);stroke-width:0.01" />
<line x1="-0.178571" y1="-0.112637" x2="0.178571" y2="-0.112637" style="stroke:rgb(246,147,147);stroke-width:0.01" />
<line x1="-0.178571" y1="-0.101648" x2="0.178571" y2="-0.101648" style="stroke:rgb(246,147,147);stroke-width:0.01" />
<line x1="-0.178571" y1="0.0412088" x2="0.178571" y2="0.0412088" style="stroke:rgb(246,147,147);stroke-width:0.01" />
<line x1="-0.178571" y1="0.125458" x2="0.178571" y2="0.125458" style="stroke:rgb(246,147,147);stroke-width:0.01" />
<line x1="-0.178571" y1="0.154762" x2="0.178571" y2="0.154762" style="stroke:rgb(246,147,147);stroke-width:0.01" />
</g>
</svg>
