<svg xmlns="http://www.w3.org/2000/svg" viewBox="-1.5 -1.5 3 3">
<g transform="scale(1, -1)">
<path d="M9.720000 7.460000 L9.900000 7.700000 L9.890000 7.770000 L9.960000 7.780000 L9.720000 7.960000 L9.650000 7.950000 L9.640000 8.020000 L9.460000 7.780000 L9.470000 7.710000 L9.400000 7.700000 L9.640000 7.520000 L9.710000 7.530000 z " fill="rgb(245,195,195)" />
<path d="M0.000000 0.000000 L1.000000 0.000000 L1.000000 1.000000 L0.000000 1.000000  z" fill="none" stroke="rgb(128,128,128)" stroke-width="0.01" />
<line x1="9.72" y1="7.46" x2="9.9" y2="7.7" style="stroke:rgb(246,147,147);stroke-width:0.01" />
<line x1="9.64" y1="7.52" x2="9.76" y2="7.68" style="stroke:rgb(246,147,147);stroke-width:0.01" />
<line x1="9.56" y1="7.58" x2="9.8" y2="7.9" style="stroke:rgb(246,147,147);stroke-width:0.01" />
<line x1="9.6" y1="7.8" x2="9.72" y2="7.96" style="stroke:rgb(246,147,147);stroke-width:0.01" />
<line x1="9.46" y1="7.78" x2="9.64" y2="8.02" style="stroke:rgb(246,147,147);stroke-width:0.01" />
<line x1="9.84" y1="7.62" x2="9.88" y2="7.84" style="stroke:rgb(246,147,147);stroke-width:0.01" />
<line x1="9.78" y1="7.54" x2="9.82" y2="7.76" style="stroke:rgb(246,147,147);stroke-width:0.01" />
<line x1="9.76" y1="7.68" x2="9.8" y2="7.9" style="stroke:rgb(246,147,147);stroke-width:0.01" />
<line x1="9.7" y1="7.6" x2="9.74" y2="7.82" style="stroke:rgb(246,147,147);stroke-width:0.01" />
<line x1="9.62" y1="7.66" x2="9.66" y2="7.88" style="stroke:rgb(246,147,147);stroke-width:0.01" />
<line x1="9.56" y1="7.58" x2="9.6" y2="7.8" style="stroke:rgb(246,147,147);stroke-width:0.01" />
<line x1="9.54" y1="7.72" x2="9.58" y2="7.94" style="stroke:rgb(246,147,147);stroke-width:0.01" />
<line x1="9.48" y1="7.64" x2="9.52" y2="7.86" style="stroke:rgb(246,147,147);stroke-width:0.01" />
<line x1="9.48" y1="7.64" x2="9.46" y2="7.78" style="stroke:rgb(246,147,147);stroke-width:0.01" />
<line x1="9.56" y1="7.58" x2="9.52" y2="7.86" style="stroke:rgb(246,147,147);stroke-width:0.01" />
<line x1="9.62" y1="7.66" x2="9.58" y2="7.94" style="stroke:rgb(246,147,147);stroke-width:0.01" />
<line x1="9.72" y1="7.46" x2="9.64" y2="8.02" style="stroke:rgb(246,147,147);stroke-width:0.01" />
<line x1="9.78" y1="7.54" x2="9.74" y2="7.82" style="stroke:rgb(246,147,147);stroke-width:0.01" />
<line x1="9.84" y1="7.62" x2="9.8" y2="7.9" style="stroke:rgb(246,147,147);stroke-width:0.01" />
<line x1="9.9" y1="7.7" x2="9.88" y2="7.84" style="stroke:rgb(246,147,147);stroke-width:0.01" />
<line x1="9.64" y1="7.52" x2="9.78" y2="7.54" style="stroke:rgb(246,147,147);stroke-width:0.01" />
<line x1="9.56" y1="7.58" x2="9.84" y2="7.62" style="stroke:rgb(246,147,147);stroke-width:0.01" />
<line x1="9.48" y1="7.64" x2="9.76" y2="7.68" style="stroke:rgb(246,147,147);stroke-width:0.01" />
<line x1="9.4" y1="7.7" x2="9.96" y2="7.78" style="stroke:rgb(246,147,147);stroke-width:0.01" />
<line x1="9.6" y1="7.8" x2="9.88" y2="7.84" style="stroke:rgb(246,147,147);stroke-width:0.01" />
<line x1="9.52" y1="7.86" x2="9.8" y2="7.9" style="stroke:rgb(246,147,147);stroke-width:0.01" />
<line x1="9.58" y1="7.94" x2="9.72" y2="7.96" style="stroke:rgb(246,147,147);stroke-width:0.01" />
<line x1="9.78" y1="7.54" x2="9.56" y2="7.58" style="stroke:rgb(246,147,147);stroke-width:0.01" />
<line x1="9.7" y1="7.6" x2="9.48" y2="7.64" style="stroke:rgb(246,147,147);stroke-width:0.01" />
<line x1="9.84" y1="7.62" x2="9.62" y2="7.66" style="stroke:rgb(246,147,147);stroke-width:0.01" />
<line x1="9.76" y1="7.68" x2="9.54" y2="7.72" style="stroke:rgb(246,147,147);stroke-width:0.01" />
<line x1="9.82" y1="7.76" x2="9.6" y2="7.8" style="stroke:rgb(246,147,147);stroke-width:0.01" />
<line x1="9.74" y1="7.82" x2="9.52" y2="7.86" style="stroke:rgb(246,147,147);stroke-width:0.01" />
<line x1="9.88" y1="7.84" x2="9.66" y2="7.88" style="stroke:rgb(246,147,147);stroke-width:0.01" />
<line x1="9.8" y1="7.9" x2="9.58" y2="7.94" style="stroke:rgb(246,147,147);stroke-width:0.01" />
<line x1="9.64" y1="7.52" x2="9.4" y2="7.7" style="stroke:rgb(246,147,147);stroke-width:0.01" />
<line x1="9.62" y1="7.66" x2="9.46" y2="7.78" style="stroke:rgb(246,147,147);stroke-width:0.01" />
<line x1="9.84" y1="7.62" x2="9.52" y2="7.86" style="stroke:rgb(246,147,147);stroke-width:0.01" />
<line x1="9.9" y1="7.7" x2="9.74" y2="7.82" style="stroke:rgb(246,147,147);stroke-width:0.01" />
<line x1="9.96" y1="7.78" x2="9.72" y2="7.96" style="stroke:rgb(246,147,147);stroke-width:0.01" />
</g>
</svg>
