<svg xmlns="http://www.w3.org/2000/svg" viewBox="-1.5 -1.5 3 3">
<g transform="scale(1, -1)">
<path d="M0.769231 0.333333 L0.773309 0.372990 L1.000000 0.384615 L1.000000 1.000000 L0.384615 1.000000 L0.384615 0.353057 z " fill="rgb(245,195,195)" />
<path d="M0.000000 0.000000 L1.000000 0.000000 L1.000000 1.000000 L0.000000 1.000000  z" fill="none" stroke="rgb(128,128,128)" stroke-width="0.01" />
<line x1="0.769231" y1="0.333333" x2="0.803329" y2="0.664918" style="stroke:rgb(246,147,147);stroke-width:0.01" />
<line x1="0.384615" y1="0.353057" x2="0.384615" y2="1" style="stroke:rgb(246,147,147);stroke-width:0.01" />
<line x1="0.769231" y1="0.333333" x2="0.769231" y2="1" style="stroke:rgb(246,147,147);stroke-width:0.01" />
<line x1="1" y1="0.384615" x2="1" y2="1" style="stroke:rgb(246,147,147);stroke-width:0.01" />
<line x1="1" y1="0.384615" x2="0.960656" y2="0.767213" style="stroke:rgb(246,147,147);stroke-width:0.01" />
<line x1="0.384615" y1="0.353057" x2="1" y2="0.384615" style="stroke:rgb(246,147,147);stroke-width:0.01" />
<line x1="0.769231" y1="0.333333" x2="0.384615" y2="0.353057" style="stroke:rgb(246,147,147);stroke-width:0.01" />
<line x1="0.384615" y1="0.707976" x2="0.960656" y2="0.767213" style="stroke:rgb(246,147,147);stroke-width:0.01" />
<line x1="0.803329" y1="0.664918" x2="0.384615" y2="0.707976" style="stroke:rgb(246,147,147);stroke-width:0.01" />
<line x1="0.384615" y1="1" x2="1" y2="1" style="stroke:rgb(246,147,147);stroke-width:0.01" />
</g>
</svg>
