<svg xmlns="http://www.w3.org/2000/svg" viewBox="-1.5 -1.5 3 3">
<g transform="scale(1, -1)">
<path d="M0.050602 -0.240666 L0.054680 -0.201009 L0.281372 -0.189384 L0.281372 0.426001 L-0.334013 0.426001 L-0.334013 -0.220942 z " fill="rgb(245,195,195)" />
<path d="M-0.718628 -0.573999 L0.281372 -0.573999 L0.281372 0.426001 L-0.718628 0.426001  z" fill="none" stroke="rgb(128,128,128)" stroke-width="0.01" />
<line x1="0.0506024" y1="-0.240666" x2="0.0847007" y2="0.0909187" style="stroke:rgb(246,147,147);stroke-width:0.01" />
<line x1="-0.334013" y1="-0.220942" x2="-0.334013" y2="0.426001" style="stroke:rgb(246,147,147);stroke-width:0.01" />
<line x1="0.0506024" y1="-0.240666" x2="0.0506024" y2="0.426001" style="stroke:rgb(246,147,147);stroke-width:0.01" />
<line x1="0.281372" y1="-0.189384" x2="0.281372" y2="0.426001" style="stroke:rgb(246,147,147);stroke-width:0.01" />
<line x1="0.281372" y1="-0.189384" x2="0.242027" y2="0.193214" style="stroke:rgb(246,147,147);stroke-width:0.01" />
<line x1="-0.334013" y1="-0.220942" x2="0.281372" y2="-0.189384" style="stroke:rgb(246,147,147);stroke-width:0.01" />
<line x1="0.0506024" y1="-0.240666" x2="-0.334013" y2="-0.220942" style="stroke:rgb(246,147,147);stroke-width:0.01" />
<line x1="-0.334013" y1="0.133977" x2="0.242027" y2="0.193214" style="stroke:rgb(246,147,147);stroke-width:0.01" />
<line x1="0.0847007" y1="0.0909187" x2="-0.334013" y2="0.133977" style="stroke:rgb(246,147,147);stroke-width:0.01" />
<line x1="-0.334013" y1="0.426001" x2="0.281372" y2="0.426001" style="stroke:rgb(246,147,147);stroke-width:0.01" />
</g>
</svg>
