<svg xmlns="http://www.w3.org/2000/svg" viewBox="-1.5 -1.5 3 3">
<g transform="scale(1, -1)">
<path d="M10.386667 7.960000 L10.566667 8.200000 L10.556667 8.270000 L10.626667 8.280000 L10.386667 8.460000 L10.316667 8.450000 L10.306667 8.520000 L10.126667 8.280000 L10.136667 8.210000 L10.066667 8.200000 L10.306667 8.020000 L10.376667 8.030000 z " fill="rgb(245,195,195)" />
<path d="M0.000000 0.000000 L1.000000 0.000000 L1.000000 1.000000 L0.000000 1.000000  z" fill="none" stroke="rgb(128,128,128)" stroke-width="0.01" />
<line x1="10.3867" y1="7.96" x2="10.5667" y2="8.2" style="stroke:rgb(246,147,147);stroke-width:0.01" />
<line x1="10.3067" y1="8.02" x2="10.4267" y2="8.18" style="stroke:rgb(246,147,147);stroke-width:0.01" />
<line x1="10.2267" y1="8.08" x2="10.4667" y2="8.4" style="stroke:rgb(246,147,147);stroke-width:0.01" />
<line x1="10.2667" y1="8.3" x2="10.3867" y2="8.46" style="stroke:rgb(246,147,147);stroke-width:0.01" />
<line x1="10.1267" y1="8.28" x2="10.3067" y2="8.52" style="stroke:rgb(246,147,147);stroke-width:0.01" />
<line x1="10.5067" y1="8.12" x2="10.5467" y2="8.34" style="stroke:rgb(246,147,147);stroke-width:0.01" />
<line x1="10.4467" y1="8.04" x2="10.4867" y2="8.26" style="stroke:rgb(246,147,147);stroke-width:0.01" />
<line x1="10.4267" y1="8.18" x2="10.4667" y2="8.4" style="stroke:rgb(246,147,147);stroke-width:0.01" />
<line x1="10.3667" y1="8.1" x2="10.4067" y2="8.32" style="stroke:rgb(246,147,147);stroke-width:0.01" />
<line x1="10.2867" y1="8.16" x2="10.3267" y2="8.38" style="stroke:rgb(246,147,147);stroke-width:0.01" />
<line x1="10.2267" y1="8.08" x2="10.2667" y2="8.3" style="stroke:rgb(246,147,147);stroke-width:0.01" />
<line x1="10.2067" y1="8.22" x2="10.2467" y2="8.44" style="stroke:rgb(246,147,147);stroke-width:0.01" />
<line x1="10.1467" y1="8.14" x2="10.1867" y2="8.36" style="stroke:rgb(246,147,147);stroke-width:0.01" />
<line x1="10.1467" y1="8.14" x2="10.1267" y2="8.28" style="stroke:rgb(246,147,147);stroke-width:0.01" />
<line x1="10.2267" y1="8.08" x2="10.1867" y2="8.36" style="stroke:rgb(246,147,147);stroke-width:0.01" />
<line x1="10.2867" y1="8.16" x2="10.2467" y2="8.44" style="stroke:rgb(246,147,147);stroke-width:0.01" />
<line x1="10.3867" y1="7.96" x2="10.3067" y2="8.52" style="stroke:rgb(246,147,147);stroke-width:0.01" />
<line x1="10.4467" y1="8.04" x2="10.4067" y2="8.32" style="stroke:rgb(246,147,147);stroke-width:0.01" />
<line x1="10.5067" y1="8.12" x2="10.4667" y2="8.4" style="stroke:rgb(246,147,147);stroke-width:0.01" />
<line x1="10.5667" y1="8.2" x2="10.5467" y2="8.34" style="stroke:rgb(246,147,147);stroke-width:0.01" />
<line x1="10.3067" y1="8.02" x2="10.4467" y2="8.04" style="stroke:rgb(246,147,147);stroke-width:0.01" />
<line x1="10.2267" y1="8.08" x2="10.5067" y2="8.12" style="stroke:rgb(246,147,147);stroke-width:0.01" />
<line x1="10.1467" y1="8.14" x2="10.4267" y2="8.18" style="stroke:rgb(246,147,147);stroke-width:0.01" />
<line x1="10.0667" y1="8.2" x2="10.6267" y2="8.28" style="stroke:rgb(246,147,147);stroke-width:0.01" />
<line x1="10.2667" y1="8.3" x2="10.5467" y2="8.34" style="stroke:rgb(246,147,147);stroke-width:0.01" />
<line x1="10.1867" y1="8.36" x2="10.4667" y2="8.4" style="stroke:rgb(246,147,147);stroke-width:0.01" />
<line x1="10.2467" y1="8.44" x2="10.3867" y2="8.46" style="stroke:rgb(246,147,147);stroke-width:0.01" />
<line x1="10.4467" y1="8.04" x2="10.2267" y2="8.08" style="stroke:rgb(246,147,147);stroke-width:0.01" />
<line x1="10.3667" y1="8.1" x2="10.1467" y2="8.14" style="stroke:rgb(246,147,147);stroke-width:0.01" />
<line x1="10.5067" y1="8.12" x2="10.2867" y2="8.16" style="stroke:rgb(246,147,147);stroke-width:0.01" />
<line x1="10.4267" y1="8.18" x2="10.2067" y2="8.22" style="stroke:rgb(246,147,147);stroke-width:0.01" />
<line x1="10.4867" y1="8.26" x2="10.2667" y2="8.3" style="stroke:rgb(246,147,147);stroke-width:0.01" />
<line x1="10.4067" y1="8.32" x2="10.1867" y2="8.36" style="stroke:rgb(246,147,147);stroke-width:0.01" />
<line x1="10.5467" y1="8.34" x2="10.3267" y2="8.38" style="stroke:rgb(246,147,147);stroke-width:0.01" />
<line x1="10.4667" y1="8.4" x2="10.2467" y2="8.44" style="stroke:rgb(246,147,147);stroke-width:0.01" />
<line x1="10.3067" y1="8.02" x2="10.0667" y2="8.2" style="stroke:rgb(246,147,147);stroke-width:0.01" />
<line x1="10.2867" y1="8.16" x2="10.1267" y2="8.28" style="stroke:rgb(246,147,147);stroke-width:0.01" />
<line x1="10.5067" y1="8.12" x2="10.1867" y2="8.36" style="stroke:rgb(246,147,147);stroke-width:0.01" />
<line x1="10.5667" y1="8.2" x2="10.4067" y2="8.32" style="stroke:rgb(246,147,147);stroke-width:0.01" />
<line x1="10.6267" y1="8.28" x2="10.3867" y2="8.46" style="stroke:rgb(246,147,147);stroke-width:0.01" />
</g>
</svg>
