<svg xmlns="http://www.w3.org/2000/svg" viewBox="-1.5 -1.5 3 3">
<g transform="scale(1, -1)">
<path d="M10.720000 8.210000 L10.900000 8.450000 L10.890000 8.520000 L10.960000 8.530000 L10.720000 8.710000 L10.650000 8.700000 L10.640000 8.770000 L10.460000 8.530000 L10.470000 8.460000 L10.400000 8.450000 L10.640000 8.270000 L10.710000 8.280000 z " fill="rgb(245,195,195)" />
<path d="M0.000000 0.000000 L1.000000 0.000000 L1.000000 1.000000 L0.000000 1.000000  z" fill="none" stroke="rgb(128,128,128)" stroke-width="0.01" />
<line x1="10.72" y1="8.21" x2="10.9" y2="8.45" style="stroke:rgb(246,147,147);stroke-width:0.01" />
<line x1="10.64" y1="8.27" x2="10.76" y2="8.43" style="stroke:rgb(246,147,147);stroke-width:0.01" />
<line x1="10.56" y1="8.33" x2="10.8" y2="8.65" style="stroke:rgb(246,147,147);stroke-width:0.01" />
<line x1="10.6" y1="8.55" x2="10.72" y2="8.71" style="stroke:rgb(246,147,147);stroke-width:0.01" />
<line x1="10.46" y1="8.53" x2="10.64" y2="8.77" style="stroke:rgb(246,147,147);stroke-width:0.01" />
<line x1="10.84" y1="8.37" x2="10.88" y2="8.59" style="stroke:rgb(246,147,147);stroke-width:0.01" />
<line x1="10.78" y1="8.29" x2="10.82" y2="8.51" style="stroke:rgb(246,147,147);stroke-width:0.01" />
<line x1="10.76" y1="8.43" x2="10.8" y2="8.65" style="stroke:rgb(246,147,147);stroke-width:0.01" />
<line x1="10.7" y1="8.35" x2="10.74" y2="8.57" style="stroke:rgb(246,147,147);stroke-width:0.01" />
<line x1="10.62" y1="8.41" x2="10.66" y2="8.63" style="stroke:rgb(246,147,147);stroke-width:0.01" />
<line x1="10.56" y1="8.33" x2="10.6" y2="8.55" style="stroke:rgb(246,147,147);stroke-width:0.01" />
<line x1="10.54" y1="8.47" x2="10.58" y2="8.69" style="stroke:rgb(246,147,147);stroke-width:0.01" />
<line x1="10.48" y1="8.39" x2="10.52" y2="8.61" style="stroke:rgb(246,147,147);stroke-width:0.01" />
<line x1="10.48" y1="8.39" x2="10.46" y2="8.53" style="stroke:rgb(246,147,147);stroke-width:0.01" />
<line x1="10.56" y1="8.33" x2="10.52" y2="8.61" style="stroke:rgb(246,147,147);stroke-width:0.01" />
<line x1="10.62" y1="8.41" x2="10.58" y2="8.69" style="stroke:rgb(246,147,147);stroke-width:0.01" />
<line x1="10.72" y1="8.21" x2="10.64" y2="8.77" style="stroke:rgb(246,147,147);stroke-width:0.01" />
<line x1="10.78" y1="8.29" x2="10.74" y2="8.57" style="stroke:rgb(246,147,147);stroke-width:0.01" />
<line x1="10.84" y1="8.37" x2="10.8" y2="8.65" style="stroke:rgb(246,147,147);stroke-width:0.01" />
<line x1="10.9" y1="8.45" x2="10.88" y2="8.59" style="stroke:rgb(246,147,147);stroke-width:0.01" />
<line x1="10.64" y1="8.27" x2="10.78" y2="8.29" style="stroke:rgb(246,147,147);stroke-width:0.01" />
<line x1="10.56" y1="8.33" x2="10.84" y2="8.37" style="stroke:rgb(246,147,147);stroke-width:0.01" />
<line x1="10.48" y1="8.39" x2="10.76" y2="8.43" style="stroke:rgb(246,147,147);stroke-width:0.01" />
<line x1="10.4" y1="8.45" x2="10.96" y2="8.53" style="stroke:rgb(246,147,147);stroke-width:0.01" />
<line x1="10.6" y1="8.55" x2="10.88" y2="8.59" style="stroke:rgb(246,147,147);stroke-width:0.01" />
<line x1="10.52" y1="8.61" x2="10.8" y2="8.65" style="stroke:rgb(246,147,147);stroke-width:0.01" />
<line x1="10.58" y1="8.69" x2="10.72" y2="8.71" style="stroke:rgb(246,147,147);stroke-width:0.01" />
<line x1="10.78" y1="8.29" x2="10.56" y2="8.33" style="stroke:rgb(246,147,147);stroke-width:0.01" />
<line x1="10.7" y1="8.35" x2="10.48" y2="8.39" style="stroke:rgb(246,147,147);stroke-width:0.01" />
<line x1="10.84" y1="8.37" x2="10.62" y2="8.41" style="stroke:rgb(246,147,147);stroke-width:0.01" />
<line x1="10.76" y1="8.43" x2="10.54" y2="8.47" style="stroke:rgb(246,147,147);stroke-width:0.01" />
<line x1="10.82" y1="8.51" x2="10.6" y2="8.55" style="stroke:rgb(246,147,147);stroke-width:0.01" />
<line x1="10.74" y1="8.57" x2="10.52" y2="8.61" style="stroke:rgb(246,147,147);stroke-width:0.01" />
<line x1="10.88" y1="8.59" x2="10.66" y2="8.63" style="stroke:rgb(246,147,147);stroke-width:0.01" />
<line x1="10.8" y1="8.65" x2="10.58" y2="8.69" style="stroke:rgb(246,147,147);stroke-width:0.01" />
<line x1="10.64" y1="8.27" x2="10.4" y2="8.45" style="stroke:rgb(246,147,147);stroke-width:0.01" />
<line x1="10.62" y1="8.41" x2="10.46" y2="8.53" style="stroke:rgb(246,147,147);stroke-width:0.01" />
<line x1="10.84" y1="8.37" x2="10.52" y2="8.61" style="stroke:rgb(246,147,147);stroke-width:0.01" />
<line x1="10.9" y1="8.45" x2="10.74" y2="8.57" style="stroke:rgb(246,147,147);stroke-width:0.01" />
<line x1="10.96" y1="8.53" x2="10.72" y2="8.71" style="stroke:rgb(246,147,147);stroke-width:0.01" />
</g>
</svg>
