<svg xmlns="http://www.w3.org/2000/svg" viewBox="-1.5 -1.5 3 3">
<g transform="scale(1, -1)">
<path d="M11.386667 8.710000 L11.566667 8.950000 L11.556667 9.020000 L11.626667 9.030000 L11.386667 9.210000 L11.316667 9.200000 L11.306667 9.270000 L11.126667 9.030000 L11.136667 8.960000 L11.066667 8.950000 L11.306667 8.770000 L11.376667 8.780000 z " fill="rgb(245,195,195)" />
<path d="M0.000000 0.000000 L1.000000 0.000000 L1.000000 1.000000 L0.000000 1.000000  z" fill="none" stroke="rgb(128,128,128)" stroke-width="0.01" />
<line x1="11.3867" y1="8.71" x2="11.5667" y2="8.95" style="stroke:rgb(246,147,147);stroke-width:0.01" />
<line x1="11.3067" y1="8.77" x2="11.4267" y2="8.93" style="stroke:rgb(246,147,147);stroke-width:0.01" />
<line x1="11.2267" y1="8.83" x2="11.4667" y2="9.15" style="stroke:rgb(246,147,147);stroke-width:0.01" />
<line x1="11.2667" y1="9.05" x2="11.3867" y2="9.21" style="stroke:rgb(246,147,147);stroke-width:0.01" />
<line x1="11.1267" y1="9.03" x2="11.3067" y2="9.27" style="stroke:rgb(246,147,147);stroke-width:0.01" />
<line x1="11.5067" y1="8.87" x2="11.5467" y2="9.09" style="stroke:rgb(246,147,147);stroke-width:0.01" />
<line x1="11.4467" y1="8.79" x2="11.4867" y2="9.01" style="stroke:rgb(246,147,147);stroke-width:0.01" />
<line x1="11.4267" y1="8.93" x2="11.4667" y2="9.15" style="stroke:rgb(246,147,147);stroke-width:0.01" />
<line x1="11.3667" y1="8.85" x2="11.4067" y2="9.07" style="stroke:rgb(246,147,147);stroke-width:0.01" />
<line x1="11.2867" y1="8.91" x2="11.3267" y2="9.13" style="stroke:rgb(246,147,147);stroke-width:0.01" />
<line x1="11.2267" y1="8.83" x2="11.2667" y2="9.05" style="stroke:rgb(246,147,147);stroke-width:0.01" />
<line x1="11.2067" y1="8.97" x2="11.2467" y2="9.19" style="stroke:rgb(246,147,147);stroke-width:0.01" />
<line x1="11.1467" y1="8.89" x2="11.1867" y2="9.11" style="stroke:rgb(246,147,147);stroke-width:0.01" />
<line x1="11.1467" y1="8.89" x2="11.1267" y2="9.03" style="stroke:rgb(246,147,147);stroke-width:0.01" />
<line x1="11.2267" y1="8.83" x2="11.1867" y2="9.11" style="stroke:rgb(246,147,147);stroke-width:0.01" />
<line x1="11.2867" y1="8.91" x2="11.2467" y2="9.19" style="stroke:rgb(246,147,147);stroke-width:0.01" />
<line x1="11.3867" y1="8.71" x2="11.3067" y2="9.27" style="stroke:rgb(246,147,147);stroke-width:0.01" />
<line x1="11.4467" y1="8.79" x2="11.4067" y2="9.07" style="stroke:rgb(246,147,147);stroke-width:0.01" />
<line x1="11.5067" y1="8.87" x2="11.4667" y2="9.15" style="stroke:rgb(246,147,147);stroke-width:0.01" />
<line x1="11.5667" y1="8.95" x2="11.5467" y2="9.09" style="stroke:rgb(246,147,147);stroke-width:0.01" />
<line x1="11.3067" y1="8.77" x2="11.4467" y2="8.79" style="stroke:rgb(246,147,147);stroke-width:0.01" />
<line x1="11.2267" y1="8.83" x2="11.5067" y2="8.87" style="stroke:rgb(246,147,147);stroke-width:0.01" />
<line x1="11.1467" y1="8.89" x2="11.4267" y2="8.93" style="stroke:rgb(246,147,147);stroke-width:0.01" />
<line x1="11.0667" y1="8.95" x2="11.6267" y2="9.03" style="stroke:rgb(246,147,147);stroke-width:0.01" />
<line x1="11.2667" y1="9.05" x2="11.5467" y2="9.09" style="stroke:rgb(246,147,147);stroke-width:0.01" />
<line x1="11.1867" y1="9.11" x2="11.4667" y2="9.15" style="stroke:rgb(246,147,147);stroke-width:0.01" />
<line x1="11.2467" y1="9.19" x2="11.3867" y2="9.21" style="stroke:rgb(246,147,147);stroke-width:0.01" />
<line x1="11.4467" y1="8.79" x2="11.2267" y2="8.83" style="stroke:rgb(246,147,147);stroke-width:0.01" />
<line x1="11.3667" y1="8.85" x2="11.1467" y2="8.89" style="stroke:rgb(246,147,147);stroke-width:0.01" />
<line x1="11.5067" y1="8.87" x2="11.2867" y2="8.91" style="stroke:rgb(246,147,147);stroke-width:0.01" />
<line x1="11.4267" y1="8.93" x2="11.2067" y2="8.97" style="stroke:rgb(246,147,147);stroke-width:0.01" />
<line x1="11.4867" y1="9.01" x2="11.2667" y2="9.05" style="stroke:rgb(246,147,147);stroke-width:0.01" />
<line x1="11.4067" y1="9.07" x2="11.1867" y2="9.11" style="stroke:rgb(246,147,147);stroke-width:0.01" />
<line x1="11.5467" y1="9.09" x2="11.3267" y2="9.13" style="stroke:rgb(246,147,147);stroke-width:0.01" />
<line x1="11.4667" y1="9.15" x2="11.2467" y2="9.19" style="stroke:rgb(246,147,147);stroke-width:0.01" />
<line x1="11.3067" y1="8.77" x2="11.0667" y2="8.95" style="stroke:rgb(246,147,147);stroke-width:0.01" />
<line x1="11.2867" y1="8.91" x2="11.1267" y2="9.03" style="stroke:rgb(246,147,147);stroke-width:0.01" />
<line x1="11.5067" y1="8.87" x2="11.1867" y2="9.11" style="stroke:rgb(246,147,147);stroke-width:0.01" />
<line x1="11.5667" y1="8.95" x2="11.4067" y2="9.07" style="stroke:rgb(246,147,147);stroke-width:0.01" />
<line x1="11.6267" y1="9.03" x2="11.3867" y2="9.21" style="stroke:rgb(246,147,147);stroke-width:0.01" />
</g>
</svg>
