<svg xmlns="http://www.w3.org/2000/svg" viewBox="-1.5 -1.5 3 3">
<g transform="scale(1, -1)">
<path d="M11.720000 8.960000 L11.900000 9.200000 L11.890000 9.270000 L11.960000 9.280000 L11.720000 9.460000 L11.650000 9.450000 L11.640000 9.520000 L11.460000 9.280000 L11.470000 9.210000 L11.400000 9.200000 L11.640000 9.020000 L11.710000 9.030000 z " fill="rgb(245,195,195)" />
<path d="M0.000000 0.000000 L1.000000 0.000000 L1.000000 1.000000 L0.000000 1.000000  z" fill="none" stroke="rgb(128,128,128)" stroke-width="0.01" />
<line x1="11.72" y1="8.96" x2="11.9" y2="9.2" style="stroke:rgb(246,147,147);stroke-width:0.01" />
<line x1="11.64" y1="9.02" x2="11.76" y2="9.18" style="stroke:rgb(246,147,147);stroke-width:0.01" />
<line x1="11.56" y1="9.08" x2="11.8" y2="9.4" style="stroke:rgb(246,147,147);stroke-width:0.01" />
<line x1="11.6" y1="9.3" x2="11.72" y2="9.46" style="stroke:rgb(246,147,147);stroke-width:0.01" />
<line x1="11.46" y1="9.28" x2="11.64" y2="9.52" style="stroke:rgb(246,147,147);stroke-width:0.01" />
<line x1="11.84" y1="9.12" x2="11.88" y2="9.34" style="stroke:rgb(246,147,147);stroke-width:0.01" />
<line x1="11.78" y1="9.04" x2="11.82" y2="9.26" style="stroke:rgb(246,147,147);stroke-width:0.01" />
<line x1="11.76" y1="9.18" x2="11.8" y2="9.4" style="stroke:rgb(246,147,147);stroke-width:0.01" />
<line x1="11.7" y1="9.1" x2="11.74" y2="9.32" style="stroke:rgb(246,147,147);stroke-width:0.01" />
<line x1="11.62" y1="9.16" x2="11.66" y2="9.38" style="stroke:rgb(246,147,147);stroke-width:0.01" />
<line x1="11.56" y1="9.08" x2="11.6" y2="9.3" style="stroke:rgb(246,147,147);stroke-width:0.01" />
<line x1="11.54" y1="9.22" x2="11.58" y2="9.44" style="stroke:rgb(246,147,147);stroke-width:0.01" />
<line x1="11.48" y1="9.14" x2="11.52" y2="9.36" style="stroke:rgb(246,147,147);stroke-width:0.01" />
<line x1="11.48" y1="9.14" x2="11.46" y2="9.28" style="stroke:rgb(246,147,147);stroke-width:0.01" />
<line x1="11.56" y1="9.08" x2="11.52" y2="9.36" style="stroke:rgb(246,147,147);stroke-width:0.01" />
<line x1="11.62" y1="9.16" x2="11.58" y2="9.44" style="stroke:rgb(246,147,147);stroke-width:0.01" />
<line x1="11.72" y1="8.96" x2="11.64" y2="9.52" style="stroke:rgb(246,147,147);stroke-width:0.01" />
<line x1="11.78" y1="9.04" x2="11.74" y2="9.32" style="stroke:rgb(246,147,147);stroke-width:0.01" />
<line x1="11.84" y1="9.12" x2="11.8" y2="9.4" style="stroke:rgb(246,147,147);stroke-width:0.01" />
<line x1="11.9" y1="9.2" x2="11.88" y2="9.34" style="stroke:rgb(246,147,147);stroke-width:0.01" />
<line x1="11.64" y1="9.02" x2="11.78" y2="9.04" style="stroke:rgb(246,147,147);stroke-width:0.01" />
<line x1="11.56" y1="9.08" x2="11.84" y2="9.12" style="stroke:rgb(246,147,147);stroke-width:0.01" />
<line x1="11.48" y1="9.14" x2="11.76" y2="9.18" style="stroke:rgb(246,147,147);stroke-width:0.01" />
<line x1="11.4" y1="9.2" x2="11.96" y2="9.28" style="stroke:rgb(246,147,147);stroke-width:0.01" />
<line x1="11.6" y1="9.3" x2="11.88" y2="9.34" style="stroke:rgb(246,147,147);stroke-width:0.01" />
<line x1="11.52" y1="9.36" x2="11.8" y2="9.4" style="stroke:rgb(246,147,147);stroke-width:0.01" />
<line x1="11.58" y1="9.44" x2="11.72" y2="9.46" style="stroke:rgb(246,147,147);stroke-width:0.01" />
<line x1="11.78" y1="9.04" x2="11.56" y2="9.08" style="stroke:rgb(246,147,147);stroke-width:0.01" />
<line x1="11.7" y1="9.1" x2="11.48" y2="9.14" style="stroke:rgb(246,147,147);stroke-width:0.01" />
<line x1="11.84" y1="9.12" x2="11.62" y2="9.16" style="stroke:rgb(246,147,147);stroke-width:0.01" />
<line x1="11.76" y1="9.18" x2="11.54" y2="9.22" style="stroke:rgb(246,147,147);stroke-width:0.01" />
<line x1="11.82" y1="9.26" x2="11.6" y2="9.3" style="stroke:rgb(246,147,147);stroke-width:0.01" />
<line x1="11.74" y1="9.32" x2="11.52" y2="9.36" style="stroke:rgb(246,147,147);stroke-width:0.01" />
<line x1="11.88" y1="9.34" x2="11.66" y2="9.38" style="stroke:rgb(246,147,147);stroke-width:0.01" />
<line x1="11.8" y1="9.4" x2="11.58" y2="9.44" style="stroke:rgb(246,147,147);stroke-width:0.01" />
<line x1="11.64" y1="9.02" x2="11.4" y2="9.2" style="stroke:rgb(246,147,147);stroke-width:0.01" />
<line x1="11.62" y1="9.16" x2="11.46" y2="9.28" style="stroke:rgb(246,147,147);stroke-width:0.01" />
<line x1="11.84" y1="9.12" x2="11.52" y2="9.36" style="stroke:rgb(246,147,147);stroke-width:0.01" />
<line x1="11.9" y1="9.2" x2="11.74" y2="9.32" style="stroke:rgb(246,147,147);stroke-width:0.01" />
<line x1="11.96" y1="9.28" x2="11.72" y2="9.46" style="stroke:rgb(246,147,147);stroke-width:0.01" />
</g>
</svg>
