<svg xmlns="http://www.w3.org/2000/svg" viewBox="-1.5 -1.5 3 3">
<g transform="scale(1, -1)">
<path d="M12.053333 9.210000 L12.233333 9.450000 L12.223333 9.520000 L12.293333 9.530000 L12.053333 9.710000 L11.983333 9.700000 L11.973333 9.770000 L11.793333 9.530000 L11.803333 9.460000 L11.733333 9.450000 L11.973333 9.270000 L12.043333 9.280000 z " fill="rgb(245,195,195)" />
<path d="M0.000000 0.000000 L1.000000 0.000000 L1.000000 1.000000 L0.000000 1.000000  z" fill="none" stroke="rgb(128,128,128)" stroke-width="0.01" />
<line x1="12.0533" y1="9.21" x2="12.2333" y2="9.45" style="stroke:rgb(246,147,147);stroke-width:0.01" />
<line x1="11.9733" y1="9.27" x2="12.0933" y2="9.43" style="stroke:rgb(246,147,147);stroke-width:0.01" />
<line x1="11.8933" y1="9.33" x2="12.1333" y2="9.65" style="stroke:rgb(246,147,147);stroke-width:0.01" />
<line x1="11.9333" y1="9.55" x2="12.0533" y2="9.71" style="stroke:rgb(246,147,147);stroke-width:0.01" />
<line x1="11.7933" y1="9.53" x2="11.9733" y2="9.77" style="stroke:rgb(246,147,147);stroke-width:0.01" />
<line x1="12.1733" y1="9.37" x2="12.2133" y2="9.59" style="stroke:rgb(246,147,147);stroke-width:0.01" />
<line x1="12.1133" y1="9.29" x2="12.1533" y2="9.51" style="stroke:rgb(246,147,147);stroke-width:0.01" />
<line x1="12.0933" y1="9.43" x2="12.1333" y2="9.65" style="stroke:rgb(246,147,147);stroke-width:0.01" />
<line x1="12.0333" y1="9.35" x2="12.0733" y2="9.57" style="stroke:rgb(246,147,147);stroke-width:0.01" />
<line x1="11.9533" y1="9.41" x2="11.9933" y2="9.63" style="stroke:rgb(246,147,147);stroke-width:0.01" />
<line x1="11.8933" y1="9.33" x2="11.9333" y2="9.55" style="stroke:rgb(246,147,147);stroke-width:0.01" />
<line x1="11.8733" y1="9.47" x2="11.9133" y2="9.69" style="stroke:rgb(246,147,147);stroke-width:0.01" />
<line x1="11.8133" y1="9.39" x2="11.8533" y2="9.61" style="stroke:rgb(246,147,147);stroke-width:0.01" />
<line x1="11.8133" y1="9.39" x2="11.7933" y2="9.53" style="stroke:rgb(246,147,147);stroke-width:0.01" />
<line x1="11.8933" y1="9.33" x2="11.8533" y2="9.61" style="stroke:rgb(246,147,147);stroke-width:0.01" />
<line x1="11.9533" y1="9.41" x2="11.9133" y2="9.69" style="stroke:rgb(246,147,147);stroke-width:0.01" />
<line x1="12.0533" y1="9.21" x2="11.9733" y2="9.77" style="stroke:rgb(246,147,147);stroke-width:0.01" />
<line x1="12.1133" y1="9.29" x2="12.0733" y2="9.57" style="stroke:rgb(246,147,147);stroke-width:0.01" />
<line x1="12.1733" y1="9.37" x2="12.1333" y2="9.65" style="stroke:rgb(246,147,147);stroke-width:0.01" />
<line x1="12.2333" y1="9.45" x2="12.2133" y2="9.59" style="stroke:rgb(246,147,147);stroke-width:0.01" />
<line x1="11.9733" y1="9.27" x2="12.1133" y2="9.29" style="stroke:rgb(246,147,147);stroke-width:0.01" />
<line x1="11.8933" y1="9.33" x2="12.1733" y2="9.37" style="stroke:rgb(246,147,147);stroke-width:0.01" />
<line x1="11.8133" y1="9.39" x2="12.0933" y2="9.43" style="stroke:rgb(246,147,147);stroke-width:0.01" />
<line x1="11.7333" y1="9.45" x2="12.2933" y2="9.53" style="stroke:rgb(246,147,147);stroke-width:0.01" />
<line x1="11.9333" y1="9.55" x2="12.2133" y2="9.59" style="stroke:rgb(246,147,147);stroke-width:0.01" />
<line x1="11.8533" y1="9.61" x2="12.1333" y2="9.65" style="stroke:rgb(246,147,147);stroke-width:0.01" />
<line x1="11.9133" y1="9.69" x2="12.0533" y2="9.71" style="stroke:rgb(246,147,147);stroke-width:0.01" />
<line x1="12.1133" y1="9.29" x2="11.8933" y2="9.33" style="stroke:rgb(246,147,147);stroke-width:0.01" />
<line x1="12.0333" y1="9.35" x2="11.8133" y2="9.39" style="stroke:rgb(246,147,147);stroke-width:0.01" />
<line x1="12.1733" y1="9.37" x2="11.9533" y2="9.41" style="stroke:rgb(246,147,147);stroke-width:0.01" />
<line x1="12.0933" y1="9.43" x2="11.8733" y2="9.47" style="stroke:rgb(246,147,147);stroke-width:0.01" />
<line x1="12.1533" y1="9.51" x2="11.9333" y2="9.55" style="stroke:rgb(246,147,147);stroke-width:0.01" />
<line x1="12.0733" y1="9.57" x2="11.8533" y2="9.61" style="stroke:rgb(246,147,147);stroke-width:0.01" />
<line x1="12.2133" y1="9.59" x2="11.9933" y2="9.63" style="stroke:rgb(246,147,147);stroke-width:0.01" />
<line x1="12.1333" y1="9.65" x2="11.9133" y2="9.69" style="stroke:rgb(246,147,147);stroke-width:0.01" />
<line x1="11.9733" y1="9.27" x2="11.7333" y2="9.45" style="stroke:rgb(246,147,147);stroke-width:0.01" />
<line x1="11.9533" y1="9.41" x2="11.7933" y2="9.53" style="stroke:rgb(246,147,147);stroke-width:0.01" />
<line x1="12.1733" y1="9.37" x2="11.8533" y2="9.61" style="stroke:rgb(246,147,147);stroke-width:0.01" />
<line x1="12.2333" y1="9.45" x2="12.0733" y2="9.57" style="stroke:rgb(246,147,147);stroke-width:0.01" />
<line x1="12.2933" y1="9.53" x2="12.0533" y2="9.71" style="stroke:rgb(246,147,147);stroke-width:0.01" />
</g>
</svg>
