<svg xmlns="http://www.w3.org/2000/svg" viewBox="-1.5 -1.5 3 3">
<g transform="scale(1, -1)">
<path d="M0.197407 -0.685721 L0.252872 -0.647478 L0.252987 -0.647637 L0.261025 -0.641856 L0.166934 -0.508244 L-0.117164 0.619708 L-0.117564 0.619913 L-0.121598 0.627413 L-0.126770 0.624632 L-0.126586 0.606042 L-0.521542 0.033228 z " fill="rgb(245,195,195)" />
<path d="M-0.116908 -0.371405 L0.883092 -0.371405 L0.883092 0.628595 L-0.116908 0.628595  z" fill="none" stroke="rgb(128,128,128)" stroke-width="0.01" />
<line x1="0.197407" y1="-0.685721" x2="0.261025" y2="-0.641856" style="stroke:rgb(246,147,147);stroke-width:0.01" />
<line x1="0.252987" y1="-0.647637" x2="0.261025" y2="-0.641856" style="stroke:rgb(246,147,147);stroke-width:0.01" />
<line x1="0.197407" y1="-0.685721" x2="0.207828" y2="-0.670607" style="stroke:rgb(246,147,147);stroke-width:0.01" />
<line x1="0.207828" y1="-0.670607" x2="0.155439" y2="-0.643752" style="stroke:rgb(246,147,147);stroke-width:0.01" />
<line x1="-0.0471669" y1="-0.441147" x2="0.128273" y2="-0.35475" style="stroke:rgb(246,147,147);stroke-width:0.01" />
<line x1="0.000631158" y1="-0.402251" x2="0.0165112" y2="-0.372726" style="stroke:rgb(246,147,147);stroke-width:0.01" />
<line x1="-0.0471669" y1="-0.441147" x2="-0.0133272" y2="-0.372431" style="stroke:rgb(246,147,147);stroke-width:0.01" />
<line x1="0.000631158" y1="-0.402251" x2="-0.0885464" y2="-0.399767" style="stroke:rgb(246,147,147);stroke-width:0.01" />
<line x1="-0.116908" y1="-0.371405" x2="-0.12677" y2="0.624632" style="stroke:rgb(246,147,147);stroke-width:0.01" />
<line x1="0.197407" y1="-0.685721" x2="-0.521542" y2="0.0332282" style="stroke:rgb(246,147,147);stroke-width:0.01" />
<line x1="0.0165112" y1="-0.372726" x2="-0.116908" y2="-0.371405" style="stroke:rgb(246,147,147);stroke-width:0.01" />
<line x1="-0.0885464" y1="-0.399767" x2="-0.116908" y2="0.618694" style="stroke:rgb(246,147,147);stroke-width:0.01" />
<line x1="-0.0640342" y1="-0.361653" x2="-0.096285" y2="0.536813" style="stroke:rgb(246,147,147);stroke-width:0.01" />
<line x1="-0.0640342" y1="-0.361653" x2="0.128273" y2="-0.35475" style="stroke:rgb(246,147,147);stroke-width:0.01" />
<line x1="0.000631158" y1="-0.402251" x2="-0.0133272" y2="-0.372431" style="stroke:rgb(246,147,147);stroke-width:0.01" />
<line x1="0.155439" y1="-0.643752" x2="0.0165112" y2="-0.372726" style="stroke:rgb(246,147,147);stroke-width:0.01" />
<line x1="0.207828" y1="-0.670607" x2="-0.117164" y2="0.619708" style="stroke:rgb(246,147,147);stroke-width:0.01" />
<line x1="0.252987" y1="-0.647637" x2="-0.33085" y2="0.164234" style="stroke:rgb(246,147,147);stroke-width:0.01" />
<line x1="0.261025" y1="-0.641856" x2="-0.314773" y2="0.175795" style="stroke:rgb(246,147,147);stroke-width:0.01" />
<line x1="-0.126508" y1="0.598185" x2="-0.116908" y2="0.618694" style="stroke:rgb(246,147,147);stroke-width:0.01" />
<line x1="-0.096285" y1="0.536813" x2="-0.126508" y2="0.598185" style="stroke:rgb(246,147,147);stroke-width:0.01" />
<line x1="-0.116908" y1="0.618694" x2="-0.121598" y2="0.627413" style="stroke:rgb(246,147,147);stroke-width:0.01" />
<line x1="-0.521542" y1="0.0332282" x2="-0.117164" y2="0.619708" style="stroke:rgb(246,147,147);stroke-width:0.01" />
<line x1="-0.33085" y1="0.164234" x2="-0.314773" y2="0.175795" style="stroke:rgb(246,147,147);stroke-width:0.01" />
<line x1="-0.521542" y1="0.0332282" x2="-0.314773" y2="0.175795" style="stroke:rgb(246,147,147);stroke-width:0.01" />
<line x1="-0.12677" y1="0.624632" x2="-0.121598" y2="0.627413" style="stroke:rgb(246,147,147);stroke-width:0.01" />
<line x1="-0.117164" y1="0.619708" x2="-0.12677" y2="0.624632" style="stroke:rgb(246,147,147);stroke-width:0.01" />
</g>
</svg>
