<svg xmlns="http://www.w3.org/2000/svg" viewBox="-1.5 -1.5 3 3">
<g transform="scale(1, -1)">
<path d="M0.892862 0.068911 L1.002705 0.320487 L1.257703 0.588235 L1.352941 0.588235 L1.352941 0.688235 L0.675522 0.959203 L0.452941 0.588235 L0.500000 0.500000 L0.665441 0.588235 L0.704526 0.588235 L0.801217 0.108925 z " fill="rgb(245,195,195)" />
<path d="M0.000000 0.000000 L1.000000 0.000000 L1.000000 1.000000 L0.000000 1.000000  z" fill="none" stroke="rgb(128,128,128)" stroke-width="0.01" />
<line x1="0.801217" y1="0.108925" x2="1.35294" y2="0.688235" style="stroke:rgb(246,147,147);stroke-width:0.01" />
<line x1="0.892862" y1="0.0689111" x2="1.19147" y2="0.752824" style="stroke:rgb(246,147,147);stroke-width:0.01" />
<line x1="1.10462" y1="0.51441" x2="1.19147" y2="0.752824" style="stroke:rgb(246,147,147);stroke-width:0.01" />
<line x1="0.676471" y1="0.594118" x2="0.716578" y2="0.924599" style="stroke:rgb(246,147,147);stroke-width:0.01" />
<line x1="0.452941" y1="0.588235" x2="0.675522" y2="0.959203" style="stroke:rgb(246,147,147);stroke-width:0.01" />
<line x1="1.35294" y1="0.588235" x2="1.35294" y2="0.688235" style="stroke:rgb(246,147,147);stroke-width:0.01" />
<line x1="0.801217" y1="0.108925" x2="0.641223" y2="0.902038" style="stroke:rgb(246,147,147);stroke-width:0.01" />
<line x1="0.5" y1="0.5" x2="0.676471" y2="0.594118" style="stroke:rgb(246,147,147);stroke-width:0.01" />
<line x1="0.5" y1="0.5" x2="0.452941" y2="0.588235" style="stroke:rgb(246,147,147);stroke-width:0.01" />
<line x1="0.892862" y1="0.0689111" x2="0.801217" y2="0.108925" style="stroke:rgb(246,147,147);stroke-width:0.01" />
<line x1="0.452941" y1="0.588235" x2="1.35294" y2="0.588235" style="stroke:rgb(246,147,147);stroke-width:0.01" />
<line x1="0.641223" y1="0.902038" x2="0.716578" y2="0.924599" style="stroke:rgb(246,147,147);stroke-width:0.01" />
<line x1="0.676471" y1="0.594118" x2="0.53348" y2="0.722467" style="stroke:rgb(246,147,147);stroke-width:0.01" />
<line x1="1.10462" y1="0.51441" x2="0.53348" y2="0.722467" style="stroke:rgb(246,147,147);stroke-width:0.01" />
<line x1="0.716578" y1="0.924599" x2="0.675522" y2="0.959203" style="stroke:rgb(246,147,147);stroke-width:0.01" />
<line x1="1.35294" y1="0.688235" x2="0.675522" y2="0.959203" style="stroke:rgb(246,147,147);stroke-width:0.01" />
</g>
</svg>
