<svg xmlns="http://www.w3.org/2000/svg" viewBox="-1.5 -1.5 3 3">
<g transform="scale(1, -1)">
<path d="M0.014790 -0.438992 L0.124632 -0.187417 L0.379630 0.080332 L0.474868 0.080332 L0.474868 0.180332 L-0.202551 0.451300 L-0.425132 0.080332 L-0.378073 -0.007903 L-0.212632 0.080332 L-0.173547 0.080332 L-0.076856 -0.398978 z " fill="rgb(245,195,195)" />
<path d="M-0.878073 -0.507903 L0.121927 -0.507903 L0.121927 0.492097 L-0.878073 0.492097  z" fill="none" stroke="rgb(128,128,128)" stroke-width="0.01" />
<line x1="-0.0768557" y1="-0.398978" x2="0.474868" y2="0.180332" style="stroke:rgb(246,147,147);stroke-width:0.01" />
<line x1="0.0147898" y1="-0.438992" x2="0.313397" y2="0.24492" style="stroke:rgb(246,147,147);stroke-width:0.01" />
<line x1="0.226546" y1="0.00650637" x2="0.313397" y2="0.24492" style="stroke:rgb(246,147,147);stroke-width:0.01" />
<line x1="-0.201602" y1="0.0862142" x2="-0.161495" y2="0.416696" style="stroke:rgb(246,147,147);stroke-width:0.01" />
<line x1="-0.425132" y1="0.0803319" x2="-0.202551" y2="0.4513" style="stroke:rgb(246,147,147);stroke-width:0.01" />
<line x1="0.474868" y1="0.0803319" x2="0.474868" y2="0.180332" style="stroke:rgb(246,147,147);stroke-width:0.01" />
<line x1="-0.0768557" y1="-0.398978" x2="-0.23685" y2="0.394135" style="stroke:rgb(246,147,147);stroke-width:0.01" />
<line x1="-0.378073" y1="-0.00790342" x2="-0.201602" y2="0.0862142" style="stroke:rgb(246,147,147);stroke-width:0.01" />
<line x1="-0.378073" y1="-0.00790342" x2="-0.425132" y2="0.0803319" style="stroke:rgb(246,147,147);stroke-width:0.01" />
<line x1="0.0147898" y1="-0.438992" x2="-0.0768557" y2="-0.398978" style="stroke:rgb(246,147,147);stroke-width:0.01" />
<line x1="-0.425132" y1="0.0803319" x2="0.474868" y2="0.0803319" style="stroke:rgb(246,147,147);stroke-width:0.01" />
<line x1="-0.23685" y1="0.394135" x2="-0.161495" y2="0.416696" style="stroke:rgb(246,147,147);stroke-width:0.01" />
<line x1="-0.201602" y1="0.0862142" x2="-0.344592" y2="0.214564" style="stroke:rgb(246,147,147);stroke-width:0.01" />
<line x1="0.226546" y1="0.00650637" x2="-0.344592" y2="0.214564" style="stroke:rgb(246,147,147);stroke-width:0.01" />
<line x1="-0.161495" y1="0.416696" x2="-0.202551" y2="0.4513" style="stroke:rgb(246,147,147);stroke-width:0.01" />
<line x1="0.474868" y1="0.180332" x2="-0.202551" y2="0.4513" style="stroke:rgb(246,147,147);stroke-width:0.01" />
</g>
</svg>
