<svg xmlns="http://www.w3.org/2000/svg" viewBox="-1.5 -1.5 3 3">
<g transform="scale(1, -1)">
<path d="M0.197285 -0.341230 L0.244344 -0.037158 L0.197285 -0.029875 L0.197285 0.351078 L-0.418100 0.351078 L-0.418100 -0.293893 z " fill="rgb(245,195,195)" />
<path d="M-0.802715 -0.648922 L0.197285 -0.648922 L0.197285 0.351078 L-0.802715 0.351078  z" fill="none" stroke="rgb(128,128,128)" stroke-width="0.01" />
<line x1="0.197285" y1="-0.34123" x2="0.244344" y2="-0.0371577" style="stroke:rgb(246,147,147);stroke-width:0.01" />
<line x1="-0.4181" y1="-0.293893" x2="-0.4181" y2="0.351078" style="stroke:rgb(246,147,147);stroke-width:0.01" />
<line x1="-0.0334842" y1="-0.264307" x2="-0.0334842" y2="0.351078" style="stroke:rgb(246,147,147);stroke-width:0.01" />
<line x1="0.197285" y1="-0.34123" x2="0.197285" y2="0.351078" style="stroke:rgb(246,147,147);stroke-width:0.01" />
<line x1="-0.0334842" y1="-0.264307" x2="-0.0923077" y2="0.115784" style="stroke:rgb(246,147,147);stroke-width:0.01" />
<line x1="-0.4181" y1="-0.293893" x2="-0.0334842" y2="-0.264307" style="stroke:rgb(246,147,147);stroke-width:0.01" />
<line x1="0.197285" y1="-0.34123" x2="-0.4181" y2="-0.293893" style="stroke:rgb(246,147,147);stroke-width:0.01" />
<line x1="-0.4181" y1="0.0653633" x2="-0.0923077" y2="0.115784" style="stroke:rgb(246,147,147);stroke-width:0.01" />
<line x1="0.244344" y1="-0.0371577" x2="-0.4181" y2="0.0653633" style="stroke:rgb(246,147,147);stroke-width:0.01" />
<line x1="-0.4181" y1="0.351078" x2="0.197285" y2="0.351078" style="stroke:rgb(246,147,147);stroke-width:0.01" />
</g>
</svg>
