<svg xmlns="http://www.w3.org/2000/svg" viewBox="-1.5 -1.5 3 3">
<g transform="scale(1, -1)">
<path d="M0.171644 -0.340244 L0.218703 -0.036171 L0.171644 -0.028889 L0.171644 0.352064 L-0.366817 0.352064 L-0.366817 -0.298824 z " fill="rgb(245,195,195)" />
<path d="M-0.828356 -0.647936 L0.171644 -0.647936 L0.171644 0.352064 L-0.828356 0.352064  z" fill="none" stroke="rgb(128,128,128)" stroke-width="0.01" />
<line x1="0.171644" y1="-0.340244" x2="0.218703" y2="-0.0361715" style="stroke:rgb(246,147,147);stroke-width:0.01" />
<line x1="-0.366817" y1="-0.298824" x2="-0.366817" y2="0.352064" style="stroke:rgb(246,147,147);stroke-width:0.01" />
<line x1="0.094721" y1="-0.263321" x2="0.094721" y2="0.352064" style="stroke:rgb(246,147,147);stroke-width:0.01" />
<line x1="0.171644" y1="-0.340244" x2="0.171644" y2="0.352064" style="stroke:rgb(246,147,147);stroke-width:0.01" />
<line x1="0.094721" y1="-0.263321" x2="0.0358974" y2="0.11677" style="stroke:rgb(246,147,147);stroke-width:0.01" />
<line x1="-0.366817" y1="-0.298824" x2="0.094721" y2="-0.263321" style="stroke:rgb(246,147,147);stroke-width:0.01" />
<line x1="0.171644" y1="-0.340244" x2="-0.366817" y2="-0.298824" style="stroke:rgb(246,147,147);stroke-width:0.01" />
<line x1="-0.366817" y1="0.0544448" x2="0.0358974" y2="0.11677" style="stroke:rgb(246,147,147);stroke-width:0.01" />
<line x1="0.218703" y1="-0.0361715" x2="-0.366817" y2="0.0544448" style="stroke:rgb(246,147,147);stroke-width:0.01" />
<line x1="-0.366817" y1="0.352064" x2="0.171644" y2="0.352064" style="stroke:rgb(246,147,147);stroke-width:0.01" />
</g>
</svg>
