<svg xmlns="http://www.w3.org/2000/svg" viewBox="-1.5 -1.5 3 3">
<g transform="scale(1, -1)">
<path d="M1.000000 0.307692 L1.047059 0.611765 L1.000000 0.619048 L1.000000 1.000000 L0.461538 1.000000 L0.461538 0.349112 z " fill="rgb(245,195,195)" />
<path d="M0.000000 0.000000 L1.000000 0.000000 L1.000000 1.000000 L0.000000 1.000000  z" fill="none" stroke="rgb(128,128,128)" stroke-width="0.01" />
<line x1="1" y1="0.307692" x2="1.04706" y2="0.611765" style="stroke:rgb(246,147,147);stroke-width:0.01" />
<line x1="0.461538" y1="0.349112" x2="0.461538" y2="1" style="stroke:rgb(246,147,147);stroke-width:0.01" />
<line x1="0.923077" y1="0.384615" x2="0.923077" y2="1" style="stroke:rgb(246,147,147);stroke-width:0.01" />
<line x1="1" y1="0.307692" x2="1" y2="1" style="stroke:rgb(246,147,147);stroke-width:0.01" />
<line x1="0.923077" y1="0.384615" x2="0.864253" y2="0.764706" style="stroke:rgb(246,147,147);stroke-width:0.01" />
<line x1="0.461538" y1="0.349112" x2="0.923077" y2="0.384615" style="stroke:rgb(246,147,147);stroke-width:0.01" />
<line x1="1" y1="0.307692" x2="0.461538" y2="0.349112" style="stroke:rgb(246,147,147);stroke-width:0.01" />
<line x1="0.461538" y1="0.702381" x2="0.864253" y2="0.764706" style="stroke:rgb(246,147,147);stroke-width:0.01" />
<line x1="1.04706" y1="0.611765" x2="0.461538" y2="0.702381" style="stroke:rgb(246,147,147);stroke-width:0.01" />
<line x1="0.461538" y1="1" x2="1" y2="1" style="stroke:rgb(246,147,147);stroke-width:0.01" />
</g>
</svg>
