<svg xmlns="http://www.w3.org/2000/svg" viewBox="-1.5 -1.5 3 3">
<g transform="scale(1, -1)">
<path d="M0.222919 -0.473539 L0.366621 -0.201465 L0.222919 -0.125565 L0.222919 0.218769 L-0.088749 0.218769 L-0.113468 0.265568 L-0.202074 0.218769 L-0.315543 0.218769 L-0.315543 -0.340074 z " fill="rgb(245,195,195)" />
<path d="M-0.777081 -0.781231 L0.222919 -0.781231 L0.222919 0.218769 L-0.777081 0.218769  z" fill="none" stroke="rgb(128,128,128)" stroke-width="0.01" />
<line x1="0.222919" y1="-0.473539" x2="0.366621" y2="-0.201465" style="stroke:rgb(246,147,147);stroke-width:0.01" />
<line x1="-0.315543" y1="-0.340074" x2="-0.315543" y2="0.218769" style="stroke:rgb(246,147,147);stroke-width:0.01" />
<line x1="0.145995" y1="-0.225676" x2="0.145995" y2="0.218769" style="stroke:rgb(246,147,147);stroke-width:0.01" />
<line x1="0.222919" y1="-0.473539" x2="0.222919" y2="0.218769" style="stroke:rgb(246,147,147);stroke-width:0.01" />
<line x1="-0.315543" y1="-0.340074" x2="0.145995" y2="-0.225676" style="stroke:rgb(246,147,147);stroke-width:0.01" />
<line x1="0.145995" y1="-0.225676" x2="-0.113468" y2="0.265568" style="stroke:rgb(246,147,147);stroke-width:0.01" />
<line x1="0.222919" y1="-0.473539" x2="-0.315543" y2="-0.340074" style="stroke:rgb(246,147,147);stroke-width:0.01" />
<line x1="-0.315543" y1="0.158837" x2="-0.113468" y2="0.265568" style="stroke:rgb(246,147,147);stroke-width:0.01" />
<line x1="0.366621" y1="-0.201465" x2="-0.315543" y2="0.158837" style="stroke:rgb(246,147,147);stroke-width:0.01" />
<line x1="-0.315543" y1="0.218769" x2="0.222919" y2="0.218769" style="stroke:rgb(246,147,147);stroke-width:0.01" />
</g>
</svg>
