<svg xmlns="http://www.w3.org/2000/svg" viewBox="-1.5 -1.5 3 3">
<g transform="scale(1, -1)">
<path d="M0.452976 0.000000 L0.666667 0.000000 L0.666667 0.214286 L0.452976 0.214286 z " fill="rgb(245,195,195)" />
<path d="M0.000000 0.000000 L1.000000 0.000000 L1.000000 1.000000 L0.000000 1.000000  z" fill="none" stroke="rgb(128,128,128)" stroke-width="0.01" />
<line x1="0.452976" y1="0" x2="0.666667" y2="0" style="stroke:rgb(246,147,147);stroke-width:0.01" />
<line x1="0.452976" y1="0" x2="0.452976" y2="0.214286" style="stroke:rgb(246,147,147);stroke-width:0.01" />
<line x1="0.571429" y1="0" x2="0.571429" y2="0.214286" style="stroke:rgb(246,147,147);stroke-width:0.01" />
<line x1="0.583333" y1="0" x2="0.583333" y2="0.214286" style="stroke:rgb(246,147,147);stroke-width:0.01" />
<line x1="0.615476" y1="0" x2="0.615476" y2="0.214286" style="stroke:rgb(246,147,147);stroke-width:0.01" />
<line x1="0.640476" y1="0" x2="0.640476" y2="0.214286" style="stroke:rgb(246,147,147);stroke-width:0.01" />
<line x1="0.666667" y1="0" x2="0.666667" y2="0.214286" style="stroke:rgb(246,147,147);stroke-width:0.01" />
<line x1="0.452976" y1="0.0357143" x2="0.666667" y2="0.0357143" style="stroke:rgb(246,147,147);stroke-width:0.01" />
<line x1="0.452976" y1="0.0714286" x2="0.666667" y2="0.0714286" style="stroke:rgb(246,147,147);stroke-width:0.01" />
<line x1="0.452976" y1="0.142857" x2="0.666667" y2="0.142857" style="stroke:rgb(246,147,147);stroke-width:0.01" />
<line x1="0.452976" y1="0.214286" x2="0.666667" y2="0.214286" style="stroke:rgb(246,147,147);stroke-width:0.01" />
</g>
</svg>
