<svg xmlns="http://www.w3.org/2000/svg" viewBox="-1.5 -1.5 3 3">
<g transform="scale(1, -1)">
<path d="M-0.106845 -0.107143 L0.106845 -0.107143 L0.106845 0.107143 L-0.106845 0.107143 z " fill="rgb(245,195,195)" />
<path d="M-0.559821 -0.107143 L0.440179 -0.107143 L0.440179 0.892857 L-0.559821 0.892857  z" fill="none" stroke="rgb(128,128,128)" stroke-width="0.01" />
<line x1="-0.106845" y1="-0.107143" x2="0.106845" y2="-0.107143" style="stroke:rgb(246,147,147);stroke-width:0.01" />
<line x1="-0.106845" y1="-0.107143" x2="-0.106845" y2="0.107143" style="stroke:rgb(246,147,147);stroke-width:0.01" />
<line x1="0.0116071" y1="-0.107143" x2="0.0116071" y2="0.107143" style="stroke:rgb(246,147,147);stroke-width:0.01" />
<line x1="0.0235119" y1="-0.107143" x2="0.0235119" y2="0.107143" style="stroke:rgb(246,147,147);stroke-width:0.01" />
<line x1="0.0556548" y1="-0.107143" x2="0.0556548" y2="0.107143" style="stroke:rgb(246,147,147);stroke-width:0.01" />
<line x1="0.0806548" y1="-0.107143" x2="0.0806548" y2="0.107143" style="stroke:rgb(246,147,147);stroke-width:0.01" />
<line x1="0.106845" y1="-0.107143" x2="0.106845" y2="0.107143" style="stroke:rgb(246,147,147);stroke-width:0.01" />
<line x1="-0.106845" y1="-0.0714286" x2="0.106845" y2="-0.0714286" style="stroke:rgb(246,147,147);stroke-width:0.01" />
<line x1="-0.106845" y1="-0.0357143" x2="0.106845" y2="-0.0357143" style="stroke:rgb(246,147,147);stroke-width:0.01" />
<line x1="-0.106845" y1="0.0357143" x2="0.106845" y2="0.0357143" style="stroke:rgb(246,147,147);stroke-width:0.01" />
<line x1="-0.106845" y1="0.107143" x2="0.106845" y2="0.107143" style="stroke:rgb(246,147,147);stroke-width:0.01" />
</g>
</svg>
