<svg xmlns="http://www.w3.org/2000/svg" viewBox="-1.5 -1.5 3 3">
<g transform="scale(1, -1)">
<path d="M123456790.559083 987654321.552028 L123456790.701940 987654321.552028 L123456790.916226 987654321.694885 L123456791.130511 987654321.694885 L123456791.130511 987654321.837742 L123456790.987654 987654322.052028 L123456790.987654 987654322.266314 L123456790.844797 987654322.266314 L123456790.630511 987654322.123457 L123456790.416226 987654322.123457 L123456790.416226 987654321.980600 L123456790.559083 987654321.766314 z " fill="rgb(245,195,195)" />
<path d="M0.000000 0.000000 L1.000000 0.000000 L1.000000 1.000000 L0.000000 1.000000  z" fill="none" stroke="rgb(128,128,128)" stroke-width="0.01" />
<line x1="1.23457e+08" y1="9.87654e+08" x2="1.23457e+08" y2="9.87654e+08" style="stroke:rgb(246,147,147);stroke-width:0.01" />
<line x1="1.23457e+08" y1="9.87654e+08" x2="1.23457e+08" y2="9.87654e+08" style="stroke:rgb(246,147,147);stroke-width:0.01" />
<line x1="1.23457e+08" y1="9.87654e+08" x2="1.23457e+08" y2="9.87654e+08" style="stroke:rgb(246,147,147);stroke-width:0.01" />
<line x1="1.23457e+08" y1="9.87654e+08" x2="1.23457e+08" y2="9.87654e+08" style="stroke:rgb(246,147,147);stroke-width:0.01" />
<line x1="1.23457e+08" y1="9.87654e+08" x2="1.23457e+08" y2="9.87654e+08" style="stroke:rgb(246,147,147);stroke-width:0.01" />
<line x1="1.23457e+08" y1="9.87654e+08" x2="1.23457e+08" y2="9.87654e+08" style="stroke:rgb(246,147,147);stroke-width:0.01" />
<line x1="1.23457e+08" y1="9.87654e+08" x2="1.23457e+08" y2="9.87654e+08" style="stroke:rgb(246,147,147);stroke-width:0.01" />
<line x1="1.23457e+08" y1="9.87654e+08" x2="1.23457e+08" y2="9.87654e+08" style="stroke:rgb(246,147,147);stroke-width:0.01" />
<line x1="1.23457e+08" y1="9.87654e+08" x2="1.23457e+08" y2="9.87654e+08" style="stroke:rgb(246,147,147);stroke-width:0.01" />
<line x1="1.23457e+08" y1="9.87654e+08" x2="1.23457e+08" y2="9.87654e+08" style="stroke:rgb(246,147,147);stroke-width:0.01" />
<line x1="1.23457e+08" y1="9.87654e+08" x2="1.23457e+08" y2="9.87654e+08" style="stroke:rgb(246,147,147);stroke-width:0.01" />
<line x1="1.23457e+08" y1="9.87654e+08" x2="1.23457e+08" y2="9.87654e+08" style="stroke:rgb(246,147,147);stroke-width:0.01" />
<line x1="1.23457e+08" y1="9.87654e+08" x2="1.23457e+08" y2="9.87654e+08" style="stroke:rgb(246,147,147);stroke-width:0.01" />
<line x1="1.23457e+08" y1="9.87654e+08" x2="1.23457e+08" y2="9.87654e+08" style="stroke:rgb(246,147,147);stroke-width:0.01" />
<line x1="1.23457e+08" y1="9.87654e+08" x2="1.23457e+08" y2="9.87654e+08" style="stroke:rgb(246,147,147);stroke-width:0.01" />
<line x1="1.23457e+08" y1="9.87654e+08" x2="1.23457e+08" y2="9.87654e+08" style="stroke:rgb(246,147,147);stroke-width:0.01" />
<line x1="1.23457e+08" y1="9.87654e+08" x2="1.23457e+08" y2="9.87654e+08" style="stroke:rgb(246,147,147);stroke-width:0.01" />
<line x1="1.23457e+08" y1="9.87654e+08" x2="1.23457e+08" y2="9.87654e+08" style="stroke:rgb(246,147,147);stroke-width:0.01" />
<line x1="1.23457e+08" y1="9.87654e+08" x2="1.23457e+08" y2="9.87654e+08" style="stroke:rgb(246,147,147);stroke-width:0.01" />
<line x1="1.23457e+08" y1="9.87654e+08" x2="1.23457e+08" y2="9.87654e+08" style="stroke:rgb(246,147,147);stroke-width:0.01" />
<line x1="1.23457e+08" y1="9.87654e+08" x2="1.23457e+08" y2="9.87654e+08" style="stroke:rgb(246,147,147);stroke-width:0.01" />
<line x1="1.23457e+08" y1="9.87654e+08" x2="1.23457e+08" y2="9.87654e+08" style="stroke:rgb(246,147,147);stroke-width:0.01" />
<line x1="1.23457e+08" y1="9.87654e+08" x2="1.23457e+08" y2="9.87654e+08" style="stroke:rgb(246,147,147);stroke-width:0.01" />
<line x1="1.23457e+08" y1="9.87654e+08" x2="1.23457e+08" y2="9.87654e+08" style="stroke:rgb(246,147,147);stroke-width:0.01" />
</g>
</svg>
