<svg xmlns="http://www.w3.org/2000/svg" viewBox="-1.5 -1.5 3 3">
<g transform="scale(1, -1)">
<path d="M1.059402 0.437500 L1.420513 0.437500 L1.420513 0.567308 L1.059402 0.567308 z " fill="rgb(245,195,195)" />
<path d="M0.000000 0.000000 L1.000000 0.000000 L1.000000 1.000000 L0.000000 1.000000  z" fill="none" stroke="rgb(128,128,128)" stroke-width="0.01" />
<line x1="1.0594" y1="0.4375" x2="1.0594" y2="0.567308" style="stroke:rgb(246,147,147);stroke-width:0.01" />
<line x1="1.1844" y1="0.4375" x2="1.1844" y2="0.567308" style="stroke:rgb(246,147,147);stroke-width:0.01" />
<line x1="1.23301" y1="0.4375" x2="1.23301" y2="0.567308" style="stroke:rgb(246,147,147);stroke-width:0.01" />
<line x1="1.25385" y1="0.4375" x2="1.25385" y2="0.567308" style="stroke:rgb(246,147,147);stroke-width:0.01" />
<line x1="1.33718" y1="0.4375" x2="1.33718" y2="0.567308" style="stroke:rgb(246,147,147);stroke-width:0.01" />
<line x1="1.42051" y1="0.4375" x2="1.42051" y2="0.567308" style="stroke:rgb(246,147,147);stroke-width:0.01" />
<line x1="1.0594" y1="0.4375" x2="1.42051" y2="0.4375" style="stroke:rgb(246,147,147);stroke-width:0.01" />
<line x1="1.0594" y1="0.445221" x2="1.42051" y2="0.445221" style="stroke:rgb(246,147,147);stroke-width:0.01" />
<line x1="1.0594" y1="0.490385" x2="1.42051" y2="0.490385" style="stroke:rgb(246,147,147);stroke-width:0.01" />
<line x1="1.0594" y1="0.49284" x2="1.42051" y2="0.49284" style="stroke:rgb(246,147,147);stroke-width:0.01" />
<line x1="1.0594" y1="0.5" x2="1.42051" y2="0.5" style="stroke:rgb(246,147,147);stroke-width:0.01" />
<line x1="1.0594" y1="0.510698" x2="1.42051" y2="0.510698" style="stroke:rgb(246,147,147);stroke-width:0.01" />
<line x1="1.0594" y1="0.511364" x2="1.42051" y2="0.511364" style="stroke:rgb(246,147,147);stroke-width:0.01" />
<line x1="1.0594" y1="0.567308" x2="1.42051" y2="0.567308" style="stroke:rgb(246,147,147);stroke-width:0.01" />
</g>
</svg>
