<svg xmlns="http://www.w3.org/2000/svg" viewBox="-1.5 -1.5 3 3">
<g transform="scale(1, -1)">
<path d="M-0.180556 -0.064904 L0.180556 -0.064904 L0.180556 0.064904 L-0.180556 0.064904 z " fill="rgb(245,195,195)" />
<path d="M-1.239957 -0.502404 L-0.239957 -0.502404 L-0.239957 0.497596 L-1.239957 0.497596  z" fill="none" stroke="rgb(128,128,128)" stroke-width="0.01" />
<line x1="-0.180556" y1="-0.0649038" x2="-0.180556" y2="0.0649038" style="stroke:rgb(246,147,147);stroke-width:0.01" />
<line x1="-0.0555556" y1="-0.0649038" x2="-0.0555556" y2="0.0649038" style="stroke:rgb(246,147,147);stroke-width:0.01" />
<line x1="-0.00694444" y1="-0.0649038" x2="-0.00694444" y2="0.0649038" style="stroke:rgb(246,147,147);stroke-width:0.01" />
<line x1="0.0138889" y1="-0.0649038" x2="0.0138889" y2="0.0649038" style="stroke:rgb(246,147,147);stroke-width:0.01" />
<line x1="0.0972222" y1="-0.0649038" x2="0.0972222" y2="0.0649038" style="stroke:rgb(246,147,147);stroke-width:0.01" />
<line x1="0.180556" y1="-0.0649038" x2="0.180556" y2="0.0649038" style="stroke:rgb(246,147,147);stroke-width:0.01" />
<line x1="-0.180556" y1="-0.0649038" x2="0.180556" y2="-0.0649038" style="stroke:rgb(246,147,147);stroke-width:0.01" />
<line x1="-0.180556" y1="-0.0571824" x2="0.180556" y2="-0.0571824" style="stroke:rgb(246,147,147);stroke-width:0.01" />
<line x1="-0.180556" y1="-0.0120192" x2="0.180556" y2="-0.0120192" style="stroke:rgb(246,147,147);stroke-width:0.01" />
<line x1="-0.180556" y1="-0.00956335" x2="0.180556" y2="-0.00956335" style="stroke:rgb(246,147,147);stroke-width:0.01" />
<line x1="-0.180556" y1="-0.00240385" x2="0.180556" y2="-0.00240385" style="stroke:rgb(246,147,147);stroke-width:0.01" />
<line x1="-0.180556" y1="0.00829379" x2="0.180556" y2="0.00829379" style="stroke:rgb(246,147,147);stroke-width:0.01" />
<line x1="-0.180556" y1="0.00895979" x2="0.180556" y2="0.00895979" style="stroke:rgb(246,147,147);stroke-width:0.01" />
<line x1="-0.180556" y1="0.0649038" x2="0.180556" y2="0.0649038" style="stroke:rgb(246,147,147);stroke-width:0.01" />
</g>
</svg>
