<svg xmlns="http://www.w3.org/2000/svg" viewBox="-1.5 -1.5 3 3">
<g transform="scale(1, -1)">
<path d="M-0.083333 -0.300000 L0.083333 -0.300000 L0.083333 0.300000 L-0.083333 0.300000 z " fill="rgb(245,195,195)" />
<path d="M-0.916667 -0.300000 L0.083333 -0.300000 L0.083333 0.700000 L-0.916667 0.700000  z" fill="none" stroke="rgb(128,128,128)" stroke-width="0.01" />
<line x1="-0.0833333" y1="-0.3" x2="0.0833333" y2="-0.3" style="stroke:rgb(246,147,147);stroke-width:0.01" />
<line x1="-0.0833333" y1="-0.3" x2="-0.0833333" y2="0.3" style="stroke:rgb(246,147,147);stroke-width:0.01" />
<line x1="-0.0404762" y1="-0.3" x2="-0.0404762" y2="0.3" style="stroke:rgb(246,147,147);stroke-width:0.01" />
<line x1="0.05" y1="-0.3" x2="0.05" y2="0.3" style="stroke:rgb(246,147,147);stroke-width:0.01" />
<line x1="0.0583333" y1="-0.3" x2="0.0583333" y2="0.3" style="stroke:rgb(246,147,147);stroke-width:0.01" />
<line x1="0.0625" y1="-0.3" x2="0.0625" y2="0.3" style="stroke:rgb(246,147,147);stroke-width:0.01" />
<line x1="0.0642857" y1="-0.3" x2="0.0642857" y2="0.3" style="stroke:rgb(246,147,147);stroke-width:0.01" />
<line x1="0.0833333" y1="-0.3" x2="0.0833333" y2="0.3" style="stroke:rgb(246,147,147);stroke-width:0.01" />
<line x1="-0.0833333" y1="-0.175" x2="0.0833333" y2="-0.175" style="stroke:rgb(246,147,147);stroke-width:0.01" />
<line x1="-0.0833333" y1="0.15" x2="0.0833333" y2="0.15" style="stroke:rgb(246,147,147);stroke-width:0.01" />
<line x1="-0.0833333" y1="0.3" x2="0.0833333" y2="0.3" style="stroke:rgb(246,147,147);stroke-width:0.01" />
</g>
</svg>
