<svg xmlns="http://www.w3.org/2000/svg" viewBox="-1.5 -1.5 3 3">
<g transform="scale(1, -1)">
<path d="M0.833333 0.000000 L1.000000 0.000000 L1.000000 0.600000 L0.833333 0.600000 z " fill="rgb(245,195,195)" />
<path d="M0.000000 0.000000 L1.000000 0.000000 L1.000000 1.000000 L0.000000 1.000000  z" fill="none" stroke="rgb(128,128,128)" stroke-width="0.01" />
<line x1="0.833333" y1="0" x2="1" y2="0" style="stroke:rgb(246,147,147);stroke-width:0.01" />
<line x1="0.833333" y1="0" x2="0.833333" y2="0.6" style="stroke:rgb(246,147,147);stroke-width:0.01" />
<line x1="0.87619" y1="0" x2="0.87619" y2="0.6" style="stroke:rgb(246,147,147);stroke-width:0.01" />
<line x1="0.966667" y1="0" x2="0.966667" y2="0.6" style="stroke:rgb(246,147,147);stroke-width:0.01" />
<line x1="0.975" y1="0" x2="0.975" y2="0.6" style="stroke:rgb(246,147,147);stroke-width:0.01" />
<line x1="0.979167" y1="0" x2="0.979167" y2="0.6" style="stroke:rgb(246,147,147);stroke-width:0.01" />
<line x1="0.980952" y1="0" x2="0.980952" y2="0.6" style="stroke:rgb(246,147,147);stroke-width:0.01" />
<line x1="1" y1="0" x2="1" y2="0.6" style="stroke:rgb(246,147,147);stroke-width:0.01" />
<line x1="0.833333" y1="0.125" x2="1" y2="0.125" style="stroke:rgb(246,147,147);stroke-width:0.01" />
<line x1="0.833333" y1="0.45" x2="1" y2="0.45" style="stroke:rgb(246,147,147);stroke-width:0.01" />
<line x1="0.833333" y1="0.6" x2="1" y2="0.6" style="stroke:rgb(246,147,147);stroke-width:0.01" />
</g>
</svg>
