<svg xmlns="http://www.w3.org/2000/svg" viewBox="-1.5 -1.5 3 3">
<g transform="scale(1, -1)">
<path d="M0.166667 0.104167 L0.600000 0.104167 L0.600000 0.333333 L0.166667 0.333333 z " fill="rgb(245,195,195)" />
<path d="M0.000000 0.000000 L1.000000 0.000000 L1.000000 1.000000 L0.000000 1.000000  z" fill="none" stroke="rgb(128,128,128)" stroke-width="0.01" />
<line x1="0.166667" y1="0.104167" x2="0.166667" y2="0.333333" style="stroke:rgb(246,147,147);stroke-width:0.01" />
<line x1="0.2" y1="0.104167" x2="0.2" y2="0.333333" style="stroke:rgb(246,147,147);stroke-width:0.01" />
<line x1="0.233333" y1="0.104167" x2="0.233333" y2="0.333333" style="stroke:rgb(246,147,147);stroke-width:0.01" />
<line x1="0.414286" y1="0.104167" x2="0.414286" y2="0.333333" style="stroke:rgb(246,147,147);stroke-width:0.01" />
<line x1="0.571429" y1="0.104167" x2="0.571429" y2="0.333333" style="stroke:rgb(246,147,147);stroke-width:0.01" />
<line x1="0.6" y1="0.104167" x2="0.6" y2="0.333333" style="stroke:rgb(246,147,147);stroke-width:0.01" />
<line x1="0.166667" y1="0.104167" x2="0.6" y2="0.104167" style="stroke:rgb(246,147,147);stroke-width:0.01" />
<line x1="0.166667" y1="0.125" x2="0.6" y2="0.125" style="stroke:rgb(246,147,147);stroke-width:0.01" />
<line x1="0.166667" y1="0.138889" x2="0.6" y2="0.138889" style="stroke:rgb(246,147,147);stroke-width:0.01" />
<line x1="0.166667" y1="0.236111" x2="0.6" y2="0.236111" style="stroke:rgb(246,147,147);stroke-width:0.01" />
<line x1="0.166667" y1="0.25" x2="0.6" y2="0.25" style="stroke:rgb(246,147,147);stroke-width:0.01" />
<line x1="0.166667" y1="0.291667" x2="0.6" y2="0.291667" style="stroke:rgb(246,147,147);stroke-width:0.01" />
<line x1="0.166667" y1="0.333333" x2="0.6" y2="0.333333" style="stroke:rgb(246,147,147);stroke-width:0.01" />
</g>
</svg>
