<svg xmlns="http://www.w3.org/2000/svg" viewBox="-1.5 -1.5 3 3">
<g transform="scale(1, -1)">
<path d="M-0.216667 -0.114583 L0.216667 -0.114583 L0.216667 0.114583 L-0.216667 0.114583 z " fill="rgb(245,195,195)" />
<path d="M-0.383333 -0.218750 L0.616667 -0.218750 L0.616667 0.781250 L-0.383333 0.781250  z" fill="none" stroke="rgb(128,128,128)" stroke-width="0.01" />
<line x1="-0.216667" y1="-0.114583" x2="-0.216667" y2="0.114583" style="stroke:rgb(246,147,147);stroke-width:0.01" />
<line x1="-0.183333" y1="-0.114583" x2="-0.183333" y2="0.114583" style="stroke:rgb(246,147,147);stroke-width:0.01" />
<line x1="-0.15" y1="-0.114583" x2="-0.15" y2="0.114583" style="stroke:rgb(246,147,147);stroke-width:0.01" />
<line x1="0.0309524" y1="-0.114583" x2="0.0309524" y2="0.114583" style="stroke:rgb(246,147,147);stroke-width:0.01" />
<line x1="0.188095" y1="-0.114583" x2="0.188095" y2="0.114583" style="stroke:rgb(246,147,147);stroke-width:0.01" />
<line x1="0.216667" y1="-0.114583" x2="0.216667" y2="0.114583" style="stroke:rgb(246,147,147);stroke-width:0.01" />
<line x1="-0.216667" y1="-0.114583" x2="0.216667" y2="-0.114583" style="stroke:rgb(246,147,147);stroke-width:0.01" />
<line x1="-0.216667" y1="-0.09375" x2="0.216667" y2="-0.09375" style="stroke:rgb(246,147,147);stroke-width:0.01" />
<line x1="-0.216667" y1="-0.0798611" x2="0.216667" y2="-0.0798611" style="stroke:rgb(246,147,147);stroke-width:0.01" />
<line x1="-0.216667" y1="0.0173611" x2="0.216667" y2="0.0173611" style="stroke:rgb(246,147,147);stroke-width:0.01" />
<line x1="-0.216667" y1="0.03125" x2="0.216667" y2="0.03125" style="stroke:rgb(246,147,147);stroke-width:0.01" />
<line x1="-0.216667" y1="0.0729167" x2="0.216667" y2="0.0729167" style="stroke:rgb(246,147,147);stroke-width:0.01" />
<line x1="-0.216667" y1="0.114583" x2="0.216667" y2="0.114583" style="stroke:rgb(246,147,147);stroke-width:0.01" />
</g>
</svg>
