<svg xmlns="http://www.w3.org/2000/svg" viewBox="-1.5 -1.5 3 3">
<g transform="scale(1, -1)">
<path d="M56525250695765958656.000000 56525250695765958656.000000 L56525250695765958656.000000 56525250695765958656.000000 L56525250695765958656.000000 56525250695765958656.000000 L56525250695765958656.000000 56525250695765958656.000000 L56525250695765958656.000000 56525250695765958656.000000 L56525250695765958656.000000 56525250695765958656.000000 L56525250695765958656.000000 56525250695765958656.000000 z " fill="rgb(245,195,195)" />
<path d="M0.000000 0.000000 L1.000000 0.000000 L1.000000 1.000000 L0.000000 1.000000  z" fill="none" stroke="rgb(128,128,128)" stroke-width="0.01" />
<line x1="5.65253e+19" y1="5.65253e+19" x2="5.65253e+19" y2="5.65253e+19" style="stroke:rgb(246,147,147);stroke-width:0.01" />
<line x1="5.65253e+19" y1="5.65253e+19" x2="5.65253e+19" y2="5.65253e+19" style="stroke:rgb(246,147,147);stroke-width:0.01" />
<line x1="5.65253e+19" y1="5.65253e+19" x2="5.65253e+19" y2="5.65253e+19" style="stroke:rgb(246,147,147);stroke-width:0.01" />
<line x1="5.65253e+19" y1="5.65253e+19" x2="5.65253e+19" y2="5.65253e+19" style="stroke:rgb(246,147,147);stroke-width:0.01" />
<line x1="5.65253e+19" y1="5.65253e+19" x2="5.65253e+19" y2="5.65253e+19" style="stroke:rgb(246,147,147);stroke-width:0.01" />
<line x1="5.65253e+19" y1="5.65253e+19" x2="5.65253e+19" y2="5.65253e+19" style="stroke:rgb(246,147,147);stroke-width:0.01" />
<line x1="5.65253e+19" y1="5.65253e+19" x2="5.65253e+19" y2="5.65253e+19" style="stroke:rgb(246,147,147);stroke-width:0.01" />
</g>
</svg>
