<svg xmlns="http://www.w3.org/2000/svg" viewBox="-1.5 -1.5 3 3">
<g transform="scale(1, -1)">
<path d="M-0.144444 -0.083333 L0.144444 -0.083333 L0.144444 0.083333 L-0.144444 0.083333 z " fill="rgb(245,195,195)" />
<path d="M-0.166667 -0.416667 L0.833333 -0.416667 L0.833333 0.583333 L-0.166667 0.583333  z" fill="none" stroke="rgb(128,128,128)" stroke-width="0.01" />
<line x1="-0.144444" y1="-0.0833333" x2="-0.144444" y2="0.0833333" style="stroke:rgb(246,147,147);stroke-width:0.01" />
<line x1="-0.1" y1="-0.0833333" x2="-0.1" y2="0.0833333" style="stroke:rgb(246,147,147);stroke-width:0.01" />
<line x1="0.0333333" y1="-0.0833333" x2="0.0333333" y2="0.0833333" style="stroke:rgb(246,147,147);stroke-width:0.01" />
<line x1="0.0492063" y1="-0.0833333" x2="0.0492063" y2="0.0833333" style="stroke:rgb(246,147,147);stroke-width:0.01" />
<line x1="0.136508" y1="-0.0833333" x2="0.136508" y2="0.0833333" style="stroke:rgb(246,147,147);stroke-width:0.01" />
<line x1="0.144444" y1="-0.0833333" x2="0.144444" y2="0.0833333" style="stroke:rgb(246,147,147);stroke-width:0.01" />
<line x1="-0.144444" y1="-0.0833333" x2="0.144444" y2="-0.0833333" style="stroke:rgb(246,147,147);stroke-width:0.01" />
<line x1="-0.144444" y1="0" x2="0.144444" y2="0" style="stroke:rgb(246,147,147);stroke-width:0.01" />
<line x1="-0.144444" y1="0.0320513" x2="0.144444" y2="0.0320513" style="stroke:rgb(246,147,147);stroke-width:0.01" />
<line x1="-0.144444" y1="0.05" x2="0.144444" y2="0.05" style="stroke:rgb(246,147,147);stroke-width:0.01" />
<line x1="-0.144444" y1="0.0807692" x2="0.144444" y2="0.0807692" style="stroke:rgb(246,147,147);stroke-width:0.01" />
<line x1="-0.144444" y1="0.0833333" x2="0.144444" y2="0.0833333" style="stroke:rgb(246,147,147);stroke-width:0.01" />
</g>
</svg>
