<svg xmlns="http://www.w3.org/2000/svg" viewBox="-1.5 -1.5 3 3">
<g transform="scale(1, -1)">
<path d="M0.022222 0.333333 L0.311111 0.333333 L0.311111 0.500000 L0.022222 0.500000 z " fill="rgb(245,195,195)" />
<path d="M0.000000 0.000000 L1.000000 0.000000 L1.000000 1.000000 L0.000000 1.000000  z" fill="none" stroke="rgb(128,128,128)" stroke-width="0.01" />
<line x1="0.0222222" y1="0.333333" x2="0.0222222" y2="0.5" style="stroke:rgb(246,147,147);stroke-width:0.01" />
<line x1="0.0666667" y1="0.333333" x2="0.0666667" y2="0.5" style="stroke:rgb(246,147,147);stroke-width:0.01" />
<line x1="0.2" y1="0.333333" x2="0.2" y2="0.5" style="stroke:rgb(246,147,147);stroke-width:0.01" />
<line x1="0.215873" y1="0.333333" x2="0.215873" y2="0.5" style="stroke:rgb(246,147,147);stroke-width:0.01" />
<line x1="0.303175" y1="0.333333" x2="0.303175" y2="0.5" style="stroke:rgb(246,147,147);stroke-width:0.01" />
<line x1="0.311111" y1="0.333333" x2="0.311111" y2="0.5" style="stroke:rgb(246,147,147);stroke-width:0.01" />
<line x1="0.0222222" y1="0.333333" x2="0.311111" y2="0.333333" style="stroke:rgb(246,147,147);stroke-width:0.01" />
<line x1="0.0222222" y1="0.416667" x2="0.311111" y2="0.416667" style="stroke:rgb(246,147,147);stroke-width:0.01" />
<line x1="0.0222222" y1="0.448718" x2="0.311111" y2="0.448718" style="stroke:rgb(246,147,147);stroke-width:0.01" />
<line x1="0.0222222" y1="0.466667" x2="0.311111" y2="0.466667" style="stroke:rgb(246,147,147);stroke-width:0.01" />
<line x1="0.0222222" y1="0.497436" x2="0.311111" y2="0.497436" style="stroke:rgb(246,147,147);stroke-width:0.01" />
<line x1="0.0222222" y1="0.5" x2="0.311111" y2="0.5" style="stroke:rgb(246,147,147);stroke-width:0.01" />
</g>
</svg>
