<svg xmlns="http://www.w3.org/2000/svg" viewBox="-1.5 -1.5 3 3">
<g transform="scale(1, -1)">
<path d="M-0.395711 -0.452310 L0.274869 -0.452310 L0.424283 0.145347 L0.424283 0.547690 L0.423709 0.547690 L-0.575717 -0.160236 L-0.575717 -0.175873 z " fill="rgb(245,195,195)" />
<path d="M-0.575717 -0.452310 L0.424283 -0.452310 L0.424283 0.547690 L-0.575717 0.547690  z" fill="none" stroke="rgb(128,128,128)" stroke-width="0.01" />
<line x1="0.143033" y1="-0.381997" x2="0.424283" y2="0.145347" style="stroke:rgb(246,147,147);stroke-width:0.01" />
<line x1="0.0921075" y1="-0.39512" x2="0.423709" y2="0.54769" style="stroke:rgb(246,147,147);stroke-width:0.01" />
<line x1="0.274869" y1="-0.45231" x2="0.424283" y2="0.145347" style="stroke:rgb(246,147,147);stroke-width:0.01" />
<line x1="-0.395711" y1="-0.45231" x2="-0.322902" y2="-0.287686" style="stroke:rgb(246,147,147);stroke-width:0.01" />
<line x1="-0.395711" y1="-0.45231" x2="0.274869" y2="-0.45231" style="stroke:rgb(246,147,147);stroke-width:0.01" />
<line x1="-0.575717" y1="-0.175873" x2="-0.575717" y2="-0.160236" style="stroke:rgb(246,147,147);stroke-width:0.01" />
<line x1="0.424283" y1="0.145347" x2="0.424283" y2="0.54769" style="stroke:rgb(246,147,147);stroke-width:0.01" />
<line x1="-0.395711" y1="-0.45231" x2="-0.575717" y2="-0.175873" style="stroke:rgb(246,147,147);stroke-width:0.01" />
<line x1="-0.575717" y1="-0.160236" x2="0.423709" y2="0.54769" style="stroke:rgb(246,147,147);stroke-width:0.01" />
<line x1="-0.322902" y1="-0.287686" x2="-0.575717" y2="-0.175873" style="stroke:rgb(246,147,147);stroke-width:0.01" />
<line x1="0.0921075" y1="-0.39512" x2="-0.575717" y2="-0.160236" style="stroke:rgb(246,147,147);stroke-width:0.01" />
<line x1="0.274869" y1="-0.45231" x2="0.143033" y2="-0.381997" style="stroke:rgb(246,147,147);stroke-width:0.01" />
<line x1="0.423709" y1="0.54769" x2="0.424283" y2="0.54769" style="stroke:rgb(246,147,147);stroke-width:0.01" />
</g>
</svg>
