<svg xmlns="http://www.w3.org/2000/svg" viewBox="-1.5 -1.5 3 3">
<g transform="scale(1, -1)">
<path d="M0.331601 -0.374220 L0.165800 -0.187110 L0.352911 -0.021310 L0.374220 0.331601 L0.187110 0.165800 L0.021310 0.352911 L-0.331601 0.374220 L-0.165800 0.187110 L-0.352911 0.021310 L-0.374220 -0.331601 L-0.187110 -0.165800 L-0.021310 -0.352911 z " fill="rgb(245,195,195)" />
<path d="M-0.042620 -0.705821 L0.957380 -0.705821 L0.957380 0.294179 L-0.042620 0.294179  z" fill="none" stroke="rgb(128,128,128)" stroke-width="0.01" />
<line x1="0.352911" y1="-0.0213098" x2="0.37422" y2="0.331601" style="stroke:rgb(246,147,147);stroke-width:0.01" />
<line x1="-0.0213098" y1="-0.352911" x2="0.0213098" y2="0.352911" style="stroke:rgb(246,147,147);stroke-width:0.01" />
<line x1="-0.37422" y1="-0.331601" x2="-0.352911" y2="0.0213098" style="stroke:rgb(246,147,147);stroke-width:0.01" />
<line x1="-0.0213098" y1="-0.352911" x2="-0.352911" y2="0.0213098" style="stroke:rgb(246,147,147);stroke-width:0.01" />
<line x1="-0.0213098" y1="-0.352911" x2="0.352911" y2="-0.0213098" style="stroke:rgb(246,147,147);stroke-width:0.01" />
<line x1="0.331601" y1="-0.37422" x2="-0.331601" y2="0.37422" style="stroke:rgb(246,147,147);stroke-width:0.01" />
<line x1="0.331601" y1="-0.37422" x2="-0.0213098" y2="-0.352911" style="stroke:rgb(246,147,147);stroke-width:0.01" />
<line x1="-0.37422" y1="-0.331601" x2="0.37422" y2="0.331601" style="stroke:rgb(246,147,147);stroke-width:0.01" />
<line x1="0.352911" y1="-0.0213098" x2="0.0213098" y2="0.352911" style="stroke:rgb(246,147,147);stroke-width:0.01" />
<line x1="-0.352911" y1="0.0213098" x2="0.0213098" y2="0.352911" style="stroke:rgb(246,147,147);stroke-width:0.01" />
<line x1="0.352911" y1="-0.0213098" x2="-0.352911" y2="0.0213098" style="stroke:rgb(246,147,147);stroke-width:0.01" />
<line x1="0.0213098" y1="0.352911" x2="-0.331601" y2="0.37422" style="stroke:rgb(246,147,147);stroke-width:0.01" />
</g>
</svg>
