<svg xmlns="http://www.w3.org/2000/svg" viewBox="-1.5 -1.5 3 3">
<g transform="scale(1, -1)">
<path d="M-0.216778 -0.489927 L0.050573 -0.337619 L-0.027280 -0.200962 L0.475529 0.091269 L0.475529 0.202380 L0.280494 0.202380 L-0.296818 0.531272 L-0.370624 0.401718 L-0.370624 -0.400513 z " fill="rgb(245,195,195)" />
<path d="M-1.216778 -0.797620 L-0.216778 -0.797620 L-0.216778 0.202380 L-1.216778 0.202380  z" fill="none" stroke="rgb(128,128,128)" stroke-width="0.01" />
<line x1="-0.216778" y1="-0.489927" x2="0.0505728" y2="-0.337619" style="stroke:rgb(246,147,147);stroke-width:0.01" />
<line x1="-0.370624" y1="-0.400513" x2="0.475529" y2="0.0912692" style="stroke:rgb(246,147,147);stroke-width:0.01" />
<line x1="-0.370624" y1="0.401718" x2="-0.296818" y2="0.531272" style="stroke:rgb(246,147,147);stroke-width:0.01" />
<line x1="-0.370624" y1="-0.400513" x2="-0.370624" y2="0.401718" style="stroke:rgb(246,147,147);stroke-width:0.01" />
<line x1="-0.216778" y1="-0.489927" x2="-0.216778" y2="0.20238" style="stroke:rgb(246,147,147);stroke-width:0.01" />
<line x1="0.475529" y1="0.0912692" x2="0.475529" y2="0.20238" style="stroke:rgb(246,147,147);stroke-width:0.01" />
<line x1="0.0505728" y1="-0.337619" x2="-0.370624" y2="0.401718" style="stroke:rgb(246,147,147);stroke-width:0.01" />
<line x1="-0.216778" y1="-0.489927" x2="-0.370624" y2="-0.400513" style="stroke:rgb(246,147,147);stroke-width:0.01" />
<line x1="-0.370624" y1="0.20238" x2="0.475529" y2="0.20238" style="stroke:rgb(246,147,147);stroke-width:0.01" />
<line x1="0.475529" y1="0.0912692" x2="-0.296818" y2="0.531272" style="stroke:rgb(246,147,147);stroke-width:0.01" />
</g>
</svg>
