<svg xmlns="http://www.w3.org/2000/svg" viewBox="-1.5 -1.5 3 3">
<g transform="scale(1, -1)">
<path d="M0.422265 0.267754 L0.288388 0.478887 L0.499520 0.612764 L0.576775 0.957774 L0.365643 0.823896 L0.231766 1.035029 L-0.113244 1.112284 L0.020633 0.901152 L-0.190499 0.767274 L-0.267754 0.422265 L-0.056622 0.556142 L0.077255 0.345010 z " fill="rgb(245,195,195)" />
<path d="M0.000000 0.000000 L1.000000 0.000000 L1.000000 1.000000 L0.000000 1.000000  z" fill="none" stroke="rgb(128,128,128)" stroke-width="0.01" />
<line x1="0.49952" y1="0.612764" x2="0.576775" y2="0.957774" style="stroke:rgb(246,147,147);stroke-width:0.01" />
<line x1="0.0772553" y1="0.34501" x2="0.231766" y2="1.03503" style="stroke:rgb(246,147,147);stroke-width:0.01" />
<line x1="-0.267754" y1="0.422265" x2="-0.190499" y2="0.767274" style="stroke:rgb(246,147,147);stroke-width:0.01" />
<line x1="0.0772553" y1="0.34501" x2="-0.190499" y2="0.767274" style="stroke:rgb(246,147,147);stroke-width:0.01" />
<line x1="0.0772553" y1="0.34501" x2="0.49952" y2="0.612764" style="stroke:rgb(246,147,147);stroke-width:0.01" />
<line x1="0.422265" y1="0.267754" x2="-0.113244" y2="1.11228" style="stroke:rgb(246,147,147);stroke-width:0.01" />
<line x1="0.422265" y1="0.267754" x2="0.0772553" y2="0.34501" style="stroke:rgb(246,147,147);stroke-width:0.01" />
<line x1="0.49952" y1="0.612764" x2="0.231766" y2="1.03503" style="stroke:rgb(246,147,147);stroke-width:0.01" />
<line x1="-0.267754" y1="0.422265" x2="0.576775" y2="0.957774" style="stroke:rgb(246,147,147);stroke-width:0.01" />
<line x1="-0.190499" y1="0.767274" x2="0.231766" y2="1.03503" style="stroke:rgb(246,147,147);stroke-width:0.01" />
<line x1="0.49952" y1="0.612764" x2="-0.190499" y2="0.767274" style="stroke:rgb(246,147,147);stroke-width:0.01" />
<line x1="0.231766" y1="1.03503" x2="-0.113244" y2="1.11228" style="stroke:rgb(246,147,147);stroke-width:0.01" />
</g>
</svg>
