<svg xmlns="http://www.w3.org/2000/svg" viewBox="-1.5 -1.5 3 3">
<g transform="scale(1, -1)">
<path d="M0.047371 0.737034 L0.085269 1.193013 L0.221978 1.224176 L0.115186 1.388712 L0.116951 1.390465 L0.089759 1.427886 L-0.109799 1.290762 L-0.112946 1.272278 L-0.094414 1.277910 z " fill="rgb(245,195,195)" />
<path d="M0.000000 0.000000 L1.000000 0.000000 L1.000000 1.000000 L0.000000 1.000000  z" fill="none" stroke="rgb(128,128,128)" stroke-width="0.01" />
<line x1="0.0473711" y1="0.737034" x2="0.0979419" y2="1.3455" style="stroke:rgb(246,147,147);stroke-width:0.01" />
<line x1="-0.0281343" y1="1.24639" x2="-0.0344589" y2="1.34253" style="stroke:rgb(246,147,147);stroke-width:0.01" />
<line x1="0.0473711" y1="0.737034" x2="0.00982371" y2="1.37296" style="stroke:rgb(246,147,147);stroke-width:0.01" />
<line x1="0.0473711" y1="0.737034" x2="-0.0262138" y2="1.29119" style="stroke:rgb(246,147,147);stroke-width:0.01" />
<line x1="-0.00484376" y1="1.26952" x2="-0.0164331" y2="1.35492" style="stroke:rgb(246,147,147);stroke-width:0.01" />
<line x1="-0.112946" y1="1.27228" x2="-0.109799" y2="1.29076" style="stroke:rgb(246,147,147);stroke-width:0.01" />
<line x1="0.0473711" y1="0.737034" x2="-0.0996169" y2="1.29776" style="stroke:rgb(246,147,147);stroke-width:0.01" />
<line x1="0.0826938" y1="1.19243" x2="0.0372458" y2="1.3918" style="stroke:rgb(246,147,147);stroke-width:0.01" />
<line x1="0.0468227" y1="1.32083" x2="0.0775653" y2="1.41951" style="stroke:rgb(246,147,147);stroke-width:0.01" />
<line x1="0.0979419" y1="1.3455" x2="0.0775653" y2="1.41951" style="stroke:rgb(246,147,147);stroke-width:0.01" />
<line x1="-0.0281343" y1="1.24639" x2="-0.060864" y2="1.32439" style="stroke:rgb(246,147,147);stroke-width:0.01" />
<line x1="0.0712671" y1="1.3451" x2="0.0473848" y2="1.39877" style="stroke:rgb(246,147,147);stroke-width:0.01" />
<line x1="-0.0281343" y1="1.24639" x2="-0.0503565" y2="1.27602" style="stroke:rgb(246,147,147);stroke-width:0.01" />
<line x1="0.085621" y1="1.35935" x2="0.0557731" y2="1.40453" style="stroke:rgb(246,147,147);stroke-width:0.01" />
<line x1="0.221978" y1="1.22418" x2="0.0897595" y2="1.42789" style="stroke:rgb(246,147,147);stroke-width:0.01" />
<line x1="0.0979419" y1="1.3455" x2="0.0557731" y2="1.40453" style="stroke:rgb(246,147,147);stroke-width:0.01" />
<line x1="0.116951" y1="1.39046" x2="0.0897595" y2="1.42789" style="stroke:rgb(246,147,147);stroke-width:0.01" />
<line x1="-0.0281343" y1="1.24639" x2="0.116951" y2="1.39046" style="stroke:rgb(246,147,147);stroke-width:0.01" />
<line x1="-0.0262138" y1="1.29119" x2="-0.060864" y2="1.32439" style="stroke:rgb(246,147,147);stroke-width:0.01" />
<line x1="0.221978" y1="1.22418" x2="0.0473848" y2="1.39877" style="stroke:rgb(246,147,147);stroke-width:0.01" />
<line x1="-0.0281343" y1="1.24639" x2="-0.0996169" y2="1.29776" style="stroke:rgb(246,147,147);stroke-width:0.01" />
<line x1="-0.109799" y1="1.29076" x2="0.0897595" y2="1.42789" style="stroke:rgb(246,147,147);stroke-width:0.01" />
<line x1="0.116951" y1="1.39046" x2="0.0775653" y2="1.41951" style="stroke:rgb(246,147,147);stroke-width:0.01" />
<line x1="0.085621" y1="1.35935" x2="0.0372458" y2="1.3918" style="stroke:rgb(246,147,147);stroke-width:0.01" />
<line x1="0.221978" y1="1.22418" x2="-0.0164331" y2="1.35492" style="stroke:rgb(246,147,147);stroke-width:0.01" />
<line x1="-0.112946" y1="1.27228" x2="0.116951" y2="1.39046" style="stroke:rgb(246,147,147);stroke-width:0.01" />
<line x1="0.221978" y1="1.22418" x2="-0.0344589" y2="1.34253" style="stroke:rgb(246,147,147);stroke-width:0.01" />
<line x1="0.0826938" y1="1.19243" x2="0.221978" y2="1.22418" style="stroke:rgb(246,147,147);stroke-width:0.01" />
<line x1="0.0712671" y1="1.3451" x2="0.00982371" y2="1.37296" style="stroke:rgb(246,147,147);stroke-width:0.01" />
<line x1="-0.112946" y1="1.27228" x2="0.0468227" y2="1.32083" style="stroke:rgb(246,147,147);stroke-width:0.01" />
<line x1="0.221978" y1="1.22418" x2="-0.109799" y2="1.29076" style="stroke:rgb(246,147,147);stroke-width:0.01" />
<line x1="-0.00484376" y1="1.26952" x2="-0.0503565" y2="1.27602" style="stroke:rgb(246,147,147);stroke-width:0.01" />
<line x1="-0.0262138" y1="1.29119" x2="-0.0996169" y2="1.29776" style="stroke:rgb(246,147,147);stroke-width:0.01" />
</g>
</svg>
