<svg xmlns="http://www.w3.org/2000/svg" viewBox="-1.5 -1.5 3 3">
<g transform="scale(1, -1)">
<path d="M0.007443 -0.507659 L0.045340 -0.051680 L0.182050 -0.020517 L0.075257 0.144019 L0.077023 0.145772 L0.049831 0.183193 L-0.149727 0.046070 L-0.152874 0.027586 L-0.134342 0.033217 z " fill="rgb(245,195,195)" />
<path d="M-0.039928 -1.244693 L0.960072 -1.244693 L0.960072 -0.244693 L-0.039928 -0.244693  z" fill="none" stroke="rgb(128,128,128)" stroke-width="0.01" />
<line x1="0.00744273" y1="-0.507659" x2="0.0580136" y2="0.100804" style="stroke:rgb(246,147,147);stroke-width:0.01" />
<line x1="-0.0680626" y1="0.00170002" x2="-0.0743872" y2="0.0978384" style="stroke:rgb(246,147,147);stroke-width:0.01" />
<line x1="0.00744273" y1="-0.507659" x2="-0.0301046" y2="0.128267" style="stroke:rgb(246,147,147);stroke-width:0.01" />
<line x1="0.00744273" y1="-0.507659" x2="-0.0661421" y2="0.0464937" style="stroke:rgb(246,147,147);stroke-width:0.01" />
<line x1="-0.0447721" y1="0.0248278" x2="-0.0563615" y2="0.110225" style="stroke:rgb(246,147,147);stroke-width:0.01" />
<line x1="-0.152874" y1="0.0275856" x2="-0.149727" y2="0.0460696" style="stroke:rgb(246,147,147);stroke-width:0.01" />
<line x1="0.00744273" y1="-0.507659" x2="-0.139545" y2="0.053066" style="stroke:rgb(246,147,147);stroke-width:0.01" />
<line x1="0.0427654" y1="-0.052267" x2="-0.00268251" y2="0.147109" style="stroke:rgb(246,147,147);stroke-width:0.01" />
<line x1="0.00689438" y1="0.0761334" x2="0.037637" y2="0.174814" style="stroke:rgb(246,147,147);stroke-width:0.01" />
<line x1="0.0580136" y1="0.100804" x2="0.037637" y2="0.174814" style="stroke:rgb(246,147,147);stroke-width:0.01" />
<line x1="-0.0680626" y1="0.00170002" x2="-0.100792" y2="0.0796945" style="stroke:rgb(246,147,147);stroke-width:0.01" />
<line x1="0.0313388" y1="0.100407" x2="0.00745647" y2="0.154076" style="stroke:rgb(246,147,147);stroke-width:0.01" />
<line x1="-0.0680626" y1="0.00170002" x2="-0.0902848" y2="0.0313296" style="stroke:rgb(246,147,147);stroke-width:0.01" />
<line x1="0.0456927" y1="0.114661" x2="0.0158448" y2="0.15984" style="stroke:rgb(246,147,147);stroke-width:0.01" />
<line x1="0.18205" y1="-0.020517" x2="0.0498312" y2="0.183193" style="stroke:rgb(246,147,147);stroke-width:0.01" />
<line x1="0.0580136" y1="0.100804" x2="0.0158448" y2="0.15984" style="stroke:rgb(246,147,147);stroke-width:0.01" />
<line x1="0.0770226" y1="0.145772" x2="0.0498312" y2="0.183193" style="stroke:rgb(246,147,147);stroke-width:0.01" />
<line x1="-0.0680626" y1="0.00170002" x2="0.0770226" y2="0.145772" style="stroke:rgb(246,147,147);stroke-width:0.01" />
<line x1="-0.0661421" y1="0.0464937" x2="-0.100792" y2="0.0796945" style="stroke:rgb(246,147,147);stroke-width:0.01" />
<line x1="0.18205" y1="-0.020517" x2="0.00745647" y2="0.154076" style="stroke:rgb(246,147,147);stroke-width:0.01" />
<line x1="-0.0680626" y1="0.00170002" x2="-0.139545" y2="0.053066" style="stroke:rgb(246,147,147);stroke-width:0.01" />
<line x1="-0.149727" y1="0.0460696" x2="0.0498312" y2="0.183193" style="stroke:rgb(246,147,147);stroke-width:0.01" />
<line x1="0.0770226" y1="0.145772" x2="0.037637" y2="0.174814" style="stroke:rgb(246,147,147);stroke-width:0.01" />
<line x1="0.0456927" y1="0.114661" x2="-0.00268251" y2="0.147109" style="stroke:rgb(246,147,147);stroke-width:0.01" />
<line x1="0.18205" y1="-0.020517" x2="-0.0563615" y2="0.110225" style="stroke:rgb(246,147,147);stroke-width:0.01" />
<line x1="-0.152874" y1="0.0275856" x2="0.0770226" y2="0.145772" style="stroke:rgb(246,147,147);stroke-width:0.01" />
<line x1="0.18205" y1="-0.020517" x2="-0.0743872" y2="0.0978384" style="stroke:rgb(246,147,147);stroke-width:0.01" />
<line x1="0.0427654" y1="-0.052267" x2="0.18205" y2="-0.020517" style="stroke:rgb(246,147,147);stroke-width:0.01" />
<line x1="0.0313388" y1="0.100407" x2="-0.0301046" y2="0.128267" style="stroke:rgb(246,147,147);stroke-width:0.01" />
<line x1="-0.152874" y1="0.0275856" x2="0.00689438" y2="0.0761334" style="stroke:rgb(246,147,147);stroke-width:0.01" />
<line x1="0.18205" y1="-0.020517" x2="-0.149727" y2="0.0460696" style="stroke:rgb(246,147,147);stroke-width:0.01" />
<line x1="-0.0447721" y1="0.0248278" x2="-0.0902848" y2="0.0313296" style="stroke:rgb(246,147,147);stroke-width:0.01" />
<line x1="-0.0661421" y1="0.0464937" x2="-0.139545" y2="0.053066" style="stroke:rgb(246,147,147);stroke-width:0.01" />
</g>
</svg>
