<svg xmlns="http://www.w3.org/2000/svg" viewBox="-1.5 -1.5 3 3">
<g transform="scale(1, -1)">
<path d="M-0.206897 -0.378352 L0.146552 -0.369732 L0.318966 -0.188697 L0.310345 0.164751 L0.129310 0.337165 L-0.043103 0.156130 L-0.224138 0.328544 L-0.396552 0.147510 L-0.034483 -0.197318 z " fill="rgb(245,195,195)" />
<path d="M-0.043103 -0.343870 L0.956897 -0.343870 L0.956897 0.656130 L-0.043103 0.656130  z" fill="none" stroke="rgb(128,128,128)" stroke-width="0.01" />
<line x1="0.146552" y1="-0.369732" x2="0.318966" y2="-0.188697" style="stroke:rgb(246,147,147);stroke-width:0.01" />
<line x1="-0.206897" y1="-0.378352" x2="0.146552" y2="-0.369732" style="stroke:rgb(246,147,147);stroke-width:0.01" />
<line x1="-0.215517" y1="-0.0249042" x2="-0.224138" y2="0.328544" style="stroke:rgb(246,147,147);stroke-width:0.01" />
<line x1="0.146552" y1="-0.369732" x2="0.137931" y2="-0.0162835" style="stroke:rgb(246,147,147);stroke-width:0.01" />
<line x1="0.318966" y1="-0.188697" x2="0.310345" y2="0.164751" style="stroke:rgb(246,147,147);stroke-width:0.01" />
<line x1="-0.206897" y1="-0.378352" x2="0.310345" y2="0.164751" style="stroke:rgb(246,147,147);stroke-width:0.01" />
<line x1="0.146552" y1="-0.369732" x2="-0.396552" y2="0.14751" style="stroke:rgb(246,147,147);stroke-width:0.01" />
<line x1="0.142241" y1="-0.193008" x2="0.318966" y2="-0.188697" style="stroke:rgb(246,147,147);stroke-width:0.01" />
<line x1="0.142241" y1="-0.193008" x2="-0.310345" y2="0.238027" style="stroke:rgb(246,147,147);stroke-width:0.01" />
<line x1="-0.215517" y1="-0.0249042" x2="0.12931" y2="0.337165" style="stroke:rgb(246,147,147);stroke-width:0.01" />
<line x1="0.318966" y1="-0.188697" x2="-0.224138" y2="0.328544" style="stroke:rgb(246,147,147);stroke-width:0.01" />
<line x1="-0.215517" y1="-0.0249042" x2="0.137931" y2="-0.0162835" style="stroke:rgb(246,147,147);stroke-width:0.01" />
<line x1="-0.396552" y1="0.14751" x2="-0.224138" y2="0.328544" style="stroke:rgb(246,147,147);stroke-width:0.01" />
<line x1="0.310345" y1="0.164751" x2="0.12931" y2="0.337165" style="stroke:rgb(246,147,147);stroke-width:0.01" />
<line x1="-0.396552" y1="0.14751" x2="-0.0431034" y2="0.15613" style="stroke:rgb(246,147,147);stroke-width:0.01" />
</g>
</svg>
