<svg xmlns="http://www.w3.org/2000/svg" viewBox="-1.5 -1.5 3 3">
<g transform="scale(1, -1)">
<path d="M-0.163793 -0.034483 L0.189655 -0.025862 L0.362069 0.155172 L0.353448 0.508621 L0.172414 0.681034 L0.000000 0.500000 L-0.181034 0.672414 L-0.353448 0.491379 L0.008621 0.146552 z " fill="rgb(245,195,195)" />
<path d="M0.000000 0.000000 L1.000000 0.000000 L1.000000 1.000000 L0.000000 1.000000  z" fill="none" stroke="rgb(128,128,128)" stroke-width="0.01" />
<line x1="0.189655" y1="-0.0258621" x2="0.362069" y2="0.155172" style="stroke:rgb(246,147,147);stroke-width:0.01" />
<line x1="-0.163793" y1="-0.0344828" x2="0.189655" y2="-0.0258621" style="stroke:rgb(246,147,147);stroke-width:0.01" />
<line x1="-0.172414" y1="0.318966" x2="-0.181034" y2="0.672414" style="stroke:rgb(246,147,147);stroke-width:0.01" />
<line x1="0.189655" y1="-0.0258621" x2="0.181034" y2="0.327586" style="stroke:rgb(246,147,147);stroke-width:0.01" />
<line x1="0.362069" y1="0.155172" x2="0.353448" y2="0.508621" style="stroke:rgb(246,147,147);stroke-width:0.01" />
<line x1="-0.163793" y1="-0.0344828" x2="0.353448" y2="0.508621" style="stroke:rgb(246,147,147);stroke-width:0.01" />
<line x1="0.189655" y1="-0.0258621" x2="-0.353448" y2="0.491379" style="stroke:rgb(246,147,147);stroke-width:0.01" />
<line x1="0.185345" y1="0.150862" x2="0.362069" y2="0.155172" style="stroke:rgb(246,147,147);stroke-width:0.01" />
<line x1="0.185345" y1="0.150862" x2="-0.267241" y2="0.581897" style="stroke:rgb(246,147,147);stroke-width:0.01" />
<line x1="-0.172414" y1="0.318966" x2="0.172414" y2="0.681034" style="stroke:rgb(246,147,147);stroke-width:0.01" />
<line x1="0.362069" y1="0.155172" x2="-0.181034" y2="0.672414" style="stroke:rgb(246,147,147);stroke-width:0.01" />
<line x1="-0.172414" y1="0.318966" x2="0.181034" y2="0.327586" style="stroke:rgb(246,147,147);stroke-width:0.01" />
<line x1="-0.353448" y1="0.491379" x2="-0.181034" y2="0.672414" style="stroke:rgb(246,147,147);stroke-width:0.01" />
<line x1="0.353448" y1="0.508621" x2="0.172414" y2="0.681034" style="stroke:rgb(246,147,147);stroke-width:0.01" />
<line x1="-0.353448" y1="0.491379" x2="0" y2="0.5" style="stroke:rgb(246,147,147);stroke-width:0.01" />
</g>
</svg>
