<svg xmlns="http://www.w3.org/2000/svg" viewBox="-1.5 -1.5 3 3">
<g transform="scale(1, -1)">
<path d="M0.202988 -0.456942 L0.101494 -0.228471 L0.329965 -0.126977 L0.456942 0.202988 L0.228471 0.101494 L0.126977 0.329965 L-0.202988 0.456942 L-0.101494 0.228471 L-0.329965 0.126977 L-0.456942 -0.202988 L-0.228471 -0.101494 L-0.126977 -0.329965 z " fill="rgb(245,195,195)" />
<path d="M-0.253954 -0.659930 L0.746046 -0.659930 L0.746046 0.340070 L-0.253954 0.340070  z" fill="none" stroke="rgb(128,128,128)" stroke-width="0.01" />
<line x1="0.329965" y1="-0.126977" x2="0.456942" y2="0.202988" style="stroke:rgb(246,147,147);stroke-width:0.01" />
<line x1="-0.126977" y1="-0.329965" x2="0.126977" y2="0.329965" style="stroke:rgb(246,147,147);stroke-width:0.01" />
<line x1="-0.126977" y1="-0.329965" x2="-0.329965" y2="0.126977" style="stroke:rgb(246,147,147);stroke-width:0.01" />
<line x1="-0.456942" y1="-0.202988" x2="-0.329965" y2="0.126977" style="stroke:rgb(246,147,147);stroke-width:0.01" />
<line x1="0.202988" y1="-0.456942" x2="-0.202988" y2="0.456942" style="stroke:rgb(246,147,147);stroke-width:0.01" />
<line x1="-0.126977" y1="-0.329965" x2="0.329965" y2="-0.126977" style="stroke:rgb(246,147,147);stroke-width:0.01" />
<line x1="0.329965" y1="-0.126977" x2="0.126977" y2="0.329965" style="stroke:rgb(246,147,147);stroke-width:0.01" />
<line x1="0.202988" y1="-0.456942" x2="-0.126977" y2="-0.329965" style="stroke:rgb(246,147,147);stroke-width:0.01" />
<line x1="-0.456942" y1="-0.202988" x2="0.456942" y2="0.202988" style="stroke:rgb(246,147,147);stroke-width:0.01" />
<line x1="0.329965" y1="-0.126977" x2="-0.329965" y2="0.126977" style="stroke:rgb(246,147,147);stroke-width:0.01" />
<line x1="-0.329965" y1="0.126977" x2="0.126977" y2="0.329965" style="stroke:rgb(246,147,147);stroke-width:0.01" />
<line x1="0.126977" y1="0.329965" x2="-0.202988" y2="0.456942" style="stroke:rgb(246,147,147);stroke-width:0.01" />
</g>
</svg>
