<svg xmlns="http://www.w3.org/2000/svg" viewBox="-1.5 -1.5 3 3">
<g transform="scale(1, -1)">
<path d="M-0.103837 -0.516937 L0.052784 -0.496919 L0.157233 -0.349267 L0.254552 0.169769 L0.187474 0.182940 L0.172297 0.296596 L0.185047 0.333122 L0.166557 0.339576 L0.015751 0.216660 L0.016857 0.212236 L-0.231249 0.256564 L-0.323618 -0.073050 L-0.268999 -0.212094 L-0.280847 -0.359196 z " fill="rgb(245,195,195)" />
<path d="M-0.501797 -0.864092 L0.498203 -0.864092 L0.498203 0.135908 L-0.501797 0.135908  z" fill="none" stroke="rgb(128,128,128)" stroke-width="0.01" />
<line x1="0.0527841" y1="-0.496919" x2="0.157233" y2="-0.349267" style="stroke:rgb(246,147,147);stroke-width:0.01" />
<line x1="0.0270397" y1="-0.377497" x2="0.216403" y2="-0.0336936" style="stroke:rgb(246,147,147);stroke-width:0.01" />
<line x1="0.157233" y1="-0.349267" x2="0.254552" y2="0.169769" style="stroke:rgb(246,147,147);stroke-width:0.01" />
<line x1="0.0694358" y1="0.00192111" x2="0.185047" y2="0.333122" style="stroke:rgb(246,147,147);stroke-width:0.01" />
<line x1="-0.103837" y1="-0.516937" x2="-0.00179677" y2="-0.364092" style="stroke:rgb(246,147,147);stroke-width:0.01" />
<line x1="-0.280847" y1="-0.359196" x2="-0.231249" y2="0.256564" style="stroke:rgb(246,147,147);stroke-width:0.01" />
<line x1="-0.323618" y1="-0.0730496" x2="-0.231249" y2="0.256564" style="stroke:rgb(246,147,147);stroke-width:0.01" />
<line x1="0.216403" y1="-0.0336936" x2="0.166557" y2="0.339576" style="stroke:rgb(246,147,147);stroke-width:0.01" />
<line x1="0.0527841" y1="-0.496919" x2="0.0270397" y2="-0.377497" style="stroke:rgb(246,147,147);stroke-width:0.01" />
<line x1="-0.237964" y1="-0.291101" x2="-0.323618" y2="-0.0730496" style="stroke:rgb(246,147,147);stroke-width:0.01" />
<line x1="0.157233" y1="-0.349267" x2="0.0157509" y2="0.21666" style="stroke:rgb(246,147,147);stroke-width:0.01" />
<line x1="-0.280847" y1="-0.359196" x2="0.207608" y2="-0.0480706" style="stroke:rgb(246,147,147);stroke-width:0.01" />
<line x1="-0.103837" y1="-0.516937" x2="0.0527841" y2="-0.496919" style="stroke:rgb(246,147,147);stroke-width:0.01" />
<line x1="-0.103837" y1="-0.516937" x2="-0.280847" y2="-0.359196" style="stroke:rgb(246,147,147);stroke-width:0.01" />
<line x1="0.0157509" y1="0.21666" x2="0.166557" y2="0.339576" style="stroke:rgb(246,147,147);stroke-width:0.01" />
<line x1="-0.237964" y1="-0.291101" x2="0.200428" y2="-0.118892" style="stroke:rgb(246,147,147);stroke-width:0.01" />
<line x1="-0.323618" y1="-0.0730496" x2="0.0450066" y2="0.207207" style="stroke:rgb(246,147,147);stroke-width:0.01" />
<line x1="0.207608" y1="-0.0480706" x2="0.0450066" y2="0.207207" style="stroke:rgb(246,147,147);stroke-width:0.01" />
<line x1="0.0990973" y1="-0.43145" x2="0.0270397" y2="-0.377497" style="stroke:rgb(246,147,147);stroke-width:0.01" />
<line x1="0.0990973" y1="-0.43145" x2="-0.00179677" y2="-0.364092" style="stroke:rgb(246,147,147);stroke-width:0.01" />
<line x1="0.200428" y1="-0.118892" x2="0.0694358" y2="0.00192111" style="stroke:rgb(246,147,147);stroke-width:0.01" />
<line x1="0.254552" y1="0.169769" x2="-0.231249" y2="0.256564" style="stroke:rgb(246,147,147);stroke-width:0.01" />
<line x1="0.254552" y1="0.169769" x2="0.0157509" y2="0.21666" style="stroke:rgb(246,147,147);stroke-width:0.01" />
<line x1="0.185047" y1="0.333122" x2="0.166557" y2="0.339576" style="stroke:rgb(246,147,147);stroke-width:0.01" />
</g>
</svg>
