<svg xmlns="http://www.w3.org/2000/svg" viewBox="-1.5 -1.5 3 3">
<g transform="scale(1, -1)">
<path d="M0.397960 0.347155 L0.554581 0.367173 L0.659030 0.514825 L0.756349 1.033861 L0.689271 1.047033 L0.674093 1.160688 L0.686843 1.197214 L0.668354 1.203668 L0.517548 1.080753 L0.518654 1.076329 L0.270547 1.120657 L0.178178 0.791043 L0.232798 0.651998 L0.220949 0.504897 z " fill="rgb(245,195,195)" />
<path d="M0.000000 0.000000 L1.000000 0.000000 L1.000000 1.000000 L0.000000 1.000000  z" fill="none" stroke="rgb(128,128,128)" stroke-width="0.01" />
<line x1="0.554581" y1="0.367173" x2="0.65903" y2="0.514825" style="stroke:rgb(246,147,147);stroke-width:0.01" />
<line x1="0.528836" y1="0.486595" x2="0.7182" y2="0.830399" style="stroke:rgb(246,147,147);stroke-width:0.01" />
<line x1="0.65903" y1="0.514825" x2="0.756349" y2="1.03386" style="stroke:rgb(246,147,147);stroke-width:0.01" />
<line x1="0.571233" y1="0.866013" x2="0.686843" y2="1.19721" style="stroke:rgb(246,147,147);stroke-width:0.01" />
<line x1="0.39796" y1="0.347155" x2="0.5" y2="0.5" style="stroke:rgb(246,147,147);stroke-width:0.01" />
<line x1="0.220949" y1="0.504897" x2="0.270547" y2="1.12066" style="stroke:rgb(246,147,147);stroke-width:0.01" />
<line x1="0.178178" y1="0.791043" x2="0.270547" y2="1.12066" style="stroke:rgb(246,147,147);stroke-width:0.01" />
<line x1="0.7182" y1="0.830399" x2="0.668354" y2="1.20367" style="stroke:rgb(246,147,147);stroke-width:0.01" />
<line x1="0.554581" y1="0.367173" x2="0.528836" y2="0.486595" style="stroke:rgb(246,147,147);stroke-width:0.01" />
<line x1="0.263833" y1="0.572991" x2="0.178178" y2="0.791043" style="stroke:rgb(246,147,147);stroke-width:0.01" />
<line x1="0.65903" y1="0.514825" x2="0.517548" y2="1.08075" style="stroke:rgb(246,147,147);stroke-width:0.01" />
<line x1="0.220949" y1="0.504897" x2="0.709404" y2="0.816022" style="stroke:rgb(246,147,147);stroke-width:0.01" />
<line x1="0.39796" y1="0.347155" x2="0.554581" y2="0.367173" style="stroke:rgb(246,147,147);stroke-width:0.01" />
<line x1="0.39796" y1="0.347155" x2="0.220949" y2="0.504897" style="stroke:rgb(246,147,147);stroke-width:0.01" />
<line x1="0.517548" y1="1.08075" x2="0.668354" y2="1.20367" style="stroke:rgb(246,147,147);stroke-width:0.01" />
<line x1="0.263833" y1="0.572991" x2="0.702225" y2="0.7452" style="stroke:rgb(246,147,147);stroke-width:0.01" />
<line x1="0.178178" y1="0.791043" x2="0.546803" y2="1.0713" style="stroke:rgb(246,147,147);stroke-width:0.01" />
<line x1="0.709404" y1="0.816022" x2="0.546803" y2="1.0713" style="stroke:rgb(246,147,147);stroke-width:0.01" />
<line x1="0.600894" y1="0.432643" x2="0.528836" y2="0.486595" style="stroke:rgb(246,147,147);stroke-width:0.01" />
<line x1="0.600894" y1="0.432643" x2="0.5" y2="0.5" style="stroke:rgb(246,147,147);stroke-width:0.01" />
<line x1="0.702225" y1="0.7452" x2="0.571233" y2="0.866013" style="stroke:rgb(246,147,147);stroke-width:0.01" />
<line x1="0.756349" y1="1.03386" x2="0.270547" y2="1.12066" style="stroke:rgb(246,147,147);stroke-width:0.01" />
<line x1="0.756349" y1="1.03386" x2="0.517548" y2="1.08075" style="stroke:rgb(246,147,147);stroke-width:0.01" />
<line x1="0.686843" y1="1.19721" x2="0.668354" y2="1.20367" style="stroke:rgb(246,147,147);stroke-width:0.01" />
</g>
</svg>
