<svg xmlns="http://www.w3.org/2000/svg" viewBox="-1.5 -1.5 3 3">
<g transform="scale(1, -1)">
<path d="M0.080552 -0.493469 L0.040276 -0.246734 L0.287010 -0.206459 L0.493469 0.080552 L0.246734 0.040276 L0.206459 0.287010 L-0.080552 0.493469 L-0.040276 0.246734 L-0.287010 0.206459 L-0.493469 -0.080552 L-0.246734 -0.040276 L-0.206459 -0.287010 z " fill="rgb(245,195,195)" />
<path d="M-0.412917 -0.574020 L0.587083 -0.574020 L0.587083 0.425980 L-0.412917 0.425980  z" fill="none" stroke="rgb(128,128,128)" stroke-width="0.01" />
<line x1="0.28701" y1="-0.206459" x2="0.493469" y2="0.0805515" style="stroke:rgb(246,147,147);stroke-width:0.01" />
<line x1="-0.206459" y1="-0.28701" x2="0.206459" y2="0.28701" style="stroke:rgb(246,147,147);stroke-width:0.01" />
<line x1="-0.206459" y1="-0.28701" x2="-0.28701" y2="0.206459" style="stroke:rgb(246,147,147);stroke-width:0.01" />
<line x1="0.0805515" y1="-0.493469" x2="-0.0805515" y2="0.493469" style="stroke:rgb(246,147,147);stroke-width:0.01" />
<line x1="0.28701" y1="-0.206459" x2="0.206459" y2="0.28701" style="stroke:rgb(246,147,147);stroke-width:0.01" />
<line x1="-0.493469" y1="-0.0805515" x2="-0.28701" y2="0.206459" style="stroke:rgb(246,147,147);stroke-width:0.01" />
<line x1="-0.206459" y1="-0.28701" x2="0.28701" y2="-0.206459" style="stroke:rgb(246,147,147);stroke-width:0.01" />
<line x1="0.0805515" y1="-0.493469" x2="-0.206459" y2="-0.28701" style="stroke:rgb(246,147,147);stroke-width:0.01" />
<line x1="-0.493469" y1="-0.0805515" x2="0.493469" y2="0.0805515" style="stroke:rgb(246,147,147);stroke-width:0.01" />
<line x1="0.28701" y1="-0.206459" x2="-0.28701" y2="0.206459" style="stroke:rgb(246,147,147);stroke-width:0.01" />
<line x1="-0.28701" y1="0.206459" x2="0.206459" y2="0.28701" style="stroke:rgb(246,147,147);stroke-width:0.01" />
<line x1="0.206459" y1="0.28701" x2="-0.0805515" y2="0.493469" style="stroke:rgb(246,147,147);stroke-width:0.01" />
</g>
</svg>
