<svg xmlns="http://www.w3.org/2000/svg" viewBox="-1.5 -1.5 3 3">
<g transform="scale(1, -1)">
<path d="M0.493469 0.080552 L0.453193 0.327286 L0.699927 0.367562 L0.906386 0.654572 L0.659652 0.614296 L0.619376 0.861030 L0.332366 1.067489 L0.372642 0.820755 L0.125907 0.780479 L-0.080552 0.493469 L0.166183 0.533745 L0.206459 0.287010 z " fill="rgb(245,195,195)" />
<path d="M0.000000 0.000000 L1.000000 0.000000 L1.000000 1.000000 L0.000000 1.000000  z" fill="none" stroke="rgb(128,128,128)" stroke-width="0.01" />
<line x1="0.699927" y1="0.367562" x2="0.906386" y2="0.654572" style="stroke:rgb(246,147,147);stroke-width:0.01" />
<line x1="0.206459" y1="0.28701" x2="0.619376" y2="0.86103" style="stroke:rgb(246,147,147);stroke-width:0.01" />
<line x1="0.206459" y1="0.28701" x2="0.125907" y2="0.780479" style="stroke:rgb(246,147,147);stroke-width:0.01" />
<line x1="0.493469" y1="0.0805515" x2="0.332366" y2="1.06749" style="stroke:rgb(246,147,147);stroke-width:0.01" />
<line x1="0.699927" y1="0.367562" x2="0.619376" y2="0.86103" style="stroke:rgb(246,147,147);stroke-width:0.01" />
<line x1="-0.0805515" y1="0.493469" x2="0.125907" y2="0.780479" style="stroke:rgb(246,147,147);stroke-width:0.01" />
<line x1="0.206459" y1="0.28701" x2="0.699927" y2="0.367562" style="stroke:rgb(246,147,147);stroke-width:0.01" />
<line x1="0.493469" y1="0.0805515" x2="0.206459" y2="0.28701" style="stroke:rgb(246,147,147);stroke-width:0.01" />
<line x1="-0.0805515" y1="0.493469" x2="0.906386" y2="0.654572" style="stroke:rgb(246,147,147);stroke-width:0.01" />
<line x1="0.699927" y1="0.367562" x2="0.125907" y2="0.780479" style="stroke:rgb(246,147,147);stroke-width:0.01" />
<line x1="0.125907" y1="0.780479" x2="0.619376" y2="0.86103" style="stroke:rgb(246,147,147);stroke-width:0.01" />
<line x1="0.619376" y1="0.86103" x2="0.332366" y2="1.06749" style="stroke:rgb(246,147,147);stroke-width:0.01" />
</g>
</svg>
