<svg xmlns="http://www.w3.org/2000/svg" viewBox="-1.5 -1.5 3 3">
<g transform="scale(1, -1)">
<path d="M1.000000 0.307692 L1.267351 0.460001 L1.227767 0.529484 L1.846154 0.888889 L1.846154 1.000000 L1.651118 1.000000 L1.073806 1.328892 L0.923077 1.064313 L0.923077 0.352400 z " fill="rgb(245,195,195)" />
<path d="M0.000000 0.000000 L1.000000 0.000000 L1.000000 1.000000 L0.000000 1.000000  z" fill="none" stroke="rgb(128,128,128)" stroke-width="0.01" />
<line x1="1" y1="0.307692" x2="1.26735" y2="0.460001" style="stroke:rgb(246,147,147);stroke-width:0.01" />
<line x1="0.923077" y1="0.3524" x2="1.84615" y2="0.888889" style="stroke:rgb(246,147,147);stroke-width:0.01" />
<line x1="0.923077" y1="1.06431" x2="1.07381" y2="1.32889" style="stroke:rgb(246,147,147);stroke-width:0.01" />
<line x1="0.923077" y1="0.3524" x2="0.923077" y2="1.06431" style="stroke:rgb(246,147,147);stroke-width:0.01" />
<line x1="1" y1="0.307692" x2="1" y2="1" style="stroke:rgb(246,147,147);stroke-width:0.01" />
<line x1="1.84615" y1="0.888889" x2="1.84615" y2="1" style="stroke:rgb(246,147,147);stroke-width:0.01" />
<line x1="1.26735" y1="0.460001" x2="0.923077" y2="1.06431" style="stroke:rgb(246,147,147);stroke-width:0.01" />
<line x1="1" y1="0.307692" x2="0.923077" y2="0.3524" style="stroke:rgb(246,147,147);stroke-width:0.01" />
<line x1="0.923077" y1="1" x2="1.84615" y2="1" style="stroke:rgb(246,147,147);stroke-width:0.01" />
<line x1="1.84615" y1="0.888889" x2="1.07381" y2="1.32889" style="stroke:rgb(246,147,147);stroke-width:0.01" />
</g>
</svg>
