<svg xmlns="http://www.w3.org/2000/svg" viewBox="-1.5 -1.5 3 3">
<g transform="scale(1, -1)">
<path d="M-0.346154 -0.100000 L0.346154 -0.100000 L0.346154 0.100000 L-0.346154 0.100000 z " fill="rgb(245,195,195)" />
<path d="M-1.205128 -0.300000 L-0.205128 -0.300000 L-0.205128 0.700000 L-1.205128 0.700000  z" fill="none" stroke="rgb(128,128,128)" stroke-width="0.01" />
<line x1="-0.346154" y1="-0.1" x2="-0.346154" y2="0.1" style="stroke:rgb(246,147,147);stroke-width:0.01" />
<line x1="-0.0384615" y1="-0.1" x2="-0.0384615" y2="0.1" style="stroke:rgb(246,147,147);stroke-width:0.01" />
<line x1="0.346154" y1="-0.1" x2="0.346154" y2="0.1" style="stroke:rgb(246,147,147);stroke-width:0.01" />
<line x1="-0.346154" y1="-0.1" x2="0.346154" y2="-0.1" style="stroke:rgb(246,147,147);stroke-width:0.01" />
<line x1="-0.346154" y1="-0.05" x2="0.346154" y2="-0.05" style="stroke:rgb(246,147,147);stroke-width:0.01" />
<line x1="-0.346154" y1="-0.025" x2="0.346154" y2="-0.025" style="stroke:rgb(246,147,147);stroke-width:0.01" />
<line x1="-0.346154" y1="0.0333333" x2="0.346154" y2="0.0333333" style="stroke:rgb(246,147,147);stroke-width:0.01" />
<line x1="-0.346154" y1="0.075" x2="0.346154" y2="0.075" style="stroke:rgb(246,147,147);stroke-width:0.01" />
<line x1="-0.346154" y1="0.0833333" x2="0.346154" y2="0.0833333" style="stroke:rgb(246,147,147);stroke-width:0.01" />
<line x1="-0.346154" y1="0.0958333" x2="0.346154" y2="0.0958333" style="stroke:rgb(246,147,147);stroke-width:0.01" />
<line x1="-0.346154" y1="0.1" x2="0.346154" y2="0.1" style="stroke:rgb(246,147,147);stroke-width:0.01" />
</g>
</svg>
