<svg xmlns="http://www.w3.org/2000/svg" viewBox="-1.5 -1.5 3 3">
<g transform="scale(1, -1)">
<path d="M0.858974 0.200000 L1.551282 0.200000 L1.551282 0.400000 L0.858974 0.400000 z " fill="rgb(245,195,195)" />
<path d="M0.000000 0.000000 L1.000000 0.000000 L1.000000 1.000000 L0.000000 1.000000  z" fill="none" stroke="rgb(128,128,128)" stroke-width="0.01" />
<line x1="0.858974" y1="0.2" x2="0.858974" y2="0.4" style="stroke:rgb(246,147,147);stroke-width:0.01" />
<line x1="1.16667" y1="0.2" x2="1.16667" y2="0.4" style="stroke:rgb(246,147,147);stroke-width:0.01" />
<line x1="1.55128" y1="0.2" x2="1.55128" y2="0.4" style="stroke:rgb(246,147,147);stroke-width:0.01" />
<line x1="0.858974" y1="0.2" x2="1.55128" y2="0.2" style="stroke:rgb(246,147,147);stroke-width:0.01" />
<line x1="0.858974" y1="0.25" x2="1.55128" y2="0.25" style="stroke:rgb(246,147,147);stroke-width:0.01" />
<line x1="0.858974" y1="0.275" x2="1.55128" y2="0.275" style="stroke:rgb(246,147,147);stroke-width:0.01" />
<line x1="0.858974" y1="0.333333" x2="1.55128" y2="0.333333" style="stroke:rgb(246,147,147);stroke-width:0.01" />
<line x1="0.858974" y1="0.375" x2="1.55128" y2="0.375" style="stroke:rgb(246,147,147);stroke-width:0.01" />
<line x1="0.858974" y1="0.383333" x2="1.55128" y2="0.383333" style="stroke:rgb(246,147,147);stroke-width:0.01" />
<line x1="0.858974" y1="0.395833" x2="1.55128" y2="0.395833" style="stroke:rgb(246,147,147);stroke-width:0.01" />
<line x1="0.858974" y1="0.4" x2="1.55128" y2="0.4" style="stroke:rgb(246,147,147);stroke-width:0.01" />
</g>
</svg>
