<svg xmlns="http://www.w3.org/2000/svg" viewBox="-1.5 -1.5 3 3">
<g transform="scale(1, -1)">
<path d="M0.083333 0.100000 L0.500000 0.100000 L0.500000 0.300000 L0.083333 0.300000 z " fill="rgb(245,195,195)" />
<path d="M0.000000 0.000000 L1.000000 0.000000 L1.000000 1.000000 L0.000000 1.000000  z" fill="none" stroke="rgb(128,128,128)" stroke-width="0.01" />
<line x1="0.0833333" y1="0.1" x2="0.0833333" y2="0.3" style="stroke:rgb(246,147,147);stroke-width:0.01" />
<line x1="0.166667" y1="0.1" x2="0.166667" y2="0.3" style="stroke:rgb(246,147,147);stroke-width:0.01" />
<line x1="0.25" y1="0.1" x2="0.25" y2="0.3" style="stroke:rgb(246,147,147);stroke-width:0.01" />
<line x1="0.285714" y1="0.1" x2="0.285714" y2="0.3" style="stroke:rgb(246,147,147);stroke-width:0.01" />
<line x1="0.357143" y1="0.1" x2="0.357143" y2="0.3" style="stroke:rgb(246,147,147);stroke-width:0.01" />
<line x1="0.5" y1="0.1" x2="0.5" y2="0.3" style="stroke:rgb(246,147,147);stroke-width:0.01" />
<line x1="0.0833333" y1="0.1" x2="0.5" y2="0.1" style="stroke:rgb(246,147,147);stroke-width:0.01" />
<line x1="0.0833333" y1="0.133333" x2="0.5" y2="0.133333" style="stroke:rgb(246,147,147);stroke-width:0.01" />
<line x1="0.0833333" y1="0.2" x2="0.5" y2="0.2" style="stroke:rgb(246,147,147);stroke-width:0.01" />
<line x1="0.0833333" y1="0.25" x2="0.5" y2="0.25" style="stroke:rgb(246,147,147);stroke-width:0.01" />
<line x1="0.0833333" y1="0.266667" x2="0.5" y2="0.266667" style="stroke:rgb(246,147,147);stroke-width:0.01" />
<line x1="0.0833333" y1="0.3" x2="0.5" y2="0.3" style="stroke:rgb(246,147,147);stroke-width:0.01" />
</g>
</svg>
