<svg xmlns="http://www.w3.org/2000/svg" viewBox="-1.5 -1.5 3 3">
<g transform="scale(1, -1)">
<path d="M-0.208333 -0.100000 L0.208333 -0.100000 L0.208333 0.100000 L-0.208333 0.100000 z " fill="rgb(245,195,195)" />
<path d="M-0.291667 -0.200000 L0.708333 -0.200000 L0.708333 0.800000 L-0.291667 0.800000  z" fill="none" stroke="rgb(128,128,128)" stroke-width="0.01" />
<line x1="-0.208333" y1="-0.1" x2="-0.208333" y2="0.1" style="stroke:rgb(246,147,147);stroke-width:0.01" />
<line x1="-0.125" y1="-0.1" x2="-0.125" y2="0.1" style="stroke:rgb(246,147,147);stroke-width:0.01" />
<line x1="-0.0416667" y1="-0.1" x2="-0.0416667" y2="0.1" style="stroke:rgb(246,147,147);stroke-width:0.01" />
<line x1="-0.00595238" y1="-0.1" x2="-0.00595238" y2="0.1" style="stroke:rgb(246,147,147);stroke-width:0.01" />
<line x1="0.0654762" y1="-0.1" x2="0.0654762" y2="0.1" style="stroke:rgb(246,147,147);stroke-width:0.01" />
<line x1="0.208333" y1="-0.1" x2="0.208333" y2="0.1" style="stroke:rgb(246,147,147);stroke-width:0.01" />
<line x1="-0.208333" y1="-0.1" x2="0.208333" y2="-0.1" style="stroke:rgb(246,147,147);stroke-width:0.01" />
<line x1="-0.208333" y1="-0.0666667" x2="0.208333" y2="-0.0666667" style="stroke:rgb(246,147,147);stroke-width:0.01" />
<line x1="-0.208333" y1="0" x2="0.208333" y2="0" style="stroke:rgb(246,147,147);stroke-width:0.01" />
<line x1="-0.208333" y1="0.05" x2="0.208333" y2="0.05" style="stroke:rgb(246,147,147);stroke-width:0.01" />
<line x1="-0.208333" y1="0.0666667" x2="0.208333" y2="0.0666667" style="stroke:rgb(246,147,147);stroke-width:0.01" />
<line x1="-0.208333" y1="0.1" x2="0.208333" y2="0.1" style="stroke:rgb(246,147,147);stroke-width:0.01" />
</g>
</svg>
