<svg xmlns="http://www.w3.org/2000/svg" viewBox="-1.5 -1.5 3 3">
<g transform="scale(1, -1)">
<path d="M0.025624 -0.499343 L0.012812 -0.249671 L0.262484 -0.236859 L0.499343 0.025624 L0.249671 0.012812 L0.236859 0.262484 L-0.025624 0.499343 L-0.012812 0.249671 L-0.262484 0.236859 L-0.499343 -0.025624 L-0.249671 -0.012812 L-0.236859 -0.262484 z " fill="rgb(245,195,195)" />
<path d="M-0.473719 -0.524967 L0.526281 -0.524967 L0.526281 0.475033 L-0.473719 0.475033  z" fill="none" stroke="rgb(128,128,128)" stroke-width="0.01" />
<line x1="0.262484" y1="-0.236859" x2="0.499343" y2="0.0256242" style="stroke:rgb(246,147,147);stroke-width:0.01" />
<line x1="-0.236859" y1="-0.262484" x2="0.236859" y2="0.262484" style="stroke:rgb(246,147,147);stroke-width:0.01" />
<line x1="-0.236859" y1="-0.262484" x2="-0.262484" y2="0.236859" style="stroke:rgb(246,147,147);stroke-width:0.01" />
<line x1="0.0256242" y1="-0.499343" x2="-0.0256242" y2="0.499343" style="stroke:rgb(246,147,147);stroke-width:0.01" />
<line x1="0.262484" y1="-0.236859" x2="0.236859" y2="0.262484" style="stroke:rgb(246,147,147);stroke-width:0.01" />
<line x1="-0.499343" y1="-0.0256242" x2="-0.262484" y2="0.236859" style="stroke:rgb(246,147,147);stroke-width:0.01" />
<line x1="-0.236859" y1="-0.262484" x2="0.262484" y2="-0.236859" style="stroke:rgb(246,147,147);stroke-width:0.01" />
<line x1="0.0256242" y1="-0.499343" x2="-0.236859" y2="-0.262484" style="stroke:rgb(246,147,147);stroke-width:0.01" />
<line x1="-0.499343" y1="-0.0256242" x2="0.499343" y2="0.0256242" style="stroke:rgb(246,147,147);stroke-width:0.01" />
<line x1="0.262484" y1="-0.236859" x2="-0.262484" y2="0.236859" style="stroke:rgb(246,147,147);stroke-width:0.01" />
<line x1="-0.262484" y1="0.236859" x2="0.236859" y2="0.262484" style="stroke:rgb(246,147,147);stroke-width:0.01" />
<line x1="0.236859" y1="0.262484" x2="-0.0256242" y2="0.499343" style="stroke:rgb(246,147,147);stroke-width:0.01" />
</g>
</svg>
