<svg xmlns="http://www.w3.org/2000/svg" viewBox="-1.5 -1.5 3 3">
<g transform="scale(1, -1)">
<path d="M0.499343 0.025624 L0.486531 0.275296 L0.736202 0.288108 L0.973062 0.550591 L0.723390 0.537779 L0.710578 0.787451 L0.448095 1.024310 L0.460907 0.774639 L0.211235 0.761827 L-0.025624 0.499343 L0.224047 0.512155 L0.236859 0.262484 z " fill="rgb(245,195,195)" />
<path d="M0.000000 0.000000 L1.000000 0.000000 L1.000000 1.000000 L0.000000 1.000000  z" fill="none" stroke="rgb(128,128,128)" stroke-width="0.01" />
<line x1="0.736202" y1="0.288108" x2="0.973062" y2="0.550591" style="stroke:rgb(246,147,147);stroke-width:0.01" />
<line x1="0.236859" y1="0.262484" x2="0.710578" y2="0.787451" style="stroke:rgb(246,147,147);stroke-width:0.01" />
<line x1="0.236859" y1="0.262484" x2="0.211235" y2="0.761827" style="stroke:rgb(246,147,147);stroke-width:0.01" />
<line x1="0.499343" y1="0.0256242" x2="0.448095" y2="1.02431" style="stroke:rgb(246,147,147);stroke-width:0.01" />
<line x1="0.736202" y1="0.288108" x2="0.710578" y2="0.787451" style="stroke:rgb(246,147,147);stroke-width:0.01" />
<line x1="-0.0256242" y1="0.499343" x2="0.211235" y2="0.761827" style="stroke:rgb(246,147,147);stroke-width:0.01" />
<line x1="0.236859" y1="0.262484" x2="0.736202" y2="0.288108" style="stroke:rgb(246,147,147);stroke-width:0.01" />
<line x1="0.499343" y1="0.0256242" x2="0.236859" y2="0.262484" style="stroke:rgb(246,147,147);stroke-width:0.01" />
<line x1="-0.0256242" y1="0.499343" x2="0.973062" y2="0.550591" style="stroke:rgb(246,147,147);stroke-width:0.01" />
<line x1="0.736202" y1="0.288108" x2="0.211235" y2="0.761827" style="stroke:rgb(246,147,147);stroke-width:0.01" />
<line x1="0.211235" y1="0.761827" x2="0.710578" y2="0.787451" style="stroke:rgb(246,147,147);stroke-width:0.01" />
<line x1="0.710578" y1="0.787451" x2="0.448095" y2="1.02431" style="stroke:rgb(246,147,147);stroke-width:0.01" />
</g>
</svg>
