<svg xmlns="http://www.w3.org/2000/svg" viewBox="-1.5 -1.5 3 3">
<g transform="scale(1, -1)">
<path d="M0.680000 -1.040000 L0.720000 -1.010000 L0.629145 -0.533010 L0.886574 -0.465077 L0.951381 -0.275868 L0.549127 0.031037 L0.526095 0.008000 L0.335793 -0.610422 L0.495984 -0.794645 z " fill="rgb(245,195,195)" />
<path d="M0.000000 0.000000 L1.000000 0.000000 L1.000000 1.000000 L0.000000 1.000000  z" fill="none" stroke="rgb(128,128,128)" stroke-width="0.01" />
<line x1="0.68" y1="-1.04" x2="0.72" y2="-1.01" style="stroke:rgb(246,147,147);stroke-width:0.01" />
<line x1="0.72" y1="-1.01" x2="0.671772" y2="-0.996805" style="stroke:rgb(246,147,147);stroke-width:0.01" />
<line x1="0.335793" y1="-0.610422" x2="0.886574" y2="-0.465077" style="stroke:rgb(246,147,147);stroke-width:0.01" />
<line x1="0.3422" y1="-0.5896" x2="0.755586" y2="-0.447893" style="stroke:rgb(246,147,147);stroke-width:0.01" />
<line x1="0.78601" y1="-0.388351" x2="0.951381" y2="-0.275868" style="stroke:rgb(246,147,147);stroke-width:0.01" />
<line x1="0.886574" y1="-0.465077" x2="0.951381" y2="-0.275868" style="stroke:rgb(246,147,147);stroke-width:0.01" />
<line x1="0.526095" y1="0.008" x2="0.549127" y2="0.0310371" style="stroke:rgb(246,147,147);stroke-width:0.01" />
<line x1="0.538462" y1="-0.107692" x2="0.547686" y2="-0.10535" style="stroke:rgb(246,147,147);stroke-width:0.01" />
<line x1="0.523082" y1="-0.00179366" x2="0.527619" y2="0" style="stroke:rgb(246,147,147);stroke-width:0.01" />
<line x1="0.488891" y1="-0.112901" x2="0.547686" y2="-0.10535" style="stroke:rgb(246,147,147);stroke-width:0.01" />
<line x1="0.335793" y1="-0.610422" x2="0.526095" y2="0.008" style="stroke:rgb(246,147,147);stroke-width:0.01" />
<line x1="0.671772" y1="-0.996805" x2="0.335793" y2="-0.610422" style="stroke:rgb(246,147,147);stroke-width:0.01" />
<line x1="0.68" y1="-1.04" x2="0.3422" y2="-0.5896" style="stroke:rgb(246,147,147);stroke-width:0.01" />
<line x1="0.523633" y1="0" x2="0.527619" y2="0" style="stroke:rgb(246,147,147);stroke-width:0.01" />
<line x1="0.671772" y1="-0.996805" x2="0.577143" y2="-0.26" style="stroke:rgb(246,147,147);stroke-width:0.01" />
<line x1="0.72" y1="-1.01" x2="0.526095" y2="0.008" style="stroke:rgb(246,147,147);stroke-width:0.01" />
<line x1="0.577143" y1="-0.26" x2="0.538462" y2="-0.107692" style="stroke:rgb(246,147,147);stroke-width:0.01" />
<line x1="0.886574" y1="-0.465077" x2="0.488891" y2="-0.112901" style="stroke:rgb(246,147,147);stroke-width:0.01" />
<line x1="0.755586" y1="-0.447893" x2="0.625878" y2="-0.0695077" style="stroke:rgb(246,147,147);stroke-width:0.01" />
<line x1="0.78601" y1="-0.388351" x2="0.523082" y2="-0.00179366" style="stroke:rgb(246,147,147);stroke-width:0.01" />
<line x1="0.625878" y1="-0.0695077" x2="0.523633" y2="0" style="stroke:rgb(246,147,147);stroke-width:0.01" />
<line x1="0.625878" y1="-0.0695077" x2="0.549127" y2="0.0310371" style="stroke:rgb(246,147,147);stroke-width:0.01" />
<line x1="0.951381" y1="-0.275868" x2="0.549127" y2="0.0310371" style="stroke:rgb(246,147,147);stroke-width:0.01" />
</g>
</svg>
