<svg xmlns="http://www.w3.org/2000/svg" viewBox="-1.5 -1.5 3 3">
<g transform="scale(1, -1)">
<path d="M0.038434 -0.518890 L0.078434 -0.488890 L-0.012422 -0.011900 L0.245007 0.056032 L0.309815 0.245241 L-0.092440 0.552147 L-0.115471 0.529110 L-0.305774 -0.089313 L-0.145583 -0.273536 z " fill="rgb(245,195,195)" />
<path d="M-0.641566 0.521110 L0.358434 0.521110 L0.358434 1.521110 L-0.641566 1.521110  z" fill="none" stroke="rgb(128,128,128)" stroke-width="0.01" />
<line x1="0.0384335" y1="-0.51889" x2="0.0784335" y2="-0.48889" style="stroke:rgb(246,147,147);stroke-width:0.01" />
<line x1="0.0784335" y1="-0.48889" x2="0.0302059" y2="-0.475696" style="stroke:rgb(246,147,147);stroke-width:0.01" />
<line x1="-0.305774" y1="-0.0893127" x2="0.245007" y2="0.0560323" style="stroke:rgb(246,147,147);stroke-width:0.01" />
<line x1="-0.299366" y1="-0.0684906" x2="0.11402" y2="0.0732162" style="stroke:rgb(246,147,147);stroke-width:0.01" />
<line x1="0.144444" y1="0.132759" x2="0.309815" y2="0.245241" style="stroke:rgb(246,147,147);stroke-width:0.01" />
<line x1="0.245007" y1="0.0560323" x2="0.309815" y2="0.245241" style="stroke:rgb(246,147,147);stroke-width:0.01" />
<line x1="-0.115471" y1="0.52911" x2="-0.0924399" y2="0.552147" style="stroke:rgb(246,147,147);stroke-width:0.01" />
<line x1="-0.103105" y1="0.413417" x2="-0.0938808" y2="0.41576" style="stroke:rgb(246,147,147);stroke-width:0.01" />
<line x1="-0.118485" y1="0.519316" x2="-0.113947" y2="0.52111" style="stroke:rgb(246,147,147);stroke-width:0.01" />
<line x1="-0.152675" y1="0.408209" x2="-0.0938808" y2="0.41576" style="stroke:rgb(246,147,147);stroke-width:0.01" />
<line x1="-0.305774" y1="-0.0893127" x2="-0.115471" y2="0.52911" style="stroke:rgb(246,147,147);stroke-width:0.01" />
<line x1="0.0302059" y1="-0.475696" x2="-0.305774" y2="-0.0893127" style="stroke:rgb(246,147,147);stroke-width:0.01" />
<line x1="0.0384335" y1="-0.51889" x2="-0.299366" y2="-0.0684906" style="stroke:rgb(246,147,147);stroke-width:0.01" />
<line x1="-0.117933" y1="0.52111" x2="-0.113947" y2="0.52111" style="stroke:rgb(246,147,147);stroke-width:0.01" />
<line x1="0.0302059" y1="-0.475696" x2="-0.0644236" y2="0.26111" style="stroke:rgb(246,147,147);stroke-width:0.01" />
<line x1="0.0784335" y1="-0.48889" x2="-0.115471" y2="0.52911" style="stroke:rgb(246,147,147);stroke-width:0.01" />
<line x1="-0.0644236" y1="0.26111" x2="-0.103105" y2="0.413417" style="stroke:rgb(246,147,147);stroke-width:0.01" />
<line x1="0.245007" y1="0.0560323" x2="-0.152675" y2="0.408209" style="stroke:rgb(246,147,147);stroke-width:0.01" />
<line x1="0.11402" y1="0.0732162" x2="-0.0156887" y2="0.451602" style="stroke:rgb(246,147,147);stroke-width:0.01" />
<line x1="0.144444" y1="0.132759" x2="-0.118485" y2="0.519316" style="stroke:rgb(246,147,147);stroke-width:0.01" />
<line x1="-0.0156887" y1="0.451602" x2="-0.117933" y2="0.52111" style="stroke:rgb(246,147,147);stroke-width:0.01" />
<line x1="-0.0156887" y1="0.451602" x2="-0.0924399" y2="0.552147" style="stroke:rgb(246,147,147);stroke-width:0.01" />
<line x1="0.309815" y1="0.245241" x2="-0.0924399" y2="0.552147" style="stroke:rgb(246,147,147);stroke-width:0.01" />
</g>
</svg>
