<svg xmlns="http://www.w3.org/2000/svg" viewBox="-1.5 -1.5 3 3">
<g transform="scale(1, -1)">
<path d="M-0.177778 0.000000 L0.111111 0.000000 L0.111111 0.333333 L-0.177778 0.333333 z " fill="rgb(245,195,195)" />
<path d="M0.000000 0.000000 L1.000000 0.000000 L1.000000 1.000000 L0.000000 1.000000  z" fill="none" stroke="rgb(128,128,128)" stroke-width="0.01" />
<line x1="-0.177778" y1="0" x2="-0.177778" y2="0.333333" style="stroke:rgb(246,147,147);stroke-width:0.01" />
<line x1="-0.116239" y1="0" x2="-0.116239" y2="0.333333" style="stroke:rgb(246,147,147);stroke-width:0.01" />
<line x1="-0.177778" y1="0" x2="0.111111" y2="0" style="stroke:rgb(246,147,147);stroke-width:0.01" />
<line x1="0" y1="0" x2="0" y2="0.333333" style="stroke:rgb(246,147,147);stroke-width:0.01" />
<line x1="0.0769231" y1="0" x2="0.0769231" y2="0.333333" style="stroke:rgb(246,147,147);stroke-width:0.01" />
<line x1="0.111111" y1="0" x2="0.111111" y2="0.333333" style="stroke:rgb(246,147,147);stroke-width:0.01" />
<line x1="-0.177778" y1="0.0166667" x2="0.111111" y2="0.0166667" style="stroke:rgb(246,147,147);stroke-width:0.01" />
<line x1="-0.177778" y1="0.0416667" x2="0.111111" y2="0.0416667" style="stroke:rgb(246,147,147);stroke-width:0.01" />
<line x1="-0.177778" y1="0.116667" x2="0.111111" y2="0.116667" style="stroke:rgb(246,147,147);stroke-width:0.01" />
<line x1="-0.177778" y1="0.166667" x2="0.111111" y2="0.166667" style="stroke:rgb(246,147,147);stroke-width:0.01" />
<line x1="-0.177778" y1="0.333333" x2="0.111111" y2="0.333333" style="stroke:rgb(246,147,147);stroke-width:0.01" />
</g>
</svg>
