<svg xmlns="http://www.w3.org/2000/svg" viewBox="-1.5 -1.5 3 3">
<g transform="scale(1, -1)">
<path d="M-0.144444 -0.166667 L0.144444 -0.166667 L0.144444 0.166667 L-0.144444 0.166667 z " fill="rgb(245,195,195)" />
<path d="M0.033333 -0.166667 L1.033333 -0.166667 L1.033333 0.833333 L0.033333 0.833333  z" fill="none" stroke="rgb(128,128,128)" stroke-width="0.01" />
<line x1="-0.144444" y1="-0.166667" x2="-0.144444" y2="0.166667" style="stroke:rgb(246,147,147);stroke-width:0.01" />
<line x1="-0.082906" y1="-0.166667" x2="-0.082906" y2="0.166667" style="stroke:rgb(246,147,147);stroke-width:0.01" />
<line x1="-0.144444" y1="-0.166667" x2="0.144444" y2="-0.166667" style="stroke:rgb(246,147,147);stroke-width:0.01" />
<line x1="0.0333333" y1="-0.166667" x2="0.0333333" y2="0.166667" style="stroke:rgb(246,147,147);stroke-width:0.01" />
<line x1="0.110256" y1="-0.166667" x2="0.110256" y2="0.166667" style="stroke:rgb(246,147,147);stroke-width:0.01" />
<line x1="0.144444" y1="-0.166667" x2="0.144444" y2="0.166667" style="stroke:rgb(246,147,147);stroke-width:0.01" />
<line x1="-0.144444" y1="-0.15" x2="0.144444" y2="-0.15" style="stroke:rgb(246,147,147);stroke-width:0.01" />
<line x1="-0.144444" y1="-0.125" x2="0.144444" y2="-0.125" style="stroke:rgb(246,147,147);stroke-width:0.01" />
<line x1="-0.144444" y1="-0.05" x2="0.144444" y2="-0.05" style="stroke:rgb(246,147,147);stroke-width:0.01" />
<line x1="-0.144444" y1="0" x2="0.144444" y2="0" style="stroke:rgb(246,147,147);stroke-width:0.01" />
<line x1="-0.144444" y1="0.166667" x2="0.144444" y2="0.166667" style="stroke:rgb(246,147,147);stroke-width:0.01" />
</g>
</svg>
