<svg xmlns="http://www.w3.org/2000/svg" viewBox="-1.5 -1.5 3 3">
<g transform="scale(1, -1)">
<path d="M0.256410 0.000000 L0.461538 0.000000 L0.461538 0.142857 L0.256410 0.142857 z " fill="rgb(245,195,195)" />
<path d="M0.000000 0.000000 L1.000000 0.000000 L1.000000 1.000000 L0.000000 1.000000  z" fill="none" stroke="rgb(128,128,128)" stroke-width="0.01" />
<line x1="0.25641" y1="0" x2="0.461538" y2="0" style="stroke:rgb(246,147,147);stroke-width:0.01" />
<line x1="0.25641" y1="0" x2="0.25641" y2="0.142857" style="stroke:rgb(246,147,147);stroke-width:0.01" />
<line x1="0.333333" y1="0" x2="0.333333" y2="0.142857" style="stroke:rgb(246,147,147);stroke-width:0.01" />
<line x1="0.339744" y1="0" x2="0.339744" y2="0.142857" style="stroke:rgb(246,147,147);stroke-width:0.01" />
<line x1="0.423077" y1="0" x2="0.423077" y2="0.142857" style="stroke:rgb(246,147,147);stroke-width:0.01" />
<line x1="0.461538" y1="0" x2="0.461538" y2="0.142857" style="stroke:rgb(246,147,147);stroke-width:0.01" />
<line x1="0.25641" y1="0.0534466" x2="0.461538" y2="0.0534466" style="stroke:rgb(246,147,147);stroke-width:0.01" />
<line x1="0.25641" y1="0.0989011" x2="0.461538" y2="0.0989011" style="stroke:rgb(246,147,147);stroke-width:0.01" />
<line x1="0.25641" y1="0.115385" x2="0.461538" y2="0.115385" style="stroke:rgb(246,147,147);stroke-width:0.01" />
<line x1="0.25641" y1="0.128372" x2="0.461538" y2="0.128372" style="stroke:rgb(246,147,147);stroke-width:0.01" />
<line x1="0.25641" y1="0.142857" x2="0.461538" y2="0.142857" style="stroke:rgb(246,147,147);stroke-width:0.01" />
</g>
</svg>
