<svg xmlns="http://www.w3.org/2000/svg" viewBox="-1.5 -1.5 3 3">
<g transform="scale(1, -1)">
<path d="M-0.102564 -0.071429 L0.102564 -0.071429 L0.102564 0.071429 L-0.102564 0.071429 z " fill="rgb(245,195,195)" />
<path d="M-0.358974 -0.071429 L0.641026 -0.071429 L0.641026 0.928571 L-0.358974 0.928571  z" fill="none" stroke="rgb(128,128,128)" stroke-width="0.01" />
<line x1="-0.102564" y1="-0.0714286" x2="0.102564" y2="-0.0714286" style="stroke:rgb(246,147,147);stroke-width:0.01" />
<line x1="-0.102564" y1="-0.0714286" x2="-0.102564" y2="0.0714286" style="stroke:rgb(246,147,147);stroke-width:0.01" />
<line x1="-0.025641" y1="-0.0714286" x2="-0.025641" y2="0.0714286" style="stroke:rgb(246,147,147);stroke-width:0.01" />
<line x1="-0.0192308" y1="-0.0714286" x2="-0.0192308" y2="0.0714286" style="stroke:rgb(246,147,147);stroke-width:0.01" />
<line x1="0.0641026" y1="-0.0714286" x2="0.0641026" y2="0.0714286" style="stroke:rgb(246,147,147);stroke-width:0.01" />
<line x1="0.102564" y1="-0.0714286" x2="0.102564" y2="0.0714286" style="stroke:rgb(246,147,147);stroke-width:0.01" />
<line x1="-0.102564" y1="-0.017982" x2="0.102564" y2="-0.017982" style="stroke:rgb(246,147,147);stroke-width:0.01" />
<line x1="-0.102564" y1="0.0274725" x2="0.102564" y2="0.0274725" style="stroke:rgb(246,147,147);stroke-width:0.01" />
<line x1="-0.102564" y1="0.043956" x2="0.102564" y2="0.043956" style="stroke:rgb(246,147,147);stroke-width:0.01" />
<line x1="-0.102564" y1="0.0569431" x2="0.102564" y2="0.0569431" style="stroke:rgb(246,147,147);stroke-width:0.01" />
<line x1="-0.102564" y1="0.0714286" x2="0.102564" y2="0.0714286" style="stroke:rgb(246,147,147);stroke-width:0.01" />
</g>
</svg>
