<svg xmlns="http://www.w3.org/2000/svg" viewBox="-1.5 -1.5 3 3">
<g transform="scale(1, -1)">
<path d="M0.250000 0.070513 L0.571429 0.070513 L0.571429 0.437500 L0.250000 0.437500 z " fill="rgb(245,195,195)" />
<path d="M0.000000 0.000000 L1.000000 0.000000 L1.000000 1.000000 L0.000000 1.000000  z" fill="none" stroke="rgb(128,128,128)" stroke-width="0.01" />
<line x1="0.25" y1="0.0705128" x2="0.25" y2="0.4375" style="stroke:rgb(246,147,147);stroke-width:0.01" />
<line x1="0.333333" y1="0.0705128" x2="0.333333" y2="0.4375" style="stroke:rgb(246,147,147);stroke-width:0.01" />
<line x1="0.357143" y1="0.0705128" x2="0.357143" y2="0.4375" style="stroke:rgb(246,147,147);stroke-width:0.01" />
<line x1="0.380952" y1="0.0705128" x2="0.380952" y2="0.4375" style="stroke:rgb(246,147,147);stroke-width:0.01" />
<line x1="0.409524" y1="0.0705128" x2="0.409524" y2="0.4375" style="stroke:rgb(246,147,147);stroke-width:0.01" />
<line x1="0.466667" y1="0.0705128" x2="0.466667" y2="0.4375" style="stroke:rgb(246,147,147);stroke-width:0.01" />
<line x1="0.571429" y1="0.0705128" x2="0.571429" y2="0.4375" style="stroke:rgb(246,147,147);stroke-width:0.01" />
<line x1="0.25" y1="0.0705128" x2="0.571429" y2="0.0705128" style="stroke:rgb(246,147,147);stroke-width:0.01" />
<line x1="0.25" y1="0.224359" x2="0.571429" y2="0.224359" style="stroke:rgb(246,147,147);stroke-width:0.01" />
<line x1="0.25" y1="0.25" x2="0.571429" y2="0.25" style="stroke:rgb(246,147,147);stroke-width:0.01" />
<line x1="0.25" y1="0.317308" x2="0.571429" y2="0.317308" style="stroke:rgb(246,147,147);stroke-width:0.01" />
<line x1="0.25" y1="0.4375" x2="0.571429" y2="0.4375" style="stroke:rgb(246,147,147);stroke-width:0.01" />
</g>
</svg>
