<svg xmlns="http://www.w3.org/2000/svg" viewBox="-1.5 -1.5 3 3">
<g transform="scale(1, -1)">
<path d="M-0.160714 -0.183494 L0.160714 -0.183494 L0.160714 0.183494 L-0.160714 0.183494 z " fill="rgb(245,195,195)" />
<path d="M-0.410714 -0.254006 L0.589286 -0.254006 L0.589286 0.745994 L-0.410714 0.745994  z" fill="none" stroke="rgb(128,128,128)" stroke-width="0.01" />
<line x1="-0.160714" y1="-0.183494" x2="-0.160714" y2="0.183494" style="stroke:rgb(246,147,147);stroke-width:0.01" />
<line x1="-0.077381" y1="-0.183494" x2="-0.077381" y2="0.183494" style="stroke:rgb(246,147,147);stroke-width:0.01" />
<line x1="-0.0535714" y1="-0.183494" x2="-0.0535714" y2="0.183494" style="stroke:rgb(246,147,147);stroke-width:0.01" />
<line x1="-0.0297619" y1="-0.183494" x2="-0.0297619" y2="0.183494" style="stroke:rgb(246,147,147);stroke-width:0.01" />
<line x1="-0.00119048" y1="-0.183494" x2="-0.00119048" y2="0.183494" style="stroke:rgb(246,147,147);stroke-width:0.01" />
<line x1="0.0559524" y1="-0.183494" x2="0.0559524" y2="0.183494" style="stroke:rgb(246,147,147);stroke-width:0.01" />
<line x1="0.160714" y1="-0.183494" x2="0.160714" y2="0.183494" style="stroke:rgb(246,147,147);stroke-width:0.01" />
<line x1="-0.160714" y1="-0.183494" x2="0.160714" y2="-0.183494" style="stroke:rgb(246,147,147);stroke-width:0.01" />
<line x1="-0.160714" y1="-0.0296474" x2="0.160714" y2="-0.0296474" style="stroke:rgb(246,147,147);stroke-width:0.01" />
<line x1="-0.160714" y1="-0.00400641" x2="0.160714" y2="-0.00400641" style="stroke:rgb(246,147,147);stroke-width:0.01" />
<line x1="-0.160714" y1="0.0633013" x2="0.160714" y2="0.0633013" style="stroke:rgb(246,147,147);stroke-width:0.01" />
<line x1="-0.160714" y1="0.183494" x2="0.160714" y2="0.183494" style="stroke:rgb(246,147,147);stroke-width:0.01" />
</g>
</svg>
