<svg xmlns="http://www.w3.org/2000/svg" viewBox="-1.5 -1.5 3 3">
<g transform="scale(1, -1)">
<path d="M-0.100000 -0.079327 L0.100000 -0.079327 L0.100000 0.079327 L-0.100000 0.079327 z " fill="rgb(245,195,195)" />
<path d="M-0.300000 -0.391827 L0.700000 -0.391827 L0.700000 0.608173 L-0.300000 0.608173  z" fill="none" stroke="rgb(128,128,128)" stroke-width="0.01" />
<line x1="-0.1" y1="-0.0793269" x2="-0.1" y2="0.0793269" style="stroke:rgb(246,147,147);stroke-width:0.01" />
<line x1="0" y1="-0.0793269" x2="0" y2="0.0793269" style="stroke:rgb(246,147,147);stroke-width:0.01" />
<line x1="0.0142857" y1="-0.0793269" x2="0.0142857" y2="0.0793269" style="stroke:rgb(246,147,147);stroke-width:0.01" />
<line x1="0.0428571" y1="-0.0793269" x2="0.0428571" y2="0.0793269" style="stroke:rgb(246,147,147);stroke-width:0.01" />
<line x1="0.1" y1="-0.0793269" x2="0.1" y2="0.0793269" style="stroke:rgb(246,147,147);stroke-width:0.01" />
<line x1="-0.1" y1="-0.0793269" x2="0.1" y2="-0.0793269" style="stroke:rgb(246,147,147);stroke-width:0.01" />
<line x1="-0.1" y1="-0.0745192" x2="0.1" y2="-0.0745192" style="stroke:rgb(246,147,147);stroke-width:0.01" />
<line x1="-0.1" y1="-0.0621566" x2="0.1" y2="-0.0621566" style="stroke:rgb(246,147,147);stroke-width:0.01" />
<line x1="-0.1" y1="0.0587225" x2="0.1" y2="0.0587225" style="stroke:rgb(246,147,147);stroke-width:0.01" />
<line x1="-0.1" y1="0.0683379" x2="0.1" y2="0.0683379" style="stroke:rgb(246,147,147);stroke-width:0.01" />
<line x1="-0.1" y1="0.0793269" x2="0.1" y2="0.0793269" style="stroke:rgb(246,147,147);stroke-width:0.01" />
</g>
</svg>
