<svg xmlns="http://www.w3.org/2000/svg" viewBox="-1.5 -1.5 3 3">
<g transform="scale(1, -1)">
<path d="M0.200000 0.312500 L0.400000 0.312500 L0.400000 0.471154 L0.200000 0.471154 z " fill="rgb(245,195,195)" />
<path d="M0.000000 0.000000 L1.000000 0.000000 L1.000000 1.000000 L0.000000 1.000000  z" fill="none" stroke="rgb(128,128,128)" stroke-width="0.01" />
<line x1="0.2" y1="0.3125" x2="0.2" y2="0.471154" style="stroke:rgb(246,147,147);stroke-width:0.01" />
<line x1="0.3" y1="0.3125" x2="0.3" y2="0.471154" style="stroke:rgb(246,147,147);stroke-width:0.01" />
<line x1="0.314286" y1="0.3125" x2="0.314286" y2="0.471154" style="stroke:rgb(246,147,147);stroke-width:0.01" />
<line x1="0.342857" y1="0.3125" x2="0.342857" y2="0.471154" style="stroke:rgb(246,147,147);stroke-width:0.01" />
<line x1="0.4" y1="0.3125" x2="0.4" y2="0.471154" style="stroke:rgb(246,147,147);stroke-width:0.01" />
<line x1="0.2" y1="0.3125" x2="0.4" y2="0.3125" style="stroke:rgb(246,147,147);stroke-width:0.01" />
<line x1="0.2" y1="0.317308" x2="0.4" y2="0.317308" style="stroke:rgb(246,147,147);stroke-width:0.01" />
<line x1="0.2" y1="0.32967" x2="0.4" y2="0.32967" style="stroke:rgb(246,147,147);stroke-width:0.01" />
<line x1="0.2" y1="0.450549" x2="0.4" y2="0.450549" style="stroke:rgb(246,147,147);stroke-width:0.01" />
<line x1="0.2" y1="0.460165" x2="0.4" y2="0.460165" style="stroke:rgb(246,147,147);stroke-width:0.01" />
<line x1="0.2" y1="0.471154" x2="0.4" y2="0.471154" style="stroke:rgb(246,147,147);stroke-width:0.01" />
</g>
</svg>
