<svg xmlns="http://www.w3.org/2000/svg" viewBox="-1.5 -1.5 3 3">
<g transform="scale(1, -1)">
<path d="M-0.642026 -0.441262 L-0.542034 -0.439941 L0.443076 0.092927 L0.452391 0.101668 L0.436387 0.169814 L0.343671 0.148039 L0.279903 0.189736 L0.219567 0.132365 L-0.039587 0.306749 L-0.305759 -0.088810 L-0.645590 -0.171285 z " fill="rgb(245,195,195)" />
<path d="M-0.565200 -0.782336 L0.434800 -0.782336 L0.434800 0.217664 L-0.565200 0.217664  z" fill="none" stroke="rgb(128,128,128)" stroke-width="0.01" />
<line x1="0.148529" y1="-0.0664001" x2="0.200748" y2="0.114471" style="stroke:rgb(246,147,147);stroke-width:0.01" />
<line x1="0.384282" y1="0.0611241" x2="0.423681" y2="0.110369" style="stroke:rgb(246,147,147);stroke-width:0.01" />
<line x1="0.443076" y1="0.0929272" x2="0.452391" y2="0.101668" style="stroke:rgb(246,147,147);stroke-width:0.01" />
<line x1="-0.642026" y1="-0.441262" x2="-0.64559" y2="-0.171285" style="stroke:rgb(246,147,147);stroke-width:0.01" />
<line x1="-0.5652" y1="-0.332336" x2="-0.5652" y2="-0.282336" style="stroke:rgb(246,147,147);stroke-width:0.01" />
<line x1="0.4348" y1="0.0884506" x2="0.4348" y2="0.0909187" style="stroke:rgb(246,147,147);stroke-width:0.01" />
<line x1="0.351661" y1="0.0434788" x2="0.351302" y2="0.0706543" style="stroke:rgb(246,147,147);stroke-width:0.01" />
<line x1="-0.526311" y1="-0.323169" x2="-0.466287" y2="-0.127769" style="stroke:rgb(246,147,147);stroke-width:0.01" />
<line x1="-0.17158" y1="-0.239554" x2="0.279903" y2="0.189736" style="stroke:rgb(246,147,147);stroke-width:0.01" />
<line x1="-0.5652" y1="-0.332336" x2="-0.64559" y2="-0.171285" style="stroke:rgb(246,147,147);stroke-width:0.01" />
<line x1="-0.542034" y1="-0.439941" x2="-0.0395871" y2="0.306749" style="stroke:rgb(246,147,147);stroke-width:0.01" />
<line x1="-0.299049" y1="-0.29879" x2="-0.0112205" y2="-0.0173276" style="stroke:rgb(246,147,147);stroke-width:0.01" />
<line x1="-0.526311" y1="-0.323169" x2="-0.5652" y2="-0.282336" style="stroke:rgb(246,147,147);stroke-width:0.01" />
<line x1="-0.542034" y1="-0.439941" x2="0.443076" y2="0.0929272" style="stroke:rgb(246,147,147);stroke-width:0.01" />
<line x1="0.452391" y1="0.101668" x2="0.436387" y2="0.169814" style="stroke:rgb(246,147,147);stroke-width:0.01" />
<line x1="-0.642026" y1="-0.441262" x2="-0.542034" y2="-0.439941" style="stroke:rgb(246,147,147);stroke-width:0.01" />
<line x1="-0.299049" y1="-0.29879" x2="-0.466287" y2="-0.127769" style="stroke:rgb(246,147,147);stroke-width:0.01" />
<line x1="-0.5652" y1="-0.332336" x2="-0.17158" y2="-0.239554" style="stroke:rgb(246,147,147);stroke-width:0.01" />
<line x1="-0.5652" y1="-0.282336" x2="0.264779" y2="0.0496558" style="stroke:rgb(246,147,147);stroke-width:0.01" />
<line x1="0.36206" y1="0.0491036" x2="0.351302" y2="0.0706543" style="stroke:rgb(246,147,147);stroke-width:0.01" />
<line x1="0.435796" y1="0.088989" x2="0.4348" y2="0.0909187" style="stroke:rgb(246,147,147);stroke-width:0.01" />
<line x1="-0.64559" y1="-0.171285" x2="0.443076" y2="0.0929272" style="stroke:rgb(246,147,147);stroke-width:0.01" />
<line x1="0.36206" y1="0.0491036" x2="0.279903" y2="0.189736" style="stroke:rgb(246,147,147);stroke-width:0.01" />
<line x1="0.435796" y1="0.088989" x2="0.423681" y2="0.110369" style="stroke:rgb(246,147,147);stroke-width:0.01" />
<line x1="0.200748" y1="0.114471" x2="0.436387" y2="0.169814" style="stroke:rgb(246,147,147);stroke-width:0.01" />
<line x1="0.264779" y1="0.0496558" x2="0.384282" y2="0.0611241" style="stroke:rgb(246,147,147);stroke-width:0.01" />
<line x1="0.148529" y1="-0.0664001" x2="-0.0112205" y2="-0.0173276" style="stroke:rgb(246,147,147);stroke-width:0.01" />
<line x1="0.351661" y1="0.0434788" x2="-0.0395871" y2="0.306749" style="stroke:rgb(246,147,147);stroke-width:0.01" />
<line x1="0.4348" y1="0.0884506" x2="0.279903" y2="0.189736" style="stroke:rgb(246,147,147);stroke-width:0.01" />
<line x1="0.452391" y1="0.101668" x2="0.423681" y2="0.110369" style="stroke:rgb(246,147,147);stroke-width:0.01" />
</g>
</svg>
