<svg xmlns="http://www.w3.org/2000/svg" viewBox="-1.5 -1.5 3 3">
<g transform="scale(1, -1)">
<path d="M-0.370583 -0.374285 L-0.360728 -0.346302 L0.475571 -0.203344 L0.475571 0.241100 L0.319050 0.241100 L0.291030 0.320666 L0.065101 0.241100 L-0.447506 0.241100 L-0.447506 -0.361135 z " fill="rgb(245,195,195)" />
<path d="M-1.370583 -0.758900 L-0.370583 -0.758900 L-0.370583 0.241100 L-1.370583 0.241100  z" fill="none" stroke="rgb(128,128,128)" stroke-width="0.01" />
<line x1="-0.370583" y1="-0.374285" x2="-0.242824" y2="-0.0115084" style="stroke:rgb(246,147,147);stroke-width:0.01" />
<line x1="-0.447506" y1="-0.361135" x2="-0.447506" y2="0.2411" style="stroke:rgb(246,147,147);stroke-width:0.01" />
<line x1="-0.370583" y1="-0.374285" x2="-0.370583" y2="0.2411" style="stroke:rgb(246,147,147);stroke-width:0.01" />
<line x1="0.475571" y1="-0.203344" x2="0.475571" y2="0.2411" style="stroke:rgb(246,147,147);stroke-width:0.01" />
<line x1="-0.447506" y1="-0.361135" x2="0.475571" y2="-0.203344" style="stroke:rgb(246,147,147);stroke-width:0.01" />
<line x1="-0.447506" y1="0.0605748" x2="0.29103" y2="0.320666" style="stroke:rgb(246,147,147);stroke-width:0.01" />
<line x1="-0.370583" y1="-0.374285" x2="-0.447506" y2="-0.361135" style="stroke:rgb(246,147,147);stroke-width:0.01" />
<line x1="0.475571" y1="-0.203344" x2="0.29103" y2="0.320666" style="stroke:rgb(246,147,147);stroke-width:0.01" />
<line x1="-0.447506" y1="0.2411" x2="0.475571" y2="0.2411" style="stroke:rgb(246,147,147);stroke-width:0.01" />
<line x1="-0.242824" y1="-0.0115084" x2="-0.447506" y2="0.0605748" style="stroke:rgb(246,147,147);stroke-width:0.01" />
</g>
</svg>
