<svg xmlns="http://www.w3.org/2000/svg" viewBox="-1.5 -1.5 3 3">
<g transform="scale(1, -1)">
<path d="M-0.491011 0.094382 L-0.443820 0.339888 L-0.198315 0.292697 L0.094382 0.491011 L-0.151124 0.538202 L-0.103933 0.783708 L-0.302247 1.076404 L-0.349438 0.830899 L-0.594944 0.878090 L-0.887640 0.679775 L-0.642135 0.632584 L-0.689326 0.387079 z " fill="rgb(245,195,195)" />
<path d="M0.000000 0.000000 L1.000000 0.000000 L1.000000 1.000000 L0.000000 1.000000  z" fill="none" stroke="rgb(128,128,128)" stroke-width="0.01" />
<line x1="-0.491011" y1="0.094382" x2="-0.689326" y2="0.387079" style="stroke:rgb(246,147,147);stroke-width:0.01" />
<line x1="-0.198315" y1="0.292697" x2="-0.594944" y2="0.87809" style="stroke:rgb(246,147,147);stroke-width:0.01" />
<line x1="-0.198315" y1="0.292697" x2="-0.103933" y2="0.783708" style="stroke:rgb(246,147,147);stroke-width:0.01" />
<line x1="-0.491011" y1="0.094382" x2="-0.302247" y2="1.0764" style="stroke:rgb(246,147,147);stroke-width:0.01" />
<line x1="-0.689326" y1="0.387079" x2="-0.594944" y2="0.87809" style="stroke:rgb(246,147,147);stroke-width:0.01" />
<line x1="-0.103933" y1="0.783708" x2="-0.302247" y2="1.0764" style="stroke:rgb(246,147,147);stroke-width:0.01" />
<line x1="-0.198315" y1="0.292697" x2="-0.689326" y2="0.387079" style="stroke:rgb(246,147,147);stroke-width:0.01" />
<line x1="-0.198315" y1="0.292697" x2="0.094382" y2="0.491011" style="stroke:rgb(246,147,147);stroke-width:0.01" />
<line x1="0.094382" y1="0.491011" x2="-0.88764" y2="0.679775" style="stroke:rgb(246,147,147);stroke-width:0.01" />
<line x1="-0.689326" y1="0.387079" x2="-0.103933" y2="0.783708" style="stroke:rgb(246,147,147);stroke-width:0.01" />
<line x1="-0.103933" y1="0.783708" x2="-0.594944" y2="0.87809" style="stroke:rgb(246,147,147);stroke-width:0.01" />
<line x1="-0.88764" y1="0.679775" x2="-0.594944" y2="0.87809" style="stroke:rgb(246,147,147);stroke-width:0.01" />
</g>
</svg>
