<svg xmlns="http://www.w3.org/2000/svg" viewBox="-1.5 -1.5 3 3">
<g transform="scale(1, -1)">
<path d="M-0.094382 -0.491011 L-0.047191 -0.245506 L0.198315 -0.292697 L0.491011 -0.094382 L0.245506 -0.047191 L0.292697 0.198315 L0.094382 0.491011 L0.047191 0.245506 L-0.198315 0.292697 L-0.491011 0.094382 L-0.245506 0.047191 L-0.292697 -0.198315 z " fill="rgb(245,195,195)" />
<path d="M0.396629 -0.585393 L1.396629 -0.585393 L1.396629 0.414607 L0.396629 0.414607  z" fill="none" stroke="rgb(128,128,128)" stroke-width="0.01" />
<line x1="-0.094382" y1="-0.491011" x2="-0.292697" y2="-0.198315" style="stroke:rgb(246,147,147);stroke-width:0.01" />
<line x1="0.198315" y1="-0.292697" x2="-0.198315" y2="0.292697" style="stroke:rgb(246,147,147);stroke-width:0.01" />
<line x1="0.198315" y1="-0.292697" x2="0.292697" y2="0.198315" style="stroke:rgb(246,147,147);stroke-width:0.01" />
<line x1="-0.094382" y1="-0.491011" x2="0.094382" y2="0.491011" style="stroke:rgb(246,147,147);stroke-width:0.01" />
<line x1="-0.292697" y1="-0.198315" x2="-0.198315" y2="0.292697" style="stroke:rgb(246,147,147);stroke-width:0.01" />
<line x1="0.292697" y1="0.198315" x2="0.094382" y2="0.491011" style="stroke:rgb(246,147,147);stroke-width:0.01" />
<line x1="0.198315" y1="-0.292697" x2="-0.292697" y2="-0.198315" style="stroke:rgb(246,147,147);stroke-width:0.01" />
<line x1="0.198315" y1="-0.292697" x2="0.491011" y2="-0.094382" style="stroke:rgb(246,147,147);stroke-width:0.01" />
<line x1="0.491011" y1="-0.094382" x2="-0.491011" y2="0.094382" style="stroke:rgb(246,147,147);stroke-width:0.01" />
<line x1="-0.292697" y1="-0.198315" x2="0.292697" y2="0.198315" style="stroke:rgb(246,147,147);stroke-width:0.01" />
<line x1="0.292697" y1="0.198315" x2="-0.198315" y2="0.292697" style="stroke:rgb(246,147,147);stroke-width:0.01" />
<line x1="-0.491011" y1="0.094382" x2="-0.198315" y2="0.292697" style="stroke:rgb(246,147,147);stroke-width:0.01" />
</g>
</svg>
