<svg xmlns="http://www.w3.org/2000/svg" viewBox="-1.5 -1.5 3 3">
<g transform="scale(1, -1)">
<path d="M-0.183807 -0.464989 L-0.091904 -0.232495 L0.140591 -0.324398 L0.464989 -0.183807 L0.232495 -0.091904 L0.324398 0.140591 L0.183807 0.464989 L0.091904 0.232495 L-0.140591 0.324398 L-0.464989 0.183807 L-0.232495 0.091904 L-0.324398 -0.140591 z " fill="rgb(245,195,195)" />
<path d="M0.281182 -0.648796 L1.281182 -0.648796 L1.281182 0.351204 L0.281182 0.351204  z" fill="none" stroke="rgb(128,128,128)" stroke-width="0.01" />
<line x1="-0.183807" y1="-0.464989" x2="-0.324398" y2="-0.140591" style="stroke:rgb(246,147,147);stroke-width:0.01" />
<line x1="0.140591" y1="-0.324398" x2="-0.140591" y2="0.324398" style="stroke:rgb(246,147,147);stroke-width:0.01" />
<line x1="0.140591" y1="-0.324398" x2="0.324398" y2="0.140591" style="stroke:rgb(246,147,147);stroke-width:0.01" />
<line x1="0.324398" y1="0.140591" x2="0.183807" y2="0.464989" style="stroke:rgb(246,147,147);stroke-width:0.01" />
<line x1="-0.183807" y1="-0.464989" x2="0.183807" y2="0.464989" style="stroke:rgb(246,147,147);stroke-width:0.01" />
<line x1="0.140591" y1="-0.324398" x2="-0.324398" y2="-0.140591" style="stroke:rgb(246,147,147);stroke-width:0.01" />
<line x1="-0.324398" y1="-0.140591" x2="-0.140591" y2="0.324398" style="stroke:rgb(246,147,147);stroke-width:0.01" />
<line x1="0.140591" y1="-0.324398" x2="0.464989" y2="-0.183807" style="stroke:rgb(246,147,147);stroke-width:0.01" />
<line x1="0.464989" y1="-0.183807" x2="-0.464989" y2="0.183807" style="stroke:rgb(246,147,147);stroke-width:0.01" />
<line x1="-0.324398" y1="-0.140591" x2="0.324398" y2="0.140591" style="stroke:rgb(246,147,147);stroke-width:0.01" />
<line x1="0.324398" y1="0.140591" x2="-0.140591" y2="0.324398" style="stroke:rgb(246,147,147);stroke-width:0.01" />
<line x1="-0.464989" y1="0.183807" x2="-0.140591" y2="0.324398" style="stroke:rgb(246,147,147);stroke-width:0.01" />
</g>
</svg>
