<svg xmlns="http://www.w3.org/2000/svg" viewBox="-1.5 -1.5 3 3">
<g transform="scale(1, -1)">
<path d="M0.114831 -0.546006 L0.227364 -0.504337 L0.161458 0.537611 L-0.228164 0.628135 L-0.281882 0.396931 L0.006392 -0.512334 z " fill="rgb(245,195,195)" />
<path d="M-0.062839 -0.422334 L0.937161 -0.422334 L0.937161 0.577666 L-0.062839 0.577666  z" fill="none" stroke="rgb(128,128,128)" stroke-width="0.01" />
<line x1="0.114831" y1="-0.546006" x2="0.227364" y2="-0.504337" style="stroke:rgb(246,147,147);stroke-width:0.01" />
<line x1="0.00639166" y1="-0.512334" x2="0.0756224" y2="-0.422334" style="stroke:rgb(246,147,147);stroke-width:0.01" />
<line x1="0.114831" y1="-0.546006" x2="0.00639166" y2="-0.512334" style="stroke:rgb(246,147,147);stroke-width:0.01" />
<line x1="-0.0139167" y1="-0.448278" x2="0.0604012" y2="-0.364979" style="stroke:rgb(246,147,147);stroke-width:0.01" />
<line x1="-0.0221419" y1="-0.422334" x2="0.0111212" y2="-0.398886" style="stroke:rgb(246,147,147);stroke-width:0.01" />
<line x1="0.227364" y1="-0.504337" x2="-0.0139167" y2="-0.448278" style="stroke:rgb(246,147,147);stroke-width:0.01" />
<line x1="-0.0221419" y1="-0.422334" x2="0.0756224" y2="-0.422334" style="stroke:rgb(246,147,147);stroke-width:0.01" />
<line x1="-0.153302" y1="-0.00863073" x2="-0.14433" y2="0.0960176" style="stroke:rgb(246,147,147);stroke-width:0.01" />
<line x1="0.00639166" y1="-0.512334" x2="-0.281882" y2="0.396931" style="stroke:rgb(246,147,147);stroke-width:0.01" />
<line x1="0.227364" y1="-0.504337" x2="0.161458" y2="0.537611" style="stroke:rgb(246,147,147);stroke-width:0.01" />
<line x1="-0.00169735" y1="-0.258251" x2="-0.0362425" y2="-0.101099" style="stroke:rgb(246,147,147);stroke-width:0.01" />
<line x1="-0.0523066" y1="-0.32719" x2="-0.00169735" y2="-0.258251" style="stroke:rgb(246,147,147);stroke-width:0.01" />
<line x1="0.0756224" y1="-0.422334" x2="-0.108185" y2="0.270275" style="stroke:rgb(246,147,147);stroke-width:0.01" />
<line x1="-0.161" y1="0.0156487" x2="-0.14433" y2="0.0960176" style="stroke:rgb(246,147,147);stroke-width:0.01" />
<line x1="0.114831" y1="-0.546006" x2="0.0111212" y2="-0.398886" style="stroke:rgb(246,147,147);stroke-width:0.01" />
<line x1="-0.0895529" y1="-0.209708" x2="-0.0738779" y2="-0.177422" style="stroke:rgb(246,147,147);stroke-width:0.01" />
<line x1="-0.14433" y1="0.0960176" x2="-0.098341" y2="0.23318" style="stroke:rgb(246,147,147);stroke-width:0.01" />
<line x1="-0.104503" y1="-0.162554" x2="-0.0588554" y2="-0.0799382" style="stroke:rgb(246,147,147);stroke-width:0.01" />
<line x1="0.0604012" y1="-0.364979" x2="-0.0523066" y2="-0.32719" style="stroke:rgb(246,147,147);stroke-width:0.01" />
<line x1="-0.281882" y1="0.396931" x2="-0.228164" y2="0.628135" style="stroke:rgb(246,147,147);stroke-width:0.01" />
<line x1="-0.0812083" y1="-0.0942999" x2="-0.153302" y2="-0.00863073" style="stroke:rgb(246,147,147);stroke-width:0.01" />
<line x1="-0.00169735" y1="-0.258251" x2="-0.0895529" y2="-0.209708" style="stroke:rgb(246,147,147);stroke-width:0.01" />
<line x1="-0.242608" y1="0.324518" x2="-0.215468" y2="0.391776" style="stroke:rgb(246,147,147);stroke-width:0.01" />
<line x1="-0.0362425" y1="-0.101099" x2="-0.161" y2="0.0156487" style="stroke:rgb(246,147,147);stroke-width:0.01" />
<line x1="-0.0738779" y1="-0.177422" x2="-0.104503" y2="-0.162554" style="stroke:rgb(246,147,147);stroke-width:0.01" />
<line x1="-0.0812083" y1="-0.0942999" x2="-0.0588554" y2="-0.0799382" style="stroke:rgb(246,147,147);stroke-width:0.01" />
<line x1="-0.108185" y1="0.270275" x2="-0.215468" y2="0.391776" style="stroke:rgb(246,147,147);stroke-width:0.01" />
<line x1="-0.0362425" y1="-0.101099" x2="-0.0812083" y2="-0.0942999" style="stroke:rgb(246,147,147);stroke-width:0.01" />
<line x1="-0.098341" y1="0.23318" x2="-0.281882" y2="0.396931" style="stroke:rgb(246,147,147);stroke-width:0.01" />
<line x1="-0.108185" y1="0.270275" x2="-0.242608" y2="0.324518" style="stroke:rgb(246,147,147);stroke-width:0.01" />
<line x1="-0.27522" y1="0.375918" x2="0.161458" y2="0.537611" style="stroke:rgb(246,147,147);stroke-width:0.01" />
<line x1="-0.27522" y1="0.375918" x2="-0.215468" y2="0.391776" style="stroke:rgb(246,147,147);stroke-width:0.01" />
<line x1="0.161458" y1="0.537611" x2="-0.228164" y2="0.628135" style="stroke:rgb(246,147,147);stroke-width:0.01" />
</g>
</svg>
