<svg xmlns="http://www.w3.org/2000/svg" viewBox="-1.5 -1.5 3 3">
<g transform="scale(1, -1)">
<path d="M0.177670 -0.123671 L0.290203 -0.082003 L0.224297 0.959946 L-0.165325 1.050470 L-0.219042 0.819265 L0.069231 -0.090000 z " fill="rgb(245,195,195)" />
<path d="M0.000000 0.000000 L1.000000 0.000000 L1.000000 1.000000 L0.000000 1.000000  z" fill="none" stroke="rgb(128,128,128)" stroke-width="0.01" />
<line x1="0.17767" y1="-0.123671" x2="0.290203" y2="-0.0820028" style="stroke:rgb(246,147,147);stroke-width:0.01" />
<line x1="0.0692308" y1="-0.09" x2="0.138462" y2="0" style="stroke:rgb(246,147,147);stroke-width:0.01" />
<line x1="0.17767" y1="-0.123671" x2="0.0692308" y2="-0.09" style="stroke:rgb(246,147,147);stroke-width:0.01" />
<line x1="0.0489225" y1="-0.0259439" x2="0.12324" y2="0.0573553" style="stroke:rgb(246,147,147);stroke-width:0.01" />
<line x1="0.0406972" y1="0" x2="0.0739603" y2="0.0234484" style="stroke:rgb(246,147,147);stroke-width:0.01" />
<line x1="0.290203" y1="-0.0820028" x2="0.0489225" y2="-0.0259439" style="stroke:rgb(246,147,147);stroke-width:0.01" />
<line x1="0.0406972" y1="0" x2="0.138462" y2="0" style="stroke:rgb(246,147,147);stroke-width:0.01" />
<line x1="-0.0904633" y1="0.413704" x2="-0.0814907" y2="0.518352" style="stroke:rgb(246,147,147);stroke-width:0.01" />
<line x1="0.0692308" y1="-0.09" x2="-0.219042" y2="0.819265" style="stroke:rgb(246,147,147);stroke-width:0.01" />
<line x1="0.290203" y1="-0.0820028" x2="0.224297" y2="0.959946" style="stroke:rgb(246,147,147);stroke-width:0.01" />
<line x1="0.0611418" y1="0.164084" x2="0.0265966" y2="0.321235" style="stroke:rgb(246,147,147);stroke-width:0.01" />
<line x1="0.0105325" y1="0.0951448" x2="0.0611418" y2="0.164084" style="stroke:rgb(246,147,147);stroke-width:0.01" />
<line x1="0.138462" y1="0" x2="-0.0453463" y2="0.692609" style="stroke:rgb(246,147,147);stroke-width:0.01" />
<line x1="-0.0981608" y1="0.437983" x2="-0.0814907" y2="0.518352" style="stroke:rgb(246,147,147);stroke-width:0.01" />
<line x1="0.17767" y1="-0.123671" x2="0.0739603" y2="0.0234484" style="stroke:rgb(246,147,147);stroke-width:0.01" />
<line x1="-0.0267137" y1="0.212626" x2="-0.0110388" y2="0.244912" style="stroke:rgb(246,147,147);stroke-width:0.01" />
<line x1="-0.0814907" y1="0.518352" x2="-0.0355019" y2="0.655514" style="stroke:rgb(246,147,147);stroke-width:0.01" />
<line x1="-0.0416635" y1="0.25978" x2="0.00398372" y2="0.342396" style="stroke:rgb(246,147,147);stroke-width:0.01" />
<line x1="0.12324" y1="0.0573553" x2="0.0105325" y2="0.0951448" style="stroke:rgb(246,147,147);stroke-width:0.01" />
<line x1="-0.219042" y1="0.819265" x2="-0.165325" y2="1.05047" style="stroke:rgb(246,147,147);stroke-width:0.01" />
<line x1="-0.0183692" y1="0.328034" x2="-0.0904633" y2="0.413704" style="stroke:rgb(246,147,147);stroke-width:0.01" />
<line x1="0.0611418" y1="0.164084" x2="-0.0267137" y2="0.212626" style="stroke:rgb(246,147,147);stroke-width:0.01" />
<line x1="-0.179769" y1="0.746852" x2="-0.152629" y2="0.81411" style="stroke:rgb(246,147,147);stroke-width:0.01" />
<line x1="0.0265966" y1="0.321235" x2="-0.0981608" y2="0.437983" style="stroke:rgb(246,147,147);stroke-width:0.01" />
<line x1="-0.0110388" y1="0.244912" x2="-0.0416635" y2="0.25978" style="stroke:rgb(246,147,147);stroke-width:0.01" />
<line x1="-0.0183692" y1="0.328034" x2="0.00398372" y2="0.342396" style="stroke:rgb(246,147,147);stroke-width:0.01" />
<line x1="-0.0453463" y1="0.692609" x2="-0.152629" y2="0.81411" style="stroke:rgb(246,147,147);stroke-width:0.01" />
<line x1="0.0265966" y1="0.321235" x2="-0.0183692" y2="0.328034" style="stroke:rgb(246,147,147);stroke-width:0.01" />
<line x1="-0.0355019" y1="0.655514" x2="-0.219042" y2="0.819265" style="stroke:rgb(246,147,147);stroke-width:0.01" />
<line x1="-0.0453463" y1="0.692609" x2="-0.179769" y2="0.746852" style="stroke:rgb(246,147,147);stroke-width:0.01" />
<line x1="-0.212381" y1="0.798253" x2="0.224297" y2="0.959946" style="stroke:rgb(246,147,147);stroke-width:0.01" />
<line x1="-0.212381" y1="0.798253" x2="-0.152629" y2="0.81411" style="stroke:rgb(246,147,147);stroke-width:0.01" />
<line x1="0.224297" y1="0.959946" x2="-0.165325" y2="1.05047" style="stroke:rgb(246,147,147);stroke-width:0.01" />
</g>
</svg>
