<svg xmlns="http://www.w3.org/2000/svg" viewBox="-1.5 -1.5 3 3">
<g transform="scale(1, -1)">
<path d="M2718281828459045010062878703616.000000 271.939294 L2718281828459045010062878703616.000000 272.272627 L2718281828459045010062878703616.000000 272.828183 L2718281828459045010062878703616.000000 272.494849 L2718281828459045010062878703616.000000 272.078183 L2718281828459045010062878703616.000000 272.028183 z " fill="rgb(245,195,195)" />
<path d="M0.000000 0.000000 L1.000000 0.000000 L1.000000 1.000000 L0.000000 1.000000  z" fill="none" stroke="rgb(128,128,128)" stroke-width="0.01" />
<line x1="2.71828e+30" y1="272.028" x2="2.71828e+30" y2="272.828" style="stroke:rgb(246,147,147);stroke-width:0.01" />
<line x1="2.71828e+30" y1="271.939" x2="2.71828e+30" y2="272.273" style="stroke:rgb(246,147,147);stroke-width:0.01" />
<line x1="2.71828e+30" y1="272.495" x2="2.71828e+30" y2="272.828" style="stroke:rgb(246,147,147);stroke-width:0.01" />
<line x1="2.71828e+30" y1="271.939" x2="2.71828e+30" y2="272.495" style="stroke:rgb(246,147,147);stroke-width:0.01" />
<line x1="2.71828e+30" y1="272.273" x2="2.71828e+30" y2="272.828" style="stroke:rgb(246,147,147);stroke-width:0.01" />
<line x1="2.71828e+30" y1="271.939" x2="2.71828e+30" y2="272.028" style="stroke:rgb(246,147,147);stroke-width:0.01" />
<line x1="2.71828e+30" y1="272.228" x2="2.71828e+30" y2="272.495" style="stroke:rgb(246,147,147);stroke-width:0.01" />
<line x1="2.71828e+30" y1="272.273" x2="2.71828e+30" y2="272.628" style="stroke:rgb(246,147,147);stroke-width:0.01" />
</g>
</svg>
