<svg xmlns="http://www.w3.org/2000/svg" viewBox="-1.5 -1.5 3 3">
<g transform="scale(1, -1)">
<path d="M-0.332673 -0.373267 L-0.166337 -0.186634 L0.020297 -0.352970 L0.373267 -0.332673 L0.186634 -0.166337 L0.352970 0.020297 L0.332673 0.373267 L0.166337 0.186634 L-0.020297 0.352970 L-0.373267 0.332673 L-0.186634 0.166337 L-0.352970 -0.020297 z " fill="rgb(245,195,195)" />
<path d="M0.040594 -0.705941 L1.040594 -0.705941 L1.040594 0.294059 L0.040594 0.294059  z" fill="none" stroke="rgb(128,128,128)" stroke-width="0.01" />
<line x1="-0.332673" y1="-0.373267" x2="-0.35297" y2="-0.020297" style="stroke:rgb(246,147,147);stroke-width:0.01" />
<line x1="0.020297" y1="-0.35297" x2="-0.020297" y2="0.35297" style="stroke:rgb(246,147,147);stroke-width:0.01" />
<line x1="0.35297" y1="0.020297" x2="0.332673" y2="0.373267" style="stroke:rgb(246,147,147);stroke-width:0.01" />
<line x1="0.020297" y1="-0.35297" x2="0.35297" y2="0.020297" style="stroke:rgb(246,147,147);stroke-width:0.01" />
<line x1="0.020297" y1="-0.35297" x2="-0.35297" y2="-0.020297" style="stroke:rgb(246,147,147);stroke-width:0.01" />
<line x1="-0.332673" y1="-0.373267" x2="0.332673" y2="0.373267" style="stroke:rgb(246,147,147);stroke-width:0.01" />
<line x1="0.020297" y1="-0.35297" x2="0.373267" y2="-0.332673" style="stroke:rgb(246,147,147);stroke-width:0.01" />
<line x1="0.373267" y1="-0.332673" x2="-0.373267" y2="0.332673" style="stroke:rgb(246,147,147);stroke-width:0.01" />
<line x1="-0.35297" y1="-0.020297" x2="-0.020297" y2="0.35297" style="stroke:rgb(246,147,147);stroke-width:0.01" />
<line x1="0.35297" y1="0.020297" x2="-0.020297" y2="0.35297" style="stroke:rgb(246,147,147);stroke-width:0.01" />
<line x1="-0.35297" y1="-0.020297" x2="0.35297" y2="0.020297" style="stroke:rgb(246,147,147);stroke-width:0.01" />
<line x1="-0.373267" y1="0.332673" x2="-0.020297" y2="0.35297" style="stroke:rgb(246,147,147);stroke-width:0.01" />
</g>
</svg>
