<svg xmlns="http://www.w3.org/2000/svg" viewBox="-1.5 -1.5 3 3">
<g transform="scale(1, -1)">
<path d="M-0.373267 0.332673 L-0.206931 0.519307 L-0.020297 0.352970 L0.332673 0.373267 L0.146040 0.539604 L0.312376 0.726238 L0.292079 1.079208 L0.125743 0.892574 L-0.060891 1.058911 L-0.413861 1.038614 L-0.227228 0.872277 L-0.393564 0.685644 z " fill="rgb(245,195,195)" />
<path d="M0.000000 0.000000 L1.000000 0.000000 L1.000000 1.000000 L0.000000 1.000000  z" fill="none" stroke="rgb(128,128,128)" stroke-width="0.01" />
<line x1="-0.373267" y1="0.332673" x2="-0.393564" y2="0.685644" style="stroke:rgb(246,147,147);stroke-width:0.01" />
<line x1="-0.020297" y1="0.35297" x2="-0.0608911" y2="1.05891" style="stroke:rgb(246,147,147);stroke-width:0.01" />
<line x1="0.312376" y1="0.726238" x2="0.292079" y2="1.07921" style="stroke:rgb(246,147,147);stroke-width:0.01" />
<line x1="-0.020297" y1="0.35297" x2="0.312376" y2="0.726238" style="stroke:rgb(246,147,147);stroke-width:0.01" />
<line x1="-0.020297" y1="0.35297" x2="-0.393564" y2="0.685644" style="stroke:rgb(246,147,147);stroke-width:0.01" />
<line x1="-0.373267" y1="0.332673" x2="0.292079" y2="1.07921" style="stroke:rgb(246,147,147);stroke-width:0.01" />
<line x1="-0.020297" y1="0.35297" x2="0.332673" y2="0.373267" style="stroke:rgb(246,147,147);stroke-width:0.01" />
<line x1="0.332673" y1="0.373267" x2="-0.413861" y2="1.03861" style="stroke:rgb(246,147,147);stroke-width:0.01" />
<line x1="-0.393564" y1="0.685644" x2="-0.0608911" y2="1.05891" style="stroke:rgb(246,147,147);stroke-width:0.01" />
<line x1="0.312376" y1="0.726238" x2="-0.0608911" y2="1.05891" style="stroke:rgb(246,147,147);stroke-width:0.01" />
<line x1="-0.393564" y1="0.685644" x2="0.312376" y2="0.726238" style="stroke:rgb(246,147,147);stroke-width:0.01" />
<line x1="-0.413861" y1="1.03861" x2="-0.0608911" y2="1.05891" style="stroke:rgb(246,147,147);stroke-width:0.01" />
</g>
</svg>
