<svg xmlns="http://www.w3.org/2000/svg" viewBox="-1.5 -1.5 3 3">
<g transform="scale(1, -1)">
<path d="M0.388170 0.315157 L0.230591 0.509242 L0.424677 0.666821 L0.461183 1.018484 L0.267098 0.860906 L0.109519 1.054991 L-0.242144 1.091497 L-0.084566 0.897412 L-0.278651 0.739834 L-0.315157 0.388170 L-0.121072 0.545749 L0.036506 0.351664 z " fill="rgb(245,195,195)" />
<path d="M0.000000 0.000000 L1.000000 0.000000 L1.000000 1.000000 L0.000000 1.000000  z" fill="none" stroke="rgb(128,128,128)" stroke-width="0.01" />
<line x1="0.424677" y1="0.666821" x2="0.461183" y2="1.01848" style="stroke:rgb(246,147,147);stroke-width:0.01" />
<line x1="0.0365065" y1="0.351664" x2="0.109519" y2="1.05499" style="stroke:rgb(246,147,147);stroke-width:0.01" />
<line x1="-0.315157" y1="0.38817" x2="-0.278651" y2="0.739834" style="stroke:rgb(246,147,147);stroke-width:0.01" />
<line x1="0.0365065" y1="0.351664" x2="-0.278651" y2="0.739834" style="stroke:rgb(246,147,147);stroke-width:0.01" />
<line x1="0.0365065" y1="0.351664" x2="0.424677" y2="0.666821" style="stroke:rgb(246,147,147);stroke-width:0.01" />
<line x1="0.38817" y1="0.315157" x2="-0.242144" y2="1.0915" style="stroke:rgb(246,147,147);stroke-width:0.01" />
<line x1="0.38817" y1="0.315157" x2="0.0365065" y2="0.351664" style="stroke:rgb(246,147,147);stroke-width:0.01" />
<line x1="-0.315157" y1="0.38817" x2="0.461183" y2="1.01848" style="stroke:rgb(246,147,147);stroke-width:0.01" />
<line x1="0.424677" y1="0.666821" x2="0.109519" y2="1.05499" style="stroke:rgb(246,147,147);stroke-width:0.01" />
<line x1="-0.278651" y1="0.739834" x2="0.109519" y2="1.05499" style="stroke:rgb(246,147,147);stroke-width:0.01" />
<line x1="0.424677" y1="0.666821" x2="-0.278651" y2="0.739834" style="stroke:rgb(246,147,147);stroke-width:0.01" />
<line x1="0.109519" y1="1.05499" x2="-0.242144" y2="1.0915" style="stroke:rgb(246,147,147);stroke-width:0.01" />
</g>
</svg>
