<svg xmlns="http://www.w3.org/2000/svg" viewBox="-1.5 -1.5 3 3">
<g transform="scale(1, -1)">
<path d="M0.315157 -0.388170 L0.157579 -0.194085 L0.351664 -0.036506 L0.388170 0.315157 L0.194085 0.157579 L0.036506 0.351664 L-0.315157 0.388170 L-0.157579 0.194085 L-0.351664 0.036506 L-0.388170 -0.315157 L-0.194085 -0.157579 L-0.036506 -0.351664 z " fill="rgb(245,195,195)" />
<path d="M-0.073013 -0.703327 L0.926987 -0.703327 L0.926987 0.296673 L-0.073013 0.296673  z" fill="none" stroke="rgb(128,128,128)" stroke-width="0.01" />
<line x1="0.351664" y1="-0.0365065" x2="0.38817" y2="0.315157" style="stroke:rgb(246,147,147);stroke-width:0.01" />
<line x1="-0.0365065" y1="-0.351664" x2="0.0365065" y2="0.351664" style="stroke:rgb(246,147,147);stroke-width:0.01" />
<line x1="-0.38817" y1="-0.315157" x2="-0.351664" y2="0.0365065" style="stroke:rgb(246,147,147);stroke-width:0.01" />
<line x1="-0.0365065" y1="-0.351664" x2="-0.351664" y2="0.0365065" style="stroke:rgb(246,147,147);stroke-width:0.01" />
<line x1="-0.0365065" y1="-0.351664" x2="0.351664" y2="-0.0365065" style="stroke:rgb(246,147,147);stroke-width:0.01" />
<line x1="0.315157" y1="-0.38817" x2="-0.315157" y2="0.38817" style="stroke:rgb(246,147,147);stroke-width:0.01" />
<line x1="0.315157" y1="-0.38817" x2="-0.0365065" y2="-0.351664" style="stroke:rgb(246,147,147);stroke-width:0.01" />
<line x1="-0.38817" y1="-0.315157" x2="0.38817" y2="0.315157" style="stroke:rgb(246,147,147);stroke-width:0.01" />
<line x1="0.351664" y1="-0.0365065" x2="0.0365065" y2="0.351664" style="stroke:rgb(246,147,147);stroke-width:0.01" />
<line x1="-0.351664" y1="0.0365065" x2="0.0365065" y2="0.351664" style="stroke:rgb(246,147,147);stroke-width:0.01" />
<line x1="0.351664" y1="-0.0365065" x2="-0.351664" y2="0.0365065" style="stroke:rgb(246,147,147);stroke-width:0.01" />
<line x1="0.0365065" y1="0.351664" x2="-0.315157" y2="0.38817" style="stroke:rgb(246,147,147);stroke-width:0.01" />
</g>
</svg>
