<svg xmlns="http://www.w3.org/2000/svg" viewBox="-1.5 -1.5 3 3">
<g transform="scale(1, -1)">
<path d="M0.246393 -0.107062 L0.407401 -0.002615 L0.463933 -0.060357 L0.749757 0.219472 L0.561321 0.454828 L0.270090 0.597277 L0.295939 0.699350 L0.272296 0.850401 L0.185050 0.872495 L0.101279 0.789232 L0.201897 -0.038470 z " fill="rgb(245,195,195)" />
<path d="M0.000000 0.000000 L1.000000 0.000000 L1.000000 1.000000 L0.000000 1.000000  z" fill="none" stroke="rgb(128,128,128)" stroke-width="0.01" />
<line x1="0.463933" y1="-0.0603571" x2="0.749757" y2="0.219472" style="stroke:rgb(246,147,147);stroke-width:0.01" />
<line x1="0.246393" y1="-0.107062" x2="0.749757" y2="0.219472" style="stroke:rgb(246,147,147);stroke-width:0.01" />
<line x1="0.201897" y1="-0.0384696" x2="0.242046" y2="0.077413" style="stroke:rgb(246,147,147);stroke-width:0.01" />
<line x1="0.171798" y1="0.209129" x2="0.295939" y2="0.69935" style="stroke:rgb(246,147,147);stroke-width:0.01" />
<line x1="0.167786" y1="0.242134" x2="0.22194" y2="0.333956" style="stroke:rgb(246,147,147);stroke-width:0.01" />
<line x1="0.242046" y1="0.077413" x2="0.19045" y2="0.73573" style="stroke:rgb(246,147,147);stroke-width:0.01" />
<line x1="0.145323" y1="0.426921" x2="0.291043" y2="0.730631" style="stroke:rgb(246,147,147);stroke-width:0.01" />
<line x1="0.201897" y1="-0.0384696" x2="0.101279" y2="0.789232" style="stroke:rgb(246,147,147);stroke-width:0.01" />
<line x1="0.295939" y1="0.69935" x2="0.272296" y2="0.850401" style="stroke:rgb(246,147,147);stroke-width:0.01" />
<line x1="0.246393" y1="-0.107062" x2="0.201897" y2="-0.0384696" style="stroke:rgb(246,147,147);stroke-width:0.01" />
<line x1="0.268904" y1="0.532689" x2="0.18505" y2="0.872495" style="stroke:rgb(246,147,147);stroke-width:0.01" />
<line x1="0.242046" y1="0.077413" x2="0.171798" y2="0.209129" style="stroke:rgb(246,147,147);stroke-width:0.01" />
<line x1="0.268904" y1="0.532689" x2="0.132889" y2="0.82065" style="stroke:rgb(246,147,147);stroke-width:0.01" />
<line x1="0.463933" y1="-0.0603571" x2="0.167786" y2="0.242134" style="stroke:rgb(246,147,147);stroke-width:0.01" />
<line x1="0.22194" y1="0.333956" x2="0.145323" y2="0.426921" style="stroke:rgb(246,147,147);stroke-width:0.01" />
<line x1="0.282281" y1="0.739888" x2="0.28865" y2="0.745916" style="stroke:rgb(246,147,147);stroke-width:0.01" />
<line x1="0.295939" y1="0.69935" x2="0.221414" y2="0.818604" style="stroke:rgb(246,147,147);stroke-width:0.01" />
<line x1="0.115417" y1="0.672933" x2="0.19045" y2="0.73573" style="stroke:rgb(246,147,147);stroke-width:0.01" />
<line x1="0.101279" y1="0.789232" x2="0.18505" y2="0.872495" style="stroke:rgb(246,147,147);stroke-width:0.01" />
<line x1="0.138118" y1="0.486188" x2="0.268904" y2="0.532689" style="stroke:rgb(246,147,147);stroke-width:0.01" />
<line x1="0.141207" y1="0.460778" x2="0.210576" y2="0.478942" style="stroke:rgb(246,147,147);stroke-width:0.01" />
<line x1="0.749757" y1="0.219472" x2="0.561321" y2="0.454828" style="stroke:rgb(246,147,147);stroke-width:0.01" />
<line x1="0.561321" y1="0.454828" x2="0.141207" y2="0.460778" style="stroke:rgb(246,147,147);stroke-width:0.01" />
<line x1="0.221414" y1="0.818604" x2="0.272296" y2="0.850401" style="stroke:rgb(246,147,147);stroke-width:0.01" />
<line x1="0.291043" y1="0.730631" x2="0.282281" y2="0.739888" style="stroke:rgb(246,147,147);stroke-width:0.01" />
<line x1="0.210576" y1="0.478942" x2="0.138118" y2="0.486188" style="stroke:rgb(246,147,147);stroke-width:0.01" />
<line x1="0.561321" y1="0.454828" x2="0.115417" y2="0.672933" style="stroke:rgb(246,147,147);stroke-width:0.01" />
<line x1="0.19045" y1="0.73573" x2="0.101279" y2="0.789232" style="stroke:rgb(246,147,147);stroke-width:0.01" />
<line x1="0.28865" y1="0.745916" x2="0.132889" y2="0.82065" style="stroke:rgb(246,147,147);stroke-width:0.01" />
<line x1="0.272296" y1="0.850401" x2="0.18505" y2="0.872495" style="stroke:rgb(246,147,147);stroke-width:0.01" />
</g>
</svg>
