<svg xmlns="http://www.w3.org/2000/svg" viewBox="-1.5 -1.5 3 3">
<g transform="scale(1, -1)">
<path d="M-0.095003 -0.495658 L0.066005 -0.391211 L0.122537 -0.448953 L0.408361 -0.169123 L0.219925 0.066232 L-0.071306 0.208682 L-0.045457 0.310755 L-0.069100 0.461806 L-0.156346 0.483899 L-0.240117 0.400637 L-0.139499 -0.427065 z " fill="rgb(245,195,195)" />
<path d="M-0.341396 -0.388596 L0.658604 -0.388596 L0.658604 0.611404 L-0.341396 0.611404  z" fill="none" stroke="rgb(128,128,128)" stroke-width="0.01" />
<line x1="0.122537" y1="-0.448953" x2="0.408361" y2="-0.169123" style="stroke:rgb(246,147,147);stroke-width:0.01" />
<line x1="-0.0950033" y1="-0.495658" x2="0.408361" y2="-0.169123" style="stroke:rgb(246,147,147);stroke-width:0.01" />
<line x1="-0.139499" y1="-0.427065" x2="-0.0993496" y2="-0.311183" style="stroke:rgb(246,147,147);stroke-width:0.01" />
<line x1="-0.169598" y1="-0.179467" x2="-0.0454573" y2="0.310755" style="stroke:rgb(246,147,147);stroke-width:0.01" />
<line x1="-0.17361" y1="-0.146462" x2="-0.119456" y2="-0.0546398" style="stroke:rgb(246,147,147);stroke-width:0.01" />
<line x1="-0.0993496" y1="-0.311183" x2="-0.150946" y2="0.347134" style="stroke:rgb(246,147,147);stroke-width:0.01" />
<line x1="-0.196073" y1="0.0383249" x2="-0.0503533" y2="0.342035" style="stroke:rgb(246,147,147);stroke-width:0.01" />
<line x1="-0.139499" y1="-0.427065" x2="-0.240117" y2="0.400637" style="stroke:rgb(246,147,147);stroke-width:0.01" />
<line x1="-0.0454573" y1="0.310755" x2="-0.0691" y2="0.461806" style="stroke:rgb(246,147,147);stroke-width:0.01" />
<line x1="-0.0950033" y1="-0.495658" x2="-0.139499" y2="-0.427065" style="stroke:rgb(246,147,147);stroke-width:0.01" />
<line x1="-0.0724916" y1="0.144093" x2="-0.156346" y2="0.483899" style="stroke:rgb(246,147,147);stroke-width:0.01" />
<line x1="-0.0993496" y1="-0.311183" x2="-0.169598" y2="-0.179467" style="stroke:rgb(246,147,147);stroke-width:0.01" />
<line x1="-0.0724916" y1="0.144093" x2="-0.208507" y2="0.432055" style="stroke:rgb(246,147,147);stroke-width:0.01" />
<line x1="0.122537" y1="-0.448953" x2="-0.17361" y2="-0.146462" style="stroke:rgb(246,147,147);stroke-width:0.01" />
<line x1="-0.119456" y1="-0.0546398" x2="-0.196073" y2="0.0383249" style="stroke:rgb(246,147,147);stroke-width:0.01" />
<line x1="-0.059115" y1="0.351292" x2="-0.0527458" y2="0.35732" style="stroke:rgb(246,147,147);stroke-width:0.01" />
<line x1="-0.0454573" y1="0.310755" x2="-0.119982" y2="0.430009" style="stroke:rgb(246,147,147);stroke-width:0.01" />
<line x1="-0.225979" y1="0.284337" x2="-0.150946" y2="0.347134" style="stroke:rgb(246,147,147);stroke-width:0.01" />
<line x1="-0.240117" y1="0.400637" x2="-0.156346" y2="0.483899" style="stroke:rgb(246,147,147);stroke-width:0.01" />
<line x1="-0.203278" y1="0.0975924" x2="-0.0724916" y2="0.144093" style="stroke:rgb(246,147,147);stroke-width:0.01" />
<line x1="-0.200189" y1="0.0721822" x2="-0.13082" y2="0.0903466" style="stroke:rgb(246,147,147);stroke-width:0.01" />
<line x1="0.408361" y1="-0.169123" x2="0.219925" y2="0.066232" style="stroke:rgb(246,147,147);stroke-width:0.01" />
<line x1="0.219925" y1="0.066232" x2="-0.200189" y2="0.0721822" style="stroke:rgb(246,147,147);stroke-width:0.01" />
<line x1="-0.119982" y1="0.430009" x2="-0.0691" y2="0.461806" style="stroke:rgb(246,147,147);stroke-width:0.01" />
<line x1="-0.0503533" y1="0.342035" x2="-0.059115" y2="0.351292" style="stroke:rgb(246,147,147);stroke-width:0.01" />
<line x1="-0.13082" y1="0.0903466" x2="-0.203278" y2="0.0975924" style="stroke:rgb(246,147,147);stroke-width:0.01" />
<line x1="0.219925" y1="0.066232" x2="-0.225979" y2="0.284337" style="stroke:rgb(246,147,147);stroke-width:0.01" />
<line x1="-0.150946" y1="0.347134" x2="-0.240117" y2="0.400637" style="stroke:rgb(246,147,147);stroke-width:0.01" />
<line x1="-0.0527458" y1="0.35732" x2="-0.208507" y2="0.432055" style="stroke:rgb(246,147,147);stroke-width:0.01" />
<line x1="-0.0691" y1="0.461806" x2="-0.156346" y2="0.483899" style="stroke:rgb(246,147,147);stroke-width:0.01" />
</g>
</svg>
