<svg xmlns="http://www.w3.org/2000/svg" viewBox="-1.5 -1.5 3 3">
<g transform="scale(1, -1)">
<path d="M0.132712 -0.482066 L0.066356 -0.241033 L0.307389 -0.174677 L0.482066 0.132712 L0.241033 0.066356 L0.174677 0.307389 L-0.132712 0.482066 L-0.066356 0.241033 L-0.307389 0.174677 L-0.482066 -0.132712 L-0.241033 -0.066356 L-0.174677 -0.307389 z " fill="rgb(245,195,195)" />
<path d="M-0.349354 -0.614778 L0.650646 -0.614778 L0.650646 0.385222 L-0.349354 0.385222  z" fill="none" stroke="rgb(128,128,128)" stroke-width="0.01" />
<line x1="0.307389" y1="-0.174677" x2="0.482066" y2="0.132712" style="stroke:rgb(246,147,147);stroke-width:0.01" />
<line x1="-0.174677" y1="-0.307389" x2="0.174677" y2="0.307389" style="stroke:rgb(246,147,147);stroke-width:0.01" />
<line x1="-0.174677" y1="-0.307389" x2="-0.307389" y2="0.174677" style="stroke:rgb(246,147,147);stroke-width:0.01" />
<line x1="0.132712" y1="-0.482066" x2="-0.132712" y2="0.482066" style="stroke:rgb(246,147,147);stroke-width:0.01" />
<line x1="-0.482066" y1="-0.132712" x2="-0.307389" y2="0.174677" style="stroke:rgb(246,147,147);stroke-width:0.01" />
<line x1="0.307389" y1="-0.174677" x2="0.174677" y2="0.307389" style="stroke:rgb(246,147,147);stroke-width:0.01" />
<line x1="-0.174677" y1="-0.307389" x2="0.307389" y2="-0.174677" style="stroke:rgb(246,147,147);stroke-width:0.01" />
<line x1="0.132712" y1="-0.482066" x2="-0.174677" y2="-0.307389" style="stroke:rgb(246,147,147);stroke-width:0.01" />
<line x1="-0.482066" y1="-0.132712" x2="0.482066" y2="0.132712" style="stroke:rgb(246,147,147);stroke-width:0.01" />
<line x1="0.307389" y1="-0.174677" x2="-0.307389" y2="0.174677" style="stroke:rgb(246,147,147);stroke-width:0.01" />
<line x1="-0.307389" y1="0.174677" x2="0.174677" y2="0.307389" style="stroke:rgb(246,147,147);stroke-width:0.01" />
<line x1="0.174677" y1="0.307389" x2="-0.132712" y2="0.482066" style="stroke:rgb(246,147,147);stroke-width:0.01" />
</g>
</svg>
