<svg xmlns="http://www.w3.org/2000/svg" viewBox="-1.5 -1.5 3 3">
<g transform="scale(1, -1)">
<path d="M0.482066 0.132712 L0.415710 0.373745 L0.656743 0.440100 L0.831420 0.747489 L0.590387 0.681133 L0.524032 0.922166 L0.216643 1.096844 L0.282999 0.855811 L0.041966 0.789455 L-0.132712 0.482066 L0.108321 0.548422 L0.174677 0.307389 z " fill="rgb(245,195,195)" />
<path d="M0.000000 0.000000 L1.000000 0.000000 L1.000000 1.000000 L0.000000 1.000000  z" fill="none" stroke="rgb(128,128,128)" stroke-width="0.01" />
<line x1="0.656743" y1="0.4401" x2="0.83142" y2="0.747489" style="stroke:rgb(246,147,147);stroke-width:0.01" />
<line x1="0.174677" y1="0.307389" x2="0.524032" y2="0.922166" style="stroke:rgb(246,147,147);stroke-width:0.01" />
<line x1="0.174677" y1="0.307389" x2="0.0419656" y2="0.789455" style="stroke:rgb(246,147,147);stroke-width:0.01" />
<line x1="0.482066" y1="0.132712" x2="0.216643" y2="1.09684" style="stroke:rgb(246,147,147);stroke-width:0.01" />
<line x1="-0.132712" y1="0.482066" x2="0.0419656" y2="0.789455" style="stroke:rgb(246,147,147);stroke-width:0.01" />
<line x1="0.656743" y1="0.4401" x2="0.524032" y2="0.922166" style="stroke:rgb(246,147,147);stroke-width:0.01" />
<line x1="0.174677" y1="0.307389" x2="0.656743" y2="0.4401" style="stroke:rgb(246,147,147);stroke-width:0.01" />
<line x1="0.482066" y1="0.132712" x2="0.174677" y2="0.307389" style="stroke:rgb(246,147,147);stroke-width:0.01" />
<line x1="-0.132712" y1="0.482066" x2="0.83142" y2="0.747489" style="stroke:rgb(246,147,147);stroke-width:0.01" />
<line x1="0.656743" y1="0.4401" x2="0.0419656" y2="0.789455" style="stroke:rgb(246,147,147);stroke-width:0.01" />
<line x1="0.0419656" y1="0.789455" x2="0.524032" y2="0.922166" style="stroke:rgb(246,147,147);stroke-width:0.01" />
<line x1="0.524032" y1="0.922166" x2="0.216643" y2="1.09684" style="stroke:rgb(246,147,147);stroke-width:0.01" />
</g>
</svg>
