<svg xmlns="http://www.w3.org/2000/svg" viewBox="-1.5 -1.5 3 3">
<g transform="scale(1, -1)">
<path d="M0.333333 0.000000 L0.444444 0.000000 L0.444444 0.476190 L0.583333 0.555556 L0.666178 0.696141 L0.764103 0.753846 L0.732143 0.808081 L0.738462 0.818803 L0.719101 0.830212 L0.468599 0.579710 L0.454365 0.555556 L0.444444 0.555556 L0.333333 0.444444 z " fill="rgb(245,195,195)" />
<path d="M0.000000 0.000000 L1.000000 0.000000 L1.000000 1.000000 L0.000000 1.000000  z" fill="none" stroke="rgb(128,128,128)" stroke-width="0.01" />
<line x1="0.583333" y1="0.555556" x2="0.738462" y2="0.818803" style="stroke:rgb(246,147,147);stroke-width:0.01" />
<line x1="0.388889" y1="0.444444" x2="0.468599" y2="0.57971" style="stroke:rgb(246,147,147);stroke-width:0.01" />
<line x1="0.333333" y1="0" x2="0.444444" y2="0" style="stroke:rgb(246,147,147);stroke-width:0.01" />
<line x1="0.333333" y1="0" x2="0.333333" y2="0.444444" style="stroke:rgb(246,147,147);stroke-width:0.01" />
<line x1="0.444444" y1="0" x2="0.444444" y2="0.555556" style="stroke:rgb(246,147,147);stroke-width:0.01" />
<line x1="0.333333" y1="0.444444" x2="0.444444" y2="0.555556" style="stroke:rgb(246,147,147);stroke-width:0.01" />
<line x1="0.468599" y1="0.57971" x2="0.719101" y2="0.830212" style="stroke:rgb(246,147,147);stroke-width:0.01" />
<line x1="0.388889" y1="0.444444" x2="0.583333" y2="0.555556" style="stroke:rgb(246,147,147);stroke-width:0.01" />
<line x1="0.468599" y1="0.57971" x2="0.764103" y2="0.753846" style="stroke:rgb(246,147,147);stroke-width:0.01" />
<line x1="0.333333" y1="0.444444" x2="0.388889" y2="0.444444" style="stroke:rgb(246,147,147);stroke-width:0.01" />
<line x1="0.764103" y1="0.753846" x2="0.719101" y2="0.830212" style="stroke:rgb(246,147,147);stroke-width:0.01" />
<line x1="0.444444" y1="0.555556" x2="0.583333" y2="0.555556" style="stroke:rgb(246,147,147);stroke-width:0.01" />
<line x1="0.738462" y1="0.818803" x2="0.719101" y2="0.830212" style="stroke:rgb(246,147,147);stroke-width:0.01" />
</g>
</svg>
