<svg xmlns="http://www.w3.org/2000/svg" viewBox="-1.5 -1.5 3 3">
<g transform="scale(1, -1)">
<path d="M-0.214842 -0.544161 L-0.103731 -0.544161 L-0.103731 -0.067971 L0.035158 0.011394 L0.118002 0.151980 L0.215927 0.209685 L0.183967 0.263920 L0.190286 0.274642 L0.170925 0.286051 L-0.079577 0.035549 L-0.093811 0.011394 L-0.103731 0.011394 L-0.214842 -0.099717 z " fill="rgb(245,195,195)" />
<path d="M-0.548176 -0.544161 L0.451824 -0.544161 L0.451824 0.455839 L-0.548176 0.455839  z" fill="none" stroke="rgb(128,128,128)" stroke-width="0.01" />
<line x1="0.0351577" y1="0.0113944" x2="0.190286" y2="0.274642" style="stroke:rgb(246,147,147);stroke-width:0.01" />
<line x1="-0.159287" y1="-0.0997167" x2="-0.0795766" y2="0.035549" style="stroke:rgb(246,147,147);stroke-width:0.01" />
<line x1="-0.214842" y1="-0.544161" x2="-0.103731" y2="-0.544161" style="stroke:rgb(246,147,147);stroke-width:0.01" />
<line x1="-0.214842" y1="-0.544161" x2="-0.214842" y2="-0.0997167" style="stroke:rgb(246,147,147);stroke-width:0.01" />
<line x1="-0.103731" y1="-0.544161" x2="-0.103731" y2="0.0113944" style="stroke:rgb(246,147,147);stroke-width:0.01" />
<line x1="-0.214842" y1="-0.0997167" x2="-0.103731" y2="0.0113944" style="stroke:rgb(246,147,147);stroke-width:0.01" />
<line x1="-0.0795766" y1="0.035549" x2="0.170925" y2="0.286051" style="stroke:rgb(246,147,147);stroke-width:0.01" />
<line x1="-0.159287" y1="-0.0997167" x2="0.0351577" y2="0.0113944" style="stroke:rgb(246,147,147);stroke-width:0.01" />
<line x1="-0.0795766" y1="0.035549" x2="0.215927" y2="0.209685" style="stroke:rgb(246,147,147);stroke-width:0.01" />
<line x1="-0.214842" y1="-0.0997167" x2="-0.159287" y2="-0.0997167" style="stroke:rgb(246,147,147);stroke-width:0.01" />
<line x1="0.215927" y1="0.209685" x2="0.170925" y2="0.286051" style="stroke:rgb(246,147,147);stroke-width:0.01" />
<line x1="-0.103731" y1="0.0113944" x2="0.0351577" y2="0.0113944" style="stroke:rgb(246,147,147);stroke-width:0.01" />
<line x1="0.190286" y1="0.274642" x2="0.170925" y2="0.286051" style="stroke:rgb(246,147,147);stroke-width:0.01" />
</g>
</svg>
