<svg xmlns="http://www.w3.org/2000/svg" viewBox="-1.5 -1.5 3 3">
<g transform="scale(1, -1)">
<path d="M0.499405 0.024376 L0.487218 0.274078 L0.736920 0.286266 L0.974435 0.548157 L0.724732 0.535969 L0.712545 0.785672 L0.450654 1.023187 L0.462842 0.773484 L0.213139 0.761296 L-0.024376 0.499405 L0.225327 0.511593 L0.237515 0.261891 z " fill="rgb(245,195,195)" />
<path d="M0.000000 0.000000 L1.000000 0.000000 L1.000000 1.000000 L0.000000 1.000000  z" fill="none" stroke="rgb(128,128,128)" stroke-width="0.01" />
<line x1="0.73692" y1="0.286266" x2="0.974435" y2="0.548157" style="stroke:rgb(246,147,147);stroke-width:0.01" />
<line x1="0.237515" y1="0.261891" x2="0.712545" y2="0.785672" style="stroke:rgb(246,147,147);stroke-width:0.01" />
<line x1="0.237515" y1="0.261891" x2="0.213139" y2="0.761296" style="stroke:rgb(246,147,147);stroke-width:0.01" />
<line x1="0.499405" y1="0.0243757" x2="0.450654" y2="1.02319" style="stroke:rgb(246,147,147);stroke-width:0.01" />
<line x1="0.73692" y1="0.286266" x2="0.712545" y2="0.785672" style="stroke:rgb(246,147,147);stroke-width:0.01" />
<line x1="-0.0243757" y1="0.499405" x2="0.213139" y2="0.761296" style="stroke:rgb(246,147,147);stroke-width:0.01" />
<line x1="0.237515" y1="0.261891" x2="0.73692" y2="0.286266" style="stroke:rgb(246,147,147);stroke-width:0.01" />
<line x1="0.499405" y1="0.0243757" x2="0.237515" y2="0.261891" style="stroke:rgb(246,147,147);stroke-width:0.01" />
<line x1="-0.0243757" y1="0.499405" x2="0.974435" y2="0.548157" style="stroke:rgb(246,147,147);stroke-width:0.01" />
<line x1="0.73692" y1="0.286266" x2="0.213139" y2="0.761296" style="stroke:rgb(246,147,147);stroke-width:0.01" />
<line x1="0.213139" y1="0.761296" x2="0.712545" y2="0.785672" style="stroke:rgb(246,147,147);stroke-width:0.01" />
<line x1="0.712545" y1="0.785672" x2="0.450654" y2="1.02319" style="stroke:rgb(246,147,147);stroke-width:0.01" />
</g>
</svg>
