<svg xmlns="http://www.w3.org/2000/svg" viewBox="-1.5 -1.5 3 3">
<g transform="scale(1, -1)">
<path d="M0.024376 -0.499405 L0.012188 -0.249703 L0.261891 -0.237515 L0.499405 0.024376 L0.249703 0.012188 L0.237515 0.261891 L-0.024376 0.499405 L-0.012188 0.249703 L-0.261891 0.237515 L-0.499405 -0.024376 L-0.249703 -0.012188 L-0.237515 -0.261891 z " fill="rgb(245,195,195)" />
<path d="M-0.475030 -0.523781 L0.524970 -0.523781 L0.524970 0.476219 L-0.475030 0.476219  z" fill="none" stroke="rgb(128,128,128)" stroke-width="0.01" />
<line x1="0.261891" y1="-0.237515" x2="0.499405" y2="0.0243757" style="stroke:rgb(246,147,147);stroke-width:0.01" />
<line x1="-0.237515" y1="-0.261891" x2="0.237515" y2="0.261891" style="stroke:rgb(246,147,147);stroke-width:0.01" />
<line x1="-0.237515" y1="-0.261891" x2="-0.261891" y2="0.237515" style="stroke:rgb(246,147,147);stroke-width:0.01" />
<line x1="0.0243757" y1="-0.499405" x2="-0.0243757" y2="0.499405" style="stroke:rgb(246,147,147);stroke-width:0.01" />
<line x1="0.261891" y1="-0.237515" x2="0.237515" y2="0.261891" style="stroke:rgb(246,147,147);stroke-width:0.01" />
<line x1="-0.499405" y1="-0.0243757" x2="-0.261891" y2="0.237515" style="stroke:rgb(246,147,147);stroke-width:0.01" />
<line x1="-0.237515" y1="-0.261891" x2="0.261891" y2="-0.237515" style="stroke:rgb(246,147,147);stroke-width:0.01" />
<line x1="0.0243757" y1="-0.499405" x2="-0.237515" y2="-0.261891" style="stroke:rgb(246,147,147);stroke-width:0.01" />
<line x1="-0.499405" y1="-0.0243757" x2="0.499405" y2="0.0243757" style="stroke:rgb(246,147,147);stroke-width:0.01" />
<line x1="0.261891" y1="-0.237515" x2="-0.261891" y2="0.237515" style="stroke:rgb(246,147,147);stroke-width:0.01" />
<line x1="-0.261891" y1="0.237515" x2="0.237515" y2="0.261891" style="stroke:rgb(246,147,147);stroke-width:0.01" />
<line x1="0.237515" y1="0.261891" x2="-0.0243757" y2="0.499405" style="stroke:rgb(246,147,147);stroke-width:0.01" />
</g>
</svg>
