<svg xmlns="http://www.w3.org/2000/svg" viewBox="-1.5 -1.5 3 3">
<g transform="scale(1, -1)">
<path d="M1.000000 0.384615 L1.039419 0.496548 L1.384615 0.555556 L1.384615 1.000000 L1.228095 1.000000 L1.200074 1.079566 L0.974145 1.000000 L0.692308 1.000000 L0.692308 0.437212 z " fill="rgb(245,195,195)" />
<path d="M0.000000 0.000000 L1.000000 0.000000 L1.000000 1.000000 L0.000000 1.000000  z" fill="none" stroke="rgb(128,128,128)" stroke-width="0.01" />
<line x1="1" y1="0.384615" x2="1.12776" y2="0.747392" style="stroke:rgb(246,147,147);stroke-width:0.01" />
<line x1="0.692308" y1="0.437212" x2="0.692308" y2="1" style="stroke:rgb(246,147,147);stroke-width:0.01" />
<line x1="1" y1="0.384615" x2="1" y2="1" style="stroke:rgb(246,147,147);stroke-width:0.01" />
<line x1="1.38462" y1="0.555556" x2="1.38462" y2="1" style="stroke:rgb(246,147,147);stroke-width:0.01" />
<line x1="0.692308" y1="0.437212" x2="1.38462" y2="0.555556" style="stroke:rgb(246,147,147);stroke-width:0.01" />
<line x1="1.38462" y1="0.555556" x2="1.20007" y2="1.07957" style="stroke:rgb(246,147,147);stroke-width:0.01" />
<line x1="1" y1="0.384615" x2="0.692308" y2="0.437212" style="stroke:rgb(246,147,147);stroke-width:0.01" />
<line x1="0.692308" y1="0.900745" x2="1.20007" y2="1.07957" style="stroke:rgb(246,147,147);stroke-width:0.01" />
<line x1="0.692308" y1="1" x2="1.38462" y2="1" style="stroke:rgb(246,147,147);stroke-width:0.01" />
<line x1="1.12776" y1="0.747392" x2="0.692308" y2="0.900745" style="stroke:rgb(246,147,147);stroke-width:0.01" />
</g>
</svg>
