<svg xmlns="http://www.w3.org/2000/svg" viewBox="-1.5 -1.5 3 3">
<g transform="scale(1, -1)">
<path d="M-0.066176 -0.387995 L-0.026756 -0.276063 L0.318440 -0.217055 L0.318440 0.227389 L0.161919 0.227389 L0.133899 0.306955 L-0.092030 0.227389 L-0.373868 0.227389 L-0.373868 -0.335398 z " fill="rgb(245,195,195)" />
<path d="M-1.066176 -0.772611 L-0.066176 -0.772611 L-0.066176 0.227389 L-1.066176 0.227389  z" fill="none" stroke="rgb(128,128,128)" stroke-width="0.01" />
<line x1="-0.0661756" y1="-0.387995" x2="0.0615837" y2="-0.0252192" style="stroke:rgb(246,147,147);stroke-width:0.01" />
<line x1="-0.373868" y1="-0.335398" x2="-0.373868" y2="0.227389" style="stroke:rgb(246,147,147);stroke-width:0.01" />
<line x1="-0.0661756" y1="-0.387995" x2="-0.0661756" y2="0.227389" style="stroke:rgb(246,147,147);stroke-width:0.01" />
<line x1="0.31844" y1="-0.217055" x2="0.31844" y2="0.227389" style="stroke:rgb(246,147,147);stroke-width:0.01" />
<line x1="-0.373868" y1="-0.335398" x2="0.31844" y2="-0.217055" style="stroke:rgb(246,147,147);stroke-width:0.01" />
<line x1="0.31844" y1="-0.217055" x2="0.133899" y2="0.306955" style="stroke:rgb(246,147,147);stroke-width:0.01" />
<line x1="-0.0661756" y1="-0.387995" x2="-0.373868" y2="-0.335398" style="stroke:rgb(246,147,147);stroke-width:0.01" />
<line x1="-0.373868" y1="0.128134" x2="0.133899" y2="0.306955" style="stroke:rgb(246,147,147);stroke-width:0.01" />
<line x1="-0.373868" y1="0.227389" x2="0.31844" y2="0.227389" style="stroke:rgb(246,147,147);stroke-width:0.01" />
<line x1="0.0615837" y1="-0.0252192" x2="-0.373868" y2="0.128134" style="stroke:rgb(246,147,147);stroke-width:0.01" />
</g>
</svg>
