<svg xmlns="http://www.w3.org/2000/svg" viewBox="-1.5 -1.5 3 3">
<g transform="scale(1, -1)">
<path d="M-0.384615 0.461538 L-0.307692 0.519231 L-0.307692 0.711538 L-0.384615 0.769231 L-0.461538 0.730769 L-0.553846 0.800000 L-0.600000 0.738462 L-0.461538 0.634615 L-0.461538 0.500000 z M-0.384615 0.557692 L-0.384615 0.576923 L-0.371795 0.567308 z " fill="rgb(245,195,195)" />
<path d="M0.000000 0.000000 L1.000000 0.000000 L1.000000 1.000000 L0.000000 1.000000  z" fill="none" stroke="rgb(128,128,128)" stroke-width="0.01" />
<line x1="-0.461538" y1="0.5" x2="-0.461538" y2="0.730769" style="stroke:rgb(246,147,147);stroke-width:0.01" />
<line x1="-0.384615" y1="0.461538" x2="-0.384615" y2="0.769231" style="stroke:rgb(246,147,147);stroke-width:0.01" />
<line x1="-0.307692" y1="0.519231" x2="-0.307692" y2="0.711538" style="stroke:rgb(246,147,147);stroke-width:0.01" />
<line x1="-0.369231" y1="0.569231" x2="-0.415385" y2="0.630769" style="stroke:rgb(246,147,147);stroke-width:0.01" />
<line x1="-0.307692" y1="0.519231" x2="-0.6" y2="0.738462" style="stroke:rgb(246,147,147);stroke-width:0.01" />
<line x1="-0.384615" y1="0.461538" x2="-0.461538" y2="0.5" style="stroke:rgb(246,147,147);stroke-width:0.01" />
<line x1="-0.307692" y1="0.615385" x2="-0.553846" y2="0.8" style="stroke:rgb(246,147,147);stroke-width:0.01" />
<line x1="-0.307692" y1="0.711538" x2="-0.384615" y2="0.769231" style="stroke:rgb(246,147,147);stroke-width:0.01" />
<line x1="-0.384615" y1="0.461538" x2="-0.307692" y2="0.519231" style="stroke:rgb(246,147,147);stroke-width:0.01" />
<line x1="-0.461538" y1="0.5" x2="-0.307692" y2="0.615385" style="stroke:rgb(246,147,147);stroke-width:0.01" />
<line x1="-0.6" y1="0.738462" x2="-0.553846" y2="0.8" style="stroke:rgb(246,147,147);stroke-width:0.01" />
<line x1="-0.415385" y1="0.630769" x2="-0.307692" y2="0.711538" style="stroke:rgb(246,147,147);stroke-width:0.01" />
<line x1="-0.461538" y1="0.730769" x2="-0.384615" y2="0.769231" style="stroke:rgb(246,147,147);stroke-width:0.01" />
</g>
</svg>
