<svg xmlns="http://www.w3.org/2000/svg" viewBox="-1.5 -1.5 3 3">
<g transform="scale(1, -1)">
<path d="M0.037393 -0.169071 L0.114316 -0.111378 L0.114316 0.080929 L0.037393 0.138622 L-0.039530 0.100160 L-0.131838 0.169391 L-0.177991 0.107853 L-0.039530 0.004006 L-0.039530 -0.130609 z M0.037393 -0.072917 L0.037393 -0.053686 L0.050214 -0.063301 z " fill="rgb(245,195,195)" />
<path d="M0.422009 -0.630609 L1.422009 -0.630609 L1.422009 0.369391 L0.422009 0.369391  z" fill="none" stroke="rgb(128,128,128)" stroke-width="0.01" />
<line x1="-0.0395299" y1="-0.130609" x2="-0.0395299" y2="0.10016" style="stroke:rgb(246,147,147);stroke-width:0.01" />
<line x1="0.0373932" y1="-0.169071" x2="0.0373932" y2="0.138622" style="stroke:rgb(246,147,147);stroke-width:0.01" />
<line x1="0.114316" y1="-0.111378" x2="0.114316" y2="0.0809295" style="stroke:rgb(246,147,147);stroke-width:0.01" />
<line x1="0.0527778" y1="-0.0613782" x2="0.00662393" y2="0.000160256" style="stroke:rgb(246,147,147);stroke-width:0.01" />
<line x1="0.114316" y1="-0.111378" x2="-0.177991" y2="0.107853" style="stroke:rgb(246,147,147);stroke-width:0.01" />
<line x1="0.0373932" y1="-0.169071" x2="-0.0395299" y2="-0.130609" style="stroke:rgb(246,147,147);stroke-width:0.01" />
<line x1="0.114316" y1="-0.0152244" x2="-0.131838" y2="0.169391" style="stroke:rgb(246,147,147);stroke-width:0.01" />
<line x1="0.114316" y1="0.0809295" x2="0.0373932" y2="0.138622" style="stroke:rgb(246,147,147);stroke-width:0.01" />
<line x1="0.0373932" y1="-0.169071" x2="0.114316" y2="-0.111378" style="stroke:rgb(246,147,147);stroke-width:0.01" />
<line x1="-0.0395299" y1="-0.130609" x2="0.114316" y2="-0.0152244" style="stroke:rgb(246,147,147);stroke-width:0.01" />
<line x1="-0.177991" y1="0.107853" x2="-0.131838" y2="0.169391" style="stroke:rgb(246,147,147);stroke-width:0.01" />
<line x1="0.00662393" y1="0.000160256" x2="0.114316" y2="0.0809295" style="stroke:rgb(246,147,147);stroke-width:0.01" />
<line x1="-0.0395299" y1="0.10016" x2="0.0373932" y2="0.138622" style="stroke:rgb(246,147,147);stroke-width:0.01" />
</g>
</svg>
