<svg xmlns="http://www.w3.org/2000/svg" viewBox="-1.5 -1.5 3 3">
<g transform="scale(1, -1)">
<path d="M1.237870 0.716336 L1.527169 0.930594 L1.423558 1.070493 L1.743560 1.441248 L1.751022 1.641109 L1.079751 1.666169 L1.076923 1.715385 L0.980817 1.743019 L0.965341 1.689196 L1.131175 0.771290 L1.140183 0.742176 z " fill="rgb(245,195,195)" />
<path d="M0.000000 0.000000 L1.000000 0.000000 L1.000000 1.000000 L0.000000 1.000000  z" fill="none" stroke="rgb(128,128,128)" stroke-width="0.01" />
<line x1="1.49254" y1="1.15041" x2="1.54694" y2="1.40466" style="stroke:rgb(246,147,147);stroke-width:0.01" />
<line x1="1.14018" y1="0.742176" x2="1.74356" y2="1.44125" style="stroke:rgb(246,147,147);stroke-width:0.01" />
<line x1="1.23787" y1="0.716336" x2="1.52717" y2="0.930594" style="stroke:rgb(246,147,147);stroke-width:0.01" />
<line x1="0.965341" y1="1.6892" x2="0.980817" y2="1.74302" style="stroke:rgb(246,147,147);stroke-width:0.01" />
<line x1="1.10774" y1="0.901004" x2="1.14085" y2="0.935853" style="stroke:rgb(246,147,147);stroke-width:0.01" />
<line x1="1.74356" y1="1.44125" x2="1.75102" y2="1.64111" style="stroke:rgb(246,147,147);stroke-width:0.01" />
<line x1="1.09605" y1="0.965694" x2="1.54694" y2="1.40466" style="stroke:rgb(246,147,147);stroke-width:0.01" />
<line x1="1.13117" y1="0.77129" x2="1.07692" y2="1.71538" style="stroke:rgb(246,147,147);stroke-width:0.01" />
<line x1="1.11074" y1="0.884408" x2="1.12418" y2="0.892992" style="stroke:rgb(246,147,147);stroke-width:0.01" />
<line x1="1.13117" y1="0.77129" x2="0.965341" y2="1.6892" style="stroke:rgb(246,147,147);stroke-width:0.01" />
<line x1="1.10017" y1="0.942914" x2="1.12062" y2="0.954881" style="stroke:rgb(246,147,147);stroke-width:0.01" />
<line x1="1.14018" y1="0.742176" x2="1.13117" y2="0.77129" style="stroke:rgb(246,147,147);stroke-width:0.01" />
<line x1="1.23922" y1="0.856917" x2="1.17403" y2="1.03144" style="stroke:rgb(246,147,147);stroke-width:0.01" />
<line x1="1.17403" y1="1.03144" x2="1.49254" y2="1.15041" style="stroke:rgb(246,147,147);stroke-width:0.01" />
<line x1="1.23787" y1="0.716336" x2="1.14085" y2="0.935853" style="stroke:rgb(246,147,147);stroke-width:0.01" />
<line x1="1.23787" y1="0.716336" x2="1.14018" y2="0.742176" style="stroke:rgb(246,147,147);stroke-width:0.01" />
<line x1="1.52717" y1="0.930594" x2="0.965341" y2="1.6892" style="stroke:rgb(246,147,147);stroke-width:0.01" />
<line x1="1.23922" y1="0.856917" x2="1.11074" y2="0.884408" style="stroke:rgb(246,147,147);stroke-width:0.01" />
<line x1="0.968752" y1="1.67031" x2="1.07692" y2="1.71538" style="stroke:rgb(246,147,147);stroke-width:0.01" />
<line x1="1.54694" y1="1.40466" x2="1.74356" y2="1.44125" style="stroke:rgb(246,147,147);stroke-width:0.01" />
<line x1="1.14085" y1="0.935853" x2="1.10017" y2="0.942914" style="stroke:rgb(246,147,147);stroke-width:0.01" />
<line x1="1.12418" y1="0.892992" x2="1.10774" y2="0.901004" style="stroke:rgb(246,147,147);stroke-width:0.01" />
<line x1="1.12062" y1="0.954881" x2="1.09605" y2="0.965694" style="stroke:rgb(246,147,147);stroke-width:0.01" />
<line x1="1.75102" y1="1.64111" x2="0.968752" y2="1.67031" style="stroke:rgb(246,147,147);stroke-width:0.01" />
<line x1="1.07692" y1="1.71538" x2="0.980817" y2="1.74302" style="stroke:rgb(246,147,147);stroke-width:0.01" />
</g>
</svg>
