<svg xmlns="http://www.w3.org/2000/svg" viewBox="-1.5 -1.5 3 3">
<g transform="scale(1, -1)">
<path d="M-0.404853 -0.193788 L0.609309 -0.096879 L0.627197 -0.091219 L0.609032 0.208231 L0.544298 0.284451 L0.152320 0.112857 L-0.174833 0.142763 L-0.188249 -0.004000 L-0.255471 0.003828 L-0.283004 -0.044986 L-0.414556 -0.054125 L-0.409083 -0.132905 L-0.412106 -0.134228 z " fill="rgb(245,195,195)" />
<path d="M0.664078 -0.208283 L1.664078 -0.208283 L1.664078 0.791717 L0.664078 0.791717  z" fill="none" stroke="rgb(128,128,128)" stroke-width="0.01" />
<line x1="-0.364774" y1="-0.189958" x2="-0.412106" y2="-0.134228" style="stroke:rgb(246,147,147);stroke-width:0.01" />
<line x1="-0.203842" y1="-0.17458" x2="-0.255471" y2="0.00382842" style="stroke:rgb(246,147,147);stroke-width:0.01" />
<line x1="-0.404853" y1="-0.193788" x2="-0.412106" y2="-0.134228" style="stroke:rgb(246,147,147);stroke-width:0.01" />
<line x1="0.394315" y1="-0.117423" x2="0.387377" y2="-0.110317" style="stroke:rgb(246,147,147);stroke-width:0.01" />
<line x1="-0.404853" y1="-0.193788" x2="-0.414556" y2="-0.0541248" style="stroke:rgb(246,147,147);stroke-width:0.01" />
<line x1="0.446916" y1="-0.112397" x2="0.423323" y2="-0.0752202" style="stroke:rgb(246,147,147);stroke-width:0.01" />
<line x1="0.316461" y1="-0.124862" x2="-0.003208" y2="-0.0255488" style="stroke:rgb(246,147,147);stroke-width:0.01" />
<line x1="0.590947" y1="-0.0986338" x2="0.544298" y2="0.284451" style="stroke:rgb(246,147,147);stroke-width:0.01" />
<line x1="0.589409" y1="-0.0987808" x2="0.539412" y2="-0.00544037" style="stroke:rgb(246,147,147);stroke-width:0.01" />
<line x1="0.590947" y1="-0.0986338" x2="0.590674" y2="-0.094709" style="stroke:rgb(246,147,147);stroke-width:0.01" />
<line x1="0.627197" y1="-0.091219" x2="0.609032" y2="0.208231" style="stroke:rgb(246,147,147);stroke-width:0.01" />
<line x1="0.627197" y1="-0.091219" x2="0.52226" y2="0.0790405" style="stroke:rgb(246,147,147);stroke-width:0.01" />
<line x1="0.589409" y1="-0.0987808" x2="0.590674" y2="-0.094709" style="stroke:rgb(246,147,147);stroke-width:0.01" />
<line x1="-0.203842" y1="-0.17458" x2="-0.174833" y2="0.142763" style="stroke:rgb(246,147,147);stroke-width:0.01" />
<line x1="0.446916" y1="-0.112397" x2="0.52226" y2="0.0790405" style="stroke:rgb(246,147,147);stroke-width:0.01" />
<line x1="0.609309" y1="-0.0968792" x2="-0.255471" y2="0.00382842" style="stroke:rgb(246,147,147);stroke-width:0.01" />
<line x1="-0.404853" y1="-0.193788" x2="0.609309" y2="-0.0968792" style="stroke:rgb(246,147,147);stroke-width:0.01" />
<line x1="0.609309" y1="-0.0968792" x2="0.627197" y2="-0.091219" style="stroke:rgb(246,147,147);stroke-width:0.01" />
<line x1="0.609032" y1="0.208231" x2="0.544298" y2="0.284451" style="stroke:rgb(246,147,147);stroke-width:0.01" />
<line x1="0.394315" y1="-0.117423" x2="0.609032" y2="0.208231" style="stroke:rgb(246,147,147);stroke-width:0.01" />
<line x1="0.387377" y1="-0.110317" x2="0.423323" y2="-0.0752202" style="stroke:rgb(246,147,147);stroke-width:0.01" />
<line x1="0.316461" y1="-0.124862" x2="0.539412" y2="-0.00544037" style="stroke:rgb(246,147,147);stroke-width:0.01" />
<line x1="-0.414556" y1="-0.0541248" x2="-0.003208" y2="-0.0255488" style="stroke:rgb(246,147,147);stroke-width:0.01" />
<line x1="0.52226" y1="0.0790405" x2="-0.174833" y2="0.142763" style="stroke:rgb(246,147,147);stroke-width:0.01" />
<line x1="-0.364774" y1="-0.189958" x2="-0.255471" y2="0.00382842" style="stroke:rgb(246,147,147);stroke-width:0.01" />
<line x1="-0.412106" y1="-0.134228" x2="0.544298" y2="0.284451" style="stroke:rgb(246,147,147);stroke-width:0.01" />
</g>
</svg>
