<svg xmlns="http://www.w3.org/2000/svg" viewBox="-1.5 -1.5 3 3">
<g transform="scale(1, -1)">
<path d="M-1.068931 0.014495 L-0.054768 0.111404 L-0.036881 0.117064 L-0.055046 0.416514 L-0.119780 0.492734 L-0.511757 0.321141 L-0.838911 0.351046 L-0.852327 0.204283 L-0.919549 0.212112 L-0.947082 0.163297 L-1.078633 0.154158 L-1.073160 0.075378 L-1.076183 0.074055 z " fill="rgb(245,195,195)" />
<path d="M0.000000 0.000000 L1.000000 0.000000 L1.000000 1.000000 L0.000000 1.000000  z" fill="none" stroke="rgb(128,128,128)" stroke-width="0.01" />
<line x1="-1.02885" y1="0.0183248" x2="-1.07618" y2="0.074055" style="stroke:rgb(246,147,147);stroke-width:0.01" />
<line x1="-0.86792" y1="0.0337028" x2="-0.919549" y2="0.212112" style="stroke:rgb(246,147,147);stroke-width:0.01" />
<line x1="-1.06893" y1="0.014495" x2="-1.07618" y2="0.074055" style="stroke:rgb(246,147,147);stroke-width:0.01" />
<line x1="-0.269763" y1="0.0908601" x2="-0.276701" y2="0.097966" style="stroke:rgb(246,147,147);stroke-width:0.01" />
<line x1="-1.06893" y1="0.014495" x2="-1.07863" y2="0.154158" style="stroke:rgb(246,147,147);stroke-width:0.01" />
<line x1="-0.217162" y1="0.0958864" x2="-0.240755" y2="0.133063" style="stroke:rgb(246,147,147);stroke-width:0.01" />
<line x1="-0.347616" y1="0.0834208" x2="-0.667286" y2="0.182734" style="stroke:rgb(246,147,147);stroke-width:0.01" />
<line x1="-0.073131" y1="0.109649" x2="-0.11978" y2="0.492734" style="stroke:rgb(246,147,147);stroke-width:0.01" />
<line x1="-0.0746687" y1="0.109502" x2="-0.124666" y2="0.202843" style="stroke:rgb(246,147,147);stroke-width:0.01" />
<line x1="-0.073131" y1="0.109649" x2="-0.0734036" y2="0.113574" style="stroke:rgb(246,147,147);stroke-width:0.01" />
<line x1="-0.0368807" y1="0.117064" x2="-0.0550459" y2="0.416514" style="stroke:rgb(246,147,147);stroke-width:0.01" />
<line x1="-0.0368807" y1="0.117064" x2="-0.141817" y2="0.287324" style="stroke:rgb(246,147,147);stroke-width:0.01" />
<line x1="-0.0746687" y1="0.109502" x2="-0.0734036" y2="0.113574" style="stroke:rgb(246,147,147);stroke-width:0.01" />
<line x1="-0.86792" y1="0.0337028" x2="-0.838911" y2="0.351046" style="stroke:rgb(246,147,147);stroke-width:0.01" />
<line x1="-0.217162" y1="0.0958864" x2="-0.141817" y2="0.287324" style="stroke:rgb(246,147,147);stroke-width:0.01" />
<line x1="-0.0547681" y1="0.111404" x2="-0.919549" y2="0.212112" style="stroke:rgb(246,147,147);stroke-width:0.01" />
<line x1="-1.06893" y1="0.014495" x2="-0.0547681" y2="0.111404" style="stroke:rgb(246,147,147);stroke-width:0.01" />
<line x1="-0.0547681" y1="0.111404" x2="-0.0368807" y2="0.117064" style="stroke:rgb(246,147,147);stroke-width:0.01" />
<line x1="-0.0550459" y1="0.416514" x2="-0.11978" y2="0.492734" style="stroke:rgb(246,147,147);stroke-width:0.01" />
<line x1="-0.269763" y1="0.0908601" x2="-0.0550459" y2="0.416514" style="stroke:rgb(246,147,147);stroke-width:0.01" />
<line x1="-0.276701" y1="0.097966" x2="-0.240755" y2="0.133063" style="stroke:rgb(246,147,147);stroke-width:0.01" />
<line x1="-0.347616" y1="0.0834208" x2="-0.124666" y2="0.202843" style="stroke:rgb(246,147,147);stroke-width:0.01" />
<line x1="-1.07863" y1="0.154158" x2="-0.667286" y2="0.182734" style="stroke:rgb(246,147,147);stroke-width:0.01" />
<line x1="-0.141817" y1="0.287324" x2="-0.838911" y2="0.351046" style="stroke:rgb(246,147,147);stroke-width:0.01" />
<line x1="-1.02885" y1="0.0183248" x2="-0.919549" y2="0.212112" style="stroke:rgb(246,147,147);stroke-width:0.01" />
<line x1="-1.07618" y1="0.074055" x2="-0.11978" y2="0.492734" style="stroke:rgb(246,147,147);stroke-width:0.01" />
</g>
</svg>
