<svg xmlns="http://www.w3.org/2000/svg" viewBox="-1.5 -1.5 3 3">
<g transform="scale(1, -1)">
<path d="M852964.241655 22885004084254804909960672216824676352.000000 L852964.491655 22885004084254804909960672216824676352.000000 L852964.491655 22885004084254804909960672216824676352.000000 L852964.741655 22885004084254804909960672216824676352.000000 L852964.491655 22885004084254804909960672216824676352.000000 L852964.241655 22885004084254804909960672216824676352.000000 L852964.241655 22885004084254804909960672216824676352.000000 L852963.991655 22885004084254804909960672216824676352.000000 L852963.991655 22885004084254804909960672216824676352.000000 L852963.741655 22885004084254804909960672216824676352.000000 L852963.991655 22885004084254804909960672216824676352.000000 L852964.241655 22885004084254804909960672216824676352.000000 z " fill="rgb(245,195,195)" />
<path d="M0.000000 0.000000 L1.000000 0.000000 L1.000000 1.000000 L0.000000 1.000000  z" fill="none" stroke="rgb(128,128,128)" stroke-width="0.01" />
<line x1="852964" y1="2.2885e+37" x2="852964" y2="2.2885e+37" style="stroke:rgb(246,147,147);stroke-width:0.01" />
<line x1="852964" y1="2.2885e+37" x2="852964" y2="2.2885e+37" style="stroke:rgb(246,147,147);stroke-width:0.01" />
<line x1="852964" y1="2.2885e+37" x2="852964" y2="2.2885e+37" style="stroke:rgb(246,147,147);stroke-width:0.01" />
<line x1="852964" y1="2.2885e+37" x2="852964" y2="2.2885e+37" style="stroke:rgb(246,147,147);stroke-width:0.01" />
<line x1="852964" y1="2.2885e+37" x2="852964" y2="2.2885e+37" style="stroke:rgb(246,147,147);stroke-width:0.01" />
<line x1="852964" y1="2.2885e+37" x2="852964" y2="2.2885e+37" style="stroke:rgb(246,147,147);stroke-width:0.01" />
<line x1="852964" y1="2.2885e+37" x2="852964" y2="2.2885e+37" style="stroke:rgb(246,147,147);stroke-width:0.01" />
<line x1="852964" y1="2.2885e+37" x2="852964" y2="2.2885e+37" style="stroke:rgb(246,147,147);stroke-width:0.01" />
<line x1="852965" y1="2.2885e+37" x2="852964" y2="2.2885e+37" style="stroke:rgb(246,147,147);stroke-width:0.01" />
<line x1="852964" y1="2.2885e+37" x2="852964" y2="2.2885e+37" style="stroke:rgb(246,147,147);stroke-width:0.01" />
<line x1="852964" y1="2.2885e+37" x2="852965" y2="2.2885e+37" style="stroke:rgb(246,147,147);stroke-width:0.01" />
<line x1="852964" y1="2.2885e+37" x2="852964" y2="2.2885e+37" style="stroke:rgb(246,147,147);stroke-width:0.01" />
</g>
</svg>
