<svg xmlns="http://www.w3.org/2000/svg" viewBox="-1.5 -1.5 3 3">
<g transform="scale(1, -1)">
<path d="M0.066995 -0.567489 L1.043350 -0.308375 L0.993104 0.117240 L0.868966 0.102585 L0.820138 0.217654 L0.425616 0.050245 L0.000000 -0.000001 L0.014655 -0.124139 L-0.100414 -0.172967 z " fill="rgb(245,195,195)" />
<path d="M0.000000 0.000000 L1.000000 0.000000 L1.000000 1.000000 L0.000000 1.000000  z" fill="none" stroke="rgb(128,128,128)" stroke-width="0.01" />
<line x1="0.0669952" y1="-0.567489" x2="1.04335" y2="-0.308375" style="stroke:rgb(246,147,147);stroke-width:0.01" />
<line x1="-0.100414" y1="-0.172967" x2="0.820138" y2="0.217654" style="stroke:rgb(246,147,147);stroke-width:0.01" />
<line x1="0.0669952" y1="-0.567489" x2="-0.100414" y2="-0.172967" style="stroke:rgb(246,147,147);stroke-width:0.01" />
<line x1="1.17241e-07" y1="-9.93103e-07" x2="0.993104" y2="0.11724" style="stroke:rgb(246,147,147);stroke-width:0.01" />
<line x1="0.0669952" y1="-0.567489" x2="1.17241e-07" y2="-9.93103e-07" style="stroke:rgb(246,147,147);stroke-width:0.01" />
<line x1="1.04335" y1="-0.308375" x2="0.993104" y2="0.11724" style="stroke:rgb(246,147,147);stroke-width:0.01" />
<line x1="1.04335" y1="-0.308375" x2="0.820138" y2="0.217654" style="stroke:rgb(246,147,147);stroke-width:0.01" />
</g>
</svg>
