<svg xmlns="http://www.w3.org/2000/svg" viewBox="-1.5 -1.5 3 3">
<g transform="scale(1, -1)">
<path d="M0.506667 -0.213333 L0.613333 -0.182222 L0.578947 -0.064327 L0.610644 -0.081232 L0.676937 0.009337 L0.509850 0.172577 L0.333333 0.066667 L0.333333 0.000000 L0.444444 0.000000 z " fill="rgb(245,195,195)" />
<path d="M0.000000 0.000000 L1.000000 0.000000 L1.000000 1.000000 L0.000000 1.000000  z" fill="none" stroke="rgb(128,128,128)" stroke-width="0.01" />
<line x1="0.506667" y1="-0.213333" x2="0.613333" y2="-0.182222" style="stroke:rgb(246,147,147);stroke-width:0.01" />
<line x1="0.610644" y1="-0.0812325" x2="0.676937" y2="0.00933707" style="stroke:rgb(246,147,147);stroke-width:0.01" />
<line x1="0.333333" y1="0.0666667" x2="0.50985" y2="0.172577" style="stroke:rgb(246,147,147);stroke-width:0.01" />
<line x1="0.333333" y1="0" x2="0.444444" y2="0" style="stroke:rgb(246,147,147);stroke-width:0.01" />
<line x1="0.333333" y1="0" x2="0.333333" y2="0.0666667" style="stroke:rgb(246,147,147);stroke-width:0.01" />
<line x1="0.444444" y1="0" x2="0.444444" y2="0.133333" style="stroke:rgb(246,147,147);stroke-width:0.01" />
<line x1="0.506667" y1="-0.213333" x2="0.411348" y2="0.113475" style="stroke:rgb(246,147,147);stroke-width:0.01" />
<line x1="0.613333" y1="-0.182222" x2="0.50985" y2="0.172577" style="stroke:rgb(246,147,147);stroke-width:0.01" />
<line x1="0.610644" y1="-0.0812325" x2="0.333333" y2="0.0666667" style="stroke:rgb(246,147,147);stroke-width:0.01" />
<line x1="0.610644" y1="-0.0812325" x2="0.411348" y2="0.113475" style="stroke:rgb(246,147,147);stroke-width:0.01" />
<line x1="0.676937" y1="0.00933707" x2="0.444444" y2="0.133333" style="stroke:rgb(246,147,147);stroke-width:0.01" />
<line x1="0.676937" y1="0.00933707" x2="0.50985" y2="0.172577" style="stroke:rgb(246,147,147);stroke-width:0.01" />
</g>
</svg>
