<svg xmlns="http://www.w3.org/2000/svg" viewBox="-1.5 -1.5 3 3">
<g transform="scale(1, -1)">
<path d="M-0.005277 -0.180829 L0.101390 -0.149718 L0.067004 -0.031824 L0.098701 -0.048729 L0.164994 0.041841 L-0.002093 0.205081 L-0.178610 0.099171 L-0.178610 0.032504 L-0.067499 0.032504 z " fill="rgb(245,195,195)" />
<path d="M-0.511943 0.032504 L0.488057 0.032504 L0.488057 1.032504 L-0.511943 1.032504  z" fill="none" stroke="rgb(128,128,128)" stroke-width="0.01" />
<line x1="-0.00527672" y1="-0.180829" x2="0.10139" y2="-0.149718" style="stroke:rgb(246,147,147);stroke-width:0.01" />
<line x1="0.0987009" y1="-0.0487286" x2="0.164994" y2="0.041841" style="stroke:rgb(246,147,147);stroke-width:0.01" />
<line x1="-0.17861" y1="0.0991706" x2="-0.00209311" y2="0.205081" style="stroke:rgb(246,147,147);stroke-width:0.01" />
<line x1="-0.17861" y1="0.0325039" x2="-0.0674989" y2="0.0325039" style="stroke:rgb(246,147,147);stroke-width:0.01" />
<line x1="-0.17861" y1="0.0325039" x2="-0.17861" y2="0.0991706" style="stroke:rgb(246,147,147);stroke-width:0.01" />
<line x1="-0.0674989" y1="0.0325039" x2="-0.0674989" y2="0.165837" style="stroke:rgb(246,147,147);stroke-width:0.01" />
<line x1="-0.00527672" y1="-0.180829" x2="-0.100596" y2="0.145979" style="stroke:rgb(246,147,147);stroke-width:0.01" />
<line x1="0.10139" y1="-0.149718" x2="-0.00209311" y2="0.205081" style="stroke:rgb(246,147,147);stroke-width:0.01" />
<line x1="0.0987009" y1="-0.0487286" x2="-0.17861" y2="0.0991706" style="stroke:rgb(246,147,147);stroke-width:0.01" />
<line x1="0.0987009" y1="-0.0487286" x2="-0.100596" y2="0.145979" style="stroke:rgb(246,147,147);stroke-width:0.01" />
<line x1="0.164994" y1="0.041841" x2="-0.0674989" y2="0.165837" style="stroke:rgb(246,147,147);stroke-width:0.01" />
<line x1="0.164994" y1="0.041841" x2="-0.00209311" y2="0.205081" style="stroke:rgb(246,147,147);stroke-width:0.01" />
</g>
</svg>
