<svg xmlns="http://www.w3.org/2000/svg" viewBox="-1.5 -1.5 3 3">
<g transform="scale(1, -1)">
<path d="M0.528044 -0.212963 L0.787037 -0.212963 L0.787037 0.000000 L0.017369 0.769668 L0.008087 0.768189 L0.006025 0.761760 L0.013328 0.744295 L-0.018145 0.546685 L0.104108 0.527214 L0.395667 -0.169993 L0.403094 -0.180090 L0.482041 -0.122016 z " fill="rgb(245,195,195)" />
<path d="M0.000000 0.000000 L1.000000 0.000000 L1.000000 1.000000 L0.000000 1.000000  z" fill="none" stroke="rgb(128,128,128)" stroke-width="0.01" />
<line x1="0.528044" y1="-0.212963" x2="0.728073" y2="0.0589642" style="stroke:rgb(246,147,147);stroke-width:0.01" />
<line x1="0.403094" y1="-0.18009" x2="0.728073" y2="0.0589642" style="stroke:rgb(246,147,147);stroke-width:0.01" />
<line x1="0.528044" y1="-0.212963" x2="0.787037" y2="-0.212963" style="stroke:rgb(246,147,147);stroke-width:0.01" />
<line x1="0.324579" y1="0" x2="0.552533" y2="0.231059" style="stroke:rgb(246,147,147);stroke-width:0.01" />
<line x1="0.324579" y1="0" x2="0.787037" y2="0" style="stroke:rgb(246,147,147);stroke-width:0.01" />
<line x1="0.787037" y1="-0.212963" x2="0.787037" y2="0" style="stroke:rgb(246,147,147);stroke-width:0.01" />
<line x1="-0.0181448" y1="0.546685" x2="0.0173694" y2="0.769668" style="stroke:rgb(246,147,147);stroke-width:0.01" />
<line x1="0.395667" y1="-0.169993" x2="0.289322" y2="0.497715" style="stroke:rgb(246,147,147);stroke-width:0.01" />
<line x1="0.00602499" y1="0.76176" x2="0.00808693" y2="0.768189" style="stroke:rgb(246,147,147);stroke-width:0.01" />
<line x1="0.395667" y1="-0.169993" x2="0.00602499" y2="0.76176" style="stroke:rgb(246,147,147);stroke-width:0.01" />
<line x1="0.403094" y1="-0.18009" x2="0.395667" y2="-0.169993" style="stroke:rgb(246,147,147);stroke-width:0.01" />
<line x1="0.528044" y1="-0.212963" x2="0.0449823" y2="0.742055" style="stroke:rgb(246,147,147);stroke-width:0.01" />
<line x1="0.552533" y1="0.231059" x2="0.00808693" y2="0.768189" style="stroke:rgb(246,147,147);stroke-width:0.01" />
<line x1="0.787037" y1="0" x2="0.0173694" y2="0.769668" style="stroke:rgb(246,147,147);stroke-width:0.01" />
<line x1="0.289322" y1="0.497715" x2="-0.0181448" y2="0.546685" style="stroke:rgb(246,147,147);stroke-width:0.01" />
<line x1="0.0449823" y1="0.742055" x2="0.00602499" y2="0.76176" style="stroke:rgb(246,147,147);stroke-width:0.01" />
<line x1="0.00808693" y1="0.768189" x2="0.0173694" y2="0.769668" style="stroke:rgb(246,147,147);stroke-width:0.01" />
</g>
</svg>
