<svg xmlns="http://www.w3.org/2000/svg" viewBox="-1.5 -1.5 3 3">
<g transform="scale(1, -1)">
<path d="M0.235236 -0.481278 L0.494229 -0.481278 L0.494229 -0.268315 L-0.275438 0.501352 L-0.284721 0.499874 L-0.286783 0.493444 L-0.279479 0.475980 L-0.310953 0.278370 L-0.188700 0.258898 L0.102860 -0.438309 L0.110286 -0.448405 L0.189234 -0.390332 z " fill="rgb(245,195,195)" />
<path d="M-0.292808 -0.268315 L0.707192 -0.268315 L0.707192 0.731685 L-0.292808 0.731685  z" fill="none" stroke="rgb(128,128,128)" stroke-width="0.01" />
<line x1="0.235236" y1="-0.481278" x2="0.435265" y2="-0.209351" style="stroke:rgb(246,147,147);stroke-width:0.01" />
<line x1="0.110286" y1="-0.448405" x2="0.435265" y2="-0.209351" style="stroke:rgb(246,147,147);stroke-width:0.01" />
<line x1="0.235236" y1="-0.481278" x2="0.494229" y2="-0.481278" style="stroke:rgb(246,147,147);stroke-width:0.01" />
<line x1="0.0317714" y1="-0.268315" x2="0.259726" y2="-0.037256" style="stroke:rgb(246,147,147);stroke-width:0.01" />
<line x1="0.0317714" y1="-0.268315" x2="0.494229" y2="-0.268315" style="stroke:rgb(246,147,147);stroke-width:0.01" />
<line x1="0.494229" y1="-0.481278" x2="0.494229" y2="-0.268315" style="stroke:rgb(246,147,147);stroke-width:0.01" />
<line x1="-0.310953" y1="0.27837" x2="-0.275438" y2="0.501352" style="stroke:rgb(246,147,147);stroke-width:0.01" />
<line x1="0.10286" y1="-0.438309" x2="-0.00348575" y2="0.2294" style="stroke:rgb(246,147,147);stroke-width:0.01" />
<line x1="-0.286783" y1="0.493444" x2="-0.284721" y2="0.499874" style="stroke:rgb(246,147,147);stroke-width:0.01" />
<line x1="0.10286" y1="-0.438309" x2="-0.286783" y2="0.493444" style="stroke:rgb(246,147,147);stroke-width:0.01" />
<line x1="0.110286" y1="-0.448405" x2="0.10286" y2="-0.438309" style="stroke:rgb(246,147,147);stroke-width:0.01" />
<line x1="0.235236" y1="-0.481278" x2="-0.247825" y2="0.473739" style="stroke:rgb(246,147,147);stroke-width:0.01" />
<line x1="0.259726" y1="-0.037256" x2="-0.284721" y2="0.499874" style="stroke:rgb(246,147,147);stroke-width:0.01" />
<line x1="0.494229" y1="-0.268315" x2="-0.275438" y2="0.501352" style="stroke:rgb(246,147,147);stroke-width:0.01" />
<line x1="-0.00348575" y1="0.2294" x2="-0.310953" y2="0.27837" style="stroke:rgb(246,147,147);stroke-width:0.01" />
<line x1="-0.247825" y1="0.473739" x2="-0.286783" y2="0.493444" style="stroke:rgb(246,147,147);stroke-width:0.01" />
<line x1="-0.284721" y1="0.499874" x2="-0.275438" y2="0.501352" style="stroke:rgb(246,147,147);stroke-width:0.01" />
</g>
</svg>
