<svg xmlns="http://www.w3.org/2000/svg" viewBox="-1.5 -1.5 3 3">
<g transform="scale(1, -1)">
<path d="M0.228697 -0.441764 L0.418848 -0.087585 L0.406124 -0.056650 L-0.076599 0.388474 L-0.388003 0.228703 L-0.368582 0.190849 L-0.183106 0.131594 L-0.210650 0.065163 L0.173272 -0.418783 z " fill="rgb(245,195,195)" />
<path d="M-0.459643 -1.132543 L0.540357 -1.132543 L0.540357 -0.132543 L-0.459643 -0.132543  z" fill="none" stroke="rgb(128,128,128)" stroke-width="0.01" />
<line x1="0.228697" y1="-0.441764" x2="0.418848" y2="-0.0875852" style="stroke:rgb(246,147,147);stroke-width:0.01" />
<line x1="-0.02964" y1="0.0813218" x2="0.026776" y2="0.293151" style="stroke:rgb(246,147,147);stroke-width:0.01" />
<line x1="-0.02964" y1="0.0813218" x2="-0.0143966" y2="0.331117" style="stroke:rgb(246,147,147);stroke-width:0.01" />
<line x1="0.322768" y1="-0.0581135" x2="0.356906" y2="-0.0112654" style="stroke:rgb(246,147,147);stroke-width:0.01" />
<line x1="-0.0290969" y1="0.082392" x2="-0.0636365" y2="0.32408" style="stroke:rgb(246,147,147);stroke-width:0.01" />
<line x1="-0.21065" y1="0.0651629" x2="-0.0765986" y2="0.388474" style="stroke:rgb(246,147,147);stroke-width:0.01" />
<line x1="-0.0492298" y1="-0.138313" x2="0.159058" y2="0.171173" style="stroke:rgb(246,147,147);stroke-width:0.01" />
<line x1="0.173272" y1="-0.418783" x2="0.0853464" y2="0.11401" style="stroke:rgb(246,147,147);stroke-width:0.01" />
<line x1="-0.334153" y1="0.184123" x2="-0.328655" y2="0.196464" style="stroke:rgb(246,147,147);stroke-width:0.01" />
<line x1="0.0257922" y1="0.0648563" x2="0.00922886" y2="0.122683" style="stroke:rgb(246,147,147);stroke-width:0.01" />
<line x1="0.331776" y1="-0.0328975" x2="0.356906" y2="-0.0112654" style="stroke:rgb(246,147,147);stroke-width:0.01" />
<line x1="0.331776" y1="-0.0328975" x2="0.317487" y2="0.0250828" style="stroke:rgb(246,147,147);stroke-width:0.01" />
<line x1="0.148896" y1="-0.388057" x2="0.0410502" y2="-0.104033" style="stroke:rgb(246,147,147);stroke-width:0.01" />
<line x1="-0.368582" y1="0.190849" x2="-0.388003" y2="0.228703" style="stroke:rgb(246,147,147);stroke-width:0.01" />
<line x1="0.322768" y1="-0.0581135" x2="0.285078" y2="0.0549681" style="stroke:rgb(246,147,147);stroke-width:0.01" />
<line x1="-0.0290969" y1="0.082392" x2="0.00922886" y2="0.122683" style="stroke:rgb(246,147,147);stroke-width:0.01" />
<line x1="0.418848" y1="-0.0875852" x2="0.406124" y2="-0.0566498" style="stroke:rgb(246,147,147);stroke-width:0.01" />
<line x1="0.0257922" y1="0.0648563" x2="0.159058" y2="0.171173" style="stroke:rgb(246,147,147);stroke-width:0.01" />
<line x1="-0.312076" y1="0.172796" x2="-0.328655" y2="0.196464" style="stroke:rgb(246,147,147);stroke-width:0.01" />
<line x1="0.173272" y1="-0.418783" x2="-0.21065" y2="0.0651629" style="stroke:rgb(246,147,147);stroke-width:0.01" />
<line x1="-0.0492298" y1="-0.138313" x2="0.0410502" y2="-0.104033" style="stroke:rgb(246,147,147);stroke-width:0.01" />
<line x1="0.228697" y1="-0.441764" x2="0.148896" y2="-0.388057" style="stroke:rgb(246,147,147);stroke-width:0.01" />
<line x1="0.228697" y1="-0.441764" x2="0.173272" y2="-0.418783" style="stroke:rgb(246,147,147);stroke-width:0.01" />
<line x1="-0.368582" y1="0.190849" x2="-0.364385" y2="0.193024" style="stroke:rgb(246,147,147);stroke-width:0.01" />
<line x1="0.406124" y1="-0.0566498" x2="-0.0765986" y2="0.388474" style="stroke:rgb(246,147,147);stroke-width:0.01" />
<line x1="-0.334153" y1="0.184123" x2="-0.301843" y2="0.199045" style="stroke:rgb(246,147,147);stroke-width:0.01" />
<line x1="-0.388003" y1="0.228703" x2="-0.0765986" y2="0.388474" style="stroke:rgb(246,147,147);stroke-width:0.01" />
<line x1="-0.312076" y1="0.172796" x2="0.026776" y2="0.293151" style="stroke:rgb(246,147,147);stroke-width:0.01" />
<line x1="-0.21065" y1="0.0651629" x2="0.0853464" y2="0.11401" style="stroke:rgb(246,147,147);stroke-width:0.01" />
<line x1="0.418848" y1="-0.0875852" x2="0.322768" y2="-0.0581135" style="stroke:rgb(246,147,147);stroke-width:0.01" />
<line x1="0.406124" y1="-0.0566498" x2="-0.368582" y2="0.190849" style="stroke:rgb(246,147,147);stroke-width:0.01" />
<line x1="-0.334153" y1="0.184123" x2="-0.364385" y2="0.193024" style="stroke:rgb(246,147,147);stroke-width:0.01" />
<line x1="0.317487" y1="0.0250828" x2="-0.02964" y2="0.0813218" style="stroke:rgb(246,147,147);stroke-width:0.01" />
<line x1="0.285078" y1="0.0549681" x2="-0.301843" y2="0.199045" style="stroke:rgb(246,147,147);stroke-width:0.01" />
<line x1="-0.364385" y1="0.193024" x2="-0.301843" y2="0.199045" style="stroke:rgb(246,147,147);stroke-width:0.01" />
<line x1="-0.0636365" y1="0.32408" x2="-0.0143966" y2="0.331117" style="stroke:rgb(246,147,147);stroke-width:0.01" />
</g>
</svg>
