<svg xmlns="http://www.w3.org/2000/svg" viewBox="-1.5 -1.5 3 3">
<g transform="scale(1, -1)">
<path d="M0.000000 0.000000 L0.234694 0.000000 L0.261721 0.027027 L0.261721 0.616162 L0.383838 0.616162 L0.383838 0.643189 L0.261721 0.643189 L0.234694 0.616162 L0.234694 0.027027 L0.000000 0.027027 z " fill="rgb(245,195,195)" />
<path d="M0.000000 0.000000 L1.000000 0.000000 L1.000000 1.000000 L0.000000 1.000000  z" fill="none" stroke="rgb(128,128,128)" stroke-width="0.01" />
<line x1="0.234694" y1="0" x2="0.261721" y2="0.027027" style="stroke:rgb(246,147,147);stroke-width:0.01" />
<line x1="0" y1="0" x2="0.234694" y2="0" style="stroke:rgb(246,147,147);stroke-width:0.01" />
<line x1="0" y1="0" x2="0" y2="0.027027" style="stroke:rgb(246,147,147);stroke-width:0.01" />
<line x1="0.234694" y1="0" x2="0.234694" y2="0.616162" style="stroke:rgb(246,147,147);stroke-width:0.01" />
<line x1="0.261721" y1="0.027027" x2="0.261721" y2="0.643189" style="stroke:rgb(246,147,147);stroke-width:0.01" />
<line x1="0.383838" y1="0.616162" x2="0.383838" y2="0.643189" style="stroke:rgb(246,147,147);stroke-width:0.01" />
<line x1="0" y1="0.027027" x2="0.261721" y2="0.027027" style="stroke:rgb(246,147,147);stroke-width:0.01" />
<line x1="0.234694" y1="0.616162" x2="0.261721" y2="0.643189" style="stroke:rgb(246,147,147);stroke-width:0.01" />
<line x1="0.234694" y1="0.616162" x2="0.383838" y2="0.616162" style="stroke:rgb(246,147,147);stroke-width:0.01" />
<line x1="0.261721" y1="0.643189" x2="0.383838" y2="0.643189" style="stroke:rgb(246,147,147);stroke-width:0.01" />
</g>
</svg>
