<svg xmlns="http://www.w3.org/2000/svg" viewBox="-1.5 -1.5 3 3">
<g transform="scale(1, -1)">
<path d="M-0.225692 -0.321594 L0.009002 -0.321594 L0.036029 -0.294567 L0.036029 0.294567 L0.158146 0.294567 L0.158146 0.321594 L0.036029 0.321594 L0.009002 0.294567 L0.009002 -0.294567 L-0.225692 -0.294567 z " fill="rgb(245,195,195)" />
<path d="M-0.225692 -0.321594 L0.774308 -0.321594 L0.774308 0.678406 L-0.225692 0.678406  z" fill="none" stroke="rgb(128,128,128)" stroke-width="0.01" />
<line x1="0.00900177" y1="-0.321594" x2="0.0360288" y2="-0.294567" style="stroke:rgb(246,147,147);stroke-width:0.01" />
<line x1="-0.225692" y1="-0.321594" x2="0.00900177" y2="-0.321594" style="stroke:rgb(246,147,147);stroke-width:0.01" />
<line x1="-0.225692" y1="-0.321594" x2="-0.225692" y2="-0.294567" style="stroke:rgb(246,147,147);stroke-width:0.01" />
<line x1="0.00900177" y1="-0.321594" x2="0.00900177" y2="0.294567" style="stroke:rgb(246,147,147);stroke-width:0.01" />
<line x1="0.0360288" y1="-0.294567" x2="0.0360288" y2="0.321594" style="stroke:rgb(246,147,147);stroke-width:0.01" />
<line x1="0.158146" y1="0.294567" x2="0.158146" y2="0.321594" style="stroke:rgb(246,147,147);stroke-width:0.01" />
<line x1="-0.225692" y1="-0.294567" x2="0.0360288" y2="-0.294567" style="stroke:rgb(246,147,147);stroke-width:0.01" />
<line x1="0.00900177" y1="0.294567" x2="0.0360288" y2="0.321594" style="stroke:rgb(246,147,147);stroke-width:0.01" />
<line x1="0.00900177" y1="0.294567" x2="0.158146" y2="0.294567" style="stroke:rgb(246,147,147);stroke-width:0.01" />
<line x1="0.0360288" y1="0.321594" x2="0.158146" y2="0.321594" style="stroke:rgb(246,147,147);stroke-width:0.01" />
</g>
</svg>
