<svg xmlns="http://www.w3.org/2000/svg" viewBox="-1.5 -1.5 3 3">
<g transform="scale(1, -1)">
<path d="M-0.265625 -0.389509 L-0.015625 -0.389509 L-0.015625 0.055804 L0.289062 0.055804 L0.289062 0.305804 L-0.015625 0.305804 L-0.265625 0.055804 z " fill="rgb(245,195,195)" />
<path d="M-0.710938 -0.319196 L0.289062 -0.319196 L0.289062 0.680804 L-0.710938 0.680804  z" fill="none" stroke="rgb(128,128,128)" stroke-width="0.01" />
<line x1="-0.265625" y1="-0.389509" x2="-0.015625" y2="-0.389509" style="stroke:rgb(246,147,147);stroke-width:0.01" />
<line x1="-0.265625" y1="0.0558036" x2="-0.015625" y2="0.305804" style="stroke:rgb(246,147,147);stroke-width:0.01" />
<line x1="-0.265625" y1="-0.389509" x2="-0.265625" y2="0.0558036" style="stroke:rgb(246,147,147);stroke-width:0.01" />
<line x1="-0.144531" y1="-0.389509" x2="-0.144531" y2="0.176897" style="stroke:rgb(246,147,147);stroke-width:0.01" />
<line x1="-0.140625" y1="-0.389509" x2="-0.140625" y2="0.180804" style="stroke:rgb(246,147,147);stroke-width:0.01" />
<line x1="-0.138672" y1="-0.389509" x2="-0.138672" y2="0.182757" style="stroke:rgb(246,147,147);stroke-width:0.01" />
<line x1="-0.015625" y1="-0.389509" x2="-0.015625" y2="0.305804" style="stroke:rgb(246,147,147);stroke-width:0.01" />
<line x1="0.289062" y1="0.0558036" x2="0.289062" y2="0.305804" style="stroke:rgb(246,147,147);stroke-width:0.01" />
<line x1="-0.265625" y1="0.0558036" x2="0.289062" y2="0.0558036" style="stroke:rgb(246,147,147);stroke-width:0.01" />
<line x1="-0.144531" y1="0.176897" x2="0.289062" y2="0.176897" style="stroke:rgb(246,147,147);stroke-width:0.01" />
<line x1="-0.140625" y1="0.180804" x2="0.289062" y2="0.180804" style="stroke:rgb(246,147,147);stroke-width:0.01" />
<line x1="-0.138672" y1="0.182757" x2="0.289062" y2="0.182757" style="stroke:rgb(246,147,147);stroke-width:0.01" />
<line x1="-0.015625" y1="0.305804" x2="0.289062" y2="0.305804" style="stroke:rgb(246,147,147);stroke-width:0.01" />
</g>
</svg>
