<svg xmlns="http://www.w3.org/2000/svg" viewBox="-1.5 -1.5 3 3">
<g transform="scale(1, -1)">
<path d="M1.000000 0.384615 L1.247961 0.678630 L1.230224 0.693588 L1.384615 0.750000 L1.384615 1.000000 L1.173775 1.000000 L0.901092 1.323328 L0.692308 1.147247 L0.692308 0.497041 z " fill="rgb(245,195,195)" />
<path d="M0.000000 0.000000 L1.000000 0.000000 L1.000000 1.000000 L0.000000 1.000000  z" fill="none" stroke="rgb(128,128,128)" stroke-width="0.01" />
<line x1="1" y1="0.384615" x2="1.24796" y2="0.67863" style="stroke:rgb(246,147,147);stroke-width:0.01" />
<line x1="0.692308" y1="0.497041" x2="0.692308" y2="1.14725" style="stroke:rgb(246,147,147);stroke-width:0.01" />
<line x1="1" y1="0.384615" x2="1" y2="1" style="stroke:rgb(246,147,147);stroke-width:0.01" />
<line x1="1.38462" y1="0.75" x2="1.38462" y2="1" style="stroke:rgb(246,147,147);stroke-width:0.01" />
<line x1="0.692308" y1="0.497041" x2="1.38462" y2="0.75" style="stroke:rgb(246,147,147);stroke-width:0.01" />
<line x1="0.692308" y1="1.14725" x2="0.901092" y2="1.32333" style="stroke:rgb(246,147,147);stroke-width:0.01" />
<line x1="1" y1="0.384615" x2="0.692308" y2="0.497041" style="stroke:rgb(246,147,147);stroke-width:0.01" />
<line x1="1.38462" y1="0.75" x2="0.901092" y2="1.32333" style="stroke:rgb(246,147,147);stroke-width:0.01" />
<line x1="0.692308" y1="1" x2="1.38462" y2="1" style="stroke:rgb(246,147,147);stroke-width:0.01" />
<line x1="1.24796" y1="0.67863" x2="0.692308" y2="1.14725" style="stroke:rgb(246,147,147);stroke-width:0.01" />
</g>
</svg>
