<svg xmlns="http://www.w3.org/2000/svg" viewBox="-1.5 -1.5 3 3">
<g transform="scale(1, -1)">
<path d="M0.154655 0.133858 L0.472773 0.186295 L0.491551 0.536803 L0.252076 0.682899 L0.115873 0.593224 L0.109222 0.612840 L0.091674 0.577292 L0.064465 0.559378 L0.081136 0.555944 L-0.025641 0.339636 z M0.178402 0.408781 L0.132068 0.545452 L0.235028 0.524244 L0.224293 0.424333 z " fill="rgb(245,195,195)" />
<path d="M0.000000 0.000000 L1.000000 0.000000 L1.000000 1.000000 L0.000000 1.000000  z" fill="none" stroke="rgb(128,128,128)" stroke-width="0.01" />
<line x1="0.154655" y1="0.133858" x2="0.265446" y2="0.401284" style="stroke:rgb(246,147,147);stroke-width:0.01" />
<line x1="0.206642" y1="0.260066" x2="0.353792" y2="0.577751" style="stroke:rgb(246,147,147);stroke-width:0.01" />
<line x1="0.472773" y1="0.186295" x2="0.491551" y2="0.536803" style="stroke:rgb(246,147,147);stroke-width:0.01" />
<line x1="0.206642" y1="0.260066" x2="0.252076" y2="0.682899" style="stroke:rgb(246,147,147);stroke-width:0.01" />
<line x1="0.265415" y1="0.152115" x2="0.265446" y2="0.401284" style="stroke:rgb(246,147,147);stroke-width:0.01" />
<line x1="0.265446" y1="0.401284" x2="0.320084" y2="0.455923" style="stroke:rgb(246,147,147);stroke-width:0.01" />
<line x1="-0.025641" y1="0.339636" x2="0.109222" y2="0.61284" style="stroke:rgb(246,147,147);stroke-width:0.01" />
<line x1="0.265415" y1="0.152115" x2="0.109222" y2="0.61284" style="stroke:rgb(246,147,147);stroke-width:0.01" />
<line x1="0.154655" y1="0.133858" x2="0.472773" y2="0.186295" style="stroke:rgb(246,147,147);stroke-width:0.01" />
<line x1="0.154655" y1="0.133858" x2="-0.025641" y2="0.339636" style="stroke:rgb(246,147,147);stroke-width:0.01" />
<line x1="0.320084" y1="0.455923" x2="0.491551" y2="0.536803" style="stroke:rgb(246,147,147);stroke-width:0.01" />
<line x1="0.472773" y1="0.186295" x2="0.206642" y2="0.260066" style="stroke:rgb(246,147,147);stroke-width:0.01" />
<line x1="-0.025641" y1="0.339636" x2="0.490356" y2="0.514495" style="stroke:rgb(246,147,147);stroke-width:0.01" />
<line x1="0.0644654" y1="0.559378" x2="0.252076" y2="0.682899" style="stroke:rgb(246,147,147);stroke-width:0.01" />
<line x1="0.320084" y1="0.455923" x2="0.488085" y2="0.472118" style="stroke:rgb(246,147,147);stroke-width:0.01" />
<line x1="0.488085" y1="0.472118" x2="0.0644654" y2="0.559378" style="stroke:rgb(246,147,147);stroke-width:0.01" />
<line x1="0.491551" y1="0.536803" x2="0.252076" y2="0.682899" style="stroke:rgb(246,147,147);stroke-width:0.01" />
<line x1="0.490356" y1="0.514495" x2="0.353792" y2="0.577751" style="stroke:rgb(246,147,147);stroke-width:0.01" />
</g>
</svg>
