<svg xmlns="http://www.w3.org/2000/svg" viewBox="-1.5 -1.5 3 3">
<g transform="scale(1, -1)">
<path d="M-0.029457 -0.343355 L0.288661 -0.290917 L0.307438 0.059590 L0.067963 0.205687 L-0.068240 0.116011 L-0.074890 0.135628 L-0.092438 0.100079 L-0.119647 0.082165 L-0.102976 0.078731 L-0.209754 -0.137577 z M-0.005711 -0.068432 L-0.052045 0.068240 L0.050916 0.047031 L0.040180 -0.052880 z " fill="rgb(245,195,195)" />
<path d="M-0.184113 -0.477213 L0.815887 -0.477213 L0.815887 0.522787 L-0.184113 0.522787  z" fill="none" stroke="rgb(128,128,128)" stroke-width="0.01" />
<line x1="-0.0294574" y1="-0.343355" x2="0.0813333" y2="-0.0759286" style="stroke:rgb(246,147,147);stroke-width:0.01" />
<line x1="0.0225294" y1="-0.217147" x2="0.16968" y2="0.100538" style="stroke:rgb(246,147,147);stroke-width:0.01" />
<line x1="0.288661" y1="-0.290917" x2="0.307438" y2="0.0595902" style="stroke:rgb(246,147,147);stroke-width:0.01" />
<line x1="0.0225294" y1="-0.217147" x2="0.0679634" y2="0.205687" style="stroke:rgb(246,147,147);stroke-width:0.01" />
<line x1="0.0813027" y1="-0.325097" x2="0.0813333" y2="-0.0759286" style="stroke:rgb(246,147,147);stroke-width:0.01" />
<line x1="0.0813333" y1="-0.0759286" x2="0.135972" y2="-0.0212901" style="stroke:rgb(246,147,147);stroke-width:0.01" />
<line x1="-0.209754" y1="-0.137577" x2="-0.0748901" y2="0.135628" style="stroke:rgb(246,147,147);stroke-width:0.01" />
<line x1="0.0813027" y1="-0.325097" x2="-0.0748901" y2="0.135628" style="stroke:rgb(246,147,147);stroke-width:0.01" />
<line x1="-0.0294574" y1="-0.343355" x2="0.288661" y2="-0.290917" style="stroke:rgb(246,147,147);stroke-width:0.01" />
<line x1="-0.0294574" y1="-0.343355" x2="-0.209754" y2="-0.137577" style="stroke:rgb(246,147,147);stroke-width:0.01" />
<line x1="0.135972" y1="-0.0212901" x2="0.307438" y2="0.0595902" style="stroke:rgb(246,147,147);stroke-width:0.01" />
<line x1="0.288661" y1="-0.290917" x2="0.0225294" y2="-0.217147" style="stroke:rgb(246,147,147);stroke-width:0.01" />
<line x1="-0.209754" y1="-0.137577" x2="0.306243" y2="0.0372826" style="stroke:rgb(246,147,147);stroke-width:0.01" />
<line x1="-0.119647" y1="0.0821648" x2="0.0679634" y2="0.205687" style="stroke:rgb(246,147,147);stroke-width:0.01" />
<line x1="0.135972" y1="-0.0212901" x2="0.303973" y2="-0.0050947" style="stroke:rgb(246,147,147);stroke-width:0.01" />
<line x1="0.303973" y1="-0.0050947" x2="-0.119647" y2="0.0821648" style="stroke:rgb(246,147,147);stroke-width:0.01" />
<line x1="0.307438" y1="0.0595902" x2="0.0679634" y2="0.205687" style="stroke:rgb(246,147,147);stroke-width:0.01" />
<line x1="0.306243" y1="0.0372826" x2="0.16968" y2="0.100538" style="stroke:rgb(246,147,147);stroke-width:0.01" />
</g>
</svg>
