<svg xmlns="http://www.w3.org/2000/svg" viewBox="-1.5 -1.5 3 3">
<g transform="scale(1, -1)">
<path d="M-0.581462 -0.138469 L-0.126453 -0.066449 L0.234221 -0.066449 L0.300888 -0.033115 L0.296095 0.000433 L0.406241 0.017867 L-0.165779 0.433551 L-0.665779 -0.066449 L-0.529126 -0.066449 z M0.277078 -0.009306 L0.271269 -0.003496 L0.282805 -0.001670 z " fill="rgb(245,195,195)" />
<path d="M-0.665779 -0.066449 L0.334221 -0.066449 L0.334221 0.933551 L-0.665779 0.933551  z" fill="none" stroke="rgb(128,128,128)" stroke-width="0.01" />
<line x1="0.234221" y1="-0.0664488" x2="0.294221" y2="0.0135512" style="stroke:rgb(246,147,147);stroke-width:0.01" />
<line x1="0.234221" y1="-0.0664488" x2="0.300888" y2="-0.0331154" style="stroke:rgb(246,147,147);stroke-width:0.01" />
<line x1="-0.581462" y1="-0.138469" x2="0.406241" y2="0.0178674" style="stroke:rgb(246,147,147);stroke-width:0.01" />
<line x1="-0.581462" y1="-0.138469" x2="-0.165779" y2="0.433551" style="stroke:rgb(246,147,147);stroke-width:0.01" />
<line x1="-0.665779" y1="-0.0664488" x2="0.234221" y2="-0.0664488" style="stroke:rgb(246,147,147);stroke-width:0.01" />
<line x1="-0.665779" y1="-0.0664488" x2="-0.165779" y2="0.433551" style="stroke:rgb(246,147,147);stroke-width:0.01" />
<line x1="-0.126453" y1="-0.0664488" x2="-0.165779" y2="0.433551" style="stroke:rgb(246,147,147);stroke-width:0.01" />
<line x1="0.300888" y1="-0.0331154" x2="0.294221" y2="0.0135512" style="stroke:rgb(246,147,147);stroke-width:0.01" />
<line x1="0.300888" y1="-0.0331154" x2="-0.165779" y2="0.433551" style="stroke:rgb(246,147,147);stroke-width:0.01" />
<line x1="0.406241" y1="0.0178674" x2="-0.165779" y2="0.433551" style="stroke:rgb(246,147,147);stroke-width:0.01" />
</g>
</svg>
