<svg xmlns="http://www.w3.org/2000/svg" viewBox="-1.5 -1.5 3 3">
<g transform="scale(1, -1)">
<path d="M0.084316 -0.072020 L0.539326 0.000000 L0.900000 0.000000 L0.966667 0.033333 L0.961874 0.066882 L1.072020 0.084316 L0.500000 0.500000 L0.000000 0.000000 L0.136653 0.000000 z M0.942857 0.057143 L0.937048 0.062952 L0.948584 0.064778 z " fill="rgb(245,195,195)" />
<path d="M0.000000 0.000000 L1.000000 0.000000 L1.000000 1.000000 L0.000000 1.000000  z" fill="none" stroke="rgb(128,128,128)" stroke-width="0.01" />
<line x1="0.9" y1="0" x2="0.96" y2="0.08" style="stroke:rgb(246,147,147);stroke-width:0.01" />
<line x1="0.9" y1="0" x2="0.966667" y2="0.0333333" style="stroke:rgb(246,147,147);stroke-width:0.01" />
<line x1="0.0843162" y1="-0.0720201" x2="1.07202" y2="0.0843162" style="stroke:rgb(246,147,147);stroke-width:0.01" />
<line x1="0.0843162" y1="-0.0720201" x2="0.5" y2="0.5" style="stroke:rgb(246,147,147);stroke-width:0.01" />
<line x1="0" y1="0" x2="0.9" y2="0" style="stroke:rgb(246,147,147);stroke-width:0.01" />
<line x1="0" y1="0" x2="0.5" y2="0.5" style="stroke:rgb(246,147,147);stroke-width:0.01" />
<line x1="0.539326" y1="0" x2="0.5" y2="0.5" style="stroke:rgb(246,147,147);stroke-width:0.01" />
<line x1="0.966667" y1="0.0333333" x2="0.96" y2="0.08" style="stroke:rgb(246,147,147);stroke-width:0.01" />
<line x1="0.966667" y1="0.0333333" x2="0.5" y2="0.5" style="stroke:rgb(246,147,147);stroke-width:0.01" />
<line x1="1.07202" y1="0.0843162" x2="0.5" y2="0.5" style="stroke:rgb(246,147,147);stroke-width:0.01" />
</g>
</svg>
