<svg xmlns="http://www.w3.org/2000/svg" viewBox="-1.5 -1.5 3 3">
<g transform="scale(1, -1)">
<path d="M-0.158936 -0.298828 L0.007080 -0.298828 L0.007080 0.062500 L0.311768 0.062500 L0.311768 0.312500 L0.007080 0.312500 L-0.242920 0.062500 L-0.242920 -0.214844 z " fill="rgb(245,195,195)" />
<path d="M-0.688232 -0.312500 L0.311768 -0.312500 L0.311768 0.687500 L-0.688232 0.687500  z" fill="none" stroke="rgb(128,128,128)" stroke-width="0.01" />
<line x1="-0.158936" y1="-0.298828" x2="-0.0749512" y2="-0.214844" style="stroke:rgb(246,147,147);stroke-width:0.01" />
<line x1="-0.24292" y1="0.0625" x2="0.00708008" y2="0.3125" style="stroke:rgb(246,147,147);stroke-width:0.01" />
<line x1="-0.24292" y1="-0.214844" x2="-0.24292" y2="0.0625" style="stroke:rgb(246,147,147);stroke-width:0.01" />
<line x1="-0.121826" y1="-0.298828" x2="-0.121826" y2="0.183594" style="stroke:rgb(246,147,147);stroke-width:0.01" />
<line x1="-0.11792" y1="-0.298828" x2="-0.11792" y2="0.1875" style="stroke:rgb(246,147,147);stroke-width:0.01" />
<line x1="-0.115967" y1="-0.298828" x2="-0.115967" y2="0.189453" style="stroke:rgb(246,147,147);stroke-width:0.01" />
<line x1="-0.0749512" y1="-0.298828" x2="-0.0749512" y2="-0.214844" style="stroke:rgb(246,147,147);stroke-width:0.01" />
<line x1="0.00708008" y1="-0.298828" x2="0.00708008" y2="0.3125" style="stroke:rgb(246,147,147);stroke-width:0.01" />
<line x1="0.311768" y1="0.0625" x2="0.311768" y2="0.3125" style="stroke:rgb(246,147,147);stroke-width:0.01" />
<line x1="-0.158936" y1="-0.298828" x2="0.00708008" y2="-0.298828" style="stroke:rgb(246,147,147);stroke-width:0.01" />
<line x1="-0.121826" y1="-0.261719" x2="-0.0749512" y2="-0.261719" style="stroke:rgb(246,147,147);stroke-width:0.01" />
<line x1="-0.11792" y1="-0.257812" x2="-0.0749512" y2="-0.257812" style="stroke:rgb(246,147,147);stroke-width:0.01" />
<line x1="-0.115967" y1="-0.255859" x2="-0.0749512" y2="-0.255859" style="stroke:rgb(246,147,147);stroke-width:0.01" />
<line x1="-0.24292" y1="-0.214844" x2="0.00708008" y2="-0.214844" style="stroke:rgb(246,147,147);stroke-width:0.01" />
<line x1="-0.158936" y1="-0.298828" x2="-0.24292" y2="-0.214844" style="stroke:rgb(246,147,147);stroke-width:0.01" />
<line x1="-0.24292" y1="0.0625" x2="0.311768" y2="0.0625" style="stroke:rgb(246,147,147);stroke-width:0.01" />
<line x1="-0.121826" y1="0.183594" x2="0.311768" y2="0.183594" style="stroke:rgb(246,147,147);stroke-width:0.01" />
<line x1="-0.11792" y1="0.1875" x2="0.311768" y2="0.1875" style="stroke:rgb(246,147,147);stroke-width:0.01" />
<line x1="-0.115967" y1="0.189453" x2="0.311768" y2="0.189453" style="stroke:rgb(246,147,147);stroke-width:0.01" />
<line x1="0.00708008" y1="0.3125" x2="0.311768" y2="0.3125" style="stroke:rgb(246,147,147);stroke-width:0.01" />
</g>
</svg>
