<svg xmlns="http://www.w3.org/2000/svg" viewBox="-1.5 -1.5 3 3">
<g transform="scale(1, -1)">
<path d="M0.241379 -0.103448 L0.784483 0.413793 L0.612069 0.594828 L0.521552 0.508621 L0.435345 0.599138 L0.344828 0.512931 L0.258621 0.603448 L-0.103448 0.258621 z " fill="rgb(245,195,195)" />
<path d="M0.000000 0.000000 L1.000000 0.000000 L1.000000 1.000000 L0.000000 1.000000  z" fill="none" stroke="rgb(128,128,128)" stroke-width="0.01" />
<line x1="0.241379" y1="-0.103448" x2="0.784483" y2="0.413793" style="stroke:rgb(246,147,147);stroke-width:0.01" />
<line x1="0.517241" y1="0.331897" x2="0.607759" y2="0.418103" style="stroke:rgb(246,147,147);stroke-width:0.01" />
<line x1="0.422414" y1="0.0689655" x2="0.431034" y2="0.422414" style="stroke:rgb(246,147,147);stroke-width:0.01" />
<line x1="0.241379" y1="-0.103448" x2="0.258621" y2="0.603448" style="stroke:rgb(246,147,147);stroke-width:0.01" />
<line x1="0.0689655" y1="0.0775862" x2="0.0775862" y2="0.431034" style="stroke:rgb(246,147,147);stroke-width:0.01" />
<line x1="0.0689655" y1="0.0775862" x2="0.612069" y2="0.594828" style="stroke:rgb(246,147,147);stroke-width:0.01" />
<line x1="0.241379" y1="-0.103448" x2="-0.103448" y2="0.258621" style="stroke:rgb(246,147,147);stroke-width:0.01" />
<line x1="0.422414" y1="0.0689655" x2="0.0689655" y2="0.0775862" style="stroke:rgb(246,147,147);stroke-width:0.01" />
<line x1="0.163793" y1="0.340517" x2="0.435345" y2="0.599138" style="stroke:rgb(246,147,147);stroke-width:0.01" />
<line x1="-0.103448" y1="0.258621" x2="0.258621" y2="0.603448" style="stroke:rgb(246,147,147);stroke-width:0.01" />
<line x1="0.422414" y1="0.0689655" x2="0.25" y2="0.25" style="stroke:rgb(246,147,147);stroke-width:0.01" />
<line x1="0.163793" y1="0.340517" x2="0.0775862" y2="0.431034" style="stroke:rgb(246,147,147);stroke-width:0.01" />
<line x1="0.693966" y1="0.327586" x2="0.163793" y2="0.340517" style="stroke:rgb(246,147,147);stroke-width:0.01" />
<line x1="0.603448" y1="0.241379" x2="0.258621" y2="0.603448" style="stroke:rgb(246,147,147);stroke-width:0.01" />
<line x1="0.784483" y1="0.413793" x2="0.0775862" y2="0.431034" style="stroke:rgb(246,147,147);stroke-width:0.01" />
<line x1="0.693966" y1="0.327586" x2="0.435345" y2="0.599138" style="stroke:rgb(246,147,147);stroke-width:0.01" />
<line x1="0.784483" y1="0.413793" x2="0.612069" y2="0.594828" style="stroke:rgb(246,147,147);stroke-width:0.01" />
</g>
</svg>
