<svg xmlns="http://www.w3.org/2000/svg" viewBox="-1.5 -1.5 3 3">
<g transform="scale(1, -1)">
<path d="M-0.145474 -0.526940 L0.397629 -0.009698 L0.225216 0.171336 L0.134698 0.085129 L0.048491 0.175647 L-0.042026 0.089440 L-0.128233 0.179957 L-0.490302 -0.164871 z " fill="rgb(245,195,195)" />
<path d="M-0.386853 -0.423491 L0.613147 -0.423491 L0.613147 0.576509 L-0.386853 0.576509  z" fill="none" stroke="rgb(128,128,128)" stroke-width="0.01" />
<line x1="-0.145474" y1="-0.52694" x2="0.397629" y2="-0.00969828" style="stroke:rgb(246,147,147);stroke-width:0.01" />
<line x1="0.130388" y1="-0.0915948" x2="0.220905" y2="-0.00538793" style="stroke:rgb(246,147,147);stroke-width:0.01" />
<line x1="0.0355603" y1="-0.354526" x2="0.044181" y2="-0.00107759" style="stroke:rgb(246,147,147);stroke-width:0.01" />
<line x1="-0.145474" y1="-0.52694" x2="-0.128233" y2="0.179957" style="stroke:rgb(246,147,147);stroke-width:0.01" />
<line x1="-0.317888" y1="-0.345905" x2="-0.309267" y2="0.0075431" style="stroke:rgb(246,147,147);stroke-width:0.01" />
<line x1="-0.317888" y1="-0.345905" x2="0.225216" y2="0.171336" style="stroke:rgb(246,147,147);stroke-width:0.01" />
<line x1="-0.145474" y1="-0.52694" x2="-0.490302" y2="-0.164871" style="stroke:rgb(246,147,147);stroke-width:0.01" />
<line x1="0.0355603" y1="-0.354526" x2="-0.317888" y2="-0.345905" style="stroke:rgb(246,147,147);stroke-width:0.01" />
<line x1="-0.22306" y1="-0.0829741" x2="0.0484914" y2="0.175647" style="stroke:rgb(246,147,147);stroke-width:0.01" />
<line x1="-0.490302" y1="-0.164871" x2="-0.128233" y2="0.179957" style="stroke:rgb(246,147,147);stroke-width:0.01" />
<line x1="0.0355603" y1="-0.354526" x2="-0.136853" y2="-0.173491" style="stroke:rgb(246,147,147);stroke-width:0.01" />
<line x1="-0.22306" y1="-0.0829741" x2="-0.309267" y2="0.0075431" style="stroke:rgb(246,147,147);stroke-width:0.01" />
<line x1="0.307112" y1="-0.0959052" x2="-0.22306" y2="-0.0829741" style="stroke:rgb(246,147,147);stroke-width:0.01" />
<line x1="0.216595" y1="-0.182112" x2="-0.128233" y2="0.179957" style="stroke:rgb(246,147,147);stroke-width:0.01" />
<line x1="0.397629" y1="-0.00969828" x2="-0.309267" y2="0.0075431" style="stroke:rgb(246,147,147);stroke-width:0.01" />
<line x1="0.307112" y1="-0.0959052" x2="0.0484914" y2="0.175647" style="stroke:rgb(246,147,147);stroke-width:0.01" />
<line x1="0.397629" y1="-0.00969828" x2="0.225216" y2="0.171336" style="stroke:rgb(246,147,147);stroke-width:0.01" />
</g>
</svg>
