<svg xmlns="http://www.w3.org/2000/svg" viewBox="-1.5 -1.5 3 3">
<g transform="scale(1, -1)">
<path d="M-0.497938 0.045361 L-0.475258 0.294330 L-0.226289 0.271649 L0.045361 0.497938 L-0.203608 0.520619 L-0.180928 0.769588 L-0.407216 1.041237 L-0.429897 0.792268 L-0.678866 0.814948 L-0.950515 0.588660 L-0.701546 0.565979 L-0.724227 0.317010 z " fill="rgb(245,195,195)" />
<path d="M0.000000 0.000000 L1.000000 0.000000 L1.000000 1.000000 L0.000000 1.000000  z" fill="none" stroke="rgb(128,128,128)" stroke-width="0.01" />
<line x1="-0.497938" y1="0.0453608" x2="-0.724227" y2="0.31701" style="stroke:rgb(246,147,147);stroke-width:0.01" />
<line x1="-0.226289" y1="0.271649" x2="-0.678866" y2="0.814948" style="stroke:rgb(246,147,147);stroke-width:0.01" />
<line x1="-0.226289" y1="0.271649" x2="-0.180928" y2="0.769588" style="stroke:rgb(246,147,147);stroke-width:0.01" />
<line x1="-0.497938" y1="0.0453608" x2="-0.407216" y2="1.04124" style="stroke:rgb(246,147,147);stroke-width:0.01" />
<line x1="-0.724227" y1="0.31701" x2="-0.678866" y2="0.814948" style="stroke:rgb(246,147,147);stroke-width:0.01" />
<line x1="-0.180928" y1="0.769588" x2="-0.407216" y2="1.04124" style="stroke:rgb(246,147,147);stroke-width:0.01" />
<line x1="-0.226289" y1="0.271649" x2="-0.724227" y2="0.31701" style="stroke:rgb(246,147,147);stroke-width:0.01" />
<line x1="-0.226289" y1="0.271649" x2="0.0453608" y2="0.497938" style="stroke:rgb(246,147,147);stroke-width:0.01" />
<line x1="0.0453608" y1="0.497938" x2="-0.950515" y2="0.58866" style="stroke:rgb(246,147,147);stroke-width:0.01" />
<line x1="-0.724227" y1="0.31701" x2="-0.180928" y2="0.769588" style="stroke:rgb(246,147,147);stroke-width:0.01" />
<line x1="-0.180928" y1="0.769588" x2="-0.678866" y2="0.814948" style="stroke:rgb(246,147,147);stroke-width:0.01" />
<line x1="-0.950515" y1="0.58866" x2="-0.678866" y2="0.814948" style="stroke:rgb(246,147,147);stroke-width:0.01" />
</g>
</svg>
