<svg xmlns="http://www.w3.org/2000/svg" viewBox="-1.5 -1.5 3 3">
<g transform="scale(1, -1)">
<path d="M741654789322.102905 313482503122628334611004805937925820537003573248.000000 L741654789322.602905 313482503122628334611004805937925820537003573248.000000 L741654789322.852905 313482503122628334611004805937925820537003573248.000000 L741654789322.352905 313482503122628334611004805937925820537003573248.000000 L741654789322.352905 313482503122628334611004805937925820537003573248.000000 L741654789322.102905 313482503122628334611004805937925820537003573248.000000 L741654789322.102905 313482503122628334611004805937925820537003573248.000000 L741654789321.852905 313482503122628334611004805937925820537003573248.000000 z " fill="rgb(245,195,195)" />
<path d="M0.000000 0.000000 L1.000000 0.000000 L1.000000 1.000000 L0.000000 1.000000  z" fill="none" stroke="rgb(128,128,128)" stroke-width="0.01" />
<line x1="7.41655e+11" y1="3.13483e+47" x2="7.41655e+11" y2="3.13483e+47" style="stroke:rgb(246,147,147);stroke-width:0.01" />
<line x1="7.41655e+11" y1="3.13483e+47" x2="7.41655e+11" y2="3.13483e+47" style="stroke:rgb(246,147,147);stroke-width:0.01" />
<line x1="7.41655e+11" y1="3.13483e+47" x2="7.41655e+11" y2="3.13483e+47" style="stroke:rgb(246,147,147);stroke-width:0.01" />
<line x1="7.41655e+11" y1="3.13483e+47" x2="7.41655e+11" y2="3.13483e+47" style="stroke:rgb(246,147,147);stroke-width:0.01" />
<line x1="7.41655e+11" y1="3.13483e+47" x2="7.41655e+11" y2="3.13483e+47" style="stroke:rgb(246,147,147);stroke-width:0.01" />
<line x1="7.41655e+11" y1="3.13483e+47" x2="7.41655e+11" y2="3.13483e+47" style="stroke:rgb(246,147,147);stroke-width:0.01" />
<line x1="7.41655e+11" y1="3.13483e+47" x2="7.41655e+11" y2="3.13483e+47" style="stroke:rgb(246,147,147);stroke-width:0.01" />
<line x1="7.41655e+11" y1="3.13483e+47" x2="7.41655e+11" y2="3.13483e+47" style="stroke:rgb(246,147,147);stroke-width:0.01" />
<line x1="7.41655e+11" y1="3.13483e+47" x2="7.41655e+11" y2="3.13483e+47" style="stroke:rgb(246,147,147);stroke-width:0.01" />
</g>
</svg>
