<svg xmlns="http://www.w3.org/2000/svg" viewBox="-1.5 -1.5 3 3">
<g transform="scale(1, -1)">
<path d="M0.489130 -0.510870 L0.489130 -0.467391 L-0.467391 0.489130 L-0.510870 0.489130 z " fill="rgb(245,195,195)" />
<path d="M-2.989130 0.010870 L-1.989130 0.010870 L-1.989130 1.010870 L-2.989130 1.010870  z" fill="none" stroke="rgb(128,128,128)" stroke-width="0.01" />
<line x1="0.445652" y1="-0.467391" x2="0.48913" y2="-0.467391" style="stroke:rgb(246,147,147);stroke-width:0.01" />
<line x1="0.402174" y1="-0.423913" x2="0.445652" y2="-0.423913" style="stroke:rgb(246,147,147);stroke-width:0.01" />
<line x1="0.358696" y1="-0.380435" x2="0.402174" y2="-0.380435" style="stroke:rgb(246,147,147);stroke-width:0.01" />
<line x1="0.315217" y1="-0.336957" x2="0.358696" y2="-0.336957" style="stroke:rgb(246,147,147);stroke-width:0.01" />
<line x1="0.271739" y1="-0.293478" x2="0.315217" y2="-0.293478" style="stroke:rgb(246,147,147);stroke-width:0.01" />
<line x1="0.228261" y1="-0.25" x2="0.271739" y2="-0.25" style="stroke:rgb(246,147,147);stroke-width:0.01" />
<line x1="0.184783" y1="-0.206522" x2="0.228261" y2="-0.206522" style="stroke:rgb(246,147,147);stroke-width:0.01" />
<line x1="0.141304" y1="-0.163043" x2="0.184783" y2="-0.163043" style="stroke:rgb(246,147,147);stroke-width:0.01" />
<line x1="0.0978261" y1="-0.119565" x2="0.141304" y2="-0.119565" style="stroke:rgb(246,147,147);stroke-width:0.01" />
<line x1="0.0543478" y1="-0.076087" x2="0.0978261" y2="-0.076087" style="stroke:rgb(246,147,147);stroke-width:0.01" />
<line x1="0.0108696" y1="-0.0326087" x2="0.0543478" y2="-0.0326087" style="stroke:rgb(246,147,147);stroke-width:0.01" />
<line x1="-0.0326087" y1="0.0108696" x2="0.0108696" y2="0.0108696" style="stroke:rgb(246,147,147);stroke-width:0.01" />
<line x1="-0.467391" y1="0.445652" x2="-0.467391" y2="0.48913" style="stroke:rgb(246,147,147);stroke-width:0.01" />
<line x1="-0.423913" y1="0.402174" x2="-0.423913" y2="0.445652" style="stroke:rgb(246,147,147);stroke-width:0.01" />
<line x1="-0.380435" y1="0.358696" x2="-0.380435" y2="0.402174" style="stroke:rgb(246,147,147);stroke-width:0.01" />
<line x1="-0.336957" y1="0.315217" x2="-0.336957" y2="0.358696" style="stroke:rgb(246,147,147);stroke-width:0.01" />
<line x1="-0.293478" y1="0.271739" x2="-0.293478" y2="0.315217" style="stroke:rgb(246,147,147);stroke-width:0.01" />
<line x1="-0.25" y1="0.228261" x2="-0.25" y2="0.271739" style="stroke:rgb(246,147,147);stroke-width:0.01" />
<line x1="-0.206522" y1="0.184783" x2="-0.206522" y2="0.228261" style="stroke:rgb(246,147,147);stroke-width:0.01" />
<line x1="-0.163043" y1="0.141304" x2="-0.163043" y2="0.184783" style="stroke:rgb(246,147,147);stroke-width:0.01" />
<line x1="-0.119565" y1="0.0978261" x2="-0.119565" y2="0.141304" style="stroke:rgb(246,147,147);stroke-width:0.01" />
<line x1="-0.076087" y1="0.0543478" x2="-0.076087" y2="0.0978261" style="stroke:rgb(246,147,147);stroke-width:0.01" />
<line x1="-0.0326087" y1="0.0108696" x2="-0.0326087" y2="0.0543478" style="stroke:rgb(246,147,147);stroke-width:0.01" />
<line x1="0.0108696" y1="-0.0326087" x2="0.0108696" y2="0.0108696" style="stroke:rgb(246,147,147);stroke-width:0.01" />
<line x1="0.0543478" y1="-0.076087" x2="0.0543478" y2="-0.0326087" style="stroke:rgb(246,147,147);stroke-width:0.01" />
<line x1="0.0978261" y1="-0.119565" x2="0.0978261" y2="-0.076087" style="stroke:rgb(246,147,147);stroke-width:0.01" />
<line x1="0.141304" y1="-0.163043" x2="0.141304" y2="-0.119565" style="stroke:rgb(246,147,147);stroke-width:0.01" />
<line x1="0.184783" y1="-0.206522" x2="0.184783" y2="-0.163043" style="stroke:rgb(246,147,147);stroke-width:0.01" />
<line x1="0.228261" y1="-0.25" x2="0.228261" y2="-0.206522" style="stroke:rgb(246,147,147);stroke-width:0.01" />
<line x1="0.271739" y1="-0.293478" x2="0.271739" y2="-0.25" style="stroke:rgb(246,147,147);stroke-width:0.01" />
<line x1="0.315217" y1="-0.336957" x2="0.315217" y2="-0.293478" style="stroke:rgb(246,147,147);stroke-width:0.01" />
<line x1="0.358696" y1="-0.380435" x2="0.358696" y2="-0.336957" style="stroke:rgb(246,147,147);stroke-width:0.01" />
<line x1="0.402174" y1="-0.423913" x2="0.402174" y2="-0.380435" style="stroke:rgb(246,147,147);stroke-width:0.01" />
<line x1="0.445652" y1="-0.467391" x2="0.445652" y2="-0.423913" style="stroke:rgb(246,147,147);stroke-width:0.01" />
<line x1="0.48913" y1="-0.51087" x2="0.48913" y2="-0.467391" style="stroke:rgb(246,147,147);stroke-width:0.01" />
<line x1="-0.076087" y1="0.0543478" x2="-0.0326087" y2="0.0543478" style="stroke:rgb(246,147,147);stroke-width:0.01" />
<line x1="-0.119565" y1="0.0978261" x2="-0.076087" y2="0.0978261" style="stroke:rgb(246,147,147);stroke-width:0.01" />
<line x1="-0.163043" y1="0.141304" x2="-0.119565" y2="0.141304" style="stroke:rgb(246,147,147);stroke-width:0.01" />
<line x1="-0.206522" y1="0.184783" x2="-0.163043" y2="0.184783" style="stroke:rgb(246,147,147);stroke-width:0.01" />
<line x1="-0.25" y1="0.228261" x2="-0.206522" y2="0.228261" style="stroke:rgb(246,147,147);stroke-width:0.01" />
<line x1="-0.293478" y1="0.271739" x2="-0.25" y2="0.271739" style="stroke:rgb(246,147,147);stroke-width:0.01" />
<line x1="-0.336957" y1="0.315217" x2="-0.293478" y2="0.315217" style="stroke:rgb(246,147,147);stroke-width:0.01" />
<line x1="-0.380435" y1="0.358696" x2="-0.336957" y2="0.358696" style="stroke:rgb(246,147,147);stroke-width:0.01" />
<line x1="-0.423913" y1="0.402174" x2="-0.380435" y2="0.402174" style="stroke:rgb(246,147,147);stroke-width:0.01" />
<line x1="-0.467391" y1="0.445652" x2="-0.423913" y2="0.445652" style="stroke:rgb(246,147,147);stroke-width:0.01" />
<line x1="-0.51087" y1="0.48913" x2="-0.467391" y2="0.48913" style="stroke:rgb(246,147,147);stroke-width:0.01" />
<line x1="0.48913" y1="-0.51087" x2="-0.51087" y2="0.48913" style="stroke:rgb(246,147,147);stroke-width:0.01" />
<line x1="0.48913" y1="-0.467391" x2="-0.467391" y2="0.48913" style="stroke:rgb(246,147,147);stroke-width:0.01" />
</g>
</svg>
