<svg xmlns="http://www.w3.org/2000/svg" viewBox="-1.5 -1.5 3 3">
<g transform="scale(1, -1)">
<path d="M3.458333 -0.500000 L3.500000 -0.500000 L2.500000 0.500000 L2.500000 0.458333 z " fill="rgb(245,195,195)" />
<path d="M0.000000 0.000000 L1.000000 0.000000 L1.000000 1.000000 L0.000000 1.000000  z" fill="none" stroke="rgb(128,128,128)" stroke-width="0.01" />
<line x1="3.45833" y1="-0.5" x2="3.5" y2="-0.5" style="stroke:rgb(246,147,147);stroke-width:0.01" />
<line x1="3.41667" y1="-0.458333" x2="3.45833" y2="-0.458333" style="stroke:rgb(246,147,147);stroke-width:0.01" />
<line x1="3.375" y1="-0.416667" x2="3.41667" y2="-0.416667" style="stroke:rgb(246,147,147);stroke-width:0.01" />
<line x1="3.33333" y1="-0.375" x2="3.375" y2="-0.375" style="stroke:rgb(246,147,147);stroke-width:0.01" />
<line x1="3.29167" y1="-0.333333" x2="3.33333" y2="-0.333333" style="stroke:rgb(246,147,147);stroke-width:0.01" />
<line x1="3.25" y1="-0.291667" x2="3.29167" y2="-0.291667" style="stroke:rgb(246,147,147);stroke-width:0.01" />
<line x1="3.20833" y1="-0.25" x2="3.25" y2="-0.25" style="stroke:rgb(246,147,147);stroke-width:0.01" />
<line x1="3.16667" y1="-0.208333" x2="3.20833" y2="-0.208333" style="stroke:rgb(246,147,147);stroke-width:0.01" />
<line x1="3.125" y1="-0.166667" x2="3.16667" y2="-0.166667" style="stroke:rgb(246,147,147);stroke-width:0.01" />
<line x1="3.08333" y1="-0.125" x2="3.125" y2="-0.125" style="stroke:rgb(246,147,147);stroke-width:0.01" />
<line x1="3.04167" y1="-0.0833333" x2="3.08333" y2="-0.0833333" style="stroke:rgb(246,147,147);stroke-width:0.01" />
<line x1="3" y1="-0.0416667" x2="3.04167" y2="-0.0416667" style="stroke:rgb(246,147,147);stroke-width:0.01" />
<line x1="2.95833" y1="0" x2="3" y2="0" style="stroke:rgb(246,147,147);stroke-width:0.01" />
<line x1="2.5" y1="0.458333" x2="2.5" y2="0.5" style="stroke:rgb(246,147,147);stroke-width:0.01" />
<line x1="2.54167" y1="0.416667" x2="2.54167" y2="0.458333" style="stroke:rgb(246,147,147);stroke-width:0.01" />
<line x1="2.58333" y1="0.375" x2="2.58333" y2="0.416667" style="stroke:rgb(246,147,147);stroke-width:0.01" />
<line x1="2.625" y1="0.333333" x2="2.625" y2="0.375" style="stroke:rgb(246,147,147);stroke-width:0.01" />
<line x1="2.66667" y1="0.291667" x2="2.66667" y2="0.333333" style="stroke:rgb(246,147,147);stroke-width:0.01" />
<line x1="2.70833" y1="0.25" x2="2.70833" y2="0.291667" style="stroke:rgb(246,147,147);stroke-width:0.01" />
<line x1="2.75" y1="0.208333" x2="2.75" y2="0.25" style="stroke:rgb(246,147,147);stroke-width:0.01" />
<line x1="2.79167" y1="0.166667" x2="2.79167" y2="0.208333" style="stroke:rgb(246,147,147);stroke-width:0.01" />
<line x1="2.83333" y1="0.125" x2="2.83333" y2="0.166667" style="stroke:rgb(246,147,147);stroke-width:0.01" />
<line x1="2.875" y1="0.0833333" x2="2.875" y2="0.125" style="stroke:rgb(246,147,147);stroke-width:0.01" />
<line x1="2.91667" y1="0.0416667" x2="2.91667" y2="0.0833333" style="stroke:rgb(246,147,147);stroke-width:0.01" />
<line x1="2.95833" y1="0" x2="2.95833" y2="0.0416667" style="stroke:rgb(246,147,147);stroke-width:0.01" />
<line x1="3" y1="-0.0416667" x2="3" y2="0" style="stroke:rgb(246,147,147);stroke-width:0.01" />
<line x1="3.04167" y1="-0.0833333" x2="3.04167" y2="-0.0416667" style="stroke:rgb(246,147,147);stroke-width:0.01" />
<line x1="3.08333" y1="-0.125" x2="3.08333" y2="-0.0833333" style="stroke:rgb(246,147,147);stroke-width:0.01" />
<line x1="3.125" y1="-0.166667" x2="3.125" y2="-0.125" style="stroke:rgb(246,147,147);stroke-width:0.01" />
<line x1="3.16667" y1="-0.208333" x2="3.16667" y2="-0.166667" style="stroke:rgb(246,147,147);stroke-width:0.01" />
<line x1="3.20833" y1="-0.25" x2="3.20833" y2="-0.208333" style="stroke:rgb(246,147,147);stroke-width:0.01" />
<line x1="3.25" y1="-0.291667" x2="3.25" y2="-0.25" style="stroke:rgb(246,147,147);stroke-width:0.01" />
<line x1="3.29167" y1="-0.333333" x2="3.29167" y2="-0.291667" style="stroke:rgb(246,147,147);stroke-width:0.01" />
<line x1="3.33333" y1="-0.375" x2="3.33333" y2="-0.333333" style="stroke:rgb(246,147,147);stroke-width:0.01" />
<line x1="3.375" y1="-0.416667" x2="3.375" y2="-0.375" style="stroke:rgb(246,147,147);stroke-width:0.01" />
<line x1="3.41667" y1="-0.458333" x2="3.41667" y2="-0.416667" style="stroke:rgb(246,147,147);stroke-width:0.01" />
<line x1="3.45833" y1="-0.5" x2="3.45833" y2="-0.458333" style="stroke:rgb(246,147,147);stroke-width:0.01" />
<line x1="2.91667" y1="0.0416667" x2="2.95833" y2="0.0416667" style="stroke:rgb(246,147,147);stroke-width:0.01" />
<line x1="2.875" y1="0.0833333" x2="2.91667" y2="0.0833333" style="stroke:rgb(246,147,147);stroke-width:0.01" />
<line x1="2.83333" y1="0.125" x2="2.875" y2="0.125" style="stroke:rgb(246,147,147);stroke-width:0.01" />
<line x1="2.79167" y1="0.166667" x2="2.83333" y2="0.166667" style="stroke:rgb(246,147,147);stroke-width:0.01" />
<line x1="2.75" y1="0.208333" x2="2.79167" y2="0.208333" style="stroke:rgb(246,147,147);stroke-width:0.01" />
<line x1="2.70833" y1="0.25" x2="2.75" y2="0.25" style="stroke:rgb(246,147,147);stroke-width:0.01" />
<line x1="2.66667" y1="0.291667" x2="2.70833" y2="0.291667" style="stroke:rgb(246,147,147);stroke-width:0.01" />
<line x1="2.625" y1="0.333333" x2="2.66667" y2="0.333333" style="stroke:rgb(246,147,147);stroke-width:0.01" />
<line x1="2.58333" y1="0.375" x2="2.625" y2="0.375" style="stroke:rgb(246,147,147);stroke-width:0.01" />
<line x1="2.54167" y1="0.416667" x2="2.58333" y2="0.416667" style="stroke:rgb(246,147,147);stroke-width:0.01" />
<line x1="2.5" y1="0.458333" x2="2.54167" y2="0.458333" style="stroke:rgb(246,147,147);stroke-width:0.01" />
<line x1="3.45833" y1="-0.5" x2="2.5" y2="0.458333" style="stroke:rgb(246,147,147);stroke-width:0.01" />
<line x1="3.5" y1="-0.5" x2="2.5" y2="0.5" style="stroke:rgb(246,147,147);stroke-width:0.01" />
</g>
</svg>
