<svg xmlns="http://www.w3.org/2000/svg" viewBox="-1.5 -1.5 3 3">
<g transform="scale(1, -1)">
<path d="M-0.488636 -0.511364 L0.511364 0.488636 L0.465909 0.488636 L-0.488636 -0.465909 z " fill="rgb(245,195,195)" />
<path d="M-2.988636 -0.011364 L-1.988636 -0.011364 L-1.988636 0.988636 L-2.988636 0.988636  z" fill="none" stroke="rgb(128,128,128)" stroke-width="0.01" />
<line x1="-0.488636" y1="-0.511364" x2="0.511364" y2="0.488636" style="stroke:rgb(246,147,147);stroke-width:0.01" />
<line x1="-0.488636" y1="-0.465909" x2="0.465909" y2="0.488636" style="stroke:rgb(246,147,147);stroke-width:0.01" />
<line x1="-0.488636" y1="-0.465909" x2="-0.443182" y2="-0.465909" style="stroke:rgb(246,147,147);stroke-width:0.01" />
<line x1="-0.443182" y1="-0.420455" x2="-0.397727" y2="-0.420455" style="stroke:rgb(246,147,147);stroke-width:0.01" />
<line x1="-0.397727" y1="-0.375" x2="-0.352273" y2="-0.375" style="stroke:rgb(246,147,147);stroke-width:0.01" />
<line x1="-0.352273" y1="-0.329545" x2="-0.306818" y2="-0.329545" style="stroke:rgb(246,147,147);stroke-width:0.01" />
<line x1="-0.306818" y1="-0.284091" x2="-0.261364" y2="-0.284091" style="stroke:rgb(246,147,147);stroke-width:0.01" />
<line x1="-0.261364" y1="-0.238636" x2="-0.215909" y2="-0.238636" style="stroke:rgb(246,147,147);stroke-width:0.01" />
<line x1="-0.215909" y1="-0.193182" x2="-0.170455" y2="-0.193182" style="stroke:rgb(246,147,147);stroke-width:0.01" />
<line x1="-0.170455" y1="-0.147727" x2="-0.125" y2="-0.147727" style="stroke:rgb(246,147,147);stroke-width:0.01" />
<line x1="-0.125" y1="-0.102273" x2="-0.0795455" y2="-0.102273" style="stroke:rgb(246,147,147);stroke-width:0.01" />
<line x1="-0.0795455" y1="-0.0568182" x2="-0.0340909" y2="-0.0568182" style="stroke:rgb(246,147,147);stroke-width:0.01" />
<line x1="-0.0340909" y1="-0.0113636" x2="0.0113636" y2="-0.0113636" style="stroke:rgb(246,147,147);stroke-width:0.01" />
<line x1="-0.488636" y1="-0.511364" x2="-0.488636" y2="-0.465909" style="stroke:rgb(246,147,147);stroke-width:0.01" />
<line x1="-0.443182" y1="-0.465909" x2="-0.443182" y2="-0.420455" style="stroke:rgb(246,147,147);stroke-width:0.01" />
<line x1="-0.397727" y1="-0.420455" x2="-0.397727" y2="-0.375" style="stroke:rgb(246,147,147);stroke-width:0.01" />
<line x1="-0.352273" y1="-0.375" x2="-0.352273" y2="-0.329545" style="stroke:rgb(246,147,147);stroke-width:0.01" />
<line x1="-0.306818" y1="-0.329545" x2="-0.306818" y2="-0.284091" style="stroke:rgb(246,147,147);stroke-width:0.01" />
<line x1="-0.261364" y1="-0.284091" x2="-0.261364" y2="-0.238636" style="stroke:rgb(246,147,147);stroke-width:0.01" />
<line x1="-0.215909" y1="-0.238636" x2="-0.215909" y2="-0.193182" style="stroke:rgb(246,147,147);stroke-width:0.01" />
<line x1="-0.170455" y1="-0.193182" x2="-0.170455" y2="-0.147727" style="stroke:rgb(246,147,147);stroke-width:0.01" />
<line x1="-0.125" y1="-0.147727" x2="-0.125" y2="-0.102273" style="stroke:rgb(246,147,147);stroke-width:0.01" />
<line x1="-0.0795455" y1="-0.102273" x2="-0.0795455" y2="-0.0568182" style="stroke:rgb(246,147,147);stroke-width:0.01" />
<line x1="-0.0340909" y1="-0.0568182" x2="-0.0340909" y2="-0.0113636" style="stroke:rgb(246,147,147);stroke-width:0.01" />
<line x1="0.0113636" y1="-0.0113636" x2="0.0113636" y2="0.0340909" style="stroke:rgb(246,147,147);stroke-width:0.01" />
<line x1="0.0568182" y1="0.0340909" x2="0.0568182" y2="0.0795455" style="stroke:rgb(246,147,147);stroke-width:0.01" />
<line x1="0.102273" y1="0.0795455" x2="0.102273" y2="0.125" style="stroke:rgb(246,147,147);stroke-width:0.01" />
<line x1="0.147727" y1="0.125" x2="0.147727" y2="0.170455" style="stroke:rgb(246,147,147);stroke-width:0.01" />
<line x1="0.193182" y1="0.170455" x2="0.193182" y2="0.215909" style="stroke:rgb(246,147,147);stroke-width:0.01" />
<line x1="0.238636" y1="0.215909" x2="0.238636" y2="0.261364" style="stroke:rgb(246,147,147);stroke-width:0.01" />
<line x1="0.284091" y1="0.261364" x2="0.284091" y2="0.306818" style="stroke:rgb(246,147,147);stroke-width:0.01" />
<line x1="0.329545" y1="0.306818" x2="0.329545" y2="0.352273" style="stroke:rgb(246,147,147);stroke-width:0.01" />
<line x1="0.375" y1="0.352273" x2="0.375" y2="0.397727" style="stroke:rgb(246,147,147);stroke-width:0.01" />
<line x1="0.420455" y1="0.397727" x2="0.420455" y2="0.443182" style="stroke:rgb(246,147,147);stroke-width:0.01" />
<line x1="0.465909" y1="0.443182" x2="0.465909" y2="0.488636" style="stroke:rgb(246,147,147);stroke-width:0.01" />
<line x1="0.0113636" y1="0.0340909" x2="0.0568182" y2="0.0340909" style="stroke:rgb(246,147,147);stroke-width:0.01" />
<line x1="0.0568182" y1="0.0795455" x2="0.102273" y2="0.0795455" style="stroke:rgb(246,147,147);stroke-width:0.01" />
<line x1="0.102273" y1="0.125" x2="0.147727" y2="0.125" style="stroke:rgb(246,147,147);stroke-width:0.01" />
<line x1="0.147727" y1="0.170455" x2="0.193182" y2="0.170455" style="stroke:rgb(246,147,147);stroke-width:0.01" />
<line x1="0.193182" y1="0.215909" x2="0.238636" y2="0.215909" style="stroke:rgb(246,147,147);stroke-width:0.01" />
<line x1="0.238636" y1="0.261364" x2="0.284091" y2="0.261364" style="stroke:rgb(246,147,147);stroke-width:0.01" />
<line x1="0.284091" y1="0.306818" x2="0.329545" y2="0.306818" style="stroke:rgb(246,147,147);stroke-width:0.01" />
<line x1="0.329545" y1="0.352273" x2="0.375" y2="0.352273" style="stroke:rgb(246,147,147);stroke-width:0.01" />
<line x1="0.375" y1="0.397727" x2="0.420455" y2="0.397727" style="stroke:rgb(246,147,147);stroke-width:0.01" />
<line x1="0.420455" y1="0.443182" x2="0.465909" y2="0.443182" style="stroke:rgb(246,147,147);stroke-width:0.01" />
<line x1="0.465909" y1="0.488636" x2="0.511364" y2="0.488636" style="stroke:rgb(246,147,147);stroke-width:0.01" />
</g>
</svg>
