<svg xmlns="http://www.w3.org/2000/svg" viewBox="-1.5 -1.5 3 3">
<g transform="scale(1, -1)">
<path d="M0.296875 0.000000 L0.402344 0.000000 L0.527344 0.125000 L0.527344 0.300781 L0.402344 0.425781 L0.230469 0.425781 L0.230469 0.300781 L0.402344 0.300781 L0.402344 0.125000 L0.296875 0.125000 L0.296875 0.296875 L0.171875 0.296875 L0.171875 0.125000 z " fill="rgb(245,195,195)" />
<path d="M0.000000 0.000000 L1.000000 0.000000 L1.000000 1.000000 L0.000000 1.000000  z" fill="none" stroke="rgb(128,128,128)" stroke-width="0.01" />
<line x1="0.402344" y1="0" x2="0.527344" y2="0.125" style="stroke:rgb(246,147,147);stroke-width:0.01" />
<line x1="0.296875" y1="0" x2="0.402344" y2="0" style="stroke:rgb(246,147,147);stroke-width:0.01" />
<line x1="0.171875" y1="0.125" x2="0.171875" y2="0.296875" style="stroke:rgb(246,147,147);stroke-width:0.01" />
<line x1="0.230469" y1="0.300781" x2="0.230469" y2="0.425781" style="stroke:rgb(246,147,147);stroke-width:0.01" />
<line x1="0.296875" y1="0" x2="0.296875" y2="0.296875" style="stroke:rgb(246,147,147);stroke-width:0.01" />
<line x1="0.402344" y1="0" x2="0.402344" y2="0.425781" style="stroke:rgb(246,147,147);stroke-width:0.01" />
<line x1="0.527344" y1="0.125" x2="0.527344" y2="0.300781" style="stroke:rgb(246,147,147);stroke-width:0.01" />
<line x1="0.171875" y1="0.125" x2="0.527344" y2="0.125" style="stroke:rgb(246,147,147);stroke-width:0.01" />
<line x1="0.296875" y1="0" x2="0.171875" y2="0.125" style="stroke:rgb(246,147,147);stroke-width:0.01" />
<line x1="0.171875" y1="0.296875" x2="0.296875" y2="0.296875" style="stroke:rgb(246,147,147);stroke-width:0.01" />
<line x1="0.230469" y1="0.300781" x2="0.527344" y2="0.300781" style="stroke:rgb(246,147,147);stroke-width:0.01" />
<line x1="0.527344" y1="0.300781" x2="0.402344" y2="0.425781" style="stroke:rgb(246,147,147);stroke-width:0.01" />
<line x1="0.230469" y1="0.425781" x2="0.402344" y2="0.425781" style="stroke:rgb(246,147,147);stroke-width:0.01" />
</g>
</svg>
