<svg xmlns="http://www.w3.org/2000/svg" viewBox="-1.5 -1.5 3 3">
<g transform="scale(1, -1)">
<path d="M-0.038462 -0.219050 L0.067007 -0.219050 L0.192007 -0.094050 L0.192007 0.081731 L0.067007 0.206731 L-0.104868 0.206731 L-0.104868 0.081731 L0.067007 0.081731 L0.067007 -0.094050 L-0.038462 -0.094050 L-0.038462 0.077825 L-0.163462 0.077825 L-0.163462 -0.094050 z " fill="rgb(245,195,195)" />
<path d="M-0.335337 -0.219050 L0.664663 -0.219050 L0.664663 0.780950 L-0.335337 0.780950  z" fill="none" stroke="rgb(128,128,128)" stroke-width="0.01" />
<line x1="0.0670072" y1="-0.21905" x2="0.192007" y2="-0.0940505" style="stroke:rgb(246,147,147);stroke-width:0.01" />
<line x1="-0.0384615" y1="-0.21905" x2="0.0670072" y2="-0.21905" style="stroke:rgb(246,147,147);stroke-width:0.01" />
<line x1="-0.163462" y1="-0.0940505" x2="-0.163462" y2="0.0778245" style="stroke:rgb(246,147,147);stroke-width:0.01" />
<line x1="-0.104868" y1="0.0817308" x2="-0.104868" y2="0.206731" style="stroke:rgb(246,147,147);stroke-width:0.01" />
<line x1="-0.0384615" y1="-0.21905" x2="-0.0384615" y2="0.0778245" style="stroke:rgb(246,147,147);stroke-width:0.01" />
<line x1="0.0670072" y1="-0.21905" x2="0.0670072" y2="0.206731" style="stroke:rgb(246,147,147);stroke-width:0.01" />
<line x1="0.192007" y1="-0.0940505" x2="0.192007" y2="0.0817308" style="stroke:rgb(246,147,147);stroke-width:0.01" />
<line x1="-0.163462" y1="-0.0940505" x2="0.192007" y2="-0.0940505" style="stroke:rgb(246,147,147);stroke-width:0.01" />
<line x1="-0.0384615" y1="-0.21905" x2="-0.163462" y2="-0.0940505" style="stroke:rgb(246,147,147);stroke-width:0.01" />
<line x1="-0.163462" y1="0.0778245" x2="-0.0384615" y2="0.0778245" style="stroke:rgb(246,147,147);stroke-width:0.01" />
<line x1="-0.104868" y1="0.0817308" x2="0.192007" y2="0.0817308" style="stroke:rgb(246,147,147);stroke-width:0.01" />
<line x1="0.192007" y1="0.0817308" x2="0.0670072" y2="0.206731" style="stroke:rgb(246,147,147);stroke-width:0.01" />
<line x1="-0.104868" y1="0.206731" x2="0.0670072" y2="0.206731" style="stroke:rgb(246,147,147);stroke-width:0.01" />
</g>
</svg>
