<svg xmlns="http://www.w3.org/2000/svg" viewBox="-1.5 -1.5 3 3">
<g transform="scale(1, -1)">
<path d="M2.480000 -0.480000 L2.520000 -0.480000 L3.480000 0.480000 L3.480000 0.520000 z " fill="rgb(245,195,195)" />
<path d="M0.000000 0.000000 L1.000000 0.000000 L1.000000 1.000000 L0.000000 1.000000  z" fill="none" stroke="rgb(128,128,128)" stroke-width="0.01" />
<line x1="2.52" y1="-0.48" x2="3.48" y2="0.48" style="stroke:rgb(246,147,147);stroke-width:0.01" />
<line x1="2.48" y1="-0.48" x2="3.48" y2="0.52" style="stroke:rgb(246,147,147);stroke-width:0.01" />
<line x1="2.48" y1="-0.48" x2="2.52" y2="-0.48" style="stroke:rgb(246,147,147);stroke-width:0.01" />
<line x1="2.52" y1="-0.44" x2="2.56" y2="-0.44" style="stroke:rgb(246,147,147);stroke-width:0.01" />
<line x1="2.56" y1="-0.4" x2="2.6" y2="-0.4" style="stroke:rgb(246,147,147);stroke-width:0.01" />
<line x1="2.6" y1="-0.36" x2="2.64" y2="-0.36" style="stroke:rgb(246,147,147);stroke-width:0.01" />
<line x1="2.64" y1="-0.32" x2="2.68" y2="-0.32" style="stroke:rgb(246,147,147);stroke-width:0.01" />
<line x1="2.68" y1="-0.28" x2="2.72" y2="-0.28" style="stroke:rgb(246,147,147);stroke-width:0.01" />
<line x1="2.72" y1="-0.24" x2="2.76" y2="-0.24" style="stroke:rgb(246,147,147);stroke-width:0.01" />
<line x1="2.76" y1="-0.2" x2="2.8" y2="-0.2" style="stroke:rgb(246,147,147);stroke-width:0.01" />
<line x1="2.8" y1="-0.16" x2="2.84" y2="-0.16" style="stroke:rgb(246,147,147);stroke-width:0.01" />
<line x1="2.84" y1="-0.12" x2="2.88" y2="-0.12" style="stroke:rgb(246,147,147);stroke-width:0.01" />
<line x1="2.88" y1="-0.08" x2="2.92" y2="-0.08" style="stroke:rgb(246,147,147);stroke-width:0.01" />
<line x1="2.92" y1="-0.04" x2="2.96" y2="-0.04" style="stroke:rgb(246,147,147);stroke-width:0.01" />
<line x1="2.96" y1="0" x2="3" y2="0" style="stroke:rgb(246,147,147);stroke-width:0.01" />
<line x1="2.52" y1="-0.48" x2="2.52" y2="-0.44" style="stroke:rgb(246,147,147);stroke-width:0.01" />
<line x1="2.56" y1="-0.44" x2="2.56" y2="-0.4" style="stroke:rgb(246,147,147);stroke-width:0.01" />
<line x1="2.6" y1="-0.4" x2="2.6" y2="-0.36" style="stroke:rgb(246,147,147);stroke-width:0.01" />
<line x1="2.64" y1="-0.36" x2="2.64" y2="-0.32" style="stroke:rgb(246,147,147);stroke-width:0.01" />
<line x1="2.68" y1="-0.32" x2="2.68" y2="-0.28" style="stroke:rgb(246,147,147);stroke-width:0.01" />
<line x1="2.72" y1="-0.28" x2="2.72" y2="-0.24" style="stroke:rgb(246,147,147);stroke-width:0.01" />
<line x1="2.76" y1="-0.24" x2="2.76" y2="-0.2" style="stroke:rgb(246,147,147);stroke-width:0.01" />
<line x1="2.8" y1="-0.2" x2="2.8" y2="-0.16" style="stroke:rgb(246,147,147);stroke-width:0.01" />
<line x1="2.84" y1="-0.16" x2="2.84" y2="-0.12" style="stroke:rgb(246,147,147);stroke-width:0.01" />
<line x1="2.88" y1="-0.12" x2="2.88" y2="-0.08" style="stroke:rgb(246,147,147);stroke-width:0.01" />
<line x1="2.92" y1="-0.08" x2="2.92" y2="-0.04" style="stroke:rgb(246,147,147);stroke-width:0.01" />
<line x1="2.96" y1="-0.04" x2="2.96" y2="0" style="stroke:rgb(246,147,147);stroke-width:0.01" />
<line x1="3" y1="0" x2="3" y2="0.04" style="stroke:rgb(246,147,147);stroke-width:0.01" />
<line x1="3.04" y1="0.04" x2="3.04" y2="0.08" style="stroke:rgb(246,147,147);stroke-width:0.01" />
<line x1="3.08" y1="0.08" x2="3.08" y2="0.12" style="stroke:rgb(246,147,147);stroke-width:0.01" />
<line x1="3.12" y1="0.12" x2="3.12" y2="0.16" style="stroke:rgb(246,147,147);stroke-width:0.01" />
<line x1="3.16" y1="0.16" x2="3.16" y2="0.2" style="stroke:rgb(246,147,147);stroke-width:0.01" />
<line x1="3.2" y1="0.2" x2="3.2" y2="0.24" style="stroke:rgb(246,147,147);stroke-width:0.01" />
<line x1="3.24" y1="0.24" x2="3.24" y2="0.28" style="stroke:rgb(246,147,147);stroke-width:0.01" />
<line x1="3.28" y1="0.28" x2="3.28" y2="0.32" style="stroke:rgb(246,147,147);stroke-width:0.01" />
<line x1="3.32" y1="0.32" x2="3.32" y2="0.36" style="stroke:rgb(246,147,147);stroke-width:0.01" />
<line x1="3.36" y1="0.36" x2="3.36" y2="0.4" style="stroke:rgb(246,147,147);stroke-width:0.01" />
<line x1="3.4" y1="0.4" x2="3.4" y2="0.44" style="stroke:rgb(246,147,147);stroke-width:0.01" />
<line x1="3.44" y1="0.44" x2="3.44" y2="0.48" style="stroke:rgb(246,147,147);stroke-width:0.01" />
<line x1="3.48" y1="0.48" x2="3.48" y2="0.52" style="stroke:rgb(246,147,147);stroke-width:0.01" />
<line x1="3" y1="0.04" x2="3.04" y2="0.04" style="stroke:rgb(246,147,147);stroke-width:0.01" />
<line x1="3.04" y1="0.08" x2="3.08" y2="0.08" style="stroke:rgb(246,147,147);stroke-width:0.01" />
<line x1="3.08" y1="0.12" x2="3.12" y2="0.12" style="stroke:rgb(246,147,147);stroke-width:0.01" />
<line x1="3.12" y1="0.16" x2="3.16" y2="0.16" style="stroke:rgb(246,147,147);stroke-width:0.01" />
<line x1="3.16" y1="0.2" x2="3.2" y2="0.2" style="stroke:rgb(246,147,147);stroke-width:0.01" />
<line x1="3.2" y1="0.24" x2="3.24" y2="0.24" style="stroke:rgb(246,147,147);stroke-width:0.01" />
<line x1="3.24" y1="0.28" x2="3.28" y2="0.28" style="stroke:rgb(246,147,147);stroke-width:0.01" />
<line x1="3.28" y1="0.32" x2="3.32" y2="0.32" style="stroke:rgb(246,147,147);stroke-width:0.01" />
<line x1="3.32" y1="0.36" x2="3.36" y2="0.36" style="stroke:rgb(246,147,147);stroke-width:0.01" />
<line x1="3.36" y1="0.4" x2="3.4" y2="0.4" style="stroke:rgb(246,147,147);stroke-width:0.01" />
<line x1="3.4" y1="0.44" x2="3.44" y2="0.44" style="stroke:rgb(246,147,147);stroke-width:0.01" />
<line x1="3.44" y1="0.48" x2="3.48" y2="0.48" style="stroke:rgb(246,147,147);stroke-width:0.01" />
</g>
</svg>
