<svg xmlns="http://www.w3.org/2000/svg" viewBox="-1.5 -1.5 3 3">
<g transform="scale(1, -1)">
<path d="M-0.510000 -0.490000 L-0.470000 -0.490000 L0.490000 0.470000 L0.490000 0.510000 z " fill="rgb(245,195,195)" />
<path d="M-2.990000 -0.010000 L-1.990000 -0.010000 L-1.990000 0.990000 L-2.990000 0.990000  z" fill="none" stroke="rgb(128,128,128)" stroke-width="0.01" />
<line x1="-0.47" y1="-0.49" x2="0.49" y2="0.47" style="stroke:rgb(246,147,147);stroke-width:0.01" />
<line x1="-0.51" y1="-0.49" x2="0.49" y2="0.51" style="stroke:rgb(246,147,147);stroke-width:0.01" />
<line x1="-0.51" y1="-0.49" x2="-0.47" y2="-0.49" style="stroke:rgb(246,147,147);stroke-width:0.01" />
<line x1="-0.47" y1="-0.45" x2="-0.43" y2="-0.45" style="stroke:rgb(246,147,147);stroke-width:0.01" />
<line x1="-0.43" y1="-0.41" x2="-0.39" y2="-0.41" style="stroke:rgb(246,147,147);stroke-width:0.01" />
<line x1="-0.39" y1="-0.37" x2="-0.35" y2="-0.37" style="stroke:rgb(246,147,147);stroke-width:0.01" />
<line x1="-0.35" y1="-0.33" x2="-0.31" y2="-0.33" style="stroke:rgb(246,147,147);stroke-width:0.01" />
<line x1="-0.31" y1="-0.29" x2="-0.27" y2="-0.29" style="stroke:rgb(246,147,147);stroke-width:0.01" />
<line x1="-0.27" y1="-0.25" x2="-0.23" y2="-0.25" style="stroke:rgb(246,147,147);stroke-width:0.01" />
<line x1="-0.23" y1="-0.21" x2="-0.19" y2="-0.21" style="stroke:rgb(246,147,147);stroke-width:0.01" />
<line x1="-0.19" y1="-0.17" x2="-0.15" y2="-0.17" style="stroke:rgb(246,147,147);stroke-width:0.01" />
<line x1="-0.15" y1="-0.13" x2="-0.11" y2="-0.13" style="stroke:rgb(246,147,147);stroke-width:0.01" />
<line x1="-0.11" y1="-0.09" x2="-0.07" y2="-0.09" style="stroke:rgb(246,147,147);stroke-width:0.01" />
<line x1="-0.07" y1="-0.05" x2="-0.03" y2="-0.05" style="stroke:rgb(246,147,147);stroke-width:0.01" />
<line x1="-0.03" y1="-0.01" x2="0.01" y2="-0.01" style="stroke:rgb(246,147,147);stroke-width:0.01" />
<line x1="-0.47" y1="-0.49" x2="-0.47" y2="-0.45" style="stroke:rgb(246,147,147);stroke-width:0.01" />
<line x1="-0.43" y1="-0.45" x2="-0.43" y2="-0.41" style="stroke:rgb(246,147,147);stroke-width:0.01" />
<line x1="-0.39" y1="-0.41" x2="-0.39" y2="-0.37" style="stroke:rgb(246,147,147);stroke-width:0.01" />
<line x1="-0.35" y1="-0.37" x2="-0.35" y2="-0.33" style="stroke:rgb(246,147,147);stroke-width:0.01" />
<line x1="-0.31" y1="-0.33" x2="-0.31" y2="-0.29" style="stroke:rgb(246,147,147);stroke-width:0.01" />
<line x1="-0.27" y1="-0.29" x2="-0.27" y2="-0.25" style="stroke:rgb(246,147,147);stroke-width:0.01" />
<line x1="-0.23" y1="-0.25" x2="-0.23" y2="-0.21" style="stroke:rgb(246,147,147);stroke-width:0.01" />
<line x1="-0.19" y1="-0.21" x2="-0.19" y2="-0.17" style="stroke:rgb(246,147,147);stroke-width:0.01" />
<line x1="-0.15" y1="-0.17" x2="-0.15" y2="-0.13" style="stroke:rgb(246,147,147);stroke-width:0.01" />
<line x1="-0.11" y1="-0.13" x2="-0.11" y2="-0.09" style="stroke:rgb(246,147,147);stroke-width:0.01" />
<line x1="-0.07" y1="-0.09" x2="-0.07" y2="-0.05" style="stroke:rgb(246,147,147);stroke-width:0.01" />
<line x1="-0.03" y1="-0.05" x2="-0.03" y2="-0.01" style="stroke:rgb(246,147,147);stroke-width:0.01" />
<line x1="0.01" y1="-0.01" x2="0.01" y2="0.03" style="stroke:rgb(246,147,147);stroke-width:0.01" />
<line x1="0.05" y1="0.03" x2="0.05" y2="0.07" style="stroke:rgb(246,147,147);stroke-width:0.01" />
<line x1="0.09" y1="0.07" x2="0.09" y2="0.11" style="stroke:rgb(246,147,147);stroke-width:0.01" />
<line x1="0.13" y1="0.11" x2="0.13" y2="0.15" style="stroke:rgb(246,147,147);stroke-width:0.01" />
<line x1="0.17" y1="0.15" x2="0.17" y2="0.19" style="stroke:rgb(246,147,147);stroke-width:0.01" />
<line x1="0.21" y1="0.19" x2="0.21" y2="0.23" style="stroke:rgb(246,147,147);stroke-width:0.01" />
<line x1="0.25" y1="0.23" x2="0.25" y2="0.27" style="stroke:rgb(246,147,147);stroke-width:0.01" />
<line x1="0.29" y1="0.27" x2="0.29" y2="0.31" style="stroke:rgb(246,147,147);stroke-width:0.01" />
<line x1="0.33" y1="0.31" x2="0.33" y2="0.35" style="stroke:rgb(246,147,147);stroke-width:0.01" />
<line x1="0.37" y1="0.35" x2="0.37" y2="0.39" style="stroke:rgb(246,147,147);stroke-width:0.01" />
<line x1="0.41" y1="0.39" x2="0.41" y2="0.43" style="stroke:rgb(246,147,147);stroke-width:0.01" />
<line x1="0.45" y1="0.43" x2="0.45" y2="0.47" style="stroke:rgb(246,147,147);stroke-width:0.01" />
<line x1="0.49" y1="0.47" x2="0.49" y2="0.51" style="stroke:rgb(246,147,147);stroke-width:0.01" />
<line x1="0.01" y1="0.03" x2="0.05" y2="0.03" style="stroke:rgb(246,147,147);stroke-width:0.01" />
<line x1="0.05" y1="0.07" x2="0.09" y2="0.07" style="stroke:rgb(246,147,147);stroke-width:0.01" />
<line x1="0.09" y1="0.11" x2="0.13" y2="0.11" style="stroke:rgb(246,147,147);stroke-width:0.01" />
<line x1="0.13" y1="0.15" x2="0.17" y2="0.15" style="stroke:rgb(246,147,147);stroke-width:0.01" />
<line x1="0.17" y1="0.19" x2="0.21" y2="0.19" style="stroke:rgb(246,147,147);stroke-width:0.01" />
<line x1="0.21" y1="0.23" x2="0.25" y2="0.23" style="stroke:rgb(246,147,147);stroke-width:0.01" />
<line x1="0.25" y1="0.27" x2="0.29" y2="0.27" style="stroke:rgb(246,147,147);stroke-width:0.01" />
<line x1="0.29" y1="0.31" x2="0.33" y2="0.31" style="stroke:rgb(246,147,147);stroke-width:0.01" />
<line x1="0.33" y1="0.35" x2="0.37" y2="0.35" style="stroke:rgb(246,147,147);stroke-width:0.01" />
<line x1="0.37" y1="0.39" x2="0.41" y2="0.39" style="stroke:rgb(246,147,147);stroke-width:0.01" />
<line x1="0.41" y1="0.43" x2="0.45" y2="0.43" style="stroke:rgb(246,147,147);stroke-width:0.01" />
<line x1="0.45" y1="0.47" x2="0.49" y2="0.47" style="stroke:rgb(246,147,147);stroke-width:0.01" />
</g>
</svg>
