<svg xmlns="http://www.w3.org/2000/svg" viewBox="-1.5 -1.5 3 3">
<g transform="scale(1, -1)">
<path d="M-0.500000 -0.500000 L-0.454545 -0.500000 L0.500000 0.454545 L0.500000 0.500000 z " fill="rgb(245,195,195)" />
<path d="M0.000000 0.000000 L1.000000 0.000000 L1.000000 1.000000 L0.000000 1.000000  z" fill="none" stroke="rgb(128,128,128)" stroke-width="0.01" />
<line x1="-0.5" y1="-0.5" x2="-0.454545" y2="-0.5" style="stroke:rgb(246,147,147);stroke-width:0.01" />
<line x1="-0.454545" y1="-0.454545" x2="-0.409091" y2="-0.454545" style="stroke:rgb(246,147,147);stroke-width:0.01" />
<line x1="-0.409091" y1="-0.409091" x2="-0.363636" y2="-0.409091" style="stroke:rgb(246,147,147);stroke-width:0.01" />
<line x1="-0.363636" y1="-0.363636" x2="-0.318182" y2="-0.363636" style="stroke:rgb(246,147,147);stroke-width:0.01" />
<line x1="-0.318182" y1="-0.318182" x2="-0.272727" y2="-0.318182" style="stroke:rgb(246,147,147);stroke-width:0.01" />
<line x1="-0.272727" y1="-0.272727" x2="-0.227273" y2="-0.272727" style="stroke:rgb(246,147,147);stroke-width:0.01" />
<line x1="-0.227273" y1="-0.227273" x2="-0.181818" y2="-0.227273" style="stroke:rgb(246,147,147);stroke-width:0.01" />
<line x1="-0.181818" y1="-0.181818" x2="-0.136364" y2="-0.181818" style="stroke:rgb(246,147,147);stroke-width:0.01" />
<line x1="-0.136364" y1="-0.136364" x2="-0.0909091" y2="-0.136364" style="stroke:rgb(246,147,147);stroke-width:0.01" />
<line x1="-0.0909091" y1="-0.0909091" x2="-0.0454545" y2="-0.0909091" style="stroke:rgb(246,147,147);stroke-width:0.01" />
<line x1="-0.0454545" y1="-0.0454545" x2="0" y2="-0.0454545" style="stroke:rgb(246,147,147);stroke-width:0.01" />
<line x1="-0.454545" y1="-0.5" x2="0.5" y2="0.454545" style="stroke:rgb(246,147,147);stroke-width:0.01" />
<line x1="-0.454545" y1="-0.5" x2="-0.454545" y2="-0.454545" style="stroke:rgb(246,147,147);stroke-width:0.01" />
<line x1="-0.409091" y1="-0.454545" x2="-0.409091" y2="-0.409091" style="stroke:rgb(246,147,147);stroke-width:0.01" />
<line x1="-0.363636" y1="-0.409091" x2="-0.363636" y2="-0.363636" style="stroke:rgb(246,147,147);stroke-width:0.01" />
<line x1="-0.318182" y1="-0.363636" x2="-0.318182" y2="-0.318182" style="stroke:rgb(246,147,147);stroke-width:0.01" />
<line x1="-0.272727" y1="-0.318182" x2="-0.272727" y2="-0.272727" style="stroke:rgb(246,147,147);stroke-width:0.01" />
<line x1="-0.227273" y1="-0.272727" x2="-0.227273" y2="-0.227273" style="stroke:rgb(246,147,147);stroke-width:0.01" />
<line x1="-0.181818" y1="-0.227273" x2="-0.181818" y2="-0.181818" style="stroke:rgb(246,147,147);stroke-width:0.01" />
<line x1="-0.136364" y1="-0.181818" x2="-0.136364" y2="-0.136364" style="stroke:rgb(246,147,147);stroke-width:0.01" />
<line x1="-0.0909091" y1="-0.136364" x2="-0.0909091" y2="-0.0909091" style="stroke:rgb(246,147,147);stroke-width:0.01" />
<line x1="-0.0454545" y1="-0.0909091" x2="-0.0454545" y2="-0.0454545" style="stroke:rgb(246,147,147);stroke-width:0.01" />
<line x1="0" y1="0" x2="0.0454545" y2="0" style="stroke:rgb(246,147,147);stroke-width:0.01" />
<line x1="-0.5" y1="-0.5" x2="0.5" y2="0.5" style="stroke:rgb(246,147,147);stroke-width:0.01" />
<line x1="0" y1="-0.0454545" x2="0" y2="0" style="stroke:rgb(246,147,147);stroke-width:0.01" />
<line x1="0.0454545" y1="0" x2="0.0454545" y2="0.0454545" style="stroke:rgb(246,147,147);stroke-width:0.01" />
<line x1="0.0909091" y1="0.0454545" x2="0.0909091" y2="0.0909091" style="stroke:rgb(246,147,147);stroke-width:0.01" />
<line x1="0.136364" y1="0.0909091" x2="0.136364" y2="0.136364" style="stroke:rgb(246,147,147);stroke-width:0.01" />
<line x1="0.181818" y1="0.136364" x2="0.181818" y2="0.181818" style="stroke:rgb(246,147,147);stroke-width:0.01" />
<line x1="0.227273" y1="0.181818" x2="0.227273" y2="0.227273" style="stroke:rgb(246,147,147);stroke-width:0.01" />
<line x1="0.272727" y1="0.227273" x2="0.272727" y2="0.272727" style="stroke:rgb(246,147,147);stroke-width:0.01" />
<line x1="0.318182" y1="0.272727" x2="0.318182" y2="0.318182" style="stroke:rgb(246,147,147);stroke-width:0.01" />
<line x1="0.363636" y1="0.318182" x2="0.363636" y2="0.363636" style="stroke:rgb(246,147,147);stroke-width:0.01" />
<line x1="0.409091" y1="0.363636" x2="0.409091" y2="0.409091" style="stroke:rgb(246,147,147);stroke-width:0.01" />
<line x1="0.454545" y1="0.409091" x2="0.454545" y2="0.454545" style="stroke:rgb(246,147,147);stroke-width:0.01" />
<line x1="0.5" y1="0.454545" x2="0.5" y2="0.5" style="stroke:rgb(246,147,147);stroke-width:0.01" />
<line x1="0.0454545" y1="0.0454545" x2="0.0909091" y2="0.0454545" style="stroke:rgb(246,147,147);stroke-width:0.01" />
<line x1="0.0909091" y1="0.0909091" x2="0.136364" y2="0.0909091" style="stroke:rgb(246,147,147);stroke-width:0.01" />
<line x1="0.136364" y1="0.136364" x2="0.181818" y2="0.136364" style="stroke:rgb(246,147,147);stroke-width:0.01" />
<line x1="0.181818" y1="0.181818" x2="0.227273" y2="0.181818" style="stroke:rgb(246,147,147);stroke-width:0.01" />
<line x1="0.227273" y1="0.227273" x2="0.272727" y2="0.227273" style="stroke:rgb(246,147,147);stroke-width:0.01" />
<line x1="0.272727" y1="0.272727" x2="0.318182" y2="0.272727" style="stroke:rgb(246,147,147);stroke-width:0.01" />
<line x1="0.318182" y1="0.318182" x2="0.363636" y2="0.318182" style="stroke:rgb(246,147,147);stroke-width:0.01" />
<line x1="0.363636" y1="0.363636" x2="0.409091" y2="0.363636" style="stroke:rgb(246,147,147);stroke-width:0.01" />
<line x1="0.409091" y1="0.409091" x2="0.454545" y2="0.409091" style="stroke:rgb(246,147,147);stroke-width:0.01" />
<line x1="0.454545" y1="0.454545" x2="0.5" y2="0.454545" style="stroke:rgb(246,147,147);stroke-width:0.01" />
</g>
</svg>
