<svg xmlns="http://www.w3.org/2000/svg" viewBox="-1.5 -1.5 3 3">
<g transform="scale(1, -1)">
<path d="M-0.510417 -0.489583 L-0.468750 -0.489583 L0.489583 0.468750 L0.489583 0.510417 z " fill="rgb(245,195,195)" />
<path d="M-0.010417 0.010417 L0.989583 0.010417 L0.989583 1.010417 L-0.010417 1.010417  z" fill="none" stroke="rgb(128,128,128)" stroke-width="0.01" />
<line x1="-0.510417" y1="-0.489583" x2="-0.46875" y2="-0.489583" style="stroke:rgb(246,147,147);stroke-width:0.01" />
<line x1="-0.46875" y1="-0.447917" x2="-0.427083" y2="-0.447917" style="stroke:rgb(246,147,147);stroke-width:0.01" />
<line x1="-0.427083" y1="-0.40625" x2="-0.385417" y2="-0.40625" style="stroke:rgb(246,147,147);stroke-width:0.01" />
<line x1="-0.385417" y1="-0.364583" x2="-0.34375" y2="-0.364583" style="stroke:rgb(246,147,147);stroke-width:0.01" />
<line x1="-0.34375" y1="-0.322917" x2="-0.302083" y2="-0.322917" style="stroke:rgb(246,147,147);stroke-width:0.01" />
<line x1="-0.302083" y1="-0.28125" x2="-0.260417" y2="-0.28125" style="stroke:rgb(246,147,147);stroke-width:0.01" />
<line x1="-0.260417" y1="-0.239583" x2="-0.21875" y2="-0.239583" style="stroke:rgb(246,147,147);stroke-width:0.01" />
<line x1="-0.21875" y1="-0.197917" x2="-0.177083" y2="-0.197917" style="stroke:rgb(246,147,147);stroke-width:0.01" />
<line x1="-0.177083" y1="-0.15625" x2="-0.135417" y2="-0.15625" style="stroke:rgb(246,147,147);stroke-width:0.01" />
<line x1="-0.135417" y1="-0.114583" x2="-0.09375" y2="-0.114583" style="stroke:rgb(246,147,147);stroke-width:0.01" />
<line x1="-0.09375" y1="-0.0729167" x2="-0.0520833" y2="-0.0729167" style="stroke:rgb(246,147,147);stroke-width:0.01" />
<line x1="-0.0520833" y1="-0.03125" x2="-0.0104167" y2="-0.03125" style="stroke:rgb(246,147,147);stroke-width:0.01" />
<line x1="-0.46875" y1="-0.489583" x2="0.489583" y2="0.46875" style="stroke:rgb(246,147,147);stroke-width:0.01" />
<line x1="-0.46875" y1="-0.489583" x2="-0.46875" y2="-0.447917" style="stroke:rgb(246,147,147);stroke-width:0.01" />
<line x1="-0.427083" y1="-0.447917" x2="-0.427083" y2="-0.40625" style="stroke:rgb(246,147,147);stroke-width:0.01" />
<line x1="-0.385417" y1="-0.40625" x2="-0.385417" y2="-0.364583" style="stroke:rgb(246,147,147);stroke-width:0.01" />
<line x1="-0.34375" y1="-0.364583" x2="-0.34375" y2="-0.322917" style="stroke:rgb(246,147,147);stroke-width:0.01" />
<line x1="-0.302083" y1="-0.322917" x2="-0.302083" y2="-0.28125" style="stroke:rgb(246,147,147);stroke-width:0.01" />
<line x1="-0.260417" y1="-0.28125" x2="-0.260417" y2="-0.239583" style="stroke:rgb(246,147,147);stroke-width:0.01" />
<line x1="-0.21875" y1="-0.239583" x2="-0.21875" y2="-0.197917" style="stroke:rgb(246,147,147);stroke-width:0.01" />
<line x1="-0.177083" y1="-0.197917" x2="-0.177083" y2="-0.15625" style="stroke:rgb(246,147,147);stroke-width:0.01" />
<line x1="-0.135417" y1="-0.15625" x2="-0.135417" y2="-0.114583" style="stroke:rgb(246,147,147);stroke-width:0.01" />
<line x1="-0.09375" y1="-0.114583" x2="-0.09375" y2="-0.0729167" style="stroke:rgb(246,147,147);stroke-width:0.01" />
<line x1="-0.0520833" y1="-0.0729167" x2="-0.0520833" y2="-0.03125" style="stroke:rgb(246,147,147);stroke-width:0.01" />
<line x1="-0.0104167" y1="0.0104167" x2="0.03125" y2="0.0104167" style="stroke:rgb(246,147,147);stroke-width:0.01" />
<line x1="-0.510417" y1="-0.489583" x2="0.489583" y2="0.510417" style="stroke:rgb(246,147,147);stroke-width:0.01" />
<line x1="-0.0104167" y1="-0.03125" x2="-0.0104167" y2="0.0104167" style="stroke:rgb(246,147,147);stroke-width:0.01" />
<line x1="0.03125" y1="0.0104167" x2="0.03125" y2="0.0520833" style="stroke:rgb(246,147,147);stroke-width:0.01" />
<line x1="0.0729167" y1="0.0520833" x2="0.0729167" y2="0.09375" style="stroke:rgb(246,147,147);stroke-width:0.01" />
<line x1="0.114583" y1="0.09375" x2="0.114583" y2="0.135417" style="stroke:rgb(246,147,147);stroke-width:0.01" />
<line x1="0.15625" y1="0.135417" x2="0.15625" y2="0.177083" style="stroke:rgb(246,147,147);stroke-width:0.01" />
<line x1="0.197917" y1="0.177083" x2="0.197917" y2="0.21875" style="stroke:rgb(246,147,147);stroke-width:0.01" />
<line x1="0.239583" y1="0.21875" x2="0.239583" y2="0.260417" style="stroke:rgb(246,147,147);stroke-width:0.01" />
<line x1="0.28125" y1="0.260417" x2="0.28125" y2="0.302083" style="stroke:rgb(246,147,147);stroke-width:0.01" />
<line x1="0.322917" y1="0.302083" x2="0.322917" y2="0.34375" style="stroke:rgb(246,147,147);stroke-width:0.01" />
<line x1="0.364583" y1="0.34375" x2="0.364583" y2="0.385417" style="stroke:rgb(246,147,147);stroke-width:0.01" />
<line x1="0.40625" y1="0.385417" x2="0.40625" y2="0.427083" style="stroke:rgb(246,147,147);stroke-width:0.01" />
<line x1="0.447917" y1="0.427083" x2="0.447917" y2="0.46875" style="stroke:rgb(246,147,147);stroke-width:0.01" />
<line x1="0.489583" y1="0.46875" x2="0.489583" y2="0.510417" style="stroke:rgb(246,147,147);stroke-width:0.01" />
<line x1="0.03125" y1="0.0520833" x2="0.0729167" y2="0.0520833" style="stroke:rgb(246,147,147);stroke-width:0.01" />
<line x1="0.0729167" y1="0.09375" x2="0.114583" y2="0.09375" style="stroke:rgb(246,147,147);stroke-width:0.01" />
<line x1="0.114583" y1="0.135417" x2="0.15625" y2="0.135417" style="stroke:rgb(246,147,147);stroke-width:0.01" />
<line x1="0.15625" y1="0.177083" x2="0.197917" y2="0.177083" style="stroke:rgb(246,147,147);stroke-width:0.01" />
<line x1="0.197917" y1="0.21875" x2="0.239583" y2="0.21875" style="stroke:rgb(246,147,147);stroke-width:0.01" />
<line x1="0.239583" y1="0.260417" x2="0.28125" y2="0.260417" style="stroke:rgb(246,147,147);stroke-width:0.01" />
<line x1="0.28125" y1="0.302083" x2="0.322917" y2="0.302083" style="stroke:rgb(246,147,147);stroke-width:0.01" />
<line x1="0.322917" y1="0.34375" x2="0.364583" y2="0.34375" style="stroke:rgb(246,147,147);stroke-width:0.01" />
<line x1="0.364583" y1="0.385417" x2="0.40625" y2="0.385417" style="stroke:rgb(246,147,147);stroke-width:0.01" />
<line x1="0.40625" y1="0.427083" x2="0.447917" y2="0.427083" style="stroke:rgb(246,147,147);stroke-width:0.01" />
<line x1="0.447917" y1="0.46875" x2="0.489583" y2="0.46875" style="stroke:rgb(246,147,147);stroke-width:0.01" />
</g>
</svg>
