<svg xmlns="http://www.w3.org/2000/svg" viewBox="-1.5 -1.5 3 3">
<g transform="scale(1, -1)">
<path d="M-0.149446 -0.318753 L0.056714 -0.155746 L0.099776 -0.037449 L0.162763 -0.035996 L0.255068 -0.083881 L0.239336 -0.034231 L0.095605 0.068477 L0.033706 0.221125 L-0.206992 0.284708 L-0.255694 0.181086 L-0.330836 -0.089342 z " fill="rgb(245,195,195)" />
<path d="M-0.914202 -0.346121 L0.085798 -0.346121 L0.085798 0.653879 L-0.914202 0.653879  z" fill="none" stroke="rgb(128,128,128)" stroke-width="0.01" />
<line x1="-0.149446" y1="-0.318753" x2="0.0567138" y2="-0.155746" style="stroke:rgb(246,147,147);stroke-width:0.01" />
<line x1="0.0567138" y1="-0.155746" x2="0.118122" y2="0.0129487" style="stroke:rgb(246,147,147);stroke-width:0.01" />
<line x1="0.0284196" y1="0.060912" x2="0.0642873" y2="0.145709" style="stroke:rgb(246,147,147);stroke-width:0.01" />
<line x1="-0.0922456" y1="0.0119822" x2="0.0337062" y2="0.221125" style="stroke:rgb(246,147,147);stroke-width:0.01" />
<line x1="-0.255694" y1="0.181086" x2="-0.206992" y2="0.284708" style="stroke:rgb(246,147,147);stroke-width:0.01" />
<line x1="0.0313828" y1="-0.0330209" x2="0.118122" y2="0.0129487" style="stroke:rgb(246,147,147);stroke-width:0.01" />
<line x1="-0.330836" y1="-0.0893423" x2="-0.255694" y2="0.181086" style="stroke:rgb(246,147,147);stroke-width:0.01" />
<line x1="0.0466596" y1="-0.163696" x2="0.0786784" y2="0.11022" style="stroke:rgb(246,147,147);stroke-width:0.01" />
<line x1="-0.281659" y1="-0.0708483" x2="-0.255694" y2="0.181086" style="stroke:rgb(246,147,147);stroke-width:0.01" />
<line x1="-0.0922456" y1="0.0119822" x2="0.0887522" y2="0.0853769" style="stroke:rgb(246,147,147);stroke-width:0.01" />
<line x1="-0.330836" y1="-0.0893423" x2="-0.281659" y2="-0.0708483" style="stroke:rgb(246,147,147);stroke-width:0.01" />
<line x1="-0.0806417" y1="-0.102012" x2="-0.0922456" y2="0.0119822" style="stroke:rgb(246,147,147);stroke-width:0.01" />
<line x1="-0.0806417" y1="-0.102012" x2="0.0823122" y2="-0.0854243" style="stroke:rgb(246,147,147);stroke-width:0.01" />
<line x1="0.0567138" y1="-0.155746" x2="0.0313828" y2="-0.0330209" style="stroke:rgb(246,147,147);stroke-width:0.01" />
<line x1="-0.319101" y1="-0.0471069" x2="0.239336" y2="-0.0342306" style="stroke:rgb(246,147,147);stroke-width:0.01" />
<line x1="0.255068" y1="-0.0838811" x2="0.239336" y2="-0.0342306" style="stroke:rgb(246,147,147);stroke-width:0.01" />
<line x1="-0.149446" y1="-0.318753" x2="-0.330836" y2="-0.0893423" style="stroke:rgb(246,147,147);stroke-width:0.01" />
<line x1="0.118122" y1="0.0129487" x2="0.0337062" y2="0.221125" style="stroke:rgb(246,147,147);stroke-width:0.01" />
<line x1="-0.281659" y1="-0.0708483" x2="-0.319101" y2="-0.0471069" style="stroke:rgb(246,147,147);stroke-width:0.01" />
<line x1="0.0823122" y1="-0.0854243" x2="0.0313828" y2="-0.0330209" style="stroke:rgb(246,147,147);stroke-width:0.01" />
<line x1="0.0284196" y1="0.060912" x2="-0.255694" y2="0.181086" style="stroke:rgb(246,147,147);stroke-width:0.01" />
<line x1="0.255068" y1="-0.0838811" x2="-0.255694" y2="0.181086" style="stroke:rgb(246,147,147);stroke-width:0.01" />
<line x1="0.239336" y1="-0.0342306" x2="-0.206992" y2="0.284708" style="stroke:rgb(246,147,147);stroke-width:0.01" />
<line x1="0.0786784" y1="0.11022" x2="0.00371764" y2="0.171329" style="stroke:rgb(246,147,147);stroke-width:0.01" />
<line x1="0.0337062" y1="0.221125" x2="-0.206992" y2="0.284708" style="stroke:rgb(246,147,147);stroke-width:0.01" />
<line x1="0.0642873" y1="0.145709" x2="0.00371764" y2="0.171329" style="stroke:rgb(246,147,147);stroke-width:0.01" />
</g>
</svg>
