<svg xmlns="http://www.w3.org/2000/svg" viewBox="-1.5 -1.5 3 3">
<g transform="scale(1, -1)">
<path d="M0.295529 -0.442158 L0.325818 -0.434465 L0.132811 0.435556 L-0.355380 0.504821 L-0.382880 0.448696 L-0.334368 0.385087 L-0.322971 0.320143 L-0.289340 0.326045 L0.191107 -0.303922 L0.173016 -0.390112 L0.272815 -0.411059 L0.293842 -0.438630 z " fill="rgb(245,195,195)" />
<path d="M-0.754471 -0.729658 L0.245529 -0.729658 L0.245529 0.270342 L-0.754471 0.270342  z" fill="none" stroke="rgb(128,128,128)" stroke-width="0.01" />
<line x1="0.295118" y1="-0.440303" x2="0.317141" y2="-0.395355" style="stroke:rgb(246,147,147);stroke-width:0.01" />
<line x1="0.295529" y1="-0.442158" x2="0.32296" y2="-0.421585" style="stroke:rgb(246,147,147);stroke-width:0.01" />
<line x1="0.173016" y1="-0.390112" x2="0.242519" y2="-0.0589771" style="stroke:rgb(246,147,147);stroke-width:0.01" />
<line x1="0.0672309" y1="0.174653" x2="0.163438" y2="0.297495" style="stroke:rgb(246,147,147);stroke-width:0.01" />
<line x1="0.245529" y1="-0.337612" x2="0.245529" y2="-0.0725474" style="stroke:rgb(246,147,147);stroke-width:0.01" />
<line x1="0.295529" y1="-0.442158" x2="0.325818" y2="-0.434465" style="stroke:rgb(246,147,147);stroke-width:0.01" />
<line x1="-0.0452316" y1="0.270342" x2="0.038347" y2="0.373996" style="stroke:rgb(246,147,147);stroke-width:0.01" />
<line x1="-0.38288" y1="0.448696" x2="-0.35538" y2="0.504821" style="stroke:rgb(246,147,147);stroke-width:0.01" />
<line x1="0.295118" y1="-0.440303" x2="0.325818" y2="-0.434465" style="stroke:rgb(246,147,147);stroke-width:0.01" />
<line x1="-0.322971" y1="0.320143" x2="-0.35538" y2="0.504821" style="stroke:rgb(246,147,147);stroke-width:0.01" />
<line x1="0.325818" y1="-0.434465" x2="0.132811" y2="0.435556" style="stroke:rgb(246,147,147);stroke-width:0.01" />
<line x1="-0.0631663" y1="0.307842" x2="0.132811" y2="0.435556" style="stroke:rgb(246,147,147);stroke-width:0.01" />
<line x1="0.295529" y1="-0.442158" x2="-0.0631663" y2="0.307842" style="stroke:rgb(246,147,147);stroke-width:0.01" />
<line x1="0.100531" y1="0.238176" x2="0.169462" y2="0.270342" style="stroke:rgb(246,147,147);stroke-width:0.01" />
<line x1="0.245529" y1="-0.0725474" x2="0.100531" y2="0.238176" style="stroke:rgb(246,147,147);stroke-width:0.01" />
<line x1="0.32296" y1="-0.421585" x2="0.173016" y2="-0.390112" style="stroke:rgb(246,147,147);stroke-width:0.01" />
<line x1="0.0180255" y1="0.21319" x2="-0.042632" y2="0.321224" style="stroke:rgb(246,147,147);stroke-width:0.01" />
<line x1="0.295118" y1="-0.440303" x2="-0.38288" y2="0.448696" style="stroke:rgb(246,147,147);stroke-width:0.01" />
<line x1="0.242519" y1="-0.0589771" x2="-0.042632" y2="0.321224" style="stroke:rgb(246,147,147);stroke-width:0.01" />
<line x1="0.317141" y1="-0.395355" x2="0.245529" y2="-0.337612" style="stroke:rgb(246,147,147);stroke-width:0.01" />
<line x1="0.0180255" y1="0.21319" x2="-0.0631663" y2="0.307842" style="stroke:rgb(246,147,147);stroke-width:0.01" />
<line x1="0.038347" y1="0.373996" x2="0.140376" y2="0.401454" style="stroke:rgb(246,147,147);stroke-width:0.01" />
<line x1="-0.322971" y1="0.320143" x2="0.140376" y2="0.401454" style="stroke:rgb(246,147,147);stroke-width:0.01" />
<line x1="0.0672309" y1="0.174653" x2="0.0180255" y2="0.21319" style="stroke:rgb(246,147,147);stroke-width:0.01" />
<line x1="-0.0452316" y1="0.270342" x2="0.169462" y2="0.270342" style="stroke:rgb(246,147,147);stroke-width:0.01" />
<line x1="-0.38288" y1="0.448696" x2="-0.202091" y2="0.483072" style="stroke:rgb(246,147,147);stroke-width:0.01" />
<line x1="0.163438" y1="0.297495" x2="-0.202091" y2="0.483072" style="stroke:rgb(246,147,147);stroke-width:0.01" />
<line x1="0.132811" y1="0.435556" x2="-0.35538" y2="0.504821" style="stroke:rgb(246,147,147);stroke-width:0.01" />
</g>
</svg>
