<svg xmlns="http://www.w3.org/2000/svg" viewBox="-1.5 -1.5 3 3">
<g transform="scale(1, -1)">
<path d="M-0.079515 -0.124913 L0.024093 -0.069124 L0.024093 -0.050694 L0.211593 0.089931 L0.108915 0.226836 L-0.041011 0.144618 L-0.064417 -0.019222 L-0.100668 -0.074203 L-0.083084 -0.123229 z " fill="rgb(245,195,195)" />
<path d="M-0.888407 -1.203819 L0.111593 -1.203819 L0.111593 -0.203819 L-0.888407 -0.203819  z" fill="none" stroke="rgb(128,128,128)" stroke-width="0.01" />
<line x1="-0.0273365" y1="-0.0968166" x2="0.0240933" y2="0.0795142" style="stroke:rgb(246,147,147);stroke-width:0.01" />
<line x1="0.169927" y1="0.0586809" x2="0.180343" y2="0.131598" style="stroke:rgb(246,147,147);stroke-width:0.01" />
<line x1="-0.0795154" y1="-0.124913" x2="-0.0410109" y2="0.144618" style="stroke:rgb(246,147,147);stroke-width:0.01" />
<line x1="0.107427" y1="0.142014" x2="0.138677" y2="0.187153" style="stroke:rgb(246,147,147);stroke-width:0.01" />
<line x1="-0.100668" y1="-0.0742033" x2="-0.0605302" y2="-0.0133279" style="stroke:rgb(246,147,147);stroke-width:0.01" />
<line x1="0.0240933" y1="-0.0691236" x2="0.0240933" y2="0.0795142" style="stroke:rgb(246,147,147);stroke-width:0.01" />
<line x1="-0.0627123" y1="-0.00729134" x2="0.0240933" y2="0.0795142" style="stroke:rgb(246,147,147);stroke-width:0.01" />
<line x1="0.0449266" y1="0.162848" x2="0.108915" y2="0.226836" style="stroke:rgb(246,147,147);stroke-width:0.01" />
<line x1="-0.0630279" y1="-0.116035" x2="0.211593" y2="0.0899309" style="stroke:rgb(246,147,147);stroke-width:0.01" />
<line x1="-0.0830837" y1="-0.123229" x2="-0.100668" y2="-0.0742033" style="stroke:rgb(246,147,147);stroke-width:0.01" />
<line x1="-0.0592401" y1="0.0170142" x2="0.0240933" y2="0.0795142" style="stroke:rgb(246,147,147);stroke-width:0.01" />
<line x1="-0.0795154" y1="-0.124913" x2="0.0240933" y2="-0.0691236" style="stroke:rgb(246,147,147);stroke-width:0.01" />
<line x1="-0.0670526" y1="-0.0376733" x2="0.000759939" y2="-0.000485786" style="stroke:rgb(246,147,147);stroke-width:0.01" />
<line x1="-0.0205496" y1="-0.0841763" x2="-0.0627123" y2="-0.00729134" style="stroke:rgb(246,147,147);stroke-width:0.01" />
<line x1="-0.0410109" y1="0.144618" x2="0.108915" y2="0.226836" style="stroke:rgb(246,147,147);stroke-width:0.01" />
<line x1="-0.0830837" y1="-0.123229" x2="-0.0630279" y2="-0.116035" style="stroke:rgb(246,147,147);stroke-width:0.01" />
<line x1="0.158022" y1="0.0497523" x2="0.107427" y2="0.142014" style="stroke:rgb(246,147,147);stroke-width:0.01" />
<line x1="0.00325994" y1="-0.0663191" x2="-0.0592401" y2="0.0170142" style="stroke:rgb(246,147,147);stroke-width:0.01" />
<line x1="-0.0436151" y1="0.126389" x2="0.138677" y2="0.187153" style="stroke:rgb(246,147,147);stroke-width:0.01" />
<line x1="-0.0205496" y1="-0.0841763" x2="-0.0670526" y2="-0.0376733" style="stroke:rgb(246,147,147);stroke-width:0.01" />
<line x1="0.211593" y1="0.0899309" x2="0.108915" y2="0.226836" style="stroke:rgb(246,147,147);stroke-width:0.01" />
<line x1="0.0240933" y1="0.0795142" x2="-0.0410109" y2="0.144618" style="stroke:rgb(246,147,147);stroke-width:0.01" />
<line x1="0.158022" y1="0.0497523" x2="0.0449266" y2="0.162848" style="stroke:rgb(246,147,147);stroke-width:0.01" />
<line x1="-0.0795154" y1="-0.124913" x2="-0.0830837" y2="-0.123229" style="stroke:rgb(246,147,147);stroke-width:0.01" />
<line x1="0.0240933" y1="-0.0691236" x2="-0.0605302" y2="-0.0133279" style="stroke:rgb(246,147,147);stroke-width:0.01" />
<line x1="-0.0273365" y1="-0.0968166" x2="-0.100668" y2="-0.0742033" style="stroke:rgb(246,147,147);stroke-width:0.01" />
<line x1="0.0240933" y1="0.0795142" x2="-0.0436151" y2="0.126389" style="stroke:rgb(246,147,147);stroke-width:0.01" />
<line x1="0.169927" y1="0.0586809" x2="-0.0488234" y2="0.0899309" style="stroke:rgb(246,147,147);stroke-width:0.01" />
<line x1="0.180343" y1="0.131598" x2="0.107427" y2="0.142014" style="stroke:rgb(246,147,147);stroke-width:0.01" />
</g>
</svg>
