<svg xmlns="http://www.w3.org/2000/svg" viewBox="-1.5 -1.5 3 3">
<g transform="scale(1, -1)">
<path d="M0.000000 0.000000 L0.504950 0.000000 L0.531266 0.026316 L0.531266 0.203883 L0.796117 0.203883 L0.796117 0.230199 L0.531266 0.230199 L0.504950 0.203883 L0.504950 0.026316 L0.000000 0.026316 z " fill="rgb(245,195,195)" />
<path d="M0.000000 0.000000 L1.000000 0.000000 L1.000000 1.000000 L0.000000 1.000000  z" fill="none" stroke="rgb(128,128,128)" stroke-width="0.01" />
<line x1="0.50495" y1="0" x2="0.531266" y2="0.0263158" style="stroke:rgb(246,147,147);stroke-width:0.01" />
<line x1="0.50495" y1="0.203883" x2="0.531266" y2="0.230199" style="stroke:rgb(246,147,147);stroke-width:0.01" />
<line x1="0" y1="0" x2="0.50495" y2="0" style="stroke:rgb(246,147,147);stroke-width:0.01" />
<line x1="0" y1="0" x2="0" y2="0.0263158" style="stroke:rgb(246,147,147);stroke-width:0.01" />
<line x1="0.50495" y1="0" x2="0.50495" y2="0.203883" style="stroke:rgb(246,147,147);stroke-width:0.01" />
<line x1="0.531266" y1="0.0263158" x2="0.531266" y2="0.230199" style="stroke:rgb(246,147,147);stroke-width:0.01" />
<line x1="0.796117" y1="0.203883" x2="0.796117" y2="0.230199" style="stroke:rgb(246,147,147);stroke-width:0.01" />
<line x1="0" y1="0.0263158" x2="0.531266" y2="0.0263158" style="stroke:rgb(246,147,147);stroke-width:0.01" />
<line x1="0.50495" y1="0.203883" x2="0.796117" y2="0.203883" style="stroke:rgb(246,147,147);stroke-width:0.01" />
<line x1="0.531266" y1="0.230199" x2="0.796117" y2="0.230199" style="stroke:rgb(246,147,147);stroke-width:0.01" />
</g>
</svg>
