<svg xmlns="http://www.w3.org/2000/svg" viewBox="-1.5 -1.5 3 3">
<g transform="scale(1, -1)">
<path d="M-0.470088 -0.115100 L0.034862 -0.115100 L0.061178 -0.088784 L0.061178 0.088784 L0.326028 0.088784 L0.326028 0.115100 L0.061178 0.115100 L0.034862 0.088784 L0.034862 -0.088784 L-0.470088 -0.088784 z " fill="rgb(245,195,195)" />
<path d="M-0.470088 -0.115100 L0.529912 -0.115100 L0.529912 0.884900 L-0.470088 0.884900  z" fill="none" stroke="rgb(128,128,128)" stroke-width="0.01" />
<line x1="0.0348622" y1="-0.1151" x2="0.0611779" y2="-0.0887839" style="stroke:rgb(246,147,147);stroke-width:0.01" />
<line x1="0.0348622" y1="0.0887839" x2="0.0611779" y2="0.1151" style="stroke:rgb(246,147,147);stroke-width:0.01" />
<line x1="-0.470088" y1="-0.1151" x2="0.0348622" y2="-0.1151" style="stroke:rgb(246,147,147);stroke-width:0.01" />
<line x1="-0.470088" y1="-0.1151" x2="-0.470088" y2="-0.0887839" style="stroke:rgb(246,147,147);stroke-width:0.01" />
<line x1="0.0348622" y1="-0.1151" x2="0.0348622" y2="0.0887839" style="stroke:rgb(246,147,147);stroke-width:0.01" />
<line x1="0.0611779" y1="-0.0887839" x2="0.0611779" y2="0.1151" style="stroke:rgb(246,147,147);stroke-width:0.01" />
<line x1="0.326028" y1="0.0887839" x2="0.326028" y2="0.1151" style="stroke:rgb(246,147,147);stroke-width:0.01" />
<line x1="-0.470088" y1="-0.0887839" x2="0.0611779" y2="-0.0887839" style="stroke:rgb(246,147,147);stroke-width:0.01" />
<line x1="0.0348622" y1="0.0887839" x2="0.326028" y2="0.0887839" style="stroke:rgb(246,147,147);stroke-width:0.01" />
<line x1="0.0611779" y1="0.1151" x2="0.326028" y2="0.1151" style="stroke:rgb(246,147,147);stroke-width:0.01" />
</g>
</svg>
