<svg xmlns="http://www.w3.org/2000/svg" viewBox="-1.5 -1.5 3 3">
<g transform="scale(1, -1)">
<path d="M-0.310929 -0.182579 L-0.026258 -0.182579 L0.000058 -0.156264 L0.000058 0.156264 L0.350228 0.156264 L0.350228 0.182579 L0.000058 0.182579 L-0.026258 0.156264 L-0.026258 -0.156264 L-0.310929 -0.156264 z " fill="rgb(245,195,195)" />
<path d="M-0.310929 -0.182579 L0.689071 -0.182579 L0.689071 0.817421 L-0.310929 0.817421  z" fill="none" stroke="rgb(128,128,128)" stroke-width="0.01" />
<line x1="-0.0262575" y1="-0.182579" x2="5.82608e-05" y2="-0.156264" style="stroke:rgb(246,147,147);stroke-width:0.01" />
<line x1="-0.310929" y1="-0.182579" x2="-0.0262575" y2="-0.182579" style="stroke:rgb(246,147,147);stroke-width:0.01" />
<line x1="-0.310929" y1="-0.182579" x2="-0.310929" y2="-0.156264" style="stroke:rgb(246,147,147);stroke-width:0.01" />
<line x1="-0.0262575" y1="-0.182579" x2="-0.0262575" y2="0.156264" style="stroke:rgb(246,147,147);stroke-width:0.01" />
<line x1="5.82608e-05" y1="-0.156264" x2="5.82608e-05" y2="0.182579" style="stroke:rgb(246,147,147);stroke-width:0.01" />
<line x1="0.350228" y1="0.156264" x2="0.350228" y2="0.182579" style="stroke:rgb(246,147,147);stroke-width:0.01" />
<line x1="-0.310929" y1="-0.156264" x2="5.82608e-05" y2="-0.156264" style="stroke:rgb(246,147,147);stroke-width:0.01" />
<line x1="-0.0262575" y1="0.156264" x2="5.82608e-05" y2="0.182579" style="stroke:rgb(246,147,147);stroke-width:0.01" />
<line x1="-0.0262575" y1="0.156264" x2="0.350228" y2="0.156264" style="stroke:rgb(246,147,147);stroke-width:0.01" />
<line x1="5.82608e-05" y1="0.182579" x2="0.350228" y2="0.182579" style="stroke:rgb(246,147,147);stroke-width:0.01" />
</g>
</svg>
