<svg xmlns="http://www.w3.org/2000/svg" viewBox="-1.5 -1.5 3 3">
<g transform="scale(1, -1)">
<path d="M0.000000 0.000000 L0.284672 0.000000 L0.310987 0.026316 L0.310987 0.338843 L0.661157 0.338843 L0.661157 0.365159 L0.310987 0.365159 L0.284672 0.338843 L0.284672 0.026316 L0.000000 0.026316 z " fill="rgb(245,195,195)" />
<path d="M0.000000 0.000000 L1.000000 0.000000 L1.000000 1.000000 L0.000000 1.000000  z" fill="none" stroke="rgb(128,128,128)" stroke-width="0.01" />
<line x1="0.284672" y1="0" x2="0.310987" y2="0.0263158" style="stroke:rgb(246,147,147);stroke-width:0.01" />
<line x1="0" y1="0" x2="0.284672" y2="0" style="stroke:rgb(246,147,147);stroke-width:0.01" />
<line x1="0" y1="0" x2="0" y2="0.0263158" style="stroke:rgb(246,147,147);stroke-width:0.01" />
<line x1="0.284672" y1="0" x2="0.284672" y2="0.338843" style="stroke:rgb(246,147,147);stroke-width:0.01" />
<line x1="0.310987" y1="0.0263158" x2="0.310987" y2="0.365159" style="stroke:rgb(246,147,147);stroke-width:0.01" />
<line x1="0.661157" y1="0.338843" x2="0.661157" y2="0.365159" style="stroke:rgb(246,147,147);stroke-width:0.01" />
<line x1="0" y1="0.0263158" x2="0.310987" y2="0.0263158" style="stroke:rgb(246,147,147);stroke-width:0.01" />
<line x1="0.284672" y1="0.338843" x2="0.310987" y2="0.365159" style="stroke:rgb(246,147,147);stroke-width:0.01" />
<line x1="0.284672" y1="0.338843" x2="0.661157" y2="0.338843" style="stroke:rgb(246,147,147);stroke-width:0.01" />
<line x1="0.310987" y1="0.365159" x2="0.661157" y2="0.365159" style="stroke:rgb(246,147,147);stroke-width:0.01" />
</g>
</svg>
