<svg xmlns="http://www.w3.org/2000/svg" viewBox="-1.5 -1.5 3 3">
<g transform="scale(1, -1)">
<path d="M-0.197527 -0.264853 L-0.046448 -0.264853 L-0.020807 -0.239212 L-0.020807 0.239212 L0.298408 0.239212 L0.298408 0.264853 L-0.020807 0.264853 L-0.046448 0.239212 L-0.046448 -0.239212 L-0.197527 -0.239212 z " fill="rgb(245,195,195)" />
<path d="M-0.197527 -0.264853 L0.802473 -0.264853 L0.802473 0.735147 L-0.197527 0.735147  z" fill="none" stroke="rgb(128,128,128)" stroke-width="0.01" />
<line x1="-0.0464476" y1="-0.264853" x2="-0.0208066" y2="-0.239212" style="stroke:rgb(246,147,147);stroke-width:0.01" />
<line x1="-0.197527" y1="-0.264853" x2="-0.0464476" y2="-0.264853" style="stroke:rgb(246,147,147);stroke-width:0.01" />
<line x1="-0.197527" y1="-0.264853" x2="-0.197527" y2="-0.239212" style="stroke:rgb(246,147,147);stroke-width:0.01" />
<line x1="-0.0464476" y1="-0.264853" x2="-0.0464476" y2="0.239212" style="stroke:rgb(246,147,147);stroke-width:0.01" />
<line x1="-0.0208066" y1="-0.239212" x2="-0.0208066" y2="0.264853" style="stroke:rgb(246,147,147);stroke-width:0.01" />
<line x1="0.298408" y1="0.239212" x2="0.298408" y2="0.264853" style="stroke:rgb(246,147,147);stroke-width:0.01" />
<line x1="-0.197527" y1="-0.239212" x2="-0.0208066" y2="-0.239212" style="stroke:rgb(246,147,147);stroke-width:0.01" />
<line x1="-0.0464476" y1="0.239212" x2="-0.0208066" y2="0.264853" style="stroke:rgb(246,147,147);stroke-width:0.01" />
<line x1="-0.0464476" y1="0.239212" x2="0.298408" y2="0.239212" style="stroke:rgb(246,147,147);stroke-width:0.01" />
<line x1="-0.0208066" y1="0.264853" x2="0.298408" y2="0.264853" style="stroke:rgb(246,147,147);stroke-width:0.01" />
</g>
</svg>
