<svg xmlns="http://www.w3.org/2000/svg" viewBox="-1.5 -1.5 3 3">
<g transform="scale(1, -1)">
<path d="M0.000000 0.000000 L0.151079 0.000000 L0.176720 0.025641 L0.176720 0.504065 L0.495935 0.504065 L0.495935 0.529706 L0.176720 0.529706 L0.151079 0.504065 L0.151079 0.025641 L0.000000 0.025641 z " fill="rgb(245,195,195)" />
<path d="M0.000000 0.000000 L1.000000 0.000000 L1.000000 1.000000 L0.000000 1.000000  z" fill="none" stroke="rgb(128,128,128)" stroke-width="0.01" />
<line x1="0.151079" y1="0" x2="0.17672" y2="0.025641" style="stroke:rgb(246,147,147);stroke-width:0.01" />
<line x1="0" y1="0" x2="0.151079" y2="0" style="stroke:rgb(246,147,147);stroke-width:0.01" />
<line x1="0" y1="0" x2="0" y2="0.025641" style="stroke:rgb(246,147,147);stroke-width:0.01" />
<line x1="0.151079" y1="0" x2="0.151079" y2="0.504065" style="stroke:rgb(246,147,147);stroke-width:0.01" />
<line x1="0.17672" y1="0.025641" x2="0.17672" y2="0.529706" style="stroke:rgb(246,147,147);stroke-width:0.01" />
<line x1="0.495935" y1="0.504065" x2="0.495935" y2="0.529706" style="stroke:rgb(246,147,147);stroke-width:0.01" />
<line x1="0" y1="0.025641" x2="0.17672" y2="0.025641" style="stroke:rgb(246,147,147);stroke-width:0.01" />
<line x1="0.151079" y1="0.504065" x2="0.17672" y2="0.529706" style="stroke:rgb(246,147,147);stroke-width:0.01" />
<line x1="0.151079" y1="0.504065" x2="0.495935" y2="0.504065" style="stroke:rgb(246,147,147);stroke-width:0.01" />
<line x1="0.17672" y1="0.529706" x2="0.495935" y2="0.529706" style="stroke:rgb(246,147,147);stroke-width:0.01" />
</g>
</svg>
