<svg xmlns="http://www.w3.org/2000/svg" viewBox="-1.5 -1.5 3 3">
<g transform="scale(1, -1)">
<path d="M0.393000 -0.597057 L0.579329 -0.430379 L0.489257 -0.259380 L-0.066519 0.363197 L-0.089672 0.372082 L-0.132218 0.325137 L-0.113402 0.297525 L-0.112226 0.292714 L-0.373087 0.059365 L-0.451864 -0.027558 L-0.122597 -0.395646 z " fill="rgb(245,195,195)" />
<path d="M0.796488 0.803966 L1.796488 0.803966 L1.796488 1.803966 L0.796488 1.803966  z" fill="none" stroke="rgb(128,128,128)" stroke-width="0.01" />
<line x1="0.393" y1="-0.597057" x2="-0.122597" y2="-0.395646" style="stroke:rgb(246,147,147);stroke-width:0.01" />
<line x1="-0.441967" y1="-0.0347977" x2="-0.451864" y2="-0.0275576" style="stroke:rgb(246,147,147);stroke-width:0.01" />
<line x1="0.202321" y1="-0.522571" x2="0.579329" y2="-0.430379" style="stroke:rgb(246,147,147);stroke-width:0.01" />
<line x1="-0.122597" y1="-0.395646" x2="0.368988" y2="-0.348213" style="stroke:rgb(246,147,147);stroke-width:0.01" />
<line x1="-0.122597" y1="-0.395646" x2="-0.451864" y2="-0.0275576" style="stroke:rgb(246,147,147);stroke-width:0.01" />
<line x1="0.489257" y1="-0.25938" x2="0.0100862" y2="0.0670808" style="stroke:rgb(246,147,147);stroke-width:0.01" />
<line x1="-0.0834253" y1="0.298487" x2="-0.132218" y2="0.325137" style="stroke:rgb(246,147,147);stroke-width:0.01" />
<line x1="0.202321" y1="-0.522571" x2="0.140432" y2="-0.429363" style="stroke:rgb(246,147,147);stroke-width:0.01" />
<line x1="-0.0665187" y1="0.363197" x2="-0.0896723" y2="0.372082" style="stroke:rgb(246,147,147);stroke-width:0.01" />
<line x1="-0.0412564" y1="0.334898" x2="-0.0603075" y2="0.339188" style="stroke:rgb(246,147,147);stroke-width:0.01" />
<line x1="0.489257" y1="-0.25938" x2="-0.0665187" y2="0.363197" style="stroke:rgb(246,147,147);stroke-width:0.01" />
<line x1="-0.0674468" y1="0.327741" x2="-0.122718" y2="0.33562" style="stroke:rgb(246,147,147);stroke-width:0.01" />
<line x1="-0.0227468" y1="0.164487" x2="-0.132218" y2="0.325137" style="stroke:rgb(246,147,147);stroke-width:0.01" />
<line x1="0.393" y1="-0.597057" x2="0.579329" y2="-0.430379" style="stroke:rgb(246,147,147);stroke-width:0.01" />
<line x1="0.0749759" y1="-0.472825" x2="0.140432" y2="-0.429363" style="stroke:rgb(246,147,147);stroke-width:0.01" />
<line x1="-0.0674468" y1="0.327741" x2="-0.0896723" y2="0.372082" style="stroke:rgb(246,147,147);stroke-width:0.01" />
<line x1="0.579329" y1="-0.430379" x2="0.489257" y2="-0.25938" style="stroke:rgb(246,147,147);stroke-width:0.01" />
<line x1="-0.0227468" y1="0.164487" x2="0.0777873" y2="0.201546" style="stroke:rgb(246,147,147);stroke-width:0.01" />
<line x1="0.0749759" y1="-0.472825" x2="-0.122718" y2="0.33562" style="stroke:rgb(246,147,147);stroke-width:0.01" />
<line x1="0.0100862" y1="0.0670808" x2="-0.0665187" y2="0.363197" style="stroke:rgb(246,147,147);stroke-width:0.01" />
<line x1="-0.0227468" y1="0.164487" x2="-0.0412564" y2="0.334898" style="stroke:rgb(246,147,147);stroke-width:0.01" />
<line x1="0.393" y1="-0.597057" x2="0.368988" y2="-0.348213" style="stroke:rgb(246,147,147);stroke-width:0.01" />
<line x1="-0.0603075" y1="0.339188" x2="-0.0518286" y2="0.346741" style="stroke:rgb(246,147,147);stroke-width:0.01" />
<line x1="0.0100862" y1="0.0670808" x2="0.0777873" y2="0.201546" style="stroke:rgb(246,147,147);stroke-width:0.01" />
<line x1="-0.373087" y1="0.0593651" x2="-0.0518286" y2="0.346741" style="stroke:rgb(246,147,147);stroke-width:0.01" />
<line x1="-0.451864" y1="-0.0275576" x2="-0.373087" y2="0.0593651" style="stroke:rgb(246,147,147);stroke-width:0.01" />
<line x1="-0.132218" y1="0.325137" x2="-0.0896723" y2="0.372082" style="stroke:rgb(246,147,147);stroke-width:0.01" />
<line x1="-0.0834253" y1="0.298487" x2="-0.0674468" y2="0.327741" style="stroke:rgb(246,147,147);stroke-width:0.01" />
<line x1="-0.441967" y1="-0.0347977" x2="-0.373087" y2="0.0593651" style="stroke:rgb(246,147,147);stroke-width:0.01" />
</g>
</svg>
