<svg xmlns="http://www.w3.org/2000/svg" viewBox="-1.5 -1.5 3 3">
<g transform="scale(1, -1)">
<path d="M-0.403488 -1.401022 L-0.217159 -1.234345 L-0.307230 -1.063346 L-0.863006 -0.440769 L-0.886160 -0.431884 L-0.928706 -0.478828 L-0.909890 -0.506441 L-0.908713 -0.511252 L-1.169574 -0.744600 L-1.248352 -0.831523 L-0.919085 -1.199612 z " fill="rgb(245,195,195)" />
<path d="M0.000000 0.000000 L1.000000 0.000000 L1.000000 1.000000 L0.000000 1.000000  z" fill="none" stroke="rgb(128,128,128)" stroke-width="0.01" />
<line x1="-0.403488" y1="-1.40102" x2="-0.919085" y2="-1.19961" style="stroke:rgb(246,147,147);stroke-width:0.01" />
<line x1="-1.23845" y1="-0.838763" x2="-1.24835" y2="-0.831523" style="stroke:rgb(246,147,147);stroke-width:0.01" />
<line x1="-0.594166" y1="-1.32654" x2="-0.217159" y2="-1.23434" style="stroke:rgb(246,147,147);stroke-width:0.01" />
<line x1="-0.919085" y1="-1.19961" x2="-0.427499" y2="-1.15218" style="stroke:rgb(246,147,147);stroke-width:0.01" />
<line x1="-0.919085" y1="-1.19961" x2="-1.24835" y2="-0.831523" style="stroke:rgb(246,147,147);stroke-width:0.01" />
<line x1="-0.30723" y1="-1.06335" x2="-0.786401" y2="-0.736885" style="stroke:rgb(246,147,147);stroke-width:0.01" />
<line x1="-0.879913" y1="-0.505479" x2="-0.928706" y2="-0.478828" style="stroke:rgb(246,147,147);stroke-width:0.01" />
<line x1="-0.594166" y1="-1.32654" x2="-0.656056" y2="-1.23333" style="stroke:rgb(246,147,147);stroke-width:0.01" />
<line x1="-0.863006" y1="-0.440769" x2="-0.88616" y2="-0.431884" style="stroke:rgb(246,147,147);stroke-width:0.01" />
<line x1="-0.837744" y1="-0.469067" x2="-0.856795" y2="-0.464778" style="stroke:rgb(246,147,147);stroke-width:0.01" />
<line x1="-0.30723" y1="-1.06335" x2="-0.863006" y2="-0.440769" style="stroke:rgb(246,147,147);stroke-width:0.01" />
<line x1="-0.863934" y1="-0.476225" x2="-0.919205" y2="-0.468346" style="stroke:rgb(246,147,147);stroke-width:0.01" />
<line x1="-0.819234" y1="-0.639479" x2="-0.928706" y2="-0.478828" style="stroke:rgb(246,147,147);stroke-width:0.01" />
<line x1="-0.403488" y1="-1.40102" x2="-0.217159" y2="-1.23434" style="stroke:rgb(246,147,147);stroke-width:0.01" />
<line x1="-0.721512" y1="-1.27679" x2="-0.656056" y2="-1.23333" style="stroke:rgb(246,147,147);stroke-width:0.01" />
<line x1="-0.863934" y1="-0.476225" x2="-0.88616" y2="-0.431884" style="stroke:rgb(246,147,147);stroke-width:0.01" />
<line x1="-0.217159" y1="-1.23434" x2="-0.30723" y2="-1.06335" style="stroke:rgb(246,147,147);stroke-width:0.01" />
<line x1="-0.819234" y1="-0.639479" x2="-0.7187" y2="-0.602419" style="stroke:rgb(246,147,147);stroke-width:0.01" />
<line x1="-0.721512" y1="-1.27679" x2="-0.919205" y2="-0.468346" style="stroke:rgb(246,147,147);stroke-width:0.01" />
<line x1="-0.786401" y1="-0.736885" x2="-0.863006" y2="-0.440769" style="stroke:rgb(246,147,147);stroke-width:0.01" />
<line x1="-0.819234" y1="-0.639479" x2="-0.837744" y2="-0.469067" style="stroke:rgb(246,147,147);stroke-width:0.01" />
<line x1="-0.403488" y1="-1.40102" x2="-0.427499" y2="-1.15218" style="stroke:rgb(246,147,147);stroke-width:0.01" />
<line x1="-0.856795" y1="-0.464778" x2="-0.848316" y2="-0.457224" style="stroke:rgb(246,147,147);stroke-width:0.01" />
<line x1="-0.786401" y1="-0.736885" x2="-0.7187" y2="-0.602419" style="stroke:rgb(246,147,147);stroke-width:0.01" />
<line x1="-1.16957" y1="-0.7446" x2="-0.848316" y2="-0.457224" style="stroke:rgb(246,147,147);stroke-width:0.01" />
<line x1="-1.24835" y1="-0.831523" x2="-1.16957" y2="-0.7446" style="stroke:rgb(246,147,147);stroke-width:0.01" />
<line x1="-0.928706" y1="-0.478828" x2="-0.88616" y2="-0.431884" style="stroke:rgb(246,147,147);stroke-width:0.01" />
<line x1="-0.879913" y1="-0.505479" x2="-0.863934" y2="-0.476225" style="stroke:rgb(246,147,147);stroke-width:0.01" />
<line x1="-1.23845" y1="-0.838763" x2="-1.16957" y2="-0.7446" style="stroke:rgb(246,147,147);stroke-width:0.01" />
</g>
</svg>
