<svg xmlns="http://www.w3.org/2000/svg" viewBox="-1.5 -1.5 3 3">
<g transform="scale(1, -1)">
<path d="M0.499570 -0.373230 L0.824802 0.127343 L0.176685 0.548437 L-0.319617 0.038855 L-0.371090 -0.083822 L-0.403345 -0.088167 L-0.407004 -0.169418 z " fill="rgb(245,195,195)" />
<path d="M-3.628679 1.844141 L-2.628679 1.844141 L-2.628679 2.844141 L-3.628679 2.844141  z" fill="none" stroke="rgb(128,128,128)" stroke-width="0.01" />
<line x1="0.134025" y1="0.243443" x2="0.305398" y2="0.361336" style="stroke:rgb(246,147,147);stroke-width:0.01" />
<line x1="-0.319617" y1="0.0388552" x2="0.134025" y2="0.243443" style="stroke:rgb(246,147,147);stroke-width:0.01" />
<line x1="0.49957" y1="-0.37323" x2="0.824802" y2="0.127343" style="stroke:rgb(246,147,147);stroke-width:0.01" />
<line x1="-0.319617" y1="0.0388552" x2="0.176685" y2="0.548437" style="stroke:rgb(246,147,147);stroke-width:0.01" />
<line x1="-0.20214" y1="0.159476" x2="0.134025" y2="0.243443" style="stroke:rgb(246,147,147);stroke-width:0.01" />
<line x1="-0.403345" y1="-0.0881668" x2="0.445763" y2="0.0262127" style="stroke:rgb(246,147,147);stroke-width:0.01" />
<line x1="-0.407004" y1="-0.169418" x2="-0.319617" y2="0.0388552" style="stroke:rgb(246,147,147);stroke-width:0.01" />
<line x1="0.49957" y1="-0.37323" x2="-0.407004" y2="-0.169418" style="stroke:rgb(246,147,147);stroke-width:0.01" />
<line x1="-0.263697" y1="-0.119969" x2="-0.403345" y2="-0.0881668" style="stroke:rgb(246,147,147);stroke-width:0.01" />
<line x1="-0.281389" y1="-0.197658" x2="-0.263697" y2="-0.119969" style="stroke:rgb(246,147,147);stroke-width:0.01" />
<line x1="-0.281389" y1="-0.197658" x2="-0.20214" y2="0.159476" style="stroke:rgb(246,147,147);stroke-width:0.01" />
<line x1="-0.407004" y1="-0.169418" x2="-0.403345" y2="-0.0881668" style="stroke:rgb(246,147,147);stroke-width:0.01" />
<line x1="0.49957" y1="-0.37323" x2="0.445763" y2="0.0262127" style="stroke:rgb(246,147,147);stroke-width:0.01" />
<line x1="0.824802" y1="0.127343" x2="0.176685" y2="0.548437" style="stroke:rgb(246,147,147);stroke-width:0.01" />
<line x1="0.305398" y1="0.361336" x2="0.176685" y2="0.548437" style="stroke:rgb(246,147,147);stroke-width:0.01" />
</g>
</svg>
