<svg xmlns="http://www.w3.org/2000/svg" viewBox="-1.5 -1.5 3 3">
<g transform="scale(1, -1)">
<path d="M-0.340402 -0.266741 L-0.188058 -0.266741 L0.159598 0.080915 L0.311942 0.080915 L0.136161 0.256696 L-0.039621 0.080915 L-0.039621 0.034040 z " fill="rgb(245,195,195)" />
<path d="M-0.188058 -0.419085 L0.811942 -0.419085 L0.811942 0.580915 L-0.188058 0.580915  z" fill="none" stroke="rgb(128,128,128)" stroke-width="0.01" />
<line x1="-0.188058" y1="-0.266741" x2="-0.188058" y2="-0.118304" style="stroke:rgb(246,147,147);stroke-width:0.01" />
<line x1="-0.0396205" y1="-0.118304" x2="-0.0396205" y2="0.0809152" style="stroke:rgb(246,147,147);stroke-width:0.01" />
<line x1="-0.188058" y1="-0.266741" x2="0.23577" y2="0.157087" style="stroke:rgb(246,147,147);stroke-width:0.01" />
<line x1="-0.188058" y1="-0.118304" x2="0.161551" y2="0.231306" style="stroke:rgb(246,147,147);stroke-width:0.01" />
<line x1="-0.340402" y1="-0.266741" x2="0.159598" y2="0.233259" style="stroke:rgb(246,147,147);stroke-width:0.01" />
<line x1="-0.340402" y1="-0.266741" x2="-0.188058" y2="-0.266741" style="stroke:rgb(246,147,147);stroke-width:0.01" />
<line x1="-0.0396205" y1="0.0809152" x2="0.136161" y2="0.256696" style="stroke:rgb(246,147,147);stroke-width:0.01" />
<line x1="-0.188058" y1="-0.118304" x2="-0.0396205" y2="-0.118304" style="stroke:rgb(246,147,147);stroke-width:0.01" />
<line x1="-0.0396205" y1="0.0809152" x2="0.311942" y2="0.0809152" style="stroke:rgb(246,147,147);stroke-width:0.01" />
<line x1="0.311942" y1="0.0809152" x2="0.136161" y2="0.256696" style="stroke:rgb(246,147,147);stroke-width:0.01" />
</g>
</svg>
