<svg xmlns="http://www.w3.org/2000/svg" viewBox="-1.5 -1.5 3 3">
<g transform="scale(1, -1)">
<path d="M-0.152344 0.152344 L0.000000 0.152344 L0.347656 0.500000 L0.500000 0.500000 L0.324219 0.675781 L0.148438 0.500000 L0.148438 0.453125 z " fill="rgb(245,195,195)" />
<path d="M0.000000 0.000000 L1.000000 0.000000 L1.000000 1.000000 L0.000000 1.000000  z" fill="none" stroke="rgb(128,128,128)" stroke-width="0.01" />
<line x1="0" y1="0.152344" x2="0" y2="0.300781" style="stroke:rgb(246,147,147);stroke-width:0.01" />
<line x1="0.148438" y1="0.300781" x2="0.148438" y2="0.5" style="stroke:rgb(246,147,147);stroke-width:0.01" />
<line x1="0" y1="0.152344" x2="0.423828" y2="0.576172" style="stroke:rgb(246,147,147);stroke-width:0.01" />
<line x1="0" y1="0.300781" x2="0.349609" y2="0.650391" style="stroke:rgb(246,147,147);stroke-width:0.01" />
<line x1="-0.152344" y1="0.152344" x2="0.347656" y2="0.652344" style="stroke:rgb(246,147,147);stroke-width:0.01" />
<line x1="-0.152344" y1="0.152344" x2="0" y2="0.152344" style="stroke:rgb(246,147,147);stroke-width:0.01" />
<line x1="0.148438" y1="0.5" x2="0.324219" y2="0.675781" style="stroke:rgb(246,147,147);stroke-width:0.01" />
<line x1="0" y1="0.300781" x2="0.148438" y2="0.300781" style="stroke:rgb(246,147,147);stroke-width:0.01" />
<line x1="0.148438" y1="0.5" x2="0.5" y2="0.5" style="stroke:rgb(246,147,147);stroke-width:0.01" />
<line x1="0.5" y1="0.5" x2="0.324219" y2="0.675781" style="stroke:rgb(246,147,147);stroke-width:0.01" />
</g>
</svg>
