<svg xmlns="http://www.w3.org/2000/svg" viewBox="-1.5 -1.5 3 3">
<g transform="scale(1, -1)">
<path d="M-0.072805 -0.085298 L0.084208 0.817529 L0.000000 0.914084 L-0.050861 0.921064 L-0.100017 0.714672 L-0.862929 0.288718 L-0.904806 0.090288 L-0.219629 -0.054312 L-0.221089 -0.064947 z " fill="rgb(245,195,195)" />
<path d="M0.000000 0.000000 L1.000000 0.000000 L1.000000 1.000000 L0.000000 1.000000  z" fill="none" stroke="rgb(128,128,128)" stroke-width="0.01" />
<line x1="-0.0728055" y1="-0.0852982" x2="-0.904806" y2="0.0902875" style="stroke:rgb(246,147,147);stroke-width:0.01" />
<line x1="-0.0728055" y1="-0.0852982" x2="-0.221089" y2="-0.0649469" style="stroke:rgb(246,147,147);stroke-width:0.01" />
<line x1="-0.112538" y1="0.0195719" x2="-0.862929" y2="0.288718" style="stroke:rgb(246,147,147);stroke-width:0.01" />
<line x1="0" y1="0.333333" x2="0" y2="0.914084" style="stroke:rgb(246,147,147);stroke-width:0.01" />
<line x1="-0.0728055" y1="-0.0852982" x2="0.084208" y2="0.817529" style="stroke:rgb(246,147,147);stroke-width:0.01" />
<line x1="-0.221089" y1="-0.0649469" x2="-0.133228" y2="0.57523" style="stroke:rgb(246,147,147);stroke-width:0.01" />
<line x1="-0.112538" y1="0.0195719" x2="0" y2="0.333333" style="stroke:rgb(246,147,147);stroke-width:0.01" />
<line x1="-0.133228" y1="0.57523" x2="-0.050861" y2="0.921064" style="stroke:rgb(246,147,147);stroke-width:0.01" />
<line x1="-0.133228" y1="0.57523" x2="-0.0181623" y2="0.909819" style="stroke:rgb(246,147,147);stroke-width:0.01" />
<line x1="-0.904806" y1="0.0902875" x2="-0.862929" y2="0.288718" style="stroke:rgb(246,147,147);stroke-width:0.01" />
<line x1="0.084208" y1="0.817529" x2="0" y2="0.914084" style="stroke:rgb(246,147,147);stroke-width:0.01" />
<line x1="-0.862929" y1="0.288718" x2="0.084208" y2="0.817529" style="stroke:rgb(246,147,147);stroke-width:0.01" />
<line x1="-0.0181623" y1="0.909819" x2="-0.050861" y2="0.921064" style="stroke:rgb(246,147,147);stroke-width:0.01" />
<line x1="0" y1="0.914084" x2="-0.050861" y2="0.921064" style="stroke:rgb(246,147,147);stroke-width:0.01" />
</g>
</svg>
