<svg xmlns="http://www.w3.org/2000/svg" viewBox="-1.5 -1.5 3 3">
<g transform="scale(1, -1)">
<path d="M2.067355 -0.535043 L2.086585 -0.472773 L2.077686 -0.470025 L2.214049 0.388204 L1.801098 0.453818 L1.196189 0.007527 L1.211733 -0.049734 L1.308409 -0.063551 L2.044378 -0.529698 z " fill="rgb(245,195,195)" />
<path d="M0.000000 0.000000 L1.000000 0.000000 L1.000000 1.000000 L0.000000 1.000000  z" fill="none" stroke="rgb(128,128,128)" stroke-width="0.01" />
<line x1="2.06736" y1="-0.535043" x2="2.08659" y2="-0.472773" style="stroke:rgb(246,147,147);stroke-width:0.01" />
<line x1="1.21173" y1="-0.0497344" x2="1.48682" y2="0.169145" style="stroke:rgb(246,147,147);stroke-width:0.01" />
<line x1="1.19619" y1="0.00752672" x2="1.8011" y2="0.453818" style="stroke:rgb(246,147,147);stroke-width:0.01" />
<line x1="1.36925" y1="0.100239" x2="1.48682" y2="0.169145" style="stroke:rgb(246,147,147);stroke-width:0.01" />
<line x1="2.06736" y1="-0.535043" x2="2.21405" y2="0.388204" style="stroke:rgb(246,147,147);stroke-width:0.01" />
<line x1="1.71878" y1="-0.122198" x2="1.8011" y2="0.453818" style="stroke:rgb(246,147,147);stroke-width:0.01" />
<line x1="2.06736" y1="-0.535043" x2="2.04438" y2="-0.529698" style="stroke:rgb(246,147,147);stroke-width:0.01" />
<line x1="1.71878" y1="-0.122198" x2="1.21173" y2="-0.0497344" style="stroke:rgb(246,147,147);stroke-width:0.01" />
<line x1="2.08659" y1="-0.472773" x2="1.82883" y2="-0.393174" style="stroke:rgb(246,147,147);stroke-width:0.01" />
<line x1="1.21173" y1="-0.0497344" x2="1.19619" y2="0.00752672" style="stroke:rgb(246,147,147);stroke-width:0.01" />
<line x1="2.04438" y1="-0.529698" x2="1.19619" y2="0.00752672" style="stroke:rgb(246,147,147);stroke-width:0.01" />
<line x1="1.36925" y1="0.100239" x2="1.35494" y2="0.124653" style="stroke:rgb(246,147,147);stroke-width:0.01" />
<line x1="2.21405" y1="0.388204" x2="1.8011" y2="0.453818" style="stroke:rgb(246,147,147);stroke-width:0.01" />
<line x1="1.82883" y1="-0.393174" x2="1.35494" y2="0.124653" style="stroke:rgb(246,147,147);stroke-width:0.01" />
<line x1="1.48682" y1="0.169145" x2="1.46277" y2="0.204206" style="stroke:rgb(246,147,147);stroke-width:0.01" />
<line x1="2.04438" y1="-0.529698" x2="1.46277" y2="0.204206" style="stroke:rgb(246,147,147);stroke-width:0.01" />
</g>
</svg>
