<svg xmlns="http://www.w3.org/2000/svg" viewBox="-1.5 -1.5 3 3">
<g transform="scale(1, -1)">
<path d="M-0.471174 2.184319 L-0.019293 2.528588 L-0.208138 2.777289 L-0.890481 2.969198 L-1.094971 2.739389 z " fill="rgb(245,195,195)" />
<path d="M0.000000 0.000000 L1.000000 0.000000 L1.000000 1.000000 L0.000000 1.000000  z" fill="none" stroke="rgb(128,128,128)" stroke-width="0.01" />
<line x1="-0.813003" y1="2.54058" x2="-0.890481" y2="2.9692" style="stroke:rgb(246,147,147);stroke-width:0.01" />
<line x1="-0.471174" y1="2.18432" x2="-0.544199" y2="2.33228" style="stroke:rgb(246,147,147);stroke-width:0.01" />
<line x1="-0.391908" y1="2.28352" x2="-0.701577" y2="2.91607" style="stroke:rgb(246,147,147);stroke-width:0.01" />
<line x1="-0.813003" y1="2.54058" x2="-0.950987" y2="2.75719" style="stroke:rgb(246,147,147);stroke-width:0.01" />
<line x1="-0.0192927" y1="2.52859" x2="-0.208138" y2="2.77729" style="stroke:rgb(246,147,147);stroke-width:0.01" />
<line x1="-0.471174" y1="2.18432" x2="-1.09497" y2="2.73939" style="stroke:rgb(246,147,147);stroke-width:0.01" />
<line x1="-0.253731" y1="2.35116" x2="-0.0539528" y2="2.57423" style="stroke:rgb(246,147,147);stroke-width:0.01" />
<line x1="-0.471174" y1="2.18432" x2="-0.0192927" y2="2.52859" style="stroke:rgb(246,147,147);stroke-width:0.01" />
<line x1="-0.253731" y1="2.35116" x2="-0.0192927" y2="2.52859" style="stroke:rgb(246,147,147);stroke-width:0.01" />
<line x1="-1.09497" y1="2.73939" x2="-0.890481" y2="2.9692" style="stroke:rgb(246,147,147);stroke-width:0.01" />
<line x1="-0.391908" y1="2.28352" x2="-0.253731" y2="2.35116" style="stroke:rgb(246,147,147);stroke-width:0.01" />
<line x1="-0.544199" y1="2.33228" x2="-0.0539528" y2="2.57423" style="stroke:rgb(246,147,147);stroke-width:0.01" />
<line x1="-0.950987" y1="2.75719" x2="-0.701577" y2="2.91607" style="stroke:rgb(246,147,147);stroke-width:0.01" />
<line x1="-0.813003" y1="2.54058" x2="-0.208138" y2="2.77729" style="stroke:rgb(246,147,147);stroke-width:0.01" />
<line x1="-0.208138" y1="2.77729" x2="-0.890481" y2="2.9692" style="stroke:rgb(246,147,147);stroke-width:0.01" />
</g>
</svg>
