<svg xmlns="http://www.w3.org/2000/svg" viewBox="-1.5 -1.5 3 3">
<g transform="scale(1, -1)">
<path d="M0.065637 -0.455438 L0.517519 -0.111168 L0.328673 0.137532 L-0.353669 0.329441 L-0.558159 0.099633 z " fill="rgb(245,195,195)" />
<path d="M0.536811 -2.639756 L1.536811 -2.639756 L1.536811 -1.639756 L0.536811 -1.639756  z" fill="none" stroke="rgb(128,128,128)" stroke-width="0.01" />
<line x1="-0.276192" y1="-0.0991742" x2="-0.353669" y2="0.329441" style="stroke:rgb(246,147,147);stroke-width:0.01" />
<line x1="0.065637" y1="-0.455438" x2="-0.00738726" y2="-0.307477" style="stroke:rgb(246,147,147);stroke-width:0.01" />
<line x1="0.144904" y1="-0.356238" x2="-0.164766" y2="0.276312" style="stroke:rgb(246,147,147);stroke-width:0.01" />
<line x1="-0.276192" y1="-0.0991742" x2="-0.414176" y2="0.117431" style="stroke:rgb(246,147,147);stroke-width:0.01" />
<line x1="0.517519" y1="-0.111168" x2="0.328673" y2="0.137532" style="stroke:rgb(246,147,147);stroke-width:0.01" />
<line x1="0.065637" y1="-0.455438" x2="-0.558159" y2="0.0996326" style="stroke:rgb(246,147,147);stroke-width:0.01" />
<line x1="0.28308" y1="-0.288592" x2="0.482858" y2="-0.0655225" style="stroke:rgb(246,147,147);stroke-width:0.01" />
<line x1="0.065637" y1="-0.455438" x2="0.517519" y2="-0.111168" style="stroke:rgb(246,147,147);stroke-width:0.01" />
<line x1="0.28308" y1="-0.288592" x2="0.517519" y2="-0.111168" style="stroke:rgb(246,147,147);stroke-width:0.01" />
<line x1="-0.558159" y1="0.0996326" x2="-0.353669" y2="0.329441" style="stroke:rgb(246,147,147);stroke-width:0.01" />
<line x1="0.144904" y1="-0.356238" x2="0.28308" y2="-0.288592" style="stroke:rgb(246,147,147);stroke-width:0.01" />
<line x1="-0.00738726" y1="-0.307477" x2="0.482858" y2="-0.0655225" style="stroke:rgb(246,147,147);stroke-width:0.01" />
<line x1="-0.414176" y1="0.117431" x2="-0.164766" y2="0.276312" style="stroke:rgb(246,147,147);stroke-width:0.01" />
<line x1="-0.276192" y1="-0.0991742" x2="0.328673" y2="0.137532" style="stroke:rgb(246,147,147);stroke-width:0.01" />
<line x1="0.328673" y1="0.137532" x2="-0.353669" y2="0.329441" style="stroke:rgb(246,147,147);stroke-width:0.01" />
</g>
</svg>
