<svg xmlns="http://www.w3.org/2000/svg" viewBox="-1.5 -1.5 3 3">
<g transform="scale(1, -1)">
<path d="M0.000000 0.000000 L0.250000 0.000000 L0.277027 0.027027 L0.277027 0.347826 L0.652174 0.347826 L0.652174 0.374853 L0.277027 0.374853 L0.250000 0.347826 L0.250000 0.027027 L0.000000 0.027027 z " fill="rgb(245,195,195)" />
<path d="M0.000000 0.000000 L1.000000 0.000000 L1.000000 1.000000 L0.000000 1.000000  z" fill="none" stroke="rgb(128,128,128)" stroke-width="0.01" />
<line x1="0.25" y1="0" x2="0.277027" y2="0.027027" style="stroke:rgb(246,147,147);stroke-width:0.01" />
<line x1="0" y1="0" x2="0.25" y2="0" style="stroke:rgb(246,147,147);stroke-width:0.01" />
<line x1="0" y1="0" x2="0" y2="0.027027" style="stroke:rgb(246,147,147);stroke-width:0.01" />
<line x1="0.25" y1="0" x2="0.25" y2="0.347826" style="stroke:rgb(246,147,147);stroke-width:0.01" />
<line x1="0.277027" y1="0.027027" x2="0.277027" y2="0.374853" style="stroke:rgb(246,147,147);stroke-width:0.01" />
<line x1="0.652174" y1="0.347826" x2="0.652174" y2="0.374853" style="stroke:rgb(246,147,147);stroke-width:0.01" />
<line x1="0" y1="0.027027" x2="0.277027" y2="0.027027" style="stroke:rgb(246,147,147);stroke-width:0.01" />
<line x1="0.25" y1="0.347826" x2="0.277027" y2="0.374853" style="stroke:rgb(246,147,147);stroke-width:0.01" />
<line x1="0.25" y1="0.347826" x2="0.652174" y2="0.347826" style="stroke:rgb(246,147,147);stroke-width:0.01" />
<line x1="0.277027" y1="0.374853" x2="0.652174" y2="0.374853" style="stroke:rgb(246,147,147);stroke-width:0.01" />
</g>
</svg>
