<svg xmlns="http://www.w3.org/2000/svg" viewBox="-1.5 -1.5 3 3">
<g transform="scale(1, -1)">
<path d="M-0.288543 -0.187427 L-0.038543 -0.187427 L-0.011516 -0.160400 L-0.011516 0.160400 L0.363631 0.160400 L0.363631 0.187427 L-0.011516 0.187427 L-0.038543 0.160400 L-0.038543 -0.160400 L-0.288543 -0.160400 z " fill="rgb(245,195,195)" />
<path d="M-0.288543 -0.187427 L0.711457 -0.187427 L0.711457 0.812573 L-0.288543 0.812573  z" fill="none" stroke="rgb(128,128,128)" stroke-width="0.01" />
<line x1="-0.0385429" y1="-0.187427" x2="-0.0115159" y2="-0.1604" style="stroke:rgb(246,147,147);stroke-width:0.01" />
<line x1="-0.288543" y1="-0.187427" x2="-0.0385429" y2="-0.187427" style="stroke:rgb(246,147,147);stroke-width:0.01" />
<line x1="-0.288543" y1="-0.187427" x2="-0.288543" y2="-0.1604" style="stroke:rgb(246,147,147);stroke-width:0.01" />
<line x1="-0.0385429" y1="-0.187427" x2="-0.0385429" y2="0.1604" style="stroke:rgb(246,147,147);stroke-width:0.01" />
<line x1="-0.0115159" y1="-0.1604" x2="-0.0115159" y2="0.187427" style="stroke:rgb(246,147,147);stroke-width:0.01" />
<line x1="0.363631" y1="0.1604" x2="0.363631" y2="0.187427" style="stroke:rgb(246,147,147);stroke-width:0.01" />
<line x1="-0.288543" y1="-0.1604" x2="-0.0115159" y2="-0.1604" style="stroke:rgb(246,147,147);stroke-width:0.01" />
<line x1="-0.0385429" y1="0.1604" x2="-0.0115159" y2="0.187427" style="stroke:rgb(246,147,147);stroke-width:0.01" />
<line x1="-0.0385429" y1="0.1604" x2="0.363631" y2="0.1604" style="stroke:rgb(246,147,147);stroke-width:0.01" />
<line x1="-0.0115159" y1="0.187427" x2="0.363631" y2="0.187427" style="stroke:rgb(246,147,147);stroke-width:0.01" />
</g>
</svg>
