<svg xmlns="http://www.w3.org/2000/svg" viewBox="-1.5 -1.5 3 3">
<g transform="scale(1, -1)">
<path d="M0.273133 -0.565768 L0.577188 -0.189952 L-0.118536 0.372925 L-0.144387 0.431578 L-0.174582 0.418270 L-0.219119 0.084240 L-0.193698 -0.551293 z " fill="rgb(245,195,195)" />
<path d="M-0.824248 -3.120888 L0.175752 -3.120888 L0.175752 -2.120888 L-0.824248 -2.120888  z" fill="none" stroke="rgb(128,128,128)" stroke-width="0.01" />
<line x1="-0.219119" y1="0.08424" x2="-0.174582" y2="0.41827" style="stroke:rgb(246,147,147);stroke-width:0.01" />
<line x1="-0.0846148" y1="-0.53914" x2="-0.0864632" y2="-0.342532" style="stroke:rgb(246,147,147);stroke-width:0.01" />
<line x1="-0.193698" y1="-0.551293" x2="-0.219119" y2="0.08424" style="stroke:rgb(246,147,147);stroke-width:0.01" />
<line x1="-0.0846148" y1="-0.53914" x2="-0.219119" y2="0.08424" style="stroke:rgb(246,147,147);stroke-width:0.01" />
<line x1="0.273133" y1="-0.565768" x2="0.577188" y2="-0.189952" style="stroke:rgb(246,147,147);stroke-width:0.01" />
<line x1="0.258925" y1="-0.483484" x2="-0.144387" y2="0.431578" style="stroke:rgb(246,147,147);stroke-width:0.01" />
<line x1="0.273133" y1="-0.565768" x2="-0.0262824" y2="-0.144801" style="stroke:rgb(246,147,147);stroke-width:0.01" />
<line x1="-0.204877" y1="-0.271827" x2="-0.0262824" y2="-0.144801" style="stroke:rgb(246,147,147);stroke-width:0.01" />
<line x1="-0.199239" y1="-0.41278" x2="-0.0864632" y2="-0.342532" style="stroke:rgb(246,147,147);stroke-width:0.01" />
<line x1="0.0854384" y1="-0.559948" x2="0.258925" y2="-0.483484" style="stroke:rgb(246,147,147);stroke-width:0.01" />
<line x1="-0.0864632" y1="-0.342532" x2="-0.204877" y2="-0.271827" style="stroke:rgb(246,147,147);stroke-width:0.01" />
<line x1="0.0854384" y1="-0.559948" x2="-0.199239" y2="-0.41278" style="stroke:rgb(246,147,147);stroke-width:0.01" />
<line x1="0.577188" y1="-0.189952" x2="-0.174582" y2="0.41827" style="stroke:rgb(246,147,147);stroke-width:0.01" />
<line x1="-0.193698" y1="-0.551293" x2="-0.0846148" y2="-0.53914" style="stroke:rgb(246,147,147);stroke-width:0.01" />
<line x1="0.273133" y1="-0.565768" x2="-0.193698" y2="-0.551293" style="stroke:rgb(246,147,147);stroke-width:0.01" />
<line x1="-0.174582" y1="0.41827" x2="-0.144387" y2="0.431578" style="stroke:rgb(246,147,147);stroke-width:0.01" />
</g>
</svg>
