<svg xmlns="http://www.w3.org/2000/svg" viewBox="-1.5 -1.5 3 3">
<g transform="scale(1, -1)">
<path d="M0.000000 0.000000 L0.268908 0.000000 L0.296685 0.027778 L0.296685 0.350427 L0.649573 0.350427 L0.649573 0.378205 L0.296685 0.378205 L0.268908 0.350427 L0.268908 0.027778 L0.000000 0.027778 z " fill="rgb(245,195,195)" />
<path d="M0.000000 0.000000 L1.000000 0.000000 L1.000000 1.000000 L0.000000 1.000000  z" fill="none" stroke="rgb(128,128,128)" stroke-width="0.01" />
<line x1="0.268908" y1="0" x2="0.296685" y2="0.0277778" style="stroke:rgb(246,147,147);stroke-width:0.01" />
<line x1="0" y1="0" x2="0.268908" y2="0" style="stroke:rgb(246,147,147);stroke-width:0.01" />
<line x1="0" y1="0" x2="0" y2="0.0277778" style="stroke:rgb(246,147,147);stroke-width:0.01" />
<line x1="0.268908" y1="0" x2="0.268908" y2="0.350427" style="stroke:rgb(246,147,147);stroke-width:0.01" />
<line x1="0.296685" y1="0.0277778" x2="0.296685" y2="0.378205" style="stroke:rgb(246,147,147);stroke-width:0.01" />
<line x1="0.649573" y1="0.350427" x2="0.649573" y2="0.378205" style="stroke:rgb(246,147,147);stroke-width:0.01" />
<line x1="0" y1="0.0277778" x2="0.296685" y2="0.0277778" style="stroke:rgb(246,147,147);stroke-width:0.01" />
<line x1="0.268908" y1="0.350427" x2="0.296685" y2="0.378205" style="stroke:rgb(246,147,147);stroke-width:0.01" />
<line x1="0.268908" y1="0.350427" x2="0.649573" y2="0.350427" style="stroke:rgb(246,147,147);stroke-width:0.01" />
<line x1="0.296685" y1="0.378205" x2="0.649573" y2="0.378205" style="stroke:rgb(246,147,147);stroke-width:0.01" />
</g>
</svg>
