<svg xmlns="http://www.w3.org/2000/svg" viewBox="-1.5 -1.5 3 3">
<g transform="scale(1, -1)">
<path d="M-0.299592 -0.189103 L-0.030685 -0.189103 L-0.002907 -0.161325 L-0.002907 0.161325 L0.349980 0.161325 L0.349980 0.189103 L-0.002907 0.189103 L-0.030685 0.161325 L-0.030685 -0.161325 L-0.299592 -0.161325 z " fill="rgb(245,195,195)" />
<path d="M-0.299592 -0.189103 L0.700408 -0.189103 L0.700408 0.810897 L-0.299592 0.810897  z" fill="none" stroke="rgb(128,128,128)" stroke-width="0.01" />
<line x1="-0.0306848" y1="-0.189103" x2="-0.00290706" y2="-0.161325" style="stroke:rgb(246,147,147);stroke-width:0.01" />
<line x1="-0.299592" y1="-0.189103" x2="-0.0306848" y2="-0.189103" style="stroke:rgb(246,147,147);stroke-width:0.01" />
<line x1="-0.299592" y1="-0.189103" x2="-0.299592" y2="-0.161325" style="stroke:rgb(246,147,147);stroke-width:0.01" />
<line x1="-0.0306848" y1="-0.189103" x2="-0.0306848" y2="0.161325" style="stroke:rgb(246,147,147);stroke-width:0.01" />
<line x1="-0.00290706" y1="-0.161325" x2="-0.00290706" y2="0.189103" style="stroke:rgb(246,147,147);stroke-width:0.01" />
<line x1="0.34998" y1="0.161325" x2="0.34998" y2="0.189103" style="stroke:rgb(246,147,147);stroke-width:0.01" />
<line x1="-0.299592" y1="-0.161325" x2="-0.00290706" y2="-0.161325" style="stroke:rgb(246,147,147);stroke-width:0.01" />
<line x1="-0.0306848" y1="0.161325" x2="-0.00290706" y2="0.189103" style="stroke:rgb(246,147,147);stroke-width:0.01" />
<line x1="-0.0306848" y1="0.161325" x2="0.34998" y2="0.161325" style="stroke:rgb(246,147,147);stroke-width:0.01" />
<line x1="-0.00290706" y1="0.189103" x2="0.34998" y2="0.189103" style="stroke:rgb(246,147,147);stroke-width:0.01" />
</g>
</svg>
