<svg xmlns="http://www.w3.org/2000/svg" viewBox="-1.5 -1.5 3 3">
<g transform="scale(1, -1)">
<path d="M-0.329263 -0.162325 L-0.030118 -0.162325 L-0.000706 -0.132913 L-0.000706 0.132913 L0.375499 0.132913 L0.375499 0.162325 L-0.000706 0.162325 L-0.030118 0.132913 L-0.030118 -0.132913 L-0.329263 -0.132913 z " fill="rgb(245,195,195)" />
<path d="M-0.329263 -0.162325 L0.670737 -0.162325 L0.670737 0.837675 L-0.329263 0.837675  z" fill="none" stroke="rgb(128,128,128)" stroke-width="0.01" />
<line x1="-0.0301178" y1="-0.162325" x2="-0.000706026" y2="-0.132913" style="stroke:rgb(246,147,147);stroke-width:0.01" />
<line x1="-0.0301178" y1="0.132913" x2="-0.000706026" y2="0.162325" style="stroke:rgb(246,147,147);stroke-width:0.01" />
<line x1="-0.329263" y1="-0.162325" x2="-0.0301178" y2="-0.162325" style="stroke:rgb(246,147,147);stroke-width:0.01" />
<line x1="-0.329263" y1="-0.162325" x2="-0.329263" y2="-0.132913" style="stroke:rgb(246,147,147);stroke-width:0.01" />
<line x1="-0.0301178" y1="-0.162325" x2="-0.0301178" y2="0.132913" style="stroke:rgb(246,147,147);stroke-width:0.01" />
<line x1="-0.000706026" y1="-0.132913" x2="-0.000706026" y2="0.162325" style="stroke:rgb(246,147,147);stroke-width:0.01" />
<line x1="0.375499" y1="0.132913" x2="0.375499" y2="0.162325" style="stroke:rgb(246,147,147);stroke-width:0.01" />
<line x1="-0.329263" y1="-0.132913" x2="-0.000706026" y2="-0.132913" style="stroke:rgb(246,147,147);stroke-width:0.01" />
<line x1="-0.0301178" y1="0.132913" x2="0.375499" y2="0.132913" style="stroke:rgb(246,147,147);stroke-width:0.01" />
<line x1="-0.000706026" y1="0.162325" x2="0.375499" y2="0.162325" style="stroke:rgb(246,147,147);stroke-width:0.01" />
</g>
</svg>
