<svg xmlns="http://www.w3.org/2000/svg" viewBox="-1.5 -1.5 3 3">
<g transform="scale(1, -1)">
<path d="M0.000000 0.000000 L0.299145 0.000000 L0.328557 0.029412 L0.328557 0.295238 L0.704762 0.295238 L0.704762 0.324650 L0.328557 0.324650 L0.299145 0.295238 L0.299145 0.029412 L0.000000 0.029412 z " fill="rgb(245,195,195)" />
<path d="M0.000000 0.000000 L1.000000 0.000000 L1.000000 1.000000 L0.000000 1.000000  z" fill="none" stroke="rgb(128,128,128)" stroke-width="0.01" />
<line x1="0.299145" y1="0" x2="0.328557" y2="0.0294118" style="stroke:rgb(246,147,147);stroke-width:0.01" />
<line x1="0.299145" y1="0.295238" x2="0.328557" y2="0.32465" style="stroke:rgb(246,147,147);stroke-width:0.01" />
<line x1="0" y1="0" x2="0.299145" y2="0" style="stroke:rgb(246,147,147);stroke-width:0.01" />
<line x1="0" y1="0" x2="0" y2="0.0294118" style="stroke:rgb(246,147,147);stroke-width:0.01" />
<line x1="0.299145" y1="0" x2="0.299145" y2="0.295238" style="stroke:rgb(246,147,147);stroke-width:0.01" />
<line x1="0.328557" y1="0.0294118" x2="0.328557" y2="0.32465" style="stroke:rgb(246,147,147);stroke-width:0.01" />
<line x1="0.704762" y1="0.295238" x2="0.704762" y2="0.32465" style="stroke:rgb(246,147,147);stroke-width:0.01" />
<line x1="0" y1="0.0294118" x2="0.328557" y2="0.0294118" style="stroke:rgb(246,147,147);stroke-width:0.01" />
<line x1="0.299145" y1="0.295238" x2="0.704762" y2="0.295238" style="stroke:rgb(246,147,147);stroke-width:0.01" />
<line x1="0.328557" y1="0.32465" x2="0.704762" y2="0.32465" style="stroke:rgb(246,147,147);stroke-width:0.01" />
</g>
</svg>
