<svg xmlns="http://www.w3.org/2000/svg" viewBox="-1.5 -1.5 3 3">
<g transform="scale(1, -1)">
<path d="M0.000000 0.000000 L0.273585 0.000000 L0.304835 0.031250 L0.304835 0.465909 L0.534091 0.465909 L0.534091 0.497159 L0.304835 0.497159 L0.273585 0.465909 L0.273585 0.031250 L0.000000 0.031250 z " fill="rgb(245,195,195)" />
<path d="M0.000000 0.000000 L1.000000 0.000000 L1.000000 1.000000 L0.000000 1.000000  z" fill="none" stroke="rgb(128,128,128)" stroke-width="0.01" />
<line x1="0.273585" y1="0" x2="0.304835" y2="0.03125" style="stroke:rgb(246,147,147);stroke-width:0.01" />
<line x1="0" y1="0" x2="0.273585" y2="0" style="stroke:rgb(246,147,147);stroke-width:0.01" />
<line x1="0" y1="0" x2="0" y2="0.03125" style="stroke:rgb(246,147,147);stroke-width:0.01" />
<line x1="0.273585" y1="0" x2="0.273585" y2="0.465909" style="stroke:rgb(246,147,147);stroke-width:0.01" />
<line x1="0.304835" y1="0.03125" x2="0.304835" y2="0.497159" style="stroke:rgb(246,147,147);stroke-width:0.01" />
<line x1="0.534091" y1="0.465909" x2="0.534091" y2="0.497159" style="stroke:rgb(246,147,147);stroke-width:0.01" />
<line x1="0" y1="0.03125" x2="0.304835" y2="0.03125" style="stroke:rgb(246,147,147);stroke-width:0.01" />
<line x1="0.273585" y1="0.465909" x2="0.304835" y2="0.497159" style="stroke:rgb(246,147,147);stroke-width:0.01" />
<line x1="0.273585" y1="0.465909" x2="0.534091" y2="0.465909" style="stroke:rgb(246,147,147);stroke-width:0.01" />
<line x1="0.304835" y1="0.497159" x2="0.534091" y2="0.497159" style="stroke:rgb(246,147,147);stroke-width:0.01" />
</g>
</svg>
