<svg xmlns="http://www.w3.org/2000/svg" viewBox="-1.5 -1.5 3 3">
<g transform="scale(1, -1)">
<path d="M-0.280344 -0.248580 L-0.006759 -0.248580 L0.024491 -0.217330 L0.024491 0.217330 L0.253747 0.217330 L0.253747 0.248580 L0.024491 0.248580 L-0.006759 0.217330 L-0.006759 -0.217330 L-0.280344 -0.217330 z " fill="rgb(245,195,195)" />
<path d="M-0.280344 -0.248580 L0.719656 -0.248580 L0.719656 0.751420 L-0.280344 0.751420  z" fill="none" stroke="rgb(128,128,128)" stroke-width="0.01" />
<line x1="-0.00675922" y1="-0.24858" x2="0.0244908" y2="-0.21733" style="stroke:rgb(246,147,147);stroke-width:0.01" />
<line x1="-0.280344" y1="-0.24858" x2="-0.00675922" y2="-0.24858" style="stroke:rgb(246,147,147);stroke-width:0.01" />
<line x1="-0.280344" y1="-0.24858" x2="-0.280344" y2="-0.21733" style="stroke:rgb(246,147,147);stroke-width:0.01" />
<line x1="-0.00675922" y1="-0.24858" x2="-0.00675922" y2="0.21733" style="stroke:rgb(246,147,147);stroke-width:0.01" />
<line x1="0.0244908" y1="-0.21733" x2="0.0244908" y2="0.24858" style="stroke:rgb(246,147,147);stroke-width:0.01" />
<line x1="0.253747" y1="0.21733" x2="0.253747" y2="0.24858" style="stroke:rgb(246,147,147);stroke-width:0.01" />
<line x1="-0.280344" y1="-0.21733" x2="0.0244908" y2="-0.21733" style="stroke:rgb(246,147,147);stroke-width:0.01" />
<line x1="-0.00675922" y1="0.21733" x2="0.0244908" y2="0.24858" style="stroke:rgb(246,147,147);stroke-width:0.01" />
<line x1="-0.00675922" y1="0.21733" x2="0.253747" y2="0.21733" style="stroke:rgb(246,147,147);stroke-width:0.01" />
<line x1="0.0244908" y1="0.24858" x2="0.253747" y2="0.24858" style="stroke:rgb(246,147,147);stroke-width:0.01" />
</g>
</svg>
