<svg xmlns="http://www.w3.org/2000/svg" viewBox="-1.5 -1.5 3 3">
<g transform="scale(1, -1)">
<path d="M-0.273871 -0.237720 L-0.019154 -0.237720 L0.013104 -0.205462 L0.013104 0.205462 L0.282947 0.205462 L0.282947 0.237720 L0.013104 0.237720 L-0.019154 0.205462 L-0.019154 -0.205462 L-0.273871 -0.205462 z " fill="rgb(245,195,195)" />
<path d="M-0.273871 -0.237720 L0.726129 -0.237720 L0.726129 0.762280 L-0.273871 0.762280  z" fill="none" stroke="rgb(128,128,128)" stroke-width="0.01" />
<line x1="-0.0191543" y1="-0.23772" x2="0.0131038" y2="-0.205462" style="stroke:rgb(246,147,147);stroke-width:0.01" />
<line x1="-0.273871" y1="-0.23772" x2="-0.0191543" y2="-0.23772" style="stroke:rgb(246,147,147);stroke-width:0.01" />
<line x1="-0.273871" y1="-0.23772" x2="-0.273871" y2="-0.205462" style="stroke:rgb(246,147,147);stroke-width:0.01" />
<line x1="-0.0191543" y1="-0.23772" x2="-0.0191543" y2="0.205462" style="stroke:rgb(246,147,147);stroke-width:0.01" />
<line x1="0.0131038" y1="-0.205462" x2="0.0131038" y2="0.23772" style="stroke:rgb(246,147,147);stroke-width:0.01" />
<line x1="0.282947" y1="0.205462" x2="0.282947" y2="0.23772" style="stroke:rgb(246,147,147);stroke-width:0.01" />
<line x1="-0.273871" y1="-0.205462" x2="0.0131038" y2="-0.205462" style="stroke:rgb(246,147,147);stroke-width:0.01" />
<line x1="-0.0191543" y1="0.205462" x2="0.0131038" y2="0.23772" style="stroke:rgb(246,147,147);stroke-width:0.01" />
<line x1="-0.0191543" y1="0.205462" x2="0.282947" y2="0.205462" style="stroke:rgb(246,147,147);stroke-width:0.01" />
<line x1="0.0131038" y1="0.23772" x2="0.282947" y2="0.23772" style="stroke:rgb(246,147,147);stroke-width:0.01" />
</g>
</svg>
