<svg xmlns="http://www.w3.org/2000/svg" viewBox="-1.5 -1.5 3 3">
<g transform="scale(1, -1)">
<path d="M0.000000 0.000000 L0.254717 0.000000 L0.286975 0.032258 L0.286975 0.443182 L0.556818 0.443182 L0.556818 0.475440 L0.286975 0.475440 L0.254717 0.443182 L0.254717 0.032258 L0.000000 0.032258 z " fill="rgb(245,195,195)" />
<path d="M0.000000 0.000000 L1.000000 0.000000 L1.000000 1.000000 L0.000000 1.000000  z" fill="none" stroke="rgb(128,128,128)" stroke-width="0.01" />
<line x1="0.254717" y1="0" x2="0.286975" y2="0.0322581" style="stroke:rgb(246,147,147);stroke-width:0.01" />
<line x1="0" y1="0" x2="0.254717" y2="0" style="stroke:rgb(246,147,147);stroke-width:0.01" />
<line x1="0" y1="0" x2="0" y2="0.0322581" style="stroke:rgb(246,147,147);stroke-width:0.01" />
<line x1="0.254717" y1="0" x2="0.254717" y2="0.443182" style="stroke:rgb(246,147,147);stroke-width:0.01" />
<line x1="0.286975" y1="0.0322581" x2="0.286975" y2="0.47544" style="stroke:rgb(246,147,147);stroke-width:0.01" />
<line x1="0.556818" y1="0.443182" x2="0.556818" y2="0.47544" style="stroke:rgb(246,147,147);stroke-width:0.01" />
<line x1="0" y1="0.0322581" x2="0.286975" y2="0.0322581" style="stroke:rgb(246,147,147);stroke-width:0.01" />
<line x1="0.254717" y1="0.443182" x2="0.286975" y2="0.47544" style="stroke:rgb(246,147,147);stroke-width:0.01" />
<line x1="0.254717" y1="0.443182" x2="0.556818" y2="0.443182" style="stroke:rgb(246,147,147);stroke-width:0.01" />
<line x1="0.286975" y1="0.47544" x2="0.556818" y2="0.47544" style="stroke:rgb(246,147,147);stroke-width:0.01" />
</g>
</svg>
