<svg xmlns="http://www.w3.org/2000/svg" viewBox="-1.5 -1.5 3 3">
<g transform="scale(1, -1)">
<path d="M-0.353525 -0.181439 L-0.004468 -0.181439 L0.028865 -0.148106 L0.028865 0.148106 L0.316930 0.148106 L0.316930 0.181439 L0.028865 0.181439 L-0.004468 0.148106 L-0.004468 -0.148106 L-0.353525 -0.148106 z " fill="rgb(245,195,195)" />
<path d="M-0.353525 -0.181439 L0.646475 -0.181439 L0.646475 0.818561 L-0.353525 0.818561  z" fill="none" stroke="rgb(128,128,128)" stroke-width="0.01" />
<line x1="-0.00446827" y1="-0.181439" x2="0.0288651" y2="-0.148106" style="stroke:rgb(246,147,147);stroke-width:0.01" />
<line x1="-0.00446827" y1="0.148106" x2="0.0288651" y2="0.181439" style="stroke:rgb(246,147,147);stroke-width:0.01" />
<line x1="-0.353525" y1="-0.181439" x2="-0.00446827" y2="-0.181439" style="stroke:rgb(246,147,147);stroke-width:0.01" />
<line x1="-0.353525" y1="-0.181439" x2="-0.353525" y2="-0.148106" style="stroke:rgb(246,147,147);stroke-width:0.01" />
<line x1="-0.00446827" y1="-0.181439" x2="-0.00446827" y2="0.148106" style="stroke:rgb(246,147,147);stroke-width:0.01" />
<line x1="0.0288651" y1="-0.148106" x2="0.0288651" y2="0.181439" style="stroke:rgb(246,147,147);stroke-width:0.01" />
<line x1="0.31693" y1="0.148106" x2="0.31693" y2="0.181439" style="stroke:rgb(246,147,147);stroke-width:0.01" />
<line x1="-0.353525" y1="-0.148106" x2="0.0288651" y2="-0.148106" style="stroke:rgb(246,147,147);stroke-width:0.01" />
<line x1="-0.00446827" y1="0.148106" x2="0.31693" y2="0.148106" style="stroke:rgb(246,147,147);stroke-width:0.01" />
<line x1="0.0288651" y1="0.181439" x2="0.31693" y2="0.181439" style="stroke:rgb(246,147,147);stroke-width:0.01" />
</g>
</svg>
