<svg xmlns="http://www.w3.org/2000/svg" viewBox="-1.5 -1.5 3 3">
<g transform="scale(1, -1)">
<path d="M0.000000 0.000000 L0.349057 0.000000 L0.382390 0.033333 L0.382390 0.329545 L0.670455 0.329545 L0.670455 0.362879 L0.382390 0.362879 L0.349057 0.329545 L0.349057 0.033333 L0.000000 0.033333 z " fill="rgb(245,195,195)" />
<path d="M0.000000 0.000000 L1.000000 0.000000 L1.000000 1.000000 L0.000000 1.000000  z" fill="none" stroke="rgb(128,128,128)" stroke-width="0.01" />
<line x1="0.349057" y1="0" x2="0.38239" y2="0.0333333" style="stroke:rgb(246,147,147);stroke-width:0.01" />
<line x1="0.349057" y1="0.329545" x2="0.38239" y2="0.362879" style="stroke:rgb(246,147,147);stroke-width:0.01" />
<line x1="0" y1="0" x2="0.349057" y2="0" style="stroke:rgb(246,147,147);stroke-width:0.01" />
<line x1="0" y1="0" x2="0" y2="0.0333333" style="stroke:rgb(246,147,147);stroke-width:0.01" />
<line x1="0.349057" y1="0" x2="0.349057" y2="0.329545" style="stroke:rgb(246,147,147);stroke-width:0.01" />
<line x1="0.38239" y1="0.0333333" x2="0.38239" y2="0.362879" style="stroke:rgb(246,147,147);stroke-width:0.01" />
<line x1="0.670455" y1="0.329545" x2="0.670455" y2="0.362879" style="stroke:rgb(246,147,147);stroke-width:0.01" />
<line x1="0" y1="0.0333333" x2="0.38239" y2="0.0333333" style="stroke:rgb(246,147,147);stroke-width:0.01" />
<line x1="0.349057" y1="0.329545" x2="0.670455" y2="0.329545" style="stroke:rgb(246,147,147);stroke-width:0.01" />
<line x1="0.38239" y1="0.362879" x2="0.670455" y2="0.362879" style="stroke:rgb(246,147,147);stroke-width:0.01" />
</g>
</svg>
