<svg xmlns="http://www.w3.org/2000/svg" viewBox="-1.5 -1.5 3 3">
<g transform="scale(1, -1)">
<path d="M0.000000 0.000000 L0.340659 0.000000 L0.366975 0.026316 L0.366975 0.247312 L0.752688 0.247312 L0.752688 0.273628 L0.366975 0.273628 L0.340659 0.247312 L0.340659 0.026316 L0.000000 0.026316 z " fill="rgb(245,195,195)" />
<path d="M0.000000 0.000000 L1.000000 0.000000 L1.000000 1.000000 L0.000000 1.000000  z" fill="none" stroke="rgb(128,128,128)" stroke-width="0.01" />
<line x1="0.340659" y1="0" x2="0.366975" y2="0.0263158" style="stroke:rgb(246,147,147);stroke-width:0.01" />
<line x1="0.340659" y1="0.247312" x2="0.366975" y2="0.273628" style="stroke:rgb(246,147,147);stroke-width:0.01" />
<line x1="0" y1="0" x2="0.340659" y2="0" style="stroke:rgb(246,147,147);stroke-width:0.01" />
<line x1="0" y1="0" x2="0" y2="0.0263158" style="stroke:rgb(246,147,147);stroke-width:0.01" />
<line x1="0.340659" y1="0" x2="0.340659" y2="0.247312" style="stroke:rgb(246,147,147);stroke-width:0.01" />
<line x1="0.366975" y1="0.0263158" x2="0.366975" y2="0.273628" style="stroke:rgb(246,147,147);stroke-width:0.01" />
<line x1="0.752688" y1="0.247312" x2="0.752688" y2="0.273628" style="stroke:rgb(246,147,147);stroke-width:0.01" />
<line x1="0" y1="0.0263158" x2="0.366975" y2="0.0263158" style="stroke:rgb(246,147,147);stroke-width:0.01" />
<line x1="0.340659" y1="0.247312" x2="0.752688" y2="0.247312" style="stroke:rgb(246,147,147);stroke-width:0.01" />
<line x1="0.366975" y1="0.273628" x2="0.752688" y2="0.273628" style="stroke:rgb(246,147,147);stroke-width:0.01" />
</g>
</svg>
