<svg xmlns="http://www.w3.org/2000/svg" viewBox="-1.5 -1.5 3 3">
<g transform="scale(1, -1)">
<path d="M-0.362828 -0.136814 L-0.022169 -0.136814 L0.004147 -0.110498 L0.004147 0.110498 L0.389860 0.110498 L0.389860 0.136814 L0.004147 0.136814 L-0.022169 0.110498 L-0.022169 -0.110498 L-0.362828 -0.110498 z " fill="rgb(245,195,195)" />
<path d="M-0.362828 -0.136814 L0.637172 -0.136814 L0.637172 0.863186 L-0.362828 0.863186  z" fill="none" stroke="rgb(128,128,128)" stroke-width="0.01" />
<line x1="-0.0221686" y1="-0.136814" x2="0.00414715" y2="-0.110498" style="stroke:rgb(246,147,147);stroke-width:0.01" />
<line x1="-0.0221686" y1="0.110498" x2="0.00414715" y2="0.136814" style="stroke:rgb(246,147,147);stroke-width:0.01" />
<line x1="-0.362828" y1="-0.136814" x2="-0.0221686" y2="-0.136814" style="stroke:rgb(246,147,147);stroke-width:0.01" />
<line x1="-0.362828" y1="-0.136814" x2="-0.362828" y2="-0.110498" style="stroke:rgb(246,147,147);stroke-width:0.01" />
<line x1="-0.0221686" y1="-0.136814" x2="-0.0221686" y2="0.110498" style="stroke:rgb(246,147,147);stroke-width:0.01" />
<line x1="0.00414715" y1="-0.110498" x2="0.00414715" y2="0.136814" style="stroke:rgb(246,147,147);stroke-width:0.01" />
<line x1="0.38986" y1="0.110498" x2="0.38986" y2="0.136814" style="stroke:rgb(246,147,147);stroke-width:0.01" />
<line x1="-0.362828" y1="-0.110498" x2="0.00414715" y2="-0.110498" style="stroke:rgb(246,147,147);stroke-width:0.01" />
<line x1="-0.0221686" y1="0.110498" x2="0.38986" y2="0.110498" style="stroke:rgb(246,147,147);stroke-width:0.01" />
<line x1="0.00414715" y1="0.136814" x2="0.38986" y2="0.136814" style="stroke:rgb(246,147,147);stroke-width:0.01" />
</g>
</svg>
