<svg xmlns="http://www.w3.org/2000/svg" viewBox="-1.5 -1.5 3 3">
<g transform="scale(1, -1)">
<path d="M0.000000 0.000000 L0.384615 0.000000 L0.412393 0.027778 L0.412393 0.344086 L0.655914 0.344086 L0.655914 0.371864 L0.412393 0.371864 L0.384615 0.344086 L0.384615 0.027778 L0.000000 0.027778 z " fill="rgb(245,195,195)" />
<path d="M0.000000 0.000000 L1.000000 0.000000 L1.000000 1.000000 L0.000000 1.000000  z" fill="none" stroke="rgb(128,128,128)" stroke-width="0.01" />
<line x1="0.384615" y1="0" x2="0.412393" y2="0.0277778" style="stroke:rgb(246,147,147);stroke-width:0.01" />
<line x1="0.384615" y1="0.344086" x2="0.412393" y2="0.371864" style="stroke:rgb(246,147,147);stroke-width:0.01" />
<line x1="0" y1="0" x2="0.384615" y2="0" style="stroke:rgb(246,147,147);stroke-width:0.01" />
<line x1="0" y1="0" x2="0" y2="0.0277778" style="stroke:rgb(246,147,147);stroke-width:0.01" />
<line x1="0.384615" y1="0" x2="0.384615" y2="0.344086" style="stroke:rgb(246,147,147);stroke-width:0.01" />
<line x1="0.412393" y1="0.0277778" x2="0.412393" y2="0.371864" style="stroke:rgb(246,147,147);stroke-width:0.01" />
<line x1="0.655914" y1="0.344086" x2="0.655914" y2="0.371864" style="stroke:rgb(246,147,147);stroke-width:0.01" />
<line x1="0" y1="0.0277778" x2="0.412393" y2="0.0277778" style="stroke:rgb(246,147,147);stroke-width:0.01" />
<line x1="0.384615" y1="0.344086" x2="0.655914" y2="0.344086" style="stroke:rgb(246,147,147);stroke-width:0.01" />
<line x1="0.412393" y1="0.371864" x2="0.655914" y2="0.371864" style="stroke:rgb(246,147,147);stroke-width:0.01" />
</g>
</svg>
