<svg xmlns="http://www.w3.org/2000/svg" viewBox="-1.5 -1.5 3 3">
<g transform="scale(1, -1)">
<path d="M-0.370285 -0.185932 L0.014330 -0.185932 L0.042108 -0.158154 L0.042108 0.158154 L0.285629 0.158154 L0.285629 0.185932 L0.042108 0.185932 L0.014330 0.158154 L0.014330 -0.158154 L-0.370285 -0.158154 z " fill="rgb(245,195,195)" />
<path d="M-0.370285 -0.185932 L0.629715 -0.185932 L0.629715 0.814068 L-0.370285 0.814068  z" fill="none" stroke="rgb(128,128,128)" stroke-width="0.01" />
<line x1="0.01433" y1="-0.185932" x2="0.0421078" y2="-0.158154" style="stroke:rgb(246,147,147);stroke-width:0.01" />
<line x1="0.01433" y1="0.158154" x2="0.0421078" y2="0.185932" style="stroke:rgb(246,147,147);stroke-width:0.01" />
<line x1="-0.370285" y1="-0.185932" x2="0.01433" y2="-0.185932" style="stroke:rgb(246,147,147);stroke-width:0.01" />
<line x1="-0.370285" y1="-0.185932" x2="-0.370285" y2="-0.158154" style="stroke:rgb(246,147,147);stroke-width:0.01" />
<line x1="0.01433" y1="-0.185932" x2="0.01433" y2="0.158154" style="stroke:rgb(246,147,147);stroke-width:0.01" />
<line x1="0.0421078" y1="-0.158154" x2="0.0421078" y2="0.185932" style="stroke:rgb(246,147,147);stroke-width:0.01" />
<line x1="0.285629" y1="0.158154" x2="0.285629" y2="0.185932" style="stroke:rgb(246,147,147);stroke-width:0.01" />
<line x1="-0.370285" y1="-0.158154" x2="0.0421078" y2="-0.158154" style="stroke:rgb(246,147,147);stroke-width:0.01" />
<line x1="0.01433" y1="0.158154" x2="0.285629" y2="0.158154" style="stroke:rgb(246,147,147);stroke-width:0.01" />
<line x1="0.0421078" y1="0.185932" x2="0.285629" y2="0.185932" style="stroke:rgb(246,147,147);stroke-width:0.01" />
</g>
</svg>
