<svg xmlns="http://www.w3.org/2000/svg" viewBox="-1.5 -1.5 3 3">
<g transform="scale(1, -1)">
<path d="M-0.389090 -0.168414 L0.017503 -0.168414 L0.042503 -0.143414 L0.042503 0.143414 L0.299082 0.143414 L0.299082 0.168414 L0.042503 0.168414 L0.017503 0.143414 L0.017503 -0.143414 L-0.389090 -0.143414 z " fill="rgb(245,195,195)" />
<path d="M-0.389090 -0.168414 L0.610910 -0.168414 L0.610910 0.831586 L-0.389090 0.831586  z" fill="none" stroke="rgb(128,128,128)" stroke-width="0.01" />
<line x1="0.017503" y1="-0.168414" x2="0.042503" y2="-0.143414" style="stroke:rgb(246,147,147);stroke-width:0.01" />
<line x1="0.017503" y1="0.143414" x2="0.042503" y2="0.168414" style="stroke:rgb(246,147,147);stroke-width:0.01" />
<line x1="-0.38909" y1="-0.168414" x2="0.017503" y2="-0.168414" style="stroke:rgb(246,147,147);stroke-width:0.01" />
<line x1="-0.38909" y1="-0.168414" x2="-0.38909" y2="-0.143414" style="stroke:rgb(246,147,147);stroke-width:0.01" />
<line x1="0.017503" y1="-0.168414" x2="0.017503" y2="0.143414" style="stroke:rgb(246,147,147);stroke-width:0.01" />
<line x1="0.042503" y1="-0.143414" x2="0.042503" y2="0.168414" style="stroke:rgb(246,147,147);stroke-width:0.01" />
<line x1="0.299082" y1="0.143414" x2="0.299082" y2="0.168414" style="stroke:rgb(246,147,147);stroke-width:0.01" />
<line x1="-0.38909" y1="-0.143414" x2="0.042503" y2="-0.143414" style="stroke:rgb(246,147,147);stroke-width:0.01" />
<line x1="0.017503" y1="0.143414" x2="0.299082" y2="0.143414" style="stroke:rgb(246,147,147);stroke-width:0.01" />
<line x1="0.042503" y1="0.168414" x2="0.299082" y2="0.168414" style="stroke:rgb(246,147,147);stroke-width:0.01" />
</g>
</svg>
