<svg xmlns="http://www.w3.org/2000/svg" viewBox="-1.5 -1.5 3 3">
<g transform="scale(1, -1)">
<path d="M0.000000 0.000000 L0.345794 0.000000 L0.376097 0.030303 L0.376097 0.333333 L0.666667 0.333333 L0.666667 0.363636 L0.376097 0.363636 L0.345794 0.333333 L0.345794 0.030303 L0.000000 0.030303 z " fill="rgb(245,195,195)" />
<path d="M0.000000 0.000000 L1.000000 0.000000 L1.000000 1.000000 L0.000000 1.000000  z" fill="none" stroke="rgb(128,128,128)" stroke-width="0.01" />
<line x1="0.345794" y1="0" x2="0.376097" y2="0.030303" style="stroke:rgb(246,147,147);stroke-width:0.01" />
<line x1="0.345794" y1="0.333333" x2="0.376097" y2="0.363636" style="stroke:rgb(246,147,147);stroke-width:0.01" />
<line x1="0" y1="0" x2="0.345794" y2="0" style="stroke:rgb(246,147,147);stroke-width:0.01" />
<line x1="0" y1="0" x2="0" y2="0.030303" style="stroke:rgb(246,147,147);stroke-width:0.01" />
<line x1="0.345794" y1="0" x2="0.345794" y2="0.333333" style="stroke:rgb(246,147,147);stroke-width:0.01" />
<line x1="0.376097" y1="0.030303" x2="0.376097" y2="0.363636" style="stroke:rgb(246,147,147);stroke-width:0.01" />
<line x1="0.666667" y1="0.333333" x2="0.666667" y2="0.363636" style="stroke:rgb(246,147,147);stroke-width:0.01" />
<line x1="0" y1="0.030303" x2="0.376097" y2="0.030303" style="stroke:rgb(246,147,147);stroke-width:0.01" />
<line x1="0.345794" y1="0.333333" x2="0.666667" y2="0.333333" style="stroke:rgb(246,147,147);stroke-width:0.01" />
<line x1="0.376097" y1="0.363636" x2="0.666667" y2="0.363636" style="stroke:rgb(246,147,147);stroke-width:0.01" />
</g>
</svg>
