<svg xmlns="http://www.w3.org/2000/svg" viewBox="-1.5 -1.5 3 3">
<g transform="scale(1, -1)">
<path d="M-0.349901 -0.181818 L-0.004106 -0.181818 L0.026197 -0.151515 L0.026197 0.151515 L0.316766 0.151515 L0.316766 0.181818 L0.026197 0.181818 L-0.004106 0.151515 L-0.004106 -0.151515 L-0.349901 -0.151515 z " fill="rgb(245,195,195)" />
<path d="M-0.349901 -0.181818 L0.650099 -0.181818 L0.650099 0.818182 L-0.349901 0.818182  z" fill="none" stroke="rgb(128,128,128)" stroke-width="0.01" />
<line x1="-0.00410649" y1="-0.181818" x2="0.0261965" y2="-0.151515" style="stroke:rgb(246,147,147);stroke-width:0.01" />
<line x1="-0.00410649" y1="0.151515" x2="0.0261965" y2="0.181818" style="stroke:rgb(246,147,147);stroke-width:0.01" />
<line x1="-0.349901" y1="-0.181818" x2="-0.00410649" y2="-0.181818" style="stroke:rgb(246,147,147);stroke-width:0.01" />
<line x1="-0.349901" y1="-0.181818" x2="-0.349901" y2="-0.151515" style="stroke:rgb(246,147,147);stroke-width:0.01" />
<line x1="-0.00410649" y1="-0.181818" x2="-0.00410649" y2="0.151515" style="stroke:rgb(246,147,147);stroke-width:0.01" />
<line x1="0.0261965" y1="-0.151515" x2="0.0261965" y2="0.181818" style="stroke:rgb(246,147,147);stroke-width:0.01" />
<line x1="0.316766" y1="0.151515" x2="0.316766" y2="0.181818" style="stroke:rgb(246,147,147);stroke-width:0.01" />
<line x1="-0.349901" y1="-0.151515" x2="0.0261965" y2="-0.151515" style="stroke:rgb(246,147,147);stroke-width:0.01" />
<line x1="-0.00410649" y1="0.151515" x2="0.316766" y2="0.151515" style="stroke:rgb(246,147,147);stroke-width:0.01" />
<line x1="0.0261965" y1="0.181818" x2="0.316766" y2="0.181818" style="stroke:rgb(246,147,147);stroke-width:0.01" />
</g>
</svg>
