<svg xmlns="http://www.w3.org/2000/svg" viewBox="-1.5 -1.5 3 3">
<g transform="scale(1, -1)">
<path d="M0.070807 -0.571733 L0.150558 -0.565431 L0.257096 0.333818 L0.192680 0.348727 L0.179431 0.334471 L-0.076433 0.336621 L-0.282454 0.029834 L-0.205469 -0.079708 L-0.286216 -0.166597 z " fill="rgb(245,195,195)" />
<path d="M-0.908898 -2.093552 L0.091102 -2.093552 L0.091102 -1.093552 L-0.908898 -1.093552  z" fill="none" stroke="rgb(128,128,128)" stroke-width="0.01" />
<line x1="0.150558" y1="-0.565431" x2="0.257096" y2="0.333818" style="stroke:rgb(246,147,147);stroke-width:0.01" />
<line x1="-0.0874744" y1="-0.0146975" x2="-0.00736961" y2="0.336041" style="stroke:rgb(246,147,147);stroke-width:0.01" />
<line x1="0.0708068" y1="-0.571733" x2="0.102914" y2="-0.521047" style="stroke:rgb(246,147,147);stroke-width:0.01" />
<line x1="0.0617923" y1="0.12312" x2="0.0602815" y2="0.303114" style="stroke:rgb(246,147,147);stroke-width:0.01" />
<line x1="0.170865" y1="0.0730886" x2="0.240243" y2="0.19157" style="stroke:rgb(246,147,147);stroke-width:0.01" />
<line x1="-0.0541183" y1="0.302154" x2="-0.0384546" y2="0.336302" style="stroke:rgb(246,147,147);stroke-width:0.01" />
<line x1="0.0324344" y1="-0.408387" x2="0.194462" y2="-0.194854" style="stroke:rgb(246,147,147);stroke-width:0.01" />
<line x1="0.0257858" y1="0.178735" x2="-0.00736961" y2="0.336041" style="stroke:rgb(246,147,147);stroke-width:0.01" />
<line x1="-0.282454" y1="0.0298337" x2="-0.0764334" y2="0.336621" style="stroke:rgb(246,147,147);stroke-width:0.01" />
<line x1="0.240243" y1="0.19157" x2="0.19268" y2="0.348727" style="stroke:rgb(246,147,147);stroke-width:0.01" />
<line x1="-0.286216" y1="-0.166597" x2="0.19268" y2="0.348727" style="stroke:rgb(246,147,147);stroke-width:0.01" />
<line x1="0.194462" y1="-0.194854" x2="-0.0384546" y2="0.336302" style="stroke:rgb(246,147,147);stroke-width:0.01" />
<line x1="0.13154" y1="-0.559241" x2="-0.282454" y2="0.0298337" style="stroke:rgb(246,147,147);stroke-width:0.01" />
<line x1="0.13154" y1="-0.559241" x2="0.152124" y2="-0.552218" style="stroke:rgb(246,147,147);stroke-width:0.01" />
<line x1="0.0617923" y1="0.12312" x2="-0.0764334" y2="0.336621" style="stroke:rgb(246,147,147);stroke-width:0.01" />
<line x1="0.0708068" y1="-0.571733" x2="-0.286216" y2="-0.166597" style="stroke:rgb(246,147,147);stroke-width:0.01" />
<line x1="0.0708068" y1="-0.571733" x2="0.150558" y2="-0.565431" style="stroke:rgb(246,147,147);stroke-width:0.01" />
<line x1="0.0324344" y1="-0.408387" x2="-0.286216" y2="-0.166597" style="stroke:rgb(246,147,147);stroke-width:0.01" />
<line x1="0.152124" y1="-0.552218" x2="0.102914" y2="-0.521047" style="stroke:rgb(246,147,147);stroke-width:0.01" />
<line x1="0.150558" y1="-0.565431" x2="0.13154" y2="-0.559241" style="stroke:rgb(246,147,147);stroke-width:0.01" />
<line x1="0.170865" y1="0.0730886" x2="0.0257858" y2="0.178735" style="stroke:rgb(246,147,147);stroke-width:0.01" />
<line x1="-0.0874744" y1="-0.0146975" x2="-0.282454" y2="0.0298337" style="stroke:rgb(246,147,147);stroke-width:0.01" />
<line x1="0.170865" y1="0.0730886" x2="0.0617923" y2="0.12312" style="stroke:rgb(246,147,147);stroke-width:0.01" />
<line x1="-0.0541183" y1="0.302154" x2="0.0602815" y2="0.303114" style="stroke:rgb(246,147,147);stroke-width:0.01" />
<line x1="0.257096" y1="0.333818" x2="-0.0764334" y2="0.336621" style="stroke:rgb(246,147,147);stroke-width:0.01" />
<line x1="0.257096" y1="0.333818" x2="0.19268" y2="0.348727" style="stroke:rgb(246,147,147);stroke-width:0.01" />
</g>
</svg>
