<svg xmlns="http://www.w3.org/2000/svg" viewBox="-1.5 -1.5 3 3">
<g transform="scale(1, -1)">
<path d="M0.000000 0.000000 L0.163121 0.000000 L0.189436 0.026316 L0.189436 0.451327 L0.548673 0.451327 L0.548673 0.477643 L0.189436 0.477643 L0.163121 0.451327 L0.163121 0.026316 L0.000000 0.026316 z " fill="rgb(245,195,195)" />
<path d="M0.000000 0.000000 L1.000000 0.000000 L1.000000 1.000000 L0.000000 1.000000  z" fill="none" stroke="rgb(128,128,128)" stroke-width="0.01" />
<line x1="0.163121" y1="0" x2="0.189436" y2="0.0263158" style="stroke:rgb(246,147,147);stroke-width:0.01" />
<line x1="0" y1="0" x2="0.163121" y2="0" style="stroke:rgb(246,147,147);stroke-width:0.01" />
<line x1="0" y1="0" x2="0" y2="0.0263158" style="stroke:rgb(246,147,147);stroke-width:0.01" />
<line x1="0.163121" y1="0" x2="0.163121" y2="0.451327" style="stroke:rgb(246,147,147);stroke-width:0.01" />
<line x1="0.189436" y1="0.0263158" x2="0.189436" y2="0.477643" style="stroke:rgb(246,147,147);stroke-width:0.01" />
<line x1="0.548673" y1="0.451327" x2="0.548673" y2="0.477643" style="stroke:rgb(246,147,147);stroke-width:0.01" />
<line x1="0" y1="0.0263158" x2="0.189436" y2="0.0263158" style="stroke:rgb(246,147,147);stroke-width:0.01" />
<line x1="0.163121" y1="0.451327" x2="0.189436" y2="0.477643" style="stroke:rgb(246,147,147);stroke-width:0.01" />
<line x1="0.163121" y1="0.451327" x2="0.548673" y2="0.451327" style="stroke:rgb(246,147,147);stroke-width:0.01" />
<line x1="0.189436" y1="0.477643" x2="0.548673" y2="0.477643" style="stroke:rgb(246,147,147);stroke-width:0.01" />
</g>
</svg>
