<svg xmlns="http://www.w3.org/2000/svg" viewBox="-1.5 -1.5 3 3">
<g transform="scale(1, -1)">
<path d="M-0.215502 -0.238822 L-0.052381 -0.238822 L-0.026065 -0.212506 L-0.026065 0.212506 L0.333171 0.212506 L0.333171 0.238822 L-0.026065 0.238822 L-0.052381 0.212506 L-0.052381 -0.212506 L-0.215502 -0.212506 z " fill="rgb(245,195,195)" />
<path d="M-0.215502 -0.238822 L0.784498 -0.238822 L0.784498 0.761178 L-0.215502 0.761178  z" fill="none" stroke="rgb(128,128,128)" stroke-width="0.01" />
<line x1="-0.052381" y1="-0.238822" x2="-0.0260652" y2="-0.212506" style="stroke:rgb(246,147,147);stroke-width:0.01" />
<line x1="-0.215502" y1="-0.238822" x2="-0.052381" y2="-0.238822" style="stroke:rgb(246,147,147);stroke-width:0.01" />
<line x1="-0.215502" y1="-0.238822" x2="-0.215502" y2="-0.212506" style="stroke:rgb(246,147,147);stroke-width:0.01" />
<line x1="-0.052381" y1="-0.238822" x2="-0.052381" y2="0.212506" style="stroke:rgb(246,147,147);stroke-width:0.01" />
<line x1="-0.0260652" y1="-0.212506" x2="-0.0260652" y2="0.238822" style="stroke:rgb(246,147,147);stroke-width:0.01" />
<line x1="0.333171" y1="0.212506" x2="0.333171" y2="0.238822" style="stroke:rgb(246,147,147);stroke-width:0.01" />
<line x1="-0.215502" y1="-0.212506" x2="-0.0260652" y2="-0.212506" style="stroke:rgb(246,147,147);stroke-width:0.01" />
<line x1="-0.052381" y1="0.212506" x2="-0.0260652" y2="0.238822" style="stroke:rgb(246,147,147);stroke-width:0.01" />
<line x1="-0.052381" y1="0.212506" x2="0.333171" y2="0.212506" style="stroke:rgb(246,147,147);stroke-width:0.01" />
<line x1="-0.0260652" y1="0.238822" x2="0.333171" y2="0.238822" style="stroke:rgb(246,147,147);stroke-width:0.01" />
</g>
</svg>
