<svg xmlns="http://www.w3.org/2000/svg" viewBox="-1.5 -1.5 3 3">
<g transform="scale(1, -1)">
<path d="M0.302734 0.125000 L0.699219 0.125000 L0.699219 0.398438 L0.546875 0.398438 L0.546875 0.250000 L0.457031 0.250000 L0.457031 0.398438 L0.302734 0.398438 z " fill="rgb(245,195,195)" />
<path d="M0.000000 0.000000 L1.000000 0.000000 L1.000000 1.000000 L0.000000 1.000000  z" fill="none" stroke="rgb(128,128,128)" stroke-width="0.01" />
<line x1="0.671875" y1="0.125" x2="0.699219" y2="0.152344" style="stroke:rgb(246,147,147);stroke-width:0.01" />
<line x1="0.332031" y1="0.125" x2="0.457031" y2="0.25" style="stroke:rgb(246,147,147);stroke-width:0.01" />
<line x1="0.302734" y1="0.154297" x2="0.398438" y2="0.25" style="stroke:rgb(246,147,147);stroke-width:0.01" />
<line x1="0.302734" y1="0.125" x2="0.302734" y2="0.398438" style="stroke:rgb(246,147,147);stroke-width:0.01" />
<line x1="0.398438" y1="0.125" x2="0.398438" y2="0.398438" style="stroke:rgb(246,147,147);stroke-width:0.01" />
<line x1="0.457031" y1="0.25" x2="0.457031" y2="0.398438" style="stroke:rgb(246,147,147);stroke-width:0.01" />
<line x1="0.546875" y1="0.25" x2="0.546875" y2="0.398438" style="stroke:rgb(246,147,147);stroke-width:0.01" />
<line x1="0.601562" y1="0.125" x2="0.601562" y2="0.398438" style="stroke:rgb(246,147,147);stroke-width:0.01" />
<line x1="0.699219" y1="0.125" x2="0.699219" y2="0.398438" style="stroke:rgb(246,147,147);stroke-width:0.01" />
<line x1="0.302734" y1="0.125" x2="0.699219" y2="0.125" style="stroke:rgb(246,147,147);stroke-width:0.01" />
<line x1="0.332031" y1="0.125" x2="0.302734" y2="0.154297" style="stroke:rgb(246,147,147);stroke-width:0.01" />
<line x1="0.302734" y1="0.25" x2="0.699219" y2="0.25" style="stroke:rgb(246,147,147);stroke-width:0.01" />
<line x1="0.302734" y1="0.398438" x2="0.457031" y2="0.398438" style="stroke:rgb(246,147,147);stroke-width:0.01" />
<line x1="0.546875" y1="0.398438" x2="0.699219" y2="0.398438" style="stroke:rgb(246,147,147);stroke-width:0.01" />
<line x1="0.671875" y1="0.125" x2="0.546875" y2="0.25" style="stroke:rgb(246,147,147);stroke-width:0.01" />
<line x1="0.699219" y1="0.152344" x2="0.601562" y2="0.25" style="stroke:rgb(246,147,147);stroke-width:0.01" />
</g>
</svg>
