<svg xmlns="http://www.w3.org/2000/svg" viewBox="-1.5 -1.5 3 3">
<g transform="scale(1, -1)">
<path d="M-0.198730 -0.167969 L0.197754 -0.167969 L0.197754 0.105469 L0.045410 0.105469 L0.045410 -0.042969 L-0.044434 -0.042969 L-0.044434 0.105469 L-0.198730 0.105469 z " fill="rgb(245,195,195)" />
<path d="M-0.501465 -0.292969 L0.498535 -0.292969 L0.498535 0.707031 L-0.501465 0.707031  z" fill="none" stroke="rgb(128,128,128)" stroke-width="0.01" />
<line x1="0.17041" y1="-0.167969" x2="0.197754" y2="-0.140625" style="stroke:rgb(246,147,147);stroke-width:0.01" />
<line x1="-0.169434" y1="-0.167969" x2="-0.0444336" y2="-0.0429688" style="stroke:rgb(246,147,147);stroke-width:0.01" />
<line x1="-0.19873" y1="-0.138672" x2="-0.103027" y2="-0.0429688" style="stroke:rgb(246,147,147);stroke-width:0.01" />
<line x1="-0.19873" y1="-0.167969" x2="-0.19873" y2="0.105469" style="stroke:rgb(246,147,147);stroke-width:0.01" />
<line x1="-0.103027" y1="-0.167969" x2="-0.103027" y2="0.105469" style="stroke:rgb(246,147,147);stroke-width:0.01" />
<line x1="-0.0444336" y1="-0.0429688" x2="-0.0444336" y2="0.105469" style="stroke:rgb(246,147,147);stroke-width:0.01" />
<line x1="0.0454102" y1="-0.0429688" x2="0.0454102" y2="0.105469" style="stroke:rgb(246,147,147);stroke-width:0.01" />
<line x1="0.100098" y1="-0.167969" x2="0.100098" y2="0.105469" style="stroke:rgb(246,147,147);stroke-width:0.01" />
<line x1="0.197754" y1="-0.167969" x2="0.197754" y2="0.105469" style="stroke:rgb(246,147,147);stroke-width:0.01" />
<line x1="-0.19873" y1="-0.167969" x2="0.197754" y2="-0.167969" style="stroke:rgb(246,147,147);stroke-width:0.01" />
<line x1="-0.169434" y1="-0.167969" x2="-0.19873" y2="-0.138672" style="stroke:rgb(246,147,147);stroke-width:0.01" />
<line x1="-0.19873" y1="-0.0429688" x2="0.197754" y2="-0.0429688" style="stroke:rgb(246,147,147);stroke-width:0.01" />
<line x1="-0.19873" y1="0.105469" x2="-0.0444336" y2="0.105469" style="stroke:rgb(246,147,147);stroke-width:0.01" />
<line x1="0.0454102" y1="0.105469" x2="0.197754" y2="0.105469" style="stroke:rgb(246,147,147);stroke-width:0.01" />
<line x1="0.17041" y1="-0.167969" x2="0.0454102" y2="-0.0429688" style="stroke:rgb(246,147,147);stroke-width:0.01" />
<line x1="0.197754" y1="-0.140625" x2="0.100098" y2="-0.0429688" style="stroke:rgb(246,147,147);stroke-width:0.01" />
</g>
</svg>
