<svg xmlns="http://www.w3.org/2000/svg" viewBox="-1.5 -1.5 3 3">
<g transform="scale(1, -1)">
<path d="M0.018866 -0.502626 L0.336971 -0.318223 L0.186242 0.343748 L0.266721 0.373142 L0.217711 0.507329 L0.145390 0.523161 L-0.430218 -0.057284 L-0.300604 -0.185818 L-0.340842 -0.298913 L-0.100235 -0.384518 z " fill="rgb(245,195,195)" />
<path d="M1.318302 -6.391234 L2.318302 -6.391234 L2.318302 -5.391234 L1.318302 -5.391234  z" fill="none" stroke="rgb(128,128,128)" stroke-width="0.01" />
<line x1="0.0188657" y1="-0.502626" x2="-0.0598843" y2="-0.207926" style="stroke:rgb(246,147,147);stroke-width:0.01" />
<line x1="0.336971" y1="-0.318223" x2="0.14539" y2="0.523161" style="stroke:rgb(246,147,147);stroke-width:0.01" />
<line x1="0.0998232" y1="-0.455696" x2="0.154805" y2="-0.150557" style="stroke:rgb(246,147,147);stroke-width:0.01" />
<line x1="0.266721" y1="0.373142" x2="0.217711" y2="0.507329" style="stroke:rgb(246,147,147);stroke-width:0.01" />
<line x1="-0.340842" y1="-0.298913" x2="-0.156765" y2="0.218467" style="stroke:rgb(246,147,147);stroke-width:0.01" />
<line x1="0.0188657" y1="-0.502626" x2="-0.430218" y2="-0.0572839" style="stroke:rgb(246,147,147);stroke-width:0.01" />
<line x1="0.336971" y1="-0.318223" x2="0.154805" y2="-0.150557" style="stroke:rgb(246,147,147);stroke-width:0.01" />
<line x1="-0.38584" y1="-0.101293" x2="0.217711" y2="0.507329" style="stroke:rgb(246,147,147);stroke-width:0.01" />
<line x1="-0.430218" y1="-0.0572839" x2="0.14539" y2="0.523161" style="stroke:rgb(246,147,147);stroke-width:0.01" />
<line x1="0.0998232" y1="-0.455696" x2="-0.340842" y2="-0.298913" style="stroke:rgb(246,147,147);stroke-width:0.01" />
<line x1="0.0188657" y1="-0.502626" x2="0.336971" y2="-0.318223" style="stroke:rgb(246,147,147);stroke-width:0.01" />
<line x1="-0.0598843" y1="-0.207926" x2="0.154805" y2="-0.150557" style="stroke:rgb(246,147,147);stroke-width:0.01" />
<line x1="-0.156765" y1="0.218467" x2="0.266721" y2="0.373142" style="stroke:rgb(246,147,147);stroke-width:0.01" />
<line x1="0.217711" y1="0.507329" x2="0.14539" y2="0.523161" style="stroke:rgb(246,147,147);stroke-width:0.01" />
</g>
</svg>
