<svg xmlns="http://www.w3.org/2000/svg" viewBox="-1.5 -1.5 3 3">
<g transform="scale(1, -1)">
<path d="M-0.421113 -0.150326 L0.025696 -0.150326 L0.052012 -0.124010 L0.052012 0.124010 L0.304551 0.124010 L0.304551 0.150326 L0.052012 0.150326 L0.025696 0.124010 L0.025696 -0.124010 L-0.421113 -0.124010 z " fill="rgb(245,195,195)" />
<path d="M-0.421113 -0.150326 L0.578887 -0.150326 L0.578887 0.849674 L-0.421113 0.849674  z" fill="none" stroke="rgb(128,128,128)" stroke-width="0.01" />
<line x1="0.0256959" y1="-0.150326" x2="0.0520117" y2="-0.12401" style="stroke:rgb(246,147,147);stroke-width:0.01" />
<line x1="0.0256959" y1="0.12401" x2="0.0520117" y2="0.150326" style="stroke:rgb(246,147,147);stroke-width:0.01" />
<line x1="-0.421113" y1="-0.150326" x2="0.0256959" y2="-0.150326" style="stroke:rgb(246,147,147);stroke-width:0.01" />
<line x1="-0.421113" y1="-0.150326" x2="-0.421113" y2="-0.12401" style="stroke:rgb(246,147,147);stroke-width:0.01" />
<line x1="0.0256959" y1="-0.150326" x2="0.0256959" y2="0.12401" style="stroke:rgb(246,147,147);stroke-width:0.01" />
<line x1="0.0520117" y1="-0.12401" x2="0.0520117" y2="0.150326" style="stroke:rgb(246,147,147);stroke-width:0.01" />
<line x1="0.304551" y1="0.12401" x2="0.304551" y2="0.150326" style="stroke:rgb(246,147,147);stroke-width:0.01" />
<line x1="-0.421113" y1="-0.12401" x2="0.0520117" y2="-0.12401" style="stroke:rgb(246,147,147);stroke-width:0.01" />
<line x1="0.0256959" y1="0.12401" x2="0.304551" y2="0.12401" style="stroke:rgb(246,147,147);stroke-width:0.01" />
<line x1="0.0520117" y1="0.150326" x2="0.304551" y2="0.150326" style="stroke:rgb(246,147,147);stroke-width:0.01" />
</g>
</svg>
