<svg xmlns="http://www.w3.org/2000/svg" viewBox="-1.5 -1.5 3 3">
<g transform="scale(1, -1)">
<path d="M0.000000 0.000000 L0.446809 0.000000 L0.473124 0.026316 L0.473124 0.274336 L0.725664 0.274336 L0.725664 0.300652 L0.473124 0.300652 L0.446809 0.274336 L0.446809 0.026316 L0.000000 0.026316 z " fill="rgb(245,195,195)" />
<path d="M0.000000 0.000000 L1.000000 0.000000 L1.000000 1.000000 L0.000000 1.000000  z" fill="none" stroke="rgb(128,128,128)" stroke-width="0.01" />
<line x1="0.446809" y1="0" x2="0.473124" y2="0.0263158" style="stroke:rgb(246,147,147);stroke-width:0.01" />
<line x1="0.446809" y1="0.274336" x2="0.473124" y2="0.300652" style="stroke:rgb(246,147,147);stroke-width:0.01" />
<line x1="0" y1="0" x2="0.446809" y2="0" style="stroke:rgb(246,147,147);stroke-width:0.01" />
<line x1="0" y1="0" x2="0" y2="0.0263158" style="stroke:rgb(246,147,147);stroke-width:0.01" />
<line x1="0.446809" y1="0" x2="0.446809" y2="0.274336" style="stroke:rgb(246,147,147);stroke-width:0.01" />
<line x1="0.473124" y1="0.0263158" x2="0.473124" y2="0.300652" style="stroke:rgb(246,147,147);stroke-width:0.01" />
<line x1="0.725664" y1="0.274336" x2="0.725664" y2="0.300652" style="stroke:rgb(246,147,147);stroke-width:0.01" />
<line x1="0" y1="0.0263158" x2="0.473124" y2="0.0263158" style="stroke:rgb(246,147,147);stroke-width:0.01" />
<line x1="0.446809" y1="0.274336" x2="0.725664" y2="0.274336" style="stroke:rgb(246,147,147);stroke-width:0.01" />
<line x1="0.473124" y1="0.300652" x2="0.725664" y2="0.300652" style="stroke:rgb(246,147,147);stroke-width:0.01" />
</g>
</svg>
