<svg xmlns="http://www.w3.org/2000/svg" viewBox="-1.5 -1.5 3 3">
<g transform="scale(1, -1)">
<path d="M-0.074846 -0.309137 L0.397292 -0.216390 L0.295820 0.478477 L-0.108533 0.452085 L-0.094017 0.006791 L-0.168469 -0.005461 L-0.145735 -0.143603 L-0.101514 -0.262762 z " fill="rgb(245,195,195)" />
<path d="M-1.093746 -0.547915 L-0.093746 -0.547915 L-0.093746 0.452085 L-1.093746 0.452085  z" fill="none" stroke="rgb(128,128,128)" stroke-width="0.01" />
<line x1="-0.0202002" y1="-0.298402" x2="0.287185" y2="0.274148" style="stroke:rgb(246,147,147);stroke-width:0.01" />
<line x1="-0.118363" y1="-0.217361" x2="-0.114496" y2="-0.194829" style="stroke:rgb(246,147,147);stroke-width:0.01" />
<line x1="-0.0748456" y1="-0.309137" x2="0.0228677" y2="0.416052" style="stroke:rgb(246,147,147);stroke-width:0.01" />
<line x1="-0.0937463" y1="-0.00149887" x2="-0.0937463" y2="0.452085" style="stroke:rgb(246,147,147);stroke-width:0.01" />
<line x1="-0.0937463" y1="-0.00149887" x2="-0.108533" y2="0.452085" style="stroke:rgb(246,147,147);stroke-width:0.01" />
<line x1="-0.0748456" y1="-0.309137" x2="0.397292" y2="-0.21639" style="stroke:rgb(246,147,147);stroke-width:0.01" />
<line x1="-0.0736823" y1="-0.308909" x2="-0.0937463" y2="-0.00149887" style="stroke:rgb(246,147,147);stroke-width:0.01" />
<line x1="-0.149286" y1="-0.0828646" x2="0.324895" y2="0.0757311" style="stroke:rgb(246,147,147);stroke-width:0.01" />
<line x1="-0.145735" y1="-0.143603" x2="-0.168469" y2="-0.00546108" style="stroke:rgb(246,147,147);stroke-width:0.01" />
<line x1="-0.101514" y1="-0.262762" x2="-0.114496" y2="-0.194829" style="stroke:rgb(246,147,147);stroke-width:0.01" />
<line x1="0.397292" y1="-0.21639" x2="0.29582" y2="0.478477" style="stroke:rgb(246,147,147);stroke-width:0.01" />
<line x1="-0.0736823" y1="-0.308909" x2="-0.149286" y2="-0.0828646" style="stroke:rgb(246,147,147);stroke-width:0.01" />
<line x1="-0.101514" y1="-0.262762" x2="-0.145735" y2="-0.143603" style="stroke:rgb(246,147,147);stroke-width:0.01" />
<line x1="0.397292" y1="-0.21639" x2="0.324895" y2="0.0757311" style="stroke:rgb(246,147,147);stroke-width:0.01" />
<line x1="-0.168469" y1="-0.00546108" x2="0.324895" y2="0.0757311" style="stroke:rgb(246,147,147);stroke-width:0.01" />
<line x1="-0.0748456" y1="-0.309137" x2="-0.101514" y2="-0.262762" style="stroke:rgb(246,147,147);stroke-width:0.01" />
<line x1="-0.114496" y1="-0.194829" x2="-0.145735" y2="-0.143603" style="stroke:rgb(246,147,147);stroke-width:0.01" />
<line x1="0.0228677" y1="0.416052" x2="0.29582" y2="0.478477" style="stroke:rgb(246,147,147);stroke-width:0.01" />
<line x1="-0.0202002" y1="-0.298402" x2="-0.118363" y2="-0.217361" style="stroke:rgb(246,147,147);stroke-width:0.01" />
<line x1="-0.108533" y1="0.452085" x2="0.29582" y2="0.478477" style="stroke:rgb(246,147,147);stroke-width:0.01" />
<line x1="-0.108533" y1="0.452085" x2="-0.0937463" y2="0.452085" style="stroke:rgb(246,147,147);stroke-width:0.01" />
<line x1="0.287185" y1="0.274148" x2="0.0228677" y2="0.416052" style="stroke:rgb(246,147,147);stroke-width:0.01" />
</g>
</svg>
