<svg xmlns="http://www.w3.org/2000/svg" viewBox="-1.5 -1.5 3 3">
<g transform="scale(1, -1)">
<path d="M0.378703 -0.513479 L0.531355 -0.369266 L0.256664 -0.078500 L0.030626 -0.137213 L-0.287898 0.458763 L-0.292634 0.457160 L-0.292087 0.455543 L-0.323575 0.431338 L-0.225938 -0.203856 L0.224783 -0.500491 z " fill="rgb(245,195,195)" />
<path d="M-0.935643 -0.316961 L0.064357 -0.316961 L0.064357 0.683039 L-0.935643 0.683039  z" fill="none" stroke="rgb(128,128,128)" stroke-width="0.01" />
<line x1="0.378703" y1="-0.513479" x2="0.531355" y2="-0.369266" style="stroke:rgb(246,147,147);stroke-width:0.01" />
<line x1="0.273924" y1="-0.504638" x2="0.324562" y2="-0.441585" style="stroke:rgb(246,147,147);stroke-width:0.01" />
<line x1="0.160274" y1="-0.458036" x2="0.189915" y2="-0.435251" style="stroke:rgb(246,147,147);stroke-width:0.01" />
<line x1="0.147476" y1="-0.449612" x2="0.189915" y2="-0.435251" style="stroke:rgb(246,147,147);stroke-width:0.01" />
<line x1="0.160274" y1="-0.458036" x2="0.256664" y2="-0.0784999" style="stroke:rgb(246,147,147);stroke-width:0.01" />
<line x1="0.324562" y1="-0.441585" x2="0.130686" y2="-0.438563" style="stroke:rgb(246,147,147);stroke-width:0.01" />
<line x1="-0.0239639" y1="-0.336782" x2="0.137345" y2="-0.323793" style="stroke:rgb(246,147,147);stroke-width:0.01" />
<line x1="0.378703" y1="-0.513479" x2="0.224783" y2="-0.500491" style="stroke:rgb(246,147,147);stroke-width:0.01" />
<line x1="-0.225938" y1="-0.203856" x2="0.256664" y2="-0.0784999" style="stroke:rgb(246,147,147);stroke-width:0.01" />
<line x1="-0.294289" y1="0.240814" x2="-0.276612" y2="0.414178" style="stroke:rgb(246,147,147);stroke-width:0.01" />
<line x1="-0.0540801" y1="-0.316961" x2="0.0643566" y2="-0.316961" style="stroke:rgb(246,147,147);stroke-width:0.01" />
<line x1="0.0643566" y1="-0.316961" x2="0.0643566" y2="-0.128452" style="stroke:rgb(246,147,147);stroke-width:0.01" />
<line x1="0.147476" y1="-0.449612" x2="0.137345" y2="-0.323793" style="stroke:rgb(246,147,147);stroke-width:0.01" />
<line x1="-0.225938" y1="-0.203856" x2="-0.323575" y2="0.431338" style="stroke:rgb(246,147,147);stroke-width:0.01" />
<line x1="-0.323575" y1="0.431338" x2="-0.287898" y2="0.458763" style="stroke:rgb(246,147,147);stroke-width:0.01" />
<line x1="-0.0239639" y1="-0.336782" x2="-0.292634" y2="0.45716" style="stroke:rgb(246,147,147);stroke-width:0.01" />
<line x1="-0.0540801" y1="-0.316961" x2="-0.294289" y2="0.240814" style="stroke:rgb(246,147,147);stroke-width:0.01" />
<line x1="0.130686" y1="-0.438563" x2="-0.19096" y2="0.277386" style="stroke:rgb(246,147,147);stroke-width:0.01" />
<line x1="0.224783" y1="-0.500491" x2="-0.225938" y2="-0.203856" style="stroke:rgb(246,147,147);stroke-width:0.01" />
<line x1="0.224783" y1="-0.500491" x2="-0.287898" y2="0.458763" style="stroke:rgb(246,147,147);stroke-width:0.01" />
<line x1="0.273924" y1="-0.504638" x2="0.0643566" y2="-0.128452" style="stroke:rgb(246,147,147);stroke-width:0.01" />
<line x1="-0.292634" y1="0.45716" x2="-0.287898" y2="0.458763" style="stroke:rgb(246,147,147);stroke-width:0.01" />
<line x1="-0.19096" y1="0.277386" x2="-0.276612" y2="0.414178" style="stroke:rgb(246,147,147);stroke-width:0.01" />
<line x1="0.378703" y1="-0.513479" x2="0.324562" y2="-0.441585" style="stroke:rgb(246,147,147);stroke-width:0.01" />
<line x1="0.531355" y1="-0.369266" x2="0.256664" y2="-0.0784999" style="stroke:rgb(246,147,147);stroke-width:0.01" />
<line x1="-0.276612" y1="0.414178" x2="-0.323575" y2="0.431338" style="stroke:rgb(246,147,147);stroke-width:0.01" />
</g>
</svg>
