<svg xmlns="http://www.w3.org/2000/svg" viewBox="-1.5 -1.5 3 3">
<g transform="scale(1, -1)">
<path d="M1.314346 -0.196517 L1.466998 -0.052305 L1.192308 0.238462 L0.966270 0.179748 L0.647746 0.775725 L0.643009 0.774122 L0.643557 0.772505 L0.612068 0.748300 L0.709705 0.113106 L1.160426 -0.183530 z " fill="rgb(245,195,195)" />
<path d="M0.000000 0.000000 L1.000000 0.000000 L1.000000 1.000000 L0.000000 1.000000  z" fill="none" stroke="rgb(128,128,128)" stroke-width="0.01" />
<line x1="1.31435" y1="-0.196517" x2="1.467" y2="-0.0523047" style="stroke:rgb(246,147,147);stroke-width:0.01" />
<line x1="1.20957" y1="-0.187676" x2="1.26021" y2="-0.124623" style="stroke:rgb(246,147,147);stroke-width:0.01" />
<line x1="1.09592" y1="-0.141074" x2="1.12556" y2="-0.118289" style="stroke:rgb(246,147,147);stroke-width:0.01" />
<line x1="1.08312" y1="-0.132651" x2="1.12556" y2="-0.118289" style="stroke:rgb(246,147,147);stroke-width:0.01" />
<line x1="1.09592" y1="-0.141074" x2="1.19231" y2="0.238462" style="stroke:rgb(246,147,147);stroke-width:0.01" />
<line x1="1.26021" y1="-0.124623" x2="1.06633" y2="-0.121601" style="stroke:rgb(246,147,147);stroke-width:0.01" />
<line x1="0.91168" y1="-0.0198205" x2="1.07299" y2="-0.0068318" style="stroke:rgb(246,147,147);stroke-width:0.01" />
<line x1="1.31435" y1="-0.196517" x2="1.16043" y2="-0.18353" style="stroke:rgb(246,147,147);stroke-width:0.01" />
<line x1="0.709705" y1="0.113106" x2="1.19231" y2="0.238462" style="stroke:rgb(246,147,147);stroke-width:0.01" />
<line x1="0.641354" y1="0.557776" x2="0.659031" y2="0.731139" style="stroke:rgb(246,147,147);stroke-width:0.01" />
<line x1="0.881563" y1="0" x2="1" y2="0" style="stroke:rgb(246,147,147);stroke-width:0.01" />
<line x1="1" y1="0" x2="1" y2="0.18851" style="stroke:rgb(246,147,147);stroke-width:0.01" />
<line x1="1.08312" y1="-0.132651" x2="1.07299" y2="-0.0068318" style="stroke:rgb(246,147,147);stroke-width:0.01" />
<line x1="0.709705" y1="0.113106" x2="0.612068" y2="0.7483" style="stroke:rgb(246,147,147);stroke-width:0.01" />
<line x1="0.612068" y1="0.7483" x2="0.647746" y2="0.775725" style="stroke:rgb(246,147,147);stroke-width:0.01" />
<line x1="0.91168" y1="-0.0198205" x2="0.643009" y2="0.774122" style="stroke:rgb(246,147,147);stroke-width:0.01" />
<line x1="0.881563" y1="0" x2="0.641354" y2="0.557776" style="stroke:rgb(246,147,147);stroke-width:0.01" />
<line x1="1.06633" y1="-0.121601" x2="0.744684" y2="0.594348" style="stroke:rgb(246,147,147);stroke-width:0.01" />
<line x1="1.16043" y1="-0.18353" x2="0.709705" y2="0.113106" style="stroke:rgb(246,147,147);stroke-width:0.01" />
<line x1="1.16043" y1="-0.18353" x2="0.647746" y2="0.775725" style="stroke:rgb(246,147,147);stroke-width:0.01" />
<line x1="1.20957" y1="-0.187676" x2="1" y2="0.18851" style="stroke:rgb(246,147,147);stroke-width:0.01" />
<line x1="0.643009" y1="0.774122" x2="0.647746" y2="0.775725" style="stroke:rgb(246,147,147);stroke-width:0.01" />
<line x1="0.744684" y1="0.594348" x2="0.659031" y2="0.731139" style="stroke:rgb(246,147,147);stroke-width:0.01" />
<line x1="1.31435" y1="-0.196517" x2="1.26021" y2="-0.124623" style="stroke:rgb(246,147,147);stroke-width:0.01" />
<line x1="1.467" y1="-0.0523047" x2="1.19231" y2="0.238462" style="stroke:rgb(246,147,147);stroke-width:0.01" />
<line x1="0.659031" y1="0.731139" x2="0.612068" y2="0.7483" style="stroke:rgb(246,147,147);stroke-width:0.01" />
</g>
</svg>
