<svg xmlns="http://www.w3.org/2000/svg" viewBox="-1.5 -1.5 3 3">
<g transform="scale(1, -1)">
<path d="M0.464676 -0.338743 L0.622198 -0.251640 L0.610213 -0.221701 L0.411456 -0.156274 L0.263076 0.352457 L-0.477667 0.136407 L-0.643714 0.191066 L-0.649314 0.187969 L-0.600924 0.100457 z " fill="rgb(245,195,195)" />
<path d="M-0.472924 -1.495543 L0.527076 -1.495543 L0.527076 -0.495543 L-0.472924 -0.495543  z" fill="none" stroke="rgb(128,128,128)" stroke-width="0.01" />
<line x1="0.075711" y1="-0.178426" x2="0.0871234" y2="-0.0495102" style="stroke:rgb(246,147,147);stroke-width:0.01" />
<line x1="-0.108997" y1="-0.102296" x2="-0.111758" y2="-0.0508374" style="stroke:rgb(246,147,147);stroke-width:0.01" />
<line x1="0.36367" y1="-0.297112" x2="0.354515" y2="-0.214612" style="stroke:rgb(246,147,147);stroke-width:0.01" />
<line x1="0.0822155" y1="-0.0575562" x2="0.0871234" y2="-0.0495102" style="stroke:rgb(246,147,147);stroke-width:0.01" />
<line x1="-0.59851" y1="0.120748" x2="-0.604273" y2="0.13453" style="stroke:rgb(246,147,147);stroke-width:0.01" />
<line x1="-0.619719" y1="0.138702" x2="-0.643714" y2="0.191066" style="stroke:rgb(246,147,147);stroke-width:0.01" />
<line x1="0.075711" y1="-0.178426" x2="0.231833" y2="0.00935544" style="stroke:rgb(246,147,147);stroke-width:0.01" />
<line x1="0.36367" y1="-0.297112" x2="0.501595" y2="-0.185946" style="stroke:rgb(246,147,147);stroke-width:0.01" />
<line x1="-0.600924" y1="0.100457" x2="-0.649314" y2="0.187969" style="stroke:rgb(246,147,147);stroke-width:0.01" />
<line x1="0.525467" y1="-0.277" x2="0.501595" y2="-0.185946" style="stroke:rgb(246,147,147);stroke-width:0.01" />
<line x1="0.464676" y1="-0.338743" x2="0.263076" y2="0.352457" style="stroke:rgb(246,147,147);stroke-width:0.01" />
<line x1="0.500514" y1="-0.289568" x2="0.610213" y2="-0.221701" style="stroke:rgb(246,147,147);stroke-width:0.01" />
<line x1="0.464676" y1="-0.338743" x2="0.622198" y2="-0.25164" style="stroke:rgb(246,147,147);stroke-width:0.01" />
<line x1="0.622198" y1="-0.25164" x2="0.610213" y2="-0.221701" style="stroke:rgb(246,147,147);stroke-width:0.01" />
<line x1="-0.108997" y1="-0.102296" x2="0.00111008" y2="-0.00270309" style="stroke:rgb(246,147,147);stroke-width:0.01" />
<line x1="0.410214" y1="-0.316296" x2="0.231833" y2="0.00935544" style="stroke:rgb(246,147,147);stroke-width:0.01" />
<line x1="0.00111008" y1="-0.00270309" x2="0.044193" y2="0.0274691" style="stroke:rgb(246,147,147);stroke-width:0.01" />
<line x1="0.410214" y1="-0.316296" x2="0.500514" y2="-0.289568" style="stroke:rgb(246,147,147);stroke-width:0.01" />
<line x1="-0.533762" y1="0.0727755" x2="-0.604273" y2="0.13453" style="stroke:rgb(246,147,147);stroke-width:0.01" />
<line x1="-0.549505" y1="0.0792643" x2="-0.619719" y2="0.138702" style="stroke:rgb(246,147,147);stroke-width:0.01" />
<line x1="0.525467" y1="-0.277" x2="0.622198" y2="-0.25164" style="stroke:rgb(246,147,147);stroke-width:0.01" />
<line x1="0.00111008" y1="-0.00270309" x2="0.0559915" y2="0.0263301" style="stroke:rgb(246,147,147);stroke-width:0.01" />
<line x1="0.353067" y1="-0.292742" x2="0.044193" y2="0.0274691" style="stroke:rgb(246,147,147);stroke-width:0.01" />
<line x1="0.0822155" y1="-0.0575562" x2="0.0627173" y2="-0.0414762" style="stroke:rgb(246,147,147);stroke-width:0.01" />
<line x1="0.354515" y1="-0.214612" x2="0.0559915" y2="0.0263301" style="stroke:rgb(246,147,147);stroke-width:0.01" />
<line x1="0.353067" y1="-0.292742" x2="0.500514" y2="-0.289568" style="stroke:rgb(246,147,147);stroke-width:0.01" />
<line x1="0.464676" y1="-0.338743" x2="-0.600924" y2="0.100457" style="stroke:rgb(246,147,147);stroke-width:0.01" />
<line x1="-0.649314" y1="0.187969" x2="-0.643714" y2="0.191066" style="stroke:rgb(246,147,147);stroke-width:0.01" />
<line x1="0.0822155" y1="-0.0575562" x2="-0.0139253" y2="-0.016247" style="stroke:rgb(246,147,147);stroke-width:0.01" />
<line x1="-0.111758" y1="-0.0508374" x2="0.0627173" y2="-0.0414762" style="stroke:rgb(246,147,147);stroke-width:0.01" />
<line x1="0.610213" y1="-0.221701" x2="-0.643714" y2="0.191066" style="stroke:rgb(246,147,147);stroke-width:0.01" />
<line x1="-0.604273" y1="0.13453" x2="-0.619719" y2="0.138702" style="stroke:rgb(246,147,147);stroke-width:0.01" />
<line x1="-0.0139253" y1="-0.016247" x2="-0.59851" y2="0.120748" style="stroke:rgb(246,147,147);stroke-width:0.01" />
<line x1="-0.600924" y1="0.100457" x2="0.263076" y2="0.352457" style="stroke:rgb(246,147,147);stroke-width:0.01" />
<line x1="-0.223976" y1="0.0533565" x2="-0.533762" y2="0.0727755" style="stroke:rgb(246,147,147);stroke-width:0.01" />
<line x1="0.231833" y1="0.00935544" x2="-0.223976" y2="0.0533565" style="stroke:rgb(246,147,147);stroke-width:0.01" />
<line x1="-0.223976" y1="0.0533565" x2="-0.549505" y2="0.0792643" style="stroke:rgb(246,147,147);stroke-width:0.01" />
</g>
</svg>
