<svg xmlns="http://www.w3.org/2000/svg" viewBox="-1.5 -1.5 3 3">
<g transform="scale(1, -1)">
<path d="M-0.123837 -0.434157 L0.111846 -0.378762 L0.249088 -0.418790 L0.447717 -0.095377 L-0.000816 0.377553 L0.045904 0.423071 L-0.070400 0.542449 L-0.140608 0.524949 L-0.363733 -0.240051 L-0.155162 -0.300884 z " fill="rgb(245,195,195)" />
<path d="M0.976267 -6.297551 L1.976267 -6.297551 L1.976267 -5.297551 L0.976267 -5.297551  z" fill="none" stroke="rgb(128,128,128)" stroke-width="0.01" />
<line x1="-0.123837" y1="-0.434157" x2="-0.256154" y2="0.128791" style="stroke:rgb(246,147,147);stroke-width:0.01" />
<line x1="0.300973" y1="-0.334308" x2="0.226913" y2="-0.0295653" style="stroke:rgb(246,147,147);stroke-width:0.01" />
<line x1="-0.303733" y1="-0.257551" x2="-0.0703996" y2="0.542449" style="stroke:rgb(246,147,147);stroke-width:0.01" />
<line x1="-0.363733" y1="-0.240051" x2="-0.140608" y2="0.524949" style="stroke:rgb(246,147,147);stroke-width:0.01" />
<line x1="0.249088" y1="-0.41879" x2="0.447717" y2="-0.0953767" style="stroke:rgb(246,147,147);stroke-width:0.01" />
<line x1="0.249088" y1="-0.41879" x2="0.0445115" y2="-0.200533" style="stroke:rgb(246,147,147);stroke-width:0.01" />
<line x1="0.447717" y1="-0.0953767" x2="-0.140608" y2="0.524949" style="stroke:rgb(246,147,147);stroke-width:0.01" />
<line x1="0.0459044" y1="0.423071" x2="-0.0703996" y2="0.542449" style="stroke:rgb(246,147,147);stroke-width:0.01" />
<line x1="0.0445115" y1="-0.200533" x2="0.226913" y2="-0.0295653" style="stroke:rgb(246,147,147);stroke-width:0.01" />
<line x1="-0.256154" y1="0.128791" x2="0.0459044" y2="0.423071" style="stroke:rgb(246,147,147);stroke-width:0.01" />
<line x1="0.249088" y1="-0.41879" x2="-0.363733" y2="-0.240051" style="stroke:rgb(246,147,147);stroke-width:0.01" />
<line x1="0.447717" y1="-0.0953767" x2="0.226913" y2="-0.0295653" style="stroke:rgb(246,147,147);stroke-width:0.01" />
<line x1="-0.123837" y1="-0.434157" x2="0.300973" y2="-0.334308" style="stroke:rgb(246,147,147);stroke-width:0.01" />
<line x1="-0.140608" y1="0.524949" x2="-0.0703996" y2="0.542449" style="stroke:rgb(246,147,147);stroke-width:0.01" />
</g>
</svg>
