<svg xmlns="http://www.w3.org/2000/svg" viewBox="-1.5 -1.5 3 3">
<g transform="scale(1, -1)">
<path d="M0.177392 -0.395666 L0.239908 -0.297612 L0.324781 -0.320398 L0.397084 -0.051089 L0.522136 0.145048 L0.299971 0.390876 L-0.399273 0.119295 L-0.471269 0.205136 L-0.547888 0.140874 L-0.542841 0.063534 z " fill="rgb(245,195,195)" />
<path d="M0.367792 -6.805366 L1.367792 -6.805366 L1.367792 -5.805366 L0.367792 -5.805366  z" fill="none" stroke="rgb(128,128,128)" stroke-width="0.01" />
<line x1="-0.542841" y1="0.0635344" x2="-0.547888" y2="0.140874" style="stroke:rgb(246,147,147);stroke-width:0.01" />
<line x1="0.324781" y1="-0.320398" x2="0.466322" y2="0.206806" style="stroke:rgb(246,147,147);stroke-width:0.01" />
<line x1="0.25756" y1="0.0117989" x2="0.182592" y2="0.160653" style="stroke:rgb(246,147,147);stroke-width:0.01" />
<line x1="0.182592" y1="0.160653" x2="0.299971" y2="0.390876" style="stroke:rgb(246,147,147);stroke-width:0.01" />
<line x1="0.177392" y1="-0.395666" x2="0.522136" y2="0.145048" style="stroke:rgb(246,147,147);stroke-width:0.01" />
<line x1="-0.133741" y1="-0.197296" x2="-0.471269" y2="0.205136" style="stroke:rgb(246,147,147);stroke-width:0.01" />
<line x1="0.522136" y1="0.145048" x2="0.299971" y2="0.390876" style="stroke:rgb(246,147,147);stroke-width:0.01" />
<line x1="0.177392" y1="-0.395666" x2="-0.542841" y2="0.0635344" style="stroke:rgb(246,147,147);stroke-width:0.01" />
<line x1="0.210992" y1="-0.342966" x2="-0.547888" y2="0.140874" style="stroke:rgb(246,147,147);stroke-width:0.01" />
<line x1="-0.547888" y1="0.140874" x2="-0.471269" y2="0.205136" style="stroke:rgb(246,147,147);stroke-width:0.01" />
<line x1="0.25756" y1="0.0117989" x2="0.522136" y2="0.145048" style="stroke:rgb(246,147,147);stroke-width:0.01" />
<line x1="0.324781" y1="-0.320398" x2="-0.133741" y2="-0.197296" style="stroke:rgb(246,147,147);stroke-width:0.01" />
<line x1="-0.542841" y1="0.0635344" x2="0.299971" y2="0.390876" style="stroke:rgb(246,147,147);stroke-width:0.01" />
<line x1="0.182592" y1="0.160653" x2="0.466322" y2="0.206806" style="stroke:rgb(246,147,147);stroke-width:0.01" />
</g>
</svg>
