<svg xmlns="http://www.w3.org/2000/svg" viewBox="-1.5 -1.5 3 3">
<g transform="scale(1, -1)">
<path d="M-0.190400 6.409700 L-0.127884 6.507754 L-0.043010 6.484968 L0.029292 6.754277 L0.154344 6.950414 L-0.067821 7.196241 L-0.767065 6.924661 L-0.839061 7.010502 L-0.915680 6.946240 L-0.910633 6.868900 z " fill="rgb(245,195,195)" />
<path d="M0.000000 0.000000 L1.000000 0.000000 L1.000000 1.000000 L0.000000 1.000000  z" fill="none" stroke="rgb(128,128,128)" stroke-width="0.01" />
<line x1="-0.910633" y1="6.8689" x2="-0.91568" y2="6.94624" style="stroke:rgb(246,147,147);stroke-width:0.01" />
<line x1="-0.0430104" y1="6.48497" x2="0.0985305" y2="7.01217" style="stroke:rgb(246,147,147);stroke-width:0.01" />
<line x1="-0.110232" y1="6.81716" x2="-0.1852" y2="6.96602" style="stroke:rgb(246,147,147);stroke-width:0.01" />
<line x1="-0.1852" y1="6.96602" x2="-0.0678212" y2="7.19624" style="stroke:rgb(246,147,147);stroke-width:0.01" />
<line x1="-0.1904" y1="6.4097" x2="0.154344" y2="6.95041" style="stroke:rgb(246,147,147);stroke-width:0.01" />
<line x1="-0.501533" y1="6.60807" x2="-0.839061" y2="7.0105" style="stroke:rgb(246,147,147);stroke-width:0.01" />
<line x1="0.154344" y1="6.95041" x2="-0.0678212" y2="7.19624" style="stroke:rgb(246,147,147);stroke-width:0.01" />
<line x1="-0.1904" y1="6.4097" x2="-0.910633" y2="6.8689" style="stroke:rgb(246,147,147);stroke-width:0.01" />
<line x1="-0.1568" y1="6.4624" x2="-0.91568" y2="6.94624" style="stroke:rgb(246,147,147);stroke-width:0.01" />
<line x1="-0.91568" y1="6.94624" x2="-0.839061" y2="7.0105" style="stroke:rgb(246,147,147);stroke-width:0.01" />
<line x1="-0.110232" y1="6.81716" x2="0.154344" y2="6.95041" style="stroke:rgb(246,147,147);stroke-width:0.01" />
<line x1="-0.0430104" y1="6.48497" x2="-0.501533" y2="6.60807" style="stroke:rgb(246,147,147);stroke-width:0.01" />
<line x1="-0.910633" y1="6.8689" x2="-0.0678212" y2="7.19624" style="stroke:rgb(246,147,147);stroke-width:0.01" />
<line x1="-0.1852" y1="6.96602" x2="0.0985305" y2="7.01217" style="stroke:rgb(246,147,147);stroke-width:0.01" />
</g>
</svg>
