<svg xmlns="http://www.w3.org/2000/svg" viewBox="-1.5 -1.5 3 3">
<g transform="scale(1, -1)">
<path d="M0.846985 0.451143 L1.112266 0.750520 L1.000000 0.850000 L0.698140 0.714163 L0.551476 0.973326 L0.520229 0.955642 L0.503925 0.985592 L0.112721 1.069020 L0.029294 0.677817 L0.252866 0.513790 z " fill="rgb(245,195,195)" />
<path d="M0.000000 0.000000 L1.000000 0.000000 L1.000000 1.000000 L0.000000 1.000000  z" fill="none" stroke="rgb(128,128,128)" stroke-width="0.01" />
<line x1="0.846985" y1="0.451143" x2="1.11227" y2="0.75052" style="stroke:rgb(246,147,147);stroke-width:0.01" />
<line x1="0.791692" y1="0.456974" x2="1" y2="0.7" style="stroke:rgb(246,147,147);stroke-width:0.01" />
<line x1="0.321607" y1="0.506541" x2="0.503925" y2="0.985592" style="stroke:rgb(246,147,147);stroke-width:0.01" />
<line x1="1" y1="0.7" x2="1" y2="0.85" style="stroke:rgb(246,147,147);stroke-width:0.01" />
<line x1="0.029294" y1="0.677817" x2="0.112721" y2="1.06902" style="stroke:rgb(246,147,147);stroke-width:0.01" />
<line x1="0.321607" y1="0.506541" x2="0.316082" y2="0.542237" style="stroke:rgb(246,147,147);stroke-width:0.01" />
<line x1="0.349827" y1="0.503566" x2="0.491935" y2="0.621371" style="stroke:rgb(246,147,147);stroke-width:0.01" />
<line x1="0.347979" y1="0.503761" x2="0.349022" y2="0.504585" style="stroke:rgb(246,147,147);stroke-width:0.01" />
<line x1="0.252866" y1="0.51379" x2="1" y2="0.85" style="stroke:rgb(246,147,147);stroke-width:0.01" />
<line x1="0.349827" y1="0.503566" x2="0.349022" y2="0.504585" style="stroke:rgb(246,147,147);stroke-width:0.01" />
<line x1="0.347979" y1="0.503761" x2="0.316082" y2="0.542237" style="stroke:rgb(246,147,147);stroke-width:0.01" />
<line x1="0.791692" y1="0.456974" x2="0.503925" y2="0.985592" style="stroke:rgb(246,147,147);stroke-width:0.01" />
<line x1="0.252866" y1="0.51379" x2="0.029294" y2="0.677817" style="stroke:rgb(246,147,147);stroke-width:0.01" />
<line x1="0.846985" y1="0.451143" x2="0.551476" y2="0.973326" style="stroke:rgb(246,147,147);stroke-width:0.01" />
<line x1="0.029294" y1="0.677817" x2="0.551476" y2="0.973326" style="stroke:rgb(246,147,147);stroke-width:0.01" />
<line x1="0.491935" y1="0.621371" x2="1" y2="0.7" style="stroke:rgb(246,147,147);stroke-width:0.01" />
<line x1="0.846985" y1="0.451143" x2="0.252866" y2="0.51379" style="stroke:rgb(246,147,147);stroke-width:0.01" />
<line x1="1.11227" y1="0.75052" x2="1" y2="0.85" style="stroke:rgb(246,147,147);stroke-width:0.01" />
<line x1="0.503925" y1="0.985592" x2="0.112721" y2="1.06902" style="stroke:rgb(246,147,147);stroke-width:0.01" />
</g>
</svg>
