<svg xmlns="http://www.w3.org/2000/svg" viewBox="-1.5 -1.5 3 3">
<g transform="scale(1, -1)">
<path d="M0.284195 -0.342958 L0.549476 -0.043582 L0.437210 0.055899 L0.135349 -0.079938 L-0.011314 0.179225 L-0.042562 0.161541 L-0.058866 0.191491 L-0.450069 0.274919 L-0.533496 -0.116285 L-0.309924 -0.280312 z " fill="rgb(245,195,195)" />
<path d="M-0.562790 -0.794101 L0.437210 -0.794101 L0.437210 0.205899 L-0.562790 0.205899  z" fill="none" stroke="rgb(128,128,128)" stroke-width="0.01" />
<line x1="0.284195" y1="-0.342958" x2="0.549476" y2="-0.0435815" style="stroke:rgb(246,147,147);stroke-width:0.01" />
<line x1="0.228902" y1="-0.337127" x2="0.43721" y2="-0.0941013" style="stroke:rgb(246,147,147);stroke-width:0.01" />
<line x1="-0.241184" y1="-0.28756" x2="-0.0588657" y2="0.191491" style="stroke:rgb(246,147,147);stroke-width:0.01" />
<line x1="0.43721" y1="-0.0941013" x2="0.43721" y2="0.0558987" style="stroke:rgb(246,147,147);stroke-width:0.01" />
<line x1="-0.533496" y1="-0.116285" x2="-0.450069" y2="0.274919" style="stroke:rgb(246,147,147);stroke-width:0.01" />
<line x1="-0.241184" y1="-0.28756" x2="-0.246708" y2="-0.251864" style="stroke:rgb(246,147,147);stroke-width:0.01" />
<line x1="-0.212963" y1="-0.290536" x2="-0.0708547" y2="-0.17273" style="stroke:rgb(246,147,147);stroke-width:0.01" />
<line x1="-0.214812" y1="-0.290341" x2="-0.213768" y2="-0.289516" style="stroke:rgb(246,147,147);stroke-width:0.01" />
<line x1="-0.309924" y1="-0.280312" x2="0.43721" y2="0.0558987" style="stroke:rgb(246,147,147);stroke-width:0.01" />
<line x1="-0.212963" y1="-0.290536" x2="-0.213768" y2="-0.289516" style="stroke:rgb(246,147,147);stroke-width:0.01" />
<line x1="-0.214812" y1="-0.290341" x2="-0.246708" y2="-0.251864" style="stroke:rgb(246,147,147);stroke-width:0.01" />
<line x1="0.228902" y1="-0.337127" x2="-0.0588657" y2="0.191491" style="stroke:rgb(246,147,147);stroke-width:0.01" />
<line x1="-0.309924" y1="-0.280312" x2="-0.533496" y2="-0.116285" style="stroke:rgb(246,147,147);stroke-width:0.01" />
<line x1="0.284195" y1="-0.342958" x2="-0.0113139" y2="0.179225" style="stroke:rgb(246,147,147);stroke-width:0.01" />
<line x1="-0.533496" y1="-0.116285" x2="-0.0113139" y2="0.179225" style="stroke:rgb(246,147,147);stroke-width:0.01" />
<line x1="-0.0708547" y1="-0.17273" x2="0.43721" y2="-0.0941013" style="stroke:rgb(246,147,147);stroke-width:0.01" />
<line x1="0.284195" y1="-0.342958" x2="-0.309924" y2="-0.280312" style="stroke:rgb(246,147,147);stroke-width:0.01" />
<line x1="0.549476" y1="-0.0435815" x2="0.43721" y2="0.0558987" style="stroke:rgb(246,147,147);stroke-width:0.01" />
<line x1="-0.0588657" y1="0.191491" x2="-0.450069" y2="0.274919" style="stroke:rgb(246,147,147);stroke-width:0.01" />
</g>
</svg>
