<svg xmlns="http://www.w3.org/2000/svg" viewBox="-1.5 -1.5 3 3">
<g transform="scale(1, -1)">
<path d="M-0.039036 -0.532080 L0.274429 -0.402543 L0.241249 0.332019 L0.342238 0.365565 L0.307211 0.471011 L0.233967 0.493247 L-0.433029 -0.025048 L-0.350830 -0.130830 L-0.402912 -0.212027 L-0.173286 -0.359313 z " fill="rgb(245,195,195)" />
<path d="M1.394947 -6.460813 L2.394947 -6.460813 L2.394947 -5.460813 L1.394947 -5.460813  z" fill="none" stroke="rgb(128,128,128)" stroke-width="0.01" />
<line x1="-0.0390359" y1="-0.53208" x2="-0.0753199" y2="-0.238932" style="stroke:rgb(246,147,147);stroke-width:0.01" />
<line x1="0.274429" y1="-0.402543" x2="0.233967" y2="0.493247" style="stroke:rgb(246,147,147);stroke-width:0.01" />
<line x1="0.342238" y1="0.365565" x2="0.307211" y2="0.471011" style="stroke:rgb(246,147,147);stroke-width:0.01" />
<line x1="0.0431301" y1="-0.498125" x2="0.105121" y2="-0.216598" style="stroke:rgb(246,147,147);stroke-width:0.01" />
<line x1="-0.0390359" y1="-0.53208" x2="-0.433029" y2="-0.025048" style="stroke:rgb(246,147,147);stroke-width:0.01" />
<line x1="0.274429" y1="-0.402543" x2="0.105121" y2="-0.216598" style="stroke:rgb(246,147,147);stroke-width:0.01" />
<line x1="-0.402912" y1="-0.212027" x2="-0.133878" y2="0.20741" style="stroke:rgb(246,147,147);stroke-width:0.01" />
<line x1="0.0431301" y1="-0.498125" x2="-0.402912" y2="-0.212027" style="stroke:rgb(246,147,147);stroke-width:0.01" />
<line x1="-0.39468" y1="-0.0743998" x2="0.307211" y2="0.471011" style="stroke:rgb(246,147,147);stroke-width:0.01" />
<line x1="-0.433029" y1="-0.025048" x2="0.233967" y2="0.493247" style="stroke:rgb(246,147,147);stroke-width:0.01" />
<line x1="-0.0390359" y1="-0.53208" x2="0.274429" y2="-0.402543" style="stroke:rgb(246,147,147);stroke-width:0.01" />
<line x1="0.307211" y1="0.471011" x2="0.233967" y2="0.493247" style="stroke:rgb(246,147,147);stroke-width:0.01" />
<line x1="-0.0753199" y1="-0.238932" x2="0.105121" y2="-0.216598" style="stroke:rgb(246,147,147);stroke-width:0.01" />
<line x1="-0.133878" y1="0.20741" x2="0.342238" y2="0.365565" style="stroke:rgb(246,147,147);stroke-width:0.01" />
</g>
</svg>
