<svg xmlns="http://www.w3.org/2000/svg" viewBox="-1.5 -1.5 3 3">
<g transform="scale(1, -1)">
<path d="M-0.259921 -0.150554 L-0.152750 -0.054103 L0.527622 -0.135747 L0.576888 0.066571 L0.634762 0.075766 L0.612795 0.214032 L0.165407 0.232228 L-0.472378 0.002253 L-0.472378 -0.015747 L-0.455809 -0.017736 L-0.368991 -0.122468 L-0.335247 -0.094495 z " fill="rgb(245,195,195)" />
<path d="M-0.472378 -1.435747 L0.527622 -1.435747 L0.527622 -0.435747 L-0.472378 -0.435747  z" fill="none" stroke="rgb(128,128,128)" stroke-width="0.01" />
<line x1="0.527622" y1="-0.135747" x2="0.612795" y2="0.214032" style="stroke:rgb(246,147,147);stroke-width:0.01" />
<line x1="-0.472378" y1="-0.0157474" x2="-0.472378" y2="0.00225257" style="stroke:rgb(246,147,147);stroke-width:0.01" />
<line x1="0.527622" y1="-0.135747" x2="0.527622" y2="0.164253" style="stroke:rgb(246,147,147);stroke-width:0.01" />
<line x1="-0.352852" y1="-0.0811395" x2="-0.371859" y2="0.0384983" style="stroke:rgb(246,147,147);stroke-width:0.01" />
<line x1="-0.472378" y1="-0.0157474" x2="-0.467573" y2="0.00398518" style="stroke:rgb(246,147,147);stroke-width:0.01" />
<line x1="0.634762" y1="0.0757658" x2="0.612795" y2="0.214032" style="stroke:rgb(246,147,147);stroke-width:0.01" />
<line x1="-0.259921" y1="-0.150554" x2="-0.371859" y2="0.0384983" style="stroke:rgb(246,147,147);stroke-width:0.01" />
<line x1="-0.368991" y1="-0.122468" x2="-0.472378" y2="0.00225257" style="stroke:rgb(246,147,147);stroke-width:0.01" />
<line x1="-0.259921" y1="-0.150554" x2="0.165407" y2="0.232228" style="stroke:rgb(246,147,147);stroke-width:0.01" />
<line x1="-0.368991" y1="-0.122468" x2="-0.0231082" y2="0.164253" style="stroke:rgb(246,147,147);stroke-width:0.01" />
<line x1="-0.259921" y1="-0.150554" x2="-0.467573" y2="0.00398518" style="stroke:rgb(246,147,147);stroke-width:0.01" />
<line x1="-0.33168" y1="-0.0293604" x2="0.024007" y2="0.181242" style="stroke:rgb(246,147,147);stroke-width:0.01" />
<line x1="-0.472378" y1="0.00225257" x2="0.165407" y2="0.232228" style="stroke:rgb(246,147,147);stroke-width:0.01" />
<line x1="-0.352852" y1="-0.0811395" x2="0.634762" y2="0.0757658" style="stroke:rgb(246,147,147);stroke-width:0.01" />
<line x1="0.527622" y1="-0.135747" x2="-0.472378" y2="-0.0157474" style="stroke:rgb(246,147,147);stroke-width:0.01" />
<line x1="0.024007" y1="0.181242" x2="0.308342" y2="0.226415" style="stroke:rgb(246,147,147);stroke-width:0.01" />
<line x1="-0.0231082" y1="0.164253" x2="0.527622" y2="0.164253" style="stroke:rgb(246,147,147);stroke-width:0.01" />
<line x1="0.612795" y1="0.214032" x2="0.165407" y2="0.232228" style="stroke:rgb(246,147,147);stroke-width:0.01" />
<line x1="0.5986" y1="0.155735" x2="0.308342" y2="0.226415" style="stroke:rgb(246,147,147);stroke-width:0.01" />
</g>
</svg>
