<svg xmlns="http://www.w3.org/2000/svg" viewBox="-1.5 -1.5 3 3">
<g transform="scale(1, -1)">
<path d="M-0.031250 -0.393750 L0.368750 0.006250 L0.368750 0.306250 L0.168750 0.306250 L-0.131250 0.006250 L-0.231250 0.006250 L-0.231250 -0.093750 L-0.281250 -0.143750 z " fill="rgb(245,195,195)" />
<path d="M-0.631250 -0.693750 L0.368750 -0.693750 L0.368750 0.306250 L-0.631250 0.306250  z" fill="none" stroke="rgb(128,128,128)" stroke-width="0.01" />
<line x1="-0.03125" y1="-0.39375" x2="0.36875" y2="0.00625" style="stroke:rgb(246,147,147);stroke-width:0.01" />
<line x1="-0.23125" y1="-0.19375" x2="-0.23125" y2="0.00625" style="stroke:rgb(246,147,147);stroke-width:0.01" />
<line x1="-0.13125" y1="-0.29375" x2="-0.13125" y2="0.00625" style="stroke:rgb(246,147,147);stroke-width:0.01" />
<line x1="0.06875" y1="-0.29375" x2="0.06875" y2="0.20625" style="stroke:rgb(246,147,147);stroke-width:0.01" />
<line x1="0.16875" y1="-0.19375" x2="0.16875" y2="0.30625" style="stroke:rgb(246,147,147);stroke-width:0.01" />
<line x1="0.36875" y1="0.00625" x2="0.36875" y2="0.30625" style="stroke:rgb(246,147,147);stroke-width:0.01" />
<line x1="-0.28125" y1="-0.14375" x2="0.16875" y2="0.30625" style="stroke:rgb(246,147,147);stroke-width:0.01" />
<line x1="-0.13125" y1="-0.29375" x2="0.06875" y2="-0.29375" style="stroke:rgb(246,147,147);stroke-width:0.01" />
<line x1="-0.03125" y1="-0.39375" x2="-0.28125" y2="-0.14375" style="stroke:rgb(246,147,147);stroke-width:0.01" />
<line x1="-0.23125" y1="-0.19375" x2="0.16875" y2="-0.19375" style="stroke:rgb(246,147,147);stroke-width:0.01" />
<line x1="-0.23125" y1="0.00625" x2="0.36875" y2="0.00625" style="stroke:rgb(246,147,147);stroke-width:0.01" />
<line x1="0.06875" y1="0.20625" x2="0.16875" y2="0.20625" style="stroke:rgb(246,147,147);stroke-width:0.01" />
<line x1="0.16875" y1="0.30625" x2="0.36875" y2="0.30625" style="stroke:rgb(246,147,147);stroke-width:0.01" />
</g>
</svg>
