<svg xmlns="http://www.w3.org/2000/svg" viewBox="-1.5 -1.5 3 3">
<g transform="scale(1, -1)">
<path d="M-0.474265 1.686121 L-0.282973 1.788143 L-0.216625 2.006147 L-0.347426 2.045956 L-0.595588 1.913603 z " fill="rgb(245,195,195)" />
<path d="M0.000000 0.000000 L1.000000 0.000000 L1.000000 1.000000 L0.000000 1.000000  z" fill="none" stroke="rgb(128,128,128)" stroke-width="0.01" />
<line x1="-0.474265" y1="1.68612" x2="-0.595588" y2="1.9136" style="stroke:rgb(246,147,147);stroke-width:0.01" />
<line x1="-0.282973" y1="1.78814" x2="-0.216625" y2="2.00615" style="stroke:rgb(246,147,147);stroke-width:0.01" />
<line x1="-0.302275" y1="1.82433" x2="-0.252815" y2="1.98685" style="stroke:rgb(246,147,147);stroke-width:0.01" />
<line x1="-0.363051" y1="1.84283" x2="-0.305147" y2="2.03309" style="stroke:rgb(246,147,147);stroke-width:0.01" />
<line x1="-0.32261" y1="1.767" x2="-0.363051" y2="1.84283" style="stroke:rgb(246,147,147);stroke-width:0.01" />
<line x1="-0.353745" y1="1.92084" x2="-0.349322" y2="1.93537" style="stroke:rgb(246,147,147);stroke-width:0.01" />
<line x1="-0.282973" y1="1.78814" x2="-0.358801" y2="1.93032" style="stroke:rgb(246,147,147);stroke-width:0.01" />
<line x1="-0.279756" y1="1.79871" x2="-0.351907" y2="1.934" style="stroke:rgb(246,147,147);stroke-width:0.01" />
<line x1="-0.256434" y1="1.87534" x2="-0.347426" y2="2.04596" style="stroke:rgb(246,147,147);stroke-width:0.01" />
<line x1="-0.247587" y1="1.90441" x2="-0.282973" y2="1.97076" style="stroke:rgb(246,147,147);stroke-width:0.01" />
<line x1="-0.243566" y1="1.91762" x2="-0.305147" y2="2.03309" style="stroke:rgb(246,147,147);stroke-width:0.01" />
<line x1="-0.23472" y1="1.94669" x2="-0.2554" y2="1.98547" style="stroke:rgb(246,147,147);stroke-width:0.01" />
<line x1="-0.474265" y1="1.68612" x2="-0.282973" y2="1.78814" style="stroke:rgb(246,147,147);stroke-width:0.01" />
<line x1="-0.326287" y1="1.7739" x2="-0.279756" y2="1.79871" style="stroke:rgb(246,147,147);stroke-width:0.01" />
<line x1="-0.313304" y1="1.84501" x2="-0.256434" y2="1.87534" style="stroke:rgb(246,147,147);stroke-width:0.01" />
<line x1="-0.363051" y1="1.84283" x2="-0.247587" y2="1.90441" style="stroke:rgb(246,147,147);stroke-width:0.01" />
<line x1="-0.274529" y1="1.81589" x2="-0.595588" y2="1.9136" style="stroke:rgb(246,147,147);stroke-width:0.01" />
<line x1="-0.32801" y1="1.87259" x2="-0.243566" y2="1.91762" style="stroke:rgb(246,147,147);stroke-width:0.01" />
<line x1="-0.529412" y1="1.78952" x2="-0.23472" y2="1.94669" style="stroke:rgb(246,147,147);stroke-width:0.01" />
<line x1="-0.358801" y1="1.93032" x2="-0.216625" y2="2.00615" style="stroke:rgb(246,147,147);stroke-width:0.01" />
<line x1="-0.279756" y1="1.89832" x2="-0.353745" y2="1.92084" style="stroke:rgb(246,147,147);stroke-width:0.01" />
<line x1="-0.247587" y1="1.90441" x2="-0.349322" y2="1.93537" style="stroke:rgb(246,147,147);stroke-width:0.01" />
<line x1="-0.332721" y1="2.01838" x2="-0.305147" y2="2.03309" style="stroke:rgb(246,147,147);stroke-width:0.01" />
<line x1="-0.595588" y1="1.9136" x2="-0.347426" y2="2.04596" style="stroke:rgb(246,147,147);stroke-width:0.01" />
<line x1="-0.225069" y1="1.9784" x2="-0.252815" y2="1.98685" style="stroke:rgb(246,147,147);stroke-width:0.01" />
<line x1="-0.216625" y1="2.00615" x2="-0.347426" y2="2.04596" style="stroke:rgb(246,147,147);stroke-width:0.01" />
</g>
</svg>
