<svg xmlns="http://www.w3.org/2000/svg" viewBox="-1.5 -1.5 3 3">
<g transform="scale(1, -1)">
<path d="M-0.090889 -0.201873 L0.100402 -0.099851 L0.166751 0.118153 L0.035949 0.157962 L-0.212213 0.025609 z " fill="rgb(245,195,195)" />
<path d="M0.383375 -1.887994 L1.383375 -1.887994 L1.383375 -0.887994 L0.383375 -0.887994  z" fill="none" stroke="rgb(128,128,128)" stroke-width="0.01" />
<line x1="-0.0908892" y1="-0.201873" x2="-0.212213" y2="0.0256089" style="stroke:rgb(246,147,147);stroke-width:0.01" />
<line x1="0.100402" y1="-0.0998506" x2="0.166751" y2="0.118153" style="stroke:rgb(246,147,147);stroke-width:0.01" />
<line x1="0.0811006" y1="-0.0636604" x2="0.130561" y2="0.0988511" style="stroke:rgb(246,147,147);stroke-width:0.01" />
<line x1="0.020324" y1="-0.0451631" x2="0.0782284" y2="0.145094" style="stroke:rgb(246,147,147);stroke-width:0.01" />
<line x1="0.0607652" y1="-0.12099" x2="0.020324" y2="-0.0451631" style="stroke:rgb(246,147,147);stroke-width:0.01" />
<line x1="0.0296301" y1="0.032847" x2="0.0340533" y2="0.0473805" style="stroke:rgb(246,147,147);stroke-width:0.01" />
<line x1="0.100402" y1="-0.0998506" x2="0.0245749" y2="0.0423254" style="stroke:rgb(246,147,147);stroke-width:0.01" />
<line x1="0.103619" y1="-0.0892808" x2="0.0314683" y2="0.0460018" style="stroke:rgb(246,147,147);stroke-width:0.01" />
<line x1="0.126942" y1="-0.0126494" x2="0.035949" y2="0.157962" style="stroke:rgb(246,147,147);stroke-width:0.01" />
<line x1="0.135788" y1="0.0164177" x2="0.100402" y2="0.0827665" style="stroke:rgb(246,147,147);stroke-width:0.01" />
<line x1="0.139809" y1="0.0296301" x2="0.0782284" y2="0.145094" style="stroke:rgb(246,147,147);stroke-width:0.01" />
<line x1="0.148656" y1="0.0586972" x2="0.127976" y2="0.0974724" style="stroke:rgb(246,147,147);stroke-width:0.01" />
<line x1="-0.0908892" y1="-0.201873" x2="0.100402" y2="-0.0998506" style="stroke:rgb(246,147,147);stroke-width:0.01" />
<line x1="0.0570887" y1="-0.114097" x2="0.103619" y2="-0.0892808" style="stroke:rgb(246,147,147);stroke-width:0.01" />
<line x1="0.0700712" y1="-0.0429802" x2="0.126942" y2="-0.0126494" style="stroke:rgb(246,147,147);stroke-width:0.01" />
<line x1="0.020324" y1="-0.0451631" x2="0.135788" y2="0.0164177" style="stroke:rgb(246,147,147);stroke-width:0.01" />
<line x1="0.108847" y1="-0.0721048" x2="-0.212213" y2="0.0256089" style="stroke:rgb(246,147,147);stroke-width:0.01" />
<line x1="0.0553653" y1="-0.0154067" x2="0.139809" y2="0.0296301" style="stroke:rgb(246,147,147);stroke-width:0.01" />
<line x1="-0.146036" y1="-0.098472" x2="0.148656" y2="0.0586972" style="stroke:rgb(246,147,147);stroke-width:0.01" />
<line x1="0.0245749" y1="0.0423254" x2="0.166751" y2="0.118153" style="stroke:rgb(246,147,147);stroke-width:0.01" />
<line x1="0.103619" y1="0.0103286" x2="0.0296301" y2="0.032847" style="stroke:rgb(246,147,147);stroke-width:0.01" />
<line x1="0.135788" y1="0.0164177" x2="0.0340533" y2="0.0473805" style="stroke:rgb(246,147,147);stroke-width:0.01" />
<line x1="0.0506549" y1="0.130388" x2="0.0782284" y2="0.145094" style="stroke:rgb(246,147,147);stroke-width:0.01" />
<line x1="-0.212213" y1="0.0256089" x2="0.035949" y2="0.157962" style="stroke:rgb(246,147,147);stroke-width:0.01" />
<line x1="0.158307" y1="0.0904067" x2="0.130561" y2="0.0988511" style="stroke:rgb(246,147,147);stroke-width:0.01" />
<line x1="0.166751" y1="0.118153" x2="0.035949" y2="0.157962" style="stroke:rgb(246,147,147);stroke-width:0.01" />
</g>
</svg>
