<svg xmlns="http://www.w3.org/2000/svg" viewBox="-1.5 -1.5 3 3">
<g transform="scale(1, -1)">
<path d="M0.198713 0.194745 L0.433751 0.425781 L0.814453 0.425781 L0.814453 0.611328 L0.719306 0.706476 L0.000000 0.709563 L-0.004404 0.196488 z " fill="rgb(245,195,195)" />
<path d="M0.000000 0.000000 L1.000000 0.000000 L1.000000 1.000000 L0.000000 1.000000  z" fill="none" stroke="rgb(128,128,128)" stroke-width="0.01" />
<line x1="0.423273" y1="0.415482" x2="0.425781" y2="0.707735" style="stroke:rgb(246,147,147);stroke-width:0.01" />
<line x1="0.198713" y1="0.194745" x2="0.203125" y2="0.708691" style="stroke:rgb(246,147,147);stroke-width:0.01" />
<line x1="0.198713" y1="0.194745" x2="0.719306" y2="0.706476" style="stroke:rgb(246,147,147);stroke-width:0.01" />
<line x1="0" y1="0.611328" x2="0" y2="0.709563" style="stroke:rgb(246,147,147);stroke-width:0.01" />
<line x1="0.203125" y1="0.425781" x2="0.203125" y2="0.708691" style="stroke:rgb(246,147,147);stroke-width:0.01" />
<line x1="0.425781" y1="0.425781" x2="0.425781" y2="0.707735" style="stroke:rgb(246,147,147);stroke-width:0.01" />
<line x1="0.814453" y1="0.425781" x2="0.814453" y2="0.611328" style="stroke:rgb(246,147,147);stroke-width:0.01" />
<line x1="-0.00440415" y1="0.196488" x2="0" y2="0.709563" style="stroke:rgb(246,147,147);stroke-width:0.01" />
<line x1="0.198713" y1="0.194745" x2="-0.00440415" y2="0.196488" style="stroke:rgb(246,147,147);stroke-width:0.01" />
<line x1="0.423273" y1="0.415482" x2="-0.00249298" y2="0.419136" style="stroke:rgb(246,147,147);stroke-width:0.01" />
<line x1="0.203125" y1="0.425781" x2="0.814453" y2="0.425781" style="stroke:rgb(246,147,147);stroke-width:0.01" />
<line x1="0" y1="0.611328" x2="0.814453" y2="0.611328" style="stroke:rgb(246,147,147);stroke-width:0.01" />
<line x1="0.719306" y1="0.706476" x2="0" y2="0.709563" style="stroke:rgb(246,147,147);stroke-width:0.01" />
<line x1="0.814453" y1="0.611328" x2="0.719306" y2="0.706476" style="stroke:rgb(246,147,147);stroke-width:0.01" />
</g>
</svg>
