<svg xmlns="http://www.w3.org/2000/svg" viewBox="-1.5 -1.5 3 3">
<g transform="scale(1, -1)">
<path d="M-0.226468 -0.272421 L0.008569 -0.041385 L0.389271 -0.041385 L0.389271 0.144162 L0.294124 0.239310 L-0.425182 0.242397 L-0.429586 -0.270678 z " fill="rgb(245,195,195)" />
<path d="M-0.425182 -0.467166 L0.574818 -0.467166 L0.574818 0.532834 L-0.425182 0.532834  z" fill="none" stroke="rgb(128,128,128)" stroke-width="0.01" />
<line x1="-0.00190909" y1="-0.0516845" x2="0.000599571" y2="0.240569" style="stroke:rgb(246,147,147);stroke-width:0.01" />
<line x1="-0.226468" y1="-0.272421" x2="-0.222057" y2="0.241525" style="stroke:rgb(246,147,147);stroke-width:0.01" />
<line x1="-0.226468" y1="-0.272421" x2="0.294124" y2="0.23931" style="stroke:rgb(246,147,147);stroke-width:0.01" />
<line x1="-0.425182" y1="0.144162" x2="-0.425182" y2="0.242397" style="stroke:rgb(246,147,147);stroke-width:0.01" />
<line x1="-0.222057" y1="-0.0413847" x2="-0.222057" y2="0.241525" style="stroke:rgb(246,147,147);stroke-width:0.01" />
<line x1="0.000599571" y1="-0.0413847" x2="0.000599571" y2="0.240569" style="stroke:rgb(246,147,147);stroke-width:0.01" />
<line x1="0.389271" y1="-0.0413847" x2="0.389271" y2="0.144162" style="stroke:rgb(246,147,147);stroke-width:0.01" />
<line x1="-0.429586" y1="-0.270678" x2="-0.425182" y2="0.242397" style="stroke:rgb(246,147,147);stroke-width:0.01" />
<line x1="-0.226468" y1="-0.272421" x2="-0.429586" y2="-0.270678" style="stroke:rgb(246,147,147);stroke-width:0.01" />
<line x1="-0.00190909" y1="-0.0516845" x2="-0.427675" y2="-0.0480297" style="stroke:rgb(246,147,147);stroke-width:0.01" />
<line x1="-0.222057" y1="-0.0413847" x2="0.389271" y2="-0.0413847" style="stroke:rgb(246,147,147);stroke-width:0.01" />
<line x1="-0.425182" y1="0.144162" x2="0.389271" y2="0.144162" style="stroke:rgb(246,147,147);stroke-width:0.01" />
<line x1="0.294124" y1="0.23931" x2="-0.425182" y2="0.242397" style="stroke:rgb(246,147,147);stroke-width:0.01" />
<line x1="0.389271" y1="0.144162" x2="0.294124" y2="0.23931" style="stroke:rgb(246,147,147);stroke-width:0.01" />
</g>
</svg>
