<svg xmlns="http://www.w3.org/2000/svg" viewBox="-1.5 -1.5 3 3">
<g transform="scale(1, -1)">
<path d="M-0.146806 -0.170133 L-0.124100 -0.163069 L-0.124507 -0.160334 L-0.092285 -0.146174 L0.124865 -0.141084 L0.236209 0.189930 L0.238566 0.224610 L0.099716 0.645182 L0.071435 0.651788 L-0.257127 0.528578 L-0.258615 0.523495 L-0.252273 0.525478 L-0.237407 0.515985 L-0.290467 0.214055 z " fill="rgb(245,195,195)" />
<path d="M0.000000 0.000000 L1.000000 0.000000 L1.000000 1.000000 L0.000000 1.000000  z" fill="none" stroke="rgb(128,128,128)" stroke-width="0.01" />
<line x1="-0.1241" y1="-0.163069" x2="-0.1495" y2="-0.16293" style="stroke:rgb(246,147,147);stroke-width:0.01" />
<line x1="-0.129571" y1="-0.126389" x2="-0.16939" y2="-0.109738" style="stroke:rgb(246,147,147);stroke-width:0.01" />
<line x1="-0.155214" y1="-0.147649" x2="0.124865" y2="-0.141084" style="stroke:rgb(246,147,147);stroke-width:0.01" />
<line x1="-0.16904" y1="-0.0994287" x2="-0.173659" y2="-0.0983225" style="stroke:rgb(246,147,147);stroke-width:0.01" />
<line x1="-0.123871" y1="-0.140401" x2="-0.183132" y2="-0.0729881" style="stroke:rgb(246,147,147);stroke-width:0.01" />
<line x1="-0.146806" y1="-0.170133" x2="-0.1241" y2="-0.163069" style="stroke:rgb(246,147,147);stroke-width:0.01" />
<line x1="-0.119121" y1="-0.0665884" x2="-0.204685" y2="-0.0153502" style="stroke:rgb(246,147,147);stroke-width:0.01" />
<line x1="0.057714" y1="-0.08762" x2="0.146228" y2="-0.0775755" style="stroke:rgb(246,147,147);stroke-width:0.01" />
<line x1="-0.146806" y1="-0.170133" x2="0.160523" y2="-0.0350783" style="stroke:rgb(246,147,147);stroke-width:0.01" />
<line x1="-0.173006" y1="-0.100068" x2="-0.16904" y2="-0.0994287" style="stroke:rgb(246,147,147);stroke-width:0.01" />
<line x1="-0.146806" y1="-0.170133" x2="-0.290467" y2="0.214055" style="stroke:rgb(246,147,147);stroke-width:0.01" />
<line x1="0.124865" y1="-0.141084" x2="0.236209" y2="0.18993" style="stroke:rgb(246,147,147);stroke-width:0.01" />
<line x1="0.232108" y1="0.211396" x2="0.238566" y2="0.22461" style="stroke:rgb(246,147,147);stroke-width:0.01" />
<line x1="-0.16225" y1="0.080721" x2="-0.169475" y2="0.0924963" style="stroke:rgb(246,147,147);stroke-width:0.01" />
<line x1="-0.164497" y1="0.107744" x2="-0.171328" y2="0.117481" style="stroke:rgb(246,147,147);stroke-width:0.01" />
<line x1="-0.161891" y1="0.0902695" x2="-0.171328" y2="0.117481" style="stroke:rgb(246,147,147);stroke-width:0.01" />
<line x1="0.124865" y1="-0.141084" x2="0.057714" y2="-0.08762" style="stroke:rgb(246,147,147);stroke-width:0.01" />
<line x1="0.121136" y1="0.0357023" x2="0.198884" y2="0.0789654" style="stroke:rgb(246,147,147);stroke-width:0.01" />
<line x1="-0.1241" y1="-0.163069" x2="-0.164497" y2="0.107744" style="stroke:rgb(246,147,147);stroke-width:0.01" />
<line x1="-0.1495" y1="-0.16293" x2="-0.123871" y2="-0.140401" style="stroke:rgb(246,147,147);stroke-width:0.01" />
<line x1="0.236209" y1="0.18993" x2="0.238566" y2="0.22461" style="stroke:rgb(246,147,147);stroke-width:0.01" />
<line x1="-0.171328" y1="0.117481" x2="-0.290467" y2="0.214055" style="stroke:rgb(246,147,147);stroke-width:0.01" />
<line x1="-0.155214" y1="-0.147649" x2="-0.129571" y2="-0.126389" style="stroke:rgb(246,147,147);stroke-width:0.01" />
<line x1="-0.143313" y1="0.455899" x2="-0.148969" y2="0.515604" style="stroke:rgb(246,147,147);stroke-width:0.01" />
<line x1="-0.137294" y1="0.459577" x2="-0.148969" y2="0.515604" style="stroke:rgb(246,147,147);stroke-width:0.01" />
<line x1="-0.183132" y1="-0.0729881" x2="-0.182445" y2="0.0527703" style="stroke:rgb(246,147,147);stroke-width:0.01" />
<line x1="-0.0151939" y1="0.034143" x2="0.0879853" y2="0.631356" style="stroke:rgb(246,147,147);stroke-width:0.01" />
<line x1="0.057714" y1="-0.08762" x2="0.0397598" y2="0.0705953" style="stroke:rgb(246,147,147);stroke-width:0.01" />
<line x1="-0.173006" y1="-0.100068" x2="-0.119121" y2="-0.0665884" style="stroke:rgb(246,147,147);stroke-width:0.01" />
<line x1="-0.16904" y1="-0.0994287" x2="-0.161891" y2="0.0902695" style="stroke:rgb(246,147,147);stroke-width:0.01" />
<line x1="-0.123871" y1="-0.140401" x2="-0.119121" y2="-0.0665884" style="stroke:rgb(246,147,147);stroke-width:0.01" />
<line x1="0.0397598" y1="0.0705953" x2="0.237344" y2="0.206628" style="stroke:rgb(246,147,147);stroke-width:0.01" />
<line x1="0.172877" y1="0.00165039" x2="-0.0151939" y2="0.034143" style="stroke:rgb(246,147,147);stroke-width:0.01" />
<line x1="0.146228" y1="-0.0775755" x2="-0.151065" y2="0.206098" style="stroke:rgb(246,147,147);stroke-width:0.01" />
<line x1="-0.0116389" y1="0.536353" x2="-0.0352597" y2="0.611778" style="stroke:rgb(246,147,147);stroke-width:0.01" />
<line x1="-0.16939" y1="-0.109738" x2="-0.141452" y2="-0.0532158" style="stroke:rgb(246,147,147);stroke-width:0.01" />
<line x1="-0.173659" y1="-0.0983225" x2="-0.141452" y2="-0.0532158" style="stroke:rgb(246,147,147);stroke-width:0.01" />
<line x1="0.236209" y1="0.18993" x2="0.232108" y2="0.211396" style="stroke:rgb(246,147,147);stroke-width:0.01" />
<line x1="-0.290467" y1="0.214055" x2="-0.233647" y2="0.537382" style="stroke:rgb(246,147,147);stroke-width:0.01" />
<line x1="-0.204685" y1="-0.0153502" x2="-0.164497" y2="0.107744" style="stroke:rgb(246,147,147);stroke-width:0.01" />
<line x1="0.160523" y1="-0.0350783" x2="0.121136" y2="0.0357023" style="stroke:rgb(246,147,147);stroke-width:0.01" />
<line x1="0.172877" y1="0.00165039" x2="0.0397598" y2="0.0705953" style="stroke:rgb(246,147,147);stroke-width:0.01" />
<line x1="-0.162641" y1="0.0953002" x2="-0.249081" y2="0.103377" style="stroke:rgb(246,147,147);stroke-width:0.01" />
<line x1="0.198884" y1="0.0789654" x2="-0.0352597" y2="0.611778" style="stroke:rgb(246,147,147);stroke-width:0.01" />
<line x1="0.238566" y1="0.22461" x2="0.0997159" y2="0.645182" style="stroke:rgb(246,147,147);stroke-width:0.01" />
<line x1="-0.182445" y1="0.0527703" x2="-0.16225" y2="0.080721" style="stroke:rgb(246,147,147);stroke-width:0.01" />
<line x1="-0.258615" y1="0.523495" x2="-0.257127" y2="0.528578" style="stroke:rgb(246,147,147);stroke-width:0.01" />
<line x1="-0.169475" y1="0.0924963" x2="-0.162641" y2="0.0953002" style="stroke:rgb(246,147,147);stroke-width:0.01" />
<line x1="-0.249081" y1="0.103377" x2="-0.151065" y2="0.206098" style="stroke:rgb(246,147,147);stroke-width:0.01" />
<line x1="-0.0116389" y1="0.536353" x2="0.0714346" y2="0.651788" style="stroke:rgb(246,147,147);stroke-width:0.01" />
<line x1="-0.137294" y1="0.459577" x2="-0.233647" y2="0.537382" style="stroke:rgb(246,147,147);stroke-width:0.01" />
<line x1="0.0879853" y1="0.631356" x2="0.0997159" y2="0.645182" style="stroke:rgb(246,147,147);stroke-width:0.01" />
<line x1="0.237344" y1="0.206628" x2="0.232108" y2="0.211396" style="stroke:rgb(246,147,147);stroke-width:0.01" />
<line x1="-0.143313" y1="0.455899" x2="-0.257127" y2="0.528578" style="stroke:rgb(246,147,147);stroke-width:0.01" />
<line x1="-0.143313" y1="0.455899" x2="-0.0116389" y2="0.536353" style="stroke:rgb(246,147,147);stroke-width:0.01" />
<line x1="-0.258615" y1="0.523495" x2="-0.248856" y2="0.531679" style="stroke:rgb(246,147,147);stroke-width:0.01" />
<line x1="-0.148969" y1="0.515604" x2="-0.0116389" y2="0.536353" style="stroke:rgb(246,147,147);stroke-width:0.01" />
<line x1="0.0879853" y1="0.631356" x2="0.102602" y2="0.63644" style="stroke:rgb(246,147,147);stroke-width:0.01" />
<line x1="-0.248856" y1="0.531679" x2="-0.0116389" y2="0.536353" style="stroke:rgb(246,147,147);stroke-width:0.01" />
<line x1="-0.257127" y1="0.528578" x2="0.0714346" y2="0.651788" style="stroke:rgb(246,147,147);stroke-width:0.01" />
<line x1="-0.258615" y1="0.523495" x2="0.102602" y2="0.63644" style="stroke:rgb(246,147,147);stroke-width:0.01" />
<line x1="0.0997159" y1="0.645182" x2="0.0714346" y2="0.651788" style="stroke:rgb(246,147,147);stroke-width:0.01" />
</g>
</svg>
