<svg xmlns="http://www.w3.org/2000/svg" viewBox="-1.5 -1.5 3 3">
<g transform="scale(1, -1)">
<path d="M-0.074464 -0.401441 L-0.051757 -0.394376 L-0.052165 -0.391642 L-0.019943 -0.377482 L0.197208 -0.372391 L0.308551 -0.041378 L0.310908 -0.006698 L0.172059 0.413875 L0.143777 0.420480 L-0.184784 0.297270 L-0.186273 0.292187 L-0.179930 0.294171 L-0.165064 0.284678 L-0.218124 -0.017253 z " fill="rgb(245,195,195)" />
<path d="M0.072343 -0.231308 L1.072343 -0.231308 L1.072343 0.768692 L0.072343 0.768692  z" fill="none" stroke="rgb(128,128,128)" stroke-width="0.01" />
<line x1="-0.0517569" y1="-0.394376" x2="-0.0771572" y2="-0.394238" style="stroke:rgb(246,147,147);stroke-width:0.01" />
<line x1="-0.0572285" y1="-0.357697" x2="-0.0970474" y2="-0.341046" style="stroke:rgb(246,147,147);stroke-width:0.01" />
<line x1="-0.0828711" y1="-0.378957" x2="0.197208" y2="-0.372391" style="stroke:rgb(246,147,147);stroke-width:0.01" />
<line x1="-0.096697" y1="-0.330736" x2="-0.101316" y2="-0.32963" style="stroke:rgb(246,147,147);stroke-width:0.01" />
<line x1="-0.0515287" y1="-0.371708" x2="-0.110789" y2="-0.304296" style="stroke:rgb(246,147,147);stroke-width:0.01" />
<line x1="-0.0744637" y1="-0.401441" x2="-0.0517569" y2="-0.394376" style="stroke:rgb(246,147,147);stroke-width:0.01" />
<line x1="-0.0467785" y1="-0.297896" x2="-0.132342" y2="-0.246658" style="stroke:rgb(246,147,147);stroke-width:0.01" />
<line x1="0.130057" y1="-0.318928" x2="0.21857" y2="-0.308883" style="stroke:rgb(246,147,147);stroke-width:0.01" />
<line x1="-0.0744637" y1="-0.401441" x2="0.232865" y2="-0.266386" style="stroke:rgb(246,147,147);stroke-width:0.01" />
<line x1="-0.100664" y1="-0.331375" x2="-0.096697" y2="-0.330736" style="stroke:rgb(246,147,147);stroke-width:0.01" />
<line x1="-0.0744637" y1="-0.401441" x2="-0.218124" y2="-0.0172528" style="stroke:rgb(246,147,147);stroke-width:0.01" />
<line x1="0.197208" y1="-0.372391" x2="0.308551" y2="-0.0413779" style="stroke:rgb(246,147,147);stroke-width:0.01" />
<line x1="0.30445" y1="-0.0199113" x2="0.310908" y2="-0.00669753" style="stroke:rgb(246,147,147);stroke-width:0.01" />
<line x1="-0.0899078" y1="-0.150587" x2="-0.0971327" y2="-0.138811" style="stroke:rgb(246,147,147);stroke-width:0.01" />
<line x1="-0.0921547" y1="-0.123564" x2="-0.0989852" y2="-0.113826" style="stroke:rgb(246,147,147);stroke-width:0.01" />
<line x1="-0.089548" y1="-0.141038" x2="-0.0989852" y2="-0.113826" style="stroke:rgb(246,147,147);stroke-width:0.01" />
<line x1="0.197208" y1="-0.372391" x2="0.130057" y2="-0.318928" style="stroke:rgb(246,147,147);stroke-width:0.01" />
<line x1="0.193479" y1="-0.195605" x2="0.271226" y2="-0.152342" style="stroke:rgb(246,147,147);stroke-width:0.01" />
<line x1="-0.0517569" y1="-0.394376" x2="-0.0921547" y2="-0.123564" style="stroke:rgb(246,147,147);stroke-width:0.01" />
<line x1="-0.0771572" y1="-0.394238" x2="-0.0515287" y2="-0.371708" style="stroke:rgb(246,147,147);stroke-width:0.01" />
<line x1="0.308551" y1="-0.0413779" x2="0.310908" y2="-0.00669753" style="stroke:rgb(246,147,147);stroke-width:0.01" />
<line x1="-0.0989852" y1="-0.113826" x2="-0.218124" y2="-0.0172528" style="stroke:rgb(246,147,147);stroke-width:0.01" />
<line x1="-0.0828711" y1="-0.378957" x2="-0.0572285" y2="-0.357697" style="stroke:rgb(246,147,147);stroke-width:0.01" />
<line x1="-0.0709703" y1="0.224592" x2="-0.0766266" y2="0.284297" style="stroke:rgb(246,147,147);stroke-width:0.01" />
<line x1="-0.0649509" y1="0.22827" x2="-0.0766266" y2="0.284297" style="stroke:rgb(246,147,147);stroke-width:0.01" />
<line x1="-0.110789" y1="-0.304296" x2="-0.110102" y2="-0.178537" style="stroke:rgb(246,147,147);stroke-width:0.01" />
<line x1="0.0571487" y1="-0.197165" x2="0.160328" y2="0.400049" style="stroke:rgb(246,147,147);stroke-width:0.01" />
<line x1="0.130057" y1="-0.318928" x2="0.112102" y2="-0.160712" style="stroke:rgb(246,147,147);stroke-width:0.01" />
<line x1="-0.100664" y1="-0.331375" x2="-0.0467785" y2="-0.297896" style="stroke:rgb(246,147,147);stroke-width:0.01" />
<line x1="-0.096697" y1="-0.330736" x2="-0.089548" y2="-0.141038" style="stroke:rgb(246,147,147);stroke-width:0.01" />
<line x1="-0.0515287" y1="-0.371708" x2="-0.0467785" y2="-0.297896" style="stroke:rgb(246,147,147);stroke-width:0.01" />
<line x1="0.112102" y1="-0.160712" x2="0.309686" y2="-0.0246793" style="stroke:rgb(246,147,147);stroke-width:0.01" />
<line x1="0.24522" y1="-0.229657" x2="0.0571487" y2="-0.197165" style="stroke:rgb(246,147,147);stroke-width:0.01" />
<line x1="0.21857" y1="-0.308883" x2="-0.0787222" y2="-0.0252092" style="stroke:rgb(246,147,147);stroke-width:0.01" />
<line x1="0.0607037" y1="0.305046" x2="0.037083" y2="0.38047" style="stroke:rgb(246,147,147);stroke-width:0.01" />
<line x1="-0.0970474" y1="-0.341046" x2="-0.0691097" y2="-0.284523" style="stroke:rgb(246,147,147);stroke-width:0.01" />
<line x1="-0.101316" y1="-0.32963" x2="-0.0691097" y2="-0.284523" style="stroke:rgb(246,147,147);stroke-width:0.01" />
<line x1="0.308551" y1="-0.0413779" x2="0.30445" y2="-0.0199113" style="stroke:rgb(246,147,147);stroke-width:0.01" />
<line x1="-0.218124" y1="-0.0172528" x2="-0.161304" y2="0.306075" style="stroke:rgb(246,147,147);stroke-width:0.01" />
<line x1="-0.132342" y1="-0.246658" x2="-0.0921547" y2="-0.123564" style="stroke:rgb(246,147,147);stroke-width:0.01" />
<line x1="0.232865" y1="-0.266386" x2="0.193479" y2="-0.195605" style="stroke:rgb(246,147,147);stroke-width:0.01" />
<line x1="0.24522" y1="-0.229657" x2="0.112102" y2="-0.160712" style="stroke:rgb(246,147,147);stroke-width:0.01" />
<line x1="-0.0902984" y1="-0.136007" x2="-0.176738" y2="-0.127931" style="stroke:rgb(246,147,147);stroke-width:0.01" />
<line x1="0.271226" y1="-0.152342" x2="0.037083" y2="0.38047" style="stroke:rgb(246,147,147);stroke-width:0.01" />
<line x1="0.310908" y1="-0.00669753" x2="0.172059" y2="0.413875" style="stroke:rgb(246,147,147);stroke-width:0.01" />
<line x1="-0.110102" y1="-0.178537" x2="-0.0899078" y2="-0.150587" style="stroke:rgb(246,147,147);stroke-width:0.01" />
<line x1="-0.186273" y1="0.292187" x2="-0.184784" y2="0.29727" style="stroke:rgb(246,147,147);stroke-width:0.01" />
<line x1="-0.0971327" y1="-0.138811" x2="-0.0902984" y2="-0.136007" style="stroke:rgb(246,147,147);stroke-width:0.01" />
<line x1="-0.176738" y1="-0.127931" x2="-0.0787222" y2="-0.0252092" style="stroke:rgb(246,147,147);stroke-width:0.01" />
<line x1="0.0607037" y1="0.305046" x2="0.143777" y2="0.42048" style="stroke:rgb(246,147,147);stroke-width:0.01" />
<line x1="-0.0649509" y1="0.22827" x2="-0.161304" y2="0.306075" style="stroke:rgb(246,147,147);stroke-width:0.01" />
<line x1="0.160328" y1="0.400049" x2="0.172059" y2="0.413875" style="stroke:rgb(246,147,147);stroke-width:0.01" />
<line x1="0.309686" y1="-0.0246793" x2="0.30445" y2="-0.0199113" style="stroke:rgb(246,147,147);stroke-width:0.01" />
<line x1="-0.0709703" y1="0.224592" x2="-0.184784" y2="0.29727" style="stroke:rgb(246,147,147);stroke-width:0.01" />
<line x1="-0.0709703" y1="0.224592" x2="0.0607037" y2="0.305046" style="stroke:rgb(246,147,147);stroke-width:0.01" />
<line x1="-0.186273" y1="0.292187" x2="-0.176514" y2="0.300371" style="stroke:rgb(246,147,147);stroke-width:0.01" />
<line x1="-0.0766266" y1="0.284297" x2="0.0607037" y2="0.305046" style="stroke:rgb(246,147,147);stroke-width:0.01" />
<line x1="0.160328" y1="0.400049" x2="0.174945" y2="0.405132" style="stroke:rgb(246,147,147);stroke-width:0.01" />
<line x1="-0.176514" y1="0.300371" x2="0.0607037" y2="0.305046" style="stroke:rgb(246,147,147);stroke-width:0.01" />
<line x1="-0.184784" y1="0.29727" x2="0.143777" y2="0.42048" style="stroke:rgb(246,147,147);stroke-width:0.01" />
<line x1="-0.186273" y1="0.292187" x2="0.174945" y2="0.405132" style="stroke:rgb(246,147,147);stroke-width:0.01" />
<line x1="0.172059" y1="0.413875" x2="0.143777" y2="0.42048" style="stroke:rgb(246,147,147);stroke-width:0.01" />
</g>
</svg>
