<svg xmlns="http://www.w3.org/2000/svg" viewBox="-1.5 -1.5 3 3">
<g transform="scale(1, -1)">
<path d="M0.064930 -0.212303 L0.111472 -0.143178 L0.204071 -0.110973 L0.204434 -0.031735 L0.168628 0.038332 L-0.080970 0.405705 L-0.349078 0.228737 L-0.127624 0.135270 L-0.140300 0.073367 L-0.045945 -0.197928 L-0.009618 -0.185293 z " fill="rgb(245,195,195)" />
<path d="M-1.739607 1.258725 L-0.739607 1.258725 L-0.739607 2.258725 L-1.739607 2.258725  z" fill="none" stroke="rgb(128,128,128)" stroke-width="0.01" />
<line x1="-0.0459453" y1="-0.197928" x2="0.204071" y2="-0.110973" style="stroke:rgb(246,147,147);stroke-width:0.01" />
<line x1="-0.0327151" y1="0.0952136" x2="0.0688285" y2="0.172773" style="stroke:rgb(246,147,147);stroke-width:0.01" />
<line x1="-0.122466" y1="0.160461" x2="0.00295593" y2="0.230679" style="stroke:rgb(246,147,147);stroke-width:0.01" />
<line x1="-0.127624" y1="0.13527" x2="-0.0441655" y2="0.190359" style="stroke:rgb(246,147,147);stroke-width:0.01" />
<line x1="0.0302231" y1="0.225563" x2="0.0388062" y2="0.229412" style="stroke:rgb(246,147,147);stroke-width:0.01" />
<line x1="-0.161663" y1="0.149637" x2="0.0368185" y2="0.232337" style="stroke:rgb(246,147,147);stroke-width:0.01" />
<line x1="0.109855" y1="0.111661" x2="0.11784" y2="0.113085" style="stroke:rgb(246,147,147);stroke-width:0.01" />
<line x1="-0.135535" y1="0.059665" x2="0.0388062" y2="0.229412" style="stroke:rgb(246,147,147);stroke-width:0.01" />
<line x1="-0.0351612" y1="0.096246" x2="0.113985" y2="0.118759" style="stroke:rgb(246,147,147);stroke-width:0.01" />
<line x1="0.0302231" y1="0.225563" x2="0.0368185" y2="0.232337" style="stroke:rgb(246,147,147);stroke-width:0.01" />
<line x1="-0.0769011" y1="0.37879" x2="-0.0667793" y2="0.384818" style="stroke:rgb(246,147,147);stroke-width:0.01" />
<line x1="-0.349078" y1="0.228737" x2="-0.0677466" y2="0.386241" style="stroke:rgb(246,147,147);stroke-width:0.01" />
<line x1="-0.0783491" y1="0.375904" x2="-0.0667793" y2="0.384818" style="stroke:rgb(246,147,147);stroke-width:0.01" />
<line x1="-0.349078" y1="0.228737" x2="-0.0809705" y2="0.405705" style="stroke:rgb(246,147,147);stroke-width:0.01" />
<line x1="-0.0908762" y1="0.39878" x2="-0.0809705" y2="0.405705" style="stroke:rgb(246,147,147);stroke-width:0.01" />
<line x1="-0.0769011" y1="0.37879" x2="-0.0677466" y2="0.386241" style="stroke:rgb(246,147,147);stroke-width:0.01" />
<line x1="-0.1403" y1="0.0733667" x2="0.00295593" y2="0.230679" style="stroke:rgb(246,147,147);stroke-width:0.01" />
<line x1="0.06493" y1="-0.212303" x2="0.111472" y2="-0.143178" style="stroke:rgb(246,147,147);stroke-width:0.01" />
<line x1="-0.175078" y1="0.155299" x2="-0.120325" y2="0.214976" style="stroke:rgb(246,147,147);stroke-width:0.01" />
<line x1="-0.283944" y1="0.201246" x2="-0.165126" y2="0.331723" style="stroke:rgb(246,147,147);stroke-width:0.01" />
<line x1="-0.0562107" y1="-0.168412" x2="0.11784" y2="0.113085" style="stroke:rgb(246,147,147);stroke-width:0.01" />
<line x1="0.109855" y1="0.111661" x2="0.113985" y2="0.118759" style="stroke:rgb(246,147,147);stroke-width:0.01" />
<line x1="0.0766978" y1="-0.0980429" x2="-0.0568121" y2="-0.0771476" style="stroke:rgb(246,147,147);stroke-width:0.01" />
<line x1="-0.0369883" y1="0.0495156" x2="-0.135535" y2="0.059665" style="stroke:rgb(246,147,147);stroke-width:0.01" />
<line x1="0.0631873" y1="0.193526" x2="0.0523683" y2="0.193887" style="stroke:rgb(246,147,147);stroke-width:0.01" />
<line x1="0.0558126" y1="0.204381" x2="-0.349078" y2="0.228737" style="stroke:rgb(246,147,147);stroke-width:0.01" />
<line x1="-0.214753" y1="0.172044" x2="-0.189194" y2="0.219119" style="stroke:rgb(246,147,147);stroke-width:0.01" />
<line x1="-0.164533" y1="0.150848" x2="-0.140125" y2="0.200755" style="stroke:rgb(246,147,147);stroke-width:0.01" />
<line x1="0.0688285" y1="0.172773" x2="-0.140125" y2="0.200755" style="stroke:rgb(246,147,147);stroke-width:0.01" />
<line x1="-0.0759263" y1="0.398281" x2="-0.0908762" y2="0.39878" style="stroke:rgb(246,147,147);stroke-width:0.01" />
<line x1="0.00295593" y1="0.230679" x2="-0.105123" y2="0.245152" style="stroke:rgb(246,147,147);stroke-width:0.01" />
<line x1="0.06493" y1="-0.212303" x2="-0.0562107" y2="-0.168412" style="stroke:rgb(246,147,147);stroke-width:0.01" />
<line x1="-0.0174478" y1="-0.0316464" x2="0.0631873" y2="0.193526" style="stroke:rgb(246,147,147);stroke-width:0.01" />
<line x1="0.0523683" y1="0.193887" x2="0.0558126" y2="0.204381" style="stroke:rgb(246,147,147);stroke-width:0.01" />
<line x1="-0.164533" y1="0.150848" x2="-0.0759263" y2="0.398281" style="stroke:rgb(246,147,147);stroke-width:0.01" />
<line x1="0.204071" y1="-0.110973" x2="-0.0174478" y2="-0.0316464" style="stroke:rgb(246,147,147);stroke-width:0.01" />
<line x1="0.0702213" y1="0.183173" x2="0.0576737" y2="0.186299" style="stroke:rgb(246,147,147);stroke-width:0.01" />
<line x1="-0.214753" y1="0.172044" x2="-0.165126" y2="0.331723" style="stroke:rgb(246,147,147);stroke-width:0.01" />
<line x1="0.0590898" y1="0.199557" x2="-0.105123" y2="0.245152" style="stroke:rgb(246,147,147);stroke-width:0.01" />
<line x1="0.182638" y1="-0.0161297" x2="0.186935" y2="0.00250897" style="stroke:rgb(246,147,147);stroke-width:0.01" />
<line x1="-0.0441655" y1="0.190359" x2="-0.279529" y2="0.274643" style="stroke:rgb(246,147,147);stroke-width:0.01" />
<line x1="0.186935" y1="0.00250897" x2="-0.349078" y2="0.228737" style="stroke:rgb(246,147,147);stroke-width:0.01" />
<line x1="-0.1403" y1="0.0733667" x2="-0.0783491" y2="0.375904" style="stroke:rgb(246,147,147);stroke-width:0.01" />
<line x1="-0.0568121" y1="-0.0771476" x2="-0.0369883" y2="0.0495156" style="stroke:rgb(246,147,147);stroke-width:0.01" />
<line x1="0.0688285" y1="0.172773" x2="0.0702213" y2="0.183173" style="stroke:rgb(246,147,147);stroke-width:0.01" />
<line x1="0.0576737" y1="0.186299" x2="0.0590898" y2="0.199557" style="stroke:rgb(246,147,147);stroke-width:0.01" />
<line x1="0.06493" y1="-0.212303" x2="0.0766978" y2="-0.0980429" style="stroke:rgb(246,147,147);stroke-width:0.01" />
<line x1="-0.175078" y1="0.155299" x2="-0.165126" y2="0.331723" style="stroke:rgb(246,147,147);stroke-width:0.01" />
<line x1="-0.283944" y1="0.201246" x2="-0.279529" y2="0.274643" style="stroke:rgb(246,147,147);stroke-width:0.01" />
<line x1="0.204071" y1="-0.110973" x2="0.204434" y2="-0.0317354" style="stroke:rgb(246,147,147);stroke-width:0.01" />
<line x1="-0.0677381" y1="0.386229" x2="-0.0908762" y2="0.39878" style="stroke:rgb(246,147,147);stroke-width:0.01" />
<line x1="0.204434" y1="-0.0317354" x2="0.182638" y2="-0.0161297" style="stroke:rgb(246,147,147);stroke-width:0.01" />
<line x1="-0.0327151" y1="0.0952136" x2="-0.0677381" y2="0.386229" style="stroke:rgb(246,147,147);stroke-width:0.01" />
<line x1="-0.127624" y1="0.13527" x2="-0.140125" y2="0.200755" style="stroke:rgb(246,147,147);stroke-width:0.01" />
<line x1="0.153797" y1="0.0601612" x2="0.131949" y2="0.0800579" style="stroke:rgb(246,147,147);stroke-width:0.01" />
<line x1="-0.0459453" y1="-0.197928" x2="-0.1403" y2="0.0733667" style="stroke:rgb(246,147,147);stroke-width:0.01" />
<line x1="0.111472" y1="-0.143178" x2="-0.122466" y2="0.160461" style="stroke:rgb(246,147,147);stroke-width:0.01" />
<line x1="-0.161663" y1="0.149637" x2="-0.189194" y2="0.219119" style="stroke:rgb(246,147,147);stroke-width:0.01" />
<line x1="-0.0351612" y1="0.096246" x2="-0.120325" y2="0.214976" style="stroke:rgb(246,147,147);stroke-width:0.01" />
<line x1="0.168628" y1="0.0383324" x2="0.131949" y2="0.0800579" style="stroke:rgb(246,147,147);stroke-width:0.01" />
<line x1="0.182638" y1="-0.0161297" x2="0.153797" y2="0.0601612" style="stroke:rgb(246,147,147);stroke-width:0.01" />
<line x1="0.131949" y1="0.0800579" x2="-0.0769011" y2="0.37879" style="stroke:rgb(246,147,147);stroke-width:0.01" />
<line x1="0.00295593" y1="0.230679" x2="-0.0783491" y2="0.375904" style="stroke:rgb(246,147,147);stroke-width:0.01" />
<line x1="0.168628" y1="0.0383324" x2="-0.0809705" y2="0.405705" style="stroke:rgb(246,147,147);stroke-width:0.01" />
<line x1="0.204434" y1="-0.0317354" x2="0.168628" y2="0.0383324" style="stroke:rgb(246,147,147);stroke-width:0.01" />
</g>
</svg>
