<svg xmlns="http://www.w3.org/2000/svg" viewBox="-1.5 -1.5 3 3">
<g transform="scale(1, -1)">
<path d="M-0.103991 -0.145975 L0.084740 -0.060946 L0.157666 -0.057085 L0.258957 -0.006440 L0.260348 0.062571 L0.255538 0.066439 L-0.158036 0.156043 L-0.296143 0.140560 L-0.358124 -0.084391 L-0.100955 -0.070776 z " fill="rgb(245,195,195)" />
<path d="M-0.080091 -0.009297 L0.919909 -0.009297 L0.919909 0.990703 L-0.080091 0.990703  z" fill="none" stroke="rgb(128,128,128)" stroke-width="0.01" />
<line x1="0.157666" y1="-0.0570851" x2="0.222143" y2="0.0200285" style="stroke:rgb(246,147,147);stroke-width:0.01" />
<line x1="0.204239" y1="-0.00138429" x2="0.214077" y2="0.00688017" style="stroke:rgb(246,147,147);stroke-width:0.01" />
<line x1="0.157666" y1="-0.0570851" x2="0.258957" y2="-0.0064396" style="stroke:rgb(246,147,147);stroke-width:0.01" />
<line x1="0.173983" y1="-0.0422437" x2="0.242726" y2="0.0692143" style="stroke:rgb(246,147,147);stroke-width:0.01" />
<line x1="0.178175" y1="-0.0468305" x2="0.204239" y2="-0.00138429" style="stroke:rgb(246,147,147);stroke-width:0.01" />
<line x1="0.173983" y1="-0.0422437" x2="0.238887" y2="0.0700462" style="stroke:rgb(246,147,147);stroke-width:0.01" />
<line x1="0.257612" y1="0.0619115" x2="0.25949" y2="0.0632604" style="stroke:rgb(246,147,147);stroke-width:0.01" />
<line x1="0.217911" y1="-0.000947871" x2="0.249813" y2="0.0676789" style="stroke:rgb(246,147,147);stroke-width:0.01" />
<line x1="0.22315" y1="-0.0211394" x2="0.25949" y2="0.0632604" style="stroke:rgb(246,147,147);stroke-width:0.01" />
<line x1="0.131644" y1="-0.0169582" x2="0.224656" y2="0.0731295" style="stroke:rgb(246,147,147);stroke-width:0.01" />
<line x1="-0.103991" y1="-0.145975" x2="0.217911" y2="-0.000947871" style="stroke:rgb(246,147,147);stroke-width:0.01" />
<line x1="0.0752903" y1="-0.061446" x2="0.195005" y2="0.0795536" style="stroke:rgb(246,147,147);stroke-width:0.01" />
<line x1="-0.205858" y1="-0.0763299" x2="-0.253314" y2="0.00641527" style="stroke:rgb(246,147,147);stroke-width:0.01" />
<line x1="-0.358124" y1="-0.0843908" x2="0.157666" y2="-0.0570851" style="stroke:rgb(246,147,147);stroke-width:0.01" />
<line x1="-0.180574" y1="-0.0749913" x2="-0.296143" y2="0.14056" style="stroke:rgb(246,147,147);stroke-width:0.01" />
<line x1="0.131644" y1="-0.0169582" x2="0.160996" y2="0.086922" style="stroke:rgb(246,147,147);stroke-width:0.01" />
<line x1="-0.103991" y1="-0.145975" x2="0.0971136" y2="0.100763" style="stroke:rgb(246,147,147);stroke-width:0.01" />
<line x1="0.24823" y1="-0.0118029" x2="0.250576" y2="0.00720924" style="stroke:rgb(246,147,147);stroke-width:0.01" />
<line x1="0.138881" y1="-0.0580796" x2="0.160996" y2="0.086922" style="stroke:rgb(246,147,147);stroke-width:0.01" />
<line x1="0.257612" y1="0.0619115" x2="0.260348" y2="0.0625706" style="stroke:rgb(246,147,147);stroke-width:0.01" />
<line x1="0.22315" y1="-0.0211394" x2="-0.11016" y2="-0.017212" style="stroke:rgb(246,147,147);stroke-width:0.01" />
<line x1="-0.154177" y1="0.153739" x2="-0.154422" y2="0.15526" style="stroke:rgb(246,147,147);stroke-width:0.01" />
<line x1="0.258957" y1="-0.0064396" x2="0.260348" y2="0.0625706" style="stroke:rgb(246,147,147);stroke-width:0.01" />
<line x1="0.178175" y1="-0.0468305" x2="-0.253314" y2="0.00641527" style="stroke:rgb(246,147,147);stroke-width:0.01" />
<line x1="-0.11016" y1="-0.017212" x2="-0.108245" y2="0.145256" style="stroke:rgb(246,147,147);stroke-width:0.01" />
<line x1="-0.103991" y1="-0.145975" x2="-0.0923717" y2="0.141817" style="stroke:rgb(246,147,147);stroke-width:0.01" />
<line x1="0.250473" y1="-0.0106817" x2="0.249813" y2="0.0676789" style="stroke:rgb(246,147,147);stroke-width:0.01" />
<line x1="-0.180574" y1="-0.0749913" x2="-0.0923717" y2="0.141817" style="stroke:rgb(246,147,147);stroke-width:0.01" />
<line x1="-0.358124" y1="-0.0843908" x2="0.107196" y2="0.0985783" style="stroke:rgb(246,147,147);stroke-width:0.01" />
<line x1="0.246944" y1="-0.0124462" x2="0.238887" y2="0.0700462" style="stroke:rgb(246,147,147);stroke-width:0.01" />
<line x1="-0.205858" y1="-0.0763299" x2="-0.108245" y2="0.145256" style="stroke:rgb(246,147,147);stroke-width:0.01" />
<line x1="0.2527" y1="-0.00956787" x2="0.242726" y2="0.0692143" style="stroke:rgb(246,147,147);stroke-width:0.01" />
<line x1="0.0752903" y1="-0.061446" x2="-0.151574" y2="0.154643" style="stroke:rgb(246,147,147);stroke-width:0.01" />
<line x1="0.138881" y1="-0.0580796" x2="0.0971136" y2="0.100763" style="stroke:rgb(246,147,147);stroke-width:0.01" />
<line x1="-0.358124" y1="-0.0843908" x2="-0.296143" y2="0.14056" style="stroke:rgb(246,147,147);stroke-width:0.01" />
<line x1="0.217911" y1="-0.000947871" x2="0.195005" y2="0.0795536" style="stroke:rgb(246,147,147);stroke-width:0.01" />
<line x1="-0.253314" y1="0.00641527" x2="-0.154422" y2="0.15526" style="stroke:rgb(246,147,147);stroke-width:0.01" />
<line x1="0.173983" y1="-0.0422437" x2="-0.158036" y2="0.156043" style="stroke:rgb(246,147,147);stroke-width:0.01" />
<line x1="0.250576" y1="0.00720924" x2="0.224656" y2="0.0731295" style="stroke:rgb(246,147,147);stroke-width:0.01" />
<line x1="0.24823" y1="-0.0118029" x2="0.21261" y2="0.00862625" style="stroke:rgb(246,147,147);stroke-width:0.01" />
<line x1="0.257612" y1="0.0619115" x2="0.255538" y2="0.0664386" style="stroke:rgb(246,147,147);stroke-width:0.01" />
<line x1="0.255538" y1="0.0664386" x2="-0.158036" y2="0.156043" style="stroke:rgb(246,147,147);stroke-width:0.01" />
<line x1="0.22315" y1="-0.0211394" x2="0.107196" y2="0.0985783" style="stroke:rgb(246,147,147);stroke-width:0.01" />
<line x1="0.214077" y1="0.00688017" x2="0.21261" y2="0.00862625" style="stroke:rgb(246,147,147);stroke-width:0.01" />
<line x1="0.250473" y1="-0.0106817" x2="0.217505" y2="0.0144808" style="stroke:rgb(246,147,147);stroke-width:0.01" />
<line x1="0.246944" y1="-0.0124462" x2="0.217505" y2="0.0144808" style="stroke:rgb(246,147,147);stroke-width:0.01" />
<line x1="0.258957" y1="-0.0064396" x2="0.222143" y2="0.0200285" style="stroke:rgb(246,147,147);stroke-width:0.01" />
<line x1="0.2527" y1="-0.00956787" x2="0.222143" y2="0.0200285" style="stroke:rgb(246,147,147);stroke-width:0.01" />
<line x1="-0.154177" y1="0.153739" x2="-0.151574" y2="0.154643" style="stroke:rgb(246,147,147);stroke-width:0.01" />
<line x1="-0.296143" y1="0.14056" x2="-0.158036" y2="0.156043" style="stroke:rgb(246,147,147);stroke-width:0.01" />
<line x1="0.260348" y1="0.0625706" x2="0.255538" y2="0.0664386" style="stroke:rgb(246,147,147);stroke-width:0.01" />
</g>
</svg>
