<svg xmlns="http://www.w3.org/2000/svg" viewBox="-1.5 -1.5 3 3">
<g transform="scale(1, -1)">
<path d="M-0.023900 -0.136678 L0.164830 -0.051649 L0.237757 -0.047788 L0.339048 0.002857 L0.340438 0.071867 L0.335628 0.075735 L-0.077945 0.165340 L-0.216052 0.149857 L-0.278033 -0.075094 L-0.020864 -0.061480 z " fill="rgb(245,195,195)" />
<path d="M0.000000 0.000000 L1.000000 0.000000 L1.000000 1.000000 L0.000000 1.000000  z" fill="none" stroke="rgb(128,128,128)" stroke-width="0.01" />
<line x1="0.237757" y1="-0.0477884" x2="0.302234" y2="0.0293252" style="stroke:rgb(246,147,147);stroke-width:0.01" />
<line x1="0.28433" y1="0.00791245" x2="0.294167" y2="0.0161769" style="stroke:rgb(246,147,147);stroke-width:0.01" />
<line x1="0.237757" y1="-0.0477884" x2="0.339048" y2="0.00285713" style="stroke:rgb(246,147,147);stroke-width:0.01" />
<line x1="0.254074" y1="-0.032947" x2="0.322817" y2="0.0785111" style="stroke:rgb(246,147,147);stroke-width:0.01" />
<line x1="0.258266" y1="-0.0375338" x2="0.28433" y2="0.00791245" style="stroke:rgb(246,147,147);stroke-width:0.01" />
<line x1="0.254074" y1="-0.032947" x2="0.318977" y2="0.079343" style="stroke:rgb(246,147,147);stroke-width:0.01" />
<line x1="0.337702" y1="0.0712083" x2="0.339581" y2="0.0725571" style="stroke:rgb(246,147,147);stroke-width:0.01" />
<line x1="0.298002" y1="0.00834887" x2="0.329904" y2="0.0769757" style="stroke:rgb(246,147,147);stroke-width:0.01" />
<line x1="0.303241" y1="-0.0118426" x2="0.339581" y2="0.0725571" style="stroke:rgb(246,147,147);stroke-width:0.01" />
<line x1="0.211735" y1="-0.0076615" x2="0.304746" y2="0.0824263" style="stroke:rgb(246,147,147);stroke-width:0.01" />
<line x1="-0.0239002" y1="-0.136678" x2="0.298002" y2="0.00834887" style="stroke:rgb(246,147,147);stroke-width:0.01" />
<line x1="0.155381" y1="-0.0521493" x2="0.275096" y2="0.0888503" style="stroke:rgb(246,147,147);stroke-width:0.01" />
<line x1="-0.125767" y1="-0.0670332" x2="-0.173223" y2="0.015712" style="stroke:rgb(246,147,147);stroke-width:0.01" />
<line x1="-0.278033" y1="-0.075094" x2="0.237757" y2="-0.0477884" style="stroke:rgb(246,147,147);stroke-width:0.01" />
<line x1="-0.100483" y1="-0.0656946" x2="-0.216052" y2="0.149857" style="stroke:rgb(246,147,147);stroke-width:0.01" />
<line x1="0.211735" y1="-0.0076615" x2="0.241087" y2="0.0962187" style="stroke:rgb(246,147,147);stroke-width:0.01" />
<line x1="-0.0239002" y1="-0.136678" x2="0.177204" y2="0.110059" style="stroke:rgb(246,147,147);stroke-width:0.01" />
<line x1="0.328321" y1="-0.00250618" x2="0.330667" y2="0.016506" style="stroke:rgb(246,147,147);stroke-width:0.01" />
<line x1="0.218972" y1="-0.0487828" x2="0.241087" y2="0.0962187" style="stroke:rgb(246,147,147);stroke-width:0.01" />
<line x1="0.337702" y1="0.0712083" x2="0.340438" y2="0.0718674" style="stroke:rgb(246,147,147);stroke-width:0.01" />
<line x1="0.303241" y1="-0.0118426" x2="-0.030069" y2="-0.00791529" style="stroke:rgb(246,147,147);stroke-width:0.01" />
<line x1="-0.0740866" y1="0.163036" x2="-0.0743317" y2="0.164557" style="stroke:rgb(246,147,147);stroke-width:0.01" />
<line x1="0.339048" y1="0.00285713" x2="0.340438" y2="0.0718674" style="stroke:rgb(246,147,147);stroke-width:0.01" />
<line x1="0.258266" y1="-0.0375338" x2="-0.173223" y2="0.015712" style="stroke:rgb(246,147,147);stroke-width:0.01" />
<line x1="-0.030069" y1="-0.00791529" x2="-0.0281547" y2="0.154552" style="stroke:rgb(246,147,147);stroke-width:0.01" />
<line x1="-0.0239002" y1="-0.136678" x2="-0.012281" y2="0.151113" style="stroke:rgb(246,147,147);stroke-width:0.01" />
<line x1="0.330563" y1="-0.00138492" x2="0.329904" y2="0.0769757" style="stroke:rgb(246,147,147);stroke-width:0.01" />
<line x1="-0.100483" y1="-0.0656946" x2="-0.012281" y2="0.151113" style="stroke:rgb(246,147,147);stroke-width:0.01" />
<line x1="-0.278033" y1="-0.075094" x2="0.187287" y2="0.107875" style="stroke:rgb(246,147,147);stroke-width:0.01" />
<line x1="0.327034" y1="-0.00314945" x2="0.318977" y2="0.079343" style="stroke:rgb(246,147,147);stroke-width:0.01" />
<line x1="-0.125767" y1="-0.0670332" x2="-0.0281547" y2="0.154552" style="stroke:rgb(246,147,147);stroke-width:0.01" />
<line x1="0.332791" y1="-0.000271136" x2="0.322817" y2="0.0785111" style="stroke:rgb(246,147,147);stroke-width:0.01" />
<line x1="0.155381" y1="-0.0521493" x2="-0.0714834" y2="0.16394" style="stroke:rgb(246,147,147);stroke-width:0.01" />
<line x1="0.218972" y1="-0.0487828" x2="0.177204" y2="0.110059" style="stroke:rgb(246,147,147);stroke-width:0.01" />
<line x1="-0.278033" y1="-0.075094" x2="-0.216052" y2="0.149857" style="stroke:rgb(246,147,147);stroke-width:0.01" />
<line x1="0.298002" y1="0.00834887" x2="0.275096" y2="0.0888503" style="stroke:rgb(246,147,147);stroke-width:0.01" />
<line x1="-0.173223" y1="0.015712" x2="-0.0743317" y2="0.164557" style="stroke:rgb(246,147,147);stroke-width:0.01" />
<line x1="0.254074" y1="-0.032947" x2="-0.0779451" y2="0.16534" style="stroke:rgb(246,147,147);stroke-width:0.01" />
<line x1="0.330667" y1="0.016506" x2="0.304746" y2="0.0824263" style="stroke:rgb(246,147,147);stroke-width:0.01" />
<line x1="0.328321" y1="-0.00250618" x2="0.2927" y2="0.017923" style="stroke:rgb(246,147,147);stroke-width:0.01" />
<line x1="0.337702" y1="0.0712083" x2="0.335628" y2="0.0757354" style="stroke:rgb(246,147,147);stroke-width:0.01" />
<line x1="0.335628" y1="0.0757354" x2="-0.0779451" y2="0.16534" style="stroke:rgb(246,147,147);stroke-width:0.01" />
<line x1="0.303241" y1="-0.0118426" x2="0.187287" y2="0.107875" style="stroke:rgb(246,147,147);stroke-width:0.01" />
<line x1="0.294167" y1="0.0161769" x2="0.2927" y2="0.017923" style="stroke:rgb(246,147,147);stroke-width:0.01" />
<line x1="0.330563" y1="-0.00138492" x2="0.297596" y2="0.0237775" style="stroke:rgb(246,147,147);stroke-width:0.01" />
<line x1="0.327034" y1="-0.00314945" x2="0.297596" y2="0.0237775" style="stroke:rgb(246,147,147);stroke-width:0.01" />
<line x1="0.339048" y1="0.00285713" x2="0.302234" y2="0.0293252" style="stroke:rgb(246,147,147);stroke-width:0.01" />
<line x1="0.332791" y1="-0.000271136" x2="0.302234" y2="0.0293252" style="stroke:rgb(246,147,147);stroke-width:0.01" />
<line x1="-0.0740866" y1="0.163036" x2="-0.0714834" y2="0.16394" style="stroke:rgb(246,147,147);stroke-width:0.01" />
<line x1="-0.216052" y1="0.149857" x2="-0.0779451" y2="0.16534" style="stroke:rgb(246,147,147);stroke-width:0.01" />
<line x1="0.340438" y1="0.0718674" x2="0.335628" y2="0.0757354" style="stroke:rgb(246,147,147);stroke-width:0.01" />
</g>
</svg>
