<svg xmlns="http://www.w3.org/2000/svg" viewBox="-1.5 -1.5 3 3">
<g transform="scale(1, -1)">
<path d="M0.002233 -0.204716 L0.115933 -0.058054 L0.128656 -0.057853 L0.147384 0.149654 L0.072856 0.173194 L0.062007 0.138845 L-0.140097 0.113259 L-0.126030 -0.046238 L-0.138588 -0.047827 L-0.124353 -0.160263 z " fill="rgb(245,195,195)" />
<path d="M-0.967135 -6.469446 L0.032865 -6.469446 L0.032865 -5.469446 L-0.967135 -5.469446  z" fill="none" stroke="rgb(128,128,128)" stroke-width="0.01" />
<line x1="0.128656" y1="-0.0578531" x2="0.147384" y2="0.149654" style="stroke:rgb(246,147,147);stroke-width:0.01" />
<line x1="0.00223255" y1="-0.204716" x2="0.00494202" y2="-0.0350323" style="stroke:rgb(246,147,147);stroke-width:0.01" />
<line x1="0.00373781" y1="-0.110447" x2="0.04304" y2="0.136444" style="stroke:rgb(246,147,147);stroke-width:0.01" />
<line x1="-0.112845" y1="-0.164304" x2="-0.0671913" y2="0.122489" style="stroke:rgb(246,147,147);stroke-width:0.01" />
<line x1="-0.115704" y1="-0.1633" x2="-0.140097" y2="0.113259" style="stroke:rgb(246,147,147);stroke-width:0.01" />
<line x1="-0.133767" y1="0.0414853" x2="-0.115947" y2="0.116316" style="stroke:rgb(246,147,147);stroke-width:0.01" />
<line x1="-0.124353" y1="-0.160263" x2="-0.138588" y2="-0.0478274" style="stroke:rgb(246,147,147);stroke-width:0.01" />
<line x1="0.00223255" y1="-0.204716" x2="-0.0228871" y2="-0.0063001" style="stroke:rgb(246,147,147);stroke-width:0.01" />
<line x1="0.141017" y1="0.0791093" x2="0.132327" y2="0.147748" style="stroke:rgb(246,147,147);stroke-width:0.01" />
<line x1="0.0976008" y1="-0.058344" x2="0.141017" y2="0.0791093" style="stroke:rgb(246,147,147);stroke-width:0.01" />
<line x1="0.0460834" y1="0.088433" x2="0.0728561" y2="0.173194" style="stroke:rgb(246,147,147);stroke-width:0.01" />
<line x1="-0.113158" y1="-0.0496478" x2="-0.140097" y2="0.113259" style="stroke:rgb(246,147,147);stroke-width:0.01" />
<line x1="0.0976008" y1="-0.058344" x2="0.0460834" y2="0.088433" style="stroke:rgb(246,147,147);stroke-width:0.01" />
<line x1="0.0735226" y1="0.131036" x2="0.066163" y2="0.152004" style="stroke:rgb(246,147,147);stroke-width:0.01" />
<line x1="0.13672" y1="0.0315003" x2="0.0887489" y2="0.168174" style="stroke:rgb(246,147,147);stroke-width:0.01" />
<line x1="0.00223255" y1="-0.204716" x2="0.13672" y2="0.0315003" style="stroke:rgb(246,147,147);stroke-width:0.01" />
<line x1="-0.112845" y1="-0.164304" x2="-0.0228871" y2="-0.0063001" style="stroke:rgb(246,147,147);stroke-width:0.01" />
<line x1="5.27135e-05" y1="-0.0323431" x2="0.110094" y2="0.144933" style="stroke:rgb(246,147,147);stroke-width:0.01" />
<line x1="5.27135e-05" y1="-0.0323431" x2="-0.0671913" y2="0.122489" style="stroke:rgb(246,147,147);stroke-width:0.01" />
<line x1="0.123354" y1="-0.0484816" x2="0.04304" y2="0.136444" style="stroke:rgb(246,147,147);stroke-width:0.01" />
<line x1="0.00373781" y1="-0.110447" x2="-0.115947" y2="0.116316" style="stroke:rgb(246,147,147);stroke-width:0.01" />
<line x1="0.130312" y1="-0.0395065" x2="0.0527766" y2="0.109623" style="stroke:rgb(246,147,147);stroke-width:0.01" />
<line x1="0.00223255" y1="-0.204716" x2="0.130312" y2="-0.0395065" style="stroke:rgb(246,147,147);stroke-width:0.01" />
<line x1="-0.115704" y1="-0.1633" x2="0.00490637" y2="-0.037265" style="stroke:rgb(246,147,147);stroke-width:0.01" />
<line x1="-0.113158" y1="-0.0496478" x2="0.0679416" y2="0.139596" style="stroke:rgb(246,147,147);stroke-width:0.01" />
<line x1="-0.124353" y1="-0.160263" x2="0.00494202" y2="-0.0350323" style="stroke:rgb(246,147,147);stroke-width:0.01" />
<line x1="0.00490637" y1="-0.037265" x2="-0.0228871" y2="-0.0063001" style="stroke:rgb(246,147,147);stroke-width:0.01" />
<line x1="0.00494202" y1="-0.0350323" x2="-0.0228871" y2="-0.0063001" style="stroke:rgb(246,147,147);stroke-width:0.01" />
<line x1="0.0460834" y1="0.088433" x2="0.136427" y2="0.153115" style="stroke:rgb(246,147,147);stroke-width:0.01" />
<line x1="0.066163" y1="0.152004" x2="0.0887489" y2="0.168174" style="stroke:rgb(246,147,147);stroke-width:0.01" />
<line x1="0.144027" y1="0.112461" x2="0.110094" y2="0.144933" style="stroke:rgb(246,147,147);stroke-width:0.01" />
<line x1="0.0749916" y1="0.0668954" x2="0.144027" y2="0.112461" style="stroke:rgb(246,147,147);stroke-width:0.01" />
<line x1="0.0527766" y1="0.109623" x2="0.136427" y2="0.153115" style="stroke:rgb(246,147,147);stroke-width:0.01" />
<line x1="0.14231" y1="0.0934335" x2="0.0679416" y2="0.139596" style="stroke:rgb(246,147,147);stroke-width:0.01" />
<line x1="0.0749916" y1="0.0668954" x2="0.14231" y2="0.0934335" style="stroke:rgb(246,147,147);stroke-width:0.01" />
<line x1="0.00373781" y1="-0.110447" x2="-0.113158" y2="-0.0496478" style="stroke:rgb(246,147,147);stroke-width:0.01" />
<line x1="0.0735226" y1="0.131036" x2="0.136427" y2="0.153115" style="stroke:rgb(246,147,147);stroke-width:0.01" />
<line x1="0.00223255" y1="-0.204716" x2="-0.124353" y2="-0.160263" style="stroke:rgb(246,147,147);stroke-width:0.01" />
<line x1="0.13266" y1="-0.0134873" x2="0.113664" y2="-0.00748729" style="stroke:rgb(246,147,147);stroke-width:0.01" />
<line x1="-0.138588" y1="-0.0478274" x2="0.13266" y2="-0.0134873" style="stroke:rgb(246,147,147);stroke-width:0.01" />
<line x1="0.147384" y1="0.149654" x2="0.0728561" y2="0.173194" style="stroke:rgb(246,147,147);stroke-width:0.01" />
<line x1="0.109433" y1="-0.0164278" x2="-0.133767" y2="0.0414853" style="stroke:rgb(246,147,147);stroke-width:0.01" />
<line x1="-0.140097" y1="0.113259" x2="0.147384" y2="0.149654" style="stroke:rgb(246,147,147);stroke-width:0.01" />
<line x1="0.128656" y1="-0.0578531" x2="5.27135e-05" y2="-0.0323431" style="stroke:rgb(246,147,147);stroke-width:0.01" />
<line x1="0.0976008" y1="-0.058344" x2="0.128656" y2="-0.0578531" style="stroke:rgb(246,147,147);stroke-width:0.01" />
<line x1="0.123354" y1="-0.0484816" x2="-0.0890258" y2="-0.0146733" style="stroke:rgb(246,147,147);stroke-width:0.01" />
</g>
</svg>
