<svg xmlns="http://www.w3.org/2000/svg" viewBox="-1.5 -1.5 3 3">
<g transform="scale(1, -1)">
<path d="M5.987000 0.612696 L6.566154 0.751373 L6.574006 0.757900 L6.574122 0.760058 L6.178830 0.947877 L5.952698 1.001733 L5.891544 0.903221 L5.906687 0.885004 L5.890817 0.852043 z " fill="rgb(245,195,195)" />
<path d="M0.000000 0.000000 L1.000000 0.000000 L1.000000 1.000000 L0.000000 1.000000  z" fill="none" stroke="rgb(128,128,128)" stroke-width="0.01" />
<line x1="6.52047" y1="0.753435" x2="6.541" y2="0.775795" style="stroke:rgb(246,147,147);stroke-width:0.01" />
<line x1="6.51377" y1="0.738831" x2="6.5392" y2="0.763392" style="stroke:rgb(246,147,147);stroke-width:0.01" />
<line x1="6.564" y1="0.750857" x2="6.57412" y2="0.760058" style="stroke:rgb(246,147,147);stroke-width:0.01" />
<line x1="6.31855" y1="0.692084" x2="6.43965" y2="0.823951" style="stroke:rgb(246,147,147);stroke-width:0.01" />
<line x1="6.56615" y1="0.751373" x2="6.57401" y2="0.7579" style="stroke:rgb(246,147,147);stroke-width:0.01" />
<line x1="6.21923" y1="0.916952" x2="6.22581" y2="0.925553" style="stroke:rgb(246,147,147);stroke-width:0.01" />
<line x1="6.18977" y1="0.939503" x2="6.1918" y2="0.941713" style="stroke:rgb(246,147,147);stroke-width:0.01" />
<line x1="6.49905" y1="0.735307" x2="6.51632" y2="0.766616" style="stroke:rgb(246,147,147);stroke-width:0.01" />
<line x1="6.18977" y1="0.939503" x2="6.19131" y2="0.941947" style="stroke:rgb(246,147,147);stroke-width:0.01" />
<line x1="6.52841" y1="0.742336" x2="6.5392" y2="0.763392" style="stroke:rgb(246,147,147);stroke-width:0.01" />
<line x1="6.14203" y1="0.699649" x2="6.19357" y2="0.79017" style="stroke:rgb(246,147,147);stroke-width:0.01" />
<line x1="5.97955" y1="0.697227" x2="6.12902" y2="0.95974" style="stroke:rgb(246,147,147);stroke-width:0.01" />
<line x1="5.89154" y1="0.903221" x2="5.9527" y2="1.00173" style="stroke:rgb(246,147,147);stroke-width:0.01" />
<line x1="6.46667" y1="0.727551" x2="6.48787" y2="0.771729" style="stroke:rgb(246,147,147);stroke-width:0.01" />
<line x1="5.89082" y1="0.852043" x2="5.92797" y2="0.929207" style="stroke:rgb(246,147,147);stroke-width:0.01" />
<line x1="6.53063" y1="0.742868" x2="6.53643" y2="0.758416" style="stroke:rgb(246,147,147);stroke-width:0.01" />
<line x1="6.157" y1="0.84" x2="6.19131" y2="0.941947" style="stroke:rgb(246,147,147);stroke-width:0.01" />
<line x1="6.06579" y1="0.631561" x2="6.17273" y2="0.949328" style="stroke:rgb(246,147,147);stroke-width:0.01" />
<line x1="6.42975" y1="0.755809" x2="6.50999" y2="0.79053" style="stroke:rgb(246,147,147);stroke-width:0.01" />
<line x1="6.0407" y1="0.723782" x2="6.19357" y2="0.79017" style="stroke:rgb(246,147,147);stroke-width:0.01" />
<line x1="6.16124" y1="0.654417" x2="6.22581" y2="0.925553" style="stroke:rgb(246,147,147);stroke-width:0.01" />
<line x1="6.03938" y1="0.625239" x2="6.0925" y2="0.859003" style="stroke:rgb(246,147,147);stroke-width:0.01" />
<line x1="6.53375" y1="0.743615" x2="6.53643" y2="0.758416" style="stroke:rgb(246,147,147);stroke-width:0.01" />
<line x1="6.5392" y1="0.763392" x2="6.541" y2="0.775795" style="stroke:rgb(246,147,147);stroke-width:0.01" />
<line x1="6.42975" y1="0.755809" x2="6.43965" y2="0.823951" style="stroke:rgb(246,147,147);stroke-width:0.01" />
<line x1="6.17994" y1="0.859333" x2="6.1918" y2="0.941713" style="stroke:rgb(246,147,147);stroke-width:0.01" />
<line x1="6.157" y1="0.84" x2="6.17273" y2="0.949328" style="stroke:rgb(246,147,147);stroke-width:0.01" />
<line x1="5.987" y1="0.612696" x2="6.56615" y2="0.751373" style="stroke:rgb(246,147,147);stroke-width:0.01" />
<line x1="6.57401" y1="0.7579" x2="6.57412" y2="0.760058" style="stroke:rgb(246,147,147);stroke-width:0.01" />
<line x1="5.92316" y1="0.771557" x2="5.92797" y2="0.929207" style="stroke:rgb(246,147,147);stroke-width:0.01" />
<line x1="6.14203" y1="0.699649" x2="6.12902" y2="0.95974" style="stroke:rgb(246,147,147);stroke-width:0.01" />
<line x1="5.987" y1="0.612696" x2="5.9527" y2="1.00173" style="stroke:rgb(246,147,147);stroke-width:0.01" />
<line x1="6.57003" y1="0.762" x2="6.51632" y2="0.766616" style="stroke:rgb(246,147,147);stroke-width:0.01" />
<line x1="6.44569" y1="0.82108" x2="6.17994" y2="0.859333" style="stroke:rgb(246,147,147);stroke-width:0.01" />
<line x1="6.52047" y1="0.753435" x2="6.50999" y2="0.79053" style="stroke:rgb(246,147,147);stroke-width:0.01" />
<line x1="6.1704" y1="0.692891" x2="6.0407" y2="0.723782" style="stroke:rgb(246,147,147);stroke-width:0.01" />
<line x1="6.56615" y1="0.751373" x2="6.0925" y2="0.859003" style="stroke:rgb(246,147,147);stroke-width:0.01" />
<line x1="5.987" y1="0.612696" x2="5.89082" y2="0.852043" style="stroke:rgb(246,147,147);stroke-width:0.01" />
<line x1="6.52047" y1="0.753435" x2="5.89154" y2="0.903221" style="stroke:rgb(246,147,147);stroke-width:0.01" />
<line x1="6.17883" y1="0.947877" x2="5.9527" y2="1.00173" style="stroke:rgb(246,147,147);stroke-width:0.01" />
<line x1="6.564" y1="0.750857" x2="6.48787" y2="0.771729" style="stroke:rgb(246,147,147);stroke-width:0.01" />
<line x1="6.51377" y1="0.738831" x2="6.47744" y2="0.749994" style="stroke:rgb(246,147,147);stroke-width:0.01" />
<line x1="6.31855" y1="0.692084" x2="5.89082" y2="0.852043" style="stroke:rgb(246,147,147);stroke-width:0.01" />
<line x1="6.57412" y1="0.760058" x2="6.17883" y2="0.947877" style="stroke:rgb(246,147,147);stroke-width:0.01" />
<line x1="6.03938" y1="0.625239" x2="5.97955" y2="0.697227" style="stroke:rgb(246,147,147);stroke-width:0.01" />
<line x1="6.0407" y1="0.723782" x2="5.89154" y2="0.903221" style="stroke:rgb(246,147,147);stroke-width:0.01" />
<line x1="6.16124" y1="0.654417" x2="5.92797" y2="0.929207" style="stroke:rgb(246,147,147);stroke-width:0.01" />
<line x1="6.06579" y1="0.631561" x2="5.92316" y2="0.771557" style="stroke:rgb(246,147,147);stroke-width:0.01" />
<line x1="6.53375" y1="0.743615" x2="6.51632" y2="0.766616" style="stroke:rgb(246,147,147);stroke-width:0.01" />
<line x1="6.49905" y1="0.735307" x2="6.47744" y2="0.749994" style="stroke:rgb(246,147,147);stroke-width:0.01" />
<line x1="6.46667" y1="0.727551" x2="6.17883" y2="0.947877" style="stroke:rgb(246,147,147);stroke-width:0.01" />
<line x1="6.52841" y1="0.742336" x2="6.48787" y2="0.771729" style="stroke:rgb(246,147,147);stroke-width:0.01" />
<line x1="6.57401" y1="0.7579" x2="6.57003" y2="0.762" style="stroke:rgb(246,147,147);stroke-width:0.01" />
<line x1="6.53063" y1="0.742868" x2="6.44569" y2="0.82108" style="stroke:rgb(246,147,147);stroke-width:0.01" />
</g>
</svg>
