<svg xmlns="http://www.w3.org/2000/svg" viewBox="-1.5 -1.5 3 3">
<g transform="scale(1, -1)">
<path d="M-0.182096 -0.217516 L0.397059 -0.078838 L0.404910 -0.072312 L0.405027 -0.070154 L0.009734 0.117665 L-0.216397 0.171521 L-0.277551 0.073009 L-0.262409 0.054792 L-0.278278 0.021832 z " fill="rgb(245,195,195)" />
<path d="M-6.169095 -0.830211 L-5.169095 -0.830211 L-5.169095 0.169789 L-6.169095 0.169789  z" fill="none" stroke="rgb(128,128,128)" stroke-width="0.01" />
<line x1="0.35137" y1="-0.0767768" x2="0.371905" y2="-0.0544165" style="stroke:rgb(246,147,147);stroke-width:0.01" />
<line x1="0.344678" y1="-0.0913805" x2="0.370104" y2="-0.066819" style="stroke:rgb(246,147,147);stroke-width:0.01" />
<line x1="0.394903" y1="-0.0793544" x2="0.405027" y2="-0.0701539" style="stroke:rgb(246,147,147);stroke-width:0.01" />
<line x1="0.14945" y1="-0.138128" x2="0.270554" y2="-0.00626065" style="stroke:rgb(246,147,147);stroke-width:0.01" />
<line x1="0.397059" y1="-0.078838" x2="0.40491" y2="-0.0723118" style="stroke:rgb(246,147,147);stroke-width:0.01" />
<line x1="0.0501346" y1="0.0867407" x2="0.0567179" y2="0.0953413" style="stroke:rgb(246,147,147);stroke-width:0.01" />
<line x1="0.0206733" y1="0.109292" x2="0.0227075" y2="0.111501" style="stroke:rgb(246,147,147);stroke-width:0.01" />
<line x1="0.329959" y1="-0.0949049" x2="0.347225" y2="-0.0635957" style="stroke:rgb(246,147,147);stroke-width:0.01" />
<line x1="0.0206733" y1="0.109292" x2="0.0222138" y2="0.111736" style="stroke:rgb(246,147,147);stroke-width:0.01" />
<line x1="0.359316" y1="-0.0878756" x2="0.370104" y2="-0.066819" style="stroke:rgb(246,147,147);stroke-width:0.01" />
<line x1="-0.0270667" y1="-0.130563" x2="0.0244747" y2="-0.0400411" style="stroke:rgb(246,147,147);stroke-width:0.01" />
<line x1="-0.189549" y1="-0.132984" x2="-0.0400785" y2="0.129529" style="stroke:rgb(246,147,147);stroke-width:0.01" />
<line x1="-0.277551" y1="0.0730094" x2="-0.216397" y2="0.171521" style="stroke:rgb(246,147,147);stroke-width:0.01" />
<line x1="0.297572" y1="-0.10266" x2="0.318772" y2="-0.0584829" style="stroke:rgb(246,147,147);stroke-width:0.01" />
<line x1="-0.278278" y1="0.0218315" x2="-0.241126" y2="0.0989956" style="stroke:rgb(246,147,147);stroke-width:0.01" />
<line x1="0.361539" y1="-0.0873432" x2="0.367331" y2="-0.0717955" style="stroke:rgb(246,147,147);stroke-width:0.01" />
<line x1="-0.0120979" y1="0.00978803" x2="0.0222138" y2="0.111736" style="stroke:rgb(246,147,147);stroke-width:0.01" />
<line x1="-0.10331" y1="-0.19865" x2="0.00363921" y2="0.119117" style="stroke:rgb(246,147,147);stroke-width:0.01" />
<line x1="0.260656" y1="-0.074403" x2="0.340893" y2="-0.0396813" style="stroke:rgb(246,147,147);stroke-width:0.01" />
<line x1="-0.128399" y1="-0.106429" x2="0.0244747" y2="-0.0400411" style="stroke:rgb(246,147,147);stroke-width:0.01" />
<line x1="-0.00785681" y1="-0.175794" x2="0.0567179" y2="0.0953413" style="stroke:rgb(246,147,147);stroke-width:0.01" />
<line x1="-0.129711" y1="-0.204972" x2="-0.0765918" y2="0.0287919" style="stroke:rgb(246,147,147);stroke-width:0.01" />
<line x1="0.364659" y1="-0.086596" x2="0.367331" y2="-0.0717955" style="stroke:rgb(246,147,147);stroke-width:0.01" />
<line x1="0.370104" y1="-0.066819" x2="0.371905" y2="-0.0544165" style="stroke:rgb(246,147,147);stroke-width:0.01" />
<line x1="0.260656" y1="-0.074403" x2="0.270554" y2="-0.00626065" style="stroke:rgb(246,147,147);stroke-width:0.01" />
<line x1="0.0108494" y1="0.0291212" x2="0.0227075" y2="0.111501" style="stroke:rgb(246,147,147);stroke-width:0.01" />
<line x1="-0.0120979" y1="0.00978803" x2="0.00363921" y2="0.119117" style="stroke:rgb(246,147,147);stroke-width:0.01" />
<line x1="-0.182096" y1="-0.217516" x2="0.397059" y2="-0.078838" style="stroke:rgb(246,147,147);stroke-width:0.01" />
<line x1="0.40491" y1="-0.0723118" x2="0.405027" y2="-0.0701539" style="stroke:rgb(246,147,147);stroke-width:0.01" />
<line x1="-0.245935" y1="-0.0586547" x2="-0.241126" y2="0.0989956" style="stroke:rgb(246,147,147);stroke-width:0.01" />
<line x1="-0.0270667" y1="-0.130563" x2="-0.0400785" y2="0.129529" style="stroke:rgb(246,147,147);stroke-width:0.01" />
<line x1="-0.182096" y1="-0.217516" x2="-0.216397" y2="0.171521" style="stroke:rgb(246,147,147);stroke-width:0.01" />
<line x1="0.400939" y1="-0.0682118" x2="0.347225" y2="-0.0635957" style="stroke:rgb(246,147,147);stroke-width:0.01" />
<line x1="0.276596" y1="-0.00913118" x2="0.0108494" y2="0.0291212" style="stroke:rgb(246,147,147);stroke-width:0.01" />
<line x1="0.35137" y1="-0.0767768" x2="0.340893" y2="-0.0396813" style="stroke:rgb(246,147,147);stroke-width:0.01" />
<line x1="0.00130636" y1="-0.13732" x2="-0.128399" y2="-0.106429" style="stroke:rgb(246,147,147);stroke-width:0.01" />
<line x1="0.397059" y1="-0.078838" x2="-0.0765918" y2="0.0287919" style="stroke:rgb(246,147,147);stroke-width:0.01" />
<line x1="-0.182096" y1="-0.217516" x2="-0.278278" y2="0.0218315" style="stroke:rgb(246,147,147);stroke-width:0.01" />
<line x1="0.35137" y1="-0.0767768" x2="-0.277551" y2="0.0730094" style="stroke:rgb(246,147,147);stroke-width:0.01" />
<line x1="0.00973439" y1="0.117665" x2="-0.216397" y2="0.171521" style="stroke:rgb(246,147,147);stroke-width:0.01" />
<line x1="0.394903" y1="-0.0793544" x2="0.318772" y2="-0.0584829" style="stroke:rgb(246,147,147);stroke-width:0.01" />
<line x1="0.344678" y1="-0.0913805" x2="0.308342" y2="-0.0802172" style="stroke:rgb(246,147,147);stroke-width:0.01" />
<line x1="0.14945" y1="-0.138128" x2="-0.278278" y2="0.0218315" style="stroke:rgb(246,147,147);stroke-width:0.01" />
<line x1="0.405027" y1="-0.0701539" x2="0.00973439" y2="0.117665" style="stroke:rgb(246,147,147);stroke-width:0.01" />
<line x1="-0.129711" y1="-0.204972" x2="-0.189549" y2="-0.132984" style="stroke:rgb(246,147,147);stroke-width:0.01" />
<line x1="-0.128399" y1="-0.106429" x2="-0.277551" y2="0.0730094" style="stroke:rgb(246,147,147);stroke-width:0.01" />
<line x1="-0.00785681" y1="-0.175794" x2="-0.241126" y2="0.0989956" style="stroke:rgb(246,147,147);stroke-width:0.01" />
<line x1="-0.10331" y1="-0.19865" x2="-0.245935" y2="-0.0586547" style="stroke:rgb(246,147,147);stroke-width:0.01" />
<line x1="0.364659" y1="-0.086596" x2="0.347225" y2="-0.0635957" style="stroke:rgb(246,147,147);stroke-width:0.01" />
<line x1="0.329959" y1="-0.0949049" x2="0.308342" y2="-0.0802172" style="stroke:rgb(246,147,147);stroke-width:0.01" />
<line x1="0.297572" y1="-0.10266" x2="0.00973439" y2="0.117665" style="stroke:rgb(246,147,147);stroke-width:0.01" />
<line x1="0.359316" y1="-0.0878756" x2="0.318772" y2="-0.0584829" style="stroke:rgb(246,147,147);stroke-width:0.01" />
<line x1="0.40491" y1="-0.0723118" x2="0.400939" y2="-0.0682118" style="stroke:rgb(246,147,147);stroke-width:0.01" />
<line x1="0.361539" y1="-0.0873432" x2="0.276596" y2="-0.00913118" style="stroke:rgb(246,147,147);stroke-width:0.01" />
</g>
</svg>
