<svg xmlns="http://www.w3.org/2000/svg" viewBox="-1.5 -1.5 3 3">
<g transform="scale(1, -1)">
<path d="M-4.777187 3.078600 L-4.564756 3.204117 L-4.619849 3.310415 L-4.694833 3.362232 L-5.223409 3.476764 L-5.235951 3.487359 L-5.241973 3.480787 L-5.401495 3.515352 L-5.457159 3.399859 L-5.467718 3.402784 L-5.483902 3.344373 z " fill="rgb(245,195,195)" />
<path d="M0.000000 0.000000 L1.000000 0.000000 L1.000000 1.000000 L0.000000 1.000000  z" fill="none" stroke="rgb(128,128,128)" stroke-width="0.01" />
<line x1="-4.90939" y1="3.12832" x2="-4.97388" y2="3.26595" style="stroke:rgb(246,147,147);stroke-width:0.01" />
<line x1="-4.56476" y1="3.20412" x2="-4.61985" y2="3.31041" style="stroke:rgb(246,147,147);stroke-width:0.01" />
<line x1="-4.66467" y1="3.31567" x2="-4.69483" y2="3.36223" style="stroke:rgb(246,147,147);stroke-width:0.01" />
<line x1="-4.56476" y1="3.20412" x2="-4.64193" y2="3.31959" style="stroke:rgb(246,147,147);stroke-width:0.01" />
<line x1="-4.77719" y1="3.0786" x2="-4.78683" y2="3.10794" style="stroke:rgb(246,147,147);stroke-width:0.01" />
<line x1="-5.35425" y1="3.29561" x2="-5.37372" y2="3.38047" style="stroke:rgb(246,147,147);stroke-width:0.01" />
<line x1="-4.91889" y1="3.13189" x2="-4.93843" y2="3.23601" style="stroke:rgb(246,147,147);stroke-width:0.01" />
<line x1="-5.20846" y1="3.24079" x2="-5.37372" y2="3.38047" style="stroke:rgb(246,147,147);stroke-width:0.01" />
<line x1="-4.78683" y1="3.10794" x2="-5.23595" y2="3.48736" style="stroke:rgb(246,147,147);stroke-width:0.01" />
<line x1="-5.39694" y1="3.31167" x2="-5.40149" y2="3.51535" style="stroke:rgb(246,147,147);stroke-width:0.01" />
<line x1="-4.90732" y1="3.12754" x2="-4.90735" y2="3.12921" style="stroke:rgb(246,147,147);stroke-width:0.01" />
<line x1="-4.90106" y1="3.12518" x2="-4.90735" y2="3.12921" style="stroke:rgb(246,147,147);stroke-width:0.01" />
<line x1="-5.00811" y1="3.16544" x2="-5.20856" y2="3.28947" style="stroke:rgb(246,147,147);stroke-width:0.01" />
<line x1="-4.61985" y1="3.31041" x2="-4.69483" y2="3.36223" style="stroke:rgb(246,147,147);stroke-width:0.01" />
<line x1="-4.90284" y1="3.12585" x2="-4.89156" y2="3.33317" style="stroke:rgb(246,147,147);stroke-width:0.01" />
<line x1="-5.37814" y1="3.3046" x2="-5.37372" y2="3.38047" style="stroke:rgb(246,147,147);stroke-width:0.01" />
<line x1="-5.23298" y1="3.25001" x2="-5.19613" y2="3.47085" style="stroke:rgb(246,147,147);stroke-width:0.01" />
<line x1="-4.77719" y1="3.0786" x2="-5.4839" y2="3.34437" style="stroke:rgb(246,147,147);stroke-width:0.01" />
<line x1="-5.25319" y1="3.25761" x2="-5.19613" y2="3.47085" style="stroke:rgb(246,147,147);stroke-width:0.01" />
<line x1="-4.66467" y1="3.31567" x2="-4.65803" y2="3.3368" style="stroke:rgb(246,147,147);stroke-width:0.01" />
<line x1="-5.4839" y1="3.34437" x2="-5.46772" y2="3.40278" style="stroke:rgb(246,147,147);stroke-width:0.01" />
<line x1="-4.97388" y1="3.26595" x2="-5.46772" y2="3.40278" style="stroke:rgb(246,147,147);stroke-width:0.01" />
<line x1="-4.71342" y1="3.11628" x2="-4.64193" y2="3.31959" style="stroke:rgb(246,147,147);stroke-width:0.01" />
<line x1="-4.69483" y1="3.36223" x2="-5.40149" y2="3.51535" style="stroke:rgb(246,147,147);stroke-width:0.01" />
<line x1="-4.71342" y1="3.11628" x2="-5.00811" y2="3.16544" style="stroke:rgb(246,147,147);stroke-width:0.01" />
<line x1="-4.78683" y1="3.10794" x2="-4.90106" y2="3.12518" style="stroke:rgb(246,147,147);stroke-width:0.01" />
<line x1="-5.25319" y1="3.25761" x2="-5.16817" y2="3.4301" style="stroke:rgb(246,147,147);stroke-width:0.01" />
<line x1="-4.61985" y1="3.31041" x2="-4.66467" y2="3.31567" style="stroke:rgb(246,147,147);stroke-width:0.01" />
<line x1="-5.4839" y1="3.34437" x2="-5.40149" y2="3.51535" style="stroke:rgb(246,147,147);stroke-width:0.01" />
<line x1="-4.64193" y1="3.31959" x2="-4.89156" y2="3.33317" style="stroke:rgb(246,147,147);stroke-width:0.01" />
<line x1="-4.93843" y1="3.23601" x2="-5.20846" y2="3.24079" style="stroke:rgb(246,147,147);stroke-width:0.01" />
<line x1="-5.23298" y1="3.25001" x2="-5.20856" y2="3.28947" style="stroke:rgb(246,147,147);stroke-width:0.01" />
<line x1="-4.90284" y1="3.12585" x2="-4.86506" y2="3.17402" style="stroke:rgb(246,147,147);stroke-width:0.01" />
<line x1="-5.37814" y1="3.3046" x2="-5.23595" y2="3.48736" style="stroke:rgb(246,147,147);stroke-width:0.01" />
<line x1="-4.90732" y1="3.12754" x2="-4.86506" y2="3.17402" style="stroke:rgb(246,147,147);stroke-width:0.01" />
<line x1="-5.39694" y1="3.31167" x2="-5.23595" y2="3.48736" style="stroke:rgb(246,147,147);stroke-width:0.01" />
<line x1="-4.91889" y1="3.13189" x2="-4.65803" y2="3.3368" style="stroke:rgb(246,147,147);stroke-width:0.01" />
<line x1="-4.77719" y1="3.0786" x2="-4.56476" y2="3.20412" style="stroke:rgb(246,147,147);stroke-width:0.01" />
<line x1="-4.90939" y1="3.12832" x2="-4.90735" y2="3.12921" style="stroke:rgb(246,147,147);stroke-width:0.01" />
<line x1="-5.35425" y1="3.29561" x2="-5.16817" y2="3.4301" style="stroke:rgb(246,147,147);stroke-width:0.01" />
</g>
</svg>
