<svg xmlns="http://www.w3.org/2000/svg" viewBox="-1.5 -1.5 3 3">
<g transform="scale(1, -1)">
<path d="M0.039184 -0.237456 L0.251276 -0.025365 L0.244437 -0.008969 L0.225301 -0.014531 L0.085978 0.043580 L0.065623 0.085646 L0.013340 0.073876 L-0.039408 0.095877 L-0.295087 0.095877 L-0.298771 -0.036606 L-0.291874 -0.071927 z " fill="rgb(245,195,195)" />
<path d="M1.105851 0.629210 L2.105851 0.629210 L2.105851 1.629210 L1.105851 1.629210  z" fill="none" stroke="rgb(128,128,128)" stroke-width="0.01" />
<line x1="0.0391843" y1="-0.237456" x2="-0.291874" y2="-0.0719274" style="stroke:rgb(246,147,147);stroke-width:0.01" />
<line x1="0.0995016" y1="-0.166168" x2="-0.007538" y2="-0.121614" style="stroke:rgb(246,147,147);stroke-width:0.01" />
<line x1="-0.233129" y1="-0.0303932" x2="-0.293081" y2="0.0237305" style="stroke:rgb(246,147,147);stroke-width:0.01" />
<line x1="-0.233129" y1="-0.0303932" x2="-0.292156" y2="-0.00954256" style="stroke:rgb(246,147,147);stroke-width:0.01" />
<line x1="0.133646" y1="-0.142995" x2="-0.296738" y2="0.0365156" style="stroke:rgb(246,147,147);stroke-width:0.01" />
<line x1="0.0530836" y1="-0.223557" x2="-0.0101665" y2="-0.212781" style="stroke:rgb(246,147,147);stroke-width:0.01" />
<line x1="-0.0101665" y1="-0.212781" x2="-0.0866422" y2="-0.140306" style="stroke:rgb(246,147,147);stroke-width:0.01" />
<line x1="0.105452" y1="-0.108417" x2="0.025018" y2="-0.0727412" style="stroke:rgb(246,147,147);stroke-width:0.01" />
<line x1="0.16236" y1="-0.114281" x2="0.0229754" y2="-0.0468381" style="stroke:rgb(246,147,147);stroke-width:0.01" />
<line x1="-0.19611" y1="0.0305173" x2="-0.262067" y2="0.0958769" style="stroke:rgb(246,147,147);stroke-width:0.01" />
<line x1="-0.278595" y1="0.0429243" x2="-0.296023" y2="0.0622287" style="stroke:rgb(246,147,147);stroke-width:0.01" />
<line x1="0.0741142" y1="-0.202527" x2="-0.007538" y2="-0.121614" style="stroke:rgb(246,147,147);stroke-width:0.01" />
<line x1="0.0741142" y1="-0.202527" x2="-0.221588" y2="0.0958769" style="stroke:rgb(246,147,147);stroke-width:0.01" />
<line x1="0.251276" y1="-0.025365" x2="-0.0394077" y2="0.0958769" style="stroke:rgb(246,147,147);stroke-width:0.01" />
<line x1="0.136984" y1="-0.139657" x2="-0.0139353" y2="-0.131217" style="stroke:rgb(246,147,147);stroke-width:0.01" />
<line x1="0.247851" y1="-0.0287902" x2="-0.0583565" y2="0.0239425" style="stroke:rgb(246,147,147);stroke-width:0.01" />
<line x1="0.237294" y1="-0.0393464" x2="0.215212" y2="-0.0174635" style="stroke:rgb(246,147,147);stroke-width:0.01" />
<line x1="0.237294" y1="-0.0393464" x2="0.203829" y2="-0.00557539" style="stroke:rgb(246,147,147);stroke-width:0.01" />
<line x1="0.127104" y1="-0.0946808" x2="0.0994598" y2="-0.0511055" style="stroke:rgb(246,147,147);stroke-width:0.01" />
<line x1="0.203829" y1="-0.00557539" x2="-0.196171" y2="-0.00543012" style="stroke:rgb(246,147,147);stroke-width:0.01" />
<line x1="0.0391843" y1="-0.237456" x2="-0.0345211" y2="-0.0900456" style="stroke:rgb(246,147,147);stroke-width:0.01" />
<line x1="0.0655151" y1="0.0717786" x2="0.00608478" y2="0.0722428" style="stroke:rgb(246,147,147);stroke-width:0.01" />
<line x1="-0.295087" y1="0.0958769" x2="-0.0394077" y2="0.0958769" style="stroke:rgb(246,147,147);stroke-width:0.01" />
<line x1="0.16236" y1="-0.114281" x2="0.0656235" y2="0.0856457" style="stroke:rgb(246,147,147);stroke-width:0.01" />
<line x1="-0.0866422" y1="-0.140306" x2="0.20222" y2="-0.0744204" style="stroke:rgb(246,147,147);stroke-width:0.01" />
<line x1="0.133646" y1="-0.142995" x2="0.0957675" y2="-0.0521786" style="stroke:rgb(246,147,147);stroke-width:0.01" />
<line x1="0.0275446" y1="-0.214177" x2="0.0814766" y2="-0.195164" style="stroke:rgb(246,147,147);stroke-width:0.01" />
<line x1="0.251276" y1="-0.025365" x2="0.244437" y2="-0.00896939" style="stroke:rgb(246,147,147);stroke-width:0.01" />
<line x1="-0.233129" y1="-0.0303932" x2="-0.265162" y2="0.0958769" style="stroke:rgb(246,147,147);stroke-width:0.01" />
<line x1="-0.0345211" y1="-0.0900456" x2="0.244437" y2="-0.00896939" style="stroke:rgb(246,147,147);stroke-width:0.01" />
<line x1="0.00608478" y1="0.0722428" x2="0.0656235" y2="0.0856457" style="stroke:rgb(246,147,147);stroke-width:0.01" />
<line x1="-0.291874" y1="-0.0719274" x2="-0.298771" y2="-0.0366059" style="stroke:rgb(246,147,147);stroke-width:0.01" />
<line x1="0.0530836" y1="-0.223557" x2="0.0229754" y2="-0.0468381" style="stroke:rgb(246,147,147);stroke-width:0.01" />
<line x1="0.105452" y1="-0.108417" x2="0.0957675" y2="-0.0521786" style="stroke:rgb(246,147,147);stroke-width:0.01" />
<line x1="0.247851" y1="-0.0287902" x2="0.244437" y2="-0.00896939" style="stroke:rgb(246,147,147);stroke-width:0.01" />
<line x1="-0.296738" y1="0.0365156" x2="-0.278595" y2="0.0429243" style="stroke:rgb(246,147,147);stroke-width:0.01" />
<line x1="0.0275446" y1="-0.214177" x2="0.0995016" y2="-0.166168" style="stroke:rgb(246,147,147);stroke-width:0.01" />
<line x1="0.105452" y1="-0.108417" x2="0.127104" y2="-0.0946808" style="stroke:rgb(246,147,147);stroke-width:0.01" />
<line x1="0.136984" y1="-0.139657" x2="0.132064" y2="-0.0516675" style="stroke:rgb(246,147,147);stroke-width:0.01" />
<line x1="-0.292156" y1="-0.00954256" x2="-0.0394077" y2="0.0958769" style="stroke:rgb(246,147,147);stroke-width:0.01" />
<line x1="-0.292156" y1="-0.00954256" x2="-0.295087" y2="0.0958769" style="stroke:rgb(246,147,147);stroke-width:0.01" />
<line x1="-0.291874" y1="-0.0719274" x2="0.00608478" y2="0.0722428" style="stroke:rgb(246,147,147);stroke-width:0.01" />
<line x1="-0.19611" y1="0.0305173" x2="-0.196134" y2="0.0958769" style="stroke:rgb(246,147,147);stroke-width:0.01" />
<line x1="0.0995016" y1="-0.166168" x2="0.0994598" y2="-0.0511055" style="stroke:rgb(246,147,147);stroke-width:0.01" />
<line x1="-0.196171" y1="-0.00543012" x2="-0.196134" y2="0.0958769" style="stroke:rgb(246,147,147);stroke-width:0.01" />
<line x1="0.0655151" y1="0.0717786" x2="0.0656235" y2="0.0856457" style="stroke:rgb(246,147,147);stroke-width:0.01" />
<line x1="-0.298771" y1="-0.0366059" x2="-0.295087" y2="0.0958769" style="stroke:rgb(246,147,147);stroke-width:0.01" />
<line x1="-0.0345211" y1="-0.0900456" x2="0.0229754" y2="-0.0468381" style="stroke:rgb(246,147,147);stroke-width:0.01" />
<line x1="0.0391843" y1="-0.237456" x2="0.251276" y2="-0.025365" style="stroke:rgb(246,147,147);stroke-width:0.01" />
<line x1="0.20222" y1="-0.0744204" x2="0.215212" y2="-0.0174635" style="stroke:rgb(246,147,147);stroke-width:0.01" />
<line x1="-0.0866422" y1="-0.140306" x2="-0.0583565" y2="0.0239425" style="stroke:rgb(246,147,147);stroke-width:0.01" />
<line x1="0.0814766" y1="-0.195164" x2="0.132064" y2="-0.0516675" style="stroke:rgb(246,147,147);stroke-width:0.01" />
<line x1="-0.0139353" y1="-0.131217" x2="0.025018" y2="-0.0727412" style="stroke:rgb(246,147,147);stroke-width:0.01" />
<line x1="-0.298771" y1="-0.0366059" x2="-0.265162" y2="0.0958769" style="stroke:rgb(246,147,147);stroke-width:0.01" />
<line x1="-0.293081" y1="0.0237305" x2="-0.221588" y2="0.0958769" style="stroke:rgb(246,147,147);stroke-width:0.01" />
<line x1="-0.296023" y1="0.0622287" x2="-0.262067" y2="0.0958769" style="stroke:rgb(246,147,147);stroke-width:0.01" />
</g>
</svg>
