<svg xmlns="http://www.w3.org/2000/svg" viewBox="-1.5 -1.5 3 3">
<g transform="scale(1, -1)">
<path d="M-1.066667 -0.866667 L-0.854575 -0.654575 L-0.861414 -0.638180 L-0.880550 -0.643741 L-1.019873 -0.585631 L-1.040228 -0.543565 L-1.092511 -0.555334 L-1.145259 -0.533333 L-1.400938 -0.533333 L-1.404622 -0.665816 L-1.397725 -0.701138 z " fill="rgb(245,195,195)" />
<path d="M0.000000 0.000000 L1.000000 0.000000 L1.000000 1.000000 L0.000000 1.000000  z" fill="none" stroke="rgb(128,128,128)" stroke-width="0.01" />
<line x1="-1.06667" y1="-0.866667" x2="-1.39772" y2="-0.701138" style="stroke:rgb(246,147,147);stroke-width:0.01" />
<line x1="-1.00635" y1="-0.795378" x2="-1.11339" y2="-0.750824" style="stroke:rgb(246,147,147);stroke-width:0.01" />
<line x1="-1.33898" y1="-0.659603" x2="-1.39893" y2="-0.60548" style="stroke:rgb(246,147,147);stroke-width:0.01" />
<line x1="-1.33898" y1="-0.659603" x2="-1.39801" y2="-0.638753" style="stroke:rgb(246,147,147);stroke-width:0.01" />
<line x1="-0.972205" y1="-0.772205" x2="-1.40259" y2="-0.592695" style="stroke:rgb(246,147,147);stroke-width:0.01" />
<line x1="-1.05277" y1="-0.852767" x2="-1.11602" y2="-0.841991" style="stroke:rgb(246,147,147);stroke-width:0.01" />
<line x1="-1.11602" y1="-0.841991" x2="-1.19249" y2="-0.769517" style="stroke:rgb(246,147,147);stroke-width:0.01" />
<line x1="-1.0004" y1="-0.737627" x2="-1.08083" y2="-0.701951" style="stroke:rgb(246,147,147);stroke-width:0.01" />
<line x1="-0.943491" y1="-0.743491" x2="-1.08288" y2="-0.676048" style="stroke:rgb(246,147,147);stroke-width:0.01" />
<line x1="-1.30196" y1="-0.598693" x2="-1.36792" y2="-0.533333" style="stroke:rgb(246,147,147);stroke-width:0.01" />
<line x1="-1.38445" y1="-0.586286" x2="-1.40187" y2="-0.566982" style="stroke:rgb(246,147,147);stroke-width:0.01" />
<line x1="-1.03174" y1="-0.831737" x2="-1.11339" y2="-0.750824" style="stroke:rgb(246,147,147);stroke-width:0.01" />
<line x1="-1.03174" y1="-0.831737" x2="-1.32744" y2="-0.533333" style="stroke:rgb(246,147,147);stroke-width:0.01" />
<line x1="-0.854575" y1="-0.654575" x2="-1.14526" y2="-0.533333" style="stroke:rgb(246,147,147);stroke-width:0.01" />
<line x1="-0.968867" y1="-0.768867" x2="-1.11979" y2="-0.760427" style="stroke:rgb(246,147,147);stroke-width:0.01" />
<line x1="-0.858" y1="-0.658" x2="-1.16421" y2="-0.605268" style="stroke:rgb(246,147,147);stroke-width:0.01" />
<line x1="-0.868557" y1="-0.668557" x2="-0.890639" y2="-0.646674" style="stroke:rgb(246,147,147);stroke-width:0.01" />
<line x1="-0.868557" y1="-0.668557" x2="-0.902022" y2="-0.634786" style="stroke:rgb(246,147,147);stroke-width:0.01" />
<line x1="-0.978747" y1="-0.723891" x2="-1.00639" y2="-0.680316" style="stroke:rgb(246,147,147);stroke-width:0.01" />
<line x1="-0.902022" y1="-0.634786" x2="-1.30202" y2="-0.63464" style="stroke:rgb(246,147,147);stroke-width:0.01" />
<line x1="-1.06667" y1="-0.866667" x2="-1.14037" y2="-0.719256" style="stroke:rgb(246,147,147);stroke-width:0.01" />
<line x1="-1.04034" y1="-0.557432" x2="-1.09977" y2="-0.556967" style="stroke:rgb(246,147,147);stroke-width:0.01" />
<line x1="-1.40094" y1="-0.533333" x2="-1.14526" y2="-0.533333" style="stroke:rgb(246,147,147);stroke-width:0.01" />
<line x1="-0.943491" y1="-0.743491" x2="-1.04023" y2="-0.543565" style="stroke:rgb(246,147,147);stroke-width:0.01" />
<line x1="-1.19249" y1="-0.769517" x2="-0.903631" y2="-0.703631" style="stroke:rgb(246,147,147);stroke-width:0.01" />
<line x1="-0.972205" y1="-0.772205" x2="-1.01008" y2="-0.681389" style="stroke:rgb(246,147,147);stroke-width:0.01" />
<line x1="-1.07831" y1="-0.843387" x2="-1.02437" y2="-0.824374" style="stroke:rgb(246,147,147);stroke-width:0.01" />
<line x1="-0.854575" y1="-0.654575" x2="-0.861414" y2="-0.63818" style="stroke:rgb(246,147,147);stroke-width:0.01" />
<line x1="-1.33898" y1="-0.659603" x2="-1.37101" y2="-0.533333" style="stroke:rgb(246,147,147);stroke-width:0.01" />
<line x1="-1.14037" y1="-0.719256" x2="-0.861414" y2="-0.63818" style="stroke:rgb(246,147,147);stroke-width:0.01" />
<line x1="-1.09977" y1="-0.556967" x2="-1.04023" y2="-0.543565" style="stroke:rgb(246,147,147);stroke-width:0.01" />
<line x1="-1.39772" y1="-0.701138" x2="-1.40462" y2="-0.665816" style="stroke:rgb(246,147,147);stroke-width:0.01" />
<line x1="-1.05277" y1="-0.852767" x2="-1.08288" y2="-0.676048" style="stroke:rgb(246,147,147);stroke-width:0.01" />
<line x1="-1.0004" y1="-0.737627" x2="-1.01008" y2="-0.681389" style="stroke:rgb(246,147,147);stroke-width:0.01" />
<line x1="-0.858" y1="-0.658" x2="-0.861414" y2="-0.63818" style="stroke:rgb(246,147,147);stroke-width:0.01" />
<line x1="-1.40259" y1="-0.592695" x2="-1.38445" y2="-0.586286" style="stroke:rgb(246,147,147);stroke-width:0.01" />
<line x1="-1.07831" y1="-0.843387" x2="-1.00635" y2="-0.795378" style="stroke:rgb(246,147,147);stroke-width:0.01" />
<line x1="-1.0004" y1="-0.737627" x2="-0.978747" y2="-0.723891" style="stroke:rgb(246,147,147);stroke-width:0.01" />
<line x1="-0.968867" y1="-0.768867" x2="-0.973787" y2="-0.680878" style="stroke:rgb(246,147,147);stroke-width:0.01" />
<line x1="-1.39801" y1="-0.638753" x2="-1.14526" y2="-0.533333" style="stroke:rgb(246,147,147);stroke-width:0.01" />
<line x1="-1.39801" y1="-0.638753" x2="-1.40094" y2="-0.533333" style="stroke:rgb(246,147,147);stroke-width:0.01" />
<line x1="-1.39772" y1="-0.701138" x2="-1.09977" y2="-0.556967" style="stroke:rgb(246,147,147);stroke-width:0.01" />
<line x1="-1.30196" y1="-0.598693" x2="-1.30199" y2="-0.533333" style="stroke:rgb(246,147,147);stroke-width:0.01" />
<line x1="-1.00635" y1="-0.795378" x2="-1.00639" y2="-0.680316" style="stroke:rgb(246,147,147);stroke-width:0.01" />
<line x1="-1.30202" y1="-0.63464" x2="-1.30199" y2="-0.533333" style="stroke:rgb(246,147,147);stroke-width:0.01" />
<line x1="-1.04034" y1="-0.557432" x2="-1.04023" y2="-0.543565" style="stroke:rgb(246,147,147);stroke-width:0.01" />
<line x1="-1.40462" y1="-0.665816" x2="-1.40094" y2="-0.533333" style="stroke:rgb(246,147,147);stroke-width:0.01" />
<line x1="-1.14037" y1="-0.719256" x2="-1.08288" y2="-0.676048" style="stroke:rgb(246,147,147);stroke-width:0.01" />
<line x1="-1.06667" y1="-0.866667" x2="-0.854575" y2="-0.654575" style="stroke:rgb(246,147,147);stroke-width:0.01" />
<line x1="-0.903631" y1="-0.703631" x2="-0.890639" y2="-0.646674" style="stroke:rgb(246,147,147);stroke-width:0.01" />
<line x1="-1.19249" y1="-0.769517" x2="-1.16421" y2="-0.605268" style="stroke:rgb(246,147,147);stroke-width:0.01" />
<line x1="-1.02437" y1="-0.824374" x2="-0.973787" y2="-0.680878" style="stroke:rgb(246,147,147);stroke-width:0.01" />
<line x1="-1.11979" y1="-0.760427" x2="-1.08083" y2="-0.701951" style="stroke:rgb(246,147,147);stroke-width:0.01" />
<line x1="-1.40462" y1="-0.665816" x2="-1.37101" y2="-0.533333" style="stroke:rgb(246,147,147);stroke-width:0.01" />
<line x1="-1.39893" y1="-0.60548" x2="-1.32744" y2="-0.533333" style="stroke:rgb(246,147,147);stroke-width:0.01" />
<line x1="-1.40187" y1="-0.566982" x2="-1.36792" y2="-0.533333" style="stroke:rgb(246,147,147);stroke-width:0.01" />
</g>
</svg>
