<svg xmlns="http://www.w3.org/2000/svg" viewBox="-1.5 -1.5 3 3">
<g transform="scale(1, -1)">
<path d="M0.280675 -0.329655 L0.360225 -0.241810 L-0.066583 0.280515 L-0.306122 0.208953 L-0.268195 0.081998 z " fill="rgb(245,195,195)" />
<path d="M0.358619 -1.388113 L1.358619 -1.388113 L1.358619 -0.388113 L0.358619 -0.388113  z" fill="none" stroke="rgb(128,128,128)" stroke-width="0.01" />
<line x1="-0.268195" y1="0.0819978" x2="-0.306122" y2="0.208953" style="stroke:rgb(246,147,147);stroke-width:0.01" />
<line x1="-0.0656486" y1="-0.0109856" x2="-0.0677447" y2="0.0382514" style="stroke:rgb(246,147,147);stroke-width:0.01" />
<line x1="-0.110122" y1="0.0285463" x2="-0.110464" y2="0.0809702" style="stroke:rgb(246,147,147);stroke-width:0.01" />
<line x1="0.0782085" y1="-0.177805" x2="0.0771587" y2="-0.016665" style="stroke:rgb(246,147,147);stroke-width:0.01" />
<line x1="0.25182" y1="-0.308013" x2="0.226852" y2="-0.0895205" style="stroke:rgb(246,147,147);stroke-width:0.01" />
<line x1="-0.230193" y1="0.0534968" x2="-0.249817" y2="0.0980371" style="stroke:rgb(246,147,147);stroke-width:0.01" />
<line x1="-0.122193" y1="0.0271344" x2="-0.121622" y2="0.0405451" style="stroke:rgb(246,147,147);stroke-width:0.01" />
<line x1="-0.0285629" y1="-0.0977259" x2="-0.0218009" y2="-0.00769242" style="stroke:rgb(246,147,147);stroke-width:0.01" />
<line x1="0.273218" y1="-0.3122" x2="0.274608" y2="-0.304101" style="stroke:rgb(246,147,147);stroke-width:0.01" />
<line x1="0.154846" y1="-0.133779" x2="0.125224" y2="-0.040058" style="stroke:rgb(246,147,147);stroke-width:0.01" />
<line x1="-0.0691114" y1="-0.0187089" x2="-0.0632624" y2="0.0337691" style="stroke:rgb(246,147,147);stroke-width:0.01" />
<line x1="0.278033" y1="-0.318515" x2="0.280541" y2="-0.310034" style="stroke:rgb(246,147,147);stroke-width:0.01" />
<line x1="-0.000341228" y1="-0.118892" x2="0.0196411" y2="-0.0157034" style="stroke:rgb(246,147,147);stroke-width:0.01" />
<line x1="-0.0748582" y1="-0.00279925" x2="-0.0671377" y2="0.0376443" style="stroke:rgb(246,147,147);stroke-width:0.01" />
<line x1="0.0804648" y1="-0.179497" x2="0.0811582" y2="-0.176965" style="stroke:rgb(246,147,147);stroke-width:0.01" />
<line x1="-0.0319603" y1="-0.0409307" x2="-0.0229263" y2="-0.00656703" style="stroke:rgb(246,147,147);stroke-width:0.01" />
<line x1="0.282881" y1="-0.32079" x2="0.285544" y2="-0.315038" style="stroke:rgb(246,147,147);stroke-width:0.01" />
<line x1="-0.0636128" y1="-0.0714385" x2="-0.0382614" y2="0.00876812" style="stroke:rgb(246,147,147);stroke-width:0.01" />
<line x1="-0.0280925" y1="-0.0980788" x2="-0.000809617" y2="-0.0286837" style="stroke:rgb(246,147,147);stroke-width:0.01" />
<line x1="0.280675" y1="-0.329655" x2="0.288093" y2="-0.317586" style="stroke:rgb(246,147,147);stroke-width:0.01" />
<line x1="0.0282995" y1="-0.140373" x2="0.0836955" y2="-0.0198464" style="stroke:rgb(246,147,147);stroke-width:0.01" />
<line x1="0.0471637" y1="-0.111263" x2="0.058918" y2="-0.0884113" style="stroke:rgb(246,147,147);stroke-width:0.01" />
<line x1="0.0235378" y1="-0.136801" x2="0.0836955" y2="-0.0198464" style="stroke:rgb(246,147,147);stroke-width:0.01" />
<line x1="0.0811582" y1="-0.176965" x2="0.0338224" y2="-0.127049" style="stroke:rgb(246,147,147);stroke-width:0.01" />
<line x1="-0.183347" y1="0.0936351" x2="-0.16493" y2="0.135437" style="stroke:rgb(246,147,147);stroke-width:0.01" />
<line x1="0.360225" y1="-0.24181" x2="-0.0665833" y2="0.280515" style="stroke:rgb(246,147,147);stroke-width:0.01" />
<line x1="0.288093" y1="-0.317586" x2="-0.16493" y2="0.135437" style="stroke:rgb(246,147,147);stroke-width:0.01" />
<line x1="0.280675" y1="-0.329655" x2="0.360225" y2="-0.24181" style="stroke:rgb(246,147,147);stroke-width:0.01" />
<line x1="0.0509639" y1="-0.12241" x2="0.067845" y2="-0.0973383" style="stroke:rgb(246,147,147);stroke-width:0.01" />
<line x1="0.154846" y1="-0.133779" x2="-0.00629596" y2="0.0239522" style="stroke:rgb(246,147,147);stroke-width:0.01" />
<line x1="-0.200029" y1="0.0308738" x2="-0.0665833" y2="0.280515" style="stroke:rgb(246,147,147);stroke-width:0.01" />
<line x1="0.282881" y1="-0.32079" x2="-0.183347" y2="0.0936351" style="stroke:rgb(246,147,147);stroke-width:0.01" />
<line x1="0.278033" y1="-0.318515" x2="-0.172301" y2="0.0704093" style="stroke:rgb(246,147,147);stroke-width:0.01" />
<line x1="-0.172301" y1="0.0704093" x2="-0.145457" y2="0.115963" style="stroke:rgb(246,147,147);stroke-width:0.01" />
<line x1="0.280675" y1="-0.329655" x2="-0.268195" y2="0.0819978" style="stroke:rgb(246,147,147);stroke-width:0.01" />
<line x1="0.0569455" y1="-0.119958" x2="0.0725169" y2="-0.10201" style="stroke:rgb(246,147,147);stroke-width:0.01" />
<line x1="0.0569455" y1="-0.119958" x2="0.0729214" y2="-0.102415" style="stroke:rgb(246,147,147);stroke-width:0.01" />
<line x1="0.360225" y1="-0.24181" x2="0.0196411" y2="-0.0157034" style="stroke:rgb(246,147,147);stroke-width:0.01" />
<line x1="0.282881" y1="-0.32079" x2="0.288093" y2="-0.317586" style="stroke:rgb(246,147,147);stroke-width:0.01" />
<line x1="0.0235378" y1="-0.136801" x2="0.0338224" y2="-0.127049" style="stroke:rgb(246,147,147);stroke-width:0.01" />
<line x1="-0.157836" y1="0.0709588" x2="-0.13222" y2="0.102727" style="stroke:rgb(246,147,147);stroke-width:0.01" />
<line x1="0.0509639" y1="-0.12241" x2="0.0729214" y2="-0.102415" style="stroke:rgb(246,147,147);stroke-width:0.01" />
<line x1="0.0282995" y1="-0.140373" x2="0.0725169" y2="-0.10201" style="stroke:rgb(246,147,147);stroke-width:0.01" />
<line x1="0.278033" y1="-0.318515" x2="0.285544" y2="-0.315038" style="stroke:rgb(246,147,147);stroke-width:0.01" />
<line x1="-0.157836" y1="0.0709588" x2="-0.129451" y2="0.0999577" style="stroke:rgb(246,147,147);stroke-width:0.01" />
<line x1="-0.0280925" y1="-0.0980788" x2="0.0771587" y2="-0.016665" style="stroke:rgb(246,147,147);stroke-width:0.01" />
<line x1="0.226852" y1="-0.0895205" x2="-0.00629596" y2="0.0239522" style="stroke:rgb(246,147,147);stroke-width:0.01" />
<line x1="0.0804648" y1="-0.179497" x2="0.226852" y2="-0.0895205" style="stroke:rgb(246,147,147);stroke-width:0.01" />
<line x1="-0.200029" y1="0.0308738" x2="-0.129451" y2="0.0999577" style="stroke:rgb(246,147,147);stroke-width:0.01" />
<line x1="0.273218" y1="-0.3122" x2="0.280541" y2="-0.310034" style="stroke:rgb(246,147,147);stroke-width:0.01" />
<line x1="0.0471637" y1="-0.111263" x2="0.067845" y2="-0.0973383" style="stroke:rgb(246,147,147);stroke-width:0.01" />
<line x1="0.25182" y1="-0.308013" x2="0.274608" y2="-0.304101" style="stroke:rgb(246,147,147);stroke-width:0.01" />
<line x1="-0.0636128" y1="-0.0714385" x2="0.0196411" y2="-0.0157034" style="stroke:rgb(246,147,147);stroke-width:0.01" />
<line x1="-0.172301" y1="0.0704093" x2="-0.13222" y2="0.102727" style="stroke:rgb(246,147,147);stroke-width:0.01" />
<line x1="-0.000341228" y1="-0.118892" x2="0.058918" y2="-0.0884113" style="stroke:rgb(246,147,147);stroke-width:0.01" />
<line x1="0.0782085" y1="-0.177805" x2="0.0811582" y2="-0.176965" style="stroke:rgb(246,147,147);stroke-width:0.01" />
<line x1="-0.0285629" y1="-0.0977259" x2="0.125224" y2="-0.040058" style="stroke:rgb(246,147,147);stroke-width:0.01" />
<line x1="-0.0319603" y1="-0.0409307" x2="-0.000809617" y2="-0.0286837" style="stroke:rgb(246,147,147);stroke-width:0.01" />
<line x1="-0.183347" y1="0.0936351" x2="-0.145457" y2="0.115963" style="stroke:rgb(246,147,147);stroke-width:0.01" />
<line x1="-0.00629596" y1="0.0239522" x2="-0.230193" y2="0.0534968" style="stroke:rgb(246,147,147);stroke-width:0.01" />
<line x1="-0.0748582" y1="-0.00279925" x2="-0.0382614" y2="0.00876812" style="stroke:rgb(246,147,147);stroke-width:0.01" />
<line x1="-0.0691114" y1="-0.0187089" x2="-0.0229263" y2="-0.00656703" style="stroke:rgb(246,147,147);stroke-width:0.01" />
<line x1="-0.0656486" y1="-0.0109856" x2="-0.0218009" y2="-0.00769242" style="stroke:rgb(246,147,147);stroke-width:0.01" />
<line x1="-0.0677447" y1="0.0382514" x2="-0.121622" y2="0.0405451" style="stroke:rgb(246,147,147);stroke-width:0.01" />
<line x1="-0.110122" y1="0.0285463" x2="-0.0632624" y2="0.0337691" style="stroke:rgb(246,147,147);stroke-width:0.01" />
<line x1="-0.122193" y1="0.0271344" x2="-0.0671377" y2="0.0376443" style="stroke:rgb(246,147,147);stroke-width:0.01" />
<line x1="-0.110464" y1="0.0809702" x2="-0.268195" y2="0.0819978" style="stroke:rgb(246,147,147);stroke-width:0.01" />
<line x1="-0.249817" y1="0.0980371" x2="-0.16493" y2="0.135437" style="stroke:rgb(246,147,147);stroke-width:0.01" />
<line x1="-0.306122" y1="0.208953" x2="-0.0665833" y2="0.280515" style="stroke:rgb(246,147,147);stroke-width:0.01" />
</g>
</svg>
