<svg xmlns="http://www.w3.org/2000/svg" viewBox="-1.5 -1.5 3 3">
<g transform="scale(1, -1)">
<path d="M-0.077944 1.058458 L0.001605 1.146302 L-0.425203 1.668627 L-0.664741 1.597065 L-0.626814 1.470110 z " fill="rgb(245,195,195)" />
<path d="M0.000000 0.000000 L1.000000 0.000000 L1.000000 1.000000 L0.000000 1.000000  z" fill="none" stroke="rgb(128,128,128)" stroke-width="0.01" />
<line x1="-0.626814" y1="1.47011" x2="-0.664741" y2="1.59707" style="stroke:rgb(246,147,147);stroke-width:0.01" />
<line x1="-0.424268" y1="1.37713" x2="-0.426364" y2="1.42636" style="stroke:rgb(246,147,147);stroke-width:0.01" />
<line x1="-0.468741" y1="1.41666" x2="-0.469083" y2="1.46908" style="stroke:rgb(246,147,147);stroke-width:0.01" />
<line x1="-0.280411" y1="1.21031" x2="-0.28146" y2="1.37145" style="stroke:rgb(246,147,147);stroke-width:0.01" />
<line x1="-0.106799" y1="1.0801" x2="-0.131767" y2="1.29859" style="stroke:rgb(246,147,147);stroke-width:0.01" />
<line x1="-0.588812" y1="1.44161" x2="-0.608436" y2="1.48615" style="stroke:rgb(246,147,147);stroke-width:0.01" />
<line x1="-0.480812" y1="1.41525" x2="-0.480241" y2="1.42866" style="stroke:rgb(246,147,147);stroke-width:0.01" />
<line x1="-0.387182" y1="1.29039" x2="-0.38042" y2="1.38042" style="stroke:rgb(246,147,147);stroke-width:0.01" />
<line x1="-0.0854015" y1="1.07591" x2="-0.0840111" y2="1.08401" style="stroke:rgb(246,147,147);stroke-width:0.01" />
<line x1="-0.203773" y1="1.25433" x2="-0.233396" y2="1.34805" style="stroke:rgb(246,147,147);stroke-width:0.01" />
<line x1="-0.427731" y1="1.3694" x2="-0.421882" y2="1.42188" style="stroke:rgb(246,147,147);stroke-width:0.01" />
<line x1="-0.0805861" y1="1.0696" x2="-0.0780781" y2="1.07808" style="stroke:rgb(246,147,147);stroke-width:0.01" />
<line x1="-0.35896" y1="1.26922" x2="-0.338978" y2="1.37241" style="stroke:rgb(246,147,147);stroke-width:0.01" />
<line x1="-0.433477" y1="1.38531" x2="-0.425757" y2="1.42576" style="stroke:rgb(246,147,147);stroke-width:0.01" />
<line x1="-0.278154" y1="1.20862" x2="-0.277461" y2="1.21115" style="stroke:rgb(246,147,147);stroke-width:0.01" />
<line x1="-0.39058" y1="1.34718" x2="-0.381546" y2="1.38155" style="stroke:rgb(246,147,147);stroke-width:0.01" />
<line x1="-0.075738" y1="1.06732" x2="-0.0730748" y2="1.07307" style="stroke:rgb(246,147,147);stroke-width:0.01" />
<line x1="-0.422232" y1="1.31667" x2="-0.396881" y2="1.39688" style="stroke:rgb(246,147,147);stroke-width:0.01" />
<line x1="-0.386712" y1="1.29003" x2="-0.359429" y2="1.35943" style="stroke:rgb(246,147,147);stroke-width:0.01" />
<line x1="-0.0779438" y1="1.05846" x2="-0.0705261" y2="1.07053" style="stroke:rgb(246,147,147);stroke-width:0.01" />
<line x1="-0.33032" y1="1.24774" x2="-0.274924" y2="1.36827" style="stroke:rgb(246,147,147);stroke-width:0.01" />
<line x1="-0.311456" y1="1.27685" x2="-0.299701" y2="1.2997" style="stroke:rgb(246,147,147);stroke-width:0.01" />
<line x1="-0.335081" y1="1.25131" x2="-0.274924" y2="1.36827" style="stroke:rgb(246,147,147);stroke-width:0.01" />
<line x1="-0.277461" y1="1.21115" x2="-0.324797" y2="1.26106" style="stroke:rgb(246,147,147);stroke-width:0.01" />
<line x1="-0.541966" y1="1.48175" x2="-0.523549" y2="1.52355" style="stroke:rgb(246,147,147);stroke-width:0.01" />
<line x1="0.00160548" y1="1.1463" x2="-0.425203" y2="1.66863" style="stroke:rgb(246,147,147);stroke-width:0.01" />
<line x1="-0.0705261" y1="1.07053" x2="-0.523549" y2="1.52355" style="stroke:rgb(246,147,147);stroke-width:0.01" />
<line x1="-0.0779438" y1="1.05846" x2="0.00160548" y2="1.1463" style="stroke:rgb(246,147,147);stroke-width:0.01" />
<line x1="-0.307655" y1="1.2657" x2="-0.290774" y2="1.29077" style="stroke:rgb(246,147,147);stroke-width:0.01" />
<line x1="-0.203773" y1="1.25433" x2="-0.364915" y2="1.41206" style="stroke:rgb(246,147,147);stroke-width:0.01" />
<line x1="-0.558648" y1="1.41899" x2="-0.425203" y2="1.66863" style="stroke:rgb(246,147,147);stroke-width:0.01" />
<line x1="-0.075738" y1="1.06732" x2="-0.541966" y2="1.48175" style="stroke:rgb(246,147,147);stroke-width:0.01" />
<line x1="-0.0805861" y1="1.0696" x2="-0.53092" y2="1.45852" style="stroke:rgb(246,147,147);stroke-width:0.01" />
<line x1="-0.53092" y1="1.45852" x2="-0.504076" y2="1.50408" style="stroke:rgb(246,147,147);stroke-width:0.01" />
<line x1="-0.0779438" y1="1.05846" x2="-0.626814" y2="1.47011" style="stroke:rgb(246,147,147);stroke-width:0.01" />
<line x1="-0.301674" y1="1.26815" x2="-0.286102" y2="1.2861" style="stroke:rgb(246,147,147);stroke-width:0.01" />
<line x1="-0.301674" y1="1.26815" x2="-0.285698" y2="1.2857" style="stroke:rgb(246,147,147);stroke-width:0.01" />
<line x1="0.00160548" y1="1.1463" x2="-0.338978" y2="1.37241" style="stroke:rgb(246,147,147);stroke-width:0.01" />
<line x1="-0.075738" y1="1.06732" x2="-0.0705261" y2="1.07053" style="stroke:rgb(246,147,147);stroke-width:0.01" />
<line x1="-0.335081" y1="1.25131" x2="-0.324797" y2="1.26106" style="stroke:rgb(246,147,147);stroke-width:0.01" />
<line x1="-0.516455" y1="1.45907" x2="-0.49084" y2="1.49084" style="stroke:rgb(246,147,147);stroke-width:0.01" />
<line x1="-0.307655" y1="1.2657" x2="-0.285698" y2="1.2857" style="stroke:rgb(246,147,147);stroke-width:0.01" />
<line x1="-0.33032" y1="1.24774" x2="-0.286102" y2="1.2861" style="stroke:rgb(246,147,147);stroke-width:0.01" />
<line x1="-0.0805861" y1="1.0696" x2="-0.0730748" y2="1.07307" style="stroke:rgb(246,147,147);stroke-width:0.01" />
<line x1="-0.516455" y1="1.45907" x2="-0.48807" y2="1.48807" style="stroke:rgb(246,147,147);stroke-width:0.01" />
<line x1="-0.386712" y1="1.29003" x2="-0.28146" y2="1.37145" style="stroke:rgb(246,147,147);stroke-width:0.01" />
<line x1="-0.131767" y1="1.29859" x2="-0.364915" y2="1.41206" style="stroke:rgb(246,147,147);stroke-width:0.01" />
<line x1="-0.278154" y1="1.20862" x2="-0.131767" y2="1.29859" style="stroke:rgb(246,147,147);stroke-width:0.01" />
<line x1="-0.558648" y1="1.41899" x2="-0.48807" y2="1.48807" style="stroke:rgb(246,147,147);stroke-width:0.01" />
<line x1="-0.0854015" y1="1.07591" x2="-0.0780781" y2="1.07808" style="stroke:rgb(246,147,147);stroke-width:0.01" />
<line x1="-0.311456" y1="1.27685" x2="-0.290774" y2="1.29077" style="stroke:rgb(246,147,147);stroke-width:0.01" />
<line x1="-0.106799" y1="1.0801" x2="-0.0840111" y2="1.08401" style="stroke:rgb(246,147,147);stroke-width:0.01" />
<line x1="-0.422232" y1="1.31667" x2="-0.338978" y2="1.37241" style="stroke:rgb(246,147,147);stroke-width:0.01" />
<line x1="-0.53092" y1="1.45852" x2="-0.49084" y2="1.49084" style="stroke:rgb(246,147,147);stroke-width:0.01" />
<line x1="-0.35896" y1="1.26922" x2="-0.299701" y2="1.2997" style="stroke:rgb(246,147,147);stroke-width:0.01" />
<line x1="-0.280411" y1="1.21031" x2="-0.277461" y2="1.21115" style="stroke:rgb(246,147,147);stroke-width:0.01" />
<line x1="-0.387182" y1="1.29039" x2="-0.233396" y2="1.34805" style="stroke:rgb(246,147,147);stroke-width:0.01" />
<line x1="-0.39058" y1="1.34718" x2="-0.359429" y2="1.35943" style="stroke:rgb(246,147,147);stroke-width:0.01" />
<line x1="-0.541966" y1="1.48175" x2="-0.504076" y2="1.50408" style="stroke:rgb(246,147,147);stroke-width:0.01" />
<line x1="-0.364915" y1="1.41206" x2="-0.588812" y2="1.44161" style="stroke:rgb(246,147,147);stroke-width:0.01" />
<line x1="-0.433477" y1="1.38531" x2="-0.396881" y2="1.39688" style="stroke:rgb(246,147,147);stroke-width:0.01" />
<line x1="-0.427731" y1="1.3694" x2="-0.381546" y2="1.38155" style="stroke:rgb(246,147,147);stroke-width:0.01" />
<line x1="-0.424268" y1="1.37713" x2="-0.38042" y2="1.38042" style="stroke:rgb(246,147,147);stroke-width:0.01" />
<line x1="-0.426364" y1="1.42636" x2="-0.480241" y2="1.42866" style="stroke:rgb(246,147,147);stroke-width:0.01" />
<line x1="-0.468741" y1="1.41666" x2="-0.421882" y2="1.42188" style="stroke:rgb(246,147,147);stroke-width:0.01" />
<line x1="-0.480812" y1="1.41525" x2="-0.425757" y2="1.42576" style="stroke:rgb(246,147,147);stroke-width:0.01" />
<line x1="-0.469083" y1="1.46908" x2="-0.626814" y2="1.47011" style="stroke:rgb(246,147,147);stroke-width:0.01" />
<line x1="-0.608436" y1="1.48615" x2="-0.523549" y2="1.52355" style="stroke:rgb(246,147,147);stroke-width:0.01" />
<line x1="-0.664741" y1="1.59707" x2="-0.425203" y2="1.66863" style="stroke:rgb(246,147,147);stroke-width:0.01" />
</g>
</svg>
