<svg xmlns="http://www.w3.org/2000/svg" viewBox="-1.5 -1.5 3 3">
<g transform="scale(1, -1)">
<path d="M-0.864977 -0.599155 L-0.715946 -0.524640 L-0.677456 -0.377447 L-0.379044 -0.331554 L-0.361722 -0.028827 L-0.401834 0.005004 L-0.598445 -0.075294 L-0.892052 -0.410450 L-0.893340 -0.472874 L-0.905548 -0.492134 L-0.894347 -0.521682 L-0.894895 -0.548279 L-0.893204 -0.550299 L-0.895330 -0.551270 L-0.886026 -0.582202 L-0.875489 -0.582572 z " fill="rgb(245,195,195)" />
<path d="M0.000000 0.000000 L1.000000 0.000000 L1.000000 1.000000 L0.000000 1.000000  z" fill="none" stroke="rgb(128,128,128)" stroke-width="0.01" />
<line x1="-0.815848" y1="-0.559022" x2="-0.86856" y2="-0.53904" style="stroke:rgb(246,147,147);stroke-width:0.01" />
<line x1="-0.868915" y1="-0.540008" x2="-0.869894" y2="-0.539649" style="stroke:rgb(246,147,147);stroke-width:0.01" />
<line x1="-0.80351" y1="-0.568422" x2="-0.820037" y2="-0.562989" style="stroke:rgb(246,147,147);stroke-width:0.01" />
<line x1="-0.715946" y1="-0.52464" x2="-0.779886" y2="-0.498526" style="stroke:rgb(246,147,147);stroke-width:0.01" />
<line x1="-0.856048" y1="-0.594691" x2="-0.894895" y2="-0.548279" style="stroke:rgb(246,147,147);stroke-width:0.01" />
<line x1="-0.703282" y1="-0.476212" x2="-0.858564" y2="-0.372223" style="stroke:rgb(246,147,147);stroke-width:0.01" />
<line x1="-0.812248" y1="-0.572791" x2="-0.820037" y2="-0.562989" style="stroke:rgb(246,147,147);stroke-width:0.01" />
<line x1="-0.834676" y1="-0.584005" x2="-0.886026" y2="-0.582202" style="stroke:rgb(246,147,147);stroke-width:0.01" />
<line x1="-0.8367" y1="-0.583934" x2="-0.869048" y2="-0.539263" style="stroke:rgb(246,147,147);stroke-width:0.01" />
<line x1="-0.832907" y1="-0.401354" x2="-0.858564" y2="-0.372223" style="stroke:rgb(246,147,147);stroke-width:0.01" />
<line x1="-0.864977" y1="-0.599155" x2="-0.89533" y2="-0.55127" style="stroke:rgb(246,147,147);stroke-width:0.01" />
<line x1="-0.905548" y1="-0.492134" x2="-0.703282" y2="-0.476212" style="stroke:rgb(246,147,147);stroke-width:0.01" />
<line x1="-0.888781" y1="-0.406716" x2="-0.867407" y2="-0.406659" style="stroke:rgb(246,147,147);stroke-width:0.01" />
<line x1="-0.875455" y1="-0.509185" x2="-0.893251" y2="-0.468586" style="stroke:rgb(246,147,147);stroke-width:0.01" />
<line x1="-0.864977" y1="-0.599155" x2="-0.905548" y2="-0.492134" style="stroke:rgb(246,147,147);stroke-width:0.01" />
<line x1="-0.374539" y1="-0.25282" x2="-0.647915" y2="-0.131764" style="stroke:rgb(246,147,147);stroke-width:0.01" />
<line x1="-0.623606" y1="-0.171516" x2="-0.647915" y2="-0.131764" style="stroke:rgb(246,147,147);stroke-width:0.01" />
<line x1="-0.628495" y1="-0.190212" x2="-0.635298" y2="-0.178063" style="stroke:rgb(246,147,147);stroke-width:0.01" />
<line x1="-0.886026" y1="-0.582202" x2="-0.89533" y2="-0.55127" style="stroke:rgb(246,147,147);stroke-width:0.01" />
<line x1="-0.892052" y1="-0.41045" x2="-0.379044" y2="-0.331554" style="stroke:rgb(246,147,147);stroke-width:0.01" />
<line x1="-0.812248" y1="-0.572791" x2="-0.815848" y2="-0.559022" style="stroke:rgb(246,147,147);stroke-width:0.01" />
<line x1="-0.420505" y1="-0.191638" x2="-0.678875" y2="-0.167106" style="stroke:rgb(246,147,147);stroke-width:0.01" />
<line x1="-0.856048" y1="-0.594691" x2="-0.869048" y2="-0.539263" style="stroke:rgb(246,147,147);stroke-width:0.01" />
<line x1="-0.361722" y1="-0.0288274" x2="-0.401834" y2="0.00500354" style="stroke:rgb(246,147,147);stroke-width:0.01" />
<line x1="-0.491983" y1="-0.033418" x2="-0.492579" y2="-0.0320578" style="stroke:rgb(246,147,147);stroke-width:0.01" />
<line x1="-0.379044" y1="-0.331554" x2="-0.492579" y2="-0.0320578" style="stroke:rgb(246,147,147);stroke-width:0.01" />
<line x1="-0.652435" y1="-0.281762" x2="-0.678875" y2="-0.167106" style="stroke:rgb(246,147,147);stroke-width:0.01" />
<line x1="-0.864977" y1="-0.599155" x2="-0.715946" y2="-0.52464" style="stroke:rgb(246,147,147);stroke-width:0.01" />
<line x1="-0.867407" y1="-0.406659" x2="-0.374539" y2="-0.25282" style="stroke:rgb(246,147,147);stroke-width:0.01" />
<line x1="-0.875455" y1="-0.509185" x2="-0.888781" y2="-0.406716" style="stroke:rgb(246,147,147);stroke-width:0.01" />
<line x1="-0.89533" y1="-0.55127" x2="-0.779886" y2="-0.498526" style="stroke:rgb(246,147,147);stroke-width:0.01" />
<line x1="-0.894895" y1="-0.548279" x2="-0.892052" y2="-0.41045" style="stroke:rgb(246,147,147);stroke-width:0.01" />
<line x1="-0.379044" y1="-0.331554" x2="-0.361722" y2="-0.0288274" style="stroke:rgb(246,147,147);stroke-width:0.01" />
<line x1="-0.497744" y1="-0.0341672" x2="-0.491983" y2="-0.033418" style="stroke:rgb(246,147,147);stroke-width:0.01" />
<line x1="-0.420505" y1="-0.191638" x2="-0.401834" y2="0.00500354" style="stroke:rgb(246,147,147);stroke-width:0.01" />
<line x1="-0.635298" y1="-0.178063" x2="-0.623606" y2="-0.171516" style="stroke:rgb(246,147,147);stroke-width:0.01" />
<line x1="-0.780597" y1="-0.283223" x2="-0.628495" y2="-0.190212" style="stroke:rgb(246,147,147);stroke-width:0.01" />
<line x1="-0.715946" y1="-0.52464" x2="-0.598445" y2="-0.0752944" style="stroke:rgb(246,147,147);stroke-width:0.01" />
<line x1="-0.598445" y1="-0.0752944" x2="-0.401834" y2="0.00500354" style="stroke:rgb(246,147,147);stroke-width:0.01" />
<line x1="-0.830575" y1="-0.340274" x2="-0.361722" y2="-0.0288274" style="stroke:rgb(246,147,147);stroke-width:0.01" />
<line x1="-0.8367" y1="-0.583934" x2="-0.815848" y2="-0.559022" style="stroke:rgb(246,147,147);stroke-width:0.01" />
<line x1="-0.80351" y1="-0.568422" x2="-0.779886" y2="-0.498526" style="stroke:rgb(246,147,147);stroke-width:0.01" />
<line x1="-0.894895" y1="-0.548279" x2="-0.652435" y2="-0.281762" style="stroke:rgb(246,147,147);stroke-width:0.01" />
<line x1="-0.834676" y1="-0.584005" x2="-0.820037" y2="-0.562989" style="stroke:rgb(246,147,147);stroke-width:0.01" />
<line x1="-0.868915" y1="-0.540008" x2="-0.86856" y2="-0.53904" style="stroke:rgb(246,147,147);stroke-width:0.01" />
<line x1="-0.68832" y1="-0.177887" x2="-0.497744" y2="-0.0341672" style="stroke:rgb(246,147,147);stroke-width:0.01" />
<line x1="-0.886026" y1="-0.582202" x2="-0.869894" y2="-0.539649" style="stroke:rgb(246,147,147);stroke-width:0.01" />
<line x1="-0.753577" y1="-0.252379" x2="-0.491983" y2="-0.033418" style="stroke:rgb(246,147,147);stroke-width:0.01" />
<line x1="-0.832907" y1="-0.401354" x2="-0.780597" y2="-0.283223" style="stroke:rgb(246,147,147);stroke-width:0.01" />
<line x1="-0.875455" y1="-0.509185" x2="-0.68832" y2="-0.177887" style="stroke:rgb(246,147,147);stroke-width:0.01" />
<line x1="-0.893251" y1="-0.468586" x2="-0.830575" y2="-0.340274" style="stroke:rgb(246,147,147);stroke-width:0.01" />
<line x1="-0.892052" y1="-0.41045" x2="-0.598445" y2="-0.0752944" style="stroke:rgb(246,147,147);stroke-width:0.01" />
<line x1="-0.905548" y1="-0.492134" x2="-0.753577" y2="-0.252379" style="stroke:rgb(246,147,147);stroke-width:0.01" />
</g>
</svg>
