<svg xmlns="http://www.w3.org/2000/svg" viewBox="-1.5 -1.5 3 3">
<g transform="scale(1, -1)">
<path d="M-0.113124 -0.183926 L0.035907 -0.109410 L0.074397 0.037783 L0.372809 0.083676 L0.390131 0.386402 L0.350020 0.420233 L0.153408 0.339935 L-0.140198 0.004780 L-0.141486 -0.057644 L-0.153695 -0.076904 L-0.142493 -0.106452 L-0.143042 -0.133049 L-0.141351 -0.135069 L-0.143476 -0.136041 L-0.134172 -0.166973 L-0.123635 -0.167342 z " fill="rgb(245,195,195)" />
<path d="M0.751853 0.415230 L1.751853 0.415230 L1.751853 1.415230 L0.751853 1.415230  z" fill="none" stroke="rgb(128,128,128)" stroke-width="0.01" />
<line x1="-0.0639949" y1="-0.143792" x2="-0.116707" y2="-0.12381" style="stroke:rgb(246,147,147);stroke-width:0.01" />
<line x1="-0.117062" y1="-0.124778" x2="-0.118041" y2="-0.124419" style="stroke:rgb(246,147,147);stroke-width:0.01" />
<line x1="-0.0516568" y1="-0.153192" x2="-0.068184" y2="-0.14776" style="stroke:rgb(246,147,147);stroke-width:0.01" />
<line x1="0.0359074" y1="-0.10941" x2="-0.0280327" y2="-0.0832962" style="stroke:rgb(246,147,147);stroke-width:0.01" />
<line x1="-0.104194" y1="-0.179461" x2="-0.143042" y2="-0.133049" style="stroke:rgb(246,147,147);stroke-width:0.01" />
<line x1="0.048571" y1="-0.0609822" x2="-0.10671" y2="0.0430071" style="stroke:rgb(246,147,147);stroke-width:0.01" />
<line x1="-0.0603945" y1="-0.157561" x2="-0.068184" y2="-0.14776" style="stroke:rgb(246,147,147);stroke-width:0.01" />
<line x1="-0.0828225" y1="-0.168775" x2="-0.134172" y2="-0.166973" style="stroke:rgb(246,147,147);stroke-width:0.01" />
<line x1="-0.0848465" y1="-0.168704" x2="-0.117195" y2="-0.124033" style="stroke:rgb(246,147,147);stroke-width:0.01" />
<line x1="-0.0810541" y1="0.0138759" x2="-0.10671" y2="0.0430071" style="stroke:rgb(246,147,147);stroke-width:0.01" />
<line x1="-0.113124" y1="-0.183926" x2="-0.143476" y2="-0.136041" style="stroke:rgb(246,147,147);stroke-width:0.01" />
<line x1="-0.153695" y1="-0.076904" x2="0.048571" y2="-0.0609822" style="stroke:rgb(246,147,147);stroke-width:0.01" />
<line x1="-0.136928" y1="0.00851371" x2="-0.115553" y2="0.0085702" style="stroke:rgb(246,147,147);stroke-width:0.01" />
<line x1="-0.123601" y1="-0.0939557" x2="-0.141398" y2="-0.0533564" style="stroke:rgb(246,147,147);stroke-width:0.01" />
<line x1="-0.113124" y1="-0.183926" x2="-0.153695" y2="-0.076904" style="stroke:rgb(246,147,147);stroke-width:0.01" />
<line x1="0.377314" y1="0.16241" x2="0.103939" y2="0.283465" style="stroke:rgb(246,147,147);stroke-width:0.01" />
<line x1="0.128247" y1="0.243714" x2="0.103939" y2="0.283465" style="stroke:rgb(246,147,147);stroke-width:0.01" />
<line x1="0.123358" y1="0.225017" x2="0.116555" y2="0.237167" style="stroke:rgb(246,147,147);stroke-width:0.01" />
<line x1="-0.134172" y1="-0.166973" x2="-0.143476" y2="-0.136041" style="stroke:rgb(246,147,147);stroke-width:0.01" />
<line x1="-0.140198" y1="0.00478002" x2="0.372809" y2="0.0836762" style="stroke:rgb(246,147,147);stroke-width:0.01" />
<line x1="-0.0603945" y1="-0.157561" x2="-0.0639949" y2="-0.143792" style="stroke:rgb(246,147,147);stroke-width:0.01" />
<line x1="0.331348" y1="0.223591" x2="0.0729786" y2="0.248124" style="stroke:rgb(246,147,147);stroke-width:0.01" />
<line x1="-0.104194" y1="-0.179461" x2="-0.117195" y2="-0.124033" style="stroke:rgb(246,147,147);stroke-width:0.01" />
<line x1="0.390131" y1="0.386402" x2="0.35002" y2="0.420233" style="stroke:rgb(246,147,147);stroke-width:0.01" />
<line x1="0.25987" y1="0.381812" x2="0.259274" y2="0.383172" style="stroke:rgb(246,147,147);stroke-width:0.01" />
<line x1="0.372809" y1="0.0836762" x2="0.259274" y2="0.383172" style="stroke:rgb(246,147,147);stroke-width:0.01" />
<line x1="0.0994182" y1="0.133467" x2="0.0729786" y2="0.248124" style="stroke:rgb(246,147,147);stroke-width:0.01" />
<line x1="-0.113124" y1="-0.183926" x2="0.0359074" y2="-0.10941" style="stroke:rgb(246,147,147);stroke-width:0.01" />
<line x1="-0.115553" y1="0.0085702" x2="0.377314" y2="0.16241" style="stroke:rgb(246,147,147);stroke-width:0.01" />
<line x1="-0.123601" y1="-0.0939557" x2="-0.136928" y2="0.00851371" style="stroke:rgb(246,147,147);stroke-width:0.01" />
<line x1="-0.143476" y1="-0.136041" x2="-0.0280327" y2="-0.0832962" style="stroke:rgb(246,147,147);stroke-width:0.01" />
<line x1="-0.143042" y1="-0.133049" x2="-0.140198" y2="0.00478002" style="stroke:rgb(246,147,147);stroke-width:0.01" />
<line x1="0.372809" y1="0.0836762" x2="0.390131" y2="0.386402" style="stroke:rgb(246,147,147);stroke-width:0.01" />
<line x1="0.254109" y1="0.381062" x2="0.25987" y2="0.381812" style="stroke:rgb(246,147,147);stroke-width:0.01" />
<line x1="0.331348" y1="0.223591" x2="0.35002" y2="0.420233" style="stroke:rgb(246,147,147);stroke-width:0.01" />
<line x1="0.116555" y1="0.237167" x2="0.128247" y2="0.243714" style="stroke:rgb(246,147,147);stroke-width:0.01" />
<line x1="-0.0287435" y1="0.132007" x2="0.123358" y2="0.225017" style="stroke:rgb(246,147,147);stroke-width:0.01" />
<line x1="0.0359074" y1="-0.10941" x2="0.153408" y2="0.339935" style="stroke:rgb(246,147,147);stroke-width:0.01" />
<line x1="0.153408" y1="0.339935" x2="0.35002" y2="0.420233" style="stroke:rgb(246,147,147);stroke-width:0.01" />
<line x1="-0.0787221" y1="0.074956" x2="0.390131" y2="0.386402" style="stroke:rgb(246,147,147);stroke-width:0.01" />
<line x1="-0.0848465" y1="-0.168704" x2="-0.0639949" y2="-0.143792" style="stroke:rgb(246,147,147);stroke-width:0.01" />
<line x1="-0.0516568" y1="-0.153192" x2="-0.0280327" y2="-0.0832962" style="stroke:rgb(246,147,147);stroke-width:0.01" />
<line x1="-0.143042" y1="-0.133049" x2="0.0994182" y2="0.133467" style="stroke:rgb(246,147,147);stroke-width:0.01" />
<line x1="-0.0828225" y1="-0.168775" x2="-0.068184" y2="-0.14776" style="stroke:rgb(246,147,147);stroke-width:0.01" />
<line x1="-0.117062" y1="-0.124778" x2="-0.116707" y2="-0.12381" style="stroke:rgb(246,147,147);stroke-width:0.01" />
<line x1="0.0635337" y1="0.237343" x2="0.254109" y2="0.381062" style="stroke:rgb(246,147,147);stroke-width:0.01" />
<line x1="-0.134172" y1="-0.166973" x2="-0.118041" y2="-0.124419" style="stroke:rgb(246,147,147);stroke-width:0.01" />
<line x1="-0.00172334" y1="0.162851" x2="0.25987" y2="0.381812" style="stroke:rgb(246,147,147);stroke-width:0.01" />
<line x1="-0.0810541" y1="0.0138759" x2="-0.0287435" y2="0.132007" style="stroke:rgb(246,147,147);stroke-width:0.01" />
<line x1="-0.123601" y1="-0.0939557" x2="0.0635337" y2="0.237343" style="stroke:rgb(246,147,147);stroke-width:0.01" />
<line x1="-0.141398" y1="-0.0533564" x2="-0.0787221" y2="0.074956" style="stroke:rgb(246,147,147);stroke-width:0.01" />
<line x1="-0.140198" y1="0.00478002" x2="0.153408" y2="0.339935" style="stroke:rgb(246,147,147);stroke-width:0.01" />
<line x1="-0.153695" y1="-0.076904" x2="-0.00172334" y2="0.162851" style="stroke:rgb(246,147,147);stroke-width:0.01" />
</g>
</svg>
