<svg xmlns="http://www.w3.org/2000/svg" viewBox="-1.5 -1.5 3 3">
<g transform="scale(1, -1)">
<path d="M-0.214093 -0.243811 L-0.090512 -0.212916 L0.112617 0.035192 L0.305302 0.069011 L0.313051 0.082890 L0.211536 0.311352 L0.129952 0.220998 L0.093632 0.252479 L-0.173952 -0.015105 L-0.200618 -0.167038 L-0.217473 -0.160015 L-0.269443 -0.173035 z " fill="rgb(245,195,195)" />
<path d="M-0.965512 -0.306666 L0.034488 -0.306666 L0.034488 0.693334 L-0.965512 0.693334  z" fill="none" stroke="rgb(128,128,128)" stroke-width="0.01" />
<line x1="0.305302" y1="0.0690108" x2="0.313051" y2="0.0828899" style="stroke:rgb(246,147,147);stroke-width:0.01" />
<line x1="-0.090512" y1="-0.212916" x2="0.127248" y2="0.0530628" style="stroke:rgb(246,147,147);stroke-width:0.01" />
<line x1="0.12553" y1="0.056285" x2="0.127936" y2="0.0600506" style="stroke:rgb(246,147,147);stroke-width:0.01" />
<line x1="-0.119255" y1="-0.220101" x2="-0.111442" y2="-0.204195" style="stroke:rgb(246,147,147);stroke-width:0.01" />
<line x1="-0.0661505" y1="0.00381533" x2="0.211536" y2="0.311352" style="stroke:rgb(246,147,147);stroke-width:0.01" />
<line x1="0.0864603" y1="0.12954" x2="0.0959136" y2="0.153514" style="stroke:rgb(246,147,147);stroke-width:0.01" />
<line x1="-0.170771" y1="-0.169343" x2="0.0947314" y2="0.0351193" style="stroke:rgb(246,147,147);stroke-width:0.01" />
<line x1="0.121701" y1="0.036786" x2="0.211536" y2="0.311352" style="stroke:rgb(246,147,147);stroke-width:0.01" />
<line x1="-0.122578" y1="-0.220932" x2="0.0166026" y2="0.14671" style="stroke:rgb(246,147,147);stroke-width:0.01" />
<line x1="-0.116726" y1="-0.219469" x2="-0.111442" y2="-0.204195" style="stroke:rgb(246,147,147);stroke-width:0.01" />
<line x1="-0.173952" y1="-0.0151054" x2="0.0936325" y2="0.252479" style="stroke:rgb(246,147,147);stroke-width:0.01" />
<line x1="-0.167574" y1="-0.0995663" x2="0.133244" y2="0.114023" style="stroke:rgb(246,147,147);stroke-width:0.01" />
<line x1="0.0770082" y1="0.147263" x2="0.141438" y2="0.197325" style="stroke:rgb(246,147,147);stroke-width:0.01" />
<line x1="0.115193" y1="0.0756653" x2="0.130307" y2="0.0841652" style="stroke:rgb(246,147,147);stroke-width:0.01" />
<line x1="0.115193" y1="0.0756653" x2="0.130218" y2="0.083252" style="stroke:rgb(246,147,147);stroke-width:0.01" />
<line x1="-0.214093" y1="-0.243811" x2="-0.173952" y2="-0.0151054" style="stroke:rgb(246,147,147);stroke-width:0.01" />
<line x1="-0.214093" y1="-0.243811" x2="-0.090512" y2="-0.212916" style="stroke:rgb(246,147,147);stroke-width:0.01" />
<line x1="0.127248" y1="0.0530628" x2="0.141438" y2="0.197325" style="stroke:rgb(246,147,147);stroke-width:0.01" />
<line x1="-0.00319726" y1="-0.106267" x2="0.0166026" y2="0.14671" style="stroke:rgb(246,147,147);stroke-width:0.01" />
<line x1="-0.199753" y1="-0.162109" x2="-0.00319726" y2="-0.106267" style="stroke:rgb(246,147,147);stroke-width:0.01" />
<line x1="-0.269443" y1="-0.173035" x2="-0.217473" y2="-0.160015" style="stroke:rgb(246,147,147);stroke-width:0.01" />
<line x1="-0.17372" y1="-0.233718" x2="-0.167574" y2="-0.0995663" style="stroke:rgb(246,147,147);stroke-width:0.01" />
<line x1="-0.0384053" y1="0.00868503" x2="-0.0375355" y2="0.0355063" style="stroke:rgb(246,147,147);stroke-width:0.01" />
<line x1="-0.0451236" y1="0.00750586" x2="-0.0430438" y2="0.115802" style="stroke:rgb(246,147,147);stroke-width:0.01" />
<line x1="0.0770082" y1="0.147263" x2="0.0959136" y2="0.153514" style="stroke:rgb(246,147,147);stroke-width:0.01" />
<line x1="-0.173952" y1="-0.0151054" x2="0.305302" y2="0.0690108" style="stroke:rgb(246,147,147);stroke-width:0.01" />
<line x1="-0.0534004" y1="0.00605316" x2="-0.0682406" y2="0.0906056" style="stroke:rgb(246,147,147);stroke-width:0.01" />
<line x1="-0.1692" y1="-0.180129" x2="-0.269443" y2="-0.173035" style="stroke:rgb(246,147,147);stroke-width:0.01" />
<line x1="-0.0375355" y1="0.0355063" x2="0.313051" y2="0.0828899" style="stroke:rgb(246,147,147);stroke-width:0.01" />
<line x1="-0.0451236" y1="0.00750586" x2="-0.0745976" y2="0.0842486" style="stroke:rgb(246,147,147);stroke-width:0.01" />
<line x1="-0.0384053" y1="0.00868503" x2="-0.070296" y2="0.0885503" style="stroke:rgb(246,147,147);stroke-width:0.01" />
<line x1="-0.17372" y1="-0.233718" x2="-0.217473" y2="-0.160015" style="stroke:rgb(246,147,147);stroke-width:0.01" />
<line x1="0.127561" y1="0.0562396" x2="0.12553" y2="0.056285" style="stroke:rgb(246,147,147);stroke-width:0.01" />
<line x1="-0.214093" y1="-0.243811" x2="-0.269443" y2="-0.173035" style="stroke:rgb(246,147,147);stroke-width:0.01" />
<line x1="-0.090512" y1="-0.212916" x2="-0.217473" y2="-0.160015" style="stroke:rgb(246,147,147);stroke-width:0.01" />
<line x1="-0.0430438" y1="0.115802" x2="0.133753" y2="0.119198" style="stroke:rgb(246,147,147);stroke-width:0.01" />
<line x1="-0.0310795" y1="-0.140323" x2="-0.167574" y2="-0.0995663" style="stroke:rgb(246,147,147);stroke-width:0.01" />
<line x1="0.127936" y1="0.0600506" x2="0.112581" y2="0.0993518" style="stroke:rgb(246,147,147);stroke-width:0.01" />
<line x1="-0.0310795" y1="-0.140323" x2="-0.124169" y2="0.0346774" style="stroke:rgb(246,147,147);stroke-width:0.01" />
<line x1="-0.119255" y1="-0.220101" x2="-0.199753" y2="-0.162109" style="stroke:rgb(246,147,147);stroke-width:0.01" />
<line x1="-0.122578" y1="-0.220932" x2="-0.1692" y2="-0.180129" style="stroke:rgb(246,147,147);stroke-width:0.01" />
<line x1="-0.116726" y1="-0.219469" x2="-0.170771" y2="-0.169343" style="stroke:rgb(246,147,147);stroke-width:0.01" />
<line x1="0.127248" y1="0.0530628" x2="0.0770082" y2="0.147263" style="stroke:rgb(246,147,147);stroke-width:0.01" />
<line x1="0.127561" y1="0.0562396" x2="-0.0682406" y2="0.0906056" style="stroke:rgb(246,147,147);stroke-width:0.01" />
<line x1="0.313051" y1="0.0828899" x2="0.211536" y2="0.311352" style="stroke:rgb(246,147,147);stroke-width:0.01" />
<line x1="0.0983874" y1="0.0178114" x2="0.0166026" y2="0.14671" style="stroke:rgb(246,147,147);stroke-width:0.01" />
<line x1="0.100474" y1="0.0203605" x2="0.069062" y2="0.0684519" style="stroke:rgb(246,147,147);stroke-width:0.01" />
<line x1="-0.0661505" y1="0.00381533" x2="-0.124169" y2="0.0346774" style="stroke:rgb(246,147,147);stroke-width:0.01" />
<line x1="0.133753" y1="0.119198" x2="0.0864603" y2="0.12954" style="stroke:rgb(246,147,147);stroke-width:0.01" />
<line x1="0.0983874" y1="0.0178114" x2="-0.0745976" y2="0.0842486" style="stroke:rgb(246,147,147);stroke-width:0.01" />
<line x1="0.0947314" y1="0.0351193" x2="0.069062" y2="0.0684519" style="stroke:rgb(246,147,147);stroke-width:0.01" />
<line x1="0.100474" y1="0.0203605" x2="-0.070296" y2="0.0885503" style="stroke:rgb(246,147,147);stroke-width:0.01" />
<line x1="0.121701" y1="0.036786" x2="0.0147263" y2="0.173573" style="stroke:rgb(246,147,147);stroke-width:0.01" />
<line x1="0.133244" y1="0.114023" x2="0.0959136" y2="0.153514" style="stroke:rgb(246,147,147);stroke-width:0.01" />
<line x1="0.141438" y1="0.197325" x2="0.0936325" y2="0.252479" style="stroke:rgb(246,147,147);stroke-width:0.01" />
<line x1="0.130307" y1="0.0841652" x2="0.112581" y2="0.0993518" style="stroke:rgb(246,147,147);stroke-width:0.01" />
<line x1="0.130218" y1="0.083252" x2="0.0147263" y2="0.173573" style="stroke:rgb(246,147,147);stroke-width:0.01" />
<line x1="0.305302" y1="0.0690108" x2="0.0936325" y2="0.252479" style="stroke:rgb(246,147,147);stroke-width:0.01" />
</g>
</svg>
