<svg xmlns="http://www.w3.org/2000/svg" viewBox="-1.5 -1.5 3 3">
<g transform="scale(1, -1)">
<path d="M0.751419 0.062855 L0.875000 0.093750 L1.078129 0.341857 L1.270814 0.375677 L1.278563 0.389556 L1.177048 0.618018 L1.095464 0.527664 L1.059144 0.559144 L0.791560 0.291560 L0.764894 0.139628 L0.748039 0.146650 L0.696069 0.133630 z " fill="rgb(245,195,195)" />
<path d="M0.000000 0.000000 L1.000000 0.000000 L1.000000 1.000000 L0.000000 1.000000  z" fill="none" stroke="rgb(128,128,128)" stroke-width="0.01" />
<line x1="1.27081" y1="0.375677" x2="1.27856" y2="0.389556" style="stroke:rgb(246,147,147);stroke-width:0.01" />
<line x1="0.875" y1="0.09375" x2="1.09276" y2="0.359729" style="stroke:rgb(246,147,147);stroke-width:0.01" />
<line x1="1.09104" y1="0.362951" x2="1.09345" y2="0.366716" style="stroke:rgb(246,147,147);stroke-width:0.01" />
<line x1="0.846257" y1="0.0865644" x2="0.85407" y2="0.102471" style="stroke:rgb(246,147,147);stroke-width:0.01" />
<line x1="0.899361" y1="0.310481" x2="1.17705" y2="0.618018" style="stroke:rgb(246,147,147);stroke-width:0.01" />
<line x1="1.05197" y1="0.436206" x2="1.06143" y2="0.46018" style="stroke:rgb(246,147,147);stroke-width:0.01" />
<line x1="0.794741" y1="0.137323" x2="1.06024" y2="0.341785" style="stroke:rgb(246,147,147);stroke-width:0.01" />
<line x1="1.08721" y1="0.343452" x2="1.17705" y2="0.618018" style="stroke:rgb(246,147,147);stroke-width:0.01" />
<line x1="0.842934" y1="0.0857335" x2="0.982115" y2="0.453376" style="stroke:rgb(246,147,147);stroke-width:0.01" />
<line x1="0.848786" y1="0.0871965" x2="0.85407" y2="0.102471" style="stroke:rgb(246,147,147);stroke-width:0.01" />
<line x1="0.79156" y1="0.29156" x2="1.05914" y2="0.559144" style="stroke:rgb(246,147,147);stroke-width:0.01" />
<line x1="0.797938" y1="0.207099" x2="1.09876" y2="0.420689" style="stroke:rgb(246,147,147);stroke-width:0.01" />
<line x1="1.04252" y1="0.453929" x2="1.10695" y2="0.503991" style="stroke:rgb(246,147,147);stroke-width:0.01" />
<line x1="1.08071" y1="0.382331" x2="1.09582" y2="0.390831" style="stroke:rgb(246,147,147);stroke-width:0.01" />
<line x1="1.08071" y1="0.382331" x2="1.09573" y2="0.389918" style="stroke:rgb(246,147,147);stroke-width:0.01" />
<line x1="0.751419" y1="0.0628548" x2="0.79156" y2="0.29156" style="stroke:rgb(246,147,147);stroke-width:0.01" />
<line x1="0.751419" y1="0.0628548" x2="0.875" y2="0.09375" style="stroke:rgb(246,147,147);stroke-width:0.01" />
<line x1="1.09276" y1="0.359729" x2="1.10695" y2="0.503991" style="stroke:rgb(246,147,147);stroke-width:0.01" />
<line x1="0.962315" y1="0.200399" x2="0.982115" y2="0.453376" style="stroke:rgb(246,147,147);stroke-width:0.01" />
<line x1="0.765759" y1="0.144557" x2="0.962315" y2="0.200399" style="stroke:rgb(246,147,147);stroke-width:0.01" />
<line x1="0.696069" y1="0.13363" x2="0.748039" y2="0.14665" style="stroke:rgb(246,147,147);stroke-width:0.01" />
<line x1="0.791792" y1="0.0729481" x2="0.797938" y2="0.207099" style="stroke:rgb(246,147,147);stroke-width:0.01" />
<line x1="0.927107" y1="0.315351" x2="0.927977" y2="0.342172" style="stroke:rgb(246,147,147);stroke-width:0.01" />
<line x1="0.920388" y1="0.314172" x2="0.922468" y2="0.422468" style="stroke:rgb(246,147,147);stroke-width:0.01" />
<line x1="1.04252" y1="0.453929" x2="1.06143" y2="0.46018" style="stroke:rgb(246,147,147);stroke-width:0.01" />
<line x1="0.79156" y1="0.29156" x2="1.27081" y2="0.375677" style="stroke:rgb(246,147,147);stroke-width:0.01" />
<line x1="0.912112" y1="0.312719" x2="0.897271" y2="0.397271" style="stroke:rgb(246,147,147);stroke-width:0.01" />
<line x1="0.796312" y1="0.126537" x2="0.696069" y2="0.13363" style="stroke:rgb(246,147,147);stroke-width:0.01" />
<line x1="0.927977" y1="0.342172" x2="1.27856" y2="0.389556" style="stroke:rgb(246,147,147);stroke-width:0.01" />
<line x1="0.920388" y1="0.314172" x2="0.890914" y2="0.390914" style="stroke:rgb(246,147,147);stroke-width:0.01" />
<line x1="0.927107" y1="0.315351" x2="0.895216" y2="0.395216" style="stroke:rgb(246,147,147);stroke-width:0.01" />
<line x1="0.791792" y1="0.0729481" x2="0.748039" y2="0.14665" style="stroke:rgb(246,147,147);stroke-width:0.01" />
<line x1="1.09307" y1="0.362905" x2="1.09104" y2="0.362951" style="stroke:rgb(246,147,147);stroke-width:0.01" />
<line x1="0.751419" y1="0.0628548" x2="0.696069" y2="0.13363" style="stroke:rgb(246,147,147);stroke-width:0.01" />
<line x1="0.875" y1="0.09375" x2="0.748039" y2="0.14665" style="stroke:rgb(246,147,147);stroke-width:0.01" />
<line x1="0.922468" y1="0.422468" x2="1.09927" y2="0.425864" style="stroke:rgb(246,147,147);stroke-width:0.01" />
<line x1="0.934432" y1="0.166343" x2="0.797938" y2="0.207099" style="stroke:rgb(246,147,147);stroke-width:0.01" />
<line x1="1.09345" y1="0.366716" x2="1.07809" y2="0.406018" style="stroke:rgb(246,147,147);stroke-width:0.01" />
<line x1="0.934432" y1="0.166343" x2="0.841343" y2="0.341343" style="stroke:rgb(246,147,147);stroke-width:0.01" />
<line x1="0.846257" y1="0.0865644" x2="0.765759" y2="0.144557" style="stroke:rgb(246,147,147);stroke-width:0.01" />
<line x1="0.842934" y1="0.0857335" x2="0.796312" y2="0.126537" style="stroke:rgb(246,147,147);stroke-width:0.01" />
<line x1="0.848786" y1="0.0871965" x2="0.794741" y2="0.137323" style="stroke:rgb(246,147,147);stroke-width:0.01" />
<line x1="1.09276" y1="0.359729" x2="1.04252" y2="0.453929" style="stroke:rgb(246,147,147);stroke-width:0.01" />
<line x1="1.09307" y1="0.362905" x2="0.897271" y2="0.397271" style="stroke:rgb(246,147,147);stroke-width:0.01" />
<line x1="1.27856" y1="0.389556" x2="1.17705" y2="0.618018" style="stroke:rgb(246,147,147);stroke-width:0.01" />
<line x1="1.0639" y1="0.324477" x2="0.982115" y2="0.453376" style="stroke:rgb(246,147,147);stroke-width:0.01" />
<line x1="1.06599" y1="0.327026" x2="1.03457" y2="0.375118" style="stroke:rgb(246,147,147);stroke-width:0.01" />
<line x1="0.899361" y1="0.310481" x2="0.841343" y2="0.341343" style="stroke:rgb(246,147,147);stroke-width:0.01" />
<line x1="1.09927" y1="0.425864" x2="1.05197" y2="0.436206" style="stroke:rgb(246,147,147);stroke-width:0.01" />
<line x1="1.0639" y1="0.324477" x2="0.890914" y2="0.390914" style="stroke:rgb(246,147,147);stroke-width:0.01" />
<line x1="1.06024" y1="0.341785" x2="1.03457" y2="0.375118" style="stroke:rgb(246,147,147);stroke-width:0.01" />
<line x1="1.06599" y1="0.327026" x2="0.895216" y2="0.395216" style="stroke:rgb(246,147,147);stroke-width:0.01" />
<line x1="1.08721" y1="0.343452" x2="0.980238" y2="0.480238" style="stroke:rgb(246,147,147);stroke-width:0.01" />
<line x1="1.09876" y1="0.420689" x2="1.06143" y2="0.46018" style="stroke:rgb(246,147,147);stroke-width:0.01" />
<line x1="1.10695" y1="0.503991" x2="1.05914" y2="0.559144" style="stroke:rgb(246,147,147);stroke-width:0.01" />
<line x1="1.09582" y1="0.390831" x2="1.07809" y2="0.406018" style="stroke:rgb(246,147,147);stroke-width:0.01" />
<line x1="1.09573" y1="0.389918" x2="0.980238" y2="0.480238" style="stroke:rgb(246,147,147);stroke-width:0.01" />
<line x1="1.27081" y1="0.375677" x2="1.05914" y2="0.559144" style="stroke:rgb(246,147,147);stroke-width:0.01" />
</g>
</svg>
