<svg xmlns="http://www.w3.org/2000/svg" viewBox="-1.5 -1.5 3 3">
<g transform="scale(1, -1)">
<path d="M1.445235 -1.497880 L1.412144 -1.411902 L1.170588 -1.005882 L1.090230 -0.885345 L0.985328 -0.911276 L0.979948 -0.935188 L1.037909 -1.052981 L1.056343 -1.097224 L0.990148 -1.130961 L1.040915 -1.230573 L1.120797 -1.229959 L1.304727 -1.458068 z " fill="rgb(245,195,195)" />
<path d="M0.000000 0.000000 L1.000000 0.000000 L1.000000 1.000000 L0.000000 1.000000  z" fill="none" stroke="rgb(128,128,128)" stroke-width="0.01" />
<line x1="1.22846" y1="-1.36348" x2="1.29751" y2="-1.34276" style="stroke:rgb(246,147,147);stroke-width:0.01" />
<line x1="1.26323" y1="-1.4066" x2="1.30136" y2="-1.40421" style="stroke:rgb(246,147,147);stroke-width:0.01" />
<line x1="1.12557" y1="-1.19908" x2="1.2518" y2="-1.14238" style="stroke:rgb(246,147,147);stroke-width:0.01" />
<line x1="1.13107" y1="-1.24269" x2="1.29767" y2="-1.21949" style="stroke:rgb(246,147,147);stroke-width:0.01" />
<line x1="1.12692" y1="-1.23755" x2="1.2518" y2="-1.14238" style="stroke:rgb(246,147,147);stroke-width:0.01" />
<line x1="0.990148" y1="-1.13096" x2="1.18571" y2="-1.03129" style="stroke:rgb(246,147,147);stroke-width:0.01" />
<line x1="1.1094" y1="-1.21583" x2="1.1148" y2="-1.21549" style="stroke:rgb(246,147,147);stroke-width:0.01" />
<line x1="1.12692" y1="-1.23755" x2="1.13571" y2="-1.23005" style="stroke:rgb(246,147,147);stroke-width:0.01" />
<line x1="1.06378" y1="-1.11507" x2="1.21812" y2="-1.08578" style="stroke:rgb(246,147,147);stroke-width:0.01" />
<line x1="1.06378" y1="-1.11507" x2="1.18571" y2="-1.03129" style="stroke:rgb(246,147,147);stroke-width:0.01" />
<line x1="1.04092" y1="-1.23057" x2="1.30307" y2="-1.22856" style="stroke:rgb(246,147,147);stroke-width:0.01" />
<line x1="1.08561" y1="-0.891586" x2="1.09269" y2="-0.889041" style="stroke:rgb(246,147,147);stroke-width:0.01" />
<line x1="0.985328" y1="-0.911276" x2="1.09023" y2="-0.885345" style="stroke:rgb(246,147,147);stroke-width:0.01" />
<line x1="1.15813" y1="-0.989124" x2="1.15937" y2="-0.989048" style="stroke:rgb(246,147,147);stroke-width:0.01" />
<line x1="1.29091" y1="-1.22865" x2="1.29767" y2="-1.21949" style="stroke:rgb(246,147,147);stroke-width:0.01" />
<line x1="1.13937" y1="-1.02981" x2="1.18462" y2="-1.02946" style="stroke:rgb(246,147,147);stroke-width:0.01" />
<line x1="1.12557" y1="-1.19908" x2="1.21812" y2="-1.08578" style="stroke:rgb(246,147,147);stroke-width:0.01" />
<line x1="1.44523" y1="-1.49788" x2="1.30473" y2="-1.45807" style="stroke:rgb(246,147,147);stroke-width:0.01" />
<line x1="1.00818" y1="-0.981641" x2="1.09269" y2="-0.889041" style="stroke:rgb(246,147,147);stroke-width:0.01" />
<line x1="1.15859" y1="-0.987881" x2="1.00818" y2="-0.981641" style="stroke:rgb(246,147,147);stroke-width:0.01" />
<line x1="1.31025" y1="-1.24063" x2="1.10783" y2="-1.19509" style="stroke:rgb(246,147,147);stroke-width:0.01" />
<line x1="1.22846" y1="-1.36348" x2="1.30307" y2="-1.22856" style="stroke:rgb(246,147,147);stroke-width:0.01" />
<line x1="1.08561" y1="-0.891586" x2="1.09023" y2="-0.885345" style="stroke:rgb(246,147,147);stroke-width:0.01" />
<line x1="1.11491" y1="-1.19641" x2="1.09536" y2="-1.19087" style="stroke:rgb(246,147,147);stroke-width:0.01" />
<line x1="1.09536" y1="-1.19087" x2="1.18462" y2="-1.02946" style="stroke:rgb(246,147,147);stroke-width:0.01" />
<line x1="1.04092" y1="-1.23057" x2="1.15937" y2="-0.989048" style="stroke:rgb(246,147,147);stroke-width:0.01" />
<line x1="1.10783" y1="-1.19509" x2="1.18444" y2="-1.0302" style="stroke:rgb(246,147,147);stroke-width:0.01" />
<line x1="1.13107" y1="-1.24269" x2="1.13571" y2="-1.23005" style="stroke:rgb(246,147,147);stroke-width:0.01" />
<line x1="1.15813" y1="-0.989124" x2="1.15859" y2="-0.987881" style="stroke:rgb(246,147,147);stroke-width:0.01" />
<line x1="1.26056" y1="-1.30543" x2="1.11816" y2="-1.22669" style="stroke:rgb(246,147,147);stroke-width:0.01" />
<line x1="1.26323" y1="-1.4066" x2="1.31025" y2="-1.24063" style="stroke:rgb(246,147,147);stroke-width:0.01" />
<line x1="1.18444" y1="-1.0302" x2="0.979948" y2="-0.935188" style="stroke:rgb(246,147,147);stroke-width:0.01" />
<line x1="1.1094" y1="-1.21583" x2="1.14217" y2="-1.1002" style="stroke:rgb(246,147,147);stroke-width:0.01" />
<line x1="1.29751" y1="-1.34276" x2="1.10187" y2="-1.20648" style="stroke:rgb(246,147,147);stroke-width:0.01" />
<line x1="0.979948" y1="-0.935188" x2="0.985328" y2="-0.911276" style="stroke:rgb(246,147,147);stroke-width:0.01" />
<line x1="1.30473" y1="-1.45807" x2="1.10187" y2="-1.20648" style="stroke:rgb(246,147,147);stroke-width:0.01" />
<line x1="1.30473" y1="-1.45807" x2="1.29751" y2="-1.34276" style="stroke:rgb(246,147,147);stroke-width:0.01" />
<line x1="1.41214" y1="-1.4119" x2="0.985328" y2="-0.911276" style="stroke:rgb(246,147,147);stroke-width:0.01" />
<line x1="1.44523" y1="-1.49788" x2="1.14217" y2="-1.1002" style="stroke:rgb(246,147,147);stroke-width:0.01" />
<line x1="1.04092" y1="-1.23057" x2="0.990148" y2="-1.13096" style="stroke:rgb(246,147,147);stroke-width:0.01" />
<line x1="1.29091" y1="-1.22865" x2="1.13937" y2="-1.02981" style="stroke:rgb(246,147,147);stroke-width:0.01" />
<line x1="1.17059" y1="-1.00588" x2="1.08561" y2="-0.891586" style="stroke:rgb(246,147,147);stroke-width:0.01" />
<line x1="1.10783" y1="-1.19509" x2="0.979948" y2="-0.935188" style="stroke:rgb(246,147,147);stroke-width:0.01" />
<line x1="1.11816" y1="-1.22669" x2="1.1148" y2="-1.21549" style="stroke:rgb(246,147,147);stroke-width:0.01" />
<line x1="1.10187" y1="-1.20648" x2="1.00818" y2="-0.981641" style="stroke:rgb(246,147,147);stroke-width:0.01" />
<line x1="1.17059" y1="-1.00588" x2="1.09023" y2="-0.885345" style="stroke:rgb(246,147,147);stroke-width:0.01" />
<line x1="1.41214" y1="-1.4119" x2="1.17059" y2="-1.00588" style="stroke:rgb(246,147,147);stroke-width:0.01" />
<line x1="1.44523" y1="-1.49788" x2="1.41214" y2="-1.4119" style="stroke:rgb(246,147,147);stroke-width:0.01" />
</g>
</svg>
