<svg xmlns="http://www.w3.org/2000/svg" viewBox="-1.5 -1.5 3 3">
<g transform="scale(1, -1)">
<path d="M0.309042 -0.343943 L0.275951 -0.257965 L0.034396 0.148054 L-0.045963 0.268591 L-0.150864 0.242661 L-0.156245 0.218749 L-0.098284 0.100956 L-0.079849 0.056712 L-0.146045 0.022976 L-0.095277 -0.076637 L-0.015396 -0.076022 L0.168534 -0.304132 z " fill="rgb(245,195,195)" />
<path d="M-1.136193 1.153937 L-0.136193 1.153937 L-0.136193 2.153937 L-1.136193 2.153937  z" fill="none" stroke="rgb(128,128,128)" stroke-width="0.01" />
<line x1="0.0922665" y1="-0.209545" x2="0.161321" y2="-0.188827" style="stroke:rgb(246,147,147);stroke-width:0.01" />
<line x1="0.127033" y1="-0.252661" x2="0.165165" y2="-0.250276" style="stroke:rgb(246,147,147);stroke-width:0.01" />
<line x1="-0.0106205" y1="-0.0451441" x2="0.115604" y2="0.0115555" style="stroke:rgb(246,147,147);stroke-width:0.01" />
<line x1="-0.00512745" y1="-0.0887571" x2="0.161478" y2="-0.0655519" style="stroke:rgb(246,147,147);stroke-width:0.01" />
<line x1="-0.00927544" y1="-0.0836128" x2="0.115604" y2="0.0115555" style="stroke:rgb(246,147,147);stroke-width:0.01" />
<line x1="-0.146045" y1="0.022976" x2="0.0495141" y2="0.122642" style="stroke:rgb(246,147,147);stroke-width:0.01" />
<line x1="-0.0267881" y1="-0.0618936" x2="-0.0213911" y2="-0.061556" style="stroke:rgb(246,147,147);stroke-width:0.01" />
<line x1="-0.00927544" y1="-0.0836128" x2="-0.000485029" y2="-0.0761184" style="stroke:rgb(246,147,147);stroke-width:0.01" />
<line x1="-0.0724119" y1="0.0388625" x2="0.0819319" y2="0.0681527" style="stroke:rgb(246,147,147);stroke-width:0.01" />
<line x1="-0.0724119" y1="0.0388625" x2="0.0495141" y2="0.122642" style="stroke:rgb(246,147,147);stroke-width:0.01" />
<line x1="-0.0952775" y1="-0.0766366" x2="0.166873" y2="-0.074621" style="stroke:rgb(246,147,147);stroke-width:0.01" />
<line x1="-0.0505817" y1="0.26235" x2="-0.0434986" y2="0.264895" style="stroke:rgb(246,147,147);stroke-width:0.01" />
<line x1="-0.150864" y1="0.242661" x2="-0.0459627" y2="0.268591" style="stroke:rgb(246,147,147);stroke-width:0.01" />
<line x1="0.0219359" y1="0.164813" x2="0.0231727" y2="0.164888" style="stroke:rgb(246,147,147);stroke-width:0.01" />
<line x1="0.154715" y1="-0.0747145" x2="0.161478" y2="-0.0655519" style="stroke:rgb(246,147,147);stroke-width:0.01" />
<line x1="0.00318188" y1="0.124126" x2="0.0484241" y2="0.124474" style="stroke:rgb(246,147,147);stroke-width:0.01" />
<line x1="-0.0106205" y1="-0.0451441" x2="0.0819319" y2="0.0681527" style="stroke:rgb(246,147,147);stroke-width:0.01" />
<line x1="0.309042" y1="-0.343943" x2="0.168534" y2="-0.304132" style="stroke:rgb(246,147,147);stroke-width:0.01" />
<line x1="-0.128009" y1="0.172295" x2="-0.0434986" y2="0.264895" style="stroke:rgb(246,147,147);stroke-width:0.01" />
<line x1="0.0223944" y1="0.166056" x2="-0.128009" y2="0.172295" style="stroke:rgb(246,147,147);stroke-width:0.01" />
<line x1="0.174057" y1="-0.0866967" x2="-0.0283588" y2="-0.041153" style="stroke:rgb(246,147,147);stroke-width:0.01" />
<line x1="0.0922665" y1="-0.209545" x2="0.166873" y2="-0.074621" style="stroke:rgb(246,147,147);stroke-width:0.01" />
<line x1="-0.0505817" y1="0.26235" x2="-0.0459627" y2="0.268591" style="stroke:rgb(246,147,147);stroke-width:0.01" />
<line x1="-0.0212858" y1="-0.0424742" x2="-0.0408288" y2="-0.0369368" style="stroke:rgb(246,147,147);stroke-width:0.01" />
<line x1="-0.0408288" y1="-0.0369368" x2="0.0484241" y2="0.124474" style="stroke:rgb(246,147,147);stroke-width:0.01" />
<line x1="-0.0952775" y1="-0.0766366" x2="0.0231727" y2="0.164888" style="stroke:rgb(246,147,147);stroke-width:0.01" />
<line x1="-0.0283588" y1="-0.041153" x2="0.0482514" y2="0.123737" style="stroke:rgb(246,147,147);stroke-width:0.01" />
<line x1="-0.00512745" y1="-0.0887571" x2="-0.000485029" y2="-0.0761184" style="stroke:rgb(246,147,147);stroke-width:0.01" />
<line x1="0.0219359" y1="0.164813" x2="0.0223944" y2="0.166056" style="stroke:rgb(246,147,147);stroke-width:0.01" />
<line x1="0.124366" y1="-0.151493" x2="-0.0180315" y2="-0.0727536" style="stroke:rgb(246,147,147);stroke-width:0.01" />
<line x1="0.127033" y1="-0.252661" x2="0.174057" y2="-0.0866967" style="stroke:rgb(246,147,147);stroke-width:0.01" />
<line x1="0.0482514" y1="0.123737" x2="-0.156245" y2="0.218749" style="stroke:rgb(246,147,147);stroke-width:0.01" />
<line x1="-0.0267881" y1="-0.0618936" x2="0.0059753" y2="0.0537382" style="stroke:rgb(246,147,147);stroke-width:0.01" />
<line x1="0.161321" y1="-0.188827" x2="-0.0343246" y2="-0.052547" style="stroke:rgb(246,147,147);stroke-width:0.01" />
<line x1="-0.156245" y1="0.218749" x2="-0.150864" y2="0.242661" style="stroke:rgb(246,147,147);stroke-width:0.01" />
<line x1="0.168534" y1="-0.304132" x2="-0.0343246" y2="-0.052547" style="stroke:rgb(246,147,147);stroke-width:0.01" />
<line x1="0.168534" y1="-0.304132" x2="0.161321" y2="-0.188827" style="stroke:rgb(246,147,147);stroke-width:0.01" />
<line x1="0.275951" y1="-0.257965" x2="-0.150864" y2="0.242661" style="stroke:rgb(246,147,147);stroke-width:0.01" />
<line x1="0.309042" y1="-0.343943" x2="0.0059753" y2="0.0537382" style="stroke:rgb(246,147,147);stroke-width:0.01" />
<line x1="-0.0952775" y1="-0.0766366" x2="-0.146045" y2="0.022976" style="stroke:rgb(246,147,147);stroke-width:0.01" />
<line x1="0.154715" y1="-0.0747145" x2="0.00318188" y2="0.124126" style="stroke:rgb(246,147,147);stroke-width:0.01" />
<line x1="0.0343955" y1="0.148054" x2="-0.0505817" y2="0.26235" style="stroke:rgb(246,147,147);stroke-width:0.01" />
<line x1="-0.0283588" y1="-0.041153" x2="-0.156245" y2="0.218749" style="stroke:rgb(246,147,147);stroke-width:0.01" />
<line x1="-0.0180315" y1="-0.0727536" x2="-0.0213911" y2="-0.061556" style="stroke:rgb(246,147,147);stroke-width:0.01" />
<line x1="-0.0343246" y1="-0.052547" x2="-0.128009" y2="0.172295" style="stroke:rgb(246,147,147);stroke-width:0.01" />
<line x1="0.0343955" y1="0.148054" x2="-0.0459627" y2="0.268591" style="stroke:rgb(246,147,147);stroke-width:0.01" />
<line x1="0.275951" y1="-0.257965" x2="0.0343955" y2="0.148054" style="stroke:rgb(246,147,147);stroke-width:0.01" />
<line x1="0.309042" y1="-0.343943" x2="0.275951" y2="-0.257965" style="stroke:rgb(246,147,147);stroke-width:0.01" />
</g>
</svg>
