<svg xmlns="http://www.w3.org/2000/svg" viewBox="-1.5 -1.5 3 3">
<g transform="scale(1, -1)">
<path d="M0.147634 -0.202055 L0.380397 0.088995 L-0.271494 0.228575 L-0.306389 0.065603 L0.049851 -0.181118 z " fill="rgb(245,195,195)" />
<path d="M-6.646279 2.867589 L-5.646279 2.867589 L-5.646279 3.867589 L-6.646279 3.867589  z" fill="none" stroke="rgb(128,128,128)" stroke-width="0.01" />
<line x1="0.0261254" y1="-0.164687" x2="0.122221" y2="-0.103644" style="stroke:rgb(246,147,147);stroke-width:0.01" />
<line x1="0.128998" y1="-0.129887" x2="0.380397" y2="0.0889952" style="stroke:rgb(246,147,147);stroke-width:0.01" />
<line x1="-0.306389" y1="0.0656027" x2="-0.166097" y2="0.155581" style="stroke:rgb(246,147,147);stroke-width:0.01" />
<line x1="-0.276225" y1="0.206477" x2="-0.249015" y2="0.223762" style="stroke:rgb(246,147,147);stroke-width:0.01" />
<line x1="-0.288941" y1="0.147089" x2="-0.162845" y2="0.205312" style="stroke:rgb(246,147,147);stroke-width:0.01" />
<line x1="0.147634" y1="-0.202055" x2="0.380397" y2="0.0889952" style="stroke:rgb(246,147,147);stroke-width:0.01" />
<line x1="-0.168916" y1="-0.0296066" x2="-0.100659" y2="0.053551" style="stroke:rgb(246,147,147);stroke-width:0.01" />
<line x1="-0.237169" y1="0.017663" x2="-0.100659" y2="0.053551" style="stroke:rgb(246,147,147);stroke-width:0.01" />
<line x1="-0.217329" y1="0.00392249" x2="-0.135248" y2="0.107481" style="stroke:rgb(246,147,147);stroke-width:0.01" />
<line x1="-0.306389" y1="0.0656027" x2="-0.135248" y2="0.107481" style="stroke:rgb(246,147,147);stroke-width:0.01" />
<line x1="-0.217329" y1="0.00392249" x2="-0.118584" y2="0.168195" style="stroke:rgb(246,147,147);stroke-width:0.01" />
<line x1="-0.168916" y1="-0.0296066" x2="-0.118846" y2="0.0570106" style="stroke:rgb(246,147,147);stroke-width:0.01" />
<line x1="-0.272748" y1="0.201204" x2="-0.25853" y2="0.2258" style="stroke:rgb(246,147,147);stroke-width:0.01" />
<line x1="-0.272748" y1="0.201204" x2="-0.190007" y2="0.211128" style="stroke:rgb(246,147,147);stroke-width:0.01" />
<line x1="-0.118846" y1="0.0570106" x2="-0.306389" y2="0.0656027" style="stroke:rgb(246,147,147);stroke-width:0.01" />
<line x1="0.0138594" y1="-0.125002" x2="-0.0365103" y2="-0.121307" style="stroke:rgb(246,147,147);stroke-width:0.01" />
<line x1="0.147634" y1="-0.202055" x2="0.0498508" y2="-0.181118" style="stroke:rgb(246,147,147);stroke-width:0.01" />
<line x1="0.0261254" y1="-0.164687" x2="0.0293729" y2="-0.14919" style="stroke:rgb(246,147,147);stroke-width:0.01" />
<line x1="0.0293729" y1="-0.14919" x2="-0.00878217" y2="-0.140511" style="stroke:rgb(246,147,147);stroke-width:0.01" />
<line x1="-0.306389" y1="0.0656027" x2="-0.271494" y2="0.228575" style="stroke:rgb(246,147,147);stroke-width:0.01" />
<line x1="0.380397" y1="0.0889952" x2="-0.271494" y2="0.228575" style="stroke:rgb(246,147,147);stroke-width:0.01" />
<line x1="0.0138594" y1="-0.125002" x2="-0.083739" y2="-0.0885978" style="stroke:rgb(246,147,147);stroke-width:0.01" />
<line x1="0.122221" y1="-0.103644" x2="-0.306389" y2="0.0656027" style="stroke:rgb(246,147,147);stroke-width:0.01" />
<line x1="-0.237169" y1="0.017663" x2="-0.25853" y2="0.2258" style="stroke:rgb(246,147,147);stroke-width:0.01" />
<line x1="-0.118584" y1="0.168195" x2="-0.190007" y2="0.211128" style="stroke:rgb(246,147,147);stroke-width:0.01" />
<line x1="0.0498508" y1="-0.181118" x2="-0.306389" y2="0.0656027" style="stroke:rgb(246,147,147);stroke-width:0.01" />
<line x1="0.147634" y1="-0.202055" x2="0.122221" y2="-0.103644" style="stroke:rgb(246,147,147);stroke-width:0.01" />
<line x1="-0.083739" y1="-0.0885978" x2="-0.288941" y2="0.147089" style="stroke:rgb(246,147,147);stroke-width:0.01" />
<line x1="-0.0365103" y1="-0.121307" x2="-0.118846" y2="0.0570106" style="stroke:rgb(246,147,147);stroke-width:0.01" />
<line x1="0.128998" y1="-0.129887" x2="-0.162845" y2="0.205312" style="stroke:rgb(246,147,147);stroke-width:0.01" />
<line x1="-0.272748" y1="0.201204" x2="-0.276225" y2="0.206477" style="stroke:rgb(246,147,147);stroke-width:0.01" />
<line x1="-0.00878217" y1="-0.140511" x2="-0.249015" y2="0.223762" style="stroke:rgb(246,147,147);stroke-width:0.01" />
<line x1="0.0498508" y1="-0.181118" x2="-0.166097" y2="0.155581" style="stroke:rgb(246,147,147);stroke-width:0.01" />
</g>
</svg>
