<svg xmlns="http://www.w3.org/2000/svg" viewBox="-1.5 -1.5 3 3">
<g transform="scale(1, -1)">
<path d="M6.793914 -3.069644 L7.026677 -2.778594 L6.374786 -2.639013 L6.339891 -2.801986 L6.696130 -3.048707 z " fill="rgb(245,195,195)" />
<path d="M0.000000 0.000000 L1.000000 0.000000 L1.000000 1.000000 L0.000000 1.000000  z" fill="none" stroke="rgb(128,128,128)" stroke-width="0.01" />
<line x1="6.6724" y1="-3.03228" x2="6.7685" y2="-2.97123" style="stroke:rgb(246,147,147);stroke-width:0.01" />
<line x1="6.77528" y1="-2.99748" x2="7.02668" y2="-2.77859" style="stroke:rgb(246,147,147);stroke-width:0.01" />
<line x1="6.33989" y1="-2.80199" x2="6.48018" y2="-2.71201" style="stroke:rgb(246,147,147);stroke-width:0.01" />
<line x1="6.37005" y1="-2.66111" x2="6.39726" y2="-2.64383" style="stroke:rgb(246,147,147);stroke-width:0.01" />
<line x1="6.35734" y1="-2.7205" x2="6.48343" y2="-2.66228" style="stroke:rgb(246,147,147);stroke-width:0.01" />
<line x1="6.79391" y1="-3.06964" x2="7.02668" y2="-2.77859" style="stroke:rgb(246,147,147);stroke-width:0.01" />
<line x1="6.47736" y1="-2.8972" x2="6.54562" y2="-2.81404" style="stroke:rgb(246,147,147);stroke-width:0.01" />
<line x1="6.40911" y1="-2.84993" x2="6.54562" y2="-2.81404" style="stroke:rgb(246,147,147);stroke-width:0.01" />
<line x1="6.42895" y1="-2.86367" x2="6.51103" y2="-2.76011" style="stroke:rgb(246,147,147);stroke-width:0.01" />
<line x1="6.33989" y1="-2.80199" x2="6.51103" y2="-2.76011" style="stroke:rgb(246,147,147);stroke-width:0.01" />
<line x1="6.42895" y1="-2.86367" x2="6.5277" y2="-2.69939" style="stroke:rgb(246,147,147);stroke-width:0.01" />
<line x1="6.47736" y1="-2.8972" x2="6.52743" y2="-2.81058" style="stroke:rgb(246,147,147);stroke-width:0.01" />
<line x1="6.37353" y1="-2.66638" x2="6.38775" y2="-2.64179" style="stroke:rgb(246,147,147);stroke-width:0.01" />
<line x1="6.37353" y1="-2.66638" x2="6.45627" y2="-2.65646" style="stroke:rgb(246,147,147);stroke-width:0.01" />
<line x1="6.52743" y1="-2.81058" x2="6.33989" y2="-2.80199" style="stroke:rgb(246,147,147);stroke-width:0.01" />
<line x1="6.66014" y1="-2.99259" x2="6.60977" y2="-2.9889" style="stroke:rgb(246,147,147);stroke-width:0.01" />
<line x1="6.79391" y1="-3.06964" x2="6.69613" y2="-3.04871" style="stroke:rgb(246,147,147);stroke-width:0.01" />
<line x1="6.6724" y1="-3.03228" x2="6.67565" y2="-3.01678" style="stroke:rgb(246,147,147);stroke-width:0.01" />
<line x1="6.67565" y1="-3.01678" x2="6.6375" y2="-3.0081" style="stroke:rgb(246,147,147);stroke-width:0.01" />
<line x1="6.33989" y1="-2.80199" x2="6.37479" y2="-2.63901" style="stroke:rgb(246,147,147);stroke-width:0.01" />
<line x1="7.02668" y1="-2.77859" x2="6.37479" y2="-2.63901" style="stroke:rgb(246,147,147);stroke-width:0.01" />
<line x1="6.66014" y1="-2.99259" x2="6.56254" y2="-2.95619" style="stroke:rgb(246,147,147);stroke-width:0.01" />
<line x1="6.7685" y1="-2.97123" x2="6.33989" y2="-2.80199" style="stroke:rgb(246,147,147);stroke-width:0.01" />
<line x1="6.40911" y1="-2.84993" x2="6.38775" y2="-2.64179" style="stroke:rgb(246,147,147);stroke-width:0.01" />
<line x1="6.5277" y1="-2.69939" x2="6.45627" y2="-2.65646" style="stroke:rgb(246,147,147);stroke-width:0.01" />
<line x1="6.69613" y1="-3.04871" x2="6.33989" y2="-2.80199" style="stroke:rgb(246,147,147);stroke-width:0.01" />
<line x1="6.79391" y1="-3.06964" x2="6.7685" y2="-2.97123" style="stroke:rgb(246,147,147);stroke-width:0.01" />
<line x1="6.56254" y1="-2.95619" x2="6.35734" y2="-2.7205" style="stroke:rgb(246,147,147);stroke-width:0.01" />
<line x1="6.60977" y1="-2.9889" x2="6.52743" y2="-2.81058" style="stroke:rgb(246,147,147);stroke-width:0.01" />
<line x1="6.77528" y1="-2.99748" x2="6.48343" y2="-2.66228" style="stroke:rgb(246,147,147);stroke-width:0.01" />
<line x1="6.37353" y1="-2.66638" x2="6.37005" y2="-2.66111" style="stroke:rgb(246,147,147);stroke-width:0.01" />
<line x1="6.6375" y1="-3.0081" x2="6.39726" y2="-2.64383" style="stroke:rgb(246,147,147);stroke-width:0.01" />
<line x1="6.69613" y1="-3.04871" x2="6.48018" y2="-2.71201" style="stroke:rgb(246,147,147);stroke-width:0.01" />
</g>
</svg>
