<svg xmlns="http://www.w3.org/2000/svg" viewBox="-1.5 -1.5 3 3">
<g transform="scale(1, -1)">
<path d="M0.529222 0.394970 L0.544998 0.460682 L0.706850 0.560275 L0.726015 0.589023 L0.766413 0.697478 L0.776826 0.689879 L0.772626 0.676487 L0.787928 0.681893 L0.858665 0.787998 L0.854846 0.792956 L0.847496 0.790989 L0.605765 0.855725 L0.270735 0.561210 L0.154946 0.567673 L0.133936 0.542692 L0.167647 0.470588 z " fill="rgb(245,195,195)" />
<path d="M0.000000 0.000000 L1.000000 0.000000 L1.000000 1.000000 L0.000000 1.000000  z" fill="none" stroke="rgb(128,128,128)" stroke-width="0.01" />
<line x1="0.812" y1="0.718" x2="0.854846" y2="0.792956" style="stroke:rgb(246,147,147);stroke-width:0.01" />
<line x1="0.726015" y1="0.589023" x2="0.80544" y2="0.802252" style="stroke:rgb(246,147,147);stroke-width:0.01" />
<line x1="0.772626" y1="0.676487" x2="0.81156" y2="0.800613" style="stroke:rgb(246,147,147);stroke-width:0.01" />
<line x1="0.70685" y1="0.560275" x2="0.726015" y2="0.589023" style="stroke:rgb(246,147,147);stroke-width:0.01" />
<line x1="0.787928" y1="0.681893" x2="0.858665" y2="0.787998" style="stroke:rgb(246,147,147);stroke-width:0.01" />
<line x1="0.772626" y1="0.676487" x2="0.854084" y2="0.789225" style="stroke:rgb(246,147,147);stroke-width:0.01" />
<line x1="0.785464" y1="0.683576" x2="0.81156" y2="0.800613" style="stroke:rgb(246,147,147);stroke-width:0.01" />
<line x1="0.785464" y1="0.683576" x2="0.812" y2="0.718" style="stroke:rgb(246,147,147);stroke-width:0.01" />
<line x1="0.785464" y1="0.683576" x2="0.80544" y2="0.802252" style="stroke:rgb(246,147,147);stroke-width:0.01" />
<line x1="0.457409" y1="0.409989" x2="0.513243" y2="0.559885" style="stroke:rgb(246,147,147);stroke-width:0.01" />
<line x1="0.529222" y1="0.39497" x2="0.617966" y2="0.764619" style="stroke:rgb(246,147,147);stroke-width:0.01" />
<line x1="0.70685" y1="0.560275" x2="0.708862" y2="0.573" style="stroke:rgb(246,147,147);stroke-width:0.01" />
<line x1="0.529222" y1="0.39497" x2="0.555838" y2="0.544018" style="stroke:rgb(246,147,147);stroke-width:0.01" />
<line x1="0.322479" y1="0.438207" x2="0.359173" y2="0.556273" style="stroke:rgb(246,147,147);stroke-width:0.01" />
<line x1="0.708862" y1="0.573" x2="0.726015" y2="0.589023" style="stroke:rgb(246,147,147);stroke-width:0.01" />
<line x1="0.322479" y1="0.438207" x2="0.341511" y2="0.608968" style="stroke:rgb(246,147,147);stroke-width:0.01" />
<line x1="0.457409" y1="0.409989" x2="0.475918" y2="0.741581" style="stroke:rgb(246,147,147);stroke-width:0.01" />
<line x1="0.433632" y1="0.414962" x2="0.589973" y2="0.581276" style="stroke:rgb(246,147,147);stroke-width:0.01" />
<line x1="0.356005" y1="0.431196" x2="0.681729" y2="0.835382" style="stroke:rgb(246,147,147);stroke-width:0.01" />
<line x1="0.787928" y1="0.681893" x2="0.782852" y2="0.773696" style="stroke:rgb(246,147,147);stroke-width:0.01" />
<line x1="0.461294" y1="0.409176" x2="0.70685" y2="0.560275" style="stroke:rgb(246,147,147);stroke-width:0.01" />
<line x1="0.617966" y1="0.764619" x2="0.605765" y2="0.855725" style="stroke:rgb(246,147,147);stroke-width:0.01" />
<line x1="0.854805" y1="0.782207" x2="0.854084" y2="0.789225" style="stroke:rgb(246,147,147);stroke-width:0.01" />
<line x1="0.356005" y1="0.431196" x2="0.321353" y2="0.558384" style="stroke:rgb(246,147,147);stroke-width:0.01" />
<line x1="0.695151" y1="0.749481" x2="0.681729" y2="0.835382" style="stroke:rgb(246,147,147);stroke-width:0.01" />
<line x1="0.167647" y1="0.470588" x2="0.133936" y2="0.542692" style="stroke:rgb(246,147,147);stroke-width:0.01" />
<line x1="0.133936" y1="0.542692" x2="0.154946" y2="0.567673" style="stroke:rgb(246,147,147);stroke-width:0.01" />
<line x1="0.167647" y1="0.470588" x2="0.605765" y2="0.855725" style="stroke:rgb(246,147,147);stroke-width:0.01" />
<line x1="0.433632" y1="0.414962" x2="0.408718" y2="0.484908" style="stroke:rgb(246,147,147);stroke-width:0.01" />
<line x1="0.228048" y1="0.457956" x2="0.537857" y2="0.656854" style="stroke:rgb(246,147,147);stroke-width:0.01" />
<line x1="0.849014" y1="0.773522" x2="0.847433" y2="0.779988" style="stroke:rgb(246,147,147);stroke-width:0.01" />
<line x1="0.228048" y1="0.457956" x2="0.154946" y2="0.567673" style="stroke:rgb(246,147,147);stroke-width:0.01" />
<line x1="0.461294" y1="0.409176" x2="0.359173" y2="0.556273" style="stroke:rgb(246,147,147);stroke-width:0.01" />
<line x1="0.772626" y1="0.676487" x2="0.787928" y2="0.681893" style="stroke:rgb(246,147,147);stroke-width:0.01" />
<line x1="0.630158" y1="0.513084" x2="0.589973" y2="0.581276" style="stroke:rgb(246,147,147);stroke-width:0.01" />
<line x1="0.711799" y1="0.567698" x2="0.708862" y2="0.573" style="stroke:rgb(246,147,147);stroke-width:0.01" />
<line x1="0.630158" y1="0.513084" x2="0.537857" y2="0.656854" style="stroke:rgb(246,147,147);stroke-width:0.01" />
<line x1="0.617966" y1="0.764619" x2="0.58027" y2="0.833314" style="stroke:rgb(246,147,147);stroke-width:0.01" />
<line x1="0.811416" y1="0.717124" x2="0.782852" y2="0.773696" style="stroke:rgb(246,147,147);stroke-width:0.01" />
<line x1="0.847433" y1="0.779988" x2="0.854805" y2="0.782207" style="stroke:rgb(246,147,147);stroke-width:0.01" />
<line x1="0.529222" y1="0.39497" x2="0.167647" y2="0.470588" style="stroke:rgb(246,147,147);stroke-width:0.01" />
<line x1="0.408718" y1="0.484908" x2="0.321353" y2="0.558384" style="stroke:rgb(246,147,147);stroke-width:0.01" />
<line x1="0.782852" y1="0.773696" x2="0.854846" y2="0.792956" style="stroke:rgb(246,147,147);stroke-width:0.01" />
<line x1="0.133936" y1="0.542692" x2="0.555838" y2="0.544018" style="stroke:rgb(246,147,147);stroke-width:0.01" />
<line x1="0.359173" y1="0.556273" x2="0.154946" y2="0.567673" style="stroke:rgb(246,147,147);stroke-width:0.01" />
<line x1="0.695151" y1="0.749481" x2="0.849014" y2="0.773522" style="stroke:rgb(246,147,147);stroke-width:0.01" />
<line x1="0.711799" y1="0.567698" x2="0.341511" y2="0.608968" style="stroke:rgb(246,147,147);stroke-width:0.01" />
<line x1="0.555838" y1="0.544018" x2="0.513243" y2="0.559885" style="stroke:rgb(246,147,147);stroke-width:0.01" />
<line x1="0.858665" y1="0.787998" x2="0.854846" y2="0.792956" style="stroke:rgb(246,147,147);stroke-width:0.01" />
<line x1="0.811416" y1="0.717124" x2="0.475918" y2="0.741581" style="stroke:rgb(246,147,147);stroke-width:0.01" />
<line x1="0.785464" y1="0.683576" x2="0.58027" y2="0.833314" style="stroke:rgb(246,147,147);stroke-width:0.01" />
<line x1="0.858665" y1="0.787998" x2="0.605765" y2="0.855725" style="stroke:rgb(246,147,147);stroke-width:0.01" />
</g>
</svg>
