<svg xmlns="http://www.w3.org/2000/svg" viewBox="-1.5 -1.5 3 3">
<g transform="scale(1, -1)">
<path d="M-0.064835 -0.237562 L-0.049059 -0.171850 L0.112793 -0.072257 L0.131958 -0.043510 L0.172356 0.064946 L0.182769 0.057347 L0.178569 0.043955 L0.193871 0.049360 L0.264608 0.155466 L0.260789 0.160423 L0.253439 0.158457 L0.011707 0.223193 L-0.323322 -0.071323 L-0.439112 -0.064859 L-0.460121 -0.089840 L-0.426410 -0.161944 z " fill="rgb(245,195,195)" />
<path d="M-0.594057 -0.632533 L0.405943 -0.632533 L0.405943 0.367467 L-0.594057 0.367467  z" fill="none" stroke="rgb(128,128,128)" stroke-width="0.01" />
<line x1="0.217943" y1="0.0854676" x2="0.260789" y2="0.160423" style="stroke:rgb(246,147,147);stroke-width:0.01" />
<line x1="0.131958" y1="-0.0435096" x2="0.211383" y2="0.16972" style="stroke:rgb(246,147,147);stroke-width:0.01" />
<line x1="0.178569" y1="0.0439545" x2="0.217502" y2="0.168081" style="stroke:rgb(246,147,147);stroke-width:0.01" />
<line x1="0.112793" y1="-0.0722573" x2="0.131958" y2="-0.0435096" style="stroke:rgb(246,147,147);stroke-width:0.01" />
<line x1="0.193871" y1="0.04936" x2="0.264608" y2="0.155466" style="stroke:rgb(246,147,147);stroke-width:0.01" />
<line x1="0.178569" y1="0.0439545" x2="0.260027" y2="0.156693" style="stroke:rgb(246,147,147);stroke-width:0.01" />
<line x1="0.191407" y1="0.0510437" x2="0.217502" y2="0.168081" style="stroke:rgb(246,147,147);stroke-width:0.01" />
<line x1="0.191407" y1="0.0510437" x2="0.217943" y2="0.0854676" style="stroke:rgb(246,147,147);stroke-width:0.01" />
<line x1="0.191407" y1="0.0510437" x2="0.211383" y2="0.16972" style="stroke:rgb(246,147,147);stroke-width:0.01" />
<line x1="-0.136648" y1="-0.222544" x2="-0.0808145" y2="-0.0726479" style="stroke:rgb(246,147,147);stroke-width:0.01" />
<line x1="-0.0648349" y1="-0.237562" x2="0.0239086" y2="0.132087" style="stroke:rgb(246,147,147);stroke-width:0.01" />
<line x1="0.112793" y1="-0.0722573" x2="0.114805" y2="-0.0595328" style="stroke:rgb(246,147,147);stroke-width:0.01" />
<line x1="-0.0648349" y1="-0.237562" x2="-0.038219" y2="-0.0885141" style="stroke:rgb(246,147,147);stroke-width:0.01" />
<line x1="-0.271578" y1="-0.194325" x2="-0.234884" y2="-0.0762594" style="stroke:rgb(246,147,147);stroke-width:0.01" />
<line x1="0.114805" y1="-0.0595328" x2="0.131958" y2="-0.0435096" style="stroke:rgb(246,147,147);stroke-width:0.01" />
<line x1="-0.271578" y1="-0.194325" x2="-0.252546" y2="-0.0235642" style="stroke:rgb(246,147,147);stroke-width:0.01" />
<line x1="-0.136648" y1="-0.222544" x2="-0.118139" y2="0.109049" style="stroke:rgb(246,147,147);stroke-width:0.01" />
<line x1="-0.160425" y1="-0.217571" x2="-0.00408436" y2="-0.0512565" style="stroke:rgb(246,147,147);stroke-width:0.01" />
<line x1="-0.238052" y1="-0.201336" x2="0.0876721" y2="0.202849" style="stroke:rgb(246,147,147);stroke-width:0.01" />
<line x1="0.193871" y1="0.04936" x2="0.188795" y2="0.141164" style="stroke:rgb(246,147,147);stroke-width:0.01" />
<line x1="-0.132763" y1="-0.223356" x2="0.112793" y2="-0.0722573" style="stroke:rgb(246,147,147);stroke-width:0.01" />
<line x1="0.0239086" y1="0.132087" x2="0.0117075" y2="0.223193" style="stroke:rgb(246,147,147);stroke-width:0.01" />
<line x1="0.260748" y1="0.149675" x2="0.260027" y2="0.156693" style="stroke:rgb(246,147,147);stroke-width:0.01" />
<line x1="-0.238052" y1="-0.201336" x2="-0.272704" y2="-0.0741483" style="stroke:rgb(246,147,147);stroke-width:0.01" />
<line x1="0.101094" y1="0.116949" x2="0.0876721" y2="0.202849" style="stroke:rgb(246,147,147);stroke-width:0.01" />
<line x1="-0.42641" y1="-0.161944" x2="-0.460121" y2="-0.0898402" style="stroke:rgb(246,147,147);stroke-width:0.01" />
<line x1="-0.460121" y1="-0.0898402" x2="-0.439112" y2="-0.0648594" style="stroke:rgb(246,147,147);stroke-width:0.01" />
<line x1="-0.42641" y1="-0.161944" x2="0.0117075" y2="0.223193" style="stroke:rgb(246,147,147);stroke-width:0.01" />
<line x1="-0.160425" y1="-0.217571" x2="-0.185339" y2="-0.147625" style="stroke:rgb(246,147,147);stroke-width:0.01" />
<line x1="-0.366009" y1="-0.174576" x2="-0.0562" y2="0.0243211" style="stroke:rgb(246,147,147);stroke-width:0.01" />
<line x1="0.254957" y1="0.140989" x2="0.253376" y2="0.147455" style="stroke:rgb(246,147,147);stroke-width:0.01" />
<line x1="-0.366009" y1="-0.174576" x2="-0.439112" y2="-0.0648594" style="stroke:rgb(246,147,147);stroke-width:0.01" />
<line x1="-0.132763" y1="-0.223356" x2="-0.234884" y2="-0.0762594" style="stroke:rgb(246,147,147);stroke-width:0.01" />
<line x1="0.178569" y1="0.0439545" x2="0.193871" y2="0.04936" style="stroke:rgb(246,147,147);stroke-width:0.01" />
<line x1="0.0361004" y1="-0.119449" x2="-0.00408436" y2="-0.0512565" style="stroke:rgb(246,147,147);stroke-width:0.01" />
<line x1="0.117741" y1="-0.0648346" x2="0.114805" y2="-0.0595328" style="stroke:rgb(246,147,147);stroke-width:0.01" />
<line x1="0.0361004" y1="-0.119449" x2="-0.0562" y2="0.0243211" style="stroke:rgb(246,147,147);stroke-width:0.01" />
<line x1="0.0239086" y1="0.132087" x2="-0.0137869" y2="0.200781" style="stroke:rgb(246,147,147);stroke-width:0.01" />
<line x1="0.217359" y1="0.0845913" x2="0.188795" y2="0.141164" style="stroke:rgb(246,147,147);stroke-width:0.01" />
<line x1="0.253376" y1="0.147455" x2="0.260748" y2="0.149675" style="stroke:rgb(246,147,147);stroke-width:0.01" />
<line x1="-0.0648349" y1="-0.237562" x2="-0.42641" y2="-0.161944" style="stroke:rgb(246,147,147);stroke-width:0.01" />
<line x1="-0.185339" y1="-0.147625" x2="-0.272704" y2="-0.0741483" style="stroke:rgb(246,147,147);stroke-width:0.01" />
<line x1="0.188795" y1="0.141164" x2="0.260789" y2="0.160423" style="stroke:rgb(246,147,147);stroke-width:0.01" />
<line x1="-0.460121" y1="-0.0898402" x2="-0.038219" y2="-0.0885141" style="stroke:rgb(246,147,147);stroke-width:0.01" />
<line x1="-0.234884" y1="-0.0762594" x2="-0.439112" y2="-0.0648594" style="stroke:rgb(246,147,147);stroke-width:0.01" />
<line x1="0.101094" y1="0.116949" x2="0.254957" y2="0.140989" style="stroke:rgb(246,147,147);stroke-width:0.01" />
<line x1="0.117741" y1="-0.0648346" x2="-0.252546" y2="-0.0235642" style="stroke:rgb(246,147,147);stroke-width:0.01" />
<line x1="-0.038219" y1="-0.0885141" x2="-0.0808145" y2="-0.0726479" style="stroke:rgb(246,147,147);stroke-width:0.01" />
<line x1="0.264608" y1="0.155466" x2="0.260789" y2="0.160423" style="stroke:rgb(246,147,147);stroke-width:0.01" />
<line x1="0.217359" y1="0.0845913" x2="-0.118139" y2="0.109049" style="stroke:rgb(246,147,147);stroke-width:0.01" />
<line x1="0.191407" y1="0.0510437" x2="-0.0137869" y2="0.200781" style="stroke:rgb(246,147,147);stroke-width:0.01" />
<line x1="0.264608" y1="0.155466" x2="0.0117075" y2="0.223193" style="stroke:rgb(246,147,147);stroke-width:0.01" />
</g>
</svg>
