<svg xmlns="http://www.w3.org/2000/svg" viewBox="-1.5 -1.5 3 3">
<g transform="scale(1, -1)">
<path d="M0.219368 -0.177118 L0.219640 -0.104092 L0.234337 -0.094789 L0.234924 -0.093699 L0.219368 0.015190 L0.019368 0.165190 L-0.280632 0.181857 L-0.292582 0.165924 L-0.270742 0.121783 L-0.235070 0.104539 L-0.078810 -0.160629 L0.010831 -0.124156 z " fill="rgb(245,195,195)" />
<path d="M-0.930632 0.065190 L0.069368 0.065190 L0.069368 1.065190 L-0.930632 1.065190  z" fill="none" stroke="rgb(128,128,128)" stroke-width="0.01" />
<line x1="0.150797" y1="-0.147667" x2="0.234337" y2="-0.0947893" style="stroke:rgb(246,147,147);stroke-width:0.01" />
<line x1="0.150797" y1="-0.147667" x2="0.228528" y2="-0.0489322" style="stroke:rgb(246,147,147);stroke-width:0.01" />
<line x1="0.183567" y1="-0.0325448" x2="0.212581" y2="-0.00894281" style="stroke:rgb(246,147,147);stroke-width:0.01" />
<line x1="0.196495" y1="-0.0153073" x2="0.219767" y2="0.0123937" style="stroke:rgb(246,147,147);stroke-width:0.01" />
<line x1="0.192994" y1="-0.102392" x2="0.228968" y2="-0.0520101" style="stroke:rgb(246,147,147);stroke-width:0.01" />
<line x1="0.179745" y1="-0.0376403" x2="0.219368" y2="0.0151899" style="stroke:rgb(246,147,147);stroke-width:0.01" />
<line x1="-0.0788101" y1="-0.160629" x2="0.0419321" y2="-0.0632716" style="stroke:rgb(246,147,147);stroke-width:0.01" />
<line x1="0.181109" y1="-0.0383739" x2="0.196495" y2="-0.0153073" style="stroke:rgb(246,147,147);stroke-width:0.01" />
<line x1="0.0860839" y1="-0.0238383" x2="0.15421" y2="0.0584026" style="stroke:rgb(246,147,147);stroke-width:0.01" />
<line x1="0.0603029" y1="-0.0382478" x2="0.149329" y2="0.0677192" style="stroke:rgb(246,147,147);stroke-width:0.01" />
<line x1="0.234337" y1="-0.0947893" x2="0.234924" y2="-0.093699" style="stroke:rgb(246,147,147);stroke-width:0.01" />
<line x1="0.0879964" y1="-0.0242269" x2="0.149329" y2="0.0677192" style="stroke:rgb(246,147,147);stroke-width:0.01" />
<line x1="-0.0788101" y1="-0.160629" x2="0.0862774" y2="-0.0934582" style="stroke:rgb(246,147,147);stroke-width:0.01" />
<line x1="-0.0131106" y1="-0.00275879" x2="0.0860347" y2="0.11519" style="stroke:rgb(246,147,147);stroke-width:0.01" />
<line x1="0.0539834" y1="0.067113" x2="0.0860347" y2="0.11519" style="stroke:rgb(246,147,147);stroke-width:0.01" />
<line x1="0.0683265" y1="0.0626099" x2="0.0891736" y2="0.0964108" style="stroke:rgb(246,147,147);stroke-width:0.01" />
<line x1="0.0715414" y1="0.0173653" x2="0.15421" y2="0.0584026" style="stroke:rgb(246,147,147);stroke-width:0.01" />
<line x1="0.0864465" y1="-0.0248659" x2="0.20668" y2="0.0247058" style="stroke:rgb(246,147,147);stroke-width:0.01" />
<line x1="0.0301009" y1="0.13478" x2="0.0320075" y2="0.137639" style="stroke:rgb(246,147,147);stroke-width:0.01" />
<line x1="0.181109" y1="-0.0383739" x2="0.183567" y2="-0.0325448" style="stroke:rgb(246,147,147);stroke-width:0.01" />
<line x1="-0.134478" y1="-0.007887" x2="-0.00370893" y2="0.166472" style="stroke:rgb(246,147,147);stroke-width:0.01" />
<line x1="0.0465801" y1="0.088089" x2="0.0909469" y2="0.111506" style="stroke:rgb(246,147,147);stroke-width:0.01" />
<line x1="0.0864465" y1="-0.0248659" x2="0.219471" y2="0.014472" style="stroke:rgb(246,147,147);stroke-width:0.01" />
<line x1="-0.0445373" y1="0.121896" x2="-0.0198477" y2="0.167369" style="stroke:rgb(246,147,147);stroke-width:0.01" />
<line x1="0.0199753" y1="0.163469" x2="0.0209657" y2="0.163992" style="stroke:rgb(246,147,147);stroke-width:0.01" />
<line x1="0.228983" y1="-0.064137" x2="0.230665" y2="-0.0638896" style="stroke:rgb(246,147,147);stroke-width:0.01" />
<line x1="0.139486" y1="-0.0765261" x2="0.230665" y2="-0.0638896" style="stroke:rgb(246,147,147);stroke-width:0.01" />
<line x1="-0.292582" y1="0.165924" x2="-0.280632" y2="0.181857" style="stroke:rgb(246,147,147);stroke-width:0.01" />
<line x1="0.0715414" y1="0.0173653" x2="0.183445" y2="0.0421323" style="stroke:rgb(246,147,147);stroke-width:0.01" />
<line x1="-0.119863" y1="-0.0909639" x2="-0.0514863" y2="0.169126" style="stroke:rgb(246,147,147);stroke-width:0.01" />
<line x1="0.0603029" y1="-0.0382478" x2="0.0909469" y2="0.111506" style="stroke:rgb(246,147,147);stroke-width:0.01" />
<line x1="-0.0131106" y1="-0.00275879" x2="0.0209657" y2="0.163992" style="stroke:rgb(246,147,147);stroke-width:0.01" />
<line x1="-0.221735" y1="0.153348" x2="-0.215415" y2="0.178233" style="stroke:rgb(246,147,147);stroke-width:0.01" />
<line x1="0.0465801" y1="0.088089" x2="0.0891736" y2="0.0964108" style="stroke:rgb(246,147,147);stroke-width:0.01" />
<line x1="0.192994" y1="-0.102392" x2="0.20668" y2="0.0247058" style="stroke:rgb(246,147,147);stroke-width:0.01" />
<line x1="0.0199753" y1="0.163469" x2="0.0213132" y2="0.163731" style="stroke:rgb(246,147,147);stroke-width:0.01" />
<line x1="-0.270742" y1="0.121783" x2="-0.0498628" y2="0.169036" style="stroke:rgb(246,147,147);stroke-width:0.01" />
<line x1="-0.221735" y1="0.153348" x2="-0.21915" y2="0.178441" style="stroke:rgb(246,147,147);stroke-width:0.01" />
<line x1="0.116291" y1="-0.109425" x2="0.124863" y2="0.0448603" style="stroke:rgb(246,147,147);stroke-width:0.01" />
<line x1="0.0683265" y1="0.0626099" x2="0.0716279" y2="0.121755" style="stroke:rgb(246,147,147);stroke-width:0.01" />
<line x1="0.15421" y1="0.0584026" x2="0.161346" y2="0.0587064" style="stroke:rgb(246,147,147);stroke-width:0.01" />
<line x1="0.219471" y1="0.014472" x2="0.218831" y2="0.0144744" style="stroke:rgb(246,147,147);stroke-width:0.01" />
<line x1="-0.219983" y1="0.0789371" x2="-0.21915" y2="0.178441" style="stroke:rgb(246,147,147);stroke-width:0.01" />
<line x1="0.219368" y1="-0.177118" x2="0.220067" y2="0.0102948" style="stroke:rgb(246,147,147);stroke-width:0.01" />
<line x1="0.234337" y1="-0.0947893" x2="0.234222" y2="-0.0887889" style="stroke:rgb(246,147,147);stroke-width:0.01" />
<line x1="0.219368" y1="-0.177118" x2="-0.119863" y2="-0.0909639" style="stroke:rgb(246,147,147);stroke-width:0.01" />
<line x1="0.192994" y1="-0.102392" x2="0.183445" y2="0.0421323" style="stroke:rgb(246,147,147);stroke-width:0.01" />
<line x1="0.0419321" y1="-0.0632716" x2="0.0213132" y2="0.163731" style="stroke:rgb(246,147,147);stroke-width:0.01" />
<line x1="-0.196017" y1="0.0382668" x2="-0.215415" y2="0.178233" style="stroke:rgb(246,147,147);stroke-width:0.01" />
<line x1="0.212581" y1="-0.00894281" x2="0.202445" y2="-0.00737418" style="stroke:rgb(246,147,147);stroke-width:0.01" />
<line x1="0.0879964" y1="-0.0242269" x2="0.0860839" y2="-0.0238383" style="stroke:rgb(246,147,147);stroke-width:0.01" />
<line x1="-0.0445373" y1="0.121896" x2="-0.0514863" y2="0.169126" style="stroke:rgb(246,147,147);stroke-width:0.01" />
<line x1="0.019368" y1="0.16519" x2="-0.280632" y2="0.181857" style="stroke:rgb(246,147,147);stroke-width:0.01" />
<line x1="0.234924" y1="-0.093699" x2="0.219368" y2="0.0151899" style="stroke:rgb(246,147,147);stroke-width:0.01" />
<line x1="-0.0445373" y1="0.121896" x2="-0.292582" y2="0.165924" style="stroke:rgb(246,147,147);stroke-width:0.01" />
<line x1="0.219368" y1="-0.177118" x2="0.161346" y2="0.0587064" style="stroke:rgb(246,147,147);stroke-width:0.01" />
<line x1="-0.270742" y1="0.121783" x2="-0.292582" y2="0.165924" style="stroke:rgb(246,147,147);stroke-width:0.01" />
<line x1="0.124863" y1="0.0448603" x2="0.0539834" y2="0.067113" style="stroke:rgb(246,147,147);stroke-width:0.01" />
<line x1="0.234222" y1="-0.0887889" x2="0.212581" y2="-0.00894281" style="stroke:rgb(246,147,147);stroke-width:0.01" />
<line x1="0.192994" y1="-0.102392" x2="-0.270742" y2="0.121783" style="stroke:rgb(246,147,147);stroke-width:0.01" />
<line x1="0.220067" y1="0.0102948" x2="0.218831" y2="0.0144744" style="stroke:rgb(246,147,147);stroke-width:0.01" />
<line x1="0.0419321" y1="-0.0632716" x2="-0.219983" y2="0.0789371" style="stroke:rgb(246,147,147);stroke-width:0.01" />
<line x1="0.116291" y1="-0.109425" x2="0.019368" y2="0.16519" style="stroke:rgb(246,147,147);stroke-width:0.01" />
<line x1="-0.0788101" y1="-0.160629" x2="-0.280632" y2="0.181857" style="stroke:rgb(246,147,147);stroke-width:0.01" />
<line x1="0.0862774" y1="-0.0934582" x2="-0.0198477" y2="0.167369" style="stroke:rgb(246,147,147);stroke-width:0.01" />
<line x1="-0.134478" y1="-0.007887" x2="-0.196017" y2="0.0382668" style="stroke:rgb(246,147,147);stroke-width:0.01" />
<line x1="0.0716279" y1="0.121755" x2="0.0301009" y2="0.13478" style="stroke:rgb(246,147,147);stroke-width:0.01" />
<line x1="0.0655218" y1="0.130575" x2="-0.0498628" y2="0.169036" style="stroke:rgb(246,147,147);stroke-width:0.01" />
<line x1="0.228983" y1="-0.064137" x2="0.179745" y2="-0.0376403" style="stroke:rgb(246,147,147);stroke-width:0.01" />
<line x1="0.228983" y1="-0.064137" x2="0.202445" y2="-0.00737418" style="stroke:rgb(246,147,147);stroke-width:0.01" />
<line x1="0.139486" y1="-0.0765261" x2="-0.00370893" y2="0.166472" style="stroke:rgb(246,147,147);stroke-width:0.01" />
<line x1="0.150797" y1="-0.147667" x2="0.116291" y2="-0.109425" style="stroke:rgb(246,147,147);stroke-width:0.01" />
<line x1="0.228528" y1="-0.0489322" x2="0.191243" y2="-0.0223101" style="stroke:rgb(246,147,147);stroke-width:0.01" />
<line x1="0.124863" y1="0.0448603" x2="0.0655218" y2="0.130575" style="stroke:rgb(246,147,147);stroke-width:0.01" />
<line x1="0.228968" y1="-0.0520101" x2="0.191243" y2="-0.0223101" style="stroke:rgb(246,147,147);stroke-width:0.01" />
<line x1="0.219767" y1="0.0123937" x2="0.0320075" y2="0.137639" style="stroke:rgb(246,147,147);stroke-width:0.01" />
<line x1="0.234924" y1="-0.093699" x2="0.179745" y2="-0.0376403" style="stroke:rgb(246,147,147);stroke-width:0.01" />
<line x1="0.219368" y1="0.0151899" x2="0.019368" y2="0.16519" style="stroke:rgb(246,147,147);stroke-width:0.01" />
</g>
</svg>
