<svg xmlns="http://www.w3.org/2000/svg" viewBox="-1.5 -1.5 3 3">
<g transform="scale(1, -1)">
<path d="M1.150000 -0.242308 L1.150272 -0.169281 L1.164969 -0.159979 L1.165556 -0.158889 L1.150000 -0.050000 L0.950000 0.100000 L0.650000 0.116667 L0.638050 0.100734 L0.659890 0.056593 L0.695562 0.039349 L0.851822 -0.225819 L0.941463 -0.189346 z " fill="rgb(245,195,195)" />
<path d="M0.000000 0.000000 L1.000000 0.000000 L1.000000 1.000000 L0.000000 1.000000  z" fill="none" stroke="rgb(128,128,128)" stroke-width="0.01" />
<line x1="1.08143" y1="-0.212857" x2="1.16497" y2="-0.159979" style="stroke:rgb(246,147,147);stroke-width:0.01" />
<line x1="1.08143" y1="-0.212857" x2="1.15916" y2="-0.114122" style="stroke:rgb(246,147,147);stroke-width:0.01" />
<line x1="1.1142" y1="-0.0977347" x2="1.14321" y2="-0.0741327" style="stroke:rgb(246,147,147);stroke-width:0.01" />
<line x1="1.12713" y1="-0.0804972" x2="1.1504" y2="-0.0527963" style="stroke:rgb(246,147,147);stroke-width:0.01" />
<line x1="1.12363" y1="-0.167582" x2="1.1596" y2="-0.1172" style="stroke:rgb(246,147,147);stroke-width:0.01" />
<line x1="1.11038" y1="-0.10283" x2="1.15" y2="-0.05" style="stroke:rgb(246,147,147);stroke-width:0.01" />
<line x1="0.851822" y1="-0.225819" x2="0.972564" y2="-0.128462" style="stroke:rgb(246,147,147);stroke-width:0.01" />
<line x1="1.11174" y1="-0.103564" x2="1.12713" y2="-0.0804972" style="stroke:rgb(246,147,147);stroke-width:0.01" />
<line x1="1.01672" y1="-0.0890283" x2="1.08484" y2="-0.00678733" style="stroke:rgb(246,147,147);stroke-width:0.01" />
<line x1="0.990935" y1="-0.103438" x2="1.07996" y2="0.00252933" style="stroke:rgb(246,147,147);stroke-width:0.01" />
<line x1="1.16497" y1="-0.159979" x2="1.16556" y2="-0.158889" style="stroke:rgb(246,147,147);stroke-width:0.01" />
<line x1="1.01863" y1="-0.0894168" x2="1.07996" y2="0.00252933" style="stroke:rgb(246,147,147);stroke-width:0.01" />
<line x1="0.851822" y1="-0.225819" x2="1.01691" y2="-0.158648" style="stroke:rgb(246,147,147);stroke-width:0.01" />
<line x1="0.917521" y1="-0.0679487" x2="1.01667" y2="0.05" style="stroke:rgb(246,147,147);stroke-width:0.01" />
<line x1="0.984615" y1="0.00192308" x2="1.01667" y2="0.05" style="stroke:rgb(246,147,147);stroke-width:0.01" />
<line x1="0.998958" y1="-0.00257999" x2="1.01981" y2="0.0312209" style="stroke:rgb(246,147,147);stroke-width:0.01" />
<line x1="1.00217" y1="-0.0478246" x2="1.08484" y2="-0.00678733" style="stroke:rgb(246,147,147);stroke-width:0.01" />
<line x1="1.01708" y1="-0.0900558" x2="1.13731" y2="-0.0404841" style="stroke:rgb(246,147,147);stroke-width:0.01" />
<line x1="0.960733" y1="0.0695902" x2="0.96264" y2="0.0724486" style="stroke:rgb(246,147,147);stroke-width:0.01" />
<line x1="1.11174" y1="-0.103564" x2="1.1142" y2="-0.0977347" style="stroke:rgb(246,147,147);stroke-width:0.01" />
<line x1="0.796154" y1="-0.0730769" x2="0.926923" y2="0.101282" style="stroke:rgb(246,147,147);stroke-width:0.01" />
<line x1="0.977212" y1="0.0228991" x2="1.02158" y2="0.0463158" style="stroke:rgb(246,147,147);stroke-width:0.01" />
<line x1="1.01708" y1="-0.0900558" x2="1.1501" y2="-0.0507179" style="stroke:rgb(246,147,147);stroke-width:0.01" />
<line x1="0.886095" y1="0.0567061" x2="0.910784" y2="0.102179" style="stroke:rgb(246,147,147);stroke-width:0.01" />
<line x1="0.950607" y1="0.0982794" x2="0.951598" y2="0.0988017" style="stroke:rgb(246,147,147);stroke-width:0.01" />
<line x1="1.15962" y1="-0.129327" x2="1.1613" y2="-0.129079" style="stroke:rgb(246,147,147);stroke-width:0.01" />
<line x1="1.07012" y1="-0.141716" x2="1.1613" y2="-0.129079" style="stroke:rgb(246,147,147);stroke-width:0.01" />
<line x1="0.63805" y1="0.100734" x2="0.65" y2="0.116667" style="stroke:rgb(246,147,147);stroke-width:0.01" />
<line x1="1.00217" y1="-0.0478246" x2="1.11408" y2="-0.0230576" style="stroke:rgb(246,147,147);stroke-width:0.01" />
<line x1="0.810769" y1="-0.156154" x2="0.879146" y2="0.103936" style="stroke:rgb(246,147,147);stroke-width:0.01" />
<line x1="0.990935" y1="-0.103438" x2="1.02158" y2="0.0463158" style="stroke:rgb(246,147,147);stroke-width:0.01" />
<line x1="0.917521" y1="-0.0679487" x2="0.951598" y2="0.0988017" style="stroke:rgb(246,147,147);stroke-width:0.01" />
<line x1="0.708897" y1="0.0881585" x2="0.715217" y2="0.113043" style="stroke:rgb(246,147,147);stroke-width:0.01" />
<line x1="0.977212" y1="0.0228991" x2="1.01981" y2="0.0312209" style="stroke:rgb(246,147,147);stroke-width:0.01" />
<line x1="1.12363" y1="-0.167582" x2="1.13731" y2="-0.0404841" style="stroke:rgb(246,147,147);stroke-width:0.01" />
<line x1="0.950607" y1="0.0982794" x2="0.951945" y2="0.0985411" style="stroke:rgb(246,147,147);stroke-width:0.01" />
<line x1="0.65989" y1="0.0565934" x2="0.880769" y2="0.103846" style="stroke:rgb(246,147,147);stroke-width:0.01" />
<line x1="0.708897" y1="0.0881585" x2="0.711482" y2="0.113251" style="stroke:rgb(246,147,147);stroke-width:0.01" />
<line x1="1.04692" y1="-0.174615" x2="1.05549" y2="-0.0203297" style="stroke:rgb(246,147,147);stroke-width:0.01" />
<line x1="0.998958" y1="-0.00257999" x2="1.00226" y2="0.0565647" style="stroke:rgb(246,147,147);stroke-width:0.01" />
<line x1="1.08484" y1="-0.00678733" x2="1.09198" y2="-0.00648352" style="stroke:rgb(246,147,147);stroke-width:0.01" />
<line x1="1.1501" y1="-0.0507179" x2="1.14946" y2="-0.0507156" style="stroke:rgb(246,147,147);stroke-width:0.01" />
<line x1="0.710649" y1="0.0137471" x2="0.711482" y2="0.113251" style="stroke:rgb(246,147,147);stroke-width:0.01" />
<line x1="1.15" y1="-0.242308" x2="1.1507" y2="-0.0548951" style="stroke:rgb(246,147,147);stroke-width:0.01" />
<line x1="1.16497" y1="-0.159979" x2="1.16485" y2="-0.153979" style="stroke:rgb(246,147,147);stroke-width:0.01" />
<line x1="1.15" y1="-0.242308" x2="0.810769" y2="-0.156154" style="stroke:rgb(246,147,147);stroke-width:0.01" />
<line x1="1.12363" y1="-0.167582" x2="1.11408" y2="-0.0230576" style="stroke:rgb(246,147,147);stroke-width:0.01" />
<line x1="0.972564" y1="-0.128462" x2="0.951945" y2="0.0985411" style="stroke:rgb(246,147,147);stroke-width:0.01" />
<line x1="0.734615" y1="-0.0269231" x2="0.715217" y2="0.113043" style="stroke:rgb(246,147,147);stroke-width:0.01" />
<line x1="1.14321" y1="-0.0741327" x2="1.13308" y2="-0.0725641" style="stroke:rgb(246,147,147);stroke-width:0.01" />
<line x1="1.01863" y1="-0.0894168" x2="1.01672" y2="-0.0890283" style="stroke:rgb(246,147,147);stroke-width:0.01" />
<line x1="0.886095" y1="0.0567061" x2="0.879146" y2="0.103936" style="stroke:rgb(246,147,147);stroke-width:0.01" />
<line x1="0.95" y1="0.1" x2="0.65" y2="0.116667" style="stroke:rgb(246,147,147);stroke-width:0.01" />
<line x1="1.16556" y1="-0.158889" x2="1.15" y2="-0.05" style="stroke:rgb(246,147,147);stroke-width:0.01" />
<line x1="0.886095" y1="0.0567061" x2="0.63805" y2="0.100734" style="stroke:rgb(246,147,147);stroke-width:0.01" />
<line x1="1.15" y1="-0.242308" x2="1.09198" y2="-0.00648352" style="stroke:rgb(246,147,147);stroke-width:0.01" />
<line x1="0.65989" y1="0.0565934" x2="0.63805" y2="0.100734" style="stroke:rgb(246,147,147);stroke-width:0.01" />
<line x1="1.05549" y1="-0.0203297" x2="0.984615" y2="0.00192308" style="stroke:rgb(246,147,147);stroke-width:0.01" />
<line x1="1.16485" y1="-0.153979" x2="1.14321" y2="-0.0741327" style="stroke:rgb(246,147,147);stroke-width:0.01" />
<line x1="1.12363" y1="-0.167582" x2="0.65989" y2="0.0565934" style="stroke:rgb(246,147,147);stroke-width:0.01" />
<line x1="1.1507" y1="-0.0548951" x2="1.14946" y2="-0.0507156" style="stroke:rgb(246,147,147);stroke-width:0.01" />
<line x1="0.972564" y1="-0.128462" x2="0.710649" y2="0.0137471" style="stroke:rgb(246,147,147);stroke-width:0.01" />
<line x1="1.04692" y1="-0.174615" x2="0.95" y2="0.1" style="stroke:rgb(246,147,147);stroke-width:0.01" />
<line x1="0.851822" y1="-0.225819" x2="0.65" y2="0.116667" style="stroke:rgb(246,147,147);stroke-width:0.01" />
<line x1="1.01691" y1="-0.158648" x2="0.910784" y2="0.102179" style="stroke:rgb(246,147,147);stroke-width:0.01" />
<line x1="0.796154" y1="-0.0730769" x2="0.734615" y2="-0.0269231" style="stroke:rgb(246,147,147);stroke-width:0.01" />
<line x1="1.00226" y1="0.0565647" x2="0.960733" y2="0.0695902" style="stroke:rgb(246,147,147);stroke-width:0.01" />
<line x1="0.996154" y1="0.0653846" x2="0.880769" y2="0.103846" style="stroke:rgb(246,147,147);stroke-width:0.01" />
<line x1="1.15962" y1="-0.129327" x2="1.11038" y2="-0.10283" style="stroke:rgb(246,147,147);stroke-width:0.01" />
<line x1="1.15962" y1="-0.129327" x2="1.13308" y2="-0.0725641" style="stroke:rgb(246,147,147);stroke-width:0.01" />
<line x1="1.07012" y1="-0.141716" x2="0.926923" y2="0.101282" style="stroke:rgb(246,147,147);stroke-width:0.01" />
<line x1="1.08143" y1="-0.212857" x2="1.04692" y2="-0.174615" style="stroke:rgb(246,147,147);stroke-width:0.01" />
<line x1="1.15916" y1="-0.114122" x2="1.12187" y2="-0.0875" style="stroke:rgb(246,147,147);stroke-width:0.01" />
<line x1="1.05549" y1="-0.0203297" x2="0.996154" y2="0.0653846" style="stroke:rgb(246,147,147);stroke-width:0.01" />
<line x1="1.1596" y1="-0.1172" x2="1.12187" y2="-0.0875" style="stroke:rgb(246,147,147);stroke-width:0.01" />
<line x1="1.1504" y1="-0.0527963" x2="0.96264" y2="0.0724486" style="stroke:rgb(246,147,147);stroke-width:0.01" />
<line x1="1.16556" y1="-0.158889" x2="1.11038" y2="-0.10283" style="stroke:rgb(246,147,147);stroke-width:0.01" />
<line x1="1.15" y1="-0.05" x2="0.95" y2="0.1" style="stroke:rgb(246,147,147);stroke-width:0.01" />
</g>
</svg>
