<svg xmlns="http://www.w3.org/2000/svg" viewBox="-1.5 -1.5 3 3">
<g transform="scale(1, -1)">
<path d="M1.186207 -0.565517 L1.400000 -0.540278 L1.400000 -0.300000 L1.057143 -0.042857 L0.800000 -0.300000 L0.922613 -0.483920 L1.180163 -0.514325 z " fill="rgb(245,195,195)" />
<path d="M0.000000 0.000000 L1.000000 0.000000 L1.000000 1.000000 L0.000000 1.000000  z" fill="none" stroke="rgb(128,128,128)" stroke-width="0.01" />
<line x1="1.18621" y1="-0.565517" x2="1.4" y2="-0.540278" style="stroke:rgb(246,147,147);stroke-width:0.01" />
<line x1="1.16582" y1="-0.178909" x2="1.20513" y2="-0.153846" style="stroke:rgb(246,147,147);stroke-width:0.01" />
<line x1="1.304" y1="-0.328" x2="1.4" y2="-0.3" style="stroke:rgb(246,147,147);stroke-width:0.01" />
<line x1="0.9" y1="-0.45" x2="1.03333" y2="-0.3" style="stroke:rgb(246,147,147);stroke-width:0.01" />
<line x1="1.2432" y1="-0.2624" x2="1.28067" y2="-0.248" style="stroke:rgb(246,147,147);stroke-width:0.01" />
<line x1="1.06667" y1="-0.2" x2="1.16667" y2="-0.125" style="stroke:rgb(246,147,147);stroke-width:0.01" />
<line x1="1.16582" y1="-0.178909" x2="1.184" y2="-0.154667" style="stroke:rgb(246,147,147);stroke-width:0.01" />
<line x1="1.17406" y1="-0.187806" x2="1.2205" y2="-0.165373" style="stroke:rgb(246,147,147);stroke-width:0.01" />
<line x1="1.10787" y1="-0.158268" x2="1.16602" y2="-0.124513" style="stroke:rgb(246,147,147);stroke-width:0.01" />
<line x1="1.17193" y1="-0.185508" x2="1.2201" y2="-0.165072" style="stroke:rgb(246,147,147);stroke-width:0.01" />
<line x1="1.08686" y1="-0.0937143" x2="1.10667" y2="-0.08" style="stroke:rgb(246,147,147);stroke-width:0.01" />
<line x1="1.08686" y1="-0.0937143" x2="1.10127" y2="-0.0759494" style="stroke:rgb(246,147,147);stroke-width:0.01" />
<line x1="1.17406" y1="-0.187806" x2="1.18906" y2="-0.161976" style="stroke:rgb(246,147,147);stroke-width:0.01" />
<line x1="0.8" y1="-0.3" x2="1.05714" y2="-0.0428571" style="stroke:rgb(246,147,147);stroke-width:0.01" />
<line x1="1.05" y1="-0.15" x2="1.10127" y2="-0.0759494" style="stroke:rgb(246,147,147);stroke-width:0.01" />
<line x1="0.8" y1="-0.3" x2="0.998184" y2="-0.218395" style="stroke:rgb(246,147,147);stroke-width:0.01" />
<line x1="1.05652" y1="-0.104348" x2="1.10309" y2="-0.077315" style="stroke:rgb(246,147,147);stroke-width:0.01" />
<line x1="1.2432" y1="-0.2624" x2="1.25908" y2="-0.228923" style="stroke:rgb(246,147,147);stroke-width:0.01" />
<line x1="1.17193" y1="-0.185508" x2="1.19076" y2="-0.149103" style="stroke:rgb(246,147,147);stroke-width:0.01" />
<line x1="0.9" y1="-0.45" x2="1.02255" y2="-0.232095" style="stroke:rgb(246,147,147);stroke-width:0.01" />
<line x1="1.23791" y1="-0.256696" x2="1.28067" y2="-0.248" style="stroke:rgb(246,147,147);stroke-width:0.01" />
<line x1="1.152" y1="-0.164" x2="1.2" y2="-0.15" style="stroke:rgb(246,147,147);stroke-width:0.01" />
<line x1="1.05067" y1="-0.0546667" x2="1.05714" y2="-0.0428571" style="stroke:rgb(246,147,147);stroke-width:0.01" />
<line x1="1.05067" y1="-0.0546667" x2="1.06452" y2="-0.0483871" style="stroke:rgb(246,147,147);stroke-width:0.01" />
<line x1="1.152" y1="-0.164" x2="1.16667" y2="-0.125" style="stroke:rgb(246,147,147);stroke-width:0.01" />
<line x1="1.4" y1="-0.540278" x2="0.922613" y2="-0.48392" style="stroke:rgb(246,147,147);stroke-width:0.01" />
<line x1="1.15537" y1="-0.167631" x2="1.18906" y2="-0.161976" style="stroke:rgb(246,147,147);stroke-width:0.01" />
<line x1="1.23791" y1="-0.256696" x2="1.25091" y2="-0.210909" style="stroke:rgb(246,147,147);stroke-width:0.01" />
<line x1="1.03333" y1="-0.3" x2="1.10667" y2="-0.08" style="stroke:rgb(246,147,147);stroke-width:0.01" />
<line x1="1.2" y1="-0.171429" x2="1.20513" y2="-0.153846" style="stroke:rgb(246,147,147);stroke-width:0.01" />
<line x1="1.09647" y1="-0.104089" x2="1.13105" y2="-0.0982857" style="stroke:rgb(246,147,147);stroke-width:0.01" />
<line x1="0.922613" y1="-0.48392" x2="0.998184" y2="-0.218395" style="stroke:rgb(246,147,147);stroke-width:0.01" />
<line x1="1.15537" y1="-0.167631" x2="1.16602" y2="-0.124513" style="stroke:rgb(246,147,147);stroke-width:0.01" />
<line x1="1.09647" y1="-0.104089" x2="1.10309" y2="-0.077315" style="stroke:rgb(246,147,147);stroke-width:0.01" />
<line x1="1.21902" y1="-0.174146" x2="1.2205" y2="-0.165373" style="stroke:rgb(246,147,147);stroke-width:0.01" />
<line x1="0.9" y1="-0.2" x2="1.26667" y2="-0.2" style="stroke:rgb(246,147,147);stroke-width:0.01" />
<line x1="1.05" y1="-0.15" x2="1.06452" y2="-0.0483871" style="stroke:rgb(246,147,147);stroke-width:0.01" />
<line x1="1.21902" y1="-0.174146" x2="1.2201" y2="-0.165072" style="stroke:rgb(246,147,147);stroke-width:0.01" />
<line x1="1.23529" y1="-0.176471" x2="1.05" y2="-0.15" style="stroke:rgb(246,147,147);stroke-width:0.01" />
<line x1="1.125" y1="-0.09375" x2="1.01538" y2="-0.0846154" style="stroke:rgb(246,147,147);stroke-width:0.01" />
<line x1="0.9" y1="-0.45" x2="0.9" y2="-0.2" style="stroke:rgb(246,147,147);stroke-width:0.01" />
<line x1="1.2" y1="-0.171429" x2="1.2" y2="-0.15" style="stroke:rgb(246,147,147);stroke-width:0.01" />
<line x1="1.4" y1="-0.540278" x2="1.4" y2="-0.3" style="stroke:rgb(246,147,147);stroke-width:0.01" />
<line x1="1.07143" y1="-0.0535714" x2="1.0639" y2="-0.0526829" style="stroke:rgb(246,147,147);stroke-width:0.01" />
<line x1="1.03333" y1="-0.3" x2="1.01538" y2="-0.0846154" style="stroke:rgb(246,147,147);stroke-width:0.01" />
<line x1="1.25908" y1="-0.228923" x2="1.19543" y2="-0.210857" style="stroke:rgb(246,147,147);stroke-width:0.01" />
<line x1="1.07207" y1="-0.0540541" x2="1.0639" y2="-0.0526829" style="stroke:rgb(246,147,147);stroke-width:0.01" />
<line x1="1.18621" y1="-0.565517" x2="1.13105" y2="-0.0982857" style="stroke:rgb(246,147,147);stroke-width:0.01" />
<line x1="1.19543" y1="-0.210857" x2="1.184" y2="-0.154667" style="stroke:rgb(246,147,147);stroke-width:0.01" />
<line x1="1.16" y1="-0.12" x2="1.025" y2="-0.075" style="stroke:rgb(246,147,147);stroke-width:0.01" />
<line x1="1.02255" y1="-0.232095" x2="0.998184" y2="-0.218395" style="stroke:rgb(246,147,147);stroke-width:0.01" />
<line x1="0.922613" y1="-0.48392" x2="0.8" y2="-0.3" style="stroke:rgb(246,147,147);stroke-width:0.01" />
<line x1="1.06667" y1="-0.2" x2="1.025" y2="-0.075" style="stroke:rgb(246,147,147);stroke-width:0.01" />
<line x1="1.25091" y1="-0.210909" x2="1.152" y2="-0.164" style="stroke:rgb(246,147,147);stroke-width:0.01" />
<line x1="1.304" y1="-0.328" x2="1.26667" y2="-0.2" style="stroke:rgb(246,147,147);stroke-width:0.01" />
<line x1="1.152" y1="-0.164" x2="1.125" y2="-0.09375" style="stroke:rgb(246,147,147);stroke-width:0.01" />
<line x1="1.19076" y1="-0.149103" x2="1.08982" y2="-0.0969091" style="stroke:rgb(246,147,147);stroke-width:0.01" />
<line x1="1.08982" y1="-0.0969091" x2="1.07143" y2="-0.0535714" style="stroke:rgb(246,147,147);stroke-width:0.01" />
<line x1="1.184" y1="-0.154667" x2="1.096" y2="-0.103579" style="stroke:rgb(246,147,147);stroke-width:0.01" />
<line x1="1.096" y1="-0.103579" x2="1.07207" y2="-0.0540541" style="stroke:rgb(246,147,147);stroke-width:0.01" />
<line x1="1.304" y1="-0.328" x2="1.23529" y2="-0.176471" style="stroke:rgb(246,147,147);stroke-width:0.01" />
<line x1="1.10787" y1="-0.158268" x2="1.05652" y2="-0.104348" style="stroke:rgb(246,147,147);stroke-width:0.01" />
<line x1="1.4" y1="-0.3" x2="1.05714" y2="-0.0428571" style="stroke:rgb(246,147,147);stroke-width:0.01" />
<line x1="1.304" y1="-0.328" x2="1.05067" y2="-0.0546667" style="stroke:rgb(246,147,147);stroke-width:0.01" />
<line x1="1.18906" y1="-0.161976" x2="1.16" y2="-0.12" style="stroke:rgb(246,147,147);stroke-width:0.01" />
</g>
</svg>
