<svg xmlns="http://www.w3.org/2000/svg" viewBox="-1.5 -1.5 3 3">
<g transform="scale(1, -1)">
<path d="M0.051046 -0.173103 L0.264839 -0.147864 L0.264839 0.092414 L-0.078018 0.349557 L-0.335161 0.092414 L-0.212548 -0.091506 L0.045002 -0.121911 z " fill="rgb(245,195,195)" />
<path d="M-1.135161 0.392414 L-0.135161 0.392414 L-0.135161 1.392414 L-1.135161 1.392414  z" fill="none" stroke="rgb(128,128,128)" stroke-width="0.01" />
<line x1="0.051046" y1="-0.173103" x2="0.264839" y2="-0.147864" style="stroke:rgb(246,147,147);stroke-width:0.01" />
<line x1="0.0306573" y1="0.213505" x2="0.0699673" y2="0.238568" style="stroke:rgb(246,147,147);stroke-width:0.01" />
<line x1="0.168839" y1="0.0644138" x2="0.264839" y2="0.0924138" style="stroke:rgb(246,147,147);stroke-width:0.01" />
<line x1="-0.235161" y1="-0.0575862" x2="-0.101828" y2="0.0924138" style="stroke:rgb(246,147,147);stroke-width:0.01" />
<line x1="0.108039" y1="0.130014" x2="0.145506" y2="0.144414" style="stroke:rgb(246,147,147);stroke-width:0.01" />
<line x1="-0.0684942" y1="0.192414" x2="0.0315058" y2="0.267414" style="stroke:rgb(246,147,147);stroke-width:0.01" />
<line x1="0.0306573" y1="0.213505" x2="0.0488391" y2="0.237747" style="stroke:rgb(246,147,147);stroke-width:0.01" />
<line x1="0.0389036" y1="0.204607" x2="0.085336" y2="0.227041" style="stroke:rgb(246,147,147);stroke-width:0.01" />
<line x1="-0.0272869" y1="0.234146" x2="0.0308565" y2="0.267901" style="stroke:rgb(246,147,147);stroke-width:0.01" />
<line x1="0.0367735" y1="0.206906" x2="0.0849348" y2="0.227342" style="stroke:rgb(246,147,147);stroke-width:0.01" />
<line x1="-0.0483037" y1="0.2987" x2="-0.0284942" y2="0.312414" style="stroke:rgb(246,147,147);stroke-width:0.01" />
<line x1="-0.0483037" y1="0.2987" x2="-0.0338951" y2="0.316464" style="stroke:rgb(246,147,147);stroke-width:0.01" />
<line x1="0.0389036" y1="0.204607" x2="0.0538994" y2="0.230438" style="stroke:rgb(246,147,147);stroke-width:0.01" />
<line x1="-0.335161" y1="0.0924138" x2="-0.078018" y2="0.349557" style="stroke:rgb(246,147,147);stroke-width:0.01" />
<line x1="-0.0851609" y1="0.242414" x2="-0.0338951" y2="0.316464" style="stroke:rgb(246,147,147);stroke-width:0.01" />
<line x1="-0.335161" y1="0.0924138" x2="-0.136976" y2="0.174019" style="stroke:rgb(246,147,147);stroke-width:0.01" />
<line x1="-0.0786391" y1="0.288066" x2="-0.0320743" y2="0.315099" style="stroke:rgb(246,147,147);stroke-width:0.01" />
<line x1="0.108039" y1="0.130014" x2="0.123916" y2="0.163491" style="stroke:rgb(246,147,147);stroke-width:0.01" />
<line x1="0.0367735" y1="0.206906" x2="0.0555977" y2="0.24331" style="stroke:rgb(246,147,147);stroke-width:0.01" />
<line x1="-0.235161" y1="-0.0575862" x2="-0.112614" y2="0.160318" style="stroke:rgb(246,147,147);stroke-width:0.01" />
<line x1="0.102752" y1="0.135718" x2="0.145506" y2="0.144414" style="stroke:rgb(246,147,147);stroke-width:0.01" />
<line x1="0.0168391" y1="0.228414" x2="0.0648391" y2="0.242414" style="stroke:rgb(246,147,147);stroke-width:0.01" />
<line x1="-0.0844942" y1="0.337747" x2="-0.078018" y2="0.349557" style="stroke:rgb(246,147,147);stroke-width:0.01" />
<line x1="-0.0844942" y1="0.337747" x2="-0.0706448" y2="0.344027" style="stroke:rgb(246,147,147);stroke-width:0.01" />
<line x1="0.0168391" y1="0.228414" x2="0.0315058" y2="0.267414" style="stroke:rgb(246,147,147);stroke-width:0.01" />
<line x1="0.264839" y1="-0.147864" x2="-0.212548" y2="-0.0915058" style="stroke:rgb(246,147,147);stroke-width:0.01" />
<line x1="0.0202044" y1="0.224783" x2="0.0538994" y2="0.230438" style="stroke:rgb(246,147,147);stroke-width:0.01" />
<line x1="0.102752" y1="0.135718" x2="0.115748" y2="0.181505" style="stroke:rgb(246,147,147);stroke-width:0.01" />
<line x1="-0.101828" y1="0.0924138" x2="-0.0284942" y2="0.312414" style="stroke:rgb(246,147,147);stroke-width:0.01" />
<line x1="0.0648391" y1="0.220985" x2="0.0699673" y2="0.238568" style="stroke:rgb(246,147,147);stroke-width:0.01" />
<line x1="-0.0386886" y1="0.288325" x2="-0.00411326" y2="0.294128" style="stroke:rgb(246,147,147);stroke-width:0.01" />
<line x1="-0.212548" y1="-0.0915058" x2="-0.136976" y2="0.174019" style="stroke:rgb(246,147,147);stroke-width:0.01" />
<line x1="0.0202044" y1="0.224783" x2="0.0308565" y2="0.267901" style="stroke:rgb(246,147,147);stroke-width:0.01" />
<line x1="-0.0386886" y1="0.288325" x2="-0.0320743" y2="0.315099" style="stroke:rgb(246,147,147);stroke-width:0.01" />
<line x1="0.0838635" y1="0.218267" x2="0.085336" y2="0.227041" style="stroke:rgb(246,147,147);stroke-width:0.01" />
<line x1="-0.235161" y1="0.192414" x2="0.131506" y2="0.192414" style="stroke:rgb(246,147,147);stroke-width:0.01" />
<line x1="-0.0851609" y1="0.242414" x2="-0.0706448" y2="0.344027" style="stroke:rgb(246,147,147);stroke-width:0.01" />
<line x1="0.0838635" y1="0.218267" x2="0.0849348" y2="0.227342" style="stroke:rgb(246,147,147);stroke-width:0.01" />
<line x1="0.100133" y1="0.215943" x2="-0.0851609" y2="0.242414" style="stroke:rgb(246,147,147);stroke-width:0.01" />
<line x1="-0.0101609" y1="0.298664" x2="-0.119776" y2="0.307798" style="stroke:rgb(246,147,147);stroke-width:0.01" />
<line x1="-0.235161" y1="-0.0575862" x2="-0.235161" y2="0.192414" style="stroke:rgb(246,147,147);stroke-width:0.01" />
<line x1="0.0648391" y1="0.220985" x2="0.0648391" y2="0.242414" style="stroke:rgb(246,147,147);stroke-width:0.01" />
<line x1="0.264839" y1="-0.147864" x2="0.264839" y2="0.0924138" style="stroke:rgb(246,147,147);stroke-width:0.01" />
<line x1="-0.0637323" y1="0.338842" x2="-0.0712584" y2="0.339731" style="stroke:rgb(246,147,147);stroke-width:0.01" />
<line x1="-0.101828" y1="0.0924138" x2="-0.119776" y2="0.307798" style="stroke:rgb(246,147,147);stroke-width:0.01" />
<line x1="0.123916" y1="0.163491" x2="0.0602677" y2="0.181557" style="stroke:rgb(246,147,147);stroke-width:0.01" />
<line x1="-0.0630888" y1="0.33836" x2="-0.0712584" y2="0.339731" style="stroke:rgb(246,147,147);stroke-width:0.01" />
<line x1="0.051046" y1="-0.173103" x2="-0.00411326" y2="0.294128" style="stroke:rgb(246,147,147);stroke-width:0.01" />
<line x1="0.0602677" y1="0.181557" x2="0.0488391" y2="0.237747" style="stroke:rgb(246,147,147);stroke-width:0.01" />
<line x1="0.0248391" y1="0.272414" x2="-0.110161" y2="0.317414" style="stroke:rgb(246,147,147);stroke-width:0.01" />
<line x1="-0.112614" y1="0.160318" x2="-0.136976" y2="0.174019" style="stroke:rgb(246,147,147);stroke-width:0.01" />
<line x1="-0.212548" y1="-0.0915058" x2="-0.335161" y2="0.0924138" style="stroke:rgb(246,147,147);stroke-width:0.01" />
<line x1="-0.0684942" y1="0.192414" x2="-0.110161" y2="0.317414" style="stroke:rgb(246,147,147);stroke-width:0.01" />
<line x1="0.115748" y1="0.181505" x2="0.0168391" y2="0.228414" style="stroke:rgb(246,147,147);stroke-width:0.01" />
<line x1="0.168839" y1="0.0644138" x2="0.131506" y2="0.192414" style="stroke:rgb(246,147,147);stroke-width:0.01" />
<line x1="0.0168391" y1="0.228414" x2="-0.0101609" y2="0.298664" style="stroke:rgb(246,147,147);stroke-width:0.01" />
<line x1="0.0555977" y1="0.24331" x2="-0.0453427" y2="0.295505" style="stroke:rgb(246,147,147);stroke-width:0.01" />
<line x1="-0.0453427" y1="0.295505" x2="-0.0637323" y2="0.338842" style="stroke:rgb(246,147,147);stroke-width:0.01" />
<line x1="0.0488391" y1="0.237747" x2="-0.0391609" y2="0.288835" style="stroke:rgb(246,147,147);stroke-width:0.01" />
<line x1="-0.0391609" y1="0.288835" x2="-0.0630888" y2="0.33836" style="stroke:rgb(246,147,147);stroke-width:0.01" />
<line x1="0.168839" y1="0.0644138" x2="0.100133" y2="0.215943" style="stroke:rgb(246,147,147);stroke-width:0.01" />
<line x1="-0.0272869" y1="0.234146" x2="-0.0786391" y2="0.288066" style="stroke:rgb(246,147,147);stroke-width:0.01" />
<line x1="0.264839" y1="0.0924138" x2="-0.078018" y2="0.349557" style="stroke:rgb(246,147,147);stroke-width:0.01" />
<line x1="0.168839" y1="0.0644138" x2="-0.0844942" y2="0.337747" style="stroke:rgb(246,147,147);stroke-width:0.01" />
<line x1="0.0538994" y1="0.230438" x2="0.0248391" y2="0.272414" style="stroke:rgb(246,147,147);stroke-width:0.01" />
</g>
</svg>
