<svg xmlns="http://www.w3.org/2000/svg" viewBox="-1.5 -1.5 3 3">
<g transform="scale(1, -1)">
<path d="M2.171608 -1.940416 L2.231303 -1.922520 L2.312048 -1.813170 L2.246575 -1.692585 L2.262885 -1.682186 L2.114932 -1.450129 L1.843793 -1.609907 L1.701410 -1.650991 L1.696967 -1.696967 L1.756552 -1.756552 L1.789607 -1.769759 L1.786239 -1.786239 L1.859848 -1.859848 z " fill="rgb(245,195,195)" />
<path d="M0.000000 0.000000 L1.000000 0.000000 L1.000000 1.000000 L0.000000 1.000000  z" fill="none" stroke="rgb(128,128,128)" stroke-width="0.01" />
<line x1="2.17161" y1="-1.94042" x2="2.2313" y2="-1.92252" style="stroke:rgb(246,147,147);stroke-width:0.01" />
<line x1="2.08592" y1="-1.91827" x2="2.12365" y2="-1.89132" style="stroke:rgb(246,147,147);stroke-width:0.01" />
<line x1="1.86365" y1="-1.86083" x2="1.95564" y2="-1.82119" style="stroke:rgb(246,147,147);stroke-width:0.01" />
<line x1="1.99953" y1="-1.85364" x2="2.05425" y2="-1.8203" style="stroke:rgb(246,147,147);stroke-width:0.01" />
<line x1="2.17734" y1="-1.73673" x2="2.26289" y2="-1.68219" style="stroke:rgb(246,147,147);stroke-width:0.01" />
<line x1="1.99162" y1="-1.8939" x2="2.07188" y2="-1.83833" style="stroke:rgb(246,147,147);stroke-width:0.01" />
<line x1="1.79056" y1="-1.79056" x2="1.83809" y2="-1.77564" style="stroke:rgb(246,147,147);stroke-width:0.01" />
<line x1="1.80239" y1="-1.70721" x2="1.98764" y2="-1.63183" style="stroke:rgb(246,147,147);stroke-width:0.01" />
<line x1="1.94547" y1="-1.88198" x2="2.04003" y2="-1.80574" style="stroke:rgb(246,147,147);stroke-width:0.01" />
<line x1="2.05163" y1="-1.90941" x2="2.09364" y2="-1.87192" style="stroke:rgb(246,147,147);stroke-width:0.01" />
<line x1="1.78624" y1="-1.78624" x2="1.83809" y2="-1.77564" style="stroke:rgb(246,147,147);stroke-width:0.01" />
<line x1="1.81933" y1="-1.62433" x2="2.11493" y2="-1.45013" style="stroke:rgb(246,147,147);stroke-width:0.01" />
<line x1="1.70141" y1="-1.65099" x2="1.84763" y2="-1.6088" style="stroke:rgb(246,147,147);stroke-width:0.01" />
<line x1="1.80763" y1="-1.73621" x2="1.89963" y2="-1.66203" style="stroke:rgb(246,147,147);stroke-width:0.01" />
<line x1="1.71022" y1="-1.71022" x2="1.73141" y2="-1.69364" style="stroke:rgb(246,147,147);stroke-width:0.01" />
<line x1="1.84888" y1="-1.84888" x2="1.89628" y2="-1.80188" style="stroke:rgb(246,147,147);stroke-width:0.01" />
<line x1="1.69697" y1="-1.69697" x2="1.73141" y2="-1.69364" style="stroke:rgb(246,147,147);stroke-width:0.01" />
<line x1="1.84888" y1="-1.84888" x2="1.85533" y2="-1.84237" style="stroke:rgb(246,147,147);stroke-width:0.01" />
<line x1="1.99953" y1="-1.85364" x2="2.04003" y2="-1.80574" style="stroke:rgb(246,147,147);stroke-width:0.01" />
<line x1="2.2313" y1="-1.92252" x2="2.31205" y2="-1.81317" style="stroke:rgb(246,147,147);stroke-width:0.01" />
<line x1="2.10059" y1="-1.92206" x2="2.12365" y2="-1.89132" style="stroke:rgb(246,147,147);stroke-width:0.01" />
<line x1="1.85329" y1="-1.63499" x2="2.13089" y2="-1.62524" style="stroke:rgb(246,147,147);stroke-width:0.01" />
<line x1="1.80376" y1="-1.77541" x2="1.89963" y2="-1.66203" style="stroke:rgb(246,147,147);stroke-width:0.01" />
<line x1="2.02516" y1="-1.90257" x2="2.07188" y2="-1.83833" style="stroke:rgb(246,147,147);stroke-width:0.01" />
<line x1="1.71022" y1="-1.71022" x2="1.77264" y2="-1.63044" style="stroke:rgb(246,147,147);stroke-width:0.01" />
<line x1="2.00484" y1="-1.89732" x2="2.05425" y2="-1.8203" style="stroke:rgb(246,147,147);stroke-width:0.01" />
<line x1="2.31205" y1="-1.81317" x2="2.00649" y2="-1.75164" style="stroke:rgb(246,147,147);stroke-width:0.01" />
<line x1="2.17161" y1="-1.94042" x2="1.85985" y2="-1.85985" style="stroke:rgb(246,147,147);stroke-width:0.01" />
<line x1="1.85533" y1="-1.84237" x2="1.83704" y2="-1.83704" style="stroke:rgb(246,147,147);stroke-width:0.01" />
<line x1="1.97275" y1="-1.73687" x2="1.81963" y2="-1.69799" style="stroke:rgb(246,147,147);stroke-width:0.01" />
<line x1="1.98764" y1="-1.63183" x2="1.86245" y2="-1.59892" style="stroke:rgb(246,147,147);stroke-width:0.01" />
<line x1="2.2313" y1="-1.92252" x2="1.95564" y2="-1.82119" style="stroke:rgb(246,147,147);stroke-width:0.01" />
<line x1="2.17734" y1="-1.73673" x2="1.81933" y2="-1.62433" style="stroke:rgb(246,147,147);stroke-width:0.01" />
<line x1="1.99953" y1="-1.85364" x2="1.75655" y2="-1.75655" style="stroke:rgb(246,147,147);stroke-width:0.01" />
<line x1="2.00163" y1="-1.76643" x2="1.81963" y2="-1.69799" style="stroke:rgb(246,147,147);stroke-width:0.01" />
<line x1="1.83798" y1="-1.65392" x2="1.77264" y2="-1.63044" style="stroke:rgb(246,147,147);stroke-width:0.01" />
<line x1="1.79056" y1="-1.79056" x2="1.84763" y2="-1.6088" style="stroke:rgb(246,147,147);stroke-width:0.01" />
<line x1="1.85329" y1="-1.63499" x2="1.86245" y2="-1.59892" style="stroke:rgb(246,147,147);stroke-width:0.01" />
<line x1="1.78624" y1="-1.78624" x2="1.81933" y2="-1.62433" style="stroke:rgb(246,147,147);stroke-width:0.01" />
<line x1="2.13089" y1="-1.62524" x2="1.98099" y2="-1.52906" style="stroke:rgb(246,147,147);stroke-width:0.01" />
<line x1="1.69697" y1="-1.69697" x2="1.70141" y2="-1.65099" style="stroke:rgb(246,147,147);stroke-width:0.01" />
<line x1="1.80376" y1="-1.77541" x2="1.81291" y2="-1.61882" style="stroke:rgb(246,147,147);stroke-width:0.01" />
<line x1="1.83798" y1="-1.65392" x2="1.83898" y2="-1.6113" style="stroke:rgb(246,147,147);stroke-width:0.01" />
<line x1="1.85985" y1="-1.85985" x2="1.78624" y2="-1.78624" style="stroke:rgb(246,147,147);stroke-width:0.01" />
<line x1="1.75655" y1="-1.75655" x2="1.69697" y2="-1.69697" style="stroke:rgb(246,147,147);stroke-width:0.01" />
<line x1="1.89628" y1="-1.80188" x2="1.80239" y2="-1.70721" style="stroke:rgb(246,147,147);stroke-width:0.01" />
<line x1="2.00484" y1="-1.89732" x2="1.98099" y2="-1.52906" style="stroke:rgb(246,147,147);stroke-width:0.01" />
<line x1="2.17161" y1="-1.94042" x2="1.84763" y2="-1.6088" style="stroke:rgb(246,147,147);stroke-width:0.01" />
<line x1="1.86365" y1="-1.86083" x2="1.70141" y2="-1.65099" style="stroke:rgb(246,147,147);stroke-width:0.01" />
<line x1="2.02516" y1="-1.90257" x2="2.00649" y2="-1.75164" style="stroke:rgb(246,147,147);stroke-width:0.01" />
<line x1="2.10059" y1="-1.92206" x2="2.09364" y2="-1.87192" style="stroke:rgb(246,147,147);stroke-width:0.01" />
<line x1="1.85329" y1="-1.63499" x2="1.83652" y2="-1.61419" style="stroke:rgb(246,147,147);stroke-width:0.01" />
<line x1="1.83798" y1="-1.65392" x2="1.81291" y2="-1.61882" style="stroke:rgb(246,147,147);stroke-width:0.01" />
<line x1="1.85985" y1="-1.85985" x2="1.83809" y2="-1.77564" style="stroke:rgb(246,147,147);stroke-width:0.01" />
<line x1="1.99953" y1="-1.85364" x2="1.97275" y2="-1.73687" style="stroke:rgb(246,147,147);stroke-width:0.01" />
<line x1="1.83704" y1="-1.83704" x2="1.80763" y2="-1.73621" style="stroke:rgb(246,147,147);stroke-width:0.01" />
<line x1="1.99953" y1="-1.85364" x2="1.83898" y2="-1.6113" style="stroke:rgb(246,147,147);stroke-width:0.01" />
<line x1="1.75655" y1="-1.75655" x2="1.73141" y2="-1.69364" style="stroke:rgb(246,147,147);stroke-width:0.01" />
<line x1="1.94547" y1="-1.88198" x2="1.83652" y2="-1.61419" style="stroke:rgb(246,147,147);stroke-width:0.01" />
<line x1="1.99162" y1="-1.8939" x2="1.95564" y2="-1.82119" style="stroke:rgb(246,147,147);stroke-width:0.01" />
<line x1="2.05163" y1="-1.90941" x2="2.00163" y2="-1.76643" style="stroke:rgb(246,147,147);stroke-width:0.01" />
<line x1="2.08592" y1="-1.91827" x2="2.00649" y2="-1.75164" style="stroke:rgb(246,147,147);stroke-width:0.01" />
<line x1="2.17734" y1="-1.73673" x2="2.13089" y2="-1.62524" style="stroke:rgb(246,147,147);stroke-width:0.01" />
<line x1="2.26289" y1="-1.68219" x2="2.11493" y2="-1.45013" style="stroke:rgb(246,147,147);stroke-width:0.01" />
<line x1="2.31205" y1="-1.81317" x2="2.11493" y2="-1.45013" style="stroke:rgb(246,147,147);stroke-width:0.01" />
</g>
</svg>
