<svg xmlns="http://www.w3.org/2000/svg" viewBox="-1.5 -1.5 3 3">
<g transform="scale(1, -1)">
<path d="M0.189010 -0.199549 L0.248705 -0.181653 L0.329450 -0.072303 L0.263978 0.048282 L0.280288 0.058681 L0.132335 0.290738 L-0.138804 0.130960 L-0.281187 0.089876 L-0.285630 0.043900 L-0.226046 -0.015685 L-0.192991 -0.028892 L-0.196358 -0.045372 L-0.122749 -0.118982 z " fill="rgb(245,195,195)" />
<path d="M-1.982598 1.740867 L-0.982598 1.740867 L-0.982598 2.740867 L-1.982598 2.740867  z" fill="none" stroke="rgb(128,128,128)" stroke-width="0.01" />
<line x1="0.18901" y1="-0.199549" x2="0.248705" y2="-0.181653" style="stroke:rgb(246,147,147);stroke-width:0.01" />
<line x1="0.103318" y1="-0.177403" x2="0.141048" y2="-0.150456" style="stroke:rgb(246,147,147);stroke-width:0.01" />
<line x1="-0.118946" y1="-0.119964" x2="-0.0269557" y2="-0.0803272" style="stroke:rgb(246,147,147);stroke-width:0.01" />
<line x1="0.0169314" y1="-0.112769" x2="0.071657" y2="-0.0794293" style="stroke:rgb(246,147,147);stroke-width:0.01" />
<line x1="0.194746" y1="0.00414143" x2="0.280288" y2="0.0586806" style="stroke:rgb(246,147,147);stroke-width:0.01" />
<line x1="0.00901807" y1="-0.153034" x2="0.08928" y2="-0.0974677" style="stroke:rgb(246,147,147);stroke-width:0.01" />
<line x1="-0.192034" y1="-0.0496968" x2="-0.14451" y2="-0.0347766" style="stroke:rgb(246,147,147);stroke-width:0.01" />
<line x1="-0.180207" y1="0.033662" x2="0.00504516" y2="0.109037" style="stroke:rgb(246,147,147);stroke-width:0.01" />
<line x1="-0.0371226" y1="-0.14111" x2="0.0574314" y2="-0.0648684" style="stroke:rgb(246,147,147);stroke-width:0.01" />
<line x1="0.0690324" y1="-0.168543" x2="0.111044" y2="-0.131052" style="stroke:rgb(246,147,147);stroke-width:0.01" />
<line x1="-0.196358" y1="-0.0453721" x2="-0.14451" y2="-0.0347766" style="stroke:rgb(246,147,147);stroke-width:0.01" />
<line x1="-0.163271" y1="0.116542" x2="0.132335" y2="0.290738" style="stroke:rgb(246,147,147);stroke-width:0.01" />
<line x1="-0.281187" y1="0.0898755" x2="-0.134969" y2="0.132066" style="stroke:rgb(246,147,147);stroke-width:0.01" />
<line x1="-0.174969" y1="0.00465884" x2="-0.0829686" y2="0.0788407" style="stroke:rgb(246,147,147);stroke-width:0.01" />
<line x1="-0.272377" y1="0.0306463" x2="-0.251183" y2="0.0472282" style="stroke:rgb(246,147,147);stroke-width:0.01" />
<line x1="-0.133717" y1="-0.108013" x2="-0.0863219" y2="-0.0610126" style="stroke:rgb(246,147,147);stroke-width:0.01" />
<line x1="-0.28563" y1="0.0438995" x2="-0.251183" y2="0.0472282" style="stroke:rgb(246,147,147);stroke-width:0.01" />
<line x1="-0.133717" y1="-0.108013" x2="-0.127265" y2="-0.101507" style="stroke:rgb(246,147,147);stroke-width:0.01" />
<line x1="0.0169314" y1="-0.112769" x2="0.0574314" y2="-0.0648684" style="stroke:rgb(246,147,147);stroke-width:0.01" />
<line x1="0.248705" y1="-0.181653" x2="0.32945" y2="-0.0723028" style="stroke:rgb(246,147,147);stroke-width:0.01" />
<line x1="0.117993" y1="-0.181196" x2="0.141048" y2="-0.150456" style="stroke:rgb(246,147,147);stroke-width:0.01" />
<line x1="-0.129312" y1="0.105881" x2="0.148294" y2="0.115624" style="stroke:rgb(246,147,147);stroke-width:0.01" />
<line x1="-0.178838" y1="-0.0345469" x2="-0.0829686" y2="0.0788407" style="stroke:rgb(246,147,147);stroke-width:0.01" />
<line x1="0.0425602" y1="-0.161702" x2="0.08928" y2="-0.0974677" style="stroke:rgb(246,147,147);stroke-width:0.01" />
<line x1="-0.272377" y1="0.0306463" x2="-0.209954" y2="0.11043" style="stroke:rgb(246,147,147);stroke-width:0.01" />
<line x1="0.0222389" y1="-0.15645" x2="0.071657" y2="-0.0794293" style="stroke:rgb(246,147,147);stroke-width:0.01" />
<line x1="0.32945" y1="-0.0723028" x2="0.0238946" y2="-0.0107769" style="stroke:rgb(246,147,147);stroke-width:0.01" />
<line x1="0.18901" y1="-0.199549" x2="-0.122749" y2="-0.118982" style="stroke:rgb(246,147,147);stroke-width:0.01" />
<line x1="-0.127265" y1="-0.101507" x2="-0.14556" y2="-0.0961705" style="stroke:rgb(246,147,147);stroke-width:0.01" />
<line x1="-0.00984356" y1="0.00399217" x2="-0.162969" y2="0.0428811" style="stroke:rgb(246,147,147);stroke-width:0.01" />
<line x1="0.00504516" y1="0.109037" x2="-0.120152" y2="0.141951" style="stroke:rgb(246,147,147);stroke-width:0.01" />
<line x1="0.248705" y1="-0.181653" x2="-0.0269557" y2="-0.0803272" style="stroke:rgb(246,147,147);stroke-width:0.01" />
<line x1="0.194746" y1="0.00414143" x2="-0.163271" y2="0.116542" style="stroke:rgb(246,147,147);stroke-width:0.01" />
<line x1="0.0169314" y1="-0.112769" x2="-0.226046" y2="-0.0156846" style="stroke:rgb(246,147,147);stroke-width:0.01" />
<line x1="0.0190314" y1="-0.0255634" x2="-0.162969" y2="0.0428811" style="stroke:rgb(246,147,147);stroke-width:0.01" />
<line x1="-0.144615" y1="0.0869453" x2="-0.209954" y2="0.11043" style="stroke:rgb(246,147,147);stroke-width:0.01" />
<line x1="-0.192034" y1="-0.0496968" x2="-0.134969" y2="0.132066" style="stroke:rgb(246,147,147);stroke-width:0.01" />
<line x1="-0.129312" y1="0.105881" x2="-0.120152" y2="0.141951" style="stroke:rgb(246,147,147);stroke-width:0.01" />
<line x1="-0.196358" y1="-0.0453721" x2="-0.163271" y2="0.116542" style="stroke:rgb(246,147,147);stroke-width:0.01" />
<line x1="0.148294" y1="0.115624" x2="-0.0016104" y2="0.211806" style="stroke:rgb(246,147,147);stroke-width:0.01" />
<line x1="-0.28563" y1="0.0438995" x2="-0.281187" y2="0.0898755" style="stroke:rgb(246,147,147);stroke-width:0.01" />
<line x1="-0.178838" y1="-0.0345469" x2="-0.169686" y2="0.122049" style="stroke:rgb(246,147,147);stroke-width:0.01" />
<line x1="-0.144615" y1="0.0869453" x2="-0.143622" y2="0.129569" style="stroke:rgb(246,147,147);stroke-width:0.01" />
<line x1="-0.122749" y1="-0.118982" x2="-0.196358" y2="-0.0453721" style="stroke:rgb(246,147,147);stroke-width:0.01" />
<line x1="-0.226046" y1="-0.0156846" x2="-0.28563" y2="0.0438995" style="stroke:rgb(246,147,147);stroke-width:0.01" />
<line x1="-0.0863219" y1="-0.0610126" x2="-0.180207" y2="0.033662" style="stroke:rgb(246,147,147);stroke-width:0.01" />
<line x1="0.0222389" y1="-0.15645" x2="-0.0016104" y2="0.211806" style="stroke:rgb(246,147,147);stroke-width:0.01" />
<line x1="0.18901" y1="-0.199549" x2="-0.134969" y2="0.132066" style="stroke:rgb(246,147,147);stroke-width:0.01" />
<line x1="-0.118946" y1="-0.119964" x2="-0.281187" y2="0.0898755" style="stroke:rgb(246,147,147);stroke-width:0.01" />
<line x1="0.0425602" y1="-0.161702" x2="0.0238946" y2="-0.0107769" style="stroke:rgb(246,147,147);stroke-width:0.01" />
<line x1="0.117993" y1="-0.181196" x2="0.111044" y2="-0.131052" style="stroke:rgb(246,147,147);stroke-width:0.01" />
<line x1="-0.129312" y1="0.105881" x2="-0.146078" y2="0.126673" style="stroke:rgb(246,147,147);stroke-width:0.01" />
<line x1="-0.144615" y1="0.0869453" x2="-0.169686" y2="0.122049" style="stroke:rgb(246,147,147);stroke-width:0.01" />
<line x1="-0.122749" y1="-0.118982" x2="-0.14451" y2="-0.0347766" style="stroke:rgb(246,147,147);stroke-width:0.01" />
<line x1="0.0169314" y1="-0.112769" x2="-0.00984356" y2="0.00399217" style="stroke:rgb(246,147,147);stroke-width:0.01" />
<line x1="-0.14556" y1="-0.0961705" x2="-0.174969" y2="0.00465884" style="stroke:rgb(246,147,147);stroke-width:0.01" />
<line x1="0.0169314" y1="-0.112769" x2="-0.143622" y2="0.129569" style="stroke:rgb(246,147,147);stroke-width:0.01" />
<line x1="-0.226046" y1="-0.0156846" x2="-0.251183" y2="0.0472282" style="stroke:rgb(246,147,147);stroke-width:0.01" />
<line x1="-0.0371226" y1="-0.14111" x2="-0.146078" y2="0.126673" style="stroke:rgb(246,147,147);stroke-width:0.01" />
<line x1="0.00901807" y1="-0.153034" x2="-0.0269557" y2="-0.0803272" style="stroke:rgb(246,147,147);stroke-width:0.01" />
<line x1="0.0690324" y1="-0.168543" x2="0.0190314" y2="-0.0255634" style="stroke:rgb(246,147,147);stroke-width:0.01" />
<line x1="0.103318" y1="-0.177403" x2="0.0238946" y2="-0.0107769" style="stroke:rgb(246,147,147);stroke-width:0.01" />
<line x1="0.194746" y1="0.00414143" x2="0.148294" y2="0.115624" style="stroke:rgb(246,147,147);stroke-width:0.01" />
<line x1="0.280288" y1="0.0586806" x2="0.132335" y2="0.290738" style="stroke:rgb(246,147,147);stroke-width:0.01" />
<line x1="0.32945" y1="-0.0723028" x2="0.132335" y2="0.290738" style="stroke:rgb(246,147,147);stroke-width:0.01" />
</g>
</svg>
