<svg xmlns="http://www.w3.org/2000/svg" viewBox="-1.5 -1.5 3 3">
<g transform="scale(1, -1)">
<path d="M0.022101 -0.255058 L0.297954 -0.048168 L0.296387 -0.045033 L0.294947 -0.045381 L0.049627 0.181989 L-0.011592 0.140409 L-0.016459 0.143900 L-0.187240 0.151910 L-0.205710 0.165175 L-0.214325 0.153180 L-0.095943 -0.091544 L-0.035777 -0.125239 L-0.102245 -0.141288 L-0.091725 -0.184854 z " fill="rgb(245,195,195)" />
<path d="M-0.338410 -1.275440 L0.661590 -1.275440 L0.661590 -0.275440 L-0.338410 -0.275440  z" fill="none" stroke="rgb(128,128,128)" stroke-width="0.01" />
<line x1="0.169356" y1="-0.144616" x2="0.174161" y2="-0.118513" style="stroke:rgb(246,147,147);stroke-width:0.01" />
<line x1="0.0228831" y1="-0.254471" x2="0.0366216" y2="-0.107757" style="stroke:rgb(246,147,147);stroke-width:0.01" />
<line x1="0.0882741" y1="-0.194712" x2="0.0960823" y2="-0.028228" style="stroke:rgb(246,147,147);stroke-width:0.01" />
<line x1="-0.0367871" y1="-0.124673" x2="0.016011" y2="0.120614" style="stroke:rgb(246,147,147);stroke-width:0.01" />
<line x1="-0.0959426" y1="-0.0915441" x2="-0.070338" y2="0.0679535" style="stroke:rgb(246,147,147);stroke-width:0.01" />
<line x1="-0.106245" y1="-0.0702465" x2="-0.080938" y2="0.0646225" style="stroke:rgb(246,147,147);stroke-width:0.01" />
<line x1="0.111283" y1="-0.188171" x2="0.108121" y2="-0.138365" style="stroke:rgb(246,147,147);stroke-width:0.01" />
<line x1="-0.159055" y1="0.0389235" x2="-0.13609" y2="0.115176" style="stroke:rgb(246,147,147);stroke-width:0.01" />
<line x1="-0.0914219" y1="0.0121323" x2="-0.0388097" y2="0.144948" style="stroke:rgb(246,147,147);stroke-width:0.01" />
<line x1="0.0198196" y1="-0.156375" x2="0.0279863" y2="-0.140848" style="stroke:rgb(246,147,147);stroke-width:0.01" />
<line x1="-0.0917251" y1="-0.184854" x2="-0.102245" y2="-0.141288" style="stroke:rgb(246,147,147);stroke-width:0.01" />
<line x1="-0.16443" y1="0.0500361" x2="-0.138024" y2="0.116564" style="stroke:rgb(246,147,147);stroke-width:0.01" />
<line x1="0.0198196" y1="-0.156375" x2="0.0960823" y2="-0.028228" style="stroke:rgb(246,147,147);stroke-width:0.01" />
<line x1="0.0221008" y1="-0.255058" x2="-0.0503085" y2="0.00774083" style="stroke:rgb(246,147,147);stroke-width:0.01" />
<line x1="0.15721" y1="-0.14789" x2="0.259092" y2="-0.0121495" style="stroke:rgb(246,147,147);stroke-width:0.01" />
<line x1="0.191304" y1="-0.128155" x2="0.189287" y2="-0.119484" style="stroke:rgb(246,147,147);stroke-width:0.01" />
<line x1="0.054637" y1="-0.175874" x2="-0.0388097" y2="0.144948" style="stroke:rgb(246,147,147);stroke-width:0.01" />
<line x1="-0.0503085" y1="0.00774083" x2="0.0496267" y2="0.181989" style="stroke:rgb(246,147,147);stroke-width:0.01" />
<line x1="-0.00824639" y1="-0.144917" x2="0.168858" y2="0.071482" style="stroke:rgb(246,147,147);stroke-width:0.01" />
<line x1="-0.0959426" y1="-0.0915441" x2="-0.214325" y2="0.15318" style="stroke:rgb(246,147,147);stroke-width:0.01" />
<line x1="0.0218862" y1="-0.254279" x2="0.174161" y2="-0.118513" style="stroke:rgb(246,147,147);stroke-width:0.01" />
<line x1="0.0734013" y1="-0.17494" x2="0.259092" y2="-0.0121495" style="stroke:rgb(246,147,147);stroke-width:0.01" />
<line x1="0.239646" y1="-0.0918988" x2="0.296387" y2="-0.0450334" style="stroke:rgb(246,147,147);stroke-width:0.01" />
<line x1="-0.214325" y1="0.15318" x2="-0.20571" y2="0.165175" style="stroke:rgb(246,147,147);stroke-width:0.01" />
<line x1="-0.0367871" y1="-0.124673" x2="0.168858" y2="0.071482" style="stroke:rgb(246,147,147);stroke-width:0.01" />
<line x1="0.0221008" y1="-0.255058" x2="0.297954" y2="-0.0481677" style="stroke:rgb(246,147,147);stroke-width:0.01" />
<line x1="0.297954" y1="-0.0481677" x2="0.296387" y2="-0.0450334" style="stroke:rgb(246,147,147);stroke-width:0.01" />
<line x1="0.0954264" y1="-0.200063" x2="0.0366216" y2="-0.107757" style="stroke:rgb(246,147,147);stroke-width:0.01" />
<line x1="0.0882741" y1="-0.194712" x2="0.239646" y2="-0.0918988" style="stroke:rgb(246,147,147);stroke-width:0.01" />
<line x1="-0.0593598" y1="0.118855" x2="-0.0329156" y2="0.144672" style="stroke:rgb(246,147,147);stroke-width:0.01" />
<line x1="0.0954264" y1="-0.200063" x2="0.0734013" y2="-0.17494" style="stroke:rgb(246,147,147);stroke-width:0.01" />
<line x1="-0.179578" y1="0.0813506" x2="-0.138024" y2="0.116564" style="stroke:rgb(246,147,147);stroke-width:0.01" />
<line x1="0.0102422" y1="0.0938137" x2="-0.0329156" y2="0.144672" style="stroke:rgb(246,147,147);stroke-width:0.01" />
<line x1="-0.0722435" y1="0.0560836" x2="-0.080938" y2="0.0646225" style="stroke:rgb(246,147,147);stroke-width:0.01" />
<line x1="-0.159538" y1="0.0399229" x2="0.0496267" y2="0.181989" style="stroke:rgb(246,147,147);stroke-width:0.01" />
<line x1="-0.180633" y1="0.0835318" x2="-0.13609" y2="0.115176" style="stroke:rgb(246,147,147);stroke-width:0.01" />
<line x1="0.0221008" y1="-0.255058" x2="-0.0917251" y2="-0.184854" style="stroke:rgb(246,147,147);stroke-width:0.01" />
<line x1="-0.0593598" y1="0.118855" x2="-0.0164591" y2="0.1439" style="stroke:rgb(246,147,147);stroke-width:0.01" />
<line x1="0.054637" y1="-0.175874" x2="0.15721" y2="-0.14789" style="stroke:rgb(246,147,147);stroke-width:0.01" />
<line x1="-0.149041" y1="0.0182237" x2="-0.0722435" y2="0.0560836" style="stroke:rgb(246,147,147);stroke-width:0.01" />
<line x1="0.297954" y1="-0.0481677" x2="0.0496267" y2="0.181989" style="stroke:rgb(246,147,147);stroke-width:0.01" />
<line x1="-0.0917251" y1="-0.184854" x2="0.189287" y2="-0.119484" style="stroke:rgb(246,147,147);stroke-width:0.01" />
<line x1="-0.149041" y1="0.0182237" x2="0.0102422" y2="0.0938137" style="stroke:rgb(246,147,147);stroke-width:0.01" />
<line x1="0.0882741" y1="-0.194712" x2="-0.0959426" y2="-0.0915441" style="stroke:rgb(246,147,147);stroke-width:0.01" />
<line x1="-0.070338" y1="0.0679535" x2="-0.20571" y2="0.165175" style="stroke:rgb(246,147,147);stroke-width:0.01" />
<line x1="-0.102245" y1="-0.141288" x2="0.296387" y2="-0.0450334" style="stroke:rgb(246,147,147);stroke-width:0.01" />
<line x1="0.0279863" y1="-0.140848" x2="-0.106245" y2="-0.0702465" style="stroke:rgb(246,147,147);stroke-width:0.01" />
<line x1="0.0228831" y1="-0.254471" x2="0.0218862" y2="-0.254279" style="stroke:rgb(246,147,147);stroke-width:0.01" />
<line x1="0.016011" y1="0.120614" x2="-0.0164591" y2="0.1439" style="stroke:rgb(246,147,147);stroke-width:0.01" />
<line x1="0.191304" y1="-0.128155" x2="-0.0503085" y2="0.00774083" style="stroke:rgb(246,147,147);stroke-width:0.01" />
<line x1="0.111283" y1="-0.188171" x2="-0.00824639" y2="-0.144917" style="stroke:rgb(246,147,147);stroke-width:0.01" />
<line x1="-0.159538" y1="0.0399229" x2="-0.070338" y2="0.0679535" style="stroke:rgb(246,147,147);stroke-width:0.01" />
<line x1="0.169356" y1="-0.144616" x2="0.108121" y2="-0.138365" style="stroke:rgb(246,147,147);stroke-width:0.01" />
<line x1="-0.0914219" y1="0.0121323" x2="-0.159055" y2="0.0389235" style="stroke:rgb(246,147,147);stroke-width:0.01" />
<line x1="-0.180633" y1="0.0835318" x2="-0.0593598" y2="0.118855" style="stroke:rgb(246,147,147);stroke-width:0.01" />
<line x1="0.0960823" y1="-0.028228" x2="-0.16443" y2="0.0500361" style="stroke:rgb(246,147,147);stroke-width:0.01" />
<line x1="-0.179578" y1="0.0813506" x2="0.016011" y2="0.120614" style="stroke:rgb(246,147,147);stroke-width:0.01" />
<line x1="-0.0164591" y1="0.1439" x2="-0.214325" y2="0.15318" style="stroke:rgb(246,147,147);stroke-width:0.01" />
</g>
</svg>
