<svg xmlns="http://www.w3.org/2000/svg" viewBox="-1.5 -1.5 3 3">
<g transform="scale(1, -1)">
<path d="M-0.001811 -0.350941 L0.146434 -0.179440 L0.176908 -0.011836 L0.111656 0.211882 L-0.053107 0.354302 L-0.380081 -0.023967 z " fill="rgb(245,195,195)" />
<path d="M-1.023092 -3.611836 L-0.023092 -3.611836 L-0.023092 -2.611836 L-1.023092 -2.611836  z" fill="none" stroke="rgb(128,128,128)" stroke-width="0.01" />
<line x1="0.146434" y1="-0.17944" x2="0.176908" y2="-0.0118361" style="stroke:rgb(246,147,147);stroke-width:0.01" />
<line x1="-0.00181094" y1="-0.350941" x2="0.0328065" y2="0.147859" style="stroke:rgb(246,147,147);stroke-width:0.01" />
<line x1="-0.00181094" y1="-0.350941" x2="0.127536" y2="0.157438" style="stroke:rgb(246,147,147);stroke-width:0.01" />
<line x1="0.0308437" y1="-0.058515" x2="0.111656" y2="0.211882" style="stroke:rgb(246,147,147);stroke-width:0.01" />
<line x1="-0.0963784" y1="-0.269198" x2="0.124472" y2="0.167942" style="stroke:rgb(246,147,147);stroke-width:0.01" />
<line x1="0.176908" y1="-0.0118361" x2="0.111656" y2="0.211882" style="stroke:rgb(246,147,147);stroke-width:0.01" />
<line x1="0.115058" y1="-0.0943016" x2="0.176908" y2="-0.0118361" style="stroke:rgb(246,147,147);stroke-width:0.01" />
<line x1="0.173726" y1="-0.0293371" x2="0.102432" y2="0.181016" style="stroke:rgb(246,147,147);stroke-width:0.01" />
<line x1="0.0417856" y1="-0.300505" x2="-0.0421664" y2="-0.0827981" style="stroke:rgb(246,147,147);stroke-width:0.01" />
<line x1="0.146434" y1="-0.17944" x2="0.115058" y2="-0.0943016" style="stroke:rgb(246,147,147);stroke-width:0.01" />
<line x1="0.150609" y1="-0.0943089" x2="0.0785689" y2="0.101172" style="stroke:rgb(246,147,147);stroke-width:0.01" />
<line x1="0.120199" y1="-0.0946584" x2="0.173726" y2="-0.0293371" style="stroke:rgb(246,147,147);stroke-width:0.01" />
<line x1="-0.00181094" y1="-0.350941" x2="0.146434" y2="-0.17944" style="stroke:rgb(246,147,147);stroke-width:0.01" />
<line x1="-0.380081" y1="-0.0239673" x2="-0.0531065" y2="0.354302" style="stroke:rgb(246,147,147);stroke-width:0.01" />
<line x1="0.120199" y1="-0.0946584" x2="0.117773" y2="-0.0906826" style="stroke:rgb(246,147,147);stroke-width:0.01" />
<line x1="0.163669" y1="-0.0846486" x2="0.14451" y2="-0.055033" style="stroke:rgb(246,147,147);stroke-width:0.01" />
<line x1="0.150609" y1="-0.0943089" x2="0.163669" y2="-0.0846486" style="stroke:rgb(246,147,147);stroke-width:0.01" />
<line x1="0.0785689" y1="0.101172" x2="0.132345" y2="0.140951" style="stroke:rgb(246,147,147);stroke-width:0.01" />
<line x1="0.134428" y1="-0.193329" x2="0.013709" y2="-0.0512969" style="stroke:rgb(246,147,147);stroke-width:0.01" />
<line x1="-0.00181094" y1="-0.350941" x2="-0.380081" y2="-0.0239673" style="stroke:rgb(246,147,147);stroke-width:0.01" />
<line x1="0.127536" y1="0.157438" x2="0.102432" y2="0.181016" style="stroke:rgb(246,147,147);stroke-width:0.01" />
<line x1="0.111656" y1="0.211882" x2="-0.0531065" y2="0.354302" style="stroke:rgb(246,147,147);stroke-width:0.01" />
<line x1="0.134428" y1="-0.193329" x2="-0.0421664" y2="-0.0827981" style="stroke:rgb(246,147,147);stroke-width:0.01" />
<line x1="0.124472" y1="0.167942" x2="0.102432" y2="0.181016" style="stroke:rgb(246,147,147);stroke-width:0.01" />
<line x1="0.0417856" y1="-0.300505" x2="-0.0963784" y2="-0.269198" style="stroke:rgb(246,147,147);stroke-width:0.01" />
<line x1="0.16133" y1="-0.097513" x2="0.0308437" y2="-0.058515" style="stroke:rgb(246,147,147);stroke-width:0.01" />
<line x1="0.160472" y1="-0.10223" x2="0.117773" y2="-0.0906826" style="stroke:rgb(246,147,147);stroke-width:0.01" />
<line x1="0.16133" y1="-0.097513" x2="0.115058" y2="-0.0943016" style="stroke:rgb(246,147,147);stroke-width:0.01" />
<line x1="0.167789" y1="-0.0619903" x2="0.14451" y2="-0.055033" style="stroke:rgb(246,147,147);stroke-width:0.01" />
<line x1="0.160472" y1="-0.10223" x2="-0.0421664" y2="-0.0827981" style="stroke:rgb(246,147,147);stroke-width:0.01" />
<line x1="0.167789" y1="-0.0619903" x2="0.013709" y2="-0.0512969" style="stroke:rgb(246,147,147);stroke-width:0.01" />
<line x1="0.132345" y1="0.140951" x2="0.0328065" y2="0.147859" style="stroke:rgb(246,147,147);stroke-width:0.01" />
</g>
</svg>
