<svg xmlns="http://www.w3.org/2000/svg" viewBox="-1.5 -1.5 3 3">
<g transform="scale(1, -1)">
<path d="M0.007949 -0.287998 L0.251203 -0.176643 L0.318654 -0.124489 L0.168729 0.325286 L0.158049 0.330613 L-0.484310 0.036558 L-0.420274 -0.103328 z " fill="rgb(245,195,195)" />
<path d="M-1.282066 1.427672 L-0.282066 1.427672 L-0.282066 2.427672 L-1.282066 2.427672  z" fill="none" stroke="rgb(128,128,128)" stroke-width="0.01" />
<line x1="0.00794932" y1="-0.287998" x2="0.251203" y2="-0.176643" style="stroke:rgb(246,147,147);stroke-width:0.01" />
<line x1="0.251203" y1="-0.176643" x2="0.318654" y2="-0.124489" style="stroke:rgb(246,147,147);stroke-width:0.01" />
<line x1="0.036013" y1="-0.0494473" x2="0.259689" y2="0.0524054" style="stroke:rgb(246,147,147);stroke-width:0.01" />
<line x1="-0.420274" y1="-0.103328" x2="-0.0924851" y2="0.00792297" style="stroke:rgb(246,147,147);stroke-width:0.01" />
<line x1="0.221018" y1="0.0439121" x2="0.259689" y2="0.0524054" style="stroke:rgb(246,147,147);stroke-width:0.01" />
<line x1="0.318654" y1="-0.124489" x2="0.0837388" y2="-0.121036" style="stroke:rgb(246,147,147);stroke-width:0.01" />
<line x1="0.0045501" y1="-0.00225296" x2="0.0935027" y2="0.00397098" style="stroke:rgb(246,147,147);stroke-width:0.01" />
<line x1="-0.48431" y1="0.0365583" x2="0.158049" y2="0.330613" style="stroke:rgb(246,147,147);stroke-width:0.01" />
<line x1="0.036013" y1="-0.0494473" x2="0.0935027" y2="0.00397098" style="stroke:rgb(246,147,147);stroke-width:0.01" />
<line x1="0.251203" y1="-0.176643" x2="0.311409" y2="-0.102753" style="stroke:rgb(246,147,147);stroke-width:0.01" />
<line x1="0.124926" y1="-0.0179444" x2="0.0281964" y2="-0.00320694" style="stroke:rgb(246,147,147);stroke-width:0.01" />
<line x1="0.311409" y1="-0.102753" x2="0.023916" y2="-0.0313018" style="stroke:rgb(246,147,147);stroke-width:0.01" />
<line x1="0.00794932" y1="-0.287998" x2="-0.420274" y2="-0.103328" style="stroke:rgb(246,147,147);stroke-width:0.01" />
<line x1="0.0045501" y1="-0.00225296" x2="0.168729" y2="0.325286" style="stroke:rgb(246,147,147);stroke-width:0.01" />
<line x1="0.0837388" y1="-0.121036" x2="0.124926" y2="-0.0179444" style="stroke:rgb(246,147,147);stroke-width:0.01" />
<line x1="0.124926" y1="-0.0179444" x2="0.0935027" y2="0.00397098" style="stroke:rgb(246,147,147);stroke-width:0.01" />
<line x1="0.168729" y1="0.325286" x2="0.158049" y2="0.330613" style="stroke:rgb(246,147,147);stroke-width:0.01" />
<line x1="0.023916" y1="-0.0313018" x2="0.0281964" y2="-0.00320694" style="stroke:rgb(246,147,147);stroke-width:0.01" />
<line x1="-0.420274" y1="-0.103328" x2="-0.48431" y2="0.0365583" style="stroke:rgb(246,147,147);stroke-width:0.01" />
<line x1="0.0837388" y1="-0.121036" x2="0.0045501" y2="-0.00225296" style="stroke:rgb(246,147,147);stroke-width:0.01" />
<line x1="0.00794932" y1="-0.287998" x2="-0.0924851" y2="0.00792297" style="stroke:rgb(246,147,147);stroke-width:0.01" />
<line x1="0.221018" y1="0.0439121" x2="0.158049" y2="0.330613" style="stroke:rgb(246,147,147);stroke-width:0.01" />
<line x1="0.318654" y1="-0.124489" x2="0.168729" y2="0.325286" style="stroke:rgb(246,147,147);stroke-width:0.01" />
</g>
</svg>
