<svg xmlns="http://www.w3.org/2000/svg" viewBox="-1.5 -1.5 3 3">
<g transform="scale(1, -1)">
<path d="M0.101811 -0.357796 L0.110258 -0.354496 L0.189335 0.064884 L0.165144 0.104411 L0.157097 0.099487 L0.113895 0.207341 L-0.124100 0.229852 L-0.155459 0.225580 L-0.171600 0.054927 L-0.207167 0.065997 L-0.238026 -0.033156 L0.058813 -0.307031 z " fill="rgb(245,195,195)" />
<path d="M-0.249215 0.852285 L0.750785 0.852285 L0.750785 1.852285 L-0.249215 1.852285  z" fill="none" stroke="rgb(128,128,128)" stroke-width="0.01" />
<line x1="0.101811" y1="-0.357796" x2="0.110258" y2="-0.354496" style="stroke:rgb(246,147,147);stroke-width:0.01" />
<line x1="0.0282486" y1="-0.278831" x2="0.12591" y2="-0.271486" style="stroke:rgb(246,147,147);stroke-width:0.01" />
<line x1="0.0948884" y1="-0.193657" x2="0.14236" y2="-0.184246" style="stroke:rgb(246,147,147);stroke-width:0.01" />
<line x1="0.0933835" y1="-0.157974" x2="0.147746" y2="-0.155681" style="stroke:rgb(246,147,147);stroke-width:0.01" />
<line x1="0.140558" y1="-0.106645" x2="0.15763" y2="-0.103261" style="stroke:rgb(246,147,147);stroke-width:0.01" />
<line x1="0.130381" y1="-0.197627" x2="0.0948884" y2="-0.193657" style="stroke:rgb(246,147,147);stroke-width:0.01" />
<line x1="0.0415469" y1="-0.108906" x2="0.161193" y2="-0.0843649" style="stroke:rgb(246,147,147);stroke-width:0.01" />
<line x1="0.0975971" y1="-0.257885" x2="0.132331" y2="-0.237436" style="stroke:rgb(246,147,147);stroke-width:0.01" />
<line x1="-0.0473673" y1="-0.209065" x2="0.161183" y2="-0.084416" style="stroke:rgb(246,147,147);stroke-width:0.01" />
<line x1="0.167554" y1="-0.0506279" x2="-0.179251" y2="-0.0259604" style="stroke:rgb(246,147,147);stroke-width:0.01" />
<line x1="0.133531" y1="-0.0128325" x2="-0.0247094" y2="0.00194776" style="stroke:rgb(246,147,147);stroke-width:0.01" />
<line x1="-0.0665803" y1="0.0399544" x2="0.090183" y2="0.0987579" style="stroke:rgb(246,147,147);stroke-width:0.01" />
<line x1="0.12591" y1="-0.271486" x2="0.0975971" y2="-0.257885" style="stroke:rgb(246,147,147);stroke-width:0.01" />
<line x1="-0.238026" y1="-0.033156" x2="0.090183" y2="0.0987579" style="stroke:rgb(246,147,147);stroke-width:0.01" />
<line x1="-0.134401" y1="-0.0789116" x2="0.165144" y2="0.104411" style="stroke:rgb(246,147,147);stroke-width:0.01" />
<line x1="0.027066" y1="-0.0581821" x2="0.189335" y2="0.064884" style="stroke:rgb(246,147,147);stroke-width:0.01" />
<line x1="0.167554" y1="-0.0506279" x2="-0.207167" y2="0.0659968" style="stroke:rgb(246,147,147);stroke-width:0.01" />
<line x1="0.147746" y1="-0.155681" x2="-0.0767555" y2="-0.0567995" style="stroke:rgb(246,147,147);stroke-width:0.01" />
<line x1="0.0933835" y1="-0.157974" x2="0.161234" y2="-0.0841488" style="stroke:rgb(246,147,147);stroke-width:0.01" />
<line x1="-0.155459" y1="0.22558" x2="-0.1241" y2="0.229852" style="stroke:rgb(246,147,147);stroke-width:0.01" />
<line x1="0.113895" y1="0.207341" x2="-0.1241" y2="0.229852" style="stroke:rgb(246,147,147);stroke-width:0.01" />
<line x1="-0.0457736" y1="-0.210535" x2="0.183453" y2="0.0336902" style="stroke:rgb(246,147,147);stroke-width:0.01" />
<line x1="-0.152887" y1="0.218849" x2="-0.1241" y2="0.229852" style="stroke:rgb(246,147,147);stroke-width:0.01" />
<line x1="-0.0457736" y1="-0.210535" x2="0.133531" y2="-0.0128325" style="stroke:rgb(246,147,147);stroke-width:0.01" />
<line x1="0.14236" y1="-0.184246" x2="0.0383329" y2="-0.117799" style="stroke:rgb(246,147,147);stroke-width:0.01" />
<line x1="0.15763" y1="-0.103261" x2="-0.0665803" y2="0.0399544" style="stroke:rgb(246,147,147);stroke-width:0.01" />
<line x1="-0.0767555" y1="-0.0567995" x2="-0.0247094" y2="0.00194776" style="stroke:rgb(246,147,147);stroke-width:0.01" />
<line x1="0.110258" y1="-0.354496" x2="-0.238026" y2="-0.033156" style="stroke:rgb(246,147,147);stroke-width:0.01" />
<line x1="0.161193" y1="-0.0843649" x2="0.161094" y2="-0.0843008" style="stroke:rgb(246,147,147);stroke-width:0.01" />
<line x1="-0.134401" y1="-0.0789116" x2="0.113895" y2="0.207341" style="stroke:rgb(246,147,147);stroke-width:0.01" />
<line x1="0.101811" y1="-0.357796" x2="-0.179251" y2="-0.0259604" style="stroke:rgb(246,147,147);stroke-width:0.01" />
<line x1="-0.0473673" y1="-0.209065" x2="0.027066" y2="-0.0581821" style="stroke:rgb(246,147,147);stroke-width:0.01" />
<line x1="0.132331" y1="-0.237436" x2="0.0383329" y2="-0.117799" style="stroke:rgb(246,147,147);stroke-width:0.01" />
<line x1="0.161183" y1="-0.084416" x2="0.161094" y2="-0.0843008" style="stroke:rgb(246,147,147);stroke-width:0.01" />
<line x1="0.0415469" y1="-0.108906" x2="-0.0247094" y2="0.00194776" style="stroke:rgb(246,147,147);stroke-width:0.01" />
<line x1="0.110258" y1="-0.354496" x2="0.189335" y2="0.064884" style="stroke:rgb(246,147,147);stroke-width:0.01" />
<line x1="-0.238026" y1="-0.033156" x2="-0.207167" y2="0.0659968" style="stroke:rgb(246,147,147);stroke-width:0.01" />
<line x1="0.130381" y1="-0.197627" x2="0.140558" y2="-0.106645" style="stroke:rgb(246,147,147);stroke-width:0.01" />
<line x1="-0.152887" y1="0.218849" x2="-0.155459" y2="0.22558" style="stroke:rgb(246,147,147);stroke-width:0.01" />
<line x1="-0.0767555" y1="-0.0567995" x2="-0.0665803" y2="0.0399544" style="stroke:rgb(246,147,147);stroke-width:0.01" />
<line x1="0.189335" y1="0.064884" x2="0.165144" y2="0.104411" style="stroke:rgb(246,147,147);stroke-width:0.01" />
<line x1="-0.179251" y1="-0.0259604" x2="-0.155459" y2="0.22558" style="stroke:rgb(246,147,147);stroke-width:0.01" />
<line x1="0.0282486" y1="-0.278831" x2="0.027066" y2="-0.0581821" style="stroke:rgb(246,147,147);stroke-width:0.01" />
<line x1="0.101811" y1="-0.357796" x2="0.0933835" y2="-0.157974" style="stroke:rgb(246,147,147);stroke-width:0.01" />
<line x1="0.161234" y1="-0.0841488" x2="0.090183" y2="0.0987579" style="stroke:rgb(246,147,147);stroke-width:0.01" />
<line x1="0.183453" y1="0.0336902" x2="0.113895" y2="0.207341" style="stroke:rgb(246,147,147);stroke-width:0.01" />
</g>
</svg>
