<svg xmlns="http://www.w3.org/2000/svg" viewBox="-1.5 -1.5 3 3">
<g transform="scale(1, -1)">
<path d="M-0.090984 -0.192419 L0.046843 -0.082275 L0.197683 -0.087891 L0.267638 0.054522 L0.235185 0.105978 L-0.070759 0.353746 L-0.315880 0.123324 L-0.131957 -0.134894 L-0.137769 -0.140091 z " fill="rgb(245,195,195)" />
<path d="M-5.086961 1.156647 L-4.086961 1.156647 L-4.086961 2.156647 L-5.086961 2.156647  z" fill="none" stroke="rgb(128,128,128)" stroke-width="0.01" />
<line x1="-0.0909839" y1="-0.192419" x2="0.169812" y2="0.0159963" style="stroke:rgb(246,147,147);stroke-width:0.01" />
<line x1="-0.105075" y1="-0.0921972" x2="0.0340484" y2="0.015082" style="stroke:rgb(246,147,147);stroke-width:0.01" />
<line x1="-0.067252" y1="-0.0780269" x2="0.115364" y2="0.0485994" style="stroke:rgb(246,147,147);stroke-width:0.01" />
<line x1="-0.137769" y1="-0.140091" x2="0.110727" y2="0.082082" style="stroke:rgb(246,147,147);stroke-width:0.01" />
<line x1="0.234254" y1="0.0180714" x2="0.254118" y2="0.026998" style="stroke:rgb(246,147,147);stroke-width:0.01" />
<line x1="-0.31588" y1="0.123324" x2="-0.0707589" y2="0.353746" style="stroke:rgb(246,147,147);stroke-width:0.01" />
<line x1="-0.189927" y1="-0.0535071" x2="-0.0342553" y2="0.130129" style="stroke:rgb(246,147,147);stroke-width:0.01" />
<line x1="-0.189927" y1="-0.0535071" x2="0.0290297" y2="0.0314705" style="stroke:rgb(246,147,147);stroke-width:0.01" />
<line x1="0.0318856" y1="-0.0817182" x2="0.115364" y2="0.0485994" style="stroke:rgb(246,147,147);stroke-width:0.01" />
<line x1="-0.272084" y1="0.061837" x2="-0.0688353" y2="0.351046" style="stroke:rgb(246,147,147);stroke-width:0.01" />
<line x1="-0.211415" y1="-0.0233402" x2="-0.0645489" y2="0.212437" style="stroke:rgb(246,147,147);stroke-width:0.01" />
<line x1="0.197683" y1="-0.0878914" x2="0.267638" y2="0.0545217" style="stroke:rgb(246,147,147);stroke-width:0.01" />
<line x1="-0.272084" y1="0.061837" x2="-0.0342553" y2="0.130129" style="stroke:rgb(246,147,147);stroke-width:0.01" />
<line x1="-0.211415" y1="-0.0233402" x2="0.0290297" y2="0.0314705" style="stroke:rgb(246,147,147);stroke-width:0.01" />
<line x1="0.0633764" y1="-0.0828907" x2="0.115364" y2="0.0485994" style="stroke:rgb(246,147,147);stroke-width:0.01" />
<line x1="-0.137769" y1="-0.140091" x2="-0.0119231" y2="-0.129238" style="stroke:rgb(246,147,147);stroke-width:0.01" />
<line x1="0.219916" y1="0.0499775" x2="0.267638" y2="0.0545217" style="stroke:rgb(246,147,147);stroke-width:0.01" />
<line x1="-0.0119231" y1="-0.129238" x2="0.0340484" y2="0.015082" style="stroke:rgb(246,147,147);stroke-width:0.01" />
<line x1="-0.12278" y1="-0.147779" x2="-0.0342553" y2="0.130129" style="stroke:rgb(246,147,147);stroke-width:0.01" />
<line x1="0.189578" y1="-0.0781674" x2="0.202793" y2="-0.0774885" style="stroke:rgb(246,147,147);stroke-width:0.01" />
<line x1="0.189578" y1="-0.0781674" x2="0.219916" y2="0.0499775" style="stroke:rgb(246,147,147);stroke-width:0.01" />
<line x1="-0.0377408" y1="-0.14987" x2="-0.12278" y2="-0.147779" style="stroke:rgb(246,147,147);stroke-width:0.01" />
<line x1="0.197683" y1="-0.0878914" x2="-0.067252" y2="-0.0780269" style="stroke:rgb(246,147,147);stroke-width:0.01" />
<line x1="-0.0377408" y1="-0.14987" x2="-0.0339876" y2="-0.13114" style="stroke:rgb(246,147,147);stroke-width:0.01" />
<line x1="-0.0688353" y1="0.351046" x2="-0.0722488" y2="0.352346" style="stroke:rgb(246,147,147);stroke-width:0.01" />
<line x1="0.254118" y1="0.026998" x2="0.235185" y2="0.105978" style="stroke:rgb(246,147,147);stroke-width:0.01" />
<line x1="-0.0747031" y1="-0.179408" x2="-0.137769" y2="-0.140091" style="stroke:rgb(246,147,147);stroke-width:0.01" />
<line x1="0.0340484" y1="0.015082" x2="-0.0688353" y2="0.351046" style="stroke:rgb(246,147,147);stroke-width:0.01" />
<line x1="0.0633764" y1="-0.0828907" x2="-0.0722488" y2="0.352346" style="stroke:rgb(246,147,147);stroke-width:0.01" />
<line x1="-0.0747031" y1="-0.179408" x2="-0.105075" y2="-0.0921972" style="stroke:rgb(246,147,147);stroke-width:0.01" />
<line x1="-0.0293321" y1="-0.14315" x2="-0.105075" y2="-0.0921972" style="stroke:rgb(246,147,147);stroke-width:0.01" />
<line x1="-0.0293321" y1="-0.14315" x2="-0.0339876" y2="-0.13114" style="stroke:rgb(246,147,147);stroke-width:0.01" />
<line x1="-0.0645489" y1="0.212437" x2="-0.158697" y2="0.271082" style="stroke:rgb(246,147,147);stroke-width:0.01" />
<line x1="-0.067252" y1="-0.0780269" x2="-0.31588" y2="0.123324" style="stroke:rgb(246,147,147);stroke-width:0.01" />
<line x1="0.234254" y1="0.0180714" x2="0.219916" y2="0.0499775" style="stroke:rgb(246,147,147);stroke-width:0.01" />
<line x1="0.0318856" y1="-0.0817182" x2="-0.158697" y2="0.271082" style="stroke:rgb(246,147,147);stroke-width:0.01" />
<line x1="-0.0909839" y1="-0.192419" x2="-0.137769" y2="-0.140091" style="stroke:rgb(246,147,147);stroke-width:0.01" />
<line x1="-0.0909839" y1="-0.192419" x2="-0.31588" y2="0.123324" style="stroke:rgb(246,147,147);stroke-width:0.01" />
<line x1="0.235185" y1="0.105978" x2="-0.0707589" y2="0.353746" style="stroke:rgb(246,147,147);stroke-width:0.01" />
<line x1="0.202793" y1="-0.0774885" x2="0.115364" y2="0.0485994" style="stroke:rgb(246,147,147);stroke-width:0.01" />
<line x1="0.197683" y1="-0.0878914" x2="0.189578" y2="-0.0781674" style="stroke:rgb(246,147,147);stroke-width:0.01" />
<line x1="0.169812" y1="0.0159963" x2="-0.0707589" y2="0.353746" style="stroke:rgb(246,147,147);stroke-width:0.01" />
<line x1="0.267638" y1="0.0545217" x2="0.235185" y2="0.105978" style="stroke:rgb(246,147,147);stroke-width:0.01" />
<line x1="0.169812" y1="0.0159963" x2="0.110727" y2="0.082082" style="stroke:rgb(246,147,147);stroke-width:0.01" />
</g>
</svg>
