<svg xmlns="http://www.w3.org/2000/svg" viewBox="-1.5 -1.5 3 3">
<g transform="scale(1, -1)">
<path d="M-0.371914 -0.091017 L0.462648 -0.091017 L0.485899 -0.077230 L0.463043 0.028207 L0.350930 0.039902 L0.326533 0.094337 L0.116599 0.064346 L-0.291418 0.106909 L-0.334964 -0.000162 L-0.404807 -0.010140 L-0.406981 -0.031278 L-0.395568 -0.032858 z " fill="rgb(245,195,195)" />
<path d="M1.636748 0.370522 L2.636748 0.370522 L2.636748 1.370522 L1.636748 1.370522  z" fill="none" stroke="rgb(128,128,128)" stroke-width="0.01" />
<line x1="-0.322415" y1="-0.0369851" x2="-0.358607" y2="-0.00354" style="stroke:rgb(246,147,147);stroke-width:0.01" />
<line x1="-0.226062" y1="-0.0910168" x2="-0.304693" y2="0.00416194" style="stroke:rgb(246,147,147);stroke-width:0.01" />
<line x1="-0.0635483" y1="-0.0910168" x2="-0.277647" y2="0.0305328" style="stroke:rgb(246,147,147);stroke-width:0.01" />
<line x1="-9.01672e-06" y1="-0.0910168" x2="-0.203013" y2="0.0976872" style="stroke:rgb(246,147,147);stroke-width:0.01" />
<line x1="0.0329605" y1="-0.0910168" x2="0.00114607" y2="-0.054288" style="stroke:rgb(246,147,147);stroke-width:0.01" />
<line x1="0.167734" y1="-0.0910168" x2="0.0764673" y2="-0.0115261" style="stroke:rgb(246,147,147);stroke-width:0.01" />
<line x1="0.149834" y1="-0.0910168" x2="0.0267706" y2="-0.0397403" style="stroke:rgb(246,147,147);stroke-width:0.01" />
<line x1="0.215486" y1="-0.063662" x2="-0.121647" y2="0.0891994" style="stroke:rgb(246,147,147);stroke-width:0.01" />
<line x1="-0.291049" y1="-0.0774998" x2="-0.387758" y2="-0.0520592" style="stroke:rgb(246,147,147);stroke-width:0.01" />
<line x1="0.462648" y1="-0.0910168" x2="0.205268" y2="0.0615975" style="stroke:rgb(246,147,147);stroke-width:0.01" />
<line x1="-0.0135601" y1="-0.0910168" x2="-0.0260915" y2="-0.0697515" style="stroke:rgb(246,147,147);stroke-width:0.01" />
<line x1="0.485899" y1="-0.0772302" x2="0.350639" y2="0.0399322" style="stroke:rgb(246,147,147);stroke-width:0.01" />
<line x1="-0.0146825" y1="-0.0906257" x2="-0.0260915" y2="-0.0697515" style="stroke:rgb(246,147,147);stroke-width:0.01" />
<line x1="0.105695" y1="-0.0910168" x2="0.0942777" y2="-0.0717619" style="stroke:rgb(246,147,147);stroke-width:0.01" />
<line x1="0.0114732" y1="-0.0910168" x2="-0.0807072" y2="0.0849287" style="stroke:rgb(246,147,147);stroke-width:0.01" />
<line x1="-0.371914" y1="-0.0910168" x2="-0.404807" y2="-0.01014" style="stroke:rgb(246,147,147);stroke-width:0.01" />
<line x1="-0.0125136" y1="-0.0910168" x2="-0.051247" y2="-0.084033" style="stroke:rgb(246,147,147);stroke-width:0.01" />
<line x1="0.215595" y1="-0.0348879" x2="0.163315" y2="0.0594732" style="stroke:rgb(246,147,147);stroke-width:0.01" />
<line x1="-0.0603191" y1="-0.0792669" x2="-0.406981" y2="-0.0312776" style="stroke:rgb(246,147,147);stroke-width:0.01" />
<line x1="-0.0538734" y1="-0.0910168" x2="-0.121647" y2="0.0891994" style="stroke:rgb(246,147,147);stroke-width:0.01" />
<line x1="-0.322415" y1="-0.0369851" x2="-0.406981" y2="-0.0312776" style="stroke:rgb(246,147,147);stroke-width:0.01" />
<line x1="0.409608" y1="-0.0910168" x2="0.326533" y2="0.0943371" style="stroke:rgb(246,147,147);stroke-width:0.01" />
<line x1="0.0132719" y1="-0.0910168" x2="0.00114607" y2="-0.054288" style="stroke:rgb(246,147,147);stroke-width:0.01" />
<line x1="-0.294605" y1="-0.0910168" x2="-0.324969" y2="0.0244126" style="stroke:rgb(246,147,147);stroke-width:0.01" />
<line x1="0.224691" y1="-0.0910168" x2="0.215486" y2="-0.063662" style="stroke:rgb(246,147,147);stroke-width:0.01" />
<line x1="-0.371914" y1="-0.0910168" x2="0.462648" y2="-0.0910168" style="stroke:rgb(246,147,147);stroke-width:0.01" />
<line x1="0.463043" y1="0.0282066" x2="-0.291418" y2="0.106909" style="stroke:rgb(246,147,147);stroke-width:0.01" />
<line x1="-0.0603191" y1="-0.0792669" x2="0.304853" y2="-0.062273" style="stroke:rgb(246,147,147);stroke-width:0.01" />
<line x1="-0.277647" y1="0.0305328" x2="-0.291418" y2="0.106909" style="stroke:rgb(246,147,147);stroke-width:0.01" />
<line x1="0.273356" y1="0.0535916" x2="0.19158" y2="0.0538265" style="stroke:rgb(246,147,147);stroke-width:0.01" />
<line x1="0.304853" y1="-0.062273" x2="0.289563" y2="0.0028641" style="stroke:rgb(246,147,147);stroke-width:0.01" />
<line x1="0.0908047" y1="-0.0910168" x2="0.0764673" y2="-0.0115261" style="stroke:rgb(246,147,147);stroke-width:0.01" />
<line x1="0.485899" y1="-0.0772302" x2="0.463043" y2="0.0282066" style="stroke:rgb(246,147,147);stroke-width:0.01" />
<line x1="-0.0125136" y1="-0.0910168" x2="0.0942777" y2="-0.0717619" style="stroke:rgb(246,147,147);stroke-width:0.01" />
<line x1="-0.404807" y1="-0.01014" x2="0.326533" y2="0.0943371" style="stroke:rgb(246,147,147);stroke-width:0.01" />
<line x1="-0.0603191" y1="-0.0792669" x2="0.289563" y2="0.0028641" style="stroke:rgb(246,147,147);stroke-width:0.01" />
<line x1="0.20483" y1="-0.0910168" x2="0.204737" y2="-0.0587885" style="stroke:rgb(246,147,147);stroke-width:0.01" />
<line x1="0.20483" y1="-0.0910168" x2="0.205268" y2="0.0615975" style="stroke:rgb(246,147,147);stroke-width:0.01" />
<line x1="0.0769554" y1="-0.0112491" x2="0.273356" y2="0.0535916" style="stroke:rgb(246,147,147);stroke-width:0.01" />
<line x1="0.149834" y1="-0.0910168" x2="0.215486" y2="-0.063662" style="stroke:rgb(246,147,147);stroke-width:0.01" />
<line x1="0.304853" y1="-0.062273" x2="0.326533" y2="0.0943371" style="stroke:rgb(246,147,147);stroke-width:0.01" />
<line x1="0.462648" y1="-0.0910168" x2="0.485899" y2="-0.0772302" style="stroke:rgb(246,147,147);stroke-width:0.01" />
<line x1="-0.406981" y1="-0.0312776" x2="-0.404807" y2="-0.01014" style="stroke:rgb(246,147,147);stroke-width:0.01" />
<line x1="0.022374" y1="-0.0702105" x2="0.0267706" y2="-0.0397403" style="stroke:rgb(246,147,147);stroke-width:0.01" />
<line x1="0.0908047" y1="-0.0910168" x2="0.0942777" y2="-0.0717619" style="stroke:rgb(246,147,147);stroke-width:0.01" />
<line x1="0.215595" y1="-0.0348879" x2="0.350639" y2="0.0399322" style="stroke:rgb(246,147,147);stroke-width:0.01" />
<line x1="-0.277647" y1="0.0305328" x2="-0.121647" y2="0.0891994" style="stroke:rgb(246,147,147);stroke-width:0.01" />
<line x1="0.224691" y1="-0.0910168" x2="0.273356" y2="0.0535916" style="stroke:rgb(246,147,147);stroke-width:0.01" />
<line x1="0.409608" y1="-0.0910168" x2="0.463043" y2="0.0282066" style="stroke:rgb(246,147,147);stroke-width:0.01" />
<line x1="-0.0635483" y1="-0.0910168" x2="0.205268" y2="0.0615975" style="stroke:rgb(246,147,147);stroke-width:0.01" />
<line x1="0.0132719" y1="-0.0910168" x2="0.0474558" y2="0.0125255" style="stroke:rgb(246,147,147);stroke-width:0.01" />
<line x1="-0.294605" y1="-0.0910168" x2="-0.291049" y2="-0.0774998" style="stroke:rgb(246,147,147);stroke-width:0.01" />
<line x1="0.167734" y1="-0.0910168" x2="0.204737" y2="-0.0587885" style="stroke:rgb(246,147,147);stroke-width:0.01" />
<line x1="-0.0538734" y1="-0.0910168" x2="-0.051247" y2="-0.084033" style="stroke:rgb(246,147,147);stroke-width:0.01" />
<line x1="0.105695" y1="-0.0910168" x2="0.19158" y2="0.0538265" style="stroke:rgb(246,147,147);stroke-width:0.01" />
<line x1="-0.0146825" y1="-0.0906257" x2="0.0769554" y2="-0.0112491" style="stroke:rgb(246,147,147);stroke-width:0.01" />
<line x1="-9.01672e-06" y1="-0.0910168" x2="0.022374" y2="-0.0702105" style="stroke:rgb(246,147,147);stroke-width:0.01" />
<line x1="0.0114732" y1="-0.0910168" x2="0.022374" y2="-0.0702105" style="stroke:rgb(246,147,147);stroke-width:0.01" />
<line x1="0.0329605" y1="-0.0910168" x2="0.163315" y2="0.0594732" style="stroke:rgb(246,147,147);stroke-width:0.01" />
<line x1="-0.0135601" y1="-0.0910168" x2="0.0474558" y2="0.0125255" style="stroke:rgb(246,147,147);stroke-width:0.01" />
<line x1="-0.324969" y1="0.0244126" x2="-0.203013" y2="0.0976872" style="stroke:rgb(246,147,147);stroke-width:0.01" />
<line x1="-0.371914" y1="-0.0910168" x2="-0.291418" y2="0.106909" style="stroke:rgb(246,147,147);stroke-width:0.01" />
<line x1="-0.322415" y1="-0.0369851" x2="-0.304693" y2="0.00416194" style="stroke:rgb(246,147,147);stroke-width:0.01" />
<line x1="-0.226062" y1="-0.0910168" x2="-0.0807072" y2="0.0849287" style="stroke:rgb(246,147,147);stroke-width:0.01" />
<line x1="-0.387758" y1="-0.0520592" x2="-0.358607" y2="-0.00354" style="stroke:rgb(246,147,147);stroke-width:0.01" />
</g>
</svg>
