<svg xmlns="http://www.w3.org/2000/svg" viewBox="-1.5 -1.5 3 3">
<g transform="scale(1, -1)">
<path d="M0.538347 -0.387184 L0.541710 0.017462 L0.505978 0.104818 L0.189574 -0.024603 L-0.103189 0.268161 L-0.113921 0.263708 L-0.114077 0.264079 L-0.188399 0.232810 L-0.153003 0.148089 L-0.309306 -0.228662 L-0.419587 -0.273771 L-0.374128 -0.384908 z " fill="rgb(245,195,195)" />
<path d="M-0.562909 -1.252317 L0.437091 -1.252317 L0.437091 -0.252317 L-0.562909 -0.252317  z" fill="none" stroke="rgb(128,128,128)" stroke-width="0.01" />
<line x1="0.368472" y1="-0.38676" x2="0.54171" y2="0.0174622" style="stroke:rgb(246,147,147);stroke-width:0.01" />
<line x1="0.15356" y1="-0.372051" x2="0.177138" y2="-0.317037" style="stroke:rgb(246,147,147);stroke-width:0.01" />
<line x1="0.316453" y1="-0.26369" x2="0.360993" y2="-0.196021" style="stroke:rgb(246,147,147);stroke-width:0.01" />
<line x1="0.538347" y1="-0.387184" x2="0.54171" y2="0.0174622" style="stroke:rgb(246,147,147);stroke-width:0.01" />
<line x1="0.42719" y1="-0.37296" x2="0.427921" y2="-0.262949" style="stroke:rgb(246,147,147);stroke-width:0.01" />
<line x1="0.427052" y1="-0.37296" x2="0.42719" y2="-0.345344" style="stroke:rgb(246,147,147);stroke-width:0.01" />
<line x1="0.427052" y1="-0.37296" x2="0.427144" y2="-0.317451" style="stroke:rgb(246,147,147);stroke-width:0.01" />
<line x1="0.42719" y1="-0.37296" x2="0.42719" y2="-0.345344" style="stroke:rgb(246,147,147);stroke-width:0.01" />
<line x1="0.538347" y1="-0.387184" x2="0.538301" y2="-0.37333" style="stroke:rgb(246,147,147);stroke-width:0.01" />
<line x1="-0.374128" y1="-0.384908" x2="-0.103189" y2="0.268161" style="stroke:rgb(246,147,147);stroke-width:0.01" />
<line x1="-0.374128" y1="-0.384908" x2="-0.419587" y2="-0.273771" style="stroke:rgb(246,147,147);stroke-width:0.01" />
<line x1="0.0938568" y1="-0.371853" x2="0.360993" y2="-0.196021" style="stroke:rgb(246,147,147);stroke-width:0.01" />
<line x1="0.0527609" y1="-0.34441" x2="-0.188399" y2="0.23281" style="stroke:rgb(246,147,147);stroke-width:0.01" />
<line x1="0.15356" y1="-0.372051" x2="-0.114077" y2="0.264079" style="stroke:rgb(246,147,147);stroke-width:0.01" />
<line x1="0.368472" y1="-0.38676" x2="0.316453" y2="-0.26369" style="stroke:rgb(246,147,147);stroke-width:0.01" />
<line x1="0.54171" y1="0.0174622" x2="0.505978" y2="0.104818" style="stroke:rgb(246,147,147);stroke-width:0.01" />
<line x1="-0.419587" y1="-0.273771" x2="0.505978" y2="0.104818" style="stroke:rgb(246,147,147);stroke-width:0.01" />
<line x1="0.538347" y1="-0.387184" x2="-0.374128" y2="-0.384908" style="stroke:rgb(246,147,147);stroke-width:0.01" />
<line x1="0.538301" y1="-0.37333" x2="0.0938568" y2="-0.371853" style="stroke:rgb(246,147,147);stroke-width:0.01" />
<line x1="0.42719" y1="-0.345344" x2="0.0527609" y2="-0.34441" style="stroke:rgb(246,147,147);stroke-width:0.01" />
<line x1="0.0938568" y1="-0.371853" x2="0.0527609" y2="-0.34441" style="stroke:rgb(246,147,147);stroke-width:0.01" />
<line x1="0.427144" y1="-0.317451" x2="0.177138" y2="-0.317037" style="stroke:rgb(246,147,147);stroke-width:0.01" />
<line x1="0.316453" y1="-0.26369" x2="0.427921" y2="-0.262949" style="stroke:rgb(246,147,147);stroke-width:0.01" />
<line x1="0.538301" y1="-0.37333" x2="-0.103189" y2="0.268161" style="stroke:rgb(246,147,147);stroke-width:0.01" />
<line x1="-0.188399" y1="0.23281" x2="-0.114077" y2="0.264079" style="stroke:rgb(246,147,147);stroke-width:0.01" />
<line x1="-0.188399" y1="0.23281" x2="-0.103189" y2="0.268161" style="stroke:rgb(246,147,147);stroke-width:0.01" />
</g>
</svg>
