<svg xmlns="http://www.w3.org/2000/svg" viewBox="-1.5 -1.5 3 3">
<g transform="scale(1, -1)">
<path d="M0.513333 0.271667 L0.595468 0.335989 L0.623521 0.304901 L0.726131 0.324135 L0.683668 0.550671 L0.686667 0.566667 L0.676854 0.587018 L0.671435 0.615927 L0.662764 0.616243 L0.652017 0.638533 L0.649124 0.666644 L0.629341 0.664608 L0.463333 0.726667 L0.402237 0.681038 L0.350113 0.743947 L0.282937 0.740242 L0.299715 0.436004 L0.302716 0.435527 L0.316459 0.288190 L0.415174 0.297398 z " fill="rgb(245,195,195)" />
<path d="M0.000000 0.000000 L1.000000 0.000000 L1.000000 1.000000 L0.000000 1.000000  z" fill="none" stroke="rgb(128,128,128)" stroke-width="0.01" />
<line x1="0.623521" y1="0.304901" x2="0.660654" y2="0.430319" style="stroke:rgb(246,147,147);stroke-width:0.01" />
<line x1="0.513333" y1="0.271667" x2="0.611945" y2="0.52791" style="stroke:rgb(246,147,147);stroke-width:0.01" />
<line x1="0.638552" y1="0.491462" x2="0.671435" y2="0.615927" style="stroke:rgb(246,147,147);stroke-width:0.01" />
<line x1="0.528416" y1="0.307961" x2="0.641667" y2="0.66" style="stroke:rgb(246,147,147);stroke-width:0.01" />
<line x1="0.651667" y1="0.38" x2="0.686667" y2="0.566667" style="stroke:rgb(246,147,147);stroke-width:0.01" />
<line x1="0.513333" y1="0.271667" x2="0.651667" y2="0.38" style="stroke:rgb(246,147,147);stroke-width:0.01" />
<line x1="0.341667" y1="0.316667" x2="0.409337" y2="0.641969" style="stroke:rgb(246,147,147);stroke-width:0.01" />
<line x1="0.348685" y1="0.464169" x2="0.463333" y2="0.726667" style="stroke:rgb(246,147,147);stroke-width:0.01" />
<line x1="0.299715" y1="0.436004" x2="0.37743" y2="0.635958" style="stroke:rgb(246,147,147);stroke-width:0.01" />
<line x1="0.313411" y1="0.595293" x2="0.350113" y2="0.743947" style="stroke:rgb(246,147,147);stroke-width:0.01" />
<line x1="0.315" y1="0.5" x2="0.331667" y2="0.628333" style="stroke:rgb(246,147,147);stroke-width:0.01" />
<line x1="0.362546" y1="0.424182" x2="0.37743" y2="0.635958" style="stroke:rgb(246,147,147);stroke-width:0.01" />
<line x1="0.299715" y1="0.436004" x2="0.282937" y2="0.740242" style="stroke:rgb(246,147,147);stroke-width:0.01" />
<line x1="0.316459" y1="0.28819" x2="0.299061" y2="0.474714" style="stroke:rgb(246,147,147);stroke-width:0.01" />
<line x1="0.341667" y1="0.316667" x2="0.315" y2="0.5" style="stroke:rgb(246,147,147);stroke-width:0.01" />
<line x1="0.678271" y1="0.383398" x2="0.649124" y2="0.666644" style="stroke:rgb(246,147,147);stroke-width:0.01" />
<line x1="0.726131" y1="0.324135" x2="0.671435" y2="0.615927" style="stroke:rgb(246,147,147);stroke-width:0.01" />
<line x1="0.638552" y1="0.491462" x2="0.620689" y2="0.577147" style="stroke:rgb(246,147,147);stroke-width:0.01" />
<line x1="0.623521" y1="0.304901" x2="0.726131" y2="0.324135" style="stroke:rgb(246,147,147);stroke-width:0.01" />
<line x1="0.678271" y1="0.383398" x2="0.620689" y2="0.577147" style="stroke:rgb(246,147,147);stroke-width:0.01" />
<line x1="0.362546" y1="0.424182" x2="0.686667" y2="0.566667" style="stroke:rgb(246,147,147);stroke-width:0.01" />
<line x1="0.341667" y1="0.316667" x2="0.678271" y2="0.383398" style="stroke:rgb(246,147,147);stroke-width:0.01" />
<line x1="0.299061" y1="0.474714" x2="0.641667" y2="0.66" style="stroke:rgb(246,147,147);stroke-width:0.01" />
<line x1="0.331667" y1="0.628333" x2="0.463333" y2="0.726667" style="stroke:rgb(246,147,147);stroke-width:0.01" />
<line x1="0.316459" y1="0.28819" x2="0.528416" y2="0.307961" style="stroke:rgb(246,147,147);stroke-width:0.01" />
<line x1="0.513333" y1="0.271667" x2="0.313411" y2="0.595293" style="stroke:rgb(246,147,147);stroke-width:0.01" />
<line x1="0.686667" y1="0.566667" x2="0.641667" y2="0.66" style="stroke:rgb(246,147,147);stroke-width:0.01" />
<line x1="0.513333" y1="0.271667" x2="0.341667" y2="0.316667" style="stroke:rgb(246,147,147);stroke-width:0.01" />
<line x1="0.315" y1="0.5" x2="0.620689" y2="0.577147" style="stroke:rgb(246,147,147);stroke-width:0.01" />
<line x1="0.362546" y1="0.424182" x2="0.299061" y2="0.474714" style="stroke:rgb(246,147,147);stroke-width:0.01" />
<line x1="0.660654" y1="0.430319" x2="0.463333" y2="0.726667" style="stroke:rgb(246,147,147);stroke-width:0.01" />
<line x1="0.528416" y1="0.307961" x2="0.348685" y2="0.464169" style="stroke:rgb(246,147,147);stroke-width:0.01" />
<line x1="0.623521" y1="0.304901" x2="0.331667" y2="0.628333" style="stroke:rgb(246,147,147);stroke-width:0.01" />
<line x1="0.651667" y1="0.38" x2="0.299715" y2="0.436004" style="stroke:rgb(246,147,147);stroke-width:0.01" />
<line x1="0.651667" y1="0.38" x2="0.350113" y2="0.743947" style="stroke:rgb(246,147,147);stroke-width:0.01" />
<line x1="0.660654" y1="0.430319" x2="0.348685" y2="0.464169" style="stroke:rgb(246,147,147);stroke-width:0.01" />
<line x1="0.638552" y1="0.491462" x2="0.315" y2="0.5" style="stroke:rgb(246,147,147);stroke-width:0.01" />
<line x1="0.409337" y1="0.641969" x2="0.649124" y2="0.666644" style="stroke:rgb(246,147,147);stroke-width:0.01" />
<line x1="0.611945" y1="0.52791" x2="0.313411" y2="0.595293" style="stroke:rgb(246,147,147);stroke-width:0.01" />
<line x1="0.671435" y1="0.615927" x2="0.331667" y2="0.628333" style="stroke:rgb(246,147,147);stroke-width:0.01" />
<line x1="0.611945" y1="0.52791" x2="0.409337" y2="0.641969" style="stroke:rgb(246,147,147);stroke-width:0.01" />
<line x1="0.686667" y1="0.566667" x2="0.37743" y2="0.635958" style="stroke:rgb(246,147,147);stroke-width:0.01" />
<line x1="0.282937" y1="0.740242" x2="0.350113" y2="0.743947" style="stroke:rgb(246,147,147);stroke-width:0.01" />
<line x1="0.641667" y1="0.66" x2="0.463333" y2="0.726667" style="stroke:rgb(246,147,147);stroke-width:0.01" />
</g>
</svg>
