<svg xmlns="http://www.w3.org/2000/svg" viewBox="-1.5 -1.5 3 3">
<g transform="scale(1, -1)">
<path d="M-1.432656 0.219191 L-1.053067 0.511628 L-0.962598 0.750873 L-1.193488 0.840806 L-1.190624 0.850963 L-1.313959 0.887730 L-1.528969 0.261175 z " fill="rgb(245,195,195)" />
<path d="M0.000000 0.000000 L1.000000 0.000000 L1.000000 1.000000 L0.000000 1.000000  z" fill="none" stroke="rgb(128,128,128)" stroke-width="0.01" />
<line x1="-1.44456" y1="0.387257" x2="-1.47665" y2="0.413632" style="stroke:rgb(246,147,147);stroke-width:0.01" />
<line x1="-1.43266" y1="0.219191" x2="-1.52897" y2="0.261175" style="stroke:rgb(246,147,147);stroke-width:0.01" />
<line x1="-1.42018" y1="0.228806" x2="-1.5263" y2="0.268939" style="stroke:rgb(246,147,147);stroke-width:0.01" />
<line x1="-1.43266" y1="0.219191" x2="-1.46428" y2="0.424082" style="stroke:rgb(246,147,147);stroke-width:0.01" />
<line x1="-1.51052" y1="0.264063" x2="-1.5263" y2="0.268939" style="stroke:rgb(246,147,147);stroke-width:0.01" />
<line x1="-1.42018" y1="0.228806" x2="-1.44534" y2="0.470845" style="stroke:rgb(246,147,147);stroke-width:0.01" />
<line x1="-1.14378" y1="0.441741" x2="-1.14886" y2="0.47958" style="stroke:rgb(246,147,147);stroke-width:0.01" />
<line x1="-1.13962" y1="0.444944" x2="-1.14583" y2="0.495019" style="stroke:rgb(246,147,147);stroke-width:0.01" />
<line x1="-1.51787" y1="0.258341" x2="-1.52897" y2="0.261175" style="stroke:rgb(246,147,147);stroke-width:0.01" />
<line x1="-1.51052" y1="0.264063" x2="-1.5128" y2="0.308287" style="stroke:rgb(246,147,147);stroke-width:0.01" />
<line x1="-1.14378" y1="0.441741" x2="-1.42692" y2="0.558549" style="stroke:rgb(246,147,147);stroke-width:0.01" />
<line x1="-1.13962" y1="0.444944" x2="-1.42644" y2="0.559945" style="stroke:rgb(246,147,147);stroke-width:0.01" />
<line x1="-1.51787" y1="0.258341" x2="-1.51794" y2="0.293309" style="stroke:rgb(246,147,147);stroke-width:0.01" />
<line x1="-1.28421" y1="0.519073" x2="-1.42644" y2="0.559945" style="stroke:rgb(246,147,147);stroke-width:0.01" />
<line x1="-1.28421" y1="0.519073" x2="-1.42692" y2="0.558549" style="stroke:rgb(246,147,147);stroke-width:0.01" />
<line x1="-0.978849" y1="0.741424" x2="-1.3152" y2="0.884099" style="stroke:rgb(246,147,147);stroke-width:0.01" />
<line x1="-0.962598" y1="0.750873" x2="-1.31396" y2="0.88773" style="stroke:rgb(246,147,147);stroke-width:0.01" />
<line x1="-1.3127" y1="0.418021" x2="-1.19062" y2="0.850963" style="stroke:rgb(246,147,147);stroke-width:0.01" />
<line x1="-1.05307" y1="0.511628" x2="-0.962598" y2="0.750873" style="stroke:rgb(246,147,147);stroke-width:0.01" />
<line x1="-1.06096" y1="0.505546" x2="-0.962598" y2="0.750873" style="stroke:rgb(246,147,147);stroke-width:0.01" />
<line x1="-1.47665" y1="0.413632" x2="-1.3127" y2="0.418021" style="stroke:rgb(246,147,147);stroke-width:0.01" />
<line x1="-1.08324" y1="0.488382" x2="-0.978849" y2="0.741424" style="stroke:rgb(246,147,147);stroke-width:0.01" />
<line x1="-1.19062" y1="0.850963" x2="-1.31396" y2="0.88773" style="stroke:rgb(246,147,147);stroke-width:0.01" />
<line x1="-1.09214" y1="0.481524" x2="-0.978849" y2="0.741424" style="stroke:rgb(246,147,147);stroke-width:0.01" />
<line x1="-1.52897" y1="0.261175" x2="-1.31396" y2="0.88773" style="stroke:rgb(246,147,147);stroke-width:0.01" />
<line x1="-1.19062" y1="0.850963" x2="-1.3152" y2="0.884099" style="stroke:rgb(246,147,147);stroke-width:0.01" />
<line x1="-1.44534" y1="0.470845" x2="-1.05307" y2="0.511628" style="stroke:rgb(246,147,147);stroke-width:0.01" />
<line x1="-1.14886" y1="0.47958" x2="-1.08324" y2="0.488382" style="stroke:rgb(246,147,147);stroke-width:0.01" />
<line x1="-1.14583" y1="0.495019" x2="-1.06096" y2="0.505546" style="stroke:rgb(246,147,147);stroke-width:0.01" />
<line x1="-1.46428" y1="0.424082" x2="-1.09214" y2="0.481524" style="stroke:rgb(246,147,147);stroke-width:0.01" />
<line x1="-1.43266" y1="0.219191" x2="-1.05307" y2="0.511628" style="stroke:rgb(246,147,147);stroke-width:0.01" />
<line x1="-1.51794" y1="0.293309" x2="-1.44456" y2="0.387257" style="stroke:rgb(246,147,147);stroke-width:0.01" />
<line x1="-1.5128" y1="0.308287" x2="-1.44456" y2="0.387257" style="stroke:rgb(246,147,147);stroke-width:0.01" />
<line x1="-1.51787" y1="0.258341" x2="-1.3127" y2="0.418021" style="stroke:rgb(246,147,147);stroke-width:0.01" />
</g>
</svg>
