<svg xmlns="http://www.w3.org/2000/svg" viewBox="-1.5 -1.5 3 3">
<g transform="scale(1, -1)">
<path d="M0.003146 -0.158503 L0.166412 -0.158503 L0.166412 -0.130952 L0.252126 -0.045238 L0.184269 0.022619 L0.113861 -0.047789 L-0.058078 0.124150 L-0.107058 0.087415 L-0.155017 0.135374 L-0.212160 0.092517 L-0.169303 0.049660 L-0.184609 0.029252 z " fill="rgb(245,195,195)" />
<path d="M1.402126 0.306803 L2.402126 0.306803 L2.402126 1.306803 L1.402126 1.306803  z" fill="none" stroke="rgb(128,128,128)" stroke-width="0.01" />
<line x1="0.00314626" y1="-0.158503" x2="-0.184609" y2="0.0292517" style="stroke:rgb(246,147,147);stroke-width:0.01" />
<line x1="0.0388605" y1="-0.158503" x2="-0.21216" y2="0.092517" style="stroke:rgb(246,147,147);stroke-width:0.01" />
<line x1="0.122534" y1="-0.158503" x2="-0.21216" y2="0.092517" style="stroke:rgb(246,147,147);stroke-width:0.01" />
<line x1="0.138861" y1="-0.158503" x2="-0.155017" y2="0.135374" style="stroke:rgb(246,147,147);stroke-width:0.01" />
<line x1="-0.055017" y1="0.0496599" x2="-0.0672619" y2="0.0619048" style="stroke:rgb(246,147,147);stroke-width:0.01" />
<line x1="-0.055017" y1="-0.10034" x2="-0.119303" y2="-0.0146259" style="stroke:rgb(246,147,147);stroke-width:0.01" />
<line x1="0.0296769" y1="-0.158503" x2="-0.0835884" y2="-0.00748299" style="stroke:rgb(246,147,147);stroke-width:0.01" />
<line x1="0.166412" y1="-0.10034" x2="-0.0580782" y2="0.12415" style="stroke:rgb(246,147,147);stroke-width:0.01" />
<line x1="0.218452" y1="-0.0789116" x2="0.202126" y2="-0.0666667" style="stroke:rgb(246,147,147);stroke-width:0.01" />
<line x1="0.202126" y1="-0.0952381" x2="0.134269" y2="-0.027381" style="stroke:rgb(246,147,147);stroke-width:0.01" />
<line x1="0.232738" y1="-0.0646259" x2="0.175595" y2="-0.0217687" style="stroke:rgb(246,147,147);stroke-width:0.01" />
<line x1="0.252126" y1="-0.0452381" x2="0.174575" y2="0.0129252" style="stroke:rgb(246,147,147);stroke-width:0.01" />
<line x1="0.252126" y1="-0.0452381" x2="0.184269" y2="0.022619" style="stroke:rgb(246,147,147);stroke-width:0.01" />
<line x1="0.218452" y1="-0.0789116" x2="0.175595" y2="-0.0217687" style="stroke:rgb(246,147,147);stroke-width:0.01" />
<line x1="0.232738" y1="-0.0646259" x2="0.174575" y2="0.0129252" style="stroke:rgb(246,147,147);stroke-width:0.01" />
<line x1="0.00314626" y1="-0.158503" x2="0.166412" y2="-0.158503" style="stroke:rgb(246,147,147);stroke-width:0.01" />
<line x1="-0.055017" y1="-0.10034" x2="0.166412" y2="-0.10034" style="stroke:rgb(246,147,147);stroke-width:0.01" />
<line x1="0.166412" y1="0.0047619" x2="0.202126" y2="0.0047619" style="stroke:rgb(246,147,147);stroke-width:0.01" />
<line x1="-0.055017" y1="-0.10034" x2="-0.055017" y2="0.0496599" style="stroke:rgb(246,147,147);stroke-width:0.01" />
<line x1="0.166412" y1="-0.158503" x2="0.166412" y2="0.0047619" style="stroke:rgb(246,147,147);stroke-width:0.01" />
<line x1="0.202126" y1="-0.0952381" x2="0.202126" y2="0.0047619" style="stroke:rgb(246,147,147);stroke-width:0.01" />
<line x1="0.122534" y1="-0.158503" x2="0.18784" y2="-0.109524" style="stroke:rgb(246,147,147);stroke-width:0.01" />
<line x1="0.194983" y1="-0.0880952" x2="0.252126" y2="-0.0452381" style="stroke:rgb(246,147,147);stroke-width:0.01" />
<line x1="0.202126" y1="-0.0666667" x2="0.242942" y2="-0.0360544" style="stroke:rgb(246,147,147);stroke-width:0.01" />
<line x1="0.180697" y1="-0.0738095" x2="0.23784" y2="-0.0309524" style="stroke:rgb(246,147,147);stroke-width:0.01" />
<line x1="0.166412" y1="-0.0595238" x2="0.223554" y2="-0.0166667" style="stroke:rgb(246,147,147);stroke-width:0.01" />
<line x1="0.152126" y1="-0.0452381" x2="0.209269" y2="-0.00238095" style="stroke:rgb(246,147,147);stroke-width:0.01" />
<line x1="0.109269" y1="-0.052381" x2="0.194983" y2="0.0119048" style="stroke:rgb(246,147,147);stroke-width:0.01" />
<line x1="0.138861" y1="-0.158503" x2="0.252126" y2="-0.0452381" style="stroke:rgb(246,147,147);stroke-width:0.01" />
<line x1="0.18784" y1="-0.109524" x2="0.242942" y2="-0.0360544" style="stroke:rgb(246,147,147);stroke-width:0.01" />
<line x1="0.194983" y1="-0.0880952" x2="0.23784" y2="-0.0309524" style="stroke:rgb(246,147,147);stroke-width:0.01" />
<line x1="0.0388605" y1="-0.158503" x2="0.202126" y2="0.0047619" style="stroke:rgb(246,147,147);stroke-width:0.01" />
<line x1="0.180697" y1="-0.0738095" x2="0.223554" y2="-0.0166667" style="stroke:rgb(246,147,147);stroke-width:0.01" />
<line x1="0.166412" y1="-0.0595238" x2="0.209269" y2="-0.00238095" style="stroke:rgb(246,147,147);stroke-width:0.01" />
<line x1="0.00314626" y1="-0.158503" x2="0.184269" y2="0.022619" style="stroke:rgb(246,147,147);stroke-width:0.01" />
<line x1="0.152126" y1="-0.0452381" x2="0.194983" y2="0.0119048" style="stroke:rgb(246,147,147);stroke-width:0.01" />
<line x1="-0.0866497" y1="-0.0687075" x2="0.039881" y2="0.0261905" style="stroke:rgb(246,147,147);stroke-width:0.01" />
<line x1="0.0296769" y1="-0.158503" x2="0.109269" y2="-0.052381" style="stroke:rgb(246,147,147);stroke-width:0.01" />
<line x1="-0.0856293" y1="-0.0340136" x2="-0.0284864" y2="0.00884354" style="stroke:rgb(246,147,147);stroke-width:0.01" />
<line x1="-0.120323" y1="-0.035034" x2="-0.0427721" y2="0.0231293" style="stroke:rgb(246,147,147);stroke-width:0.01" />
<line x1="-0.131548" y1="-0.0238095" x2="-0.119303" y2="-0.0146259" style="stroke:rgb(246,147,147);stroke-width:0.01" />
<line x1="-0.152976" y1="-0.00238095" x2="-0.0672619" y2="0.0619048" style="stroke:rgb(246,147,147);stroke-width:0.01" />
<line x1="-0.055017" y1="-0.10034" x2="0.039881" y2="0.0261905" style="stroke:rgb(246,147,147);stroke-width:0.01" />
<line x1="-0.0866497" y1="-0.0687075" x2="-0.0284864" y2="0.00884354" style="stroke:rgb(246,147,147);stroke-width:0.01" />
<line x1="-0.184609" y1="0.0292517" x2="-0.0580782" y2="0.12415" style="stroke:rgb(246,147,147);stroke-width:0.01" />
<line x1="-0.0856293" y1="-0.0340136" x2="-0.0427721" y2="0.0231293" style="stroke:rgb(246,147,147);stroke-width:0.01" />
<line x1="-0.130017" y1="-0.0253401" x2="-0.0193027" y2="0.0853741" style="stroke:rgb(246,147,147);stroke-width:0.01" />
<line x1="-0.183588" y1="0.0639456" x2="-0.126446" y2="0.106803" style="stroke:rgb(246,147,147);stroke-width:0.01" />
<line x1="-0.120323" y1="-0.035034" x2="-0.0621599" y2="0.042517" style="stroke:rgb(246,147,147);stroke-width:0.01" />
<line x1="-0.131548" y1="-0.0238095" x2="-0.0672619" y2="0.0619048" style="stroke:rgb(246,147,147);stroke-width:0.01" />
<line x1="-0.197874" y1="0.0782313" x2="-0.140731" y2="0.121088" style="stroke:rgb(246,147,147);stroke-width:0.01" />
<line x1="-0.152976" y1="-0.00238095" x2="-0.0580782" y2="0.12415" style="stroke:rgb(246,147,147);stroke-width:0.01" />
<line x1="-0.21216" y1="0.092517" x2="-0.155017" y2="0.135374" style="stroke:rgb(246,147,147);stroke-width:0.01" />
<line x1="-0.184609" y1="0.0292517" x2="-0.126446" y2="0.106803" style="stroke:rgb(246,147,147);stroke-width:0.01" />
<line x1="-0.183588" y1="0.0639456" x2="-0.140731" y2="0.121088" style="stroke:rgb(246,147,147);stroke-width:0.01" />
<line x1="-0.197874" y1="0.0782313" x2="-0.155017" y2="0.135374" style="stroke:rgb(246,147,147);stroke-width:0.01" />
</g>
</svg>
