<svg xmlns="http://www.w3.org/2000/svg" viewBox="-1.5 -1.5 3 3">
<g transform="scale(1, -1)">
<path d="M-1.398980 -0.465306 L-1.235714 -0.465306 L-1.235714 -0.437755 L-1.150000 -0.352041 L-1.217857 -0.284184 L-1.288265 -0.354592 L-1.460204 -0.182653 L-1.509184 -0.219388 L-1.557143 -0.171429 L-1.614286 -0.214286 L-1.571429 -0.257143 L-1.586735 -0.277551 z " fill="rgb(245,195,195)" />
<path d="M0.000000 0.000000 L1.000000 0.000000 L1.000000 1.000000 L0.000000 1.000000  z" fill="none" stroke="rgb(128,128,128)" stroke-width="0.01" />
<line x1="-1.39898" y1="-0.465306" x2="-1.58673" y2="-0.277551" style="stroke:rgb(246,147,147);stroke-width:0.01" />
<line x1="-1.36327" y1="-0.465306" x2="-1.61429" y2="-0.214286" style="stroke:rgb(246,147,147);stroke-width:0.01" />
<line x1="-1.27959" y1="-0.465306" x2="-1.61429" y2="-0.214286" style="stroke:rgb(246,147,147);stroke-width:0.01" />
<line x1="-1.26327" y1="-0.465306" x2="-1.55714" y2="-0.171429" style="stroke:rgb(246,147,147);stroke-width:0.01" />
<line x1="-1.45714" y1="-0.257143" x2="-1.46939" y2="-0.244898" style="stroke:rgb(246,147,147);stroke-width:0.01" />
<line x1="-1.45714" y1="-0.407143" x2="-1.52143" y2="-0.321429" style="stroke:rgb(246,147,147);stroke-width:0.01" />
<line x1="-1.37245" y1="-0.465306" x2="-1.48571" y2="-0.314286" style="stroke:rgb(246,147,147);stroke-width:0.01" />
<line x1="-1.23571" y1="-0.407143" x2="-1.4602" y2="-0.182653" style="stroke:rgb(246,147,147);stroke-width:0.01" />
<line x1="-1.18367" y1="-0.385714" x2="-1.2" y2="-0.373469" style="stroke:rgb(246,147,147);stroke-width:0.01" />
<line x1="-1.2" y1="-0.402041" x2="-1.26786" y2="-0.334184" style="stroke:rgb(246,147,147);stroke-width:0.01" />
<line x1="-1.16939" y1="-0.371429" x2="-1.22653" y2="-0.328571" style="stroke:rgb(246,147,147);stroke-width:0.01" />
<line x1="-1.15" y1="-0.352041" x2="-1.22755" y2="-0.293878" style="stroke:rgb(246,147,147);stroke-width:0.01" />
<line x1="-1.15" y1="-0.352041" x2="-1.21786" y2="-0.284184" style="stroke:rgb(246,147,147);stroke-width:0.01" />
<line x1="-1.18367" y1="-0.385714" x2="-1.22653" y2="-0.328571" style="stroke:rgb(246,147,147);stroke-width:0.01" />
<line x1="-1.16939" y1="-0.371429" x2="-1.22755" y2="-0.293878" style="stroke:rgb(246,147,147);stroke-width:0.01" />
<line x1="-1.39898" y1="-0.465306" x2="-1.23571" y2="-0.465306" style="stroke:rgb(246,147,147);stroke-width:0.01" />
<line x1="-1.45714" y1="-0.407143" x2="-1.23571" y2="-0.407143" style="stroke:rgb(246,147,147);stroke-width:0.01" />
<line x1="-1.23571" y1="-0.302041" x2="-1.2" y2="-0.302041" style="stroke:rgb(246,147,147);stroke-width:0.01" />
<line x1="-1.45714" y1="-0.407143" x2="-1.45714" y2="-0.257143" style="stroke:rgb(246,147,147);stroke-width:0.01" />
<line x1="-1.23571" y1="-0.465306" x2="-1.23571" y2="-0.302041" style="stroke:rgb(246,147,147);stroke-width:0.01" />
<line x1="-1.2" y1="-0.402041" x2="-1.2" y2="-0.302041" style="stroke:rgb(246,147,147);stroke-width:0.01" />
<line x1="-1.27959" y1="-0.465306" x2="-1.21429" y2="-0.416327" style="stroke:rgb(246,147,147);stroke-width:0.01" />
<line x1="-1.20714" y1="-0.394898" x2="-1.15" y2="-0.352041" style="stroke:rgb(246,147,147);stroke-width:0.01" />
<line x1="-1.2" y1="-0.373469" x2="-1.15918" y2="-0.342857" style="stroke:rgb(246,147,147);stroke-width:0.01" />
<line x1="-1.22143" y1="-0.380612" x2="-1.16429" y2="-0.337755" style="stroke:rgb(246,147,147);stroke-width:0.01" />
<line x1="-1.23571" y1="-0.366327" x2="-1.17857" y2="-0.323469" style="stroke:rgb(246,147,147);stroke-width:0.01" />
<line x1="-1.25" y1="-0.352041" x2="-1.19286" y2="-0.309184" style="stroke:rgb(246,147,147);stroke-width:0.01" />
<line x1="-1.29286" y1="-0.359184" x2="-1.20714" y2="-0.294898" style="stroke:rgb(246,147,147);stroke-width:0.01" />
<line x1="-1.26327" y1="-0.465306" x2="-1.15" y2="-0.352041" style="stroke:rgb(246,147,147);stroke-width:0.01" />
<line x1="-1.21429" y1="-0.416327" x2="-1.15918" y2="-0.342857" style="stroke:rgb(246,147,147);stroke-width:0.01" />
<line x1="-1.20714" y1="-0.394898" x2="-1.16429" y2="-0.337755" style="stroke:rgb(246,147,147);stroke-width:0.01" />
<line x1="-1.36327" y1="-0.465306" x2="-1.2" y2="-0.302041" style="stroke:rgb(246,147,147);stroke-width:0.01" />
<line x1="-1.22143" y1="-0.380612" x2="-1.17857" y2="-0.323469" style="stroke:rgb(246,147,147);stroke-width:0.01" />
<line x1="-1.23571" y1="-0.366327" x2="-1.19286" y2="-0.309184" style="stroke:rgb(246,147,147);stroke-width:0.01" />
<line x1="-1.39898" y1="-0.465306" x2="-1.21786" y2="-0.284184" style="stroke:rgb(246,147,147);stroke-width:0.01" />
<line x1="-1.25" y1="-0.352041" x2="-1.20714" y2="-0.294898" style="stroke:rgb(246,147,147);stroke-width:0.01" />
<line x1="-1.48878" y1="-0.37551" x2="-1.36224" y2="-0.280612" style="stroke:rgb(246,147,147);stroke-width:0.01" />
<line x1="-1.37245" y1="-0.465306" x2="-1.29286" y2="-0.359184" style="stroke:rgb(246,147,147);stroke-width:0.01" />
<line x1="-1.48776" y1="-0.340816" x2="-1.43061" y2="-0.297959" style="stroke:rgb(246,147,147);stroke-width:0.01" />
<line x1="-1.52245" y1="-0.341837" x2="-1.4449" y2="-0.283673" style="stroke:rgb(246,147,147);stroke-width:0.01" />
<line x1="-1.53367" y1="-0.330612" x2="-1.52143" y2="-0.321429" style="stroke:rgb(246,147,147);stroke-width:0.01" />
<line x1="-1.5551" y1="-0.309184" x2="-1.46939" y2="-0.244898" style="stroke:rgb(246,147,147);stroke-width:0.01" />
<line x1="-1.45714" y1="-0.407143" x2="-1.36224" y2="-0.280612" style="stroke:rgb(246,147,147);stroke-width:0.01" />
<line x1="-1.48878" y1="-0.37551" x2="-1.43061" y2="-0.297959" style="stroke:rgb(246,147,147);stroke-width:0.01" />
<line x1="-1.58673" y1="-0.277551" x2="-1.4602" y2="-0.182653" style="stroke:rgb(246,147,147);stroke-width:0.01" />
<line x1="-1.48776" y1="-0.340816" x2="-1.4449" y2="-0.283673" style="stroke:rgb(246,147,147);stroke-width:0.01" />
<line x1="-1.53214" y1="-0.332143" x2="-1.42143" y2="-0.221429" style="stroke:rgb(246,147,147);stroke-width:0.01" />
<line x1="-1.58571" y1="-0.242857" x2="-1.52857" y2="-0.2" style="stroke:rgb(246,147,147);stroke-width:0.01" />
<line x1="-1.52245" y1="-0.341837" x2="-1.46429" y2="-0.264286" style="stroke:rgb(246,147,147);stroke-width:0.01" />
<line x1="-1.53367" y1="-0.330612" x2="-1.46939" y2="-0.244898" style="stroke:rgb(246,147,147);stroke-width:0.01" />
<line x1="-1.6" y1="-0.228571" x2="-1.54286" y2="-0.185714" style="stroke:rgb(246,147,147);stroke-width:0.01" />
<line x1="-1.5551" y1="-0.309184" x2="-1.4602" y2="-0.182653" style="stroke:rgb(246,147,147);stroke-width:0.01" />
<line x1="-1.61429" y1="-0.214286" x2="-1.55714" y2="-0.171429" style="stroke:rgb(246,147,147);stroke-width:0.01" />
<line x1="-1.58673" y1="-0.277551" x2="-1.52857" y2="-0.2" style="stroke:rgb(246,147,147);stroke-width:0.01" />
<line x1="-1.58571" y1="-0.242857" x2="-1.54286" y2="-0.185714" style="stroke:rgb(246,147,147);stroke-width:0.01" />
<line x1="-1.6" y1="-0.228571" x2="-1.55714" y2="-0.171429" style="stroke:rgb(246,147,147);stroke-width:0.01" />
</g>
</svg>
