<svg xmlns="http://www.w3.org/2000/svg" viewBox="-1.5 -1.5 3 3">
<g transform="scale(1, -1)">
<path d="M0.935254 -0.078108 L0.953805 -0.014902 L1.549210 0.338842 L1.565706 0.493051 L1.520623 0.535429 L1.506931 0.520863 L1.509394 0.459193 L1.407010 0.397635 L1.327735 0.430412 L1.031820 0.504575 L1.050408 0.703360 L0.943024 0.791610 L0.940831 0.791416 L0.953365 0.650166 L0.795711 0.563749 L0.876083 -0.061078 z " fill="rgb(245,195,195)" />
<path d="M0.000000 0.000000 L1.000000 0.000000 L1.000000 1.000000 L0.000000 1.000000  z" fill="none" stroke="rgb(128,128,128)" stroke-width="0.01" />
<line x1="1.50693" y1="0.520863" x2="1.52062" y2="0.535429" style="stroke:rgb(246,147,147);stroke-width:0.01" />
<line x1="0.876083" y1="-0.0610784" x2="1.54921" y2="0.338842" style="stroke:rgb(246,147,147);stroke-width:0.01" />
<line x1="0.859428" y1="0.0684032" x2="1.56571" y2="0.493051" style="stroke:rgb(246,147,147);stroke-width:0.01" />
<line x1="0.859988" y1="0.0640496" x2="1.56322" y2="0.469826" style="stroke:rgb(246,147,147);stroke-width:0.01" />
<line x1="0.917913" y1="-0.0731173" x2="1.0047" y2="0.214601" style="stroke:rgb(246,147,147);stroke-width:0.01" />
<line x1="0.935254" y1="-0.0781081" x2="0.968831" y2="0.0362939" style="stroke:rgb(246,147,147);stroke-width:0.01" />
<line x1="0.935254" y1="-0.0781081" x2="0.998193" y2="0.144976" style="stroke:rgb(246,147,147);stroke-width:0.01" />
<line x1="0.917913" y1="-0.0731173" x2="0.948832" y2="0.0397011" style="stroke:rgb(246,147,147);stroke-width:0.01" />
<line x1="1.54921" y1="0.338842" x2="1.56571" y2="0.493051" style="stroke:rgb(246,147,147);stroke-width:0.01" />
<line x1="0.998193" y1="0.144976" x2="1.05041" y2="0.70336" style="stroke:rgb(246,147,147);stroke-width:0.01" />
<line x1="1.51501" y1="0.318525" x2="1.50693" y2="0.520863" style="stroke:rgb(246,147,147);stroke-width:0.01" />
<line x1="0.998193" y1="0.144976" x2="0.940831" y2="0.791416" style="stroke:rgb(246,147,147);stroke-width:0.01" />
<line x1="0.795711" y1="0.563749" x2="1.05041" y2="0.70336" style="stroke:rgb(246,147,147);stroke-width:0.01" />
<line x1="1.0047" y1="0.214601" x2="0.943024" y2="0.79161" style="stroke:rgb(246,147,147);stroke-width:0.01" />
<line x1="0.876083" y1="-0.0610784" x2="0.795711" y2="0.563749" style="stroke:rgb(246,147,147);stroke-width:0.01" />
<line x1="0.935254" y1="-0.0781081" x2="0.876083" y2="-0.0610784" style="stroke:rgb(246,147,147);stroke-width:0.01" />
<line x1="0.948832" y1="0.0397011" x2="0.859988" y2="0.0640496" style="stroke:rgb(246,147,147);stroke-width:0.01" />
<line x1="0.968831" y1="0.0362939" x2="0.859428" y2="0.0684032" style="stroke:rgb(246,147,147);stroke-width:0.01" />
<line x1="0.940831" y1="0.791416" x2="0.943024" y2="0.79161" style="stroke:rgb(246,147,147);stroke-width:0.01" />
<line x1="1.32774" y1="0.430412" x2="0.795711" y2="0.563749" style="stroke:rgb(246,147,147);stroke-width:0.01" />
<line x1="1.54921" y1="0.338842" x2="1.32774" y2="0.430412" style="stroke:rgb(246,147,147);stroke-width:0.01" />
<line x1="1.51501" y1="0.318525" x2="1.32774" y2="0.430412" style="stroke:rgb(246,147,147);stroke-width:0.01" />
<line x1="1.05041" y1="0.70336" x2="0.943024" y2="0.79161" style="stroke:rgb(246,147,147);stroke-width:0.01" />
<line x1="1.56322" y1="0.469826" x2="1.50693" y2="0.520863" style="stroke:rgb(246,147,147);stroke-width:0.01" />
<line x1="1.56571" y1="0.493051" x2="1.52062" y2="0.535429" style="stroke:rgb(246,147,147);stroke-width:0.01" />
</g>
</svg>
