<svg xmlns="http://www.w3.org/2000/svg" viewBox="-1.5 -1.5 3 3">
<g transform="scale(1, -1)">
<path d="M-0.243928 -0.517246 L-0.225377 -0.454040 L0.370028 -0.100296 L0.386524 0.053912 L0.341441 0.096291 L0.327749 0.081725 L0.330212 0.020055 L0.227828 -0.041503 L0.148553 -0.008727 L-0.147362 0.065436 L-0.128774 0.264222 L-0.236158 0.352472 L-0.238351 0.352277 L-0.225817 0.211028 L-0.383471 0.124610 L-0.303099 -0.500217 z " fill="rgb(245,195,195)" />
<path d="M-1.179182 -0.439138 L-0.179182 -0.439138 L-0.179182 0.560862 L-1.179182 0.560862  z" fill="none" stroke="rgb(128,128,128)" stroke-width="0.01" />
<line x1="0.327749" y1="0.081725" x2="0.341441" y2="0.0962905" style="stroke:rgb(246,147,147);stroke-width:0.01" />
<line x1="-0.303099" y1="-0.500217" x2="0.370028" y2="-0.100296" style="stroke:rgb(246,147,147);stroke-width:0.01" />
<line x1="-0.319754" y1="-0.370735" x2="0.386524" y2="0.0539124" style="stroke:rgb(246,147,147);stroke-width:0.01" />
<line x1="-0.319194" y1="-0.375089" x2="0.38404" y2="0.0306881" style="stroke:rgb(246,147,147);stroke-width:0.01" />
<line x1="-0.261269" y1="-0.512256" x2="-0.174478" y2="-0.224538" style="stroke:rgb(246,147,147);stroke-width:0.01" />
<line x1="-0.243928" y1="-0.517246" x2="-0.210351" y2="-0.402844" style="stroke:rgb(246,147,147);stroke-width:0.01" />
<line x1="-0.243928" y1="-0.517246" x2="-0.180989" y2="-0.294162" style="stroke:rgb(246,147,147);stroke-width:0.01" />
<line x1="-0.261269" y1="-0.512256" x2="-0.23035" y2="-0.399437" style="stroke:rgb(246,147,147);stroke-width:0.01" />
<line x1="0.370028" y1="-0.100296" x2="0.386524" y2="0.0539124" style="stroke:rgb(246,147,147);stroke-width:0.01" />
<line x1="-0.180989" y1="-0.294162" x2="-0.128774" y2="0.264222" style="stroke:rgb(246,147,147);stroke-width:0.01" />
<line x1="0.33583" y1="-0.120614" x2="0.327749" y2="0.081725" style="stroke:rgb(246,147,147);stroke-width:0.01" />
<line x1="-0.180989" y1="-0.294162" x2="-0.238351" y2="0.352277" style="stroke:rgb(246,147,147);stroke-width:0.01" />
<line x1="-0.383471" y1="0.12461" x2="-0.128774" y2="0.264222" style="stroke:rgb(246,147,147);stroke-width:0.01" />
<line x1="-0.174478" y1="-0.224538" x2="-0.236158" y2="0.352472" style="stroke:rgb(246,147,147);stroke-width:0.01" />
<line x1="-0.303099" y1="-0.500217" x2="-0.383471" y2="0.12461" style="stroke:rgb(246,147,147);stroke-width:0.01" />
<line x1="-0.243928" y1="-0.517246" x2="-0.303099" y2="-0.500217" style="stroke:rgb(246,147,147);stroke-width:0.01" />
<line x1="-0.23035" y1="-0.399437" x2="-0.319194" y2="-0.375089" style="stroke:rgb(246,147,147);stroke-width:0.01" />
<line x1="-0.210351" y1="-0.402844" x2="-0.319754" y2="-0.370735" style="stroke:rgb(246,147,147);stroke-width:0.01" />
<line x1="-0.238351" y1="0.352277" x2="-0.236158" y2="0.352472" style="stroke:rgb(246,147,147);stroke-width:0.01" />
<line x1="0.148553" y1="-0.00872664" x2="-0.383471" y2="0.12461" style="stroke:rgb(246,147,147);stroke-width:0.01" />
<line x1="0.370028" y1="-0.100296" x2="0.148553" y2="-0.00872664" style="stroke:rgb(246,147,147);stroke-width:0.01" />
<line x1="0.33583" y1="-0.120614" x2="0.148553" y2="-0.00872664" style="stroke:rgb(246,147,147);stroke-width:0.01" />
<line x1="-0.128774" y1="0.264222" x2="-0.236158" y2="0.352472" style="stroke:rgb(246,147,147);stroke-width:0.01" />
<line x1="0.38404" y1="0.0306881" x2="0.327749" y2="0.081725" style="stroke:rgb(246,147,147);stroke-width:0.01" />
<line x1="0.386524" y1="0.0539124" x2="0.341441" y2="0.0962905" style="stroke:rgb(246,147,147);stroke-width:0.01" />
</g>
</svg>
