<svg xmlns="http://www.w3.org/2000/svg" viewBox="-1.5 -1.5 3 3">
<g transform="scale(1, -1)">
<path d="M-0.559700 -0.161778 L-0.119360 -0.071800 L0.218967 -0.071800 L0.293041 -0.034763 L0.286485 0.011129 L0.420056 0.038422 L-0.169922 0.428200 L-0.669922 -0.071800 L-0.500255 -0.071800 z M0.266586 -0.008308 L0.253823 0.004455 L0.280201 0.009845 z " fill="rgb(245,195,195)" />
<path d="M-0.669922 -0.071800 L0.330078 -0.071800 L0.330078 0.928200 L-0.669922 0.928200  z" fill="none" stroke="rgb(128,128,128)" stroke-width="0.01" />
<line x1="0.218967" y1="-0.0718003" x2="0.285634" y2="0.0170886" style="stroke:rgb(246,147,147);stroke-width:0.01" />
<line x1="0.218967" y1="-0.0718003" x2="0.293041" y2="-0.0347632" style="stroke:rgb(246,147,147);stroke-width:0.01" />
<line x1="-0.5597" y1="-0.161778" x2="0.420056" y2="0.0384222" style="stroke:rgb(246,147,147);stroke-width:0.01" />
<line x1="-0.5597" y1="-0.161778" x2="-0.169922" y2="0.4282" style="stroke:rgb(246,147,147);stroke-width:0.01" />
<line x1="-0.669922" y1="-0.0718003" x2="0.218967" y2="-0.0718003" style="stroke:rgb(246,147,147);stroke-width:0.01" />
<line x1="-0.669922" y1="-0.0718003" x2="-0.169922" y2="0.4282" style="stroke:rgb(246,147,147);stroke-width:0.01" />
<line x1="-0.11936" y1="-0.0718003" x2="-0.169922" y2="0.4282" style="stroke:rgb(246,147,147);stroke-width:0.01" />
<line x1="0.293041" y1="-0.0347632" x2="0.285634" y2="0.0170886" style="stroke:rgb(246,147,147);stroke-width:0.01" />
<line x1="0.293041" y1="-0.0347632" x2="-0.169922" y2="0.4282" style="stroke:rgb(246,147,147);stroke-width:0.01" />
<line x1="0.420056" y1="0.0384222" x2="-0.169922" y2="0.4282" style="stroke:rgb(246,147,147);stroke-width:0.01" />
</g>
</svg>
