<svg xmlns="http://www.w3.org/2000/svg" viewBox="-1.5 -1.5 3 3">
<g transform="scale(1, -1)">
<path d="M0.725815 -0.002708 L0.758147 0.000000 L1.000000 0.000000 L1.000000 0.020255 L0.925454 0.088818 L1.366312 0.290932 L1.340588 0.347042 L1.356721 0.356139 L1.343460 0.379657 L1.356943 0.383094 L1.366951 0.701623 L1.327534 0.702862 L1.284301 0.680345 L1.220683 0.615393 L1.206387 0.639765 L0.635251 0.342298 z " fill="rgb(245,195,195)" />
<path d="M0.000000 0.000000 L1.000000 0.000000 L1.000000 1.000000 L0.000000 1.000000  z" fill="none" stroke="rgb(128,128,128)" stroke-width="0.01" />
<line x1="1.31629" y1="0.685657" x2="1.32753" y2="0.702862" style="stroke:rgb(246,147,147);stroke-width:0.01" />
<line x1="0.725104" y1="0" x2="1.35672" y2="0.356139" style="stroke:rgb(246,147,147);stroke-width:0.01" />
<line x1="0.872131" y1="0.259539" x2="1.2843" y2="0.680345" style="stroke:rgb(246,147,147);stroke-width:0.01" />
<line x1="0.725815" y1="-0.00270775" x2="1.36631" y2="0.290932" style="stroke:rgb(246,147,147);stroke-width:0.01" />
<line x1="0.725815" y1="-0.00270775" x2="1" y2="0.0202546" style="stroke:rgb(246,147,147);stroke-width:0.01" />
<line x1="1.35694" y1="0.383094" x2="1.36695" y2="0.701623" style="stroke:rgb(246,147,147);stroke-width:0.01" />
<line x1="0.725104" y1="0" x2="1" y2="0" style="stroke:rgb(246,147,147);stroke-width:0.01" />
<line x1="1" y1="0" x2="1" y2="0.0202546" style="stroke:rgb(246,147,147);stroke-width:0.01" />
<line x1="0.635251" y1="0.342298" x2="1.20639" y2="0.639765" style="stroke:rgb(246,147,147);stroke-width:0.01" />
<line x1="1.2843" y1="0.680345" x2="1.32753" y2="0.702862" style="stroke:rgb(246,147,147);stroke-width:0.01" />
<line x1="0.872131" y1="0.259539" x2="1.35694" y2="0.383094" style="stroke:rgb(246,147,147);stroke-width:0.01" />
<line x1="1.32415" y1="0.374736" x2="1.30757" y2="0.692461" style="stroke:rgb(246,147,147);stroke-width:0.01" />
<line x1="0.647099" y1="0.328334" x2="0.644578" y2="0.347155" style="stroke:rgb(246,147,147);stroke-width:0.01" />
<line x1="0.725815" y1="-0.00270775" x2="0.635251" y2="0.342298" style="stroke:rgb(246,147,147);stroke-width:0.01" />
<line x1="1.2843" y1="0.680345" x2="1.31629" y2="0.685657" style="stroke:rgb(246,147,147);stroke-width:0.01" />
<line x1="0.647099" y1="0.328334" x2="0.635251" y2="0.342298" style="stroke:rgb(246,147,147);stroke-width:0.01" />
<line x1="0.872131" y1="0.259539" x2="0.647099" y2="0.328334" style="stroke:rgb(246,147,147);stroke-width:0.01" />
<line x1="1" y1="0.0202546" x2="0.644578" y2="0.347155" style="stroke:rgb(246,147,147);stroke-width:0.01" />
<line x1="1.36631" y1="0.290932" x2="1.20639" y2="0.639765" style="stroke:rgb(246,147,147);stroke-width:0.01" />
<line x1="1.32415" y1="0.374736" x2="1.19897" y2="0.635904" style="stroke:rgb(246,147,147);stroke-width:0.01" />
<line x1="1.35672" y1="0.356139" x2="1.19897" y2="0.635904" style="stroke:rgb(246,147,147);stroke-width:0.01" />
<line x1="1.35694" y1="0.383094" x2="1.20639" y2="0.639765" style="stroke:rgb(246,147,147);stroke-width:0.01" />
<line x1="1.36695" y1="0.701623" x2="1.32753" y2="0.702862" style="stroke:rgb(246,147,147);stroke-width:0.01" />
<line x1="1.31629" y1="0.685657" x2="1.30757" y2="0.692461" style="stroke:rgb(246,147,147);stroke-width:0.01" />
</g>
</svg>
