<svg xmlns="http://www.w3.org/2000/svg" viewBox="-1.5 -1.5 3 3">
<g transform="scale(1, -1)">
<path d="M-0.412595 -0.349303 L-0.380262 -0.346595 L-0.138409 -0.346595 L-0.138409 -0.326340 L-0.212955 -0.257776 L0.227903 -0.055662 L0.202179 0.000448 L0.218312 0.009544 L0.205051 0.033063 L0.218534 0.036499 L0.228542 0.355029 L0.189125 0.356267 L0.145892 0.333750 L0.082274 0.268799 L0.067978 0.293170 L-0.503159 -0.004297 z " fill="rgb(245,195,195)" />
<path d="M-1.138409 -0.346595 L-0.138409 -0.346595 L-0.138409 0.653405 L-1.138409 0.653405  z" fill="none" stroke="rgb(128,128,128)" stroke-width="0.01" />
<line x1="0.177877" y1="0.339062" x2="0.189125" y2="0.356267" style="stroke:rgb(246,147,147);stroke-width:0.01" />
<line x1="-0.413305" y1="-0.346595" x2="0.218312" y2="0.00954448" style="stroke:rgb(246,147,147);stroke-width:0.01" />
<line x1="-0.266278" y1="-0.0870554" x2="0.145892" y2="0.33375" style="stroke:rgb(246,147,147);stroke-width:0.01" />
<line x1="-0.412595" y1="-0.349303" x2="0.227903" y2="-0.0556624" style="stroke:rgb(246,147,147);stroke-width:0.01" />
<line x1="-0.412595" y1="-0.349303" x2="-0.138409" y2="-0.32634" style="stroke:rgb(246,147,147);stroke-width:0.01" />
<line x1="0.218534" y1="0.0364988" x2="0.228542" y2="0.355029" style="stroke:rgb(246,147,147);stroke-width:0.01" />
<line x1="-0.413305" y1="-0.346595" x2="-0.138409" y2="-0.346595" style="stroke:rgb(246,147,147);stroke-width:0.01" />
<line x1="-0.138409" y1="-0.346595" x2="-0.138409" y2="-0.32634" style="stroke:rgb(246,147,147);stroke-width:0.01" />
<line x1="-0.503159" y1="-0.00429716" x2="0.0679782" y2="0.29317" style="stroke:rgb(246,147,147);stroke-width:0.01" />
<line x1="0.145892" y1="0.33375" x2="0.189125" y2="0.356267" style="stroke:rgb(246,147,147);stroke-width:0.01" />
<line x1="-0.266278" y1="-0.0870554" x2="0.218534" y2="0.0364988" style="stroke:rgb(246,147,147);stroke-width:0.01" />
<line x1="0.185738" y1="0.0281408" x2="0.169156" y2="0.345867" style="stroke:rgb(246,147,147);stroke-width:0.01" />
<line x1="-0.49131" y1="-0.0182607" x2="-0.493832" y2="0.000560671" style="stroke:rgb(246,147,147);stroke-width:0.01" />
<line x1="-0.412595" y1="-0.349303" x2="-0.503159" y2="-0.00429716" style="stroke:rgb(246,147,147);stroke-width:0.01" />
<line x1="0.145892" y1="0.33375" x2="0.177877" y2="0.339062" style="stroke:rgb(246,147,147);stroke-width:0.01" />
<line x1="-0.49131" y1="-0.0182607" x2="-0.503159" y2="-0.00429716" style="stroke:rgb(246,147,147);stroke-width:0.01" />
<line x1="-0.266278" y1="-0.0870554" x2="-0.49131" y2="-0.0182607" style="stroke:rgb(246,147,147);stroke-width:0.01" />
<line x1="-0.138409" y1="-0.32634" x2="-0.493832" y2="0.000560671" style="stroke:rgb(246,147,147);stroke-width:0.01" />
<line x1="0.227903" y1="-0.0556624" x2="0.0679782" y2="0.29317" style="stroke:rgb(246,147,147);stroke-width:0.01" />
<line x1="0.185738" y1="0.0281408" x2="0.0605656" y2="0.289309" style="stroke:rgb(246,147,147);stroke-width:0.01" />
<line x1="0.218312" y1="0.00954448" x2="0.0605656" y2="0.289309" style="stroke:rgb(246,147,147);stroke-width:0.01" />
<line x1="0.218534" y1="0.0364988" x2="0.0679782" y2="0.29317" style="stroke:rgb(246,147,147);stroke-width:0.01" />
<line x1="0.228542" y1="0.355029" x2="0.189125" y2="0.356267" style="stroke:rgb(246,147,147);stroke-width:0.01" />
<line x1="0.177877" y1="0.339062" x2="0.169156" y2="0.345867" style="stroke:rgb(246,147,147);stroke-width:0.01" />
</g>
</svg>
