<svg xmlns="http://www.w3.org/2000/svg" viewBox="-1.5 -1.5 3 3">
<g transform="scale(1, -1)">
<path d="M0.333333 0.893333 L0.500000 0.960000 L0.500000 0.963462 L0.500696 0.963649 L0.520779 0.987662 L0.458862 1.173415 L0.250012 1.222487 L0.163561 1.071595 L0.284797 0.944297 L0.296689 0.908724 L0.314189 0.913435 z " fill="rgb(245,195,195)" />
<path d="M0.000000 0.000000 L1.000000 0.000000 L1.000000 1.000000 L0.000000 1.000000  z" fill="none" stroke="rgb(128,128,128)" stroke-width="0.01" />
<line x1="0.379842" y1="0.931111" x2="0.380917" y2="0.93572" style="stroke:rgb(246,147,147);stroke-width:0.01" />
<line x1="0.333333" y1="0.893333" x2="0.333333" y2="1" style="stroke:rgb(246,147,147);stroke-width:0.01" />
<line x1="0.5" y1="0.96" x2="0.5" y2="1" style="stroke:rgb(246,147,147);stroke-width:0.01" />
<line x1="0.296689" y1="0.908724" x2="0.267934" y2="1.04816" style="stroke:rgb(246,147,147);stroke-width:0.01" />
<line x1="0.500696" y1="0.963649" x2="0.520779" y2="0.987662" style="stroke:rgb(246,147,147);stroke-width:0.01" />
<line x1="0.296689" y1="0.908724" x2="0.279782" y2="0.959297" style="stroke:rgb(246,147,147);stroke-width:0.01" />
<line x1="0.163561" y1="1.07159" x2="0.250012" y2="1.22249" style="stroke:rgb(246,147,147);stroke-width:0.01" />
<line x1="0.520779" y1="0.987662" x2="0.458862" y2="1.17342" style="stroke:rgb(246,147,147);stroke-width:0.01" />
<line x1="0.279782" y1="0.959297" x2="0.458862" y2="1.17342" style="stroke:rgb(246,147,147);stroke-width:0.01" />
<line x1="0.267934" y1="1.04816" x2="0.268868" y2="1.04904" style="stroke:rgb(246,147,147);stroke-width:0.01" />
<line x1="0.333333" y1="0.893333" x2="0.163561" y2="1.07159" style="stroke:rgb(246,147,147);stroke-width:0.01" />
<line x1="0.379842" y1="0.931111" x2="0.268868" y2="1.04904" style="stroke:rgb(246,147,147);stroke-width:0.01" />
<line x1="0.333333" y1="0.893333" x2="0.5" y2="0.96" style="stroke:rgb(246,147,147);stroke-width:0.01" />
<line x1="0.5" y1="0.96" x2="0.250012" y2="1.22249" style="stroke:rgb(246,147,147);stroke-width:0.01" />
<line x1="0.296689" y1="0.908724" x2="0.500696" y2="0.963649" style="stroke:rgb(246,147,147);stroke-width:0.01" />
<line x1="0.380917" y1="0.93572" x2="0.279782" y2="0.959297" style="stroke:rgb(246,147,147);stroke-width:0.01" />
<line x1="0.333333" y1="1" x2="0.5" y2="1" style="stroke:rgb(246,147,147);stroke-width:0.01" />
<line x1="0.500696" y1="0.963649" x2="0.267934" y2="1.04816" style="stroke:rgb(246,147,147);stroke-width:0.01" />
<line x1="0.520779" y1="0.987662" x2="0.163561" y2="1.07159" style="stroke:rgb(246,147,147);stroke-width:0.01" />
<line x1="0.458862" y1="1.17342" x2="0.250012" y2="1.22249" style="stroke:rgb(246,147,147);stroke-width:0.01" />
</g>
</svg>
