<svg xmlns="http://www.w3.org/2000/svg" viewBox="-1.5 -1.5 3 3">
<g transform="scale(1, -1)">
<path d="M-0.041477 -0.106854 L0.125189 -0.040187 L0.125189 -0.036726 L0.125886 -0.036538 L0.145969 -0.012526 L0.084051 0.173228 L-0.124798 0.222300 L-0.211250 0.071407 L-0.090014 -0.055890 L-0.078122 -0.091463 L-0.060622 -0.086752 z " fill="rgb(245,195,195)" />
<path d="M-0.374811 -1.000187 L0.625189 -1.000187 L0.625189 -0.000187 L-0.374811 -0.000187  z" fill="none" stroke="rgb(128,128,128)" stroke-width="0.01" />
<line x1="0.00503151" y1="-0.0690758" x2="0.00610589" y2="-0.0644672" style="stroke:rgb(246,147,147);stroke-width:0.01" />
<line x1="-0.0414774" y1="-0.106854" x2="-0.0414774" y2="-0.000187148" style="stroke:rgb(246,147,147);stroke-width:0.01" />
<line x1="0.125189" y1="-0.0401871" x2="0.125189" y2="-0.000187148" style="stroke:rgb(246,147,147);stroke-width:0.01" />
<line x1="-0.0781219" y1="-0.0914632" x2="-0.106877" y2="0.0479754" style="stroke:rgb(246,147,147);stroke-width:0.01" />
<line x1="0.125886" y1="-0.0365381" x2="0.145969" y2="-0.0125256" style="stroke:rgb(246,147,147);stroke-width:0.01" />
<line x1="-0.0781219" y1="-0.0914632" x2="-0.0950285" y2="-0.0408904" style="stroke:rgb(246,147,147);stroke-width:0.01" />
<line x1="-0.21125" y1="0.0714074" x2="-0.124798" y2="0.2223" style="stroke:rgb(246,147,147);stroke-width:0.01" />
<line x1="0.145969" y1="-0.0125256" x2="0.0840508" y2="0.173228" style="stroke:rgb(246,147,147);stroke-width:0.01" />
<line x1="-0.0950285" y1="-0.0408904" x2="0.0840508" y2="0.173228" style="stroke:rgb(246,147,147);stroke-width:0.01" />
<line x1="-0.106877" y1="0.0479754" x2="-0.105943" y2="0.048854" style="stroke:rgb(246,147,147);stroke-width:0.01" />
<line x1="-0.0414774" y1="-0.106854" x2="-0.21125" y2="0.0714074" style="stroke:rgb(246,147,147);stroke-width:0.01" />
<line x1="0.00503151" y1="-0.0690758" x2="-0.105943" y2="0.048854" style="stroke:rgb(246,147,147);stroke-width:0.01" />
<line x1="-0.0414774" y1="-0.106854" x2="0.125189" y2="-0.0401871" style="stroke:rgb(246,147,147);stroke-width:0.01" />
<line x1="0.125189" y1="-0.0401871" x2="-0.124798" y2="0.2223" style="stroke:rgb(246,147,147);stroke-width:0.01" />
<line x1="-0.0781219" y1="-0.0914632" x2="0.125886" y2="-0.0365381" style="stroke:rgb(246,147,147);stroke-width:0.01" />
<line x1="0.00610589" y1="-0.0644672" x2="-0.0950285" y2="-0.0408904" style="stroke:rgb(246,147,147);stroke-width:0.01" />
<line x1="-0.0414774" y1="-0.000187148" x2="0.125189" y2="-0.000187148" style="stroke:rgb(246,147,147);stroke-width:0.01" />
<line x1="0.125886" y1="-0.0365381" x2="-0.106877" y2="0.0479754" style="stroke:rgb(246,147,147);stroke-width:0.01" />
<line x1="0.145969" y1="-0.0125256" x2="-0.21125" y2="0.0714074" style="stroke:rgb(246,147,147);stroke-width:0.01" />
<line x1="0.0840508" y1="0.173228" x2="-0.124798" y2="0.2223" style="stroke:rgb(246,147,147);stroke-width:0.01" />
</g>
</svg>
