<svg xmlns="http://www.w3.org/2000/svg" viewBox="-1.5 -1.5 3 3">
<g transform="scale(1, -1)">
<path d="M-0.201130 -0.339756 L-0.148348 -0.161858 L0.148348 -0.161858 L0.201130 -0.339756 L0.297619 -0.161858 L0.214392 -0.022037 L0.302632 0.035511 L0.201592 0.295702 L0.152918 0.185225 L0.000000 0.338142 L-0.152918 0.185225 L-0.201592 0.295702 L-0.302632 0.035511 L-0.214392 -0.022037 L-0.297619 -0.161858 z " fill="rgb(245,195,195)" />
<path d="M-0.500000 -0.161858 L0.500000 -0.161858 L0.500000 0.838142 L-0.500000 0.838142  z" fill="none" stroke="rgb(128,128,128)" stroke-width="0.01" />
<line x1="0.20113" y1="-0.339756" x2="0.297619" y2="-0.161858" style="stroke:rgb(246,147,147);stroke-width:0.01" />
<line x1="0" y1="-0.161858" x2="0.302632" y2="0.0355107" style="stroke:rgb(246,147,147);stroke-width:0.01" />
<line x1="0" y1="-0.161858" x2="0.201592" y2="0.295702" style="stroke:rgb(246,147,147);stroke-width:0.01" />
<line x1="-0.20113" y1="-0.339756" x2="0" y2="0.338142" style="stroke:rgb(246,147,147);stroke-width:0.01" />
<line x1="-0.297619" y1="-0.161858" x2="0" y2="0.338142" style="stroke:rgb(246,147,147);stroke-width:0.01" />
<line x1="-0.302632" y1="0.0355107" x2="-0.201592" y2="0.295702" style="stroke:rgb(246,147,147);stroke-width:0.01" />
<line x1="-0.297619" y1="-0.161858" x2="0.297619" y2="-0.161858" style="stroke:rgb(246,147,147);stroke-width:0.01" />
<line x1="-0.302632" y1="0.0355107" x2="0" y2="0.338142" style="stroke:rgb(246,147,147);stroke-width:0.01" />
<line x1="0" y1="-0.161858" x2="0" y2="0.338142" style="stroke:rgb(246,147,147);stroke-width:0.01" />
<line x1="-0.20113" y1="-0.339756" x2="-0.297619" y2="-0.161858" style="stroke:rgb(246,147,147);stroke-width:0.01" />
<line x1="0.20113" y1="-0.339756" x2="0" y2="0.338142" style="stroke:rgb(246,147,147);stroke-width:0.01" />
<line x1="0" y1="-0.161858" x2="-0.201592" y2="0.295702" style="stroke:rgb(246,147,147);stroke-width:0.01" />
<line x1="0" y1="-0.161858" x2="-0.302632" y2="0.0355107" style="stroke:rgb(246,147,147);stroke-width:0.01" />
<line x1="0.302632" y1="0.0355107" x2="0.201592" y2="0.295702" style="stroke:rgb(246,147,147);stroke-width:0.01" />
<line x1="0.297619" y1="-0.161858" x2="0" y2="0.338142" style="stroke:rgb(246,147,147);stroke-width:0.01" />
<line x1="0.302632" y1="0.0355107" x2="0" y2="0.338142" style="stroke:rgb(246,147,147);stroke-width:0.01" />
</g>
</svg>
