<svg xmlns="http://www.w3.org/2000/svg" viewBox="-1.5 -1.5 3 3">
<g transform="scale(1, -1)">
<path d="M-0.367508 -0.279743 L-0.304178 -0.175642 L0.304178 -0.175642 L0.367508 -0.279743 L0.392857 -0.175642 L0.259754 -0.006237 L0.302632 0.021727 L0.201592 0.281918 L0.152918 0.171441 L0.000000 0.324358 L-0.152918 0.171441 L-0.201592 0.281918 L-0.302632 0.021727 L-0.259754 -0.006237 L-0.392857 -0.175642 z " fill="rgb(245,195,195)" />
<path d="M-0.500000 -0.175642 L0.500000 -0.175642 L0.500000 0.824358 L-0.500000 0.824358  z" fill="none" stroke="rgb(128,128,128)" stroke-width="0.01" />
<line x1="0" y1="-0.175642" x2="0.302632" y2="0.0217265" style="stroke:rgb(246,147,147);stroke-width:0.01" />
<line x1="0.367508" y1="-0.279743" x2="0.392857" y2="-0.175642" style="stroke:rgb(246,147,147);stroke-width:0.01" />
<line x1="0" y1="-0.175642" x2="0.201592" y2="0.281918" style="stroke:rgb(246,147,147);stroke-width:0.01" />
<line x1="-0.367508" y1="-0.279743" x2="0" y2="0.324358" style="stroke:rgb(246,147,147);stroke-width:0.01" />
<line x1="-0.392857" y1="-0.175642" x2="0" y2="0.324358" style="stroke:rgb(246,147,147);stroke-width:0.01" />
<line x1="-0.302632" y1="0.0217265" x2="-0.201592" y2="0.281918" style="stroke:rgb(246,147,147);stroke-width:0.01" />
<line x1="-0.392857" y1="-0.175642" x2="0.392857" y2="-0.175642" style="stroke:rgb(246,147,147);stroke-width:0.01" />
<line x1="-0.302632" y1="0.0217265" x2="0" y2="0.324358" style="stroke:rgb(246,147,147);stroke-width:0.01" />
<line x1="0" y1="-0.175642" x2="0" y2="0.324358" style="stroke:rgb(246,147,147);stroke-width:0.01" />
<line x1="-0.367508" y1="-0.279743" x2="-0.392857" y2="-0.175642" style="stroke:rgb(246,147,147);stroke-width:0.01" />
<line x1="0" y1="-0.175642" x2="-0.201592" y2="0.281918" style="stroke:rgb(246,147,147);stroke-width:0.01" />
<line x1="0" y1="-0.175642" x2="-0.302632" y2="0.0217265" style="stroke:rgb(246,147,147);stroke-width:0.01" />
<line x1="0.302632" y1="0.0217265" x2="0.201592" y2="0.281918" style="stroke:rgb(246,147,147);stroke-width:0.01" />
<line x1="0.367508" y1="-0.279743" x2="0" y2="0.324358" style="stroke:rgb(246,147,147);stroke-width:0.01" />
<line x1="0.392857" y1="-0.175642" x2="0" y2="0.324358" style="stroke:rgb(246,147,147);stroke-width:0.01" />
<line x1="0.302632" y1="0.0217265" x2="0" y2="0.324358" style="stroke:rgb(246,147,147);stroke-width:0.01" />
</g>
</svg>
