<svg xmlns="http://www.w3.org/2000/svg" viewBox="-1.5 -1.5 3 3">
<g transform="scale(1, -1)">
<path d="M0.132492 -0.104101 L0.195822 0.000000 L0.804178 0.000000 L0.867508 -0.104101 L0.892857 0.000000 L0.759754 0.169405 L0.802632 0.197368 L0.701592 0.457560 L0.652918 0.347082 L0.500000 0.500000 L0.347082 0.347082 L0.298408 0.457560 L0.197368 0.197368 L0.240246 0.169405 L0.107143 0.000000 z " fill="rgb(245,195,195)" />
<path d="M0.000000 0.000000 L1.000000 0.000000 L1.000000 1.000000 L0.000000 1.000000  z" fill="none" stroke="rgb(128,128,128)" stroke-width="0.01" />
<line x1="0.5" y1="0" x2="0.802632" y2="0.197368" style="stroke:rgb(246,147,147);stroke-width:0.01" />
<line x1="0.867508" y1="-0.104101" x2="0.892857" y2="0" style="stroke:rgb(246,147,147);stroke-width:0.01" />
<line x1="0.5" y1="0" x2="0.701592" y2="0.45756" style="stroke:rgb(246,147,147);stroke-width:0.01" />
<line x1="0.132492" y1="-0.104101" x2="0.5" y2="0.5" style="stroke:rgb(246,147,147);stroke-width:0.01" />
<line x1="0.107143" y1="0" x2="0.5" y2="0.5" style="stroke:rgb(246,147,147);stroke-width:0.01" />
<line x1="0.197368" y1="0.197368" x2="0.298408" y2="0.45756" style="stroke:rgb(246,147,147);stroke-width:0.01" />
<line x1="0.107143" y1="0" x2="0.892857" y2="0" style="stroke:rgb(246,147,147);stroke-width:0.01" />
<line x1="0.197368" y1="0.197368" x2="0.5" y2="0.5" style="stroke:rgb(246,147,147);stroke-width:0.01" />
<line x1="0.5" y1="0" x2="0.5" y2="0.5" style="stroke:rgb(246,147,147);stroke-width:0.01" />
<line x1="0.132492" y1="-0.104101" x2="0.107143" y2="0" style="stroke:rgb(246,147,147);stroke-width:0.01" />
<line x1="0.5" y1="0" x2="0.298408" y2="0.45756" style="stroke:rgb(246,147,147);stroke-width:0.01" />
<line x1="0.5" y1="0" x2="0.197368" y2="0.197368" style="stroke:rgb(246,147,147);stroke-width:0.01" />
<line x1="0.802632" y1="0.197368" x2="0.701592" y2="0.45756" style="stroke:rgb(246,147,147);stroke-width:0.01" />
<line x1="0.867508" y1="-0.104101" x2="0.5" y2="0.5" style="stroke:rgb(246,147,147);stroke-width:0.01" />
<line x1="0.892857" y1="0" x2="0.5" y2="0.5" style="stroke:rgb(246,147,147);stroke-width:0.01" />
<line x1="0.802632" y1="0.197368" x2="0.5" y2="0.5" style="stroke:rgb(246,147,147);stroke-width:0.01" />
</g>
</svg>
