<svg xmlns="http://www.w3.org/2000/svg" viewBox="-1.5 -1.5 3 3">
<g transform="scale(1, -1)">
<path d="M1.068030 -0.250749 L1.157388 -0.071477 L1.132644 0.124498 L1.187762 0.131457 L1.125685 0.179616 L1.110086 0.303162 L1.114435 0.310541 L1.108730 0.313903 L0.746819 0.075783 L0.753005 0.026790 L0.980621 -0.149792 L0.948515 -0.191177 z " fill="rgb(245,195,195)" />
<path d="M0.000000 0.000000 L1.000000 0.000000 L1.000000 1.000000 L0.000000 1.000000  z" fill="none" stroke="rgb(128,128,128)" stroke-width="0.01" />
<line x1="1.00827" y1="-0.220963" x2="1.11271" y2="-0.161113" style="stroke:rgb(246,147,147);stroke-width:0.01" />
<line x1="0.948515" y1="-0.191177" x2="1.15739" y2="-0.0714772" style="stroke:rgb(246,147,147);stroke-width:0.01" />
<line x1="0.948515" y1="-0.191177" x2="1.09299" y2="-0.00494576" style="stroke:rgb(246,147,147);stroke-width:0.01" />
<line x1="1.06803" y1="-0.250749" x2="1.15739" y2="-0.0714772" style="stroke:rgb(246,147,147);stroke-width:0.01" />
<line x1="0.916999" y1="-0.0245014" x2="1.11443" y2="0.310541" style="stroke:rgb(246,147,147);stroke-width:0.01" />
<line x1="0.753005" y1="0.0267897" x2="0.837091" y2="0.135178" style="stroke:rgb(246,147,147);stroke-width:0.01" />
<line x1="0.746819" y1="0.0757835" x2="1.10873" y2="0.313903" style="stroke:rgb(246,147,147);stroke-width:0.01" />
<line x1="0.837091" y1="0.135178" x2="1.04236" y2="0.188224" style="stroke:rgb(246,147,147);stroke-width:0.01" />
<line x1="0.746819" y1="0.0757835" x2="1.18776" y2="0.131457" style="stroke:rgb(246,147,147);stroke-width:0.01" />
<line x1="1.07994" y1="-0.226846" x2="0.948515" y2="-0.191177" style="stroke:rgb(246,147,147);stroke-width:0.01" />
<line x1="0.753005" y1="0.0267897" x2="0.746819" y2="0.0757835" style="stroke:rgb(246,147,147);stroke-width:0.01" />
<line x1="1.00827" y1="-0.220963" x2="0.953625" y2="0.211852" style="stroke:rgb(246,147,147);stroke-width:0.01" />
<line x1="1.11271" y1="-0.161113" x2="1.09299" y2="-0.00494576" style="stroke:rgb(246,147,147);stroke-width:0.01" />
<line x1="1.15739" y1="-0.0714772" x2="1.10873" y2="0.313903" style="stroke:rgb(246,147,147);stroke-width:0.01" />
<line x1="1.06803" y1="-0.250749" x2="0.948515" y2="-0.191177" style="stroke:rgb(246,147,147);stroke-width:0.01" />
<line x1="1.04236" y1="0.188224" x2="1.02424" y2="0.258314" style="stroke:rgb(246,147,147);stroke-width:0.01" />
<line x1="1.07994" y1="-0.226846" x2="0.753005" y2="0.0267897" style="stroke:rgb(246,147,147);stroke-width:0.01" />
<line x1="0.916999" y1="-0.0245014" x2="0.746819" y2="0.0757835" style="stroke:rgb(246,147,147);stroke-width:0.01" />
<line x1="1.02982" y1="0.166952" x2="0.953625" y2="0.211852" style="stroke:rgb(246,147,147);stroke-width:0.01" />
<line x1="1.18776" y1="0.131457" x2="1.02424" y2="0.258314" style="stroke:rgb(246,147,147);stroke-width:0.01" />
<line x1="1.11443" y1="0.310541" x2="1.10873" y2="0.313903" style="stroke:rgb(246,147,147);stroke-width:0.01" />
</g>
</svg>
