<svg xmlns="http://www.w3.org/2000/svg" viewBox="-1.5 -1.5 3 3">
<g transform="scale(1, -1)">
<path d="M0.031886 -0.317629 L0.121245 -0.138357 L0.096501 0.057618 L0.151619 0.064578 L0.089542 0.112736 L0.073943 0.236282 L0.078292 0.243662 L0.072587 0.247024 L-0.289325 0.008904 L-0.283139 -0.040090 L-0.055523 -0.216672 L-0.087628 -0.258057 z " fill="rgb(245,195,195)" />
<path d="M-1.036143 -0.066879 L-0.036143 -0.066879 L-0.036143 0.933121 L-1.036143 0.933121  z" fill="none" stroke="rgb(128,128,128)" stroke-width="0.01" />
<line x1="-0.027871" y1="-0.287843" x2="0.0765656" y2="-0.227993" style="stroke:rgb(246,147,147);stroke-width:0.01" />
<line x1="-0.0876284" y1="-0.258057" x2="0.121245" y2="-0.138357" style="stroke:rgb(246,147,147);stroke-width:0.01" />
<line x1="-0.0876284" y1="-0.258057" x2="0.0568479" y2="-0.0718252" style="stroke:rgb(246,147,147);stroke-width:0.01" />
<line x1="0.0318864" y1="-0.317629" x2="0.121245" y2="-0.138357" style="stroke:rgb(246,147,147);stroke-width:0.01" />
<line x1="-0.119144" y1="-0.0913809" x2="0.0782916" y2="0.243662" style="stroke:rgb(246,147,147);stroke-width:0.01" />
<line x1="-0.283139" y1="-0.0400897" x2="-0.199052" y2="0.0682989" style="stroke:rgb(246,147,147);stroke-width:0.01" />
<line x1="-0.289325" y1="0.00890401" x2="0.0725867" y2="0.247024" style="stroke:rgb(246,147,147);stroke-width:0.01" />
<line x1="-0.199052" y1="0.0682989" x2="0.00621187" y2="0.121345" style="stroke:rgb(246,147,147);stroke-width:0.01" />
<line x1="-0.289325" y1="0.00890401" x2="0.151619" y2="0.0645775" style="stroke:rgb(246,147,147);stroke-width:0.01" />
<line x1="0.0438009" y1="-0.293726" x2="-0.0876284" y2="-0.258057" style="stroke:rgb(246,147,147);stroke-width:0.01" />
<line x1="-0.283139" y1="-0.0400897" x2="-0.289325" y2="0.00890401" style="stroke:rgb(246,147,147);stroke-width:0.01" />
<line x1="-0.027871" y1="-0.287843" x2="-0.0825182" y2="0.144972" style="stroke:rgb(246,147,147);stroke-width:0.01" />
<line x1="0.0765656" y1="-0.227993" x2="0.0568479" y2="-0.0718252" style="stroke:rgb(246,147,147);stroke-width:0.01" />
<line x1="0.121245" y1="-0.138357" x2="0.0725867" y2="0.247024" style="stroke:rgb(246,147,147);stroke-width:0.01" />
<line x1="0.0318864" y1="-0.317629" x2="-0.0876284" y2="-0.258057" style="stroke:rgb(246,147,147);stroke-width:0.01" />
<line x1="0.00621187" y1="0.121345" x2="-0.0119013" y2="0.191435" style="stroke:rgb(246,147,147);stroke-width:0.01" />
<line x1="0.0438009" y1="-0.293726" x2="-0.283139" y2="-0.0400897" style="stroke:rgb(246,147,147);stroke-width:0.01" />
<line x1="-0.119144" y1="-0.0913809" x2="-0.289325" y2="0.00890401" style="stroke:rgb(246,147,147);stroke-width:0.01" />
<line x1="-0.00632374" y1="0.100072" x2="-0.0825182" y2="0.144972" style="stroke:rgb(246,147,147);stroke-width:0.01" />
<line x1="0.151619" y1="0.0645775" x2="-0.0119013" y2="0.191435" style="stroke:rgb(246,147,147);stroke-width:0.01" />
<line x1="0.0782916" y1="0.243662" x2="0.0725867" y2="0.247024" style="stroke:rgb(246,147,147);stroke-width:0.01" />
</g>
</svg>
