<svg xmlns="http://www.w3.org/2000/svg" viewBox="-1.5 -1.5 3 3">
<g transform="scale(1, -1)">
<path d="M0.053889 -0.401148 L0.384332 -0.137896 L0.384562 0.144251 L0.397685 0.155347 L0.384615 0.209162 L-0.291788 0.128479 L-0.307071 0.085386 L-0.203186 -0.037476 L-0.249245 -0.048702 L-0.274850 -0.041462 L-0.278944 -0.055941 z " fill="rgb(245,195,195)" />
<path d="M0.806476 -1.340416 L1.806476 -1.340416 L1.806476 -0.340416 L0.806476 -0.340416  z" fill="none" stroke="rgb(128,128,128)" stroke-width="0.01" />
<line x1="0.0538893" y1="-0.401148" x2="-0.291788" y2="0.128479" style="stroke:rgb(246,147,147);stroke-width:0.01" />
<line x1="0.195053" y1="-0.288688" x2="0.0118304" y2="0.0785063" style="stroke:rgb(246,147,147);stroke-width:0.01" />
<line x1="0.300992" y1="-0.204291" x2="0.280847" y2="0.196784" style="stroke:rgb(246,147,147);stroke-width:0.01" />
<line x1="0.397685" y1="0.155347" x2="0.384615" y2="0.209162" style="stroke:rgb(246,147,147);stroke-width:0.01" />
<line x1="0.384332" y1="-0.137896" x2="0.384615" y2="0.209162" style="stroke:rgb(246,147,147);stroke-width:0.01" />
<line x1="-0.0477554" y1="-0.221296" x2="-0.307071" y2="0.0853859" style="stroke:rgb(246,147,147);stroke-width:0.01" />
<line x1="0.0538893" y1="-0.401148" x2="-0.278944" y2="-0.0559406" style="stroke:rgb(246,147,147);stroke-width:0.01" />
<line x1="0.195053" y1="-0.288688" x2="-0.131636" y2="-0.0200362" style="stroke:rgb(246,147,147);stroke-width:0.01" />
<line x1="-0.278944" y1="-0.0559406" x2="-0.27485" y2="-0.041462" style="stroke:rgb(246,147,147);stroke-width:0.01" />
<line x1="-0.307071" y1="0.0853859" x2="-0.291788" y2="0.128479" style="stroke:rgb(246,147,147);stroke-width:0.01" />
<line x1="0.300992" y1="-0.204291" x2="-0.27485" y2="-0.041462" style="stroke:rgb(246,147,147);stroke-width:0.01" />
<line x1="0.0538893" y1="-0.401148" x2="0.384332" y2="-0.137896" style="stroke:rgb(246,147,147);stroke-width:0.01" />
<line x1="0.384332" y1="-0.137896" x2="-0.131636" y2="-0.0200362" style="stroke:rgb(246,147,147);stroke-width:0.01" />
<line x1="-0.0477554" y1="-0.221296" x2="0.397685" y2="0.155347" style="stroke:rgb(246,147,147);stroke-width:0.01" />
<line x1="0.397685" y1="0.155347" x2="0.238824" y2="0.191772" style="stroke:rgb(246,147,147);stroke-width:0.01" />
<line x1="0.0118304" y1="0.0785063" x2="0.238824" y2="0.191772" style="stroke:rgb(246,147,147);stroke-width:0.01" />
<line x1="-0.278944" y1="-0.0559406" x2="-0.131636" y2="-0.0200362" style="stroke:rgb(246,147,147);stroke-width:0.01" />
<line x1="-0.291788" y1="0.128479" x2="0.384615" y2="0.209162" style="stroke:rgb(246,147,147);stroke-width:0.01" />
<line x1="-0.307071" y1="0.0853859" x2="0.280847" y2="0.196784" style="stroke:rgb(246,147,147);stroke-width:0.01" />
</g>
</svg>
