<svg xmlns="http://www.w3.org/2000/svg" viewBox="-1.5 -1.5 3 3">
<g transform="scale(1, -1)">
<path d="M-478144411557872.937500 -478144411557872.875000 L-478144411557872.437500 -478144411557872.875000 L-478144411557872.375000 -478144411557872.812500 L-478144411557872.375000 -478144411557872.375000 L-478144411557872.437500 -478144411557872.375000 L-478144411557872.437500 -478144411557872.812500 L-478144411557872.937500 -478144411557872.812500 z " fill="rgb(245,195,195)" />
<path d="M0.000000 0.000000 L1.000000 0.000000 L1.000000 1.000000 L0.000000 1.000000  z" fill="none" stroke="rgb(128,128,128)" stroke-width="0.01" />
<line x1="-4.78144e+14" y1="-4.78144e+14" x2="-4.78144e+14" y2="-4.78144e+14" style="stroke:rgb(246,147,147);stroke-width:0.01" />
<line x1="-4.78144e+14" y1="-4.78144e+14" x2="-4.78144e+14" y2="-4.78144e+14" style="stroke:rgb(246,147,147);stroke-width:0.01" />
<line x1="-4.78144e+14" y1="-4.78144e+14" x2="-4.78144e+14" y2="-4.78144e+14" style="stroke:rgb(246,147,147);stroke-width:0.01" />
<line x1="-4.78144e+14" y1="-4.78144e+14" x2="-4.78144e+14" y2="-4.78144e+14" style="stroke:rgb(246,147,147);stroke-width:0.01" />
<line x1="-4.78144e+14" y1="-4.78144e+14" x2="-4.78144e+14" y2="-4.78144e+14" style="stroke:rgb(246,147,147);stroke-width:0.01" />
<line x1="-4.78144e+14" y1="-4.78144e+14" x2="-4.78144e+14" y2="-4.78144e+14" style="stroke:rgb(246,147,147);stroke-width:0.01" />
<line x1="-4.78144e+14" y1="-4.78144e+14" x2="-4.78144e+14" y2="-4.78144e+14" style="stroke:rgb(246,147,147);stroke-width:0.01" />
</g>
</svg>
