<svg xmlns="http://www.w3.org/2000/svg" viewBox="-1.5 -1.5 3 3">
<g transform="scale(1, -1)">
<path d="M0.275245 -0.654499 L0.375524 -0.654499 L0.620267 -0.108533 L-0.149000 0.243505 L-0.118164 0.345501 L-0.119525 0.346407 L-0.120128 0.345501 L-0.122895 0.345501 L-0.247388 0.288530 L-0.247388 -0.081933 L-0.146547 -0.415483 z " fill="rgb(245,195,195)" />
<path d="M-0.378248 -0.654499 L0.621752 -0.654499 L0.621752 0.345501 L-0.378248 0.345501  z" fill="none" stroke="rgb(128,128,128)" stroke-width="0.01" />
<line x1="0.375524" y1="-0.654499" x2="0.620267" y2="-0.108533" style="stroke:rgb(246,147,147);stroke-width:0.01" />
<line x1="0.211697" y1="-0.470681" x2="0.618772" y2="-0.107876" style="stroke:rgb(246,147,147);stroke-width:0.01" />
<line x1="0.277639" y1="-0.406451" x2="0.618832" y2="-0.111736" style="stroke:rgb(246,147,147);stroke-width:0.01" />
<line x1="0.0864641" y1="-0.547523" x2="0.178763" y2="-0.4861" style="stroke:rgb(246,147,147);stroke-width:0.01" />
<line x1="0.0864641" y1="-0.547523" x2="0.0956286" y2="-0.354648" style="stroke:rgb(246,147,147);stroke-width:0.01" />
<line x1="0.275245" y1="-0.654499" x2="0.375524" y2="-0.654499" style="stroke:rgb(246,147,147);stroke-width:0.01" />
<line x1="-0.247388" y1="-0.0819325" x2="-0.247388" y2="0.28853" style="stroke:rgb(246,147,147);stroke-width:0.01" />
<line x1="-0.247388" y1="-0.0819325" x2="-0.118164" y2="0.345501" style="stroke:rgb(246,147,147);stroke-width:0.01" />
<line x1="0.618832" y1="-0.111736" x2="0.618772" y2="-0.107876" style="stroke:rgb(246,147,147);stroke-width:0.01" />
<line x1="-0.146547" y1="-0.415483" x2="-0.247388" y2="-0.0819325" style="stroke:rgb(246,147,147);stroke-width:0.01" />
<line x1="-0.146547" y1="-0.415483" x2="0.0956286" y2="-0.354648" style="stroke:rgb(246,147,147);stroke-width:0.01" />
<line x1="-0.247388" y1="0.15427" x2="-0.119525" y2="0.346407" style="stroke:rgb(246,147,147);stroke-width:0.01" />
<line x1="0.275245" y1="-0.654499" x2="-0.146547" y2="-0.415483" style="stroke:rgb(246,147,147);stroke-width:0.01" />
<line x1="0.275245" y1="-0.654499" x2="0.0956286" y2="-0.354648" style="stroke:rgb(246,147,147);stroke-width:0.01" />
<line x1="-0.247388" y1="0.201375" x2="-0.122895" y2="0.345501" style="stroke:rgb(246,147,147);stroke-width:0.01" />
<line x1="0.178763" y1="-0.4861" x2="-0.247388" y2="0.15427" style="stroke:rgb(246,147,147);stroke-width:0.01" />
<line x1="0.375524" y1="-0.654499" x2="0.211697" y2="-0.470681" style="stroke:rgb(246,147,147);stroke-width:0.01" />
<line x1="0.277639" y1="-0.406451" x2="-0.247388" y2="0.201375" style="stroke:rgb(246,147,147);stroke-width:0.01" />
<line x1="-0.247388" y1="0.28853" x2="-0.122895" y2="0.345501" style="stroke:rgb(246,147,147);stroke-width:0.01" />
<line x1="-0.118164" y1="0.345501" x2="-0.119525" y2="0.346407" style="stroke:rgb(246,147,147);stroke-width:0.01" />
<line x1="0.620267" y1="-0.108533" x2="0.618772" y2="-0.107876" style="stroke:rgb(246,147,147);stroke-width:0.01" />
<line x1="0.620267" y1="-0.108533" x2="-0.247388" y2="0.28853" style="stroke:rgb(246,147,147);stroke-width:0.01" />
<line x1="-0.122895" y1="0.345501" x2="-0.118164" y2="0.345501" style="stroke:rgb(246,147,147);stroke-width:0.01" />
</g>
</svg>
