<svg xmlns="http://www.w3.org/2000/svg" viewBox="-1.5 -1.5 3 3">
<g transform="scale(1, -1)">
<path d="M-3699327815737227.500000 -3699327815737227.500000 L-3699327815737227.000000 -3699327815737227.500000 L-3699327815737227.000000 -3699327815737227.500000 L-3699327815737227.000000 -3699327815737227.000000 L-3699327815737227.000000 -3699327815737227.000000 L-3699327815737227.000000 -3699327815737227.500000 L-3699327815737227.500000 -3699327815737227.500000 z " fill="rgb(245,195,195)" />
<path d="M0.000000 0.000000 L1.000000 0.000000 L1.000000 1.000000 L0.000000 1.000000  z" fill="none" stroke="rgb(128,128,128)" stroke-width="0.01" />
<line x1="-3.69933e+15" y1="-3.69933e+15" x2="-3.69933e+15" y2="-3.69933e+15" style="stroke:rgb(246,147,147);stroke-width:0.01" />
<line x1="-3.69933e+15" y1="-3.69933e+15" x2="-3.69933e+15" y2="-3.69933e+15" style="stroke:rgb(246,147,147);stroke-width:0.01" />
<line x1="-3.69933e+15" y1="-3.69933e+15" x2="-3.69933e+15" y2="-3.69933e+15" style="stroke:rgb(246,147,147);stroke-width:0.01" />
<line x1="-3.69933e+15" y1="-3.69933e+15" x2="-3.69933e+15" y2="-3.69933e+15" style="stroke:rgb(246,147,147);stroke-width:0.01" />
<line x1="-3.69933e+15" y1="-3.69933e+15" x2="-3.69933e+15" y2="-3.69933e+15" style="stroke:rgb(246,147,147);stroke-width:0.01" />
<line x1="-3.69933e+15" y1="-3.69933e+15" x2="-3.69933e+15" y2="-3.69933e+15" style="stroke:rgb(246,147,147);stroke-width:0.01" />
<line x1="-3.69933e+15" y1="-3.69933e+15" x2="-3.69933e+15" y2="-3.69933e+15" style="stroke:rgb(246,147,147);stroke-width:0.01" />
</g>
</svg>
