<svg xmlns="http://www.w3.org/2000/svg" viewBox="-1.5 -1.5 3 3">
<g transform="scale(1, -1)">
<path d="M0.637526 0.070342 L0.649237 0.072944 L0.649237 0.078431 L0.646672 0.078431 L0.644390 0.083312 L0.869237 0.508172 L0.838042 0.534738 L0.874226 0.666462 L0.592482 0.743857 L0.400550 0.381192 L0.525847 0.216835 L0.564891 0.183585 L0.559279 0.172981 z " fill="rgb(245,195,195)" />
<path d="M0.000000 0.000000 L1.000000 0.000000 L1.000000 1.000000 L0.000000 1.000000  z" fill="none" stroke="rgb(128,128,128)" stroke-width="0.01" />
<line x1="0.637526" y1="0.0703418" x2="0.869237" y2="0.508172" style="stroke:rgb(246,147,147);stroke-width:0.01" />
<line x1="0.709157" y1="0.262948" x2="0.789201" y2="0.35694" style="stroke:rgb(246,147,147);stroke-width:0.01" />
<line x1="0.559279" y1="0.172981" x2="0.753497" y2="0.539966" style="stroke:rgb(246,147,147);stroke-width:0.01" />
<line x1="0.789201" y1="0.35694" x2="0.874226" y2="0.666462" style="stroke:rgb(246,147,147);stroke-width:0.01" />
<line x1="0.631359" y1="0.0784314" x2="0.74435" y2="0.48976" style="stroke:rgb(246,147,147);stroke-width:0.01" />
<line x1="0.40055" y1="0.381192" x2="0.592482" y2="0.743857" style="stroke:rgb(246,147,147);stroke-width:0.01" />
<line x1="0.637526" y1="0.0703418" x2="0.649237" y2="0.0729444" style="stroke:rgb(246,147,147);stroke-width:0.01" />
<line x1="0.444444" y1="0.323614" x2="0.444444" y2="0.390947" style="stroke:rgb(246,147,147);stroke-width:0.01" />
<line x1="0.598402" y1="0.121661" x2="0.598402" y2="0.181675" style="stroke:rgb(246,147,147);stroke-width:0.01" />
<line x1="0.649237" y1="0.0729444" x2="0.649237" y2="0.0784314" style="stroke:rgb(246,147,147);stroke-width:0.01" />
<line x1="0.559279" y1="0.172981" x2="0.598402" y2="0.181675" style="stroke:rgb(246,147,147);stroke-width:0.01" />
<line x1="0.631359" y1="0.0784314" x2="0.649237" y2="0.0784314" style="stroke:rgb(246,147,147);stroke-width:0.01" />
<line x1="0.525847" y1="0.216835" x2="0.444444" y2="0.390947" style="stroke:rgb(246,147,147);stroke-width:0.01" />
<line x1="0.649237" y1="0.0729444" x2="0.598402" y2="0.181675" style="stroke:rgb(246,147,147);stroke-width:0.01" />
<line x1="0.656272" y1="0.105765" x2="0.598402" y2="0.121661" style="stroke:rgb(246,147,147);stroke-width:0.01" />
<line x1="0.40055" y1="0.381192" x2="0.444444" y2="0.390947" style="stroke:rgb(246,147,147);stroke-width:0.01" />
<line x1="0.685155" y1="0.16034" x2="0.656054" y2="0.168333" style="stroke:rgb(246,147,147);stroke-width:0.01" />
<line x1="0.637526" y1="0.0703418" x2="0.559279" y2="0.172981" style="stroke:rgb(246,147,147);stroke-width:0.01" />
<line x1="0.525847" y1="0.216835" x2="0.40055" y2="0.381192" style="stroke:rgb(246,147,147);stroke-width:0.01" />
<line x1="0.709513" y1="0.206366" x2="0.593773" y2="0.23816" style="stroke:rgb(246,147,147);stroke-width:0.01" />
<line x1="0.656272" y1="0.105765" x2="0.525847" y2="0.216835" style="stroke:rgb(246,147,147);stroke-width:0.01" />
<line x1="0.730044" y1="0.245161" x2="0.444444" y2="0.323614" style="stroke:rgb(246,147,147);stroke-width:0.01" />
<line x1="0.685155" y1="0.16034" x2="0.593773" y2="0.23816" style="stroke:rgb(246,147,147);stroke-width:0.01" />
<line x1="0.738396" y1="0.260941" x2="0.685486" y2="0.275476" style="stroke:rgb(246,147,147);stroke-width:0.01" />
<line x1="0.709513" y1="0.206366" x2="0.432758" y2="0.442051" style="stroke:rgb(246,147,147);stroke-width:0.01" />
<line x1="0.762755" y1="0.306968" x2="0.647014" y2="0.338762" style="stroke:rgb(246,147,147);stroke-width:0.01" />
<line x1="0.730044" y1="0.245161" x2="0.709157" y2="0.262948" style="stroke:rgb(246,147,147);stroke-width:0.01" />
<line x1="0.738396" y1="0.260941" x2="0.647014" y2="0.338762" style="stroke:rgb(246,147,147);stroke-width:0.01" />
<line x1="0.783285" y1="0.345762" x2="0.432758" y2="0.442051" style="stroke:rgb(246,147,147);stroke-width:0.01" />
<line x1="0.762755" y1="0.306968" x2="0.486" y2="0.542653" style="stroke:rgb(246,147,147);stroke-width:0.01" />
<line x1="0.783285" y1="0.345762" x2="0.781197" y2="0.347541" style="stroke:rgb(246,147,147);stroke-width:0.01" />
<line x1="0.815363" y1="0.452178" x2="0.486" y2="0.542653" style="stroke:rgb(246,147,147);stroke-width:0.01" />
<line x1="0.844878" y1="0.462145" x2="0.74435" y2="0.48976" style="stroke:rgb(246,147,147);stroke-width:0.01" />
<line x1="0.844878" y1="0.462145" x2="0.753497" y2="0.539966" style="stroke:rgb(246,147,147);stroke-width:0.01" />
<line x1="0.869237" y1="0.508172" x2="0.753497" y2="0.539966" style="stroke:rgb(246,147,147);stroke-width:0.01" />
<line x1="0.869237" y1="0.508172" x2="0.592482" y2="0.743857" style="stroke:rgb(246,147,147);stroke-width:0.01" />
<line x1="0.874226" y1="0.666462" x2="0.592482" y2="0.743857" style="stroke:rgb(246,147,147);stroke-width:0.01" />
</g>
</svg>
