<svg xmlns="http://www.w3.org/2000/svg" viewBox="-1.5 -1.5 3 3">
<g transform="scale(1, -1)">
<path d="M-0.012599 -0.221295 L-0.000887 -0.218693 L-0.000887 -0.213206 L-0.003452 -0.213206 L-0.005734 -0.208325 L0.219112 0.216535 L0.187917 0.243101 L0.224102 0.374825 L-0.057643 0.452220 L-0.249574 0.089555 L-0.124277 -0.074802 L-0.085233 -0.108052 L-0.090845 -0.118656 z " fill="rgb(245,195,195)" />
<path d="M-0.650124 -0.291637 L0.349876 -0.291637 L0.349876 0.708363 L-0.650124 0.708363  z" fill="none" stroke="rgb(128,128,128)" stroke-width="0.01" />
<line x1="-0.0125987" y1="-0.221295" x2="0.219112" y2="0.216535" style="stroke:rgb(246,147,147);stroke-width:0.01" />
<line x1="0.0590328" y1="-0.028689" x2="0.139077" y2="0.0653033" style="stroke:rgb(246,147,147);stroke-width:0.01" />
<line x1="-0.0908453" y1="-0.118656" x2="0.103372" y2="0.248328" style="stroke:rgb(246,147,147);stroke-width:0.01" />
<line x1="0.139077" y1="0.0653033" x2="0.224102" y2="0.374825" style="stroke:rgb(246,147,147);stroke-width:0.01" />
<line x1="-0.0187658" y1="-0.213206" x2="0.0942252" y2="0.198123" style="stroke:rgb(246,147,147);stroke-width:0.01" />
<line x1="-0.249574" y1="0.089555" x2="-0.0576426" y2="0.45222" style="stroke:rgb(246,147,147);stroke-width:0.01" />
<line x1="-0.0125987" y1="-0.221295" x2="-0.000886852" y2="-0.218693" style="stroke:rgb(246,147,147);stroke-width:0.01" />
<line x1="-0.20568" y1="0.0319771" x2="-0.20568" y2="0.0993093" style="stroke:rgb(246,147,147);stroke-width:0.01" />
<line x1="-0.051722" y1="-0.169976" x2="-0.051722" y2="-0.109962" style="stroke:rgb(246,147,147);stroke-width:0.01" />
<line x1="-0.000886852" y1="-0.218693" x2="-0.000886852" y2="-0.213206" style="stroke:rgb(246,147,147);stroke-width:0.01" />
<line x1="-0.0908453" y1="-0.118656" x2="-0.051722" y2="-0.109962" style="stroke:rgb(246,147,147);stroke-width:0.01" />
<line x1="-0.0187658" y1="-0.213206" x2="-0.000886852" y2="-0.213206" style="stroke:rgb(246,147,147);stroke-width:0.01" />
<line x1="-0.124277" y1="-0.0748024" x2="-0.20568" y2="0.0993093" style="stroke:rgb(246,147,147);stroke-width:0.01" />
<line x1="-0.000886852" y1="-0.218693" x2="-0.051722" y2="-0.109962" style="stroke:rgb(246,147,147);stroke-width:0.01" />
<line x1="0.00614802" y1="-0.185873" x2="-0.051722" y2="-0.169976" style="stroke:rgb(246,147,147);stroke-width:0.01" />
<line x1="-0.249574" y1="0.089555" x2="-0.20568" y2="0.0993093" style="stroke:rgb(246,147,147);stroke-width:0.01" />
<line x1="0.0350304" y1="-0.131298" x2="0.00593009" y2="-0.123304" style="stroke:rgb(246,147,147);stroke-width:0.01" />
<line x1="-0.0125987" y1="-0.221295" x2="-0.0908453" y2="-0.118656" style="stroke:rgb(246,147,147);stroke-width:0.01" />
<line x1="-0.124277" y1="-0.0748024" x2="-0.249574" y2="0.089555" style="stroke:rgb(246,147,147);stroke-width:0.01" />
<line x1="0.0593891" y1="-0.0852707" x2="-0.0563509" y2="-0.0534772" style="stroke:rgb(246,147,147);stroke-width:0.01" />
<line x1="0.00614802" y1="-0.185873" x2="-0.124277" y2="-0.0748024" style="stroke:rgb(246,147,147);stroke-width:0.01" />
<line x1="0.07992" y1="-0.0464765" x2="-0.20568" y2="0.0319771" style="stroke:rgb(246,147,147);stroke-width:0.01" />
<line x1="0.0350304" y1="-0.131298" x2="-0.0563509" y2="-0.0534772" style="stroke:rgb(246,147,147);stroke-width:0.01" />
<line x1="0.0882715" y1="-0.0306959" x2="0.0353618" y2="-0.0161617" style="stroke:rgb(246,147,147);stroke-width:0.01" />
<line x1="0.0593891" y1="-0.0852707" x2="-0.217366" y2="0.150414" style="stroke:rgb(246,147,147);stroke-width:0.01" />
<line x1="0.11263" y1="0.0153311" x2="-0.00310984" y2="0.0471246" style="stroke:rgb(246,147,147);stroke-width:0.01" />
<line x1="0.07992" y1="-0.0464765" x2="0.0590328" y2="-0.028689" style="stroke:rgb(246,147,147);stroke-width:0.01" />
<line x1="0.0882715" y1="-0.0306959" x2="-0.00310984" y2="0.0471246" style="stroke:rgb(246,147,147);stroke-width:0.01" />
<line x1="0.133161" y1="0.0541253" x2="-0.217366" y2="0.150414" style="stroke:rgb(246,147,147);stroke-width:0.01" />
<line x1="0.11263" y1="0.0153311" x2="-0.164125" y2="0.251016" style="stroke:rgb(246,147,147);stroke-width:0.01" />
<line x1="0.133161" y1="0.0541253" x2="0.131072" y2="0.055904" style="stroke:rgb(246,147,147);stroke-width:0.01" />
<line x1="0.165238" y1="0.160541" x2="-0.164125" y2="0.251016" style="stroke:rgb(246,147,147);stroke-width:0.01" />
<line x1="0.194754" y1="0.170508" x2="0.0942252" y2="0.198123" style="stroke:rgb(246,147,147);stroke-width:0.01" />
<line x1="0.194754" y1="0.170508" x2="0.103372" y2="0.248328" style="stroke:rgb(246,147,147);stroke-width:0.01" />
<line x1="0.219112" y1="0.216535" x2="0.103372" y2="0.248328" style="stroke:rgb(246,147,147);stroke-width:0.01" />
<line x1="0.219112" y1="0.216535" x2="-0.0576426" y2="0.45222" style="stroke:rgb(246,147,147);stroke-width:0.01" />
<line x1="0.224102" y1="0.374825" x2="-0.0576426" y2="0.45222" style="stroke:rgb(246,147,147);stroke-width:0.01" />
</g>
</svg>
