<svg xmlns="http://www.w3.org/2000/svg" viewBox="-1.5 -1.5 3 3">
<g transform="scale(1, -1)">
<path d="M-0.093580 -0.496007 L-0.007570 -0.477968 L0.294238 -0.240608 L0.247073 0.214038 L0.069090 0.214038 L-0.046387 0.316364 L-0.137060 0.214038 L-0.103932 0.140420 L-0.221872 0.115684 z " fill="rgb(245,195,195)" />
<path d="M-1.023778 -0.285962 L-0.023778 -0.285962 L-0.023778 0.714038 L-1.023778 0.714038  z" fill="none" stroke="rgb(128,128,128)" stroke-width="0.01" />
<line x1="-0.00757017" y1="-0.477968" x2="0.294238" y2="-0.240608" style="stroke:rgb(246,147,147);stroke-width:0.01" />
<line x1="0.162033" y1="-0.202347" x2="0.276829" y2="-0.0727961" style="stroke:rgb(246,147,147);stroke-width:0.01" />
<line x1="0.0933178" y1="-0.346276" x2="0.293371" y2="-0.240301" style="stroke:rgb(246,147,147);stroke-width:0.01" />
<line x1="0.14055" y1="-0.127271" x2="0.26509" y2="0.0403603" style="stroke:rgb(246,147,147);stroke-width:0.01" />
<line x1="-0.00757017" y1="-0.477968" x2="0.132849" y2="-0.183282" style="stroke:rgb(246,147,147);stroke-width:0.01" />
<line x1="-0.0935795" y1="-0.496007" x2="-0.00757017" y2="-0.477968" style="stroke:rgb(246,147,147);stroke-width:0.01" />
<line x1="-0.0243171" y1="-0.0365006" x2="-0.0237783" y2="-0.0359618" style="stroke:rgb(246,147,147);stroke-width:0.01" />
<line x1="0.0933178" y1="-0.346276" x2="0.132849" y2="-0.183282" style="stroke:rgb(246,147,147);stroke-width:0.01" />
<line x1="-0.13706" y1="0.214038" x2="-0.0463875" y2="0.316364" style="stroke:rgb(246,147,147);stroke-width:0.01" />
<line x1="-0.170555" y1="-0.128992" x2="0.273008" y2="-0.0359618" style="stroke:rgb(246,147,147);stroke-width:0.01" />
<line x1="-0.0237783" y1="-0.0376979" x2="-0.0237783" y2="-0.0359618" style="stroke:rgb(246,147,147);stroke-width:0.01" />
<line x1="0.215096" y1="-0.0269319" x2="0.271212" y2="-0.0186556" style="stroke:rgb(246,147,147);stroke-width:0.01" />
<line x1="0.294238" y1="-0.240608" x2="0.247073" y2="0.214038" style="stroke:rgb(246,147,147);stroke-width:0.01" />
<line x1="-0.0935795" y1="-0.496007" x2="-0.221872" y2="0.115684" style="stroke:rgb(246,147,147);stroke-width:0.01" />
<line x1="-0.0243171" y1="-0.0365006" x2="0.271212" y2="-0.0186556" style="stroke:rgb(246,147,147);stroke-width:0.01" />
<line x1="-0.221872" y1="0.115684" x2="0.247073" y2="0.214038" style="stroke:rgb(246,147,147);stroke-width:0.01" />
<line x1="-0.0237783" y1="-0.0359618" x2="0.273008" y2="-0.0359618" style="stroke:rgb(246,147,147);stroke-width:0.01" />
<line x1="0.126792" y1="-0.372298" x2="-0.13706" y2="0.214038" style="stroke:rgb(246,147,147);stroke-width:0.01" />
<line x1="0.294238" y1="-0.240608" x2="0.132849" y2="-0.183282" style="stroke:rgb(246,147,147);stroke-width:0.01" />
<line x1="0.293686" y1="-0.241042" x2="0.293371" y2="-0.240301" style="stroke:rgb(246,147,147);stroke-width:0.01" />
<line x1="-0.13706" y1="0.214038" x2="0.247073" y2="0.214038" style="stroke:rgb(246,147,147);stroke-width:0.01" />
<line x1="0.126792" y1="-0.372298" x2="0.0933178" y2="-0.346276" style="stroke:rgb(246,147,147);stroke-width:0.01" />
<line x1="0.162033" y1="-0.202347" x2="-0.0237783" y2="-0.0376979" style="stroke:rgb(246,147,147);stroke-width:0.01" />
<line x1="0.293686" y1="-0.241042" x2="0.14055" y2="-0.127271" style="stroke:rgb(246,147,147);stroke-width:0.01" />
<line x1="0.276829" y1="-0.0727961" x2="0.215096" y2="-0.0269319" style="stroke:rgb(246,147,147);stroke-width:0.01" />
<line x1="0.26509" y1="0.0403603" x2="-0.0463875" y2="0.316364" style="stroke:rgb(246,147,147);stroke-width:0.01" />
</g>
</svg>
