<svg xmlns="http://www.w3.org/2000/svg" viewBox="-1.5 -1.5 3 3">
<g transform="scale(1, -1)">
<path d="M0.472325 0.446030 L0.527444 0.521686 L0.485630 0.806297 L0.582277 1.001051 L0.485630 1.129643 L0.482974 1.127647 L0.402879 1.368718 L0.374495 1.368241 L0.374827 1.348491 L0.370709 1.345522 L0.372622 0.578577 L0.421319 0.481665 z " fill="rgb(245,195,195)" />
<path d="M0.000000 0.000000 L1.000000 0.000000 L1.000000 1.000000 L0.000000 1.000000  z" fill="none" stroke="rgb(128,128,128)" stroke-width="0.01" />
<line x1="0.472325" y1="0.44603" x2="0.527444" y2="0.521686" style="stroke:rgb(246,147,147);stroke-width:0.01" />
<line x1="0.372622" y1="0.578577" x2="0.582277" y2="1.00105" style="stroke:rgb(246,147,147);stroke-width:0.01" />
<line x1="0.421319" y1="0.481665" x2="0.432311" y2="0.851617" style="stroke:rgb(246,147,147);stroke-width:0.01" />
<line x1="0.421421" y1="0.676911" x2="0.423009" y2="1.00026" style="stroke:rgb(246,147,147);stroke-width:0.01" />
<line x1="0.372622" y1="0.578577" x2="0.370709" y2="1.34552" style="stroke:rgb(246,147,147);stroke-width:0.01" />
<line x1="0.418806" y1="0.486667" x2="0.416236" y2="0.746269" style="stroke:rgb(246,147,147);stroke-width:0.01" />
<line x1="0.385936" y1="0.688469" x2="0.374495" y2="1.36824" style="stroke:rgb(246,147,147);stroke-width:0.01" />
<line x1="0.385936" y1="0.688469" x2="0.374212" y2="1.00839" style="stroke:rgb(246,147,147);stroke-width:0.01" />
<line x1="0.372305" y1="0.705815" x2="0.478521" y2="0.854683" style="stroke:rgb(246,147,147);stroke-width:0.01" />
<line x1="0.372152" y1="0.766954" x2="0.432311" y2="0.851617" style="stroke:rgb(246,147,147);stroke-width:0.01" />
<line x1="0.527444" y1="0.521686" x2="0.410589" y2="1.31707" style="stroke:rgb(246,147,147);stroke-width:0.01" />
<line x1="0.372317" y1="0.700835" x2="0.48129" y2="0.835833" style="stroke:rgb(246,147,147);stroke-width:0.01" />
<line x1="0.371924" y1="0.858616" x2="0.460456" y2="0.977642" style="stroke:rgb(246,147,147);stroke-width:0.01" />
<line x1="0.371945" y1="0.849985" x2="0.414214" y2="0.904523" style="stroke:rgb(246,147,147);stroke-width:0.01" />
<line x1="0.37247" y1="0.639357" x2="0.421421" y2="0.676911" style="stroke:rgb(246,147,147);stroke-width:0.01" />
<line x1="0.54799" y1="0.931959" x2="0.402879" y2="1.36872" style="stroke:rgb(246,147,147);stroke-width:0.01" />
<line x1="0.421319" y1="0.481665" x2="0.372622" y2="0.578577" style="stroke:rgb(246,147,147);stroke-width:0.01" />
<line x1="0.370908" y1="1.26587" x2="0.410589" y2="1.31707" style="stroke:rgb(246,147,147);stroke-width:0.01" />
<line x1="0.403216" y1="0.662945" x2="0.372305" y2="0.705815" style="stroke:rgb(246,147,147);stroke-width:0.01" />
<line x1="0.427711" y1="0.689586" x2="0.372152" y2="0.766954" style="stroke:rgb(246,147,147);stroke-width:0.01" />
<line x1="0.371794" y1="0.910731" x2="0.520813" y2="1.01376" style="stroke:rgb(246,147,147);stroke-width:0.01" />
<line x1="0.403216" y1="0.662945" x2="0.372317" y2="0.700835" style="stroke:rgb(246,147,147);stroke-width:0.01" />
<line x1="0.456047" y1="0.746687" x2="0.371924" y2="0.858616" style="stroke:rgb(246,147,147);stroke-width:0.01" />
<line x1="0.371462" y1="1.04384" x2="0.48563" y2="1.12964" style="stroke:rgb(246,147,147);stroke-width:0.01" />
<line x1="0.4548" y1="0.744173" x2="0.371945" y2="0.849985" style="stroke:rgb(246,147,147);stroke-width:0.01" />
<line x1="0.472325" y1="0.44603" x2="0.418806" y2="0.486667" style="stroke:rgb(246,147,147);stroke-width:0.01" />
<line x1="0.472325" y1="0.44603" x2="0.421319" y2="0.481665" style="stroke:rgb(246,147,147);stroke-width:0.01" />
<line x1="0.527444" y1="0.521686" x2="0.37247" y2="0.639357" style="stroke:rgb(246,147,147);stroke-width:0.01" />
<line x1="0.582277" y1="1.00105" x2="0.48563" y2="1.12964" style="stroke:rgb(246,147,147);stroke-width:0.01" />
<line x1="0.580723" y1="0.99792" x2="0.370908" y2="1.26587" style="stroke:rgb(246,147,147);stroke-width:0.01" />
<line x1="0.371891" y1="0.871891" x2="0.54799" y2="0.931959" style="stroke:rgb(246,147,147);stroke-width:0.01" />
<line x1="0.385936" y1="0.688469" x2="0.427711" y2="0.689586" style="stroke:rgb(246,147,147);stroke-width:0.01" />
<line x1="0.370709" y1="1.34552" x2="0.402879" y2="1.36872" style="stroke:rgb(246,147,147);stroke-width:0.01" />
<line x1="0.372206" y1="0.745397" x2="0.416236" y2="0.746269" style="stroke:rgb(246,147,147);stroke-width:0.01" />
<line x1="0.372204" y1="0.746269" x2="0.456047" y2="0.746687" style="stroke:rgb(246,147,147);stroke-width:0.01" />
<line x1="0.372204" y1="0.746269" x2="0.416236" y2="0.746269" style="stroke:rgb(246,147,147);stroke-width:0.01" />
<line x1="0.4548" y1="0.744173" x2="0.372206" y2="0.745397" style="stroke:rgb(246,147,147);stroke-width:0.01" />
<line x1="0.478521" y1="0.854683" x2="0.414214" y2="0.904523" style="stroke:rgb(246,147,147);stroke-width:0.01" />
<line x1="0.48129" y1="0.835833" x2="0.371794" y2="0.910731" style="stroke:rgb(246,147,147);stroke-width:0.01" />
<line x1="0.460456" y1="0.977642" x2="0.371462" y2="1.04384" style="stroke:rgb(246,147,147);stroke-width:0.01" />
<line x1="0.432311" y1="0.851617" x2="0.371891" y2="0.871891" style="stroke:rgb(246,147,147);stroke-width:0.01" />
<line x1="0.374212" y1="1.00839" x2="0.520813" y2="1.01376" style="stroke:rgb(246,147,147);stroke-width:0.01" />
<line x1="0.423009" y1="1.00026" x2="0.582277" y2="1.00105" style="stroke:rgb(246,147,147);stroke-width:0.01" />
<line x1="0.580723" y1="0.99792" x2="0.423009" y2="1.00026" style="stroke:rgb(246,147,147);stroke-width:0.01" />
<line x1="0.410589" y1="1.31707" x2="0.370709" y2="1.34552" style="stroke:rgb(246,147,147);stroke-width:0.01" />
<line x1="0.374495" y1="1.36824" x2="0.402879" y2="1.36872" style="stroke:rgb(246,147,147);stroke-width:0.01" />
</g>
</svg>
