<svg xmlns="http://www.w3.org/2000/svg" viewBox="-1.5 -1.5 3 3">
<g transform="scale(1, -1)">
<path d="M0.026231 -0.514268 L0.081349 -0.438611 L0.039535 -0.154000 L0.136183 0.040753 L0.039535 0.169346 L0.036880 0.167350 L-0.043215 0.408421 L-0.071599 0.407943 L-0.071267 0.388194 L-0.075385 0.385225 L-0.073472 -0.381720 L-0.024775 -0.478632 z " fill="rgb(245,195,195)" />
<path d="M-0.446094 -0.960297 L0.553906 -0.960297 L0.553906 0.039703 L-0.446094 0.039703  z" fill="none" stroke="rgb(128,128,128)" stroke-width="0.01" />
<line x1="0.0262308" y1="-0.514268" x2="0.0813494" y2="-0.438611" style="stroke:rgb(246,147,147);stroke-width:0.01" />
<line x1="-0.0734723" y1="-0.38172" x2="0.136183" y2="0.0407535" style="stroke:rgb(246,147,147);stroke-width:0.01" />
<line x1="-0.0247752" y1="-0.478632" x2="-0.0137836" y2="-0.108681" style="stroke:rgb(246,147,147);stroke-width:0.01" />
<line x1="-0.0246734" y1="-0.283386" x2="-0.0230848" y2="0.0399591" style="stroke:rgb(246,147,147);stroke-width:0.01" />
<line x1="-0.0734723" y1="-0.38172" x2="-0.0753849" y2="0.385225" style="stroke:rgb(246,147,147);stroke-width:0.01" />
<line x1="-0.0272883" y1="-0.473631" x2="-0.0298586" y2="-0.214029" style="stroke:rgb(246,147,147);stroke-width:0.01" />
<line x1="-0.0601586" y1="-0.271829" x2="-0.0715993" y2="0.407943" style="stroke:rgb(246,147,147);stroke-width:0.01" />
<line x1="-0.0601586" y1="-0.271829" x2="-0.0718824" y2="0.0480886" style="stroke:rgb(246,147,147);stroke-width:0.01" />
<line x1="-0.0737896" y1="-0.254482" x2="0.0324265" y2="-0.105614" style="stroke:rgb(246,147,147);stroke-width:0.01" />
<line x1="-0.073942" y1="-0.193343" x2="-0.0137836" y2="-0.108681" style="stroke:rgb(246,147,147);stroke-width:0.01" />
<line x1="0.0813494" y1="-0.438611" x2="-0.0355056" y2="0.356771" style="stroke:rgb(246,147,147);stroke-width:0.01" />
<line x1="-0.0737772" y1="-0.259462" x2="0.0351959" y2="-0.124464" style="stroke:rgb(246,147,147);stroke-width:0.01" />
<line x1="-0.0741706" y1="-0.101682" x2="0.0143618" y2="0.0173447" style="stroke:rgb(246,147,147);stroke-width:0.01" />
<line x1="-0.0741491" y1="-0.110313" x2="-0.0318805" y2="-0.0557744" style="stroke:rgb(246,147,147);stroke-width:0.01" />
<line x1="-0.0736238" y1="-0.32094" x2="-0.0246734" y2="-0.283386" style="stroke:rgb(246,147,147);stroke-width:0.01" />
<line x1="0.101896" y1="-0.0283382" x2="-0.0432149" y2="0.408421" style="stroke:rgb(246,147,147);stroke-width:0.01" />
<line x1="-0.0247752" y1="-0.478632" x2="-0.0734723" y2="-0.38172" style="stroke:rgb(246,147,147);stroke-width:0.01" />
<line x1="-0.0751862" y1="0.305572" x2="-0.0355056" y2="0.356771" style="stroke:rgb(246,147,147);stroke-width:0.01" />
<line x1="-0.042878" y1="-0.297353" x2="-0.0737896" y2="-0.254482" style="stroke:rgb(246,147,147);stroke-width:0.01" />
<line x1="-0.0183837" y1="-0.270712" x2="-0.073942" y2="-0.193343" style="stroke:rgb(246,147,147);stroke-width:0.01" />
<line x1="-0.0743006" y1="-0.0495661" x2="0.0747184" y2="0.053461" style="stroke:rgb(246,147,147);stroke-width:0.01" />
<line x1="-0.042878" y1="-0.297353" x2="-0.0737772" y2="-0.259462" style="stroke:rgb(246,147,147);stroke-width:0.01" />
<line x1="0.00995312" y1="-0.213611" x2="-0.0741706" y2="-0.101682" style="stroke:rgb(246,147,147);stroke-width:0.01" />
<line x1="-0.0746325" y1="0.0835392" x2="0.0395354" y2="0.169346" style="stroke:rgb(246,147,147);stroke-width:0.01" />
<line x1="0.00870566" y1="-0.216124" x2="-0.0741491" y2="-0.110313" style="stroke:rgb(246,147,147);stroke-width:0.01" />
<line x1="0.0262308" y1="-0.514268" x2="-0.0272883" y2="-0.473631" style="stroke:rgb(246,147,147);stroke-width:0.01" />
<line x1="0.0262308" y1="-0.514268" x2="-0.0247752" y2="-0.478632" style="stroke:rgb(246,147,147);stroke-width:0.01" />
<line x1="0.0813494" y1="-0.438611" x2="-0.0736238" y2="-0.32094" style="stroke:rgb(246,147,147);stroke-width:0.01" />
<line x1="0.136183" y1="0.0407535" x2="0.0395354" y2="0.169346" style="stroke:rgb(246,147,147);stroke-width:0.01" />
<line x1="0.134629" y1="0.0376226" x2="-0.0751862" y2="0.305572" style="stroke:rgb(246,147,147);stroke-width:0.01" />
<line x1="-0.0742037" y1="-0.0884069" x2="0.101896" y2="-0.0283382" style="stroke:rgb(246,147,147);stroke-width:0.01" />
<line x1="-0.0601586" y1="-0.271829" x2="-0.0183837" y2="-0.270712" style="stroke:rgb(246,147,147);stroke-width:0.01" />
<line x1="-0.0753849" y1="0.385225" x2="-0.0432149" y2="0.408421" style="stroke:rgb(246,147,147);stroke-width:0.01" />
<line x1="-0.0738883" y1="-0.214901" x2="-0.0298586" y2="-0.214029" style="stroke:rgb(246,147,147);stroke-width:0.01" />
<line x1="-0.0738905" y1="-0.214029" x2="0.00995312" y2="-0.213611" style="stroke:rgb(246,147,147);stroke-width:0.01" />
<line x1="-0.0738905" y1="-0.214029" x2="-0.0298586" y2="-0.214029" style="stroke:rgb(246,147,147);stroke-width:0.01" />
<line x1="0.00870566" y1="-0.216124" x2="-0.0738883" y2="-0.214901" style="stroke:rgb(246,147,147);stroke-width:0.01" />
<line x1="0.0324265" y1="-0.105614" x2="-0.0318805" y2="-0.0557744" style="stroke:rgb(246,147,147);stroke-width:0.01" />
<line x1="0.0351959" y1="-0.124464" x2="-0.0743006" y2="-0.0495661" style="stroke:rgb(246,147,147);stroke-width:0.01" />
<line x1="0.0143618" y1="0.0173447" x2="-0.0746325" y2="0.0835392" style="stroke:rgb(246,147,147);stroke-width:0.01" />
<line x1="-0.0137836" y1="-0.108681" x2="-0.0742037" y2="-0.0884069" style="stroke:rgb(246,147,147);stroke-width:0.01" />
<line x1="-0.0718824" y1="0.0480886" x2="0.0747184" y2="0.053461" style="stroke:rgb(246,147,147);stroke-width:0.01" />
<line x1="-0.0230848" y1="0.0399591" x2="0.136183" y2="0.0407535" style="stroke:rgb(246,147,147);stroke-width:0.01" />
<line x1="0.134629" y1="0.0376226" x2="-0.0230848" y2="0.0399591" style="stroke:rgb(246,147,147);stroke-width:0.01" />
<line x1="-0.0355056" y1="0.356771" x2="-0.0753849" y2="0.385225" style="stroke:rgb(246,147,147);stroke-width:0.01" />
<line x1="-0.0715993" y1="0.407943" x2="-0.0432149" y2="0.408421" style="stroke:rgb(246,147,147);stroke-width:0.01" />
</g>
</svg>
