<svg xmlns="http://www.w3.org/2000/svg" viewBox="-1.5 -1.5 3 3">
<g transform="scale(1, -1)">
<path d="M0.000000 -0.500001 L0.500000 -0.500001 L1.000000 -0.000001 L0.750000 -0.000001 L0.600000 0.199999 L0.571429 -0.000001 L0.000000 -0.000001 z " fill="rgb(245,195,195)" />
<path d="M0.000000 0.000000 L1.000000 0.000000 L1.000000 1.000000 L0.000000 1.000000  z" fill="none" stroke="rgb(128,128,128)" stroke-width="0.01" />
<line x1="0" y1="-0.500001" x2="0.5" y2="-0.500001" style="stroke:rgb(246,147,147);stroke-width:0.01" />
<line x1="0.5" y1="-0.500001" x2="1" y2="-1.0101e-06" style="stroke:rgb(246,147,147);stroke-width:0.01" />
<line x1="0.5" y1="-0.500001" x2="0.75" y2="-1.0101e-06" style="stroke:rgb(246,147,147);stroke-width:0.01" />
<line x1="0.5" y1="-0.500001" x2="0.6" y2="0.199999" style="stroke:rgb(246,147,147);stroke-width:0.01" />
<line x1="0" y1="-1.0101e-06" x2="1" y2="-1.0101e-06" style="stroke:rgb(246,147,147);stroke-width:0.01" />
<line x1="0" y1="-0.500001" x2="0" y2="-1.0101e-06" style="stroke:rgb(246,147,147);stroke-width:0.01" />
<line x1="0.5" y1="-0.500001" x2="0.5" y2="-1.0101e-06" style="stroke:rgb(246,147,147);stroke-width:0.01" />
<line x1="0.75" y1="-1.0101e-06" x2="0.6" y2="0.199999" style="stroke:rgb(246,147,147);stroke-width:0.01" />
</g>
</svg>
