<svg xmlns="http://www.w3.org/2000/svg" viewBox="-1.5 -1.5 3 3">
<g transform="scale(1, -1)">
<path d="M0.053499 -0.198187 L0.101300 -0.174643 L0.318407 -0.172914 L0.386828 -0.034004 L0.218679 0.134146 L-0.278833 0.136621 L-0.278858 0.134121 L-0.278783 0.134120 L-0.102199 0.045389 L-0.140039 -0.004649 z " fill="rgb(245,195,195)" />
<path d="M0.218679 -0.363367 L1.218679 -0.363367 L1.218679 0.636633 L0.218679 0.636633  z" fill="none" stroke="rgb(128,128,128)" stroke-width="0.01" />
<line x1="0.318407" y1="-0.172914" x2="0.386828" y2="-0.0340036" style="stroke:rgb(246,147,147);stroke-width:0.01" />
<line x1="-0.278833" y1="0.134146" x2="-0.278833" y2="0.136621" style="stroke:rgb(246,147,147);stroke-width:0.01" />
<line x1="0.118781" y1="-0.0656507" x2="0.0514605" y2="0.134977" style="stroke:rgb(246,147,147);stroke-width:0.01" />
<line x1="0.0534992" y1="-0.198187" x2="-0.140039" y2="-0.00464854" style="stroke:rgb(246,147,147);stroke-width:0.01" />
<line x1="0.0305182" y1="-0.175206" x2="0.0321471" y2="0.0294271" style="stroke:rgb(246,147,147);stroke-width:0.01" />
<line x1="0.0255822" y1="-0.17027" x2="0.0271721" y2="0.0294668" style="stroke:rgb(246,147,147);stroke-width:0.01" />
<line x1="-0.278858" y1="0.134121" x2="-0.278833" y2="0.136621" style="stroke:rgb(246,147,147);stroke-width:0.01" />
<line x1="0.0727605" y1="-0.0088977" x2="-0.034126" y2="0.135403" style="stroke:rgb(246,147,147);stroke-width:0.01" />
<line x1="0.0763473" y1="-0.00538155" x2="-0.0279118" y2="0.135372" style="stroke:rgb(246,147,147);stroke-width:0.01" />
<line x1="0.0534992" y1="-0.198187" x2="0.118781" y2="-0.0656507" style="stroke:rgb(246,147,147);stroke-width:0.01" />
<line x1="0.0500291" y1="0.130848" x2="0.0514605" y2="0.134977" style="stroke:rgb(246,147,147);stroke-width:0.01" />
<line x1="0.318407" y1="-0.172914" x2="0.0856942" y2="0.134807" style="stroke:rgb(246,147,147);stroke-width:0.01" />
<line x1="0.320867" y1="-0.167919" x2="0.0919554" y2="0.134776" style="stroke:rgb(246,147,147);stroke-width:0.01" />
<line x1="0.0727605" y1="-0.0088977" x2="0.0113522" y2="0.0385097" style="stroke:rgb(246,147,147);stroke-width:0.01" />
<line x1="0.0763473" y1="-0.00538155" x2="0.0183306" y2="0.0394076" style="stroke:rgb(246,147,147);stroke-width:0.01" />
<line x1="0.0305182" y1="-0.175206" x2="0.318407" y2="-0.172914" style="stroke:rgb(246,147,147);stroke-width:0.01" />
<line x1="0.172026" y1="0.0884119" x2="0.127464" y2="0.134599" style="stroke:rgb(246,147,147);stroke-width:0.01" />
<line x1="0.0255822" y1="-0.17027" x2="0.320867" y2="-0.167919" style="stroke:rgb(246,147,147);stroke-width:0.01" />
<line x1="0.118781" y1="-0.0656507" x2="-0.278833" y2="0.134146" style="stroke:rgb(246,147,147);stroke-width:0.01" />
<line x1="0.0534992" y1="-0.198187" x2="0.386828" y2="-0.0340036" style="stroke:rgb(246,147,147);stroke-width:0.01" />
<line x1="0.172026" y1="0.0884119" x2="0.126015" y2="0.134607" style="stroke:rgb(246,147,147);stroke-width:0.01" />
<line x1="0.0500291" y1="0.130848" x2="0.0446365" y2="0.135011" style="stroke:rgb(246,147,147);stroke-width:0.01" />
<line x1="0.0183306" y1="0.0394076" x2="0.0919554" y2="0.134776" style="stroke:rgb(246,147,147);stroke-width:0.01" />
<line x1="0.386828" y1="-0.0340036" x2="0.218679" y2="0.134146" style="stroke:rgb(246,147,147);stroke-width:0.01" />
<line x1="0.0113522" y1="0.0385097" x2="0.0856942" y2="0.134807" style="stroke:rgb(246,147,147);stroke-width:0.01" />
<line x1="0.0727605" y1="-0.0088977" x2="0.218679" y2="0.134146" style="stroke:rgb(246,147,147);stroke-width:0.01" />
<line x1="-0.0742926" y1="-0.0703953" x2="0.127464" y2="0.134599" style="stroke:rgb(246,147,147);stroke-width:0.01" />
<line x1="-0.0782529" y1="-0.0664349" x2="0.0688812" y2="0.0830604" style="stroke:rgb(246,147,147);stroke-width:0.01" />
<line x1="-0.0742926" y1="-0.0703953" x2="0.0271721" y2="0.0294668" style="stroke:rgb(246,147,147);stroke-width:0.01" />
<line x1="-0.0782529" y1="-0.0664349" x2="0.126015" y2="0.134607" style="stroke:rgb(246,147,147);stroke-width:0.01" />
<line x1="-0.136488" y1="-0.00820021" x2="-0.0279118" y2="0.135372" style="stroke:rgb(246,147,147);stroke-width:0.01" />
<line x1="-0.140039" y1="-0.00464854" x2="-0.034126" y2="0.135403" style="stroke:rgb(246,147,147);stroke-width:0.01" />
<line x1="0.0321471" y1="0.0294271" x2="0.0271721" y2="0.0294668" style="stroke:rgb(246,147,147);stroke-width:0.01" />
<line x1="-0.136488" y1="-0.00820021" x2="0.0517396" y2="0.134146" style="stroke:rgb(246,147,147);stroke-width:0.01" />
<line x1="-0.140039" y1="-0.00464854" x2="0.0446365" y2="0.135011" style="stroke:rgb(246,147,147);stroke-width:0.01" />
<line x1="0.0688812" y1="0.0830604" x2="-0.278833" y2="0.134146" style="stroke:rgb(246,147,147);stroke-width:0.01" />
<line x1="0.0500291" y1="0.130848" x2="-0.278858" y2="0.134121" style="stroke:rgb(246,147,147);stroke-width:0.01" />
<line x1="0.218679" y1="0.134146" x2="-0.278833" y2="0.136621" style="stroke:rgb(246,147,147);stroke-width:0.01" />
<line x1="-0.278833" y1="0.134146" x2="0.0517396" y2="0.134146" style="stroke:rgb(246,147,147);stroke-width:0.01" />
</g>
</svg>
