<svg xmlns="http://www.w3.org/2000/svg" viewBox="-1.5 -1.5 3 3">
<g transform="scale(1, -1)">
<path d="M0.109311 -0.421725 L0.114712 -0.421725 L0.114712 0.238769 L0.080761 0.272719 L-0.051955 0.272719 L-0.085905 0.238769 L-0.080504 0.233368 L-0.310442 0.003429 L0.109311 -0.416324 z " fill="rgb(245,195,195)" />
<path d="M0.614712 -2.525120 L1.614712 -2.525120 L1.614712 -1.525120 L0.614712 -1.525120  z" fill="none" stroke="rgb(128,128,128)" stroke-width="0.01" />
<line x1="-0.274177" y1="-0.0328361" x2="-0.274177" y2="0.0396948" style="stroke:rgb(246,147,147);stroke-width:0.01" />
<line x1="-0.190844" y1="-0.116169" x2="-0.190844" y2="0.123028" style="stroke:rgb(246,147,147);stroke-width:0.01" />
<line x1="-0.115226" y1="-0.191787" x2="-0.115226" y2="0.078275" style="stroke:rgb(246,147,147);stroke-width:0.01" />
<line x1="-0.0133745" y1="0.078275" x2="-0.0133745" y2="0.272719" style="stroke:rgb(246,147,147);stroke-width:0.01" />
<line x1="0.0529835" y1="0.233368" x2="0.0529835" y2="0.272719" style="stroke:rgb(246,147,147);stroke-width:0.01" />
<line x1="0.0807613" y1="-0.387774" x2="0.0807613" y2="0.272719" style="stroke:rgb(246,147,147);stroke-width:0.01" />
<line x1="0.106996" y1="-0.414009" x2="0.106996" y2="0.246485" style="stroke:rgb(246,147,147);stroke-width:0.01" />
<line x1="0.109311" y1="-0.421725" x2="0.109311" y2="0.233368" style="stroke:rgb(246,147,147);stroke-width:0.01" />
<line x1="0.114712" y1="-0.421725" x2="0.114712" y2="0.238769" style="stroke:rgb(246,147,147);stroke-width:0.01" />
<line x1="0.114712" y1="-0.421725" x2="-0.310442" y2="0.00342936" style="stroke:rgb(246,147,147);stroke-width:0.01" />
<line x1="-0.0805041" y1="0.233368" x2="-0.0859053" y2="0.238769" style="stroke:rgb(246,147,147);stroke-width:0.01" />
<line x1="-0.0257202" y1="0.246485" x2="-0.0519547" y2="0.272719" style="stroke:rgb(246,147,147);stroke-width:0.01" />
<line x1="0.0198045" y1="0.211763" x2="-0.0411523" y2="0.272719" style="stroke:rgb(246,147,147);stroke-width:0.01" />
<line x1="0.0398663" y1="0.233368" x2="0.000514403" y2="0.272719" style="stroke:rgb(246,147,147);stroke-width:0.01" />
<line x1="0.0799897" y1="0.271948" x2="0.0792181" y2="0.272719" style="stroke:rgb(246,147,147);stroke-width:0.01" />
<line x1="0.114712" y1="0.238769" x2="0.0807613" y2="0.272719" style="stroke:rgb(246,147,147);stroke-width:0.01" />
<line x1="0.109311" y1="0.233368" x2="0.114712" y2="0.238769" style="stroke:rgb(246,147,147);stroke-width:0.01" />
<line x1="0.0198045" y1="0.211763" x2="0.0807613" y2="0.272719" style="stroke:rgb(246,147,147);stroke-width:0.01" />
<line x1="-0.115226" y1="0.078275" x2="0.0792181" y2="0.272719" style="stroke:rgb(246,147,147);stroke-width:0.01" />
<line x1="-0.0257202" y1="0.246485" x2="0.000514403" y2="0.272719" style="stroke:rgb(246,147,147);stroke-width:0.01" />
<line x1="-0.310442" y1="0.00342936" x2="-0.0411523" y2="0.272719" style="stroke:rgb(246,147,147);stroke-width:0.01" />
<line x1="-0.0859053" y1="0.238769" x2="-0.0519547" y2="0.272719" style="stroke:rgb(246,147,147);stroke-width:0.01" />
<line x1="0.109311" y1="-0.421725" x2="0.114712" y2="-0.421725" style="stroke:rgb(246,147,147);stroke-width:0.01" />
<line x1="0.106996" y1="-0.414009" x2="0.114712" y2="-0.414009" style="stroke:rgb(246,147,147);stroke-width:0.01" />
<line x1="0.0807613" y1="-0.387774" x2="0.114712" y2="-0.387774" style="stroke:rgb(246,147,147);stroke-width:0.01" />
<line x1="-0.115226" y1="-0.191787" x2="0.114712" y2="-0.191787" style="stroke:rgb(246,147,147);stroke-width:0.01" />
<line x1="-0.190844" y1="-0.116169" x2="0.114712" y2="-0.116169" style="stroke:rgb(246,147,147);stroke-width:0.01" />
<line x1="-0.274177" y1="-0.0328361" x2="0.114712" y2="-0.0328361" style="stroke:rgb(246,147,147);stroke-width:0.01" />
<line x1="-0.274177" y1="0.0396948" x2="0.114712" y2="0.0396948" style="stroke:rgb(246,147,147);stroke-width:0.01" />
<line x1="-0.115226" y1="0.078275" x2="0.114712" y2="0.078275" style="stroke:rgb(246,147,147);stroke-width:0.01" />
<line x1="-0.190844" y1="0.123028" x2="0.114712" y2="0.123028" style="stroke:rgb(246,147,147);stroke-width:0.01" />
<line x1="-0.0805041" y1="0.233368" x2="0.114712" y2="0.233368" style="stroke:rgb(246,147,147);stroke-width:0.01" />
<line x1="-0.0133745" y1="0.244942" x2="0.0529835" y2="0.244942" style="stroke:rgb(246,147,147);stroke-width:0.01" />
<line x1="-0.0257202" y1="0.246485" x2="0.106996" y2="0.246485" style="stroke:rgb(246,147,147);stroke-width:0.01" />
<line x1="-0.0519547" y1="0.272719" x2="0.0807613" y2="0.272719" style="stroke:rgb(246,147,147);stroke-width:0.01" />
</g>
</svg>
