<svg xmlns="http://www.w3.org/2000/svg" viewBox="-1.5 -1.5 3 3">
<g transform="scale(1, -1)">
<path d="M-62366662377113.820312 -62366662377113.781250 L-62366662377113.343750 -62366662377113.781250 L-62366662377113.296875 -62366662377113.734375 L-62366662377113.296875 -62366662377113.257812 L-62366662377113.343750 -62366662377113.257812 L-62366662377113.343750 -62366662377113.734375 L-62366662377113.820312 -62366662377113.734375 z " fill="rgb(245,195,195)" />
<path d="M0.000000 0.000000 L1.000000 0.000000 L1.000000 1.000000 L0.000000 1.000000  z" fill="none" stroke="rgb(128,128,128)" stroke-width="0.01" />
<line x1="-6.23667e+13" y1="-6.23667e+13" x2="-6.23667e+13" y2="-6.23667e+13" style="stroke:rgb(246,147,147);stroke-width:0.01" />
<line x1="-6.23667e+13" y1="-6.23667e+13" x2="-6.23667e+13" y2="-6.23667e+13" style="stroke:rgb(246,147,147);stroke-width:0.01" />
<line x1="-6.23667e+13" y1="-6.23667e+13" x2="-6.23667e+13" y2="-6.23667e+13" style="stroke:rgb(246,147,147);stroke-width:0.01" />
<line x1="-6.23667e+13" y1="-6.23667e+13" x2="-6.23667e+13" y2="-6.23667e+13" style="stroke:rgb(246,147,147);stroke-width:0.01" />
<line x1="-6.23667e+13" y1="-6.23667e+13" x2="-6.23667e+13" y2="-6.23667e+13" style="stroke:rgb(246,147,147);stroke-width:0.01" />
<line x1="-6.23667e+13" y1="-6.23667e+13" x2="-6.23667e+13" y2="-6.23667e+13" style="stroke:rgb(246,147,147);stroke-width:0.01" />
<line x1="-6.23667e+13" y1="-6.23667e+13" x2="-6.23667e+13" y2="-6.23667e+13" style="stroke:rgb(246,147,147);stroke-width:0.01" />
</g>
</svg>
