<svg xmlns="http://www.w3.org/2000/svg" viewBox="-1.5 -1.5 3 3">
<g transform="scale(1, -1)">
<path d="M0.215509 -0.501466 L0.298071 -0.418904 L0.298071 0.277083 L-0.285262 0.277083 L-0.313040 0.249306 L-0.257485 0.249306 L-0.229707 0.221528 L-0.118596 0.221528 L0.196219 -0.093287 L0.196219 -0.482176 z " fill="rgb(245,195,195)" />
<path d="M1.169985 -1.641127 L2.169985 -1.641127 L2.169985 -0.641127 L1.169985 -0.641127  z" fill="none" stroke="rgb(128,128,128)" stroke-width="0.01" />
<line x1="0.196219" y1="-0.482176" x2="0.196219" y2="0.277083" style="stroke:rgb(246,147,147);stroke-width:0.01" />
<line x1="0.205478" y1="0.110417" x2="0.205478" y2="0.138194" style="stroke:rgb(246,147,147);stroke-width:0.01" />
<line x1="0.223997" y1="0.221528" x2="0.223997" y2="0.277083" style="stroke:rgb(246,147,147);stroke-width:0.01" />
<line x1="0.233256" y1="0.138194" x2="0.233256" y2="0.249306" style="stroke:rgb(246,147,147);stroke-width:0.01" />
<line x1="0.242515" y1="-0.43588" x2="0.242515" y2="0.277083" style="stroke:rgb(246,147,147);stroke-width:0.01" />
<line x1="0.298071" y1="-0.418904" x2="0.298071" y2="0.277083" style="stroke:rgb(246,147,147);stroke-width:0.01" />
<line x1="0.215509" y1="-0.501466" x2="0.196219" y2="-0.482176" style="stroke:rgb(246,147,147);stroke-width:0.01" />
<line x1="0.242515" y1="-0.43588" x2="0.196219" y2="-0.389583" style="stroke:rgb(246,147,147);stroke-width:0.01" />
<line x1="0.242515" y1="-0.343287" x2="0.196219" y2="-0.296991" style="stroke:rgb(246,147,147);stroke-width:0.01" />
<line x1="-0.229707" y1="0.221528" x2="-0.285262" y2="0.277083" style="stroke:rgb(246,147,147);stroke-width:0.01" />
<line x1="0.298071" y1="-0.195139" x2="-0.174151" y2="0.277083" style="stroke:rgb(246,147,147);stroke-width:0.01" />
<line x1="0.242515" y1="0.147454" x2="0.196219" y2="0.19375" style="stroke:rgb(246,147,147);stroke-width:0.01" />
<line x1="0.298071" y1="0.110417" x2="0.196219" y2="0.212269" style="stroke:rgb(246,147,147);stroke-width:0.01" />
<line x1="0.242515" y1="0.175231" x2="0.196219" y2="0.221528" style="stroke:rgb(246,147,147);stroke-width:0.01" />
<line x1="0.223997" y1="0.221528" x2="0.196219" y2="0.249306" style="stroke:rgb(246,147,147);stroke-width:0.01" />
<line x1="0.223997" y1="0.249306" x2="0.196219" y2="0.277083" style="stroke:rgb(246,147,147);stroke-width:0.01" />
<line x1="0.242515" y1="0.258565" x2="0.223997" y2="0.277083" style="stroke:rgb(246,147,147);stroke-width:0.01" />
<line x1="0.215509" y1="-0.501466" x2="0.298071" y2="-0.418904" style="stroke:rgb(246,147,147);stroke-width:0.01" />
<line x1="0.196219" y1="-0.482176" x2="0.259491" y2="-0.418904" style="stroke:rgb(246,147,147);stroke-width:0.01" />
<line x1="0.196219" y1="-0.389583" x2="0.242515" y2="-0.343287" style="stroke:rgb(246,147,147);stroke-width:0.01" />
<line x1="0.196219" y1="-0.296991" x2="0.298071" y2="-0.195139" style="stroke:rgb(246,147,147);stroke-width:0.01" />
<line x1="0.196219" y1="-0.418904" x2="0.298071" y2="-0.418904" style="stroke:rgb(246,147,147);stroke-width:0.01" />
<line x1="0.205478" y1="0.110417" x2="0.242515" y2="0.147454" style="stroke:rgb(246,147,147);stroke-width:0.01" />
<line x1="0.205478" y1="0.138194" x2="0.242515" y2="0.175231" style="stroke:rgb(246,147,147);stroke-width:0.01" />
<line x1="0.196219" y1="0.19375" x2="0.223997" y2="0.221528" style="stroke:rgb(246,147,147);stroke-width:0.01" />
<line x1="0.196219" y1="0.212269" x2="0.242515" y2="0.258565" style="stroke:rgb(246,147,147);stroke-width:0.01" />
<line x1="0.196219" y1="0.221528" x2="0.223997" y2="0.249306" style="stroke:rgb(246,147,147);stroke-width:0.01" />
<line x1="0.196219" y1="0.249306" x2="0.223997" y2="0.277083" style="stroke:rgb(246,147,147);stroke-width:0.01" />
<line x1="-0.229707" y1="0.221528" x2="-0.174151" y2="0.277083" style="stroke:rgb(246,147,147);stroke-width:0.01" />
<line x1="-0.31304" y1="0.249306" x2="-0.285262" y2="0.277083" style="stroke:rgb(246,147,147);stroke-width:0.01" />
<line x1="0.196219" y1="0.110417" x2="0.298071" y2="0.110417" style="stroke:rgb(246,147,147);stroke-width:0.01" />
<line x1="0.205478" y1="0.138194" x2="0.233256" y2="0.138194" style="stroke:rgb(246,147,147);stroke-width:0.01" />
<line x1="-0.229707" y1="0.221528" x2="0.298071" y2="0.221528" style="stroke:rgb(246,147,147);stroke-width:0.01" />
<line x1="-0.31304" y1="0.249306" x2="0.298071" y2="0.249306" style="stroke:rgb(246,147,147);stroke-width:0.01" />
<line x1="-0.285262" y1="0.277083" x2="0.298071" y2="0.277083" style="stroke:rgb(246,147,147);stroke-width:0.01" />
</g>
</svg>
