<svg xmlns="http://www.w3.org/2000/svg" viewBox="-1.5 -1.5 3 3">
<g transform="scale(1, -1)">
<path d="M-0.954475 1.139660 L-0.871914 1.222222 L-0.871914 1.918210 L-1.455247 1.918210 L-1.483025 1.890432 L-1.427469 1.890432 L-1.399691 1.862654 L-1.288580 1.862654 L-0.973765 1.547840 L-0.973765 1.158951 z " fill="rgb(245,195,195)" />
<path d="M0.000000 0.000000 L1.000000 0.000000 L1.000000 1.000000 L0.000000 1.000000  z" fill="none" stroke="rgb(128,128,128)" stroke-width="0.01" />
<line x1="-0.973765" y1="1.15895" x2="-0.973765" y2="1.91821" style="stroke:rgb(246,147,147);stroke-width:0.01" />
<line x1="-0.964506" y1="1.75154" x2="-0.964506" y2="1.77932" style="stroke:rgb(246,147,147);stroke-width:0.01" />
<line x1="-0.945988" y1="1.86265" x2="-0.945988" y2="1.91821" style="stroke:rgb(246,147,147);stroke-width:0.01" />
<line x1="-0.936728" y1="1.77932" x2="-0.936728" y2="1.89043" style="stroke:rgb(246,147,147);stroke-width:0.01" />
<line x1="-0.927469" y1="1.20525" x2="-0.927469" y2="1.91821" style="stroke:rgb(246,147,147);stroke-width:0.01" />
<line x1="-0.871914" y1="1.22222" x2="-0.871914" y2="1.91821" style="stroke:rgb(246,147,147);stroke-width:0.01" />
<line x1="-0.954475" y1="1.13966" x2="-0.973765" y2="1.15895" style="stroke:rgb(246,147,147);stroke-width:0.01" />
<line x1="-0.927469" y1="1.20525" x2="-0.973765" y2="1.25154" style="stroke:rgb(246,147,147);stroke-width:0.01" />
<line x1="-0.927469" y1="1.29784" x2="-0.973765" y2="1.34414" style="stroke:rgb(246,147,147);stroke-width:0.01" />
<line x1="-1.39969" y1="1.86265" x2="-1.45525" y2="1.91821" style="stroke:rgb(246,147,147);stroke-width:0.01" />
<line x1="-0.871914" y1="1.44599" x2="-1.34414" y2="1.91821" style="stroke:rgb(246,147,147);stroke-width:0.01" />
<line x1="-0.927469" y1="1.78858" x2="-0.973765" y2="1.83488" style="stroke:rgb(246,147,147);stroke-width:0.01" />
<line x1="-0.871914" y1="1.75154" x2="-0.973765" y2="1.8534" style="stroke:rgb(246,147,147);stroke-width:0.01" />
<line x1="-0.927469" y1="1.81636" x2="-0.973765" y2="1.86265" style="stroke:rgb(246,147,147);stroke-width:0.01" />
<line x1="-0.945988" y1="1.86265" x2="-0.973765" y2="1.89043" style="stroke:rgb(246,147,147);stroke-width:0.01" />
<line x1="-0.945988" y1="1.89043" x2="-0.973765" y2="1.91821" style="stroke:rgb(246,147,147);stroke-width:0.01" />
<line x1="-0.927469" y1="1.89969" x2="-0.945988" y2="1.91821" style="stroke:rgb(246,147,147);stroke-width:0.01" />
<line x1="-0.954475" y1="1.13966" x2="-0.871914" y2="1.22222" style="stroke:rgb(246,147,147);stroke-width:0.01" />
<line x1="-0.973765" y1="1.15895" x2="-0.910494" y2="1.22222" style="stroke:rgb(246,147,147);stroke-width:0.01" />
<line x1="-0.973765" y1="1.25154" x2="-0.927469" y2="1.29784" style="stroke:rgb(246,147,147);stroke-width:0.01" />
<line x1="-0.973765" y1="1.34414" x2="-0.871914" y2="1.44599" style="stroke:rgb(246,147,147);stroke-width:0.01" />
<line x1="-0.973765" y1="1.22222" x2="-0.871914" y2="1.22222" style="stroke:rgb(246,147,147);stroke-width:0.01" />
<line x1="-0.964506" y1="1.75154" x2="-0.927469" y2="1.78858" style="stroke:rgb(246,147,147);stroke-width:0.01" />
<line x1="-0.964506" y1="1.77932" x2="-0.927469" y2="1.81636" style="stroke:rgb(246,147,147);stroke-width:0.01" />
<line x1="-0.973765" y1="1.83488" x2="-0.945988" y2="1.86265" style="stroke:rgb(246,147,147);stroke-width:0.01" />
<line x1="-0.973765" y1="1.8534" x2="-0.927469" y2="1.89969" style="stroke:rgb(246,147,147);stroke-width:0.01" />
<line x1="-0.973765" y1="1.86265" x2="-0.945988" y2="1.89043" style="stroke:rgb(246,147,147);stroke-width:0.01" />
<line x1="-0.973765" y1="1.89043" x2="-0.945988" y2="1.91821" style="stroke:rgb(246,147,147);stroke-width:0.01" />
<line x1="-1.39969" y1="1.86265" x2="-1.34414" y2="1.91821" style="stroke:rgb(246,147,147);stroke-width:0.01" />
<line x1="-1.48302" y1="1.89043" x2="-1.45525" y2="1.91821" style="stroke:rgb(246,147,147);stroke-width:0.01" />
<line x1="-0.973765" y1="1.75154" x2="-0.871914" y2="1.75154" style="stroke:rgb(246,147,147);stroke-width:0.01" />
<line x1="-0.964506" y1="1.77932" x2="-0.936728" y2="1.77932" style="stroke:rgb(246,147,147);stroke-width:0.01" />
<line x1="-1.39969" y1="1.86265" x2="-0.871914" y2="1.86265" style="stroke:rgb(246,147,147);stroke-width:0.01" />
<line x1="-1.48302" y1="1.89043" x2="-0.871914" y2="1.89043" style="stroke:rgb(246,147,147);stroke-width:0.01" />
<line x1="-1.45525" y1="1.91821" x2="-0.871914" y2="1.91821" style="stroke:rgb(246,147,147);stroke-width:0.01" />
</g>
</svg>
