<svg xmlns="http://www.w3.org/2000/svg" viewBox="-1.5 -1.5 3 3">
<g transform="scale(1, -1)">
<path d="M-0.071759 -0.104745 L0.187500 -0.104745 L0.187500 0.041088 L0.048611 0.041088 L-0.071759 0.161458 L-0.104167 0.161458 L-0.104167 -0.097801 L-0.071759 -0.097801 z " fill="rgb(245,195,195)" />
<path d="M0.562500 -1.991319 L1.562500 -1.991319 L1.562500 -0.991319 L0.562500 -0.991319  z" fill="none" stroke="rgb(128,128,128)" stroke-width="0.01" />
<line x1="-0.104167" y1="-0.0978009" x2="-0.104167" y2="0.161458" style="stroke:rgb(246,147,147);stroke-width:0.01" />
<line x1="-0.0717593" y1="-0.104745" x2="-0.0717593" y2="0.161458" style="stroke:rgb(246,147,147);stroke-width:0.01" />
<line x1="-0.025463" y1="-0.104745" x2="-0.025463" y2="0.115162" style="stroke:rgb(246,147,147);stroke-width:0.01" />
<line x1="0.0486111" y1="-0.104745" x2="0.0486111" y2="0.041088" style="stroke:rgb(246,147,147);stroke-width:0.01" />
<line x1="0.0625" y1="-0.0978009" x2="0.0625" y2="0.0271991" style="stroke:rgb(246,147,147);stroke-width:0.01" />
<line x1="0.118056" y1="-0.0978009" x2="0.118056" y2="-0.0283565" style="stroke:rgb(246,147,147);stroke-width:0.01" />
<line x1="0.159722" y1="-0.104745" x2="0.159722" y2="0.041088" style="stroke:rgb(246,147,147);stroke-width:0.01" />
<line x1="0.1875" y1="-0.104745" x2="0.1875" y2="0.041088" style="stroke:rgb(246,147,147);stroke-width:0.01" />
<line x1="0.00925926" y1="-0.104745" x2="-0.0717593" y2="-0.0237269" style="stroke:rgb(246,147,147);stroke-width:0.01" />
<line x1="0.138889" y1="-0.104745" x2="-0.00694444" y2="0.041088" style="stroke:rgb(246,147,147);stroke-width:0.01" />
<line x1="0.145833" y1="-0.0978009" x2="0.118056" y2="-0.0700231" style="stroke:rgb(246,147,147);stroke-width:0.01" />
<line x1="0.1875" y1="-0.0978009" x2="-0.0717593" y2="0.161458" style="stroke:rgb(246,147,147);stroke-width:0.01" />
<line x1="0.138889" y1="-0.104745" x2="0.166667" y2="-0.0769676" style="stroke:rgb(246,147,147);stroke-width:0.01" />
<line x1="0.00925926" y1="-0.104745" x2="0.101852" y2="-0.0121528" style="stroke:rgb(246,147,147);stroke-width:0.01" />
<line x1="-0.0717593" y1="-0.0237269" x2="-0.00694444" y2="0.041088" style="stroke:rgb(246,147,147);stroke-width:0.01" />
<line x1="-0.0717593" y1="-0.104745" x2="0.1875" y2="-0.104745" style="stroke:rgb(246,147,147);stroke-width:0.01" />
<line x1="-0.104167" y1="-0.0978009" x2="0.1875" y2="-0.0978009" style="stroke:rgb(246,147,147);stroke-width:0.01" />
<line x1="-0.104167" y1="-0.0700231" x2="0.1875" y2="-0.0700231" style="stroke:rgb(246,147,147);stroke-width:0.01" />
<line x1="-0.104167" y1="-0.0515046" x2="0.0625" y2="-0.0515046" style="stroke:rgb(246,147,147);stroke-width:0.01" />
<line x1="-0.0717593" y1="-0.0283565" x2="0.118056" y2="-0.0283565" style="stroke:rgb(246,147,147);stroke-width:0.01" />
<line x1="-0.0717593" y1="-0.0144676" x2="0.1875" y2="-0.0144676" style="stroke:rgb(246,147,147);stroke-width:0.01" />
<line x1="-0.0717593" y1="0.0271991" x2="0.0625" y2="0.0271991" style="stroke:rgb(246,147,147);stroke-width:0.01" />
<line x1="-0.0717593" y1="0.041088" x2="0.1875" y2="0.041088" style="stroke:rgb(246,147,147);stroke-width:0.01" />
<line x1="-0.104167" y1="0.115162" x2="-0.025463" y2="0.115162" style="stroke:rgb(246,147,147);stroke-width:0.01" />
<line x1="-0.104167" y1="0.161458" x2="-0.0717593" y2="0.161458" style="stroke:rgb(246,147,147);stroke-width:0.01" />
</g>
</svg>
