<svg xmlns="http://www.w3.org/2000/svg" viewBox="-1.5 -1.5 3 3">
<g transform="scale(1, -1)">
<path d="M-0.634259 1.886574 L-0.375000 1.886574 L-0.375000 2.032407 L-0.513889 2.032407 L-0.634259 2.152778 L-0.666667 2.152778 L-0.666667 1.893519 L-0.634259 1.893519 z " fill="rgb(245,195,195)" />
<path d="M0.000000 0.000000 L1.000000 0.000000 L1.000000 1.000000 L0.000000 1.000000  z" fill="none" stroke="rgb(128,128,128)" stroke-width="0.01" />
<line x1="-0.666667" y1="1.89352" x2="-0.666667" y2="2.15278" style="stroke:rgb(246,147,147);stroke-width:0.01" />
<line x1="-0.634259" y1="1.88657" x2="-0.634259" y2="2.15278" style="stroke:rgb(246,147,147);stroke-width:0.01" />
<line x1="-0.587963" y1="1.88657" x2="-0.587963" y2="2.10648" style="stroke:rgb(246,147,147);stroke-width:0.01" />
<line x1="-0.513889" y1="1.88657" x2="-0.513889" y2="2.03241" style="stroke:rgb(246,147,147);stroke-width:0.01" />
<line x1="-0.5" y1="1.89352" x2="-0.5" y2="2.01852" style="stroke:rgb(246,147,147);stroke-width:0.01" />
<line x1="-0.444444" y1="1.89352" x2="-0.444444" y2="1.96296" style="stroke:rgb(246,147,147);stroke-width:0.01" />
<line x1="-0.402778" y1="1.88657" x2="-0.402778" y2="2.03241" style="stroke:rgb(246,147,147);stroke-width:0.01" />
<line x1="-0.375" y1="1.88657" x2="-0.375" y2="2.03241" style="stroke:rgb(246,147,147);stroke-width:0.01" />
<line x1="-0.553241" y1="1.88657" x2="-0.634259" y2="1.96759" style="stroke:rgb(246,147,147);stroke-width:0.01" />
<line x1="-0.423611" y1="1.88657" x2="-0.569444" y2="2.03241" style="stroke:rgb(246,147,147);stroke-width:0.01" />
<line x1="-0.416667" y1="1.89352" x2="-0.444444" y2="1.9213" style="stroke:rgb(246,147,147);stroke-width:0.01" />
<line x1="-0.375" y1="1.89352" x2="-0.634259" y2="2.15278" style="stroke:rgb(246,147,147);stroke-width:0.01" />
<line x1="-0.423611" y1="1.88657" x2="-0.395833" y2="1.91435" style="stroke:rgb(246,147,147);stroke-width:0.01" />
<line x1="-0.553241" y1="1.88657" x2="-0.460648" y2="1.97917" style="stroke:rgb(246,147,147);stroke-width:0.01" />
<line x1="-0.634259" y1="1.96759" x2="-0.569444" y2="2.03241" style="stroke:rgb(246,147,147);stroke-width:0.01" />
<line x1="-0.634259" y1="1.88657" x2="-0.375" y2="1.88657" style="stroke:rgb(246,147,147);stroke-width:0.01" />
<line x1="-0.666667" y1="1.89352" x2="-0.375" y2="1.89352" style="stroke:rgb(246,147,147);stroke-width:0.01" />
<line x1="-0.666667" y1="1.9213" x2="-0.375" y2="1.9213" style="stroke:rgb(246,147,147);stroke-width:0.01" />
<line x1="-0.666667" y1="1.93981" x2="-0.5" y2="1.93981" style="stroke:rgb(246,147,147);stroke-width:0.01" />
<line x1="-0.634259" y1="1.96296" x2="-0.444444" y2="1.96296" style="stroke:rgb(246,147,147);stroke-width:0.01" />
<line x1="-0.634259" y1="1.97685" x2="-0.375" y2="1.97685" style="stroke:rgb(246,147,147);stroke-width:0.01" />
<line x1="-0.634259" y1="2.01852" x2="-0.5" y2="2.01852" style="stroke:rgb(246,147,147);stroke-width:0.01" />
<line x1="-0.634259" y1="2.03241" x2="-0.375" y2="2.03241" style="stroke:rgb(246,147,147);stroke-width:0.01" />
<line x1="-0.666667" y1="2.10648" x2="-0.587963" y2="2.10648" style="stroke:rgb(246,147,147);stroke-width:0.01" />
<line x1="-0.666667" y1="2.15278" x2="-0.634259" y2="2.15278" style="stroke:rgb(246,147,147);stroke-width:0.01" />
</g>
</svg>
