<svg xmlns="http://www.w3.org/2000/svg" viewBox="-1.5 -1.5 3 3">
<g transform="scale(1, -1)">
<path d="M0.187962 -0.708637 L0.354849 -0.663973 L0.163055 0.072157 L-0.040120 0.307158 L-0.073996 0.279721 L-0.072230 0.277541 L-0.097897 0.253867 L-0.096085 0.250537 L-0.229420 0.214852 L-0.096119 -0.283222 z " fill="rgb(245,195,195)" />
<path d="M-0.518112 -1.143819 L0.481888 -1.143819 L0.481888 -0.143819 L-0.518112 -0.143819  z" fill="none" stroke="rgb(128,128,128)" stroke-width="0.01" />
<line x1="0.187962" y1="-0.708637" x2="0.288101" y2="-0.578206" style="stroke:rgb(246,147,147);stroke-width:0.01" />
<line x1="0.269723" y1="-0.503328" x2="0.290299" y2="-0.416224" style="stroke:rgb(246,147,147);stroke-width:0.01" />
<line x1="0.052978" y1="-0.157213" x2="0.119922" y2="0.122047" style="stroke:rgb(246,147,147);stroke-width:0.01" />
<line x1="0.178036" y1="-0.640476" x2="0.315831" y2="-0.51422" style="stroke:rgb(246,147,147);stroke-width:0.01" />
<line x1="0.313982" y1="-0.673064" x2="0.311992" y2="-0.499485" style="stroke:rgb(246,147,147);stroke-width:0.01" />
<line x1="-0.0573809" y1="0.165327" x2="-0.0120222" y2="0.274659" style="stroke:rgb(246,147,147);stroke-width:0.01" />
<line x1="-0.0588806" y1="0.165961" x2="-0.0129256" y2="0.275704" style="stroke:rgb(246,147,147);stroke-width:0.01" />
<line x1="-0.0588806" y1="0.165961" x2="-0.0123501" y2="0.275038" style="stroke:rgb(246,147,147);stroke-width:0.01" />
<line x1="-0.0573809" y1="0.165327" x2="-0.0108818" y2="0.27334" style="stroke:rgb(246,147,147);stroke-width:0.01" />
<line x1="-0.0961187" y1="-0.283222" x2="-0.22942" y2="0.214852" style="stroke:rgb(246,147,147);stroke-width:0.01" />
<line x1="0.194626" y1="-0.704585" x2="-0.0559028" y2="0.263536" style="stroke:rgb(246,147,147);stroke-width:0.01" />
<line x1="0.187962" y1="-0.708637" x2="0.354849" y2="-0.663973" style="stroke:rgb(246,147,147);stroke-width:0.01" />
<line x1="0.194626" y1="-0.704585" x2="0.313982" y2="-0.673064" style="stroke:rgb(246,147,147);stroke-width:0.01" />
<line x1="0.194626" y1="-0.704585" x2="0.354849" y2="-0.663973" style="stroke:rgb(246,147,147);stroke-width:0.01" />
<line x1="0.354849" y1="-0.663973" x2="0.163055" y2="0.0721574" style="stroke:rgb(246,147,147);stroke-width:0.01" />
<line x1="0.187962" y1="-0.708637" x2="-0.0961187" y2="-0.283222" style="stroke:rgb(246,147,147);stroke-width:0.01" />
<line x1="0.311992" y1="-0.499485" x2="-0.0978967" y2="0.253867" style="stroke:rgb(246,147,147);stroke-width:0.01" />
<line x1="-0.0978967" y1="0.253867" x2="-0.0401196" y2="0.307158" style="stroke:rgb(246,147,147);stroke-width:0.01" />
<line x1="0.313982" y1="-0.673064" x2="0.178036" y2="-0.640476" style="stroke:rgb(246,147,147);stroke-width:0.01" />
<line x1="-0.0739959" y1="0.279721" x2="-0.0401196" y2="0.307158" style="stroke:rgb(246,147,147);stroke-width:0.01" />
<line x1="0.290299" y1="-0.416224" x2="0.052978" y2="-0.157213" style="stroke:rgb(246,147,147);stroke-width:0.01" />
<line x1="0.288101" y1="-0.578206" x2="-0.0961187" y2="-0.283222" style="stroke:rgb(246,147,147);stroke-width:0.01" />
<line x1="0.0582283" y1="0.116463" x2="-0.0739959" y2="0.279721" style="stroke:rgb(246,147,147);stroke-width:0.01" />
<line x1="0.315831" y1="-0.51422" x2="0.269723" y2="-0.503328" style="stroke:rgb(246,147,147);stroke-width:0.01" />
<line x1="0.163055" y1="0.0721574" x2="-0.0401196" y2="0.307158" style="stroke:rgb(246,147,147);stroke-width:0.01" />
<line x1="-0.22942" y1="0.214852" x2="-0.0108818" y2="0.27334" style="stroke:rgb(246,147,147);stroke-width:0.01" />
<line x1="0.0582283" y1="0.116463" x2="0.119922" y2="0.122047" style="stroke:rgb(246,147,147);stroke-width:0.01" />
<line x1="-0.0559028" y1="0.263536" x2="-0.0123501" y2="0.275038" style="stroke:rgb(246,147,147);stroke-width:0.01" />
<line x1="-0.0978967" y1="0.253867" x2="-0.0129256" y2="0.275704" style="stroke:rgb(246,147,147);stroke-width:0.01" />
<line x1="-0.0559028" y1="0.263536" x2="-0.0120222" y2="0.274659" style="stroke:rgb(246,147,147);stroke-width:0.01" />
<line x1="0.163055" y1="0.0721574" x2="-0.0588806" y2="0.165961" style="stroke:rgb(246,147,147);stroke-width:0.01" />
</g>
</svg>
