<svg xmlns="http://www.w3.org/2000/svg" viewBox="-1.5 -1.5 3 3">
<g transform="scale(1, -1)">
<path d="M0.706075 0.435182 L0.872961 0.479846 L0.681167 1.215976 L0.477993 1.450977 L0.444116 1.423540 L0.445882 1.421359 L0.420216 1.397685 L0.422027 1.394356 L0.288693 1.358671 L0.421994 0.860596 z " fill="rgb(245,195,195)" />
<path d="M0.000000 0.000000 L1.000000 0.000000 L1.000000 1.000000 L0.000000 1.000000  z" fill="none" stroke="rgb(128,128,128)" stroke-width="0.01" />
<line x1="0.706075" y1="0.435182" x2="0.806213" y2="0.565613" style="stroke:rgb(246,147,147);stroke-width:0.01" />
<line x1="0.787836" y1="0.640491" x2="0.808412" y2="0.727594" style="stroke:rgb(246,147,147);stroke-width:0.01" />
<line x1="0.57109" y1="0.986606" x2="0.638034" y2="1.26587" style="stroke:rgb(246,147,147);stroke-width:0.01" />
<line x1="0.696149" y1="0.503343" x2="0.833944" y2="0.629599" style="stroke:rgb(246,147,147);stroke-width:0.01" />
<line x1="0.832094" y1="0.470754" x2="0.830105" y2="0.644334" style="stroke:rgb(246,147,147);stroke-width:0.01" />
<line x1="0.460732" y1="1.30915" x2="0.50609" y2="1.41848" style="stroke:rgb(246,147,147);stroke-width:0.01" />
<line x1="0.459232" y1="1.30978" x2="0.505187" y2="1.41952" style="stroke:rgb(246,147,147);stroke-width:0.01" />
<line x1="0.459232" y1="1.30978" x2="0.505762" y2="1.41886" style="stroke:rgb(246,147,147);stroke-width:0.01" />
<line x1="0.460732" y1="1.30915" x2="0.507231" y2="1.41716" style="stroke:rgb(246,147,147);stroke-width:0.01" />
<line x1="0.421994" y1="0.860596" x2="0.288693" y2="1.35867" style="stroke:rgb(246,147,147);stroke-width:0.01" />
<line x1="0.712739" y1="0.439233" x2="0.46221" y2="1.40736" style="stroke:rgb(246,147,147);stroke-width:0.01" />
<line x1="0.706075" y1="0.435182" x2="0.872961" y2="0.479846" style="stroke:rgb(246,147,147);stroke-width:0.01" />
<line x1="0.712739" y1="0.439233" x2="0.832094" y2="0.470754" style="stroke:rgb(246,147,147);stroke-width:0.01" />
<line x1="0.712739" y1="0.439233" x2="0.872961" y2="0.479846" style="stroke:rgb(246,147,147);stroke-width:0.01" />
<line x1="0.872961" y1="0.479846" x2="0.681167" y2="1.21598" style="stroke:rgb(246,147,147);stroke-width:0.01" />
<line x1="0.706075" y1="0.435182" x2="0.421994" y2="0.860596" style="stroke:rgb(246,147,147);stroke-width:0.01" />
<line x1="0.830105" y1="0.644334" x2="0.420216" y2="1.39769" style="stroke:rgb(246,147,147);stroke-width:0.01" />
<line x1="0.420216" y1="1.39769" x2="0.477993" y2="1.45098" style="stroke:rgb(246,147,147);stroke-width:0.01" />
<line x1="0.832094" y1="0.470754" x2="0.696149" y2="0.503343" style="stroke:rgb(246,147,147);stroke-width:0.01" />
<line x1="0.444116" y1="1.42354" x2="0.477993" y2="1.45098" style="stroke:rgb(246,147,147);stroke-width:0.01" />
<line x1="0.808412" y1="0.727594" x2="0.57109" y2="0.986606" style="stroke:rgb(246,147,147);stroke-width:0.01" />
<line x1="0.806213" y1="0.565613" x2="0.421994" y2="0.860596" style="stroke:rgb(246,147,147);stroke-width:0.01" />
<line x1="0.576341" y1="1.26028" x2="0.444116" y2="1.42354" style="stroke:rgb(246,147,147);stroke-width:0.01" />
<line x1="0.833944" y1="0.629599" x2="0.787836" y2="0.640491" style="stroke:rgb(246,147,147);stroke-width:0.01" />
<line x1="0.681167" y1="1.21598" x2="0.477993" y2="1.45098" style="stroke:rgb(246,147,147);stroke-width:0.01" />
<line x1="0.288693" y1="1.35867" x2="0.507231" y2="1.41716" style="stroke:rgb(246,147,147);stroke-width:0.01" />
<line x1="0.576341" y1="1.26028" x2="0.638034" y2="1.26587" style="stroke:rgb(246,147,147);stroke-width:0.01" />
<line x1="0.46221" y1="1.40736" x2="0.505762" y2="1.41886" style="stroke:rgb(246,147,147);stroke-width:0.01" />
<line x1="0.420216" y1="1.39769" x2="0.505187" y2="1.41952" style="stroke:rgb(246,147,147);stroke-width:0.01" />
<line x1="0.46221" y1="1.40736" x2="0.50609" y2="1.41848" style="stroke:rgb(246,147,147);stroke-width:0.01" />
<line x1="0.681167" y1="1.21598" x2="0.459232" y2="1.30978" style="stroke:rgb(246,147,147);stroke-width:0.01" />
</g>
</svg>
