<svg xmlns="http://www.w3.org/2000/svg" viewBox="-1.5 -1.5 3 3">
<g transform="scale(1, -1)">
<path d="M0.161440 -0.313418 L0.315148 -0.286417 L0.295037 0.066184 L0.297679 0.073743 L0.294543 0.074840 L0.130225 -0.048976 L-0.005778 0.019364 L-0.009318 0.026409 L-0.018836 0.025925 L-0.446115 0.240628 L-0.545591 0.118631 L-0.468433 0.003086 z " fill="rgb(245,195,195)" />
<path d="M-0.168030 -1.142888 L0.831970 -1.142888 L0.831970 -0.142888 L-0.168030 -0.142888  z" fill="none" stroke="rgb(128,128,128)" stroke-width="0.01" />
<line x1="0.162402" y1="-0.313249" x2="0.297679" y2="0.0737434" style="stroke:rgb(246,147,147);stroke-width:0.01" />
<line x1="-0.409745" y1="-0.026404" x2="-0.414486" y2="0.00582645" style="stroke:rgb(246,147,147);stroke-width:0.01" />
<line x1="-0.0678296" y1="-0.198212" x2="-0.0668659" y2="-0.0432776" style="stroke:rgb(246,147,147);stroke-width:0.01" />
<line x1="-0.227985" y1="0.109197" x2="-0.227034" y2="0.130542" style="stroke:rgb(246,147,147);stroke-width:0.01" />
<line x1="-0.135229" y1="-0.164345" x2="-0.112542" y2="0.0730114" style="stroke:rgb(246,147,147);stroke-width:0.01" />
<line x1="-0.415787" y1="-0.0233679" x2="-0.414486" y2="0.00582645" style="stroke:rgb(246,147,147);stroke-width:0.01" />
<line x1="-0.160031" y1="0.0300994" x2="-0.170637" y2="0.102203" style="stroke:rgb(246,147,147);stroke-width:0.01" />
<line x1="0.315148" y1="-0.286417" x2="0.294543" y2="0.0748396" style="stroke:rgb(246,147,147);stroke-width:0.01" />
<line x1="-0.22043" y1="-0.121533" x2="-0.33109" y2="0.182829" style="stroke:rgb(246,147,147);stroke-width:0.01" />
<line x1="-0.0229852" y1="-0.220746" x2="-0.0664692" y2="-0.0754541" style="stroke:rgb(246,147,147);stroke-width:0.01" />
<line x1="-0.478935" y1="0.110582" x2="-0.446115" y2="0.240628" style="stroke:rgb(246,147,147);stroke-width:0.01" />
<line x1="0.315148" y1="-0.286417" x2="0.264239" y2="-0.116317" style="stroke:rgb(246,147,147);stroke-width:0.01" />
<line x1="-0.468433" y1="0.00308596" x2="-0.545591" y2="0.118631" style="stroke:rgb(246,147,147);stroke-width:0.01" />
<line x1="0.16144" y1="-0.313418" x2="-0.00931827" y2="0.0264089" style="stroke:rgb(246,147,147);stroke-width:0.01" />
<line x1="-0.0668659" y1="-0.0432776" x2="-0.00931827" y2="0.0264089" style="stroke:rgb(246,147,147);stroke-width:0.01" />
<line x1="0.162402" y1="-0.313249" x2="-0.180328" y2="0.107073" style="stroke:rgb(246,147,147);stroke-width:0.01" />
<line x1="-0.135229" y1="-0.164345" x2="0.0172829" y2="-0.0265302" style="stroke:rgb(246,147,147);stroke-width:0.01" />
<line x1="-0.0678296" y1="-0.198212" x2="0.294543" y2="0.0748396" style="stroke:rgb(246,147,147);stroke-width:0.01" />
<line x1="-0.160031" y1="0.0300994" x2="-0.112542" y2="0.0730114" style="stroke:rgb(246,147,147);stroke-width:0.01" />
<line x1="-0.545591" y1="0.118631" x2="-0.446115" y2="0.240628" style="stroke:rgb(246,147,147);stroke-width:0.01" />
<line x1="0.16144" y1="-0.313418" x2="0.315148" y2="-0.286417" style="stroke:rgb(246,147,147);stroke-width:0.01" />
<line x1="-0.0229852" y1="-0.220746" x2="0.264239" y2="-0.116317" style="stroke:rgb(246,147,147);stroke-width:0.01" />
<line x1="-0.415787" y1="-0.0233679" x2="-0.227034" y2="0.130542" style="stroke:rgb(246,147,147);stroke-width:0.01" />
<line x1="0.16144" y1="-0.313418" x2="-0.468433" y2="0.00308596" style="stroke:rgb(246,147,147);stroke-width:0.01" />
<line x1="-0.22043" y1="-0.121533" x2="-0.0664692" y2="-0.0754541" style="stroke:rgb(246,147,147);stroke-width:0.01" />
<line x1="-0.409745" y1="-0.026404" x2="-0.170637" y2="0.102203" style="stroke:rgb(246,147,147);stroke-width:0.01" />
<line x1="0.264239" y1="-0.116317" x2="-0.446115" y2="0.240628" style="stroke:rgb(246,147,147);stroke-width:0.01" />
<line x1="-0.0668659" y1="-0.0432776" x2="0.0172829" y2="-0.0265302" style="stroke:rgb(246,147,147);stroke-width:0.01" />
<line x1="-0.160031" y1="0.0300994" x2="-0.478935" y2="0.110582" style="stroke:rgb(246,147,147);stroke-width:0.01" />
<line x1="-0.468433" y1="0.00308596" x2="-0.00931827" y2="0.0264089" style="stroke:rgb(246,147,147);stroke-width:0.01" />
<line x1="0.297679" y1="0.0737434" x2="0.294543" y2="0.0748396" style="stroke:rgb(246,147,147);stroke-width:0.01" />
<line x1="-0.180328" y1="0.107073" x2="-0.227985" y2="0.109197" style="stroke:rgb(246,147,147);stroke-width:0.01" />
<line x1="-0.545591" y1="0.118631" x2="-0.33109" y2="0.182829" style="stroke:rgb(246,147,147);stroke-width:0.01" />
</g>
</svg>
