<svg xmlns="http://www.w3.org/2000/svg" viewBox="-1.5 -1.5 3 3">
<g transform="scale(1, -1)">
<path d="M-0.037882 -0.415521 L-0.035636 -0.414909 L-0.036097 -0.413217 L0.107011 -0.228568 L0.365617 -0.233690 L0.372115 0.094427 L0.425758 0.079468 L0.470725 0.240724 L0.139503 0.407159 L-0.304038 0.195178 L-0.308280 0.200375 L-0.369945 0.167844 L-0.376390 0.175314 L-0.412461 0.145416 z " fill="rgb(245,195,195)" />
<path d="M-0.620921 0.125913 L0.379079 0.125913 L0.379079 1.125913 L-0.620921 1.125913  z" fill="none" stroke="rgb(128,128,128)" stroke-width="0.01" />
<line x1="-0.0378822" y1="-0.415521" x2="-0.0356361" y2="-0.414909" style="stroke:rgb(246,147,147);stroke-width:0.01" />
<line x1="-0.0378822" y1="-0.415521" x2="0.470725" y2="0.240724" style="stroke:rgb(246,147,147);stroke-width:0.01" />
<line x1="0.251284" y1="0.191721" x2="0.375955" y2="0.288344" style="stroke:rgb(246,147,147);stroke-width:0.01" />
<line x1="0.251284" y1="0.191721" x2="0.312546" y2="0.237288" style="stroke:rgb(246,147,147);stroke-width:0.01" />
<line x1="0.365617" y1="-0.23369" x2="-0.166339" y2="-0.223155" style="stroke:rgb(246,147,147);stroke-width:0.01" />
<line x1="-0.222467" y1="-0.139102" x2="-0.124564" y2="-0.116543" style="stroke:rgb(246,147,147);stroke-width:0.01" />
<line x1="-0.224067" y1="-0.0544018" x2="-0.133255" y2="-0.0140662" style="stroke:rgb(246,147,147);stroke-width:0.01" />
<line x1="-0.222467" y1="-0.139102" x2="-0.133255" y2="-0.0140662" style="stroke:rgb(246,147,147);stroke-width:0.01" />
<line x1="0.425758" y1="0.0794684" x2="0.470725" y2="0.240724" style="stroke:rgb(246,147,147);stroke-width:0.01" />
<line x1="-0.166339" y1="-0.223155" x2="-0.124564" y2="-0.116543" style="stroke:rgb(246,147,147);stroke-width:0.01" />
<line x1="-0.327064" y1="0.177485" x2="-0.30828" y2="0.200375" style="stroke:rgb(246,147,147);stroke-width:0.01" />
<line x1="-0.41142" y1="0.143857" x2="-0.37639" y2="0.175314" style="stroke:rgb(246,147,147);stroke-width:0.01" />
<line x1="-0.412461" y1="0.145416" x2="-0.37639" y2="0.175314" style="stroke:rgb(246,147,147);stroke-width:0.01" />
<line x1="-0.412461" y1="0.145416" x2="-0.30828" y2="0.200375" style="stroke:rgb(246,147,147);stroke-width:0.01" />
<line x1="-0.41142" y1="0.143857" x2="0.139503" y2="0.407159" style="stroke:rgb(246,147,147);stroke-width:0.01" />
<line x1="-0.113434" y1="-0.129442" x2="-0.276701" y2="-0.0578864" style="stroke:rgb(246,147,147);stroke-width:0.01" />
<line x1="0.365617" y1="-0.23369" x2="0.375955" y2="0.288344" style="stroke:rgb(246,147,147);stroke-width:0.01" />
<line x1="0.312546" y1="0.111038" x2="0.312546" y2="0.237288" style="stroke:rgb(246,147,147);stroke-width:0.01" />
<line x1="-0.276701" y1="-0.0578864" x2="-0.281158" y2="0.167145" style="stroke:rgb(246,147,147);stroke-width:0.01" />
<line x1="-0.0378822" y1="-0.415521" x2="-0.412461" y2="0.145416" style="stroke:rgb(246,147,147);stroke-width:0.01" />
<line x1="-0.0356361" y1="-0.414909" x2="-0.113434" y2="-0.129442" style="stroke:rgb(246,147,147);stroke-width:0.01" />
<line x1="-0.281158" y1="0.167145" x2="-0.327064" y2="0.177485" style="stroke:rgb(246,147,147);stroke-width:0.01" />
<line x1="-0.224067" y1="-0.0544018" x2="-0.327064" y2="0.177485" style="stroke:rgb(246,147,147);stroke-width:0.01" />
<line x1="-0.113434" y1="-0.129442" x2="-0.37639" y2="0.175314" style="stroke:rgb(246,147,147);stroke-width:0.01" />
<line x1="0.157546" y1="0.315174" x2="0.139503" y2="0.407159" style="stroke:rgb(246,147,147);stroke-width:0.01" />
<line x1="-0.133255" y1="-0.0140662" x2="-0.30828" y2="0.200375" style="stroke:rgb(246,147,147);stroke-width:0.01" />
<line x1="0.425758" y1="0.0794684" x2="0.312546" y2="0.111038" style="stroke:rgb(246,147,147);stroke-width:0.01" />
<line x1="0.312546" y1="0.111038" x2="0.157546" y2="0.315174" style="stroke:rgb(246,147,147);stroke-width:0.01" />
<line x1="0.312546" y1="0.237288" x2="0.157546" y2="0.315174" style="stroke:rgb(246,147,147);stroke-width:0.01" />
<line x1="0.470725" y1="0.240724" x2="0.139503" y2="0.407159" style="stroke:rgb(246,147,147);stroke-width:0.01" />
</g>
</svg>
