<svg xmlns="http://www.w3.org/2000/svg" viewBox="-1.5 -1.5 3 3">
<g transform="scale(1, -1)">
<path d="M0.583039 -0.541434 L0.585285 -0.540821 L0.584824 -0.539130 L0.727932 -0.354481 L0.986539 -0.359603 L0.993037 -0.031486 L1.046679 -0.046444 L1.091646 0.114811 L0.760425 0.281246 L0.316884 0.069265 L0.312642 0.074463 L0.250976 0.041932 L0.244531 0.049401 L0.208461 0.019503 z " fill="rgb(245,195,195)" />
<path d="M0.000000 0.000000 L1.000000 0.000000 L1.000000 1.000000 L0.000000 1.000000  z" fill="none" stroke="rgb(128,128,128)" stroke-width="0.01" />
<line x1="0.583039" y1="-0.541434" x2="0.585285" y2="-0.540821" style="stroke:rgb(246,147,147);stroke-width:0.01" />
<line x1="0.583039" y1="-0.541434" x2="1.09165" y2="0.114811" style="stroke:rgb(246,147,147);stroke-width:0.01" />
<line x1="0.872205" y1="0.0658079" x2="0.996877" y2="0.162432" style="stroke:rgb(246,147,147);stroke-width:0.01" />
<line x1="0.872205" y1="0.0658079" x2="0.933468" y2="0.111375" style="stroke:rgb(246,147,147);stroke-width:0.01" />
<line x1="0.986539" y1="-0.359603" x2="0.454582" y2="-0.349068" style="stroke:rgb(246,147,147);stroke-width:0.01" />
<line x1="0.398454" y1="-0.265015" x2="0.496358" y2="-0.242456" style="stroke:rgb(246,147,147);stroke-width:0.01" />
<line x1="0.396854" y1="-0.180315" x2="0.487666" y2="-0.139979" style="stroke:rgb(246,147,147);stroke-width:0.01" />
<line x1="0.398454" y1="-0.265015" x2="0.487666" y2="-0.139979" style="stroke:rgb(246,147,147);stroke-width:0.01" />
<line x1="1.04668" y1="-0.0464444" x2="1.09165" y2="0.114811" style="stroke:rgb(246,147,147);stroke-width:0.01" />
<line x1="0.454582" y1="-0.349068" x2="0.496358" y2="-0.242456" style="stroke:rgb(246,147,147);stroke-width:0.01" />
<line x1="0.293858" y1="0.0515718" x2="0.312642" y2="0.0744626" style="stroke:rgb(246,147,147);stroke-width:0.01" />
<line x1="0.209501" y1="0.0179442" x2="0.244531" y2="0.049401" style="stroke:rgb(246,147,147);stroke-width:0.01" />
<line x1="0.208461" y1="0.0195027" x2="0.244531" y2="0.049401" style="stroke:rgb(246,147,147);stroke-width:0.01" />
<line x1="0.208461" y1="0.0195027" x2="0.312642" y2="0.0744626" style="stroke:rgb(246,147,147);stroke-width:0.01" />
<line x1="0.209501" y1="0.0179442" x2="0.760425" y2="0.281246" style="stroke:rgb(246,147,147);stroke-width:0.01" />
<line x1="0.507487" y1="-0.255355" x2="0.34422" y2="-0.183799" style="stroke:rgb(246,147,147);stroke-width:0.01" />
<line x1="0.986539" y1="-0.359603" x2="0.996877" y2="0.162432" style="stroke:rgb(246,147,147);stroke-width:0.01" />
<line x1="0.933468" y1="-0.014875" x2="0.933468" y2="0.111375" style="stroke:rgb(246,147,147);stroke-width:0.01" />
<line x1="0.34422" y1="-0.183799" x2="0.339764" y2="0.0412325" style="stroke:rgb(246,147,147);stroke-width:0.01" />
<line x1="0.583039" y1="-0.541434" x2="0.208461" y2="0.0195027" style="stroke:rgb(246,147,147);stroke-width:0.01" />
<line x1="0.585285" y1="-0.540821" x2="0.507487" y2="-0.255355" style="stroke:rgb(246,147,147);stroke-width:0.01" />
<line x1="0.339764" y1="0.0412325" x2="0.293858" y2="0.0515718" style="stroke:rgb(246,147,147);stroke-width:0.01" />
<line x1="0.396854" y1="-0.180315" x2="0.293858" y2="0.0515718" style="stroke:rgb(246,147,147);stroke-width:0.01" />
<line x1="0.507487" y1="-0.255355" x2="0.244531" y2="0.049401" style="stroke:rgb(246,147,147);stroke-width:0.01" />
<line x1="0.778468" y1="0.189261" x2="0.760425" y2="0.281246" style="stroke:rgb(246,147,147);stroke-width:0.01" />
<line x1="0.487666" y1="-0.139979" x2="0.312642" y2="0.0744626" style="stroke:rgb(246,147,147);stroke-width:0.01" />
<line x1="1.04668" y1="-0.0464444" x2="0.933468" y2="-0.014875" style="stroke:rgb(246,147,147);stroke-width:0.01" />
<line x1="0.933468" y1="-0.014875" x2="0.778468" y2="0.189261" style="stroke:rgb(246,147,147);stroke-width:0.01" />
<line x1="0.933468" y1="0.111375" x2="0.778468" y2="0.189261" style="stroke:rgb(246,147,147);stroke-width:0.01" />
<line x1="1.09165" y1="0.114811" x2="0.760425" y2="0.281246" style="stroke:rgb(246,147,147);stroke-width:0.01" />
</g>
</svg>
