<svg xmlns="http://www.w3.org/2000/svg" viewBox="-1.5 -1.5 3 3">
<g transform="scale(1, -1)">
<path d="M0.345512 -0.789088 L0.355413 -0.789088 L0.355413 -0.296550 L-0.049164 0.108026 L0.008045 0.340039 L-0.042319 0.407048 L-0.050233 0.401100 L-0.063720 0.306009 L-0.136485 0.271505 L-0.137869 0.210964 L-0.144606 0.210931 L-0.148319 0.207181 L-0.147081 -0.289088 L-0.144587 -0.298989 z " fill="rgb(245,195,195)" />
<path d="M-0.644587 -0.789088 L0.355413 -0.789088 L0.355413 0.210912 L-0.644587 0.210912  z" fill="none" stroke="rgb(128,128,128)" stroke-width="0.01" />
<line x1="-0.147087" y1="-0.286726" x2="-0.14505" y2="-0.282374" style="stroke:rgb(246,147,147);stroke-width:0.01" />
<line x1="-0.147107" y1="-0.278549" x2="-0.142211" y2="-0.269335" style="stroke:rgb(246,147,147);stroke-width:0.01" />
<line x1="-0.147081" y1="-0.289088" x2="0.00804461" y2="0.340039" style="stroke:rgb(246,147,147);stroke-width:0.01" />
<line x1="-0.145356" y1="-0.295937" x2="-0.14209" y2="-0.291546" style="stroke:rgb(246,147,147);stroke-width:0.01" />
<line x1="-0.147099" y1="-0.281893" x2="-0.0502334" y2="0.4011" style="stroke:rgb(246,147,147);stroke-width:0.01" />
<line x1="-0.147299" y1="-0.201605" x2="-0.136485" y2="0.271505" style="stroke:rgb(246,147,147);stroke-width:0.01" />
<line x1="-0.147487" y1="-0.126282" x2="-0.0865123" y2="-0.0434457" style="stroke:rgb(246,147,147);stroke-width:0.01" />
<line x1="-0.148285" y1="0.193616" x2="-0.144606" y2="0.20103" style="stroke:rgb(246,147,147);stroke-width:0.01" />
<line x1="0.345512" y1="-0.789088" x2="0.355413" y2="-0.789088" style="stroke:rgb(246,147,147);stroke-width:0.01" />
<line x1="0.355413" y1="-0.789088" x2="0.355413" y2="-0.29655" style="stroke:rgb(246,147,147);stroke-width:0.01" />
<line x1="-0.147081" y1="-0.289088" x2="-0.148319" y2="0.207181" style="stroke:rgb(246,147,147);stroke-width:0.01" />
<line x1="-0.142211" y1="-0.269335" x2="-0.144606" y2="0.210931" style="stroke:rgb(246,147,147);stroke-width:0.01" />
<line x1="-0.144587" y1="-0.298989" x2="-0.147299" y2="-0.201605" style="stroke:rgb(246,147,147);stroke-width:0.01" />
<line x1="-0.147084" y1="-0.287831" x2="-0.1467" y2="-0.287542" style="stroke:rgb(246,147,147);stroke-width:0.01" />
<line x1="-0.144587" y1="-0.298989" x2="-0.147099" y2="-0.281893" style="stroke:rgb(246,147,147);stroke-width:0.01" />
<line x1="-0.0865123" y1="-0.0434457" x2="-0.0957192" y2="0.0170483" style="stroke:rgb(246,147,147);stroke-width:0.01" />
<line x1="-0.144587" y1="-0.298989" x2="-0.147081" y2="-0.289088" style="stroke:rgb(246,147,147);stroke-width:0.01" />
<line x1="-0.145201" y1="-0.29655" x2="-0.144663" y2="-0.296261" style="stroke:rgb(246,147,147);stroke-width:0.01" />
<line x1="-0.148319" y1="0.207181" x2="-0.144606" y2="0.210931" style="stroke:rgb(246,147,147);stroke-width:0.01" />
<line x1="-0.1467" y1="-0.287542" x2="-0.147087" y2="-0.286726" style="stroke:rgb(246,147,147);stroke-width:0.01" />
<line x1="-0.14505" y1="-0.282374" x2="-0.147107" y2="-0.278549" style="stroke:rgb(246,147,147);stroke-width:0.01" />
<line x1="0.345512" y1="-0.789088" x2="-0.148285" y2="0.193616" style="stroke:rgb(246,147,147);stroke-width:0.01" />
<line x1="0.345512" y1="-0.789088" x2="-0.147487" y2="-0.126282" style="stroke:rgb(246,147,147);stroke-width:0.01" />
<line x1="-0.0502334" y1="0.4011" x2="-0.0423186" y2="0.407048" style="stroke:rgb(246,147,147);stroke-width:0.01" />
<line x1="-0.141742" y1="0.0415291" x2="-0.0554732" y2="0.0824363" style="stroke:rgb(246,147,147);stroke-width:0.01" />
<line x1="-0.145201" y1="-0.29655" x2="0.355413" y2="-0.29655" style="stroke:rgb(246,147,147);stroke-width:0.01" />
<line x1="0.345512" y1="-0.789088" x2="-0.144587" y2="-0.298989" style="stroke:rgb(246,147,147);stroke-width:0.01" />
<line x1="-0.14209" y1="-0.291546" x2="-0.147084" y2="-0.287831" style="stroke:rgb(246,147,147);stroke-width:0.01" />
<line x1="-0.144663" y1="-0.296261" x2="-0.145356" y2="-0.295937" style="stroke:rgb(246,147,147);stroke-width:0.01" />
<line x1="-0.0554732" y1="0.0824363" x2="-0.144606" y2="0.20103" style="stroke:rgb(246,147,147);stroke-width:0.01" />
<line x1="-0.136738" y1="0.260427" x2="0.004985" y2="0.32763" style="stroke:rgb(246,147,147);stroke-width:0.01" />
<line x1="-0.136485" y1="0.271505" x2="0.00804461" y2="0.340039" style="stroke:rgb(246,147,147);stroke-width:0.01" />
<line x1="-0.142464" y1="0.00993395" x2="-0.0957192" y2="0.0170483" style="stroke:rgb(246,147,147);stroke-width:0.01" />
<line x1="0.004985" y1="0.32763" x2="-0.0502334" y2="0.4011" style="stroke:rgb(246,147,147);stroke-width:0.01" />
<line x1="0.00804461" y1="0.340039" x2="-0.0423186" y2="0.407048" style="stroke:rgb(246,147,147);stroke-width:0.01" />
<line x1="0.355413" y1="-0.29655" x2="-0.148319" y2="0.207181" style="stroke:rgb(246,147,147);stroke-width:0.01" />
<line x1="-0.106329" y1="0.0055737" x2="-0.0743861" y2="0.00573302" style="stroke:rgb(246,147,147);stroke-width:0.01" />
<line x1="-0.0743861" y1="0.00573302" x2="-0.141742" y2="0.0415291" style="stroke:rgb(246,147,147);stroke-width:0.01" />
<line x1="-0.0765879" y1="-0.00319652" x2="-0.142464" y2="0.00993395" style="stroke:rgb(246,147,147);stroke-width:0.01" />
<line x1="-0.0765879" y1="-0.00319652" x2="-0.106329" y2="0.0055737" style="stroke:rgb(246,147,147);stroke-width:0.01" />
<line x1="-0.144606" y1="0.20103" x2="-0.0260855" y2="0.201621" style="stroke:rgb(246,147,147);stroke-width:0.01" />
<line x1="-0.144606" y1="0.210931" x2="-0.0236411" y2="0.211534" style="stroke:rgb(246,147,147);stroke-width:0.01" />
<line x1="-0.0260855" y1="0.201621" x2="-0.136738" y2="0.260427" style="stroke:rgb(246,147,147);stroke-width:0.01" />
<line x1="-0.0236411" y1="0.211534" x2="-0.136485" y2="0.271505" style="stroke:rgb(246,147,147);stroke-width:0.01" />
</g>
</svg>
