<svg xmlns="http://www.w3.org/2000/svg" viewBox="-1.5 -1.5 3 3">
<g transform="scale(1, -1)">
<path d="M0.990099 0.000000 L1.000000 0.000000 L1.000000 0.492537 L0.595424 0.897114 L0.652632 1.129126 L0.602269 1.196136 L0.594354 1.190187 L0.580868 1.095097 L0.508102 1.060593 L0.506718 1.000052 L0.499981 1.000019 L0.496269 0.996269 L0.497506 0.500000 L0.500000 0.490099 z " fill="rgb(245,195,195)" />
<path d="M0.000000 0.000000 L1.000000 0.000000 L1.000000 1.000000 L0.000000 1.000000  z" fill="none" stroke="rgb(128,128,128)" stroke-width="0.01" />
<line x1="0.4975" y1="0.502362" x2="0.499537" y2="0.506714" style="stroke:rgb(246,147,147);stroke-width:0.01" />
<line x1="0.49748" y1="0.510539" x2="0.502377" y2="0.519753" style="stroke:rgb(246,147,147);stroke-width:0.01" />
<line x1="0.497506" y1="0.5" x2="0.652632" y2="1.12913" style="stroke:rgb(246,147,147);stroke-width:0.01" />
<line x1="0.499231" y1="0.493151" x2="0.502497" y2="0.497542" style="stroke:rgb(246,147,147);stroke-width:0.01" />
<line x1="0.497488" y1="0.507195" x2="0.594354" y2="1.19019" style="stroke:rgb(246,147,147);stroke-width:0.01" />
<line x1="0.497288" y1="0.587483" x2="0.508102" y2="1.06059" style="stroke:rgb(246,147,147);stroke-width:0.01" />
<line x1="0.4971" y1="0.662806" x2="0.558075" y2="0.745642" style="stroke:rgb(246,147,147);stroke-width:0.01" />
<line x1="0.496302" y1="0.982704" x2="0.499981" y2="0.990117" style="stroke:rgb(246,147,147);stroke-width:0.01" />
<line x1="0.990099" y1="0" x2="1" y2="0" style="stroke:rgb(246,147,147);stroke-width:0.01" />
<line x1="1" y1="0" x2="1" y2="0.492537" style="stroke:rgb(246,147,147);stroke-width:0.01" />
<line x1="0.497506" y1="0.5" x2="0.496269" y2="0.996269" style="stroke:rgb(246,147,147);stroke-width:0.01" />
<line x1="0.502377" y1="0.519753" x2="0.499981" y2="1.00002" style="stroke:rgb(246,147,147);stroke-width:0.01" />
<line x1="0.5" y1="0.490099" x2="0.497288" y2="0.587483" style="stroke:rgb(246,147,147);stroke-width:0.01" />
<line x1="0.497503" y1="0.501257" x2="0.497887" y2="0.501546" style="stroke:rgb(246,147,147);stroke-width:0.01" />
<line x1="0.5" y1="0.490099" x2="0.497488" y2="0.507195" style="stroke:rgb(246,147,147);stroke-width:0.01" />
<line x1="0.558075" y1="0.745642" x2="0.548868" y2="0.806136" style="stroke:rgb(246,147,147);stroke-width:0.01" />
<line x1="0.5" y1="0.490099" x2="0.497506" y2="0.5" style="stroke:rgb(246,147,147);stroke-width:0.01" />
<line x1="0.499386" y1="0.492537" x2="0.499924" y2="0.492827" style="stroke:rgb(246,147,147);stroke-width:0.01" />
<line x1="0.496269" y1="0.996269" x2="0.499981" y2="1.00002" style="stroke:rgb(246,147,147);stroke-width:0.01" />
<line x1="0.497887" y1="0.501546" x2="0.4975" y2="0.502362" style="stroke:rgb(246,147,147);stroke-width:0.01" />
<line x1="0.499537" y1="0.506714" x2="0.49748" y2="0.510539" style="stroke:rgb(246,147,147);stroke-width:0.01" />
<line x1="0.990099" y1="0" x2="0.496302" y2="0.982704" style="stroke:rgb(246,147,147);stroke-width:0.01" />
<line x1="0.990099" y1="0" x2="0.4971" y2="0.662806" style="stroke:rgb(246,147,147);stroke-width:0.01" />
<line x1="0.594354" y1="1.19019" x2="0.602269" y2="1.19614" style="stroke:rgb(246,147,147);stroke-width:0.01" />
<line x1="0.502845" y1="0.830617" x2="0.589114" y2="0.871524" style="stroke:rgb(246,147,147);stroke-width:0.01" />
<line x1="0.499386" y1="0.492537" x2="1" y2="0.492537" style="stroke:rgb(246,147,147);stroke-width:0.01" />
<line x1="0.990099" y1="0" x2="0.5" y2="0.490099" style="stroke:rgb(246,147,147);stroke-width:0.01" />
<line x1="0.502497" y1="0.497542" x2="0.497503" y2="0.501257" style="stroke:rgb(246,147,147);stroke-width:0.01" />
<line x1="0.499924" y1="0.492827" x2="0.499231" y2="0.493151" style="stroke:rgb(246,147,147);stroke-width:0.01" />
<line x1="0.589114" y1="0.871524" x2="0.499981" y2="0.990117" style="stroke:rgb(246,147,147);stroke-width:0.01" />
<line x1="0.507849" y1="1.04951" x2="0.649572" y2="1.11672" style="stroke:rgb(246,147,147);stroke-width:0.01" />
<line x1="0.508102" y1="1.06059" x2="0.652632" y2="1.12913" style="stroke:rgb(246,147,147);stroke-width:0.01" />
<line x1="0.502123" y1="0.799022" x2="0.548868" y2="0.806136" style="stroke:rgb(246,147,147);stroke-width:0.01" />
<line x1="0.649572" y1="1.11672" x2="0.594354" y2="1.19019" style="stroke:rgb(246,147,147);stroke-width:0.01" />
<line x1="0.652632" y1="1.12913" x2="0.602269" y2="1.19614" style="stroke:rgb(246,147,147);stroke-width:0.01" />
<line x1="1" y1="0.492537" x2="0.496269" y2="0.996269" style="stroke:rgb(246,147,147);stroke-width:0.01" />
<line x1="0.538258" y1="0.794661" x2="0.570201" y2="0.794821" style="stroke:rgb(246,147,147);stroke-width:0.01" />
<line x1="0.570201" y1="0.794821" x2="0.502845" y2="0.830617" style="stroke:rgb(246,147,147);stroke-width:0.01" />
<line x1="0.567999" y1="0.785891" x2="0.502123" y2="0.799022" style="stroke:rgb(246,147,147);stroke-width:0.01" />
<line x1="0.567999" y1="0.785891" x2="0.538258" y2="0.794661" style="stroke:rgb(246,147,147);stroke-width:0.01" />
<line x1="0.499981" y1="0.990117" x2="0.618502" y2="0.990709" style="stroke:rgb(246,147,147);stroke-width:0.01" />
<line x1="0.499981" y1="1.00002" x2="0.620946" y2="1.00062" style="stroke:rgb(246,147,147);stroke-width:0.01" />
<line x1="0.618502" y1="0.990709" x2="0.507849" y2="1.04951" style="stroke:rgb(246,147,147);stroke-width:0.01" />
<line x1="0.620946" y1="1.00062" x2="0.508102" y2="1.06059" style="stroke:rgb(246,147,147);stroke-width:0.01" />
</g>
</svg>
