<svg xmlns="http://www.w3.org/2000/svg" viewBox="-1.5 -1.5 3 3">
<g transform="scale(1, -1)">
<path d="M0.647184 0.077322 L0.649388 0.078489 L0.647826 0.081440 L0.743206 0.693166 L0.661849 0.783426 L0.660399 1.219765 L0.526397 1.396714 L0.242876 1.182005 L0.243719 1.012563 L0.442532 0.223215 z " fill="rgb(245,195,195)" />
<path d="M0.000000 0.000000 L1.000000 0.000000 L1.000000 1.000000 L0.000000 1.000000  z" fill="none" stroke="rgb(128,128,128)" stroke-width="0.01" />
<line x1="0.647184" y1="0.0773224" x2="0.649388" y2="0.078489" style="stroke:rgb(246,147,147);stroke-width:0.01" />
<line x1="0.442532" y1="0.223215" x2="0.66223" y2="0.668885" style="stroke:rgb(246,147,147);stroke-width:0.01" />
<line x1="0.647184" y1="0.0773224" x2="0.743206" y2="0.693166" style="stroke:rgb(246,147,147);stroke-width:0.01" />
<line x1="0.243719" y1="1.01256" x2="0.278272" y2="1.15575" style="stroke:rgb(246,147,147);stroke-width:0.01" />
<line x1="0.243719" y1="1.01256" x2="0.242876" y2="1.18201" style="stroke:rgb(246,147,147);stroke-width:0.01" />
<line x1="0.324294" y1="0.692655" x2="0.322267" y2="0.997748" style="stroke:rgb(246,147,147);stroke-width:0.01" />
<line x1="0.66223" y1="0.668885" x2="0.660399" y2="1.21977" style="stroke:rgb(246,147,147);stroke-width:0.01" />
<line x1="0.369472" y1="0.674082" x2="0.345995" y2="1.13384" style="stroke:rgb(246,147,147);stroke-width:0.01" />
<line x1="0.442532" y1="0.223215" x2="0.243719" y2="1.01256" style="stroke:rgb(246,147,147);stroke-width:0.01" />
<line x1="0.496259" y1="1" x2="0.660399" y2="1.21977" style="stroke:rgb(246,147,147);stroke-width:0.01" />
<line x1="0.649388" y1="0.078489" x2="0.324294" y2="0.692655" style="stroke:rgb(246,147,147);stroke-width:0.01" />
<line x1="0.647184" y1="0.0773224" x2="0.442532" y2="0.223215" style="stroke:rgb(246,147,147);stroke-width:0.01" />
<line x1="0.66223" y1="0.668885" x2="0.496259" y2="1" style="stroke:rgb(246,147,147);stroke-width:0.01" />
<line x1="0.242876" y1="1.18201" x2="0.526397" y2="1.39671" style="stroke:rgb(246,147,147);stroke-width:0.01" />
<line x1="0.369472" y1="0.674082" x2="0.743206" y2="0.693166" style="stroke:rgb(246,147,147);stroke-width:0.01" />
<line x1="0.743206" y1="0.693166" x2="0.345995" y2="1.13384" style="stroke:rgb(246,147,147);stroke-width:0.01" />
<line x1="0.660399" y1="1.21977" x2="0.526397" y2="1.39671" style="stroke:rgb(246,147,147);stroke-width:0.01" />
<line x1="0.278272" y1="1.15575" x2="0.242876" y2="1.18201" style="stroke:rgb(246,147,147);stroke-width:0.01" />
<line x1="0.322267" y1="0.997748" x2="0.66113" y2="1" style="stroke:rgb(246,147,147);stroke-width:0.01" />
<line x1="0.496259" y1="1" x2="0.66113" y2="1" style="stroke:rgb(246,147,147);stroke-width:0.01" />
<line x1="0.243035" y1="1.1499" x2="0.278272" y2="1.15575" style="stroke:rgb(246,147,147);stroke-width:0.01" />
<line x1="0.345995" y1="1.13384" x2="0.243035" y2="1.1499" style="stroke:rgb(246,147,147);stroke-width:0.01" />
</g>
</svg>
