<svg xmlns="http://www.w3.org/2000/svg" viewBox="-1.5 -1.5 3 3">
<g transform="scale(1, -1)">
<path d="M-0.244520 0.811745 L0.371195 1.150816 L0.370779 1.317648 L0.348178 1.317984 L0.221891 1.431863 L-0.244739 1.409614 L-0.343869 1.252851 L-0.302542 1.069361 L-0.410892 1.033505 L-0.409025 1.036960 L-0.413402 1.039325 L-0.431498 1.026686 L-0.403451 0.970733 z " fill="rgb(245,195,195)" />
<path d="M0.000000 0.000000 L1.000000 0.000000 L1.000000 1.000000 L0.000000 1.000000  z" fill="none" stroke="rgb(128,128,128)" stroke-width="0.01" />
<line x1="-0.403451" y1="0.970733" x2="-0.413402" y2="1.03933" style="stroke:rgb(246,147,147);stroke-width:0.01" />
<line x1="-0.24452" y1="0.811745" x2="-0.343869" y2="1.25285" style="stroke:rgb(246,147,147);stroke-width:0.01" />
<line x1="0.270115" y1="1.20583" x2="0.288908" y2="1.31887" style="stroke:rgb(246,147,147);stroke-width:0.01" />
<line x1="0.371195" y1="1.15082" x2="0.370779" y2="1.31765" style="stroke:rgb(246,147,147);stroke-width:0.01" />
<line x1="0.241509" y1="1.0794" x2="0.221891" y2="1.43186" style="stroke:rgb(246,147,147);stroke-width:0.01" />
<line x1="-0.403451" y1="0.970733" x2="-0.431498" y2="1.02669" style="stroke:rgb(246,147,147);stroke-width:0.01" />
<line x1="-0.142879" y1="1.27814" x2="-0.12547" y2="1.4153" style="stroke:rgb(246,147,147);stroke-width:0.01" />
<line x1="-0.101192" y1="1.30751" x2="-0.12547" y2="1.4153" style="stroke:rgb(246,147,147);stroke-width:0.01" />
<line x1="0.368982" y1="1.15202" x2="0.371181" y2="1.15624" style="stroke:rgb(246,147,147);stroke-width:0.01" />
<line x1="0.368982" y1="1.15202" x2="0.371182" y2="1.1559" style="stroke:rgb(246,147,147);stroke-width:0.01" />
<line x1="0.19105" y1="1.11539" x2="0.286896" y2="1.31598" style="stroke:rgb(246,147,147);stroke-width:0.01" />
<line x1="0.222875" y1="1.41418" x2="0.22812" y2="1.42625" style="stroke:rgb(246,147,147);stroke-width:0.01" />
<line x1="0.00253303" y1="0.947796" x2="0.217446" y2="1.43165" style="stroke:rgb(246,147,147);stroke-width:0.01" />
<line x1="-0.24452" y1="0.811745" x2="-0.403451" y2="0.970733" style="stroke:rgb(246,147,147);stroke-width:0.01" />
<line x1="0.279338" y1="1.20081" x2="0.271891" y2="1.21651" style="stroke:rgb(246,147,147);stroke-width:0.01" />
<line x1="0.371181" y1="1.15624" x2="0.286896" y2="1.31598" style="stroke:rgb(246,147,147);stroke-width:0.01" />
<line x1="-0.423356" y1="1.01044" x2="-0.409025" y2="1.03696" style="stroke:rgb(246,147,147);stroke-width:0.01" />
<line x1="-0.142879" y1="1.27814" x2="-0.244739" y2="1.40961" style="stroke:rgb(246,147,147);stroke-width:0.01" />
<line x1="0.222332" y1="1.42298" x2="0.217446" y2="1.43165" style="stroke:rgb(246,147,147);stroke-width:0.01" />
<line x1="0.371182" y1="1.1559" x2="0.222875" y2="1.41418" style="stroke:rgb(246,147,147);stroke-width:0.01" />
<line x1="0.271891" y1="1.21651" x2="0.357942" y2="1.30485" style="stroke:rgb(246,147,147);stroke-width:0.01" />
<line x1="0.19105" y1="1.11539" x2="0.370842" y2="1.29229" style="stroke:rgb(246,147,147);stroke-width:0.01" />
<line x1="-0.343869" y1="1.25285" x2="-0.244739" y2="1.40961" style="stroke:rgb(246,147,147);stroke-width:0.01" />
<line x1="0.270115" y1="1.20583" x2="0.370829" y2="1.29756" style="stroke:rgb(246,147,147);stroke-width:0.01" />
<line x1="-0.409025" y1="1.03696" x2="-0.413402" y2="1.03933" style="stroke:rgb(246,147,147);stroke-width:0.01" />
<line x1="-0.24452" y1="0.811745" x2="0.371195" y2="1.15082" style="stroke:rgb(246,147,147);stroke-width:0.01" />
<line x1="0.241509" y1="1.0794" x2="0.19105" y2="1.11539" style="stroke:rgb(246,147,147);stroke-width:0.01" />
<line x1="0.370842" y1="1.29229" x2="0.357942" y2="1.30485" style="stroke:rgb(246,147,147);stroke-width:0.01" />
<line x1="-0.431498" y1="1.02669" x2="-0.413402" y2="1.03933" style="stroke:rgb(246,147,147);stroke-width:0.01" />
<line x1="0.370829" y1="1.29756" x2="0.221891" y2="1.43186" style="stroke:rgb(246,147,147);stroke-width:0.01" />
<line x1="0.00253303" y1="0.947796" x2="-0.423356" y2="1.01044" style="stroke:rgb(246,147,147);stroke-width:0.01" />
<line x1="0.222332" y1="1.42298" x2="0.22812" y2="1.42625" style="stroke:rgb(246,147,147);stroke-width:0.01" />
<line x1="0.371195" y1="1.15082" x2="0.270115" y2="1.20583" style="stroke:rgb(246,147,147);stroke-width:0.01" />
<line x1="-0.431498" y1="1.02669" x2="0.370842" y2="1.29221" style="stroke:rgb(246,147,147);stroke-width:0.01" />
<line x1="0.279338" y1="1.20081" x2="0.37104" y2="1.21291" style="stroke:rgb(246,147,147);stroke-width:0.01" />
<line x1="0.37104" y1="1.21291" x2="-0.142879" y2="1.27814" style="stroke:rgb(246,147,147);stroke-width:0.01" />
<line x1="-0.343869" y1="1.25285" x2="-0.101192" y2="1.30751" style="stroke:rgb(246,147,147);stroke-width:0.01" />
<line x1="0.370842" y1="1.29221" x2="0.288908" y2="1.31887" style="stroke:rgb(246,147,147);stroke-width:0.01" />
<line x1="0.286896" y1="1.31598" x2="0.370779" y2="1.31765" style="stroke:rgb(246,147,147);stroke-width:0.01" />
<line x1="0.370779" y1="1.31765" x2="0.288908" y2="1.31887" style="stroke:rgb(246,147,147);stroke-width:0.01" />
<line x1="-0.244739" y1="1.40961" x2="0.221891" y2="1.43186" style="stroke:rgb(246,147,147);stroke-width:0.01" />
</g>
</svg>
