<svg xmlns="http://www.w3.org/2000/svg" viewBox="-1.5 -1.5 3 3">
<g transform="scale(1, -1)">
<path d="M-1.293362 0.261469 L-1.144078 0.755680 L-1.254020 0.822338 L-1.317978 0.716851 L-2.000000 0.548406 L-2.000000 0.290925 z " fill="rgb(245,195,195)" />
<path d="M0.000000 0.000000 L1.000000 0.000000 L1.000000 1.000000 L0.000000 1.000000  z" fill="none" stroke="rgb(128,128,128)" stroke-width="0.01" />
<line x1="-1.89966" y1="0.325976" x2="-2" y2="0.498841" style="stroke:rgb(246,147,147);stroke-width:0.01" />
<line x1="-1.29336" y1="0.261469" x2="-1.51325" y2="0.394785" style="stroke:rgb(246,147,147);stroke-width:0.01" />
<line x1="-1.96443" y1="0.292408" x2="-1.97484" y2="0.542191" style="stroke:rgb(246,147,147);stroke-width:0.01" />
<line x1="-2" y1="0.290925" x2="-2" y2="0.548406" style="stroke:rgb(246,147,147);stroke-width:0.01" />
<line x1="-1.14408" y1="0.75568" x2="-1.25402" y2="0.822338" style="stroke:rgb(246,147,147);stroke-width:0.01" />
<line x1="-1.97484" y1="0.542191" x2="-2" y2="0.548406" style="stroke:rgb(246,147,147);stroke-width:0.01" />
<line x1="-1.29336" y1="0.261469" x2="-2" y2="0.290925" style="stroke:rgb(246,147,147);stroke-width:0.01" />
<line x1="-2" y1="0.290925" x2="-1.96443" y2="0.292408" style="stroke:rgb(246,147,147);stroke-width:0.01" />
<line x1="-1.29336" y1="0.261469" x2="-1.14408" y2="0.75568" style="stroke:rgb(246,147,147);stroke-width:0.01" />
<line x1="-1.14408" y1="0.75568" x2="-1.15835" y2="0.756275" style="stroke:rgb(246,147,147);stroke-width:0.01" />
<line x1="-1.51325" y1="0.394785" x2="-1.25402" y2="0.822338" style="stroke:rgb(246,147,147);stroke-width:0.01" />
<line x1="-2" y1="0.548406" x2="-1.15835" y2="0.756275" style="stroke:rgb(246,147,147);stroke-width:0.01" />
<line x1="-2" y1="0.498841" x2="-1.97484" y2="0.542191" style="stroke:rgb(246,147,147);stroke-width:0.01" />
<line x1="-1.89966" y1="0.325976" x2="-1.15835" y2="0.756275" style="stroke:rgb(246,147,147);stroke-width:0.01" />
</g>
</svg>
