<svg xmlns="http://www.w3.org/2000/svg" viewBox="-1.5 -1.5 3 3">
<g transform="scale(1, -1)">
<path d="M0.208211 -0.304476 L0.357495 0.189735 L0.247553 0.256394 L0.183595 0.150906 L-0.498427 -0.017539 L-0.498427 -0.275020 z " fill="rgb(245,195,195)" />
<path d="M1.501573 -0.565945 L2.501573 -0.565945 L2.501573 0.434055 L1.501573 0.434055  z" fill="none" stroke="rgb(128,128,128)" stroke-width="0.01" />
<line x1="-0.398086" y1="-0.239969" x2="-0.498427" y2="-0.0671035" style="stroke:rgb(246,147,147);stroke-width:0.01" />
<line x1="0.208211" y1="-0.304476" x2="-0.0116737" y2="-0.171159" style="stroke:rgb(246,147,147);stroke-width:0.01" />
<line x1="-0.462852" y1="-0.273537" x2="-0.473264" y2="-0.0237539" style="stroke:rgb(246,147,147);stroke-width:0.01" />
<line x1="-0.498427" y1="-0.27502" x2="-0.498427" y2="-0.0175392" style="stroke:rgb(246,147,147);stroke-width:0.01" />
<line x1="0.357495" y1="0.189735" x2="0.247553" y2="0.256394" style="stroke:rgb(246,147,147);stroke-width:0.01" />
<line x1="-0.473264" y1="-0.0237539" x2="-0.498427" y2="-0.0175392" style="stroke:rgb(246,147,147);stroke-width:0.01" />
<line x1="0.208211" y1="-0.304476" x2="-0.498427" y2="-0.27502" style="stroke:rgb(246,147,147);stroke-width:0.01" />
<line x1="-0.498427" y1="-0.27502" x2="-0.462852" y2="-0.273537" style="stroke:rgb(246,147,147);stroke-width:0.01" />
<line x1="0.208211" y1="-0.304476" x2="0.357495" y2="0.189735" style="stroke:rgb(246,147,147);stroke-width:0.01" />
<line x1="0.357495" y1="0.189735" x2="0.343222" y2="0.19033" style="stroke:rgb(246,147,147);stroke-width:0.01" />
<line x1="-0.0116737" y1="-0.171159" x2="0.247553" y2="0.256394" style="stroke:rgb(246,147,147);stroke-width:0.01" />
<line x1="-0.498427" y1="-0.0175392" x2="0.343222" y2="0.19033" style="stroke:rgb(246,147,147);stroke-width:0.01" />
<line x1="-0.498427" y1="-0.0671035" x2="-0.473264" y2="-0.0237539" style="stroke:rgb(246,147,147);stroke-width:0.01" />
<line x1="-0.398086" y1="-0.239969" x2="0.343222" y2="0.19033" style="stroke:rgb(246,147,147);stroke-width:0.01" />
</g>
</svg>
