<svg xmlns="http://www.w3.org/2000/svg" viewBox="-1.5 -1.5 3 3">
<g transform="scale(1, -1)">
<path d="M0.390292 0.238007 L0.465745 0.320963 L0.546667 0.288333 L0.649346 0.401281 L0.723736 0.357616 L0.800769 0.377179 L0.781504 0.453037 L0.696090 0.508553 L0.715000 0.595000 L0.673333 0.627104 L0.673333 0.691858 L0.687603 0.714308 L0.673333 0.771529 L0.673333 0.826667 L0.659583 0.826667 L0.550803 0.687427 L0.548406 0.686957 L0.547180 0.682791 L0.545753 0.680963 L0.406667 0.696667 L0.376466 0.657838 L0.292519 0.719468 L0.216561 0.712217 L0.229500 0.576667 L0.332082 0.483410 L0.334215 0.450806 L0.334185 0.450782 L0.334227 0.450623 L0.336667 0.413333 L0.345978 0.406059 L0.376192 0.291479 L0.367993 0.241679 z " fill="rgb(245,195,195)" />
<path d="M0.000000 0.000000 L1.000000 0.000000 L1.000000 1.000000 L0.000000 1.000000  z" fill="none" stroke="rgb(128,128,128)" stroke-width="0.01" />
<line x1="0.546667" y1="0.288333" x2="0.66293" y2="0.576667" style="stroke:rgb(246,147,147);stroke-width:0.01" />
<line x1="0.546667" y1="0.288333" x2="0.68" y2="0.435" style="stroke:rgb(246,147,147);stroke-width:0.01" />
<line x1="0.68" y1="0.435" x2="0.715" y2="0.595" style="stroke:rgb(246,147,147);stroke-width:0.01" />
<line x1="0.499248" y1="0.364325" x2="0.613333" y2="0.673333" style="stroke:rgb(246,147,147);stroke-width:0.01" />
<line x1="0.443333" y1="0.33" x2="0.687603" y2="0.714308" style="stroke:rgb(246,147,147);stroke-width:0.01" />
<line x1="0.443333" y1="0.33" x2="0.548406" y2="0.686957" style="stroke:rgb(246,147,147);stroke-width:0.01" />
<line x1="0.390292" y1="0.238007" x2="0.715" y2="0.595" style="stroke:rgb(246,147,147);stroke-width:0.01" />
<line x1="0.367993" y1="0.241679" x2="0.440016" y2="0.679143" style="stroke:rgb(246,147,147);stroke-width:0.01" />
<line x1="0.344966" y1="0.472281" x2="0.440016" y2="0.679143" style="stroke:rgb(246,147,147);stroke-width:0.01" />
<line x1="0.39809" y1="0.387462" x2="0.406667" y2="0.696667" style="stroke:rgb(246,147,147);stroke-width:0.01" />
<line x1="0.336667" y1="0.413333" x2="0.659583" y2="0.826667" style="stroke:rgb(246,147,147);stroke-width:0.01" />
<line x1="0.673333" y1="0.435358" x2="0.673333" y2="0.826667" style="stroke:rgb(246,147,147);stroke-width:0.01" />
<line x1="0.336667" y1="0.413333" x2="0.325" y2="0.591667" style="stroke:rgb(246,147,147);stroke-width:0.01" />
<line x1="0.2295" y1="0.576667" x2="0.216561" y2="0.712217" style="stroke:rgb(246,147,147);stroke-width:0.01" />
<line x1="0.325" y1="0.591667" x2="0.406667" y2="0.696667" style="stroke:rgb(246,147,147);stroke-width:0.01" />
<line x1="0.344966" y1="0.472281" x2="0.292519" y2="0.719468" style="stroke:rgb(246,147,147);stroke-width:0.01" />
<line x1="0.673333" y1="0.435358" x2="0.644477" y2="0.654958" style="stroke:rgb(246,147,147);stroke-width:0.01" />
<line x1="0.390292" y1="0.238007" x2="0.334185" y2="0.450782" style="stroke:rgb(246,147,147);stroke-width:0.01" />
<line x1="0.334185" y1="0.450782" x2="0.613333" y2="0.673333" style="stroke:rgb(246,147,147);stroke-width:0.01" />
<line x1="0.723736" y1="0.357616" x2="0.800769" y2="0.377179" style="stroke:rgb(246,147,147);stroke-width:0.01" />
<line x1="0.687603" y1="0.714308" x2="0.659583" y2="0.826667" style="stroke:rgb(246,147,147);stroke-width:0.01" />
<line x1="0.723736" y1="0.357616" x2="0.644477" y2="0.654958" style="stroke:rgb(246,147,147);stroke-width:0.01" />
<line x1="0.800769" y1="0.377179" x2="0.781504" y2="0.453037" style="stroke:rgb(246,147,147);stroke-width:0.01" />
<line x1="0.390292" y1="0.238007" x2="0.367993" y2="0.241679" style="stroke:rgb(246,147,147);stroke-width:0.01" />
<line x1="0.39809" y1="0.387462" x2="0.781504" y2="0.453037" style="stroke:rgb(246,147,147);stroke-width:0.01" />
<line x1="0.336667" y1="0.413333" x2="0.673333" y2="0.435358" style="stroke:rgb(246,147,147);stroke-width:0.01" />
<line x1="0.443333" y1="0.33" x2="0.336667" y2="0.413333" style="stroke:rgb(246,147,147);stroke-width:0.01" />
<line x1="0.546667" y1="0.288333" x2="0.2295" y2="0.576667" style="stroke:rgb(246,147,147);stroke-width:0.01" />
<line x1="0.546667" y1="0.288333" x2="0.443333" y2="0.33" style="stroke:rgb(246,147,147);stroke-width:0.01" />
<line x1="0.499248" y1="0.364325" x2="0.39809" y2="0.387462" style="stroke:rgb(246,147,147);stroke-width:0.01" />
<line x1="0.499248" y1="0.364325" x2="0.334185" y2="0.450782" style="stroke:rgb(246,147,147);stroke-width:0.01" />
<line x1="0.68" y1="0.435" x2="0.344966" y2="0.472281" style="stroke:rgb(246,147,147);stroke-width:0.01" />
<line x1="0.325" y1="0.591667" x2="0.644477" y2="0.654958" style="stroke:rgb(246,147,147);stroke-width:0.01" />
<line x1="0.548406" y1="0.686957" x2="0.687603" y2="0.714308" style="stroke:rgb(246,147,147);stroke-width:0.01" />
<line x1="0.2295" y1="0.576667" x2="0.66293" y2="0.576667" style="stroke:rgb(246,147,147);stroke-width:0.01" />
<line x1="0.723736" y1="0.357616" x2="0.325" y2="0.591667" style="stroke:rgb(246,147,147);stroke-width:0.01" />
<line x1="0.68" y1="0.435" x2="0.292519" y2="0.719468" style="stroke:rgb(246,147,147);stroke-width:0.01" />
<line x1="0.66293" y1="0.576667" x2="0.548406" y2="0.686957" style="stroke:rgb(246,147,147);stroke-width:0.01" />
<line x1="0.781504" y1="0.453037" x2="0.406667" y2="0.696667" style="stroke:rgb(246,147,147);stroke-width:0.01" />
<line x1="0.216561" y1="0.712217" x2="0.292519" y2="0.719468" style="stroke:rgb(246,147,147);stroke-width:0.01" />
<line x1="0.715" y1="0.595" x2="0.613333" y2="0.673333" style="stroke:rgb(246,147,147);stroke-width:0.01" />
<line x1="0.613333" y1="0.673333" x2="0.406667" y2="0.696667" style="stroke:rgb(246,147,147);stroke-width:0.01" />
<line x1="0.715" y1="0.595" x2="0.440016" y2="0.679143" style="stroke:rgb(246,147,147);stroke-width:0.01" />
<line x1="0.659583" y1="0.826667" x2="0.673333" y2="0.826667" style="stroke:rgb(246,147,147);stroke-width:0.01" />
</g>
</svg>
