<svg xmlns="http://www.w3.org/2000/svg" viewBox="-1.5 -1.5 3 3">
<g transform="scale(1, -1)">
<path d="M-0.118616 -0.302220 L-0.043163 -0.219264 L0.037758 -0.251894 L0.140438 -0.138946 L0.214828 -0.182612 L0.291861 -0.163048 L0.272596 -0.087190 L0.187181 -0.031674 L0.206092 0.054773 L0.164425 0.086877 L0.164425 0.151631 L0.178695 0.174081 L0.164425 0.231302 L0.164425 0.286440 L0.150675 0.286440 L0.041894 0.147200 L0.039498 0.146730 L0.038272 0.142564 L0.036844 0.140736 L-0.102242 0.156440 L-0.132442 0.117611 L-0.216390 0.179241 L-0.292347 0.171990 L-0.279408 0.036440 L-0.176826 -0.056817 L-0.174693 -0.089421 L-0.174723 -0.089445 L-0.174681 -0.089604 L-0.172242 -0.126894 L-0.162930 -0.134168 L-0.132716 -0.248748 L-0.140915 -0.298549 z " fill="rgb(245,195,195)" />
<path d="M-0.508908 -0.540227 L0.491092 -0.540227 L0.491092 0.459773 L-0.508908 0.459773  z" fill="none" stroke="rgb(128,128,128)" stroke-width="0.01" />
<line x1="0.0377585" y1="-0.251894" x2="0.154022" y2="0.0364396" style="stroke:rgb(246,147,147);stroke-width:0.01" />
<line x1="0.0377585" y1="-0.251894" x2="0.171092" y2="-0.105227" style="stroke:rgb(246,147,147);stroke-width:0.01" />
<line x1="0.171092" y1="-0.105227" x2="0.206092" y2="0.0547729" style="stroke:rgb(246,147,147);stroke-width:0.01" />
<line x1="-0.00966024" y1="-0.175902" x2="0.104425" y2="0.133106" style="stroke:rgb(246,147,147);stroke-width:0.01" />
<line x1="-0.0655749" y1="-0.210227" x2="0.178695" y2="0.174081" style="stroke:rgb(246,147,147);stroke-width:0.01" />
<line x1="-0.0655749" y1="-0.210227" x2="0.0394983" y2="0.14673" style="stroke:rgb(246,147,147);stroke-width:0.01" />
<line x1="-0.118616" y1="-0.30222" x2="0.206092" y2="0.0547729" style="stroke:rgb(246,147,147);stroke-width:0.01" />
<line x1="-0.140915" y1="-0.298549" x2="-0.0688918" y2="0.138916" style="stroke:rgb(246,147,147);stroke-width:0.01" />
<line x1="-0.163942" y1="-0.0679461" x2="-0.0688918" y2="0.138916" style="stroke:rgb(246,147,147);stroke-width:0.01" />
<line x1="-0.110819" y1="-0.152765" x2="-0.102242" y2="0.15644" style="stroke:rgb(246,147,147);stroke-width:0.01" />
<line x1="-0.172242" y1="-0.126894" x2="0.150675" y2="0.28644" style="stroke:rgb(246,147,147);stroke-width:0.01" />
<line x1="0.164425" y1="-0.104869" x2="0.164425" y2="0.28644" style="stroke:rgb(246,147,147);stroke-width:0.01" />
<line x1="-0.172242" y1="-0.126894" x2="-0.183908" y2="0.0514396" style="stroke:rgb(246,147,147);stroke-width:0.01" />
<line x1="-0.279408" y1="0.0364396" x2="-0.292347" y2="0.17199" style="stroke:rgb(246,147,147);stroke-width:0.01" />
<line x1="-0.183908" y1="0.0514396" x2="-0.102242" y2="0.15644" style="stroke:rgb(246,147,147);stroke-width:0.01" />
<line x1="-0.163942" y1="-0.0679461" x2="-0.21639" y2="0.179241" style="stroke:rgb(246,147,147);stroke-width:0.01" />
<line x1="0.164425" y1="-0.104869" x2="0.135569" y2="0.114731" style="stroke:rgb(246,147,147);stroke-width:0.01" />
<line x1="-0.118616" y1="-0.30222" x2="-0.174723" y2="-0.0894446" style="stroke:rgb(246,147,147);stroke-width:0.01" />
<line x1="-0.174723" y1="-0.0894446" x2="0.104425" y2="0.133106" style="stroke:rgb(246,147,147);stroke-width:0.01" />
<line x1="0.214828" y1="-0.182612" x2="0.291861" y2="-0.163048" style="stroke:rgb(246,147,147);stroke-width:0.01" />
<line x1="0.178695" y1="0.174081" x2="0.150675" y2="0.28644" style="stroke:rgb(246,147,147);stroke-width:0.01" />
<line x1="0.214828" y1="-0.182612" x2="0.135569" y2="0.114731" style="stroke:rgb(246,147,147);stroke-width:0.01" />
<line x1="0.291861" y1="-0.163048" x2="0.272596" y2="-0.0871901" style="stroke:rgb(246,147,147);stroke-width:0.01" />
<line x1="-0.118616" y1="-0.30222" x2="-0.140915" y2="-0.298549" style="stroke:rgb(246,147,147);stroke-width:0.01" />
<line x1="-0.110819" y1="-0.152765" x2="0.272596" y2="-0.0871901" style="stroke:rgb(246,147,147);stroke-width:0.01" />
<line x1="-0.172242" y1="-0.126894" x2="0.164425" y2="-0.104869" style="stroke:rgb(246,147,147);stroke-width:0.01" />
<line x1="-0.0655749" y1="-0.210227" x2="-0.172242" y2="-0.126894" style="stroke:rgb(246,147,147);stroke-width:0.01" />
<line x1="0.0377585" y1="-0.251894" x2="-0.279408" y2="0.0364396" style="stroke:rgb(246,147,147);stroke-width:0.01" />
<line x1="0.0377585" y1="-0.251894" x2="-0.0655749" y2="-0.210227" style="stroke:rgb(246,147,147);stroke-width:0.01" />
<line x1="-0.00966024" y1="-0.175902" x2="-0.110819" y2="-0.152765" style="stroke:rgb(246,147,147);stroke-width:0.01" />
<line x1="-0.00966024" y1="-0.175902" x2="-0.174723" y2="-0.0894446" style="stroke:rgb(246,147,147);stroke-width:0.01" />
<line x1="0.171092" y1="-0.105227" x2="-0.163942" y2="-0.0679461" style="stroke:rgb(246,147,147);stroke-width:0.01" />
<line x1="-0.183908" y1="0.0514396" x2="0.135569" y2="0.114731" style="stroke:rgb(246,147,147);stroke-width:0.01" />
<line x1="0.0394983" y1="0.14673" x2="0.178695" y2="0.174081" style="stroke:rgb(246,147,147);stroke-width:0.01" />
<line x1="-0.279408" y1="0.0364396" x2="0.154022" y2="0.0364396" style="stroke:rgb(246,147,147);stroke-width:0.01" />
<line x1="0.214828" y1="-0.182612" x2="-0.183908" y2="0.0514396" style="stroke:rgb(246,147,147);stroke-width:0.01" />
<line x1="0.171092" y1="-0.105227" x2="-0.21639" y2="0.179241" style="stroke:rgb(246,147,147);stroke-width:0.01" />
<line x1="0.154022" y1="0.0364396" x2="0.0394983" y2="0.14673" style="stroke:rgb(246,147,147);stroke-width:0.01" />
<line x1="0.272596" y1="-0.0871901" x2="-0.102242" y2="0.15644" style="stroke:rgb(246,147,147);stroke-width:0.01" />
<line x1="-0.292347" y1="0.17199" x2="-0.21639" y2="0.179241" style="stroke:rgb(246,147,147);stroke-width:0.01" />
<line x1="0.206092" y1="0.0547729" x2="0.104425" y2="0.133106" style="stroke:rgb(246,147,147);stroke-width:0.01" />
<line x1="0.104425" y1="0.133106" x2="-0.102242" y2="0.15644" style="stroke:rgb(246,147,147);stroke-width:0.01" />
<line x1="0.206092" y1="0.0547729" x2="-0.0688918" y2="0.138916" style="stroke:rgb(246,147,147);stroke-width:0.01" />
<line x1="0.150675" y1="0.28644" x2="0.164425" y2="0.28644" style="stroke:rgb(246,147,147);stroke-width:0.01" />
</g>
</svg>
