<svg xmlns="http://www.w3.org/2000/svg" viewBox="-1.5 -1.5 3 3">
<g transform="scale(1, -1)">
<path d="M2.500000 2.000000 L2.750000 2.000000 L2.750000 2.500000 L2.500000 2.750000 L2.000000 2.750000 L2.000000 2.375000 L2.125000 2.375000 z " fill="rgb(245,195,195)" />
<path d="M0.000000 0.000000 L1.000000 0.000000 L1.000000 1.000000 L0.000000 1.000000  z" fill="none" stroke="rgb(128,128,128)" stroke-width="0.01" />
<line x1="2.625" y1="2.375" x2="2.75" y2="2.5" style="stroke:rgb(246,147,147);stroke-width:0.01" />
<line x1="2" y1="2.375" x2="2" y2="2.75" style="stroke:rgb(246,147,147);stroke-width:0.01" />
<line x1="2.5" y1="2" x2="2.5" y2="2.75" style="stroke:rgb(246,147,147);stroke-width:0.01" />
<line x1="2.75" y1="2" x2="2.75" y2="2.5" style="stroke:rgb(246,147,147);stroke-width:0.01" />
<line x1="2.5" y1="2" x2="2.75" y2="2" style="stroke:rgb(246,147,147);stroke-width:0.01" />
<line x1="2.5" y1="2" x2="2" y2="2.5" style="stroke:rgb(246,147,147);stroke-width:0.01" />
<line x1="2" y1="2.375" x2="2.75" y2="2.375" style="stroke:rgb(246,147,147);stroke-width:0.01" />
<line x1="2" y1="2.5" x2="2.75" y2="2.5" style="stroke:rgb(246,147,147);stroke-width:0.01" />
<line x1="2.625" y1="2.375" x2="2.5" y2="2.5" style="stroke:rgb(246,147,147);stroke-width:0.01" />
<line x1="2.75" y1="2.5" x2="2.5" y2="2.75" style="stroke:rgb(246,147,147);stroke-width:0.01" />
<line x1="2" y1="2.75" x2="2.5" y2="2.75" style="stroke:rgb(246,147,147);stroke-width:0.01" />
</g>
</svg>
