<svg xmlns="http://www.w3.org/2000/svg" viewBox="-1.5 -1.5 3 3">
<g transform="scale(1, -1)">
<path d="M5.497747 7.129960 L5.955708 7.296140 L5.955500 7.296713 L5.979592 7.305489 L5.800302 7.797659 L5.318655 7.622543 z " fill="rgb(245,195,195)" />
<path d="M0.000000 0.000000 L1.000000 0.000000 L1.000000 1.000000 L0.000000 1.000000  z" fill="none" stroke="rgb(128,128,128)" stroke-width="0.01" />
<line x1="5.49775" y1="7.12996" x2="5.31866" y2="7.62254" style="stroke:rgb(246,147,147);stroke-width:0.01" />
<line x1="5.95571" y1="7.29614" x2="5.77682" y2="7.78912" style="stroke:rgb(246,147,147);stroke-width:0.01" />
<line x1="5.96273" y1="7.35003" x2="5.8003" y2="7.79766" style="stroke:rgb(246,147,147);stroke-width:0.01" />
<line x1="5.9396" y1="7.34228" x2="5.77682" y2="7.78912" style="stroke:rgb(246,147,147);stroke-width:0.01" />
<line x1="5.97959" y1="7.30549" x2="5.8003" y2="7.79766" style="stroke:rgb(246,147,147);stroke-width:0.01" />
<line x1="5.49775" y1="7.12996" x2="5.97959" y2="7.30549" style="stroke:rgb(246,147,147);stroke-width:0.01" />
<line x1="5.49775" y1="7.12996" x2="5.95571" y2="7.29614" style="stroke:rgb(246,147,147);stroke-width:0.01" />
<line x1="5.48126" y1="7.17532" x2="5.9396" y2="7.34228" style="stroke:rgb(246,147,147);stroke-width:0.01" />
<line x1="5.48126" y1="7.17532" x2="5.96273" y2="7.35003" style="stroke:rgb(246,147,147);stroke-width:0.01" />
<line x1="5.31866" y1="7.62254" x2="5.8003" y2="7.79766" style="stroke:rgb(246,147,147);stroke-width:0.01" />
</g>
</svg>
