<svg xmlns="http://www.w3.org/2000/svg" viewBox="-1.5 -1.5 3 3">
<g transform="scale(1, -1)">
<path d="M-0.253503 -0.278124 L0.204457 -0.111944 L0.204249 -0.111371 L0.228341 -0.102595 L0.049051 0.389575 L-0.432596 0.214459 z " fill="rgb(245,195,195)" />
<path d="M-5.751251 -7.408084 L-4.751251 -7.408084 L-4.751251 -6.408084 L-5.751251 -6.408084  z" fill="none" stroke="rgb(128,128,128)" stroke-width="0.01" />
<line x1="-0.253503" y1="-0.278124" x2="-0.432596" y2="0.214459" style="stroke:rgb(246,147,147);stroke-width:0.01" />
<line x1="0.204457" y1="-0.111944" x2="0.0255692" y2="0.381038" style="stroke:rgb(246,147,147);stroke-width:0.01" />
<line x1="0.211482" y1="-0.0580557" x2="0.0490509" y2="0.389575" style="stroke:rgb(246,147,147);stroke-width:0.01" />
<line x1="0.188347" y1="-0.065802" x2="0.0255692" y2="0.381038" style="stroke:rgb(246,147,147);stroke-width:0.01" />
<line x1="0.228341" y1="-0.102595" x2="0.0490509" y2="0.389575" style="stroke:rgb(246,147,147);stroke-width:0.01" />
<line x1="-0.253503" y1="-0.278124" x2="0.228341" y2="-0.102595" style="stroke:rgb(246,147,147);stroke-width:0.01" />
<line x1="-0.253503" y1="-0.278124" x2="0.204457" y2="-0.111944" style="stroke:rgb(246,147,147);stroke-width:0.01" />
<line x1="-0.269994" y1="-0.232769" x2="0.188347" y2="-0.065802" style="stroke:rgb(246,147,147);stroke-width:0.01" />
<line x1="-0.269994" y1="-0.232769" x2="0.211482" y2="-0.0580557" style="stroke:rgb(246,147,147);stroke-width:0.01" />
<line x1="-0.432596" y1="0.214459" x2="0.0490509" y2="0.389575" style="stroke:rgb(246,147,147);stroke-width:0.01" />
</g>
</svg>
