<svg xmlns="http://www.w3.org/2000/svg" viewBox="-1.5 -1.5 3 3">
<g transform="scale(1, -1)">
<path d="M-0.310417 -0.358878 L0.116920 -0.326375 L0.107440 -0.201735 L0.224440 -0.157735 L0.106168 0.156761 L0.151096 0.173657 L0.060582 0.414343 L-0.456232 0.299961 z " fill="rgb(245,195,195)" />
<path d="M-5.784904 -7.178343 L-4.784904 -7.178343 L-4.784904 -6.178343 L-5.784904 -6.178343  z" fill="none" stroke="rgb(128,128,128)" stroke-width="0.01" />
<line x1="0.0435764" y1="0.00501714" x2="0.0132404" y2="0.403865" style="stroke:rgb(246,147,147);stroke-width:0.01" />
<line x1="0.11692" y1="-0.326375" x2="0.0605821" y2="0.414343" style="stroke:rgb(246,147,147);stroke-width:0.01" />
<line x1="-0.310417" y1="-0.358878" x2="-0.456232" y2="0.299961" style="stroke:rgb(246,147,147);stroke-width:0.01" />
<line x1="0.22444" y1="-0.157735" x2="0.0132404" y2="0.403865" style="stroke:rgb(246,147,147);stroke-width:0.01" />
<line x1="0.151096" y1="0.173657" x2="0.0605821" y2="0.414343" style="stroke:rgb(246,147,147);stroke-width:0.01" />
<line x1="-0.310417" y1="-0.358878" x2="0.22444" y2="-0.157735" style="stroke:rgb(246,147,147);stroke-width:0.01" />
<line x1="-0.383761" y1="-0.0274857" x2="0.151096" y2="0.173657" style="stroke:rgb(246,147,147);stroke-width:0.01" />
<line x1="-0.456232" y1="0.299961" x2="0.0605821" y2="0.414343" style="stroke:rgb(246,147,147);stroke-width:0.01" />
<line x1="-0.310417" y1="-0.358878" x2="0.11692" y2="-0.326375" style="stroke:rgb(246,147,147);stroke-width:0.01" />
<line x1="-0.383761" y1="-0.0274857" x2="0.0435764" y2="0.00501714" style="stroke:rgb(246,147,147);stroke-width:0.01" />
</g>
</svg>
