<svg xmlns="http://www.w3.org/2000/svg" viewBox="-1.5 -1.5 3 3">
<g transform="scale(1, -1)">
<path d="M5.474487 6.819465 L5.901824 6.851968 L5.892344 6.976608 L6.009344 7.020608 L5.891072 7.335104 L5.936000 7.352000 L5.845486 7.592686 L5.328672 7.478304 z " fill="rgb(245,195,195)" />
<path d="M0.000000 0.000000 L1.000000 0.000000 L1.000000 1.000000 L0.000000 1.000000  z" fill="none" stroke="rgb(128,128,128)" stroke-width="0.01" />
<line x1="5.82848" y1="7.18336" x2="5.79814" y2="7.58221" style="stroke:rgb(246,147,147);stroke-width:0.01" />
<line x1="5.90182" y1="6.85197" x2="5.84549" y2="7.59269" style="stroke:rgb(246,147,147);stroke-width:0.01" />
<line x1="5.47449" y1="6.81947" x2="5.32867" y2="7.4783" style="stroke:rgb(246,147,147);stroke-width:0.01" />
<line x1="6.00934" y1="7.02061" x2="5.79814" y2="7.58221" style="stroke:rgb(246,147,147);stroke-width:0.01" />
<line x1="5.936" y1="7.352" x2="5.84549" y2="7.59269" style="stroke:rgb(246,147,147);stroke-width:0.01" />
<line x1="5.47449" y1="6.81947" x2="6.00934" y2="7.02061" style="stroke:rgb(246,147,147);stroke-width:0.01" />
<line x1="5.40114" y1="7.15086" x2="5.936" y2="7.352" style="stroke:rgb(246,147,147);stroke-width:0.01" />
<line x1="5.32867" y1="7.4783" x2="5.84549" y2="7.59269" style="stroke:rgb(246,147,147);stroke-width:0.01" />
<line x1="5.47449" y1="6.81947" x2="5.90182" y2="6.85197" style="stroke:rgb(246,147,147);stroke-width:0.01" />
<line x1="5.40114" y1="7.15086" x2="5.82848" y2="7.18336" style="stroke:rgb(246,147,147);stroke-width:0.01" />
</g>
</svg>
