<svg xmlns="http://www.w3.org/2000/svg" viewBox="-1.5 -1.5 3 3">
<g transform="scale(1, -1)">
<path d="M-0.042761 -0.270457 L0.362802 -0.194911 L0.365039 -0.129338 L0.409075 -0.078091 L0.146174 0.239313 L-0.185596 0.183169 L-0.204700 0.059436 L-0.204232 0.059363 L-0.253276 -0.032010 z M0.037400 -0.054173 L-0.025063 0.019058 L0.016236 0.025324 L0.050971 0.019961 L0.059432 0.005272 z M-0.121927 0.018683 L-0.195089 0.057952 L-0.112258 0.045163 L-0.102227 0.026286 z " fill="rgb(245,195,195)" />
<path d="M0.146174 -0.029058 L1.146174 -0.029058 L1.146174 0.970942 L0.146174 0.970942  z" fill="none" stroke="rgb(128,128,128)" stroke-width="0.01" />
<line x1="-0.0427615" y1="-0.270457" x2="-0.253276" y2="-0.0320098" style="stroke:rgb(246,147,147);stroke-width:0.01" />
<line x1="-0.0427615" y1="-0.270457" x2="0.362802" y2="-0.194911" style="stroke:rgb(246,147,147);stroke-width:0.01" />
<line x1="0.298381" y1="-0.206911" x2="0.409075" y2="-0.0780915" style="stroke:rgb(246,147,147);stroke-width:0.01" />
<line x1="0.182586" y1="-0.208545" x2="0.409075" y2="-0.0780915" style="stroke:rgb(246,147,147);stroke-width:0.01" />
<line x1="-0.0929144" y1="0.00876264" x2="-0.185596" y2="0.183169" style="stroke:rgb(246,147,147);stroke-width:0.01" />
<line x1="0.298381" y1="-0.206911" x2="-0.202776" y2="0.0620775" style="stroke:rgb(246,147,147);stroke-width:0.01" />
<line x1="0.185597" y1="-0.22792" x2="-0.0488119" y2="0.046901" style="stroke:rgb(246,147,147);stroke-width:0.01" />
<line x1="0.185597" y1="-0.22792" x2="0.289122" y2="0.0667294" style="stroke:rgb(246,147,147);stroke-width:0.01" />
<line x1="0.182586" y1="-0.208545" x2="-0.0556954" y2="0.205152" style="stroke:rgb(246,147,147);stroke-width:0.01" />
<line x1="0.362802" y1="-0.194911" x2="0.368461" y2="-0.0290576" style="stroke:rgb(246,147,147);stroke-width:0.01" />
<line x1="-0.157671" y1="-0.1403" x2="0.263281" y2="0.0388866" style="stroke:rgb(246,147,147);stroke-width:0.01" />
<line x1="-0.0427615" y1="-0.270457" x2="0.146174" y2="0.239313" style="stroke:rgb(246,147,147);stroke-width:0.01" />
<line x1="0.368461" y1="-0.0290576" x2="-0.2047" y2="0.0594356" style="stroke:rgb(246,147,147);stroke-width:0.01" />
<line x1="-0.0929144" y1="0.00876264" x2="-0.0556954" y2="0.205152" style="stroke:rgb(246,147,147);stroke-width:0.01" />
<line x1="0.362802" y1="-0.194911" x2="0.263281" y2="0.0388866" style="stroke:rgb(246,147,147);stroke-width:0.01" />
<line x1="-0.2047" y1="0.0594356" x2="-0.185596" y2="0.183169" style="stroke:rgb(246,147,147);stroke-width:0.01" />
<line x1="-0.0929144" y1="0.00876264" x2="0.289122" y2="0.0667294" style="stroke:rgb(246,147,147);stroke-width:0.01" />
<line x1="-0.157671" y1="-0.1403" x2="-0.0488119" y2="0.046901" style="stroke:rgb(246,147,147);stroke-width:0.01" />
<line x1="0.409075" y1="-0.0780915" x2="0.146174" y2="0.239313" style="stroke:rgb(246,147,147);stroke-width:0.01" />
<line x1="-0.253276" y1="-0.0320098" x2="-0.0488119" y2="0.046901" style="stroke:rgb(246,147,147);stroke-width:0.01" />
<line x1="-0.253276" y1="-0.0320098" x2="-0.202776" y2="0.0620775" style="stroke:rgb(246,147,147);stroke-width:0.01" />
<line x1="-0.185596" y1="0.183169" x2="0.146174" y2="0.239313" style="stroke:rgb(246,147,147);stroke-width:0.01" />
</g>
</svg>
