<svg xmlns="http://www.w3.org/2000/svg" viewBox="-1.5 -1.5 3 3">
<g transform="scale(1, -1)">
<path d="M-0.188936 -0.241399 L0.216627 -0.165853 L0.218865 -0.100280 L0.262901 -0.049034 L0.000000 0.268371 L-0.331770 0.212227 L-0.350874 0.088493 L-0.350407 0.088421 L-0.399450 -0.002952 z M-0.108775 -0.025116 L-0.171237 0.048115 L-0.129938 0.054382 L-0.095204 0.049019 L-0.086743 0.034329 z M-0.268101 0.047741 L-0.341263 0.087009 L-0.258432 0.074221 L-0.248401 0.055344 z " fill="rgb(245,195,195)" />
<path d="M0.000000 0.000000 L1.000000 0.000000 L1.000000 1.000000 L0.000000 1.000000  z" fill="none" stroke="rgb(128,128,128)" stroke-width="0.01" />
<line x1="-0.188936" y1="-0.241399" x2="-0.39945" y2="-0.00295222" style="stroke:rgb(246,147,147);stroke-width:0.01" />
<line x1="-0.188936" y1="-0.241399" x2="0.216627" y2="-0.165853" style="stroke:rgb(246,147,147);stroke-width:0.01" />
<line x1="0.152207" y1="-0.177853" x2="0.262901" y2="-0.0490339" style="stroke:rgb(246,147,147);stroke-width:0.01" />
<line x1="0.0364115" y1="-0.179487" x2="0.262901" y2="-0.0490339" style="stroke:rgb(246,147,147);stroke-width:0.01" />
<line x1="-0.239089" y1="0.0378202" x2="-0.33177" y2="0.212227" style="stroke:rgb(246,147,147);stroke-width:0.01" />
<line x1="0.152207" y1="-0.177853" x2="-0.34895" y2="0.091135" style="stroke:rgb(246,147,147);stroke-width:0.01" />
<line x1="0.0394228" y1="-0.198862" x2="-0.194986" y2="0.0759586" style="stroke:rgb(246,147,147);stroke-width:0.01" />
<line x1="0.0394228" y1="-0.198862" x2="0.142948" y2="0.095787" style="stroke:rgb(246,147,147);stroke-width:0.01" />
<line x1="0.0364115" y1="-0.179487" x2="-0.20187" y2="0.234209" style="stroke:rgb(246,147,147);stroke-width:0.01" />
<line x1="0.216627" y1="-0.165853" x2="0.222287" y2="0" style="stroke:rgb(246,147,147);stroke-width:0.01" />
<line x1="-0.303845" y1="-0.111243" x2="0.117107" y2="0.0679442" style="stroke:rgb(246,147,147);stroke-width:0.01" />
<line x1="-0.188936" y1="-0.241399" x2="0" y2="0.268371" style="stroke:rgb(246,147,147);stroke-width:0.01" />
<line x1="0.222287" y1="0" x2="-0.350874" y2="0.0884932" style="stroke:rgb(246,147,147);stroke-width:0.01" />
<line x1="-0.239089" y1="0.0378202" x2="-0.20187" y2="0.234209" style="stroke:rgb(246,147,147);stroke-width:0.01" />
<line x1="0.216627" y1="-0.165853" x2="0.117107" y2="0.0679442" style="stroke:rgb(246,147,147);stroke-width:0.01" />
<line x1="-0.350874" y1="0.0884932" x2="-0.33177" y2="0.212227" style="stroke:rgb(246,147,147);stroke-width:0.01" />
<line x1="-0.239089" y1="0.0378202" x2="0.142948" y2="0.095787" style="stroke:rgb(246,147,147);stroke-width:0.01" />
<line x1="-0.303845" y1="-0.111243" x2="-0.194986" y2="0.0759586" style="stroke:rgb(246,147,147);stroke-width:0.01" />
<line x1="0.262901" y1="-0.0490339" x2="0" y2="0.268371" style="stroke:rgb(246,147,147);stroke-width:0.01" />
<line x1="-0.39945" y1="-0.00295222" x2="-0.194986" y2="0.0759586" style="stroke:rgb(246,147,147);stroke-width:0.01" />
<line x1="-0.39945" y1="-0.00295222" x2="-0.34895" y2="0.091135" style="stroke:rgb(246,147,147);stroke-width:0.01" />
<line x1="-0.33177" y1="0.212227" x2="0" y2="0.268371" style="stroke:rgb(246,147,147);stroke-width:0.01" />
</g>
</svg>
