<svg xmlns="http://www.w3.org/2000/svg" viewBox="-1.5 -1.5 3 3">
<g transform="scale(1, -1)">
<path d="M-0.595693 -0.439590 L0.491390 -0.077229 L0.604604 0.109089 L0.404307 0.230797 L0.226521 0.130792 L0.147164 0.236600 L-0.005613 0.122017 L-0.234438 0.213752 L-0.385407 -0.162828 L-0.652836 -0.363400 z " fill="rgb(245,195,195)" />
<path d="M-0.595693 -0.534828 L0.404307 -0.534828 L0.404307 0.465172 L-0.595693 0.465172  z" fill="none" stroke="rgb(128,128,128)" stroke-width="0.01" />
<line x1="0.49139" y1="-0.0772291" x2="0.604604" y2="0.109089" style="stroke:rgb(246,147,147);stroke-width:0.01" />
<line x1="-0.481038" y1="-0.401372" x2="-0.234438" y2="0.213752" style="stroke:rgb(246,147,147);stroke-width:0.01" />
<line x1="-0.595693" y1="-0.43959" x2="-0.595693" y2="-0.331703" style="stroke:rgb(246,147,147);stroke-width:0.01" />
<line x1="0.404307" y1="-0.106257" x2="0.404307" y2="0.230797" style="stroke:rgb(246,147,147);stroke-width:0.01" />
<line x1="-0.595693" y1="-0.43959" x2="-0.652836" y2="-0.3634" style="stroke:rgb(246,147,147);stroke-width:0.01" />
<line x1="-0.595693" y1="-0.43959" x2="0.49139" y2="-0.0772291" style="stroke:rgb(246,147,147);stroke-width:0.01" />
<line x1="-0.652836" y1="-0.3634" x2="0.147164" y2="0.2366" style="stroke:rgb(246,147,147);stroke-width:0.01" />
<line x1="-0.481038" y1="-0.401372" x2="-0.595693" y2="-0.331703" style="stroke:rgb(246,147,147);stroke-width:0.01" />
<line x1="-0.595693" y1="-0.331703" x2="0.404307" y2="0.230797" style="stroke:rgb(246,147,147);stroke-width:0.01" />
<line x1="0.404307" y1="-0.106257" x2="0.147164" y2="0.2366" style="stroke:rgb(246,147,147);stroke-width:0.01" />
<line x1="0.49139" y1="-0.0772291" x2="-0.234438" y2="0.213752" style="stroke:rgb(246,147,147);stroke-width:0.01" />
<line x1="0.604604" y1="0.109089" x2="0.404307" y2="0.230797" style="stroke:rgb(246,147,147);stroke-width:0.01" />
</g>
</svg>
