<svg xmlns="http://www.w3.org/2000/svg" viewBox="-1.5 -1.5 3 3">
<g transform="scale(1, -1)">
<path d="M0.172365 1.966979 L0.177982 1.982682 L0.231110 1.975345 L0.469252 2.641050 L0.199362 2.826831 L0.058369 2.749386 L0.162489 2.559830 L0.155048 2.505951 L-0.081268 2.166802 L0.012044 2.093287 L0.009606 1.970202 z " fill="rgb(245,195,195)" />
<path d="M0.000000 0.000000 L1.000000 0.000000 L1.000000 1.000000 L0.000000 1.000000  z" fill="none" stroke="rgb(128,128,128)" stroke-width="0.01" />
<line x1="0.00960596" y1="1.9702" x2="0.0162716" y2="2.30679" style="stroke:rgb(246,147,147);stroke-width:0.01" />
<line x1="0.0845653" y1="1.99558" x2="0.199362" y2="2.82683" style="stroke:rgb(246,147,147);stroke-width:0.01" />
<line x1="0.158938" y1="2.18478" x2="0.22307" y2="2.42577" style="stroke:rgb(246,147,147);stroke-width:0.01" />
<line x1="0.23111" y1="1.97534" x2="0.469252" y2="2.64105" style="stroke:rgb(246,147,147);stroke-width:0.01" />
<line x1="0.172365" y1="1.96698" x2="0.351183" y2="2.46685" style="stroke:rgb(246,147,147);stroke-width:0.01" />
<line x1="0.351183" y1="2.46685" x2="0.26141" y2="2.6586" style="stroke:rgb(246,147,147);stroke-width:0.01" />
<line x1="0.330668" y1="2.25365" x2="0.0583694" y2="2.74939" style="stroke:rgb(246,147,147);stroke-width:0.01" />
<line x1="-0.0812679" y1="2.1668" x2="0.26141" y2="2.6586" style="stroke:rgb(246,147,147);stroke-width:0.01" />
<line x1="0.269693" y1="2.23905" x2="0.118556" y2="2.45358" style="stroke:rgb(246,147,147);stroke-width:0.01" />
<line x1="0.172365" y1="1.96698" x2="-0.0812679" y2="2.1668" style="stroke:rgb(246,147,147);stroke-width:0.01" />
<line x1="0.158938" y1="2.18478" x2="0.0181329" y2="2.30946" style="stroke:rgb(246,147,147);stroke-width:0.01" />
<line x1="0.14735" y1="2.2052" x2="0.0162716" y2="2.30679" style="stroke:rgb(246,147,147);stroke-width:0.01" />
<line x1="0.23111" y1="1.97534" x2="-0.0812679" y2="2.1668" style="stroke:rgb(246,147,147);stroke-width:0.01" />
<line x1="0.250319" y1="2.18489" x2="0.0181329" y2="2.30946" style="stroke:rgb(246,147,147);stroke-width:0.01" />
<line x1="0.158938" y1="2.18478" x2="0.330668" y2="2.25365" style="stroke:rgb(246,147,147);stroke-width:0.01" />
<line x1="0.0162716" y1="2.30679" x2="0.351183" y2="2.46685" style="stroke:rgb(246,147,147);stroke-width:0.01" />
<line x1="0.172365" y1="1.96698" x2="0.00960596" y2="1.9702" style="stroke:rgb(246,147,147);stroke-width:0.01" />
<line x1="0.23111" y1="1.97534" x2="0.0845653" y2="1.99558" style="stroke:rgb(246,147,147);stroke-width:0.01" />
<line x1="0.14735" y1="2.2052" x2="0.269693" y2="2.23905" style="stroke:rgb(246,147,147);stroke-width:0.01" />
<line x1="0.469252" y1="2.64105" x2="0.199362" y2="2.82683" style="stroke:rgb(246,147,147);stroke-width:0.01" />
<line x1="0.0583694" y1="2.74939" x2="0.199362" y2="2.82683" style="stroke:rgb(246,147,147);stroke-width:0.01" />
<line x1="0.250319" y1="2.18489" x2="0.14735" y2="2.2052" style="stroke:rgb(246,147,147);stroke-width:0.01" />
<line x1="0.22307" y1="2.42577" x2="0.118556" y2="2.45358" style="stroke:rgb(246,147,147);stroke-width:0.01" />
<line x1="0.469252" y1="2.64105" x2="0.26141" y2="2.6586" style="stroke:rgb(246,147,147);stroke-width:0.01" />
</g>
</svg>
