<svg xmlns="http://www.w3.org/2000/svg" viewBox="-1.5 -1.5 3 3">
<g transform="scale(1, -1)">
<path d="M0.029968 -0.345598 L0.035586 -0.329895 L0.088714 -0.337232 L0.326856 0.328473 L0.056966 0.514254 L-0.084027 0.436809 L0.020093 0.247253 L0.012652 0.193374 L-0.223664 -0.145774 L-0.130353 -0.219290 L-0.132790 -0.342375 z " fill="rgb(245,195,195)" />
<path d="M-0.142396 -2.312577 L0.857604 -2.312577 L0.857604 -1.312577 L-0.142396 -1.312577  z" fill="none" stroke="rgb(128,128,128)" stroke-width="0.01" />
<line x1="-0.13279" y1="-0.342375" x2="-0.126125" y2="-0.00579081" style="stroke:rgb(246,147,147);stroke-width:0.01" />
<line x1="-0.057831" y1="-0.316994" x2="0.056966" y2="0.514254" style="stroke:rgb(246,147,147);stroke-width:0.01" />
<line x1="0.0165421" y1="-0.1278" x2="0.0806736" y2="0.113189" style="stroke:rgb(246,147,147);stroke-width:0.01" />
<line x1="0.0887135" y1="-0.337232" x2="0.326856" y2="0.328473" style="stroke:rgb(246,147,147);stroke-width:0.01" />
<line x1="0.0299684" y1="-0.345598" x2="0.208787" y2="0.154273" style="stroke:rgb(246,147,147);stroke-width:0.01" />
<line x1="0.208787" y1="0.154273" x2="0.119014" y2="0.346019" style="stroke:rgb(246,147,147);stroke-width:0.01" />
<line x1="0.188272" y1="-0.0589267" x2="-0.0840269" y2="0.436809" style="stroke:rgb(246,147,147);stroke-width:0.01" />
<line x1="-0.223664" y1="-0.145774" x2="0.119014" y2="0.346019" style="stroke:rgb(246,147,147);stroke-width:0.01" />
<line x1="0.127297" y1="-0.0735259" x2="-0.0238403" y2="0.141002" style="stroke:rgb(246,147,147);stroke-width:0.01" />
<line x1="0.0299684" y1="-0.345598" x2="-0.223664" y2="-0.145774" style="stroke:rgb(246,147,147);stroke-width:0.01" />
<line x1="0.0165421" y1="-0.1278" x2="-0.124263" y2="-0.00311962" style="stroke:rgb(246,147,147);stroke-width:0.01" />
<line x1="0.00495413" y1="-0.10738" x2="-0.126125" y2="-0.00579081" style="stroke:rgb(246,147,147);stroke-width:0.01" />
<line x1="0.0887135" y1="-0.337232" x2="-0.223664" y2="-0.145774" style="stroke:rgb(246,147,147);stroke-width:0.01" />
<line x1="0.107923" y1="-0.127684" x2="-0.124263" y2="-0.00311962" style="stroke:rgb(246,147,147);stroke-width:0.01" />
<line x1="0.0165421" y1="-0.1278" x2="0.188272" y2="-0.0589267" style="stroke:rgb(246,147,147);stroke-width:0.01" />
<line x1="-0.126125" y1="-0.00579081" x2="0.208787" y2="0.154273" style="stroke:rgb(246,147,147);stroke-width:0.01" />
<line x1="0.0299684" y1="-0.345598" x2="-0.13279" y2="-0.342375" style="stroke:rgb(246,147,147);stroke-width:0.01" />
<line x1="0.0887135" y1="-0.337232" x2="-0.057831" y2="-0.316994" style="stroke:rgb(246,147,147);stroke-width:0.01" />
<line x1="0.00495413" y1="-0.10738" x2="0.127297" y2="-0.0735259" style="stroke:rgb(246,147,147);stroke-width:0.01" />
<line x1="0.326856" y1="0.328473" x2="0.056966" y2="0.514254" style="stroke:rgb(246,147,147);stroke-width:0.01" />
<line x1="-0.0840269" y1="0.436809" x2="0.056966" y2="0.514254" style="stroke:rgb(246,147,147);stroke-width:0.01" />
<line x1="0.107923" y1="-0.127684" x2="0.00495413" y2="-0.10738" style="stroke:rgb(246,147,147);stroke-width:0.01" />
<line x1="0.0806736" y1="0.113189" x2="-0.0238403" y2="0.141002" style="stroke:rgb(246,147,147);stroke-width:0.01" />
<line x1="0.326856" y1="0.328473" x2="0.119014" y2="0.346019" style="stroke:rgb(246,147,147);stroke-width:0.01" />
</g>
</svg>
