<svg xmlns="http://www.w3.org/2000/svg" viewBox="-1.5 -1.5 3 3">
<g transform="scale(1, -1)">
<path d="M0.211195 -0.334800 L0.222091 -0.332886 L0.611364 -0.043342 L0.608395 -0.039351 L0.019242 0.047206 L-0.040045 0.165192 L-0.281338 0.165192 L-0.281363 0.167716 L-0.535082 0.165192 L-0.534458 0.039882 z " fill="rgb(245,195,195)" />
<path d="M-0.783838 -0.829833 L0.216162 -0.829833 L0.216162 0.170167 L-0.783838 0.170167  z" fill="none" stroke="rgb(128,128,128)" stroke-width="0.01" />
<line x1="0.216608" y1="-0.333849" x2="0.222599" y2="-0.3293" style="stroke:rgb(246,147,147);stroke-width:0.01" />
<line x1="0.222091" y1="-0.332886" x2="0.611364" y2="-0.0433425" style="stroke:rgb(246,147,147);stroke-width:0.01" />
<line x1="0.211187" y1="-0.334796" x2="0.608395" y2="-0.0393505" style="stroke:rgb(246,147,147);stroke-width:0.01" />
<line x1="0.0106365" y1="-0.191814" x2="0.0871297" y2="-0.0878976" style="stroke:rgb(246,147,147);stroke-width:0.01" />
<line x1="-0.189983" y1="-0.0363911" x2="-0.0400446" y2="0.165192" style="stroke:rgb(246,147,147);stroke-width:0.01" />
<line x1="0.211187" y1="-0.334796" x2="0.211187" y2="-0.334784" style="stroke:rgb(246,147,147);stroke-width:0.01" />
<line x1="-0.534458" y1="0.0398816" x2="-0.535082" y2="0.165192" style="stroke:rgb(246,147,147);stroke-width:0.01" />
<line x1="-0.278813" y1="-0.0885772" x2="-0.281363" y2="0.167716" style="stroke:rgb(246,147,147);stroke-width:0.01" />
<line x1="-0.278813" y1="-0.0885772" x2="-0.0736766" y2="0.0608571" style="stroke:rgb(246,147,147);stroke-width:0.01" />
<line x1="0.211195" y1="-0.3348" x2="0.222091" y2="-0.332886" style="stroke:rgb(246,147,147);stroke-width:0.01" />
<line x1="-0.534458" y1="0.0398816" x2="-0.43404" y2="0.113801" style="stroke:rgb(246,147,147);stroke-width:0.01" />
<line x1="0.211195" y1="-0.3348" x2="-0.0400446" y2="0.165192" style="stroke:rgb(246,147,147);stroke-width:0.01" />
<line x1="-0.283838" y1="-0.086052" x2="-0.43404" y2="0.113801" style="stroke:rgb(246,147,147);stroke-width:0.01" />
<line x1="0.222599" y1="-0.3293" x2="-0.0736766" y2="0.0608571" style="stroke:rgb(246,147,147);stroke-width:0.01" />
<line x1="0.222091" y1="-0.332886" x2="0.185543" y2="-0.32191" style="stroke:rgb(246,147,147);stroke-width:0.01" />
<line x1="0.216608" y1="-0.333849" x2="0.197418" y2="-0.327877" style="stroke:rgb(246,147,147);stroke-width:0.01" />
<line x1="0.0871297" y1="-0.0878976" x2="-0.283838" y2="-0.086052" style="stroke:rgb(246,147,147);stroke-width:0.01" />
<line x1="0.185543" y1="-0.32191" x2="0.0106365" y2="-0.191814" style="stroke:rgb(246,147,147);stroke-width:0.01" />
<line x1="0.211195" y1="-0.3348" x2="-0.534458" y2="0.0398816" style="stroke:rgb(246,147,147);stroke-width:0.01" />
<line x1="0.197418" y1="-0.327877" x2="0.0106365" y2="-0.191814" style="stroke:rgb(246,147,147);stroke-width:0.01" />
<line x1="0.211187" y1="-0.334784" x2="-0.189983" y2="-0.0363911" style="stroke:rgb(246,147,147);stroke-width:0.01" />
<line x1="0.611364" y1="-0.0433425" x2="0.608395" y2="-0.0393505" style="stroke:rgb(246,147,147);stroke-width:0.01" />
<line x1="0.608395" y1="-0.0393505" x2="-0.43404" y2="0.113801" style="stroke:rgb(246,147,147);stroke-width:0.01" />
<line x1="-0.535082" y1="0.165192" x2="-0.281363" y2="0.167716" style="stroke:rgb(246,147,147);stroke-width:0.01" />
<line x1="-0.535082" y1="0.165192" x2="-0.0400446" y2="0.165192" style="stroke:rgb(246,147,147);stroke-width:0.01" />
</g>
</svg>
