<svg xmlns="http://www.w3.org/2000/svg" viewBox="-1.5 -1.5 3 3">
<g transform="scale(1, -1)">
<path d="M0.995033 0.495033 L1.005929 0.496947 L1.395202 0.786491 L1.392233 0.790483 L0.803080 0.877039 L0.743793 0.995025 L0.502500 0.995025 L0.502475 0.997550 L0.248756 0.995025 L0.249380 0.869715 z " fill="rgb(245,195,195)" />
<path d="M0.000000 0.000000 L1.000000 0.000000 L1.000000 1.000000 L0.000000 1.000000  z" fill="none" stroke="rgb(128,128,128)" stroke-width="0.01" />
<line x1="1.00045" y1="0.495984" x2="1.00644" y2="0.500534" style="stroke:rgb(246,147,147);stroke-width:0.01" />
<line x1="1.00593" y1="0.496947" x2="1.3952" y2="0.786491" style="stroke:rgb(246,147,147);stroke-width:0.01" />
<line x1="0.995025" y1="0.495037" x2="1.39223" y2="0.790483" style="stroke:rgb(246,147,147);stroke-width:0.01" />
<line x1="0.794475" y1="0.63802" x2="0.870968" y2="0.741935" style="stroke:rgb(246,147,147);stroke-width:0.01" />
<line x1="0.593855" y1="0.793442" x2="0.743793" y2="0.995025" style="stroke:rgb(246,147,147);stroke-width:0.01" />
<line x1="0.995025" y1="0.495037" x2="0.995025" y2="0.49505" style="stroke:rgb(246,147,147);stroke-width:0.01" />
<line x1="0.24938" y1="0.869715" x2="0.248756" y2="0.995025" style="stroke:rgb(246,147,147);stroke-width:0.01" />
<line x1="0.505025" y1="0.741256" x2="0.502475" y2="0.99755" style="stroke:rgb(246,147,147);stroke-width:0.01" />
<line x1="0.505025" y1="0.741256" x2="0.710161" y2="0.89069" style="stroke:rgb(246,147,147);stroke-width:0.01" />
<line x1="0.995033" y1="0.495033" x2="1.00593" y2="0.496947" style="stroke:rgb(246,147,147);stroke-width:0.01" />
<line x1="0.24938" y1="0.869715" x2="0.349798" y2="0.943634" style="stroke:rgb(246,147,147);stroke-width:0.01" />
<line x1="0.995033" y1="0.495033" x2="0.743793" y2="0.995025" style="stroke:rgb(246,147,147);stroke-width:0.01" />
<line x1="0.5" y1="0.743781" x2="0.349798" y2="0.943634" style="stroke:rgb(246,147,147);stroke-width:0.01" />
<line x1="1.00644" y1="0.500534" x2="0.710161" y2="0.89069" style="stroke:rgb(246,147,147);stroke-width:0.01" />
<line x1="1.00593" y1="0.496947" x2="0.969382" y2="0.507923" style="stroke:rgb(246,147,147);stroke-width:0.01" />
<line x1="1.00045" y1="0.495984" x2="0.981256" y2="0.501956" style="stroke:rgb(246,147,147);stroke-width:0.01" />
<line x1="0.870968" y1="0.741935" x2="0.5" y2="0.743781" style="stroke:rgb(246,147,147);stroke-width:0.01" />
<line x1="0.969382" y1="0.507923" x2="0.794475" y2="0.63802" style="stroke:rgb(246,147,147);stroke-width:0.01" />
<line x1="0.995033" y1="0.495033" x2="0.24938" y2="0.869715" style="stroke:rgb(246,147,147);stroke-width:0.01" />
<line x1="0.981256" y1="0.501956" x2="0.794475" y2="0.63802" style="stroke:rgb(246,147,147);stroke-width:0.01" />
<line x1="0.995025" y1="0.49505" x2="0.593855" y2="0.793442" style="stroke:rgb(246,147,147);stroke-width:0.01" />
<line x1="1.3952" y1="0.786491" x2="1.39223" y2="0.790483" style="stroke:rgb(246,147,147);stroke-width:0.01" />
<line x1="1.39223" y1="0.790483" x2="0.349798" y2="0.943634" style="stroke:rgb(246,147,147);stroke-width:0.01" />
<line x1="0.248756" y1="0.995025" x2="0.502475" y2="0.99755" style="stroke:rgb(246,147,147);stroke-width:0.01" />
<line x1="0.248756" y1="0.995025" x2="0.743793" y2="0.995025" style="stroke:rgb(246,147,147);stroke-width:0.01" />
</g>
</svg>
