<svg xmlns="http://www.w3.org/2000/svg" viewBox="-1.5 -1.5 3 3">
<g transform="scale(1, -1)">
<path d="M0.230142 0.862127 L0.230245 0.862178 L0.230245 0.862179 L0.247205 0.870807 L0.247103 0.911601 L0.397833 1.353487 L0.130865 1.884781 L0.021117 1.868098 L0.022293 1.777287 L-0.029865 1.725646 L-0.117247 1.553466 z " fill="rgb(245,195,195)" />
<path d="M0.000000 0.000000 L1.000000 0.000000 L1.000000 1.000000 L0.000000 1.000000  z" fill="none" stroke="rgb(128,128,128)" stroke-width="0.01" />
<line x1="0.218543" y1="0.88521" x2="0.260859" y2="1.1261" style="stroke:rgb(246,147,147);stroke-width:0.01" />
<line x1="0.128184" y1="1.06503" x2="0.131416" y2="1.47103" style="stroke:rgb(246,147,147);stroke-width:0.01" />
<line x1="-0.0315746" y1="1.38297" x2="-0.0298655" y2="1.72565" style="stroke:rgb(246,147,147);stroke-width:0.01" />
<line x1="-0.0348819" y1="1.6922" x2="-0.0346178" y2="1.71628" style="stroke:rgb(246,147,147);stroke-width:0.01" />
<line x1="0.0241499" y1="1.63389" x2="0.0211173" y2="1.8681" style="stroke:rgb(246,147,147);stroke-width:0.01" />
<line x1="0.247205" y1="0.870807" x2="0.245658" y2="1.49121" style="stroke:rgb(246,147,147);stroke-width:0.01" />
<line x1="0.230091" y1="0.862229" x2="0.247098" y2="0.913765" style="stroke:rgb(246,147,147);stroke-width:0.01" />
<line x1="0.230245" y1="0.862178" x2="0.397833" y2="1.35349" style="stroke:rgb(246,147,147);stroke-width:0.01" />
<line x1="-0.0348819" y1="1.6922" x2="-0.0298655" y2="1.72565" style="stroke:rgb(246,147,147);stroke-width:0.01" />
<line x1="-0.0911279" y1="1.50149" x2="-0.0348819" y2="1.6922" style="stroke:rgb(246,147,147);stroke-width:0.01" />
<line x1="0.0356423" y1="1.8192" x2="0.0211173" y2="1.8681" style="stroke:rgb(246,147,147);stroke-width:0.01" />
<line x1="0.247098" y1="0.913765" x2="0.218162" y2="1" style="stroke:rgb(246,147,147);stroke-width:0.01" />
<line x1="0.260414" y1="1.39763" x2="0.185195" y2="1.63181" style="stroke:rgb(246,147,147);stroke-width:0.01" />
<line x1="0.176164" y1="1.35132" x2="0.131416" y2="1.47103" style="stroke:rgb(246,147,147);stroke-width:0.01" />
<line x1="0.230142" y1="0.862127" x2="-0.117247" y2="1.55347" style="stroke:rgb(246,147,147);stroke-width:0.01" />
<line x1="0.160862" y1="1" x2="0.256867" y2="1.12907" style="stroke:rgb(246,147,147);stroke-width:0.01" />
<line x1="-0.117247" y1="1.55347" x2="-0.0298655" y2="1.72565" style="stroke:rgb(246,147,147);stroke-width:0.01" />
<line x1="0.397833" y1="1.35349" x2="0.130865" y2="1.88478" style="stroke:rgb(246,147,147);stroke-width:0.01" />
<line x1="0.0936329" y1="1.56441" x2="0.211433" y2="1.72444" style="stroke:rgb(246,147,147);stroke-width:0.01" />
<line x1="0.176641" y1="0.9686" x2="0.218162" y2="1" style="stroke:rgb(246,147,147);stroke-width:0.01" />
<line x1="0.230142" y1="0.862127" x2="0.247205" y2="0.870807" style="stroke:rgb(246,147,147);stroke-width:0.01" />
<line x1="0.230142" y1="0.862127" x2="0.230245" y2="0.862178" style="stroke:rgb(246,147,147);stroke-width:0.01" />
<line x1="0.118917" y1="1.08348" x2="0.246438" y2="1.17833" style="stroke:rgb(246,147,147);stroke-width:0.01" />
<line x1="0.236245" y1="0.985984" x2="0.128184" y2="1.06503" style="stroke:rgb(246,147,147);stroke-width:0.01" />
<line x1="0.247205" y1="0.870807" x2="0.218543" y2="0.88521" style="stroke:rgb(246,147,147);stroke-width:0.01" />
<line x1="0.260414" y1="1.39763" x2="0.0241499" y2="1.63389" style="stroke:rgb(246,147,147);stroke-width:0.01" />
<line x1="0.176641" y1="0.9686" x2="0.236245" y2="0.985984" style="stroke:rgb(246,147,147);stroke-width:0.01" />
<line x1="0.230245" y1="0.862178" x2="0.230091" y2="0.862229" style="stroke:rgb(246,147,147);stroke-width:0.01" />
<line x1="0.260859" y1="1.1261" x2="0.256867" y2="1.12907" style="stroke:rgb(246,147,147);stroke-width:0.01" />
<line x1="0.246438" y1="1.17833" x2="-0.0315746" y2="1.38297" style="stroke:rgb(246,147,147);stroke-width:0.01" />
<line x1="-0.0298655" y1="1.72565" x2="0.130865" y2="1.88478" style="stroke:rgb(246,147,147);stroke-width:0.01" />
<line x1="0.118917" y1="1.08348" x2="0.260859" y2="1.1261" style="stroke:rgb(246,147,147);stroke-width:0.01" />
<line x1="0.0936329" y1="1.56441" x2="0.185195" y2="1.63181" style="stroke:rgb(246,147,147);stroke-width:0.01" />
<line x1="0.160862" y1="1" x2="0.218162" y2="1" style="stroke:rgb(246,147,147);stroke-width:0.01" />
<line x1="-0.0346178" y1="1.71628" x2="0.147168" y2="1.85234" style="stroke:rgb(246,147,147);stroke-width:0.01" />
<line x1="0.176164" y1="1.35132" x2="0.245942" y2="1.3774" style="stroke:rgb(246,147,147);stroke-width:0.01" />
<line x1="0.245942" y1="1.3774" x2="-0.0911279" y2="1.50149" style="stroke:rgb(246,147,147);stroke-width:0.01" />
<line x1="0.397833" y1="1.35349" x2="0.260414" y2="1.39763" style="stroke:rgb(246,147,147);stroke-width:0.01" />
<line x1="0.131416" y1="1.47103" x2="0.245658" y2="1.49121" style="stroke:rgb(246,147,147);stroke-width:0.01" />
<line x1="0.245658" y1="1.49121" x2="-0.117247" y2="1.55347" style="stroke:rgb(246,147,147);stroke-width:0.01" />
<line x1="0.185195" y1="1.63181" x2="0.0241499" y2="1.63389" style="stroke:rgb(246,147,147);stroke-width:0.01" />
<line x1="0.0356423" y1="1.8192" x2="0.147168" y2="1.85234" style="stroke:rgb(246,147,147);stroke-width:0.01" />
<line x1="0.211433" y1="1.72444" x2="-0.0298655" y2="1.72565" style="stroke:rgb(246,147,147);stroke-width:0.01" />
<line x1="0.0211173" y1="1.8681" x2="0.130865" y2="1.88478" style="stroke:rgb(246,147,147);stroke-width:0.01" />
</g>
</svg>
