<svg xmlns="http://www.w3.org/2000/svg" viewBox="-1.5 -1.5 3 3">
<g transform="scale(1, -1)">
<path d="M0.083784 -0.458933 L0.083887 -0.458882 L0.083887 -0.458880 L0.100847 -0.450252 L0.100745 -0.409459 L0.251476 0.032427 L-0.015493 0.563721 L-0.125241 0.547038 L-0.124065 0.456227 L-0.176223 0.404586 L-0.263605 0.232406 z " fill="rgb(245,195,195)" />
<path d="M-0.146358 -1.321060 L0.853642 -1.321060 L0.853642 -0.321060 L-0.146358 -0.321060  z" fill="none" stroke="rgb(128,128,128)" stroke-width="0.01" />
<line x1="0.0721852" y1="-0.43585" x2="0.114501" y2="-0.194956" style="stroke:rgb(246,147,147);stroke-width:0.01" />
<line x1="-0.0181734" y1="-0.256027" x2="-0.0149415" y2="0.149966" style="stroke:rgb(246,147,147);stroke-width:0.01" />
<line x1="-0.177932" y1="0.061909" x2="-0.176223" y2="0.404586" style="stroke:rgb(246,147,147);stroke-width:0.01" />
<line x1="-0.18124" y1="0.371141" x2="-0.180976" y2="0.395222" style="stroke:rgb(246,147,147);stroke-width:0.01" />
<line x1="-0.122208" y1="0.312831" x2="-0.125241" y2="0.547038" style="stroke:rgb(246,147,147);stroke-width:0.01" />
<line x1="0.100847" y1="-0.450252" x2="0.0993" y2="0.170151" style="stroke:rgb(246,147,147);stroke-width:0.01" />
<line x1="0.0837328" y1="-0.458831" x2="0.10074" y2="-0.407295" style="stroke:rgb(246,147,147);stroke-width:0.01" />
<line x1="0.0838869" y1="-0.458882" x2="0.251476" y2="0.032427" style="stroke:rgb(246,147,147);stroke-width:0.01" />
<line x1="-0.18124" y1="0.371141" x2="-0.176223" y2="0.404586" style="stroke:rgb(246,147,147);stroke-width:0.01" />
<line x1="-0.237486" y1="0.180426" x2="-0.18124" y2="0.371141" style="stroke:rgb(246,147,147);stroke-width:0.01" />
<line x1="-0.110715" y1="0.498145" x2="-0.125241" y2="0.547038" style="stroke:rgb(246,147,147);stroke-width:0.01" />
<line x1="0.10074" y1="-0.407295" x2="0.0718039" y2="-0.32106" style="stroke:rgb(246,147,147);stroke-width:0.01" />
<line x1="0.114057" y1="0.0765665" x2="0.0388372" y2="0.310746" style="stroke:rgb(246,147,147);stroke-width:0.01" />
<line x1="0.029806" y1="0.0302577" x2="-0.0149415" y2="0.149966" style="stroke:rgb(246,147,147);stroke-width:0.01" />
<line x1="0.0837842" y1="-0.458933" x2="-0.263605" y2="0.232406" style="stroke:rgb(246,147,147);stroke-width:0.01" />
<line x1="0.0145045" y1="-0.32106" x2="0.11051" y2="-0.191987" style="stroke:rgb(246,147,147);stroke-width:0.01" />
<line x1="-0.263605" y1="0.232406" x2="-0.176223" y2="0.404586" style="stroke:rgb(246,147,147);stroke-width:0.01" />
<line x1="0.251476" y1="0.032427" x2="-0.0154931" y2="0.563721" style="stroke:rgb(246,147,147);stroke-width:0.01" />
<line x1="-0.0527249" y1="0.243348" x2="0.0650749" y2="0.403383" style="stroke:rgb(246,147,147);stroke-width:0.01" />
<line x1="0.0302827" y1="-0.35246" x2="0.0718039" y2="-0.32106" style="stroke:rgb(246,147,147);stroke-width:0.01" />
<line x1="0.0837842" y1="-0.458933" x2="0.100847" y2="-0.450252" style="stroke:rgb(246,147,147);stroke-width:0.01" />
<line x1="0.0837842" y1="-0.458933" x2="0.0838869" y2="-0.458882" style="stroke:rgb(246,147,147);stroke-width:0.01" />
<line x1="-0.027441" y1="-0.237584" x2="0.10008" y2="-0.142733" style="stroke:rgb(246,147,147);stroke-width:0.01" />
<line x1="0.0898876" y1="-0.335075" x2="-0.0181734" y2="-0.256027" style="stroke:rgb(246,147,147);stroke-width:0.01" />
<line x1="0.100847" y1="-0.450252" x2="0.0721852" y2="-0.43585" style="stroke:rgb(246,147,147);stroke-width:0.01" />
<line x1="0.114057" y1="0.0765665" x2="-0.122208" y2="0.312831" style="stroke:rgb(246,147,147);stroke-width:0.01" />
<line x1="0.0302827" y1="-0.35246" x2="0.0898876" y2="-0.335075" style="stroke:rgb(246,147,147);stroke-width:0.01" />
<line x1="0.0838869" y1="-0.458882" x2="0.0837328" y2="-0.458831" style="stroke:rgb(246,147,147);stroke-width:0.01" />
<line x1="0.114501" y1="-0.194956" x2="0.11051" y2="-0.191987" style="stroke:rgb(246,147,147);stroke-width:0.01" />
<line x1="0.10008" y1="-0.142733" x2="-0.177932" y2="0.061909" style="stroke:rgb(246,147,147);stroke-width:0.01" />
<line x1="-0.176223" y1="0.404586" x2="-0.0154931" y2="0.563721" style="stroke:rgb(246,147,147);stroke-width:0.01" />
<line x1="-0.027441" y1="-0.237584" x2="0.114501" y2="-0.194956" style="stroke:rgb(246,147,147);stroke-width:0.01" />
<line x1="-0.0527249" y1="0.243348" x2="0.0388372" y2="0.310746" style="stroke:rgb(246,147,147);stroke-width:0.01" />
<line x1="0.0145045" y1="-0.32106" x2="0.0718039" y2="-0.32106" style="stroke:rgb(246,147,147);stroke-width:0.01" />
<line x1="-0.180976" y1="0.395222" x2="0.000809893" y2="0.531277" style="stroke:rgb(246,147,147);stroke-width:0.01" />
<line x1="0.029806" y1="0.0302577" x2="0.0995838" y2="0.0563409" style="stroke:rgb(246,147,147);stroke-width:0.01" />
<line x1="0.0995838" y1="0.0563409" x2="-0.237486" y2="0.180426" style="stroke:rgb(246,147,147);stroke-width:0.01" />
<line x1="0.251476" y1="0.032427" x2="0.114057" y2="0.0765665" style="stroke:rgb(246,147,147);stroke-width:0.01" />
<line x1="-0.0149415" y1="0.149966" x2="0.0993" y2="0.170151" style="stroke:rgb(246,147,147);stroke-width:0.01" />
<line x1="0.0993" y1="0.170151" x2="-0.263605" y2="0.232406" style="stroke:rgb(246,147,147);stroke-width:0.01" />
<line x1="0.0388372" y1="0.310746" x2="-0.122208" y2="0.312831" style="stroke:rgb(246,147,147);stroke-width:0.01" />
<line x1="-0.110715" y1="0.498145" x2="0.000809893" y2="0.531277" style="stroke:rgb(246,147,147);stroke-width:0.01" />
<line x1="0.0650749" y1="0.403383" x2="-0.176223" y2="0.404586" style="stroke:rgb(246,147,147);stroke-width:0.01" />
<line x1="-0.125241" y1="0.547038" x2="-0.0154931" y2="0.563721" style="stroke:rgb(246,147,147);stroke-width:0.01" />
</g>
</svg>
