<svg xmlns="http://www.w3.org/2000/svg" viewBox="-1.5 -1.5 3 3">
<g transform="scale(1, -1)">
<path d="M0.589370 0.208529 L0.700124 0.487209 L0.354288 1.000000 L0.000000 1.000000 L0.000000 0.491279 L0.148329 0.490417 L0.112326 0.401336 L0.139247 0.390455 L0.137193 0.385197 z " fill="rgb(245,195,195)" />
<path d="M0.000000 0.000000 L1.000000 0.000000 L1.000000 1.000000 L0.000000 1.000000  z" fill="none" stroke="rgb(128,128,128)" stroke-width="0.01" />
<line x1="0.58937" y1="0.208529" x2="0.700124" y2="0.487209" style="stroke:rgb(246,147,147);stroke-width:0.01" />
<line x1="0" y1="0.491279" x2="0" y2="1" style="stroke:rgb(246,147,147);stroke-width:0.01" />
<line x1="0" y1="0.491279" x2="0.00571235" y2="0.982525" style="stroke:rgb(246,147,147);stroke-width:0.01" />
<line x1="0.137193" y1="0.385197" x2="0.368922" y2="0.978301" style="stroke:rgb(246,147,147);stroke-width:0.01" />
<line x1="0.112326" y1="0.401336" x2="0.354288" y2="1" style="stroke:rgb(246,147,147);stroke-width:0.01" />
<line x1="0.58937" y1="0.208529" x2="0.137193" y2="0.385197" style="stroke:rgb(246,147,147);stroke-width:0.01" />
<line x1="0.58937" y1="0.208529" x2="0.112326" y2="0.401336" style="stroke:rgb(246,147,147);stroke-width:0.01" />
<line x1="0.700124" y1="0.487209" x2="0.354288" y2="1" style="stroke:rgb(246,147,147);stroke-width:0.01" />
<line x1="0.700124" y1="0.487209" x2="0" y2="0.491279" style="stroke:rgb(246,147,147);stroke-width:0.01" />
<line x1="0.368922" y1="0.978301" x2="0.00571235" y2="0.982525" style="stroke:rgb(246,147,147);stroke-width:0.01" />
<line x1="0" y1="1" x2="0.354288" y2="1" style="stroke:rgb(246,147,147);stroke-width:0.01" />
</g>
</svg>
