<svg xmlns="http://www.w3.org/2000/svg" viewBox="-1.5 -1.5 3 3">
<g transform="scale(1, -1)">
<path d="M0.347051 -0.330851 L0.457804 -0.052172 L0.111968 0.460620 L-0.242320 0.460620 L-0.242320 -0.048101 L-0.093990 -0.048963 L-0.129994 -0.138044 L-0.103073 -0.148925 L-0.105127 -0.154183 z " fill="rgb(245,195,195)" />
<path d="M-0.242320 -0.539380 L0.757680 -0.539380 L0.757680 0.460620 L-0.242320 0.460620  z" fill="none" stroke="rgb(128,128,128)" stroke-width="0.01" />
<line x1="0.347051" y1="-0.330851" x2="0.457804" y2="-0.0521716" style="stroke:rgb(246,147,147);stroke-width:0.01" />
<line x1="-0.24232" y1="-0.0481011" x2="-0.24232" y2="0.46062" style="stroke:rgb(246,147,147);stroke-width:0.01" />
<line x1="-0.24232" y1="-0.0481011" x2="-0.236607" y2="0.443145" style="stroke:rgb(246,147,147);stroke-width:0.01" />
<line x1="-0.105127" y1="-0.154183" x2="0.126602" y2="0.438921" style="stroke:rgb(246,147,147);stroke-width:0.01" />
<line x1="-0.129994" y1="-0.138044" x2="0.111968" y2="0.46062" style="stroke:rgb(246,147,147);stroke-width:0.01" />
<line x1="0.347051" y1="-0.330851" x2="-0.105127" y2="-0.154183" style="stroke:rgb(246,147,147);stroke-width:0.01" />
<line x1="0.347051" y1="-0.330851" x2="-0.129994" y2="-0.138044" style="stroke:rgb(246,147,147);stroke-width:0.01" />
<line x1="0.457804" y1="-0.0521716" x2="0.111968" y2="0.46062" style="stroke:rgb(246,147,147);stroke-width:0.01" />
<line x1="0.457804" y1="-0.0521716" x2="-0.24232" y2="-0.0481011" style="stroke:rgb(246,147,147);stroke-width:0.01" />
<line x1="0.126602" y1="0.438921" x2="-0.236607" y2="0.443145" style="stroke:rgb(246,147,147);stroke-width:0.01" />
<line x1="-0.24232" y1="0.46062" x2="0.111968" y2="0.46062" style="stroke:rgb(246,147,147);stroke-width:0.01" />
</g>
</svg>
