<svg xmlns="http://www.w3.org/2000/svg" viewBox="-1.5 -1.5 3 3">
<g transform="scale(1, -1)">
<path d="M0.429467 -0.344193 L0.529467 -0.269192 L0.429467 -0.254907 L-0.356255 0.530800 L-0.570540 0.530798 L-0.356253 0.316515 L-0.356248 -0.254914 L0.250895 -0.254908 z " fill="rgb(245,195,195)" />
<path d="M0.429460 0.530807 L1.429460 0.530807 L1.429460 1.530807 L0.429460 1.530807  z" fill="none" stroke="rgb(128,128,128)" stroke-width="0.01" />
<line x1="-0.356248" y1="-0.254914" x2="0.429467" y2="-0.254907" style="stroke:rgb(246,147,147);stroke-width:0.01" />
<line x1="0.529467" y1="-0.269192" x2="0.179466" y2="-0.219195" style="stroke:rgb(246,147,147);stroke-width:0.01" />
<line x1="0.429467" y1="-0.344193" x2="0.179466" y2="-0.219195" style="stroke:rgb(246,147,147);stroke-width:0.01" />
<line x1="0.429467" y1="-0.344193" x2="0.529467" y2="-0.269192" style="stroke:rgb(246,147,147);stroke-width:0.01" />
<line x1="0.179466" y1="-0.219195" x2="-0.57054" y2="0.530798" style="stroke:rgb(246,147,147);stroke-width:0.01" />
<line x1="0.429467" y1="-0.254907" x2="-0.356255" y2="0.5308" style="stroke:rgb(246,147,147);stroke-width:0.01" />
<line x1="-0.356248" y1="-0.254914" x2="-0.356255" y2="0.5308" style="stroke:rgb(246,147,147);stroke-width:0.01" />
<line x1="-0.57054" y1="0.530798" x2="-0.356255" y2="0.5308" style="stroke:rgb(246,147,147);stroke-width:0.01" />
<line x1="0.429467" y1="-0.344193" x2="0.429467" y2="-0.254907" style="stroke:rgb(246,147,147);stroke-width:0.01" />
</g>
</svg>
