<svg xmlns="http://www.w3.org/2000/svg" viewBox="-1.5 -1.5 3 3">
<g transform="scale(1, -1)">
<path d="M0.000004 -0.500000 L0.125003 -0.374999 L0.375003 -0.374997 L0.375001 -0.124997 L0.500000 0.000004 L0.374999 0.125003 L0.374997 0.375003 L0.124997 0.375001 L-0.000004 0.500000 L-0.125003 0.374999 L-0.375003 0.374997 L-0.375001 0.124997 L-0.500000 -0.000004 L-0.374999 -0.125003 L-0.374997 -0.375003 L-0.124997 -0.375001 z " fill="rgb(245,195,195)" />
<path d="M0.499996 0.500004 L1.499996 0.500004 L1.499996 1.500004 L0.499996 1.500004  z" fill="none" stroke="rgb(128,128,128)" stroke-width="0.01" />
<line x1="-0.374997" y1="-0.375003" x2="0.375003" y2="-0.374997" style="stroke:rgb(246,147,147);stroke-width:0.01" />
<line x1="4.46227e-06" y1="-0.5" x2="-0.5" y2="-4.46227e-06" style="stroke:rgb(246,147,147);stroke-width:0.01" />
<line x1="3.3467e-06" y1="-0.375" x2="-0.375" y2="-3.3467e-06" style="stroke:rgb(246,147,147);stroke-width:0.01" />
<line x1="-0.5" y1="-4.46227e-06" x2="-0.375" y2="-3.3467e-06" style="stroke:rgb(246,147,147);stroke-width:0.01" />
<line x1="0.375" y1="3.3467e-06" x2="0.5" y2="4.46227e-06" style="stroke:rgb(246,147,147);stroke-width:0.01" />
<line x1="0.375" y1="3.3467e-06" x2="-3.3467e-06" y2="0.375" style="stroke:rgb(246,147,147);stroke-width:0.01" />
<line x1="0.5" y1="4.46227e-06" x2="-4.46227e-06" y2="0.5" style="stroke:rgb(246,147,147);stroke-width:0.01" />
<line x1="4.46227e-06" y1="-0.5" x2="0.5" y2="4.46227e-06" style="stroke:rgb(246,147,147);stroke-width:0.01" />
<line x1="3.3467e-06" y1="-0.375" x2="0.375" y2="3.3467e-06" style="stroke:rgb(246,147,147);stroke-width:0.01" />
<line x1="-0.375003" y1="0.374997" x2="0.374997" y2="0.375003" style="stroke:rgb(246,147,147);stroke-width:0.01" />
<line x1="-0.374997" y1="-0.375003" x2="-0.375003" y2="0.374997" style="stroke:rgb(246,147,147);stroke-width:0.01" />
<line x1="4.46227e-06" y1="-0.5" x2="3.3467e-06" y2="-0.375" style="stroke:rgb(246,147,147);stroke-width:0.01" />
<line x1="-3.3467e-06" y1="0.375" x2="-4.46227e-06" y2="0.5" style="stroke:rgb(246,147,147);stroke-width:0.01" />
<line x1="0.375003" y1="-0.374997" x2="0.374997" y2="0.375003" style="stroke:rgb(246,147,147);stroke-width:0.01" />
<line x1="-0.375" y1="-3.3467e-06" x2="-3.3467e-06" y2="0.375" style="stroke:rgb(246,147,147);stroke-width:0.01" />
<line x1="-0.5" y1="-4.46227e-06" x2="-4.46227e-06" y2="0.5" style="stroke:rgb(246,147,147);stroke-width:0.01" />
</g>
</svg>
