<svg xmlns="http://www.w3.org/2000/svg" viewBox="-1.5 -1.5 3 3">
<g transform="scale(1, -1)">
<path d="M-0.499991 -1.000004 L-0.374992 -0.875003 L-0.124992 -0.875001 L-0.124994 -0.625001 L0.000004 -0.500000 L-0.124997 -0.375001 L-0.124999 -0.125001 L-0.374999 -0.125003 L-0.500000 -0.000004 L-0.624999 -0.125006 L-0.874999 -0.125008 L-0.874997 -0.375008 L-0.999996 -0.500009 L-0.874994 -0.625008 L-0.874992 -0.875008 L-0.624992 -0.875006 z " fill="rgb(245,195,195)" />
<path d="M0.000000 0.000000 L1.000000 0.000000 L1.000000 1.000000 L0.000000 1.000000  z" fill="none" stroke="rgb(128,128,128)" stroke-width="0.01" />
<line x1="-0.874992" y1="-0.875008" x2="-0.124992" y2="-0.875001" style="stroke:rgb(246,147,147);stroke-width:0.01" />
<line x1="-0.499991" y1="-1" x2="-0.999996" y2="-0.500009" style="stroke:rgb(246,147,147);stroke-width:0.01" />
<line x1="-0.499992" y1="-0.875004" x2="-0.874996" y2="-0.500008" style="stroke:rgb(246,147,147);stroke-width:0.01" />
<line x1="-0.999996" y1="-0.500009" x2="-0.874996" y2="-0.500008" style="stroke:rgb(246,147,147);stroke-width:0.01" />
<line x1="-0.124996" y1="-0.500001" x2="4.46227e-06" y2="-0.5" style="stroke:rgb(246,147,147);stroke-width:0.01" />
<line x1="-0.124996" y1="-0.500001" x2="-0.499999" y2="-0.125004" style="stroke:rgb(246,147,147);stroke-width:0.01" />
<line x1="4.46227e-06" y1="-0.5" x2="-0.5" y2="-4.46227e-06" style="stroke:rgb(246,147,147);stroke-width:0.01" />
<line x1="-0.499991" y1="-1" x2="4.46227e-06" y2="-0.5" style="stroke:rgb(246,147,147);stroke-width:0.01" />
<line x1="-0.499992" y1="-0.875004" x2="-0.124996" y2="-0.500001" style="stroke:rgb(246,147,147);stroke-width:0.01" />
<line x1="-0.874999" y1="-0.125008" x2="-0.124999" y2="-0.125001" style="stroke:rgb(246,147,147);stroke-width:0.01" />
<line x1="-0.874992" y1="-0.875008" x2="-0.874999" y2="-0.125008" style="stroke:rgb(246,147,147);stroke-width:0.01" />
<line x1="-0.499991" y1="-1" x2="-0.499992" y2="-0.875004" style="stroke:rgb(246,147,147);stroke-width:0.01" />
<line x1="-0.499999" y1="-0.125004" x2="-0.5" y2="-4.46227e-06" style="stroke:rgb(246,147,147);stroke-width:0.01" />
<line x1="-0.124992" y1="-0.875001" x2="-0.124999" y2="-0.125001" style="stroke:rgb(246,147,147);stroke-width:0.01" />
<line x1="-0.874996" y1="-0.500008" x2="-0.499999" y2="-0.125004" style="stroke:rgb(246,147,147);stroke-width:0.01" />
<line x1="-0.999996" y1="-0.500009" x2="-0.5" y2="-4.46227e-06" style="stroke:rgb(246,147,147);stroke-width:0.01" />
</g>
</svg>
