<svg xmlns="http://www.w3.org/2000/svg" viewBox="-1.5 -1.5 3 3">
<g transform="scale(1, -1)">
<path d="M-0.299991 -1.000003 L-0.149992 -0.850001 L-0.149995 -0.550001 L-0.549999 -0.150005 L-0.849999 -0.150008 L-0.999997 -0.300009 L-0.699997 -0.300006 L-0.699994 -0.700006 L-0.299994 -0.700003 z " fill="rgb(245,195,195)" />
<path d="M0.000000 0.000000 L1.000000 0.000000 L1.000000 1.000000 L0.000000 1.000000  z" fill="none" stroke="rgb(128,128,128)" stroke-width="0.01" />
<line x1="-0.699994" y1="-0.700006" x2="-0.149994" y2="-0.700001" style="stroke:rgb(246,147,147);stroke-width:0.01" />
<line x1="-0.149992" y1="-0.850001" x2="-0.849999" y2="-0.150008" style="stroke:rgb(246,147,147);stroke-width:0.01" />
<line x1="-0.149995" y1="-0.550001" x2="-0.549999" y2="-0.150005" style="stroke:rgb(246,147,147);stroke-width:0.01" />
<line x1="-0.299991" y1="-1" x2="-0.149992" y2="-0.850001" style="stroke:rgb(246,147,147);stroke-width:0.01" />
<line x1="-0.999997" y1="-0.300009" x2="-0.699997" y2="-0.300006" style="stroke:rgb(246,147,147);stroke-width:0.01" />
<line x1="-0.299994" y1="-0.700003" x2="-0.149995" y2="-0.550001" style="stroke:rgb(246,147,147);stroke-width:0.01" />
<line x1="-0.849999" y1="-0.150008" x2="-0.549999" y2="-0.150005" style="stroke:rgb(246,147,147);stroke-width:0.01" />
<line x1="-0.699994" y1="-0.700006" x2="-0.699999" y2="-0.150006" style="stroke:rgb(246,147,147);stroke-width:0.01" />
<line x1="-0.299991" y1="-1" x2="-0.299994" y2="-0.700003" style="stroke:rgb(246,147,147);stroke-width:0.01" />
<line x1="-0.149992" y1="-0.850001" x2="-0.149995" y2="-0.550001" style="stroke:rgb(246,147,147);stroke-width:0.01" />
<line x1="-0.699997" y1="-0.300006" x2="-0.549999" y2="-0.150005" style="stroke:rgb(246,147,147);stroke-width:0.01" />
<line x1="-0.999997" y1="-0.300009" x2="-0.849999" y2="-0.150008" style="stroke:rgb(246,147,147);stroke-width:0.01" />
</g>
</svg>
