<svg xmlns="http://www.w3.org/2000/svg" viewBox="-1.5 -1.5 3 3">
<g transform="scale(1, -1)">
<path d="M0.222226 -0.477776 L0.372225 -0.327774 L0.372222 -0.027774 L-0.027781 0.372222 L-0.327781 0.372219 L-0.477780 0.222218 L-0.177780 0.222221 L-0.177776 -0.177779 L0.222224 -0.177776 z " fill="rgb(245,195,195)" />
<path d="M0.522218 0.522227 L1.522218 0.522227 L1.522218 1.522227 L0.522218 1.522227  z" fill="none" stroke="rgb(128,128,128)" stroke-width="0.01" />
<line x1="-0.177776" y1="-0.177779" x2="0.372224" y2="-0.177774" style="stroke:rgb(246,147,147);stroke-width:0.01" />
<line x1="0.372225" y1="-0.327774" x2="-0.327781" y2="0.372219" style="stroke:rgb(246,147,147);stroke-width:0.01" />
<line x1="0.372222" y1="-0.0277745" x2="-0.0277811" y2="0.372222" style="stroke:rgb(246,147,147);stroke-width:0.01" />
<line x1="0.222226" y1="-0.477776" x2="0.372225" y2="-0.327774" style="stroke:rgb(246,147,147);stroke-width:0.01" />
<line x1="-0.47778" y1="0.222218" x2="-0.17778" y2="0.222221" style="stroke:rgb(246,147,147);stroke-width:0.01" />
<line x1="0.222224" y1="-0.177776" x2="0.372222" y2="-0.0277745" style="stroke:rgb(246,147,147);stroke-width:0.01" />
<line x1="-0.327781" y1="0.372219" x2="-0.0277811" y2="0.372222" style="stroke:rgb(246,147,147);stroke-width:0.01" />
<line x1="-0.177776" y1="-0.177779" x2="-0.177781" y2="0.372221" style="stroke:rgb(246,147,147);stroke-width:0.01" />
<line x1="0.222226" y1="-0.477776" x2="0.222224" y2="-0.177776" style="stroke:rgb(246,147,147);stroke-width:0.01" />
<line x1="0.372225" y1="-0.327774" x2="0.372222" y2="-0.0277745" style="stroke:rgb(246,147,147);stroke-width:0.01" />
<line x1="-0.17778" y1="0.222221" x2="-0.0277811" y2="0.372222" style="stroke:rgb(246,147,147);stroke-width:0.01" />
<line x1="-0.47778" y1="0.222218" x2="-0.327781" y2="0.372219" style="stroke:rgb(246,147,147);stroke-width:0.01" />
</g>
</svg>
