<svg xmlns="http://www.w3.org/2000/svg" viewBox="-1.5 -1.5 3 3">
<g transform="scale(1, -1)">
<path d="M-0.162498 -0.225001 L0.137502 -0.224999 L0.387500 0.025003 L0.137498 0.275001 L-0.062502 0.274999 L-0.062501 0.074999 L-0.212499 -0.075002 L-0.162499 -0.125001 z " fill="rgb(245,195,195)" />
<path d="M0.637495 0.575006 L1.637495 0.575006 L1.637495 1.575006 L0.637495 1.575006  z" fill="none" stroke="rgb(128,128,128)" stroke-width="0.01" />
<line x1="-0.162498" y1="-0.225001" x2="0.137502" y2="-0.224999" style="stroke:rgb(246,147,147);stroke-width:0.01" />
<line x1="-0.062498" y1="-0.225001" x2="-0.212499" y2="-0.0750019" style="stroke:rgb(246,147,147);stroke-width:0.01" />
<line x1="0.137502" y1="-0.224999" x2="0.0375011" y2="-0.125" style="stroke:rgb(246,147,147);stroke-width:0.01" />
<line x1="-0.1625" y1="-0.0250015" x2="0.3375" y2="-0.024997" style="stroke:rgb(246,147,147);stroke-width:0.01" />
<line x1="-0.0625007" y1="0.0749994" x2="0.337499" y2="0.075003" style="stroke:rgb(246,147,147);stroke-width:0.01" />
<line x1="0.3875" y1="0.0250035" x2="0.137498" y2="0.275001" style="stroke:rgb(246,147,147);stroke-width:0.01" />
<line x1="-0.0625025" y1="0.274999" x2="0.137498" y2="0.275001" style="stroke:rgb(246,147,147);stroke-width:0.01" />
<line x1="0.137502" y1="-0.224999" x2="0.3875" y2="0.0250035" style="stroke:rgb(246,147,147);stroke-width:0.01" />
<line x1="-0.062498" y1="-0.225001" x2="0.0375011" y2="-0.125" style="stroke:rgb(246,147,147);stroke-width:0.01" />
<line x1="-0.162498" y1="-0.225001" x2="-0.1625" y2="-0.0250015" style="stroke:rgb(246,147,147);stroke-width:0.01" />
<line x1="-0.062498" y1="-0.225001" x2="-0.0625025" y2="0.274999" style="stroke:rgb(246,147,147);stroke-width:0.01" />
<line x1="0.137502" y1="-0.224999" x2="0.137498" y2="0.275001" style="stroke:rgb(246,147,147);stroke-width:0.01" />
<line x1="0.3375" y1="-0.024997" x2="0.337499" y2="0.075003" style="stroke:rgb(246,147,147);stroke-width:0.01" />
<line x1="-0.212499" y1="-0.0750019" x2="0.137498" y2="0.275001" style="stroke:rgb(246,147,147);stroke-width:0.01" />
</g>
</svg>
