<svg xmlns="http://www.w3.org/2000/svg" viewBox="-1.5 -1.5 3 3">
<g transform="scale(1, -1)">
<path d="M-0.799993 -0.800007 L-0.499993 -0.800004 L-0.249995 -0.550002 L-0.499997 -0.300004 L-0.699997 -0.300006 L-0.699996 -0.500006 L-0.849994 -0.650008 L-0.799994 -0.700007 z " fill="rgb(245,195,195)" />
<path d="M0.000000 0.000000 L1.000000 0.000000 L1.000000 1.000000 L0.000000 1.000000  z" fill="none" stroke="rgb(128,128,128)" stroke-width="0.01" />
<line x1="-0.799993" y1="-0.800007" x2="-0.499993" y2="-0.800004" style="stroke:rgb(246,147,147);stroke-width:0.01" />
<line x1="-0.699993" y1="-0.800006" x2="-0.849994" y2="-0.650008" style="stroke:rgb(246,147,147);stroke-width:0.01" />
<line x1="-0.499993" y1="-0.800004" x2="-0.599994" y2="-0.700005" style="stroke:rgb(246,147,147);stroke-width:0.01" />
<line x1="-0.799995" y1="-0.600007" x2="-0.299995" y2="-0.600003" style="stroke:rgb(246,147,147);stroke-width:0.01" />
<line x1="-0.699996" y1="-0.500006" x2="-0.299996" y2="-0.500003" style="stroke:rgb(246,147,147);stroke-width:0.01" />
<line x1="-0.249995" y1="-0.550002" x2="-0.499997" y2="-0.300004" style="stroke:rgb(246,147,147);stroke-width:0.01" />
<line x1="-0.699997" y1="-0.300006" x2="-0.499997" y2="-0.300004" style="stroke:rgb(246,147,147);stroke-width:0.01" />
<line x1="-0.499993" y1="-0.800004" x2="-0.249995" y2="-0.550002" style="stroke:rgb(246,147,147);stroke-width:0.01" />
<line x1="-0.699993" y1="-0.800006" x2="-0.599994" y2="-0.700005" style="stroke:rgb(246,147,147);stroke-width:0.01" />
<line x1="-0.799993" y1="-0.800007" x2="-0.799995" y2="-0.600007" style="stroke:rgb(246,147,147);stroke-width:0.01" />
<line x1="-0.699993" y1="-0.800006" x2="-0.699997" y2="-0.300006" style="stroke:rgb(246,147,147);stroke-width:0.01" />
<line x1="-0.499993" y1="-0.800004" x2="-0.499997" y2="-0.300004" style="stroke:rgb(246,147,147);stroke-width:0.01" />
<line x1="-0.299995" y1="-0.600003" x2="-0.299996" y2="-0.500003" style="stroke:rgb(246,147,147);stroke-width:0.01" />
<line x1="-0.849994" y1="-0.650008" x2="-0.499997" y2="-0.300004" style="stroke:rgb(246,147,147);stroke-width:0.01" />
</g>
</svg>
