<svg xmlns="http://www.w3.org/2000/svg" viewBox="-1.5 -1.5 3 3">
<g transform="scale(1, -1)">
<path d="M0.649706 0.760752 L0.862689 0.826687 L0.862756 0.826418 L0.969776 0.853149 L0.977574 0.854988 L0.977550 0.855091 L0.984855 0.856915 L0.984167 0.859852 L1.000000 0.859622 L1.000281 0.869283 L0.499157 1.250093 L0.498079 1.249808 L0.499230 1.244542 L0.504217 0.866824 L0.582077 0.865693 L0.602326 0.773095 L0.643119 0.781997 z " fill="rgb(245,195,195)" />
<path d="M0.000000 0.000000 L1.000000 0.000000 L1.000000 1.000000 L0.000000 1.000000  z" fill="none" stroke="rgb(128,128,128)" stroke-width="0.01" />
<line x1="0.999698" y1="0.860162" x2="0.999978" y2="0.869513" style="stroke:rgb(246,147,147);stroke-width:0.01" />
<line x1="1" y1="0.859622" x2="1.00028" y2="0.869283" style="stroke:rgb(246,147,147);stroke-width:0.01" />
<line x1="0.999698" y1="0.860162" x2="0.999823" y2="0.869631" style="stroke:rgb(246,147,147);stroke-width:0.01" />
<line x1="1" y1="0.859622" x2="1" y2="0.869496" style="stroke:rgb(246,147,147);stroke-width:0.01" />
<line x1="0.504217" y1="0.866824" x2="0.499157" y2="1.25009" style="stroke:rgb(246,147,147);stroke-width:0.01" />
<line x1="0.602326" y1="0.773095" x2="0.498079" y2="1.24981" style="stroke:rgb(246,147,147);stroke-width:0.01" />
<line x1="0.881738" y1="0.832385" x2="0.845249" y2="0.987093" style="stroke:rgb(246,147,147);stroke-width:0.01" />
<line x1="0.649706" y1="0.760752" x2="0.498079" y2="1.24981" style="stroke:rgb(246,147,147);stroke-width:0.01" />
<line x1="0.862756" y1="0.826418" x2="0.817323" y2="1.00831" style="stroke:rgb(246,147,147);stroke-width:0.01" />
<line x1="0.977574" y1="0.854988" x2="0.968917" y2="0.893116" style="stroke:rgb(246,147,147);stroke-width:0.01" />
<line x1="0.984855" y1="0.856915" x2="0.977985" y2="0.886226" style="stroke:rgb(246,147,147);stroke-width:0.01" />
<line x1="0.874265" y1="0.83454" x2="0.828264" y2="1" style="stroke:rgb(246,147,147);stroke-width:0.01" />
<line x1="0.906359" y1="0.842318" x2="0.86942" y2="0.968726" style="stroke:rgb(246,147,147);stroke-width:0.01" />
<line x1="0.649706" y1="0.760752" x2="0.999978" y2="0.869513" style="stroke:rgb(246,147,147);stroke-width:0.01" />
<line x1="0.649706" y1="0.760752" x2="1.00028" y2="0.869283" style="stroke:rgb(246,147,147);stroke-width:0.01" />
<line x1="0.906359" y1="0.842318" x2="0.999823" y2="0.869631" style="stroke:rgb(246,147,147);stroke-width:0.01" />
<line x1="0.874265" y1="0.83454" x2="1" y2="0.869496" style="stroke:rgb(246,147,147);stroke-width:0.01" />
<line x1="0.862756" y1="0.826418" x2="0.984855" y2="0.856915" style="stroke:rgb(246,147,147);stroke-width:0.01" />
<line x1="0.881738" y1="0.832385" x2="0.977574" y2="0.854988" style="stroke:rgb(246,147,147);stroke-width:0.01" />
<line x1="0.602326" y1="0.773095" x2="0.984855" y2="0.856915" style="stroke:rgb(246,147,147);stroke-width:0.01" />
<line x1="0.602326" y1="0.773095" x2="0.977574" y2="0.854988" style="stroke:rgb(246,147,147);stroke-width:0.01" />
<line x1="0.504164" y1="0.870827" x2="0.968917" y2="0.893116" style="stroke:rgb(246,147,147);stroke-width:0.01" />
<line x1="0.504217" y1="0.866824" x2="0.977985" y2="0.886226" style="stroke:rgb(246,147,147);stroke-width:0.01" />
<line x1="1" y1="0.859622" x2="0.504217" y2="0.866824" style="stroke:rgb(246,147,147);stroke-width:0.01" />
<line x1="0.999698" y1="0.860162" x2="0.504164" y2="0.870827" style="stroke:rgb(246,147,147);stroke-width:0.01" />
<line x1="0.502808" y1="0.973545" x2="0.845249" y2="0.987093" style="stroke:rgb(246,147,147);stroke-width:0.01" />
<line x1="0.86942" y1="0.968726" x2="0.502808" y2="0.973545" style="stroke:rgb(246,147,147);stroke-width:0.01" />
<line x1="0.502459" y1="1" x2="0.817323" y2="1.00831" style="stroke:rgb(246,147,147);stroke-width:0.01" />
<line x1="0.502459" y1="1" x2="0.828264" y2="1" style="stroke:rgb(246,147,147);stroke-width:0.01" />
<line x1="1.00028" y1="0.869283" x2="0.499157" y2="1.25009" style="stroke:rgb(246,147,147);stroke-width:0.01" />
<line x1="0.498079" y1="1.24981" x2="0.499157" y2="1.25009" style="stroke:rgb(246,147,147);stroke-width:0.01" />
</g>
</svg>
