<svg xmlns="http://www.w3.org/2000/svg" viewBox="-1.5 -1.5 3 3">
<g transform="scale(1, -1)">
<path d="M-0.120739 -0.148354 L0.092244 -0.082419 L0.092311 -0.082688 L0.199332 -0.055958 L0.207129 -0.054118 L0.207106 -0.054016 L0.214411 -0.052191 L0.213722 -0.049255 L0.229555 -0.049485 L0.229836 -0.039824 L-0.271287 0.340986 L-0.272366 0.340702 L-0.271214 0.335435 L-0.266228 -0.042282 L-0.188368 -0.043413 L-0.168118 -0.136012 L-0.127326 -0.127109 z " fill="rgb(245,195,195)" />
<path d="M-0.770445 -0.909106 L0.229555 -0.909106 L0.229555 0.090894 L-0.770445 0.090894  z" fill="none" stroke="rgb(128,128,128)" stroke-width="0.01" />
<line x1="0.229254" y1="-0.0489447" x2="0.229533" y2="-0.0395934" style="stroke:rgb(246,147,147);stroke-width:0.01" />
<line x1="0.229555" y1="-0.0494847" x2="0.229836" y2="-0.0398236" style="stroke:rgb(246,147,147);stroke-width:0.01" />
<line x1="0.229254" y1="-0.0489447" x2="0.229378" y2="-0.0394755" style="stroke:rgb(246,147,147);stroke-width:0.01" />
<line x1="0.229555" y1="-0.0494847" x2="0.229555" y2="-0.0396102" style="stroke:rgb(246,147,147);stroke-width:0.01" />
<line x1="-0.266228" y1="-0.0422821" x2="-0.271287" y2="0.340986" style="stroke:rgb(246,147,147);stroke-width:0.01" />
<line x1="-0.168118" y1="-0.136012" x2="-0.272366" y2="0.340702" style="stroke:rgb(246,147,147);stroke-width:0.01" />
<line x1="0.111293" y1="-0.0767218" x2="0.0748042" y2="0.077987" style="stroke:rgb(246,147,147);stroke-width:0.01" />
<line x1="-0.120739" y1="-0.148354" x2="-0.272366" y2="0.340702" style="stroke:rgb(246,147,147);stroke-width:0.01" />
<line x1="0.0923113" y1="-0.0826884" x2="0.0468782" y2="0.0992083" style="stroke:rgb(246,147,147);stroke-width:0.01" />
<line x1="0.207129" y1="-0.0541185" x2="0.198473" y2="-0.0159901" style="stroke:rgb(246,147,147);stroke-width:0.01" />
<line x1="0.214411" y1="-0.0521911" x2="0.20754" y2="-0.0228809" style="stroke:rgb(246,147,147);stroke-width:0.01" />
<line x1="0.10382" y1="-0.0745665" x2="0.0578198" y2="0.0908936" style="stroke:rgb(246,147,147);stroke-width:0.01" />
<line x1="0.135915" y1="-0.066788" x2="0.098975" y2="0.0596193" style="stroke:rgb(246,147,147);stroke-width:0.01" />
<line x1="-0.120739" y1="-0.148354" x2="0.229533" y2="-0.0395934" style="stroke:rgb(246,147,147);stroke-width:0.01" />
<line x1="-0.120739" y1="-0.148354" x2="0.229836" y2="-0.0398236" style="stroke:rgb(246,147,147);stroke-width:0.01" />
<line x1="0.135915" y1="-0.066788" x2="0.229378" y2="-0.0394755" style="stroke:rgb(246,147,147);stroke-width:0.01" />
<line x1="0.10382" y1="-0.0745665" x2="0.229555" y2="-0.0396102" style="stroke:rgb(246,147,147);stroke-width:0.01" />
<line x1="0.0923113" y1="-0.0826884" x2="0.214411" y2="-0.0521911" style="stroke:rgb(246,147,147);stroke-width:0.01" />
<line x1="0.111293" y1="-0.0767218" x2="0.207129" y2="-0.0541185" style="stroke:rgb(246,147,147);stroke-width:0.01" />
<line x1="-0.168118" y1="-0.136012" x2="0.214411" y2="-0.0521911" style="stroke:rgb(246,147,147);stroke-width:0.01" />
<line x1="-0.168118" y1="-0.136012" x2="0.207129" y2="-0.0541185" style="stroke:rgb(246,147,147);stroke-width:0.01" />
<line x1="-0.266281" y1="-0.0382789" x2="0.198473" y2="-0.0159901" style="stroke:rgb(246,147,147);stroke-width:0.01" />
<line x1="-0.266228" y1="-0.0422821" x2="0.20754" y2="-0.0228809" style="stroke:rgb(246,147,147);stroke-width:0.01" />
<line x1="0.229555" y1="-0.0494847" x2="-0.266228" y2="-0.0422821" style="stroke:rgb(246,147,147);stroke-width:0.01" />
<line x1="0.229254" y1="-0.0489447" x2="-0.266281" y2="-0.0382789" style="stroke:rgb(246,147,147);stroke-width:0.01" />
<line x1="-0.267637" y1="0.0644382" x2="0.0748042" y2="0.077987" style="stroke:rgb(246,147,147);stroke-width:0.01" />
<line x1="0.098975" y1="0.0596193" x2="-0.267637" y2="0.0644382" style="stroke:rgb(246,147,147);stroke-width:0.01" />
<line x1="-0.267986" y1="0.0908936" x2="0.0468782" y2="0.0992083" style="stroke:rgb(246,147,147);stroke-width:0.01" />
<line x1="-0.267986" y1="0.0908936" x2="0.0578198" y2="0.0908936" style="stroke:rgb(246,147,147);stroke-width:0.01" />
<line x1="0.229836" y1="-0.0398236" x2="-0.271287" y2="0.340986" style="stroke:rgb(246,147,147);stroke-width:0.01" />
<line x1="-0.272366" y1="0.340702" x2="-0.271287" y2="0.340986" style="stroke:rgb(246,147,147);stroke-width:0.01" />
</g>
</svg>
