<svg xmlns="http://www.w3.org/2000/svg" viewBox="-1.5 -1.5 3 3">
<g transform="scale(1, -1)">
<path d="M-0.287000 -0.336218 L-0.283454 -0.332669 L-0.283462 -0.329664 L0.205257 0.159054 L0.205257 0.165304 L0.203990 0.165304 L0.205062 0.166377 L0.205055 0.167822 L0.203817 0.167816 L0.203769 0.173074 L-0.289776 0.168519 L-0.288515 -0.334718 z " fill="rgb(245,195,195)" />
<path d="M-0.794743 -0.834696 L0.205257 -0.834696 L0.205257 0.165304 L-0.794743 0.165304  z" fill="none" stroke="rgb(128,128,128)" stroke-width="0.01" />
<line x1="-0.287" y1="-0.336218" x2="-0.283454" y2="-0.332603" style="stroke:rgb(246,147,147);stroke-width:0.01" />
<line x1="-0.287" y1="-0.336218" x2="-0.283454" y2="-0.332669" style="stroke:rgb(246,147,147);stroke-width:0.01" />
<line x1="-0.288533" y1="-0.327477" x2="0.191096" y2="0.161502" style="stroke:rgb(246,147,147);stroke-width:0.01" />
<line x1="-0.288515" y1="-0.334718" x2="0.205257" y2="0.159054" style="stroke:rgb(246,147,147);stroke-width:0.01" />
<line x1="0.205257" y1="0.159054" x2="0.205257" y2="0.165304" style="stroke:rgb(246,147,147);stroke-width:0.01" />
<line x1="-0.288533" y1="-0.327637" x2="0.205062" y2="0.166377" style="stroke:rgb(246,147,147);stroke-width:0.01" />
<line x1="-0.288515" y1="-0.334718" x2="-0.289776" y2="0.168519" style="stroke:rgb(246,147,147);stroke-width:0.01" />
<line x1="-0.283454" y1="-0.332669" x2="-0.284704" y2="0.168498" style="stroke:rgb(246,147,147);stroke-width:0.01" />
<line x1="0.205062" y1="0.166377" x2="0.205055" y2="0.167822" style="stroke:rgb(246,147,147);stroke-width:0.01" />
<line x1="0.203911" y1="0.157708" x2="0.203769" y2="0.173074" style="stroke:rgb(246,147,147);stroke-width:0.01" />
<line x1="0.191096" y1="0.161502" x2="0.190985" y2="0.169242" style="stroke:rgb(246,147,147);stroke-width:0.01" />
<line x1="-0.283454" y1="-0.332603" x2="-0.288533" y2="-0.327477" style="stroke:rgb(246,147,147);stroke-width:0.01" />
<line x1="-0.287" y1="-0.336218" x2="-0.288515" y2="-0.334718" style="stroke:rgb(246,147,147);stroke-width:0.01" />
<line x1="-0.283454" y1="-0.332669" x2="-0.288533" y2="-0.327637" style="stroke:rgb(246,147,147);stroke-width:0.01" />
<line x1="-0.289761" y1="0.162264" x2="-0.284688" y2="0.162336" style="stroke:rgb(246,147,147);stroke-width:0.01" />
<line x1="-0.289761" y1="0.162383" x2="0.190985" y2="0.169242" style="stroke:rgb(246,147,147);stroke-width:0.01" />
<line x1="-0.289753" y1="0.159054" x2="-0.28468" y2="0.159079" style="stroke:rgb(246,147,147);stroke-width:0.01" />
<line x1="-0.289753" y1="0.159079" x2="0.191096" y2="0.161502" style="stroke:rgb(246,147,147);stroke-width:0.01" />
<line x1="-0.289753" y1="0.159054" x2="0.205257" y2="0.159054" style="stroke:rgb(246,147,147);stroke-width:0.01" />
<line x1="-0.28468" y1="0.159079" x2="-0.289753" y2="0.159079" style="stroke:rgb(246,147,147);stroke-width:0.01" />
<line x1="-0.289768" y1="0.165304" x2="-0.284696" y2="0.165329" style="stroke:rgb(246,147,147);stroke-width:0.01" />
<line x1="-0.289768" y1="0.165329" x2="0.205055" y2="0.167822" style="stroke:rgb(246,147,147);stroke-width:0.01" />
<line x1="-0.289776" y1="0.168451" x2="-0.284704" y2="0.168498" style="stroke:rgb(246,147,147);stroke-width:0.01" />
<line x1="-0.289776" y1="0.168519" x2="0.203769" y2="0.173074" style="stroke:rgb(246,147,147);stroke-width:0.01" />
<line x1="-0.289768" y1="0.165304" x2="0.205257" y2="0.165304" style="stroke:rgb(246,147,147);stroke-width:0.01" />
<line x1="-0.284696" y1="0.165329" x2="-0.289768" y2="0.165329" style="stroke:rgb(246,147,147);stroke-width:0.01" />
<line x1="0.203911" y1="0.157708" x2="-0.289761" y2="0.162264" style="stroke:rgb(246,147,147);stroke-width:0.01" />
<line x1="-0.284688" y1="0.162336" x2="-0.289761" y2="0.162383" style="stroke:rgb(246,147,147);stroke-width:0.01" />
<line x1="0.205062" y1="0.166377" x2="-0.289776" y2="0.168451" style="stroke:rgb(246,147,147);stroke-width:0.01" />
<line x1="-0.284704" y1="0.168498" x2="-0.289776" y2="0.168519" style="stroke:rgb(246,147,147);stroke-width:0.01" />
</g>
</svg>
