<svg xmlns="http://www.w3.org/2000/svg" viewBox="-1.5 -1.5 3 3">
<g transform="scale(1, -1)">
<path d="M-0.303571 -0.357143 L-0.178571 -0.232143 L0.071429 -0.232143 L0.571429 0.267857 L0.071429 0.267857 L0.071429 0.142857 L-0.303571 0.142857 z " fill="rgb(245,195,195)" />
<path d="M-0.303571 -0.357143 L0.696429 -0.357143 L0.696429 0.642857 L-0.303571 0.642857  z" fill="none" stroke="rgb(128,128,128)" stroke-width="0.01" />
<line x1="0.0714286" y1="-0.232143" x2="0.571429" y2="0.267857" style="stroke:rgb(246,147,147);stroke-width:0.01" />
<line x1="-0.303571" y1="-0.357143" x2="0.196429" y2="0.142857" style="stroke:rgb(246,147,147);stroke-width:0.01" />
<line x1="-0.303571" y1="-0.357143" x2="-0.303571" y2="0.142857" style="stroke:rgb(246,147,147);stroke-width:0.01" />
<line x1="0.0714286" y1="-0.232143" x2="0.0714286" y2="0.267857" style="stroke:rgb(246,147,147);stroke-width:0.01" />
<line x1="0.196429" y1="0.142857" x2="0.196429" y2="0.267857" style="stroke:rgb(246,147,147);stroke-width:0.01" />
<line x1="-0.303571" y1="-0.232143" x2="0.196429" y2="0.267857" style="stroke:rgb(246,147,147);stroke-width:0.01" />
<line x1="-0.303571" y1="-0.232143" x2="0.0714286" y2="-0.232143" style="stroke:rgb(246,147,147);stroke-width:0.01" />
<line x1="-0.303571" y1="0.142857" x2="0.196429" y2="0.142857" style="stroke:rgb(246,147,147);stroke-width:0.01" />
<line x1="0.0714286" y1="0.267857" x2="0.571429" y2="0.267857" style="stroke:rgb(246,147,147);stroke-width:0.01" />
</g>
</svg>
