<svg xmlns="http://www.w3.org/2000/svg" viewBox="-1.5 -1.5 3 3">
<g transform="scale(1, -1)">
<path d="M-0.999991 -1.000009 L-0.799991 -1.000007 L-0.499994 -0.700004 L-0.399994 -0.700004 L-0.399995 -0.600004 L-0.349995 -0.550003 L-0.599997 -0.300005 L-0.999994 -0.700009 z " fill="rgb(245,195,195)" />
<path d="M0.000000 0.000000 L1.000000 0.000000 L1.000000 1.000000 L0.000000 1.000000  z" fill="none" stroke="rgb(128,128,128)" stroke-width="0.01" />
<line x1="-0.999991" y1="-1.00001" x2="-0.799991" y2="-1.00001" style="stroke:rgb(246,147,147);stroke-width:0.01" />
<line x1="-0.799992" y1="-0.900007" x2="-0.699992" y2="-0.900006" style="stroke:rgb(246,147,147);stroke-width:0.01" />
<line x1="-0.999994" y1="-0.700009" x2="-0.399994" y2="-0.700004" style="stroke:rgb(246,147,147);stroke-width:0.01" />
<line x1="-0.799996" y1="-0.500007" x2="-0.399996" y2="-0.500004" style="stroke:rgb(246,147,147);stroke-width:0.01" />
<line x1="-0.349995" y1="-0.550003" x2="-0.599997" y2="-0.300005" style="stroke:rgb(246,147,147);stroke-width:0.01" />
<line x1="-0.699996" y1="-0.400006" x2="-0.499996" y2="-0.400004" style="stroke:rgb(246,147,147);stroke-width:0.01" />
<line x1="-0.799991" y1="-1.00001" x2="-0.349995" y2="-0.550003" style="stroke:rgb(246,147,147);stroke-width:0.01" />
<line x1="-0.999991" y1="-1.00001" x2="-0.999994" y2="-0.700009" style="stroke:rgb(246,147,147);stroke-width:0.01" />
<line x1="-0.799991" y1="-1.00001" x2="-0.799996" y2="-0.500007" style="stroke:rgb(246,147,147);stroke-width:0.01" />
<line x1="-0.699992" y1="-0.900006" x2="-0.699996" y2="-0.400006" style="stroke:rgb(246,147,147);stroke-width:0.01" />
<line x1="-0.499994" y1="-0.700004" x2="-0.499996" y2="-0.400004" style="stroke:rgb(246,147,147);stroke-width:0.01" />
<line x1="-0.399994" y1="-0.700004" x2="-0.399996" y2="-0.500004" style="stroke:rgb(246,147,147);stroke-width:0.01" />
<line x1="-0.999994" y1="-0.700009" x2="-0.599997" y2="-0.300005" style="stroke:rgb(246,147,147);stroke-width:0.01" />
</g>
</svg>
