<svg xmlns="http://www.w3.org/2000/svg" viewBox="-1.5 -1.5 3 3">
<g transform="scale(1, -1)">
<path d="M-0.368747 -0.306253 L-0.168747 -0.306252 L0.131250 -0.006249 L0.231250 -0.006248 L0.231249 0.093752 L0.281249 0.143753 L0.031246 0.393750 L-0.368750 -0.006253 z " fill="rgb(245,195,195)" />
<path d="M0.631244 0.693756 L1.631244 0.693756 L1.631244 1.693756 L0.631244 1.693756  z" fill="none" stroke="rgb(128,128,128)" stroke-width="0.01" />
<line x1="-0.368747" y1="-0.306253" x2="-0.168747" y2="-0.306252" style="stroke:rgb(246,147,147);stroke-width:0.01" />
<line x1="-0.168748" y1="-0.206252" x2="-0.0687482" y2="-0.206251" style="stroke:rgb(246,147,147);stroke-width:0.01" />
<line x1="-0.36875" y1="-0.00625329" x2="0.23125" y2="-0.00624794" style="stroke:rgb(246,147,147);stroke-width:0.01" />
<line x1="-0.168752" y1="0.193748" x2="0.231248" y2="0.193752" style="stroke:rgb(246,147,147);stroke-width:0.01" />
<line x1="0.281249" y1="0.143753" x2="0.0312465" y2="0.39375" style="stroke:rgb(246,147,147);stroke-width:0.01" />
<line x1="-0.0687526" y1="0.293749" x2="0.131247" y2="0.293751" style="stroke:rgb(246,147,147);stroke-width:0.01" />
<line x1="-0.168747" y1="-0.306252" x2="0.281249" y2="0.143753" style="stroke:rgb(246,147,147);stroke-width:0.01" />
<line x1="-0.368747" y1="-0.306253" x2="-0.36875" y2="-0.00625329" style="stroke:rgb(246,147,147);stroke-width:0.01" />
<line x1="-0.168747" y1="-0.306252" x2="-0.168752" y2="0.193748" style="stroke:rgb(246,147,147);stroke-width:0.01" />
<line x1="-0.0687482" y1="-0.206251" x2="-0.0687526" y2="0.293749" style="stroke:rgb(246,147,147);stroke-width:0.01" />
<line x1="0.13125" y1="-0.00624883" x2="0.131247" y2="0.293751" style="stroke:rgb(246,147,147);stroke-width:0.01" />
<line x1="0.23125" y1="-0.00624794" x2="0.231248" y2="0.193752" style="stroke:rgb(246,147,147);stroke-width:0.01" />
<line x1="-0.36875" y1="-0.00625329" x2="0.0312465" y2="0.39375" style="stroke:rgb(246,147,147);stroke-width:0.01" />
</g>
</svg>
