<svg xmlns="http://www.w3.org/2000/svg" viewBox="-1.5 -1.5 3 3">
<g transform="scale(1, -1)">
<path d="M-0.017001 -0.217557 L0.084554 -0.158501 L0.181059 0.094826 L0.062106 0.202214 L-0.036094 0.093438 L-0.105243 0.092997 L-0.169382 -0.107417 z " fill="rgb(245,195,195)" />
<path d="M0.247673 -1.115312 L1.247673 -1.115312 L1.247673 -0.115312 L0.247673 -0.115312  z" fill="none" stroke="rgb(128,128,128)" stroke-width="0.01" />
<line x1="-0.017001" y1="-0.217557" x2="-0.0494844" y2="0.0806796" style="stroke:rgb(246,147,147);stroke-width:0.01" />
<line x1="0.157028" y1="0.0317447" x2="0.14934" y2="0.102335" style="stroke:rgb(246,147,147);stroke-width:0.01" />
<line x1="0.0845537" y1="-0.158501" x2="0.0530343" y2="-0.0621388" style="stroke:rgb(246,147,147);stroke-width:0.01" />
<line x1="0.0845537" y1="-0.158501" x2="0.181059" y2="0.094826" style="stroke:rgb(246,147,147);stroke-width:0.01" />
<line x1="-0.169382" y1="-0.107417" x2="-0.105243" y2="0.0929966" style="stroke:rgb(246,147,147);stroke-width:0.01" />
<line x1="-0.017001" y1="-0.217557" x2="-0.169382" y2="-0.107417" style="stroke:rgb(246,147,147);stroke-width:0.01" />
<line x1="0.104681" y1="-0.105666" x2="-0.0719141" y2="0.0537604" style="stroke:rgb(246,147,147);stroke-width:0.01" />
<line x1="0.1187" y1="-0.0688668" x2="-0.105243" y2="0.0929966" style="stroke:rgb(246,147,147);stroke-width:0.01" />
<line x1="0.181059" y1="0.094826" x2="0.0621065" y2="0.202214" style="stroke:rgb(246,147,147);stroke-width:0.01" />
<line x1="0.0530343" y1="-0.0621388" x2="0.157028" y2="0.0317447" style="stroke:rgb(246,147,147);stroke-width:0.01" />
<line x1="-0.0719141" y1="0.0537604" x2="0.0621065" y2="0.202214" style="stroke:rgb(246,147,147);stroke-width:0.01" />
<line x1="-0.017001" y1="-0.217557" x2="0.0845537" y2="-0.158501" style="stroke:rgb(246,147,147);stroke-width:0.01" />
<line x1="-0.169382" y1="-0.107417" x2="0.104681" y2="-0.105666" style="stroke:rgb(246,147,147);stroke-width:0.01" />
<line x1="0.1187" y1="-0.0688668" x2="0.0530343" y2="-0.0621388" style="stroke:rgb(246,147,147);stroke-width:0.01" />
<line x1="-0.105243" y1="0.0929966" x2="0.181059" y2="0.094826" style="stroke:rgb(246,147,147);stroke-width:0.01" />
<line x1="-0.0494844" y1="0.0806796" x2="0.14934" y2="0.102335" style="stroke:rgb(246,147,147);stroke-width:0.01" />
</g>
</svg>
