<svg xmlns="http://www.w3.org/2000/svg" viewBox="-1.5 -1.5 3 3">
<g transform="scale(1, -1)">
<path d="M-0.264674 0.897755 L-0.163120 0.956811 L-0.066614 1.210138 L-0.185567 1.317526 L-0.283767 1.208750 L-0.352916 1.208308 L-0.417056 1.007894 z " fill="rgb(245,195,195)" />
<path d="M0.000000 0.000000 L1.000000 0.000000 L1.000000 1.000000 L0.000000 1.000000  z" fill="none" stroke="rgb(128,128,128)" stroke-width="0.01" />
<line x1="-0.264674" y1="0.897755" x2="-0.297158" y2="1.19599" style="stroke:rgb(246,147,147);stroke-width:0.01" />
<line x1="-0.0906452" y1="1.14706" x2="-0.0983338" y2="1.21765" style="stroke:rgb(246,147,147);stroke-width:0.01" />
<line x1="-0.16312" y1="0.956811" x2="-0.194639" y2="1.05317" style="stroke:rgb(246,147,147);stroke-width:0.01" />
<line x1="-0.16312" y1="0.956811" x2="-0.0666142" y2="1.21014" style="stroke:rgb(246,147,147);stroke-width:0.01" />
<line x1="-0.417056" y1="1.00789" x2="-0.352916" y2="1.20831" style="stroke:rgb(246,147,147);stroke-width:0.01" />
<line x1="-0.264674" y1="0.897755" x2="-0.417056" y2="1.00789" style="stroke:rgb(246,147,147);stroke-width:0.01" />
<line x1="-0.142992" y1="1.00965" x2="-0.319588" y2="1.16907" style="stroke:rgb(246,147,147);stroke-width:0.01" />
<line x1="-0.128973" y1="1.04645" x2="-0.352916" y2="1.20831" style="stroke:rgb(246,147,147);stroke-width:0.01" />
<line x1="-0.0666142" y1="1.21014" x2="-0.185567" y2="1.31753" style="stroke:rgb(246,147,147);stroke-width:0.01" />
<line x1="-0.194639" y1="1.05317" x2="-0.0906452" y2="1.14706" style="stroke:rgb(246,147,147);stroke-width:0.01" />
<line x1="-0.319588" y1="1.16907" x2="-0.185567" y2="1.31753" style="stroke:rgb(246,147,147);stroke-width:0.01" />
<line x1="-0.264674" y1="0.897755" x2="-0.16312" y2="0.956811" style="stroke:rgb(246,147,147);stroke-width:0.01" />
<line x1="-0.417056" y1="1.00789" x2="-0.142992" y2="1.00965" style="stroke:rgb(246,147,147);stroke-width:0.01" />
<line x1="-0.128973" y1="1.04645" x2="-0.194639" y2="1.05317" style="stroke:rgb(246,147,147);stroke-width:0.01" />
<line x1="-0.352916" y1="1.20831" x2="-0.0666142" y2="1.21014" style="stroke:rgb(246,147,147);stroke-width:0.01" />
<line x1="-0.297158" y1="1.19599" x2="-0.0983338" y2="1.21765" style="stroke:rgb(246,147,147);stroke-width:0.01" />
</g>
</svg>
