<svg xmlns="http://www.w3.org/2000/svg" viewBox="-1.5 -1.5 3 3">
<g transform="scale(1, -1)">
<path d="M-0.152958 -0.228752 L-0.093891 -0.189537 L0.067681 -0.212140 L0.149348 -0.026306 L0.114989 0.014108 L0.124437 0.033920 L0.233865 0.108058 L0.244228 0.203734 L0.105280 0.352728 L-0.370327 0.087733 L-0.422653 -0.143544 z " fill="rgb(245,195,195)" />
<path d="M-0.840068 -0.249340 L0.159932 -0.249340 L0.159932 0.750660 L-0.840068 0.750660  z" fill="none" stroke="rgb(128,128,128)" stroke-width="0.01" />
<line x1="0.0508322" y1="-0.209783" x2="0.0658678" y2="-0.198895" style="stroke:rgb(246,147,147);stroke-width:0.01" />
<line x1="0.033714" y1="-0.188" x2="0.101806" y2="-0.13449" style="stroke:rgb(246,147,147);stroke-width:0.01" />
<line x1="0.0961462" y1="-0.0607797" x2="0.142488" y2="-0.0182369" style="stroke:rgb(246,147,147);stroke-width:0.01" />
<line x1="0.0360973" y1="-0.187872" x2="0.0621694" y2="-0.171883" style="stroke:rgb(246,147,147);stroke-width:0.01" />
<line x1="0.123875" y1="-0.0328769" x2="0.142488" y2="-0.0182369" style="stroke:rgb(246,147,147);stroke-width:0.01" />
<line x1="0.0676813" y1="-0.21214" x2="0.149348" y2="-0.0263064" style="stroke:rgb(246,147,147);stroke-width:0.01" />
<line x1="0.0696488" y1="-0.0809608" x2="0.167548" y2="0.124314" style="stroke:rgb(246,147,147);stroke-width:0.01" />
<line x1="-0.152958" y1="-0.228752" x2="0.0696488" y2="-0.0809608" style="stroke:rgb(246,147,147);stroke-width:0.01" />
<line x1="0.0380709" y1="-0.207998" x2="0.0961462" y2="-0.0607797" style="stroke:rgb(246,147,147);stroke-width:0.01" />
<line x1="0.0103754" y1="-0.0433583" x2="0.233865" y2="0.108058" style="stroke:rgb(246,147,147);stroke-width:0.01" />
<line x1="-0.300257" y1="-0.182214" x2="-0.214492" y2="-0.0713504" style="stroke:rgb(246,147,147);stroke-width:0.01" />
<line x1="-0.0213444" y1="0.1936" x2="0.0381077" y2="0.260827" style="stroke:rgb(246,147,147);stroke-width:0.01" />
<line x1="-0.206703" y1="-0.00107367" x2="-0.144479" y2="0.213569" style="stroke:rgb(246,147,147);stroke-width:0.01" />
<line x1="-0.267988" y1="0.0166111" x2="-0.223926" y2="0.169303" style="stroke:rgb(246,147,147);stroke-width:0.01" />
<line x1="0.233865" y1="0.108058" x2="0.244228" y2="0.203734" style="stroke:rgb(246,147,147);stroke-width:0.01" />
<line x1="0.163877" y1="0.0606404" x2="0.185895" y2="0.266285" style="stroke:rgb(246,147,147);stroke-width:0.01" />
<line x1="-0.422653" y1="-0.143544" x2="-0.370327" y2="0.0877327" style="stroke:rgb(246,147,147);stroke-width:0.01" />
<line x1="0.123875" y1="-0.0328769" x2="0.149348" y2="-0.0263064" style="stroke:rgb(246,147,147);stroke-width:0.01" />
<line x1="0.0436689" y1="0.196081" x2="0.0438442" y2="0.214727" style="stroke:rgb(246,147,147);stroke-width:0.01" />
<line x1="-0.300257" y1="-0.182214" x2="-0.304153" y2="-0.0983185" style="stroke:rgb(246,147,147);stroke-width:0.01" />
<line x1="-0.0439644" y1="0.215552" x2="-0.0460465" y2="0.268413" style="stroke:rgb(246,147,147);stroke-width:0.01" />
<line x1="-0.370327" y1="0.0877327" x2="0.10528" y2="0.352728" style="stroke:rgb(246,147,147);stroke-width:0.01" />
<line x1="0.101806" y1="-0.13449" x2="0.0961462" y2="-0.0607797" style="stroke:rgb(246,147,147);stroke-width:0.01" />
<line x1="0.0436689" y1="0.196081" x2="0.0381077" y2="0.260827" style="stroke:rgb(246,147,147);stroke-width:0.01" />
<line x1="0.0380709" y1="-0.207998" x2="0.0360973" y2="-0.187872" style="stroke:rgb(246,147,147);stroke-width:0.01" />
<line x1="0.0676813" y1="-0.21214" x2="0.0621694" y2="-0.171883" style="stroke:rgb(246,147,147);stroke-width:0.01" />
<line x1="-0.304153" y1="-0.0983185" x2="0.0696488" y2="-0.0809608" style="stroke:rgb(246,147,147);stroke-width:0.01" />
<line x1="0.0676813" y1="-0.21214" x2="-0.422653" y2="-0.143544" style="stroke:rgb(246,147,147);stroke-width:0.01" />
<line x1="-0.152958" y1="-0.228752" x2="-0.422653" y2="-0.143544" style="stroke:rgb(246,147,147);stroke-width:0.01" />
<line x1="-0.152958" y1="-0.228752" x2="-0.214492" y2="-0.0713504" style="stroke:rgb(246,147,147);stroke-width:0.01" />
<line x1="0.0103754" y1="-0.0433583" x2="-0.0834794" y2="0.247556" style="stroke:rgb(246,147,147);stroke-width:0.01" />
<line x1="-0.214492" y1="-0.0713504" x2="-0.399271" y2="-0.0401978" style="stroke:rgb(246,147,147);stroke-width:0.01" />
<line x1="0.167548" y1="0.124314" x2="0.10528" y2="0.352728" style="stroke:rgb(246,147,147);stroke-width:0.01" />
<line x1="0.0621694" y1="-0.171883" x2="-0.399271" y2="-0.0401978" style="stroke:rgb(246,147,147);stroke-width:0.01" />
<line x1="0.0658678" y1="-0.198895" x2="0.0360973" y2="-0.187872" style="stroke:rgb(246,147,147);stroke-width:0.01" />
<line x1="0.123875" y1="-0.0328769" x2="-0.379062" y2="0.0491226" style="stroke:rgb(246,147,147);stroke-width:0.01" />
<line x1="-0.206703" y1="-0.00107367" x2="-0.267988" y2="0.0166111" style="stroke:rgb(246,147,147);stroke-width:0.01" />
<line x1="-0.206703" y1="-0.00107367" x2="-0.379062" y2="0.0491226" style="stroke:rgb(246,147,147);stroke-width:0.01" />
<line x1="-0.0213444" y1="0.1936" x2="0.244228" y2="0.203734" style="stroke:rgb(246,147,147);stroke-width:0.01" />
<line x1="0.0103754" y1="-0.0433583" x2="-0.370327" y2="0.0877327" style="stroke:rgb(246,147,147);stroke-width:0.01" />
<line x1="0.0508322" y1="-0.209783" x2="0.033714" y2="-0.188" style="stroke:rgb(246,147,147);stroke-width:0.01" />
<line x1="0.0438442" y1="0.214727" x2="-0.0439644" y2="0.215552" style="stroke:rgb(246,147,147);stroke-width:0.01" />
<line x1="0.0381077" y1="0.260827" x2="0.185895" y2="0.266285" style="stroke:rgb(246,147,147);stroke-width:0.01" />
<line x1="0.163877" y1="0.0606404" x2="-0.223926" y2="0.169303" style="stroke:rgb(246,147,147);stroke-width:0.01" />
<line x1="0.149348" y1="-0.0263064" x2="-0.0834794" y2="0.247556" style="stroke:rgb(246,147,147);stroke-width:0.01" />
<line x1="0.233865" y1="0.108058" x2="-0.144479" y2="0.213569" style="stroke:rgb(246,147,147);stroke-width:0.01" />
<line x1="-0.0213444" y1="0.1936" x2="-0.0439644" y2="0.215552" style="stroke:rgb(246,147,147);stroke-width:0.01" />
<line x1="0.167548" y1="0.124314" x2="-0.0460465" y2="0.268413" style="stroke:rgb(246,147,147);stroke-width:0.01" />
<line x1="0.244228" y1="0.203734" x2="0.10528" y2="0.352728" style="stroke:rgb(246,147,147);stroke-width:0.01" />
</g>
</svg>
