<svg xmlns="http://www.w3.org/2000/svg" viewBox="-1.5 -1.5 3 3">
<g transform="scale(1, -1)">
<path d="M1.003741 -0.055136 L1.114243 0.116021 L1.087174 0.208371 L0.966389 0.262055 L0.959183 0.272101 L0.444699 0.226389 L0.417414 0.105796 L0.687110 0.020588 L0.719976 0.042408 z " fill="rgb(245,195,195)" />
<path d="M0.000000 0.000000 L1.000000 0.000000 L1.000000 1.000000 L0.000000 1.000000  z" fill="none" stroke="rgb(128,128,128)" stroke-width="0.01" />
<line x1="1.00374" y1="-0.0551364" x2="1.11424" y2="0.116021" style="stroke:rgb(246,147,147);stroke-width:0.01" />
<line x1="0.839919" y1="0.0011777" x2="1.02476" y2="0.180677" style="stroke:rgb(246,147,147);stroke-width:0.01" />
<line x1="0.8909" y1="0.0395567" x2="0.905936" y2="0.0504448" style="stroke:rgb(246,147,147);stroke-width:0.01" />
<line x1="0.873782" y1="0.0613396" x2="0.941873" y2="0.11485" style="stroke:rgb(246,147,147);stroke-width:0.01" />
<line x1="0.832649" y1="0.053577" x2="0.851044" y2="0.0791733" style="stroke:rgb(246,147,147);stroke-width:0.01" />
<line x1="0.936214" y1="0.18856" x2="0.982556" y2="0.231103" style="stroke:rgb(246,147,147);stroke-width:0.01" />
<line x1="0.876165" y1="0.0614679" x2="0.902237" y2="0.0774573" style="stroke:rgb(246,147,147);stroke-width:0.01" />
<line x1="0.799395" y1="0.0151078" x2="0.948507" y2="0.271152" style="stroke:rgb(246,147,147);stroke-width:0.01" />
<line x1="0.963943" y1="0.216463" x2="0.982556" y2="0.231103" style="stroke:rgb(246,147,147);stroke-width:0.01" />
<line x1="0.907749" y1="0.0371996" x2="0.989416" y2="0.223034" style="stroke:rgb(246,147,147);stroke-width:0.01" />
<line x1="0.909717" y1="0.168379" x2="0.959183" y2="0.272101" style="stroke:rgb(246,147,147);stroke-width:0.01" />
<line x1="0.68711" y1="0.0205876" x2="0.909717" y2="0.168379" style="stroke:rgb(246,147,147);stroke-width:0.01" />
<line x1="0.878139" y1="0.041342" x2="0.936214" y2="0.18856" style="stroke:rgb(246,147,147);stroke-width:0.01" />
<line x1="0.733359" y1="0.0378079" x2="1.08717" y2="0.208371" style="stroke:rgb(246,147,147);stroke-width:0.01" />
<line x1="0.850443" y1="0.205982" x2="0.946352" y2="0.270961" style="stroke:rgb(246,147,147);stroke-width:0.01" />
<line x1="0.539811" y1="0.0671255" x2="0.625576" y2="0.17799" style="stroke:rgb(246,147,147);stroke-width:0.01" />
<line x1="0.647352" y1="0.0673731" x2="1.00992" y2="0.242706" style="stroke:rgb(246,147,147);stroke-width:0.01" />
<line x1="0.488864" y1="0.121854" x2="0.720114" y2="0.250859" style="stroke:rgb(246,147,147);stroke-width:0.01" />
<line x1="0.799395" y1="0.0151078" x2="0.832737" y2="0.260866" style="stroke:rgb(246,147,147);stroke-width:0.01" />
<line x1="0.921418" y1="0.0234815" x2="1.06785" y2="0.0441655" style="stroke:rgb(246,147,147);stroke-width:0.01" />
<line x1="0.832649" y1="0.053577" x2="0.918936" y2="0.0698711" style="stroke:rgb(246,147,147);stroke-width:0.01" />
<line x1="1.00374" y1="-0.0551364" x2="1.02476" y2="0.180677" style="stroke:rgb(246,147,147);stroke-width:0.01" />
<line x1="0.417414" y1="0.105796" x2="0.444699" y2="0.226389" style="stroke:rgb(246,147,147);stroke-width:0.01" />
<line x1="0.473458" y1="0.158319" x2="0.634266" y2="0.238117" style="stroke:rgb(246,147,147);stroke-width:0.01" />
<line x1="0.577059" y1="0.209904" x2="0.634266" y2="0.238117" style="stroke:rgb(246,147,147);stroke-width:0.01" />
<line x1="0.851044" y1="0.0791733" x2="1.11424" y2="0.116021" style="stroke:rgb(246,147,147);stroke-width:0.01" />
<line x1="0.963943" y1="0.216463" x2="0.989416" y2="0.223034" style="stroke:rgb(246,147,147);stroke-width:0.01" />
<line x1="0.473458" y1="0.158319" x2="0.741384" y2="0.252749" style="stroke:rgb(246,147,147);stroke-width:0.01" />
<line x1="0.539811" y1="0.0671255" x2="0.535915" y2="0.151022" style="stroke:rgb(246,147,147);stroke-width:0.01" />
<line x1="0.941873" y1="0.11485" x2="0.936214" y2="0.18856" style="stroke:rgb(246,147,147);stroke-width:0.01" />
<line x1="0.921418" y1="0.0234815" x2="0.915477" y2="0.0881938" style="stroke:rgb(246,147,147);stroke-width:0.01" />
<line x1="0.878139" y1="0.041342" x2="0.876165" y2="0.0614679" style="stroke:rgb(246,147,147);stroke-width:0.01" />
<line x1="0.839919" y1="0.0011777" x2="0.832649" y2="0.053577" style="stroke:rgb(246,147,147);stroke-width:0.01" />
<line x1="0.907749" y1="0.0371996" x2="0.902237" y2="0.0774573" style="stroke:rgb(246,147,147);stroke-width:0.01" />
<line x1="0.535915" y1="0.151022" x2="0.909717" y2="0.168379" style="stroke:rgb(246,147,147);stroke-width:0.01" />
<line x1="0.907749" y1="0.0371996" x2="0.417414" y2="0.105796" style="stroke:rgb(246,147,147);stroke-width:0.01" />
<line x1="0.918936" y1="0.0698711" x2="0.915477" y2="0.0881938" style="stroke:rgb(246,147,147);stroke-width:0.01" />
<line x1="0.444699" y1="0.226389" x2="0.959183" y2="0.272101" style="stroke:rgb(246,147,147);stroke-width:0.01" />
<line x1="0.488864" y1="0.121854" x2="0.444699" y2="0.226389" style="stroke:rgb(246,147,147);stroke-width:0.01" />
<line x1="0.68711" y1="0.0205876" x2="0.417414" y2="0.105796" style="stroke:rgb(246,147,147);stroke-width:0.01" />
<line x1="0.68711" y1="0.0205876" x2="0.625576" y2="0.17799" style="stroke:rgb(246,147,147);stroke-width:0.01" />
<line x1="1.00374" y1="-0.0551364" x2="0.488864" y2="0.121854" style="stroke:rgb(246,147,147);stroke-width:0.01" />
<line x1="0.850443" y1="0.205982" x2="0.832737" y2="0.260866" style="stroke:rgb(246,147,147);stroke-width:0.01" />
<line x1="0.647352" y1="0.0673731" x2="0.577059" y2="0.209904" style="stroke:rgb(246,147,147);stroke-width:0.01" />
<line x1="0.625576" y1="0.17799" x2="0.440797" y2="0.209142" style="stroke:rgb(246,147,147);stroke-width:0.01" />
<line x1="1.06785" y1="0.0441655" x2="1.00992" y2="0.242706" style="stroke:rgb(246,147,147);stroke-width:0.01" />
<line x1="0.733359" y1="0.0378079" x2="0.634266" y2="0.238117" style="stroke:rgb(246,147,147);stroke-width:0.01" />
<line x1="0.902237" y1="0.0774573" x2="0.440797" y2="0.209142" style="stroke:rgb(246,147,147);stroke-width:0.01" />
<line x1="1.11424" y1="0.116021" x2="1.08717" y2="0.208371" style="stroke:rgb(246,147,147);stroke-width:0.01" />
<line x1="0.905936" y1="0.0504448" x2="0.876165" y2="0.0614679" style="stroke:rgb(246,147,147);stroke-width:0.01" />
<line x1="0.963943" y1="0.216463" x2="0.741384" y2="0.252749" style="stroke:rgb(246,147,147);stroke-width:0.01" />
<line x1="0.850443" y1="0.205982" x2="0.720114" y2="0.250859" style="stroke:rgb(246,147,147);stroke-width:0.01" />
<line x1="0.8909" y1="0.0395567" x2="0.873782" y2="0.0613396" style="stroke:rgb(246,147,147);stroke-width:0.01" />
<line x1="0.921418" y1="0.0234815" x2="0.851044" y2="0.0791733" style="stroke:rgb(246,147,147);stroke-width:0.01" />
<line x1="1.02476" y1="0.180677" x2="0.959183" y2="0.272101" style="stroke:rgb(246,147,147);stroke-width:0.01" />
<line x1="1.08717" y1="0.208371" x2="0.946352" y2="0.270961" style="stroke:rgb(246,147,147);stroke-width:0.01" />
<line x1="0.989416" y1="0.223034" x2="0.948507" y2="0.271152" style="stroke:rgb(246,147,147);stroke-width:0.01" />
</g>
</svg>
