<svg xmlns="http://www.w3.org/2000/svg" viewBox="-1.5 -1.5 3 3">
<g transform="scale(1, -1)">
<path d="M0.181526 -0.188313 L0.292029 -0.017156 L0.264960 0.075194 L0.144175 0.128878 L0.136969 0.138924 L-0.377516 0.093212 L-0.404800 -0.027381 L-0.135105 -0.112589 L-0.102238 -0.090769 z " fill="rgb(245,195,195)" />
<path d="M-0.822214 -0.133177 L0.177786 -0.133177 L0.177786 0.866823 L-0.822214 0.866823  z" fill="none" stroke="rgb(128,128,128)" stroke-width="0.01" />
<line x1="0.181526" y1="-0.188313" x2="0.292029" y2="-0.0171561" style="stroke:rgb(246,147,147);stroke-width:0.01" />
<line x1="0.0177047" y1="-0.131999" x2="0.202548" y2="0.0475005" style="stroke:rgb(246,147,147);stroke-width:0.01" />
<line x1="0.0686856" y1="-0.0936201" x2="0.0837212" y2="-0.0827321" style="stroke:rgb(246,147,147);stroke-width:0.01" />
<line x1="0.0515674" y1="-0.0718372" x2="0.119659" y2="-0.0183271" style="stroke:rgb(246,147,147);stroke-width:0.01" />
<line x1="0.0104345" y1="-0.0795998" x2="0.0288298" y2="-0.0540035" style="stroke:rgb(246,147,147);stroke-width:0.01" />
<line x1="0.114" y1="0.0553835" x2="0.160341" y2="0.0979262" style="stroke:rgb(246,147,147);stroke-width:0.01" />
<line x1="0.0539507" y1="-0.071709" x2="0.0800229" y2="-0.0557196" style="stroke:rgb(246,147,147);stroke-width:0.01" />
<line x1="-0.0228191" y1="-0.118069" x2="0.126293" y2="0.137975" style="stroke:rgb(246,147,147);stroke-width:0.01" />
<line x1="0.141729" y1="0.0832862" x2="0.160341" y2="0.0979262" style="stroke:rgb(246,147,147);stroke-width:0.01" />
<line x1="0.0855347" y1="-0.0959773" x2="0.167202" y2="0.0898567" style="stroke:rgb(246,147,147);stroke-width:0.01" />
<line x1="0.0875022" y1="0.0352023" x2="0.136969" y2="0.138924" style="stroke:rgb(246,147,147);stroke-width:0.01" />
<line x1="-0.135105" y1="-0.112589" x2="0.0875022" y2="0.0352023" style="stroke:rgb(246,147,147);stroke-width:0.01" />
<line x1="0.0559243" y1="-0.0918349" x2="0.114" y2="0.0553835" style="stroke:rgb(246,147,147);stroke-width:0.01" />
<line x1="-0.0888551" y1="-0.095369" x2="0.26496" y2="0.0751943" style="stroke:rgb(246,147,147);stroke-width:0.01" />
<line x1="0.0282288" y1="0.0728048" x2="0.124138" y2="0.137784" style="stroke:rgb(246,147,147);stroke-width:0.01" />
<line x1="-0.282404" y1="-0.0660513" x2="-0.196639" y2="0.0448128" style="stroke:rgb(246,147,147);stroke-width:0.01" />
<line x1="-0.174862" y1="-0.0658037" x2="0.187708" y2="0.10953" style="stroke:rgb(246,147,147);stroke-width:0.01" />
<line x1="-0.333351" y1="-0.0113229" x2="-0.102101" y2="0.117683" style="stroke:rgb(246,147,147);stroke-width:0.01" />
<line x1="-0.0228191" y1="-0.118069" x2="0.010522" y2="0.127689" style="stroke:rgb(246,147,147);stroke-width:0.01" />
<line x1="0.0992032" y1="-0.109695" x2="0.245638" y2="-0.0890114" style="stroke:rgb(246,147,147);stroke-width:0.01" />
<line x1="0.0104345" y1="-0.0795998" x2="0.096722" y2="-0.0633058" style="stroke:rgb(246,147,147);stroke-width:0.01" />
<line x1="0.181526" y1="-0.188313" x2="0.202548" y2="0.0475005" style="stroke:rgb(246,147,147);stroke-width:0.01" />
<line x1="-0.4048" y1="-0.0273812" x2="-0.377516" y2="0.0932119" style="stroke:rgb(246,147,147);stroke-width:0.01" />
<line x1="-0.348757" y1="0.0251422" x2="-0.187948" y2="0.10494" style="stroke:rgb(246,147,147);stroke-width:0.01" />
<line x1="-0.245155" y1="0.0767276" x2="-0.187948" y2="0.10494" style="stroke:rgb(246,147,147);stroke-width:0.01" />
<line x1="0.0288298" y1="-0.0540035" x2="0.292029" y2="-0.0171561" style="stroke:rgb(246,147,147);stroke-width:0.01" />
<line x1="0.141729" y1="0.0832862" x2="0.167202" y2="0.0898567" style="stroke:rgb(246,147,147);stroke-width:0.01" />
<line x1="-0.348757" y1="0.0251422" x2="-0.0808302" y2="0.119572" style="stroke:rgb(246,147,147);stroke-width:0.01" />
<line x1="-0.282404" y1="-0.0660513" x2="-0.2863" y2="0.0178447" style="stroke:rgb(246,147,147);stroke-width:0.01" />
<line x1="0.119659" y1="-0.0183271" x2="0.114" y2="0.0553835" style="stroke:rgb(246,147,147);stroke-width:0.01" />
<line x1="0.0992032" y1="-0.109695" x2="0.093262" y2="-0.0449831" style="stroke:rgb(246,147,147);stroke-width:0.01" />
<line x1="0.0559243" y1="-0.0918349" x2="0.0539507" y2="-0.071709" style="stroke:rgb(246,147,147);stroke-width:0.01" />
<line x1="0.0177047" y1="-0.131999" x2="0.0104345" y2="-0.0795998" style="stroke:rgb(246,147,147);stroke-width:0.01" />
<line x1="0.0855347" y1="-0.0959773" x2="0.0800229" y2="-0.0557196" style="stroke:rgb(246,147,147);stroke-width:0.01" />
<line x1="-0.2863" y1="0.0178447" x2="0.0875022" y2="0.0352023" style="stroke:rgb(246,147,147);stroke-width:0.01" />
<line x1="0.0855347" y1="-0.0959773" x2="-0.4048" y2="-0.0273812" style="stroke:rgb(246,147,147);stroke-width:0.01" />
<line x1="0.096722" y1="-0.0633058" x2="0.093262" y2="-0.0449831" style="stroke:rgb(246,147,147);stroke-width:0.01" />
<line x1="-0.377516" y1="0.0932119" x2="0.136969" y2="0.138924" style="stroke:rgb(246,147,147);stroke-width:0.01" />
<line x1="-0.333351" y1="-0.0113229" x2="-0.377516" y2="0.0932119" style="stroke:rgb(246,147,147);stroke-width:0.01" />
<line x1="-0.135105" y1="-0.112589" x2="-0.4048" y2="-0.0273812" style="stroke:rgb(246,147,147);stroke-width:0.01" />
<line x1="-0.135105" y1="-0.112589" x2="-0.196639" y2="0.0448128" style="stroke:rgb(246,147,147);stroke-width:0.01" />
<line x1="0.181526" y1="-0.188313" x2="-0.333351" y2="-0.0113229" style="stroke:rgb(246,147,147);stroke-width:0.01" />
<line x1="0.0282288" y1="0.0728048" x2="0.010522" y2="0.127689" style="stroke:rgb(246,147,147);stroke-width:0.01" />
<line x1="-0.174862" y1="-0.0658037" x2="-0.245155" y2="0.0767276" style="stroke:rgb(246,147,147);stroke-width:0.01" />
<line x1="-0.196639" y1="0.0448128" x2="-0.381418" y2="0.0759653" style="stroke:rgb(246,147,147);stroke-width:0.01" />
<line x1="0.245638" y1="-0.0890114" x2="0.187708" y2="0.10953" style="stroke:rgb(246,147,147);stroke-width:0.01" />
<line x1="-0.0888551" y1="-0.095369" x2="-0.187948" y2="0.10494" style="stroke:rgb(246,147,147);stroke-width:0.01" />
<line x1="0.0800229" y1="-0.0557196" x2="-0.381418" y2="0.0759653" style="stroke:rgb(246,147,147);stroke-width:0.01" />
<line x1="0.292029" y1="-0.0171561" x2="0.26496" y2="0.0751943" style="stroke:rgb(246,147,147);stroke-width:0.01" />
<line x1="0.0837212" y1="-0.0827321" x2="0.0539507" y2="-0.071709" style="stroke:rgb(246,147,147);stroke-width:0.01" />
<line x1="0.141729" y1="0.0832862" x2="-0.0808302" y2="0.119572" style="stroke:rgb(246,147,147);stroke-width:0.01" />
<line x1="0.0282288" y1="0.0728048" x2="-0.102101" y2="0.117683" style="stroke:rgb(246,147,147);stroke-width:0.01" />
<line x1="0.0686856" y1="-0.0936201" x2="0.0515674" y2="-0.0718372" style="stroke:rgb(246,147,147);stroke-width:0.01" />
<line x1="0.0992032" y1="-0.109695" x2="0.0288298" y2="-0.0540035" style="stroke:rgb(246,147,147);stroke-width:0.01" />
<line x1="0.202548" y1="0.0475005" x2="0.136969" y2="0.138924" style="stroke:rgb(246,147,147);stroke-width:0.01" />
<line x1="0.26496" y1="0.0751943" x2="0.124138" y2="0.137784" style="stroke:rgb(246,147,147);stroke-width:0.01" />
<line x1="0.167202" y1="0.0898567" x2="0.126293" y2="0.137975" style="stroke:rgb(246,147,147);stroke-width:0.01" />
</g>
</svg>
