<svg xmlns="http://www.w3.org/2000/svg" viewBox="-1.5 -1.5 3 3">
<g transform="scale(1, -1)">
<path d="M-0.036247 -0.086214 L0.172183 -0.080190 L0.166937 0.113912 L-0.059480 0.113912 L-0.074399 -0.014601 L-0.062527 -0.017301 L-0.061934 -0.014694 L-0.044535 -0.014824 z " fill="rgb(245,195,195)" />
<path d="M-1.013130 -0.886088 L-0.013130 -0.886088 L-0.013130 0.113912 L-1.013130 0.113912  z" fill="none" stroke="rgb(128,128,128)" stroke-width="0.01" />
<line x1="-0.0625268" y1="-0.0173011" x2="-0.0326807" y2="0.113912" style="stroke:rgb(246,147,147);stroke-width:0.01" />
<line x1="0.0125198" y1="-0.0848046" x2="0.0457864" y2="0.113912" style="stroke:rgb(246,147,147);stroke-width:0.01" />
<line x1="0.0983344" y1="0.0099506" x2="0.110403" y2="0.113912" style="stroke:rgb(246,147,147);stroke-width:0.01" />
<line x1="0.0787327" y1="-0.082891" x2="0.100087" y2="0.113912" style="stroke:rgb(246,147,147);stroke-width:0.01" />
<line x1="-0.0743992" y1="-0.0146006" x2="-0.0594799" y2="0.113912" style="stroke:rgb(246,147,147);stroke-width:0.01" />
<line x1="0.131414" y1="-0.0161428" x2="0.142961" y2="0.113912" style="stroke:rgb(246,147,147);stroke-width:0.01" />
<line x1="0.133068" y1="-0.0813206" x2="0.144363" y2="0.113912" style="stroke:rgb(246,147,147);stroke-width:0.01" />
<line x1="-0.0362468" y1="-0.0862141" x2="-0.0246691" y2="0.113912" style="stroke:rgb(246,147,147);stroke-width:0.01" />
<line x1="0.160225" y1="-0.0805357" x2="0.16621" y2="0.113912" style="stroke:rgb(246,147,147);stroke-width:0.01" />
<line x1="0.163863" y1="0.000162146" x2="0.166937" y2="0.113912" style="stroke:rgb(246,147,147);stroke-width:0.01" />
<line x1="-0.0131301" y1="-0.0855459" x2="-0.0131301" y2="0.113912" style="stroke:rgb(246,147,147);stroke-width:0.01" />
<line x1="0.15562" y1="-0.0806688" x2="0.15562" y2="0.113912" style="stroke:rgb(246,147,147);stroke-width:0.01" />
<line x1="0.172183" y1="-0.0801901" x2="0.166937" y2="0.113912" style="stroke:rgb(246,147,147);stroke-width:0.01" />
<line x1="0.172183" y1="-0.0801901" x2="0.16621" y2="0.113912" style="stroke:rgb(246,147,147);stroke-width:0.01" />
<line x1="-0.0131301" y1="-0.0855459" x2="-0.0246691" y2="0.113912" style="stroke:rgb(246,147,147);stroke-width:0.01" />
<line x1="0.15562" y1="-0.0806688" x2="0.144363" y2="0.113912" style="stroke:rgb(246,147,147);stroke-width:0.01" />
<line x1="0.160225" y1="-0.0805357" x2="0.142961" y2="0.113912" style="stroke:rgb(246,147,147);stroke-width:0.01" />
<line x1="-0.0362468" y1="-0.0862141" x2="-0.0594799" y2="0.113912" style="stroke:rgb(246,147,147);stroke-width:0.01" />
<line x1="0.106846" y1="0.0516174" x2="0.100087" y2="0.113912" style="stroke:rgb(246,147,147);stroke-width:0.01" />
<line x1="0.133068" y1="-0.0813206" x2="0.110403" y2="0.113912" style="stroke:rgb(246,147,147);stroke-width:0.01" />
<line x1="0.0787327" y1="-0.082891" x2="0.0457864" y2="0.113912" style="stroke:rgb(246,147,147);stroke-width:0.01" />
<line x1="0.0125198" y1="-0.0848046" x2="-0.0326807" y2="0.113912" style="stroke:rgb(246,147,147);stroke-width:0.01" />
<line x1="-0.0362468" y1="-0.0862141" x2="0.172183" y2="-0.0801901" style="stroke:rgb(246,147,147);stroke-width:0.01" />
<line x1="-0.0131301" y1="0.0385994" x2="0.106846" y2="0.0516174" style="stroke:rgb(246,147,147);stroke-width:0.01" />
<line x1="-0.0131301" y1="0.00973634" x2="0.164381" y2="0.0193386" style="stroke:rgb(246,147,147);stroke-width:0.01" />
<line x1="0.131414" y1="-0.0161428" x2="-0.0743992" y2="-0.0146006" style="stroke:rgb(246,147,147);stroke-width:0.01" />
<line x1="-0.0131301" y1="0.000162146" x2="0.163863" y2="0.000162146" style="stroke:rgb(246,147,147);stroke-width:0.01" />
<line x1="0.163863" y1="0.000162146" x2="-0.0131301" y2="0.00973634" style="stroke:rgb(246,147,147);stroke-width:0.01" />
<line x1="0.133369" y1="0.00588332" x2="-0.0705625" y2="0.0184479" style="stroke:rgb(246,147,147);stroke-width:0.01" />
<line x1="-0.0594799" y1="0.113912" x2="0.166937" y2="0.113912" style="stroke:rgb(246,147,147);stroke-width:0.01" />
<line x1="0.133369" y1="0.00588332" x2="-0.0692898" y2="0.0294105" style="stroke:rgb(246,147,147);stroke-width:0.01" />
<line x1="0.164381" y1="0.0193386" x2="-0.0131301" y2="0.0385994" style="stroke:rgb(246,147,147);stroke-width:0.01" />
<line x1="-0.0625268" y1="-0.0173011" x2="-0.0743992" y2="-0.0146006" style="stroke:rgb(246,147,147);stroke-width:0.01" />
<line x1="0.131414" y1="-0.0161428" x2="-0.0705625" y2="0.0184479" style="stroke:rgb(246,147,147);stroke-width:0.01" />
</g>
</svg>
