<svg xmlns="http://www.w3.org/2000/svg" viewBox="-1.5 -1.5 3 3">
<g transform="scale(1, -1)">
<path d="M-0.113288 -0.131377 L0.123339 -0.102113 L0.257926 -0.068467 L0.269447 -0.058569 L0.297517 -0.058569 L0.383728 -0.037016 L0.422031 -0.030657 L0.425554 -0.025240 L-0.175279 0.369873 L-0.650337 0.231034 L-0.630256 0.162325 L-0.164983 -0.056453 L-0.164983 -0.058569 L-0.160484 -0.058569 L-0.119934 -0.077636 z " fill="rgb(245,195,195)" />
<path d="M-0.164983 -0.058569 L0.835017 -0.058569 L0.835017 0.941431 L-0.164983 0.941431  z" fill="none" stroke="rgb(128,128,128)" stroke-width="0.01" />
<line x1="0.424502" y1="-0.0268224" x2="0.425554" y2="-0.0252397" style="stroke:rgb(246,147,147);stroke-width:0.01" />
<line x1="0.422031" y1="-0.0306566" x2="0.425554" y2="-0.0252397" style="stroke:rgb(246,147,147);stroke-width:0.01" />
<line x1="0.257926" y1="-0.0684666" x2="0.359106" y2="0.0184574" style="stroke:rgb(246,147,147);stroke-width:0.01" />
<line x1="0.297517" y1="-0.0585686" x2="0.390941" y2="-0.00874265" style="stroke:rgb(246,147,147);stroke-width:0.01" />
<line x1="0.339512" y1="-0.0443571" x2="0.359106" y2="0.0184574" style="stroke:rgb(246,147,147);stroke-width:0.01" />
<line x1="0.0858288" y1="-0.0864757" x2="0.279578" y2="0.0707553" style="stroke:rgb(246,147,147);stroke-width:0.01" />
<line x1="0.123339" y1="-0.102113" x2="0.22818" y2="-0.0618214" style="stroke:rgb(246,147,147);stroke-width:0.01" />
<line x1="0.123339" y1="-0.102113" x2="0.257926" y2="-0.0684666" style="stroke:rgb(246,147,147);stroke-width:0.01" />
<line x1="0.297517" y1="-0.0585686" x2="0.424502" y2="-0.0268224" style="stroke:rgb(246,147,147);stroke-width:0.01" />
<line x1="-0.630256" y1="0.162325" x2="-0.650337" y2="0.231034" style="stroke:rgb(246,147,147);stroke-width:0.01" />
<line x1="0.23907" y1="-0.0731805" x2="0.279578" y2="0.0707553" style="stroke:rgb(246,147,147);stroke-width:0.01" />
<line x1="0.18695" y1="0.111936" x2="0.192921" y2="0.127742" style="stroke:rgb(246,147,147);stroke-width:0.01" />
<line x1="-0.0523458" y1="-0.109417" x2="0.192921" y2="0.127742" style="stroke:rgb(246,147,147);stroke-width:0.01" />
<line x1="-0.113288" y1="-0.131377" x2="0.123339" y2="-0.102113" style="stroke:rgb(246,147,147);stroke-width:0.01" />
<line x1="-0.0523458" y1="-0.109417" x2="0.422031" y2="-0.0306566" style="stroke:rgb(246,147,147);stroke-width:0.01" />
<line x1="-0.164983" y1="-0.0585686" x2="0.297517" y2="-0.0585686" style="stroke:rgb(246,147,147);stroke-width:0.01" />
<line x1="-0.164983" y1="-0.0585686" x2="-0.164983" y2="0.363103" style="stroke:rgb(246,147,147);stroke-width:0.01" />
<line x1="-0.0523458" y1="-0.109417" x2="-0.630256" y2="0.162325" style="stroke:rgb(246,147,147);stroke-width:0.01" />
<line x1="0.0167978" y1="-0.0979368" x2="0.0157786" y2="0.00399336" style="stroke:rgb(246,147,147);stroke-width:0.01" />
<line x1="-0.113288" y1="-0.131377" x2="-0.175279" y2="0.369873" style="stroke:rgb(246,147,147);stroke-width:0.01" />
<line x1="0.0167978" y1="-0.0979368" x2="0.0029329" y2="-0.0559654" style="stroke:rgb(246,147,147);stroke-width:0.01" />
<line x1="0.393343" y1="-0.0346123" x2="0.390941" y2="-0.00874265" style="stroke:rgb(246,147,147);stroke-width:0.01" />
<line x1="0.0858288" y1="-0.0864757" x2="0.0029329" y2="-0.0559654" style="stroke:rgb(246,147,147);stroke-width:0.01" />
<line x1="0.0157786" y1="0.00399336" x2="0.375629" y2="0.00759167" style="stroke:rgb(246,147,147);stroke-width:0.01" />
<line x1="0.257926" y1="-0.0684666" x2="0.22818" y2="-0.0618214" style="stroke:rgb(246,147,147);stroke-width:0.01" />
<line x1="0.23907" y1="-0.0731805" x2="0.22818" y2="-0.0618214" style="stroke:rgb(246,147,147);stroke-width:0.01" />
<line x1="0.393343" y1="-0.0346123" x2="0.375629" y2="0.00759167" style="stroke:rgb(246,147,147);stroke-width:0.01" />
<line x1="0.232867" y1="0.101473" x2="0.18695" y2="0.111936" style="stroke:rgb(246,147,147);stroke-width:0.01" />
<line x1="0.339512" y1="-0.0443571" x2="0.232867" y2="0.101473" style="stroke:rgb(246,147,147);stroke-width:0.01" />
<line x1="0.424502" y1="-0.0268224" x2="0.390941" y2="-0.00874265" style="stroke:rgb(246,147,147);stroke-width:0.01" />
<line x1="0.360938" y1="0.0172523" x2="0.18695" y2="0.111936" style="stroke:rgb(246,147,147);stroke-width:0.01" />
<line x1="0.425554" y1="-0.0252397" x2="-0.175279" y2="0.369873" style="stroke:rgb(246,147,147);stroke-width:0.01" />
<line x1="0.422031" y1="-0.0306566" x2="0.360938" y2="0.0172523" style="stroke:rgb(246,147,147);stroke-width:0.01" />
<line x1="-0.630256" y1="0.162325" x2="-0.164983" y2="0.363103" style="stroke:rgb(246,147,147);stroke-width:0.01" />
<line x1="-0.650337" y1="0.231034" x2="-0.175279" y2="0.369873" style="stroke:rgb(246,147,147);stroke-width:0.01" />
</g>
</svg>
