<svg xmlns="http://www.w3.org/2000/svg" viewBox="-1.5 -1.5 3 3">
<g transform="scale(1, -1)">
<path d="M0.051695 -0.072809 L0.288322 -0.043545 L0.422908 -0.009898 L0.434430 0.000000 L0.462500 0.000000 L0.548710 0.021553 L0.587013 0.027912 L0.590537 0.033329 L-0.010296 0.428442 L-0.485354 0.289603 L-0.465273 0.220894 L0.000000 0.002115 L0.000000 0.000000 L0.004499 0.000000 L0.045049 -0.019067 z " fill="rgb(245,195,195)" />
<path d="M0.000000 0.000000 L1.000000 0.000000 L1.000000 1.000000 L0.000000 1.000000  z" fill="none" stroke="rgb(128,128,128)" stroke-width="0.01" />
<line x1="0.589485" y1="0.0317462" x2="0.590537" y2="0.0333289" style="stroke:rgb(246,147,147);stroke-width:0.01" />
<line x1="0.587013" y1="0.027912" x2="0.590537" y2="0.0333289" style="stroke:rgb(246,147,147);stroke-width:0.01" />
<line x1="0.422908" y1="-0.00989795" x2="0.524089" y2="0.077026" style="stroke:rgb(246,147,147);stroke-width:0.01" />
<line x1="0.4625" y1="0" x2="0.555924" y2="0.049826" style="stroke:rgb(246,147,147);stroke-width:0.01" />
<line x1="0.504495" y1="0.0142115" x2="0.524089" y2="0.077026" style="stroke:rgb(246,147,147);stroke-width:0.01" />
<line x1="0.250811" y1="-0.0279071" x2="0.444561" y2="0.129324" style="stroke:rgb(246,147,147);stroke-width:0.01" />
<line x1="0.288322" y1="-0.0435446" x2="0.393163" y2="-0.00325275" style="stroke:rgb(246,147,147);stroke-width:0.01" />
<line x1="0.288322" y1="-0.0435446" x2="0.422908" y2="-0.00989795" style="stroke:rgb(246,147,147);stroke-width:0.01" />
<line x1="0.4625" y1="0" x2="0.589485" y2="0.0317462" style="stroke:rgb(246,147,147);stroke-width:0.01" />
<line x1="-0.465273" y1="0.220894" x2="-0.485354" y2="0.289603" style="stroke:rgb(246,147,147);stroke-width:0.01" />
<line x1="0.404053" y1="-0.0146119" x2="0.444561" y2="0.129324" style="stroke:rgb(246,147,147);stroke-width:0.01" />
<line x1="0.351933" y1="0.170505" x2="0.357904" y2="0.18631" style="stroke:rgb(246,147,147);stroke-width:0.01" />
<line x1="0.112637" y1="-0.050848" x2="0.357904" y2="0.18631" style="stroke:rgb(246,147,147);stroke-width:0.01" />
<line x1="0.0516951" y1="-0.0728088" x2="0.288322" y2="-0.0435446" style="stroke:rgb(246,147,147);stroke-width:0.01" />
<line x1="0.112637" y1="-0.050848" x2="0.587013" y2="0.027912" style="stroke:rgb(246,147,147);stroke-width:0.01" />
<line x1="0" y1="0" x2="0.4625" y2="0" style="stroke:rgb(246,147,147);stroke-width:0.01" />
<line x1="0" y1="0" x2="0" y2="0.421671" style="stroke:rgb(246,147,147);stroke-width:0.01" />
<line x1="0.112637" y1="-0.050848" x2="-0.465273" y2="0.220894" style="stroke:rgb(246,147,147);stroke-width:0.01" />
<line x1="0.18178" y1="-0.0393682" x2="0.180761" y2="0.062562" style="stroke:rgb(246,147,147);stroke-width:0.01" />
<line x1="0.0516951" y1="-0.0728088" x2="-0.0102959" y2="0.428442" style="stroke:rgb(246,147,147);stroke-width:0.01" />
<line x1="0.18178" y1="-0.0393682" x2="0.167916" y2="0.00260319" style="stroke:rgb(246,147,147);stroke-width:0.01" />
<line x1="0.558325" y1="0.0239563" x2="0.555924" y2="0.049826" style="stroke:rgb(246,147,147);stroke-width:0.01" />
<line x1="0.250811" y1="-0.0279071" x2="0.167916" y2="0.00260319" style="stroke:rgb(246,147,147);stroke-width:0.01" />
<line x1="0.180761" y1="0.062562" x2="0.540612" y2="0.0661603" style="stroke:rgb(246,147,147);stroke-width:0.01" />
<line x1="0.422908" y1="-0.00989795" x2="0.393163" y2="-0.00325275" style="stroke:rgb(246,147,147);stroke-width:0.01" />
<line x1="0.404053" y1="-0.0146119" x2="0.393163" y2="-0.00325275" style="stroke:rgb(246,147,147);stroke-width:0.01" />
<line x1="0.558325" y1="0.0239563" x2="0.540612" y2="0.0661603" style="stroke:rgb(246,147,147);stroke-width:0.01" />
<line x1="0.39785" y1="0.160042" x2="0.351933" y2="0.170505" style="stroke:rgb(246,147,147);stroke-width:0.01" />
<line x1="0.504495" y1="0.0142115" x2="0.39785" y2="0.160042" style="stroke:rgb(246,147,147);stroke-width:0.01" />
<line x1="0.589485" y1="0.0317462" x2="0.555924" y2="0.049826" style="stroke:rgb(246,147,147);stroke-width:0.01" />
<line x1="0.525921" y1="0.0758209" x2="0.351933" y2="0.170505" style="stroke:rgb(246,147,147);stroke-width:0.01" />
<line x1="0.590537" y1="0.0333289" x2="-0.0102959" y2="0.428442" style="stroke:rgb(246,147,147);stroke-width:0.01" />
<line x1="0.587013" y1="0.027912" x2="0.525921" y2="0.0758209" style="stroke:rgb(246,147,147);stroke-width:0.01" />
<line x1="-0.465273" y1="0.220894" x2="0" y2="0.421671" style="stroke:rgb(246,147,147);stroke-width:0.01" />
<line x1="-0.485354" y1="0.289603" x2="-0.0102959" y2="0.428442" style="stroke:rgb(246,147,147);stroke-width:0.01" />
</g>
</svg>
