<svg xmlns="http://www.w3.org/2000/svg" viewBox="-1.5 -1.5 3 3">
<g transform="scale(1, -1)">
<path d="M-0.103858 -0.095640 L0.214516 -0.052494 L0.333028 -0.058415 L0.335004 -0.036165 L0.373164 -0.030994 L0.355417 0.193594 L-0.165642 0.196136 L-0.179397 0.038687 L-0.162518 0.005012 L-0.150706 0.003500 L-0.149410 -0.013217 L-0.147622 -0.013079 L-0.147733 -0.024483 L-0.146300 -0.027343 L-0.145582 -0.042933 L-0.112361 -0.042168 z " fill="rgb(245,195,195)" />
<path d="M-0.145582 -0.134023 L0.854418 -0.134023 L0.854418 0.865977 L-0.145582 0.865977  z" fill="none" stroke="rgb(128,128,128)" stroke-width="0.01" />
<line x1="0.333028" y1="-0.0584149" x2="0.355417" y2="0.193594" style="stroke:rgb(246,147,147);stroke-width:0.01" />
<line x1="-0.145582" y1="-0.0429327" x2="-0.145582" y2="0.196038" style="stroke:rgb(246,147,147);stroke-width:0.01" />
<line x1="-0.147733" y1="-0.0244827" x2="-0.145582" y2="0.196038" style="stroke:rgb(246,147,147);stroke-width:0.01" />
<line x1="-0.145582" y1="-0.0429327" x2="-0.149773" y2="0.0480611" style="stroke:rgb(246,147,147);stroke-width:0.01" />
<line x1="-0.14941" y1="-0.0132172" x2="-0.165642" y2="0.196136" style="stroke:rgb(246,147,147);stroke-width:0.01" />
<line x1="-0.147057" y1="-0.0258322" x2="-0.127024" y2="0.195947" style="stroke:rgb(246,147,147);stroke-width:0.01" />
<line x1="-0.110316" y1="-0.0116051" x2="-0.127024" y2="0.195947" style="stroke:rgb(246,147,147);stroke-width:0.01" />
<line x1="-0.179397" y1="0.038687" x2="-0.165642" y2="0.196136" style="stroke:rgb(246,147,147);stroke-width:0.01" />
<line x1="-0.103858" y1="-0.0956398" x2="-0.116575" y2="0.0177545" style="stroke:rgb(246,147,147);stroke-width:0.01" />
<line x1="-0.103858" y1="-0.0956398" x2="-0.150247" y2="0.196061" style="stroke:rgb(246,147,147);stroke-width:0.01" />
<line x1="-0.177493" y1="0.0348888" x2="-0.150247" y2="0.196061" style="stroke:rgb(246,147,147);stroke-width:0.01" />
<line x1="-0.142637" y1="-0.03465" x2="-0.147733" y2="-0.0244827" style="stroke:rgb(246,147,147);stroke-width:0.01" />
<line x1="-0.162518" y1="0.00501234" x2="-0.179397" y2="0.038687" style="stroke:rgb(246,147,147);stroke-width:0.01" />
<line x1="-0.142637" y1="-0.03465" x2="-0.139737" y2="-0.0303342" style="stroke:rgb(246,147,147);stroke-width:0.01" />
<line x1="-0.103858" y1="-0.0956398" x2="0.373164" y2="-0.0309938" style="stroke:rgb(246,147,147);stroke-width:0.01" />
<line x1="-0.162518" y1="0.00501234" x2="-0.152798" y2="0.0222186" style="stroke:rgb(246,147,147);stroke-width:0.01" />
<line x1="0.373164" y1="-0.0309938" x2="0.355417" y2="0.193594" style="stroke:rgb(246,147,147);stroke-width:0.01" />
<line x1="-0.139737" y1="-0.0303342" x2="-0.147733" y2="-0.0244827" style="stroke:rgb(246,147,147);stroke-width:0.01" />
<line x1="-0.139737" y1="-0.0303342" x2="-0.147057" y2="-0.0258322" style="stroke:rgb(246,147,147);stroke-width:0.01" />
<line x1="-0.145582" y1="-0.0429327" x2="0.373164" y2="-0.0309938" style="stroke:rgb(246,147,147);stroke-width:0.01" />
<line x1="0.333028" y1="-0.0584149" x2="-0.142637" y2="-0.03465" style="stroke:rgb(246,147,147);stroke-width:0.01" />
<line x1="-0.152798" y1="0.0222186" x2="-0.179397" y2="0.038687" style="stroke:rgb(246,147,147);stroke-width:0.01" />
<line x1="-0.110316" y1="-0.0116051" x2="0.368585" y2="0.0269469" style="stroke:rgb(246,147,147);stroke-width:0.01" />
<line x1="-0.14941" y1="-0.0132172" x2="0.368585" y2="0.0269469" style="stroke:rgb(246,147,147);stroke-width:0.01" />
<line x1="-0.152798" y1="0.0222186" x2="-0.177493" y2="0.0348888" style="stroke:rgb(246,147,147);stroke-width:0.01" />
<line x1="0.333028" y1="-0.0584149" x2="-0.162518" y2="0.00501234" style="stroke:rgb(246,147,147);stroke-width:0.01" />
<line x1="-0.116575" y1="0.0177545" x2="0.365043" y2="0.0717706" style="stroke:rgb(246,147,147);stroke-width:0.01" />
<line x1="-0.149773" y1="0.0480611" x2="0.365043" y2="0.0717706" style="stroke:rgb(246,147,147);stroke-width:0.01" />
<line x1="0.355417" y1="0.193594" x2="-0.165642" y2="0.196136" style="stroke:rgb(246,147,147);stroke-width:0.01" />
</g>
</svg>
