<svg xmlns="http://www.w3.org/2000/svg" viewBox="-1.5 -1.5 3 3">
<g transform="scale(1, -1)">
<path d="M0.550648 0.538764 L0.743846 0.729942 L0.665547 0.854681 L0.463361 0.910140 L0.344080 0.986772 L0.340877 0.985268 L0.343994 0.978632 L0.343620 0.942985 L0.201913 0.981855 L0.147138 0.868378 L0.185698 0.793155 L0.180397 0.731467 L0.219022 0.728148 L0.238986 0.689203 L0.340439 0.640232 L0.340340 0.630855 L0.316294 0.621982 L0.339583 0.558863 L0.464271 0.580458 z " fill="rgb(245,195,195)" />
<path d="M0.000000 0.000000 L1.000000 0.000000 L1.000000 1.000000 L0.000000 1.000000  z" fill="none" stroke="rgb(128,128,128)" stroke-width="0.01" />
<line x1="0.620046" y1="0.607436" x2="0.665547" y2="0.854681" style="stroke:rgb(246,147,147);stroke-width:0.01" />
<line x1="0.238986" y1="0.689203" x2="0.266743" y2="0.847391" style="stroke:rgb(246,147,147);stroke-width:0.01" />
<line x1="0.180397" y1="0.731467" x2="0.201913" y2="0.981855" style="stroke:rgb(246,147,147);stroke-width:0.01" />
<line x1="0.339583" y1="0.558863" x2="0.34408" y2="0.986772" style="stroke:rgb(246,147,147);stroke-width:0.01" />
<line x1="0.550648" y1="0.538764" x2="0.743846" y2="0.729942" style="stroke:rgb(246,147,147);stroke-width:0.01" />
<line x1="0.700245" y1="0.686797" x2="0.69461" y2="0.761574" style="stroke:rgb(246,147,147);stroke-width:0.01" />
<line x1="0.722409" y1="0.70873" x2="0.719639" y2="0.745494" style="stroke:rgb(246,147,147);stroke-width:0.01" />
<line x1="0.724742" y1="0.711039" x2="0.722273" y2="0.743801" style="stroke:rgb(246,147,147);stroke-width:0.01" />
<line x1="0.147138" y1="0.868378" x2="0.201913" y2="0.981855" style="stroke:rgb(246,147,147);stroke-width:0.01" />
<line x1="0.339583" y1="0.558863" x2="0.316294" y2="0.621982" style="stroke:rgb(246,147,147);stroke-width:0.01" />
<line x1="0.238986" y1="0.689203" x2="0.147138" y2="0.868378" style="stroke:rgb(246,147,147);stroke-width:0.01" />
<line x1="0.550648" y1="0.538764" x2="0.340877" y2="0.985268" style="stroke:rgb(246,147,147);stroke-width:0.01" />
<line x1="0.325381" y1="0.597355" x2="0.722273" y2="0.743801" style="stroke:rgb(246,147,147);stroke-width:0.01" />
<line x1="0.324515" y1="0.599701" x2="0.719639" y2="0.745494" style="stroke:rgb(246,147,147);stroke-width:0.01" />
<line x1="0.316294" y1="0.621982" x2="0.69461" y2="0.761574" style="stroke:rgb(246,147,147);stroke-width:0.01" />
<line x1="0.339583" y1="0.558863" x2="0.620046" y2="0.607436" style="stroke:rgb(246,147,147);stroke-width:0.01" />
<line x1="0.743846" y1="0.729942" x2="0.665547" y2="0.854681" style="stroke:rgb(246,147,147);stroke-width:0.01" />
<line x1="0.550648" y1="0.538764" x2="0.238986" y2="0.689203" style="stroke:rgb(246,147,147);stroke-width:0.01" />
<line x1="0.340877" y1="0.985268" x2="0.34408" y2="0.986772" style="stroke:rgb(246,147,147);stroke-width:0.01" />
<line x1="0.700245" y1="0.686797" x2="0.180397" y2="0.731467" style="stroke:rgb(246,147,147);stroke-width:0.01" />
<line x1="0.722409" y1="0.70873" x2="0.182431" y2="0.75513" style="stroke:rgb(246,147,147);stroke-width:0.01" />
<line x1="0.724742" y1="0.711039" x2="0.182645" y2="0.757621" style="stroke:rgb(246,147,147);stroke-width:0.01" />
<line x1="0.743846" y1="0.729942" x2="0.34408" y2="0.986772" style="stroke:rgb(246,147,147);stroke-width:0.01" />
<line x1="0.266743" y1="0.847391" x2="0.147138" y2="0.868378" style="stroke:rgb(246,147,147);stroke-width:0.01" />
<line x1="0.665547" y1="0.854681" x2="0.201913" y2="0.981855" style="stroke:rgb(246,147,147);stroke-width:0.01" />
</g>
</svg>
