<svg xmlns="http://www.w3.org/2000/svg" viewBox="-1.5 -1.5 3 3">
<g transform="scale(1, -1)">
<path d="M0.194329 -0.237646 L0.387527 -0.046467 L0.309228 0.078271 L0.107042 0.133731 L-0.012239 0.210363 L-0.015442 0.208858 L-0.012324 0.202222 L-0.012699 0.166576 L-0.154406 0.205446 L-0.209181 0.091968 L-0.170620 0.016746 L-0.175921 -0.044942 L-0.137297 -0.048261 L-0.117332 -0.087207 L-0.015880 -0.136178 L-0.015979 -0.145555 L-0.040025 -0.154427 L-0.016735 -0.217546 L0.107952 -0.195952 z " fill="rgb(245,195,195)" />
<path d="M-0.356319 -0.776409 L0.643681 -0.776409 L0.643681 0.223591 L-0.356319 0.223591  z" fill="none" stroke="rgb(128,128,128)" stroke-width="0.01" />
<line x1="0.263727" y1="-0.168973" x2="0.309228" y2="0.0782712" style="stroke:rgb(246,147,147);stroke-width:0.01" />
<line x1="-0.117332" y1="-0.0872069" x2="-0.0895755" y2="0.0709812" style="stroke:rgb(246,147,147);stroke-width:0.01" />
<line x1="-0.175921" y1="-0.0449423" x2="-0.154406" y2="0.205446" style="stroke:rgb(246,147,147);stroke-width:0.01" />
<line x1="-0.0167351" y1="-0.217546" x2="-0.0122386" y2="0.210363" style="stroke:rgb(246,147,147);stroke-width:0.01" />
<line x1="0.194329" y1="-0.237646" x2="0.387527" y2="-0.0464671" style="stroke:rgb(246,147,147);stroke-width:0.01" />
<line x1="0.343926" y1="-0.0896126" x2="0.338291" y2="-0.0148354" style="stroke:rgb(246,147,147);stroke-width:0.01" />
<line x1="0.366091" y1="-0.0676796" x2="0.36332" y2="-0.0309154" style="stroke:rgb(246,147,147);stroke-width:0.01" />
<line x1="0.368424" y1="-0.0653709" x2="0.365955" y2="-0.032608" style="stroke:rgb(246,147,147);stroke-width:0.01" />
<line x1="-0.209181" y1="0.0919681" x2="-0.154406" y2="0.205446" style="stroke:rgb(246,147,147);stroke-width:0.01" />
<line x1="-0.0167351" y1="-0.217546" x2="-0.0400248" y2="-0.154427" style="stroke:rgb(246,147,147);stroke-width:0.01" />
<line x1="-0.117332" y1="-0.0872069" x2="-0.209181" y2="0.0919681" style="stroke:rgb(246,147,147);stroke-width:0.01" />
<line x1="0.194329" y1="-0.237646" x2="-0.0154417" y2="0.208858" style="stroke:rgb(246,147,147);stroke-width:0.01" />
<line x1="-0.0309379" y1="-0.179054" x2="0.365955" y2="-0.032608" style="stroke:rgb(246,147,147);stroke-width:0.01" />
<line x1="-0.0318033" y1="-0.176709" x2="0.36332" y2="-0.0309154" style="stroke:rgb(246,147,147);stroke-width:0.01" />
<line x1="-0.0400248" y1="-0.154427" x2="0.338291" y2="-0.0148354" style="stroke:rgb(246,147,147);stroke-width:0.01" />
<line x1="-0.0167351" y1="-0.217546" x2="0.263727" y2="-0.168973" style="stroke:rgb(246,147,147);stroke-width:0.01" />
<line x1="0.387527" y1="-0.0464671" x2="0.309228" y2="0.0782712" style="stroke:rgb(246,147,147);stroke-width:0.01" />
<line x1="0.194329" y1="-0.237646" x2="-0.117332" y2="-0.0872069" style="stroke:rgb(246,147,147);stroke-width:0.01" />
<line x1="-0.0154417" y1="0.208858" x2="-0.0122386" y2="0.210363" style="stroke:rgb(246,147,147);stroke-width:0.01" />
<line x1="0.343926" y1="-0.0896126" x2="-0.175921" y2="-0.0449423" style="stroke:rgb(246,147,147);stroke-width:0.01" />
<line x1="0.366091" y1="-0.0676796" x2="-0.173888" y2="-0.0212795" style="stroke:rgb(246,147,147);stroke-width:0.01" />
<line x1="0.368424" y1="-0.0653709" x2="-0.173674" y2="-0.0187887" style="stroke:rgb(246,147,147);stroke-width:0.01" />
<line x1="0.387527" y1="-0.0464671" x2="-0.0122386" y2="0.210363" style="stroke:rgb(246,147,147);stroke-width:0.01" />
<line x1="-0.0895755" y1="0.0709812" x2="-0.209181" y2="0.0919681" style="stroke:rgb(246,147,147);stroke-width:0.01" />
<line x1="0.309228" y1="0.0782712" x2="-0.154406" y2="0.205446" style="stroke:rgb(246,147,147);stroke-width:0.01" />
</g>
</svg>
