<svg xmlns="http://www.w3.org/2000/svg" viewBox="-1.5 -1.5 3 3">
<g transform="scale(1, -1)">
<path d="M0.738828 1.038845 L1.311088 1.363323 L1.311489 1.364239 L1.275111 1.380158 L1.279528 1.408105 L1.262415 1.418953 L1.211758 1.407882 L1.141196 1.438760 L1.080865 1.414792 L0.944923 1.469472 L0.767113 1.296709 L0.717133 1.325385 L0.676190 1.254024 L0.669607 1.251409 L0.681837 1.213854 L0.630114 1.163599 z " fill="rgb(245,195,195)" />
<path d="M0.000000 0.000000 L1.000000 0.000000 L1.000000 1.000000 L0.000000 1.000000  z" fill="none" stroke="rgb(128,128,128)" stroke-width="0.01" />
<line x1="1.31109" y1="1.36332" x2="1.31149" y2="1.36424" style="stroke:rgb(246,147,147);stroke-width:0.01" />
<line x1="1.24791" y1="1.3275" x2="1.27357" y2="1.37038" style="stroke:rgb(246,147,147);stroke-width:0.01" />
<line x1="1.04498" y1="1.21244" x2="1.1412" y2="1.43876" style="stroke:rgb(246,147,147);stroke-width:0.01" />
<line x1="1.26865" y1="1.33926" x2="1.27953" y2="1.40811" style="stroke:rgb(246,147,147);stroke-width:0.01" />
<line x1="0.913203" y1="1.13772" x2="0.945715" y2="1.40986" style="stroke:rgb(246,147,147);stroke-width:0.01" />
<line x1="0.766462" y1="1.05451" x2="0.778416" y2="1.07587" style="stroke:rgb(246,147,147);stroke-width:0.01" />
<line x1="0.72411" y1="1.05573" x2="0.74566" y2="1.25376" style="stroke:rgb(246,147,147);stroke-width:0.01" />
<line x1="0.791348" y1="1.06863" x2="0.798803" y2="1.3275" style="stroke:rgb(246,147,147);stroke-width:0.01" />
<line x1="0.979099" y1="1.17508" x2="0.984193" y2="1.45368" style="stroke:rgb(246,147,147);stroke-width:0.01" />
<line x1="0.671447" y1="1.24576" x2="0.717133" y2="1.32538" style="stroke:rgb(246,147,147);stroke-width:0.01" />
<line x1="0.946884" y1="1.41335" x2="0.944923" y2="1.46947" style="stroke:rgb(246,147,147);stroke-width:0.01" />
<line x1="0.946884" y1="1.41335" x2="0.984193" y2="1.45368" style="stroke:rgb(246,147,147);stroke-width:0.01" />
<line x1="0.630114" y1="1.1636" x2="0.944923" y2="1.46947" style="stroke:rgb(246,147,147);stroke-width:0.01" />
<line x1="1.11714" y1="1.25335" x2="1.08922" y2="1.3811" style="stroke:rgb(246,147,147);stroke-width:0.01" />
<line x1="0.738828" y1="1.03885" x2="0.669607" y2="1.25141" style="stroke:rgb(246,147,147);stroke-width:0.01" />
<line x1="1.27357" y1="1.37038" x2="1.26242" y2="1.41895" style="stroke:rgb(246,147,147);stroke-width:0.01" />
<line x1="0.630114" y1="1.1636" x2="0.945715" y2="1.40986" style="stroke:rgb(246,147,147);stroke-width:0.01" />
<line x1="0.738828" y1="1.03885" x2="1.31109" y2="1.36332" style="stroke:rgb(246,147,147);stroke-width:0.01" />
<line x1="0.738828" y1="1.03885" x2="0.630114" y2="1.1636" style="stroke:rgb(246,147,147);stroke-width:0.01" />
<line x1="0.669607" y1="1.25141" x2="1.1412" y2="1.43876" style="stroke:rgb(246,147,147);stroke-width:0.01" />
<line x1="0.669607" y1="1.25141" x2="1.27953" y2="1.40811" style="stroke:rgb(246,147,147);stroke-width:0.01" />
<line x1="0.766462" y1="1.05451" x2="0.72411" y2="1.05573" style="stroke:rgb(246,147,147);stroke-width:0.01" />
<line x1="1.08922" y1="1.3811" x2="1.26242" y2="1.41895" style="stroke:rgb(246,147,147);stroke-width:0.01" />
<line x1="0.791348" y1="1.06863" x2="0.778416" y2="1.07587" style="stroke:rgb(246,147,147);stroke-width:0.01" />
<line x1="1.11714" y1="1.25335" x2="0.946884" y2="1.41335" style="stroke:rgb(246,147,147);stroke-width:0.01" />
<line x1="0.913203" y1="1.13772" x2="0.671447" y2="1.24576" style="stroke:rgb(246,147,147);stroke-width:0.01" />
<line x1="0.979099" y1="1.17508" x2="0.717133" y2="1.32538" style="stroke:rgb(246,147,147);stroke-width:0.01" />
<line x1="0.798803" y1="1.3275" x2="1.24791" y2="1.3275" style="stroke:rgb(246,147,147);stroke-width:0.01" />
<line x1="1.04498" y1="1.21244" x2="0.74566" y2="1.25376" style="stroke:rgb(246,147,147);stroke-width:0.01" />
<line x1="1.31109" y1="1.36332" x2="0.945715" y2="1.40986" style="stroke:rgb(246,147,147);stroke-width:0.01" />
<line x1="1.27953" y1="1.40811" x2="1.26242" y2="1.41895" style="stroke:rgb(246,147,147);stroke-width:0.01" />
<line x1="1.26865" y1="1.33926" x2="0.944923" y2="1.46947" style="stroke:rgb(246,147,147);stroke-width:0.01" />
<line x1="1.31149" y1="1.36424" x2="1.1412" y2="1.43876" style="stroke:rgb(246,147,147);stroke-width:0.01" />
</g>
</svg>
