<svg xmlns="http://www.w3.org/2000/svg" viewBox="-1.5 -1.5 3 3">
<g transform="scale(1, -1)">
<path d="M-0.242372 -0.286749 L0.329888 0.037729 L0.330289 0.038645 L0.293912 0.054563 L0.298329 0.082511 L0.281215 0.093359 L0.230558 0.082287 L0.159996 0.113165 L0.099666 0.089197 L-0.036277 0.143878 L-0.214087 -0.028885 L-0.264066 -0.000209 L-0.305010 -0.071570 L-0.311592 -0.074185 L-0.299363 -0.111741 L-0.351086 -0.161996 z " fill="rgb(245,195,195)" />
<path d="M-0.981200 -1.325594 L0.018800 -1.325594 L0.018800 -0.325594 L-0.981200 -0.325594  z" fill="none" stroke="rgb(128,128,128)" stroke-width="0.01" />
<line x1="0.329888" y1="0.0377289" x2="0.330289" y2="0.0386446" style="stroke:rgb(246,147,147);stroke-width:0.01" />
<line x1="0.266709" y1="0.00190572" x2="0.292367" y2="0.044789" style="stroke:rgb(246,147,147);stroke-width:0.01" />
<line x1="0.063777" y1="-0.113159" x2="0.159996" y2="0.113165" style="stroke:rgb(246,147,147);stroke-width:0.01" />
<line x1="0.287448" y1="0.0136647" x2="0.298329" y2="0.0825111" style="stroke:rgb(246,147,147);stroke-width:0.01" />
<line x1="-0.067997" y1="-0.187876" x2="-0.0354845" y2="0.084264" style="stroke:rgb(246,147,147);stroke-width:0.01" />
<line x1="-0.214738" y1="-0.27108" x2="-0.202784" y2="-0.249729" style="stroke:rgb(246,147,147);stroke-width:0.01" />
<line x1="-0.25709" y1="-0.26986" x2="-0.23554" y2="-0.0718365" style="stroke:rgb(246,147,147);stroke-width:0.01" />
<line x1="-0.189852" y1="-0.256969" x2="-0.182396" y2="0.00190572" style="stroke:rgb(246,147,147);stroke-width:0.01" />
<line x1="-0.00210076" y1="-0.150512" x2="0.00299339" y2="0.128082" style="stroke:rgb(246,147,147);stroke-width:0.01" />
<line x1="-0.309752" y1="-0.0798359" x2="-0.264066" y2="-0.000209284" style="stroke:rgb(246,147,147);stroke-width:0.01" />
<line x1="-0.0343156" y1="0.0877581" x2="-0.0362767" y2="0.143878" style="stroke:rgb(246,147,147);stroke-width:0.01" />
<line x1="-0.0343156" y1="0.0877581" x2="0.00299339" y2="0.128082" style="stroke:rgb(246,147,147);stroke-width:0.01" />
<line x1="-0.351086" y1="-0.161996" x2="-0.0362767" y2="0.143878" style="stroke:rgb(246,147,147);stroke-width:0.01" />
<line x1="0.13594" y1="-0.0722418" x2="0.108019" y2="0.0555052" style="stroke:rgb(246,147,147);stroke-width:0.01" />
<line x1="-0.242372" y1="-0.286749" x2="-0.311592" y2="-0.0741853" style="stroke:rgb(246,147,147);stroke-width:0.01" />
<line x1="0.292367" y1="0.044789" x2="0.281215" y2="0.093359" style="stroke:rgb(246,147,147);stroke-width:0.01" />
<line x1="-0.351086" y1="-0.161996" x2="-0.0354845" y2="0.084264" style="stroke:rgb(246,147,147);stroke-width:0.01" />
<line x1="-0.242372" y1="-0.286749" x2="0.329888" y2="0.0377289" style="stroke:rgb(246,147,147);stroke-width:0.01" />
<line x1="-0.242372" y1="-0.286749" x2="-0.351086" y2="-0.161996" style="stroke:rgb(246,147,147);stroke-width:0.01" />
<line x1="-0.311592" y1="-0.0741853" x2="0.159996" y2="0.113165" style="stroke:rgb(246,147,147);stroke-width:0.01" />
<line x1="-0.311592" y1="-0.0741853" x2="0.298329" y2="0.0825111" style="stroke:rgb(246,147,147);stroke-width:0.01" />
<line x1="-0.214738" y1="-0.27108" x2="-0.25709" y2="-0.26986" style="stroke:rgb(246,147,147);stroke-width:0.01" />
<line x1="0.108019" y1="0.0555052" x2="0.281215" y2="0.093359" style="stroke:rgb(246,147,147);stroke-width:0.01" />
<line x1="-0.189852" y1="-0.256969" x2="-0.202784" y2="-0.249729" style="stroke:rgb(246,147,147);stroke-width:0.01" />
<line x1="0.13594" y1="-0.0722418" x2="-0.0343156" y2="0.0877581" style="stroke:rgb(246,147,147);stroke-width:0.01" />
<line x1="-0.067997" y1="-0.187876" x2="-0.309752" y2="-0.0798359" style="stroke:rgb(246,147,147);stroke-width:0.01" />
<line x1="-0.00210076" y1="-0.150512" x2="-0.264066" y2="-0.000209284" style="stroke:rgb(246,147,147);stroke-width:0.01" />
<line x1="-0.182396" y1="0.00190572" x2="0.266709" y2="0.00190572" style="stroke:rgb(246,147,147);stroke-width:0.01" />
<line x1="0.063777" y1="-0.113159" x2="-0.23554" y2="-0.0718365" style="stroke:rgb(246,147,147);stroke-width:0.01" />
<line x1="0.329888" y1="0.0377289" x2="-0.0354845" y2="0.084264" style="stroke:rgb(246,147,147);stroke-width:0.01" />
<line x1="0.298329" y1="0.0825111" x2="0.281215" y2="0.093359" style="stroke:rgb(246,147,147);stroke-width:0.01" />
<line x1="0.287448" y1="0.0136647" x2="-0.0362767" y2="0.143878" style="stroke:rgb(246,147,147);stroke-width:0.01" />
<line x1="0.330289" y1="0.0386446" x2="0.159996" y2="0.113165" style="stroke:rgb(246,147,147);stroke-width:0.01" />
</g>
</svg>
