<svg xmlns="http://www.w3.org/2000/svg" viewBox="-1.5 -1.5 3 3">
<g transform="scale(1, -1)">
<path d="M0.105636 -0.401555 L0.129809 -0.353273 L0.116811 -0.338723 L0.280877 0.583764 L0.275607 0.592045 L0.264268 0.588661 L0.227516 0.543030 L0.033508 0.394930 L-0.045356 0.211004 L-0.042699 0.207524 L-0.051573 0.196507 L-0.220976 -0.198574 L-0.225369 -0.193731 L-0.238323 -0.205482 L-0.256533 -0.281499 L-0.121062 -0.326407 L-0.119487 -0.323579 L-0.056446 -0.346736 L-0.056207 -0.347905 z " fill="rgb(245,195,195)" />
<path d="M-0.728297 -0.733483 L0.271703 -0.733483 L0.271703 0.266517 L-0.728297 0.266517  z" fill="none" stroke="rgb(128,128,128)" stroke-width="0.01" />
<line x1="0.105636" y1="-0.401555" x2="0.129809" y2="-0.353273" style="stroke:rgb(246,147,147);stroke-width:0.01" />
<line x1="0.0260758" y1="-0.375181" x2="0.0374579" y2="-0.345252" style="stroke:rgb(246,147,147);stroke-width:0.01" />
<line x1="0.0260758" y1="-0.375181" x2="0.251405" y2="0.41805" style="stroke:rgb(246,147,147);stroke-width:0.01" />
<line x1="0.108414" y1="0.118323" x2="0.276074" y2="0.556755" style="stroke:rgb(246,147,147);stroke-width:0.01" />
<line x1="-0.121062" y1="-0.326407" x2="-0.11496" y2="-0.315448" style="stroke:rgb(246,147,147);stroke-width:0.01" />
<line x1="0.105636" y1="-0.401555" x2="0.280877" y2="0.583764" style="stroke:rgb(246,147,147);stroke-width:0.01" />
<line x1="-0.0562071" y1="-0.347905" x2="0.0445862" y2="-0.257869" style="stroke:rgb(246,147,147);stroke-width:0.01" />
<line x1="-0.256533" y1="-0.281499" x2="-0.0515727" y2="0.196507" style="stroke:rgb(246,147,147);stroke-width:0.01" />
<line x1="-0.0453563" y1="0.211004" x2="0.0335077" y2="0.39493" style="stroke:rgb(246,147,147);stroke-width:0.01" />
<line x1="-0.256533" y1="-0.281499" x2="-0.238323" y2="-0.205482" style="stroke:rgb(246,147,147);stroke-width:0.01" />
<line x1="-0.121062" y1="-0.326407" x2="-0.0515727" y2="0.196507" style="stroke:rgb(246,147,147);stroke-width:0.01" />
<line x1="0.251405" y1="0.41805" x2="0.264268" y2="0.588661" style="stroke:rgb(246,147,147);stroke-width:0.01" />
<line x1="0.276074" y1="0.556755" x2="0.275607" y2="0.592045" style="stroke:rgb(246,147,147);stroke-width:0.01" />
<line x1="-0.0515727" y1="0.196507" x2="0.264268" y2="0.588661" style="stroke:rgb(246,147,147);stroke-width:0.01" />
<line x1="-0.238323" y1="-0.205482" x2="-0.225369" y2="-0.193731" style="stroke:rgb(246,147,147);stroke-width:0.01" />
<line x1="-0.202564" y1="-0.299389" x2="0.165463" y2="-0.0651674" style="stroke:rgb(246,147,147);stroke-width:0.01" />
<line x1="0.0524084" y1="0.221669" x2="0.0335077" y2="0.39493" style="stroke:rgb(246,147,147);stroke-width:0.01" />
<line x1="-0.0562071" y1="-0.347905" x2="-0.130042" y2="0.0135022" style="stroke:rgb(246,147,147);stroke-width:0.01" />
<line x1="-0.202564" y1="-0.299389" x2="-0.238323" y2="-0.205482" style="stroke:rgb(246,147,147);stroke-width:0.01" />
<line x1="-0.130042" y1="0.0135022" x2="-0.0709807" y2="0.0504592" style="stroke:rgb(246,147,147);stroke-width:0.01" />
<line x1="0.0335077" y1="0.39493" x2="0.280877" y2="0.583764" style="stroke:rgb(246,147,147);stroke-width:0.01" />
<line x1="0.129809" y1="-0.353273" x2="0.0374579" y2="-0.345252" style="stroke:rgb(246,147,147);stroke-width:0.01" />
<line x1="-0.11496" y1="-0.315448" x2="-0.225369" y2="-0.193731" style="stroke:rgb(246,147,147);stroke-width:0.01" />
<line x1="-0.11496" y1="-0.315448" x2="-0.203042" y2="-0.299231" style="stroke:rgb(246,147,147);stroke-width:0.01" />
<line x1="0.10765" y1="-0.397533" x2="-0.0260173" y2="-0.357913" style="stroke:rgb(246,147,147);stroke-width:0.01" />
<line x1="0.105636" y1="-0.401555" x2="-0.0562071" y2="-0.347905" style="stroke:rgb(246,147,147);stroke-width:0.01" />
<line x1="-0.121062" y1="-0.326407" x2="-0.256533" y2="-0.281499" style="stroke:rgb(246,147,147);stroke-width:0.01" />
<line x1="-0.203042" y1="-0.299231" x2="-0.253473" y2="-0.274363" style="stroke:rgb(246,147,147);stroke-width:0.01" />
<line x1="-0.0260173" y1="-0.357913" x2="-0.253473" y2="-0.274363" style="stroke:rgb(246,147,147);stroke-width:0.01" />
<line x1="0.129809" y1="-0.353273" x2="0.0445862" y2="-0.257869" style="stroke:rgb(246,147,147);stroke-width:0.01" />
<line x1="0.10765" y1="-0.397533" x2="0.0374579" y2="-0.345252" style="stroke:rgb(246,147,147);stroke-width:0.01" />
<line x1="0.165463" y1="-0.0651674" x2="-0.0453563" y2="0.211004" style="stroke:rgb(246,147,147);stroke-width:0.01" />
<line x1="-0.0709807" y1="0.0504592" x2="-0.100526" y2="0.0823378" style="stroke:rgb(246,147,147);stroke-width:0.01" />
<line x1="-0.100526" y1="0.0823378" x2="0.192387" y2="0.0862118" style="stroke:rgb(246,147,147);stroke-width:0.01" />
<line x1="0.280877" y1="0.583764" x2="0.275607" y2="0.592045" style="stroke:rgb(246,147,147);stroke-width:0.01" />
<line x1="-0.0453563" y1="0.211004" x2="0.0524084" y2="0.221669" style="stroke:rgb(246,147,147);stroke-width:0.01" />
<line x1="0.264268" y1="0.588661" x2="0.275607" y2="0.592045" style="stroke:rgb(246,147,147);stroke-width:0.01" />
<line x1="0.192387" y1="0.0862118" x2="0.108414" y2="0.118323" style="stroke:rgb(246,147,147);stroke-width:0.01" />
</g>
</svg>
