<svg xmlns="http://www.w3.org/2000/svg" viewBox="-1.5 -1.5 3 3">
<g transform="scale(1, -1)">
<path d="M0.833934 0.331928 L0.858106 0.380210 L0.845108 0.394760 L1.009175 1.317247 L1.003904 1.325528 L0.992565 1.322144 L0.955813 1.276513 L0.761805 1.128414 L0.682941 0.944488 L0.685598 0.941007 L0.676725 0.929990 L0.507321 0.534909 L0.502929 0.539752 L0.489974 0.528001 L0.471765 0.451984 L0.607236 0.407077 L0.608810 0.409904 L0.671851 0.386747 L0.672090 0.385578 z " fill="rgb(245,195,195)" />
<path d="M0.000000 0.000000 L1.000000 0.000000 L1.000000 1.000000 L0.000000 1.000000  z" fill="none" stroke="rgb(128,128,128)" stroke-width="0.01" />
<line x1="0.833934" y1="0.331928" x2="0.858106" y2="0.38021" style="stroke:rgb(246,147,147);stroke-width:0.01" />
<line x1="0.754373" y1="0.358302" x2="0.765755" y2="0.388231" style="stroke:rgb(246,147,147);stroke-width:0.01" />
<line x1="0.754373" y1="0.358302" x2="0.979702" y2="1.15153" style="stroke:rgb(246,147,147);stroke-width:0.01" />
<line x1="0.836712" y1="0.851807" x2="1.00437" y2="1.29024" style="stroke:rgb(246,147,147);stroke-width:0.01" />
<line x1="0.607236" y1="0.407077" x2="0.613338" y2="0.418036" style="stroke:rgb(246,147,147);stroke-width:0.01" />
<line x1="0.833934" y1="0.331928" x2="1.00917" y2="1.31725" style="stroke:rgb(246,147,147);stroke-width:0.01" />
<line x1="0.67209" y1="0.385578" x2="0.772884" y2="0.475614" style="stroke:rgb(246,147,147);stroke-width:0.01" />
<line x1="0.471765" y1="0.451984" x2="0.676725" y2="0.92999" style="stroke:rgb(246,147,147);stroke-width:0.01" />
<line x1="0.682941" y1="0.944488" x2="0.761805" y2="1.12841" style="stroke:rgb(246,147,147);stroke-width:0.01" />
<line x1="0.471765" y1="0.451984" x2="0.489974" y2="0.528001" style="stroke:rgb(246,147,147);stroke-width:0.01" />
<line x1="0.607236" y1="0.407077" x2="0.676725" y2="0.92999" style="stroke:rgb(246,147,147);stroke-width:0.01" />
<line x1="0.979702" y1="1.15153" x2="0.992565" y2="1.32214" style="stroke:rgb(246,147,147);stroke-width:0.01" />
<line x1="1.00437" y1="1.29024" x2="1.0039" y2="1.32553" style="stroke:rgb(246,147,147);stroke-width:0.01" />
<line x1="0.676725" y1="0.92999" x2="0.992565" y2="1.32214" style="stroke:rgb(246,147,147);stroke-width:0.01" />
<line x1="0.489974" y1="0.528001" x2="0.502929" y2="0.539752" style="stroke:rgb(246,147,147);stroke-width:0.01" />
<line x1="0.525733" y1="0.434094" x2="0.893761" y2="0.668316" style="stroke:rgb(246,147,147);stroke-width:0.01" />
<line x1="0.780706" y1="0.955153" x2="0.761805" y2="1.12841" style="stroke:rgb(246,147,147);stroke-width:0.01" />
<line x1="0.67209" y1="0.385578" x2="0.598256" y2="0.746985" style="stroke:rgb(246,147,147);stroke-width:0.01" />
<line x1="0.525733" y1="0.434094" x2="0.489974" y2="0.528001" style="stroke:rgb(246,147,147);stroke-width:0.01" />
<line x1="0.598256" y1="0.746985" x2="0.657317" y2="0.783942" style="stroke:rgb(246,147,147);stroke-width:0.01" />
<line x1="0.761805" y1="1.12841" x2="1.00917" y2="1.31725" style="stroke:rgb(246,147,147);stroke-width:0.01" />
<line x1="0.858106" y1="0.38021" x2="0.765755" y2="0.388231" style="stroke:rgb(246,147,147);stroke-width:0.01" />
<line x1="0.613338" y1="0.418036" x2="0.502929" y2="0.539752" style="stroke:rgb(246,147,147);stroke-width:0.01" />
<line x1="0.613338" y1="0.418036" x2="0.525256" y2="0.434252" style="stroke:rgb(246,147,147);stroke-width:0.01" />
<line x1="0.835947" y1="0.33595" x2="0.70228" y2="0.37557" style="stroke:rgb(246,147,147);stroke-width:0.01" />
<line x1="0.833934" y1="0.331928" x2="0.67209" y2="0.385578" style="stroke:rgb(246,147,147);stroke-width:0.01" />
<line x1="0.607236" y1="0.407077" x2="0.471765" y2="0.451984" style="stroke:rgb(246,147,147);stroke-width:0.01" />
<line x1="0.525256" y1="0.434252" x2="0.474825" y2="0.45912" style="stroke:rgb(246,147,147);stroke-width:0.01" />
<line x1="0.70228" y1="0.37557" x2="0.474825" y2="0.45912" style="stroke:rgb(246,147,147);stroke-width:0.01" />
<line x1="0.858106" y1="0.38021" x2="0.772884" y2="0.475614" style="stroke:rgb(246,147,147);stroke-width:0.01" />
<line x1="0.835947" y1="0.33595" x2="0.765755" y2="0.388231" style="stroke:rgb(246,147,147);stroke-width:0.01" />
<line x1="0.893761" y1="0.668316" x2="0.682941" y2="0.944488" style="stroke:rgb(246,147,147);stroke-width:0.01" />
<line x1="0.657317" y1="0.783942" x2="0.627771" y2="0.815821" style="stroke:rgb(246,147,147);stroke-width:0.01" />
<line x1="0.627771" y1="0.815821" x2="0.920684" y2="0.819695" style="stroke:rgb(246,147,147);stroke-width:0.01" />
<line x1="1.00917" y1="1.31725" x2="1.0039" y2="1.32553" style="stroke:rgb(246,147,147);stroke-width:0.01" />
<line x1="0.682941" y1="0.944488" x2="0.780706" y2="0.955153" style="stroke:rgb(246,147,147);stroke-width:0.01" />
<line x1="0.992565" y1="1.32214" x2="1.0039" y2="1.32553" style="stroke:rgb(246,147,147);stroke-width:0.01" />
<line x1="0.920684" y1="0.819695" x2="0.836712" y2="0.851807" style="stroke:rgb(246,147,147);stroke-width:0.01" />
</g>
</svg>
