<svg xmlns="http://www.w3.org/2000/svg" viewBox="-1.5 -1.5 3 3">
<g transform="scale(1, -1)">
<path d="M0.112690 -0.158421 L0.167546 -0.148424 L0.183463 -0.015329 L0.265200 -0.013575 L0.289323 -0.077977 L0.367378 -0.070402 L0.395218 -0.047609 L0.236675 0.429626 L-0.218049 0.383607 L-0.356824 -0.001150 L-0.361328 -0.000649 L-0.362775 0.001357 L-0.364993 -0.000243 L-0.361412 -0.013869 L-0.162307 -0.022747 L0.027420 -0.018677 L0.033849 -0.029213 L0.025026 -0.085067 L0.083900 -0.111239 z " fill="rgb(245,195,195)" />
<path d="M-0.561162 1.306922 L0.438838 1.306922 L0.438838 2.306922 L-0.561162 2.306922  z" fill="none" stroke="rgb(128,128,128)" stroke-width="0.01" />
<line x1="0.11269" y1="-0.158421" x2="0.167546" y2="-0.148424" style="stroke:rgb(246,147,147);stroke-width:0.01" />
<line x1="0.289323" y1="-0.0779773" x2="0.367378" y2="-0.0704017" style="stroke:rgb(246,147,147);stroke-width:0.01" />
<line x1="0.0250259" y1="-0.0850667" x2="0.177039" y2="-0.0690521" style="stroke:rgb(246,147,147);stroke-width:0.01" />
<line x1="-0.162307" y1="-0.0227474" x2="0.383071" y2="-0.0110458" style="stroke:rgb(246,147,147);stroke-width:0.01" />
<line x1="0.289323" y1="-0.0779773" x2="0.383071" y2="-0.0110458" style="stroke:rgb(246,147,147);stroke-width:0.01" />
<line x1="0.395218" y1="-0.0476091" x2="0.366009" y2="-0.0463066" style="stroke:rgb(246,147,147);stroke-width:0.01" />
<line x1="-0.162307" y1="-0.0227474" x2="-0.361412" y2="-0.0138687" style="stroke:rgb(246,147,147);stroke-width:0.01" />
<line x1="0.367378" y1="-0.0704017" x2="0.395218" y2="-0.0476091" style="stroke:rgb(246,147,147);stroke-width:0.01" />
<line x1="-0.162307" y1="-0.0227474" x2="-0.364993" y2="-0.00024252" style="stroke:rgb(246,147,147);stroke-width:0.01" />
<line x1="0.0679136" y1="0.186428" x2="0.215411" y2="0.251811" style="stroke:rgb(246,147,147);stroke-width:0.01" />
<line x1="0.177039" y1="-0.0690521" x2="-0.0561014" y2="0.0142092" style="stroke:rgb(246,147,147);stroke-width:0.01" />
<line x1="-0.364993" y1="-0.00024252" x2="-0.362775" y2="0.00135707" style="stroke:rgb(246,147,147);stroke-width:0.01" />
<line x1="0.385828" y1="-0.0193436" x2="0.383165" y2="-0.0185332" style="stroke:rgb(246,147,147);stroke-width:0.01" />
<line x1="-0.218049" y1="0.383607" x2="0.236675" y2="0.429626" style="stroke:rgb(246,147,147);stroke-width:0.01" />
<line x1="0.167546" y1="-0.148424" x2="0.0250259" y2="-0.0850667" style="stroke:rgb(246,147,147);stroke-width:0.01" />
<line x1="0.366009" y1="-0.0463066" x2="0.385828" y2="-0.0193436" style="stroke:rgb(246,147,147);stroke-width:0.01" />
<line x1="0.11269" y1="-0.158421" x2="0.176239" y2="-0.0757411" style="stroke:rgb(246,147,147);stroke-width:0.01" />
<line x1="0.0658404" y1="0.173303" x2="0.0732864" y2="0.181614" style="stroke:rgb(246,147,147);stroke-width:0.01" />
<line x1="-0.351478" y1="-0.0143116" x2="0.0134563" y2="0.407036" style="stroke:rgb(246,147,147);stroke-width:0.01" />
<line x1="0.367378" y1="-0.0704017" x2="0.383165" y2="-0.0185332" style="stroke:rgb(246,147,147);stroke-width:0.01" />
<line x1="-0.351478" y1="-0.0143116" x2="-0.362775" y2="0.00135707" style="stroke:rgb(246,147,147);stroke-width:0.01" />
<line x1="0.0732864" y1="0.181614" x2="0.0679136" y2="0.186428" style="stroke:rgb(246,147,147);stroke-width:0.01" />
<line x1="-0.0561014" y1="0.0142092" x2="0.086841" y2="0.414462" style="stroke:rgb(246,147,147);stroke-width:0.01" />
<line x1="0.215411" y1="0.251811" x2="0.0134563" y2="0.407036" style="stroke:rgb(246,147,147);stroke-width:0.01" />
<line x1="-0.361412" y1="-0.0138687" x2="-0.218049" y2="0.383607" style="stroke:rgb(246,147,147);stroke-width:0.01" />
<line x1="0.0250259" y1="-0.0850667" x2="0.104214" y2="0.416221" style="stroke:rgb(246,147,147);stroke-width:0.01" />
<line x1="0.167546" y1="-0.148424" x2="0.236675" y2="0.429626" style="stroke:rgb(246,147,147);stroke-width:0.01" />
<line x1="0.11269" y1="-0.158421" x2="-0.218049" y2="0.383607" style="stroke:rgb(246,147,147);stroke-width:0.01" />
<line x1="-0.361412" y1="-0.0138687" x2="-0.364993" y2="-0.00024252" style="stroke:rgb(246,147,147);stroke-width:0.01" />
<line x1="0.176239" y1="-0.0757411" x2="0.0658404" y2="0.173303" style="stroke:rgb(246,147,147);stroke-width:0.01" />
<line x1="0.366009" y1="-0.0463066" x2="0.086841" y2="0.414462" style="stroke:rgb(246,147,147);stroke-width:0.01" />
<line x1="0.289323" y1="-0.0779773" x2="0.104214" y2="0.416221" style="stroke:rgb(246,147,147);stroke-width:0.01" />
<line x1="0.395218" y1="-0.0476091" x2="0.236675" y2="0.429626" style="stroke:rgb(246,147,147);stroke-width:0.01" />
</g>
</svg>
