<svg xmlns="http://www.w3.org/2000/svg" viewBox="-1.5 -1.5 3 3">
<path d="M-0.775523 -0.153026 L0.224477 -0.153026 L0.224477 -0.113770 L0.326055 -0.117090 L0.551559 0.161659 L0.224477 0.426263 L-0.775523 -0.051010 z " fill="rgb(245,195,195)" />
<path d="M-0.775523 -0.153026 L0.224477 -0.153026 L0.224477 0.846974 L-0.775523 0.846974  z" fill="none" stroke="rgb(128,128,128)" stroke-width="0.01" />
<line x1="0.326055" y1="-0.11709" x2="0.551559" y2="0.161659" style="stroke:rgb(246,147,147);stroke-width:0.01" />
<line x1="-0.775523" y1="-0.153026" x2="0.224477" y2="-0.153026" style="stroke:rgb(246,147,147);stroke-width:0.01" />
<line x1="-0.775523" y1="-0.153026" x2="-0.775523" y2="-0.0510097" style="stroke:rgb(246,147,147);stroke-width:0.01" />
<line x1="0.224477" y1="-0.153026" x2="0.224477" y2="0.426263" style="stroke:rgb(246,147,147);stroke-width:0.01" />
<line x1="-0.736778" y1="-0.0823534" x2="-0.519053" y2="0.0713965" style="stroke:rgb(246,147,147);stroke-width:0.01" />
<line x1="-0.736778" y1="-0.0823534" x2="-0.775523" y2="-0.0510097" style="stroke:rgb(246,147,147);stroke-width:0.01" />
<line x1="0.326055" y1="-0.11709" x2="-0.736778" y2="-0.0823534" style="stroke:rgb(246,147,147);stroke-width:0.01" />
<line x1="-0.775523" y1="-0.0510097" x2="0.224477" y2="0.426263" style="stroke:rgb(246,147,147);stroke-width:0.01" />
<line x1="-0.519053" y1="0.0713965" x2="0.040583" y2="0.229751" style="stroke:rgb(246,147,147);stroke-width:0.01" />
<line x1="0.040583" y1="0.229751" x2="0.0134738" y2="0.325557" style="stroke:rgb(246,147,147);stroke-width:0.01" />
<line x1="0.326055" y1="-0.11709" x2="0.0134738" y2="0.325557" style="stroke:rgb(246,147,147);stroke-width:0.01" />
<line x1="0.551559" y1="0.161659" x2="0.224477" y2="0.426263" style="stroke:rgb(246,147,147);stroke-width:0.01" />
</svg>
