<svg xmlns="http://www.w3.org/2000/svg" viewBox="-1.5 -1.5 3 3">
<g transform="scale(1, -1)">
<path d="M0.372910 -0.256197 L0.453534 0.240169 L-0.172494 0.348293 L-0.215370 0.106326 L-0.218222 0.106799 L-0.260371 -0.147640 L0.020464 -0.195781 L0.019549 -0.201970 z " fill="rgb(245,195,195)" />
<path d="M0.101842 0.268879 L1.101842 0.268879 L1.101842 1.268879 L0.101842 1.268879  z" fill="none" stroke="rgb(128,128,128)" stroke-width="0.01" />
<line x1="0.37291" y1="-0.256197" x2="0.0195494" y2="-0.20197" style="stroke:rgb(246,147,147);stroke-width:0.01" />
<line x1="0.37291" y1="-0.256197" x2="-0.260371" y2="-0.14764" style="stroke:rgb(246,147,147);stroke-width:0.01" />
<line x1="0.414837" y1="0.00192925" x2="0.0609799" y2="0.0582649" style="stroke:rgb(246,147,147);stroke-width:0.01" />
<line x1="0.414837" y1="0.00192925" x2="-0.218222" y2="0.106799" style="stroke:rgb(246,147,147);stroke-width:0.01" />
<line x1="0.415749" y1="0.00754135" x2="0.0567495" y2="0.0637702" style="stroke:rgb(246,147,147);stroke-width:0.01" />
<line x1="0.415749" y1="0.00754135" x2="-0.212053" y2="0.113163" style="stroke:rgb(246,147,147);stroke-width:0.01" />
<line x1="0.37291" y1="-0.256197" x2="0.453534" y2="0.240169" style="stroke:rgb(246,147,147);stroke-width:0.01" />
<line x1="0.0195494" y1="-0.20197" x2="0.0609799" y2="0.0582649" style="stroke:rgb(246,147,147);stroke-width:0.01" />
<line x1="0.0195494" y1="-0.20197" x2="0.0929722" y2="0.295038" style="stroke:rgb(246,147,147);stroke-width:0.01" />
<line x1="0.0567495" y1="0.0637702" x2="0.0929722" y2="0.295038" style="stroke:rgb(246,147,147);stroke-width:0.01" />
<line x1="0.453534" y1="0.240169" x2="0.0929722" y2="0.295038" style="stroke:rgb(246,147,147);stroke-width:0.01" />
<line x1="0.453534" y1="0.240169" x2="-0.172494" y2="0.348293" style="stroke:rgb(246,147,147);stroke-width:0.01" />
<line x1="-0.212053" y1="0.113163" x2="-0.172494" y2="0.348293" style="stroke:rgb(246,147,147);stroke-width:0.01" />
<line x1="-0.260371" y1="-0.14764" x2="-0.218222" y2="0.106799" style="stroke:rgb(246,147,147);stroke-width:0.01" />
<line x1="-0.260371" y1="-0.14764" x2="-0.172494" y2="0.348293" style="stroke:rgb(246,147,147);stroke-width:0.01" />
</g>
</svg>
