<svg xmlns="http://www.w3.org/2000/svg" viewBox="-1.5 -1.5 3 3">
<g transform="scale(1, -1)">
<path d="M-0.050207 -0.268739 L-0.048994 -0.260795 L-0.043573 -0.260795 L-0.031799 -0.249762 L-0.029756 -0.249993 L-0.029486 -0.247594 L-0.026580 -0.244872 L-0.005131 -0.245711 L0.414713 0.168636 L0.011650 0.587767 L0.002390 0.587527 L-0.013571 0.484002 L-0.047426 0.461124 L-0.102229 -0.260795 z " fill="rgb(245,195,195)" />
<path d="M-0.154853 -0.260795 L0.845147 -0.260795 L0.845147 0.739205 L-0.154853 0.739205  z" fill="none" stroke="rgb(128,128,128)" stroke-width="0.01" />
<line x1="-0.00513116" y1="-0.245711" x2="0.414713" y2="0.168636" style="stroke:rgb(246,147,147);stroke-width:0.01" />
<line x1="-0.043573" y1="-0.260795" x2="0.414713" y2="0.168636" style="stroke:rgb(246,147,147);stroke-width:0.01" />
<line x1="0.197956" y1="0.27007" x2="0.230249" y2="0.360454" style="stroke:rgb(246,147,147);stroke-width:0.01" />
<line x1="-0.0502075" y1="-0.268739" x2="0.025331" y2="0.225931" style="stroke:rgb(246,147,147);stroke-width:0.01" />
<line x1="-0.0297564" y1="-0.249993" x2="0.0412929" y2="0.379165" style="stroke:rgb(246,147,147);stroke-width:0.01" />
<line x1="-0.043573" y1="-0.260795" x2="0.01165" y2="0.587767" style="stroke:rgb(246,147,147);stroke-width:0.01" />
<line x1="-0.0225318" y1="0.425884" x2="0.00239037" y2="0.587527" style="stroke:rgb(246,147,147);stroke-width:0.01" />
<line x1="-0.102229" y1="-0.260795" x2="-0.0474259" y2="0.461124" style="stroke:rgb(246,147,147);stroke-width:0.01" />
<line x1="-0.102229" y1="-0.260795" x2="-0.043573" y2="-0.260795" style="stroke:rgb(246,147,147);stroke-width:0.01" />
<line x1="-0.00513116" y1="-0.245711" x2="-0.0225318" y2="0.425884" style="stroke:rgb(246,147,147);stroke-width:0.01" />
<line x1="-0.0502075" y1="-0.268739" x2="-0.102229" y2="-0.260795" style="stroke:rgb(246,147,147);stroke-width:0.01" />
<line x1="-0.00513116" y1="-0.245711" x2="-0.1008" y2="-0.24197" style="stroke:rgb(246,147,147);stroke-width:0.01" />
<line x1="-0.0297564" y1="-0.249993" x2="-0.1008" y2="-0.24197" style="stroke:rgb(246,147,147);stroke-width:0.01" />
<line x1="-0.0225318" y1="0.425884" x2="0.027554" y2="0.571229" style="stroke:rgb(246,147,147);stroke-width:0.01" />
<line x1="0.0206502" y1="0.569148" x2="0.0165845" y2="0.582636" style="stroke:rgb(246,147,147);stroke-width:0.01" />
<line x1="-0.0537939" y1="0.377239" x2="0.0621973" y2="0.535205" style="stroke:rgb(246,147,147);stroke-width:0.01" />
<line x1="0.025331" y1="0.225931" x2="-0.0537939" y2="0.377239" style="stroke:rgb(246,147,147);stroke-width:0.01" />
<line x1="0.0412929" y1="0.379165" x2="-0.0474259" y2="0.461124" style="stroke:rgb(246,147,147);stroke-width:0.01" />
<line x1="-0.0474259" y1="0.461124" x2="0.0621973" y2="0.535205" style="stroke:rgb(246,147,147);stroke-width:0.01" />
<line x1="-0.0620305" y1="0.268737" x2="0.230249" y2="0.360454" style="stroke:rgb(246,147,147);stroke-width:0.01" />
<line x1="0.025331" y1="0.225931" x2="-0.0620305" y2="0.268737" style="stroke:rgb(246,147,147);stroke-width:0.01" />
<line x1="0.414713" y1="0.168636" x2="0.01165" y2="0.587767" style="stroke:rgb(246,147,147);stroke-width:0.01" />
<line x1="-0.0550667" y1="0.360471" x2="0.0412929" y2="0.379165" style="stroke:rgb(246,147,147);stroke-width:0.01" />
<line x1="0.197956" y1="0.27007" x2="-0.0550667" y2="0.360471" style="stroke:rgb(246,147,147);stroke-width:0.01" />
<line x1="0.0206502" y1="0.569148" x2="0.027554" y2="0.571229" style="stroke:rgb(246,147,147);stroke-width:0.01" />
<line x1="0.0165845" y1="0.582636" x2="0.00239037" y2="0.587527" style="stroke:rgb(246,147,147);stroke-width:0.01" />
<line x1="0.00239037" y1="0.587527" x2="0.01165" y2="0.587767" style="stroke:rgb(246,147,147);stroke-width:0.01" />
</g>
</svg>
