<svg xmlns="http://www.w3.org/2000/svg" viewBox="-1.5 -1.5 3 3">
<g transform="scale(1, -1)">
<path d="M-0.499479 -0.130254 L0.502363 -0.121871 L0.503566 0.058862 L0.500565 0.058882 L0.500534 0.062047 L-0.502640 0.058434 L-0.503131 0.006957 L-0.501777 0.006944 z " fill="rgb(245,195,195)" />
<path d="M-0.499037 -0.135348 L0.500963 -0.135348 L0.500963 0.864652 L-0.499037 0.864652  z" fill="none" stroke="rgb(128,128,128)" stroke-width="0.01" />
<line x1="0.496823" y1="-0.0025898" x2="0.49744" y2="0.0620355" style="stroke:rgb(246,147,147);stroke-width:0.01" />
<line x1="0.502363" y1="-0.121871" x2="0.503566" y2="0.0588622" style="stroke:rgb(246,147,147);stroke-width:0.01" />
<line x1="0.500532" y1="0.0609256" x2="0.500534" y2="0.0620467" style="stroke:rgb(246,147,147);stroke-width:0.01" />
<line x1="0.500521" y1="-0.121887" x2="0.500524" y2="0.0620467" style="stroke:rgb(246,147,147);stroke-width:0.01" />
<line x1="-0.4977" y1="-0.127977" x2="-0.49646" y2="0.0584242" style="stroke:rgb(246,147,147);stroke-width:0.01" />
<line x1="-0.499479" y1="-0.130254" x2="-0.50264" y2="0.0584338" style="stroke:rgb(246,147,147);stroke-width:0.01" />
<line x1="-0.499479" y1="-0.130254" x2="-0.499476" y2="0.0584098" style="stroke:rgb(246,147,147);stroke-width:0.01" />
<line x1="-0.4977" y1="-0.127977" x2="-0.499476" y2="0.0584098" style="stroke:rgb(246,147,147);stroke-width:0.01" />
<line x1="-0.503131" y1="0.00695652" x2="-0.50264" y2="0.0584338" style="stroke:rgb(246,147,147);stroke-width:0.01" />
<line x1="-0.496345" y1="0.0513335" x2="-0.49646" y2="0.0584242" style="stroke:rgb(246,147,147);stroke-width:0.01" />
<line x1="-0.171253" y1="-0.127507" x2="0.502254" y2="-0.117205" style="stroke:rgb(246,147,147);stroke-width:0.01" />
<line x1="-0.499479" y1="-0.130254" x2="0.502363" y2="-0.121871" style="stroke:rgb(246,147,147);stroke-width:0.01" />
<line x1="-0.220012" y1="-0.127578" x2="0.502276" y2="-0.120693" style="stroke:rgb(246,147,147);stroke-width:0.01" />
<line x1="0.502287" y1="-0.121872" x2="0.502254" y2="-0.117205" style="stroke:rgb(246,147,147);stroke-width:0.01" />
<line x1="0.500532" y1="0.0609256" x2="0.500524" y2="0.0620467" style="stroke:rgb(246,147,147);stroke-width:0.01" />
<line x1="-0.4977" y1="-0.127977" x2="-0.171253" y2="-0.127507" style="stroke:rgb(246,147,147);stroke-width:0.01" />
<line x1="0.502287" y1="-0.121872" x2="0.500534" y2="0.0620467" style="stroke:rgb(246,147,147);stroke-width:0.01" />
<line x1="-0.220012" y1="-0.127578" x2="-0.497685" y2="-0.12573" style="stroke:rgb(246,147,147);stroke-width:0.01" />
<line x1="0.500521" y1="-0.121887" x2="0.49744" y2="0.0620355" style="stroke:rgb(246,147,147);stroke-width:0.01" />
<line x1="0.502363" y1="-0.121871" x2="0.502254" y2="-0.117205" style="stroke:rgb(246,147,147);stroke-width:0.01" />
<line x1="0.496823" y1="-0.0025898" x2="-0.503131" y2="0.00695652" style="stroke:rgb(246,147,147);stroke-width:0.01" />
<line x1="-0.496345" y1="0.0513335" x2="0.0703531" y2="0.0604974" style="stroke:rgb(246,147,147);stroke-width:0.01" />
<line x1="0.125002" y1="0.0600074" x2="0.191972" y2="0.0609354" style="stroke:rgb(246,147,147);stroke-width:0.01" />
<line x1="-0.499476" y1="0.0584098" x2="-0.468892" y2="0.0585554" style="stroke:rgb(246,147,147);stroke-width:0.01" />
<line x1="-0.50264" y1="0.0584338" x2="0.500534" y2="0.0620467" style="stroke:rgb(246,147,147);stroke-width:0.01" />
<line x1="-0.468892" y1="0.0585554" x2="0.500532" y2="0.0609256" style="stroke:rgb(246,147,147);stroke-width:0.01" />
<line x1="0.503566" y1="0.0588622" x2="0.191972" y2="0.0609354" style="stroke:rgb(246,147,147);stroke-width:0.01" />
<line x1="0.125002" y1="0.0600074" x2="0.0703531" y2="0.0604974" style="stroke:rgb(246,147,147);stroke-width:0.01" />
</g>
</svg>
