<svg xmlns="http://www.w3.org/2000/svg" viewBox="-1.5 -1.5 3 3">
<g transform="scale(1, -1)">
<path d="M-0.045485 -0.168425 L0.105529 -0.151804 L0.302585 -0.142186 L0.396725 -0.155070 L0.399575 -0.137452 L-0.070475 0.388233 L-0.087995 0.388766 L-0.091309 0.334379 L-0.100742 0.333630 L-0.096567 0.248082 L-0.116861 -0.085007 L-0.109028 -0.085485 L-0.109057 -0.085849 L-0.087995 -0.088731 L-0.087995 -0.136582 L-0.077792 -0.136582 L-0.076615 -0.160694 L-0.046497 -0.159224 z " fill="rgb(245,195,195)" />
<path d="M-0.087995 -0.136582 L0.912005 -0.136582 L0.912005 0.863418 L-0.087995 0.863418  z" fill="none" stroke="rgb(128,128,128)" stroke-width="0.01" />
<line x1="0.377843" y1="-0.152485" x2="0.384913" y2="-0.121054" style="stroke:rgb(246,147,147);stroke-width:0.01" />
<line x1="0.396725" y1="-0.15507" x2="0.399575" y2="-0.137452" style="stroke:rgb(246,147,147);stroke-width:0.01" />
<line x1="0.396725" y1="-0.15507" x2="0.398797" y2="-0.136582" style="stroke:rgb(246,147,147);stroke-width:0.01" />
<line x1="-0.0454848" y1="-0.168425" x2="0.384913" y2="-0.121054" style="stroke:rgb(246,147,147);stroke-width:0.01" />
<line x1="-0.0766147" y1="-0.160694" x2="0.399575" y2="-0.137452" style="stroke:rgb(246,147,147);stroke-width:0.01" />
<line x1="0.377843" y1="-0.152485" x2="0.379735" y2="-0.115263" style="stroke:rgb(246,147,147);stroke-width:0.01" />
<line x1="-0.0879955" y1="-0.136582" x2="0.398797" y2="-0.136582" style="stroke:rgb(246,147,147);stroke-width:0.01" />
<line x1="-0.0879955" y1="-0.136582" x2="-0.0879955" y2="0.388766" style="stroke:rgb(246,147,147);stroke-width:0.01" />
<line x1="-0.0766147" y1="-0.160694" x2="-0.100742" y2="0.33363" style="stroke:rgb(246,147,147);stroke-width:0.01" />
<line x1="-0.116861" y1="-0.0850075" x2="-0.0879955" y2="0.388766" style="stroke:rgb(246,147,147);stroke-width:0.01" />
<line x1="-0.109057" y1="-0.0858487" x2="-0.0704755" y2="0.388233" style="stroke:rgb(246,147,147);stroke-width:0.01" />
<line x1="-0.0454848" y1="-0.168425" x2="-0.100742" y2="0.33363" style="stroke:rgb(246,147,147);stroke-width:0.01" />
<line x1="-0.109057" y1="-0.0858487" x2="-0.0268921" y2="0.339491" style="stroke:rgb(246,147,147);stroke-width:0.01" />
<line x1="0.396725" y1="-0.15507" x2="-0.109057" y2="-0.0858487" style="stroke:rgb(246,147,147);stroke-width:0.01" />
<line x1="0.379735" y1="-0.115263" x2="-0.116861" y2="-0.0850075" style="stroke:rgb(246,147,147);stroke-width:0.01" />
<line x1="0.399575" y1="-0.137452" x2="-0.0704755" y2="0.388233" style="stroke:rgb(246,147,147);stroke-width:0.01" />
<line x1="-0.100742" y1="0.33363" x2="-0.0268921" y2="0.339491" style="stroke:rgb(246,147,147);stroke-width:0.01" />
<line x1="-0.0704755" y1="0.388233" x2="-0.0879955" y2="0.388766" style="stroke:rgb(246,147,147);stroke-width:0.01" />
</g>
</svg>
