<svg xmlns="http://www.w3.org/2000/svg" viewBox="-1.5 -1.5 3 3">
<g transform="scale(1, -1)">
<path d="M0.637244 -0.448534 L0.592964 -0.238874 L-0.338155 0.367519 L-0.372797 0.462409 L-0.425513 0.349069 L-0.301254 0.192802 L-0.175792 -0.401236 L0.383303 -0.283154 z " fill="rgb(245,195,195)" />
<path d="M-3279982669.589111 -4045078409.863124 L-3279982668.589111 -4045078409.863124 L-3279982668.589111 -4045078408.863124 L-3279982669.589111 -4045078408.863124  z" fill="none" stroke="rgb(128,128,128)" stroke-width="0.01" />
<line x1="-0.425513" y1="0.349069" x2="-0.372797" y2="0.462409" style="stroke:rgb(246,147,147);stroke-width:0.01" />
<line x1="-0.175792" y1="-0.401236" x2="-0.338155" y2="0.367519" style="stroke:rgb(246,147,147);stroke-width:0.01" />
<line x1="0.637244" y1="-0.448534" x2="0.592964" y2="-0.238874" style="stroke:rgb(246,147,147);stroke-width:0.01" />
<line x1="-0.251551" y1="0.130295" x2="-0.372797" y2="0.462409" style="stroke:rgb(246,147,147);stroke-width:0.01" />
<line x1="-0.251551" y1="0.130295" x2="-0.425513" y2="0.349069" style="stroke:rgb(246,147,147);stroke-width:0.01" />
<line x1="-0.175792" y1="-0.401236" x2="0.592964" y2="-0.238874" style="stroke:rgb(246,147,147);stroke-width:0.01" />
<line x1="-0.425513" y1="0.349069" x2="-0.338155" y2="0.367519" style="stroke:rgb(246,147,147);stroke-width:0.01" />
<line x1="0.637244" y1="-0.448534" x2="-0.251551" y2="0.130295" style="stroke:rgb(246,147,147);stroke-width:0.01" />
<line x1="0.592964" y1="-0.238874" x2="-0.338155" y2="0.367519" style="stroke:rgb(246,147,147);stroke-width:0.01" />
</g>
</svg>
