<svg xmlns="http://www.w3.org/2000/svg" viewBox="-1.5 -1.5 3 3">
<g transform="scale(1, -1)">
<path d="M3279982670.226355 4045078409.414590 L3279982670.182075 4045078409.624251 L3279982669.250956 4045078410.230643 L3279982669.216314 4045078410.325533 L3279982669.163597 4045078410.212193 L3279982669.287857 4045078410.055926 L3279982669.413319 4045078409.461888 L3279982669.972414 4045078409.579970 z " fill="rgb(245,195,195)" />
<path d="M0.000000 0.000000 L1.000000 0.000000 L1.000000 1.000000 L0.000000 1.000000  z" fill="none" stroke="rgb(128,128,128)" stroke-width="0.01" />
<line x1="3.27998e+09" y1="4.04508e+09" x2="3.27998e+09" y2="4.04508e+09" style="stroke:rgb(246,147,147);stroke-width:0.01" />
<line x1="3.27998e+09" y1="4.04508e+09" x2="3.27998e+09" y2="4.04508e+09" style="stroke:rgb(246,147,147);stroke-width:0.01" />
<line x1="3.27998e+09" y1="4.04508e+09" x2="3.27998e+09" y2="4.04508e+09" style="stroke:rgb(246,147,147);stroke-width:0.01" />
<line x1="3.27998e+09" y1="4.04508e+09" x2="3.27998e+09" y2="4.04508e+09" style="stroke:rgb(246,147,147);stroke-width:0.01" />
<line x1="3.27998e+09" y1="4.04508e+09" x2="3.27998e+09" y2="4.04508e+09" style="stroke:rgb(246,147,147);stroke-width:0.01" />
<line x1="3.27998e+09" y1="4.04508e+09" x2="3.27998e+09" y2="4.04508e+09" style="stroke:rgb(246,147,147);stroke-width:0.01" />
<line x1="3.27998e+09" y1="4.04508e+09" x2="3.27998e+09" y2="4.04508e+09" style="stroke:rgb(246,147,147);stroke-width:0.01" />
<line x1="3.27998e+09" y1="4.04508e+09" x2="3.27998e+09" y2="4.04508e+09" style="stroke:rgb(246,147,147);stroke-width:0.01" />
<line x1="3.27998e+09" y1="4.04508e+09" x2="3.27998e+09" y2="4.04508e+09" style="stroke:rgb(246,147,147);stroke-width:0.01" />
</g>
</svg>
