<svg xmlns="http://www.w3.org/2000/svg" viewBox="-1.5 -1.5 3 3">
<g transform="scale(1, -1)">
<path d="M0.103322 -0.489208 L0.199793 -0.341076 L0.444397 -0.289415 L0.392737 -0.044811 L0.489208 0.103322 L0.341076 0.199793 L0.289415 0.444397 L0.044811 0.392737 L-0.103322 0.489208 L-0.199793 0.341076 L-0.444397 0.289415 L-0.392737 0.044811 L-0.489208 -0.103322 L-0.341076 -0.199793 L-0.289415 -0.444397 L-0.044811 -0.392737 z " fill="rgb(245,195,195)" />
<path d="M-3279982669.633825 -4045078409.800477 L-3279982668.633825 -4045078409.800477 L-3279982668.633825 -4045078408.800477 L-3279982669.633825 -4045078408.800477  z" fill="none" stroke="rgb(128,128,128)" stroke-width="0.01" />
<line x1="0.103322" y1="-0.489208" x2="0.489208" y2="0.103322" style="stroke:rgb(246,147,147);stroke-width:0.01" />
<line x1="0.0774914" y1="-0.366906" x2="0.366906" y2="0.0774914" style="stroke:rgb(246,147,147);stroke-width:0.01" />
<line x1="-0.366906" y1="-0.0774914" x2="-0.0774914" y2="0.366906" style="stroke:rgb(246,147,147);stroke-width:0.01" />
<line x1="-0.489208" y1="-0.103322" x2="-0.103322" y2="0.489208" style="stroke:rgb(246,147,147);stroke-width:0.01" />
<line x1="-0.289415" y1="-0.444397" x2="-0.444397" y2="0.289415" style="stroke:rgb(246,147,147);stroke-width:0.01" />
<line x1="0.103322" y1="-0.489208" x2="0.0774914" y2="-0.366906" style="stroke:rgb(246,147,147);stroke-width:0.01" />
<line x1="-0.0774914" y1="0.366906" x2="-0.103322" y2="0.489208" style="stroke:rgb(246,147,147);stroke-width:0.01" />
<line x1="0.444397" y1="-0.289415" x2="0.289415" y2="0.444397" style="stroke:rgb(246,147,147);stroke-width:0.01" />
<line x1="-0.289415" y1="-0.444397" x2="0.444397" y2="-0.289415" style="stroke:rgb(246,147,147);stroke-width:0.01" />
<line x1="-0.489208" y1="-0.103322" x2="-0.366906" y2="-0.0774914" style="stroke:rgb(246,147,147);stroke-width:0.01" />
<line x1="0.366906" y1="0.0774914" x2="0.489208" y2="0.103322" style="stroke:rgb(246,147,147);stroke-width:0.01" />
<line x1="-0.444397" y1="0.289415" x2="0.289415" y2="0.444397" style="stroke:rgb(246,147,147);stroke-width:0.01" />
<line x1="0.103322" y1="-0.489208" x2="-0.489208" y2="-0.103322" style="stroke:rgb(246,147,147);stroke-width:0.01" />
<line x1="0.0774914" y1="-0.366906" x2="-0.366906" y2="-0.0774914" style="stroke:rgb(246,147,147);stroke-width:0.01" />
<line x1="0.366906" y1="0.0774914" x2="-0.0774914" y2="0.366906" style="stroke:rgb(246,147,147);stroke-width:0.01" />
<line x1="0.489208" y1="0.103322" x2="-0.103322" y2="0.489208" style="stroke:rgb(246,147,147);stroke-width:0.01" />
</g>
</svg>
