<svg xmlns="http://www.w3.org/2000/svg" viewBox="-1.5 -1.5 3 3">
<g transform="scale(1, -1)">
<path d="M3279982669.932830 4045078409.352597 L3279982670.048596 4045078409.530356 L3279982669.986603 4045078409.823881 L3279982669.512579 4045078410.132590 L3279982669.219054 4045078410.070597 L3279982669.103288 4045078409.892838 L3279982669.396813 4045078409.954831 L3279982669.479471 4045078409.563464 L3279982669.870837 4045078409.646122 z " fill="rgb(245,195,195)" />
<path d="M0.000000 0.000000 L1.000000 0.000000 L1.000000 1.000000 L0.000000 1.000000  z" fill="none" stroke="rgb(128,128,128)" stroke-width="0.01" />
<line x1="3.27998e+09" y1="4.04508e+09" x2="3.27998e+09" y2="4.04508e+09" style="stroke:rgb(246,147,147);stroke-width:0.01" />
<line x1="3.27998e+09" y1="4.04508e+09" x2="3.27998e+09" y2="4.04508e+09" style="stroke:rgb(246,147,147);stroke-width:0.01" />
<line x1="3.27998e+09" y1="4.04508e+09" x2="3.27998e+09" y2="4.04508e+09" style="stroke:rgb(246,147,147);stroke-width:0.01" />
<line x1="3.27998e+09" y1="4.04508e+09" x2="3.27998e+09" y2="4.04508e+09" style="stroke:rgb(246,147,147);stroke-width:0.01" />
<line x1="3.27998e+09" y1="4.04508e+09" x2="3.27998e+09" y2="4.04508e+09" style="stroke:rgb(246,147,147);stroke-width:0.01" />
<line x1="3.27998e+09" y1="4.04508e+09" x2="3.27998e+09" y2="4.04508e+09" style="stroke:rgb(246,147,147);stroke-width:0.01" />
<line x1="3.27998e+09" y1="4.04508e+09" x2="3.27998e+09" y2="4.04508e+09" style="stroke:rgb(246,147,147);stroke-width:0.01" />
<line x1="3.27998e+09" y1="4.04508e+09" x2="3.27998e+09" y2="4.04508e+09" style="stroke:rgb(246,147,147);stroke-width:0.01" />
<line x1="3.27998e+09" y1="4.04508e+09" x2="3.27998e+09" y2="4.04508e+09" style="stroke:rgb(246,147,147);stroke-width:0.01" />
<line x1="3.27998e+09" y1="4.04508e+09" x2="3.27998e+09" y2="4.04508e+09" style="stroke:rgb(246,147,147);stroke-width:0.01" />
<line x1="3.27998e+09" y1="4.04508e+09" x2="3.27998e+09" y2="4.04508e+09" style="stroke:rgb(246,147,147);stroke-width:0.01" />
<line x1="3.27998e+09" y1="4.04508e+09" x2="3.27998e+09" y2="4.04508e+09" style="stroke:rgb(246,147,147);stroke-width:0.01" />
</g>
</svg>
