<svg xmlns="http://www.w3.org/2000/svg" viewBox="-1.5 -1.5 3 3">
<g transform="scale(1, -1)">
<path d="M0.316156 -0.421545 L0.431921 -0.243786 L0.369928 0.049739 L-0.104096 0.358448 L-0.397620 0.296455 L-0.513386 0.118696 L-0.219861 0.180689 L-0.137204 -0.210677 L0.254162 -0.128020 z " fill="rgb(245,195,195)" />
<path d="M-3279982669.616675 -4045078409.774142 L-3279982668.616675 -4045078409.774142 L-3279982668.616675 -4045078408.774142 L-3279982669.616675 -4045078408.774142  z" fill="none" stroke="rgb(128,128,128)" stroke-width="0.01" />
<line x1="0.316156" y1="-0.421545" x2="0.431921" y2="-0.243786" style="stroke:rgb(246,147,147);stroke-width:0.01" />
<line x1="0.254162" y1="-0.12802" x2="0.369928" y2="0.0497392" style="stroke:rgb(246,147,147);stroke-width:0.01" />
<line x1="-0.219861" y1="0.180689" x2="-0.104096" y2="0.358448" style="stroke:rgb(246,147,147);stroke-width:0.01" />
<line x1="-0.513386" y1="0.118696" x2="-0.39762" y2="0.296455" style="stroke:rgb(246,147,147);stroke-width:0.01" />
<line x1="-0.137204" y1="-0.210677" x2="-0.250858" y2="0.327452" style="stroke:rgb(246,147,147);stroke-width:0.01" />
<line x1="0.316156" y1="-0.421545" x2="0.254162" y2="-0.12802" style="stroke:rgb(246,147,147);stroke-width:0.01" />
<line x1="0.431921" y1="-0.243786" x2="0.369928" y2="0.0497392" style="stroke:rgb(246,147,147);stroke-width:0.01" />
<line x1="-0.137204" y1="-0.210677" x2="0.400925" y2="-0.0970233" style="stroke:rgb(246,147,147);stroke-width:0.01" />
<line x1="-0.513386" y1="0.118696" x2="-0.219861" y2="0.180689" style="stroke:rgb(246,147,147);stroke-width:0.01" />
<line x1="-0.39762" y1="0.296455" x2="-0.104096" y2="0.358448" style="stroke:rgb(246,147,147);stroke-width:0.01" />
<line x1="0.431921" y1="-0.243786" x2="-0.39762" y2="0.296455" style="stroke:rgb(246,147,147);stroke-width:0.01" />
<line x1="0.369928" y1="0.0497392" x2="-0.104096" y2="0.358448" style="stroke:rgb(246,147,147);stroke-width:0.01" />
</g>
</svg>
