<svg xmlns="http://www.w3.org/2000/svg" viewBox="-1.5 -1.5 3 3">
<g transform="scale(1, -1)">
<path d="M3279982669.559388 4045078409.427034 L3279982669.675154 4045078409.604793 L3279982669.870837 4045078409.646122 L3279982669.829508 4045078409.841805 L3279982669.533244 4045078410.034748 L3279982669.340301 4045078409.738483 L3279982669.402294 4045078409.444958 L3279982669.500135 4045078409.465623 z " fill="rgb(245,195,195)" />
<path d="M0.000000 0.000000 L1.000000 0.000000 L1.000000 1.000000 L0.000000 1.000000  z" fill="none" stroke="rgb(128,128,128)" stroke-width="0.01" />
<line x1="3.27998e+09" y1="4.04508e+09" x2="3.27998e+09" y2="4.04508e+09" style="stroke:rgb(246,147,147);stroke-width:0.01" />
<line x1="3.27998e+09" y1="4.04508e+09" x2="3.27998e+09" y2="4.04508e+09" style="stroke:rgb(246,147,147);stroke-width:0.01" />
<line x1="3.27998e+09" y1="4.04508e+09" x2="3.27998e+09" y2="4.04508e+09" style="stroke:rgb(246,147,147);stroke-width:0.01" />
<line x1="3.27998e+09" y1="4.04508e+09" x2="3.27998e+09" y2="4.04508e+09" style="stroke:rgb(246,147,147);stroke-width:0.01" />
<line x1="3.27998e+09" y1="4.04508e+09" x2="3.27998e+09" y2="4.04508e+09" style="stroke:rgb(246,147,147);stroke-width:0.01" />
<line x1="3.27998e+09" y1="4.04508e+09" x2="3.27998e+09" y2="4.04508e+09" style="stroke:rgb(246,147,147);stroke-width:0.01" />
<line x1="3.27998e+09" y1="4.04508e+09" x2="3.27998e+09" y2="4.04508e+09" style="stroke:rgb(246,147,147);stroke-width:0.01" />
<line x1="3.27998e+09" y1="4.04508e+09" x2="3.27998e+09" y2="4.04508e+09" style="stroke:rgb(246,147,147);stroke-width:0.01" />
<line x1="3.27998e+09" y1="4.04508e+09" x2="3.27998e+09" y2="4.04508e+09" style="stroke:rgb(246,147,147);stroke-width:0.01" />
<line x1="3.27998e+09" y1="4.04508e+09" x2="3.27998e+09" y2="4.04508e+09" style="stroke:rgb(246,147,147);stroke-width:0.01" />
<line x1="3.27998e+09" y1="4.04508e+09" x2="3.27998e+09" y2="4.04508e+09" style="stroke:rgb(246,147,147);stroke-width:0.01" />
<line x1="3.27998e+09" y1="4.04508e+09" x2="3.27998e+09" y2="4.04508e+09" style="stroke:rgb(246,147,147);stroke-width:0.01" />
<line x1="3.27998e+09" y1="4.04508e+09" x2="3.27998e+09" y2="4.04508e+09" style="stroke:rgb(246,147,147);stroke-width:0.01" />
<line x1="3.27998e+09" y1="4.04508e+09" x2="3.27998e+09" y2="4.04508e+09" style="stroke:rgb(246,147,147);stroke-width:0.01" />
</g>
</svg>
