<svg xmlns="http://www.w3.org/2000/svg" viewBox="-1.5 -1.5 3 3">
<g transform="scale(1, -1)">
<path d="M-0.029469 -0.223412 L0.086296 -0.045653 L0.281980 -0.004324 L0.240651 0.191359 L-0.055614 0.384302 L-0.248557 0.088037 L-0.186564 -0.205487 L-0.088722 -0.184823 z " fill="rgb(245,195,195)" />
<path d="M-3279982669.588858 -4045078409.650446 L-3279982668.588858 -4045078409.650446 L-3279982668.588858 -4045078408.650446 L-3279982669.588858 -4045078408.650446  z" fill="none" stroke="rgb(128,128,128)" stroke-width="0.01" />
<line x1="-0.0294694" y1="-0.223412" x2="0.240651" y2="0.191359" style="stroke:rgb(246,147,147);stroke-width:0.01" />
<line x1="-0.207228" y1="-0.107646" x2="-0.130051" y2="0.0108601" style="stroke:rgb(246,147,147);stroke-width:0.01" />
<line x1="-0.248557" y1="0.0880374" x2="-0.055614" y2="0.384302" style="stroke:rgb(246,147,147);stroke-width:0.01" />
<line x1="-0.186564" y1="-0.205487" x2="-0.248557" y2="0.0880374" style="stroke:rgb(246,147,147);stroke-width:0.01" />
<line x1="0.0091192" y1="-0.164159" x2="-0.0942027" y2="0.325049" style="stroke:rgb(246,147,147);stroke-width:0.01" />
<line x1="0.0862965" y1="-0.0456527" x2="0.00363896" y2="0.345714" style="stroke:rgb(246,147,147);stroke-width:0.01" />
<line x1="0.28198" y1="-0.00432399" x2="0.240651" y2="0.191359" style="stroke:rgb(246,147,147);stroke-width:0.01" />
<line x1="-0.186564" y1="-0.205487" x2="0.0091192" y2="-0.164159" style="stroke:rgb(246,147,147);stroke-width:0.01" />
<line x1="-0.207228" y1="-0.107646" x2="0.28198" y2="-0.00432399" style="stroke:rgb(246,147,147);stroke-width:0.01" />
<line x1="-0.248557" y1="0.0880374" x2="0.240651" y2="0.191359" style="stroke:rgb(246,147,147);stroke-width:0.01" />
<line x1="-0.0942027" y1="0.325049" x2="0.00363896" y2="0.345714" style="stroke:rgb(246,147,147);stroke-width:0.01" />
<line x1="-0.0294694" y1="-0.223412" x2="-0.207228" y2="-0.107646" style="stroke:rgb(246,147,147);stroke-width:0.01" />
<line x1="-0.130051" y1="0.0108601" x2="-0.248557" y2="0.0880374" style="stroke:rgb(246,147,147);stroke-width:0.01" />
<line x1="0.240651" y1="0.191359" x2="-0.055614" y2="0.384302" style="stroke:rgb(246,147,147);stroke-width:0.01" />
</g>
</svg>
