<svg xmlns="http://www.w3.org/2000/svg" viewBox="-1.5 -1.5 3 3">
<g transform="scale(1, -1)">
<path d="M0.562967 -0.121873 L0.584263 -0.117508 L0.461230 0.482658 L0.500000 0.500000 L0.421868 0.674670 L-0.357706 0.423740 L-0.491355 0.274367 L-0.493043 0.270982 L-0.412837 0.091675 L-0.103807 0.229909 z " fill="rgb(245,195,195)" />
<path d="M0.000000 0.000000 L1.000000 0.000000 L1.000000 1.000000 L0.000000 1.000000  z" fill="none" stroke="rgb(128,128,128)" stroke-width="0.01" />
<line x1="0.562967" y1="-0.121873" x2="0.584263" y2="-0.117508" style="stroke:rgb(246,147,147);stroke-width:0.01" />
<line x1="-0.412837" y1="0.0916749" x2="-0.493043" y2="0.270982" style="stroke:rgb(246,147,147);stroke-width:0.01" />
<line x1="-0.372447" y1="0.351173" x2="-0.394101" y2="0.383064" style="stroke:rgb(246,147,147);stroke-width:0.01" />
<line x1="0.0822101" y1="0.152278" x2="0.329352" y2="0.434317" style="stroke:rgb(246,147,147);stroke-width:0.01" />
<line x1="-0.294611" y1="0.316433" x2="-0.262541" y2="0.454372" style="stroke:rgb(246,147,147);stroke-width:0.01" />
<line x1="-0.372447" y1="0.351173" x2="-0.357706" y2="0.42374" style="stroke:rgb(246,147,147);stroke-width:0.01" />
<line x1="0.584263" y1="-0.117508" x2="0.421868" y2="0.67467" style="stroke:rgb(246,147,147);stroke-width:0.01" />
<line x1="0.0822101" y1="0.152278" x2="-0.262541" y2="0.454372" style="stroke:rgb(246,147,147);stroke-width:0.01" />
<line x1="0.562967" y1="-0.121873" x2="-0.394101" y2="0.383064" style="stroke:rgb(246,147,147);stroke-width:0.01" />
<line x1="0.562967" y1="-0.121873" x2="0.329352" y2="0.434317" style="stroke:rgb(246,147,147);stroke-width:0.01" />
<line x1="-0.412837" y1="0.0916749" x2="0.5" y2="0.5" style="stroke:rgb(246,147,147);stroke-width:0.01" />
<line x1="-0.493043" y1="0.270982" x2="-0.491355" y2="0.274367" style="stroke:rgb(246,147,147);stroke-width:0.01" />
<line x1="0.5" y1="0.5" x2="0.421868" y2="0.67467" style="stroke:rgb(246,147,147);stroke-width:0.01" />
<line x1="-0.294611" y1="0.316433" x2="-0.105509" y2="0.504918" style="stroke:rgb(246,147,147);stroke-width:0.01" />
<line x1="-0.493043" y1="0.270982" x2="-0.294611" y2="0.316433" style="stroke:rgb(246,147,147);stroke-width:0.01" />
<line x1="-0.491355" y1="0.274367" x2="-0.357706" y2="0.42374" style="stroke:rgb(246,147,147);stroke-width:0.01" />
<line x1="-0.491355" y1="0.274367" x2="-0.372447" y2="0.351173" style="stroke:rgb(246,147,147);stroke-width:0.01" />
<line x1="0.329352" y1="0.434317" x2="-0.105509" y2="0.504918" style="stroke:rgb(246,147,147);stroke-width:0.01" />
<line x1="-0.357706" y1="0.42374" x2="0.421868" y2="0.67467" style="stroke:rgb(246,147,147);stroke-width:0.01" />
</g>
</svg>
