<svg xmlns="http://www.w3.org/2000/svg" viewBox="-1.5 -1.5 3 3">
<g transform="scale(1, -1)">
<path d="M0.495809 -0.392735 L0.517105 -0.388370 L0.394072 0.211796 L0.432842 0.229138 L0.354710 0.403808 L-0.424864 0.152878 L-0.558513 0.003505 L-0.560201 0.000120 L-0.479995 -0.179187 L-0.170965 -0.040953 z " fill="rgb(245,195,195)" />
<path d="M-0.067158 -0.270862 L0.932842 -0.270862 L0.932842 0.729138 L-0.067158 0.729138  z" fill="none" stroke="rgb(128,128,128)" stroke-width="0.01" />
<line x1="0.495809" y1="-0.392735" x2="0.517105" y2="-0.38837" style="stroke:rgb(246,147,147);stroke-width:0.01" />
<line x1="-0.479995" y1="-0.179187" x2="-0.560201" y2="0.000120135" style="stroke:rgb(246,147,147);stroke-width:0.01" />
<line x1="-0.439605" y1="0.0803109" x2="-0.461258" y2="0.112202" style="stroke:rgb(246,147,147);stroke-width:0.01" />
<line x1="0.0150521" y1="-0.118584" x2="0.262194" y2="0.163455" style="stroke:rgb(246,147,147);stroke-width:0.01" />
<line x1="-0.361768" y1="0.0455709" x2="-0.329699" y2="0.18351" style="stroke:rgb(246,147,147);stroke-width:0.01" />
<line x1="-0.439605" y1="0.0803109" x2="-0.424864" y2="0.152878" style="stroke:rgb(246,147,147);stroke-width:0.01" />
<line x1="0.517105" y1="-0.38837" x2="0.35471" y2="0.403808" style="stroke:rgb(246,147,147);stroke-width:0.01" />
<line x1="0.0150521" y1="-0.118584" x2="-0.329699" y2="0.18351" style="stroke:rgb(246,147,147);stroke-width:0.01" />
<line x1="0.495809" y1="-0.392735" x2="-0.461258" y2="0.112202" style="stroke:rgb(246,147,147);stroke-width:0.01" />
<line x1="0.495809" y1="-0.392735" x2="0.262194" y2="0.163455" style="stroke:rgb(246,147,147);stroke-width:0.01" />
<line x1="-0.479995" y1="-0.179187" x2="0.432842" y2="0.229138" style="stroke:rgb(246,147,147);stroke-width:0.01" />
<line x1="-0.560201" y1="0.000120135" x2="-0.558513" y2="0.00350543" style="stroke:rgb(246,147,147);stroke-width:0.01" />
<line x1="0.432842" y1="0.229138" x2="0.35471" y2="0.403808" style="stroke:rgb(246,147,147);stroke-width:0.01" />
<line x1="-0.361768" y1="0.0455709" x2="-0.172667" y2="0.234056" style="stroke:rgb(246,147,147);stroke-width:0.01" />
<line x1="-0.560201" y1="0.000120135" x2="-0.361768" y2="0.0455709" style="stroke:rgb(246,147,147);stroke-width:0.01" />
<line x1="-0.558513" y1="0.00350543" x2="-0.424864" y2="0.152878" style="stroke:rgb(246,147,147);stroke-width:0.01" />
<line x1="-0.558513" y1="0.00350543" x2="-0.439605" y2="0.0803109" style="stroke:rgb(246,147,147);stroke-width:0.01" />
<line x1="0.262194" y1="0.163455" x2="-0.172667" y2="0.234056" style="stroke:rgb(246,147,147);stroke-width:0.01" />
<line x1="-0.424864" y1="0.152878" x2="0.35471" y2="0.403808" style="stroke:rgb(246,147,147);stroke-width:0.01" />
</g>
</svg>
