<svg xmlns="http://www.w3.org/2000/svg" viewBox="-1.5 -1.5 3 3">
<g transform="scale(1, -1)">
<path d="M0.500000 0.500000 L0.841239 0.600000 L0.899317 0.600000 L1.086559 0.534084 L1.130594 0.507458 L1.200000 0.600000 L1.037209 0.925581 L0.529615 0.870841 L0.421390 0.768248 z " fill="rgb(245,195,195)" />
<path d="M0.000000 0.000000 L1.000000 0.000000 L1.000000 1.000000 L0.000000 1.000000  z" fill="none" stroke="rgb(128,128,128)" stroke-width="0.01" />
<line x1="1.13059" y1="0.507458" x2="1.2" y2="0.6" style="stroke:rgb(246,147,147);stroke-width:0.01" />
<line x1="1.10098" y1="0.529007" x2="1.15656" y2="0.686884" style="stroke:rgb(246,147,147);stroke-width:0.01" />
<line x1="0.958892" y1="0.6" x2="1.06491" y2="0.870175" style="stroke:rgb(246,147,147);stroke-width:0.01" />
<line x1="0.930113" y1="0.691684" x2="0.985488" y2="0.892118" style="stroke:rgb(246,147,147);stroke-width:0.01" />
<line x1="0.825198" y1="0.6" x2="0.899236" y2="0.69898" style="stroke:rgb(246,147,147);stroke-width:0.01" />
<line x1="1.03156" y1="0.6" x2="1.15415" y2="0.691699" style="stroke:rgb(246,147,147);stroke-width:0.01" />
<line x1="0.784328" y1="0.654638" x2="1.03721" y2="0.925581" style="stroke:rgb(246,147,147);stroke-width:0.01" />
<line x1="0.868957" y1="0.6" x2="1.11921" y2="0.761571" style="stroke:rgb(246,147,147);stroke-width:0.01" />
<line x1="0.5" y1="0.5" x2="0.42139" y2="0.768248" style="stroke:rgb(246,147,147);stroke-width:0.01" />
<line x1="0.42139" y1="0.768248" x2="0.529615" y2="0.870841" style="stroke:rgb(246,147,147);stroke-width:0.01" />
<line x1="0.930113" y1="0.691684" x2="1.11921" y2="0.761571" style="stroke:rgb(246,147,147);stroke-width:0.01" />
<line x1="0.5" y1="0.5" x2="1.15415" y2="0.691699" style="stroke:rgb(246,147,147);stroke-width:0.01" />
<line x1="0.958892" y1="0.6" x2="0.892127" y2="0.770136" style="stroke:rgb(246,147,147);stroke-width:0.01" />
<line x1="0.825198" y1="0.6" x2="1.2" y2="0.6" style="stroke:rgb(246,147,147);stroke-width:0.01" />
<line x1="1.2" y1="0.6" x2="1.03721" y2="0.925581" style="stroke:rgb(246,147,147);stroke-width:0.01" />
<line x1="0.825198" y1="0.6" x2="0.784328" y2="0.654638" style="stroke:rgb(246,147,147);stroke-width:0.01" />
<line x1="0.529615" y1="0.870841" x2="1.03721" y2="0.925581" style="stroke:rgb(246,147,147);stroke-width:0.01" />
<line x1="1.10098" y1="0.529007" x2="0.42139" y2="0.768248" style="stroke:rgb(246,147,147);stroke-width:0.01" />
<line x1="0.868957" y1="0.6" x2="0.784328" y2="0.654638" style="stroke:rgb(246,147,147);stroke-width:0.01" />
<line x1="1.13059" y1="0.507458" x2="0.930113" y2="0.691684" style="stroke:rgb(246,147,147);stroke-width:0.01" />
<line x1="1.13059" y1="0.507458" x2="0.529615" y2="0.870841" style="stroke:rgb(246,147,147);stroke-width:0.01" />
<line x1="1.03156" y1="0.6" x2="0.899236" y2="0.69898" style="stroke:rgb(246,147,147);stroke-width:0.01" />
<line x1="1.15656" y1="0.686884" x2="0.892127" y2="0.770136" style="stroke:rgb(246,147,147);stroke-width:0.01" />
<line x1="1.06491" y1="0.870175" x2="0.985488" y2="0.892118" style="stroke:rgb(246,147,147);stroke-width:0.01" />
</g>
</svg>
