<svg xmlns="http://www.w3.org/2000/svg" viewBox="-1.5 -1.5 3 3">
<g transform="scale(1, -1)">
<path d="M-0.349547 -0.156246 L-0.008308 -0.056246 L0.049770 -0.056246 L0.237012 -0.122162 L0.281047 -0.148787 L0.350453 -0.056246 L0.187662 0.269336 L-0.319932 0.214595 L-0.428157 0.112002 z " fill="rgb(245,195,195)" />
<path d="M-0.849547 -0.656246 L0.150453 -0.656246 L0.150453 0.343754 L-0.849547 0.343754  z" fill="none" stroke="rgb(128,128,128)" stroke-width="0.01" />
<line x1="0.281047" y1="-0.148787" x2="0.350453" y2="-0.0562458" style="stroke:rgb(246,147,147);stroke-width:0.01" />
<line x1="0.251433" y1="-0.127238" x2="0.307011" y2="0.0306379" style="stroke:rgb(246,147,147);stroke-width:0.01" />
<line x1="0.109345" y1="-0.0562458" x2="0.215365" y2="0.213929" style="stroke:rgb(246,147,147);stroke-width:0.01" />
<line x1="0.0805663" y1="0.0354379" x2="0.135941" y2="0.235872" style="stroke:rgb(246,147,147);stroke-width:0.01" />
<line x1="-0.0243492" y1="-0.0562458" x2="0.049689" y2="0.0427342" style="stroke:rgb(246,147,147);stroke-width:0.01" />
<line x1="0.182013" y1="-0.0562458" x2="0.304604" y2="0.0354529" style="stroke:rgb(246,147,147);stroke-width:0.01" />
<line x1="-0.0652187" y1="-0.00160825" x2="0.187662" y2="0.269336" style="stroke:rgb(246,147,147);stroke-width:0.01" />
<line x1="0.0194097" y1="-0.0562458" x2="0.269667" y2="0.105325" style="stroke:rgb(246,147,147);stroke-width:0.01" />
<line x1="-0.349547" y1="-0.156246" x2="-0.428157" y2="0.112002" style="stroke:rgb(246,147,147);stroke-width:0.01" />
<line x1="-0.428157" y1="0.112002" x2="-0.319932" y2="0.214595" style="stroke:rgb(246,147,147);stroke-width:0.01" />
<line x1="0.0805663" y1="0.0354379" x2="0.269667" y2="0.105325" style="stroke:rgb(246,147,147);stroke-width:0.01" />
<line x1="-0.349547" y1="-0.156246" x2="0.304604" y2="0.0354529" style="stroke:rgb(246,147,147);stroke-width:0.01" />
<line x1="0.109345" y1="-0.0562458" x2="0.0425803" y2="0.113891" style="stroke:rgb(246,147,147);stroke-width:0.01" />
<line x1="-0.0243492" y1="-0.0562458" x2="0.350453" y2="-0.0562458" style="stroke:rgb(246,147,147);stroke-width:0.01" />
<line x1="0.350453" y1="-0.0562458" x2="0.187662" y2="0.269336" style="stroke:rgb(246,147,147);stroke-width:0.01" />
<line x1="-0.0243492" y1="-0.0562458" x2="-0.0652187" y2="-0.00160825" style="stroke:rgb(246,147,147);stroke-width:0.01" />
<line x1="-0.319932" y1="0.214595" x2="0.187662" y2="0.269336" style="stroke:rgb(246,147,147);stroke-width:0.01" />
<line x1="0.251433" y1="-0.127238" x2="-0.428157" y2="0.112002" style="stroke:rgb(246,147,147);stroke-width:0.01" />
<line x1="0.0194097" y1="-0.0562458" x2="-0.0652187" y2="-0.00160825" style="stroke:rgb(246,147,147);stroke-width:0.01" />
<line x1="0.281047" y1="-0.148787" x2="0.0805663" y2="0.0354379" style="stroke:rgb(246,147,147);stroke-width:0.01" />
<line x1="0.281047" y1="-0.148787" x2="-0.319932" y2="0.214595" style="stroke:rgb(246,147,147);stroke-width:0.01" />
<line x1="0.182013" y1="-0.0562458" x2="0.049689" y2="0.0427342" style="stroke:rgb(246,147,147);stroke-width:0.01" />
<line x1="0.307011" y1="0.0306379" x2="0.0425803" y2="0.113891" style="stroke:rgb(246,147,147);stroke-width:0.01" />
<line x1="0.215365" y1="0.213929" x2="0.135941" y2="0.235872" style="stroke:rgb(246,147,147);stroke-width:0.01" />
</g>
</svg>
