<svg xmlns="http://www.w3.org/2000/svg" viewBox="-1.5 -1.5 3 3">
<g transform="scale(1, -1)">
<path d="M-0.243553 -0.537443 L-0.201351 -0.498108 L-0.189565 -0.465697 L0.343529 0.242752 L0.317136 0.264654 L0.309858 0.265665 L0.292852 0.277238 L0.277079 0.270220 L-0.245375 0.342810 L-0.660611 -0.162091 z " fill="rgb(245,195,195)" />
<path d="M-0.630919 -0.488813 L0.369081 -0.488813 L0.369081 0.511187 L-0.630919 0.511187  z" fill="none" stroke="rgb(128,128,128)" stroke-width="0.01" />
<line x1="-0.243553" y1="-0.537443" x2="-0.201351" y2="-0.498108" style="stroke:rgb(246,147,147);stroke-width:0.01" />
<line x1="-0.243553" y1="-0.537443" x2="0.343529" y2="0.242752" style="stroke:rgb(246,147,147);stroke-width:0.01" />
<line x1="-0.21229" y1="-0.409624" x2="-0.153618" y2="-0.366843" style="stroke:rgb(246,147,147);stroke-width:0.01" />
<line x1="-0.201351" y1="-0.498108" x2="-0.153618" y2="-0.366843" style="stroke:rgb(246,147,147);stroke-width:0.01" />
<line x1="0.290692" y1="0.226943" x2="0.292852" y2="0.277238" style="stroke:rgb(246,147,147);stroke-width:0.01" />
<line x1="-0.65295" y1="-0.168986" x2="-0.648515" y2="-0.149799" style="stroke:rgb(246,147,147);stroke-width:0.01" />
<line x1="-0.201351" y1="-0.498108" x2="-0.21229" y2="-0.409624" style="stroke:rgb(246,147,147);stroke-width:0.01" />
<line x1="-0.477927" y1="-0.326506" x2="-0.574782" y2="-0.108849" style="stroke:rgb(246,147,147);stroke-width:0.01" />
<line x1="-0.153618" y1="-0.366843" x2="-0.233055" y2="-0.0467085" style="stroke:rgb(246,147,147);stroke-width:0.01" />
<line x1="-0.660611" y1="-0.162091" x2="-0.245375" y2="0.34281" style="stroke:rgb(246,147,147);stroke-width:0.01" />
<line x1="-0.243553" y1="-0.537443" x2="-0.660611" y2="-0.162091" style="stroke:rgb(246,147,147);stroke-width:0.01" />
<line x1="-0.660611" y1="-0.162091" x2="-0.648515" y2="-0.149799" style="stroke:rgb(246,147,147);stroke-width:0.01" />
<line x1="-0.174699" y1="-0.424815" x2="-0.477927" y2="-0.326506" style="stroke:rgb(246,147,147);stroke-width:0.01" />
<line x1="-0.130919" y1="0.0111868" x2="-0.245375" y2="0.34281" style="stroke:rgb(246,147,147);stroke-width:0.01" />
<line x1="-0.174699" y1="-0.424815" x2="-0.21229" y2="-0.409624" style="stroke:rgb(246,147,147);stroke-width:0.01" />
<line x1="-0.65295" y1="-0.168986" x2="-0.130919" y2="0.0111868" style="stroke:rgb(246,147,147);stroke-width:0.01" />
<line x1="-0.574782" y1="-0.108849" x2="0.292852" y2="0.277238" style="stroke:rgb(246,147,147);stroke-width:0.01" />
<line x1="-0.648515" y1="-0.149799" x2="-0.233055" y2="-0.0467085" style="stroke:rgb(246,147,147);stroke-width:0.01" />
<line x1="0.330352" y1="0.22524" x2="0.317136" y2="0.264654" style="stroke:rgb(246,147,147);stroke-width:0.01" />
<line x1="0.330352" y1="0.22524" x2="0.290692" y2="0.226943" style="stroke:rgb(246,147,147);stroke-width:0.01" />
<line x1="0.317136" y1="0.264654" x2="-0.245375" y2="0.34281" style="stroke:rgb(246,147,147);stroke-width:0.01" />
<line x1="0.343529" y1="0.242752" x2="0.317136" y2="0.264654" style="stroke:rgb(246,147,147);stroke-width:0.01" />
<line x1="0.343529" y1="0.242752" x2="0.292852" y2="0.277238" style="stroke:rgb(246,147,147);stroke-width:0.01" />
</g>
</svg>
