<svg xmlns="http://www.w3.org/2000/svg" viewBox="-1.5 -1.5 3 3">
<g transform="scale(1, -1)">
<path d="M0.453571 -0.168453 L0.888560 0.629028 L0.614310 0.939694 L0.610599 0.939520 L0.533909 0.757637 L0.579482 0.738421 L0.568974 0.677694 L0.484898 0.690497 L0.463964 0.638287 L0.232340 -0.079745 z " fill="rgb(245,195,195)" />
<path d="M0.000000 0.000000 L1.000000 0.000000 L1.000000 1.000000 L0.000000 1.000000  z" fill="none" stroke="rgb(128,128,128)" stroke-width="0.01" />
<line x1="0.425953" y1="-0.148847" x2="0.471224" y2="-0.13609" style="stroke:rgb(246,147,147);stroke-width:0.01" />
<line x1="0.453571" y1="-0.168453" x2="0.88856" y2="0.629028" style="stroke:rgb(246,147,147);stroke-width:0.01" />
<line x1="0.533909" y1="0.757637" x2="0.610599" y2="0.93952" style="stroke:rgb(246,147,147);stroke-width:0.01" />
<line x1="0.425953" y1="-0.148847" x2="0.61431" y2="0.939694" style="stroke:rgb(246,147,147);stroke-width:0.01" />
<line x1="0.23234" y1="-0.0797453" x2="0.463964" y2="0.638287" style="stroke:rgb(246,147,147);stroke-width:0.01" />
<line x1="0.463964" y1="0.638287" x2="0.484898" y2="0.690497" style="stroke:rgb(246,147,147);stroke-width:0.01" />
<line x1="0.283054" y1="-0.0923031" x2="0.463964" y2="0.638287" style="stroke:rgb(246,147,147);stroke-width:0.01" />
<line x1="0.283054" y1="-0.0923031" x2="0.23234" y2="-0.0797453" style="stroke:rgb(246,147,147);stroke-width:0.01" />
<line x1="0.345974" y1="0.27252" x2="0.506173" y2="0.394122" style="stroke:rgb(246,147,147);stroke-width:0.01" />
<line x1="0.453571" y1="-0.168453" x2="0.23234" y2="-0.0797453" style="stroke:rgb(246,147,147);stroke-width:0.01" />
<line x1="0.5" y1="0.5" x2="0.484898" y2="0.690497" style="stroke:rgb(246,147,147);stroke-width:0.01" />
<line x1="0.453571" y1="-0.168453" x2="0.425953" y2="-0.148847" style="stroke:rgb(246,147,147);stroke-width:0.01" />
<line x1="0.471224" y1="-0.13609" x2="0.345974" y2="0.27252" style="stroke:rgb(246,147,147);stroke-width:0.01" />
<line x1="0.421278" y1="0.505963" x2="0.8446" y2="0.635722" style="stroke:rgb(246,147,147);stroke-width:0.01" />
<line x1="0.506173" y1="0.394122" x2="0.421278" y2="0.505963" style="stroke:rgb(246,147,147);stroke-width:0.01" />
<line x1="0.5" y1="0.5" x2="0.832562" y2="0.526364" style="stroke:rgb(246,147,147);stroke-width:0.01" />
<line x1="0.832562" y1="0.526364" x2="0.610599" y2="0.93952" style="stroke:rgb(246,147,147);stroke-width:0.01" />
<line x1="0.88856" y1="0.629028" x2="0.61431" y2="0.939694" style="stroke:rgb(246,147,147);stroke-width:0.01" />
<line x1="0.88856" y1="0.629028" x2="0.484898" y2="0.690497" style="stroke:rgb(246,147,147);stroke-width:0.01" />
<line x1="0.87928" y1="0.612013" x2="0.8446" y2="0.635722" style="stroke:rgb(246,147,147);stroke-width:0.01" />
<line x1="0.87928" y1="0.612013" x2="0.533909" y2="0.757637" style="stroke:rgb(246,147,147);stroke-width:0.01" />
<line x1="0.610599" y1="0.93952" x2="0.61431" y2="0.939694" style="stroke:rgb(246,147,147);stroke-width:0.01" />
</g>
</svg>
