<svg xmlns="http://www.w3.org/2000/svg" viewBox="-1.5 -1.5 3 3">
<g transform="scale(1, -1)">
<path d="M-0.089490 -0.744711 L0.345500 0.052770 L0.071249 0.363436 L0.067539 0.363262 L-0.009151 0.181379 L0.036421 0.162163 L0.025913 0.101436 L-0.058163 0.114239 L-0.079097 0.062029 L-0.310721 -0.656003 z " fill="rgb(245,195,195)" />
<path d="M-0.543061 -0.576258 L0.456939 -0.576258 L0.456939 0.423742 L-0.543061 0.423742  z" fill="none" stroke="rgb(128,128,128)" stroke-width="0.01" />
<line x1="-0.117108" y1="-0.725105" x2="-0.0718371" y2="-0.712348" style="stroke:rgb(246,147,147);stroke-width:0.01" />
<line x1="-0.0894898" y1="-0.744711" x2="0.3455" y2="0.0527696" style="stroke:rgb(246,147,147);stroke-width:0.01" />
<line x1="-0.00915149" y1="0.181379" x2="0.0675386" y2="0.363262" style="stroke:rgb(246,147,147);stroke-width:0.01" />
<line x1="-0.117108" y1="-0.725105" x2="0.0712487" y2="0.363436" style="stroke:rgb(246,147,147);stroke-width:0.01" />
<line x1="-0.310721" y1="-0.656003" x2="-0.0790972" y2="0.0620294" style="stroke:rgb(246,147,147);stroke-width:0.01" />
<line x1="-0.0790972" y1="0.0620294" x2="-0.0581627" y2="0.114239" style="stroke:rgb(246,147,147);stroke-width:0.01" />
<line x1="-0.260007" y1="-0.668561" x2="-0.0790972" y2="0.0620294" style="stroke:rgb(246,147,147);stroke-width:0.01" />
<line x1="-0.260007" y1="-0.668561" x2="-0.310721" y2="-0.656003" style="stroke:rgb(246,147,147);stroke-width:0.01" />
<line x1="-0.197087" y1="-0.303738" x2="-0.0368878" y2="-0.182136" style="stroke:rgb(246,147,147);stroke-width:0.01" />
<line x1="-0.0894898" y1="-0.744711" x2="-0.310721" y2="-0.656003" style="stroke:rgb(246,147,147);stroke-width:0.01" />
<line x1="-0.0430608" y1="-0.0762579" x2="-0.0581627" y2="0.114239" style="stroke:rgb(246,147,147);stroke-width:0.01" />
<line x1="-0.0894898" y1="-0.744711" x2="-0.117108" y2="-0.725105" style="stroke:rgb(246,147,147);stroke-width:0.01" />
<line x1="-0.0718371" y1="-0.712348" x2="-0.197087" y2="-0.303738" style="stroke:rgb(246,147,147);stroke-width:0.01" />
<line x1="-0.121783" y1="-0.0702952" x2="0.301539" y2="0.0594638" style="stroke:rgb(246,147,147);stroke-width:0.01" />
<line x1="-0.0368878" y1="-0.182136" x2="-0.121783" y2="-0.0702952" style="stroke:rgb(246,147,147);stroke-width:0.01" />
<line x1="-0.0430608" y1="-0.0762579" x2="0.289501" y2="-0.0498937" style="stroke:rgb(246,147,147);stroke-width:0.01" />
<line x1="0.289501" y1="-0.0498937" x2="0.0675386" y2="0.363262" style="stroke:rgb(246,147,147);stroke-width:0.01" />
<line x1="0.3455" y1="0.0527696" x2="0.0712487" y2="0.363436" style="stroke:rgb(246,147,147);stroke-width:0.01" />
<line x1="0.3455" y1="0.0527696" x2="-0.0581627" y2="0.114239" style="stroke:rgb(246,147,147);stroke-width:0.01" />
<line x1="0.336219" y1="0.0357551" x2="0.301539" y2="0.0594638" style="stroke:rgb(246,147,147);stroke-width:0.01" />
<line x1="0.336219" y1="0.0357551" x2="-0.00915149" y2="0.181379" style="stroke:rgb(246,147,147);stroke-width:0.01" />
<line x1="0.0675386" y1="0.363262" x2="0.0712487" y2="0.363436" style="stroke:rgb(246,147,147);stroke-width:0.01" />
</g>
</svg>
