<svg xmlns="http://www.w3.org/2000/svg" viewBox="-1.5 -1.5 3 3">
<g transform="scale(1, -1)">
<path d="M0.628524 -0.382152 L0.771465 -0.355350 L0.895693 0.495201 L0.314604 0.660995 L0.162548 0.128057 z " fill="rgb(245,195,195)" />
<path d="M0.000000 0.000000 L1.000000 0.000000 L1.000000 1.000000 L0.000000 1.000000  z" fill="none" stroke="rgb(128,128,128)" stroke-width="0.01" />
<line x1="0.628524" y1="-0.382152" x2="0.771465" y2="-0.35535" style="stroke:rgb(246,147,147);stroke-width:0.01" />
<line x1="0.685615" y1="-0.234705" x2="0.697825" y2="-0.22545" style="stroke:rgb(246,147,147);stroke-width:0.01" />
<line x1="0.687606" y1="-0.229565" x2="0.697825" y2="-0.22545" style="stroke:rgb(246,147,147);stroke-width:0.01" />
<line x1="0.628524" y1="-0.382152" x2="0.687606" y2="-0.229565" style="stroke:rgb(246,147,147);stroke-width:0.01" />
<line x1="0.758537" y1="-0.252727" x2="0.491125" y2="-0.23171" style="stroke:rgb(246,147,147);stroke-width:0.01" />
<line x1="0.771465" y1="-0.35535" x2="0.895693" y2="0.495201" style="stroke:rgb(246,147,147);stroke-width:0.01" />
<line x1="0.382991" y1="-0.0672174" x2="0.650439" y2="-0.0520889" style="stroke:rgb(246,147,147);stroke-width:0.01" />
<line x1="0.750157" y1="-0.359346" x2="0.758537" y2="-0.252727" style="stroke:rgb(246,147,147);stroke-width:0.01" />
<line x1="0.162548" y1="0.128057" x2="0.314604" y2="0.660995" style="stroke:rgb(246,147,147);stroke-width:0.01" />
<line x1="0.491125" y1="-0.23171" x2="0.5" y2="0.5" style="stroke:rgb(246,147,147);stroke-width:0.01" />
<line x1="0.382991" y1="-0.0672174" x2="0.369723" y2="0.167336" style="stroke:rgb(246,147,147);stroke-width:0.01" />
<line x1="0.162548" y1="0.128057" x2="0.369723" y2="0.167336" style="stroke:rgb(246,147,147);stroke-width:0.01" />
<line x1="0.710116" y1="-0.366853" x2="0.685615" y2="-0.234705" style="stroke:rgb(246,147,147);stroke-width:0.01" />
<line x1="0.710116" y1="-0.366853" x2="0.650439" y2="-0.0520889" style="stroke:rgb(246,147,147);stroke-width:0.01" />
<line x1="0.628524" y1="-0.382152" x2="0.162548" y2="0.128057" style="stroke:rgb(246,147,147);stroke-width:0.01" />
<line x1="0.750157" y1="-0.359346" x2="0.687606" y2="-0.229565" style="stroke:rgb(246,147,147);stroke-width:0.01" />
<line x1="0.771465" y1="-0.35535" x2="0.697825" y2="-0.22545" style="stroke:rgb(246,147,147);stroke-width:0.01" />
<line x1="0.650439" y1="-0.0520889" x2="0.369723" y2="0.167336" style="stroke:rgb(246,147,147);stroke-width:0.01" />
<line x1="0.895693" y1="0.495201" x2="0.5" y2="0.5" style="stroke:rgb(246,147,147);stroke-width:0.01" />
<line x1="0.895693" y1="0.495201" x2="0.314604" y2="0.660995" style="stroke:rgb(246,147,147);stroke-width:0.01" />
</g>
</svg>
