<svg xmlns="http://www.w3.org/2000/svg" viewBox="-1.5 -1.5 3 3">
<g transform="scale(1, -1)">
<path d="M0.073958 -0.491502 L0.216898 -0.464700 L0.341126 0.385851 L-0.239963 0.551645 L-0.392019 0.018707 z " fill="rgb(245,195,195)" />
<path d="M-0.554567 -0.109350 L0.445433 -0.109350 L0.445433 0.890650 L-0.554567 0.890650  z" fill="none" stroke="rgb(128,128,128)" stroke-width="0.01" />
<line x1="0.0739575" y1="-0.491502" x2="0.216898" y2="-0.4647" style="stroke:rgb(246,147,147);stroke-width:0.01" />
<line x1="0.131048" y1="-0.344056" x2="0.143258" y2="-0.3348" style="stroke:rgb(246,147,147);stroke-width:0.01" />
<line x1="0.133039" y1="-0.338915" x2="0.143258" y2="-0.3348" style="stroke:rgb(246,147,147);stroke-width:0.01" />
<line x1="0.0739575" y1="-0.491502" x2="0.133039" y2="-0.338915" style="stroke:rgb(246,147,147);stroke-width:0.01" />
<line x1="0.20397" y1="-0.362077" x2="-0.0634415" y2="-0.34106" style="stroke:rgb(246,147,147);stroke-width:0.01" />
<line x1="0.216898" y1="-0.4647" x2="0.341126" y2="0.385851" style="stroke:rgb(246,147,147);stroke-width:0.01" />
<line x1="-0.171576" y1="-0.176568" x2="0.0958718" y2="-0.161439" style="stroke:rgb(246,147,147);stroke-width:0.01" />
<line x1="0.19559" y1="-0.468696" x2="0.20397" y2="-0.362077" style="stroke:rgb(246,147,147);stroke-width:0.01" />
<line x1="-0.392019" y1="0.0187067" x2="-0.239963" y2="0.551645" style="stroke:rgb(246,147,147);stroke-width:0.01" />
<line x1="-0.0634415" y1="-0.34106" x2="-0.0545669" y2="0.39065" style="stroke:rgb(246,147,147);stroke-width:0.01" />
<line x1="-0.171576" y1="-0.176568" x2="-0.184844" y2="0.057986" style="stroke:rgb(246,147,147);stroke-width:0.01" />
<line x1="-0.392019" y1="0.0187067" x2="-0.184844" y2="0.057986" style="stroke:rgb(246,147,147);stroke-width:0.01" />
<line x1="0.15555" y1="-0.476203" x2="0.131048" y2="-0.344056" style="stroke:rgb(246,147,147);stroke-width:0.01" />
<line x1="0.15555" y1="-0.476203" x2="0.0958718" y2="-0.161439" style="stroke:rgb(246,147,147);stroke-width:0.01" />
<line x1="0.0739575" y1="-0.491502" x2="-0.392019" y2="0.0187067" style="stroke:rgb(246,147,147);stroke-width:0.01" />
<line x1="0.19559" y1="-0.468696" x2="0.133039" y2="-0.338915" style="stroke:rgb(246,147,147);stroke-width:0.01" />
<line x1="0.216898" y1="-0.4647" x2="0.143258" y2="-0.3348" style="stroke:rgb(246,147,147);stroke-width:0.01" />
<line x1="0.0958718" y1="-0.161439" x2="-0.184844" y2="0.057986" style="stroke:rgb(246,147,147);stroke-width:0.01" />
<line x1="0.341126" y1="0.385851" x2="-0.0545669" y2="0.39065" style="stroke:rgb(246,147,147);stroke-width:0.01" />
<line x1="0.341126" y1="0.385851" x2="-0.239963" y2="0.551645" style="stroke:rgb(246,147,147);stroke-width:0.01" />
</g>
</svg>
