<svg xmlns="http://www.w3.org/2000/svg" viewBox="-1.5 -1.5 3 3">
<g transform="scale(1, -1)">
<path d="M-0.058055 0.111756 L0.361025 0.174215 L0.365125 0.294371 L0.409161 0.345617 L0.146260 0.663022 L0.070240 0.650157 L-0.129207 0.471502 L-0.125903 0.395272 L-0.000821 0.400694 L0.012796 0.448498 L0.016322 0.449033 L0.051056 0.443670 L0.059517 0.428980 L0.026027 0.338621 L-0.014313 0.393513 L-0.089278 0.370660 L-0.166775 0.419791 L-0.223951 0.329605 z " fill="rgb(245,195,195)" />
<path d="M0.000000 0.000000 L1.000000 0.000000 L1.000000 1.000000 L0.000000 1.000000  z" fill="none" stroke="rgb(128,128,128)" stroke-width="0.01" />
<line x1="0.247313" y1="0.157268" x2="0.409161" y2="0.345617" style="stroke:rgb(246,147,147);stroke-width:0.01" />
<line x1="0.167995" y1="0.145446" x2="0.289208" y2="0.490438" style="stroke:rgb(246,147,147);stroke-width:0.01" />
<line x1="0.361025" y1="0.174215" x2="0.368547" y2="0.394651" style="stroke:rgb(246,147,147);stroke-width:0.01" />
<line x1="-0.125903" y1="0.395272" x2="-0.129207" y2="0.471502" style="stroke:rgb(246,147,147);stroke-width:0.01" />
<line x1="-0.0580554" y1="0.111756" x2="-0.223951" y2="0.329605" style="stroke:rgb(246,147,147);stroke-width:0.01" />
<line x1="-0.000821075" y1="0.400694" x2="0.0702402" y2="0.650157" style="stroke:rgb(246,147,147);stroke-width:0.01" />
<line x1="-0.092829" y1="0.432471" x2="-0.0764812" y2="0.518731" style="stroke:rgb(246,147,147);stroke-width:0.01" />
<line x1="-0.0580554" y1="0.111756" x2="0.14626" y2="0.663022" style="stroke:rgb(246,147,147);stroke-width:0.01" />
<line x1="-0.092829" y1="0.432471" x2="-0.118613" y2="0.480991" style="stroke:rgb(246,147,147);stroke-width:0.01" />
<line x1="0.182671" y1="0.215164" x2="0.409161" y2="0.345617" style="stroke:rgb(246,147,147);stroke-width:0.01" />
<line x1="-0.0580554" y1="0.111756" x2="0.361025" y2="0.174215" style="stroke:rgb(246,147,147);stroke-width:0.01" />
<line x1="0.361025" y1="0.174215" x2="0.296382" y2="0.362934" style="stroke:rgb(246,147,147);stroke-width:0.01" />
<line x1="0.167995" y1="0.145446" x2="-0.0143131" y2="0.393513" style="stroke:rgb(246,147,147);stroke-width:0.01" />
<line x1="-0.136434" y1="0.21468" x2="-0.0143131" y2="0.393513" style="stroke:rgb(246,147,147);stroke-width:0.01" />
<line x1="0.182671" y1="0.215164" x2="-0.0208697" y2="0.568545" style="stroke:rgb(246,147,147);stroke-width:0.01" />
<line x1="-0.223951" y1="0.329605" x2="-0.166775" y2="0.419791" style="stroke:rgb(246,147,147);stroke-width:0.01" />
<line x1="0.247313" y1="0.157268" x2="-0.166775" y2="0.419791" style="stroke:rgb(246,147,147);stroke-width:0.01" />
<line x1="-0.136434" y1="0.21468" x2="0.296382" y2="0.362934" style="stroke:rgb(246,147,147);stroke-width:0.01" />
<line x1="-0.000821075" y1="0.400694" x2="-0.118613" y2="0.480991" style="stroke:rgb(246,147,147);stroke-width:0.01" />
<line x1="-0.129207" y1="0.471502" x2="0.0702402" y2="0.650157" style="stroke:rgb(246,147,147);stroke-width:0.01" />
<line x1="0.409161" y1="0.345617" x2="0.14626" y2="0.663022" style="stroke:rgb(246,147,147);stroke-width:0.01" />
<line x1="0.0352723" y1="0.527401" x2="-0.0208697" y2="0.568545" style="stroke:rgb(246,147,147);stroke-width:0.01" />
<line x1="-0.223951" y1="0.329605" x2="-0.0143131" y2="0.393513" style="stroke:rgb(246,147,147);stroke-width:0.01" />
<line x1="-0.125903" y1="0.395272" x2="-0.000821075" y2="0.400694" style="stroke:rgb(246,147,147);stroke-width:0.01" />
<line x1="-0.092829" y1="0.432471" x2="0.289208" y2="0.490438" style="stroke:rgb(246,147,147);stroke-width:0.01" />
<line x1="0.368547" y1="0.394651" x2="-0.129207" y2="0.471502" style="stroke:rgb(246,147,147);stroke-width:0.01" />
<line x1="-0.0764812" y1="0.518731" x2="0.0352723" y2="0.527401" style="stroke:rgb(246,147,147);stroke-width:0.01" />
<line x1="0.0702402" y1="0.650157" x2="0.14626" y2="0.663022" style="stroke:rgb(246,147,147);stroke-width:0.01" />
</g>
</svg>
