<svg xmlns="http://www.w3.org/2000/svg" viewBox="-1.5 -1.5 3 3">
<g transform="scale(1, -1)">
<path d="M-0.097457 -0.284298 L0.321623 -0.221839 L0.325723 -0.101684 L0.369759 -0.050437 L0.106858 0.266968 L0.030839 0.254103 L-0.168609 0.075447 L-0.165304 -0.000782 L-0.040222 0.004640 L-0.026605 0.052444 L-0.023080 0.052979 L0.011655 0.047616 L0.020116 0.032926 L-0.013374 -0.057433 L-0.053714 -0.002542 L-0.128680 -0.025395 L-0.206176 0.023737 L-0.263352 -0.066449 z " fill="rgb(245,195,195)" />
<path d="M-0.039401 -0.396054 L0.960599 -0.396054 L0.960599 0.603946 L-0.039401 0.603946  z" fill="none" stroke="rgb(128,128,128)" stroke-width="0.01" />
<line x1="0.207911" y1="-0.238786" x2="0.369759" y2="-0.0504371" style="stroke:rgb(246,147,147);stroke-width:0.01" />
<line x1="0.128593" y1="-0.250608" x2="0.249807" y2="0.0943838" style="stroke:rgb(246,147,147);stroke-width:0.01" />
<line x1="0.321623" y1="-0.221839" x2="0.329145" y2="-0.00140326" style="stroke:rgb(246,147,147);stroke-width:0.01" />
<line x1="-0.165304" y1="-0.000781777" x2="-0.168609" y2="0.0754475" style="stroke:rgb(246,147,147);stroke-width:0.01" />
<line x1="-0.0974568" y1="-0.284298" x2="-0.263352" y2="-0.0664494" style="stroke:rgb(246,147,147);stroke-width:0.01" />
<line x1="-0.0402224" y1="0.00463973" x2="0.0308388" y2="0.254103" style="stroke:rgb(246,147,147);stroke-width:0.01" />
<line x1="-0.13223" y1="0.036417" x2="-0.115883" y2="0.122677" style="stroke:rgb(246,147,147);stroke-width:0.01" />
<line x1="-0.0974568" y1="-0.284298" x2="0.106858" y2="0.266968" style="stroke:rgb(246,147,147);stroke-width:0.01" />
<line x1="-0.13223" y1="0.036417" x2="-0.158015" y2="0.0849371" style="stroke:rgb(246,147,147);stroke-width:0.01" />
<line x1="0.14327" y1="-0.180891" x2="0.369759" y2="-0.0504371" style="stroke:rgb(246,147,147);stroke-width:0.01" />
<line x1="-0.0974568" y1="-0.284298" x2="0.321623" y2="-0.221839" style="stroke:rgb(246,147,147);stroke-width:0.01" />
<line x1="0.321623" y1="-0.221839" x2="0.25698" y2="-0.0331197" style="stroke:rgb(246,147,147);stroke-width:0.01" />
<line x1="0.128593" y1="-0.250608" x2="-0.0537145" y2="-0.00254162" style="stroke:rgb(246,147,147);stroke-width:0.01" />
<line x1="-0.175835" y1="-0.181374" x2="-0.0537145" y2="-0.00254162" style="stroke:rgb(246,147,147);stroke-width:0.01" />
<line x1="0.14327" y1="-0.180891" x2="-0.060271" y2="0.172491" style="stroke:rgb(246,147,147);stroke-width:0.01" />
<line x1="-0.263352" y1="-0.0664494" x2="-0.206176" y2="0.0237367" style="stroke:rgb(246,147,147);stroke-width:0.01" />
<line x1="0.207911" y1="-0.238786" x2="-0.206176" y2="0.0237367" style="stroke:rgb(246,147,147);stroke-width:0.01" />
<line x1="-0.175835" y1="-0.181374" x2="0.25698" y2="-0.0331197" style="stroke:rgb(246,147,147);stroke-width:0.01" />
<line x1="-0.0402224" y1="0.00463973" x2="-0.158015" y2="0.0849371" style="stroke:rgb(246,147,147);stroke-width:0.01" />
<line x1="-0.168609" y1="0.0754475" x2="0.0308388" y2="0.254103" style="stroke:rgb(246,147,147);stroke-width:0.01" />
<line x1="0.369759" y1="-0.0504371" x2="0.106858" y2="0.266968" style="stroke:rgb(246,147,147);stroke-width:0.01" />
<line x1="-0.00412903" y1="0.131347" x2="-0.060271" y2="0.172491" style="stroke:rgb(246,147,147);stroke-width:0.01" />
<line x1="-0.263352" y1="-0.0664494" x2="-0.0537145" y2="-0.00254162" style="stroke:rgb(246,147,147);stroke-width:0.01" />
<line x1="-0.165304" y1="-0.000781777" x2="-0.0402224" y2="0.00463973" style="stroke:rgb(246,147,147);stroke-width:0.01" />
<line x1="-0.13223" y1="0.036417" x2="0.249807" y2="0.0943838" style="stroke:rgb(246,147,147);stroke-width:0.01" />
<line x1="0.329145" y1="-0.00140326" x2="-0.168609" y2="0.0754475" style="stroke:rgb(246,147,147);stroke-width:0.01" />
<line x1="-0.115883" y1="0.122677" x2="-0.00412903" y2="0.131347" style="stroke:rgb(246,147,147);stroke-width:0.01" />
<line x1="0.0308388" y1="0.254103" x2="0.106858" y2="0.266968" style="stroke:rgb(246,147,147);stroke-width:0.01" />
</g>
</svg>
