<svg xmlns="http://www.w3.org/2000/svg" viewBox="-1.5 -1.5 3 3">
<g transform="scale(1, -1)">
<path d="M-0.303571 -0.303571 L-0.053571 -0.303571 L0.196429 -0.053571 L0.446429 -0.053571 L0.071429 0.321429 L-0.053571 0.196429 L-0.303571 0.196429 z " fill="rgb(245,195,195)" />
<path d="M-0.303571 -0.303571 L0.696429 -0.303571 L0.696429 0.696429 L-0.303571 0.696429  z" fill="none" stroke="rgb(128,128,128)" stroke-width="0.01" />
<line x1="-0.0535714" y1="-0.303571" x2="0.321429" y2="0.0714286" style="stroke:rgb(246,147,147);stroke-width:0.01" />
<line x1="-0.303571" y1="-0.303571" x2="-0.0535714" y2="-0.303571" style="stroke:rgb(246,147,147);stroke-width:0.01" />
<line x1="-0.303571" y1="-0.303571" x2="-0.303571" y2="0.196429" style="stroke:rgb(246,147,147);stroke-width:0.01" />
<line x1="-0.0535714" y1="-0.303571" x2="-0.0535714" y2="0.196429" style="stroke:rgb(246,147,147);stroke-width:0.01" />
<line x1="0.196429" y1="-0.0535714" x2="0.196429" y2="0.196429" style="stroke:rgb(246,147,147);stroke-width:0.01" />
<line x1="-0.303571" y1="-0.0535714" x2="0.0714286" y2="0.321429" style="stroke:rgb(246,147,147);stroke-width:0.01" />
<line x1="-0.303571" y1="-0.0535714" x2="0.446429" y2="-0.0535714" style="stroke:rgb(246,147,147);stroke-width:0.01" />
<line x1="-0.303571" y1="0.196429" x2="0.196429" y2="0.196429" style="stroke:rgb(246,147,147);stroke-width:0.01" />
<line x1="0.446429" y1="-0.0535714" x2="0.0714286" y2="0.321429" style="stroke:rgb(246,147,147);stroke-width:0.01" />
</g>
</svg>
