<svg xmlns="http://www.w3.org/2000/svg" viewBox="-1.5 -1.5 3 3">
<g transform="scale(1, -1)">
<path d="M-0.223440 -0.424076 L0.070085 -0.362083 L0.378794 0.111941 L0.082529 0.304885 L0.043940 0.245632 L-0.053901 0.224967 L-0.033237 0.127126 L-0.264769 -0.228392 z " fill="rgb(245,195,195)" />
<path d="M-3279982669.471379 -4045078409.632022 L-3279982668.471379 -4045078409.632022 L-3279982668.471379 -4045078408.632022 L-3279982669.471379 -4045078408.632022  z" fill="none" stroke="rgb(128,128,128)" stroke-width="0.01" />
<line x1="0.0700848" y1="-0.362083" x2="0.378794" y2="0.111941" style="stroke:rgb(246,147,147);stroke-width:0.01" />
<line x1="-0.264769" y1="-0.228392" x2="0.0825288" y2="0.304885" style="stroke:rgb(246,147,147);stroke-width:0.01" />
<line x1="-0.22344" y1="-0.424076" x2="-0.264769" y2="-0.228392" style="stroke:rgb(246,147,147);stroke-width:0.01" />
<line x1="-0.166927" y1="-0.207728" x2="-0.187592" y2="-0.109886" style="stroke:rgb(246,147,147);stroke-width:0.01" />
<line x1="0.0700848" y1="-0.362083" x2="-0.0539015" y2="0.224967" style="stroke:rgb(246,147,147);stroke-width:0.01" />
<line x1="0.224439" y1="-0.125071" x2="0.141782" y2="0.266296" style="stroke:rgb(246,147,147);stroke-width:0.01" />
<line x1="0.301617" y1="-0.00656453" x2="0.260288" y2="0.189119" style="stroke:rgb(246,147,147);stroke-width:0.01" />
<line x1="-0.22344" y1="-0.424076" x2="0.0700848" y2="-0.362083" style="stroke:rgb(246,147,147);stroke-width:0.01" />
<line x1="-0.264769" y1="-0.228392" x2="0.224439" y2="-0.125071" style="stroke:rgb(246,147,147);stroke-width:0.01" />
<line x1="-0.187592" y1="-0.109886" x2="0.301617" y2="-0.00656453" style="stroke:rgb(246,147,147);stroke-width:0.01" />
<line x1="-0.0332371" y1="0.127126" x2="0.260288" y2="0.189119" style="stroke:rgb(246,147,147);stroke-width:0.01" />
<line x1="-0.0539015" y1="0.224967" x2="0.141782" y2="0.266296" style="stroke:rgb(246,147,147);stroke-width:0.01" />
<line x1="0.378794" y1="0.111941" x2="0.0825288" y2="0.304885" style="stroke:rgb(246,147,147);stroke-width:0.01" />
</g>
</svg>
