<svg xmlns="http://www.w3.org/2000/svg" viewBox="-1.5 -1.5 3 3">
<g transform="scale(1, -1)">
<path d="M0.239910 -0.247432 L0.320991 -0.010945 L0.114314 0.293109 L-0.046833 0.300608 L-0.304326 0.018155 L-0.287158 -0.104657 L-0.008718 -0.065735 L-0.038310 -0.152042 z M0.000585 -0.038600 L-0.005404 0.004244 L0.014950 0.003297 z " fill="rgb(245,195,195)" />
<path d="M0.239910 -0.247432 L1.239910 -0.247432 L1.239910 0.752568 L0.239910 0.752568  z" fill="none" stroke="rgb(128,128,128)" stroke-width="0.01" />
<line x1="-0.287158" y1="-0.104657" x2="-0.304326" y2="0.0181548" style="stroke:rgb(246,147,147);stroke-width:0.01" />
<line x1="-0.228901" y1="-0.0965138" x2="-0.252827" y2="0.0746454" style="stroke:rgb(246,147,147);stroke-width:0.01" />
<line x1="0.00412719" y1="-0.0639389" x2="-0.0468325" y2="0.300608" style="stroke:rgb(246,147,147);stroke-width:0.01" />
<line x1="0.23991" y1="-0.247432" x2="0.23991" y2="-0.247432" style="stroke:rgb(246,147,147);stroke-width:0.01" />
<line x1="0.23991" y1="-0.247432" x2="-0.0383096" y2="-0.152042" style="stroke:rgb(246,147,147);stroke-width:0.01" />
<line x1="0.23991" y1="-0.247432" x2="0.320991" y2="-0.0109455" style="stroke:rgb(246,147,147);stroke-width:0.01" />
<line x1="0.23991" y1="-0.247432" x2="0.320991" y2="-0.0109455" style="stroke:rgb(246,147,147);stroke-width:0.01" />
<line x1="0.184266" y1="-0.228354" x2="0.279655" y2="0.0498653" style="stroke:rgb(246,147,147);stroke-width:0.01" />
<line x1="-0.0383096" y1="-0.152042" x2="0.114314" y2="0.293109" style="stroke:rgb(246,147,147);stroke-width:0.01" />
<line x1="0.320991" y1="-0.0109455" x2="0.114314" y2="0.293109" style="stroke:rgb(246,147,147);stroke-width:0.01" />
<line x1="-0.287158" y1="-0.104657" x2="0.00412719" y2="-0.0639389" style="stroke:rgb(246,147,147);stroke-width:0.01" />
<line x1="0.320991" y1="-0.0109455" x2="-0.304326" y2="0.0181548" style="stroke:rgb(246,147,147);stroke-width:0.01" />
<line x1="0.279655" y1="0.0498653" x2="-0.252827" y2="0.0746454" style="stroke:rgb(246,147,147);stroke-width:0.01" />
<line x1="-0.304326" y1="0.0181548" x2="-0.0468325" y2="0.300608" style="stroke:rgb(246,147,147);stroke-width:0.01" />
<line x1="0.114314" y1="0.293109" x2="-0.0468325" y2="0.300608" style="stroke:rgb(246,147,147);stroke-width:0.01" />
</g>
</svg>
