<svg xmlns="http://www.w3.org/2000/svg" viewBox="-1.5 -1.5 3 3">
<g transform="scale(1, -1)">
<path d="M0.211638 -0.486271 L0.303182 -0.253635 L0.465272 -0.183089 L0.394727 -0.020999 L0.486271 0.211638 L0.253635 0.303182 L0.183089 0.465272 L0.020999 0.394727 L-0.211638 0.486271 L-0.303182 0.253635 L-0.465272 0.183089 L-0.394727 0.020999 L-0.486271 -0.211638 L-0.253635 -0.303182 L-0.183089 -0.465272 L-0.020999 -0.394727 z " fill="rgb(245,195,195)" />
<path d="M-319386842284216680448.000000 -1683854384629032681472.000000 L-319386842284216680448.000000 -1683854384629032681472.000000 L-319386842284216680448.000000 -1683854384629032681472.000000 L-319386842284216680448.000000 -1683854384629032681472.000000  z" fill="none" stroke="rgb(128,128,128)" stroke-width="0.01" />
<line x1="0.211638" y1="-0.486271" x2="0.486271" y2="0.211638" style="stroke:rgb(246,147,147);stroke-width:0.01" />
<line x1="-0.183089" y1="-0.465272" x2="-0.137317" y2="-0.348954" style="stroke:rgb(246,147,147);stroke-width:0.01" />
<line x1="0.137317" y1="0.348954" x2="0.183089" y2="0.465272" style="stroke:rgb(246,147,147);stroke-width:0.01" />
<line x1="-0.486271" y1="-0.211638" x2="-0.211638" y2="0.486271" style="stroke:rgb(246,147,147);stroke-width:0.01" />
<line x1="-0.183089" y1="-0.465272" x2="-0.465272" y2="0.183089" style="stroke:rgb(246,147,147);stroke-width:0.01" />
<line x1="-0.137317" y1="-0.348954" x2="-0.348954" y2="0.137317" style="stroke:rgb(246,147,147);stroke-width:0.01" />
<line x1="0.348954" y1="-0.137317" x2="0.137317" y2="0.348954" style="stroke:rgb(246,147,147);stroke-width:0.01" />
<line x1="0.465272" y1="-0.183089" x2="0.183089" y2="0.465272" style="stroke:rgb(246,147,147);stroke-width:0.01" />
<line x1="-0.183089" y1="-0.465272" x2="0.465272" y2="-0.183089" style="stroke:rgb(246,147,147);stroke-width:0.01" />
<line x1="-0.137317" y1="-0.348954" x2="0.348954" y2="-0.137317" style="stroke:rgb(246,147,147);stroke-width:0.01" />
<line x1="-0.348954" y1="0.137317" x2="0.137317" y2="0.348954" style="stroke:rgb(246,147,147);stroke-width:0.01" />
<line x1="-0.465272" y1="0.183089" x2="0.183089" y2="0.465272" style="stroke:rgb(246,147,147);stroke-width:0.01" />
<line x1="0.211638" y1="-0.486271" x2="-0.486271" y2="-0.211638" style="stroke:rgb(246,147,147);stroke-width:0.01" />
<line x1="0.465272" y1="-0.183089" x2="0.348954" y2="-0.137317" style="stroke:rgb(246,147,147);stroke-width:0.01" />
<line x1="-0.348954" y1="0.137317" x2="-0.465272" y2="0.183089" style="stroke:rgb(246,147,147);stroke-width:0.01" />
<line x1="0.486271" y1="0.211638" x2="-0.211638" y2="0.486271" style="stroke:rgb(246,147,147);stroke-width:0.01" />
</g>
</svg>
