<svg xmlns="http://www.w3.org/2000/svg" viewBox="-1.5 -1.5 3 3">
<g transform="scale(1, -1)">
<path d="M-0.381739 -0.363221 L-0.271886 -0.084057 L0.100332 -0.230529 L0.246803 0.141689 L0.525967 0.031836 L0.441312 0.226344 L0.162148 0.336198 L-0.356541 0.110451 L-0.466394 -0.168712 z " fill="rgb(245,195,195)" />
<path d="M-319386842284216680448.000000 -1683854384629032681472.000000 L-319386842284216680448.000000 -1683854384629032681472.000000 L-319386842284216680448.000000 -1683854384629032681472.000000 L-319386842284216680448.000000 -1683854384629032681472.000000  z" fill="none" stroke="rgb(128,128,128)" stroke-width="0.01" />
<line x1="0.100332" y1="-0.230529" x2="0.30173" y2="0.281271" style="stroke:rgb(246,147,147);stroke-width:0.01" />
<line x1="-0.381739" y1="-0.363221" x2="-0.271886" y2="-0.0840573" style="stroke:rgb(246,147,147);stroke-width:0.01" />
<line x1="-0.466394" y1="-0.168712" x2="-0.356541" y2="0.110451" style="stroke:rgb(246,147,147);stroke-width:0.01" />
<line x1="-0.381739" y1="-0.363221" x2="-0.466394" y2="-0.168712" style="stroke:rgb(246,147,147);stroke-width:0.01" />
<line x1="-0.271886" y1="-0.0840573" x2="-0.356541" y2="0.110451" style="stroke:rgb(246,147,147);stroke-width:0.01" />
<line x1="0.246803" y1="0.141689" x2="0.162148" y2="0.336198" style="stroke:rgb(246,147,147);stroke-width:0.01" />
<line x1="0.525967" y1="0.031836" x2="0.441312" y2="0.226344" style="stroke:rgb(246,147,147);stroke-width:0.01" />
<line x1="-0.466394" y1="-0.168712" x2="0.441312" y2="0.226344" style="stroke:rgb(246,147,147);stroke-width:0.01" />
<line x1="-0.356541" y1="0.110451" x2="0.162148" y2="0.336198" style="stroke:rgb(246,147,147);stroke-width:0.01" />
<line x1="0.100332" y1="-0.230529" x2="-0.411468" y2="-0.0291306" style="stroke:rgb(246,147,147);stroke-width:0.01" />
<line x1="0.525967" y1="0.031836" x2="0.246803" y2="0.141689" style="stroke:rgb(246,147,147);stroke-width:0.01" />
<line x1="0.441312" y1="0.226344" x2="0.162148" y2="0.336198" style="stroke:rgb(246,147,147);stroke-width:0.01" />
</g>
</svg>
