<svg xmlns="http://www.w3.org/2000/svg" viewBox="-1.5 -1.5 3 3">
<g transform="scale(1, -1)">
<path d="M0.068823 -0.268877 L0.105441 -0.175822 L0.170277 -0.147604 L0.085622 0.046905 L0.158858 0.233014 L-0.027251 0.306249 L-0.351432 0.165158 L-0.210340 -0.159023 z " fill="rgb(245,195,195)" />
<path d="M-319386842284216680448.000000 -1683854384629032681472.000000 L-319386842284216680448.000000 -1683854384629032681472.000000 L-319386842284216680448.000000 -1683854384629032681472.000000 L-319386842284216680448.000000 -1683854384629032681472.000000  z" fill="none" stroke="rgb(128,128,128)" stroke-width="0.01" />
<line x1="0.0688235" y1="-0.268877" x2="0.142059" y2="-0.0827676" style="stroke:rgb(246,147,147);stroke-width:0.01" />
<line x1="-0.024231" y1="-0.232259" x2="0.158858" y2="0.233014" style="stroke:rgb(246,147,147);stroke-width:0.01" />
<line x1="-0.21034" y1="-0.159023" x2="-0.0272509" y2="0.306249" style="stroke:rgb(246,147,147);stroke-width:0.01" />
<line x1="-0.323213" y1="0.100321" x2="-0.286596" y2="0.193376" style="stroke:rgb(246,147,147);stroke-width:0.01" />
<line x1="-0.21034" y1="-0.159023" x2="-0.351432" y2="0.165158" style="stroke:rgb(246,147,147);stroke-width:0.01" />
<line x1="-0.024231" y1="-0.232259" x2="-0.0806677" y2="-0.102586" style="stroke:rgb(246,147,147);stroke-width:0.01" />
<line x1="0.170277" y1="-0.147604" x2="-0.0272509" y2="0.306249" style="stroke:rgb(246,147,147);stroke-width:0.01" />
<line x1="-0.024231" y1="-0.232259" x2="0.170277" y2="-0.147604" style="stroke:rgb(246,147,147);stroke-width:0.01" />
<line x1="-0.21034" y1="-0.159023" x2="-0.0806677" y2="-0.102586" style="stroke:rgb(246,147,147);stroke-width:0.01" />
<line x1="-0.351432" y1="0.165158" x2="-0.0272509" y2="0.306249" style="stroke:rgb(246,147,147);stroke-width:0.01" />
<line x1="0.0688235" y1="-0.268877" x2="-0.21034" y2="-0.159023" style="stroke:rgb(246,147,147);stroke-width:0.01" />
<line x1="0.142059" y1="-0.0827676" x2="-0.323213" y2="0.100321" style="stroke:rgb(246,147,147);stroke-width:0.01" />
<line x1="0.0856224" y1="0.0469047" x2="-0.286596" y2="0.193376" style="stroke:rgb(246,147,147);stroke-width:0.01" />
<line x1="0.158858" y1="0.233014" x2="-0.0272509" y2="0.306249" style="stroke:rgb(246,147,147);stroke-width:0.01" />
</g>
</svg>
