<svg xmlns="http://www.w3.org/2000/svg" viewBox="-1.5 -1.5 3 3">
<g transform="scale(1, -1)">
<path d="M0.230996 -0.420008 L0.340850 -0.140844 L0.115103 0.377845 L-0.209078 0.236753 L-0.180859 0.171917 L-0.217477 0.078863 L-0.124423 0.042245 L0.044887 -0.346772 z " fill="rgb(245,195,195)" />
<path d="M-319386842284216680448.000000 -1683854384629032681472.000000 L-319386842284216680448.000000 -1683854384629032681472.000000 L-319386842284216680448.000000 -1683854384629032681472.000000 L-319386842284216680448.000000 -1683854384629032681472.000000  z" fill="none" stroke="rgb(128,128,128)" stroke-width="0.01" />
<line x1="0.230996" y1="-0.420008" x2="0.34085" y2="-0.140844" style="stroke:rgb(246,147,147);stroke-width:0.01" />
<line x1="0.0448874" y1="-0.346772" x2="0.227976" y2="0.1185" style="stroke:rgb(246,147,147);stroke-width:0.01" />
<line x1="-0.0115493" y1="-0.2171" x2="0.17154" y2="0.248173" style="stroke:rgb(246,147,147);stroke-width:0.01" />
<line x1="-0.124423" y1="0.042245" x2="-0.0145692" y2="0.321408" style="stroke:rgb(246,147,147);stroke-width:0.01" />
<line x1="-0.217477" y1="0.0788628" x2="-0.144241" y2="0.264972" style="stroke:rgb(246,147,147);stroke-width:0.01" />
<line x1="0.0448874" y1="-0.346772" x2="-0.209078" y2="0.236753" style="stroke:rgb(246,147,147);stroke-width:0.01" />
<line x1="0.34085" y1="-0.140844" x2="0.115103" y2="0.377845" style="stroke:rgb(246,147,147);stroke-width:0.01" />
<line x1="-0.209078" y1="0.236753" x2="0.115103" y2="0.377845" style="stroke:rgb(246,147,147);stroke-width:0.01" />
<line x1="0.230996" y1="-0.420008" x2="0.0448874" y2="-0.346772" style="stroke:rgb(246,147,147);stroke-width:0.01" />
<line x1="0.0815052" y1="-0.253717" x2="-0.0115493" y2="-0.2171" style="stroke:rgb(246,147,147);stroke-width:0.01" />
<line x1="0.34085" y1="-0.140844" x2="-0.217477" y2="0.0788628" style="stroke:rgb(246,147,147);stroke-width:0.01" />
<line x1="0.227976" y1="0.1185" x2="-0.144241" y2="0.264972" style="stroke:rgb(246,147,147);stroke-width:0.01" />
<line x1="0.17154" y1="0.248173" x2="-0.0145692" y2="0.321408" style="stroke:rgb(246,147,147);stroke-width:0.01" />
</g>
</svg>
