<svg xmlns="http://www.w3.org/2000/svg" viewBox="-1.5 -1.5 3 3">
<g transform="scale(1, -1)">
<path d="M-0.160486 -0.168335 L-0.068283 -0.075612 L0.029992 -0.099597 L0.068893 -0.089156 L0.088240 -0.098674 L0.096578 -0.081725 L0.175280 -0.060601 L0.159973 0.047139 L0.263954 0.258500 L0.114823 0.364940 L-0.454910 0.018748 L-0.314054 -0.015629 z " fill="rgb(245,195,195)" />
<path d="M-0.929687 0.285811 L0.070313 0.285811 L0.070313 1.285811 L-0.929687 1.285811  z" fill="none" stroke="rgb(128,128,128)" stroke-width="0.01" />
<line x1="-0.160486" y1="-0.168335" x2="0.263954" y2="0.2585" style="stroke:rgb(246,147,147);stroke-width:0.01" />
<line x1="0.0299915" y1="-0.0995968" x2="0.17528" y2="-0.0606009" style="stroke:rgb(246,147,147);stroke-width:0.01" />
<line x1="0.0882403" y1="-0.0986735" x2="0.263954" y2="0.2585" style="stroke:rgb(246,147,147);stroke-width:0.01" />
<line x1="-0.369862" y1="-0.00200828" x2="-0.318816" y2="0.0493259" style="stroke:rgb(246,147,147);stroke-width:0.01" />
<line x1="-0.45491" y1="0.0187484" x2="0.114823" y2="0.36494" style="stroke:rgb(246,147,147);stroke-width:0.01" />
<line x1="-0.106649" y1="-0.0662482" x2="0.17528" y2="-0.0606009" style="stroke:rgb(246,147,147);stroke-width:0.01" />
<line x1="-0.321183" y1="-0.0138891" x2="-0.24126" y2="0.14857" style="stroke:rgb(246,147,147);stroke-width:0.01" />
<line x1="0.0437088" y1="0.0392812" x2="0.114823" y2="0.36494" style="stroke:rgb(246,147,147);stroke-width:0.01" />
<line x1="-0.332042" y1="-0.0112388" x2="-0.298233" y2="0.113951" style="stroke:rgb(246,147,147);stroke-width:0.01" />
<line x1="0.0299915" y1="-0.0995968" x2="-0.45491" y2="0.0187484" style="stroke:rgb(246,147,147);stroke-width:0.01" />
<line x1="-0.332042" y1="-0.0112388" x2="-0.318816" y2="0.0493259" style="stroke:rgb(246,147,147);stroke-width:0.01" />
<line x1="0.0437088" y1="0.0392812" x2="-0.298233" y2="0.113951" style="stroke:rgb(246,147,147);stroke-width:0.01" />
<line x1="-0.321183" y1="-0.0138891" x2="-0.318693" y2="0.101519" style="stroke:rgb(246,147,147);stroke-width:0.01" />
<line x1="-0.106649" y1="-0.0662482" x2="-0.318816" y2="0.0493259" style="stroke:rgb(246,147,147);stroke-width:0.01" />
<line x1="0.0882403" y1="-0.0986735" x2="-0.318693" y2="0.101519" style="stroke:rgb(246,147,147);stroke-width:0.01" />
<line x1="-0.369862" y1="-0.00200828" x2="-0.388939" y2="0.0588352" style="stroke:rgb(246,147,147);stroke-width:0.01" />
<line x1="0.17528" y1="-0.0606009" x2="0.114823" y2="0.36494" style="stroke:rgb(246,147,147);stroke-width:0.01" />
<line x1="-0.160486" y1="-0.168335" x2="-0.388939" y2="0.0588352" style="stroke:rgb(246,147,147);stroke-width:0.01" />
<line x1="0.0299915" y1="-0.0995968" x2="-0.24126" y2="0.14857" style="stroke:rgb(246,147,147);stroke-width:0.01" />
<line x1="0.263954" y1="0.2585" x2="0.114823" y2="0.36494" style="stroke:rgb(246,147,147);stroke-width:0.01" />
</g>
</svg>
