<svg xmlns="http://www.w3.org/2000/svg" viewBox="-1.5 -1.5 3 3">
<g transform="scale(1, -1)">
<path d="M0.769202 -0.454146 L0.861404 -0.361423 L0.959679 -0.385408 L0.998580 -0.374966 L1.017928 -0.384484 L1.026266 -0.367535 L1.104967 -0.346412 L1.089661 -0.238672 L1.193641 -0.027311 L1.044510 0.079130 L0.474777 -0.267062 L0.615633 -0.301440 z " fill="rgb(245,195,195)" />
<path d="M0.000000 0.000000 L1.000000 0.000000 L1.000000 1.000000 L0.000000 1.000000  z" fill="none" stroke="rgb(128,128,128)" stroke-width="0.01" />
<line x1="0.769202" y1="-0.454146" x2="1.19364" y2="-0.0273106" style="stroke:rgb(246,147,147);stroke-width:0.01" />
<line x1="0.959679" y1="-0.385408" x2="1.10497" y2="-0.346412" style="stroke:rgb(246,147,147);stroke-width:0.01" />
<line x1="1.01793" y1="-0.384484" x2="1.19364" y2="-0.0273106" style="stroke:rgb(246,147,147);stroke-width:0.01" />
<line x1="0.559825" y1="-0.287819" x2="0.610871" y2="-0.236485" style="stroke:rgb(246,147,147);stroke-width:0.01" />
<line x1="0.474777" y1="-0.267062" x2="1.04451" y2="0.0791296" style="stroke:rgb(246,147,147);stroke-width:0.01" />
<line x1="0.823038" y1="-0.352059" x2="1.10497" y2="-0.346412" style="stroke:rgb(246,147,147);stroke-width:0.01" />
<line x1="0.608505" y1="-0.2997" x2="0.688427" y2="-0.13724" style="stroke:rgb(246,147,147);stroke-width:0.01" />
<line x1="0.973396" y1="-0.24653" x2="1.04451" y2="0.0791296" style="stroke:rgb(246,147,147);stroke-width:0.01" />
<line x1="0.597645" y1="-0.29705" x2="0.631454" y2="-0.17186" style="stroke:rgb(246,147,147);stroke-width:0.01" />
<line x1="0.959679" y1="-0.385408" x2="0.474777" y2="-0.267062" style="stroke:rgb(246,147,147);stroke-width:0.01" />
<line x1="0.597645" y1="-0.29705" x2="0.610871" y2="-0.236485" style="stroke:rgb(246,147,147);stroke-width:0.01" />
<line x1="0.973396" y1="-0.24653" x2="0.631454" y2="-0.17186" style="stroke:rgb(246,147,147);stroke-width:0.01" />
<line x1="0.608505" y1="-0.2997" x2="0.610994" y2="-0.184292" style="stroke:rgb(246,147,147);stroke-width:0.01" />
<line x1="0.823038" y1="-0.352059" x2="0.610871" y2="-0.236485" style="stroke:rgb(246,147,147);stroke-width:0.01" />
<line x1="1.01793" y1="-0.384484" x2="0.610994" y2="-0.184292" style="stroke:rgb(246,147,147);stroke-width:0.01" />
<line x1="0.559825" y1="-0.287819" x2="0.540749" y2="-0.226976" style="stroke:rgb(246,147,147);stroke-width:0.01" />
<line x1="1.10497" y1="-0.346412" x2="1.04451" y2="0.0791296" style="stroke:rgb(246,147,147);stroke-width:0.01" />
<line x1="0.769202" y1="-0.454146" x2="0.540749" y2="-0.226976" style="stroke:rgb(246,147,147);stroke-width:0.01" />
<line x1="0.959679" y1="-0.385408" x2="0.688427" y2="-0.13724" style="stroke:rgb(246,147,147);stroke-width:0.01" />
<line x1="1.19364" y1="-0.0273106" x2="1.04451" y2="0.0791296" style="stroke:rgb(246,147,147);stroke-width:0.01" />
</g>
</svg>
