<svg xmlns="http://www.w3.org/2000/svg" viewBox="-1.5 -1.5 3 3">
<g transform="scale(1, -1)">
<path d="M-0.059325 -0.311862 L0.114695 -0.306838 L0.132694 -0.237772 L0.236100 -0.213325 L0.255616 0.164306 L0.265435 0.171965 L0.264893 0.202933 L0.258166 0.213645 L-0.325763 0.061693 L-0.365842 0.111515 L-0.379318 0.100675 L-0.397350 0.043065 z " fill="rgb(245,195,195)" />
<path d="M-0.896356 0.267021 L0.103644 0.267021 L0.103644 1.267021 L-0.896356 1.267021  z" fill="none" stroke="rgb(128,128,128)" stroke-width="0.01" />
<line x1="-0.00719274" y1="-0.270845" x2="0.2361" y2="-0.213325" style="stroke:rgb(246,147,147);stroke-width:0.01" />
<line x1="-0.185285" y1="-0.179605" x2="0.265435" y2="0.171965" style="stroke:rgb(246,147,147);stroke-width:0.01" />
<line x1="0.252407" y1="0.181414" x2="0.265023" y2="0.195537" style="stroke:rgb(246,147,147);stroke-width:0.01" />
<line x1="-0.0593253" y1="-0.311862" x2="0.114695" y2="-0.306838" style="stroke:rgb(246,147,147);stroke-width:0.01" />
<line x1="-0.185285" y1="-0.179605" x2="-0.157548" y2="-0.147414" style="stroke:rgb(246,147,147);stroke-width:0.01" />
<line x1="0.252407" y1="0.181414" x2="0.264893" y2="0.202933" style="stroke:rgb(246,147,147);stroke-width:0.01" />
<line x1="-0.34197" y1="-0.0150847" x2="-0.327729" y2="-0.00748924" style="stroke:rgb(246,147,147);stroke-width:0.01" />
<line x1="-0.379318" y1="0.100675" x2="-0.365842" y2="0.111515" style="stroke:rgb(246,147,147);stroke-width:0.01" />
<line x1="-0.39735" y1="0.0430646" x2="0.258166" y2="0.213645" style="stroke:rgb(246,147,147);stroke-width:0.01" />
<line x1="-0.34197" y1="-0.0150847" x2="-0.290613" y2="0.0708403" style="stroke:rgb(246,147,147);stroke-width:0.01" />
<line x1="0.114695" y1="-0.306838" x2="0.249766" y2="0.211459" style="stroke:rgb(246,147,147);stroke-width:0.01" />
<line x1="-0.0372816" y1="-0.0284775" x2="-0.352573" y2="-0.00395185" style="stroke:rgb(246,147,147);stroke-width:0.01" />
<line x1="-0.39735" y1="0.0430646" x2="-0.379318" y2="0.100675" style="stroke:rgb(246,147,147);stroke-width:0.01" />
<line x1="0.2361" y1="-0.213325" x2="-0.34664" y2="-0.010181" style="stroke:rgb(246,147,147);stroke-width:0.01" />
<line x1="-0.0593253" y1="-0.311862" x2="-0.0372816" y2="-0.0284775" style="stroke:rgb(246,147,147);stroke-width:0.01" />
<line x1="0.2361" y1="-0.213325" x2="0.258166" y2="0.213645" style="stroke:rgb(246,147,147);stroke-width:0.01" />
<line x1="-0.157548" y1="-0.147414" x2="-0.289309" y2="-0.0703791" style="stroke:rgb(246,147,147);stroke-width:0.01" />
<line x1="-0.352573" y1="-0.00395185" x2="-0.354254" y2="0.0542793" style="stroke:rgb(246,147,147);stroke-width:0.01" />
<line x1="0.265435" y1="0.171965" x2="0.264893" y2="0.202933" style="stroke:rgb(246,147,147);stroke-width:0.01" />
<line x1="0.114695" y1="-0.306838" x2="-0.300397" y2="-0.058737" style="stroke:rgb(246,147,147);stroke-width:0.01" />
<line x1="-0.045413" y1="-0.0705022" x2="-0.290613" y2="0.0708403" style="stroke:rgb(246,147,147);stroke-width:0.01" />
<line x1="-0.34664" y1="-0.010181" x2="-0.379318" y2="0.100675" style="stroke:rgb(246,147,147);stroke-width:0.01" />
<line x1="-0.0593253" y1="-0.311862" x2="-0.39735" y2="0.0430646" style="stroke:rgb(246,147,147);stroke-width:0.01" />
<line x1="-0.00719274" y1="-0.270845" x2="-0.0997195" y2="0.120515" style="stroke:rgb(246,147,147);stroke-width:0.01" />
<line x1="-0.300397" y1="-0.058737" x2="-0.327729" y2="-0.00748924" style="stroke:rgb(246,147,147);stroke-width:0.01" />
<line x1="-0.289309" y1="-0.0703791" x2="-0.354254" y2="0.0542793" style="stroke:rgb(246,147,147);stroke-width:0.01" />
<line x1="-0.157548" y1="-0.147414" x2="-0.365842" y2="0.111515" style="stroke:rgb(246,147,147);stroke-width:0.01" />
<line x1="-0.045413" y1="-0.0705022" x2="-0.0997195" y2="0.120515" style="stroke:rgb(246,147,147);stroke-width:0.01" />
<line x1="0.265435" y1="0.171965" x2="0.252407" y2="0.181414" style="stroke:rgb(246,147,147);stroke-width:0.01" />
<line x1="0.264893" y1="0.202933" x2="0.258166" y2="0.213645" style="stroke:rgb(246,147,147);stroke-width:0.01" />
<line x1="0.265023" y1="0.195537" x2="0.249766" y2="0.211459" style="stroke:rgb(246,147,147);stroke-width:0.01" />
</g>
</svg>
