<svg xmlns="http://www.w3.org/2000/svg" viewBox="-1.5 -1.5 3 3">
<g transform="scale(1, -1)">
<path d="M0.837031 -0.578882 L1.011051 -0.573859 L1.029050 -0.504793 L1.132456 -0.480345 L1.151972 -0.102715 L1.161792 -0.095055 L1.161249 -0.064088 L1.154522 -0.053376 L0.570593 -0.205327 L0.530514 -0.155505 L0.517038 -0.166346 L0.499006 -0.223956 z " fill="rgb(245,195,195)" />
<path d="M0.000000 0.000000 L1.000000 0.000000 L1.000000 1.000000 L0.000000 1.000000  z" fill="none" stroke="rgb(128,128,128)" stroke-width="0.01" />
<line x1="0.889163" y1="-0.537865" x2="1.13246" y2="-0.480345" style="stroke:rgb(246,147,147);stroke-width:0.01" />
<line x1="0.711072" y1="-0.446625" x2="1.16179" y2="-0.0950553" style="stroke:rgb(246,147,147);stroke-width:0.01" />
<line x1="1.14876" y1="-0.085607" x2="1.16138" y2="-0.0714831" style="stroke:rgb(246,147,147);stroke-width:0.01" />
<line x1="0.837031" y1="-0.578882" x2="1.01105" y2="-0.573859" style="stroke:rgb(246,147,147);stroke-width:0.01" />
<line x1="0.711072" y1="-0.446625" x2="0.738808" y2="-0.414435" style="stroke:rgb(246,147,147);stroke-width:0.01" />
<line x1="1.14876" y1="-0.085607" x2="1.16125" y2="-0.0640877" style="stroke:rgb(246,147,147);stroke-width:0.01" />
<line x1="0.554386" y1="-0.282105" x2="0.568627" y2="-0.27451" style="stroke:rgb(246,147,147);stroke-width:0.01" />
<line x1="0.517038" y1="-0.166346" x2="0.530514" y2="-0.155505" style="stroke:rgb(246,147,147);stroke-width:0.01" />
<line x1="0.499006" y1="-0.223956" x2="1.15452" y2="-0.0533756" style="stroke:rgb(246,147,147);stroke-width:0.01" />
<line x1="0.554386" y1="-0.282105" x2="0.605743" y2="-0.19618" style="stroke:rgb(246,147,147);stroke-width:0.01" />
<line x1="1.01105" y1="-0.573859" x2="1.14612" y2="-0.0555615" style="stroke:rgb(246,147,147);stroke-width:0.01" />
<line x1="0.859075" y1="-0.295498" x2="0.543783" y2="-0.270972" style="stroke:rgb(246,147,147);stroke-width:0.01" />
<line x1="0.499006" y1="-0.223956" x2="0.517038" y2="-0.166346" style="stroke:rgb(246,147,147);stroke-width:0.01" />
<line x1="1.13246" y1="-0.480345" x2="0.549716" y2="-0.277202" style="stroke:rgb(246,147,147);stroke-width:0.01" />
<line x1="0.837031" y1="-0.578882" x2="0.859075" y2="-0.295498" style="stroke:rgb(246,147,147);stroke-width:0.01" />
<line x1="1.13246" y1="-0.480345" x2="1.15452" y2="-0.0533756" style="stroke:rgb(246,147,147);stroke-width:0.01" />
<line x1="0.738808" y1="-0.414435" x2="0.607047" y2="-0.3374" style="stroke:rgb(246,147,147);stroke-width:0.01" />
<line x1="0.543783" y1="-0.270972" x2="0.542102" y2="-0.212741" style="stroke:rgb(246,147,147);stroke-width:0.01" />
<line x1="1.16179" y1="-0.0950553" x2="1.16125" y2="-0.0640877" style="stroke:rgb(246,147,147);stroke-width:0.01" />
<line x1="1.01105" y1="-0.573859" x2="0.59596" y2="-0.325758" style="stroke:rgb(246,147,147);stroke-width:0.01" />
<line x1="0.850943" y1="-0.337523" x2="0.605743" y2="-0.19618" style="stroke:rgb(246,147,147);stroke-width:0.01" />
<line x1="0.549716" y1="-0.277202" x2="0.517038" y2="-0.166346" style="stroke:rgb(246,147,147);stroke-width:0.01" />
<line x1="0.837031" y1="-0.578882" x2="0.499006" y2="-0.223956" style="stroke:rgb(246,147,147);stroke-width:0.01" />
<line x1="0.889163" y1="-0.537865" x2="0.796637" y2="-0.146506" style="stroke:rgb(246,147,147);stroke-width:0.01" />
<line x1="0.59596" y1="-0.325758" x2="0.568627" y2="-0.27451" style="stroke:rgb(246,147,147);stroke-width:0.01" />
<line x1="0.607047" y1="-0.3374" x2="0.542102" y2="-0.212741" style="stroke:rgb(246,147,147);stroke-width:0.01" />
<line x1="0.738808" y1="-0.414435" x2="0.530514" y2="-0.155505" style="stroke:rgb(246,147,147);stroke-width:0.01" />
<line x1="0.850943" y1="-0.337523" x2="0.796637" y2="-0.146506" style="stroke:rgb(246,147,147);stroke-width:0.01" />
<line x1="1.16179" y1="-0.0950553" x2="1.14876" y2="-0.085607" style="stroke:rgb(246,147,147);stroke-width:0.01" />
<line x1="1.16125" y1="-0.0640877" x2="1.15452" y2="-0.0533756" style="stroke:rgb(246,147,147);stroke-width:0.01" />
<line x1="1.16138" y1="-0.0714831" x2="1.14612" y2="-0.0555615" style="stroke:rgb(246,147,147);stroke-width:0.01" />
</g>
</svg>
