<svg xmlns="http://www.w3.org/2000/svg" viewBox="-1.5 -1.5 3 3">
<g transform="scale(1, -1)">
<path d="M-0.320837 -0.308037 L0.120252 -0.218928 L0.113668 -0.153081 L0.345482 0.198503 L0.234706 0.175761 L0.262560 0.242611 L0.081552 0.168078 L0.070252 0.281072 L-0.129748 0.081072 L-0.113379 0.056520 L-0.377379 -0.266309 L-0.287129 -0.257262 z " fill="rgb(245,195,195)" />
<path d="M-0.429748 -0.218928 L0.570252 -0.218928 L0.570252 0.781072 L-0.429748 0.781072  z" fill="none" stroke="rgb(128,128,128)" stroke-width="0.01" />
<line x1="0.0702523" y1="-0.218928" x2="0.345482" y2="0.198503" style="stroke:rgb(246,147,147);stroke-width:0.01" />
<line x1="0.0702523" y1="-0.218928" x2="0.26256" y2="0.242611" style="stroke:rgb(246,147,147);stroke-width:0.01" />
<line x1="-0.320837" y1="-0.308037" x2="0.120252" y2="-0.218928" style="stroke:rgb(246,147,147);stroke-width:0.01" />
<line x1="-0.320837" y1="-0.308037" x2="0.0702523" y2="0.281072" style="stroke:rgb(246,147,147);stroke-width:0.01" />
<line x1="-0.377379" y1="-0.266309" x2="0.0952523" y2="-0.218928" style="stroke:rgb(246,147,147);stroke-width:0.01" />
<line x1="-0.377379" y1="-0.266309" x2="0.0702523" y2="0.281072" style="stroke:rgb(246,147,147);stroke-width:0.01" />
<line x1="0.0702523" y1="-0.218928" x2="0.120252" y2="-0.218928" style="stroke:rgb(246,147,147);stroke-width:0.01" />
<line x1="-0.129748" y1="0.0810721" x2="0.0702523" y2="0.281072" style="stroke:rgb(246,147,147);stroke-width:0.01" />
<line x1="0.0702523" y1="-0.218928" x2="0.0702523" y2="0.281072" style="stroke:rgb(246,147,147);stroke-width:0.01" />
<line x1="0.0952523" y1="-0.218928" x2="0.0702523" y2="0.281072" style="stroke:rgb(246,147,147);stroke-width:0.01" />
<line x1="0.120252" y1="-0.218928" x2="0.0702523" y2="0.281072" style="stroke:rgb(246,147,147);stroke-width:0.01" />
<line x1="-0.129748" y1="0.0810721" x2="0.26256" y2="0.242611" style="stroke:rgb(246,147,147);stroke-width:0.01" />
<line x1="0.0702523" y1="-0.218928" x2="-0.104748" y2="0.106072" style="stroke:rgb(246,147,147);stroke-width:0.01" />
<line x1="0.0702523" y1="-0.218928" x2="-0.129748" y2="0.0810721" style="stroke:rgb(246,147,147);stroke-width:0.01" />
<line x1="-0.104748" y1="0.106072" x2="0.345482" y2="0.198503" style="stroke:rgb(246,147,147);stroke-width:0.01" />
</g>
</svg>
