<svg xmlns="http://www.w3.org/2000/svg" viewBox="-1.5 -1.5 3 3">
<g transform="scale(1, -1)">
<path d="M1.207084 -0.034194 L1.273161 -0.025345 L1.272568 -0.016459 L1.272841 -0.016422 L1.272244 -0.007463 L1.272517 -0.007426 L1.271915 0.001606 L1.272188 0.001643 L1.271581 0.010748 L1.271854 0.010785 L1.271242 0.019963 L1.271515 0.020000 L1.255195 0.264805 L1.020000 0.500000 L1.000000 0.500000 L0.795455 0.295455 L0.815152 0.000000 L1.000000 0.000000 L1.000000 0.281818 L1.020000 0.280485 L1.020000 0.020000 L1.202094 0.020000 L1.202708 0.010785 L1.202983 0.010785 L1.203593 0.001643 L1.203868 0.001643 L1.204473 -0.007426 L1.204749 -0.007426 L1.205348 -0.016422 L1.205624 -0.016422 L1.206536 -0.030099 z " fill="rgb(245,195,195)" />
<path d="M0.000000 0.000000 L1.000000 0.000000 L1.000000 1.000000 L0.000000 1.000000  z" fill="none" stroke="rgb(128,128,128)" stroke-width="0.01" />
<line x1="0.795455" y1="0.295455" x2="1" y2="0.5" style="stroke:rgb(246,147,147);stroke-width:0.01" />
<line x1="1.20708" y1="-0.0341944" x2="1.27316" y2="-0.0253448" style="stroke:rgb(246,147,147);stroke-width:0.01" />
<line x1="1.20622" y1="-0.0253448" x2="1.27284" y2="-0.0164221" style="stroke:rgb(246,147,147);stroke-width:0.01" />
<line x1="1.20535" y1="-0.0164221" x2="1.27252" y2="-0.00742631" style="stroke:rgb(246,147,147);stroke-width:0.01" />
<line x1="1.20447" y1="-0.00742631" x2="1.27219" y2="0.00164265" style="stroke:rgb(246,147,147);stroke-width:0.01" />
<line x1="1.20359" y1="0.00164265" x2="1.27185" y2="0.0107848" style="stroke:rgb(246,147,147);stroke-width:0.01" />
<line x1="1.20271" y1="0.0107848" x2="1.27152" y2="0.02" style="stroke:rgb(246,147,147);stroke-width:0.01" />
<line x1="0.815152" y1="0" x2="0.883959" y2="0.00921524" style="stroke:rgb(246,147,147);stroke-width:0.01" />
<line x1="0.814813" y1="0.00921524" x2="0.883074" y2="0.0183573" style="stroke:rgb(246,147,147);stroke-width:0.01" />
<line x1="0.814479" y1="0.0183573" x2="0.882194" y2="0.0274263" style="stroke:rgb(246,147,147);stroke-width:0.01" />
<line x1="0.81415" y1="0.0274263" x2="0.881318" y2="0.0364221" style="stroke:rgb(246,147,147);stroke-width:0.01" />
<line x1="0.813825" y1="0.0364221" x2="0.880448" y2="0.0453448" style="stroke:rgb(246,147,147);stroke-width:0.01" />
<line x1="0.813506" y1="0.0453448" x2="0.879856" y2="0.054231" style="stroke:rgb(246,147,147);stroke-width:0.01" />
<line x1="1.20622" y1="-0.0253448" x2="1.27316" y2="-0.0253448" style="stroke:rgb(246,147,147);stroke-width:0.01" />
<line x1="1.20535" y1="-0.0164221" x2="1.27284" y2="-0.0164221" style="stroke:rgb(246,147,147);stroke-width:0.01" />
<line x1="1.20447" y1="-0.00742631" x2="1.27252" y2="-0.00742631" style="stroke:rgb(246,147,147);stroke-width:0.01" />
<line x1="0.815152" y1="0" x2="1" y2="0" style="stroke:rgb(246,147,147);stroke-width:0.01" />
<line x1="0.813464" y1="0.054231" x2="0.813464" y2="0.313464" style="stroke:rgb(246,147,147);stroke-width:0.01" />
<line x1="1" y1="0" x2="1" y2="0.5" style="stroke:rgb(246,147,147);stroke-width:0.01" />
<line x1="1.02" y1="0.02" x2="1.02" y2="0.5" style="stroke:rgb(246,147,147);stroke-width:0.01" />
<line x1="1.20654" y1="-0.0300987" x2="1.20654" y2="0.313464" style="stroke:rgb(246,147,147);stroke-width:0.01" />
<line x1="1.20359" y1="0.00164265" x2="1.27219" y2="0.00164265" style="stroke:rgb(246,147,147);stroke-width:0.01" />
<line x1="0.814813" y1="0.00921524" x2="0.883959" y2="0.00921524" style="stroke:rgb(246,147,147);stroke-width:0.01" />
<line x1="1.20271" y1="0.0107848" x2="1.27185" y2="0.0107848" style="stroke:rgb(246,147,147);stroke-width:0.01" />
<line x1="0.814479" y1="0.0183573" x2="0.883074" y2="0.0183573" style="stroke:rgb(246,147,147);stroke-width:0.01" />
<line x1="1.02" y1="0.02" x2="1.27152" y2="0.02" style="stroke:rgb(246,147,147);stroke-width:0.01" />
<line x1="0.81415" y1="0.0274263" x2="0.882194" y2="0.0274263" style="stroke:rgb(246,147,147);stroke-width:0.01" />
<line x1="0.813825" y1="0.0364221" x2="0.881318" y2="0.0364221" style="stroke:rgb(246,147,147);stroke-width:0.01" />
<line x1="0.813506" y1="0.0453448" x2="0.880448" y2="0.0453448" style="stroke:rgb(246,147,147);stroke-width:0.01" />
<line x1="0.815152" y1="0" x2="0.795455" y2="0.295455" style="stroke:rgb(246,147,147);stroke-width:0.01" />
<line x1="0.814813" y1="0.00921524" x2="0.795713" y2="0.295713" style="stroke:rgb(246,147,147);stroke-width:0.01" />
<line x1="0.814479" y1="0.0183573" x2="0.795971" y2="0.295971" style="stroke:rgb(246,147,147);stroke-width:0.01" />
<line x1="0.81415" y1="0.0274263" x2="0.796229" y2="0.296229" style="stroke:rgb(246,147,147);stroke-width:0.01" />
<line x1="0.813825" y1="0.0364221" x2="0.796488" y2="0.296488" style="stroke:rgb(246,147,147);stroke-width:0.01" />
<line x1="0.813506" y1="0.0453448" x2="0.796746" y2="0.296746" style="stroke:rgb(246,147,147);stroke-width:0.01" />
<line x1="0.813464" y1="0.054231" x2="0.879856" y2="0.054231" style="stroke:rgb(246,147,147);stroke-width:0.01" />
<line x1="0.880448" y1="0.0453448" x2="0.859504" y2="0.359504" style="stroke:rgb(246,147,147);stroke-width:0.01" />
<line x1="0.881318" y1="0.0364221" x2="0.859762" y2="0.359762" style="stroke:rgb(246,147,147);stroke-width:0.01" />
<line x1="0.882194" y1="0.0274263" x2="0.860021" y2="0.360021" style="stroke:rgb(246,147,147);stroke-width:0.01" />
<line x1="0.883074" y1="0.0183573" x2="0.860279" y2="0.360279" style="stroke:rgb(246,147,147);stroke-width:0.01" />
<line x1="0.883959" y1="0.00921524" x2="0.860537" y2="0.360537" style="stroke:rgb(246,147,147);stroke-width:0.01" />
<line x1="1.20271" y1="0.0107848" x2="1.18081" y2="0.339185" style="stroke:rgb(246,147,147);stroke-width:0.01" />
<line x1="1.20359" y1="0.00164265" x2="1.18111" y2="0.33889" style="stroke:rgb(246,147,147);stroke-width:0.01" />
<line x1="1.20447" y1="-0.00742631" x2="1.1814" y2="0.338595" style="stroke:rgb(246,147,147);stroke-width:0.01" />
<line x1="1.20535" y1="-0.0164221" x2="1.1817" y2="0.3383" style="stroke:rgb(246,147,147);stroke-width:0.01" />
<line x1="1.20654" y1="-0.0300987" x2="1.182" y2="0.338005" style="stroke:rgb(246,147,147);stroke-width:0.01" />
<line x1="1.27316" y1="-0.0253448" x2="1.25372" y2="0.266281" style="stroke:rgb(246,147,147);stroke-width:0.01" />
<line x1="1.27284" y1="-0.0164221" x2="1.25401" y2="0.265986" style="stroke:rgb(246,147,147);stroke-width:0.01" />
<line x1="1.27252" y1="-0.00742631" x2="1.25431" y2="0.265691" style="stroke:rgb(246,147,147);stroke-width:0.01" />
<line x1="1.27219" y1="0.00164265" x2="1.2546" y2="0.265396" style="stroke:rgb(246,147,147);stroke-width:0.01" />
<line x1="1.27185" y1="0.0107848" x2="1.2549" y2="0.2651" style="stroke:rgb(246,147,147);stroke-width:0.01" />
<line x1="1.27152" y1="0.02" x2="1.25519" y2="0.264805" style="stroke:rgb(246,147,147);stroke-width:0.01" />
<line x1="1.20708" y1="-0.0341944" x2="1.20654" y2="-0.0300987" style="stroke:rgb(246,147,147);stroke-width:0.01" />
<line x1="0.813464" y1="0.313464" x2="1.20654" y2="0.313464" style="stroke:rgb(246,147,147);stroke-width:0.01" />
<line x1="1.25519" y1="0.264805" x2="0.795455" y2="0.295455" style="stroke:rgb(246,147,147);stroke-width:0.01" />
<line x1="1.2549" y1="0.2651" x2="0.795713" y2="0.295713" style="stroke:rgb(246,147,147);stroke-width:0.01" />
<line x1="1.2546" y1="0.265396" x2="0.795971" y2="0.295971" style="stroke:rgb(246,147,147);stroke-width:0.01" />
<line x1="1.25431" y1="0.265691" x2="0.796229" y2="0.296229" style="stroke:rgb(246,147,147);stroke-width:0.01" />
<line x1="1.25401" y1="0.265986" x2="0.796488" y2="0.296488" style="stroke:rgb(246,147,147);stroke-width:0.01" />
<line x1="1.25372" y1="0.266281" x2="0.796746" y2="0.296746" style="stroke:rgb(246,147,147);stroke-width:0.01" />
<line x1="1.182" y1="0.338005" x2="0.859504" y2="0.359504" style="stroke:rgb(246,147,147);stroke-width:0.01" />
<line x1="1.1817" y1="0.3383" x2="0.859762" y2="0.359762" style="stroke:rgb(246,147,147);stroke-width:0.01" />
<line x1="1.1814" y1="0.338595" x2="0.860021" y2="0.360021" style="stroke:rgb(246,147,147);stroke-width:0.01" />
<line x1="1.18111" y1="0.33889" x2="0.860279" y2="0.360279" style="stroke:rgb(246,147,147);stroke-width:0.01" />
<line x1="1.18081" y1="0.339185" x2="0.860537" y2="0.360537" style="stroke:rgb(246,147,147);stroke-width:0.01" />
<line x1="1" y1="0.5" x2="1.02" y2="0.5" style="stroke:rgb(246,147,147);stroke-width:0.01" />
<line x1="1.25519" y1="0.264805" x2="1.02" y2="0.5" style="stroke:rgb(246,147,147);stroke-width:0.01" />
</g>
</svg>
