<svg xmlns="http://www.w3.org/2000/svg" viewBox="-1.5 -1.5 3 3">
<g transform="scale(1, -1)">
<path d="M0.459002 0.250218 L0.502221 0.251068 L0.545448 0.251225 L0.544764 0.251905 L0.691390 0.254789 L0.791183 0.506800 L0.710471 0.585653 L0.286235 0.580712 L0.207382 0.500000 L0.313017 0.250382 L0.459671 0.250914 z M0.501714 0.294643 L0.427876 0.367947 L0.465059 0.406006 L0.500824 0.371065 L0.535765 0.406830 L0.573824 0.369647 z " fill="rgb(245,195,195)" />
<path d="M0.000000 0.000000 L1.000000 0.000000 L1.000000 1.000000 L0.000000 1.000000  z" fill="none" stroke="rgb(128,128,128)" stroke-width="0.01" />
<line x1="0.69139" y1="0.254789" x2="0.791183" y2="0.5068" style="stroke:rgb(246,147,147);stroke-width:0.01" />
<line x1="0.459002" y1="0.250218" x2="0.747096" y2="0.549872" style="stroke:rgb(246,147,147);stroke-width:0.01" />
<line x1="0.641412" y1="0.443418" x2="0.747096" y2="0.549872" style="stroke:rgb(246,147,147);stroke-width:0.01" />
<line x1="0.500824" y1="0.371065" x2="0.710471" y2="0.585653" style="stroke:rgb(246,147,147);stroke-width:0.01" />
<line x1="0.313017" y1="0.250382" x2="0.639765" y2="0.58483" style="stroke:rgb(246,147,147);stroke-width:0.01" />
<line x1="0.322" y1="0.545771" x2="0.356941" y2="0.581536" style="stroke:rgb(246,147,147);stroke-width:0.01" />
<line x1="0.207382" y1="0.5" x2="0.286235" y2="0.580712" style="stroke:rgb(246,147,147);stroke-width:0.01" />
<line x1="0.641412" y1="0.443418" x2="0.791183" y2="0.5068" style="stroke:rgb(246,147,147);stroke-width:0.01" />
<line x1="0.313017" y1="0.250382" x2="0.207382" y2="0.5" style="stroke:rgb(246,147,147);stroke-width:0.01" />
<line x1="0.459002" y1="0.250218" x2="0.69139" y2="0.254789" style="stroke:rgb(246,147,147);stroke-width:0.01" />
<line x1="0.313017" y1="0.250382" x2="0.545448" y2="0.251225" style="stroke:rgb(246,147,147);stroke-width:0.01" />
<line x1="0.545448" y1="0.251225" x2="0.250454" y2="0.544087" style="stroke:rgb(246,147,147);stroke-width:0.01" />
<line x1="0.358588" y1="0.440124" x2="0.250454" y2="0.544087" style="stroke:rgb(246,147,147);stroke-width:0.01" />
<line x1="0.358588" y1="0.440124" x2="0.641412" y2="0.443418" style="stroke:rgb(246,147,147);stroke-width:0.01" />
<line x1="0.500824" y1="0.371065" x2="0.286235" y2="0.580712" style="stroke:rgb(246,147,147);stroke-width:0.01" />
<line x1="0.69139" y1="0.254789" x2="0.356941" y2="0.581536" style="stroke:rgb(246,147,147);stroke-width:0.01" />
<line x1="0.358588" y1="0.440124" x2="0.207382" y2="0.5" style="stroke:rgb(246,147,147);stroke-width:0.01" />
<line x1="0.286235" y1="0.580712" x2="0.710471" y2="0.585653" style="stroke:rgb(246,147,147);stroke-width:0.01" />
<line x1="0.675529" y1="0.549889" x2="0.639765" y2="0.58483" style="stroke:rgb(246,147,147);stroke-width:0.01" />
<line x1="0.791183" y1="0.5068" x2="0.710471" y2="0.585653" style="stroke:rgb(246,147,147);stroke-width:0.01" />
</g>
</svg>
