<svg xmlns="http://www.w3.org/2000/svg" viewBox="-1.5 -1.5 3 3">
<g transform="scale(1, -1)">
<path d="M0.095588 0.602190 L1.000000 0.786962 L1.000000 1.000000 L0.909161 1.000000 L0.827034 1.192605 L0.320029 1.352541 L0.036007 1.231434 L0.057921 1.000000 L0.000000 1.000000 L0.000000 0.901989 z " fill="rgb(245,195,195)" />
<path d="M0.000000 0.000000 L1.000000 0.000000 L1.000000 1.000000 L0.000000 1.000000  z" fill="none" stroke="rgb(128,128,128)" stroke-width="0.01" />
<line x1="0.197963" y1="0.623105" x2="0.317023" y2="1.17029" style="stroke:rgb(246,147,147);stroke-width:0.01" />
<line x1="0" y1="0.901989" x2="0" y2="1" style="stroke:rgb(246,147,147);stroke-width:0.01" />
<line x1="1" y1="0.786962" x2="1" y2="1" style="stroke:rgb(246,147,147);stroke-width:0.01" />
<line x1="0.095588" y1="0.60219" x2="0.0360073" y2="1.23143" style="stroke:rgb(246,147,147);stroke-width:0.01" />
<line x1="0.095588" y1="0.60219" x2="0" y2="0.901989" style="stroke:rgb(246,147,147);stroke-width:0.01" />
<line x1="0.197963" y1="0.623105" x2="0" y2="0.901989" style="stroke:rgb(246,147,147);stroke-width:0.01" />
<line x1="1" y1="0.786962" x2="0.827034" y2="1.19261" style="stroke:rgb(246,147,147);stroke-width:0.01" />
<line x1="0.533276" y1="1.00982" x2="0.827034" y2="1.19261" style="stroke:rgb(246,147,147);stroke-width:0.01" />
<line x1="0.533276" y1="1.00982" x2="0.320029" y2="1.35254" style="stroke:rgb(246,147,147);stroke-width:0.01" />
<line x1="0.095588" y1="0.60219" x2="1" y2="0.786962" style="stroke:rgb(246,147,147);stroke-width:0.01" />
<line x1="0" y1="1" x2="1" y2="1" style="stroke:rgb(246,147,147);stroke-width:0.01" />
<line x1="0.0360073" y1="1.23143" x2="0.320029" y2="1.35254" style="stroke:rgb(246,147,147);stroke-width:0.01" />
<line x1="0.317023" y1="1.17029" x2="0.0360073" y2="1.23143" style="stroke:rgb(246,147,147);stroke-width:0.01" />
<line x1="0.827034" y1="1.19261" x2="0.320029" y2="1.35254" style="stroke:rgb(246,147,147);stroke-width:0.01" />
</g>
</svg>
