<svg xmlns="http://www.w3.org/2000/svg" viewBox="-1.5 -1.5 3 3">
<g transform="scale(1, -1)">
<path d="M-0.328986 -0.404582 L0.575426 -0.219810 L0.575426 -0.006772 L0.484587 -0.006772 L0.402460 0.185833 L-0.104545 0.345768 L-0.388567 0.224662 L-0.366653 -0.006772 L-0.424574 -0.006772 L-0.424574 -0.104783 z " fill="rgb(245,195,195)" />
<path d="M-0.424574 -1.006772 L0.575426 -1.006772 L0.575426 -0.006772 L-0.424574 -0.006772  z" fill="none" stroke="rgb(128,128,128)" stroke-width="0.01" />
<line x1="-0.226611" y1="-0.383667" x2="-0.107551" y2="0.163517" style="stroke:rgb(246,147,147);stroke-width:0.01" />
<line x1="-0.424574" y1="-0.104783" x2="-0.424574" y2="-0.0067721" style="stroke:rgb(246,147,147);stroke-width:0.01" />
<line x1="0.575426" y1="-0.21981" x2="0.575426" y2="-0.0067721" style="stroke:rgb(246,147,147);stroke-width:0.01" />
<line x1="-0.328986" y1="-0.404582" x2="-0.388567" y2="0.224662" style="stroke:rgb(246,147,147);stroke-width:0.01" />
<line x1="-0.328986" y1="-0.404582" x2="-0.424574" y2="-0.104783" style="stroke:rgb(246,147,147);stroke-width:0.01" />
<line x1="-0.226611" y1="-0.383667" x2="-0.424574" y2="-0.104783" style="stroke:rgb(246,147,147);stroke-width:0.01" />
<line x1="0.575426" y1="-0.21981" x2="0.40246" y2="0.185833" style="stroke:rgb(246,147,147);stroke-width:0.01" />
<line x1="0.108702" y1="0.00305032" x2="0.40246" y2="0.185833" style="stroke:rgb(246,147,147);stroke-width:0.01" />
<line x1="0.108702" y1="0.00305032" x2="-0.104545" y2="0.345768" style="stroke:rgb(246,147,147);stroke-width:0.01" />
<line x1="-0.328986" y1="-0.404582" x2="0.575426" y2="-0.21981" style="stroke:rgb(246,147,147);stroke-width:0.01" />
<line x1="-0.424574" y1="-0.0067721" x2="0.575426" y2="-0.0067721" style="stroke:rgb(246,147,147);stroke-width:0.01" />
<line x1="-0.388567" y1="0.224662" x2="-0.104545" y2="0.345768" style="stroke:rgb(246,147,147);stroke-width:0.01" />
<line x1="-0.107551" y1="0.163517" x2="-0.388567" y2="0.224662" style="stroke:rgb(246,147,147);stroke-width:0.01" />
<line x1="0.40246" y1="0.185833" x2="-0.104545" y2="0.345768" style="stroke:rgb(246,147,147);stroke-width:0.01" />
</g>
</svg>
