<svg xmlns="http://www.w3.org/2000/svg" viewBox="-1 -1 3 3">
<path d="M-0.073204 -0.022287 L0.280502 0.691824 L0.173826 1.000000 L0.000000 1.000000 L0.000000 0.976700 L-0.406900 0.982995 L-0.413787 0.537810 L-0.475544 0.489235 L-0.415716 0.413170 L-0.422369 -0.016886 z " fill="rgb(245,195,195)" />
<path d="M0 0 L0 1 L1 1 L1 0 z" fill="none" stroke="rgb(128,128,128)" stroke-width="0.01" />
<line x1="-0.0732042" y1="-0.0222874" x2="-0.475544" y2="0.489235" style="stroke:rgb(246,147,147);stroke-width:0.01" />
<line x1="-0.0732042" y1="-0.0222874" x2="-0.422369" y2="-0.0168857" style="stroke:rgb(246,147,147);stroke-width:0.01" />
<line x1="0" y1="0.825397" x2="0" y2="1" style="stroke:rgb(246,147,147);stroke-width:0.01" />
<line x1="-0.422369" y1="-0.0168857" x2="-0.4069" y2="0.982995" style="stroke:rgb(246,147,147);stroke-width:0.01" />
<line x1="-0.0732042" y1="-0.0222874" x2="0.280502" y2="0.691824" style="stroke:rgb(246,147,147);stroke-width:0.01" />
<line x1="0.280502" y1="0.691824" x2="0.173826" y2="1" style="stroke:rgb(246,147,147);stroke-width:0.01" />
<line x1="0" y1="0.825397" x2="0.182871" y2="0.973871" style="stroke:rgb(246,147,147);stroke-width:0.01" />
<line x1="-0.475544" y1="0.489235" x2="0.173826" y2="1" style="stroke:rgb(246,147,147);stroke-width:0.01" />
<line x1="0.280502" y1="0.691824" x2="0" y2="0.825397" style="stroke:rgb(246,147,147);stroke-width:0.01" />
<line x1="0.182871" y1="0.973871" x2="-0.4069" y2="0.982995" style="stroke:rgb(246,147,147);stroke-width:0.01" />
<line x1="0" y1="1" x2="0.173826" y2="1" style="stroke:rgb(246,147,147);stroke-width:0.01" />
</svg>
