<svg xmlns="http://www.w3.org/2000/svg" viewBox="-1.5 -1.5 3 3">
<g transform="scale(1, -1)">
<path d="M0.102115 -0.627543 L0.455822 0.086568 L0.349145 0.394744 L0.175319 0.394744 L0.175319 0.371444 L-0.231581 0.377739 L-0.238468 -0.067446 L-0.300225 -0.116021 L-0.240396 -0.192086 L-0.247050 -0.622142 z " fill="rgb(245,195,195)" />
<path d="M0.175319 -0.605256 L1.175319 -0.605256 L1.175319 0.394744 L0.175319 0.394744  z" fill="none" stroke="rgb(128,128,128)" stroke-width="0.01" />
<line x1="0.102115" y1="-0.627543" x2="-0.300225" y2="-0.116021" style="stroke:rgb(246,147,147);stroke-width:0.01" />
<line x1="0.102115" y1="-0.627543" x2="-0.24705" y2="-0.622142" style="stroke:rgb(246,147,147);stroke-width:0.01" />
<line x1="0.175319" y1="0.220141" x2="0.175319" y2="0.394744" style="stroke:rgb(246,147,147);stroke-width:0.01" />
<line x1="-0.24705" y1="-0.622142" x2="-0.231581" y2="0.377739" style="stroke:rgb(246,147,147);stroke-width:0.01" />
<line x1="0.102115" y1="-0.627543" x2="0.455822" y2="0.0865682" style="stroke:rgb(246,147,147);stroke-width:0.01" />
<line x1="0.455822" y1="0.0865682" x2="0.349145" y2="0.394744" style="stroke:rgb(246,147,147);stroke-width:0.01" />
<line x1="0.175319" y1="0.220141" x2="0.35819" y2="0.368615" style="stroke:rgb(246,147,147);stroke-width:0.01" />
<line x1="-0.300225" y1="-0.116021" x2="0.349145" y2="0.394744" style="stroke:rgb(246,147,147);stroke-width:0.01" />
<line x1="0.455822" y1="0.0865682" x2="0.175319" y2="0.220141" style="stroke:rgb(246,147,147);stroke-width:0.01" />
<line x1="0.35819" y1="0.368615" x2="-0.231581" y2="0.377739" style="stroke:rgb(246,147,147);stroke-width:0.01" />
<line x1="0.175319" y1="0.394744" x2="0.349145" y2="0.394744" style="stroke:rgb(246,147,147);stroke-width:0.01" />
</g>
</svg>
