<svg xmlns="http://www.w3.org/2000/svg" viewBox="-1.5 -1.5 3 3">
<g transform="scale(1, -1)">
<path d="M-0.500000 -0.222308 L0.500000 -0.222308 L0.500000 0.222308 L-0.500000 0.222308 z " fill="rgb(245,195,195)" />
<path d="M-0.500000 0.173846 L0.500000 0.173846 L0.500000 1.173846 L-0.500000 1.173846  z" fill="none" stroke="rgb(128,128,128)" stroke-width="0.01" />
<line x1="-0.5" y1="-0.222308" x2="0.5" y2="-0.222308" style="stroke:rgb(246,147,147);stroke-width:0.01" />
<line x1="-0.5" y1="-0.14" x2="0.5" y2="-0.14" style="stroke:rgb(246,147,147);stroke-width:0.01" />
<line x1="-0.5" y1="-0.131538" x2="0.5" y2="-0.131538" style="stroke:rgb(246,147,147);stroke-width:0.01" />
<line x1="-0.5" y1="-0.0538462" x2="0.5" y2="-0.0538462" style="stroke:rgb(246,147,147);stroke-width:0.01" />
<line x1="-0.5" y1="-0.0446154" x2="0.5" y2="-0.0446154" style="stroke:rgb(246,147,147);stroke-width:0.01" />
<line x1="-0.5" y1="-0.0376923" x2="0.5" y2="-0.0376923" style="stroke:rgb(246,147,147);stroke-width:0.01" />
<line x1="-0.5" y1="-0.0346154" x2="0.5" y2="-0.0346154" style="stroke:rgb(246,147,147);stroke-width:0.01" />
<line x1="-0.5" y1="-0.0284615" x2="0.5" y2="-0.0284615" style="stroke:rgb(246,147,147);stroke-width:0.01" />
<line x1="-0.5" y1="-0.0261538" x2="0.5" y2="-0.0261538" style="stroke:rgb(246,147,147);stroke-width:0.01" />
<line x1="-0.5" y1="-0.00615385" x2="0.5" y2="-0.00615385" style="stroke:rgb(246,147,147);stroke-width:0.01" />
<line x1="-0.5" y1="0.02" x2="0.5" y2="0.02" style="stroke:rgb(246,147,147);stroke-width:0.01" />
<line x1="-0.5" y1="0.135385" x2="0.5" y2="0.135385" style="stroke:rgb(246,147,147);stroke-width:0.01" />
<line x1="-0.5" y1="0.173846" x2="0.5" y2="0.173846" style="stroke:rgb(246,147,147);stroke-width:0.01" />
<line x1="-0.5" y1="-0.222308" x2="-0.5" y2="0.222308" style="stroke:rgb(246,147,147);stroke-width:0.01" />
<line x1="0.5" y1="-0.222308" x2="0.5" y2="0.222308" style="stroke:rgb(246,147,147);stroke-width:0.01" />
<line x1="-0.5" y1="0.199231" x2="0.5" y2="0.199231" style="stroke:rgb(246,147,147);stroke-width:0.01" />
<line x1="-0.5" y1="0.222308" x2="0.5" y2="0.222308" style="stroke:rgb(246,147,147);stroke-width:0.01" />
</g>
</svg>
