<svg xmlns="http://www.w3.org/2000/svg" viewBox="-1.5 -1.5 3 3">
<g transform="scale(1, -1)">
<path d="M-0.500000 -0.304286 L0.500000 -0.304286 L0.500000 0.304286 L-0.500000 0.304286 z " fill="rgb(245,195,195)" />
<path d="M-0.500000 -0.304286 L0.500000 -0.304286 L0.500000 0.695714 L-0.500000 0.695714  z" fill="none" stroke="rgb(128,128,128)" stroke-width="0.01" />
<line x1="-0.5" y1="-0.304286" x2="0.5" y2="-0.304286" style="stroke:rgb(246,147,147);stroke-width:0.01" />
<line x1="-0.5" y1="-0.304286" x2="-0.5" y2="0.304286" style="stroke:rgb(246,147,147);stroke-width:0.01" />
<line x1="0.5" y1="-0.304286" x2="0.5" y2="0.304286" style="stroke:rgb(246,147,147);stroke-width:0.01" />
<line x1="-0.5" y1="-0.244286" x2="0.5" y2="-0.244286" style="stroke:rgb(246,147,147);stroke-width:0.01" />
<line x1="-0.5" y1="-0.218571" x2="0.5" y2="-0.218571" style="stroke:rgb(246,147,147);stroke-width:0.01" />
<line x1="-0.5" y1="-0.214286" x2="0.5" y2="-0.214286" style="stroke:rgb(246,147,147);stroke-width:0.01" />
<line x1="-0.5" y1="-0.165714" x2="0.5" y2="-0.165714" style="stroke:rgb(246,147,147);stroke-width:0.01" />
<line x1="-0.5" y1="0.00428571" x2="0.5" y2="0.00428571" style="stroke:rgb(246,147,147);stroke-width:0.01" />
<line x1="-0.5" y1="0.05" x2="0.5" y2="0.05" style="stroke:rgb(246,147,147);stroke-width:0.01" />
<line x1="-0.5" y1="0.152857" x2="0.5" y2="0.152857" style="stroke:rgb(246,147,147);stroke-width:0.01" />
<line x1="-0.5" y1="0.304286" x2="0.5" y2="0.304286" style="stroke:rgb(246,147,147);stroke-width:0.01" />
</g>
</svg>
