<svg xmlns="http://www.w3.org/2000/svg" viewBox="-1.5 -1.5 3 3">
<g transform="scale(1, -1)">
<path d="M-0.500000 -0.261923 L0.500000 -0.261923 L0.500000 0.261923 L-0.500000 0.261923 z " fill="rgb(245,195,195)" />
<path d="M-0.500000 -0.205769 L0.500000 -0.205769 L0.500000 0.794231 L-0.500000 0.794231  z" fill="none" stroke="rgb(128,128,128)" stroke-width="0.01" />
<line x1="-0.5" y1="-0.261923" x2="0.5" y2="-0.261923" style="stroke:rgb(246,147,147);stroke-width:0.01" />
<line x1="-0.5" y1="-0.250385" x2="0.5" y2="-0.250385" style="stroke:rgb(246,147,147);stroke-width:0.01" />
<line x1="-0.5" y1="-0.238077" x2="0.5" y2="-0.238077" style="stroke:rgb(246,147,147);stroke-width:0.01" />
<line x1="-0.5" y1="-0.222692" x2="0.5" y2="-0.222692" style="stroke:rgb(246,147,147);stroke-width:0.01" />
<line x1="-0.5" y1="-0.213462" x2="0.5" y2="-0.213462" style="stroke:rgb(246,147,147);stroke-width:0.01" />
<line x1="-0.5" y1="-0.205769" x2="0.5" y2="-0.205769" style="stroke:rgb(246,147,147);stroke-width:0.01" />
<line x1="-0.5" y1="-0.261923" x2="-0.5" y2="0.261923" style="stroke:rgb(246,147,147);stroke-width:0.01" />
<line x1="0.5" y1="-0.261923" x2="0.5" y2="0.261923" style="stroke:rgb(246,147,147);stroke-width:0.01" />
<line x1="-0.5" y1="-0.188077" x2="0.5" y2="-0.188077" style="stroke:rgb(246,147,147);stroke-width:0.01" />
<line x1="-0.5" y1="-0.0965385" x2="0.5" y2="-0.0965385" style="stroke:rgb(246,147,147);stroke-width:0.01" />
<line x1="-0.5" y1="-0.055" x2="0.5" y2="-0.055" style="stroke:rgb(246,147,147);stroke-width:0.01" />
<line x1="-0.5" y1="0.0142308" x2="0.5" y2="0.0142308" style="stroke:rgb(246,147,147);stroke-width:0.01" />
<line x1="-0.5" y1="0.0180769" x2="0.5" y2="0.0180769" style="stroke:rgb(246,147,147);stroke-width:0.01" />
<line x1="-0.5" y1="0.155" x2="0.5" y2="0.155" style="stroke:rgb(246,147,147);stroke-width:0.01" />
<line x1="-0.5" y1="0.178846" x2="0.5" y2="0.178846" style="stroke:rgb(246,147,147);stroke-width:0.01" />
<line x1="-0.5" y1="0.238846" x2="0.5" y2="0.238846" style="stroke:rgb(246,147,147);stroke-width:0.01" />
<line x1="-0.5" y1="0.261923" x2="0.5" y2="0.261923" style="stroke:rgb(246,147,147);stroke-width:0.01" />
</g>
</svg>
