<svg xmlns="http://www.w3.org/2000/svg" viewBox="-1.5 -1.5 3 3">
<g transform="scale(1, -1)">
<path d="M-0.500000 -0.190000 L0.500000 -0.190000 L0.500000 0.190000 L-0.500000 0.190000 z " fill="rgb(245,195,195)" />
<path d="M-0.500000 -0.067143 L0.500000 -0.067143 L0.500000 0.932857 L-0.500000 0.932857  z" fill="none" stroke="rgb(128,128,128)" stroke-width="0.01" />
<line x1="-0.5" y1="-0.19" x2="0.5" y2="-0.19" style="stroke:rgb(246,147,147);stroke-width:0.01" />
<line x1="-0.5" y1="-0.0671429" x2="0.5" y2="-0.0671429" style="stroke:rgb(246,147,147);stroke-width:0.01" />
<line x1="-0.5" y1="-0.19" x2="-0.5" y2="0.19" style="stroke:rgb(246,147,147);stroke-width:0.01" />
<line x1="0.5" y1="-0.19" x2="0.5" y2="0.19" style="stroke:rgb(246,147,147);stroke-width:0.01" />
<line x1="-0.5" y1="-0.0614286" x2="0.5" y2="-0.0614286" style="stroke:rgb(246,147,147);stroke-width:0.01" />
<line x1="-0.5" y1="-0.0442857" x2="0.5" y2="-0.0442857" style="stroke:rgb(246,147,147);stroke-width:0.01" />
<line x1="-0.5" y1="-0.02" x2="0.5" y2="-0.02" style="stroke:rgb(246,147,147);stroke-width:0.01" />
<line x1="-0.5" y1="0.00285714" x2="0.5" y2="0.00285714" style="stroke:rgb(246,147,147);stroke-width:0.01" />
<line x1="-0.5" y1="0.01" x2="0.5" y2="0.01" style="stroke:rgb(246,147,147);stroke-width:0.01" />
<line x1="-0.5" y1="0.0428571" x2="0.5" y2="0.0428571" style="stroke:rgb(246,147,147);stroke-width:0.01" />
<line x1="-0.5" y1="0.19" x2="0.5" y2="0.19" style="stroke:rgb(246,147,147);stroke-width:0.01" />
</g>
</svg>
