<svg xmlns="http://www.w3.org/2000/svg" viewBox="-1.5 -1.5 3 3">
<g transform="scale(1, -1)">
<path d="M0.000000 -0.122857 L1.000000 -0.122857 L1.000000 0.257143 L0.000000 0.257143 z " fill="rgb(245,195,195)" />
<path d="M0.000000 0.000000 L1.000000 0.000000 L1.000000 1.000000 L0.000000 1.000000  z" fill="none" stroke="rgb(128,128,128)" stroke-width="0.01" />
<line x1="0" y1="-0.122857" x2="1" y2="-0.122857" style="stroke:rgb(246,147,147);stroke-width:0.01" />
<line x1="0" y1="0" x2="1" y2="0" style="stroke:rgb(246,147,147);stroke-width:0.01" />
<line x1="0" y1="-0.122857" x2="0" y2="0.257143" style="stroke:rgb(246,147,147);stroke-width:0.01" />
<line x1="1" y1="-0.122857" x2="1" y2="0.257143" style="stroke:rgb(246,147,147);stroke-width:0.01" />
<line x1="0" y1="0.00571429" x2="1" y2="0.00571429" style="stroke:rgb(246,147,147);stroke-width:0.01" />
<line x1="0" y1="0.0228571" x2="1" y2="0.0228571" style="stroke:rgb(246,147,147);stroke-width:0.01" />
<line x1="0" y1="0.0471429" x2="1" y2="0.0471429" style="stroke:rgb(246,147,147);stroke-width:0.01" />
<line x1="0" y1="0.07" x2="1" y2="0.07" style="stroke:rgb(246,147,147);stroke-width:0.01" />
<line x1="0" y1="0.0771429" x2="1" y2="0.0771429" style="stroke:rgb(246,147,147);stroke-width:0.01" />
<line x1="0" y1="0.11" x2="1" y2="0.11" style="stroke:rgb(246,147,147);stroke-width:0.01" />
<line x1="0" y1="0.257143" x2="1" y2="0.257143" style="stroke:rgb(246,147,147);stroke-width:0.01" />
</g>
</svg>
