<svg xmlns="http://www.w3.org/2000/svg" viewBox="-1.5 -1.5 3 3">
<g transform="scale(1, -1)">
<path d="M-0.500000 -0.184286 L0.500000 -0.184286 L0.500000 0.184286 L-0.500000 0.184286 z " fill="rgb(245,195,195)" />
<path d="M-0.500000 -0.101429 L0.500000 -0.101429 L0.500000 0.898571 L-0.500000 0.898571  z" fill="none" stroke="rgb(128,128,128)" stroke-width="0.01" />
<line x1="-0.5" y1="-0.184286" x2="0.5" y2="-0.184286" style="stroke:rgb(246,147,147);stroke-width:0.01" />
<line x1="-0.5" y1="-0.101429" x2="0.5" y2="-0.101429" style="stroke:rgb(246,147,147);stroke-width:0.01" />
<line x1="-0.5" y1="-0.184286" x2="-0.5" y2="0.184286" style="stroke:rgb(246,147,147);stroke-width:0.01" />
<line x1="0.5" y1="-0.184286" x2="0.5" y2="0.184286" style="stroke:rgb(246,147,147);stroke-width:0.01" />
<line x1="-0.5" y1="-0.0885714" x2="0.5" y2="-0.0885714" style="stroke:rgb(246,147,147);stroke-width:0.01" />
<line x1="-0.5" y1="-0.0442857" x2="0.5" y2="-0.0442857" style="stroke:rgb(246,147,147);stroke-width:0.01" />
<line x1="-0.5" y1="0.0171429" x2="0.5" y2="0.0171429" style="stroke:rgb(246,147,147);stroke-width:0.01" />
<line x1="-0.5" y1="0.155714" x2="0.5" y2="0.155714" style="stroke:rgb(246,147,147);stroke-width:0.01" />
<line x1="-0.5" y1="0.174286" x2="0.5" y2="0.174286" style="stroke:rgb(246,147,147);stroke-width:0.01" />
<line x1="-0.5" y1="0.182857" x2="0.5" y2="0.182857" style="stroke:rgb(246,147,147);stroke-width:0.01" />
<line x1="-0.5" y1="0.184286" x2="0.5" y2="0.184286" style="stroke:rgb(246,147,147);stroke-width:0.01" />
</g>
</svg>
