<svg xmlns="http://www.w3.org/2000/svg" viewBox="-1.5 -1.5 3 3">
<g transform="scale(1, -1)">
<path d="M0.010417 -0.510417 L0.260417 -0.260417 L0.260417 -0.010417 L0.385417 0.114583 L0.260417 0.239583 L0.010417 0.239583 L0.010417 0.489583 L-0.239583 0.239583 L-0.239583 -0.010417 L-0.489583 -0.010417 L-0.239583 -0.260417 L0.010417 -0.260417 z " fill="rgb(245,195,195)" />
<path d="M-0.489583 -0.510417 L0.510417 -0.510417 L0.510417 0.489583 L-0.489583 0.489583  z" fill="none" stroke="rgb(128,128,128)" stroke-width="0.01" />
<line x1="0.0104167" y1="-0.510417" x2="0.260417" y2="-0.260417" style="stroke:rgb(246,147,147);stroke-width:0.01" />
<line x1="0.260417" y1="-0.0104167" x2="0.385417" y2="0.114583" style="stroke:rgb(246,147,147);stroke-width:0.01" />
<line x1="-0.239583" y1="-0.260417" x2="0.260417" y2="0.239583" style="stroke:rgb(246,147,147);stroke-width:0.01" />
<line x1="-0.239583" y1="-0.260417" x2="-0.239583" y2="0.239583" style="stroke:rgb(246,147,147);stroke-width:0.01" />
<line x1="0.0104167" y1="-0.510417" x2="0.0104167" y2="0.489583" style="stroke:rgb(246,147,147);stroke-width:0.01" />
<line x1="0.260417" y1="-0.260417" x2="0.260417" y2="0.239583" style="stroke:rgb(246,147,147);stroke-width:0.01" />
<line x1="-0.239583" y1="0.239583" x2="0.0104167" y2="0.489583" style="stroke:rgb(246,147,147);stroke-width:0.01" />
<line x1="-0.239583" y1="-0.260417" x2="0.260417" y2="-0.260417" style="stroke:rgb(246,147,147);stroke-width:0.01" />
<line x1="-0.239583" y1="-0.260417" x2="-0.489583" y2="-0.0104167" style="stroke:rgb(246,147,147);stroke-width:0.01" />
<line x1="-0.489583" y1="-0.0104167" x2="0.260417" y2="-0.0104167" style="stroke:rgb(246,147,147);stroke-width:0.01" />
<line x1="0.260417" y1="-0.260417" x2="-0.239583" y2="0.239583" style="stroke:rgb(246,147,147);stroke-width:0.01" />
<line x1="-0.239583" y1="0.239583" x2="0.260417" y2="0.239583" style="stroke:rgb(246,147,147);stroke-width:0.01" />
<line x1="0.385417" y1="0.114583" x2="0.260417" y2="0.239583" style="stroke:rgb(246,147,147);stroke-width:0.01" />
</g>
</svg>
