<svg xmlns="http://www.w3.org/2000/svg" viewBox="-1.5 -1.5 3 3">
<g transform="scale(1, -1)">
<path d="M-0.443679 -0.318330 L-0.297925 -0.077915 L-0.249723 -0.155383 L-0.000000 -0.000000 L-0.132075 0.212264 L-0.498335 0.244173 L-0.605963 0.124005 L-0.549720 -0.254042 z M-0.313079 -0.053560 L-0.350072 -0.031132 L-0.336478 -0.015954 z " fill="rgb(245,195,195)" />
<path d="M0.000000 0.000000 L1.000000 0.000000 L1.000000 1.000000 L0.000000 1.000000  z" fill="none" stroke="rgb(128,128,128)" stroke-width="0.01" />
<line x1="-0.443679" y1="-0.31833" x2="-0.54972" y2="-0.254042" style="stroke:rgb(246,147,147);stroke-width:0.01" />
<line x1="-0.413183" y1="-0.268029" x2="-0.560968" y2="-0.178433" style="stroke:rgb(246,147,147);stroke-width:0.01" />
<line x1="-0.2912" y1="-0.0668239" x2="-0.605963" y2="0.124005" style="stroke:rgb(246,147,147);stroke-width:0.01" />
<line x1="-0.249723" y1="-0.155383" x2="-0.498335" y2="0.244173" style="stroke:rgb(246,147,147);stroke-width:0.01" />
<line x1="-0.54972" y1="-0.254042" x2="-0.605963" y2="0.124005" style="stroke:rgb(246,147,147);stroke-width:0.01" />
<line x1="-0.0499445" y1="-0.0310766" x2="-0.205327" y2="0.218646" style="stroke:rgb(246,147,147);stroke-width:0.01" />
<line x1="-5.15714e-22" y1="-3.20889e-22" x2="-0.132075" y2="0.212264" style="stroke:rgb(246,147,147);stroke-width:0.01" />
<line x1="-2.57857e-22" y1="-1.60444e-22" x2="-0.132075" y2="0.212264" style="stroke:rgb(246,147,147);stroke-width:0.01" />
<line x1="-5.15714e-22" y1="-3.20889e-22" x2="-2.57857e-22" y2="-1.60444e-22" style="stroke:rgb(246,147,147);stroke-width:0.01" />
<line x1="-0.249723" y1="-0.155383" x2="-2.57857e-22" y2="-1.60444e-22" style="stroke:rgb(246,147,147);stroke-width:0.01" />
<line x1="-0.443679" y1="-0.31833" x2="-0.2912" y2="-0.0668239" style="stroke:rgb(246,147,147);stroke-width:0.01" />
<line x1="-0.54972" y1="-0.254042" x2="-0.132075" y2="0.212264" style="stroke:rgb(246,147,147);stroke-width:0.01" />
<line x1="-0.132075" y1="0.212264" x2="-0.498335" y2="0.244173" style="stroke:rgb(246,147,147);stroke-width:0.01" />
<line x1="-0.560968" y1="-0.178433" x2="-0.205327" y2="0.218646" style="stroke:rgb(246,147,147);stroke-width:0.01" />
<line x1="-0.605963" y1="0.124005" x2="-0.498335" y2="0.244173" style="stroke:rgb(246,147,147);stroke-width:0.01" />
</g>
</svg>
