<svg xmlns="http://www.w3.org/2000/svg" viewBox="-1.5 -1.5 3 3">
<g transform="scale(1, -1)">
<path d="M-0.100311 -0.288705 L0.045443 -0.048290 L0.093646 -0.125758 L0.343368 0.029625 L0.211293 0.241889 L-0.154967 0.273798 L-0.262595 0.153630 L-0.206351 -0.224417 z M0.030289 -0.023935 L-0.006704 -0.001507 L0.006890 0.013671 z " fill="rgb(245,195,195)" />
<path d="M0.343368 0.029625 L1.343368 0.029625 L1.343368 1.029625 L0.343368 1.029625  z" fill="none" stroke="rgb(128,128,128)" stroke-width="0.01" />
<line x1="-0.100311" y1="-0.288705" x2="-0.206351" y2="-0.224417" style="stroke:rgb(246,147,147);stroke-width:0.01" />
<line x1="-0.0698152" y1="-0.238404" x2="-0.2176" y2="-0.148808" style="stroke:rgb(246,147,147);stroke-width:0.01" />
<line x1="0.0521676" y1="-0.0371989" x2="-0.262595" y2="0.15363" style="stroke:rgb(246,147,147);stroke-width:0.01" />
<line x1="0.0936456" y1="-0.125758" x2="-0.154967" y2="0.273798" style="stroke:rgb(246,147,147);stroke-width:0.01" />
<line x1="-0.206351" y1="-0.224417" x2="-0.262595" y2="0.15363" style="stroke:rgb(246,147,147);stroke-width:0.01" />
<line x1="0.293424" y1="-0.00145158" x2="0.138041" y2="0.248271" style="stroke:rgb(246,147,147);stroke-width:0.01" />
<line x1="0.343368" y1="0.029625" x2="0.211293" y2="0.241889" style="stroke:rgb(246,147,147);stroke-width:0.01" />
<line x1="0.343368" y1="0.029625" x2="0.211293" y2="0.241889" style="stroke:rgb(246,147,147);stroke-width:0.01" />
<line x1="0.343368" y1="0.029625" x2="0.343368" y2="0.029625" style="stroke:rgb(246,147,147);stroke-width:0.01" />
<line x1="0.0936456" y1="-0.125758" x2="0.343368" y2="0.029625" style="stroke:rgb(246,147,147);stroke-width:0.01" />
<line x1="-0.100311" y1="-0.288705" x2="0.0521676" y2="-0.0371989" style="stroke:rgb(246,147,147);stroke-width:0.01" />
<line x1="-0.206351" y1="-0.224417" x2="0.211293" y2="0.241889" style="stroke:rgb(246,147,147);stroke-width:0.01" />
<line x1="0.211293" y1="0.241889" x2="-0.154967" y2="0.273798" style="stroke:rgb(246,147,147);stroke-width:0.01" />
<line x1="-0.2176" y1="-0.148808" x2="0.138041" y2="0.248271" style="stroke:rgb(246,147,147);stroke-width:0.01" />
<line x1="-0.262595" y1="0.15363" x2="-0.154967" y2="0.273798" style="stroke:rgb(246,147,147);stroke-width:0.01" />
</g>
</svg>
