<svg xmlns="http://www.w3.org/2000/svg" viewBox="-1.5 -1.5 3 3">
<g transform="scale(1, -1)">
<path d="M0.212537 -0.243451 L0.248382 0.036336 L0.425460 0.110118 L0.297254 0.417811 L-0.427643 0.320322 L-0.355605 -0.215325 L-0.203007 -0.234876 L-0.197377 -0.190935 z " fill="rgb(245,195,195)" />
<path d="M-5.896130 -7.392552 L-4.896130 -7.392552 L-4.896130 -6.392552 L-5.896130 -6.392552  z" fill="none" stroke="rgb(128,128,128)" stroke-width="0.01" />
<line x1="0.212537" y1="-0.243451" x2="0.297254" y2="0.417811" style="stroke:rgb(246,147,147);stroke-width:0.01" />
<line x1="-0.203007" y1="-0.234876" x2="-0.126692" y2="0.360796" style="stroke:rgb(246,147,147);stroke-width:0.01" />
<line x1="-0.355605" y1="-0.215325" x2="-0.427643" y2="0.320322" style="stroke:rgb(246,147,147);stroke-width:0.01" />
<line x1="0.0269467" y1="-0.00793693" x2="-0.126692" y2="0.360796" style="stroke:rgb(246,147,147);stroke-width:0.01" />
<line x1="0.42546" y1="0.110118" x2="0.297254" y2="0.417811" style="stroke:rgb(246,147,147);stroke-width:0.01" />
<line x1="-0.355605" y1="-0.215325" x2="0.42546" y2="0.110118" style="stroke:rgb(246,147,147);stroke-width:0.01" />
<line x1="-0.361717" y1="-0.16988" x2="0.0269467" y2="-0.00793693" style="stroke:rgb(246,147,147);stroke-width:0.01" />
<line x1="-0.427643" y1="0.320322" x2="0.297254" y2="0.417811" style="stroke:rgb(246,147,147);stroke-width:0.01" />
<line x1="-0.203007" y1="-0.234876" x2="-0.355605" y2="-0.215325" style="stroke:rgb(246,147,147);stroke-width:0.01" />
<line x1="0.212537" y1="-0.243451" x2="-0.361717" y2="-0.16988" style="stroke:rgb(246,147,147);stroke-width:0.01" />
</g>
</svg>
