<svg xmlns="http://www.w3.org/2000/svg" viewBox="-1.5 -1.5 3 3">
<g transform="scale(1, -1)">
<path d="M6.108667 7.149101 L6.144512 7.428888 L6.321590 7.502671 L6.193385 7.810363 L5.468487 7.712874 L5.540525 7.177227 L5.693124 7.157677 L5.698753 7.201618 z " fill="rgb(245,195,195)" />
<path d="M0.000000 0.000000 L1.000000 0.000000 L1.000000 1.000000 L0.000000 1.000000  z" fill="none" stroke="rgb(128,128,128)" stroke-width="0.01" />
<line x1="6.10867" y1="7.1491" x2="6.19338" y2="7.81036" style="stroke:rgb(246,147,147);stroke-width:0.01" />
<line x1="5.69312" y1="7.15768" x2="5.76944" y2="7.75335" style="stroke:rgb(246,147,147);stroke-width:0.01" />
<line x1="5.54052" y1="7.17723" x2="5.46849" y2="7.71287" style="stroke:rgb(246,147,147);stroke-width:0.01" />
<line x1="5.92308" y1="7.38462" x2="5.76944" y2="7.75335" style="stroke:rgb(246,147,147);stroke-width:0.01" />
<line x1="6.32159" y1="7.50267" x2="6.19338" y2="7.81036" style="stroke:rgb(246,147,147);stroke-width:0.01" />
<line x1="5.54052" y1="7.17723" x2="6.32159" y2="7.50267" style="stroke:rgb(246,147,147);stroke-width:0.01" />
<line x1="5.53441" y1="7.22267" x2="5.92308" y2="7.38462" style="stroke:rgb(246,147,147);stroke-width:0.01" />
<line x1="5.46849" y1="7.71287" x2="6.19338" y2="7.81036" style="stroke:rgb(246,147,147);stroke-width:0.01" />
<line x1="5.69312" y1="7.15768" x2="5.54052" y2="7.17723" style="stroke:rgb(246,147,147);stroke-width:0.01" />
<line x1="6.10867" y1="7.1491" x2="5.53441" y2="7.22267" style="stroke:rgb(246,147,147);stroke-width:0.01" />
</g>
</svg>
