<svg xmlns="http://www.w3.org/2000/svg" viewBox="-1.5 -1.5 3 3">
<g transform="scale(1, -1)">
<path d="M-0.168458 -0.270768 L0.307654 -0.191416 L0.515266 0.002205 L0.521408 0.065095 L0.318155 0.084945 L0.121766 0.033360 L-0.022010 0.263098 L-0.262589 0.195115 L-0.219245 0.041729 L-0.273898 -0.019611 L-0.421186 -0.023683 L-0.416863 -0.180069 z " fill="rgb(245,195,195)" />
<path d="M0.752072 -0.784013 L1.752072 -0.784013 L1.752072 0.215987 L0.752072 0.215987  z" fill="none" stroke="rgb(128,128,128)" stroke-width="0.01" />
<line x1="-0.132628" y1="-0.264796" x2="-0.262589" y2="0.195115" style="stroke:rgb(246,147,147);stroke-width:0.01" />
<line x1="0.0714891" y1="-0.230777" x2="0.0118384" y2="-0.0236263" style="stroke:rgb(246,147,147);stroke-width:0.01" />
<line x1="0.266708" y1="-0.198241" x2="-0.0220101" y2="0.263098" style="stroke:rgb(246,147,147);stroke-width:0.01" />
<line x1="-0.132628" y1="-0.264796" x2="-0.133839" y2="-0.242751" style="stroke:rgb(246,147,147);stroke-width:0.01" />
<line x1="0.0714891" y1="-0.230777" x2="0.0640839" y2="-0.0825729" style="stroke:rgb(246,147,147);stroke-width:0.01" />
<line x1="-0.416863" y1="-0.180069" x2="-0.421186" y2="-0.0236828" style="stroke:rgb(246,147,147);stroke-width:0.01" />
<line x1="0.372314" y1="-0.131114" x2="0.287387" y2="-0.00569534" style="stroke:rgb(246,147,147);stroke-width:0.01" />
<line x1="0.515266" y1="0.00220483" x2="0.521408" y2="0.0650953" style="stroke:rgb(246,147,147);stroke-width:0.01" />
<line x1="0.110028" y1="-0.0608523" x2="0.0244296" y2="0.00779343" style="stroke:rgb(246,147,147);stroke-width:0.01" />
<line x1="0.266708" y1="-0.198241" x2="0.272009" y2="-0.175487" style="stroke:rgb(246,147,147);stroke-width:0.01" />
<line x1="0.254642" y1="-0.200251" x2="0.0118384" y2="-0.0236263" style="stroke:rgb(246,147,147);stroke-width:0.01" />
<line x1="-0.168458" y1="-0.270768" x2="-0.416863" y2="-0.180069" style="stroke:rgb(246,147,147);stroke-width:0.01" />
<line x1="0.372314" y1="-0.131114" x2="0.152308" y2="0.0413825" style="stroke:rgb(246,147,147);stroke-width:0.01" />
<line x1="-0.0830428" y1="-0.256532" x2="-0.133839" y2="-0.242751" style="stroke:rgb(246,147,147);stroke-width:0.01" />
<line x1="0.307654" y1="-0.191416" x2="0.0640839" y2="-0.0825729" style="stroke:rgb(246,147,147);stroke-width:0.01" />
<line x1="0.110028" y1="-0.0608523" x2="0.152308" y2="0.0413825" style="stroke:rgb(246,147,147);stroke-width:0.01" />
<line x1="0.0118384" y1="-0.0236263" x2="0.0244296" y2="0.00779343" style="stroke:rgb(246,147,147);stroke-width:0.01" />
<line x1="0.254642" y1="-0.200251" x2="0.272009" y2="-0.175487" style="stroke:rgb(246,147,147);stroke-width:0.01" />
<line x1="0.307654" y1="-0.191416" x2="0.515266" y2="0.00220483" style="stroke:rgb(246,147,147);stroke-width:0.01" />
<line x1="-0.168458" y1="-0.270768" x2="0.307654" y2="-0.191416" style="stroke:rgb(246,147,147);stroke-width:0.01" />
<line x1="-0.0830428" y1="-0.256532" x2="0.287387" y2="-0.00569534" style="stroke:rgb(246,147,147);stroke-width:0.01" />
<line x1="-0.168458" y1="-0.270768" x2="0.0640839" y2="-0.0825729" style="stroke:rgb(246,147,147);stroke-width:0.01" />
<line x1="0.110028" y1="-0.0608523" x2="0.318155" y2="0.0849447" style="stroke:rgb(246,147,147);stroke-width:0.01" />
<line x1="-0.421186" y1="-0.0236828" x2="0.515266" y2="0.00220483" style="stroke:rgb(246,147,147);stroke-width:0.01" />
<line x1="0.521408" y1="0.0650953" x2="0.318155" y2="0.0849447" style="stroke:rgb(246,147,147);stroke-width:0.01" />
<line x1="-0.416863" y1="-0.180069" x2="-0.0220101" y2="0.263098" style="stroke:rgb(246,147,147);stroke-width:0.01" />
<line x1="0.0244296" y1="0.00779343" x2="0.318155" y2="0.0849447" style="stroke:rgb(246,147,147);stroke-width:0.01" />
<line x1="-0.262589" y1="0.195115" x2="-0.0220101" y2="0.263098" style="stroke:rgb(246,147,147);stroke-width:0.01" />
</g>
</svg>
