<svg xmlns="http://www.w3.org/2000/svg" viewBox="-1.5 -1.5 3 3">
<g transform="scale(1, -1)">
<path d="M-0.920531 0.513245 L-0.444418 0.592597 L-0.236806 0.786218 L-0.230664 0.849108 L-0.433917 0.868958 L-0.630307 0.817373 L-0.774083 1.047111 L-1.014662 0.979128 L-0.971318 0.825742 L-1.025971 0.764402 L-1.173259 0.760330 L-1.168935 0.603944 z " fill="rgb(245,195,195)" />
<path d="M0.000000 0.000000 L1.000000 0.000000 L1.000000 1.000000 L0.000000 1.000000  z" fill="none" stroke="rgb(128,128,128)" stroke-width="0.01" />
<line x1="-0.8847" y1="0.519217" x2="-1.01466" y2="0.979128" style="stroke:rgb(246,147,147);stroke-width:0.01" />
<line x1="-0.680583" y1="0.553236" x2="-0.740234" y2="0.760387" style="stroke:rgb(246,147,147);stroke-width:0.01" />
<line x1="-0.485365" y1="0.585773" x2="-0.774083" y2="1.04711" style="stroke:rgb(246,147,147);stroke-width:0.01" />
<line x1="-0.8847" y1="0.519217" x2="-0.885911" y2="0.541262" style="stroke:rgb(246,147,147);stroke-width:0.01" />
<line x1="-0.680583" y1="0.553236" x2="-0.687989" y2="0.70144" style="stroke:rgb(246,147,147);stroke-width:0.01" />
<line x1="-1.16894" y1="0.603944" x2="-1.17326" y2="0.76033" style="stroke:rgb(246,147,147);stroke-width:0.01" />
<line x1="-0.379758" y1="0.652899" x2="-0.464685" y2="0.778318" style="stroke:rgb(246,147,147);stroke-width:0.01" />
<line x1="-0.236806" y1="0.786218" x2="-0.230664" y2="0.849108" style="stroke:rgb(246,147,147);stroke-width:0.01" />
<line x1="-0.642044" y1="0.723161" x2="-0.727643" y2="0.791806" style="stroke:rgb(246,147,147);stroke-width:0.01" />
<line x1="-0.485365" y1="0.585773" x2="-0.480064" y2="0.608526" style="stroke:rgb(246,147,147);stroke-width:0.01" />
<line x1="-0.497431" y1="0.583762" x2="-0.740234" y2="0.760387" style="stroke:rgb(246,147,147);stroke-width:0.01" />
<line x1="-0.920531" y1="0.513245" x2="-1.16894" y2="0.603944" style="stroke:rgb(246,147,147);stroke-width:0.01" />
<line x1="-0.379758" y1="0.652899" x2="-0.599765" y2="0.825396" style="stroke:rgb(246,147,147);stroke-width:0.01" />
<line x1="-0.835115" y1="0.527481" x2="-0.885911" y2="0.541262" style="stroke:rgb(246,147,147);stroke-width:0.01" />
<line x1="-0.444418" y1="0.592597" x2="-0.687989" y2="0.70144" style="stroke:rgb(246,147,147);stroke-width:0.01" />
<line x1="-0.642044" y1="0.723161" x2="-0.599765" y2="0.825396" style="stroke:rgb(246,147,147);stroke-width:0.01" />
<line x1="-0.740234" y1="0.760387" x2="-0.727643" y2="0.791806" style="stroke:rgb(246,147,147);stroke-width:0.01" />
<line x1="-0.497431" y1="0.583762" x2="-0.480064" y2="0.608526" style="stroke:rgb(246,147,147);stroke-width:0.01" />
<line x1="-0.444418" y1="0.592597" x2="-0.236806" y2="0.786218" style="stroke:rgb(246,147,147);stroke-width:0.01" />
<line x1="-0.920531" y1="0.513245" x2="-0.444418" y2="0.592597" style="stroke:rgb(246,147,147);stroke-width:0.01" />
<line x1="-0.835115" y1="0.527481" x2="-0.464685" y2="0.778318" style="stroke:rgb(246,147,147);stroke-width:0.01" />
<line x1="-0.920531" y1="0.513245" x2="-0.687989" y2="0.70144" style="stroke:rgb(246,147,147);stroke-width:0.01" />
<line x1="-0.642044" y1="0.723161" x2="-0.433917" y2="0.868958" style="stroke:rgb(246,147,147);stroke-width:0.01" />
<line x1="-1.17326" y1="0.76033" x2="-0.236806" y2="0.786218" style="stroke:rgb(246,147,147);stroke-width:0.01" />
<line x1="-0.230664" y1="0.849108" x2="-0.433917" y2="0.868958" style="stroke:rgb(246,147,147);stroke-width:0.01" />
<line x1="-1.16894" y1="0.603944" x2="-0.774083" y2="1.04711" style="stroke:rgb(246,147,147);stroke-width:0.01" />
<line x1="-0.727643" y1="0.791806" x2="-0.433917" y2="0.868958" style="stroke:rgb(246,147,147);stroke-width:0.01" />
<line x1="-1.01466" y1="0.979128" x2="-0.774083" y2="1.04711" style="stroke:rgb(246,147,147);stroke-width:0.01" />
</g>
</svg>
