<svg xmlns="http://www.w3.org/2000/svg" viewBox="-1.5 -1.5 3 3">
<g transform="scale(1, -1)">
<path d="M1.652121 0.506657 L1.979231 1.452112 L1.125150 1.776353 L0.830417 1.000000 L1.000000 0.754227 L1.599024 0.526815 L1.598015 0.523593 z " fill="rgb(245,195,195)" />
<path d="M0.000000 0.000000 L1.000000 0.000000 L1.000000 1.000000 L0.000000 1.000000  z" fill="none" stroke="rgb(128,128,128)" stroke-width="0.01" />
<line x1="1.65212" y1="0.506657" x2="1.97923" y2="1.45211" style="stroke:rgb(246,147,147);stroke-width:0.01" />
<line x1="1.59802" y1="0.523593" x2="1.89674" y2="1.47793" style="stroke:rgb(246,147,147);stroke-width:0.01" />
<line x1="0.830417" y1="1" x2="1.12515" y2="1.77635" style="stroke:rgb(246,147,147);stroke-width:0.01" />
<line x1="1" y1="0.754227" x2="1" y2="1" style="stroke:rgb(246,147,147);stroke-width:0.01" />
<line x1="1" y1="0.754227" x2="0.830417" y2="1" style="stroke:rgb(246,147,147);stroke-width:0.01" />
<line x1="1.65212" y1="0.506657" x2="1.59802" y2="0.523593" style="stroke:rgb(246,147,147);stroke-width:0.01" />
<line x1="1.65212" y1="0.506657" x2="1" y2="0.754227" style="stroke:rgb(246,147,147);stroke-width:0.01" />
<line x1="0.830417" y1="1" x2="1" y2="1" style="stroke:rgb(246,147,147);stroke-width:0.01" />
<line x1="1.97923" y1="1.45211" x2="1.89674" y2="1.47793" style="stroke:rgb(246,147,147);stroke-width:0.01" />
<line x1="1.97923" y1="1.45211" x2="1.12515" y2="1.77635" style="stroke:rgb(246,147,147);stroke-width:0.01" />
</g>
</svg>
