<svg xmlns="http://www.w3.org/2000/svg" viewBox="-1.5 -1.5 3 3">
<g transform="scale(1, -1)">
<path d="M0.700000 0.100000 L1.300000 0.900000 L1.000000 0.857143 L1.000000 1.000000 L0.750000 1.000000 L0.450000 0.600000 L0.520000 0.360000 L0.657143 0.400000 z " fill="rgb(245,195,195)" />
<path d="M0.000000 0.000000 L1.000000 0.000000 L1.000000 1.000000 L0.000000 1.000000  z" fill="none" stroke="rgb(128,128,128)" stroke-width="0.01" />
<line x1="0.7" y1="0.1" x2="1.3" y2="0.9" style="stroke:rgb(246,147,147);stroke-width:0.01" />
<line x1="0.65" y1="0.45" x2="0.95" y2="0.85" style="stroke:rgb(246,147,147);stroke-width:0.01" />
<line x1="0.45" y1="0.6" x2="0.75" y2="1" style="stroke:rgb(246,147,147);stroke-width:0.01" />
<line x1="1" y1="0.5" x2="1" y2="1" style="stroke:rgb(246,147,147);stroke-width:0.01" />
<line x1="0.7" y1="0.1" x2="0.65" y2="0.45" style="stroke:rgb(246,147,147);stroke-width:0.01" />
<line x1="1" y1="0.5" x2="0.95" y2="0.85" style="stroke:rgb(246,147,147);stroke-width:0.01" />
<line x1="0.52" y1="0.36" x2="0.45" y2="0.6" style="stroke:rgb(246,147,147);stroke-width:0.01" />
<line x1="0.52" y1="0.36" x2="1" y2="0.5" style="stroke:rgb(246,147,147);stroke-width:0.01" />
<line x1="0.65" y1="0.45" x2="1" y2="0.5" style="stroke:rgb(246,147,147);stroke-width:0.01" />
<line x1="1" y1="0.5" x2="0.75" y2="1" style="stroke:rgb(246,147,147);stroke-width:0.01" />
<line x1="0.85" y1="0.3" x2="0.45" y2="0.6" style="stroke:rgb(246,147,147);stroke-width:0.01" />
<line x1="1" y1="0.5" x2="0.45" y2="0.6" style="stroke:rgb(246,147,147);stroke-width:0.01" />
<line x1="0.95" y1="0.85" x2="1.3" y2="0.9" style="stroke:rgb(246,147,147);stroke-width:0.01" />
<line x1="0.75" y1="1" x2="1" y2="1" style="stroke:rgb(246,147,147);stroke-width:0.01" />
<line x1="1.15" y1="0.7" x2="0.75" y2="1" style="stroke:rgb(246,147,147);stroke-width:0.01" />
</g>
</svg>
