<svg xmlns="http://www.w3.org/2000/svg" viewBox="-1.5 -1.5 3 3">
<g transform="scale(1, -1)">
<path d="M0.158445 -0.368544 L0.242474 -0.331655 L0.233144 -0.310402 L0.688909 0.044344 L0.656201 0.106001 L-0.261125 0.335333 L-0.422295 0.237998 L-0.373031 0.127515 L-0.216375 0.114157 L-0.208592 0.036279 L-0.228369 0.026800 L-0.202185 -0.027830 L-0.067202 0.010005 z " fill="rgb(245,195,195)" />
<path d="M-0.520258 1.311111 L0.479742 1.311111 L0.479742 2.311111 L-0.520258 2.311111  z" fill="none" stroke="rgb(128,128,128)" stroke-width="0.01" />
<line x1="0.158445" y1="-0.368544" x2="0.242474" y2="-0.331655" style="stroke:rgb(246,147,147);stroke-width:0.01" />
<line x1="0.464433" y1="-0.0285675" x2="0.688909" y2="0.0443442" style="stroke:rgb(246,147,147);stroke-width:0.01" />
<line x1="0.158445" y1="-0.368544" x2="0.688909" y2="0.0443442" style="stroke:rgb(246,147,147);stroke-width:0.01" />
<line x1="0.568954" y1="0.0471909" x2="0.656201" y2="0.106001" style="stroke:rgb(246,147,147);stroke-width:0.01" />
<line x1="-0.202185" y1="-0.0278305" x2="0.454861" y2="0.156336" style="stroke:rgb(246,147,147);stroke-width:0.01" />
<line x1="0.568954" y1="0.0471909" x2="-0.373031" y2="0.127515" style="stroke:rgb(246,147,147);stroke-width:0.01" />
<line x1="-0.228369" y1="0.0267997" x2="0.183454" y2="0.224188" style="stroke:rgb(246,147,147);stroke-width:0.01" />
<line x1="0.296483" y1="0.0704249" x2="0.399913" y2="0.170073" style="stroke:rgb(246,147,147);stroke-width:0.01" />
<line x1="-0.228668" y1="0.115205" x2="-0.0243484" y2="0.276138" style="stroke:rgb(246,147,147);stroke-width:0.01" />
<line x1="0.656201" y1="0.106001" x2="-0.261125" y2="0.335333" style="stroke:rgb(246,147,147);stroke-width:0.01" />
<line x1="-0.422295" y1="0.237998" x2="-0.261125" y2="0.335333" style="stroke:rgb(246,147,147);stroke-width:0.01" />
<line x1="-0.332554" y1="0.124064" x2="-0.279634" y2="0.171757" style="stroke:rgb(246,147,147);stroke-width:0.01" />
<line x1="-0.373031" y1="0.127515" x2="-0.237899" y2="0.329526" style="stroke:rgb(246,147,147);stroke-width:0.01" />
<line x1="-0.228668" y1="0.115205" x2="-0.279634" y2="0.171757" style="stroke:rgb(246,147,147);stroke-width:0.01" />
<line x1="-0.332554" y1="0.124064" x2="-0.422295" y2="0.237998" style="stroke:rgb(246,147,147);stroke-width:0.01" />
<line x1="0.158445" y1="-0.368544" x2="-0.261125" y2="0.335333" style="stroke:rgb(246,147,147);stroke-width:0.01" />
<line x1="-0.373031" y1="0.127515" x2="-0.422295" y2="0.237998" style="stroke:rgb(246,147,147);stroke-width:0.01" />
<line x1="-0.202185" y1="-0.0278305" x2="-0.228369" y2="0.0267997" style="stroke:rgb(246,147,147);stroke-width:0.01" />
<line x1="0.568954" y1="0.0471909" x2="0.454861" y2="0.156336" style="stroke:rgb(246,147,147);stroke-width:0.01" />
<line x1="0.296483" y1="0.0704249" x2="0.183454" y2="0.224188" style="stroke:rgb(246,147,147);stroke-width:0.01" />
<line x1="0.242474" y1="-0.331655" x2="-0.0243484" y2="0.276138" style="stroke:rgb(246,147,147);stroke-width:0.01" />
<line x1="-0.202185" y1="-0.0278305" x2="-0.237899" y2="0.329526" style="stroke:rgb(246,147,147);stroke-width:0.01" />
<line x1="0.464433" y1="-0.0285675" x2="0.399913" y2="0.170073" style="stroke:rgb(246,147,147);stroke-width:0.01" />
<line x1="0.688909" y1="0.0443442" x2="0.656201" y2="0.106001" style="stroke:rgb(246,147,147);stroke-width:0.01" />
</g>
</svg>
