<svg xmlns="http://www.w3.org/2000/svg" viewBox="-1.5 -1.5 3 3">
<g transform="scale(1, -1)">
<path d="M0.104129 0.193748 L0.104512 0.200000 L0.123011 0.200000 L0.235635 0.491498 L0.487575 0.693634 L0.252901 0.986128 L0.157679 1.067108 L0.027015 1.011493 L0.002160 0.200000 z " fill="rgb(245,195,195)" />
<path d="M0.000000 0.000000 L1.000000 0.000000 L1.000000 1.000000 L0.000000 1.000000  z" fill="none" stroke="rgb(128,128,128)" stroke-width="0.01" />
<line x1="0.123011" y1="0.2" x2="0.370238" y2="0.839881" style="stroke:rgb(246,147,147);stroke-width:0.01" />
<line x1="0.104129" y1="0.193748" x2="0.157679" y2="1.06711" style="stroke:rgb(246,147,147);stroke-width:0.01" />
<line x1="0.0975824" y1="0.380735" x2="0.252901" y2="0.986128" style="stroke:rgb(246,147,147);stroke-width:0.01" />
<line x1="0.00216003" y1="0.2" x2="0.027015" y2="1.01149" style="stroke:rgb(246,147,147);stroke-width:0.01" />
<line x1="0.123011" y1="0.2" x2="0.00543118" y2="0.3068" style="stroke:rgb(246,147,147);stroke-width:0.01" />
<line x1="0.00543118" y1="0.3068" x2="0.487575" y2="0.693634" style="stroke:rgb(246,147,147);stroke-width:0.01" />
<line x1="0.104129" y1="0.193748" x2="0.00216003" y2="0.2" style="stroke:rgb(246,147,147);stroke-width:0.01" />
<line x1="0.00216003" y1="0.2" x2="0.123011" y2="0.2" style="stroke:rgb(246,147,147);stroke-width:0.01" />
<line x1="0.217187" y1="0.44375" x2="0.0177696" y2="0.70964" style="stroke:rgb(246,147,147);stroke-width:0.01" />
<line x1="0.0177696" y1="0.70964" x2="0.252901" y2="0.986128" style="stroke:rgb(246,147,147);stroke-width:0.01" />
<line x1="0.0975824" y1="0.380735" x2="0.00839652" y2="0.403616" style="stroke:rgb(246,147,147);stroke-width:0.01" />
<line x1="0.00839652" y1="0.403616" x2="0.217187" y2="0.44375" style="stroke:rgb(246,147,147);stroke-width:0.01" />
<line x1="0.487575" y1="0.693634" x2="0.252901" y2="0.986128" style="stroke:rgb(246,147,147);stroke-width:0.01" />
<line x1="0.252901" y1="0.986128" x2="0.157679" y2="1.06711" style="stroke:rgb(246,147,147);stroke-width:0.01" />
<line x1="0.370238" y1="0.839881" x2="0.027015" y2="1.01149" style="stroke:rgb(246,147,147);stroke-width:0.01" />
<line x1="0.027015" y1="1.01149" x2="0.157679" y2="1.06711" style="stroke:rgb(246,147,147);stroke-width:0.01" />
<line x1="0.370238" y1="0.839881" x2="0.0247302" y2="0.936897" style="stroke:rgb(246,147,147);stroke-width:0.01" />
<line x1="0.0247302" y1="0.936897" x2="0.252901" y2="0.986128" style="stroke:rgb(246,147,147);stroke-width:0.01" />
</g>
</svg>
