<svg xmlns="http://www.w3.org/2000/svg" viewBox="-1.5 -1.5 3 3">
<g transform="scale(1, -1)">
<path d="M-0.061940 -0.366653 L-0.061557 -0.360401 L-0.043057 -0.360401 L0.069567 -0.068903 L0.321507 0.133233 L0.086833 0.425727 L-0.008390 0.506707 L-0.139054 0.451092 L-0.163909 -0.360401 z " fill="rgb(245,195,195)" />
<path d="M-0.166069 -0.560401 L0.833931 -0.560401 L0.833931 0.439599 L-0.166069 0.439599  z" fill="none" stroke="rgb(128,128,128)" stroke-width="0.01" />
<line x1="-0.0430572" y1="-0.360401" x2="0.20417" y2="0.27948" style="stroke:rgb(246,147,147);stroke-width:0.01" />
<line x1="-0.06194" y1="-0.366653" x2="-0.00839005" y2="0.506707" style="stroke:rgb(246,147,147);stroke-width:0.01" />
<line x1="-0.0684862" y1="-0.179666" x2="0.0868325" y2="0.425727" style="stroke:rgb(246,147,147);stroke-width:0.01" />
<line x1="-0.163909" y1="-0.360401" x2="-0.139054" y2="0.451092" style="stroke:rgb(246,147,147);stroke-width:0.01" />
<line x1="-0.0430572" y1="-0.360401" x2="-0.160637" y2="-0.253601" style="stroke:rgb(246,147,147);stroke-width:0.01" />
<line x1="-0.160637" y1="-0.253601" x2="0.321507" y2="0.133233" style="stroke:rgb(246,147,147);stroke-width:0.01" />
<line x1="-0.06194" y1="-0.366653" x2="-0.163909" y2="-0.360401" style="stroke:rgb(246,147,147);stroke-width:0.01" />
<line x1="-0.163909" y1="-0.360401" x2="-0.0430572" y2="-0.360401" style="stroke:rgb(246,147,147);stroke-width:0.01" />
<line x1="0.051119" y1="-0.116651" x2="-0.148299" y2="0.14924" style="stroke:rgb(246,147,147);stroke-width:0.01" />
<line x1="-0.148299" y1="0.14924" x2="0.0868325" y2="0.425727" style="stroke:rgb(246,147,147);stroke-width:0.01" />
<line x1="-0.0684862" y1="-0.179666" x2="-0.157672" y2="-0.156785" style="stroke:rgb(246,147,147);stroke-width:0.01" />
<line x1="-0.157672" y1="-0.156785" x2="0.051119" y2="-0.116651" style="stroke:rgb(246,147,147);stroke-width:0.01" />
<line x1="0.321507" y1="0.133233" x2="0.0868325" y2="0.425727" style="stroke:rgb(246,147,147);stroke-width:0.01" />
<line x1="0.0868325" y1="0.425727" x2="-0.00839005" y2="0.506707" style="stroke:rgb(246,147,147);stroke-width:0.01" />
<line x1="0.20417" y1="0.27948" x2="-0.139054" y2="0.451092" style="stroke:rgb(246,147,147);stroke-width:0.01" />
<line x1="-0.139054" y1="0.451092" x2="-0.00839005" y2="0.506707" style="stroke:rgb(246,147,147);stroke-width:0.01" />
<line x1="0.20417" y1="0.27948" x2="-0.141338" y2="0.376496" style="stroke:rgb(246,147,147);stroke-width:0.01" />
<line x1="-0.141338" y1="0.376496" x2="0.0868325" y2="0.425727" style="stroke:rgb(246,147,147);stroke-width:0.01" />
</g>
</svg>
