<svg xmlns="http://www.w3.org/2000/svg" viewBox="-1.5 -1.5 3 3">
<g transform="scale(1, -1)">
<path d="M-0.697469 0.265375 L-0.641505 0.457250 L-0.848328 1.007211 L-1.014311 1.024526 L-1.212729 0.821446 L-1.144389 0.719559 L-1.099816 0.749456 L-1.044990 0.714500 L-0.898094 0.323891 z " fill="rgb(245,195,195)" />
<path d="M0.000000 0.000000 L1.000000 0.000000 L1.000000 1.000000 L0.000000 1.000000  z" fill="none" stroke="rgb(128,128,128)" stroke-width="0.01" />
<line x1="-1.14439" y1="0.719559" x2="-1.21273" y2="0.821446" style="stroke:rgb(246,147,147);stroke-width:0.01" />
<line x1="-1.10537" y1="0.753" x2="-1.1538" y2="0.881761" style="stroke:rgb(246,147,147);stroke-width:0.01" />
<line x1="-0.898094" y1="0.323891" x2="-1.06653" y2="0.771781" style="stroke:rgb(246,147,147);stroke-width:0.01" />
<line x1="-0.988673" y1="0.824004" x2="-1.07886" y2="0.958461" style="stroke:rgb(246,147,147);stroke-width:0.01" />
<line x1="-0.776" y1="0.543" x2="-0.82" y2="0.66" style="stroke:rgb(246,147,147);stroke-width:0.01" />
<line x1="-0.641505" y1="0.45725" x2="-0.848328" y2="1.00721" style="stroke:rgb(246,147,147);stroke-width:0.01" />
<line x1="-0.988673" y1="0.824004" x2="-1.01431" y2="1.02453" style="stroke:rgb(246,147,147);stroke-width:0.01" />
<line x1="-0.776" y1="0.543" x2="-0.793775" y2="0.7767" style="stroke:rgb(246,147,147);stroke-width:0.01" />
<line x1="-0.641505" y1="0.45725" x2="-1.21273" y2="0.821446" style="stroke:rgb(246,147,147);stroke-width:0.01" />
<line x1="-0.697469" y1="0.265375" x2="-0.898094" y2="0.323891" style="stroke:rgb(246,147,147);stroke-width:0.01" />
<line x1="-0.751505" y1="0.74975" x2="-1.07886" y2="0.958461" style="stroke:rgb(246,147,147);stroke-width:0.01" />
<line x1="-0.697469" y1="0.265375" x2="-0.641505" y2="0.45725" style="stroke:rgb(246,147,147);stroke-width:0.01" />
<line x1="-0.877469" y1="0.317875" x2="-0.751505" y2="0.74975" style="stroke:rgb(246,147,147);stroke-width:0.01" />
<line x1="-0.705156" y1="0.626504" x2="-0.82" y2="0.66" style="stroke:rgb(246,147,147);stroke-width:0.01" />
<line x1="-0.988673" y1="0.824004" x2="-1.1538" y2="0.881761" style="stroke:rgb(246,147,147);stroke-width:0.01" />
<line x1="-0.898094" y1="0.323891" x2="-0.705156" y2="0.626504" style="stroke:rgb(246,147,147);stroke-width:0.01" />
<line x1="-0.747266" y1="0.738477" x2="-1.06653" y2="0.771781" style="stroke:rgb(246,147,147);stroke-width:0.01" />
<line x1="-0.82" y1="0.66" x2="-0.747266" y2="0.738477" style="stroke:rgb(246,147,147);stroke-width:0.01" />
<line x1="-0.955156" y1="0.475625" x2="-0.686422" y2="0.576687" style="stroke:rgb(246,147,147);stroke-width:0.01" />
<line x1="-1.10537" y1="0.753" x2="-0.793775" y2="0.7767" style="stroke:rgb(246,147,147);stroke-width:0.01" />
<line x1="-1.06653" y1="0.771781" x2="-0.848328" y2="1.00721" style="stroke:rgb(246,147,147);stroke-width:0.01" />
<line x1="-0.848328" y1="1.00721" x2="-1.01431" y2="1.02453" style="stroke:rgb(246,147,147);stroke-width:0.01" />
<line x1="-1.21273" y1="0.821446" x2="-1.01431" y2="1.02453" style="stroke:rgb(246,147,147);stroke-width:0.01" />
<line x1="-1.14439" y1="0.719559" x2="-0.988673" y2="0.824004" style="stroke:rgb(246,147,147);stroke-width:0.01" />
</g>
</svg>
