<svg xmlns="http://www.w3.org/2000/svg" viewBox="-1.5 -1.5 3 3">
<g transform="scale(1, -1)">
<path d="M0.258268 -0.410538 L0.314232 -0.218663 L0.107409 0.331298 L-0.058575 0.348613 L-0.256992 0.145533 L-0.188653 0.043646 L-0.144079 0.073543 L-0.089253 0.038587 L0.057643 -0.352022 z " fill="rgb(245,195,195)" />
<path d="M0.955737 -0.675913 L1.955737 -0.675913 L1.955737 0.324087 L0.955737 0.324087  z" fill="none" stroke="rgb(128,128,128)" stroke-width="0.01" />
<line x1="-0.188653" y1="0.0436464" x2="-0.256992" y2="0.145533" style="stroke:rgb(246,147,147);stroke-width:0.01" />
<line x1="-0.149638" y1="0.0770875" x2="-0.198061" y2="0.205849" style="stroke:rgb(246,147,147);stroke-width:0.01" />
<line x1="0.057643" y1="-0.352022" x2="-0.110794" y2="0.0958687" style="stroke:rgb(246,147,147);stroke-width:0.01" />
<line x1="-0.0329364" y1="0.148091" x2="-0.123122" y2="0.282549" style="stroke:rgb(246,147,147);stroke-width:0.01" />
<line x1="0.179737" y1="-0.132913" x2="0.135737" y2="-0.0159125" style="stroke:rgb(246,147,147);stroke-width:0.01" />
<line x1="0.314232" y1="-0.218663" x2="0.107409" y2="0.331298" style="stroke:rgb(246,147,147);stroke-width:0.01" />
<line x1="-0.0329364" y1="0.148091" x2="-0.0585747" y2="0.348613" style="stroke:rgb(246,147,147);stroke-width:0.01" />
<line x1="0.179737" y1="-0.132913" x2="0.161962" y2="0.100787" style="stroke:rgb(246,147,147);stroke-width:0.01" />
<line x1="0.314232" y1="-0.218663" x2="-0.256992" y2="0.145533" style="stroke:rgb(246,147,147);stroke-width:0.01" />
<line x1="0.258268" y1="-0.410538" x2="0.057643" y2="-0.352022" style="stroke:rgb(246,147,147);stroke-width:0.01" />
<line x1="0.204232" y1="0.0738375" x2="-0.123122" y2="0.282549" style="stroke:rgb(246,147,147);stroke-width:0.01" />
<line x1="0.258268" y1="-0.410538" x2="0.314232" y2="-0.218663" style="stroke:rgb(246,147,147);stroke-width:0.01" />
<line x1="0.078268" y1="-0.358038" x2="0.204232" y2="0.0738375" style="stroke:rgb(246,147,147);stroke-width:0.01" />
<line x1="0.250581" y1="-0.0494086" x2="0.135737" y2="-0.0159125" style="stroke:rgb(246,147,147);stroke-width:0.01" />
<line x1="-0.0329364" y1="0.148091" x2="-0.198061" y2="0.205849" style="stroke:rgb(246,147,147);stroke-width:0.01" />
<line x1="0.057643" y1="-0.352022" x2="0.250581" y2="-0.0494086" style="stroke:rgb(246,147,147);stroke-width:0.01" />
<line x1="0.208471" y1="0.0625641" x2="-0.110794" y2="0.0958687" style="stroke:rgb(246,147,147);stroke-width:0.01" />
<line x1="0.135737" y1="-0.0159125" x2="0.208471" y2="0.0625641" style="stroke:rgb(246,147,147);stroke-width:0.01" />
<line x1="0.00058053" y1="-0.200288" x2="0.269315" y2="-0.099225" style="stroke:rgb(246,147,147);stroke-width:0.01" />
<line x1="-0.149638" y1="0.0770875" x2="0.161962" y2="0.100787" style="stroke:rgb(246,147,147);stroke-width:0.01" />
<line x1="-0.110794" y1="0.0958687" x2="0.107409" y2="0.331298" style="stroke:rgb(246,147,147);stroke-width:0.01" />
<line x1="0.107409" y1="0.331298" x2="-0.0585747" y2="0.348613" style="stroke:rgb(246,147,147);stroke-width:0.01" />
<line x1="-0.256992" y1="0.145533" x2="-0.0585747" y2="0.348613" style="stroke:rgb(246,147,147);stroke-width:0.01" />
<line x1="-0.188653" y1="0.0436464" x2="-0.0329364" y2="0.148091" style="stroke:rgb(246,147,147);stroke-width:0.01" />
</g>
</svg>
