<svg xmlns="http://www.w3.org/2000/svg" viewBox="-1.5 -1.5 3 3">
<g transform="scale(1, -1)">
<path d="M0.143902 -0.493336 L0.266513 -0.283782 L0.266513 -0.069840 L0.127030 -0.069840 L-0.115117 0.301572 L-0.142110 0.317366 L-0.175379 0.366309 L-0.198684 0.350467 L-0.172668 -0.418915 z " fill="rgb(245,195,195)" />
<path d="M-1.283487 -1.569840 L-0.283487 -1.569840 L-0.283487 -0.569840 L-1.283487 -0.569840  z" fill="none" stroke="rgb(128,128,128)" stroke-width="0.01" />
<line x1="0.143902" y1="-0.493336" x2="0.266513" y2="-0.283782" style="stroke:rgb(246,147,147);stroke-width:0.01" />
<line x1="-0.110723" y1="-0.433477" x2="0.113861" y2="-0.0496406" style="stroke:rgb(246,147,147);stroke-width:0.01" />
<line x1="0.266513" y1="-0.283782" x2="0.266513" y2="-0.06984" style="stroke:rgb(246,147,147);stroke-width:0.01" />
<line x1="-0.172668" y1="-0.418915" x2="-0.198684" y2="0.350467" style="stroke:rgb(246,147,147);stroke-width:0.01" />
<line x1="-0.110723" y1="-0.433477" x2="-0.135568" y2="-0.0665288" style="stroke:rgb(246,147,147);stroke-width:0.01" />
<line x1="0.143902" y1="-0.493336" x2="0.113861" y2="-0.0496406" style="stroke:rgb(246,147,147);stroke-width:0.01" />
<line x1="-0.0439548" y1="-0.319364" x2="-0.115117" y2="0.301572" style="stroke:rgb(246,147,147);stroke-width:0.01" />
<line x1="-0.172668" y1="-0.418915" x2="0.266513" y2="-0.283782" style="stroke:rgb(246,147,147);stroke-width:0.01" />
<line x1="-0.198684" y1="0.350467" x2="-0.175379" y2="0.366309" style="stroke:rgb(246,147,147);stroke-width:0.01" />
<line x1="0.266513" y1="-0.283782" x2="-0.115117" y2="0.301572" style="stroke:rgb(246,147,147);stroke-width:0.01" />
<line x1="-0.0439548" y1="-0.319364" x2="0.266513" y2="-0.283782" style="stroke:rgb(246,147,147);stroke-width:0.01" />
<line x1="0.266513" y1="-0.283782" x2="-0.175379" y2="0.366309" style="stroke:rgb(246,147,147);stroke-width:0.01" />
<line x1="0.143902" y1="-0.493336" x2="-0.172668" y2="-0.418915" style="stroke:rgb(246,147,147);stroke-width:0.01" />
<line x1="-0.0724198" y1="-0.0709894" x2="0.113861" y2="-0.0496406" style="stroke:rgb(246,147,147);stroke-width:0.01" />
<line x1="-0.184472" y1="-0.06984" x2="0.113861" y2="-0.0496406" style="stroke:rgb(246,147,147);stroke-width:0.01" />
<line x1="-0.184472" y1="-0.06984" x2="0.266513" y2="-0.06984" style="stroke:rgb(246,147,147);stroke-width:0.01" />
<line x1="-0.115117" y1="0.301572" x2="-0.198684" y2="0.350467" style="stroke:rgb(246,147,147);stroke-width:0.01" />
</g>
</svg>
