<svg xmlns="http://www.w3.org/2000/svg" viewBox="-1.5 -1.5 3 3">
<g transform="scale(1, -1)">
<path d="M0.067444 -0.184892 L0.147671 -0.124722 L0.159693 -0.120618 L0.158358 -0.116707 L0.265609 -0.036269 L0.018344 0.293419 L-0.408632 0.147652 L-0.408488 0.142137 z " fill="rgb(245,195,195)" />
<path d="M-1.434391 -1.211269 L-0.434391 -1.211269 L-0.434391 -0.211269 L-1.434391 -0.211269  z" fill="none" stroke="rgb(128,128,128)" stroke-width="0.01" />
<line x1="0.0674444" y1="-0.184892" x2="0.119308" y2="-0.00232163" style="stroke:rgb(246,147,147);stroke-width:0.01" />
<line x1="0.0674444" y1="-0.184892" x2="0.265609" y2="-0.0362686" style="stroke:rgb(246,147,147);stroke-width:0.01" />
<line x1="-0.408488" y1="0.142137" x2="-0.408632" y2="0.147652" style="stroke:rgb(246,147,147);stroke-width:0.01" />
<line x1="-0.221267" y1="0.0134915" x2="-0.228531" y2="0.205919" style="stroke:rgb(246,147,147);stroke-width:0.01" />
<line x1="-0.0928474" y1="-0.0747503" x2="-0.105094" y2="0.249669" style="stroke:rgb(246,147,147);stroke-width:0.01" />
<line x1="0.0355727" y1="-0.162992" x2="0.0183435" y2="0.293419" style="stroke:rgb(246,147,147);stroke-width:0.01" />
<line x1="0.0355727" y1="-0.162992" x2="0.159693" y2="-0.120618" style="stroke:rgb(246,147,147);stroke-width:0.01" />
<line x1="0.159693" y1="-0.120618" x2="0.0183435" y2="0.293419" style="stroke:rgb(246,147,147);stroke-width:0.01" />
<line x1="-0.0928474" y1="-0.0747503" x2="0.119308" y2="-0.00232163" style="stroke:rgb(246,147,147);stroke-width:0.01" />
<line x1="-0.221267" y1="0.0134915" x2="0.0789221" y2="0.115975" style="stroke:rgb(246,147,147);stroke-width:0.01" />
<line x1="-0.408488" y1="0.142137" x2="0.0183435" y2="0.293419" style="stroke:rgb(246,147,147);stroke-width:0.01" />
<line x1="-0.408632" y1="0.147652" x2="0.0183435" y2="0.293419" style="stroke:rgb(246,147,147);stroke-width:0.01" />
<line x1="0.0615276" y1="-0.180826" x2="-0.228531" y2="0.205919" style="stroke:rgb(246,147,147);stroke-width:0.01" />
<line x1="0.165609" y1="-0.111269" x2="-0.105094" y2="0.249669" style="stroke:rgb(246,147,147);stroke-width:0.01" />
<line x1="0.265609" y1="-0.0362686" x2="0.0183435" y2="0.293419" style="stroke:rgb(246,147,147);stroke-width:0.01" />
<line x1="0.0680713" y1="-0.182685" x2="0.0615276" y2="-0.180826" style="stroke:rgb(246,147,147);stroke-width:0.01" />
<line x1="0.0674444" y1="-0.184892" x2="-0.408488" y2="0.142137" style="stroke:rgb(246,147,147);stroke-width:0.01" />
<line x1="0.119308" y1="-0.00232163" x2="-0.408632" y2="0.147652" style="stroke:rgb(246,147,147);stroke-width:0.01" />
</g>
</svg>
