<svg xmlns="http://www.w3.org/2000/svg" viewBox="-1.5 -1.5 3 3">
<g transform="scale(1, -1)">
<path d="M-6452.092975 24969.798412 L-6452.120916 24970.046845 L-6451.872482 24970.074786 L-6451.651989 24970.351161 L-6451.900423 24970.323220 L-6451.928364 24970.571654 L-6452.204738 24970.792146 L-6452.176797 24970.543713 L-6452.425231 24970.515772 L-6452.645724 24970.239397 L-6452.397290 24970.267338 L-6452.369350 24970.018905 z " fill="rgb(245,195,195)" />
<path d="M0.000000 0.000000 L1.000000 0.000000 L1.000000 1.000000 L0.000000 1.000000  z" fill="none" stroke="rgb(128,128,128)" stroke-width="0.01" />
<line x1="-6452.37" y1="24970" x2="-6452.43" y2="24970.5" style="stroke:rgb(246,147,147);stroke-width:0.01" />
<line x1="-6452.09" y1="24969.8" x2="-6452.2" y2="24970.8" style="stroke:rgb(246,147,147);stroke-width:0.01" />
<line x1="-6451.87" y1="24970.1" x2="-6451.93" y2="24970.6" style="stroke:rgb(246,147,147);stroke-width:0.01" />
<line x1="-6452.09" y1="24969.8" x2="-6452.37" y2="24970" style="stroke:rgb(246,147,147);stroke-width:0.01" />
<line x1="-6451.87" y1="24970.1" x2="-6452.43" y2="24970.5" style="stroke:rgb(246,147,147);stroke-width:0.01" />
<line x1="-6451.93" y1="24970.6" x2="-6452.2" y2="24970.8" style="stroke:rgb(246,147,147);stroke-width:0.01" />
<line x1="-6451.87" y1="24970.1" x2="-6451.65" y2="24970.4" style="stroke:rgb(246,147,147);stroke-width:0.01" />
<line x1="-6452.37" y1="24970" x2="-6451.93" y2="24970.6" style="stroke:rgb(246,147,147);stroke-width:0.01" />
<line x1="-6452.65" y1="24970.2" x2="-6452.43" y2="24970.5" style="stroke:rgb(246,147,147);stroke-width:0.01" />
<line x1="-6452.37" y1="24970" x2="-6451.87" y2="24970.1" style="stroke:rgb(246,147,147);stroke-width:0.01" />
<line x1="-6452.65" y1="24970.2" x2="-6451.65" y2="24970.4" style="stroke:rgb(246,147,147);stroke-width:0.01" />
<line x1="-6452.43" y1="24970.5" x2="-6451.93" y2="24970.6" style="stroke:rgb(246,147,147);stroke-width:0.01" />
</g>
</svg>
