<svg xmlns="http://www.w3.org/2000/svg" viewBox="-1.5 -1.5 3 3">
<g transform="scale(1, -1)">
<path d="M0.055882 -0.496867 L0.027941 -0.248434 L0.276374 -0.220493 L0.496867 0.055882 L0.248434 0.027941 L0.220493 0.276374 L-0.055882 0.496867 L-0.027941 0.248434 L-0.276374 0.220493 L-0.496867 -0.055882 L-0.248434 -0.027941 L-0.220493 -0.276374 z " fill="rgb(245,195,195)" />
<path d="M6452.148857 -24970.295279 L6453.148857 -24970.295279 L6453.148857 -24969.295279 L6452.148857 -24969.295279  z" fill="none" stroke="rgb(128,128,128)" stroke-width="0.01" />
<line x1="-0.220493" y1="-0.276374" x2="-0.276374" y2="0.220493" style="stroke:rgb(246,147,147);stroke-width:0.01" />
<line x1="0.0558816" y1="-0.496867" x2="-0.0558816" y2="0.496867" style="stroke:rgb(246,147,147);stroke-width:0.01" />
<line x1="0.276374" y1="-0.220493" x2="0.220493" y2="0.276374" style="stroke:rgb(246,147,147);stroke-width:0.01" />
<line x1="0.0558816" y1="-0.496867" x2="-0.220493" y2="-0.276374" style="stroke:rgb(246,147,147);stroke-width:0.01" />
<line x1="0.276374" y1="-0.220493" x2="-0.276374" y2="0.220493" style="stroke:rgb(246,147,147);stroke-width:0.01" />
<line x1="0.220493" y1="0.276374" x2="-0.0558816" y2="0.496867" style="stroke:rgb(246,147,147);stroke-width:0.01" />
<line x1="0.276374" y1="-0.220493" x2="0.496867" y2="0.0558816" style="stroke:rgb(246,147,147);stroke-width:0.01" />
<line x1="-0.220493" y1="-0.276374" x2="0.220493" y2="0.276374" style="stroke:rgb(246,147,147);stroke-width:0.01" />
<line x1="-0.496867" y1="-0.0558816" x2="-0.276374" y2="0.220493" style="stroke:rgb(246,147,147);stroke-width:0.01" />
<line x1="-0.220493" y1="-0.276374" x2="0.276374" y2="-0.220493" style="stroke:rgb(246,147,147);stroke-width:0.01" />
<line x1="-0.496867" y1="-0.0558816" x2="0.496867" y2="0.0558816" style="stroke:rgb(246,147,147);stroke-width:0.01" />
<line x1="-0.276374" y1="0.220493" x2="0.220493" y2="0.276374" style="stroke:rgb(246,147,147);stroke-width:0.01" />
</g>
</svg>
