<svg xmlns="http://www.w3.org/2000/svg" viewBox="-1.5 -1.5 3 3">
<g transform="scale(1, -1)">
<path d="M0.318872 -0.385124 L0.159436 -0.192562 L0.351998 -0.033126 L0.385124 0.318872 L0.192562 0.159436 L0.033126 0.351998 L-0.318872 0.385124 L-0.159436 0.192562 L-0.351998 0.033126 L-0.385124 -0.318872 L-0.192562 -0.159436 L-0.033126 -0.351998 z " fill="rgb(245,195,195)" />
<path d="M-27066.637638 28742.166404 L-27065.637638 28742.166404 L-27065.637638 28743.166404 L-27066.637638 28743.166404  z" fill="none" stroke="rgb(128,128,128)" stroke-width="0.01" />
<line x1="-0.0331259" y1="-0.351998" x2="0.351998" y2="-0.0331259" style="stroke:rgb(246,147,147);stroke-width:0.01" />
<line x1="-0.385124" y1="-0.318872" x2="0.385124" y2="0.318872" style="stroke:rgb(246,147,147);stroke-width:0.01" />
<line x1="-0.351998" y1="0.0331259" x2="0.0331259" y2="0.351998" style="stroke:rgb(246,147,147);stroke-width:0.01" />
<line x1="0.318872" y1="-0.385124" x2="-0.0331259" y2="-0.351998" style="stroke:rgb(246,147,147);stroke-width:0.01" />
<line x1="0.351998" y1="-0.0331259" x2="-0.351998" y2="0.0331259" style="stroke:rgb(246,147,147);stroke-width:0.01" />
<line x1="0.0331259" y1="0.351998" x2="-0.318872" y2="0.385124" style="stroke:rgb(246,147,147);stroke-width:0.01" />
<line x1="0.351998" y1="-0.0331259" x2="0.385124" y2="0.318872" style="stroke:rgb(246,147,147);stroke-width:0.01" />
<line x1="-0.0331259" y1="-0.351998" x2="0.0331259" y2="0.351998" style="stroke:rgb(246,147,147);stroke-width:0.01" />
<line x1="-0.385124" y1="-0.318872" x2="-0.351998" y2="0.0331259" style="stroke:rgb(246,147,147);stroke-width:0.01" />
<line x1="-0.0331259" y1="-0.351998" x2="-0.351998" y2="0.0331259" style="stroke:rgb(246,147,147);stroke-width:0.01" />
<line x1="0.318872" y1="-0.385124" x2="-0.318872" y2="0.385124" style="stroke:rgb(246,147,147);stroke-width:0.01" />
<line x1="0.351998" y1="-0.0331259" x2="0.0331259" y2="0.351998" style="stroke:rgb(246,147,147);stroke-width:0.01" />
</g>
</svg>
