<svg xmlns="http://www.w3.org/2000/svg" viewBox="-1.5 -1.5 3 3">
<g transform="scale(1, -1)">
<path d="M27066.956511 -28742.551528 L27066.797074 -28742.358966 L27066.989636 -28742.199530 L27067.022762 -28741.847532 L27066.830200 -28742.006968 L27066.670764 -28741.814406 L27066.318766 -28741.781280 L27066.478202 -28741.973842 L27066.285640 -28742.133278 L27066.252514 -28742.485276 L27066.445076 -28742.325840 L27066.604512 -28742.518402 z " fill="rgb(245,195,195)" />
<path d="M0.000000 0.000000 L1.000000 0.000000 L1.000000 1.000000 L0.000000 1.000000  z" fill="none" stroke="rgb(128,128,128)" stroke-width="0.01" />
<line x1="27066.6" y1="-28742.5" x2="27067" y2="-28742.2" style="stroke:rgb(246,147,147);stroke-width:0.01" />
<line x1="27066.3" y1="-28742.5" x2="27067" y2="-28741.8" style="stroke:rgb(246,147,147);stroke-width:0.01" />
<line x1="27066.3" y1="-28742.1" x2="27066.7" y2="-28741.8" style="stroke:rgb(246,147,147);stroke-width:0.01" />
<line x1="27067" y1="-28742.6" x2="27066.6" y2="-28742.5" style="stroke:rgb(246,147,147);stroke-width:0.01" />
<line x1="27067" y1="-28742.2" x2="27066.3" y2="-28742.1" style="stroke:rgb(246,147,147);stroke-width:0.01" />
<line x1="27066.7" y1="-28741.8" x2="27066.3" y2="-28741.8" style="stroke:rgb(246,147,147);stroke-width:0.01" />
<line x1="27067" y1="-28742.2" x2="27067" y2="-28741.8" style="stroke:rgb(246,147,147);stroke-width:0.01" />
<line x1="27066.6" y1="-28742.5" x2="27066.7" y2="-28741.8" style="stroke:rgb(246,147,147);stroke-width:0.01" />
<line x1="27066.3" y1="-28742.5" x2="27066.3" y2="-28742.1" style="stroke:rgb(246,147,147);stroke-width:0.01" />
<line x1="27066.6" y1="-28742.5" x2="27066.3" y2="-28742.1" style="stroke:rgb(246,147,147);stroke-width:0.01" />
<line x1="27067" y1="-28742.6" x2="27066.3" y2="-28741.8" style="stroke:rgb(246,147,147);stroke-width:0.01" />
<line x1="27067" y1="-28742.2" x2="27066.7" y2="-28741.8" style="stroke:rgb(246,147,147);stroke-width:0.01" />
</g>
</svg>
