<svg xmlns="http://www.w3.org/2000/svg" viewBox="-1.5 -1.5 3 3">
<g transform="scale(1, -1)">
<path d="M0.140500 -0.479854 L0.070250 -0.239927 L0.310177 -0.169677 L0.479854 0.140500 L0.239927 0.070250 L0.169677 0.310177 L-0.140500 0.479854 L-0.070250 0.239927 L-0.310177 0.169677 L-0.479854 -0.140500 L-0.239927 -0.070250 L-0.169677 -0.310177 z " fill="rgb(245,195,195)" />
<path d="M-610.929975 -254.147006 L-609.929975 -254.147006 L-609.929975 -253.147006 L-610.929975 -253.147006  z" fill="none" stroke="rgb(128,128,128)" stroke-width="0.01" />
<line x1="0.310177" y1="-0.169677" x2="0.479854" y2="0.1405" style="stroke:rgb(246,147,147);stroke-width:0.01" />
<line x1="-0.169677" y1="-0.310177" x2="0.169677" y2="0.310177" style="stroke:rgb(246,147,147);stroke-width:0.01" />
<line x1="-0.479854" y1="-0.1405" x2="-0.310177" y2="0.169677" style="stroke:rgb(246,147,147);stroke-width:0.01" />
<line x1="-0.169677" y1="-0.310177" x2="0.310177" y2="-0.169677" style="stroke:rgb(246,147,147);stroke-width:0.01" />
<line x1="-0.479854" y1="-0.1405" x2="0.479854" y2="0.1405" style="stroke:rgb(246,147,147);stroke-width:0.01" />
<line x1="-0.310177" y1="0.169677" x2="0.169677" y2="0.310177" style="stroke:rgb(246,147,147);stroke-width:0.01" />
<line x1="-0.169677" y1="-0.310177" x2="-0.310177" y2="0.169677" style="stroke:rgb(246,147,147);stroke-width:0.01" />
<line x1="0.1405" y1="-0.479854" x2="-0.1405" y2="0.479854" style="stroke:rgb(246,147,147);stroke-width:0.01" />
<line x1="0.310177" y1="-0.169677" x2="0.169677" y2="0.310177" style="stroke:rgb(246,147,147);stroke-width:0.01" />
<line x1="0.1405" y1="-0.479854" x2="-0.169677" y2="-0.310177" style="stroke:rgb(246,147,147);stroke-width:0.01" />
<line x1="0.310177" y1="-0.169677" x2="-0.310177" y2="0.169677" style="stroke:rgb(246,147,147);stroke-width:0.01" />
<line x1="0.169677" y1="0.310177" x2="-0.1405" y2="0.479854" style="stroke:rgb(246,147,147);stroke-width:0.01" />
</g>
</svg>
