<svg xmlns="http://www.w3.org/2000/svg" viewBox="-1.5 -1.5 3 3">
<g transform="scale(1, -1)">
<path d="M0.269725 -0.421009 L0.134862 -0.210505 L0.345367 -0.075642 L0.421009 0.269725 L0.210505 0.134862 L0.075642 0.345367 L-0.269725 0.421009 L-0.134862 0.210505 L-0.345367 0.075642 L-0.421009 -0.269725 L-0.210505 -0.134862 L-0.075642 -0.345367 z " fill="rgb(245,195,195)" />
<path d="M2957.060936 -17.439438 L2958.060936 -17.439438 L2958.060936 -16.439438 L2957.060936 -16.439438  z" fill="none" stroke="rgb(128,128,128)" stroke-width="0.01" />
<line x1="-0.0756422" y1="-0.345367" x2="-0.345367" y2="0.0756422" style="stroke:rgb(246,147,147);stroke-width:0.01" />
<line x1="0.269725" y1="-0.421009" x2="-0.269725" y2="0.421009" style="stroke:rgb(246,147,147);stroke-width:0.01" />
<line x1="0.345367" y1="-0.0756422" x2="0.0756422" y2="0.345367" style="stroke:rgb(246,147,147);stroke-width:0.01" />
<line x1="0.269725" y1="-0.421009" x2="-0.0756422" y2="-0.345367" style="stroke:rgb(246,147,147);stroke-width:0.01" />
<line x1="0.345367" y1="-0.0756422" x2="-0.345367" y2="0.0756422" style="stroke:rgb(246,147,147);stroke-width:0.01" />
<line x1="0.0756422" y1="0.345367" x2="-0.269725" y2="0.421009" style="stroke:rgb(246,147,147);stroke-width:0.01" />
<line x1="0.345367" y1="-0.0756422" x2="0.421009" y2="0.269725" style="stroke:rgb(246,147,147);stroke-width:0.01" />
<line x1="-0.0756422" y1="-0.345367" x2="0.0756422" y2="0.345367" style="stroke:rgb(246,147,147);stroke-width:0.01" />
<line x1="-0.421009" y1="-0.269725" x2="-0.345367" y2="0.0756422" style="stroke:rgb(246,147,147);stroke-width:0.01" />
<line x1="-0.0756422" y1="-0.345367" x2="0.345367" y2="-0.0756422" style="stroke:rgb(246,147,147);stroke-width:0.01" />
<line x1="-0.421009" y1="-0.269725" x2="0.421009" y2="0.269725" style="stroke:rgb(246,147,147);stroke-width:0.01" />
<line x1="-0.345367" y1="0.0756422" x2="0.0756422" y2="0.345367" style="stroke:rgb(246,147,147);stroke-width:0.01" />
</g>
</svg>
