<svg xmlns="http://www.w3.org/2000/svg" viewBox="-1.5 -1.5 3 3">
<g transform="scale(1, -1)">
<path d="M-2956.791211 17.018429 L-2956.926074 17.228934 L-2956.715569 17.363796 L-2956.639927 17.709163 L-2956.850431 17.574301 L-2956.985294 17.784805 L-2957.330661 17.860447 L-2957.195798 17.649943 L-2957.406303 17.515080 L-2957.481945 17.169714 L-2957.271440 17.304576 L-2957.136578 17.094071 z " fill="rgb(245,195,195)" />
<path d="M0.000000 0.000000 L1.000000 0.000000 L1.000000 1.000000 L0.000000 1.000000  z" fill="none" stroke="rgb(128,128,128)" stroke-width="0.01" />
<line x1="-2957.14" y1="17.0941" x2="-2957.41" y2="17.5151" style="stroke:rgb(246,147,147);stroke-width:0.01" />
<line x1="-2956.79" y1="17.0184" x2="-2957.33" y2="17.8604" style="stroke:rgb(246,147,147);stroke-width:0.01" />
<line x1="-2956.72" y1="17.3638" x2="-2956.99" y2="17.7848" style="stroke:rgb(246,147,147);stroke-width:0.01" />
<line x1="-2956.79" y1="17.0184" x2="-2957.14" y2="17.0941" style="stroke:rgb(246,147,147);stroke-width:0.01" />
<line x1="-2956.72" y1="17.3638" x2="-2957.41" y2="17.5151" style="stroke:rgb(246,147,147);stroke-width:0.01" />
<line x1="-2956.99" y1="17.7848" x2="-2957.33" y2="17.8604" style="stroke:rgb(246,147,147);stroke-width:0.01" />
<line x1="-2956.72" y1="17.3638" x2="-2956.64" y2="17.7092" style="stroke:rgb(246,147,147);stroke-width:0.01" />
<line x1="-2957.14" y1="17.0941" x2="-2956.99" y2="17.7848" style="stroke:rgb(246,147,147);stroke-width:0.01" />
<line x1="-2957.48" y1="17.1697" x2="-2957.41" y2="17.5151" style="stroke:rgb(246,147,147);stroke-width:0.01" />
<line x1="-2957.14" y1="17.0941" x2="-2956.72" y2="17.3638" style="stroke:rgb(246,147,147);stroke-width:0.01" />
<line x1="-2957.48" y1="17.1697" x2="-2956.64" y2="17.7092" style="stroke:rgb(246,147,147);stroke-width:0.01" />
<line x1="-2957.41" y1="17.5151" x2="-2956.99" y2="17.7848" style="stroke:rgb(246,147,147);stroke-width:0.01" />
</g>
</svg>
