<svg xmlns="http://www.w3.org/2000/svg" viewBox="-1.5 -1.5 3 3">
<g transform="scale(1, -1)">
<path d="M38543.263627 27370.567091 L38543.348130 27370.802377 L38543.583416 27370.717874 L38543.903204 27370.868656 L38543.667919 27370.953159 L38543.752422 27371.188445 L38543.601639 27371.508233 L38543.517136 27371.272948 L38543.281851 27371.357451 L38542.962062 27371.206668 L38543.197348 27371.122165 L38543.112845 27370.886880 z " fill="rgb(245,195,195)" />
<path d="M0.000000 0.000000 L1.000000 0.000000 L1.000000 1.000000 L0.000000 1.000000  z" fill="none" stroke="rgb(128,128,128)" stroke-width="0.01" />
<line x1="38543.6" y1="27370.7" x2="38543.8" y2="27371.2" style="stroke:rgb(246,147,147);stroke-width:0.01" />
<line x1="38543.3" y1="27370.6" x2="38543.6" y2="27371.5" style="stroke:rgb(246,147,147);stroke-width:0.01" />
<line x1="38543.1" y1="27370.9" x2="38543.3" y2="27371.4" style="stroke:rgb(246,147,147);stroke-width:0.01" />
<line x1="38543.6" y1="27370.7" x2="38543.9" y2="27370.9" style="stroke:rgb(246,147,147);stroke-width:0.01" />
<line x1="38543.1" y1="27370.9" x2="38543.8" y2="27371.2" style="stroke:rgb(246,147,147);stroke-width:0.01" />
<line x1="38543" y1="27371.2" x2="38543.3" y2="27371.4" style="stroke:rgb(246,147,147);stroke-width:0.01" />
<line x1="38543.3" y1="27370.6" x2="38543.1" y2="27370.9" style="stroke:rgb(246,147,147);stroke-width:0.01" />
<line x1="38543.6" y1="27370.7" x2="38543.3" y2="27371.4" style="stroke:rgb(246,147,147);stroke-width:0.01" />
<line x1="38543.8" y1="27371.2" x2="38543.6" y2="27371.5" style="stroke:rgb(246,147,147);stroke-width:0.01" />
<line x1="38543.6" y1="27370.7" x2="38543.1" y2="27370.9" style="stroke:rgb(246,147,147);stroke-width:0.01" />
<line x1="38543.9" y1="27370.9" x2="38543" y2="27371.2" style="stroke:rgb(246,147,147);stroke-width:0.01" />
<line x1="38543.8" y1="27371.2" x2="38543.3" y2="27371.4" style="stroke:rgb(246,147,147);stroke-width:0.01" />
</g>
</svg>
