<svg xmlns="http://www.w3.org/2000/svg" viewBox="-1.5 -1.5 3 3">
<g transform="scale(1, -1)">
<path d="M-3226.500501 2038.931492 L-3226.518245 2039.180862 L-3226.268876 2039.198607 L-3226.037251 2039.465721 L-3226.286620 2039.447976 L-3226.304365 2039.697345 L-3226.571479 2039.928970 L-3226.553735 2039.679601 L-3226.803104 2039.661856 L-3227.034729 2039.394742 L-3226.785359 2039.412487 L-3226.767615 2039.163117 z " fill="rgb(245,195,195)" />
<path d="M0.000000 0.000000 L1.000000 0.000000 L1.000000 1.000000 L0.000000 1.000000  z" fill="none" stroke="rgb(128,128,128)" stroke-width="0.01" />
<line x1="-3226.5" y1="2038.93" x2="-3226.77" y2="2039.16" style="stroke:rgb(246,147,147);stroke-width:0.01" />
<line x1="-3226.27" y1="2039.2" x2="-3226.8" y2="2039.66" style="stroke:rgb(246,147,147);stroke-width:0.01" />
<line x1="-3226.3" y1="2039.7" x2="-3226.57" y2="2039.93" style="stroke:rgb(246,147,147);stroke-width:0.01" />
<line x1="-3226.77" y1="2039.16" x2="-3226.8" y2="2039.66" style="stroke:rgb(246,147,147);stroke-width:0.01" />
<line x1="-3226.5" y1="2038.93" x2="-3226.57" y2="2039.93" style="stroke:rgb(246,147,147);stroke-width:0.01" />
<line x1="-3226.27" y1="2039.2" x2="-3226.3" y2="2039.7" style="stroke:rgb(246,147,147);stroke-width:0.01" />
<line x1="-3226.77" y1="2039.16" x2="-3226.27" y2="2039.2" style="stroke:rgb(246,147,147);stroke-width:0.01" />
<line x1="-3227.03" y1="2039.39" x2="-3226.04" y2="2039.47" style="stroke:rgb(246,147,147);stroke-width:0.01" />
<line x1="-3226.8" y1="2039.66" x2="-3226.3" y2="2039.7" style="stroke:rgb(246,147,147);stroke-width:0.01" />
<line x1="-3226.27" y1="2039.2" x2="-3226.04" y2="2039.47" style="stroke:rgb(246,147,147);stroke-width:0.01" />
<line x1="-3226.77" y1="2039.16" x2="-3226.3" y2="2039.7" style="stroke:rgb(246,147,147);stroke-width:0.01" />
<line x1="-3227.03" y1="2039.39" x2="-3226.8" y2="2039.66" style="stroke:rgb(246,147,147);stroke-width:0.01" />
</g>
</svg>
