<svg xmlns="http://www.w3.org/2000/svg" viewBox="-1.5 -1.5 3 3">
<g transform="scale(1, -1)">
<path d="M34366.389172 -4323.655699 L34366.242328 -4323.453371 L34366.444656 -4323.306527 L34366.500140 -4322.957354 L34366.297811 -4323.104199 L34366.150967 -4322.901870 L34365.801794 -4322.846387 L34365.948639 -4323.048715 L34365.746311 -4323.195559 L34365.690827 -4323.544732 L34365.893155 -4323.397888 L34366.040000 -4323.600216 z " fill="rgb(245,195,195)" />
<path d="M0.000000 0.000000 L1.000000 0.000000 L1.000000 1.000000 L0.000000 1.000000  z" fill="none" stroke="rgb(128,128,128)" stroke-width="0.01" />
<line x1="34366" y1="-4323.6" x2="34366.4" y2="-4323.31" style="stroke:rgb(246,147,147);stroke-width:0.01" />
<line x1="34365.7" y1="-4323.54" x2="34366.5" y2="-4322.96" style="stroke:rgb(246,147,147);stroke-width:0.01" />
<line x1="34365.7" y1="-4323.2" x2="34366.2" y2="-4322.9" style="stroke:rgb(246,147,147);stroke-width:0.01" />
<line x1="34366.4" y1="-4323.31" x2="34366.5" y2="-4322.96" style="stroke:rgb(246,147,147);stroke-width:0.01" />
<line x1="34366" y1="-4323.6" x2="34366.2" y2="-4322.9" style="stroke:rgb(246,147,147);stroke-width:0.01" />
<line x1="34365.7" y1="-4323.54" x2="34365.7" y2="-4323.2" style="stroke:rgb(246,147,147);stroke-width:0.01" />
<line x1="34366.4" y1="-4323.66" x2="34366" y2="-4323.6" style="stroke:rgb(246,147,147);stroke-width:0.01" />
<line x1="34366.4" y1="-4323.31" x2="34365.7" y2="-4323.2" style="stroke:rgb(246,147,147);stroke-width:0.01" />
<line x1="34366.2" y1="-4322.9" x2="34365.8" y2="-4322.85" style="stroke:rgb(246,147,147);stroke-width:0.01" />
<line x1="34366" y1="-4323.6" x2="34365.7" y2="-4323.2" style="stroke:rgb(246,147,147);stroke-width:0.01" />
<line x1="34366.4" y1="-4323.66" x2="34365.8" y2="-4322.85" style="stroke:rgb(246,147,147);stroke-width:0.01" />
<line x1="34366.4" y1="-4323.31" x2="34366.2" y2="-4322.9" style="stroke:rgb(246,147,147);stroke-width:0.01" />
</g>
</svg>
