<svg xmlns="http://www.w3.org/2000/svg" viewBox="-1.5 -1.5 3 3">
<g transform="scale(1, -1)">
<path d="M9696.314304 -4715.826821 L9696.235860 -4715.589447 L9696.473234 -4715.511002 L9696.632164 -4715.195184 L9696.394790 -4715.273628 L9696.316345 -4715.036254 L9696.000527 -4714.877324 L9696.078971 -4715.114698 L9695.841597 -4715.193143 L9695.682667 -4715.508961 L9695.920041 -4715.430517 L9695.998486 -4715.667891 z " fill="rgb(245,195,195)" />
<path d="M0.000000 0.000000 L1.000000 0.000000 L1.000000 1.000000 L0.000000 1.000000  z" fill="none" stroke="rgb(128,128,128)" stroke-width="0.01" />
<line x1="9696" y1="-4715.67" x2="9696.47" y2="-4715.51" style="stroke:rgb(246,147,147);stroke-width:0.01" />
<line x1="9695.68" y1="-4715.51" x2="9696.63" y2="-4715.2" style="stroke:rgb(246,147,147);stroke-width:0.01" />
<line x1="9695.84" y1="-4715.19" x2="9696.32" y2="-4715.04" style="stroke:rgb(246,147,147);stroke-width:0.01" />
<line x1="9696.47" y1="-4715.51" x2="9696.63" y2="-4715.2" style="stroke:rgb(246,147,147);stroke-width:0.01" />
<line x1="9696" y1="-4715.67" x2="9696.32" y2="-4715.04" style="stroke:rgb(246,147,147);stroke-width:0.01" />
<line x1="9695.68" y1="-4715.51" x2="9695.84" y2="-4715.19" style="stroke:rgb(246,147,147);stroke-width:0.01" />
<line x1="9696.31" y1="-4715.83" x2="9696" y2="-4715.67" style="stroke:rgb(246,147,147);stroke-width:0.01" />
<line x1="9696.47" y1="-4715.51" x2="9695.84" y2="-4715.19" style="stroke:rgb(246,147,147);stroke-width:0.01" />
<line x1="9696.32" y1="-4715.04" x2="9696" y2="-4714.88" style="stroke:rgb(246,147,147);stroke-width:0.01" />
<line x1="9696" y1="-4715.67" x2="9695.84" y2="-4715.19" style="stroke:rgb(246,147,147);stroke-width:0.01" />
<line x1="9696.31" y1="-4715.83" x2="9696" y2="-4714.88" style="stroke:rgb(246,147,147);stroke-width:0.01" />
<line x1="9696.47" y1="-4715.51" x2="9696.32" y2="-4715.04" style="stroke:rgb(246,147,147);stroke-width:0.01" />
</g>
</svg>
