<svg xmlns="http://www.w3.org/2000/svg" viewBox="-1.5 -1.5 3 3">
<g transform="scale(1, -1)">
<path d="M0.156889 -0.474748 L0.078444 -0.237374 L0.315819 -0.158930 L0.474748 0.156889 L0.237374 0.078444 L0.158930 0.315819 L-0.156889 0.474748 L-0.078444 0.237374 L-0.315819 0.158930 L-0.474748 -0.156889 L-0.237374 -0.078444 L-0.158930 -0.315819 z " fill="rgb(245,195,195)" />
<path d="M-9696.157415 4715.352073 L-9695.157415 4715.352073 L-9695.157415 4716.352073 L-9696.157415 4716.352073  z" fill="none" stroke="rgb(128,128,128)" stroke-width="0.01" />
<line x1="-0.15893" y1="-0.315819" x2="0.315819" y2="-0.15893" style="stroke:rgb(246,147,147);stroke-width:0.01" />
<line x1="-0.474748" y1="-0.156889" x2="0.474748" y2="0.156889" style="stroke:rgb(246,147,147);stroke-width:0.01" />
<line x1="-0.315819" y1="0.15893" x2="0.15893" y2="0.315819" style="stroke:rgb(246,147,147);stroke-width:0.01" />
<line x1="0.315819" y1="-0.15893" x2="0.474748" y2="0.156889" style="stroke:rgb(246,147,147);stroke-width:0.01" />
<line x1="-0.15893" y1="-0.315819" x2="0.15893" y2="0.315819" style="stroke:rgb(246,147,147);stroke-width:0.01" />
<line x1="-0.474748" y1="-0.156889" x2="-0.315819" y2="0.15893" style="stroke:rgb(246,147,147);stroke-width:0.01" />
<line x1="0.156889" y1="-0.474748" x2="-0.15893" y2="-0.315819" style="stroke:rgb(246,147,147);stroke-width:0.01" />
<line x1="0.315819" y1="-0.15893" x2="-0.315819" y2="0.15893" style="stroke:rgb(246,147,147);stroke-width:0.01" />
<line x1="0.15893" y1="0.315819" x2="-0.156889" y2="0.474748" style="stroke:rgb(246,147,147);stroke-width:0.01" />
<line x1="-0.15893" y1="-0.315819" x2="-0.315819" y2="0.15893" style="stroke:rgb(246,147,147);stroke-width:0.01" />
<line x1="0.156889" y1="-0.474748" x2="-0.156889" y2="0.474748" style="stroke:rgb(246,147,147);stroke-width:0.01" />
<line x1="0.315819" y1="-0.15893" x2="0.15893" y2="0.315819" style="stroke:rgb(246,147,147);stroke-width:0.01" />
</g>
</svg>
