<svg xmlns="http://www.w3.org/2000/svg" viewBox="-1.5 -1.5 3 3">
<g transform="scale(1, -1)">
<path d="M-0.113889 -0.275000 L0.052778 -0.275000 L0.136111 -0.191667 L0.136111 -0.150000 L0.219444 -0.150000 L0.219444 0.308333 L0.136111 0.308333 L-0.030556 0.141667 L-0.072222 0.183333 L-0.113889 0.183333 L-0.113889 0.058333 L-0.155556 0.016667 L-0.155556 -0.025000 L-0.030556 -0.025000 L-0.113889 -0.108333 z " fill="rgb(245,195,195)" />
<path d="M-0.155556 -0.275000 L0.844444 -0.275000 L0.844444 0.725000 L-0.155556 0.725000  z" fill="none" stroke="rgb(128,128,128)" stroke-width="0.01" />
<line x1="0.0527778" y1="-0.275" x2="0.136111" y2="-0.191667" style="stroke:rgb(246,147,147);stroke-width:0.01" />
<line x1="0.0527778" y1="-0.15" x2="0.136111" y2="-0.0666667" style="stroke:rgb(246,147,147);stroke-width:0.01" />
<line x1="-0.113889" y1="-0.275" x2="0.0527778" y2="-0.275" style="stroke:rgb(246,147,147);stroke-width:0.01" />
<line x1="-0.155556" y1="-0.025" x2="-0.155556" y2="0.0166667" style="stroke:rgb(246,147,147);stroke-width:0.01" />
<line x1="-0.113889" y1="-0.275" x2="-0.113889" y2="-0.108333" style="stroke:rgb(246,147,147);stroke-width:0.01" />
<line x1="-0.113889" y1="0.0166667" x2="-0.113889" y2="0.183333" style="stroke:rgb(246,147,147);stroke-width:0.01" />
<line x1="-0.0722222" y1="-0.025" x2="-0.0722222" y2="0.183333" style="stroke:rgb(246,147,147);stroke-width:0.01" />
<line x1="-0.0305556" y1="-0.025" x2="-0.0305556" y2="0.141667" style="stroke:rgb(246,147,147);stroke-width:0.01" />
<line x1="0.0527778" y1="-0.275" x2="0.0527778" y2="-0.15" style="stroke:rgb(246,147,147);stroke-width:0.01" />
<line x1="0.0527778" y1="-0.025" x2="0.0527778" y2="0.141667" style="stroke:rgb(246,147,147);stroke-width:0.01" />
<line x1="0.0944444" y1="-0.15" x2="0.0944444" y2="0.1" style="stroke:rgb(246,147,147);stroke-width:0.01" />
<line x1="0.136111" y1="-0.191667" x2="0.136111" y2="0.308333" style="stroke:rgb(246,147,147);stroke-width:0.01" />
<line x1="0.219444" y1="-0.15" x2="0.219444" y2="0.308333" style="stroke:rgb(246,147,147);stroke-width:0.01" />
<line x1="0.0527778" y1="-0.025" x2="0.136111" y2="0.0583333" style="stroke:rgb(246,147,147);stroke-width:0.01" />
<line x1="-0.113889" y1="-0.108333" x2="0.0944444" y2="0.1" style="stroke:rgb(246,147,147);stroke-width:0.01" />
<line x1="-0.0722222" y1="0.0166667" x2="0.0527778" y2="0.141667" style="stroke:rgb(246,147,147);stroke-width:0.01" />
<line x1="0.0527778" y1="-0.15" x2="0.219444" y2="-0.15" style="stroke:rgb(246,147,147);stroke-width:0.01" />
<line x1="-0.155556" y1="0.0166667" x2="0.136111" y2="0.308333" style="stroke:rgb(246,147,147);stroke-width:0.01" />
<line x1="-0.113889" y1="-0.108333" x2="0.136111" y2="-0.108333" style="stroke:rgb(246,147,147);stroke-width:0.01" />
<line x1="0.136111" y1="-0.191667" x2="-0.113889" y2="0.0583333" style="stroke:rgb(246,147,147);stroke-width:0.01" />
<line x1="0.136111" y1="-0.108333" x2="-0.113889" y2="0.141667" style="stroke:rgb(246,147,147);stroke-width:0.01" />
<line x1="-0.155556" y1="-0.025" x2="0.136111" y2="-0.025" style="stroke:rgb(246,147,147);stroke-width:0.01" />
<line x1="0.219444" y1="-0.15" x2="0.0944444" y2="-0.025" style="stroke:rgb(246,147,147);stroke-width:0.01" />
<line x1="0.136111" y1="-0.025" x2="-0.0722222" y2="0.183333" style="stroke:rgb(246,147,147);stroke-width:0.01" />
<line x1="-0.155556" y1="0.0166667" x2="0.0944444" y2="0.0166667" style="stroke:rgb(246,147,147);stroke-width:0.01" />
<line x1="-0.113889" y1="0.0583333" x2="0.136111" y2="0.0583333" style="stroke:rgb(246,147,147);stroke-width:0.01" />
<line x1="-0.0722222" y1="0.1" x2="0.0111111" y2="0.1" style="stroke:rgb(246,147,147);stroke-width:0.01" />
<line x1="0.0944444" y1="0.1" x2="0.136111" y2="0.1" style="stroke:rgb(246,147,147);stroke-width:0.01" />
<line x1="-0.113889" y1="0.141667" x2="0.0527778" y2="0.141667" style="stroke:rgb(246,147,147);stroke-width:0.01" />
<line x1="-0.113889" y1="0.183333" x2="-0.0722222" y2="0.183333" style="stroke:rgb(246,147,147);stroke-width:0.01" />
<line x1="0.136111" y1="0.308333" x2="0.219444" y2="0.308333" style="stroke:rgb(246,147,147);stroke-width:0.01" />
</g>
</svg>
