<svg xmlns="http://www.w3.org/2000/svg" viewBox="-1.5 -1.5 3 3">
<g transform="scale(1, -1)">
<path d="M-0.322489 -0.382100 L-0.161245 -0.191050 L0.029805 -0.352295 L0.382100 -0.322489 L0.191050 -0.161245 L0.352295 0.029805 L0.322489 0.382100 L0.161245 0.191050 L-0.029805 0.352295 L-0.382100 0.322489 L-0.191050 0.161245 L-0.352295 -0.029805 z " fill="rgb(245,195,195)" />
<path d="M-11392.893249 8270.158698 L-11391.893249 8270.158698 L-11391.893249 8271.158698 L-11392.893249 8271.158698  z" fill="none" stroke="rgb(128,128,128)" stroke-width="0.01" />
<line x1="0.0298054" y1="-0.352295" x2="0.3821" y2="-0.322489" style="stroke:rgb(246,147,147);stroke-width:0.01" />
<line x1="-0.352295" y1="-0.0298054" x2="0.352295" y2="0.0298054" style="stroke:rgb(246,147,147);stroke-width:0.01" />
<line x1="-0.3821" y1="0.322489" x2="-0.0298054" y2="0.352295" style="stroke:rgb(246,147,147);stroke-width:0.01" />
<line x1="0.0298054" y1="-0.352295" x2="0.352295" y2="0.0298054" style="stroke:rgb(246,147,147);stroke-width:0.01" />
<line x1="-0.322489" y1="-0.3821" x2="0.322489" y2="0.3821" style="stroke:rgb(246,147,147);stroke-width:0.01" />
<line x1="-0.352295" y1="-0.0298054" x2="-0.0298054" y2="0.352295" style="stroke:rgb(246,147,147);stroke-width:0.01" />
<line x1="0.0298054" y1="-0.352295" x2="-0.352295" y2="-0.0298054" style="stroke:rgb(246,147,147);stroke-width:0.01" />
<line x1="0.3821" y1="-0.322489" x2="-0.3821" y2="0.322489" style="stroke:rgb(246,147,147);stroke-width:0.01" />
<line x1="0.352295" y1="0.0298054" x2="-0.0298054" y2="0.352295" style="stroke:rgb(246,147,147);stroke-width:0.01" />
<line x1="-0.322489" y1="-0.3821" x2="-0.352295" y2="-0.0298054" style="stroke:rgb(246,147,147);stroke-width:0.01" />
<line x1="0.0298054" y1="-0.352295" x2="-0.0298054" y2="0.352295" style="stroke:rgb(246,147,147);stroke-width:0.01" />
<line x1="0.352295" y1="0.0298054" x2="0.322489" y2="0.3821" style="stroke:rgb(246,147,147);stroke-width:0.01" />
</g>
</svg>
