<svg xmlns="http://www.w3.org/2000/svg" viewBox="-1.5 -1.5 3 3">
<g transform="scale(1, -1)">
<path d="M11392.570759 -8270.540799 L11392.732004 -8270.349748 L11392.923054 -8270.510993 L11393.275349 -8270.481188 L11393.084299 -8270.319943 L11393.245543 -8270.128893 L11393.215738 -8269.776598 L11393.054493 -8269.967648 L11392.863443 -8269.806404 L11392.511148 -8269.836209 L11392.702198 -8269.997454 L11392.540954 -8270.188504 z " fill="rgb(245,195,195)" />
<path d="M0.000000 0.000000 L1.000000 0.000000 L1.000000 1.000000 L0.000000 1.000000  z" fill="none" stroke="rgb(128,128,128)" stroke-width="0.01" />
<line x1="11392.9" y1="-8270.51" x2="11393.3" y2="-8270.48" style="stroke:rgb(246,147,147);stroke-width:0.01" />
<line x1="11392.5" y1="-8270.19" x2="11393.2" y2="-8270.13" style="stroke:rgb(246,147,147);stroke-width:0.01" />
<line x1="11392.5" y1="-8269.84" x2="11392.9" y2="-8269.81" style="stroke:rgb(246,147,147);stroke-width:0.01" />
<line x1="11392.9" y1="-8270.51" x2="11393.2" y2="-8270.13" style="stroke:rgb(246,147,147);stroke-width:0.01" />
<line x1="11392.6" y1="-8270.54" x2="11393.2" y2="-8269.78" style="stroke:rgb(246,147,147);stroke-width:0.01" />
<line x1="11392.5" y1="-8270.19" x2="11392.9" y2="-8269.81" style="stroke:rgb(246,147,147);stroke-width:0.01" />
<line x1="11392.9" y1="-8270.51" x2="11392.5" y2="-8270.19" style="stroke:rgb(246,147,147);stroke-width:0.01" />
<line x1="11393.3" y1="-8270.48" x2="11392.5" y2="-8269.84" style="stroke:rgb(246,147,147);stroke-width:0.01" />
<line x1="11393.2" y1="-8270.13" x2="11392.9" y2="-8269.81" style="stroke:rgb(246,147,147);stroke-width:0.01" />
<line x1="11392.6" y1="-8270.54" x2="11392.5" y2="-8270.19" style="stroke:rgb(246,147,147);stroke-width:0.01" />
<line x1="11392.9" y1="-8270.51" x2="11392.9" y2="-8269.81" style="stroke:rgb(246,147,147);stroke-width:0.01" />
<line x1="11393.2" y1="-8270.13" x2="11393.2" y2="-8269.78" style="stroke:rgb(246,147,147);stroke-width:0.01" />
</g>
</svg>
