<svg xmlns="http://www.w3.org/2000/svg" viewBox="-1.5 -1.5 3 3">
<g transform="scale(1, -1)">
<path d="M0.242820 -0.437080 L0.121410 -0.218540 L0.339950 -0.097130 L0.437080 0.242820 L0.218540 0.121410 L0.097130 0.339950 L-0.242820 0.437080 L-0.121410 0.218540 L-0.339950 0.097130 L-0.437080 -0.242820 L-0.218540 -0.121410 L-0.097130 -0.339950 z " fill="rgb(245,195,195)" />
<path d="M-28471.689770 6862.725494 L-28470.689770 6862.725494 L-28470.689770 6863.725494 L-28471.689770 6863.725494  z" fill="none" stroke="rgb(128,128,128)" stroke-width="0.01" />
<line x1="-0.09713" y1="-0.33995" x2="0.33995" y2="-0.09713" style="stroke:rgb(246,147,147);stroke-width:0.01" />
<line x1="-0.43708" y1="-0.24282" x2="0.43708" y2="0.24282" style="stroke:rgb(246,147,147);stroke-width:0.01" />
<line x1="-0.33995" y1="0.09713" x2="0.09713" y2="0.33995" style="stroke:rgb(246,147,147);stroke-width:0.01" />
<line x1="0.33995" y1="-0.09713" x2="0.43708" y2="0.24282" style="stroke:rgb(246,147,147);stroke-width:0.01" />
<line x1="-0.09713" y1="-0.33995" x2="0.09713" y2="0.33995" style="stroke:rgb(246,147,147);stroke-width:0.01" />
<line x1="-0.43708" y1="-0.24282" x2="-0.33995" y2="0.09713" style="stroke:rgb(246,147,147);stroke-width:0.01" />
<line x1="0.24282" y1="-0.43708" x2="-0.09713" y2="-0.33995" style="stroke:rgb(246,147,147);stroke-width:0.01" />
<line x1="0.33995" y1="-0.09713" x2="-0.33995" y2="0.09713" style="stroke:rgb(246,147,147);stroke-width:0.01" />
<line x1="0.09713" y1="0.33995" x2="-0.24282" y2="0.43708" style="stroke:rgb(246,147,147);stroke-width:0.01" />
<line x1="-0.09713" y1="-0.33995" x2="-0.33995" y2="0.09713" style="stroke:rgb(246,147,147);stroke-width:0.01" />
<line x1="0.24282" y1="-0.43708" x2="-0.24282" y2="0.43708" style="stroke:rgb(246,147,147);stroke-width:0.01" />
<line x1="0.33995" y1="-0.09713" x2="0.09713" y2="0.33995" style="stroke:rgb(246,147,147);stroke-width:0.01" />
</g>
</svg>
