<svg xmlns="http://www.w3.org/2000/svg" viewBox="-1.5 -1.5 3 3">
<g transform="scale(1, -1)">
<path d="M-0.116195 -0.486311 L-0.058097 -0.243156 L0.185058 -0.301253 L0.486311 -0.116195 L0.243156 -0.058097 L0.301253 0.185058 L0.116195 0.486311 L0.058097 0.243156 L-0.185058 0.301253 L-0.486311 0.116195 L-0.243156 0.058097 L-0.301253 -0.185058 z " fill="rgb(245,195,195)" />
<path d="M591.655556 11551.229303 L592.655556 11551.229303 L592.655556 11552.229303 L591.655556 11552.229303  z" fill="none" stroke="rgb(128,128,128)" stroke-width="0.01" />
<line x1="0.185058" y1="-0.301253" x2="-0.301253" y2="-0.185058" style="stroke:rgb(246,147,147);stroke-width:0.01" />
<line x1="0.486311" y1="-0.116195" x2="-0.486311" y2="0.116195" style="stroke:rgb(246,147,147);stroke-width:0.01" />
<line x1="0.301253" y1="0.185058" x2="-0.185058" y2="0.301253" style="stroke:rgb(246,147,147);stroke-width:0.01" />
<line x1="0.185058" y1="-0.301253" x2="0.486311" y2="-0.116195" style="stroke:rgb(246,147,147);stroke-width:0.01" />
<line x1="-0.301253" y1="-0.185058" x2="0.301253" y2="0.185058" style="stroke:rgb(246,147,147);stroke-width:0.01" />
<line x1="-0.486311" y1="0.116195" x2="-0.185058" y2="0.301253" style="stroke:rgb(246,147,147);stroke-width:0.01" />
<line x1="-0.116195" y1="-0.486311" x2="-0.301253" y2="-0.185058" style="stroke:rgb(246,147,147);stroke-width:0.01" />
<line x1="0.185058" y1="-0.301253" x2="-0.185058" y2="0.301253" style="stroke:rgb(246,147,147);stroke-width:0.01" />
<line x1="0.301253" y1="0.185058" x2="0.116195" y2="0.486311" style="stroke:rgb(246,147,147);stroke-width:0.01" />
<line x1="0.185058" y1="-0.301253" x2="0.301253" y2="0.185058" style="stroke:rgb(246,147,147);stroke-width:0.01" />
<line x1="-0.116195" y1="-0.486311" x2="0.116195" y2="0.486311" style="stroke:rgb(246,147,147);stroke-width:0.01" />
<line x1="-0.301253" y1="-0.185058" x2="-0.185058" y2="0.301253" style="stroke:rgb(246,147,147);stroke-width:0.01" />
</g>
</svg>
