<svg xmlns="http://www.w3.org/2000/svg" viewBox="-1.5 -1.5 3 3">
<g transform="scale(1, -1)">
<path d="M-591.771751 -11551.715614 L-591.713653 -11551.472459 L-591.470498 -11551.530556 L-591.169245 -11551.345497 L-591.412400 -11551.287400 L-591.354303 -11551.044244 L-591.539361 -11550.742991 L-591.597459 -11550.986147 L-591.840614 -11550.928050 L-592.141868 -11551.113108 L-591.898712 -11551.171205 L-591.956809 -11551.414361 z " fill="rgb(245,195,195)" />
<path d="M0.000000 0.000000 L1.000000 0.000000 L1.000000 1.000000 L0.000000 1.000000  z" fill="none" stroke="rgb(128,128,128)" stroke-width="0.01" />
<line x1="-591.47" y1="-11551.5" x2="-591.957" y2="-11551.4" style="stroke:rgb(246,147,147);stroke-width:0.01" />
<line x1="-591.169" y1="-11551.3" x2="-592.142" y2="-11551.1" style="stroke:rgb(246,147,147);stroke-width:0.01" />
<line x1="-591.354" y1="-11551" x2="-591.841" y2="-11550.9" style="stroke:rgb(246,147,147);stroke-width:0.01" />
<line x1="-591.47" y1="-11551.5" x2="-591.169" y2="-11551.3" style="stroke:rgb(246,147,147);stroke-width:0.01" />
<line x1="-591.957" y1="-11551.4" x2="-591.354" y2="-11551" style="stroke:rgb(246,147,147);stroke-width:0.01" />
<line x1="-592.142" y1="-11551.1" x2="-591.841" y2="-11550.9" style="stroke:rgb(246,147,147);stroke-width:0.01" />
<line x1="-591.772" y1="-11551.7" x2="-591.957" y2="-11551.4" style="stroke:rgb(246,147,147);stroke-width:0.01" />
<line x1="-591.47" y1="-11551.5" x2="-591.841" y2="-11550.9" style="stroke:rgb(246,147,147);stroke-width:0.01" />
<line x1="-591.354" y1="-11551" x2="-591.539" y2="-11550.7" style="stroke:rgb(246,147,147);stroke-width:0.01" />
<line x1="-591.47" y1="-11551.5" x2="-591.354" y2="-11551" style="stroke:rgb(246,147,147);stroke-width:0.01" />
<line x1="-591.772" y1="-11551.7" x2="-591.539" y2="-11550.7" style="stroke:rgb(246,147,147);stroke-width:0.01" />
<line x1="-591.957" y1="-11551.4" x2="-591.841" y2="-11550.9" style="stroke:rgb(246,147,147);stroke-width:0.01" />
</g>
</svg>
