<svg xmlns="http://www.w3.org/2000/svg" viewBox="-1.5 -1.5 3 3">
<g transform="scale(1, -1)">
<path d="M-0.299020 -0.355392 L-0.049020 -0.355392 L-0.049020 -0.272059 L0.117647 -0.272059 L0.117647 -0.022059 L0.200980 -0.022059 L0.242647 0.019608 L0.242647 0.061275 L0.200980 0.061275 L0.200980 0.144608 L0.075980 0.144608 L0.075980 0.186275 L-0.007353 0.186275 L-0.049020 0.144608 L-0.340686 0.144608 L-0.382353 0.102941 L-0.299020 0.102941 z " fill="rgb(245,195,195)" />
<path d="M-0.382353 -0.355392 L0.617647 -0.355392 L0.617647 0.644608 L-0.382353 0.644608  z" fill="none" stroke="rgb(128,128,128)" stroke-width="0.01" />
<line x1="0.20098" y1="-0.0220588" x2="0.242647" y2="0.0196078" style="stroke:rgb(246,147,147);stroke-width:0.01" />
<line x1="-0.17402" y1="-0.355392" x2="0.0343137" y2="-0.147059" style="stroke:rgb(246,147,147);stroke-width:0.01" />
<line x1="-0.0490196" y1="-0.147059" x2="0.20098" y2="0.102941" style="stroke:rgb(246,147,147);stroke-width:0.01" />
<line x1="0.117647" y1="0.102941" x2="0.159314" y2="0.144608" style="stroke:rgb(246,147,147);stroke-width:0.01" />
<line x1="-0.29902" y1="-0.355392" x2="-0.0490196" y2="-0.355392" style="stroke:rgb(246,147,147);stroke-width:0.01" />
<line x1="-0.29902" y1="-0.272059" x2="-0.215686" y2="-0.188725" style="stroke:rgb(246,147,147);stroke-width:0.01" />
<line x1="-0.29902" y1="-0.355392" x2="-0.29902" y2="0.144608" style="stroke:rgb(246,147,147);stroke-width:0.01" />
<line x1="-0.257353" y1="-0.355392" x2="-0.257353" y2="-0.147059" style="stroke:rgb(246,147,147);stroke-width:0.01" />
<line x1="-0.215686" y1="-0.355392" x2="-0.215686" y2="-0.188725" style="stroke:rgb(246,147,147);stroke-width:0.01" />
<line x1="-0.17402" y1="-0.355392" x2="-0.17402" y2="-0.230392" style="stroke:rgb(246,147,147);stroke-width:0.01" />
<line x1="-0.0490196" y1="-0.355392" x2="-0.0490196" y2="0.144608" style="stroke:rgb(246,147,147);stroke-width:0.01" />
<line x1="-0.00735294" y1="0.0612745" x2="-0.00735294" y2="0.186275" style="stroke:rgb(246,147,147);stroke-width:0.01" />
<line x1="0.0343137" y1="-0.147059" x2="0.0343137" y2="0.186275" style="stroke:rgb(246,147,147);stroke-width:0.01" />
<line x1="0.0759804" y1="-0.272059" x2="0.0759804" y2="0.186275" style="stroke:rgb(246,147,147);stroke-width:0.01" />
<line x1="0.117647" y1="-0.272059" x2="0.117647" y2="-0.0220588" style="stroke:rgb(246,147,147);stroke-width:0.01" />
<line x1="0.117647" y1="0.0612745" x2="0.117647" y2="0.102941" style="stroke:rgb(246,147,147);stroke-width:0.01" />
<line x1="0.20098" y1="-0.0220588" x2="0.20098" y2="0.144608" style="stroke:rgb(246,147,147);stroke-width:0.01" />
<line x1="0.242647" y1="0.0196078" x2="0.242647" y2="0.0612745" style="stroke:rgb(246,147,147);stroke-width:0.01" />
<line x1="-0.29902" y1="-0.105392" x2="-0.00735294" y2="0.186275" style="stroke:rgb(246,147,147);stroke-width:0.01" />
<line x1="-0.29902" y1="-0.272059" x2="0.117647" y2="-0.272059" style="stroke:rgb(246,147,147);stroke-width:0.01" />
<line x1="-0.215686" y1="-0.355392" x2="-0.29902" y2="-0.272059" style="stroke:rgb(246,147,147);stroke-width:0.01" />
<line x1="-0.17402" y1="-0.355392" x2="-0.29902" y2="-0.230392" style="stroke:rgb(246,147,147);stroke-width:0.01" />
<line x1="-0.29902" y1="-0.230392" x2="-0.0490196" y2="-0.230392" style="stroke:rgb(246,147,147);stroke-width:0.01" />
<line x1="-0.215686" y1="-0.188725" x2="0.117647" y2="-0.188725" style="stroke:rgb(246,147,147);stroke-width:0.01" />
<line x1="-0.0490196" y1="-0.355392" x2="-0.29902" y2="-0.105392" style="stroke:rgb(246,147,147);stroke-width:0.01" />
<line x1="-0.29902" y1="0.102941" x2="-0.257353" y2="0.144608" style="stroke:rgb(246,147,147);stroke-width:0.01" />
<line x1="-0.29902" y1="-0.147059" x2="0.0343137" y2="-0.147059" style="stroke:rgb(246,147,147);stroke-width:0.01" />
<line x1="-0.382353" y1="0.102941" x2="-0.340686" y2="0.144608" style="stroke:rgb(246,147,147);stroke-width:0.01" />
<line x1="-0.00735294" y1="-0.188725" x2="-0.340686" y2="0.144608" style="stroke:rgb(246,147,147);stroke-width:0.01" />
<line x1="0.0343137" y1="-0.147059" x2="-0.257353" y2="0.144608" style="stroke:rgb(246,147,147);stroke-width:0.01" />
<line x1="0.0759804" y1="-0.0220588" x2="0.20098" y2="-0.0220588" style="stroke:rgb(246,147,147);stroke-width:0.01" />
<line x1="0.0343137" y1="0.0196078" x2="0.242647" y2="0.0196078" style="stroke:rgb(246,147,147);stroke-width:0.01" />
<line x1="0.0759804" y1="-0.0220588" x2="-0.0698529" y2="0.123775" style="stroke:rgb(246,147,147);stroke-width:0.01" />
<line x1="-0.00735294" y1="0.0612745" x2="0.0343137" y2="0.0612745" style="stroke:rgb(246,147,147);stroke-width:0.01" />
<line x1="0.117647" y1="0.0612745" x2="0.242647" y2="0.0612745" style="stroke:rgb(246,147,147);stroke-width:0.01" />
<line x1="0.117647" y1="-0.0220588" x2="-0.0490196" y2="0.144608" style="stroke:rgb(246,147,147);stroke-width:0.01" />
<line x1="-0.382353" y1="0.102941" x2="0.20098" y2="0.102941" style="stroke:rgb(246,147,147);stroke-width:0.01" />
<line x1="0.20098" y1="-0.0220588" x2="0.117647" y2="0.0612745" style="stroke:rgb(246,147,147);stroke-width:0.01" />
<line x1="-0.340686" y1="0.144608" x2="0.20098" y2="0.144608" style="stroke:rgb(246,147,147);stroke-width:0.01" />
<line x1="0.20098" y1="0.102941" x2="0.159314" y2="0.144608" style="stroke:rgb(246,147,147);stroke-width:0.01" />
<line x1="-0.00735294" y1="0.186275" x2="0.0759804" y2="0.186275" style="stroke:rgb(246,147,147);stroke-width:0.01" />
</g>
</svg>
