<svg xmlns="http://www.w3.org/2000/svg" viewBox="-1.5 -1.5 3 3">
<g transform="scale(1, -1)">
<path d="M-0.110577 -0.203526 L-0.027244 -0.203526 L0.014423 -0.161859 L0.056090 -0.161859 L0.056090 -0.078526 L0.347756 0.213141 L0.347756 0.338141 L-0.152244 0.338141 L-0.152244 0.088141 L-0.110577 0.046474 L-0.131410 0.025641 L-0.027244 -0.078526 L-0.110577 -0.161859 z " fill="rgb(245,195,195)" />
<path d="M-0.152244 -0.203526 L0.847756 -0.203526 L0.847756 0.796474 L-0.152244 0.796474  z" fill="none" stroke="rgb(128,128,128)" stroke-width="0.01" />
<line x1="-0.0272436" y1="-0.203526" x2="0.0560897" y2="-0.120192" style="stroke:rgb(246,147,147);stroke-width:0.01" />
<line x1="0.0144231" y1="-0.120192" x2="0.347756" y2="0.213141" style="stroke:rgb(246,147,147);stroke-width:0.01" />
<line x1="-0.110577" y1="-0.203526" x2="-0.0272436" y2="-0.203526" style="stroke:rgb(246,147,147);stroke-width:0.01" />
<line x1="-0.110577" y1="-0.161859" x2="0.0560897" y2="0.00480769" style="stroke:rgb(246,147,147);stroke-width:0.01" />
<line x1="-0.152244" y1="0.088141" x2="-0.152244" y2="0.338141" style="stroke:rgb(246,147,147);stroke-width:0.01" />
<line x1="-0.110577" y1="-0.203526" x2="-0.110577" y2="-0.161859" style="stroke:rgb(246,147,147);stroke-width:0.01" />
<line x1="-0.110577" y1="0.00480769" x2="-0.110577" y2="0.296474" style="stroke:rgb(246,147,147);stroke-width:0.01" />
<line x1="-0.0689103" y1="0.00480769" x2="-0.0689103" y2="0.254808" style="stroke:rgb(246,147,147);stroke-width:0.01" />
<line x1="-0.0689103" y1="0.296474" x2="-0.0689103" y2="0.338141" style="stroke:rgb(246,147,147);stroke-width:0.01" />
<line x1="-0.0272436" y1="-0.203526" x2="-0.0272436" y2="0.338141" style="stroke:rgb(246,147,147);stroke-width:0.01" />
<line x1="0.0560897" y1="-0.161859" x2="0.0560897" y2="0.254808" style="stroke:rgb(246,147,147);stroke-width:0.01" />
<line x1="0.0977564" y1="0.00480769" x2="0.0977564" y2="0.254808" style="stroke:rgb(246,147,147);stroke-width:0.01" />
<line x1="0.347756" y1="0.213141" x2="0.347756" y2="0.338141" style="stroke:rgb(246,147,147);stroke-width:0.01" />
<line x1="-0.110577" y1="-0.161859" x2="0.0560897" y2="-0.161859" style="stroke:rgb(246,147,147);stroke-width:0.01" />
<line x1="-0.0689103" y1="0.00480769" x2="0.0560897" y2="0.129808" style="stroke:rgb(246,147,147);stroke-width:0.01" />
<line x1="-0.110577" y1="0.00480769" x2="-0.0272436" y2="0.088141" style="stroke:rgb(246,147,147);stroke-width:0.01" />
<line x1="-0.13141" y1="0.025641" x2="0.0560897" y2="0.213141" style="stroke:rgb(246,147,147);stroke-width:0.01" />
<line x1="-0.110577" y1="0.088141" x2="0.0560897" y2="0.254808" style="stroke:rgb(246,147,147);stroke-width:0.01" />
<line x1="0.0560897" y1="-0.161859" x2="-0.13141" y2="0.025641" style="stroke:rgb(246,147,147);stroke-width:0.01" />
<line x1="0.0560897" y1="-0.120192" x2="-0.152244" y2="0.088141" style="stroke:rgb(246,147,147);stroke-width:0.01" />
<line x1="0.0560897" y1="-0.0785256" x2="-0.110577" y2="0.088141" style="stroke:rgb(246,147,147);stroke-width:0.01" />
<line x1="-0.110577" y1="0.00480769" x2="0.0977564" y2="0.00480769" style="stroke:rgb(246,147,147);stroke-width:0.01" />
<line x1="0.0977564" y1="-0.036859" x2="-0.0480769" y2="0.108974" style="stroke:rgb(246,147,147);stroke-width:0.01" />
<line x1="-0.110577" y1="0.296474" x2="-0.0689103" y2="0.338141" style="stroke:rgb(246,147,147);stroke-width:0.01" />
<line x1="0.0560897" y1="0.129808" x2="-0.0689103" y2="0.254808" style="stroke:rgb(246,147,147);stroke-width:0.01" />
<line x1="-0.152244" y1="0.088141" x2="0.0560897" y2="0.088141" style="stroke:rgb(246,147,147);stroke-width:0.01" />
<line x1="0.0977564" y1="0.171474" x2="0.0352564" y2="0.233974" style="stroke:rgb(246,147,147);stroke-width:0.01" />
<line x1="-0.0689103" y1="0.129808" x2="0.0560897" y2="0.129808" style="stroke:rgb(246,147,147);stroke-width:0.01" />
<line x1="0.0560897" y1="0.254808" x2="-0.0272436" y2="0.338141" style="stroke:rgb(246,147,147);stroke-width:0.01" />
<line x1="-0.0272436" y1="0.171474" x2="0.0977564" y2="0.171474" style="stroke:rgb(246,147,147);stroke-width:0.01" />
<line x1="0.0560897" y1="0.213141" x2="0.347756" y2="0.213141" style="stroke:rgb(246,147,147);stroke-width:0.01" />
<line x1="-0.110577" y1="0.254808" x2="0.0977564" y2="0.254808" style="stroke:rgb(246,147,147);stroke-width:0.01" />
<line x1="-0.110577" y1="0.296474" x2="-0.0689103" y2="0.296474" style="stroke:rgb(246,147,147);stroke-width:0.01" />
<line x1="-0.152244" y1="0.338141" x2="0.347756" y2="0.338141" style="stroke:rgb(246,147,147);stroke-width:0.01" />
</g>
</svg>
