<svg xmlns="http://www.w3.org/2000/svg" viewBox="-1.5 -1.5 3 3">
<g transform="scale(1, -1)">
<path d="M-0.169271 -0.286458 L0.080729 -0.286458 L0.080729 -0.203125 L0.247396 -0.036458 L0.247396 0.088542 L0.205729 0.088542 L0.205729 0.130208 L0.080729 0.130208 L0.039062 0.088542 L-0.044271 0.171875 L-0.127604 0.171875 L-0.127604 0.088542 L-0.210938 0.005208 L-0.210938 -0.036458 L-0.127604 -0.036458 L-0.169271 -0.078125 z " fill="rgb(245,195,195)" />
<path d="M-0.210938 -0.286458 L0.789062 -0.286458 L0.789062 0.713542 L-0.210938 0.713542  z" fill="none" stroke="rgb(128,128,128)" stroke-width="0.01" />
<line x1="-0.00260417" y1="-0.286458" x2="0.247396" y2="-0.0364583" style="stroke:rgb(246,147,147);stroke-width:0.01" />
<line x1="0.0390625" y1="-0.078125" x2="0.122396" y2="0.00520833" style="stroke:rgb(246,147,147);stroke-width:0.01" />
<line x1="-0.169271" y1="-0.286458" x2="0.0807292" y2="-0.286458" style="stroke:rgb(246,147,147);stroke-width:0.01" />
<line x1="0.0807292" y1="0.00520833" x2="0.122396" y2="0.046875" style="stroke:rgb(246,147,147);stroke-width:0.01" />
<line x1="-0.210938" y1="-0.0364583" x2="-0.210938" y2="0.00520833" style="stroke:rgb(246,147,147);stroke-width:0.01" />
<line x1="-0.169271" y1="-0.286458" x2="-0.169271" y2="-0.078125" style="stroke:rgb(246,147,147);stroke-width:0.01" />
<line x1="-0.127604" y1="-0.161458" x2="-0.127604" y2="0.171875" style="stroke:rgb(246,147,147);stroke-width:0.01" />
<line x1="-0.0859375" y1="0.130208" x2="-0.0859375" y2="0.171875" style="stroke:rgb(246,147,147);stroke-width:0.01" />
<line x1="-0.0442708" y1="0.046875" x2="-0.0442708" y2="0.130208" style="stroke:rgb(246,147,147);stroke-width:0.01" />
<line x1="-0.00260417" y1="-0.286458" x2="-0.00260417" y2="0.0885417" style="stroke:rgb(246,147,147);stroke-width:0.01" />
<line x1="0.0390625" y1="-0.078125" x2="0.0390625" y2="0.00520833" style="stroke:rgb(246,147,147);stroke-width:0.01" />
<line x1="0.0807292" y1="-0.286458" x2="0.0807292" y2="0.130208" style="stroke:rgb(246,147,147);stroke-width:0.01" />
<line x1="0.122396" y1="-0.161458" x2="0.122396" y2="0.0885417" style="stroke:rgb(246,147,147);stroke-width:0.01" />
<line x1="0.164062" y1="-0.0364583" x2="0.164062" y2="0.046875" style="stroke:rgb(246,147,147);stroke-width:0.01" />
<line x1="0.205729" y1="-0.0364583" x2="0.205729" y2="0.130208" style="stroke:rgb(246,147,147);stroke-width:0.01" />
<line x1="0.247396" y1="-0.0364583" x2="0.247396" y2="0.0885417" style="stroke:rgb(246,147,147);stroke-width:0.01" />
<line x1="-0.00260417" y1="-0.0364583" x2="0.122396" y2="0.0885417" style="stroke:rgb(246,147,147);stroke-width:0.01" />
<line x1="0.0598958" y1="0.0677083" x2="0.0807292" y2="0.0885417" style="stroke:rgb(246,147,147);stroke-width:0.01" />
<line x1="-0.00260417" y1="0.046875" x2="0.0807292" y2="0.130208" style="stroke:rgb(246,147,147);stroke-width:0.01" />
<line x1="-0.169271" y1="-0.078125" x2="-0.00260417" y2="0.0885417" style="stroke:rgb(246,147,147);stroke-width:0.01" />
<line x1="-0.00260417" y1="-0.286458" x2="-0.127604" y2="-0.161458" style="stroke:rgb(246,147,147);stroke-width:0.01" />
<line x1="-0.169271" y1="-0.161458" x2="0.0807292" y2="-0.161458" style="stroke:rgb(246,147,147);stroke-width:0.01" />
<line x1="-0.210938" y1="0.00520833" x2="-0.127604" y2="0.0885417" style="stroke:rgb(246,147,147);stroke-width:0.01" />
<line x1="-0.0859375" y1="0.130208" x2="-0.0442708" y2="0.171875" style="stroke:rgb(246,147,147);stroke-width:0.01" />
<line x1="-0.127604" y1="0.130208" x2="-0.0859375" y2="0.171875" style="stroke:rgb(246,147,147);stroke-width:0.01" />
<line x1="-0.169271" y1="-0.078125" x2="0.0390625" y2="-0.078125" style="stroke:rgb(246,147,147);stroke-width:0.01" />
<line x1="0.122396" y1="-0.161458" x2="-0.127604" y2="0.0885417" style="stroke:rgb(246,147,147);stroke-width:0.01" />
<line x1="-0.210938" y1="-0.0364583" x2="0.247396" y2="-0.0364583" style="stroke:rgb(246,147,147);stroke-width:0.01" />
<line x1="0.0390625" y1="0.00520833" x2="-0.127604" y2="0.171875" style="stroke:rgb(246,147,147);stroke-width:0.01" />
<line x1="-0.210938" y1="0.00520833" x2="0.205729" y2="0.00520833" style="stroke:rgb(246,147,147);stroke-width:0.01" />
<line x1="0.0807292" y1="0.00520833" x2="-0.00260417" y2="0.0885417" style="stroke:rgb(246,147,147);stroke-width:0.01" />
<line x1="-0.0442708" y1="0.130208" x2="-0.0859375" y2="0.171875" style="stroke:rgb(246,147,147);stroke-width:0.01" />
<line x1="0.205729" y1="-0.078125" x2="-0.0442708" y2="0.171875" style="stroke:rgb(246,147,147);stroke-width:0.01" />
<line x1="-0.127604" y1="0.046875" x2="0.0807292" y2="0.046875" style="stroke:rgb(246,147,147);stroke-width:0.01" />
<line x1="0.122396" y1="0.046875" x2="0.164062" y2="0.046875" style="stroke:rgb(246,147,147);stroke-width:0.01" />
<line x1="0.122396" y1="0.046875" x2="0.0807292" y2="0.0885417" style="stroke:rgb(246,147,147);stroke-width:0.01" />
<line x1="0.205729" y1="0.00520833" x2="0.122396" y2="0.0885417" style="stroke:rgb(246,147,147);stroke-width:0.01" />
<line x1="-0.127604" y1="0.0885417" x2="0.247396" y2="0.0885417" style="stroke:rgb(246,147,147);stroke-width:0.01" />
<line x1="-0.127604" y1="0.130208" x2="-0.0442708" y2="0.130208" style="stroke:rgb(246,147,147);stroke-width:0.01" />
<line x1="0.0807292" y1="0.130208" x2="0.205729" y2="0.130208" style="stroke:rgb(246,147,147);stroke-width:0.01" />
<line x1="-0.127604" y1="0.171875" x2="-0.0442708" y2="0.171875" style="stroke:rgb(246,147,147);stroke-width:0.01" />
</g>
</svg>
