<svg xmlns="http://www.w3.org/2000/svg" viewBox="-1.5 -1.5 3 3">
<g transform="scale(1, -1)">
<path d="M-0.179696 -0.358532 L0.158940 -0.358532 L0.290190 -0.183532 L0.145878 -0.075298 L0.272124 0.034530 L0.256287 0.252706 L-0.243124 0.216454 L-0.309810 0.266468 L-0.390788 0.205735 z " fill="rgb(245,195,195)" />
<path d="M-1.309810 -1.633532 L-0.309810 -1.633532 L-0.309810 -0.633532 L-1.309810 -0.633532  z" fill="none" stroke="rgb(128,128,128)" stroke-width="0.01" />
<line x1="0.15894" y1="-0.358532" x2="0.29019" y2="-0.183532" style="stroke:rgb(246,147,147);stroke-width:0.01" />
<line x1="-0.274998" y1="-0.103782" x2="-0.10981" y2="0.116468" style="stroke:rgb(246,147,147);stroke-width:0.01" />
<line x1="0.0363553" y1="-0.170578" x2="0.00694294" y2="0.234606" style="stroke:rgb(246,147,147);stroke-width:0.01" />
<line x1="0.272124" y1="0.0345301" x2="0.256287" y2="0.252706" style="stroke:rgb(246,147,147);stroke-width:0.01" />
<line x1="-0.179696" y1="-0.358532" x2="0.272124" y2="0.0345301" style="stroke:rgb(246,147,147);stroke-width:0.01" />
<line x1="-0.378998" y1="0.174218" x2="-0.30981" y2="0.266468" style="stroke:rgb(246,147,147);stroke-width:0.01" />
<line x1="-0.179696" y1="-0.358532" x2="-0.390788" y2="0.205735" style="stroke:rgb(246,147,147);stroke-width:0.01" />
<line x1="-0.390788" y1="0.205735" x2="-0.30981" y2="0.266468" style="stroke:rgb(246,147,147);stroke-width:0.01" />
<line x1="0.15894" y1="-0.358532" x2="-0.30981" y2="0.266468" style="stroke:rgb(246,147,147);stroke-width:0.01" />
<line x1="-0.179696" y1="-0.358532" x2="0.15894" y2="-0.358532" style="stroke:rgb(246,147,147);stroke-width:0.01" />
<line x1="0.0363553" y1="-0.170578" x2="-0.274998" y2="-0.103782" style="stroke:rgb(246,147,147);stroke-width:0.01" />
<line x1="0.29019" y1="-0.183532" x2="-0.30981" y2="0.266468" style="stroke:rgb(246,147,147);stroke-width:0.01" />
<line x1="-0.390788" y1="0.205735" x2="0.256287" y2="0.252706" style="stroke:rgb(246,147,147);stroke-width:0.01" />
<line x1="0.272124" y1="0.0345301" x2="-0.378998" y2="0.174218" style="stroke:rgb(246,147,147);stroke-width:0.01" />
</g>
</svg>
