<svg xmlns="http://www.w3.org/2000/svg" viewBox="-1.5 -1.5 3 3">
<g transform="scale(1, -1)">
<path d="M0.238782 -0.431090 L0.280449 -0.389423 L0.280449 0.193910 L0.072115 0.193910 L0.009615 0.131410 L-0.052885 0.193910 L-0.052885 0.235577 L-0.136218 0.235577 L-0.136218 -0.014423 L-0.177885 -0.014423 L-0.177885 -0.056090 L-0.094551 -0.139423 L-0.052885 -0.139423 z " fill="rgb(245,195,195)" />
<path d="M-0.177885 -0.431090 L0.822115 -0.431090 L0.822115 0.568910 L-0.177885 0.568910  z" fill="none" stroke="rgb(128,128,128)" stroke-width="0.01" />
<line x1="0.238782" y1="-0.43109" x2="0.280449" y2="-0.389423" style="stroke:rgb(246,147,147);stroke-width:0.01" />
<line x1="-0.177885" y1="-0.0560897" x2="-0.177885" y2="-0.0144231" style="stroke:rgb(246,147,147);stroke-width:0.01" />
<line x1="-0.136218" y1="-0.0977564" x2="-0.136218" y2="0.235577" style="stroke:rgb(246,147,147);stroke-width:0.01" />
<line x1="-0.0945513" y1="-0.139423" x2="-0.0945513" y2="0.235577" style="stroke:rgb(246,147,147);stroke-width:0.01" />
<line x1="-0.0528846" y1="-0.0977564" x2="-0.0528846" y2="0.235577" style="stroke:rgb(246,147,147);stroke-width:0.01" />
<line x1="-0.0112179" y1="-0.0977564" x2="-0.0112179" y2="0.110577" style="stroke:rgb(246,147,147);stroke-width:0.01" />
<line x1="0.0304487" y1="-0.139423" x2="0.0304487" y2="0.110577" style="stroke:rgb(246,147,147);stroke-width:0.01" />
<line x1="0.0721154" y1="0.110577" x2="0.0721154" y2="0.19391" style="stroke:rgb(246,147,147);stroke-width:0.01" />
<line x1="0.155449" y1="-0.347756" x2="0.155449" y2="-0.0977564" style="stroke:rgb(246,147,147);stroke-width:0.01" />
<line x1="0.238782" y1="-0.347756" x2="0.238782" y2="0.19391" style="stroke:rgb(246,147,147);stroke-width:0.01" />
<line x1="0.280449" y1="-0.389423" x2="0.280449" y2="0.19391" style="stroke:rgb(246,147,147);stroke-width:0.01" />
<line x1="0.155449" y1="-0.347756" x2="0.280449" y2="-0.347756" style="stroke:rgb(246,147,147);stroke-width:0.01" />
<line x1="-0.0945513" y1="-0.139423" x2="0.0304487" y2="-0.0144231" style="stroke:rgb(246,147,147);stroke-width:0.01" />
<line x1="-0.136218" y1="-0.0977564" x2="0.0721154" y2="0.110577" style="stroke:rgb(246,147,147);stroke-width:0.01" />
<line x1="-0.136218" y1="-0.0560897" x2="-0.0528846" y2="0.0272436" style="stroke:rgb(246,147,147);stroke-width:0.01" />
<line x1="-0.177885" y1="-0.0560897" x2="0.0721154" y2="0.19391" style="stroke:rgb(246,147,147);stroke-width:0.01" />
<line x1="-0.0945513" y1="-0.139423" x2="-0.177885" y2="-0.0560897" style="stroke:rgb(246,147,147);stroke-width:0.01" />
<line x1="-0.0945513" y1="0.0689103" x2="-0.0528846" y2="0.110577" style="stroke:rgb(246,147,147);stroke-width:0.01" />
<line x1="0.238782" y1="-0.43109" x2="-0.157051" y2="-0.0352564" style="stroke:rgb(246,147,147);stroke-width:0.01" />
<line x1="-0.0528846" y1="-0.0977564" x2="-0.0945513" y2="-0.0560897" style="stroke:rgb(246,147,147);stroke-width:0.01" />
<line x1="0.280449" y1="-0.389423" x2="-0.0112179" y2="-0.0977564" style="stroke:rgb(246,147,147);stroke-width:0.01" />
<line x1="-0.136218" y1="0.19391" x2="-0.0945513" y2="0.235577" style="stroke:rgb(246,147,147);stroke-width:0.01" />
<line x1="-0.0945513" y1="-0.139423" x2="0.280449" y2="-0.139423" style="stroke:rgb(246,147,147);stroke-width:0.01" />
<line x1="-0.0528846" y1="0.0272436" x2="-0.136218" y2="0.110577" style="stroke:rgb(246,147,147);stroke-width:0.01" />
<line x1="-0.136218" y1="-0.0977564" x2="-0.0528846" y2="-0.0977564" style="stroke:rgb(246,147,147);stroke-width:0.01" />
<line x1="-0.0112179" y1="-0.0977564" x2="0.280449" y2="-0.0977564" style="stroke:rgb(246,147,147);stroke-width:0.01" />
<line x1="-0.0528846" y1="0.110577" x2="-0.136218" y2="0.19391" style="stroke:rgb(246,147,147);stroke-width:0.01" />
<line x1="-0.177885" y1="-0.0560897" x2="-0.0112179" y2="-0.0560897" style="stroke:rgb(246,147,147);stroke-width:0.01" />
<line x1="0.280449" y1="-0.139423" x2="-0.0945513" y2="0.235577" style="stroke:rgb(246,147,147);stroke-width:0.01" />
<line x1="-0.177885" y1="-0.0144231" x2="0.0304487" y2="-0.0144231" style="stroke:rgb(246,147,147);stroke-width:0.01" />
<line x1="-0.0945513" y1="0.0272436" x2="-0.0528846" y2="0.0272436" style="stroke:rgb(246,147,147);stroke-width:0.01" />
<line x1="-0.136218" y1="0.0689103" x2="-0.0945513" y2="0.0689103" style="stroke:rgb(246,147,147);stroke-width:0.01" />
<line x1="-0.136218" y1="0.110577" x2="0.0721154" y2="0.110577" style="stroke:rgb(246,147,147);stroke-width:0.01" />
<line x1="0.0721154" y1="0.19391" x2="0.280449" y2="0.19391" style="stroke:rgb(246,147,147);stroke-width:0.01" />
<line x1="-0.136218" y1="0.235577" x2="-0.0528846" y2="0.235577" style="stroke:rgb(246,147,147);stroke-width:0.01" />
</g>
</svg>
