<svg xmlns="http://www.w3.org/2000/svg" viewBox="-1.5 -1.5 3 3">
<g transform="scale(1, -1)">
<path d="M0.048146 -0.468186 L0.133213 -0.363448 L0.310296 0.088165 L0.099857 0.285665 L0.004910 0.294486 L0.004380 0.300828 L-0.122115 0.290259 L-0.333960 0.084099 L-0.108023 -0.467033 L-0.029477 -0.405142 z M-0.109446 0.085516 L-0.001280 0.187932 L0.103499 0.086860 z " fill="rgb(245,195,195)" />
<path d="M-0.508966 -0.415901 L0.491034 -0.415901 L0.491034 0.584099 L-0.508966 0.584099  z" fill="none" stroke="rgb(128,128,128)" stroke-width="0.01" />
<line x1="0.0481461" y1="-0.468186" x2="0.133213" y2="-0.363448" style="stroke:rgb(246,147,147);stroke-width:0.01" />
<line x1="-0.108023" y1="-0.467033" x2="0.182295" y2="-0.238274" style="stroke:rgb(246,147,147);stroke-width:0.01" />
<line x1="0.133213" y1="-0.363448" x2="0.310296" y2="0.088165" style="stroke:rgb(246,147,147);stroke-width:0.01" />
<line x1="0.133213" y1="-0.363448" x2="0.17125" y2="0.218662" style="stroke:rgb(246,147,147);stroke-width:0.01" />
<line x1="-0.00896563" y1="0.195345" x2="0.00028567" y2="0.294916" style="stroke:rgb(246,147,147);stroke-width:0.01" />
<line x1="-0.185267" y1="-0.278612" x2="-0.122115" y2="0.290259" style="stroke:rgb(246,147,147);stroke-width:0.01" />
<line x1="-0.108023" y1="-0.467033" x2="-0.185393" y2="0.228678" style="stroke:rgb(246,147,147);stroke-width:0.01" />
<line x1="0.0127064" y1="0.201175" x2="0.00438009" y2="0.300828" style="stroke:rgb(246,147,147);stroke-width:0.01" />
<line x1="-0.2716" y1="-0.068018" x2="0.0127064" y2="0.201175" style="stroke:rgb(246,147,147);stroke-width:0.01" />
<line x1="0.182295" y1="-0.238274" x2="0.0998568" y2="0.285665" style="stroke:rgb(246,147,147);stroke-width:0.01" />
<line x1="-0.108023" y1="-0.467033" x2="-0.33396" y2="0.084099" style="stroke:rgb(246,147,147);stroke-width:0.01" />
<line x1="-0.33396" y1="0.084099" x2="-0.122115" y2="0.290259" style="stroke:rgb(246,147,147);stroke-width:0.01" />
<line x1="0.0481461" y1="-0.468186" x2="-0.185267" y2="-0.278612" style="stroke:rgb(246,147,147);stroke-width:0.01" />
<line x1="-0.2716" y1="-0.068018" x2="0.253173" y2="-0.0575165" style="stroke:rgb(246,147,147);stroke-width:0.01" />
<line x1="-0.33396" y1="0.084099" x2="0.310296" y2="0.088165" style="stroke:rgb(246,147,147);stroke-width:0.01" />
<line x1="-0.00896563" y1="0.195345" x2="0.17125" y2="0.218662" style="stroke:rgb(246,147,147);stroke-width:0.01" />
<line x1="0.253173" y1="-0.0575165" x2="-0.00896563" y2="0.195345" style="stroke:rgb(246,147,147);stroke-width:0.01" />
<line x1="-0.122115" y1="0.290259" x2="0.00438009" y2="0.300828" style="stroke:rgb(246,147,147);stroke-width:0.01" />
<line x1="0.0127064" y1="0.201175" x2="-0.185393" y2="0.228678" style="stroke:rgb(246,147,147);stroke-width:0.01" />
<line x1="0.310296" y1="0.088165" x2="0.0998568" y2="0.285665" style="stroke:rgb(246,147,147);stroke-width:0.01" />
<line x1="0.0998568" y1="0.285665" x2="0.00028567" y2="0.294916" style="stroke:rgb(246,147,147);stroke-width:0.01" />
</g>
</svg>
