<svg xmlns="http://www.w3.org/2000/svg" viewBox="-1.5 -1.5 3 3">
<g transform="scale(1, -1)">
<path d="M0.043056 -0.381944 L0.126389 -0.381944 L0.126389 -0.090278 L0.084722 -0.048611 L0.084722 -0.006944 L0.209722 0.118056 L0.251389 0.118056 L0.251389 0.201389 L-0.165278 0.201389 L-0.290278 0.326389 L-0.331944 0.326389 L-0.331944 0.076389 L-0.081944 -0.173611 L-0.019444 -0.111111 L0.043056 -0.173611 z " fill="rgb(245,195,195)" />
<path d="M-0.331944 -0.381944 L0.668056 -0.381944 L0.668056 0.618056 L-0.331944 0.618056  z" fill="none" stroke="rgb(128,128,128)" stroke-width="0.01" />
<line x1="0.0847222" y1="-0.340278" x2="0.126389" y2="-0.298611" style="stroke:rgb(246,147,147);stroke-width:0.01" />
<line x1="0.0847222" y1="-0.256944" x2="0.126389" y2="-0.215278" style="stroke:rgb(246,147,147);stroke-width:0.01" />
<line x1="0.0430556" y1="-0.173611" x2="0.0847222" y2="-0.131944" style="stroke:rgb(246,147,147);stroke-width:0.01" />
<line x1="-0.0819444" y1="-0.173611" x2="0.251389" y2="0.159722" style="stroke:rgb(246,147,147);stroke-width:0.01" />
<line x1="0.0430556" y1="-0.381944" x2="0.126389" y2="-0.381944" style="stroke:rgb(246,147,147);stroke-width:0.01" />
<line x1="-0.331944" y1="0.0763889" x2="-0.331944" y2="0.326389" style="stroke:rgb(246,147,147);stroke-width:0.01" />
<line x1="-0.290278" y1="0.118056" x2="-0.290278" y2="0.326389" style="stroke:rgb(246,147,147);stroke-width:0.01" />
<line x1="-0.248611" y1="0.0763889" x2="-0.248611" y2="0.159722" style="stroke:rgb(246,147,147);stroke-width:0.01" />
<line x1="-0.206944" y1="0.118056" x2="-0.206944" y2="0.159722" style="stroke:rgb(246,147,147);stroke-width:0.01" />
<line x1="-0.165278" y1="-0.0902778" x2="-0.165278" y2="0.0763889" style="stroke:rgb(246,147,147);stroke-width:0.01" />
<line x1="-0.165278" y1="0.118056" x2="-0.165278" y2="0.201389" style="stroke:rgb(246,147,147);stroke-width:0.01" />
<line x1="-0.0402778" y1="-0.0902778" x2="-0.0402778" y2="0.0347222" style="stroke:rgb(246,147,147);stroke-width:0.01" />
<line x1="0.00138889" y1="-0.0902778" x2="0.00138889" y2="0.0763889" style="stroke:rgb(246,147,147);stroke-width:0.01" />
<line x1="0.0430556" y1="-0.381944" x2="0.0430556" y2="0.118056" style="stroke:rgb(246,147,147);stroke-width:0.01" />
<line x1="0.0847222" y1="-0.340278" x2="0.0847222" y2="0.159722" style="stroke:rgb(246,147,147);stroke-width:0.01" />
<line x1="0.126389" y1="-0.381944" x2="0.126389" y2="-0.0902778" style="stroke:rgb(246,147,147);stroke-width:0.01" />
<line x1="0.209722" y1="0.118056" x2="0.209722" y2="0.201389" style="stroke:rgb(246,147,147);stroke-width:0.01" />
<line x1="0.251389" y1="0.118056" x2="0.251389" y2="0.201389" style="stroke:rgb(246,147,147);stroke-width:0.01" />
<line x1="-0.165278" y1="-0.0902778" x2="0.0847222" y2="0.159722" style="stroke:rgb(246,147,147);stroke-width:0.01" />
<line x1="-0.248611" y1="0.0763889" x2="-0.144444" y2="0.180556" style="stroke:rgb(246,147,147);stroke-width:0.01" />
<line x1="-0.248611" y1="0.118056" x2="-0.165278" y2="0.201389" style="stroke:rgb(246,147,147);stroke-width:0.01" />
<line x1="0.0430556" y1="-0.173611" x2="0.126389" y2="-0.173611" style="stroke:rgb(246,147,147);stroke-width:0.01" />
<line x1="0.126389" y1="-0.381944" x2="0.0847222" y2="-0.340278" style="stroke:rgb(246,147,147);stroke-width:0.01" />
<line x1="-0.0819444" y1="-0.173611" x2="-0.331944" y2="0.0763889" style="stroke:rgb(246,147,147);stroke-width:0.01" />
<line x1="0.126389" y1="-0.298611" x2="0.0847222" y2="-0.256944" style="stroke:rgb(246,147,147);stroke-width:0.01" />
<line x1="-0.248611" y1="0.0763889" x2="-0.331944" y2="0.159722" style="stroke:rgb(246,147,147);stroke-width:0.01" />
<line x1="-0.165278" y1="-0.0902778" x2="0.126389" y2="-0.0902778" style="stroke:rgb(246,147,147);stroke-width:0.01" />
<line x1="0.0430556" y1="-0.173611" x2="-0.290278" y2="0.159722" style="stroke:rgb(246,147,147);stroke-width:0.01" />
<line x1="0.126389" y1="-0.215278" x2="-0.206944" y2="0.118056" style="stroke:rgb(246,147,147);stroke-width:0.01" />
<line x1="0.126389" y1="-0.173611" x2="-0.206944" y2="0.159722" style="stroke:rgb(246,147,147);stroke-width:0.01" />
<line x1="0.126389" y1="-0.0902778" x2="-0.290278" y2="0.326389" style="stroke:rgb(246,147,147);stroke-width:0.01" />
<line x1="-0.0402778" y1="0.0347222" x2="0.00138889" y2="0.0347222" style="stroke:rgb(246,147,147);stroke-width:0.01" />
<line x1="-0.331944" y1="0.0763889" x2="0.00138889" y2="0.0763889" style="stroke:rgb(246,147,147);stroke-width:0.01" />
<line x1="-0.290278" y1="0.118056" x2="0.251389" y2="0.118056" style="stroke:rgb(246,147,147);stroke-width:0.01" />
<line x1="-0.331944" y1="0.159722" x2="-0.206944" y2="0.159722" style="stroke:rgb(246,147,147);stroke-width:0.01" />
<line x1="0.0847222" y1="0.159722" x2="0.251389" y2="0.159722" style="stroke:rgb(246,147,147);stroke-width:0.01" />
<line x1="-0.290278" y1="0.201389" x2="0.251389" y2="0.201389" style="stroke:rgb(246,147,147);stroke-width:0.01" />
<line x1="-0.331944" y1="0.326389" x2="-0.290278" y2="0.326389" style="stroke:rgb(246,147,147);stroke-width:0.01" />
</g>
</svg>
