<svg xmlns="http://www.w3.org/2000/svg" viewBox="-1.5 -1.5 3 3">
<g transform="scale(1, -1)">
<path d="M-0.233209 -0.379211 L-0.135807 -0.243968 L0.500462 -0.044955 L0.393182 0.298034 L0.069193 0.516333 L-0.259182 0.159926 L-0.334641 -0.306159 z " fill="rgb(245,195,195)" />
<path d="M0.025143 -0.319230 L1.025143 -0.319230 L1.025143 0.680770 L0.025143 0.680770  z" fill="none" stroke="rgb(128,128,128)" stroke-width="0.01" />
<line x1="-0.233209" y1="-0.379211" x2="-0.334641" y2="-0.306159" style="stroke:rgb(246,147,147);stroke-width:0.01" />
<line x1="-0.174857" y1="0.18077" x2="-0.174857" y2="0.251449" style="stroke:rgb(246,147,147);stroke-width:0.01" />
<line x1="0.200143" y1="0.18077" x2="0.253028" y2="0.28654" style="stroke:rgb(246,147,147);stroke-width:0.01" />
<line x1="-0.334641" y1="-0.306159" x2="-0.259182" y2="0.159926" style="stroke:rgb(246,147,147);stroke-width:0.01" />
<line x1="0.253028" y1="0.28654" x2="0.299839" y2="0.360927" style="stroke:rgb(246,147,147);stroke-width:0.01" />
<line x1="-0.233209" y1="-0.379211" x2="0.299839" y2="0.360927" style="stroke:rgb(246,147,147);stroke-width:0.01" />
<line x1="-0.334641" y1="-0.306159" x2="0.500462" y2="-0.0449553" style="stroke:rgb(246,147,147);stroke-width:0.01" />
<line x1="0.500462" y1="-0.0449553" x2="0.393182" y2="0.298034" style="stroke:rgb(246,147,147);stroke-width:0.01" />
<line x1="0.200143" y1="0.18077" x2="0.00264403" y2="0.444103" style="stroke:rgb(246,147,147);stroke-width:0.01" />
<line x1="0.253028" y1="0.28654" x2="0.0691932" y2="0.516333" style="stroke:rgb(246,147,147);stroke-width:0.01" />
<line x1="-0.259182" y1="0.159926" x2="0.0691932" y2="0.516333" style="stroke:rgb(246,147,147);stroke-width:0.01" />
<line x1="-0.174857" y1="0.18077" x2="0.200143" y2="0.18077" style="stroke:rgb(246,147,147);stroke-width:0.01" />
<line x1="-0.259182" y1="0.159926" x2="0.253028" y2="0.28654" style="stroke:rgb(246,147,147);stroke-width:0.01" />
<line x1="0.253028" y1="0.28654" x2="0.00264403" y2="0.444103" style="stroke:rgb(246,147,147);stroke-width:0.01" />
<line x1="-0.174857" y1="0.251449" x2="0.393182" y2="0.298034" style="stroke:rgb(246,147,147);stroke-width:0.01" />
<line x1="0.393182" y1="0.298034" x2="0.0691932" y2="0.516333" style="stroke:rgb(246,147,147);stroke-width:0.01" />
</g>
</svg>
