<svg xmlns="http://www.w3.org/2000/svg" viewBox="-1.5 -1.5 3 3">
<g transform="scale(1, -1)">
<path d="M-0.258352 -0.059981 L-0.160950 0.075262 L0.475319 0.274274 L0.368039 0.617263 L0.044050 0.835562 L-0.284325 0.479156 L-0.359784 0.013070 z " fill="rgb(245,195,195)" />
<path d="M0.000000 0.000000 L1.000000 0.000000 L1.000000 1.000000 L0.000000 1.000000  z" fill="none" stroke="rgb(128,128,128)" stroke-width="0.01" />
<line x1="-0.258352" y1="-0.059981" x2="-0.359784" y2="0.0130705" style="stroke:rgb(246,147,147);stroke-width:0.01" />
<line x1="-0.2" y1="0.5" x2="-0.2" y2="0.570679" style="stroke:rgb(246,147,147);stroke-width:0.01" />
<line x1="0.175" y1="0.5" x2="0.227885" y2="0.605769" style="stroke:rgb(246,147,147);stroke-width:0.01" />
<line x1="-0.359784" y1="0.0130705" x2="-0.284325" y2="0.479156" style="stroke:rgb(246,147,147);stroke-width:0.01" />
<line x1="0.227885" y1="0.605769" x2="0.274696" y2="0.680157" style="stroke:rgb(246,147,147);stroke-width:0.01" />
<line x1="-0.258352" y1="-0.059981" x2="0.274696" y2="0.680157" style="stroke:rgb(246,147,147);stroke-width:0.01" />
<line x1="-0.359784" y1="0.0130705" x2="0.475319" y2="0.274274" style="stroke:rgb(246,147,147);stroke-width:0.01" />
<line x1="0.475319" y1="0.274274" x2="0.368039" y2="0.617263" style="stroke:rgb(246,147,147);stroke-width:0.01" />
<line x1="0.175" y1="0.5" x2="-0.0224992" y2="0.763332" style="stroke:rgb(246,147,147);stroke-width:0.01" />
<line x1="0.227885" y1="0.605769" x2="0.04405" y2="0.835562" style="stroke:rgb(246,147,147);stroke-width:0.01" />
<line x1="-0.284325" y1="0.479156" x2="0.04405" y2="0.835562" style="stroke:rgb(246,147,147);stroke-width:0.01" />
<line x1="-0.2" y1="0.5" x2="0.175" y2="0.5" style="stroke:rgb(246,147,147);stroke-width:0.01" />
<line x1="-0.284325" y1="0.479156" x2="0.227885" y2="0.605769" style="stroke:rgb(246,147,147);stroke-width:0.01" />
<line x1="0.227885" y1="0.605769" x2="-0.0224992" y2="0.763332" style="stroke:rgb(246,147,147);stroke-width:0.01" />
<line x1="-0.2" y1="0.570679" x2="0.368039" y2="0.617263" style="stroke:rgb(246,147,147);stroke-width:0.01" />
<line x1="0.368039" y1="0.617263" x2="0.04405" y2="0.835562" style="stroke:rgb(246,147,147);stroke-width:0.01" />
</g>
</svg>
