<svg xmlns="http://www.w3.org/2000/svg" viewBox="-1 -1 3 3">
<path d="M0.869080 -0.030994 L0.912570 0.137486 L1.000000 0.120000 L1.046154 0.230769 L1.000000 0.250000 L1.000000 0.476190 L0.000000 0.603175 L-0.099182 0.218944 z " fill="rgb(245,195,195)" />
<path d="M0 0 L0 1 L1 1 L1 0 z" fill="none" stroke="rgb(128,128,128)" stroke-width="0.01" />
<line x1="1" y1="0.12" x2="1.04615" y2="0.230769" style="stroke:rgb(246,147,147);stroke-width:0.01" />
<line x1="0.86908" y1="-0.0309943" x2="1" y2="0.47619" style="stroke:rgb(246,147,147);stroke-width:0.01" />
<line x1="0" y1="0.32" x2="0" y2="0.603175" style="stroke:rgb(246,147,147);stroke-width:0.01" />
<line x1="1" y1="0.12" x2="1" y2="0.47619" style="stroke:rgb(246,147,147);stroke-width:0.01" />
<line x1="0.116119" y1="0.560591" x2="0.11206" y2="0.588945" style="stroke:rgb(246,147,147);stroke-width:0.01" />
<line x1="-0.0991818" y1="0.218944" x2="0" y2="0.603175" style="stroke:rgb(246,147,147);stroke-width:0.01" />
<line x1="0" y1="0.32" x2="0.11206" y2="0.588945" style="stroke:rgb(246,147,147);stroke-width:0.01" />
<line x1="0.86908" y1="-0.0309943" x2="-0.0991818" y2="0.218944" style="stroke:rgb(246,147,147);stroke-width:0.01" />
<line x1="1" y1="0.12" x2="0" y2="0.32" style="stroke:rgb(246,147,147);stroke-width:0.01" />
<line x1="0.116119" y1="0.560591" x2="0.219178" y2="0.575342" style="stroke:rgb(246,147,147);stroke-width:0.01" />
<line x1="1.04615" y1="0.230769" x2="0.219178" y2="0.575342" style="stroke:rgb(246,147,147);stroke-width:0.01" />
<line x1="1" y1="0.47619" x2="0" y2="0.603175" style="stroke:rgb(246,147,147);stroke-width:0.01" />
</svg>
