<svg xmlns="http://www.w3.org/2000/svg" viewBox="-1.5 -1.5 3 3">
<g transform="scale(1, -1)">
<path d="M0.153002 -0.281691 L0.196492 -0.113210 L0.283922 -0.130696 L0.330076 -0.019927 L0.283922 -0.000696 L0.283922 0.225494 L-0.716078 0.352478 L-0.815260 -0.031753 z " fill="rgb(245,195,195)" />
<path d="M-0.716078 -0.250696 L0.283922 -0.250696 L0.283922 0.749304 L-0.716078 0.749304  z" fill="none" stroke="rgb(128,128,128)" stroke-width="0.01" />
<line x1="0.283922" y1="-0.130696" x2="0.330076" y2="-0.019927" style="stroke:rgb(246,147,147);stroke-width:0.01" />
<line x1="0.153002" y1="-0.281691" x2="0.283922" y2="0.225494" style="stroke:rgb(246,147,147);stroke-width:0.01" />
<line x1="-0.716078" y1="0.0693038" x2="-0.716078" y2="0.352478" style="stroke:rgb(246,147,147);stroke-width:0.01" />
<line x1="0.283922" y1="-0.130696" x2="0.283922" y2="0.225494" style="stroke:rgb(246,147,147);stroke-width:0.01" />
<line x1="-0.599959" y1="0.309894" x2="-0.604017" y2="0.338249" style="stroke:rgb(246,147,147);stroke-width:0.01" />
<line x1="-0.81526" y1="-0.0317525" x2="-0.716078" y2="0.352478" style="stroke:rgb(246,147,147);stroke-width:0.01" />
<line x1="-0.716078" y1="0.0693038" x2="-0.604017" y2="0.338249" style="stroke:rgb(246,147,147);stroke-width:0.01" />
<line x1="0.153002" y1="-0.281691" x2="-0.81526" y2="-0.0317525" style="stroke:rgb(246,147,147);stroke-width:0.01" />
<line x1="0.283922" y1="-0.130696" x2="-0.716078" y2="0.0693038" style="stroke:rgb(246,147,147);stroke-width:0.01" />
<line x1="-0.599959" y1="0.309894" x2="-0.4969" y2="0.324646" style="stroke:rgb(246,147,147);stroke-width:0.01" />
<line x1="0.330076" y1="-0.019927" x2="-0.4969" y2="0.324646" style="stroke:rgb(246,147,147);stroke-width:0.01" />
<line x1="0.283922" y1="0.225494" x2="-0.716078" y2="0.352478" style="stroke:rgb(246,147,147);stroke-width:0.01" />
</g>
</svg>
