<svg xmlns="http://www.w3.org/2000/svg" viewBox="-1.5 -1.5 3 3">
<g transform="scale(1, -1)">
<path d="M-0.031250 -0.236979 L0.031250 -0.174479 L0.072917 -0.174479 L0.156250 -0.091146 L0.156250 -0.007812 L0.072917 -0.007812 L0.114583 0.033854 L0.072917 0.075521 L0.072917 0.117188 L0.031250 0.117188 L-0.010417 0.158854 L-0.052083 0.117188 L-0.177083 0.117188 L-0.218750 0.075521 L-0.114583 -0.028646 L-0.177083 -0.091146 z " fill="rgb(245,195,195)" />
<path d="M-0.218750 -0.236979 L0.781250 -0.236979 L0.781250 0.763021 L-0.218750 0.763021  z" fill="none" stroke="rgb(128,128,128)" stroke-width="0.01" />
<line x1="0.0729167" y1="-0.174479" x2="0.15625" y2="-0.0911458" style="stroke:rgb(246,147,147);stroke-width:0.01" />
<line x1="-0.03125" y1="-0.236979" x2="0.0520833" y2="-0.153646" style="stroke:rgb(246,147,147);stroke-width:0.01" />
<line x1="-0.0520833" y1="-0.216146" x2="0.0729167" y2="-0.0911458" style="stroke:rgb(246,147,147);stroke-width:0.01" />
<line x1="-0.0729167" y1="-0.195312" x2="0.0520833" y2="-0.0703125" style="stroke:rgb(246,147,147);stroke-width:0.01" />
<line x1="-0.09375" y1="-0.174479" x2="0.114583" y2="0.0338542" style="stroke:rgb(246,147,147);stroke-width:0.01" />
<line x1="-0.09375" y1="-0.132812" x2="-0.0520833" y2="-0.0911458" style="stroke:rgb(246,147,147);stroke-width:0.01" />
<line x1="-0.135417" y1="-0.132812" x2="-0.135417" y2="-0.0494792" style="stroke:rgb(246,147,147);stroke-width:0.01" />
<line x1="-0.09375" y1="-0.174479" x2="-0.09375" y2="0.117188" style="stroke:rgb(246,147,147);stroke-width:0.01" />
<line x1="-0.0520833" y1="-0.216146" x2="-0.0520833" y2="0.0755208" style="stroke:rgb(246,147,147);stroke-width:0.01" />
<line x1="0.03125" y1="-0.174479" x2="0.03125" y2="0.117188" style="stroke:rgb(246,147,147);stroke-width:0.01" />
<line x1="0.0729167" y1="-0.174479" x2="0.0729167" y2="0.117188" style="stroke:rgb(246,147,147);stroke-width:0.01" />
<line x1="0.15625" y1="-0.0911458" x2="0.15625" y2="-0.0078125" style="stroke:rgb(246,147,147);stroke-width:0.01" />
<line x1="-0.09375" y1="-0.0494792" x2="0.03125" y2="0.0755208" style="stroke:rgb(246,147,147);stroke-width:0.01" />
<line x1="-0.177083" y1="-0.0911458" x2="0.03125" y2="0.117188" style="stroke:rgb(246,147,147);stroke-width:0.01" />
<line x1="-0.09375" y1="-0.174479" x2="0.0729167" y2="-0.174479" style="stroke:rgb(246,147,147);stroke-width:0.01" />
<line x1="-0.0520833" y1="0.0755208" x2="-0.0104167" y2="0.117188" style="stroke:rgb(246,147,147);stroke-width:0.01" />
<line x1="-0.135417" y1="0.0338542" x2="-0.0104167" y2="0.158854" style="stroke:rgb(246,147,147);stroke-width:0.01" />
<line x1="-0.03125" y1="-0.236979" x2="-0.177083" y2="-0.0911458" style="stroke:rgb(246,147,147);stroke-width:0.01" />
<line x1="-0.135417" y1="-0.132812" x2="-0.0520833" y2="-0.132812" style="stroke:rgb(246,147,147);stroke-width:0.01" />
<line x1="-0.0520833" y1="-0.174479" x2="-0.09375" y2="-0.132812" style="stroke:rgb(246,147,147);stroke-width:0.01" />
<line x1="-0.0520833" y1="-0.0911458" x2="0.15625" y2="-0.0911458" style="stroke:rgb(246,147,147);stroke-width:0.01" />
<line x1="-0.21875" y1="0.0755208" x2="-0.177083" y2="0.117188" style="stroke:rgb(246,147,147);stroke-width:0.01" />
<line x1="0.03125" y1="-0.174479" x2="-0.21875" y2="0.0755208" style="stroke:rgb(246,147,147);stroke-width:0.01" />
<line x1="0.0729167" y1="-0.174479" x2="-0.09375" y2="-0.0078125" style="stroke:rgb(246,147,147);stroke-width:0.01" />
<line x1="-0.135417" y1="-0.0494792" x2="-0.0520833" y2="-0.0494792" style="stroke:rgb(246,147,147);stroke-width:0.01" />
<line x1="0.03125" y1="-0.0911458" x2="-0.177083" y2="0.117188" style="stroke:rgb(246,147,147);stroke-width:0.01" />
<line x1="0.0729167" y1="-0.0911458" x2="-0.09375" y2="0.0755208" style="stroke:rgb(246,147,147);stroke-width:0.01" />
<line x1="-0.0520833" y1="-0.0078125" x2="0.15625" y2="-0.0078125" style="stroke:rgb(246,147,147);stroke-width:0.01" />
<line x1="-0.135417" y1="0.0338542" x2="0.114583" y2="0.0338542" style="stroke:rgb(246,147,147);stroke-width:0.01" />
<line x1="0.03125" y1="0.0755208" x2="-0.0104167" y2="0.117188" style="stroke:rgb(246,147,147);stroke-width:0.01" />
<line x1="0.114583" y1="0.0338542" x2="-0.0104167" y2="0.158854" style="stroke:rgb(246,147,147);stroke-width:0.01" />
<line x1="-0.21875" y1="0.0755208" x2="0.0729167" y2="0.0755208" style="stroke:rgb(246,147,147);stroke-width:0.01" />
<line x1="-0.177083" y1="0.117188" x2="0.0729167" y2="0.117188" style="stroke:rgb(246,147,147);stroke-width:0.01" />
</g>
</svg>
