<svg xmlns="http://www.w3.org/2000/svg" viewBox="-1.5 -1.5 3 3">
<g transform="scale(1, -1)">
<path d="M-0.115885 -0.209635 L-0.032552 -0.209635 L-0.032552 -0.126302 L0.050781 -0.126302 L0.134115 -0.042969 L0.134115 -0.001302 L0.092448 0.040365 L0.050781 0.040365 L0.050781 0.165365 L0.175781 0.165365 L0.175781 0.207031 L0.050781 0.332031 L-0.220052 0.061198 L-0.199219 0.040365 L-0.199219 -0.167969 L-0.115885 -0.167969 z " fill="rgb(245,195,195)" />
<path d="M-0.220052 -0.209635 L0.779948 -0.209635 L0.779948 0.790365 L-0.220052 0.790365  z" fill="none" stroke="rgb(128,128,128)" stroke-width="0.01" />
<line x1="0.0507812" y1="-0.126302" x2="0.134115" y2="-0.0429688" style="stroke:rgb(246,147,147);stroke-width:0.01" />
<line x1="0.0924479" y1="-0.0429688" x2="0.134115" y2="-0.00130208" style="stroke:rgb(246,147,147);stroke-width:0.01" />
<line x1="-0.115885" y1="-0.209635" x2="0.0924479" y2="-0.00130208" style="stroke:rgb(246,147,147);stroke-width:0.01" />
<line x1="-0.115885" y1="-0.209635" x2="-0.0325521" y2="-0.209635" style="stroke:rgb(246,147,147);stroke-width:0.01" />
<line x1="-0.199219" y1="-0.167969" x2="-0.199219" y2="0.0403646" style="stroke:rgb(246,147,147);stroke-width:0.01" />
<line x1="-0.115885" y1="-0.209635" x2="-0.115885" y2="0.165365" style="stroke:rgb(246,147,147);stroke-width:0.01" />
<line x1="-0.0742188" y1="-0.167969" x2="-0.0742188" y2="0.207031" style="stroke:rgb(246,147,147);stroke-width:0.01" />
<line x1="-0.0325521" y1="-0.209635" x2="-0.0325521" y2="0.248698" style="stroke:rgb(246,147,147);stroke-width:0.01" />
<line x1="0.00911458" y1="-0.0846354" x2="0.00911458" y2="0.248698" style="stroke:rgb(246,147,147);stroke-width:0.01" />
<line x1="0.0507812" y1="-0.126302" x2="0.0507812" y2="0.332031" style="stroke:rgb(246,147,147);stroke-width:0.01" />
<line x1="0.0924479" y1="-0.0429688" x2="0.0924479" y2="0.0403646" style="stroke:rgb(246,147,147);stroke-width:0.01" />
<line x1="0.134115" y1="-0.0429688" x2="0.134115" y2="-0.00130208" style="stroke:rgb(246,147,147);stroke-width:0.01" />
<line x1="0.175781" y1="0.165365" x2="0.175781" y2="0.207031" style="stroke:rgb(246,147,147);stroke-width:0.01" />
<line x1="-0.199219" y1="-0.126302" x2="0.00911458" y2="0.0820312" style="stroke:rgb(246,147,147);stroke-width:0.01" />
<line x1="-0.199219" y1="-0.167969" x2="-0.0742188" y2="-0.167969" style="stroke:rgb(246,147,147);stroke-width:0.01" />
<line x1="-0.199219" y1="-0.0429688" x2="-0.0325521" y2="0.123698" style="stroke:rgb(246,147,147);stroke-width:0.01" />
<line x1="-0.199219" y1="-0.126302" x2="0.0507812" y2="-0.126302" style="stroke:rgb(246,147,147);stroke-width:0.01" />
<line x1="-0.0742188" y1="-0.0846354" x2="0.00911458" y2="-0.0846354" style="stroke:rgb(246,147,147);stroke-width:0.01" />
<line x1="-0.220052" y1="0.0611979" x2="0.0507812" y2="0.332031" style="stroke:rgb(246,147,147);stroke-width:0.01" />
<line x1="-0.0325521" y1="-0.126302" x2="-0.220052" y2="0.0611979" style="stroke:rgb(246,147,147);stroke-width:0.01" />
<line x1="-0.199219" y1="-0.0429688" x2="0.134115" y2="-0.0429688" style="stroke:rgb(246,147,147);stroke-width:0.01" />
<line x1="-0.0742188" y1="-0.00130208" x2="-0.115885" y2="0.0403646" style="stroke:rgb(246,147,147);stroke-width:0.01" />
<line x1="-0.0742188" y1="-0.00130208" x2="-0.0325521" y2="-0.00130208" style="stroke:rgb(246,147,147);stroke-width:0.01" />
<line x1="0.0507812" y1="-0.00130208" x2="0.134115" y2="-0.00130208" style="stroke:rgb(246,147,147);stroke-width:0.01" />
<line x1="-0.0325521" y1="0.0403646" x2="-0.0742188" y2="0.0820312" style="stroke:rgb(246,147,147);stroke-width:0.01" />
<line x1="0.0716146" y1="-0.0221354" x2="-0.115885" y2="0.165365" style="stroke:rgb(246,147,147);stroke-width:0.01" />
<line x1="-0.199219" y1="0.0403646" x2="0.0924479" y2="0.0403646" style="stroke:rgb(246,147,147);stroke-width:0.01" />
<line x1="0.134115" y1="-0.0429688" x2="-0.0742188" y2="0.165365" style="stroke:rgb(246,147,147);stroke-width:0.01" />
<line x1="0.134115" y1="-0.00130208" x2="0.0924479" y2="0.0403646" style="stroke:rgb(246,147,147);stroke-width:0.01" />
<line x1="-0.0325521" y1="0.165365" x2="-0.0742188" y2="0.207031" style="stroke:rgb(246,147,147);stroke-width:0.01" />
<line x1="-0.115885" y1="0.165365" x2="0.175781" y2="0.165365" style="stroke:rgb(246,147,147);stroke-width:0.01" />
<line x1="0.175781" y1="0.207031" x2="0.0507812" y2="0.332031" style="stroke:rgb(246,147,147);stroke-width:0.01" />
<line x1="-0.0742188" y1="0.207031" x2="0.175781" y2="0.207031" style="stroke:rgb(246,147,147);stroke-width:0.01" />
<line x1="-0.0325521" y1="0.248698" x2="0.00911458" y2="0.248698" style="stroke:rgb(246,147,147);stroke-width:0.01" />
</g>
</svg>
