<svg xmlns="http://www.w3.org/2000/svg" viewBox="-1.5 -1.5 3 3">
<g transform="scale(1, -1)">
<path d="M0.104167 0.000000 L0.187500 0.000000 L0.187500 0.083333 L0.270833 0.083333 L0.354167 0.166667 L0.354167 0.208333 L0.312500 0.250000 L0.270833 0.250000 L0.270833 0.375000 L0.395833 0.375000 L0.395833 0.416667 L0.270833 0.541667 L0.000000 0.270833 L0.020833 0.250000 L0.020833 0.041667 L0.104167 0.041667 z " fill="rgb(245,195,195)" />
<path d="M0.000000 0.000000 L1.000000 0.000000 L1.000000 1.000000 L0.000000 1.000000  z" fill="none" stroke="rgb(128,128,128)" stroke-width="0.01" />
<line x1="0.270833" y1="0.0833333" x2="0.354167" y2="0.166667" style="stroke:rgb(246,147,147);stroke-width:0.01" />
<line x1="0.3125" y1="0.166667" x2="0.354167" y2="0.208333" style="stroke:rgb(246,147,147);stroke-width:0.01" />
<line x1="0.104167" y1="0" x2="0.3125" y2="0.208333" style="stroke:rgb(246,147,147);stroke-width:0.01" />
<line x1="0.104167" y1="0" x2="0.1875" y2="0" style="stroke:rgb(246,147,147);stroke-width:0.01" />
<line x1="0.0208333" y1="0.0416667" x2="0.0208333" y2="0.25" style="stroke:rgb(246,147,147);stroke-width:0.01" />
<line x1="0.104167" y1="0" x2="0.104167" y2="0.375" style="stroke:rgb(246,147,147);stroke-width:0.01" />
<line x1="0.145833" y1="0.0416667" x2="0.145833" y2="0.416667" style="stroke:rgb(246,147,147);stroke-width:0.01" />
<line x1="0.1875" y1="0" x2="0.1875" y2="0.458333" style="stroke:rgb(246,147,147);stroke-width:0.01" />
<line x1="0.229167" y1="0.125" x2="0.229167" y2="0.458333" style="stroke:rgb(246,147,147);stroke-width:0.01" />
<line x1="0.270833" y1="0.0833333" x2="0.270833" y2="0.541667" style="stroke:rgb(246,147,147);stroke-width:0.01" />
<line x1="0.3125" y1="0.166667" x2="0.3125" y2="0.25" style="stroke:rgb(246,147,147);stroke-width:0.01" />
<line x1="0.354167" y1="0.166667" x2="0.354167" y2="0.208333" style="stroke:rgb(246,147,147);stroke-width:0.01" />
<line x1="0.395833" y1="0.375" x2="0.395833" y2="0.416667" style="stroke:rgb(246,147,147);stroke-width:0.01" />
<line x1="0.0208333" y1="0.0833333" x2="0.229167" y2="0.291667" style="stroke:rgb(246,147,147);stroke-width:0.01" />
<line x1="0.0208333" y1="0.0416667" x2="0.145833" y2="0.0416667" style="stroke:rgb(246,147,147);stroke-width:0.01" />
<line x1="0.0208333" y1="0.166667" x2="0.1875" y2="0.333333" style="stroke:rgb(246,147,147);stroke-width:0.01" />
<line x1="0.0208333" y1="0.0833333" x2="0.270833" y2="0.0833333" style="stroke:rgb(246,147,147);stroke-width:0.01" />
<line x1="0.145833" y1="0.125" x2="0.229167" y2="0.125" style="stroke:rgb(246,147,147);stroke-width:0.01" />
<line x1="0" y1="0.270833" x2="0.270833" y2="0.541667" style="stroke:rgb(246,147,147);stroke-width:0.01" />
<line x1="0.1875" y1="0.0833333" x2="0" y2="0.270833" style="stroke:rgb(246,147,147);stroke-width:0.01" />
<line x1="0.0208333" y1="0.166667" x2="0.354167" y2="0.166667" style="stroke:rgb(246,147,147);stroke-width:0.01" />
<line x1="0.145833" y1="0.208333" x2="0.104167" y2="0.25" style="stroke:rgb(246,147,147);stroke-width:0.01" />
<line x1="0.145833" y1="0.208333" x2="0.1875" y2="0.208333" style="stroke:rgb(246,147,147);stroke-width:0.01" />
<line x1="0.270833" y1="0.208333" x2="0.354167" y2="0.208333" style="stroke:rgb(246,147,147);stroke-width:0.01" />
<line x1="0.1875" y1="0.25" x2="0.145833" y2="0.291667" style="stroke:rgb(246,147,147);stroke-width:0.01" />
<line x1="0.291667" y1="0.1875" x2="0.104167" y2="0.375" style="stroke:rgb(246,147,147);stroke-width:0.01" />
<line x1="0.0208333" y1="0.25" x2="0.3125" y2="0.25" style="stroke:rgb(246,147,147);stroke-width:0.01" />
<line x1="0.354167" y1="0.166667" x2="0.145833" y2="0.375" style="stroke:rgb(246,147,147);stroke-width:0.01" />
<line x1="0.354167" y1="0.208333" x2="0.3125" y2="0.25" style="stroke:rgb(246,147,147);stroke-width:0.01" />
<line x1="0.1875" y1="0.375" x2="0.145833" y2="0.416667" style="stroke:rgb(246,147,147);stroke-width:0.01" />
<line x1="0.104167" y1="0.375" x2="0.395833" y2="0.375" style="stroke:rgb(246,147,147);stroke-width:0.01" />
<line x1="0.395833" y1="0.416667" x2="0.270833" y2="0.541667" style="stroke:rgb(246,147,147);stroke-width:0.01" />
<line x1="0.145833" y1="0.416667" x2="0.395833" y2="0.416667" style="stroke:rgb(246,147,147);stroke-width:0.01" />
<line x1="0.1875" y1="0.458333" x2="0.229167" y2="0.458333" style="stroke:rgb(246,147,147);stroke-width:0.01" />
</g>
</svg>
