<svg xmlns="http://www.w3.org/2000/svg" viewBox="-1.5 -1.5 3 3">
<g transform="scale(1, -1)">
<path d="M0.208333 0.000000 L0.291667 0.000000 L0.541667 0.250000 L0.416667 0.375000 L0.416667 0.458333 L0.041667 0.458333 L0.000000 0.416667 L0.000000 0.333333 L0.083333 0.333333 L0.041667 0.291667 L0.041667 0.166667 L0.208333 0.166667 z " fill="rgb(245,195,195)" />
<path d="M0.000000 0.000000 L1.000000 0.000000 L1.000000 1.000000 L0.000000 1.000000  z" fill="none" stroke="rgb(128,128,128)" stroke-width="0.01" />
<line x1="0.291667" y1="0" x2="0.541667" y2="0.25" style="stroke:rgb(246,147,147);stroke-width:0.01" />
<line x1="0.3125" y1="0.1875" x2="0.458333" y2="0.333333" style="stroke:rgb(246,147,147);stroke-width:0.01" />
<line x1="0.208333" y1="0" x2="0.291667" y2="0" style="stroke:rgb(246,147,147);stroke-width:0.01" />
<line x1="0" y1="0.333333" x2="0" y2="0.416667" style="stroke:rgb(246,147,147);stroke-width:0.01" />
<line x1="0.0416667" y1="0.166667" x2="0.0416667" y2="0.291667" style="stroke:rgb(246,147,147);stroke-width:0.01" />
<line x1="0.166667" y1="0.166667" x2="0.166667" y2="0.458333" style="stroke:rgb(246,147,147);stroke-width:0.01" />
<line x1="0.208333" y1="0" x2="0.208333" y2="0.458333" style="stroke:rgb(246,147,147);stroke-width:0.01" />
<line x1="0.291667" y1="0" x2="0.291667" y2="0.458333" style="stroke:rgb(246,147,147);stroke-width:0.01" />
<line x1="0.333333" y1="0.166667" x2="0.333333" y2="0.458333" style="stroke:rgb(246,147,147);stroke-width:0.01" />
<line x1="0.375" y1="0.166667" x2="0.375" y2="0.458333" style="stroke:rgb(246,147,147);stroke-width:0.01" />
<line x1="0.416667" y1="0.125" x2="0.416667" y2="0.458333" style="stroke:rgb(246,147,147);stroke-width:0.01" />
<line x1="0.291667" y1="0.333333" x2="0.416667" y2="0.458333" style="stroke:rgb(246,147,147);stroke-width:0.01" />
<line x1="0.291667" y1="0.416667" x2="0.333333" y2="0.458333" style="stroke:rgb(246,147,147);stroke-width:0.01" />
<line x1="0.166667" y1="0.375" x2="0.25" y2="0.458333" style="stroke:rgb(246,147,147);stroke-width:0.01" />
<line x1="0.0416667" y1="0.291667" x2="0.208333" y2="0.458333" style="stroke:rgb(246,147,147);stroke-width:0.01" />
<line x1="0.0416667" y1="0.166667" x2="0.416667" y2="0.166667" style="stroke:rgb(246,147,147);stroke-width:0.01" />
<line x1="0" y1="0.416667" x2="0.0416667" y2="0.458333" style="stroke:rgb(246,147,147);stroke-width:0.01" />
<line x1="0.291667" y1="0.208333" x2="0.375" y2="0.208333" style="stroke:rgb(246,147,147);stroke-width:0.01" />
<line x1="0.333333" y1="0.25" x2="0.375" y2="0.25" style="stroke:rgb(246,147,147);stroke-width:0.01" />
<line x1="0.395833" y1="0.104167" x2="0.0416667" y2="0.458333" style="stroke:rgb(246,147,147);stroke-width:0.01" />
<line x1="0.416667" y1="0.125" x2="0.166667" y2="0.375" style="stroke:rgb(246,147,147);stroke-width:0.01" />
<line x1="0.0416667" y1="0.291667" x2="0.375" y2="0.291667" style="stroke:rgb(246,147,147);stroke-width:0.01" />
<line x1="0.416667" y1="0.166667" x2="0.166667" y2="0.416667" style="stroke:rgb(246,147,147);stroke-width:0.01" />
<line x1="0.375" y1="0.25" x2="0.333333" y2="0.291667" style="stroke:rgb(246,147,147);stroke-width:0.01" />
<line x1="0" y1="0.333333" x2="0.458333" y2="0.333333" style="stroke:rgb(246,147,147);stroke-width:0.01" />
<line x1="0.375" y1="0.333333" x2="0.25" y2="0.458333" style="stroke:rgb(246,147,147);stroke-width:0.01" />
<line x1="0" y1="0.375" x2="0.333333" y2="0.375" style="stroke:rgb(246,147,147);stroke-width:0.01" />
<line x1="0.541667" y1="0.25" x2="0.333333" y2="0.458333" style="stroke:rgb(246,147,147);stroke-width:0.01" />
<line x1="0" y1="0.416667" x2="0.375" y2="0.416667" style="stroke:rgb(246,147,147);stroke-width:0.01" />
<line x1="0.0416667" y1="0.458333" x2="0.416667" y2="0.458333" style="stroke:rgb(246,147,147);stroke-width:0.01" />
</g>
</svg>
