<svg xmlns="http://www.w3.org/2000/svg" viewBox="-1.5 -1.5 3 3">
<g transform="scale(1, -1)">
<path d="M-0.292969 -0.170573 L-0.084635 -0.170573 L-0.042969 -0.128906 L-0.042969 -0.087240 L-0.001302 -0.128906 L0.123698 -0.128906 L0.123698 -0.087240 L0.207031 -0.087240 L0.207031 0.121094 L0.102865 0.225260 L0.082031 0.204427 L-0.001302 0.204427 L-0.001302 0.121094 L-0.042969 0.079427 L-0.167969 0.079427 L-0.167969 -0.045573 z " fill="rgb(245,195,195)" />
<path d="M-0.292969 -0.170573 L0.707031 -0.170573 L0.707031 0.829427 L-0.292969 0.829427  z" fill="none" stroke="rgb(128,128,128)" stroke-width="0.01" />
<line x1="0.0403646" y1="-0.128906" x2="0.123698" y2="-0.0455729" style="stroke:rgb(246,147,147);stroke-width:0.01" />
<line x1="-0.00130208" y1="-0.128906" x2="0.123698" y2="-0.00390625" style="stroke:rgb(246,147,147);stroke-width:0.01" />
<line x1="-0.0846354" y1="-0.170573" x2="-0.0429688" y2="-0.128906" style="stroke:rgb(246,147,147);stroke-width:0.01" />
<line x1="-0.00130208" y1="-0.0872396" x2="0.165365" y2="0.0794271" style="stroke:rgb(246,147,147);stroke-width:0.01" />
<line x1="-0.167969" y1="-0.170573" x2="0.0820312" y2="0.0794271" style="stroke:rgb(246,147,147);stroke-width:0.01" />
<line x1="-0.0846354" y1="-0.00390625" x2="0.123698" y2="0.204427" style="stroke:rgb(246,147,147);stroke-width:0.01" />
<line x1="-0.292969" y1="-0.170573" x2="-0.0846354" y2="-0.170573" style="stroke:rgb(246,147,147);stroke-width:0.01" />
<line x1="-0.292969" y1="-0.170573" x2="0.102865" y2="0.22526" style="stroke:rgb(246,147,147);stroke-width:0.01" />
<line x1="-0.167969" y1="-0.170573" x2="-0.167969" y2="0.0794271" style="stroke:rgb(246,147,147);stroke-width:0.01" />
<line x1="-0.126302" y1="0.0377604" x2="-0.126302" y2="0.0794271" style="stroke:rgb(246,147,147);stroke-width:0.01" />
<line x1="-0.0846354" y1="-0.170573" x2="-0.0846354" y2="0.0377604" style="stroke:rgb(246,147,147);stroke-width:0.01" />
<line x1="-0.0429688" y1="-0.128906" x2="-0.0429688" y2="0.0794271" style="stroke:rgb(246,147,147);stroke-width:0.01" />
<line x1="-0.00130208" y1="-0.128906" x2="-0.00130208" y2="0.204427" style="stroke:rgb(246,147,147);stroke-width:0.01" />
<line x1="0.0403646" y1="-0.128906" x2="0.0403646" y2="0.204427" style="stroke:rgb(246,147,147);stroke-width:0.01" />
<line x1="0.0820312" y1="0.0794271" x2="0.0820312" y2="0.204427" style="stroke:rgb(246,147,147);stroke-width:0.01" />
<line x1="0.123698" y1="-0.128906" x2="0.123698" y2="0.204427" style="stroke:rgb(246,147,147);stroke-width:0.01" />
<line x1="0.165365" y1="-0.0872396" x2="0.165365" y2="0.0794271" style="stroke:rgb(246,147,147);stroke-width:0.01" />
<line x1="0.207031" y1="-0.0872396" x2="0.207031" y2="0.121094" style="stroke:rgb(246,147,147);stroke-width:0.01" />
<line x1="-0.00130208" y1="-0.128906" x2="0.123698" y2="-0.128906" style="stroke:rgb(246,147,147);stroke-width:0.01" />
<line x1="-0.00130208" y1="-0.0872396" x2="0.207031" y2="-0.0872396" style="stroke:rgb(246,147,147);stroke-width:0.01" />
<line x1="-0.0429688" y1="-0.128906" x2="-0.0846354" y2="-0.0872396" style="stroke:rgb(246,147,147);stroke-width:0.01" />
<line x1="-0.0846354" y1="-0.00390625" x2="0.165365" y2="-0.00390625" style="stroke:rgb(246,147,147);stroke-width:0.01" />
<line x1="-0.00130208" y1="-0.128906" x2="-0.167969" y2="0.0377604" style="stroke:rgb(246,147,147);stroke-width:0.01" />
<line x1="0.0403646" y1="-0.128906" x2="-0.126302" y2="0.0377604" style="stroke:rgb(246,147,147);stroke-width:0.01" />
<line x1="-0.167969" y1="0.0377604" x2="0.123698" y2="0.0377604" style="stroke:rgb(246,147,147);stroke-width:0.01" />
<line x1="-0.0429688" y1="0.0377604" x2="-0.0638021" y2="0.0585938" style="stroke:rgb(246,147,147);stroke-width:0.01" />
<line x1="-0.167969" y1="0.0794271" x2="0.0820312" y2="0.0794271" style="stroke:rgb(246,147,147);stroke-width:0.01" />
<line x1="0.165365" y1="0.0794271" x2="0.207031" y2="0.0794271" style="stroke:rgb(246,147,147);stroke-width:0.01" />
<line x1="0.123698" y1="-0.0455729" x2="0.102865" y2="-0.0247396" style="stroke:rgb(246,147,147);stroke-width:0.01" />
<line x1="-0.00130208" y1="0.121094" x2="0.207031" y2="0.121094" style="stroke:rgb(246,147,147);stroke-width:0.01" />
<line x1="0.123698" y1="-0.00390625" x2="0.0403646" y2="0.0794271" style="stroke:rgb(246,147,147);stroke-width:0.01" />
<line x1="0.165365" y1="-0.00390625" x2="0.0195312" y2="0.141927" style="stroke:rgb(246,147,147);stroke-width:0.01" />
<line x1="-0.00130208" y1="0.204427" x2="0.123698" y2="0.204427" style="stroke:rgb(246,147,147);stroke-width:0.01" />
<line x1="0.207031" y1="0.121094" x2="0.102865" y2="0.22526" style="stroke:rgb(246,147,147);stroke-width:0.01" />
</g>
</svg>
