<svg xmlns="http://www.w3.org/2000/svg" viewBox="-1.5 -1.5 3 3">
<g transform="scale(1, -1)">
<path d="M0.275772 -0.417073 L0.137886 -0.208536 L0.346422 -0.070650 L0.417073 0.275772 L0.208536 0.137886 L0.070650 0.346422 L-0.275772 0.417073 L-0.137886 0.208536 L-0.346422 0.070650 L-0.417073 -0.275772 L-0.208536 -0.137886 L-0.070650 -0.346422 z " fill="rgb(245,195,195)" />
<path d="M27751.342951 3484.541066 L27752.342951 3484.541066 L27752.342951 3485.541066 L27751.342951 3485.541066  z" fill="none" stroke="rgb(128,128,128)" stroke-width="0.01" />
<line x1="-0.0706504" y1="-0.346422" x2="-0.346422" y2="0.0706504" style="stroke:rgb(246,147,147);stroke-width:0.01" />
<line x1="0.275772" y1="-0.417073" x2="-0.275772" y2="0.417073" style="stroke:rgb(246,147,147);stroke-width:0.01" />
<line x1="0.346422" y1="-0.0706504" x2="0.0706504" y2="0.346422" style="stroke:rgb(246,147,147);stroke-width:0.01" />
<line x1="0.275772" y1="-0.417073" x2="-0.0706504" y2="-0.346422" style="stroke:rgb(246,147,147);stroke-width:0.01" />
<line x1="0.346422" y1="-0.0706504" x2="-0.346422" y2="0.0706504" style="stroke:rgb(246,147,147);stroke-width:0.01" />
<line x1="0.0706504" y1="0.346422" x2="-0.275772" y2="0.417073" style="stroke:rgb(246,147,147);stroke-width:0.01" />
<line x1="0.346422" y1="-0.0706504" x2="0.417073" y2="0.275772" style="stroke:rgb(246,147,147);stroke-width:0.01" />
<line x1="-0.0706504" y1="-0.346422" x2="0.0706504" y2="0.346422" style="stroke:rgb(246,147,147);stroke-width:0.01" />
<line x1="-0.417073" y1="-0.275772" x2="-0.346422" y2="0.0706504" style="stroke:rgb(246,147,147);stroke-width:0.01" />
<line x1="-0.0706504" y1="-0.346422" x2="0.346422" y2="-0.0706504" style="stroke:rgb(246,147,147);stroke-width:0.01" />
<line x1="-0.417073" y1="-0.275772" x2="0.417073" y2="0.275772" style="stroke:rgb(246,147,147);stroke-width:0.01" />
<line x1="-0.346422" y1="0.0706504" x2="0.0706504" y2="0.346422" style="stroke:rgb(246,147,147);stroke-width:0.01" />
</g>
</svg>
