<svg xmlns="http://www.w3.org/2000/svg" viewBox="-1.5 -1.5 3 3">
<g transform="scale(1, -1)">
<path d="M0.042763 -0.251096 L0.084430 -0.251096 L0.167763 -0.167763 L0.209430 -0.167763 L0.209430 -0.084430 L0.167763 -0.084430 L0.063596 0.019737 L0.167763 0.123904 L0.167763 0.415570 L-0.040570 0.415570 L-0.040570 0.290570 L-0.123904 0.207237 L-0.123904 0.040570 L-0.165570 0.040570 L-0.165570 -0.001096 L-0.248904 -0.084430 L-0.207237 -0.126096 L-0.207237 -0.167763 L0.042763 -0.167763 z " fill="rgb(245,195,195)" />
<path d="M-0.248904 -0.251096 L0.751096 -0.251096 L0.751096 0.748904 L-0.248904 0.748904  z" fill="none" stroke="rgb(128,128,128)" stroke-width="0.01" />
<line x1="0.0844298" y1="-0.251096" x2="0.20943" y2="-0.126096" style="stroke:rgb(246,147,147);stroke-width:0.01" />
<line x1="0.0427632" y1="-0.167763" x2="0.126096" y2="-0.0844298" style="stroke:rgb(246,147,147);stroke-width:0.01" />
<line x1="-0.123904" y1="-0.167763" x2="0.167763" y2="0.123904" style="stroke:rgb(246,147,147);stroke-width:0.01" />
<line x1="0.0427632" y1="-0.251096" x2="0.0844298" y2="-0.251096" style="stroke:rgb(246,147,147);stroke-width:0.01" />
<line x1="-0.16557" y1="-0.167763" x2="0.126096" y2="0.123904" style="stroke:rgb(246,147,147);stroke-width:0.01" />
<line x1="-0.207237" y1="-0.167763" x2="-0.207237" y2="-0.0427632" style="stroke:rgb(246,147,147);stroke-width:0.01" />
<line x1="-0.16557" y1="-0.167763" x2="-0.16557" y2="0.0405702" style="stroke:rgb(246,147,147);stroke-width:0.01" />
<line x1="-0.123904" y1="-0.167763" x2="-0.123904" y2="0.207237" style="stroke:rgb(246,147,147);stroke-width:0.01" />
<line x1="-0.0822368" y1="-0.167763" x2="-0.0822368" y2="0.0822368" style="stroke:rgb(246,147,147);stroke-width:0.01" />
<line x1="-0.0405702" y1="-0.0427632" x2="-0.0405702" y2="0.123904" style="stroke:rgb(246,147,147);stroke-width:0.01" />
<line x1="-0.0405702" y1="0.248904" x2="-0.0405702" y2="0.41557" style="stroke:rgb(246,147,147);stroke-width:0.01" />
<line x1="0.00109649" y1="-0.0427632" x2="0.00109649" y2="0.248904" style="stroke:rgb(246,147,147);stroke-width:0.01" />
<line x1="0.0427632" y1="-0.251096" x2="0.0427632" y2="-0.0427632" style="stroke:rgb(246,147,147);stroke-width:0.01" />
<line x1="0.0844298" y1="-0.251096" x2="0.0844298" y2="-0.0427632" style="stroke:rgb(246,147,147);stroke-width:0.01" />
<line x1="0.0844298" y1="0.0405702" x2="0.0844298" y2="0.41557" style="stroke:rgb(246,147,147);stroke-width:0.01" />
<line x1="0.126096" y1="-0.167763" x2="0.126096" y2="-0.0844298" style="stroke:rgb(246,147,147);stroke-width:0.01" />
<line x1="0.167763" y1="0.123904" x2="0.167763" y2="0.41557" style="stroke:rgb(246,147,147);stroke-width:0.01" />
<line x1="0.20943" y1="-0.167763" x2="0.20943" y2="-0.0844298" style="stroke:rgb(246,147,147);stroke-width:0.01" />
<line x1="-0.186404" y1="-0.14693" x2="0.0844298" y2="0.123904" style="stroke:rgb(246,147,147);stroke-width:0.01" />
<line x1="-0.248904" y1="-0.0844298" x2="-0.0405702" y2="0.123904" style="stroke:rgb(246,147,147);stroke-width:0.01" />
<line x1="-0.207237" y1="-0.167763" x2="0.20943" y2="-0.167763" style="stroke:rgb(246,147,147);stroke-width:0.01" />
<line x1="-0.16557" y1="-0.167763" x2="-0.248904" y2="-0.0844298" style="stroke:rgb(246,147,147);stroke-width:0.01" />
<line x1="-0.16557" y1="-0.126096" x2="-0.22807" y2="-0.0635965" style="stroke:rgb(246,147,147);stroke-width:0.01" />
<line x1="-0.207237" y1="-0.126096" x2="-0.16557" y2="-0.126096" style="stroke:rgb(246,147,147);stroke-width:0.01" />
<line x1="-0.123904" y1="-0.126096" x2="0.20943" y2="-0.126096" style="stroke:rgb(246,147,147);stroke-width:0.01" />
<line x1="-0.123904" y1="0.207237" x2="0.0844298" y2="0.41557" style="stroke:rgb(246,147,147);stroke-width:0.01" />
<line x1="-0.0822368" y1="-0.0844298" x2="0.20943" y2="-0.0844298" style="stroke:rgb(246,147,147);stroke-width:0.01" />
<line x1="-0.207237" y1="-0.0427632" x2="0.0844298" y2="-0.0427632" style="stroke:rgb(246,147,147);stroke-width:0.01" />
<line x1="-0.16557" y1="-0.00109649" x2="-0.0405702" y2="-0.00109649" style="stroke:rgb(246,147,147);stroke-width:0.01" />
<line x1="0.167763" y1="-0.167763" x2="0.0427632" y2="-0.0427632" style="stroke:rgb(246,147,147);stroke-width:0.01" />
<line x1="0.188596" y1="-0.14693" x2="0.0844298" y2="-0.0427632" style="stroke:rgb(246,147,147);stroke-width:0.01" />
<line x1="-0.16557" y1="0.0405702" x2="0.0844298" y2="0.0405702" style="stroke:rgb(246,147,147);stroke-width:0.01" />
<line x1="0.20943" y1="-0.126096" x2="-0.123904" y2="0.207237" style="stroke:rgb(246,147,147);stroke-width:0.01" />
<line x1="-0.0822368" y1="0.0822368" x2="-0.0405702" y2="0.0822368" style="stroke:rgb(246,147,147);stroke-width:0.01" />
<line x1="0.126096" y1="0.0822368" x2="-0.0405702" y2="0.248904" style="stroke:rgb(246,147,147);stroke-width:0.01" />
<line x1="-0.0405702" y1="0.123904" x2="0.167763" y2="0.123904" style="stroke:rgb(246,147,147);stroke-width:0.01" />
<line x1="0.14693" y1="0.10307" x2="0.00109649" y2="0.248904" style="stroke:rgb(246,147,147);stroke-width:0.01" />
<line x1="-0.0405702" y1="0.248904" x2="0.00109649" y2="0.248904" style="stroke:rgb(246,147,147);stroke-width:0.01" />
<line x1="-0.0405702" y1="0.41557" x2="0.167763" y2="0.41557" style="stroke:rgb(246,147,147);stroke-width:0.01" />
</g>
</svg>
