<svg xmlns="http://www.w3.org/2000/svg" viewBox="-1.5 -1.5 3 3">
<g transform="scale(1, -1)">
<path d="M-0.294830 -0.527420 L-0.228858 -0.527420 L0.423920 -0.037837 L0.314545 0.107997 L0.267670 0.072840 L0.251420 0.077580 L0.250624 0.074853 L-0.294830 0.347580 L-0.394830 0.272580 L-0.294830 0.139247 z " fill="rgb(245,195,195)" />
<path d="M0.261420 -1.439920 L1.261420 -1.439920 L1.261420 -0.439920 L0.261420 -0.439920  z" fill="none" stroke="rgb(128,128,128)" stroke-width="0.01" />
<line x1="-0.29483" y1="-0.52742" x2="-0.29483" y2="0.34758" style="stroke:rgb(246,147,147);stroke-width:0.01" />
<line x1="0.36142" y1="-0.0847116" x2="0.36142" y2="0.0454967" style="stroke:rgb(246,147,147);stroke-width:0.01" />
<line x1="0.23642" y1="-0.0482533" x2="0.220795" y2="0.0376842" style="stroke:rgb(246,147,147);stroke-width:0.01" />
<line x1="0.403086" y1="-0.0534616" x2="0.39267" y2="0.00383002" style="stroke:rgb(246,147,147);stroke-width:0.01" />
<line x1="0.160031" y1="-0.235753" x2="0.25142" y2="0.07758" style="stroke:rgb(246,147,147);stroke-width:0.01" />
<line x1="-0.228858" y1="-0.52742" x2="-0.143789" y2="-0.235753" style="stroke:rgb(246,147,147);stroke-width:0.01" />
<line x1="0.0489198" y1="-0.319087" x2="-0.39483" y2="0.27258" style="stroke:rgb(246,147,147);stroke-width:0.01" />
<line x1="0.42392" y1="-0.0378366" x2="0.314545" y2="0.107997" style="stroke:rgb(246,147,147);stroke-width:0.01" />
<line x1="-0.228858" y1="-0.52742" x2="0.42392" y2="-0.0378366" style="stroke:rgb(246,147,147);stroke-width:0.01" />
<line x1="-0.0135802" y1="-0.235753" x2="0.36142" y2="0.0454967" style="stroke:rgb(246,147,147);stroke-width:0.01" />
<line x1="-0.29483" y1="-0.52742" x2="-0.228858" y2="-0.52742" style="stroke:rgb(246,147,147);stroke-width:0.01" />
<line x1="-0.143789" y1="-0.235753" x2="0.314545" y2="0.107997" style="stroke:rgb(246,147,147);stroke-width:0.01" />
<line x1="0.403086" y1="-0.0534616" x2="0.220795" y2="0.0376842" style="stroke:rgb(246,147,147);stroke-width:0.01" />
<line x1="-0.143789" y1="-0.235753" x2="0.160031" y2="-0.235753" style="stroke:rgb(246,147,147);stroke-width:0.01" />
<line x1="0.39267" y1="0.00383002" x2="-0.29483" y2="0.34758" style="stroke:rgb(246,147,147);stroke-width:0.01" />
<line x1="0.36142" y1="-0.0847116" x2="0.23642" y2="-0.0482533" style="stroke:rgb(246,147,147);stroke-width:0.01" />
<line x1="0.36142" y1="0.0454967" x2="0.25142" y2="0.07758" style="stroke:rgb(246,147,147);stroke-width:0.01" />
<line x1="-0.39483" y1="0.27258" x2="-0.29483" y2="0.34758" style="stroke:rgb(246,147,147);stroke-width:0.01" />
</g>
</svg>
