<svg xmlns="http://www.w3.org/2000/svg" viewBox="-1.5 -1.5 3 3">
<g transform="scale(1, -1)">
<path d="M1894.000377 30795.785586 L1894.108604 30796.010946 L1894.333964 30795.902719 L1894.667550 30796.019853 L1894.442190 30796.128079 L1894.550416 30796.353439 L1894.433282 30796.687025 L1894.325056 30796.461665 L1894.099696 30796.569892 L1893.766110 30796.452758 L1893.991470 30796.344532 L1893.883244 30796.119172 z " fill="rgb(245,195,195)" />
<path d="M0.000000 0.000000 L1.000000 0.000000 L1.000000 1.000000 L0.000000 1.000000  z" fill="none" stroke="rgb(128,128,128)" stroke-width="0.01" />
<line x1="1894" y1="30795.8" x2="1893.88" y2="30796.1" style="stroke:rgb(246,147,147);stroke-width:0.01" />
<line x1="1894.33" y1="30795.9" x2="1894.1" y2="30796.6" style="stroke:rgb(246,147,147);stroke-width:0.01" />
<line x1="1894.55" y1="30796.4" x2="1894.43" y2="30796.7" style="stroke:rgb(246,147,147);stroke-width:0.01" />
<line x1="1894.33" y1="30795.9" x2="1894.55" y2="30796.4" style="stroke:rgb(246,147,147);stroke-width:0.01" />
<line x1="1894" y1="30795.8" x2="1894.43" y2="30796.7" style="stroke:rgb(246,147,147);stroke-width:0.01" />
<line x1="1893.88" y1="30796.1" x2="1894.1" y2="30796.6" style="stroke:rgb(246,147,147);stroke-width:0.01" />
<line x1="1894.33" y1="30795.9" x2="1893.88" y2="30796.1" style="stroke:rgb(246,147,147);stroke-width:0.01" />
<line x1="1894.67" y1="30796" x2="1893.77" y2="30796.5" style="stroke:rgb(246,147,147);stroke-width:0.01" />
<line x1="1894.55" y1="30796.4" x2="1894.1" y2="30796.6" style="stroke:rgb(246,147,147);stroke-width:0.01" />
<line x1="1894.33" y1="30795.9" x2="1894.67" y2="30796" style="stroke:rgb(246,147,147);stroke-width:0.01" />
<line x1="1893.88" y1="30796.1" x2="1894.55" y2="30796.4" style="stroke:rgb(246,147,147);stroke-width:0.01" />
<line x1="1893.77" y1="30796.5" x2="1894.1" y2="30796.6" style="stroke:rgb(246,147,147);stroke-width:0.01" />
</g>
</svg>
