<svg xmlns="http://www.w3.org/2000/svg" viewBox="-1.5 -1.5 3 3">
<g transform="scale(1, -1)">
<path d="M-0.216452 -0.450720 L-0.108226 -0.225360 L0.117134 -0.333586 L0.450720 -0.216452 L0.225360 -0.108226 L0.333586 0.117134 L0.216452 0.450720 L0.108226 0.225360 L-0.117134 0.333586 L-0.450720 0.216452 L-0.225360 0.108226 L-0.333586 -0.117134 z " fill="rgb(245,195,195)" />
<path d="M-1894.216830 -30796.236306 L-1893.216830 -30796.236306 L-1893.216830 -30795.236306 L-1894.216830 -30795.236306  z" fill="none" stroke="rgb(128,128,128)" stroke-width="0.01" />
<line x1="-0.216452" y1="-0.45072" x2="-0.333586" y2="-0.117134" style="stroke:rgb(246,147,147);stroke-width:0.01" />
<line x1="0.117134" y1="-0.333586" x2="-0.117134" y2="0.333586" style="stroke:rgb(246,147,147);stroke-width:0.01" />
<line x1="0.333586" y1="0.117134" x2="0.216452" y2="0.45072" style="stroke:rgb(246,147,147);stroke-width:0.01" />
<line x1="0.117134" y1="-0.333586" x2="0.333586" y2="0.117134" style="stroke:rgb(246,147,147);stroke-width:0.01" />
<line x1="-0.216452" y1="-0.45072" x2="0.216452" y2="0.45072" style="stroke:rgb(246,147,147);stroke-width:0.01" />
<line x1="-0.333586" y1="-0.117134" x2="-0.117134" y2="0.333586" style="stroke:rgb(246,147,147);stroke-width:0.01" />
<line x1="0.117134" y1="-0.333586" x2="-0.333586" y2="-0.117134" style="stroke:rgb(246,147,147);stroke-width:0.01" />
<line x1="0.45072" y1="-0.216452" x2="-0.45072" y2="0.216452" style="stroke:rgb(246,147,147);stroke-width:0.01" />
<line x1="0.333586" y1="0.117134" x2="-0.117134" y2="0.333586" style="stroke:rgb(246,147,147);stroke-width:0.01" />
<line x1="0.117134" y1="-0.333586" x2="0.45072" y2="-0.216452" style="stroke:rgb(246,147,147);stroke-width:0.01" />
<line x1="-0.333586" y1="-0.117134" x2="0.333586" y2="0.117134" style="stroke:rgb(246,147,147);stroke-width:0.01" />
<line x1="-0.45072" y1="0.216452" x2="-0.117134" y2="0.333586" style="stroke:rgb(246,147,147);stroke-width:0.01" />
</g>
</svg>
