<svg xmlns="http://www.w3.org/2000/svg" viewBox="-1.5 -1.5 3 3">
<g transform="scale(1, -1)">
<path d="M-0.170293 -0.470107 L-0.085146 -0.235053 L0.149907 -0.320200 L0.470107 -0.170293 L0.235053 -0.085146 L0.320200 0.149907 L0.170293 0.470107 L0.085146 0.235053 L-0.149907 0.320200 L-0.470107 0.170293 L-0.235053 0.085146 L-0.320200 -0.149907 z " fill="rgb(245,195,195)" />
<path d="M-7822.866052 -10805.598689 L-7821.866052 -10805.598689 L-7821.866052 -10804.598689 L-7822.866052 -10804.598689  z" fill="none" stroke="rgb(128,128,128)" stroke-width="0.01" />
<line x1="0.149907" y1="-0.3202" x2="0.3202" y2="0.149907" style="stroke:rgb(246,147,147);stroke-width:0.01" />
<line x1="-0.170293" y1="-0.470107" x2="0.170293" y2="0.470107" style="stroke:rgb(246,147,147);stroke-width:0.01" />
<line x1="-0.3202" y1="-0.149907" x2="-0.149907" y2="0.3202" style="stroke:rgb(246,147,147);stroke-width:0.01" />
<line x1="-0.170293" y1="-0.470107" x2="-0.3202" y2="-0.149907" style="stroke:rgb(246,147,147);stroke-width:0.01" />
<line x1="0.149907" y1="-0.3202" x2="-0.149907" y2="0.3202" style="stroke:rgb(246,147,147);stroke-width:0.01" />
<line x1="0.3202" y1="0.149907" x2="0.170293" y2="0.470107" style="stroke:rgb(246,147,147);stroke-width:0.01" />
<line x1="0.149907" y1="-0.3202" x2="0.470107" y2="-0.170293" style="stroke:rgb(246,147,147);stroke-width:0.01" />
<line x1="-0.3202" y1="-0.149907" x2="0.3202" y2="0.149907" style="stroke:rgb(246,147,147);stroke-width:0.01" />
<line x1="-0.470107" y1="0.170293" x2="-0.149907" y2="0.3202" style="stroke:rgb(246,147,147);stroke-width:0.01" />
<line x1="0.149907" y1="-0.3202" x2="-0.3202" y2="-0.149907" style="stroke:rgb(246,147,147);stroke-width:0.01" />
<line x1="0.470107" y1="-0.170293" x2="-0.470107" y2="0.170293" style="stroke:rgb(246,147,147);stroke-width:0.01" />
<line x1="0.3202" y1="0.149907" x2="-0.149907" y2="0.3202" style="stroke:rgb(246,147,147);stroke-width:0.01" />
</g>
</svg>
