<svg xmlns="http://www.w3.org/2000/svg" viewBox="-1.5 -1.5 3 3">
<g transform="scale(1, -1)">
<path d="M7822.695759 10805.128582 L7822.780905 10805.363635 L7823.015958 10805.278489 L7823.336158 10805.428396 L7823.101105 10805.513542 L7823.186251 10805.748596 L7823.036344 10806.068795 L7822.951198 10805.833742 L7822.716145 10805.918888 L7822.395945 10805.768981 L7822.630998 10805.683835 L7822.545852 10805.448782 z " fill="rgb(245,195,195)" />
<path d="M0.000000 0.000000 L1.000000 0.000000 L1.000000 1.000000 L0.000000 1.000000  z" fill="none" stroke="rgb(128,128,128)" stroke-width="0.01" />
<line x1="7823.02" y1="10805.3" x2="7823.19" y2="10805.7" style="stroke:rgb(246,147,147);stroke-width:0.01" />
<line x1="7822.7" y1="10805.1" x2="7823.04" y2="10806.1" style="stroke:rgb(246,147,147);stroke-width:0.01" />
<line x1="7822.55" y1="10805.4" x2="7822.72" y2="10805.9" style="stroke:rgb(246,147,147);stroke-width:0.01" />
<line x1="7822.7" y1="10805.1" x2="7822.55" y2="10805.4" style="stroke:rgb(246,147,147);stroke-width:0.01" />
<line x1="7823.02" y1="10805.3" x2="7822.72" y2="10805.9" style="stroke:rgb(246,147,147);stroke-width:0.01" />
<line x1="7823.19" y1="10805.7" x2="7823.04" y2="10806.1" style="stroke:rgb(246,147,147);stroke-width:0.01" />
<line x1="7823.02" y1="10805.3" x2="7823.34" y2="10805.4" style="stroke:rgb(246,147,147);stroke-width:0.01" />
<line x1="7822.55" y1="10805.4" x2="7823.19" y2="10805.7" style="stroke:rgb(246,147,147);stroke-width:0.01" />
<line x1="7822.4" y1="10805.8" x2="7822.72" y2="10805.9" style="stroke:rgb(246,147,147);stroke-width:0.01" />
<line x1="7823.02" y1="10805.3" x2="7822.55" y2="10805.4" style="stroke:rgb(246,147,147);stroke-width:0.01" />
<line x1="7823.34" y1="10805.4" x2="7822.4" y2="10805.8" style="stroke:rgb(246,147,147);stroke-width:0.01" />
<line x1="7823.19" y1="10805.7" x2="7822.72" y2="10805.9" style="stroke:rgb(246,147,147);stroke-width:0.01" />
</g>
</svg>
