<svg xmlns="http://www.w3.org/2000/svg" viewBox="-1.5 -1.5 3 3">
<g transform="scale(1, -1)">
<path d="M-0.136234 -0.510838 L0.239648 0.293132 L0.208711 0.334382 L0.147220 0.288264 L-0.052135 0.277765 L-0.150664 -0.228118 L-0.256546 -0.454588 z " fill="rgb(245,195,195)" />
<path d="M-0.791289 -1.565618 L0.208711 -1.565618 L0.208711 -0.565618 L-0.791289 -0.565618  z" fill="none" stroke="rgb(128,128,128)" stroke-width="0.01" />
<line x1="-0.199929" y1="-0.481059" x2="-0.0521347" y2="0.277765" style="stroke:rgb(246,147,147);stroke-width:0.01" />
<line x1="-0.136234" y1="-0.510838" x2="0.239648" y2="0.293132" style="stroke:rgb(246,147,147);stroke-width:0.01" />
<line x1="-0.256546" y1="-0.454588" x2="0.0611006" y2="0.224824" style="stroke:rgb(246,147,147);stroke-width:0.01" />
<line x1="0.0751171" y1="-0.0587817" x2="0.0602734" y2="0.223054" style="stroke:rgb(246,147,147);stroke-width:0.01" />
<line x1="-0.150664" y1="-0.228118" x2="0.0751171" y2="-0.0587817" style="stroke:rgb(246,147,147);stroke-width:0.01" />
<line x1="-0.120352" y1="-0.476868" x2="-0.210664" y2="-0.356451" style="stroke:rgb(246,147,147);stroke-width:0.01" />
<line x1="0.0602734" y1="0.223054" x2="0.208711" y2="0.334382" style="stroke:rgb(246,147,147);stroke-width:0.01" />
<line x1="-0.0603516" y1="-0.348534" x2="-0.150664" y2="-0.228118" style="stroke:rgb(246,147,147);stroke-width:0.01" />
<line x1="-0.000351646" y1="-0.220201" x2="-0.0906641" y2="-0.0997843" style="stroke:rgb(246,147,147);stroke-width:0.01" />
<line x1="0.0596484" y1="-0.0918676" x2="0.0493359" y2="-0.0781176" style="stroke:rgb(246,147,147);stroke-width:0.01" />
<line x1="-0.199929" y1="-0.481059" x2="-0.120352" y2="-0.476868" style="stroke:rgb(246,147,147);stroke-width:0.01" />
<line x1="-0.136234" y1="-0.510838" x2="-0.256546" y2="-0.454588" style="stroke:rgb(246,147,147);stroke-width:0.01" />
<line x1="0.239648" y1="0.293132" x2="0.208711" y2="0.334382" style="stroke:rgb(246,147,147);stroke-width:0.01" />
<line x1="-0.210664" y1="-0.356451" x2="-0.0603516" y2="-0.348534" style="stroke:rgb(246,147,147);stroke-width:0.01" />
<line x1="-0.150664" y1="-0.228118" x2="-0.000351646" y2="-0.220201" style="stroke:rgb(246,147,147);stroke-width:0.01" />
<line x1="-0.0303516" y1="-0.284368" x2="-0.150664" y2="-0.228118" style="stroke:rgb(246,147,147);stroke-width:0.01" />
<line x1="-0.0906641" y1="-0.0997843" x2="0.0596484" y2="-0.0918676" style="stroke:rgb(246,147,147);stroke-width:0.01" />
<line x1="0.181413" y1="0.168574" x2="-0.0521347" y2="0.277765" style="stroke:rgb(246,147,147);stroke-width:0.01" />
<line x1="-0.0521347" y1="0.277765" x2="0.239648" y2="0.293132" style="stroke:rgb(246,147,147);stroke-width:0.01" />
</g>
</svg>
