<svg xmlns="http://www.w3.org/2000/svg" viewBox="-1.5 -1.5 3 3">
<g transform="scale(1, -1)">
<path d="M0.176756 -0.467715 L0.088378 -0.233858 L0.322235 -0.145480 L0.467715 0.176756 L0.233858 0.088378 L0.145480 0.322235 L-0.176756 0.467715 L-0.088378 0.233858 L-0.322235 0.145480 L-0.467715 -0.176756 L-0.233858 -0.088378 L-0.145480 -0.322235 z " fill="rgb(245,195,195)" />
<path d="M-11166.941158 1944.639308 L-11165.941158 1944.639308 L-11165.941158 1945.639308 L-11166.941158 1945.639308  z" fill="none" stroke="rgb(128,128,128)" stroke-width="0.01" />
<line x1="-0.14548" y1="-0.322235" x2="0.322235" y2="-0.14548" style="stroke:rgb(246,147,147);stroke-width:0.01" />
<line x1="-0.467715" y1="-0.176756" x2="0.467715" y2="0.176756" style="stroke:rgb(246,147,147);stroke-width:0.01" />
<line x1="-0.322235" y1="0.14548" x2="0.14548" y2="0.322235" style="stroke:rgb(246,147,147);stroke-width:0.01" />
<line x1="0.322235" y1="-0.14548" x2="0.467715" y2="0.176756" style="stroke:rgb(246,147,147);stroke-width:0.01" />
<line x1="-0.14548" y1="-0.322235" x2="0.14548" y2="0.322235" style="stroke:rgb(246,147,147);stroke-width:0.01" />
<line x1="-0.467715" y1="-0.176756" x2="-0.322235" y2="0.14548" style="stroke:rgb(246,147,147);stroke-width:0.01" />
<line x1="0.176756" y1="-0.467715" x2="-0.14548" y2="-0.322235" style="stroke:rgb(246,147,147);stroke-width:0.01" />
<line x1="0.322235" y1="-0.14548" x2="-0.322235" y2="0.14548" style="stroke:rgb(246,147,147);stroke-width:0.01" />
<line x1="0.14548" y1="0.322235" x2="-0.176756" y2="0.467715" style="stroke:rgb(246,147,147);stroke-width:0.01" />
<line x1="-0.14548" y1="-0.322235" x2="-0.322235" y2="0.14548" style="stroke:rgb(246,147,147);stroke-width:0.01" />
<line x1="0.176756" y1="-0.467715" x2="-0.176756" y2="0.467715" style="stroke:rgb(246,147,147);stroke-width:0.01" />
<line x1="0.322235" y1="-0.14548" x2="0.14548" y2="0.322235" style="stroke:rgb(246,147,147);stroke-width:0.01" />
</g>
</svg>
