<svg xmlns="http://www.w3.org/2000/svg" viewBox="-1.5 -1.5 3 3">
<g transform="scale(1, -1)">
<path d="M0.500000 0.650000 L0.625000 0.650000 L0.750000 0.775000 L1.062500 1.400000 L1.080000 1.460000 L1.050000 1.468750 L0.825000 1.300000 L0.810000 1.195000 L0.750000 1.150000 L0.625000 1.150000 L0.625000 1.056250 L0.350000 0.850000 z " fill="rgb(245,195,195)" />
<path d="M0.000000 0.000000 L1.000000 0.000000 L1.000000 1.000000 L0.000000 1.000000  z" fill="none" stroke="rgb(128,128,128)" stroke-width="0.01" />
<line x1="1.0625" y1="1.4" x2="1.08" y2="1.46" style="stroke:rgb(246,147,147);stroke-width:0.01" />
<line x1="0.75" y1="0.775" x2="1.0625" y2="1.4" style="stroke:rgb(246,147,147);stroke-width:0.01" />
<line x1="0.75" y1="0.775" x2="0.825" y2="1.3" style="stroke:rgb(246,147,147);stroke-width:0.01" />
<line x1="0.5" y1="0.65" x2="1.0625" y2="1.4" style="stroke:rgb(246,147,147);stroke-width:0.01" />
<line x1="0.625" y1="0.65" x2="0.625" y2="1.15" style="stroke:rgb(246,147,147);stroke-width:0.01" />
<line x1="0.75" y1="0.775" x2="0.75" y2="1.15" style="stroke:rgb(246,147,147);stroke-width:0.01" />
<line x1="1.05" y1="1.375" x2="1.05" y2="1.46875" style="stroke:rgb(246,147,147);stroke-width:0.01" />
<line x1="0.625" y1="0.65" x2="0.75" y2="0.775" style="stroke:rgb(246,147,147);stroke-width:0.01" />
<line x1="0.35" y1="0.85" x2="1.05" y2="1.375" style="stroke:rgb(246,147,147);stroke-width:0.01" />
<line x1="0.825" y1="1.3" x2="1.05" y2="1.46875" style="stroke:rgb(246,147,147);stroke-width:0.01" />
<line x1="0.5" y1="0.65" x2="0.35" y2="0.85" style="stroke:rgb(246,147,147);stroke-width:0.01" />
<line x1="0.90625" y1="1.0875" x2="0.875" y2="1.15" style="stroke:rgb(246,147,147);stroke-width:0.01" />
<line x1="0.5" y1="0.65" x2="0.625" y2="0.65" style="stroke:rgb(246,147,147);stroke-width:0.01" />
<line x1="0.625" y1="0.775" x2="0.75" y2="0.775" style="stroke:rgb(246,147,147);stroke-width:0.01" />
<line x1="0.9375" y1="1.15" x2="0.825" y2="1.3" style="stroke:rgb(246,147,147);stroke-width:0.01" />
<line x1="0.791667" y1="1.06667" x2="0.90625" y2="1.0875" style="stroke:rgb(246,147,147);stroke-width:0.01" />
<line x1="0.625" y1="1.15" x2="0.9375" y2="1.15" style="stroke:rgb(246,147,147);stroke-width:0.01" />
<line x1="0.875" y1="1.025" x2="0.625" y2="1.15" style="stroke:rgb(246,147,147);stroke-width:0.01" />
<line x1="1.08" y1="1.46" x2="1.05" y2="1.46875" style="stroke:rgb(246,147,147);stroke-width:0.01" />
</g>
</svg>
