<svg xmlns="http://www.w3.org/2000/svg" viewBox="-1.5 -1.5 3 3">
<g transform="scale(1, -1)">
<path d="M-0.254375 -0.442083 L-0.129375 -0.442083 L-0.004375 -0.317083 L0.308125 0.307917 L0.325625 0.367917 L0.295625 0.376667 L0.070625 0.207917 L0.055625 0.102917 L-0.004375 0.057917 L-0.129375 0.057917 L-0.129375 -0.035833 L-0.404375 -0.242083 z " fill="rgb(245,195,195)" />
<path d="M-0.754375 -1.092083 L0.245625 -1.092083 L0.245625 -0.092083 L-0.754375 -0.092083  z" fill="none" stroke="rgb(128,128,128)" stroke-width="0.01" />
<line x1="0.308125" y1="0.307917" x2="0.325625" y2="0.367917" style="stroke:rgb(246,147,147);stroke-width:0.01" />
<line x1="-0.004375" y1="-0.317083" x2="0.308125" y2="0.307917" style="stroke:rgb(246,147,147);stroke-width:0.01" />
<line x1="-0.004375" y1="-0.317083" x2="0.070625" y2="0.207917" style="stroke:rgb(246,147,147);stroke-width:0.01" />
<line x1="-0.254375" y1="-0.442083" x2="0.308125" y2="0.307917" style="stroke:rgb(246,147,147);stroke-width:0.01" />
<line x1="-0.129375" y1="-0.442083" x2="-0.129375" y2="0.0579167" style="stroke:rgb(246,147,147);stroke-width:0.01" />
<line x1="-0.004375" y1="-0.317083" x2="-0.004375" y2="0.0579167" style="stroke:rgb(246,147,147);stroke-width:0.01" />
<line x1="0.295625" y1="0.282917" x2="0.295625" y2="0.376667" style="stroke:rgb(246,147,147);stroke-width:0.01" />
<line x1="-0.129375" y1="-0.442083" x2="-0.004375" y2="-0.317083" style="stroke:rgb(246,147,147);stroke-width:0.01" />
<line x1="-0.404375" y1="-0.242083" x2="0.295625" y2="0.282917" style="stroke:rgb(246,147,147);stroke-width:0.01" />
<line x1="0.070625" y1="0.207917" x2="0.295625" y2="0.376667" style="stroke:rgb(246,147,147);stroke-width:0.01" />
<line x1="-0.254375" y1="-0.442083" x2="-0.404375" y2="-0.242083" style="stroke:rgb(246,147,147);stroke-width:0.01" />
<line x1="0.151875" y1="-0.00458333" x2="0.120625" y2="0.0579167" style="stroke:rgb(246,147,147);stroke-width:0.01" />
<line x1="-0.254375" y1="-0.442083" x2="-0.129375" y2="-0.442083" style="stroke:rgb(246,147,147);stroke-width:0.01" />
<line x1="-0.129375" y1="-0.317083" x2="-0.004375" y2="-0.317083" style="stroke:rgb(246,147,147);stroke-width:0.01" />
<line x1="0.183125" y1="0.0579167" x2="0.070625" y2="0.207917" style="stroke:rgb(246,147,147);stroke-width:0.01" />
<line x1="0.0372917" y1="-0.0254167" x2="0.151875" y2="-0.00458333" style="stroke:rgb(246,147,147);stroke-width:0.01" />
<line x1="-0.129375" y1="0.0579167" x2="0.183125" y2="0.0579167" style="stroke:rgb(246,147,147);stroke-width:0.01" />
<line x1="0.120625" y1="-0.0670833" x2="-0.129375" y2="0.0579167" style="stroke:rgb(246,147,147);stroke-width:0.01" />
<line x1="0.325625" y1="0.367917" x2="0.295625" y2="0.376667" style="stroke:rgb(246,147,147);stroke-width:0.01" />
</g>
</svg>
