<svg xmlns="http://www.w3.org/2000/svg" viewBox="-1.5 -1.5 3 3">
<g transform="scale(1, -1)">
<path d="M-0.270915 -0.420244 L-0.135457 -0.210122 L0.074665 -0.345579 L0.420244 -0.270915 L0.210122 -0.135457 L0.345579 0.074665 L0.270915 0.420244 L0.135457 0.210122 L-0.074665 0.345579 L-0.420244 0.270915 L-0.210122 0.135457 L-0.345579 -0.074665 z " fill="rgb(245,195,195)" />
<path d="M25935.751464 12419.957048 L25936.751464 12419.957048 L25936.751464 12420.957048 L25935.751464 12420.957048  z" fill="none" stroke="rgb(128,128,128)" stroke-width="0.01" />
<line x1="0.0746648" y1="-0.345579" x2="-0.345579" y2="-0.0746648" style="stroke:rgb(246,147,147);stroke-width:0.01" />
<line x1="0.420244" y1="-0.270915" x2="-0.420244" y2="0.270915" style="stroke:rgb(246,147,147);stroke-width:0.01" />
<line x1="0.345579" y1="0.0746648" x2="-0.0746648" y2="0.345579" style="stroke:rgb(246,147,147);stroke-width:0.01" />
<line x1="0.0746648" y1="-0.345579" x2="0.420244" y2="-0.270915" style="stroke:rgb(246,147,147);stroke-width:0.01" />
<line x1="-0.345579" y1="-0.0746648" x2="0.345579" y2="0.0746648" style="stroke:rgb(246,147,147);stroke-width:0.01" />
<line x1="-0.420244" y1="0.270915" x2="-0.0746648" y2="0.345579" style="stroke:rgb(246,147,147);stroke-width:0.01" />
<line x1="-0.270915" y1="-0.420244" x2="-0.345579" y2="-0.0746648" style="stroke:rgb(246,147,147);stroke-width:0.01" />
<line x1="0.0746648" y1="-0.345579" x2="-0.0746648" y2="0.345579" style="stroke:rgb(246,147,147);stroke-width:0.01" />
<line x1="0.345579" y1="0.0746648" x2="0.270915" y2="0.420244" style="stroke:rgb(246,147,147);stroke-width:0.01" />
<line x1="0.0746648" y1="-0.345579" x2="0.345579" y2="0.0746648" style="stroke:rgb(246,147,147);stroke-width:0.01" />
<line x1="-0.270915" y1="-0.420244" x2="0.270915" y2="0.420244" style="stroke:rgb(246,147,147);stroke-width:0.01" />
<line x1="-0.345579" y1="-0.0746648" x2="-0.0746648" y2="0.345579" style="stroke:rgb(246,147,147);stroke-width:0.01" />
</g>
</svg>
