<svg xmlns="http://www.w3.org/2000/svg" viewBox="-1.5 -1.5 3 3">
<g transform="scale(1, -1)">
<path d="M0.341758 -0.142596 L0.712578 -0.086759 L0.755769 0.046154 L0.880000 0.060000 L0.911946 0.169530 L1.019368 0.254391 L0.963582 0.346567 L0.317708 0.261979 L0.285127 0.233505 z " fill="rgb(245,195,195)" />
<path d="M0.000000 0.000000 L1.000000 0.000000 L1.000000 1.000000 L0.000000 1.000000  z" fill="none" stroke="rgb(128,128,128)" stroke-width="0.01" />
<line x1="0.755769" y1="0.0461538" x2="1.01937" y2="0.254391" style="stroke:rgb(246,147,147);stroke-width:0.01" />
<line x1="0.755769" y1="0.0461538" x2="0.930224" y2="0.342198" style="stroke:rgb(246,147,147);stroke-width:0.01" />
<line x1="0.88" y1="0.06" x2="0.963582" y2="0.346567" style="stroke:rgb(246,147,147);stroke-width:0.01" />
<line x1="0.712578" y1="-0.0867589" x2="0.79896" y2="0.179067" style="stroke:rgb(246,147,147);stroke-width:0.01" />
<line x1="0.544656" y1="0.150166" x2="0.651356" y2="0.305676" style="stroke:rgb(246,147,147);stroke-width:0.01" />
<line x1="0.341758" y1="-0.142596" x2="0.712578" y2="-0.0867589" style="stroke:rgb(246,147,147);stroke-width:0.01" />
<line x1="0.544656" y1="0.150166" x2="0.592693" y2="0.297993" style="stroke:rgb(246,147,147);stroke-width:0.01" />
<line x1="0.343477" y1="0.249284" x2="0.353739" y2="0.266698" style="stroke:rgb(246,147,147);stroke-width:0.01" />
<line x1="0.343477" y1="0.249284" x2="0.350313" y2="0.266249" style="stroke:rgb(246,147,147);stroke-width:0.01" />
<line x1="0.4" y1="0.2" x2="0.517533" y2="0.288149" style="stroke:rgb(246,147,147);stroke-width:0.01" />
<line x1="0.755769" y1="0.0461538" x2="0.88" y2="0.06" style="stroke:rgb(246,147,147);stroke-width:0.01" />
<line x1="0.755769" y1="0.0461538" x2="0.759425" y2="0.319829" style="stroke:rgb(246,147,147);stroke-width:0.01" />
<line x1="0.285127" y1="0.233505" x2="0.317708" y2="0.261979" style="stroke:rgb(246,147,147);stroke-width:0.01" />
<line x1="0.341758" y1="-0.142596" x2="0.285127" y2="0.233505" style="stroke:rgb(246,147,147);stroke-width:0.01" />
<line x1="0.88" y1="0.06" x2="0.849723" y2="0.331655" style="stroke:rgb(246,147,147);stroke-width:0.01" />
<line x1="0.878154" y1="0.142835" x2="0.849723" y2="0.331655" style="stroke:rgb(246,147,147);stroke-width:0.01" />
<line x1="0.317708" y1="0.261979" x2="0.963582" y2="0.346567" style="stroke:rgb(246,147,147);stroke-width:0.01" />
<line x1="0.79896" y1="0.179067" x2="0.759425" y2="0.319829" style="stroke:rgb(246,147,147);stroke-width:0.01" />
<line x1="0.4" y1="0.2" x2="0.350313" y2="0.266249" style="stroke:rgb(246,147,147);stroke-width:0.01" />
<line x1="0.88" y1="0.06" x2="0.285127" y2="0.233505" style="stroke:rgb(246,147,147);stroke-width:0.01" />
<line x1="0.712578" y1="-0.0867589" x2="0.353739" y2="0.266698" style="stroke:rgb(246,147,147);stroke-width:0.01" />
<line x1="0.755769" y1="0.0461538" x2="0.317708" y2="0.261979" style="stroke:rgb(246,147,147);stroke-width:0.01" />
<line x1="0.755769" y1="0.0461538" x2="0.592693" y2="0.297993" style="stroke:rgb(246,147,147);stroke-width:0.01" />
<line x1="0.878154" y1="0.142835" x2="0.517533" y2="0.288149" style="stroke:rgb(246,147,147);stroke-width:0.01" />
<line x1="0.79896" y1="0.179067" x2="0.651356" y2="0.305676" style="stroke:rgb(246,147,147);stroke-width:0.01" />
<line x1="1.01937" y1="0.254391" x2="0.963582" y2="0.346567" style="stroke:rgb(246,147,147);stroke-width:0.01" />
<line x1="1.01937" y1="0.254391" x2="0.930224" y2="0.342198" style="stroke:rgb(246,147,147);stroke-width:0.01" />
</g>
</svg>
