<svg xmlns="http://www.w3.org/2000/svg" viewBox="-1.5 -1.5 3 3">
<g transform="scale(1, -1)">
<path d="M0.182718 -0.358323 L0.340207 -0.088409 L0.066367 0.071371 L0.081533 0.095157 L0.094939 0.100199 L0.024127 0.288496 L-0.187764 0.310599 L-0.391497 -0.023280 L-0.108867 -0.203476 L-0.101763 -0.192334 z " fill="rgb(245,195,195)" />
<path d="M0.488345 -0.426426 L1.488345 -0.426426 L1.488345 0.573574 L0.488345 0.573574  z" fill="none" stroke="rgb(128,128,128)" stroke-width="0.01" />
<line x1="0.110741" y1="-0.316326" x2="-0.0916547" y2="0.163574" style="stroke:rgb(246,147,147);stroke-width:0.01" />
<line x1="-0.0476547" y1="0.0465738" x2="-0.0916547" y2="0.163574" style="stroke:rgb(246,147,147);stroke-width:0.01" />
<line x1="-0.108867" y1="-0.203476" x2="-0.391497" y2="-0.0232797" style="stroke:rgb(246,147,147);stroke-width:0.01" />
<line x1="0.214216" y1="-0.30434" x2="-0.187764" y2="0.310599" style="stroke:rgb(246,147,147);stroke-width:0.01" />
<line x1="0.182718" y1="-0.358323" x2="-0.391497" y2="-0.0232797" style="stroke:rgb(246,147,147);stroke-width:0.01" />
<line x1="0.0949391" y1="0.100199" x2="0.0241266" y2="0.288496" style="stroke:rgb(246,147,147);stroke-width:0.01" />
<line x1="-0.332842" y1="-0.0606762" x2="-0.341872" y2="0.0580457" style="stroke:rgb(246,147,147);stroke-width:0.01" />
<line x1="0.182718" y1="-0.358323" x2="0.340207" y2="-0.0884092" style="stroke:rgb(246,147,147);stroke-width:0.01" />
<line x1="0.0591328" y1="0.0600238" x2="-0.228689" y2="0.243531" style="stroke:rgb(246,147,147);stroke-width:0.01" />
<line x1="0.110741" y1="-0.316326" x2="0.214216" y2="-0.30434" style="stroke:rgb(246,147,147);stroke-width:0.01" />
<line x1="0.340207" y1="-0.0884092" x2="-0.228689" y2="0.243531" style="stroke:rgb(246,147,147);stroke-width:0.01" />
<line x1="-0.108867" y1="-0.203476" x2="0.0911578" y2="0.110253" style="stroke:rgb(246,147,147);stroke-width:0.01" />
<line x1="0.0911578" y1="0.110253" x2="-0.0916547" y2="0.163574" style="stroke:rgb(246,147,147);stroke-width:0.01" />
<line x1="-0.391497" y1="-0.0232797" x2="-0.187764" y2="0.310599" style="stroke:rgb(246,147,147);stroke-width:0.01" />
<line x1="-0.0916547" y1="0.163574" x2="0.0241266" y2="0.288496" style="stroke:rgb(246,147,147);stroke-width:0.01" />
<line x1="-0.332842" y1="-0.0606762" x2="0.0949391" y2="0.100199" style="stroke:rgb(246,147,147);stroke-width:0.01" />
<line x1="0.0241266" y1="0.288496" x2="-0.187764" y2="0.310599" style="stroke:rgb(246,147,147);stroke-width:0.01" />
<line x1="-0.341872" y1="0.0580457" x2="-0.0916547" y2="0.163574" style="stroke:rgb(246,147,147);stroke-width:0.01" />
</g>
</svg>
