<svg xmlns="http://www.w3.org/2000/svg" viewBox="-1.5 -1.5 3 3">
<g transform="scale(1, -1)">
<path d="M-0.010417 -0.184896 L0.031250 -0.184896 L0.114583 -0.101562 L0.364583 -0.101562 L0.364583 -0.018229 L0.197917 -0.018229 L0.072917 0.106771 L0.072917 0.148438 L-0.010417 0.148438 L-0.010417 0.190104 L-0.135417 0.190104 L-0.260417 0.065104 L-0.177083 -0.018229 L-0.302083 -0.018229 L-0.218750 -0.101562 L-0.093750 -0.101562 z " fill="rgb(245,195,195)" />
<path d="M-0.302083 -0.184896 L0.697917 -0.184896 L0.697917 0.815104 L-0.302083 0.815104  z" fill="none" stroke="rgb(128,128,128)" stroke-width="0.01" />
<line x1="0.28125" y1="-0.101562" x2="0.364583" y2="-0.0182292" style="stroke:rgb(246,147,147);stroke-width:0.01" />
<line x1="0.03125" y1="-0.184896" x2="0.197917" y2="-0.0182292" style="stroke:rgb(246,147,147);stroke-width:0.01" />
<line x1="-0.0104167" y1="-0.184896" x2="0.0729167" y2="-0.101562" style="stroke:rgb(246,147,147);stroke-width:0.01" />
<line x1="-0.0104167" y1="-0.143229" x2="0.15625" y2="0.0234375" style="stroke:rgb(246,147,147);stroke-width:0.01" />
<line x1="-0.0104167" y1="-0.101562" x2="0.0729167" y2="-0.0182292" style="stroke:rgb(246,147,147);stroke-width:0.01" />
<line x1="-0.0520833" y1="-0.101562" x2="0.03125" y2="-0.0182292" style="stroke:rgb(246,147,147);stroke-width:0.01" />
<line x1="-0.0520833" y1="-0.0598958" x2="0.03125" y2="0.0234375" style="stroke:rgb(246,147,147);stroke-width:0.01" />
<line x1="-0.0104167" y1="-0.184896" x2="0.03125" y2="-0.184896" style="stroke:rgb(246,147,147);stroke-width:0.01" />
<line x1="-0.21875" y1="-0.101562" x2="0.03125" y2="0.148438" style="stroke:rgb(246,147,147);stroke-width:0.01" />
<line x1="-0.21875" y1="0.0234375" x2="-0.21875" y2="0.106771" style="stroke:rgb(246,147,147);stroke-width:0.01" />
<line x1="-0.135417" y1="-0.0598958" x2="-0.135417" y2="0.190104" style="stroke:rgb(246,147,147);stroke-width:0.01" />
<line x1="-0.09375" y1="-0.101562" x2="-0.09375" y2="0.0234375" style="stroke:rgb(246,147,147);stroke-width:0.01" />
<line x1="-0.0520833" y1="-0.143229" x2="-0.0520833" y2="0.148438" style="stroke:rgb(246,147,147);stroke-width:0.01" />
<line x1="-0.0104167" y1="-0.184896" x2="-0.0104167" y2="0.190104" style="stroke:rgb(246,147,147);stroke-width:0.01" />
<line x1="0.03125" y1="-0.184896" x2="0.03125" y2="0.148438" style="stroke:rgb(246,147,147);stroke-width:0.01" />
<line x1="0.0729167" y1="-0.101562" x2="0.0729167" y2="0.148438" style="stroke:rgb(246,147,147);stroke-width:0.01" />
<line x1="0.114583" y1="-0.101562" x2="0.114583" y2="0.0651042" style="stroke:rgb(246,147,147);stroke-width:0.01" />
<line x1="0.364583" y1="-0.101562" x2="0.364583" y2="-0.0182292" style="stroke:rgb(246,147,147);stroke-width:0.01" />
<line x1="-0.0520833" y1="-0.143229" x2="-0.0104167" y2="-0.143229" style="stroke:rgb(246,147,147);stroke-width:0.01" />
<line x1="-0.21875" y1="-0.101562" x2="0.364583" y2="-0.101562" style="stroke:rgb(246,147,147);stroke-width:0.01" />
<line x1="-0.21875" y1="-0.101562" x2="-0.302083" y2="-0.0182292" style="stroke:rgb(246,147,147);stroke-width:0.01" />
<line x1="-0.260417" y1="0.0651042" x2="-0.135417" y2="0.190104" style="stroke:rgb(246,147,147);stroke-width:0.01" />
<line x1="-0.135417" y1="-0.0598958" x2="0.0729167" y2="-0.0598958" style="stroke:rgb(246,147,147);stroke-width:0.01" />
<line x1="-0.0104167" y1="-0.184896" x2="-0.260417" y2="0.0651042" style="stroke:rgb(246,147,147);stroke-width:0.01" />
<line x1="-0.302083" y1="-0.0182292" x2="0.364583" y2="-0.0182292" style="stroke:rgb(246,147,147);stroke-width:0.01" />
<line x1="-0.0104167" y1="-0.101562" x2="-0.09375" y2="-0.0182292" style="stroke:rgb(246,147,147);stroke-width:0.01" />
<line x1="-0.21875" y1="0.0234375" x2="0.15625" y2="0.0234375" style="stroke:rgb(246,147,147);stroke-width:0.01" />
<line x1="0.0729167" y1="-0.101562" x2="-0.0729167" y2="0.0442708" style="stroke:rgb(246,147,147);stroke-width:0.01" />
<line x1="-0.0520833" y1="0.0651042" x2="0.114583" y2="0.0651042" style="stroke:rgb(246,147,147);stroke-width:0.01" />
<line x1="0.114583" y1="-0.101562" x2="-0.0520833" y2="0.0651042" style="stroke:rgb(246,147,147);stroke-width:0.01" />
<line x1="0.135417" y1="-0.0807292" x2="-0.135417" y2="0.190104" style="stroke:rgb(246,147,147);stroke-width:0.01" />
<line x1="-0.21875" y1="0.106771" x2="-0.0520833" y2="0.106771" style="stroke:rgb(246,147,147);stroke-width:0.01" />
<line x1="-0.0520833" y1="0.148438" x2="0.0729167" y2="0.148438" style="stroke:rgb(246,147,147);stroke-width:0.01" />
<line x1="0.28125" y1="-0.101562" x2="0.03125" y2="0.148438" style="stroke:rgb(246,147,147);stroke-width:0.01" />
<line x1="-0.135417" y1="0.190104" x2="-0.0104167" y2="0.190104" style="stroke:rgb(246,147,147);stroke-width:0.01" />
</g>
</svg>
