<svg xmlns="http://www.w3.org/2000/svg" viewBox="-1.5 -1.5 3 3">
<g transform="scale(1, -1)">
<path d="M0.273549 -0.301488 L0.295871 -0.145238 L0.077121 0.146429 L-0.030022 0.177679 L-0.130022 0.311012 L-0.230022 0.236012 L-0.155022 -0.176488 L-0.101451 -0.247917 z " fill="rgb(245,195,195)" />
<path d="M0.027121 -1.301488 L1.027121 -1.301488 L1.027121 -0.301488 L0.027121 -0.301488  z" fill="none" stroke="rgb(128,128,128)" stroke-width="0.01" />
<line x1="0.273549" y1="-0.301488" x2="0.295871" y2="-0.145238" style="stroke:rgb(246,147,147);stroke-width:0.01" />
<line x1="0.0324777" y1="-0.267049" x2="0.0324777" y2="0.0735119" style="stroke:rgb(246,147,147);stroke-width:0.01" />
<line x1="0.0771205" y1="-0.113988" x2="0.0771205" y2="0.146429" style="stroke:rgb(246,147,147);stroke-width:0.01" />
<line x1="-0.155022" y1="-0.176488" x2="-0.230022" y2="0.236012" style="stroke:rgb(246,147,147);stroke-width:0.01" />
<line x1="0.0324777" y1="-0.267049" x2="0.131808" y2="0.0735119" style="stroke:rgb(246,147,147);stroke-width:0.01" />
<line x1="-0.0635045" y1="0.0735119" x2="-0.0328795" y2="0.178512" style="stroke:rgb(246,147,147);stroke-width:0.01" />
<line x1="-0.101451" y1="-0.247917" x2="-0.155022" y2="-0.176488" style="stroke:rgb(246,147,147);stroke-width:0.01" />
<line x1="0.211049" y1="-0.29256" x2="-0.0635045" y2="0.0735119" style="stroke:rgb(246,147,147);stroke-width:0.01" />
<line x1="0.282478" y1="-0.238988" x2="-0.130022" y2="0.311012" style="stroke:rgb(246,147,147);stroke-width:0.01" />
<line x1="0.295871" y1="-0.145238" x2="0.0771205" y2="0.146429" style="stroke:rgb(246,147,147);stroke-width:0.01" />
<line x1="0.211049" y1="-0.29256" x2="0.282478" y2="-0.238988" style="stroke:rgb(246,147,147);stroke-width:0.01" />
<line x1="-0.101451" y1="-0.247917" x2="0.202121" y2="-0.0202381" style="stroke:rgb(246,147,147);stroke-width:0.01" />
<line x1="0.0235491" y1="-0.265774" x2="-0.155022" y2="-0.176488" style="stroke:rgb(246,147,147);stroke-width:0.01" />
<line x1="0.285454" y1="-0.218155" x2="0.0771205" y2="-0.113988" style="stroke:rgb(246,147,147);stroke-width:0.01" />
<line x1="0.0235491" y1="-0.265774" x2="0.285454" y2="-0.218155" style="stroke:rgb(246,147,147);stroke-width:0.01" />
<line x1="0.273549" y1="-0.301488" x2="-0.101451" y2="-0.247917" style="stroke:rgb(246,147,147);stroke-width:0.01" />
<line x1="-0.230022" y1="0.236012" x2="-0.130022" y2="0.311012" style="stroke:rgb(246,147,147);stroke-width:0.01" />
<line x1="0.295871" y1="-0.145238" x2="0.0771205" y2="-0.113988" style="stroke:rgb(246,147,147);stroke-width:0.01" />
<line x1="0.0771205" y1="0.146429" x2="-0.230022" y2="0.236012" style="stroke:rgb(246,147,147);stroke-width:0.01" />
<line x1="-0.0635045" y1="0.0735119" x2="0.131808" y2="0.0735119" style="stroke:rgb(246,147,147);stroke-width:0.01" />
</g>
</svg>
