<svg xmlns="http://www.w3.org/2000/svg" viewBox="-1.5 -1.5 3 3">
<g transform="scale(1, -1)">
<path d="M-0.188988 -0.257440 L0.019345 -0.257440 L0.019345 -0.174107 L0.352679 -0.174107 L0.352679 -0.007440 L0.186012 -0.007440 L0.081845 0.096726 L0.102679 0.117560 L0.102679 0.242560 L-0.105655 0.242560 L-0.105655 0.159226 L-0.313988 0.159226 L-0.313988 -0.007440 L-0.188988 -0.132440 z " fill="rgb(245,195,195)" />
<path d="M-0.313988 -0.257440 L0.686012 -0.257440 L0.686012 0.742560 L-0.313988 0.742560  z" fill="none" stroke="rgb(128,128,128)" stroke-width="0.01" />
<line x1="-0.147321" y1="-0.25744" x2="0.144345" y2="0.0342262" style="stroke:rgb(246,147,147);stroke-width:0.01" />
<line x1="-0.147321" y1="-0.174107" x2="0.102679" y2="0.0758929" style="stroke:rgb(246,147,147);stroke-width:0.01" />
<line x1="-0.0223214" y1="-0.00744048" x2="0.102679" y2="0.11756" style="stroke:rgb(246,147,147);stroke-width:0.01" />
<line x1="-0.188988" y1="-0.25744" x2="0.0193452" y2="-0.25744" style="stroke:rgb(246,147,147);stroke-width:0.01" />
<line x1="-0.313988" y1="-0.00744048" x2="-0.313988" y2="0.159226" style="stroke:rgb(246,147,147);stroke-width:0.01" />
<line x1="-0.188988" y1="-0.25744" x2="-0.188988" y2="0.0342262" style="stroke:rgb(246,147,147);stroke-width:0.01" />
<line x1="-0.147321" y1="-0.25744" x2="-0.147321" y2="0.0342262" style="stroke:rgb(246,147,147);stroke-width:0.01" />
<line x1="-0.105655" y1="-0.174107" x2="-0.105655" y2="0.24256" style="stroke:rgb(246,147,147);stroke-width:0.01" />
<line x1="-0.0639881" y1="-0.174107" x2="-0.0639881" y2="0.24256" style="stroke:rgb(246,147,147);stroke-width:0.01" />
<line x1="-0.0223214" y1="-0.13244" x2="-0.0223214" y2="0.200893" style="stroke:rgb(246,147,147);stroke-width:0.01" />
<line x1="0.0193452" y1="-0.25744" x2="0.0193452" y2="0.24256" style="stroke:rgb(246,147,147);stroke-width:0.01" />
<line x1="0.102679" y1="-0.00744048" x2="0.102679" y2="0.0758929" style="stroke:rgb(246,147,147);stroke-width:0.01" />
<line x1="0.102679" y1="0.11756" x2="0.102679" y2="0.24256" style="stroke:rgb(246,147,147);stroke-width:0.01" />
<line x1="0.352679" y1="-0.174107" x2="0.352679" y2="-0.00744048" style="stroke:rgb(246,147,147);stroke-width:0.01" />
<line x1="-0.105655" y1="-0.00744048" x2="-0.0639881" y2="0.0342262" style="stroke:rgb(246,147,147);stroke-width:0.01" />
<line x1="-0.147321" y1="-0.00744048" x2="0.102679" y2="0.24256" style="stroke:rgb(246,147,147);stroke-width:0.01" />
<line x1="-0.188988" y1="0.0342262" x2="0.0193452" y2="0.24256" style="stroke:rgb(246,147,147);stroke-width:0.01" />
<line x1="-0.147321" y1="-0.174107" x2="0.352679" y2="-0.174107" style="stroke:rgb(246,147,147);stroke-width:0.01" />
<line x1="-0.105655" y1="-0.13244" x2="-0.0223214" y2="-0.13244" style="stroke:rgb(246,147,147);stroke-width:0.01" />
<line x1="-0.147321" y1="-0.174107" x2="-0.313988" y2="-0.00744048" style="stroke:rgb(246,147,147);stroke-width:0.01" />
<line x1="-0.105655" y1="-0.00744048" x2="-0.147321" y2="0.0342262" style="stroke:rgb(246,147,147);stroke-width:0.01" />
<line x1="-0.313988" y1="-0.00744048" x2="0.352679" y2="-0.00744048" style="stroke:rgb(246,147,147);stroke-width:0.01" />
<line x1="-0.0223214" y1="-0.00744048" x2="-0.0848214" y2="0.0550595" style="stroke:rgb(246,147,147);stroke-width:0.01" />
<line x1="-0.188988" y1="0.0342262" x2="-0.0223214" y2="0.0342262" style="stroke:rgb(246,147,147);stroke-width:0.01" />
<line x1="-0.313988" y1="0.0758929" x2="0.102679" y2="0.0758929" style="stroke:rgb(246,147,147);stroke-width:0.01" />
<line x1="0.102679" y1="-0.00744048" x2="0.0193452" y2="0.0758929" style="stroke:rgb(246,147,147);stroke-width:0.01" />
<line x1="-0.0223214" y1="0.11756" x2="-0.0639881" y2="0.159226" style="stroke:rgb(246,147,147);stroke-width:0.01" />
<line x1="-0.0223214" y1="0.11756" x2="0.102679" y2="0.11756" style="stroke:rgb(246,147,147);stroke-width:0.01" />
<line x1="0.352679" y1="-0.174107" x2="-0.0639881" y2="0.24256" style="stroke:rgb(246,147,147);stroke-width:0.01" />
<line x1="-0.313988" y1="0.159226" x2="0.0193452" y2="0.159226" style="stroke:rgb(246,147,147);stroke-width:0.01" />
<line x1="-0.0639881" y1="0.200893" x2="-0.0223214" y2="0.200893" style="stroke:rgb(246,147,147);stroke-width:0.01" />
<line x1="-0.105655" y1="0.24256" x2="0.102679" y2="0.24256" style="stroke:rgb(246,147,147);stroke-width:0.01" />
</g>
</svg>
