<svg xmlns="http://www.w3.org/2000/svg" viewBox="-1.5 -1.5 3 3">
<g transform="scale(1, -1)">
<path d="M-0.069079 -0.205044 L-0.027412 -0.205044 L0.014254 -0.163377 L0.097588 -0.163377 L0.097588 -0.121711 L0.264254 -0.121711 L0.160088 -0.017544 L0.222588 0.044956 L0.222588 0.294956 L0.097588 0.294956 L0.014254 0.211623 L-0.069079 0.211623 L-0.069079 0.169956 L-0.235746 0.169956 L-0.235746 0.044956 L-0.152412 -0.038377 L-0.152412 -0.121711 L-0.069079 -0.121711 L-0.110746 -0.163377 z " fill="rgb(245,195,195)" />
<path d="M-0.235746 -0.205044 L0.764254 -0.205044 L0.764254 0.794956 L-0.235746 0.794956  z" fill="none" stroke="rgb(128,128,128)" stroke-width="0.01" />
<line x1="-0.0274123" y1="-0.205044" x2="0.222588" y2="0.0449561" style="stroke:rgb(246,147,147);stroke-width:0.01" />
<line x1="-0.0690789" y1="-0.205044" x2="0.139254" y2="0.00328947" style="stroke:rgb(246,147,147);stroke-width:0.01" />
<line x1="-0.110746" y1="-0.163377" x2="0.0975877" y2="0.0449561" style="stroke:rgb(246,147,147);stroke-width:0.01" />
<line x1="-0.0690789" y1="-0.205044" x2="-0.0274123" y2="-0.205044" style="stroke:rgb(246,147,147);stroke-width:0.01" />
<line x1="-0.152412" y1="-0.121711" x2="0.0559211" y2="0.0866228" style="stroke:rgb(246,147,147);stroke-width:0.01" />
<line x1="-0.235746" y1="0.0449561" x2="-0.235746" y2="0.169956" style="stroke:rgb(246,147,147);stroke-width:0.01" />
<line x1="-0.152412" y1="-0.121711" x2="-0.152412" y2="0.00328947" style="stroke:rgb(246,147,147);stroke-width:0.01" />
<line x1="-0.110746" y1="-0.0800439" x2="-0.110746" y2="-0.0383772" style="stroke:rgb(246,147,147);stroke-width:0.01" />
<line x1="-0.110746" y1="0.00328947" x2="-0.110746" y2="0.0449561" style="stroke:rgb(246,147,147);stroke-width:0.01" />
<line x1="-0.0690789" y1="0.0449561" x2="-0.0690789" y2="0.211623" style="stroke:rgb(246,147,147);stroke-width:0.01" />
<line x1="-0.0274123" y1="-0.205044" x2="-0.0274123" y2="0.169956" style="stroke:rgb(246,147,147);stroke-width:0.01" />
<line x1="0.0142544" y1="-0.163377" x2="0.0142544" y2="0.128289" style="stroke:rgb(246,147,147);stroke-width:0.01" />
<line x1="0.0975877" y1="-0.163377" x2="0.0975877" y2="0.0449561" style="stroke:rgb(246,147,147);stroke-width:0.01" />
<line x1="0.0975877" y1="0.128289" x2="0.0975877" y2="0.294956" style="stroke:rgb(246,147,147);stroke-width:0.01" />
<line x1="0.139254" y1="-0.121711" x2="0.139254" y2="0.294956" style="stroke:rgb(246,147,147);stroke-width:0.01" />
<line x1="0.222588" y1="0.0449561" x2="0.222588" y2="0.294956" style="stroke:rgb(246,147,147);stroke-width:0.01" />
<line x1="-0.152412" y1="-0.0383772" x2="-0.110746" y2="0.00328947" style="stroke:rgb(246,147,147);stroke-width:0.01" />
<line x1="-0.110746" y1="-0.163377" x2="0.0975877" y2="-0.163377" style="stroke:rgb(246,147,147);stroke-width:0.01" />
<line x1="-0.152412" y1="0.00328947" x2="0.139254" y2="0.294956" style="stroke:rgb(246,147,147);stroke-width:0.01" />
<line x1="-0.0690789" y1="0.128289" x2="0.0975877" y2="0.294956" style="stroke:rgb(246,147,147);stroke-width:0.01" />
<line x1="-0.152412" y1="-0.121711" x2="0.264254" y2="-0.121711" style="stroke:rgb(246,147,147);stroke-width:0.01" />
<line x1="-0.0690789" y1="-0.205044" x2="-0.110746" y2="-0.163377" style="stroke:rgb(246,147,147);stroke-width:0.01" />
<line x1="-0.110746" y1="-0.0800439" x2="0.0975877" y2="-0.0800439" style="stroke:rgb(246,147,147);stroke-width:0.01" />
<line x1="-0.110746" y1="-0.0800439" x2="-0.235746" y2="0.0449561" style="stroke:rgb(246,147,147);stroke-width:0.01" />
<line x1="-0.110746" y1="-0.0383772" x2="-0.152412" y2="0.00328947" style="stroke:rgb(246,147,147);stroke-width:0.01" />
<line x1="-0.152412" y1="-0.0383772" x2="0.139254" y2="-0.0383772" style="stroke:rgb(246,147,147);stroke-width:0.01" />
<line x1="0.0350877" y1="-0.142544" x2="-0.131579" y2="0.0241228" style="stroke:rgb(246,147,147);stroke-width:0.01" />
<line x1="-0.152412" y1="0.00328947" x2="-0.0274123" y2="0.00328947" style="stroke:rgb(246,147,147);stroke-width:0.01" />
<line x1="0.0142544" y1="0.00328947" x2="0.139254" y2="0.00328947" style="stroke:rgb(246,147,147);stroke-width:0.01" />
<line x1="0.0559211" y1="-0.0800439" x2="-0.0690789" y2="0.0449561" style="stroke:rgb(246,147,147);stroke-width:0.01" />
<line x1="0.139254" y1="-0.121711" x2="-0.0690789" y2="0.0866228" style="stroke:rgb(246,147,147);stroke-width:0.01" />
<line x1="-0.235746" y1="0.0449561" x2="0.222588" y2="0.0449561" style="stroke:rgb(246,147,147);stroke-width:0.01" />
<line x1="0.118421" y1="-0.0592105" x2="-0.0690789" y2="0.128289" style="stroke:rgb(246,147,147);stroke-width:0.01" />
<line x1="0.264254" y1="-0.121711" x2="-0.0690789" y2="0.211623" style="stroke:rgb(246,147,147);stroke-width:0.01" />
<line x1="-0.235746" y1="0.128289" x2="0.0975877" y2="0.128289" style="stroke:rgb(246,147,147);stroke-width:0.01" />
<line x1="-0.235746" y1="0.169956" x2="-0.0274123" y2="0.169956" style="stroke:rgb(246,147,147);stroke-width:0.01" />
<line x1="-0.0690789" y1="0.211623" x2="0.0975877" y2="0.211623" style="stroke:rgb(246,147,147);stroke-width:0.01" />
<line x1="0.0975877" y1="0.294956" x2="0.222588" y2="0.294956" style="stroke:rgb(246,147,147);stroke-width:0.01" />
</g>
</svg>
