<svg xmlns="http://www.w3.org/2000/svg" viewBox="-1.5 -1.5 3 3">
<g transform="scale(1, -1)">
<path d="M0.272351 -0.419315 L0.136175 -0.209658 L0.345833 -0.073482 L0.419315 0.272351 L0.209658 0.136175 L0.073482 0.345833 L-0.272351 0.419315 L-0.136175 0.209658 L-0.345833 0.073482 L-0.419315 -0.272351 L-0.209658 -0.136175 L-0.073482 -0.345833 z " fill="rgb(245,195,195)" />
<path d="M-20953.461229 11.335664 L-20952.461229 11.335664 L-20952.461229 12.335664 L-20953.461229 12.335664  z" fill="none" stroke="rgb(128,128,128)" stroke-width="0.01" />
<line x1="-0.0734822" y1="-0.345833" x2="0.345833" y2="-0.0734822" style="stroke:rgb(246,147,147);stroke-width:0.01" />
<line x1="-0.419315" y1="-0.272351" x2="0.419315" y2="0.272351" style="stroke:rgb(246,147,147);stroke-width:0.01" />
<line x1="-0.345833" y1="0.0734822" x2="0.0734822" y2="0.345833" style="stroke:rgb(246,147,147);stroke-width:0.01" />
<line x1="0.345833" y1="-0.0734822" x2="0.419315" y2="0.272351" style="stroke:rgb(246,147,147);stroke-width:0.01" />
<line x1="-0.0734822" y1="-0.345833" x2="0.0734822" y2="0.345833" style="stroke:rgb(246,147,147);stroke-width:0.01" />
<line x1="-0.419315" y1="-0.272351" x2="-0.345833" y2="0.0734822" style="stroke:rgb(246,147,147);stroke-width:0.01" />
<line x1="0.272351" y1="-0.419315" x2="-0.0734822" y2="-0.345833" style="stroke:rgb(246,147,147);stroke-width:0.01" />
<line x1="0.345833" y1="-0.0734822" x2="-0.345833" y2="0.0734822" style="stroke:rgb(246,147,147);stroke-width:0.01" />
<line x1="0.0734822" y1="0.345833" x2="-0.272351" y2="0.419315" style="stroke:rgb(246,147,147);stroke-width:0.01" />
<line x1="-0.0734822" y1="-0.345833" x2="-0.345833" y2="0.0734822" style="stroke:rgb(246,147,147);stroke-width:0.01" />
<line x1="0.272351" y1="-0.419315" x2="-0.272351" y2="0.419315" style="stroke:rgb(246,147,147);stroke-width:0.01" />
<line x1="0.345833" y1="-0.0734822" x2="0.0734822" y2="0.345833" style="stroke:rgb(246,147,147);stroke-width:0.01" />
</g>
</svg>
