<svg xmlns="http://www.w3.org/2000/svg" viewBox="-1.5 -1.5 3 3">
<g transform="scale(1, -1)">
<path d="M-0.150318 -0.296718 L-0.112927 -0.253986 L-0.092381 -0.258288 L0.140496 0.035640 L0.346625 0.271217 L0.331069 0.387367 L-0.138287 0.324507 L-0.324277 -0.209738 z " fill="rgb(245,195,195)" />
<path d="M-0.636187 -1.328783 L0.363813 -1.328783 L0.363813 -0.328783 L-0.636187 -0.328783  z" fill="none" stroke="rgb(128,128,128)" stroke-width="0.01" />
<line x1="0.140496" y1="0.0356398" x2="0.160368" y2="0.15905" style="stroke:rgb(246,147,147);stroke-width:0.01" />
<line x1="-0.324277" y1="-0.209738" x2="-0.138287" y2="0.324507" style="stroke:rgb(246,147,147);stroke-width:0.01" />
<line x1="-0.0923815" y1="-0.258288" x2="0.140496" y2="0.0356398" style="stroke:rgb(246,147,147);stroke-width:0.01" />
<line x1="0.346625" y1="0.271217" x2="0.331069" y2="0.387367" style="stroke:rgb(246,147,147);stroke-width:0.01" />
<line x1="-0.0923815" y1="-0.258288" x2="-0.199474" y2="0.148752" style="stroke:rgb(246,147,147);stroke-width:0.01" />
<line x1="-0.150318" y1="-0.296718" x2="0.346625" y2="0.271217" style="stroke:rgb(246,147,147);stroke-width:0.01" />
<line x1="-0.150318" y1="-0.296718" x2="-0.285362" y2="-0.0979562" style="stroke:rgb(246,147,147);stroke-width:0.01" />
<line x1="-0.199474" y1="0.148752" x2="-0.0361871" y2="0.271217" style="stroke:rgb(246,147,147);stroke-width:0.01" />
<line x1="0.140496" y1="0.0356398" x2="-0.0361871" y2="0.271217" style="stroke:rgb(246,147,147);stroke-width:0.01" />
<line x1="-0.150318" y1="-0.296718" x2="-0.324277" y2="-0.209738" style="stroke:rgb(246,147,147);stroke-width:0.01" />
<line x1="-0.285362" y1="-0.0979562" x2="0.140496" y2="0.0356398" style="stroke:rgb(246,147,147);stroke-width:0.01" />
<line x1="0.140496" y1="0.0356398" x2="-0.138287" y2="0.324507" style="stroke:rgb(246,147,147);stroke-width:0.01" />
<line x1="-0.0923815" y1="-0.258288" x2="-0.324277" y2="-0.209738" style="stroke:rgb(246,147,147);stroke-width:0.01" />
<line x1="0.140496" y1="0.0356398" x2="-0.15684" y2="0.271217" style="stroke:rgb(246,147,147);stroke-width:0.01" />
<line x1="0.140496" y1="0.0356398" x2="-0.176977" y2="0.213373" style="stroke:rgb(246,147,147);stroke-width:0.01" />
<line x1="-0.138287" y1="0.324507" x2="0.331069" y2="0.387367" style="stroke:rgb(246,147,147);stroke-width:0.01" />
<line x1="0.160368" y1="0.15905" x2="-0.176977" y2="0.213373" style="stroke:rgb(246,147,147);stroke-width:0.01" />
<line x1="-0.15684" y1="0.271217" x2="0.346625" y2="0.271217" style="stroke:rgb(246,147,147);stroke-width:0.01" />
</g>
</svg>
