<svg xmlns="http://www.w3.org/2000/svg" viewBox="-1.5 -1.5 3 3">
<g transform="scale(1, -1)">
<path d="M-0.328182 -0.377222 L-0.164091 -0.188611 L0.024520 -0.352702 L0.377222 -0.328182 L0.188611 -0.164091 L0.352702 0.024520 L0.328182 0.377222 L0.164091 0.188611 L-0.024520 0.352702 L-0.377222 0.328182 L-0.188611 0.164091 L-0.352702 -0.024520 z " fill="rgb(245,195,195)" />
<path d="M-6676.365793 51.282957 L-6675.365793 51.282957 L-6675.365793 52.282957 L-6676.365793 52.282957  z" fill="none" stroke="rgb(128,128,128)" stroke-width="0.01" />
<line x1="0.0245196" y1="-0.352702" x2="0.352702" y2="0.0245196" style="stroke:rgb(246,147,147);stroke-width:0.01" />
<line x1="-0.328182" y1="-0.377222" x2="0.328182" y2="0.377222" style="stroke:rgb(246,147,147);stroke-width:0.01" />
<line x1="-0.352702" y1="-0.0245196" x2="-0.0245196" y2="0.352702" style="stroke:rgb(246,147,147);stroke-width:0.01" />
<line x1="0.0245196" y1="-0.352702" x2="0.377222" y2="-0.328182" style="stroke:rgb(246,147,147);stroke-width:0.01" />
<line x1="-0.352702" y1="-0.0245196" x2="0.352702" y2="0.0245196" style="stroke:rgb(246,147,147);stroke-width:0.01" />
<line x1="-0.377222" y1="0.328182" x2="-0.0245196" y2="0.352702" style="stroke:rgb(246,147,147);stroke-width:0.01" />
<line x1="-0.328182" y1="-0.377222" x2="-0.352702" y2="-0.0245196" style="stroke:rgb(246,147,147);stroke-width:0.01" />
<line x1="0.0245196" y1="-0.352702" x2="-0.0245196" y2="0.352702" style="stroke:rgb(246,147,147);stroke-width:0.01" />
<line x1="0.352702" y1="0.0245196" x2="0.328182" y2="0.377222" style="stroke:rgb(246,147,147);stroke-width:0.01" />
<line x1="0.0245196" y1="-0.352702" x2="-0.352702" y2="-0.0245196" style="stroke:rgb(246,147,147);stroke-width:0.01" />
<line x1="0.377222" y1="-0.328182" x2="-0.377222" y2="0.328182" style="stroke:rgb(246,147,147);stroke-width:0.01" />
<line x1="0.352702" y1="0.0245196" x2="-0.0245196" y2="0.352702" style="stroke:rgb(246,147,147);stroke-width:0.01" />
</g>
</svg>
