<svg xmlns="http://www.w3.org/2000/svg" viewBox="-1.5 -1.5 3 3">
<g transform="scale(1, -1)">
<path d="M-0.028301 -0.499198 L-0.014151 -0.249599 L0.235448 -0.263750 L0.499198 -0.028301 L0.249599 -0.014151 L0.263750 0.235448 L0.028301 0.499198 L0.014151 0.249599 L-0.235448 0.263750 L-0.499198 0.028301 L-0.249599 0.014151 L-0.263750 -0.235448 z " fill="rgb(245,195,195)" />
<path d="M-6625.976981 -12699.890291 L-6624.976981 -12699.890291 L-6624.976981 -12698.890291 L-6625.976981 -12698.890291  z" fill="none" stroke="rgb(128,128,128)" stroke-width="0.01" />
<line x1="0.235448" y1="-0.26375" x2="0.26375" y2="0.235448" style="stroke:rgb(246,147,147);stroke-width:0.01" />
<line x1="-0.0283014" y1="-0.499198" x2="0.0283014" y2="0.499198" style="stroke:rgb(246,147,147);stroke-width:0.01" />
<line x1="-0.26375" y1="-0.235448" x2="-0.235448" y2="0.26375" style="stroke:rgb(246,147,147);stroke-width:0.01" />
<line x1="0.235448" y1="-0.26375" x2="0.499198" y2="-0.0283014" style="stroke:rgb(246,147,147);stroke-width:0.01" />
<line x1="-0.26375" y1="-0.235448" x2="0.26375" y2="0.235448" style="stroke:rgb(246,147,147);stroke-width:0.01" />
<line x1="-0.499198" y1="0.0283014" x2="-0.235448" y2="0.26375" style="stroke:rgb(246,147,147);stroke-width:0.01" />
<line x1="-0.0283014" y1="-0.499198" x2="-0.26375" y2="-0.235448" style="stroke:rgb(246,147,147);stroke-width:0.01" />
<line x1="0.235448" y1="-0.26375" x2="-0.235448" y2="0.26375" style="stroke:rgb(246,147,147);stroke-width:0.01" />
<line x1="0.26375" y1="0.235448" x2="0.0283014" y2="0.499198" style="stroke:rgb(246,147,147);stroke-width:0.01" />
<line x1="0.235448" y1="-0.26375" x2="-0.26375" y2="-0.235448" style="stroke:rgb(246,147,147);stroke-width:0.01" />
<line x1="0.499198" y1="-0.0283014" x2="-0.499198" y2="0.0283014" style="stroke:rgb(246,147,147);stroke-width:0.01" />
<line x1="0.26375" y1="0.235448" x2="-0.235448" y2="0.26375" style="stroke:rgb(246,147,147);stroke-width:0.01" />
</g>
</svg>
