<svg xmlns="http://www.w3.org/2000/svg" viewBox="-1.5 -1.5 3 3">
<g transform="scale(1, -1)">
<path d="M-0.116252 -0.126491 L-0.039447 -0.068886 L0.004040 -0.081624 L0.043207 -0.108247 L0.051797 -0.095611 L0.090176 -0.106853 L0.203279 0.127243 L0.254018 0.201888 L0.242972 0.209397 L-0.265882 0.073016 L-0.274669 0.000009 L-0.193239 -0.023841 z " fill="rgb(245,195,195)" />
<path d="M-1.016252 -0.076491 L-0.016252 -0.076491 L-0.016252 0.923509 L-1.016252 0.923509  z" fill="none" stroke="rgb(128,128,128)" stroke-width="0.01" />
<line x1="0.0432074" y1="-0.108247" x2="0.254018" y2="0.201888" style="stroke:rgb(246,147,147);stroke-width:0.01" />
<line x1="-0.116252" y1="-0.126491" x2="0.183748" y2="0.0985094" style="stroke:rgb(246,147,147);stroke-width:0.01" />
<line x1="0.0901761" y1="-0.106853" x2="0.242972" y2="0.209397" style="stroke:rgb(246,147,147);stroke-width:0.01" />
<line x1="-0.0314389" y1="-0.0712319" x2="0.0834959" y2="0.166655" style="stroke:rgb(246,147,147);stroke-width:0.01" />
<line x1="-0.163549" y1="0.0322932" x2="-0.106906" y2="0.115624" style="stroke:rgb(246,147,147);stroke-width:0.01" />
<line x1="-0.274669" y1="9.42994e-06" x2="-0.235456" y2="0.0811707" style="stroke:rgb(246,147,147);stroke-width:0.01" />
<line x1="0.0901761" y1="-0.106853" x2="0.124414" y2="0.177621" style="stroke:rgb(246,147,147);stroke-width:0.01" />
<line x1="-0.0314389" y1="-0.0712319" x2="-0.00568466" y2="0.142753" style="stroke:rgb(246,147,147);stroke-width:0.01" />
<line x1="-0.274669" y1="9.42994e-06" x2="-0.265882" y2="0.073016" style="stroke:rgb(246,147,147);stroke-width:0.01" />
<line x1="-0.265882" y1="0.073016" x2="0.242972" y2="0.209397" style="stroke:rgb(246,147,147);stroke-width:0.01" />
<line x1="0.0901761" y1="-0.106853" x2="-0.274669" y2="9.42994e-06" style="stroke:rgb(246,147,147);stroke-width:0.01" />
<line x1="-0.116252" y1="-0.126491" x2="-0.265882" y2="0.073016" style="stroke:rgb(246,147,147);stroke-width:0.01" />
<line x1="0.0432074" y1="-0.108247" x2="-0.235456" y2="0.0811707" style="stroke:rgb(246,147,147);stroke-width:0.01" />
<line x1="0.140024" y1="-0.00368023" x2="-0.106906" y2="0.115624" style="stroke:rgb(246,147,147);stroke-width:0.01" />
<line x1="0.0837479" y1="0.0235094" x2="-0.00568466" y2="0.142753" style="stroke:rgb(246,147,147);stroke-width:0.01" />
<line x1="0.183748" y1="0.0985094" x2="0.124414" y2="0.177621" style="stroke:rgb(246,147,147);stroke-width:0.01" />
<line x1="0.183748" y1="0.0985094" x2="0.0834959" y2="0.166655" style="stroke:rgb(246,147,147);stroke-width:0.01" />
<line x1="0.254018" y1="0.201888" x2="0.242972" y2="0.209397" style="stroke:rgb(246,147,147);stroke-width:0.01" />
</g>
</svg>
