<svg xmlns="http://www.w3.org/2000/svg" viewBox="-1.5 -1.5 3 3">
<g transform="scale(1, -1)">
<path d="M0.321323 -0.383081 L0.160662 -0.191541 L0.352202 -0.030879 L0.383081 0.321323 L0.191541 0.160662 L0.030879 0.352202 L-0.321323 0.383081 L-0.160662 0.191541 L-0.352202 0.030879 L-0.383081 -0.321323 L-0.191541 -0.160662 L-0.030879 -0.352202 z " fill="rgb(245,195,195)" />
<path d="M-7602.504179 10119.098882 L-7601.504179 10119.098882 L-7601.504179 10120.098882 L-7602.504179 10120.098882  z" fill="none" stroke="rgb(128,128,128)" stroke-width="0.01" />
<line x1="-0.030879" y1="-0.352202" x2="0.352202" y2="-0.030879" style="stroke:rgb(246,147,147);stroke-width:0.01" />
<line x1="-0.383081" y1="-0.321323" x2="0.383081" y2="0.321323" style="stroke:rgb(246,147,147);stroke-width:0.01" />
<line x1="-0.352202" y1="0.030879" x2="0.030879" y2="0.352202" style="stroke:rgb(246,147,147);stroke-width:0.01" />
<line x1="0.321323" y1="-0.383081" x2="-0.030879" y2="-0.352202" style="stroke:rgb(246,147,147);stroke-width:0.01" />
<line x1="0.352202" y1="-0.030879" x2="-0.352202" y2="0.030879" style="stroke:rgb(246,147,147);stroke-width:0.01" />
<line x1="0.030879" y1="0.352202" x2="-0.321323" y2="0.383081" style="stroke:rgb(246,147,147);stroke-width:0.01" />
<line x1="0.352202" y1="-0.030879" x2="0.383081" y2="0.321323" style="stroke:rgb(246,147,147);stroke-width:0.01" />
<line x1="-0.030879" y1="-0.352202" x2="0.030879" y2="0.352202" style="stroke:rgb(246,147,147);stroke-width:0.01" />
<line x1="-0.383081" y1="-0.321323" x2="-0.352202" y2="0.030879" style="stroke:rgb(246,147,147);stroke-width:0.01" />
<line x1="-0.030879" y1="-0.352202" x2="-0.352202" y2="0.030879" style="stroke:rgb(246,147,147);stroke-width:0.01" />
<line x1="0.321323" y1="-0.383081" x2="-0.321323" y2="0.383081" style="stroke:rgb(246,147,147);stroke-width:0.01" />
<line x1="0.352202" y1="-0.030879" x2="0.030879" y2="0.352202" style="stroke:rgb(246,147,147);stroke-width:0.01" />
</g>
</svg>
