<svg xmlns="http://www.w3.org/2000/svg" viewBox="-1.5 -1.5 3 3">
<g transform="scale(1, -1)">
<path d="M-0.007353 -0.232843 L0.117647 -0.232843 L0.117647 -0.149510 L0.159314 -0.149510 L0.159314 -0.024510 L0.200980 -0.024510 L0.200980 0.183824 L0.034314 0.183824 L0.034314 0.308824 L-0.007353 0.350490 L-0.090686 0.350490 L-0.090686 0.017157 L-0.215686 0.017157 L-0.215686 -0.107843 L-0.174020 -0.107843 L-0.174020 -0.191176 L-0.049020 -0.191176 z " fill="rgb(245,195,195)" />
<path d="M-0.215686 -0.232843 L0.784314 -0.232843 L0.784314 0.767157 L-0.215686 0.767157  z" fill="none" stroke="rgb(128,128,128)" stroke-width="0.01" />
<line x1="-0.00735294" y1="-0.191176" x2="0.0968137" y2="-0.0870098" style="stroke:rgb(246,147,147);stroke-width:0.01" />
<line x1="-0.0490196" y1="-0.191176" x2="0.117647" y2="-0.0245098" style="stroke:rgb(246,147,147);stroke-width:0.01" />
<line x1="-0.0906863" y1="-0.14951" x2="0.20098" y2="0.142157" style="stroke:rgb(246,147,147);stroke-width:0.01" />
<line x1="-0.00735294" y1="-0.232843" x2="0.117647" y2="-0.232843" style="stroke:rgb(246,147,147);stroke-width:0.01" />
<line x1="-0.215686" y1="-0.107843" x2="-0.215686" y2="0.0171569" style="stroke:rgb(246,147,147);stroke-width:0.01" />
<line x1="-0.17402" y1="-0.191176" x2="-0.17402" y2="0.0171569" style="stroke:rgb(246,147,147);stroke-width:0.01" />
<line x1="-0.0906863" y1="-0.14951" x2="-0.0906863" y2="0.35049" style="stroke:rgb(246,147,147);stroke-width:0.01" />
<line x1="-0.0490196" y1="-0.191176" x2="-0.0490196" y2="-0.0245098" style="stroke:rgb(246,147,147);stroke-width:0.01" />
<line x1="-0.00735294" y1="-0.232843" x2="-0.00735294" y2="0.35049" style="stroke:rgb(246,147,147);stroke-width:0.01" />
<line x1="0.0343137" y1="-0.14951" x2="0.0343137" y2="0.308824" style="stroke:rgb(246,147,147);stroke-width:0.01" />
<line x1="0.117647" y1="-0.232843" x2="0.117647" y2="-0.107843" style="stroke:rgb(246,147,147);stroke-width:0.01" />
<line x1="0.117647" y1="-0.0245098" x2="0.117647" y2="0.142157" style="stroke:rgb(246,147,147);stroke-width:0.01" />
<line x1="0.159314" y1="-0.14951" x2="0.159314" y2="0.183824" style="stroke:rgb(246,147,147);stroke-width:0.01" />
<line x1="0.20098" y1="-0.0245098" x2="0.20098" y2="0.183824" style="stroke:rgb(246,147,147);stroke-width:0.01" />
<line x1="-0.132353" y1="-0.107843" x2="0.159314" y2="0.183824" style="stroke:rgb(246,147,147);stroke-width:0.01" />
<line x1="-0.17402" y1="-0.107843" x2="-0.0490196" y2="0.0171569" style="stroke:rgb(246,147,147);stroke-width:0.01" />
<line x1="-0.17402" y1="-0.191176" x2="-0.00735294" y2="-0.191176" style="stroke:rgb(246,147,147);stroke-width:0.01" />
<line x1="-0.0906863" y1="0.0171569" x2="-0.00735294" y2="0.10049" style="stroke:rgb(246,147,147);stroke-width:0.01" />
<line x1="-0.0490196" y1="-0.14951" x2="0.159314" y2="-0.14951" style="stroke:rgb(246,147,147);stroke-width:0.01" />
<line x1="-0.0906863" y1="0.10049" x2="-0.00735294" y2="0.183824" style="stroke:rgb(246,147,147);stroke-width:0.01" />
<line x1="-0.00735294" y1="-0.232843" x2="-0.215686" y2="-0.0245098" style="stroke:rgb(246,147,147);stroke-width:0.01" />
<line x1="-0.215686" y1="-0.107843" x2="0.117647" y2="-0.107843" style="stroke:rgb(246,147,147);stroke-width:0.01" />
<line x1="-0.00735294" y1="-0.14951" x2="-0.0906863" y2="-0.0661765" style="stroke:rgb(246,147,147);stroke-width:0.01" />
<line x1="-0.0906863" y1="0.267157" x2="-0.00735294" y2="0.35049" style="stroke:rgb(246,147,147);stroke-width:0.01" />
<line x1="-0.00735294" y1="-0.0661765" x2="-0.0906863" y2="0.0171569" style="stroke:rgb(246,147,147);stroke-width:0.01" />
<line x1="-0.215686" y1="-0.0245098" x2="0.20098" y2="-0.0245098" style="stroke:rgb(246,147,147);stroke-width:0.01" />
<line x1="0.0759804" y1="-0.107843" x2="-0.0490196" y2="0.0171569" style="stroke:rgb(246,147,147);stroke-width:0.01" />
<line x1="0.117647" y1="-0.107843" x2="-0.0906863" y2="0.10049" style="stroke:rgb(246,147,147);stroke-width:0.01" />
<line x1="-0.215686" y1="0.0171569" x2="-0.00735294" y2="0.0171569" style="stroke:rgb(246,147,147);stroke-width:0.01" />
<line x1="-0.00735294" y1="0.10049" x2="-0.0906863" y2="0.183824" style="stroke:rgb(246,147,147);stroke-width:0.01" />
<line x1="-0.00735294" y1="0.183824" x2="-0.0906863" y2="0.267157" style="stroke:rgb(246,147,147);stroke-width:0.01" />
<line x1="-0.0906863" y1="0.10049" x2="-0.00735294" y2="0.10049" style="stroke:rgb(246,147,147);stroke-width:0.01" />
<line x1="0.117647" y1="0.142157" x2="0.20098" y2="0.142157" style="stroke:rgb(246,147,147);stroke-width:0.01" />
<line x1="0.0343137" y1="0.308824" x2="-0.00735294" y2="0.35049" style="stroke:rgb(246,147,147);stroke-width:0.01" />
<line x1="-0.0906863" y1="0.183824" x2="0.20098" y2="0.183824" style="stroke:rgb(246,147,147);stroke-width:0.01" />
<line x1="-0.0906863" y1="0.308824" x2="0.0343137" y2="0.308824" style="stroke:rgb(246,147,147);stroke-width:0.01" />
<line x1="-0.0906863" y1="0.35049" x2="-0.00735294" y2="0.35049" style="stroke:rgb(246,147,147);stroke-width:0.01" />
</g>
</svg>
