<svg xmlns="http://www.w3.org/2000/svg" viewBox="-1.5 -1.5 3 3">
<g transform="scale(1, -1)">
<path d="M-0.054167 -0.306944 L0.112500 -0.306944 L0.112500 0.068056 L0.154167 0.068056 L0.154167 0.151389 L0.112500 0.151389 L0.112500 0.193056 L0.070833 0.193056 L-0.033333 0.088889 L-0.054167 0.109722 L-0.137500 0.109722 L-0.137500 -0.015278 L-0.179167 -0.056944 L-0.179167 -0.223611 L-0.054167 -0.223611 z " fill="rgb(245,195,195)" />
<path d="M-0.179167 -0.306944 L0.820833 -0.306944 L0.820833 0.693056 L-0.179167 0.693056  z" fill="none" stroke="rgb(128,128,128)" stroke-width="0.01" />
<line x1="-0.0541667" y1="-0.223611" x2="0.0291667" y2="-0.140278" style="stroke:rgb(246,147,147);stroke-width:0.01" />
<line x1="-0.0541667" y1="-0.306944" x2="0.1125" y2="-0.306944" style="stroke:rgb(246,147,147);stroke-width:0.01" />
<line x1="-0.179167" y1="-0.223611" x2="-0.179167" y2="-0.0569444" style="stroke:rgb(246,147,147);stroke-width:0.01" />
<line x1="-0.1375" y1="-0.223611" x2="-0.1375" y2="0.109722" style="stroke:rgb(246,147,147);stroke-width:0.01" />
<line x1="-0.0541667" y1="-0.306944" x2="-0.0541667" y2="0.109722" style="stroke:rgb(246,147,147);stroke-width:0.01" />
<line x1="-0.0125" y1="-0.0569444" x2="-0.0125" y2="0.0263889" style="stroke:rgb(246,147,147);stroke-width:0.01" />
<line x1="0.0291667" y1="-0.306944" x2="0.0291667" y2="0.151389" style="stroke:rgb(246,147,147);stroke-width:0.01" />
<line x1="0.0708333" y1="-0.0569444" x2="0.0708333" y2="0.193056" style="stroke:rgb(246,147,147);stroke-width:0.01" />
<line x1="0.1125" y1="-0.306944" x2="0.1125" y2="0.193056" style="stroke:rgb(246,147,147);stroke-width:0.01" />
<line x1="0.154167" y1="0.0680556" x2="0.154167" y2="0.151389" style="stroke:rgb(246,147,147);stroke-width:0.01" />
<line x1="-0.1375" y1="-0.223611" x2="0.0708333" y2="-0.0152778" style="stroke:rgb(246,147,147);stroke-width:0.01" />
<line x1="-0.0125" y1="-0.0569444" x2="0.154167" y2="0.109722" style="stroke:rgb(246,147,147);stroke-width:0.01" />
<line x1="-0.0541667" y1="-0.0569444" x2="0.0291667" y2="0.0263889" style="stroke:rgb(246,147,147);stroke-width:0.01" />
<line x1="-0.179167" y1="-0.223611" x2="0.1125" y2="-0.223611" style="stroke:rgb(246,147,147);stroke-width:0.01" />
<line x1="-0.0541667" y1="0.0263889" x2="0.0291667" y2="0.109722" style="stroke:rgb(246,147,147);stroke-width:0.01" />
<line x1="0.0291667" y1="-0.306944" x2="-0.0541667" y2="-0.223611" style="stroke:rgb(246,147,147);stroke-width:0.01" />
<line x1="-0.179167" y1="-0.0569444" x2="0.0708333" y2="0.193056" style="stroke:rgb(246,147,147);stroke-width:0.01" />
<line x1="0.0291667" y1="-0.140278" x2="-0.0541667" y2="-0.0569444" style="stroke:rgb(246,147,147);stroke-width:0.01" />
<line x1="0.0291667" y1="-0.0569444" x2="-0.075" y2="0.0472222" style="stroke:rgb(246,147,147);stroke-width:0.01" />
<line x1="-0.179167" y1="-0.0569444" x2="0.0708333" y2="-0.0569444" style="stroke:rgb(246,147,147);stroke-width:0.01" />
<line x1="0.0291667" y1="-0.0152778" x2="-0.0541667" y2="0.0680556" style="stroke:rgb(246,147,147);stroke-width:0.01" />
<line x1="0.0708333" y1="-0.0152778" x2="-0.0541667" y2="0.109722" style="stroke:rgb(246,147,147);stroke-width:0.01" />
<line x1="-0.1375" y1="-0.0152778" x2="0.0708333" y2="-0.0152778" style="stroke:rgb(246,147,147);stroke-width:0.01" />
<line x1="0.0708333" y1="0.0263889" x2="-0.0125" y2="0.109722" style="stroke:rgb(246,147,147);stroke-width:0.01" />
<line x1="0.0708333" y1="0.0680556" x2="0.0291667" y2="0.109722" style="stroke:rgb(246,147,147);stroke-width:0.01" />
<line x1="-0.0541667" y1="0.0263889" x2="0.0708333" y2="0.0263889" style="stroke:rgb(246,147,147);stroke-width:0.01" />
<line x1="-0.0541667" y1="0.0680556" x2="0.154167" y2="0.0680556" style="stroke:rgb(246,147,147);stroke-width:0.01" />
<line x1="-0.1375" y1="0.109722" x2="-0.0541667" y2="0.109722" style="stroke:rgb(246,147,147);stroke-width:0.01" />
<line x1="-0.0125" y1="0.109722" x2="0.154167" y2="0.109722" style="stroke:rgb(246,147,147);stroke-width:0.01" />
<line x1="0.0291667" y1="0.151389" x2="0.154167" y2="0.151389" style="stroke:rgb(246,147,147);stroke-width:0.01" />
<line x1="0.0708333" y1="0.193056" x2="0.1125" y2="0.193056" style="stroke:rgb(246,147,147);stroke-width:0.01" />
</g>
</svg>
