<svg xmlns="http://www.w3.org/2000/svg" viewBox="-1.5 -1.5 3 3">
<g transform="scale(1, -1)">
<path d="M0.444856 -0.329514 L0.090933 0.163758 L0.114973 0.188364 L-0.024466 0.324593 L-0.350301 0.044693 L-0.321368 -0.024024 L-0.147085 -0.079871 L0.192457 -0.287999 z " fill="rgb(245,195,195)" />
<path d="M-0.578213 -0.687714 L0.421787 -0.687714 L0.421787 0.312286 L-0.578213 0.312286  z" fill="none" stroke="rgb(128,128,128)" stroke-width="0.01" />
<line x1="-0.147085" y1="-0.079871" x2="-0.144712" y2="0.170551" style="stroke:rgb(246,147,147);stroke-width:0.01" />
<line x1="-0.321368" y1="-0.0240237" x2="-0.239358" y2="0.139996" style="stroke:rgb(246,147,147);stroke-width:0.01" />
<line x1="-0.147085" y1="-0.079871" x2="-0.187947" y2="0.184159" style="stroke:rgb(246,147,147);stroke-width:0.01" />
<line x1="-0.147085" y1="-0.079871" x2="0.114973" y2="0.188364" style="stroke:rgb(246,147,147);stroke-width:0.01" />
<line x1="-0.321368" y1="-0.0240237" x2="-0.350301" y2="0.0446932" style="stroke:rgb(246,147,147);stroke-width:0.01" />
<line x1="-0.147085" y1="-0.079871" x2="0.153373" y2="0.0767336" style="stroke:rgb(246,147,147);stroke-width:0.01" />
<line x1="-0.350301" y1="0.0446932" x2="-0.0244664" y2="0.324593" style="stroke:rgb(246,147,147);stroke-width:0.01" />
<line x1="0.192457" y1="-0.287999" x2="-0.144712" y2="0.170551" style="stroke:rgb(246,147,147);stroke-width:0.01" />
<line x1="0.444856" y1="-0.329514" x2="0.192457" y2="-0.287999" style="stroke:rgb(246,147,147);stroke-width:0.01" />
<line x1="0.444856" y1="-0.329514" x2="-0.0244664" y2="0.324593" style="stroke:rgb(246,147,147);stroke-width:0.01" />
<line x1="0.192457" y1="-0.287999" x2="-0.350301" y2="0.0446932" style="stroke:rgb(246,147,147);stroke-width:0.01" />
<line x1="-0.239358" y1="0.139996" x2="-0.144712" y2="0.170551" style="stroke:rgb(246,147,147);stroke-width:0.01" />
<line x1="-0.147085" y1="-0.079871" x2="-0.321368" y2="-0.0240237" style="stroke:rgb(246,147,147);stroke-width:0.01" />
<line x1="0.114973" y1="0.188364" x2="-0.0244664" y2="0.324593" style="stroke:rgb(246,147,147);stroke-width:0.01" />
<line x1="0.153373" y1="0.0767336" x2="-0.187947" y2="0.184159" style="stroke:rgb(246,147,147);stroke-width:0.01" />
</g>
</svg>
