<svg xmlns="http://www.w3.org/2000/svg" viewBox="-1.5 -1.5 3 3">
<g transform="scale(1, -1)">
<path d="M-0.619538 5.981994 L-0.387692 6.136923 L-0.172103 6.199803 L-0.178573 6.536655 L-0.874432 6.789839 L-0.872023 6.901850 L-0.972000 6.904000 L-1.019167 6.842500 L-0.780000 6.022500 L-0.668364 6.055061 z " fill="rgb(245,195,195)" />
<path d="M0.000000 0.000000 L1.000000 0.000000 L1.000000 1.000000 L0.000000 1.000000  z" fill="none" stroke="rgb(128,128,128)" stroke-width="0.01" />
<line x1="-0.172103" y1="6.1998" x2="-0.178573" y2="6.53665" style="stroke:rgb(246,147,147);stroke-width:0.01" />
<line x1="-0.883317" y1="6.37673" x2="-0.872023" y2="6.90185" style="stroke:rgb(246,147,147);stroke-width:0.01" />
<line x1="-0.78" y1="6.0225" x2="-1.01917" y2="6.8425" style="stroke:rgb(246,147,147);stroke-width:0.01" />
<line x1="-0.72" y1="6.04" x2="-0.972" y2="6.904" style="stroke:rgb(246,147,147);stroke-width:0.01" />
<line x1="-0.467261" y1="6.27372" x2="-0.426774" y2="6.43539" style="stroke:rgb(246,147,147);stroke-width:0.01" />
<line x1="-0.619538" y1="5.98199" x2="-0.883317" y2="6.37673" style="stroke:rgb(246,147,147);stroke-width:0.01" />
<line x1="-1.01917" y1="6.8425" x2="-0.972" y2="6.904" style="stroke:rgb(246,147,147);stroke-width:0.01" />
<line x1="-0.619538" y1="5.98199" x2="-0.173642" y2="6.27996" style="stroke:rgb(246,147,147);stroke-width:0.01" />
<line x1="-0.173642" y1="6.27996" x2="-0.426774" y2="6.43539" style="stroke:rgb(246,147,147);stroke-width:0.01" />
<line x1="-0.426774" y1="6.43539" x2="-0.178573" y2="6.53665" style="stroke:rgb(246,147,147);stroke-width:0.01" />
<line x1="-0.178573" y1="6.53665" x2="-1.01917" y2="6.8425" style="stroke:rgb(246,147,147);stroke-width:0.01" />
<line x1="-0.78" y1="6.0225" x2="-0.172103" y2="6.1998" style="stroke:rgb(246,147,147);stroke-width:0.01" />
<line x1="-0.172103" y1="6.1998" x2="-0.467261" y2="6.27372" style="stroke:rgb(246,147,147);stroke-width:0.01" />
<line x1="-0.872023" y1="6.90185" x2="-0.972" y2="6.904" style="stroke:rgb(246,147,147);stroke-width:0.01" />
</g>
</svg>
