<svg xmlns="http://www.w3.org/2000/svg" viewBox="-1.5 -1.5 3 3">
<g transform="scale(1, -1)">
<path d="M0.034852 -0.455118 L0.266697 -0.300189 L0.482287 -0.237309 L0.475816 0.099542 L-0.220043 0.352727 L-0.217634 0.464737 L-0.317611 0.466888 L-0.364778 0.405388 L-0.125611 -0.414612 L-0.013975 -0.382052 z " fill="rgb(245,195,195)" />
<path d="M0.654389 -6.437112 L1.654389 -6.437112 L1.654389 -5.437112 L0.654389 -5.437112  z" fill="none" stroke="rgb(128,128,128)" stroke-width="0.01" />
<line x1="0.482287" y1="-0.237309" x2="0.475816" y2="0.0995422" style="stroke:rgb(246,147,147);stroke-width:0.01" />
<line x1="-0.228928" y1="-0.0603817" x2="-0.217634" y2="0.464737" style="stroke:rgb(246,147,147);stroke-width:0.01" />
<line x1="-0.125611" y1="-0.414612" x2="-0.364778" y2="0.405388" style="stroke:rgb(246,147,147);stroke-width:0.01" />
<line x1="-0.0656109" y1="-0.397112" x2="-0.317611" y2="0.466888" style="stroke:rgb(246,147,147);stroke-width:0.01" />
<line x1="0.187128" y1="-0.163393" x2="0.227615" y2="-0.00171883" style="stroke:rgb(246,147,147);stroke-width:0.01" />
<line x1="0.0348515" y1="-0.455118" x2="-0.228928" y2="-0.0603817" style="stroke:rgb(246,147,147);stroke-width:0.01" />
<line x1="-0.364778" y1="0.405388" x2="-0.317611" y2="0.466888" style="stroke:rgb(246,147,147);stroke-width:0.01" />
<line x1="0.0348515" y1="-0.455118" x2="0.480747" y2="-0.157152" style="stroke:rgb(246,147,147);stroke-width:0.01" />
<line x1="0.480747" y1="-0.157152" x2="0.227615" y2="-0.00171883" style="stroke:rgb(246,147,147);stroke-width:0.01" />
<line x1="0.227615" y1="-0.00171883" x2="0.475816" y2="0.0995422" style="stroke:rgb(246,147,147);stroke-width:0.01" />
<line x1="0.475816" y1="0.0995422" x2="-0.364778" y2="0.405388" style="stroke:rgb(246,147,147);stroke-width:0.01" />
<line x1="-0.125611" y1="-0.414612" x2="0.482287" y2="-0.237309" style="stroke:rgb(246,147,147);stroke-width:0.01" />
<line x1="0.482287" y1="-0.237309" x2="0.187128" y2="-0.163393" style="stroke:rgb(246,147,147);stroke-width:0.01" />
<line x1="-0.217634" y1="0.464737" x2="-0.317611" y2="0.466888" style="stroke:rgb(246,147,147);stroke-width:0.01" />
</g>
</svg>
