<svg xmlns="http://www.w3.org/2000/svg" viewBox="-1.5 -1.5 3 3">
<g transform="scale(1, -1)">
<path d="M-0.052509 -0.241509 L0.039753 -0.190914 L0.033342 -0.155657 L0.185707 -0.003293 L0.347394 -0.106380 L0.299413 0.110414 L-0.418893 0.319920 L-0.434206 0.267420 z " fill="rgb(245,195,195)" />
<path d="M-0.643581 -1.332580 L0.356419 -1.332580 L0.356419 -0.332580 L-0.643581 -0.332580  z" fill="none" stroke="rgb(128,128,128)" stroke-width="0.01" />
<line x1="-0.106081" y1="-0.17008" x2="-0.0513933" y2="0.212732" style="stroke:rgb(246,147,147);stroke-width:0.01" />
<line x1="-0.0742058" y1="0.16242" x2="-0.0513933" y2="0.212732" style="stroke:rgb(246,147,147);stroke-width:0.01" />
<line x1="-0.434206" y1="0.26742" x2="-0.418893" y2="0.31992" style="stroke:rgb(246,147,147);stroke-width:0.01" />
<line x1="0.0397525" y1="-0.190914" x2="-0.0326433" y2="0.207263" style="stroke:rgb(246,147,147);stroke-width:0.01" />
<line x1="-0.0525094" y1="-0.241509" x2="0.299413" y2="0.110414" style="stroke:rgb(246,147,147);stroke-width:0.01" />
<line x1="0.347394" y1="-0.10638" x2="0.299413" y2="0.110414" style="stroke:rgb(246,147,147);stroke-width:0.01" />
<line x1="-0.0742058" y1="0.16242" x2="-0.0982683" y2="0.226404" style="stroke:rgb(246,147,147);stroke-width:0.01" />
<line x1="-0.0742058" y1="0.16242" x2="-0.0326433" y2="0.207263" style="stroke:rgb(246,147,147);stroke-width:0.01" />
<line x1="-0.0525094" y1="-0.241509" x2="0.0397525" y2="-0.190914" style="stroke:rgb(246,147,147);stroke-width:0.01" />
<line x1="-0.0525094" y1="-0.241509" x2="-0.434206" y2="0.26742" style="stroke:rgb(246,147,147);stroke-width:0.01" />
<line x1="-0.293581" y1="0.0799197" x2="-0.0982683" y2="0.226404" style="stroke:rgb(246,147,147);stroke-width:0.01" />
<line x1="0.0397525" y1="-0.190914" x2="-0.106081" y2="-0.17008" style="stroke:rgb(246,147,147);stroke-width:0.01" />
<line x1="0.347394" y1="-0.10638" x2="-0.238893" y2="0.26742" style="stroke:rgb(246,147,147);stroke-width:0.01" />
<line x1="-0.0742058" y1="0.16242" x2="-0.434206" y2="0.26742" style="stroke:rgb(246,147,147);stroke-width:0.01" />
<line x1="0.299413" y1="0.110414" x2="-0.418893" y2="0.31992" style="stroke:rgb(246,147,147);stroke-width:0.01" />
<line x1="-0.434206" y1="0.26742" x2="-0.238893" y2="0.26742" style="stroke:rgb(246,147,147);stroke-width:0.01" />
</g>
</svg>
