<svg xmlns="http://www.w3.org/2000/svg" viewBox="-1.5 -1.5 3 3">
<g transform="scale(1, -1)">
<path d="M-0.269015 -0.397853 L-0.070800 -0.397853 L-0.070800 0.034647 L0.014566 0.015440 L0.012976 0.004923 L0.013324 0.004845 L0.011750 -0.005572 L0.012099 -0.005650 L0.010539 -0.015965 L0.010888 -0.016044 L0.009344 -0.026259 L0.009692 -0.026337 L0.008164 -0.036451 L0.077850 -0.052131 L0.078948 -0.047253 L0.081264 -0.031930 L0.081620 -0.031958 L0.083171 -0.021693 L0.083527 -0.021721 L0.085094 -0.011356 L0.085450 -0.011384 L0.087032 -0.000917 L0.087388 -0.000945 L0.106413 0.124933 L-0.093023 0.324369 L-0.120800 0.302147 L-0.124713 0.284756 L-0.301948 0.063213 z " fill="rgb(245,195,195)" />
<path d="M-1.070800 -0.397853 L-0.070800 -0.397853 L-0.070800 0.602147 L-1.070800 0.602147  z" fill="none" stroke="rgb(128,128,128)" stroke-width="0.01" />
<line x1="0.0778502" y1="-0.0521306" x2="0.0789478" y2="-0.0472525" style="stroke:rgb(246,147,147);stroke-width:0.01" />
<line x1="-0.301948" y1="0.0632126" x2="-0.0930225" y2="0.324369" style="stroke:rgb(246,147,147);stroke-width:0.01" />
<line x1="-0.175678" y1="0.0582445" x2="-0.1208" y2="0.302147" style="stroke:rgb(246,147,147);stroke-width:0.01" />
<line x1="0.0873879" y1="-0.00094535" x2="0.106413" y2="0.124933" style="stroke:rgb(246,147,147);stroke-width:0.01" />
<line x1="0.0854499" y1="-0.0113837" x2="0.1061" y2="0.125246" style="stroke:rgb(246,147,147);stroke-width:0.01" />
<line x1="0.0835272" y1="-0.0217214" x2="0.105788" y2="0.125559" style="stroke:rgb(246,147,147);stroke-width:0.01" />
<line x1="0.0816196" y1="-0.0319584" x2="0.105475" y2="0.125872" style="stroke:rgb(246,147,147);stroke-width:0.01" />
<line x1="0.0789478" y1="-0.0472525" x2="0.105162" y2="0.126185" style="stroke:rgb(246,147,147);stroke-width:0.01" />
<line x1="0.00816379" y1="-0.0364512" x2="0.0422532" y2="0.189094" style="stroke:rgb(246,147,147);stroke-width:0.01" />
<line x1="0.00934404" y1="-0.0262586" x2="0.0419402" y2="0.189407" style="stroke:rgb(246,147,147);stroke-width:0.01" />
<line x1="0.0105395" y1="-0.0159654" x2="0.0416272" y2="0.18972" style="stroke:rgb(246,147,147);stroke-width:0.01" />
<line x1="0.0117502" y1="-0.00557154" x2="0.0413142" y2="0.190032" style="stroke:rgb(246,147,147);stroke-width:0.01" />
<line x1="0.012976" y1="0.00492294" x2="0.0410012" y2="0.190345" style="stroke:rgb(246,147,147);stroke-width:0.01" />
<line x1="-0.269015" y1="-0.397853" x2="-0.19513" y2="-0.387244" style="stroke:rgb(246,147,147);stroke-width:0.01" />
<line x1="-0.269415" y1="-0.387244" x2="-0.196237" y2="-0.376736" style="stroke:rgb(246,147,147);stroke-width:0.01" />
<line x1="-0.269809" y1="-0.376736" x2="-0.197338" y2="-0.36633" style="stroke:rgb(246,147,147);stroke-width:0.01" />
<line x1="0.0789478" y1="-0.0472525" x2="0.0935418" y2="0.137805" style="stroke:rgb(246,147,147);stroke-width:0.01" />
<line x1="-0.270195" y1="-0.36633" x2="-0.198431" y2="-0.356026" style="stroke:rgb(246,147,147);stroke-width:0.01" />
<line x1="-0.270574" y1="-0.356026" x2="-0.199517" y2="-0.345823" style="stroke:rgb(246,147,147);stroke-width:0.01" />
<line x1="-0.271302" y1="-0.345823" x2="-0.200953" y2="-0.335721" style="stroke:rgb(246,147,147);stroke-width:0.01" />
<line x1="-0.1208" y1="0.302147" x2="-0.0930225" y2="0.324369" style="stroke:rgb(246,147,147);stroke-width:0.01" />
<line x1="-0.269015" y1="-0.397853" x2="-0.0708003" y2="-0.397853" style="stroke:rgb(246,147,147);stroke-width:0.01" />
<line x1="-0.0708003" y1="-0.397853" x2="-0.0708003" y2="0.302147" style="stroke:rgb(246,147,147);stroke-width:0.01" />
<line x1="-0.269415" y1="-0.387244" x2="-0.19513" y2="-0.387244" style="stroke:rgb(246,147,147);stroke-width:0.01" />
<line x1="-0.269809" y1="-0.376736" x2="-0.196237" y2="-0.376736" style="stroke:rgb(246,147,147);stroke-width:0.01" />
<line x1="-0.270195" y1="-0.36633" x2="-0.197338" y2="-0.36633" style="stroke:rgb(246,147,147);stroke-width:0.01" />
<line x1="-0.270574" y1="-0.356026" x2="-0.198431" y2="-0.356026" style="stroke:rgb(246,147,147);stroke-width:0.01" />
<line x1="-0.271302" y1="-0.345823" x2="-0.199517" y2="-0.345823" style="stroke:rgb(246,147,147);stroke-width:0.01" />
<line x1="-0.269015" y1="-0.397853" x2="-0.301948" y2="0.0632126" style="stroke:rgb(246,147,147);stroke-width:0.01" />
<line x1="-0.269415" y1="-0.387244" x2="-0.30162" y2="0.0636224" style="stroke:rgb(246,147,147);stroke-width:0.01" />
<line x1="-0.269809" y1="-0.376736" x2="-0.301292" y2="0.0640322" style="stroke:rgb(246,147,147);stroke-width:0.01" />
<line x1="-0.270195" y1="-0.36633" x2="-0.300964" y2="0.0644421" style="stroke:rgb(246,147,147);stroke-width:0.01" />
<line x1="-0.270574" y1="-0.356026" x2="-0.300636" y2="0.0648519" style="stroke:rgb(246,147,147);stroke-width:0.01" />
<line x1="-0.199517" y1="-0.345823" x2="-0.234735" y2="0.147229" style="stroke:rgb(246,147,147);stroke-width:0.01" />
<line x1="-0.198431" y1="-0.356026" x2="-0.234407" y2="0.147639" style="stroke:rgb(246,147,147);stroke-width:0.01" />
<line x1="-0.197338" y1="-0.36633" x2="-0.234079" y2="0.148049" style="stroke:rgb(246,147,147);stroke-width:0.01" />
<line x1="-0.196237" y1="-0.376736" x2="-0.233751" y2="0.148458" style="stroke:rgb(246,147,147);stroke-width:0.01" />
<line x1="-0.19513" y1="-0.387244" x2="-0.233423" y2="0.148868" style="stroke:rgb(246,147,147);stroke-width:0.01" />
<line x1="-0.200953" y1="-0.335721" x2="-0.264887" y2="0.109538" style="stroke:rgb(246,147,147);stroke-width:0.01" />
<line x1="-0.301948" y1="0.0632126" x2="0.106413" y2="0.124933" style="stroke:rgb(246,147,147);stroke-width:0.01" />
<line x1="-0.30162" y1="0.0636224" x2="0.1061" y2="0.125246" style="stroke:rgb(246,147,147);stroke-width:0.01" />
<line x1="-0.301292" y1="0.0640322" x2="0.105788" y2="0.125559" style="stroke:rgb(246,147,147);stroke-width:0.01" />
<line x1="-0.300964" y1="0.0644421" x2="0.105475" y2="0.125872" style="stroke:rgb(246,147,147);stroke-width:0.01" />
<line x1="-0.300636" y1="0.0648519" x2="0.105162" y2="0.126185" style="stroke:rgb(246,147,147);stroke-width:0.01" />
<line x1="-0.234735" y1="0.147229" x2="0.0422532" y2="0.189094" style="stroke:rgb(246,147,147);stroke-width:0.01" />
<line x1="-0.234407" y1="0.147639" x2="0.0419402" y2="0.189407" style="stroke:rgb(246,147,147);stroke-width:0.01" />
<line x1="-0.234079" y1="0.148049" x2="0.0416272" y2="0.18972" style="stroke:rgb(246,147,147);stroke-width:0.01" />
<line x1="-0.233751" y1="0.148458" x2="0.0413142" y2="0.190032" style="stroke:rgb(246,147,147);stroke-width:0.01" />
<line x1="-0.233423" y1="0.148868" x2="0.0410012" y2="0.190345" style="stroke:rgb(246,147,147);stroke-width:0.01" />
<line x1="-0.264887" y1="0.109538" x2="0.0935418" y2="0.137805" style="stroke:rgb(246,147,147);stroke-width:0.01" />
<line x1="0.0797273" y1="-0.0420948" x2="0.00816379" y2="-0.0364512" style="stroke:rgb(246,147,147);stroke-width:0.01" />
<line x1="0.0816196" y1="-0.0319584" x2="0.00934404" y2="-0.0262586" style="stroke:rgb(246,147,147);stroke-width:0.01" />
<line x1="0.0835272" y1="-0.0217214" x2="0.0105395" y2="-0.0159654" style="stroke:rgb(246,147,147);stroke-width:0.01" />
<line x1="0.0854499" y1="-0.0113837" x2="0.0117502" y2="-0.00557154" style="stroke:rgb(246,147,147);stroke-width:0.01" />
<line x1="0.0873879" y1="-0.00094535" x2="0.012976" y2="0.00492294" style="stroke:rgb(246,147,147);stroke-width:0.01" />
<line x1="0.0778502" y1="-0.0521306" x2="0.00816379" y2="-0.0364512" style="stroke:rgb(246,147,147);stroke-width:0.01" />
<line x1="0.0797273" y1="-0.0420948" x2="0.00934404" y2="-0.0262586" style="stroke:rgb(246,147,147);stroke-width:0.01" />
<line x1="0.0816196" y1="-0.0319584" x2="0.0105395" y2="-0.0159654" style="stroke:rgb(246,147,147);stroke-width:0.01" />
<line x1="0.0835272" y1="-0.0217214" x2="0.0117502" y2="-0.00557154" style="stroke:rgb(246,147,147);stroke-width:0.01" />
<line x1="0.0854499" y1="-0.0113837" x2="0.012976" y2="0.00492294" style="stroke:rgb(246,147,147);stroke-width:0.01" />
<line x1="0.0873879" y1="-0.00094535" x2="-0.175678" y2="0.0582445" style="stroke:rgb(246,147,147);stroke-width:0.01" />
<line x1="-0.1208" y1="0.302147" x2="-0.0708003" y2="0.302147" style="stroke:rgb(246,147,147);stroke-width:0.01" />
<line x1="0.106413" y1="0.124933" x2="-0.0930225" y2="0.324369" style="stroke:rgb(246,147,147);stroke-width:0.01" />
</g>
</svg>
