<svg xmlns="http://www.w3.org/2000/svg" viewBox="-1.5 -1.5 3 3">
<g transform="scale(1, -1)">
<path d="M0.801786 0.000000 L1.000000 0.000000 L1.000000 0.432500 L1.085366 0.413293 L1.083776 0.402776 L1.084125 0.402698 L1.082550 0.392281 L1.082899 0.392203 L1.081340 0.381888 L1.081688 0.381809 L1.080144 0.371594 L1.080493 0.371516 L1.078964 0.361402 L1.148650 0.345722 L1.149748 0.350600 L1.152064 0.365923 L1.152420 0.365895 L1.153971 0.376160 L1.154327 0.376132 L1.155894 0.386497 L1.156250 0.386469 L1.157832 0.396936 L1.158188 0.396908 L1.177214 0.522786 L0.977778 0.722222 L0.950000 0.700000 L0.946087 0.682609 L0.768852 0.461066 z " fill="rgb(245,195,195)" />
<path d="M0.000000 0.000000 L1.000000 0.000000 L1.000000 1.000000 L0.000000 1.000000  z" fill="none" stroke="rgb(128,128,128)" stroke-width="0.01" />
<line x1="1.14865" y1="0.345722" x2="1.14975" y2="0.3506" style="stroke:rgb(246,147,147);stroke-width:0.01" />
<line x1="0.768852" y1="0.461066" x2="0.977778" y2="0.722222" style="stroke:rgb(246,147,147);stroke-width:0.01" />
<line x1="0.895122" y1="0.456098" x2="0.95" y2="0.7" style="stroke:rgb(246,147,147);stroke-width:0.01" />
<line x1="1.15819" y1="0.396908" x2="1.17721" y2="0.522786" style="stroke:rgb(246,147,147);stroke-width:0.01" />
<line x1="1.15625" y1="0.386469" x2="1.1769" y2="0.523099" style="stroke:rgb(246,147,147);stroke-width:0.01" />
<line x1="1.15433" y1="0.376132" x2="1.17659" y2="0.523412" style="stroke:rgb(246,147,147);stroke-width:0.01" />
<line x1="1.15242" y1="0.365895" x2="1.17627" y2="0.523725" style="stroke:rgb(246,147,147);stroke-width:0.01" />
<line x1="1.14975" y1="0.3506" x2="1.17596" y2="0.524038" style="stroke:rgb(246,147,147);stroke-width:0.01" />
<line x1="1.07896" y1="0.361402" x2="1.11305" y2="0.586947" style="stroke:rgb(246,147,147);stroke-width:0.01" />
<line x1="1.08014" y1="0.371594" x2="1.11274" y2="0.58726" style="stroke:rgb(246,147,147);stroke-width:0.01" />
<line x1="1.08134" y1="0.381888" x2="1.11243" y2="0.587573" style="stroke:rgb(246,147,147);stroke-width:0.01" />
<line x1="1.08255" y1="0.392281" x2="1.11211" y2="0.587885" style="stroke:rgb(246,147,147);stroke-width:0.01" />
<line x1="1.08378" y1="0.402776" x2="1.1118" y2="0.588198" style="stroke:rgb(246,147,147);stroke-width:0.01" />
<line x1="0.801786" y1="0" x2="0.875671" y2="0.0106091" style="stroke:rgb(246,147,147);stroke-width:0.01" />
<line x1="0.801385" y1="0.0106091" x2="0.874563" y2="0.0211168" style="stroke:rgb(246,147,147);stroke-width:0.01" />
<line x1="0.800992" y1="0.0211168" x2="0.873463" y2="0.0315228" style="stroke:rgb(246,147,147);stroke-width:0.01" />
<line x1="1.14975" y1="0.3506" x2="1.16434" y2="0.535658" style="stroke:rgb(246,147,147);stroke-width:0.01" />
<line x1="0.800606" y1="0.0315228" x2="0.872369" y2="0.0418274" style="stroke:rgb(246,147,147);stroke-width:0.01" />
<line x1="0.800227" y1="0.0418274" x2="0.871284" y2="0.0520305" style="stroke:rgb(246,147,147);stroke-width:0.01" />
<line x1="0.799498" y1="0.0520305" x2="0.869848" y2="0.062132" style="stroke:rgb(246,147,147);stroke-width:0.01" />
<line x1="0.95" y1="0.7" x2="0.977778" y2="0.722222" style="stroke:rgb(246,147,147);stroke-width:0.01" />
<line x1="0.801786" y1="0" x2="1" y2="0" style="stroke:rgb(246,147,147);stroke-width:0.01" />
<line x1="1" y1="0" x2="1" y2="0.7" style="stroke:rgb(246,147,147);stroke-width:0.01" />
<line x1="0.801385" y1="0.0106091" x2="0.875671" y2="0.0106091" style="stroke:rgb(246,147,147);stroke-width:0.01" />
<line x1="0.800992" y1="0.0211168" x2="0.874563" y2="0.0211168" style="stroke:rgb(246,147,147);stroke-width:0.01" />
<line x1="0.800606" y1="0.0315228" x2="0.873463" y2="0.0315228" style="stroke:rgb(246,147,147);stroke-width:0.01" />
<line x1="0.800227" y1="0.0418274" x2="0.872369" y2="0.0418274" style="stroke:rgb(246,147,147);stroke-width:0.01" />
<line x1="0.799498" y1="0.0520305" x2="0.871284" y2="0.0520305" style="stroke:rgb(246,147,147);stroke-width:0.01" />
<line x1="0.801786" y1="0" x2="0.768852" y2="0.461066" style="stroke:rgb(246,147,147);stroke-width:0.01" />
<line x1="0.801385" y1="0.0106091" x2="0.76918" y2="0.461475" style="stroke:rgb(246,147,147);stroke-width:0.01" />
<line x1="0.800992" y1="0.0211168" x2="0.769508" y2="0.461885" style="stroke:rgb(246,147,147);stroke-width:0.01" />
<line x1="0.800606" y1="0.0315228" x2="0.769836" y2="0.462295" style="stroke:rgb(246,147,147);stroke-width:0.01" />
<line x1="0.800227" y1="0.0418274" x2="0.770164" y2="0.462705" style="stroke:rgb(246,147,147);stroke-width:0.01" />
<line x1="0.871284" y1="0.0520305" x2="0.836066" y2="0.545082" style="stroke:rgb(246,147,147);stroke-width:0.01" />
<line x1="0.872369" y1="0.0418274" x2="0.836393" y2="0.545492" style="stroke:rgb(246,147,147);stroke-width:0.01" />
<line x1="0.873463" y1="0.0315228" x2="0.836721" y2="0.545902" style="stroke:rgb(246,147,147);stroke-width:0.01" />
<line x1="0.874563" y1="0.0211168" x2="0.837049" y2="0.546311" style="stroke:rgb(246,147,147);stroke-width:0.01" />
<line x1="0.875671" y1="0.0106091" x2="0.837377" y2="0.546721" style="stroke:rgb(246,147,147);stroke-width:0.01" />
<line x1="0.869848" y1="0.062132" x2="0.805913" y2="0.507391" style="stroke:rgb(246,147,147);stroke-width:0.01" />
<line x1="0.768852" y1="0.461066" x2="1.17721" y2="0.522786" style="stroke:rgb(246,147,147);stroke-width:0.01" />
<line x1="0.76918" y1="0.461475" x2="1.1769" y2="0.523099" style="stroke:rgb(246,147,147);stroke-width:0.01" />
<line x1="0.769508" y1="0.461885" x2="1.17659" y2="0.523412" style="stroke:rgb(246,147,147);stroke-width:0.01" />
<line x1="0.769836" y1="0.462295" x2="1.17627" y2="0.523725" style="stroke:rgb(246,147,147);stroke-width:0.01" />
<line x1="0.770164" y1="0.462705" x2="1.17596" y2="0.524038" style="stroke:rgb(246,147,147);stroke-width:0.01" />
<line x1="0.836066" y1="0.545082" x2="1.11305" y2="0.586947" style="stroke:rgb(246,147,147);stroke-width:0.01" />
<line x1="0.836393" y1="0.545492" x2="1.11274" y2="0.58726" style="stroke:rgb(246,147,147);stroke-width:0.01" />
<line x1="0.836721" y1="0.545902" x2="1.11243" y2="0.587573" style="stroke:rgb(246,147,147);stroke-width:0.01" />
<line x1="0.837049" y1="0.546311" x2="1.11211" y2="0.587885" style="stroke:rgb(246,147,147);stroke-width:0.01" />
<line x1="0.837377" y1="0.546721" x2="1.1118" y2="0.588198" style="stroke:rgb(246,147,147);stroke-width:0.01" />
<line x1="0.805913" y1="0.507391" x2="1.16434" y2="0.535658" style="stroke:rgb(246,147,147);stroke-width:0.01" />
<line x1="1.15053" y1="0.355758" x2="1.07896" y2="0.361402" style="stroke:rgb(246,147,147);stroke-width:0.01" />
<line x1="1.15242" y1="0.365895" x2="1.08014" y2="0.371594" style="stroke:rgb(246,147,147);stroke-width:0.01" />
<line x1="1.15433" y1="0.376132" x2="1.08134" y2="0.381888" style="stroke:rgb(246,147,147);stroke-width:0.01" />
<line x1="1.15625" y1="0.386469" x2="1.08255" y2="0.392281" style="stroke:rgb(246,147,147);stroke-width:0.01" />
<line x1="1.15819" y1="0.396908" x2="1.08378" y2="0.402776" style="stroke:rgb(246,147,147);stroke-width:0.01" />
<line x1="1.14865" y1="0.345722" x2="1.07896" y2="0.361402" style="stroke:rgb(246,147,147);stroke-width:0.01" />
<line x1="1.15053" y1="0.355758" x2="1.08014" y2="0.371594" style="stroke:rgb(246,147,147);stroke-width:0.01" />
<line x1="1.15242" y1="0.365895" x2="1.08134" y2="0.381888" style="stroke:rgb(246,147,147);stroke-width:0.01" />
<line x1="1.15433" y1="0.376132" x2="1.08255" y2="0.392281" style="stroke:rgb(246,147,147);stroke-width:0.01" />
<line x1="1.15625" y1="0.386469" x2="1.08378" y2="0.402776" style="stroke:rgb(246,147,147);stroke-width:0.01" />
<line x1="1.15819" y1="0.396908" x2="0.895122" y2="0.456098" style="stroke:rgb(246,147,147);stroke-width:0.01" />
<line x1="0.95" y1="0.7" x2="1" y2="0.7" style="stroke:rgb(246,147,147);stroke-width:0.01" />
<line x1="1.17721" y1="0.522786" x2="0.977778" y2="0.722222" style="stroke:rgb(246,147,147);stroke-width:0.01" />
</g>
</svg>
