<svg xmlns="http://www.w3.org/2000/svg" viewBox="-1.5 -1.5 3 3">
<g transform="scale(1, -1)">
<path d="M-0.024796 -0.304628 L0.056091 -0.035368 L0.122161 -0.098292 L0.325001 0.114690 L0.143966 0.287104 L-0.218610 0.226252 L-0.292706 0.082955 L-0.143559 -0.268951 z M0.035319 -0.015585 L-0.006113 -0.003139 L0.003246 0.014961 z " fill="rgb(245,195,195)" />
<path d="M0.325001 0.114690 L1.325001 0.114690 L1.325001 1.114690 L0.325001 1.114690  z" fill="none" stroke="rgb(128,128,128)" stroke-width="0.01" />
<line x1="-0.0247958" y1="-0.304628" x2="-0.143559" y2="-0.268951" style="stroke:rgb(246,147,147);stroke-width:0.01" />
<line x1="-0.00787213" y1="-0.248291" x2="-0.173389" y2="-0.19857" style="stroke:rgb(246,147,147);stroke-width:0.01" />
<line x1="-0.143559" y1="-0.268951" x2="-0.292706" y2="0.0829549" style="stroke:rgb(246,147,147);stroke-width:0.01" />
<line x1="0.122161" y1="-0.0982916" x2="-0.21861" y2="0.226252" style="stroke:rgb(246,147,147);stroke-width:0.01" />
<line x1="0.0598224" y1="-0.0229456" x2="-0.292706" y2="0.0829549" style="stroke:rgb(246,147,147);stroke-width:0.01" />
<line x1="0.284433" y1="0.0720938" x2="0.071451" y2="0.274934" style="stroke:rgb(246,147,147);stroke-width:0.01" />
<line x1="0.325001" y1="0.11469" x2="0.143966" y2="0.287104" style="stroke:rgb(246,147,147);stroke-width:0.01" />
<line x1="0.325001" y1="0.11469" x2="0.143966" y2="0.287104" style="stroke:rgb(246,147,147);stroke-width:0.01" />
<line x1="0.325001" y1="0.11469" x2="0.325001" y2="0.11469" style="stroke:rgb(246,147,147);stroke-width:0.01" />
<line x1="0.122161" y1="-0.0982916" x2="0.325001" y2="0.11469" style="stroke:rgb(246,147,147);stroke-width:0.01" />
<line x1="-0.0247958" y1="-0.304628" x2="0.0598224" y2="-0.0229456" style="stroke:rgb(246,147,147);stroke-width:0.01" />
<line x1="-0.143559" y1="-0.268951" x2="0.143966" y2="0.287104" style="stroke:rgb(246,147,147);stroke-width:0.01" />
<line x1="-0.173389" y1="-0.19857" x2="0.071451" y2="0.274934" style="stroke:rgb(246,147,147);stroke-width:0.01" />
<line x1="-0.21861" y1="0.226252" x2="0.143966" y2="0.287104" style="stroke:rgb(246,147,147);stroke-width:0.01" />
<line x1="-0.292706" y1="0.0829549" x2="-0.21861" y2="0.226252" style="stroke:rgb(246,147,147);stroke-width:0.01" />
</g>
</svg>
