<svg xmlns="http://www.w3.org/2000/svg" viewBox="-1.5 -1.5 3 3">
<g transform="scale(1, -1)">
<path d="M-0.349796 -0.419318 L-0.268910 -0.150058 L-0.202840 -0.212982 L-0.000000 -0.000000 L-0.181034 0.172414 L-0.543611 0.111562 L-0.617707 -0.031735 L-0.468560 -0.383641 z M-0.289682 -0.130275 L-0.331113 -0.117829 L-0.321755 -0.099730 z " fill="rgb(245,195,195)" />
<path d="M0.000000 0.000000 L1.000000 0.000000 L1.000000 1.000000 L0.000000 1.000000  z" fill="none" stroke="rgb(128,128,128)" stroke-width="0.01" />
<line x1="-0.349796" y1="-0.419318" x2="-0.46856" y2="-0.383641" style="stroke:rgb(246,147,147);stroke-width:0.01" />
<line x1="-0.332873" y1="-0.362982" x2="-0.498389" y2="-0.31326" style="stroke:rgb(246,147,147);stroke-width:0.01" />
<line x1="-0.46856" y1="-0.383641" x2="-0.617707" y2="-0.0317352" style="stroke:rgb(246,147,147);stroke-width:0.01" />
<line x1="-0.20284" y1="-0.212982" x2="-0.543611" y2="0.111562" style="stroke:rgb(246,147,147);stroke-width:0.01" />
<line x1="-0.265178" y1="-0.137636" x2="-0.617707" y2="-0.0317352" style="stroke:rgb(246,147,147);stroke-width:0.01" />
<line x1="-0.040568" y1="-0.0425963" x2="-0.25355" y2="0.160243" style="stroke:rgb(246,147,147);stroke-width:0.01" />
<line x1="-8.44888e-22" y1="-8.87132e-22" x2="-0.181034" y2="0.172414" style="stroke:rgb(246,147,147);stroke-width:0.01" />
<line x1="-4.22444e-22" y1="-4.43566e-22" x2="-0.181034" y2="0.172414" style="stroke:rgb(246,147,147);stroke-width:0.01" />
<line x1="-8.44888e-22" y1="-8.87132e-22" x2="-4.22444e-22" y2="-4.43566e-22" style="stroke:rgb(246,147,147);stroke-width:0.01" />
<line x1="-0.20284" y1="-0.212982" x2="-4.22444e-22" y2="-4.43566e-22" style="stroke:rgb(246,147,147);stroke-width:0.01" />
<line x1="-0.349796" y1="-0.419318" x2="-0.265178" y2="-0.137636" style="stroke:rgb(246,147,147);stroke-width:0.01" />
<line x1="-0.46856" y1="-0.383641" x2="-0.181034" y2="0.172414" style="stroke:rgb(246,147,147);stroke-width:0.01" />
<line x1="-0.498389" y1="-0.31326" x2="-0.25355" y2="0.160243" style="stroke:rgb(246,147,147);stroke-width:0.01" />
<line x1="-0.543611" y1="0.111562" x2="-0.181034" y2="0.172414" style="stroke:rgb(246,147,147);stroke-width:0.01" />
<line x1="-0.617707" y1="-0.0317352" x2="-0.543611" y2="0.111562" style="stroke:rgb(246,147,147);stroke-width:0.01" />
</g>
</svg>
