<svg xmlns="http://www.w3.org/2000/svg" viewBox="-1.5 -1.5 3 3">
<g transform="scale(1, -1)">
<path d="M0.408334 -0.679557 L0.454778 0.319363 L0.447006 0.319725 L-0.174161 0.334157 L-0.545369 0.339425 L-0.590587 -0.633113 z " fill="rgb(245,195,195)" />
<path d="M-0.545214 0.319725 L0.454786 0.319725 L0.454786 1.319725 L-0.545214 1.319725  z" fill="none" stroke="rgb(128,128,128)" stroke-width="0.01" />
<line x1="0.408334" y1="-0.679557" x2="-0.590587" y2="-0.633113" style="stroke:rgb(246,147,147);stroke-width:0.01" />
<line x1="0.408334" y1="-0.679557" x2="0.454778" y2="0.319363" style="stroke:rgb(246,147,147);stroke-width:0.01" />
<line x1="-0.544892" y1="0.313018" x2="0.175202" y2="0.32604" style="stroke:rgb(246,147,147);stroke-width:0.01" />
<line x1="0.272913" y1="0.319725" x2="0.447006" y2="0.319725" style="stroke:rgb(246,147,147);stroke-width:0.01" />
<line x1="-0.544892" y1="0.313018" x2="-0.545369" y2="0.339425" style="stroke:rgb(246,147,147);stroke-width:0.01" />
<line x1="-0.590587" y1="-0.633113" x2="-0.545369" y2="0.339425" style="stroke:rgb(246,147,147);stroke-width:0.01" />
<line x1="-0.174161" y1="0.334157" x2="-0.545369" y2="0.339425" style="stroke:rgb(246,147,147);stroke-width:0.01" />
<line x1="0.447006" y1="0.319725" x2="-0.174161" y2="0.334157" style="stroke:rgb(246,147,147);stroke-width:0.01" />
<line x1="0.272913" y1="0.319725" x2="-0.174161" y2="0.334157" style="stroke:rgb(246,147,147);stroke-width:0.01" />
<line x1="0.454778" y1="0.319363" x2="0.447006" y2="0.319725" style="stroke:rgb(246,147,147);stroke-width:0.01" />
<line x1="0.272913" y1="0.319725" x2="0.175202" y2="0.32604" style="stroke:rgb(246,147,147);stroke-width:0.01" />
</g>
</svg>
