<svg xmlns="http://www.w3.org/2000/svg" viewBox="-1.5 -1.5 3 3">
<g transform="scale(1, -1)">
<path d="M0.953547 -0.999282 L0.999992 -0.000361 L0.992220 0.000000 L0.371052 0.014433 L-0.000156 0.019700 L-0.045374 -0.952838 z " fill="rgb(245,195,195)" />
<path d="M0.000000 0.000000 L1.000000 0.000000 L1.000000 1.000000 L0.000000 1.000000  z" fill="none" stroke="rgb(128,128,128)" stroke-width="0.01" />
<line x1="0.953547" y1="-0.999282" x2="-0.0453736" y2="-0.952838" style="stroke:rgb(246,147,147);stroke-width:0.01" />
<line x1="0.953547" y1="-0.999282" x2="0.999992" y2="-0.000361339" style="stroke:rgb(246,147,147);stroke-width:0.01" />
<line x1="0.000321601" y1="-0.00670639" x2="0.720416" y2="0.00631529" style="stroke:rgb(246,147,147);stroke-width:0.01" />
<line x1="0.818127" y1="0" x2="0.99222" y2="0" style="stroke:rgb(246,147,147);stroke-width:0.01" />
<line x1="0.000321601" y1="-0.00670639" x2="-0.000155921" y2="0.0197004" style="stroke:rgb(246,147,147);stroke-width:0.01" />
<line x1="-0.0453736" y1="-0.952838" x2="-0.000155921" y2="0.0197004" style="stroke:rgb(246,147,147);stroke-width:0.01" />
<line x1="0.371052" y1="0.0144327" x2="-0.000155921" y2="0.0197004" style="stroke:rgb(246,147,147);stroke-width:0.01" />
<line x1="0.99222" y1="0" x2="0.371052" y2="0.0144327" style="stroke:rgb(246,147,147);stroke-width:0.01" />
<line x1="0.818127" y1="0" x2="0.371052" y2="0.0144327" style="stroke:rgb(246,147,147);stroke-width:0.01" />
<line x1="0.999992" y1="-0.000361339" x2="0.99222" y2="0" style="stroke:rgb(246,147,147);stroke-width:0.01" />
<line x1="0.818127" y1="0" x2="0.720416" y2="0.00631529" style="stroke:rgb(246,147,147);stroke-width:0.01" />
</g>
</svg>
