<svg xmlns="http://www.w3.org/2000/svg" viewBox="-1.5 -1.5 3 3">
<g transform="scale(1, -1)">
<path d="M0.309475 0.000000 L1.000000 0.000000 L1.000000 0.117116 L0.870421 1.000000 L0.000000 1.000000 L0.000000 0.647485 z " fill="rgb(245,195,195)" />
<path d="M0.000000 0.000000 L1.000000 0.000000 L1.000000 1.000000 L0.000000 1.000000  z" fill="none" stroke="rgb(128,128,128)" stroke-width="0.01" />
<line x1="0.309475" y1="0" x2="0.503846" y2="0.24082" style="stroke:rgb(246,147,147);stroke-width:0.01" />
<line x1="0.309475" y1="0" x2="1" y2="0" style="stroke:rgb(246,147,147);stroke-width:0.01" />
<line x1="0" y1="0.647485" x2="0" y2="1" style="stroke:rgb(246,147,147);stroke-width:0.01" />
<line x1="1" y1="0" x2="1" y2="0.117116" style="stroke:rgb(246,147,147);stroke-width:0.01" />
<line x1="0.309475" y1="0" x2="0" y2="0.647485" style="stroke:rgb(246,147,147);stroke-width:0.01" />
<line x1="1" y1="0.117116" x2="0.870421" y2="1" style="stroke:rgb(246,147,147);stroke-width:0.01" />
<line x1="1" y1="0.117116" x2="0.746307" y2="0.962766" style="stroke:rgb(246,147,147);stroke-width:0.01" />
<line x1="0.503846" y1="0.24082" x2="0" y2="0.647485" style="stroke:rgb(246,147,147);stroke-width:0.01" />
<line x1="0.746307" y1="0.962766" x2="0.870421" y2="1" style="stroke:rgb(246,147,147);stroke-width:0.01" />
<line x1="0" y1="1" x2="0.870421" y2="1" style="stroke:rgb(246,147,147);stroke-width:0.01" />
</g>
</svg>
