<svg xmlns="http://www.w3.org/2000/svg" viewBox="-1.5 -1.5 3 3">
<g transform="scale(1, -1)">
<path d="M0.674751 -0.027789 L0.677522 0.000000 L1.000000 0.000000 L1.000000 1.000000 L0.382160 1.000000 L0.340645 0.000000 z " fill="rgb(245,195,195)" />
<path d="M0.000000 0.000000 L1.000000 0.000000 L1.000000 1.000000 L0.000000 1.000000  z" fill="none" stroke="rgb(128,128,128)" stroke-width="0.01" />
<line x1="0.669402" y1="-0.0271666" x2="0.707303" y2="0.298611" style="stroke:rgb(246,147,147);stroke-width:0.01" />
<line x1="0.674751" y1="-0.0277889" x2="0.707303" y2="0.298611" style="stroke:rgb(246,147,147);stroke-width:0.01" />
<line x1="0.707303" y1="0.298611" x2="0.763005" y2="0.968324" style="stroke:rgb(246,147,147);stroke-width:0.01" />
<line x1="0.340645" y1="0" x2="0.38216" y2="1" style="stroke:rgb(246,147,147);stroke-width:0.01" />
<line x1="0.340645" y1="0" x2="1" y2="0" style="stroke:rgb(246,147,147);stroke-width:0.01" />
<line x1="1" y1="0" x2="1" y2="1" style="stroke:rgb(246,147,147);stroke-width:0.01" />
<line x1="0.674751" y1="-0.0277889" x2="0.340645" y2="0" style="stroke:rgb(246,147,147);stroke-width:0.01" />
<line x1="0.674751" y1="-0.0277889" x2="0.669402" y2="-0.0271666" style="stroke:rgb(246,147,147);stroke-width:0.01" />
<line x1="0.38216" y1="1" x2="1" y2="1" style="stroke:rgb(246,147,147);stroke-width:0.01" />
<line x1="0.763005" y1="0.968324" x2="0.38216" y2="1" style="stroke:rgb(246,147,147);stroke-width:0.01" />
</g>
</svg>
