<svg xmlns="http://www.w3.org/2000/svg" viewBox="-1.5 -1.5 3 3">
<g transform="scale(1, -1)">
<path d="M-0.004429 -0.356491 L-0.001657 -0.328702 L0.320820 -0.328702 L0.320820 0.671298 L-0.297020 0.671298 L-0.338535 -0.328702 z " fill="rgb(245,195,195)" />
<path d="M-0.679180 -0.328702 L0.320820 -0.328702 L0.320820 0.671298 L-0.679180 0.671298  z" fill="none" stroke="rgb(128,128,128)" stroke-width="0.01" />
<line x1="-0.00977772" y1="-0.355868" x2="0.0281228" y2="-0.0300907" style="stroke:rgb(246,147,147);stroke-width:0.01" />
<line x1="-0.00442874" y1="-0.356491" x2="0.0281228" y2="-0.0300907" style="stroke:rgb(246,147,147);stroke-width:0.01" />
<line x1="0.0281228" y1="-0.0300907" x2="0.0838254" y2="0.639622" style="stroke:rgb(246,147,147);stroke-width:0.01" />
<line x1="-0.338535" y1="-0.328702" x2="-0.29702" y2="0.671298" style="stroke:rgb(246,147,147);stroke-width:0.01" />
<line x1="-0.338535" y1="-0.328702" x2="0.32082" y2="-0.328702" style="stroke:rgb(246,147,147);stroke-width:0.01" />
<line x1="0.32082" y1="-0.328702" x2="0.32082" y2="0.671298" style="stroke:rgb(246,147,147);stroke-width:0.01" />
<line x1="-0.00442874" y1="-0.356491" x2="-0.338535" y2="-0.328702" style="stroke:rgb(246,147,147);stroke-width:0.01" />
<line x1="-0.00442874" y1="-0.356491" x2="-0.00977772" y2="-0.355868" style="stroke:rgb(246,147,147);stroke-width:0.01" />
<line x1="-0.29702" y1="0.671298" x2="0.32082" y2="0.671298" style="stroke:rgb(246,147,147);stroke-width:0.01" />
<line x1="0.0838254" y1="0.639622" x2="-0.29702" y2="0.671298" style="stroke:rgb(246,147,147);stroke-width:0.01" />
</g>
</svg>
