<svg xmlns="http://www.w3.org/2000/svg" viewBox="-1.5 -1.5 3 3">
<g transform="scale(1, -1)">
<path d="M-0.068470 -0.532266 L0.422573 -0.367252 L0.104030 0.580657 L-0.009691 0.542441 L-0.448443 -0.223579 z " fill="rgb(245,195,195)" />
<path d="M-1.228320 -0.809935 L-0.228320 -0.809935 L-0.228320 0.190065 L-1.228320 0.190065  z" fill="none" stroke="rgb(128,128,128)" stroke-width="0.01" />
<line x1="-0.448443" y1="-0.223579" x2="-0.00969079" y2="0.542441" style="stroke:rgb(246,147,147);stroke-width:0.01" />
<line x1="-0.0684698" y1="-0.532266" x2="-0.0117771" y2="-0.0536405" style="stroke:rgb(246,147,147);stroke-width:0.01" />
<line x1="-0.0684698" y1="-0.532266" x2="0.422573" y2="-0.367252" style="stroke:rgb(246,147,147);stroke-width:0.01" />
<line x1="-0.448443" y1="-0.223579" x2="-0.22832" y2="-0.0279913" style="stroke:rgb(246,147,147);stroke-width:0.01" />
<line x1="-0.22832" y1="-0.402405" x2="-0.22832" y2="-0.0279913" style="stroke:rgb(246,147,147);stroke-width:0.01" />
<line x1="-0.22832" y1="-0.402405" x2="0.170569" y2="-0.31893" style="stroke:rgb(246,147,147);stroke-width:0.01" />
<line x1="0.170569" y1="-0.31893" x2="-0.00969079" y2="0.542441" style="stroke:rgb(246,147,147);stroke-width:0.01" />
<line x1="0.422573" y1="-0.367252" x2="0.10403" y2="0.580657" style="stroke:rgb(246,147,147);stroke-width:0.01" />
<line x1="-0.0684698" y1="-0.532266" x2="-0.448443" y2="-0.223579" style="stroke:rgb(246,147,147);stroke-width:0.01" />
<line x1="-0.00969079" y1="0.542441" x2="0.10403" y2="0.580657" style="stroke:rgb(246,147,147);stroke-width:0.01" />
<line x1="-0.0117771" y1="-0.0536405" x2="-0.22832" y2="-0.0279913" style="stroke:rgb(246,147,147);stroke-width:0.01" />
</g>
</svg>
