<svg xmlns="http://www.w3.org/2000/svg" viewBox="-1.5 -1.5 3 3">
<g transform="scale(1, -1)">
<path d="M-0.264365 -0.741085 L0.281953 -0.557062 L0.222939 0.326663 L0.056190 0.503408 L0.054303 0.503155 L0.055055 0.497554 L-0.052416 -0.056644 L-0.353659 -0.475989 z " fill="rgb(245,195,195)" />
<path d="M-0.633390 -0.475989 L0.366610 -0.475989 L0.366610 0.524011 L-0.633390 0.524011  z" fill="none" stroke="rgb(128,128,128)" stroke-width="0.01" />
<line x1="-0.264365" y1="-0.741085" x2="0.281953" y2="-0.557062" style="stroke:rgb(246,147,147);stroke-width:0.01" />
<line x1="-0.353659" y1="-0.475989" x2="0.222939" y2="0.326663" style="stroke:rgb(246,147,147);stroke-width:0.01" />
<line x1="0.187268" y1="-0.487966" x2="0.276539" y2="-0.475989" style="stroke:rgb(246,147,147);stroke-width:0.01" />
<line x1="-0.133822" y1="-0.476434" x2="0.0561899" y2="0.503408" style="stroke:rgb(246,147,147);stroke-width:0.01" />
<line x1="-0.353659" y1="-0.475989" x2="0.276539" y2="-0.475989" style="stroke:rgb(246,147,147);stroke-width:0.01" />
<line x1="0.281953" y1="-0.557062" x2="0.222939" y2="0.326663" style="stroke:rgb(246,147,147);stroke-width:0.01" />
<line x1="-0.264365" y1="-0.741085" x2="-0.353659" y2="-0.475989" style="stroke:rgb(246,147,147);stroke-width:0.01" />
<line x1="0.281953" y1="-0.557062" x2="-0.133822" y2="-0.476434" style="stroke:rgb(246,147,147);stroke-width:0.01" />
<line x1="0.187268" y1="-0.487966" x2="0.0543032" y2="0.503155" style="stroke:rgb(246,147,147);stroke-width:0.01" />
<line x1="0.222939" y1="0.326663" x2="0.0561899" y2="0.503408" style="stroke:rgb(246,147,147);stroke-width:0.01" />
<line x1="0.0543032" y1="0.503155" x2="0.0561899" y2="0.503408" style="stroke:rgb(246,147,147);stroke-width:0.01" />
</g>
</svg>
