<svg xmlns="http://www.w3.org/2000/svg" viewBox="-1.5 -1.5 3 3">
<g transform="scale(1, -1)">
<path d="M0.369025 -0.265095 L0.915343 -0.081073 L0.856329 0.802653 L0.689580 0.979398 L0.687693 0.979144 L0.688444 0.973543 L0.580974 0.419345 L0.279730 0.000000 z " fill="rgb(245,195,195)" />
<path d="M0.000000 0.000000 L1.000000 0.000000 L1.000000 1.000000 L0.000000 1.000000  z" fill="none" stroke="rgb(128,128,128)" stroke-width="0.01" />
<line x1="0.369025" y1="-0.265095" x2="0.915343" y2="-0.0810729" style="stroke:rgb(246,147,147);stroke-width:0.01" />
<line x1="0.27973" y1="0" x2="0.856329" y2="0.802653" style="stroke:rgb(246,147,147);stroke-width:0.01" />
<line x1="0.820658" y1="-0.0119763" x2="0.909929" y2="0" style="stroke:rgb(246,147,147);stroke-width:0.01" />
<line x1="0.499567" y1="-0.000445102" x2="0.68958" y2="0.979398" style="stroke:rgb(246,147,147);stroke-width:0.01" />
<line x1="0.27973" y1="0" x2="0.909929" y2="0" style="stroke:rgb(246,147,147);stroke-width:0.01" />
<line x1="0.915343" y1="-0.0810729" x2="0.856329" y2="0.802653" style="stroke:rgb(246,147,147);stroke-width:0.01" />
<line x1="0.369025" y1="-0.265095" x2="0.27973" y2="0" style="stroke:rgb(246,147,147);stroke-width:0.01" />
<line x1="0.915343" y1="-0.0810729" x2="0.499567" y2="-0.000445102" style="stroke:rgb(246,147,147);stroke-width:0.01" />
<line x1="0.820658" y1="-0.0119763" x2="0.687693" y2="0.979144" style="stroke:rgb(246,147,147);stroke-width:0.01" />
<line x1="0.856329" y1="0.802653" x2="0.68958" y2="0.979398" style="stroke:rgb(246,147,147);stroke-width:0.01" />
<line x1="0.687693" y1="0.979144" x2="0.68958" y2="0.979398" style="stroke:rgb(246,147,147);stroke-width:0.01" />
</g>
</svg>
