<svg xmlns="http://www.w3.org/2000/svg" viewBox="-1.5 -1.5 3 3">
<g transform="scale(1, -1)">
<path d="M-0.536153 -0.717866 L0.266652 -0.648276 L0.328151 0.360804 L0.283366 0.370266 L0.280495 0.356673 L-0.622511 0.278399 z " fill="rgb(245,195,195)" />
<path d="M-0.729805 -0.628358 L0.270195 -0.628358 L0.270195 0.371642 L-0.729805 0.371642  z" fill="none" stroke="rgb(128,128,128)" stroke-width="0.01" />
<line x1="0.270195" y1="0.30792" x2="0.283366" y2="0.370266" style="stroke:rgb(246,147,147);stroke-width:0.01" />
<line x1="0.265554" y1="-0.628075" x2="0.270195" y2="-0.590148" style="stroke:rgb(246,147,147);stroke-width:0.01" />
<line x1="-0.536153" y1="-0.717866" x2="0.266652" y2="-0.648276" style="stroke:rgb(246,147,147);stroke-width:0.01" />
<line x1="0.172371" y1="-0.628358" x2="0.270195" y2="0.30792" style="stroke:rgb(246,147,147);stroke-width:0.01" />
<line x1="0.266652" y1="-0.648276" x2="0.328151" y2="0.360804" style="stroke:rgb(246,147,147);stroke-width:0.01" />
<line x1="0.172371" y1="-0.628358" x2="0.267866" y2="-0.628358" style="stroke:rgb(246,147,147);stroke-width:0.01" />
<line x1="0.270195" y1="-0.590148" x2="0.270195" y2="0.30792" style="stroke:rgb(246,147,147);stroke-width:0.01" />
<line x1="-0.536153" y1="-0.717866" x2="-0.622511" y2="0.278399" style="stroke:rgb(246,147,147);stroke-width:0.01" />
<line x1="0.267866" y1="-0.628358" x2="0.265554" y2="-0.628075" style="stroke:rgb(246,147,147);stroke-width:0.01" />
<line x1="0.266652" y1="-0.648276" x2="0.172371" y2="-0.628358" style="stroke:rgb(246,147,147);stroke-width:0.01" />
<line x1="-0.622511" y1="0.278399" x2="0.328151" y2="0.360804" style="stroke:rgb(246,147,147);stroke-width:0.01" />
<line x1="0.328151" y1="0.360804" x2="0.283366" y2="0.370266" style="stroke:rgb(246,147,147);stroke-width:0.01" />
</g>
</svg>
