<svg xmlns="http://www.w3.org/2000/svg" viewBox="-1.5 -1.5 3 3">
<g transform="scale(1, -1)">
<path d="M0.021120 -0.764327 L0.652962 0.010771 L0.401532 0.215730 L-0.167371 0.418230 L-0.274083 0.281600 L-0.274083 0.215730 L-0.171596 0.215730 L-0.188480 -0.593465 z " fill="rgb(245,195,195)" />
<path d="M-0.274083 0.215730 L0.725917 0.215730 L0.725917 1.215730 L-0.274083 1.215730  z" fill="none" stroke="rgb(128,128,128)" stroke-width="0.01" />
<line x1="-0.18848" y1="-0.593465" x2="0.395753" y2="-0.156474" style="stroke:rgb(246,147,147);stroke-width:0.01" />
<line x1="0.02112" y1="-0.764327" x2="0.652962" y2="0.0107705" style="stroke:rgb(246,147,147);stroke-width:0.01" />
<line x1="0.02112" y1="-0.764327" x2="-0.18848" y2="-0.593465" style="stroke:rgb(246,147,147);stroke-width:0.01" />
<line x1="-0.18848" y1="-0.593465" x2="-0.167371" y2="0.41823" style="stroke:rgb(246,147,147);stroke-width:0.01" />
<line x1="-0.274083" y1="0.21573" x2="0.401532" y2="0.21573" style="stroke:rgb(246,147,147);stroke-width:0.01" />
<line x1="-0.274083" y1="0.21573" x2="-0.274083" y2="0.2816" style="stroke:rgb(246,147,147);stroke-width:0.01" />
<line x1="-0.274083" y1="0.2816" x2="-0.167371" y2="0.41823" style="stroke:rgb(246,147,147);stroke-width:0.01" />
<line x1="-0.274083" y1="0.2816" x2="0.0142416" y2="0.353586" style="stroke:rgb(246,147,147);stroke-width:0.01" />
<line x1="0.395753" y1="-0.156474" x2="0.0142416" y2="0.353586" style="stroke:rgb(246,147,147);stroke-width:0.01" />
<line x1="0.401532" y1="0.21573" x2="-0.167371" y2="0.41823" style="stroke:rgb(246,147,147);stroke-width:0.01" />
<line x1="0.652962" y1="0.0107705" x2="0.401532" y2="0.21573" style="stroke:rgb(246,147,147);stroke-width:0.01" />
</g>
</svg>
