<svg xmlns="http://www.w3.org/2000/svg" viewBox="-1.5 -1.5 3 3">
<g transform="scale(1, -1)">
<path d="M-0.080489 -0.428490 L0.569370 -0.098097 L0.621262 -0.084379 L0.618311 -0.073215 L-0.554920 0.452125 L-0.716004 0.370228 L-0.457530 -0.138171 z " fill="rgb(245,195,195)" />
<path d="M-1.233819 -1.194883 L-0.233819 -1.194883 L-0.233819 -0.194883 L-1.233819 -0.194883  z" fill="none" stroke="rgb(128,128,128)" stroke-width="0.01" />
<line x1="-0.0804892" y1="-0.42849" x2="-0.0374732" y2="-0.22854" style="stroke:rgb(246,147,147);stroke-width:0.01" />
<line x1="-0.233819" y1="-0.310428" x2="-0.233819" y2="-0.194883" style="stroke:rgb(246,147,147);stroke-width:0.01" />
<line x1="-0.0804892" y1="-0.42849" x2="0.618311" y2="-0.0732152" style="stroke:rgb(246,147,147);stroke-width:0.01" />
<line x1="-0.383878" y1="-0.194883" x2="-0.55492" y2="0.452125" style="stroke:rgb(246,147,147);stroke-width:0.01" />
<line x1="-0.45753" y1="-0.138171" x2="-0.716004" y2="0.370228" style="stroke:rgb(246,147,147);stroke-width:0.01" />
<line x1="0.621262" y1="-0.084379" x2="0.618311" y2="-0.0732152" style="stroke:rgb(246,147,147);stroke-width:0.01" />
<line x1="-0.233819" y1="-0.310428" x2="0.621262" y2="-0.084379" style="stroke:rgb(246,147,147);stroke-width:0.01" />
<line x1="-0.383878" y1="-0.194883" x2="-0.233819" y2="-0.194883" style="stroke:rgb(246,147,147);stroke-width:0.01" />
<line x1="-0.716004" y1="0.370228" x2="-0.55492" y2="0.452125" style="stroke:rgb(246,147,147);stroke-width:0.01" />
<line x1="-0.0804892" y1="-0.42849" x2="-0.45753" y2="-0.138171" style="stroke:rgb(246,147,147);stroke-width:0.01" />
<line x1="-0.0374732" y1="-0.22854" x2="-0.45753" y2="-0.138171" style="stroke:rgb(246,147,147);stroke-width:0.01" />
<line x1="0.618311" y1="-0.0732152" x2="-0.55492" y2="0.452125" style="stroke:rgb(246,147,147);stroke-width:0.01" />
</g>
</svg>
