<svg xmlns="http://www.w3.org/2000/svg" viewBox="-1.5 -1.5 3 3">
<g transform="scale(1, -1)">
<path d="M1.153329 0.766393 L1.803189 1.096786 L1.855081 1.110504 L1.852130 1.121668 L0.678898 1.647008 L0.517815 1.565111 L0.776289 1.056712 z " fill="rgb(245,195,195)" />
<path d="M0.000000 0.000000 L1.000000 0.000000 L1.000000 1.000000 L0.000000 1.000000  z" fill="none" stroke="rgb(128,128,128)" stroke-width="0.01" />
<line x1="1.15333" y1="0.766393" x2="1.19635" y2="0.966343" style="stroke:rgb(246,147,147);stroke-width:0.01" />
<line x1="1" y1="0.884455" x2="1" y2="1" style="stroke:rgb(246,147,147);stroke-width:0.01" />
<line x1="1.15333" y1="0.766393" x2="1.85213" y2="1.12167" style="stroke:rgb(246,147,147);stroke-width:0.01" />
<line x1="0.849941" y1="1" x2="0.678898" y2="1.64701" style="stroke:rgb(246,147,147);stroke-width:0.01" />
<line x1="0.776289" y1="1.05671" x2="0.517815" y2="1.56511" style="stroke:rgb(246,147,147);stroke-width:0.01" />
<line x1="1.85508" y1="1.1105" x2="1.85213" y2="1.12167" style="stroke:rgb(246,147,147);stroke-width:0.01" />
<line x1="1" y1="0.884455" x2="1.85508" y2="1.1105" style="stroke:rgb(246,147,147);stroke-width:0.01" />
<line x1="0.849941" y1="1" x2="1" y2="1" style="stroke:rgb(246,147,147);stroke-width:0.01" />
<line x1="0.517815" y1="1.56511" x2="0.678898" y2="1.64701" style="stroke:rgb(246,147,147);stroke-width:0.01" />
<line x1="1.15333" y1="0.766393" x2="0.776289" y2="1.05671" style="stroke:rgb(246,147,147);stroke-width:0.01" />
<line x1="1.19635" y1="0.966343" x2="0.776289" y2="1.05671" style="stroke:rgb(246,147,147);stroke-width:0.01" />
<line x1="1.85213" y1="1.12167" x2="0.678898" y2="1.64701" style="stroke:rgb(246,147,147);stroke-width:0.01" />
</g>
</svg>
