<svg xmlns="http://www.w3.org/2000/svg" viewBox="-1.5 -1.5 3 3">
<g transform="scale(1, -1)">
<path d="M-0.705162 -0.750849 L0.126967 -0.750849 L0.265486 0.249947 L0.258241 0.251165 L0.258147 0.250746 L0.250871 0.251538 L0.250611 0.249151 L-0.705162 0.249151 z " fill="rgb(245,195,195)" />
<path d="M-0.705162 -0.750849 L0.294838 -0.750849 L0.294838 0.249151 L-0.705162 0.249151  z" fill="none" stroke="rgb(128,128,128)" stroke-width="0.01" />
<line x1="0.0388792" y1="-0.725988" x2="0.258241" y2="0.251165" style="stroke:rgb(246,147,147);stroke-width:0.01" />
<line x1="0.114164" y1="-0.738647" x2="0.196103" y2="-0.251347" style="stroke:rgb(246,147,147);stroke-width:0.01" />
<line x1="0.126967" y1="-0.750849" x2="0.265486" y2="0.249947" style="stroke:rgb(246,147,147);stroke-width:0.01" />
<line x1="0.196103" y1="-0.251347" x2="0.250871" y2="0.251538" style="stroke:rgb(246,147,147);stroke-width:0.01" />
<line x1="-0.705162" y1="-0.750849" x2="0.126967" y2="-0.750849" style="stroke:rgb(246,147,147);stroke-width:0.01" />
<line x1="-0.705162" y1="-0.750849" x2="-0.705162" y2="0.249151" style="stroke:rgb(246,147,147);stroke-width:0.01" />
<line x1="0.114164" y1="-0.738647" x2="0.0388792" y2="-0.725988" style="stroke:rgb(246,147,147);stroke-width:0.01" />
<line x1="0.126967" y1="-0.750849" x2="0.0388792" y2="-0.725988" style="stroke:rgb(246,147,147);stroke-width:0.01" />
<line x1="-0.705162" y1="0.249151" x2="0.265376" y2="0.249151" style="stroke:rgb(246,147,147);stroke-width:0.01" />
<line x1="0.265486" y1="0.249947" x2="0.250871" y2="0.251538" style="stroke:rgb(246,147,147);stroke-width:0.01" />
<line x1="0.265486" y1="0.249947" x2="0.258241" y2="0.251165" style="stroke:rgb(246,147,147);stroke-width:0.01" />
<line x1="0.265376" y1="0.249151" x2="0.258241" y2="0.251165" style="stroke:rgb(246,147,147);stroke-width:0.01" />
</g>
</svg>
