<svg xmlns="http://www.w3.org/2000/svg" viewBox="-1.5 -1.5 3 3">
<g transform="scale(1, -1)">
<path d="M0.000000 0.000000 L0.832129 0.000000 L0.970648 1.000795 L0.963403 1.002014 L0.963309 1.001595 L0.956033 1.002387 L0.955773 1.000000 L0.000000 1.000000 z " fill="rgb(245,195,195)" />
<path d="M0.000000 0.000000 L1.000000 0.000000 L1.000000 1.000000 L0.000000 1.000000  z" fill="none" stroke="rgb(128,128,128)" stroke-width="0.01" />
<line x1="0.744041" y1="0.0248606" x2="0.963403" y2="1.00201" style="stroke:rgb(246,147,147);stroke-width:0.01" />
<line x1="0.819326" y1="0.0122016" x2="0.901265" y2="0.499502" style="stroke:rgb(246,147,147);stroke-width:0.01" />
<line x1="0.832129" y1="0" x2="0.970648" y2="1.0008" style="stroke:rgb(246,147,147);stroke-width:0.01" />
<line x1="0.901265" y1="0.499502" x2="0.956033" y2="1.00239" style="stroke:rgb(246,147,147);stroke-width:0.01" />
<line x1="0" y1="0" x2="0.832129" y2="0" style="stroke:rgb(246,147,147);stroke-width:0.01" />
<line x1="0" y1="0" x2="0" y2="1" style="stroke:rgb(246,147,147);stroke-width:0.01" />
<line x1="0.819326" y1="0.0122016" x2="0.744041" y2="0.0248606" style="stroke:rgb(246,147,147);stroke-width:0.01" />
<line x1="0.832129" y1="0" x2="0.744041" y2="0.0248606" style="stroke:rgb(246,147,147);stroke-width:0.01" />
<line x1="0" y1="1" x2="0.970538" y2="1" style="stroke:rgb(246,147,147);stroke-width:0.01" />
<line x1="0.970648" y1="1.0008" x2="0.956033" y2="1.00239" style="stroke:rgb(246,147,147);stroke-width:0.01" />
<line x1="0.970648" y1="1.0008" x2="0.963403" y2="1.00201" style="stroke:rgb(246,147,147);stroke-width:0.01" />
<line x1="0.970538" y1="1" x2="0.963403" y2="1.00201" style="stroke:rgb(246,147,147);stroke-width:0.01" />
</g>
</svg>
