<svg xmlns="http://www.w3.org/2000/svg" viewBox="-1.5 -1.5 3 3">
<path d="M0.240224 -0.773749 L0.405400 -0.773749 L0.405400 -0.115745 L0.443480 0.035953 L0.405400 0.045512 L0.405400 0.226251 L-0.314600 0.226251 L-0.362228 0.238206 L-0.359003 0.244739 L-0.382838 0.294110 L-0.451971 0.260734 L-0.434662 0.091488 z " fill="rgb(245,195,195)" />
<path d="M-0.594600 -0.773749 L0.405400 -0.773749 L0.405400 0.226251 L-0.594600 0.226251  z" fill="none" stroke="rgb(128,128,128)" stroke-width="0.01" />
<line x1="0.240224" y1="-0.773749" x2="0.44348" y2="0.0359531" style="stroke:rgb(246,147,147);stroke-width:0.01" />
<line x1="0.240224" y1="-0.773749" x2="0.4054" y2="-0.773749" style="stroke:rgb(246,147,147);stroke-width:0.01" />
<line x1="0.4054" y1="-0.773749" x2="0.4054" y2="0.226251" style="stroke:rgb(246,147,147);stroke-width:0.01" />
<line x1="-0.434662" y1="0.091488" x2="-0.451971" y2="0.260734" style="stroke:rgb(246,147,147);stroke-width:0.01" />
<line x1="-0.434662" y1="0.091488" x2="-0.359003" y2="0.244739" style="stroke:rgb(246,147,147);stroke-width:0.01" />
<line x1="-0.359003" y1="0.244739" x2="-0.382838" y2="0.29411" style="stroke:rgb(246,147,147);stroke-width:0.01" />
<line x1="0.240224" y1="-0.773749" x2="-0.434662" y2="0.091488" style="stroke:rgb(246,147,147);stroke-width:0.01" />
<line x1="-0.451971" y1="0.260734" x2="-0.382838" y2="0.29411" style="stroke:rgb(246,147,147);stroke-width:0.01" />
<line x1="-0.448444" y1="0.226251" x2="-0.359003" y2="0.244739" style="stroke:rgb(246,147,147);stroke-width:0.01" />
<line x1="-0.448444" y1="0.226251" x2="0.4054" y2="0.226251" style="stroke:rgb(246,147,147);stroke-width:0.01" />
<line x1="0.44348" y1="0.0359531" x2="-0.451971" y2="0.260734" style="stroke:rgb(246,147,147);stroke-width:0.01" />
</svg>
