<svg xmlns="http://www.w3.org/2000/svg" viewBox="-1.5 -1.5 3 3">
<g transform="scale(1, -1)">
<path d="M-0.168121 -0.608753 L0.126377 -0.608753 L0.126377 -0.285838 L0.307280 -0.087479 L0.126377 0.077505 L0.126377 0.391247 L0.030138 0.391247 L-0.088142 0.562947 L-0.269169 0.438242 L-0.317493 -0.270363 z " fill="rgb(245,195,195)" />
<path d="M-0.873623 -0.608753 L0.126377 -0.608753 L0.126377 0.391247 L-0.873623 0.391247  z" fill="none" stroke="rgb(128,128,128)" stroke-width="0.01" />
<line x1="-0.168121" y1="-0.608753" x2="0.30728" y2="-0.0874786" style="stroke:rgb(246,147,147);stroke-width:0.01" />
<line x1="-0.317493" y1="-0.270363" x2="0.0616711" y2="0.345473" style="stroke:rgb(246,147,147);stroke-width:0.01" />
<line x1="-0.317493" y1="-0.270363" x2="-0.269169" y2="0.438242" style="stroke:rgb(246,147,147);stroke-width:0.01" />
<line x1="-0.168121" y1="-0.608753" x2="0.126377" y2="-0.608753" style="stroke:rgb(246,147,147);stroke-width:0.01" />
<line x1="0.126377" y1="-0.608753" x2="0.126377" y2="0.391247" style="stroke:rgb(246,147,147);stroke-width:0.01" />
<line x1="-0.168121" y1="-0.608753" x2="-0.317493" y2="-0.270363" style="stroke:rgb(246,147,147);stroke-width:0.01" />
<line x1="-0.269169" y1="0.438242" x2="-0.0881424" y2="0.562947" style="stroke:rgb(246,147,147);stroke-width:0.01" />
<line x1="0.0616711" y1="0.345473" x2="-0.0881424" y2="0.562947" style="stroke:rgb(246,147,147);stroke-width:0.01" />
<line x1="0.30728" y1="-0.0874786" x2="-0.269169" y2="0.438242" style="stroke:rgb(246,147,147);stroke-width:0.01" />
<line x1="-0.272374" y1="0.391247" x2="0.126377" y2="0.391247" style="stroke:rgb(246,147,147);stroke-width:0.01" />
<line x1="0.0616711" y1="0.345473" x2="-0.272374" y2="0.391247" style="stroke:rgb(246,147,147);stroke-width:0.01" />
</g>
</svg>
