<svg xmlns="http://www.w3.org/2000/svg" viewBox="-1.5 -1.5 3 3">
<g transform="scale(1, -1)">
<path d="M0.705502 0.000000 L1.000000 0.000000 L1.000000 0.322915 L1.180903 0.521275 L1.000000 0.686258 L1.000000 1.000000 L0.903762 1.000000 L0.785481 1.171701 L0.604454 1.046995 L0.556130 0.338391 z " fill="rgb(245,195,195)" />
<path d="M0.000000 0.000000 L1.000000 0.000000 L1.000000 1.000000 L0.000000 1.000000  z" fill="none" stroke="rgb(128,128,128)" stroke-width="0.01" />
<line x1="0.705502" y1="0" x2="1.1809" y2="0.521275" style="stroke:rgb(246,147,147);stroke-width:0.01" />
<line x1="0.55613" y1="0.338391" x2="0.935294" y2="0.954226" style="stroke:rgb(246,147,147);stroke-width:0.01" />
<line x1="0.55613" y1="0.338391" x2="0.604454" y2="1.047" style="stroke:rgb(246,147,147);stroke-width:0.01" />
<line x1="0.705502" y1="0" x2="1" y2="0" style="stroke:rgb(246,147,147);stroke-width:0.01" />
<line x1="1" y1="0" x2="1" y2="1" style="stroke:rgb(246,147,147);stroke-width:0.01" />
<line x1="0.705502" y1="0" x2="0.55613" y2="0.338391" style="stroke:rgb(246,147,147);stroke-width:0.01" />
<line x1="0.604454" y1="1.047" x2="0.785481" y2="1.1717" style="stroke:rgb(246,147,147);stroke-width:0.01" />
<line x1="0.935294" y1="0.954226" x2="0.785481" y2="1.1717" style="stroke:rgb(246,147,147);stroke-width:0.01" />
<line x1="1.1809" y1="0.521275" x2="0.604454" y2="1.047" style="stroke:rgb(246,147,147);stroke-width:0.01" />
<line x1="0.601249" y1="1" x2="1" y2="1" style="stroke:rgb(246,147,147);stroke-width:0.01" />
<line x1="0.935294" y1="0.954226" x2="0.601249" y2="1" style="stroke:rgb(246,147,147);stroke-width:0.01" />
</g>
</svg>
