<svg xmlns="http://www.w3.org/2000/svg" viewBox="-1.5 -1.5 3 3">
<g transform="scale(1, -1)">
<path d="M0.449925 -0.652143 L0.506992 -0.572909 L0.385435 -0.204666 L-0.050811 0.647147 L-0.057759 0.649413 L-0.112521 0.481485 L-0.106383 0.473027 L-0.213274 0.138116 L-0.361520 -0.067715 L-0.294397 -0.116059 L-0.352641 -0.298547 L0.206955 -0.477148 z " fill="rgb(245,195,195)" />
<path d="M-0.289152 -0.518515 L0.710848 -0.518515 L0.710848 0.481485 L-0.289152 0.481485  z" fill="none" stroke="rgb(128,128,128)" stroke-width="0.01" />
<line x1="0.449925" y1="-0.652143" x2="0.506992" y2="-0.572909" style="stroke:rgb(246,147,147);stroke-width:0.01" />
<line x1="-0.352641" y1="-0.298547" x2="-0.0508109" y2="0.647147" style="stroke:rgb(246,147,147);stroke-width:0.01" />
<line x1="-0.112521" y1="0.481485" x2="-0.057759" y2="0.649413" style="stroke:rgb(246,147,147);stroke-width:0.01" />
<line x1="0.506992" y1="-0.572909" x2="-0.352641" y2="-0.298547" style="stroke:rgb(246,147,147);stroke-width:0.01" />
<line x1="-0.36152" y1="-0.0677151" x2="0.0340307" y2="0.481485" style="stroke:rgb(246,147,147);stroke-width:0.01" />
<line x1="0.506992" y1="-0.572909" x2="0.385435" y2="-0.204666" style="stroke:rgb(246,147,147);stroke-width:0.01" />
<line x1="0.449925" y1="-0.652143" x2="-0.36152" y2="-0.0677151" style="stroke:rgb(246,147,147);stroke-width:0.01" />
<line x1="0.385435" y1="-0.204666" x2="-0.0508109" y2="0.647147" style="stroke:rgb(246,147,147);stroke-width:0.01" />
<line x1="0.385435" y1="-0.204666" x2="-0.112521" y2="0.481485" style="stroke:rgb(246,147,147);stroke-width:0.01" />
<line x1="-0.112521" y1="0.481485" x2="0.0340307" y2="0.481485" style="stroke:rgb(246,147,147);stroke-width:0.01" />
<line x1="-0.0508109" y1="0.647147" x2="-0.057759" y2="0.649413" style="stroke:rgb(246,147,147);stroke-width:0.01" />
</g>
</svg>
