<svg xmlns="http://www.w3.org/2000/svg" viewBox="-1.5 -1.5 3 3">
<g transform="scale(1, -1)">
<path d="M0.000000 0.021345 L0.972462 0.546066 L0.994205 0.564732 L0.808626 0.970297 L0.554088 0.853826 L0.531170 0.868879 L0.507184 0.832363 L-0.100698 0.554208 L0.027479 0.274089 L0.000000 0.266180 L0.000000 0.060225 L-0.017841 0.033064 z " fill="rgb(245,195,195)" />
<path d="M0.000000 0.000000 L1.000000 0.000000 L1.000000 1.000000 L0.000000 1.000000  z" fill="none" stroke="rgb(128,128,128)" stroke-width="0.01" />
<line x1="0.972462" y1="0.546066" x2="0.994205" y2="0.564732" style="stroke:rgb(246,147,147);stroke-width:0.01" />
<line x1="0" y1="0.0213452" x2="0" y2="0.26618" style="stroke:rgb(246,147,147);stroke-width:0.01" />
<line x1="0" y1="0.0213452" x2="-0.0178407" y2="0.033064" style="stroke:rgb(246,147,147);stroke-width:0.01" />
<line x1="0" y1="0.0213452" x2="0.972462" y2="0.546066" style="stroke:rgb(246,147,147);stroke-width:0.01" />
<line x1="-0.0178407" y1="0.033064" x2="0.53117" y2="0.868879" style="stroke:rgb(246,147,147);stroke-width:0.01" />
<line x1="0.114789" y1="0.0832829" x2="-0.100698" y2="0.554208" style="stroke:rgb(246,147,147);stroke-width:0.01" />
<line x1="0.114789" y1="0.0832829" x2="0" y2="0.26618" style="stroke:rgb(246,147,147);stroke-width:0.01" />
<line x1="0" y1="0.26618" x2="0.972462" y2="0.546066" style="stroke:rgb(246,147,147);stroke-width:0.01" />
<line x1="0.994205" y1="0.564732" x2="0.808626" y2="0.970297" style="stroke:rgb(246,147,147);stroke-width:0.01" />
<line x1="-0.100698" y1="0.554208" x2="0.808626" y2="0.970297" style="stroke:rgb(246,147,147);stroke-width:0.01" />
<line x1="0.994205" y1="0.564732" x2="0.53117" y2="0.868879" style="stroke:rgb(246,147,147);stroke-width:0.01" />
</g>
</svg>
