<svg xmlns="http://www.w3.org/2000/svg" viewBox="-1.5 -1.5 3 3">
<g transform="scale(1, -1)">
<path d="M-0.179555 -0.400347 L0.544889 -0.391666 L0.544889 0.488445 L-0.455111 0.488445 L-0.455111 -0.184877 z " fill="rgb(245,195,195)" />
<path d="M-0.455111 -0.511555 L0.544889 -0.511555 L0.544889 0.488445 L-0.455111 0.488445  z" fill="none" stroke="rgb(128,128,128)" stroke-width="0.01" />
<line x1="-0.0653068" y1="-0.398978" x2="-0.0400423" y2="-0.285763" style="stroke:rgb(246,147,147);stroke-width:0.01" />
<line x1="-0.179555" y1="-0.400347" x2="-0.0400423" y2="-0.285763" style="stroke:rgb(246,147,147);stroke-width:0.01" />
<line x1="-0.455111" y1="-0.184877" x2="-0.455111" y2="0.488445" style="stroke:rgb(246,147,147);stroke-width:0.01" />
<line x1="0.544889" y1="-0.391666" x2="0.544889" y2="0.488445" style="stroke:rgb(246,147,147);stroke-width:0.01" />
<line x1="0.544889" y1="-0.391666" x2="0.542016" y2="-0.271811" style="stroke:rgb(246,147,147);stroke-width:0.01" />
<line x1="-0.0653068" y1="-0.398978" x2="-0.138072" y2="-0.106107" style="stroke:rgb(246,147,147);stroke-width:0.01" />
<line x1="-0.179555" y1="-0.400347" x2="0.544889" y2="-0.391666" style="stroke:rgb(246,147,147);stroke-width:0.01" />
<line x1="-0.179555" y1="-0.400347" x2="-0.455111" y2="-0.184877" style="stroke:rgb(246,147,147);stroke-width:0.01" />
<line x1="-0.0400423" y1="-0.285763" x2="0.542016" y2="-0.271811" style="stroke:rgb(246,147,147);stroke-width:0.01" />
<line x1="-0.455111" y1="-0.184877" x2="-0.138072" y2="-0.106107" style="stroke:rgb(246,147,147);stroke-width:0.01" />
<line x1="-0.455111" y1="0.488445" x2="0.544889" y2="0.488445" style="stroke:rgb(246,147,147);stroke-width:0.01" />
</g>
</svg>
