<svg xmlns="http://www.w3.org/2000/svg" viewBox="-1.5 -1.5 3 3">
<g transform="scale(1, -1)">
<path d="M0.284849 -0.492455 L0.330640 -0.273027 L0.410731 0.502818 L-0.489778 0.690741 L-0.628871 0.024224 L0.092428 -0.452300 z " fill="rgb(245,195,195)" />
<path d="M0.330640 -0.497182 L1.330640 -0.497182 L1.330640 0.502818 L0.330640 0.502818  z" fill="none" stroke="rgb(128,128,128)" stroke-width="0.01" />
<line x1="0.0924283" y1="-0.4523" x2="-0.367097" y2="0.206747" style="stroke:rgb(246,147,147);stroke-width:0.01" />
<line x1="0.0924283" y1="-0.4523" x2="-0.628871" y2="0.0242238" style="stroke:rgb(246,147,147);stroke-width:0.01" />
<line x1="0.284849" y1="-0.492455" x2="0.0924283" y2="-0.4523" style="stroke:rgb(246,147,147);stroke-width:0.01" />
<line x1="0.33064" y1="-0.273027" x2="0.33064" y2="0.502818" style="stroke:rgb(246,147,147);stroke-width:0.01" />
<line x1="0.33064" y1="-0.273027" x2="0.410731" y2="0.502818" style="stroke:rgb(246,147,147);stroke-width:0.01" />
<line x1="0.284849" y1="-0.492455" x2="0.33064" y2="-0.273027" style="stroke:rgb(246,147,147);stroke-width:0.01" />
<line x1="-0.628871" y1="0.0242238" x2="-0.489778" y2="0.690741" style="stroke:rgb(246,147,147);stroke-width:0.01" />
<line x1="-0.628871" y1="0.0242238" x2="-0.367097" y2="0.206747" style="stroke:rgb(246,147,147);stroke-width:0.01" />
<line x1="0.410731" y1="0.502818" x2="-0.489778" y2="0.690741" style="stroke:rgb(246,147,147);stroke-width:0.01" />
<line x1="0.33064" y1="0.502818" x2="0.410731" y2="0.502818" style="stroke:rgb(246,147,147);stroke-width:0.01" />
</g>
</svg>
