<svg xmlns="http://www.w3.org/2000/svg" viewBox="-1.5 -1.5 3 3">
<g transform="scale(1, -1)">
<path d="M-0.444931 -0.624518 L0.542603 -0.467108 L0.458148 0.062727 L0.251020 0.239454 L-0.204500 0.426430 L-0.602341 0.363015 z " fill="rgb(245,195,195)" />
<path d="M-0.005328 0.062727 L0.994672 0.062727 L0.994672 1.062727 L-0.005328 1.062727  z" fill="none" stroke="rgb(128,128,128)" stroke-width="0.01" />
<line x1="-0.444931" y1="-0.624518" x2="0.542603" y2="-0.467108" style="stroke:rgb(246,147,147);stroke-width:0.01" />
<line x1="-0.444931" y1="-0.624518" x2="-0.602341" y2="0.363015" style="stroke:rgb(246,147,147);stroke-width:0.01" />
<line x1="-0.00532835" y1="0.0627266" x2="0.458148" y2="0.0627266" style="stroke:rgb(246,147,147);stroke-width:0.01" />
<line x1="-0.00532835" y1="0.0627266" x2="-0.00532835" y2="0.344677" style="stroke:rgb(246,147,147);stroke-width:0.01" />
<line x1="-0.0850698" y1="0.263907" x2="-0.2045" y2="0.42643" style="stroke:rgb(246,147,147);stroke-width:0.01" />
<line x1="0.542603" y1="-0.467108" x2="0.458148" y2="0.0627266" style="stroke:rgb(246,147,147);stroke-width:0.01" />
<line x1="-0.0850698" y1="0.263907" x2="-0.00532835" y2="0.344677" style="stroke:rgb(246,147,147);stroke-width:0.01" />
<line x1="0.25102" y1="0.239454" x2="-0.0850698" y2="0.263907" style="stroke:rgb(246,147,147);stroke-width:0.01" />
<line x1="0.458148" y1="0.0627266" x2="0.25102" y2="0.239454" style="stroke:rgb(246,147,147);stroke-width:0.01" />
<line x1="0.25102" y1="0.239454" x2="-0.2045" y2="0.42643" style="stroke:rgb(246,147,147);stroke-width:0.01" />
<line x1="-0.602341" y1="0.363015" x2="-0.2045" y2="0.42643" style="stroke:rgb(246,147,147);stroke-width:0.01" />
</g>
</svg>
