<svg xmlns="http://www.w3.org/2000/svg" viewBox="-1.5 -1.5 3 3">
<g transform="scale(1, -1)">
<path d="M0.265082 -0.545817 L0.362216 -0.455720 L0.407428 0.309272 L0.093294 0.454462 L-0.199897 0.205046 L-0.137553 0.131760 L-0.311004 0.075264 L-0.329012 -0.076550 L-0.150554 -0.097718 z " fill="rgb(245,195,195)" />
<path d="M0.093294 -0.160610 L1.093294 -0.160610 L1.093294 0.839390 L0.093294 0.839390  z" fill="none" stroke="rgb(128,128,128)" stroke-width="0.01" />
<line x1="0.265082" y1="-0.545817" x2="0.362216" y2="-0.45572" style="stroke:rgb(246,147,147);stroke-width:0.01" />
<line x1="0.265082" y1="-0.545817" x2="-0.311004" y2="0.0752639" style="stroke:rgb(246,147,147);stroke-width:0.01" />
<line x1="0.362216" y1="-0.45572" x2="0.407428" y2="0.309272" style="stroke:rgb(246,147,147);stroke-width:0.01" />
<line x1="0.0932937" y1="-0.16061" x2="0.379657" y2="-0.16061" style="stroke:rgb(246,147,147);stroke-width:0.01" />
<line x1="0.0932937" y1="-0.16061" x2="0.0932937" y2="0.454462" style="stroke:rgb(246,147,147);stroke-width:0.01" />
<line x1="0.362216" y1="-0.45572" x2="-0.199897" y2="0.205046" style="stroke:rgb(246,147,147);stroke-width:0.01" />
<line x1="0.379657" y1="-0.16061" x2="-0.329012" y2="-0.0765499" style="stroke:rgb(246,147,147);stroke-width:0.01" />
<line x1="-0.329012" y1="-0.0765499" x2="-0.311004" y2="0.0752639" style="stroke:rgb(246,147,147);stroke-width:0.01" />
<line x1="-0.311004" y1="0.0752639" x2="0.407428" y2="0.309272" style="stroke:rgb(246,147,147);stroke-width:0.01" />
<line x1="-0.199897" y1="0.205046" x2="0.0932937" y2="0.454462" style="stroke:rgb(246,147,147);stroke-width:0.01" />
<line x1="0.407428" y1="0.309272" x2="0.0932937" y2="0.454462" style="stroke:rgb(246,147,147);stroke-width:0.01" />
</g>
</svg>
