<svg xmlns="http://www.w3.org/2000/svg" viewBox="-1.5 -1.5 3 3">
<g transform="scale(1, -1)">
<path d="M0.078188 -0.594636 L0.595548 0.275430 L0.333940 0.492346 L0.264066 0.408074 L-0.017363 0.520689 L-0.171881 0.134542 L-0.235181 -0.194036 L-0.304347 -0.277452 L-0.258565 -0.315413 L-0.284405 -0.449544 z " fill="rgb(245,195,195)" />
<path d="M-1.171881 -0.449544 L-0.171881 -0.449544 L-0.171881 0.550456 L-1.171881 0.550456  z" fill="none" stroke="rgb(128,128,128)" stroke-width="0.01" />
<line x1="0.0781884" y1="-0.594636" x2="0.595548" y2="0.27543" style="stroke:rgb(246,147,147);stroke-width:0.01" />
<line x1="-0.304347" y1="-0.277452" x2="0.33394" y2="0.492346" style="stroke:rgb(246,147,147);stroke-width:0.01" />
<line x1="-0.171881" y1="0.134542" x2="-0.0173633" y2="0.520689" style="stroke:rgb(246,147,147);stroke-width:0.01" />
<line x1="-0.284405" y1="-0.449544" x2="-0.171881" y2="0.134542" style="stroke:rgb(246,147,147);stroke-width:0.01" />
<line x1="-0.284405" y1="-0.449544" x2="-0.171881" y2="-0.449544" style="stroke:rgb(246,147,147);stroke-width:0.01" />
<line x1="-0.171881" y1="-0.449544" x2="-0.171881" y2="0.134542" style="stroke:rgb(246,147,147);stroke-width:0.01" />
<line x1="0.0781884" y1="-0.594636" x2="-0.284405" y2="-0.449544" style="stroke:rgb(246,147,147);stroke-width:0.01" />
<line x1="0.0781884" y1="-0.594636" x2="-0.304347" y2="-0.277452" style="stroke:rgb(246,147,147);stroke-width:0.01" />
<line x1="0.595548" y1="0.27543" x2="-0.0173633" y2="0.520689" style="stroke:rgb(246,147,147);stroke-width:0.01" />
<line x1="0.595548" y1="0.27543" x2="0.33394" y2="0.492346" style="stroke:rgb(246,147,147);stroke-width:0.01" />
</g>
</svg>
