<svg xmlns="http://www.w3.org/2000/svg" viewBox="-1.5 -1.5 3 3">
<g transform="scale(1, -1)">
<path d="M0.801786 0.000000 L1.000000 0.000000 L1.000000 0.391667 L1.052033 0.379959 L1.050443 0.369443 L1.050791 0.369364 L1.049217 0.358948 L1.049566 0.358870 L1.048006 0.348554 L1.048355 0.348476 L1.046811 0.338261 L1.047159 0.338183 L1.045631 0.328069 L1.115317 0.312389 L1.116415 0.317267 L1.118731 0.332589 L1.119087 0.332561 L1.120638 0.342826 L1.120994 0.342798 L1.122561 0.353164 L1.122917 0.353136 L1.124499 0.363602 L1.124855 0.363574 L1.148257 0.518410 L0.962963 0.703704 L0.916667 0.666667 L0.910145 0.637681 L0.768852 0.461066 z " fill="rgb(245,195,195)" />
<path d="M0.000000 0.000000 L1.000000 0.000000 L1.000000 1.000000 L0.000000 1.000000  z" fill="none" stroke="rgb(128,128,128)" stroke-width="0.01" />
<line x1="1.11532" y1="0.312389" x2="1.11641" y2="0.317267" style="stroke:rgb(246,147,147);stroke-width:0.01" />
<line x1="0.768852" y1="0.461066" x2="0.962963" y2="0.703704" style="stroke:rgb(246,147,147);stroke-width:0.01" />
<line x1="0.861789" y1="0.422764" x2="0.916667" y2="0.666667" style="stroke:rgb(246,147,147);stroke-width:0.01" />
<line x1="1.12485" y1="0.363574" x2="1.14826" y2="0.51841" style="stroke:rgb(246,147,147);stroke-width:0.01" />
<line x1="1.12292" y1="0.353136" x2="1.14794" y2="0.518723" style="stroke:rgb(246,147,147);stroke-width:0.01" />
<line x1="1.12099" y1="0.342798" x2="1.14763" y2="0.519036" style="stroke:rgb(246,147,147);stroke-width:0.01" />
<line x1="1.11909" y1="0.332561" x2="1.14732" y2="0.519349" style="stroke:rgb(246,147,147);stroke-width:0.01" />
<line x1="1.11641" y1="0.317267" x2="1.14701" y2="0.519662" style="stroke:rgb(246,147,147);stroke-width:0.01" />
<line x1="1.04563" y1="0.328069" x2="1.0841" y2="0.58257" style="stroke:rgb(246,147,147);stroke-width:0.01" />
<line x1="1.04681" y1="0.338261" x2="1.08378" y2="0.582883" style="stroke:rgb(246,147,147);stroke-width:0.01" />
<line x1="1.04801" y1="0.348554" x2="1.08347" y2="0.583196" style="stroke:rgb(246,147,147);stroke-width:0.01" />
<line x1="1.04922" y1="0.358948" x2="1.08316" y2="0.583509" style="stroke:rgb(246,147,147);stroke-width:0.01" />
<line x1="1.05044" y1="0.369443" x2="1.08284" y2="0.583822" style="stroke:rgb(246,147,147);stroke-width:0.01" />
<line x1="0.801786" y1="0" x2="0.875671" y2="0.0106091" style="stroke:rgb(246,147,147);stroke-width:0.01" />
<line x1="0.801385" y1="0.0106091" x2="0.874563" y2="0.0211168" style="stroke:rgb(246,147,147);stroke-width:0.01" />
<line x1="0.800992" y1="0.0211168" x2="0.873463" y2="0.0315228" style="stroke:rgb(246,147,147);stroke-width:0.01" />
<line x1="1.11641" y1="0.317267" x2="1.13345" y2="0.533221" style="stroke:rgb(246,147,147);stroke-width:0.01" />
<line x1="0.800606" y1="0.0315228" x2="0.872369" y2="0.0418274" style="stroke:rgb(246,147,147);stroke-width:0.01" />
<line x1="0.800227" y1="0.0418274" x2="0.871284" y2="0.0520305" style="stroke:rgb(246,147,147);stroke-width:0.01" />
<line x1="0.799498" y1="0.0520305" x2="0.869848" y2="0.062132" style="stroke:rgb(246,147,147);stroke-width:0.01" />
<line x1="0.916667" y1="0.666667" x2="0.962963" y2="0.703704" style="stroke:rgb(246,147,147);stroke-width:0.01" />
<line x1="0.801786" y1="0" x2="1" y2="0" style="stroke:rgb(246,147,147);stroke-width:0.01" />
<line x1="1" y1="0" x2="1" y2="0.666667" style="stroke:rgb(246,147,147);stroke-width:0.01" />
<line x1="0.801385" y1="0.0106091" x2="0.875671" y2="0.0106091" style="stroke:rgb(246,147,147);stroke-width:0.01" />
<line x1="0.800992" y1="0.0211168" x2="0.874563" y2="0.0211168" style="stroke:rgb(246,147,147);stroke-width:0.01" />
<line x1="0.800606" y1="0.0315228" x2="0.873463" y2="0.0315228" style="stroke:rgb(246,147,147);stroke-width:0.01" />
<line x1="0.800227" y1="0.0418274" x2="0.872369" y2="0.0418274" style="stroke:rgb(246,147,147);stroke-width:0.01" />
<line x1="0.799498" y1="0.0520305" x2="0.871284" y2="0.0520305" style="stroke:rgb(246,147,147);stroke-width:0.01" />
<line x1="0.801786" y1="0" x2="0.768852" y2="0.461066" style="stroke:rgb(246,147,147);stroke-width:0.01" />
<line x1="0.801385" y1="0.0106091" x2="0.76918" y2="0.461475" style="stroke:rgb(246,147,147);stroke-width:0.01" />
<line x1="0.800992" y1="0.0211168" x2="0.769508" y2="0.461885" style="stroke:rgb(246,147,147);stroke-width:0.01" />
<line x1="0.800606" y1="0.0315228" x2="0.769836" y2="0.462295" style="stroke:rgb(246,147,147);stroke-width:0.01" />
<line x1="0.800227" y1="0.0418274" x2="0.770164" y2="0.462705" style="stroke:rgb(246,147,147);stroke-width:0.01" />
<line x1="0.871284" y1="0.0520305" x2="0.836066" y2="0.545082" style="stroke:rgb(246,147,147);stroke-width:0.01" />
<line x1="0.872369" y1="0.0418274" x2="0.836393" y2="0.545492" style="stroke:rgb(246,147,147);stroke-width:0.01" />
<line x1="0.873463" y1="0.0315228" x2="0.836721" y2="0.545902" style="stroke:rgb(246,147,147);stroke-width:0.01" />
<line x1="0.874563" y1="0.0211168" x2="0.837049" y2="0.546311" style="stroke:rgb(246,147,147);stroke-width:0.01" />
<line x1="0.875671" y1="0.0106091" x2="0.837377" y2="0.546721" style="stroke:rgb(246,147,147);stroke-width:0.01" />
<line x1="0.869848" y1="0.062132" x2="0.805913" y2="0.507391" style="stroke:rgb(246,147,147);stroke-width:0.01" />
<line x1="0.768852" y1="0.461066" x2="1.14826" y2="0.51841" style="stroke:rgb(246,147,147);stroke-width:0.01" />
<line x1="0.76918" y1="0.461475" x2="1.14794" y2="0.518723" style="stroke:rgb(246,147,147);stroke-width:0.01" />
<line x1="0.769508" y1="0.461885" x2="1.14763" y2="0.519036" style="stroke:rgb(246,147,147);stroke-width:0.01" />
<line x1="0.769836" y1="0.462295" x2="1.14732" y2="0.519349" style="stroke:rgb(246,147,147);stroke-width:0.01" />
<line x1="0.770164" y1="0.462705" x2="1.14701" y2="0.519662" style="stroke:rgb(246,147,147);stroke-width:0.01" />
<line x1="1.11719" y1="0.322425" x2="1.04563" y2="0.328069" style="stroke:rgb(246,147,147);stroke-width:0.01" />
<line x1="0.836066" y1="0.545082" x2="1.0841" y2="0.58257" style="stroke:rgb(246,147,147);stroke-width:0.01" />
<line x1="0.836393" y1="0.545492" x2="1.08378" y2="0.582883" style="stroke:rgb(246,147,147);stroke-width:0.01" />
<line x1="0.836721" y1="0.545902" x2="1.08347" y2="0.583196" style="stroke:rgb(246,147,147);stroke-width:0.01" />
<line x1="0.837049" y1="0.546311" x2="1.08316" y2="0.583509" style="stroke:rgb(246,147,147);stroke-width:0.01" />
<line x1="0.837377" y1="0.546721" x2="1.08284" y2="0.583822" style="stroke:rgb(246,147,147);stroke-width:0.01" />
<line x1="1.11909" y1="0.332561" x2="1.04681" y2="0.338261" style="stroke:rgb(246,147,147);stroke-width:0.01" />
<line x1="1.12099" y1="0.342798" x2="1.04801" y2="0.348554" style="stroke:rgb(246,147,147);stroke-width:0.01" />
<line x1="1.12292" y1="0.353136" x2="1.04922" y2="0.358948" style="stroke:rgb(246,147,147);stroke-width:0.01" />
<line x1="0.805913" y1="0.507391" x2="1.13345" y2="0.533221" style="stroke:rgb(246,147,147);stroke-width:0.01" />
<line x1="1.12485" y1="0.363574" x2="1.05044" y2="0.369443" style="stroke:rgb(246,147,147);stroke-width:0.01" />
<line x1="1.11532" y1="0.312389" x2="1.04563" y2="0.328069" style="stroke:rgb(246,147,147);stroke-width:0.01" />
<line x1="1.11719" y1="0.322425" x2="1.04681" y2="0.338261" style="stroke:rgb(246,147,147);stroke-width:0.01" />
<line x1="1.11909" y1="0.332561" x2="1.04801" y2="0.348554" style="stroke:rgb(246,147,147);stroke-width:0.01" />
<line x1="1.12099" y1="0.342798" x2="1.04922" y2="0.358948" style="stroke:rgb(246,147,147);stroke-width:0.01" />
<line x1="1.12292" y1="0.353136" x2="1.05044" y2="0.369443" style="stroke:rgb(246,147,147);stroke-width:0.01" />
<line x1="1.12485" y1="0.363574" x2="0.861789" y2="0.422764" style="stroke:rgb(246,147,147);stroke-width:0.01" />
<line x1="0.916667" y1="0.666667" x2="1" y2="0.666667" style="stroke:rgb(246,147,147);stroke-width:0.01" />
<line x1="1.14826" y1="0.51841" x2="0.962963" y2="0.703704" style="stroke:rgb(246,147,147);stroke-width:0.01" />
</g>
</svg>
