<svg xmlns="http://www.w3.org/2000/svg" viewBox="-1.5 -1.5 3 3">
<g transform="scale(1, -1)">
<path d="M-0.241168 -0.368972 L-0.042953 -0.368972 L-0.042953 0.022694 L0.009079 0.010987 L0.007490 0.000470 L0.007838 0.000392 L0.006264 -0.010024 L0.006612 -0.010103 L0.005053 -0.020418 L0.005402 -0.020497 L0.003858 -0.030711 L0.004206 -0.030790 L0.002677 -0.040904 L0.072364 -0.056583 L0.073461 -0.051705 L0.075777 -0.036383 L0.076133 -0.036411 L0.077685 -0.026146 L0.078041 -0.026174 L0.079607 -0.015808 L0.079963 -0.015836 L0.081545 -0.005370 L0.081901 -0.005398 L0.105304 0.149437 L-0.079990 0.334731 L-0.126287 0.297694 L-0.132808 0.268709 L-0.274101 0.092093 z " fill="rgb(245,195,195)" />
<path d="M-1.042953 -0.368972 L-0.042953 -0.368972 L-0.042953 0.631028 L-1.042953 0.631028  z" fill="none" stroke="rgb(128,128,128)" stroke-width="0.01" />
<line x1="0.0723638" y1="-0.0565834" x2="0.0734613" y2="-0.0517053" style="stroke:rgb(246,147,147);stroke-width:0.01" />
<line x1="-0.274101" y1="0.0920931" x2="-0.0799904" y2="0.334731" style="stroke:rgb(246,147,147);stroke-width:0.01" />
<line x1="-0.181165" y1="0.0537918" x2="-0.126287" y2="0.297694" style="stroke:rgb(246,147,147);stroke-width:0.01" />
<line x1="0.0819015" y1="-0.00539811" x2="0.105304" y2="0.149437" style="stroke:rgb(246,147,147);stroke-width:0.01" />
<line x1="0.0799635" y1="-0.0158364" x2="0.104991" y2="0.14975" style="stroke:rgb(246,147,147);stroke-width:0.01" />
<line x1="0.0780408" y1="-0.0261741" x2="0.104678" y2="0.150063" style="stroke:rgb(246,147,147);stroke-width:0.01" />
<line x1="0.0761332" y1="-0.0364112" x2="0.104365" y2="0.150376" style="stroke:rgb(246,147,147);stroke-width:0.01" />
<line x1="0.0734613" y1="-0.0517053" x2="0.104052" y2="0.150689" style="stroke:rgb(246,147,147);stroke-width:0.01" />
<line x1="0.00267737" y1="-0.0409039" x2="0.0411433" y2="0.213598" style="stroke:rgb(246,147,147);stroke-width:0.01" />
<line x1="0.00385762" y1="-0.0307113" x2="0.0408303" y2="0.213911" style="stroke:rgb(246,147,147);stroke-width:0.01" />
<line x1="0.00505308" y1="-0.0204181" x2="0.0405174" y2="0.214223" style="stroke:rgb(246,147,147);stroke-width:0.01" />
<line x1="0.00626375" y1="-0.0100243" x2="0.0402044" y2="0.214536" style="stroke:rgb(246,147,147);stroke-width:0.01" />
<line x1="0.00748963" y1="0.000470181" x2="0.0398914" y2="0.214849" style="stroke:rgb(246,147,147);stroke-width:0.01" />
<line x1="-0.241168" y1="-0.368972" x2="-0.167283" y2="-0.358363" style="stroke:rgb(246,147,147);stroke-width:0.01" />
<line x1="-0.241568" y1="-0.358363" x2="-0.16839" y2="-0.347856" style="stroke:rgb(246,147,147);stroke-width:0.01" />
<line x1="-0.241962" y1="-0.347856" x2="-0.169491" y2="-0.33745" style="stroke:rgb(246,147,147);stroke-width:0.01" />
<line x1="0.0734613" y1="-0.0517053" x2="0.090492" y2="0.164249" style="stroke:rgb(246,147,147);stroke-width:0.01" />
<line x1="-0.242348" y1="-0.33745" x2="-0.170584" y2="-0.327145" style="stroke:rgb(246,147,147);stroke-width:0.01" />
<line x1="-0.242727" y1="-0.327145" x2="-0.17167" y2="-0.316942" style="stroke:rgb(246,147,147);stroke-width:0.01" />
<line x1="-0.243456" y1="-0.316942" x2="-0.173106" y2="-0.30684" style="stroke:rgb(246,147,147);stroke-width:0.01" />
<line x1="-0.126287" y1="0.297694" x2="-0.0799904" y2="0.334731" style="stroke:rgb(246,147,147);stroke-width:0.01" />
<line x1="-0.241168" y1="-0.368972" x2="-0.0429534" y2="-0.368972" style="stroke:rgb(246,147,147);stroke-width:0.01" />
<line x1="-0.0429534" y1="-0.368972" x2="-0.0429534" y2="0.297694" style="stroke:rgb(246,147,147);stroke-width:0.01" />
<line x1="-0.241568" y1="-0.358363" x2="-0.167283" y2="-0.358363" style="stroke:rgb(246,147,147);stroke-width:0.01" />
<line x1="-0.241962" y1="-0.347856" x2="-0.16839" y2="-0.347856" style="stroke:rgb(246,147,147);stroke-width:0.01" />
<line x1="-0.242348" y1="-0.33745" x2="-0.169491" y2="-0.33745" style="stroke:rgb(246,147,147);stroke-width:0.01" />
<line x1="-0.242727" y1="-0.327145" x2="-0.170584" y2="-0.327145" style="stroke:rgb(246,147,147);stroke-width:0.01" />
<line x1="-0.243456" y1="-0.316942" x2="-0.17167" y2="-0.316942" style="stroke:rgb(246,147,147);stroke-width:0.01" />
<line x1="-0.241168" y1="-0.368972" x2="-0.274101" y2="0.0920931" style="stroke:rgb(246,147,147);stroke-width:0.01" />
<line x1="-0.241568" y1="-0.358363" x2="-0.273773" y2="0.092503" style="stroke:rgb(246,147,147);stroke-width:0.01" />
<line x1="-0.241962" y1="-0.347856" x2="-0.273445" y2="0.0929128" style="stroke:rgb(246,147,147);stroke-width:0.01" />
<line x1="-0.242348" y1="-0.33745" x2="-0.273117" y2="0.0933226" style="stroke:rgb(246,147,147);stroke-width:0.01" />
<line x1="-0.242727" y1="-0.327145" x2="-0.272789" y2="0.0937325" style="stroke:rgb(246,147,147);stroke-width:0.01" />
<line x1="-0.17167" y1="-0.316942" x2="-0.206888" y2="0.17611" style="stroke:rgb(246,147,147);stroke-width:0.01" />
<line x1="-0.170584" y1="-0.327145" x2="-0.20656" y2="0.176519" style="stroke:rgb(246,147,147);stroke-width:0.01" />
<line x1="-0.169491" y1="-0.33745" x2="-0.206232" y2="0.176929" style="stroke:rgb(246,147,147);stroke-width:0.01" />
<line x1="-0.16839" y1="-0.347856" x2="-0.205904" y2="0.177339" style="stroke:rgb(246,147,147);stroke-width:0.01" />
<line x1="-0.167283" y1="-0.358363" x2="-0.205576" y2="0.177749" style="stroke:rgb(246,147,147);stroke-width:0.01" />
<line x1="-0.173106" y1="-0.30684" x2="-0.23704" y2="0.138419" style="stroke:rgb(246,147,147);stroke-width:0.01" />
<line x1="-0.274101" y1="0.0920931" x2="0.105304" y2="0.149437" style="stroke:rgb(246,147,147);stroke-width:0.01" />
<line x1="-0.273773" y1="0.092503" x2="0.104991" y2="0.14975" style="stroke:rgb(246,147,147);stroke-width:0.01" />
<line x1="-0.273445" y1="0.0929128" x2="0.104678" y2="0.150063" style="stroke:rgb(246,147,147);stroke-width:0.01" />
<line x1="-0.273117" y1="0.0933226" x2="0.104365" y2="0.150376" style="stroke:rgb(246,147,147);stroke-width:0.01" />
<line x1="-0.272789" y1="0.0937325" x2="0.104052" y2="0.150689" style="stroke:rgb(246,147,147);stroke-width:0.01" />
<line x1="0.0742409" y1="-0.0465476" x2="0.00267737" y2="-0.0409039" style="stroke:rgb(246,147,147);stroke-width:0.01" />
<line x1="-0.206888" y1="0.17611" x2="0.0411433" y2="0.213598" style="stroke:rgb(246,147,147);stroke-width:0.01" />
<line x1="-0.20656" y1="0.176519" x2="0.0408303" y2="0.213911" style="stroke:rgb(246,147,147);stroke-width:0.01" />
<line x1="-0.206232" y1="0.176929" x2="0.0405174" y2="0.214223" style="stroke:rgb(246,147,147);stroke-width:0.01" />
<line x1="-0.205904" y1="0.177339" x2="0.0402044" y2="0.214536" style="stroke:rgb(246,147,147);stroke-width:0.01" />
<line x1="-0.205576" y1="0.177749" x2="0.0398914" y2="0.214849" style="stroke:rgb(246,147,147);stroke-width:0.01" />
<line x1="0.0761332" y1="-0.0364112" x2="0.00385762" y2="-0.0307113" style="stroke:rgb(246,147,147);stroke-width:0.01" />
<line x1="0.0780408" y1="-0.0261741" x2="0.00505308" y2="-0.0204181" style="stroke:rgb(246,147,147);stroke-width:0.01" />
<line x1="0.0799635" y1="-0.0158364" x2="0.00626375" y2="-0.0100243" style="stroke:rgb(246,147,147);stroke-width:0.01" />
<line x1="-0.23704" y1="0.138419" x2="0.090492" y2="0.164249" style="stroke:rgb(246,147,147);stroke-width:0.01" />
<line x1="0.0819015" y1="-0.00539811" x2="0.00748963" y2="0.000470181" style="stroke:rgb(246,147,147);stroke-width:0.01" />
<line x1="0.0723638" y1="-0.0565834" x2="0.00267737" y2="-0.0409039" style="stroke:rgb(246,147,147);stroke-width:0.01" />
<line x1="0.0742409" y1="-0.0465476" x2="0.00385762" y2="-0.0307113" style="stroke:rgb(246,147,147);stroke-width:0.01" />
<line x1="0.0761332" y1="-0.0364112" x2="0.00505308" y2="-0.0204181" style="stroke:rgb(246,147,147);stroke-width:0.01" />
<line x1="0.0780408" y1="-0.0261741" x2="0.00626375" y2="-0.0100243" style="stroke:rgb(246,147,147);stroke-width:0.01" />
<line x1="0.0799635" y1="-0.0158364" x2="0.00748963" y2="0.000470181" style="stroke:rgb(246,147,147);stroke-width:0.01" />
<line x1="0.0819015" y1="-0.00539811" x2="-0.181165" y2="0.0537918" style="stroke:rgb(246,147,147);stroke-width:0.01" />
<line x1="-0.126287" y1="0.297694" x2="-0.0429534" y2="0.297694" style="stroke:rgb(246,147,147);stroke-width:0.01" />
<line x1="0.105304" y1="0.149437" x2="-0.0799904" y2="0.334731" style="stroke:rgb(246,147,147);stroke-width:0.01" />
</g>
</svg>
