<svg xmlns="http://www.w3.org/2000/svg" viewBox="-1.5 -1.5 3 3">
<g transform="scale(1, -1)">
<path d="M0.134874 -0.114440 L0.261279 -0.004930 L0.120691 0.187580 L-0.186680 0.058161 L-0.231856 -0.021786 L-0.086754 -0.103780 L-0.019409 0.015398 L-0.014933 -0.011267 L0.022788 -0.004936 z " fill="rgb(245,195,195)" />
<path d="M-0.418765 -0.165290 L0.581235 -0.165290 L0.581235 0.834710 L-0.418765 0.834710  z" fill="none" stroke="rgb(128,128,128)" stroke-width="0.01" />
<line x1="0.134874" y1="-0.11444" x2="0.261279" y2="-0.00493046" style="stroke:rgb(246,147,147);stroke-width:0.01" />
<line x1="-0.0867538" y1="-0.10378" x2="0.0645243" y2="0.163931" style="stroke:rgb(246,147,147);stroke-width:0.01" />
<line x1="-0.231856" y1="-0.0217858" x2="-0.18668" y2="0.058161" style="stroke:rgb(246,147,147);stroke-width:0.01" />
<line x1="-0.0854315" y1="0.0312913" x2="0.0812352" y2="0.159496" style="stroke:rgb(246,147,147);stroke-width:0.01" />
<line x1="-0.0854315" y1="0.0312913" x2="-0.0854315" y2="0.100792" style="stroke:rgb(246,147,147);stroke-width:0.01" />
<line x1="0.0812352" y1="0.159496" x2="0.0812352" y2="0.170967" style="stroke:rgb(246,147,147);stroke-width:0.01" />
<line x1="-0.0149334" y1="-0.0112669" x2="-0.0371522" y2="0.12112" style="stroke:rgb(246,147,147);stroke-width:0.01" />
<line x1="-0.0149334" y1="-0.0112669" x2="0.149434" y2="0.0163193" style="stroke:rgb(246,147,147);stroke-width:0.01" />
<line x1="0.149434" y1="0.0163193" x2="0.120691" y2="0.18758" style="stroke:rgb(246,147,147);stroke-width:0.01" />
<line x1="-0.18668" y1="0.058161" x2="0.120691" y2="0.18758" style="stroke:rgb(246,147,147);stroke-width:0.01" />
<line x1="-0.0867538" y1="-0.10378" x2="-0.231856" y2="-0.0217858" style="stroke:rgb(246,147,147);stroke-width:0.01" />
<line x1="-0.0854315" y1="0.0312913" x2="-0.18668" y2="0.058161" style="stroke:rgb(246,147,147);stroke-width:0.01" />
<line x1="0.134874" y1="-0.11444" x2="-0.0371522" y2="0.12112" style="stroke:rgb(246,147,147);stroke-width:0.01" />
<line x1="0.134874" y1="-0.11444" x2="-0.0854315" y2="0.100792" style="stroke:rgb(246,147,147);stroke-width:0.01" />
<line x1="0.261279" y1="-0.00493046" x2="0.120691" y2="0.18758" style="stroke:rgb(246,147,147);stroke-width:0.01" />
<line x1="0.261279" y1="-0.00493046" x2="0.0812352" y2="0.170967" style="stroke:rgb(246,147,147);stroke-width:0.01" />
<line x1="0.0812352" y1="0.159496" x2="0.0645243" y2="0.163931" style="stroke:rgb(246,147,147);stroke-width:0.01" />
</g>
</svg>
