<svg xmlns="http://www.w3.org/2000/svg" viewBox="-1.5 -1.5 3 3">
<g transform="scale(1, -1)">
<path d="M0.553638 0.050850 L0.680044 0.160359 L0.539456 0.352870 L0.232085 0.223451 L0.186909 0.143504 L0.332011 0.061510 L0.399356 0.180688 L0.403831 0.154023 L0.441553 0.160354 z " fill="rgb(245,195,195)" />
<path d="M0.000000 0.000000 L1.000000 0.000000 L1.000000 1.000000 L0.000000 1.000000  z" fill="none" stroke="rgb(128,128,128)" stroke-width="0.01" />
<line x1="0.553638" y1="0.0508497" x2="0.680044" y2="0.160359" style="stroke:rgb(246,147,147);stroke-width:0.01" />
<line x1="0.332011" y1="0.0615098" x2="0.483289" y2="0.329221" style="stroke:rgb(246,147,147);stroke-width:0.01" />
<line x1="0.186909" y1="0.143504" x2="0.232085" y2="0.223451" style="stroke:rgb(246,147,147);stroke-width:0.01" />
<line x1="0.333333" y1="0.196581" x2="0.5" y2="0.324786" style="stroke:rgb(246,147,147);stroke-width:0.01" />
<line x1="0.333333" y1="0.196581" x2="0.333333" y2="0.266082" style="stroke:rgb(246,147,147);stroke-width:0.01" />
<line x1="0.5" y1="0.324786" x2="0.5" y2="0.336257" style="stroke:rgb(246,147,147);stroke-width:0.01" />
<line x1="0.403831" y1="0.154023" x2="0.381613" y2="0.28641" style="stroke:rgb(246,147,147);stroke-width:0.01" />
<line x1="0.403831" y1="0.154023" x2="0.568199" y2="0.181609" style="stroke:rgb(246,147,147);stroke-width:0.01" />
<line x1="0.568199" y1="0.181609" x2="0.539456" y2="0.35287" style="stroke:rgb(246,147,147);stroke-width:0.01" />
<line x1="0.232085" y1="0.223451" x2="0.539456" y2="0.35287" style="stroke:rgb(246,147,147);stroke-width:0.01" />
<line x1="0.332011" y1="0.0615098" x2="0.186909" y2="0.143504" style="stroke:rgb(246,147,147);stroke-width:0.01" />
<line x1="0.333333" y1="0.196581" x2="0.232085" y2="0.223451" style="stroke:rgb(246,147,147);stroke-width:0.01" />
<line x1="0.553638" y1="0.0508497" x2="0.381613" y2="0.28641" style="stroke:rgb(246,147,147);stroke-width:0.01" />
<line x1="0.553638" y1="0.0508497" x2="0.333333" y2="0.266082" style="stroke:rgb(246,147,147);stroke-width:0.01" />
<line x1="0.680044" y1="0.160359" x2="0.539456" y2="0.35287" style="stroke:rgb(246,147,147);stroke-width:0.01" />
<line x1="0.680044" y1="0.160359" x2="0.5" y2="0.336257" style="stroke:rgb(246,147,147);stroke-width:0.01" />
<line x1="0.5" y1="0.324786" x2="0.483289" y2="0.329221" style="stroke:rgb(246,147,147);stroke-width:0.01" />
</g>
</svg>
