<svg xmlns="http://www.w3.org/2000/svg" viewBox="-1.5 -1.5 3 3">
<g transform="scale(1, -1)">
<path d="M0.397059 0.183099 L0.602941 0.183099 L0.770270 0.303797 L0.830769 0.500000 L0.770270 0.696203 L0.602941 0.816901 L0.397059 0.816901 L0.229730 0.696203 L0.169231 0.500000 L0.229730 0.303797 z " fill="rgb(245,195,195)" />
<path d="M0.000000 0.000000 L1.000000 0.000000 L1.000000 1.000000 L0.000000 1.000000  z" fill="none" stroke="rgb(128,128,128)" stroke-width="0.01" />
<line x1="0.744853" y1="0.373929" x2="0.830769" y2="0.5" style="stroke:rgb(246,147,147);stroke-width:0.01" />
<line x1="0.77027" y1="0.303797" x2="0.830769" y2="0.5" style="stroke:rgb(246,147,147);stroke-width:0.01" />
<line x1="0.602941" y1="0.183099" x2="0.77027" y2="0.303797" style="stroke:rgb(246,147,147);stroke-width:0.01" />
<line x1="0.602941" y1="0.183099" x2="0.674825" y2="0.399289" style="stroke:rgb(246,147,147);stroke-width:0.01" />
<line x1="0.643994" y1="0.693436" x2="0.66615" y2="0.771307" style="stroke:rgb(246,147,147);stroke-width:0.01" />
<line x1="0.374124" y1="0.199642" x2="0.397346" y2="0.233718" style="stroke:rgb(246,147,147);stroke-width:0.01" />
<line x1="0.374124" y1="0.199642" x2="0.457369" y2="0.308785" style="stroke:rgb(246,147,147);stroke-width:0.01" />
<line x1="0.387817" y1="0.189765" x2="0.428443" y2="0.293157" style="stroke:rgb(246,147,147);stroke-width:0.01" />
<line x1="0.387817" y1="0.189765" x2="0.487367" y2="0.272836" style="stroke:rgb(246,147,147);stroke-width:0.01" />
<line x1="0.33385" y1="0.228693" x2="0.356006" y2="0.306564" style="stroke:rgb(246,147,147);stroke-width:0.01" />
<line x1="0.263823" y1="0.279205" x2="0.315295" y2="0.460113" style="stroke:rgb(246,147,147);stroke-width:0.01" />
<line x1="0.228151" y1="0.308916" x2="0.397059" y2="0.816901" style="stroke:rgb(246,147,147);stroke-width:0.01" />
<line x1="0.247238" y1="0.291168" x2="0.255406" y2="0.30436" style="stroke:rgb(246,147,147);stroke-width:0.01" />
<line x1="0.252767" y1="0.290141" x2="0.320665" y2="0.379161" style="stroke:rgb(246,147,147);stroke-width:0.01" />
<line x1="0.803008" y1="0.540736" x2="0.815569" y2="0.549296" style="stroke:rgb(246,147,147);stroke-width:0.01" />
<line x1="0.169231" y1="0.5" x2="0.22973" y2="0.696203" style="stroke:rgb(246,147,147);stroke-width:0.01" />
<line x1="0.247238" y1="0.291168" x2="0.320665" y2="0.379161" style="stroke:rgb(246,147,147);stroke-width:0.01" />
<line x1="0.33385" y1="0.228693" x2="0.428443" y2="0.293157" style="stroke:rgb(246,147,147);stroke-width:0.01" />
<line x1="0.263823" y1="0.279205" x2="0.269782" y2="0.283266" style="stroke:rgb(246,147,147);stroke-width:0.01" />
<line x1="0.22973" y1="0.303797" x2="0.169231" y2="0.5" style="stroke:rgb(246,147,147);stroke-width:0.01" />
<line x1="0.397059" y1="0.183099" x2="0.356006" y2="0.306564" style="stroke:rgb(246,147,147);stroke-width:0.01" />
<line x1="0.397346" y1="0.233718" x2="0.22973" y2="0.696203" style="stroke:rgb(246,147,147);stroke-width:0.01" />
<line x1="0.397059" y1="0.183099" x2="0.602941" y2="0.183099" style="stroke:rgb(246,147,147);stroke-width:0.01" />
<line x1="0.280987" y1="0.266825" x2="0.255406" y2="0.30436" style="stroke:rgb(246,147,147);stroke-width:0.01" />
<line x1="0.652305" y1="0.761872" x2="0.66615" y2="0.771307" style="stroke:rgb(246,147,147);stroke-width:0.01" />
<line x1="0.643994" y1="0.693436" x2="0.602941" y2="0.816901" style="stroke:rgb(246,147,147);stroke-width:0.01" />
<line x1="0.830769" y1="0.5" x2="0.77027" y2="0.696203" style="stroke:rgb(246,147,147);stroke-width:0.01" />
<line x1="0.77027" y1="0.303797" x2="0.744853" y2="0.373929" style="stroke:rgb(246,147,147);stroke-width:0.01" />
<line x1="0.22973" y1="0.303797" x2="0.457369" y2="0.308785" style="stroke:rgb(246,147,147);stroke-width:0.01" />
<line x1="0.252767" y1="0.290141" x2="0.228151" y2="0.308916" style="stroke:rgb(246,147,147);stroke-width:0.01" />
<line x1="0.397059" y1="0.183099" x2="0.22973" y2="0.303797" style="stroke:rgb(246,147,147);stroke-width:0.01" />
<line x1="0.397346" y1="0.233718" x2="0.280987" y2="0.266825" style="stroke:rgb(246,147,147);stroke-width:0.01" />
<line x1="0.22973" y1="0.696203" x2="0.397059" y2="0.816901" style="stroke:rgb(246,147,147);stroke-width:0.01" />
<line x1="0.487367" y1="0.272836" x2="0.457369" y2="0.308785" style="stroke:rgb(246,147,147);stroke-width:0.01" />
<line x1="0.428443" y1="0.293157" x2="0.169231" y2="0.5" style="stroke:rgb(246,147,147);stroke-width:0.01" />
<line x1="0.315295" y1="0.460113" x2="0.184431" y2="0.549296" style="stroke:rgb(246,147,147);stroke-width:0.01" />
<line x1="0.788101" y1="0.361624" x2="0.744853" y2="0.373929" style="stroke:rgb(246,147,147);stroke-width:0.01" />
<line x1="0.830769" y1="0.5" x2="0.652305" y2="0.761872" style="stroke:rgb(246,147,147);stroke-width:0.01" />
<line x1="0.184431" y1="0.549296" x2="0.815569" y2="0.549296" style="stroke:rgb(246,147,147);stroke-width:0.01" />
<line x1="0.788101" y1="0.361624" x2="0.674825" y2="0.399289" style="stroke:rgb(246,147,147);stroke-width:0.01" />
<line x1="0.643994" y1="0.693436" x2="0.77027" y2="0.696203" style="stroke:rgb(246,147,147);stroke-width:0.01" />
<line x1="0.397059" y1="0.816901" x2="0.602941" y2="0.816901" style="stroke:rgb(246,147,147);stroke-width:0.01" />
<line x1="0.77027" y1="0.696203" x2="0.602941" y2="0.816901" style="stroke:rgb(246,147,147);stroke-width:0.01" />
</g>
</svg>
