<svg xmlns="http://www.w3.org/2000/svg" viewBox="-1.5 -1.5 3 3">
<g transform="scale(1, -1)">
<path d="M-0.102941 -0.316901 L0.102941 -0.316901 L0.270270 -0.196203 L0.330769 0.000000 L0.270270 0.196203 L0.102941 0.316901 L-0.102941 0.316901 L-0.270270 0.196203 L-0.330769 0.000000 L-0.270270 -0.196203 z " fill="rgb(245,195,195)" />
<path d="M-0.500000 -0.500000 L0.500000 -0.500000 L0.500000 0.500000 L-0.500000 0.500000  z" fill="none" stroke="rgb(128,128,128)" stroke-width="0.01" />
<line x1="0.244853" y1="-0.126071" x2="0.330769" y2="0" style="stroke:rgb(246,147,147);stroke-width:0.01" />
<line x1="0.27027" y1="-0.196203" x2="0.330769" y2="0" style="stroke:rgb(246,147,147);stroke-width:0.01" />
<line x1="0.102941" y1="-0.316901" x2="0.27027" y2="-0.196203" style="stroke:rgb(246,147,147);stroke-width:0.01" />
<line x1="0.102941" y1="-0.316901" x2="0.174825" y2="-0.100711" style="stroke:rgb(246,147,147);stroke-width:0.01" />
<line x1="0.143994" y1="0.193436" x2="0.16615" y2="0.271307" style="stroke:rgb(246,147,147);stroke-width:0.01" />
<line x1="-0.125876" y1="-0.300358" x2="-0.102654" y2="-0.266282" style="stroke:rgb(246,147,147);stroke-width:0.01" />
<line x1="-0.125876" y1="-0.300358" x2="-0.0426308" y2="-0.191215" style="stroke:rgb(246,147,147);stroke-width:0.01" />
<line x1="-0.112183" y1="-0.310235" x2="-0.0715566" y2="-0.206843" style="stroke:rgb(246,147,147);stroke-width:0.01" />
<line x1="-0.112183" y1="-0.310235" x2="-0.0126328" y2="-0.227164" style="stroke:rgb(246,147,147);stroke-width:0.01" />
<line x1="-0.16615" y1="-0.271307" x2="-0.143994" y2="-0.193436" style="stroke:rgb(246,147,147);stroke-width:0.01" />
<line x1="-0.236177" y1="-0.220795" x2="-0.184705" y2="-0.0398873" style="stroke:rgb(246,147,147);stroke-width:0.01" />
<line x1="-0.271849" y1="-0.191084" x2="-0.102941" y2="0.316901" style="stroke:rgb(246,147,147);stroke-width:0.01" />
<line x1="-0.252762" y1="-0.208832" x2="-0.244594" y2="-0.19564" style="stroke:rgb(246,147,147);stroke-width:0.01" />
<line x1="-0.247233" y1="-0.209859" x2="-0.179335" y2="-0.120839" style="stroke:rgb(246,147,147);stroke-width:0.01" />
<line x1="0.303008" y1="0.0407356" x2="0.315569" y2="0.0492958" style="stroke:rgb(246,147,147);stroke-width:0.01" />
<line x1="-0.330769" y1="0" x2="-0.27027" y2="0.196203" style="stroke:rgb(246,147,147);stroke-width:0.01" />
<line x1="-0.252762" y1="-0.208832" x2="-0.179335" y2="-0.120839" style="stroke:rgb(246,147,147);stroke-width:0.01" />
<line x1="-0.16615" y1="-0.271307" x2="-0.0715566" y2="-0.206843" style="stroke:rgb(246,147,147);stroke-width:0.01" />
<line x1="-0.236177" y1="-0.220795" x2="-0.230218" y2="-0.216734" style="stroke:rgb(246,147,147);stroke-width:0.01" />
<line x1="-0.27027" y1="-0.196203" x2="-0.330769" y2="0" style="stroke:rgb(246,147,147);stroke-width:0.01" />
<line x1="-0.102941" y1="-0.316901" x2="-0.143994" y2="-0.193436" style="stroke:rgb(246,147,147);stroke-width:0.01" />
<line x1="-0.102654" y1="-0.266282" x2="-0.27027" y2="0.196203" style="stroke:rgb(246,147,147);stroke-width:0.01" />
<line x1="-0.102941" y1="-0.316901" x2="0.102941" y2="-0.316901" style="stroke:rgb(246,147,147);stroke-width:0.01" />
<line x1="-0.219013" y1="-0.233175" x2="-0.244594" y2="-0.19564" style="stroke:rgb(246,147,147);stroke-width:0.01" />
<line x1="0.152305" y1="0.261872" x2="0.16615" y2="0.271307" style="stroke:rgb(246,147,147);stroke-width:0.01" />
<line x1="0.143994" y1="0.193436" x2="0.102941" y2="0.316901" style="stroke:rgb(246,147,147);stroke-width:0.01" />
<line x1="0.330769" y1="0" x2="0.27027" y2="0.196203" style="stroke:rgb(246,147,147);stroke-width:0.01" />
<line x1="0.27027" y1="-0.196203" x2="0.244853" y2="-0.126071" style="stroke:rgb(246,147,147);stroke-width:0.01" />
<line x1="-0.27027" y1="-0.196203" x2="-0.0426308" y2="-0.191215" style="stroke:rgb(246,147,147);stroke-width:0.01" />
<line x1="-0.247233" y1="-0.209859" x2="-0.271849" y2="-0.191084" style="stroke:rgb(246,147,147);stroke-width:0.01" />
<line x1="-0.102941" y1="-0.316901" x2="-0.27027" y2="-0.196203" style="stroke:rgb(246,147,147);stroke-width:0.01" />
<line x1="-0.102654" y1="-0.266282" x2="-0.219013" y2="-0.233175" style="stroke:rgb(246,147,147);stroke-width:0.01" />
<line x1="-0.27027" y1="0.196203" x2="-0.102941" y2="0.316901" style="stroke:rgb(246,147,147);stroke-width:0.01" />
<line x1="-0.0126328" y1="-0.227164" x2="-0.0426308" y2="-0.191215" style="stroke:rgb(246,147,147);stroke-width:0.01" />
<line x1="-0.0715566" y1="-0.206843" x2="-0.330769" y2="0" style="stroke:rgb(246,147,147);stroke-width:0.01" />
<line x1="-0.184705" y1="-0.0398873" x2="-0.315569" y2="0.0492958" style="stroke:rgb(246,147,147);stroke-width:0.01" />
<line x1="0.288101" y1="-0.138376" x2="0.244853" y2="-0.126071" style="stroke:rgb(246,147,147);stroke-width:0.01" />
<line x1="0.330769" y1="0" x2="0.152305" y2="0.261872" style="stroke:rgb(246,147,147);stroke-width:0.01" />
<line x1="-0.315569" y1="0.0492958" x2="0.315569" y2="0.0492958" style="stroke:rgb(246,147,147);stroke-width:0.01" />
<line x1="0.288101" y1="-0.138376" x2="0.174825" y2="-0.100711" style="stroke:rgb(246,147,147);stroke-width:0.01" />
<line x1="0.143994" y1="0.193436" x2="0.27027" y2="0.196203" style="stroke:rgb(246,147,147);stroke-width:0.01" />
<line x1="-0.102941" y1="0.316901" x2="0.102941" y2="0.316901" style="stroke:rgb(246,147,147);stroke-width:0.01" />
<line x1="0.27027" y1="0.196203" x2="0.102941" y2="0.316901" style="stroke:rgb(246,147,147);stroke-width:0.01" />
</g>
</svg>
