<svg xmlns="http://www.w3.org/2000/svg" viewBox="-1.5 -1.5 3 3">
<g transform="scale(1, -1)">
<path d="M-0.234562 -0.321462 L-0.109562 -0.321462 L-0.109562 -0.071460 L0.015438 -0.071458 L0.129573 0.043822 L0.151490 0.022156 L0.239368 0.111053 L0.175224 0.174460 L0.059552 0.222657 L0.012971 0.176075 L0.014192 0.053542 L-0.109562 0.053540 L-0.234562 -0.071462 z " fill="rgb(245,195,195)" />
<path d="M-0.234562 -0.321462 L0.765438 -0.321462 L0.765438 0.678538 L-0.234562 0.678538  z" fill="none" stroke="rgb(128,128,128)" stroke-width="0.01" />
<line x1="0.15149" y1="0.0221561" x2="0.239368" y2="0.111053" style="stroke:rgb(246,147,147);stroke-width:0.01" />
<line x1="0.0154382" y1="-0.071458" x2="0.139198" y2="0.0535441" style="stroke:rgb(246,147,147);stroke-width:0.01" />
<line x1="0.0590947" y1="0.113492" x2="0.0595524" y2="0.222657" style="stroke:rgb(246,147,147);stroke-width:0.01" />
<line x1="-0.234562" y1="-0.321462" x2="-0.109562" y2="-0.321462" style="stroke:rgb(246,147,147);stroke-width:0.01" />
<line x1="-0.234562" y1="-0.321462" x2="-0.234562" y2="-0.0714622" style="stroke:rgb(246,147,147);stroke-width:0.01" />
<line x1="-0.109562" y1="-0.321462" x2="-0.109562" y2="0.0535399" style="stroke:rgb(246,147,147);stroke-width:0.01" />
<line x1="0.0154382" y1="-0.071458" x2="0.012971" y2="0.176075" style="stroke:rgb(246,147,147);stroke-width:0.01" />
<line x1="0.139198" y1="0.0535441" x2="0.137838" y2="0.190038" style="stroke:rgb(246,147,147);stroke-width:0.01" />
<line x1="0.0590947" y1="0.113492" x2="0.137838" y2="0.190038" style="stroke:rgb(246,147,147);stroke-width:0.01" />
<line x1="-0.234562" y1="-0.0714622" x2="-0.109562" y2="0.0535399" style="stroke:rgb(246,147,147);stroke-width:0.01" />
<line x1="0.012971" y1="0.176075" x2="0.0595524" y2="0.222657" style="stroke:rgb(246,147,147);stroke-width:0.01" />
<line x1="-0.234562" y1="-0.0714622" x2="0.0154382" y2="-0.071458" style="stroke:rgb(246,147,147);stroke-width:0.01" />
<line x1="0.15149" y1="0.0221561" x2="0.0590947" y2="0.113492" style="stroke:rgb(246,147,147);stroke-width:0.01" />
<line x1="-0.109562" y1="0.0535399" x2="0.139198" y2="0.0535441" style="stroke:rgb(246,147,147);stroke-width:0.01" />
<line x1="0.239368" y1="0.111053" x2="0.175224" y2="0.17446" style="stroke:rgb(246,147,147);stroke-width:0.01" />
<line x1="0.175224" y1="0.17446" x2="0.012971" y2="0.176075" style="stroke:rgb(246,147,147);stroke-width:0.01" />
<line x1="0.175224" y1="0.17446" x2="0.0595524" y2="0.222657" style="stroke:rgb(246,147,147);stroke-width:0.01" />
</g>
</svg>
