<svg xmlns="http://www.w3.org/2000/svg" viewBox="-1.5 -1.5 3 3">
<g transform="scale(1, -1)">
<path d="M0.000000 0.000000 L0.125000 0.000000 L0.125000 0.250002 L0.250000 0.250004 L0.364135 0.365284 L0.386052 0.343618 L0.473929 0.432515 L0.409786 0.495922 L0.294114 0.544119 L0.247533 0.497537 L0.248754 0.375004 L0.125000 0.375002 L0.000000 0.250000 z " fill="rgb(245,195,195)" />
<path d="M0.000000 0.000000 L1.000000 0.000000 L1.000000 1.000000 L0.000000 1.000000  z" fill="none" stroke="rgb(128,128,128)" stroke-width="0.01" />
<line x1="0.386052" y1="0.343618" x2="0.473929" y2="0.432515" style="stroke:rgb(246,147,147);stroke-width:0.01" />
<line x1="0.25" y1="0.250004" x2="0.37376" y2="0.375006" style="stroke:rgb(246,147,147);stroke-width:0.01" />
<line x1="0.293657" y1="0.434954" x2="0.294114" y2="0.544119" style="stroke:rgb(246,147,147);stroke-width:0.01" />
<line x1="0" y1="0" x2="0.125" y2="0" style="stroke:rgb(246,147,147);stroke-width:0.01" />
<line x1="0" y1="0" x2="0" y2="0.25" style="stroke:rgb(246,147,147);stroke-width:0.01" />
<line x1="0.125" y1="0" x2="0.125" y2="0.375002" style="stroke:rgb(246,147,147);stroke-width:0.01" />
<line x1="0.25" y1="0.250004" x2="0.247533" y2="0.497537" style="stroke:rgb(246,147,147);stroke-width:0.01" />
<line x1="0.37376" y1="0.375006" x2="0.3724" y2="0.5115" style="stroke:rgb(246,147,147);stroke-width:0.01" />
<line x1="0.293657" y1="0.434954" x2="0.3724" y2="0.5115" style="stroke:rgb(246,147,147);stroke-width:0.01" />
<line x1="0" y1="0.25" x2="0.125" y2="0.375002" style="stroke:rgb(246,147,147);stroke-width:0.01" />
<line x1="0.247533" y1="0.497537" x2="0.294114" y2="0.544119" style="stroke:rgb(246,147,147);stroke-width:0.01" />
<line x1="0" y1="0.25" x2="0.25" y2="0.250004" style="stroke:rgb(246,147,147);stroke-width:0.01" />
<line x1="0.386052" y1="0.343618" x2="0.293657" y2="0.434954" style="stroke:rgb(246,147,147);stroke-width:0.01" />
<line x1="0.125" y1="0.375002" x2="0.37376" y2="0.375006" style="stroke:rgb(246,147,147);stroke-width:0.01" />
<line x1="0.473929" y1="0.432515" x2="0.409786" y2="0.495922" style="stroke:rgb(246,147,147);stroke-width:0.01" />
<line x1="0.409786" y1="0.495922" x2="0.247533" y2="0.497537" style="stroke:rgb(246,147,147);stroke-width:0.01" />
<line x1="0.409786" y1="0.495922" x2="0.294114" y2="0.544119" style="stroke:rgb(246,147,147);stroke-width:0.01" />
</g>
</svg>
