<svg xmlns="http://www.w3.org/2000/svg" viewBox="-1.5 -1.5 3 3">
<g transform="scale(1, -1)">
<path d="M-0.221277 -0.348343 L-0.023063 -0.348343 L-0.023063 0.014157 L0.005160 0.007806 L0.003571 -0.002710 L0.003919 -0.002789 L0.002345 -0.013205 L0.002693 -0.013283 L0.001134 -0.023599 L0.001483 -0.023677 L-0.000061 -0.033892 L0.000287 -0.033970 L-0.001241 -0.044084 L0.068445 -0.059764 L0.069542 -0.054886 L0.071858 -0.039564 L0.072214 -0.039592 L0.073766 -0.029327 L0.074122 -0.029355 L0.075689 -0.018989 L0.076045 -0.019017 L0.077627 -0.008551 L0.077983 -0.008579 L0.104511 0.166940 L-0.070682 0.342133 L-0.130206 0.294514 L-0.138591 0.257247 L-0.254210 0.112722 z " fill="rgb(245,195,195)" />
<path d="M-1.023063 -0.348343 L-0.023063 -0.348343 L-0.023063 0.651657 L-1.023063 0.651657  z" fill="none" stroke="rgb(128,128,128)" stroke-width="0.01" />
<line x1="0.0684449" y1="-0.0597639" x2="0.0695425" y2="-0.0548859" style="stroke:rgb(246,147,147);stroke-width:0.01" />
<line x1="-0.25421" y1="0.112722" x2="-0.0706818" y2="0.342133" style="stroke:rgb(246,147,147);stroke-width:0.01" />
<line x1="-0.185084" y1="0.0506112" x2="-0.130206" y2="0.294514" style="stroke:rgb(246,147,147);stroke-width:0.01" />
<line x1="0.0779826" y1="-0.00857866" x2="0.104511" y2="0.16694" style="stroke:rgb(246,147,147);stroke-width:0.01" />
<line x1="0.0760446" y1="-0.019017" x2="0.104198" y2="0.167253" style="stroke:rgb(246,147,147);stroke-width:0.01" />
<line x1="0.0741219" y1="-0.0293547" x2="0.103885" y2="0.167566" style="stroke:rgb(246,147,147);stroke-width:0.01" />
<line x1="0.0722143" y1="-0.0395917" x2="0.103572" y2="0.167879" style="stroke:rgb(246,147,147);stroke-width:0.01" />
<line x1="0.0695425" y1="-0.0548859" x2="0.103259" y2="0.168192" style="stroke:rgb(246,147,147);stroke-width:0.01" />
<line x1="-0.0012415" y1="-0.0440845" x2="0.0403506" y2="0.2311" style="stroke:rgb(246,147,147);stroke-width:0.01" />
<line x1="-6.1249e-05" y1="-0.0338919" x2="0.0400376" y2="0.231413" style="stroke:rgb(246,147,147);stroke-width:0.01" />
<line x1="0.00113421" y1="-0.0235987" x2="0.0397246" y2="0.231726" style="stroke:rgb(246,147,147);stroke-width:0.01" />
<line x1="0.00234488" y1="-0.0132048" x2="0.0394117" y2="0.232039" style="stroke:rgb(246,147,147);stroke-width:0.01" />
<line x1="0.00357076" y1="-0.00271036" x2="0.0390987" y2="0.232352" style="stroke:rgb(246,147,147);stroke-width:0.01" />
<line x1="-0.221277" y1="-0.348343" x2="-0.147392" y2="-0.337734" style="stroke:rgb(246,147,147);stroke-width:0.01" />
<line x1="-0.221678" y1="-0.337734" x2="-0.1485" y2="-0.327227" style="stroke:rgb(246,147,147);stroke-width:0.01" />
<line x1="-0.222071" y1="-0.327227" x2="-0.1496" y2="-0.316821" style="stroke:rgb(246,147,147);stroke-width:0.01" />
<line x1="0.0695425" y1="-0.0548859" x2="0.0883136" y2="0.183137" style="stroke:rgb(246,147,147);stroke-width:0.01" />
<line x1="-0.222457" y1="-0.316821" x2="-0.150693" y2="-0.306516" style="stroke:rgb(246,147,147);stroke-width:0.01" />
<line x1="-0.222836" y1="-0.306516" x2="-0.151779" y2="-0.296313" style="stroke:rgb(246,147,147);stroke-width:0.01" />
<line x1="-0.223565" y1="-0.296313" x2="-0.153215" y2="-0.286211" style="stroke:rgb(246,147,147);stroke-width:0.01" />
<line x1="-0.130206" y1="0.294514" x2="-0.0706818" y2="0.342133" style="stroke:rgb(246,147,147);stroke-width:0.01" />
<line x1="-0.221277" y1="-0.348343" x2="-0.0230627" y2="-0.348343" style="stroke:rgb(246,147,147);stroke-width:0.01" />
<line x1="-0.0230627" y1="-0.348343" x2="-0.0230627" y2="0.294514" style="stroke:rgb(246,147,147);stroke-width:0.01" />
<line x1="-0.221678" y1="-0.337734" x2="-0.147392" y2="-0.337734" style="stroke:rgb(246,147,147);stroke-width:0.01" />
<line x1="-0.222071" y1="-0.327227" x2="-0.1485" y2="-0.327227" style="stroke:rgb(246,147,147);stroke-width:0.01" />
<line x1="-0.222457" y1="-0.316821" x2="-0.1496" y2="-0.316821" style="stroke:rgb(246,147,147);stroke-width:0.01" />
<line x1="-0.222836" y1="-0.306516" x2="-0.150693" y2="-0.306516" style="stroke:rgb(246,147,147);stroke-width:0.01" />
<line x1="-0.223565" y1="-0.296313" x2="-0.151779" y2="-0.296313" style="stroke:rgb(246,147,147);stroke-width:0.01" />
<line x1="-0.221277" y1="-0.348343" x2="-0.25421" y2="0.112722" style="stroke:rgb(246,147,147);stroke-width:0.01" />
<line x1="-0.221678" y1="-0.337734" x2="-0.253882" y2="0.113132" style="stroke:rgb(246,147,147);stroke-width:0.01" />
<line x1="-0.222071" y1="-0.327227" x2="-0.253555" y2="0.113542" style="stroke:rgb(246,147,147);stroke-width:0.01" />
<line x1="-0.222457" y1="-0.316821" x2="-0.253227" y2="0.113952" style="stroke:rgb(246,147,147);stroke-width:0.01" />
<line x1="-0.222836" y1="-0.306516" x2="-0.252899" y2="0.114361" style="stroke:rgb(246,147,147);stroke-width:0.01" />
<line x1="-0.151779" y1="-0.296313" x2="-0.186997" y2="0.196739" style="stroke:rgb(246,147,147);stroke-width:0.01" />
<line x1="-0.150693" y1="-0.306516" x2="-0.186669" y2="0.197148" style="stroke:rgb(246,147,147);stroke-width:0.01" />
<line x1="-0.1496" y1="-0.316821" x2="-0.186341" y2="0.197558" style="stroke:rgb(246,147,147);stroke-width:0.01" />
<line x1="-0.1485" y1="-0.327227" x2="-0.186014" y2="0.197968" style="stroke:rgb(246,147,147);stroke-width:0.01" />
<line x1="-0.147392" y1="-0.337734" x2="-0.185686" y2="0.198378" style="stroke:rgb(246,147,147);stroke-width:0.01" />
<line x1="-0.153215" y1="-0.286211" x2="-0.21715" y2="0.159048" style="stroke:rgb(246,147,147);stroke-width:0.01" />
<line x1="-0.25421" y1="0.112722" x2="0.104511" y2="0.16694" style="stroke:rgb(246,147,147);stroke-width:0.01" />
<line x1="-0.253882" y1="0.113132" x2="0.104198" y2="0.167253" style="stroke:rgb(246,147,147);stroke-width:0.01" />
<line x1="-0.253555" y1="0.113542" x2="0.103885" y2="0.167566" style="stroke:rgb(246,147,147);stroke-width:0.01" />
<line x1="-0.253227" y1="0.113952" x2="0.103572" y2="0.167879" style="stroke:rgb(246,147,147);stroke-width:0.01" />
<line x1="-0.252899" y1="0.114361" x2="0.103259" y2="0.168192" style="stroke:rgb(246,147,147);stroke-width:0.01" />
<line x1="0.070322" y1="-0.0497281" x2="-0.0012415" y2="-0.0440845" style="stroke:rgb(246,147,147);stroke-width:0.01" />
<line x1="0.0722143" y1="-0.0395917" x2="-6.1249e-05" y2="-0.0338919" style="stroke:rgb(246,147,147);stroke-width:0.01" />
<line x1="0.0741219" y1="-0.0293547" x2="0.00113421" y2="-0.0235987" style="stroke:rgb(246,147,147);stroke-width:0.01" />
<line x1="-0.186997" y1="0.196739" x2="0.0403506" y2="0.2311" style="stroke:rgb(246,147,147);stroke-width:0.01" />
<line x1="-0.186669" y1="0.197148" x2="0.0400376" y2="0.231413" style="stroke:rgb(246,147,147);stroke-width:0.01" />
<line x1="-0.186341" y1="0.197558" x2="0.0397246" y2="0.231726" style="stroke:rgb(246,147,147);stroke-width:0.01" />
<line x1="-0.186014" y1="0.197968" x2="0.0394117" y2="0.232039" style="stroke:rgb(246,147,147);stroke-width:0.01" />
<line x1="-0.185686" y1="0.198378" x2="0.0390987" y2="0.232352" style="stroke:rgb(246,147,147);stroke-width:0.01" />
<line x1="0.0760446" y1="-0.019017" x2="0.00234488" y2="-0.0132048" style="stroke:rgb(246,147,147);stroke-width:0.01" />
<line x1="0.0779826" y1="-0.00857866" x2="0.00357076" y2="-0.00271036" style="stroke:rgb(246,147,147);stroke-width:0.01" />
<line x1="-0.21715" y1="0.159048" x2="0.0883136" y2="0.183137" style="stroke:rgb(246,147,147);stroke-width:0.01" />
<line x1="0.0684449" y1="-0.0597639" x2="-0.0012415" y2="-0.0440845" style="stroke:rgb(246,147,147);stroke-width:0.01" />
<line x1="0.070322" y1="-0.0497281" x2="-6.1249e-05" y2="-0.0338919" style="stroke:rgb(246,147,147);stroke-width:0.01" />
<line x1="0.0722143" y1="-0.0395917" x2="0.00113421" y2="-0.0235987" style="stroke:rgb(246,147,147);stroke-width:0.01" />
<line x1="0.0741219" y1="-0.0293547" x2="0.00234488" y2="-0.0132048" style="stroke:rgb(246,147,147);stroke-width:0.01" />
<line x1="0.0760446" y1="-0.019017" x2="0.00357076" y2="-0.00271036" style="stroke:rgb(246,147,147);stroke-width:0.01" />
<line x1="0.0779826" y1="-0.00857866" x2="-0.185084" y2="0.0506112" style="stroke:rgb(246,147,147);stroke-width:0.01" />
<line x1="-0.130206" y1="0.294514" x2="-0.0230627" y2="0.294514" style="stroke:rgb(246,147,147);stroke-width:0.01" />
<line x1="0.104511" y1="0.16694" x2="-0.0706818" y2="0.342133" style="stroke:rgb(246,147,147);stroke-width:0.01" />
</g>
</svg>
