<svg xmlns="http://www.w3.org/2000/svg" viewBox="-1.5 -1.5 3 3">
<g transform="scale(1, -1)">
<path d="M0.000000 0.000000 L0.125000 0.000000 L0.125000 0.250000 L0.250000 0.250000 L0.315967 0.315967 L0.375278 0.268653 L0.453229 0.366370 L0.375000 0.428775 L0.375000 0.468750 L0.259259 0.509259 L0.250000 0.500000 L0.250000 0.375000 L0.125000 0.375000 L0.000000 0.250000 z " fill="rgb(245,195,195)" />
<path d="M0.000000 0.000000 L1.000000 0.000000 L1.000000 1.000000 L0.000000 1.000000  z" fill="none" stroke="rgb(128,128,128)" stroke-width="0.01" />
<line x1="0.375278" y1="0.268653" x2="0.453229" y2="0.36637" style="stroke:rgb(246,147,147);stroke-width:0.01" />
<line x1="0.277561" y1="0.346604" x2="0.375" y2="0.46875" style="stroke:rgb(246,147,147);stroke-width:0.01" />
<line x1="0" y1="0" x2="0.125" y2="0" style="stroke:rgb(246,147,147);stroke-width:0.01" />
<line x1="0.25" y1="0.25" x2="0.375" y2="0.375" style="stroke:rgb(246,147,147);stroke-width:0.01" />
<line x1="0" y1="0" x2="0" y2="0.25" style="stroke:rgb(246,147,147);stroke-width:0.01" />
<line x1="0.125" y1="0" x2="0.125" y2="0.375" style="stroke:rgb(246,147,147);stroke-width:0.01" />
<line x1="0.25" y1="0.25" x2="0.25" y2="0.5" style="stroke:rgb(246,147,147);stroke-width:0.01" />
<line x1="0.375" y1="0.375" x2="0.375" y2="0.46875" style="stroke:rgb(246,147,147);stroke-width:0.01" />
<line x1="0.277561" y1="0.346604" x2="0.259259" y2="0.509259" style="stroke:rgb(246,147,147);stroke-width:0.01" />
<line x1="0" y1="0.25" x2="0.125" y2="0.375" style="stroke:rgb(246,147,147);stroke-width:0.01" />
<line x1="0.25" y1="0.5" x2="0.259259" y2="0.509259" style="stroke:rgb(246,147,147);stroke-width:0.01" />
<line x1="0" y1="0.25" x2="0.25" y2="0.25" style="stroke:rgb(246,147,147);stroke-width:0.01" />
<line x1="0.375278" y1="0.268653" x2="0.277561" y2="0.346604" style="stroke:rgb(246,147,147);stroke-width:0.01" />
<line x1="0.125" y1="0.375" x2="0.375" y2="0.375" style="stroke:rgb(246,147,147);stroke-width:0.01" />
<line x1="0.453229" y1="0.36637" x2="0.285714" y2="0.5" style="stroke:rgb(246,147,147);stroke-width:0.01" />
<line x1="0.25" y1="0.5" x2="0.285714" y2="0.5" style="stroke:rgb(246,147,147);stroke-width:0.01" />
<line x1="0.375" y1="0.46875" x2="0.259259" y2="0.509259" style="stroke:rgb(246,147,147);stroke-width:0.01" />
</g>
</svg>
