<svg xmlns="http://www.w3.org/2000/svg" viewBox="-1.5 -1.5 3 3">
<g transform="scale(1, -1)">
<path d="M-0.234195 -0.311270 L-0.109195 -0.311270 L-0.109195 -0.061270 L0.015805 -0.061270 L0.081771 0.004697 L0.141083 -0.042617 L0.219034 0.055100 L0.140805 0.117505 L0.140805 0.157480 L0.025064 0.197990 L0.015805 0.188730 L0.015805 0.063730 L-0.109195 0.063730 L-0.234195 -0.061270 z " fill="rgb(245,195,195)" />
<path d="M-0.234195 -0.311270 L0.765805 -0.311270 L0.765805 0.688730 L-0.234195 0.688730  z" fill="none" stroke="rgb(128,128,128)" stroke-width="0.01" />
<line x1="0.141083" y1="-0.042617" x2="0.219034" y2="0.0551002" style="stroke:rgb(246,147,147);stroke-width:0.01" />
<line x1="0.043366" y1="0.0353341" x2="0.140805" y2="0.15748" style="stroke:rgb(246,147,147);stroke-width:0.01" />
<line x1="-0.234195" y1="-0.31127" x2="-0.109195" y2="-0.31127" style="stroke:rgb(246,147,147);stroke-width:0.01" />
<line x1="0.0158047" y1="-0.0612695" x2="0.140805" y2="0.0637305" style="stroke:rgb(246,147,147);stroke-width:0.01" />
<line x1="-0.234195" y1="-0.31127" x2="-0.234195" y2="-0.0612695" style="stroke:rgb(246,147,147);stroke-width:0.01" />
<line x1="-0.109195" y1="-0.31127" x2="-0.109195" y2="0.0637305" style="stroke:rgb(246,147,147);stroke-width:0.01" />
<line x1="0.0158047" y1="-0.0612695" x2="0.0158047" y2="0.18873" style="stroke:rgb(246,147,147);stroke-width:0.01" />
<line x1="0.140805" y1="0.0637305" x2="0.140805" y2="0.15748" style="stroke:rgb(246,147,147);stroke-width:0.01" />
<line x1="0.043366" y1="0.0353341" x2="0.025064" y2="0.19799" style="stroke:rgb(246,147,147);stroke-width:0.01" />
<line x1="-0.234195" y1="-0.0612695" x2="-0.109195" y2="0.0637305" style="stroke:rgb(246,147,147);stroke-width:0.01" />
<line x1="0.0158047" y1="0.18873" x2="0.025064" y2="0.19799" style="stroke:rgb(246,147,147);stroke-width:0.01" />
<line x1="-0.234195" y1="-0.0612695" x2="0.0158047" y2="-0.0612695" style="stroke:rgb(246,147,147);stroke-width:0.01" />
<line x1="0.141083" y1="-0.042617" x2="0.043366" y2="0.0353341" style="stroke:rgb(246,147,147);stroke-width:0.01" />
<line x1="-0.109195" y1="0.0637305" x2="0.140805" y2="0.0637305" style="stroke:rgb(246,147,147);stroke-width:0.01" />
<line x1="0.219034" y1="0.0551002" x2="0.051519" y2="0.18873" style="stroke:rgb(246,147,147);stroke-width:0.01" />
<line x1="0.0158047" y1="0.18873" x2="0.051519" y2="0.18873" style="stroke:rgb(246,147,147);stroke-width:0.01" />
<line x1="0.140805" y1="0.15748" x2="0.025064" y2="0.19799" style="stroke:rgb(246,147,147);stroke-width:0.01" />
</g>
</svg>
