<svg xmlns="http://www.w3.org/2000/svg" viewBox="-1.5 -1.5 3 3">
<g transform="scale(1, -1)">
<path d="M0.347236 0.759749 L0.715773 1.459969 L0.625059 1.547535 L0.569361 1.489834 L-0.140512 1.634632 L-0.239662 1.148548 L0.000000 0.989780 L0.000000 0.900000 z " fill="rgb(245,195,195)" />
<path d="M0.000000 0.000000 L1.000000 0.000000 L1.000000 1.000000 L0.000000 1.000000  z" fill="none" stroke="rgb(128,128,128)" stroke-width="0.01" />
<line x1="0" y1="0.9" x2="0" y2="1" style="stroke:rgb(246,147,147);stroke-width:0.01" />
<line x1="0.347236" y1="0.759749" x2="0.715773" y2="1.45997" style="stroke:rgb(246,147,147);stroke-width:0.01" />
<line x1="-0.239662" y1="1.14855" x2="-0.140512" y2="1.63463" style="stroke:rgb(246,147,147);stroke-width:0.01" />
<line x1="0" y1="0.9" x2="0.625059" y2="1.54753" style="stroke:rgb(246,147,147);stroke-width:0.01" />
<line x1="0.473684" y1="1" x2="0.175705" y2="1.43384" style="stroke:rgb(246,147,147);stroke-width:0.01" />
<line x1="0.347236" y1="0.759749" x2="-0.239662" y2="1.14855" style="stroke:rgb(246,147,147);stroke-width:0.01" />
<line x1="0.347236" y1="0.759749" x2="0" y2="0.9" style="stroke:rgb(246,147,147);stroke-width:0.01" />
<line x1="-0.239662" y1="1.14855" x2="0.175705" y2="1.43384" style="stroke:rgb(246,147,147);stroke-width:0.01" />
<line x1="0" y1="1" x2="0.473684" y2="1" style="stroke:rgb(246,147,147);stroke-width:0.01" />
<line x1="0.715773" y1="1.45997" x2="0.625059" y2="1.54753" style="stroke:rgb(246,147,147);stroke-width:0.01" />
<line x1="0.715773" y1="1.45997" x2="-0.140512" y2="1.63463" style="stroke:rgb(246,147,147);stroke-width:0.01" />
</g>
</svg>
