<svg xmlns="http://www.w3.org/2000/svg" viewBox="-1.5 -1.5 3 3">
<g transform="scale(1, -1)">
<path d="M0.112579 -0.481507 L0.481116 0.218713 L0.390402 0.306279 L0.334704 0.248578 L-0.375169 0.393376 L-0.474319 -0.092708 L-0.234657 -0.251476 L-0.234657 -0.341256 z " fill="rgb(245,195,195)" />
<path d="M-0.234657 -1.241256 L0.765343 -1.241256 L0.765343 -0.241256 L-0.234657 -0.241256  z" fill="none" stroke="rgb(128,128,128)" stroke-width="0.01" />
<line x1="-0.234657" y1="-0.341256" x2="-0.234657" y2="-0.241256" style="stroke:rgb(246,147,147);stroke-width:0.01" />
<line x1="0.112579" y1="-0.481507" x2="0.481116" y2="0.218713" style="stroke:rgb(246,147,147);stroke-width:0.01" />
<line x1="-0.474319" y1="-0.0927082" x2="-0.375169" y2="0.393376" style="stroke:rgb(246,147,147);stroke-width:0.01" />
<line x1="-0.234657" y1="-0.341256" x2="0.390402" y2="0.306279" style="stroke:rgb(246,147,147);stroke-width:0.01" />
<line x1="0.239027" y1="-0.241256" x2="-0.0589519" y2="0.192584" style="stroke:rgb(246,147,147);stroke-width:0.01" />
<line x1="0.112579" y1="-0.481507" x2="-0.474319" y2="-0.0927082" style="stroke:rgb(246,147,147);stroke-width:0.01" />
<line x1="0.112579" y1="-0.481507" x2="-0.234657" y2="-0.341256" style="stroke:rgb(246,147,147);stroke-width:0.01" />
<line x1="-0.474319" y1="-0.0927082" x2="-0.0589519" y2="0.192584" style="stroke:rgb(246,147,147);stroke-width:0.01" />
<line x1="-0.234657" y1="-0.241256" x2="0.239027" y2="-0.241256" style="stroke:rgb(246,147,147);stroke-width:0.01" />
<line x1="0.481116" y1="0.218713" x2="0.390402" y2="0.306279" style="stroke:rgb(246,147,147);stroke-width:0.01" />
<line x1="0.481116" y1="0.218713" x2="-0.375169" y2="0.393376" style="stroke:rgb(246,147,147);stroke-width:0.01" />
</g>
</svg>
