<svg xmlns="http://www.w3.org/2000/svg" viewBox="-1.5 -1.5 3 3">
<g transform="scale(1, -1)">
<path d="M5.346674 6.440075 L6.025666 6.507177 L5.954456 7.227730 L5.972696 7.232082 L5.940824 7.365664 L5.211809 7.243252 z " fill="rgb(245,195,195)" />
<path d="M0.000000 0.000000 L1.000000 0.000000 L1.000000 1.000000 L0.000000 1.000000  z" fill="none" stroke="rgb(128,128,128)" stroke-width="0.01" />
<line x1="5.49145" y1="7.08252" x2="5.47126" y2="7.28682" style="stroke:rgb(246,147,147);stroke-width:0.01" />
<line x1="6.02567" y1="6.50718" x2="5.94082" y2="7.36566" style="stroke:rgb(246,147,147);stroke-width:0.01" />
<line x1="5.34667" y1="6.44007" x2="5.21181" y2="7.24325" style="stroke:rgb(246,147,147);stroke-width:0.01" />
<line x1="5.6557" y1="6.51381" x2="5.47126" y2="7.28682" style="stroke:rgb(246,147,147);stroke-width:0.01" />
<line x1="5.9727" y1="7.23208" x2="5.94082" y2="7.36566" style="stroke:rgb(246,147,147);stroke-width:0.01" />
<line x1="5.34667" y1="6.44007" x2="5.6557" y2="6.51381" style="stroke:rgb(246,147,147);stroke-width:0.01" />
<line x1="5.24292" y1="7.05796" x2="5.9727" y2="7.23208" style="stroke:rgb(246,147,147);stroke-width:0.01" />
<line x1="5.34667" y1="6.44007" x2="6.02567" y2="6.50718" style="stroke:rgb(246,147,147);stroke-width:0.01" />
<line x1="5.21181" y1="7.24325" x2="5.94082" y2="7.36566" style="stroke:rgb(246,147,147);stroke-width:0.01" />
<line x1="5.24292" y1="7.05796" x2="5.49145" y2="7.08252" style="stroke:rgb(246,147,147);stroke-width:0.01" />
</g>
</svg>
