<svg xmlns="http://www.w3.org/2000/svg" viewBox="-1.5 -1.5 3 3">
<g transform="scale(1, -1)">
<path d="M-0.395347 -0.562589 L0.283645 -0.495486 L0.212435 0.225067 L0.230675 0.229419 L0.198803 0.363001 L-0.530212 0.240589 z " fill="rgb(245,195,195)" />
<path d="M-5.742021 -7.002663 L-4.742021 -7.002663 L-4.742021 -6.002663 L-5.742021 -6.002663  z" fill="none" stroke="rgb(128,128,128)" stroke-width="0.01" />
<line x1="-0.250568" y1="0.0798587" x2="-0.270758" y2="0.284154" style="stroke:rgb(246,147,147);stroke-width:0.01" />
<line x1="0.283645" y1="-0.495486" x2="0.198803" y2="0.363001" style="stroke:rgb(246,147,147);stroke-width:0.01" />
<line x1="-0.395347" y1="-0.562589" x2="-0.530212" y2="0.240589" style="stroke:rgb(246,147,147);stroke-width:0.01" />
<line x1="-0.0863208" y1="-0.488856" x2="-0.270758" y2="0.284154" style="stroke:rgb(246,147,147);stroke-width:0.01" />
<line x1="0.230675" y1="0.229419" x2="0.198803" y2="0.363001" style="stroke:rgb(246,147,147);stroke-width:0.01" />
<line x1="-0.395347" y1="-0.562589" x2="-0.0863208" y2="-0.488856" style="stroke:rgb(246,147,147);stroke-width:0.01" />
<line x1="-0.499099" y1="0.0552972" x2="0.230675" y2="0.229419" style="stroke:rgb(246,147,147);stroke-width:0.01" />
<line x1="-0.395347" y1="-0.562589" x2="0.283645" y2="-0.495486" style="stroke:rgb(246,147,147);stroke-width:0.01" />
<line x1="-0.530212" y1="0.240589" x2="0.198803" y2="0.363001" style="stroke:rgb(246,147,147);stroke-width:0.01" />
<line x1="-0.499099" y1="0.0552972" x2="-0.250568" y2="0.0798587" style="stroke:rgb(246,147,147);stroke-width:0.01" />
</g>
</svg>
