<svg xmlns="http://www.w3.org/2000/svg" viewBox="-1.5 -1.5 3 3">
<g transform="scale(1, -1)">
<path d="M5.141375 7.034426 L5.285154 7.056781 L5.283258 7.068975 L5.971609 7.236593 L5.812991 7.887984 L5.003507 7.726796 z " fill="rgb(245,195,195)" />
<path d="M0.000000 0.000000 L1.000000 0.000000 L1.000000 1.000000 L0.000000 1.000000  z" fill="none" stroke="rgb(128,128,128)" stroke-width="0.01" />
<line x1="5.28515" y1="7.05678" x2="5.17565" y2="7.76107" style="stroke:rgb(246,147,147);stroke-width:0.01" />
<line x1="5.86363" y1="7.56232" x2="5.81299" y2="7.88798" style="stroke:rgb(246,147,147);stroke-width:0.01" />
<line x1="5.14138" y1="7.03443" x2="5.00351" y2="7.7268" style="stroke:rgb(246,147,147);stroke-width:0.01" />
<line x1="5.24361" y1="7.48198" x2="5.17565" y2="7.76107" style="stroke:rgb(246,147,147);stroke-width:0.01" />
<line x1="5.97161" y1="7.23659" x2="5.81299" y2="7.88798" style="stroke:rgb(246,147,147);stroke-width:0.01" />
<line x1="5.14138" y1="7.03443" x2="5.97161" y2="7.23659" style="stroke:rgb(246,147,147);stroke-width:0.01" />
<line x1="5.0611" y1="7.43754" x2="5.24361" y2="7.48198" style="stroke:rgb(246,147,147);stroke-width:0.01" />
<line x1="5.14138" y1="7.03443" x2="5.28515" y2="7.05678" style="stroke:rgb(246,147,147);stroke-width:0.01" />
<line x1="5.00351" y1="7.7268" x2="5.81299" y2="7.88798" style="stroke:rgb(246,147,147);stroke-width:0.01" />
<line x1="5.0611" y1="7.43754" x2="5.86363" y2="7.56232" style="stroke:rgb(246,147,147);stroke-width:0.01" />
</g>
</svg>
