<svg xmlns="http://www.w3.org/2000/svg" viewBox="-1.5 -1.5 3 3">
<g transform="scale(1, -1)">
<path d="M-0.274940 -0.300833 L-0.131162 -0.278478 L-0.133058 -0.266284 L0.555293 -0.098666 L0.396675 0.552725 L-0.412809 0.391537 z " fill="rgb(245,195,195)" />
<path d="M-5.416316 -7.335259 L-4.416316 -7.335259 L-4.416316 -6.335259 L-5.416316 -6.335259  z" fill="none" stroke="rgb(128,128,128)" stroke-width="0.01" />
<line x1="-0.131162" y1="-0.278478" x2="-0.240669" y2="0.425814" style="stroke:rgb(246,147,147);stroke-width:0.01" />
<line x1="0.447311" y1="0.227064" x2="0.396675" y2="0.552725" style="stroke:rgb(246,147,147);stroke-width:0.01" />
<line x1="-0.27494" y1="-0.300833" x2="-0.412809" y2="0.391537" style="stroke:rgb(246,147,147);stroke-width:0.01" />
<line x1="-0.172708" y1="0.146724" x2="-0.240669" y2="0.425814" style="stroke:rgb(246,147,147);stroke-width:0.01" />
<line x1="0.555293" y1="-0.0986662" x2="0.396675" y2="0.552725" style="stroke:rgb(246,147,147);stroke-width:0.01" />
<line x1="-0.27494" y1="-0.300833" x2="0.555293" y2="-0.0986662" style="stroke:rgb(246,147,147);stroke-width:0.01" />
<line x1="-0.355211" y1="0.102283" x2="-0.172708" y2="0.146724" style="stroke:rgb(246,147,147);stroke-width:0.01" />
<line x1="-0.27494" y1="-0.300833" x2="-0.131162" y2="-0.278478" style="stroke:rgb(246,147,147);stroke-width:0.01" />
<line x1="-0.412809" y1="0.391537" x2="0.396675" y2="0.552725" style="stroke:rgb(246,147,147);stroke-width:0.01" />
<line x1="-0.355211" y1="0.102283" x2="0.447311" y2="0.227064" style="stroke:rgb(246,147,147);stroke-width:0.01" />
</g>
</svg>
