<svg xmlns="http://www.w3.org/2000/svg" viewBox="-1.5 -1.5 3 3">
<g transform="scale(1, -1)">
<path d="M-0.090331 -0.424376 L-0.000314 -0.401514 L-0.015140 -0.343138 L0.525848 0.241355 L0.091680 0.643207 L-0.511744 0.284466 z " fill="rgb(245,195,195)" />
<path d="M-5.969544 -7.647668 L-4.969544 -7.647668 L-4.969544 -6.647668 L-5.969544 -6.647668  z" fill="none" stroke="rgb(128,128,128)" stroke-width="0.01" />
<line x1="-0.0903313" y1="-0.424376" x2="0.525848" y2="0.241355" style="stroke:rgb(246,147,147);stroke-width:0.01" />
<line x1="-0.400238" y1="0.0969067" x2="-0.136178" y2="0.382202" style="stroke:rgb(246,147,147);stroke-width:0.01" />
<line x1="-0.000313667" y1="-0.401514" x2="-0.218767" y2="0.458644" style="stroke:rgb(246,147,147);stroke-width:0.01" />
<line x1="0.19221" y1="0.24737" x2="0.0916803" y2="0.643207" style="stroke:rgb(246,147,147);stroke-width:0.01" />
<line x1="-0.511744" y1="0.284466" x2="0.0916803" y2="0.643207" style="stroke:rgb(246,147,147);stroke-width:0.01" />
<line x1="-0.0903313" y1="-0.424376" x2="-0.511744" y2="0.284466" style="stroke:rgb(246,147,147);stroke-width:0.01" />
<line x1="-0.0903313" y1="-0.424376" x2="-0.000313667" y2="-0.401514" style="stroke:rgb(246,147,147);stroke-width:0.01" />
<line x1="-0.400238" y1="0.0969067" x2="0.19221" y2="0.24737" style="stroke:rgb(246,147,147);stroke-width:0.01" />
<line x1="-0.136178" y1="0.382202" x2="-0.218767" y2="0.458644" style="stroke:rgb(246,147,147);stroke-width:0.01" />
<line x1="0.525848" y1="0.241355" x2="0.0916803" y2="0.643207" style="stroke:rgb(246,147,147);stroke-width:0.01" />
</g>
</svg>
