<svg xmlns="http://www.w3.org/2000/svg" viewBox="-1.5 -1.5 3 3">
<g transform="scale(1, -1)">
<path d="M-0.520035 -0.358631 L0.326227 -0.208970 L0.290901 -0.009218 L0.323421 -0.000588 L0.221367 0.383965 L-0.641880 0.193442 z " fill="rgb(245,195,195)" />
<path d="M-6.350676 -7.579071 L-5.350676 -7.579071 L-5.350676 -6.579071 L-6.350676 -6.579071  z" fill="none" stroke="rgb(128,128,128)" stroke-width="0.01" />
<line x1="-0.451121" y1="-0.214718" x2="-0.527758" y2="0.21863" style="stroke:rgb(246,147,147);stroke-width:0.01" />
<line x1="0.326227" y1="-0.20897" x2="0.221367" y2="0.383965" style="stroke:rgb(246,147,147);stroke-width:0.01" />
<line x1="-0.520035" y1="-0.358631" x2="-0.64188" y2="0.193442" style="stroke:rgb(246,147,147);stroke-width:0.01" />
<line x1="-0.384133" y1="-0.322565" x2="-0.527758" y2="0.21863" style="stroke:rgb(246,147,147);stroke-width:0.01" />
<line x1="0.323421" y1="-0.000587523" x2="0.221367" y2="0.383965" style="stroke:rgb(246,147,147);stroke-width:0.01" />
<line x1="-0.520035" y1="-0.358631" x2="-0.384133" y2="-0.322565" style="stroke:rgb(246,147,147);stroke-width:0.01" />
<line x1="-0.548016" y1="-0.231853" x2="0.323421" y2="-0.000587523" style="stroke:rgb(246,147,147);stroke-width:0.01" />
<line x1="-0.520035" y1="-0.358631" x2="0.326227" y2="-0.20897" style="stroke:rgb(246,147,147);stroke-width:0.01" />
<line x1="-0.548016" y1="-0.231853" x2="-0.451121" y2="-0.214718" style="stroke:rgb(246,147,147);stroke-width:0.01" />
<line x1="-0.64188" y1="0.193442" x2="0.221367" y2="0.383965" style="stroke:rgb(246,147,147);stroke-width:0.01" />
</g>
</svg>
