<svg xmlns="http://www.w3.org/2000/svg" viewBox="-1.5 -1.5 3 3">
<g transform="scale(1, -1)">
<path d="M5.889667 6.762600 L5.890921 6.870475 L6.108322 6.929498 L5.949537 7.514356 L5.423157 7.447282 L5.509840 6.767014 z " fill="rgb(245,195,195)" />
<path d="M0.000000 0.000000 L1.000000 0.000000 L1.000000 1.000000 L0.000000 1.000000  z" fill="none" stroke="rgb(128,128,128)" stroke-width="0.01" />
<line x1="5.94496" y1="7.12041" x2="5.94954" y2="7.51436" style="stroke:rgb(246,147,147);stroke-width:0.01" />
<line x1="5.88967" y1="6.7626" x2="5.89833" y2="7.50783" style="stroke:rgb(246,147,147);stroke-width:0.01" />
<line x1="5.50984" y1="6.76701" x2="5.42316" y2="7.44728" style="stroke:rgb(246,147,147);stroke-width:0.01" />
<line x1="5.96507" y1="7.26201" x2="5.89833" y2="7.50783" style="stroke:rgb(246,147,147);stroke-width:0.01" />
<line x1="6.10832" y1="6.9295" x2="5.94954" y2="7.51436" style="stroke:rgb(246,147,147);stroke-width:0.01" />
<line x1="5.50984" y1="6.76701" x2="6.10832" y2="6.9295" style="stroke:rgb(246,147,147);stroke-width:0.01" />
<line x1="5.4641" y1="7.126" x2="5.96507" y2="7.26201" style="stroke:rgb(246,147,147);stroke-width:0.01" />
<line x1="5.42316" y1="7.44728" x2="5.94954" y2="7.51436" style="stroke:rgb(246,147,147);stroke-width:0.01" />
<line x1="5.88967" y1="6.7626" x2="5.50984" y2="6.76701" style="stroke:rgb(246,147,147);stroke-width:0.01" />
<line x1="5.94496" y1="7.12041" x2="5.4641" y2="7.126" style="stroke:rgb(246,147,147);stroke-width:0.01" />
</g>
</svg>
