<svg xmlns="http://www.w3.org/2000/svg" viewBox="-1.5 -1.5 3 3">
<g transform="scale(1, -1)">
<path d="M0.094427 -0.285937 L0.095680 -0.178063 L0.313082 -0.119040 L0.154297 0.465818 L-0.372084 0.398744 L-0.285401 -0.281523 z " fill="rgb(245,195,195)" />
<path d="M-5.795241 -7.048537 L-4.795241 -7.048537 L-4.795241 -6.048537 L-5.795241 -6.048537  z" fill="none" stroke="rgb(128,128,128)" stroke-width="0.01" />
<line x1="0.149719" y1="0.0718739" x2="0.154297" y2="0.465818" style="stroke:rgb(246,147,147);stroke-width:0.01" />
<line x1="0.0944266" y1="-0.285937" x2="0.103086" y2="0.459293" style="stroke:rgb(246,147,147);stroke-width:0.01" />
<line x1="-0.285401" y1="-0.281523" x2="-0.372084" y2="0.398744" style="stroke:rgb(246,147,147);stroke-width:0.01" />
<line x1="0.169825" y1="0.213471" x2="0.103086" y2="0.459293" style="stroke:rgb(246,147,147);stroke-width:0.01" />
<line x1="0.313082" y1="-0.11904" x2="0.154297" y2="0.465818" style="stroke:rgb(246,147,147);stroke-width:0.01" />
<line x1="-0.285401" y1="-0.281523" x2="0.313082" y2="-0.11904" style="stroke:rgb(246,147,147);stroke-width:0.01" />
<line x1="-0.331144" y1="0.0774616" x2="0.169825" y2="0.213471" style="stroke:rgb(246,147,147);stroke-width:0.01" />
<line x1="-0.372084" y1="0.398744" x2="0.154297" y2="0.465818" style="stroke:rgb(246,147,147);stroke-width:0.01" />
<line x1="0.0944266" y1="-0.285937" x2="-0.285401" y2="-0.281523" style="stroke:rgb(246,147,147);stroke-width:0.01" />
<line x1="0.149719" y1="0.0718739" x2="-0.331144" y2="0.0774616" style="stroke:rgb(246,147,147);stroke-width:0.01" />
</g>
</svg>
