<svg xmlns="http://www.w3.org/2000/svg" viewBox="-1.5 -1.5 3 3">
<g transform="scale(1, -1)">
<path d="M5.932008 6.395840 L5.942710 7.274957 L5.960000 7.280000 L5.943461 7.336704 L5.123886 7.224707 L5.235995 6.404313 z " fill="rgb(245,195,195)" />
<path d="M0.000000 0.000000 L1.000000 0.000000 L1.000000 1.000000 L0.000000 1.000000  z" fill="none" stroke="rgb(128,128,128)" stroke-width="0.01" />
<line x1="5.93201" y1="6.39584" x2="5.94346" y2="7.3367" style="stroke:rgb(246,147,147);stroke-width:0.01" />
<line x1="5.30352" y1="7.04148" x2="5.30605" y2="7.2496" style="stroke:rgb(246,147,147);stroke-width:0.01" />
<line x1="5.23599" y1="6.40431" x2="5.12389" y2="7.22471" style="stroke:rgb(246,147,147);stroke-width:0.01" />
<line x1="5.52777" y1="6.48941" x2="5.30605" y2="7.2496" style="stroke:rgb(246,147,147);stroke-width:0.01" />
<line x1="5.96" y1="7.28" x2="5.94346" y2="7.3367" style="stroke:rgb(246,147,147);stroke-width:0.01" />
<line x1="5.23599" y1="6.40431" x2="5.52777" y2="6.48941" style="stroke:rgb(246,147,147);stroke-width:0.01" />
<line x1="5.14867" y1="7.04336" x2="5.96" y2="7.28" style="stroke:rgb(246,147,147);stroke-width:0.01" />
<line x1="5.12389" y1="7.22471" x2="5.94346" y2="7.3367" style="stroke:rgb(246,147,147);stroke-width:0.01" />
<line x1="5.93201" y1="6.39584" x2="5.23599" y2="6.40431" style="stroke:rgb(246,147,147);stroke-width:0.01" />
<line x1="5.30352" y1="7.04148" x2="5.14867" y2="7.04336" style="stroke:rgb(246,147,147);stroke-width:0.01" />
</g>
</svg>
