<svg xmlns="http://www.w3.org/2000/svg" viewBox="-1.5 -1.5 3 3">
<g transform="scale(1, -1)">
<path d="M0.801786 0.000000 L1.000000 0.000000 L1.000000 0.340625 L1.010366 0.338293 L1.008776 0.327776 L1.009125 0.327698 L1.007550 0.317281 L1.007899 0.317203 L1.006340 0.306888 L1.006688 0.306809 L1.005144 0.296594 L1.005493 0.296516 L1.003964 0.286402 L1.073650 0.270722 L1.074748 0.275600 L1.077064 0.290923 L1.077420 0.290895 L1.078971 0.301160 L1.079327 0.301132 L1.080894 0.311497 L1.081250 0.311469 L1.082832 0.321936 L1.083188 0.321908 L1.112061 0.512939 L0.944444 0.680556 L0.875000 0.625000 L0.865217 0.581522 L0.768852 0.461066 z " fill="rgb(245,195,195)" />
<path d="M0.000000 0.000000 L1.000000 0.000000 L1.000000 1.000000 L0.000000 1.000000  z" fill="none" stroke="rgb(128,128,128)" stroke-width="0.01" />
<line x1="1.07365" y1="0.270722" x2="1.07475" y2="0.2756" style="stroke:rgb(246,147,147);stroke-width:0.01" />
<line x1="0.768852" y1="0.461066" x2="0.944444" y2="0.680556" style="stroke:rgb(246,147,147);stroke-width:0.01" />
<line x1="0.820122" y1="0.381098" x2="0.875" y2="0.625" style="stroke:rgb(246,147,147);stroke-width:0.01" />
<line x1="1.08319" y1="0.321908" x2="1.11206" y2="0.512939" style="stroke:rgb(246,147,147);stroke-width:0.01" />
<line x1="1.08125" y1="0.311469" x2="1.11175" y2="0.513252" style="stroke:rgb(246,147,147);stroke-width:0.01" />
<line x1="1.07933" y1="0.301132" x2="1.11144" y2="0.513565" style="stroke:rgb(246,147,147);stroke-width:0.01" />
<line x1="1.07742" y1="0.290895" x2="1.11112" y2="0.513878" style="stroke:rgb(246,147,147);stroke-width:0.01" />
<line x1="1.07475" y1="0.2756" x2="1.11081" y2="0.514191" style="stroke:rgb(246,147,147);stroke-width:0.01" />
<line x1="1.00396" y1="0.286402" x2="1.0479" y2="0.577099" style="stroke:rgb(246,147,147);stroke-width:0.01" />
<line x1="1.00514" y1="0.296594" x2="1.04759" y2="0.577412" style="stroke:rgb(246,147,147);stroke-width:0.01" />
<line x1="1.00634" y1="0.306888" x2="1.04727" y2="0.577725" style="stroke:rgb(246,147,147);stroke-width:0.01" />
<line x1="1.00755" y1="0.317281" x2="1.04696" y2="0.578038" style="stroke:rgb(246,147,147);stroke-width:0.01" />
<line x1="1.00878" y1="0.327776" x2="1.04665" y2="0.578351" style="stroke:rgb(246,147,147);stroke-width:0.01" />
<line x1="0.801786" y1="0" x2="0.875671" y2="0.0106091" style="stroke:rgb(246,147,147);stroke-width:0.01" />
<line x1="0.801385" y1="0.0106091" x2="0.874563" y2="0.0211168" style="stroke:rgb(246,147,147);stroke-width:0.01" />
<line x1="0.800992" y1="0.0211168" x2="0.873463" y2="0.0315228" style="stroke:rgb(246,147,147);stroke-width:0.01" />
<line x1="1.07475" y1="0.2756" x2="1.09482" y2="0.530176" style="stroke:rgb(246,147,147);stroke-width:0.01" />
<line x1="0.800606" y1="0.0315228" x2="0.872369" y2="0.0418274" style="stroke:rgb(246,147,147);stroke-width:0.01" />
<line x1="0.800227" y1="0.0418274" x2="0.871284" y2="0.0520305" style="stroke:rgb(246,147,147);stroke-width:0.01" />
<line x1="0.799498" y1="0.0520305" x2="0.869848" y2="0.062132" style="stroke:rgb(246,147,147);stroke-width:0.01" />
<line x1="0.875" y1="0.625" x2="0.944444" y2="0.680556" style="stroke:rgb(246,147,147);stroke-width:0.01" />
<line x1="0.801786" y1="0" x2="1" y2="0" style="stroke:rgb(246,147,147);stroke-width:0.01" />
<line x1="1" y1="0" x2="1" y2="0.625" style="stroke:rgb(246,147,147);stroke-width:0.01" />
<line x1="0.801385" y1="0.0106091" x2="0.875671" y2="0.0106091" style="stroke:rgb(246,147,147);stroke-width:0.01" />
<line x1="0.800992" y1="0.0211168" x2="0.874563" y2="0.0211168" style="stroke:rgb(246,147,147);stroke-width:0.01" />
<line x1="0.800606" y1="0.0315228" x2="0.873463" y2="0.0315228" style="stroke:rgb(246,147,147);stroke-width:0.01" />
<line x1="0.800227" y1="0.0418274" x2="0.872369" y2="0.0418274" style="stroke:rgb(246,147,147);stroke-width:0.01" />
<line x1="0.799498" y1="0.0520305" x2="0.871284" y2="0.0520305" style="stroke:rgb(246,147,147);stroke-width:0.01" />
<line x1="0.801786" y1="0" x2="0.768852" y2="0.461066" style="stroke:rgb(246,147,147);stroke-width:0.01" />
<line x1="0.801385" y1="0.0106091" x2="0.76918" y2="0.461475" style="stroke:rgb(246,147,147);stroke-width:0.01" />
<line x1="0.800992" y1="0.0211168" x2="0.769508" y2="0.461885" style="stroke:rgb(246,147,147);stroke-width:0.01" />
<line x1="0.800606" y1="0.0315228" x2="0.769836" y2="0.462295" style="stroke:rgb(246,147,147);stroke-width:0.01" />
<line x1="0.800227" y1="0.0418274" x2="0.770164" y2="0.462705" style="stroke:rgb(246,147,147);stroke-width:0.01" />
<line x1="0.871284" y1="0.0520305" x2="0.836066" y2="0.545082" style="stroke:rgb(246,147,147);stroke-width:0.01" />
<line x1="0.872369" y1="0.0418274" x2="0.836393" y2="0.545492" style="stroke:rgb(246,147,147);stroke-width:0.01" />
<line x1="0.873463" y1="0.0315228" x2="0.836721" y2="0.545902" style="stroke:rgb(246,147,147);stroke-width:0.01" />
<line x1="0.874563" y1="0.0211168" x2="0.837049" y2="0.546311" style="stroke:rgb(246,147,147);stroke-width:0.01" />
<line x1="0.875671" y1="0.0106091" x2="0.837377" y2="0.546721" style="stroke:rgb(246,147,147);stroke-width:0.01" />
<line x1="0.869848" y1="0.062132" x2="0.805913" y2="0.507391" style="stroke:rgb(246,147,147);stroke-width:0.01" />
<line x1="0.768852" y1="0.461066" x2="1.11206" y2="0.512939" style="stroke:rgb(246,147,147);stroke-width:0.01" />
<line x1="0.76918" y1="0.461475" x2="1.11175" y2="0.513252" style="stroke:rgb(246,147,147);stroke-width:0.01" />
<line x1="0.769508" y1="0.461885" x2="1.11144" y2="0.513565" style="stroke:rgb(246,147,147);stroke-width:0.01" />
<line x1="0.769836" y1="0.462295" x2="1.11112" y2="0.513878" style="stroke:rgb(246,147,147);stroke-width:0.01" />
<line x1="0.770164" y1="0.462705" x2="1.11081" y2="0.514191" style="stroke:rgb(246,147,147);stroke-width:0.01" />
<line x1="1.07553" y1="0.280758" x2="1.00396" y2="0.286402" style="stroke:rgb(246,147,147);stroke-width:0.01" />
<line x1="1.07742" y1="0.290895" x2="1.00514" y2="0.296594" style="stroke:rgb(246,147,147);stroke-width:0.01" />
<line x1="1.07933" y1="0.301132" x2="1.00634" y2="0.306888" style="stroke:rgb(246,147,147);stroke-width:0.01" />
<line x1="1.08125" y1="0.311469" x2="1.00755" y2="0.317281" style="stroke:rgb(246,147,147);stroke-width:0.01" />
<line x1="1.08319" y1="0.321908" x2="1.00878" y2="0.327776" style="stroke:rgb(246,147,147);stroke-width:0.01" />
<line x1="0.836066" y1="0.545082" x2="1.0479" y2="0.577099" style="stroke:rgb(246,147,147);stroke-width:0.01" />
<line x1="0.836393" y1="0.545492" x2="1.04759" y2="0.577412" style="stroke:rgb(246,147,147);stroke-width:0.01" />
<line x1="0.836721" y1="0.545902" x2="1.04727" y2="0.577725" style="stroke:rgb(246,147,147);stroke-width:0.01" />
<line x1="0.837049" y1="0.546311" x2="1.04696" y2="0.578038" style="stroke:rgb(246,147,147);stroke-width:0.01" />
<line x1="0.837377" y1="0.546721" x2="1.04665" y2="0.578351" style="stroke:rgb(246,147,147);stroke-width:0.01" />
<line x1="0.805913" y1="0.507391" x2="1.09482" y2="0.530176" style="stroke:rgb(246,147,147);stroke-width:0.01" />
<line x1="1.07365" y1="0.270722" x2="1.00396" y2="0.286402" style="stroke:rgb(246,147,147);stroke-width:0.01" />
<line x1="1.07553" y1="0.280758" x2="1.00514" y2="0.296594" style="stroke:rgb(246,147,147);stroke-width:0.01" />
<line x1="1.07742" y1="0.290895" x2="1.00634" y2="0.306888" style="stroke:rgb(246,147,147);stroke-width:0.01" />
<line x1="1.07933" y1="0.301132" x2="1.00755" y2="0.317281" style="stroke:rgb(246,147,147);stroke-width:0.01" />
<line x1="1.08125" y1="0.311469" x2="1.00878" y2="0.327776" style="stroke:rgb(246,147,147);stroke-width:0.01" />
<line x1="1.08319" y1="0.321908" x2="0.820122" y2="0.381098" style="stroke:rgb(246,147,147);stroke-width:0.01" />
<line x1="0.875" y1="0.625" x2="1" y2="0.625" style="stroke:rgb(246,147,147);stroke-width:0.01" />
<line x1="1.11206" y1="0.512939" x2="0.944444" y2="0.680556" style="stroke:rgb(246,147,147);stroke-width:0.01" />
</g>
</svg>
