<svg xmlns="http://www.w3.org/2000/svg" viewBox="-1.5 -1.5 3 3">
<g transform="scale(1, -1)">
<path d="M-0.206359 -0.332872 L-0.008145 -0.332872 L-0.008145 0.007753 L0.002221 0.005421 L0.000632 -0.005096 L0.000980 -0.005174 L-0.000594 -0.015590 L-0.000246 -0.015669 L-0.001805 -0.025984 L-0.001457 -0.026062 L-0.003000 -0.036277 L-0.002652 -0.036356 L-0.004181 -0.046470 L0.065506 -0.062149 L0.066603 -0.057271 L0.068919 -0.041949 L0.069275 -0.041977 L0.070827 -0.031712 L0.071183 -0.031740 L0.072749 -0.021374 L0.073105 -0.021402 L0.074687 -0.010936 L0.075043 -0.010964 L0.103916 0.180067 L-0.063700 0.347684 L-0.133145 0.292128 L-0.142927 0.248650 L-0.239292 0.128194 z " fill="rgb(245,195,195)" />
<path d="M-1.008145 -0.332872 L-0.008145 -0.332872 L-0.008145 0.667128 L-1.008145 0.667128  z" fill="none" stroke="rgb(128,128,128)" stroke-width="0.01" />
<line x1="0.0655058" y1="-0.0621493" x2="0.0666033" y2="-0.0572713" style="stroke:rgb(246,147,147);stroke-width:0.01" />
<line x1="-0.239292" y1="0.128194" x2="-0.0637003" y2="0.347684" style="stroke:rgb(246,147,147);stroke-width:0.01" />
<line x1="-0.188023" y1="0.0482258" x2="-0.133145" y2="0.292128" style="stroke:rgb(246,147,147);stroke-width:0.01" />
<line x1="0.0750434" y1="-0.0109641" x2="0.103916" y2="0.180067" style="stroke:rgb(246,147,147);stroke-width:0.01" />
<line x1="0.0731055" y1="-0.0214024" x2="0.103603" y2="0.18038" style="stroke:rgb(246,147,147);stroke-width:0.01" />
<line x1="0.0711827" y1="-0.0317401" x2="0.10329" y2="0.180693" style="stroke:rgb(246,147,147);stroke-width:0.01" />
<line x1="0.0692752" y1="-0.0419771" x2="0.102977" y2="0.181006" style="stroke:rgb(246,147,147);stroke-width:0.01" />
<line x1="0.0666033" y1="-0.0572713" x2="0.102664" y2="0.181319" style="stroke:rgb(246,147,147);stroke-width:0.01" />
<line x1="-0.00418065" y1="-0.0464699" x2="0.039756" y2="0.244228" style="stroke:rgb(246,147,147);stroke-width:0.01" />
<line x1="-0.0030004" y1="-0.0362773" x2="0.0394431" y2="0.24454" style="stroke:rgb(246,147,147);stroke-width:0.01" />
<line x1="-0.00180494" y1="-0.0259841" x2="0.0391301" y2="0.244853" style="stroke:rgb(246,147,147);stroke-width:0.01" />
<line x1="-0.000594276" y1="-0.0155903" x2="0.0388171" y2="0.245166" style="stroke:rgb(246,147,147);stroke-width:0.01" />
<line x1="0.000631604" y1="-0.00509577" x2="0.0385041" y2="0.245479" style="stroke:rgb(246,147,147);stroke-width:0.01" />
<line x1="-0.206359" y1="-0.332872" x2="-0.132474" y2="-0.322263" style="stroke:rgb(246,147,147);stroke-width:0.01" />
<line x1="-0.20676" y1="-0.322263" x2="-0.133582" y2="-0.311755" style="stroke:rgb(246,147,147);stroke-width:0.01" />
<line x1="-0.207153" y1="-0.311755" x2="-0.134682" y2="-0.301349" style="stroke:rgb(246,147,147);stroke-width:0.01" />
<line x1="0.0666033" y1="-0.0572713" x2="0.0866797" y2="0.197304" style="stroke:rgb(246,147,147);stroke-width:0.01" />
<line x1="-0.207539" y1="-0.301349" x2="-0.135775" y2="-0.291044" style="stroke:rgb(246,147,147);stroke-width:0.01" />
<line x1="-0.207918" y1="-0.291044" x2="-0.136861" y2="-0.280841" style="stroke:rgb(246,147,147);stroke-width:0.01" />
<line x1="-0.208647" y1="-0.280841" x2="-0.138297" y2="-0.27074" style="stroke:rgb(246,147,147);stroke-width:0.01" />
<line x1="-0.133145" y1="0.292128" x2="-0.0637003" y2="0.347684" style="stroke:rgb(246,147,147);stroke-width:0.01" />
<line x1="-0.206359" y1="-0.332872" x2="-0.00814473" y2="-0.332872" style="stroke:rgb(246,147,147);stroke-width:0.01" />
<line x1="-0.00814473" y1="-0.332872" x2="-0.00814473" y2="0.292128" style="stroke:rgb(246,147,147);stroke-width:0.01" />
<line x1="-0.20676" y1="-0.322263" x2="-0.132474" y2="-0.322263" style="stroke:rgb(246,147,147);stroke-width:0.01" />
<line x1="-0.207153" y1="-0.311755" x2="-0.133582" y2="-0.311755" style="stroke:rgb(246,147,147);stroke-width:0.01" />
<line x1="-0.207539" y1="-0.301349" x2="-0.134682" y2="-0.301349" style="stroke:rgb(246,147,147);stroke-width:0.01" />
<line x1="-0.207918" y1="-0.291044" x2="-0.135775" y2="-0.291044" style="stroke:rgb(246,147,147);stroke-width:0.01" />
<line x1="-0.208647" y1="-0.280841" x2="-0.136861" y2="-0.280841" style="stroke:rgb(246,147,147);stroke-width:0.01" />
<line x1="-0.206359" y1="-0.332872" x2="-0.239292" y2="0.128194" style="stroke:rgb(246,147,147);stroke-width:0.01" />
<line x1="-0.20676" y1="-0.322263" x2="-0.238964" y2="0.128604" style="stroke:rgb(246,147,147);stroke-width:0.01" />
<line x1="-0.207153" y1="-0.311755" x2="-0.238637" y2="0.129014" style="stroke:rgb(246,147,147);stroke-width:0.01" />
<line x1="-0.207539" y1="-0.301349" x2="-0.238309" y2="0.129423" style="stroke:rgb(246,147,147);stroke-width:0.01" />
<line x1="-0.207918" y1="-0.291044" x2="-0.237981" y2="0.129833" style="stroke:rgb(246,147,147);stroke-width:0.01" />
<line x1="-0.136861" y1="-0.280841" x2="-0.172079" y2="0.21221" style="stroke:rgb(246,147,147);stroke-width:0.01" />
<line x1="-0.135775" y1="-0.291044" x2="-0.171751" y2="0.21262" style="stroke:rgb(246,147,147);stroke-width:0.01" />
<line x1="-0.134682" y1="-0.301349" x2="-0.171423" y2="0.21303" style="stroke:rgb(246,147,147);stroke-width:0.01" />
<line x1="-0.133582" y1="-0.311755" x2="-0.171096" y2="0.21344" style="stroke:rgb(246,147,147);stroke-width:0.01" />
<line x1="-0.132474" y1="-0.322263" x2="-0.170768" y2="0.21385" style="stroke:rgb(246,147,147);stroke-width:0.01" />
<line x1="-0.138297" y1="-0.27074" x2="-0.202232" y2="0.17452" style="stroke:rgb(246,147,147);stroke-width:0.01" />
<line x1="-0.239292" y1="0.128194" x2="0.103916" y2="0.180067" style="stroke:rgb(246,147,147);stroke-width:0.01" />
<line x1="-0.238964" y1="0.128604" x2="0.103603" y2="0.18038" style="stroke:rgb(246,147,147);stroke-width:0.01" />
<line x1="-0.238637" y1="0.129014" x2="0.10329" y2="0.180693" style="stroke:rgb(246,147,147);stroke-width:0.01" />
<line x1="-0.238309" y1="0.129423" x2="0.102977" y2="0.181006" style="stroke:rgb(246,147,147);stroke-width:0.01" />
<line x1="-0.237981" y1="0.129833" x2="0.102664" y2="0.181319" style="stroke:rgb(246,147,147);stroke-width:0.01" />
<line x1="0.0673829" y1="-0.0521135" x2="-0.00418065" y2="-0.0464699" style="stroke:rgb(246,147,147);stroke-width:0.01" />
<line x1="0.0692752" y1="-0.0419771" x2="-0.0030004" y2="-0.0362773" style="stroke:rgb(246,147,147);stroke-width:0.01" />
<line x1="0.0711827" y1="-0.0317401" x2="-0.00180494" y2="-0.0259841" style="stroke:rgb(246,147,147);stroke-width:0.01" />
<line x1="0.0731055" y1="-0.0214024" x2="-0.000594276" y2="-0.0155903" style="stroke:rgb(246,147,147);stroke-width:0.01" />
<line x1="0.0750434" y1="-0.0109641" x2="0.000631604" y2="-0.00509577" style="stroke:rgb(246,147,147);stroke-width:0.01" />
<line x1="-0.172079" y1="0.21221" x2="0.039756" y2="0.244228" style="stroke:rgb(246,147,147);stroke-width:0.01" />
<line x1="-0.171751" y1="0.21262" x2="0.0394431" y2="0.24454" style="stroke:rgb(246,147,147);stroke-width:0.01" />
<line x1="-0.171423" y1="0.21303" x2="0.0391301" y2="0.244853" style="stroke:rgb(246,147,147);stroke-width:0.01" />
<line x1="-0.171096" y1="0.21344" x2="0.0388171" y2="0.245166" style="stroke:rgb(246,147,147);stroke-width:0.01" />
<line x1="-0.170768" y1="0.21385" x2="0.0385041" y2="0.245479" style="stroke:rgb(246,147,147);stroke-width:0.01" />
<line x1="-0.202232" y1="0.17452" x2="0.0866797" y2="0.197304" style="stroke:rgb(246,147,147);stroke-width:0.01" />
<line x1="0.0655058" y1="-0.0621493" x2="-0.00418065" y2="-0.0464699" style="stroke:rgb(246,147,147);stroke-width:0.01" />
<line x1="0.0673829" y1="-0.0521135" x2="-0.0030004" y2="-0.0362773" style="stroke:rgb(246,147,147);stroke-width:0.01" />
<line x1="0.0692752" y1="-0.0419771" x2="-0.00180494" y2="-0.0259841" style="stroke:rgb(246,147,147);stroke-width:0.01" />
<line x1="0.0711827" y1="-0.0317401" x2="-0.000594276" y2="-0.0155903" style="stroke:rgb(246,147,147);stroke-width:0.01" />
<line x1="0.0731055" y1="-0.0214024" x2="0.000631604" y2="-0.00509577" style="stroke:rgb(246,147,147);stroke-width:0.01" />
<line x1="0.0750434" y1="-0.0109641" x2="-0.188023" y2="0.0482258" style="stroke:rgb(246,147,147);stroke-width:0.01" />
<line x1="-0.133145" y1="0.292128" x2="-0.00814473" y2="0.292128" style="stroke:rgb(246,147,147);stroke-width:0.01" />
<line x1="0.103916" y1="0.180067" x2="-0.0637003" y2="0.347684" style="stroke:rgb(246,147,147);stroke-width:0.01" />
</g>
</svg>
