<svg xmlns="http://www.w3.org/2000/svg" viewBox="-1.5 -1.5 3 3">
<g transform="scale(1, -1)">
<path d="M-0.092245 -0.379728 L-0.053563 -0.367537 L-0.068326 -0.320696 L-0.031604 -0.230071 L0.280150 -0.131821 L0.161176 0.245694 L0.268065 0.509489 L0.050222 0.597759 L-0.513874 0.076911 z " fill="rgb(245,195,195)" />
<path d="M-6.007321 -7.668115 L-5.007321 -7.668115 L-5.007321 -6.668115 L-6.007321 -6.668115  z" fill="none" stroke="rgb(128,128,128)" stroke-width="0.01" />
<line x1="-0.0922455" y1="-0.379728" x2="0.268065" y2="0.509489" style="stroke:rgb(246,147,147);stroke-width:0.01" />
<line x1="-0.185614" y1="-0.278607" x2="0.00653357" y2="0.195597" style="stroke:rgb(246,147,147);stroke-width:0.01" />
<line x1="-0.513874" y1="0.0769106" x2="0.0502221" y2="0.597759" style="stroke:rgb(246,147,147);stroke-width:0.01" />
<line x1="-0.0535633" y1="-0.367537" x2="-0.265814" y2="0.305952" style="stroke:rgb(246,147,147);stroke-width:0.01" />
<line x1="0.28015" y1="-0.131821" x2="0.0502221" y2="0.597759" style="stroke:rgb(246,147,147);stroke-width:0.01" />
<line x1="-0.0922455" y1="-0.379728" x2="-0.0535633" y2="-0.367537" style="stroke:rgb(246,147,147);stroke-width:0.01" />
<line x1="-0.185614" y1="-0.278607" x2="0.28015" y2="-0.131821" style="stroke:rgb(246,147,147);stroke-width:0.01" />
<line x1="-0.0922455" y1="-0.379728" x2="-0.513874" y2="0.0769106" style="stroke:rgb(246,147,147);stroke-width:0.01" />
<line x1="0.00653357" y1="0.195597" x2="-0.265814" y2="0.305952" style="stroke:rgb(246,147,147);stroke-width:0.01" />
<line x1="0.268065" y1="0.509489" x2="0.0502221" y2="0.597759" style="stroke:rgb(246,147,147);stroke-width:0.01" />
</g>
</svg>
