<svg xmlns="http://www.w3.org/2000/svg" viewBox="-1.5 -1.5 3 3">
<g transform="scale(1, -1)">
<path d="M-0.059194 -0.452292 L0.066178 -0.411688 L0.043170 -0.340646 L0.527552 0.187654 L-0.014544 0.684685 L-0.563161 0.332287 z " fill="rgb(245,195,195)" />
<path d="M-5.885174 -7.719796 L-4.885174 -7.719796 L-4.885174 -6.719796 L-5.885174 -6.719796  z" fill="none" stroke="rgb(128,128,128)" stroke-width="0.01" />
<line x1="-0.0591943" y1="-0.452292" x2="0.527552" y2="0.187654" style="stroke:rgb(246,147,147);stroke-width:0.01" />
<line x1="-0.508211" y1="0.246742" x2="-0.240987" y2="0.538195" style="stroke:rgb(246,147,147);stroke-width:0.01" />
<line x1="0.0661776" y1="-0.411688" x2="-0.241652" y2="0.538805" style="stroke:rgb(246,147,147);stroke-width:0.01" />
<line x1="0.0669608" y1="0.43302" x2="-0.0145445" y2="0.684685" style="stroke:rgb(246,147,147);stroke-width:0.01" />
<line x1="-0.563161" y1="0.332287" x2="-0.0145445" y2="0.684685" style="stroke:rgb(246,147,147);stroke-width:0.01" />
<line x1="-0.0591943" y1="-0.452292" x2="-0.563161" y2="0.332287" style="stroke:rgb(246,147,147);stroke-width:0.01" />
<line x1="-0.0591943" y1="-0.452292" x2="0.0661776" y2="-0.411688" style="stroke:rgb(246,147,147);stroke-width:0.01" />
<line x1="-0.508211" y1="0.246742" x2="0.0669608" y2="0.43302" style="stroke:rgb(246,147,147);stroke-width:0.01" />
<line x1="-0.240987" y1="0.538195" x2="-0.241652" y2="0.538805" style="stroke:rgb(246,147,147);stroke-width:0.01" />
<line x1="0.527552" y1="0.187654" x2="-0.0145445" y2="0.684685" style="stroke:rgb(246,147,147);stroke-width:0.01" />
</g>
</svg>
