<svg xmlns="http://www.w3.org/2000/svg" viewBox="-1.5 -1.5 3 3">
<g transform="scale(1, -1)">
<path d="M-0.353707 -0.453319 L0.327049 -0.219917 L0.224483 0.079233 L0.292056 0.121877 L0.112090 0.407047 L-0.601971 0.065080 z " fill="rgb(245,195,195)" />
<path d="M-5.618897 -7.544242 L-4.618897 -7.544242 L-4.618897 -6.544242 L-5.618897 -6.544242  z" fill="none" stroke="rgb(128,128,128)" stroke-width="0.01" />
<line x1="-0.26072" y1="-0.271543" x2="-0.407986" y2="0.157981" style="stroke:rgb(246,147,147);stroke-width:0.01" />
<line x1="0.327049" y1="-0.219917" x2="0.11209" y2="0.407047" style="stroke:rgb(246,147,147);stroke-width:0.01" />
<line x1="-0.353707" y1="-0.453319" x2="-0.116626" y2="-0.303702" style="stroke:rgb(246,147,147);stroke-width:0.01" />
<line x1="-0.415368" y1="-0.324565" x2="0.292056" y2="0.121877" style="stroke:rgb(246,147,147);stroke-width:0.01" />
<line x1="-0.353707" y1="-0.453319" x2="-0.601971" y2="0.0650805" style="stroke:rgb(246,147,147);stroke-width:0.01" />
<line x1="-0.601971" y1="0.0650805" x2="0.11209" y2="0.407047" style="stroke:rgb(246,147,147);stroke-width:0.01" />
<line x1="-0.116626" y1="-0.303702" x2="-0.407986" y2="0.157981" style="stroke:rgb(246,147,147);stroke-width:0.01" />
<line x1="-0.353707" y1="-0.453319" x2="0.327049" y2="-0.219917" style="stroke:rgb(246,147,147);stroke-width:0.01" />
<line x1="0.292056" y1="0.121877" x2="0.11209" y2="0.407047" style="stroke:rgb(246,147,147);stroke-width:0.01" />
<line x1="-0.415368" y1="-0.324565" x2="-0.26072" y2="-0.271543" style="stroke:rgb(246,147,147);stroke-width:0.01" />
</g>
</svg>
