<svg xmlns="http://www.w3.org/2000/svg" viewBox="-1.5 -1.5 3 3">
<g transform="scale(1, -1)">
<path d="M-0.329910 -0.358826 L0.207237 -0.310690 L0.177001 0.026704 L0.263014 0.059692 L0.146918 0.362403 L-0.464261 0.220718 z " fill="rgb(245,195,195)" />
<path d="M-5.670673 -7.298398 L-4.670673 -7.298398 L-4.670673 -6.298398 L-5.670673 -6.298398  z" fill="none" stroke="rgb(128,128,128)" stroke-width="0.01" />
<line x1="-0.0504929" y1="-0.154627" x2="-0.0918655" y2="0.307047" style="stroke:rgb(246,147,147);stroke-width:0.01" />
<line x1="0.207237" y1="-0.31069" x2="0.146918" y2="0.362403" style="stroke:rgb(246,147,147);stroke-width:0.01" />
<line x1="-0.32991" y1="-0.358826" x2="-0.464261" y2="0.220718" style="stroke:rgb(246,147,147);stroke-width:0.01" />
<line x1="0.100241" y1="-0.193853" x2="-0.0918655" y2="0.307047" style="stroke:rgb(246,147,147);stroke-width:0.01" />
<line x1="0.263014" y1="0.0596918" x2="0.146918" y2="0.362403" style="stroke:rgb(246,147,147);stroke-width:0.01" />
<line x1="-0.32991" y1="-0.358826" x2="0.100241" y2="-0.193853" style="stroke:rgb(246,147,147);stroke-width:0.01" />
<line x1="-0.370597" y1="-0.183313" x2="0.263014" y2="0.0596918" style="stroke:rgb(246,147,147);stroke-width:0.01" />
<line x1="-0.464261" y1="0.220718" x2="0.146918" y2="0.362403" style="stroke:rgb(246,147,147);stroke-width:0.01" />
<line x1="-0.32991" y1="-0.358826" x2="0.207237" y2="-0.31069" style="stroke:rgb(246,147,147);stroke-width:0.01" />
<line x1="-0.370597" y1="-0.183313" x2="-0.0504929" y2="-0.154627" style="stroke:rgb(246,147,147);stroke-width:0.01" />
</g>
</svg>
