<svg xmlns="http://www.w3.org/2000/svg" viewBox="-1.5 -1.5 3 3">
<g transform="scale(1, -1)">
<path d="M-0.121791 -0.359288 L0.052740 -0.186211 L0.284352 -0.186211 L0.440339 -0.028913 L0.262824 0.147122 L0.262824 0.230455 L-0.121791 0.230455 L-0.121791 0.307379 L-0.205125 0.307379 L-0.410787 -0.186211 L-0.321791 -0.275955 z " fill="rgb(245,195,195)" />
<path d="M-0.737176 -0.769545 L0.262824 -0.769545 L0.262824 0.230455 L-0.737176 0.230455  z" fill="none" stroke="rgb(128,128,128)" stroke-width="0.01" />
<line x1="0.284352" y1="-0.186211" x2="0.440339" y2="-0.0289134" style="stroke:rgb(246,147,147);stroke-width:0.01" />
<line x1="-0.121791" y1="-0.359288" x2="0.114895" y2="-0.124574" style="stroke:rgb(246,147,147);stroke-width:0.01" />
<line x1="-0.410787" y1="-0.186211" x2="-0.205125" y2="0.307379" style="stroke:rgb(246,147,147);stroke-width:0.01" />
<line x1="-0.121791" y1="-0.359288" x2="-0.121791" y2="0.307379" style="stroke:rgb(246,147,147);stroke-width:0.01" />
<line x1="0.262824" y1="-0.186211" x2="0.262824" y2="0.230455" style="stroke:rgb(246,147,147);stroke-width:0.01" />
<line x1="-0.321791" y1="-0.275955" x2="-0.384235" y2="-0.122486" style="stroke:rgb(246,147,147);stroke-width:0.01" />
<line x1="-0.384235" y1="-0.122486" x2="0.262824" y2="0.147122" style="stroke:rgb(246,147,147);stroke-width:0.01" />
<line x1="-0.321791" y1="-0.275955" x2="-0.410787" y2="-0.186211" style="stroke:rgb(246,147,147);stroke-width:0.01" />
<line x1="-0.121791" y1="-0.359288" x2="-0.321791" y2="-0.275955" style="stroke:rgb(246,147,147);stroke-width:0.01" />
<line x1="-0.410787" y1="-0.186211" x2="0.284352" y2="-0.186211" style="stroke:rgb(246,147,147);stroke-width:0.01" />
<line x1="0.114895" y1="-0.124574" x2="-0.237176" y2="0.230455" style="stroke:rgb(246,147,147);stroke-width:0.01" />
<line x1="0.284352" y1="-0.186211" x2="-0.205125" y2="0.307379" style="stroke:rgb(246,147,147);stroke-width:0.01" />
<line x1="0.440339" y1="-0.0289134" x2="0.262824" y2="0.147122" style="stroke:rgb(246,147,147);stroke-width:0.01" />
<line x1="-0.237176" y1="0.230455" x2="0.262824" y2="0.230455" style="stroke:rgb(246,147,147);stroke-width:0.01" />
<line x1="-0.205125" y1="0.307379" x2="-0.121791" y2="0.307379" style="stroke:rgb(246,147,147);stroke-width:0.01" />
</g>
</svg>
