<svg xmlns="http://www.w3.org/2000/svg" viewBox="-1.5 -1.5 3 3">
<g transform="scale(1, -1)">
<path d="M-0.171643 -0.425529 L0.083396 -0.326405 L0.075532 -0.306170 L0.482461 -0.109666 L0.081166 0.721352 L-0.550912 0.446418 z " fill="rgb(245,195,195)" />
<path d="M-5.848679 -7.688669 L-4.848679 -7.688669 L-4.848679 -6.688669 L-5.848679 -6.688669  z" fill="none" stroke="rgb(128,128,128)" stroke-width="0.01" />
<line x1="0.0833962" y1="-0.326405" x2="-0.265263" y2="0.570666" style="stroke:rgb(246,147,147);stroke-width:0.01" />
<line x1="0.10912" y1="0.649429" x2="0.0811662" y2="0.721352" style="stroke:rgb(246,147,147);stroke-width:0.01" />
<line x1="-0.171643" y1="-0.425529" x2="-0.550912" y2="0.446418" style="stroke:rgb(246,147,147);stroke-width:0.01" />
<line x1="-0.171643" y1="-0.425529" x2="0.482461" y2="-0.109666" style="stroke:rgb(246,147,147);stroke-width:0.01" />
<line x1="-0.248932" y1="0.536847" x2="-0.265263" y2="0.570666" style="stroke:rgb(246,147,147);stroke-width:0.01" />
<line x1="0.482461" y1="-0.109666" x2="0.0811662" y2="0.721352" style="stroke:rgb(246,147,147);stroke-width:0.01" />
<line x1="-0.171643" y1="-0.425529" x2="0.0833962" y2="-0.326405" style="stroke:rgb(246,147,147);stroke-width:0.01" />
<line x1="-0.530999" y1="0.400638" x2="-0.248932" y2="0.536847" style="stroke:rgb(246,147,147);stroke-width:0.01" />
<line x1="-0.550912" y1="0.446418" x2="0.0811662" y2="0.721352" style="stroke:rgb(246,147,147);stroke-width:0.01" />
<line x1="-0.530999" y1="0.400638" x2="0.10912" y2="0.649429" style="stroke:rgb(246,147,147);stroke-width:0.01" />
</g>
</svg>
