<svg xmlns="http://www.w3.org/2000/svg" viewBox="-1.5 -1.5 3 3">
<g transform="scale(1, -1)">
<path d="M5.871547 7.231539 L6.327679 7.421594 L6.112338 7.938412 L6.186344 8.076587 L6.016965 8.167307 L5.471532 7.672335 z " fill="rgb(245,195,195)" />
<path d="M0.000000 0.000000 L1.000000 0.000000 L1.000000 1.000000 L0.000000 1.000000  z" fill="none" stroke="rgb(128,128,128)" stroke-width="0.01" />
<line x1="5.87155" y1="7.23154" x2="6.11038" y2="7.67746" style="stroke:rgb(246,147,147);stroke-width:0.01" />
<line x1="5.78489" y1="7.32704" x2="6.18634" y2="8.07659" style="stroke:rgb(246,147,147);stroke-width:0.01" />
<line x1="5.47153" y1="7.67234" x2="6.01696" y2="8.16731" style="stroke:rgb(246,147,147);stroke-width:0.01" />
<line x1="5.92308" y1="7.38462" x2="5.71219" y2="7.89073" style="stroke:rgb(246,147,147);stroke-width:0.01" />
<line x1="6.32768" y1="7.42159" x2="6.01696" y2="8.16731" style="stroke:rgb(246,147,147);stroke-width:0.01" />
<line x1="5.87155" y1="7.23154" x2="6.32768" y2="7.42159" style="stroke:rgb(246,147,147);stroke-width:0.01" />
<line x1="5.78489" y1="7.32704" x2="5.92308" y2="7.38462" style="stroke:rgb(246,147,147);stroke-width:0.01" />
<line x1="5.87155" y1="7.23154" x2="5.47153" y2="7.67234" style="stroke:rgb(246,147,147);stroke-width:0.01" />
<line x1="6.11038" y1="7.67746" x2="5.71219" y2="7.89073" style="stroke:rgb(246,147,147);stroke-width:0.01" />
<line x1="6.18634" y1="8.07659" x2="6.01696" y2="8.16731" style="stroke:rgb(246,147,147);stroke-width:0.01" />
</g>
</svg>
