<svg xmlns="http://www.w3.org/2000/svg" viewBox="-1.5 -1.5 3 3">
<g transform="scale(1, -1)">
<path d="M-0.126187 -0.519757 L0.329945 -0.329702 L0.114604 0.187116 L0.188610 0.325292 L0.019231 0.416011 L-0.526202 -0.078960 z " fill="rgb(245,195,195)" />
<path d="M-5.997734 -7.751296 L-4.997734 -7.751296 L-4.997734 -6.751296 L-5.997734 -6.751296  z" fill="none" stroke="rgb(128,128,128)" stroke-width="0.01" />
<line x1="-0.126187" y1="-0.519757" x2="0.112649" y2="-0.0738322" style="stroke:rgb(246,147,147);stroke-width:0.01" />
<line x1="-0.212849" y1="-0.42426" x2="0.18861" y2="0.325292" style="stroke:rgb(246,147,147);stroke-width:0.01" />
<line x1="-0.526202" y1="-0.0789603" x2="0.0192309" y2="0.416011" style="stroke:rgb(246,147,147);stroke-width:0.01" />
<line x1="-0.074657" y1="-0.36668" x2="-0.285539" y2="0.139437" style="stroke:rgb(246,147,147);stroke-width:0.01" />
<line x1="0.329945" y1="-0.329702" x2="0.0192309" y2="0.416011" style="stroke:rgb(246,147,147);stroke-width:0.01" />
<line x1="-0.126187" y1="-0.519757" x2="0.329945" y2="-0.329702" style="stroke:rgb(246,147,147);stroke-width:0.01" />
<line x1="-0.212849" y1="-0.42426" x2="-0.074657" y2="-0.36668" style="stroke:rgb(246,147,147);stroke-width:0.01" />
<line x1="-0.126187" y1="-0.519757" x2="-0.526202" y2="-0.0789603" style="stroke:rgb(246,147,147);stroke-width:0.01" />
<line x1="0.112649" y1="-0.0738322" x2="-0.285539" y2="0.139437" style="stroke:rgb(246,147,147);stroke-width:0.01" />
<line x1="0.18861" y1="0.325292" x2="0.0192309" y2="0.416011" style="stroke:rgb(246,147,147);stroke-width:0.01" />
</g>
</svg>
