<svg xmlns="http://www.w3.org/2000/svg" viewBox="-1.5 -1.5 3 3">
<g transform="scale(1, -1)">
<path d="M-0.197500 -0.432264 L-0.120967 -0.398545 L-0.138427 -0.358916 L0.203900 0.066131 L0.233994 0.079390 L0.227129 0.094973 L0.377291 0.281421 L0.017217 0.571419 L-0.602637 0.096391 z " fill="rgb(245,195,195)" />
<path d="M-6.036086 -7.801728 L-5.036086 -7.801728 L-5.036086 -6.801728 L-6.036086 -6.801728  z" fill="none" stroke="rgb(128,128,128)" stroke-width="0.01" />
<line x1="-0.1975" y1="-0.432264" x2="0.377291" y2="0.281421" style="stroke:rgb(246,147,147);stroke-width:0.01" />
<line x1="-0.381719" y1="-0.191881" x2="-0.176498" y2="0.0629308" style="stroke:rgb(246,147,147);stroke-width:0.01" />
<line x1="-0.602637" y1="0.0963908" x2="0.0172166" y2="0.571419" style="stroke:rgb(246,147,147);stroke-width:0.01" />
<line x1="-0.120967" y1="-0.398545" x2="-0.405565" y2="0.247418" style="stroke:rgb(246,147,147);stroke-width:0.01" />
<line x1="0.233994" y1="0.0793902" x2="0.0172166" y2="0.571419" style="stroke:rgb(246,147,147);stroke-width:0.01" />
<line x1="-0.1975" y1="-0.432264" x2="-0.120967" y2="-0.398545" style="stroke:rgb(246,147,147);stroke-width:0.01" />
<line x1="-0.381719" y1="-0.191881" x2="0.233994" y2="0.0793902" style="stroke:rgb(246,147,147);stroke-width:0.01" />
<line x1="-0.1975" y1="-0.432264" x2="-0.602637" y2="0.0963908" style="stroke:rgb(246,147,147);stroke-width:0.01" />
<line x1="-0.176498" y1="0.0629308" x2="-0.405565" y2="0.247418" style="stroke:rgb(246,147,147);stroke-width:0.01" />
<line x1="0.377291" y1="0.281421" x2="0.0172166" y2="0.571419" style="stroke:rgb(246,147,147);stroke-width:0.01" />
</g>
</svg>
