<svg xmlns="http://www.w3.org/2000/svg" viewBox="-1.5 -1.5 3 3">
<g transform="scale(1, -1)">
<path d="M0.019701 -0.503275 L0.050579 -0.271380 L0.212982 -0.198429 L0.095205 0.063765 L0.127903 0.309329 L0.174693 0.330347 L0.140760 0.405888 L-0.467138 0.317179 L-0.354685 -0.453424 z " fill="rgb(245,195,195)" />
<path d="M-5.699213 -7.608185 L-4.699213 -7.608185 L-4.699213 -6.608185 L-5.699213 -6.608185  z" fill="none" stroke="rgb(128,128,128)" stroke-width="0.01" />
<line x1="0.0197012" y1="-0.503275" x2="0.14076" y2="0.405888" style="stroke:rgb(246,147,147);stroke-width:0.01" />
<line x1="-0.0947153" y1="0.0143917" x2="-0.0462191" y2="0.378603" style="stroke:rgb(246,147,147);stroke-width:0.01" />
<line x1="-0.354685" y1="-0.453424" x2="-0.467138" y2="0.317179" style="stroke:rgb(246,147,147);stroke-width:0.01" />
<line x1="0.212982" y1="-0.198429" x2="-0.0462191" y2="0.378603" style="stroke:rgb(246,147,147);stroke-width:0.01" />
<line x1="0.174693" y1="0.330347" x2="0.14076" y2="0.405888" style="stroke:rgb(246,147,147);stroke-width:0.01" />
<line x1="-0.354685" y1="-0.453424" x2="0.212982" y2="-0.198429" style="stroke:rgb(246,147,147);stroke-width:0.01" />
<line x1="-0.429457" y1="0.058964" x2="0.174693" y2="0.330347" style="stroke:rgb(246,147,147);stroke-width:0.01" />
<line x1="-0.467138" y1="0.317179" x2="0.14076" y2="0.405888" style="stroke:rgb(246,147,147);stroke-width:0.01" />
<line x1="0.0197012" y1="-0.503275" x2="-0.354685" y2="-0.453424" style="stroke:rgb(246,147,147);stroke-width:0.01" />
<line x1="-0.0947153" y1="0.0143917" x2="-0.429457" y2="0.058964" style="stroke:rgb(246,147,147);stroke-width:0.01" />
</g>
</svg>
