<svg xmlns="http://www.w3.org/2000/svg" viewBox="-1.5 -1.5 3 3">
<g transform="scale(1, -1)">
<path d="M-0.181718 -0.417868 L0.274990 -0.209450 L0.155119 0.053225 L0.253582 0.161947 L0.001194 0.390521 L-0.503168 0.021626 z " fill="rgb(245,195,195)" />
<path d="M-5.634757 -7.624613 L-4.634757 -7.624613 L-4.634757 -6.624613 L-5.634757 -6.624613  z" fill="none" stroke="rgb(128,128,128)" stroke-width="0.01" />
<line x1="-0.181718" y1="-0.417868" x2="0.152565" y2="-0.0487572" style="stroke:rgb(246,147,147);stroke-width:0.01" />
<line x1="-0.221841" y1="-0.36301" x2="0.253582" y2="0.161947" style="stroke:rgb(246,147,147);stroke-width:0.01" />
<line x1="-0.503168" y1="0.0216255" x2="0.00119399" y2="0.390521" style="stroke:rgb(246,147,147);stroke-width:0.01" />
<line x1="0.0435839" y1="-0.241884" x2="-0.1834" y2="0.255507" style="stroke:rgb(246,147,147);stroke-width:0.01" />
<line x1="0.27499" y1="-0.20945" x2="0.00119399" y2="0.390521" style="stroke:rgb(246,147,147);stroke-width:0.01" />
<line x1="-0.181718" y1="-0.417868" x2="0.27499" y2="-0.20945" style="stroke:rgb(246,147,147);stroke-width:0.01" />
<line x1="-0.221841" y1="-0.36301" x2="0.0435839" y2="-0.241884" style="stroke:rgb(246,147,147);stroke-width:0.01" />
<line x1="-0.181718" y1="-0.417868" x2="-0.503168" y2="0.0216255" style="stroke:rgb(246,147,147);stroke-width:0.01" />
<line x1="0.152565" y1="-0.0487572" x2="-0.1834" y2="0.255507" style="stroke:rgb(246,147,147);stroke-width:0.01" />
<line x1="0.253582" y1="0.161947" x2="0.00119399" y2="0.390521" style="stroke:rgb(246,147,147);stroke-width:0.01" />
</g>
</svg>
