<svg xmlns="http://www.w3.org/2000/svg" viewBox="-1.5 -1.5 3 3">
<g transform="scale(1, -1)">
<path d="M-0.204765 -0.382053 L-0.052717 -0.345382 L-0.060176 -0.314453 L0.559431 -0.024767 L0.239474 0.659586 L-0.481247 0.407070 z " fill="rgb(245,195,195)" />
<path d="M-5.346452 -7.448297 L-4.346452 -7.448297 L-4.346452 -6.448297 L-5.346452 -6.448297  z" fill="none" stroke="rgb(128,128,128)" stroke-width="0.01" />
<line x1="-0.0527168" y1="-0.345382" x2="-0.253445" y2="0.486884" style="stroke:rgb(246,147,147);stroke-width:0.01" />
<line x1="0.29681" y1="0.421857" x2="0.239474" y2="0.659586" style="stroke:rgb(246,147,147);stroke-width:0.01" />
<line x1="-0.204765" y1="-0.382053" x2="-0.481247" y2="0.40707" style="stroke:rgb(246,147,147);stroke-width:0.01" />
<line x1="-0.192512" y1="0.356554" x2="-0.253445" y2="0.486884" style="stroke:rgb(246,147,147);stroke-width:0.01" />
<line x1="0.559431" y1="-0.0247671" x2="0.239474" y2="0.659586" style="stroke:rgb(246,147,147);stroke-width:0.01" />
<line x1="-0.204765" y1="-0.382053" x2="0.559431" y2="-0.0247671" style="stroke:rgb(246,147,147);stroke-width:0.01" />
<line x1="-0.425399" y1="0.247672" x2="-0.192512" y2="0.356554" style="stroke:rgb(246,147,147);stroke-width:0.01" />
<line x1="-0.481247" y1="0.40707" x2="0.239474" y2="0.659586" style="stroke:rgb(246,147,147);stroke-width:0.01" />
<line x1="-0.204765" y1="-0.382053" x2="-0.0527168" y2="-0.345382" style="stroke:rgb(246,147,147);stroke-width:0.01" />
<line x1="-0.425399" y1="0.247672" x2="0.29681" y2="0.421857" style="stroke:rgb(246,147,147);stroke-width:0.01" />
</g>
</svg>
