<svg xmlns="http://www.w3.org/2000/svg" viewBox="-1.5 -1.5 3 3">
<g transform="scale(1, -1)">
<path d="M-0.094968 -0.768072 L0.490622 -0.482597 L0.059536 0.401681 L0.060610 0.402440 L0.055955 0.409028 L-0.571755 0.037520 z " fill="rgb(245,195,195)" />
<path d="M-5.408254 -7.920799 L-4.408254 -7.920799 L-4.408254 -6.920799 L-5.408254 -6.920799  z" fill="none" stroke="rgb(128,128,128)" stroke-width="0.01" />
<line x1="-0.0949682" y1="-0.768072" x2="0.189661" y2="-0.566926" style="stroke:rgb(246,147,147);stroke-width:0.01" />
<line x1="-0.537548" y1="-0.0202774" x2="0.0606103" y2="0.40244" style="stroke:rgb(246,147,147);stroke-width:0.01" />
<line x1="-0.297054" y1="0.0969635" x2="-0.336075" y2="0.177007" style="stroke:rgb(246,147,147);stroke-width:0.01" />
<line x1="-0.0949682" y1="-0.768072" x2="0.490622" y2="-0.482597" style="stroke:rgb(246,147,147);stroke-width:0.01" />
<line x1="0.490622" y1="-0.482597" x2="0.0559547" y2="0.409028" style="stroke:rgb(246,147,147);stroke-width:0.01" />
<line x1="-0.571755" y1="0.0375202" x2="0.0559547" y2="0.409028" style="stroke:rgb(246,147,147);stroke-width:0.01" />
<line x1="-0.0949682" y1="-0.768072" x2="-0.571755" y2="0.0375202" style="stroke:rgb(246,147,147);stroke-width:0.01" />
<line x1="-0.537548" y1="-0.0202774" x2="-0.297054" y2="0.0969635" style="stroke:rgb(246,147,147);stroke-width:0.01" />
<line x1="0.189661" y1="-0.566926" x2="-0.336075" y2="0.177007" style="stroke:rgb(246,147,147);stroke-width:0.01" />
<line x1="0.0606103" y1="0.40244" x2="0.0559547" y2="0.409028" style="stroke:rgb(246,147,147);stroke-width:0.01" />
</g>
</svg>
