<svg xmlns="http://www.w3.org/2000/svg" viewBox="-1.5 -1.5 3 3">
<g transform="scale(1, -1)">
<path d="M-0.250046 -0.418371 L-0.226343 -0.406563 L-0.230639 -0.397938 L0.148656 0.001424 L0.344033 0.098754 L0.308617 0.169847 L0.420373 0.287516 L0.096996 0.594645 L-0.611647 0.070686 z " fill="rgb(245,195,195)" />
<path d="M-6.121425 -7.852464 L-5.121425 -7.852464 L-5.121425 -6.852464 L-6.121425 -6.852464  z" fill="none" stroke="rgb(128,128,128)" stroke-width="0.01" />
<line x1="-0.250046" y1="-0.418371" x2="0.420373" y2="0.287516" style="stroke:rgb(246,147,147);stroke-width:0.01" />
<line x1="-0.369558" y1="-0.256734" x2="-0.229923" y2="-0.109711" style="stroke:rgb(246,147,147);stroke-width:0.01" />
<line x1="-0.611647" y1="0.070686" x2="0.0969959" y2="0.594645" style="stroke:rgb(246,147,147);stroke-width:0.01" />
<line x1="-0.250046" y1="-0.418371" x2="-0.226343" y2="-0.406563" style="stroke:rgb(246,147,147);stroke-width:0.01" />
<line x1="-0.369558" y1="-0.256734" x2="0.344033" y2="0.0987544" style="stroke:rgb(246,147,147);stroke-width:0.01" />
<line x1="-0.226343" y1="-0.406563" x2="-0.503812" y2="0.150417" style="stroke:rgb(246,147,147);stroke-width:0.01" />
<line x1="0.344033" y1="0.0987544" x2="0.0969959" y2="0.594645" style="stroke:rgb(246,147,147);stroke-width:0.01" />
<line x1="-0.250046" y1="-0.418371" x2="-0.611647" y2="0.070686" style="stroke:rgb(246,147,147);stroke-width:0.01" />
<line x1="-0.229923" y1="-0.109711" x2="-0.503812" y2="0.150417" style="stroke:rgb(246,147,147);stroke-width:0.01" />
<line x1="0.420373" y1="0.287516" x2="0.0969959" y2="0.594645" style="stroke:rgb(246,147,147);stroke-width:0.01" />
</g>
</svg>
