<svg xmlns="http://www.w3.org/2000/svg" viewBox="-1.5 -1.5 3 3">
<g transform="scale(1, -1)">
<path d="M-0.277108 -0.603373 L0.420183 -0.251375 L0.193141 0.198386 L0.209471 0.208274 L0.081175 0.420186 L-0.626862 0.027902 z " fill="rgb(245,195,195)" />
<path d="M-6.223264 -7.585524 L-5.223264 -7.585524 L-5.223264 -6.585524 L-6.223264 -6.585524  z" fill="none" stroke="rgb(128,128,128)" stroke-width="0.01" />
<line x1="-0.277108" y1="-0.603373" x2="-0.0898527" y2="-0.490004" style="stroke:rgb(246,147,147);stroke-width:0.01" />
<line x1="-0.491626" y1="-0.216188" x2="0.209471" y2="0.208274" style="stroke:rgb(246,147,147);stroke-width:0.01" />
<line x1="-0.277108" y1="-0.603373" x2="0.420183" y2="-0.251375" style="stroke:rgb(246,147,147);stroke-width:0.01" />
<line x1="-0.626862" y1="0.0279024" x2="0.0811746" y2="0.420186" style="stroke:rgb(246,147,147);stroke-width:0.01" />
<line x1="-0.491626" y1="-0.216188" x2="-0.33056" y2="-0.13488" style="stroke:rgb(246,147,147);stroke-width:0.01" />
<line x1="-0.33056" y1="-0.13488" x2="-0.459533" y2="0.12061" style="stroke:rgb(246,147,147);stroke-width:0.01" />
<line x1="-0.277108" y1="-0.603373" x2="-0.626862" y2="0.0279024" style="stroke:rgb(246,147,147);stroke-width:0.01" />
<line x1="0.420183" y1="-0.251375" x2="0.0811746" y2="0.420186" style="stroke:rgb(246,147,147);stroke-width:0.01" />
<line x1="-0.0898527" y1="-0.490004" x2="-0.459533" y2="0.12061" style="stroke:rgb(246,147,147);stroke-width:0.01" />
<line x1="0.209471" y1="0.208274" x2="0.0811746" y2="0.420186" style="stroke:rgb(246,147,147);stroke-width:0.01" />
</g>
</svg>
