<svg xmlns="http://www.w3.org/2000/svg" viewBox="-1.5 -1.5 3 3">
<g transform="scale(1, -1)">
<path d="M0.801786 0.000000 L1.000000 0.000000 L1.000000 0.336031 L1.006616 0.334543 L1.005026 0.324026 L1.005375 0.323948 L1.003800 0.313531 L1.004149 0.313453 L1.002590 0.303138 L1.002938 0.303059 L1.001394 0.292844 L1.001743 0.292766 L1.000214 0.282652 L1.069900 0.266972 L1.070998 0.271850 L1.073314 0.287173 L1.073670 0.287145 L1.075221 0.297410 L1.075577 0.297382 L1.077144 0.307747 L1.077500 0.307719 L1.079082 0.318186 L1.079438 0.318158 L1.108803 0.512447 L0.942778 0.678472 L0.871250 0.621250 L0.861174 0.576467 L0.768852 0.461066 z " fill="rgb(245,195,195)" />
<path d="M0.000000 0.000000 L1.000000 0.000000 L1.000000 1.000000 L0.000000 1.000000  z" fill="none" stroke="rgb(128,128,128)" stroke-width="0.01" />
<line x1="1.0699" y1="0.266972" x2="1.071" y2="0.27185" style="stroke:rgb(246,147,147);stroke-width:0.01" />
<line x1="0.768852" y1="0.461066" x2="0.942778" y2="0.678472" style="stroke:rgb(246,147,147);stroke-width:0.01" />
<line x1="0.816372" y1="0.377348" x2="0.87125" y2="0.62125" style="stroke:rgb(246,147,147);stroke-width:0.01" />
<line x1="1.07944" y1="0.318158" x2="1.1088" y2="0.512447" style="stroke:rgb(246,147,147);stroke-width:0.01" />
<line x1="1.0775" y1="0.307719" x2="1.10849" y2="0.51276" style="stroke:rgb(246,147,147);stroke-width:0.01" />
<line x1="1.07558" y1="0.297382" x2="1.10818" y2="0.513073" style="stroke:rgb(246,147,147);stroke-width:0.01" />
<line x1="1.07367" y1="0.287145" x2="1.10786" y2="0.513385" style="stroke:rgb(246,147,147);stroke-width:0.01" />
<line x1="1.071" y1="0.27185" x2="1.10755" y2="0.513698" style="stroke:rgb(246,147,147);stroke-width:0.01" />
<line x1="1.00021" y1="0.282652" x2="1.04464" y2="0.576607" style="stroke:rgb(246,147,147);stroke-width:0.01" />
<line x1="1.00139" y1="0.292844" x2="1.04433" y2="0.57692" style="stroke:rgb(246,147,147);stroke-width:0.01" />
<line x1="1.00259" y1="0.303138" x2="1.04402" y2="0.577233" style="stroke:rgb(246,147,147);stroke-width:0.01" />
<line x1="1.0038" y1="0.313531" x2="1.0437" y2="0.577546" style="stroke:rgb(246,147,147);stroke-width:0.01" />
<line x1="1.00503" y1="0.324026" x2="1.04339" y2="0.577859" style="stroke:rgb(246,147,147);stroke-width:0.01" />
<line x1="0.801786" y1="0" x2="0.875671" y2="0.0106091" style="stroke:rgb(246,147,147);stroke-width:0.01" />
<line x1="0.801385" y1="0.0106091" x2="0.874563" y2="0.0211168" style="stroke:rgb(246,147,147);stroke-width:0.01" />
<line x1="0.800992" y1="0.0211168" x2="0.873463" y2="0.0315228" style="stroke:rgb(246,147,147);stroke-width:0.01" />
<line x1="1.071" y1="0.27185" x2="1.09135" y2="0.529901" style="stroke:rgb(246,147,147);stroke-width:0.01" />
<line x1="0.800606" y1="0.0315228" x2="0.872369" y2="0.0418274" style="stroke:rgb(246,147,147);stroke-width:0.01" />
<line x1="0.800227" y1="0.0418274" x2="0.871284" y2="0.0520305" style="stroke:rgb(246,147,147);stroke-width:0.01" />
<line x1="0.799498" y1="0.0520305" x2="0.869848" y2="0.062132" style="stroke:rgb(246,147,147);stroke-width:0.01" />
<line x1="0.87125" y1="0.62125" x2="0.942778" y2="0.678472" style="stroke:rgb(246,147,147);stroke-width:0.01" />
<line x1="0.801786" y1="0" x2="1" y2="0" style="stroke:rgb(246,147,147);stroke-width:0.01" />
<line x1="1" y1="0" x2="1" y2="0.62125" style="stroke:rgb(246,147,147);stroke-width:0.01" />
<line x1="0.801385" y1="0.0106091" x2="0.875671" y2="0.0106091" style="stroke:rgb(246,147,147);stroke-width:0.01" />
<line x1="0.800992" y1="0.0211168" x2="0.874563" y2="0.0211168" style="stroke:rgb(246,147,147);stroke-width:0.01" />
<line x1="0.800606" y1="0.0315228" x2="0.873463" y2="0.0315228" style="stroke:rgb(246,147,147);stroke-width:0.01" />
<line x1="0.800227" y1="0.0418274" x2="0.872369" y2="0.0418274" style="stroke:rgb(246,147,147);stroke-width:0.01" />
<line x1="0.799498" y1="0.0520305" x2="0.871284" y2="0.0520305" style="stroke:rgb(246,147,147);stroke-width:0.01" />
<line x1="0.801786" y1="0" x2="0.768852" y2="0.461066" style="stroke:rgb(246,147,147);stroke-width:0.01" />
<line x1="0.801385" y1="0.0106091" x2="0.76918" y2="0.461475" style="stroke:rgb(246,147,147);stroke-width:0.01" />
<line x1="0.800992" y1="0.0211168" x2="0.769508" y2="0.461885" style="stroke:rgb(246,147,147);stroke-width:0.01" />
<line x1="0.800606" y1="0.0315228" x2="0.769836" y2="0.462295" style="stroke:rgb(246,147,147);stroke-width:0.01" />
<line x1="0.800227" y1="0.0418274" x2="0.770164" y2="0.462705" style="stroke:rgb(246,147,147);stroke-width:0.01" />
<line x1="0.871284" y1="0.0520305" x2="0.836066" y2="0.545082" style="stroke:rgb(246,147,147);stroke-width:0.01" />
<line x1="0.872369" y1="0.0418274" x2="0.836393" y2="0.545492" style="stroke:rgb(246,147,147);stroke-width:0.01" />
<line x1="0.873463" y1="0.0315228" x2="0.836721" y2="0.545902" style="stroke:rgb(246,147,147);stroke-width:0.01" />
<line x1="0.874563" y1="0.0211168" x2="0.837049" y2="0.546311" style="stroke:rgb(246,147,147);stroke-width:0.01" />
<line x1="0.875671" y1="0.0106091" x2="0.837377" y2="0.546721" style="stroke:rgb(246,147,147);stroke-width:0.01" />
<line x1="0.869848" y1="0.062132" x2="0.805913" y2="0.507391" style="stroke:rgb(246,147,147);stroke-width:0.01" />
<line x1="0.768852" y1="0.461066" x2="1.1088" y2="0.512447" style="stroke:rgb(246,147,147);stroke-width:0.01" />
<line x1="0.76918" y1="0.461475" x2="1.10849" y2="0.51276" style="stroke:rgb(246,147,147);stroke-width:0.01" />
<line x1="0.769508" y1="0.461885" x2="1.10818" y2="0.513073" style="stroke:rgb(246,147,147);stroke-width:0.01" />
<line x1="0.769836" y1="0.462295" x2="1.10786" y2="0.513385" style="stroke:rgb(246,147,147);stroke-width:0.01" />
<line x1="0.770164" y1="0.462705" x2="1.10755" y2="0.513698" style="stroke:rgb(246,147,147);stroke-width:0.01" />
<line x1="1.07178" y1="0.277008" x2="1.00021" y2="0.282652" style="stroke:rgb(246,147,147);stroke-width:0.01" />
<line x1="1.07367" y1="0.287145" x2="1.00139" y2="0.292844" style="stroke:rgb(246,147,147);stroke-width:0.01" />
<line x1="1.07558" y1="0.297382" x2="1.00259" y2="0.303138" style="stroke:rgb(246,147,147);stroke-width:0.01" />
<line x1="1.0775" y1="0.307719" x2="1.0038" y2="0.313531" style="stroke:rgb(246,147,147);stroke-width:0.01" />
<line x1="1.07944" y1="0.318158" x2="1.00503" y2="0.324026" style="stroke:rgb(246,147,147);stroke-width:0.01" />
<line x1="0.836066" y1="0.545082" x2="1.04464" y2="0.576607" style="stroke:rgb(246,147,147);stroke-width:0.01" />
<line x1="0.836393" y1="0.545492" x2="1.04433" y2="0.57692" style="stroke:rgb(246,147,147);stroke-width:0.01" />
<line x1="0.836721" y1="0.545902" x2="1.04402" y2="0.577233" style="stroke:rgb(246,147,147);stroke-width:0.01" />
<line x1="0.837049" y1="0.546311" x2="1.0437" y2="0.577546" style="stroke:rgb(246,147,147);stroke-width:0.01" />
<line x1="0.837377" y1="0.546721" x2="1.04339" y2="0.577859" style="stroke:rgb(246,147,147);stroke-width:0.01" />
<line x1="0.805913" y1="0.507391" x2="1.09135" y2="0.529901" style="stroke:rgb(246,147,147);stroke-width:0.01" />
<line x1="1.0699" y1="0.266972" x2="1.00021" y2="0.282652" style="stroke:rgb(246,147,147);stroke-width:0.01" />
<line x1="1.07178" y1="0.277008" x2="1.00139" y2="0.292844" style="stroke:rgb(246,147,147);stroke-width:0.01" />
<line x1="1.07367" y1="0.287145" x2="1.00259" y2="0.303138" style="stroke:rgb(246,147,147);stroke-width:0.01" />
<line x1="1.07558" y1="0.297382" x2="1.0038" y2="0.313531" style="stroke:rgb(246,147,147);stroke-width:0.01" />
<line x1="1.0775" y1="0.307719" x2="1.00503" y2="0.324026" style="stroke:rgb(246,147,147);stroke-width:0.01" />
<line x1="1.07944" y1="0.318158" x2="0.816372" y2="0.377348" style="stroke:rgb(246,147,147);stroke-width:0.01" />
<line x1="0.87125" y1="0.62125" x2="1" y2="0.62125" style="stroke:rgb(246,147,147);stroke-width:0.01" />
<line x1="1.1088" y1="0.512447" x2="0.942778" y2="0.678472" style="stroke:rgb(246,147,147);stroke-width:0.01" />
</g>
</svg>
