<svg xmlns="http://www.w3.org/2000/svg" viewBox="-1.5 -1.5 3 3">
<g transform="scale(1, -1)">
<path d="M-0.203226 -0.329623 L-0.005012 -0.329623 L-0.005012 0.006409 L0.001604 0.004920 L0.000014 -0.005597 L0.000363 -0.005675 L-0.001211 -0.016091 L-0.000863 -0.016170 L-0.002422 -0.026485 L-0.002074 -0.026563 L-0.003618 -0.036778 L-0.003269 -0.036857 L-0.004798 -0.046971 L0.064889 -0.062650 L0.065986 -0.057772 L0.068302 -0.042450 L0.068658 -0.042478 L0.070209 -0.032213 L0.070566 -0.032241 L0.072132 -0.021875 L0.072488 -0.021903 L0.074070 -0.011437 L0.074426 -0.011465 L0.103791 0.182824 L-0.062234 0.348850 L-0.133762 0.291627 L-0.143838 0.246845 L-0.236159 0.131443 z " fill="rgb(245,195,195)" />
<path d="M-1.005012 -0.329623 L-0.005012 -0.329623 L-0.005012 0.670377 L-1.005012 0.670377  z" fill="none" stroke="rgb(128,128,128)" stroke-width="0.01" />
<line x1="0.0648885" y1="-0.0626502" x2="0.0659861" y2="-0.0577722" style="stroke:rgb(246,147,147);stroke-width:0.01" />
<line x1="-0.236159" y1="0.131443" x2="-0.0622342" y2="0.34885" style="stroke:rgb(246,147,147);stroke-width:0.01" />
<line x1="-0.18864" y1="0.0477249" x2="-0.133762" y2="0.291627" style="stroke:rgb(246,147,147);stroke-width:0.01" />
<line x1="0.0744262" y1="-0.011465" x2="0.103791" y2="0.182824" style="stroke:rgb(246,147,147);stroke-width:0.01" />
<line x1="0.0724882" y1="-0.0219033" x2="0.103479" y2="0.183137" style="stroke:rgb(246,147,147);stroke-width:0.01" />
<line x1="0.0705655" y1="-0.032241" x2="0.103166" y2="0.18345" style="stroke:rgb(246,147,147);stroke-width:0.01" />
<line x1="0.068658" y1="-0.0424781" x2="0.102853" y2="0.183763" style="stroke:rgb(246,147,147);stroke-width:0.01" />
<line x1="0.0659861" y1="-0.0577722" x2="0.10254" y2="0.184076" style="stroke:rgb(246,147,147);stroke-width:0.01" />
<line x1="-0.00479787" y1="-0.0469708" x2="0.0396312" y2="0.246984" style="stroke:rgb(246,147,147);stroke-width:0.01" />
<line x1="-0.00361762" y1="-0.0367782" x2="0.0393182" y2="0.247297" style="stroke:rgb(246,147,147);stroke-width:0.01" />
<line x1="-0.00242217" y1="-0.026485" x2="0.0390052" y2="0.24761" style="stroke:rgb(246,147,147);stroke-width:0.01" />
<line x1="-0.0012115" y1="-0.0160912" x2="0.0386922" y2="0.247923" style="stroke:rgb(246,147,147);stroke-width:0.01" />
<line x1="1.43817e-05" y1="-0.00559671" x2="0.0383793" y2="0.248236" style="stroke:rgb(246,147,147);stroke-width:0.01" />
<line x1="-0.203226" y1="-0.329623" x2="-0.129341" y2="-0.319014" style="stroke:rgb(246,147,147);stroke-width:0.01" />
<line x1="-0.203627" y1="-0.319014" x2="-0.130449" y2="-0.308506" style="stroke:rgb(246,147,147);stroke-width:0.01" />
<line x1="-0.20402" y1="-0.308506" x2="-0.131549" y2="-0.2981" style="stroke:rgb(246,147,147);stroke-width:0.01" />
<line x1="0.0659861" y1="-0.0577722" x2="0.0863366" y2="0.200279" style="stroke:rgb(246,147,147);stroke-width:0.01" />
<line x1="-0.204406" y1="-0.2981" x2="-0.132642" y2="-0.287795" style="stroke:rgb(246,147,147);stroke-width:0.01" />
<line x1="-0.204785" y1="-0.287795" x2="-0.133728" y2="-0.277592" style="stroke:rgb(246,147,147);stroke-width:0.01" />
<line x1="-0.205514" y1="-0.277592" x2="-0.135164" y2="-0.267491" style="stroke:rgb(246,147,147);stroke-width:0.01" />
<line x1="-0.133762" y1="0.291627" x2="-0.0622342" y2="0.34885" style="stroke:rgb(246,147,147);stroke-width:0.01" />
<line x1="-0.203226" y1="-0.329623" x2="-0.00501195" y2="-0.329623" style="stroke:rgb(246,147,147);stroke-width:0.01" />
<line x1="-0.00501195" y1="-0.329623" x2="-0.00501195" y2="0.291627" style="stroke:rgb(246,147,147);stroke-width:0.01" />
<line x1="-0.203627" y1="-0.319014" x2="-0.129341" y2="-0.319014" style="stroke:rgb(246,147,147);stroke-width:0.01" />
<line x1="-0.20402" y1="-0.308506" x2="-0.130449" y2="-0.308506" style="stroke:rgb(246,147,147);stroke-width:0.01" />
<line x1="-0.204406" y1="-0.2981" x2="-0.131549" y2="-0.2981" style="stroke:rgb(246,147,147);stroke-width:0.01" />
<line x1="-0.204785" y1="-0.287795" x2="-0.132642" y2="-0.287795" style="stroke:rgb(246,147,147);stroke-width:0.01" />
<line x1="-0.205514" y1="-0.277592" x2="-0.133728" y2="-0.277592" style="stroke:rgb(246,147,147);stroke-width:0.01" />
<line x1="-0.203226" y1="-0.329623" x2="-0.236159" y2="0.131443" style="stroke:rgb(246,147,147);stroke-width:0.01" />
<line x1="-0.203627" y1="-0.319014" x2="-0.235832" y2="0.131853" style="stroke:rgb(246,147,147);stroke-width:0.01" />
<line x1="-0.20402" y1="-0.308506" x2="-0.235504" y2="0.132263" style="stroke:rgb(246,147,147);stroke-width:0.01" />
<line x1="-0.204406" y1="-0.2981" x2="-0.235176" y2="0.132672" style="stroke:rgb(246,147,147);stroke-width:0.01" />
<line x1="-0.204785" y1="-0.287795" x2="-0.234848" y2="0.133082" style="stroke:rgb(246,147,147);stroke-width:0.01" />
<line x1="-0.133728" y1="-0.277592" x2="-0.168946" y2="0.215459" style="stroke:rgb(246,147,147);stroke-width:0.01" />
<line x1="-0.132642" y1="-0.287795" x2="-0.168619" y2="0.215869" style="stroke:rgb(246,147,147);stroke-width:0.01" />
<line x1="-0.131549" y1="-0.2981" x2="-0.168291" y2="0.216279" style="stroke:rgb(246,147,147);stroke-width:0.01" />
<line x1="-0.130449" y1="-0.308506" x2="-0.167963" y2="0.216689" style="stroke:rgb(246,147,147);stroke-width:0.01" />
<line x1="-0.129341" y1="-0.319014" x2="-0.167635" y2="0.217099" style="stroke:rgb(246,147,147);stroke-width:0.01" />
<line x1="-0.135164" y1="-0.267491" x2="-0.199099" y2="0.177769" style="stroke:rgb(246,147,147);stroke-width:0.01" />
<line x1="-0.236159" y1="0.131443" x2="0.103791" y2="0.182824" style="stroke:rgb(246,147,147);stroke-width:0.01" />
<line x1="-0.235832" y1="0.131853" x2="0.103479" y2="0.183137" style="stroke:rgb(246,147,147);stroke-width:0.01" />
<line x1="-0.235504" y1="0.132263" x2="0.103166" y2="0.18345" style="stroke:rgb(246,147,147);stroke-width:0.01" />
<line x1="-0.235176" y1="0.132672" x2="0.102853" y2="0.183763" style="stroke:rgb(246,147,147);stroke-width:0.01" />
<line x1="-0.234848" y1="0.133082" x2="0.10254" y2="0.184076" style="stroke:rgb(246,147,147);stroke-width:0.01" />
<line x1="0.0667657" y1="-0.0526145" x2="-0.00479787" y2="-0.0469708" style="stroke:rgb(246,147,147);stroke-width:0.01" />
<line x1="0.068658" y1="-0.0424781" x2="-0.00361762" y2="-0.0367782" style="stroke:rgb(246,147,147);stroke-width:0.01" />
<line x1="0.0705655" y1="-0.032241" x2="-0.00242217" y2="-0.026485" style="stroke:rgb(246,147,147);stroke-width:0.01" />
<line x1="0.0724882" y1="-0.0219033" x2="-0.0012115" y2="-0.0160912" style="stroke:rgb(246,147,147);stroke-width:0.01" />
<line x1="0.0744262" y1="-0.011465" x2="1.43817e-05" y2="-0.00559671" style="stroke:rgb(246,147,147);stroke-width:0.01" />
<line x1="-0.168946" y1="0.215459" x2="0.0396312" y2="0.246984" style="stroke:rgb(246,147,147);stroke-width:0.01" />
<line x1="-0.168619" y1="0.215869" x2="0.0393182" y2="0.247297" style="stroke:rgb(246,147,147);stroke-width:0.01" />
<line x1="-0.168291" y1="0.216279" x2="0.0390052" y2="0.24761" style="stroke:rgb(246,147,147);stroke-width:0.01" />
<line x1="-0.167963" y1="0.216689" x2="0.0386922" y2="0.247923" style="stroke:rgb(246,147,147);stroke-width:0.01" />
<line x1="-0.167635" y1="0.217099" x2="0.0383793" y2="0.248236" style="stroke:rgb(246,147,147);stroke-width:0.01" />
<line x1="-0.199099" y1="0.177769" x2="0.0863366" y2="0.200279" style="stroke:rgb(246,147,147);stroke-width:0.01" />
<line x1="0.0648885" y1="-0.0626502" x2="-0.00479787" y2="-0.0469708" style="stroke:rgb(246,147,147);stroke-width:0.01" />
<line x1="0.0667657" y1="-0.0526145" x2="-0.00361762" y2="-0.0367782" style="stroke:rgb(246,147,147);stroke-width:0.01" />
<line x1="0.068658" y1="-0.0424781" x2="-0.00242217" y2="-0.026485" style="stroke:rgb(246,147,147);stroke-width:0.01" />
<line x1="0.0705655" y1="-0.032241" x2="-0.0012115" y2="-0.0160912" style="stroke:rgb(246,147,147);stroke-width:0.01" />
<line x1="0.0724882" y1="-0.0219033" x2="1.43817e-05" y2="-0.00559671" style="stroke:rgb(246,147,147);stroke-width:0.01" />
<line x1="0.0744262" y1="-0.011465" x2="-0.18864" y2="0.0477249" style="stroke:rgb(246,147,147);stroke-width:0.01" />
<line x1="-0.133762" y1="0.291627" x2="-0.00501195" y2="0.291627" style="stroke:rgb(246,147,147);stroke-width:0.01" />
<line x1="0.103791" y1="0.182824" x2="-0.0622342" y2="0.34885" style="stroke:rgb(246,147,147);stroke-width:0.01" />
</g>
</svg>
