<svg xmlns="http://www.w3.org/2000/svg" viewBox="-1.5 -1.5 3 3">
<g transform="scale(1, -1)">
<path d="M0.801786 0.000000 L1.000000 0.000000 L1.000000 0.281169 L1.068650 0.265722 L1.069748 0.270600 L1.072064 0.285923 L1.072420 0.285895 L1.073971 0.296160 L1.074327 0.296132 L1.075894 0.306497 L1.076250 0.306469 L1.077832 0.316936 L1.078188 0.316908 L1.107718 0.512282 L0.942222 0.677778 L0.870000 0.620000 L0.859826 0.574783 L0.768852 0.461066 z M1.000000 0.288256 L1.000000 0.334500 L1.005366 0.333293 L1.003776 0.322776 L1.004125 0.322698 L1.002550 0.312281 L1.002899 0.312203 L1.001340 0.301888 L1.001688 0.301809 L1.000144 0.291594 L1.000493 0.291516 z " fill="rgb(245,195,195)" />
<path d="M0.000000 0.000000 L1.000000 0.000000 L1.000000 1.000000 L0.000000 1.000000  z" fill="none" stroke="rgb(128,128,128)" stroke-width="0.01" />
<line x1="1.06865" y1="0.265722" x2="1.06975" y2="0.2706" style="stroke:rgb(246,147,147);stroke-width:0.01" />
<line x1="0.768852" y1="0.461066" x2="0.942222" y2="0.677778" style="stroke:rgb(246,147,147);stroke-width:0.01" />
<line x1="0.815122" y1="0.376098" x2="0.87" y2="0.62" style="stroke:rgb(246,147,147);stroke-width:0.01" />
<line x1="1.07819" y1="0.316908" x2="1.10772" y2="0.512282" style="stroke:rgb(246,147,147);stroke-width:0.01" />
<line x1="1.07625" y1="0.306469" x2="1.1074" y2="0.512595" style="stroke:rgb(246,147,147);stroke-width:0.01" />
<line x1="1.07433" y1="0.296132" x2="1.10709" y2="0.512908" style="stroke:rgb(246,147,147);stroke-width:0.01" />
<line x1="1.07242" y1="0.285895" x2="1.10678" y2="0.513221" style="stroke:rgb(246,147,147);stroke-width:0.01" />
<line x1="1.06975" y1="0.2706" x2="1.10647" y2="0.513534" style="stroke:rgb(246,147,147);stroke-width:0.01" />
<line x1="0.998964" y1="0.281402" x2="1.04356" y2="0.576443" style="stroke:rgb(246,147,147);stroke-width:0.01" />
<line x1="1.00014" y1="0.291594" x2="1.04324" y2="0.576756" style="stroke:rgb(246,147,147);stroke-width:0.01" />
<line x1="1.00134" y1="0.301888" x2="1.04293" y2="0.577069" style="stroke:rgb(246,147,147);stroke-width:0.01" />
<line x1="1.00255" y1="0.312281" x2="1.04262" y2="0.577382" style="stroke:rgb(246,147,147);stroke-width:0.01" />
<line x1="1.00378" y1="0.322776" x2="1.04231" y2="0.577695" style="stroke:rgb(246,147,147);stroke-width:0.01" />
<line x1="0.801786" y1="0" x2="0.875671" y2="0.0106091" style="stroke:rgb(246,147,147);stroke-width:0.01" />
<line x1="0.801385" y1="0.0106091" x2="0.874563" y2="0.0211168" style="stroke:rgb(246,147,147);stroke-width:0.01" />
<line x1="0.800992" y1="0.0211168" x2="0.873463" y2="0.0315228" style="stroke:rgb(246,147,147);stroke-width:0.01" />
<line x1="1.06975" y1="0.2706" x2="1.09019" y2="0.52981" style="stroke:rgb(246,147,147);stroke-width:0.01" />
<line x1="0.800606" y1="0.0315228" x2="0.872369" y2="0.0418274" style="stroke:rgb(246,147,147);stroke-width:0.01" />
<line x1="0.800227" y1="0.0418274" x2="0.871284" y2="0.0520305" style="stroke:rgb(246,147,147);stroke-width:0.01" />
<line x1="0.799498" y1="0.0520305" x2="0.869848" y2="0.062132" style="stroke:rgb(246,147,147);stroke-width:0.01" />
<line x1="0.87" y1="0.62" x2="0.942222" y2="0.677778" style="stroke:rgb(246,147,147);stroke-width:0.01" />
<line x1="0.801786" y1="0" x2="1" y2="0" style="stroke:rgb(246,147,147);stroke-width:0.01" />
<line x1="1" y1="0" x2="1" y2="0.62" style="stroke:rgb(246,147,147);stroke-width:0.01" />
<line x1="0.801385" y1="0.0106091" x2="0.875671" y2="0.0106091" style="stroke:rgb(246,147,147);stroke-width:0.01" />
<line x1="0.800992" y1="0.0211168" x2="0.874563" y2="0.0211168" style="stroke:rgb(246,147,147);stroke-width:0.01" />
<line x1="0.800606" y1="0.0315228" x2="0.873463" y2="0.0315228" style="stroke:rgb(246,147,147);stroke-width:0.01" />
<line x1="0.800227" y1="0.0418274" x2="0.872369" y2="0.0418274" style="stroke:rgb(246,147,147);stroke-width:0.01" />
<line x1="0.799498" y1="0.0520305" x2="0.871284" y2="0.0520305" style="stroke:rgb(246,147,147);stroke-width:0.01" />
<line x1="0.801786" y1="0" x2="0.768852" y2="0.461066" style="stroke:rgb(246,147,147);stroke-width:0.01" />
<line x1="0.801385" y1="0.0106091" x2="0.76918" y2="0.461475" style="stroke:rgb(246,147,147);stroke-width:0.01" />
<line x1="0.800992" y1="0.0211168" x2="0.769508" y2="0.461885" style="stroke:rgb(246,147,147);stroke-width:0.01" />
<line x1="0.800606" y1="0.0315228" x2="0.769836" y2="0.462295" style="stroke:rgb(246,147,147);stroke-width:0.01" />
<line x1="0.800227" y1="0.0418274" x2="0.770164" y2="0.462705" style="stroke:rgb(246,147,147);stroke-width:0.01" />
<line x1="0.871284" y1="0.0520305" x2="0.836066" y2="0.545082" style="stroke:rgb(246,147,147);stroke-width:0.01" />
<line x1="0.872369" y1="0.0418274" x2="0.836393" y2="0.545492" style="stroke:rgb(246,147,147);stroke-width:0.01" />
<line x1="0.873463" y1="0.0315228" x2="0.836721" y2="0.545902" style="stroke:rgb(246,147,147);stroke-width:0.01" />
<line x1="0.874563" y1="0.0211168" x2="0.837049" y2="0.546311" style="stroke:rgb(246,147,147);stroke-width:0.01" />
<line x1="0.875671" y1="0.0106091" x2="0.837377" y2="0.546721" style="stroke:rgb(246,147,147);stroke-width:0.01" />
<line x1="0.869848" y1="0.062132" x2="0.805913" y2="0.507391" style="stroke:rgb(246,147,147);stroke-width:0.01" />
<line x1="0.768852" y1="0.461066" x2="1.10772" y2="0.512282" style="stroke:rgb(246,147,147);stroke-width:0.01" />
<line x1="0.76918" y1="0.461475" x2="1.1074" y2="0.512595" style="stroke:rgb(246,147,147);stroke-width:0.01" />
<line x1="0.769508" y1="0.461885" x2="1.10709" y2="0.512908" style="stroke:rgb(246,147,147);stroke-width:0.01" />
<line x1="0.769836" y1="0.462295" x2="1.10678" y2="0.513221" style="stroke:rgb(246,147,147);stroke-width:0.01" />
<line x1="0.770164" y1="0.462705" x2="1.10647" y2="0.513534" style="stroke:rgb(246,147,147);stroke-width:0.01" />
<line x1="1.07053" y1="0.275758" x2="0.998964" y2="0.281402" style="stroke:rgb(246,147,147);stroke-width:0.01" />
<line x1="1.07242" y1="0.285895" x2="1.00014" y2="0.291594" style="stroke:rgb(246,147,147);stroke-width:0.01" />
<line x1="1.07433" y1="0.296132" x2="1.00134" y2="0.301888" style="stroke:rgb(246,147,147);stroke-width:0.01" />
<line x1="1.07625" y1="0.306469" x2="1.00255" y2="0.312281" style="stroke:rgb(246,147,147);stroke-width:0.01" />
<line x1="1.07819" y1="0.316908" x2="1.00378" y2="0.322776" style="stroke:rgb(246,147,147);stroke-width:0.01" />
<line x1="0.836066" y1="0.545082" x2="1.04356" y2="0.576443" style="stroke:rgb(246,147,147);stroke-width:0.01" />
<line x1="0.836393" y1="0.545492" x2="1.04324" y2="0.576756" style="stroke:rgb(246,147,147);stroke-width:0.01" />
<line x1="0.836721" y1="0.545902" x2="1.04293" y2="0.577069" style="stroke:rgb(246,147,147);stroke-width:0.01" />
<line x1="0.837049" y1="0.546311" x2="1.04262" y2="0.577382" style="stroke:rgb(246,147,147);stroke-width:0.01" />
<line x1="0.837377" y1="0.546721" x2="1.04231" y2="0.577695" style="stroke:rgb(246,147,147);stroke-width:0.01" />
<line x1="0.805913" y1="0.507391" x2="1.09019" y2="0.52981" style="stroke:rgb(246,147,147);stroke-width:0.01" />
<line x1="1.06865" y1="0.265722" x2="0.998964" y2="0.281402" style="stroke:rgb(246,147,147);stroke-width:0.01" />
<line x1="1.07053" y1="0.275758" x2="1.00014" y2="0.291594" style="stroke:rgb(246,147,147);stroke-width:0.01" />
<line x1="1.07242" y1="0.285895" x2="1.00134" y2="0.301888" style="stroke:rgb(246,147,147);stroke-width:0.01" />
<line x1="1.07433" y1="0.296132" x2="1.00255" y2="0.312281" style="stroke:rgb(246,147,147);stroke-width:0.01" />
<line x1="1.07625" y1="0.306469" x2="1.00378" y2="0.322776" style="stroke:rgb(246,147,147);stroke-width:0.01" />
<line x1="1.07819" y1="0.316908" x2="0.815122" y2="0.376098" style="stroke:rgb(246,147,147);stroke-width:0.01" />
<line x1="0.87" y1="0.62" x2="1" y2="0.62" style="stroke:rgb(246,147,147);stroke-width:0.01" />
<line x1="1.10772" y1="0.512282" x2="0.942222" y2="0.677778" style="stroke:rgb(246,147,147);stroke-width:0.01" />
</g>
</svg>
