<svg xmlns="http://www.w3.org/2000/svg" viewBox="-1.5 -1.5 3 3">
<g transform="scale(1, -1)">
<path d="M0.160935 -0.424887 L0.169766 -0.422770 L0.164227 -0.202739 L0.117775 -0.203909 L-0.033323 0.569717 L-0.094912 0.570775 L-0.111662 0.536322 L-0.431933 0.399798 L-0.171482 -0.211190 z " fill="rgb(245,195,195)" />
<path d="M0.000000 0.000000 L1.000000 0.000000 L1.000000 1.000000 L0.000000 1.000000  z" fill="none" stroke="rgb(128,128,128)" stroke-width="0.01" />
<line x1="0.160935" y1="-0.424887" x2="0.169766" y2="-0.42277" style="stroke:rgb(246,147,147);stroke-width:0.01" />
<line x1="0.0803419" y1="-0.373077" x2="0.14574" y2="-0.37243" style="stroke:rgb(246,147,147);stroke-width:0.01" />
<line x1="0.152318" y1="-0.380765" x2="-0.047314" y2="-0.279894" style="stroke:rgb(246,147,147);stroke-width:0.01" />
<line x1="0.130758" y1="-0.405487" x2="0.152318" y2="-0.380765" style="stroke:rgb(246,147,147);stroke-width:0.01" />
<line x1="0.160935" y1="-0.424887" x2="-0.171482" y2="-0.21119" style="stroke:rgb(246,147,147);stroke-width:0.01" />
<line x1="-0.171482" y1="-0.21119" x2="0.164227" y2="-0.202739" style="stroke:rgb(246,147,147);stroke-width:0.01" />
<line x1="0.130758" y1="-0.405487" x2="0.14574" y2="-0.37243" style="stroke:rgb(246,147,147);stroke-width:0.01" />
<line x1="-0.171482" y1="-0.21119" x2="-0.431933" y2="0.399798" style="stroke:rgb(246,147,147);stroke-width:0.01" />
<line x1="-0.112033" y1="-0.077155" x2="0.0839657" y2="-0.0308031" style="stroke:rgb(246,147,147);stroke-width:0.01" />
<line x1="-0.0617566" y1="-0.0533553" x2="0.0839657" y2="-0.0308031" style="stroke:rgb(246,147,147);stroke-width:0.01" />
<line x1="-0.047314" y1="-0.279894" x2="0.0839568" y2="-0.0307578" style="stroke:rgb(246,147,147);stroke-width:0.01" />
<line x1="-0.047314" y1="-0.279894" x2="-0.162563" y2="0.0811367" style="stroke:rgb(246,147,147);stroke-width:0.01" />
<line x1="0.0803419" y1="-0.373077" x2="-0.222508" y2="0.308334" style="stroke:rgb(246,147,147);stroke-width:0.01" />
<line x1="-0.112033" y1="-0.077155" x2="0.0779494" y2="0" style="stroke:rgb(246,147,147);stroke-width:0.01" />
<line x1="0.169766" y1="-0.42277" x2="0.14574" y2="-0.37243" style="stroke:rgb(246,147,147);stroke-width:0.01" />
<line x1="-0.0617566" y1="-0.0533553" x2="0.0677881" y2="0.0520263" style="stroke:rgb(246,147,147);stroke-width:0.01" />
<line x1="0" y1="0" x2="0.0779494" y2="0" style="stroke:rgb(246,147,147);stroke-width:0.01" />
<line x1="0" y1="0" x2="0" y2="0.0399709" style="stroke:rgb(246,147,147);stroke-width:0.01" />
<line x1="0.169766" y1="-0.42277" x2="0.164227" y2="-0.202739" style="stroke:rgb(246,147,147);stroke-width:0.01" />
<line x1="0.160935" y1="-0.424887" x2="-0.0333233" y2="0.569717" style="stroke:rgb(246,147,147);stroke-width:0.01" />
<line x1="0.0839568" y1="-0.0307578" x2="0" y2="0.0399709" style="stroke:rgb(246,147,147);stroke-width:0.01" />
<line x1="0" y1="0.0399709" x2="0.0643013" y2="0.0698785" style="stroke:rgb(246,147,147);stroke-width:0.01" />
<line x1="-0.124541" y1="0.110918" x2="-0.0141363" y2="0.471479" style="stroke:rgb(246,147,147);stroke-width:0.01" />
<line x1="0.0677881" y1="0.0520263" x2="-0.124541" y2="0.110918" style="stroke:rgb(246,147,147);stroke-width:0.01" />
<line x1="0.0643013" y1="0.0698785" x2="-0.162563" y2="0.0811367" style="stroke:rgb(246,147,147);stroke-width:0.01" />
<line x1="-0.162563" y1="0.0811367" x2="0.0321264" y2="0.234614" style="stroke:rgb(246,147,147);stroke-width:0.01" />
<line x1="-0.222508" y1="0.308334" x2="-0.0949116" y2="0.570775" style="stroke:rgb(246,147,147);stroke-width:0.01" />
<line x1="-0.0141363" y1="0.471479" x2="-0.0949116" y2="0.570775" style="stroke:rgb(246,147,147);stroke-width:0.01" />
<line x1="0.0321264" y1="0.234614" x2="-0.222508" y2="0.308334" style="stroke:rgb(246,147,147);stroke-width:0.01" />
<line x1="-0.431933" y1="0.399798" x2="-0.0333233" y2="0.569717" style="stroke:rgb(246,147,147);stroke-width:0.01" />
<line x1="-0.0333233" y1="0.569717" x2="-0.0949116" y2="0.570775" style="stroke:rgb(246,147,147);stroke-width:0.01" />
</g>
</svg>
