<svg xmlns="http://www.w3.org/2000/svg" viewBox="-1.5 -1.5 3 3">
<g transform="scale(1, -1)">
<path d="M0.186558 -0.492789 L0.195389 -0.490672 L0.189850 -0.270641 L0.143398 -0.271811 L-0.007700 0.501815 L-0.069288 0.502873 L-0.086039 0.468421 L-0.406310 0.331896 L-0.145859 -0.279092 z " fill="rgb(245,195,195)" />
<path d="M0.025623 -0.067902 L1.025623 -0.067902 L1.025623 0.932098 L0.025623 0.932098  z" fill="none" stroke="rgb(128,128,128)" stroke-width="0.01" />
<line x1="0.186558" y1="-0.492789" x2="0.195389" y2="-0.490672" style="stroke:rgb(246,147,147);stroke-width:0.01" />
<line x1="0.105965" y1="-0.440979" x2="0.171363" y2="-0.440331" style="stroke:rgb(246,147,147);stroke-width:0.01" />
<line x1="0.177941" y1="-0.448666" x2="-0.0216909" y2="-0.347796" style="stroke:rgb(246,147,147);stroke-width:0.01" />
<line x1="0.156381" y1="-0.473389" x2="0.177941" y2="-0.448666" style="stroke:rgb(246,147,147);stroke-width:0.01" />
<line x1="0.186558" y1="-0.492789" x2="-0.145859" y2="-0.279092" style="stroke:rgb(246,147,147);stroke-width:0.01" />
<line x1="-0.145859" y1="-0.279092" x2="0.18985" y2="-0.270641" style="stroke:rgb(246,147,147);stroke-width:0.01" />
<line x1="0.156381" y1="-0.473389" x2="0.171363" y2="-0.440331" style="stroke:rgb(246,147,147);stroke-width:0.01" />
<line x1="-0.145859" y1="-0.279092" x2="-0.40631" y2="0.331896" style="stroke:rgb(246,147,147);stroke-width:0.01" />
<line x1="-0.0864096" y1="-0.145057" x2="0.109589" y2="-0.0987049" style="stroke:rgb(246,147,147);stroke-width:0.01" />
<line x1="-0.0361335" y1="-0.121257" x2="0.109589" y2="-0.0987049" style="stroke:rgb(246,147,147);stroke-width:0.01" />
<line x1="-0.0216909" y1="-0.347796" x2="0.10958" y2="-0.0986596" style="stroke:rgb(246,147,147);stroke-width:0.01" />
<line x1="-0.0216909" y1="-0.347796" x2="-0.13694" y2="0.0132349" style="stroke:rgb(246,147,147);stroke-width:0.01" />
<line x1="0.105965" y1="-0.440979" x2="-0.196884" y2="0.240432" style="stroke:rgb(246,147,147);stroke-width:0.01" />
<line x1="-0.0864096" y1="-0.145057" x2="0.103573" y2="-0.0679018" style="stroke:rgb(246,147,147);stroke-width:0.01" />
<line x1="0.195389" y1="-0.490672" x2="0.171363" y2="-0.440331" style="stroke:rgb(246,147,147);stroke-width:0.01" />
<line x1="-0.0361335" y1="-0.121257" x2="0.0934112" y2="-0.0158755" style="stroke:rgb(246,147,147);stroke-width:0.01" />
<line x1="0.0256231" y1="-0.0679018" x2="0.103573" y2="-0.0679018" style="stroke:rgb(246,147,147);stroke-width:0.01" />
<line x1="0.0256231" y1="-0.0679018" x2="0.0256231" y2="-0.0279309" style="stroke:rgb(246,147,147);stroke-width:0.01" />
<line x1="0.195389" y1="-0.490672" x2="0.18985" y2="-0.270641" style="stroke:rgb(246,147,147);stroke-width:0.01" />
<line x1="0.186558" y1="-0.492789" x2="-0.00770022" y2="0.501815" style="stroke:rgb(246,147,147);stroke-width:0.01" />
<line x1="0.10958" y1="-0.0986596" x2="0.0256231" y2="-0.0279309" style="stroke:rgb(246,147,147);stroke-width:0.01" />
<line x1="0.0256231" y1="-0.0279309" x2="0.0899244" y2="0.00197669" style="stroke:rgb(246,147,147);stroke-width:0.01" />
<line x1="-0.0989174" y1="0.0430157" x2="0.0114869" y2="0.403577" style="stroke:rgb(246,147,147);stroke-width:0.01" />
<line x1="0.0934112" y1="-0.0158755" x2="-0.0989174" y2="0.0430157" style="stroke:rgb(246,147,147);stroke-width:0.01" />
<line x1="0.0899244" y1="0.00197669" x2="-0.13694" y2="0.0132349" style="stroke:rgb(246,147,147);stroke-width:0.01" />
<line x1="-0.13694" y1="0.0132349" x2="0.0577495" y2="0.166712" style="stroke:rgb(246,147,147);stroke-width:0.01" />
<line x1="-0.196884" y1="0.240432" x2="-0.0692885" y2="0.502873" style="stroke:rgb(246,147,147);stroke-width:0.01" />
<line x1="0.0114869" y1="0.403577" x2="-0.0692885" y2="0.502873" style="stroke:rgb(246,147,147);stroke-width:0.01" />
<line x1="0.0577495" y1="0.166712" x2="-0.196884" y2="0.240432" style="stroke:rgb(246,147,147);stroke-width:0.01" />
<line x1="-0.40631" y1="0.331896" x2="-0.00770022" y2="0.501815" style="stroke:rgb(246,147,147);stroke-width:0.01" />
<line x1="-0.00770022" y1="0.501815" x2="-0.0692885" y2="0.502873" style="stroke:rgb(246,147,147);stroke-width:0.01" />
</g>
</svg>
