<svg xmlns="http://www.w3.org/2000/svg" viewBox="-1.5 -1.5 3 3">
<g transform="scale(1, -1)">
<path d="M0.544766 0.000000 L0.733099 0.068333 L0.726237 0.329118 L0.703590 0.339706 L0.689472 0.309510 L0.527707 0.223235 L0.421580 0.422223 L0.423173 0.434785 L0.414279 0.435913 L0.260134 0.212279 L0.375993 0.062765 L0.437208 0.055001 L0.431531 0.052941 z M0.481403 0.071037 L0.406464 0.167744 L0.592168 0.111225 z " fill="rgb(245,195,195)" />
<path d="M0.000000 0.000000 L1.000000 0.000000 L1.000000 1.000000 L0.000000 1.000000  z" fill="none" stroke="rgb(128,128,128)" stroke-width="0.01" />
<line x1="0.710943" y1="0.0602941" x2="0.732119" y2="0.105588" style="stroke:rgb(246,147,147);stroke-width:0.01" />
<line x1="0.544766" y1="0" x2="0.70359" y2="0.339706" style="stroke:rgb(246,147,147);stroke-width:0.01" />
<line x1="0.544766" y1="0" x2="0.733099" y2="0.0683333" style="stroke:rgb(246,147,147);stroke-width:0.01" />
<line x1="0.586531" y1="0.112941" x2="0.696825" y2="0.171765" style="stroke:rgb(246,147,147);stroke-width:0.01" />
<line x1="0.431531" y1="0.0529412" x2="0.730648" y2="0.161471" style="stroke:rgb(246,147,147);stroke-width:0.01" />
<line x1="0.260134" y1="0.212279" x2="0.414279" y2="0.435913" style="stroke:rgb(246,147,147);stroke-width:0.01" />
<line x1="0.375993" y1="0.0627646" x2="0.423173" y2="0.434785" style="stroke:rgb(246,147,147);stroke-width:0.01" />
<line x1="0.417413" y1="0.164412" x2="0.726237" y2="0.329118" style="stroke:rgb(246,147,147);stroke-width:0.01" />
<line x1="0.267713" y1="0.202498" x2="0.270943" y2="0.227961" style="stroke:rgb(246,147,147);stroke-width:0.01" />
<line x1="0.733099" y1="0.0683333" x2="0.726237" y2="0.329118" style="stroke:rgb(246,147,147);stroke-width:0.01" />
<line x1="0.270943" y1="0.227961" x2="0.35859" y2="0.274706" style="stroke:rgb(246,147,147);stroke-width:0.01" />
<line x1="0.5" y1="0.0470379" x2="0.375993" y2="0.0627646" style="stroke:rgb(246,147,147);stroke-width:0.01" />
<line x1="0.375993" y1="0.0627646" x2="0.260134" y2="0.212279" style="stroke:rgb(246,147,147);stroke-width:0.01" />
<line x1="0.544766" y1="0" x2="0.431531" y2="0.0529412" style="stroke:rgb(246,147,147);stroke-width:0.01" />
<line x1="0.417413" y1="0.164412" x2="0.35859" y2="0.274706" style="stroke:rgb(246,147,147);stroke-width:0.01" />
<line x1="0.39172" y1="0.186771" x2="0.267713" y2="0.202498" style="stroke:rgb(246,147,147);stroke-width:0.01" />
<line x1="0.5" y1="0.0470379" x2="0.312774" y2="0.28865" style="stroke:rgb(246,147,147);stroke-width:0.01" />
<line x1="0.733099" y1="0.0683333" x2="0.260134" y2="0.212279" style="stroke:rgb(246,147,147);stroke-width:0.01" />
<line x1="0.586531" y1="0.112941" x2="0.414279" y2="0.435913" style="stroke:rgb(246,147,147);stroke-width:0.01" />
<line x1="0.710943" y1="0.0602941" x2="0.597707" y2="0.113235" style="stroke:rgb(246,147,147);stroke-width:0.01" />
<line x1="0.732119" y1="0.105588" x2="0.696825" y2="0.171765" style="stroke:rgb(246,147,147);stroke-width:0.01" />
<line x1="0.730648" y1="0.161471" x2="0.312774" y2="0.28865" style="stroke:rgb(246,147,147);stroke-width:0.01" />
<line x1="0.423173" y1="0.434785" x2="0.414279" y2="0.435913" style="stroke:rgb(246,147,147);stroke-width:0.01" />
<line x1="0.726237" y1="0.329118" x2="0.70359" y2="0.339706" style="stroke:rgb(246,147,147);stroke-width:0.01" />
</g>
</svg>
