<svg xmlns="http://www.w3.org/2000/svg" viewBox="-1.5 -1.5 3 3">
<g transform="scale(1, -1)">
<path d="M0.034216 -0.205988 L0.222549 -0.137655 L0.215686 0.123129 L0.193039 0.133717 L0.178922 0.103521 L0.017157 0.017247 L-0.088970 0.216235 L-0.087377 0.228796 L-0.096271 0.229924 L-0.250417 0.006291 L-0.134557 -0.143224 L-0.073342 -0.150987 L-0.079020 -0.153047 z M-0.029147 -0.134952 L-0.104086 -0.038244 L0.081618 -0.094763 z " fill="rgb(245,195,195)" />
<path d="M-0.510550 -0.205988 L0.489450 -0.205988 L0.489450 0.794012 L-0.510550 0.794012  z" fill="none" stroke="rgb(128,128,128)" stroke-width="0.01" />
<line x1="0.200392" y1="-0.145694" x2="0.221569" y2="-0.1004" style="stroke:rgb(246,147,147);stroke-width:0.01" />
<line x1="0.0342157" y1="-0.205988" x2="0.193039" y2="0.133717" style="stroke:rgb(246,147,147);stroke-width:0.01" />
<line x1="0.0342157" y1="-0.205988" x2="0.222549" y2="-0.137655" style="stroke:rgb(246,147,147);stroke-width:0.01" />
<line x1="0.0759804" y1="-0.0930473" x2="0.186275" y2="-0.0342237" style="stroke:rgb(246,147,147);stroke-width:0.01" />
<line x1="-0.0790196" y1="-0.153047" x2="0.220098" y2="-0.0445178" style="stroke:rgb(246,147,147);stroke-width:0.01" />
<line x1="-0.250417" y1="0.00629097" x2="-0.0962711" y2="0.229924" style="stroke:rgb(246,147,147);stroke-width:0.01" />
<line x1="-0.134557" y1="-0.143224" x2="-0.0873769" y2="0.228796" style="stroke:rgb(246,147,147);stroke-width:0.01" />
<line x1="-0.0931373" y1="-0.0415767" x2="0.215686" y2="0.123129" style="stroke:rgb(246,147,147);stroke-width:0.01" />
<line x1="-0.242837" y1="-0.00349037" x2="-0.239608" y2="0.0219723" style="stroke:rgb(246,147,147);stroke-width:0.01" />
<line x1="0.222549" y1="-0.137655" x2="0.215686" y2="0.123129" style="stroke:rgb(246,147,147);stroke-width:0.01" />
<line x1="-0.239608" y1="0.0219723" x2="-0.151961" y2="0.0687174" style="stroke:rgb(246,147,147);stroke-width:0.01" />
<line x1="-0.0105503" y1="-0.158951" x2="-0.134557" y2="-0.143224" style="stroke:rgb(246,147,147);stroke-width:0.01" />
<line x1="-0.134557" y1="-0.143224" x2="-0.250417" y2="0.00629097" style="stroke:rgb(246,147,147);stroke-width:0.01" />
<line x1="0.0342157" y1="-0.205988" x2="-0.0790196" y2="-0.153047" style="stroke:rgb(246,147,147);stroke-width:0.01" />
<line x1="-0.0931373" y1="-0.0415767" x2="-0.151961" y2="0.0687174" style="stroke:rgb(246,147,147);stroke-width:0.01" />
<line x1="-0.11883" y1="-0.0192171" x2="-0.242837" y2="-0.00349037" style="stroke:rgb(246,147,147);stroke-width:0.01" />
<line x1="-0.0105503" y1="-0.158951" x2="-0.197776" y2="0.0826613" style="stroke:rgb(246,147,147);stroke-width:0.01" />
<line x1="0.222549" y1="-0.137655" x2="-0.250417" y2="0.00629097" style="stroke:rgb(246,147,147);stroke-width:0.01" />
<line x1="0.0759804" y1="-0.0930473" x2="-0.0962711" y2="0.229924" style="stroke:rgb(246,147,147);stroke-width:0.01" />
<line x1="0.200392" y1="-0.145694" x2="0.0871569" y2="-0.0927531" style="stroke:rgb(246,147,147);stroke-width:0.01" />
<line x1="0.221569" y1="-0.1004" x2="0.186275" y2="-0.0342237" style="stroke:rgb(246,147,147);stroke-width:0.01" />
<line x1="0.220098" y1="-0.0445178" x2="-0.197776" y2="0.0826613" style="stroke:rgb(246,147,147);stroke-width:0.01" />
<line x1="-0.0873769" y1="0.228796" x2="-0.0962711" y2="0.229924" style="stroke:rgb(246,147,147);stroke-width:0.01" />
<line x1="0.215686" y1="0.123129" x2="0.193039" y2="0.133717" style="stroke:rgb(246,147,147);stroke-width:0.01" />
</g>
</svg>
