<svg xmlns="http://www.w3.org/2000/svg" viewBox="-1.5 -1.5 3 3">
<g transform="scale(1, -1)">
<path d="M0.073714 0.277080 L0.134055 0.350226 L0.174167 0.371619 L0.203700 0.365332 L0.203757 0.364305 L0.207527 0.364517 L0.220179 0.528996 L0.193651 0.543915 L0.152801 0.522129 L0.159174 0.563305 L0.026190 0.638095 L-0.055777 0.569096 L-0.054852 0.383140 z " fill="rgb(245,195,195)" />
<path d="M0.000000 0.000000 L1.000000 0.000000 L1.000000 1.000000 L0.000000 1.000000  z" fill="none" stroke="rgb(128,128,128)" stroke-width="0.01" />
<line x1="0.207527" y1="0.364517" x2="0.220179" y2="0.528996" style="stroke:rgb(246,147,147);stroke-width:0.01" />
<line x1="0.12549" y1="0.345658" x2="0.159174" y2="0.563305" style="stroke:rgb(246,147,147);stroke-width:0.01" />
<line x1="-0.0548521" y1="0.38314" x2="-0.0557768" y2="0.569096" style="stroke:rgb(246,147,147);stroke-width:0.01" />
<line x1="0.0714938" y1="0.393477" x2="0.0899471" y2="0.480159" style="stroke:rgb(246,147,147);stroke-width:0.01" />
<line x1="-0.0047619" y1="0.438095" x2="0.0261905" y2="0.638095" style="stroke:rgb(246,147,147);stroke-width:0.01" />
<line x1="0.203757" y1="0.364305" x2="0.193651" y2="0.543915" style="stroke:rgb(246,147,147);stroke-width:0.01" />
<line x1="0.0737138" y1="0.27708" x2="0.164622" y2="0.38728" style="stroke:rgb(246,147,147);stroke-width:0.01" />
<line x1="0.0737138" y1="0.27708" x2="-0.0548521" y2="0.38314" style="stroke:rgb(246,147,147);stroke-width:0.01" />
<line x1="0.12549" y1="0.345658" x2="0.209524" y2="0.390476" style="stroke:rgb(246,147,147);stroke-width:0.01" />
<line x1="-0.0548521" y1="0.38314" x2="0.159174" y2="0.563305" style="stroke:rgb(246,147,147);stroke-width:0.01" />
<line x1="0.12549" y1="0.345658" x2="-0.0047619" y2="0.438095" style="stroke:rgb(246,147,147);stroke-width:0.01" />
<line x1="0.164622" y1="0.38728" x2="-0.0557768" y2="0.569096" style="stroke:rgb(246,147,147);stroke-width:0.01" />
<line x1="-0.0047619" y1="0.438095" x2="0.193651" y2="0.543915" style="stroke:rgb(246,147,147);stroke-width:0.01" />
<line x1="0.209524" y1="0.390476" x2="0.0899471" y2="0.480159" style="stroke:rgb(246,147,147);stroke-width:0.01" />
<line x1="0.203757" y1="0.364305" x2="0.207527" y2="0.364517" style="stroke:rgb(246,147,147);stroke-width:0.01" />
<line x1="-0.0557768" y1="0.569096" x2="0.0261905" y2="0.638095" style="stroke:rgb(246,147,147);stroke-width:0.01" />
<line x1="0.207527" y1="0.364517" x2="0.0714938" y2="0.393477" style="stroke:rgb(246,147,147);stroke-width:0.01" />
<line x1="0.0899471" y1="0.480159" x2="0.220179" y2="0.528996" style="stroke:rgb(246,147,147);stroke-width:0.01" />
<line x1="0.220179" y1="0.528996" x2="0.193651" y2="0.543915" style="stroke:rgb(246,147,147);stroke-width:0.01" />
<line x1="0.159174" y1="0.563305" x2="0.0261905" y2="0.638095" style="stroke:rgb(246,147,147);stroke-width:0.01" />
</g>
</svg>
