<svg xmlns="http://www.w3.org/2000/svg" viewBox="-1.5 -1.5 3 3">
<g transform="scale(1, -1)">
<path d="M-0.052308 -0.172286 L0.008033 -0.099140 L0.048145 -0.077747 L0.077678 -0.084034 L0.077735 -0.085061 L0.081505 -0.084848 L0.094157 0.079630 L0.067629 0.094549 L0.026779 0.072763 L0.033152 0.113939 L-0.099832 0.188729 L-0.181799 0.119730 L-0.180874 -0.066226 z " fill="rgb(245,195,195)" />
<path d="M-0.126022 -0.449366 L0.873978 -0.449366 L0.873978 0.550634 L-0.126022 0.550634  z" fill="none" stroke="rgb(128,128,128)" stroke-width="0.01" />
<line x1="0.081505" y1="-0.0848485" x2="0.0941572" y2="0.0796299" style="stroke:rgb(246,147,147);stroke-width:0.01" />
<line x1="-0.000531802" y1="-0.103708" x2="0.0331517" y2="0.113939" style="stroke:rgb(246,147,147);stroke-width:0.01" />
<line x1="-0.180874" y1="-0.0662263" x2="-0.181799" y2="0.11973" style="stroke:rgb(246,147,147);stroke-width:0.01" />
<line x1="-0.0545282" y1="-0.055889" x2="-0.0360749" y2="0.0307929" style="stroke:rgb(246,147,147);stroke-width:0.01" />
<line x1="-0.130784" y1="-0.0112706" x2="-0.0998315" y2="0.188729" style="stroke:rgb(246,147,147);stroke-width:0.01" />
<line x1="0.0777353" y1="-0.0850606" x2="0.0676288" y2="0.0945495" style="stroke:rgb(246,147,147);stroke-width:0.01" />
<line x1="-0.0523082" y1="-0.172286" x2="0.0385998" y2="-0.0620863" style="stroke:rgb(246,147,147);stroke-width:0.01" />
<line x1="-0.0523082" y1="-0.172286" x2="-0.180874" y2="-0.0662263" style="stroke:rgb(246,147,147);stroke-width:0.01" />
<line x1="-0.000531802" y1="-0.103708" x2="0.0835018" y2="-0.0588897" style="stroke:rgb(246,147,147);stroke-width:0.01" />
<line x1="-0.180874" y1="-0.0662263" x2="0.0331517" y2="0.113939" style="stroke:rgb(246,147,147);stroke-width:0.01" />
<line x1="-0.000531802" y1="-0.103708" x2="-0.130784" y2="-0.0112706" style="stroke:rgb(246,147,147);stroke-width:0.01" />
<line x1="0.0385998" y1="-0.0620863" x2="-0.181799" y2="0.11973" style="stroke:rgb(246,147,147);stroke-width:0.01" />
<line x1="-0.130784" y1="-0.0112706" x2="0.0676288" y2="0.0945495" style="stroke:rgb(246,147,147);stroke-width:0.01" />
<line x1="0.0835018" y1="-0.0588897" x2="-0.0360749" y2="0.0307929" style="stroke:rgb(246,147,147);stroke-width:0.01" />
<line x1="0.0777353" y1="-0.0850606" x2="0.081505" y2="-0.0848485" style="stroke:rgb(246,147,147);stroke-width:0.01" />
<line x1="-0.181799" y1="0.11973" x2="-0.0998315" y2="0.188729" style="stroke:rgb(246,147,147);stroke-width:0.01" />
<line x1="0.081505" y1="-0.0848485" x2="-0.0545282" y2="-0.055889" style="stroke:rgb(246,147,147);stroke-width:0.01" />
<line x1="-0.0360749" y1="0.0307929" x2="0.0941572" y2="0.0796299" style="stroke:rgb(246,147,147);stroke-width:0.01" />
<line x1="0.0941572" y1="0.0796299" x2="0.0676288" y2="0.0945495" style="stroke:rgb(246,147,147);stroke-width:0.01" />
<line x1="0.0331517" y1="0.113939" x2="-0.0998315" y2="0.188729" style="stroke:rgb(246,147,147);stroke-width:0.01" />
</g>
</svg>
