<svg xmlns="http://www.w3.org/2000/svg" viewBox="-1.5 -1.5 3 3">
<g transform="scale(1, -1)">
<path d="M0.120598 -0.385108 L0.308954 -0.220724 L0.336922 0.190806 L-0.121411 0.399139 L-0.184197 0.344344 L-0.121411 0.272403 L-0.121411 -0.017528 L-0.371411 -0.267528 L-0.121411 -0.267528 L0.130207 -0.015910 L0.144571 -0.032368 z " fill="rgb(245,195,195)" />
<path d="M-0.371411 -0.267528 L0.628589 -0.267528 L0.628589 0.732472 L-0.371411 0.732472  z" fill="none" stroke="rgb(128,128,128)" stroke-width="0.01" />
<line x1="0.120598" y1="-0.385108" x2="0.308954" y2="-0.220724" style="stroke:rgb(246,147,147);stroke-width:0.01" />
<line x1="-0.121411" y1="-0.267528" x2="0.336922" y2="0.190806" style="stroke:rgb(246,147,147);stroke-width:0.01" />
<line x1="0.308954" y1="-0.220724" x2="0.336922" y2="0.190806" style="stroke:rgb(246,147,147);stroke-width:0.01" />
<line x1="0.120598" y1="-0.385108" x2="0.165047" y2="0.268931" style="stroke:rgb(246,147,147);stroke-width:0.01" />
<line x1="-0.371411" y1="-0.267528" x2="-0.121411" y2="-0.267528" style="stroke:rgb(246,147,147);stroke-width:0.01" />
<line x1="-0.371411" y1="-0.267528" x2="0.165047" y2="0.268931" style="stroke:rgb(246,147,147);stroke-width:0.01" />
<line x1="-0.121411" y1="-0.267528" x2="-0.121411" y2="0.399139" style="stroke:rgb(246,147,147);stroke-width:0.01" />
<line x1="-0.184197" y1="0.344344" x2="-0.121411" y2="0.399139" style="stroke:rgb(246,147,147);stroke-width:0.01" />
<line x1="0.308954" y1="-0.220724" x2="-0.184197" y2="0.344344" style="stroke:rgb(246,147,147);stroke-width:0.01" />
<line x1="0.336922" y1="0.190806" x2="-0.121411" y2="0.399139" style="stroke:rgb(246,147,147);stroke-width:0.01" />
</g>
</svg>
