<svg xmlns="http://www.w3.org/2000/svg" viewBox="-1.5 -1.5 3 3">
<g transform="scale(1, -1)">
<path d="M0.615385 0.410256 L0.789916 0.583333 L1.021528 0.583333 L1.177515 0.740631 L1.000000 0.916667 L1.000000 1.000000 L0.615385 1.000000 L0.615385 1.076923 L0.532051 1.076923 L0.326389 0.583333 L0.415385 0.493590 z " fill="rgb(245,195,195)" />
<path d="M0.000000 0.000000 L1.000000 0.000000 L1.000000 1.000000 L0.000000 1.000000  z" fill="none" stroke="rgb(128,128,128)" stroke-width="0.01" />
<line x1="1.02153" y1="0.583333" x2="1.17751" y2="0.740631" style="stroke:rgb(246,147,147);stroke-width:0.01" />
<line x1="0.615385" y1="0.410256" x2="0.852071" y2="0.64497" style="stroke:rgb(246,147,147);stroke-width:0.01" />
<line x1="0.326389" y1="0.583333" x2="0.532051" y2="1.07692" style="stroke:rgb(246,147,147);stroke-width:0.01" />
<line x1="0.615385" y1="0.410256" x2="0.615385" y2="1.07692" style="stroke:rgb(246,147,147);stroke-width:0.01" />
<line x1="1" y1="0.583333" x2="1" y2="1" style="stroke:rgb(246,147,147);stroke-width:0.01" />
<line x1="0.415385" y1="0.49359" x2="0.352941" y2="0.647059" style="stroke:rgb(246,147,147);stroke-width:0.01" />
<line x1="0.352941" y1="0.647059" x2="1" y2="0.916667" style="stroke:rgb(246,147,147);stroke-width:0.01" />
<line x1="0.415385" y1="0.49359" x2="0.326389" y2="0.583333" style="stroke:rgb(246,147,147);stroke-width:0.01" />
<line x1="0.615385" y1="0.410256" x2="0.415385" y2="0.49359" style="stroke:rgb(246,147,147);stroke-width:0.01" />
<line x1="0.326389" y1="0.583333" x2="1.02153" y2="0.583333" style="stroke:rgb(246,147,147);stroke-width:0.01" />
<line x1="0.852071" y1="0.64497" x2="0.5" y2="1" style="stroke:rgb(246,147,147);stroke-width:0.01" />
<line x1="1.02153" y1="0.583333" x2="0.532051" y2="1.07692" style="stroke:rgb(246,147,147);stroke-width:0.01" />
<line x1="1.17751" y1="0.740631" x2="1" y2="0.916667" style="stroke:rgb(246,147,147);stroke-width:0.01" />
<line x1="0.5" y1="1" x2="1" y2="1" style="stroke:rgb(246,147,147);stroke-width:0.01" />
<line x1="0.532051" y1="1.07692" x2="0.615385" y2="1.07692" style="stroke:rgb(246,147,147);stroke-width:0.01" />
</g>
</svg>
