<svg xmlns="http://www.w3.org/2000/svg" viewBox="-1.5 -1.5 3 3">
<g transform="scale(1, -1)">
<path d="M0.492009 -0.117580 L0.680365 0.046804 L0.708333 0.458333 L0.250000 0.666667 L0.187215 0.611872 L0.250000 0.539931 L0.250000 0.250000 L0.000000 0.000000 L0.250000 0.000000 L0.501618 0.251618 L0.515982 0.235160 z " fill="rgb(245,195,195)" />
<path d="M0.000000 0.000000 L1.000000 0.000000 L1.000000 1.000000 L0.000000 1.000000  z" fill="none" stroke="rgb(128,128,128)" stroke-width="0.01" />
<line x1="0.492009" y1="-0.11758" x2="0.680365" y2="0.0468037" style="stroke:rgb(246,147,147);stroke-width:0.01" />
<line x1="0.25" y1="0" x2="0.708333" y2="0.458333" style="stroke:rgb(246,147,147);stroke-width:0.01" />
<line x1="0.680365" y1="0.0468037" x2="0.708333" y2="0.458333" style="stroke:rgb(246,147,147);stroke-width:0.01" />
<line x1="0.492009" y1="-0.11758" x2="0.536458" y2="0.536458" style="stroke:rgb(246,147,147);stroke-width:0.01" />
<line x1="0" y1="0" x2="0.25" y2="0" style="stroke:rgb(246,147,147);stroke-width:0.01" />
<line x1="0" y1="0" x2="0.536458" y2="0.536458" style="stroke:rgb(246,147,147);stroke-width:0.01" />
<line x1="0.25" y1="0" x2="0.25" y2="0.666667" style="stroke:rgb(246,147,147);stroke-width:0.01" />
<line x1="0.187215" y1="0.611872" x2="0.25" y2="0.666667" style="stroke:rgb(246,147,147);stroke-width:0.01" />
<line x1="0.680365" y1="0.0468037" x2="0.187215" y2="0.611872" style="stroke:rgb(246,147,147);stroke-width:0.01" />
<line x1="0.708333" y1="0.458333" x2="0.25" y2="0.666667" style="stroke:rgb(246,147,147);stroke-width:0.01" />
</g>
</svg>
