<svg xmlns="http://www.w3.org/2000/svg" viewBox="-1 -1 3 3">
<path d="M0.237500 0.000000 L0.271825 0.000000 L0.362413 0.125429 L0.591467 1.000000 L0.257073 1.188059 L0.244972 1.201347 L0.240571 1.197339 L0.263002 1.000000 L0.000000 1.000000 L0.000000 0.263889 z " fill="rgb(245,195,195)" />
<path d="M0 0 L0 1 L1 1 L1 0 z" fill="none" stroke="rgb(128,128,128)" stroke-width="0.01" />
<line x1="0.271825" y1="0" x2="0.362413" y2="0.125429" style="stroke:rgb(246,147,147);stroke-width:0.01" />
<line x1="0.362413" y1="0.125429" x2="0.591467" y2="1" style="stroke:rgb(246,147,147);stroke-width:0.01" />
<line x1="0.2375" y1="0" x2="0.262431" y2="0.236188" style="stroke:rgb(246,147,147);stroke-width:0.01" />
<line x1="0.2375" y1="0" x2="0.271825" y2="0" style="stroke:rgb(246,147,147);stroke-width:0.01" />
<line x1="0" y1="0.263889" x2="0" y2="1" style="stroke:rgb(246,147,147);stroke-width:0.01" />
<line x1="0.362413" y1="0.125429" x2="0.240571" y2="1.19734" style="stroke:rgb(246,147,147);stroke-width:0.01" />
<line x1="0.271825" y1="0" x2="0.0428861" y2="0.691249" style="stroke:rgb(246,147,147);stroke-width:0.01" />
<line x1="0.2375" y1="0" x2="0" y2="0.263889" style="stroke:rgb(246,147,147);stroke-width:0.01" />
<line x1="0.262431" y1="0.236188" x2="0" y2="0.263889" style="stroke:rgb(246,147,147);stroke-width:0.01" />
<line x1="0.240571" y1="1.19734" x2="0.244972" y2="1.20135" style="stroke:rgb(246,147,147);stroke-width:0.01" />
<line x1="0.0428861" y1="0.691249" x2="0.555028" y2="0.860869" style="stroke:rgb(246,147,147);stroke-width:0.01" />
<line x1="0.555028" y1="0.860869" x2="0.244972" y2="1.20135" style="stroke:rgb(246,147,147);stroke-width:0.01" />
<line x1="0" y1="1" x2="0.591467" y2="1" style="stroke:rgb(246,147,147);stroke-width:0.01" />
<line x1="0.591467" y1="1" x2="0.240571" y2="1.19734" style="stroke:rgb(246,147,147);stroke-width:0.01" />
</svg>
