<svg xmlns="http://www.w3.org/2000/svg" viewBox="-1.5 -1.5 3 3">
<g transform="scale(1, -1)">
<path d="M0.242614 -0.498445 L0.449943 -0.237436 L0.254186 -0.081939 L0.256500 0.001362 L0.145432 0.004448 L-0.028574 0.142667 L-0.056711 0.250156 L-0.137328 0.229054 L-0.333085 0.384550 L-0.540414 0.123541 L-0.252564 -0.317957 z " fill="rgb(245,195,195)" />
<path d="M0.148593 1.732027 L1.148593 1.732027 L1.148593 2.732027 L0.148593 2.732027  z" fill="none" stroke="rgb(128,128,128)" stroke-width="0.01" />
<line x1="0.242614" y1="-0.498445" x2="-0.252564" y2="-0.317957" style="stroke:rgb(246,147,147);stroke-width:0.01" />
<line x1="0.2565" y1="0.00136174" x2="-0.132238" y2="0.0121621" style="stroke:rgb(246,147,147);stroke-width:0.01" />
<line x1="-0.540414" y1="0.123541" x2="-0.0567108" y2="0.250156" style="stroke:rgb(246,147,147);stroke-width:0.01" />
<line x1="-0.252564" y1="-0.317957" x2="0.0417677" y2="-0.126057" style="stroke:rgb(246,147,147);stroke-width:0.01" />
<line x1="0.346279" y1="-0.367941" x2="-0.436749" y2="0.254046" style="stroke:rgb(246,147,147);stroke-width:0.01" />
<line x1="0.449943" y1="-0.237436" x2="-0.333085" y2="0.38455" style="stroke:rgb(246,147,147);stroke-width:0.01" />
<line x1="0.242614" y1="-0.498445" x2="0.449943" y2="-0.237436" style="stroke:rgb(246,147,147);stroke-width:0.01" />
<line x1="-0.252564" y1="-0.317957" x2="-0.540414" y2="0.123541" style="stroke:rgb(246,147,147);stroke-width:0.01" />
<line x1="-0.540414" y1="0.123541" x2="-0.333085" y2="0.38455" style="stroke:rgb(246,147,147);stroke-width:0.01" />
<line x1="0.0417677" y1="-0.126057" x2="-0.0567108" y2="0.250156" style="stroke:rgb(246,147,147);stroke-width:0.01" />
<line x1="-0.252564" y1="-0.317957" x2="-0.132238" y2="0.0121621" style="stroke:rgb(246,147,147);stroke-width:0.01" />
<line x1="0.242614" y1="-0.498445" x2="0.2565" y2="0.00136174" style="stroke:rgb(246,147,147);stroke-width:0.01" />
</g>
</svg>
