<svg xmlns="http://www.w3.org/2000/svg" viewBox="-1.5 -1.5 3 3">
<g transform="scale(1, -1)">
<path d="M0.094021 -2.230473 L0.301350 -1.969463 L0.105593 -1.813967 L0.107907 -1.730665 L-0.003161 -1.727580 L-0.177167 -1.589360 L-0.205304 -1.481871 L-0.285921 -1.502973 L-0.481678 -1.347477 L-0.689007 -1.608486 L-0.401157 -2.049984 z " fill="rgb(245,195,195)" />
<path d="M0.000000 0.000000 L1.000000 0.000000 L1.000000 1.000000 L0.000000 1.000000  z" fill="none" stroke="rgb(128,128,128)" stroke-width="0.01" />
<line x1="0.0940212" y1="-2.23047" x2="-0.401157" y2="-2.04998" style="stroke:rgb(246,147,147);stroke-width:0.01" />
<line x1="0.107907" y1="-1.73067" x2="-0.280831" y2="-1.71986" style="stroke:rgb(246,147,147);stroke-width:0.01" />
<line x1="-0.689007" y1="-1.60849" x2="-0.205304" y2="-1.48187" style="stroke:rgb(246,147,147);stroke-width:0.01" />
<line x1="-0.401157" y1="-2.04998" x2="-0.106825" y2="-1.85808" style="stroke:rgb(246,147,147);stroke-width:0.01" />
<line x1="0.197686" y1="-2.09997" x2="-0.585342" y2="-1.47798" style="stroke:rgb(246,147,147);stroke-width:0.01" />
<line x1="0.30135" y1="-1.96946" x2="-0.481678" y2="-1.34748" style="stroke:rgb(246,147,147);stroke-width:0.01" />
<line x1="0.0940212" y1="-2.23047" x2="0.30135" y2="-1.96946" style="stroke:rgb(246,147,147);stroke-width:0.01" />
<line x1="-0.401157" y1="-2.04998" x2="-0.689007" y2="-1.60849" style="stroke:rgb(246,147,147);stroke-width:0.01" />
<line x1="-0.689007" y1="-1.60849" x2="-0.481678" y2="-1.34748" style="stroke:rgb(246,147,147);stroke-width:0.01" />
<line x1="-0.106825" y1="-1.85808" x2="-0.205304" y2="-1.48187" style="stroke:rgb(246,147,147);stroke-width:0.01" />
<line x1="-0.401157" y1="-2.04998" x2="-0.280831" y2="-1.71986" style="stroke:rgb(246,147,147);stroke-width:0.01" />
<line x1="0.0940212" y1="-2.23047" x2="0.107907" y2="-1.73067" style="stroke:rgb(246,147,147);stroke-width:0.01" />
</g>
</svg>
