<svg xmlns="http://www.w3.org/2000/svg" viewBox="-1.5 -1.5 3 3">
<g transform="scale(1, -1)">
<path d="M-0.097126 -0.288314 L0.261633 -0.156500 L0.303057 -0.039617 L0.038060 0.054300 L0.104130 0.117224 L-0.098709 0.330206 L-0.279744 0.157792 L-0.236641 -0.207320 z M0.002837 -0.006258 L-0.014785 0.003972 L0.017288 0.034517 z " fill="rgb(245,195,195)" />
<path d="M-0.098709 0.330206 L0.901291 0.330206 L0.901291 1.330206 L-0.098709 1.330206  z" fill="none" stroke="rgb(128,128,128)" stroke-width="0.01" />
<line x1="-0.0971261" y1="-0.288314" x2="0.261633" y2="-0.1565" style="stroke:rgb(246,147,147);stroke-width:0.01" />
<line x1="-0.0971261" y1="-0.288314" x2="-0.236641" y2="-0.20732" style="stroke:rgb(246,147,147);stroke-width:0.01" />
<line x1="0.189881" y1="-0.182863" x2="-0.271123" y2="0.0847695" style="stroke:rgb(246,147,147);stroke-width:0.01" />
<line x1="-0.236641" y1="-0.20732" x2="0.10413" y2="0.117224" style="stroke:rgb(246,147,147);stroke-width:0.01" />
<line x1="0.261633" y1="-0.1565" x2="-0.279744" y2="0.157792" style="stroke:rgb(246,147,147);stroke-width:0.01" />
<line x1="0.303057" y1="-0.0396173" x2="0.0258347" y2="0.0586326" style="stroke:rgb(246,147,147);stroke-width:0.01" />
<line x1="0.261633" y1="-0.1565" x2="0.303057" y2="-0.0396173" style="stroke:rgb(246,147,147);stroke-width:0.01" />
<line x1="0.189881" y1="-0.182863" x2="0.247612" y2="-0.0199673" style="stroke:rgb(246,147,147);stroke-width:0.01" />
<line x1="-0.0971261" y1="-0.288314" x2="0.0258347" y2="0.0586326" style="stroke:rgb(246,147,147);stroke-width:0.01" />
<line x1="-0.271123" y1="0.0847695" x2="-0.0581415" y2="0.287609" style="stroke:rgb(246,147,147);stroke-width:0.01" />
<line x1="-0.236641" y1="-0.20732" x2="-0.279744" y2="0.157792" style="stroke:rgb(246,147,147);stroke-width:0.01" />
<line x1="-0.279744" y1="0.157792" x2="-0.0987095" y2="0.330206" style="stroke:rgb(246,147,147);stroke-width:0.01" />
<line x1="-0.279744" y1="0.157792" x2="-0.0987095" y2="0.330206" style="stroke:rgb(246,147,147);stroke-width:0.01" />
<line x1="0.10413" y1="0.117224" x2="-0.0987095" y2="0.330206" style="stroke:rgb(246,147,147);stroke-width:0.01" />
<line x1="-0.0987095" y1="0.330206" x2="-0.0987095" y2="0.330206" style="stroke:rgb(246,147,147);stroke-width:0.01" />
</g>
</svg>
