<svg xmlns="http://www.w3.org/2000/svg" viewBox="-1.5 -1.5 3 3">
<g transform="scale(1, -1)">
<path d="M0.001583 -0.618519 L0.360342 -0.486706 L0.401766 -0.369823 L0.136770 -0.275906 L0.202840 -0.212982 L0.000000 -0.000000 L-0.181034 -0.172414 L-0.137931 -0.537525 z M0.101546 -0.336464 L0.083925 -0.326234 L0.115997 -0.295689 z " fill="rgb(245,195,195)" />
<path d="M0.000000 0.000000 L1.000000 0.000000 L1.000000 1.000000 L0.000000 1.000000  z" fill="none" stroke="rgb(128,128,128)" stroke-width="0.01" />
<line x1="0.00158338" y1="-0.618519" x2="0.360342" y2="-0.486706" style="stroke:rgb(246,147,147);stroke-width:0.01" />
<line x1="0.00158338" y1="-0.618519" x2="-0.137931" y2="-0.537525" style="stroke:rgb(246,147,147);stroke-width:0.01" />
<line x1="0.28859" y1="-0.513068" x2="-0.172414" y2="-0.245436" style="stroke:rgb(246,147,147);stroke-width:0.01" />
<line x1="-0.137931" y1="-0.537525" x2="0.20284" y2="-0.212982" style="stroke:rgb(246,147,147);stroke-width:0.01" />
<line x1="0.360342" y1="-0.486706" x2="-0.181034" y2="-0.172414" style="stroke:rgb(246,147,147);stroke-width:0.01" />
<line x1="0.401766" y1="-0.369823" x2="0.124544" y2="-0.271573" style="stroke:rgb(246,147,147);stroke-width:0.01" />
<line x1="0.360342" y1="-0.486706" x2="0.401766" y2="-0.369823" style="stroke:rgb(246,147,147);stroke-width:0.01" />
<line x1="0.28859" y1="-0.513068" x2="0.346322" y2="-0.350173" style="stroke:rgb(246,147,147);stroke-width:0.01" />
<line x1="0.00158338" y1="-0.618519" x2="0.124544" y2="-0.271573" style="stroke:rgb(246,147,147);stroke-width:0.01" />
<line x1="-0.172414" y1="-0.245436" x2="0.040568" y2="-0.0425963" style="stroke:rgb(246,147,147);stroke-width:0.01" />
<line x1="-0.137931" y1="-0.537525" x2="-0.181034" y2="-0.172414" style="stroke:rgb(246,147,147);stroke-width:0.01" />
<line x1="-0.181034" y1="-0.172414" x2="8.54544e-22" y2="-8.97271e-22" style="stroke:rgb(246,147,147);stroke-width:0.01" />
<line x1="-0.181034" y1="-0.172414" x2="4.27272e-22" y2="-4.48635e-22" style="stroke:rgb(246,147,147);stroke-width:0.01" />
<line x1="0.20284" y1="-0.212982" x2="4.27272e-22" y2="-4.48635e-22" style="stroke:rgb(246,147,147);stroke-width:0.01" />
<line x1="8.54544e-22" y1="-8.97271e-22" x2="4.27272e-22" y2="-4.48635e-22" style="stroke:rgb(246,147,147);stroke-width:0.01" />
</g>
</svg>
