<svg xmlns="http://www.w3.org/2000/svg" viewBox="-1.5 -1.5 3 3">
<g transform="scale(1, -1)">
<path d="M0.167155 -0.175281 L0.329291 -0.049176 L0.332066 0.047940 L0.156824 0.186289 L-0.199751 0.111906 L-0.194751 0.083965 L-0.201108 0.082448 L-0.194369 0.054204 L-0.202249 0.052084 L-0.181937 -0.033049 L-0.107452 -0.070291 L-0.087879 -0.065026 L-0.091271 -0.078381 L0.017138 -0.132586 z M0.162485 -0.011849 L0.133726 -0.005413 L0.162084 0.002215 z " fill="rgb(245,195,195)" />
<path d="M-0.110721 -0.449609 L0.889279 -0.449609 L0.889279 0.550391 L-0.110721 0.550391  z" fill="none" stroke="rgb(128,128,128)" stroke-width="0.01" />
<line x1="0.329291" y1="-0.0491757" x2="0.332066" y2="0.0479404" style="stroke:rgb(246,147,147);stroke-width:0.01" />
<line x1="0.183187" y1="-0.162812" x2="0.19236" y2="0.158235" style="stroke:rgb(246,147,147);stroke-width:0.01" />
<line x1="0.17476" y1="-0.169367" x2="0.17476" y2="0.172129" style="stroke:rgb(246,147,147);stroke-width:0.01" />
<line x1="0.318316" y1="-0.0577117" x2="0.318316" y2="0.0587953" style="stroke:rgb(246,147,147);stroke-width:0.01" />
<line x1="-0.174585" y1="-0.0287168" x2="-0.199751" y2="0.111906" style="stroke:rgb(246,147,147);stroke-width:0.01" />
<line x1="-0.181937" y1="-0.0330486" x2="-0.202249" y2="0.0520841" style="stroke:rgb(246,147,147);stroke-width:0.01" />
<line x1="-0.0773145" y1="-0.0853597" x2="-0.0536742" y2="0.0365216" style="stroke:rgb(246,147,147);stroke-width:0.01" />
<line x1="0.167155" y1="-0.175281" x2="0.156824" y2="0.186289" style="stroke:rgb(246,147,147);stroke-width:0.01" />
<line x1="-0.172415" y1="-0.0378094" x2="-0.201108" y2="0.0824485" style="stroke:rgb(246,147,147);stroke-width:0.01" />
<line x1="-0.0848886" y1="-0.0815727" x2="-0.0616372" y2="0.0383035" style="stroke:rgb(246,147,147);stroke-width:0.01" />
<line x1="-0.162894" y1="-0.0425701" x2="-0.199751" y2="0.111906" style="stroke:rgb(246,147,147);stroke-width:0.01" />
<line x1="0.306906" y1="-0.0665858" x2="0.302978" y2="0.0709042" style="stroke:rgb(246,147,147);stroke-width:0.01" />
<line x1="-0.0763368" y1="-0.0858486" x2="-0.0457112" y2="0.0347397" style="stroke:rgb(246,147,147);stroke-width:0.01" />
<line x1="-0.0838041" y1="-0.0821149" x2="-0.0536742" y2="0.0365216" style="stroke:rgb(246,147,147);stroke-width:0.01" />
<line x1="-0.175799" y1="-0.0361173" x2="-0.202249" y2="0.0520841" style="stroke:rgb(246,147,147);stroke-width:0.01" />
<line x1="-0.0912714" y1="-0.0783812" x2="-0.0616372" y2="0.0383035" style="stroke:rgb(246,147,147);stroke-width:0.01" />
<line x1="-0.165782" y1="-0.041126" x2="-0.194369" y2="0.0542038" style="stroke:rgb(246,147,147);stroke-width:0.01" />
<line x1="-0.0901096" y1="-0.0789622" x2="-0.0537889" y2="0.0360698" style="stroke:rgb(246,147,147);stroke-width:0.01" />
<line x1="0.167155" y1="-0.175281" x2="0.329291" y2="-0.0491757" style="stroke:rgb(246,147,147);stroke-width:0.01" />
<line x1="-0.144684" y1="-0.0516749" x2="-0.157384" y2="-0.0223981" style="stroke:rgb(246,147,147);stroke-width:0.01" />
<line x1="-0.107452" y1="-0.0702907" x2="-0.12814" y2="-0.0186037" style="stroke:rgb(246,147,147);stroke-width:0.01" />
<line x1="-0.0901096" y1="-0.0789622" x2="-0.0771683" y2="-0.0608907" style="stroke:rgb(246,147,147);stroke-width:0.01" />
<line x1="-0.0763368" y1="-0.0858486" x2="-0.0647617" y2="-0.0714932" style="stroke:rgb(246,147,147);stroke-width:0.01" />
<line x1="-0.0838041" y1="-0.0821149" x2="-0.0706724" y2="-0.0658291" style="stroke:rgb(246,147,147);stroke-width:0.01" />
<line x1="-0.0912714" y1="-0.0783812" x2="-0.0771683" y2="-0.0608907" style="stroke:rgb(246,147,147);stroke-width:0.01" />
<line x1="-0.0773145" y1="-0.0853597" x2="-0.0647617" y2="-0.0714932" style="stroke:rgb(246,147,147);stroke-width:0.01" />
<line x1="-0.0848886" y1="-0.0815727" x2="-0.070965" y2="-0.0661919" style="stroke:rgb(246,147,147);stroke-width:0.01" />
<line x1="-0.00795434" y1="-0.12004" x2="-0.070965" y2="-0.0661919" style="stroke:rgb(246,147,147);stroke-width:0.01" />
<line x1="0.00392712" y1="-0.125981" x2="-0.0706724" y2="-0.0658291" style="stroke:rgb(246,147,147);stroke-width:0.01" />
<line x1="0.017138" y1="-0.132586" x2="-0.0771683" y2="-0.0608907" style="stroke:rgb(246,147,147);stroke-width:0.01" />
<line x1="0.017138" y1="-0.132586" x2="-0.0912714" y2="-0.0783812" style="stroke:rgb(246,147,147);stroke-width:0.01" />
<line x1="-0.107452" y1="-0.0702907" x2="-0.181937" y2="-0.0330486" style="stroke:rgb(246,147,147);stroke-width:0.01" />
<line x1="0.167155" y1="-0.175281" x2="0.017138" y2="-0.132586" style="stroke:rgb(246,147,147);stroke-width:0.01" />
<line x1="0.17476" y1="-0.169367" x2="0.00392712" y2="-0.125981" style="stroke:rgb(246,147,147);stroke-width:0.01" />
<line x1="0.183187" y1="-0.162812" x2="-0.00795434" y2="-0.12004" style="stroke:rgb(246,147,147);stroke-width:0.01" />
<line x1="-0.107452" y1="-0.0702907" x2="0.332066" y2="0.0479404" style="stroke:rgb(246,147,147);stroke-width:0.01" />
<line x1="-0.162894" y1="-0.0425701" x2="-0.125108" y2="-0.0261794" style="stroke:rgb(246,147,147);stroke-width:0.01" />
<line x1="-0.172415" y1="-0.0378094" x2="-0.12814" y2="-0.0186037" style="stroke:rgb(246,147,147);stroke-width:0.01" />
<line x1="-0.181937" y1="-0.0330486" x2="-0.157384" y2="-0.0223981" style="stroke:rgb(246,147,147);stroke-width:0.01" />
<line x1="-0.165782" y1="-0.041126" x2="-0.125108" y2="-0.0261794" style="stroke:rgb(246,147,147);stroke-width:0.01" />
<line x1="-0.144684" y1="-0.0516749" x2="0.318316" y2="0.0587953" style="stroke:rgb(246,147,147);stroke-width:0.01" />
<line x1="-0.175799" y1="-0.0361173" x2="-0.12814" y2="-0.0186037" style="stroke:rgb(246,147,147);stroke-width:0.01" />
<line x1="-0.174585" y1="-0.0287168" x2="0.302978" y2="0.0709042" style="stroke:rgb(246,147,147);stroke-width:0.01" />
<line x1="0.306906" y1="-0.0665858" x2="-0.0537889" y2="0.0360698" style="stroke:rgb(246,147,147);stroke-width:0.01" />
<line x1="0.318316" y1="-0.0577117" x2="-0.0457112" y2="0.0347397" style="stroke:rgb(246,147,147);stroke-width:0.01" />
<line x1="0.329291" y1="-0.0491757" x2="-0.0616372" y2="0.0383035" style="stroke:rgb(246,147,147);stroke-width:0.01" />
<line x1="-0.202249" y1="0.0520841" x2="0.19236" y2="0.158235" style="stroke:rgb(246,147,147);stroke-width:0.01" />
<line x1="0.332066" y1="0.0479404" x2="0.156824" y2="0.186289" style="stroke:rgb(246,147,147);stroke-width:0.01" />
<line x1="-0.201108" y1="0.0824485" x2="0.17476" y2="0.172129" style="stroke:rgb(246,147,147);stroke-width:0.01" />
<line x1="-0.199751" y1="0.111906" x2="0.156824" y2="0.186289" style="stroke:rgb(246,147,147);stroke-width:0.01" />
</g>
</svg>
