<svg xmlns="http://www.w3.org/2000/svg" viewBox="-1.5 -1.5 3 3">
<g transform="scale(1, -1)">
<path d="M-0.360550 -2.301835 L0.110092 -2.133028 L0.203599 -1.641849 L-0.123853 -1.579511 L-0.310162 -1.303105 L-0.724771 -1.582569 L-0.694495 -2.081651 L-0.444954 -2.066514 z " fill="rgb(245,195,195)" />
<path d="M0.000000 0.000000 L1.000000 0.000000 L1.000000 1.000000 L0.000000 1.000000  z" fill="none" stroke="rgb(128,128,128)" stroke-width="0.01" />
<line x1="-0.694495" y1="-2.08165" x2="-0.30632" y2="-2.0581" style="stroke:rgb(246,147,147);stroke-width:0.01" />
<line x1="-0.36055" y1="-2.30183" x2="0.110092" y2="-2.13303" style="stroke:rgb(246,147,147);stroke-width:0.01" />
<line x1="0.110092" y1="-2.13303" x2="-0.362385" y2="-1.94128" style="stroke:rgb(246,147,147);stroke-width:0.01" />
<line x1="-0.215596" y1="-1.71865" x2="-0.724771" y2="-1.58257" style="stroke:rgb(246,147,147);stroke-width:0.01" />
<line x1="-0.30632" y1="-2.0581" x2="-0.491845" y2="-1.93578" style="stroke:rgb(246,147,147);stroke-width:0.01" />
<line x1="0.203599" y1="-1.64185" x2="-0.208991" y2="-1.5633" style="stroke:rgb(246,147,147);stroke-width:0.01" />
<line x1="-0.0754128" y1="-1.65138" x2="-0.208991" y2="-1.5633" style="stroke:rgb(246,147,147);stroke-width:0.01" />
<line x1="-0.362385" y1="-1.94128" x2="-0.724771" y2="-1.58257" style="stroke:rgb(246,147,147);stroke-width:0.01" />
<line x1="-0.491845" y1="-1.93578" x2="-0.215596" y2="-1.71865" style="stroke:rgb(246,147,147);stroke-width:0.01" />
<line x1="-0.362385" y1="-1.94128" x2="-0.0754128" y2="-1.65138" style="stroke:rgb(246,147,147);stroke-width:0.01" />
<line x1="0.110092" y1="-2.13303" x2="-0.215596" y2="-1.71865" style="stroke:rgb(246,147,147);stroke-width:0.01" />
<line x1="-0.724771" y1="-1.58257" x2="-0.310162" y2="-1.30311" style="stroke:rgb(246,147,147);stroke-width:0.01" />
<line x1="-0.0754128" y1="-1.65138" x2="-0.310162" y2="-1.30311" style="stroke:rgb(246,147,147);stroke-width:0.01" />
<line x1="-0.36055" y1="-2.30183" x2="-0.491845" y2="-1.93578" style="stroke:rgb(246,147,147);stroke-width:0.01" />
<line x1="-0.362385" y1="-1.94128" x2="-0.208991" y2="-1.5633" style="stroke:rgb(246,147,147);stroke-width:0.01" />
<line x1="0.110092" y1="-2.13303" x2="0.203599" y2="-1.64185" style="stroke:rgb(246,147,147);stroke-width:0.01" />
<line x1="-0.30632" y1="-2.0581" x2="-0.215596" y2="-1.71865" style="stroke:rgb(246,147,147);stroke-width:0.01" />
<line x1="-0.694495" y1="-2.08165" x2="-0.724771" y2="-1.58257" style="stroke:rgb(246,147,147);stroke-width:0.01" />
</g>
</svg>
