<svg xmlns="http://www.w3.org/2000/svg" viewBox="-1.5 -1.5 3 3">
<g transform="scale(1, -1)">
<path d="M-0.030215 -0.236382 L0.083599 -0.172023 L0.094969 -0.001478 L0.081884 0.008423 L0.095798 0.010956 L0.105597 0.157945 L-0.030215 0.201930 L-0.173072 0.098033 L-0.173072 -0.153049 z M-0.030215 -0.006435 L-0.030215 0.051767 L0.005158 0.040311 z " fill="rgb(245,195,195)" />
<path d="M-0.458787 -0.557811 L0.541213 -0.557811 L0.541213 0.442189 L-0.458787 0.442189  z" fill="none" stroke="rgb(128,128,128)" stroke-width="0.01" />
<line x1="0.0835992" y1="-0.172023" x2="0.0949689" y2="-0.00147782" style="stroke:rgb(246,147,147);stroke-width:0.01" />
<line x1="0.0957978" y1="0.0109562" x2="0.105597" y2="0.157945" style="stroke:rgb(246,147,147);stroke-width:0.01" />
<line x1="-0.0684514" y1="-0.056964" x2="0.0177516" y2="0.0569536" style="stroke:rgb(246,147,147);stroke-width:0.01" />
<line x1="-0.173072" y1="-0.153049" x2="-0.173072" y2="0.0980335" style="stroke:rgb(246,147,147);stroke-width:0.01" />
<line x1="-0.0302152" y1="-0.236382" x2="-0.0302152" y2="0.20193" style="stroke:rgb(246,147,147);stroke-width:0.01" />
<line x1="-0.0302152" y1="-0.236382" x2="0.0835992" y2="-0.172023" style="stroke:rgb(246,147,147);stroke-width:0.01" />
<line x1="0.0352562" y1="-6.47321e-05" x2="0.00967102" y2="0.140483" style="stroke:rgb(246,147,147);stroke-width:0.01" />
<line x1="-0.173072" y1="-0.153049" x2="0.0949689" y2="-0.00147782" style="stroke:rgb(246,147,147);stroke-width:0.01" />
<line x1="-0.173072" y1="0.0980335" x2="-0.0302152" y2="0.20193" style="stroke:rgb(246,147,147);stroke-width:0.01" />
<line x1="-0.0302152" y1="-0.236382" x2="-0.173072" y2="-0.153049" style="stroke:rgb(246,147,147);stroke-width:0.01" />
<line x1="0.0352562" y1="-6.47321e-05" x2="0.0957978" y2="0.0109562" style="stroke:rgb(246,147,147);stroke-width:0.01" />
<line x1="0.0835992" y1="-0.172023" x2="-0.0684514" y2="-0.056964" style="stroke:rgb(246,147,147);stroke-width:0.01" />
<line x1="0.00967102" y1="0.140483" x2="0.105597" y2="0.157945" style="stroke:rgb(246,147,147);stroke-width:0.01" />
<line x1="0.0949689" y1="-0.00147782" x2="0.0177516" y2="0.0569536" style="stroke:rgb(246,147,147);stroke-width:0.01" />
<line x1="0.0957978" y1="0.0109562" x2="-0.173072" y2="0.0980335" style="stroke:rgb(246,147,147);stroke-width:0.01" />
<line x1="0.105597" y1="0.157945" x2="-0.0302152" y2="0.20193" style="stroke:rgb(246,147,147);stroke-width:0.01" />
</g>
</svg>
