<svg xmlns="http://www.w3.org/2000/svg" viewBox="-1.5 -1.5 3 3">
<g transform="scale(1, -1)">
<path d="M0.428571 0.321429 L0.542386 0.385788 L0.553756 0.556333 L0.540671 0.566234 L0.554584 0.568767 L0.564384 0.715756 L0.428571 0.759740 L0.285714 0.655844 L0.285714 0.404762 z M0.428571 0.551376 L0.428571 0.609578 L0.463945 0.598122 z " fill="rgb(245,195,195)" />
<path d="M0.000000 0.000000 L1.000000 0.000000 L1.000000 1.000000 L0.000000 1.000000  z" fill="none" stroke="rgb(128,128,128)" stroke-width="0.01" />
<line x1="0.542386" y1="0.385788" x2="0.553756" y2="0.556333" style="stroke:rgb(246,147,147);stroke-width:0.01" />
<line x1="0.554584" y1="0.568767" x2="0.564384" y2="0.715756" style="stroke:rgb(246,147,147);stroke-width:0.01" />
<line x1="0.390335" y1="0.500847" x2="0.476538" y2="0.614764" style="stroke:rgb(246,147,147);stroke-width:0.01" />
<line x1="0.285714" y1="0.404762" x2="0.285714" y2="0.655844" style="stroke:rgb(246,147,147);stroke-width:0.01" />
<line x1="0.428571" y1="0.321429" x2="0.428571" y2="0.75974" style="stroke:rgb(246,147,147);stroke-width:0.01" />
<line x1="0.428571" y1="0.321429" x2="0.542386" y2="0.385788" style="stroke:rgb(246,147,147);stroke-width:0.01" />
<line x1="0.494043" y1="0.557746" x2="0.468458" y2="0.698293" style="stroke:rgb(246,147,147);stroke-width:0.01" />
<line x1="0.285714" y1="0.404762" x2="0.553756" y2="0.556333" style="stroke:rgb(246,147,147);stroke-width:0.01" />
<line x1="0.285714" y1="0.655844" x2="0.428571" y2="0.75974" style="stroke:rgb(246,147,147);stroke-width:0.01" />
<line x1="0.428571" y1="0.321429" x2="0.285714" y2="0.404762" style="stroke:rgb(246,147,147);stroke-width:0.01" />
<line x1="0.494043" y1="0.557746" x2="0.554584" y2="0.568767" style="stroke:rgb(246,147,147);stroke-width:0.01" />
<line x1="0.542386" y1="0.385788" x2="0.390335" y2="0.500847" style="stroke:rgb(246,147,147);stroke-width:0.01" />
<line x1="0.468458" y1="0.698293" x2="0.564384" y2="0.715756" style="stroke:rgb(246,147,147);stroke-width:0.01" />
<line x1="0.553756" y1="0.556333" x2="0.476538" y2="0.614764" style="stroke:rgb(246,147,147);stroke-width:0.01" />
<line x1="0.554584" y1="0.568767" x2="0.285714" y2="0.655844" style="stroke:rgb(246,147,147);stroke-width:0.01" />
<line x1="0.564384" y1="0.715756" x2="0.428571" y2="0.75974" style="stroke:rgb(246,147,147);stroke-width:0.01" />
</g>
</svg>
