<svg xmlns="http://www.w3.org/2000/svg" viewBox="-1.5 -1.5 3 3">
<g transform="scale(1, -1)">
<path d="M-0.100000 -0.550000 L0.100000 -0.550000 L0.100000 0.550000 L-0.100000 0.550000 z " fill="rgb(245,195,195)" />
<path d="M-0.100000 -0.550000 L0.900000 -0.550000 L0.900000 0.450000 L-0.100000 0.450000  z" fill="none" stroke="rgb(128,128,128)" stroke-width="0.01" />
<line x1="-0.1" y1="-0.55" x2="0.1" y2="-0.55" style="stroke:rgb(246,147,147);stroke-width:0.01" />
<line x1="-0.1" y1="-0.55" x2="0.1" y2="-0.283333" style="stroke:rgb(246,147,147);stroke-width:0.01" />
<line x1="-0.1" y1="-0.55" x2="-0.1" y2="0.55" style="stroke:rgb(246,147,147);stroke-width:0.01" />
<line x1="0.1" y1="-0.55" x2="0.1" y2="0.55" style="stroke:rgb(246,147,147);stroke-width:0.01" />
<line x1="-0.1" y1="-0.4" x2="0.1" y2="-0.25" style="stroke:rgb(246,147,147);stroke-width:0.01" />
<line x1="0.1" y1="-0.55" x2="-0.1" y2="-0.4" style="stroke:rgb(246,147,147);stroke-width:0.01" />
<line x1="-0.1" y1="-0.0166667" x2="0.028" y2="0.154" style="stroke:rgb(246,147,147);stroke-width:0.01" />
<line x1="0.1" y1="-0.283333" x2="-0.1" y2="-0.0166667" style="stroke:rgb(246,147,147);stroke-width:0.01" />
<line x1="-0.1" y1="0.05" x2="0.1" y2="0.316667" style="stroke:rgb(246,147,147);stroke-width:0.01" />
<line x1="-0.028" y1="-0.046" x2="-0.1" y2="0.05" style="stroke:rgb(246,147,147);stroke-width:0.01" />
<line x1="-0.1" y1="-0.1" x2="-0.028" y2="-0.046" style="stroke:rgb(246,147,147);stroke-width:0.01" />
<line x1="0.1" y1="-0.25" x2="-0.1" y2="-0.1" style="stroke:rgb(246,147,147);stroke-width:0.01" />
<line x1="-0.1" y1="0.516667" x2="-0.075" y2="0.55" style="stroke:rgb(246,147,147);stroke-width:0.01" />
<line x1="0.028" y1="0.346" x2="-0.1" y2="0.516667" style="stroke:rgb(246,147,147);stroke-width:0.01" />
<line x1="0.1" y1="0.316667" x2="-0.075" y2="0.55" style="stroke:rgb(246,147,147);stroke-width:0.01" />
<line x1="-0.1" y1="0.25" x2="0.1" y2="0.4" style="stroke:rgb(246,147,147);stroke-width:0.01" />
<line x1="0.028" y1="0.154" x2="-0.1" y2="0.25" style="stroke:rgb(246,147,147);stroke-width:0.01" />
<line x1="0.1" y1="0.4" x2="-0.1" y2="0.55" style="stroke:rgb(246,147,147);stroke-width:0.01" />
<line x1="-0.1" y1="0.55" x2="0.1" y2="0.55" style="stroke:rgb(246,147,147);stroke-width:0.01" />
</g>
</svg>
