<svg xmlns="http://www.w3.org/2000/svg" viewBox="-1.5 -1.5 3 3">
<g transform="scale(1, -1)">
<path d="M9.369721 1.990198 L9.475500 2.007236 L9.419011 2.446240 L9.290598 2.435897 L9.297951 2.322047 L9.298025 2.249334 L9.053650 2.225745 L9.060811 2.114865 L9.067858 2.115320 L9.071374 2.087992 L9.298161 2.117172 L9.319069 2.140968 L9.333304 1.993510 L9.368638 1.996920 z " fill="rgb(245,195,195)" />
<path d="M0.000000 0.000000 L1.000000 0.000000 L1.000000 1.000000 L0.000000 1.000000  z" fill="none" stroke="rgb(128,128,128)" stroke-width="0.01" />
<line x1="9.29816" y1="2.11717" x2="9.42506" y2="2.2616" style="stroke:rgb(246,147,147);stroke-width:0.01" />
<line x1="9.29816" y1="2.11717" x2="9.29783" y2="2.43648" style="stroke:rgb(246,147,147);stroke-width:0.01" />
<line x1="9.42506" y1="2.2616" x2="9.41901" y2="2.44624" style="stroke:rgb(246,147,147);stroke-width:0.01" />
<line x1="9.36972" y1="1.9902" x2="9.4755" y2="2.00724" style="stroke:rgb(246,147,147);stroke-width:0.01" />
<line x1="9.06081" y1="2.11486" x2="9.05365" y2="2.22574" style="stroke:rgb(246,147,147);stroke-width:0.01" />
<line x1="9.31029" y1="2.13098" x2="9.2906" y2="2.4359" style="stroke:rgb(246,147,147);stroke-width:0.01" />
<line x1="9.07137" y1="2.08799" x2="9.29816" y2="2.11717" style="stroke:rgb(246,147,147);stroke-width:0.01" />
<line x1="9.3333" y1="1.99351" x2="9.2906" y2="2.4359" style="stroke:rgb(246,147,147);stroke-width:0.01" />
<line x1="9.3333" y1="1.99351" x2="9.4755" y2="2.00724" style="stroke:rgb(246,147,147);stroke-width:0.01" />
<line x1="9.07137" y1="2.08799" x2="9.05365" y2="2.22574" style="stroke:rgb(246,147,147);stroke-width:0.01" />
<line x1="9.4755" y1="2.00724" x2="9.41901" y2="2.44624" style="stroke:rgb(246,147,147);stroke-width:0.01" />
<line x1="9.05365" y1="2.22574" x2="9.42506" y2="2.2616" style="stroke:rgb(246,147,147);stroke-width:0.01" />
<line x1="9.36972" y1="1.9902" x2="9.29783" y2="2.43648" style="stroke:rgb(246,147,147);stroke-width:0.01" />
<line x1="9.06081" y1="2.11486" x2="9.31029" y2="2.13098" style="stroke:rgb(246,147,147);stroke-width:0.01" />
<line x1="9.2906" y1="2.4359" x2="9.41901" y2="2.44624" style="stroke:rgb(246,147,147);stroke-width:0.01" />
</g>
</svg>
