<svg xmlns="http://www.w3.org/2000/svg" viewBox="-1.5 -1.5 3 3">
<g transform="scale(1, -1)">
<path d="M0.103744 -0.170048 L0.209524 -0.153009 L0.153035 0.285994 L0.024622 0.275651 L0.031974 0.161801 L0.032049 0.089088 L-0.212327 0.065499 L-0.205166 -0.045381 L-0.198119 -0.044926 L-0.194602 -0.072254 L0.032184 -0.043074 L0.053093 -0.019278 L0.067328 -0.166736 L0.102662 -0.163325 z " fill="rgb(245,195,195)" />
<path d="M-9.265977 -2.160246 L-8.265977 -2.160246 L-8.265977 -1.160246 L-9.265977 -1.160246  z" fill="none" stroke="rgb(128,128,128)" stroke-width="0.01" />
<line x1="0.032184" y1="-0.0430742" x2="0.159086" y2="0.10135" style="stroke:rgb(246,147,147);stroke-width:0.01" />
<line x1="0.032184" y1="-0.0430742" x2="0.0318574" y2="0.276234" style="stroke:rgb(246,147,147);stroke-width:0.01" />
<line x1="0.159086" y1="0.10135" x2="0.153035" y2="0.285994" style="stroke:rgb(246,147,147);stroke-width:0.01" />
<line x1="0.103744" y1="-0.170048" x2="0.209524" y2="-0.153009" style="stroke:rgb(246,147,147);stroke-width:0.01" />
<line x1="-0.205166" y1="-0.0453811" x2="-0.212327" y2="0.065499" style="stroke:rgb(246,147,147);stroke-width:0.01" />
<line x1="0.0443144" y1="-0.0292688" x2="0.0246216" y2="0.275651" style="stroke:rgb(246,147,147);stroke-width:0.01" />
<line x1="-0.194602" y1="-0.0722543" x2="0.032184" y2="-0.0430742" style="stroke:rgb(246,147,147);stroke-width:0.01" />
<line x1="0.0673277" y1="-0.166736" x2="0.0246216" y2="0.275651" style="stroke:rgb(246,147,147);stroke-width:0.01" />
<line x1="0.0673277" y1="-0.166736" x2="0.209524" y2="-0.153009" style="stroke:rgb(246,147,147);stroke-width:0.01" />
<line x1="-0.194602" y1="-0.0722543" x2="-0.212327" y2="0.065499" style="stroke:rgb(246,147,147);stroke-width:0.01" />
<line x1="0.209524" y1="-0.153009" x2="0.153035" y2="0.285994" style="stroke:rgb(246,147,147);stroke-width:0.01" />
<line x1="-0.212327" y1="0.065499" x2="0.159086" y2="0.10135" style="stroke:rgb(246,147,147);stroke-width:0.01" />
<line x1="0.103744" y1="-0.170048" x2="0.0318574" y2="0.276234" style="stroke:rgb(246,147,147);stroke-width:0.01" />
<line x1="-0.205166" y1="-0.0453811" x2="0.0443144" y2="-0.0292688" style="stroke:rgb(246,147,147);stroke-width:0.01" />
<line x1="0.0246216" y1="0.275651" x2="0.153035" y2="0.285994" style="stroke:rgb(246,147,147);stroke-width:0.01" />
</g>
</svg>
