<svg xmlns="http://www.w3.org/2000/svg" viewBox="-1.5 -1.5 3 3">
<g transform="scale(1, -1)">
<path d="M0.470607 -0.216241 L0.774980 0.023668 L0.691375 0.156658 L0.699451 0.168289 L0.675851 0.200678 L0.670049 0.325643 L0.621698 0.323398 L0.600636 0.303905 L0.546496 0.378210 L0.333409 0.270096 L0.299974 0.273858 L0.278306 0.081266 L0.264132 0.073303 L0.238736 -0.002166 L0.311879 -0.026779 L0.380658 -0.108875 L0.378436 -0.116651 z " fill="rgb(245,195,195)" />
<path d="M0.000000 0.000000 L1.000000 0.000000 L1.000000 1.000000 L0.000000 1.000000  z" fill="none" stroke="rgb(128,128,128)" stroke-width="0.01" />
<line x1="0.470607" y1="-0.216241" x2="0.77498" y2="0.0236681" style="stroke:rgb(246,147,147);stroke-width:0.01" />
<line x1="0.470607" y1="-0.216241" x2="0.685409" y2="-0.00519605" style="stroke:rgb(246,147,147);stroke-width:0.01" />
<line x1="0.55259" y1="-0.107781" x2="0.77498" y2="0.0236681" style="stroke:rgb(246,147,147);stroke-width:0.01" />
<line x1="0.530553" y1="-0.0749656" x2="0.699451" y2="0.168289" style="stroke:rgb(246,147,147);stroke-width:0.01" />
<line x1="0.473749" y1="-0.0385683" x2="0.699451" y2="0.168289" style="stroke:rgb(246,147,147);stroke-width:0.01" />
<line x1="0.378436" y1="-0.116651" x2="0.530553" y2="-0.0749656" style="stroke:rgb(246,147,147);stroke-width:0.01" />
<line x1="0.461912" y1="0.175515" x2="0.621698" y2="0.323398" style="stroke:rgb(246,147,147);stroke-width:0.01" />
<line x1="0.378436" y1="-0.116651" x2="0.509022" y2="0.340401" style="stroke:rgb(246,147,147);stroke-width:0.01" />
<line x1="0.55259" y1="-0.107781" x2="0.615059" y2="0.238407" style="stroke:rgb(246,147,147);stroke-width:0.01" />
<line x1="0.509022" y1="0.340401" x2="0.546496" y2="0.37821" style="stroke:rgb(246,147,147);stroke-width:0.01" />
<line x1="0.238736" y1="-0.00216559" x2="0.264132" y2="0.0733032" style="stroke:rgb(246,147,147);stroke-width:0.01" />
<line x1="0.58332" y1="0.0148165" x2="0.621698" y2="0.323398" style="stroke:rgb(246,147,147);stroke-width:0.01" />
<line x1="0.588158" y1="0" x2="0.61859" y2="0.272436" style="stroke:rgb(246,147,147);stroke-width:0.01" />
<line x1="0.264132" y1="0.0733032" x2="0.61859" y2="0.272436" style="stroke:rgb(246,147,147);stroke-width:0.01" />
<line x1="0.271563" y1="0.0213424" x2="0.299974" y2="0.273858" style="stroke:rgb(246,147,147);stroke-width:0.01" />
<line x1="0.413556" y1="0.00626856" x2="0.58332" y2="0.0148165" style="stroke:rgb(246,147,147);stroke-width:0.01" />
<line x1="0.411765" y1="0" x2="0.588158" y2="0" style="stroke:rgb(246,147,147);stroke-width:0.01" />
<line x1="0.685409" y1="-0.00519605" x2="0.670049" y2="0.325643" style="stroke:rgb(246,147,147);stroke-width:0.01" />
<line x1="0.685409" y1="-0.00519605" x2="0.271563" y2="0.0213424" style="stroke:rgb(246,147,147);stroke-width:0.01" />
<line x1="0.55259" y1="-0.107781" x2="0.238736" y2="-0.00216559" style="stroke:rgb(246,147,147);stroke-width:0.01" />
<line x1="0.320473" y1="0.263532" x2="0.546496" y2="0.37821" style="stroke:rgb(246,147,147);stroke-width:0.01" />
<line x1="0.588158" y1="0" x2="0.264132" y2="0.0733032" style="stroke:rgb(246,147,147);stroke-width:0.01" />
<line x1="0.58332" y1="0.0148165" x2="0.509022" y2="0.340401" style="stroke:rgb(246,147,147);stroke-width:0.01" />
<line x1="0.530553" y1="-0.0749656" x2="0.461912" y2="0.175515" style="stroke:rgb(246,147,147);stroke-width:0.01" />
<line x1="0.470607" y1="-0.216241" x2="0.378436" y2="-0.116651" style="stroke:rgb(246,147,147);stroke-width:0.01" />
<line x1="0.470607" y1="-0.216241" x2="0.271563" y2="0.0213424" style="stroke:rgb(246,147,147);stroke-width:0.01" />
<line x1="0.473749" y1="-0.0385683" x2="0.320473" y2="0.263532" style="stroke:rgb(246,147,147);stroke-width:0.01" />
<line x1="0.473749" y1="-0.0385683" x2="0.411765" y2="0" style="stroke:rgb(246,147,147);stroke-width:0.01" />
<line x1="0.530553" y1="-0.0749656" x2="0.413556" y2="0.00626856" style="stroke:rgb(246,147,147);stroke-width:0.01" />
<line x1="0.621698" y1="0.323398" x2="0.670049" y2="0.325643" style="stroke:rgb(246,147,147);stroke-width:0.01" />
<line x1="0.615059" y1="0.238407" x2="0.299974" y2="0.273858" style="stroke:rgb(246,147,147);stroke-width:0.01" />
<line x1="0.61859" y1="0.272436" x2="0.491847" y2="0.280287" style="stroke:rgb(246,147,147);stroke-width:0.01" />
<line x1="0.77498" y1="0.0236681" x2="0.61859" y2="0.272436" style="stroke:rgb(246,147,147);stroke-width:0.01" />
<line x1="0.77498" y1="0.0236681" x2="0.615059" y2="0.238407" style="stroke:rgb(246,147,147);stroke-width:0.01" />
<line x1="0.699451" y1="0.168289" x2="0.546496" y2="0.37821" style="stroke:rgb(246,147,147);stroke-width:0.01" />
<line x1="0.699451" y1="0.168289" x2="0.491847" y2="0.280287" style="stroke:rgb(246,147,147);stroke-width:0.01" />
</g>
</svg>
