<svg xmlns="http://www.w3.org/2000/svg" viewBox="-1.5 -1.5 3 3">
<g transform="scale(1, -1)">
<path d="M-0.013903 -0.340257 L0.290470 -0.100347 L0.206865 0.032642 L0.214941 0.044274 L0.191341 0.076663 L0.185539 0.201628 L0.137188 0.199383 L0.116126 0.179890 L0.061986 0.254194 L-0.151101 0.146081 L-0.184536 0.149843 L-0.206205 -0.042749 L-0.220378 -0.050712 L-0.245774 -0.126181 L-0.172631 -0.150794 L-0.103853 -0.232890 L-0.106074 -0.240666 z " fill="rgb(245,195,195)" />
<path d="M-0.484510 -0.124015 L0.515490 -0.124015 L0.515490 0.875985 L-0.484510 0.875985  z" fill="none" stroke="rgb(128,128,128)" stroke-width="0.01" />
<line x1="-0.0139029" y1="-0.340257" x2="0.29047" y2="-0.100347" style="stroke:rgb(246,147,147);stroke-width:0.01" />
<line x1="-0.0139029" y1="-0.340257" x2="0.200899" y2="-0.129211" style="stroke:rgb(246,147,147);stroke-width:0.01" />
<line x1="0.0680796" y1="-0.231796" x2="0.29047" y2="-0.100347" style="stroke:rgb(246,147,147);stroke-width:0.01" />
<line x1="0.0460424" y1="-0.198981" x2="0.214941" y2="0.0442735" style="stroke:rgb(246,147,147);stroke-width:0.01" />
<line x1="-0.0107606" y1="-0.162584" x2="0.214941" y2="0.0442735" style="stroke:rgb(246,147,147);stroke-width:0.01" />
<line x1="-0.106074" y1="-0.240666" x2="0.0460424" y2="-0.198981" style="stroke:rgb(246,147,147);stroke-width:0.01" />
<line x1="-0.0225982" y1="0.0515001" x2="0.137188" y2="0.199383" style="stroke:rgb(246,147,147);stroke-width:0.01" />
<line x1="-0.106074" y1="-0.240666" x2="0.0245121" y2="0.216386" style="stroke:rgb(246,147,147);stroke-width:0.01" />
<line x1="0.0680796" y1="-0.231796" x2="0.130549" y2="0.114392" style="stroke:rgb(246,147,147);stroke-width:0.01" />
<line x1="0.0245121" y1="0.216386" x2="0.0619859" y2="0.254194" style="stroke:rgb(246,147,147);stroke-width:0.01" />
<line x1="-0.245774" y1="-0.126181" x2="-0.220378" y2="-0.0507121" style="stroke:rgb(246,147,147);stroke-width:0.01" />
<line x1="0.0988094" y1="-0.109199" x2="0.137188" y2="0.199383" style="stroke:rgb(246,147,147);stroke-width:0.01" />
<line x1="0.103648" y1="-0.124015" x2="0.13408" y2="0.148421" style="stroke:rgb(246,147,147);stroke-width:0.01" />
<line x1="-0.220378" y1="-0.0507121" x2="0.13408" y2="0.148421" style="stroke:rgb(246,147,147);stroke-width:0.01" />
<line x1="-0.212947" y1="-0.102673" x2="-0.184536" y2="0.149843" style="stroke:rgb(246,147,147);stroke-width:0.01" />
<line x1="-0.0709544" y1="-0.117747" x2="0.0988094" y2="-0.109199" style="stroke:rgb(246,147,147);stroke-width:0.01" />
<line x1="-0.0727454" y1="-0.124015" x2="0.103648" y2="-0.124015" style="stroke:rgb(246,147,147);stroke-width:0.01" />
<line x1="0.200899" y1="-0.129211" x2="0.185539" y2="0.201628" style="stroke:rgb(246,147,147);stroke-width:0.01" />
<line x1="0.200899" y1="-0.129211" x2="-0.212947" y2="-0.102673" style="stroke:rgb(246,147,147);stroke-width:0.01" />
<line x1="0.0680796" y1="-0.231796" x2="-0.245774" y2="-0.126181" style="stroke:rgb(246,147,147);stroke-width:0.01" />
<line x1="-0.164037" y1="0.139517" x2="0.0619859" y2="0.254194" style="stroke:rgb(246,147,147);stroke-width:0.01" />
<line x1="0.103648" y1="-0.124015" x2="-0.220378" y2="-0.0507121" style="stroke:rgb(246,147,147);stroke-width:0.01" />
<line x1="0.0988094" y1="-0.109199" x2="0.0245121" y2="0.216386" style="stroke:rgb(246,147,147);stroke-width:0.01" />
<line x1="0.0460424" y1="-0.198981" x2="-0.0225982" y2="0.0515001" style="stroke:rgb(246,147,147);stroke-width:0.01" />
<line x1="-0.0139029" y1="-0.340257" x2="-0.106074" y2="-0.240666" style="stroke:rgb(246,147,147);stroke-width:0.01" />
<line x1="-0.0139029" y1="-0.340257" x2="-0.212947" y2="-0.102673" style="stroke:rgb(246,147,147);stroke-width:0.01" />
<line x1="-0.0107606" y1="-0.162584" x2="-0.164037" y2="0.139517" style="stroke:rgb(246,147,147);stroke-width:0.01" />
<line x1="-0.0107606" y1="-0.162584" x2="-0.0727454" y2="-0.124015" style="stroke:rgb(246,147,147);stroke-width:0.01" />
<line x1="0.0460424" y1="-0.198981" x2="-0.0709544" y2="-0.117747" style="stroke:rgb(246,147,147);stroke-width:0.01" />
<line x1="0.137188" y1="0.199383" x2="0.185539" y2="0.201628" style="stroke:rgb(246,147,147);stroke-width:0.01" />
<line x1="0.130549" y1="0.114392" x2="-0.184536" y2="0.149843" style="stroke:rgb(246,147,147);stroke-width:0.01" />
<line x1="0.13408" y1="0.148421" x2="0.00733665" y2="0.156272" style="stroke:rgb(246,147,147);stroke-width:0.01" />
<line x1="0.29047" y1="-0.100347" x2="0.13408" y2="0.148421" style="stroke:rgb(246,147,147);stroke-width:0.01" />
<line x1="0.29047" y1="-0.100347" x2="0.130549" y2="0.114392" style="stroke:rgb(246,147,147);stroke-width:0.01" />
<line x1="0.214941" y1="0.0442735" x2="0.0619859" y2="0.254194" style="stroke:rgb(246,147,147);stroke-width:0.01" />
<line x1="0.214941" y1="0.0442735" x2="0.00733665" y2="0.156272" style="stroke:rgb(246,147,147);stroke-width:0.01" />
</g>
</svg>
