<svg xmlns="http://www.w3.org/2000/svg" viewBox="-1.5 -1.5 3 3">
<g transform="scale(1, -1)">
<path d="M-0.159091 -0.159091 L0.028409 -0.159091 L0.153409 -0.034091 L0.153409 0.028409 L0.028409 0.153409 L-0.034091 0.153409 L-0.159091 0.028409 z M-0.034091 -0.034091 L-0.034091 0.028409 L0.028409 0.028409 L0.028409 -0.034091 z " fill="rgb(245,195,195)" />
<path d="M-0.159091 -0.159091 L0.840909 -0.159091 L0.840909 0.840909 L-0.159091 0.840909  z" fill="none" stroke="rgb(128,128,128)" stroke-width="0.01" />
<line x1="0.0284091" y1="-0.159091" x2="0.153409" y2="-0.0340909" style="stroke:rgb(246,147,147);stroke-width:0.01" />
<line x1="-0.159091" y1="-0.159091" x2="0.0284091" y2="-0.159091" style="stroke:rgb(246,147,147);stroke-width:0.01" />
<line x1="-0.159091" y1="-0.159091" x2="-0.159091" y2="0.0284091" style="stroke:rgb(246,147,147);stroke-width:0.01" />
<line x1="-0.0340909" y1="-0.159091" x2="-0.0340909" y2="0.153409" style="stroke:rgb(246,147,147);stroke-width:0.01" />
<line x1="0.0284091" y1="-0.159091" x2="0.0284091" y2="0.153409" style="stroke:rgb(246,147,147);stroke-width:0.01" />
<line x1="0.153409" y1="-0.0340909" x2="0.153409" y2="0.0284091" style="stroke:rgb(246,147,147);stroke-width:0.01" />
<line x1="-0.159091" y1="0.0284091" x2="-0.0340909" y2="0.153409" style="stroke:rgb(246,147,147);stroke-width:0.01" />
<line x1="-0.159091" y1="-0.0340909" x2="0.153409" y2="-0.0340909" style="stroke:rgb(246,147,147);stroke-width:0.01" />
<line x1="-0.159091" y1="0.0284091" x2="0.153409" y2="0.0284091" style="stroke:rgb(246,147,147);stroke-width:0.01" />
<line x1="0.153409" y1="0.0284091" x2="0.0284091" y2="0.153409" style="stroke:rgb(246,147,147);stroke-width:0.01" />
<line x1="-0.0340909" y1="0.153409" x2="0.0284091" y2="0.153409" style="stroke:rgb(246,147,147);stroke-width:0.01" />
</g>
</svg>
