<svg xmlns="http://www.w3.org/2000/svg" viewBox="-1.5 -1.5 3 3">
<g transform="scale(1, -1)">
<path d="M-0.053032 -0.599597 L-0.040538 -0.520578 L0.090945 -0.462888 L0.135940 0.257026 L0.170232 0.269946 L0.244198 0.404222 L0.330350 0.445655 L0.300831 0.507032 L0.151823 0.511148 L-0.267591 0.127890 L-0.261959 0.084242 L-0.410035 -0.163739 L-0.214929 -0.280243 L-0.176235 -0.580116 z " fill="rgb(245,195,195)" />
<path d="M-0.549956 -0.169817 L0.450044 -0.169817 L0.450044 0.830183 L-0.549956 0.830183  z" fill="none" stroke="rgb(128,128,128)" stroke-width="0.01" />
<line x1="-0.176235" y1="-0.580116" x2="0.0909453" y2="-0.462888" style="stroke:rgb(246,147,147);stroke-width:0.01" />
<line x1="-0.0530321" y1="-0.599597" x2="-0.176235" y2="-0.580116" style="stroke:rgb(246,147,147);stroke-width:0.01" />
<line x1="0.170232" y1="0.269946" x2="0.300831" y2="0.507032" style="stroke:rgb(246,147,147);stroke-width:0.01" />
<line x1="-0.0530321" y1="-0.599597" x2="0.0149243" y2="-0.169817" style="stroke:rgb(246,147,147);stroke-width:0.01" />
<line x1="-0.229177" y1="-0.169817" x2="0.0810948" y2="-0.0883906" style="stroke:rgb(246,147,147);stroke-width:0.01" />
<line x1="-0.410035" y1="-0.163739" x2="-0.19783" y2="0.191637" style="stroke:rgb(246,147,147);stroke-width:0.01" />
<line x1="0.0909453" y1="-0.462888" x2="0.151823" y2="0.511148" style="stroke:rgb(246,147,147);stroke-width:0.01" />
<line x1="-0.229177" y1="-0.169817" x2="0.0149243" y2="-0.169817" style="stroke:rgb(246,147,147);stroke-width:0.01" />
<line x1="-0.267591" y1="0.12789" x2="0.151823" y2="0.511148" style="stroke:rgb(246,147,147);stroke-width:0.01" />
<line x1="-0.176235" y1="-0.580116" x2="-0.267591" y2="0.12789" style="stroke:rgb(246,147,147);stroke-width:0.01" />
<line x1="0.0909453" y1="-0.462888" x2="-0.410035" y2="-0.163739" style="stroke:rgb(246,147,147);stroke-width:0.01" />
<line x1="-0.229341" y1="0.119403" x2="0.170232" y2="0.269946" style="stroke:rgb(246,147,147);stroke-width:0.01" />
<line x1="-0.19783" y1="0.191637" x2="0.33035" y2="0.445655" style="stroke:rgb(246,147,147);stroke-width:0.01" />
<line x1="0.0810948" y1="-0.0883906" x2="-0.0321305" y2="0.343053" style="stroke:rgb(246,147,147);stroke-width:0.01" />
<line x1="0.0149243" y1="-0.169817" x2="-0.251764" y2="0.142353" style="stroke:rgb(246,147,147);stroke-width:0.01" />
<line x1="-0.229341" y1="0.119403" x2="-0.251764" y2="0.142353" style="stroke:rgb(246,147,147);stroke-width:0.01" />
<line x1="-0.229341" y1="0.119403" x2="-0.267591" y2="0.12789" style="stroke:rgb(246,147,147);stroke-width:0.01" />
<line x1="0.33035" y1="0.445655" x2="0.300831" y2="0.507032" style="stroke:rgb(246,147,147);stroke-width:0.01" />
<line x1="0.170232" y1="0.269946" x2="-0.0321305" y2="0.343053" style="stroke:rgb(246,147,147);stroke-width:0.01" />
<line x1="0.300831" y1="0.507032" x2="0.151823" y2="0.511148" style="stroke:rgb(246,147,147);stroke-width:0.01" />
</g>
</svg>
