<svg xmlns="http://www.w3.org/2000/svg" viewBox="-1.5 -1.5 3 3">
<g transform="scale(1, -1)">
<path d="M0.382764 -0.275250 L0.405676 -0.206663 L0.435916 0.239296 L0.255721 0.259471 L0.249724 0.243748 L-0.114471 0.252457 L-0.479796 0.012899 L-0.487720 -0.077337 L-0.333678 -0.090865 L-0.305123 -0.213385 L-0.009012 -0.144372 z " fill="rgb(245,195,195)" />
<path d="M-0.402277 0.649853 L0.597723 0.649853 L0.597723 1.649853 L-0.402277 1.649853  z" fill="none" stroke="rgb(128,128,128)" stroke-width="0.01" />
<line x1="-0.305123" y1="-0.213385" x2="0.416626" y2="-0.0451716" style="stroke:rgb(246,147,147);stroke-width:0.01" />
<line x1="-0.256774" y1="-0.0976181" x2="-0.48772" y2="-0.0773368" style="stroke:rgb(246,147,147);stroke-width:0.01" />
<line x1="-0.227813" y1="-0.0263728" x2="-0.366884" y2="-0.00773692" style="stroke:rgb(246,147,147);stroke-width:0.01" />
<line x1="0.382764" y1="-0.27525" x2="-0.479796" y2="0.012899" style="stroke:rgb(246,147,147);stroke-width:0.01" />
<line x1="0.428078" y1="0.123709" x2="-0.309574" y2="0.12452" style="stroke:rgb(246,147,147);stroke-width:0.01" />
<line x1="-0.479796" y1="0.012899" x2="-0.114471" y2="0.252457" style="stroke:rgb(246,147,147);stroke-width:0.01" />
<line x1="0.428078" y1="0.123709" x2="0.272044" y2="0.144792" style="stroke:rgb(246,147,147);stroke-width:0.01" />
<line x1="0.435916" y1="0.239296" x2="-0.114471" y2="0.252457" style="stroke:rgb(246,147,147);stroke-width:0.01" />
<line x1="-0.256774" y1="-0.0976181" x2="-0.366884" y2="-0.00773692" style="stroke:rgb(246,147,147);stroke-width:0.01" />
<line x1="-0.227813" y1="-0.0263728" x2="-0.374026" y2="0.0822563" style="stroke:rgb(246,147,147);stroke-width:0.01" />
<line x1="0.416626" y1="-0.0451716" x2="0.174718" y2="0.0470962" style="stroke:rgb(246,147,147);stroke-width:0.01" />
<line x1="0.382764" y1="-0.27525" x2="0.405676" y2="-0.206663" style="stroke:rgb(246,147,147);stroke-width:0.01" />
<line x1="0.272044" y1="0.144792" x2="0.318816" y2="0.252407" style="stroke:rgb(246,147,147);stroke-width:0.01" />
<line x1="0.435916" y1="0.239296" x2="0.255721" y2="0.259471" style="stroke:rgb(246,147,147);stroke-width:0.01" />
<line x1="0.174718" y1="0.0470962" x2="0.255721" y2="0.259471" style="stroke:rgb(246,147,147);stroke-width:0.01" />
<line x1="-0.256774" y1="-0.0976181" x2="-0.114471" y2="0.252457" style="stroke:rgb(246,147,147);stroke-width:0.01" />
<line x1="-0.366884" y1="-0.00773692" x2="-0.309574" y2="0.12452" style="stroke:rgb(246,147,147);stroke-width:0.01" />
<line x1="0.405676" y1="-0.206663" x2="0.435916" y2="0.239296" style="stroke:rgb(246,147,147);stroke-width:0.01" />
<line x1="-0.305123" y1="-0.213385" x2="-0.374026" y2="0.0822563" style="stroke:rgb(246,147,147);stroke-width:0.01" />
<line x1="-0.48772" y1="-0.0773368" x2="-0.479796" y2="0.012899" style="stroke:rgb(246,147,147);stroke-width:0.01" />
<line x1="0.272044" y1="0.144792" x2="0.255721" y2="0.259471" style="stroke:rgb(246,147,147);stroke-width:0.01" />
<line x1="0.405676" y1="-0.206663" x2="0.318816" y2="0.252407" style="stroke:rgb(246,147,147);stroke-width:0.01" />
</g>
</svg>
