<svg xmlns="http://www.w3.org/2000/svg" viewBox="-1.5 -1.5 3 3">
<g transform="scale(1, -1)">
<path d="M0.785040 -0.925103 L0.807953 -0.856516 L0.838192 -0.410557 L0.657998 -0.390382 L0.652001 -0.406105 L0.287806 -0.397396 L-0.077519 -0.636954 L-0.085444 -0.727190 L0.068599 -0.740718 L0.097154 -0.863238 L0.393265 -0.794225 z " fill="rgb(245,195,195)" />
<path d="M0.000000 0.000000 L1.000000 0.000000 L1.000000 1.000000 L0.000000 1.000000  z" fill="none" stroke="rgb(128,128,128)" stroke-width="0.01" />
<line x1="0.0971536" y1="-0.863238" x2="0.818903" y2="-0.695025" style="stroke:rgb(246,147,147);stroke-width:0.01" />
<line x1="0.145503" y1="-0.747471" x2="-0.0854436" y2="-0.72719" style="stroke:rgb(246,147,147);stroke-width:0.01" />
<line x1="0.174464" y1="-0.676226" x2="0.0353925" y2="-0.65759" style="stroke:rgb(246,147,147);stroke-width:0.01" />
<line x1="0.78504" y1="-0.925103" x2="-0.0775192" y2="-0.636954" style="stroke:rgb(246,147,147);stroke-width:0.01" />
<line x1="0.830355" y1="-0.526144" x2="0.0927025" y2="-0.525333" style="stroke:rgb(246,147,147);stroke-width:0.01" />
<line x1="-0.0775192" y1="-0.636954" x2="0.287806" y2="-0.397396" style="stroke:rgb(246,147,147);stroke-width:0.01" />
<line x1="0.830355" y1="-0.526144" x2="0.674321" y2="-0.505061" style="stroke:rgb(246,147,147);stroke-width:0.01" />
<line x1="0.838192" y1="-0.410557" x2="0.287806" y2="-0.397396" style="stroke:rgb(246,147,147);stroke-width:0.01" />
<line x1="0.145503" y1="-0.747471" x2="0.0353925" y2="-0.65759" style="stroke:rgb(246,147,147);stroke-width:0.01" />
<line x1="0.174464" y1="-0.676226" x2="0.0282507" y2="-0.567597" style="stroke:rgb(246,147,147);stroke-width:0.01" />
<line x1="0.818903" y1="-0.695025" x2="0.576995" y2="-0.602757" style="stroke:rgb(246,147,147);stroke-width:0.01" />
<line x1="0.78504" y1="-0.925103" x2="0.807953" y2="-0.856516" style="stroke:rgb(246,147,147);stroke-width:0.01" />
<line x1="0.674321" y1="-0.505061" x2="0.721093" y2="-0.397446" style="stroke:rgb(246,147,147);stroke-width:0.01" />
<line x1="0.838192" y1="-0.410557" x2="0.657998" y2="-0.390382" style="stroke:rgb(246,147,147);stroke-width:0.01" />
<line x1="0.576995" y1="-0.602757" x2="0.657998" y2="-0.390382" style="stroke:rgb(246,147,147);stroke-width:0.01" />
<line x1="0.145503" y1="-0.747471" x2="0.287806" y2="-0.397396" style="stroke:rgb(246,147,147);stroke-width:0.01" />
<line x1="0.0353925" y1="-0.65759" x2="0.0927025" y2="-0.525333" style="stroke:rgb(246,147,147);stroke-width:0.01" />
<line x1="0.807953" y1="-0.856516" x2="0.838192" y2="-0.410557" style="stroke:rgb(246,147,147);stroke-width:0.01" />
<line x1="0.0971536" y1="-0.863238" x2="0.0282507" y2="-0.567597" style="stroke:rgb(246,147,147);stroke-width:0.01" />
<line x1="-0.0854436" y1="-0.72719" x2="-0.0775192" y2="-0.636954" style="stroke:rgb(246,147,147);stroke-width:0.01" />
<line x1="0.674321" y1="-0.505061" x2="0.657998" y2="-0.390382" style="stroke:rgb(246,147,147);stroke-width:0.01" />
<line x1="0.807953" y1="-0.856516" x2="0.721093" y2="-0.397446" style="stroke:rgb(246,147,147);stroke-width:0.01" />
</g>
</svg>
