<svg xmlns="http://www.w3.org/2000/svg" viewBox="-1.5 -1.5 3 3">
<g transform="scale(1, -1)">
<path d="M-0.868634 -1.095623 L-0.762798 -1.029111 L-0.789403 -0.986777 L-0.750096 -0.955875 L-1.025719 -0.605277 L-1.163187 -0.626923 L-1.211538 -0.817308 L-1.106090 -0.994551 L-1.006478 -1.025506 L-0.997308 -1.000684 L-0.971731 -1.007179 L-0.954140 -0.959564 z M-1.011635 -0.868077 L-1.077632 -0.851316 L-1.064309 -0.784260 z " fill="rgb(245,195,195)" />
<path d="M0.000000 0.000000 L1.000000 0.000000 L1.000000 1.000000 L0.000000 1.000000  z" fill="none" stroke="rgb(128,128,128)" stroke-width="0.01" />
<line x1="-1.00648" y1="-1.02551" x2="-1.10609" y2="-0.994551" style="stroke:rgb(246,147,147);stroke-width:0.01" />
<line x1="-0.971731" y1="-1.00718" x2="-1.12115" y2="-0.969231" style="stroke:rgb(246,147,147);stroke-width:0.01" />
<line x1="-0.938207" y1="-0.958691" x2="-1.14523" y2="-0.928769" style="stroke:rgb(246,147,147);stroke-width:0.01" />
<line x1="-0.928173" y1="-0.889274" x2="-1.21154" y2="-0.817308" style="stroke:rgb(246,147,147);stroke-width:0.01" />
<line x1="-1.10609" y1="-0.994551" x2="-1.21154" y2="-0.817308" style="stroke:rgb(246,147,147);stroke-width:0.01" />
<line x1="-0.750096" y1="-0.955875" x2="-1.02572" y2="-0.605277" style="stroke:rgb(246,147,147);stroke-width:0.01" />
<line x1="-0.868634" y1="-1.09562" x2="-1.16319" y2="-0.626923" style="stroke:rgb(246,147,147);stroke-width:0.01" />
<line x1="-0.762798" y1="-1.02911" x2="-1.02885" y2="-0.605769" style="stroke:rgb(246,147,147);stroke-width:0.01" />
<line x1="-0.78508" y1="-1.04311" x2="-1.02885" y2="-0.605769" style="stroke:rgb(246,147,147);stroke-width:0.01" />
<line x1="-0.874177" y1="-1.0868" x2="-0.78508" y2="-1.04311" style="stroke:rgb(246,147,147);stroke-width:0.01" />
<line x1="-0.888218" y1="-1.06446" x2="-0.775362" y2="-1.00912" style="stroke:rgb(246,147,147);stroke-width:0.01" />
<line x1="-1.16319" y1="-0.626923" x2="-1.02572" y2="-0.605277" style="stroke:rgb(246,147,147);stroke-width:0.01" />
<line x1="-0.868634" y1="-1.09562" x2="-0.762798" y2="-1.02911" style="stroke:rgb(246,147,147);stroke-width:0.01" />
<line x1="-0.874177" y1="-1.0868" x2="-0.775362" y2="-1.00912" style="stroke:rgb(246,147,147);stroke-width:0.01" />
<line x1="-0.888218" y1="-1.06446" x2="-0.750096" y2="-0.955875" style="stroke:rgb(246,147,147);stroke-width:0.01" />
<line x1="-0.938207" y1="-0.958691" x2="-0.928173" y2="-0.889274" style="stroke:rgb(246,147,147);stroke-width:0.01" />
<line x1="-0.971731" y1="-1.00718" x2="-0.95375" y2="-0.882778" style="stroke:rgb(246,147,147);stroke-width:0.01" />
<line x1="-1.10609" y1="-0.994551" x2="-1.02885" y2="-0.605769" style="stroke:rgb(246,147,147);stroke-width:0.01" />
<line x1="-1.00648" y1="-1.02551" x2="-0.969231" y2="-0.878846" style="stroke:rgb(246,147,147);stroke-width:0.01" />
<line x1="-0.971731" y1="-1.00718" x2="-0.928173" y2="-0.889274" style="stroke:rgb(246,147,147);stroke-width:0.01" />
<line x1="-1.00648" y1="-1.02551" x2="-0.95375" y2="-0.882778" style="stroke:rgb(246,147,147);stroke-width:0.01" />
<line x1="-1.12115" y1="-0.969231" x2="-1.02885" y2="-0.605769" style="stroke:rgb(246,147,147);stroke-width:0.01" />
<line x1="-1.21154" y1="-0.817308" x2="-1.16319" y2="-0.626923" style="stroke:rgb(246,147,147);stroke-width:0.01" />
<line x1="-1.14523" y1="-0.928769" x2="-1.02572" y2="-0.605277" style="stroke:rgb(246,147,147);stroke-width:0.01" />
</g>
</svg>
