<svg xmlns="http://www.w3.org/2000/svg" viewBox="-1.5 -1.5 3 3">
<g transform="scale(1, -1)">
<path d="M0.115413 -0.188421 L0.221248 -0.121909 L0.194643 -0.079575 L0.233951 -0.048673 L-0.041673 0.301925 L-0.179140 0.280279 L-0.227492 0.089894 L-0.122043 -0.087349 L-0.022431 -0.118304 L-0.013261 -0.093482 L0.012316 -0.099977 L0.029906 -0.052361 z M-0.027588 0.039125 L-0.093585 0.055886 L-0.080262 0.122942 z " fill="rgb(245,195,195)" />
<path d="M0.984046 0.907202 L1.984046 0.907202 L1.984046 1.907202 L0.984046 1.907202  z" fill="none" stroke="rgb(128,128,128)" stroke-width="0.01" />
<line x1="-0.0224313" y1="-0.118304" x2="-0.122043" y2="-0.0873491" style="stroke:rgb(246,147,147);stroke-width:0.01" />
<line x1="0.0123157" y1="-0.0999773" x2="-0.137107" y2="-0.0620286" style="stroke:rgb(246,147,147);stroke-width:0.01" />
<line x1="0.0458399" y1="-0.0514889" x2="-0.16118" y2="-0.0215667" style="stroke:rgb(246,147,147);stroke-width:0.01" />
<line x1="0.0558734" y1="0.0179286" x2="-0.227492" y2="0.0898945" style="stroke:rgb(246,147,147);stroke-width:0.01" />
<line x1="-0.122043" y1="-0.0873491" x2="-0.227492" y2="0.0898945" style="stroke:rgb(246,147,147);stroke-width:0.01" />
<line x1="0.233951" y1="-0.0486733" x2="-0.0416729" y2="0.301925" style="stroke:rgb(246,147,147);stroke-width:0.01" />
<line x1="0.115413" y1="-0.188421" x2="-0.17914" y2="0.280279" style="stroke:rgb(246,147,147);stroke-width:0.01" />
<line x1="0.221248" y1="-0.121909" x2="-0.0447997" y2="0.301433" style="stroke:rgb(246,147,147);stroke-width:0.01" />
<line x1="0.198967" y1="-0.135912" x2="-0.0447997" y2="0.301433" style="stroke:rgb(246,147,147);stroke-width:0.01" />
<line x1="0.10987" y1="-0.179602" x2="0.198967" y2="-0.135912" style="stroke:rgb(246,147,147);stroke-width:0.01" />
<line x1="0.0958284" y1="-0.157259" x2="0.208685" y2="-0.101918" style="stroke:rgb(246,147,147);stroke-width:0.01" />
<line x1="-0.17914" y1="0.280279" x2="-0.0416729" y2="0.301925" style="stroke:rgb(246,147,147);stroke-width:0.01" />
<line x1="0.115413" y1="-0.188421" x2="0.221248" y2="-0.121909" style="stroke:rgb(246,147,147);stroke-width:0.01" />
<line x1="0.10987" y1="-0.179602" x2="0.208685" y2="-0.101918" style="stroke:rgb(246,147,147);stroke-width:0.01" />
<line x1="0.0958284" y1="-0.157259" x2="0.233951" y2="-0.0486733" style="stroke:rgb(246,147,147);stroke-width:0.01" />
<line x1="0.0458399" y1="-0.0514889" x2="0.0558734" y2="0.0179286" style="stroke:rgb(246,147,147);stroke-width:0.01" />
<line x1="0.0123157" y1="-0.0999773" x2="0.0302965" y2="0.0244244" style="stroke:rgb(246,147,147);stroke-width:0.01" />
<line x1="-0.122043" y1="-0.0873491" x2="-0.0447997" y2="0.301433" style="stroke:rgb(246,147,147);stroke-width:0.01" />
<line x1="-0.0224313" y1="-0.118304" x2="0.0148157" y2="0.028356" style="stroke:rgb(246,147,147);stroke-width:0.01" />
<line x1="0.0123157" y1="-0.0999773" x2="0.0558734" y2="0.0179286" style="stroke:rgb(246,147,147);stroke-width:0.01" />
<line x1="-0.0224313" y1="-0.118304" x2="0.0302965" y2="0.0244244" style="stroke:rgb(246,147,147);stroke-width:0.01" />
<line x1="-0.137107" y1="-0.0620286" x2="-0.0447997" y2="0.301433" style="stroke:rgb(246,147,147);stroke-width:0.01" />
<line x1="-0.227492" y1="0.0898945" x2="-0.17914" y2="0.280279" style="stroke:rgb(246,147,147);stroke-width:0.01" />
<line x1="-0.16118" y1="-0.0215667" x2="-0.0416729" y2="0.301925" style="stroke:rgb(246,147,147);stroke-width:0.01" />
</g>
</svg>
