<svg xmlns="http://www.w3.org/2000/svg" viewBox="-1.5 -1.5 3 3">
<g transform="scale(1, -1)">
<path d="M-0.162883 -0.320699 L-0.113709 -0.285843 L0.093914 -0.255718 L0.115891 -0.123099 L0.126699 -0.115438 L0.158408 0.133478 L-0.679171 0.256181 L-0.689769 0.215257 L-0.680794 0.212933 L-0.683469 0.141642 L-0.381015 -0.012958 z " fill="rgb(245,195,195)" />
<path d="M0.000000 0.000000 L1.000000 0.000000 L1.000000 1.000000 L0.000000 1.000000  z" fill="none" stroke="rgb(128,128,128)" stroke-width="0.01" />
<line x1="-0.133355" y1="-0.288694" x2="0.0939145" y2="-0.255718" style="stroke:rgb(246,147,147);stroke-width:0.01" />
<line x1="-0.162883" y1="-0.320699" x2="-0.559342" y2="0.238626" style="stroke:rgb(246,147,147);stroke-width:0.01" />
<line x1="0.0939145" y1="-0.255718" x2="-0.683469" y2="0.141642" style="stroke:rgb(246,147,147);stroke-width:0.01" />
<line x1="-0.133355" y1="-0.288694" x2="-0.340445" y2="0.0280091" style="stroke:rgb(246,147,147);stroke-width:0.01" />
<line x1="-0.162883" y1="-0.320699" x2="0.126699" y2="-0.115438" style="stroke:rgb(246,147,147);stroke-width:0.01" />
<line x1="0.0939145" y1="-0.255718" x2="0.158408" y2="0.133478" style="stroke:rgb(246,147,147);stroke-width:0.01" />
<line x1="0.126699" y1="-0.115438" x2="0.158408" y2="0.133478" style="stroke:rgb(246,147,147);stroke-width:0.01" />
<line x1="0" y1="0" x2="0.141405" y2="0" style="stroke:rgb(246,147,147);stroke-width:0.01" />
<line x1="0" y1="0" x2="0" y2="0.156685" style="stroke:rgb(246,147,147);stroke-width:0.01" />
<line x1="-0.133355" y1="-0.288694" x2="0" y2="0.156685" style="stroke:rgb(246,147,147);stroke-width:0.01" />
<line x1="0.126699" y1="-0.115438" x2="-0.117367" y2="0.173878" style="stroke:rgb(246,147,147);stroke-width:0.01" />
<line x1="-0.683469" y1="0.141642" x2="-0.679171" y2="0.256181" style="stroke:rgb(246,147,147);stroke-width:0.01" />
<line x1="0.141405" y1="0" x2="-0.689769" y2="0.215257" style="stroke:rgb(246,147,147);stroke-width:0.01" />
<line x1="0.158408" y1="0.133478" x2="-0.679171" y2="0.256181" style="stroke:rgb(246,147,147);stroke-width:0.01" />
<line x1="-0.340445" y1="0.0280091" x2="-0.117367" y2="0.173878" style="stroke:rgb(246,147,147);stroke-width:0.01" />
<line x1="-0.689769" y1="0.215257" x2="-0.679171" y2="0.256181" style="stroke:rgb(246,147,147);stroke-width:0.01" />
<line x1="-0.683469" y1="0.141642" x2="-0.559342" y2="0.238626" style="stroke:rgb(246,147,147);stroke-width:0.01" />
</g>
</svg>
