<svg xmlns="http://www.w3.org/2000/svg" viewBox="-1.5 -1.5 3 3">
<g transform="scale(1, -1)">
<path d="M0.100381 -0.306675 L0.149555 -0.271819 L0.357178 -0.241694 L0.379154 -0.109075 L0.389963 -0.101414 L0.421672 0.147502 L-0.415907 0.270205 L-0.426506 0.229281 L-0.417531 0.226957 L-0.420206 0.155666 L-0.117752 0.001066 z " fill="rgb(245,195,195)" />
<path d="M0.263263 0.014024 L1.263263 0.014024 L1.263263 1.014024 L0.263263 1.014024  z" fill="none" stroke="rgb(128,128,128)" stroke-width="0.01" />
<line x1="0.129908" y1="-0.27467" x2="0.357178" y2="-0.241694" style="stroke:rgb(246,147,147);stroke-width:0.01" />
<line x1="0.100381" y1="-0.306675" x2="-0.296079" y2="0.25265" style="stroke:rgb(246,147,147);stroke-width:0.01" />
<line x1="0.357178" y1="-0.241694" x2="-0.420206" y2="0.155666" style="stroke:rgb(246,147,147);stroke-width:0.01" />
<line x1="0.129908" y1="-0.27467" x2="-0.0771818" y2="0.042033" style="stroke:rgb(246,147,147);stroke-width:0.01" />
<line x1="0.100381" y1="-0.306675" x2="0.389963" y2="-0.101414" style="stroke:rgb(246,147,147);stroke-width:0.01" />
<line x1="0.357178" y1="-0.241694" x2="0.421672" y2="0.147502" style="stroke:rgb(246,147,147);stroke-width:0.01" />
<line x1="0.389963" y1="-0.101414" x2="0.421672" y2="0.147502" style="stroke:rgb(246,147,147);stroke-width:0.01" />
<line x1="0.263263" y1="0.0140239" x2="0.404668" y2="0.0140239" style="stroke:rgb(246,147,147);stroke-width:0.01" />
<line x1="0.263263" y1="0.0140239" x2="0.263263" y2="0.170708" style="stroke:rgb(246,147,147);stroke-width:0.01" />
<line x1="0.129908" y1="-0.27467" x2="0.263263" y2="0.170708" style="stroke:rgb(246,147,147);stroke-width:0.01" />
<line x1="0.389963" y1="-0.101414" x2="0.145896" y2="0.187902" style="stroke:rgb(246,147,147);stroke-width:0.01" />
<line x1="-0.420206" y1="0.155666" x2="-0.415907" y2="0.270205" style="stroke:rgb(246,147,147);stroke-width:0.01" />
<line x1="0.404668" y1="0.0140239" x2="-0.426506" y2="0.229281" style="stroke:rgb(246,147,147);stroke-width:0.01" />
<line x1="0.421672" y1="0.147502" x2="-0.415907" y2="0.270205" style="stroke:rgb(246,147,147);stroke-width:0.01" />
<line x1="-0.0771818" y1="0.042033" x2="0.145896" y2="0.187902" style="stroke:rgb(246,147,147);stroke-width:0.01" />
<line x1="-0.426506" y1="0.229281" x2="-0.415907" y2="0.270205" style="stroke:rgb(246,147,147);stroke-width:0.01" />
<line x1="-0.420206" y1="0.155666" x2="-0.296079" y2="0.25265" style="stroke:rgb(246,147,147);stroke-width:0.01" />
</g>
</svg>
