<svg xmlns="http://www.w3.org/2000/svg" viewBox="-1.5 -1.5 3 3">
<g transform="scale(1, -1)">
<path d="M0.783990 -1.034091 L0.784692 -1.030823 L0.827894 -1.030860 L1.670368 -0.099705 L1.653216 -0.017508 L1.265484 -0.056708 L1.023624 -0.031024 L0.875324 -0.030899 L0.868291 -0.096865 L0.734831 -0.110358 L0.799088 -0.745930 L0.768714 -1.030810 z " fill="rgb(245,195,195)" />
<path d="M0.000000 0.000000 L1.000000 0.000000 L1.000000 1.000000 L0.000000 1.000000  z" fill="none" stroke="rgb(128,128,128)" stroke-width="0.01" />
<line x1="0.827894" y1="-1.03086" x2="0.768714" y2="-1.03081" style="stroke:rgb(246,147,147);stroke-width:0.01" />
<line x1="0.827894" y1="-1.03086" x2="1.67037" y2="-0.0997047" style="stroke:rgb(246,147,147);stroke-width:0.01" />
<line x1="0.78399" y1="-1.03409" x2="0.768714" y2="-1.03081" style="stroke:rgb(246,147,147);stroke-width:0.01" />
<line x1="1.57997" y1="-0.0410266" x2="1.65322" y2="-0.0175082" style="stroke:rgb(246,147,147);stroke-width:0.01" />
<line x1="0.78399" y1="-1.03409" x2="0.994011" y2="-0.0563945" style="stroke:rgb(246,147,147);stroke-width:0.01" />
<line x1="0.734831" y1="-0.110358" x2="1.65322" y2="-0.0175082" style="stroke:rgb(246,147,147);stroke-width:0.01" />
<line x1="0.768714" y1="-1.03081" x2="0.875324" y2="-0.0308992" style="stroke:rgb(246,147,147);stroke-width:0.01" />
<line x1="1.02362" y1="-0.031024" x2="0.875324" y2="-0.0308992" style="stroke:rgb(246,147,147);stroke-width:0.01" />
<line x1="0.827894" y1="-1.03086" x2="0.734831" y2="-0.110358" style="stroke:rgb(246,147,147);stroke-width:0.01" />
<line x1="1.67037" y1="-0.0997047" x2="1.02362" y2="-0.031024" style="stroke:rgb(246,147,147);stroke-width:0.01" />
<line x1="0.994011" y1="-0.0563945" x2="0.875324" y2="-0.0308992" style="stroke:rgb(246,147,147);stroke-width:0.01" />
<line x1="1.61755" y1="-0.158083" x2="1.02362" y2="-0.031024" style="stroke:rgb(246,147,147);stroke-width:0.01" />
<line x1="1.67037" y1="-0.0997047" x2="1.65322" y2="-0.0175082" style="stroke:rgb(246,147,147);stroke-width:0.01" />
<line x1="1.61755" y1="-0.158083" x2="1.57997" y2="-0.0410266" style="stroke:rgb(246,147,147);stroke-width:0.01" />
</g>
</svg>
