<svg xmlns="http://www.w3.org/2000/svg" viewBox="-1.5 -1.5 3 3">
<g transform="scale(1, -1)">
<path d="M-0.220636 -0.591126 L-0.219934 -0.587858 L-0.176732 -0.587895 L0.665741 0.343260 L0.648590 0.425457 L0.260857 0.386257 L0.018997 0.411941 L-0.129302 0.412066 L-0.136335 0.346100 L-0.269795 0.332608 L-0.205539 -0.302965 L-0.235913 -0.587845 z " fill="rgb(245,195,195)" />
<path d="M-1.004626 0.442965 L-0.004626 0.442965 L-0.004626 1.442965 L-1.004626 1.442965  z" fill="none" stroke="rgb(128,128,128)" stroke-width="0.01" />
<line x1="-0.176732" y1="-0.587895" x2="-0.235913" y2="-0.587845" style="stroke:rgb(246,147,147);stroke-width:0.01" />
<line x1="-0.176732" y1="-0.587895" x2="0.665741" y2="0.34326" style="stroke:rgb(246,147,147);stroke-width:0.01" />
<line x1="-0.220636" y1="-0.591126" x2="-0.235913" y2="-0.587845" style="stroke:rgb(246,147,147);stroke-width:0.01" />
<line x1="0.575339" y1="0.401939" x2="0.64859" y2="0.425457" style="stroke:rgb(246,147,147);stroke-width:0.01" />
<line x1="-0.220636" y1="-0.591126" x2="-0.0106151" y2="0.386571" style="stroke:rgb(246,147,147);stroke-width:0.01" />
<line x1="-0.269795" y1="0.332608" x2="0.64859" y2="0.425457" style="stroke:rgb(246,147,147);stroke-width:0.01" />
<line x1="-0.235913" y1="-0.587845" x2="-0.129302" y2="0.412066" style="stroke:rgb(246,147,147);stroke-width:0.01" />
<line x1="0.0189975" y1="0.411941" x2="-0.129302" y2="0.412066" style="stroke:rgb(246,147,147);stroke-width:0.01" />
<line x1="-0.176732" y1="-0.587895" x2="-0.269795" y2="0.332608" style="stroke:rgb(246,147,147);stroke-width:0.01" />
<line x1="0.665741" y1="0.34326" x2="0.0189975" y2="0.411941" style="stroke:rgb(246,147,147);stroke-width:0.01" />
<line x1="-0.0106151" y1="0.386571" x2="-0.129302" y2="0.412066" style="stroke:rgb(246,147,147);stroke-width:0.01" />
<line x1="0.612923" y1="0.284882" x2="0.0189975" y2="0.411941" style="stroke:rgb(246,147,147);stroke-width:0.01" />
<line x1="0.665741" y1="0.34326" x2="0.64859" y2="0.425457" style="stroke:rgb(246,147,147);stroke-width:0.01" />
<line x1="0.612923" y1="0.284882" x2="0.575339" y2="0.401939" style="stroke:rgb(246,147,147);stroke-width:0.01" />
</g>
</svg>
