<svg xmlns="http://www.w3.org/2000/svg" viewBox="-1.5 -1.5 3 3">
<g transform="scale(1, -1)">
<path d="M-0.140611 -0.212961 L0.049099 -0.093723 L0.244536 -0.085657 L0.278089 -0.017011 L0.217931 0.012393 L0.235323 0.023324 L0.227351 0.090494 L0.112245 0.148895 L0.049817 0.320461 L-0.073942 0.275428 L-0.089798 0.170060 L-0.175616 0.135324 L-0.207489 -0.104313 L-0.198512 -0.118897 L-0.220289 -0.155816 L-0.155235 -0.194190 L-0.152899 -0.193811 z " fill="rgb(245,195,195)" />
<path d="M-0.656866 -0.112592 L0.343134 -0.112592 L0.343134 0.887408 L-0.656866 0.887408  z" fill="none" stroke="rgb(128,128,128)" stroke-width="0.01" />
<line x1="0.127606" y1="-0.0330345" x2="0.227351" y2="0.0904937" style="stroke:rgb(246,147,147);stroke-width:0.01" />
<line x1="0.244536" y1="-0.0856573" x2="0.278089" y2="-0.0170113" style="stroke:rgb(246,147,147);stroke-width:0.01" />
<line x1="-0.140611" y1="-0.212961" x2="0.235323" y2="0.0233245" style="stroke:rgb(246,147,147);stroke-width:0.01" />
<line x1="-0.0952873" y1="-0.184474" x2="0.106773" y2="0.105117" style="stroke:rgb(246,147,147);stroke-width:0.01" />
<line x1="0.0357794" y1="0.00498895" x2="0.11945" y2="0.124383" style="stroke:rgb(246,147,147);stroke-width:0.01" />
<line x1="-0.0413431" y1="-0.063606" x2="0.053679" y2="0.045697" style="stroke:rgb(246,147,147);stroke-width:0.01" />
<line x1="-0.155235" y1="-0.19419" x2="0.053679" y2="0.045697" style="stroke:rgb(246,147,147);stroke-width:0.01" />
<line x1="-0.170802" y1="-0.16591" x2="0.0444759" y2="-0.0244998" style="stroke:rgb(246,147,147);stroke-width:0.01" />
<line x1="0.0448482" y1="0.00123377" x2="0.143178" y2="0.0638865" style="stroke:rgb(246,147,147);stroke-width:0.01" />
<line x1="-0.207489" y1="-0.104313" x2="0.0285843" y2="0.104942" style="stroke:rgb(246,147,147);stroke-width:0.01" />
<line x1="-0.0413431" y1="-0.063606" x2="0.178315" y2="0.0499272" style="stroke:rgb(246,147,147);stroke-width:0.01" />
<line x1="-0.220289" y1="-0.155816" x2="-0.0594526" y2="0.116845" style="stroke:rgb(246,147,147);stroke-width:0.01" />
<line x1="-0.105816" y1="0.0636207" x2="-0.000615942" y2="0.206158" style="stroke:rgb(246,147,147);stroke-width:0.01" />
<line x1="-0.170802" y1="-0.16591" x2="-0.0779082" y2="0.045944" style="stroke:rgb(246,147,147);stroke-width:0.01" />
<line x1="-0.0950522" y1="0.092595" x2="0.0352656" y2="0.209453" style="stroke:rgb(246,147,147);stroke-width:0.01" />
<line x1="-0.155235" y1="-0.19419" x2="-0.0952873" y2="-0.184474" style="stroke:rgb(246,147,147);stroke-width:0.01" />
<line x1="0.165373" y1="-0.0206412" x2="0.178315" y2="0.0499272" style="stroke:rgb(246,147,147);stroke-width:0.01" />
<line x1="-0.028343" y1="0.0315408" x2="0.14295" y2="0.111331" style="stroke:rgb(246,147,147);stroke-width:0.01" />
<line x1="0.0357794" y1="0.00498895" x2="0.0606246" y2="0.146402" style="stroke:rgb(246,147,147);stroke-width:0.01" />
<line x1="0.127606" y1="-0.0330345" x2="0.14295" y2="0.111331" style="stroke:rgb(246,147,147);stroke-width:0.01" />
<line x1="-0.105816" y1="0.0636207" x2="-0.0739424" y2="0.275428" style="stroke:rgb(246,147,147);stroke-width:0.01" />
<line x1="-0.207489" y1="-0.104313" x2="-0.175616" y2="0.135324" style="stroke:rgb(246,147,147);stroke-width:0.01" />
<line x1="-0.108176" y1="-0.192575" x2="-0.0950522" y2="0.092595" style="stroke:rgb(246,147,147);stroke-width:0.01" />
<line x1="-0.0779082" y1="0.045944" x2="0.106773" y2="0.105117" style="stroke:rgb(246,147,147);stroke-width:0.01" />
<line x1="-0.207489" y1="-0.104313" x2="0.244536" y2="-0.0856573" style="stroke:rgb(246,147,147);stroke-width:0.01" />
<line x1="-0.14723" y1="0.0807696" x2="0.0606246" y2="0.146402" style="stroke:rgb(246,147,147);stroke-width:0.01" />
<line x1="-0.175616" y1="0.135324" x2="-0.000615942" y2="0.206158" style="stroke:rgb(246,147,147);stroke-width:0.01" />
<line x1="0.235323" y1="0.0233245" x2="0.227351" y2="0.0904937" style="stroke:rgb(246,147,147);stroke-width:0.01" />
<line x1="-0.108176" y1="-0.192575" x2="-0.170802" y2="-0.16591" style="stroke:rgb(246,147,147);stroke-width:0.01" />
<line x1="0.0448482" y1="0.00123377" x2="-0.000615942" y2="0.206158" style="stroke:rgb(246,147,147);stroke-width:0.01" />
<line x1="-0.0739424" y1="0.275428" x2="0.049817" y2="0.320461" style="stroke:rgb(246,147,147);stroke-width:0.01" />
<line x1="-0.155235" y1="-0.19419" x2="-0.220289" y2="-0.155816" style="stroke:rgb(246,147,147);stroke-width:0.01" />
<line x1="-0.140611" y1="-0.212961" x2="-0.207489" y2="-0.104313" style="stroke:rgb(246,147,147);stroke-width:0.01" />
<line x1="-0.140611" y1="-0.212961" x2="-0.170802" y2="-0.16591" style="stroke:rgb(246,147,147);stroke-width:0.01" />
<line x1="0.144789" y1="-0.033579" x2="0.106773" y2="0.105117" style="stroke:rgb(246,147,147);stroke-width:0.01" />
<line x1="-0.028343" y1="0.0315408" x2="-0.0594526" y2="0.116845" style="stroke:rgb(246,147,147);stroke-width:0.01" />
<line x1="0.0889046" y1="-0.068704" x2="0.0285843" y2="0.104942" style="stroke:rgb(246,147,147);stroke-width:0.01" />
<line x1="-0.14723" y1="0.0807696" x2="-0.175616" y2="0.135324" style="stroke:rgb(246,147,147);stroke-width:0.01" />
<line x1="0.067207" y1="-0.0823416" x2="0.0444759" y2="-0.0244998" style="stroke:rgb(246,147,147);stroke-width:0.01" />
<line x1="0.00440545" y1="-0.121814" x2="-0.0779082" y2="0.045944" style="stroke:rgb(246,147,147);stroke-width:0.01" />
<line x1="0.11945" y1="0.124383" x2="-0.175616" y2="0.135324" style="stroke:rgb(246,147,147);stroke-width:0.01" />
<line x1="0.143178" y1="0.0638865" x2="0.049817" y2="0.320461" style="stroke:rgb(246,147,147);stroke-width:0.01" />
<line x1="0.227351" y1="0.0904937" x2="-0.0594526" y2="0.116845" style="stroke:rgb(246,147,147);stroke-width:0.01" />
<line x1="0.165373" y1="-0.0206412" x2="-0.0779082" y2="0.045944" style="stroke:rgb(246,147,147);stroke-width:0.01" />
<line x1="0.00440545" y1="-0.121814" x2="-0.0413431" y2="-0.063606" style="stroke:rgb(246,147,147);stroke-width:0.01" />
<line x1="0.127606" y1="-0.0330345" x2="-0.14723" y2="0.0807696" style="stroke:rgb(246,147,147);stroke-width:0.01" />
<line x1="0.067207" y1="-0.0823416" x2="-0.0950522" y2="0.092595" style="stroke:rgb(246,147,147);stroke-width:0.01" />
<line x1="0.0889046" y1="-0.068704" x2="0.0444759" y2="-0.0244998" style="stroke:rgb(246,147,147);stroke-width:0.01" />
<line x1="0.244536" y1="-0.0856573" x2="0.11945" y2="0.124383" style="stroke:rgb(246,147,147);stroke-width:0.01" />
<line x1="0.144789" y1="-0.033579" x2="0.053679" y2="0.045697" style="stroke:rgb(246,147,147);stroke-width:0.01" />
<line x1="0.278089" y1="-0.0170113" x2="0.0285843" y2="0.104942" style="stroke:rgb(246,147,147);stroke-width:0.01" />
<line x1="0.178315" y1="0.0499272" x2="0.0352656" y2="0.209453" style="stroke:rgb(246,147,147);stroke-width:0.01" />
<line x1="0.143178" y1="0.0638865" x2="0.0606246" y2="0.146402" style="stroke:rgb(246,147,147);stroke-width:0.01" />
<line x1="0.235323" y1="0.0233245" x2="0.106773" y2="0.105117" style="stroke:rgb(246,147,147);stroke-width:0.01" />
<line x1="0.227351" y1="0.0904937" x2="-0.000615942" y2="0.206158" style="stroke:rgb(246,147,147);stroke-width:0.01" />
<line x1="0.14295" y1="0.111331" x2="-0.0739424" y2="0.275428" style="stroke:rgb(246,147,147);stroke-width:0.01" />
</g>
</svg>
