<svg xmlns="http://www.w3.org/2000/svg" viewBox="-1.5 -1.5 3 3">
<g transform="scale(1, -1)">
<path d="M0.516255 -0.100369 L0.705965 0.018869 L0.901402 0.026935 L0.934955 0.095581 L0.874797 0.124985 L0.892189 0.135917 L0.884217 0.203086 L0.769111 0.261487 L0.706683 0.433053 L0.582924 0.388021 L0.567068 0.282652 L0.481250 0.247917 L0.449377 0.008280 L0.458354 -0.006305 L0.436577 -0.043224 L0.501631 -0.081598 L0.503967 -0.081219 z " fill="rgb(245,195,195)" />
<path d="M0.000000 0.000000 L1.000000 0.000000 L1.000000 1.000000 L0.000000 1.000000  z" fill="none" stroke="rgb(128,128,128)" stroke-width="0.01" />
<line x1="0.784472" y1="0.0795578" x2="0.884217" y2="0.203086" style="stroke:rgb(246,147,147);stroke-width:0.01" />
<line x1="0.901402" y1="0.0269349" x2="0.934955" y2="0.0955809" style="stroke:rgb(246,147,147);stroke-width:0.01" />
<line x1="0.516255" y1="-0.100369" x2="0.892189" y2="0.135917" style="stroke:rgb(246,147,147);stroke-width:0.01" />
<line x1="0.561579" y1="-0.0718818" x2="0.763639" y2="0.217709" style="stroke:rgb(246,147,147);stroke-width:0.01" />
<line x1="0.692645" y1="0.117581" x2="0.776316" y2="0.236976" style="stroke:rgb(246,147,147);stroke-width:0.01" />
<line x1="0.615523" y1="0.0489863" x2="0.710545" y2="0.158289" style="stroke:rgb(246,147,147);stroke-width:0.01" />
<line x1="0.501631" y1="-0.0815979" x2="0.710545" y2="0.158289" style="stroke:rgb(246,147,147);stroke-width:0.01" />
<line x1="0.486064" y1="-0.0533174" x2="0.701342" y2="0.0880924" style="stroke:rgb(246,147,147);stroke-width:0.01" />
<line x1="0.701714" y1="0.113826" x2="0.800044" y2="0.176479" style="stroke:rgb(246,147,147);stroke-width:0.01" />
<line x1="0.449377" y1="0.00827955" x2="0.68545" y2="0.217534" style="stroke:rgb(246,147,147);stroke-width:0.01" />
<line x1="0.615523" y1="0.0489863" x2="0.835181" y2="0.162519" style="stroke:rgb(246,147,147);stroke-width:0.01" />
<line x1="0.436577" y1="-0.0432236" x2="0.597413" y2="0.229437" style="stroke:rgb(246,147,147);stroke-width:0.01" />
<line x1="0.55105" y1="0.176213" x2="0.65625" y2="0.31875" style="stroke:rgb(246,147,147);stroke-width:0.01" />
<line x1="0.486064" y1="-0.0533174" x2="0.578958" y2="0.158536" style="stroke:rgb(246,147,147);stroke-width:0.01" />
<line x1="0.561814" y1="0.205187" x2="0.692132" y2="0.322045" style="stroke:rgb(246,147,147);stroke-width:0.01" />
<line x1="0.501631" y1="-0.0815979" x2="0.561579" y2="-0.0718818" style="stroke:rgb(246,147,147);stroke-width:0.01" />
<line x1="0.822239" y1="0.091951" x2="0.835181" y2="0.162519" style="stroke:rgb(246,147,147);stroke-width:0.01" />
<line x1="0.628523" y1="0.144133" x2="0.799816" y2="0.223923" style="stroke:rgb(246,147,147);stroke-width:0.01" />
<line x1="0.692645" y1="0.117581" x2="0.717491" y2="0.258994" style="stroke:rgb(246,147,147);stroke-width:0.01" />
<line x1="0.784472" y1="0.0795578" x2="0.799816" y2="0.223923" style="stroke:rgb(246,147,147);stroke-width:0.01" />
<line x1="0.55105" y1="0.176213" x2="0.582924" y2="0.388021" style="stroke:rgb(246,147,147);stroke-width:0.01" />
<line x1="0.449377" y1="0.00827955" x2="0.48125" y2="0.247917" style="stroke:rgb(246,147,147);stroke-width:0.01" />
<line x1="0.54869" y1="-0.079983" x2="0.561814" y2="0.205187" style="stroke:rgb(246,147,147);stroke-width:0.01" />
<line x1="0.578958" y1="0.158536" x2="0.763639" y2="0.217709" style="stroke:rgb(246,147,147);stroke-width:0.01" />
<line x1="0.449377" y1="0.00827955" x2="0.901402" y2="0.0269349" style="stroke:rgb(246,147,147);stroke-width:0.01" />
<line x1="0.509636" y1="0.193362" x2="0.717491" y2="0.258994" style="stroke:rgb(246,147,147);stroke-width:0.01" />
<line x1="0.48125" y1="0.247917" x2="0.65625" y2="0.31875" style="stroke:rgb(246,147,147);stroke-width:0.01" />
<line x1="0.892189" y1="0.135917" x2="0.884217" y2="0.203086" style="stroke:rgb(246,147,147);stroke-width:0.01" />
<line x1="0.54869" y1="-0.079983" x2="0.486064" y2="-0.0533174" style="stroke:rgb(246,147,147);stroke-width:0.01" />
<line x1="0.701714" y1="0.113826" x2="0.65625" y2="0.31875" style="stroke:rgb(246,147,147);stroke-width:0.01" />
<line x1="0.582924" y1="0.388021" x2="0.706683" y2="0.433053" style="stroke:rgb(246,147,147);stroke-width:0.01" />
<line x1="0.501631" y1="-0.0815979" x2="0.436577" y2="-0.0432236" style="stroke:rgb(246,147,147);stroke-width:0.01" />
<line x1="0.516255" y1="-0.100369" x2="0.449377" y2="0.00827955" style="stroke:rgb(246,147,147);stroke-width:0.01" />
<line x1="0.516255" y1="-0.100369" x2="0.486064" y2="-0.0533174" style="stroke:rgb(246,147,147);stroke-width:0.01" />
<line x1="0.801655" y1="0.0790132" x2="0.763639" y2="0.217709" style="stroke:rgb(246,147,147);stroke-width:0.01" />
<line x1="0.628523" y1="0.144133" x2="0.597413" y2="0.229437" style="stroke:rgb(246,147,147);stroke-width:0.01" />
<line x1="0.745771" y1="0.0438883" x2="0.68545" y2="0.217534" style="stroke:rgb(246,147,147);stroke-width:0.01" />
<line x1="0.509636" y1="0.193362" x2="0.48125" y2="0.247917" style="stroke:rgb(246,147,147);stroke-width:0.01" />
<line x1="0.724073" y1="0.0302507" x2="0.701342" y2="0.0880924" style="stroke:rgb(246,147,147);stroke-width:0.01" />
<line x1="0.661271" y1="-0.00922198" x2="0.578958" y2="0.158536" style="stroke:rgb(246,147,147);stroke-width:0.01" />
<line x1="0.776316" y1="0.236976" x2="0.48125" y2="0.247917" style="stroke:rgb(246,147,147);stroke-width:0.01" />
<line x1="0.800044" y1="0.176479" x2="0.706683" y2="0.433053" style="stroke:rgb(246,147,147);stroke-width:0.01" />
<line x1="0.884217" y1="0.203086" x2="0.597413" y2="0.229437" style="stroke:rgb(246,147,147);stroke-width:0.01" />
<line x1="0.822239" y1="0.091951" x2="0.578958" y2="0.158536" style="stroke:rgb(246,147,147);stroke-width:0.01" />
<line x1="0.661271" y1="-0.00922198" x2="0.615523" y2="0.0489863" style="stroke:rgb(246,147,147);stroke-width:0.01" />
<line x1="0.784472" y1="0.0795578" x2="0.509636" y2="0.193362" style="stroke:rgb(246,147,147);stroke-width:0.01" />
<line x1="0.724073" y1="0.0302507" x2="0.561814" y2="0.205187" style="stroke:rgb(246,147,147);stroke-width:0.01" />
<line x1="0.745771" y1="0.0438883" x2="0.701342" y2="0.0880924" style="stroke:rgb(246,147,147);stroke-width:0.01" />
<line x1="0.901402" y1="0.0269349" x2="0.776316" y2="0.236976" style="stroke:rgb(246,147,147);stroke-width:0.01" />
<line x1="0.801655" y1="0.0790132" x2="0.710545" y2="0.158289" style="stroke:rgb(246,147,147);stroke-width:0.01" />
<line x1="0.934955" y1="0.0955809" x2="0.68545" y2="0.217534" style="stroke:rgb(246,147,147);stroke-width:0.01" />
<line x1="0.835181" y1="0.162519" x2="0.692132" y2="0.322045" style="stroke:rgb(246,147,147);stroke-width:0.01" />
<line x1="0.800044" y1="0.176479" x2="0.717491" y2="0.258994" style="stroke:rgb(246,147,147);stroke-width:0.01" />
<line x1="0.892189" y1="0.135917" x2="0.763639" y2="0.217709" style="stroke:rgb(246,147,147);stroke-width:0.01" />
<line x1="0.884217" y1="0.203086" x2="0.65625" y2="0.31875" style="stroke:rgb(246,147,147);stroke-width:0.01" />
<line x1="0.799816" y1="0.223923" x2="0.582924" y2="0.388021" style="stroke:rgb(246,147,147);stroke-width:0.01" />
</g>
</svg>
