<svg xmlns="http://www.w3.org/2000/svg" viewBox="-1.5 -1.5 3 3">
<g transform="scale(1, -1)">
<path d="M0.117258 -0.161028 L0.221297 -0.135425 L0.129218 0.297514 L0.002075 0.276741 L0.018682 0.163869 L0.024682 0.091403 L-0.216959 0.047977 L-0.200785 -0.061951 L-0.193798 -0.060923 L-0.188067 -0.087873 L0.035587 -0.040308 L0.054487 -0.014887 L0.080692 -0.160695 L0.115631 -0.154416 z " fill="rgb(245,195,195)" />
<path d="M-0.173862 -1.096566 L0.826138 -1.096566 L0.826138 -0.096566 L-0.173862 -0.096566  z" fill="none" stroke="rgb(128,128,128)" stroke-width="0.01" />
<line x1="-0.200785" y1="-0.0619505" x2="-0.216959" y2="0.0479772" style="stroke:rgb(246,147,147);stroke-width:0.01" />
<line x1="0.0355874" y1="-0.040308" x2="0.00923918" y2="0.277912" style="stroke:rgb(246,147,147);stroke-width:0.01" />
<line x1="-0.188067" y1="-0.0878734" x2="-0.216959" y2="0.0479772" style="stroke:rgb(246,147,147);stroke-width:0.01" />
<line x1="0.150297" y1="0.113978" x2="0.129218" y2="0.297514" style="stroke:rgb(246,147,147);stroke-width:0.01" />
<line x1="0.0465523" y1="-0.02556" x2="0.00207499" y2="0.276741" style="stroke:rgb(246,147,147);stroke-width:0.01" />
<line x1="0.0806922" y1="-0.160695" x2="0.00207499" y2="0.276741" style="stroke:rgb(246,147,147);stroke-width:0.01" />
<line x1="0.117258" y1="-0.161028" x2="0.00923918" y2="0.277912" style="stroke:rgb(246,147,147);stroke-width:0.01" />
<line x1="0.221297" y1="-0.135425" x2="0.129218" y2="0.297514" style="stroke:rgb(246,147,147);stroke-width:0.01" />
<line x1="0.0355874" y1="-0.040308" x2="0.150297" y2="0.113978" style="stroke:rgb(246,147,147);stroke-width:0.01" />
<line x1="0.117258" y1="-0.161028" x2="0.221297" y2="-0.135425" style="stroke:rgb(246,147,147);stroke-width:0.01" />
<line x1="0.0806922" y1="-0.160695" x2="0.221297" y2="-0.135425" style="stroke:rgb(246,147,147);stroke-width:0.01" />
<line x1="-0.188067" y1="-0.0878734" x2="0.0355874" y2="-0.040308" style="stroke:rgb(246,147,147);stroke-width:0.01" />
<line x1="-0.200785" y1="-0.0619505" x2="0.0465523" y2="-0.02556" style="stroke:rgb(246,147,147);stroke-width:0.01" />
<line x1="-0.216959" y1="0.0479772" x2="0.150297" y2="0.113978" style="stroke:rgb(246,147,147);stroke-width:0.01" />
<line x1="0.00207499" y1="0.276741" x2="0.129218" y2="0.297514" style="stroke:rgb(246,147,147);stroke-width:0.01" />
</g>
</svg>
