<svg xmlns="http://www.w3.org/2000/svg" viewBox="-1.5 -1.5 3 3">
<g transform="scale(1, -1)">
<path d="M0.291120 0.935538 L0.395159 0.961141 L0.303080 1.394080 L0.175937 1.373307 L0.192544 1.260435 L0.198544 1.187969 L-0.043097 1.144543 L-0.026923 1.034615 L-0.019937 1.035643 L-0.014205 1.008692 L0.209449 1.056258 L0.228349 1.081679 L0.254554 0.935871 L0.289492 0.942150 z " fill="rgb(245,195,195)" />
<path d="M0.000000 0.000000 L1.000000 0.000000 L1.000000 1.000000 L0.000000 1.000000  z" fill="none" stroke="rgb(128,128,128)" stroke-width="0.01" />
<line x1="-0.0269231" y1="1.03462" x2="-0.0430966" y2="1.14454" style="stroke:rgb(246,147,147);stroke-width:0.01" />
<line x1="0.209449" y1="1.05626" x2="0.183101" y2="1.37448" style="stroke:rgb(246,147,147);stroke-width:0.01" />
<line x1="-0.0142048" y1="1.00869" x2="-0.0430966" y2="1.14454" style="stroke:rgb(246,147,147);stroke-width:0.01" />
<line x1="0.324159" y1="1.21054" x2="0.30308" y2="1.39408" style="stroke:rgb(246,147,147);stroke-width:0.01" />
<line x1="0.220414" y1="1.07101" x2="0.175937" y2="1.37331" style="stroke:rgb(246,147,147);stroke-width:0.01" />
<line x1="0.254554" y1="0.935871" x2="0.175937" y2="1.37331" style="stroke:rgb(246,147,147);stroke-width:0.01" />
<line x1="0.29112" y1="0.935538" x2="0.183101" y2="1.37448" style="stroke:rgb(246,147,147);stroke-width:0.01" />
<line x1="0.395159" y1="0.961141" x2="0.30308" y2="1.39408" style="stroke:rgb(246,147,147);stroke-width:0.01" />
<line x1="0.209449" y1="1.05626" x2="0.324159" y2="1.21054" style="stroke:rgb(246,147,147);stroke-width:0.01" />
<line x1="0.29112" y1="0.935538" x2="0.395159" y2="0.961141" style="stroke:rgb(246,147,147);stroke-width:0.01" />
<line x1="0.254554" y1="0.935871" x2="0.395159" y2="0.961141" style="stroke:rgb(246,147,147);stroke-width:0.01" />
<line x1="-0.0142048" y1="1.00869" x2="0.209449" y2="1.05626" style="stroke:rgb(246,147,147);stroke-width:0.01" />
<line x1="-0.0269231" y1="1.03462" x2="0.220414" y2="1.07101" style="stroke:rgb(246,147,147);stroke-width:0.01" />
<line x1="-0.0430966" y1="1.14454" x2="0.324159" y2="1.21054" style="stroke:rgb(246,147,147);stroke-width:0.01" />
<line x1="0.175937" y1="1.37331" x2="0.30308" y2="1.39408" style="stroke:rgb(246,147,147);stroke-width:0.01" />
</g>
</svg>
