<svg xmlns="http://www.w3.org/2000/svg" viewBox="-1.5 -1.5 3 3">
<g transform="scale(1, -1)">
<path d="M-0.562519 -0.406528 L0.437481 -0.406528 L0.308449 -0.277496 L0.504147 0.393472 L0.104147 0.510138 L-0.229186 0.260138 L-0.562519 -0.073195 z " fill="rgb(245,195,195)" />
<path d="M-0.562519 -0.406528 L0.437481 -0.406528 L0.437481 0.593472 L-0.562519 0.593472  z" fill="none" stroke="rgb(128,128,128)" stroke-width="0.01" />
<line x1="0.270814" y1="-0.406528" x2="0.504147" y2="0.393472" style="stroke:rgb(246,147,147);stroke-width:0.01" />
<line x1="-0.562519" y1="-0.406528" x2="0.437481" y2="-0.406528" style="stroke:rgb(246,147,147);stroke-width:0.01" />
<line x1="-0.562519" y1="-0.406528" x2="-0.562519" y2="-0.0731951" style="stroke:rgb(246,147,147);stroke-width:0.01" />
<line x1="0.104147" y1="-0.0731951" x2="0.104147" y2="0.510138" style="stroke:rgb(246,147,147);stroke-width:0.01" />
<line x1="-0.562519" y1="-0.0731951" x2="-0.229186" y2="0.260138" style="stroke:rgb(246,147,147);stroke-width:0.01" />
<line x1="-0.229186" y1="0.260138" x2="0.104147" y2="0.510138" style="stroke:rgb(246,147,147);stroke-width:0.01" />
<line x1="-0.562519" y1="-0.0731951" x2="0.104147" y2="-0.0731951" style="stroke:rgb(246,147,147);stroke-width:0.01" />
<line x1="0.270814" y1="-0.406528" x2="-0.229186" y2="0.260138" style="stroke:rgb(246,147,147);stroke-width:0.01" />
<line x1="0.437481" y1="-0.406528" x2="-0.229186" y2="0.260138" style="stroke:rgb(246,147,147);stroke-width:0.01" />
<line x1="0.504147" y1="0.393472" x2="0.104147" y2="0.510138" style="stroke:rgb(246,147,147);stroke-width:0.01" />
</g>
</svg>
