<svg xmlns="http://www.w3.org/2000/svg" viewBox="-1.5 -1.5 3 3">
<g transform="scale(1, -1)">
<path d="M0.378501 -0.174748 L0.571816 -0.010015 L0.538958 0.049107 L0.607843 0.259804 L0.484600 0.319204 L0.455467 0.307835 L0.382353 0.330882 L0.371753 0.323082 L0.107067 0.365015 L0.106474 0.361276 L0.143548 0.292869 L0.218475 0.215354 L0.214621 0.213850 L0.212405 0.109634 L0.269638 0.086743 L0.229590 0.000000 z " fill="rgb(245,195,195)" />
<path d="M0.000000 0.000000 L1.000000 0.000000 L1.000000 1.000000 L0.000000 1.000000  z" fill="none" stroke="rgb(128,128,128)" stroke-width="0.01" />
<line x1="0.378501" y1="-0.174748" x2="0.571816" y2="-0.0100149" style="stroke:rgb(246,147,147);stroke-width:0.01" />
<line x1="0.454022" y1="-0.0283297" x2="0.546848" y2="0.0320587" style="stroke:rgb(246,147,147);stroke-width:0.01" />
<line x1="0.454022" y1="-0.0283297" x2="0.555638" y2="0.116839" style="stroke:rgb(246,147,147);stroke-width:0.01" />
<line x1="0.421255" y1="-0.0580439" x2="0.487825" y2="0.0370575" style="stroke:rgb(246,147,147);stroke-width:0.01" />
<line x1="0.449794" y1="-0.0239555" x2="0.546848" y2="0.0320587" style="stroke:rgb(246,147,147);stroke-width:0.01" />
<line x1="0.449794" y1="-0.0239555" x2="0.487825" y2="0.0370575" style="stroke:rgb(246,147,147);stroke-width:0.01" />
<line x1="0.462245" y1="-0.0368372" x2="0.518694" y2="-0.0128726" style="stroke:rgb(246,147,147);stroke-width:0.01" />
<line x1="0.48601" y1="0" x2="0.607843" y2="0.259804" style="stroke:rgb(246,147,147);stroke-width:0.01" />
<line x1="0.462245" y1="-0.0368372" x2="0.514404" y2="0.0752794" style="stroke:rgb(246,147,147);stroke-width:0.01" />
<line x1="0.421255" y1="-0.0580439" x2="0.571816" y2="-0.0100149" style="stroke:rgb(246,147,147);stroke-width:0.01" />
<line x1="0.403734" y1="0.0236949" x2="0.488493" y2="0.190501" style="stroke:rgb(246,147,147);stroke-width:0.01" />
<line x1="0.518694" y1="-0.0128726" x2="0.607843" y2="0.259804" style="stroke:rgb(246,147,147);stroke-width:0.01" />
<line x1="0.403734" y1="0.0236949" x2="0.514404" y2="0.0752794" style="stroke:rgb(246,147,147);stroke-width:0.01" />
<line x1="0.376142" y1="0.0457253" x2="0.4846" y2="0.319204" style="stroke:rgb(246,147,147);stroke-width:0.01" />
<line x1="0.22959" y1="0" x2="0.382353" y2="0.330882" style="stroke:rgb(246,147,147);stroke-width:0.01" />
<line x1="0.212405" y1="0.109634" x2="0.402711" y2="0.318177" style="stroke:rgb(246,147,147);stroke-width:0.01" />
<line x1="0.219061" y1="0.214747" x2="0.279548" y2="0.310099" style="stroke:rgb(246,147,147);stroke-width:0.01" />
<line x1="0.221518" y1="0.212206" x2="0.221921" y2="0.212815" style="stroke:rgb(246,147,147);stroke-width:0.01" />
<line x1="0.106474" y1="0.361276" x2="0.107067" y2="0.365015" style="stroke:rgb(246,147,147);stroke-width:0.01" />
<line x1="0.212405" y1="0.109634" x2="0.214621" y2="0.21385" style="stroke:rgb(246,147,147);stroke-width:0.01" />
<line x1="0.22959" y1="0" x2="0.48601" y2="0" style="stroke:rgb(246,147,147);stroke-width:0.01" />
<line x1="0.29528" y1="0.0416541" x2="0.285223" y2="0.241401" style="stroke:rgb(246,147,147);stroke-width:0.01" />
<line x1="0.29528" y1="0.0416541" x2="0.376142" y2="0.0457253" style="stroke:rgb(246,147,147);stroke-width:0.01" />
<line x1="0.221921" y1="0.212815" x2="0.382353" y2="0.330882" style="stroke:rgb(246,147,147);stroke-width:0.01" />
<line x1="0.221518" y1="0.212206" x2="0.377655" y2="0.307956" style="stroke:rgb(246,147,147);stroke-width:0.01" />
<line x1="0.219061" y1="0.214747" x2="0.377655" y2="0.307956" style="stroke:rgb(246,147,147);stroke-width:0.01" />
<line x1="0.214621" y1="0.21385" x2="0.4846" y2="0.319204" style="stroke:rgb(246,147,147);stroke-width:0.01" />
<line x1="0.378501" y1="-0.174748" x2="0.22959" y2="0" style="stroke:rgb(246,147,147);stroke-width:0.01" />
<line x1="0.143548" y1="0.292869" x2="0.106474" y2="0.361276" style="stroke:rgb(246,147,147);stroke-width:0.01" />
<line x1="0.518694" y1="-0.0128726" x2="0.402711" y2="0.318177" style="stroke:rgb(246,147,147);stroke-width:0.01" />
<line x1="0.518694" y1="-0.0128726" x2="0.212405" y2="0.109634" style="stroke:rgb(246,147,147);stroke-width:0.01" />
<line x1="0.421255" y1="-0.0580439" x2="0.221921" y2="0.212815" style="stroke:rgb(246,147,147);stroke-width:0.01" />
<line x1="0.376142" y1="0.0457253" x2="0.214621" y2="0.21385" style="stroke:rgb(246,147,147);stroke-width:0.01" />
<line x1="0.462245" y1="-0.0368372" x2="0.143548" y2="0.292869" style="stroke:rgb(246,147,147);stroke-width:0.01" />
<line x1="0.48601" y1="0" x2="0.285223" y2="0.241401" style="stroke:rgb(246,147,147);stroke-width:0.01" />
<line x1="0.571816" y1="-0.0100149" x2="0.382353" y2="0.330882" style="stroke:rgb(246,147,147);stroke-width:0.01" />
<line x1="0.514404" y1="0.0752794" x2="0.377655" y2="0.307956" style="stroke:rgb(246,147,147);stroke-width:0.01" />
<line x1="0.487825" y1="0.0370575" x2="0.221921" y2="0.212815" style="stroke:rgb(246,147,147);stroke-width:0.01" />
<line x1="0.546848" y1="0.0320587" x2="0.377655" y2="0.307956" style="stroke:rgb(246,147,147);stroke-width:0.01" />
<line x1="0.514404" y1="0.0752794" x2="0.143548" y2="0.292869" style="stroke:rgb(246,147,147);stroke-width:0.01" />
<line x1="0.555638" y1="0.116839" x2="0.279548" y2="0.310099" style="stroke:rgb(246,147,147);stroke-width:0.01" />
<line x1="0.488493" y1="0.190501" x2="0.106474" y2="0.361276" style="stroke:rgb(246,147,147);stroke-width:0.01" />
<line x1="0.488493" y1="0.190501" x2="0.279548" y2="0.310099" style="stroke:rgb(246,147,147);stroke-width:0.01" />
<line x1="0.402711" y1="0.318177" x2="0.107067" y2="0.365015" style="stroke:rgb(246,147,147);stroke-width:0.01" />
<line x1="0.607843" y1="0.259804" x2="0.382353" y2="0.330882" style="stroke:rgb(246,147,147);stroke-width:0.01" />
<line x1="0.607843" y1="0.259804" x2="0.4846" y2="0.319204" style="stroke:rgb(246,147,147);stroke-width:0.01" />
</g>
</svg>
