<svg xmlns="http://www.w3.org/2000/svg" viewBox="-1.5 -1.5 3 3">
<g transform="scale(1, -1)">
<path d="M0.406008 1.060558 L0.697112 1.393984 L0.604208 1.483235 L0.523874 1.402226 L0.469502 1.353947 L0.289776 1.521203 L0.211538 1.442308 L0.216553 1.437335 L0.198431 1.416579 L0.370676 1.266195 L0.402352 1.266328 L0.301429 1.157879 L0.327416 1.133696 L0.323102 1.128427 z " fill="rgb(245,195,195)" />
<path d="M0.000000 0.000000 L1.000000 0.000000 L1.000000 1.000000 L0.000000 1.000000  z" fill="none" stroke="rgb(128,128,128)" stroke-width="0.01" />
<line x1="0.406008" y1="1.06056" x2="0.697112" y2="1.39398" style="stroke:rgb(246,147,147);stroke-width:0.01" />
<line x1="0.323102" y1="1.12843" x2="0.609443" y2="1.47821" style="stroke:rgb(246,147,147);stroke-width:0.01" />
<line x1="0.301429" y1="1.15788" x2="0.604208" y2="1.48323" style="stroke:rgb(246,147,147);stroke-width:0.01" />
<line x1="0.56293" y1="1.267" x2="0.697112" y2="1.39398" style="stroke:rgb(246,147,147);stroke-width:0.01" />
<line x1="0.389053" y1="1.26627" x2="0.604208" y2="1.48323" style="stroke:rgb(246,147,147);stroke-width:0.01" />
<line x1="0.198431" y1="1.41658" x2="0.289776" y2="1.5212" style="stroke:rgb(246,147,147);stroke-width:0.01" />
<line x1="0.370676" y1="1.2662" x2="0.609443" y2="1.47821" style="stroke:rgb(246,147,147);stroke-width:0.01" />
<line x1="0.211538" y1="1.44231" x2="0.289776" y2="1.5212" style="stroke:rgb(246,147,147);stroke-width:0.01" />
<line x1="0.406008" y1="1.06056" x2="0.301429" y2="1.15788" style="stroke:rgb(246,147,147);stroke-width:0.01" />
<line x1="0.389053" y1="1.26627" x2="0.211538" y2="1.44231" style="stroke:rgb(246,147,147);stroke-width:0.01" />
<line x1="0.406008" y1="1.06056" x2="0.323102" y2="1.12843" style="stroke:rgb(246,147,147);stroke-width:0.01" />
<line x1="0.370676" y1="1.2662" x2="0.198431" y2="1.41658" style="stroke:rgb(246,147,147);stroke-width:0.01" />
<line x1="0.56293" y1="1.267" x2="0.289776" y2="1.5212" style="stroke:rgb(246,147,147);stroke-width:0.01" />
<line x1="0.697112" y1="1.39398" x2="0.604208" y2="1.48323" style="stroke:rgb(246,147,147);stroke-width:0.01" />
<line x1="0.370676" y1="1.2662" x2="0.56293" y2="1.267" style="stroke:rgb(246,147,147);stroke-width:0.01" />
</g>
</svg>
