<svg xmlns="http://www.w3.org/2000/svg" viewBox="-1.5 -1.5 3 3">
<g transform="scale(1, -1)">
<path d="M0.024438 -0.258292 L0.315542 0.075134 L0.222638 0.164385 L0.142304 0.083376 L0.087932 0.035097 L-0.091793 0.202353 L-0.170031 0.123458 L-0.165017 0.118485 L-0.183139 0.097729 L-0.010894 -0.052655 L0.020783 -0.052522 L-0.080140 -0.160971 L-0.054154 -0.185154 L-0.058468 -0.190423 z " fill="rgb(245,195,195)" />
<path d="M-0.381570 -0.318850 L0.618430 -0.318850 L0.618430 0.681150 L-0.381570 0.681150  z" fill="none" stroke="rgb(128,128,128)" stroke-width="0.01" />
<line x1="0.024438" y1="-0.258292" x2="0.315542" y2="0.0751341" style="stroke:rgb(246,147,147);stroke-width:0.01" />
<line x1="0.181361" y1="-0.0518503" x2="0.315542" y2="0.0751341" style="stroke:rgb(246,147,147);stroke-width:0.01" />
<line x1="-0.0584676" y1="-0.190423" x2="0.227873" y2="0.159356" style="stroke:rgb(246,147,147);stroke-width:0.01" />
<line x1="-0.0801405" y1="-0.160971" x2="0.222638" y2="0.164385" style="stroke:rgb(246,147,147);stroke-width:0.01" />
<line x1="0.0074834" y1="-0.0525778" x2="0.222638" y2="0.164385" style="stroke:rgb(246,147,147);stroke-width:0.01" />
<line x1="-0.010894" y1="-0.0526547" x2="0.227873" y2="0.159356" style="stroke:rgb(246,147,147);stroke-width:0.01" />
<line x1="-0.183139" y1="0.0977293" x2="-0.0917934" y2="0.202353" style="stroke:rgb(246,147,147);stroke-width:0.01" />
<line x1="-0.170031" y1="0.123458" x2="-0.0917934" y2="0.202353" style="stroke:rgb(246,147,147);stroke-width:0.01" />
<line x1="0.024438" y1="-0.258292" x2="-0.0801405" y2="-0.160971" style="stroke:rgb(246,147,147);stroke-width:0.01" />
<line x1="0.024438" y1="-0.258292" x2="-0.0584676" y2="-0.190423" style="stroke:rgb(246,147,147);stroke-width:0.01" />
<line x1="-0.010894" y1="-0.0526547" x2="0.181361" y2="-0.0518503" style="stroke:rgb(246,147,147);stroke-width:0.01" />
<line x1="0.0074834" y1="-0.0525778" x2="-0.170031" y2="0.123458" style="stroke:rgb(246,147,147);stroke-width:0.01" />
<line x1="-0.010894" y1="-0.0526547" x2="-0.183139" y2="0.0977293" style="stroke:rgb(246,147,147);stroke-width:0.01" />
<line x1="0.181361" y1="-0.0518503" x2="-0.0917934" y2="0.202353" style="stroke:rgb(246,147,147);stroke-width:0.01" />
<line x1="0.315542" y1="0.0751341" x2="0.222638" y2="0.164385" style="stroke:rgb(246,147,147);stroke-width:0.01" />
</g>
</svg>
