<svg xmlns="http://www.w3.org/2000/svg" viewBox="-1.5 -1.5 3 3">
<g transform="scale(1, -1)">
<path d="M0.406008 0.060558 L0.697112 0.393984 L0.604208 0.483235 L0.523874 0.402226 L0.469502 0.353947 L0.289776 0.521203 L0.211538 0.442308 L0.216553 0.437335 L0.198431 0.416579 L0.370676 0.266195 L0.402352 0.266328 L0.301429 0.157879 L0.327416 0.133696 L0.323102 0.128427 z " fill="rgb(245,195,195)" />
<path d="M0.000000 0.000000 L1.000000 0.000000 L1.000000 1.000000 L0.000000 1.000000  z" fill="none" stroke="rgb(128,128,128)" stroke-width="0.01" />
<line x1="0.406008" y1="0.0605577" x2="0.697112" y2="0.393984" style="stroke:rgb(246,147,147);stroke-width:0.01" />
<line x1="0.56293" y1="0.267" x2="0.697112" y2="0.393984" style="stroke:rgb(246,147,147);stroke-width:0.01" />
<line x1="0.323102" y1="0.128427" x2="0.609443" y2="0.478206" style="stroke:rgb(246,147,147);stroke-width:0.01" />
<line x1="0.301429" y1="0.157879" x2="0.604208" y2="0.483235" style="stroke:rgb(246,147,147);stroke-width:0.01" />
<line x1="0.389053" y1="0.266272" x2="0.604208" y2="0.483235" style="stroke:rgb(246,147,147);stroke-width:0.01" />
<line x1="0.370676" y1="0.266195" x2="0.609443" y2="0.478206" style="stroke:rgb(246,147,147);stroke-width:0.01" />
<line x1="0.198431" y1="0.416579" x2="0.289776" y2="0.521203" style="stroke:rgb(246,147,147);stroke-width:0.01" />
<line x1="0.211538" y1="0.442308" x2="0.289776" y2="0.521203" style="stroke:rgb(246,147,147);stroke-width:0.01" />
<line x1="0.406008" y1="0.0605577" x2="0.301429" y2="0.157879" style="stroke:rgb(246,147,147);stroke-width:0.01" />
<line x1="0.406008" y1="0.0605577" x2="0.323102" y2="0.128427" style="stroke:rgb(246,147,147);stroke-width:0.01" />
<line x1="0.370676" y1="0.266195" x2="0.56293" y2="0.267" style="stroke:rgb(246,147,147);stroke-width:0.01" />
<line x1="0.389053" y1="0.266272" x2="0.211538" y2="0.442308" style="stroke:rgb(246,147,147);stroke-width:0.01" />
<line x1="0.370676" y1="0.266195" x2="0.198431" y2="0.416579" style="stroke:rgb(246,147,147);stroke-width:0.01" />
<line x1="0.56293" y1="0.267" x2="0.289776" y2="0.521203" style="stroke:rgb(246,147,147);stroke-width:0.01" />
<line x1="0.697112" y1="0.393984" x2="0.604208" y2="0.483235" style="stroke:rgb(246,147,147);stroke-width:0.01" />
</g>
</svg>
