<svg xmlns="http://www.w3.org/2000/svg" viewBox="-1.5 -1.5 3 3">
<g transform="scale(1, -1)">
<path d="M0.148560 -0.077863 L0.261091 0.000000 L0.367607 0.000000 L0.421756 0.111168 L0.483005 0.153547 L0.500713 0.128358 L0.518633 0.024045 L0.613762 -0.065465 L0.627047 -0.051346 L0.649036 0.257326 L0.618601 0.284048 L0.664268 0.291488 L0.751649 0.293683 L0.751347 0.305676 L0.526408 0.492119 L0.371027 0.436718 L0.324561 0.438596 L0.312672 0.415912 L0.101050 0.340458 L0.105199 0.140501 L0.169018 0.141825 L0.094685 0.000000 z " fill="rgb(245,195,195)" />
<path d="M0.000000 0.000000 L1.000000 0.000000 L1.000000 1.000000 L0.000000 1.000000  z" fill="none" stroke="rgb(128,128,128)" stroke-width="0.01" />
<line x1="0.613762" y1="-0.0654652" x2="0.627047" y2="-0.0513456" style="stroke:rgb(246,147,147);stroke-width:0.01" />
<line x1="0.518633" y1="0.0240447" x2="0.641964" y2="0.263535" style="stroke:rgb(246,147,147);stroke-width:0.01" />
<line x1="0.367607" y1="0" x2="0.54386" y2="0.361842" style="stroke:rgb(246,147,147);stroke-width:0.01" />
<line x1="0.4667" y1="0.187752" x2="0.54386" y2="0.361842" style="stroke:rgb(246,147,147);stroke-width:0.01" />
<line x1="0.476279" y1="0.26086" x2="0.522217" y2="0.368674" style="stroke:rgb(246,147,147);stroke-width:0.01" />
<line x1="0.14856" y1="-0.0778631" x2="0.641964" y2="0.263535" style="stroke:rgb(246,147,147);stroke-width:0.01" />
<line x1="0.4667" y1="0.187752" x2="0.526408" y2="0.492119" style="stroke:rgb(246,147,147);stroke-width:0.01" />
<line x1="0.288637" y1="0.144308" x2="0.399809" y2="0.44698" style="stroke:rgb(246,147,147);stroke-width:0.01" />
<line x1="0.387555" y1="0.289318" x2="0.423436" y2="0.455405" style="stroke:rgb(246,147,147);stroke-width:0.01" />
<line x1="0.627047" y1="-0.0513456" x2="0.649036" y2="0.257326" style="stroke:rgb(246,147,147);stroke-width:0.01" />
<line x1="0.0946847" y1="0" x2="0.324561" y2="0.438596" style="stroke:rgb(246,147,147);stroke-width:0.01" />
<line x1="0.13737" y1="0.278257" x2="0.168886" y2="0.364645" style="stroke:rgb(246,147,147);stroke-width:0.01" />
<line x1="0.0946847" y1="0" x2="0.367607" y2="0" style="stroke:rgb(246,147,147);stroke-width:0.01" />
<line x1="0.105199" y1="0.140501" x2="0.10105" y2="0.340458" style="stroke:rgb(246,147,147);stroke-width:0.01" />
<line x1="0.350242" y1="0.196494" x2="0.345564" y2="0.42764" style="stroke:rgb(246,147,147);stroke-width:0.01" />
<line x1="0.751649" y1="0.293683" x2="0.751347" y2="0.305676" style="stroke:rgb(246,147,147);stroke-width:0.01" />
<line x1="0.350242" y1="0.196494" x2="0.324561" y2="0.438596" style="stroke:rgb(246,147,147);stroke-width:0.01" />
<line x1="0.14856" y1="-0.0778631" x2="0.0946847" y2="0" style="stroke:rgb(246,147,147);stroke-width:0.01" />
<line x1="0.387555" y1="0.289318" x2="0.522217" y2="0.368674" style="stroke:rgb(246,147,147);stroke-width:0.01" />
<line x1="0.518633" y1="0.0240447" x2="0.448275" y2="0.433595" style="stroke:rgb(246,147,147);stroke-width:0.01" />
<line x1="0.350242" y1="0.196494" x2="0.649036" y2="0.257326" style="stroke:rgb(246,147,147);stroke-width:0.01" />
<line x1="0.105199" y1="0.140501" x2="0.288637" y2="0.144308" style="stroke:rgb(246,147,147);stroke-width:0.01" />
<line x1="0.367607" y1="0" x2="0.10105" y2="0.340458" style="stroke:rgb(246,147,147);stroke-width:0.01" />
<line x1="0.476279" y1="0.26086" x2="0.751347" y2="0.305676" style="stroke:rgb(246,147,147);stroke-width:0.01" />
<line x1="0.4667" y1="0.187752" x2="0.350242" y2="0.196494" style="stroke:rgb(246,147,147);stroke-width:0.01" />
<line x1="0.288637" y1="0.144308" x2="0.13737" y2="0.278257" style="stroke:rgb(246,147,147);stroke-width:0.01" />
<line x1="0.10105" y1="0.340458" x2="0.526408" y2="0.492119" style="stroke:rgb(246,147,147);stroke-width:0.01" />
<line x1="0.613762" y1="-0.0654652" x2="0.518633" y2="0.0240447" style="stroke:rgb(246,147,147);stroke-width:0.01" />
<line x1="0.13737" y1="0.278257" x2="0.751649" y2="0.293683" style="stroke:rgb(246,147,147);stroke-width:0.01" />
<line x1="0.627047" y1="-0.0513456" x2="0.387555" y2="0.289318" style="stroke:rgb(246,147,147);stroke-width:0.01" />
<line x1="0.476279" y1="0.26086" x2="0.345564" y2="0.42764" style="stroke:rgb(246,147,147);stroke-width:0.01" />
<line x1="0.4667" y1="0.187752" x2="0.168886" y2="0.364645" style="stroke:rgb(246,147,147);stroke-width:0.01" />
<line x1="0.448275" y1="0.433595" x2="0.324561" y2="0.438596" style="stroke:rgb(246,147,147);stroke-width:0.01" />
<line x1="0.649036" y1="0.257326" x2="0.423436" y2="0.455405" style="stroke:rgb(246,147,147);stroke-width:0.01" />
<line x1="0.54386" y1="0.361842" x2="0.324561" y2="0.438596" style="stroke:rgb(246,147,147);stroke-width:0.01" />
<line x1="0.54386" y1="0.361842" x2="0.399809" y2="0.44698" style="stroke:rgb(246,147,147);stroke-width:0.01" />
<line x1="0.751347" y1="0.305676" x2="0.526408" y2="0.492119" style="stroke:rgb(246,147,147);stroke-width:0.01" />
</g>
</svg>
