<svg xmlns="http://www.w3.org/2000/svg" viewBox="-1.5 -1.5 3 3">
<g transform="scale(1, -1)">
<path d="M-0.277881 -0.262445 L-0.165349 -0.184582 L-0.058834 -0.184582 L-0.004684 -0.073414 L0.056564 -0.031035 L0.074272 -0.056224 L0.092193 -0.160537 L0.187321 -0.250047 L0.200607 -0.235927 L0.222595 0.072744 L0.192160 0.099466 L0.237827 0.106907 L0.325208 0.109101 L0.324907 0.121094 L0.099967 0.307538 L-0.055414 0.252137 L-0.101879 0.254015 L-0.113769 0.231330 L-0.325391 0.155877 L-0.321241 -0.044080 L-0.257423 -0.042756 L-0.331756 -0.184582 z " fill="rgb(245,195,195)" />
<path d="M-0.426441 -0.184582 L0.573559 -0.184582 L0.573559 0.815418 L-0.426441 0.815418  z" fill="none" stroke="rgb(128,128,128)" stroke-width="0.01" />
<line x1="0.187321" y1="-0.250047" x2="0.200607" y2="-0.235927" style="stroke:rgb(246,147,147);stroke-width:0.01" />
<line x1="0.0921926" y1="-0.160537" x2="0.215524" y2="0.078953" style="stroke:rgb(246,147,147);stroke-width:0.01" />
<line x1="-0.0588341" y1="-0.184582" x2="0.117419" y2="0.177261" style="stroke:rgb(246,147,147);stroke-width:0.01" />
<line x1="0.0402592" y1="0.00316997" x2="0.117419" y2="0.177261" style="stroke:rgb(246,147,147);stroke-width:0.01" />
<line x1="0.0498387" y1="0.0762786" x2="0.095776" y2="0.184093" style="stroke:rgb(246,147,147);stroke-width:0.01" />
<line x1="-0.277881" y1="-0.262445" x2="0.215524" y2="0.078953" style="stroke:rgb(246,147,147);stroke-width:0.01" />
<line x1="0.0402592" y1="0.00316997" x2="0.0999669" y2="0.307538" style="stroke:rgb(246,147,147);stroke-width:0.01" />
<line x1="-0.137804" y1="-0.040274" x2="-0.0266319" y2="0.262399" style="stroke:rgb(246,147,147);stroke-width:0.01" />
<line x1="-0.0388855" y1="0.104737" x2="-0.00300457" y2="0.270823" style="stroke:rgb(246,147,147);stroke-width:0.01" />
<line x1="0.200607" y1="-0.235927" x2="0.222595" y2="0.072744" style="stroke:rgb(246,147,147);stroke-width:0.01" />
<line x1="-0.331756" y1="-0.184582" x2="-0.101879" y2="0.254015" style="stroke:rgb(246,147,147);stroke-width:0.01" />
<line x1="-0.289071" y1="0.0936754" x2="-0.257554" y2="0.180064" style="stroke:rgb(246,147,147);stroke-width:0.01" />
<line x1="-0.331756" y1="-0.184582" x2="-0.0588341" y2="-0.184582" style="stroke:rgb(246,147,147);stroke-width:0.01" />
<line x1="-0.321241" y1="-0.0440804" x2="-0.325391" y2="0.155877" style="stroke:rgb(246,147,147);stroke-width:0.01" />
<line x1="-0.0761984" y1="0.0119126" x2="-0.0808764" y2="0.243058" style="stroke:rgb(246,147,147);stroke-width:0.01" />
<line x1="0.325208" y1="0.109101" x2="0.324907" y2="0.121094" style="stroke:rgb(246,147,147);stroke-width:0.01" />
<line x1="-0.0761984" y1="0.0119126" x2="-0.101879" y2="0.254015" style="stroke:rgb(246,147,147);stroke-width:0.01" />
<line x1="-0.277881" y1="-0.262445" x2="-0.331756" y2="-0.184582" style="stroke:rgb(246,147,147);stroke-width:0.01" />
<line x1="-0.0388855" y1="0.104737" x2="0.095776" y2="0.184093" style="stroke:rgb(246,147,147);stroke-width:0.01" />
<line x1="0.0921926" y1="-0.160537" x2="0.0218348" y2="0.249014" style="stroke:rgb(246,147,147);stroke-width:0.01" />
<line x1="-0.0761984" y1="0.0119126" x2="0.222595" y2="0.072744" style="stroke:rgb(246,147,147);stroke-width:0.01" />
<line x1="-0.321241" y1="-0.0440804" x2="-0.137804" y2="-0.040274" style="stroke:rgb(246,147,147);stroke-width:0.01" />
<line x1="-0.0588341" y1="-0.184582" x2="-0.325391" y2="0.155877" style="stroke:rgb(246,147,147);stroke-width:0.01" />
<line x1="0.0498387" y1="0.0762786" x2="0.324907" y2="0.121094" style="stroke:rgb(246,147,147);stroke-width:0.01" />
<line x1="0.0402592" y1="0.00316997" x2="-0.0761984" y2="0.0119126" style="stroke:rgb(246,147,147);stroke-width:0.01" />
<line x1="-0.137804" y1="-0.040274" x2="-0.289071" y2="0.0936754" style="stroke:rgb(246,147,147);stroke-width:0.01" />
<line x1="-0.325391" y1="0.155877" x2="0.0999669" y2="0.307538" style="stroke:rgb(246,147,147);stroke-width:0.01" />
<line x1="0.187321" y1="-0.250047" x2="0.0921926" y2="-0.160537" style="stroke:rgb(246,147,147);stroke-width:0.01" />
<line x1="-0.289071" y1="0.0936754" x2="0.325208" y2="0.109101" style="stroke:rgb(246,147,147);stroke-width:0.01" />
<line x1="0.200607" y1="-0.235927" x2="-0.0388855" y2="0.104737" style="stroke:rgb(246,147,147);stroke-width:0.01" />
<line x1="0.0498387" y1="0.0762786" x2="-0.0808764" y2="0.243058" style="stroke:rgb(246,147,147);stroke-width:0.01" />
<line x1="0.0402592" y1="0.00316997" x2="-0.257554" y2="0.180064" style="stroke:rgb(246,147,147);stroke-width:0.01" />
<line x1="0.0218348" y1="0.249014" x2="-0.101879" y2="0.254015" style="stroke:rgb(246,147,147);stroke-width:0.01" />
<line x1="0.222595" y1="0.072744" x2="-0.00300457" y2="0.270823" style="stroke:rgb(246,147,147);stroke-width:0.01" />
<line x1="0.117419" y1="0.177261" x2="-0.101879" y2="0.254015" style="stroke:rgb(246,147,147);stroke-width:0.01" />
<line x1="0.117419" y1="0.177261" x2="-0.0266319" y2="0.262399" style="stroke:rgb(246,147,147);stroke-width:0.01" />
<line x1="0.324907" y1="0.121094" x2="0.0999669" y2="0.307538" style="stroke:rgb(246,147,147);stroke-width:0.01" />
</g>
</svg>
