<svg xmlns="http://www.w3.org/2000/svg" viewBox="-1.5 -1.5 3 3">
<g transform="scale(1, -1)">
<path d="M0.250825 -0.565381 L0.525988 -0.300110 L0.516771 -0.176447 L0.236401 -0.197343 L0.271493 -0.113122 L0.000000 -0.000000 L-0.096154 -0.230769 L0.090498 -0.547511 z M0.228584 -0.266963 L0.208333 -0.264706 L0.225368 -0.223822 z " fill="rgb(245,195,195)" />
<path d="M0.000000 0.000000 L1.000000 0.000000 L1.000000 1.000000 L0.000000 1.000000  z" fill="none" stroke="rgb(128,128,128)" stroke-width="0.01" />
<line x1="0.250825" y1="-0.565381" x2="0.0904977" y2="-0.547511" style="stroke:rgb(246,147,147);stroke-width:0.01" />
<line x1="0.250825" y1="-0.565381" x2="0.525988" y2="-0.30011" style="stroke:rgb(246,147,147);stroke-width:0.01" />
<line x1="0.470955" y1="-0.353164" x2="-0.0588235" y2="-0.294118" style="stroke:rgb(246,147,147);stroke-width:0.01" />
<line x1="0.525988" y1="-0.30011" x2="-0.0961538" y2="-0.230769" style="stroke:rgb(246,147,147);stroke-width:0.01" />
<line x1="0.223466" y1="-0.198308" x2="0.516771" y2="-0.176447" style="stroke:rgb(246,147,147);stroke-width:0.01" />
<line x1="0.0904977" y1="-0.547511" x2="0.271493" y2="-0.113122" style="stroke:rgb(246,147,147);stroke-width:0.01" />
<line x1="0.0904977" y1="-0.547511" x2="-0.0961538" y2="-0.230769" style="stroke:rgb(246,147,147);stroke-width:0.01" />
<line x1="-0.0588235" y1="-0.294118" x2="0.0542986" y2="-0.0226244" style="stroke:rgb(246,147,147);stroke-width:0.01" />
<line x1="-0.0961538" y1="-0.230769" x2="1.62732e-21" y2="-6.7805e-22" style="stroke:rgb(246,147,147);stroke-width:0.01" />
<line x1="-0.0961538" y1="-0.230769" x2="8.1366e-22" y2="-3.39025e-22" style="stroke:rgb(246,147,147);stroke-width:0.01" />
<line x1="0.271493" y1="-0.113122" x2="8.1366e-22" y2="-3.39025e-22" style="stroke:rgb(246,147,147);stroke-width:0.01" />
<line x1="1.62732e-21" y1="-6.7805e-22" x2="8.1366e-22" y2="-3.39025e-22" style="stroke:rgb(246,147,147);stroke-width:0.01" />
<line x1="0.250825" y1="-0.565381" x2="0.223466" y2="-0.198308" style="stroke:rgb(246,147,147);stroke-width:0.01" />
<line x1="0.470955" y1="-0.353164" x2="0.45811" y2="-0.180819" style="stroke:rgb(246,147,147);stroke-width:0.01" />
<line x1="0.525988" y1="-0.30011" x2="0.516771" y2="-0.176447" style="stroke:rgb(246,147,147);stroke-width:0.01" />
</g>
</svg>
