<svg xmlns="http://www.w3.org/2000/svg" viewBox="-1.5 -1.5 3 3">
<g transform="scale(1, -1)">
<path d="M0.288381 -0.265572 L0.430508 -0.025599 L0.129538 0.357167 L-0.017892 0.254657 L-0.006636 0.236502 L-0.090591 0.162108 L-0.057431 0.124686 L-0.091166 0.087781 L-0.055669 0.055334 L-0.107855 0.064022 L-0.165738 -0.105591 L-0.118418 -0.121740 L-0.129511 -0.170494 L-0.108102 -0.175365 L-0.108159 -0.230445 L0.208740 -0.247452 z " fill="rgb(245,195,195)" />
<path d="M0.649534 0.029052 L1.649534 0.029052 L1.649534 1.029052 L0.649534 1.029052  z" fill="none" stroke="rgb(128,128,128)" stroke-width="0.01" />
<line x1="0.290846" y1="-0.26141" x2="-0.165738" y2="-0.105591" style="stroke:rgb(246,147,147);stroke-width:0.01" />
<line x1="0.288381" y1="-0.265572" x2="-0.129511" y2="-0.170494" style="stroke:rgb(246,147,147);stroke-width:0.01" />
<line x1="0.290846" y1="-0.26141" x2="-0.0911655" y2="0.0877809" style="stroke:rgb(246,147,147);stroke-width:0.01" />
<line x1="0.288381" y1="-0.265572" x2="-0.0905912" y2="0.162108" style="stroke:rgb(246,147,147);stroke-width:0.01" />
<line x1="0.296329" y1="-0.252153" x2="-0.108159" y2="-0.230445" style="stroke:rgb(246,147,147);stroke-width:0.01" />
<line x1="0.296329" y1="-0.252153" x2="-0.0178918" y2="0.254657" style="stroke:rgb(246,147,147);stroke-width:0.01" />
<line x1="0.430508" y1="-0.0255986" x2="0.129538" y2="0.357167" style="stroke:rgb(246,147,147);stroke-width:0.01" />
<line x1="0.430508" y1="-0.0255986" x2="-0.107855" y2="0.0640216" style="stroke:rgb(246,147,147);stroke-width:0.01" />
<line x1="-0.108159" y1="-0.230445" x2="-0.107855" y2="0.0640216" style="stroke:rgb(246,147,147);stroke-width:0.01" />
<line x1="-0.108159" y1="-0.230445" x2="-0.0773106" y2="0.058937" style="stroke:rgb(246,147,147);stroke-width:0.01" />
<line x1="0.288381" y1="-0.265572" x2="0.430508" y2="-0.0255986" style="stroke:rgb(246,147,147);stroke-width:0.01" />
<line x1="-0.129511" y1="-0.170494" x2="-0.0773106" y2="0.058937" style="stroke:rgb(246,147,147);stroke-width:0.01" />
<line x1="-0.165738" y1="-0.105591" x2="-0.107855" y2="0.0640216" style="stroke:rgb(246,147,147);stroke-width:0.01" />
<line x1="-0.0911655" y1="0.0877809" x2="0.141348" y2="0.342149" style="stroke:rgb(246,147,147);stroke-width:0.01" />
<line x1="-0.0905912" y1="0.162108" x2="0.129538" y2="0.357167" style="stroke:rgb(246,147,147);stroke-width:0.01" />
<line x1="-0.0178918" y1="0.254657" x2="0.141348" y2="0.342149" style="stroke:rgb(246,147,147);stroke-width:0.01" />
<line x1="-0.0178918" y1="0.254657" x2="0.129538" y2="0.357167" style="stroke:rgb(246,147,147);stroke-width:0.01" />
</g>
</svg>
