<svg xmlns="http://www.w3.org/2000/svg" viewBox="-1.5 -1.5 3 3">
<g transform="scale(1, -1)">
<path d="M-0.361152 -0.294624 L-0.219025 -0.054651 L-0.519995 0.328115 L-0.667425 0.225605 L-0.656169 0.207450 L-0.740125 0.133056 L-0.706965 0.095634 L-0.740699 0.058729 L-0.705203 0.026282 L-0.757388 0.034970 L-0.815272 -0.134643 L-0.767952 -0.150792 L-0.779044 -0.199546 L-0.757636 -0.204417 L-0.757692 -0.259497 L-0.440793 -0.276504 z " fill="rgb(245,195,195)" />
<path d="M0.000000 0.000000 L1.000000 0.000000 L1.000000 1.000000 L0.000000 1.000000  z" fill="none" stroke="rgb(128,128,128)" stroke-width="0.01" />
<line x1="-0.358687" y1="-0.290462" x2="-0.815272" y2="-0.134643" style="stroke:rgb(246,147,147);stroke-width:0.01" />
<line x1="-0.361152" y1="-0.294624" x2="-0.779044" y2="-0.199546" style="stroke:rgb(246,147,147);stroke-width:0.01" />
<line x1="-0.358687" y1="-0.290462" x2="-0.740699" y2="0.0587289" style="stroke:rgb(246,147,147);stroke-width:0.01" />
<line x1="-0.361152" y1="-0.294624" x2="-0.740125" y2="0.133056" style="stroke:rgb(246,147,147);stroke-width:0.01" />
<line x1="-0.353205" y1="-0.281205" x2="-0.757692" y2="-0.259497" style="stroke:rgb(246,147,147);stroke-width:0.01" />
<line x1="-0.353205" y1="-0.281205" x2="-0.667425" y2="0.225605" style="stroke:rgb(246,147,147);stroke-width:0.01" />
<line x1="-0.219025" y1="-0.0546506" x2="-0.519995" y2="0.328115" style="stroke:rgb(246,147,147);stroke-width:0.01" />
<line x1="-0.219025" y1="-0.0546506" x2="-0.757388" y2="0.0349696" style="stroke:rgb(246,147,147);stroke-width:0.01" />
<line x1="-0.757692" y1="-0.259497" x2="-0.757388" y2="0.0349696" style="stroke:rgb(246,147,147);stroke-width:0.01" />
<line x1="-0.757692" y1="-0.259497" x2="-0.726844" y2="0.029885" style="stroke:rgb(246,147,147);stroke-width:0.01" />
<line x1="-0.361152" y1="-0.294624" x2="-0.219025" y2="-0.0546506" style="stroke:rgb(246,147,147);stroke-width:0.01" />
<line x1="-0.779044" y1="-0.199546" x2="-0.726844" y2="0.029885" style="stroke:rgb(246,147,147);stroke-width:0.01" />
<line x1="-0.815272" y1="-0.134643" x2="-0.757388" y2="0.0349696" style="stroke:rgb(246,147,147);stroke-width:0.01" />
<line x1="-0.740699" y1="0.0587289" x2="-0.508186" y2="0.313097" style="stroke:rgb(246,147,147);stroke-width:0.01" />
<line x1="-0.740125" y1="0.133056" x2="-0.519995" y2="0.328115" style="stroke:rgb(246,147,147);stroke-width:0.01" />
<line x1="-0.667425" y1="0.225605" x2="-0.508186" y2="0.313097" style="stroke:rgb(246,147,147);stroke-width:0.01" />
<line x1="-0.667425" y1="0.225605" x2="-0.519995" y2="0.328115" style="stroke:rgb(246,147,147);stroke-width:0.01" />
</g>
</svg>
