<svg xmlns="http://www.w3.org/2000/svg" viewBox="-1.5 -1.5 3 3">
<g transform="scale(1, -1)">
<path d="M0.586451 -0.048006 L0.796708 0.154548 L0.741838 0.224204 L0.869939 0.672868 L0.769179 0.701637 L0.660882 0.615202 L0.678528 0.724164 L0.481100 0.756137 L0.335667 0.478351 L0.142728 0.412590 L0.103246 0.054320 L0.167482 0.047241 L0.353346 0.193963 z " fill="rgb(245,195,195)" />
<path d="M0.000000 0.000000 L1.000000 0.000000 L1.000000 1.000000 L0.000000 1.000000  z" fill="none" stroke="rgb(128,128,128)" stroke-width="0.01" />
<line x1="0.586451" y1="-0.0480063" x2="0.796708" y2="0.154548" style="stroke:rgb(246,147,147);stroke-width:0.01" />
<line x1="0.705607" y1="0.0964533" x2="0.70578" y2="0.0967611" style="stroke:rgb(246,147,147);stroke-width:0.01" />
<line x1="0.705607" y1="0.0964533" x2="0.796708" y2="0.154548" style="stroke:rgb(246,147,147);stroke-width:0.01" />
<line x1="0.705415" y1="0.0966349" x2="0.869939" y2="0.672868" style="stroke:rgb(246,147,147);stroke-width:0.01" />
<line x1="0.705415" y1="0.0966349" x2="0.70578" y2="0.0967611" style="stroke:rgb(246,147,147);stroke-width:0.01" />
<line x1="0.474013" y1="0.315754" x2="0.508772" y2="0.388158" style="stroke:rgb(246,147,147);stroke-width:0.01" />
<line x1="0.479801" y1="0.310273" x2="0.508772" y2="0.388158" style="stroke:rgb(246,147,147);stroke-width:0.01" />
<line x1="0.653266" y1="0.568173" x2="0.678528" y2="0.724164" style="stroke:rgb(246,147,147);stroke-width:0.01" />
<line x1="0.167482" y1="0.0472412" x2="0.5844" y2="0.37636" style="stroke:rgb(246,147,147);stroke-width:0.01" />
<line x1="0.387882" y1="0.397313" x2="0.41886" y2="0.440789" style="stroke:rgb(246,147,147);stroke-width:0.01" />
<line x1="0.185558" y1="0.191634" x2="0.4811" y2="0.756137" style="stroke:rgb(246,147,147);stroke-width:0.01" />
<line x1="0.167482" y1="0.0472412" x2="0.185558" y2="0.191634" style="stroke:rgb(246,147,147);stroke-width:0.01" />
<line x1="0.103246" y1="0.0543202" x2="0.142728" y2="0.41259" style="stroke:rgb(246,147,147);stroke-width:0.01" />
<line x1="0.381432" y1="0.40342" x2="0.498044" y2="0.533696" style="stroke:rgb(246,147,147);stroke-width:0.01" />
<line x1="0.381432" y1="0.40342" x2="0.41886" y2="0.440789" style="stroke:rgb(246,147,147);stroke-width:0.01" />
<line x1="0.185558" y1="0.191634" x2="0.632433" y2="0.592133" style="stroke:rgb(246,147,147);stroke-width:0.01" />
<line x1="0.474013" y1="0.315754" x2="0.5844" y2="0.37636" style="stroke:rgb(246,147,147);stroke-width:0.01" />
<line x1="0.783324" y1="0.442421" x2="0.769179" y2="0.701637" style="stroke:rgb(246,147,147);stroke-width:0.01" />
<line x1="0.387882" y1="0.397313" x2="0.769179" y2="0.701637" style="stroke:rgb(246,147,147);stroke-width:0.01" />
<line x1="0.167482" y1="0.0472412" x2="0.103246" y2="0.0543202" style="stroke:rgb(246,147,147);stroke-width:0.01" />
<line x1="0.479801" y1="0.310273" x2="0.783324" y2="0.442421" style="stroke:rgb(246,147,147);stroke-width:0.01" />
<line x1="0.350574" y1="0.432641" x2="0.335255" y2="0.477565" style="stroke:rgb(246,147,147);stroke-width:0.01" />
<line x1="0.586451" y1="-0.0480063" x2="0.142728" y2="0.41259" style="stroke:rgb(246,147,147);stroke-width:0.01" />
<line x1="0.142728" y1="0.41259" x2="0.498044" y2="0.533696" style="stroke:rgb(246,147,147);stroke-width:0.01" />
<line x1="0.5844" y1="0.37636" x2="0.498044" y2="0.533696" style="stroke:rgb(246,147,147);stroke-width:0.01" />
<line x1="0.335255" y1="0.477565" x2="0.653266" y2="0.568173" style="stroke:rgb(246,147,147);stroke-width:0.01" />
<line x1="0.70578" y1="0.0967611" x2="0.41886" y2="0.440789" style="stroke:rgb(246,147,147);stroke-width:0.01" />
<line x1="0.705607" y1="0.0964533" x2="0.350574" y2="0.432641" style="stroke:rgb(246,147,147);stroke-width:0.01" />
<line x1="0.5844" y1="0.37636" x2="0.402726" y2="0.606437" style="stroke:rgb(246,147,147);stroke-width:0.01" />
<line x1="0.796708" y1="0.154548" x2="0.498044" y2="0.533696" style="stroke:rgb(246,147,147);stroke-width:0.01" />
<line x1="0.508772" y1="0.388158" x2="0.350574" y2="0.432641" style="stroke:rgb(246,147,147);stroke-width:0.01" />
<line x1="0.508772" y1="0.388158" x2="0.41886" y2="0.440789" style="stroke:rgb(246,147,147);stroke-width:0.01" />
<line x1="0.653266" y1="0.568173" x2="0.632433" y2="0.592133" style="stroke:rgb(246,147,147);stroke-width:0.01" />
<line x1="0.783324" y1="0.442421" x2="0.4811" y2="0.756137" style="stroke:rgb(246,147,147);stroke-width:0.01" />
<line x1="0.632433" y1="0.592133" x2="0.402726" y2="0.606437" style="stroke:rgb(246,147,147);stroke-width:0.01" />
<line x1="0.678528" y1="0.724164" x2="0.4811" y2="0.756137" style="stroke:rgb(246,147,147);stroke-width:0.01" />
<line x1="0.869939" y1="0.672868" x2="0.769179" y2="0.701637" style="stroke:rgb(246,147,147);stroke-width:0.01" />
</g>
</svg>
