<svg xmlns="http://www.w3.org/2000/svg" viewBox="-1.5 -1.5 3 3">
<g transform="scale(1, -1)">
<path d="M0.119032 -0.207228 L0.136936 -0.160544 L0.185242 -0.173449 L0.300347 0.257409 L0.200549 0.354396 L0.019231 0.278846 L-0.059295 0.088141 L-0.024291 -0.010121 L0.001068 -0.002564 L0.011218 -0.026923 L0.059865 -0.012426 L0.002321 -0.162467 z M0.098558 0.088462 L0.072368 0.151316 L0.134006 0.180891 z " fill="rgb(245,195,195)" />
<path d="M0.000000 0.000000 L1.000000 0.000000 L1.000000 1.000000 L0.000000 1.000000  z" fill="none" stroke="rgb(128,128,128)" stroke-width="0.01" />
<line x1="0.127487" y1="-0.185183" x2="0.00605106" y2="-0.152741" style="stroke:rgb(246,147,147);stroke-width:0.01" />
<line x1="0.119032" y1="-0.207228" x2="0.00232095" y2="-0.162467" style="stroke:rgb(246,147,147);stroke-width:0.01" />
<line x1="0.0944611" y1="-0.197805" x2="0.00605106" y2="-0.152741" style="stroke:rgb(246,147,147);stroke-width:0.01" />
<line x1="0.185242" y1="-0.173449" x2="0.0155007" y2="-0.128102" style="stroke:rgb(246,147,147);stroke-width:0.01" />
<line x1="0.127487" y1="-0.185183" x2="0.0155007" y2="-0.128102" style="stroke:rgb(246,147,147);stroke-width:0.01" />
<line x1="0.0944611" y1="-0.197805" x2="0.298077" y2="0.259615" style="stroke:rgb(246,147,147);stroke-width:0.01" />
<line x1="0.119032" y1="-0.207228" x2="0.298077" y2="0.259615" style="stroke:rgb(246,147,147);stroke-width:0.01" />
<line x1="0.185242" y1="-0.173449" x2="0.300347" y2="0.257409" style="stroke:rgb(246,147,147);stroke-width:0.01" />
<line x1="0.0701232" y1="-0.0246494" x2="0.131677" y2="0.00897436" style="stroke:rgb(246,147,147);stroke-width:0.01" />
<line x1="0.0112179" y1="-0.0269231" x2="0.131677" y2="0.00897436" style="stroke:rgb(246,147,147);stroke-width:0.01" />
<line x1="0.0112179" y1="-0.0269231" x2="0.121528" y2="0.0333333" style="stroke:rgb(246,147,147);stroke-width:0.01" />
<line x1="0.00232095" y1="-0.162467" x2="0.200549" y2="0.354396" style="stroke:rgb(246,147,147);stroke-width:0.01" />
<line x1="-0.0242915" y1="-0.0101215" x2="-0.0592949" y2="0.088141" style="stroke:rgb(246,147,147);stroke-width:0.01" />
<line x1="-0.0242915" y1="-0.0101215" x2="0.121528" y2="0.0333333" style="stroke:rgb(246,147,147);stroke-width:0.01" />
<line x1="-0.0242915" y1="-0.0101215" x2="0.115385" y2="0.0480769" style="stroke:rgb(246,147,147);stroke-width:0.01" />
<line x1="0.0112179" y1="-0.0269231" x2="-0.0480769" y2="0.115385" style="stroke:rgb(246,147,147);stroke-width:0.01" />
<line x1="0.0701232" y1="-0.0246494" x2="-0.0301508" y2="0.15892" style="stroke:rgb(246,147,147);stroke-width:0.01" />
<line x1="-0.0592949" y1="0.088141" x2="0.0192308" y2="0.278846" style="stroke:rgb(246,147,147);stroke-width:0.01" />
<line x1="0.131677" y1="0.00897436" x2="0.0192308" y2="0.278846" style="stroke:rgb(246,147,147);stroke-width:0.01" />
<line x1="-0.0592949" y1="0.088141" x2="0.298077" y2="0.259615" style="stroke:rgb(246,147,147);stroke-width:0.01" />
<line x1="-0.0480769" y1="0.115385" x2="0.298077" y2="0.259615" style="stroke:rgb(246,147,147);stroke-width:0.01" />
<line x1="-0.0301508" y1="0.15892" x2="0.300347" y2="0.257409" style="stroke:rgb(246,147,147);stroke-width:0.01" />
<line x1="0.0192308" y1="0.278846" x2="0.200549" y2="0.354396" style="stroke:rgb(246,147,147);stroke-width:0.01" />
<line x1="0.300347" y1="0.257409" x2="0.200549" y2="0.354396" style="stroke:rgb(246,147,147);stroke-width:0.01" />
</g>
</svg>
