<svg xmlns="http://www.w3.org/2000/svg" viewBox="-1.5 -1.5 3 3">
<g transform="scale(1, -1)">
<path d="M0.035221 -0.250144 L0.053126 -0.203460 L0.101432 -0.216365 L0.216536 0.214493 L0.116739 0.311480 L-0.064580 0.235930 L-0.143105 0.045225 L-0.108102 -0.053037 L-0.082742 -0.045480 L-0.072592 -0.069839 L-0.023945 -0.055342 L-0.081489 -0.205383 z M0.014747 0.045546 L-0.011442 0.108400 L0.050196 0.137975 z " fill="rgb(245,195,195)" />
<path d="M-0.083810 -0.042916 L0.916190 -0.042916 L0.916190 0.957084 L-0.083810 0.957084  z" fill="none" stroke="rgb(128,128,128)" stroke-width="0.01" />
<line x1="0.0436763" y1="-0.228099" x2="-0.0777593" y2="-0.195657" style="stroke:rgb(246,147,147);stroke-width:0.01" />
<line x1="0.0352214" y1="-0.250144" x2="-0.0814894" y2="-0.205383" style="stroke:rgb(246,147,147);stroke-width:0.01" />
<line x1="0.0106507" y1="-0.240721" x2="-0.0777593" y2="-0.195657" style="stroke:rgb(246,147,147);stroke-width:0.01" />
<line x1="0.101432" y1="-0.216365" x2="-0.0683097" y2="-0.171018" style="stroke:rgb(246,147,147);stroke-width:0.01" />
<line x1="0.0436763" y1="-0.228099" x2="-0.0683097" y2="-0.171018" style="stroke:rgb(246,147,147);stroke-width:0.01" />
<line x1="0.0106507" y1="-0.240721" x2="0.214267" y2="0.216699" style="stroke:rgb(246,147,147);stroke-width:0.01" />
<line x1="0.0352214" y1="-0.250144" x2="0.214267" y2="0.216699" style="stroke:rgb(246,147,147);stroke-width:0.01" />
<line x1="0.101432" y1="-0.216365" x2="0.216536" y2="0.214493" style="stroke:rgb(246,147,147);stroke-width:0.01" />
<line x1="-0.0136872" y1="-0.0675653" x2="0.0478669" y2="-0.0339415" style="stroke:rgb(246,147,147);stroke-width:0.01" />
<line x1="-0.0725925" y1="-0.069839" x2="0.0478669" y2="-0.0339415" style="stroke:rgb(246,147,147);stroke-width:0.01" />
<line x1="-0.0725925" y1="-0.069839" x2="0.0377174" y2="-0.00958255" style="stroke:rgb(246,147,147);stroke-width:0.01" />
<line x1="-0.0814894" y1="-0.205383" x2="0.116739" y2="0.31148" style="stroke:rgb(246,147,147);stroke-width:0.01" />
<line x1="-0.108102" y1="-0.0530373" x2="-0.143105" y2="0.0452251" style="stroke:rgb(246,147,147);stroke-width:0.01" />
<line x1="-0.108102" y1="-0.0530373" x2="0.0377174" y2="-0.00958255" style="stroke:rgb(246,147,147);stroke-width:0.01" />
<line x1="-0.108102" y1="-0.0530373" x2="0.0315742" y2="0.00516104" style="stroke:rgb(246,147,147);stroke-width:0.01" />
<line x1="-0.0725925" y1="-0.069839" x2="-0.131887" y2="0.0724687" style="stroke:rgb(246,147,147);stroke-width:0.01" />
<line x1="-0.0136872" y1="-0.0675653" x2="-0.113961" y2="0.116004" style="stroke:rgb(246,147,147);stroke-width:0.01" />
<line x1="-0.143105" y1="0.0452251" x2="-0.0645796" y2="0.23593" style="stroke:rgb(246,147,147);stroke-width:0.01" />
<line x1="0.0478669" y1="-0.0339415" x2="-0.0645796" y2="0.23593" style="stroke:rgb(246,147,147);stroke-width:0.01" />
<line x1="-0.143105" y1="0.0452251" x2="0.214267" y2="0.216699" style="stroke:rgb(246,147,147);stroke-width:0.01" />
<line x1="-0.131887" y1="0.0724687" x2="0.214267" y2="0.216699" style="stroke:rgb(246,147,147);stroke-width:0.01" />
<line x1="-0.113961" y1="0.116004" x2="0.216536" y2="0.214493" style="stroke:rgb(246,147,147);stroke-width:0.01" />
<line x1="-0.0645796" y1="0.23593" x2="0.116739" y2="0.31148" style="stroke:rgb(246,147,147);stroke-width:0.01" />
<line x1="0.216536" y1="0.214493" x2="0.116739" y2="0.31148" style="stroke:rgb(246,147,147);stroke-width:0.01" />
</g>
</svg>
