<svg xmlns="http://www.w3.org/2000/svg" viewBox="-1.5 -1.5 3 3">
<g transform="scale(1, -1)">
<path d="M2.817550 -3.109912 L2.814087 -3.066095 L3.562041 -3.102307 L3.596071 -2.399427 L3.204420 -2.217311 L3.055161 -2.178625 L2.782320 -2.664088 L2.695132 -3.060336 z " fill="rgb(245,195,195)" />
<path d="M0.000000 0.000000 L1.000000 0.000000 L1.000000 1.000000 L0.000000 1.000000  z" fill="none" stroke="rgb(128,128,128)" stroke-width="0.01" />
<line x1="2.71987" y1="-2.94789" x2="3.39129" y2="-2.49334" style="stroke:rgb(246,147,147);stroke-width:0.01" />
<line x1="3.37901" y1="-2.6011" x2="3.59607" y2="-2.39943" style="stroke:rgb(246,147,147);stroke-width:0.01" />
<line x1="3.56204" y1="-3.10231" x2="2.69513" y2="-3.06034" style="stroke:rgb(246,147,147);stroke-width:0.01" />
<line x1="3.03867" y1="-2.23481" x2="3.20442" y2="-2.21731" style="stroke:rgb(246,147,147);stroke-width:0.01" />
<line x1="3.20442" y1="-2.21731" x2="3.0553" y2="-2.20656" style="stroke:rgb(246,147,147);stroke-width:0.01" />
<line x1="2.78232" y1="-2.66409" x2="3.05516" y2="-2.17863" style="stroke:rgb(246,147,147);stroke-width:0.01" />
<line x1="2.81755" y1="-3.10991" x2="2.69513" y2="-3.06034" style="stroke:rgb(246,147,147);stroke-width:0.01" />
<line x1="3.20442" y1="-2.21731" x2="3.05516" y2="-2.17863" style="stroke:rgb(246,147,147);stroke-width:0.01" />
<line x1="3.03867" y1="-2.23481" x2="3.05932" y2="-2.1797" style="stroke:rgb(246,147,147);stroke-width:0.01" />
<line x1="2.69513" y1="-3.06034" x2="2.78232" y2="-2.66409" style="stroke:rgb(246,147,147);stroke-width:0.01" />
<line x1="3.59607" y1="-2.39943" x2="3.20442" y2="-2.21731" style="stroke:rgb(246,147,147);stroke-width:0.01" />
<line x1="3.0553" y1="-2.20656" x2="3.05932" y2="-2.1797" style="stroke:rgb(246,147,147);stroke-width:0.01" />
<line x1="3.56204" y1="-3.10231" x2="3.59607" y2="-2.39943" style="stroke:rgb(246,147,147);stroke-width:0.01" />
<line x1="3.0553" y1="-2.20656" x2="3.05516" y2="-2.17863" style="stroke:rgb(246,147,147);stroke-width:0.01" />
<line x1="2.81755" y1="-3.10991" x2="2.78232" y2="-2.66409" style="stroke:rgb(246,147,147);stroke-width:0.01" />
<line x1="2.81755" y1="-3.10991" x2="2.71987" y2="-2.94789" style="stroke:rgb(246,147,147);stroke-width:0.01" />
<line x1="3.37901" y1="-2.6011" x2="3.03867" y2="-2.23481" style="stroke:rgb(246,147,147);stroke-width:0.01" />
<line x1="3.39129" y1="-2.49334" x2="3.20442" y2="-2.21731" style="stroke:rgb(246,147,147);stroke-width:0.01" />
</g>
</svg>
