<svg xmlns="http://www.w3.org/2000/svg" viewBox="-1.5 -1.5 3 3">
<g transform="scale(1, -1)">
<path d="M0.150851 0.000000 L0.334997 0.000000 L0.494181 0.331364 L0.438657 0.382111 L0.280893 0.239391 L0.163983 0.355988 L0.137766 0.410561 L0.104445 0.415367 L0.000000 0.206477 L0.009892 0.193251 L0.007875 0.189824 z M0.263286 0.149276 L0.246700 0.183800 L0.285375 0.206860 L0.306680 0.206889 z M0.238443 0.200989 L0.235655 0.206794 L0.244873 0.206806 z M0.309598 0.210763 L0.302984 0.217360 L0.324009 0.229897 z " fill="rgb(245,195,195)" />
<path d="M0.000000 0.000000 L1.000000 0.000000 L1.000000 1.000000 L0.000000 1.000000  z" fill="none" stroke="rgb(128,128,128)" stroke-width="0.01" />
<line x1="0.334997" y1="0" x2="0.494181" y2="0.331364" style="stroke:rgb(246,147,147);stroke-width:0.01" />
<line x1="0.154425" y1="0" x2="0.439579" y2="0.381269" style="stroke:rgb(246,147,147);stroke-width:0.01" />
<line x1="0.153011" y1="0" x2="0.439213" y2="0.381603" style="stroke:rgb(246,147,147);stroke-width:0.01" />
<line x1="0.150851" y1="0" x2="0.438657" y2="0.382111" style="stroke:rgb(246,147,147);stroke-width:0.01" />
<line x1="0.166739" y1="0.136123" x2="0.438657" y2="0.382111" style="stroke:rgb(246,147,147);stroke-width:0.01" />
<line x1="0.166739" y1="0.136123" x2="0.439213" y2="0.381603" style="stroke:rgb(246,147,147);stroke-width:0.01" />
<line x1="0.166739" y1="0.136123" x2="0.439579" y2="0.381269" style="stroke:rgb(246,147,147);stroke-width:0.01" />
<line x1="0.150851" y1="0" x2="0.334997" y2="0" style="stroke:rgb(246,147,147);stroke-width:0.01" />
<line x1="0.166739" y1="0.136123" x2="0.494181" y2="0.331364" style="stroke:rgb(246,147,147);stroke-width:0.01" />
<line x1="0" y1="0.206477" x2="0.104445" y2="0.415367" style="stroke:rgb(246,147,147);stroke-width:0.01" />
<line x1="0.00787514" y1="0.189824" x2="0.137766" y2="0.410561" style="stroke:rgb(246,147,147);stroke-width:0.01" />
<line x1="0.0592613" y1="0.125" x2="0.21782" y2="0.243919" style="stroke:rgb(246,147,147);stroke-width:0.01" />
<line x1="0.150851" y1="0" x2="0.00787514" y2="0.189824" style="stroke:rgb(246,147,147);stroke-width:0.01" />
<line x1="0.153011" y1="0" x2="0.0592613" y2="0.125" style="stroke:rgb(246,147,147);stroke-width:0.01" />
<line x1="0.154425" y1="0" x2="0" y2="0.206477" style="stroke:rgb(246,147,147);stroke-width:0.01" />
<line x1="0.334997" y1="0" x2="0.137766" y2="0.410561" style="stroke:rgb(246,147,147);stroke-width:0.01" />
<line x1="0.00787514" y1="0.189824" x2="0.21782" y2="0.243919" style="stroke:rgb(246,147,147);stroke-width:0.01" />
<line x1="0" y1="0.206477" x2="0.313474" y2="0.206898" style="stroke:rgb(246,147,147);stroke-width:0.01" />
<line x1="0.313474" y1="0.206898" x2="0.104445" y2="0.415367" style="stroke:rgb(246,147,147);stroke-width:0.01" />
<line x1="0.137766" y1="0.410561" x2="0.104445" y2="0.415367" style="stroke:rgb(246,147,147);stroke-width:0.01" />
<line x1="0.494181" y1="0.331364" x2="0.438657" y2="0.382111" style="stroke:rgb(246,147,147);stroke-width:0.01" />
</g>
</svg>
