<svg xmlns="http://www.w3.org/2000/svg" viewBox="-1.5 -1.5 3 3">
<g transform="scale(1, -1)">
<path d="M-0.081584 -0.225894 L0.102561 -0.225894 L0.261746 0.105470 L0.206222 0.156217 L0.048458 0.013497 L-0.068453 0.130095 L-0.094669 0.184667 L-0.127991 0.189473 L-0.232435 -0.019416 L-0.222544 -0.032642 L-0.224560 -0.036070 z M0.030850 -0.076618 L0.014265 -0.042093 L0.052939 -0.019033 L0.074244 -0.019005 z M0.006008 -0.024905 L0.003219 -0.019100 L0.012438 -0.019088 z M0.077163 -0.015130 L0.070548 -0.008534 L0.091574 0.004003 z " fill="rgb(245,195,195)" />
<path d="M-0.232435 -0.225894 L0.767565 -0.225894 L0.767565 0.774106 L-0.232435 0.774106  z" fill="none" stroke="rgb(128,128,128)" stroke-width="0.01" />
<line x1="0.102561" y1="-0.225894" x2="0.261746" y2="0.10547" style="stroke:rgb(246,147,147);stroke-width:0.01" />
<line x1="-0.0780099" y1="-0.225894" x2="0.207143" y2="0.155375" style="stroke:rgb(246,147,147);stroke-width:0.01" />
<line x1="-0.079424" y1="-0.225894" x2="0.206778" y2="0.155709" style="stroke:rgb(246,147,147);stroke-width:0.01" />
<line x1="-0.0815844" y1="-0.225894" x2="0.206222" y2="0.156217" style="stroke:rgb(246,147,147);stroke-width:0.01" />
<line x1="-0.0656964" y1="-0.0897712" x2="0.206222" y2="0.156217" style="stroke:rgb(246,147,147);stroke-width:0.01" />
<line x1="-0.0656964" y1="-0.0897712" x2="0.206778" y2="0.155709" style="stroke:rgb(246,147,147);stroke-width:0.01" />
<line x1="-0.0656964" y1="-0.0897712" x2="0.207143" y2="0.155375" style="stroke:rgb(246,147,147);stroke-width:0.01" />
<line x1="-0.0815844" y1="-0.225894" x2="0.102561" y2="-0.225894" style="stroke:rgb(246,147,147);stroke-width:0.01" />
<line x1="-0.0656964" y1="-0.0897712" x2="0.261746" y2="0.10547" style="stroke:rgb(246,147,147);stroke-width:0.01" />
<line x1="-0.232435" y1="-0.0194164" x2="-0.127991" y2="0.189473" style="stroke:rgb(246,147,147);stroke-width:0.01" />
<line x1="-0.22456" y1="-0.0360695" x2="-0.0946689" y2="0.184667" style="stroke:rgb(246,147,147);stroke-width:0.01" />
<line x1="-0.173174" y1="-0.100894" x2="-0.0146154" y2="0.0180251" style="stroke:rgb(246,147,147);stroke-width:0.01" />
<line x1="-0.0815844" y1="-0.225894" x2="-0.22456" y2="-0.0360695" style="stroke:rgb(246,147,147);stroke-width:0.01" />
<line x1="-0.079424" y1="-0.225894" x2="-0.173174" y2="-0.100894" style="stroke:rgb(246,147,147);stroke-width:0.01" />
<line x1="-0.0780099" y1="-0.225894" x2="-0.232435" y2="-0.0194164" style="stroke:rgb(246,147,147);stroke-width:0.01" />
<line x1="0.102561" y1="-0.225894" x2="-0.0946689" y2="0.184667" style="stroke:rgb(246,147,147);stroke-width:0.01" />
<line x1="-0.22456" y1="-0.0360695" x2="-0.0146154" y2="0.0180251" style="stroke:rgb(246,147,147);stroke-width:0.01" />
<line x1="-0.232435" y1="-0.0194164" x2="0.0810383" y2="-0.0189957" style="stroke:rgb(246,147,147);stroke-width:0.01" />
<line x1="0.0810383" y1="-0.0189957" x2="-0.127991" y2="0.189473" style="stroke:rgb(246,147,147);stroke-width:0.01" />
<line x1="-0.0946689" y1="0.184667" x2="-0.127991" y2="0.189473" style="stroke:rgb(246,147,147);stroke-width:0.01" />
<line x1="0.261746" y1="0.10547" x2="0.206222" y2="0.156217" style="stroke:rgb(246,147,147);stroke-width:0.01" />
</g>
</svg>
