<svg xmlns="http://www.w3.org/2000/svg" viewBox="-1.5 -1.5 3 3">
<g transform="scale(1, -1)">
<path d="M1.233731 0.105482 L1.234917 0.106227 L1.580769 0.946154 L1.500350 1.139161 L1.238955 1.273176 L1.167949 1.243590 L1.232051 1.089744 L1.386264 1.026244 L1.226658 0.989125 L1.244083 0.914201 L1.173077 0.884615 L1.301282 0.576923 L1.188914 0.304029 L1.208468 0.219952 L1.192801 0.170611 z " fill="rgb(245,195,195)" />
<path d="M0.000000 0.000000 L1.000000 0.000000 L1.000000 1.000000 L0.000000 1.000000  z" fill="none" stroke="rgb(128,128,128)" stroke-width="0.01" />
<line x1="1.23373" y1="0.105482" x2="1.23492" y2="0.106227" style="stroke:rgb(246,147,147);stroke-width:0.01" />
<line x1="1.23492" y1="0.106227" x2="1.58077" y2="0.946154" style="stroke:rgb(246,147,147);stroke-width:0.01" />
<line x1="1.18891" y1="0.304029" x2="1.51667" y2="1.1" style="stroke:rgb(246,147,147);stroke-width:0.01" />
<line x1="1.1928" y1="0.170611" x2="1.50035" y2="1.13916" style="stroke:rgb(246,147,147);stroke-width:0.01" />
<line x1="1.18891" y1="0.304029" x2="1.36086" y2="0.412088" style="stroke:rgb(246,147,147);stroke-width:0.01" />
<line x1="1.1928" y1="0.170611" x2="1.27564" y2="0.205128" style="stroke:rgb(246,147,147);stroke-width:0.01" />
<line x1="1.21154" y1="0.358974" x2="1.36538" y2="0.423077" style="stroke:rgb(246,147,147);stroke-width:0.01" />
<line x1="1.44217" y1="1.00322" x2="1.53316" y2="1.06041" style="stroke:rgb(246,147,147);stroke-width:0.01" />
<line x1="1.28686" y1="1.06717" x2="1.40939" y2="1.14417" style="stroke:rgb(246,147,147);stroke-width:0.01" />
<line x1="1.23492" y1="0.106227" x2="1.18891" y2="0.304029" style="stroke:rgb(246,147,147);stroke-width:0.01" />
<line x1="1.36086" y1="0.412088" x2="1.22666" y2="0.989125" style="stroke:rgb(246,147,147);stroke-width:0.01" />
<line x1="1.17308" y1="0.884615" x2="1.54231" y2="1.03846" style="stroke:rgb(246,147,147);stroke-width:0.01" />
<line x1="1.28686" y1="1.06717" x2="1.23895" y2="1.27318" style="stroke:rgb(246,147,147);stroke-width:0.01" />
<line x1="1.44217" y1="1.00322" x2="1.40939" y2="1.14417" style="stroke:rgb(246,147,147);stroke-width:0.01" />
<line x1="1.27564" y1="0.205128" x2="1.21154" y2="0.358974" style="stroke:rgb(246,147,147);stroke-width:0.01" />
<line x1="1.23205" y1="1.08974" x2="1.3859" y2="1.15385" style="stroke:rgb(246,147,147);stroke-width:0.01" />
<line x1="1.36538" y1="0.423077" x2="1.17308" y2="0.884615" style="stroke:rgb(246,147,147);stroke-width:0.01" />
<line x1="1.23373" y1="0.105482" x2="1.1928" y2="0.170611" style="stroke:rgb(246,147,147);stroke-width:0.01" />
<line x1="1.23205" y1="1.08974" x2="1.16795" y2="1.24359" style="stroke:rgb(246,147,147);stroke-width:0.01" />
<line x1="1.16795" y1="1.24359" x2="1.23895" y2="1.27318" style="stroke:rgb(246,147,147);stroke-width:0.01" />
<line x1="1.45" y1="1" x2="1.3859" y2="1.15385" style="stroke:rgb(246,147,147);stroke-width:0.01" />
<line x1="1.22666" y1="0.989125" x2="1.53316" y2="1.06041" style="stroke:rgb(246,147,147);stroke-width:0.01" />
<line x1="1.58077" y1="0.946154" x2="1.50035" y2="1.13916" style="stroke:rgb(246,147,147);stroke-width:0.01" />
<line x1="1.58077" y1="0.946154" x2="1.23205" y2="1.08974" style="stroke:rgb(246,147,147);stroke-width:0.01" />
<line x1="1.51667" y1="1.1" x2="1.3859" y2="1.15385" style="stroke:rgb(246,147,147);stroke-width:0.01" />
<line x1="1.50035" y1="1.13916" x2="1.23895" y2="1.27318" style="stroke:rgb(246,147,147);stroke-width:0.01" />
</g>
</svg>
