<svg xmlns="http://www.w3.org/2000/svg" viewBox="-1.5 -1.5 3 3">
<g transform="scale(1, -1)">
<path d="M-0.040287 -0.627134 L-0.039101 -0.626388 L0.306751 0.213538 L0.226332 0.406545 L-0.035063 0.540560 L-0.106069 0.510974 L-0.041967 0.357128 L0.112246 0.293629 L-0.047360 0.256509 L-0.029935 0.181586 L-0.100941 0.152000 L0.027264 -0.155692 L-0.085104 -0.428586 L-0.065550 -0.512664 L-0.081217 -0.562004 z " fill="rgb(245,195,195)" />
<path d="M-1.274018 -0.732616 L-0.274018 -0.732616 L-0.274018 0.267384 L-1.274018 0.267384  z" fill="none" stroke="rgb(128,128,128)" stroke-width="0.01" />
<line x1="-0.0402867" y1="-0.627134" x2="-0.0391008" y2="-0.626388" style="stroke:rgb(246,147,147);stroke-width:0.01" />
<line x1="-0.0391008" y1="-0.626388" x2="0.306751" y2="0.213538" style="stroke:rgb(246,147,147);stroke-width:0.01" />
<line x1="-0.0851038" y1="-0.428586" x2="0.242649" y2="0.367384" style="stroke:rgb(246,147,147);stroke-width:0.01" />
<line x1="-0.0812171" y1="-0.562004" x2="0.226332" y2="0.406545" style="stroke:rgb(246,147,147);stroke-width:0.01" />
<line x1="-0.0851038" y1="-0.428586" x2="0.0868419" y2="-0.320528" style="stroke:rgb(246,147,147);stroke-width:0.01" />
<line x1="-0.0812171" y1="-0.562004" x2="0.00162316" y2="-0.527487" style="stroke:rgb(246,147,147);stroke-width:0.01" />
<line x1="-0.0624794" y1="-0.373641" x2="0.0913667" y2="-0.309539" style="stroke:rgb(246,147,147);stroke-width:0.01" />
<line x1="0.168152" y1="0.270609" x2="0.259145" y2="0.327793" style="stroke:rgb(246,147,147);stroke-width:0.01" />
<line x1="0.0128469" y1="0.334558" x2="0.135371" y2="0.411558" style="stroke:rgb(246,147,147);stroke-width:0.01" />
<line x1="-0.0391008" y1="-0.626388" x2="-0.0851038" y2="-0.428586" style="stroke:rgb(246,147,147);stroke-width:0.01" />
<line x1="0.0868419" y1="-0.320528" x2="-0.04736" y2="0.256509" style="stroke:rgb(246,147,147);stroke-width:0.01" />
<line x1="-0.100941" y1="0.152" x2="0.26829" y2="0.305846" style="stroke:rgb(246,147,147);stroke-width:0.01" />
<line x1="0.0128469" y1="0.334558" x2="-0.0350632" y2="0.54056" style="stroke:rgb(246,147,147);stroke-width:0.01" />
<line x1="0.168152" y1="0.270609" x2="0.135371" y2="0.411558" style="stroke:rgb(246,147,147);stroke-width:0.01" />
<line x1="0.00162316" y1="-0.527487" x2="-0.0624794" y2="-0.373641" style="stroke:rgb(246,147,147);stroke-width:0.01" />
<line x1="-0.0419666" y1="0.357128" x2="0.11188" y2="0.421231" style="stroke:rgb(246,147,147);stroke-width:0.01" />
<line x1="0.0913667" y1="-0.309539" x2="-0.100941" y2="0.152" style="stroke:rgb(246,147,147);stroke-width:0.01" />
<line x1="-0.0402867" y1="-0.627134" x2="-0.0812171" y2="-0.562004" style="stroke:rgb(246,147,147);stroke-width:0.01" />
<line x1="-0.0419666" y1="0.357128" x2="-0.106069" y2="0.510974" style="stroke:rgb(246,147,147);stroke-width:0.01" />
<line x1="-0.106069" y1="0.510974" x2="-0.0350632" y2="0.54056" style="stroke:rgb(246,147,147);stroke-width:0.01" />
<line x1="0.175982" y1="0.267384" x2="0.11188" y2="0.421231" style="stroke:rgb(246,147,147);stroke-width:0.01" />
<line x1="-0.04736" y1="0.256509" x2="0.259145" y2="0.327793" style="stroke:rgb(246,147,147);stroke-width:0.01" />
<line x1="0.306751" y1="0.213538" x2="0.226332" y2="0.406545" style="stroke:rgb(246,147,147);stroke-width:0.01" />
<line x1="0.306751" y1="0.213538" x2="-0.0419666" y2="0.357128" style="stroke:rgb(246,147,147);stroke-width:0.01" />
<line x1="0.242649" y1="0.367384" x2="0.11188" y2="0.421231" style="stroke:rgb(246,147,147);stroke-width:0.01" />
<line x1="0.226332" y1="0.406545" x2="-0.0350632" y2="0.54056" style="stroke:rgb(246,147,147);stroke-width:0.01" />
</g>
</svg>
