<svg xmlns="http://www.w3.org/2000/svg" viewBox="-1.5 -1.5 3 3">
<g transform="scale(1, -1)">
<path d="M1.423293 -0.149261 L1.442319 -0.139307 L1.430963 -0.117600 L1.433474 -0.107233 L1.866224 -0.118001 L1.877505 0.335370 L2.013995 0.417690 L1.884880 0.631767 L1.246402 0.462659 L1.190095 0.210189 L1.333126 -0.078815 z " fill="rgb(245,195,195)" />
<path d="M0.000000 0.000000 L1.000000 0.000000 L1.000000 1.000000 L0.000000 1.000000  z" fill="none" stroke="rgb(128,128,128)" stroke-width="0.01" />
<line x1="1.389" y1="-0.122466" x2="1.42069" y2="-0.0979562" style="stroke:rgb(246,147,147);stroke-width:0.01" />
<line x1="1.35356" y1="-0.094779" x2="1.36173" y2="-0.0850685" style="stroke:rgb(246,147,147);stroke-width:0.01" />
<line x1="1.42329" y1="-0.149261" x2="1.44232" y2="-0.139307" style="stroke:rgb(246,147,147);stroke-width:0.01" />
<line x1="1.35356" y1="-0.094779" x2="1.47817" y2="0.0772944" style="stroke:rgb(246,147,147);stroke-width:0.01" />
<line x1="1.3004" y1="-0.0126934" x2="2.014" y2="0.41769" style="stroke:rgb(246,147,147);stroke-width:0.01" />
<line x1="1.27389" y1="0.0408849" x2="1.53848" y2="0.217746" style="stroke:rgb(246,147,147);stroke-width:0.01" />
<line x1="1.389" y1="-0.122466" x2="1.53848" y2="0.217746" style="stroke:rgb(246,147,147);stroke-width:0.01" />
<line x1="1.3004" y1="-0.0126934" x2="1.4554" y2="0.0485736" style="stroke:rgb(246,147,147);stroke-width:0.01" />
<line x1="1.27389" y1="0.0408849" x2="1.43644" y2="0.0965489" style="stroke:rgb(246,147,147);stroke-width:0.01" />
<line x1="1.42329" y1="-0.149261" x2="1.47817" y2="0.0772944" style="stroke:rgb(246,147,147);stroke-width:0.01" />
<line x1="1.19009" y1="0.210189" x2="1.2464" y2="0.462659" style="stroke:rgb(246,147,147);stroke-width:0.01" />
<line x1="1.86622" y1="-0.118001" x2="1.3674" y2="-0.105589" style="stroke:rgb(246,147,147);stroke-width:0.01" />
<line x1="1.86622" y1="-0.118001" x2="1.88488" y2="0.631767" style="stroke:rgb(246,147,147);stroke-width:0.01" />
<line x1="1.2464" y1="0.462659" x2="1.88488" y2="0.631767" style="stroke:rgb(246,147,147);stroke-width:0.01" />
<line x1="1.42069" y1="-0.0979562" x2="1.33313" y2="-0.0788146" style="stroke:rgb(246,147,147);stroke-width:0.01" />
<line x1="1.3674" y1="-0.105589" x2="1.36173" y2="-0.0850685" style="stroke:rgb(246,147,147);stroke-width:0.01" />
<line x1="1.4554" y1="0.0485736" x2="1.43644" y2="0.0965489" style="stroke:rgb(246,147,147);stroke-width:0.01" />
<line x1="1.33313" y1="-0.0788146" x2="1.19009" y2="0.210189" style="stroke:rgb(246,147,147);stroke-width:0.01" />
<line x1="1.44232" y1="-0.139307" x2="1.42069" y2="-0.0979562" style="stroke:rgb(246,147,147);stroke-width:0.01" />
<line x1="1.42329" y1="-0.149261" x2="1.33313" y2="-0.0788146" style="stroke:rgb(246,147,147);stroke-width:0.01" />
<line x1="1.47817" y1="0.0772944" x2="1.19009" y2="0.210189" style="stroke:rgb(246,147,147);stroke-width:0.01" />
<line x1="1.53848" y1="0.217746" x2="1.2464" y2="0.462659" style="stroke:rgb(246,147,147);stroke-width:0.01" />
<line x1="2.014" y1="0.41769" x2="1.88488" y2="0.631767" style="stroke:rgb(246,147,147);stroke-width:0.01" />
</g>
</svg>
