<svg xmlns="http://www.w3.org/2000/svg" viewBox="-1.5 -1.5 3 3">
<g transform="scale(1, -1)">
<path d="M-0.135096 -0.271757 L-0.116070 -0.261803 L-0.127426 -0.240097 L-0.124915 -0.229729 L0.307835 -0.240497 L0.319116 0.212873 L0.455606 0.295193 L0.326491 0.509271 L-0.311987 0.340163 L-0.368294 0.087693 L-0.225262 -0.201311 z " fill="rgb(245,195,195)" />
<path d="M-1.558389 -0.122496 L-0.558389 -0.122496 L-0.558389 0.877504 L-1.558389 0.877504  z" fill="none" stroke="rgb(128,128,128)" stroke-width="0.01" />
<line x1="-0.169392" y1="-0.244962" x2="-0.137703" y2="-0.220452" style="stroke:rgb(246,147,147);stroke-width:0.01" />
<line x1="-0.204829" y1="-0.217275" x2="-0.196655" y2="-0.207565" style="stroke:rgb(246,147,147);stroke-width:0.01" />
<line x1="-0.135096" y1="-0.271757" x2="-0.11607" y2="-0.261803" style="stroke:rgb(246,147,147);stroke-width:0.01" />
<line x1="-0.204829" y1="-0.217275" x2="-0.0802146" y2="-0.0452017" style="stroke:rgb(246,147,147);stroke-width:0.01" />
<line x1="-0.257987" y1="-0.13519" x2="0.455606" y2="0.295193" style="stroke:rgb(246,147,147);stroke-width:0.01" />
<line x1="-0.284503" y1="-0.0816112" x2="-0.0199072" y2="0.0952498" style="stroke:rgb(246,147,147);stroke-width:0.01" />
<line x1="-0.169392" y1="-0.244962" x2="-0.0199072" y2="0.0952498" style="stroke:rgb(246,147,147);stroke-width:0.01" />
<line x1="-0.257987" y1="-0.13519" x2="-0.10299" y2="-0.0739226" style="stroke:rgb(246,147,147);stroke-width:0.01" />
<line x1="-0.284503" y1="-0.0816112" x2="-0.121953" y2="-0.0259473" style="stroke:rgb(246,147,147);stroke-width:0.01" />
<line x1="-0.135096" y1="-0.271757" x2="-0.0802146" y2="-0.0452017" style="stroke:rgb(246,147,147);stroke-width:0.01" />
<line x1="-0.368294" y1="0.0876929" x2="-0.311987" y2="0.340163" style="stroke:rgb(246,147,147);stroke-width:0.01" />
<line x1="0.307835" y1="-0.240497" x2="-0.190994" y2="-0.228085" style="stroke:rgb(246,147,147);stroke-width:0.01" />
<line x1="0.307835" y1="-0.240497" x2="0.326491" y2="0.509271" style="stroke:rgb(246,147,147);stroke-width:0.01" />
<line x1="-0.311987" y1="0.340163" x2="0.326491" y2="0.509271" style="stroke:rgb(246,147,147);stroke-width:0.01" />
<line x1="-0.137703" y1="-0.220452" x2="-0.225262" y2="-0.201311" style="stroke:rgb(246,147,147);stroke-width:0.01" />
<line x1="-0.190994" y1="-0.228085" x2="-0.196655" y2="-0.207565" style="stroke:rgb(246,147,147);stroke-width:0.01" />
<line x1="-0.10299" y1="-0.0739226" x2="-0.121953" y2="-0.0259473" style="stroke:rgb(246,147,147);stroke-width:0.01" />
<line x1="-0.225262" y1="-0.201311" x2="-0.368294" y2="0.0876929" style="stroke:rgb(246,147,147);stroke-width:0.01" />
<line x1="-0.11607" y1="-0.261803" x2="-0.137703" y2="-0.220452" style="stroke:rgb(246,147,147);stroke-width:0.01" />
<line x1="-0.135096" y1="-0.271757" x2="-0.225262" y2="-0.201311" style="stroke:rgb(246,147,147);stroke-width:0.01" />
<line x1="-0.0802146" y1="-0.0452017" x2="-0.368294" y2="0.0876929" style="stroke:rgb(246,147,147);stroke-width:0.01" />
<line x1="-0.0199072" y1="0.0952498" x2="-0.311987" y2="0.340163" style="stroke:rgb(246,147,147);stroke-width:0.01" />
<line x1="0.455606" y1="0.295193" x2="0.326491" y2="0.509271" style="stroke:rgb(246,147,147);stroke-width:0.01" />
</g>
</svg>
