<svg xmlns="http://www.w3.org/2000/svg" viewBox="-1.5 -1.5 3 3">
<g transform="scale(1, -1)">
<path d="M0.152603 -0.088828 L0.309009 0.000000 L0.356748 0.000000 L0.370074 0.034681 L0.543311 0.133068 L0.564266 0.033598 L0.725513 -0.074647 L0.768266 -0.010960 L0.742170 0.136317 L0.392256 0.503379 L0.027548 0.296816 L0.041061 0.227888 L0.036975 0.207581 L0.048456 0.190163 L0.066023 0.100552 L0.102775 0.107756 L0.139676 0.195719 L0.189783 0.150541 L0.102154 0.000000 z " fill="rgb(245,195,195)" />
<path d="M0.000000 0.000000 L1.000000 0.000000 L1.000000 1.000000 L0.000000 1.000000  z" fill="none" stroke="rgb(128,128,128)" stroke-width="0.01" />
<line x1="0.725513" y1="-0.0746472" x2="0.768266" y2="-0.0109602" style="stroke:rgb(246,147,147);stroke-width:0.01" />
<line x1="0.564266" y1="0.0335983" x2="0.674333" y2="0.207479" style="stroke:rgb(246,147,147);stroke-width:0.01" />
<line x1="0.457606" y1="0.172401" x2="0.55522" y2="0.332429" style="stroke:rgb(246,147,147);stroke-width:0.01" />
<line x1="0.152603" y1="-0.0888282" x2="0.674333" y2="0.207479" style="stroke:rgb(246,147,147);stroke-width:0.01" />
<line x1="0.356748" y1="0" x2="0.5" y2="0.372807" style="stroke:rgb(246,147,147);stroke-width:0.01" />
<line x1="0.457606" y1="0.172401" x2="0.5" y2="0.372807" style="stroke:rgb(246,147,147);stroke-width:0.01" />
<line x1="0.323845" y1="0.231269" x2="0.439098" y2="0.454242" style="stroke:rgb(246,147,147);stroke-width:0.01" />
<line x1="0.323845" y1="0.231269" x2="0.357456" y2="0.438596" style="stroke:rgb(246,147,147);stroke-width:0.01" />
<line x1="0.102154" y1="0" x2="0.357456" y2="0.438596" style="stroke:rgb(246,147,147);stroke-width:0.01" />
<line x1="0.202097" y1="0.16734" x2="0.425645" y2="0.468354" style="stroke:rgb(246,147,147);stroke-width:0.01" />
<line x1="0.187119" y1="0.178464" x2="0.392256" y2="0.503379" style="stroke:rgb(246,147,147);stroke-width:0.01" />
<line x1="0.102775" y1="0.107756" x2="0.230252" y2="0.411623" style="stroke:rgb(246,147,147);stroke-width:0.01" />
<line x1="0.230859" y1="0.155272" x2="0.248575" y2="0.367038" style="stroke:rgb(246,147,147);stroke-width:0.01" />
<line x1="0.102154" y1="0" x2="0.356748" y2="0" style="stroke:rgb(246,147,147);stroke-width:0.01" />
<line x1="0.0369754" y1="0.207581" x2="0.0584489" y2="0.314318" style="stroke:rgb(246,147,147);stroke-width:0.01" />
<line x1="0.0660231" y1="0.100552" x2="0.0275484" y2="0.296816" style="stroke:rgb(246,147,147);stroke-width:0.01" />
<line x1="0.230859" y1="0.155272" x2="0.55522" y2="0.332429" style="stroke:rgb(246,147,147);stroke-width:0.01" />
<line x1="0.152603" y1="-0.0888282" x2="0.102154" y2="0" style="stroke:rgb(246,147,147);stroke-width:0.01" />
<line x1="0.102775" y1="0.107756" x2="0.0369754" y2="0.207581" style="stroke:rgb(246,147,147);stroke-width:0.01" />
<line x1="0.0660231" y1="0.100552" x2="0.102775" y2="0.107756" style="stroke:rgb(246,147,147);stroke-width:0.01" />
<line x1="0.564266" y1="0.0335983" x2="0.48602" y2="0.405021" style="stroke:rgb(246,147,147);stroke-width:0.01" />
<line x1="0.0369754" y1="0.207581" x2="0.425645" y2="0.468354" style="stroke:rgb(246,147,147);stroke-width:0.01" />
<line x1="0.768266" y1="-0.0109602" x2="0.74217" y2="0.136317" style="stroke:rgb(246,147,147);stroke-width:0.01" />
<line x1="0.356748" y1="0" x2="0.0275484" y2="0.296816" style="stroke:rgb(246,147,147);stroke-width:0.01" />
<line x1="0.202097" y1="0.16734" x2="0.187119" y2="0.178464" style="stroke:rgb(246,147,147);stroke-width:0.01" />
<line x1="0.248575" y1="0.367038" x2="0.439098" y2="0.454242" style="stroke:rgb(246,147,147);stroke-width:0.01" />
<line x1="0.0275484" y1="0.296816" x2="0.392256" y2="0.503379" style="stroke:rgb(246,147,147);stroke-width:0.01" />
<line x1="0.230859" y1="0.155272" x2="0.187119" y2="0.178464" style="stroke:rgb(246,147,147);stroke-width:0.01" />
<line x1="0.725513" y1="-0.0746472" x2="0.564266" y2="0.0335983" style="stroke:rgb(246,147,147);stroke-width:0.01" />
<line x1="0.74217" y1="0.136317" x2="0.323845" y2="0.231269" style="stroke:rgb(246,147,147);stroke-width:0.01" />
<line x1="0.457606" y1="0.172401" x2="0.0584489" y2="0.314318" style="stroke:rgb(246,147,147);stroke-width:0.01" />
<line x1="0.457606" y1="0.172401" x2="0.323845" y2="0.231269" style="stroke:rgb(246,147,147);stroke-width:0.01" />
<line x1="0.768266" y1="-0.0109602" x2="0.248575" y2="0.367038" style="stroke:rgb(246,147,147);stroke-width:0.01" />
<line x1="0.74217" y1="0.136317" x2="0.392256" y2="0.503379" style="stroke:rgb(246,147,147);stroke-width:0.01" />
<line x1="0.5" y1="0.372807" x2="0.230252" y2="0.411623" style="stroke:rgb(246,147,147);stroke-width:0.01" />
<line x1="0.5" y1="0.372807" x2="0.357456" y2="0.438596" style="stroke:rgb(246,147,147);stroke-width:0.01" />
<line x1="0.48602" y1="0.405021" x2="0.357456" y2="0.438596" style="stroke:rgb(246,147,147);stroke-width:0.01" />
</g>
</svg>
