<svg xmlns="http://www.w3.org/2000/svg" viewBox="-1.5 -1.5 3 3">
<g transform="scale(1, -1)">
<path d="M0.000000 0.000000 L1.015625 0.000000 L1.015625 0.312500 L0.000000 0.312500 z " fill="rgb(245,195,195)" />
<path d="M0.000000 0.000000 L1.000000 0.000000 L1.000000 1.000000 L0.000000 1.000000  z" fill="none" stroke="rgb(128,128,128)" stroke-width="0.01" />
<line x1="0.615625" y1="0.0125" x2="1.01562" y2="0.3125" style="stroke:rgb(246,147,147);stroke-width:0.01" />
<line x1="0.565625" y1="0" x2="0.790625" y2="0.3" style="stroke:rgb(246,147,147);stroke-width:0.01" />
<line x1="0.225" y1="0.0125" x2="0.365625" y2="0.2" style="stroke:rgb(246,147,147);stroke-width:0.01" />
<line x1="0" y1="0" x2="1.01562" y2="0" style="stroke:rgb(246,147,147);stroke-width:0.01" />
<line x1="0" y1="0" x2="0" y2="0.3125" style="stroke:rgb(246,147,147);stroke-width:0.01" />
<line x1="1.01562" y1="0" x2="1.01562" y2="0.3125" style="stroke:rgb(246,147,147);stroke-width:0.01" />
<line x1="0.225" y1="0.0125" x2="0.615625" y2="0.0125" style="stroke:rgb(246,147,147);stroke-width:0.01" />
<line x1="0" y1="0.175781" x2="0.165625" y2="0.3" style="stroke:rgb(246,147,147);stroke-width:0.01" />
<line x1="0.234375" y1="0" x2="0" y2="0.175781" style="stroke:rgb(246,147,147);stroke-width:0.01" />
<line x1="0.234375" y1="0" x2="0" y2="0.3125" style="stroke:rgb(246,147,147);stroke-width:0.01" />
<line x1="0.565625" y1="0" x2="0.165625" y2="0.3" style="stroke:rgb(246,147,147);stroke-width:0.01" />
<line x1="0.165625" y1="0.3" x2="0.790625" y2="0.3" style="stroke:rgb(246,147,147);stroke-width:0.01" />
<line x1="0.615625" y1="0.0125" x2="0.365625" y2="0.2" style="stroke:rgb(246,147,147);stroke-width:0.01" />
<line x1="0" y1="0.3125" x2="1.01562" y2="0.3125" style="stroke:rgb(246,147,147);stroke-width:0.01" />
<line x1="1.01562" y1="0" x2="0.790625" y2="0.3" style="stroke:rgb(246,147,147);stroke-width:0.01" />
</g>
</svg>
