<svg xmlns="http://www.w3.org/2000/svg" viewBox="-1.5 -1.5 3 3">
<g transform="scale(1, -1)">
<path d="M3.500000 1.666667 L4.382353 2.137255 L4.044118 2.240196 L3.926471 2.460784 L3.485294 2.225490 L3.602941 2.004902 z " fill="rgb(245,195,195)" />
<path d="M0.000000 0.000000 L1.000000 0.000000 L1.000000 1.000000 L0.000000 1.000000  z" fill="none" stroke="rgb(128,128,128)" stroke-width="0.01" />
<line x1="3.94118" y1="1.90196" x2="4.04412" y2="2.2402" style="stroke:rgb(246,147,147);stroke-width:0.01" />
<line x1="3.82353" y1="2.12255" x2="3.92647" y2="2.46078" style="stroke:rgb(246,147,147);stroke-width:0.01" />
<line x1="3.5" y1="1.66667" x2="3.60294" y2="2.0049" style="stroke:rgb(246,147,147);stroke-width:0.01" />
<line x1="3.5" y1="1.66667" x2="4.38235" y2="2.13725" style="stroke:rgb(246,147,147);stroke-width:0.01" />
<line x1="3.60294" y1="2.0049" x2="4.04412" y2="2.2402" style="stroke:rgb(246,147,147);stroke-width:0.01" />
<line x1="3.48529" y1="2.22549" x2="3.92647" y2="2.46078" style="stroke:rgb(246,147,147);stroke-width:0.01" />
<line x1="3.72059" y1="1.78431" x2="3.48529" y2="2.22549" style="stroke:rgb(246,147,147);stroke-width:0.01" />
<line x1="3.94118" y1="1.90196" x2="3.82353" y2="2.12255" style="stroke:rgb(246,147,147);stroke-width:0.01" />
<line x1="4.16176" y1="2.01961" x2="3.92647" y2="2.46078" style="stroke:rgb(246,147,147);stroke-width:0.01" />
<line x1="3.94118" y1="1.90196" x2="3.60294" y2="2.0049" style="stroke:rgb(246,147,147);stroke-width:0.01" />
<line x1="3.82353" y1="2.12255" x2="3.48529" y2="2.22549" style="stroke:rgb(246,147,147);stroke-width:0.01" />
<line x1="4.38235" y1="2.13725" x2="4.04412" y2="2.2402" style="stroke:rgb(246,147,147);stroke-width:0.01" />
</g>
</svg>
