<svg xmlns="http://www.w3.org/2000/svg" viewBox="-1.5 -1.5 3 3">
<g transform="scale(1, -1)">
<path d="M0.008992 -0.252187 L0.383992 -0.127187 L0.408992 -0.102187 L0.408992 0.106904 L0.219249 0.331146 L0.142326 0.331146 L0.142326 0.164480 L0.260253 0.046553 L0.098648 0.073675 L0.085916 -0.002187 L0.008992 -0.002187 L0.008992 -0.073616 L-0.480223 -0.003728 L-0.481467 -0.004371 L-0.446136 -0.072700 L-0.395673 -0.084251 L-0.333164 -0.143784 L-0.041008 -0.185520 z " fill="rgb(245,195,195)" />
<path d="M-0.491008 -0.752187 L0.508992 -0.752187 L0.508992 0.247813 L-0.491008 0.247813  z" fill="none" stroke="rgb(128,128,128)" stroke-width="0.01" />
<line x1="0.383992" y1="-0.127187" x2="0.408992" y2="-0.102187" style="stroke:rgb(246,147,147);stroke-width:0.01" />
<line x1="0.303004" y1="0.00380106" x2="0.326957" y2="0.146516" style="stroke:rgb(246,147,147);stroke-width:0.01" />
<line x1="0.184242" y1="0.122564" x2="0.219249" y2="0.331146" style="stroke:rgb(246,147,147);stroke-width:0.01" />
<line x1="0.142921" y1="-0.207544" x2="0.408992" y2="0.106904" style="stroke:rgb(246,147,147);stroke-width:0.01" />
<line x1="0.0460295" y1="-0.239841" x2="0.0986476" y2="0.0736751" style="stroke:rgb(246,147,147);stroke-width:0.01" />
<line x1="0.133992" y1="-0.21052" x2="0.408992" y2="0.0644797" style="stroke:rgb(246,147,147);stroke-width:0.01" />
<line x1="0.00899246" y1="-0.252187" x2="0.00899246" y2="-0.00218697" style="stroke:rgb(246,147,147);stroke-width:0.01" />
<line x1="0.142326" y1="0.16448" x2="0.142326" y2="0.331146" style="stroke:rgb(246,147,147);stroke-width:0.01" />
<line x1="0.308992" y1="-0.00218697" x2="0.308992" y2="0.16448" style="stroke:rgb(246,147,147);stroke-width:0.01" />
<line x1="0.408992" y1="-0.102187" x2="0.408992" y2="0.106904" style="stroke:rgb(246,147,147);stroke-width:0.01" />
<line x1="-0.446136" y1="-0.0726998" x2="-0.481467" y2="-0.00437088" style="stroke:rgb(246,147,147);stroke-width:0.01" />
<line x1="-0.274341" y1="-0.152187" x2="-0.141008" y2="-0.052187" style="stroke:rgb(246,147,147);stroke-width:0.01" />
<line x1="0.00899246" y1="-0.252187" x2="0.383992" y2="-0.127187" style="stroke:rgb(246,147,147);stroke-width:0.01" />
<line x1="-0.274341" y1="-0.152187" x2="-0.374341" y2="-0.0188536" style="stroke:rgb(246,147,147);stroke-width:0.01" />
<line x1="-0.333164" y1="-0.143784" x2="-0.480223" y2="-0.00372758" style="stroke:rgb(246,147,147);stroke-width:0.01" />
<line x1="-0.446136" y1="-0.0726998" x2="-0.374341" y2="-0.0188536" style="stroke:rgb(246,147,147);stroke-width:0.01" />
<line x1="-0.333164" y1="-0.143784" x2="-0.152772" y2="-0.0505063" style="stroke:rgb(246,147,147);stroke-width:0.01" />
<line x1="0.00899246" y1="-0.252187" x2="-0.141008" y2="-0.052187" style="stroke:rgb(246,147,147);stroke-width:0.01" />
<line x1="0.0460295" y1="-0.239841" x2="-0.152772" y2="-0.0505063" style="stroke:rgb(246,147,147);stroke-width:0.01" />
<line x1="-0.481467" y1="-0.00437088" x2="-0.480223" y2="-0.00372758" style="stroke:rgb(246,147,147);stroke-width:0.01" />
<line x1="0.303004" y1="0.00380106" x2="0.408992" y2="0.0215893" style="stroke:rgb(246,147,147);stroke-width:0.01" />
<line x1="0.133992" y1="-0.21052" x2="-0.333164" y2="-0.143784" style="stroke:rgb(246,147,147);stroke-width:0.01" />
<line x1="0.142921" y1="-0.207544" x2="-0.446136" y2="-0.0726998" style="stroke:rgb(246,147,147);stroke-width:0.01" />
<line x1="0.383992" y1="-0.127187" x2="-0.480223" y2="-0.00372758" style="stroke:rgb(246,147,147);stroke-width:0.01" />
<line x1="0.184242" y1="0.122564" x2="0.326957" y2="0.146516" style="stroke:rgb(246,147,147);stroke-width:0.01" />
<line x1="0.00899246" y1="-0.00218697" x2="0.408992" y2="-0.00218697" style="stroke:rgb(246,147,147);stroke-width:0.01" />
<line x1="0.408992" y1="-0.102187" x2="0.142326" y2="0.16448" style="stroke:rgb(246,147,147);stroke-width:0.01" />
<line x1="0.408992" y1="0.106904" x2="0.219249" y2="0.331146" style="stroke:rgb(246,147,147);stroke-width:0.01" />
<line x1="0.408992" y1="0.0644797" x2="0.308992" y2="0.16448" style="stroke:rgb(246,147,147);stroke-width:0.01" />
<line x1="0.408992" y1="0.0215893" x2="0.0986476" y2="0.0736751" style="stroke:rgb(246,147,147);stroke-width:0.01" />
<line x1="0.142326" y1="0.16448" x2="0.308992" y2="0.16448" style="stroke:rgb(246,147,147);stroke-width:0.01" />
<line x1="0.142326" y1="0.331146" x2="0.219249" y2="0.331146" style="stroke:rgb(246,147,147);stroke-width:0.01" />
</g>
</svg>
