<svg xmlns="http://www.w3.org/2000/svg" viewBox="-1.5 -1.5 3 3">
<g transform="scale(1, -1)">
<path d="M0.500000 0.500000 L0.875000 0.625000 L0.900000 0.650000 L0.900000 0.859091 L0.710256 1.083333 L0.633333 1.083333 L0.633333 0.916667 L0.751261 0.798739 L0.589655 0.825862 L0.576923 0.750000 L0.500000 0.750000 L0.500000 0.678571 L0.010784 0.748459 L0.009540 0.747816 L0.044872 0.679487 L0.095334 0.667936 L0.157843 0.608403 L0.450000 0.566667 z " fill="rgb(245,195,195)" />
<path d="M0.000000 0.000000 L1.000000 0.000000 L1.000000 1.000000 L0.000000 1.000000  z" fill="none" stroke="rgb(128,128,128)" stroke-width="0.01" />
<line x1="0.875" y1="0.625" x2="0.9" y2="0.65" style="stroke:rgb(246,147,147);stroke-width:0.01" />
<line x1="0.794012" y1="0.755988" x2="0.817964" y2="0.898703" style="stroke:rgb(246,147,147);stroke-width:0.01" />
<line x1="0.67525" y1="0.87475" x2="0.710256" y2="1.08333" style="stroke:rgb(246,147,147);stroke-width:0.01" />
<line x1="0.633929" y1="0.544643" x2="0.9" y2="0.859091" style="stroke:rgb(246,147,147);stroke-width:0.01" />
<line x1="0.537037" y1="0.512346" x2="0.589655" y2="0.825862" style="stroke:rgb(246,147,147);stroke-width:0.01" />
<line x1="0.625" y1="0.541667" x2="0.9" y2="0.816667" style="stroke:rgb(246,147,147);stroke-width:0.01" />
<line x1="0.5" y1="0.5" x2="0.5" y2="0.75" style="stroke:rgb(246,147,147);stroke-width:0.01" />
<line x1="0.633333" y1="0.916667" x2="0.633333" y2="1.08333" style="stroke:rgb(246,147,147);stroke-width:0.01" />
<line x1="0.8" y1="0.75" x2="0.8" y2="0.916667" style="stroke:rgb(246,147,147);stroke-width:0.01" />
<line x1="0.9" y1="0.65" x2="0.9" y2="0.859091" style="stroke:rgb(246,147,147);stroke-width:0.01" />
<line x1="0.0448718" y1="0.679487" x2="0.00954023" y2="0.747816" style="stroke:rgb(246,147,147);stroke-width:0.01" />
<line x1="0.216667" y1="0.6" x2="0.35" y2="0.7" style="stroke:rgb(246,147,147);stroke-width:0.01" />
<line x1="0.5" y1="0.5" x2="0.875" y2="0.625" style="stroke:rgb(246,147,147);stroke-width:0.01" />
<line x1="0.216667" y1="0.6" x2="0.116667" y2="0.733333" style="stroke:rgb(246,147,147);stroke-width:0.01" />
<line x1="0.157843" y1="0.608403" x2="0.0107843" y2="0.748459" style="stroke:rgb(246,147,147);stroke-width:0.01" />
<line x1="0.0448718" y1="0.679487" x2="0.116667" y2="0.733333" style="stroke:rgb(246,147,147);stroke-width:0.01" />
<line x1="0.157843" y1="0.608403" x2="0.338235" y2="0.701681" style="stroke:rgb(246,147,147);stroke-width:0.01" />
<line x1="0.5" y1="0.5" x2="0.35" y2="0.7" style="stroke:rgb(246,147,147);stroke-width:0.01" />
<line x1="0.537037" y1="0.512346" x2="0.338235" y2="0.701681" style="stroke:rgb(246,147,147);stroke-width:0.01" />
<line x1="0.00954023" y1="0.747816" x2="0.0107843" y2="0.748459" style="stroke:rgb(246,147,147);stroke-width:0.01" />
<line x1="0.794012" y1="0.755988" x2="0.9" y2="0.773776" style="stroke:rgb(246,147,147);stroke-width:0.01" />
<line x1="0.625" y1="0.541667" x2="0.157843" y2="0.608403" style="stroke:rgb(246,147,147);stroke-width:0.01" />
<line x1="0.633929" y1="0.544643" x2="0.0448718" y2="0.679487" style="stroke:rgb(246,147,147);stroke-width:0.01" />
<line x1="0.875" y1="0.625" x2="0.0107843" y2="0.748459" style="stroke:rgb(246,147,147);stroke-width:0.01" />
<line x1="0.67525" y1="0.87475" x2="0.817964" y2="0.898703" style="stroke:rgb(246,147,147);stroke-width:0.01" />
<line x1="0.5" y1="0.75" x2="0.9" y2="0.75" style="stroke:rgb(246,147,147);stroke-width:0.01" />
<line x1="0.9" y1="0.65" x2="0.633333" y2="0.916667" style="stroke:rgb(246,147,147);stroke-width:0.01" />
<line x1="0.9" y1="0.859091" x2="0.710256" y2="1.08333" style="stroke:rgb(246,147,147);stroke-width:0.01" />
<line x1="0.9" y1="0.816667" x2="0.8" y2="0.916667" style="stroke:rgb(246,147,147);stroke-width:0.01" />
<line x1="0.9" y1="0.773776" x2="0.589655" y2="0.825862" style="stroke:rgb(246,147,147);stroke-width:0.01" />
<line x1="0.633333" y1="0.916667" x2="0.8" y2="0.916667" style="stroke:rgb(246,147,147);stroke-width:0.01" />
<line x1="0.633333" y1="1.08333" x2="0.710256" y2="1.08333" style="stroke:rgb(246,147,147);stroke-width:0.01" />
</g>
</svg>
