<svg xmlns="http://www.w3.org/2000/svg" viewBox="-1.5 -1.5 3 3">
<g transform="scale(1, -1)">
<path d="M-0.147034 -0.388894 L0.130392 -0.288235 L0.205882 -0.323529 L0.477941 -0.036765 L0.488235 -0.002941 L0.389840 0.181551 L0.116893 0.290121 L0.049020 0.253922 L0.127451 0.106863 L0.287000 0.058304 L0.131643 0.006187 L0.156109 -0.066742 L0.088235 -0.102941 L0.121849 -0.165966 L-0.342701 -0.334520 L-0.343496 -0.335673 L-0.280166 -0.379336 L-0.230204 -0.365782 z " fill="rgb(245,195,195)" />
<path d="M0.000000 0.000000 L1.000000 0.000000 L1.000000 1.000000 L0.000000 1.000000  z" fill="none" stroke="rgb(128,128,128)" stroke-width="0.01" />
<line x1="-0.147034" y1="-0.388894" x2="-0.342701" y2="-0.33452" style="stroke:rgb(246,147,147);stroke-width:0.01" />
<line x1="-0.280166" y1="-0.379336" x2="-0.343496" y2="-0.335673" style="stroke:rgb(246,147,147);stroke-width:0.01" />
<line x1="-0.0911765" y1="-0.368627" x2="-0.242157" y2="-0.298039" style="stroke:rgb(246,147,147);stroke-width:0.01" />
<line x1="-0.147034" y1="-0.388894" x2="0.296569" y2="-0.227941" style="stroke:rgb(246,147,147);stroke-width:0.01" />
<line x1="-0.280166" y1="-0.379336" x2="0.303046" y2="-0.221113" style="stroke:rgb(246,147,147);stroke-width:0.01" />
<line x1="0.205882" y1="-0.323529" x2="0.477941" y2="-0.0367647" style="stroke:rgb(246,147,147);stroke-width:0.01" />
<line x1="0.232752" y1="-0.295207" x2="-0.0317598" y2="-0.2217" style="stroke:rgb(246,147,147);stroke-width:0.01" />
<line x1="0.205882" y1="-0.323529" x2="-0.0205882" y2="-0.217647" style="stroke:rgb(246,147,147);stroke-width:0.01" />
<line x1="-0.342701" y1="-0.33452" x2="0.477941" y2="-0.0367647" style="stroke:rgb(246,147,147);stroke-width:0.01" />
<line x1="0.34484" y1="0.040701" x2="0.429988" y2="0.106273" style="stroke:rgb(246,147,147);stroke-width:0.01" />
<line x1="0.477941" y1="-0.0367647" x2="0.488235" y2="-0.00294118" style="stroke:rgb(246,147,147);stroke-width:0.01" />
<line x1="0.0882353" y1="-0.102941" x2="0.441176" y2="0.0852941" style="stroke:rgb(246,147,147);stroke-width:0.01" />
<line x1="0.296569" y1="-0.227941" x2="0.409804" y2="0.144118" style="stroke:rgb(246,147,147);stroke-width:0.01" />
<line x1="0.303046" y1="-0.221113" x2="0.38984" y2="0.181551" style="stroke:rgb(246,147,147);stroke-width:0.01" />
<line x1="-0.147034" y1="-0.388894" x2="-0.0317598" y2="-0.2217" style="stroke:rgb(246,147,147);stroke-width:0.01" />
<line x1="0.131643" y1="0.00618661" x2="0.429988" y2="0.106273" style="stroke:rgb(246,147,147);stroke-width:0.01" />
<line x1="0.184161" y1="0.0896031" x2="0.298814" y2="0.177897" style="stroke:rgb(246,147,147);stroke-width:0.01" />
<line x1="-0.0911765" y1="-0.368627" x2="-0.0205882" y2="-0.217647" style="stroke:rgb(246,147,147);stroke-width:0.01" />
<line x1="0.205882" y1="-0.323529" x2="0.0882353" y2="-0.102941" style="stroke:rgb(246,147,147);stroke-width:0.01" />
<line x1="0.127451" y1="0.106863" x2="0.27451" y2="0.185294" style="stroke:rgb(246,147,147);stroke-width:0.01" />
<line x1="-0.280166" y1="-0.379336" x2="-0.242157" y2="-0.298039" style="stroke:rgb(246,147,147);stroke-width:0.01" />
<line x1="0.232752" y1="-0.295207" x2="0.131643" y2="0.00618661" style="stroke:rgb(246,147,147);stroke-width:0.01" />
<line x1="-0.343496" y1="-0.335673" x2="-0.342701" y2="-0.33452" style="stroke:rgb(246,147,147);stroke-width:0.01" />
<line x1="0.184161" y1="0.0896031" x2="0.116893" y2="0.290121" style="stroke:rgb(246,147,147);stroke-width:0.01" />
<line x1="0.127451" y1="0.106863" x2="0.0490196" y2="0.253922" style="stroke:rgb(246,147,147);stroke-width:0.01" />
<line x1="0.34484" y1="0.040701" x2="0.298814" y2="0.177897" style="stroke:rgb(246,147,147);stroke-width:0.01" />
<line x1="0.488235" y1="-0.00294118" x2="0.127451" y2="0.106863" style="stroke:rgb(246,147,147);stroke-width:0.01" />
<line x1="0.352941" y1="0.0382353" x2="0.27451" y2="0.185294" style="stroke:rgb(246,147,147);stroke-width:0.01" />
<line x1="0.0490196" y1="0.253922" x2="0.116893" y2="0.290121" style="stroke:rgb(246,147,147);stroke-width:0.01" />
<line x1="0.488235" y1="-0.00294118" x2="0.38984" y2="0.181551" style="stroke:rgb(246,147,147);stroke-width:0.01" />
<line x1="0.409804" y1="0.144118" x2="0.27451" y2="0.185294" style="stroke:rgb(246,147,147);stroke-width:0.01" />
<line x1="0.38984" y1="0.181551" x2="0.116893" y2="0.290121" style="stroke:rgb(246,147,147);stroke-width:0.01" />
</g>
</svg>
