<svg xmlns="http://www.w3.org/2000/svg" viewBox="-1.5 -1.5 3 3">
<g transform="scale(1, -1)">
<path d="M-0.226306 -0.283651 L0.051121 -0.182992 L0.126611 -0.218286 L0.398670 0.068479 L0.408964 0.102302 L0.310568 0.286794 L0.037621 0.395364 L-0.030252 0.359165 L0.048179 0.212106 L0.207728 0.163548 L0.052371 0.111430 L0.076837 0.038501 L0.008964 0.002302 L0.042577 -0.060723 L-0.421972 -0.229276 L-0.422767 -0.230430 L-0.359438 -0.274093 L-0.309476 -0.260539 z " fill="rgb(245,195,195)" />
<path d="M-0.079272 0.105243 L0.920728 0.105243 L0.920728 1.105243 L-0.079272 1.105243  z" fill="none" stroke="rgb(128,128,128)" stroke-width="0.01" />
<line x1="-0.226306" y1="-0.283651" x2="-0.421972" y2="-0.229276" style="stroke:rgb(246,147,147);stroke-width:0.01" />
<line x1="-0.359438" y1="-0.274093" x2="-0.422767" y2="-0.23043" style="stroke:rgb(246,147,147);stroke-width:0.01" />
<line x1="-0.170448" y1="-0.263384" x2="-0.321428" y2="-0.192796" style="stroke:rgb(246,147,147);stroke-width:0.01" />
<line x1="-0.226306" y1="-0.283651" x2="0.217297" y2="-0.122698" style="stroke:rgb(246,147,147);stroke-width:0.01" />
<line x1="-0.359438" y1="-0.274093" x2="0.223775" y2="-0.11587" style="stroke:rgb(246,147,147);stroke-width:0.01" />
<line x1="0.126611" y1="-0.218286" x2="0.39867" y2="0.0684785" style="stroke:rgb(246,147,147);stroke-width:0.01" />
<line x1="0.153481" y1="-0.189964" x2="-0.111031" y2="-0.116457" style="stroke:rgb(246,147,147);stroke-width:0.01" />
<line x1="0.126611" y1="-0.218286" x2="-0.0998598" y2="-0.112404" style="stroke:rgb(246,147,147);stroke-width:0.01" />
<line x1="-0.421972" y1="-0.229276" x2="0.39867" y2="0.0684785" style="stroke:rgb(246,147,147);stroke-width:0.01" />
<line x1="0.265568" y1="0.145944" x2="0.350716" y2="0.211516" style="stroke:rgb(246,147,147);stroke-width:0.01" />
<line x1="0.39867" y1="0.0684785" x2="0.408964" y2="0.102302" style="stroke:rgb(246,147,147);stroke-width:0.01" />
<line x1="0.00896369" y1="0.00230207" x2="0.361905" y2="0.190537" style="stroke:rgb(246,147,147);stroke-width:0.01" />
<line x1="0.217297" y1="-0.122698" x2="0.330532" y2="0.249361" style="stroke:rgb(246,147,147);stroke-width:0.01" />
<line x1="0.223775" y1="-0.11587" x2="0.310568" y2="0.286794" style="stroke:rgb(246,147,147);stroke-width:0.01" />
<line x1="-0.226306" y1="-0.283651" x2="-0.111031" y2="-0.116457" style="stroke:rgb(246,147,147);stroke-width:0.01" />
<line x1="0.0523714" y1="0.11143" x2="0.350716" y2="0.211516" style="stroke:rgb(246,147,147);stroke-width:0.01" />
<line x1="0.104889" y1="0.194846" x2="0.219543" y2="0.28314" style="stroke:rgb(246,147,147);stroke-width:0.01" />
<line x1="-0.170448" y1="-0.263384" x2="-0.0998598" y2="-0.112404" style="stroke:rgb(246,147,147);stroke-width:0.01" />
<line x1="0.126611" y1="-0.218286" x2="0.00896369" y2="0.00230207" style="stroke:rgb(246,147,147);stroke-width:0.01" />
<line x1="0.0481794" y1="0.212106" x2="0.195238" y2="0.290537" style="stroke:rgb(246,147,147);stroke-width:0.01" />
<line x1="-0.359438" y1="-0.274093" x2="-0.321428" y2="-0.192796" style="stroke:rgb(246,147,147);stroke-width:0.01" />
<line x1="0.153481" y1="-0.189964" x2="0.0523714" y2="0.11143" style="stroke:rgb(246,147,147);stroke-width:0.01" />
<line x1="-0.422767" y1="-0.23043" x2="-0.421972" y2="-0.229276" style="stroke:rgb(246,147,147);stroke-width:0.01" />
<line x1="0.104889" y1="0.194846" x2="0.0376213" y2="0.395364" style="stroke:rgb(246,147,147);stroke-width:0.01" />
<line x1="0.0481794" y1="0.212106" x2="-0.030252" y2="0.359165" style="stroke:rgb(246,147,147);stroke-width:0.01" />
<line x1="0.265568" y1="0.145944" x2="0.219543" y2="0.28314" style="stroke:rgb(246,147,147);stroke-width:0.01" />
<line x1="0.408964" y1="0.102302" x2="0.0481794" y2="0.212106" style="stroke:rgb(246,147,147);stroke-width:0.01" />
<line x1="0.27367" y1="0.143479" x2="0.195238" y2="0.290537" style="stroke:rgb(246,147,147);stroke-width:0.01" />
<line x1="-0.030252" y1="0.359165" x2="0.0376213" y2="0.395364" style="stroke:rgb(246,147,147);stroke-width:0.01" />
<line x1="0.408964" y1="0.102302" x2="0.310568" y2="0.286794" style="stroke:rgb(246,147,147);stroke-width:0.01" />
<line x1="0.330532" y1="0.249361" x2="0.195238" y2="0.290537" style="stroke:rgb(246,147,147);stroke-width:0.01" />
<line x1="0.310568" y1="0.286794" x2="0.0376213" y2="0.395364" style="stroke:rgb(246,147,147);stroke-width:0.01" />
</g>
</svg>
