<svg xmlns="http://www.w3.org/2000/svg" viewBox="-1.5 -1.5 3 3">
<g transform="scale(1, -1)">
<path d="M0.400000 0.428571 L1.000000 1.228571 L0.650000 1.178571 L0.450000 1.328571 L0.150000 0.928571 L0.350000 0.778571 z " fill="rgb(245,195,195)" />
<path d="M0.000000 0.000000 L1.000000 0.000000 L1.000000 1.000000 L0.000000 1.000000  z" fill="none" stroke="rgb(128,128,128)" stroke-width="0.01" />
<line x1="0.4" y1="0.428571" x2="1" y2="1.22857" style="stroke:rgb(246,147,147);stroke-width:0.01" />
<line x1="0.4" y1="0.428571" x2="0.35" y2="0.778571" style="stroke:rgb(246,147,147);stroke-width:0.01" />
<line x1="0.5" y1="0.978571" x2="0.45" y2="1.32857" style="stroke:rgb(246,147,147);stroke-width:0.01" />
<line x1="0.35" y1="0.778571" x2="0.65" y2="1.17857" style="stroke:rgb(246,147,147);stroke-width:0.01" />
<line x1="0.7" y1="0.828571" x2="0.65" y2="1.17857" style="stroke:rgb(246,147,147);stroke-width:0.01" />
<line x1="0.15" y1="0.928571" x2="0.45" y2="1.32857" style="stroke:rgb(246,147,147);stroke-width:0.01" />
<line x1="0.55" y1="0.628571" x2="0.15" y2="0.928571" style="stroke:rgb(246,147,147);stroke-width:0.01" />
<line x1="0.35" y1="0.778571" x2="0.7" y2="0.828571" style="stroke:rgb(246,147,147);stroke-width:0.01" />
<line x1="0.7" y1="0.828571" x2="0.5" y2="0.978571" style="stroke:rgb(246,147,147);stroke-width:0.01" />
<line x1="0.15" y1="0.928571" x2="0.5" y2="0.978571" style="stroke:rgb(246,147,147);stroke-width:0.01" />
<line x1="0.65" y1="1.17857" x2="1" y2="1.22857" style="stroke:rgb(246,147,147);stroke-width:0.01" />
<line x1="0.85" y1="1.02857" x2="0.45" y2="1.32857" style="stroke:rgb(246,147,147);stroke-width:0.01" />
</g>
</svg>
