<svg xmlns="http://www.w3.org/2000/svg" viewBox="-1.5 -1.5 3 3">
<g transform="scale(1, -1)">
<path d="M-0.100000 -0.550000 L0.500000 0.250000 L0.150000 0.200000 L-0.050000 0.350000 L-0.350000 -0.050000 L-0.150000 -0.200000 z " fill="rgb(245,195,195)" />
<path d="M-0.500000 -0.978571 L0.500000 -0.978571 L0.500000 0.021429 L-0.500000 0.021429  z" fill="none" stroke="rgb(128,128,128)" stroke-width="0.01" />
<line x1="-0.1" y1="-0.55" x2="0.5" y2="0.25" style="stroke:rgb(246,147,147);stroke-width:0.01" />
<line x1="-0.1" y1="-0.55" x2="-0.15" y2="-0.2" style="stroke:rgb(246,147,147);stroke-width:0.01" />
<line x1="0" y1="0" x2="-0.05" y2="0.35" style="stroke:rgb(246,147,147);stroke-width:0.01" />
<line x1="-0.15" y1="-0.2" x2="0.15" y2="0.2" style="stroke:rgb(246,147,147);stroke-width:0.01" />
<line x1="0.2" y1="-0.15" x2="0.15" y2="0.2" style="stroke:rgb(246,147,147);stroke-width:0.01" />
<line x1="-0.35" y1="-0.05" x2="-0.05" y2="0.35" style="stroke:rgb(246,147,147);stroke-width:0.01" />
<line x1="0.05" y1="-0.35" x2="-0.35" y2="-0.05" style="stroke:rgb(246,147,147);stroke-width:0.01" />
<line x1="-0.15" y1="-0.2" x2="0.2" y2="-0.15" style="stroke:rgb(246,147,147);stroke-width:0.01" />
<line x1="0.2" y1="-0.15" x2="0" y2="0" style="stroke:rgb(246,147,147);stroke-width:0.01" />
<line x1="-0.35" y1="-0.05" x2="0" y2="0" style="stroke:rgb(246,147,147);stroke-width:0.01" />
<line x1="0.15" y1="0.2" x2="0.5" y2="0.25" style="stroke:rgb(246,147,147);stroke-width:0.01" />
<line x1="0.35" y1="0.05" x2="-0.05" y2="0.35" style="stroke:rgb(246,147,147);stroke-width:0.01" />
</g>
</svg>
