<svg xmlns="http://www.w3.org/2000/svg" viewBox="-1.5 -1.5 3 3">
<g transform="scale(1, -1)">
<path d="M0.038462 -0.557692 L0.423077 0.365385 L0.096154 0.230769 L-0.134615 0.326923 L-0.326923 -0.134615 L-0.096154 -0.230769 z " fill="rgb(245,195,195)" />
<path d="M-0.390110 -0.957692 L0.609890 -0.957692 L0.609890 0.042308 L-0.390110 0.042308  z" fill="none" stroke="rgb(128,128,128)" stroke-width="0.01" />
<line x1="0.0384615" y1="-0.557692" x2="0.423077" y2="0.365385" style="stroke:rgb(246,147,147);stroke-width:0.01" />
<line x1="-0.0961538" y1="-0.230769" x2="0.0961538" y2="0.230769" style="stroke:rgb(246,147,147);stroke-width:0.01" />
<line x1="-0.326923" y1="-0.134615" x2="-0.134615" y2="0.326923" style="stroke:rgb(246,147,147);stroke-width:0.01" />
<line x1="0.0384615" y1="-0.557692" x2="-0.0961538" y2="-0.230769" style="stroke:rgb(246,147,147);stroke-width:0.01" />
<line x1="0" y1="0" x2="-0.134615" y2="0.326923" style="stroke:rgb(246,147,147);stroke-width:0.01" />
<line x1="0.230769" y1="-0.0961538" x2="0.0961538" y2="0.230769" style="stroke:rgb(246,147,147);stroke-width:0.01" />
<line x1="-0.0961538" y1="-0.230769" x2="0.230769" y2="-0.0961538" style="stroke:rgb(246,147,147);stroke-width:0.01" />
<line x1="-0.326923" y1="-0.134615" x2="0" y2="0" style="stroke:rgb(246,147,147);stroke-width:0.01" />
<line x1="0.134615" y1="-0.326923" x2="-0.326923" y2="-0.134615" style="stroke:rgb(246,147,147);stroke-width:0.01" />
<line x1="0.0961538" y1="0.230769" x2="0.423077" y2="0.365385" style="stroke:rgb(246,147,147);stroke-width:0.01" />
<line x1="0.230769" y1="-0.0961538" x2="0" y2="0" style="stroke:rgb(246,147,147);stroke-width:0.01" />
<line x1="0.326923" y1="0.134615" x2="-0.134615" y2="0.326923" style="stroke:rgb(246,147,147);stroke-width:0.01" />
</g>
</svg>
