<svg xmlns="http://www.w3.org/2000/svg" viewBox="-1.5 -1.5 3 3">
<g transform="scale(1, -1)">
<path d="M0.428571 0.400000 L0.813187 1.323077 L0.486264 1.188462 L0.255495 1.284615 L0.063187 0.823077 L0.293956 0.726923 z " fill="rgb(245,195,195)" />
<path d="M0.000000 0.000000 L1.000000 0.000000 L1.000000 1.000000 L0.000000 1.000000  z" fill="none" stroke="rgb(128,128,128)" stroke-width="0.01" />
<line x1="0.428571" y1="0.4" x2="0.813187" y2="1.32308" style="stroke:rgb(246,147,147);stroke-width:0.01" />
<line x1="0.293956" y1="0.726923" x2="0.486264" y2="1.18846" style="stroke:rgb(246,147,147);stroke-width:0.01" />
<line x1="0.0631868" y1="0.823077" x2="0.255495" y2="1.28462" style="stroke:rgb(246,147,147);stroke-width:0.01" />
<line x1="0.428571" y1="0.4" x2="0.293956" y2="0.726923" style="stroke:rgb(246,147,147);stroke-width:0.01" />
<line x1="0.39011" y1="0.957692" x2="0.255495" y2="1.28462" style="stroke:rgb(246,147,147);stroke-width:0.01" />
<line x1="0.620879" y1="0.861538" x2="0.486264" y2="1.18846" style="stroke:rgb(246,147,147);stroke-width:0.01" />
<line x1="0.293956" y1="0.726923" x2="0.620879" y2="0.861538" style="stroke:rgb(246,147,147);stroke-width:0.01" />
<line x1="0.0631868" y1="0.823077" x2="0.39011" y2="0.957692" style="stroke:rgb(246,147,147);stroke-width:0.01" />
<line x1="0.524725" y1="0.630769" x2="0.0631868" y2="0.823077" style="stroke:rgb(246,147,147);stroke-width:0.01" />
<line x1="0.486264" y1="1.18846" x2="0.813187" y2="1.32308" style="stroke:rgb(246,147,147);stroke-width:0.01" />
<line x1="0.620879" y1="0.861538" x2="0.39011" y2="0.957692" style="stroke:rgb(246,147,147);stroke-width:0.01" />
<line x1="0.717033" y1="1.09231" x2="0.255495" y2="1.28462" style="stroke:rgb(246,147,147);stroke-width:0.01" />
</g>
</svg>
