<svg xmlns="http://www.w3.org/2000/svg" viewBox="-1.5 -1.5 3 3">
<g transform="scale(1, -1)">
<path d="M0.428571 0.400000 L0.708571 1.360000 L0.398571 1.190000 L0.158571 1.260000 L0.018571 0.780000 L0.258571 0.710000 z " fill="rgb(245,195,195)" />
<path d="M0.000000 0.000000 L1.000000 0.000000 L1.000000 1.000000 L0.000000 1.000000  z" fill="none" stroke="rgb(128,128,128)" stroke-width="0.01" />
<line x1="0.428571" y1="0.4" x2="0.708571" y2="1.36" style="stroke:rgb(246,147,147);stroke-width:0.01" />
<line x1="0.258571" y1="0.71" x2="0.398571" y2="1.19" style="stroke:rgb(246,147,147);stroke-width:0.01" />
<line x1="0.0185714" y1="0.78" x2="0.158571" y2="1.26" style="stroke:rgb(246,147,147);stroke-width:0.01" />
<line x1="0.428571" y1="0.4" x2="0.258571" y2="0.71" style="stroke:rgb(246,147,147);stroke-width:0.01" />
<line x1="0.328571" y1="0.95" x2="0.158571" y2="1.26" style="stroke:rgb(246,147,147);stroke-width:0.01" />
<line x1="0.258571" y1="0.71" x2="0.568571" y2="0.88" style="stroke:rgb(246,147,147);stroke-width:0.01" />
<line x1="0.568571" y1="0.88" x2="0.398571" y2="1.19" style="stroke:rgb(246,147,147);stroke-width:0.01" />
<line x1="0.0185714" y1="0.78" x2="0.328571" y2="0.95" style="stroke:rgb(246,147,147);stroke-width:0.01" />
<line x1="0.498571" y1="0.64" x2="0.0185714" y2="0.78" style="stroke:rgb(246,147,147);stroke-width:0.01" />
<line x1="0.398571" y1="1.19" x2="0.708571" y2="1.36" style="stroke:rgb(246,147,147);stroke-width:0.01" />
<line x1="0.568571" y1="0.88" x2="0.328571" y2="0.95" style="stroke:rgb(246,147,147);stroke-width:0.01" />
<line x1="0.638571" y1="1.12" x2="0.158571" y2="1.26" style="stroke:rgb(246,147,147);stroke-width:0.01" />
</g>
</svg>
