<svg xmlns="http://www.w3.org/2000/svg" viewBox="-1.5 -1.5 3 3">
<g transform="scale(1, -1)">
<path d="M-0.288888 -0.305360 L-0.178870 -0.114151 L0.092264 0.000000 L0.029924 0.308731 L-1.050781 0.375622 L-1.155651 0.193360 L-0.915991 0.055464 L-0.830917 -0.146606 L-0.472442 -0.199746 z " fill="rgb(245,195,195)" />
<path d="M0.000000 0.000000 L1.000000 0.000000 L1.000000 1.000000 L0.000000 1.000000  z" fill="none" stroke="rgb(128,128,128)" stroke-width="0.01" />
<line x1="-0.288888" y1="-0.30536" x2="-1.15565" y2="0.19336" style="stroke:rgb(246,147,147);stroke-width:0.01" />
<line x1="-0.405684" y1="-0.209642" x2="-0.688421" y2="0.0250562" style="stroke:rgb(246,147,147);stroke-width:0.01" />
<line x1="-0.830917" y1="-0.146606" x2="-1.05078" y2="0.375622" style="stroke:rgb(246,147,147);stroke-width:0.01" />
<line x1="-0.405684" y1="-0.209642" x2="-0.830917" y2="-0.146606" style="stroke:rgb(246,147,147);stroke-width:0.01" />
<line x1="-0.405684" y1="-0.209642" x2="0.0922643" y2="0" style="stroke:rgb(246,147,147);stroke-width:0.01" />
<line x1="0" y1="0" x2="0.0922643" y2="0" style="stroke:rgb(246,147,147);stroke-width:0.01" />
<line x1="0" y1="0" x2="0" y2="0.310583" style="stroke:rgb(246,147,147);stroke-width:0.01" />
<line x1="-0.0180471" y1="0.165355" x2="0" y2="0.310583" style="stroke:rgb(246,147,147);stroke-width:0.01" />
<line x1="0.0922643" y1="0" x2="0.0299245" y2="0.308731" style="stroke:rgb(246,147,147);stroke-width:0.01" />
<line x1="-0.0180471" y1="0.165355" x2="0.0299245" y2="0.308731" style="stroke:rgb(246,147,147);stroke-width:0.01" />
<line x1="-0.288888" y1="-0.30536" x2="-0.0180471" y2="0.165355" style="stroke:rgb(246,147,147);stroke-width:0.01" />
<line x1="0.0299245" y1="0.308731" x2="-1.05078" y2="0.375622" style="stroke:rgb(246,147,147);stroke-width:0.01" />
<line x1="-0.830917" y1="-0.146606" x2="-0.688421" y2="0.0250562" style="stroke:rgb(246,147,147);stroke-width:0.01" />
<line x1="-1.15565" y1="0.19336" x2="-1.05078" y2="0.375622" style="stroke:rgb(246,147,147);stroke-width:0.01" />
</g>
</svg>
