<svg xmlns="http://www.w3.org/2000/svg" viewBox="-1.5 -1.5 3 3">
<g transform="scale(1, -1)">
<path d="M0.400000 0.428571 L0.784615 1.351648 L0.457692 1.217033 L0.226923 1.313187 L0.034615 0.851648 L0.265385 0.755495 z " fill="rgb(245,195,195)" />
<path d="M0.000000 0.000000 L1.000000 0.000000 L1.000000 1.000000 L0.000000 1.000000  z" fill="none" stroke="rgb(128,128,128)" stroke-width="0.01" />
<line x1="0.4" y1="0.428571" x2="0.784615" y2="1.35165" style="stroke:rgb(246,147,147);stroke-width:0.01" />
<line x1="0.265385" y1="0.755495" x2="0.457692" y2="1.21703" style="stroke:rgb(246,147,147);stroke-width:0.01" />
<line x1="0.0346154" y1="0.851648" x2="0.226923" y2="1.31319" style="stroke:rgb(246,147,147);stroke-width:0.01" />
<line x1="0.4" y1="0.428571" x2="0.265385" y2="0.755495" style="stroke:rgb(246,147,147);stroke-width:0.01" />
<line x1="0.361538" y1="0.986264" x2="0.226923" y2="1.31319" style="stroke:rgb(246,147,147);stroke-width:0.01" />
<line x1="0.592308" y1="0.89011" x2="0.457692" y2="1.21703" style="stroke:rgb(246,147,147);stroke-width:0.01" />
<line x1="0.265385" y1="0.755495" x2="0.592308" y2="0.89011" style="stroke:rgb(246,147,147);stroke-width:0.01" />
<line x1="0.0346154" y1="0.851648" x2="0.361538" y2="0.986264" style="stroke:rgb(246,147,147);stroke-width:0.01" />
<line x1="0.496154" y1="0.659341" x2="0.0346154" y2="0.851648" style="stroke:rgb(246,147,147);stroke-width:0.01" />
<line x1="0.457692" y1="1.21703" x2="0.784615" y2="1.35165" style="stroke:rgb(246,147,147);stroke-width:0.01" />
<line x1="0.592308" y1="0.89011" x2="0.361538" y2="0.986264" style="stroke:rgb(246,147,147);stroke-width:0.01" />
<line x1="0.688462" y1="1.12088" x2="0.226923" y2="1.31319" style="stroke:rgb(246,147,147);stroke-width:0.01" />
</g>
</svg>
