<svg xmlns="http://www.w3.org/2000/svg" viewBox="-1.5 -1.5 3 3">
<g transform="scale(1, -1)">
<path d="M0.428571 0.400000 L1.310924 0.870588 L0.972689 0.973529 L0.855042 1.194118 L0.413866 0.958824 L0.531513 0.738235 z " fill="rgb(245,195,195)" />
<path d="M0.000000 0.000000 L1.000000 0.000000 L1.000000 1.000000 L0.000000 1.000000  z" fill="none" stroke="rgb(128,128,128)" stroke-width="0.01" />
<line x1="0.869748" y1="0.635294" x2="0.972689" y2="0.973529" style="stroke:rgb(246,147,147);stroke-width:0.01" />
<line x1="0.752101" y1="0.855882" x2="0.855042" y2="1.19412" style="stroke:rgb(246,147,147);stroke-width:0.01" />
<line x1="0.428571" y1="0.4" x2="0.531513" y2="0.738235" style="stroke:rgb(246,147,147);stroke-width:0.01" />
<line x1="0.428571" y1="0.4" x2="1.31092" y2="0.870588" style="stroke:rgb(246,147,147);stroke-width:0.01" />
<line x1="0.531513" y1="0.738235" x2="0.972689" y2="0.973529" style="stroke:rgb(246,147,147);stroke-width:0.01" />
<line x1="0.64916" y1="0.517647" x2="0.413866" y2="0.958824" style="stroke:rgb(246,147,147);stroke-width:0.01" />
<line x1="0.869748" y1="0.635294" x2="0.752101" y2="0.855882" style="stroke:rgb(246,147,147);stroke-width:0.01" />
<line x1="0.413866" y1="0.958824" x2="0.855042" y2="1.19412" style="stroke:rgb(246,147,147);stroke-width:0.01" />
<line x1="1.09034" y1="0.752941" x2="0.855042" y2="1.19412" style="stroke:rgb(246,147,147);stroke-width:0.01" />
<line x1="0.869748" y1="0.635294" x2="0.531513" y2="0.738235" style="stroke:rgb(246,147,147);stroke-width:0.01" />
<line x1="0.752101" y1="0.855882" x2="0.413866" y2="0.958824" style="stroke:rgb(246,147,147);stroke-width:0.01" />
<line x1="1.31092" y1="0.870588" x2="0.972689" y2="0.973529" style="stroke:rgb(246,147,147);stroke-width:0.01" />
</g>
</svg>
