<svg xmlns="http://www.w3.org/2000/svg" viewBox="-1.5 -1.5 3 3">
<g transform="scale(1, -1)">
<path d="M-0.189655 -0.525862 L0.534483 0.163793 L0.181034 0.172414 L0.008621 0.353448 L-0.353448 0.008621 L-0.181034 -0.172414 z " fill="rgb(245,195,195)" />
<path d="M-3.689655 -2.192529 L-2.689655 -2.192529 L-2.689655 -1.192529 L-3.689655 -1.192529  z" fill="none" stroke="rgb(128,128,128)" stroke-width="0.01" />
<line x1="-0.189655" y1="-0.525862" x2="0.534483" y2="0.163793" style="stroke:rgb(246,147,147);stroke-width:0.01" />
<line x1="-0.181034" y1="-0.172414" x2="0.181034" y2="0.172414" style="stroke:rgb(246,147,147);stroke-width:0.01" />
<line x1="-0.353448" y1="0.00862069" x2="0.00862069" y2="0.353448" style="stroke:rgb(246,147,147);stroke-width:0.01" />
<line x1="0.172414" y1="-0.181034" x2="0.181034" y2="0.172414" style="stroke:rgb(246,147,147);stroke-width:0.01" />
<line x1="0" y1="0" x2="0.00862069" y2="0.353448" style="stroke:rgb(246,147,147);stroke-width:0.01" />
<line x1="-0.189655" y1="-0.525862" x2="-0.181034" y2="-0.172414" style="stroke:rgb(246,147,147);stroke-width:0.01" />
<line x1="0.172414" y1="-0.181034" x2="-0.181034" y2="-0.172414" style="stroke:rgb(246,147,147);stroke-width:0.01" />
<line x1="0" y1="0" x2="-0.353448" y2="0.00862069" style="stroke:rgb(246,147,147);stroke-width:0.01" />
<line x1="0.534483" y1="0.163793" x2="0.181034" y2="0.172414" style="stroke:rgb(246,147,147);stroke-width:0.01" />
<line x1="-0.00862069" y1="-0.353448" x2="-0.353448" y2="0.00862069" style="stroke:rgb(246,147,147);stroke-width:0.01" />
<line x1="0.172414" y1="-0.181034" x2="0" y2="0" style="stroke:rgb(246,147,147);stroke-width:0.01" />
<line x1="0.353448" y1="-0.00862069" x2="0.00862069" y2="0.353448" style="stroke:rgb(246,147,147);stroke-width:0.01" />
</g>
</svg>
