<svg xmlns="http://www.w3.org/2000/svg" viewBox="-1.5 -1.5 3 3">
<g transform="scale(1, -1)">
<path d="M-0.323529 -0.455882 L0.558824 0.014706 L0.220588 0.117647 L0.102941 0.338235 L-0.338235 0.102941 L-0.220588 -0.117647 z " fill="rgb(245,195,195)" />
<path d="M-3.823529 -2.122549 L-2.823529 -2.122549 L-2.823529 -1.122549 L-3.823529 -1.122549  z" fill="none" stroke="rgb(128,128,128)" stroke-width="0.01" />
<line x1="0.117647" y1="-0.220588" x2="0.220588" y2="0.117647" style="stroke:rgb(246,147,147);stroke-width:0.01" />
<line x1="0" y1="0" x2="0.102941" y2="0.338235" style="stroke:rgb(246,147,147);stroke-width:0.01" />
<line x1="-0.323529" y1="-0.455882" x2="-0.220588" y2="-0.117647" style="stroke:rgb(246,147,147);stroke-width:0.01" />
<line x1="-0.323529" y1="-0.455882" x2="0.558824" y2="0.0147059" style="stroke:rgb(246,147,147);stroke-width:0.01" />
<line x1="-0.220588" y1="-0.117647" x2="0.220588" y2="0.117647" style="stroke:rgb(246,147,147);stroke-width:0.01" />
<line x1="-0.338235" y1="0.102941" x2="0.102941" y2="0.338235" style="stroke:rgb(246,147,147);stroke-width:0.01" />
<line x1="-0.102941" y1="-0.338235" x2="-0.338235" y2="0.102941" style="stroke:rgb(246,147,147);stroke-width:0.01" />
<line x1="0.117647" y1="-0.220588" x2="0" y2="0" style="stroke:rgb(246,147,147);stroke-width:0.01" />
<line x1="0.338235" y1="-0.102941" x2="0.102941" y2="0.338235" style="stroke:rgb(246,147,147);stroke-width:0.01" />
<line x1="0.117647" y1="-0.220588" x2="-0.220588" y2="-0.117647" style="stroke:rgb(246,147,147);stroke-width:0.01" />
<line x1="0" y1="0" x2="-0.338235" y2="0.102941" style="stroke:rgb(246,147,147);stroke-width:0.01" />
<line x1="0.558824" y1="0.0147059" x2="0.220588" y2="0.117647" style="stroke:rgb(246,147,147);stroke-width:0.01" />
</g>
</svg>
