<svg xmlns="http://www.w3.org/2000/svg" viewBox="-1.5 -1.5 3 3">
<g transform="scale(1, -1)">
<path d="M-0.276396 -0.286953 L0.505879 -0.096383 L0.492227 0.063717 L0.221002 0.153546 L0.193274 0.069826 L-0.064161 0.308378 L-0.325211 0.192251 L-0.203278 -0.081852 L-0.206779 -0.091672 L-0.336557 -0.230859 z " fill="rgb(245,195,195)" />
<path d="M-0.240966 0.389347 L0.759034 0.389347 L0.759034 1.389347 L-0.240966 1.389347  z" fill="none" stroke="rgb(128,128,128)" stroke-width="0.01" />
<line x1="-0.276396" y1="-0.286953" x2="0.505879" y2="-0.0963835" style="stroke:rgb(246,147,147);stroke-width:0.01" />
<line x1="-0.0718483" y1="-0.237123" x2="-0.146843" y2="-0.23622" style="stroke:rgb(246,147,147);stroke-width:0.01" />
<line x1="-0.0718483" y1="-0.237123" x2="0.492227" y2="0.0637172" style="stroke:rgb(246,147,147);stroke-width:0.01" />
<line x1="-0.276396" y1="-0.286953" x2="-0.336557" y2="-0.230859" style="stroke:rgb(246,147,147);stroke-width:0.01" />
<line x1="-0.143831" y1="0.0137623" x2="0.454373" y2="0.0279131" style="stroke:rgb(246,147,147);stroke-width:0.01" />
<line x1="0.400376" y1="-0.122085" x2="0.454373" y2="0.0279131" style="stroke:rgb(246,147,147);stroke-width:0.01" />
<line x1="-0.336557" y1="-0.230859" x2="-0.107673" y2="0.0146176" style="stroke:rgb(246,147,147);stroke-width:0.01" />
<line x1="0.105959" y1="-0.193808" x2="0.221002" y2="0.153546" style="stroke:rgb(246,147,147);stroke-width:0.01" />
<line x1="-0.325211" y1="0.192251" x2="-0.0641609" y2="0.308378" style="stroke:rgb(246,147,147);stroke-width:0.01" />
<line x1="0.105959" y1="-0.193808" x2="-0.107673" y2="0.0146176" style="stroke:rgb(246,147,147);stroke-width:0.01" />
<line x1="0.492227" y1="0.0637172" x2="0.221002" y2="0.153546" style="stroke:rgb(246,147,147);stroke-width:0.01" />
<line x1="-0.276396" y1="-0.286953" x2="-0.0641609" y2="0.308378" style="stroke:rgb(246,147,147);stroke-width:0.01" />
<line x1="-0.128109" y1="-0.250829" x2="-0.325211" y2="0.192251" style="stroke:rgb(246,147,147);stroke-width:0.01" />
<line x1="-0.146843" y1="-0.23622" x2="-0.143831" y2="0.0137623" style="stroke:rgb(246,147,147);stroke-width:0.01" />
<line x1="-0.128109" y1="-0.250829" x2="-0.143831" y2="0.0137623" style="stroke:rgb(246,147,147);stroke-width:0.01" />
<line x1="0.400376" y1="-0.122085" x2="-0.0641609" y2="0.308378" style="stroke:rgb(246,147,147);stroke-width:0.01" />
<line x1="0.505879" y1="-0.0963835" x2="0.492227" y2="0.0637172" style="stroke:rgb(246,147,147);stroke-width:0.01" />
<line x1="0.505879" y1="-0.0963835" x2="0.454373" y2="0.0279131" style="stroke:rgb(246,147,147);stroke-width:0.01" />
</g>
</svg>
