<svg xmlns="http://www.w3.org/2000/svg" viewBox="-1.5 -1.5 3 3">
<g transform="scale(1, -1)">
<path d="M-0.125000 -0.195312 L0.000000 -0.070312 L0.000000 -0.007812 L0.062500 -0.007812 L0.125000 0.054688 L0.062500 0.117188 L0.000000 0.117188 L-0.125000 -0.007812 z " fill="rgb(245,195,195)" />
<path d="M-0.125000 -0.195312 L0.875000 -0.195312 L0.875000 0.804688 L-0.125000 0.804688  z" fill="none" stroke="rgb(128,128,128)" stroke-width="0.01" />
<line x1="-0.125" y1="-0.195312" x2="0" y2="-0.0703125" style="stroke:rgb(246,147,147);stroke-width:0.01" />
<line x1="0.0625" y1="-0.0078125" x2="0.125" y2="0.0546875" style="stroke:rgb(246,147,147);stroke-width:0.01" />
<line x1="-0.125" y1="-0.195312" x2="-0.125" y2="-0.0078125" style="stroke:rgb(246,147,147);stroke-width:0.01" />
<line x1="0" y1="-0.0703125" x2="0" y2="0.117188" style="stroke:rgb(246,147,147);stroke-width:0.01" />
<line x1="0.0625" y1="-0.0078125" x2="0.0625" y2="0.117188" style="stroke:rgb(246,147,147);stroke-width:0.01" />
<line x1="-0.125" y1="-0.0078125" x2="0" y2="0.117188" style="stroke:rgb(246,147,147);stroke-width:0.01" />
<line x1="-0.125" y1="-0.0703125" x2="0" y2="-0.0703125" style="stroke:rgb(246,147,147);stroke-width:0.01" />
<line x1="-0.125" y1="-0.0078125" x2="0.0625" y2="-0.0078125" style="stroke:rgb(246,147,147);stroke-width:0.01" />
<line x1="0.125" y1="0.0546875" x2="0.0625" y2="0.117188" style="stroke:rgb(246,147,147);stroke-width:0.01" />
<line x1="0" y1="0.117188" x2="0.0625" y2="0.117188" style="stroke:rgb(246,147,147);stroke-width:0.01" />
</g>
</svg>
