<svg xmlns="http://www.w3.org/2000/svg" viewBox="-1.5 -1.5 3 3">
<g transform="scale(1, -1)">
<path d="M-0.055556 -0.131944 L0.006944 -0.069444 L0.006944 -0.006944 L0.069444 -0.006944 L0.131944 0.055556 L0.069444 0.118056 L0.006944 0.118056 L-0.118056 -0.006944 L-0.118056 -0.069444 z " fill="rgb(245,195,195)" />
<path d="M-0.118056 -0.194444 L0.881944 -0.194444 L0.881944 0.805556 L-0.118056 0.805556  z" fill="none" stroke="rgb(128,128,128)" stroke-width="0.01" />
<line x1="-0.0555556" y1="-0.131944" x2="0.00694444" y2="-0.0694444" style="stroke:rgb(246,147,147);stroke-width:0.01" />
<line x1="0.0694444" y1="-0.00694444" x2="0.131944" y2="0.0555556" style="stroke:rgb(246,147,147);stroke-width:0.01" />
<line x1="-0.118056" y1="-0.0694444" x2="-0.118056" y2="-0.00694444" style="stroke:rgb(246,147,147);stroke-width:0.01" />
<line x1="-0.0555556" y1="-0.00694444" x2="-0.0555556" y2="0.0555556" style="stroke:rgb(246,147,147);stroke-width:0.01" />
<line x1="0.00694444" y1="-0.0694444" x2="0.00694444" y2="0.118056" style="stroke:rgb(246,147,147);stroke-width:0.01" />
<line x1="0.0694444" y1="-0.00694444" x2="0.0694444" y2="0.118056" style="stroke:rgb(246,147,147);stroke-width:0.01" />
<line x1="-0.0555556" y1="-0.131944" x2="-0.118056" y2="-0.0694444" style="stroke:rgb(246,147,147);stroke-width:0.01" />
<line x1="-0.118056" y1="-0.00694444" x2="0.00694444" y2="0.118056" style="stroke:rgb(246,147,147);stroke-width:0.01" />
<line x1="-0.118056" y1="-0.0694444" x2="0.00694444" y2="-0.0694444" style="stroke:rgb(246,147,147);stroke-width:0.01" />
<line x1="-0.118056" y1="-0.00694444" x2="0.0694444" y2="-0.00694444" style="stroke:rgb(246,147,147);stroke-width:0.01" />
<line x1="-0.0555556" y1="0.0555556" x2="0.00694444" y2="0.0555556" style="stroke:rgb(246,147,147);stroke-width:0.01" />
<line x1="0.131944" y1="0.0555556" x2="0.0694444" y2="0.118056" style="stroke:rgb(246,147,147);stroke-width:0.01" />
<line x1="0.00694444" y1="0.118056" x2="0.0694444" y2="0.118056" style="stroke:rgb(246,147,147);stroke-width:0.01" />
</g>
</svg>
