<svg xmlns="http://www.w3.org/2000/svg" viewBox="-1.5 -1.5 3 3">
<g transform="scale(1, -1)">
<path d="M-0.125000 -0.159722 L0.062500 -0.159722 L0.062500 -0.034722 L0.000000 -0.034722 L0.000000 0.027778 L0.062500 0.027778 L0.062500 0.152778 L0.000000 0.152778 L-0.125000 0.027778 z " fill="rgb(245,195,195)" />
<path d="M-0.125000 -0.159722 L0.875000 -0.159722 L0.875000 0.840278 L-0.125000 0.840278  z" fill="none" stroke="rgb(128,128,128)" stroke-width="0.01" />
<line x1="-0.125" y1="-0.159722" x2="0.0625" y2="-0.159722" style="stroke:rgb(246,147,147);stroke-width:0.01" />
<line x1="-0.125" y1="-0.159722" x2="-0.125" y2="0.0277778" style="stroke:rgb(246,147,147);stroke-width:0.01" />
<line x1="0" y1="-0.159722" x2="0" y2="0.152778" style="stroke:rgb(246,147,147);stroke-width:0.01" />
<line x1="0.0625" y1="-0.159722" x2="0.0625" y2="-0.0347222" style="stroke:rgb(246,147,147);stroke-width:0.01" />
<line x1="0.0625" y1="0.0277778" x2="0.0625" y2="0.152778" style="stroke:rgb(246,147,147);stroke-width:0.01" />
<line x1="0" y1="-0.159722" x2="-0.125" y2="-0.0347222" style="stroke:rgb(246,147,147);stroke-width:0.01" />
<line x1="-0.125" y1="0.0277778" x2="0" y2="0.152778" style="stroke:rgb(246,147,147);stroke-width:0.01" />
<line x1="-0.125" y1="-0.0347222" x2="0.0625" y2="-0.0347222" style="stroke:rgb(246,147,147);stroke-width:0.01" />
<line x1="-0.125" y1="0.0277778" x2="0.0625" y2="0.0277778" style="stroke:rgb(246,147,147);stroke-width:0.01" />
<line x1="0" y1="0.152778" x2="0.0625" y2="0.152778" style="stroke:rgb(246,147,147);stroke-width:0.01" />
</g>
</svg>
