<svg xmlns="http://www.w3.org/2000/svg" viewBox="-1.5 -1.5 3 3">
<g transform="scale(1, -1)">
<path d="M-0.188152 -0.225594 L0.146072 -0.158749 L0.132706 0.059027 L0.187213 0.061420 L0.213586 0.051305 L0.217983 0.062771 L0.330811 0.067724 L0.348453 0.227434 L0.293139 0.258732 L-0.317936 0.039244 L-0.442347 -0.054510 L-0.437054 -0.136594 L-0.247145 -0.124350 L-0.237329 -0.127862 z " fill="rgb(245,195,195)" />
<path d="M-0.478059 -0.450242 L0.521941 -0.450242 L0.521941 0.549758 L-0.478059 0.549758  z" fill="none" stroke="rgb(128,128,128)" stroke-width="0.01" />
<line x1="0.222327" y1="0.0629617" x2="0.304376" y2="0.199647" style="stroke:rgb(246,147,147);stroke-width:0.01" />
<line x1="0.213586" y1="0.0513054" x2="0.293139" y2="0.258732" style="stroke:rgb(246,147,147);stroke-width:0.01" />
<line x1="0.330811" y1="0.0677241" x2="0.348453" y2="0.227434" style="stroke:rgb(246,147,147);stroke-width:0.01" />
<line x1="-0.0444825" y1="-0.19686" x2="0.110431" y2="-0.0558682" style="stroke:rgb(246,147,147);stroke-width:0.01" />
<line x1="-0.0804086" y1="0.0496717" x2="-0.0272266" y2="0.143662" style="stroke:rgb(246,147,147);stroke-width:0.01" />
<line x1="-0.125688" y1="-0.142435" x2="0.185797" y2="0.220177" style="stroke:rgb(246,147,147);stroke-width:0.01" />
<line x1="-0.188152" y1="-0.225594" x2="-0.174556" y2="-0.035486" style="stroke:rgb(246,147,147);stroke-width:0.01" />
<line x1="-0.437054" y1="-0.136594" x2="-0.442347" y2="-0.0545098" style="stroke:rgb(246,147,147);stroke-width:0.01" />
<line x1="-0.102121" y1="-0.115" x2="-0.121724" y2="0.10972" style="stroke:rgb(246,147,147);stroke-width:0.01" />
<line x1="0.146072" y1="-0.158749" x2="0.124174" y2="0.198043" style="stroke:rgb(246,147,147);stroke-width:0.01" />
<line x1="-0.321021" y1="0.0135942" x2="-0.29353" y2="0.0480107" style="stroke:rgb(246,147,147);stroke-width:0.01" />
<line x1="-0.188152" y1="-0.225594" x2="0.146072" y2="-0.158749" style="stroke:rgb(246,147,147);stroke-width:0.01" />
<line x1="-0.188152" y1="-0.225594" x2="-0.320458" y2="0.0373443" style="stroke:rgb(246,147,147);stroke-width:0.01" />
<line x1="0.330811" y1="0.0677241" x2="0.304376" y2="0.199647" style="stroke:rgb(246,147,147);stroke-width:0.01" />
<line x1="0.146072" y1="-0.158749" x2="0.110431" y2="-0.0558682" style="stroke:rgb(246,147,147);stroke-width:0.01" />
<line x1="-0.442347" y1="-0.0545098" x2="-0.317936" y2="0.0392442" style="stroke:rgb(246,147,147);stroke-width:0.01" />
<line x1="-0.437054" y1="-0.136594" x2="-0.102121" y2="-0.115" style="stroke:rgb(246,147,147);stroke-width:0.01" />
<line x1="-0.125688" y1="-0.142435" x2="-0.320458" y2="0.0373443" style="stroke:rgb(246,147,147);stroke-width:0.01" />
<line x1="-0.0804086" y1="0.0496717" x2="-0.121724" y2="0.10972" style="stroke:rgb(246,147,147);stroke-width:0.01" />
<line x1="-0.125688" y1="-0.142435" x2="-0.321021" y2="0.0135942" style="stroke:rgb(246,147,147);stroke-width:0.01" />
<line x1="-0.0444825" y1="-0.19686" x2="-0.442347" y2="-0.0545098" style="stroke:rgb(246,147,147);stroke-width:0.01" />
<line x1="-0.317936" y1="0.0392442" x2="0.293139" y2="0.258732" style="stroke:rgb(246,147,147);stroke-width:0.01" />
<line x1="-0.26324" y1="0.0416454" x2="0.348453" y2="0.227434" style="stroke:rgb(246,147,147);stroke-width:0.01" />
<line x1="0.110431" y1="-0.0558682" x2="-0.174556" y2="-0.035486" style="stroke:rgb(246,147,147);stroke-width:0.01" />
<line x1="-0.317936" y1="0.0392442" x2="0.330811" y2="0.0677241" style="stroke:rgb(246,147,147);stroke-width:0.01" />
<line x1="0.222327" y1="0.0629617" x2="0.124174" y2="0.198043" style="stroke:rgb(246,147,147);stroke-width:0.01" />
<line x1="-0.26324" y1="0.0416454" x2="-0.29353" y2="0.0480107" style="stroke:rgb(246,147,147);stroke-width:0.01" />
<line x1="0.213586" y1="0.0513054" x2="-0.0272266" y2="0.143662" style="stroke:rgb(246,147,147);stroke-width:0.01" />
<line x1="0.304376" y1="0.199647" x2="0.185797" y2="0.220177" style="stroke:rgb(246,147,147);stroke-width:0.01" />
<line x1="0.348453" y1="0.227434" x2="0.293139" y2="0.258732" style="stroke:rgb(246,147,147);stroke-width:0.01" />
</g>
</svg>
