<svg xmlns="http://www.w3.org/2000/svg" viewBox="-1.5 -1.5 3 3">
<g transform="scale(1, -1)">
<path d="M-0.261905 -0.261905 L0.071429 -0.261905 L0.488095 0.154762 L0.488095 0.488095 L-0.095238 -0.095238 L-0.178571 -0.011905 L-0.511905 -0.011905 z " fill="rgb(245,195,195)" />
<path d="M-0.011905 -1.011905 L0.988095 -1.011905 L0.988095 -0.011905 L-0.011905 -0.011905  z" fill="none" stroke="rgb(128,128,128)" stroke-width="0.01" />
<line x1="-0.178571" y1="-0.178571" x2="-0.178571" y2="-0.0119048" style="stroke:rgb(246,147,147);stroke-width:0.01" />
<line x1="-0.0119048" y1="-0.261905" x2="-0.0119048" y2="-0.0119048" style="stroke:rgb(246,147,147);stroke-width:0.01" />
<line x1="0.321429" y1="-0.0119048" x2="0.321429" y2="0.154762" style="stroke:rgb(246,147,147);stroke-width:0.01" />
<line x1="0.488095" y1="0.154762" x2="0.488095" y2="0.488095" style="stroke:rgb(246,147,147);stroke-width:0.01" />
<line x1="-0.261905" y1="-0.261905" x2="-0.511905" y2="-0.0119048" style="stroke:rgb(246,147,147);stroke-width:0.01" />
<line x1="0.0714286" y1="-0.261905" x2="0.488095" y2="0.154762" style="stroke:rgb(246,147,147);stroke-width:0.01" />
<line x1="-0.0952381" y1="-0.261905" x2="-0.178571" y2="-0.178571" style="stroke:rgb(246,147,147);stroke-width:0.01" />
<line x1="-0.0952381" y1="-0.261905" x2="0.321429" y2="0.154762" style="stroke:rgb(246,147,147);stroke-width:0.01" />
<line x1="0.0714286" y1="-0.261905" x2="-0.178571" y2="-0.0119048" style="stroke:rgb(246,147,147);stroke-width:0.01" />
<line x1="-0.261905" y1="-0.261905" x2="0.488095" y2="0.488095" style="stroke:rgb(246,147,147);stroke-width:0.01" />
<line x1="-0.261905" y1="-0.261905" x2="0.0714286" y2="-0.261905" style="stroke:rgb(246,147,147);stroke-width:0.01" />
<line x1="-0.178571" y1="-0.178571" x2="-0.0119048" y2="-0.178571" style="stroke:rgb(246,147,147);stroke-width:0.01" />
<line x1="-0.511905" y1="-0.0119048" x2="-0.178571" y2="-0.0119048" style="stroke:rgb(246,147,147);stroke-width:0.01" />
<line x1="-0.0119048" y1="-0.0119048" x2="0.321429" y2="-0.0119048" style="stroke:rgb(246,147,147);stroke-width:0.01" />
<line x1="0.321429" y1="0.154762" x2="0.488095" y2="0.154762" style="stroke:rgb(246,147,147);stroke-width:0.01" />
</g>
</svg>
