<svg xmlns="http://www.w3.org/2000/svg" viewBox="-1.5 -1.5 3 3">
<g transform="scale(1, -1)">
<path d="M-0.350898 -0.294185 L-0.180307 -0.209841 L-0.169895 -0.209307 L-0.086912 -0.280607 L0.195893 -0.090356 L0.099795 0.105528 L0.149188 0.128700 L0.177423 0.129507 L0.177073 0.141782 L0.279316 0.189750 L0.234174 0.343960 L0.171077 0.351576 L-0.308574 -0.086058 L-0.387355 -0.220450 z " fill="rgb(245,195,195)" />
<path d="M-0.268115 -0.599477 L0.731885 -0.599477 L0.731885 0.400523 L-0.268115 0.400523  z" fill="none" stroke="rgb(128,128,128)" stroke-width="0.01" />
<line x1="0.181009" y1="0.143629" x2="0.204175" y2="0.301358" style="stroke:rgb(246,147,147);stroke-width:0.01" />
<line x1="0.0346546" y1="-0.198826" x2="0.123424" y2="-0.00909724" style="stroke:rgb(246,147,147);stroke-width:0.01" />
<line x1="-0.0612374" y1="-0.17982" x2="0.0868217" y2="0.274701" style="stroke:rgb(246,147,147);stroke-width:0.01" />
<line x1="-0.0933278" y1="0.0149244" x2="-0.080387" y2="0.12214" style="stroke:rgb(246,147,147);stroke-width:0.01" />
<line x1="0.177423" y1="0.129507" x2="0.171077" y2="0.351576" style="stroke:rgb(246,147,147);stroke-width:0.01" />
<line x1="-0.350898" y1="-0.294185" x2="-0.387355" y2="-0.22045" style="stroke:rgb(246,147,147);stroke-width:0.01" />
<line x1="-0.301556" y1="-0.110921" x2="-0.289416" y2="-0.0685786" style="stroke:rgb(246,147,147);stroke-width:0.01" />
<line x1="-0.0869119" y1="-0.280607" x2="-0.14748" y2="-0.0998931" style="stroke:rgb(246,147,147);stroke-width:0.01" />
<line x1="-0.0869119" y1="-0.280607" x2="0.195893" y2="-0.090356" style="stroke:rgb(246,147,147);stroke-width:0.01" />
<line x1="-0.387355" y1="-0.22045" x2="-0.308574" y2="-0.0860578" style="stroke:rgb(246,147,147);stroke-width:0.01" />
<line x1="-0.0500352" y1="-0.145431" x2="-0.154561" y2="0.0544633" style="stroke:rgb(246,147,147);stroke-width:0.01" />
<line x1="0.279316" y1="0.18975" x2="0.234174" y2="0.34396" style="stroke:rgb(246,147,147);stroke-width:0.01" />
<line x1="-0.0869119" y1="-0.280607" x2="-0.31017" y2="-0.0887812" style="stroke:rgb(246,147,147);stroke-width:0.01" />
<line x1="-0.350898" y1="-0.294185" x2="-0.0500352" y2="-0.145431" style="stroke:rgb(246,147,147);stroke-width:0.01" />
<line x1="0.195893" y1="-0.090356" x2="0.0384519" y2="0.230568" style="stroke:rgb(246,147,147);stroke-width:0.01" />
<line x1="-0.308574" y1="-0.0860578" x2="0.171077" y2="0.351576" style="stroke:rgb(246,147,147);stroke-width:0.01" />
<line x1="-0.259008" y1="-0.0628042" x2="0.234174" y2="0.34396" style="stroke:rgb(246,147,147);stroke-width:0.01" />
<line x1="-0.387355" y1="-0.22045" x2="0.0346546" y2="-0.198826" style="stroke:rgb(246,147,147);stroke-width:0.01" />
<line x1="-0.14748" y1="-0.0998931" x2="0.123424" y2="-0.00909724" style="stroke:rgb(246,147,147);stroke-width:0.01" />
<line x1="-0.308574" y1="-0.0860578" x2="0.279316" y2="0.18975" style="stroke:rgb(246,147,147);stroke-width:0.01" />
<line x1="-0.0612374" y1="-0.17982" x2="-0.31017" y2="-0.0887812" style="stroke:rgb(246,147,147);stroke-width:0.01" />
<line x1="-0.0612374" y1="-0.17982" x2="-0.301556" y2="-0.110921" style="stroke:rgb(246,147,147);stroke-width:0.01" />
<line x1="0.195893" y1="-0.090356" x2="0.123424" y2="-0.00909724" style="stroke:rgb(246,147,147);stroke-width:0.01" />
<line x1="0.279316" y1="0.18975" x2="0.204175" y2="0.301358" style="stroke:rgb(246,147,147);stroke-width:0.01" />
<line x1="-0.0933278" y1="0.0149244" x2="-0.154561" y2="0.0544633" style="stroke:rgb(246,147,147);stroke-width:0.01" />
<line x1="-0.289416" y1="-0.0685786" x2="-0.259008" y2="-0.0628042" style="stroke:rgb(246,147,147);stroke-width:0.01" />
<line x1="-0.080387" y1="0.12214" x2="0.177423" y2="0.129507" style="stroke:rgb(246,147,147);stroke-width:0.01" />
<line x1="0.181009" y1="0.143629" x2="0.0384519" y2="0.230568" style="stroke:rgb(246,147,147);stroke-width:0.01" />
<line x1="0.0868217" y1="0.274701" x2="0.204175" y2="0.301358" style="stroke:rgb(246,147,147);stroke-width:0.01" />
<line x1="0.234174" y1="0.34396" x2="0.171077" y2="0.351576" style="stroke:rgb(246,147,147);stroke-width:0.01" />
</g>
</svg>
