<svg xmlns="http://www.w3.org/2000/svg" viewBox="-1.5 -1.5 3 3">
<g transform="scale(1, -1)">
<path d="M0.210160 -0.473417 L0.556068 -0.112380 L0.237506 0.192833 L0.004237 0.567295 L-0.420154 0.302923 L-0.226291 -0.157964 L-0.160450 -0.130270 L-0.201078 -0.189018 z " fill="rgb(245,195,195)" />
<path d="M0.191676 1.987766 L1.191676 1.987766 L1.191676 2.987766 L0.191676 2.987766  z" fill="none" stroke="rgb(128,128,128)" stroke-width="0.01" />
<line x1="0.0299964" y1="0.145113" x2="0.186131" y2="0.151121" style="stroke:rgb(246,147,147);stroke-width:0.01" />
<line x1="0.186131" y1="0.151121" x2="-0.420154" y2="0.302923" style="stroke:rgb(246,147,147);stroke-width:0.01" />
<line x1="-0.226291" y1="-0.157964" x2="0.14818" y2="-0.000450632" style="stroke:rgb(246,147,147);stroke-width:0.01" />
<line x1="0.21016" y1="-0.473417" x2="-0.201078" y2="-0.189018" style="stroke:rgb(246,147,147);stroke-width:0.01" />
<line x1="-0.129257" y1="-0.104945" x2="0.253118" y2="0.167771" style="stroke:rgb(246,147,147);stroke-width:0.01" />
<line x1="0.21016" y1="-0.473417" x2="0.556068" y2="-0.11238" style="stroke:rgb(246,147,147);stroke-width:0.01" />
<line x1="0.21016" y1="-0.473417" x2="-0.129257" y2="-0.104945" style="stroke:rgb(246,147,147);stroke-width:0.01" />
<line x1="-0.129257" y1="-0.104945" x2="0.216186" y2="0.21326" style="stroke:rgb(246,147,147);stroke-width:0.01" />
<line x1="-0.420154" y1="0.302923" x2="0.00423683" y2="0.567295" style="stroke:rgb(246,147,147);stroke-width:0.01" />
<line x1="0.556068" y1="-0.11238" x2="0.216186" y2="0.21326" style="stroke:rgb(246,147,147);stroke-width:0.01" />
<line x1="-0.129257" y1="-0.104945" x2="-0.420154" y2="0.302923" style="stroke:rgb(246,147,147);stroke-width:0.01" />
<line x1="0.14818" y1="-0.000450632" x2="0.0299964" y2="0.145113" style="stroke:rgb(246,147,147);stroke-width:0.01" />
<line x1="0.253118" y1="0.167771" x2="0.216186" y2="0.21326" style="stroke:rgb(246,147,147);stroke-width:0.01" />
<line x1="-0.201078" y1="-0.189018" x2="0.0299964" y2="0.145113" style="stroke:rgb(246,147,147);stroke-width:0.01" />
<line x1="0.253118" y1="0.167771" x2="0.00423683" y2="0.567295" style="stroke:rgb(246,147,147);stroke-width:0.01" />
<line x1="-0.226291" y1="-0.157964" x2="-0.420154" y2="0.302923" style="stroke:rgb(246,147,147);stroke-width:0.01" />
<line x1="0.14818" y1="-0.000450632" x2="0.186131" y2="0.151121" style="stroke:rgb(246,147,147);stroke-width:0.01" />
<line x1="0.21016" y1="-0.473417" x2="0.186131" y2="0.151121" style="stroke:rgb(246,147,147);stroke-width:0.01" />
</g>
</svg>
