<svg xmlns="http://www.w3.org/2000/svg" viewBox="-1.5 -1.5 3 3">
<g transform="scale(1, -1)">
<path d="M0.018484 -2.461183 L0.364392 -2.100146 L0.045830 -1.794933 L-0.187439 -1.420471 L-0.611830 -1.684843 L-0.417967 -2.145730 L-0.352126 -2.118035 L-0.392754 -2.176784 z " fill="rgb(245,195,195)" />
<path d="M0.000000 0.000000 L1.000000 0.000000 L1.000000 1.000000 L0.000000 1.000000  z" fill="none" stroke="rgb(128,128,128)" stroke-width="0.01" />
<line x1="-0.16168" y1="-1.84265" x2="-0.00554529" y2="-1.83665" style="stroke:rgb(246,147,147);stroke-width:0.01" />
<line x1="-0.00554529" y1="-1.83665" x2="-0.61183" y2="-1.68484" style="stroke:rgb(246,147,147);stroke-width:0.01" />
<line x1="-0.417967" y1="-2.14573" x2="-0.0434958" y2="-1.98822" style="stroke:rgb(246,147,147);stroke-width:0.01" />
<line x1="0.0184843" y1="-2.46118" x2="-0.392754" y2="-2.17678" style="stroke:rgb(246,147,147);stroke-width:0.01" />
<line x1="-0.320933" y1="-2.09271" x2="0.0614422" y2="-1.81999" style="stroke:rgb(246,147,147);stroke-width:0.01" />
<line x1="0.0184843" y1="-2.46118" x2="0.364392" y2="-2.10015" style="stroke:rgb(246,147,147);stroke-width:0.01" />
<line x1="0.0184843" y1="-2.46118" x2="-0.320933" y2="-2.09271" style="stroke:rgb(246,147,147);stroke-width:0.01" />
<line x1="-0.320933" y1="-2.09271" x2="0.0245097" y2="-1.77451" style="stroke:rgb(246,147,147);stroke-width:0.01" />
<line x1="-0.61183" y1="-1.68484" x2="-0.187439" y2="-1.42047" style="stroke:rgb(246,147,147);stroke-width:0.01" />
<line x1="0.364392" y1="-2.10015" x2="0.0245097" y2="-1.77451" style="stroke:rgb(246,147,147);stroke-width:0.01" />
<line x1="-0.320933" y1="-2.09271" x2="-0.61183" y2="-1.68484" style="stroke:rgb(246,147,147);stroke-width:0.01" />
<line x1="-0.0434958" y1="-1.98822" x2="-0.16168" y2="-1.84265" style="stroke:rgb(246,147,147);stroke-width:0.01" />
<line x1="0.0614422" y1="-1.81999" x2="0.0245097" y2="-1.77451" style="stroke:rgb(246,147,147);stroke-width:0.01" />
<line x1="-0.392754" y1="-2.17678" x2="-0.16168" y2="-1.84265" style="stroke:rgb(246,147,147);stroke-width:0.01" />
<line x1="0.0614422" y1="-1.81999" x2="-0.187439" y2="-1.42047" style="stroke:rgb(246,147,147);stroke-width:0.01" />
<line x1="-0.417967" y1="-2.14573" x2="-0.61183" y2="-1.68484" style="stroke:rgb(246,147,147);stroke-width:0.01" />
<line x1="-0.0434958" y1="-1.98822" x2="-0.00554529" y2="-1.83665" style="stroke:rgb(246,147,147);stroke-width:0.01" />
<line x1="0.0184843" y1="-2.46118" x2="-0.00554529" y2="-1.83665" style="stroke:rgb(246,147,147);stroke-width:0.01" />
</g>
</svg>
