<svg xmlns="http://www.w3.org/2000/svg" viewBox="-1.5 -1.5 3 3">
<g transform="scale(1, -1)">
<path d="M0.215677 0.000000 L0.530561 0.192298 L0.530561 0.301249 L0.246628 0.403806 L0.256829 0.531986 L0.148188 0.439363 L0.093871 0.458982 L0.138927 0.431467 L0.000000 0.313023 L0.023668 0.118159 z M0.229821 0.192622 L0.243736 0.367461 L0.418459 0.260758 z " fill="rgb(245,195,195)" />
<path d="M0.000000 0.000000 L1.000000 0.000000 L1.000000 1.000000 L0.000000 1.000000  z" fill="none" stroke="rgb(128,128,128)" stroke-width="0.01" />
<line x1="0.215677" y1="0" x2="0.530561" y2="0.192298" style="stroke:rgb(246,147,147);stroke-width:0.01" />
<line x1="0.214547" y1="0.000695593" x2="0.530561" y2="0.193102" style="stroke:rgb(246,147,147);stroke-width:0.01" />
<line x1="0.207315" y1="0.00514591" x2="0.530561" y2="0.198189" style="stroke:rgb(246,147,147);stroke-width:0.01" />
<line x1="0.215677" y1="0" x2="0.225306" y2="0.118971" style="stroke:rgb(246,147,147);stroke-width:0.01" />
<line x1="0.214547" y1="0.000695593" x2="0.256829" y2="0.531986" style="stroke:rgb(246,147,147);stroke-width:0.01" />
<line x1="0.207315" y1="0.00514591" x2="0.221305" y2="0.202205" style="stroke:rgb(246,147,147);stroke-width:0.01" />
<line x1="0.530561" y1="0.192298" x2="0.530561" y2="0.301249" style="stroke:rgb(246,147,147);stroke-width:0.01" />
<line x1="0.0236682" y1="0.118159" x2="0" y2="0.313023" style="stroke:rgb(246,147,147);stroke-width:0.01" />
<line x1="0.215677" y1="0" x2="0.0236682" y2="0.118159" style="stroke:rgb(246,147,147);stroke-width:0.01" />
<line x1="0.0236682" y1="0.118159" x2="0.530561" y2="0.301249" style="stroke:rgb(246,147,147);stroke-width:0.01" />
<line x1="0.0215668" y1="0.13546" x2="0.221305" y2="0.202205" style="stroke:rgb(246,147,147);stroke-width:0.01" />
<line x1="0.225306" y1="0.118971" x2="0.0215668" y2="0.13546" style="stroke:rgb(246,147,147);stroke-width:0.01" />
<line x1="0" y1="0.313023" x2="0.256829" y2="0.531986" style="stroke:rgb(246,147,147);stroke-width:0.01" />
<line x1="0.221305" y1="0.202205" x2="0" y2="0.313023" style="stroke:rgb(246,147,147);stroke-width:0.01" />
<line x1="0.530561" y1="0.192298" x2="0.0938712" y2="0.458982" style="stroke:rgb(246,147,147);stroke-width:0.01" />
<line x1="0.530561" y1="0.193102" x2="0.0938712" y2="0.458982" style="stroke:rgb(246,147,147);stroke-width:0.01" />
<line x1="0.530561" y1="0.198189" x2="0.0938712" y2="0.458982" style="stroke:rgb(246,147,147);stroke-width:0.01" />
<line x1="0.530561" y1="0.301249" x2="0.0938712" y2="0.458982" style="stroke:rgb(246,147,147);stroke-width:0.01" />
</g>
</svg>
