<svg xmlns="http://www.w3.org/2000/svg" viewBox="-1.5 -1.5 3 3">
<g transform="scale(1, -1)">
<path d="M-0.021010 -0.308552 L0.293874 -0.116254 L0.293874 -0.007302 L0.009941 0.095254 L0.020143 0.223434 L-0.088498 0.130811 L-0.142815 0.150430 L-0.097760 0.122915 L-0.236687 0.004471 L-0.213018 -0.190392 z M-0.006866 -0.115930 L0.007049 0.058909 L0.181772 -0.047794 z " fill="rgb(245,195,195)" />
<path d="M-0.236687 -0.308552 L0.763313 -0.308552 L0.763313 0.691448 L-0.236687 0.691448  z" fill="none" stroke="rgb(128,128,128)" stroke-width="0.01" />
<line x1="-0.0210097" y1="-0.308552" x2="0.293874" y2="-0.116254" style="stroke:rgb(246,147,147);stroke-width:0.01" />
<line x1="-0.02214" y1="-0.307856" x2="0.293874" y2="-0.11545" style="stroke:rgb(246,147,147);stroke-width:0.01" />
<line x1="-0.0293718" y1="-0.303406" x2="0.293874" y2="-0.110362" style="stroke:rgb(246,147,147);stroke-width:0.01" />
<line x1="-0.0210097" y1="-0.308552" x2="-0.0113807" y2="-0.189581" style="stroke:rgb(246,147,147);stroke-width:0.01" />
<line x1="-0.02214" y1="-0.307856" x2="0.0201426" y2="0.223434" style="stroke:rgb(246,147,147);stroke-width:0.01" />
<line x1="-0.0293718" y1="-0.303406" x2="-0.015382" y2="-0.106346" style="stroke:rgb(246,147,147);stroke-width:0.01" />
<line x1="0.293874" y1="-0.116254" x2="0.293874" y2="-0.00730247" style="stroke:rgb(246,147,147);stroke-width:0.01" />
<line x1="-0.213018" y1="-0.190392" x2="-0.236687" y2="0.00447089" style="stroke:rgb(246,147,147);stroke-width:0.01" />
<line x1="-0.0210097" y1="-0.308552" x2="-0.213018" y2="-0.190392" style="stroke:rgb(246,147,147);stroke-width:0.01" />
<line x1="-0.213018" y1="-0.190392" x2="0.293874" y2="-0.00730247" style="stroke:rgb(246,147,147);stroke-width:0.01" />
<line x1="-0.21512" y1="-0.173091" x2="-0.015382" y2="-0.106346" style="stroke:rgb(246,147,147);stroke-width:0.01" />
<line x1="-0.0113807" y1="-0.189581" x2="-0.21512" y2="-0.173091" style="stroke:rgb(246,147,147);stroke-width:0.01" />
<line x1="-0.236687" y1="0.00447089" x2="0.0201426" y2="0.223434" style="stroke:rgb(246,147,147);stroke-width:0.01" />
<line x1="-0.015382" y1="-0.106346" x2="-0.236687" y2="0.00447089" style="stroke:rgb(246,147,147);stroke-width:0.01" />
<line x1="0.293874" y1="-0.116254" x2="-0.142815" y2="0.15043" style="stroke:rgb(246,147,147);stroke-width:0.01" />
<line x1="0.293874" y1="-0.11545" x2="-0.142815" y2="0.15043" style="stroke:rgb(246,147,147);stroke-width:0.01" />
<line x1="0.293874" y1="-0.110362" x2="-0.142815" y2="0.15043" style="stroke:rgb(246,147,147);stroke-width:0.01" />
<line x1="0.293874" y1="-0.00730247" x2="-0.142815" y2="0.15043" style="stroke:rgb(246,147,147);stroke-width:0.01" />
</g>
</svg>
