<svg xmlns="http://www.w3.org/2000/svg" viewBox="-1.5 -1.5 3 3">
<g transform="scale(1, -1)">
<path d="M0.000000 -0.015625 L0.234375 -0.015625 L0.265625 0.015625 L0.265625 0.234375 L0.234375 0.265625 L0.015625 0.265625 L-0.015625 0.234375 L-0.015625 0.000000 L0.000000 0.000000 z M0.015625 0.015625 L0.015625 0.234375 L0.234375 0.234375 L0.234375 0.015625 z " fill="rgb(245,195,195)" />
<path d="M0.000000 0.000000 L1.000000 0.000000 L1.000000 1.000000 L0.000000 1.000000  z" fill="none" stroke="rgb(128,128,128)" stroke-width="0.01" />
<line x1="0.234375" y1="-0.015625" x2="0.265625" y2="0.015625" style="stroke:rgb(246,147,147);stroke-width:0.01" />
<line x1="0" y1="-0.015625" x2="0.234375" y2="-0.015625" style="stroke:rgb(246,147,147);stroke-width:0.01" />
<line x1="-0.015625" y1="0" x2="-0.015625" y2="0.234375" style="stroke:rgb(246,147,147);stroke-width:0.01" />
<line x1="-0.015625" y1="0" x2="0.015625" y2="0" style="stroke:rgb(246,147,147);stroke-width:0.01" />
<line x1="0" y1="-0.015625" x2="0" y2="0.015625" style="stroke:rgb(246,147,147);stroke-width:0.01" />
<line x1="0.015625" y1="0" x2="0.015625" y2="0.265625" style="stroke:rgb(246,147,147);stroke-width:0.01" />
<line x1="0.234375" y1="-0.015625" x2="0.234375" y2="0.265625" style="stroke:rgb(246,147,147);stroke-width:0.01" />
<line x1="0.265625" y1="0.015625" x2="0.265625" y2="0.234375" style="stroke:rgb(246,147,147);stroke-width:0.01" />
<line x1="0" y1="0.015625" x2="0.265625" y2="0.015625" style="stroke:rgb(246,147,147);stroke-width:0.01" />
<line x1="-0.015625" y1="0.234375" x2="0.015625" y2="0.265625" style="stroke:rgb(246,147,147);stroke-width:0.01" />
<line x1="-0.015625" y1="0.234375" x2="0.265625" y2="0.234375" style="stroke:rgb(246,147,147);stroke-width:0.01" />
<line x1="0.265625" y1="0.234375" x2="0.234375" y2="0.265625" style="stroke:rgb(246,147,147);stroke-width:0.01" />
<line x1="0.015625" y1="0.265625" x2="0.234375" y2="0.265625" style="stroke:rgb(246,147,147);stroke-width:0.01" />
</g>
</svg>
