<svg xmlns="http://www.w3.org/2000/svg" viewBox="-1.5 -1.5 3 3">
<g transform="scale(1, -1)">
<path d="M-0.114183 -0.129808 L0.120192 -0.129808 L0.151442 -0.098558 L0.151442 0.120192 L0.120192 0.151442 L-0.098558 0.151442 L-0.129808 0.120192 L-0.129808 -0.114183 L-0.114183 -0.114183 z M-0.098558 -0.098558 L-0.098558 0.120192 L0.120192 0.120192 L0.120192 -0.098558 z " fill="rgb(245,195,195)" />
<path d="M-0.114183 -0.114183 L0.885817 -0.114183 L0.885817 0.885817 L-0.114183 0.885817  z" fill="none" stroke="rgb(128,128,128)" stroke-width="0.01" />
<line x1="0.120192" y1="-0.129808" x2="0.151442" y2="-0.0985577" style="stroke:rgb(246,147,147);stroke-width:0.01" />
<line x1="-0.114183" y1="-0.129808" x2="0.120192" y2="-0.129808" style="stroke:rgb(246,147,147);stroke-width:0.01" />
<line x1="-0.129808" y1="-0.114183" x2="-0.129808" y2="0.120192" style="stroke:rgb(246,147,147);stroke-width:0.01" />
<line x1="-0.129808" y1="-0.114183" x2="-0.0985577" y2="-0.114183" style="stroke:rgb(246,147,147);stroke-width:0.01" />
<line x1="-0.114183" y1="-0.129808" x2="-0.114183" y2="-0.0985577" style="stroke:rgb(246,147,147);stroke-width:0.01" />
<line x1="-0.0985577" y1="-0.114183" x2="-0.0985577" y2="0.151442" style="stroke:rgb(246,147,147);stroke-width:0.01" />
<line x1="0.120192" y1="-0.129808" x2="0.120192" y2="0.151442" style="stroke:rgb(246,147,147);stroke-width:0.01" />
<line x1="0.151442" y1="-0.0985577" x2="0.151442" y2="0.120192" style="stroke:rgb(246,147,147);stroke-width:0.01" />
<line x1="-0.114183" y1="-0.0985577" x2="0.151442" y2="-0.0985577" style="stroke:rgb(246,147,147);stroke-width:0.01" />
<line x1="-0.129808" y1="0.120192" x2="-0.0985577" y2="0.151442" style="stroke:rgb(246,147,147);stroke-width:0.01" />
<line x1="-0.129808" y1="0.120192" x2="0.151442" y2="0.120192" style="stroke:rgb(246,147,147);stroke-width:0.01" />
<line x1="0.151442" y1="0.120192" x2="0.120192" y2="0.151442" style="stroke:rgb(246,147,147);stroke-width:0.01" />
<line x1="-0.0985577" y1="0.151442" x2="0.120192" y2="0.151442" style="stroke:rgb(246,147,147);stroke-width:0.01" />
</g>
</svg>
