<svg xmlns="http://www.w3.org/2000/svg" viewBox="-1.5 -1.5 3 3">
<g transform="scale(1, -1)">
<path d="M-0.432344 -0.654027 L0.519320 -0.436335 L0.538462 -0.423672 L0.073929 0.393100 L0.060830 0.412899 L0.060780 0.412927 L-0.026420 0.401650 L-0.794556 -0.106541 z " fill="rgb(245,195,195)" />
<path d="M0.478817 -1.439418 L1.478817 -1.439418 L1.478817 -0.439418 L0.478817 -0.439418  z" fill="none" stroke="rgb(128,128,128)" stroke-width="0.01" />
<line x1="-0.432344" y1="-0.654027" x2="-0.794556" y2="-0.106541" style="stroke:rgb(246,147,147);stroke-width:0.01" />
<line x1="0.0395486" y1="0.39959" x2="0.0395461" y2="0.401294" style="stroke:rgb(246,147,147);stroke-width:0.01" />
<line x1="0.478817" y1="-0.445601" x2="0.478817" y2="-0.439418" style="stroke:rgb(246,147,147);stroke-width:0.01" />
<line x1="0.0409353" y1="0.400289" x2="0.0410376" y2="0.410374" style="stroke:rgb(246,147,147);stroke-width:0.01" />
<line x1="0.0421621" y1="0.406269" x2="0.0410376" y2="0.410374" style="stroke:rgb(246,147,147);stroke-width:0.01" />
<line x1="0.0580453" y1="0.410317" x2="0.0575842" y2="0.412033" style="stroke:rgb(246,147,147);stroke-width:0.01" />
<line x1="-0.432344" y1="-0.654027" x2="-0.386202" y2="-0.313598" style="stroke:rgb(246,147,147);stroke-width:0.01" />
<line x1="0.478817" y1="-0.445601" x2="0.0739288" y2="0.3931" style="stroke:rgb(246,147,147);stroke-width:0.01" />
<line x1="0.538462" y1="-0.423672" x2="0.0739288" y2="0.3931" style="stroke:rgb(246,147,147);stroke-width:0.01" />
<line x1="0.0739288" y1="0.3931" x2="0.0608298" y2="0.412899" style="stroke:rgb(246,147,147);stroke-width:0.01" />
<line x1="0.041546" y1="0.404633" x2="0.0421621" y2="0.406269" style="stroke:rgb(246,147,147);stroke-width:0.01" />
<line x1="0.0549462" y1="0.407358" x2="0.0575842" y2="0.412033" style="stroke:rgb(246,147,147);stroke-width:0.01" />
<line x1="0.51932" y1="-0.436335" x2="0.538462" y2="-0.423672" style="stroke:rgb(246,147,147);stroke-width:0.01" />
<line x1="0.505844" y1="-0.439418" x2="0.538462" y2="-0.423672" style="stroke:rgb(246,147,147);stroke-width:0.01" />
<line x1="0.0213072" y1="0.390386" x2="0.0353817" y2="0.409642" style="stroke:rgb(246,147,147);stroke-width:0.01" />
<line x1="0.0333433" y1="0.404188" x2="0.0375973" y2="0.409929" style="stroke:rgb(246,147,147);stroke-width:0.01" />
<line x1="0.041546" y1="0.404633" x2="0.0353817" y2="0.409642" style="stroke:rgb(246,147,147);stroke-width:0.01" />
<line x1="0.0421621" y1="0.406269" x2="0.0375973" y2="0.409929" style="stroke:rgb(246,147,147);stroke-width:0.01" />
<line x1="-0.432344" y1="-0.654027" x2="0.51932" y2="-0.436335" style="stroke:rgb(246,147,147);stroke-width:0.01" />
<line x1="0.0395486" y1="0.39959" x2="0.0333433" y2="0.404188" style="stroke:rgb(246,147,147);stroke-width:0.01" />
<line x1="0.51932" y1="-0.436335" x2="-0.386202" y2="-0.313598" style="stroke:rgb(246,147,147);stroke-width:0.01" />
<line x1="0.478817" y1="-0.439418" x2="0.505844" y2="-0.439418" style="stroke:rgb(246,147,147);stroke-width:0.01" />
<line x1="0.0409353" y1="0.400289" x2="0.0395461" y2="0.401294" style="stroke:rgb(246,147,147);stroke-width:0.01" />
<line x1="0.0549462" y1="0.407358" x2="0.0607797" y2="0.412927" style="stroke:rgb(246,147,147);stroke-width:0.01" />
<line x1="0.0608298" y1="0.412899" x2="0.0607797" y2="0.412927" style="stroke:rgb(246,147,147);stroke-width:0.01" />
<line x1="0.00653864" y1="0.390461" x2="-0.0264203" y2="0.40165" style="stroke:rgb(246,147,147);stroke-width:0.01" />
<line x1="0.041546" y1="0.404633" x2="0.0530145" y2="0.411922" style="stroke:rgb(246,147,147);stroke-width:0.01" />
<line x1="-0.794556" y1="-0.106541" x2="-0.0264203" y2="0.40165" style="stroke:rgb(246,147,147);stroke-width:0.01" />
<line x1="0.0580453" y1="0.410317" x2="0.0530145" y2="0.411922" style="stroke:rgb(246,147,147);stroke-width:0.01" />
<line x1="0.0213072" y1="0.390386" x2="0.0549462" y2="0.407358" style="stroke:rgb(246,147,147);stroke-width:0.01" />
<line x1="0.00653864" y1="0.390461" x2="0.0395461" y2="0.401294" style="stroke:rgb(246,147,147);stroke-width:0.01" />
<line x1="0.0575842" y1="0.412033" x2="0.0606063" y2="0.412904" style="stroke:rgb(246,147,147);stroke-width:0.01" />
<line x1="0.0213072" y1="0.390386" x2="0.00653864" y2="0.390461" style="stroke:rgb(246,147,147);stroke-width:0.01" />
<line x1="0.0608298" y1="0.412899" x2="0.0606063" y2="0.412904" style="stroke:rgb(246,147,147);stroke-width:0.01" />
<line x1="-0.0264203" y1="0.40165" x2="0.0607797" y2="0.412927" style="stroke:rgb(246,147,147);stroke-width:0.01" />
</g>
</svg>
