<svg xmlns="http://www.w3.org/2000/svg" viewBox="-1.5 -1.5 3 3">
<g transform="scale(1, -1)">
<path d="M145540941.140385 1225095958.373077 L145540941.201923 1225095958.615385 L145540941.111538 1225095958.767308 L145540940.990385 1225095958.798077 L145540940.838462 1225095958.707692 L145540940.807692 1225095958.586538 L145540940.898077 1225095958.434615 z M145540941.050000 1225095958.525000 L145540940.928846 1225095958.555769 L145540940.959615 1225095958.676923 L145540941.080769 1225095958.646154 z " fill="rgb(245,195,195)" />
<path d="M0.000000 0.000000 L1.000000 0.000000 L1.000000 1.000000 L0.000000 1.000000  z" fill="none" stroke="rgb(128,128,128)" stroke-width="0.01" />
<line x1="1.45541e+08" y1="1.2251e+09" x2="1.45541e+08" y2="1.2251e+09" style="stroke:rgb(246,147,147);stroke-width:0.01" />
<line x1="1.45541e+08" y1="1.2251e+09" x2="1.45541e+08" y2="1.2251e+09" style="stroke:rgb(246,147,147);stroke-width:0.01" />
<line x1="1.45541e+08" y1="1.2251e+09" x2="1.45541e+08" y2="1.2251e+09" style="stroke:rgb(246,147,147);stroke-width:0.01" />
<line x1="1.45541e+08" y1="1.2251e+09" x2="1.45541e+08" y2="1.2251e+09" style="stroke:rgb(246,147,147);stroke-width:0.01" />
<line x1="1.45541e+08" y1="1.2251e+09" x2="1.45541e+08" y2="1.2251e+09" style="stroke:rgb(246,147,147);stroke-width:0.01" />
<line x1="1.45541e+08" y1="1.2251e+09" x2="1.45541e+08" y2="1.2251e+09" style="stroke:rgb(246,147,147);stroke-width:0.01" />
<line x1="1.45541e+08" y1="1.2251e+09" x2="1.45541e+08" y2="1.2251e+09" style="stroke:rgb(246,147,147);stroke-width:0.01" />
<line x1="1.45541e+08" y1="1.2251e+09" x2="1.45541e+08" y2="1.2251e+09" style="stroke:rgb(246,147,147);stroke-width:0.01" />
<line x1="1.45541e+08" y1="1.2251e+09" x2="1.45541e+08" y2="1.2251e+09" style="stroke:rgb(246,147,147);stroke-width:0.01" />
<line x1="1.45541e+08" y1="1.2251e+09" x2="1.45541e+08" y2="1.2251e+09" style="stroke:rgb(246,147,147);stroke-width:0.01" />
<line x1="1.45541e+08" y1="1.2251e+09" x2="1.45541e+08" y2="1.2251e+09" style="stroke:rgb(246,147,147);stroke-width:0.01" />
</g>
</svg>
