<svg xmlns="http://www.w3.org/2000/svg" viewBox="-1.5 -1.5 3 3">
<g transform="scale(1, -1)">
<path d="M0.139685 -0.234790 L0.201224 0.007517 L0.110839 0.159441 L-0.010315 0.190210 L-0.162238 0.099825 L-0.193007 -0.021329 L-0.102622 -0.173252 z M0.049301 -0.082867 L-0.071853 -0.052098 L-0.041084 0.069056 L0.080070 0.038287 z " fill="rgb(245,195,195)" />
<path d="M-145540941.000699 -1225095958.607867 L-145540940.000699 -1225095958.607867 L-145540940.000699 -1225095957.607867 L-145540941.000699 -1225095957.607867  z" fill="none" stroke="rgb(128,128,128)" stroke-width="0.01" />
<line x1="0.139685" y1="-0.23479" x2="0.201224" y2="0.00751748" style="stroke:rgb(246,147,147);stroke-width:0.01" />
<line x1="0.0493007" y1="-0.0828671" x2="0.110839" y2="0.159441" style="stroke:rgb(246,147,147);stroke-width:0.01" />
<line x1="-0.102622" y1="-0.173252" x2="-0.0103147" y2="0.19021" style="stroke:rgb(246,147,147);stroke-width:0.01" />
<line x1="-0.193007" y1="-0.0213287" x2="-0.162238" y2="0.0998252" style="stroke:rgb(246,147,147);stroke-width:0.01" />
<line x1="-0.102622" y1="-0.173252" x2="-0.193007" y2="-0.0213287" style="stroke:rgb(246,147,147);stroke-width:0.01" />
<line x1="0.201224" y1="0.00751748" x2="0.110839" y2="0.159441" style="stroke:rgb(246,147,147);stroke-width:0.01" />
<line x1="-0.162238" y1="0.0998252" x2="-0.0103147" y2="0.19021" style="stroke:rgb(246,147,147);stroke-width:0.01" />
<line x1="0.139685" y1="-0.23479" x2="-0.102622" y2="-0.173252" style="stroke:rgb(246,147,147);stroke-width:0.01" />
<line x1="0.170455" y1="-0.113636" x2="-0.193007" y2="-0.0213287" style="stroke:rgb(246,147,147);stroke-width:0.01" />
<line x1="0.201224" y1="0.00751748" x2="-0.162238" y2="0.0998252" style="stroke:rgb(246,147,147);stroke-width:0.01" />
<line x1="0.110839" y1="0.159441" x2="-0.0103147" y2="0.19021" style="stroke:rgb(246,147,147);stroke-width:0.01" />
</g>
</svg>
