<svg xmlns="http://www.w3.org/2000/svg" viewBox="-1.5 -1.5 3 3">
<g transform="scale(1, -1)">
<path d="M-0.286421 -0.418279 L0.161573 -0.330529 L0.127117 -0.154619 L0.171853 -0.126097 L0.099214 -0.012165 L0.074398 0.114525 L0.189821 0.224451 L0.017407 0.405485 L-0.116778 0.336101 L-0.438183 -0.038872 z " fill="rgb(245,195,195)" />
<path d="M-1.074547 -0.281297 L-0.074547 -0.281297 L-0.074547 0.718703 L-1.074547 0.718703  z" fill="none" stroke="rgb(128,128,128)" stroke-width="0.01" />
<line x1="-0.286421" y1="-0.418279" x2="0.171853" y2="-0.126097" style="stroke:rgb(246,147,147);stroke-width:0.01" />
<line x1="-0.341214" y1="-0.281297" x2="0.189821" y2="0.224451" style="stroke:rgb(246,147,147);stroke-width:0.01" />
<line x1="-0.286421" y1="-0.418279" x2="0.161573" y2="-0.330529" style="stroke:rgb(246,147,147);stroke-width:0.01" />
<line x1="-0.256637" y1="-0.080799" x2="-0.116778" y2="0.336101" style="stroke:rgb(246,147,147);stroke-width:0.01" />
<line x1="-0.438183" y1="-0.0388723" x2="-0.116778" y2="0.336101" style="stroke:rgb(246,147,147);stroke-width:0.01" />
<line x1="-0.256637" y1="-0.080799" x2="-0.217404" y2="0.218703" style="stroke:rgb(246,147,147);stroke-width:0.01" />
<line x1="-0.341214" y1="-0.281297" x2="-0.074547" y2="-0.281297" style="stroke:rgb(246,147,147);stroke-width:0.01" />
<line x1="-0.074547" y1="-0.281297" x2="-0.074547" y2="0.26037" style="stroke:rgb(246,147,147);stroke-width:0.01" />
<line x1="-0.116778" y1="0.336101" x2="0.0174071" y2="0.405485" style="stroke:rgb(246,147,147);stroke-width:0.01" />
<line x1="-0.217404" y1="0.218703" x2="-0.074547" y2="0.26037" style="stroke:rgb(246,147,147);stroke-width:0.01" />
<line x1="0.161573" y1="-0.330529" x2="0.0174071" y2="0.405485" style="stroke:rgb(246,147,147);stroke-width:0.01" />
<line x1="-0.286421" y1="-0.418279" x2="-0.438183" y2="-0.0388723" style="stroke:rgb(246,147,147);stroke-width:0.01" />
<line x1="-0.256637" y1="-0.080799" x2="-0.438183" y2="-0.0388723" style="stroke:rgb(246,147,147);stroke-width:0.01" />
<line x1="0.171853" y1="-0.126097" x2="-0.074547" y2="0.26037" style="stroke:rgb(246,147,147);stroke-width:0.01" />
<line x1="0.189821" y1="0.224451" x2="0.0174071" y2="0.405485" style="stroke:rgb(246,147,147);stroke-width:0.01" />
</g>
</svg>
