<svg xmlns="http://www.w3.org/2000/svg" viewBox="-1.5 -1.5 3 3">
<g transform="scale(1, -1)">
<path d="M1.559025 0.122355 L1.779695 0.524069 L1.645715 0.658242 L1.767911 0.800349 L1.424046 1.096033 L1.446701 1.253807 L1.294416 1.275674 L1.166012 1.216199 L1.141794 1.162888 L1.304936 0.261932 z " fill="rgb(245,195,195)" />
<path d="M0.000000 0.000000 L1.000000 0.000000 L1.000000 1.000000 L0.000000 1.000000  z" fill="none" stroke="rgb(128,128,128)" stroke-width="0.01" />
<line x1="1.55903" y1="0.122355" x2="1.7797" y2="0.524069" style="stroke:rgb(246,147,147);stroke-width:0.01" />
<line x1="1.30494" y1="0.261932" x2="1.76791" y2="0.800349" style="stroke:rgb(246,147,147);stroke-width:0.01" />
<line x1="1.30457" y1="0.263959" x2="1.7797" y2="0.524069" style="stroke:rgb(246,147,147);stroke-width:0.01" />
<line x1="1.14179" y1="1.16289" x2="1.16601" y2="1.2162" style="stroke:rgb(246,147,147);stroke-width:0.01" />
<line x1="1.24329" y1="1.19424" x2="1.29442" y2="1.27567" style="stroke:rgb(246,147,147);stroke-width:0.01" />
<line x1="1.30457" y1="0.263959" x2="1.4467" y2="1.25381" style="stroke:rgb(246,147,147);stroke-width:0.01" />
<line x1="1.24329" y1="1.19424" x2="1.24289" y2="1.25181" style="stroke:rgb(246,147,147);stroke-width:0.01" />
<line x1="1.30494" y1="0.261932" x2="1.14179" y2="1.16289" style="stroke:rgb(246,147,147);stroke-width:0.01" />
<line x1="1.16601" y1="1.2162" x2="1.29442" y2="1.27567" style="stroke:rgb(246,147,147);stroke-width:0.01" />
<line x1="1.55903" y1="0.122355" x2="1.30494" y2="0.261932" style="stroke:rgb(246,147,147);stroke-width:0.01" />
<line x1="1.7797" y1="0.524069" x2="1.14179" y2="1.16289" style="stroke:rgb(246,147,147);stroke-width:0.01" />
<line x1="1.76791" y1="0.800349" x2="1.24289" y2="1.25181" style="stroke:rgb(246,147,147);stroke-width:0.01" />
<line x1="1.24329" y1="1.19424" x2="1.16601" y2="1.2162" style="stroke:rgb(246,147,147);stroke-width:0.01" />
<line x1="1.4467" y1="1.25381" x2="1.29442" y2="1.27567" style="stroke:rgb(246,147,147);stroke-width:0.01" />
</g>
</svg>
