<svg xmlns="http://www.w3.org/2000/svg" viewBox="-1.5 -1.5 3 3">
<g transform="scale(1, -1)">
<path d="M0.106000 -0.714800 L0.326670 -0.313085 L0.192690 -0.178913 L0.314886 -0.036806 L-0.028979 0.258878 L-0.006325 0.416652 L-0.158609 0.438519 L-0.287013 0.379044 L-0.311231 0.325733 L-0.148089 -0.575223 z " fill="rgb(245,195,195)" />
<path d="M-1.453025 -0.837155 L-0.453025 -0.837155 L-0.453025 0.162845 L-1.453025 0.162845  z" fill="none" stroke="rgb(128,128,128)" stroke-width="0.01" />
<line x1="0.106" y1="-0.7148" x2="0.32667" y2="-0.313085" style="stroke:rgb(246,147,147);stroke-width:0.01" />
<line x1="-0.148089" y1="-0.575223" x2="0.314886" y2="-0.0368056" style="stroke:rgb(246,147,147);stroke-width:0.01" />
<line x1="-0.148457" y1="-0.573195" x2="0.32667" y2="-0.313085" style="stroke:rgb(246,147,147);stroke-width:0.01" />
<line x1="-0.311231" y1="0.325733" x2="-0.287013" y2="0.379044" style="stroke:rgb(246,147,147);stroke-width:0.01" />
<line x1="-0.209738" y1="0.357086" x2="-0.158609" y2="0.438519" style="stroke:rgb(246,147,147);stroke-width:0.01" />
<line x1="-0.148457" y1="-0.573195" x2="-0.00632453" y2="0.416652" style="stroke:rgb(246,147,147);stroke-width:0.01" />
<line x1="-0.209738" y1="0.357086" x2="-0.210137" y2="0.414652" style="stroke:rgb(246,147,147);stroke-width:0.01" />
<line x1="-0.148089" y1="-0.575223" x2="-0.311231" y2="0.325733" style="stroke:rgb(246,147,147);stroke-width:0.01" />
<line x1="-0.287013" y1="0.379044" x2="-0.158609" y2="0.438519" style="stroke:rgb(246,147,147);stroke-width:0.01" />
<line x1="0.106" y1="-0.7148" x2="-0.148089" y2="-0.575223" style="stroke:rgb(246,147,147);stroke-width:0.01" />
<line x1="0.32667" y1="-0.313085" x2="-0.311231" y2="0.325733" style="stroke:rgb(246,147,147);stroke-width:0.01" />
<line x1="0.314886" y1="-0.0368056" x2="-0.210137" y2="0.414652" style="stroke:rgb(246,147,147);stroke-width:0.01" />
<line x1="-0.209738" y1="0.357086" x2="-0.287013" y2="0.379044" style="stroke:rgb(246,147,147);stroke-width:0.01" />
<line x1="-0.00632453" y1="0.416652" x2="-0.158609" y2="0.438519" style="stroke:rgb(246,147,147);stroke-width:0.01" />
</g>
</svg>
