<svg xmlns="http://www.w3.org/2000/svg" viewBox="-1.5 -1.5 3 3">
<g transform="scale(1, -1)">
<path d="M-0.088606 -0.428064 L0.603224 0.279489 L0.612984 0.315987 L0.221079 0.553641 L-0.063004 0.085172 L-0.360507 -0.001600 L-0.360507 -0.251600 L-0.267224 -0.251600 L-0.297439 -0.301426 z " fill="rgb(245,195,195)" />
<path d="M-0.360507 -0.251600 L0.639493 -0.251600 L0.639493 0.748400 L-0.360507 0.748400  z" fill="none" stroke="rgb(128,128,128)" stroke-width="0.01" />
<line x1="-0.0886056" y1="-0.428064" x2="0.603224" y2="0.279489" style="stroke:rgb(246,147,147);stroke-width:0.01" />
<line x1="0.603224" y1="0.279489" x2="0.612984" y2="0.315987" style="stroke:rgb(246,147,147);stroke-width:0.01" />
<line x1="-0.297439" y1="-0.301426" x2="0.221079" y2="0.553641" style="stroke:rgb(246,147,147);stroke-width:0.01" />
<line x1="-0.0886056" y1="-0.428064" x2="-0.297439" y2="-0.301426" style="stroke:rgb(246,147,147);stroke-width:0.01" />
<line x1="-0.360507" y1="-0.2516" x2="0.0839374" y2="-0.2516" style="stroke:rgb(246,147,147);stroke-width:0.01" />
<line x1="-0.360507" y1="-0.2516" x2="-0.360507" y2="-0.00159951" style="stroke:rgb(246,147,147);stroke-width:0.01" />
<line x1="0.0839374" y1="-0.2516" x2="0.0714546" y2="0.303816" style="stroke:rgb(246,147,147);stroke-width:0.01" />
<line x1="-0.0886056" y1="-0.428064" x2="-0.360507" y2="-0.00159951" style="stroke:rgb(246,147,147);stroke-width:0.01" />
<line x1="-0.360507" y1="-0.00159951" x2="0.603224" y2="0.279489" style="stroke:rgb(246,147,147);stroke-width:0.01" />
<line x1="0.0714546" y1="0.303816" x2="0.612984" y2="0.315987" style="stroke:rgb(246,147,147);stroke-width:0.01" />
<line x1="0.612984" y1="0.315987" x2="0.221079" y2="0.553641" style="stroke:rgb(246,147,147);stroke-width:0.01" />
</g>
</svg>
