<svg xmlns="http://www.w3.org/2000/svg" viewBox="-1.5 -1.5 3 3">
<g transform="scale(1, -1)">
<path d="M0.271901 -0.176464 L0.963731 0.531088 L0.973492 0.567586 L0.581586 0.805240 L0.297503 0.336772 L0.000000 0.250000 L0.000000 0.000000 L0.093283 0.000000 L0.063068 -0.049826 z " fill="rgb(245,195,195)" />
<path d="M0.000000 0.000000 L1.000000 0.000000 L1.000000 1.000000 L0.000000 1.000000  z" fill="none" stroke="rgb(128,128,128)" stroke-width="0.01" />
<line x1="0.271901" y1="-0.176464" x2="0.963731" y2="0.531088" style="stroke:rgb(246,147,147);stroke-width:0.01" />
<line x1="0.963731" y1="0.531088" x2="0.973492" y2="0.567586" style="stroke:rgb(246,147,147);stroke-width:0.01" />
<line x1="0.0630677" y1="-0.0498262" x2="0.581586" y2="0.80524" style="stroke:rgb(246,147,147);stroke-width:0.01" />
<line x1="0.271901" y1="-0.176464" x2="0.0630677" y2="-0.0498262" style="stroke:rgb(246,147,147);stroke-width:0.01" />
<line x1="0" y1="0" x2="0.444444" y2="0" style="stroke:rgb(246,147,147);stroke-width:0.01" />
<line x1="0" y1="0" x2="0" y2="0.25" style="stroke:rgb(246,147,147);stroke-width:0.01" />
<line x1="0.444444" y1="0" x2="0.431962" y2="0.555415" style="stroke:rgb(246,147,147);stroke-width:0.01" />
<line x1="0.271901" y1="-0.176464" x2="0" y2="0.25" style="stroke:rgb(246,147,147);stroke-width:0.01" />
<line x1="0" y1="0.25" x2="0.963731" y2="0.531088" style="stroke:rgb(246,147,147);stroke-width:0.01" />
<line x1="0.431962" y1="0.555415" x2="0.973492" y2="0.567586" style="stroke:rgb(246,147,147);stroke-width:0.01" />
<line x1="0.973492" y1="0.567586" x2="0.581586" y2="0.80524" style="stroke:rgb(246,147,147);stroke-width:0.01" />
</g>
</svg>
