<svg xmlns="http://www.w3.org/2000/svg" viewBox="-1.5 -1.5 3 3">
<g transform="scale(1, -1)">
<path d="M0.002079 1.064449 L0.038855 1.211947 L-0.019094 1.247176 L-0.042288 1.447336 L-0.536817 1.571568 L-0.608324 1.528775 L-0.495438 1.096580 z " fill="rgb(245,195,195)" />
<path d="M0.000000 0.000000 L1.000000 0.000000 L1.000000 1.000000 L0.000000 1.000000  z" fill="none" stroke="rgb(128,128,128)" stroke-width="0.01" />
<line x1="-0.495438" y1="1.09658" x2="-0.608324" y2="1.52878" style="stroke:rgb(246,147,147);stroke-width:0.01" />
<line x1="0.002079" y1="1.06445" x2="0.0115032" y2="1.21037" style="stroke:rgb(246,147,147);stroke-width:0.01" />
<line x1="-0.247763" y1="1.25955" x2="-0.245462" y2="1.38479" style="stroke:rgb(246,147,147);stroke-width:0.01" />
<line x1="0.002079" y1="1.06445" x2="-0.0422877" y2="1.44734" style="stroke:rgb(246,147,147);stroke-width:0.01" />
<line x1="-0.459436" y1="1.22899" x2="-0.473286" y2="1.25941" style="stroke:rgb(246,147,147);stroke-width:0.01" />
<line x1="-0.131274" y1="1.07306" x2="-0.207794" y2="1.36183" style="stroke:rgb(246,147,147);stroke-width:0.01" />
<line x1="0.0228612" y1="1.1478" x2="0.0115032" y2="1.21037" style="stroke:rgb(246,147,147);stroke-width:0.01" />
<line x1="0.002079" y1="1.06445" x2="0.0388545" y2="1.21195" style="stroke:rgb(246,147,147);stroke-width:0.01" />
<line x1="-0.459436" y1="1.22899" x2="-0.453605" y2="1.27025" style="stroke:rgb(246,147,147);stroke-width:0.01" />
<line x1="-0.361164" y1="1.08791" x2="-0.473286" y2="1.25941" style="stroke:rgb(246,147,147);stroke-width:0.01" />
<line x1="-0.451231" y1="1.42856" x2="-0.536817" y2="1.57157" style="stroke:rgb(246,147,147);stroke-width:0.01" />
<line x1="-0.131274" y1="1.07306" x2="-0.0772392" y2="1.20526" style="stroke:rgb(246,147,147);stroke-width:0.01" />
<line x1="0.000185414" y1="1.06457" x2="-0.0772392" y2="1.20526" style="stroke:rgb(246,147,147);stroke-width:0.01" />
<line x1="-0.0407562" y1="1.06722" x2="-0.308218" y2="1.51414" style="stroke:rgb(246,147,147);stroke-width:0.01" />
<line x1="-0.495438" y1="1.09658" x2="-0.417028" y2="1.29037" style="stroke:rgb(246,147,147);stroke-width:0.01" />
<line x1="0.000185414" y1="1.06457" x2="0.00180808" y2="1.06679" style="stroke:rgb(246,147,147);stroke-width:0.01" />
<line x1="-0.0407562" y1="1.06722" x2="0.0228612" y2="1.1478" style="stroke:rgb(246,147,147);stroke-width:0.01" />
<line x1="-0.140173" y1="1.28067" x2="-0.207794" y2="1.36183" style="stroke:rgb(246,147,147);stroke-width:0.01" />
<line x1="0.00180808" y1="1.06679" x2="-0.218096" y2="1.25504" style="stroke:rgb(246,147,147);stroke-width:0.01" />
<line x1="-0.361164" y1="1.08791" x2="-0.218096" y2="1.25504" style="stroke:rgb(246,147,147);stroke-width:0.01" />
<line x1="-0.140173" y1="1.28067" x2="-0.0332945" y2="1.36972" style="stroke:rgb(246,147,147);stroke-width:0.01" />
<line x1="0.002079" y1="1.06445" x2="-0.453605" y2="1.27025" style="stroke:rgb(246,147,147);stroke-width:0.01" />
<line x1="0.0388545" y1="1.21195" x2="-0.245462" y2="1.38479" style="stroke:rgb(246,147,147);stroke-width:0.01" />
<line x1="0.002079" y1="1.06445" x2="-0.495438" y2="1.09658" style="stroke:rgb(246,147,147);stroke-width:0.01" />
<line x1="-0.0332945" y1="1.36972" x2="-0.335745" y2="1.52106" style="stroke:rgb(246,147,147);stroke-width:0.01" />
<line x1="-0.207794" y1="1.36183" x2="-0.0422877" y2="1.44734" style="stroke:rgb(246,147,147);stroke-width:0.01" />
<line x1="-0.473286" y1="1.25941" x2="-0.245462" y2="1.38479" style="stroke:rgb(246,147,147);stroke-width:0.01" />
<line x1="-0.247763" y1="1.25955" x2="-0.417028" y2="1.29037" style="stroke:rgb(246,147,147);stroke-width:0.01" />
<line x1="-0.0772392" y1="1.20526" x2="0.0388545" y2="1.21195" style="stroke:rgb(246,147,147);stroke-width:0.01" />
<line x1="-0.451231" y1="1.42856" x2="-0.308218" y2="1.51414" style="stroke:rgb(246,147,147);stroke-width:0.01" />
<line x1="-0.459436" y1="1.22899" x2="-0.247763" y2="1.25955" style="stroke:rgb(246,147,147);stroke-width:0.01" />
<line x1="-0.0422877" y1="1.44734" x2="-0.536817" y2="1.57157" style="stroke:rgb(246,147,147);stroke-width:0.01" />
<line x1="-0.608324" y1="1.52878" x2="-0.536817" y2="1.57157" style="stroke:rgb(246,147,147);stroke-width:0.01" />
<line x1="-0.335745" y1="1.52106" x2="-0.608324" y2="1.52878" style="stroke:rgb(246,147,147);stroke-width:0.01" />
</g>
</svg>
