<svg xmlns="http://www.w3.org/2000/svg" viewBox="-1.5 -1.5 3 3">
<g transform="scale(1, -1)">
<path d="M0.239369 -0.245241 L0.276144 -0.097743 L0.218195 -0.062514 L0.195002 0.137645 L-0.299527 0.261878 L-0.371034 0.219085 L-0.258149 -0.213110 z " fill="rgb(245,195,195)" />
<path d="M0.237290 -1.309690 L1.237290 -1.309690 L1.237290 -0.309690 L0.237290 -0.309690  z" fill="none" stroke="rgb(128,128,128)" stroke-width="0.01" />
<line x1="-0.258149" y1="-0.21311" x2="-0.371034" y2="0.219085" style="stroke:rgb(246,147,147);stroke-width:0.01" />
<line x1="0.239369" y1="-0.245241" x2="0.248793" y2="-0.0993188" style="stroke:rgb(246,147,147);stroke-width:0.01" />
<line x1="-0.0104734" y1="-0.0501406" x2="-0.00817183" y2="0.0751021" style="stroke:rgb(246,147,147);stroke-width:0.01" />
<line x1="0.239369" y1="-0.245241" x2="0.195002" y2="0.137645" style="stroke:rgb(246,147,147);stroke-width:0.01" />
<line x1="-0.222146" y1="-0.0807016" x2="-0.235997" y2="-0.0502761" style="stroke:rgb(246,147,147);stroke-width:0.01" />
<line x1="0.106016" y1="-0.236629" x2="0.0294956" y2="0.0521447" style="stroke:rgb(246,147,147);stroke-width:0.01" />
<line x1="0.260151" y1="-0.161889" x2="0.248793" y2="-0.0993188" style="stroke:rgb(246,147,147);stroke-width:0.01" />
<line x1="0.239369" y1="-0.245241" x2="0.276144" y2="-0.0977433" style="stroke:rgb(246,147,147);stroke-width:0.01" />
<line x1="-0.222146" y1="-0.0807016" x2="-0.216315" y2="-0.039445" style="stroke:rgb(246,147,147);stroke-width:0.01" />
<line x1="-0.123875" y1="-0.221782" x2="-0.235997" y2="-0.0502761" style="stroke:rgb(246,147,147);stroke-width:0.01" />
<line x1="-0.213941" y1="0.118865" x2="-0.299527" y2="0.261878" style="stroke:rgb(246,147,147);stroke-width:0.01" />
<line x1="0.106016" y1="-0.236629" x2="0.16005" y2="-0.104431" style="stroke:rgb(246,147,147);stroke-width:0.01" />
<line x1="0.237475" y1="-0.245119" x2="0.16005" y2="-0.104431" style="stroke:rgb(246,147,147);stroke-width:0.01" />
<line x1="0.196534" y1="-0.242475" x2="-0.0709281" y2="0.204451" style="stroke:rgb(246,147,147);stroke-width:0.01" />
<line x1="-0.258149" y1="-0.21311" x2="-0.179738" y2="-0.0193157" style="stroke:rgb(246,147,147);stroke-width:0.01" />
<line x1="0.237475" y1="-0.245119" x2="0.239098" y2="-0.242903" style="stroke:rgb(246,147,147);stroke-width:0.01" />
<line x1="0.196534" y1="-0.242475" x2="0.260151" y2="-0.161889" style="stroke:rgb(246,147,147);stroke-width:0.01" />
<line x1="0.097117" y1="-0.0290156" x2="0.0294956" y2="0.0521447" style="stroke:rgb(246,147,147);stroke-width:0.01" />
<line x1="0.239098" y1="-0.242903" x2="0.0191941" y2="-0.0546549" style="stroke:rgb(246,147,147);stroke-width:0.01" />
<line x1="-0.123875" y1="-0.221782" x2="0.0191941" y2="-0.0546549" style="stroke:rgb(246,147,147);stroke-width:0.01" />
<line x1="0.097117" y1="-0.0290156" x2="0.203995" y2="0.0600336" style="stroke:rgb(246,147,147);stroke-width:0.01" />
<line x1="0.239369" y1="-0.245241" x2="-0.216315" y2="-0.039445" style="stroke:rgb(246,147,147);stroke-width:0.01" />
<line x1="0.276144" y1="-0.0977433" x2="-0.00817183" y2="0.0751021" style="stroke:rgb(246,147,147);stroke-width:0.01" />
<line x1="0.239369" y1="-0.245241" x2="-0.258149" y2="-0.21311" style="stroke:rgb(246,147,147);stroke-width:0.01" />
<line x1="0.203995" y1="0.0600336" x2="-0.0984558" y2="0.211366" style="stroke:rgb(246,147,147);stroke-width:0.01" />
<line x1="0.0294956" y1="0.0521447" x2="0.195002" y2="0.137645" style="stroke:rgb(246,147,147);stroke-width:0.01" />
<line x1="-0.235997" y1="-0.0502761" x2="-0.00817183" y2="0.0751021" style="stroke:rgb(246,147,147);stroke-width:0.01" />
<line x1="-0.0104734" y1="-0.0501406" x2="-0.179738" y2="-0.0193157" style="stroke:rgb(246,147,147);stroke-width:0.01" />
<line x1="0.16005" y1="-0.104431" x2="0.276144" y2="-0.0977433" style="stroke:rgb(246,147,147);stroke-width:0.01" />
<line x1="-0.213941" y1="0.118865" x2="-0.0709281" y2="0.204451" style="stroke:rgb(246,147,147);stroke-width:0.01" />
<line x1="-0.222146" y1="-0.0807016" x2="-0.0104734" y2="-0.0501406" style="stroke:rgb(246,147,147);stroke-width:0.01" />
<line x1="0.195002" y1="0.137645" x2="-0.299527" y2="0.261878" style="stroke:rgb(246,147,147);stroke-width:0.01" />
<line x1="-0.371034" y1="0.219085" x2="-0.299527" y2="0.261878" style="stroke:rgb(246,147,147);stroke-width:0.01" />
<line x1="-0.0984558" y1="0.211366" x2="-0.371034" y2="0.219085" style="stroke:rgb(246,147,147);stroke-width:0.01" />
</g>
</svg>
