<svg xmlns="http://www.w3.org/2000/svg" viewBox="-1.5 -1.5 3 3">
<g transform="scale(1, -1)">
<path d="M-0.253904 -0.250354 L0.397554 -0.250354 L0.403260 -0.244519 L0.382086 -0.171923 L-0.043924 0.254088 L-0.050891 0.249646 L-0.206149 0.249646 L-0.206149 0.150658 L-0.421883 0.013113 z " fill="rgb(245,195,195)" />
<path d="M-0.206149 -1.750354 L0.793851 -1.750354 L0.793851 -0.750354 L-0.206149 -0.750354  z" fill="none" stroke="rgb(128,128,128)" stroke-width="0.01" />
<line x1="0.064137" y1="-0.250354" x2="0.0716286" y2="0.0829792" style="stroke:rgb(246,147,147);stroke-width:0.01" />
<line x1="-0.206149" y1="-0.00035412" x2="-0.206149" y2="0.249646" style="stroke:rgb(246,147,147);stroke-width:0.01" />
<line x1="-0.0394826" y1="-0.250354" x2="-0.0394826" y2="0.249646" style="stroke:rgb(246,147,147);stroke-width:0.01" />
<line x1="0.064137" y1="-0.250354" x2="0.0619544" y2="-0.153241" style="stroke:rgb(246,147,147);stroke-width:0.01" />
<line x1="0.40326" y1="-0.244519" x2="0.382086" y2="-0.171923" style="stroke:rgb(246,147,147);stroke-width:0.01" />
<line x1="0.00306405" y1="-0.250354" x2="0.0619544" y2="-0.153241" style="stroke:rgb(246,147,147);stroke-width:0.01" />
<line x1="-0.253904" y1="-0.250354" x2="-0.421883" y2="0.0131125" style="stroke:rgb(246,147,147);stroke-width:0.01" />
<line x1="0.397554" y1="-0.250354" x2="0.40326" y2="-0.244519" style="stroke:rgb(246,147,147);stroke-width:0.01" />
<line x1="-0.253904" y1="-0.250354" x2="0.00322393" y2="0.152938" style="stroke:rgb(246,147,147);stroke-width:0.01" />
<line x1="0.00306405" y1="-0.250354" x2="-0.1757" y2="0.0444378" style="stroke:rgb(246,147,147);stroke-width:0.01" />
<line x1="-0.206149" y1="-0.00035412" x2="-0.0439244" y2="0.254088" style="stroke:rgb(246,147,147);stroke-width:0.01" />
<line x1="0.397554" y1="-0.250354" x2="0.00322393" y2="0.152938" style="stroke:rgb(246,147,147);stroke-width:0.01" />
<line x1="0.382086" y1="-0.171923" x2="-0.0439244" y2="0.254088" style="stroke:rgb(246,147,147);stroke-width:0.01" />
<line x1="-0.1757" y1="0.0444378" x2="0.00322393" y2="0.152938" style="stroke:rgb(246,147,147);stroke-width:0.01" />
<line x1="-0.421883" y1="0.0131125" x2="-0.0439244" y2="0.254088" style="stroke:rgb(246,147,147);stroke-width:0.01" />
<line x1="-0.253904" y1="-0.250354" x2="0.397554" y2="-0.250354" style="stroke:rgb(246,147,147);stroke-width:0.01" />
<line x1="0.40326" y1="-0.244519" x2="0.0619544" y2="-0.153241" style="stroke:rgb(246,147,147);stroke-width:0.01" />
<line x1="0.382086" y1="-0.171923" x2="-0.206149" y2="-0.00035412" style="stroke:rgb(246,147,147);stroke-width:0.01" />
<line x1="-0.0394826" y1="0.0829792" x2="0.0716286" y2="0.0829792" style="stroke:rgb(246,147,147);stroke-width:0.01" />
<line x1="-0.206149" y1="0.249646" x2="-0.0394826" y2="0.249646" style="stroke:rgb(246,147,147);stroke-width:0.01" />
</g>
</svg>
