<svg xmlns="http://www.w3.org/2000/svg" viewBox="-1.5 -1.5 3 3">
<g transform="scale(1, -1)">
<path d="M-0.126608 -0.292388 L-0.126284 -0.274891 L-0.152708 -0.241688 L0.011506 -0.176437 L0.140770 -0.269695 L0.287041 -0.066952 L0.189257 0.058517 L0.412030 0.200550 L0.165630 0.587017 L0.022773 0.545350 L-0.229431 0.251112 L-0.320519 -0.030827 L-0.273457 -0.289669 z " fill="rgb(245,195,195)" />
<path d="M-0.834370 0.045350 L0.165630 0.045350 L0.165630 1.045350 L-0.834370 1.045350  z" fill="none" stroke="rgb(128,128,128)" stroke-width="0.01" />
<line x1="0.14077" y1="-0.269695" x2="0.287041" y2="-0.0669515" style="stroke:rgb(246,147,147);stroke-width:0.01" />
<line x1="-0.273457" y1="-0.289669" x2="0.287041" y2="-0.0669515" style="stroke:rgb(246,147,147);stroke-width:0.01" />
<line x1="-0.282121" y1="-0.24202" x2="0.41203" y2="0.20055" style="stroke:rgb(246,147,147);stroke-width:0.01" />
<line x1="-0.126608" y1="-0.292388" x2="-0.273457" y2="-0.289669" style="stroke:rgb(246,147,147);stroke-width:0.01" />
<line x1="-0.229431" y1="0.251112" x2="0.0227732" y2="0.54535" style="stroke:rgb(246,147,147);stroke-width:0.01" />
<line x1="-0.126284" y1="-0.274891" x2="-0.282121" y2="-0.24202" style="stroke:rgb(246,147,147);stroke-width:0.01" />
<line x1="-0.320519" y1="-0.030827" x2="-0.229431" y2="0.251112" style="stroke:rgb(246,147,147);stroke-width:0.01" />
<line x1="-0.000699161" y1="0.366161" x2="0.0227732" y2="0.54535" style="stroke:rgb(246,147,147);stroke-width:0.01" />
<line x1="-0.229431" y1="0.251112" x2="-0.000699161" y2="0.366161" style="stroke:rgb(246,147,147);stroke-width:0.01" />
<line x1="-0.126608" y1="-0.292388" x2="-0.126284" y2="-0.274891" style="stroke:rgb(246,147,147);stroke-width:0.01" />
<line x1="-0.295908" y1="0.0453502" x2="0.16563" y2="0.0453502" style="stroke:rgb(246,147,147);stroke-width:0.01" />
<line x1="0.16563" y1="0.0453502" x2="0.16563" y2="0.587017" style="stroke:rgb(246,147,147);stroke-width:0.01" />
<line x1="-0.273457" y1="-0.289669" x2="-0.320519" y2="-0.030827" style="stroke:rgb(246,147,147);stroke-width:0.01" />
<line x1="-0.126284" y1="-0.274891" x2="-0.320519" y2="-0.030827" style="stroke:rgb(246,147,147);stroke-width:0.01" />
<line x1="0.0227732" y1="0.54535" x2="0.16563" y2="0.587017" style="stroke:rgb(246,147,147);stroke-width:0.01" />
<line x1="0.14077" y1="-0.269695" x2="-0.295908" y2="0.0453502" style="stroke:rgb(246,147,147);stroke-width:0.01" />
<line x1="0.287041" y1="-0.0669515" x2="-0.0887516" y2="0.415238" style="stroke:rgb(246,147,147);stroke-width:0.01" />
<line x1="-0.000699161" y1="0.366161" x2="-0.0887516" y2="0.415238" style="stroke:rgb(246,147,147);stroke-width:0.01" />
<line x1="0.41203" y1="0.20055" x2="0.16563" y2="0.587017" style="stroke:rgb(246,147,147);stroke-width:0.01" />
</g>
</svg>
