<svg xmlns="http://www.w3.org/2000/svg" viewBox="-1.5 -1.5 3 3">
<g transform="scale(1, -1)">
<path d="M0.707762 -0.337739 L0.708086 -0.320241 L0.681662 -0.287038 L0.845876 -0.221787 L0.975139 -0.315045 L1.121410 -0.112302 L1.023627 0.013166 L1.246400 0.155200 L1.000000 0.541667 L0.857143 0.500000 L0.604938 0.205761 L0.513850 -0.076177 L0.560913 -0.335019 z " fill="rgb(245,195,195)" />
<path d="M0.000000 0.000000 L1.000000 0.000000 L1.000000 1.000000 L0.000000 1.000000  z" fill="none" stroke="rgb(128,128,128)" stroke-width="0.01" />
<line x1="0.975139" y1="-0.315045" x2="1.12141" y2="-0.112302" style="stroke:rgb(246,147,147);stroke-width:0.01" />
<line x1="0.560913" y1="-0.335019" x2="1.12141" y2="-0.112302" style="stroke:rgb(246,147,147);stroke-width:0.01" />
<line x1="0.552249" y1="-0.287371" x2="1.2464" y2="0.1552" style="stroke:rgb(246,147,147);stroke-width:0.01" />
<line x1="0.707762" y1="-0.337739" x2="0.560913" y2="-0.335019" style="stroke:rgb(246,147,147);stroke-width:0.01" />
<line x1="0.604938" y1="0.205761" x2="0.857143" y2="0.5" style="stroke:rgb(246,147,147);stroke-width:0.01" />
<line x1="0.708086" y1="-0.320241" x2="0.552249" y2="-0.287371" style="stroke:rgb(246,147,147);stroke-width:0.01" />
<line x1="0.51385" y1="-0.0761773" x2="0.604938" y2="0.205761" style="stroke:rgb(246,147,147);stroke-width:0.01" />
<line x1="0.833671" y1="0.320811" x2="0.857143" y2="0.5" style="stroke:rgb(246,147,147);stroke-width:0.01" />
<line x1="0.604938" y1="0.205761" x2="0.833671" y2="0.320811" style="stroke:rgb(246,147,147);stroke-width:0.01" />
<line x1="0.707762" y1="-0.337739" x2="0.708086" y2="-0.320241" style="stroke:rgb(246,147,147);stroke-width:0.01" />
<line x1="0.538462" y1="0" x2="1" y2="0" style="stroke:rgb(246,147,147);stroke-width:0.01" />
<line x1="1" y1="0" x2="1" y2="0.541667" style="stroke:rgb(246,147,147);stroke-width:0.01" />
<line x1="0.560913" y1="-0.335019" x2="0.51385" y2="-0.0761773" style="stroke:rgb(246,147,147);stroke-width:0.01" />
<line x1="0.708086" y1="-0.320241" x2="0.51385" y2="-0.0761773" style="stroke:rgb(246,147,147);stroke-width:0.01" />
<line x1="0.857143" y1="0.5" x2="1" y2="0.541667" style="stroke:rgb(246,147,147);stroke-width:0.01" />
<line x1="0.975139" y1="-0.315045" x2="0.538462" y2="0" style="stroke:rgb(246,147,147);stroke-width:0.01" />
<line x1="1.12141" y1="-0.112302" x2="0.745618" y2="0.369888" style="stroke:rgb(246,147,147);stroke-width:0.01" />
<line x1="0.833671" y1="0.320811" x2="0.745618" y2="0.369888" style="stroke:rgb(246,147,147);stroke-width:0.01" />
<line x1="1.2464" y1="0.1552" x2="1" y2="0.541667" style="stroke:rgb(246,147,147);stroke-width:0.01" />
</g>
</svg>
