<svg xmlns="http://www.w3.org/2000/svg" viewBox="-1.5 -1.5 3 3">
<g transform="scale(1, -1)">
<path d="M0.003177 1.160586 L0.042304 1.227477 L0.149884 1.236967 L0.161004 1.321570 L0.161271 1.382946 L0.162288 1.383017 L0.161780 1.500000 L-0.384289 1.500000 L-0.441417 1.271967 L-0.319510 1.241426 L-0.308269 1.196554 L-0.184110 1.207505 z " fill="rgb(245,195,195)" />
<path d="M0.000000 0.000000 L1.000000 0.000000 L1.000000 1.000000 L0.000000 1.000000  z" fill="none" stroke="rgb(128,128,128)" stroke-width="0.01" />
<line x1="-0.276869" y1="1.35244" x2="-0.287142" y2="1.5" style="stroke:rgb(246,147,147);stroke-width:0.01" />
<line x1="-0.308269" y1="1.19655" x2="-0.384289" y2="1.5" style="stroke:rgb(246,147,147);stroke-width:0.01" />
<line x1="0.161004" y1="1.32157" x2="0.16178" y2="1.5" style="stroke:rgb(246,147,147);stroke-width:0.01" />
<line x1="0.162288" y1="1.38302" x2="0.16178" y2="1.5" style="stroke:rgb(246,147,147);stroke-width:0.01" />
<line x1="0.149884" y1="1.23697" x2="0.161004" y2="1.32157" style="stroke:rgb(246,147,147);stroke-width:0.01" />
<line x1="-0.308269" y1="1.19655" x2="-0.287142" y2="1.5" style="stroke:rgb(246,147,147);stroke-width:0.01" />
<line x1="0.0726406" y1="1.27934" x2="0.112865" y2="1.5" style="stroke:rgb(246,147,147);stroke-width:0.01" />
<line x1="-0.0121471" y1="1.22267" x2="0.0350708" y2="1.5" style="stroke:rgb(246,147,147);stroke-width:0.01" />
<line x1="0.139738" y1="1.24066" x2="0.161004" y2="1.32157" style="stroke:rgb(246,147,147);stroke-width:0.01" />
<line x1="0.0726406" y1="1.27934" x2="0.0350708" y2="1.5" style="stroke:rgb(246,147,147);stroke-width:0.01" />
<line x1="0.154463" y1="1.2718" x2="0.112865" y2="1.5" style="stroke:rgb(246,147,147);stroke-width:0.01" />
<line x1="-0.0121471" y1="1.22267" x2="-0.111687" y2="1.5" style="stroke:rgb(246,147,147);stroke-width:0.01" />
<line x1="0.139738" y1="1.24066" x2="0.154463" y2="1.2718" style="stroke:rgb(246,147,147);stroke-width:0.01" />
<line x1="-0.441417" y1="1.27197" x2="-0.384289" y2="1.5" style="stroke:rgb(246,147,147);stroke-width:0.01" />
<line x1="-0.146918" y1="1.40184" x2="-0.111687" y2="1.5" style="stroke:rgb(246,147,147);stroke-width:0.01" />
<line x1="0.00317723" y1="1.16059" x2="0.0726406" y2="1.27934" style="stroke:rgb(246,147,147);stroke-width:0.01" />
<line x1="0.0553239" y1="1.25488" x2="0.162206" y2="1.40197" style="stroke:rgb(246,147,147);stroke-width:0.01" />
<line x1="-0.122799" y1="1.21291" x2="0.0896568" y2="1.5" style="stroke:rgb(246,147,147);stroke-width:0.01" />
<line x1="0.00317723" y1="1.16059" x2="-0.317961" y2="1.5" style="stroke:rgb(246,147,147);stroke-width:0.01" />
<line x1="0.162206" y1="1.40197" x2="0.0896568" y2="1.5" style="stroke:rgb(246,147,147);stroke-width:0.01" />
<line x1="-0.122799" y1="1.21291" x2="-0.369099" y2="1.44595" style="stroke:rgb(246,147,147);stroke-width:0.01" />
<line x1="0.0553239" y1="1.25488" x2="-0.146918" y2="1.40184" style="stroke:rgb(246,147,147);stroke-width:0.01" />
<line x1="-0.369099" y1="1.44595" x2="-0.317961" y2="1.5" style="stroke:rgb(246,147,147);stroke-width:0.01" />
<line x1="0.00317723" y1="1.16059" x2="-0.441417" y2="1.27197" style="stroke:rgb(246,147,147);stroke-width:0.01" />
<line x1="0.149884" y1="1.23697" x2="0.139738" y2="1.24066" style="stroke:rgb(246,147,147);stroke-width:0.01" />
<line x1="-0.308269" y1="1.19655" x2="0.149884" y2="1.23697" style="stroke:rgb(246,147,147);stroke-width:0.01" />
<line x1="-0.276869" y1="1.35244" x2="0.162288" y2="1.38302" style="stroke:rgb(246,147,147);stroke-width:0.01" />
<line x1="0.162288" y1="1.38302" x2="-0.146918" y2="1.40184" style="stroke:rgb(246,147,147);stroke-width:0.01" />
<line x1="-0.384289" y1="1.5" x2="0.16178" y2="1.5" style="stroke:rgb(246,147,147);stroke-width:0.01" />
</g>
</svg>
