<svg xmlns="http://www.w3.org/2000/svg" viewBox="-1.5 -1.5 3 3">
<g transform="scale(1, -1)">
<path d="M0.069501 -0.141916 L0.108628 -0.075024 L0.216208 -0.065534 L0.227328 0.019069 L0.227595 0.080445 L0.228612 0.080516 L0.228104 0.197499 L-0.317965 0.197499 L-0.375093 -0.030535 L-0.253186 -0.061075 L-0.241945 -0.105948 L-0.117787 -0.094996 z " fill="rgb(245,195,195)" />
<path d="M0.066324 -1.302501 L1.066324 -1.302501 L1.066324 -0.302501 L0.066324 -0.302501  z" fill="none" stroke="rgb(128,128,128)" stroke-width="0.01" />
<line x1="-0.210545" y1="0.0499411" x2="-0.220818" y2="0.197499" style="stroke:rgb(246,147,147);stroke-width:0.01" />
<line x1="-0.241945" y1="-0.105948" x2="-0.317965" y2="0.197499" style="stroke:rgb(246,147,147);stroke-width:0.01" />
<line x1="0.227328" y1="0.0190692" x2="0.228104" y2="0.197499" style="stroke:rgb(246,147,147);stroke-width:0.01" />
<line x1="0.228612" y1="0.0805156" x2="0.228104" y2="0.197499" style="stroke:rgb(246,147,147);stroke-width:0.01" />
<line x1="0.216208" y1="-0.0655345" x2="0.227328" y2="0.0190692" style="stroke:rgb(246,147,147);stroke-width:0.01" />
<line x1="-0.241945" y1="-0.105948" x2="-0.220818" y2="0.197499" style="stroke:rgb(246,147,147);stroke-width:0.01" />
<line x1="0.138964" y1="-0.0231608" x2="0.179189" y2="0.197499" style="stroke:rgb(246,147,147);stroke-width:0.01" />
<line x1="0.0541768" y1="-0.0798271" x2="0.101395" y2="0.197499" style="stroke:rgb(246,147,147);stroke-width:0.01" />
<line x1="0.206062" y1="-0.0618384" x2="0.227328" y2="0.0190692" style="stroke:rgb(246,147,147);stroke-width:0.01" />
<line x1="0.138964" y1="-0.0231608" x2="0.101395" y2="0.197499" style="stroke:rgb(246,147,147);stroke-width:0.01" />
<line x1="0.220787" y1="-0.0306977" x2="0.179189" y2="0.197499" style="stroke:rgb(246,147,147);stroke-width:0.01" />
<line x1="0.0541768" y1="-0.0798271" x2="-0.0453633" y2="0.197499" style="stroke:rgb(246,147,147);stroke-width:0.01" />
<line x1="0.206062" y1="-0.0618384" x2="0.220787" y2="-0.0306977" style="stroke:rgb(246,147,147);stroke-width:0.01" />
<line x1="-0.375093" y1="-0.0305346" x2="-0.317965" y2="0.197499" style="stroke:rgb(246,147,147);stroke-width:0.01" />
<line x1="-0.0805944" y1="0.0993425" x2="-0.0453633" y2="0.197499" style="stroke:rgb(246,147,147);stroke-width:0.01" />
<line x1="0.0695011" y1="-0.141916" x2="0.138964" y2="-0.0231608" style="stroke:rgb(246,147,147);stroke-width:0.01" />
<line x1="0.121648" y1="-0.0476204" x2="0.22853" y2="0.0994648" style="stroke:rgb(246,147,147);stroke-width:0.01" />
<line x1="-0.056475" y1="-0.0895875" x2="0.155981" y2="0.197499" style="stroke:rgb(246,147,147);stroke-width:0.01" />
<line x1="0.0695011" y1="-0.141916" x2="-0.251637" y2="0.197499" style="stroke:rgb(246,147,147);stroke-width:0.01" />
<line x1="0.22853" y1="0.0994648" x2="0.155981" y2="0.197499" style="stroke:rgb(246,147,147);stroke-width:0.01" />
<line x1="-0.056475" y1="-0.0895875" x2="-0.302775" y2="0.14345" style="stroke:rgb(246,147,147);stroke-width:0.01" />
<line x1="0.121648" y1="-0.0476204" x2="-0.0805944" y2="0.0993425" style="stroke:rgb(246,147,147);stroke-width:0.01" />
<line x1="-0.302775" y1="0.14345" x2="-0.251637" y2="0.197499" style="stroke:rgb(246,147,147);stroke-width:0.01" />
<line x1="0.0695011" y1="-0.141916" x2="-0.375093" y2="-0.0305346" style="stroke:rgb(246,147,147);stroke-width:0.01" />
<line x1="0.216208" y1="-0.0655345" x2="0.206062" y2="-0.0618384" style="stroke:rgb(246,147,147);stroke-width:0.01" />
<line x1="-0.241945" y1="-0.105948" x2="0.216208" y2="-0.0655345" style="stroke:rgb(246,147,147);stroke-width:0.01" />
<line x1="-0.210545" y1="0.0499411" x2="0.228612" y2="0.0805156" style="stroke:rgb(246,147,147);stroke-width:0.01" />
<line x1="0.228612" y1="0.0805156" x2="-0.0805944" y2="0.0993425" style="stroke:rgb(246,147,147);stroke-width:0.01" />
<line x1="-0.317965" y1="0.197499" x2="0.228104" y2="0.197499" style="stroke:rgb(246,147,147);stroke-width:0.01" />
</g>
</svg>
