<svg xmlns="http://www.w3.org/2000/svg" viewBox="-1.5 -1.5 3 3">
<g transform="scale(1, -1)">
<path d="M0.619606 0.072168 L0.748614 0.101664 L0.979212 0.784588 L0.977301 0.785280 L0.983607 0.819672 L0.778689 0.857240 L0.657758 0.410681 L0.633047 0.432993 L0.481071 0.290494 L0.504987 0.264987 L0.481495 0.234167 L0.512314 0.206340 L0.487055 0.173202 z " fill="rgb(245,195,195)" />
<path d="M0.000000 0.000000 L1.000000 0.000000 L1.000000 1.000000 L0.000000 1.000000  z" fill="none" stroke="rgb(128,128,128)" stroke-width="0.01" />
<line x1="0.619606" y1="0.0721675" x2="0.974755" y2="0.771388" style="stroke:rgb(246,147,147);stroke-width:0.01" />
<line x1="0.652566" y1="0.0797035" x2="0.944171" y2="0.795569" style="stroke:rgb(246,147,147);stroke-width:0.01" />
<line x1="0.748614" y1="0.101664" x2="0.979212" y2="0.784588" style="stroke:rgb(246,147,147);stroke-width:0.01" />
<line x1="0.674102" y1="0.0846273" x2="0.888746" y2="0.769574" style="stroke:rgb(246,147,147);stroke-width:0.01" />
<line x1="0.487055" y1="0.173202" x2="0.663866" y2="0.405167" style="stroke:rgb(246,147,147);stroke-width:0.01" />
<line x1="0.974755" y1="0.771388" x2="0.983607" y2="0.819672" style="stroke:rgb(246,147,147);stroke-width:0.01" />
<line x1="0.481495" y1="0.234167" x2="0.633047" y2="0.432993" style="stroke:rgb(246,147,147);stroke-width:0.01" />
<line x1="0.616883" y1="0.25974" x2="0.778689" y2="0.85724" style="stroke:rgb(246,147,147);stroke-width:0.01" />
<line x1="0.481495" y1="0.234167" x2="0.663866" y2="0.405167" style="stroke:rgb(246,147,147);stroke-width:0.01" />
<line x1="0.481071" y1="0.290494" x2="0.633047" y2="0.432993" style="stroke:rgb(246,147,147);stroke-width:0.01" />
<line x1="0.619606" y1="0.0721675" x2="0.748614" y2="0.101664" style="stroke:rgb(246,147,147);stroke-width:0.01" />
<line x1="0.616883" y1="0.25974" x2="0.80735" y2="0.275612" style="stroke:rgb(246,147,147);stroke-width:0.01" />
<line x1="0.619606" y1="0.0721675" x2="0.487055" y2="0.173202" style="stroke:rgb(246,147,147);stroke-width:0.01" />
<line x1="0.652566" y1="0.0797035" x2="0.481495" y2="0.234167" style="stroke:rgb(246,147,147);stroke-width:0.01" />
<line x1="0.674102" y1="0.0846273" x2="0.481071" y2="0.290494" style="stroke:rgb(246,147,147);stroke-width:0.01" />
<line x1="0.748614" y1="0.101664" x2="0.616883" y2="0.25974" style="stroke:rgb(246,147,147);stroke-width:0.01" />
<line x1="0.80735" y1="0.275612" x2="0.633047" y2="0.432993" style="stroke:rgb(246,147,147);stroke-width:0.01" />
<line x1="0.977247" y1="0.778769" x2="0.767835" y2="0.817161" style="stroke:rgb(246,147,147);stroke-width:0.01" />
<line x1="0.96597" y1="0.745374" x2="0.888746" y2="0.769574" style="stroke:rgb(246,147,147);stroke-width:0.01" />
<line x1="0.983607" y1="0.819672" x2="0.778689" y2="0.85724" style="stroke:rgb(246,147,147);stroke-width:0.01" />
<line x1="0.96597" y1="0.745374" x2="0.767835" y2="0.817161" style="stroke:rgb(246,147,147);stroke-width:0.01" />
<line x1="0.979212" y1="0.784588" x2="0.944171" y2="0.795569" style="stroke:rgb(246,147,147);stroke-width:0.01" />
<line x1="0.979212" y1="0.784588" x2="0.778689" y2="0.85724" style="stroke:rgb(246,147,147);stroke-width:0.01" />
<line x1="0.977247" y1="0.778769" x2="0.944171" y2="0.795569" style="stroke:rgb(246,147,147);stroke-width:0.01" />
</g>
</svg>
