<svg xmlns="http://www.w3.org/2000/svg" viewBox="-1.5 -1.5 3 3">
<g transform="scale(1, -1)">
<path d="M-0.060760 -0.345792 L0.068248 -0.316296 L0.298846 0.366628 L0.296936 0.367321 L0.303241 0.401712 L0.098323 0.439281 L-0.022607 -0.007279 L-0.047319 0.015034 L-0.199295 -0.127466 L-0.175379 -0.152972 L-0.198871 -0.183793 L-0.168052 -0.211620 L-0.193311 -0.244758 z " fill="rgb(245,195,195)" />
<path d="M-0.680366 -0.417960 L0.319634 -0.417960 L0.319634 0.582040 L-0.680366 0.582040  z" fill="none" stroke="rgb(128,128,128)" stroke-width="0.01" />
<line x1="-0.0607595" y1="-0.345792" x2="0.294389" y2="0.353429" style="stroke:rgb(246,147,147);stroke-width:0.01" />
<line x1="-0.0277994" y1="-0.338256" x2="0.263805" y2="0.377609" style="stroke:rgb(246,147,147);stroke-width:0.01" />
<line x1="0.0682478" y1="-0.316296" x2="0.298846" y2="0.366628" style="stroke:rgb(246,147,147);stroke-width:0.01" />
<line x1="-0.00626417" y1="-0.333332" x2="0.20838" y2="0.351614" style="stroke:rgb(246,147,147);stroke-width:0.01" />
<line x1="-0.193311" y1="-0.244758" x2="-0.0165001" y2="-0.0127932" style="stroke:rgb(246,147,147);stroke-width:0.01" />
<line x1="0.294389" y1="0.353429" x2="0.303241" y2="0.401712" style="stroke:rgb(246,147,147);stroke-width:0.01" />
<line x1="-0.198871" y1="-0.183793" x2="-0.047319" y2="0.0150337" style="stroke:rgb(246,147,147);stroke-width:0.01" />
<line x1="-0.0634828" y1="-0.158219" x2="0.0983227" y2="0.439281" style="stroke:rgb(246,147,147);stroke-width:0.01" />
<line x1="-0.198871" y1="-0.183793" x2="-0.0165001" y2="-0.0127932" style="stroke:rgb(246,147,147);stroke-width:0.01" />
<line x1="-0.199295" y1="-0.127466" x2="-0.047319" y2="0.0150337" style="stroke:rgb(246,147,147);stroke-width:0.01" />
<line x1="-0.0607595" y1="-0.345792" x2="0.0682478" y2="-0.316296" style="stroke:rgb(246,147,147);stroke-width:0.01" />
<line x1="-0.0634828" y1="-0.158219" x2="0.126984" y2="-0.142347" style="stroke:rgb(246,147,147);stroke-width:0.01" />
<line x1="-0.0607595" y1="-0.345792" x2="-0.193311" y2="-0.244758" style="stroke:rgb(246,147,147);stroke-width:0.01" />
<line x1="-0.0277994" y1="-0.338256" x2="-0.198871" y2="-0.183793" style="stroke:rgb(246,147,147);stroke-width:0.01" />
<line x1="-0.00626417" y1="-0.333332" x2="-0.199295" y2="-0.127466" style="stroke:rgb(246,147,147);stroke-width:0.01" />
<line x1="0.0682478" y1="-0.316296" x2="-0.0634828" y2="-0.158219" style="stroke:rgb(246,147,147);stroke-width:0.01" />
<line x1="0.126984" y1="-0.142347" x2="-0.047319" y2="0.0150337" style="stroke:rgb(246,147,147);stroke-width:0.01" />
<line x1="0.296881" y1="0.360809" x2="0.0874691" y2="0.399202" style="stroke:rgb(246,147,147);stroke-width:0.01" />
<line x1="0.285605" y1="0.327414" x2="0.20838" y2="0.351614" style="stroke:rgb(246,147,147);stroke-width:0.01" />
<line x1="0.303241" y1="0.401712" x2="0.0983227" y2="0.439281" style="stroke:rgb(246,147,147);stroke-width:0.01" />
<line x1="0.285605" y1="0.327414" x2="0.0874691" y2="0.399202" style="stroke:rgb(246,147,147);stroke-width:0.01" />
<line x1="0.298846" y1="0.366628" x2="0.263805" y2="0.377609" style="stroke:rgb(246,147,147);stroke-width:0.01" />
<line x1="0.298846" y1="0.366628" x2="0.0983227" y2="0.439281" style="stroke:rgb(246,147,147);stroke-width:0.01" />
<line x1="0.296881" y1="0.360809" x2="0.263805" y2="0.377609" style="stroke:rgb(246,147,147);stroke-width:0.01" />
</g>
</svg>
