<svg xmlns="http://www.w3.org/2000/svg" viewBox="-1.5 -1.5 3 3">
<g transform="scale(1, -1)">
<path d="M0.259372 -0.386062 L0.682375 0.000000 L1.000000 0.000000 L1.000000 0.041667 L1.041379 0.045115 L1.041379 0.083868 L1.075862 0.089655 L1.041379 0.295115 L1.002146 0.291845 L0.203125 -0.056818 L0.111994 -0.127055 L0.137429 -0.160057 L0.106760 -0.188048 L0.130416 -0.218743 L0.106637 -0.244377 z " fill="rgb(245,195,195)" />
<path d="M0.000000 0.000000 L1.000000 0.000000 L1.000000 1.000000 L0.000000 1.000000  z" fill="none" stroke="rgb(128,128,128)" stroke-width="0.01" />
<line x1="0.259372" y1="-0.386062" x2="1.00215" y2="0.291845" style="stroke:rgb(246,147,147);stroke-width:0.01" />
<line x1="0.106637" y1="-0.244377" x2="0.333333" y2="0" style="stroke:rgb(246,147,147);stroke-width:0.01" />
<line x1="0.10676" y1="-0.188048" x2="0.293991" y2="-0.0171674" style="stroke:rgb(246,147,147);stroke-width:0.01" />
<line x1="0.111994" y1="-0.127055" x2="0.203125" y2="-0.0568182" style="stroke:rgb(246,147,147);stroke-width:0.01" />
<line x1="0.203125" y1="-0.0568182" x2="1.00215" y2="0.291845" style="stroke:rgb(246,147,147);stroke-width:0.01" />
<line x1="0.203125" y1="-0.0568182" x2="1.07586" y2="0.0896552" style="stroke:rgb(246,147,147);stroke-width:0.01" />
<line x1="0.259372" y1="-0.386062" x2="0.106637" y2="-0.244377" style="stroke:rgb(246,147,147);stroke-width:0.01" />
<line x1="0.290042" y1="-0.35807" x2="0.10676" y2="-0.188048" style="stroke:rgb(246,147,147);stroke-width:0.01" />
<line x1="0.293991" y1="-0.0171674" x2="1.04138" y2="0.0451149" style="stroke:rgb(246,147,147);stroke-width:0.01" />
<line x1="0.259372" y1="-0.386062" x2="0.10676" y2="-0.188048" style="stroke:rgb(246,147,147);stroke-width:0.01" />
<line x1="0.333333" y1="0" x2="1" y2="0" style="stroke:rgb(246,147,147);stroke-width:0.01" />
<line x1="1" y1="0" x2="1" y2="0.290909" style="stroke:rgb(246,147,147);stroke-width:0.01" />
<line x1="1.04138" y1="0.0451149" x2="1.04138" y2="0.295115" style="stroke:rgb(246,147,147);stroke-width:0.01" />
<line x1="0.290042" y1="-0.35807" x2="0.111994" y2="-0.127055" style="stroke:rgb(246,147,147);stroke-width:0.01" />
<line x1="1.04138" y1="0.0451149" x2="1.00012" y2="0.290961" style="stroke:rgb(246,147,147);stroke-width:0.01" />
<line x1="1.07586" y1="0.0896552" x2="1.04138" y2="0.295115" style="stroke:rgb(246,147,147);stroke-width:0.01" />
<line x1="1.00215" y1="0.291845" x2="1.04138" y2="0.295115" style="stroke:rgb(246,147,147);stroke-width:0.01" />
<line x1="1.00056" y1="0.290394" x2="1.00012" y2="0.290961" style="stroke:rgb(246,147,147);stroke-width:0.01" />
<line x1="1.00056" y1="0.290394" x2="1" y2="0.290909" style="stroke:rgb(246,147,147);stroke-width:0.01" />
</g>
</svg>
