<svg xmlns="http://www.w3.org/2000/svg" viewBox="-1.5 -1.5 3 3">
<g transform="scale(1, -1)">
<path d="M-0.336645 -0.350469 L0.086358 0.035593 L0.403983 0.035593 L0.403983 0.077260 L0.445362 0.080708 L0.445362 0.119461 L0.479845 0.125248 L0.445362 0.330708 L0.406129 0.327438 L-0.392892 -0.021225 L-0.484023 -0.091462 L-0.458588 -0.124464 L-0.489257 -0.152455 L-0.465601 -0.183150 L-0.489380 -0.208784 z " fill="rgb(245,195,195)" />
<path d="M-0.596017 0.035593 L0.403983 0.035593 L0.403983 1.035593 L-0.596017 1.035593  z" fill="none" stroke="rgb(128,128,128)" stroke-width="0.01" />
<line x1="-0.336645" y1="-0.350469" x2="0.406129" y2="0.327438" style="stroke:rgb(246,147,147);stroke-width:0.01" />
<line x1="-0.48938" y1="-0.208784" x2="-0.262684" y2="0.0355929" style="stroke:rgb(246,147,147);stroke-width:0.01" />
<line x1="-0.489257" y1="-0.152455" x2="-0.302026" y2="0.0184256" style="stroke:rgb(246,147,147);stroke-width:0.01" />
<line x1="-0.484023" y1="-0.0914618" x2="-0.392892" y2="-0.0212252" style="stroke:rgb(246,147,147);stroke-width:0.01" />
<line x1="-0.392892" y1="-0.0212252" x2="0.406129" y2="0.327438" style="stroke:rgb(246,147,147);stroke-width:0.01" />
<line x1="-0.392892" y1="-0.0212252" x2="0.479845" y2="0.125248" style="stroke:rgb(246,147,147);stroke-width:0.01" />
<line x1="-0.336645" y1="-0.350469" x2="-0.48938" y2="-0.208784" style="stroke:rgb(246,147,147);stroke-width:0.01" />
<line x1="-0.305975" y1="-0.322478" x2="-0.489257" y2="-0.152455" style="stroke:rgb(246,147,147);stroke-width:0.01" />
<line x1="-0.302026" y1="0.0184256" x2="0.445362" y2="0.0807079" style="stroke:rgb(246,147,147);stroke-width:0.01" />
<line x1="-0.336645" y1="-0.350469" x2="-0.489257" y2="-0.152455" style="stroke:rgb(246,147,147);stroke-width:0.01" />
<line x1="-0.262684" y1="0.0355929" x2="0.403983" y2="0.0355929" style="stroke:rgb(246,147,147);stroke-width:0.01" />
<line x1="0.403983" y1="0.0355929" x2="0.403983" y2="0.326502" style="stroke:rgb(246,147,147);stroke-width:0.01" />
<line x1="0.445362" y1="0.0807079" x2="0.445362" y2="0.330708" style="stroke:rgb(246,147,147);stroke-width:0.01" />
<line x1="-0.305975" y1="-0.322478" x2="-0.484023" y2="-0.0914618" style="stroke:rgb(246,147,147);stroke-width:0.01" />
<line x1="0.445362" y1="0.0807079" x2="0.404102" y2="0.326554" style="stroke:rgb(246,147,147);stroke-width:0.01" />
<line x1="0.479845" y1="0.125248" x2="0.445362" y2="0.330708" style="stroke:rgb(246,147,147);stroke-width:0.01" />
<line x1="0.406129" y1="0.327438" x2="0.445362" y2="0.330708" style="stroke:rgb(246,147,147);stroke-width:0.01" />
<line x1="0.404538" y1="0.325987" x2="0.404102" y2="0.326554" style="stroke:rgb(246,147,147);stroke-width:0.01" />
<line x1="0.404538" y1="0.325987" x2="0.403983" y2="0.326502" style="stroke:rgb(246,147,147);stroke-width:0.01" />
</g>
</svg>
