<svg xmlns="http://www.w3.org/2000/svg" viewBox="-1.5 -1.5 3 3">
<g transform="scale(1, -1)">
<path d="M0.087070 2.124672 L0.113163 2.156973 L0.108035 2.161872 L0.244098 2.403302 L0.058155 2.601403 L0.013345 2.574965 L-0.054873 2.721822 L-0.151051 2.824289 L-0.305126 2.767746 L-0.293080 2.734921 L-0.326749 2.715733 L-0.309256 2.678075 L-0.345456 2.657444 L-0.240119 2.472616 L-0.070405 2.412006 L-0.154253 2.288478 z " fill="rgb(245,195,195)" />
<path d="M0.000000 0.000000 L1.000000 0.000000 L1.000000 1.000000 L0.000000 1.000000  z" fill="none" stroke="rgb(128,128,128)" stroke-width="0.01" />
<line x1="-0.190287" y1="2.45482" x2="-0.305126" y2="2.76775" style="stroke:rgb(246,147,147);stroke-width:0.01" />
<line x1="-0.208584" y1="2.46135" x2="-0.326749" y2="2.71573" style="stroke:rgb(246,147,147);stroke-width:0.01" />
<line x1="-0.0906074" y1="2.24528" x2="0.0679561" y2="2.59096" style="stroke:rgb(246,147,147);stroke-width:0.01" />
<line x1="0.120757" y1="2.34374" x2="-0.0548733" y2="2.72182" style="stroke:rgb(246,147,147);stroke-width:0.01" />
<line x1="0.0870704" y1="2.12467" x2="0.244098" y2="2.4033" style="stroke:rgb(246,147,147);stroke-width:0.01" />
<line x1="-0.132401" y1="2.76399" x2="-0.120279" y2="2.7915" style="stroke:rgb(246,147,147);stroke-width:0.01" />
<line x1="-0.240119" y1="2.47262" x2="-0.345456" y2="2.65744" style="stroke:rgb(246,147,147);stroke-width:0.01" />
<line x1="-0.168877" y1="2.78383" x2="-0.151051" y2="2.82429" style="stroke:rgb(246,147,147);stroke-width:0.01" />
<line x1="-0.119778" y1="2.26508" x2="0.0654091" y2="2.59367" style="stroke:rgb(246,147,147);stroke-width:0.01" />
<line x1="-0.154253" y1="2.28848" x2="0.0581546" y2="2.6014" style="stroke:rgb(246,147,147);stroke-width:0.01" />
<line x1="0.0870704" y1="2.12467" x2="0.113163" y2="2.15697" style="stroke:rgb(246,147,147);stroke-width:0.01" />
<line x1="-0.132401" y1="2.76399" x2="-0.116776" y2="2.78777" style="stroke:rgb(246,147,147);stroke-width:0.01" />
<line x1="-0.168877" y1="2.78383" x2="-0.145901" y2="2.8188" style="stroke:rgb(246,147,147);stroke-width:0.01" />
<line x1="-0.119778" y1="2.26508" x2="-0.0936858" y2="2.29738" style="stroke:rgb(246,147,147);stroke-width:0.01" />
<line x1="-0.0906074" y1="2.24528" x2="-0.0374672" y2="2.30089" style="stroke:rgb(246,147,147);stroke-width:0.01" />
<line x1="0.0870704" y1="2.12467" x2="-0.0936858" y2="2.29738" style="stroke:rgb(246,147,147);stroke-width:0.01" />
<line x1="0.113163" y1="2.15697" x2="-0.0374672" y2="2.30089" style="stroke:rgb(246,147,147);stroke-width:0.01" />
<line x1="0.244098" y1="2.4033" x2="0.0581546" y2="2.6014" style="stroke:rgb(246,147,147);stroke-width:0.01" />
<line x1="-0.0548733" y1="2.72182" x2="-0.151051" y2="2.82429" style="stroke:rgb(246,147,147);stroke-width:0.01" />
<line x1="0.0870704" y1="2.12467" x2="-0.154253" y2="2.28848" style="stroke:rgb(246,147,147);stroke-width:0.01" />
<line x1="0.113163" y1="2.15697" x2="-0.0936858" y2="2.29738" style="stroke:rgb(246,147,147);stroke-width:0.01" />
<line x1="0.120757" y1="2.34374" x2="0.244098" y2="2.4033" style="stroke:rgb(246,147,147);stroke-width:0.01" />
<line x1="-0.190287" y1="2.45482" x2="0.0581546" y2="2.6014" style="stroke:rgb(246,147,147);stroke-width:0.01" />
<line x1="-0.0548733" y1="2.72182" x2="-0.168877" y2="2.78383" style="stroke:rgb(246,147,147);stroke-width:0.01" />
<line x1="-0.208584" y1="2.46135" x2="0.0654091" y2="2.59367" style="stroke:rgb(246,147,147);stroke-width:0.01" />
<line x1="0.120757" y1="2.34374" x2="-0.240119" y2="2.47262" style="stroke:rgb(246,147,147);stroke-width:0.01" />
<line x1="-0.345456" y1="2.65744" x2="-0.116776" y2="2.78777" style="stroke:rgb(246,147,147);stroke-width:0.01" />
<line x1="-0.326749" y1="2.71573" x2="-0.145901" y2="2.8188" style="stroke:rgb(246,147,147);stroke-width:0.01" />
<line x1="-0.240119" y1="2.47262" x2="0.0679561" y2="2.59096" style="stroke:rgb(246,147,147);stroke-width:0.01" />
<line x1="-0.326749" y1="2.71573" x2="-0.120279" y2="2.7915" style="stroke:rgb(246,147,147);stroke-width:0.01" />
<line x1="-0.305126" y1="2.76775" x2="-0.151051" y2="2.82429" style="stroke:rgb(246,147,147);stroke-width:0.01" />
</g>
</svg>
