<svg xmlns="http://www.w3.org/2000/svg" viewBox="-1.5 -1.5 3 3">
<g transform="scale(1, -1)">
<path d="M0.188727 -0.393847 L0.214819 -0.361547 L0.209692 -0.356648 L0.345754 -0.115218 L0.159811 0.082884 L0.115002 0.056445 L0.046783 0.203302 L-0.049395 0.305769 L-0.203470 0.249226 L-0.191424 0.216402 L-0.225092 0.197213 L-0.207599 0.159555 L-0.243800 0.138924 L-0.138463 -0.045904 L0.031251 -0.106514 L-0.052597 -0.230042 z " fill="rgb(245,195,195)" />
<path d="M0.101656 -2.518520 L1.101656 -2.518520 L1.101656 -1.518520 L0.101656 -1.518520  z" fill="none" stroke="rgb(128,128,128)" stroke-width="0.01" />
<line x1="-0.0886304" y1="-0.0637006" x2="-0.20347" y2="0.249226" style="stroke:rgb(246,147,147);stroke-width:0.01" />
<line x1="-0.106927" y1="-0.0571662" x2="-0.225092" y2="0.197213" style="stroke:rgb(246,147,147);stroke-width:0.01" />
<line x1="0.0110491" y1="-0.273243" x2="0.169612" y2="0.0724412" style="stroke:rgb(246,147,147);stroke-width:0.01" />
<line x1="0.222413" y1="-0.174784" x2="0.0467831" y2="0.203302" style="stroke:rgb(246,147,147);stroke-width:0.01" />
<line x1="0.188727" y1="-0.393847" x2="0.345754" y2="-0.115218" style="stroke:rgb(246,147,147);stroke-width:0.01" />
<line x1="-0.0307449" y1="0.245471" x2="-0.0186222" y2="0.272984" style="stroke:rgb(246,147,147);stroke-width:0.01" />
<line x1="-0.138463" y1="-0.0459039" x2="-0.2438" y2="0.138924" style="stroke:rgb(246,147,147);stroke-width:0.01" />
<line x1="-0.067221" y1="0.265312" x2="-0.0493947" y2="0.305769" style="stroke:rgb(246,147,147);stroke-width:0.01" />
<line x1="-0.0181219" y1="-0.253442" x2="0.167065" y2="0.0751547" style="stroke:rgb(246,147,147);stroke-width:0.01" />
<line x1="-0.0525967" y1="-0.230042" x2="0.159811" y2="0.0828835" style="stroke:rgb(246,147,147);stroke-width:0.01" />
<line x1="0.188727" y1="-0.393847" x2="0.214819" y2="-0.361547" style="stroke:rgb(246,147,147);stroke-width:0.01" />
<line x1="-0.0307449" y1="0.245471" x2="-0.0151197" y2="0.269253" style="stroke:rgb(246,147,147);stroke-width:0.01" />
<line x1="-0.067221" y1="0.265312" x2="-0.0442443" y2="0.300282" style="stroke:rgb(246,147,147);stroke-width:0.01" />
<line x1="-0.0181219" y1="-0.253442" x2="0.00797064" y2="-0.221142" style="stroke:rgb(246,147,147);stroke-width:0.01" />
<line x1="0.0110491" y1="-0.273243" x2="0.0641892" y2="-0.217626" style="stroke:rgb(246,147,147);stroke-width:0.01" />
<line x1="0.188727" y1="-0.393847" x2="0.00797064" y2="-0.221142" style="stroke:rgb(246,147,147);stroke-width:0.01" />
<line x1="0.214819" y1="-0.361547" x2="0.0641892" y2="-0.217626" style="stroke:rgb(246,147,147);stroke-width:0.01" />
<line x1="0.345754" y1="-0.115218" x2="0.159811" y2="0.0828835" style="stroke:rgb(246,147,147);stroke-width:0.01" />
<line x1="0.0467831" y1="0.203302" x2="-0.0493947" y2="0.305769" style="stroke:rgb(246,147,147);stroke-width:0.01" />
<line x1="0.188727" y1="-0.393847" x2="-0.0525967" y2="-0.230042" style="stroke:rgb(246,147,147);stroke-width:0.01" />
<line x1="0.214819" y1="-0.361547" x2="0.00797064" y2="-0.221142" style="stroke:rgb(246,147,147);stroke-width:0.01" />
<line x1="0.222413" y1="-0.174784" x2="0.345754" y2="-0.115218" style="stroke:rgb(246,147,147);stroke-width:0.01" />
<line x1="-0.0886304" y1="-0.0637006" x2="0.159811" y2="0.0828835" style="stroke:rgb(246,147,147);stroke-width:0.01" />
<line x1="0.0467831" y1="0.203302" x2="-0.067221" y2="0.265312" style="stroke:rgb(246,147,147);stroke-width:0.01" />
<line x1="-0.106927" y1="-0.0571662" x2="0.167065" y2="0.0751547" style="stroke:rgb(246,147,147);stroke-width:0.01" />
<line x1="0.222413" y1="-0.174784" x2="-0.138463" y2="-0.0459039" style="stroke:rgb(246,147,147);stroke-width:0.01" />
<line x1="-0.2438" y1="0.138924" x2="-0.0151197" y2="0.269253" style="stroke:rgb(246,147,147);stroke-width:0.01" />
<line x1="-0.225092" y1="0.197213" x2="-0.0442443" y2="0.300282" style="stroke:rgb(246,147,147);stroke-width:0.01" />
<line x1="-0.138463" y1="-0.0459039" x2="0.169612" y2="0.0724412" style="stroke:rgb(246,147,147);stroke-width:0.01" />
<line x1="-0.225092" y1="0.197213" x2="-0.0186222" y2="0.272984" style="stroke:rgb(246,147,147);stroke-width:0.01" />
<line x1="-0.20347" y1="0.249226" x2="-0.0493947" y2="0.305769" style="stroke:rgb(246,147,147);stroke-width:0.01" />
</g>
</svg>
