<svg xmlns="http://www.w3.org/2000/svg" viewBox="-1.5 -1.5 3 3">
<g transform="scale(1, -1)">
<path d="M0.140000 -0.480000 L0.070000 -0.240000 L0.310000 -0.170000 L0.480000 0.140000 L0.240000 0.070000 L0.170000 0.310000 L-0.140000 0.480000 L-0.070000 0.240000 L-0.310000 0.170000 L-0.480000 -0.140000 L-0.240000 -0.070000 L-0.170000 -0.310000 z " fill="rgb(245,195,195)" />
<path d="M0.760000 -0.820000 L1.760000 -0.820000 L1.760000 0.180000 L0.760000 0.180000  z" fill="none" stroke="rgb(128,128,128)" stroke-width="0.01" />
<line x1="-0.17" y1="-0.31" x2="-0.31" y2="0.17" style="stroke:rgb(246,147,147);stroke-width:0.01" />
<line x1="0.14" y1="-0.48" x2="-0.14" y2="0.48" style="stroke:rgb(246,147,147);stroke-width:0.01" />
<line x1="0.31" y1="-0.17" x2="0.17" y2="0.31" style="stroke:rgb(246,147,147);stroke-width:0.01" />
<line x1="0.14" y1="-0.48" x2="-0.17" y2="-0.31" style="stroke:rgb(246,147,147);stroke-width:0.01" />
<line x1="0.31" y1="-0.17" x2="-0.31" y2="0.17" style="stroke:rgb(246,147,147);stroke-width:0.01" />
<line x1="0.31" y1="-0.17" x2="0.48" y2="0.14" style="stroke:rgb(246,147,147);stroke-width:0.01" />
<line x1="-0.17" y1="-0.31" x2="0.17" y2="0.31" style="stroke:rgb(246,147,147);stroke-width:0.01" />
<line x1="0.17" y1="0.31" x2="-0.14" y2="0.48" style="stroke:rgb(246,147,147);stroke-width:0.01" />
<line x1="-0.48" y1="-0.14" x2="-0.31" y2="0.17" style="stroke:rgb(246,147,147);stroke-width:0.01" />
<line x1="-0.17" y1="-0.31" x2="0.31" y2="-0.17" style="stroke:rgb(246,147,147);stroke-width:0.01" />
<line x1="-0.48" y1="-0.14" x2="0.48" y2="0.14" style="stroke:rgb(246,147,147);stroke-width:0.01" />
<line x1="-0.31" y1="0.17" x2="0.17" y2="0.31" style="stroke:rgb(246,147,147);stroke-width:0.01" />
</g>
</svg>
