<svg xmlns="http://www.w3.org/2000/svg" viewBox="-1.5 -1.5 3 3">
<g transform="scale(1, -1)">
<path d="M-0.463192 -0.158576 L0.171668 -0.099798 L0.236944 -0.082924 L0.226516 -0.042583 L0.265715 -0.028888 L0.256016 0.008631 L0.287953 0.022865 L0.203145 0.213155 L-0.235653 0.059852 L-0.402674 0.156995 L-0.546438 -0.048727 z " fill="rgb(245,195,195)" />
<path d="M-1.614986 -1.383730 L-0.614986 -1.383730 L-0.614986 -0.383730 L-1.614986 -0.383730  z" fill="none" stroke="rgb(128,128,128)" stroke-width="0.01" />
<line x1="-0.338493" y1="-0.147031" x2="-0.222586" y2="0.0522519" style="stroke:rgb(246,147,147);stroke-width:0.01" />
<line x1="-0.463192" y1="-0.158576" x2="-0.398852" y2="-0.0299604" style="stroke:rgb(246,147,147);stroke-width:0.01" />
<line x1="-0.309305" y1="-0.144329" x2="-0.210354" y2="-0.00273216" style="stroke:rgb(246,147,147);stroke-width:0.01" />
<line x1="-0.265976" y1="-0.140317" x2="-0.202085" y2="-0.0633889" style="stroke:rgb(246,147,147);stroke-width:0.01" />
<line x1="-0.546438" y1="-0.0487268" x2="-0.402674" y2="0.156995" style="stroke:rgb(246,147,147);stroke-width:0.01" />
<line x1="-0.0289506" y1="-0.118373" x2="0.287953" y2="0.0228647" style="stroke:rgb(246,147,147);stroke-width:0.01" />
<line x1="0.236944" y1="-0.082924" x2="0.163945" y2="0.19946" style="stroke:rgb(246,147,147);stroke-width:0.01" />
<line x1="0.265715" y1="-0.0288884" x2="0.203145" y2="0.213155" style="stroke:rgb(246,147,147);stroke-width:0.01" />
<line x1="0.0234793" y1="-0.113518" x2="0.265715" y2="-0.0288884" style="stroke:rgb(246,147,147);stroke-width:0.01" />
<line x1="0.171668" y1="-0.0997985" x2="0.236944" y2="-0.082924" style="stroke:rgb(246,147,147);stroke-width:0.01" />
<line x1="-0.546438" y1="-0.0487268" x2="0.203145" y2="0.213155" style="stroke:rgb(246,147,147);stroke-width:0.01" />
<line x1="0.265715" y1="-0.0288884" x2="0.163945" y2="0.19946" style="stroke:rgb(246,147,147);stroke-width:0.01" />
<line x1="0.287953" y1="0.0228647" x2="0.203145" y2="0.213155" style="stroke:rgb(246,147,147);stroke-width:0.01" />
<line x1="-0.463192" y1="-0.158576" x2="-0.546438" y2="-0.0487268" style="stroke:rgb(246,147,147);stroke-width:0.01" />
<line x1="-0.463192" y1="-0.158576" x2="0.171668" y2="-0.0997985" style="stroke:rgb(246,147,147);stroke-width:0.01" />
<line x1="-0.338493" y1="-0.147031" x2="-0.413746" y2="-0.0597339" style="stroke:rgb(246,147,147);stroke-width:0.01" />
<line x1="-0.309305" y1="-0.144329" x2="-0.407726" y2="-0.0476985" style="stroke:rgb(246,147,147);stroke-width:0.01" />
<line x1="-0.265976" y1="-0.140317" x2="-0.398852" y2="-0.0299604" style="stroke:rgb(246,147,147);stroke-width:0.01" />
<line x1="0.171668" y1="-0.0997985" x2="-0.413746" y2="-0.0597339" style="stroke:rgb(246,147,147);stroke-width:0.01" />
<line x1="-0.202085" y1="-0.0633889" x2="-0.426459" y2="0.122959" style="stroke:rgb(246,147,147);stroke-width:0.01" />
<line x1="0.0234793" y1="-0.113518" x2="-0.407726" y2="-0.0476985" style="stroke:rgb(246,147,147);stroke-width:0.01" />
<line x1="-0.210354" y1="-0.00273216" x2="-0.402674" y2="0.156995" style="stroke:rgb(246,147,147);stroke-width:0.01" />
<line x1="-0.0289506" y1="-0.118373" x2="-0.398852" y2="-0.0299604" style="stroke:rgb(246,147,147);stroke-width:0.01" />
<line x1="-0.210354" y1="-0.00273216" x2="-0.426459" y2="0.122959" style="stroke:rgb(246,147,147);stroke-width:0.01" />
<line x1="-0.222586" y1="0.0522519" x2="-0.402674" y2="0.156995" style="stroke:rgb(246,147,147);stroke-width:0.01" />
</g>
</svg>
