<svg xmlns="http://www.w3.org/2000/svg" viewBox="-1.5 -1.5 3 3">
<g transform="scale(1, -1)">
<path d="M-0.116304 -0.436726 L0.149780 -0.317274 L0.002537 0.010717 L0.115556 -0.021308 L0.188801 0.173725 L0.156069 0.186018 L0.163501 0.224052 L0.123551 0.235372 L0.131541 0.276265 L-0.095370 0.320605 L-0.276384 0.127870 L-0.276384 0.017523 L-0.130497 -0.396452 L-0.136397 -0.400388 z " fill="rgb(245,195,195)" />
<path d="M-1.276384 -0.007788 L-0.276384 -0.007788 L-0.276384 0.992212 L-1.276384 0.992212  z" fill="none" stroke="rgb(128,128,128)" stroke-width="0.01" />
<line x1="-0.116304" y1="-0.436726" x2="0.0916752" y2="-0.298001" style="stroke:rgb(246,147,147);stroke-width:0.01" />
<line x1="-0.136397" y1="-0.400388" x2="0.0369194" y2="-0.284784" style="stroke:rgb(246,147,147);stroke-width:0.01" />
<line x1="-0.116304" y1="-0.436726" x2="0.14978" y2="-0.317274" style="stroke:rgb(246,147,147);stroke-width:0.01" />
<line x1="-0.136397" y1="-0.400388" x2="0.0916752" y2="-0.298001" style="stroke:rgb(246,147,147);stroke-width:0.01" />
<line x1="0.115556" y1="-0.0213075" x2="0.188801" y2="0.173725" style="stroke:rgb(246,147,147);stroke-width:0.01" />
<line x1="0.075606" y1="-0.00998756" x2="0.163501" y2="0.224052" style="stroke:rgb(246,147,147);stroke-width:0.01" />
<line x1="-0.276384" y1="0.12787" x2="-0.09537" y2="0.320605" style="stroke:rgb(246,147,147);stroke-width:0.01" />
<line x1="-0.276384" y1="0.0175226" x2="-0.248107" y2="0.0977623" style="stroke:rgb(246,147,147);stroke-width:0.01" />
<line x1="0.115556" y1="-0.0213075" x2="0.163501" y2="0.224052" style="stroke:rgb(246,147,147);stroke-width:0.01" />
<line x1="0.075606" y1="-0.00998756" x2="0.131541" y2="0.276265" style="stroke:rgb(246,147,147);stroke-width:0.01" />
<line x1="-0.276384" y1="0.08975" x2="-0.248107" y2="0.0977623" style="stroke:rgb(246,147,147);stroke-width:0.01" />
<line x1="-0.276384" y1="0.0175226" x2="-0.276384" y2="0.12787" style="stroke:rgb(246,147,147);stroke-width:0.01" />
<line x1="0.0796038" y1="-0.348778" x2="-0.09537" y2="0.320605" style="stroke:rgb(246,147,147);stroke-width:0.01" />
<line x1="-0.116304" y1="-0.436726" x2="-0.276384" y2="0.0175226" style="stroke:rgb(246,147,147);stroke-width:0.01" />
<line x1="0.115556" y1="-0.0213075" x2="-0.276384" y2="0.08975" style="stroke:rgb(246,147,147);stroke-width:0.01" />
<line x1="-0.116304" y1="-0.436726" x2="-0.136397" y2="-0.400388" style="stroke:rgb(246,147,147);stroke-width:0.01" />
<line x1="0.111768" y1="-0.334339" x2="-0.11258" y2="0.30228" style="stroke:rgb(246,147,147);stroke-width:0.01" />
<line x1="0.14978" y1="-0.317274" x2="-0.123251" y2="0.290918" style="stroke:rgb(246,147,147);stroke-width:0.01" />
<line x1="0.111768" y1="-0.334339" x2="0.0916752" y2="-0.298001" style="stroke:rgb(246,147,147);stroke-width:0.01" />
<line x1="0.0796038" y1="-0.348778" x2="0.0369194" y2="-0.284784" style="stroke:rgb(246,147,147);stroke-width:0.01" />
<line x1="0.131541" y1="0.276265" x2="-0.09537" y2="0.320605" style="stroke:rgb(246,147,147);stroke-width:0.01" />
<line x1="-0.248107" y1="0.0977623" x2="-0.276384" y2="0.12787" style="stroke:rgb(246,147,147);stroke-width:0.01" />
<line x1="0.163501" y1="0.224052" x2="-0.11258" y2="0.30228" style="stroke:rgb(246,147,147);stroke-width:0.01" />
<line x1="0.188801" y1="0.173725" x2="-0.123251" y2="0.290918" style="stroke:rgb(246,147,147);stroke-width:0.01" />
</g>
</svg>
