<svg xmlns="http://www.w3.org/2000/svg" viewBox="-1.5 -1.5 3 3">
<g transform="scale(1, -1)">
<path d="M0.988235 -0.152941 L1.026471 0.094118 L1.273529 0.055882 L1.558824 0.264706 L1.311765 0.302941 L1.350000 0.550000 L1.141176 0.835294 L1.102941 0.588235 L0.855882 0.626471 L0.570588 0.417647 L0.817647 0.379412 L0.779412 0.132353 z " fill="rgb(245,195,195)" />
<path d="M0.000000 0.000000 L1.000000 0.000000 L1.000000 1.000000 L0.000000 1.000000  z" fill="none" stroke="rgb(128,128,128)" stroke-width="0.01" />
<line x1="1.27353" y1="0.0558824" x2="1.55882" y2="0.264706" style="stroke:rgb(246,147,147);stroke-width:0.01" />
<line x1="0.779412" y1="0.132353" x2="1.35" y2="0.55" style="stroke:rgb(246,147,147);stroke-width:0.01" />
<line x1="1.27353" y1="0.0558824" x2="1.35" y2="0.55" style="stroke:rgb(246,147,147);stroke-width:0.01" />
<line x1="0.988235" y1="-0.152941" x2="1.14118" y2="0.835294" style="stroke:rgb(246,147,147);stroke-width:0.01" />
<line x1="0.779412" y1="0.132353" x2="0.855882" y2="0.626471" style="stroke:rgb(246,147,147);stroke-width:0.01" />
<line x1="0.570588" y1="0.417647" x2="0.855882" y2="0.626471" style="stroke:rgb(246,147,147);stroke-width:0.01" />
<line x1="1.27353" y1="0.0558824" x2="0.779412" y2="0.132353" style="stroke:rgb(246,147,147);stroke-width:0.01" />
<line x1="0.988235" y1="-0.152941" x2="0.779412" y2="0.132353" style="stroke:rgb(246,147,147);stroke-width:0.01" />
<line x1="1.55882" y1="0.264706" x2="0.570588" y2="0.417647" style="stroke:rgb(246,147,147);stroke-width:0.01" />
<line x1="1.27353" y1="0.0558824" x2="0.855882" y2="0.626471" style="stroke:rgb(246,147,147);stroke-width:0.01" />
<line x1="1.35" y1="0.55" x2="0.855882" y2="0.626471" style="stroke:rgb(246,147,147);stroke-width:0.01" />
<line x1="1.35" y1="0.55" x2="1.14118" y2="0.835294" style="stroke:rgb(246,147,147);stroke-width:0.01" />
</g>
</svg>
