<svg xmlns="http://www.w3.org/2000/svg" viewBox="-1.5 -1.5 3 3">
<g transform="scale(1, -1)">
<path d="M0.170175 -0.190346 L0.245432 -0.091270 L0.251624 -0.094520 L0.270988 -0.057627 L0.093212 0.055441 L0.123343 0.084378 L0.048124 0.242421 L-0.160207 0.216617 L-0.199000 0.044452 L-0.174342 0.028770 L-0.205562 -0.001213 L-0.179296 -0.033558 L-0.173867 -0.029150 L-0.080533 -0.111419 L-0.030090 -0.062976 z " fill="rgb(245,195,195)" />
<path d="M-0.579093 -1.276858 L0.420907 -1.276858 L0.420907 -0.276858 L-0.579093 -0.276858  z" fill="none" stroke="rgb(128,128,128)" stroke-width="0.01" />
<line x1="0.251624" y1="-0.0945203" x2="0.270988" y2="-0.0576265" style="stroke:rgb(246,147,147);stroke-width:0.01" />
<line x1="0.170175" y1="-0.190346" x2="0.24763" y2="-0.0427708" style="stroke:rgb(246,147,147);stroke-width:0.01" />
<line x1="0.197223" y1="-0.10913" x2="0.235951" y2="-0.0353429" style="stroke:rgb(246,147,147);stroke-width:0.01" />
<line x1="0.135138" y1="-0.168062" x2="0.212593" y2="-0.0204871" style="stroke:rgb(246,147,147);stroke-width:0.01" />
<line x1="-0.199" y1="0.0444519" x2="-0.160207" y2="0.216617" style="stroke:rgb(246,147,147);stroke-width:0.01" />
<line x1="0.170175" y1="-0.190346" x2="0.270988" y2="-0.0576265" style="stroke:rgb(246,147,147);stroke-width:0.01" />
<line x1="0.197223" y1="-0.10913" x2="0.24763" y2="-0.0427708" style="stroke:rgb(246,147,147);stroke-width:0.01" />
<line x1="0.135138" y1="-0.168062" x2="0.235951" y2="-0.0353429" style="stroke:rgb(246,147,147);stroke-width:0.01" />
<line x1="0.136983" y1="-0.120027" x2="0.212593" y2="-0.0204871" style="stroke:rgb(246,147,147);stroke-width:0.01" />
<line x1="-0.061876" y1="-0.0359314" x2="0.0955822" y2="0.142706" style="stroke:rgb(246,147,147);stroke-width:0.01" />
<line x1="-0.0805325" y1="-0.111419" x2="0.123343" y2="0.0843779" style="stroke:rgb(246,147,147);stroke-width:0.01" />
<line x1="-0.123082" y1="-0.0371415" x2="0.0857334" y2="0.1634" style="stroke:rgb(246,147,147);stroke-width:0.01" />
<line x1="-0.205562" y1="-0.00121292" x2="0.0481241" y2="0.242421" style="stroke:rgb(246,147,147);stroke-width:0.01" />
<line x1="0.123343" y1="0.0843779" x2="0.0481241" y2="0.242421" style="stroke:rgb(246,147,147);stroke-width:0.01" />
<line x1="-0.179296" y1="-0.0335581" x2="0.0794651" y2="0.17657" style="stroke:rgb(246,147,147);stroke-width:0.01" />
<line x1="-0.179296" y1="-0.0335581" x2="-0.205562" y2="-0.00121292" style="stroke:rgb(246,147,147);stroke-width:0.01" />
<line x1="-0.0805325" y1="-0.111419" x2="-0.185596" y2="0.0179615" style="stroke:rgb(246,147,147);stroke-width:0.01" />
<line x1="-0.123082" y1="-0.0371415" x2="-0.175614" y2="0.0275488" style="stroke:rgb(246,147,147);stroke-width:0.01" />
<line x1="-0.0505842" y1="-0.0826574" x2="-0.155648" y2="0.0467232" style="stroke:rgb(246,147,147);stroke-width:0.01" />
<line x1="-0.0805325" y1="-0.111419" x2="-0.205562" y2="-0.00121292" style="stroke:rgb(246,147,147);stroke-width:0.01" />
<line x1="-0.123082" y1="-0.0371415" x2="-0.185596" y2="0.0179615" style="stroke:rgb(246,147,147);stroke-width:0.01" />
<line x1="-0.0505842" y1="-0.0826574" x2="-0.175614" y2="0.0275488" style="stroke:rgb(246,147,147);stroke-width:0.01" />
<line x1="-0.061876" y1="-0.0359314" x2="-0.155648" y2="0.0467232" style="stroke:rgb(246,147,147);stroke-width:0.01" />
<line x1="0.136983" y1="-0.120027" x2="-0.181543" y2="0.121926" style="stroke:rgb(246,147,147);stroke-width:0.01" />
<line x1="0.170175" y1="-0.190346" x2="-0.199" y2="0.0444519" style="stroke:rgb(246,147,147);stroke-width:0.01" />
<line x1="0.197223" y1="-0.10913" x2="-0.179603" y2="0.130534" style="stroke:rgb(246,147,147);stroke-width:0.01" />
<line x1="0.270988" y1="-0.0576265" x2="-0.160207" y2="0.216617" style="stroke:rgb(246,147,147);stroke-width:0.01" />
<line x1="-0.199" y1="0.0444519" x2="0.123343" y2="0.0843779" style="stroke:rgb(246,147,147);stroke-width:0.01" />
<line x1="-0.181543" y1="0.121926" x2="0.0794651" y2="0.17657" style="stroke:rgb(246,147,147);stroke-width:0.01" />
<line x1="0.251624" y1="-0.0945203" x2="-0.179346" y2="0.131677" style="stroke:rgb(246,147,147);stroke-width:0.01" />
<line x1="-0.179603" y1="0.130534" x2="0.0857334" y2="0.1634" style="stroke:rgb(246,147,147);stroke-width:0.01" />
<line x1="-0.179346" y1="0.131677" x2="0.0955822" y2="0.142706" style="stroke:rgb(246,147,147);stroke-width:0.01" />
<line x1="-0.160207" y1="0.216617" x2="0.0481241" y2="0.242421" style="stroke:rgb(246,147,147);stroke-width:0.01" />
</g>
</svg>
