<svg xmlns="http://www.w3.org/2000/svg" viewBox="-1.5 -1.5 3 3">
<g transform="scale(1, -1)">
<path d="M0.148528 -0.280048 L0.250149 -0.009058 L-0.034665 0.284598 L-0.066881 0.258173 L-0.062446 0.252766 L-0.144254 0.159027 L0.036073 -0.026898 L0.034313 -0.027045 L0.022332 -0.082955 L-0.036033 -0.070380 L-0.048161 -0.110243 L-0.041471 -0.112278 L-0.057485 -0.235661 z " fill="rgb(245,195,195)" />
<path d="M-0.411141 -0.105832 L0.588859 -0.105832 L0.588859 0.894168 L-0.411141 0.894168  z" fill="none" stroke="rgb(128,128,128)" stroke-width="0.01" />
<line x1="0.148528" y1="-0.280048" x2="0.250149" y2="-0.00905822" style="stroke:rgb(246,147,147);stroke-width:0.01" />
<line x1="-0.00205041" y1="-0.196742" x2="0.185633" y2="-0.181101" style="stroke:rgb(246,147,147);stroke-width:0.01" />
<line x1="-0.0168938" y1="-0.244406" x2="0.0316194" y2="-0.0849564" style="stroke:rgb(246,147,147);stroke-width:0.01" />
<line x1="-0.0196981" y1="-0.158851" x2="0.00455853" y2="-0.0791259" style="stroke:rgb(246,147,147);stroke-width:0.01" />
<line x1="-0.0574851" y1="-0.235661" x2="-0.00897189" y2="-0.0762107" style="stroke:rgb(246,147,147);stroke-width:0.01" />
<line x1="-0.048161" y1="-0.110243" x2="-0.0360327" y2="-0.0703802" style="stroke:rgb(246,147,147);stroke-width:0.01" />
<line x1="0.013211" y1="-0.125522" x2="0.219456" y2="-0.090907" style="stroke:rgb(246,147,147);stroke-width:0.01" />
<line x1="-0.00205041" y1="-0.196742" x2="0.0343132" y2="-0.0270445" style="stroke:rgb(246,147,147);stroke-width:0.01" />
<line x1="-0.0686756" y1="0.140743" x2="0.0135162" y2="0.234921" style="stroke:rgb(246,147,147);stroke-width:0.01" />
<line x1="0.0155301" y1="-0.208917" x2="0.0316194" y2="-0.0849564" style="stroke:rgb(246,147,147);stroke-width:0.01" />
<line x1="-0.0168938" y1="-0.244406" x2="0.00455853" y2="-0.0791259" style="stroke:rgb(246,147,147);stroke-width:0.01" />
<line x1="0.148528" y1="-0.280048" x2="-0.0574851" y2="-0.235661" style="stroke:rgb(246,147,147);stroke-width:0.01" />
<line x1="-0.0196981" y1="-0.158851" x2="-0.00897189" y2="-0.0762107" style="stroke:rgb(246,147,147);stroke-width:0.01" />
<line x1="-0.0574851" y1="-0.235661" x2="-0.0360327" y2="-0.0703802" style="stroke:rgb(246,147,147);stroke-width:0.01" />
<line x1="0.167791" y1="-0.228679" x2="0.0155301" y2="-0.208917" style="stroke:rgb(246,147,147);stroke-width:0.01" />
<line x1="-0.115345" y1="0.129221" x2="-0.00575634" y2="0.254792" style="stroke:rgb(246,147,147);stroke-width:0.01" />
<line x1="0.0161314" y1="-0.111893" x2="0.217891" y2="-0.0950797" style="stroke:rgb(246,147,147);stroke-width:0.01" />
<line x1="-0.0701871" y1="0.201942" x2="-0.0153926" y2="0.264727" style="stroke:rgb(246,147,147);stroke-width:0.01" />
<line x1="-0.144254" y1="0.159027" x2="-0.0346652" y2="0.284598" style="stroke:rgb(246,147,147);stroke-width:0.01" />
<line x1="-0.115345" y1="0.129221" x2="0.0135162" y2="0.234921" style="stroke:rgb(246,147,147);stroke-width:0.01" />
<line x1="0.0174301" y1="-0.105832" x2="0.213859" y2="-0.105832" style="stroke:rgb(246,147,147);stroke-width:0.01" />
<line x1="-0.0701871" y1="0.201942" x2="-0.00575634" y2="0.254792" style="stroke:rgb(246,147,147);stroke-width:0.01" />
<line x1="-0.144254" y1="0.159027" x2="-0.0153926" y2="0.264727" style="stroke:rgb(246,147,147);stroke-width:0.01" />
<line x1="0.178003" y1="-0.201447" x2="-0.0196981" y2="-0.158851" style="stroke:rgb(246,147,147);stroke-width:0.01" />
<line x1="0.0343132" y1="-0.0270445" x2="0.250149" y2="-0.00905822" style="stroke:rgb(246,147,147);stroke-width:0.01" />
<line x1="-0.0668806" y1="0.258173" x2="-0.0346652" y2="0.284598" style="stroke:rgb(246,147,147);stroke-width:0.01" />
<line x1="0.185541" y1="-0.181347" x2="-0.048161" y2="-0.110243" style="stroke:rgb(246,147,147);stroke-width:0.01" />
<line x1="0.148528" y1="-0.280048" x2="-0.00205041" y2="-0.196742" style="stroke:rgb(246,147,147);stroke-width:0.01" />
<line x1="0.207478" y1="-0.122847" x2="-0.0360327" y2="-0.0703802" style="stroke:rgb(246,147,147);stroke-width:0.01" />
<line x1="0.185541" y1="-0.181347" x2="0.0174301" y2="-0.105832" style="stroke:rgb(246,147,147);stroke-width:0.01" />
<line x1="0.178003" y1="-0.201447" x2="0.0161314" y2="-0.111893" style="stroke:rgb(246,147,147);stroke-width:0.01" />
<line x1="0.167791" y1="-0.228679" x2="0.013211" y2="-0.125522" style="stroke:rgb(246,147,147);stroke-width:0.01" />
<line x1="0.207478" y1="-0.122847" x2="0.0343132" y2="-0.0270445" style="stroke:rgb(246,147,147);stroke-width:0.01" />
<line x1="0.185633" y1="-0.181101" x2="-0.144254" y2="0.159027" style="stroke:rgb(246,147,147);stroke-width:0.01" />
<line x1="0.213859" y1="-0.105832" x2="-0.0686756" y2="0.140743" style="stroke:rgb(246,147,147);stroke-width:0.01" />
<line x1="0.219456" y1="-0.090907" x2="-0.0668806" y2="0.258173" style="stroke:rgb(246,147,147);stroke-width:0.01" />
<line x1="0.217891" y1="-0.0950797" x2="-0.0701871" y2="0.201942" style="stroke:rgb(246,147,147);stroke-width:0.01" />
<line x1="0.250149" y1="-0.00905822" x2="-0.0346652" y2="0.284598" style="stroke:rgb(246,147,147);stroke-width:0.01" />
</g>
</svg>
