<svg xmlns="http://www.w3.org/2000/svg" viewBox="-1.5 -1.5 3 3">
<g transform="scale(1, -1)">
<path d="M-0.239462 -0.505950 L0.005168 -0.491837 L0.316345 0.018148 L0.314556 0.020094 L0.215579 0.212521 L0.248062 0.252028 L0.219221 0.374441 L0.141690 0.356174 L0.022967 0.098781 L-0.066497 0.123370 L-0.095609 0.017447 L-0.223521 0.017447 L-0.223521 -0.166902 L-0.265557 -0.141930 L-0.369420 -0.183834 z " fill="rgb(245,195,195)" />
<path d="M-0.223521 -0.982553 L0.776479 -0.982553 L0.776479 0.017447 L-0.223521 0.017447  z" fill="none" stroke="rgb(128,128,128)" stroke-width="0.01" />
<line x1="-0.223521" y1="-0.50503" x2="-0.223521" y2="0.0174474" style="stroke:rgb(246,147,147);stroke-width:0.01" />
<line x1="-0.11265" y1="-0.226187" x2="-0.103673" y2="-0.175776" style="stroke:rgb(246,147,147);stroke-width:0.01" />
<line x1="-0.223521" y1="-0.50503" x2="-0.265557" y2="-0.14193" style="stroke:rgb(246,147,147);stroke-width:0.01" />
<line x1="0.00516757" y1="-0.491837" x2="0.316345" y2="0.018148" style="stroke:rgb(246,147,147);stroke-width:0.01" />
<line x1="-0.239462" y1="-0.50595" x2="-0.0664966" y2="0.12337" style="stroke:rgb(246,147,147);stroke-width:0.01" />
<line x1="-0.239462" y1="-0.50595" x2="-0.36942" y2="-0.183834" style="stroke:rgb(246,147,147);stroke-width:0.01" />
<line x1="-0.103673" y1="-0.175776" x2="0.14169" y2="0.356174" style="stroke:rgb(246,147,147);stroke-width:0.01" />
<line x1="0.00516757" y1="-0.491837" x2="-0.11265" y2="-0.226187" style="stroke:rgb(246,147,147);stroke-width:0.01" />
<line x1="0.248062" y1="0.252028" x2="0.219221" y2="0.374441" style="stroke:rgb(246,147,147);stroke-width:0.01" />
<line x1="-0.103673" y1="-0.175776" x2="0.248062" y2="0.252028" style="stroke:rgb(246,147,147);stroke-width:0.01" />
<line x1="0.315917" y1="0.0174474" x2="0.14169" y2="0.356174" style="stroke:rgb(246,147,147);stroke-width:0.01" />
<line x1="-0.239462" y1="-0.50595" x2="0.00516757" y2="-0.491837" style="stroke:rgb(246,147,147);stroke-width:0.01" />
<line x1="0.0898469" y1="-0.353057" x2="-0.11265" y2="-0.226187" style="stroke:rgb(246,147,147);stroke-width:0.01" />
<line x1="0.0898469" y1="-0.353057" x2="-0.265557" y2="-0.14193" style="stroke:rgb(246,147,147);stroke-width:0.01" />
<line x1="0.316345" y1="0.018148" x2="0.0962327" y2="0.257623" style="stroke:rgb(246,147,147);stroke-width:0.01" />
<line x1="-0.36942" y1="-0.183834" x2="-0.265557" y2="-0.14193" style="stroke:rgb(246,147,147);stroke-width:0.01" />
<line x1="-0.223521" y1="0.0174474" x2="0.315917" y2="0.0174474" style="stroke:rgb(246,147,147);stroke-width:0.01" />
<line x1="0.316345" y1="0.018148" x2="-0.0664966" y2="0.12337" style="stroke:rgb(246,147,147);stroke-width:0.01" />
<line x1="0.14169" y1="0.356174" x2="0.219221" y2="0.374441" style="stroke:rgb(246,147,147);stroke-width:0.01" />
<line x1="0.248062" y1="0.252028" x2="0.0962327" y2="0.257623" style="stroke:rgb(246,147,147);stroke-width:0.01" />
</g>
</svg>
