<svg xmlns="http://www.w3.org/2000/svg" viewBox="-1.5 -1.5 3 3">
<g transform="scale(1, -1)">
<path d="M-0.015941 0.476603 L0.228688 0.490716 L0.539865 1.000701 L0.538077 1.002647 L0.439100 1.195073 L0.471582 1.234580 L0.442741 1.356994 L0.365210 1.338727 L0.246487 1.081334 L0.157024 1.105922 L0.127912 1.000000 L0.000000 1.000000 L0.000000 0.815651 L-0.042036 0.840622 L-0.145899 0.798719 z " fill="rgb(245,195,195)" />
<path d="M0.000000 0.000000 L1.000000 0.000000 L1.000000 1.000000 L0.000000 1.000000  z" fill="none" stroke="rgb(128,128,128)" stroke-width="0.01" />
<line x1="0" y1="0.477522" x2="0" y2="1" style="stroke:rgb(246,147,147);stroke-width:0.01" />
<line x1="0.110871" y1="0.756366" x2="0.119848" y2="0.806777" style="stroke:rgb(246,147,147);stroke-width:0.01" />
<line x1="0" y1="0.477522" x2="-0.0420361" y2="0.840622" style="stroke:rgb(246,147,147);stroke-width:0.01" />
<line x1="0.228688" y1="0.490716" x2="0.539865" y2="1.0007" style="stroke:rgb(246,147,147);stroke-width:0.01" />
<line x1="-0.0159407" y1="0.476603" x2="0.157024" y2="1.10592" style="stroke:rgb(246,147,147);stroke-width:0.01" />
<line x1="-0.0159407" y1="0.476603" x2="-0.145899" y2="0.798719" style="stroke:rgb(246,147,147);stroke-width:0.01" />
<line x1="0.119848" y1="0.806777" x2="0.36521" y2="1.33873" style="stroke:rgb(246,147,147);stroke-width:0.01" />
<line x1="0.228688" y1="0.490716" x2="0.110871" y2="0.756366" style="stroke:rgb(246,147,147);stroke-width:0.01" />
<line x1="0.471582" y1="1.23458" x2="0.442741" y2="1.35699" style="stroke:rgb(246,147,147);stroke-width:0.01" />
<line x1="0.119848" y1="0.806777" x2="0.471582" y2="1.23458" style="stroke:rgb(246,147,147);stroke-width:0.01" />
<line x1="0.539438" y1="1" x2="0.36521" y2="1.33873" style="stroke:rgb(246,147,147);stroke-width:0.01" />
<line x1="-0.0159407" y1="0.476603" x2="0.228688" y2="0.490716" style="stroke:rgb(246,147,147);stroke-width:0.01" />
<line x1="0.313368" y1="0.629496" x2="0.110871" y2="0.756366" style="stroke:rgb(246,147,147);stroke-width:0.01" />
<line x1="0.313368" y1="0.629496" x2="-0.0420361" y2="0.840622" style="stroke:rgb(246,147,147);stroke-width:0.01" />
<line x1="0.539865" y1="1.0007" x2="0.319754" y2="1.24018" style="stroke:rgb(246,147,147);stroke-width:0.01" />
<line x1="-0.145899" y1="0.798719" x2="-0.0420361" y2="0.840622" style="stroke:rgb(246,147,147);stroke-width:0.01" />
<line x1="0" y1="1" x2="0.539438" y2="1" style="stroke:rgb(246,147,147);stroke-width:0.01" />
<line x1="0.539865" y1="1.0007" x2="0.157024" y2="1.10592" style="stroke:rgb(246,147,147);stroke-width:0.01" />
<line x1="0.36521" y1="1.33873" x2="0.442741" y2="1.35699" style="stroke:rgb(246,147,147);stroke-width:0.01" />
<line x1="0.471582" y1="1.23458" x2="0.319754" y2="1.24018" style="stroke:rgb(246,147,147);stroke-width:0.01" />
</g>
</svg>
