<svg xmlns="http://www.w3.org/2000/svg" viewBox="-1.5 -1.5 3 3">
<g transform="scale(1, -1)">
<path d="M0.094946 -0.578863 L0.349004 -0.193542 L0.289371 -0.154224 L0.319107 -0.089279 L0.014142 0.050352 L0.014142 0.356917 L-0.212105 0.356917 L-0.203387 0.387182 L-0.343001 0.356917 L-0.307514 0.025707 L-0.014704 -0.518083 z " fill="rgb(245,195,195)" />
<path d="M-0.485858 0.356917 L0.514142 0.356917 L0.514142 1.356917 L-0.485858 1.356917  z" fill="none" stroke="rgb(128,128,128)" stroke-width="0.01" />
<line x1="0.0949462" y1="-0.578863" x2="0.349004" y2="-0.193542" style="stroke:rgb(246,147,147);stroke-width:0.01" />
<line x1="-0.216628" y1="-0.143083" x2="0.0141417" y2="-0.143083" style="stroke:rgb(246,147,147);stroke-width:0.01" />
<line x1="0.0949462" y1="-0.578863" x2="-0.0147044" y2="-0.518083" style="stroke:rgb(246,147,147);stroke-width:0.01" />
<line x1="0.0141417" y1="-0.143083" x2="-0.226599" y2="-0.124565" style="stroke:rgb(246,147,147);stroke-width:0.01" />
<line x1="0.0949462" y1="-0.578863" x2="0.319107" y2="-0.0892786" style="stroke:rgb(246,147,147);stroke-width:0.01" />
<line x1="-0.216628" y1="-0.143083" x2="-0.0684271" y2="0.0816874" style="stroke:rgb(246,147,147);stroke-width:0.01" />
<line x1="-0.226599" y1="-0.124565" x2="-0.100537" y2="0.102859" style="stroke:rgb(246,147,147);stroke-width:0.01" />
<line x1="-0.332142" y1="0.255565" x2="-0.203387" y2="0.387182" style="stroke:rgb(246,147,147);stroke-width:0.01" />
<line x1="-0.307514" y1="0.0257065" x2="-0.203387" y2="0.387182" style="stroke:rgb(246,147,147);stroke-width:0.01" />
<line x1="0.319107" y1="-0.0892786" x2="-0.100537" y2="0.102859" style="stroke:rgb(246,147,147);stroke-width:0.01" />
<line x1="-0.0147044" y1="-0.518083" x2="0.0141417" y2="-0.143083" style="stroke:rgb(246,147,147);stroke-width:0.01" />
<line x1="-0.343001" y1="0.356917" x2="-0.203387" y2="0.387182" style="stroke:rgb(246,147,147);stroke-width:0.01" />
<line x1="-0.343001" y1="0.356917" x2="0.0141417" y2="0.356917" style="stroke:rgb(246,147,147);stroke-width:0.01" />
<line x1="-0.0147044" y1="-0.518083" x2="-0.307514" y2="0.0257065" style="stroke:rgb(246,147,147);stroke-width:0.01" />
<line x1="0.349004" y1="-0.193542" x2="-0.332142" y2="0.255565" style="stroke:rgb(246,147,147);stroke-width:0.01" />
<line x1="0.0141417" y1="-0.143083" x2="0.0141417" y2="0.356917" style="stroke:rgb(246,147,147);stroke-width:0.01" />
<line x1="-0.307514" y1="0.0257065" x2="-0.343001" y2="0.356917" style="stroke:rgb(246,147,147);stroke-width:0.01" />
</g>
</svg>
