<svg xmlns="http://www.w3.org/2000/svg" viewBox="-1.5 -1.5 3 3">
<g transform="scale(1, -1)">
<path d="M0.580805 -0.935780 L0.834862 -0.550459 L0.775229 -0.511140 L0.804965 -0.446195 L0.500000 -0.306565 L0.500000 0.000000 L0.273753 0.000000 L0.282472 0.030265 L0.142857 0.000000 L0.178344 -0.331210 L0.471154 -0.875000 z " fill="rgb(245,195,195)" />
<path d="M0.000000 0.000000 L1.000000 0.000000 L1.000000 1.000000 L0.000000 1.000000  z" fill="none" stroke="rgb(128,128,128)" stroke-width="0.01" />
<line x1="0.580805" y1="-0.93578" x2="0.834862" y2="-0.550459" style="stroke:rgb(246,147,147);stroke-width:0.01" />
<line x1="0.269231" y1="-0.5" x2="0.5" y2="-0.5" style="stroke:rgb(246,147,147);stroke-width:0.01" />
<line x1="0.580805" y1="-0.93578" x2="0.471154" y2="-0.875" style="stroke:rgb(246,147,147);stroke-width:0.01" />
<line x1="0.5" y1="-0.5" x2="0.259259" y2="-0.481481" style="stroke:rgb(246,147,147);stroke-width:0.01" />
<line x1="0.580805" y1="-0.93578" x2="0.804965" y2="-0.446195" style="stroke:rgb(246,147,147);stroke-width:0.01" />
<line x1="0.269231" y1="-0.5" x2="0.417431" y2="-0.275229" style="stroke:rgb(246,147,147);stroke-width:0.01" />
<line x1="0.259259" y1="-0.481481" x2="0.385321" y2="-0.254058" style="stroke:rgb(246,147,147);stroke-width:0.01" />
<line x1="0.153716" y1="-0.101351" x2="0.282472" y2="0.0302648" style="stroke:rgb(246,147,147);stroke-width:0.01" />
<line x1="0.178344" y1="-0.33121" x2="0.282472" y2="0.0302648" style="stroke:rgb(246,147,147);stroke-width:0.01" />
<line x1="0.804965" y1="-0.446195" x2="0.385321" y2="-0.254058" style="stroke:rgb(246,147,147);stroke-width:0.01" />
<line x1="0.471154" y1="-0.875" x2="0.5" y2="-0.5" style="stroke:rgb(246,147,147);stroke-width:0.01" />
<line x1="0.142857" y1="0" x2="0.282472" y2="0.0302648" style="stroke:rgb(246,147,147);stroke-width:0.01" />
<line x1="0.142857" y1="0" x2="0.5" y2="0" style="stroke:rgb(246,147,147);stroke-width:0.01" />
<line x1="0.471154" y1="-0.875" x2="0.178344" y2="-0.33121" style="stroke:rgb(246,147,147);stroke-width:0.01" />
<line x1="0.834862" y1="-0.550459" x2="0.153716" y2="-0.101351" style="stroke:rgb(246,147,147);stroke-width:0.01" />
<line x1="0.5" y1="-0.5" x2="0.5" y2="0" style="stroke:rgb(246,147,147);stroke-width:0.01" />
<line x1="0.178344" y1="-0.33121" x2="0.142857" y2="0" style="stroke:rgb(246,147,147);stroke-width:0.01" />
</g>
</svg>
