<svg xmlns="http://www.w3.org/2000/svg" viewBox="-1.5 -1.5 3 3">
<g transform="scale(1, -1)">
<path d="M-0.067233 -0.515472 L0.286891 0.028831 L0.262284 0.084351 L0.290398 0.188997 L0.120525 0.532394 L0.073922 0.509340 L-0.099903 0.028831 L-0.135525 0.028831 L-0.135525 -0.069639 L-0.164793 -0.150546 L-0.219712 -0.151817 L-0.211327 -0.514100 z " fill="rgb(245,195,195)" />
<path d="M-0.135525 -0.971169 L0.864475 -0.971169 L0.864475 0.028831 L-0.135525 0.028831  z" fill="none" stroke="rgb(128,128,128)" stroke-width="0.01" />
<line x1="0.219567" y1="-0.0746499" x2="0.290398" y2="0.188997" style="stroke:rgb(246,147,147);stroke-width:0.01" />
<line x1="-0.211327" y1="-0.5141" x2="-0.219712" y2="-0.151817" style="stroke:rgb(246,147,147);stroke-width:0.01" />
<line x1="-0.135525" y1="-0.514822" x2="-0.135525" y2="0.0288307" style="stroke:rgb(246,147,147);stroke-width:0.01" />
<line x1="-0.135525" y1="-0.514822" x2="-0.12857" y2="-0.149708" style="stroke:rgb(246,147,147);stroke-width:0.01" />
<line x1="-0.211327" y1="-0.5141" x2="-0.20734" y2="-0.419632" style="stroke:rgb(246,147,147);stroke-width:0.01" />
<line x1="-0.120944" y1="-0.189474" x2="-0.147136" y2="-0.101735" style="stroke:rgb(246,147,147);stroke-width:0.01" />
<line x1="-0.0672333" y1="-0.515472" x2="-0.195082" y2="-0.234275" style="stroke:rgb(246,147,147);stroke-width:0.01" />
<line x1="-0.0672333" y1="-0.515472" x2="0.286891" y2="0.0288307" style="stroke:rgb(246,147,147);stroke-width:0.01" />
<line x1="-0.195082" y1="-0.234275" x2="0.0739215" y2="0.50934" style="stroke:rgb(246,147,147);stroke-width:0.01" />
<line x1="-0.025141" y1="-0.450775" x2="-0.185888" y2="-0.208861" style="stroke:rgb(246,147,147);stroke-width:0.01" />
<line x1="0.286891" y1="0.0288307" x2="0.0739215" y2="0.50934" style="stroke:rgb(246,147,147);stroke-width:0.01" />
<line x1="-0.20734" y1="-0.419632" x2="0.219567" y2="-0.0746499" style="stroke:rgb(246,147,147);stroke-width:0.01" />
<line x1="0.290398" y1="0.188997" x2="0.120525" y2="0.532394" style="stroke:rgb(246,147,147);stroke-width:0.01" />
<line x1="0.0530527" y1="-0.330588" x2="-0.12857" y2="-0.149708" style="stroke:rgb(246,147,147);stroke-width:0.01" />
<line x1="-0.0672333" y1="-0.515472" x2="-0.211327" y2="-0.5141" style="stroke:rgb(246,147,147);stroke-width:0.01" />
<line x1="-0.025141" y1="-0.450775" x2="-0.20734" y2="-0.419632" style="stroke:rgb(246,147,147);stroke-width:0.01" />
<line x1="-0.147136" y1="-0.101735" x2="0.290398" y2="0.188997" style="stroke:rgb(246,147,147);stroke-width:0.01" />
<line x1="0.0530527" y1="-0.330588" x2="-0.195082" y2="-0.234275" style="stroke:rgb(246,147,147);stroke-width:0.01" />
<line x1="-0.185888" y1="-0.208861" x2="-0.120944" y2="-0.189474" style="stroke:rgb(246,147,147);stroke-width:0.01" />
<line x1="-0.219712" y1="-0.151817" x2="-0.12857" y2="-0.149708" style="stroke:rgb(246,147,147);stroke-width:0.01" />
<line x1="-0.135525" y1="0.0288307" x2="0.286891" y2="0.0288307" style="stroke:rgb(246,147,147);stroke-width:0.01" />
<line x1="0.0739215" y1="0.50934" x2="0.120525" y2="0.532394" style="stroke:rgb(246,147,147);stroke-width:0.01" />
</g>
</svg>
