<svg xmlns="http://www.w3.org/2000/svg" viewBox="-1.5 -1.5 3 3">
<g transform="scale(1, -1)">
<path d="M-0.297548 -0.206932 L0.137814 -0.193871 L0.194493 -0.090868 L0.368836 -0.080398 L0.350158 0.230631 L-0.174008 0.228102 L-0.208020 0.108332 L-0.371725 0.005004 z " fill="rgb(245,195,195)" />
<path d="M-0.624777 -1.293290 L0.375223 -1.293290 L0.375223 -0.293290 L-0.624777 -0.293290  z" fill="none" stroke="rgb(128,128,128)" stroke-width="0.01" />
<line x1="0.137814" y1="-0.193871" x2="0.230884" y2="-0.0247353" style="stroke:rgb(246,147,147);stroke-width:0.01" />
<line x1="0.346357" y1="0.155181" x2="0.350158" y2="0.230631" style="stroke:rgb(246,147,147);stroke-width:0.01" />
<line x1="-0.231589" y1="-0.204953" x2="-0.221105" y2="0.0216878" style="stroke:rgb(246,147,147);stroke-width:0.01" />
<line x1="-0.297548" y1="-0.206932" x2="-0.174008" y2="0.228102" style="stroke:rgb(246,147,147);stroke-width:0.01" />
<line x1="0.111262" y1="-0.194667" x2="0.230884" y2="-0.0247353" style="stroke:rgb(246,147,147);stroke-width:0.01" />
<line x1="-0.231589" y1="-0.204953" x2="-0.249438" y2="-0.0375195" style="stroke:rgb(246,147,147);stroke-width:0.01" />
<line x1="0.368836" y1="-0.0803983" x2="0.350158" y2="0.230631" style="stroke:rgb(246,147,147);stroke-width:0.01" />
<line x1="0.0127329" y1="-0.197623" x2="0.346357" y2="0.155181" style="stroke:rgb(246,147,147);stroke-width:0.01" />
<line x1="-0.297548" y1="-0.206932" x2="-0.371725" y2="0.00500407" style="stroke:rgb(246,147,147);stroke-width:0.01" />
<line x1="-0.249438" y1="-0.0375195" x2="-0.170721" y2="0.0639922" style="stroke:rgb(246,147,147);stroke-width:0.01" />
<line x1="-0.153654" y1="-0.202615" x2="0.0121138" y2="-0.0703784" style="stroke:rgb(246,147,147);stroke-width:0.01" />
<line x1="0.137814" y1="-0.193871" x2="-0.0971144" y2="0.178333" style="stroke:rgb(246,147,147);stroke-width:0.01" />
<line x1="0.111262" y1="-0.194667" x2="0.0121138" y2="-0.0703784" style="stroke:rgb(246,147,147);stroke-width:0.01" />
<line x1="-0.371725" y1="0.00500407" x2="-0.0971144" y2="0.178333" style="stroke:rgb(246,147,147);stroke-width:0.01" />
<line x1="0.0127329" y1="-0.197623" x2="-0.221105" y2="0.0216878" style="stroke:rgb(246,147,147);stroke-width:0.01" />
<line x1="-0.153654" y1="-0.202615" x2="-0.272553" y2="-0.118916" style="stroke:rgb(246,147,147);stroke-width:0.01" />
<line x1="-0.170721" y1="0.0639922" x2="-0.211608" y2="0.0956979" style="stroke:rgb(246,147,147);stroke-width:0.01" />
<line x1="-0.297548" y1="-0.206932" x2="0.137814" y2="-0.193871" style="stroke:rgb(246,147,147);stroke-width:0.01" />
<line x1="-0.272553" y1="-0.118916" x2="0.368836" y2="-0.0803983" style="stroke:rgb(246,147,147);stroke-width:0.01" />
<line x1="-0.371725" y1="0.00500407" x2="-0.221105" y2="0.0216878" style="stroke:rgb(246,147,147);stroke-width:0.01" />
<line x1="0.230884" y1="-0.0247353" x2="-0.174008" y2="0.228102" style="stroke:rgb(246,147,147);stroke-width:0.01" />
<line x1="-0.211608" y1="0.0956979" x2="0.346357" y2="0.155181" style="stroke:rgb(246,147,147);stroke-width:0.01" />
<line x1="-0.174008" y1="0.228102" x2="0.350158" y2="0.230631" style="stroke:rgb(246,147,147);stroke-width:0.01" />
</g>
</svg>
