<svg xmlns="http://www.w3.org/2000/svg" viewBox="-1.5 -1.5 3 3">
<g transform="scale(1, -1)">
<path d="M0.352663 -0.400909 L0.515034 -0.215987 L0.515034 0.018388 L0.043794 0.018388 L-0.105669 0.221288 L-0.293665 0.237432 L-0.294356 0.247944 L-0.363336 0.243415 L-0.369500 -0.369959 z " fill="rgb(245,195,195)" />
<path d="M-0.484966 -0.981612 L0.515034 -0.981612 L0.515034 0.018388 L-0.484966 0.018388  z" fill="none" stroke="rgb(128,128,128)" stroke-width="0.01" />
<line x1="0.352663" y1="-0.400909" x2="0.515034" y2="-0.215987" style="stroke:rgb(246,147,147);stroke-width:0.01" />
<line x1="-0.236249" y1="-0.37567" x2="-0.105669" y2="0.221288" style="stroke:rgb(246,147,147);stroke-width:0.01" />
<line x1="-0.253458" y1="-0.374933" x2="-0.196847" y2="-0.00343882" style="stroke:rgb(246,147,147);stroke-width:0.01" />
<line x1="-0.3695" y1="-0.369959" x2="-0.340079" y2="0.0183884" style="stroke:rgb(246,147,147);stroke-width:0.01" />
<line x1="-0.3695" y1="-0.369959" x2="-0.363336" y2="0.243415" style="stroke:rgb(246,147,147);stroke-width:0.01" />
<line x1="0.515034" y1="-0.215987" x2="0.515034" y2="0.0183884" style="stroke:rgb(246,147,147);stroke-width:0.01" />
<line x1="-0.253458" y1="-0.374933" x2="-0.294356" y2="0.247944" style="stroke:rgb(246,147,147);stroke-width:0.01" />
<line x1="-0.236249" y1="-0.37567" x2="-0.244161" y2="-0.315001" style="stroke:rgb(246,147,147);stroke-width:0.01" />
<line x1="0.352663" y1="-0.400909" x2="-0.105669" y2="0.221288" style="stroke:rgb(246,147,147);stroke-width:0.01" />
<line x1="0.352663" y1="-0.400909" x2="-0.3695" y2="-0.369959" style="stroke:rgb(246,147,147);stroke-width:0.01" />
<line x1="-0.244161" y1="-0.315001" x2="0.515034" y2="-0.215987" style="stroke:rgb(246,147,147);stroke-width:0.01" />
<line x1="-0.196847" y1="-0.00343882" x2="-0.340079" y2="0.0183884" style="stroke:rgb(246,147,147);stroke-width:0.01" />
<line x1="-0.340079" y1="0.0183884" x2="0.515034" y2="0.0183884" style="stroke:rgb(246,147,147);stroke-width:0.01" />
<line x1="-0.363336" y1="0.243415" x2="-0.294356" y2="0.247944" style="stroke:rgb(246,147,147);stroke-width:0.01" />
<line x1="-0.105669" y1="0.221288" x2="-0.363336" y2="0.243415" style="stroke:rgb(246,147,147);stroke-width:0.01" />
</g>
</svg>
