<svg xmlns="http://www.w3.org/2000/svg" viewBox="-1.5 -1.5 3 3">
<g transform="scale(1, -1)">
<path d="M0.837629 0.580702 L1.000000 0.765625 L1.000000 1.000000 L0.528760 1.000000 L0.379297 1.202900 L0.191300 1.219043 L0.190610 1.229555 L0.121630 1.225026 L0.115466 0.611652 z " fill="rgb(245,195,195)" />
<path d="M0.000000 0.000000 L1.000000 0.000000 L1.000000 1.000000 L0.000000 1.000000  z" fill="none" stroke="rgb(128,128,128)" stroke-width="0.01" />
<line x1="0.837629" y1="0.580702" x2="1" y2="0.765625" style="stroke:rgb(246,147,147);stroke-width:0.01" />
<line x1="0.248717" y1="0.605941" x2="0.379297" y2="1.2029" style="stroke:rgb(246,147,147);stroke-width:0.01" />
<line x1="0.231507" y1="0.606679" x2="0.288119" y2="0.978173" style="stroke:rgb(246,147,147);stroke-width:0.01" />
<line x1="0.115466" y1="0.611652" x2="0.144886" y2="1" style="stroke:rgb(246,147,147);stroke-width:0.01" />
<line x1="0.115466" y1="0.611652" x2="0.12163" y2="1.22503" style="stroke:rgb(246,147,147);stroke-width:0.01" />
<line x1="1" y1="0.765625" x2="1" y2="1" style="stroke:rgb(246,147,147);stroke-width:0.01" />
<line x1="0.231507" y1="0.606679" x2="0.19061" y2="1.22956" style="stroke:rgb(246,147,147);stroke-width:0.01" />
<line x1="0.248717" y1="0.605941" x2="0.240805" y2="0.666611" style="stroke:rgb(246,147,147);stroke-width:0.01" />
<line x1="0.837629" y1="0.580702" x2="0.379297" y2="1.2029" style="stroke:rgb(246,147,147);stroke-width:0.01" />
<line x1="0.837629" y1="0.580702" x2="0.115466" y2="0.611652" style="stroke:rgb(246,147,147);stroke-width:0.01" />
<line x1="0.240805" y1="0.666611" x2="1" y2="0.765625" style="stroke:rgb(246,147,147);stroke-width:0.01" />
<line x1="0.288119" y1="0.978173" x2="0.144886" y2="1" style="stroke:rgb(246,147,147);stroke-width:0.01" />
<line x1="0.144886" y1="1" x2="1" y2="1" style="stroke:rgb(246,147,147);stroke-width:0.01" />
<line x1="0.12163" y1="1.22503" x2="0.19061" y2="1.22956" style="stroke:rgb(246,147,147);stroke-width:0.01" />
<line x1="0.379297" y1="1.2029" x2="0.12163" y2="1.22503" style="stroke:rgb(246,147,147);stroke-width:0.01" />
</g>
</svg>
