<svg xmlns="http://www.w3.org/2000/svg" viewBox="-1.5 -1.5 3 3">
<g transform="scale(1, -1)">
<path d="M0.057673 -0.300145 L0.063512 -0.019058 L0.144018 -0.061994 L0.282426 0.197521 L0.061838 0.315168 L-0.271207 0.159459 L-0.304230 0.001555 L-0.066306 -0.297569 z M0.038202 -0.005559 L-0.005049 -0.004661 L-0.000878 0.015283 z " fill="rgb(245,195,195)" />
<path d="M0.282426 0.197521 L1.282426 0.197521 L1.282426 1.197521 L0.282426 1.197521  z" fill="none" stroke="rgb(128,128,128)" stroke-width="0.01" />
<line x1="0.0576732" y1="-0.300145" x2="-0.0663064" y2="-0.297569" style="stroke:rgb(246,147,147);stroke-width:0.01" />
<line x1="0.058895" y1="-0.241334" x2="-0.113891" y2="-0.237744" style="stroke:rgb(246,147,147);stroke-width:0.01" />
<line x1="-0.0663064" y1="-0.297569" x2="-0.30423" y2="0.00155452" style="stroke:rgb(246,147,147);stroke-width:0.01" />
<line x1="0.144018" y1="-0.0619945" x2="-0.271207" y2="0.159459" style="stroke:rgb(246,147,147);stroke-width:0.01" />
<line x1="0.0637819" y1="-0.00609047" x2="-0.30423" y2="0.00155452" style="stroke:rgb(246,147,147);stroke-width:0.01" />
<line x1="0.254745" y1="0.145618" x2="-0.00477079" y2="0.284026" style="stroke:rgb(246,147,147);stroke-width:0.01" />
<line x1="0.282426" y1="0.197521" x2="0.0618382" y2="0.315168" style="stroke:rgb(246,147,147);stroke-width:0.01" />
<line x1="0.282426" y1="0.197521" x2="0.0618382" y2="0.315168" style="stroke:rgb(246,147,147);stroke-width:0.01" />
<line x1="0.282426" y1="0.197521" x2="0.282426" y2="0.197521" style="stroke:rgb(246,147,147);stroke-width:0.01" />
<line x1="0.144018" y1="-0.0619945" x2="0.282426" y2="0.197521" style="stroke:rgb(246,147,147);stroke-width:0.01" />
<line x1="0.0576732" y1="-0.300145" x2="0.0637819" y2="-0.00609047" style="stroke:rgb(246,147,147);stroke-width:0.01" />
<line x1="-0.0663064" y1="-0.297569" x2="0.0618382" y2="0.315168" style="stroke:rgb(246,147,147);stroke-width:0.01" />
<line x1="-0.113891" y1="-0.237744" x2="-0.00477079" y2="0.284026" style="stroke:rgb(246,147,147);stroke-width:0.01" />
<line x1="-0.30423" y1="0.00155452" x2="-0.271207" y2="0.159459" style="stroke:rgb(246,147,147);stroke-width:0.01" />
<line x1="-0.271207" y1="0.159459" x2="0.0618382" y2="0.315168" style="stroke:rgb(246,147,147);stroke-width:0.01" />
</g>
</svg>
