<svg xmlns="http://www.w3.org/2000/svg" viewBox="-1.5 -1.5 3 3">
<g transform="scale(1, -1)">
<path d="M-0.224753 -0.497666 L-0.218914 -0.216579 L-0.138408 -0.259516 L-0.000000 -0.000000 L-0.220588 0.117647 L-0.553633 -0.038062 L-0.586656 -0.195967 L-0.348733 -0.495090 z M-0.244225 -0.203080 L-0.287475 -0.202182 L-0.283304 -0.182238 z " fill="rgb(245,195,195)" />
<path d="M0.000000 0.000000 L1.000000 0.000000 L1.000000 1.000000 L0.000000 1.000000  z" fill="none" stroke="rgb(128,128,128)" stroke-width="0.01" />
<line x1="-0.224753" y1="-0.497666" x2="-0.348733" y2="-0.49509" style="stroke:rgb(246,147,147);stroke-width:0.01" />
<line x1="-0.223531" y1="-0.438855" x2="-0.396318" y2="-0.435266" style="stroke:rgb(246,147,147);stroke-width:0.01" />
<line x1="-0.348733" y1="-0.49509" x2="-0.586656" y2="-0.195967" style="stroke:rgb(246,147,147);stroke-width:0.01" />
<line x1="-0.138408" y1="-0.259516" x2="-0.553633" y2="-0.0380623" style="stroke:rgb(246,147,147);stroke-width:0.01" />
<line x1="-0.218645" y1="-0.203612" x2="-0.586656" y2="-0.195967" style="stroke:rgb(246,147,147);stroke-width:0.01" />
<line x1="-0.0276817" y1="-0.0519031" x2="-0.287197" y2="0.0865052" style="stroke:rgb(246,147,147);stroke-width:0.01" />
<line x1="-4.00167e-22" y1="-7.50313e-22" x2="-0.220588" y2="0.117647" style="stroke:rgb(246,147,147);stroke-width:0.01" />
<line x1="-2.00083e-22" y1="-3.75156e-22" x2="-0.220588" y2="0.117647" style="stroke:rgb(246,147,147);stroke-width:0.01" />
<line x1="-4.00167e-22" y1="-7.50313e-22" x2="-2.00083e-22" y2="-3.75156e-22" style="stroke:rgb(246,147,147);stroke-width:0.01" />
<line x1="-0.138408" y1="-0.259516" x2="-2.00083e-22" y2="-3.75156e-22" style="stroke:rgb(246,147,147);stroke-width:0.01" />
<line x1="-0.224753" y1="-0.497666" x2="-0.218645" y2="-0.203612" style="stroke:rgb(246,147,147);stroke-width:0.01" />
<line x1="-0.348733" y1="-0.49509" x2="-0.220588" y2="0.117647" style="stroke:rgb(246,147,147);stroke-width:0.01" />
<line x1="-0.396318" y1="-0.435266" x2="-0.287197" y2="0.0865052" style="stroke:rgb(246,147,147);stroke-width:0.01" />
<line x1="-0.586656" y1="-0.195967" x2="-0.553633" y2="-0.0380623" style="stroke:rgb(246,147,147);stroke-width:0.01" />
<line x1="-0.553633" y1="-0.0380623" x2="-0.220588" y2="0.117647" style="stroke:rgb(246,147,147);stroke-width:0.01" />
</g>
</svg>
