<svg xmlns="http://www.w3.org/2000/svg" viewBox="-1.5 -1.5 3 3">
<g transform="scale(1, -1)">
<path d="M-0.100564 -0.298106 L0.060756 -0.298106 L0.304841 -0.003988 L0.281983 0.117893 L0.005653 0.066069 L0.031200 0.153659 L-0.251153 0.236012 L-0.321153 -0.003988 z M-0.014780 -0.003988 L-0.002379 0.038531 L0.005595 -0.003988 z " fill="rgb(245,195,195)" />
<path d="M-0.251153 0.236012 L0.748847 0.236012 L0.748847 1.236012 L-0.251153 1.236012  z" fill="none" stroke="rgb(128,128,128)" stroke-width="0.01" />
<line x1="-0.100564" y1="-0.298106" x2="0.0607561" y2="-0.298106" style="stroke:rgb(246,147,147);stroke-width:0.01" />
<line x1="0.0607561" y1="-0.298106" x2="0.304841" y2="-0.00398808" style="stroke:rgb(246,147,147);stroke-width:0.01" />
<line x1="-0.277035" y1="-0.0628116" x2="0.256024" y2="-0.0628116" style="stroke:rgb(246,147,147);stroke-width:0.01" />
<line x1="-0.321153" y1="-0.00398808" x2="0.304841" y2="-0.00398808" style="stroke:rgb(246,147,147);stroke-width:0.01" />
<line x1="-0.00709503" y1="0.0636779" x2="0.281983" y2="0.117893" style="stroke:rgb(246,147,147);stroke-width:0.01" />
<line x1="-0.100564" y1="-0.298106" x2="-0.321153" y2="-0.00398808" style="stroke:rgb(246,147,147);stroke-width:0.01" />
<line x1="-0.100564" y1="-0.298106" x2="0.0312003" y2="0.153659" style="stroke:rgb(246,147,147);stroke-width:0.01" />
<line x1="-0.277035" y1="-0.0628116" x2="-0.194682" y2="0.219541" style="stroke:rgb(246,147,147);stroke-width:0.01" />
<line x1="-0.321153" y1="-0.00398808" x2="-0.251153" y2="0.236012" style="stroke:rgb(246,147,147);stroke-width:0.01" />
<line x1="-0.321153" y1="-0.00398808" x2="-0.251153" y2="0.236012" style="stroke:rgb(246,147,147);stroke-width:0.01" />
<line x1="0.0312003" y1="0.153659" x2="-0.251153" y2="0.236012" style="stroke:rgb(246,147,147);stroke-width:0.01" />
<line x1="-0.251153" y1="0.236012" x2="-0.251153" y2="0.236012" style="stroke:rgb(246,147,147);stroke-width:0.01" />
<line x1="0.0607561" y1="-0.298106" x2="-0.00709503" y2="0.0636779" style="stroke:rgb(246,147,147);stroke-width:0.01" />
<line x1="0.256024" y1="-0.0628116" x2="0.224167" y2="0.10705" style="stroke:rgb(246,147,147);stroke-width:0.01" />
<line x1="0.304841" y1="-0.00398808" x2="0.281983" y2="0.117893" style="stroke:rgb(246,147,147);stroke-width:0.01" />
</g>
</svg>
