<svg xmlns="http://www.w3.org/2000/svg" viewBox="-1.5 -1.5 3 3">
<g transform="scale(1, -1)">
<path d="M-0.050564 -0.300645 L0.073380 -0.296696 L0.064427 -0.015691 L0.147079 -0.054334 L0.271647 0.212102 L0.045176 0.317984 L-0.279218 0.144974 L-0.303891 -0.014449 z M-0.004797 -0.004920 L-0.001681 0.015216 L0.038441 -0.003542 z " fill="rgb(245,195,195)" />
<path d="M0.271647 0.212102 L1.271647 0.212102 L1.271647 1.212102 L0.271647 1.212102  z" fill="none" stroke="rgb(128,128,128)" stroke-width="0.01" />
<line x1="-0.0505639" y1="-0.300645" x2="0.0733796" y2="-0.296696" style="stroke:rgb(246,147,147);stroke-width:0.01" />
<line x1="-0.101229" y1="-0.243405" x2="0.0715064" y2="-0.237902" style="stroke:rgb(246,147,147);stroke-width:0.01" />
<line x1="-0.0505639" y1="-0.300645" x2="-0.303891" y2="-0.0144487" style="stroke:rgb(246,147,147);stroke-width:0.01" />
<line x1="0.147079" y1="-0.054334" x2="-0.279218" y2="0.144974" style="stroke:rgb(246,147,147);stroke-width:0.01" />
<line x1="-0.303891" y1="-0.0144487" x2="0.0640139" y2="-0.00272742" style="stroke:rgb(246,147,147);stroke-width:0.01" />
<line x1="0.246733" y1="0.158815" x2="-0.0197026" y2="0.283382" style="stroke:rgb(246,147,147);stroke-width:0.01" />
<line x1="0.0733796" y1="-0.296696" x2="0.0640139" y2="-0.00272742" style="stroke:rgb(246,147,147);stroke-width:0.01" />
<line x1="0.271647" y1="0.212102" x2="0.0451763" y2="0.317984" style="stroke:rgb(246,147,147);stroke-width:0.01" />
<line x1="0.271647" y1="0.212102" x2="0.0451763" y2="0.317984" style="stroke:rgb(246,147,147);stroke-width:0.01" />
<line x1="0.271647" y1="0.212102" x2="0.271647" y2="0.212102" style="stroke:rgb(246,147,147);stroke-width:0.01" />
<line x1="0.147079" y1="-0.054334" x2="0.271647" y2="0.212102" style="stroke:rgb(246,147,147);stroke-width:0.01" />
<line x1="-0.0505639" y1="-0.300645" x2="0.0451763" y2="0.317984" style="stroke:rgb(246,147,147);stroke-width:0.01" />
<line x1="-0.101229" y1="-0.243405" x2="-0.0197026" y2="0.283382" style="stroke:rgb(246,147,147);stroke-width:0.01" />
<line x1="-0.303891" y1="-0.0144487" x2="-0.279218" y2="0.144974" style="stroke:rgb(246,147,147);stroke-width:0.01" />
<line x1="-0.279218" y1="0.144974" x2="0.0451763" y2="0.317984" style="stroke:rgb(246,147,147);stroke-width:0.01" />
</g>
</svg>
