<svg xmlns="http://www.w3.org/2000/svg" viewBox="-1.5 -1.5 3 3">
<g transform="scale(1, -1)">
<path d="M-0.322211 -0.512747 L-0.198267 -0.508798 L-0.207220 -0.227793 L-0.124567 -0.266436 L-0.000000 -0.000000 L-0.226471 0.105882 L-0.550865 -0.067128 L-0.575538 -0.226551 z M-0.276444 -0.217022 L-0.273328 -0.196886 L-0.233206 -0.215644 z " fill="rgb(245,195,195)" />
<path d="M0.000000 0.000000 L1.000000 0.000000 L1.000000 1.000000 L0.000000 1.000000  z" fill="none" stroke="rgb(128,128,128)" stroke-width="0.01" />
<line x1="-0.322211" y1="-0.512747" x2="-0.198267" y2="-0.508798" style="stroke:rgb(246,147,147);stroke-width:0.01" />
<line x1="-0.372876" y1="-0.455507" x2="-0.20014" y2="-0.450004" style="stroke:rgb(246,147,147);stroke-width:0.01" />
<line x1="-0.322211" y1="-0.512747" x2="-0.575538" y2="-0.226551" style="stroke:rgb(246,147,147);stroke-width:0.01" />
<line x1="-0.124567" y1="-0.266436" x2="-0.550865" y2="-0.067128" style="stroke:rgb(246,147,147);stroke-width:0.01" />
<line x1="-0.575538" y1="-0.226551" x2="-0.207633" y2="-0.214829" style="stroke:rgb(246,147,147);stroke-width:0.01" />
<line x1="-0.0249135" y1="-0.0532872" x2="-0.291349" y2="0.0712803" style="stroke:rgb(246,147,147);stroke-width:0.01" />
<line x1="-0.198267" y1="-0.508798" x2="-0.207633" y2="-0.214829" style="stroke:rgb(246,147,147);stroke-width:0.01" />
<line x1="-2.75791e-22" y1="-5.89886e-22" x2="-0.226471" y2="0.105882" style="stroke:rgb(246,147,147);stroke-width:0.01" />
<line x1="-1.37895e-22" y1="-2.94943e-22" x2="-0.226471" y2="0.105882" style="stroke:rgb(246,147,147);stroke-width:0.01" />
<line x1="-2.75791e-22" y1="-5.89886e-22" x2="-1.37895e-22" y2="-2.94943e-22" style="stroke:rgb(246,147,147);stroke-width:0.01" />
<line x1="-0.124567" y1="-0.266436" x2="-1.37895e-22" y2="-2.94943e-22" style="stroke:rgb(246,147,147);stroke-width:0.01" />
<line x1="-0.322211" y1="-0.512747" x2="-0.226471" y2="0.105882" style="stroke:rgb(246,147,147);stroke-width:0.01" />
<line x1="-0.372876" y1="-0.455507" x2="-0.291349" y2="0.0712803" style="stroke:rgb(246,147,147);stroke-width:0.01" />
<line x1="-0.575538" y1="-0.226551" x2="-0.550865" y2="-0.067128" style="stroke:rgb(246,147,147);stroke-width:0.01" />
<line x1="-0.550865" y1="-0.067128" x2="-0.226471" y2="0.105882" style="stroke:rgb(246,147,147);stroke-width:0.01" />
</g>
</svg>
