<svg xmlns="http://www.w3.org/2000/svg" viewBox="-1.5 -1.5 3 3">
<g transform="scale(1, -1)">
<path d="M-0.060994 -0.308642 L0.098960 -0.287689 L0.302777 0.035639 L0.264282 0.153519 L-0.002976 0.066243 L0.010978 0.156410 L-0.279679 0.201392 L-0.317914 -0.045666 z M-0.014137 -0.005874 L-0.007363 0.037895 L0.006066 -0.003228 z " fill="rgb(245,195,195)" />
<path d="M-0.279679 0.201392 L0.720321 0.201392 L0.720321 1.201392 L-0.279679 1.201392  z" fill="none" stroke="rgb(128,128,128)" stroke-width="0.01" />
<line x1="-0.0609939" y1="-0.308642" x2="0.0989601" y2="-0.287689" style="stroke:rgb(246,147,147);stroke-width:0.01" />
<line x1="0.0989601" y1="-0.287689" x2="0.302777" y2="0.0356392" style="stroke:rgb(246,147,147);stroke-width:0.01" />
<line x1="-0.26653" y1="-0.0982615" x2="0.262013" y2="-0.0290266" style="stroke:rgb(246,147,147);stroke-width:0.01" />
<line x1="-0.317914" y1="-0.0456664" x2="0.302777" y2="0.0356392" style="stroke:rgb(246,147,147);stroke-width:0.01" />
<line x1="-0.0153056" y1="0.062217" x2="0.264282" y2="0.153519" style="stroke:rgb(246,147,147);stroke-width:0.01" />
<line x1="-0.0609939" y1="-0.308642" x2="-0.317914" y2="-0.0456664" style="stroke:rgb(246,147,147);stroke-width:0.01" />
<line x1="-0.0609939" y1="-0.308642" x2="0.0109784" y2="0.15641" style="stroke:rgb(246,147,147);stroke-width:0.01" />
<line x1="-0.26653" y1="-0.0982615" x2="-0.221548" y2="0.192396" style="stroke:rgb(246,147,147);stroke-width:0.01" />
<line x1="-0.317914" y1="-0.0456664" x2="-0.279679" y2="0.201392" style="stroke:rgb(246,147,147);stroke-width:0.01" />
<line x1="-0.317914" y1="-0.0456664" x2="-0.279679" y2="0.201392" style="stroke:rgb(246,147,147);stroke-width:0.01" />
<line x1="0.0109784" y1="0.15641" x2="-0.279679" y2="0.201392" style="stroke:rgb(246,147,147);stroke-width:0.01" />
<line x1="-0.279679" y1="0.201392" x2="-0.279679" y2="0.201392" style="stroke:rgb(246,147,147);stroke-width:0.01" />
<line x1="0.0989601" y1="-0.287689" x2="-0.0153056" y2="0.062217" style="stroke:rgb(246,147,147);stroke-width:0.01" />
<line x1="0.262013" y1="-0.0290266" x2="0.208364" y2="0.135259" style="stroke:rgb(246,147,147);stroke-width:0.01" />
<line x1="0.302777" y1="0.0356392" x2="0.264282" y2="0.153519" style="stroke:rgb(246,147,147);stroke-width:0.01" />
</g>
</svg>
