<svg xmlns="http://www.w3.org/2000/svg" viewBox="-1.5 -1.5 3 3">
<g transform="scale(1, -1)">
<path d="M0.218685 -0.510035 L0.378639 -0.489082 L0.582456 -0.165753 L0.543961 -0.047873 L0.276703 -0.135149 L0.290657 -0.044983 L0.000000 -0.000000 L-0.038235 -0.247059 z M0.265542 -0.207266 L0.272316 -0.163497 L0.285745 -0.204620 z " fill="rgb(245,195,195)" />
<path d="M0.000000 0.000000 L1.000000 0.000000 L1.000000 1.000000 L0.000000 1.000000  z" fill="none" stroke="rgb(128,128,128)" stroke-width="0.01" />
<line x1="0.218685" y1="-0.510035" x2="0.378639" y2="-0.489082" style="stroke:rgb(246,147,147);stroke-width:0.01" />
<line x1="0.378639" y1="-0.489082" x2="0.582456" y2="-0.165753" style="stroke:rgb(246,147,147);stroke-width:0.01" />
<line x1="0.0131488" y1="-0.299654" x2="0.541692" y2="-0.230419" style="stroke:rgb(246,147,147);stroke-width:0.01" />
<line x1="-0.0382353" y1="-0.247059" x2="0.582456" y2="-0.165753" style="stroke:rgb(246,147,147);stroke-width:0.01" />
<line x1="0.264373" y1="-0.139175" x2="0.543961" y2="-0.0478732" style="stroke:rgb(246,147,147);stroke-width:0.01" />
<line x1="0.218685" y1="-0.510035" x2="-0.0382353" y2="-0.247059" style="stroke:rgb(246,147,147);stroke-width:0.01" />
<line x1="0.218685" y1="-0.510035" x2="0.290657" y2="-0.0449827" style="stroke:rgb(246,147,147);stroke-width:0.01" />
<line x1="0.0131488" y1="-0.299654" x2="0.0581315" y2="-0.00899654" style="stroke:rgb(246,147,147);stroke-width:0.01" />
<line x1="-0.0382353" y1="-0.247059" x2="4.028e-22" y2="-6.2338e-23" style="stroke:rgb(246,147,147);stroke-width:0.01" />
<line x1="-0.0382353" y1="-0.247059" x2="2.014e-22" y2="-3.1169e-23" style="stroke:rgb(246,147,147);stroke-width:0.01" />
<line x1="0.290657" y1="-0.0449827" x2="2.014e-22" y2="-3.1169e-23" style="stroke:rgb(246,147,147);stroke-width:0.01" />
<line x1="4.028e-22" y1="-6.2338e-23" x2="2.014e-22" y2="-3.1169e-23" style="stroke:rgb(246,147,147);stroke-width:0.01" />
<line x1="0.378639" y1="-0.489082" x2="0.264373" y2="-0.139175" style="stroke:rgb(246,147,147);stroke-width:0.01" />
<line x1="0.541692" y1="-0.230419" x2="0.488043" y2="-0.0661337" style="stroke:rgb(246,147,147);stroke-width:0.01" />
<line x1="0.582456" y1="-0.165753" x2="0.543961" y2="-0.0478732" style="stroke:rgb(246,147,147);stroke-width:0.01" />
</g>
</svg>
