<svg xmlns="http://www.w3.org/2000/svg" viewBox="-1.5 -1.5 3 3">
<g transform="scale(1, -1)">
<path d="M0.075466 -0.305426 L0.211491 -0.218700 L0.259186 0.160520 L0.174388 0.251001 L-0.030752 0.058748 L-0.056299 0.146339 L-0.338652 0.063986 L-0.268652 -0.176014 z M-0.010319 -0.011309 L-0.022720 0.031210 L0.006862 -0.000355 z " fill="rgb(245,195,195)" />
<path d="M-0.338652 0.063986 L0.661348 0.063986 L0.661348 1.063986 L-0.338652 1.063986  z" fill="none" stroke="rgb(128,128,128)" stroke-width="0.01" />
<line x1="0.0754657" y1="-0.305426" x2="0.211491" y2="-0.2187" style="stroke:rgb(246,147,147);stroke-width:0.01" />
<line x1="-0.199828" y1="-0.201897" x2="0.249647" y2="0.0846758" style="stroke:rgb(246,147,147);stroke-width:0.01" />
<line x1="-0.268652" y1="-0.176014" x2="0.259186" y2="0.16052" style="stroke:rgb(246,147,147);stroke-width:0.01" />
<line x1="0.0754657" y1="-0.305426" x2="-0.268652" y2="-0.176014" style="stroke:rgb(246,147,147);stroke-width:0.01" />
<line x1="-0.0402158" y1="0.0498789" x2="0.174388" y2="0.251001" style="stroke:rgb(246,147,147);stroke-width:0.01" />
<line x1="0.211491" y1="-0.2187" x2="0.259186" y2="0.16052" style="stroke:rgb(246,147,147);stroke-width:0.01" />
<line x1="-0.338652" y1="0.0639856" x2="-0.056299" y2="0.146339" style="stroke:rgb(246,147,147);stroke-width:0.01" />
<line x1="-0.338652" y1="0.0639856" x2="-0.338652" y2="0.0639856" style="stroke:rgb(246,147,147);stroke-width:0.01" />
<line x1="-0.268652" y1="-0.176014" x2="-0.338652" y2="0.0639856" style="stroke:rgb(246,147,147);stroke-width:0.01" />
<line x1="-0.268652" y1="-0.176014" x2="-0.338652" y2="0.0639856" style="stroke:rgb(246,147,147);stroke-width:0.01" />
<line x1="-0.199828" y1="-0.201897" x2="-0.282181" y2="0.0804562" style="stroke:rgb(246,147,147);stroke-width:0.01" />
<line x1="0.0754657" y1="-0.305426" x2="-0.056299" y2="0.146339" style="stroke:rgb(246,147,147);stroke-width:0.01" />
<line x1="0.211491" y1="-0.2187" x2="-0.0402158" y2="0.0498789" style="stroke:rgb(246,147,147);stroke-width:0.01" />
<line x1="0.249647" y1="0.0846758" x2="0.131467" y2="0.210777" style="stroke:rgb(246,147,147);stroke-width:0.01" />
<line x1="0.259186" y1="0.16052" x2="0.174388" y2="0.251001" style="stroke:rgb(246,147,147);stroke-width:0.01" />
</g>
</svg>
