<svg xmlns="http://www.w3.org/2000/svg" viewBox="-1.5 -1.5 3 3">
<g transform="scale(1, -1)">
<path d="M0.414118 -0.369412 L0.550143 -0.282686 L0.597838 0.096534 L0.513040 0.187016 L0.307900 -0.005237 L0.282353 0.082353 L0.000000 0.000000 L0.070000 -0.240000 z M0.328333 -0.075294 L0.315932 -0.032775 L0.345514 -0.064340 z " fill="rgb(245,195,195)" />
<path d="M0.000000 0.000000 L1.000000 0.000000 L1.000000 1.000000 L0.000000 1.000000  z" fill="none" stroke="rgb(128,128,128)" stroke-width="0.01" />
<line x1="0.414118" y1="-0.369412" x2="0.550143" y2="-0.282686" style="stroke:rgb(246,147,147);stroke-width:0.01" />
<line x1="0.138824" y1="-0.265882" x2="0.588299" y2="0.0206902" style="stroke:rgb(246,147,147);stroke-width:0.01" />
<line x1="0.07" y1="-0.24" x2="0.597838" y2="0.0965342" style="stroke:rgb(246,147,147);stroke-width:0.01" />
<line x1="0.414118" y1="-0.369412" x2="0.07" y2="-0.24" style="stroke:rgb(246,147,147);stroke-width:0.01" />
<line x1="0.298436" y1="-0.0141066" x2="0.51304" y2="0.187016" style="stroke:rgb(246,147,147);stroke-width:0.01" />
<line x1="0.550143" y1="-0.282686" x2="0.597838" y2="0.0965342" style="stroke:rgb(246,147,147);stroke-width:0.01" />
<line x1="1.48056e-22" y1="4.3183e-23" x2="0.282353" y2="0.0823529" style="stroke:rgb(246,147,147);stroke-width:0.01" />
<line x1="1.48056e-22" y1="4.3183e-23" x2="2.96112e-22" y2="8.6366e-23" style="stroke:rgb(246,147,147);stroke-width:0.01" />
<line x1="0.07" y1="-0.24" x2="1.48056e-22" y2="4.3183e-23" style="stroke:rgb(246,147,147);stroke-width:0.01" />
<line x1="0.07" y1="-0.24" x2="2.96112e-22" y2="8.6366e-23" style="stroke:rgb(246,147,147);stroke-width:0.01" />
<line x1="0.138824" y1="-0.265882" x2="0.0564706" y2="0.0164706" style="stroke:rgb(246,147,147);stroke-width:0.01" />
<line x1="0.414118" y1="-0.369412" x2="0.282353" y2="0.0823529" style="stroke:rgb(246,147,147);stroke-width:0.01" />
<line x1="0.550143" y1="-0.282686" x2="0.298436" y2="-0.0141066" style="stroke:rgb(246,147,147);stroke-width:0.01" />
<line x1="0.588299" y1="0.0206902" x2="0.470119" y2="0.146791" style="stroke:rgb(246,147,147);stroke-width:0.01" />
<line x1="0.597838" y1="0.0965342" x2="0.51304" y2="0.187016" style="stroke:rgb(246,147,147);stroke-width:0.01" />
</g>
</svg>
