<svg xmlns="http://www.w3.org/2000/svg" viewBox="-1.5 -1.5 3 3">
<g transform="scale(1, -1)">
<path d="M0.059315 -0.339501 L0.259315 -0.189501 L0.259315 0.178146 L0.130259 0.274938 L-0.241480 0.186095 L-0.296322 0.074875 L-0.044164 -0.049463 L-0.117156 -0.104207 z M-0.021215 -0.032252 L-0.002084 0.006548 L0.014217 -0.005678 z " fill="rgb(245,195,195)" />
<path d="M0.059315 -0.339501 L1.059315 -0.339501 L1.059315 0.660499 L0.059315 0.660499  z" fill="none" stroke="rgb(128,128,128)" stroke-width="0.01" />
<line x1="0.059315" y1="-0.339501" x2="0.059315" y2="-0.339501" style="stroke:rgb(246,147,147);stroke-width:0.01" />
<line x1="0.059315" y1="-0.339501" x2="-0.117156" y2="-0.104207" style="stroke:rgb(246,147,147);stroke-width:0.01" />
<line x1="0.259315" y1="-0.189501" x2="0.259315" y2="0.178146" style="stroke:rgb(246,147,147);stroke-width:0.01" />
<line x1="0.059315" y1="-0.339501" x2="0.259315" y2="-0.189501" style="stroke:rgb(246,147,147);stroke-width:0.01" />
<line x1="0.059315" y1="-0.339501" x2="0.259315" y2="-0.189501" style="stroke:rgb(246,147,147);stroke-width:0.01" />
<line x1="0.0240209" y1="-0.292442" x2="0.259315" y2="-0.115972" style="stroke:rgb(246,147,147);stroke-width:0.01" />
<line x1="-0.0325307" y1="-0.0551994" x2="0.130259" y2="0.274938" style="stroke:rgb(246,147,147);stroke-width:0.01" />
<line x1="0.259315" y1="-0.189501" x2="-0.24148" y2="0.186095" style="stroke:rgb(246,147,147);stroke-width:0.01" />
<line x1="-0.0325307" y1="-0.0551994" x2="-0.296322" y2="0.0748749" style="stroke:rgb(246,147,147);stroke-width:0.01" />
<line x1="-0.243564" y1="0.0488601" x2="-0.167132" y2="0.203864" style="stroke:rgb(246,147,147);stroke-width:0.01" />
<line x1="-0.296322" y1="0.0748749" x2="-0.24148" y2="0.186095" style="stroke:rgb(246,147,147);stroke-width:0.01" />
<line x1="-0.117156" y1="-0.104207" x2="0.259315" y2="0.178146" style="stroke:rgb(246,147,147);stroke-width:0.01" />
<line x1="0.259315" y1="-0.115972" x2="-0.167132" y2="0.203864" style="stroke:rgb(246,147,147);stroke-width:0.01" />
<line x1="0.259315" y1="0.178146" x2="0.130259" y2="0.274938" style="stroke:rgb(246,147,147);stroke-width:0.01" />
<line x1="-0.24148" y1="0.186095" x2="0.130259" y2="0.274938" style="stroke:rgb(246,147,147);stroke-width:0.01" />
</g>
</svg>
