<svg xmlns="http://www.w3.org/2000/svg" viewBox="-1.5 -1.5 3 3">
<g transform="scale(1, -1)">
<path d="M-0.000000 0.000000 L0.200000 0.150000 L0.200000 0.517647 L0.070944 0.614439 L-0.300795 0.525596 L-0.355637 0.414376 L-0.103479 0.290038 L-0.176471 0.235294 z M-0.080530 0.307249 L-0.061398 0.346049 L-0.045098 0.333824 z " fill="rgb(245,195,195)" />
<path d="M0.000000 0.000000 L1.000000 0.000000 L1.000000 1.000000 L0.000000 1.000000  z" fill="none" stroke="rgb(128,128,128)" stroke-width="0.01" />
<line x1="-1.55627e-22" y1="2.07503e-22" x2="-3.11254e-22" y2="4.15006e-22" style="stroke:rgb(246,147,147);stroke-width:0.01" />
<line x1="-1.55627e-22" y1="2.07503e-22" x2="-0.176471" y2="0.235294" style="stroke:rgb(246,147,147);stroke-width:0.01" />
<line x1="0.2" y1="0.15" x2="0.2" y2="0.517647" style="stroke:rgb(246,147,147);stroke-width:0.01" />
<line x1="-1.55627e-22" y1="2.07503e-22" x2="0.2" y2="0.15" style="stroke:rgb(246,147,147);stroke-width:0.01" />
<line x1="-3.11254e-22" y1="4.15006e-22" x2="0.2" y2="0.15" style="stroke:rgb(246,147,147);stroke-width:0.01" />
<line x1="-0.0352941" y1="0.0470588" x2="0.2" y2="0.223529" style="stroke:rgb(246,147,147);stroke-width:0.01" />
<line x1="-0.0918457" y1="0.284302" x2="0.0709436" y2="0.614439" style="stroke:rgb(246,147,147);stroke-width:0.01" />
<line x1="0.2" y1="0.15" x2="-0.300795" y2="0.525596" style="stroke:rgb(246,147,147);stroke-width:0.01" />
<line x1="-0.0918457" y1="0.284302" x2="-0.355637" y2="0.414376" style="stroke:rgb(246,147,147);stroke-width:0.01" />
<line x1="-0.302879" y1="0.388361" x2="-0.226447" y2="0.543365" style="stroke:rgb(246,147,147);stroke-width:0.01" />
<line x1="-0.355637" y1="0.414376" x2="-0.300795" y2="0.525596" style="stroke:rgb(246,147,147);stroke-width:0.01" />
<line x1="-0.176471" y1="0.235294" x2="0.2" y2="0.517647" style="stroke:rgb(246,147,147);stroke-width:0.01" />
<line x1="0.2" y1="0.223529" x2="-0.226447" y2="0.543365" style="stroke:rgb(246,147,147);stroke-width:0.01" />
<line x1="0.2" y1="0.517647" x2="0.0709436" y2="0.614439" style="stroke:rgb(246,147,147);stroke-width:0.01" />
<line x1="-0.300795" y1="0.525596" x2="0.0709436" y2="0.614439" style="stroke:rgb(246,147,147);stroke-width:0.01" />
</g>
</svg>
