<svg xmlns="http://www.w3.org/2000/svg" viewBox="-1.5 -1.5 3 3">
<g transform="scale(1, -1)">
<path d="M-0.119314 -0.281384 L0.042127 -0.051209 L0.085063 -0.131715 L0.344579 0.006693 L0.226932 0.227282 L-0.136390 0.283510 L-0.251782 0.170775 L-0.220838 -0.210177 z M0.028628 -0.025898 L-0.006789 -0.001058 L0.007785 0.013181 z " fill="rgb(245,195,195)" />
<path d="M0.344579 0.006693 L1.344579 0.006693 L1.344579 1.006693 L0.344579 1.006693  z" fill="none" stroke="rgb(128,128,128)" stroke-width="0.01" />
<line x1="-0.119314" y1="-0.281384" x2="-0.220838" y2="-0.210177" style="stroke:rgb(246,147,147);stroke-width:0.01" />
<line x1="-0.0855362" y1="-0.233226" x2="-0.227027" y2="-0.133987" style="stroke:rgb(246,147,147);stroke-width:0.01" />
<line x1="0.0495747" y1="-0.0405903" x2="-0.251782" y2="0.170775" style="stroke:rgb(246,147,147);stroke-width:0.01" />
<line x1="0.0850631" y1="-0.131715" x2="-0.13639" y2="0.28351" style="stroke:rgb(246,147,147);stroke-width:0.01" />
<line x1="-0.220838" y1="-0.210177" x2="-0.251782" y2="0.170775" style="stroke:rgb(246,147,147);stroke-width:0.01" />
<line x1="0.292676" y1="-0.0209882" x2="0.154267" y2="0.238527" style="stroke:rgb(246,147,147);stroke-width:0.01" />
<line x1="0.344579" y1="0.00669344" x2="0.226932" y2="0.227282" style="stroke:rgb(246,147,147);stroke-width:0.01" />
<line x1="0.344579" y1="0.00669344" x2="0.226932" y2="0.227282" style="stroke:rgb(246,147,147);stroke-width:0.01" />
<line x1="0.344579" y1="0.00669344" x2="0.344579" y2="0.00669344" style="stroke:rgb(246,147,147);stroke-width:0.01" />
<line x1="0.0850631" y1="-0.131715" x2="0.344579" y2="0.00669344" style="stroke:rgb(246,147,147);stroke-width:0.01" />
<line x1="-0.119314" y1="-0.281384" x2="0.0495747" y2="-0.0405903" style="stroke:rgb(246,147,147);stroke-width:0.01" />
<line x1="-0.220838" y1="-0.210177" x2="0.226932" y2="0.227282" style="stroke:rgb(246,147,147);stroke-width:0.01" />
<line x1="0.226932" y1="0.227282" x2="-0.13639" y2="0.28351" style="stroke:rgb(246,147,147);stroke-width:0.01" />
<line x1="-0.227027" y1="-0.133987" x2="0.154267" y2="0.238527" style="stroke:rgb(246,147,147);stroke-width:0.01" />
<line x1="-0.251782" y1="0.170775" x2="-0.13639" y2="0.28351" style="stroke:rgb(246,147,147);stroke-width:0.01" />
</g>
</svg>
