<svg xmlns="http://www.w3.org/2000/svg" viewBox="-1.5 -1.5 3 3">
<g transform="scale(1, -1)">
<path d="M-0.047683 -0.301893 L0.053266 -0.039494 L0.114406 -0.107219 L0.332720 0.089870 L0.165194 0.275437 L-0.200937 0.242084 L-0.285622 0.104779 L-0.163420 -0.257367 z M0.034044 -0.018202 L-0.006332 -0.002669 L0.004364 0.014673 z " fill="rgb(245,195,195)" />
<path d="M0.332720 0.089870 L1.332720 0.089870 L1.332720 1.089870 L0.332720 1.089870  z" fill="none" stroke="rgb(128,128,128)" stroke-width="0.01" />
<line x1="-0.0476833" y1="-0.301893" x2="-0.16342" y2="-0.257367" style="stroke:rgb(246,147,147);stroke-width:0.01" />
<line x1="-0.0265621" y1="-0.246992" x2="-0.187861" y2="-0.184938" style="stroke:rgb(246,147,147);stroke-width:0.01" />
<line x1="0.114406" y1="-0.107219" x2="-0.200937" y2="0.242084" style="stroke:rgb(246,147,147);stroke-width:0.01" />
<line x1="0.057923" y1="-0.0273888" x2="-0.285622" y2="0.104779" style="stroke:rgb(246,147,147);stroke-width:0.01" />
<line x1="-0.16342" y1="-0.257367" x2="-0.285622" y2="0.104779" style="stroke:rgb(246,147,147);stroke-width:0.01" />
<line x1="0.289057" y1="0.0504526" x2="0.091968" y2="0.268767" style="stroke:rgb(246,147,147);stroke-width:0.01" />
<line x1="0.33272" y1="0.0898705" x2="0.165194" y2="0.275437" style="stroke:rgb(246,147,147);stroke-width:0.01" />
<line x1="0.33272" y1="0.0898705" x2="0.165194" y2="0.275437" style="stroke:rgb(246,147,147);stroke-width:0.01" />
<line x1="0.33272" y1="0.0898705" x2="0.33272" y2="0.0898705" style="stroke:rgb(246,147,147);stroke-width:0.01" />
<line x1="0.114406" y1="-0.107219" x2="0.33272" y2="0.0898705" style="stroke:rgb(246,147,147);stroke-width:0.01" />
<line x1="-0.0476833" y1="-0.301893" x2="0.057923" y2="-0.0273888" style="stroke:rgb(246,147,147);stroke-width:0.01" />
<line x1="-0.16342" y1="-0.257367" x2="0.165194" y2="0.275437" style="stroke:rgb(246,147,147);stroke-width:0.01" />
<line x1="-0.187861" y1="-0.184938" x2="0.091968" y2="0.268767" style="stroke:rgb(246,147,147);stroke-width:0.01" />
<line x1="-0.200937" y1="0.242084" x2="0.165194" y2="0.275437" style="stroke:rgb(246,147,147);stroke-width:0.01" />
<line x1="-0.285622" y1="0.104779" x2="-0.200937" y2="0.242084" style="stroke:rgb(246,147,147);stroke-width:0.01" />
</g>
</svg>
