<svg xmlns="http://www.w3.org/2000/svg" viewBox="-1.5 -1.5 3 3">
<g transform="scale(1, -1)">
<path d="M-0.062949 -0.431864 L0.035912 -0.411923 L0.212203 0.161023 L0.219355 0.160957 L0.385046 -0.004236 L0.464322 0.075278 L0.287953 0.407211 L-0.222388 0.358607 L-0.224155 0.165006 L-0.183263 0.164632 L-0.174819 0.122768 L-0.256528 0.002562 L-0.133739 -0.080902 L-0.114551 -0.176031 L-0.138728 -0.233531 L-0.093670 -0.279557 z " fill="rgb(245,195,195)" />
<path d="M-0.489225 -0.233531 L0.510775 -0.233531 L0.510775 0.766469 L-0.489225 0.766469  z" fill="none" stroke="rgb(128,128,128)" stroke-width="0.01" />
<line x1="0.385046" y1="-0.0042359" x2="0.464322" y2="0.0752783" style="stroke:rgb(246,147,147);stroke-width:0.01" />
<line x1="0.349654" y1="0.0532369" x2="0.419769" y2="0.159128" style="stroke:rgb(246,147,147);stroke-width:0.01" />
<line x1="-0.0629494" y1="-0.431864" x2="0.0359117" y2="-0.411923" style="stroke:rgb(246,147,147);stroke-width:0.01" />
<line x1="0.0359117" y1="-0.411923" x2="0.287953" y2="0.407211" style="stroke:rgb(246,147,147);stroke-width:0.01" />
<line x1="-0.138728" y1="-0.233531" x2="0.124115" y2="0.391608" style="stroke:rgb(246,147,147);stroke-width:0.01" />
<line x1="-0.256528" y1="0.0025621" x2="-0.000121408" y2="0.379776" style="stroke:rgb(246,147,147);stroke-width:0.01" />
<line x1="-0.224155" y1="0.165006" x2="-0.222388" y2="0.358607" style="stroke:rgb(246,147,147);stroke-width:0.01" />
<line x1="-0.138728" y1="-0.233531" x2="0.0908017" y2="-0.233531" style="stroke:rgb(246,147,147);stroke-width:0.01" />
<line x1="-0.0629494" y1="-0.431864" x2="-0.222388" y2="0.358607" style="stroke:rgb(246,147,147);stroke-width:0.01" />
<line x1="0.349654" y1="0.0532369" x2="0.464322" y2="0.0752783" style="stroke:rgb(246,147,147);stroke-width:0.01" />
<line x1="0.0359117" y1="-0.411923" x2="-0.138728" y2="-0.233531" style="stroke:rgb(246,147,147);stroke-width:0.01" />
<line x1="0.0908017" y1="-0.233531" x2="-0.256528" y2="0.0025621" style="stroke:rgb(246,147,147);stroke-width:0.01" />
<line x1="0.419769" y1="0.159128" x2="-0.224155" y2="0.165006" style="stroke:rgb(246,147,147);stroke-width:0.01" />
<line x1="0.464322" y1="0.0752783" x2="0.287953" y2="0.407211" style="stroke:rgb(246,147,147);stroke-width:0.01" />
<line x1="0.349654" y1="0.0532369" x2="0.124115" y2="0.391608" style="stroke:rgb(246,147,147);stroke-width:0.01" />
<line x1="0.385046" y1="-0.0042359" x2="-0.000121408" y2="0.379776" style="stroke:rgb(246,147,147);stroke-width:0.01" />
<line x1="-0.222388" y1="0.358607" x2="0.287953" y2="0.407211" style="stroke:rgb(246,147,147);stroke-width:0.01" />
</g>
</svg>
