<svg xmlns="http://www.w3.org/2000/svg" viewBox="-1.5 -1.5 3 3">
<g transform="scale(1, -1)">
<path d="M0.426275 -0.198333 L0.525136 -0.178392 L0.701428 0.394554 L0.708580 0.394489 L0.874271 0.229295 L0.953546 0.308809 L0.777178 0.640742 L0.266836 0.592138 L0.265069 0.398537 L0.305961 0.398164 L0.314405 0.356299 L0.232697 0.236093 L0.355486 0.152629 L0.374673 0.057500 L0.350497 0.000000 L0.395555 -0.046026 z " fill="rgb(245,195,195)" />
<path d="M0.000000 0.000000 L1.000000 0.000000 L1.000000 1.000000 L0.000000 1.000000  z" fill="none" stroke="rgb(128,128,128)" stroke-width="0.01" />
<line x1="0.874271" y1="0.229295" x2="0.953546" y2="0.308809" style="stroke:rgb(246,147,147);stroke-width:0.01" />
<line x1="0.838879" y1="0.286768" x2="0.908994" y2="0.392659" style="stroke:rgb(246,147,147);stroke-width:0.01" />
<line x1="0.426275" y1="-0.198333" x2="0.525136" y2="-0.178392" style="stroke:rgb(246,147,147);stroke-width:0.01" />
<line x1="0.525136" y1="-0.178392" x2="0.777178" y2="0.640742" style="stroke:rgb(246,147,147);stroke-width:0.01" />
<line x1="0.350497" y1="0" x2="0.61334" y2="0.625139" style="stroke:rgb(246,147,147);stroke-width:0.01" />
<line x1="0.232697" y1="0.236093" x2="0.489103" y2="0.613307" style="stroke:rgb(246,147,147);stroke-width:0.01" />
<line x1="0.265069" y1="0.398537" x2="0.266836" y2="0.592138" style="stroke:rgb(246,147,147);stroke-width:0.01" />
<line x1="0.350497" y1="0" x2="0.580026" y2="0" style="stroke:rgb(246,147,147);stroke-width:0.01" />
<line x1="0.426275" y1="-0.198333" x2="0.266836" y2="0.592138" style="stroke:rgb(246,147,147);stroke-width:0.01" />
<line x1="0.838879" y1="0.286768" x2="0.953546" y2="0.308809" style="stroke:rgb(246,147,147);stroke-width:0.01" />
<line x1="0.525136" y1="-0.178392" x2="0.350497" y2="0" style="stroke:rgb(246,147,147);stroke-width:0.01" />
<line x1="0.580026" y1="0" x2="0.232697" y2="0.236093" style="stroke:rgb(246,147,147);stroke-width:0.01" />
<line x1="0.908994" y1="0.392659" x2="0.265069" y2="0.398537" style="stroke:rgb(246,147,147);stroke-width:0.01" />
<line x1="0.953546" y1="0.308809" x2="0.777178" y2="0.640742" style="stroke:rgb(246,147,147);stroke-width:0.01" />
<line x1="0.838879" y1="0.286768" x2="0.61334" y2="0.625139" style="stroke:rgb(246,147,147);stroke-width:0.01" />
<line x1="0.874271" y1="0.229295" x2="0.489103" y2="0.613307" style="stroke:rgb(246,147,147);stroke-width:0.01" />
<line x1="0.266836" y1="0.592138" x2="0.777178" y2="0.640742" style="stroke:rgb(246,147,147);stroke-width:0.01" />
</g>
</svg>
