<svg xmlns="http://www.w3.org/2000/svg" viewBox="-1.5 -1.5 3 3">
<path d="M-0.468972 -0.286880 L-0.160985 -0.183890 L-0.105598 -0.188885 L-0.084803 -0.220689 L0.429657 0.003563 L0.434815 0.015344 L0.479408 0.030256 L0.462924 0.079551 L0.247624 0.089240 L-0.055614 0.370982 L-0.194458 0.221544 L-0.166270 0.107865 L-0.303670 0.114048 L-0.514059 -0.152049 z " fill="rgb(245,195,195)" />
<path d="M-0.631479 -0.602034 L0.368521 -0.602034 L0.368521 0.397966 L-0.631479 0.397966  z" fill="none" stroke="rgb(128,128,128)" stroke-width="0.01" />
<line x1="0.429657" y1="0.00356264" x2="0.462924" y2="0.0795514" style="stroke:rgb(246,147,147);stroke-width:0.01" />
<line x1="-0.0279122" y1="-0.195891" x2="0.198391" y2="0.0964652" style="stroke:rgb(246,147,147);stroke-width:0.01" />
<line x1="0.358487" y1="-0.0274601" x2="0.368521" y2="0.0837995" style="stroke:rgb(246,147,147);stroke-width:0.01" />
<line x1="0.368521" y1="-0.0230865" x2="0.368521" y2="0.0837995" style="stroke:rgb(246,147,147);stroke-width:0.01" />
<line x1="-0.468972" y1="-0.28688" x2="-0.514059" y2="-0.152049" style="stroke:rgb(246,147,147);stroke-width:0.01" />
<line x1="-0.514059" y1="-0.152049" x2="-0.30367" y2="0.114048" style="stroke:rgb(246,147,147);stroke-width:0.01" />
<line x1="-0.0848031" y1="-0.220689" x2="0.429657" y2="0.00356264" style="stroke:rgb(246,147,147);stroke-width:0.01" />
<line x1="-0.0848031" y1="-0.220689" x2="-0.194458" y2="0.221544" style="stroke:rgb(246,147,147);stroke-width:0.01" />
<line x1="-0.194458" y1="0.221544" x2="-0.0556138" y2="0.370982" style="stroke:rgb(246,147,147);stroke-width:0.01" />
<line x1="-0.468972" y1="-0.28688" x2="0.479408" y2="0.0302562" style="stroke:rgb(246,147,147);stroke-width:0.01" />
<line x1="-0.0848031" y1="-0.220689" x2="-0.30367" y2="0.114048" style="stroke:rgb(246,147,147);stroke-width:0.01" />
<line x1="0.479408" y1="0.0302562" x2="0.462924" y2="0.0795514" style="stroke:rgb(246,147,147);stroke-width:0.01" />
<line x1="-0.0279122" y1="-0.195891" x2="-0.514059" y2="-0.152049" style="stroke:rgb(246,147,147);stroke-width:0.01" />
<line x1="0.462924" y1="0.0795514" x2="-0.30367" y2="0.114048" style="stroke:rgb(246,147,147);stroke-width:0.01" />
<line x1="0.368521" y1="-0.0230865" x2="-0.0556138" y2="0.370982" style="stroke:rgb(246,147,147);stroke-width:0.01" />
<line x1="0.358487" y1="-0.0274601" x2="0.198391" y2="0.0964652" style="stroke:rgb(246,147,147);stroke-width:0.01" />
<line x1="0.429657" y1="0.00356264" x2="-0.194458" y2="0.221544" style="stroke:rgb(246,147,147);stroke-width:0.01" />
</svg>
