<svg xmlns="http://www.w3.org/2000/svg" viewBox="-1.5 -1.5 3 3">
<g transform="scale(1, -1)">
<path d="M0.162507 0.315154 L0.470494 0.418144 L0.525881 0.413149 L0.546676 0.381345 L1.061136 0.605596 L1.066294 0.617378 L1.110887 0.632290 L1.094403 0.681585 L0.879103 0.691274 L0.575865 0.973015 L0.437021 0.823578 L0.465208 0.709899 L0.327809 0.716082 L0.117420 0.449985 z " fill="rgb(245,195,195)" />
<path d="M0.000000 0.000000 L1.000000 0.000000 L1.000000 1.000000 L0.000000 1.000000  z" fill="none" stroke="rgb(128,128,128)" stroke-width="0.01" />
<line x1="1.06114" y1="0.605596" x2="1.0944" y2="0.681585" style="stroke:rgb(246,147,147);stroke-width:0.01" />
<line x1="0.603567" y1="0.406143" x2="0.82987" y2="0.698499" style="stroke:rgb(246,147,147);stroke-width:0.01" />
<line x1="0.989966" y1="0.574574" x2="1" y2="0.685833" style="stroke:rgb(246,147,147);stroke-width:0.01" />
<line x1="1" y1="0.578947" x2="1" y2="0.685833" style="stroke:rgb(246,147,147);stroke-width:0.01" />
<line x1="0.162507" y1="0.315154" x2="0.11742" y2="0.449985" style="stroke:rgb(246,147,147);stroke-width:0.01" />
<line x1="0.11742" y1="0.449985" x2="0.327809" y2="0.716082" style="stroke:rgb(246,147,147);stroke-width:0.01" />
<line x1="0.546676" y1="0.381345" x2="1.06114" y2="0.605596" style="stroke:rgb(246,147,147);stroke-width:0.01" />
<line x1="0.546676" y1="0.381345" x2="0.437021" y2="0.823578" style="stroke:rgb(246,147,147);stroke-width:0.01" />
<line x1="0.437021" y1="0.823578" x2="0.575865" y2="0.973015" style="stroke:rgb(246,147,147);stroke-width:0.01" />
<line x1="0.162507" y1="0.315154" x2="1.11089" y2="0.63229" style="stroke:rgb(246,147,147);stroke-width:0.01" />
<line x1="0.546676" y1="0.381345" x2="0.327809" y2="0.716082" style="stroke:rgb(246,147,147);stroke-width:0.01" />
<line x1="1.11089" y1="0.63229" x2="1.0944" y2="0.681585" style="stroke:rgb(246,147,147);stroke-width:0.01" />
<line x1="0.603567" y1="0.406143" x2="0.11742" y2="0.449985" style="stroke:rgb(246,147,147);stroke-width:0.01" />
<line x1="1.0944" y1="0.681585" x2="0.327809" y2="0.716082" style="stroke:rgb(246,147,147);stroke-width:0.01" />
<line x1="1" y1="0.578947" x2="0.575865" y2="0.973015" style="stroke:rgb(246,147,147);stroke-width:0.01" />
<line x1="0.989966" y1="0.574574" x2="0.82987" y2="0.698499" style="stroke:rgb(246,147,147);stroke-width:0.01" />
<line x1="1.06114" y1="0.605596" x2="0.437021" y2="0.823578" style="stroke:rgb(246,147,147);stroke-width:0.01" />
</g>
</svg>
