<svg xmlns="http://www.w3.org/2000/svg" viewBox="-1.5 -1.5 3 3">
<g transform="scale(1, -1)">
<path d="M-0.049836 -0.310639 L0.109260 -0.283938 L0.301296 0.046523 L0.258580 0.162940 L-0.005360 0.066093 L0.005337 0.156704 L-0.286753 0.191186 L-0.316063 -0.057089 z M-0.013916 -0.006379 L-0.008723 0.037606 L0.006178 -0.003007 z " fill="rgb(245,195,195)" />
<path d="M-0.286753 0.191186 L0.713247 0.191186 L0.713247 1.191186 L-0.286753 1.191186  z" fill="none" stroke="rgb(128,128,128)" stroke-width="0.01" />
<line x1="-0.0498357" y1="-0.310639" x2="0.10926" y2="-0.283938" style="stroke:rgb(246,147,147);stroke-width:0.01" />
<line x1="-0.262817" y1="-0.107799" x2="0.262889" y2="-0.0195689" style="stroke:rgb(246,147,147);stroke-width:0.01" />
<line x1="0.10926" y1="-0.283938" x2="0.301296" y2="0.0465234" style="stroke:rgb(246,147,147);stroke-width:0.01" />
<line x1="-0.316063" y1="-0.0570894" x2="0.301296" y2="0.0465234" style="stroke:rgb(246,147,147);stroke-width:0.01" />
<line x1="-0.017537" y1="0.0616253" x2="0.25858" y2="0.16294" style="stroke:rgb(246,147,147);stroke-width:0.01" />
<line x1="-0.0498357" y1="-0.310639" x2="-0.316063" y2="-0.0570894" style="stroke:rgb(246,147,147);stroke-width:0.01" />
<line x1="-0.0498357" y1="-0.310639" x2="0.00533673" y2="0.156704" style="stroke:rgb(246,147,147);stroke-width:0.01" />
<line x1="-0.262817" y1="-0.107799" x2="-0.228335" y2="0.18429" style="stroke:rgb(246,147,147);stroke-width:0.01" />
<line x1="-0.316063" y1="-0.0570894" x2="-0.286753" y2="0.191186" style="stroke:rgb(246,147,147);stroke-width:0.01" />
<line x1="-0.316063" y1="-0.0570894" x2="-0.286753" y2="0.191186" style="stroke:rgb(246,147,147);stroke-width:0.01" />
<line x1="0.00533673" y1="0.156704" x2="-0.286753" y2="0.191186" style="stroke:rgb(246,147,147);stroke-width:0.01" />
<line x1="-0.286753" y1="0.191186" x2="-0.286753" y2="0.191186" style="stroke:rgb(246,147,147);stroke-width:0.01" />
<line x1="0.10926" y1="-0.283938" x2="-0.017537" y2="0.0616253" style="stroke:rgb(246,147,147);stroke-width:0.01" />
<line x1="0.262889" y1="-0.0195689" x2="0.203356" y2="0.142677" style="stroke:rgb(246,147,147);stroke-width:0.01" />
<line x1="0.301296" y1="0.0465234" x2="0.25858" y2="0.16294" style="stroke:rgb(246,147,147);stroke-width:0.01" />
</g>
</svg>
