<svg xmlns="http://www.w3.org/2000/svg" viewBox="-1.5 -1.5 3 3">
<g transform="scale(1, -1)">
<path d="M-10.455696 3.345736 L-10.347028 3.352400 L-10.296781 3.416799 L-10.200655 3.459785 L-10.113392 3.651842 L-9.890047 3.938096 L-9.958916 3.991830 L-9.907331 4.105362 L-10.379228 4.319773 L-10.678459 4.553243 L-10.734629 4.481252 z " fill="rgb(245,195,195)" />
<path d="M0.000000 0.000000 L1.000000 0.000000 L1.000000 1.000000 L0.000000 1.000000  z" fill="none" stroke="rgb(128,128,128)" stroke-width="0.01" />
<line x1="-10.347" y1="3.3524" x2="-10.4933" y2="3.49875" style="stroke:rgb(246,147,147);stroke-width:0.01" />
<line x1="-9.89005" y1="3.9381" x2="-10.6785" y2="4.55324" style="stroke:rgb(246,147,147);stroke-width:0.01" />
<line x1="-10.4557" y1="3.34574" x2="-10.7346" y2="4.48125" style="stroke:rgb(246,147,147);stroke-width:0.01" />
<line x1="-9.90733" y1="4.10536" x2="-10.7346" y2="4.48125" style="stroke:rgb(246,147,147);stroke-width:0.01" />
<line x1="-10.2007" y1="3.45978" x2="-10.4783" y2="3.54667" style="stroke:rgb(246,147,147);stroke-width:0.01" />
<line x1="-10.4933" y1="3.49875" x2="-10.4783" y2="3.54667" style="stroke:rgb(246,147,147);stroke-width:0.01" />
<line x1="-10.4557" y1="3.34574" x2="-10.347" y2="3.3524" style="stroke:rgb(246,147,147);stroke-width:0.01" />
<line x1="-10.2007" y1="3.45978" x2="-9.90733" y2="4.10536" style="stroke:rgb(246,147,147);stroke-width:0.01" />
<line x1="-10.347" y1="3.3524" x2="-9.89005" y2="3.9381" style="stroke:rgb(246,147,147);stroke-width:0.01" />
<line x1="-10.4557" y1="3.34574" x2="-10.2007" y2="3.45978" style="stroke:rgb(246,147,147);stroke-width:0.01" />
<line x1="-10.7346" y1="4.48125" x2="-10.6785" y2="4.55324" style="stroke:rgb(246,147,147);stroke-width:0.01" />
</g>
</svg>
