<svg xmlns="http://www.w3.org/2000/svg" viewBox="-1.5 -1.5 3 3">
<g transform="scale(1, -1)">
<path d="M-0.221221 -0.232527 L-0.063139 -0.177610 L-0.088625 -0.026585 L0.406503 -0.110832 L0.483153 0.014456 L0.363831 0.087456 L0.297728 0.394622 L-0.156269 0.374272 L-0.432746 0.031968 L-0.348915 -0.177610 L-0.240299 -0.177610 z " fill="rgb(245,195,195)" />
<path d="M-0.895790 -0.177610 L0.104210 -0.177610 L0.104210 0.822390 L-0.895790 0.822390  z" fill="none" stroke="rgb(128,128,128)" stroke-width="0.01" />
<line x1="0.406503" y1="-0.110832" x2="0.483153" y2="0.0144559" style="stroke:rgb(246,147,147);stroke-width:0.01" />
<line x1="-0.348915" y1="-0.17761" x2="-0.102708" y2="0.0568727" style="stroke:rgb(246,147,147);stroke-width:0.01" />
<line x1="-0.221221" y1="-0.232527" x2="-0.0631392" y2="-0.17761" style="stroke:rgb(246,147,147);stroke-width:0.01" />
<line x1="-0.291037" y1="0.142485" x2="-0.223519" y2="0.291011" style="stroke:rgb(246,147,147);stroke-width:0.01" />
<line x1="-0.432746" y1="0.0319677" x2="-0.156269" y2="0.374272" style="stroke:rgb(246,147,147);stroke-width:0.01" />
<line x1="0.256698" y1="0.0610368" x2="0.297728" y2="0.394622" style="stroke:rgb(246,147,147);stroke-width:0.01" />
<line x1="-0.223519" y1="0.291011" x2="-0.108485" y2="0.376414" style="stroke:rgb(246,147,147);stroke-width:0.01" />
<line x1="-0.348915" y1="-0.17761" x2="-0.0631392" y2="-0.17761" style="stroke:rgb(246,147,147);stroke-width:0.01" />
<line x1="-0.0631392" y1="-0.17761" x2="-0.156269" y2="0.374272" style="stroke:rgb(246,147,147);stroke-width:0.01" />
<line x1="-0.348915" y1="-0.17761" x2="-0.432746" y2="0.0319677" style="stroke:rgb(246,147,147);stroke-width:0.01" />
<line x1="-0.221221" y1="-0.232527" x2="-0.349087" y2="0.135546" style="stroke:rgb(246,147,147);stroke-width:0.01" />
<line x1="0.406503" y1="-0.110832" x2="0.297728" y2="0.394622" style="stroke:rgb(246,147,147);stroke-width:0.01" />
<line x1="0.406503" y1="-0.110832" x2="-0.432746" y2="0.0319677" style="stroke:rgb(246,147,147);stroke-width:0.01" />
<line x1="0.256698" y1="0.0610368" x2="-0.349087" y2="0.135546" style="stroke:rgb(246,147,147);stroke-width:0.01" />
<line x1="-0.102708" y1="0.0568727" x2="-0.291037" y2="0.142485" style="stroke:rgb(246,147,147);stroke-width:0.01" />
<line x1="-0.156269" y1="0.374272" x2="0.297728" y2="0.394622" style="stroke:rgb(246,147,147);stroke-width:0.01" />
<line x1="0.483153" y1="0.0144559" x2="-0.108485" y2="0.376414" style="stroke:rgb(246,147,147);stroke-width:0.01" />
</g>
</svg>
