<svg xmlns="http://www.w3.org/2000/svg" viewBox="-1.5 -1.5 3 3">
<g transform="scale(1, -1)">
<path d="M0.188242 -0.239810 L0.268774 -0.145512 L0.054980 0.037070 L0.139202 0.072162 L0.026080 0.343656 L-0.204690 0.247502 L-0.295187 -0.108833 L-0.193928 -0.234415 z M0.000408 -0.006859 L-0.012382 0.009002 L0.028502 0.026037 z " fill="rgb(245,195,195)" />
<path d="M0.026080 0.343656 L1.026080 0.343656 L1.026080 1.343656 L0.026080 1.343656  z" fill="none" stroke="rgb(128,128,128)" stroke-width="0.01" />
<line x1="0.188242" y1="-0.23981" x2="-0.193928" y2="-0.234415" style="stroke:rgb(246,147,147);stroke-width:0.01" />
<line x1="-0.193928" y1="-0.234415" x2="-0.295187" y2="-0.108833" style="stroke:rgb(246,147,147);stroke-width:0.01" />
<line x1="0.188242" y1="-0.23981" x2="0.268774" y2="-0.145512" style="stroke:rgb(246,147,147);stroke-width:0.01" />
<line x1="0.111808" y1="-0.238731" x2="0.224042" y2="-0.107311" style="stroke:rgb(246,147,147);stroke-width:0.01" />
<line x1="-0.295187" y1="-0.108833" x2="0.139202" y2="0.0721623" style="stroke:rgb(246,147,147);stroke-width:0.01" />
<line x1="0.111808" y1="-0.238731" x2="-0.222789" y2="0.176235" style="stroke:rgb(246,147,147);stroke-width:0.01" />
<line x1="0.268774" y1="-0.145512" x2="0.0451173" y2="0.0454934" style="stroke:rgb(246,147,147);stroke-width:0.01" />
<line x1="0.188242" y1="-0.23981" x2="-0.20469" y2="0.247502" style="stroke:rgb(246,147,147);stroke-width:0.01" />
<line x1="-0.193928" y1="-0.234415" x2="0.0451173" y2="0.0454934" style="stroke:rgb(246,147,147);stroke-width:0.01" />
<line x1="-0.222789" y1="0.176235" x2="0.0487041" y2="0.289357" style="stroke:rgb(246,147,147);stroke-width:0.01" />
<line x1="-0.20469" y1="0.247502" x2="0.0260796" y2="0.343656" style="stroke:rgb(246,147,147);stroke-width:0.01" />
<line x1="-0.20469" y1="0.247502" x2="0.0260796" y2="0.343656" style="stroke:rgb(246,147,147);stroke-width:0.01" />
<line x1="0.139202" y1="0.0721623" x2="0.0260796" y2="0.343656" style="stroke:rgb(246,147,147);stroke-width:0.01" />
<line x1="0.0260796" y1="0.343656" x2="0.0260796" y2="0.343656" style="stroke:rgb(246,147,147);stroke-width:0.01" />
<line x1="-0.295187" y1="-0.108833" x2="-0.20469" y2="0.247502" style="stroke:rgb(246,147,147);stroke-width:0.01" />
</g>
</svg>
