<svg xmlns="http://www.w3.org/2000/svg" viewBox="-1.5 -1.5 3 3">
<g transform="scale(1, -1)">
<path d="M-0.298223 -0.457437 L-0.249462 -0.180550 L-0.176471 -0.235294 L-0.000000 -0.000000 L-0.200000 0.150000 L-0.552941 0.047059 L-0.609726 -0.103937 L-0.420350 -0.435930 z M-0.272411 -0.163339 L-0.315015 -0.155836 L-0.307843 -0.136765 z " fill="rgb(245,195,195)" />
<path d="M0.000000 0.000000 L1.000000 0.000000 L1.000000 1.000000 L0.000000 1.000000  z" fill="none" stroke="rgb(128,128,128)" stroke-width="0.01" />
<line x1="-0.298223" y1="-0.457437" x2="-0.42035" y2="-0.43593" style="stroke:rgb(246,147,147);stroke-width:0.01" />
<line x1="-0.288021" y1="-0.399505" x2="-0.458225" y2="-0.369531" style="stroke:rgb(246,147,147);stroke-width:0.01" />
<line x1="-0.42035" y1="-0.43593" x2="-0.609726" y2="-0.103937" style="stroke:rgb(246,147,147);stroke-width:0.01" />
<line x1="-0.176471" y1="-0.235294" x2="-0.552941" y2="0.0470588" style="stroke:rgb(246,147,147);stroke-width:0.01" />
<line x1="-0.247213" y1="-0.167776" x2="-0.609726" y2="-0.103937" style="stroke:rgb(246,147,147);stroke-width:0.01" />
<line x1="-0.0352941" y1="-0.0470588" x2="-0.270588" y2="0.129412" style="stroke:rgb(246,147,147);stroke-width:0.01" />
<line x1="-1.91612e-22" y1="-2.55482e-22" x2="-0.2" y2="0.15" style="stroke:rgb(246,147,147);stroke-width:0.01" />
<line x1="-9.58058e-23" y1="-1.27741e-22" x2="-0.2" y2="0.15" style="stroke:rgb(246,147,147);stroke-width:0.01" />
<line x1="-1.91612e-22" y1="-2.55482e-22" x2="-9.58058e-23" y2="-1.27741e-22" style="stroke:rgb(246,147,147);stroke-width:0.01" />
<line x1="-0.176471" y1="-0.235294" x2="-9.58058e-23" y2="-1.27741e-22" style="stroke:rgb(246,147,147);stroke-width:0.01" />
<line x1="-0.298223" y1="-0.457437" x2="-0.247213" y2="-0.167776" style="stroke:rgb(246,147,147);stroke-width:0.01" />
<line x1="-0.42035" y1="-0.43593" x2="-0.2" y2="0.15" style="stroke:rgb(246,147,147);stroke-width:0.01" />
<line x1="-0.458225" y1="-0.369531" x2="-0.270588" y2="0.129412" style="stroke:rgb(246,147,147);stroke-width:0.01" />
<line x1="-0.609726" y1="-0.103937" x2="-0.552941" y2="0.0470588" style="stroke:rgb(246,147,147);stroke-width:0.01" />
<line x1="-0.552941" y1="0.0470588" x2="-0.2" y2="0.15" style="stroke:rgb(246,147,147);stroke-width:0.01" />
</g>
</svg>
