<svg xmlns="http://www.w3.org/2000/svg" viewBox="-1.5 -1.5 3 3">
<g transform="scale(1, -1)">
<path d="M0.011090 -0.305434 L0.059850 -0.028548 L0.132842 -0.083291 L0.309313 0.152003 L0.109313 0.302003 L-0.243628 0.199062 L-0.300413 0.048066 L-0.111037 -0.283927 z M0.036902 -0.011336 L-0.005702 -0.003834 L0.001470 0.015238 z " fill="rgb(245,195,195)" />
<path d="M0.309313 0.152003 L1.309313 0.152003 L1.309313 1.152003 L0.309313 1.152003  z" fill="none" stroke="rgb(128,128,128)" stroke-width="0.01" />
<line x1="0.0110903" y1="-0.305434" x2="-0.111037" y2="-0.283927" style="stroke:rgb(246,147,147);stroke-width:0.01" />
<line x1="0.0212922" y1="-0.247502" x2="-0.148912" y2="-0.217529" style="stroke:rgb(246,147,147);stroke-width:0.01" />
<line x1="-0.111037" y1="-0.283927" x2="-0.300413" y2="0.0480655" style="stroke:rgb(246,147,147);stroke-width:0.01" />
<line x1="0.132842" y1="-0.0832914" x2="-0.243628" y2="0.199062" style="stroke:rgb(246,147,147);stroke-width:0.01" />
<line x1="0.0621" y1="-0.0157737" x2="-0.300413" y2="0.0480655" style="stroke:rgb(246,147,147);stroke-width:0.01" />
<line x1="0.274019" y1="0.104944" x2="0.0387247" y2="0.281414" style="stroke:rgb(246,147,147);stroke-width:0.01" />
<line x1="0.309313" y1="0.152003" x2="0.109313" y2="0.302003" style="stroke:rgb(246,147,147);stroke-width:0.01" />
<line x1="0.309313" y1="0.152003" x2="0.109313" y2="0.302003" style="stroke:rgb(246,147,147);stroke-width:0.01" />
<line x1="0.309313" y1="0.152003" x2="0.309313" y2="0.152003" style="stroke:rgb(246,147,147);stroke-width:0.01" />
<line x1="0.132842" y1="-0.0832914" x2="0.309313" y2="0.152003" style="stroke:rgb(246,147,147);stroke-width:0.01" />
<line x1="0.0110903" y1="-0.305434" x2="0.0621" y2="-0.0157737" style="stroke:rgb(246,147,147);stroke-width:0.01" />
<line x1="-0.111037" y1="-0.283927" x2="0.109313" y2="0.302003" style="stroke:rgb(246,147,147);stroke-width:0.01" />
<line x1="-0.148912" y1="-0.217529" x2="0.0387247" y2="0.281414" style="stroke:rgb(246,147,147);stroke-width:0.01" />
<line x1="-0.300413" y1="0.0480655" x2="-0.243628" y2="0.199062" style="stroke:rgb(246,147,147);stroke-width:0.01" />
<line x1="-0.243628" y1="0.199062" x2="0.109313" y2="0.302003" style="stroke:rgb(246,147,147);stroke-width:0.01" />
</g>
</svg>
