<svg xmlns="http://www.w3.org/2000/svg" viewBox="-1.5 -1.5 3 3">
<g transform="scale(1, -1)">
<path d="M-0.195221 -0.586905 L0.186833 -0.576040 L0.263281 -0.478402 L0.041915 -0.305079 L0.124567 -0.266436 L0.000000 -0.000000 L-0.226471 -0.105882 L-0.301730 -0.465744 z M-0.010740 -0.351289 L-0.024193 -0.335986 L0.015929 -0.317228 z " fill="rgb(245,195,195)" />
<path d="M0.000000 0.000000 L1.000000 0.000000 L1.000000 1.000000 L0.000000 1.000000  z" fill="none" stroke="rgb(128,128,128)" stroke-width="0.01" />
<line x1="-0.195221" y1="-0.586905" x2="0.186833" y2="-0.57604" style="stroke:rgb(246,147,147);stroke-width:0.01" />
<line x1="-0.195221" y1="-0.586905" x2="-0.30173" y2="-0.465744" style="stroke:rgb(246,147,147);stroke-width:0.01" />
<line x1="0.186833" y1="-0.57604" x2="0.263281" y2="-0.478402" style="stroke:rgb(246,147,147);stroke-width:0.01" />
<line x1="0.110422" y1="-0.578213" x2="0.216965" y2="-0.442138" style="stroke:rgb(246,147,147);stroke-width:0.01" />
<line x1="-0.30173" y1="-0.465744" x2="0.124567" y2="-0.266436" style="stroke:rgb(246,147,147);stroke-width:0.01" />
<line x1="0.110422" y1="-0.578213" x2="-0.241522" y2="-0.177855" style="stroke:rgb(246,147,147);stroke-width:0.01" />
<line x1="0.263281" y1="-0.478402" x2="0.0317025" y2="-0.297083" style="stroke:rgb(246,147,147);stroke-width:0.01" />
<line x1="0.186833" y1="-0.57604" x2="-0.226471" y2="-0.105882" style="stroke:rgb(246,147,147);stroke-width:0.01" />
<line x1="-0.195221" y1="-0.586905" x2="0.0317025" y2="-0.297083" style="stroke:rgb(246,147,147);stroke-width:0.01" />
<line x1="-0.241522" y1="-0.177855" x2="0.0249135" y2="-0.0532872" style="stroke:rgb(246,147,147);stroke-width:0.01" />
<line x1="-0.226471" y1="-0.105882" x2="1.68202e-22" y2="-3.59765e-22" style="stroke:rgb(246,147,147);stroke-width:0.01" />
<line x1="-0.226471" y1="-0.105882" x2="8.4101e-23" y2="-1.79883e-22" style="stroke:rgb(246,147,147);stroke-width:0.01" />
<line x1="0.124567" y1="-0.266436" x2="8.4101e-23" y2="-1.79883e-22" style="stroke:rgb(246,147,147);stroke-width:0.01" />
<line x1="1.68202e-22" y1="-3.59765e-22" x2="8.4101e-23" y2="-1.79883e-22" style="stroke:rgb(246,147,147);stroke-width:0.01" />
<line x1="-0.30173" y1="-0.465744" x2="-0.226471" y2="-0.105882" style="stroke:rgb(246,147,147);stroke-width:0.01" />
</g>
</svg>
