<svg xmlns="http://www.w3.org/2000/svg" viewBox="-1.5 -1.5 3 3">
<g transform="scale(1, -1)">
<path d="M-0.060968 0.173387 L0.138175 1.240223 L-0.197192 1.424068 L-0.204699 1.432805 L-0.207983 1.429983 L-0.166416 1.032470 L-0.103818 0.763981 L-0.106514 0.721562 L-0.165663 0.184927 z " fill="rgb(245,195,195)" />
<path d="M0.000000 0.000000 L1.000000 0.000000 L1.000000 1.000000 L0.000000 1.000000  z" fill="none" stroke="rgb(128,128,128)" stroke-width="0.01" />
<line x1="-0.120254" y1="0.189114" x2="-0.138124" y2="0.224189" style="stroke:rgb(246,147,147);stroke-width:0.01" />
<line x1="-0.166416" y1="1.03247" x2="-0.207983" y2="1.42998" style="stroke:rgb(246,147,147);stroke-width:0.01" />
<line x1="0" y1="0.5" x2="0" y2="1" style="stroke:rgb(246,147,147);stroke-width:0.01" />
<line x1="-0.166416" y1="1.03247" x2="-0.159231" y2="1.37989" style="stroke:rgb(246,147,147);stroke-width:0.01" />
<line x1="-0.138124" y1="0.224189" x2="-0.0753574" y2="1.21179" style="stroke:rgb(246,147,147);stroke-width:0.01" />
<line x1="-0.0187957" y1="0.399309" x2="-0.166416" y2="1.03247" style="stroke:rgb(246,147,147);stroke-width:0.01" />
<line x1="-0.0609678" y1="0.173387" x2="0.138175" y2="1.24022" style="stroke:rgb(246,147,147);stroke-width:0.01" />
<line x1="-0.165663" y1="0.184927" x2="-0.056104" y2="1.17891" style="stroke:rgb(246,147,147);stroke-width:0.01" />
<line x1="-0.120254" y1="0.189114" x2="0" y2="0.5" style="stroke:rgb(246,147,147);stroke-width:0.01" />
<line x1="-0.138124" y1="0.224189" x2="-0.0187957" y2="0.399309" style="stroke:rgb(246,147,147);stroke-width:0.01" />
<line x1="-0.0609678" y1="0.173387" x2="-0.120254" y2="0.189114" style="stroke:rgb(246,147,147);stroke-width:0.01" />
<line x1="-0.0609678" y1="0.173387" x2="-0.165663" y2="0.184927" style="stroke:rgb(246,147,147);stroke-width:0.01" />
<line x1="-0.159231" y1="1.37989" x2="-0.204699" y2="1.4328" style="stroke:rgb(246,147,147);stroke-width:0.01" />
<line x1="-0.198363" y1="1.33798" x2="-0.159231" y2="1.37989" style="stroke:rgb(246,147,147);stroke-width:0.01" />
<line x1="0.115383" y1="1.11812" x2="-0.198363" y2="1.33798" style="stroke:rgb(246,147,147);stroke-width:0.01" />
<line x1="0.0933333" y1="1" x2="-0.0844473" y2="1.06877" style="stroke:rgb(246,147,147);stroke-width:0.01" />
<line x1="-0.207983" y1="1.42998" x2="-0.204699" y2="1.4328" style="stroke:rgb(246,147,147);stroke-width:0.01" />
<line x1="0" y1="1" x2="0.0933333" y2="1" style="stroke:rgb(246,147,147);stroke-width:0.01" />
<line x1="0.138175" y1="1.24022" x2="-0.207983" y2="1.42998" style="stroke:rgb(246,147,147);stroke-width:0.01" />
<line x1="-0.0844473" y1="1.06877" x2="0.115383" y2="1.11812" style="stroke:rgb(246,147,147);stroke-width:0.01" />
<line x1="0.123043" y1="1.15916" x2="-0.0753574" y2="1.21179" style="stroke:rgb(246,147,147);stroke-width:0.01" />
<line x1="0.123043" y1="1.15916" x2="-0.056104" y2="1.17891" style="stroke:rgb(246,147,147);stroke-width:0.01" />
<line x1="-0.0753574" y1="1.21179" x2="0.138175" y2="1.24022" style="stroke:rgb(246,147,147);stroke-width:0.01" />
</g>
</svg>
