<svg xmlns="http://www.w3.org/2000/svg" viewBox="-1.5 -1.5 3 3">
<g transform="scale(1, -1)">
<path d="M0.570717 -0.053038 L0.719386 -0.034988 L0.851517 0.116019 L0.840708 0.264381 L0.715717 0.262841 L0.717626 0.107921 L0.545958 0.097538 L0.481091 0.492031 L0.362193 0.472480 L0.360000 0.480000 L0.298065 0.461935 L0.383085 0.087687 z " fill="rgb(245,195,195)" />
<path d="M0.000000 0.000000 L1.000000 0.000000 L1.000000 1.000000 L0.000000 1.000000  z" fill="none" stroke="rgb(128,128,128)" stroke-width="0.01" />
<line x1="0.719386" y1="-0.0349879" x2="0.851517" y2="0.116019" style="stroke:rgb(246,147,147);stroke-width:0.01" />
<line x1="0.570717" y1="-0.053038" x2="0.719386" y2="-0.0349879" style="stroke:rgb(246,147,147);stroke-width:0.01" />
<line x1="0.5" y1="0" x2="0.75" y2="0" style="stroke:rgb(246,147,147);stroke-width:0.01" />
<line x1="0.719386" y1="-0.0349879" x2="0.715717" y2="0.262841" style="stroke:rgb(246,147,147);stroke-width:0.01" />
<line x1="0.851517" y1="0.116019" x2="0.840708" y2="0.264381" style="stroke:rgb(246,147,147);stroke-width:0.01" />
<line x1="0.383085" y1="0.0876866" x2="0.851517" y2="0.116019" style="stroke:rgb(246,147,147);stroke-width:0.01" />
<line x1="0.383085" y1="0.0876866" x2="0.298065" y2="0.461935" style="stroke:rgb(246,147,147);stroke-width:0.01" />
<line x1="0.570717" y1="-0.053038" x2="0.481091" y2="0.492031" style="stroke:rgb(246,147,147);stroke-width:0.01" />
<line x1="0.75" y1="0" x2="0.716814" y2="0.247788" style="stroke:rgb(246,147,147);stroke-width:0.01" />
<line x1="0.5" y1="0" x2="0.36" y2="0.48" style="stroke:rgb(246,147,147);stroke-width:0.01" />
<line x1="0.716814" y1="0.247788" x2="0.840708" y2="0.264381" style="stroke:rgb(246,147,147);stroke-width:0.01" />
<line x1="0.570717" y1="-0.053038" x2="0.383085" y2="0.0876866" style="stroke:rgb(246,147,147);stroke-width:0.01" />
<line x1="0.715717" y1="0.262841" x2="0.840708" y2="0.264381" style="stroke:rgb(246,147,147);stroke-width:0.01" />
<line x1="0.298065" y1="0.461935" x2="0.36" y2="0.48" style="stroke:rgb(246,147,147);stroke-width:0.01" />
<line x1="0.298065" y1="0.461935" x2="0.481091" y2="0.492031" style="stroke:rgb(246,147,147);stroke-width:0.01" />
</g>
</svg>
