<svg xmlns="http://www.w3.org/2000/svg" viewBox="-1.5 -1.5 3 3">
<g transform="scale(1, -1)">
<path d="M0.000212 -0.282605 L0.148881 -0.264555 L0.281012 -0.113548 L0.270203 0.034813 L0.145212 0.033274 L0.147120 -0.121646 L-0.024547 -0.132029 L-0.089415 0.262464 L-0.208312 0.242913 L-0.210505 0.250433 L-0.272441 0.232368 L-0.187421 -0.141881 z " fill="rgb(245,195,195)" />
<path d="M-0.570505 -0.229567 L0.429495 -0.229567 L0.429495 0.770433 L-0.570505 0.770433  z" fill="none" stroke="rgb(128,128,128)" stroke-width="0.01" />
<line x1="0.148881" y1="-0.264555" x2="0.281012" y2="-0.113548" style="stroke:rgb(246,147,147);stroke-width:0.01" />
<line x1="0.000212175" y1="-0.282605" x2="0.148881" y2="-0.264555" style="stroke:rgb(246,147,147);stroke-width:0.01" />
<line x1="-0.0705051" y1="-0.229567" x2="0.179495" y2="-0.229567" style="stroke:rgb(246,147,147);stroke-width:0.01" />
<line x1="0.148881" y1="-0.264555" x2="0.145212" y2="0.0332739" style="stroke:rgb(246,147,147);stroke-width:0.01" />
<line x1="0.281012" y1="-0.113548" x2="0.270203" y2="0.0348133" style="stroke:rgb(246,147,147);stroke-width:0.01" />
<line x1="-0.187421" y1="-0.141881" x2="0.281012" y2="-0.113548" style="stroke:rgb(246,147,147);stroke-width:0.01" />
<line x1="-0.187421" y1="-0.141881" x2="-0.272441" y2="0.232368" style="stroke:rgb(246,147,147);stroke-width:0.01" />
<line x1="0.000212175" y1="-0.282605" x2="-0.0894145" y2="0.262464" style="stroke:rgb(246,147,147);stroke-width:0.01" />
<line x1="0.179495" y1="-0.229567" x2="0.146309" y2="0.0182204" style="stroke:rgb(246,147,147);stroke-width:0.01" />
<line x1="-0.0705051" y1="-0.229567" x2="-0.210505" y2="0.250433" style="stroke:rgb(246,147,147);stroke-width:0.01" />
<line x1="0.146309" y1="0.0182204" x2="0.270203" y2="0.0348133" style="stroke:rgb(246,147,147);stroke-width:0.01" />
<line x1="0.000212175" y1="-0.282605" x2="-0.187421" y2="-0.141881" style="stroke:rgb(246,147,147);stroke-width:0.01" />
<line x1="0.145212" y1="0.0332739" x2="0.270203" y2="0.0348133" style="stroke:rgb(246,147,147);stroke-width:0.01" />
<line x1="-0.272441" y1="0.232368" x2="-0.210505" y2="0.250433" style="stroke:rgb(246,147,147);stroke-width:0.01" />
<line x1="-0.272441" y1="0.232368" x2="-0.0894145" y2="0.262464" style="stroke:rgb(246,147,147);stroke-width:0.01" />
</g>
</svg>
