<svg xmlns="http://www.w3.org/2000/svg" viewBox="-1.5 -1.5 3 3">
<g transform="scale(1, -1)">
<path d="M-0.004210 -0.316793 L0.176868 -0.222726 L0.288665 -0.081857 L0.195444 0.001419 L0.019858 -0.195137 L0.030316 -0.142275 L-0.046822 0.314602 L-0.161411 0.295255 L-0.163597 0.302747 L-0.227597 0.284080 L-0.107514 -0.239315 z " fill="rgb(245,195,195)" />
<path d="M-0.643597 -0.337253 L0.356403 -0.337253 L0.356403 0.662747 L-0.643597 0.662747  z" fill="none" stroke="rgb(128,128,128)" stroke-width="0.01" />
<line x1="0.176868" y1="-0.222726" x2="0.288665" y2="-0.0818572" style="stroke:rgb(246,147,147);stroke-width:0.01" />
<line x1="-0.0205866" y1="-0.304511" x2="0.00440335" y2="-0.273253" style="stroke:rgb(246,147,147);stroke-width:0.01" />
<line x1="-0.0205866" y1="-0.304511" x2="0.186394" y2="-0.00998508" style="stroke:rgb(246,147,147);stroke-width:0.01" />
<line x1="-0.0548747" y1="-0.278794" x2="0.195444" y2="0.00141863" style="stroke:rgb(246,147,147);stroke-width:0.01" />
<line x1="-0.0548747" y1="-0.278794" x2="0.0303159" y2="-0.142275" style="stroke:rgb(246,147,147);stroke-width:0.01" />
<line x1="-0.00421046" y1="-0.316793" x2="0.176868" y2="-0.222726" style="stroke:rgb(246,147,147);stroke-width:0.01" />
<line x1="-0.00421046" y1="-0.316793" x2="0.0303159" y2="-0.142275" style="stroke:rgb(246,147,147);stroke-width:0.01" />
<line x1="-0.107514" y1="-0.239315" x2="0.176868" y2="-0.222726" style="stroke:rgb(246,147,147);stroke-width:0.01" />
<line x1="0.0303159" y1="-0.142275" x2="-0.0468218" y2="0.314602" style="stroke:rgb(246,147,147);stroke-width:0.01" />
<line x1="-0.107514" y1="-0.239315" x2="-0.227597" y2="0.28408" style="stroke:rgb(246,147,147);stroke-width:0.01" />
<line x1="0.00440335" y1="-0.273253" x2="-0.163597" y2="0.302747" style="stroke:rgb(246,147,147);stroke-width:0.01" />
<line x1="-0.00421046" y1="-0.316793" x2="-0.107514" y2="-0.239315" style="stroke:rgb(246,147,147);stroke-width:0.01" />
<line x1="-0.227597" y1="0.28408" x2="-0.163597" y2="0.302747" style="stroke:rgb(246,147,147);stroke-width:0.01" />
<line x1="-0.227597" y1="0.28408" x2="-0.0468218" y2="0.314602" style="stroke:rgb(246,147,147);stroke-width:0.01" />
<line x1="0.288665" y1="-0.0818572" x2="0.195444" y2="0.00141863" style="stroke:rgb(246,147,147);stroke-width:0.01" />
<line x1="0.288665" y1="-0.0818572" x2="0.186394" y2="-0.00998508" style="stroke:rgb(246,147,147);stroke-width:0.01" />
</g>
</svg>
