<svg xmlns="http://www.w3.org/2000/svg" viewBox="-1.5 -1.5 3 3">
<g transform="scale(1, -1)">
<path d="M0.639386 0.020460 L0.820465 0.114527 L0.932262 0.255396 L0.839041 0.338672 L0.663454 0.142116 L0.673912 0.194978 L0.596775 0.651855 L0.482185 0.632508 L0.480000 0.640000 L0.416000 0.621333 L0.536082 0.097938 z " fill="rgb(245,195,195)" />
<path d="M0.000000 0.000000 L1.000000 0.000000 L1.000000 1.000000 L0.000000 1.000000  z" fill="none" stroke="rgb(128,128,128)" stroke-width="0.01" />
<line x1="0.820465" y1="0.114527" x2="0.932262" y2="0.255396" style="stroke:rgb(246,147,147);stroke-width:0.01" />
<line x1="0.62301" y1="0.0327424" x2="0.648" y2="0.064" style="stroke:rgb(246,147,147);stroke-width:0.01" />
<line x1="0.62301" y1="0.0327424" x2="0.829991" y2="0.327268" style="stroke:rgb(246,147,147);stroke-width:0.01" />
<line x1="0.588722" y1="0.0584585" x2="0.839041" y2="0.338672" style="stroke:rgb(246,147,147);stroke-width:0.01" />
<line x1="0.588722" y1="0.0584585" x2="0.673912" y2="0.194978" style="stroke:rgb(246,147,147);stroke-width:0.01" />
<line x1="0.639386" y1="0.0204604" x2="0.820465" y2="0.114527" style="stroke:rgb(246,147,147);stroke-width:0.01" />
<line x1="0.639386" y1="0.0204604" x2="0.673912" y2="0.194978" style="stroke:rgb(246,147,147);stroke-width:0.01" />
<line x1="0.536082" y1="0.0979381" x2="0.820465" y2="0.114527" style="stroke:rgb(246,147,147);stroke-width:0.01" />
<line x1="0.673912" y1="0.194978" x2="0.596775" y2="0.651855" style="stroke:rgb(246,147,147);stroke-width:0.01" />
<line x1="0.536082" y1="0.0979381" x2="0.416" y2="0.621333" style="stroke:rgb(246,147,147);stroke-width:0.01" />
<line x1="0.648" y1="0.064" x2="0.48" y2="0.64" style="stroke:rgb(246,147,147);stroke-width:0.01" />
<line x1="0.639386" y1="0.0204604" x2="0.536082" y2="0.0979381" style="stroke:rgb(246,147,147);stroke-width:0.01" />
<line x1="0.416" y1="0.621333" x2="0.48" y2="0.64" style="stroke:rgb(246,147,147);stroke-width:0.01" />
<line x1="0.416" y1="0.621333" x2="0.596775" y2="0.651855" style="stroke:rgb(246,147,147);stroke-width:0.01" />
<line x1="0.932262" y1="0.255396" x2="0.839041" y2="0.338672" style="stroke:rgb(246,147,147);stroke-width:0.01" />
<line x1="0.932262" y1="0.255396" x2="0.829991" y2="0.327268" style="stroke:rgb(246,147,147);stroke-width:0.01" />
</g>
</svg>
