<svg xmlns="http://www.w3.org/2000/svg" viewBox="-1.5 -1.5 3 3">
<g transform="scale(1, -1)">
<path d="M-2.524772 -2.971702 L-1.263587 -2.699997 L-1.210713 -2.615743 L-1.675722 -2.323924 L-1.925633 -2.392093 L-2.095250 -2.324582 L-2.187466 -2.463514 L-2.318156 -2.499163 L-2.589291 -2.931213 z " fill="rgb(245,195,195)" />
<path d="M0.000000 0.000000 L1.000000 0.000000 L1.000000 1.000000 L0.000000 1.000000  z" fill="none" stroke="rgb(128,128,128)" stroke-width="0.01" />
<line x1="-2.52477" y1="-2.9717" x2="-2.58929" y2="-2.93121" style="stroke:rgb(246,147,147);stroke-width:0.01" />
<line x1="-2.25373" y1="-2.53252" x2="-2.31816" y2="-2.49916" style="stroke:rgb(246,147,147);stroke-width:0.01" />
<line x1="-1.43066" y1="-2.5891" x2="-2.12038" y2="-2.46955" style="stroke:rgb(246,147,147);stroke-width:0.01" />
<line x1="-1.93434" y1="-2.67223" x2="-2.22609" y2="-2.47405" style="stroke:rgb(246,147,147);stroke-width:0.01" />
<line x1="-1.43066" y1="-2.5891" x2="-2.09525" y2="-2.32458" style="stroke:rgb(246,147,147);stroke-width:0.01" />
<line x1="-1.6841" y1="-2.34011" x2="-1.70276" y2="-2.3313" style="stroke:rgb(246,147,147);stroke-width:0.01" />
<line x1="-1.26359" y1="-2.7" x2="-1.43066" y2="-2.5891" style="stroke:rgb(246,147,147);stroke-width:0.01" />
<line x1="-1.21071" y1="-2.61574" x2="-1.67572" y2="-2.32392" style="stroke:rgb(246,147,147);stroke-width:0.01" />
<line x1="-2.52477" y1="-2.9717" x2="-1.26359" y2="-2.7" style="stroke:rgb(246,147,147);stroke-width:0.01" />
<line x1="-2.31816" y1="-2.49916" x2="-1.67572" y2="-2.32392" style="stroke:rgb(246,147,147);stroke-width:0.01" />
<line x1="-2.25373" y1="-2.53252" x2="-1.6841" y2="-2.34011" style="stroke:rgb(246,147,147);stroke-width:0.01" />
<line x1="-1.26359" y1="-2.7" x2="-1.21071" y2="-2.61574" style="stroke:rgb(246,147,147);stroke-width:0.01" />
<line x1="-1.93434" y1="-2.67223" x2="-1.70276" y2="-2.3313" style="stroke:rgb(246,147,147);stroke-width:0.01" />
<line x1="-1.6841" y1="-2.34011" x2="-1.67572" y2="-2.32392" style="stroke:rgb(246,147,147);stroke-width:0.01" />
<line x1="-2.52477" y1="-2.9717" x2="-2.09525" y2="-2.32458" style="stroke:rgb(246,147,147);stroke-width:0.01" />
<line x1="-2.12038" y1="-2.46955" x2="-2.09525" y2="-2.32458" style="stroke:rgb(246,147,147);stroke-width:0.01" />
<line x1="-2.58929" y1="-2.93121" x2="-2.31816" y2="-2.49916" style="stroke:rgb(246,147,147);stroke-width:0.01" />
<line x1="-2.25373" y1="-2.53252" x2="-2.22609" y2="-2.47405" style="stroke:rgb(246,147,147);stroke-width:0.01" />
</g>
</svg>
