<svg xmlns="http://www.w3.org/2000/svg" viewBox="-1.5 -1.5 3 3">
<g transform="scale(1, -1)">
<path d="M-0.548040 -0.391488 L0.713145 -0.119783 L0.766019 -0.035528 L0.301010 0.256291 L0.051099 0.188122 L-0.118518 0.255633 L-0.210733 0.116700 L-0.341424 0.081051 L-0.612559 -0.350998 z " fill="rgb(245,195,195)" />
<path d="M1.976732 2.580215 L2.976732 2.580215 L2.976732 3.580215 L1.976732 3.580215  z" fill="none" stroke="rgb(128,128,128)" stroke-width="0.01" />
<line x1="-0.54804" y1="-0.391488" x2="-0.612559" y2="-0.350998" style="stroke:rgb(246,147,147);stroke-width:0.01" />
<line x1="-0.276998" y1="0.047693" x2="-0.341424" y2="0.0810514" style="stroke:rgb(246,147,147);stroke-width:0.01" />
<line x1="0.54607" y1="-0.00888787" x2="-0.143646" y2="0.110661" style="stroke:rgb(246,147,147);stroke-width:0.01" />
<line x1="0.0423928" y1="-0.0920156" x2="-0.249362" y2="0.106163" style="stroke:rgb(246,147,147);stroke-width:0.01" />
<line x1="0.54607" y1="-0.00888787" x2="-0.118518" y2="0.255633" style="stroke:rgb(246,147,147);stroke-width:0.01" />
<line x1="0.292627" y1="0.240101" x2="0.273976" y2="0.248916" style="stroke:rgb(246,147,147);stroke-width:0.01" />
<line x1="0.713145" y1="-0.119783" x2="0.54607" y2="-0.00888787" style="stroke:rgb(246,147,147);stroke-width:0.01" />
<line x1="0.766019" y1="-0.035528" x2="0.30101" y2="0.256291" style="stroke:rgb(246,147,147);stroke-width:0.01" />
<line x1="-0.54804" y1="-0.391488" x2="0.713145" y2="-0.119783" style="stroke:rgb(246,147,147);stroke-width:0.01" />
<line x1="-0.341424" y1="0.0810514" x2="0.30101" y2="0.256291" style="stroke:rgb(246,147,147);stroke-width:0.01" />
<line x1="-0.276998" y1="0.047693" x2="0.292627" y2="0.240101" style="stroke:rgb(246,147,147);stroke-width:0.01" />
<line x1="0.713145" y1="-0.119783" x2="0.766019" y2="-0.035528" style="stroke:rgb(246,147,147);stroke-width:0.01" />
<line x1="0.0423928" y1="-0.0920156" x2="0.273976" y2="0.248916" style="stroke:rgb(246,147,147);stroke-width:0.01" />
<line x1="0.292627" y1="0.240101" x2="0.30101" y2="0.256291" style="stroke:rgb(246,147,147);stroke-width:0.01" />
<line x1="-0.54804" y1="-0.391488" x2="-0.118518" y2="0.255633" style="stroke:rgb(246,147,147);stroke-width:0.01" />
<line x1="-0.143646" y1="0.110661" x2="-0.118518" y2="0.255633" style="stroke:rgb(246,147,147);stroke-width:0.01" />
<line x1="-0.612559" y1="-0.350998" x2="-0.341424" y2="0.0810514" style="stroke:rgb(246,147,147);stroke-width:0.01" />
<line x1="-0.276998" y1="0.047693" x2="-0.249362" y2="0.106163" style="stroke:rgb(246,147,147);stroke-width:0.01" />
</g>
</svg>
