<svg xmlns="http://www.w3.org/2000/svg" viewBox="-1.5 -1.5 3 3">
<g transform="scale(1, -1)">
<path d="M-0.083569 -0.325202 L-0.027634 -0.282444 L0.122662 -0.292060 L0.131038 -0.161151 L0.155753 -0.142258 L0.134062 -0.113883 L0.137778 -0.055804 L0.072131 -0.032866 L0.043113 0.005094 L0.076345 0.037305 L0.015985 0.110186 L0.041296 0.187569 L0.004534 0.217324 L-0.007937 0.382275 L-0.182919 0.369045 L-0.227254 0.226972 L-0.294379 0.171381 L-0.111005 -0.301482 z " fill="rgb(245,195,195)" />
<path d="M-0.687278 -0.560036 L0.312722 -0.560036 L0.312722 0.439964 L-0.687278 0.439964  z" fill="none" stroke="rgb(128,128,128)" stroke-width="0.01" />
<line x1="0.0444627" y1="-0.189769" x2="0.137778" y2="-0.0558042" style="stroke:rgb(246,147,147);stroke-width:0.01" />
<line x1="-0.0835695" y1="-0.325202" x2="0.0311865" y2="-0.11892" style="stroke:rgb(246,147,147);stroke-width:0.01" />
<line x1="0.0350421" y1="-0.186186" x2="0.0461693" y2="-0.17543" style="stroke:rgb(246,147,147);stroke-width:0.01" />
<line x1="-0.120696" y1="-0.27649" x2="0.0311865" y2="-0.11892" style="stroke:rgb(246,147,147);stroke-width:0.01" />
<line x1="-0.0835695" y1="-0.325202" x2="0.155753" y2="-0.142258" style="stroke:rgb(246,147,147);stroke-width:0.01" />
<line x1="-0.0820146" y1="-0.189422" x2="0.0412964" y2="0.187569" style="stroke:rgb(246,147,147);stroke-width:0.01" />
<line x1="-0.165988" y1="-0.159697" x2="-0.0840889" y2="-0.00640903" style="stroke:rgb(246,147,147);stroke-width:0.01" />
<line x1="-0.152704" y1="-0.11478" x2="-0.0840889" y2="-0.00640903" style="stroke:rgb(246,147,147);stroke-width:0.01" />
<line x1="0.0444627" y1="-0.189769" x2="0.0461693" y2="-0.17543" style="stroke:rgb(246,147,147);stroke-width:0.01" />
<line x1="-0.152704" y1="-0.11478" x2="-0.146947" y2="-0.0796541" style="stroke:rgb(246,147,147);stroke-width:0.01" />
<line x1="-0.155311" y1="-0.18723" x2="0.0763447" y2="0.0373045" style="stroke:rgb(246,147,147);stroke-width:0.01" />
<line x1="-0.111005" y1="-0.301482" x2="-0.0688567" y2="0.0539987" style="stroke:rgb(246,147,147);stroke-width:0.01" />
<line x1="-0.266797" y1="0.100257" x2="-0.182919" y2="0.369045" style="stroke:rgb(246,147,147);stroke-width:0.01" />
<line x1="0.122662" y1="-0.29206" x2="0.137778" y2="-0.0558042" style="stroke:rgb(246,147,147);stroke-width:0.01" />
<line x1="-0.260205" y1="0.0832573" x2="-0.254971" y2="0.0929588" style="stroke:rgb(246,147,147);stroke-width:0.01" />
<line x1="-0.0820146" y1="-0.189422" x2="-0.0688567" y2="0.0539987" style="stroke:rgb(246,147,147);stroke-width:0.01" />
<line x1="-0.261008" y1="0.0853277" x2="-0.254971" y2="0.0929588" style="stroke:rgb(246,147,147);stroke-width:0.01" />
<line x1="0.0350421" y1="-0.186186" x2="-0.00793709" y2="0.382275" style="stroke:rgb(246,147,147);stroke-width:0.01" />
<line x1="-0.249587" y1="0.0558774" x2="-0.101338" y2="0.194062" style="stroke:rgb(246,147,147);stroke-width:0.01" />
<line x1="-0.188719" y1="-0.101082" x2="-0.146947" y2="-0.0796541" style="stroke:rgb(246,147,147);stroke-width:0.01" />
<line x1="-0.111005" y1="-0.301482" x2="-0.294379" y2="0.171381" style="stroke:rgb(246,147,147);stroke-width:0.01" />
<line x1="-0.294379" y1="0.171381" x2="-0.140345" y2="0.298949" style="stroke:rgb(246,147,147);stroke-width:0.01" />
<line x1="0.122662" y1="-0.29206" x2="-0.120696" y2="-0.27649" style="stroke:rgb(246,147,147);stroke-width:0.01" />
<line x1="-0.0820146" y1="-0.189422" x2="-0.155311" y2="-0.18723" style="stroke:rgb(246,147,147);stroke-width:0.01" />
<line x1="-0.0835695" y1="-0.325202" x2="-0.111005" y2="-0.301482" style="stroke:rgb(246,147,147);stroke-width:0.01" />
<line x1="-0.0820146" y1="-0.189422" x2="-0.165988" y2="-0.159697" style="stroke:rgb(246,147,147);stroke-width:0.01" />
<line x1="0.155753" y1="-0.142258" x2="-0.101338" y2="0.194062" style="stroke:rgb(246,147,147);stroke-width:0.01" />
<line x1="0.0444627" y1="-0.189769" x2="-0.188719" y2="-0.101082" style="stroke:rgb(246,147,147);stroke-width:0.01" />
<line x1="0.0461693" y1="-0.17543" x2="-0.146947" y2="-0.0796541" style="stroke:rgb(246,147,147);stroke-width:0.01" />
<line x1="0.0763447" y1="0.0373045" x2="-0.140345" y2="0.298949" style="stroke:rgb(246,147,147);stroke-width:0.01" />
<line x1="-0.0688567" y1="0.0539987" x2="-0.249587" y2="0.0558774" style="stroke:rgb(246,147,147);stroke-width:0.01" />
<line x1="0.0311865" y1="-0.11892" x2="-0.254971" y2="0.0929588" style="stroke:rgb(246,147,147);stroke-width:0.01" />
<line x1="-0.0840889" y1="-0.00640903" x2="-0.266797" y2="0.100257" style="stroke:rgb(246,147,147);stroke-width:0.01" />
<line x1="-0.0840889" y1="-0.00640903" x2="-0.254971" y2="0.0929588" style="stroke:rgb(246,147,147);stroke-width:0.01" />
<line x1="-0.0688567" y1="0.0539987" x2="-0.261008" y2="0.0853277" style="stroke:rgb(246,147,147);stroke-width:0.01" />
<line x1="0.137778" y1="-0.0558042" x2="-0.260205" y2="0.0832573" style="stroke:rgb(246,147,147);stroke-width:0.01" />
<line x1="-0.294379" y1="0.171381" x2="0.0412964" y2="0.187569" style="stroke:rgb(246,147,147);stroke-width:0.01" />
<line x1="0.0763447" y1="0.0373045" x2="-0.101338" y2="0.194062" style="stroke:rgb(246,147,147);stroke-width:0.01" />
<line x1="0.0412964" y1="0.187569" x2="-0.182919" y2="0.369045" style="stroke:rgb(246,147,147);stroke-width:0.01" />
<line x1="-0.182919" y1="0.369045" x2="-0.00793709" y2="0.382275" style="stroke:rgb(246,147,147);stroke-width:0.01" />
</g>
</svg>
