<svg xmlns="http://www.w3.org/2000/svg" viewBox="-1.5 -1.5 3 3">
<g transform="scale(1, -1)">
<path d="M-0.320320 -0.388281 L-0.268983 -0.376682 L-0.246067 -0.352476 L-0.222951 -0.270028 L0.120307 -0.276798 L0.454101 0.210677 L0.458659 0.382057 L0.209411 0.553109 L0.156219 0.475601 L0.209182 0.201046 L-0.034791 0.100846 L-0.010573 0.041878 L-0.156599 -0.033378 L-0.347594 -0.267570 z " fill="rgb(245,195,195)" />
<path d="M0.393802 -0.856815 L1.393802 -0.856815 L1.393802 0.143185 L0.393802 0.143185  z" fill="none" stroke="rgb(128,128,128)" stroke-width="0.01" />
<line x1="-0.32032" y1="-0.388281" x2="-0.347594" y2="-0.26757" style="stroke:rgb(246,147,147);stroke-width:0.01" />
<line x1="-0.246067" y1="-0.352476" x2="-0.262144" y2="-0.277533" style="stroke:rgb(246,147,147);stroke-width:0.01" />
<line x1="-0.262144" y1="-0.277533" x2="-0.26472" y2="-0.165952" style="stroke:rgb(246,147,147);stroke-width:0.01" />
<line x1="0.120307" y1="-0.276798" x2="-0.034791" y2="0.100846" style="stroke:rgb(246,147,147);stroke-width:0.01" />
<line x1="0.454101" y1="0.210677" x2="0.458659" y2="0.382057" style="stroke:rgb(246,147,147);stroke-width:0.01" />
<line x1="0.382123" y1="0.105561" x2="0.38161" y2="0.325271" style="stroke:rgb(246,147,147);stroke-width:0.01" />
<line x1="0.393802" y1="0.122616" x2="0.393802" y2="0.143185" style="stroke:rgb(246,147,147);stroke-width:0.01" />
<line x1="0.385231" y1="0.323708" x2="0.384541" y2="0.33679" style="stroke:rgb(246,147,147);stroke-width:0.01" />
<line x1="0.261565" y1="-0.0705036" x2="0.156219" y2="0.475601" style="stroke:rgb(246,147,147);stroke-width:0.01" />
<line x1="-0.262144" y1="-0.277533" x2="-0.23811" y2="-0.133323" style="stroke:rgb(246,147,147);stroke-width:0.01" />
<line x1="-0.268983" y1="-0.376682" x2="-0.225154" y2="-0.117437" style="stroke:rgb(246,147,147);stroke-width:0.01" />
<line x1="0.407886" y1="0.143185" x2="0.370926" y2="0.238484" style="stroke:rgb(246,147,147);stroke-width:0.01" />
<line x1="-0.246067" y1="-0.352476" x2="-0.156599" y2="-0.0333779" style="stroke:rgb(246,147,147);stroke-width:0.01" />
<line x1="0.120307" y1="-0.276798" x2="0.454101" y2="0.210677" style="stroke:rgb(246,147,147);stroke-width:0.01" />
<line x1="0.454101" y1="0.210677" x2="0.385231" y2="0.323708" style="stroke:rgb(246,147,147);stroke-width:0.01" />
<line x1="0.421002" y1="0.16234" x2="0.370926" y2="0.238484" style="stroke:rgb(246,147,147);stroke-width:0.01" />
<line x1="0.156219" y1="0.475601" x2="0.209411" y2="0.553109" style="stroke:rgb(246,147,147);stroke-width:0.01" />
<line x1="-0.268983" y1="-0.376682" x2="-0.246067" y2="-0.352476" style="stroke:rgb(246,147,147);stroke-width:0.01" />
<line x1="0.120307" y1="-0.276798" x2="-0.347594" y2="-0.26757" style="stroke:rgb(246,147,147);stroke-width:0.01" />
<line x1="-0.347594" y1="-0.26757" x2="-0.156599" y2="-0.0333779" style="stroke:rgb(246,147,147);stroke-width:0.01" />
<line x1="-0.32032" y1="-0.388281" x2="-0.268983" y2="-0.376682" style="stroke:rgb(246,147,147);stroke-width:0.01" />
<line x1="-0.26472" y1="-0.165952" x2="0.261565" y2="-0.0705036" style="stroke:rgb(246,147,147);stroke-width:0.01" />
<line x1="0.38161" y1="0.325271" x2="0.156219" y2="0.475601" style="stroke:rgb(246,147,147);stroke-width:0.01" />
<line x1="0.207807" y1="0.208173" x2="0.38161" y2="0.325271" style="stroke:rgb(246,147,147);stroke-width:0.01" />
<line x1="-0.23811" y1="-0.133323" x2="0.382123" y2="0.105561" style="stroke:rgb(246,147,147);stroke-width:0.01" />
<line x1="-0.225154" y1="-0.117437" x2="0.393802" y2="0.122616" style="stroke:rgb(246,147,147);stroke-width:0.01" />
<line x1="0.458659" y1="0.382057" x2="0.209411" y2="0.553109" style="stroke:rgb(246,147,147);stroke-width:0.01" />
<line x1="0.384541" y1="0.33679" x2="0.458659" y2="0.382057" style="stroke:rgb(246,147,147);stroke-width:0.01" />
<line x1="-0.156599" y1="-0.0333779" x2="0.456006" y2="0.282331" style="stroke:rgb(246,147,147);stroke-width:0.01" />
<line x1="0.456006" y1="0.282331" x2="0.385231" y2="0.323708" style="stroke:rgb(246,147,147);stroke-width:0.01" />
<line x1="-0.034791" y1="0.100846" x2="0.456546" y2="0.302638" style="stroke:rgb(246,147,147);stroke-width:0.01" />
<line x1="0.456546" y1="0.302638" x2="0.384541" y2="0.33679" style="stroke:rgb(246,147,147);stroke-width:0.01" />
<line x1="0.421002" y1="0.16234" x2="0.207807" y2="0.208173" style="stroke:rgb(246,147,147);stroke-width:0.01" />
<line x1="0.393802" y1="0.143185" x2="0.407886" y2="0.143185" style="stroke:rgb(246,147,147);stroke-width:0.01" />
</g>
</svg>
