<svg xmlns="http://www.w3.org/2000/svg" viewBox="-1.5 -1.5 3 3">
<g transform="scale(1, -1)">
<path d="M-0.714122 0.468534 L-0.662784 0.480133 L-0.639869 0.504338 L-0.616753 0.586786 L-0.273494 0.580017 L0.060299 1.067492 L0.064857 1.238871 L-0.184391 1.409924 L-0.237583 1.332416 L-0.184620 1.057861 L-0.428593 0.957661 L-0.404374 0.898692 L-0.550401 0.823437 L-0.741396 0.589245 z " fill="rgb(245,195,195)" />
<path d="M0.000000 0.000000 L1.000000 0.000000 L1.000000 1.000000 L0.000000 1.000000  z" fill="none" stroke="rgb(128,128,128)" stroke-width="0.01" />
<line x1="-0.714122" y1="0.468534" x2="-0.741396" y2="0.589245" style="stroke:rgb(246,147,147);stroke-width:0.01" />
<line x1="-0.639869" y1="0.504338" x2="-0.655946" y2="0.579282" style="stroke:rgb(246,147,147);stroke-width:0.01" />
<line x1="-0.655946" y1="0.579282" x2="-0.658522" y2="0.690862" style="stroke:rgb(246,147,147);stroke-width:0.01" />
<line x1="-0.273494" y1="0.580017" x2="-0.428593" y2="0.957661" style="stroke:rgb(246,147,147);stroke-width:0.01" />
<line x1="0.060299" y1="1.06749" x2="0.0648569" y2="1.23887" style="stroke:rgb(246,147,147);stroke-width:0.01" />
<line x1="-0.0116784" y1="0.962376" x2="-0.0121915" y2="1.18209" style="stroke:rgb(246,147,147);stroke-width:0.01" />
<line x1="0" y1="0.979431" x2="0" y2="1" style="stroke:rgb(246,147,147);stroke-width:0.01" />
<line x1="-0.00857077" y1="1.18052" x2="-0.00926085" y2="1.19361" style="stroke:rgb(246,147,147);stroke-width:0.01" />
<line x1="-0.132236" y1="0.786311" x2="-0.237583" y2="1.33242" style="stroke:rgb(246,147,147);stroke-width:0.01" />
<line x1="-0.655946" y1="0.579282" x2="-0.631911" y2="0.723491" style="stroke:rgb(246,147,147);stroke-width:0.01" />
<line x1="-0.662784" y1="0.480133" x2="-0.618956" y2="0.739377" style="stroke:rgb(246,147,147);stroke-width:0.01" />
<line x1="0.0140845" y1="1" x2="-0.022876" y2="1.0953" style="stroke:rgb(246,147,147);stroke-width:0.01" />
<line x1="-0.639869" y1="0.504338" x2="-0.550401" y2="0.823437" style="stroke:rgb(246,147,147);stroke-width:0.01" />
<line x1="-0.273494" y1="0.580017" x2="0.060299" y2="1.06749" style="stroke:rgb(246,147,147);stroke-width:0.01" />
<line x1="0.060299" y1="1.06749" x2="-0.00857077" y2="1.18052" style="stroke:rgb(246,147,147);stroke-width:0.01" />
<line x1="0.0272005" y1="1.01915" x2="-0.022876" y2="1.0953" style="stroke:rgb(246,147,147);stroke-width:0.01" />
<line x1="-0.237583" y1="1.33242" x2="-0.184391" y2="1.40992" style="stroke:rgb(246,147,147);stroke-width:0.01" />
<line x1="-0.662784" y1="0.480133" x2="-0.639869" y2="0.504338" style="stroke:rgb(246,147,147);stroke-width:0.01" />
<line x1="-0.273494" y1="0.580017" x2="-0.741396" y2="0.589245" style="stroke:rgb(246,147,147);stroke-width:0.01" />
<line x1="-0.741396" y1="0.589245" x2="-0.550401" y2="0.823437" style="stroke:rgb(246,147,147);stroke-width:0.01" />
<line x1="-0.714122" y1="0.468534" x2="-0.662784" y2="0.480133" style="stroke:rgb(246,147,147);stroke-width:0.01" />
<line x1="-0.658522" y1="0.690862" x2="-0.132236" y2="0.786311" style="stroke:rgb(246,147,147);stroke-width:0.01" />
<line x1="-0.0121915" y1="1.18209" x2="-0.237583" y2="1.33242" style="stroke:rgb(246,147,147);stroke-width:0.01" />
<line x1="-0.185994" y1="1.06499" x2="-0.0121915" y2="1.18209" style="stroke:rgb(246,147,147);stroke-width:0.01" />
<line x1="-0.631911" y1="0.723491" x2="-0.0116784" y2="0.962376" style="stroke:rgb(246,147,147);stroke-width:0.01" />
<line x1="-0.618956" y1="0.739377" x2="0" y2="0.979431" style="stroke:rgb(246,147,147);stroke-width:0.01" />
<line x1="0.0648569" y1="1.23887" x2="-0.184391" y2="1.40992" style="stroke:rgb(246,147,147);stroke-width:0.01" />
<line x1="-0.00926085" y1="1.19361" x2="0.0648569" y2="1.23887" style="stroke:rgb(246,147,147);stroke-width:0.01" />
<line x1="-0.550401" y1="0.823437" x2="0.0622047" y2="1.13915" style="stroke:rgb(246,147,147);stroke-width:0.01" />
<line x1="0.0622047" y1="1.13915" x2="-0.00857077" y2="1.18052" style="stroke:rgb(246,147,147);stroke-width:0.01" />
<line x1="-0.428593" y1="0.957661" x2="0.0627447" y2="1.15945" style="stroke:rgb(246,147,147);stroke-width:0.01" />
<line x1="0.0627447" y1="1.15945" x2="-0.00926085" y2="1.19361" style="stroke:rgb(246,147,147);stroke-width:0.01" />
<line x1="0.0272005" y1="1.01915" x2="-0.185994" y2="1.06499" style="stroke:rgb(246,147,147);stroke-width:0.01" />
<line x1="0" y1="1" x2="0.0140845" y2="1" style="stroke:rgb(246,147,147);stroke-width:0.01" />
</g>
</svg>
