<svg xmlns="http://www.w3.org/2000/svg" viewBox="-1.5 -1.5 3 3">
<g transform="scale(1, -1)">
<path d="M-0.258064 -0.397610 L0.087831 -0.073333 L0.297388 -0.133357 L0.381816 -0.059266 L0.305858 0.027291 L0.327698 0.035372 L0.263689 0.208370 L0.138478 0.218024 L0.111050 0.249279 L-0.070858 0.149413 L-0.198970 0.183840 L-0.258518 0.046389 L-0.382754 -0.021816 L-0.354711 -0.175647 L-0.389934 -0.256950 z " fill="rgb(245,195,195)" />
<path d="M-0.582742 -0.256950 L0.417258 -0.256950 L0.417258 0.743050 L-0.582742 0.743050  z" fill="none" stroke="rgb(128,128,128)" stroke-width="0.01" />
<line x1="0.297388" y1="-0.133357" x2="0.381816" y2="-0.0592657" style="stroke:rgb(246,147,147);stroke-width:0.01" />
<line x1="0.171344" y1="0.0426083" x2="0.263689" y2="0.20837" style="stroke:rgb(246,147,147);stroke-width:0.01" />
<line x1="-0.258064" y1="-0.39761" x2="0.179658" y2="0.0127549" style="stroke:rgb(246,147,147);stroke-width:0.01" />
<line x1="0.154298" y1="-0.0618456" x2="0.179658" y2="0.0127549" style="stroke:rgb(246,147,147);stroke-width:0.01" />
<line x1="-0.0731694" y1="-0.0345712" x2="0.0181354" y2="0.11805" style="stroke:rgb(246,147,147);stroke-width:0.01" />
<line x1="-0.0731694" y1="-0.0345712" x2="0.0645073" y2="0.223727" style="stroke:rgb(246,147,147);stroke-width:0.01" />
<line x1="-0.12882" y1="-0.25695" x2="0.0181354" y2="0.11805" style="stroke:rgb(246,147,147);stroke-width:0.01" />
<line x1="-0.223985" y1="0.0159818" x2="-0.191028" y2="0.0834403" style="stroke:rgb(246,147,147);stroke-width:0.01" />
<line x1="-0.389934" y1="-0.25695" x2="-0.19897" y2="0.18384" style="stroke:rgb(246,147,147);stroke-width:0.01" />
<line x1="-0.223985" y1="0.0159818" x2="-0.19897" y2="0.18384" style="stroke:rgb(246,147,147);stroke-width:0.01" />
<line x1="-0.172058" y1="-0.149536" x2="0.327698" y2="0.0353717" style="stroke:rgb(246,147,147);stroke-width:0.01" />
<line x1="-0.346885" y1="-0.218573" x2="-0.0287392" y2="-0.160575" style="stroke:rgb(246,147,147);stroke-width:0.01" />
<line x1="-0.389934" y1="-0.25695" x2="-0.12882" y2="-0.25695" style="stroke:rgb(246,147,147);stroke-width:0.01" />
<line x1="-0.0287392" y1="-0.160575" x2="-0.0455073" y2="0.16333" style="stroke:rgb(246,147,147);stroke-width:0.01" />
<line x1="-0.346885" y1="-0.218573" x2="-0.382754" y2="-0.0218158" style="stroke:rgb(246,147,147);stroke-width:0.01" />
<line x1="-0.172058" y1="-0.149536" x2="-0.203627" y2="0.0765235" style="stroke:rgb(246,147,147);stroke-width:0.01" />
<line x1="0.154298" y1="-0.0618456" x2="0.271142" y2="-0.0462281" style="stroke:rgb(246,147,147);stroke-width:0.01" />
<line x1="-0.258064" y1="-0.39761" x2="-0.389934" y2="-0.25695" style="stroke:rgb(246,147,147);stroke-width:0.01" />
<line x1="-0.382754" y1="-0.0218158" x2="0.11105" y2="0.249279" style="stroke:rgb(246,147,147);stroke-width:0.01" />
<line x1="-0.0287392" y1="-0.160575" x2="-0.172058" y2="-0.149536" style="stroke:rgb(246,147,147);stroke-width:0.01" />
<line x1="0.171344" y1="0.0426083" x2="0.11105" y2="0.249279" style="stroke:rgb(246,147,147);stroke-width:0.01" />
<line x1="-0.12882" y1="-0.25695" x2="-0.382754" y2="-0.0218158" style="stroke:rgb(246,147,147);stroke-width:0.01" />
<line x1="0.297388" y1="-0.133357" x2="0.271142" y2="-0.0462281" style="stroke:rgb(246,147,147);stroke-width:0.01" />
<line x1="0.327698" y1="0.0353717" x2="0.263689" y2="0.20837" style="stroke:rgb(246,147,147);stroke-width:0.01" />
<line x1="0.297388" y1="-0.133357" x2="-0.223985" y2="0.0159818" style="stroke:rgb(246,147,147);stroke-width:0.01" />
<line x1="-0.0731694" y1="-0.0345712" x2="-0.223985" y2="0.0159818" style="stroke:rgb(246,147,147);stroke-width:0.01" />
<line x1="0.171344" y1="0.0426083" x2="-0.191028" y2="0.0834403" style="stroke:rgb(246,147,147);stroke-width:0.01" />
<line x1="-0.0731694" y1="-0.0345712" x2="-0.203627" y2="0.0765235" style="stroke:rgb(246,147,147);stroke-width:0.01" />
<line x1="0.154298" y1="-0.0618456" x2="-0.00474571" y2="0.131646" style="stroke:rgb(246,147,147);stroke-width:0.01" />
<line x1="-0.00474571" y1="0.131646" x2="-0.19897" y2="0.18384" style="stroke:rgb(246,147,147);stroke-width:0.01" />
<line x1="0.0181354" y1="0.11805" x2="-0.19897" y2="0.18384" style="stroke:rgb(246,147,147);stroke-width:0.01" />
<line x1="0.263689" y1="0.20837" x2="0.0645073" y2="0.223727" style="stroke:rgb(246,147,147);stroke-width:0.01" />
<line x1="0.0181354" y1="0.11805" x2="-0.0455073" y2="0.16333" style="stroke:rgb(246,147,147);stroke-width:0.01" />
<line x1="0.271142" y1="-0.0462281" x2="-0.00474571" y2="0.131646" style="stroke:rgb(246,147,147);stroke-width:0.01" />
<line x1="0.381816" y1="-0.0592657" x2="0.11105" y2="0.249279" style="stroke:rgb(246,147,147);stroke-width:0.01" />
</g>
</svg>
