<svg xmlns="http://www.w3.org/2000/svg" viewBox="-1.5 -1.5 3 3">
<g transform="scale(1, -1)">
<path d="M0.324677 -0.140661 L0.670573 0.183617 L0.880130 0.123593 L0.964558 0.197684 L0.888600 0.284240 L0.910440 0.292321 L0.846431 0.465320 L0.721220 0.474974 L0.693792 0.506229 L0.511884 0.406362 L0.383772 0.440789 L0.324224 0.303338 L0.199988 0.235134 L0.228031 0.081303 L0.192808 0.000000 z " fill="rgb(245,195,195)" />
<path d="M0.000000 0.000000 L1.000000 0.000000 L1.000000 1.000000 L0.000000 1.000000  z" fill="none" stroke="rgb(128,128,128)" stroke-width="0.01" />
<line x1="0.88013" y1="0.123593" x2="0.964558" y2="0.197684" style="stroke:rgb(246,147,147);stroke-width:0.01" />
<line x1="0.754086" y1="0.299558" x2="0.846431" y2="0.46532" style="stroke:rgb(246,147,147);stroke-width:0.01" />
<line x1="0.324677" y1="-0.140661" x2="0.762399" y2="0.269704" style="stroke:rgb(246,147,147);stroke-width:0.01" />
<line x1="0.73704" y1="0.195104" x2="0.762399" y2="0.269704" style="stroke:rgb(246,147,147);stroke-width:0.01" />
<line x1="0.509572" y1="0.222378" x2="0.600877" y2="0.375" style="stroke:rgb(246,147,147);stroke-width:0.01" />
<line x1="0.509572" y1="0.222378" x2="0.647249" y2="0.480677" style="stroke:rgb(246,147,147);stroke-width:0.01" />
<line x1="0.453922" y1="0" x2="0.600877" y2="0.375" style="stroke:rgb(246,147,147);stroke-width:0.01" />
<line x1="0.358756" y1="0.272931" x2="0.391714" y2="0.34039" style="stroke:rgb(246,147,147);stroke-width:0.01" />
<line x1="0.192808" y1="0" x2="0.383772" y2="0.440789" style="stroke:rgb(246,147,147);stroke-width:0.01" />
<line x1="0.358756" y1="0.272931" x2="0.383772" y2="0.440789" style="stroke:rgb(246,147,147);stroke-width:0.01" />
<line x1="0.410684" y1="0.107413" x2="0.91044" y2="0.292321" style="stroke:rgb(246,147,147);stroke-width:0.01" />
<line x1="0.235856" y1="0.0383764" x2="0.554003" y2="0.0963741" style="stroke:rgb(246,147,147);stroke-width:0.01" />
<line x1="0.192808" y1="0" x2="0.453922" y2="0" style="stroke:rgb(246,147,147);stroke-width:0.01" />
<line x1="0.554003" y1="0.0963741" x2="0.537234" y2="0.42028" style="stroke:rgb(246,147,147);stroke-width:0.01" />
<line x1="0.235856" y1="0.0383764" x2="0.199988" y2="0.235134" style="stroke:rgb(246,147,147);stroke-width:0.01" />
<line x1="0.410684" y1="0.107413" x2="0.379115" y2="0.333473" style="stroke:rgb(246,147,147);stroke-width:0.01" />
<line x1="0.73704" y1="0.195104" x2="0.853883" y2="0.210721" style="stroke:rgb(246,147,147);stroke-width:0.01" />
<line x1="0.324677" y1="-0.140661" x2="0.192808" y2="0" style="stroke:rgb(246,147,147);stroke-width:0.01" />
<line x1="0.199988" y1="0.235134" x2="0.693792" y2="0.506229" style="stroke:rgb(246,147,147);stroke-width:0.01" />
<line x1="0.554003" y1="0.0963741" x2="0.410684" y2="0.107413" style="stroke:rgb(246,147,147);stroke-width:0.01" />
<line x1="0.754086" y1="0.299558" x2="0.693792" y2="0.506229" style="stroke:rgb(246,147,147);stroke-width:0.01" />
<line x1="0.453922" y1="0" x2="0.199988" y2="0.235134" style="stroke:rgb(246,147,147);stroke-width:0.01" />
<line x1="0.88013" y1="0.123593" x2="0.853883" y2="0.210721" style="stroke:rgb(246,147,147);stroke-width:0.01" />
<line x1="0.91044" y1="0.292321" x2="0.846431" y2="0.46532" style="stroke:rgb(246,147,147);stroke-width:0.01" />
<line x1="0.88013" y1="0.123593" x2="0.358756" y2="0.272931" style="stroke:rgb(246,147,147);stroke-width:0.01" />
<line x1="0.509572" y1="0.222378" x2="0.358756" y2="0.272931" style="stroke:rgb(246,147,147);stroke-width:0.01" />
<line x1="0.754086" y1="0.299558" x2="0.391714" y2="0.34039" style="stroke:rgb(246,147,147);stroke-width:0.01" />
<line x1="0.509572" y1="0.222378" x2="0.379115" y2="0.333473" style="stroke:rgb(246,147,147);stroke-width:0.01" />
<line x1="0.73704" y1="0.195104" x2="0.577996" y2="0.388596" style="stroke:rgb(246,147,147);stroke-width:0.01" />
<line x1="0.577996" y1="0.388596" x2="0.383772" y2="0.440789" style="stroke:rgb(246,147,147);stroke-width:0.01" />
<line x1="0.600877" y1="0.375" x2="0.383772" y2="0.440789" style="stroke:rgb(246,147,147);stroke-width:0.01" />
<line x1="0.846431" y1="0.46532" x2="0.647249" y2="0.480677" style="stroke:rgb(246,147,147);stroke-width:0.01" />
<line x1="0.600877" y1="0.375" x2="0.537234" y2="0.42028" style="stroke:rgb(246,147,147);stroke-width:0.01" />
<line x1="0.853883" y1="0.210721" x2="0.577996" y2="0.388596" style="stroke:rgb(246,147,147);stroke-width:0.01" />
<line x1="0.964558" y1="0.197684" x2="0.693792" y2="0.506229" style="stroke:rgb(246,147,147);stroke-width:0.01" />
</g>
</svg>
