<svg xmlns="http://www.w3.org/2000/svg" viewBox="-1.5 -1.5 3 3">
<g transform="scale(1, -1)">
<path d="M-0.249601 -0.328834 L-0.124166 -0.278485 L-0.005778 -0.278485 L0.038321 -0.213265 L0.173378 -0.159055 L0.290872 -0.216800 L0.443638 -0.009262 L0.275314 0.114638 L0.388983 0.414814 L0.381908 0.441677 L-0.023818 0.334824 L-0.054035 0.176435 L-0.283536 0.162659 L-0.303401 0.092128 L-0.247639 0.076423 L-0.219236 0.008187 L-0.107261 -0.025658 L-0.104131 -0.033455 L-0.269811 -0.278485 z " fill="rgb(245,195,195)" />
<path d="M-0.324064 -0.278485 L0.675936 -0.278485 L0.675936 0.721515 L-0.324064 0.721515  z" fill="none" stroke="rgb(128,128,128)" stroke-width="0.01" />
<line x1="0.290872" y1="-0.2168" x2="0.443638" y2="-0.00926161" style="stroke:rgb(246,147,147);stroke-width:0.01" />
<line x1="0.294997" y1="-0.119867" x2="0.307217" y2="-0.105333" style="stroke:rgb(246,147,147);stroke-width:0.01" />
<line x1="0.290872" y1="-0.2168" x2="0.318391" y2="-0.120765" style="stroke:rgb(246,147,147);stroke-width:0.01" />
<line x1="0.188353" y1="-0.115008" x2="0.388983" y2="0.414814" style="stroke:rgb(246,147,147);stroke-width:0.01" />
<line x1="-0.00577849" y1="-0.278485" x2="0.232954" y2="0.0745847" style="stroke:rgb(246,147,147);stroke-width:0.01" />
<line x1="0.188353" y1="-0.115008" x2="0.232954" y2="0.0745847" style="stroke:rgb(246,147,147);stroke-width:0.01" />
<line x1="-0.249601" y1="-0.328834" x2="0.307217" y2="-0.105333" style="stroke:rgb(246,147,147);stroke-width:0.01" />
<line x1="-0.0930571" y1="-0.0281098" x2="-0.0238181" y2="0.334824" style="stroke:rgb(246,147,147);stroke-width:0.01" />
<line x1="-0.0930571" y1="-0.0281098" x2="0.0311993" y2="0.16669" style="stroke:rgb(246,147,147);stroke-width:0.01" />
<line x1="-0.269811" y1="-0.278485" x2="0.0311993" y2="0.16669" style="stroke:rgb(246,147,147);stroke-width:0.01" />
<line x1="-0.212554" y1="0.0665413" x2="-0.185218" y2="0.168561" style="stroke:rgb(246,147,147);stroke-width:0.01" />
<line x1="-0.269811" y1="-0.278485" x2="-0.00577849" y2="-0.278485" style="stroke:rgb(246,147,147);stroke-width:0.01" />
<line x1="-0.249601" y1="-0.328834" x2="-0.269811" y2="-0.278485" style="stroke:rgb(246,147,147);stroke-width:0.01" />
<line x1="-0.303401" y1="0.0921282" x2="-0.283536" y2="0.162659" style="stroke:rgb(246,147,147);stroke-width:0.01" />
<line x1="-0.219236" y1="0.0081867" x2="-0.283536" y2="0.162659" style="stroke:rgb(246,147,147);stroke-width:0.01" />
<line x1="-0.00577849" y1="-0.278485" x2="-0.185218" y2="0.168561" style="stroke:rgb(246,147,147);stroke-width:0.01" />
<line x1="-0.219236" y1="0.0081867" x2="0.388983" y2="0.414814" style="stroke:rgb(246,147,147);stroke-width:0.01" />
<line x1="0.318391" y1="-0.120765" x2="0.294997" y2="-0.119867" style="stroke:rgb(246,147,147);stroke-width:0.01" />
<line x1="-0.212554" y1="0.0665413" x2="-0.0152941" y2="0.17876" style="stroke:rgb(246,147,147);stroke-width:0.01" />
<line x1="0.388983" y1="0.414814" x2="0.381908" y2="0.441677" style="stroke:rgb(246,147,147);stroke-width:0.01" />
<line x1="0.294997" y1="-0.119867" x2="0.25924" y2="-0.0390697" style="stroke:rgb(246,147,147);stroke-width:0.01" />
<line x1="0.188353" y1="-0.115008" x2="-0.219236" y2="0.0081867" style="stroke:rgb(246,147,147);stroke-width:0.01" />
<line x1="0.290872" y1="-0.2168" x2="-0.0930571" y2="-0.0281098" style="stroke:rgb(246,147,147);stroke-width:0.01" />
<line x1="0.188353" y1="-0.115008" x2="-0.0930571" y2="-0.0281098" style="stroke:rgb(246,147,147);stroke-width:0.01" />
<line x1="-0.212554" y1="0.0665413" x2="-0.303401" y2="0.0921282" style="stroke:rgb(246,147,147);stroke-width:0.01" />
<line x1="0.318391" y1="-0.120765" x2="0.25924" y2="-0.0390697" style="stroke:rgb(246,147,147);stroke-width:0.01" />
<line x1="0.25924" y1="-0.0390697" x2="0.0311993" y2="0.16669" style="stroke:rgb(246,147,147);stroke-width:0.01" />
<line x1="-0.283536" y1="0.162659" x2="-0.0152941" y2="0.17876" style="stroke:rgb(246,147,147);stroke-width:0.01" />
<line x1="0.232954" y1="0.0745847" x2="-0.0152941" y2="0.17876" style="stroke:rgb(246,147,147);stroke-width:0.01" />
<line x1="-0.0238181" y1="0.334824" x2="0.381908" y2="0.441677" style="stroke:rgb(246,147,147);stroke-width:0.01" />
<line x1="0.232954" y1="0.0745847" x2="0.0311993" y2="0.16669" style="stroke:rgb(246,147,147);stroke-width:0.01" />
<line x1="0.443638" y1="-0.00926161" x2="-0.0238181" y2="0.334824" style="stroke:rgb(246,147,147);stroke-width:0.01" />
</g>
</svg>
