<svg xmlns="http://www.w3.org/2000/svg" viewBox="-1.5 -1.5 3 3">
<g transform="scale(1, -1)">
<path d="M0.074462 -0.050349 L0.199898 0.000000 L0.318285 0.000000 L0.362385 0.065220 L0.497441 0.119431 L0.614936 0.061685 L0.767701 0.269224 L0.599378 0.393124 L0.713046 0.693299 L0.705972 0.720162 L0.300246 0.613310 L0.270029 0.454921 L0.040528 0.441145 L0.020663 0.370614 L0.076424 0.354909 L0.104828 0.286672 L0.216803 0.252827 L0.219933 0.245030 L0.054253 0.000000 z " fill="rgb(245,195,195)" />
<path d="M0.000000 0.000000 L1.000000 0.000000 L1.000000 1.000000 L0.000000 1.000000  z" fill="none" stroke="rgb(128,128,128)" stroke-width="0.01" />
<line x1="0.614936" y1="0.0616853" x2="0.767701" y2="0.269224" style="stroke:rgb(246,147,147);stroke-width:0.01" />
<line x1="0.619061" y1="0.158619" x2="0.631281" y2="0.173152" style="stroke:rgb(246,147,147);stroke-width:0.01" />
<line x1="0.614936" y1="0.0616853" x2="0.642455" y2="0.157721" style="stroke:rgb(246,147,147);stroke-width:0.01" />
<line x1="0.512417" y1="0.163477" x2="0.713046" y2="0.693299" style="stroke:rgb(246,147,147);stroke-width:0.01" />
<line x1="0.318285" y1="0" x2="0.557018" y2="0.35307" style="stroke:rgb(246,147,147);stroke-width:0.01" />
<line x1="0.512417" y1="0.163477" x2="0.557018" y2="0.35307" style="stroke:rgb(246,147,147);stroke-width:0.01" />
<line x1="0.0744624" y1="-0.0503485" x2="0.631281" y2="0.173152" style="stroke:rgb(246,147,147);stroke-width:0.01" />
<line x1="0.231007" y1="0.250376" x2="0.300246" y2="0.61331" style="stroke:rgb(246,147,147);stroke-width:0.01" />
<line x1="0.231007" y1="0.250376" x2="0.355263" y2="0.445175" style="stroke:rgb(246,147,147);stroke-width:0.01" />
<line x1="0.054253" y1="0" x2="0.355263" y2="0.445175" style="stroke:rgb(246,147,147);stroke-width:0.01" />
<line x1="0.11151" y1="0.345027" x2="0.138846" y2="0.447046" style="stroke:rgb(246,147,147);stroke-width:0.01" />
<line x1="0.054253" y1="0" x2="0.318285" y2="0" style="stroke:rgb(246,147,147);stroke-width:0.01" />
<line x1="0.0744624" y1="-0.0503485" x2="0.054253" y2="0" style="stroke:rgb(246,147,147);stroke-width:0.01" />
<line x1="0.020663" y1="0.370614" x2="0.040528" y2="0.441145" style="stroke:rgb(246,147,147);stroke-width:0.01" />
<line x1="0.104828" y1="0.286672" x2="0.040528" y2="0.441145" style="stroke:rgb(246,147,147);stroke-width:0.01" />
<line x1="0.318285" y1="0" x2="0.138846" y2="0.447046" style="stroke:rgb(246,147,147);stroke-width:0.01" />
<line x1="0.104828" y1="0.286672" x2="0.713046" y2="0.693299" style="stroke:rgb(246,147,147);stroke-width:0.01" />
<line x1="0.642455" y1="0.157721" x2="0.619061" y2="0.158619" style="stroke:rgb(246,147,147);stroke-width:0.01" />
<line x1="0.11151" y1="0.345027" x2="0.30877" y2="0.457246" style="stroke:rgb(246,147,147);stroke-width:0.01" />
<line x1="0.713046" y1="0.693299" x2="0.705972" y2="0.720162" style="stroke:rgb(246,147,147);stroke-width:0.01" />
<line x1="0.619061" y1="0.158619" x2="0.583304" y2="0.239416" style="stroke:rgb(246,147,147);stroke-width:0.01" />
<line x1="0.512417" y1="0.163477" x2="0.104828" y2="0.286672" style="stroke:rgb(246,147,147);stroke-width:0.01" />
<line x1="0.614936" y1="0.0616853" x2="0.231007" y2="0.250376" style="stroke:rgb(246,147,147);stroke-width:0.01" />
<line x1="0.512417" y1="0.163477" x2="0.231007" y2="0.250376" style="stroke:rgb(246,147,147);stroke-width:0.01" />
<line x1="0.11151" y1="0.345027" x2="0.020663" y2="0.370614" style="stroke:rgb(246,147,147);stroke-width:0.01" />
<line x1="0.642455" y1="0.157721" x2="0.583304" y2="0.239416" style="stroke:rgb(246,147,147);stroke-width:0.01" />
<line x1="0.583304" y1="0.239416" x2="0.355263" y2="0.445175" style="stroke:rgb(246,147,147);stroke-width:0.01" />
<line x1="0.040528" y1="0.441145" x2="0.30877" y2="0.457246" style="stroke:rgb(246,147,147);stroke-width:0.01" />
<line x1="0.557018" y1="0.35307" x2="0.30877" y2="0.457246" style="stroke:rgb(246,147,147);stroke-width:0.01" />
<line x1="0.300246" y1="0.61331" x2="0.705972" y2="0.720162" style="stroke:rgb(246,147,147);stroke-width:0.01" />
<line x1="0.557018" y1="0.35307" x2="0.355263" y2="0.445175" style="stroke:rgb(246,147,147);stroke-width:0.01" />
<line x1="0.767701" y1="0.269224" x2="0.300246" y2="0.61331" style="stroke:rgb(246,147,147);stroke-width:0.01" />
</g>
</svg>
