<svg xmlns="http://www.w3.org/2000/svg" viewBox="-1.5 -1.5 3 3">
<g transform="scale(1, -1)">
<path d="M-0.249941 -0.262390 L0.250059 -0.262390 L0.250059 0.092827 L-0.000238 0.340828 L-0.249941 0.091125 z " fill="rgb(245,195,195)" />
<path d="M-0.499941 -0.658875 L0.500059 -0.658875 L0.500059 0.341125 L-0.499941 0.341125  z" fill="none" stroke="rgb(128,128,128)" stroke-width="0.01" />
<line x1="-0.249941" y1="-0.26239" x2="-0.249941" y2="0.0911252" style="stroke:rgb(246,147,147);stroke-width:0.01" />
<line x1="5.94038e-05" y1="-0.26239" x2="5.94038e-05" y2="0.340534" style="stroke:rgb(246,147,147);stroke-width:0.01" />
<line x1="0.250059" y1="-0.26239" x2="0.250059" y2="0.0928275" style="stroke:rgb(246,147,147);stroke-width:0.01" />
<line x1="5.94038e-05" y1="-0.154879" x2="0.250059" y2="0.0928275" style="stroke:rgb(246,147,147);stroke-width:0.01" />
<line x1="0.00407631" y1="-0.15945" x2="-0.000531884" y2="0.340528" style="stroke:rgb(246,147,147);stroke-width:0.01" />
<line x1="-0.000531884" y1="0.340528" x2="-0.000237615" y2="0.340828" style="stroke:rgb(246,147,147);stroke-width:0.01" />
<line x1="-0.249941" y1="0.0911252" x2="-0.000237615" y2="0.340828" style="stroke:rgb(246,147,147);stroke-width:0.01" />
<line x1="-0.249941" y1="-0.26239" x2="0.250059" y2="-0.26239" style="stroke:rgb(246,147,147);stroke-width:0.01" />
<line x1="0.00407631" y1="-0.15945" x2="0.250059" y2="-0.157183" style="stroke:rgb(246,147,147);stroke-width:0.01" />
<line x1="-0.249941" y1="-0.162781" x2="0.250059" y2="-0.162781" style="stroke:rgb(246,147,147);stroke-width:0.01" />
<line x1="-0.249941" y1="-0.158875" x2="5.94038e-05" y2="-0.158875" style="stroke:rgb(246,147,147);stroke-width:0.01" />
<line x1="5.94038e-05" y1="-0.158875" x2="-0.249941" y2="0.0911252" style="stroke:rgb(246,147,147);stroke-width:0.01" />
<line x1="0.250059" y1="-0.157183" x2="5.94038e-05" y2="-0.154879" style="stroke:rgb(246,147,147);stroke-width:0.01" />
<line x1="-0.249941" y1="-0.0143435" x2="0.250059" y2="-0.0143435" style="stroke:rgb(246,147,147);stroke-width:0.01" />
<line x1="0.250059" y1="0.0928275" x2="-0.000237615" y2="0.340828" style="stroke:rgb(246,147,147);stroke-width:0.01" />
<line x1="-0.000531884" y1="0.340528" x2="5.94038e-05" y2="0.340534" style="stroke:rgb(246,147,147);stroke-width:0.01" />
</g>
</svg>
