<svg xmlns="http://www.w3.org/2000/svg" viewBox="-1.5 -1.5 3 3">
<g transform="scale(1, -1)">
<path d="M0.013010 -0.254232 L0.300631 -0.120110 L0.379429 -0.098620 L0.391907 0.180005 L-0.053780 0.376107 L-0.135625 0.216277 L-0.117150 0.205555 L-0.156220 0.100405 L-0.109350 0.082991 L-0.121749 0.034552 L-0.075160 0.022627 L-0.125294 0.005735 L-0.096550 -0.171163 L-0.047197 -0.163144 L-0.034042 -0.211382 L-0.012860 -0.205605 z " fill="rgb(245,195,195)" />
<path d="M-0.440554 0.331297 L0.559446 0.331297 L0.559446 1.331297 L-0.440554 1.331297  z" fill="none" stroke="rgb(128,128,128)" stroke-width="0.01" />
<line x1="0.0130103" y1="-0.254232" x2="0.380127" y2="-0.0830392" style="stroke:rgb(246,147,147);stroke-width:0.01" />
<line x1="-0.0340417" y1="-0.211382" x2="0.379429" y2="-0.0986197" style="stroke:rgb(246,147,147);stroke-width:0.01" />
<line x1="-0.09655" y1="-0.171163" x2="0.379646" y2="-0.0937869" style="stroke:rgb(246,147,147);stroke-width:0.01" />
<line x1="-0.125294" y1="0.00573455" x2="0.391907" y2="0.180005" style="stroke:rgb(246,147,147);stroke-width:0.01" />
<line x1="0.379646" y1="-0.0937869" x2="-0.121749" y2="0.0345523" style="stroke:rgb(246,147,147);stroke-width:0.01" />
<line x1="-0.135625" y1="0.216277" x2="-0.0362925" y2="0.368412" style="stroke:rgb(246,147,147);stroke-width:0.01" />
<line x1="-0.135625" y1="0.216277" x2="-0.0537802" y2="0.376107" style="stroke:rgb(246,147,147);stroke-width:0.01" />
<line x1="-0.15622" y1="0.100405" x2="-0.0537802" y2="0.376107" style="stroke:rgb(246,147,147);stroke-width:0.01" />
<line x1="0.379429" y1="-0.0986197" x2="-0.15622" y2="0.100405" style="stroke:rgb(246,147,147);stroke-width:0.01" />
<line x1="-0.121749" y1="0.0345523" x2="-0.0362925" y2="0.368412" style="stroke:rgb(246,147,147);stroke-width:0.01" />
<line x1="0.379429" y1="-0.0986197" x2="0.391907" y2="0.180005" style="stroke:rgb(246,147,147);stroke-width:0.01" />
<line x1="-0.09655" y1="-0.171163" x2="-0.125294" y2="0.00573455" style="stroke:rgb(246,147,147);stroke-width:0.01" />
<line x1="0.380127" y1="-0.0830392" x2="-0.135625" y2="0.216277" style="stroke:rgb(246,147,147);stroke-width:0.01" />
<line x1="0.0130103" y1="-0.254232" x2="-0.125294" y2="0.00573455" style="stroke:rgb(246,147,147);stroke-width:0.01" />
<line x1="-0.0340417" y1="-0.211382" x2="-0.0959503" y2="0.0156218" style="stroke:rgb(246,147,147);stroke-width:0.01" />
<line x1="0.0130103" y1="-0.254232" x2="-0.0959503" y2="0.0156218" style="stroke:rgb(246,147,147);stroke-width:0.01" />
<line x1="0.391907" y1="0.180005" x2="-0.0537802" y2="0.376107" style="stroke:rgb(246,147,147);stroke-width:0.01" />
</g>
</svg>
