<svg xmlns="http://www.w3.org/2000/svg" viewBox="-1.5 -1.5 3 3">
<g transform="scale(1, -1)">
<path d="M0.067054 -0.210538 L0.185715 -0.171238 L0.169995 -0.123774 L0.215547 -0.103158 L0.031668 0.303138 L-0.106990 0.314962 L-0.199427 0.141642 L-0.139378 -0.055662 L-0.050046 -0.109519 L-0.035211 -0.087606 L-0.011927 -0.100024 L0.016530 -0.057990 z M-0.017442 0.044583 L-0.077523 0.076627 L-0.048566 0.138557 z " fill="rgb(245,195,195)" />
<path d="M-1.037662 -0.086299 L-0.037662 -0.086299 L-0.037662 0.913701 L-1.037662 0.913701  z" fill="none" stroke="rgb(128,128,128)" stroke-width="0.01" />
<line x1="0.0637788" y1="-0.20065" x2="0.178292" y2="-0.148824" style="stroke:rgb(246,147,147);stroke-width:0.01" />
<line x1="0.0554821" y1="-0.175599" x2="0.215547" y2="-0.103158" style="stroke:rgb(246,147,147);stroke-width:0.01" />
<line x1="-0.0119269" y1="-0.100024" x2="0.0585387" y2="0.0040605" style="stroke:rgb(246,147,147);stroke-width:0.01" />
<line x1="-0.0500461" y1="-0.109519" x2="0.0352544" y2="0.0164788" style="stroke:rgb(246,147,147);stroke-width:0.01" />
<line x1="0.0670538" y1="-0.210538" x2="0.185715" y2="-0.171238" style="stroke:rgb(246,147,147);stroke-width:0.01" />
<line x1="-0.0500461" y1="-0.109519" x2="0.0211613" y2="0.0239951" style="stroke:rgb(246,147,147);stroke-width:0.01" />
<line x1="-0.161665" y1="0.0175659" x2="0.0316681" y2="0.303138" style="stroke:rgb(246,147,147);stroke-width:0.01" />
<line x1="0.032211" y1="-0.0609496" x2="0.0585387" y2="0.0040605" style="stroke:rgb(246,147,147);stroke-width:0.01" />
<line x1="-0.0119269" y1="-0.100024" x2="0.0352544" y2="0.0164788" style="stroke:rgb(246,147,147);stroke-width:0.01" />
<line x1="-0.147956" y1="-0.0274754" x2="0.0285142" y2="0.303407" style="stroke:rgb(246,147,147);stroke-width:0.01" />
<line x1="-0.139378" y1="-0.0556617" x2="0.0285142" y2="0.303407" style="stroke:rgb(246,147,147);stroke-width:0.01" />
<line x1="0.0637788" y1="-0.20065" x2="0.160734" y2="-0.179512" style="stroke:rgb(246,147,147);stroke-width:0.01" />
<line x1="0.0554821" y1="-0.175599" x2="0.178292" y2="-0.148824" style="stroke:rgb(246,147,147);stroke-width:0.01" />
<line x1="-0.199427" y1="0.141642" x2="-0.10699" y2="0.314962" style="stroke:rgb(246,147,147);stroke-width:0.01" />
<line x1="-0.139378" y1="-0.0556617" x2="-0.199427" y2="0.141642" style="stroke:rgb(246,147,147);stroke-width:0.01" />
<line x1="0.160734" y1="-0.179512" x2="0.0285142" y2="0.303407" style="stroke:rgb(246,147,147);stroke-width:0.01" />
<line x1="0.0670538" y1="-0.210538" x2="-0.10699" y2="0.314962" style="stroke:rgb(246,147,147);stroke-width:0.01" />
<line x1="0.185715" y1="-0.171238" x2="0.0285142" y2="0.303407" style="stroke:rgb(246,147,147);stroke-width:0.01" />
<line x1="0.032211" y1="-0.0609496" x2="-0.161665" y2="0.0175659" style="stroke:rgb(246,147,147);stroke-width:0.01" />
<line x1="-0.0119269" y1="-0.100024" x2="-0.147956" y2="-0.0274754" style="stroke:rgb(246,147,147);stroke-width:0.01" />
<line x1="-0.0500461" y1="-0.109519" x2="-0.139378" y2="-0.0556617" style="stroke:rgb(246,147,147);stroke-width:0.01" />
<line x1="0.215547" y1="-0.103158" x2="0.0316681" y2="0.303138" style="stroke:rgb(246,147,147);stroke-width:0.01" />
<line x1="0.0316681" y1="0.303138" x2="-0.10699" y2="0.314962" style="stroke:rgb(246,147,147);stroke-width:0.01" />
<line x1="0.0585387" y1="0.0040605" x2="-0.199427" y2="0.141642" style="stroke:rgb(246,147,147);stroke-width:0.01" />
</g>
</svg>
