<svg xmlns="http://www.w3.org/2000/svg" viewBox="-1.5 -1.5 3 3">
<g transform="scale(1, -1)">
<path d="M0.500000 0.375000 L0.625000 0.375000 L0.500000 0.500000 L0.369565 0.500000 L0.338235 0.602941 L0.253676 0.577206 L0.176471 0.830882 L0.066176 0.889706 L0.117647 0.720588 L0.000000 0.500000 z " fill="rgb(245,195,195)" />
<path d="M0.000000 0.000000 L1.000000 0.000000 L1.000000 1.000000 L0.000000 1.000000  z" fill="none" stroke="rgb(128,128,128)" stroke-width="0.01" />
<line x1="0.4" y1="0.4" x2="0.5" y2="0.5" style="stroke:rgb(246,147,147);stroke-width:0.01" />
<line x1="0.3" y1="0.425" x2="0.375" y2="0.5" style="stroke:rgb(246,147,147);stroke-width:0.01" />
<line x1="0.1" y1="0.475" x2="0.0588235" y2="0.610294" style="stroke:rgb(246,147,147);stroke-width:0.01" />
<line x1="0.2" y1="0.45" x2="0.0661765" y2="0.889706" style="stroke:rgb(246,147,147);stroke-width:0.01" />
<line x1="0" y1="0.5" x2="0.176471" y2="0.830882" style="stroke:rgb(246,147,147);stroke-width:0.01" />
<line x1="0.3" y1="0.425" x2="0.176471" y2="0.830882" style="stroke:rgb(246,147,147);stroke-width:0.01" />
<line x1="0.2" y1="0.45" x2="0.25" y2="0.5" style="stroke:rgb(246,147,147);stroke-width:0.01" />
<line x1="0.4" y1="0.4" x2="0.338235" y2="0.602941" style="stroke:rgb(246,147,147);stroke-width:0.01" />
<line x1="0.1" y1="0.475" x2="0.125" y2="0.5" style="stroke:rgb(246,147,147);stroke-width:0.01" />
<line x1="0.333333" y1="0.416667" x2="0.389706" y2="0.433824" style="stroke:rgb(246,147,147);stroke-width:0.01" />
<line x1="0.166667" y1="0.458333" x2="0.125" y2="0.5" style="stroke:rgb(246,147,147);stroke-width:0.01" />
<line x1="0.166667" y1="0.458333" x2="0.363971" y2="0.518382" style="stroke:rgb(246,147,147);stroke-width:0.01" />
<line x1="0.5" y1="0.375" x2="0.625" y2="0.375" style="stroke:rgb(246,147,147);stroke-width:0.01" />
<line x1="0.333333" y1="0.416667" x2="0.25" y2="0.5" style="stroke:rgb(246,147,147);stroke-width:0.01" />
<line x1="0.4375" y1="0.4375" x2="0.375" y2="0.5" style="stroke:rgb(246,147,147);stroke-width:0.01" />
<line x1="0" y1="0.5" x2="0.338235" y2="0.602941" style="stroke:rgb(246,147,147);stroke-width:0.01" />
<line x1="0.5" y1="0.375" x2="0" y2="0.5" style="stroke:rgb(246,147,147);stroke-width:0.01" />
<line x1="0.5" y1="0.375" x2="0.0588235" y2="0.610294" style="stroke:rgb(246,147,147);stroke-width:0.01" />
<line x1="0" y1="0.5" x2="0.5" y2="0.5" style="stroke:rgb(246,147,147);stroke-width:0.01" />
<line x1="0.625" y1="0.375" x2="0.5" y2="0.5" style="stroke:rgb(246,147,147);stroke-width:0.01" />
<line x1="0.176471" y1="0.830882" x2="0.0661765" y2="0.889706" style="stroke:rgb(246,147,147);stroke-width:0.01" />
</g>
</svg>
