<svg xmlns="http://www.w3.org/2000/svg" viewBox="-1.5 -1.5 3 3">
<g transform="scale(1, -1)">
<path d="M0.205323 -0.212132 L0.330323 -0.212132 L0.205323 -0.087132 L0.074888 -0.087132 L0.043558 0.015809 L-0.041001 -0.009926 L-0.118207 0.243750 L-0.228501 0.302574 L-0.177030 0.133456 L-0.294677 -0.087132 z " fill="rgb(245,195,195)" />
<path d="M-0.294677 -0.587132 L0.705323 -0.587132 L0.705323 0.412868 L-0.294677 0.412868  z" fill="none" stroke="rgb(128,128,128)" stroke-width="0.01" />
<line x1="0.105323" y1="-0.187132" x2="0.205323" y2="-0.0871324" style="stroke:rgb(246,147,147);stroke-width:0.01" />
<line x1="0.00532289" y1="-0.162132" x2="0.0803229" y2="-0.0871324" style="stroke:rgb(246,147,147);stroke-width:0.01" />
<line x1="-0.194677" y1="-0.112132" x2="-0.235854" y2="0.0231618" style="stroke:rgb(246,147,147);stroke-width:0.01" />
<line x1="-0.0946771" y1="-0.137132" x2="-0.228501" y2="0.302574" style="stroke:rgb(246,147,147);stroke-width:0.01" />
<line x1="-0.294677" y1="-0.0871324" x2="-0.118207" y2="0.24375" style="stroke:rgb(246,147,147);stroke-width:0.01" />
<line x1="0.00532289" y1="-0.162132" x2="-0.118207" y2="0.24375" style="stroke:rgb(246,147,147);stroke-width:0.01" />
<line x1="-0.0946771" y1="-0.137132" x2="-0.0446771" y2="-0.0871324" style="stroke:rgb(246,147,147);stroke-width:0.01" />
<line x1="0.105323" y1="-0.187132" x2="0.0435582" y2="0.0158088" style="stroke:rgb(246,147,147);stroke-width:0.01" />
<line x1="-0.194677" y1="-0.112132" x2="-0.169677" y2="-0.0871324" style="stroke:rgb(246,147,147);stroke-width:0.01" />
<line x1="0.0386562" y1="-0.170466" x2="0.0950288" y2="-0.153309" style="stroke:rgb(246,147,147);stroke-width:0.01" />
<line x1="-0.12801" y1="-0.128799" x2="-0.169677" y2="-0.0871324" style="stroke:rgb(246,147,147);stroke-width:0.01" />
<line x1="-0.12801" y1="-0.128799" x2="0.0692935" y2="-0.06875" style="stroke:rgb(246,147,147);stroke-width:0.01" />
<line x1="0.205323" y1="-0.212132" x2="0.330323" y2="-0.212132" style="stroke:rgb(246,147,147);stroke-width:0.01" />
<line x1="0.0386562" y1="-0.170466" x2="-0.0446771" y2="-0.0871324" style="stroke:rgb(246,147,147);stroke-width:0.01" />
<line x1="0.142823" y1="-0.149632" x2="0.0803229" y2="-0.0871324" style="stroke:rgb(246,147,147);stroke-width:0.01" />
<line x1="-0.294677" y1="-0.0871324" x2="0.0435582" y2="0.0158088" style="stroke:rgb(246,147,147);stroke-width:0.01" />
<line x1="0.205323" y1="-0.212132" x2="-0.294677" y2="-0.0871324" style="stroke:rgb(246,147,147);stroke-width:0.01" />
<line x1="0.205323" y1="-0.212132" x2="-0.235854" y2="0.0231618" style="stroke:rgb(246,147,147);stroke-width:0.01" />
<line x1="-0.294677" y1="-0.0871324" x2="0.205323" y2="-0.0871324" style="stroke:rgb(246,147,147);stroke-width:0.01" />
<line x1="0.330323" y1="-0.212132" x2="0.205323" y2="-0.0871324" style="stroke:rgb(246,147,147);stroke-width:0.01" />
<line x1="-0.118207" y1="0.24375" x2="-0.228501" y2="0.302574" style="stroke:rgb(246,147,147);stroke-width:0.01" />
</g>
</svg>
