<svg xmlns="http://www.w3.org/2000/svg" viewBox="-1.5 -1.5 3 3">
<g transform="scale(1, -1)">
<path d="M0.152436 -0.203879 L0.316571 0.067734 L0.370037 0.129479 L0.225179 0.367814 L-0.254188 0.282377 L-0.233117 0.104051 L-0.211801 0.105440 L-0.185668 -0.003647 L-0.137044 0.008001 L-0.120355 -0.039132 L-0.075022 -0.023080 L-0.107245 -0.065038 L0.015174 -0.195929 L0.051691 -0.161776 L0.089489 -0.194506 L0.103862 -0.177909 z " fill="rgb(245,195,195)" />
<path d="M-0.719971 -0.413211 L0.280029 -0.413211 L0.280029 0.586789 L-0.719971 0.586789  z" fill="none" stroke="rgb(128,128,128)" stroke-width="0.01" />
<line x1="0.152436" y1="-0.203879" x2="0.361937" y2="0.142806" style="stroke:rgb(246,147,147);stroke-width:0.01" />
<line x1="0.0894895" y1="-0.194506" x2="0.370037" y2="0.129479" style="stroke:rgb(246,147,147);stroke-width:0.01" />
<line x1="0.0151737" y1="-0.195929" x2="0.367525" y2="0.133613" style="stroke:rgb(246,147,147);stroke-width:0.01" />
<line x1="-0.107245" y1="-0.065038" x2="0.225179" y2="0.367814" style="stroke:rgb(246,147,147);stroke-width:0.01" />
<line x1="-0.233117" y1="0.104051" x2="-0.235379" y2="0.28573" style="stroke:rgb(246,147,147);stroke-width:0.01" />
<line x1="-0.233117" y1="0.104051" x2="-0.254188" y2="0.282377" style="stroke:rgb(246,147,147);stroke-width:0.01" />
<line x1="-0.185668" y1="-0.00364726" x2="-0.254188" y2="0.282377" style="stroke:rgb(246,147,147);stroke-width:0.01" />
<line x1="-0.120355" y1="-0.0391315" x2="0.367525" y2="0.133613" style="stroke:rgb(246,147,147);stroke-width:0.01" />
<line x1="-0.120355" y1="-0.0391315" x2="-0.235379" y2="0.28573" style="stroke:rgb(246,147,147);stroke-width:0.01" />
<line x1="-0.185668" y1="-0.00364726" x2="0.370037" y2="0.129479" style="stroke:rgb(246,147,147);stroke-width:0.01" />
<line x1="0.0151737" y1="-0.195929" x2="-0.107245" y2="-0.065038" style="stroke:rgb(246,147,147);stroke-width:0.01" />
<line x1="-0.233117" y1="0.104051" x2="0.361937" y2="0.142806" style="stroke:rgb(246,147,147);stroke-width:0.01" />
<line x1="0.152436" y1="-0.203879" x2="-0.107245" y2="-0.065038" style="stroke:rgb(246,147,147);stroke-width:0.01" />
<line x1="0.0894895" y1="-0.194506" x2="-0.0883847" y2="-0.0404802" style="stroke:rgb(246,147,147);stroke-width:0.01" />
<line x1="0.152436" y1="-0.203879" x2="-0.0883847" y2="-0.0404802" style="stroke:rgb(246,147,147);stroke-width:0.01" />
<line x1="-0.254188" y1="0.282377" x2="0.225179" y2="0.367814" style="stroke:rgb(246,147,147);stroke-width:0.01" />
<line x1="0.370037" y1="0.129479" x2="0.225179" y2="0.367814" style="stroke:rgb(246,147,147);stroke-width:0.01" />
</g>
</svg>
