<svg xmlns="http://www.w3.org/2000/svg" viewBox="-1.5 -1.5 3 3">
<g transform="scale(1, -1)">
<path d="M0.054275 -0.477258 L0.172013 -0.426202 L0.111608 -0.286905 L0.133887 -0.212935 L0.148755 -0.213882 L0.160240 -0.125438 L0.148573 -0.122941 L0.148095 0.115830 L0.171943 0.156036 L0.147945 0.191210 L0.147925 0.201170 L0.141158 0.201156 L0.100533 0.260701 L0.012883 0.200900 L-0.052075 0.200770 L-0.070977 0.143685 L-0.267327 0.009720 L-0.398086 0.137738 L-0.506793 0.026703 L-0.504573 0.019943 z " fill="rgb(245,195,195)" />
<path d="M-0.645376 -0.639830 L0.354624 -0.639830 L0.354624 0.360170 L-0.645376 0.360170  z" fill="none" stroke="rgb(128,128,128)" stroke-width="0.01" />
<line x1="0.054275" y1="-0.477258" x2="0.16024" y2="-0.125438" style="stroke:rgb(246,147,147);stroke-width:0.01" />
<line x1="-0.0799168" y1="-0.268595" x2="0.171943" y2="0.156036" style="stroke:rgb(246,147,147);stroke-width:0.01" />
<line x1="-0.0883589" y1="-0.253865" x2="0.12703" y2="0.067" style="stroke:rgb(246,147,147);stroke-width:0.01" />
<line x1="0.054275" y1="-0.477258" x2="0.172013" y2="-0.426202" style="stroke:rgb(246,147,147);stroke-width:0.01" />
<line x1="0.0468012" y1="-0.297825" x2="0.0674618" y2="-0.185102" style="stroke:rgb(246,147,147);stroke-width:0.01" />
<line x1="-0.0883589" y1="-0.253865" x2="-0.0488853" y2="-0.102549" style="stroke:rgb(246,147,147);stroke-width:0.01" />
<line x1="0.148755" y1="-0.213882" x2="0.16024" y2="-0.125438" style="stroke:rgb(246,147,147);stroke-width:0.01" />
<line x1="-0.201292" y1="-0.249883" x2="-0.0520749" y2="0.20077" style="stroke:rgb(246,147,147);stroke-width:0.01" />
<line x1="-0.175946" y1="-0.272433" x2="-0.0488853" y2="-0.102549" style="stroke:rgb(246,147,147);stroke-width:0.01" />
<line x1="-0.0963373" y1="-0.34326" x2="-0.0442923" y2="-0.0737145" style="stroke:rgb(246,147,147);stroke-width:0.01" />
<line x1="-0.0799168" y1="-0.268595" x2="-0.0442923" y2="-0.0737145" style="stroke:rgb(246,147,147);stroke-width:0.01" />
<line x1="-0.175946" y1="-0.272433" x2="-0.10461" y2="-0.204795" style="stroke:rgb(246,147,147);stroke-width:0.01" />
<line x1="0.148755" y1="-0.213882" x2="0.147925" y2="0.20117" style="stroke:rgb(246,147,147);stroke-width:0.01" />
<line x1="-0.395099" y1="-0.0774551" x2="-0.353632" y2="0.00178603" style="stroke:rgb(246,147,147);stroke-width:0.01" />
<line x1="-0.504573" y1="0.0199428" x2="-0.506793" y2="0.0267032" style="stroke:rgb(246,147,147);stroke-width:0.01" />
<line x1="-0.0963373" y1="-0.34326" x2="0.0468012" y2="-0.297825" style="stroke:rgb(246,147,147);stroke-width:0.01" />
<line x1="-0.201292" y1="-0.249883" x2="-0.10461" y2="-0.204795" style="stroke:rgb(246,147,147);stroke-width:0.01" />
<line x1="-0.249009" y1="-0.207429" x2="-0.353632" y2="0.00178603" style="stroke:rgb(246,147,147);stroke-width:0.01" />
<line x1="-0.506793" y1="0.0267032" x2="-0.398086" y2="0.137738" style="stroke:rgb(246,147,147);stroke-width:0.01" />
<line x1="-0.395099" y1="-0.0774551" x2="0.100533" y2="0.260701" style="stroke:rgb(246,147,147);stroke-width:0.01" />
<line x1="0.172013" y1="-0.426202" x2="0.0674618" y2="-0.185102" style="stroke:rgb(246,147,147);stroke-width:0.01" />
<line x1="-0.10461" y1="-0.204795" x2="0.0674618" y2="-0.185102" style="stroke:rgb(246,147,147);stroke-width:0.01" />
<line x1="0.054275" y1="-0.477258" x2="-0.504573" y2="0.0199428" style="stroke:rgb(246,147,147);stroke-width:0.01" />
<line x1="0.148755" y1="-0.213882" x2="-0.182392" y2="-0.192803" style="stroke:rgb(246,147,147);stroke-width:0.01" />
<line x1="-0.0883589" y1="-0.253865" x2="-0.193005" y2="-0.224854" style="stroke:rgb(246,147,147);stroke-width:0.01" />
<line x1="-0.0799168" y1="-0.268595" x2="-0.249009" y2="-0.207429" style="stroke:rgb(246,147,147);stroke-width:0.01" />
<line x1="-0.0799168" y1="-0.268595" x2="-0.193005" y2="-0.224854" style="stroke:rgb(246,147,147);stroke-width:0.01" />
<line x1="0.0468012" y1="-0.297825" x2="-0.398086" y2="0.137738" style="stroke:rgb(246,147,147);stroke-width:0.01" />
<line x1="-0.0883589" y1="-0.253865" x2="-0.182392" y2="-0.192803" style="stroke:rgb(246,147,147);stroke-width:0.01" />
<line x1="0.171943" y1="0.156036" x2="0.100533" y2="0.260701" style="stroke:rgb(246,147,147);stroke-width:0.01" />
<line x1="-0.0442923" y1="-0.0737145" x2="-0.13763" y2="-0.0576152" style="stroke:rgb(246,147,147);stroke-width:0.01" />
<line x1="0.16024" y1="-0.125438" x2="-0.138889" y2="-0.0614176" style="stroke:rgb(246,147,147);stroke-width:0.01" />
<line x1="-0.0442923" y1="-0.0737145" x2="-0.504573" y2="0.0199428" style="stroke:rgb(246,147,147);stroke-width:0.01" />
<line x1="-0.0488853" y1="-0.102549" x2="-0.13763" y2="-0.0576152" style="stroke:rgb(246,147,147);stroke-width:0.01" />
<line x1="-0.0488853" y1="-0.102549" x2="-0.138889" y2="-0.0614176" style="stroke:rgb(246,147,147);stroke-width:0.01" />
<line x1="-0.353632" y1="0.00178603" x2="-0.506793" y2="0.0267032" style="stroke:rgb(246,147,147);stroke-width:0.01" />
<line x1="0.12703" y1="0.067" x2="-0.0520749" y2="0.20077" style="stroke:rgb(246,147,147);stroke-width:0.01" />
<line x1="-0.0520749" y1="0.20077" x2="0.147925" y2="0.20117" style="stroke:rgb(246,147,147);stroke-width:0.01" />
<line x1="0.12703" y1="0.067" x2="-0.0593101" y2="0.178919" style="stroke:rgb(246,147,147);stroke-width:0.01" />
<line x1="0.171943" y1="0.156036" x2="-0.0593101" y2="0.178919" style="stroke:rgb(246,147,147);stroke-width:0.01" />
</g>
</svg>
