<svg xmlns="http://www.w3.org/2000/svg" viewBox="-1.5 -1.5 3 3">
<g transform="scale(1, -1)">
<path d="M-0.003770 -0.375028 L0.238359 -0.347827 L0.201872 -0.023038 L0.492693 0.121549 L0.494298 0.129614 L0.463379 0.135767 L0.167935 0.279064 L0.115484 0.241971 L-0.061122 0.395121 L-0.161696 0.284837 L-0.156178 0.279805 L-0.170866 0.261987 L-0.107506 0.084276 L-0.138720 0.062201 L-0.125891 0.020636 L-0.168322 -0.081820 L-0.321777 -0.201549 L-0.321777 -0.370190 L-0.287748 -0.370190 L-0.113518 -0.253766 L-0.035131 -0.273420 z " fill="rgb(245,195,195)" />
<path d="M-0.321777 -0.370190 L0.678223 -0.370190 L0.678223 0.629810 L-0.321777 0.629810  z" fill="none" stroke="rgb(128,128,128)" stroke-width="0.01" />
<line x1="0.492693" y1="0.121549" x2="0.494298" y2="0.129614" style="stroke:rgb(246,147,147);stroke-width:0.01" />
<line x1="-0.00377003" y1="-0.375028" x2="0.09662" y2="-0.321883" style="stroke:rgb(246,147,147);stroke-width:0.01" />
<line x1="0.0768558" y1="-0.311386" x2="0.0967388" y2="-0.149191" style="stroke:rgb(246,147,147);stroke-width:0.01" />
<line x1="-0.00377003" y1="-0.375028" x2="0.238359" y2="-0.347827" style="stroke:rgb(246,147,147);stroke-width:0.01" />
<line x1="0.0768558" y1="-0.311386" x2="0.0966307" y2="-0.306457" style="stroke:rgb(246,147,147);stroke-width:0.01" />
<line x1="-0.287748" y1="-0.37019" x2="0.19796" y2="-0.0456291" style="stroke:rgb(246,147,147);stroke-width:0.01" />
<line x1="-0.287748" y1="-0.37019" x2="0.0053328" y2="0.337493" style="stroke:rgb(246,147,147);stroke-width:0.01" />
<line x1="0.09662" y1="-0.321883" x2="0.0967388" y2="-0.149191" style="stroke:rgb(246,147,147);stroke-width:0.01" />
<line x1="-0.321777" y1="-0.37019" x2="-0.287748" y2="-0.37019" style="stroke:rgb(246,147,147);stroke-width:0.01" />
<line x1="-0.321777" y1="-0.37019" x2="-0.321777" y2="-0.201549" style="stroke:rgb(246,147,147);stroke-width:0.01" />
<line x1="0.0967388" y1="-0.149191" x2="0.0663813" y2="0.101301" style="stroke:rgb(246,147,147);stroke-width:0.01" />
<line x1="0.238359" y1="-0.347827" x2="0.167935" y2="0.279064" style="stroke:rgb(246,147,147);stroke-width:0.01" />
<line x1="-0.028424" y1="-0.137534" x2="0.492693" y2="0.121549" style="stroke:rgb(246,147,147);stroke-width:0.01" />
<line x1="-0.00377003" y1="-0.375028" x2="-0.13872" y2="0.0622014" style="stroke:rgb(246,147,147);stroke-width:0.01" />
<line x1="-0.028424" y1="-0.137534" x2="0.19796" y2="-0.0456291" style="stroke:rgb(246,147,147);stroke-width:0.01" />
<line x1="-0.321777" y1="-0.201549" x2="0.0663813" y2="0.101301" style="stroke:rgb(246,147,147);stroke-width:0.01" />
<line x1="-0.028424" y1="-0.137534" x2="-0.170866" y2="0.261987" style="stroke:rgb(246,147,147);stroke-width:0.01" />
<line x1="0.19796" y1="-0.0456291" x2="0.12921" y2="0.230068" style="stroke:rgb(246,147,147);stroke-width:0.01" />
<line x1="0.0966307" y1="-0.306457" x2="-0.321777" y2="-0.201549" style="stroke:rgb(246,147,147);stroke-width:0.01" />
<line x1="-0.028424" y1="-0.137534" x2="-0.13872" y2="0.0622014" style="stroke:rgb(246,147,147);stroke-width:0.01" />
<line x1="-0.170866" y1="0.261987" x2="-0.0611218" y2="0.395121" style="stroke:rgb(246,147,147);stroke-width:0.01" />
<line x1="-0.13872" y1="0.0622014" x2="0.167935" y2="0.279064" style="stroke:rgb(246,147,147);stroke-width:0.01" />
<line x1="0.09662" y1="-0.321883" x2="0.0768558" y2="-0.311386" style="stroke:rgb(246,147,147);stroke-width:0.01" />
<line x1="-0.161696" y1="0.284837" x2="-0.0611218" y2="0.395121" style="stroke:rgb(246,147,147);stroke-width:0.01" />
<line x1="-0.130943" y1="0.256791" x2="0.0053328" y2="0.337493" style="stroke:rgb(246,147,147);stroke-width:0.01" />
<line x1="-0.13872" y1="0.0622014" x2="0.0663813" y2="0.101301" style="stroke:rgb(246,147,147);stroke-width:0.01" />
<line x1="0.19796" y1="-0.0456291" x2="0.0663813" y2="0.101301" style="stroke:rgb(246,147,147);stroke-width:0.01" />
<line x1="-0.130943" y1="0.256791" x2="-0.161696" y2="0.284837" style="stroke:rgb(246,147,147);stroke-width:0.01" />
<line x1="0.12921" y1="0.230068" x2="-0.0611218" y2="0.395121" style="stroke:rgb(246,147,147);stroke-width:0.01" />
<line x1="0.494298" y1="0.129614" x2="-0.170866" y2="0.261987" style="stroke:rgb(246,147,147);stroke-width:0.01" />
<line x1="0.12921" y1="0.230068" x2="-0.130943" y2="0.256791" style="stroke:rgb(246,147,147);stroke-width:0.01" />
<line x1="0.492693" y1="0.121549" x2="0.167935" y2="0.279064" style="stroke:rgb(246,147,147);stroke-width:0.01" />
</g>
</svg>
