<svg xmlns="http://www.w3.org/2000/svg" viewBox="-1.5 -1.5 3 3">
<g transform="scale(1, -1)">
<path d="M0.318007 -0.004837 L0.560135 0.022363 L0.523649 0.347153 L0.814470 0.491739 L0.816075 0.499804 L0.785155 0.505957 L0.489711 0.649255 L0.437260 0.612162 L0.260655 0.765312 L0.160080 0.655028 L0.165598 0.649996 L0.150911 0.632178 L0.214271 0.454466 L0.183057 0.432392 L0.195886 0.390826 L0.153455 0.288371 L0.000000 0.168641 L0.000000 0.000000 L0.034029 0.000000 L0.208259 0.116425 L0.286646 0.096771 z " fill="rgb(245,195,195)" />
<path d="M0.000000 0.000000 L1.000000 0.000000 L1.000000 1.000000 L0.000000 1.000000  z" fill="none" stroke="rgb(128,128,128)" stroke-width="0.01" />
<line x1="0.81447" y1="0.491739" x2="0.816075" y2="0.499804" style="stroke:rgb(246,147,147);stroke-width:0.01" />
<line x1="0.318007" y1="-0.00483727" x2="0.418397" y2="0.0483071" style="stroke:rgb(246,147,147);stroke-width:0.01" />
<line x1="0.398632" y1="0.0588046" x2="0.418515" y2="0.220999" style="stroke:rgb(246,147,147);stroke-width:0.01" />
<line x1="0.318007" y1="-0.00483727" x2="0.560135" y2="0.0223631" style="stroke:rgb(246,147,147);stroke-width:0.01" />
<line x1="0.398632" y1="0.0588046" x2="0.418407" y2="0.0637339" style="stroke:rgb(246,147,147);stroke-width:0.01" />
<line x1="0.0340291" y1="0" x2="0.519737" y2="0.324561" style="stroke:rgb(246,147,147);stroke-width:0.01" />
<line x1="0.0340291" y1="0" x2="0.327109" y2="0.707683" style="stroke:rgb(246,147,147);stroke-width:0.01" />
<line x1="0.418397" y1="0.0483071" x2="0.418515" y2="0.220999" style="stroke:rgb(246,147,147);stroke-width:0.01" />
<line x1="0" y1="0" x2="0.0340291" y2="0" style="stroke:rgb(246,147,147);stroke-width:0.01" />
<line x1="0" y1="0" x2="0" y2="0.168641" style="stroke:rgb(246,147,147);stroke-width:0.01" />
<line x1="0.418515" y1="0.220999" x2="0.388158" y2="0.471491" style="stroke:rgb(246,147,147);stroke-width:0.01" />
<line x1="0.560135" y1="0.0223631" x2="0.489711" y2="0.649255" style="stroke:rgb(246,147,147);stroke-width:0.01" />
<line x1="0.293353" y1="0.232657" x2="0.81447" y2="0.491739" style="stroke:rgb(246,147,147);stroke-width:0.01" />
<line x1="0.318007" y1="-0.00483727" x2="0.183057" y2="0.432392" style="stroke:rgb(246,147,147);stroke-width:0.01" />
<line x1="0.293353" y1="0.232657" x2="0.519737" y2="0.324561" style="stroke:rgb(246,147,147);stroke-width:0.01" />
<line x1="0" y1="0.168641" x2="0.388158" y2="0.471491" style="stroke:rgb(246,147,147);stroke-width:0.01" />
<line x1="0.293353" y1="0.232657" x2="0.150911" y2="0.632178" style="stroke:rgb(246,147,147);stroke-width:0.01" />
<line x1="0.519737" y1="0.324561" x2="0.450987" y2="0.600258" style="stroke:rgb(246,147,147);stroke-width:0.01" />
<line x1="0.418407" y1="0.0637339" x2="0" y2="0.168641" style="stroke:rgb(246,147,147);stroke-width:0.01" />
<line x1="0.293353" y1="0.232657" x2="0.183057" y2="0.432392" style="stroke:rgb(246,147,147);stroke-width:0.01" />
<line x1="0.150911" y1="0.632178" x2="0.260655" y2="0.765312" style="stroke:rgb(246,147,147);stroke-width:0.01" />
<line x1="0.183057" y1="0.432392" x2="0.489711" y2="0.649255" style="stroke:rgb(246,147,147);stroke-width:0.01" />
<line x1="0.418397" y1="0.0483071" x2="0.398632" y2="0.0588046" style="stroke:rgb(246,147,147);stroke-width:0.01" />
<line x1="0.16008" y1="0.655028" x2="0.260655" y2="0.765312" style="stroke:rgb(246,147,147);stroke-width:0.01" />
<line x1="0.190834" y1="0.626982" x2="0.327109" y2="0.707683" style="stroke:rgb(246,147,147);stroke-width:0.01" />
<line x1="0.183057" y1="0.432392" x2="0.388158" y2="0.471491" style="stroke:rgb(246,147,147);stroke-width:0.01" />
<line x1="0.519737" y1="0.324561" x2="0.388158" y2="0.471491" style="stroke:rgb(246,147,147);stroke-width:0.01" />
<line x1="0.190834" y1="0.626982" x2="0.16008" y2="0.655028" style="stroke:rgb(246,147,147);stroke-width:0.01" />
<line x1="0.450987" y1="0.600258" x2="0.260655" y2="0.765312" style="stroke:rgb(246,147,147);stroke-width:0.01" />
<line x1="0.816075" y1="0.499804" x2="0.150911" y2="0.632178" style="stroke:rgb(246,147,147);stroke-width:0.01" />
<line x1="0.450987" y1="0.600258" x2="0.190834" y2="0.626982" style="stroke:rgb(246,147,147);stroke-width:0.01" />
<line x1="0.81447" y1="0.491739" x2="0.489711" y2="0.649255" style="stroke:rgb(246,147,147);stroke-width:0.01" />
</g>
</svg>
