<svg xmlns="http://www.w3.org/2000/svg" viewBox="-1.5 -1.5 3 3">
<g transform="scale(1, -1)">
<path d="M0.312500 0.000000 L0.437500 0.000000 L0.467773 0.062500 L0.383163 0.169592 L0.421485 0.261564 L0.449822 0.260851 L0.451394 0.323332 L0.257851 0.328201 L0.226979 0.266458 L0.311331 0.159694 L0.270833 0.062500 z M0.338542 0.062500 L0.355660 0.103585 L0.388121 0.062500 z M0.338834 0.225700 L0.308248 0.264413 L0.354479 0.263250 z " fill="rgb(245,195,195)" />
<path d="M0.000000 0.000000 L1.000000 0.000000 L1.000000 1.000000 L0.000000 1.000000  z" fill="none" stroke="rgb(128,128,128)" stroke-width="0.01" />
<line x1="0.4375" y1="0" x2="0.467773" y2="0.0625" style="stroke:rgb(246,147,147);stroke-width:0.01" />
<line x1="0.3125" y1="0" x2="0.432692" y2="0.288462" style="stroke:rgb(246,147,147);stroke-width:0.01" />
<line x1="0.270833" y1="0.0625" x2="0.375" y2="0.3125" style="stroke:rgb(246,147,147);stroke-width:0.01" />
<line x1="0.226979" y1="0.266458" x2="0.257851" y2="0.328201" style="stroke:rgb(246,147,147);stroke-width:0.01" />
<line x1="0.449822" y1="0.260851" x2="0.451394" y2="0.323332" style="stroke:rgb(246,147,147);stroke-width:0.01" />
<line x1="0.3125" y1="0" x2="0.4375" y2="0" style="stroke:rgb(246,147,147);stroke-width:0.01" />
<line x1="0.270833" y1="0.0625" x2="0.467773" y2="0.0625" style="stroke:rgb(246,147,147);stroke-width:0.01" />
<line x1="0.3125" y1="0" x2="0.270833" y2="0.0625" style="stroke:rgb(246,147,147);stroke-width:0.01" />
<line x1="0.4375" y1="0" x2="0.226979" y2="0.266458" style="stroke:rgb(246,147,147);stroke-width:0.01" />
<line x1="0.467773" y1="0.0625" x2="0.257851" y2="0.328201" style="stroke:rgb(246,147,147);stroke-width:0.01" />
<line x1="0.449822" y1="0.260851" x2="0.226979" y2="0.266458" style="stroke:rgb(246,147,147);stroke-width:0.01" />
<line x1="0.451394" y1="0.323332" x2="0.257851" y2="0.328201" style="stroke:rgb(246,147,147);stroke-width:0.01" />
<line x1="0.432692" y1="0.288462" x2="0.375" y2="0.3125" style="stroke:rgb(246,147,147);stroke-width:0.01" />
</g>
</svg>
