<svg xmlns="http://www.w3.org/2000/svg" viewBox="-1.5 -1.5 3 3">
<g transform="scale(1, -1)">
<path d="M-0.044824 -0.169214 L0.080176 -0.169214 L0.110449 -0.106714 L0.025839 0.000378 L0.064161 0.092350 L0.092498 0.091637 L0.094070 0.154117 L-0.099474 0.158987 L-0.130345 0.097244 L-0.045994 -0.009521 L-0.086491 -0.106714 z M-0.018783 -0.106714 L-0.001664 -0.065629 L0.030796 -0.106714 z M-0.018491 0.056486 L-0.049077 0.095199 L-0.002845 0.094036 z " fill="rgb(245,195,195)" />
<path d="M-0.357324 -0.169214 L0.642676 -0.169214 L0.642676 0.830786 L-0.357324 0.830786  z" fill="none" stroke="rgb(128,128,128)" stroke-width="0.01" />
<line x1="0.0801756" y1="-0.169214" x2="0.110449" y2="-0.106714" style="stroke:rgb(246,147,147);stroke-width:0.01" />
<line x1="-0.0448244" y1="-0.169214" x2="0.0753679" y2="0.119247" style="stroke:rgb(246,147,147);stroke-width:0.01" />
<line x1="-0.0864911" y1="-0.106714" x2="0.0176756" y2="0.143286" style="stroke:rgb(246,147,147);stroke-width:0.01" />
<line x1="-0.130345" y1="0.0972441" x2="-0.0994738" y2="0.158987" style="stroke:rgb(246,147,147);stroke-width:0.01" />
<line x1="0.0924976" y1="0.0916371" x2="0.0940697" y2="0.154117" style="stroke:rgb(246,147,147);stroke-width:0.01" />
<line x1="-0.0448244" y1="-0.169214" x2="0.0801756" y2="-0.169214" style="stroke:rgb(246,147,147);stroke-width:0.01" />
<line x1="-0.0864911" y1="-0.106714" x2="0.110449" y2="-0.106714" style="stroke:rgb(246,147,147);stroke-width:0.01" />
<line x1="-0.0448244" y1="-0.169214" x2="-0.0864911" y2="-0.106714" style="stroke:rgb(246,147,147);stroke-width:0.01" />
<line x1="0.0801756" y1="-0.169214" x2="-0.130345" y2="0.0972441" style="stroke:rgb(246,147,147);stroke-width:0.01" />
<line x1="0.110449" y1="-0.106714" x2="-0.0994738" y2="0.158987" style="stroke:rgb(246,147,147);stroke-width:0.01" />
<line x1="0.0924976" y1="0.0916371" x2="-0.130345" y2="0.0972441" style="stroke:rgb(246,147,147);stroke-width:0.01" />
<line x1="0.0940697" y1="0.154117" x2="-0.0994738" y2="0.158987" style="stroke:rgb(246,147,147);stroke-width:0.01" />
<line x1="0.0753679" y1="0.119247" x2="0.0176756" y2="0.143286" style="stroke:rgb(246,147,147);stroke-width:0.01" />
</g>
</svg>
