<svg xmlns="http://www.w3.org/2000/svg" viewBox="-1.5 -1.5 3 3">
<g transform="scale(1, -1)">
<path d="M0.479597 -0.136373 L0.580379 0.010969 L0.474286 0.108901 L0.428571 0.071945 L0.428571 0.151099 L0.329418 0.242625 L0.285714 0.206522 L0.285714 0.180159 L0.255690 0.137246 L0.285714 0.028703 L0.285714 0.000000 L0.293654 0.000000 L0.324218 -0.110497 z " fill="rgb(245,195,195)" />
<path d="M0.000000 0.000000 L1.000000 0.000000 L1.000000 1.000000 L0.000000 1.000000  z" fill="none" stroke="rgb(128,128,128)" stroke-width="0.01" />
<line x1="0.445421" y1="-0.0981352" x2="0.580379" y2="0.0109691" style="stroke:rgb(246,147,147);stroke-width:0.01" />
<line x1="0.479597" y1="-0.136373" x2="0.580379" y2="0.0109691" style="stroke:rgb(246,147,147);stroke-width:0.01" />
<line x1="0.324218" y1="-0.110497" x2="0.474286" y2="0.108901" style="stroke:rgb(246,147,147);stroke-width:0.01" />
<line x1="0.355609" y1="0.0129591" x2="0.474286" y2="0.108901" style="stroke:rgb(246,147,147);stroke-width:0.01" />
<line x1="0.25569" y1="0.137246" x2="0.329418" y2="0.242625" style="stroke:rgb(246,147,147);stroke-width:0.01" />
<line x1="0.479597" y1="-0.136373" x2="0.324218" y2="-0.110497" style="stroke:rgb(246,147,147);stroke-width:0.01" />
<line x1="0.285714" y1="0.206522" x2="0.329418" y2="0.242625" style="stroke:rgb(246,147,147);stroke-width:0.01" />
<line x1="0.285714" y1="0" x2="0.428571" y2="0" style="stroke:rgb(246,147,147);stroke-width:0.01" />
<line x1="0.285714" y1="0" x2="0.285714" y2="0.206522" style="stroke:rgb(246,147,147);stroke-width:0.01" />
<line x1="0.428571" y1="0" x2="0.428571" y2="0.151099" style="stroke:rgb(246,147,147);stroke-width:0.01" />
<line x1="0.324218" y1="-0.110497" x2="0.25569" y2="0.137246" style="stroke:rgb(246,147,147);stroke-width:0.01" />
<line x1="0.479597" y1="-0.136373" x2="0.390311" y2="0.186416" style="stroke:rgb(246,147,147);stroke-width:0.01" />
<line x1="0.25569" y1="0.137246" x2="0.428571" y2="0.151099" style="stroke:rgb(246,147,147);stroke-width:0.01" />
<line x1="0.445421" y1="-0.0981352" x2="0.355609" y2="0.0129591" style="stroke:rgb(246,147,147);stroke-width:0.01" />
<line x1="0.390311" y1="0.186416" x2="0.285714" y2="0.206522" style="stroke:rgb(246,147,147);stroke-width:0.01" />
<line x1="0.580379" y1="0.0109691" x2="0.474286" y2="0.108901" style="stroke:rgb(246,147,147);stroke-width:0.01" />
<line x1="0.428571" y1="0.151099" x2="0.329418" y2="0.242625" style="stroke:rgb(246,147,147);stroke-width:0.01" />
</g>
</svg>
