<svg xmlns="http://www.w3.org/2000/svg" viewBox="-1.5 -1.5 3 3">
<g transform="scale(1, -1)">
<path d="M0.115194 -0.204935 L0.215976 -0.057592 L0.109882 0.040340 L0.064168 0.003383 L0.064168 0.082537 L-0.034985 0.174064 L-0.078689 0.137960 L-0.078689 0.111598 L-0.108713 0.068685 L-0.078689 -0.039859 L-0.078689 -0.068561 L-0.070749 -0.068561 L-0.040185 -0.179059 z " fill="rgb(245,195,195)" />
<path d="M-0.364403 -0.068561 L0.635597 -0.068561 L0.635597 0.931439 L-0.364403 0.931439  z" fill="none" stroke="rgb(128,128,128)" stroke-width="0.01" />
<line x1="0.0810174" y1="-0.166697" x2="0.215976" y2="-0.0575923" style="stroke:rgb(246,147,147);stroke-width:0.01" />
<line x1="0.115194" y1="-0.204935" x2="0.215976" y2="-0.0575923" style="stroke:rgb(246,147,147);stroke-width:0.01" />
<line x1="-0.0401851" y1="-0.179059" x2="0.109882" y2="0.0403399" style="stroke:rgb(246,147,147);stroke-width:0.01" />
<line x1="-0.00879468" y1="-0.0556023" x2="0.109882" y2="0.0403399" style="stroke:rgb(246,147,147);stroke-width:0.01" />
<line x1="-0.108713" y1="0.0686848" x2="-0.034985" y2="0.174064" style="stroke:rgb(246,147,147);stroke-width:0.01" />
<line x1="0.115194" y1="-0.204935" x2="-0.0401851" y2="-0.179059" style="stroke:rgb(246,147,147);stroke-width:0.01" />
<line x1="-0.0786889" y1="0.13796" x2="-0.034985" y2="0.174064" style="stroke:rgb(246,147,147);stroke-width:0.01" />
<line x1="-0.0786889" y1="-0.0685614" x2="0.0641682" y2="-0.0685614" style="stroke:rgb(246,147,147);stroke-width:0.01" />
<line x1="-0.0786889" y1="-0.0685614" x2="-0.0786889" y2="0.13796" style="stroke:rgb(246,147,147);stroke-width:0.01" />
<line x1="0.0641682" y1="-0.0685614" x2="0.0641682" y2="0.0825375" style="stroke:rgb(246,147,147);stroke-width:0.01" />
<line x1="-0.0401851" y1="-0.179059" x2="-0.108713" y2="0.0686848" style="stroke:rgb(246,147,147);stroke-width:0.01" />
<line x1="0.115194" y1="-0.204935" x2="0.0259078" y2="0.117855" style="stroke:rgb(246,147,147);stroke-width:0.01" />
<line x1="-0.108713" y1="0.0686848" x2="0.0641682" y2="0.0825375" style="stroke:rgb(246,147,147);stroke-width:0.01" />
<line x1="0.0810174" y1="-0.166697" x2="-0.00879468" y2="-0.0556023" style="stroke:rgb(246,147,147);stroke-width:0.01" />
<line x1="0.0259078" y1="0.117855" x2="-0.0786889" y2="0.13796" style="stroke:rgb(246,147,147);stroke-width:0.01" />
<line x1="0.215976" y1="-0.0575923" x2="0.109882" y2="0.0403399" style="stroke:rgb(246,147,147);stroke-width:0.01" />
<line x1="0.0641682" y1="0.0825375" x2="-0.034985" y2="0.174064" style="stroke:rgb(246,147,147);stroke-width:0.01" />
</g>
</svg>
