<svg xmlns="http://www.w3.org/2000/svg" viewBox="-1.5 -1.5 3 3">
<g transform="scale(1, -1)">
<path d="M0.417788 -0.290836 L0.400632 0.208870 L0.108386 0.198837 L0.096798 0.217177 L0.075412 0.213534 L-0.112504 0.437579 L-0.495595 0.116267 L-0.152322 -0.247277 L-0.090669 -0.189061 L-0.085877 -0.192675 L-0.079986 -0.193823 L-0.082062 -0.278593 z " fill="rgb(245,195,195)" />
<path d="M0.300854 1.659576 L1.300854 1.659576 L1.300854 2.659576 L0.300854 2.659576  z" fill="none" stroke="rgb(128,128,128)" stroke-width="0.01" />
<line x1="0.417788" y1="-0.290836" x2="-0.0820622" y2="-0.278593" style="stroke:rgb(246,147,147);stroke-width:0.01" />
<line x1="0.417788" y1="-0.290836" x2="-0.0858767" y2="-0.192675" style="stroke:rgb(246,147,147);stroke-width:0.01" />
<line x1="-0.0103683" y1="0.19476" x2="0.400632" y2="0.20887" style="stroke:rgb(246,147,147);stroke-width:0.01" />
<line x1="0.130434" y1="0.0197125" x2="-0.0725399" y2="0.11018" style="stroke:rgb(246,147,147);stroke-width:0.01" />
<line x1="-0.495595" y1="0.116267" x2="0.0967975" y2="0.217177" style="stroke:rgb(246,147,147);stroke-width:0.01" />
<line x1="-0.0858767" y1="-0.192675" x2="-0.495595" y2="0.116267" style="stroke:rgb(246,147,147);stroke-width:0.01" />
<line x1="0.151771" y1="0.122493" x2="-0.0103683" y2="0.19476" style="stroke:rgb(246,147,147);stroke-width:0.01" />
<line x1="-0.152322" y1="-0.247277" x2="-0.495595" y2="0.116267" style="stroke:rgb(246,147,147);stroke-width:0.01" />
<line x1="-0.0725399" y1="0.11018" x2="0.0967975" y2="0.217177" style="stroke:rgb(246,147,147);stroke-width:0.01" />
<line x1="-0.152322" y1="-0.247277" x2="0.130434" y2="0.0197125" style="stroke:rgb(246,147,147);stroke-width:0.01" />
<line x1="0.151771" y1="0.122493" x2="-0.112504" y2="0.437579" style="stroke:rgb(246,147,147);stroke-width:0.01" />
<line x1="-0.495595" y1="0.116267" x2="-0.112504" y2="0.437579" style="stroke:rgb(246,147,147);stroke-width:0.01" />
<line x1="0.417788" y1="-0.290836" x2="0.0967975" y2="0.217177" style="stroke:rgb(246,147,147);stroke-width:0.01" />
<line x1="-0.0858767" y1="-0.192675" x2="0.151771" y2="0.122493" style="stroke:rgb(246,147,147);stroke-width:0.01" />
<line x1="0.130434" y1="0.0197125" x2="0.0967975" y2="0.217177" style="stroke:rgb(246,147,147);stroke-width:0.01" />
<line x1="0.417788" y1="-0.290836" x2="0.400632" y2="0.20887" style="stroke:rgb(246,147,147);stroke-width:0.01" />
<line x1="-0.0858767" y1="-0.192675" x2="-0.0103683" y2="0.19476" style="stroke:rgb(246,147,147);stroke-width:0.01" />
<line x1="-0.0820622" y1="-0.278593" x2="-0.0725399" y2="0.11018" style="stroke:rgb(246,147,147);stroke-width:0.01" />
</g>
</svg>
