<svg xmlns="http://www.w3.org/2000/svg" viewBox="-1.5 -1.5 3 3">
<g transform="scale(1, -1)">
<path d="M0.116934 -1.950411 L0.099778 -1.450706 L-0.192468 -1.460739 L-0.204057 -1.442399 L-0.225443 -1.446042 L-0.413358 -1.221996 L-0.796449 -1.543309 L-0.453177 -1.906853 L-0.391523 -1.848637 L-0.386731 -1.852250 L-0.380840 -1.853398 L-0.382916 -1.938168 z " fill="rgb(245,195,195)" />
<path d="M0.000000 0.000000 L1.000000 0.000000 L1.000000 1.000000 L0.000000 1.000000  z" fill="none" stroke="rgb(128,128,128)" stroke-width="0.01" />
<line x1="0.116934" y1="-1.95041" x2="-0.382916" y2="-1.93817" style="stroke:rgb(246,147,147);stroke-width:0.01" />
<line x1="0.116934" y1="-1.95041" x2="-0.386731" y2="-1.85225" style="stroke:rgb(246,147,147);stroke-width:0.01" />
<line x1="-0.311222" y1="-1.46482" x2="0.0997781" y2="-1.45071" style="stroke:rgb(246,147,147);stroke-width:0.01" />
<line x1="-0.17042" y1="-1.63986" x2="-0.373394" y2="-1.5494" style="stroke:rgb(246,147,147);stroke-width:0.01" />
<line x1="-0.796449" y1="-1.54331" x2="-0.204057" y2="-1.4424" style="stroke:rgb(246,147,147);stroke-width:0.01" />
<line x1="-0.386731" y1="-1.85225" x2="-0.796449" y2="-1.54331" style="stroke:rgb(246,147,147);stroke-width:0.01" />
<line x1="-0.149083" y1="-1.53708" x2="-0.311222" y2="-1.46482" style="stroke:rgb(246,147,147);stroke-width:0.01" />
<line x1="-0.453177" y1="-1.90685" x2="-0.796449" y2="-1.54331" style="stroke:rgb(246,147,147);stroke-width:0.01" />
<line x1="-0.373394" y1="-1.5494" x2="-0.204057" y2="-1.4424" style="stroke:rgb(246,147,147);stroke-width:0.01" />
<line x1="-0.453177" y1="-1.90685" x2="-0.17042" y2="-1.63986" style="stroke:rgb(246,147,147);stroke-width:0.01" />
<line x1="-0.149083" y1="-1.53708" x2="-0.413358" y2="-1.222" style="stroke:rgb(246,147,147);stroke-width:0.01" />
<line x1="-0.796449" y1="-1.54331" x2="-0.413358" y2="-1.222" style="stroke:rgb(246,147,147);stroke-width:0.01" />
<line x1="0.116934" y1="-1.95041" x2="-0.204057" y2="-1.4424" style="stroke:rgb(246,147,147);stroke-width:0.01" />
<line x1="-0.386731" y1="-1.85225" x2="-0.149083" y2="-1.53708" style="stroke:rgb(246,147,147);stroke-width:0.01" />
<line x1="-0.17042" y1="-1.63986" x2="-0.204057" y2="-1.4424" style="stroke:rgb(246,147,147);stroke-width:0.01" />
<line x1="0.116934" y1="-1.95041" x2="0.0997781" y2="-1.45071" style="stroke:rgb(246,147,147);stroke-width:0.01" />
<line x1="-0.386731" y1="-1.85225" x2="-0.311222" y2="-1.46482" style="stroke:rgb(246,147,147);stroke-width:0.01" />
<line x1="-0.382916" y1="-1.93817" x2="-0.373394" y2="-1.5494" style="stroke:rgb(246,147,147);stroke-width:0.01" />
</g>
</svg>
