<svg xmlns="http://www.w3.org/2000/svg" viewBox="-1.5 -1.5 3 3">
<g transform="scale(1, -1)">
<path d="M-0.306995 0.700081 L0.050885 0.993492 L0.064543 1.255677 L-0.096244 1.423219 L-0.118937 1.401442 L-0.106660 1.210973 L-0.756050 1.171227 L-0.863260 1.124367 L-0.900554 1.063447 z " fill="rgb(245,195,195)" />
<path d="M0.000000 0.000000 L1.000000 0.000000 L1.000000 1.000000 L0.000000 1.000000  z" fill="none" stroke="rgb(128,128,128)" stroke-width="0.01" />
<line x1="-0.306995" y1="0.700081" x2="-0.411824" y2="0.985487" style="stroke:rgb(246,147,147);stroke-width:0.01" />
<line x1="-0.102646" y1="1.1487" x2="-0.118937" y2="1.40144" style="stroke:rgb(246,147,147);stroke-width:0.01" />
<line x1="0" y1="0.951773" x2="0" y2="1" style="stroke:rgb(246,147,147);stroke-width:0.01" />
<line x1="0.0508851" y1="0.993492" x2="0.064543" y2="1.25568" style="stroke:rgb(246,147,147);stroke-width:0.01" />
<line x1="-0.000313257" y1="1.28296" x2="0.00046375" y2="1.31327" style="stroke:rgb(246,147,147);stroke-width:0.01" />
<line x1="-0.00537192" y1="0.947369" x2="-0.0268031" y2="1.17844" style="stroke:rgb(246,147,147);stroke-width:0.01" />
<line x1="0.0436659" y1="1.00079" x2="0.0224129" y2="1.22807" style="stroke:rgb(246,147,147);stroke-width:0.01" />
<line x1="-0.0413348" y1="1.08672" x2="0.0224129" y2="1.22807" style="stroke:rgb(246,147,147);stroke-width:0.01" />
<line x1="-0.306995" y1="0.700081" x2="-0.900554" y2="1.06345" style="stroke:rgb(246,147,147);stroke-width:0.01" />
<line x1="-0.102646" y1="1.1487" x2="-0.000313257" y2="1.28296" style="stroke:rgb(246,147,147);stroke-width:0.01" />
<line x1="0.0508851" y1="0.993492" x2="-0.102646" y2="1.1487" style="stroke:rgb(246,147,147);stroke-width:0.01" />
<line x1="-0.306995" y1="0.700081" x2="0.0508851" y2="0.993492" style="stroke:rgb(246,147,147);stroke-width:0.01" />
<line x1="0.064543" y1="1.25568" x2="-0.0962441" y2="1.42322" style="stroke:rgb(246,147,147);stroke-width:0.01" />
<line x1="-0.900554" y1="1.06345" x2="-0.86326" y2="1.12437" style="stroke:rgb(246,147,147);stroke-width:0.01" />
<line x1="-0.0268031" y1="1.17844" x2="0.064543" y2="1.25568" style="stroke:rgb(246,147,147);stroke-width:0.01" />
<line x1="-0.118937" y1="1.40144" x2="-0.0962441" y2="1.42322" style="stroke:rgb(246,147,147);stroke-width:0.01" />
<line x1="0.00046375" y1="1.31327" x2="-0.118937" y2="1.40144" style="stroke:rgb(246,147,147);stroke-width:0.01" />
<line x1="-0.00537192" y1="0.947369" x2="-0.75605" y2="1.17123" style="stroke:rgb(246,147,147);stroke-width:0.01" />
<line x1="0.0580081" y1="1.13023" x2="-0.0268031" y2="1.17844" style="stroke:rgb(246,147,147);stroke-width:0.01" />
<line x1="-0.108599" y1="1.24106" x2="0.00046375" y2="1.31327" style="stroke:rgb(246,147,147);stroke-width:0.01" />
<line x1="0" y1="0.951773" x2="-0.86326" y2="1.12437" style="stroke:rgb(246,147,147);stroke-width:0.01" />
<line x1="-0.0413348" y1="1.08672" x2="0.0580081" y2="1.13023" style="stroke:rgb(246,147,147);stroke-width:0.01" />
<line x1="0.0594859" y1="1.1586" x2="-0.108599" y2="1.24106" style="stroke:rgb(246,147,147);stroke-width:0.01" />
<line x1="0.0512242" y1="1" x2="0.0436659" y2="1.00079" style="stroke:rgb(246,147,147);stroke-width:0.01" />
<line x1="0" y1="1" x2="0.0512242" y2="1" style="stroke:rgb(246,147,147);stroke-width:0.01" />
<line x1="-0.411824" y1="0.985487" x2="0.0594859" y2="1.1586" style="stroke:rgb(246,147,147);stroke-width:0.01" />
<line x1="-0.109176" y1="1.25001" x2="-0.000313257" y2="1.28296" style="stroke:rgb(246,147,147);stroke-width:0.01" />
<line x1="0.0627544" y1="1.22134" x2="-0.109176" y2="1.25001" style="stroke:rgb(246,147,147);stroke-width:0.01" />
<line x1="-0.75605" y1="1.17123" x2="0.0627544" y2="1.22134" style="stroke:rgb(246,147,147);stroke-width:0.01" />
<line x1="-0.86326" y1="1.12437" x2="-0.75605" y2="1.17123" style="stroke:rgb(246,147,147);stroke-width:0.01" />
</g>
</svg>
