<svg xmlns="http://www.w3.org/2000/svg" viewBox="-1.5 -1.5 3 3">
<g transform="scale(1, -1)">
<path d="M0.034628 -0.173977 L0.123385 -0.085959 L0.124125 0.090816 L0.248385 0.214041 L-0.246585 0.216112 L-0.123360 0.091852 L-0.124100 -0.084924 L-0.036082 -0.173681 z M0.034998 -0.085589 L-0.035713 -0.085293 L-0.035195 0.038449 L0.035515 0.038153 z " fill="rgb(245,195,195)" />
<path d="M-0.246585 -0.173977 L0.753415 -0.173977 L0.753415 0.826023 L-0.246585 0.826023  z" fill="none" stroke="rgb(128,128,128)" stroke-width="0.01" />
<line x1="0.0346277" y1="-0.173977" x2="0.123385" y2="-0.0859591" style="stroke:rgb(246,147,147);stroke-width:0.01" />
<line x1="-0.000727318" y1="-0.173829" x2="0.0880301" y2="-0.0858111" style="stroke:rgb(246,147,147);stroke-width:0.01" />
<line x1="0.0352194" y1="-0.0325567" x2="0.123977" y2="0.055461" style="stroke:rgb(246,147,147);stroke-width:0.01" />
<line x1="0.0708703" y1="0.0380054" x2="0.248385" y2="0.214041" style="stroke:rgb(246,147,147);stroke-width:0.01" />
<line x1="-0.106497" y1="-0.102675" x2="-0.0354906" y2="-0.0322608" style="stroke:rgb(246,147,147);stroke-width:0.01" />
<line x1="0.0355153" y1="0.0381534" x2="0.124273" y2="0.126171" style="stroke:rgb(246,147,147);stroke-width:0.01" />
<line x1="0.123385" y1="-0.0859591" x2="0.124273" y2="0.126171" style="stroke:rgb(246,147,147);stroke-width:0.01" />
<line x1="0.0346277" y1="-0.173977" x2="0.0362549" y2="0.214929" style="stroke:rgb(246,147,147);stroke-width:0.01" />
<line x1="-0.0360823" y1="-0.173681" x2="-0.0344551" y2="0.215224" style="stroke:rgb(246,147,147);stroke-width:0.01" />
<line x1="-0.1241" y1="-0.0849236" x2="-0.123213" y2="0.127207" style="stroke:rgb(246,147,147);stroke-width:0.01" />
<line x1="0.0346277" y1="-0.173977" x2="-0.0360823" y2="-0.173681" style="stroke:rgb(246,147,147);stroke-width:0.01" />
<line x1="-0.0705498" y1="0.0385971" x2="0.071462" y2="0.179426" style="stroke:rgb(246,147,147);stroke-width:0.01" />
<line x1="-0.123508" y1="0.0564965" x2="-0.034751" y2="0.144514" style="stroke:rgb(246,147,147);stroke-width:0.01" />
<line x1="0.123385" y1="-0.0859591" x2="-0.1241" y2="-0.0849236" style="stroke:rgb(246,147,147);stroke-width:0.01" />
<line x1="-0.123213" y1="0.127207" x2="-0.0344551" y2="0.215224" style="stroke:rgb(246,147,147);stroke-width:0.01" />
<line x1="-0.0360823" y1="-0.173681" x2="-0.1241" y2="-0.0849236" style="stroke:rgb(246,147,147);stroke-width:0.01" />
<line x1="-0.000727318" y1="-0.173829" x2="-0.0887451" y2="-0.0850715" style="stroke:rgb(246,147,147);stroke-width:0.01" />
<line x1="-0.0354906" y1="-0.0322608" x2="-0.123508" y2="0.0564965" style="stroke:rgb(246,147,147);stroke-width:0.01" />
<line x1="-0.0705498" y1="0.0385971" x2="-0.246585" y2="0.216112" style="stroke:rgb(246,147,147);stroke-width:0.01" />
<line x1="0.105634" y1="-0.103563" x2="0.0352194" y2="-0.0325567" style="stroke:rgb(246,147,147);stroke-width:0.01" />
<line x1="-0.0351948" y1="0.0384492" x2="-0.123213" y2="0.127207" style="stroke:rgb(246,147,147);stroke-width:0.01" />
<line x1="0.123903" y1="0.0377835" x2="-0.123582" y2="0.038819" style="stroke:rgb(246,147,147);stroke-width:0.01" />
<line x1="0.0708703" y1="0.0380054" x2="-0.0699581" y2="0.180017" style="stroke:rgb(246,147,147);stroke-width:0.01" />
<line x1="0.123977" y1="0.055461" x2="0.0359591" y2="0.144218" style="stroke:rgb(246,147,147);stroke-width:0.01" />
<line x1="0.124273" y1="0.126171" x2="0.0362549" y2="0.214929" style="stroke:rgb(246,147,147);stroke-width:0.01" />
<line x1="0.248385" y1="0.214041" x2="-0.246585" y2="0.216112" style="stroke:rgb(246,147,147);stroke-width:0.01" />
</g>
</svg>
