<svg xmlns="http://www.w3.org/2000/svg" viewBox="-1.5 -1.5 3 3">
<g transform="scale(1, -1)">
<path d="M0.281213 0.000000 L0.369970 0.088018 L0.370710 0.264793 L0.494970 0.388018 L0.000000 0.390089 L0.123225 0.265828 L0.122485 0.089053 L0.210503 0.000296 z M0.281583 0.088388 L0.210873 0.088683 L0.211391 0.212426 L0.282101 0.212130 z " fill="rgb(245,195,195)" />
<path d="M0.000000 0.000000 L1.000000 0.000000 L1.000000 1.000000 L0.000000 1.000000  z" fill="none" stroke="rgb(128,128,128)" stroke-width="0.01" />
<line x1="0.281213" y1="0" x2="0.36997" y2="0.0880178" style="stroke:rgb(246,147,147);stroke-width:0.01" />
<line x1="0.245858" y1="0.000147929" x2="0.334615" y2="0.0881657" style="stroke:rgb(246,147,147);stroke-width:0.01" />
<line x1="0.281805" y1="0.14142" x2="0.370562" y2="0.229438" style="stroke:rgb(246,147,147);stroke-width:0.01" />
<line x1="0.317456" y1="0.211982" x2="0.49497" y2="0.388018" style="stroke:rgb(246,147,147);stroke-width:0.01" />
<line x1="0.140089" y1="0.0713018" x2="0.211095" y2="0.141716" style="stroke:rgb(246,147,147);stroke-width:0.01" />
<line x1="0.282101" y1="0.21213" x2="0.370858" y2="0.300148" style="stroke:rgb(246,147,147);stroke-width:0.01" />
<line x1="0.36997" y1="0.0880178" x2="0.370858" y2="0.300148" style="stroke:rgb(246,147,147);stroke-width:0.01" />
<line x1="0.281213" y1="0" x2="0.28284" y2="0.388905" style="stroke:rgb(246,147,147);stroke-width:0.01" />
<line x1="0.210503" y1="0.000295858" x2="0.21213" y2="0.389201" style="stroke:rgb(246,147,147);stroke-width:0.01" />
<line x1="0.122485" y1="0.0890533" x2="0.123373" y2="0.301183" style="stroke:rgb(246,147,147);stroke-width:0.01" />
<line x1="0.281213" y1="0" x2="0.210503" y2="0.000295858" style="stroke:rgb(246,147,147);stroke-width:0.01" />
<line x1="0.176036" y1="0.212574" x2="0.318047" y2="0.353402" style="stroke:rgb(246,147,147);stroke-width:0.01" />
<line x1="0.123077" y1="0.230473" x2="0.211834" y2="0.318491" style="stroke:rgb(246,147,147);stroke-width:0.01" />
<line x1="0.36997" y1="0.0880178" x2="0.122485" y2="0.0890533" style="stroke:rgb(246,147,147);stroke-width:0.01" />
<line x1="0.123373" y1="0.301183" x2="0.21213" y2="0.389201" style="stroke:rgb(246,147,147);stroke-width:0.01" />
<line x1="0.210503" y1="0.000295858" x2="0.122485" y2="0.0890533" style="stroke:rgb(246,147,147);stroke-width:0.01" />
<line x1="0.245858" y1="0.000147929" x2="0.15784" y2="0.0889053" style="stroke:rgb(246,147,147);stroke-width:0.01" />
<line x1="0.211095" y1="0.141716" x2="0.123077" y2="0.230473" style="stroke:rgb(246,147,147);stroke-width:0.01" />
<line x1="0.176036" y1="0.212574" x2="0" y2="0.390089" style="stroke:rgb(246,147,147);stroke-width:0.01" />
<line x1="0.352219" y1="0.0704142" x2="0.281805" y2="0.14142" style="stroke:rgb(246,147,147);stroke-width:0.01" />
<line x1="0.211391" y1="0.212426" x2="0.123373" y2="0.301183" style="stroke:rgb(246,147,147);stroke-width:0.01" />
<line x1="0.370488" y1="0.21176" x2="0.123003" y2="0.212796" style="stroke:rgb(246,147,147);stroke-width:0.01" />
<line x1="0.317456" y1="0.211982" x2="0.176627" y2="0.353994" style="stroke:rgb(246,147,147);stroke-width:0.01" />
<line x1="0.370562" y1="0.229438" x2="0.282544" y2="0.318195" style="stroke:rgb(246,147,147);stroke-width:0.01" />
<line x1="0.370858" y1="0.300148" x2="0.28284" y2="0.388905" style="stroke:rgb(246,147,147);stroke-width:0.01" />
<line x1="0.49497" y1="0.388018" x2="0" y2="0.390089" style="stroke:rgb(246,147,147);stroke-width:0.01" />
</g>
</svg>
