<svg xmlns="http://www.w3.org/2000/svg" viewBox="-1.5 -1.5 3 3">
<g transform="scale(1, -1)">
<path d="M-0.069505 -0.397938 L0.123104 -0.325369 L0.222500 -0.189504 L0.188920 0.042252 L0.188630 0.043904 L-0.013768 0.447693 L-0.126366 0.465410 L-0.513515 -0.086450 z " fill="rgb(245,195,195)" />
<path d="M0.022035 0.210429 L1.022035 0.210429 L1.022035 1.210429 L0.022035 1.210429  z" fill="none" stroke="rgb(128,128,128)" stroke-width="0.01" />
<line x1="-0.118902" y1="-0.363284" x2="-0.0951269" y2="-0.362387" style="stroke:rgb(246,147,147);stroke-width:0.01" />
<line x1="-0.0695053" y1="-0.397938" x2="0.123104" y2="-0.325369" style="stroke:rgb(246,147,147);stroke-width:0.01" />
<line x1="-0.0695053" y1="-0.397938" x2="-0.513515" y2="-0.0864495" style="stroke:rgb(246,147,147);stroke-width:0.01" />
<line x1="0.127517" y1="-0.241761" x2="0.198668" y2="-0.22208" style="stroke:rgb(246,147,147);stroke-width:0.01" />
<line x1="0.214817" y1="-0.183646" x2="0.221501" y2="-0.182609" style="stroke:rgb(246,147,147);stroke-width:0.01" />
<line x1="0.129989" y1="-0.19494" x2="0.221501" y2="-0.182609" style="stroke:rgb(246,147,147);stroke-width:0.01" />
<line x1="0.205108" y1="-0.213277" x2="0.129989" y2="-0.19494" style="stroke:rgb(246,147,147);stroke-width:0.01" />
<line x1="0.171571" y1="-0.259119" x2="0.127517" y2="-0.241761" style="stroke:rgb(246,147,147);stroke-width:0.01" />
<line x1="-0.0219537" y1="-0.202268" x2="0.152178" y2="-0.126362" style="stroke:rgb(246,147,147);stroke-width:0.01" />
<line x1="0.0988583" y1="-0.169737" x2="0.152178" y2="-0.126362" style="stroke:rgb(246,147,147);stroke-width:0.01" />
<line x1="0.123104" y1="-0.325369" x2="0.2225" y2="-0.189504" style="stroke:rgb(246,147,147);stroke-width:0.01" />
<line x1="0.0887268" y1="-0.338321" x2="-0.0219537" y2="-0.202268" style="stroke:rgb(246,147,147);stroke-width:0.01" />
<line x1="0.2225" y1="-0.189504" x2="0.214817" y2="-0.183646" style="stroke:rgb(246,147,147);stroke-width:0.01" />
<line x1="0.171571" y1="-0.259119" x2="0.0988583" y2="-0.169737" style="stroke:rgb(246,147,147);stroke-width:0.01" />
<line x1="-0.118902" y1="-0.363284" x2="-0.303293" y2="0.21321" style="stroke:rgb(246,147,147);stroke-width:0.01" />
<line x1="0.205108" y1="-0.213277" x2="0.152178" y2="-0.126362" style="stroke:rgb(246,147,147);stroke-width:0.01" />
<line x1="-0.0695053" y1="-0.397938" x2="-0.0219537" y2="-0.202268" style="stroke:rgb(246,147,147);stroke-width:0.01" />
<line x1="0.123104" y1="-0.325369" x2="0.129989" y2="-0.19494" style="stroke:rgb(246,147,147);stroke-width:0.01" />
<line x1="-0.0951269" y1="-0.362387" x2="-0.126366" y2="0.46541" style="stroke:rgb(246,147,147);stroke-width:0.01" />
<line x1="0.0887268" y1="-0.338321" x2="0.0673855" y2="0.227199" style="stroke:rgb(246,147,147);stroke-width:0.01" />
<line x1="0.198668" y1="-0.22208" x2="0.18863" y2="0.0439043" style="stroke:rgb(246,147,147);stroke-width:0.01" />
<line x1="-0.303293" y1="0.21321" x2="0.0673855" y2="0.227199" style="stroke:rgb(246,147,147);stroke-width:0.01" />
<line x1="0.214817" y1="-0.183646" x2="0.18892" y2="0.0422521" style="stroke:rgb(246,147,147);stroke-width:0.01" />
<line x1="0.2225" y1="-0.189504" x2="0.18892" y2="0.0422521" style="stroke:rgb(246,147,147);stroke-width:0.01" />
<line x1="0.18863" y1="0.0439043" x2="-0.100283" y2="0.448833" style="stroke:rgb(246,147,147);stroke-width:0.01" />
<line x1="0.18892" y1="0.0422521" x2="0.18863" y2="0.0439043" style="stroke:rgb(246,147,147);stroke-width:0.01" />
<line x1="0.18863" y1="0.0439043" x2="-0.0137676" y2="0.447693" style="stroke:rgb(246,147,147);stroke-width:0.01" />
<line x1="-0.0500784" y1="0.410751" x2="-0.0859607" y2="0.459053" style="stroke:rgb(246,147,147);stroke-width:0.01" />
<line x1="-0.0500784" y1="0.410751" x2="-0.126366" y2="0.46541" style="stroke:rgb(246,147,147);stroke-width:0.01" />
<line x1="-0.0500784" y1="0.410751" x2="-0.0137676" y2="0.447693" style="stroke:rgb(246,147,147);stroke-width:0.01" />
<line x1="-0.513515" y1="-0.0864495" x2="-0.126366" y2="0.46541" style="stroke:rgb(246,147,147);stroke-width:0.01" />
<line x1="-0.100283" y1="0.448833" x2="-0.0859607" y2="0.459053" style="stroke:rgb(246,147,147);stroke-width:0.01" />
<line x1="-0.0137676" y1="0.447693" x2="-0.126366" y2="0.46541" style="stroke:rgb(246,147,147);stroke-width:0.01" />
</g>
</svg>
