<svg xmlns="http://www.w3.org/2000/svg" viewBox="-1.5 -1.5 3 3">
<g transform="scale(1, -1)">
<path d="M0.197832 -0.411610 L0.323609 -0.283709 L0.329206 -0.285067 L0.434889 -0.107589 L0.209821 0.026432 L0.217472 0.143852 L0.153233 0.148038 L0.206143 0.338034 L0.203088 0.341715 L0.193249 0.333548 L-0.121836 0.223923 L-0.138668 0.058053 L-0.158414 0.041663 L-0.435853 0.007708 L-0.441637 0.009872 L-0.567368 -0.145664 L-0.474527 -0.220714 L-0.130237 -0.218485 z " fill="rgb(245,195,195)" />
<path d="M-0.506444 -0.573857 L0.493556 -0.573857 L0.493556 0.426143 L-0.506444 0.426143  z" fill="none" stroke="rgb(128,128,128)" stroke-width="0.01" />
<line x1="0.329206" y1="-0.285067" x2="0.434889" y2="-0.107589" style="stroke:rgb(246,147,147);stroke-width:0.01" />
<line x1="0.197832" y1="-0.41161" x2="0.328802" y2="-0.278429" style="stroke:rgb(246,147,147);stroke-width:0.01" />
<line x1="0.181887" y1="-0.402223" x2="0.204993" y2="-0.387355" style="stroke:rgb(246,147,147);stroke-width:0.01" />
<line x1="0.197832" y1="-0.41161" x2="0.204993" y2="-0.387355" style="stroke:rgb(246,147,147);stroke-width:0.01" />
<line x1="0.0514908" y1="-0.217308" x2="0.206143" y2="0.338034" style="stroke:rgb(246,147,147);stroke-width:0.01" />
<line x1="-0.0578304" y1="-0.261108" x2="0.113352" y2="0.0749243" style="stroke:rgb(246,147,147);stroke-width:0.01" />
<line x1="-0.0578304" y1="-0.261108" x2="-0.0217947" y2="-0.207629" style="stroke:rgb(246,147,147);stroke-width:0.01" />
<line x1="-0.0417143" y1="-0.270595" x2="-0.0217947" y2="-0.207629" style="stroke:rgb(246,147,147);stroke-width:0.01" />
<line x1="-0.0417143" y1="-0.270595" x2="0.0496892" y2="-0.173984" style="stroke:rgb(246,147,147);stroke-width:0.01" />
<line x1="-0.169671" y1="-0.195271" x2="-0.137138" y2="-0.104073" style="stroke:rgb(246,147,147);stroke-width:0.01" />
<line x1="-0.161404" y1="-0.165994" x2="-0.137138" y2="-0.104073" style="stroke:rgb(246,147,147);stroke-width:0.01" />
<line x1="-0.156166" y1="-0.203221" x2="-0.122672" y2="-0.141839" style="stroke:rgb(246,147,147);stroke-width:0.01" />
<line x1="-0.156166" y1="-0.203221" x2="0.0697517" y2="0.153478" style="stroke:rgb(246,147,147);stroke-width:0.01" />
<line x1="0.181887" y1="-0.402223" x2="0.217472" y2="0.143852" style="stroke:rgb(246,147,147);stroke-width:0.01" />
<line x1="-0.161404" y1="-0.165994" x2="-0.121836" y2="0.223923" style="stroke:rgb(246,147,147);stroke-width:0.01" />
<line x1="-0.169671" y1="-0.195271" x2="-0.122672" y2="-0.141839" style="stroke:rgb(246,147,147);stroke-width:0.01" />
<line x1="-0.441742" y1="0.00698732" x2="-0.441637" y2="0.00987241" style="stroke:rgb(246,147,147);stroke-width:0.01" />
<line x1="0.0514908" y1="-0.217308" x2="0.0496892" y2="-0.173984" style="stroke:rgb(246,147,147);stroke-width:0.01" />
<line x1="0.329206" y1="-0.285067" x2="0.328802" y2="-0.278429" style="stroke:rgb(246,147,147);stroke-width:0.01" />
<line x1="-0.474527" y1="-0.220714" x2="0.203088" y2="0.341715" style="stroke:rgb(246,147,147);stroke-width:0.01" />
<line x1="-0.567368" y1="-0.145664" x2="-0.441637" y2="0.00987241" style="stroke:rgb(246,147,147);stroke-width:0.01" />
<line x1="-0.474527" y1="-0.220714" x2="-0.567368" y2="-0.145664" style="stroke:rgb(246,147,147);stroke-width:0.01" />
<line x1="-0.31391" y1="-0.110362" x2="-0.441742" y2="0.00698732" style="stroke:rgb(246,147,147);stroke-width:0.01" />
<line x1="-0.474527" y1="-0.220714" x2="0.0514908" y2="-0.217308" style="stroke:rgb(246,147,147);stroke-width:0.01" />
<line x1="0.113352" y1="0.0749243" x2="0.0697517" y2="0.153478" style="stroke:rgb(246,147,147);stroke-width:0.01" />
<line x1="0.197832" y1="-0.41161" x2="-0.31391" y2="-0.110362" style="stroke:rgb(246,147,147);stroke-width:0.01" />
<line x1="0.204993" y1="-0.387355" x2="-0.122672" y2="-0.141839" style="stroke:rgb(246,147,147);stroke-width:0.01" />
<line x1="0.0514908" y1="-0.217308" x2="-0.161404" y2="-0.165994" style="stroke:rgb(246,147,147);stroke-width:0.01" />
<line x1="0.329206" y1="-0.285067" x2="-0.161404" y2="-0.165994" style="stroke:rgb(246,147,147);stroke-width:0.01" />
<line x1="-0.0217947" y1="-0.207629" x2="-0.31391" y2="-0.110362" style="stroke:rgb(246,147,147);stroke-width:0.01" />
<line x1="-0.0217947" y1="-0.207629" x2="-0.122672" y2="-0.141839" style="stroke:rgb(246,147,147);stroke-width:0.01" />
<line x1="0.328802" y1="-0.278429" x2="-0.441637" y2="0.00987241" style="stroke:rgb(246,147,147);stroke-width:0.01" />
<line x1="-0.441742" y1="0.00698732" x2="0.113352" y2="0.0749243" style="stroke:rgb(246,147,147);stroke-width:0.01" />
<line x1="-0.121836" y1="0.223923" x2="0.206143" y2="0.338034" style="stroke:rgb(246,147,147);stroke-width:0.01" />
<line x1="0.206143" y1="0.338034" x2="0.203088" y2="0.341715" style="stroke:rgb(246,147,147);stroke-width:0.01" />
<line x1="0.434889" y1="-0.107589" x2="-0.121836" y2="0.223923" style="stroke:rgb(246,147,147);stroke-width:0.01" />
<line x1="0.217472" y1="0.143852" x2="0.0697517" y2="0.153478" style="stroke:rgb(246,147,147);stroke-width:0.01" />
</g>
</svg>
