<svg xmlns="http://www.w3.org/2000/svg" viewBox="-1.5 -1.5 3 3">
<g transform="scale(1, -1)">
<path d="M0.704276 0.162247 L0.830053 0.290148 L0.835650 0.288790 L0.941333 0.466267 L0.716264 0.600288 L0.723916 0.717709 L0.659677 0.721895 L0.712587 0.911891 L0.709532 0.915572 L0.699692 0.907405 L0.384607 0.797780 L0.367776 0.631910 L0.348029 0.615520 L0.070590 0.581565 L0.064807 0.583729 L-0.060925 0.428192 L0.031916 0.353143 L0.376207 0.355372 z " fill="rgb(245,195,195)" />
<path d="M0.000000 0.000000 L1.000000 0.000000 L1.000000 1.000000 L0.000000 1.000000  z" fill="none" stroke="rgb(128,128,128)" stroke-width="0.01" />
<line x1="0.83565" y1="0.28879" x2="0.941333" y2="0.466267" style="stroke:rgb(246,147,147);stroke-width:0.01" />
<line x1="0.704276" y1="0.162247" x2="0.835245" y2="0.295428" style="stroke:rgb(246,147,147);stroke-width:0.01" />
<line x1="0.68833" y1="0.171634" x2="0.711437" y2="0.186502" style="stroke:rgb(246,147,147);stroke-width:0.01" />
<line x1="0.704276" y1="0.162247" x2="0.711437" y2="0.186502" style="stroke:rgb(246,147,147);stroke-width:0.01" />
<line x1="0.557935" y1="0.356549" x2="0.712587" y2="0.911891" style="stroke:rgb(246,147,147);stroke-width:0.01" />
<line x1="0.448613" y1="0.312748" x2="0.619796" y2="0.648781" style="stroke:rgb(246,147,147);stroke-width:0.01" />
<line x1="0.448613" y1="0.312748" x2="0.484649" y2="0.366228" style="stroke:rgb(246,147,147);stroke-width:0.01" />
<line x1="0.464729" y1="0.303261" x2="0.484649" y2="0.366228" style="stroke:rgb(246,147,147);stroke-width:0.01" />
<line x1="0.464729" y1="0.303261" x2="0.556133" y2="0.399873" style="stroke:rgb(246,147,147);stroke-width:0.01" />
<line x1="0.336773" y1="0.378586" x2="0.369306" y2="0.469784" style="stroke:rgb(246,147,147);stroke-width:0.01" />
<line x1="0.34504" y1="0.407862" x2="0.369306" y2="0.469784" style="stroke:rgb(246,147,147);stroke-width:0.01" />
<line x1="0.350278" y1="0.370636" x2="0.383772" y2="0.432018" style="stroke:rgb(246,147,147);stroke-width:0.01" />
<line x1="0.350278" y1="0.370636" x2="0.576196" y2="0.727335" style="stroke:rgb(246,147,147);stroke-width:0.01" />
<line x1="0.68833" y1="0.171634" x2="0.723916" y2="0.717709" style="stroke:rgb(246,147,147);stroke-width:0.01" />
<line x1="0.34504" y1="0.407862" x2="0.384607" y2="0.79778" style="stroke:rgb(246,147,147);stroke-width:0.01" />
<line x1="0.336773" y1="0.378586" x2="0.383772" y2="0.432018" style="stroke:rgb(246,147,147);stroke-width:0.01" />
<line x1="0.0647017" y1="0.580844" x2="0.0648065" y2="0.583729" style="stroke:rgb(246,147,147);stroke-width:0.01" />
<line x1="0.557935" y1="0.356549" x2="0.556133" y2="0.399873" style="stroke:rgb(246,147,147);stroke-width:0.01" />
<line x1="0.83565" y1="0.28879" x2="0.835245" y2="0.295428" style="stroke:rgb(246,147,147);stroke-width:0.01" />
<line x1="0.0319165" y1="0.353143" x2="0.709532" y2="0.915572" style="stroke:rgb(246,147,147);stroke-width:0.01" />
<line x1="-0.0609246" y1="0.428192" x2="0.0648065" y2="0.583729" style="stroke:rgb(246,147,147);stroke-width:0.01" />
<line x1="0.0319165" y1="0.353143" x2="-0.0609246" y2="0.428192" style="stroke:rgb(246,147,147);stroke-width:0.01" />
<line x1="0.192534" y1="0.463495" x2="0.0647017" y2="0.580844" style="stroke:rgb(246,147,147);stroke-width:0.01" />
<line x1="0.0319165" y1="0.353143" x2="0.557935" y2="0.356549" style="stroke:rgb(246,147,147);stroke-width:0.01" />
<line x1="0.619796" y1="0.648781" x2="0.576196" y2="0.727335" style="stroke:rgb(246,147,147);stroke-width:0.01" />
<line x1="0.704276" y1="0.162247" x2="0.192534" y2="0.463495" style="stroke:rgb(246,147,147);stroke-width:0.01" />
<line x1="0.711437" y1="0.186502" x2="0.383772" y2="0.432018" style="stroke:rgb(246,147,147);stroke-width:0.01" />
<line x1="0.557935" y1="0.356549" x2="0.34504" y2="0.407862" style="stroke:rgb(246,147,147);stroke-width:0.01" />
<line x1="0.83565" y1="0.28879" x2="0.34504" y2="0.407862" style="stroke:rgb(246,147,147);stroke-width:0.01" />
<line x1="0.484649" y1="0.366228" x2="0.192534" y2="0.463495" style="stroke:rgb(246,147,147);stroke-width:0.01" />
<line x1="0.484649" y1="0.366228" x2="0.383772" y2="0.432018" style="stroke:rgb(246,147,147);stroke-width:0.01" />
<line x1="0.835245" y1="0.295428" x2="0.0648065" y2="0.583729" style="stroke:rgb(246,147,147);stroke-width:0.01" />
<line x1="0.0647017" y1="0.580844" x2="0.619796" y2="0.648781" style="stroke:rgb(246,147,147);stroke-width:0.01" />
<line x1="0.384607" y1="0.79778" x2="0.712587" y2="0.911891" style="stroke:rgb(246,147,147);stroke-width:0.01" />
<line x1="0.712587" y1="0.911891" x2="0.709532" y2="0.915572" style="stroke:rgb(246,147,147);stroke-width:0.01" />
<line x1="0.941333" y1="0.466267" x2="0.384607" y2="0.79778" style="stroke:rgb(246,147,147);stroke-width:0.01" />
<line x1="0.723916" y1="0.717709" x2="0.576196" y2="0.727335" style="stroke:rgb(246,147,147);stroke-width:0.01" />
</g>
</svg>
