<svg xmlns="http://www.w3.org/2000/svg" viewBox="-1.5 -1.5 3 3">
<g transform="scale(1, -1)">
<path d="M0.028641 -0.569128 L0.271341 -0.385594 L0.291440 0.457745 L-0.018143 0.664368 L-0.573280 -0.167391 z " fill="rgb(245,195,195)" />
<path d="M0.264262 -0.724280 L1.264262 -0.724280 L1.264262 0.275720 L0.264262 0.275720  z" fill="none" stroke="rgb(128,128,128)" stroke-width="0.01" />
<line x1="0.0286411" y1="-0.569128" x2="-0.0119121" y2="-0.443683" style="stroke:rgb(246,147,147);stroke-width:0.01" />
<line x1="0.0286411" y1="-0.569128" x2="-0.57328" y2="-0.167391" style="stroke:rgb(246,147,147);stroke-width:0.01" />
<line x1="0.24749" y1="-0.275907" x2="0.229008" y2="0.320094" style="stroke:rgb(246,147,147);stroke-width:0.01" />
<line x1="0.264262" y1="-0.390947" x2="0.264262" y2="0.27572" style="stroke:rgb(246,147,147);stroke-width:0.01" />
<line x1="0.271341" y1="-0.385594" x2="0.29144" y2="0.457745" style="stroke:rgb(246,147,147);stroke-width:0.01" />
<line x1="0.234156" y1="-0.354582" x2="0.171828" y2="0.385904" style="stroke:rgb(246,147,147);stroke-width:0.01" />
<line x1="0.108575" y1="-0.363931" x2="0.102826" y2="-0.355245" style="stroke:rgb(246,147,147);stroke-width:0.01" />
<line x1="-0.0119121" y1="-0.443683" x2="0.0378786" y2="-0.301441" style="stroke:rgb(246,147,147);stroke-width:0.01" />
<line x1="0.102826" y1="-0.355245" x2="0.0378786" y2="-0.301441" style="stroke:rgb(246,147,147);stroke-width:0.01" />
<line x1="0.273167" y1="-0.308986" x2="0.24749" y2="-0.275907" style="stroke:rgb(246,147,147);stroke-width:0.01" />
<line x1="0.234156" y1="-0.354582" x2="0.273167" y2="-0.308986" style="stroke:rgb(246,147,147);stroke-width:0.01" />
<line x1="0.271341" y1="-0.385594" x2="0.234156" y2="-0.354582" style="stroke:rgb(246,147,147);stroke-width:0.01" />
<line x1="0.0286411" y1="-0.569128" x2="0.271341" y2="-0.385594" style="stroke:rgb(246,147,147);stroke-width:0.01" />
<line x1="0.102826" y1="-0.355245" x2="0.029782" y2="-0.324572" style="stroke:rgb(246,147,147);stroke-width:0.01" />
<line x1="0.264262" y1="-0.390947" x2="0.029782" y2="-0.324572" style="stroke:rgb(246,147,147);stroke-width:0.01" />
<line x1="-0.0119121" y1="-0.443683" x2="0.108575" y2="-0.363931" style="stroke:rgb(246,147,147);stroke-width:0.01" />
<line x1="0.273774" y1="-0.283512" x2="0.24749" y2="-0.275907" style="stroke:rgb(246,147,147);stroke-width:0.01" />
<line x1="0.229071" y1="-0.294169" x2="0.273774" y2="-0.283512" style="stroke:rgb(246,147,147);stroke-width:0.01" />
<line x1="0.27345" y1="-0.297105" x2="0.229071" y2="-0.294169" style="stroke:rgb(246,147,147);stroke-width:0.01" />
<line x1="0.0378786" y1="-0.301441" x2="0.27345" y2="-0.297105" style="stroke:rgb(246,147,147);stroke-width:0.01" />
<line x1="-0.57328" y1="-0.167391" x2="-0.0181428" y2="0.664368" style="stroke:rgb(246,147,147);stroke-width:0.01" />
<line x1="0.29144" y1="0.457745" x2="-0.0181428" y2="0.664368" style="stroke:rgb(246,147,147);stroke-width:0.01" />
<line x1="0.171828" y1="0.385904" x2="0.29144" y2="0.457745" style="stroke:rgb(246,147,147);stroke-width:0.01" />
<line x1="0.288639" y1="0.340204" x2="0.171828" y2="0.385904" style="stroke:rgb(246,147,147);stroke-width:0.01" />
<line x1="0.229008" y1="0.320094" x2="0.288639" y2="0.340204" style="stroke:rgb(246,147,147);stroke-width:0.01" />
<line x1="0.287782" y1="0.304253" x2="0.229008" y2="0.320094" style="stroke:rgb(246,147,147);stroke-width:0.01" />
<line x1="0.180675" y1="0.280796" x2="0.287782" y2="0.304253" style="stroke:rgb(246,147,147);stroke-width:0.01" />
<line x1="0.287102" y1="0.27572" x2="0.180675" y2="0.280796" style="stroke:rgb(246,147,147);stroke-width:0.01" />
<line x1="0.264262" y1="0.27572" x2="0.287102" y2="0.27572" style="stroke:rgb(246,147,147);stroke-width:0.01" />
</g>
</svg>
