<svg xmlns="http://www.w3.org/2000/svg" viewBox="-1.5 -1.5 3 3">
<g transform="scale(1, -1)">
<path d="M0.473048 -0.258208 L0.694538 -0.137395 L0.632494 0.041842 L0.602587 0.061330 L0.418488 0.010782 L0.361303 -0.105410 L0.339496 -0.127731 L0.346804 -0.134871 L0.317483 -0.194445 L0.445658 -0.257527 L0.454325 -0.239917 z M0.539572 -0.123482 L0.520703 -0.105047 L0.539046 -0.067775 L0.573983 -0.090541 z " fill="rgb(245,195,195)" />
<path d="M0.000000 0.000000 L1.000000 0.000000 L1.000000 1.000000 L0.000000 1.000000  z" fill="none" stroke="rgb(128,128,128)" stroke-width="0.01" />
<line x1="0.473048" y1="-0.258208" x2="0.694538" y2="-0.137395" style="stroke:rgb(246,147,147);stroke-width:0.01" />
<line x1="0.460901" y1="-0.198791" x2="0.582849" y2="-0.0820545" style="stroke:rgb(246,147,147);stroke-width:0.01" />
<line x1="0.339496" y1="-0.127731" x2="0.439328" y2="-0.0255462" style="stroke:rgb(246,147,147);stroke-width:0.01" />
<line x1="0.445658" y1="-0.257527" x2="0.602587" y2="0.0613303" style="stroke:rgb(246,147,147);stroke-width:0.01" />
<line x1="0.543889" y1="-0.219567" x2="0.632494" y2="0.0418421" style="stroke:rgb(246,147,147);stroke-width:0.01" />
<line x1="0.317483" y1="-0.194445" x2="0.418488" y2="0.0107823" style="stroke:rgb(246,147,147);stroke-width:0.01" />
<line x1="0.418488" y1="0.0107823" x2="0.602587" y2="0.0613303" style="stroke:rgb(246,147,147);stroke-width:0.01" />
<line x1="0.543889" y1="-0.219567" x2="0.460901" y2="-0.198791" style="stroke:rgb(246,147,147);stroke-width:0.01" />
<line x1="0.445658" y1="-0.257527" x2="0.317483" y2="-0.194445" style="stroke:rgb(246,147,147);stroke-width:0.01" />
<line x1="0.668056" y1="-0.15184" x2="0.667793" y2="-0.10332" style="stroke:rgb(246,147,147);stroke-width:0.01" />
<line x1="0.667793" y1="-0.10332" x2="0.582849" y2="-0.0820545" style="stroke:rgb(246,147,147);stroke-width:0.01" />
<line x1="0.473048" y1="-0.258208" x2="0.460901" y2="-0.198791" style="stroke:rgb(246,147,147);stroke-width:0.01" />
<line x1="0.473048" y1="-0.258208" x2="0.339496" y2="-0.127731" style="stroke:rgb(246,147,147);stroke-width:0.01" />
<line x1="0.604232" y1="-0.186653" x2="0.582849" y2="-0.0820545" style="stroke:rgb(246,147,147);stroke-width:0.01" />
<line x1="0.668056" y1="-0.15184" x2="0.418488" y2="0.0107823" style="stroke:rgb(246,147,147);stroke-width:0.01" />
<line x1="0.694538" y1="-0.137395" x2="0.632494" y2="0.0418421" style="stroke:rgb(246,147,147);stroke-width:0.01" />
<line x1="0.604232" y1="-0.186653" x2="0.439328" y2="-0.0255462" style="stroke:rgb(246,147,147);stroke-width:0.01" />
<line x1="0.694538" y1="-0.137395" x2="0.667793" y2="-0.10332" style="stroke:rgb(246,147,147);stroke-width:0.01" />
<line x1="0.632494" y1="0.0418421" x2="0.602587" y2="0.0613303" style="stroke:rgb(246,147,147);stroke-width:0.01" />
</g>
</svg>
