<svg xmlns="http://www.w3.org/2000/svg" viewBox="-1.5 -1.5 3 3">
<g transform="scale(1, -1)">
<path d="M-0.010921 -0.142981 L0.210569 -0.022169 L0.148526 0.157068 L0.118618 0.176557 L-0.065481 0.126009 L-0.122666 0.009816 L-0.144473 -0.012505 L-0.137165 -0.019644 L-0.166485 -0.079219 L-0.038310 -0.142301 L-0.029643 -0.124690 z M0.055603 -0.008256 L0.036734 0.010179 L0.055078 0.047451 L0.090015 0.024685 z " fill="rgb(245,195,195)" />
<path d="M-0.483968 0.115226 L0.516032 0.115226 L0.516032 1.115226 L-0.483968 1.115226  z" fill="none" stroke="rgb(128,128,128)" stroke-width="0.01" />
<line x1="-0.0109208" y1="-0.142981" x2="0.210569" y2="-0.0221686" style="stroke:rgb(246,147,147);stroke-width:0.01" />
<line x1="-0.0230672" y1="-0.0835648" x2="0.0988803" y2="0.0331719" style="stroke:rgb(246,147,147);stroke-width:0.01" />
<line x1="-0.144473" y1="-0.0125047" x2="-0.0446407" y2="0.0896801" style="stroke:rgb(246,147,147);stroke-width:0.01" />
<line x1="-0.0383103" y1="-0.142301" x2="0.118618" y2="0.176557" style="stroke:rgb(246,147,147);stroke-width:0.01" />
<line x1="0.0599208" y1="-0.104341" x2="0.148526" y2="0.157068" style="stroke:rgb(246,147,147);stroke-width:0.01" />
<line x1="-0.166485" y1="-0.0792188" x2="-0.0654807" y2="0.126009" style="stroke:rgb(246,147,147);stroke-width:0.01" />
<line x1="-0.0654807" y1="0.126009" x2="0.118618" y2="0.176557" style="stroke:rgb(246,147,147);stroke-width:0.01" />
<line x1="0.0599208" y1="-0.104341" x2="-0.0230672" y2="-0.0835648" style="stroke:rgb(246,147,147);stroke-width:0.01" />
<line x1="-0.0383103" y1="-0.142301" x2="-0.166485" y2="-0.0792188" style="stroke:rgb(246,147,147);stroke-width:0.01" />
<line x1="0.184087" y1="-0.0366135" x2="0.183825" y2="0.0119064" style="stroke:rgb(246,147,147);stroke-width:0.01" />
<line x1="0.183825" y1="0.0119064" x2="0.0988803" y2="0.0331719" style="stroke:rgb(246,147,147);stroke-width:0.01" />
<line x1="-0.0109208" y1="-0.142981" x2="-0.0230672" y2="-0.0835648" style="stroke:rgb(246,147,147);stroke-width:0.01" />
<line x1="-0.0109208" y1="-0.142981" x2="-0.144473" y2="-0.0125047" style="stroke:rgb(246,147,147);stroke-width:0.01" />
<line x1="0.120263" y1="-0.0714266" x2="0.0988803" y2="0.0331719" style="stroke:rgb(246,147,147);stroke-width:0.01" />
<line x1="0.184087" y1="-0.0366135" x2="-0.0654807" y2="0.126009" style="stroke:rgb(246,147,147);stroke-width:0.01" />
<line x1="0.210569" y1="-0.0221686" x2="0.148526" y2="0.157068" style="stroke:rgb(246,147,147);stroke-width:0.01" />
<line x1="0.120263" y1="-0.0714266" x2="-0.0446407" y2="0.0896801" style="stroke:rgb(246,147,147);stroke-width:0.01" />
<line x1="0.210569" y1="-0.0221686" x2="0.183825" y2="0.0119064" style="stroke:rgb(246,147,147);stroke-width:0.01" />
<line x1="0.148526" y1="0.157068" x2="0.118618" y2="0.176557" style="stroke:rgb(246,147,147);stroke-width:0.01" />
</g>
</svg>
