<svg xmlns="http://www.w3.org/2000/svg" viewBox="-1.5 -1.5 3 3">
<g transform="scale(1, -1)">
<path d="M-0.012967 -0.176379 L0.172146 -0.042827 L0.181967 0.017871 L0.061135 0.185355 L0.000437 0.195176 L-0.167047 0.074343 L-0.176868 0.013645 L-0.043316 -0.171468 L-0.025686 -0.158749 z M-0.020776 -0.128400 L-0.141608 0.039084 L0.025875 0.159916 L0.146708 -0.007567 z " fill="rgb(245,195,195)" />
<path d="M-0.025686 -0.158749 L0.974314 -0.158749 L0.974314 0.841251 L-0.025686 0.841251  z" fill="none" stroke="rgb(128,128,128)" stroke-width="0.01" />
<line x1="0.172146" y1="-0.0428271" x2="0.181967" y2="0.017871" style="stroke:rgb(246,147,147);stroke-width:0.01" />
<line x1="-0.0129672" y1="-0.176379" x2="0.172146" y2="-0.0428271" style="stroke:rgb(246,147,147);stroke-width:0.01" />
<line x1="-0.0433163" y1="-0.171468" x2="-0.176868" y2="0.0136453" style="stroke:rgb(246,147,147);stroke-width:0.01" />
<line x1="-0.0433163" y1="-0.171468" x2="-0.00805657" y2="-0.14603" style="stroke:rgb(246,147,147);stroke-width:0.01" />
<line x1="-0.0129672" y1="-0.176379" x2="-0.0384056" y2="-0.141119" style="stroke:rgb(246,147,147);stroke-width:0.01" />
<line x1="-0.00805657" y1="-0.14603" x2="-0.167047" y2="0.0743434" style="stroke:rgb(246,147,147);stroke-width:0.01" />
<line x1="-0.0384056" y1="-0.141119" x2="0.181967" y2="0.017871" style="stroke:rgb(246,147,147);stroke-width:0.01" />
<line x1="-0.176868" y1="0.0136453" x2="-0.167047" y2="0.0743434" style="stroke:rgb(246,147,147);stroke-width:0.01" />
<line x1="0.172146" y1="-0.0428271" x2="0.000436876" y2="0.195176" style="stroke:rgb(246,147,147);stroke-width:0.01" />
<line x1="0.181967" y1="0.017871" x2="0.061135" y2="0.185355" style="stroke:rgb(246,147,147);stroke-width:0.01" />
<line x1="-0.176868" y1="0.0136453" x2="0.061135" y2="0.185355" style="stroke:rgb(246,147,147);stroke-width:0.01" />
<line x1="-0.167047" y1="0.0743434" x2="0.000436876" y2="0.195176" style="stroke:rgb(246,147,147);stroke-width:0.01" />
<line x1="0.061135" y1="0.185355" x2="0.000436876" y2="0.195176" style="stroke:rgb(246,147,147);stroke-width:0.01" />
</g>
</svg>
