<svg xmlns="http://www.w3.org/2000/svg" viewBox="-1.5 -1.5 3 3">
<g transform="scale(1, -1)">
<path d="M0.012719 -0.017630 L0.197833 0.115922 L0.207654 0.176620 L0.086821 0.344104 L0.026123 0.353925 L-0.141360 0.233092 L-0.151182 0.172394 L-0.017630 -0.012719 L0.000000 0.000000 z M0.004911 0.030349 L-0.115922 0.197833 L0.051562 0.318665 L0.172394 0.151182 z " fill="rgb(245,195,195)" />
<path d="M0.000000 0.000000 L1.000000 0.000000 L1.000000 1.000000 L0.000000 1.000000  z" fill="none" stroke="rgb(128,128,128)" stroke-width="0.01" />
<line x1="0.197833" y1="0.115922" x2="0.207654" y2="0.17662" style="stroke:rgb(246,147,147);stroke-width:0.01" />
<line x1="0.0127192" y1="-0.0176298" x2="0.197833" y2="0.115922" style="stroke:rgb(246,147,147);stroke-width:0.01" />
<line x1="-0.0176298" y1="-0.0127192" x2="-0.151182" y2="0.172394" style="stroke:rgb(246,147,147);stroke-width:0.01" />
<line x1="-0.0176298" y1="-0.0127192" x2="0.0176298" y2="0.0127192" style="stroke:rgb(246,147,147);stroke-width:0.01" />
<line x1="0.0127192" y1="-0.0176298" x2="-0.0127192" y2="0.0176298" style="stroke:rgb(246,147,147);stroke-width:0.01" />
<line x1="0.0176298" y1="0.0127192" x2="-0.14136" y2="0.233092" style="stroke:rgb(246,147,147);stroke-width:0.01" />
<line x1="-0.0127192" y1="0.0176298" x2="0.207654" y2="0.17662" style="stroke:rgb(246,147,147);stroke-width:0.01" />
<line x1="-0.151182" y1="0.172394" x2="-0.14136" y2="0.233092" style="stroke:rgb(246,147,147);stroke-width:0.01" />
<line x1="0.197833" y1="0.115922" x2="0.0261233" y2="0.353925" style="stroke:rgb(246,147,147);stroke-width:0.01" />
<line x1="0.207654" y1="0.17662" x2="0.0868214" y2="0.344104" style="stroke:rgb(246,147,147);stroke-width:0.01" />
<line x1="-0.151182" y1="0.172394" x2="0.0868214" y2="0.344104" style="stroke:rgb(246,147,147);stroke-width:0.01" />
<line x1="-0.14136" y1="0.233092" x2="0.0261233" y2="0.353925" style="stroke:rgb(246,147,147);stroke-width:0.01" />
<line x1="0.0868214" y1="0.344104" x2="0.0261233" y2="0.353925" style="stroke:rgb(246,147,147);stroke-width:0.01" />
</g>
</svg>
