<svg xmlns="http://www.w3.org/2000/svg" viewBox="-1.5 -1.5 3 3">
<g transform="scale(1, -1)">
<path d="M-0.016615 -0.268661 L0.213184 -0.051620 L0.214576 -0.002874 L0.009373 0.214390 L-0.039373 0.215782 L-0.269171 -0.001259 L-0.245494 -0.026328 L-0.015695 0.190713 L0.189507 -0.026551 L-0.040292 -0.243592 z " fill="rgb(245,195,195)" />
<path d="M-0.028453 -0.256126 L0.971547 -0.256126 L0.971547 0.743874 L-0.028453 0.743874  z" fill="none" stroke="rgb(128,128,128)" stroke-width="0.01" />
<line x1="-0.0166147" y1="-0.268661" x2="0.213184" y2="-0.0516201" style="stroke:rgb(246,147,147);stroke-width:0.01" />
<line x1="0.213184" y1="-0.0516201" x2="0.214576" y2="-0.002874" style="stroke:rgb(246,147,147);stroke-width:0.01" />
<line x1="-0.0166147" y1="-0.268661" x2="-0.0402918" y2="-0.243592" style="stroke:rgb(246,147,147);stroke-width:0.01" />
<line x1="-0.245494" y1="-0.0263279" x2="-0.269171" y2="-0.00125892" style="stroke:rgb(246,147,147);stroke-width:0.01" />
<line x1="-0.0402918" y1="-0.243592" x2="0.214576" y2="-0.002874" style="stroke:rgb(246,147,147);stroke-width:0.01" />
<line x1="0.213184" y1="-0.0516201" x2="-0.0393726" y2="0.215782" style="stroke:rgb(246,147,147);stroke-width:0.01" />
<line x1="-0.245494" y1="-0.0263279" x2="0.00937348" y2="0.21439" style="stroke:rgb(246,147,147);stroke-width:0.01" />
<line x1="0.214576" y1="-0.002874" x2="0.00937348" y2="0.21439" style="stroke:rgb(246,147,147);stroke-width:0.01" />
<line x1="-0.269171" y1="-0.00125892" x2="-0.0393726" y2="0.215782" style="stroke:rgb(246,147,147);stroke-width:0.01" />
<line x1="0.00937348" y1="0.21439" x2="-0.0393726" y2="0.215782" style="stroke:rgb(246,147,147);stroke-width:0.01" />
</g>
</svg>
