<svg xmlns="http://www.w3.org/2000/svg" viewBox="-1.5 -1.5 3 3">
<g transform="scale(1, -1)">
<path d="M0.011839 -0.012534 L0.241637 0.204506 L0.243029 0.253252 L0.037827 0.470517 L-0.010919 0.471908 L-0.240718 0.254868 L-0.217041 0.229799 L0.012758 0.446839 L0.217960 0.229575 L-0.011839 0.012534 z " fill="rgb(245,195,195)" />
<path d="M0.000000 0.000000 L1.000000 0.000000 L1.000000 1.000000 L0.000000 1.000000  z" fill="none" stroke="rgb(128,128,128)" stroke-width="0.01" />
<line x1="0.0118386" y1="-0.0125345" x2="0.241637" y2="0.204506" style="stroke:rgb(246,147,147);stroke-width:0.01" />
<line x1="0.241637" y1="0.204506" x2="0.243029" y2="0.253252" style="stroke:rgb(246,147,147);stroke-width:0.01" />
<line x1="0.0118386" y1="-0.0125345" x2="-0.0118386" y2="0.0125345" style="stroke:rgb(246,147,147);stroke-width:0.01" />
<line x1="-0.217041" y1="0.229799" x2="-0.240718" y2="0.254868" style="stroke:rgb(246,147,147);stroke-width:0.01" />
<line x1="-0.0118386" y1="0.0125345" x2="0.243029" y2="0.253252" style="stroke:rgb(246,147,147);stroke-width:0.01" />
<line x1="0.241637" y1="0.204506" x2="-0.0109194" y2="0.471908" style="stroke:rgb(246,147,147);stroke-width:0.01" />
<line x1="-0.217041" y1="0.229799" x2="0.0378267" y2="0.470517" style="stroke:rgb(246,147,147);stroke-width:0.01" />
<line x1="0.243029" y1="0.253252" x2="0.0378267" y2="0.470517" style="stroke:rgb(246,147,147);stroke-width:0.01" />
<line x1="-0.240718" y1="0.254868" x2="-0.0109194" y2="0.471908" style="stroke:rgb(246,147,147);stroke-width:0.01" />
<line x1="0.0378267" y1="0.470517" x2="-0.0109194" y2="0.471908" style="stroke:rgb(246,147,147);stroke-width:0.01" />
</g>
</svg>
