<svg xmlns="http://www.w3.org/2000/svg" viewBox="-1.5 -1.5 3 3">
<g transform="scale(1, -1)">
<path d="M0.009177 -0.027943 L0.199192 0.034459 L0.190016 0.062402 L0.208782 0.099523 L0.164733 0.233651 L0.090493 0.271185 L-0.043636 0.227136 L-0.081169 0.152895 L-0.037120 0.018767 L0.000000 0.000000 z M0.018767 0.037120 L-0.025282 0.171249 L0.108846 0.215298 L0.152895 0.081169 z " fill="rgb(245,195,195)" />
<path d="M0.000000 0.000000 L1.000000 0.000000 L1.000000 1.000000 L0.000000 1.000000  z" fill="none" stroke="rgb(128,128,128)" stroke-width="0.01" />
<line x1="0.171249" y1="0.0252822" x2="0.208782" y2="0.0995228" style="stroke:rgb(246,147,147);stroke-width:0.01" />
<line x1="0.00917684" y1="-0.0279435" x2="0.199192" y2="0.034459" style="stroke:rgb(246,147,147);stroke-width:0.01" />
<line x1="-0.0371203" y1="0.0187666" x2="-0.0811691" y2="0.152895" style="stroke:rgb(246,147,147);stroke-width:0.01" />
<line x1="0.00917684" y1="-0.0279435" x2="-0.00917684" y2="0.0279435" style="stroke:rgb(246,147,147);stroke-width:0.01" />
<line x1="0.0371203" y1="-0.0187666" x2="-0.0371203" y2="0.0187666" style="stroke:rgb(246,147,147);stroke-width:0.01" />
<line x1="0.0371203" y1="-0.0187666" x2="-0.0436359" y2="0.227136" style="stroke:rgb(246,147,147);stroke-width:0.01" />
<line x1="-0.0371203" y1="0.0187666" x2="0.208782" y2="0.0995228" style="stroke:rgb(246,147,147);stroke-width:0.01" />
<line x1="0.171249" y1="0.0252822" x2="0.0904928" y2="0.271185" style="stroke:rgb(246,147,147);stroke-width:0.01" />
<line x1="0.199192" y1="0.034459" x2="0.180839" y2="0.090346" style="stroke:rgb(246,147,147);stroke-width:0.01" />
<line x1="-0.0811691" y1="0.152895" x2="-0.0436359" y2="0.227136" style="stroke:rgb(246,147,147);stroke-width:0.01" />
<line x1="0.208782" y1="0.0995228" x2="0.164733" y2="0.233651" style="stroke:rgb(246,147,147);stroke-width:0.01" />
<line x1="-0.0811691" y1="0.152895" x2="0.164733" y2="0.233651" style="stroke:rgb(246,147,147);stroke-width:0.01" />
<line x1="-0.0436359" y1="0.227136" x2="0.0904928" y2="0.271185" style="stroke:rgb(246,147,147);stroke-width:0.01" />
<line x1="0.164733" y1="0.233651" x2="0.0904928" y2="0.271185" style="stroke:rgb(246,147,147);stroke-width:0.01" />
</g>
</svg>
