<svg xmlns="http://www.w3.org/2000/svg" viewBox="-1.5 -1.5 3 3">
<g transform="scale(1, -1)">
<path d="M-0.059087 -0.140580 L0.130929 -0.078177 L0.121752 -0.050234 L0.140518 -0.013114 L0.096470 0.121015 L0.022229 0.158548 L-0.111900 0.114499 L-0.149433 0.040259 L-0.105384 -0.093870 L-0.068264 -0.112637 z M-0.049497 -0.075516 L-0.093546 0.058612 L0.040583 0.102661 L0.084631 -0.031467 z " fill="rgb(245,195,195)" />
<path d="M-0.068264 -0.112637 L0.931736 -0.112637 L0.931736 0.887363 L-0.068264 0.887363  z" fill="none" stroke="rgb(128,128,128)" stroke-width="0.01" />
<line x1="0.102985" y1="-0.0873543" x2="0.140518" y2="-0.0131137" style="stroke:rgb(246,147,147);stroke-width:0.01" />
<line x1="-0.059087" y1="-0.14058" x2="0.130929" y2="-0.0781775" style="stroke:rgb(246,147,147);stroke-width:0.01" />
<line x1="-0.105384" y1="-0.0938699" x2="-0.149433" y2="0.0402588" style="stroke:rgb(246,147,147);stroke-width:0.01" />
<line x1="-0.059087" y1="-0.14058" x2="-0.0774407" y2="-0.084693" style="stroke:rgb(246,147,147);stroke-width:0.01" />
<line x1="-0.0311436" y1="-0.131403" x2="-0.105384" y2="-0.0938699" style="stroke:rgb(246,147,147);stroke-width:0.01" />
<line x1="-0.0311436" y1="-0.131403" x2="-0.1119" y2="0.114499" style="stroke:rgb(246,147,147);stroke-width:0.01" />
<line x1="-0.105384" y1="-0.0938699" x2="0.140518" y2="-0.0131137" style="stroke:rgb(246,147,147);stroke-width:0.01" />
<line x1="0.102985" y1="-0.0873543" x2="0.0222289" y2="0.158548" style="stroke:rgb(246,147,147);stroke-width:0.01" />
<line x1="0.130929" y1="-0.0781775" x2="0.112575" y2="-0.0222905" style="stroke:rgb(246,147,147);stroke-width:0.01" />
<line x1="-0.149433" y1="0.0402588" x2="-0.1119" y2="0.114499" style="stroke:rgb(246,147,147);stroke-width:0.01" />
<line x1="0.140518" y1="-0.0131137" x2="0.0964695" y2="0.121015" style="stroke:rgb(246,147,147);stroke-width:0.01" />
<line x1="-0.149433" y1="0.0402588" x2="0.0964695" y2="0.121015" style="stroke:rgb(246,147,147);stroke-width:0.01" />
<line x1="-0.1119" y1="0.114499" x2="0.0222289" y2="0.158548" style="stroke:rgb(246,147,147);stroke-width:0.01" />
<line x1="0.0964695" y1="0.121015" x2="0.0222289" y2="0.158548" style="stroke:rgb(246,147,147);stroke-width:0.01" />
</g>
</svg>
