<svg xmlns="http://www.w3.org/2000/svg" viewBox="-1.5 -1.5 3 3">
<g transform="scale(1, -1)">
<path d="M-0.003675 -0.176817 L0.174160 -0.033716 L0.180776 0.027414 L0.051304 0.188313 L-0.009826 0.194929 L-0.170725 0.065457 L-0.177341 0.004326 L-0.034240 -0.173509 L-0.017304 -0.159880 z M-0.013996 -0.129315 L-0.143467 0.031584 L0.017431 0.161056 L0.146903 0.000157 z " fill="rgb(245,195,195)" />
<path d="M-0.017304 -0.159880 L0.982696 -0.159880 L0.982696 0.840120 L-0.017304 0.840120  z" fill="none" stroke="rgb(128,128,128)" stroke-width="0.01" />
<line x1="0.17416" y1="-0.0337161" x2="0.180776" y2="0.0274144" style="stroke:rgb(246,147,147);stroke-width:0.01" />
<line x1="-0.00367504" y1="-0.176817" x2="0.17416" y2="-0.0337161" style="stroke:rgb(246,147,147);stroke-width:0.01" />
<line x1="-0.0342403" y1="-0.173509" x2="-0.177341" y2="0.00432645" style="stroke:rgb(246,147,147);stroke-width:0.01" />
<line x1="-0.0342403" y1="-0.173509" x2="-0.000366992" y2="-0.146251" style="stroke:rgb(246,147,147);stroke-width:0.01" />
<line x1="-0.00367504" y1="-0.176817" x2="-0.0309323" y2="-0.142943" style="stroke:rgb(246,147,147);stroke-width:0.01" />
<line x1="-0.000366992" y1="-0.146251" x2="-0.170725" y2="0.065457" style="stroke:rgb(246,147,147);stroke-width:0.01" />
<line x1="-0.0309323" y1="-0.142943" x2="0.180776" y2="0.0274144" style="stroke:rgb(246,147,147);stroke-width:0.01" />
<line x1="-0.177341" y1="0.00432645" x2="-0.170725" y2="0.065457" style="stroke:rgb(246,147,147);stroke-width:0.01" />
<line x1="0.17416" y1="-0.0337161" x2="-0.00982634" y2="0.194929" style="stroke:rgb(246,147,147);stroke-width:0.01" />
<line x1="0.180776" y1="0.0274144" x2="0.0513042" y2="0.188313" style="stroke:rgb(246,147,147);stroke-width:0.01" />
<line x1="-0.177341" y1="0.00432645" x2="0.0513042" y2="0.188313" style="stroke:rgb(246,147,147);stroke-width:0.01" />
<line x1="-0.170725" y1="0.065457" x2="-0.00982634" y2="0.194929" style="stroke:rgb(246,147,147);stroke-width:0.01" />
<line x1="0.0513042" y1="0.188313" x2="-0.00982634" y2="0.194929" style="stroke:rgb(246,147,147);stroke-width:0.01" />
</g>
</svg>
