<svg xmlns="http://www.w3.org/2000/svg" viewBox="-1.5 -1.5 3 3">
<g transform="scale(1, -1)">
<path d="M0.013629 -0.016937 L0.191464 0.126164 L0.198080 0.187294 L0.068608 0.348193 L0.007477 0.354809 L-0.153421 0.225337 L-0.160037 0.164206 L-0.016937 -0.013629 L0.000000 0.000000 z M0.003308 0.030565 L-0.126164 0.191464 L0.034735 0.320935 L0.164206 0.160037 z " fill="rgb(245,195,195)" />
<path d="M0.000000 0.000000 L1.000000 0.000000 L1.000000 1.000000 L0.000000 1.000000  z" fill="none" stroke="rgb(128,128,128)" stroke-width="0.01" />
<line x1="0.191464" y1="0.126164" x2="0.19808" y2="0.187294" style="stroke:rgb(246,147,147);stroke-width:0.01" />
<line x1="0.0136286" y1="-0.0169367" x2="0.191464" y2="0.126164" style="stroke:rgb(246,147,147);stroke-width:0.01" />
<line x1="-0.0169367" y1="-0.0136286" x2="-0.160037" y2="0.164206" style="stroke:rgb(246,147,147);stroke-width:0.01" />
<line x1="-0.0169367" y1="-0.0136286" x2="0.0169367" y2="0.0136286" style="stroke:rgb(246,147,147);stroke-width:0.01" />
<line x1="0.0136286" y1="-0.0169367" x2="-0.0136286" y2="0.0169367" style="stroke:rgb(246,147,147);stroke-width:0.01" />
<line x1="0.0169367" y1="0.0136286" x2="-0.153421" y2="0.225337" style="stroke:rgb(246,147,147);stroke-width:0.01" />
<line x1="-0.0136286" y1="0.0169367" x2="0.19808" y2="0.187294" style="stroke:rgb(246,147,147);stroke-width:0.01" />
<line x1="-0.160037" y1="0.164206" x2="-0.153421" y2="0.225337" style="stroke:rgb(246,147,147);stroke-width:0.01" />
<line x1="0.191464" y1="0.126164" x2="0.00747732" y2="0.354809" style="stroke:rgb(246,147,147);stroke-width:0.01" />
<line x1="0.19808" y1="0.187294" x2="0.0686079" y2="0.348193" style="stroke:rgb(246,147,147);stroke-width:0.01" />
<line x1="-0.160037" y1="0.164206" x2="0.0686079" y2="0.348193" style="stroke:rgb(246,147,147);stroke-width:0.01" />
<line x1="-0.153421" y1="0.225337" x2="0.00747732" y2="0.354809" style="stroke:rgb(246,147,147);stroke-width:0.01" />
<line x1="0.0686079" y1="0.348193" x2="0.00747732" y2="0.354809" style="stroke:rgb(246,147,147);stroke-width:0.01" />
</g>
</svg>
