<svg xmlns="http://www.w3.org/2000/svg" viewBox="-1.5 -1.5 3 3">
<g transform="scale(1, -1)">
<path d="M-0.021191 -0.268339 L0.212273 -0.055246 L0.214496 -0.006530 L0.013026 0.214199 L-0.035690 0.216422 L-0.269154 0.003328 L-0.245907 -0.022140 L-0.012443 0.190953 L0.189027 -0.029777 L-0.044437 -0.242870 z " fill="rgb(245,195,195)" />
<path d="M-0.032814 -0.255604 L0.967186 -0.255604 L0.967186 0.744396 L-0.032814 0.744396  z" fill="none" stroke="rgb(128,128,128)" stroke-width="0.01" />
<line x1="-0.0211907" y1="-0.268339" x2="0.212273" y2="-0.0552457" style="stroke:rgb(246,147,147);stroke-width:0.01" />
<line x1="0.212273" y1="-0.0552457" x2="0.214496" y2="-0.00653033" style="stroke:rgb(246,147,147);stroke-width:0.01" />
<line x1="-0.0211907" y1="-0.268339" x2="-0.0444372" y2="-0.24287" style="stroke:rgb(246,147,147);stroke-width:0.01" />
<line x1="-0.245907" y1="-0.0221404" x2="-0.269154" y2="0.00332842" style="stroke:rgb(246,147,147);stroke-width:0.01" />
<line x1="-0.0444372" y1="-0.24287" x2="0.214496" y2="-0.00653033" style="stroke:rgb(246,147,147);stroke-width:0.01" />
<line x1="0.212273" y1="-0.0552457" x2="-0.0356896" y2="0.216422" style="stroke:rgb(246,147,147);stroke-width:0.01" />
<line x1="-0.245907" y1="-0.0221404" x2="0.0130257" y2="0.214199" style="stroke:rgb(246,147,147);stroke-width:0.01" />
<line x1="0.214496" y1="-0.00653033" x2="0.0130257" y2="0.214199" style="stroke:rgb(246,147,147);stroke-width:0.01" />
<line x1="-0.269154" y1="0.00332842" x2="-0.0356896" y2="0.216422" style="stroke:rgb(246,147,147);stroke-width:0.01" />
<line x1="0.0130257" y1="0.214199" x2="-0.0356896" y2="0.216422" style="stroke:rgb(246,147,147);stroke-width:0.01" />
</g>
</svg>
