<svg xmlns="http://www.w3.org/2000/svg" viewBox="-1.5 -1.5 3 3">
<g transform="scale(1, -1)">
<path d="M0.011623 -0.012734 L0.245087 0.200359 L0.247310 0.249074 L0.045840 0.469804 L-0.002876 0.472026 L-0.236340 0.258933 L-0.213093 0.233464 L0.020371 0.446557 L0.221841 0.225828 L-0.011623 0.012734 z " fill="rgb(245,195,195)" />
<path d="M0.000000 0.000000 L1.000000 0.000000 L1.000000 1.000000 L0.000000 1.000000  z" fill="none" stroke="rgb(128,128,128)" stroke-width="0.01" />
<line x1="0.0116233" y1="-0.0127344" x2="0.245087" y2="0.200359" style="stroke:rgb(246,147,147);stroke-width:0.01" />
<line x1="0.245087" y1="0.200359" x2="0.24731" y2="0.249074" style="stroke:rgb(246,147,147);stroke-width:0.01" />
<line x1="0.0116233" y1="-0.0127344" x2="-0.0116233" y2="0.0127344" style="stroke:rgb(246,147,147);stroke-width:0.01" />
<line x1="-0.213093" y1="0.233464" x2="-0.23634" y2="0.258933" style="stroke:rgb(246,147,147);stroke-width:0.01" />
<line x1="-0.0116233" y1="0.0127344" x2="0.24731" y2="0.249074" style="stroke:rgb(246,147,147);stroke-width:0.01" />
<line x1="0.245087" y1="0.200359" x2="-0.00287564" y2="0.472026" style="stroke:rgb(246,147,147);stroke-width:0.01" />
<line x1="-0.213093" y1="0.233464" x2="0.0458397" y2="0.469804" style="stroke:rgb(246,147,147);stroke-width:0.01" />
<line x1="0.24731" y1="0.249074" x2="0.0458397" y2="0.469804" style="stroke:rgb(246,147,147);stroke-width:0.01" />
<line x1="-0.23634" y1="0.258933" x2="-0.00287564" y2="0.472026" style="stroke:rgb(246,147,147);stroke-width:0.01" />
<line x1="0.0458397" y1="0.469804" x2="-0.00287564" y2="0.472026" style="stroke:rgb(246,147,147);stroke-width:0.01" />
</g>
</svg>
