<svg xmlns="http://www.w3.org/2000/svg" viewBox="-1.5 -1.5 3 3">
<g transform="scale(1, -1)">
<path d="M-0.066526 -0.137216 L0.126557 -0.085073 L0.118889 -0.056678 L0.139615 -0.020615 L0.102808 0.115679 L0.030682 0.157131 L-0.105611 0.120324 L-0.147064 0.048199 L-0.110257 -0.088095 L-0.074194 -0.108822 z M-0.053468 -0.072759 L-0.090275 0.063535 L0.046019 0.100342 L0.082826 -0.035952 z " fill="rgb(245,195,195)" />
<path d="M-0.074194 -0.108822 L0.925806 -0.108822 L0.925806 0.891178 L-0.074194 0.891178  z" fill="none" stroke="rgb(128,128,128)" stroke-width="0.01" />
<line x1="0.0981624" y1="-0.0927408" x2="0.139615" y2="-0.0206153" style="stroke:rgb(246,147,147);stroke-width:0.01" />
<line x1="-0.066526" y1="-0.137216" x2="0.126557" y2="-0.0850726" style="stroke:rgb(246,147,147);stroke-width:0.01" />
<line x1="-0.110257" y1="-0.0880953" x2="-0.147064" y2="0.0481986" style="stroke:rgb(246,147,147);stroke-width:0.01" />
<line x1="-0.066526" y1="-0.137216" x2="-0.0818624" y2="-0.0804271" style="stroke:rgb(246,147,147);stroke-width:0.01" />
<line x1="-0.0381315" y1="-0.129548" x2="-0.110257" y2="-0.0880953" style="stroke:rgb(246,147,147);stroke-width:0.01" />
<line x1="-0.0381315" y1="-0.129548" x2="-0.105611" y2="0.120324" style="stroke:rgb(246,147,147);stroke-width:0.01" />
<line x1="-0.110257" y1="-0.0880953" x2="0.139615" y2="-0.0206153" style="stroke:rgb(246,147,147);stroke-width:0.01" />
<line x1="0.0981624" y1="-0.0927408" x2="0.0306824" y2="0.157131" style="stroke:rgb(246,147,147);stroke-width:0.01" />
<line x1="0.126557" y1="-0.0850726" x2="0.111221" y2="-0.0282835" style="stroke:rgb(246,147,147);stroke-width:0.01" />
<line x1="0.139615" y1="-0.0206153" x2="0.102808" y2="0.115679" style="stroke:rgb(246,147,147);stroke-width:0.01" />
<line x1="-0.147064" y1="0.0481986" x2="-0.105611" y2="0.120324" style="stroke:rgb(246,147,147);stroke-width:0.01" />
<line x1="-0.147064" y1="0.0481986" x2="0.102808" y2="0.115679" style="stroke:rgb(246,147,147);stroke-width:0.01" />
<line x1="-0.105611" y1="0.120324" x2="0.0306824" y2="0.157131" style="stroke:rgb(246,147,147);stroke-width:0.01" />
<line x1="0.102808" y1="0.115679" x2="0.0306824" y2="0.157131" style="stroke:rgb(246,147,147);stroke-width:0.01" />
</g>
</svg>
