<svg xmlns="http://www.w3.org/2000/svg" viewBox="-1.5 -1.5 3 3">
<g transform="scale(1, -1)">
<path d="M0.007668 -0.028395 L0.200751 0.023749 L0.193083 0.052144 L0.213809 0.088206 L0.177002 0.224500 L0.104877 0.265953 L-0.031417 0.229146 L-0.072870 0.157020 L-0.036063 0.020726 L0.000000 0.000000 z M0.020726 0.036063 L-0.016081 0.172357 L0.120213 0.209164 L0.157020 0.072870 z " fill="rgb(245,195,195)" />
<path d="M0.000000 0.000000 L1.000000 0.000000 L1.000000 1.000000 L0.000000 1.000000  z" fill="none" stroke="rgb(128,128,128)" stroke-width="0.01" />
<line x1="0.172357" y1="0.0160809" x2="0.213809" y2="0.0882064" style="stroke:rgb(246,147,147);stroke-width:0.01" />
<line x1="0.00766819" y1="-0.0283946" x2="0.200751" y2="0.0237491" style="stroke:rgb(246,147,147);stroke-width:0.01" />
<line x1="-0.0360627" y1="0.0207264" x2="-0.07287" y2="0.15702" style="stroke:rgb(246,147,147);stroke-width:0.01" />
<line x1="0.00766819" y1="-0.0283946" x2="-0.00766819" y2="0.0283946" style="stroke:rgb(246,147,147);stroke-width:0.01" />
<line x1="0.0360627" y1="-0.0207264" x2="-0.0360627" y2="0.0207264" style="stroke:rgb(246,147,147);stroke-width:0.01" />
<line x1="0.0360627" y1="-0.0207264" x2="-0.0314173" y2="0.229146" style="stroke:rgb(246,147,147);stroke-width:0.01" />
<line x1="-0.0360627" y1="0.0207264" x2="0.213809" y2="0.0882064" style="stroke:rgb(246,147,147);stroke-width:0.01" />
<line x1="0.172357" y1="0.0160809" x2="0.104877" y2="0.265953" style="stroke:rgb(246,147,147);stroke-width:0.01" />
<line x1="0.200751" y1="0.0237491" x2="0.185415" y2="0.0805382" style="stroke:rgb(246,147,147);stroke-width:0.01" />
<line x1="0.213809" y1="0.0882064" x2="0.177002" y2="0.2245" style="stroke:rgb(246,147,147);stroke-width:0.01" />
<line x1="-0.07287" y1="0.15702" x2="-0.0314173" y2="0.229146" style="stroke:rgb(246,147,147);stroke-width:0.01" />
<line x1="-0.07287" y1="0.15702" x2="0.177002" y2="0.2245" style="stroke:rgb(246,147,147);stroke-width:0.01" />
<line x1="-0.0314173" y1="0.229146" x2="0.104877" y2="0.265953" style="stroke:rgb(246,147,147);stroke-width:0.01" />
<line x1="0.177002" y1="0.2245" x2="0.104877" y2="0.265953" style="stroke:rgb(246,147,147);stroke-width:0.01" />
</g>
</svg>
