<svg xmlns="http://www.w3.org/2000/svg" viewBox="-1.5 -1.5 3 3">
<g transform="scale(1, -1)">
<path d="M-0.037508 -0.172832 L0.164465 -0.066482 L0.182678 -0.007754 L0.086457 0.174983 L0.027729 0.193197 L-0.155007 0.096975 L-0.173221 0.038247 L-0.066872 -0.163725 L-0.047636 -0.153596 z M-0.038529 -0.124232 L-0.134750 0.058504 L0.047986 0.154726 L0.144208 -0.028011 z " fill="rgb(245,195,195)" />
<path d="M-0.047636 -0.153596 L0.952364 -0.153596 L0.952364 0.846404 L-0.047636 0.846404  z" fill="none" stroke="rgb(128,128,128)" stroke-width="0.01" />
<line x1="0.164465" y1="-0.066482" x2="0.182678" y2="-0.00775398" style="stroke:rgb(246,147,147);stroke-width:0.01" />
<line x1="-0.0375075" y1="-0.172832" x2="0.164465" y2="-0.066482" style="stroke:rgb(246,147,147);stroke-width:0.01" />
<line x1="-0.0668715" y1="-0.163725" x2="-0.173221" y2="0.0382474" style="stroke:rgb(246,147,147);stroke-width:0.01" />
<line x1="-0.0668715" y1="-0.163725" x2="-0.0284006" y2="-0.143468" style="stroke:rgb(246,147,147);stroke-width:0.01" />
<line x1="-0.0375075" y1="-0.172832" x2="-0.0577646" y2="-0.134361" style="stroke:rgb(246,147,147);stroke-width:0.01" />
<line x1="-0.0284006" y1="-0.143468" x2="-0.155007" y2="0.0969753" style="stroke:rgb(246,147,147);stroke-width:0.01" />
<line x1="-0.0577646" y1="-0.134361" x2="0.182678" y2="-0.00775398" style="stroke:rgb(246,147,147);stroke-width:0.01" />
<line x1="-0.173221" y1="0.0382474" x2="-0.155007" y2="0.0969753" style="stroke:rgb(246,147,147);stroke-width:0.01" />
<line x1="0.164465" y1="-0.066482" x2="0.0277293" y2="0.193197" style="stroke:rgb(246,147,147);stroke-width:0.01" />
<line x1="0.182678" y1="-0.00775398" x2="0.0864572" y2="0.174983" style="stroke:rgb(246,147,147);stroke-width:0.01" />
<line x1="-0.173221" y1="0.0382474" x2="0.0864572" y2="0.174983" style="stroke:rgb(246,147,147);stroke-width:0.01" />
<line x1="-0.155007" y1="0.0969753" x2="0.0277293" y2="0.193197" style="stroke:rgb(246,147,147);stroke-width:0.01" />
<line x1="0.0864572" y1="0.174983" x2="0.0277293" y2="0.193197" style="stroke:rgb(246,147,147);stroke-width:0.01" />
</g>
</svg>
