<svg xmlns="http://www.w3.org/2000/svg" viewBox="-1.5 -1.5 3 3">
<g transform="scale(1, -1)">
<path d="M0.010129 -0.019235 L0.212101 0.087114 L0.230315 0.145842 L0.134093 0.328579 L0.075365 0.346793 L-0.107371 0.250572 L-0.125585 0.191844 L-0.019235 -0.010129 L0.000000 0.000000 z M0.009107 0.029364 L-0.087114 0.212101 L0.095622 0.308322 L0.191844 0.125585 z " fill="rgb(245,195,195)" />
<path d="M0.000000 0.000000 L1.000000 0.000000 L1.000000 1.000000 L0.000000 1.000000  z" fill="none" stroke="rgb(128,128,128)" stroke-width="0.01" />
<line x1="0.212101" y1="0.0871143" x2="0.230315" y2="0.145842" style="stroke:rgb(246,147,147);stroke-width:0.01" />
<line x1="0.0101285" y1="-0.0192354" x2="0.212101" y2="0.0871143" style="stroke:rgb(246,147,147);stroke-width:0.01" />
<line x1="-0.0192354" y1="-0.0101285" x2="-0.125585" y2="0.191844" style="stroke:rgb(246,147,147);stroke-width:0.01" />
<line x1="-0.0192354" y1="-0.0101285" x2="0.0192354" y2="0.0101285" style="stroke:rgb(246,147,147);stroke-width:0.01" />
<line x1="0.0101285" y1="-0.0192354" x2="-0.0101285" y2="0.0192354" style="stroke:rgb(246,147,147);stroke-width:0.01" />
<line x1="0.0192354" y1="0.0101285" x2="-0.107371" y2="0.250572" style="stroke:rgb(246,147,147);stroke-width:0.01" />
<line x1="-0.0101285" y1="0.0192354" x2="0.230315" y2="0.145842" style="stroke:rgb(246,147,147);stroke-width:0.01" />
<line x1="-0.125585" y1="0.191844" x2="-0.107371" y2="0.250572" style="stroke:rgb(246,147,147);stroke-width:0.01" />
<line x1="0.212101" y1="0.0871143" x2="0.0753653" y2="0.346793" style="stroke:rgb(246,147,147);stroke-width:0.01" />
<line x1="0.230315" y1="0.145842" x2="0.134093" y2="0.328579" style="stroke:rgb(246,147,147);stroke-width:0.01" />
<line x1="-0.125585" y1="0.191844" x2="0.134093" y2="0.328579" style="stroke:rgb(246,147,147);stroke-width:0.01" />
<line x1="-0.107371" y1="0.250572" x2="0.0753653" y2="0.346793" style="stroke:rgb(246,147,147);stroke-width:0.01" />
<line x1="0.134093" y1="0.328579" x2="0.0753653" y2="0.346793" style="stroke:rgb(246,147,147);stroke-width:0.01" />
</g>
</svg>
