<svg xmlns="http://www.w3.org/2000/svg" viewBox="-1.5 -1.5 3 3">
<g transform="scale(1, -1)">
<path d="M0.001405 -0.017184 L0.316446 0.008576 L0.348003 0.045755 L0.323648 0.343611 L0.286470 0.375169 L-0.028571 0.349409 L-0.025761 0.315041 L0.289280 0.340801 L0.313635 0.042945 L-0.001405 0.017184 z " fill="rgb(245,195,195)" />
<path d="M0.000000 0.000000 L1.000000 0.000000 L1.000000 1.000000 L0.000000 1.000000  z" fill="none" stroke="rgb(128,128,128)" stroke-width="0.01" />
<line x1="0.316446" y1="0.00857648" x2="0.348003" y2="0.0457548" style="stroke:rgb(246,147,147);stroke-width:0.01" />
<line x1="0.00140512" y1="-0.017184" x2="0.316446" y2="0.00857648" style="stroke:rgb(246,147,147);stroke-width:0.01" />
<line x1="0.00140512" y1="-0.017184" x2="-0.00140512" y2="0.017184" style="stroke:rgb(246,147,147);stroke-width:0.01" />
<line x1="-0.0257605" y1="0.315041" x2="-0.0285707" y2="0.349409" style="stroke:rgb(246,147,147);stroke-width:0.01" />
<line x1="-0.00140512" y1="0.017184" x2="0.348003" y2="0.0457548" style="stroke:rgb(246,147,147);stroke-width:0.01" />
<line x1="0.316446" y1="0.00857648" x2="0.28647" y2="0.375169" style="stroke:rgb(246,147,147);stroke-width:0.01" />
<line x1="0.348003" y1="0.0457548" x2="0.323648" y2="0.343611" style="stroke:rgb(246,147,147);stroke-width:0.01" />
<line x1="-0.0257605" y1="0.315041" x2="0.323648" y2="0.343611" style="stroke:rgb(246,147,147);stroke-width:0.01" />
<line x1="-0.0285707" y1="0.349409" x2="0.28647" y2="0.375169" style="stroke:rgb(246,147,147);stroke-width:0.01" />
<line x1="0.323648" y1="0.343611" x2="0.28647" y2="0.375169" style="stroke:rgb(246,147,147);stroke-width:0.01" />
</g>
</svg>
