<svg xmlns="http://www.w3.org/2000/svg" viewBox="-1.5 -1.5 3 3">
<g transform="scale(1, -1)">
<path d="M-0.180910 -0.199315 L0.134131 -0.173554 L0.165688 -0.136376 L0.141333 0.161481 L0.104155 0.193038 L-0.210886 0.167278 L-0.208076 0.132910 L0.106965 0.158670 L0.131320 -0.139186 L-0.183720 -0.164947 z " fill="rgb(245,195,195)" />
<path d="M-0.182315 -0.182131 L0.817685 -0.182131 L0.817685 0.817869 L-0.182315 0.817869  z" fill="none" stroke="rgb(128,128,128)" stroke-width="0.01" />
<line x1="0.134131" y1="-0.173554" x2="0.165688" y2="-0.136376" style="stroke:rgb(246,147,147);stroke-width:0.01" />
<line x1="-0.18091" y1="-0.199315" x2="0.134131" y2="-0.173554" style="stroke:rgb(246,147,147);stroke-width:0.01" />
<line x1="-0.18091" y1="-0.199315" x2="-0.18372" y2="-0.164947" style="stroke:rgb(246,147,147);stroke-width:0.01" />
<line x1="-0.208076" y1="0.13291" x2="-0.210886" y2="0.167278" style="stroke:rgb(246,147,147);stroke-width:0.01" />
<line x1="-0.18372" y1="-0.164947" x2="0.165688" y2="-0.136376" style="stroke:rgb(246,147,147);stroke-width:0.01" />
<line x1="0.134131" y1="-0.173554" x2="0.104155" y2="0.193038" style="stroke:rgb(246,147,147);stroke-width:0.01" />
<line x1="0.165688" y1="-0.136376" x2="0.141333" y2="0.161481" style="stroke:rgb(246,147,147);stroke-width:0.01" />
<line x1="-0.208076" y1="0.13291" x2="0.141333" y2="0.161481" style="stroke:rgb(246,147,147);stroke-width:0.01" />
<line x1="-0.210886" y1="0.167278" x2="0.104155" y2="0.193038" style="stroke:rgb(246,147,147);stroke-width:0.01" />
<line x1="0.141333" y1="0.161481" x2="0.104155" y2="0.193038" style="stroke:rgb(246,147,147);stroke-width:0.01" />
</g>
</svg>
