<svg xmlns="http://www.w3.org/2000/svg" viewBox="-1.5 -1.5 3 3">
<g transform="scale(1, -1)">
<path d="M0.005604 -0.028873 L0.201940 0.009236 L0.196336 0.038109 L0.219604 0.072586 L0.192704 0.211176 L0.123749 0.257713 L-0.014841 0.230813 L-0.061378 0.161858 L-0.034477 0.023269 L0.000000 0.000000 z M0.023269 0.034477 L-0.003632 0.173067 L0.134958 0.199968 L0.161858 0.061378 z " fill="rgb(245,195,195)" />
<path d="M0.000000 0.000000 L1.000000 0.000000 L1.000000 1.000000 L0.000000 1.000000  z" fill="none" stroke="rgb(128,128,128)" stroke-width="0.01" />
<line x1="0.173067" y1="0.00363201" x2="0.219604" y2="0.0725864" style="stroke:rgb(246,147,147);stroke-width:0.01" />
<line x1="0.00560429" y1="-0.0288729" x2="0.20194" y2="0.00923631" style="stroke:rgb(246,147,147);stroke-width:0.01" />
<line x1="-0.0344772" y1="0.0232686" x2="-0.0613778" y2="0.161858" style="stroke:rgb(246,147,147);stroke-width:0.01" />
<line x1="0.00560429" y1="-0.0288729" x2="-0.00560429" y2="0.0288729" style="stroke:rgb(246,147,147);stroke-width:0.01" />
<line x1="0.0344772" y1="-0.0232686" x2="-0.0344772" y2="0.0232686" style="stroke:rgb(246,147,147);stroke-width:0.01" />
<line x1="0.0344772" y1="-0.0232686" x2="-0.0148406" y2="0.230813" style="stroke:rgb(246,147,147);stroke-width:0.01" />
<line x1="-0.0344772" y1="0.0232686" x2="0.219604" y2="0.0725864" style="stroke:rgb(246,147,147);stroke-width:0.01" />
<line x1="0.173067" y1="0.00363201" x2="0.123749" y2="0.257713" style="stroke:rgb(246,147,147);stroke-width:0.01" />
<line x1="0.20194" y1="0.00923631" x2="0.190731" y2="0.0669821" style="stroke:rgb(246,147,147);stroke-width:0.01" />
<line x1="0.219604" y1="0.0725864" x2="0.192704" y2="0.211176" style="stroke:rgb(246,147,147);stroke-width:0.01" />
<line x1="-0.0613778" y1="0.161858" x2="-0.0148406" y2="0.230813" style="stroke:rgb(246,147,147);stroke-width:0.01" />
<line x1="-0.0613778" y1="0.161858" x2="0.192704" y2="0.211176" style="stroke:rgb(246,147,147);stroke-width:0.01" />
<line x1="-0.0148406" y1="0.230813" x2="0.123749" y2="0.257713" style="stroke:rgb(246,147,147);stroke-width:0.01" />
<line x1="0.192704" y1="0.211176" x2="0.123749" y2="0.257713" style="stroke:rgb(246,147,147);stroke-width:0.01" />
</g>
</svg>
