<svg xmlns="http://www.w3.org/2000/svg" viewBox="-1.5 -1.5 3 3">
<g transform="scale(1, -1)">
<path d="M-0.076231 -0.132071 L0.120105 -0.093962 L0.114500 -0.065089 L0.137769 -0.030612 L0.110868 0.107978 L0.041914 0.154515 L-0.096676 0.127614 L-0.143213 0.058660 L-0.116312 -0.079930 L-0.081835 -0.103198 z M-0.058567 -0.068721 L-0.085467 0.069869 L0.053123 0.096769 L0.080023 -0.041821 z " fill="rgb(245,195,195)" />
<path d="M-0.081835 -0.103198 L0.918165 -0.103198 L0.918165 0.896802 L-0.081835 0.896802  z" fill="none" stroke="rgb(128,128,128)" stroke-width="0.01" />
<line x1="0.0912317" y1="-0.0995664" x2="0.137769" y2="-0.0306121" style="stroke:rgb(246,147,147);stroke-width:0.01" />
<line x1="-0.076231" y1="-0.132071" x2="0.120105" y2="-0.0939621" style="stroke:rgb(246,147,147);stroke-width:0.01" />
<line x1="-0.116312" y1="-0.0799299" x2="-0.143213" y2="0.05866" style="stroke:rgb(246,147,147);stroke-width:0.01" />
<line x1="-0.076231" y1="-0.132071" x2="-0.0874396" y2="-0.0743256" style="stroke:rgb(246,147,147);stroke-width:0.01" />
<line x1="-0.0473581" y1="-0.126467" x2="-0.116312" y2="-0.0799299" style="stroke:rgb(246,147,147);stroke-width:0.01" />
<line x1="-0.0473581" y1="-0.126467" x2="-0.0966759" y2="0.127614" style="stroke:rgb(246,147,147);stroke-width:0.01" />
<line x1="-0.116312" y1="-0.0799299" x2="0.137769" y2="-0.0306121" style="stroke:rgb(246,147,147);stroke-width:0.01" />
<line x1="0.0912317" y1="-0.0995664" x2="0.041914" y2="0.154515" style="stroke:rgb(246,147,147);stroke-width:0.01" />
<line x1="0.120105" y1="-0.0939621" x2="0.108896" y2="-0.0362164" style="stroke:rgb(246,147,147);stroke-width:0.01" />
<line x1="0.137769" y1="-0.0306121" x2="0.110868" y2="0.107978" style="stroke:rgb(246,147,147);stroke-width:0.01" />
<line x1="-0.143213" y1="0.05866" x2="-0.0966759" y2="0.127614" style="stroke:rgb(246,147,147);stroke-width:0.01" />
<line x1="-0.143213" y1="0.05866" x2="0.110868" y2="0.107978" style="stroke:rgb(246,147,147);stroke-width:0.01" />
<line x1="-0.0966759" y1="0.127614" x2="0.041914" y2="0.154515" style="stroke:rgb(246,147,147);stroke-width:0.01" />
<line x1="0.110868" y1="0.107978" x2="0.041914" y2="0.154515" style="stroke:rgb(246,147,147);stroke-width:0.01" />
</g>
</svg>
