<svg xmlns="http://www.w3.org/2000/svg" viewBox="-1.5 -1.5 3 3">
<g transform="scale(1, -1)">
<path d="M-0.099814 -0.145996 L0.127337 -0.123507 L0.166320 -0.075956 L0.145972 0.129561 L0.098422 0.168544 L-0.107095 0.148196 L-0.146078 0.100646 L-0.123589 -0.126504 L-0.101956 -0.124363 z M-0.082464 -0.100587 L-0.102812 0.104929 L0.102705 0.125277 L0.123053 -0.080240 z " fill="rgb(245,195,195)" />
<path d="M-0.101956 -0.124363 L0.898044 -0.124363 L0.898044 0.875637 L-0.101956 0.875637  z" fill="none" stroke="rgb(128,128,128)" stroke-width="0.01" />
<line x1="0.127337" y1="-0.123507" x2="0.16632" y2="-0.0759561" style="stroke:rgb(246,147,147);stroke-width:0.01" />
<line x1="-0.0998137" y1="-0.145996" x2="0.127337" y2="-0.123507" style="stroke:rgb(246,147,147);stroke-width:0.01" />
<line x1="-0.123589" y1="-0.126504" x2="-0.146078" y2="0.100646" style="stroke:rgb(246,147,147);stroke-width:0.01" />
<line x1="-0.123589" y1="-0.126504" x2="-0.0803222" y2="-0.122221" style="stroke:rgb(246,147,147);stroke-width:0.01" />
<line x1="-0.0998137" y1="-0.145996" x2="-0.104097" y2="-0.102729" style="stroke:rgb(246,147,147);stroke-width:0.01" />
<line x1="-0.0803222" y1="-0.122221" x2="-0.107095" y2="0.148196" style="stroke:rgb(246,147,147);stroke-width:0.01" />
<line x1="-0.104097" y1="-0.102729" x2="0.16632" y2="-0.0759561" style="stroke:rgb(246,147,147);stroke-width:0.01" />
<line x1="0.127337" y1="-0.123507" x2="0.0984216" y2="0.168544" style="stroke:rgb(246,147,147);stroke-width:0.01" />
<line x1="0.16632" y1="-0.0759561" x2="0.145972" y2="0.129561" style="stroke:rgb(246,147,147);stroke-width:0.01" />
<line x1="-0.146078" y1="0.100646" x2="-0.107095" y2="0.148196" style="stroke:rgb(246,147,147);stroke-width:0.01" />
<line x1="-0.146078" y1="0.100646" x2="0.145972" y2="0.129561" style="stroke:rgb(246,147,147);stroke-width:0.01" />
<line x1="-0.107095" y1="0.148196" x2="0.0984216" y2="0.168544" style="stroke:rgb(246,147,147);stroke-width:0.01" />
<line x1="0.145972" y1="0.129561" x2="0.0984216" y2="0.168544" style="stroke:rgb(246,147,147);stroke-width:0.01" />
</g>
</svg>
