<svg xmlns="http://www.w3.org/2000/svg" viewBox="-1.5 -1.5 3 3">
<g transform="scale(1, -1)">
<path d="M0.002142 -0.021633 L0.229292 0.000856 L0.268275 0.048407 L0.247928 0.253923 L0.200377 0.292906 L-0.005140 0.272559 L-0.044123 0.225008 L-0.021633 -0.002142 L0.000000 0.000000 z M0.019492 0.023775 L-0.000856 0.229292 L0.204661 0.249640 L0.225008 0.044123 z " fill="rgb(245,195,195)" />
<path d="M0.000000 0.000000 L1.000000 0.000000 L1.000000 1.000000 L0.000000 1.000000  z" fill="none" stroke="rgb(128,128,128)" stroke-width="0.01" />
<line x1="0.229292" y1="0.000856079" x2="0.268275" y2="0.0484065" style="stroke:rgb(246,147,147);stroke-width:0.01" />
<line x1="0.00214185" y1="-0.0216334" x2="0.229292" y2="0.000856079" style="stroke:rgb(246,147,147);stroke-width:0.01" />
<line x1="-0.0216334" y1="-0.00214185" x2="-0.0441228" y2="0.225008" style="stroke:rgb(246,147,147);stroke-width:0.01" />
<line x1="-0.0216334" y1="-0.00214185" x2="0.0216334" y2="0.00214185" style="stroke:rgb(246,147,147);stroke-width:0.01" />
<line x1="0.00214185" y1="-0.0216334" x2="-0.00214185" y2="0.0216334" style="stroke:rgb(246,147,147);stroke-width:0.01" />
<line x1="0.0216334" y1="0.00214185" x2="-0.00513978" y2="0.272559" style="stroke:rgb(246,147,147);stroke-width:0.01" />
<line x1="-0.00214185" y1="0.0216334" x2="0.268275" y2="0.0484065" style="stroke:rgb(246,147,147);stroke-width:0.01" />
<line x1="0.229292" y1="0.000856079" x2="0.200377" y2="0.292906" style="stroke:rgb(246,147,147);stroke-width:0.01" />
<line x1="0.268275" y1="0.0484065" x2="0.247928" y2="0.253923" style="stroke:rgb(246,147,147);stroke-width:0.01" />
<line x1="-0.0441228" y1="0.225008" x2="-0.00513978" y2="0.272559" style="stroke:rgb(246,147,147);stroke-width:0.01" />
<line x1="-0.0441228" y1="0.225008" x2="0.247928" y2="0.253923" style="stroke:rgb(246,147,147);stroke-width:0.01" />
<line x1="-0.00513978" y1="0.272559" x2="0.200377" y2="0.292906" style="stroke:rgb(246,147,147);stroke-width:0.01" />
<line x1="0.247928" y1="0.253923" x2="0.200377" y2="0.292906" style="stroke:rgb(246,147,147);stroke-width:0.01" />
</g>
</svg>
