<svg xmlns="http://www.w3.org/2000/svg" viewBox="-1.5 -1.5 3 3">
<g transform="scale(1, -1)">
<path d="M-0.084331 -0.255623 L0.193072 -0.104092 L0.206804 -0.057299 L0.063538 0.204973 L0.016746 0.218704 L-0.260658 0.067174 L-0.244127 0.036912 L0.033276 0.188442 L0.176542 -0.073830 L-0.100862 -0.225361 z " fill="rgb(245,195,195)" />
<path d="M-0.092596 -0.240492 L0.907404 -0.240492 L0.907404 0.759508 L-0.092596 0.759508  z" fill="none" stroke="rgb(128,128,128)" stroke-width="0.01" />
<line x1="0.193072" y1="-0.104092" x2="0.206804" y2="-0.0572993" style="stroke:rgb(246,147,147);stroke-width:0.01" />
<line x1="-0.0843311" y1="-0.255623" x2="0.193072" y2="-0.104092" style="stroke:rgb(246,147,147);stroke-width:0.01" />
<line x1="-0.0843311" y1="-0.255623" x2="-0.100862" y2="-0.225361" style="stroke:rgb(246,147,147);stroke-width:0.01" />
<line x1="-0.244127" y1="0.0369115" x2="-0.260658" y2="0.0671737" style="stroke:rgb(246,147,147);stroke-width:0.01" />
<line x1="-0.100862" y1="-0.225361" x2="0.206804" y2="-0.0572993" style="stroke:rgb(246,147,147);stroke-width:0.01" />
<line x1="0.193072" y1="-0.104092" x2="0.0167456" y2="0.218704" style="stroke:rgb(246,147,147);stroke-width:0.01" />
<line x1="0.206804" y1="-0.0572993" x2="0.0635384" y2="0.204973" style="stroke:rgb(246,147,147);stroke-width:0.01" />
<line x1="-0.244127" y1="0.0369115" x2="0.0635384" y2="0.204973" style="stroke:rgb(246,147,147);stroke-width:0.01" />
<line x1="-0.260658" y1="0.0671737" x2="0.0167456" y2="0.218704" style="stroke:rgb(246,147,147);stroke-width:0.01" />
<line x1="0.0635384" y1="0.204973" x2="0.0167456" y2="0.218704" style="stroke:rgb(246,147,147);stroke-width:0.01" />
</g>
</svg>
