<svg xmlns="http://www.w3.org/2000/svg" viewBox="-1.5 -1.5 3 3">
<g transform="scale(1, -1)">
<path d="M0.008265 -0.015131 L0.285669 0.136400 L0.299400 0.183192 L0.156135 0.445465 L0.109342 0.459196 L-0.168061 0.307665 L-0.151531 0.277403 L0.125873 0.428934 L0.269138 0.166662 L-0.008265 0.015131 z " fill="rgb(245,195,195)" />
<path d="M0.000000 0.000000 L1.000000 0.000000 L1.000000 1.000000 L0.000000 1.000000  z" fill="none" stroke="rgb(128,128,128)" stroke-width="0.01" />
<line x1="0.285669" y1="0.1364" x2="0.2994" y2="0.183192" style="stroke:rgb(246,147,147);stroke-width:0.01" />
<line x1="0.00826531" y1="-0.0151311" x2="0.285669" y2="0.1364" style="stroke:rgb(246,147,147);stroke-width:0.01" />
<line x1="0.00826531" y1="-0.0151311" x2="-0.00826531" y2="0.0151311" style="stroke:rgb(246,147,147);stroke-width:0.01" />
<line x1="-0.151531" y1="0.277403" x2="-0.168061" y2="0.307665" style="stroke:rgb(246,147,147);stroke-width:0.01" />
<line x1="-0.00826531" y1="0.0151311" x2="0.2994" y2="0.183192" style="stroke:rgb(246,147,147);stroke-width:0.01" />
<line x1="0.285669" y1="0.1364" x2="0.109342" y2="0.459196" style="stroke:rgb(246,147,147);stroke-width:0.01" />
<line x1="0.2994" y1="0.183192" x2="0.156135" y2="0.445465" style="stroke:rgb(246,147,147);stroke-width:0.01" />
<line x1="-0.151531" y1="0.277403" x2="0.156135" y2="0.445465" style="stroke:rgb(246,147,147);stroke-width:0.01" />
<line x1="-0.168061" y1="0.307665" x2="0.109342" y2="0.459196" style="stroke:rgb(246,147,147);stroke-width:0.01" />
<line x1="0.156135" y1="0.445465" x2="0.109342" y2="0.459196" style="stroke:rgb(246,147,147);stroke-width:0.01" />
</g>
</svg>
