<svg xmlns="http://www.w3.org/2000/svg" viewBox="-1.5 -1.5 3 3">
<g transform="scale(1, -1)">
<path d="M0.044652 -0.133879 L0.076547 -0.107180 L0.105844 -0.109777 L0.123508 0.089441 L0.094212 0.092039 L0.067512 0.123933 L-0.073112 0.136402 L-0.136901 0.083004 L-0.149370 -0.057621 L-0.095972 -0.121410 z M0.049848 -0.075285 L-0.090777 -0.062816 L-0.078308 0.077809 L0.062317 0.065340 z " fill="rgb(245,195,195)" />
<path d="M0.076547 -0.107180 L1.076547 -0.107180 L1.076547 0.892820 L0.076547 0.892820  z" fill="none" stroke="rgb(128,128,128)" stroke-width="0.01" />
<line x1="-0.0959722" y1="-0.12141" x2="-0.14937" y2="-0.0576206" style="stroke:rgb(246,147,147);stroke-width:0.01" />
<line x1="0.0446525" y1="-0.133879" x2="-0.0959722" y2="-0.12141" style="stroke:rgb(246,147,147);stroke-width:0.01" />
<line x1="0.105844" y1="-0.109777" x2="0.123508" y2="0.089441" style="stroke:rgb(246,147,147);stroke-width:0.01" />
<line x1="0.0446525" y1="-0.133879" x2="0.108442" y2="-0.0804806" style="stroke:rgb(246,147,147);stroke-width:0.01" />
<line x1="0.105844" y1="-0.109777" x2="0.0472502" y2="-0.104582" style="stroke:rgb(246,147,147);stroke-width:0.01" />
<line x1="0.0446525" y1="-0.133879" x2="0.0675125" y2="0.123933" style="stroke:rgb(246,147,147);stroke-width:0.01" />
<line x1="-0.0959722" y1="-0.12141" x2="-0.0731123" y2="0.136402" style="stroke:rgb(246,147,147);stroke-width:0.01" />
<line x1="-0.14937" y1="-0.0576206" x2="-0.136901" y2="0.0830041" style="stroke:rgb(246,147,147);stroke-width:0.01" />
<line x1="0.108442" y1="-0.0804806" x2="-0.14937" y2="-0.0576206" style="stroke:rgb(246,147,147);stroke-width:0.01" />
<line x1="0.120911" y1="0.0601441" x2="0.0675125" y2="0.123933" style="stroke:rgb(246,147,147);stroke-width:0.01" />
<line x1="0.120911" y1="0.0601441" x2="-0.136901" y2="0.0830041" style="stroke:rgb(246,147,147);stroke-width:0.01" />
<line x1="0.123508" y1="0.089441" x2="0.0649148" y2="0.0946364" style="stroke:rgb(246,147,147);stroke-width:0.01" />
<line x1="-0.136901" y1="0.0830041" x2="-0.0731123" y2="0.136402" style="stroke:rgb(246,147,147);stroke-width:0.01" />
<line x1="0.0675125" y1="0.123933" x2="-0.0731123" y2="0.136402" style="stroke:rgb(246,147,147);stroke-width:0.01" />
</g>
</svg>
