<svg xmlns="http://www.w3.org/2000/svg" viewBox="-1.5 -1.5 3 3">
<g transform="scale(1, -1)">
<path d="M0.057668 -0.167189 L0.065452 -0.146891 L0.085750 -0.154676 L0.167488 0.058449 L0.142462 0.114613 L-0.050365 0.188566 L-0.106529 0.163540 L-0.180482 -0.029286 L-0.155456 -0.085451 z M0.052940 -0.118809 L-0.139887 -0.044856 L-0.065934 0.147971 L0.126893 0.074018 z " fill="rgb(245,195,195)" />
<path d="M0.065452 -0.146891 L1.065452 -0.146891 L1.065452 0.853109 L0.065452 0.853109  z" fill="none" stroke="rgb(128,128,128)" stroke-width="0.01" />
<line x1="-0.155456" y1="-0.0854506" x2="-0.180482" y2="-0.0292864" style="stroke:rgb(246,147,147);stroke-width:0.01" />
<line x1="0.0576679" y1="-0.167189" x2="-0.155456" y2="-0.0854506" style="stroke:rgb(246,147,147);stroke-width:0.01" />
<line x1="0.08575" y1="-0.154676" x2="0.167488" y2="0.0584486" style="stroke:rgb(246,147,147);stroke-width:0.01" />
<line x1="0.0576679" y1="-0.167189" x2="0.0732371" y2="-0.126594" style="stroke:rgb(246,147,147);stroke-width:0.01" />
<line x1="0.08575" y1="-0.154676" x2="0.0451549" y2="-0.139106" style="stroke:rgb(246,147,147);stroke-width:0.01" />
<line x1="0.0451549" y1="-0.139106" x2="0.142462" y2="0.114613" style="stroke:rgb(246,147,147);stroke-width:0.01" />
<line x1="0.0732371" y1="-0.126594" x2="-0.180482" y2="-0.0292864" style="stroke:rgb(246,147,147);stroke-width:0.01" />
<line x1="0.167488" y1="0.0584486" x2="0.142462" y2="0.114613" style="stroke:rgb(246,147,147);stroke-width:0.01" />
<line x1="-0.155456" y1="-0.0854506" x2="-0.0503646" y2="0.188566" style="stroke:rgb(246,147,147);stroke-width:0.01" />
<line x1="-0.180482" y1="-0.0292864" x2="-0.106529" y2="0.16354" style="stroke:rgb(246,147,147);stroke-width:0.01" />
<line x1="0.167488" y1="0.0584486" x2="-0.106529" y2="0.16354" style="stroke:rgb(246,147,147);stroke-width:0.01" />
<line x1="0.142462" y1="0.114613" x2="-0.0503646" y2="0.188566" style="stroke:rgb(246,147,147);stroke-width:0.01" />
<line x1="-0.106529" y1="0.16354" x2="-0.0503646" y2="0.188566" style="stroke:rgb(246,147,147);stroke-width:0.01" />
</g>
</svg>
