<svg xmlns="http://www.w3.org/2000/svg" viewBox="-1.5 -1.5 3 3">
<g transform="scale(1, -1)">
<path d="M0.125985 -0.237871 L0.208804 0.067179 L0.184561 0.109492 L-0.103850 0.187793 L-0.146163 0.163550 L-0.228982 -0.141500 L-0.195703 -0.150535 L-0.112885 0.154515 L0.175526 0.076213 L0.092707 -0.228836 z " fill="rgb(245,195,195)" />
<path d="M0.109346 -0.233353 L1.109346 -0.233353 L1.109346 0.766647 L0.109346 0.766647  z" fill="none" stroke="rgb(128,128,128)" stroke-width="0.01" />
<line x1="0.125985" y1="-0.237871" x2="0.208804" y2="0.0671786" style="stroke:rgb(246,147,147);stroke-width:0.01" />
<line x1="0.125985" y1="-0.237871" x2="0.0927069" y2="-0.228836" style="stroke:rgb(246,147,147);stroke-width:0.01" />
<line x1="-0.195703" y1="-0.150535" x2="-0.228982" y2="-0.1415" style="stroke:rgb(246,147,147);stroke-width:0.01" />
<line x1="0.0927069" y1="-0.228836" x2="0.184561" y2="0.109492" style="stroke:rgb(246,147,147);stroke-width:0.01" />
<line x1="-0.195703" y1="-0.150535" x2="-0.10385" y2="0.187793" style="stroke:rgb(246,147,147);stroke-width:0.01" />
<line x1="-0.228982" y1="-0.1415" x2="-0.146163" y2="0.16355" style="stroke:rgb(246,147,147);stroke-width:0.01" />
<line x1="0.208804" y1="0.0671786" x2="0.184561" y2="0.109492" style="stroke:rgb(246,147,147);stroke-width:0.01" />
<line x1="0.208804" y1="0.0671786" x2="-0.146163" y2="0.16355" style="stroke:rgb(246,147,147);stroke-width:0.01" />
<line x1="0.184561" y1="0.109492" x2="-0.10385" y2="0.187793" style="stroke:rgb(246,147,147);stroke-width:0.01" />
<line x1="-0.146163" y1="0.16355" x2="-0.10385" y2="0.187793" style="stroke:rgb(246,147,147);stroke-width:0.01" />
</g>
</svg>
