<svg xmlns="http://www.w3.org/2000/svg" viewBox="-1.5 -1.5 3 3">
<g transform="scale(1, -1)">
<path d="M0.011052 -0.152092 L0.152142 -0.010340 L0.131296 0.010409 L0.131199 0.052003 L0.031138 0.151596 L-0.052050 0.151402 L-0.151643 0.051341 L-0.151449 -0.031847 L-0.051389 -0.131440 L-0.009794 -0.131343 z M-0.009892 -0.089749 L-0.109952 0.009844 L-0.010359 0.109904 L0.089701 0.010311 z " fill="rgb(245,195,195)" />
<path d="M-0.009794 -0.131343 L0.990206 -0.131343 L0.990206 0.868657 L-0.009794 0.868657  z" fill="none" stroke="rgb(128,128,128)" stroke-width="0.01" />
<line x1="-0.0513887" y1="-0.13144" x2="-0.151449" y2="-0.0318473" style="stroke:rgb(246,147,147);stroke-width:0.01" />
<line x1="0.0110515" y1="-0.152092" x2="0.152142" y2="-0.0103399" style="stroke:rgb(246,147,147);stroke-width:0.01" />
<line x1="-0.151449" y1="-0.0318473" x2="-0.151643" y2="0.0513415" style="stroke:rgb(246,147,147);stroke-width:0.01" />
<line x1="-0.0513887" y1="-0.13144" x2="0.0318001" y2="-0.131246" style="stroke:rgb(246,147,147);stroke-width:0.01" />
<line x1="0.0110515" y1="-0.152092" x2="-0.0306402" y2="-0.110595" style="stroke:rgb(246,147,147);stroke-width:0.01" />
<line x1="0.131393" y1="-0.0311857" x2="0.131199" y2="0.0520031" style="stroke:rgb(246,147,147);stroke-width:0.01" />
<line x1="-0.0513887" y1="-0.13144" x2="0.131199" y2="0.0520031" style="stroke:rgb(246,147,147);stroke-width:0.01" />
<line x1="0.0318001" y1="-0.131246" x2="-0.151643" y2="0.0513415" style="stroke:rgb(246,147,147);stroke-width:0.01" />
<line x1="-0.151449" y1="-0.0318473" x2="0.0311385" y2="0.151596" style="stroke:rgb(246,147,147);stroke-width:0.01" />
<line x1="0.131393" y1="-0.0311857" x2="-0.0520503" y2="0.151402" style="stroke:rgb(246,147,147);stroke-width:0.01" />
<line x1="0.152142" y1="-0.0103399" x2="0.11045" y2="0.0311572" style="stroke:rgb(246,147,147);stroke-width:0.01" />
<line x1="-0.151643" y1="0.0513415" x2="-0.0520503" y2="0.151402" style="stroke:rgb(246,147,147);stroke-width:0.01" />
<line x1="0.131199" y1="0.0520031" x2="0.0311385" y2="0.151596" style="stroke:rgb(246,147,147);stroke-width:0.01" />
<line x1="-0.0520503" y1="0.151402" x2="0.0311385" y2="0.151596" style="stroke:rgb(246,147,147);stroke-width:0.01" />
</g>
</svg>
