<svg xmlns="http://www.w3.org/2000/svg" viewBox="-1.5 -1.5 3 3">
<g transform="scale(1, -1)">
<path d="M0.383579 -0.306533 L0.421407 -0.273215 L0.465193 0.071158 L0.482163 0.393494 L0.457990 0.409755 L0.199860 0.311049 L0.203738 0.300905 L0.259898 0.275810 L-0.430116 -0.089534 L-0.517061 -0.192019 L-0.500242 -0.248347 L-0.489712 -0.245203 L-0.470099 -0.208884 L-0.466598 -0.198435 z " fill="rgb(245,195,195)" />
<path d="M0.394442 -1.284200 L1.394442 -1.284200 L1.394442 -0.284200 L0.394442 -0.284200  z" fill="none" stroke="rgb(128,128,128)" stroke-width="0.01" />
<line x1="-0.500242" y1="-0.248347" x2="-0.517061" y2="-0.192019" style="stroke:rgb(246,147,147);stroke-width:0.01" />
<line x1="-0.489712" y1="-0.245203" x2="-0.508585" y2="-0.182028" style="stroke:rgb(246,147,147);stroke-width:0.01" />
<line x1="0.394442" y1="-0.296965" x2="0.394442" y2="-0.2842" style="stroke:rgb(246,147,147);stroke-width:0.01" />
<line x1="0.383579" y1="-0.306533" x2="0.383584" y2="-0.27321" style="stroke:rgb(246,147,147);stroke-width:0.01" />
<line x1="0.465193" y1="0.0711581" x2="0.482163" y2="0.393494" style="stroke:rgb(246,147,147);stroke-width:0.01" />
<line x1="0.465193" y1="0.0711581" x2="0.45799" y2="0.409755" style="stroke:rgb(246,147,147);stroke-width:0.01" />
<line x1="0.472972" y1="0.218927" x2="0.469047" y2="0.402317" style="stroke:rgb(246,147,147);stroke-width:0.01" />
<line x1="0.421407" y1="-0.273215" x2="0.465193" y2="0.0711581" style="stroke:rgb(246,147,147);stroke-width:0.01" />
<line x1="0.408935" y1="-0.2842" x2="0.472972" y2="0.218927" style="stroke:rgb(246,147,147);stroke-width:0.01" />
<line x1="0.203738" y1="0.300905" x2="0.19986" y2="0.311049" style="stroke:rgb(246,147,147);stroke-width:0.01" />
<line x1="-0.470099" y1="-0.208884" x2="-0.456671" y2="-0.120835" style="stroke:rgb(246,147,147);stroke-width:0.01" />
<line x1="-0.470099" y1="-0.208884" x2="-0.430116" y2="-0.0895344" style="stroke:rgb(246,147,147);stroke-width:0.01" />
<line x1="0.383579" y1="-0.306533" x2="0.421407" y2="-0.273215" style="stroke:rgb(246,147,147);stroke-width:0.01" />
<line x1="-0.489712" y1="-0.245203" x2="-0.470099" y2="-0.208884" style="stroke:rgb(246,147,147);stroke-width:0.01" />
<line x1="-0.517061" y1="-0.192019" x2="-0.430116" y2="-0.0895344" style="stroke:rgb(246,147,147);stroke-width:0.01" />
<line x1="0.383579" y1="-0.306533" x2="-0.517061" y2="-0.192019" style="stroke:rgb(246,147,147);stroke-width:0.01" />
<line x1="0.394442" y1="-0.296965" x2="-0.508585" y2="-0.182028" style="stroke:rgb(246,147,147);stroke-width:0.01" />
<line x1="0.394442" y1="-0.2842" x2="0.408935" y2="-0.2842" style="stroke:rgb(246,147,147);stroke-width:0.01" />
<line x1="0.421407" y1="-0.273215" x2="0.383584" y2="-0.27321" style="stroke:rgb(246,147,147);stroke-width:0.01" />
<line x1="0.482163" y1="0.393494" x2="0.45799" y2="0.409755" style="stroke:rgb(246,147,147);stroke-width:0.01" />
<line x1="-0.500242" y1="-0.248347" x2="-0.489712" y2="-0.245203" style="stroke:rgb(246,147,147);stroke-width:0.01" />
<line x1="0.471001" y1="0.181479" x2="0.203738" y2="0.300905" style="stroke:rgb(246,147,147);stroke-width:0.01" />
<line x1="-0.430116" y1="-0.0895344" x2="0.482163" y2="0.393494" style="stroke:rgb(246,147,147);stroke-width:0.01" />
<line x1="-0.456671" y1="-0.120835" x2="0.471001" y2="0.181479" style="stroke:rgb(246,147,147);stroke-width:0.01" />
<line x1="0.203738" y1="0.300905" x2="0.469047" y2="0.402317" style="stroke:rgb(246,147,147);stroke-width:0.01" />
<line x1="0.19986" y1="0.311049" x2="0.45799" y2="0.409755" style="stroke:rgb(246,147,147);stroke-width:0.01" />
</g>
</svg>
