<svg xmlns="http://www.w3.org/2000/svg" viewBox="-1.5 -1.5 3 3">
<g transform="scale(1, -1)">
<path d="M-0.010863 0.977667 L0.026965 1.010985 L0.070751 1.355358 L0.087721 1.677694 L0.063548 1.693955 L-0.194582 1.595249 L-0.190703 1.585105 L-0.134544 1.560010 L-0.824557 1.194666 L-0.911503 1.092181 L-0.894684 1.035853 L-0.884154 1.038997 L-0.864540 1.075316 L-0.861040 1.085765 z " fill="rgb(245,195,195)" />
<path d="M0.000000 0.000000 L1.000000 0.000000 L1.000000 1.000000 L0.000000 1.000000  z" fill="none" stroke="rgb(128,128,128)" stroke-width="0.01" />
<line x1="-0.894684" y1="1.03585" x2="-0.911503" y2="1.09218" style="stroke:rgb(246,147,147);stroke-width:0.01" />
<line x1="-0.884154" y1="1.039" x2="-0.903027" y2="1.10217" style="stroke:rgb(246,147,147);stroke-width:0.01" />
<line x1="0" y1="0.987235" x2="0" y2="1" style="stroke:rgb(246,147,147);stroke-width:0.01" />
<line x1="-0.0108625" y1="0.977667" x2="-0.0108582" y2="1.01099" style="stroke:rgb(246,147,147);stroke-width:0.01" />
<line x1="0.0707511" y1="1.35536" x2="0.0877213" y2="1.67769" style="stroke:rgb(246,147,147);stroke-width:0.01" />
<line x1="0.0707511" y1="1.35536" x2="0.0635478" y2="1.69395" style="stroke:rgb(246,147,147);stroke-width:0.01" />
<line x1="0.0785307" y1="1.50313" x2="0.0746053" y2="1.68652" style="stroke:rgb(246,147,147);stroke-width:0.01" />
<line x1="0.0269651" y1="1.01099" x2="0.0707511" y2="1.35536" style="stroke:rgb(246,147,147);stroke-width:0.01" />
<line x1="0.0144928" y1="1" x2="0.0785307" y2="1.50313" style="stroke:rgb(246,147,147);stroke-width:0.01" />
<line x1="-0.190703" y1="1.58511" x2="-0.194582" y2="1.59525" style="stroke:rgb(246,147,147);stroke-width:0.01" />
<line x1="-0.86454" y1="1.07532" x2="-0.851112" y2="1.16336" style="stroke:rgb(246,147,147);stroke-width:0.01" />
<line x1="-0.86454" y1="1.07532" x2="-0.824557" y2="1.19467" style="stroke:rgb(246,147,147);stroke-width:0.01" />
<line x1="-0.0108625" y1="0.977667" x2="0.0269651" y2="1.01099" style="stroke:rgb(246,147,147);stroke-width:0.01" />
<line x1="-0.884154" y1="1.039" x2="-0.86454" y2="1.07532" style="stroke:rgb(246,147,147);stroke-width:0.01" />
<line x1="-0.911503" y1="1.09218" x2="-0.824557" y2="1.19467" style="stroke:rgb(246,147,147);stroke-width:0.01" />
<line x1="-0.0108625" y1="0.977667" x2="-0.911503" y2="1.09218" style="stroke:rgb(246,147,147);stroke-width:0.01" />
<line x1="0" y1="0.987235" x2="-0.903027" y2="1.10217" style="stroke:rgb(246,147,147);stroke-width:0.01" />
<line x1="0" y1="1" x2="0.0144928" y2="1" style="stroke:rgb(246,147,147);stroke-width:0.01" />
<line x1="0.0269651" y1="1.01099" x2="-0.0108582" y2="1.01099" style="stroke:rgb(246,147,147);stroke-width:0.01" />
<line x1="0.0877213" y1="1.67769" x2="0.0635478" y2="1.69395" style="stroke:rgb(246,147,147);stroke-width:0.01" />
<line x1="-0.894684" y1="1.03585" x2="-0.884154" y2="1.039" style="stroke:rgb(246,147,147);stroke-width:0.01" />
<line x1="0.0765592" y1="1.46568" x2="-0.190703" y2="1.58511" style="stroke:rgb(246,147,147);stroke-width:0.01" />
<line x1="-0.824557" y1="1.19467" x2="0.0877213" y2="1.67769" style="stroke:rgb(246,147,147);stroke-width:0.01" />
<line x1="-0.851112" y1="1.16336" x2="0.0765592" y2="1.46568" style="stroke:rgb(246,147,147);stroke-width:0.01" />
<line x1="-0.190703" y1="1.58511" x2="0.0746053" y2="1.68652" style="stroke:rgb(246,147,147);stroke-width:0.01" />
<line x1="-0.194582" y1="1.59525" x2="0.0635478" y2="1.69395" style="stroke:rgb(246,147,147);stroke-width:0.01" />
</g>
</svg>
