<svg xmlns="http://www.w3.org/2000/svg" viewBox="-1.5 -1.5 3 3">
<g transform="scale(1, -1)">
<path d="M-0.110247 -0.138286 L0.117940 -0.132509 L0.160304 -0.087944 L0.155077 0.118512 L0.110512 0.160876 L-0.095944 0.155648 L-0.138308 0.111083 L-0.132530 -0.117105 L-0.110798 -0.116554 z M-0.089616 -0.094272 L-0.094843 0.112184 L0.111612 0.117411 L0.116840 -0.089044 z " fill="rgb(245,195,195)" />
<path d="M-0.110798 -0.116554 L0.889202 -0.116554 L0.889202 0.883446 L-0.110798 0.883446  z" fill="none" stroke="rgb(128,128,128)" stroke-width="0.01" />
<line x1="0.11794" y1="-0.132509" x2="0.160304" y2="-0.0879437" style="stroke:rgb(246,147,147);stroke-width:0.01" />
<line x1="-0.110247" y1="-0.138286" x2="0.11794" y2="-0.132509" style="stroke:rgb(246,147,147);stroke-width:0.01" />
<line x1="-0.13253" y1="-0.117105" x2="-0.138308" y2="0.111083" style="stroke:rgb(246,147,147);stroke-width:0.01" />
<line x1="-0.13253" y1="-0.117105" x2="-0.0890654" y2="-0.116004" style="stroke:rgb(246,147,147);stroke-width:0.01" />
<line x1="-0.110247" y1="-0.138286" x2="-0.111348" y2="-0.0948221" style="stroke:rgb(246,147,147);stroke-width:0.01" />
<line x1="-0.0890654" y1="-0.116004" x2="-0.0959438" y2="0.155648" style="stroke:rgb(246,147,147);stroke-width:0.01" />
<line x1="0.11794" y1="-0.132509" x2="0.110512" y2="0.160876" style="stroke:rgb(246,147,147);stroke-width:0.01" />
<line x1="0.160304" y1="-0.0879437" x2="0.155077" y2="0.118512" style="stroke:rgb(246,147,147);stroke-width:0.01" />
<line x1="-0.111348" y1="-0.0948221" x2="0.160304" y2="-0.0879437" style="stroke:rgb(246,147,147);stroke-width:0.01" />
<line x1="-0.138308" y1="0.111083" x2="-0.0959438" y2="0.155648" style="stroke:rgb(246,147,147);stroke-width:0.01" />
<line x1="-0.138308" y1="0.111083" x2="0.155077" y2="0.118512" style="stroke:rgb(246,147,147);stroke-width:0.01" />
<line x1="0.155077" y1="0.118512" x2="0.110512" y2="0.160876" style="stroke:rgb(246,147,147);stroke-width:0.01" />
<line x1="-0.0959438" y1="0.155648" x2="0.110512" y2="0.160876" style="stroke:rgb(246,147,147);stroke-width:0.01" />
</g>
</svg>
