<svg xmlns="http://www.w3.org/2000/svg" viewBox="-1.5 -1.5 3 3">
<g transform="scale(1, -1)">
<path d="M-0.028156 -0.267698 L0.210766 -0.060743 L0.214253 -0.012102 L0.018587 0.213788 L-0.030054 0.217276 L-0.268976 0.010321 L-0.246399 -0.015743 L-0.007477 0.191212 L0.188189 -0.034679 L-0.050733 -0.241633 z " fill="rgb(245,195,195)" />
<path d="M-0.039445 -0.254665 L0.960555 -0.254665 L0.960555 0.745335 L-0.039445 0.745335  z" fill="none" stroke="rgb(128,128,128)" stroke-width="0.01" />
<line x1="0.210766" y1="-0.060743" x2="0.214253" y2="-0.0121019" style="stroke:rgb(246,147,147);stroke-width:0.01" />
<line x1="-0.0281564" y1="-0.267698" x2="0.210766" y2="-0.060743" style="stroke:rgb(246,147,147);stroke-width:0.01" />
<line x1="-0.0281564" y1="-0.267698" x2="-0.0507333" y2="-0.241633" style="stroke:rgb(246,147,147);stroke-width:0.01" />
<line x1="-0.246399" y1="-0.0157429" x2="-0.268976" y2="0.0103213" style="stroke:rgb(246,147,147);stroke-width:0.01" />
<line x1="-0.0507333" y1="-0.241633" x2="0.214253" y2="-0.0121019" style="stroke:rgb(246,147,147);stroke-width:0.01" />
<line x1="0.210766" y1="-0.060743" x2="-0.0300538" y2="0.217276" style="stroke:rgb(246,147,147);stroke-width:0.01" />
<line x1="0.214253" y1="-0.0121019" x2="0.0185874" y2="0.213788" style="stroke:rgb(246,147,147);stroke-width:0.01" />
<line x1="-0.246399" y1="-0.0157429" x2="0.0185874" y2="0.213788" style="stroke:rgb(246,147,147);stroke-width:0.01" />
<line x1="-0.268976" y1="0.0103213" x2="-0.0300538" y2="0.217276" style="stroke:rgb(246,147,147);stroke-width:0.01" />
<line x1="0.0185874" y1="0.213788" x2="-0.0300538" y2="0.217276" style="stroke:rgb(246,147,147);stroke-width:0.01" />
</g>
</svg>
