<svg xmlns="http://www.w3.org/2000/svg" viewBox="-1.5 -1.5 3 3">
<g transform="scale(1, -1)">
<path d="M0.014402 -0.151811 L0.152333 -0.006983 L0.131034 0.013300 L0.130020 0.054883 L0.027789 0.152246 L-0.055375 0.150217 L-0.152738 0.047986 L-0.150710 -0.035178 L-0.048479 -0.132541 L-0.006897 -0.131527 z M-0.007911 -0.089945 L-0.110142 0.007418 L-0.012779 0.109649 L0.089452 0.012286 z " fill="rgb(245,195,195)" />
<path d="M-0.006897 -0.131527 L0.993103 -0.131527 L0.993103 0.868473 L-0.006897 0.868473  z" fill="none" stroke="rgb(128,128,128)" stroke-width="0.01" />
<line x1="-0.0484787" y1="-0.132541" x2="-0.15071" y2="-0.0351782" style="stroke:rgb(246,147,147);stroke-width:0.01" />
<line x1="0.0144016" y1="-0.151811" x2="0.152333" y2="-0.00698348" style="stroke:rgb(246,147,147);stroke-width:0.01" />
<line x1="-0.15071" y1="-0.0351782" x2="-0.152738" y2="0.0479861" style="stroke:rgb(246,147,147);stroke-width:0.01" />
<line x1="-0.0484787" y1="-0.132541" x2="0.0346856" y2="-0.130513" style="stroke:rgb(246,147,147);stroke-width:0.01" />
<line x1="0.0144016" y1="-0.151811" x2="-0.0281947" y2="-0.111243" style="stroke:rgb(246,147,147);stroke-width:0.01" />
<line x1="0.132049" y1="-0.0282817" x2="0.13002" y2="0.0548826" style="stroke:rgb(246,147,147);stroke-width:0.01" />
<line x1="-0.0484787" y1="-0.132541" x2="0.13002" y2="0.0548826" style="stroke:rgb(246,147,147);stroke-width:0.01" />
<line x1="0.0346856" y1="-0.130513" x2="-0.152738" y2="0.0479861" style="stroke:rgb(246,147,147);stroke-width:0.01" />
<line x1="-0.15071" y1="-0.0351782" x2="0.027789" y2="0.152246" style="stroke:rgb(246,147,147);stroke-width:0.01" />
<line x1="0.132049" y1="-0.0282817" x2="-0.0553753" y2="0.150217" style="stroke:rgb(246,147,147);stroke-width:0.01" />
<line x1="0.152333" y1="-0.00698348" x2="0.109736" y2="0.0335845" style="stroke:rgb(246,147,147);stroke-width:0.01" />
<line x1="-0.152738" y1="0.0479861" x2="-0.0553753" y2="0.150217" style="stroke:rgb(246,147,147);stroke-width:0.01" />
<line x1="0.13002" y1="0.0548826" x2="0.027789" y2="0.152246" style="stroke:rgb(246,147,147);stroke-width:0.01" />
<line x1="-0.0553753" y1="0.150217" x2="0.027789" y2="0.152246" style="stroke:rgb(246,147,147);stroke-width:0.01" />
</g>
</svg>
