<svg xmlns="http://www.w3.org/2000/svg" viewBox="-1.5 -1.5 3 3">
<g transform="scale(1, -1)">
<path d="M-0.036133 -0.565867 L-0.005888 -0.563489 L0.145235 -0.392517 L0.193650 -0.264637 L0.285640 0.395764 L0.294418 0.476604 L-0.107324 0.831703 L-0.769597 0.082440 z " fill="rgb(245,195,195)" />
<path d="M0.145235 -0.642517 L1.145235 -0.642517 L1.145235 0.357483 L0.145235 0.357483  z" fill="none" stroke="rgb(128,128,128)" stroke-width="0.01" />
<line x1="-0.0361329" y1="-0.565867" x2="-0.769597" y2="0.08244" style="stroke:rgb(246,147,147);stroke-width:0.01" />
<line x1="-0.00588804" y1="-0.563489" x2="-0.0227102" y2="-0.549605" style="stroke:rgb(246,147,147);stroke-width:0.01" />
<line x1="0.28564" y1="0.395764" x2="0.29184" y2="0.47517" style="stroke:rgb(246,147,147);stroke-width:0.01" />
<line x1="0.28564" y1="0.395764" x2="0.294418" y2="0.476604" style="stroke:rgb(246,147,147);stroke-width:0.01" />
<line x1="0.145235" y1="-0.392517" x2="0.145235" y2="0.357483" style="stroke:rgb(246,147,147);stroke-width:0.01" />
<line x1="0.19365" y1="-0.264637" x2="0.28564" y2="0.395764" style="stroke:rgb(246,147,147);stroke-width:0.01" />
<line x1="0.19365" y1="-0.264637" x2="0.137097" y2="0.398169" style="stroke:rgb(246,147,147);stroke-width:0.01" />
<line x1="0.145235" y1="-0.392517" x2="0.19365" y2="-0.264637" style="stroke:rgb(246,147,147);stroke-width:0.01" />
<line x1="-0.0361329" y1="-0.565867" x2="-0.00588804" y2="-0.563489" style="stroke:rgb(246,147,147);stroke-width:0.01" />
<line x1="-0.00588804" y1="-0.563489" x2="0.145235" y2="-0.392517" style="stroke:rgb(246,147,147);stroke-width:0.01" />
<line x1="-0.0361329" y1="-0.565867" x2="-0.0227102" y2="-0.549605" style="stroke:rgb(246,147,147);stroke-width:0.01" />
<line x1="0.294418" y1="0.476604" x2="-0.107324" y2="0.831703" style="stroke:rgb(246,147,147);stroke-width:0.01" />
<line x1="0.294073" y1="0.473425" x2="0.29184" y2="0.47517" style="stroke:rgb(246,147,147);stroke-width:0.01" />
<line x1="-0.769597" y1="0.08244" x2="-0.107324" y2="0.831703" style="stroke:rgb(246,147,147);stroke-width:0.01" />
<line x1="0.29184" y1="0.47517" x2="0.294418" y2="0.476604" style="stroke:rgb(246,147,147);stroke-width:0.01" />
<line x1="0.137097" y1="0.398169" x2="0.294073" y2="0.473425" style="stroke:rgb(246,147,147);stroke-width:0.01" />
<line x1="0.280307" y1="0.357483" x2="0.137097" y2="0.398169" style="stroke:rgb(246,147,147);stroke-width:0.01" />
<line x1="0.145235" y1="0.357483" x2="0.280307" y2="0.357483" style="stroke:rgb(246,147,147);stroke-width:0.01" />
</g>
</svg>
