<svg xmlns="http://www.w3.org/2000/svg" viewBox="-1.5 -1.5 3 3">
<g transform="scale(1, -1)">
<path d="M-0.181367 0.076649 L-0.151123 0.079027 L0.000000 0.250000 L0.048415 0.377880 L0.140405 1.038280 L0.149183 1.119121 L-0.252559 1.474220 L-0.914831 0.724957 z " fill="rgb(245,195,195)" />
<path d="M0.000000 0.000000 L1.000000 0.000000 L1.000000 1.000000 L0.000000 1.000000  z" fill="none" stroke="rgb(128,128,128)" stroke-width="0.01" />
<line x1="-0.181367" y1="0.0766492" x2="-0.914831" y2="0.724957" style="stroke:rgb(246,147,147);stroke-width:0.01" />
<line x1="-0.151123" y1="0.0790272" x2="-0.167945" y2="0.0929118" style="stroke:rgb(246,147,147);stroke-width:0.01" />
<line x1="0.140405" y1="1.03828" x2="0.146605" y2="1.11769" style="stroke:rgb(246,147,147);stroke-width:0.01" />
<line x1="0.140405" y1="1.03828" x2="0.149183" y2="1.11912" style="stroke:rgb(246,147,147);stroke-width:0.01" />
<line x1="0" y1="0.25" x2="0" y2="1" style="stroke:rgb(246,147,147);stroke-width:0.01" />
<line x1="0.0484153" y1="0.37788" x2="0.140405" y2="1.03828" style="stroke:rgb(246,147,147);stroke-width:0.01" />
<line x1="0.0484153" y1="0.37788" x2="-0.00813747" y2="1.04069" style="stroke:rgb(246,147,147);stroke-width:0.01" />
<line x1="0" y1="0.25" x2="0.0484153" y2="0.37788" style="stroke:rgb(246,147,147);stroke-width:0.01" />
<line x1="-0.181367" y1="0.0766492" x2="-0.151123" y2="0.0790272" style="stroke:rgb(246,147,147);stroke-width:0.01" />
<line x1="-0.151123" y1="0.0790272" x2="0" y2="0.25" style="stroke:rgb(246,147,147);stroke-width:0.01" />
<line x1="-0.181367" y1="0.0766492" x2="-0.167945" y2="0.0929118" style="stroke:rgb(246,147,147);stroke-width:0.01" />
<line x1="0.149183" y1="1.11912" x2="-0.252559" y2="1.47422" style="stroke:rgb(246,147,147);stroke-width:0.01" />
<line x1="0.148838" y1="1.11594" x2="0.146605" y2="1.11769" style="stroke:rgb(246,147,147);stroke-width:0.01" />
<line x1="-0.914831" y1="0.724957" x2="-0.252559" y2="1.47422" style="stroke:rgb(246,147,147);stroke-width:0.01" />
<line x1="0.146605" y1="1.11769" x2="0.149183" y2="1.11912" style="stroke:rgb(246,147,147);stroke-width:0.01" />
<line x1="-0.00813747" y1="1.04069" x2="0.148838" y2="1.11594" style="stroke:rgb(246,147,147);stroke-width:0.01" />
<line x1="0.135073" y1="1" x2="-0.00813747" y2="1.04069" style="stroke:rgb(246,147,147);stroke-width:0.01" />
<line x1="0" y1="1" x2="0.135073" y2="1" style="stroke:rgb(246,147,147);stroke-width:0.01" />
</g>
</svg>
