<svg xmlns="http://www.w3.org/2000/svg" viewBox="-1.5 -1.5 3 3">
<g transform="scale(1, -1)">
<path d="M0.058446 -0.196292 L0.193463 -0.024409 L0.052850 0.186510 L0.036437 0.186179 L-0.128372 0.021369 L-0.110639 -0.021192 L-0.052616 -0.010196 L0.004328 -0.033923 L-0.053897 -0.108046 z " fill="rgb(245,195,195)" />
<path d="M-0.153582 0.067587 L0.846418 0.067587 L0.846418 1.067587 L-0.153582 1.067587  z" fill="none" stroke="rgb(128,128,128)" stroke-width="0.01" />
<line x1="0.0584455" y1="-0.196292" x2="0.193463" y2="-0.0244089" style="stroke:rgb(246,147,147);stroke-width:0.01" />
<line x1="0.105228" y1="-0.0489289" x2="0.193463" y2="-0.0244089" style="stroke:rgb(246,147,147);stroke-width:0.01" />
<line x1="-0.0538965" y1="-0.108046" x2="0.110066" y2="0.100686" style="stroke:rgb(246,147,147);stroke-width:0.01" />
<line x1="0.105228" y1="-0.0489289" x2="0.146841" y2="0.0455232" style="stroke:rgb(246,147,147);stroke-width:0.01" />
<line x1="0.0771868" y1="-0.0642806" x2="0.132132" y2="0.0675875" style="stroke:rgb(246,147,147);stroke-width:0.01" />
<line x1="-0.110639" y1="-0.0211922" x2="0.0327969" y2="0.00599119" style="stroke:rgb(246,147,147);stroke-width:0.01" />
<line x1="0.0584455" y1="-0.196292" x2="-0.0538965" y2="-0.108046" style="stroke:rgb(246,147,147);stroke-width:0.01" />
<line x1="0.00177941" y1="0.070594" x2="0.0528498" y2="0.18651" style="stroke:rgb(246,147,147);stroke-width:0.01" />
<line x1="0.00177941" y1="0.070594" x2="0.110066" y2="0.100686" style="stroke:rgb(246,147,147);stroke-width:0.01" />
<line x1="-0.128372" y1="0.021369" x2="0.0364375" y2="0.186179" style="stroke:rgb(246,147,147);stroke-width:0.01" />
<line x1="0.0771868" y1="-0.0642806" x2="-0.128372" y2="0.021369" style="stroke:rgb(246,147,147);stroke-width:0.01" />
<line x1="-0.109395" y1="0.0403461" x2="0.146841" y2="0.0455232" style="stroke:rgb(246,147,147);stroke-width:0.01" />
<line x1="0.0327969" y1="0.00599119" x2="0.0364375" y2="0.186179" style="stroke:rgb(246,147,147);stroke-width:0.01" />
<line x1="-0.110639" y1="-0.0211922" x2="-0.109395" y2="0.0403461" style="stroke:rgb(246,147,147);stroke-width:0.01" />
<line x1="-0.110639" y1="-0.0211922" x2="-0.128372" y2="0.021369" style="stroke:rgb(246,147,147);stroke-width:0.01" />
<line x1="0.0327969" y1="0.00599119" x2="-0.0191287" y2="0.130613" style="stroke:rgb(246,147,147);stroke-width:0.01" />
<line x1="0.105228" y1="-0.0489289" x2="0.00177941" y2="0.070594" style="stroke:rgb(246,147,147);stroke-width:0.01" />
<line x1="0.132132" y1="0.0675875" x2="-0.0191287" y2="0.130613" style="stroke:rgb(246,147,147);stroke-width:0.01" />
<line x1="0.0364375" y1="0.186179" x2="0.0528498" y2="0.18651" style="stroke:rgb(246,147,147);stroke-width:0.01" />
<line x1="0.193463" y1="-0.0244089" x2="0.0528498" y2="0.18651" style="stroke:rgb(246,147,147);stroke-width:0.01" />
</g>
</svg>
