<svg xmlns="http://www.w3.org/2000/svg" viewBox="-1.5 -1.5 3 3">
<g transform="scale(1, -1)">
<path d="M0.212028 -0.263880 L0.347045 -0.091996 L0.206432 0.118923 L0.190020 0.118591 L0.025210 -0.046218 L0.042944 -0.088780 L0.100966 -0.077783 L0.157911 -0.101510 L0.099686 -0.175633 z " fill="rgb(245,195,195)" />
<path d="M0.000000 0.000000 L1.000000 0.000000 L1.000000 1.000000 L0.000000 1.000000  z" fill="none" stroke="rgb(128,128,128)" stroke-width="0.01" />
<line x1="0.212028" y1="-0.26388" x2="0.347045" y2="-0.0919964" style="stroke:rgb(246,147,147);stroke-width:0.01" />
<line x1="0.25881" y1="-0.116516" x2="0.347045" y2="-0.0919964" style="stroke:rgb(246,147,147);stroke-width:0.01" />
<line x1="0.099686" y1="-0.175633" x2="0.263648" y2="0.0330988" style="stroke:rgb(246,147,147);stroke-width:0.01" />
<line x1="0.25881" y1="-0.116516" x2="0.300424" y2="-0.0220643" style="stroke:rgb(246,147,147);stroke-width:0.01" />
<line x1="0.230769" y1="-0.131868" x2="0.285714" y2="0" style="stroke:rgb(246,147,147);stroke-width:0.01" />
<line x1="0.0429439" y1="-0.0887796" x2="0.186379" y2="-0.0615963" style="stroke:rgb(246,147,147);stroke-width:0.01" />
<line x1="0.212028" y1="-0.26388" x2="0.099686" y2="-0.175633" style="stroke:rgb(246,147,147);stroke-width:0.01" />
<line x1="0.155362" y1="0.00300652" x2="0.206432" y2="0.118923" style="stroke:rgb(246,147,147);stroke-width:0.01" />
<line x1="0.155362" y1="0.00300652" x2="0.263648" y2="0.0330988" style="stroke:rgb(246,147,147);stroke-width:0.01" />
<line x1="0.0252101" y1="-0.0462185" x2="0.19002" y2="0.118591" style="stroke:rgb(246,147,147);stroke-width:0.01" />
<line x1="0.230769" y1="-0.131868" x2="0.0252101" y2="-0.0462185" style="stroke:rgb(246,147,147);stroke-width:0.01" />
<line x1="0.0441872" y1="-0.0272413" x2="0.300424" y2="-0.0220643" style="stroke:rgb(246,147,147);stroke-width:0.01" />
<line x1="0.186379" y1="-0.0615963" x2="0.19002" y2="0.118591" style="stroke:rgb(246,147,147);stroke-width:0.01" />
<line x1="0.0429439" y1="-0.0887796" x2="0.0441872" y2="-0.0272413" style="stroke:rgb(246,147,147);stroke-width:0.01" />
<line x1="0.0429439" y1="-0.0887796" x2="0.0252101" y2="-0.0462185" style="stroke:rgb(246,147,147);stroke-width:0.01" />
<line x1="0.186379" y1="-0.0615963" x2="0.134454" y2="0.0630252" style="stroke:rgb(246,147,147);stroke-width:0.01" />
<line x1="0.25881" y1="-0.116516" x2="0.155362" y2="0.00300652" style="stroke:rgb(246,147,147);stroke-width:0.01" />
<line x1="0.285714" y1="0" x2="0.134454" y2="0.0630252" style="stroke:rgb(246,147,147);stroke-width:0.01" />
<line x1="0.19002" y1="0.118591" x2="0.206432" y2="0.118923" style="stroke:rgb(246,147,147);stroke-width:0.01" />
<line x1="0.347045" y1="-0.0919964" x2="0.206432" y2="0.118923" style="stroke:rgb(246,147,147);stroke-width:0.01" />
</g>
</svg>
