<svg xmlns="http://www.w3.org/2000/svg" viewBox="-1.5 -1.5 3 3">
<g transform="scale(1, -1)">
<path d="M-0.140533 -0.225222 L0.147929 -0.105030 L0.215237 0.058432 L0.191198 0.116124 L0.027737 0.183432 L-0.087648 0.135355 L-0.154956 -0.028107 L-0.130917 -0.085799 L-0.188609 -0.109837 z M-0.015533 -0.037722 L-0.039571 0.019970 L0.075814 0.068047 L0.099852 0.010355 z " fill="rgb(245,195,195)" />
<path d="M0.143121 0.231509 L1.143121 0.231509 L1.143121 1.231509 L0.143121 1.231509  z" fill="none" stroke="rgb(128,128,128)" stroke-width="0.01" />
<line x1="-0.140533" y1="-0.225222" x2="0.147929" y2="-0.10503" style="stroke:rgb(246,147,147);stroke-width:0.01" />
<line x1="-0.106879" y1="-0.143491" x2="0.00850592" y2="-0.0954142" style="stroke:rgb(246,147,147);stroke-width:0.01" />
<line x1="-0.188609" y1="-0.109837" x2="0.215237" y2="0.058432" style="stroke:rgb(246,147,147);stroke-width:0.01" />
<line x1="-0.140533" y1="-0.225222" x2="-0.188609" y2="-0.109837" style="stroke:rgb(246,147,147);stroke-width:0.01" />
<line x1="-0.106879" y1="-0.143491" x2="-0.154956" y2="-0.0281065" style="stroke:rgb(246,147,147);stroke-width:0.01" />
<line x1="-0.154956" y1="-0.0281065" x2="0.191198" y2="0.116124" style="stroke:rgb(246,147,147);stroke-width:0.01" />
<line x1="0.00850592" y1="-0.0954142" x2="-0.0876479" y2="0.135355" style="stroke:rgb(246,147,147);stroke-width:0.01" />
<line x1="0.191198" y1="0.116124" x2="0.0277367" y2="0.183432" style="stroke:rgb(246,147,147);stroke-width:0.01" />
<line x1="0.147929" y1="-0.10503" x2="0.215237" y2="0.058432" style="stroke:rgb(246,147,147);stroke-width:0.01" />
<line x1="0.147929" y1="-0.10503" x2="0.0277367" y2="0.183432" style="stroke:rgb(246,147,147);stroke-width:0.01" />
<line x1="-0.0876479" y1="0.135355" x2="0.0277367" y2="0.183432" style="stroke:rgb(246,147,147);stroke-width:0.01" />
<line x1="0.215237" y1="0.058432" x2="0.191198" y2="0.116124" style="stroke:rgb(246,147,147);stroke-width:0.01" />
<line x1="-0.154956" y1="-0.0281065" x2="-0.0876479" y2="0.135355" style="stroke:rgb(246,147,147);stroke-width:0.01" />
</g>
</svg>
