<svg xmlns="http://www.w3.org/2000/svg" viewBox="-1.5 -1.5 3 3">
<g transform="scale(1, -1)">
<path d="M-0.095225 0.106390 L-0.077492 0.122890 L-0.071166 0.123484 L-0.065280 0.134253 L-0.005859 0.189543 L0.081770 0.316974 L0.387617 1.417561 L0.385432 1.420360 L0.348572 1.391594 L0.163546 1.277709 L0.162222 1.246164 L0.031827 1.144403 L0.040543 1.000000 L0.000000 1.000000 L0.000000 0.403375 L-0.107921 0.120035 z " fill="rgb(245,195,195)" />
<path d="M0.000000 0.000000 L1.000000 0.000000 L1.000000 1.000000 L0.000000 1.000000  z" fill="none" stroke="rgb(128,128,128)" stroke-width="0.01" />
<line x1="0.162012" y1="0.605725" x2="0.22984" y2="1.0295" style="stroke:rgb(246,147,147);stroke-width:0.01" />
<line x1="0.130592" y1="0.49266" x2="0.163546" y2="1.27771" style="stroke:rgb(246,147,147);stroke-width:0.01" />
<line x1="-0.0711659" y1="0.123484" x2="-0.0915687" y2="0.162968" style="stroke:rgb(246,147,147);stroke-width:0.01" />
<line x1="0" y1="0.198064" x2="0" y2="1" style="stroke:rgb(246,147,147);stroke-width:0.01" />
<line x1="0.0817696" y1="0.316974" x2="0.387617" y2="1.41756" style="stroke:rgb(246,147,147);stroke-width:0.01" />
<line x1="-0.0952248" y1="0.10639" x2="-0.107921" y2="0.120035" style="stroke:rgb(246,147,147);stroke-width:0.01" />
<line x1="0.0817696" y1="0.316974" x2="0.0318274" y2="1.1444" style="stroke:rgb(246,147,147);stroke-width:0.01" />
<line x1="-0.00585937" y1="0.189543" x2="0.162012" y2="0.605725" style="stroke:rgb(246,147,147);stroke-width:0.01" />
<line x1="-0.107921" y1="0.120035" x2="0.386069" y2="1.41697" style="stroke:rgb(246,147,147);stroke-width:0.01" />
<line x1="-0.0711659" y1="0.123484" x2="0.130592" y2="0.49266" style="stroke:rgb(246,147,147);stroke-width:0.01" />
<line x1="-0.00585937" y1="0.189543" x2="0.0817696" y2="0.316974" style="stroke:rgb(246,147,147);stroke-width:0.01" />
<line x1="-0.0952248" y1="0.10639" x2="-0.00585937" y2="0.189543" style="stroke:rgb(246,147,147);stroke-width:0.01" />
<line x1="-0.107921" y1="0.120035" x2="-0.0711659" y2="0.123484" style="stroke:rgb(246,147,147);stroke-width:0.01" />
<line x1="-0.0915687" y1="0.162968" x2="0" y2="0.198064" style="stroke:rgb(246,147,147);stroke-width:0.01" />
<line x1="0.386968" y1="1.41523" x2="0.386069" y2="1.41697" style="stroke:rgb(246,147,147);stroke-width:0.01" />
<line x1="0.310134" y1="1.13874" x2="0.288819" y2="1.16165" style="stroke:rgb(246,147,147);stroke-width:0.01" />
<line x1="0.0318274" y1="1.1444" x2="0.385432" y2="1.42036" style="stroke:rgb(246,147,147);stroke-width:0.01" />
<line x1="0.387617" y1="1.41756" x2="0.385432" y2="1.42036" style="stroke:rgb(246,147,147);stroke-width:0.01" />
<line x1="0.163546" y1="1.27771" x2="0.386968" y2="1.41523" style="stroke:rgb(246,147,147);stroke-width:0.01" />
<line x1="0.271579" y1="1" x2="0.0318274" y2="1.1444" style="stroke:rgb(246,147,147);stroke-width:0.01" />
<line x1="0.317241" y1="1.16431" x2="0.163546" y2="1.27771" style="stroke:rgb(246,147,147);stroke-width:0.01" />
<line x1="0.0368988" y1="1.06038" x2="0.310134" y2="1.13874" style="stroke:rgb(246,147,147);stroke-width:0.01" />
<line x1="0" y1="1" x2="0.271579" y2="1" style="stroke:rgb(246,147,147);stroke-width:0.01" />
<line x1="0.22984" y1="1.0295" x2="0.0368988" y2="1.06038" style="stroke:rgb(246,147,147);stroke-width:0.01" />
<line x1="0.386069" y1="1.41697" x2="0.387617" y2="1.41756" style="stroke:rgb(246,147,147);stroke-width:0.01" />
<line x1="0.288819" y1="1.16165" x2="0.317241" y2="1.16431" style="stroke:rgb(246,147,147);stroke-width:0.01" />
</g>
</svg>
