<svg xmlns="http://www.w3.org/2000/svg" viewBox="-1.5 -1.5 3 3">
<g transform="scale(1, -1)">
<path d="M-0.168886 -0.607031 L-0.151154 -0.590531 L-0.144828 -0.589937 L-0.138942 -0.579168 L-0.079521 -0.523878 L0.008108 -0.396447 L0.313955 0.704140 L0.311771 0.706939 L0.274911 0.678173 L0.089885 0.564288 L0.088561 0.532744 L-0.041834 0.430982 L-0.033118 0.286579 L-0.073662 0.286579 L-0.073662 -0.310046 L-0.181583 -0.593386 z " fill="rgb(245,195,195)" />
<path d="M-0.073662 -0.713421 L0.926338 -0.713421 L0.926338 0.286579 L-0.073662 0.286579  z" fill="none" stroke="rgb(128,128,128)" stroke-width="0.01" />
<line x1="0.0883504" y1="-0.107696" x2="0.156178" y2="0.316079" style="stroke:rgb(246,147,147);stroke-width:0.01" />
<line x1="0.0569303" y1="-0.22076" x2="0.0898848" y2="0.564288" style="stroke:rgb(246,147,147);stroke-width:0.01" />
<line x1="-0.144828" y1="-0.589937" x2="-0.16523" y2="-0.550453" style="stroke:rgb(246,147,147);stroke-width:0.01" />
<line x1="-0.0736617" y1="-0.515357" x2="-0.0736617" y2="0.286579" style="stroke:rgb(246,147,147);stroke-width:0.01" />
<line x1="0.00810793" y1="-0.396447" x2="0.313955" y2="0.70414" style="stroke:rgb(246,147,147);stroke-width:0.01" />
<line x1="-0.168886" y1="-0.607031" x2="-0.181583" y2="-0.593386" style="stroke:rgb(246,147,147);stroke-width:0.01" />
<line x1="0.00810793" y1="-0.396447" x2="-0.0418343" y2="0.430982" style="stroke:rgb(246,147,147);stroke-width:0.01" />
<line x1="-0.079521" y1="-0.523878" x2="0.0883504" y2="-0.107696" style="stroke:rgb(246,147,147);stroke-width:0.01" />
<line x1="-0.181583" y1="-0.593386" x2="0.312407" y2="0.703547" style="stroke:rgb(246,147,147);stroke-width:0.01" />
<line x1="-0.144828" y1="-0.589937" x2="0.0569303" y2="-0.22076" style="stroke:rgb(246,147,147);stroke-width:0.01" />
<line x1="-0.079521" y1="-0.523878" x2="0.00810793" y2="-0.396447" style="stroke:rgb(246,147,147);stroke-width:0.01" />
<line x1="-0.168886" y1="-0.607031" x2="-0.079521" y2="-0.523878" style="stroke:rgb(246,147,147);stroke-width:0.01" />
<line x1="-0.181583" y1="-0.593386" x2="-0.144828" y2="-0.589937" style="stroke:rgb(246,147,147);stroke-width:0.01" />
<line x1="-0.16523" y1="-0.550453" x2="-0.0736617" y2="-0.515357" style="stroke:rgb(246,147,147);stroke-width:0.01" />
<line x1="0.313307" y1="0.701806" x2="0.312407" y2="0.703547" style="stroke:rgb(246,147,147);stroke-width:0.01" />
<line x1="0.236472" y1="0.425318" x2="0.215157" y2="0.448225" style="stroke:rgb(246,147,147);stroke-width:0.01" />
<line x1="-0.0418343" y1="0.430982" x2="0.311771" y2="0.706939" style="stroke:rgb(246,147,147);stroke-width:0.01" />
<line x1="0.313955" y1="0.70414" x2="0.311771" y2="0.706939" style="stroke:rgb(246,147,147);stroke-width:0.01" />
<line x1="0.0898848" y1="0.564288" x2="0.313307" y2="0.701806" style="stroke:rgb(246,147,147);stroke-width:0.01" />
<line x1="0.197917" y1="0.286579" x2="-0.0418343" y2="0.430982" style="stroke:rgb(246,147,147);stroke-width:0.01" />
<line x1="0.243579" y1="0.450892" x2="0.0898848" y2="0.564288" style="stroke:rgb(246,147,147);stroke-width:0.01" />
<line x1="-0.0367629" y1="0.346961" x2="0.236472" y2="0.425318" style="stroke:rgb(246,147,147);stroke-width:0.01" />
<line x1="-0.0736617" y1="0.286579" x2="0.197917" y2="0.286579" style="stroke:rgb(246,147,147);stroke-width:0.01" />
<line x1="0.156178" y1="0.316079" x2="-0.0367629" y2="0.346961" style="stroke:rgb(246,147,147);stroke-width:0.01" />
<line x1="0.312407" y1="0.703547" x2="0.313955" y2="0.70414" style="stroke:rgb(246,147,147);stroke-width:0.01" />
<line x1="0.215157" y1="0.448225" x2="0.243579" y2="0.450892" style="stroke:rgb(246,147,147);stroke-width:0.01" />
</g>
</svg>
