<svg xmlns="http://www.w3.org/2000/svg" viewBox="-1.5 -1.5 3 3">
<g transform="scale(1, -1)">
<path d="M0.178571 -0.428571 L0.082418 -0.197802 L0.543956 -0.005495 L-0.109890 0.263736 L-0.206044 0.494505 L-0.340659 0.167582 L-0.148352 -0.293956 z " fill="rgb(245,195,195)" />
<path d="M-1.975275 0.840659 L-0.975275 0.840659 L-0.975275 1.840659 L-1.975275 1.840659  z" fill="none" stroke="rgb(128,128,128)" stroke-width="0.01" />
<line x1="-0.148352" y1="-0.293956" x2="0.543956" y2="-0.00549451" style="stroke:rgb(246,147,147);stroke-width:0.01" />
<line x1="-0.0137363" y1="0.032967" x2="0.217033" y2="0.129121" style="stroke:rgb(246,147,147);stroke-width:0.01" />
<line x1="-0.340659" y1="0.167582" x2="-0.10989" y2="0.263736" style="stroke:rgb(246,147,147);stroke-width:0.01" />
<line x1="-0.148352" y1="-0.293956" x2="-0.0137363" y2="0.032967" style="stroke:rgb(246,147,147);stroke-width:0.01" />
<line x1="-0.340659" y1="0.167582" x2="-0.206044" y2="0.494505" style="stroke:rgb(246,147,147);stroke-width:0.01" />
<line x1="0.178571" y1="-0.428571" x2="-0.148352" y2="-0.293956" style="stroke:rgb(246,147,147);stroke-width:0.01" />
<line x1="-0.0137363" y1="0.032967" x2="-0.340659" y2="0.167582" style="stroke:rgb(246,147,147);stroke-width:0.01" />
<line x1="0.543956" y1="-0.00549451" x2="-0.10989" y2="0.263736" style="stroke:rgb(246,147,147);stroke-width:0.01" />
<line x1="-0.148352" y1="-0.293956" x2="-0.340659" y2="0.167582" style="stroke:rgb(246,147,147);stroke-width:0.01" />
<line x1="0.178571" y1="-0.428571" x2="-0.206044" y2="0.494505" style="stroke:rgb(246,147,147);stroke-width:0.01" />
<line x1="0.313187" y1="-0.101648" x2="0.217033" y2="0.129121" style="stroke:rgb(246,147,147);stroke-width:0.01" />
</g>
</svg>
