<svg xmlns="http://www.w3.org/2000/svg" viewBox="-1.5 -1.5 3 3">
<g transform="scale(1, -1)">
<path d="M-0.283654 -0.456731 L0.004808 -0.336538 L0.072115 -0.173077 L0.048077 -0.115385 L-0.115385 -0.048077 L-0.230769 -0.096154 L-0.298077 -0.259615 L-0.274038 -0.317308 L-0.331731 -0.341346 z M-0.158654 -0.269231 L-0.182692 -0.211538 L-0.067308 -0.163462 L-0.043269 -0.221154 z " fill="rgb(245,195,195)" />
<path d="M0.000000 0.000000 L1.000000 0.000000 L1.000000 1.000000 L0.000000 1.000000  z" fill="none" stroke="rgb(128,128,128)" stroke-width="0.01" />
<line x1="-0.283654" y1="-0.456731" x2="0.00480769" y2="-0.336538" style="stroke:rgb(246,147,147);stroke-width:0.01" />
<line x1="-0.25" y1="-0.375" x2="-0.134615" y2="-0.326923" style="stroke:rgb(246,147,147);stroke-width:0.01" />
<line x1="-0.331731" y1="-0.341346" x2="0.0721154" y2="-0.173077" style="stroke:rgb(246,147,147);stroke-width:0.01" />
<line x1="-0.283654" y1="-0.456731" x2="-0.331731" y2="-0.341346" style="stroke:rgb(246,147,147);stroke-width:0.01" />
<line x1="-0.25" y1="-0.375" x2="-0.298077" y2="-0.259615" style="stroke:rgb(246,147,147);stroke-width:0.01" />
<line x1="-0.298077" y1="-0.259615" x2="0.0480769" y2="-0.115385" style="stroke:rgb(246,147,147);stroke-width:0.01" />
<line x1="-0.134615" y1="-0.326923" x2="-0.230769" y2="-0.0961538" style="stroke:rgb(246,147,147);stroke-width:0.01" />
<line x1="0.0480769" y1="-0.115385" x2="-0.115385" y2="-0.0480769" style="stroke:rgb(246,147,147);stroke-width:0.01" />
<line x1="0.00480769" y1="-0.336538" x2="0.0721154" y2="-0.173077" style="stroke:rgb(246,147,147);stroke-width:0.01" />
<line x1="0.00480769" y1="-0.336538" x2="-0.115385" y2="-0.0480769" style="stroke:rgb(246,147,147);stroke-width:0.01" />
<line x1="-0.230769" y1="-0.0961538" x2="-0.115385" y2="-0.0480769" style="stroke:rgb(246,147,147);stroke-width:0.01" />
<line x1="0.0721154" y1="-0.173077" x2="0.0480769" y2="-0.115385" style="stroke:rgb(246,147,147);stroke-width:0.01" />
<line x1="-0.298077" y1="-0.259615" x2="-0.230769" y2="-0.0961538" style="stroke:rgb(246,147,147);stroke-width:0.01" />
</g>
</svg>
