<svg xmlns="http://www.w3.org/2000/svg" viewBox="-1.5 -1.5 3 3">
<g transform="scale(1, -1)">
<path d="M-0.430199 -0.460114 L0.339031 -0.139601 L0.274929 0.014245 L0.428775 0.078348 L0.210826 0.168091 L0.146724 0.321937 L-0.160969 0.193732 L-0.250712 -0.024217 L-0.558405 -0.152422 z " fill="rgb(245,195,195)" />
<path d="M-0.622507 0.001425 L0.377493 0.001425 L0.377493 1.001425 L-0.622507 1.001425  z" fill="none" stroke="rgb(128,128,128)" stroke-width="0.01" />
<line x1="-0.430199" y1="-0.460114" x2="0.339031" y2="-0.139601" style="stroke:rgb(246,147,147);stroke-width:0.01" />
<line x1="-0.494302" y1="-0.306268" x2="0.428775" y2="0.0783476" style="stroke:rgb(246,147,147);stroke-width:0.01" />
<line x1="0.121083" y1="-0.0498575" x2="0.210826" y2="0.168091" style="stroke:rgb(246,147,147);stroke-width:0.01" />
<line x1="-0.558405" y1="-0.152422" x2="0.210826" y2="0.168091" style="stroke:rgb(246,147,147);stroke-width:0.01" />
<line x1="-0.430199" y1="-0.460114" x2="-0.160969" y2="0.193732" style="stroke:rgb(246,147,147);stroke-width:0.01" />
<line x1="-0.160969" y1="0.193732" x2="0.146724" y2="0.321937" style="stroke:rgb(246,147,147);stroke-width:0.01" />
<line x1="-0.430199" y1="-0.460114" x2="-0.558405" y2="-0.152422" style="stroke:rgb(246,147,147);stroke-width:0.01" />
<line x1="0.031339" y1="-0.267806" x2="-0.160969" y2="0.193732" style="stroke:rgb(246,147,147);stroke-width:0.01" />
<line x1="0.185185" y1="-0.203704" x2="-0.00712251" y2="0.257835" style="stroke:rgb(246,147,147);stroke-width:0.01" />
<line x1="0.339031" y1="-0.139601" x2="0.146724" y2="0.321937" style="stroke:rgb(246,147,147);stroke-width:0.01" />
<line x1="0.428775" y1="0.0783476" x2="0.210826" y2="0.168091" style="stroke:rgb(246,147,147);stroke-width:0.01" />
</g>
</svg>
