<svg xmlns="http://www.w3.org/2000/svg" viewBox="-1.5 -1.5 3 3">
<g transform="scale(1, -1)">
<path d="M0.192308 -0.461538 L0.961538 -0.141026 L0.897436 0.012821 L1.051282 0.076923 L0.833333 0.166667 L0.769231 0.320513 L0.461538 0.192308 L0.371795 -0.025641 L0.064103 -0.153846 z " fill="rgb(245,195,195)" />
<path d="M0.000000 0.000000 L1.000000 0.000000 L1.000000 1.000000 L0.000000 1.000000  z" fill="none" stroke="rgb(128,128,128)" stroke-width="0.01" />
<line x1="0.192308" y1="-0.461538" x2="0.961538" y2="-0.141026" style="stroke:rgb(246,147,147);stroke-width:0.01" />
<line x1="0.128205" y1="-0.307692" x2="1.05128" y2="0.0769231" style="stroke:rgb(246,147,147);stroke-width:0.01" />
<line x1="0.74359" y1="-0.0512821" x2="0.833333" y2="0.166667" style="stroke:rgb(246,147,147);stroke-width:0.01" />
<line x1="0.0641026" y1="-0.153846" x2="0.833333" y2="0.166667" style="stroke:rgb(246,147,147);stroke-width:0.01" />
<line x1="0.192308" y1="-0.461538" x2="0.461538" y2="0.192308" style="stroke:rgb(246,147,147);stroke-width:0.01" />
<line x1="0.461538" y1="0.192308" x2="0.769231" y2="0.320513" style="stroke:rgb(246,147,147);stroke-width:0.01" />
<line x1="0.192308" y1="-0.461538" x2="0.0641026" y2="-0.153846" style="stroke:rgb(246,147,147);stroke-width:0.01" />
<line x1="0.653846" y1="-0.269231" x2="0.461538" y2="0.192308" style="stroke:rgb(246,147,147);stroke-width:0.01" />
<line x1="0.807692" y1="-0.205128" x2="0.615385" y2="0.25641" style="stroke:rgb(246,147,147);stroke-width:0.01" />
<line x1="0.961538" y1="-0.141026" x2="0.769231" y2="0.320513" style="stroke:rgb(246,147,147);stroke-width:0.01" />
<line x1="1.05128" y1="0.0769231" x2="0.833333" y2="0.166667" style="stroke:rgb(246,147,147);stroke-width:0.01" />
</g>
</svg>
