<svg xmlns="http://www.w3.org/2000/svg" viewBox="-1.5 -1.5 3 3">
<g transform="scale(1, -1)">
<path d="M-0.139601 -0.339031 L0.629630 -0.018519 L0.501425 0.289174 L0.193732 0.160969 L-0.024217 0.250712 L-0.331909 0.122507 L-0.267806 -0.031339 L-0.357550 -0.249288 L-0.203704 -0.185185 z " fill="rgb(245,195,195)" />
<path d="M-0.678063 0.519943 L0.321937 0.519943 L0.321937 1.519943 L-0.678063 1.519943  z" fill="none" stroke="rgb(128,128,128)" stroke-width="0.01" />
<line x1="-0.139601" y1="-0.339031" x2="0.62963" y2="-0.0185185" style="stroke:rgb(246,147,147);stroke-width:0.01" />
<line x1="-0.35755" y1="-0.249288" x2="0.565527" y2="0.135328" style="stroke:rgb(246,147,147);stroke-width:0.01" />
<line x1="-0.267806" y1="-0.031339" x2="0.501425" y2="0.289174" style="stroke:rgb(246,147,147);stroke-width:0.01" />
<line x1="-0.331909" y1="0.122507" x2="-0.0242165" y2="0.250712" style="stroke:rgb(246,147,147);stroke-width:0.01" />
<line x1="-0.0498575" y1="-0.121083" x2="-0.267806" y2="-0.031339" style="stroke:rgb(246,147,147);stroke-width:0.01" />
<line x1="-0.35755" y1="-0.249288" x2="-0.267806" y2="-0.031339" style="stroke:rgb(246,147,147);stroke-width:0.01" />
<line x1="0.62963" y1="-0.0185185" x2="-0.0242165" y2="0.250712" style="stroke:rgb(246,147,147);stroke-width:0.01" />
<line x1="-0.139601" y1="-0.339031" x2="-0.331909" y2="0.122507" style="stroke:rgb(246,147,147);stroke-width:0.01" />
<line x1="0.014245" y1="-0.274929" x2="-0.178063" y2="0.18661" style="stroke:rgb(246,147,147);stroke-width:0.01" />
<line x1="0.168091" y1="-0.210826" x2="-0.0242165" y2="0.250712" style="stroke:rgb(246,147,147);stroke-width:0.01" />
<line x1="0.62963" y1="-0.0185185" x2="0.501425" y2="0.289174" style="stroke:rgb(246,147,147);stroke-width:0.01" />
</g>
</svg>
