<svg xmlns="http://www.w3.org/2000/svg" viewBox="-1.5 -1.5 3 3">
<g transform="scale(1, -1)">
<path d="M0.538462 -0.858974 L1.307692 -0.538462 L1.179487 -0.230769 L0.871795 -0.358974 L0.653846 -0.269231 L0.346154 -0.397436 L0.410256 -0.551282 L0.320513 -0.769231 L0.474359 -0.705128 z " fill="rgb(245,195,195)" />
<path d="M0.000000 0.000000 L1.000000 0.000000 L1.000000 1.000000 L0.000000 1.000000  z" fill="none" stroke="rgb(128,128,128)" stroke-width="0.01" />
<line x1="0.538462" y1="-0.858974" x2="1.30769" y2="-0.538462" style="stroke:rgb(246,147,147);stroke-width:0.01" />
<line x1="0.320513" y1="-0.769231" x2="1.24359" y2="-0.384615" style="stroke:rgb(246,147,147);stroke-width:0.01" />
<line x1="0.410256" y1="-0.551282" x2="1.17949" y2="-0.230769" style="stroke:rgb(246,147,147);stroke-width:0.01" />
<line x1="0.346154" y1="-0.397436" x2="0.653846" y2="-0.269231" style="stroke:rgb(246,147,147);stroke-width:0.01" />
<line x1="0.628205" y1="-0.641026" x2="0.410256" y2="-0.551282" style="stroke:rgb(246,147,147);stroke-width:0.01" />
<line x1="0.320513" y1="-0.769231" x2="0.410256" y2="-0.551282" style="stroke:rgb(246,147,147);stroke-width:0.01" />
<line x1="1.30769" y1="-0.538462" x2="0.653846" y2="-0.269231" style="stroke:rgb(246,147,147);stroke-width:0.01" />
<line x1="0.538462" y1="-0.858974" x2="0.346154" y2="-0.397436" style="stroke:rgb(246,147,147);stroke-width:0.01" />
<line x1="0.692308" y1="-0.794872" x2="0.5" y2="-0.333333" style="stroke:rgb(246,147,147);stroke-width:0.01" />
<line x1="0.846154" y1="-0.730769" x2="0.653846" y2="-0.269231" style="stroke:rgb(246,147,147);stroke-width:0.01" />
<line x1="1.30769" y1="-0.538462" x2="1.17949" y2="-0.230769" style="stroke:rgb(246,147,147);stroke-width:0.01" />
</g>
</svg>
