<svg xmlns="http://www.w3.org/2000/svg" viewBox="-1.5 -1.5 3 3">
<g transform="scale(1, -1)">
<path d="M0.192308 -0.461538 L0.653846 -0.269231 L0.557692 -0.038462 L0.625000 0.125000 L0.461538 0.192308 L0.000000 0.000000 L0.096154 -0.230769 L0.028846 -0.394231 z " fill="rgb(245,195,195)" />
<path d="M0.000000 0.000000 L1.000000 0.000000 L1.000000 1.000000 L0.000000 1.000000  z" fill="none" stroke="rgb(128,128,128)" stroke-width="0.01" />
<line x1="0.192308" y1="-0.461538" x2="0.653846" y2="-0.269231" style="stroke:rgb(246,147,147);stroke-width:0.01" />
<line x1="0.192308" y1="-0.461538" x2="0.0288462" y2="-0.394231" style="stroke:rgb(246,147,147);stroke-width:0.01" />
<line x1="0.0961538" y1="-0.230769" x2="0.557692" y2="-0.0384615" style="stroke:rgb(246,147,147);stroke-width:0.01" />
<line x1="0.557692" y1="-0.0384615" x2="0.625" y2="0.125" style="stroke:rgb(246,147,147);stroke-width:0.01" />
<line x1="0.192308" y1="-0.461538" x2="0.461538" y2="0.192308" style="stroke:rgb(246,147,147);stroke-width:0.01" />
<line x1="0.0288462" y1="-0.394231" x2="0.0961538" y2="-0.230769" style="stroke:rgb(246,147,147);stroke-width:0.01" />
<line x1="0" y1="0" x2="0.461538" y2="0.192308" style="stroke:rgb(246,147,147);stroke-width:0.01" />
<line x1="0.192308" y1="-0.461538" x2="0" y2="0" style="stroke:rgb(246,147,147);stroke-width:0.01" />
<line x1="0.423077" y1="-0.365385" x2="0.230769" y2="0.0961538" style="stroke:rgb(246,147,147);stroke-width:0.01" />
<line x1="0.653846" y1="-0.269231" x2="0.461538" y2="0.192308" style="stroke:rgb(246,147,147);stroke-width:0.01" />
<line x1="0.625" y1="0.125" x2="0.461538" y2="0.192308" style="stroke:rgb(246,147,147);stroke-width:0.01" />
</g>
</svg>
