<svg xmlns="http://www.w3.org/2000/svg" viewBox="-1.5 -1.5 3 3">
<g transform="scale(1, -1)">
<path d="M0.014793 -0.202170 L0.271203 -0.095332 L0.207101 0.058514 L0.155819 0.037147 L0.134451 0.088429 L-0.083498 0.178172 L-0.134780 0.156805 L-0.224523 -0.061144 L-0.203156 -0.112426 z M-0.049310 -0.048323 L-0.070677 0.002959 L-0.019395 0.024326 L0.001972 -0.026956 z " fill="rgb(245,195,195)" />
<path d="M-0.433925 0.152531 L0.566075 0.152531 L0.566075 1.152531 L-0.433925 1.152531  z" fill="none" stroke="rgb(128,128,128)" stroke-width="0.01" />
<line x1="0.0147929" y1="-0.20217" x2="0.271203" y2="-0.095332" style="stroke:rgb(246,147,147);stroke-width:0.01" />
<line x1="0.0233399" y1="-0.078238" x2="0.177186" y2="-0.0141354" style="stroke:rgb(246,147,147);stroke-width:0.01" />
<line x1="-0.203156" y1="-0.112426" x2="0.207101" y2="0.0585141" style="stroke:rgb(246,147,147);stroke-width:0.01" />
<line x1="-0.224523" y1="-0.061144" x2="0.134451" y2="0.0884287" style="stroke:rgb(246,147,147);stroke-width:0.01" />
<line x1="0.0147929" y1="-0.20217" x2="-0.203156" y2="-0.112426" style="stroke:rgb(246,147,147);stroke-width:0.01" />
<line x1="-0.224523" y1="-0.061144" x2="-0.13478" y2="0.156805" style="stroke:rgb(246,147,147);stroke-width:0.01" />
<line x1="-0.13478" y1="0.156805" x2="-0.0834977" y2="0.178172" style="stroke:rgb(246,147,147);stroke-width:0.01" />
<line x1="-0.203156" y1="-0.112426" x2="-0.224523" y2="-0.061144" style="stroke:rgb(246,147,147);stroke-width:0.01" />
<line x1="0.0147929" y1="-0.20217" x2="-0.13478" y2="0.156805" style="stroke:rgb(246,147,147);stroke-width:0.01" />
<line x1="0.0233399" y1="-0.078238" x2="-0.0834977" y2="0.178172" style="stroke:rgb(246,147,147);stroke-width:0.01" />
<line x1="0.134451" y1="0.0884287" x2="-0.0834977" y2="0.178172" style="stroke:rgb(246,147,147);stroke-width:0.01" />
<line x1="0.177186" y1="-0.0141354" x2="0.134451" y2="0.0884287" style="stroke:rgb(246,147,147);stroke-width:0.01" />
<line x1="0.271203" y1="-0.095332" x2="0.207101" y2="0.0585141" style="stroke:rgb(246,147,147);stroke-width:0.01" />
</g>
</svg>
