<svg xmlns="http://www.w3.org/2000/svg" viewBox="-1.5 -1.5 3 3">
<g transform="scale(1, -1)">
<path d="M0.448718 -0.354701 L0.705128 -0.247863 L0.641026 -0.094017 L0.589744 -0.115385 L0.568376 -0.064103 L0.350427 0.025641 L0.299145 0.004274 L0.209402 -0.213675 L0.230769 -0.264957 z M0.384615 -0.200855 L0.363248 -0.149573 L0.414530 -0.128205 L0.435897 -0.179487 z " fill="rgb(245,195,195)" />
<path d="M0.000000 0.000000 L1.000000 0.000000 L1.000000 1.000000 L0.000000 1.000000  z" fill="none" stroke="rgb(128,128,128)" stroke-width="0.01" />
<line x1="0.448718" y1="-0.354701" x2="0.705128" y2="-0.247863" style="stroke:rgb(246,147,147);stroke-width:0.01" />
<line x1="0.457265" y1="-0.230769" x2="0.611111" y2="-0.166667" style="stroke:rgb(246,147,147);stroke-width:0.01" />
<line x1="0.230769" y1="-0.264957" x2="0.641026" y2="-0.0940171" style="stroke:rgb(246,147,147);stroke-width:0.01" />
<line x1="0.209402" y1="-0.213675" x2="0.568376" y2="-0.0641026" style="stroke:rgb(246,147,147);stroke-width:0.01" />
<line x1="0.448718" y1="-0.354701" x2="0.230769" y2="-0.264957" style="stroke:rgb(246,147,147);stroke-width:0.01" />
<line x1="0.209402" y1="-0.213675" x2="0.299145" y2="0.0042735" style="stroke:rgb(246,147,147);stroke-width:0.01" />
<line x1="0.299145" y1="0.0042735" x2="0.350427" y2="0.025641" style="stroke:rgb(246,147,147);stroke-width:0.01" />
<line x1="0.230769" y1="-0.264957" x2="0.209402" y2="-0.213675" style="stroke:rgb(246,147,147);stroke-width:0.01" />
<line x1="0.448718" y1="-0.354701" x2="0.299145" y2="0.0042735" style="stroke:rgb(246,147,147);stroke-width:0.01" />
<line x1="0.457265" y1="-0.230769" x2="0.350427" y2="0.025641" style="stroke:rgb(246,147,147);stroke-width:0.01" />
<line x1="0.568376" y1="-0.0641026" x2="0.350427" y2="0.025641" style="stroke:rgb(246,147,147);stroke-width:0.01" />
<line x1="0.611111" y1="-0.166667" x2="0.568376" y2="-0.0641026" style="stroke:rgb(246,147,147);stroke-width:0.01" />
<line x1="0.705128" y1="-0.247863" x2="0.641026" y2="-0.0940171" style="stroke:rgb(246,147,147);stroke-width:0.01" />
</g>
</svg>
