<svg xmlns="http://www.w3.org/2000/svg" viewBox="-1.5 -1.5 3 3">
<g transform="scale(1, -1)">
<path d="M0.062500 0.531250 L0.174107 0.614955 L0.275000 0.572917 L0.275000 0.550000 L0.337500 0.550000 L0.337500 0.737500 L0.275000 0.768750 L0.165179 0.686384 L0.062500 0.729167 L0.000000 0.687500 L0.000000 0.562500 z M0.062500 0.609375 L0.062500 0.661458 L0.107143 0.642857 z M0.275000 0.640625 L0.232143 0.658482 L0.275000 0.690625 z " fill="rgb(245,195,195)" />
<path d="M0.000000 0.000000 L1.000000 0.000000 L1.000000 1.000000 L0.000000 1.000000  z" fill="none" stroke="rgb(128,128,128)" stroke-width="0.01" />
<line x1="0.288462" y1="0.567308" x2="0.3125" y2="0.625" style="stroke:rgb(246,147,147);stroke-width:0.01" />
<line x1="0" y1="0.5625" x2="0" y2="0.6875" style="stroke:rgb(246,147,147);stroke-width:0.01" />
<line x1="0.0625" y1="0.53125" x2="0.0625" y2="0.729167" style="stroke:rgb(246,147,147);stroke-width:0.01" />
<line x1="0.275" y1="0.55" x2="0.275" y2="0.76875" style="stroke:rgb(246,147,147);stroke-width:0.01" />
<line x1="0.3375" y1="0.55" x2="0.3375" y2="0.7375" style="stroke:rgb(246,147,147);stroke-width:0.01" />
<line x1="0.0625" y1="0.53125" x2="0.3375" y2="0.7375" style="stroke:rgb(246,147,147);stroke-width:0.01" />
<line x1="0" y1="0.5625" x2="0.275" y2="0.76875" style="stroke:rgb(246,147,147);stroke-width:0.01" />
<line x1="0.0625" y1="0.53125" x2="0" y2="0.5625" style="stroke:rgb(246,147,147);stroke-width:0.01" />
<line x1="0" y1="0.6875" x2="0.0625" y2="0.729167" style="stroke:rgb(246,147,147);stroke-width:0.01" />
<line x1="0.275" y1="0.55" x2="0.3375" y2="0.55" style="stroke:rgb(246,147,147);stroke-width:0.01" />
<line x1="0.288462" y1="0.567308" x2="0" y2="0.6875" style="stroke:rgb(246,147,147);stroke-width:0.01" />
<line x1="0.3125" y1="0.625" x2="0.0625" y2="0.729167" style="stroke:rgb(246,147,147);stroke-width:0.01" />
<line x1="0.3375" y1="0.7375" x2="0.275" y2="0.76875" style="stroke:rgb(246,147,147);stroke-width:0.01" />
</g>
</svg>
