<svg xmlns="http://www.w3.org/2000/svg" viewBox="-1.5 -1.5 3 3">
<g transform="scale(1, -1)">
<path d="M-0.112710 -0.109594 L-0.001103 -0.025888 L0.099790 -0.067927 L0.099790 -0.090844 L0.162290 -0.090844 L0.162290 0.096656 L0.099790 0.127906 L-0.010032 0.045540 L-0.112710 0.088323 L-0.175210 0.046656 L-0.175210 -0.078344 z M-0.112710 -0.031469 L-0.112710 0.020614 L-0.068067 0.002013 z M0.099790 -0.000219 L0.056933 0.017638 L0.099790 0.049781 z " fill="rgb(245,195,195)" />
<path d="M-0.175210 -0.640844 L0.824790 -0.640844 L0.824790 0.359156 L-0.175210 0.359156  z" fill="none" stroke="rgb(128,128,128)" stroke-width="0.01" />
<line x1="0.113251" y1="-0.0735361" x2="0.13729" y2="-0.0158438" style="stroke:rgb(246,147,147);stroke-width:0.01" />
<line x1="-0.17521" y1="-0.0783438" x2="-0.17521" y2="0.0466562" style="stroke:rgb(246,147,147);stroke-width:0.01" />
<line x1="-0.11271" y1="-0.109594" x2="-0.11271" y2="0.0883228" style="stroke:rgb(246,147,147);stroke-width:0.01" />
<line x1="0.0997899" y1="-0.0908438" x2="0.0997899" y2="0.127906" style="stroke:rgb(246,147,147);stroke-width:0.01" />
<line x1="0.16229" y1="-0.0908438" x2="0.16229" y2="0.0966562" style="stroke:rgb(246,147,147);stroke-width:0.01" />
<line x1="-0.11271" y1="-0.109594" x2="0.16229" y2="0.0966562" style="stroke:rgb(246,147,147);stroke-width:0.01" />
<line x1="-0.17521" y1="-0.0783438" x2="0.0997899" y2="0.127906" style="stroke:rgb(246,147,147);stroke-width:0.01" />
<line x1="-0.11271" y1="-0.109594" x2="-0.17521" y2="-0.0783438" style="stroke:rgb(246,147,147);stroke-width:0.01" />
<line x1="-0.17521" y1="0.0466562" x2="-0.11271" y2="0.0883228" style="stroke:rgb(246,147,147);stroke-width:0.01" />
<line x1="0.0997899" y1="-0.0908438" x2="0.16229" y2="-0.0908438" style="stroke:rgb(246,147,147);stroke-width:0.01" />
<line x1="0.113251" y1="-0.0735361" x2="-0.17521" y2="0.0466562" style="stroke:rgb(246,147,147);stroke-width:0.01" />
<line x1="0.13729" y1="-0.0158438" x2="-0.11271" y2="0.0883228" style="stroke:rgb(246,147,147);stroke-width:0.01" />
<line x1="0.16229" y1="0.0966562" x2="0.0997899" y2="0.127906" style="stroke:rgb(246,147,147);stroke-width:0.01" />
</g>
</svg>
