<svg xmlns="http://www.w3.org/2000/svg" viewBox="-1.5 -1.5 3 3">
<g transform="scale(1, -1)">
<path d="M0.375000 0.305556 L0.500000 0.363889 L0.500000 0.633333 L0.375000 0.733333 L0.294414 0.715201 L0.191928 0.458987 z M0.375000 0.468651 L0.322497 0.512654 L0.375000 0.547691 z M0.375000 0.594444 L0.368755 0.603803 L0.375000 0.605208 z " fill="rgb(245,195,195)" />
<path d="M0.000000 0.000000 L1.000000 0.000000 L1.000000 1.000000 L0.000000 1.000000  z" fill="none" stroke="rgb(128,128,128)" stroke-width="0.01" />
<line x1="0.258484" y1="0.454757" x2="0.266413" y2="0.579505" style="stroke:rgb(246,147,147);stroke-width:0.01" />
<line x1="0.191928" y1="0.458987" x2="0.294414" y2="0.715201" style="stroke:rgb(246,147,147);stroke-width:0.01" />
<line x1="0.375" y1="0.305556" x2="0.375" y2="0.733333" style="stroke:rgb(246,147,147);stroke-width:0.01" />
<line x1="0.5" y1="0.363889" x2="0.5" y2="0.633333" style="stroke:rgb(246,147,147);stroke-width:0.01" />
<line x1="0.375" y1="0.305556" x2="0.5" y2="0.363889" style="stroke:rgb(246,147,147);stroke-width:0.01" />
<line x1="0.292613" y1="0.492711" x2="0.396587" y2="0.562097" style="stroke:rgb(246,147,147);stroke-width:0.01" />
<line x1="0.292613" y1="0.492711" x2="0.238095" y2="0.574405" style="stroke:rgb(246,147,147);stroke-width:0.01" />
<line x1="0.396587" y1="0.562097" x2="0.294414" y2="0.715201" style="stroke:rgb(246,147,147);stroke-width:0.01" />
<line x1="0.375" y1="0.305556" x2="0.191928" y2="0.458987" style="stroke:rgb(246,147,147);stroke-width:0.01" />
<line x1="0.5" y1="0.363889" x2="0.240787" y2="0.581134" style="stroke:rgb(246,147,147);stroke-width:0.01" />
<line x1="0.258484" y1="0.454757" x2="0.191928" y2="0.458987" style="stroke:rgb(246,147,147);stroke-width:0.01" />
<line x1="0.238095" y1="0.574405" x2="0.5" y2="0.633333" style="stroke:rgb(246,147,147);stroke-width:0.01" />
<line x1="0.266413" y1="0.579505" x2="0.240787" y2="0.581134" style="stroke:rgb(246,147,147);stroke-width:0.01" />
<line x1="0.294414" y1="0.715201" x2="0.375" y2="0.733333" style="stroke:rgb(246,147,147);stroke-width:0.01" />
<line x1="0.5" y1="0.633333" x2="0.375" y2="0.733333" style="stroke:rgb(246,147,147);stroke-width:0.01" />
</g>
</svg>
