<svg xmlns="http://www.w3.org/2000/svg" viewBox="-1.5 -1.5 3 3">
<g transform="scale(1, -1)">
<path d="M0.109837 -0.188609 L0.225222 -0.140533 L0.105030 0.147929 L-0.058432 0.215237 L-0.116124 0.191198 L-0.183432 0.027737 L-0.135355 -0.087648 L0.028107 -0.154956 L0.085799 -0.130917 z M-0.019970 -0.039571 L-0.068047 0.075814 L-0.010355 0.099852 L0.037722 -0.015533 z " fill="rgb(245,195,195)" />
<path d="M-0.231509 0.143121 L0.768491 0.143121 L0.768491 1.143121 L-0.231509 1.143121  z" fill="none" stroke="rgb(128,128,128)" stroke-width="0.01" />
<line x1="0.109837" y1="-0.188609" x2="0.225222" y2="-0.140533" style="stroke:rgb(246,147,147);stroke-width:0.01" />
<line x1="0.0281065" y1="-0.154956" x2="0.143491" y2="-0.106879" style="stroke:rgb(246,147,147);stroke-width:0.01" />
<line x1="-0.135355" y1="-0.0876479" x2="0.0954142" y2="0.00850592" style="stroke:rgb(246,147,147);stroke-width:0.01" />
<line x1="0.0281065" y1="-0.154956" x2="-0.135355" y2="-0.0876479" style="stroke:rgb(246,147,147);stroke-width:0.01" />
<line x1="-0.183432" y1="0.0277367" x2="0.10503" y2="0.147929" style="stroke:rgb(246,147,147);stroke-width:0.01" />
<line x1="-0.183432" y1="0.0277367" x2="-0.116124" y2="0.191198" style="stroke:rgb(246,147,147);stroke-width:0.01" />
<line x1="-0.116124" y1="0.191198" x2="-0.058432" y2="0.215237" style="stroke:rgb(246,147,147);stroke-width:0.01" />
<line x1="-0.135355" y1="-0.0876479" x2="-0.183432" y2="0.0277367" style="stroke:rgb(246,147,147);stroke-width:0.01" />
<line x1="0.0281065" y1="-0.154956" x2="-0.116124" y2="0.191198" style="stroke:rgb(246,147,147);stroke-width:0.01" />
<line x1="0.109837" y1="-0.188609" x2="-0.058432" y2="0.215237" style="stroke:rgb(246,147,147);stroke-width:0.01" />
<line x1="0.143491" y1="-0.106879" x2="0.0954142" y2="0.00850592" style="stroke:rgb(246,147,147);stroke-width:0.01" />
<line x1="0.225222" y1="-0.140533" x2="0.10503" y2="0.147929" style="stroke:rgb(246,147,147);stroke-width:0.01" />
<line x1="0.10503" y1="0.147929" x2="-0.058432" y2="0.215237" style="stroke:rgb(246,147,147);stroke-width:0.01" />
</g>
</svg>
