<svg xmlns="http://www.w3.org/2000/svg" viewBox="-1.5 -1.5 3 3">
<g transform="scale(1, -1)">
<path d="M0.022453 -0.602800 L0.352256 -0.515032 L0.317122 0.463695 L-0.098337 0.450727 L-0.098624 0.420005 L-0.096127 0.419982 L-0.094749 0.400815 L-0.234719 0.363566 L-0.039276 -0.370840 L-0.028837 -0.516054 L-0.001161 -0.514064 z " fill="rgb(245,195,195)" />
<path d="M-0.267559 -0.488726 L0.732441 -0.488726 L0.732441 0.511274 L-0.267559 0.511274  z" fill="none" stroke="rgb(128,128,128)" stroke-width="0.01" />
<line x1="0.0224531" y1="-0.6028" x2="0.352256" y2="-0.515032" style="stroke:rgb(246,147,147);stroke-width:0.01" />
<line x1="0.214231" y1="-0.488726" x2="0.304133" y2="0.463168" style="stroke:rgb(246,147,147);stroke-width:0.01" />
<line x1="-0.0288374" y1="-0.516054" x2="0.351311" y2="-0.488726" style="stroke:rgb(246,147,147);stroke-width:0.01" />
<line x1="-0.0986244" y1="0.420005" x2="-0.098337" y2="0.450727" style="stroke:rgb(246,147,147);stroke-width:0.01" />
<line x1="0.214231" y1="-0.488726" x2="0.351311" y2="-0.488726" style="stroke:rgb(246,147,147);stroke-width:0.01" />
<line x1="-0.0288374" y1="-0.516054" x2="-0.098337" y2="0.450727" style="stroke:rgb(246,147,147);stroke-width:0.01" />
<line x1="0.352256" y1="-0.515032" x2="0.317122" y2="0.463695" style="stroke:rgb(246,147,147);stroke-width:0.01" />
<line x1="0.0224531" y1="-0.6028" x2="-0.234719" y2="0.363566" style="stroke:rgb(246,147,147);stroke-width:0.01" />
<line x1="0.352256" y1="-0.515032" x2="0.214231" y2="-0.488726" style="stroke:rgb(246,147,147);stroke-width:0.01" />
<line x1="0.312559" y1="0.415589" x2="0.304133" y2="0.463168" style="stroke:rgb(246,147,147);stroke-width:0.01" />
<line x1="0.312559" y1="0.415589" x2="0.318787" y2="0.417309" style="stroke:rgb(246,147,147);stroke-width:0.01" />
<line x1="-0.234719" y1="0.363566" x2="0.118204" y2="0.457487" style="stroke:rgb(246,147,147);stroke-width:0.01" />
<line x1="0.312559" y1="0.415589" x2="0.318831" y2="0.416099" style="stroke:rgb(246,147,147);stroke-width:0.01" />
<line x1="0.318831" y1="0.416099" x2="-0.0986244" y2="0.420005" style="stroke:rgb(246,147,147);stroke-width:0.01" />
<line x1="0.304133" y1="0.463168" x2="0.317122" y2="0.463695" style="stroke:rgb(246,147,147);stroke-width:0.01" />
<line x1="-0.098337" y1="0.450727" x2="0.317122" y2="0.463695" style="stroke:rgb(246,147,147);stroke-width:0.01" />
<line x1="0.318787" y1="0.417309" x2="0.118204" y2="0.457487" style="stroke:rgb(246,147,147);stroke-width:0.01" />
</g>
</svg>
