<svg xmlns="http://www.w3.org/2000/svg" viewBox="-1.5 -1.5 3 3">
<g transform="scale(1, -1)">
<path d="M0.290012 -0.114074 L0.619814 -0.026306 L0.584681 0.952422 L0.169222 0.939454 L0.168934 0.908731 L0.171432 0.908708 L0.172810 0.889541 L0.032840 0.852292 L0.228282 0.117886 L0.238721 -0.027328 L0.266397 -0.025338 z " fill="rgb(245,195,195)" />
<path d="M0.000000 0.000000 L1.000000 0.000000 L1.000000 1.000000 L0.000000 1.000000  z" fill="none" stroke="rgb(128,128,128)" stroke-width="0.01" />
<line x1="0.290012" y1="-0.114074" x2="0.619814" y2="-0.0263059" style="stroke:rgb(246,147,147);stroke-width:0.01" />
<line x1="0.48179" y1="0" x2="0.571691" y2="0.951894" style="stroke:rgb(246,147,147);stroke-width:0.01" />
<line x1="0.238721" y1="-0.027328" x2="0.61887" y2="0" style="stroke:rgb(246,147,147);stroke-width:0.01" />
<line x1="0.168934" y1="0.908731" x2="0.169222" y2="0.939454" style="stroke:rgb(246,147,147);stroke-width:0.01" />
<line x1="0.48179" y1="0" x2="0.61887" y2="0" style="stroke:rgb(246,147,147);stroke-width:0.01" />
<line x1="0.238721" y1="-0.027328" x2="0.169222" y2="0.939454" style="stroke:rgb(246,147,147);stroke-width:0.01" />
<line x1="0.619814" y1="-0.0263059" x2="0.584681" y2="0.952422" style="stroke:rgb(246,147,147);stroke-width:0.01" />
<line x1="0.290012" y1="-0.114074" x2="0.0328401" y2="0.852292" style="stroke:rgb(246,147,147);stroke-width:0.01" />
<line x1="0.619814" y1="-0.0263059" x2="0.48179" y2="0" style="stroke:rgb(246,147,147);stroke-width:0.01" />
<line x1="0.580118" y1="0.904315" x2="0.571691" y2="0.951894" style="stroke:rgb(246,147,147);stroke-width:0.01" />
<line x1="0.580118" y1="0.904315" x2="0.586346" y2="0.906035" style="stroke:rgb(246,147,147);stroke-width:0.01" />
<line x1="0.0328401" y1="0.852292" x2="0.385763" y2="0.946213" style="stroke:rgb(246,147,147);stroke-width:0.01" />
<line x1="0.580118" y1="0.904315" x2="0.586389" y2="0.904825" style="stroke:rgb(246,147,147);stroke-width:0.01" />
<line x1="0.586389" y1="0.904825" x2="0.168934" y2="0.908731" style="stroke:rgb(246,147,147);stroke-width:0.01" />
<line x1="0.571691" y1="0.951894" x2="0.584681" y2="0.952422" style="stroke:rgb(246,147,147);stroke-width:0.01" />
<line x1="0.169222" y1="0.939454" x2="0.584681" y2="0.952422" style="stroke:rgb(246,147,147);stroke-width:0.01" />
<line x1="0.586346" y1="0.906035" x2="0.385763" y2="0.946213" style="stroke:rgb(246,147,147);stroke-width:0.01" />
</g>
</svg>
