<svg xmlns="http://www.w3.org/2000/svg" viewBox="-1.5 -1.5 3 3">
<g transform="scale(1, -1)">
<path d="M-0.101648 -0.313187 L0.359890 -0.120879 L0.494505 0.206044 L0.263736 0.109890 L-0.390110 0.379121 L-0.197802 -0.082418 L-0.428571 -0.178571 z " fill="rgb(245,195,195)" />
<path d="M-1.928571 0.821429 L-0.928571 0.821429 L-0.928571 1.821429 L-1.928571 1.821429  z" fill="none" stroke="rgb(128,128,128)" stroke-width="0.01" />
<line x1="-0.101648" y1="-0.313187" x2="0.35989" y2="-0.120879" style="stroke:rgb(246,147,147);stroke-width:0.01" />
<line x1="-0.428571" y1="-0.178571" x2="0.494505" y2="0.206044" style="stroke:rgb(246,147,147);stroke-width:0.01" />
<line x1="-0.293956" y1="0.148352" x2="-0.0631868" y2="0.244505" style="stroke:rgb(246,147,147);stroke-width:0.01" />
<line x1="0.35989" y1="-0.120879" x2="0.494505" y2="0.206044" style="stroke:rgb(246,147,147);stroke-width:0.01" />
<line x1="-0.101648" y1="-0.313187" x2="0.032967" y2="0.0137363" style="stroke:rgb(246,147,147);stroke-width:0.01" />
<line x1="-0.101648" y1="-0.313187" x2="-0.428571" y2="-0.178571" style="stroke:rgb(246,147,147);stroke-width:0.01" />
<line x1="0.35989" y1="-0.120879" x2="0.032967" y2="0.0137363" style="stroke:rgb(246,147,147);stroke-width:0.01" />
<line x1="0.263736" y1="0.10989" x2="-0.39011" y2="0.379121" style="stroke:rgb(246,147,147);stroke-width:0.01" />
<line x1="-0.101648" y1="-0.313187" x2="-0.39011" y2="0.379121" style="stroke:rgb(246,147,147);stroke-width:0.01" />
<line x1="0.032967" y1="0.0137363" x2="-0.0631868" y2="0.244505" style="stroke:rgb(246,147,147);stroke-width:0.01" />
<line x1="0.35989" y1="-0.120879" x2="0.263736" y2="0.10989" style="stroke:rgb(246,147,147);stroke-width:0.01" />
</g>
</svg>
