<svg xmlns="http://www.w3.org/2000/svg" viewBox="-1.5 -1.5 3 3">
<g transform="scale(1, -1)">
<path d="M0.028846 -0.394231 L0.096154 -0.230769 L0.326923 -0.134615 L0.134615 0.326923 L-0.028846 0.394231 L-0.096154 0.230769 L-0.326923 0.134615 L-0.134615 -0.326923 z " fill="rgb(245,195,195)" />
<path d="M-0.326923 0.134615 L0.673077 0.134615 L0.673077 1.134615 L-0.326923 1.134615  z" fill="none" stroke="rgb(128,128,128)" stroke-width="0.01" />
<line x1="-0.134615" y1="-0.326923" x2="0.326923" y2="-0.134615" style="stroke:rgb(246,147,147);stroke-width:0.01" />
<line x1="0.0288462" y1="-0.394231" x2="-0.134615" y2="-0.326923" style="stroke:rgb(246,147,147);stroke-width:0.01" />
<line x1="-0.230769" y1="-0.0961538" x2="0.230769" y2="0.0961538" style="stroke:rgb(246,147,147);stroke-width:0.01" />
<line x1="0.0288462" y1="-0.394231" x2="0.0961538" y2="-0.230769" style="stroke:rgb(246,147,147);stroke-width:0.01" />
<line x1="-0.134615" y1="-0.326923" x2="0.134615" y2="0.326923" style="stroke:rgb(246,147,147);stroke-width:0.01" />
<line x1="-0.0961538" y1="0.230769" x2="-0.0288462" y2="0.394231" style="stroke:rgb(246,147,147);stroke-width:0.01" />
<line x1="-0.326923" y1="0.134615" x2="0.134615" y2="0.326923" style="stroke:rgb(246,147,147);stroke-width:0.01" />
<line x1="-0.134615" y1="-0.326923" x2="-0.326923" y2="0.134615" style="stroke:rgb(246,147,147);stroke-width:0.01" />
<line x1="0.0961538" y1="-0.230769" x2="-0.0961538" y2="0.230769" style="stroke:rgb(246,147,147);stroke-width:0.01" />
<line x1="0.326923" y1="-0.134615" x2="0.134615" y2="0.326923" style="stroke:rgb(246,147,147);stroke-width:0.01" />
<line x1="0.134615" y1="0.326923" x2="-0.0288462" y2="0.394231" style="stroke:rgb(246,147,147);stroke-width:0.01" />
</g>
</svg>
