<svg xmlns="http://www.w3.org/2000/svg" viewBox="-1.5 -1.5 3 3">
<g transform="scale(1, -1)">
<path d="M0.105851 -0.187377 L0.259698 -0.123274 L0.152860 0.133136 L-0.065089 0.222880 L-0.116371 0.201512 L-0.206114 -0.016437 L-0.184747 -0.067719 L0.033202 -0.157462 L0.084484 -0.136095 z M-0.030901 -0.003616 L-0.052268 0.047666 L-0.000986 0.069034 L0.020381 0.017751 z " fill="rgb(245,195,195)" />
<path d="M-0.270217 0.137410 L0.729783 0.137410 L0.729783 1.137410 L-0.270217 1.137410  z" fill="none" stroke="rgb(128,128,128)" stroke-width="0.01" />
<line x1="0.105851" y1="-0.187377" x2="0.259698" y2="-0.123274" style="stroke:rgb(246,147,147);stroke-width:0.01" />
<line x1="0.0332018" y1="-0.157462" x2="0.135766" y2="-0.114727" style="stroke:rgb(246,147,147);stroke-width:0.01" />
<line x1="-0.184747" y1="-0.0677186" x2="0.0716634" y2="0.039119" style="stroke:rgb(246,147,147);stroke-width:0.01" />
<line x1="-0.206114" y1="-0.0164366" x2="0.15286" y2="0.133136" style="stroke:rgb(246,147,147);stroke-width:0.01" />
<line x1="0.0332018" y1="-0.157462" x2="-0.184747" y2="-0.0677186" style="stroke:rgb(246,147,147);stroke-width:0.01" />
<line x1="-0.206114" y1="-0.0164366" x2="-0.116371" y2="0.201512" style="stroke:rgb(246,147,147);stroke-width:0.01" />
<line x1="-0.116371" y1="0.201512" x2="-0.0650888" y2="0.22288" style="stroke:rgb(246,147,147);stroke-width:0.01" />
<line x1="-0.184747" y1="-0.0677186" x2="-0.206114" y2="-0.0164366" style="stroke:rgb(246,147,147);stroke-width:0.01" />
<line x1="0.0332018" y1="-0.157462" x2="-0.116371" y2="0.201512" style="stroke:rgb(246,147,147);stroke-width:0.01" />
<line x1="0.105851" y1="-0.187377" x2="-0.0650888" y2="0.22288" style="stroke:rgb(246,147,147);stroke-width:0.01" />
<line x1="0.135766" y1="-0.114727" x2="0.0716634" y2="0.039119" style="stroke:rgb(246,147,147);stroke-width:0.01" />
<line x1="0.15286" y1="0.133136" x2="-0.0650888" y2="0.22288" style="stroke:rgb(246,147,147);stroke-width:0.01" />
<line x1="0.259698" y1="-0.123274" x2="0.15286" y2="0.133136" style="stroke:rgb(246,147,147);stroke-width:0.01" />
</g>
</svg>
