<svg xmlns="http://www.w3.org/2000/svg" viewBox="-1.5 -1.5 3 3">
<g transform="scale(1, -1)">
<path d="M0.654604 -0.942473 L0.801958 -0.914225 L0.892830 -0.697272 L0.801458 -0.591866 L0.659033 -0.628880 L0.630901 -0.673892 L0.641238 -0.713670 L0.615335 -0.698797 L0.537620 -0.823142 z M0.707005 -0.817367 L0.673916 -0.783614 L0.688864 -0.750280 L0.740754 -0.736795 z " fill="rgb(245,195,195)" />
<path d="M0.000000 0.000000 L1.000000 0.000000 L1.000000 1.000000 L0.000000 1.000000  z" fill="none" stroke="rgb(128,128,128)" stroke-width="0.01" />
<line x1="0.654604" y1="-0.942473" x2="0.801958" y2="-0.914225" style="stroke:rgb(246,147,147);stroke-width:0.01" />
<line x1="0.653164" y1="-0.759558" x2="0.89283" y2="-0.697272" style="stroke:rgb(246,147,147);stroke-width:0.01" />
<line x1="0.630901" y1="-0.673892" x2="0.666667" y2="-0.666667" style="stroke:rgb(246,147,147);stroke-width:0.01" />
<line x1="0.659033" y1="-0.62888" x2="0.801458" y2="-0.591866" style="stroke:rgb(246,147,147);stroke-width:0.01" />
<line x1="0.640768" y1="-0.857538" x2="0.53762" y2="-0.823142" style="stroke:rgb(246,147,147);stroke-width:0.01" />
<line x1="0.592537" y1="-0.834375" x2="0.662704" y2="-0.730926" style="stroke:rgb(246,147,147);stroke-width:0.01" />
<line x1="0.53762" y1="-0.823142" x2="0.615335" y2="-0.698797" style="stroke:rgb(246,147,147);stroke-width:0.01" />
<line x1="0.630901" y1="-0.673892" x2="0.659033" y2="-0.62888" style="stroke:rgb(246,147,147);stroke-width:0.01" />
<line x1="0.692168" y1="-0.742911" x2="0.60577" y2="-0.714101" style="stroke:rgb(246,147,147);stroke-width:0.01" />
<line x1="0.801958" y1="-0.914225" x2="0.89283" y2="-0.697272" style="stroke:rgb(246,147,147);stroke-width:0.01" />
<line x1="0.640768" y1="-0.857538" x2="0.692168" y2="-0.742911" style="stroke:rgb(246,147,147);stroke-width:0.01" />
<line x1="0.654604" y1="-0.942473" x2="0.801458" y2="-0.591866" style="stroke:rgb(246,147,147);stroke-width:0.01" />
<line x1="0.640768" y1="-0.857538" x2="0.549039" y2="-0.804871" style="stroke:rgb(246,147,147);stroke-width:0.01" />
<line x1="0.592537" y1="-0.834375" x2="0.549039" y2="-0.804871" style="stroke:rgb(246,147,147);stroke-width:0.01" />
<line x1="0.692168" y1="-0.742911" x2="0.615335" y2="-0.698797" style="stroke:rgb(246,147,147);stroke-width:0.01" />
<line x1="0.662704" y1="-0.730926" x2="0.615335" y2="-0.698797" style="stroke:rgb(246,147,147);stroke-width:0.01" />
<line x1="0.654604" y1="-0.942473" x2="0.53762" y2="-0.823142" style="stroke:rgb(246,147,147);stroke-width:0.01" />
<line x1="0.801958" y1="-0.914225" x2="0.60577" y2="-0.714101" style="stroke:rgb(246,147,147);stroke-width:0.01" />
<line x1="0.666667" y1="-0.666667" x2="0.659033" y2="-0.62888" style="stroke:rgb(246,147,147);stroke-width:0.01" />
<line x1="0.653164" y1="-0.759558" x2="0.630901" y2="-0.673892" style="stroke:rgb(246,147,147);stroke-width:0.01" />
<line x1="0.89283" y1="-0.697272" x2="0.801458" y2="-0.591866" style="stroke:rgb(246,147,147);stroke-width:0.01" />
</g>
</svg>
