<svg xmlns="http://www.w3.org/2000/svg" viewBox="-1.5 -1.5 3 3">
<g transform="scale(1, -1)">
<path d="M-0.041205 -0.190760 L0.106149 -0.162512 L0.197021 0.054441 L0.105649 0.159847 L-0.036776 0.122833 L-0.064908 0.077821 L-0.054571 0.038044 L-0.080474 0.052917 L-0.158189 -0.071429 z M0.011196 -0.065654 L-0.021893 -0.031901 L-0.006945 0.001433 L0.044945 0.014919 z " fill="rgb(245,195,195)" />
<path d="M-0.695809 0.751713 L0.304191 0.751713 L0.304191 1.751713 L-0.695809 1.751713  z" fill="none" stroke="rgb(128,128,128)" stroke-width="0.01" />
<line x1="-0.0412053" y1="-0.19076" x2="0.106149" y2="-0.162512" style="stroke:rgb(246,147,147);stroke-width:0.01" />
<line x1="-0.0426449" y1="-0.00784453" x2="0.197021" y2="0.0544411" style="stroke:rgb(246,147,147);stroke-width:0.01" />
<line x1="-0.0649081" y1="0.0778214" x2="-0.0291423" y2="0.0850468" style="stroke:rgb(246,147,147);stroke-width:0.01" />
<line x1="-0.0367758" y1="0.122833" x2="0.105649" y2="0.159847" style="stroke:rgb(246,147,147);stroke-width:0.01" />
<line x1="-0.0550413" y1="-0.105825" x2="-0.158189" y2="-0.0714285" style="stroke:rgb(246,147,147);stroke-width:0.01" />
<line x1="-0.103272" y1="-0.0826611" x2="-0.0331051" y2="0.0207878" style="stroke:rgb(246,147,147);stroke-width:0.01" />
<line x1="-0.158189" y1="-0.0714285" x2="-0.0804737" y2="0.0529165" style="stroke:rgb(246,147,147);stroke-width:0.01" />
<line x1="-0.0649081" y1="0.0778214" x2="-0.0367758" y2="0.122833" style="stroke:rgb(246,147,147);stroke-width:0.01" />
<line x1="-0.00364087" y1="0.00880197" x2="-0.0900387" y2="0.0376125" style="stroke:rgb(246,147,147);stroke-width:0.01" />
<line x1="0.106149" y1="-0.162512" x2="0.197021" y2="0.0544411" style="stroke:rgb(246,147,147);stroke-width:0.01" />
<line x1="-0.0550413" y1="-0.105825" x2="-0.00364087" y2="0.00880197" style="stroke:rgb(246,147,147);stroke-width:0.01" />
<line x1="-0.0412053" y1="-0.19076" x2="0.105649" y2="0.159847" style="stroke:rgb(246,147,147);stroke-width:0.01" />
<line x1="-0.0550413" y1="-0.105825" x2="-0.14677" y2="-0.0531574" style="stroke:rgb(246,147,147);stroke-width:0.01" />
<line x1="-0.103272" y1="-0.0826611" x2="-0.14677" y2="-0.0531574" style="stroke:rgb(246,147,147);stroke-width:0.01" />
<line x1="-0.00364087" y1="0.00880197" x2="-0.0804737" y2="0.0529165" style="stroke:rgb(246,147,147);stroke-width:0.01" />
<line x1="-0.0331051" y1="0.0207878" x2="-0.0804737" y2="0.0529165" style="stroke:rgb(246,147,147);stroke-width:0.01" />
<line x1="-0.0412053" y1="-0.19076" x2="-0.158189" y2="-0.0714285" style="stroke:rgb(246,147,147);stroke-width:0.01" />
<line x1="0.106149" y1="-0.162512" x2="-0.0900387" y2="0.0376125" style="stroke:rgb(246,147,147);stroke-width:0.01" />
<line x1="-0.0291423" y1="0.0850468" x2="-0.0367758" y2="0.122833" style="stroke:rgb(246,147,147);stroke-width:0.01" />
<line x1="-0.0426449" y1="-0.00784453" x2="-0.0649081" y2="0.0778214" style="stroke:rgb(246,147,147);stroke-width:0.01" />
<line x1="0.197021" y1="0.0544411" x2="0.105649" y2="0.159847" style="stroke:rgb(246,147,147);stroke-width:0.01" />
</g>
</svg>
