<svg xmlns="http://www.w3.org/2000/svg" viewBox="-1.5 -1.5 3 3">
<g transform="scale(1, -1)">
<path d="M-0.601562 0.601562 L-0.300781 0.601562 L-0.199219 0.703125 L0.101562 0.703125 L0.296875 0.898438 L0.296875 1.199219 L0.398438 1.300781 L0.398438 1.601562 L0.296875 1.601562 L-0.601562 0.703125 z " fill="rgb(245,195,195)" />
<path d="M0.000000 0.000000 L1.000000 0.000000 L1.000000 1.000000 L0.000000 1.000000  z" fill="none" stroke="rgb(128,128,128)" stroke-width="0.01" />
<line x1="-0.601562" y1="0.601562" x2="-0.601562" y2="0.703125" style="stroke:rgb(246,147,147);stroke-width:0.01" />
<line x1="-0.300781" y1="0.601562" x2="-0.300781" y2="1.00391" style="stroke:rgb(246,147,147);stroke-width:0.01" />
<line x1="-0.00390625" y1="1.00391" x2="-0.00390625" y2="1.30078" style="stroke:rgb(246,147,147);stroke-width:0.01" />
<line x1="0.101562" y1="0.703125" x2="0.101562" y2="0.898438" style="stroke:rgb(246,147,147);stroke-width:0.01" />
<line x1="0.296875" y1="0.898438" x2="0.296875" y2="1.60156" style="stroke:rgb(246,147,147);stroke-width:0.01" />
<line x1="0.398438" y1="1.30078" x2="0.398438" y2="1.60156" style="stroke:rgb(246,147,147);stroke-width:0.01" />
<line x1="0.101562" y1="0.703125" x2="0.296875" y2="0.898438" style="stroke:rgb(246,147,147);stroke-width:0.01" />
<line x1="-0.300781" y1="0.601562" x2="0.398438" y2="1.30078" style="stroke:rgb(246,147,147);stroke-width:0.01" />
<line x1="-0.601562" y1="0.601562" x2="-0.300781" y2="0.601562" style="stroke:rgb(246,147,147);stroke-width:0.01" />
<line x1="-0.601562" y1="0.703125" x2="0.296875" y2="1.60156" style="stroke:rgb(246,147,147);stroke-width:0.01" />
<line x1="-0.601562" y1="0.703125" x2="0.101562" y2="0.703125" style="stroke:rgb(246,147,147);stroke-width:0.01" />
<line x1="0.101562" y1="0.898438" x2="0.296875" y2="0.898438" style="stroke:rgb(246,147,147);stroke-width:0.01" />
<line x1="-0.300781" y1="1.00391" x2="-0.00390625" y2="1.00391" style="stroke:rgb(246,147,147);stroke-width:0.01" />
<line x1="-0.00390625" y1="1.30078" x2="0.398438" y2="1.30078" style="stroke:rgb(246,147,147);stroke-width:0.01" />
<line x1="0.296875" y1="1.60156" x2="0.398438" y2="1.60156" style="stroke:rgb(246,147,147);stroke-width:0.01" />
</g>
</svg>
