<svg xmlns="http://www.w3.org/2000/svg" viewBox="-1.5 -1.5 3 3">
<g transform="scale(1, -1)">
<path d="M-0.610156 -0.389844 L-0.309375 -0.389844 L-0.207812 -0.288281 L0.092969 -0.288281 L0.288281 -0.092969 L0.288281 0.207812 L0.389844 0.309375 L0.389844 0.610156 L0.288281 0.610156 L-0.610156 -0.288281 z " fill="rgb(245,195,195)" />
<path d="M-0.008594 -0.991406 L0.991406 -0.991406 L0.991406 0.008594 L-0.008594 0.008594  z" fill="none" stroke="rgb(128,128,128)" stroke-width="0.01" />
<line x1="-0.610156" y1="-0.389844" x2="-0.610156" y2="-0.288281" style="stroke:rgb(246,147,147);stroke-width:0.01" />
<line x1="-0.309375" y1="-0.389844" x2="-0.309375" y2="0.0125" style="stroke:rgb(246,147,147);stroke-width:0.01" />
<line x1="-0.0125" y1="0.0125" x2="-0.0125" y2="0.309375" style="stroke:rgb(246,147,147);stroke-width:0.01" />
<line x1="0.0929687" y1="-0.288281" x2="0.0929687" y2="-0.0929687" style="stroke:rgb(246,147,147);stroke-width:0.01" />
<line x1="0.288281" y1="-0.0929687" x2="0.288281" y2="0.610156" style="stroke:rgb(246,147,147);stroke-width:0.01" />
<line x1="0.389844" y1="0.309375" x2="0.389844" y2="0.610156" style="stroke:rgb(246,147,147);stroke-width:0.01" />
<line x1="0.0929687" y1="-0.288281" x2="0.288281" y2="-0.0929687" style="stroke:rgb(246,147,147);stroke-width:0.01" />
<line x1="-0.309375" y1="-0.389844" x2="0.389844" y2="0.309375" style="stroke:rgb(246,147,147);stroke-width:0.01" />
<line x1="-0.610156" y1="-0.389844" x2="-0.309375" y2="-0.389844" style="stroke:rgb(246,147,147);stroke-width:0.01" />
<line x1="-0.610156" y1="-0.288281" x2="0.288281" y2="0.610156" style="stroke:rgb(246,147,147);stroke-width:0.01" />
<line x1="-0.610156" y1="-0.288281" x2="0.0929687" y2="-0.288281" style="stroke:rgb(246,147,147);stroke-width:0.01" />
<line x1="0.0929687" y1="-0.0929687" x2="0.288281" y2="-0.0929687" style="stroke:rgb(246,147,147);stroke-width:0.01" />
<line x1="-0.309375" y1="0.0125" x2="-0.0125" y2="0.0125" style="stroke:rgb(246,147,147);stroke-width:0.01" />
<line x1="-0.0125" y1="0.309375" x2="0.389844" y2="0.309375" style="stroke:rgb(246,147,147);stroke-width:0.01" />
<line x1="0.288281" y1="0.610156" x2="0.389844" y2="0.610156" style="stroke:rgb(246,147,147);stroke-width:0.01" />
</g>
</svg>
