<svg xmlns="http://www.w3.org/2000/svg" viewBox="-1.5 -1.5 3 3">
<g transform="scale(1, -1)">
<path d="M0.081280 -0.183015 L0.185461 -0.081053 L0.134607 0.132082 L-0.073071 0.107649 L-0.074165 0.104891 L-0.069968 0.103226 L-0.016986 0.027703 L-0.142406 0.004673 L-0.147152 -0.123288 z M0.048401 -0.045217 L0.020759 -0.037989 L0.015326 -0.008398 L0.037915 -0.001265 z " fill="rgb(245,195,195)" />
<path d="M-0.365393 -0.157134 L0.634607 -0.157134 L0.634607 0.842866 L-0.365393 0.842866  z" fill="none" stroke="rgb(128,128,128)" stroke-width="0.01" />
<line x1="0.0812797" y1="-0.183015" x2="0.185461" y2="-0.0810528" style="stroke:rgb(246,147,147);stroke-width:0.01" />
<line x1="0.0420316" y1="0.0588113" x2="0.0679797" y2="0.124244" style="stroke:rgb(246,147,147);stroke-width:0.01" />
<line x1="-0.0741651" y1="0.104891" x2="-0.0730711" y2="0.107649" style="stroke:rgb(246,147,147);stroke-width:0.01" />
<line x1="-0.147152" y1="-0.123288" x2="-0.142406" y2="0.004673" style="stroke:rgb(246,147,147);stroke-width:0.01" />
<line x1="-0.147152" y1="-0.123288" x2="0.0304343" y2="-0.0906796" style="stroke:rgb(246,147,147);stroke-width:0.01" />
<line x1="0.00960735" y1="-0.0102037" x2="0.00960735" y2="0.117376" style="stroke:rgb(246,147,147);stroke-width:0.01" />
<line x1="0.134607" y1="0.02927" x2="0.134607" y2="0.132082" style="stroke:rgb(246,147,147);stroke-width:0.01" />
<line x1="0.00960735" y1="-0.0102037" x2="0.134607" y2="0.02927" style="stroke:rgb(246,147,147);stroke-width:0.01" />
<line x1="0.0304343" y1="-0.0906796" x2="0.00785914" y2="0.0322649" style="stroke:rgb(246,147,147);stroke-width:0.01" />
<line x1="0.0812797" y1="-0.183015" x2="-0.147152" y2="-0.123288" style="stroke:rgb(246,147,147);stroke-width:0.01" />
<line x1="0.0812797" y1="-0.183015" x2="0.00960735" y2="0.117376" style="stroke:rgb(246,147,147);stroke-width:0.01" />
<line x1="-0.142406" y1="0.004673" x2="0.00785914" y2="0.0322649" style="stroke:rgb(246,147,147);stroke-width:0.01" />
<line x1="0.185461" y1="-0.0810528" x2="0.134607" y2="0.132082" style="stroke:rgb(246,147,147);stroke-width:0.01" />
<line x1="0.185461" y1="-0.0810528" x2="-0.142406" y2="0.004673" style="stroke:rgb(246,147,147);stroke-width:0.01" />
<line x1="0.00960735" y1="-0.0102037" x2="-0.0730711" y2="0.107649" style="stroke:rgb(246,147,147);stroke-width:0.01" />
<line x1="-0.0730711" y1="0.107649" x2="0.134607" y2="0.132082" style="stroke:rgb(246,147,147);stroke-width:0.01" />
<line x1="0.134607" y1="0.02927" x2="0.0679797" y2="0.124244" style="stroke:rgb(246,147,147);stroke-width:0.01" />
<line x1="0.0420316" y1="0.0588113" x2="-0.0741651" y2="0.104891" style="stroke:rgb(246,147,147);stroke-width:0.01" />
</g>
</svg>
