<svg xmlns="http://www.w3.org/2000/svg" viewBox="-1.5 -1.5 3 3">
<g transform="scale(1, -1)">
<path d="M0.446672 -0.025882 L0.550853 0.076081 L0.500000 0.289216 L0.292322 0.264783 L0.291228 0.262024 L0.295424 0.260360 L0.348407 0.184836 L0.222986 0.161807 L0.218240 0.033845 z M0.413794 0.111917 L0.386152 0.119144 L0.380718 0.148736 L0.403307 0.155869 z " fill="rgb(245,195,195)" />
<path d="M0.000000 0.000000 L1.000000 0.000000 L1.000000 1.000000 L0.000000 1.000000  z" fill="none" stroke="rgb(128,128,128)" stroke-width="0.01" />
<line x1="0.446672" y1="-0.0258817" x2="0.550853" y2="0.0760808" style="stroke:rgb(246,147,147);stroke-width:0.01" />
<line x1="0.407424" y1="0.215945" x2="0.433372" y2="0.281377" style="stroke:rgb(246,147,147);stroke-width:0.01" />
<line x1="0.291228" y1="0.262024" x2="0.292322" y2="0.264783" style="stroke:rgb(246,147,147);stroke-width:0.01" />
<line x1="0.21824" y1="0.0338453" x2="0.222986" y2="0.161807" style="stroke:rgb(246,147,147);stroke-width:0.01" />
<line x1="0.21824" y1="0.0338453" x2="0.395827" y2="0.0664539" style="stroke:rgb(246,147,147);stroke-width:0.01" />
<line x1="0.375" y1="0.14693" x2="0.375" y2="0.27451" style="stroke:rgb(246,147,147);stroke-width:0.01" />
<line x1="0.5" y1="0.186404" x2="0.5" y2="0.289216" style="stroke:rgb(246,147,147);stroke-width:0.01" />
<line x1="0.375" y1="0.14693" x2="0.5" y2="0.186404" style="stroke:rgb(246,147,147);stroke-width:0.01" />
<line x1="0.395827" y1="0.0664539" x2="0.373252" y2="0.189398" style="stroke:rgb(246,147,147);stroke-width:0.01" />
<line x1="0.446672" y1="-0.0258817" x2="0.21824" y2="0.0338453" style="stroke:rgb(246,147,147);stroke-width:0.01" />
<line x1="0.446672" y1="-0.0258817" x2="0.375" y2="0.27451" style="stroke:rgb(246,147,147);stroke-width:0.01" />
<line x1="0.222986" y1="0.161807" x2="0.373252" y2="0.189398" style="stroke:rgb(246,147,147);stroke-width:0.01" />
<line x1="0.550853" y1="0.0760808" x2="0.5" y2="0.289216" style="stroke:rgb(246,147,147);stroke-width:0.01" />
<line x1="0.550853" y1="0.0760808" x2="0.222986" y2="0.161807" style="stroke:rgb(246,147,147);stroke-width:0.01" />
<line x1="0.375" y1="0.14693" x2="0.292322" y2="0.264783" style="stroke:rgb(246,147,147);stroke-width:0.01" />
<line x1="0.292322" y1="0.264783" x2="0.5" y2="0.289216" style="stroke:rgb(246,147,147);stroke-width:0.01" />
<line x1="0.5" y1="0.186404" x2="0.433372" y2="0.281377" style="stroke:rgb(246,147,147);stroke-width:0.01" />
<line x1="0.407424" y1="0.215945" x2="0.291228" y2="0.262024" style="stroke:rgb(246,147,147);stroke-width:0.01" />
</g>
</svg>
