<svg xmlns="http://www.w3.org/2000/svg" viewBox="-1.5 -1.5 3 3">
<g transform="scale(1, -1)">
<path d="M-0.105957 -0.531250 L0.093262 -0.531250 L0.243652 -0.380859 L0.243652 0.318359 L0.093262 0.468750 L-0.105957 0.468750 L-0.355957 0.218750 L-0.105957 -0.031250 z " fill="rgb(245,195,195)" />
<path d="M-0.605957 -0.730469 L0.394043 -0.730469 L0.394043 0.269531 L-0.605957 0.269531  z" fill="none" stroke="rgb(128,128,128)" stroke-width="0.01" />
<line x1="0.0932617" y1="-0.53125" x2="0.243652" y2="-0.380859" style="stroke:rgb(246,147,147);stroke-width:0.01" />
<line x1="0.0932617" y1="-0.230469" x2="0.243652" y2="-0.0800781" style="stroke:rgb(246,147,147);stroke-width:0.01" />
<line x1="-0.305176" y1="0.167969" x2="-0.305176" y2="0.269531" style="stroke:rgb(246,147,147);stroke-width:0.01" />
<line x1="-0.105957" y1="-0.53125" x2="-0.105957" y2="0.46875" style="stroke:rgb(246,147,147);stroke-width:0.01" />
<line x1="0.0932617" y1="-0.53125" x2="0.0932617" y2="0.46875" style="stroke:rgb(246,147,147);stroke-width:0.01" />
<line x1="0.243652" y1="-0.380859" x2="0.243652" y2="0.318359" style="stroke:rgb(246,147,147);stroke-width:0.01" />
<line x1="-0.105957" y1="-0.03125" x2="0.243652" y2="0.318359" style="stroke:rgb(246,147,147);stroke-width:0.01" />
<line x1="-0.105957" y1="-0.53125" x2="0.0932617" y2="-0.53125" style="stroke:rgb(246,147,147);stroke-width:0.01" />
<line x1="-0.355957" y1="0.21875" x2="-0.105957" y2="0.46875" style="stroke:rgb(246,147,147);stroke-width:0.01" />
<line x1="0.0932617" y1="-0.230469" x2="0.243652" y2="-0.230469" style="stroke:rgb(246,147,147);stroke-width:0.01" />
<line x1="0.243652" y1="-0.380859" x2="-0.355957" y2="0.21875" style="stroke:rgb(246,147,147);stroke-width:0.01" />
<line x1="-0.105957" y1="-0.03125" x2="0.243652" y2="-0.03125" style="stroke:rgb(246,147,147);stroke-width:0.01" />
<line x1="0.243652" y1="-0.0800781" x2="-0.105957" y2="0.269531" style="stroke:rgb(246,147,147);stroke-width:0.01" />
<line x1="-0.305176" y1="0.167969" x2="-0.105957" y2="0.167969" style="stroke:rgb(246,147,147);stroke-width:0.01" />
<line x1="0.243652" y1="0.318359" x2="0.0932617" y2="0.46875" style="stroke:rgb(246,147,147);stroke-width:0.01" />
<line x1="-0.305176" y1="0.269531" x2="-0.105957" y2="0.269531" style="stroke:rgb(246,147,147);stroke-width:0.01" />
<line x1="-0.105957" y1="0.46875" x2="0.0932617" y2="0.46875" style="stroke:rgb(246,147,147);stroke-width:0.01" />
</g>
</svg>
