<svg xmlns="http://www.w3.org/2000/svg" viewBox="-1.5 -1.5 3 3">
<g transform="scale(1, -1)">
<path d="M-0.113204 -0.463669 L0.241449 -0.367638 L0.278335 -0.378543 L0.319274 -0.346565 L0.150944 -0.010009 L0.114984 0.094021 L0.101282 0.089285 L0.079389 0.133057 L0.081710 0.136620 L0.075624 0.140585 L-0.137087 0.565875 L-0.374566 0.501571 L-0.334899 0.355075 L-0.310908 -0.204348 L-0.172328 -0.245315 z " fill="rgb(245,195,195)" />
<path d="M0.268724 2.101755 L1.268724 2.101755 L1.268724 3.101755 L0.268724 3.101755  z" fill="none" stroke="rgb(128,128,128)" stroke-width="0.01" />
<line x1="-0.113204" y1="-0.463669" x2="0.319274" y2="-0.346565" style="stroke:rgb(246,147,147);stroke-width:0.01" />
<line x1="0.278335" y1="-0.378543" x2="-0.310908" y2="-0.204348" style="stroke:rgb(246,147,147);stroke-width:0.01" />
<line x1="-0.310908" y1="-0.204348" x2="-0.135512" y2="-0.196826" style="stroke:rgb(246,147,147);stroke-width:0.01" />
<line x1="-0.261138" y1="-0.0359927" x2="0.114984" y2="0.094021" style="stroke:rgb(246,147,147);stroke-width:0.01" />
<line x1="0.278335" y1="-0.378543" x2="0.319274" y2="-0.346565" style="stroke:rgb(246,147,147);stroke-width:0.01" />
<line x1="0.0817103" y1="0.13662" x2="-0.337235" y2="0.40954" style="stroke:rgb(246,147,147);stroke-width:0.01" />
<line x1="-0.374566" y1="0.501571" x2="-0.137087" y2="0.565875" style="stroke:rgb(246,147,147);stroke-width:0.01" />
<line x1="-0.135512" y1="-0.196826" x2="-0.261138" y2="-0.0359927" style="stroke:rgb(246,147,147);stroke-width:0.01" />
<line x1="-0.337235" y1="0.40954" x2="-0.137087" y2="0.565875" style="stroke:rgb(246,147,147);stroke-width:0.01" />
<line x1="-0.135512" y1="-0.196826" x2="0.0817103" y2="0.13662" style="stroke:rgb(246,147,147);stroke-width:0.01" />
<line x1="0.319274" y1="-0.346565" x2="-0.137087" y2="0.565875" style="stroke:rgb(246,147,147);stroke-width:0.01" />
<line x1="-0.113204" y1="-0.463669" x2="-0.374566" y2="0.501571" style="stroke:rgb(246,147,147);stroke-width:0.01" />
<line x1="0.278335" y1="-0.378543" x2="0.114984" y2="0.094021" style="stroke:rgb(246,147,147);stroke-width:0.01" />
<line x1="-0.310908" y1="-0.204348" x2="-0.337235" y2="0.40954" style="stroke:rgb(246,147,147);stroke-width:0.01" />
<line x1="-0.310908" y1="-0.204348" x2="-0.261138" y2="-0.0359927" style="stroke:rgb(246,147,147);stroke-width:0.01" />
</g>
</svg>
