<svg xmlns="http://www.w3.org/2000/svg" viewBox="-1.5 -1.5 3 3">
<g transform="scale(1, -1)">
<path d="M-0.381928 -2.565424 L-0.027275 -2.469393 L0.009611 -2.480298 L0.050550 -2.448320 L-0.117780 -2.111765 L-0.153740 -2.007734 L-0.167442 -2.012471 L-0.189335 -1.968698 L-0.187014 -1.965135 L-0.193100 -1.961170 L-0.405811 -1.535880 L-0.643291 -1.600184 L-0.603623 -1.746680 L-0.579632 -2.306103 L-0.441053 -2.347070 z " fill="rgb(245,195,195)" />
<path d="M0.000000 0.000000 L1.000000 0.000000 L1.000000 1.000000 L0.000000 1.000000  z" fill="none" stroke="rgb(128,128,128)" stroke-width="0.01" />
<line x1="-0.381928" y1="-2.56542" x2="0.0505501" y2="-2.44832" style="stroke:rgb(246,147,147);stroke-width:0.01" />
<line x1="0.00961076" y1="-2.4803" x2="-0.579632" y2="-2.3061" style="stroke:rgb(246,147,147);stroke-width:0.01" />
<line x1="-0.579632" y1="-2.3061" x2="-0.404236" y2="-2.29858" style="stroke:rgb(246,147,147);stroke-width:0.01" />
<line x1="-0.529862" y1="-2.13775" x2="-0.15374" y2="-2.00773" style="stroke:rgb(246,147,147);stroke-width:0.01" />
<line x1="0.00961076" y1="-2.4803" x2="0.0505501" y2="-2.44832" style="stroke:rgb(246,147,147);stroke-width:0.01" />
<line x1="-0.187014" y1="-1.96514" x2="-0.605959" y2="-1.69222" style="stroke:rgb(246,147,147);stroke-width:0.01" />
<line x1="-0.643291" y1="-1.60018" x2="-0.405811" y2="-1.53588" style="stroke:rgb(246,147,147);stroke-width:0.01" />
<line x1="-0.404236" y1="-2.29858" x2="-0.529862" y2="-2.13775" style="stroke:rgb(246,147,147);stroke-width:0.01" />
<line x1="-0.605959" y1="-1.69222" x2="-0.405811" y2="-1.53588" style="stroke:rgb(246,147,147);stroke-width:0.01" />
<line x1="-0.404236" y1="-2.29858" x2="-0.187014" y2="-1.96514" style="stroke:rgb(246,147,147);stroke-width:0.01" />
<line x1="0.0505501" y1="-2.44832" x2="-0.405811" y2="-1.53588" style="stroke:rgb(246,147,147);stroke-width:0.01" />
<line x1="-0.381928" y1="-2.56542" x2="-0.643291" y2="-1.60018" style="stroke:rgb(246,147,147);stroke-width:0.01" />
<line x1="0.00961076" y1="-2.4803" x2="-0.15374" y2="-2.00773" style="stroke:rgb(246,147,147);stroke-width:0.01" />
<line x1="-0.579632" y1="-2.3061" x2="-0.605959" y2="-1.69222" style="stroke:rgb(246,147,147);stroke-width:0.01" />
<line x1="-0.579632" y1="-2.3061" x2="-0.529862" y2="-2.13775" style="stroke:rgb(246,147,147);stroke-width:0.01" />
</g>
</svg>
