<svg xmlns="http://www.w3.org/2000/svg" viewBox="-1.5 -1.5 3 3">
<g transform="scale(1, -1)">
<path d="M-0.194516 -0.489309 L0.297878 -0.402428 L0.601433 -0.005120 L0.286109 0.235797 L0.109864 0.591336 L-0.338115 0.369266 L-0.517456 -0.097464 L-0.245196 -0.202079 z " fill="rgb(245,195,195)" />
<path d="M0.276037 2.051270 L1.276037 2.051270 L1.276037 3.051270 L0.276037 3.051270  z" fill="none" stroke="rgb(128,128,128)" stroke-width="0.01" />
<line x1="-0.194516" y1="-0.489309" x2="0.297878" y2="-0.402428" style="stroke:rgb(246,147,147);stroke-width:0.01" />
<line x1="-0.141227" y1="-0.242029" x2="-0.517456" y2="-0.0974637" style="stroke:rgb(246,147,147);stroke-width:0.01" />
<line x1="-0.26455" y1="-0.0923928" x2="0.08142" y2="0.0671023" style="stroke:rgb(246,147,147);stroke-width:0.01" />
<line x1="0.08142" y1="0.0671023" x2="-0.338115" y2="0.369266" style="stroke:rgb(246,147,147);stroke-width:0.01" />
<line x1="-0.0645084" y1="-0.0531646" x2="0.309324" y2="0.188965" style="stroke:rgb(246,147,147);stroke-width:0.01" />
<line x1="0.297878" y1="-0.402428" x2="-0.0645084" y2="-0.0531646" style="stroke:rgb(246,147,147);stroke-width:0.01" />
<line x1="0.601433" y1="-0.00512" x2="0.244575" y2="0.267531" style="stroke:rgb(246,147,147);stroke-width:0.01" />
<line x1="-0.141227" y1="-0.242029" x2="-0.26455" y2="-0.0923928" style="stroke:rgb(246,147,147);stroke-width:0.01" />
<line x1="-0.338115" y1="0.369266" x2="0.109864" y2="0.591336" style="stroke:rgb(246,147,147);stroke-width:0.01" />
<line x1="0.297878" y1="-0.402428" x2="0.601433" y2="-0.00512" style="stroke:rgb(246,147,147);stroke-width:0.01" />
<line x1="-0.0645084" y1="-0.0531646" x2="0.244575" y2="0.267531" style="stroke:rgb(246,147,147);stroke-width:0.01" />
<line x1="-0.0645084" y1="-0.0531646" x2="-0.338115" y2="0.369266" style="stroke:rgb(246,147,147);stroke-width:0.01" />
<line x1="0.309324" y1="0.188965" x2="0.244575" y2="0.267531" style="stroke:rgb(246,147,147);stroke-width:0.01" />
<line x1="-0.141227" y1="-0.242029" x2="0.08142" y2="0.0671023" style="stroke:rgb(246,147,147);stroke-width:0.01" />
<line x1="0.297878" y1="-0.402428" x2="0.08142" y2="0.0671023" style="stroke:rgb(246,147,147);stroke-width:0.01" />
<line x1="0.309324" y1="0.188965" x2="0.109864" y2="0.591336" style="stroke:rgb(246,147,147);stroke-width:0.01" />
<line x1="-0.194516" y1="-0.489309" x2="-0.26455" y2="-0.0923928" style="stroke:rgb(246,147,147);stroke-width:0.01" />
<line x1="-0.517456" y1="-0.0974637" x2="-0.338115" y2="0.369266" style="stroke:rgb(246,147,147);stroke-width:0.01" />
</g>
</svg>
