<svg xmlns="http://www.w3.org/2000/svg" viewBox="-1.5 -1.5 3 3">
<g transform="scale(1, -1)">
<path d="M0.117647 0.000000 L0.519863 0.001683 L0.688053 0.171287 L0.605257 0.368279 L0.328197 0.366566 L0.411714 0.284076 L0.235839 0.283340 L0.235735 0.283442 L0.235735 0.326559 L0.315126 0.326616 L0.235735 0.405893 L0.044069 0.326422 L0.000000 0.282353 z " fill="rgb(245,195,195)" />
<path d="M0.000000 0.000000 L1.000000 0.000000 L1.000000 1.000000 L0.000000 1.000000  z" fill="none" stroke="rgb(128,128,128)" stroke-width="0.01" />
<line x1="0.519863" y1="0.00168291" x2="0.688053" y2="0.171287" style="stroke:rgb(246,147,147);stroke-width:0.01" />
<line x1="0.526915" y1="0.17029" x2="0.640246" y2="0.285032" style="stroke:rgb(246,147,147);stroke-width:0.01" />
<line x1="0.240558" y1="0.000514271" x2="0.605257" y2="0.368279" style="stroke:rgb(246,147,147);stroke-width:0.01" />
<line x1="0.117647" y1="0" x2="0.23336" y2="0.28439" style="stroke:rgb(246,147,147);stroke-width:0.01" />
<line x1="0.117647" y1="0" x2="0.519863" y2="0.00168291" style="stroke:rgb(246,147,147);stroke-width:0.01" />
<line x1="0.235735" y1="0.000494093" x2="0.235735" y2="0.405893" style="stroke:rgb(246,147,147);stroke-width:0.01" />
<line x1="0.235735" y1="0.000494093" x2="0.23336" y2="0.28439" style="stroke:rgb(246,147,147);stroke-width:0.01" />
<line x1="0.23336" y1="0.28439" x2="0.234064" y2="0.2851" style="stroke:rgb(246,147,147);stroke-width:0.01" />
<line x1="0.117647" y1="0" x2="0" y2="0.282353" style="stroke:rgb(246,147,147);stroke-width:0.01" />
<line x1="0.153132" y1="0.0872118" x2="0.235004" y2="0.0878969" style="stroke:rgb(246,147,147);stroke-width:0.01" />
<line x1="0.240558" y1="0.000514271" x2="0.153132" y2="0.0872118" style="stroke:rgb(246,147,147);stroke-width:0.01" />
<line x1="0" y1="0.282353" x2="0.0440686" y2="0.326422" style="stroke:rgb(246,147,147);stroke-width:0.01" />
<line x1="0.526915" y1="0.17029" x2="0.688053" y2="0.171287" style="stroke:rgb(246,147,147);stroke-width:0.01" />
<line x1="0.519863" y1="0.00168291" x2="0.234064" y2="0.2851" style="stroke:rgb(246,147,147);stroke-width:0.01" />
<line x1="0.0440686" y1="0.326422" x2="0.235735" y2="0.405893" style="stroke:rgb(246,147,147);stroke-width:0.01" />
<line x1="0.688053" y1="0.171287" x2="0.605257" y2="0.368279" style="stroke:rgb(246,147,147);stroke-width:0.01" />
<line x1="0" y1="0.282353" x2="0.640246" y2="0.285032" style="stroke:rgb(246,147,147);stroke-width:0.01" />
<line x1="0.315126" y1="0.326616" x2="0.235735" y2="0.405893" style="stroke:rgb(246,147,147);stroke-width:0.01" />
<line x1="0.0440686" y1="0.326422" x2="0.315126" y2="0.326616" style="stroke:rgb(246,147,147);stroke-width:0.01" />
<line x1="0.526915" y1="0.17029" x2="0.328197" y2="0.366566" style="stroke:rgb(246,147,147);stroke-width:0.01" />
<line x1="0.328197" y1="0.366566" x2="0.605257" y2="0.368279" style="stroke:rgb(246,147,147);stroke-width:0.01" />
</g>
</svg>
