<svg xmlns="http://www.w3.org/2000/svg" viewBox="-1.5 -1.5 3 3">
<g transform="scale(1, -1)">
<path d="M0.662951 0.148438 L0.851562 0.148438 L0.851562 0.546875 L0.900733 0.596045 L0.856757 0.704414 L0.654203 0.707333 L0.544938 0.601173 L0.750553 0.598210 L0.513554 0.361210 L0.511817 0.721454 L0.404615 0.613212 L0.406346 0.254003 z " fill="rgb(245,195,195)" />
<path d="M0.000000 0.000000 L1.000000 0.000000 L1.000000 1.000000 L0.000000 1.000000  z" fill="none" stroke="rgb(128,128,128)" stroke-width="0.01" />
<line x1="0.514285" y1="0.209597" x2="0.900733" y2="0.596045" style="stroke:rgb(246,147,147);stroke-width:0.01" />
<line x1="0.511517" y1="0.210736" x2="0.899605" y2="0.598824" style="stroke:rgb(246,147,147);stroke-width:0.01" />
<line x1="0.406346" y1="0.254003" x2="0.856757" y2="0.704414" style="stroke:rgb(246,147,147);stroke-width:0.01" />
<line x1="0.757641" y1="0.60087" x2="0.858865" y2="0.699219" style="stroke:rgb(246,147,147);stroke-width:0.01" />
<line x1="0.405627" y1="0.403292" x2="0.510081" y2="0.508758" style="stroke:rgb(246,147,147);stroke-width:0.01" />
<line x1="0.851562" y1="0.148438" x2="0.851562" y2="0.699219" style="stroke:rgb(246,147,147);stroke-width:0.01" />
<line x1="0.406346" y1="0.254003" x2="0.404615" y2="0.613212" style="stroke:rgb(246,147,147);stroke-width:0.01" />
<line x1="0.511517" y1="0.210736" x2="0.510081" y2="0.508758" style="stroke:rgb(246,147,147);stroke-width:0.01" />
<line x1="0.514285" y1="0.209597" x2="0.511817" y2="0.721454" style="stroke:rgb(246,147,147);stroke-width:0.01" />
<line x1="0.544938" y1="0.601173" x2="0.654203" y2="0.707333" style="stroke:rgb(246,147,147);stroke-width:0.01" />
<line x1="0.404615" y1="0.613212" x2="0.511817" y2="0.721454" style="stroke:rgb(246,147,147);stroke-width:0.01" />
<line x1="0.662951" y1="0.148438" x2="0.851562" y2="0.148438" style="stroke:rgb(246,147,147);stroke-width:0.01" />
<line x1="0.662951" y1="0.148438" x2="0.406346" y2="0.254003" style="stroke:rgb(246,147,147);stroke-width:0.01" />
<line x1="0.900733" y1="0.596045" x2="0.856757" y2="0.704414" style="stroke:rgb(246,147,147);stroke-width:0.01" />
<line x1="0.662951" y1="0.148438" x2="0.405627" y2="0.403292" style="stroke:rgb(246,147,147);stroke-width:0.01" />
<line x1="0.510081" y1="0.508758" x2="0.404615" y2="0.613212" style="stroke:rgb(246,147,147);stroke-width:0.01" />
<line x1="0.900733" y1="0.596045" x2="0.544938" y2="0.601173" style="stroke:rgb(246,147,147);stroke-width:0.01" />
<line x1="0.899605" y1="0.598824" x2="0.757641" y2="0.60087" style="stroke:rgb(246,147,147);stroke-width:0.01" />
<line x1="0.757641" y1="0.60087" x2="0.654203" y2="0.707333" style="stroke:rgb(246,147,147);stroke-width:0.01" />
<line x1="0.851562" y1="0.699219" x2="0.858865" y2="0.699219" style="stroke:rgb(246,147,147);stroke-width:0.01" />
<line x1="0.856757" y1="0.704414" x2="0.654203" y2="0.707333" style="stroke:rgb(246,147,147);stroke-width:0.01" />
</g>
</svg>
