<svg xmlns="http://www.w3.org/2000/svg" viewBox="-1.5 -1.5 3 3">
<g transform="scale(1, -1)">
<path d="M0.003818 -0.351629 L0.192430 -0.351629 L0.192430 0.046808 L0.241600 0.095978 L0.197625 0.204347 L-0.004930 0.207266 L-0.114194 0.101106 L0.091421 0.098143 L-0.145579 -0.138857 L-0.147315 0.221387 L-0.254518 0.113145 L-0.252786 -0.246064 z " fill="rgb(245,195,195)" />
<path d="M-0.659133 -0.500067 L0.340867 -0.500067 L0.340867 0.499933 L-0.659133 0.499933  z" fill="none" stroke="rgb(128,128,128)" stroke-width="0.01" />
<line x1="-0.144848" y1="-0.290469" x2="0.2416" y2="0.0959785" style="stroke:rgb(246,147,147);stroke-width:0.01" />
<line x1="-0.147615" y1="-0.289331" x2="0.240473" y2="0.0987571" style="stroke:rgb(246,147,147);stroke-width:0.01" />
<line x1="-0.252786" y1="-0.246064" x2="0.197625" y2="0.204347" style="stroke:rgb(246,147,147);stroke-width:0.01" />
<line x1="0.0985078" y1="0.100803" x2="0.199733" y2="0.199152" style="stroke:rgb(246,147,147);stroke-width:0.01" />
<line x1="-0.253506" y1="-0.0967745" x2="-0.149052" y2="0.00869143" style="stroke:rgb(246,147,147);stroke-width:0.01" />
<line x1="0.19243" y1="-0.351629" x2="0.19243" y2="0.199152" style="stroke:rgb(246,147,147);stroke-width:0.01" />
<line x1="-0.252786" y1="-0.246064" x2="-0.254518" y2="0.113145" style="stroke:rgb(246,147,147);stroke-width:0.01" />
<line x1="-0.147615" y1="-0.289331" x2="-0.149052" y2="0.00869143" style="stroke:rgb(246,147,147);stroke-width:0.01" />
<line x1="-0.144848" y1="-0.290469" x2="-0.147315" y2="0.221387" style="stroke:rgb(246,147,147);stroke-width:0.01" />
<line x1="-0.114194" y1="0.101106" x2="-0.00492994" y2="0.207266" style="stroke:rgb(246,147,147);stroke-width:0.01" />
<line x1="-0.254518" y1="0.113145" x2="-0.147315" y2="0.221387" style="stroke:rgb(246,147,147);stroke-width:0.01" />
<line x1="0.00381795" y1="-0.351629" x2="0.19243" y2="-0.351629" style="stroke:rgb(246,147,147);stroke-width:0.01" />
<line x1="0.00381795" y1="-0.351629" x2="-0.252786" y2="-0.246064" style="stroke:rgb(246,147,147);stroke-width:0.01" />
<line x1="0.2416" y1="0.0959785" x2="0.197625" y2="0.204347" style="stroke:rgb(246,147,147);stroke-width:0.01" />
<line x1="0.00381795" y1="-0.351629" x2="-0.253506" y2="-0.0967745" style="stroke:rgb(246,147,147);stroke-width:0.01" />
<line x1="-0.149052" y1="0.00869143" x2="-0.254518" y2="0.113145" style="stroke:rgb(246,147,147);stroke-width:0.01" />
<line x1="0.2416" y1="0.0959785" x2="-0.114194" y2="0.101106" style="stroke:rgb(246,147,147);stroke-width:0.01" />
<line x1="0.240473" y1="0.0987571" x2="0.0985078" y2="0.100803" style="stroke:rgb(246,147,147);stroke-width:0.01" />
<line x1="0.0985078" y1="0.100803" x2="-0.00492994" y2="0.207266" style="stroke:rgb(246,147,147);stroke-width:0.01" />
<line x1="0.19243" y1="0.199152" x2="0.199733" y2="0.199152" style="stroke:rgb(246,147,147);stroke-width:0.01" />
<line x1="0.197625" y1="0.204347" x2="-0.00492994" y2="0.207266" style="stroke:rgb(246,147,147);stroke-width:0.01" />
</g>
</svg>
