<svg xmlns="http://www.w3.org/2000/svg" viewBox="-1.5 -1.5 3 3">
<g transform="scale(1, -1)">
<path d="M0.116183 -2.064315 L0.337483 -1.678884 L0.250761 -1.629092 L0.263890 -1.586631 L0.075175 -1.528277 L-0.267430 -1.331566 L-0.412964 -1.198006 L-0.443015 -1.230751 L-0.529737 -1.180959 L-0.751037 -1.566390 L-0.345090 -1.863532 z " fill="rgb(245,195,195)" />
<path d="M0.000000 0.000000 L1.000000 0.000000 L1.000000 1.000000 L0.000000 1.000000  z" fill="none" stroke="rgb(128,128,128)" stroke-width="0.01" />
<line x1="0.116183" y1="-2.06432" x2="-0.34509" y2="-1.86353" style="stroke:rgb(246,147,147);stroke-width:0.01" />
<line x1="-0.34509" y1="-1.86353" x2="-0.751037" y2="-1.56639" style="stroke:rgb(246,147,147);stroke-width:0.01" />
<line x1="0.26389" y1="-1.58663" x2="-0.166615" y2="-1.45351" style="stroke:rgb(246,147,147);stroke-width:0.01" />
<line x1="0.30982" y1="-1.72706" x2="-0.5574" y2="-1.22914" style="stroke:rgb(246,147,147);stroke-width:0.01" />
<line x1="0.337483" y1="-1.67888" x2="-0.529737" y2="-1.18096" style="stroke:rgb(246,147,147);stroke-width:0.01" />
<line x1="-0.0809641" y1="-1.50269" x2="-0.412964" y2="-1.19801" style="stroke:rgb(246,147,147);stroke-width:0.01" />
<line x1="0.116183" y1="-2.06432" x2="0.337483" y2="-1.67888" style="stroke:rgb(246,147,147);stroke-width:0.01" />
<line x1="-0.34509" y1="-1.86353" x2="-0.0809641" y2="-1.50269" style="stroke:rgb(246,147,147);stroke-width:0.01" />
<line x1="-0.751037" y1="-1.56639" x2="-0.412964" y2="-1.19801" style="stroke:rgb(246,147,147);stroke-width:0.01" />
<line x1="0.116183" y1="-2.06432" x2="0.26389" y2="-1.58663" style="stroke:rgb(246,147,147);stroke-width:0.01" />
<line x1="-0.34509" y1="-1.86353" x2="-0.166615" y2="-1.45351" style="stroke:rgb(246,147,147);stroke-width:0.01" />
<line x1="-0.751037" y1="-1.56639" x2="-0.529737" y2="-1.18096" style="stroke:rgb(246,147,147);stroke-width:0.01" />
</g>
</svg>
