<svg xmlns="http://www.w3.org/2000/svg" viewBox="-1.5 -1.5 3 3">
<g transform="scale(1, -1)">
<path d="M0.271254 -0.531733 L0.492554 -0.146302 L0.405832 -0.096510 L0.418961 -0.054049 L0.230247 0.004305 L-0.112359 0.201016 L-0.257893 0.334576 L-0.287944 0.301831 L-0.374666 0.351623 L-0.595966 -0.033808 L-0.190019 -0.330949 z " fill="rgb(245,195,195)" />
<path d="M0.155071 1.532582 L1.155071 1.532582 L1.155071 2.532582 L0.155071 2.532582  z" fill="none" stroke="rgb(128,128,128)" stroke-width="0.01" />
<line x1="0.271254" y1="-0.531733" x2="-0.190019" y2="-0.330949" style="stroke:rgb(246,147,147);stroke-width:0.01" />
<line x1="-0.190019" y1="-0.330949" x2="-0.595966" y2="-0.0338079" style="stroke:rgb(246,147,147);stroke-width:0.01" />
<line x1="0.418961" y1="-0.0540487" x2="-0.0115443" y2="0.0790706" style="stroke:rgb(246,147,147);stroke-width:0.01" />
<line x1="0.464891" y1="-0.194481" x2="-0.402329" y2="0.303444" style="stroke:rgb(246,147,147);stroke-width:0.01" />
<line x1="0.492554" y1="-0.146302" x2="-0.374666" y2="0.351623" style="stroke:rgb(246,147,147);stroke-width:0.01" />
<line x1="0.074107" y1="0.0298928" x2="-0.257893" y2="0.334576" style="stroke:rgb(246,147,147);stroke-width:0.01" />
<line x1="0.271254" y1="-0.531733" x2="0.492554" y2="-0.146302" style="stroke:rgb(246,147,147);stroke-width:0.01" />
<line x1="-0.190019" y1="-0.330949" x2="0.074107" y2="0.0298928" style="stroke:rgb(246,147,147);stroke-width:0.01" />
<line x1="-0.595966" y1="-0.0338079" x2="-0.257893" y2="0.334576" style="stroke:rgb(246,147,147);stroke-width:0.01" />
<line x1="0.271254" y1="-0.531733" x2="0.418961" y2="-0.0540487" style="stroke:rgb(246,147,147);stroke-width:0.01" />
<line x1="-0.190019" y1="-0.330949" x2="-0.0115443" y2="0.0790706" style="stroke:rgb(246,147,147);stroke-width:0.01" />
<line x1="-0.595966" y1="-0.0338079" x2="-0.374666" y2="0.351623" style="stroke:rgb(246,147,147);stroke-width:0.01" />
</g>
</svg>
