<svg xmlns="http://www.w3.org/2000/svg" viewBox="-1.5 -1.5 3 3">
<g transform="scale(1, -1)">
<path d="M-0.329717 -2.586007 L0.077985 -2.296561 L0.122233 -1.798523 L-0.126786 -1.776399 L-0.175272 -1.531146 L-0.665779 -1.628118 L-0.910216 -2.064295 L-0.561274 -2.259845 z " fill="rgb(245,195,195)" />
<path d="M0.000000 0.000000 L1.000000 0.000000 L1.000000 1.000000 L0.000000 1.000000  z" fill="none" stroke="rgb(128,128,128)" stroke-width="0.01" />
<line x1="-0.517118" y1="-2.28459" x2="-0.910216" y2="-2.0643" style="stroke:rgb(246,147,147);stroke-width:0.01" />
<line x1="0.077985" y1="-2.29656" x2="-0.405304" y2="-2.0863" style="stroke:rgb(246,147,147);stroke-width:0.01" />
<line x1="0.122233" y1="-1.79852" x2="-0.26513" y2="-1.76411" style="stroke:rgb(246,147,147);stroke-width:0.01" />
<line x1="-0.329717" y1="-2.58601" x2="0.077985" y2="-2.29656" style="stroke:rgb(246,147,147);stroke-width:0.01" />
<line x1="-0.517118" y1="-2.28459" x2="-0.590576" y2="-2.21857" style="stroke:rgb(246,147,147);stroke-width:0.01" />
<line x1="-0.665779" y1="-1.62812" x2="-0.175272" y2="-1.53115" style="stroke:rgb(246,147,147);stroke-width:0.01" />
<line x1="-0.405304" y1="-2.0863" x2="-0.0998493" y2="-1.91265" style="stroke:rgb(246,147,147);stroke-width:0.01" />
<line x1="-0.256761" y1="-1.92102" x2="-0.665779" y2="-1.62812" style="stroke:rgb(246,147,147);stroke-width:0.01" />
<line x1="-0.0998493" y1="-1.91265" x2="-0.26513" y2="-1.76411" style="stroke:rgb(246,147,147);stroke-width:0.01" />
<line x1="-0.329717" y1="-2.58601" x2="-0.590576" y2="-2.21857" style="stroke:rgb(246,147,147);stroke-width:0.01" />
<line x1="0.077985" y1="-2.29656" x2="-0.256761" y2="-1.92102" style="stroke:rgb(246,147,147);stroke-width:0.01" />
<line x1="-0.590576" y1="-2.21857" x2="-0.256761" y2="-1.92102" style="stroke:rgb(246,147,147);stroke-width:0.01" />
<line x1="-0.405304" y1="-2.0863" x2="-0.665779" y2="-1.62812" style="stroke:rgb(246,147,147);stroke-width:0.01" />
<line x1="-0.517118" y1="-2.28459" x2="-0.256761" y2="-1.92102" style="stroke:rgb(246,147,147);stroke-width:0.01" />
<line x1="-0.405304" y1="-2.0863" x2="-0.26513" y2="-1.76411" style="stroke:rgb(246,147,147);stroke-width:0.01" />
<line x1="-0.910216" y1="-2.0643" x2="-0.665779" y2="-1.62812" style="stroke:rgb(246,147,147);stroke-width:0.01" />
<line x1="-0.0998493" y1="-1.91265" x2="-0.175272" y2="-1.53115" style="stroke:rgb(246,147,147);stroke-width:0.01" />
<line x1="0.077985" y1="-2.29656" x2="0.122233" y2="-1.79852" style="stroke:rgb(246,147,147);stroke-width:0.01" />
</g>
</svg>
