<svg xmlns="http://www.w3.org/2000/svg" viewBox="-1.5 -1.5 3 3">
<g transform="scale(1, -1)">
<path d="M-8196761340992.079102 -8196761340992.039062 L-8196761340991.599609 -8196761340992.039062 L-8196761340991.559570 -8196761340992.000000 L-8196761340991.559570 -8196761340991.519531 L-8196761340991.599609 -8196761340991.519531 L-8196761340991.599609 -8196761340992.000000 L-8196761340992.079102 -8196761340992.000000 z " fill="rgb(245,195,195)" />
<path d="M0.000000 0.000000 L1.000000 0.000000 L1.000000 1.000000 L0.000000 1.000000  z" fill="none" stroke="rgb(128,128,128)" stroke-width="0.01" />
<line x1="-8.19676e+12" y1="-8.19676e+12" x2="-8.19676e+12" y2="-8.19676e+12" style="stroke:rgb(246,147,147);stroke-width:0.01" />
<line x1="-8.19676e+12" y1="-8.19676e+12" x2="-8.19676e+12" y2="-8.19676e+12" style="stroke:rgb(246,147,147);stroke-width:0.01" />
<line x1="-8.19676e+12" y1="-8.19676e+12" x2="-8.19676e+12" y2="-8.19676e+12" style="stroke:rgb(246,147,147);stroke-width:0.01" />
<line x1="-8.19676e+12" y1="-8.19676e+12" x2="-8.19676e+12" y2="-8.19676e+12" style="stroke:rgb(246,147,147);stroke-width:0.01" />
<line x1="-8.19676e+12" y1="-8.19676e+12" x2="-8.19676e+12" y2="-8.19676e+12" style="stroke:rgb(246,147,147);stroke-width:0.01" />
<line x1="-8.19676e+12" y1="-8.19676e+12" x2="-8.19676e+12" y2="-8.19676e+12" style="stroke:rgb(246,147,147);stroke-width:0.01" />
<line x1="-8.19676e+12" y1="-8.19676e+12" x2="-8.19676e+12" y2="-8.19676e+12" style="stroke:rgb(246,147,147);stroke-width:0.01" />
</g>
</svg>
