<svg xmlns="http://www.w3.org/2000/svg" viewBox="-1.5 -1.5 3 3">
<g transform="scale(1, -1)">
<path d="M-1084227690607.407349 -1084227690607.370361 L-1084227690606.925903 -1084227690607.370361 L-1084227690606.888794 -1084227690607.333252 L-1084227690606.888794 -1084227690606.851807 L-1084227690606.925903 -1084227690606.851807 L-1084227690606.925903 -1084227690607.333252 L-1084227690607.407349 -1084227690607.333252 z " fill="rgb(245,195,195)" />
<path d="M0.000000 0.000000 L1.000000 0.000000 L1.000000 1.000000 L0.000000 1.000000  z" fill="none" stroke="rgb(128,128,128)" stroke-width="0.01" />
<line x1="-1.08423e+12" y1="-1.08423e+12" x2="-1.08423e+12" y2="-1.08423e+12" style="stroke:rgb(246,147,147);stroke-width:0.01" />
<line x1="-1.08423e+12" y1="-1.08423e+12" x2="-1.08423e+12" y2="-1.08423e+12" style="stroke:rgb(246,147,147);stroke-width:0.01" />
<line x1="-1.08423e+12" y1="-1.08423e+12" x2="-1.08423e+12" y2="-1.08423e+12" style="stroke:rgb(246,147,147);stroke-width:0.01" />
<line x1="-1.08423e+12" y1="-1.08423e+12" x2="-1.08423e+12" y2="-1.08423e+12" style="stroke:rgb(246,147,147);stroke-width:0.01" />
<line x1="-1.08423e+12" y1="-1.08423e+12" x2="-1.08423e+12" y2="-1.08423e+12" style="stroke:rgb(246,147,147);stroke-width:0.01" />
<line x1="-1.08423e+12" y1="-1.08423e+12" x2="-1.08423e+12" y2="-1.08423e+12" style="stroke:rgb(246,147,147);stroke-width:0.01" />
<line x1="-1.08423e+12" y1="-1.08423e+12" x2="-1.08423e+12" y2="-1.08423e+12" style="stroke:rgb(246,147,147);stroke-width:0.01" />
</g>
</svg>
