<svg xmlns="http://www.w3.org/2000/svg" viewBox="-1.5 -1.5 3 3">
<g transform="scale(1, -1)">
<path d="M3581737030278048028215277783617432977408.000000 1296180120209289337050024694606307786752.000000 L3581737030278048028215277783617432977408.000000 1296180120209289337050024694606307786752.000000 L3581737030278048028215277783617432977408.000000 1296180120209289337050024694606307786752.000000 L3581737030278048028215277783617432977408.000000 1296180120209289337050024694606307786752.000000 L3581737030278048028215277783617432977408.000000 1296180120209289337050024694606307786752.000000 L3581737030278048028215277783617432977408.000000 1296180120209289337050024694606307786752.000000 z " fill="rgb(245,195,195)" />
<path d="M0.000000 0.000000 L1.000000 0.000000 L1.000000 1.000000 L0.000000 1.000000  z" fill="none" stroke="rgb(128,128,128)" stroke-width="0.01" />
<line x1="3.58174e+39" y1="1.29618e+39" x2="3.58174e+39" y2="1.29618e+39" style="stroke:rgb(246,147,147);stroke-width:0.01" />
<line x1="3.58174e+39" y1="1.29618e+39" x2="3.58174e+39" y2="1.29618e+39" style="stroke:rgb(246,147,147);stroke-width:0.01" />
<line x1="3.58174e+39" y1="1.29618e+39" x2="3.58174e+39" y2="1.29618e+39" style="stroke:rgb(246,147,147);stroke-width:0.01" />
<line x1="3.58174e+39" y1="1.29618e+39" x2="3.58174e+39" y2="1.29618e+39" style="stroke:rgb(246,147,147);stroke-width:0.01" />
<line x1="3.58174e+39" y1="1.29618e+39" x2="3.58174e+39" y2="1.29618e+39" style="stroke:rgb(246,147,147);stroke-width:0.01" />
<line x1="3.58174e+39" y1="1.29618e+39" x2="3.58174e+39" y2="1.29618e+39" style="stroke:rgb(246,147,147);stroke-width:0.01" />
<line x1="3.58174e+39" y1="1.29618e+39" x2="3.58174e+39" y2="1.29618e+39" style="stroke:rgb(246,147,147);stroke-width:0.01" />
<line x1="3.58174e+39" y1="1.29618e+39" x2="3.58174e+39" y2="1.29618e+39" style="stroke:rgb(246,147,147);stroke-width:0.01" />
</g>
</svg>
