<svg xmlns="http://www.w3.org/2000/svg" viewBox="-1.5 -1.5 3 3">
<g transform="scale(1, -1)">
<path d="M-0.009391 -0.258163 L0.197747 -0.065565 L0.201382 0.034369 L0.105084 0.137938 L0.001515 0.041639 L-0.094784 0.145208 L-0.198353 0.048909 L-0.201988 -0.051024 z M0.097813 -0.061930 L-0.102054 -0.054660 L-0.098419 0.045274 L0.101449 0.038004 z " fill="rgb(245,195,195)" />
<path d="M-0.510951 -0.543952 L0.489049 -0.543952 L0.489049 0.456048 L-0.510951 0.456048  z" fill="none" stroke="rgb(128,128,128)" stroke-width="0.01" />
<line x1="-0.00939083" y1="-0.258163" x2="0.197747" y2="-0.0655651" style="stroke:rgb(246,147,147);stroke-width:0.01" />
<line x1="-0.0575402" y1="-0.206378" x2="0.201382" y2="0.0343688" style="stroke:rgb(246,147,147);stroke-width:0.01" />
<line x1="0.197747" y1="-0.0655651" x2="0.201382" y2="0.0343688" style="stroke:rgb(246,147,147);stroke-width:0.01" />
<line x1="0.0941782" y1="-0.161864" x2="0.105084" y2="0.137938" style="stroke:rgb(246,147,147);stroke-width:0.01" />
<line x1="-0.10569" y1="-0.154594" x2="-0.0947841" y2="0.145208" style="stroke:rgb(246,147,147);stroke-width:0.01" />
<line x1="-0.201988" y1="-0.0510245" x2="-0.198353" y2="0.0489095" style="stroke:rgb(246,147,147);stroke-width:0.01" />
<line x1="0.00151465" y1="0.0416391" x2="0.105084" y2="0.137938" style="stroke:rgb(246,147,147);stroke-width:0.01" />
<line x1="-0.198353" y1="0.0489095" x2="-0.0947841" y2="0.145208" style="stroke:rgb(246,147,147);stroke-width:0.01" />
<line x1="-0.00939083" y1="-0.258163" x2="-0.201988" y2="-0.0510245" style="stroke:rgb(246,147,147);stroke-width:0.01" />
<line x1="0.0941782" y1="-0.161864" x2="-0.10569" y2="-0.154594" style="stroke:rgb(246,147,147);stroke-width:0.01" />
<line x1="0.0423937" y1="-0.210013" x2="-0.198353" y2="0.0489095" style="stroke:rgb(246,147,147);stroke-width:0.01" />
<line x1="0.197747" y1="-0.0655651" x2="-0.201988" y2="-0.0510245" style="stroke:rgb(246,147,147);stroke-width:0.01" />
<line x1="0.00151465" y1="0.0416391" x2="-0.0947841" y2="0.145208" style="stroke:rgb(246,147,147);stroke-width:0.01" />
<line x1="0.201382" y1="0.0343688" x2="-0.198353" y2="0.0489095" style="stroke:rgb(246,147,147);stroke-width:0.01" />
<line x1="0.201382" y1="0.0343688" x2="0.105084" y2="0.137938" style="stroke:rgb(246,147,147);stroke-width:0.01" />
</g>
</svg>
