<svg xmlns="http://www.w3.org/2000/svg" viewBox="-1.5 -1.5 3 3">
<g transform="scale(1, -1)">
<path d="M0.501560 0.285790 L0.708698 0.478387 L0.712333 0.578321 L0.616034 0.681890 L0.512465 0.585592 L0.416167 0.689161 L0.312597 0.592862 L0.308962 0.492928 z M0.608764 0.482022 L0.408896 0.489293 L0.412531 0.589227 L0.612399 0.581956 z " fill="rgb(245,195,195)" />
<path d="M0.000000 0.000000 L1.000000 0.000000 L1.000000 1.000000 L0.000000 1.000000  z" fill="none" stroke="rgb(128,128,128)" stroke-width="0.01" />
<line x1="0.50156" y1="0.28579" x2="0.708698" y2="0.478387" style="stroke:rgb(246,147,147);stroke-width:0.01" />
<line x1="0.45341" y1="0.337574" x2="0.712333" y2="0.578321" style="stroke:rgb(246,147,147);stroke-width:0.01" />
<line x1="0.708698" y1="0.478387" x2="0.712333" y2="0.578321" style="stroke:rgb(246,147,147);stroke-width:0.01" />
<line x1="0.605129" y1="0.382089" x2="0.616034" y2="0.68189" style="stroke:rgb(246,147,147);stroke-width:0.01" />
<line x1="0.405261" y1="0.389359" x2="0.416167" y2="0.689161" style="stroke:rgb(246,147,147);stroke-width:0.01" />
<line x1="0.308962" y1="0.492928" x2="0.312597" y2="0.592862" style="stroke:rgb(246,147,147);stroke-width:0.01" />
<line x1="0.512465" y1="0.585592" x2="0.616034" y2="0.68189" style="stroke:rgb(246,147,147);stroke-width:0.01" />
<line x1="0.312597" y1="0.592862" x2="0.416167" y2="0.689161" style="stroke:rgb(246,147,147);stroke-width:0.01" />
<line x1="0.50156" y1="0.28579" x2="0.308962" y2="0.492928" style="stroke:rgb(246,147,147);stroke-width:0.01" />
<line x1="0.605129" y1="0.382089" x2="0.405261" y2="0.389359" style="stroke:rgb(246,147,147);stroke-width:0.01" />
<line x1="0.553344" y1="0.333939" x2="0.312597" y2="0.592862" style="stroke:rgb(246,147,147);stroke-width:0.01" />
<line x1="0.708698" y1="0.478387" x2="0.308962" y2="0.492928" style="stroke:rgb(246,147,147);stroke-width:0.01" />
<line x1="0.512465" y1="0.585592" x2="0.416167" y2="0.689161" style="stroke:rgb(246,147,147);stroke-width:0.01" />
<line x1="0.712333" y1="0.578321" x2="0.312597" y2="0.592862" style="stroke:rgb(246,147,147);stroke-width:0.01" />
<line x1="0.712333" y1="0.578321" x2="0.616034" y2="0.68189" style="stroke:rgb(246,147,147);stroke-width:0.01" />
</g>
</svg>
