<svg xmlns="http://www.w3.org/2000/svg" viewBox="-1 -1 3 3">
<path d="M0.417668 -0.011183 L0.422846 0.000000 L0.487464 0.000000 L0.502944 0.091690 L0.592678 0.134700 L0.538022 0.248733 L0.848572 0.919395 L0.781769 0.970934 L0.757067 0.938915 L0.649844 0.961789 L0.656295 1.000000 L0.639733 1.005756 L0.630287 1.081340 L0.477286 1.062218 L0.365247 0.000000 z " fill="rgb(245,195,195)" />
<path d="M0 0 L0 1 L1 1 L1 0 z" fill="none" stroke="rgb(128,128,128)" stroke-width="0.01" />
<line x1="0.417668" y1="-0.0111829" x2="0.848572" y2="0.919395" style="stroke:rgb(246,147,147);stroke-width:0.01" />
<line x1="0.368101" y1="0.027059" x2="0.592678" y2="0.1347" style="stroke:rgb(246,147,147);stroke-width:0.01" />
<line x1="0.381091" y1="0.150212" x2="0.516941" y2="0.284996" style="stroke:rgb(246,147,147);stroke-width:0.01" />
<line x1="0.487464" y1="0" x2="0.656295" y2="1" style="stroke:rgb(246,147,147);stroke-width:0.01" />
<line x1="0.365247" y1="0" x2="0.477286" y2="1.06222" style="stroke:rgb(246,147,147);stroke-width:0.01" />
<line x1="0.417914" y1="0.499322" x2="0.781769" y2="0.970934" style="stroke:rgb(246,147,147);stroke-width:0.01" />
<line x1="0.369569" y1="0.0409767" x2="0.446259" y2="0.0505611" style="stroke:rgb(246,147,147);stroke-width:0.01" />
<line x1="0.365247" y1="0" x2="0.487464" y2="0" style="stroke:rgb(246,147,147);stroke-width:0.01" />
<line x1="0.417668" y1="-0.0111829" x2="0.365247" y2="0" style="stroke:rgb(246,147,147);stroke-width:0.01" />
<line x1="0.406996" y1="0.39581" x2="0.692618" y2="0.582598" style="stroke:rgb(246,147,147);stroke-width:0.01" />
<line x1="0.692618" y1="0.582598" x2="0.630287" y2="1.08134" style="stroke:rgb(246,147,147);stroke-width:0.01" />
<line x1="0.487464" y1="0" x2="0.369569" y2="0.0409767" style="stroke:rgb(246,147,147);stroke-width:0.01" />
<line x1="0.417668" y1="-0.0111829" x2="0.368101" y2="0.027059" style="stroke:rgb(246,147,147);stroke-width:0.01" />
<line x1="0.446259" y1="0.0505611" x2="0.381091" y2="0.150212" style="stroke:rgb(246,147,147);stroke-width:0.01" />
<line x1="0.592678" y1="0.1347" x2="0.417914" y2="0.499322" style="stroke:rgb(246,147,147);stroke-width:0.01" />
<line x1="0.516941" y1="0.284996" x2="0.406996" y2="0.39581" style="stroke:rgb(246,147,147);stroke-width:0.01" />
<line x1="0.848572" y1="0.919395" x2="0.781769" y2="0.970934" style="stroke:rgb(246,147,147);stroke-width:0.01" />
<line x1="0.477286" y1="1.06222" x2="0.630287" y2="1.08134" style="stroke:rgb(246,147,147);stroke-width:0.01" />
<line x1="0.470723" y1="1" x2="0.656295" y2="1" style="stroke:rgb(246,147,147);stroke-width:0.01" />
<line x1="0.848572" y1="0.919395" x2="0.470723" y2="1" style="stroke:rgb(246,147,147);stroke-width:0.01" />
<line x1="0.656295" y1="1" x2="0.477286" y2="1.06222" style="stroke:rgb(246,147,147);stroke-width:0.01" />
</svg>
