<svg xmlns="http://www.w3.org/2000/svg" viewBox="-1.5 -1.5 3 3">
<g transform="scale(1, -1)">
<path d="M-0.046875 -0.187500 L0.078125 -0.187500 L0.203125 -0.062500 L0.203125 0.187500 L-0.171875 0.187500 L-0.296875 0.062500 L-0.046875 0.062500 L0.078125 -0.062500 z " fill="rgb(245,195,195)" />
<path d="M0.078125 -0.312500 L1.078125 -0.312500 L1.078125 0.687500 L0.078125 0.687500  z" fill="none" stroke="rgb(128,128,128)" stroke-width="0.01" />
<line x1="0.078125" y1="-0.1875" x2="0.078125" y2="0.1875" style="stroke:rgb(246,147,147);stroke-width:0.01" />
<line x1="0.203125" y1="-0.0625" x2="0.203125" y2="0.1875" style="stroke:rgb(246,147,147);stroke-width:0.01" />
<line x1="0.078125" y1="-0.1875" x2="0.203125" y2="-0.0625" style="stroke:rgb(246,147,147);stroke-width:0.01" />
<line x1="-0.046875" y1="-0.1875" x2="0.203125" y2="0.0625" style="stroke:rgb(246,147,147);stroke-width:0.01" />
<line x1="-0.046875" y1="-0.1875" x2="0.078125" y2="-0.1875" style="stroke:rgb(246,147,147);stroke-width:0.01" />
<line x1="0.078125" y1="-0.0625" x2="-0.171875" y2="0.1875" style="stroke:rgb(246,147,147);stroke-width:0.01" />
<line x1="0.015625" y1="0" x2="0.203125" y2="0.1875" style="stroke:rgb(246,147,147);stroke-width:0.01" />
<line x1="0.203125" y1="-0.0625" x2="-0.046875" y2="0.1875" style="stroke:rgb(246,147,147);stroke-width:0.01" />
<line x1="-0.046875" y1="0.0625" x2="0.078125" y2="0.1875" style="stroke:rgb(246,147,147);stroke-width:0.01" />
<line x1="0.203125" y1="0.0625" x2="0.078125" y2="0.1875" style="stroke:rgb(246,147,147);stroke-width:0.01" />
<line x1="-0.109375" y1="0.125" x2="-0.046875" y2="0.1875" style="stroke:rgb(246,147,147);stroke-width:0.01" />
<line x1="-0.296875" y1="0.0625" x2="-0.171875" y2="0.1875" style="stroke:rgb(246,147,147);stroke-width:0.01" />
<line x1="-0.296875" y1="0.0625" x2="0.203125" y2="0.0625" style="stroke:rgb(246,147,147);stroke-width:0.01" />
<line x1="-0.171875" y1="0.1875" x2="0.203125" y2="0.1875" style="stroke:rgb(246,147,147);stroke-width:0.01" />
</g>
</svg>
