<svg xmlns="http://www.w3.org/2000/svg" viewBox="-1.5 -1.5 3 3">
<g transform="scale(1, -1)">
<path d="M-0.086812 -0.123833 L-0.008687 -0.045708 L0.053812 -0.108208 L0.178812 0.016792 L0.428812 0.016792 L0.303812 0.141792 L-0.196187 0.141792 L-0.196187 0.022000 L-0.281187 0.046792 L-0.196187 -0.108208 z " fill="rgb(245,195,195)" />
<path d="M-0.196187 -0.358208 L0.803812 -0.358208 L0.803812 0.641792 L-0.196187 0.641792  z" fill="none" stroke="rgb(128,128,128)" stroke-width="0.01" />
<line x1="0.0538125" y1="-0.108208" x2="0.303812" y2="0.141792" style="stroke:rgb(246,147,147);stroke-width:0.01" />
<line x1="-0.196187" y1="-0.108208" x2="-0.196187" y2="0.141792" style="stroke:rgb(246,147,147);stroke-width:0.01" />
<line x1="-0.196187" y1="-0.108208" x2="-0.161187" y2="0.0117917" style="stroke:rgb(246,147,147);stroke-width:0.01" />
<line x1="-0.196187" y1="-0.108208" x2="-0.281187" y2="0.0467917" style="stroke:rgb(246,147,147);stroke-width:0.01" />
<line x1="-0.0868125" y1="-0.123833" x2="0.178812" y2="0.141792" style="stroke:rgb(246,147,147);stroke-width:0.01" />
<line x1="-0.0868125" y1="-0.123833" x2="-0.161187" y2="0.0117917" style="stroke:rgb(246,147,147);stroke-width:0.01" />
<line x1="-0.196187" y1="-0.108208" x2="0.0538125" y2="0.141792" style="stroke:rgb(246,147,147);stroke-width:0.01" />
<line x1="-0.196187" y1="0.0167917" x2="-0.0711875" y2="0.141792" style="stroke:rgb(246,147,147);stroke-width:0.01" />
<line x1="-0.0868125" y1="-0.123833" x2="-0.196187" y2="-0.108208" style="stroke:rgb(246,147,147);stroke-width:0.01" />
<line x1="0.0538125" y1="-0.108208" x2="-0.196187" y2="0.141792" style="stroke:rgb(246,147,147);stroke-width:0.01" />
<line x1="0.116312" y1="-0.0457083" x2="-0.0711875" y2="0.141792" style="stroke:rgb(246,147,147);stroke-width:0.01" />
<line x1="-0.161187" y1="0.0117917" x2="-0.281187" y2="0.0467917" style="stroke:rgb(246,147,147);stroke-width:0.01" />
<line x1="-0.196187" y1="0.0167917" x2="0.428812" y2="0.0167917" style="stroke:rgb(246,147,147);stroke-width:0.01" />
<line x1="0.178812" y1="0.0167917" x2="0.0538125" y2="0.141792" style="stroke:rgb(246,147,147);stroke-width:0.01" />
<line x1="0.241312" y1="0.0792917" x2="0.178812" y2="0.141792" style="stroke:rgb(246,147,147);stroke-width:0.01" />
<line x1="-0.196187" y1="0.141792" x2="0.303812" y2="0.141792" style="stroke:rgb(246,147,147);stroke-width:0.01" />
<line x1="0.428812" y1="0.0167917" x2="0.303812" y2="0.141792" style="stroke:rgb(246,147,147);stroke-width:0.01" />
</g>
</svg>
