<svg xmlns="http://www.w3.org/2000/svg" viewBox="-1.5 -1.5 3 3">
<g transform="scale(1, -1)">
<path d="M-0.383562 -0.196821 L-0.258562 -0.196821 L-0.071062 -0.009321 L-0.008562 -0.071821 L0.116438 0.053179 L0.287169 0.053179 L0.352393 0.030707 L0.341438 0.053179 L0.141438 0.178179 L-0.258562 0.178179 L-0.258562 -0.071821 z " fill="rgb(245,195,195)" />
<path d="M-0.258562 -0.321821 L0.741438 -0.321821 L0.741438 0.678179 L-0.258562 0.678179  z" fill="none" stroke="rgb(128,128,128)" stroke-width="0.01" />
<line x1="0.185258" y1="0.0882916" x2="0.202976" y2="0.139718" style="stroke:rgb(246,147,147);stroke-width:0.01" />
<line x1="-0.00856243" y1="-0.0718207" x2="0.202976" y2="0.139718" style="stroke:rgb(246,147,147);stroke-width:0.01" />
<line x1="-0.258562" y1="-0.196821" x2="-0.258562" y2="0.178179" style="stroke:rgb(246,147,147);stroke-width:0.01" />
<line x1="-0.258562" y1="-0.196821" x2="0.116438" y2="0.178179" style="stroke:rgb(246,147,147);stroke-width:0.01" />
<line x1="-0.383562" y1="-0.196821" x2="-0.00856243" y2="0.178179" style="stroke:rgb(246,147,147);stroke-width:0.01" />
<line x1="-0.383562" y1="-0.196821" x2="-0.258562" y2="-0.196821" style="stroke:rgb(246,147,147);stroke-width:0.01" />
<line x1="-0.258562" y1="0.0531793" x2="-0.133562" y2="0.178179" style="stroke:rgb(246,147,147);stroke-width:0.01" />
<line x1="-0.00856243" y1="-0.0718207" x2="-0.258562" y2="0.178179" style="stroke:rgb(246,147,147);stroke-width:0.01" />
<line x1="0.185258" y1="0.0882916" x2="0.141438" y2="0.178179" style="stroke:rgb(246,147,147);stroke-width:0.01" />
<line x1="0.352393" y1="0.0307074" x2="0.341438" y2="0.0531793" style="stroke:rgb(246,147,147);stroke-width:0.01" />
<line x1="0.0539376" y1="-0.00932074" x2="-0.133562" y2="0.178179" style="stroke:rgb(246,147,147);stroke-width:0.01" />
<line x1="-0.258562" y1="0.0531793" x2="0.341438" y2="0.0531793" style="stroke:rgb(246,147,147);stroke-width:0.01" />
<line x1="0.116438" y1="0.0531793" x2="-0.00856243" y2="0.178179" style="stroke:rgb(246,147,147);stroke-width:0.01" />
<line x1="0.178938" y1="0.115679" x2="0.116438" y2="0.178179" style="stroke:rgb(246,147,147);stroke-width:0.01" />
<line x1="-0.258562" y1="0.178179" x2="0.141438" y2="0.178179" style="stroke:rgb(246,147,147);stroke-width:0.01" />
<line x1="0.352393" y1="0.0307074" x2="0.185258" y2="0.0882916" style="stroke:rgb(246,147,147);stroke-width:0.01" />
<line x1="0.341438" y1="0.0531793" x2="0.141438" y2="0.178179" style="stroke:rgb(246,147,147);stroke-width:0.01" />
</g>
</svg>
