<svg xmlns="http://www.w3.org/2000/svg" viewBox="-1.5 -1.5 3 3">
<g transform="scale(1, -1)">
<path d="M-0.125000 0.125000 L0.000000 0.125000 L0.187500 0.312500 L0.250000 0.250000 L0.375000 0.375000 L0.545732 0.375000 L0.610955 0.352528 L0.600000 0.375000 L0.400000 0.500000 L0.000000 0.500000 L0.000000 0.250000 z " fill="rgb(245,195,195)" />
<path d="M0.000000 0.000000 L1.000000 0.000000 L1.000000 1.000000 L0.000000 1.000000  z" fill="none" stroke="rgb(128,128,128)" stroke-width="0.01" />
<line x1="0.44382" y1="0.410112" x2="0.461538" y2="0.461538" style="stroke:rgb(246,147,147);stroke-width:0.01" />
<line x1="0.25" y1="0.25" x2="0.461538" y2="0.461538" style="stroke:rgb(246,147,147);stroke-width:0.01" />
<line x1="0" y1="0.125" x2="0" y2="0.5" style="stroke:rgb(246,147,147);stroke-width:0.01" />
<line x1="0" y1="0.125" x2="0.375" y2="0.5" style="stroke:rgb(246,147,147);stroke-width:0.01" />
<line x1="-0.125" y1="0.125" x2="0.25" y2="0.5" style="stroke:rgb(246,147,147);stroke-width:0.01" />
<line x1="-0.125" y1="0.125" x2="0" y2="0.125" style="stroke:rgb(246,147,147);stroke-width:0.01" />
<line x1="0" y1="0.375" x2="0.125" y2="0.5" style="stroke:rgb(246,147,147);stroke-width:0.01" />
<line x1="0.25" y1="0.25" x2="0" y2="0.5" style="stroke:rgb(246,147,147);stroke-width:0.01" />
<line x1="0.44382" y1="0.410112" x2="0.4" y2="0.5" style="stroke:rgb(246,147,147);stroke-width:0.01" />
<line x1="0.610955" y1="0.352528" x2="0.6" y2="0.375" style="stroke:rgb(246,147,147);stroke-width:0.01" />
<line x1="0.3125" y1="0.3125" x2="0.125" y2="0.5" style="stroke:rgb(246,147,147);stroke-width:0.01" />
<line x1="0" y1="0.375" x2="0.6" y2="0.375" style="stroke:rgb(246,147,147);stroke-width:0.01" />
<line x1="0.375" y1="0.375" x2="0.25" y2="0.5" style="stroke:rgb(246,147,147);stroke-width:0.01" />
<line x1="0.4375" y1="0.4375" x2="0.375" y2="0.5" style="stroke:rgb(246,147,147);stroke-width:0.01" />
<line x1="0" y1="0.5" x2="0.4" y2="0.5" style="stroke:rgb(246,147,147);stroke-width:0.01" />
<line x1="0.610955" y1="0.352528" x2="0.44382" y2="0.410112" style="stroke:rgb(246,147,147);stroke-width:0.01" />
<line x1="0.6" y1="0.375" x2="0.4" y2="0.5" style="stroke:rgb(246,147,147);stroke-width:0.01" />
</g>
</svg>
