<svg xmlns="http://www.w3.org/2000/svg" viewBox="-1.5 -1.5 3 3">
<g transform="scale(1, -1)">
<path d="M0.782690 0.429289 L0.782843 0.641421 L0.712183 0.712183 L0.712081 0.570761 L0.641320 0.500102 L0.500000 0.641624 L0.358477 0.500305 L0.287817 0.571066 L0.287919 0.712487 L0.217157 0.641827 L0.217005 0.429695 z " fill="rgb(245,195,195)" />
<path d="M0.000000 0.000000 L1.000000 0.000000 L1.000000 1.000000 L0.000000 1.000000  z" fill="none" stroke="rgb(128,128,128)" stroke-width="0.01" />
<line x1="0.71198" y1="0.42934" x2="0.782741" y2="0.5" style="stroke:rgb(246,147,147);stroke-width:0.01" />
<line x1="0.570558" y1="0.429442" x2="0.782843" y2="0.641421" style="stroke:rgb(246,147,147);stroke-width:0.01" />
<line x1="0.78269" y1="0.429289" x2="0.782843" y2="0.641421" style="stroke:rgb(246,147,147);stroke-width:0.01" />
<line x1="0.71198" y1="0.42934" x2="0.712183" y2="0.712183" style="stroke:rgb(246,147,147);stroke-width:0.01" />
<line x1="0.287716" y1="0.429645" x2="0.287919" y2="0.712487" style="stroke:rgb(246,147,147);stroke-width:0.01" />
<line x1="0.217005" y1="0.429695" x2="0.217157" y2="0.641827" style="stroke:rgb(246,147,147);stroke-width:0.01" />
<line x1="0.429137" y1="0.429543" x2="0.499898" y2="0.500203" style="stroke:rgb(246,147,147);stroke-width:0.01" />
<line x1="0.287716" y1="0.429645" x2="0.5" y2="0.641624" style="stroke:rgb(246,147,147);stroke-width:0.01" />
<line x1="0.217157" y1="0.641827" x2="0.287919" y2="0.712487" style="stroke:rgb(246,147,147);stroke-width:0.01" />
<line x1="0.287716" y1="0.429645" x2="0.217056" y2="0.500406" style="stroke:rgb(246,147,147);stroke-width:0.01" />
<line x1="0.429137" y1="0.429543" x2="0.217157" y2="0.641827" style="stroke:rgb(246,147,147);stroke-width:0.01" />
<line x1="0.78269" y1="0.429289" x2="0.217005" y2="0.429695" style="stroke:rgb(246,147,147);stroke-width:0.01" />
<line x1="0.570558" y1="0.429442" x2="0.499898" y2="0.500203" style="stroke:rgb(246,147,147);stroke-width:0.01" />
<line x1="0.782741" y1="0.5" x2="0.217056" y2="0.500406" style="stroke:rgb(246,147,147);stroke-width:0.01" />
<line x1="0.71198" y1="0.42934" x2="0.5" y2="0.641624" style="stroke:rgb(246,147,147);stroke-width:0.01" />
<line x1="0.782843" y1="0.641421" x2="0.712183" y2="0.712183" style="stroke:rgb(246,147,147);stroke-width:0.01" />
</g>
</svg>
