<svg xmlns="http://www.w3.org/2000/svg" viewBox="-1.5 -1.5 3 3">
<g transform="scale(1, -1)">
<path d="M0.282737 -0.148053 L0.282889 0.064079 L0.212229 0.134841 L0.212127 -0.006581 L0.141366 -0.077240 L0.000046 0.064282 L-0.141477 -0.077037 L-0.212137 -0.006276 L-0.212035 0.135145 L-0.282796 0.064485 L-0.282949 -0.147647 z " fill="rgb(245,195,195)" />
<path d="M-0.499954 -0.577342 L0.500046 -0.577342 L0.500046 0.422658 L-0.499954 0.422658  z" fill="none" stroke="rgb(128,128,128)" stroke-width="0.01" />
<line x1="0.212026" y1="-0.148002" x2="0.282787" y2="-0.0773419" style="stroke:rgb(246,147,147);stroke-width:0.01" />
<line x1="0.0706045" y1="-0.1479" x2="0.282889" y2="0.0640794" style="stroke:rgb(246,147,147);stroke-width:0.01" />
<line x1="0.282737" y1="-0.148053" x2="0.282889" y2="0.0640794" style="stroke:rgb(246,147,147);stroke-width:0.01" />
<line x1="0.212026" y1="-0.148002" x2="0.212229" y2="0.134841" style="stroke:rgb(246,147,147);stroke-width:0.01" />
<line x1="-0.212238" y1="-0.147697" x2="-0.212035" y2="0.135145" style="stroke:rgb(246,147,147);stroke-width:0.01" />
<line x1="-0.282949" y1="-0.147647" x2="-0.282796" y2="0.0644855" style="stroke:rgb(246,147,147);stroke-width:0.01" />
<line x1="-0.0708168" y1="-0.147799" x2="-5.53761e-05" y2="-0.0771389" style="stroke:rgb(246,147,147);stroke-width:0.01" />
<line x1="-0.212238" y1="-0.147697" x2="4.61467e-05" y2="0.0642824" style="stroke:rgb(246,147,147);stroke-width:0.01" />
<line x1="-0.282796" y1="0.0644855" x2="-0.212035" y2="0.135145" style="stroke:rgb(246,147,147);stroke-width:0.01" />
<line x1="-0.212238" y1="-0.147697" x2="-0.282898" y2="-0.0769359" style="stroke:rgb(246,147,147);stroke-width:0.01" />
<line x1="-0.0708168" y1="-0.147799" x2="-0.282796" y2="0.0644855" style="stroke:rgb(246,147,147);stroke-width:0.01" />
<line x1="0.282737" y1="-0.148053" x2="-0.282949" y2="-0.147647" style="stroke:rgb(246,147,147);stroke-width:0.01" />
<line x1="0.0706045" y1="-0.1479" x2="-5.53761e-05" y2="-0.0771389" style="stroke:rgb(246,147,147);stroke-width:0.01" />
<line x1="0.282787" y1="-0.0773419" x2="-0.282898" y2="-0.0769359" style="stroke:rgb(246,147,147);stroke-width:0.01" />
<line x1="0.212026" y1="-0.148002" x2="4.61467e-05" y2="0.0642824" style="stroke:rgb(246,147,147);stroke-width:0.01" />
<line x1="0.282889" y1="0.0640794" x2="0.212229" y2="0.134841" style="stroke:rgb(246,147,147);stroke-width:0.01" />
</g>
</svg>
