<svg xmlns="http://www.w3.org/2000/svg" viewBox="-1.5 -1.5 3 3">
<g transform="scale(1, -1)">
<path d="M-0.127618 -0.141277 L0.004327 -0.009333 L0.066827 -0.071833 L0.191827 0.053167 L0.441827 0.053167 L0.316827 0.178167 L-0.183173 0.178167 L-0.183173 -0.069849 L-0.288942 -0.042987 L-0.238729 -0.127389 z " fill="rgb(245,195,195)" />
<path d="M-0.183173 -0.321833 L0.816827 -0.321833 L0.816827 0.678167 L-0.183173 0.678167  z" fill="none" stroke="rgb(128,128,128)" stroke-width="0.01" />
<line x1="0.0668269" y1="-0.071833" x2="0.316827" y2="0.178167" style="stroke:rgb(246,147,147);stroke-width:0.01" />
<line x1="-0.183173" y1="-0.134333" x2="-0.183173" y2="0.178167" style="stroke:rgb(246,147,147);stroke-width:0.01" />
<line x1="-0.183173" y1="-0.134333" x2="-0.167788" y2="-0.0737561" style="stroke:rgb(246,147,147);stroke-width:0.01" />
<line x1="-0.238729" y1="-0.127389" x2="-0.288942" y2="-0.0429869" style="stroke:rgb(246,147,147);stroke-width:0.01" />
<line x1="-0.127618" y1="-0.141277" x2="0.191827" y2="0.178167" style="stroke:rgb(246,147,147);stroke-width:0.01" />
<line x1="-0.127618" y1="-0.141277" x2="-0.167788" y2="-0.0737561" style="stroke:rgb(246,147,147);stroke-width:0.01" />
<line x1="-0.238729" y1="-0.127389" x2="0.0668269" y2="0.178167" style="stroke:rgb(246,147,147);stroke-width:0.01" />
<line x1="-0.127618" y1="-0.141277" x2="-0.238729" y2="-0.127389" style="stroke:rgb(246,147,147);stroke-width:0.01" />
<line x1="-0.183173" y1="0.053167" x2="-0.0581731" y2="0.178167" style="stroke:rgb(246,147,147);stroke-width:0.01" />
<line x1="-0.167788" y1="-0.0737561" x2="-0.288942" y2="-0.0429869" style="stroke:rgb(246,147,147);stroke-width:0.01" />
<line x1="0.0668269" y1="-0.071833" x2="-0.183173" y2="0.178167" style="stroke:rgb(246,147,147);stroke-width:0.01" />
<line x1="0.129327" y1="-0.00933303" x2="-0.0581731" y2="0.178167" style="stroke:rgb(246,147,147);stroke-width:0.01" />
<line x1="-0.183173" y1="0.053167" x2="0.441827" y2="0.053167" style="stroke:rgb(246,147,147);stroke-width:0.01" />
<line x1="0.191827" y1="0.053167" x2="0.0668269" y2="0.178167" style="stroke:rgb(246,147,147);stroke-width:0.01" />
<line x1="0.254327" y1="0.115667" x2="0.191827" y2="0.178167" style="stroke:rgb(246,147,147);stroke-width:0.01" />
<line x1="-0.183173" y1="0.178167" x2="0.316827" y2="0.178167" style="stroke:rgb(246,147,147);stroke-width:0.01" />
<line x1="0.441827" y1="0.053167" x2="0.316827" y2="0.178167" style="stroke:rgb(246,147,147);stroke-width:0.01" />
</g>
</svg>
