<svg xmlns="http://www.w3.org/2000/svg" viewBox="-1.5 -1.5 3 3">
<g transform="scale(1, -1)">
<path d="M0.055556 0.180556 L0.187500 0.312500 L0.250000 0.250000 L0.375000 0.375000 L0.625000 0.375000 L0.500000 0.500000 L0.000000 0.500000 L0.000000 0.251984 L-0.105769 0.278846 L-0.055556 0.194444 z " fill="rgb(245,195,195)" />
<path d="M0.000000 0.000000 L1.000000 0.000000 L1.000000 1.000000 L0.000000 1.000000  z" fill="none" stroke="rgb(128,128,128)" stroke-width="0.01" />
<line x1="0.25" y1="0.25" x2="0.5" y2="0.5" style="stroke:rgb(246,147,147);stroke-width:0.01" />
<line x1="0" y1="0.1875" x2="0" y2="0.5" style="stroke:rgb(246,147,147);stroke-width:0.01" />
<line x1="0" y1="0.1875" x2="0.0153846" y2="0.248077" style="stroke:rgb(246,147,147);stroke-width:0.01" />
<line x1="-0.0555556" y1="0.194444" x2="-0.105769" y2="0.278846" style="stroke:rgb(246,147,147);stroke-width:0.01" />
<line x1="0.0555556" y1="0.180556" x2="0.375" y2="0.5" style="stroke:rgb(246,147,147);stroke-width:0.01" />
<line x1="0.0555556" y1="0.180556" x2="0.0153846" y2="0.248077" style="stroke:rgb(246,147,147);stroke-width:0.01" />
<line x1="-0.0555556" y1="0.194444" x2="0.25" y2="0.5" style="stroke:rgb(246,147,147);stroke-width:0.01" />
<line x1="0.0555556" y1="0.180556" x2="-0.0555556" y2="0.194444" style="stroke:rgb(246,147,147);stroke-width:0.01" />
<line x1="0" y1="0.375" x2="0.125" y2="0.5" style="stroke:rgb(246,147,147);stroke-width:0.01" />
<line x1="0.0153846" y1="0.248077" x2="-0.105769" y2="0.278846" style="stroke:rgb(246,147,147);stroke-width:0.01" />
<line x1="0.25" y1="0.25" x2="0" y2="0.5" style="stroke:rgb(246,147,147);stroke-width:0.01" />
<line x1="0.3125" y1="0.3125" x2="0.125" y2="0.5" style="stroke:rgb(246,147,147);stroke-width:0.01" />
<line x1="0" y1="0.375" x2="0.625" y2="0.375" style="stroke:rgb(246,147,147);stroke-width:0.01" />
<line x1="0.375" y1="0.375" x2="0.25" y2="0.5" style="stroke:rgb(246,147,147);stroke-width:0.01" />
<line x1="0.4375" y1="0.4375" x2="0.375" y2="0.5" style="stroke:rgb(246,147,147);stroke-width:0.01" />
<line x1="0" y1="0.5" x2="0.5" y2="0.5" style="stroke:rgb(246,147,147);stroke-width:0.01" />
<line x1="0.625" y1="0.375" x2="0.5" y2="0.5" style="stroke:rgb(246,147,147);stroke-width:0.01" />
</g>
</svg>
