<svg xmlns="http://www.w3.org/2000/svg" viewBox="-1.5 -1.5 3 3">
<g transform="scale(1, -1)">
<path d="M-0.031250 -0.156250 L0.031250 -0.156250 L0.156250 -0.031250 L0.156250 0.031250 L0.031250 0.156250 L-0.031250 0.156250 L-0.156250 0.031250 L-0.156250 -0.031250 z M-0.031250 -0.031250 L-0.031250 0.031250 L0.031250 0.031250 L0.031250 -0.031250 z " fill="rgb(245,195,195)" />
<path d="M-0.031250 -0.031250 L0.968750 -0.031250 L0.968750 0.968750 L-0.031250 0.968750  z" fill="none" stroke="rgb(128,128,128)" stroke-width="0.01" />
<line x1="-0.03125" y1="-0.15625" x2="0.03125" y2="-0.15625" style="stroke:rgb(246,147,147);stroke-width:0.01" />
<line x1="0.03125" y1="-0.15625" x2="0.15625" y2="-0.03125" style="stroke:rgb(246,147,147);stroke-width:0.01" />
<line x1="-0.03125" y1="-0.15625" x2="-0.15625" y2="-0.03125" style="stroke:rgb(246,147,147);stroke-width:0.01" />
<line x1="-0.15625" y1="-0.03125" x2="-0.15625" y2="0.03125" style="stroke:rgb(246,147,147);stroke-width:0.01" />
<line x1="-0.15625" y1="-0.03125" x2="0.15625" y2="-0.03125" style="stroke:rgb(246,147,147);stroke-width:0.01" />
<line x1="-0.03125" y1="-0.15625" x2="-0.03125" y2="0.15625" style="stroke:rgb(246,147,147);stroke-width:0.01" />
<line x1="0.03125" y1="-0.15625" x2="0.03125" y2="0.15625" style="stroke:rgb(246,147,147);stroke-width:0.01" />
<line x1="0.15625" y1="-0.03125" x2="0.15625" y2="0.03125" style="stroke:rgb(246,147,147);stroke-width:0.01" />
<line x1="-0.15625" y1="0.03125" x2="0.15625" y2="0.03125" style="stroke:rgb(246,147,147);stroke-width:0.01" />
<line x1="-0.15625" y1="0.03125" x2="-0.03125" y2="0.15625" style="stroke:rgb(246,147,147);stroke-width:0.01" />
<line x1="0.15625" y1="0.03125" x2="0.03125" y2="0.15625" style="stroke:rgb(246,147,147);stroke-width:0.01" />
<line x1="-0.03125" y1="0.15625" x2="0.03125" y2="0.15625" style="stroke:rgb(246,147,147);stroke-width:0.01" />
</g>
</svg>
