<svg xmlns="http://www.w3.org/2000/svg" viewBox="-1.5 -1.5 3 3">
<g transform="scale(1, -1)">
<path d="M-0.028409 -0.193182 L0.159091 -0.193182 L0.159091 0.056818 L0.034091 0.181818 L-0.028409 0.181818 L-0.153409 0.056818 L-0.153409 -0.068182 z M-0.028409 -0.068182 L-0.028409 0.056818 L0.034091 0.056818 L0.034091 -0.068182 z " fill="rgb(245,195,195)" />
<path d="M-0.028409 -0.068182 L0.971591 -0.068182 L0.971591 0.931818 L-0.028409 0.931818  z" fill="none" stroke="rgb(128,128,128)" stroke-width="0.01" />
<line x1="-0.0284091" y1="-0.193182" x2="0.159091" y2="-0.193182" style="stroke:rgb(246,147,147);stroke-width:0.01" />
<line x1="-0.0284091" y1="-0.193182" x2="-0.153409" y2="-0.0681818" style="stroke:rgb(246,147,147);stroke-width:0.01" />
<line x1="-0.153409" y1="-0.0681818" x2="-0.153409" y2="0.0568182" style="stroke:rgb(246,147,147);stroke-width:0.01" />
<line x1="-0.153409" y1="-0.0681818" x2="0.159091" y2="-0.0681818" style="stroke:rgb(246,147,147);stroke-width:0.01" />
<line x1="-0.0284091" y1="-0.193182" x2="-0.0284091" y2="0.181818" style="stroke:rgb(246,147,147);stroke-width:0.01" />
<line x1="0.0340909" y1="-0.193182" x2="0.0340909" y2="0.181818" style="stroke:rgb(246,147,147);stroke-width:0.01" />
<line x1="0.159091" y1="-0.193182" x2="0.159091" y2="0.0568182" style="stroke:rgb(246,147,147);stroke-width:0.01" />
<line x1="-0.153409" y1="0.0568182" x2="-0.0284091" y2="0.181818" style="stroke:rgb(246,147,147);stroke-width:0.01" />
<line x1="-0.153409" y1="0.0568182" x2="0.159091" y2="0.0568182" style="stroke:rgb(246,147,147);stroke-width:0.01" />
<line x1="0.159091" y1="0.0568182" x2="0.0340909" y2="0.181818" style="stroke:rgb(246,147,147);stroke-width:0.01" />
<line x1="-0.0284091" y1="0.181818" x2="0.0340909" y2="0.181818" style="stroke:rgb(246,147,147);stroke-width:0.01" />
</g>
</svg>
