<svg xmlns="http://www.w3.org/2000/svg" viewBox="-1.5 -1.5 3 3">
<g transform="scale(1, -1)">
<path d="M-0.206001 -0.244579 L-0.081001 -0.244579 L0.106499 -0.057079 L0.168999 -0.119579 L0.200249 -0.088329 L0.231499 0.130421 L0.051499 0.182921 L-0.044236 0.130421 L-0.081001 0.130421 L-0.081001 0.110260 L-0.103501 0.097921 L-0.081001 0.091359 L-0.081001 -0.119579 z " fill="rgb(245,195,195)" />
<path d="M-0.081001 -0.369579 L0.918999 -0.369579 L0.918999 0.630421 L-0.081001 0.630421  z" fill="none" stroke="rgb(128,128,128)" stroke-width="0.01" />
<line x1="0.200249" y1="-0.0883289" x2="0.231499" y2="0.130421" style="stroke:rgb(246,147,147);stroke-width:0.01" />
<line x1="0.168999" y1="-0.119579" x2="0.200249" y2="-0.0883289" style="stroke:rgb(246,147,147);stroke-width:0.01" />
<line x1="-0.0810011" y1="-0.244579" x2="-0.0810011" y2="0.130421" style="stroke:rgb(246,147,147);stroke-width:0.01" />
<line x1="-0.0810011" y1="-0.244579" x2="0.221082" y2="0.0575044" style="stroke:rgb(246,147,147);stroke-width:0.01" />
<line x1="-0.206001" y1="-0.244579" x2="0.168999" y2="0.130421" style="stroke:rgb(246,147,147);stroke-width:0.01" />
<line x1="-0.206001" y1="-0.244579" x2="-0.0810011" y2="-0.244579" style="stroke:rgb(246,147,147);stroke-width:0.01" />
<line x1="0.178999" y1="-0.0495789" x2="0.208061" y2="-0.0336414" style="stroke:rgb(246,147,147);stroke-width:0.01" />
<line x1="0.200249" y1="-0.0883289" x2="0.0514989" y2="0.182921" style="stroke:rgb(246,147,147);stroke-width:0.01" />
<line x1="-0.0810011" y1="0.00542106" x2="0.0439989" y2="0.130421" style="stroke:rgb(246,147,147);stroke-width:0.01" />
<line x1="0.136499" y1="0.0279211" x2="0.223686" y2="0.0757336" style="stroke:rgb(246,147,147);stroke-width:0.01" />
<line x1="0.221082" y1="0.0575044" x2="0.171499" y2="0.147921" style="stroke:rgb(246,147,147);stroke-width:0.01" />
<line x1="0.168999" y1="-0.119579" x2="-0.0810011" y2="0.130421" style="stroke:rgb(246,147,147);stroke-width:0.01" />
<line x1="0.0939989" y1="0.105421" x2="0.171499" y2="0.147921" style="stroke:rgb(246,147,147);stroke-width:0.01" />
<line x1="0.208061" y1="-0.0336414" x2="0.0439989" y2="0.130421" style="stroke:rgb(246,147,147);stroke-width:0.01" />
<line x1="-0.103501" y1="0.0979211" x2="0.0514989" y2="0.182921" style="stroke:rgb(246,147,147);stroke-width:0.01" />
<line x1="-0.0810011" y1="0.00542106" x2="0.213642" y2="0.00542106" style="stroke:rgb(246,147,147);stroke-width:0.01" />
<line x1="0.223686" y1="0.0757336" x2="0.168999" y2="0.130421" style="stroke:rgb(246,147,147);stroke-width:0.01" />
<line x1="0.213642" y1="0.00542106" x2="-0.103501" y2="0.0979211" style="stroke:rgb(246,147,147);stroke-width:0.01" />
<line x1="-0.0810011" y1="0.130421" x2="0.231499" y2="0.130421" style="stroke:rgb(246,147,147);stroke-width:0.01" />
<line x1="0.231499" y1="0.130421" x2="0.0514989" y2="0.182921" style="stroke:rgb(246,147,147);stroke-width:0.01" />
</g>
</svg>
