<svg xmlns="http://www.w3.org/2000/svg" viewBox="-1.5 -1.5 3 3">
<g transform="scale(1, -1)">
<path d="M-0.017627 -0.182848 L0.107373 -0.182848 L0.174502 -0.115719 L0.185498 0.192152 L-0.235303 0.222247 L-0.368901 0.106483 L-0.119538 0.088648 L-0.003774 -0.044950 L0.063025 0.012932 L0.107373 -0.038247 L0.107373 -0.057848 z " fill="rgb(245,195,195)" />
<path d="M0.107373 -0.307848 L1.107373 -0.307848 L1.107373 0.692152 L0.107373 0.692152  z" fill="none" stroke="rgb(128,128,128)" stroke-width="0.01" />
<line x1="0.174502" y1="-0.115719" x2="0.185498" y2="0.192152" style="stroke:rgb(246,147,147);stroke-width:0.01" />
<line x1="0.107373" y1="-0.182848" x2="0.107373" y2="0.192152" style="stroke:rgb(246,147,147);stroke-width:0.01" />
<line x1="-0.00377387" y1="-0.0449503" x2="-0.235303" y2="0.222247" style="stroke:rgb(246,147,147);stroke-width:0.01" />
<line x1="0.107373" y1="-0.182848" x2="0.174502" y2="-0.115719" style="stroke:rgb(246,147,147);stroke-width:0.01" />
<line x1="0.174502" y1="-0.115719" x2="-0.110621" y2="0.21333" style="stroke:rgb(246,147,147);stroke-width:0.01" />
<line x1="-0.0176274" y1="-0.182848" x2="0.179132" y2="0.0139108" style="stroke:rgb(246,147,147);stroke-width:0.01" />
<line x1="-0.0176274" y1="-0.182848" x2="0.107373" y2="-0.182848" style="stroke:rgb(246,147,147);stroke-width:0.01" />
<line x1="0.179132" y1="0.0139108" x2="0.0140605" y2="0.204413" style="stroke:rgb(246,147,147);stroke-width:0.01" />
<line x1="0.107373" y1="0.0671516" x2="0.183762" y2="0.14354" style="stroke:rgb(246,147,147);stroke-width:0.01" />
<line x1="-0.00377387" y1="-0.0449503" x2="0.182804" y2="0.116721" style="stroke:rgb(246,147,147);stroke-width:0.01" />
<line x1="0.183762" y1="0.14354" x2="0.138742" y2="0.195496" style="stroke:rgb(246,147,147);stroke-width:0.01" />
<line x1="0.182804" y1="0.116721" x2="0.107373" y2="0.192152" style="stroke:rgb(246,147,147);stroke-width:0.01" />
<line x1="-0.061656" y1="0.021849" x2="0.138742" y2="0.195496" style="stroke:rgb(246,147,147);stroke-width:0.01" />
<line x1="-0.119538" y1="0.0886484" x2="0.0140605" y2="0.204413" style="stroke:rgb(246,147,147);stroke-width:0.01" />
<line x1="0.107373" y1="0.0671516" x2="0.181033" y2="0.0671516" style="stroke:rgb(246,147,147);stroke-width:0.01" />
<line x1="0.181033" y1="0.0671516" x2="-0.368901" y2="0.106483" style="stroke:rgb(246,147,147);stroke-width:0.01" />
<line x1="-0.17742" y1="0.155448" x2="-0.110621" y2="0.21333" style="stroke:rgb(246,147,147);stroke-width:0.01" />
<line x1="-0.368901" y1="0.106483" x2="-0.235303" y2="0.222247" style="stroke:rgb(246,147,147);stroke-width:0.01" />
<line x1="0.107373" y1="0.192152" x2="0.185498" y2="0.192152" style="stroke:rgb(246,147,147);stroke-width:0.01" />
<line x1="0.185498" y1="0.192152" x2="-0.235303" y2="0.222247" style="stroke:rgb(246,147,147);stroke-width:0.01" />
</g>
</svg>
