<svg xmlns="http://www.w3.org/2000/svg" viewBox="-1.5 -1.5 3 3">
<g transform="scale(1, -1)">
<path d="M-0.125000 0.125000 L0.000000 0.125000 L0.067130 0.192130 L0.078125 0.500000 L-0.342675 0.530096 L-0.476274 0.414331 L-0.226911 0.396497 L-0.111146 0.262898 L-0.044347 0.320780 L0.000000 0.269601 L0.000000 0.250000 z " fill="rgb(245,195,195)" />
<path d="M0.000000 0.000000 L1.000000 0.000000 L1.000000 1.000000 L0.000000 1.000000  z" fill="none" stroke="rgb(128,128,128)" stroke-width="0.01" />
<line x1="0.0671296" y1="0.19213" x2="0.078125" y2="0.5" style="stroke:rgb(246,147,147);stroke-width:0.01" />
<line x1="0" y1="0.125" x2="0" y2="0.5" style="stroke:rgb(246,147,147);stroke-width:0.01" />
<line x1="-0.111146" y1="0.262898" x2="-0.342675" y2="0.530096" style="stroke:rgb(246,147,147);stroke-width:0.01" />
<line x1="0" y1="0.125" x2="0.0671296" y2="0.19213" style="stroke:rgb(246,147,147);stroke-width:0.01" />
<line x1="0.0671296" y1="0.19213" x2="-0.217994" y2="0.521178" style="stroke:rgb(246,147,147);stroke-width:0.01" />
<line x1="-0.125" y1="0.125" x2="0.0717593" y2="0.321759" style="stroke:rgb(246,147,147);stroke-width:0.01" />
<line x1="-0.125" y1="0.125" x2="0" y2="0.125" style="stroke:rgb(246,147,147);stroke-width:0.01" />
<line x1="0.0717593" y1="0.321759" x2="-0.0933121" y2="0.512261" style="stroke:rgb(246,147,147);stroke-width:0.01" />
<line x1="0" y1="0.375" x2="0.0763889" y2="0.451389" style="stroke:rgb(246,147,147);stroke-width:0.01" />
<line x1="-0.111146" y1="0.262898" x2="0.075431" y2="0.424569" style="stroke:rgb(246,147,147);stroke-width:0.01" />
<line x1="0.0763889" y1="0.451389" x2="0.0313694" y2="0.503344" style="stroke:rgb(246,147,147);stroke-width:0.01" />
<line x1="0.075431" y1="0.424569" x2="0" y2="0.5" style="stroke:rgb(246,147,147);stroke-width:0.01" />
<line x1="-0.169029" y1="0.329697" x2="0.0313694" y2="0.503344" style="stroke:rgb(246,147,147);stroke-width:0.01" />
<line x1="-0.226911" y1="0.396497" x2="-0.0933121" y2="0.512261" style="stroke:rgb(246,147,147);stroke-width:0.01" />
<line x1="0" y1="0.375" x2="0.0736607" y2="0.375" style="stroke:rgb(246,147,147);stroke-width:0.01" />
<line x1="0.0736607" y1="0.375" x2="-0.476274" y2="0.414331" style="stroke:rgb(246,147,147);stroke-width:0.01" />
<line x1="-0.284793" y1="0.463296" x2="-0.217994" y2="0.521178" style="stroke:rgb(246,147,147);stroke-width:0.01" />
<line x1="-0.476274" y1="0.414331" x2="-0.342675" y2="0.530096" style="stroke:rgb(246,147,147);stroke-width:0.01" />
<line x1="0" y1="0.5" x2="0.078125" y2="0.5" style="stroke:rgb(246,147,147);stroke-width:0.01" />
<line x1="0.078125" y1="0.5" x2="-0.342675" y2="0.530096" style="stroke:rgb(246,147,147);stroke-width:0.01" />
</g>
</svg>
