<svg xmlns="http://www.w3.org/2000/svg" viewBox="-1.5 -1.5 3 3">
<g transform="scale(1, -1)">
<path d="M0.006250 -0.175000 L0.131250 -0.175000 L0.193750 -0.112500 L0.193750 0.200000 L-0.243750 0.200000 L-0.368750 0.075000 L-0.118750 0.075000 L0.006250 -0.050000 L0.068750 0.012500 L0.131250 -0.050000 z " fill="rgb(245,195,195)" />
<path d="M0.131250 -0.300000 L1.131250 -0.300000 L1.131250 0.700000 L0.131250 0.700000  z" fill="none" stroke="rgb(128,128,128)" stroke-width="0.01" />
<line x1="0.13125" y1="-0.175" x2="0.13125" y2="0.2" style="stroke:rgb(246,147,147);stroke-width:0.01" />
<line x1="0.19375" y1="-0.1125" x2="0.19375" y2="0.2" style="stroke:rgb(246,147,147);stroke-width:0.01" />
<line x1="0.13125" y1="-0.175" x2="0.19375" y2="-0.1125" style="stroke:rgb(246,147,147);stroke-width:0.01" />
<line x1="0.00625" y1="-0.05" x2="-0.24375" y2="0.2" style="stroke:rgb(246,147,147);stroke-width:0.01" />
<line x1="0.00625" y1="-0.175" x2="0.19375" y2="0.0125" style="stroke:rgb(246,147,147);stroke-width:0.01" />
<line x1="0.00625" y1="-0.175" x2="0.13125" y2="-0.175" style="stroke:rgb(246,147,147);stroke-width:0.01" />
<line x1="0.19375" y1="-0.1125" x2="-0.11875" y2="0.2" style="stroke:rgb(246,147,147);stroke-width:0.01" />
<line x1="0.00625" y1="-0.05" x2="0.19375" y2="0.1375" style="stroke:rgb(246,147,147);stroke-width:0.01" />
<line x1="0.19375" y1="0.0125" x2="0.00625" y2="0.2" style="stroke:rgb(246,147,147);stroke-width:0.01" />
<line x1="-0.05625" y1="0.0125" x2="0.13125" y2="0.2" style="stroke:rgb(246,147,147);stroke-width:0.01" />
<line x1="0.19375" y1="0.1375" x2="0.13125" y2="0.2" style="stroke:rgb(246,147,147);stroke-width:0.01" />
<line x1="-0.11875" y1="0.075" x2="0.00625" y2="0.2" style="stroke:rgb(246,147,147);stroke-width:0.01" />
<line x1="-0.18125" y1="0.1375" x2="-0.11875" y2="0.2" style="stroke:rgb(246,147,147);stroke-width:0.01" />
<line x1="-0.36875" y1="0.075" x2="0.19375" y2="0.075" style="stroke:rgb(246,147,147);stroke-width:0.01" />
<line x1="-0.36875" y1="0.075" x2="-0.24375" y2="0.2" style="stroke:rgb(246,147,147);stroke-width:0.01" />
<line x1="-0.24375" y1="0.2" x2="0.19375" y2="0.2" style="stroke:rgb(246,147,147);stroke-width:0.01" />
</g>
</svg>
