<svg xmlns="http://www.w3.org/2000/svg" viewBox="-1.5 -1.5 3 3">
<g transform="scale(1, -1)">
<path d="M-0.002909 -0.195059 L0.122091 -0.195059 L0.179591 -0.137559 L0.166362 0.179941 L0.122091 0.179941 L0.122091 0.176246 L-0.287787 0.142030 L-0.401955 0.007064 L-0.152822 0.027861 L-0.017857 -0.086307 L0.039227 -0.018824 L0.111874 -0.080276 z " fill="rgb(245,195,195)" />
<path d="M0.122091 -0.320059 L1.122091 -0.320059 L1.122091 0.679941 L0.122091 0.679941  z" fill="none" stroke="rgb(128,128,128)" stroke-width="0.01" />
<line x1="0.122091" y1="-0.195059" x2="0.122091" y2="0.179941" style="stroke:rgb(246,147,147);stroke-width:0.01" />
<line x1="0.179591" y1="-0.137559" x2="0.166362" y2="0.179941" style="stroke:rgb(246,147,147);stroke-width:0.01" />
<line x1="0.122091" y1="-0.195059" x2="0.179591" y2="-0.137559" style="stroke:rgb(246,147,147);stroke-width:0.01" />
<line x1="-0.0178566" y1="-0.0863066" x2="-0.287787" y2="0.14203" style="stroke:rgb(246,147,147);stroke-width:0.01" />
<line x1="-0.00290856" y1="-0.195059" x2="0.174591" y2="-0.0175588" style="stroke:rgb(246,147,147);stroke-width:0.01" />
<line x1="-0.00290856" y1="-0.195059" x2="0.122091" y2="-0.195059" style="stroke:rgb(246,147,147);stroke-width:0.01" />
<line x1="0.179591" y1="-0.137559" x2="-0.163221" y2="0.152428" style="stroke:rgb(246,147,147);stroke-width:0.01" />
<line x1="-0.0178566" y1="-0.0863066" x2="0.168287" y2="0.133746" style="stroke:rgb(246,147,147);stroke-width:0.01" />
<line x1="0.122091" y1="0.0549412" x2="0.169591" y2="0.102441" style="stroke:rgb(246,147,147);stroke-width:0.01" />
<line x1="0.174591" y1="-0.0175588" x2="-0.0386538" y2="0.162827" style="stroke:rgb(246,147,147);stroke-width:0.01" />
<line x1="-0.0853392" y1="-0.0292226" x2="0.0859129" y2="0.173225" style="stroke:rgb(246,147,147);stroke-width:0.01" />
<line x1="0.168287" y1="0.133746" x2="0.122091" y2="0.179941" style="stroke:rgb(246,147,147);stroke-width:0.01" />
<line x1="0.169591" y1="0.102441" x2="0.0859129" y2="0.173225" style="stroke:rgb(246,147,147);stroke-width:0.01" />
<line x1="-0.152822" y1="0.0278615" x2="-0.0386538" y2="0.162827" style="stroke:rgb(246,147,147);stroke-width:0.01" />
<line x1="-0.220305" y1="0.0849455" x2="-0.163221" y2="0.152428" style="stroke:rgb(246,147,147);stroke-width:0.01" />
<line x1="-0.401955" y1="0.00706424" x2="0.171571" y2="0.0549412" style="stroke:rgb(246,147,147);stroke-width:0.01" />
<line x1="0.122091" y1="0.0549412" x2="0.171571" y2="0.0549412" style="stroke:rgb(246,147,147);stroke-width:0.01" />
<line x1="-0.401955" y1="0.00706424" x2="-0.287787" y2="0.14203" style="stroke:rgb(246,147,147);stroke-width:0.01" />
<line x1="-0.287787" y1="0.14203" x2="0.166362" y2="0.179941" style="stroke:rgb(246,147,147);stroke-width:0.01" />
<line x1="0.122091" y1="0.179941" x2="0.166362" y2="0.179941" style="stroke:rgb(246,147,147);stroke-width:0.01" />
</g>
</svg>
