<svg xmlns="http://www.w3.org/2000/svg" viewBox="-1.5 -1.5 3 3">
<g transform="scale(1, -1)">
<path d="M-296156728.826433 1369866560.265127 L-296156728.691083 1369866560.475318 L-296156728.728503 1369866560.648089 L-296156728.833599 1369866560.715764 L-296156729.006369 1369866560.678344 L-296156729.074045 1369866560.573248 L-296156729.036624 1369866560.400478 z M-296156728.863853 1369866560.437898 L-296156728.968949 1369866560.505573 L-296156728.901274 1369866560.610669 L-296156728.796178 1369866560.542994 z " fill="rgb(245,195,195)" />
<path d="M0.000000 0.000000 L1.000000 0.000000 L1.000000 1.000000 L0.000000 1.000000  z" fill="none" stroke="rgb(128,128,128)" stroke-width="0.01" />
<line x1="-2.96157e+08" y1="1.36987e+09" x2="-2.96157e+08" y2="1.36987e+09" style="stroke:rgb(246,147,147);stroke-width:0.01" />
<line x1="-2.96157e+08" y1="1.36987e+09" x2="-2.96157e+08" y2="1.36987e+09" style="stroke:rgb(246,147,147);stroke-width:0.01" />
<line x1="-2.96157e+08" y1="1.36987e+09" x2="-2.96157e+08" y2="1.36987e+09" style="stroke:rgb(246,147,147);stroke-width:0.01" />
<line x1="-2.96157e+08" y1="1.36987e+09" x2="-2.96157e+08" y2="1.36987e+09" style="stroke:rgb(246,147,147);stroke-width:0.01" />
<line x1="-2.96157e+08" y1="1.36987e+09" x2="-2.96157e+08" y2="1.36987e+09" style="stroke:rgb(246,147,147);stroke-width:0.01" />
<line x1="-2.96157e+08" y1="1.36987e+09" x2="-2.96157e+08" y2="1.36987e+09" style="stroke:rgb(246,147,147);stroke-width:0.01" />
<line x1="-2.96157e+08" y1="1.36987e+09" x2="-2.96157e+08" y2="1.36987e+09" style="stroke:rgb(246,147,147);stroke-width:0.01" />
<line x1="-2.96157e+08" y1="1.36987e+09" x2="-2.96157e+08" y2="1.36987e+09" style="stroke:rgb(246,147,147);stroke-width:0.01" />
<line x1="-2.96157e+08" y1="1.36987e+09" x2="-2.96157e+08" y2="1.36987e+09" style="stroke:rgb(246,147,147);stroke-width:0.01" />
<line x1="-2.96157e+08" y1="1.36987e+09" x2="-2.96157e+08" y2="1.36987e+09" style="stroke:rgb(246,147,147);stroke-width:0.01" />
<line x1="-2.96157e+08" y1="1.36987e+09" x2="-2.96157e+08" y2="1.36987e+09" style="stroke:rgb(246,147,147);stroke-width:0.01" />
</g>
</svg>
