<svg xmlns="http://www.w3.org/2000/svg" viewBox="-1.5 -1.5 3 3">
<g transform="scale(1, -1)">
<path d="M0.057831 -0.267009 L0.193182 -0.056818 L0.155761 0.115953 L0.050666 0.183628 L-0.122105 0.146207 L-0.189780 0.041112 L-0.152360 -0.131659 z M0.020411 -0.094239 L-0.084684 -0.026563 L-0.017009 0.078532 L0.088086 0.010857 z " fill="rgb(245,195,195)" />
<path d="M296156728.884265 -1369866560.532136 L296156729.884265 -1369866560.532136 L296156729.884265 -1369866559.532136 L296156728.884265 -1369866559.532136  z" fill="none" stroke="rgb(128,128,128)" stroke-width="0.01" />
<line x1="-0.15236" y1="-0.131659" x2="-0.18978" y2="0.0411118" style="stroke:rgb(246,147,147);stroke-width:0.01" />
<line x1="0.193182" y1="-0.0568182" x2="0.155761" y2="0.115953" style="stroke:rgb(246,147,147);stroke-width:0.01" />
<line x1="0.0578315" y1="-0.267009" x2="0.193182" y2="-0.0568182" style="stroke:rgb(246,147,147);stroke-width:0.01" />
<line x1="0.0204111" y1="-0.0942386" x2="0.155761" y2="0.115953" style="stroke:rgb(246,147,147);stroke-width:0.01" />
<line x1="-0.15236" y1="-0.131659" x2="0.0506659" y2="0.183628" style="stroke:rgb(246,147,147);stroke-width:0.01" />
<line x1="-0.18978" y1="0.0411118" x2="-0.122105" y2="0.146207" style="stroke:rgb(246,147,147);stroke-width:0.01" />
<line x1="0.0578315" y1="-0.267009" x2="-0.15236" y2="-0.131659" style="stroke:rgb(246,147,147);stroke-width:0.01" />
<line x1="0.125507" y1="-0.161914" x2="-0.18978" y2="0.0411118" style="stroke:rgb(246,147,147);stroke-width:0.01" />
<line x1="0.193182" y1="-0.0568182" x2="-0.122105" y2="0.146207" style="stroke:rgb(246,147,147);stroke-width:0.01" />
<line x1="0.155761" y1="0.115953" x2="0.0506659" y2="0.183628" style="stroke:rgb(246,147,147);stroke-width:0.01" />
<line x1="-0.122105" y1="0.146207" x2="0.0506659" y2="0.183628" style="stroke:rgb(246,147,147);stroke-width:0.01" />
</g>
</svg>
