<svg xmlns="http://www.w3.org/2000/svg" viewBox="-1.5 -1.5 3 3">
<g transform="scale(1, -1)">
<path d="M0.123263 -0.243813 L0.201266 -0.006293 L0.121508 0.151468 L0.002748 0.190469 L-0.155013 0.110711 L-0.194015 -0.008049 L-0.114257 -0.165810 z M0.043504 -0.086052 L-0.075255 -0.047050 L-0.036254 0.071710 L0.082506 0.032708 z " fill="rgb(245,195,195)" />
<path d="M-1272569355.143313 95148593.308839 L-1272569354.143313 95148593.308839 L-1272569354.143313 95148594.308839 L-1272569355.143313 95148594.308839  z" fill="none" stroke="rgb(128,128,128)" stroke-width="0.01" />
<line x1="-0.155013" y1="0.110711" x2="0.00274784" y2="0.190469" style="stroke:rgb(246,147,147);stroke-width:0.01" />
<line x1="0.123263" y1="-0.243813" x2="0.201266" y2="-0.00629343" style="stroke:rgb(246,147,147);stroke-width:0.01" />
<line x1="0.0435045" y1="-0.0860516" x2="0.121508" y2="0.151468" style="stroke:rgb(246,147,147);stroke-width:0.01" />
<line x1="-0.114257" y1="-0.16581" x2="0.00274784" y2="0.190469" style="stroke:rgb(246,147,147);stroke-width:0.01" />
<line x1="-0.194015" y1="-0.0080485" x2="-0.155013" y2="0.110711" style="stroke:rgb(246,147,147);stroke-width:0.01" />
<line x1="0.123263" y1="-0.243813" x2="-0.114257" y2="-0.16581" style="stroke:rgb(246,147,147);stroke-width:0.01" />
<line x1="0.162264" y1="-0.125053" x2="-0.194015" y2="-0.0080485" style="stroke:rgb(246,147,147);stroke-width:0.01" />
<line x1="0.201266" y1="-0.00629343" x2="-0.155013" y2="0.110711" style="stroke:rgb(246,147,147);stroke-width:0.01" />
<line x1="0.121508" y1="0.151468" x2="0.00274784" y2="0.190469" style="stroke:rgb(246,147,147);stroke-width:0.01" />
<line x1="-0.114257" y1="-0.16581" x2="-0.194015" y2="-0.0080485" style="stroke:rgb(246,147,147);stroke-width:0.01" />
<line x1="0.201266" y1="-0.00629343" x2="0.121508" y2="0.151468" style="stroke:rgb(246,147,147);stroke-width:0.01" />
</g>
</svg>
