<svg xmlns="http://www.w3.org/2000/svg" viewBox="-1.5 -1.5 3 3">
<g transform="scale(1, -1)">
<path d="M1272569355.266576 -95148593.552652 L1272569355.344579 -95148593.315133 L1272569355.264821 -95148593.157371 L1272569355.146061 -95148593.118370 L1272569354.988299 -95148593.198128 L1272569354.949298 -95148593.316888 L1272569355.029056 -95148593.474649 z M1272569355.186817 -95148593.394891 L1272569355.068058 -95148593.355889 L1272569355.107059 -95148593.237129 L1272569355.225819 -95148593.276131 z " fill="rgb(245,195,195)" />
<path d="M0.000000 0.000000 L1.000000 0.000000 L1.000000 1.000000 L0.000000 1.000000  z" fill="none" stroke="rgb(128,128,128)" stroke-width="0.01" />
<line x1="1.27257e+09" y1="-9.51486e+07" x2="1.27257e+09" y2="-9.51486e+07" style="stroke:rgb(246,147,147);stroke-width:0.01" />
<line x1="1.27257e+09" y1="-9.51486e+07" x2="1.27257e+09" y2="-9.51486e+07" style="stroke:rgb(246,147,147);stroke-width:0.01" />
<line x1="1.27257e+09" y1="-9.51486e+07" x2="1.27257e+09" y2="-9.51486e+07" style="stroke:rgb(246,147,147);stroke-width:0.01" />
<line x1="1.27257e+09" y1="-9.51486e+07" x2="1.27257e+09" y2="-9.51486e+07" style="stroke:rgb(246,147,147);stroke-width:0.01" />
<line x1="1.27257e+09" y1="-9.51486e+07" x2="1.27257e+09" y2="-9.51486e+07" style="stroke:rgb(246,147,147);stroke-width:0.01" />
<line x1="1.27257e+09" y1="-9.51486e+07" x2="1.27257e+09" y2="-9.51486e+07" style="stroke:rgb(246,147,147);stroke-width:0.01" />
<line x1="1.27257e+09" y1="-9.51486e+07" x2="1.27257e+09" y2="-9.51486e+07" style="stroke:rgb(246,147,147);stroke-width:0.01" />
<line x1="1.27257e+09" y1="-9.51486e+07" x2="1.27257e+09" y2="-9.51486e+07" style="stroke:rgb(246,147,147);stroke-width:0.01" />
<line x1="1.27257e+09" y1="-9.51486e+07" x2="1.27257e+09" y2="-9.51486e+07" style="stroke:rgb(246,147,147);stroke-width:0.01" />
<line x1="1.27257e+09" y1="-9.51486e+07" x2="1.27257e+09" y2="-9.51486e+07" style="stroke:rgb(246,147,147);stroke-width:0.01" />
<line x1="1.27257e+09" y1="-9.51486e+07" x2="1.27257e+09" y2="-9.51486e+07" style="stroke:rgb(246,147,147);stroke-width:0.01" />
</g>
</svg>
