<svg xmlns="http://www.w3.org/2000/svg" viewBox="-1.5 -1.5 3 3">
<g transform="scale(1, -1)">
<path d="M1045358629.750000 1309405115.875000 L1045358629.900000 1309405116.075000 L1045358629.875000 1309405116.250000 L1045358629.775000 1309405116.325000 L1045358629.600000 1309405116.300000 L1045358629.525000 1309405116.200000 L1045358629.550000 1309405116.025000 z M1045358629.725000 1309405116.050000 L1045358629.625000 1309405116.125000 L1045358629.700000 1309405116.225000 L1045358629.800000 1309405116.150000 z " fill="rgb(245,195,195)" />
<path d="M0.000000 0.000000 L1.000000 0.000000 L1.000000 1.000000 L0.000000 1.000000  z" fill="none" stroke="rgb(128,128,128)" stroke-width="0.01" />
<line x1="1.04536e+09" y1="1.30941e+09" x2="1.04536e+09" y2="1.30941e+09" style="stroke:rgb(246,147,147);stroke-width:0.01" />
<line x1="1.04536e+09" y1="1.30941e+09" x2="1.04536e+09" y2="1.30941e+09" style="stroke:rgb(246,147,147);stroke-width:0.01" />
<line x1="1.04536e+09" y1="1.30941e+09" x2="1.04536e+09" y2="1.30941e+09" style="stroke:rgb(246,147,147);stroke-width:0.01" />
<line x1="1.04536e+09" y1="1.30941e+09" x2="1.04536e+09" y2="1.30941e+09" style="stroke:rgb(246,147,147);stroke-width:0.01" />
<line x1="1.04536e+09" y1="1.30941e+09" x2="1.04536e+09" y2="1.30941e+09" style="stroke:rgb(246,147,147);stroke-width:0.01" />
<line x1="1.04536e+09" y1="1.30941e+09" x2="1.04536e+09" y2="1.30941e+09" style="stroke:rgb(246,147,147);stroke-width:0.01" />
<line x1="1.04536e+09" y1="1.30941e+09" x2="1.04536e+09" y2="1.30941e+09" style="stroke:rgb(246,147,147);stroke-width:0.01" />
<line x1="1.04536e+09" y1="1.30941e+09" x2="1.04536e+09" y2="1.30941e+09" style="stroke:rgb(246,147,147);stroke-width:0.01" />
<line x1="1.04536e+09" y1="1.30941e+09" x2="1.04536e+09" y2="1.30941e+09" style="stroke:rgb(246,147,147);stroke-width:0.01" />
<line x1="1.04536e+09" y1="1.30941e+09" x2="1.04536e+09" y2="1.30941e+09" style="stroke:rgb(246,147,147);stroke-width:0.01" />
<line x1="1.04536e+09" y1="1.30941e+09" x2="1.04536e+09" y2="1.30941e+09" style="stroke:rgb(246,147,147);stroke-width:0.01" />
</g>
</svg>
