<svg xmlns="http://www.w3.org/2000/svg" viewBox="-1.5 -1.5 3 3">
<g transform="scale(1, -1)">
<path d="M0.038636 -0.270455 L0.188636 -0.070455 L0.163636 0.104545 L0.063636 0.179545 L-0.111364 0.154545 L-0.186364 0.054545 L-0.161364 -0.120455 z M0.013636 -0.095455 L-0.086364 -0.020455 L-0.011364 0.079545 L0.088636 0.004545 z " fill="rgb(245,195,195)" />
<path d="M-1045358629.711364 -1309405116.145454 L-1045358628.711364 -1309405116.145454 L-1045358628.711364 -1309405115.145454 L-1045358629.711364 -1309405115.145454  z" fill="none" stroke="rgb(128,128,128)" stroke-width="0.01" />
<line x1="0.0386364" y1="-0.270455" x2="0.188636" y2="-0.0704545" style="stroke:rgb(246,147,147);stroke-width:0.01" />
<line x1="0.0136364" y1="-0.0954545" x2="0.163636" y2="0.104545" style="stroke:rgb(246,147,147);stroke-width:0.01" />
<line x1="-0.161364" y1="-0.120455" x2="0.0636364" y2="0.179545" style="stroke:rgb(246,147,147);stroke-width:0.01" />
<line x1="-0.186364" y1="0.0545455" x2="-0.111364" y2="0.154545" style="stroke:rgb(246,147,147);stroke-width:0.01" />
<line x1="-0.161364" y1="-0.120455" x2="-0.186364" y2="0.0545455" style="stroke:rgb(246,147,147);stroke-width:0.01" />
<line x1="0.188636" y1="-0.0704545" x2="0.163636" y2="0.104545" style="stroke:rgb(246,147,147);stroke-width:0.01" />
<line x1="-0.111364" y1="0.154545" x2="0.0636364" y2="0.179545" style="stroke:rgb(246,147,147);stroke-width:0.01" />
<line x1="0.0386364" y1="-0.270455" x2="-0.161364" y2="-0.120455" style="stroke:rgb(246,147,147);stroke-width:0.01" />
<line x1="0.113636" y1="-0.170455" x2="-0.186364" y2="0.0545455" style="stroke:rgb(246,147,147);stroke-width:0.01" />
<line x1="0.188636" y1="-0.0704545" x2="-0.111364" y2="0.154545" style="stroke:rgb(246,147,147);stroke-width:0.01" />
<line x1="0.163636" y1="0.104545" x2="0.0636364" y2="0.179545" style="stroke:rgb(246,147,147);stroke-width:0.01" />
</g>
</svg>
