<svg xmlns="http://www.w3.org/2000/svg" viewBox="-1.5 -1.5 3 3">
<g transform="scale(1, -1)">
<path d="M0.031110 -0.271423 L0.186607 -0.075666 L0.166477 0.099961 L0.068598 0.177709 L-0.107029 0.157579 L-0.184777 0.059700 L-0.164647 -0.115927 z M0.010980 -0.095796 L-0.086898 -0.018048 L-0.009150 0.079830 L0.088728 0.002082 z " fill="rgb(245,195,195)" />
<path d="M-2048822889.362573 952533589.258350 L-2048822888.362573 952533589.258350 L-2048822888.362573 952533590.258350 L-2048822889.362573 952533590.258350  z" fill="none" stroke="rgb(128,128,128)" stroke-width="0.01" />
<line x1="0.0311103" y1="-0.271423" x2="0.186607" y2="-0.0756663" style="stroke:rgb(246,147,147);stroke-width:0.01" />
<line x1="0.0109801" y1="-0.0957964" x2="0.166477" y2="0.0999606" style="stroke:rgb(246,147,147);stroke-width:0.01" />
<line x1="-0.164647" y1="-0.115927" x2="0.0685982" y2="0.177709" style="stroke:rgb(246,147,147);stroke-width:0.01" />
<line x1="-0.184777" y1="0.0597002" x2="-0.107029" y2="0.157579" style="stroke:rgb(246,147,147);stroke-width:0.01" />
<line x1="-0.107029" y1="0.157579" x2="0.0685982" y2="0.177709" style="stroke:rgb(246,147,147);stroke-width:0.01" />
<line x1="-0.164647" y1="-0.115927" x2="-0.184777" y2="0.0597002" style="stroke:rgb(246,147,147);stroke-width:0.01" />
<line x1="0.186607" y1="-0.0756663" x2="0.166477" y2="0.0999606" style="stroke:rgb(246,147,147);stroke-width:0.01" />
<line x1="0.0311103" y1="-0.271423" x2="-0.164647" y2="-0.115927" style="stroke:rgb(246,147,147);stroke-width:0.01" />
<line x1="0.108859" y1="-0.173545" x2="-0.184777" y2="0.0597002" style="stroke:rgb(246,147,147);stroke-width:0.01" />
<line x1="0.186607" y1="-0.0756663" x2="-0.107029" y2="0.157579" style="stroke:rgb(246,147,147);stroke-width:0.01" />
<line x1="0.166477" y1="0.0999606" x2="0.0685982" y2="0.177709" style="stroke:rgb(246,147,147);stroke-width:0.01" />
</g>
</svg>
