<svg xmlns="http://www.w3.org/2000/svg" viewBox="-1.5 -1.5 3 3">
<g transform="scale(1, -1)">
<path d="M2048822889.393684 -952533589.529773 L2048822889.549180 -952533589.334016 L2048822889.529050 -952533589.158390 L2048822889.431171 -952533589.080641 L2048822889.255545 -952533589.100771 L2048822889.177796 -952533589.198650 L2048822889.197927 -952533589.374277 z M2048822889.373554 -952533589.354146 L2048822889.275675 -952533589.276398 L2048822889.353423 -952533589.178520 L2048822889.451302 -952533589.256268 z " fill="rgb(245,195,195)" />
<path d="M0.000000 0.000000 L1.000000 0.000000 L1.000000 1.000000 L0.000000 1.000000  z" fill="none" stroke="rgb(128,128,128)" stroke-width="0.01" />
<line x1="2.04882e+09" y1="-9.52534e+08" x2="2.04882e+09" y2="-9.52534e+08" style="stroke:rgb(246,147,147);stroke-width:0.01" />
<line x1="2.04882e+09" y1="-9.52534e+08" x2="2.04882e+09" y2="-9.52534e+08" style="stroke:rgb(246,147,147);stroke-width:0.01" />
<line x1="2.04882e+09" y1="-9.52534e+08" x2="2.04882e+09" y2="-9.52534e+08" style="stroke:rgb(246,147,147);stroke-width:0.01" />
<line x1="2.04882e+09" y1="-9.52534e+08" x2="2.04882e+09" y2="-9.52534e+08" style="stroke:rgb(246,147,147);stroke-width:0.01" />
<line x1="2.04882e+09" y1="-9.52534e+08" x2="2.04882e+09" y2="-9.52534e+08" style="stroke:rgb(246,147,147);stroke-width:0.01" />
<line x1="2.04882e+09" y1="-9.52534e+08" x2="2.04882e+09" y2="-9.52534e+08" style="stroke:rgb(246,147,147);stroke-width:0.01" />
<line x1="2.04882e+09" y1="-9.52534e+08" x2="2.04882e+09" y2="-9.52534e+08" style="stroke:rgb(246,147,147);stroke-width:0.01" />
<line x1="2.04882e+09" y1="-9.52534e+08" x2="2.04882e+09" y2="-9.52534e+08" style="stroke:rgb(246,147,147);stroke-width:0.01" />
<line x1="2.04882e+09" y1="-9.52534e+08" x2="2.04882e+09" y2="-9.52534e+08" style="stroke:rgb(246,147,147);stroke-width:0.01" />
<line x1="2.04882e+09" y1="-9.52534e+08" x2="2.04882e+09" y2="-9.52534e+08" style="stroke:rgb(246,147,147);stroke-width:0.01" />
<line x1="2.04882e+09" y1="-9.52534e+08" x2="2.04882e+09" y2="-9.52534e+08" style="stroke:rgb(246,147,147);stroke-width:0.01" />
</g>
</svg>
