<svg xmlns="http://www.w3.org/2000/svg" viewBox="-1.5 -1.5 3 3">
<g transform="scale(1, -1)">
<path d="M868119631.750000 734165477.875000 L868119631.900000 734165478.075000 L868119631.875000 734165478.250000 L868119631.775000 734165478.325000 L868119631.600000 734165478.300000 L868119631.525000 734165478.200000 L868119631.550000 734165478.025000 z M868119631.725000 734165478.050000 L868119631.625000 734165478.125000 L868119631.700000 734165478.225000 L868119631.800000 734165478.150000 z " fill="rgb(245,195,195)" />
<path d="M0.000000 0.000000 L1.000000 0.000000 L1.000000 1.000000 L0.000000 1.000000  z" fill="none" stroke="rgb(128,128,128)" stroke-width="0.01" />
<line x1="8.6812e+08" y1="7.34165e+08" x2="8.6812e+08" y2="7.34165e+08" style="stroke:rgb(246,147,147);stroke-width:0.01" />
<line x1="8.6812e+08" y1="7.34165e+08" x2="8.6812e+08" y2="7.34165e+08" style="stroke:rgb(246,147,147);stroke-width:0.01" />
<line x1="8.6812e+08" y1="7.34165e+08" x2="8.6812e+08" y2="7.34165e+08" style="stroke:rgb(246,147,147);stroke-width:0.01" />
<line x1="8.6812e+08" y1="7.34165e+08" x2="8.6812e+08" y2="7.34165e+08" style="stroke:rgb(246,147,147);stroke-width:0.01" />
<line x1="8.6812e+08" y1="7.34165e+08" x2="8.6812e+08" y2="7.34165e+08" style="stroke:rgb(246,147,147);stroke-width:0.01" />
<line x1="8.6812e+08" y1="7.34165e+08" x2="8.6812e+08" y2="7.34165e+08" style="stroke:rgb(246,147,147);stroke-width:0.01" />
<line x1="8.6812e+08" y1="7.34165e+08" x2="8.6812e+08" y2="7.34165e+08" style="stroke:rgb(246,147,147);stroke-width:0.01" />
<line x1="8.6812e+08" y1="7.34165e+08" x2="8.6812e+08" y2="7.34165e+08" style="stroke:rgb(246,147,147);stroke-width:0.01" />
<line x1="8.6812e+08" y1="7.34165e+08" x2="8.6812e+08" y2="7.34165e+08" style="stroke:rgb(246,147,147);stroke-width:0.01" />
<line x1="8.6812e+08" y1="7.34165e+08" x2="8.6812e+08" y2="7.34165e+08" style="stroke:rgb(246,147,147);stroke-width:0.01" />
<line x1="8.6812e+08" y1="7.34165e+08" x2="8.6812e+08" y2="7.34165e+08" style="stroke:rgb(246,147,147);stroke-width:0.01" />
</g>
</svg>
