<svg xmlns="http://www.w3.org/2000/svg" viewBox="-1.5 -1.5 3 3">
<g transform="scale(1, -1)">
<path d="M0.114762 -0.247927 L0.200928 -0.013246 L0.126670 0.147178 L0.009329 0.190261 L-0.151094 0.116003 L-0.194177 -0.001338 L-0.119919 -0.161762 z M0.040504 -0.087504 L-0.076836 -0.044421 L-0.033754 0.072920 L0.083587 0.029837 z " fill="rgb(245,195,195)" />
<path d="M-1910788014.566365 -800597136.032394 L-1910788013.566365 -800597136.032394 L-1910788013.566365 -800597135.032394 L-1910788014.566365 -800597135.032394  z" fill="none" stroke="rgb(128,128,128)" stroke-width="0.01" />
<line x1="0.114762" y1="-0.247927" x2="0.200928" y2="-0.0132458" style="stroke:rgb(246,147,147);stroke-width:0.01" />
<line x1="0.0405044" y1="-0.0875038" x2="0.12667" y2="0.147178" style="stroke:rgb(246,147,147);stroke-width:0.01" />
<line x1="-0.119919" y1="-0.161762" x2="0.00932917" y2="0.190261" style="stroke:rgb(246,147,147);stroke-width:0.01" />
<line x1="-0.194177" y1="-0.00133818" x2="-0.151094" y2="0.116003" style="stroke:rgb(246,147,147);stroke-width:0.01" />
<line x1="-0.151094" y1="0.116003" x2="0.00932917" y2="0.190261" style="stroke:rgb(246,147,147);stroke-width:0.01" />
<line x1="-0.119919" y1="-0.161762" x2="-0.194177" y2="-0.00133818" style="stroke:rgb(246,147,147);stroke-width:0.01" />
<line x1="0.200928" y1="-0.0132458" x2="0.12667" y2="0.147178" style="stroke:rgb(246,147,147);stroke-width:0.01" />
<line x1="0.114762" y1="-0.247927" x2="-0.119919" y2="-0.161762" style="stroke:rgb(246,147,147);stroke-width:0.01" />
<line x1="0.157845" y1="-0.130587" x2="-0.194177" y2="-0.00133818" style="stroke:rgb(246,147,147);stroke-width:0.01" />
<line x1="0.200928" y1="-0.0132458" x2="-0.151094" y2="0.116003" style="stroke:rgb(246,147,147);stroke-width:0.01" />
<line x1="0.12667" y1="0.147178" x2="0.00932917" y2="0.190261" style="stroke:rgb(246,147,147);stroke-width:0.01" />
</g>
</svg>
