<svg xmlns="http://www.w3.org/2000/svg" viewBox="-1.5 -1.5 3 3">
<g transform="scale(1, -1)">
<path d="M1910788014.681127 800597135.784466 L1910788014.767293 800597136.019148 L1910788014.693035 800597136.179572 L1910788014.575694 800597136.222654 L1910788014.415270 800597136.148396 L1910788014.372188 800597136.031055 L1910788014.446445 800597135.870632 z M1910788014.606869 800597135.944890 L1910788014.489528 800597135.987973 L1910788014.532611 800597136.105314 L1910788014.649952 800597136.062231 z " fill="rgb(245,195,195)" />
<path d="M0.000000 0.000000 L1.000000 0.000000 L1.000000 1.000000 L0.000000 1.000000  z" fill="none" stroke="rgb(128,128,128)" stroke-width="0.01" />
<line x1="1.91079e+09" y1="8.00597e+08" x2="1.91079e+09" y2="8.00597e+08" style="stroke:rgb(246,147,147);stroke-width:0.01" />
<line x1="1.91079e+09" y1="8.00597e+08" x2="1.91079e+09" y2="8.00597e+08" style="stroke:rgb(246,147,147);stroke-width:0.01" />
<line x1="1.91079e+09" y1="8.00597e+08" x2="1.91079e+09" y2="8.00597e+08" style="stroke:rgb(246,147,147);stroke-width:0.01" />
<line x1="1.91079e+09" y1="8.00597e+08" x2="1.91079e+09" y2="8.00597e+08" style="stroke:rgb(246,147,147);stroke-width:0.01" />
<line x1="1.91079e+09" y1="8.00597e+08" x2="1.91079e+09" y2="8.00597e+08" style="stroke:rgb(246,147,147);stroke-width:0.01" />
<line x1="1.91079e+09" y1="8.00597e+08" x2="1.91079e+09" y2="8.00597e+08" style="stroke:rgb(246,147,147);stroke-width:0.01" />
<line x1="1.91079e+09" y1="8.00597e+08" x2="1.91079e+09" y2="8.00597e+08" style="stroke:rgb(246,147,147);stroke-width:0.01" />
<line x1="1.91079e+09" y1="8.00597e+08" x2="1.91079e+09" y2="8.00597e+08" style="stroke:rgb(246,147,147);stroke-width:0.01" />
<line x1="1.91079e+09" y1="8.00597e+08" x2="1.91079e+09" y2="8.00597e+08" style="stroke:rgb(246,147,147);stroke-width:0.01" />
<line x1="1.91079e+09" y1="8.00597e+08" x2="1.91079e+09" y2="8.00597e+08" style="stroke:rgb(246,147,147);stroke-width:0.01" />
<line x1="1.91079e+09" y1="8.00597e+08" x2="1.91079e+09" y2="8.00597e+08" style="stroke:rgb(246,147,147);stroke-width:0.01" />
</g>
</svg>
