<svg xmlns="http://www.w3.org/2000/svg" viewBox="-1.5 -1.5 3 3">
<g transform="scale(1, -1)">
<path d="M-349602175.694343 1506428230.684306 L-349602175.533759 1506428230.875912 L-349602175.549270 1506428231.052007 L-349602175.645073 1506428231.132299 L-349602175.821168 1506428231.116788 L-349602175.901460 1506428231.020985 L-349602175.885949 1506428230.844890 z M-349602175.709854 1506428230.860401 L-349602175.805657 1506428230.940693 L-349602175.725365 1506428231.036496 L-349602175.629562 1506428230.956204 z " fill="rgb(245,195,195)" />
<path d="M0.000000 0.000000 L1.000000 0.000000 L1.000000 1.000000 L0.000000 1.000000  z" fill="none" stroke="rgb(128,128,128)" stroke-width="0.01" />
<line x1="-3.49602e+08" y1="1.50643e+09" x2="-3.49602e+08" y2="1.50643e+09" style="stroke:rgb(246,147,147);stroke-width:0.01" />
<line x1="-3.49602e+08" y1="1.50643e+09" x2="-3.49602e+08" y2="1.50643e+09" style="stroke:rgb(246,147,147);stroke-width:0.01" />
<line x1="-3.49602e+08" y1="1.50643e+09" x2="-3.49602e+08" y2="1.50643e+09" style="stroke:rgb(246,147,147);stroke-width:0.01" />
<line x1="-3.49602e+08" y1="1.50643e+09" x2="-3.49602e+08" y2="1.50643e+09" style="stroke:rgb(246,147,147);stroke-width:0.01" />
<line x1="-3.49602e+08" y1="1.50643e+09" x2="-3.49602e+08" y2="1.50643e+09" style="stroke:rgb(246,147,147);stroke-width:0.01" />
<line x1="-3.49602e+08" y1="1.50643e+09" x2="-3.49602e+08" y2="1.50643e+09" style="stroke:rgb(246,147,147);stroke-width:0.01" />
<line x1="-3.49602e+08" y1="1.50643e+09" x2="-3.49602e+08" y2="1.50643e+09" style="stroke:rgb(246,147,147);stroke-width:0.01" />
<line x1="-3.49602e+08" y1="1.50643e+09" x2="-3.49602e+08" y2="1.50643e+09" style="stroke:rgb(246,147,147);stroke-width:0.01" />
<line x1="-3.49602e+08" y1="1.50643e+09" x2="-3.49602e+08" y2="1.50643e+09" style="stroke:rgb(246,147,147);stroke-width:0.01" />
<line x1="-3.49602e+08" y1="1.50643e+09" x2="-3.49602e+08" y2="1.50643e+09" style="stroke:rgb(246,147,147);stroke-width:0.01" />
<line x1="-3.49602e+08" y1="1.50643e+09" x2="-3.49602e+08" y2="1.50643e+09" style="stroke:rgb(246,147,147);stroke-width:0.01" />
</g>
</svg>
