<svg xmlns="http://www.w3.org/2000/svg" viewBox="-1.5 -1.5 3 3">
<g transform="scale(1, -1)">
<path d="M924132653.750000 1909754321.875000 L924132653.900000 1909754322.075000 L924132653.875000 1909754322.250000 L924132653.775000 1909754322.325000 L924132653.600000 1909754322.300000 L924132653.525000 1909754322.200000 L924132653.550000 1909754322.025000 z M924132653.725000 1909754322.050000 L924132653.625000 1909754322.125000 L924132653.700000 1909754322.225000 L924132653.800000 1909754322.150000 z " fill="rgb(245,195,195)" />
<path d="M0.000000 0.000000 L1.000000 0.000000 L1.000000 1.000000 L0.000000 1.000000  z" fill="none" stroke="rgb(128,128,128)" stroke-width="0.01" />
<line x1="9.24133e+08" y1="1.90975e+09" x2="9.24133e+08" y2="1.90975e+09" style="stroke:rgb(246,147,147);stroke-width:0.01" />
<line x1="9.24133e+08" y1="1.90975e+09" x2="9.24133e+08" y2="1.90975e+09" style="stroke:rgb(246,147,147);stroke-width:0.01" />
<line x1="9.24133e+08" y1="1.90975e+09" x2="9.24133e+08" y2="1.90975e+09" style="stroke:rgb(246,147,147);stroke-width:0.01" />
<line x1="9.24133e+08" y1="1.90975e+09" x2="9.24133e+08" y2="1.90975e+09" style="stroke:rgb(246,147,147);stroke-width:0.01" />
<line x1="9.24133e+08" y1="1.90975e+09" x2="9.24133e+08" y2="1.90975e+09" style="stroke:rgb(246,147,147);stroke-width:0.01" />
<line x1="9.24133e+08" y1="1.90975e+09" x2="9.24133e+08" y2="1.90975e+09" style="stroke:rgb(246,147,147);stroke-width:0.01" />
<line x1="9.24133e+08" y1="1.90975e+09" x2="9.24133e+08" y2="1.90975e+09" style="stroke:rgb(246,147,147);stroke-width:0.01" />
<line x1="9.24133e+08" y1="1.90975e+09" x2="9.24133e+08" y2="1.90975e+09" style="stroke:rgb(246,147,147);stroke-width:0.01" />
<line x1="9.24133e+08" y1="1.90975e+09" x2="9.24133e+08" y2="1.90975e+09" style="stroke:rgb(246,147,147);stroke-width:0.01" />
<line x1="9.24133e+08" y1="1.90975e+09" x2="9.24133e+08" y2="1.90975e+09" style="stroke:rgb(246,147,147);stroke-width:0.01" />
<line x1="9.24133e+08" y1="1.90975e+09" x2="9.24133e+08" y2="1.90975e+09" style="stroke:rgb(246,147,147);stroke-width:0.01" />
</g>
</svg>
