<svg xmlns="http://www.w3.org/2000/svg" viewBox="-1.5 -1.5 3 3">
<g transform="scale(1, -1)">
<path d="M0.023971 -0.272147 L0.184555 -0.080541 L0.169044 0.095554 L0.073242 0.175846 L-0.102853 0.160335 L-0.183145 0.064532 L-0.167634 -0.111563 z M0.008461 -0.096052 L-0.087342 -0.015760 L-0.007050 0.080043 L0.088752 -0.000249 z " fill="rgb(245,195,195)" />
<path d="M-1831840291.967817 -191845849.343315 L-1831840290.967817 -191845849.343315 L-1831840290.967817 -191845848.343315 L-1831840291.967817 -191845848.343315  z" fill="none" stroke="rgb(128,128,128)" stroke-width="0.01" />
<line x1="0.0239715" y1="-0.272147" x2="0.184555" y2="-0.0805408" style="stroke:rgb(246,147,147);stroke-width:0.01" />
<line x1="0.00846052" y1="-0.0960518" x2="0.169044" y2="0.0955541" style="stroke:rgb(246,147,147);stroke-width:0.01" />
<line x1="-0.167634" y1="-0.111563" x2="0.0732415" y2="0.175846" style="stroke:rgb(246,147,147);stroke-width:0.01" />
<line x1="-0.183145" y1="0.0645322" x2="-0.102853" y2="0.160335" style="stroke:rgb(246,147,147);stroke-width:0.01" />
<line x1="-0.102853" y1="0.160335" x2="0.0732415" y2="0.175846" style="stroke:rgb(246,147,147);stroke-width:0.01" />
<line x1="-0.167634" y1="-0.111563" x2="-0.183145" y2="0.0645322" style="stroke:rgb(246,147,147);stroke-width:0.01" />
<line x1="0.184555" y1="-0.0805408" x2="0.169044" y2="0.0955541" style="stroke:rgb(246,147,147);stroke-width:0.01" />
<line x1="0.0239715" y1="-0.272147" x2="-0.167634" y2="-0.111563" style="stroke:rgb(246,147,147);stroke-width:0.01" />
<line x1="0.104263" y1="-0.176344" x2="-0.183145" y2="0.0645322" style="stroke:rgb(246,147,147);stroke-width:0.01" />
<line x1="0.184555" y1="-0.0805408" x2="-0.102853" y2="0.160335" style="stroke:rgb(246,147,147);stroke-width:0.01" />
<line x1="0.169044" y1="0.0955541" x2="0.0732415" y2="0.175846" style="stroke:rgb(246,147,147);stroke-width:0.01" />
</g>
</svg>
