<svg xmlns="http://www.w3.org/2000/svg" viewBox="-1.5 -1.5 3 3">
<g transform="scale(1, -1)">
<path d="M0.146064 -0.230876 L0.200942 0.013027 L0.106430 0.162417 L-0.015521 0.189856 L-0.164911 0.095344 L-0.192350 -0.026608 L-0.097838 -0.175998 z M0.051552 -0.081486 L-0.070399 -0.054047 L-0.042960 0.067905 L0.078991 0.040466 z " fill="rgb(245,195,195)" />
<path d="M-1861756597.725887 1771260745.546563 L-1861756596.725887 1771260745.546563 L-1861756596.725887 1771260746.546563 L-1861756597.725887 1771260746.546563  z" fill="none" stroke="rgb(128,128,128)" stroke-width="0.01" />
<line x1="-0.164911" y1="0.0953437" x2="-0.0155211" y2="0.189856" style="stroke:rgb(246,147,147);stroke-width:0.01" />
<line x1="0.146064" y1="-0.230876" x2="-0.0978381" y2="-0.175998" style="stroke:rgb(246,147,147);stroke-width:0.01" />
<line x1="0.173503" y1="-0.108925" x2="-0.19235" y2="-0.0266075" style="stroke:rgb(246,147,147);stroke-width:0.01" />
<line x1="0.200942" y1="0.0130266" x2="-0.164911" y2="0.0953437" style="stroke:rgb(246,147,147);stroke-width:0.01" />
<line x1="0.10643" y1="0.162417" x2="-0.0155211" y2="0.189856" style="stroke:rgb(246,147,147);stroke-width:0.01" />
<line x1="0.146064" y1="-0.230876" x2="0.200942" y2="0.0130266" style="stroke:rgb(246,147,147);stroke-width:0.01" />
<line x1="0.0515521" y1="-0.0814856" x2="0.10643" y2="0.162417" style="stroke:rgb(246,147,147);stroke-width:0.01" />
<line x1="-0.0978381" y1="-0.175998" x2="-0.0155211" y2="0.189856" style="stroke:rgb(246,147,147);stroke-width:0.01" />
<line x1="-0.19235" y1="-0.0266075" x2="-0.164911" y2="0.0953437" style="stroke:rgb(246,147,147);stroke-width:0.01" />
<line x1="-0.0978381" y1="-0.175998" x2="-0.19235" y2="-0.0266075" style="stroke:rgb(246,147,147);stroke-width:0.01" />
<line x1="0.200942" y1="0.0130266" x2="0.10643" y2="0.162417" style="stroke:rgb(246,147,147);stroke-width:0.01" />
</g>
</svg>
