<svg xmlns="http://www.w3.org/2000/svg" viewBox="-1.5 -1.5 3 3">
<g transform="scale(1, -1)">
<path d="M0.104021 -0.252622 L0.200175 -0.021853 L0.132867 0.141608 L0.017483 0.189685 L-0.145979 0.122378 L-0.194056 0.006993 L-0.126748 -0.156469 z M0.036713 -0.089161 L-0.078671 -0.041084 L-0.030594 0.074301 L0.084790 0.026224 z " fill="rgb(245,195,195)" />
<path d="M-1064342756.915210 -594860450.223776 L-1064342755.915210 -594860450.223776 L-1064342755.915210 -594860449.223776 L-1064342756.915210 -594860449.223776  z" fill="none" stroke="rgb(128,128,128)" stroke-width="0.01" />
<line x1="0.104021" y1="-0.252622" x2="0.200175" y2="-0.0218531" style="stroke:rgb(246,147,147);stroke-width:0.01" />
<line x1="0.0367133" y1="-0.0891608" x2="0.132867" y2="0.141608" style="stroke:rgb(246,147,147);stroke-width:0.01" />
<line x1="-0.126748" y1="-0.156469" x2="0.0174825" y2="0.189685" style="stroke:rgb(246,147,147);stroke-width:0.01" />
<line x1="-0.194056" y1="0.00699301" x2="-0.145979" y2="0.122378" style="stroke:rgb(246,147,147);stroke-width:0.01" />
<line x1="-0.145979" y1="0.122378" x2="0.0174825" y2="0.189685" style="stroke:rgb(246,147,147);stroke-width:0.01" />
<line x1="-0.126748" y1="-0.156469" x2="-0.194056" y2="0.00699301" style="stroke:rgb(246,147,147);stroke-width:0.01" />
<line x1="0.200175" y1="-0.0218531" x2="0.132867" y2="0.141608" style="stroke:rgb(246,147,147);stroke-width:0.01" />
<line x1="0.104021" y1="-0.252622" x2="-0.126748" y2="-0.156469" style="stroke:rgb(246,147,147);stroke-width:0.01" />
<line x1="0.152098" y1="-0.137238" x2="-0.194056" y2="0.00699301" style="stroke:rgb(246,147,147);stroke-width:0.01" />
<line x1="0.200175" y1="-0.0218531" x2="-0.145979" y2="0.122378" style="stroke:rgb(246,147,147);stroke-width:0.01" />
<line x1="0.132867" y1="0.141608" x2="0.0174825" y2="0.189685" style="stroke:rgb(246,147,147);stroke-width:0.01" />
</g>
</svg>
