<svg xmlns="http://www.w3.org/2000/svg" viewBox="-1.5 -1.5 3 3">
<g transform="scale(1, -1)">
<path d="M0.112818 -0.248818 L0.200818 -0.014818 L0.127818 0.146182 L0.010818 0.190182 L-0.150182 0.117182 L-0.194182 0.000182 L-0.121182 -0.160818 z M0.039818 -0.087818 L-0.077182 -0.043818 L-0.033182 0.073182 L0.083818 0.029182 z " fill="rgb(245,195,195)" />
<path d="M-3043942361.826181 457008326.149182 L-3043942360.826181 457008326.149182 L-3043942360.826181 457008327.149182 L-3043942361.826181 457008327.149182  z" fill="none" stroke="rgb(128,128,128)" stroke-width="0.01" />
<line x1="-0.150182" y1="0.117182" x2="0.0108182" y2="0.190182" style="stroke:rgb(246,147,147);stroke-width:0.01" />
<line x1="0.112818" y1="-0.248818" x2="0.200818" y2="-0.0148182" style="stroke:rgb(246,147,147);stroke-width:0.01" />
<line x1="0.0398182" y1="-0.0878182" x2="0.127818" y2="0.146182" style="stroke:rgb(246,147,147);stroke-width:0.01" />
<line x1="-0.121182" y1="-0.160818" x2="0.0108182" y2="0.190182" style="stroke:rgb(246,147,147);stroke-width:0.01" />
<line x1="-0.194182" y1="0.000181818" x2="-0.150182" y2="0.117182" style="stroke:rgb(246,147,147);stroke-width:0.01" />
<line x1="0.112818" y1="-0.248818" x2="-0.121182" y2="-0.160818" style="stroke:rgb(246,147,147);stroke-width:0.01" />
<line x1="0.156818" y1="-0.131818" x2="-0.194182" y2="0.000181818" style="stroke:rgb(246,147,147);stroke-width:0.01" />
<line x1="0.200818" y1="-0.0148182" x2="-0.150182" y2="0.117182" style="stroke:rgb(246,147,147);stroke-width:0.01" />
<line x1="0.127818" y1="0.146182" x2="0.0108182" y2="0.190182" style="stroke:rgb(246,147,147);stroke-width:0.01" />
<line x1="-0.121182" y1="-0.160818" x2="-0.194182" y2="0.000181818" style="stroke:rgb(246,147,147);stroke-width:0.01" />
<line x1="0.200818" y1="-0.0148182" x2="0.127818" y2="0.146182" style="stroke:rgb(246,147,147);stroke-width:0.01" />
</g>
</svg>
