<svg xmlns="http://www.w3.org/2000/svg" viewBox="-1.5 -1.5 3 3">
<g transform="scale(1, -1)">
<path d="M0.155179 -0.224851 L0.200261 0.021051 L0.099851 0.166542 L-0.023100 0.189083 L-0.168592 0.088674 L-0.191133 -0.034277 L-0.090723 -0.179769 z M0.054769 -0.079359 L-0.068182 -0.056818 L-0.045641 0.066133 L0.077310 0.043592 z " fill="rgb(245,195,195)" />
<path d="M-2505084661.316133 -191750028.034277 L-2505084660.316133 -191750028.034277 L-2505084660.316133 -191750027.034277 L-2505084661.316133 -191750027.034277  z" fill="none" stroke="rgb(128,128,128)" stroke-width="0.01" />
<line x1="-0.168592" y1="0.0886736" x2="-0.0230999" y2="0.189083" style="stroke:rgb(246,147,147);stroke-width:0.01" />
<line x1="0.155179" y1="-0.224851" x2="0.200261" y2="0.0210507" style="stroke:rgb(246,147,147);stroke-width:0.01" />
<line x1="0.054769" y1="-0.0793592" x2="0.099851" y2="0.166542" style="stroke:rgb(246,147,147);stroke-width:0.01" />
<line x1="-0.0907228" y1="-0.179769" x2="-0.0230999" y2="0.189083" style="stroke:rgb(246,147,147);stroke-width:0.01" />
<line x1="-0.191133" y1="-0.0342772" x2="-0.168592" y2="0.0886736" style="stroke:rgb(246,147,147);stroke-width:0.01" />
<line x1="0.155179" y1="-0.224851" x2="-0.0907228" y2="-0.179769" style="stroke:rgb(246,147,147);stroke-width:0.01" />
<line x1="0.17772" y1="-0.1019" x2="-0.191133" y2="-0.0342772" style="stroke:rgb(246,147,147);stroke-width:0.01" />
<line x1="0.200261" y1="0.0210507" x2="-0.168592" y2="0.0886736" style="stroke:rgb(246,147,147);stroke-width:0.01" />
<line x1="0.099851" y1="0.166542" x2="-0.0230999" y2="0.189083" style="stroke:rgb(246,147,147);stroke-width:0.01" />
<line x1="-0.0907228" y1="-0.179769" x2="-0.191133" y2="-0.0342772" style="stroke:rgb(246,147,147);stroke-width:0.01" />
<line x1="0.200261" y1="0.0210507" x2="0.099851" y2="0.166542" style="stroke:rgb(246,147,147);stroke-width:0.01" />
</g>
</svg>
