<svg xmlns="http://www.w3.org/2000/svg" viewBox="-1.5 -1.5 3 3">
<g transform="scale(1, -1)">
<path d="M0.310662 -0.413603 L0.545956 0.027574 L-0.115809 0.380515 L-0.233456 0.159926 L-0.123162 0.101103 L-0.181985 -0.009191 L-0.071691 -0.068015 L-0.130515 -0.178309 z " fill="rgb(245,195,195)" />
<path d="M-0.454044 -0.472426 L0.545956 -0.472426 L0.545956 0.527574 L-0.454044 0.527574  z" fill="none" stroke="rgb(128,128,128)" stroke-width="0.01" />
<line x1="0.310662" y1="-0.413603" x2="0.545956" y2="0.0275735" style="stroke:rgb(246,147,147);stroke-width:0.01" />
<line x1="0.0900735" y1="-0.295956" x2="0.148897" y2="-0.185662" style="stroke:rgb(246,147,147);stroke-width:0.01" />
<line x1="0.207721" y1="-0.0753676" x2="0.325368" y2="0.145221" style="stroke:rgb(246,147,147);stroke-width:0.01" />
<line x1="-0.130515" y1="-0.178309" x2="0.104779" y2="0.262868" style="stroke:rgb(246,147,147);stroke-width:0.01" />
<line x1="-0.181985" y1="-0.00919118" x2="-0.00551471" y2="0.321691" style="stroke:rgb(246,147,147);stroke-width:0.01" />
<line x1="0.0900735" y1="-0.295956" x2="0.428309" y2="-0.193015" style="stroke:rgb(246,147,147);stroke-width:0.01" />
<line x1="-0.233456" y1="0.159926" x2="-0.115809" y2="0.380515" style="stroke:rgb(246,147,147);stroke-width:0.01" />
<line x1="0.0900735" y1="-0.295956" x2="-0.115809" y2="0.380515" style="stroke:rgb(246,147,147);stroke-width:0.01" />
<line x1="-0.130515" y1="-0.178309" x2="0.545956" y2="0.0275735" style="stroke:rgb(246,147,147);stroke-width:0.01" />
<line x1="0.148897" y1="-0.185662" x2="-0.00551471" y2="0.321691" style="stroke:rgb(246,147,147);stroke-width:0.01" />
<line x1="0.428309" y1="-0.193015" x2="0.325368" y2="0.145221" style="stroke:rgb(246,147,147);stroke-width:0.01" />
<line x1="-0.0128676" y1="0.0422794" x2="0.325368" y2="0.145221" style="stroke:rgb(246,147,147);stroke-width:0.01" />
<line x1="0.310662" y1="-0.413603" x2="-0.130515" y2="-0.178309" style="stroke:rgb(246,147,147);stroke-width:0.01" />
<line x1="0.148897" y1="-0.185662" x2="-0.181985" y2="-0.00919118" style="stroke:rgb(246,147,147);stroke-width:0.01" />
<line x1="0.428309" y1="-0.193015" x2="-0.233456" y2="0.159926" style="stroke:rgb(246,147,147);stroke-width:0.01" />
<line x1="0.0459559" y1="0.152574" x2="-0.0643382" y2="0.211397" style="stroke:rgb(246,147,147);stroke-width:0.01" />
<line x1="0.545956" y1="0.0275735" x2="-0.115809" y2="0.380515" style="stroke:rgb(246,147,147);stroke-width:0.01" />
</g>
</svg>
