<svg xmlns="http://www.w3.org/2000/svg" viewBox="-1.5 -1.5 3 3">
<g transform="scale(1, -1)">
<path d="M0.528736 0.011494 L0.890805 0.356322 L0.373563 0.899425 L0.192529 0.727011 L0.278736 0.636494 L0.188218 0.550287 L0.274425 0.459770 L0.183908 0.373563 z " fill="rgb(245,195,195)" />
<path d="M0.000000 0.000000 L1.000000 0.000000 L1.000000 1.000000 L0.000000 1.000000  z" fill="none" stroke="rgb(128,128,128)" stroke-width="0.01" />
<line x1="0.528736" y1="0.0114943" x2="0.890805" y2="0.356322" style="stroke:rgb(246,147,147);stroke-width:0.01" />
<line x1="0.356322" y1="0.192529" x2="0.446839" y2="0.278736" style="stroke:rgb(246,147,147);stroke-width:0.01" />
<line x1="0.537356" y1="0.364943" x2="0.718391" y2="0.537356" style="stroke:rgb(246,147,147);stroke-width:0.01" />
<line x1="0.70977" y1="0.183908" x2="0.718391" y2="0.537356" style="stroke:rgb(246,147,147);stroke-width:0.01" />
<line x1="0.446839" y1="0.278736" x2="0.45977" y2="0.808908" style="stroke:rgb(246,147,147);stroke-width:0.01" />
<line x1="0.356322" y1="0.192529" x2="0.373563" y2="0.899425" style="stroke:rgb(246,147,147);stroke-width:0.01" />
<line x1="0.183908" y1="0.373563" x2="0.545977" y2="0.718391" style="stroke:rgb(246,147,147);stroke-width:0.01" />
<line x1="0.188218" y1="0.550287" x2="0.45977" y2="0.808908" style="stroke:rgb(246,147,147);stroke-width:0.01" />
<line x1="0.70977" y1="0.183908" x2="0.356322" y2="0.192529" style="stroke:rgb(246,147,147);stroke-width:0.01" />
<line x1="0.528736" y1="0.0114943" x2="0.183908" y2="0.373563" style="stroke:rgb(246,147,147);stroke-width:0.01" />
<line x1="0.192529" y1="0.727011" x2="0.373563" y2="0.899425" style="stroke:rgb(246,147,147);stroke-width:0.01" />
<line x1="0.446839" y1="0.278736" x2="0.188218" y2="0.550287" style="stroke:rgb(246,147,147);stroke-width:0.01" />
<line x1="0.890805" y1="0.356322" x2="0.183908" y2="0.373563" style="stroke:rgb(246,147,147);stroke-width:0.01" />
<line x1="0.70977" y1="0.183908" x2="0.192529" y2="0.727011" style="stroke:rgb(246,147,147);stroke-width:0.01" />
<line x1="0.45546" y1="0.632184" x2="0.369253" y2="0.722701" style="stroke:rgb(246,147,147);stroke-width:0.01" />
<line x1="0.718391" y1="0.537356" x2="0.364943" y2="0.545977" style="stroke:rgb(246,147,147);stroke-width:0.01" />
<line x1="0.890805" y1="0.356322" x2="0.373563" y2="0.899425" style="stroke:rgb(246,147,147);stroke-width:0.01" />
</g>
</svg>
