<svg xmlns="http://www.w3.org/2000/svg" viewBox="-1.5 -1.5 3 3">
<g transform="scale(1, -1)">
<path d="M0.164871 -0.490302 L0.526940 -0.145474 L0.009698 0.397629 L-0.171336 0.225216 L-0.085129 0.134698 L-0.175647 0.048491 L-0.089440 -0.042026 L-0.179957 -0.128233 z " fill="rgb(245,195,195)" />
<path d="M-0.363865 -0.501796 L0.636135 -0.501796 L0.636135 0.498204 L-0.363865 0.498204  z" fill="none" stroke="rgb(128,128,128)" stroke-width="0.01" />
<line x1="0.164871" y1="-0.490302" x2="0.52694" y2="-0.145474" style="stroke:rgb(246,147,147);stroke-width:0.01" />
<line x1="-0.0075431" y1="-0.309267" x2="0.0829741" y2="-0.22306" style="stroke:rgb(246,147,147);stroke-width:0.01" />
<line x1="0.173491" y1="-0.136853" x2="0.354526" y2="0.0355603" style="stroke:rgb(246,147,147);stroke-width:0.01" />
<line x1="0.345905" y1="-0.317888" x2="0.354526" y2="0.0355603" style="stroke:rgb(246,147,147);stroke-width:0.01" />
<line x1="0.0829741" y1="-0.22306" x2="0.0959052" y2="0.307112" style="stroke:rgb(246,147,147);stroke-width:0.01" />
<line x1="-0.0075431" y1="-0.309267" x2="0.00969828" y2="0.397629" style="stroke:rgb(246,147,147);stroke-width:0.01" />
<line x1="-0.179957" y1="-0.128233" x2="0.182112" y2="0.216595" style="stroke:rgb(246,147,147);stroke-width:0.01" />
<line x1="-0.175647" y1="0.0484914" x2="0.0959052" y2="0.307112" style="stroke:rgb(246,147,147);stroke-width:0.01" />
<line x1="0.345905" y1="-0.317888" x2="-0.0075431" y2="-0.309267" style="stroke:rgb(246,147,147);stroke-width:0.01" />
<line x1="0.164871" y1="-0.490302" x2="-0.179957" y2="-0.128233" style="stroke:rgb(246,147,147);stroke-width:0.01" />
<line x1="-0.171336" y1="0.225216" x2="0.00969828" y2="0.397629" style="stroke:rgb(246,147,147);stroke-width:0.01" />
<line x1="0.0829741" y1="-0.22306" x2="-0.175647" y2="0.0484914" style="stroke:rgb(246,147,147);stroke-width:0.01" />
<line x1="0.52694" y1="-0.145474" x2="-0.179957" y2="-0.128233" style="stroke:rgb(246,147,147);stroke-width:0.01" />
<line x1="0.345905" y1="-0.317888" x2="-0.171336" y2="0.225216" style="stroke:rgb(246,147,147);stroke-width:0.01" />
<line x1="0.0915948" y1="0.130388" x2="0.00538793" y2="0.220905" style="stroke:rgb(246,147,147);stroke-width:0.01" />
<line x1="0.354526" y1="0.0355603" x2="0.00107759" y2="0.044181" style="stroke:rgb(246,147,147);stroke-width:0.01" />
<line x1="0.52694" y1="-0.145474" x2="0.00969828" y2="0.397629" style="stroke:rgb(246,147,147);stroke-width:0.01" />
</g>
</svg>
