<svg xmlns="http://www.w3.org/2000/svg" viewBox="-1.5 -1.5 3 3">
<g transform="scale(1, -1)">
<path d="M-0.141817 -0.540729 L0.034583 -0.529201 L0.446765 -0.059381 L0.540729 -0.141817 L0.529201 0.034583 L0.059381 0.446765 L0.141817 0.540729 L-0.034583 0.529201 L-0.446765 0.059381 L-0.540729 0.141817 L-0.529201 -0.034583 L-0.059381 -0.446765 z " fill="rgb(245,195,195)" />
<path d="M0.705602 0.046111 L1.705602 0.046111 L1.705602 1.046111 L0.705602 1.046111  z" fill="none" stroke="rgb(128,128,128)" stroke-width="0.01" />
<line x1="0.0345835" y1="-0.529201" x2="-0.529201" y2="-0.0345835" style="stroke:rgb(246,147,147);stroke-width:0.01" />
<line x1="0.0230556" y1="-0.352801" x2="-0.540729" y2="0.141817" style="stroke:rgb(246,147,147);stroke-width:0.01" />
<line x1="-0.141817" y1="-0.540729" x2="0.0345835" y2="-0.529201" style="stroke:rgb(246,147,147);stroke-width:0.01" />
<line x1="0.540729" y1="-0.141817" x2="-0.0230556" y2="0.352801" style="stroke:rgb(246,147,147);stroke-width:0.01" />
<line x1="0.529201" y1="0.0345835" x2="-0.0345835" y2="0.529201" style="stroke:rgb(246,147,147);stroke-width:0.01" />
<line x1="-0.529201" y1="-0.0345835" x2="-0.540729" y2="0.141817" style="stroke:rgb(246,147,147);stroke-width:0.01" />
<line x1="0.0345835" y1="-0.529201" x2="0.0230556" y2="-0.352801" style="stroke:rgb(246,147,147);stroke-width:0.01" />
<line x1="-0.0230556" y1="0.352801" x2="-0.0345835" y2="0.529201" style="stroke:rgb(246,147,147);stroke-width:0.01" />
<line x1="0.540729" y1="-0.141817" x2="0.529201" y2="0.0345835" style="stroke:rgb(246,147,147);stroke-width:0.01" />
<line x1="-0.529201" y1="-0.0345835" x2="-0.352801" y2="-0.0230556" style="stroke:rgb(246,147,147);stroke-width:0.01" />
<line x1="0.352801" y1="0.0230556" x2="0.529201" y2="0.0345835" style="stroke:rgb(246,147,147);stroke-width:0.01" />
<line x1="0.0345835" y1="-0.529201" x2="0.529201" y2="0.0345835" style="stroke:rgb(246,147,147);stroke-width:0.01" />
<line x1="-0.141817" y1="-0.540729" x2="0.352801" y2="0.0230556" style="stroke:rgb(246,147,147);stroke-width:0.01" />
<line x1="-0.352801" y1="-0.0230556" x2="0.141817" y2="0.540729" style="stroke:rgb(246,147,147);stroke-width:0.01" />
<line x1="-0.0345835" y1="0.529201" x2="0.141817" y2="0.540729" style="stroke:rgb(246,147,147);stroke-width:0.01" />
<line x1="-0.529201" y1="-0.0345835" x2="-0.0345835" y2="0.529201" style="stroke:rgb(246,147,147);stroke-width:0.01" />
</g>
</svg>
