<svg xmlns="http://www.w3.org/2000/svg" viewBox="-1.5 -1.5 3 3">
<g transform="scale(1, -1)">
<path d="M-0.847419 -0.586840 L-0.671018 -0.575313 L-0.258837 -0.105492 L-0.164873 -0.187928 L-0.176400 -0.011528 L-0.646221 0.400654 L-0.563785 0.494618 L-0.740185 0.483090 L-1.152367 0.013269 L-1.246331 0.095706 L-1.234803 -0.080695 L-0.764982 -0.492876 z " fill="rgb(245,195,195)" />
<path d="M0.000000 0.000000 L1.000000 0.000000 L1.000000 1.000000 L0.000000 1.000000  z" fill="none" stroke="rgb(128,128,128)" stroke-width="0.01" />
<line x1="-0.671018" y1="-0.575313" x2="-1.2348" y2="-0.0806947" style="stroke:rgb(246,147,147);stroke-width:0.01" />
<line x1="-0.682546" y1="-0.398912" x2="-1.24633" y2="0.0957057" style="stroke:rgb(246,147,147);stroke-width:0.01" />
<line x1="-0.847419" y1="-0.58684" x2="-0.671018" y2="-0.575313" style="stroke:rgb(246,147,147);stroke-width:0.01" />
<line x1="-0.164873" y1="-0.187928" x2="-0.728657" y2="0.30669" style="stroke:rgb(246,147,147);stroke-width:0.01" />
<line x1="-0.1764" y1="-0.0115278" x2="-0.740185" y2="0.48309" style="stroke:rgb(246,147,147);stroke-width:0.01" />
<line x1="-1.2348" y1="-0.0806947" x2="-1.24633" y2="0.0957057" style="stroke:rgb(246,147,147);stroke-width:0.01" />
<line x1="-0.671018" y1="-0.575313" x2="-0.682546" y2="-0.398912" style="stroke:rgb(246,147,147);stroke-width:0.01" />
<line x1="-0.728657" y1="0.30669" x2="-0.740185" y2="0.48309" style="stroke:rgb(246,147,147);stroke-width:0.01" />
<line x1="-0.164873" y1="-0.187928" x2="-0.1764" y2="-0.0115278" style="stroke:rgb(246,147,147);stroke-width:0.01" />
<line x1="-1.2348" y1="-0.0806947" x2="-1.0584" y2="-0.0691669" style="stroke:rgb(246,147,147);stroke-width:0.01" />
<line x1="-0.352801" y1="-0.0230556" x2="-0.1764" y2="-0.0115278" style="stroke:rgb(246,147,147);stroke-width:0.01" />
<line x1="-0.671018" y1="-0.575313" x2="-0.1764" y2="-0.0115278" style="stroke:rgb(246,147,147);stroke-width:0.01" />
<line x1="-0.847419" y1="-0.58684" x2="-0.352801" y2="-0.0230556" style="stroke:rgb(246,147,147);stroke-width:0.01" />
<line x1="-1.0584" y1="-0.0691669" x2="-0.563785" y2="0.494618" style="stroke:rgb(246,147,147);stroke-width:0.01" />
<line x1="-0.740185" y1="0.48309" x2="-0.563785" y2="0.494618" style="stroke:rgb(246,147,147);stroke-width:0.01" />
<line x1="-1.2348" y1="-0.0806947" x2="-0.740185" y2="0.48309" style="stroke:rgb(246,147,147);stroke-width:0.01" />
</g>
</svg>
