<svg xmlns="http://www.w3.org/2000/svg" viewBox="-1.5 -1.5 3 3">
<g transform="scale(1, -1)">
<path d="M-0.707286 -0.749831 L-0.537112 -0.701969 L-0.231331 -0.156880 L-0.122313 -0.218036 L-0.170174 -0.047862 L-0.715264 0.257920 L-0.654108 0.366938 L-0.824282 0.319076 L-1.130063 -0.226014 L-1.239081 -0.164857 L-1.191220 -0.335031 L-0.646130 -0.640813 z " fill="rgb(245,195,195)" />
<path d="M0.000000 0.000000 L1.000000 0.000000 L1.000000 1.000000 L0.000000 1.000000  z" fill="none" stroke="rgb(128,128,128)" stroke-width="0.01" />
<line x1="-0.537112" y1="-0.701969" x2="-1.19122" y2="-0.335031" style="stroke:rgb(246,147,147);stroke-width:0.01" />
<line x1="-0.584974" y1="-0.531795" x2="-1.23908" y2="-0.164857" style="stroke:rgb(246,147,147);stroke-width:0.01" />
<line x1="-0.707286" y1="-0.749831" x2="-0.537112" y2="-0.701969" style="stroke:rgb(246,147,147);stroke-width:0.01" />
<line x1="-1.19122" y1="-0.335031" x2="-1.23908" y2="-0.164857" style="stroke:rgb(246,147,147);stroke-width:0.01" />
<line x1="-0.122313" y1="-0.218036" x2="-0.77642" y2="0.148902" style="stroke:rgb(246,147,147);stroke-width:0.01" />
<line x1="-0.537112" y1="-0.701969" x2="-0.584974" y2="-0.531795" style="stroke:rgb(246,147,147);stroke-width:0.01" />
<line x1="-0.77642" y1="0.148902" x2="-0.824282" y2="0.319076" style="stroke:rgb(246,147,147);stroke-width:0.01" />
<line x1="-0.170174" y1="-0.0478616" x2="-0.824282" y2="0.319076" style="stroke:rgb(246,147,147);stroke-width:0.01" />
<line x1="-0.122313" y1="-0.218036" x2="-0.170174" y2="-0.0478616" style="stroke:rgb(246,147,147);stroke-width:0.01" />
<line x1="-1.19122" y1="-0.335031" x2="-1.02105" y2="-0.28717" style="stroke:rgb(246,147,147);stroke-width:0.01" />
<line x1="-0.340348" y1="-0.0957233" x2="-0.170174" y2="-0.0478616" style="stroke:rgb(246,147,147);stroke-width:0.01" />
<line x1="-0.537112" y1="-0.701969" x2="-0.170174" y2="-0.0478616" style="stroke:rgb(246,147,147);stroke-width:0.01" />
<line x1="-0.707286" y1="-0.749831" x2="-0.340348" y2="-0.0957233" style="stroke:rgb(246,147,147);stroke-width:0.01" />
<line x1="-1.02105" y1="-0.28717" x2="-0.654108" y2="0.366938" style="stroke:rgb(246,147,147);stroke-width:0.01" />
<line x1="-1.19122" y1="-0.335031" x2="-0.824282" y2="0.319076" style="stroke:rgb(246,147,147);stroke-width:0.01" />
<line x1="-0.824282" y1="0.319076" x2="-0.654108" y2="0.366938" style="stroke:rgb(246,147,147);stroke-width:0.01" />
</g>
</svg>
