<svg xmlns="http://www.w3.org/2000/svg" viewBox="-1.5 -1.5 3 3">
<g transform="scale(1, -1)">
<path d="M-0.026589 -0.558384 L0.143585 -0.510523 L0.449366 0.034567 L0.558384 -0.026589 L0.510523 0.143585 L-0.034567 0.449366 L0.026589 0.558384 L-0.143585 0.510523 L-0.449366 -0.034567 L-0.558384 0.026589 L-0.510523 -0.143585 L0.034567 -0.449366 z " fill="rgb(245,195,195)" />
<path d="M0.680697 0.191447 L1.680697 0.191447 L1.680697 1.191447 L0.680697 1.191447  z" fill="none" stroke="rgb(128,128,128)" stroke-width="0.01" />
<line x1="0.143585" y1="-0.510523" x2="-0.510523" y2="-0.143585" style="stroke:rgb(246,147,147);stroke-width:0.01" />
<line x1="0.0957233" y1="-0.340348" x2="-0.558384" y2="0.0265893" style="stroke:rgb(246,147,147);stroke-width:0.01" />
<line x1="-0.0265893" y1="-0.558384" x2="0.143585" y2="-0.510523" style="stroke:rgb(246,147,147);stroke-width:0.01" />
<line x1="-0.510523" y1="-0.143585" x2="-0.558384" y2="0.0265893" style="stroke:rgb(246,147,147);stroke-width:0.01" />
<line x1="0.558384" y1="-0.0265893" x2="-0.0957233" y2="0.340348" style="stroke:rgb(246,147,147);stroke-width:0.01" />
<line x1="0.143585" y1="-0.510523" x2="0.0957233" y2="-0.340348" style="stroke:rgb(246,147,147);stroke-width:0.01" />
<line x1="-0.0957233" y1="0.340348" x2="-0.143585" y2="0.510523" style="stroke:rgb(246,147,147);stroke-width:0.01" />
<line x1="0.510523" y1="0.143585" x2="-0.143585" y2="0.510523" style="stroke:rgb(246,147,147);stroke-width:0.01" />
<line x1="0.558384" y1="-0.0265893" x2="0.510523" y2="0.143585" style="stroke:rgb(246,147,147);stroke-width:0.01" />
<line x1="-0.510523" y1="-0.143585" x2="-0.340348" y2="-0.0957233" style="stroke:rgb(246,147,147);stroke-width:0.01" />
<line x1="0.340348" y1="0.0957233" x2="0.510523" y2="0.143585" style="stroke:rgb(246,147,147);stroke-width:0.01" />
<line x1="0.143585" y1="-0.510523" x2="0.510523" y2="0.143585" style="stroke:rgb(246,147,147);stroke-width:0.01" />
<line x1="-0.0265893" y1="-0.558384" x2="0.340348" y2="0.0957233" style="stroke:rgb(246,147,147);stroke-width:0.01" />
<line x1="-0.340348" y1="-0.0957233" x2="0.0265893" y2="0.558384" style="stroke:rgb(246,147,147);stroke-width:0.01" />
<line x1="-0.510523" y1="-0.143585" x2="-0.143585" y2="0.510523" style="stroke:rgb(246,147,147);stroke-width:0.01" />
<line x1="-0.143585" y1="0.510523" x2="0.0265893" y2="0.558384" style="stroke:rgb(246,147,147);stroke-width:0.01" />
</g>
</svg>
