<svg xmlns="http://www.w3.org/2000/svg" viewBox="-1.5 -1.5 3 3">
<g transform="scale(1, -1)">
<path d="M-0.241726 0.063786 L-0.088970 0.152756 L0.070494 0.757070 L0.191357 0.725178 L0.102386 0.877933 L-0.501928 1.037397 L-0.470035 1.158260 L-0.622791 1.069290 L-0.782255 0.464975 L-0.903118 0.496868 L-0.814148 0.344112 L-0.209833 0.184648 z " fill="rgb(245,195,195)" />
<path d="M0.000000 0.000000 L1.000000 0.000000 L1.000000 1.000000 L0.000000 1.000000  z" fill="none" stroke="rgb(128,128,128)" stroke-width="0.01" />
<line x1="-0.814148" y1="0.344112" x2="-0.903118" y2="0.496868" style="stroke:rgb(246,147,147);stroke-width:0.01" />
<line x1="-0.0889702" y1="0.152756" x2="-0.17794" y2="0.305511" style="stroke:rgb(246,147,147);stroke-width:0.01" />
<line x1="-0.533821" y1="0.916534" x2="-0.622791" y2="1.06929" style="stroke:rgb(246,147,147);stroke-width:0.01" />
<line x1="-0.0889702" y1="0.152756" x2="0.102386" y2="0.877933" style="stroke:rgb(246,147,147);stroke-width:0.01" />
<line x1="-0.241726" y1="0.0637856" x2="-0.0503692" y2="0.788963" style="stroke:rgb(246,147,147);stroke-width:0.01" />
<line x1="-0.0889702" y1="0.152756" x2="-0.814148" y2="0.344112" style="stroke:rgb(246,147,147);stroke-width:0.01" />
<line x1="-0.241726" y1="0.0637856" x2="-0.0889702" y2="0.152756" style="stroke:rgb(246,147,147);stroke-width:0.01" />
<line x1="-0.661392" y1="0.433083" x2="-0.470035" y2="1.15826" style="stroke:rgb(246,147,147);stroke-width:0.01" />
<line x1="-0.814148" y1="0.344112" x2="-0.622791" y2="1.06929" style="stroke:rgb(246,147,147);stroke-width:0.01" />
<line x1="-0.17794" y1="0.305511" x2="-0.903118" y2="0.496868" style="stroke:rgb(246,147,147);stroke-width:0.01" />
<line x1="0.191357" y1="0.725178" x2="0.102386" y2="0.877933" style="stroke:rgb(246,147,147);stroke-width:0.01" />
<line x1="-0.814148" y1="0.344112" x2="-0.661392" y2="0.433083" style="stroke:rgb(246,147,147);stroke-width:0.01" />
<line x1="-0.0503692" y1="0.788963" x2="0.102386" y2="0.877933" style="stroke:rgb(246,147,147);stroke-width:0.01" />
<line x1="0.191357" y1="0.725178" x2="-0.533821" y2="0.916534" style="stroke:rgb(246,147,147);stroke-width:0.01" />
<line x1="0.102386" y1="0.877933" x2="-0.622791" y2="1.06929" style="stroke:rgb(246,147,147);stroke-width:0.01" />
<line x1="-0.622791" y1="1.06929" x2="-0.470035" y2="1.15826" style="stroke:rgb(246,147,147);stroke-width:0.01" />
</g>
</svg>
