<svg xmlns="http://www.w3.org/2000/svg" viewBox="-1.5 -1.5 3 3">
<g transform="scale(1, -1)">
<path d="M0.114155 -0.547237 L0.266911 -0.458267 L0.426374 0.146048 L0.547237 0.114155 L0.458267 0.266911 L-0.146048 0.426374 L-0.114155 0.547237 L-0.266911 0.458267 L-0.426374 -0.146048 L-0.547237 -0.114155 L-0.458267 -0.266911 L0.146048 -0.426374 z " fill="rgb(245,195,195)" />
<path d="M0.355881 -0.611023 L1.355881 -0.611023 L1.355881 0.388977 L0.355881 0.388977  z" fill="none" stroke="rgb(128,128,128)" stroke-width="0.01" />
<line x1="-0.458267" y1="-0.266911" x2="-0.547237" y2="-0.114155" style="stroke:rgb(246,147,147);stroke-width:0.01" />
<line x1="0.266911" y1="-0.458267" x2="0.17794" y2="-0.305511" style="stroke:rgb(246,147,147);stroke-width:0.01" />
<line x1="-0.17794" y1="0.305511" x2="-0.266911" y2="0.458267" style="stroke:rgb(246,147,147);stroke-width:0.01" />
<line x1="0.266911" y1="-0.458267" x2="0.458267" y2="0.266911" style="stroke:rgb(246,147,147);stroke-width:0.01" />
<line x1="0.114155" y1="-0.547237" x2="0.305511" y2="0.17794" style="stroke:rgb(246,147,147);stroke-width:0.01" />
<line x1="0.266911" y1="-0.458267" x2="-0.458267" y2="-0.266911" style="stroke:rgb(246,147,147);stroke-width:0.01" />
<line x1="0.114155" y1="-0.547237" x2="0.266911" y2="-0.458267" style="stroke:rgb(246,147,147);stroke-width:0.01" />
<line x1="-0.305511" y1="-0.17794" x2="-0.114155" y2="0.547237" style="stroke:rgb(246,147,147);stroke-width:0.01" />
<line x1="-0.458267" y1="-0.266911" x2="-0.266911" y2="0.458267" style="stroke:rgb(246,147,147);stroke-width:0.01" />
<line x1="0.17794" y1="-0.305511" x2="-0.547237" y2="-0.114155" style="stroke:rgb(246,147,147);stroke-width:0.01" />
<line x1="0.547237" y1="0.114155" x2="0.458267" y2="0.266911" style="stroke:rgb(246,147,147);stroke-width:0.01" />
<line x1="-0.458267" y1="-0.266911" x2="-0.305511" y2="-0.17794" style="stroke:rgb(246,147,147);stroke-width:0.01" />
<line x1="0.305511" y1="0.17794" x2="0.458267" y2="0.266911" style="stroke:rgb(246,147,147);stroke-width:0.01" />
<line x1="0.547237" y1="0.114155" x2="-0.17794" y2="0.305511" style="stroke:rgb(246,147,147);stroke-width:0.01" />
<line x1="0.458267" y1="0.266911" x2="-0.266911" y2="0.458267" style="stroke:rgb(246,147,147);stroke-width:0.01" />
<line x1="-0.266911" y1="0.458267" x2="-0.114155" y2="0.547237" style="stroke:rgb(246,147,147);stroke-width:0.01" />
</g>
</svg>
