<svg xmlns="http://www.w3.org/2000/svg" viewBox="-1.5 -1.5 3 3">
<g transform="scale(1, -1)">
<path d="M-0.245032 0.049590 L-0.097721 0.147311 L0.026255 0.759892 L0.148771 0.735097 L0.051050 0.882408 L-0.561530 1.006384 L-0.536735 1.128900 L-0.684046 1.031179 L-0.808022 0.418599 L-0.930538 0.443394 L-0.832818 0.296083 L-0.220237 0.172107 z " fill="rgb(245,195,195)" />
<path d="M0.000000 0.000000 L1.000000 0.000000 L1.000000 1.000000 L0.000000 1.000000  z" fill="none" stroke="rgb(128,128,128)" stroke-width="0.01" />
<line x1="-0.832818" y1="0.296083" x2="-0.930538" y2="0.443394" style="stroke:rgb(246,147,147);stroke-width:0.01" />
<line x1="-0.0977209" y1="0.147311" x2="-0.195442" y2="0.294623" style="stroke:rgb(246,147,147);stroke-width:0.01" />
<line x1="-0.586325" y1="0.883868" x2="-0.684046" y2="1.03118" style="stroke:rgb(246,147,147);stroke-width:0.01" />
<line x1="-0.0977209" y1="0.147311" x2="0.0510504" y2="0.882408" style="stroke:rgb(246,147,147);stroke-width:0.01" />
<line x1="-0.245032" y1="0.0495904" x2="-0.0962609" y2="0.784687" style="stroke:rgb(246,147,147);stroke-width:0.01" />
<line x1="-0.0977209" y1="0.147311" x2="-0.832818" y2="0.296083" style="stroke:rgb(246,147,147);stroke-width:0.01" />
<line x1="-0.245032" y1="0.0495904" x2="-0.0977209" y2="0.147311" style="stroke:rgb(246,147,147);stroke-width:0.01" />
<line x1="-0.685506" y1="0.393804" x2="-0.536735" y2="1.1289" style="stroke:rgb(246,147,147);stroke-width:0.01" />
<line x1="-0.832818" y1="0.296083" x2="-0.684046" y2="1.03118" style="stroke:rgb(246,147,147);stroke-width:0.01" />
<line x1="-0.195442" y1="0.294623" x2="-0.930538" y2="0.443394" style="stroke:rgb(246,147,147);stroke-width:0.01" />
<line x1="0.148771" y1="0.735097" x2="0.0510504" y2="0.882408" style="stroke:rgb(246,147,147);stroke-width:0.01" />
<line x1="-0.832818" y1="0.296083" x2="-0.685506" y2="0.393804" style="stroke:rgb(246,147,147);stroke-width:0.01" />
<line x1="-0.0962609" y1="0.784687" x2="0.0510504" y2="0.882408" style="stroke:rgb(246,147,147);stroke-width:0.01" />
<line x1="0.148771" y1="0.735097" x2="-0.586325" y2="0.883868" style="stroke:rgb(246,147,147);stroke-width:0.01" />
<line x1="0.0510504" y1="0.882408" x2="-0.684046" y2="1.03118" style="stroke:rgb(246,147,147);stroke-width:0.01" />
<line x1="-0.684046" y1="1.03118" x2="-0.536735" y2="1.1289" style="stroke:rgb(246,147,147);stroke-width:0.01" />
</g>
</svg>
