<svg xmlns="http://www.w3.org/2000/svg" viewBox="-1.5 -1.5 3 3">
<g transform="scale(1, -1)">
<path d="M-0.814842 -0.631294 L-0.639310 -0.610355 L-0.252828 -0.119175 L-0.154593 -0.196472 L-0.175532 -0.020940 L-0.666711 0.365542 L-0.589415 0.463778 L-0.764947 0.442838 L-1.151429 -0.048341 L-1.249665 0.028955 L-1.228725 -0.146577 L-0.737546 -0.533059 z " fill="rgb(245,195,195)" />
<path d="M0.000000 0.000000 L1.000000 0.000000 L1.000000 1.000000 L0.000000 1.000000  z" fill="none" stroke="rgb(128,128,128)" stroke-width="0.01" />
<line x1="-0.63931" y1="-0.610355" x2="-1.22873" y2="-0.146577" style="stroke:rgb(246,147,147);stroke-width:0.01" />
<line x1="-0.660249" y1="-0.434823" x2="-1.24966" y2="0.0289549" style="stroke:rgb(246,147,147);stroke-width:0.01" />
<line x1="-0.814842" y1="-0.631294" x2="-0.63931" y2="-0.610355" style="stroke:rgb(246,147,147);stroke-width:0.01" />
<line x1="-0.154593" y1="-0.196472" x2="-0.744008" y2="0.267306" style="stroke:rgb(246,147,147);stroke-width:0.01" />
<line x1="-1.22873" y1="-0.146577" x2="-1.24966" y2="0.0289549" style="stroke:rgb(246,147,147);stroke-width:0.01" />
<line x1="-0.175532" y1="-0.0209396" x2="-0.764947" y2="0.442838" style="stroke:rgb(246,147,147);stroke-width:0.01" />
<line x1="-0.63931" y1="-0.610355" x2="-0.660249" y2="-0.434823" style="stroke:rgb(246,147,147);stroke-width:0.01" />
<line x1="-0.744008" y1="0.267306" x2="-0.764947" y2="0.442838" style="stroke:rgb(246,147,147);stroke-width:0.01" />
<line x1="-0.154593" y1="-0.196472" x2="-0.175532" y2="-0.0209396" style="stroke:rgb(246,147,147);stroke-width:0.01" />
<line x1="-1.22873" y1="-0.146577" x2="-1.05319" y2="-0.125638" style="stroke:rgb(246,147,147);stroke-width:0.01" />
<line x1="-0.351064" y1="-0.0418792" x2="-0.175532" y2="-0.0209396" style="stroke:rgb(246,147,147);stroke-width:0.01" />
<line x1="-0.63931" y1="-0.610355" x2="-0.175532" y2="-0.0209396" style="stroke:rgb(246,147,147);stroke-width:0.01" />
<line x1="-0.814842" y1="-0.631294" x2="-0.351064" y2="-0.0418792" style="stroke:rgb(246,147,147);stroke-width:0.01" />
<line x1="-1.05319" y1="-0.125638" x2="-0.589415" y2="0.463778" style="stroke:rgb(246,147,147);stroke-width:0.01" />
<line x1="-0.764947" y1="0.442838" x2="-0.589415" y2="0.463778" style="stroke:rgb(246,147,147);stroke-width:0.01" />
<line x1="-1.22873" y1="-0.146577" x2="-0.764947" y2="0.442838" style="stroke:rgb(246,147,147);stroke-width:0.01" />
</g>
</svg>
