<svg xmlns="http://www.w3.org/2000/svg" viewBox="-1.5 -1.5 3 3">
<g transform="scale(1, -1)">
<path d="M-0.112713 -0.547536 L0.062819 -0.526596 L0.449300 -0.035417 L0.547536 -0.112713 L0.526596 0.062819 L0.035417 0.449300 L0.112713 0.547536 L-0.062819 0.526596 L-0.449300 0.035417 L-0.547536 0.112713 L-0.526596 -0.062819 L-0.035417 -0.449300 z " fill="rgb(245,195,195)" />
<path d="M0.702129 0.083758 L1.702129 0.083758 L1.702129 1.083758 L0.702129 1.083758  z" fill="none" stroke="rgb(128,128,128)" stroke-width="0.01" />
<line x1="0.0628188" y1="-0.526596" x2="-0.526596" y2="-0.0628188" style="stroke:rgb(246,147,147);stroke-width:0.01" />
<line x1="0.0418792" y1="-0.351064" x2="-0.547536" y2="0.112713" style="stroke:rgb(246,147,147);stroke-width:0.01" />
<line x1="-0.112713" y1="-0.547536" x2="0.0628188" y2="-0.526596" style="stroke:rgb(246,147,147);stroke-width:0.01" />
<line x1="0.547536" y1="-0.112713" x2="-0.0418792" y2="0.351064" style="stroke:rgb(246,147,147);stroke-width:0.01" />
<line x1="-0.526596" y1="-0.0628188" x2="-0.547536" y2="0.112713" style="stroke:rgb(246,147,147);stroke-width:0.01" />
<line x1="0.526596" y1="0.0628188" x2="-0.0628188" y2="0.526596" style="stroke:rgb(246,147,147);stroke-width:0.01" />
<line x1="0.0628188" y1="-0.526596" x2="0.0418792" y2="-0.351064" style="stroke:rgb(246,147,147);stroke-width:0.01" />
<line x1="-0.0418792" y1="0.351064" x2="-0.0628188" y2="0.526596" style="stroke:rgb(246,147,147);stroke-width:0.01" />
<line x1="0.547536" y1="-0.112713" x2="0.526596" y2="0.0628188" style="stroke:rgb(246,147,147);stroke-width:0.01" />
<line x1="-0.526596" y1="-0.0628188" x2="-0.351064" y2="-0.0418792" style="stroke:rgb(246,147,147);stroke-width:0.01" />
<line x1="0.351064" y1="0.0418792" x2="0.526596" y2="0.0628188" style="stroke:rgb(246,147,147);stroke-width:0.01" />
<line x1="0.0628188" y1="-0.526596" x2="0.526596" y2="0.0628188" style="stroke:rgb(246,147,147);stroke-width:0.01" />
<line x1="-0.112713" y1="-0.547536" x2="0.351064" y2="0.0418792" style="stroke:rgb(246,147,147);stroke-width:0.01" />
<line x1="-0.351064" y1="-0.0418792" x2="0.112713" y2="0.547536" style="stroke:rgb(246,147,147);stroke-width:0.01" />
<line x1="-0.0628188" y1="0.526596" x2="0.112713" y2="0.547536" style="stroke:rgb(246,147,147);stroke-width:0.01" />
<line x1="-0.526596" y1="-0.0628188" x2="-0.0628188" y2="0.526596" style="stroke:rgb(246,147,147);stroke-width:0.01" />
</g>
</svg>
