<svg xmlns="http://www.w3.org/2000/svg" viewBox="-1.5 -1.5 3 3">
<g transform="scale(1, -1)">
<path d="M-0.249913 0.006594 L-0.121660 0.128253 L-0.105175 0.753036 L0.019781 0.749739 L-0.101879 0.877992 L-0.726661 0.894477 L-0.723364 1.019433 L-0.851618 0.897774 L-0.868102 0.272991 L-0.993058 0.276288 L-0.871399 0.148034 L-0.246616 0.131550 z " fill="rgb(245,195,195)" />
<path d="M0.000000 0.000000 L1.000000 0.000000 L1.000000 1.000000 L0.000000 1.000000  z" fill="none" stroke="rgb(128,128,128)" stroke-width="0.01" />
<line x1="-0.871399" y1="0.148034" x2="-0.993058" y2="0.276288" style="stroke:rgb(246,147,147);stroke-width:0.01" />
<line x1="-0.12166" y1="0.128253" x2="-0.243319" y2="0.256507" style="stroke:rgb(246,147,147);stroke-width:0.01" />
<line x1="-0.729958" y1="0.76952" x2="-0.851618" y2="0.897774" style="stroke:rgb(246,147,147);stroke-width:0.01" />
<line x1="-0.12166" y1="0.128253" x2="-0.101879" y2="0.877992" style="stroke:rgb(246,147,147);stroke-width:0.01" />
<line x1="-0.249913" y1="0.00659369" x2="-0.230132" y2="0.756333" style="stroke:rgb(246,147,147);stroke-width:0.01" />
<line x1="-0.743145" y1="0.269694" x2="-0.723364" y2="1.01943" style="stroke:rgb(246,147,147);stroke-width:0.01" />
<line x1="-0.871399" y1="0.148034" x2="-0.851618" y2="0.897774" style="stroke:rgb(246,147,147);stroke-width:0.01" />
<line x1="-0.12166" y1="0.128253" x2="-0.871399" y2="0.148034" style="stroke:rgb(246,147,147);stroke-width:0.01" />
<line x1="-0.249913" y1="0.00659369" x2="-0.12166" y2="0.128253" style="stroke:rgb(246,147,147);stroke-width:0.01" />
<line x1="-0.243319" y1="0.256507" x2="-0.993058" y2="0.276288" style="stroke:rgb(246,147,147);stroke-width:0.01" />
<line x1="0.0197811" y1="0.749739" x2="-0.101879" y2="0.877992" style="stroke:rgb(246,147,147);stroke-width:0.01" />
<line x1="-0.871399" y1="0.148034" x2="-0.743145" y2="0.269694" style="stroke:rgb(246,147,147);stroke-width:0.01" />
<line x1="-0.230132" y1="0.756333" x2="-0.101879" y2="0.877992" style="stroke:rgb(246,147,147);stroke-width:0.01" />
<line x1="0.0197811" y1="0.749739" x2="-0.729958" y2="0.76952" style="stroke:rgb(246,147,147);stroke-width:0.01" />
<line x1="-0.101879" y1="0.877992" x2="-0.851618" y2="0.897774" style="stroke:rgb(246,147,147);stroke-width:0.01" />
<line x1="-0.851618" y1="0.897774" x2="-0.723364" y2="1.01943" style="stroke:rgb(246,147,147);stroke-width:0.01" />
</g>
</svg>
