<svg xmlns="http://www.w3.org/2000/svg" viewBox="-1.5 -1.5 3 3">
<g transform="scale(1, -1)">
<path d="M0.236726 -0.506420 L0.364979 -0.384760 L0.381463 0.240023 L0.506420 0.236726 L0.384760 0.364979 L-0.240023 0.381463 L-0.236726 0.506420 L-0.364979 0.384760 L-0.381463 -0.240023 L-0.506420 -0.236726 L-0.384760 -0.364979 L0.240023 -0.381463 z " fill="rgb(245,195,195)" />
<path d="M0.486639 -0.513013 L1.486639 -0.513013 L1.486639 0.486987 L0.486639 0.486987  z" fill="none" stroke="rgb(128,128,128)" stroke-width="0.01" />
<line x1="-0.38476" y1="-0.364979" x2="-0.50642" y2="-0.236726" style="stroke:rgb(246,147,147);stroke-width:0.01" />
<line x1="0.364979" y1="-0.38476" x2="0.243319" y2="-0.256507" style="stroke:rgb(246,147,147);stroke-width:0.01" />
<line x1="-0.243319" y1="0.256507" x2="-0.364979" y2="0.38476" style="stroke:rgb(246,147,147);stroke-width:0.01" />
<line x1="0.364979" y1="-0.38476" x2="0.38476" y2="0.364979" style="stroke:rgb(246,147,147);stroke-width:0.01" />
<line x1="0.236726" y1="-0.50642" x2="0.256507" y2="0.243319" style="stroke:rgb(246,147,147);stroke-width:0.01" />
<line x1="-0.256507" y1="-0.243319" x2="-0.236726" y2="0.50642" style="stroke:rgb(246,147,147);stroke-width:0.01" />
<line x1="-0.38476" y1="-0.364979" x2="-0.364979" y2="0.38476" style="stroke:rgb(246,147,147);stroke-width:0.01" />
<line x1="0.364979" y1="-0.38476" x2="-0.38476" y2="-0.364979" style="stroke:rgb(246,147,147);stroke-width:0.01" />
<line x1="0.236726" y1="-0.50642" x2="0.364979" y2="-0.38476" style="stroke:rgb(246,147,147);stroke-width:0.01" />
<line x1="0.243319" y1="-0.256507" x2="-0.50642" y2="-0.236726" style="stroke:rgb(246,147,147);stroke-width:0.01" />
<line x1="0.50642" y1="0.236726" x2="0.38476" y2="0.364979" style="stroke:rgb(246,147,147);stroke-width:0.01" />
<line x1="-0.38476" y1="-0.364979" x2="-0.256507" y2="-0.243319" style="stroke:rgb(246,147,147);stroke-width:0.01" />
<line x1="0.256507" y1="0.243319" x2="0.38476" y2="0.364979" style="stroke:rgb(246,147,147);stroke-width:0.01" />
<line x1="0.50642" y1="0.236726" x2="-0.243319" y2="0.256507" style="stroke:rgb(246,147,147);stroke-width:0.01" />
<line x1="0.38476" y1="0.364979" x2="-0.364979" y2="0.38476" style="stroke:rgb(246,147,147);stroke-width:0.01" />
<line x1="-0.364979" y1="0.38476" x2="-0.236726" y2="0.50642" style="stroke:rgb(246,147,147);stroke-width:0.01" />
</g>
</svg>
