<svg xmlns="http://www.w3.org/2000/svg" viewBox="-1.5 -1.5 3 3">
<g transform="scale(1, -1)">
<path d="M-0.238737 0.074194 L-0.082271 0.156466 L0.103215 0.753307 L0.222583 0.716210 L0.140312 0.872675 L-0.456530 1.058161 L-0.419432 1.177530 L-0.575898 1.095259 L-0.761384 0.498417 L-0.880752 0.535514 L-0.798481 0.379049 L-0.201639 0.193563 z " fill="rgb(245,195,195)" />
<path d="M0.000000 0.000000 L1.000000 0.000000 L1.000000 1.000000 L0.000000 1.000000  z" fill="none" stroke="rgb(128,128,128)" stroke-width="0.01" />
<line x1="-0.798481" y1="0.379049" x2="-0.880752" y2="0.535514" style="stroke:rgb(246,147,147);stroke-width:0.01" />
<line x1="-0.0822711" y1="0.156466" x2="-0.164542" y2="0.312931" style="stroke:rgb(246,147,147);stroke-width:0.01" />
<line x1="-0.493627" y1="0.938793" x2="-0.575898" y2="1.09526" style="stroke:rgb(246,147,147);stroke-width:0.01" />
<line x1="-0.0822711" y1="0.156466" x2="0.140312" y2="0.872675" style="stroke:rgb(246,147,147);stroke-width:0.01" />
<line x1="-0.238737" y1="0.0741944" x2="-0.0161535" y2="0.790404" style="stroke:rgb(246,147,147);stroke-width:0.01" />
<line x1="-0.0822711" y1="0.156466" x2="-0.798481" y2="0.379049" style="stroke:rgb(246,147,147);stroke-width:0.01" />
<line x1="-0.238737" y1="0.0741944" x2="-0.0822711" y2="0.156466" style="stroke:rgb(246,147,147);stroke-width:0.01" />
<line x1="-0.642016" y1="0.46132" x2="-0.419432" y2="1.17753" style="stroke:rgb(246,147,147);stroke-width:0.01" />
<line x1="-0.164542" y1="0.312931" x2="-0.880752" y2="0.535514" style="stroke:rgb(246,147,147);stroke-width:0.01" />
<line x1="0.222583" y1="0.71621" x2="0.140312" y2="0.872675" style="stroke:rgb(246,147,147);stroke-width:0.01" />
<line x1="-0.798481" y1="0.379049" x2="-0.575898" y2="1.09526" style="stroke:rgb(246,147,147);stroke-width:0.01" />
<line x1="-0.798481" y1="0.379049" x2="-0.642016" y2="0.46132" style="stroke:rgb(246,147,147);stroke-width:0.01" />
<line x1="-0.0161535" y1="0.790404" x2="0.140312" y2="0.872675" style="stroke:rgb(246,147,147);stroke-width:0.01" />
<line x1="0.222583" y1="0.71621" x2="-0.493627" y2="0.938793" style="stroke:rgb(246,147,147);stroke-width:0.01" />
<line x1="0.140312" y1="0.872675" x2="-0.575898" y2="1.09526" style="stroke:rgb(246,147,147);stroke-width:0.01" />
<line x1="-0.575898" y1="1.09526" x2="-0.419432" y2="1.17753" style="stroke:rgb(246,147,147);stroke-width:0.01" />
</g>
</svg>
