<svg xmlns="http://www.w3.org/2000/svg" viewBox="-1.5 -1.5 3 3">
<g transform="scale(1, -1)">
<path d="M0.331433 -0.450169 L0.433340 -0.305722 L0.326992 0.310163 L0.450169 0.331433 L0.305722 0.433340 L-0.310163 0.326992 L-0.331433 0.450169 L-0.433340 0.305722 L-0.326992 -0.310163 L-0.450169 -0.331433 L-0.305722 -0.433340 L0.310163 -0.326992 z " fill="rgb(245,195,195)" />
<path d="M0.577787 -0.407630 L1.577787 -0.407630 L1.577787 0.592370 L0.577787 0.592370  z" fill="none" stroke="rgb(128,128,128)" stroke-width="0.01" />
<line x1="-0.305722" y1="-0.43334" x2="-0.450169" y2="-0.331433" style="stroke:rgb(246,147,147);stroke-width:0.01" />
<line x1="-0.305722" y1="-0.43334" x2="-0.43334" y2="0.305722" style="stroke:rgb(246,147,147);stroke-width:0.01" />
<line x1="-0.203815" y1="-0.288894" x2="-0.331433" y2="0.450169" style="stroke:rgb(246,147,147);stroke-width:0.01" />
<line x1="0.331433" y1="-0.450169" x2="0.203815" y2="0.288894" style="stroke:rgb(246,147,147);stroke-width:0.01" />
<line x1="0.43334" y1="-0.305722" x2="0.305722" y2="0.43334" style="stroke:rgb(246,147,147);stroke-width:0.01" />
<line x1="0.43334" y1="-0.305722" x2="0.288894" y2="-0.203815" style="stroke:rgb(246,147,147);stroke-width:0.01" />
<line x1="-0.288894" y1="0.203815" x2="-0.43334" y2="0.305722" style="stroke:rgb(246,147,147);stroke-width:0.01" />
<line x1="0.331433" y1="-0.450169" x2="0.43334" y2="-0.305722" style="stroke:rgb(246,147,147);stroke-width:0.01" />
<line x1="-0.305722" y1="-0.43334" x2="0.43334" y2="-0.305722" style="stroke:rgb(246,147,147);stroke-width:0.01" />
<line x1="-0.450169" y1="-0.331433" x2="0.288894" y2="-0.203815" style="stroke:rgb(246,147,147);stroke-width:0.01" />
<line x1="-0.305722" y1="-0.43334" x2="-0.203815" y2="-0.288894" style="stroke:rgb(246,147,147);stroke-width:0.01" />
<line x1="0.203815" y1="0.288894" x2="0.305722" y2="0.43334" style="stroke:rgb(246,147,147);stroke-width:0.01" />
<line x1="0.450169" y1="0.331433" x2="0.305722" y2="0.43334" style="stroke:rgb(246,147,147);stroke-width:0.01" />
<line x1="-0.43334" y1="0.305722" x2="-0.331433" y2="0.450169" style="stroke:rgb(246,147,147);stroke-width:0.01" />
<line x1="-0.288894" y1="0.203815" x2="0.450169" y2="0.331433" style="stroke:rgb(246,147,147);stroke-width:0.01" />
<line x1="-0.43334" y1="0.305722" x2="0.305722" y2="0.43334" style="stroke:rgb(246,147,147);stroke-width:0.01" />
</g>
</svg>
