<svg xmlns="http://www.w3.org/2000/svg" viewBox="-1.5 -1.5 3 3">
<g transform="scale(1, -1)">
<path d="M-0.246354 -0.042539 L-0.144447 0.101907 L-0.250795 0.717793 L-0.127618 0.739063 L-0.272065 0.840970 L-0.887951 0.734622 L-0.909220 0.857799 L-1.011128 0.713352 L-0.904779 0.097466 L-1.027956 0.076197 L-0.883509 -0.025711 L-0.267624 0.080638 z " fill="rgb(245,195,195)" />
<path d="M0.000000 0.000000 L1.000000 0.000000 L1.000000 1.000000 L0.000000 1.000000  z" fill="none" stroke="rgb(128,128,128)" stroke-width="0.01" />
<line x1="-0.883509" y1="-0.0257108" x2="-1.02796" y2="0.0761966" style="stroke:rgb(246,147,147);stroke-width:0.01" />
<line x1="-0.883509" y1="-0.0257108" x2="-1.01113" y2="0.713352" style="stroke:rgb(246,147,147);stroke-width:0.01" />
<line x1="-0.781602" y1="0.118736" x2="-0.90922" y2="0.857799" style="stroke:rgb(246,147,147);stroke-width:0.01" />
<line x1="-0.246354" y1="-0.0425394" x2="-0.373972" y2="0.696523" style="stroke:rgb(246,147,147);stroke-width:0.01" />
<line x1="-0.144447" y1="0.101907" x2="-0.272065" y2="0.84097" style="stroke:rgb(246,147,147);stroke-width:0.01" />
<line x1="-0.144447" y1="0.101907" x2="-0.288894" y2="0.203815" style="stroke:rgb(246,147,147);stroke-width:0.01" />
<line x1="-0.866681" y1="0.611444" x2="-1.01113" y2="0.713352" style="stroke:rgb(246,147,147);stroke-width:0.01" />
<line x1="-0.246354" y1="-0.0425394" x2="-0.144447" y2="0.101907" style="stroke:rgb(246,147,147);stroke-width:0.01" />
<line x1="-0.883509" y1="-0.0257108" x2="-0.144447" y2="0.101907" style="stroke:rgb(246,147,147);stroke-width:0.01" />
<line x1="-1.02796" y1="0.0761966" x2="-0.288894" y2="0.203815" style="stroke:rgb(246,147,147);stroke-width:0.01" />
<line x1="-0.883509" y1="-0.0257108" x2="-0.781602" y2="0.118736" style="stroke:rgb(246,147,147);stroke-width:0.01" />
<line x1="-0.373972" y1="0.696523" x2="-0.272065" y2="0.84097" style="stroke:rgb(246,147,147);stroke-width:0.01" />
<line x1="-0.127618" y1="0.739063" x2="-0.272065" y2="0.84097" style="stroke:rgb(246,147,147);stroke-width:0.01" />
<line x1="-1.01113" y1="0.713352" x2="-0.90922" y2="0.857799" style="stroke:rgb(246,147,147);stroke-width:0.01" />
<line x1="-0.866681" y1="0.611444" x2="-0.127618" y2="0.739063" style="stroke:rgb(246,147,147);stroke-width:0.01" />
<line x1="-1.01113" y1="0.713352" x2="-0.272065" y2="0.84097" style="stroke:rgb(246,147,147);stroke-width:0.01" />
</g>
</svg>
