<svg xmlns="http://www.w3.org/2000/svg" viewBox="-1.5 -1.5 3 3">
<g transform="scale(1, -1)">
<path d="M0.339248 -0.444309 L0.438616 -0.298104 L0.321523 0.315829 L0.444309 0.339248 L0.298104 0.438616 L-0.315829 0.321523 L-0.339248 0.444309 L-0.438616 0.298104 L-0.321523 -0.315829 L-0.444309 -0.339248 L-0.298104 -0.438616 L0.315829 -0.321523 z " fill="rgb(245,195,195)" />
<path d="M0.584822 -0.397472 L1.584822 -0.397472 L1.584822 0.602528 L0.584822 0.602528  z" fill="none" stroke="rgb(128,128,128)" stroke-width="0.01" />
<line x1="-0.298104" y1="-0.438616" x2="-0.444309" y2="-0.339248" style="stroke:rgb(246,147,147);stroke-width:0.01" />
<line x1="-0.298104" y1="-0.438616" x2="-0.438616" y2="0.298104" style="stroke:rgb(246,147,147);stroke-width:0.01" />
<line x1="-0.198736" y1="-0.292411" x2="-0.339248" y2="0.444309" style="stroke:rgb(246,147,147);stroke-width:0.01" />
<line x1="0.339248" y1="-0.444309" x2="0.198736" y2="0.292411" style="stroke:rgb(246,147,147);stroke-width:0.01" />
<line x1="0.438616" y1="-0.298104" x2="0.298104" y2="0.438616" style="stroke:rgb(246,147,147);stroke-width:0.01" />
<line x1="0.438616" y1="-0.298104" x2="0.292411" y2="-0.198736" style="stroke:rgb(246,147,147);stroke-width:0.01" />
<line x1="-0.292411" y1="0.198736" x2="-0.438616" y2="0.298104" style="stroke:rgb(246,147,147);stroke-width:0.01" />
<line x1="0.339248" y1="-0.444309" x2="0.438616" y2="-0.298104" style="stroke:rgb(246,147,147);stroke-width:0.01" />
<line x1="-0.298104" y1="-0.438616" x2="0.438616" y2="-0.298104" style="stroke:rgb(246,147,147);stroke-width:0.01" />
<line x1="-0.444309" y1="-0.339248" x2="0.292411" y2="-0.198736" style="stroke:rgb(246,147,147);stroke-width:0.01" />
<line x1="-0.298104" y1="-0.438616" x2="-0.198736" y2="-0.292411" style="stroke:rgb(246,147,147);stroke-width:0.01" />
<line x1="0.198736" y1="0.292411" x2="0.298104" y2="0.438616" style="stroke:rgb(246,147,147);stroke-width:0.01" />
<line x1="0.444309" y1="0.339248" x2="0.298104" y2="0.438616" style="stroke:rgb(246,147,147);stroke-width:0.01" />
<line x1="-0.438616" y1="0.298104" x2="-0.339248" y2="0.444309" style="stroke:rgb(246,147,147);stroke-width:0.01" />
<line x1="-0.292411" y1="0.198736" x2="0.444309" y2="0.339248" style="stroke:rgb(246,147,147);stroke-width:0.01" />
<line x1="-0.438616" y1="0.298104" x2="0.298104" y2="0.438616" style="stroke:rgb(246,147,147);stroke-width:0.01" />
</g>
</svg>
