<svg xmlns="http://www.w3.org/2000/svg" viewBox="-1.5 -1.5 3 3">
<g transform="scale(1, -1)">
<path d="M-0.190801 -0.494818 L0.380548 -0.241471 L0.431218 -0.355740 L0.494818 -0.190801 L0.241471 0.380548 L0.355740 0.431218 L0.190801 0.494818 L-0.380548 0.241471 L-0.431218 0.355740 L-0.494818 0.190801 L-0.241471 -0.380548 L-0.355740 -0.431218 z " fill="rgb(245,195,195)" />
<path d="M0.659757 -0.254401 L1.659757 -0.254401 L1.659757 0.745599 L0.659757 0.745599  z" fill="none" stroke="rgb(128,128,128)" stroke-width="0.01" />
<line x1="-0.190801" y1="-0.494818" x2="-0.35574" y2="-0.431218" style="stroke:rgb(246,147,147);stroke-width:0.01" />
<line x1="-0.190801" y1="-0.494818" x2="-0.494818" y2="0.190801" style="stroke:rgb(246,147,147);stroke-width:0.01" />
<line x1="-0.127201" y1="-0.329879" x2="-0.431218" y2="0.35574" style="stroke:rgb(246,147,147);stroke-width:0.01" />
<line x1="0.431218" y1="-0.35574" x2="0.127201" y2="0.329879" style="stroke:rgb(246,147,147);stroke-width:0.01" />
<line x1="0.494818" y1="-0.190801" x2="0.190801" y2="0.494818" style="stroke:rgb(246,147,147);stroke-width:0.01" />
<line x1="0.494818" y1="-0.190801" x2="0.329879" y2="-0.127201" style="stroke:rgb(246,147,147);stroke-width:0.01" />
<line x1="-0.329879" y1="0.127201" x2="-0.494818" y2="0.190801" style="stroke:rgb(246,147,147);stroke-width:0.01" />
<line x1="0.431218" y1="-0.35574" x2="0.494818" y2="-0.190801" style="stroke:rgb(246,147,147);stroke-width:0.01" />
<line x1="-0.190801" y1="-0.494818" x2="0.494818" y2="-0.190801" style="stroke:rgb(246,147,147);stroke-width:0.01" />
<line x1="-0.35574" y1="-0.431218" x2="0.329879" y2="-0.127201" style="stroke:rgb(246,147,147);stroke-width:0.01" />
<line x1="-0.190801" y1="-0.494818" x2="-0.127201" y2="-0.329879" style="stroke:rgb(246,147,147);stroke-width:0.01" />
<line x1="0.127201" y1="0.329879" x2="0.190801" y2="0.494818" style="stroke:rgb(246,147,147);stroke-width:0.01" />
<line x1="-0.494818" y1="0.190801" x2="-0.431218" y2="0.35574" style="stroke:rgb(246,147,147);stroke-width:0.01" />
<line x1="0.35574" y1="0.431218" x2="0.190801" y2="0.494818" style="stroke:rgb(246,147,147);stroke-width:0.01" />
<line x1="-0.329879" y1="0.127201" x2="0.35574" y2="0.431218" style="stroke:rgb(246,147,147);stroke-width:0.01" />
<line x1="-0.494818" y1="0.190801" x2="0.190801" y2="0.494818" style="stroke:rgb(246,147,147);stroke-width:0.01" />
</g>
</svg>
