<svg xmlns="http://www.w3.org/2000/svg" viewBox="-1.5 -1.5 3 3">
<g transform="scale(1, -1)">
<path d="M-0.253696 -0.465713 L0.345811 -0.289032 L0.381147 -0.408934 L0.465713 -0.253696 L0.289032 0.345811 L0.408934 0.381147 L0.253696 0.465713 L-0.345811 0.289032 L-0.381147 0.408934 L-0.465713 0.253696 L-0.289032 -0.345811 L-0.408934 -0.381147 z " fill="rgb(245,195,195)" />
<path d="M0.620950 -0.338261 L1.620950 -0.338261 L1.620950 0.661739 L0.620950 0.661739  z" fill="none" stroke="rgb(128,128,128)" stroke-width="0.01" />
<line x1="-0.253696" y1="-0.465713" x2="-0.408934" y2="-0.381147" style="stroke:rgb(246,147,147);stroke-width:0.01" />
<line x1="-0.253696" y1="-0.465713" x2="-0.465713" y2="0.253696" style="stroke:rgb(246,147,147);stroke-width:0.01" />
<line x1="-0.169131" y1="-0.310475" x2="-0.381147" y2="0.408934" style="stroke:rgb(246,147,147);stroke-width:0.01" />
<line x1="0.381147" y1="-0.408934" x2="0.169131" y2="0.310475" style="stroke:rgb(246,147,147);stroke-width:0.01" />
<line x1="0.465713" y1="-0.253696" x2="0.253696" y2="0.465713" style="stroke:rgb(246,147,147);stroke-width:0.01" />
<line x1="0.465713" y1="-0.253696" x2="0.310475" y2="-0.169131" style="stroke:rgb(246,147,147);stroke-width:0.01" />
<line x1="-0.310475" y1="0.169131" x2="-0.465713" y2="0.253696" style="stroke:rgb(246,147,147);stroke-width:0.01" />
<line x1="0.381147" y1="-0.408934" x2="0.465713" y2="-0.253696" style="stroke:rgb(246,147,147);stroke-width:0.01" />
<line x1="-0.253696" y1="-0.465713" x2="0.465713" y2="-0.253696" style="stroke:rgb(246,147,147);stroke-width:0.01" />
<line x1="-0.408934" y1="-0.381147" x2="0.310475" y2="-0.169131" style="stroke:rgb(246,147,147);stroke-width:0.01" />
<line x1="-0.253696" y1="-0.465713" x2="-0.169131" y2="-0.310475" style="stroke:rgb(246,147,147);stroke-width:0.01" />
<line x1="0.169131" y1="0.310475" x2="0.253696" y2="0.465713" style="stroke:rgb(246,147,147);stroke-width:0.01" />
<line x1="0.408934" y1="0.381147" x2="0.253696" y2="0.465713" style="stroke:rgb(246,147,147);stroke-width:0.01" />
<line x1="-0.465713" y1="0.253696" x2="-0.381147" y2="0.408934" style="stroke:rgb(246,147,147);stroke-width:0.01" />
<line x1="-0.310475" y1="0.169131" x2="0.408934" y2="0.381147" style="stroke:rgb(246,147,147);stroke-width:0.01" />
<line x1="-0.465713" y1="0.253696" x2="0.253696" y2="0.465713" style="stroke:rgb(246,147,147);stroke-width:0.01" />
</g>
</svg>
