<svg xmlns="http://www.w3.org/2000/svg" viewBox="-1.5 -1.5 3 3">
<g transform="scale(1, -1)">
<path d="M0.068058 -0.554859 L0.227709 -0.478956 L0.437081 0.109932 L0.554859 0.068058 L0.478956 0.227709 L-0.109932 0.437081 L-0.068058 0.554859 L-0.227709 0.478956 L-0.437081 -0.109932 L-0.554859 -0.068058 L-0.478956 -0.227709 L0.109932 -0.437081 z " fill="rgb(245,195,195)" />
<path d="M0.303613 -0.638607 L1.303613 -0.638607 L1.303613 0.361393 L0.303613 0.361393  z" fill="none" stroke="rgb(128,128,128)" stroke-width="0.01" />
<line x1="-0.478956" y1="-0.227709" x2="-0.554859" y2="-0.0680575" style="stroke:rgb(246,147,147);stroke-width:0.01" />
<line x1="0.227709" y1="-0.478956" x2="0.151806" y2="-0.319304" style="stroke:rgb(246,147,147);stroke-width:0.01" />
<line x1="-0.151806" y1="0.319304" x2="-0.227709" y2="0.478956" style="stroke:rgb(246,147,147);stroke-width:0.01" />
<line x1="0.227709" y1="-0.478956" x2="0.478956" y2="0.227709" style="stroke:rgb(246,147,147);stroke-width:0.01" />
<line x1="0.0680575" y1="-0.554859" x2="0.319304" y2="0.151806" style="stroke:rgb(246,147,147);stroke-width:0.01" />
<line x1="0.227709" y1="-0.478956" x2="-0.478956" y2="-0.227709" style="stroke:rgb(246,147,147);stroke-width:0.01" />
<line x1="0.0680575" y1="-0.554859" x2="0.227709" y2="-0.478956" style="stroke:rgb(246,147,147);stroke-width:0.01" />
<line x1="0.554859" y1="0.0680575" x2="0.478956" y2="0.227709" style="stroke:rgb(246,147,147);stroke-width:0.01" />
<line x1="0.151806" y1="-0.319304" x2="-0.554859" y2="-0.0680575" style="stroke:rgb(246,147,147);stroke-width:0.01" />
<line x1="-0.319304" y1="-0.151806" x2="-0.0680575" y2="0.554859" style="stroke:rgb(246,147,147);stroke-width:0.01" />
<line x1="-0.478956" y1="-0.227709" x2="-0.227709" y2="0.478956" style="stroke:rgb(246,147,147);stroke-width:0.01" />
<line x1="-0.478956" y1="-0.227709" x2="-0.319304" y2="-0.151806" style="stroke:rgb(246,147,147);stroke-width:0.01" />
<line x1="0.319304" y1="0.151806" x2="0.478956" y2="0.227709" style="stroke:rgb(246,147,147);stroke-width:0.01" />
<line x1="0.554859" y1="0.0680575" x2="-0.151806" y2="0.319304" style="stroke:rgb(246,147,147);stroke-width:0.01" />
<line x1="0.478956" y1="0.227709" x2="-0.227709" y2="0.478956" style="stroke:rgb(246,147,147);stroke-width:0.01" />
<line x1="-0.227709" y1="0.478956" x2="-0.0680575" y2="0.554859" style="stroke:rgb(246,147,147);stroke-width:0.01" />
</g>
</svg>
