<svg xmlns="http://www.w3.org/2000/svg" viewBox="-1.5 -1.5 3 3">
<g transform="scale(1, -1)">
<path d="M-0.192279 -0.494246 L0.379825 -0.242607 L0.430153 -0.357028 L0.494246 -0.192279 L0.242607 0.379825 L0.357028 0.430153 L0.192279 0.494246 L-0.379825 0.242607 L-0.430153 0.357028 L-0.494246 0.192279 L-0.242607 -0.379825 L-0.357028 -0.430153 z " fill="rgb(245,195,195)" />
<path d="M0.658994 -0.256372 L1.658994 -0.256372 L1.658994 0.743628 L0.658994 0.743628  z" fill="none" stroke="rgb(128,128,128)" stroke-width="0.01" />
<line x1="-0.192279" y1="-0.494246" x2="-0.357028" y2="-0.430153" style="stroke:rgb(246,147,147);stroke-width:0.01" />
<line x1="-0.192279" y1="-0.494246" x2="-0.494246" y2="0.192279" style="stroke:rgb(246,147,147);stroke-width:0.01" />
<line x1="-0.128186" y1="-0.329497" x2="-0.430153" y2="0.357028" style="stroke:rgb(246,147,147);stroke-width:0.01" />
<line x1="0.430153" y1="-0.357028" x2="0.128186" y2="0.329497" style="stroke:rgb(246,147,147);stroke-width:0.01" />
<line x1="0.494246" y1="-0.192279" x2="0.192279" y2="0.494246" style="stroke:rgb(246,147,147);stroke-width:0.01" />
<line x1="0.494246" y1="-0.192279" x2="0.329497" y2="-0.128186" style="stroke:rgb(246,147,147);stroke-width:0.01" />
<line x1="-0.329497" y1="0.128186" x2="-0.494246" y2="0.192279" style="stroke:rgb(246,147,147);stroke-width:0.01" />
<line x1="0.430153" y1="-0.357028" x2="0.494246" y2="-0.192279" style="stroke:rgb(246,147,147);stroke-width:0.01" />
<line x1="-0.192279" y1="-0.494246" x2="0.494246" y2="-0.192279" style="stroke:rgb(246,147,147);stroke-width:0.01" />
<line x1="-0.357028" y1="-0.430153" x2="0.329497" y2="-0.128186" style="stroke:rgb(246,147,147);stroke-width:0.01" />
<line x1="-0.192279" y1="-0.494246" x2="-0.128186" y2="-0.329497" style="stroke:rgb(246,147,147);stroke-width:0.01" />
<line x1="0.128186" y1="0.329497" x2="0.192279" y2="0.494246" style="stroke:rgb(246,147,147);stroke-width:0.01" />
<line x1="-0.494246" y1="0.192279" x2="-0.430153" y2="0.357028" style="stroke:rgb(246,147,147);stroke-width:0.01" />
<line x1="0.357028" y1="0.430153" x2="0.192279" y2="0.494246" style="stroke:rgb(246,147,147);stroke-width:0.01" />
<line x1="-0.329497" y1="0.128186" x2="0.357028" y2="0.430153" style="stroke:rgb(246,147,147);stroke-width:0.01" />
<line x1="-0.494246" y1="0.192279" x2="0.192279" y2="0.494246" style="stroke:rgb(246,147,147);stroke-width:0.01" />
</g>
</svg>
