<svg xmlns="http://www.w3.org/2000/svg" viewBox="-1.5 -1.5 3 3">
<g transform="scale(1, -1)">
<path d="M-0.090777 -0.566367 L0.299992 -0.410030 L0.323599 0.095540 L-0.070585 0.518772 L-0.462229 0.362085 z " fill="rgb(245,195,195)" />
<path d="M-0.009217 0.031247 L0.990783 0.031247 L0.990783 1.031247 L-0.009217 1.031247  z" fill="none" stroke="rgb(128,128,128)" stroke-width="0.01" />
<line x1="-0.0907772" y1="-0.566367" x2="0.299992" y2="-0.41003" style="stroke:rgb(246,147,147);stroke-width:0.01" />
<line x1="0.299992" y1="-0.41003" x2="-0.215306" y2="-0.145749" style="stroke:rgb(246,147,147);stroke-width:0.01" />
<line x1="-0.0907772" y1="-0.566367" x2="-0.462229" y2="0.362085" style="stroke:rgb(246,147,147);stroke-width:0.01" />
<line x1="-0.268865" y1="0.10999" x2="-0.317416" y2="0.22392" style="stroke:rgb(246,147,147);stroke-width:0.01" />
<line x1="0.299992" y1="-0.41003" x2="0.323599" y2="0.0955399" style="stroke:rgb(246,147,147);stroke-width:0.01" />
<line x1="-0.215306" y1="-0.145749" x2="0.0558717" y2="0.382997" style="stroke:rgb(246,147,147);stroke-width:0.01" />
<line x1="0.323599" y1="0.0955399" x2="-0.268865" y2="0.10999" style="stroke:rgb(246,147,147);stroke-width:0.01" />
<line x1="-0.268865" y1="0.10999" x2="-0.0705849" y2="0.518772" style="stroke:rgb(246,147,147);stroke-width:0.01" />
<line x1="0.323599" y1="0.0955399" x2="-0.0705849" y2="0.518772" style="stroke:rgb(246,147,147);stroke-width:0.01" />
<line x1="-0.317416" y1="0.22392" x2="0.0558717" y2="0.382997" style="stroke:rgb(246,147,147);stroke-width:0.01" />
<line x1="-0.462229" y1="0.362085" x2="-0.0705849" y2="0.518772" style="stroke:rgb(246,147,147);stroke-width:0.01" />
</g>
</svg>
