<svg xmlns="http://www.w3.org/2000/svg" viewBox="-1.5 -1.5 3 3">
<g transform="scale(1, -1)">
<path d="M-0.182353 -1.570588 L-0.076471 -1.344118 L0.150000 -1.450000 L0.482353 -1.329412 L0.255882 -1.223529 L0.361765 -0.997059 L0.241176 -0.664706 L0.135294 -0.891176 L-0.091176 -0.785294 L-0.423529 -0.905882 L-0.197059 -1.011765 L-0.302941 -1.238235 z " fill="rgb(245,195,195)" />
<path d="M0.000000 0.000000 L1.000000 0.000000 L1.000000 1.000000 L0.000000 1.000000  z" fill="none" stroke="rgb(128,128,128)" stroke-width="0.01" />
<line x1="0.15" y1="-1.45" x2="0.482353" y2="-1.32941" style="stroke:rgb(246,147,147);stroke-width:0.01" />
<line x1="0.15" y1="-1.45" x2="-0.302941" y2="-1.23824" style="stroke:rgb(246,147,147);stroke-width:0.01" />
<line x1="-0.302941" y1="-1.23824" x2="0.361765" y2="-0.997059" style="stroke:rgb(246,147,147);stroke-width:0.01" />
<line x1="0.482353" y1="-1.32941" x2="-0.423529" y2="-0.905882" style="stroke:rgb(246,147,147);stroke-width:0.01" />
<line x1="0.361765" y1="-0.997059" x2="-0.0911765" y2="-0.785294" style="stroke:rgb(246,147,147);stroke-width:0.01" />
<line x1="-0.423529" y1="-0.905882" x2="-0.0911765" y2="-0.785294" style="stroke:rgb(246,147,147);stroke-width:0.01" />
<line x1="0.15" y1="-1.45" x2="0.361765" y2="-0.997059" style="stroke:rgb(246,147,147);stroke-width:0.01" />
<line x1="-0.182353" y1="-1.57059" x2="-0.302941" y2="-1.23824" style="stroke:rgb(246,147,147);stroke-width:0.01" />
<line x1="-0.182353" y1="-1.57059" x2="0.241176" y2="-0.664706" style="stroke:rgb(246,147,147);stroke-width:0.01" />
<line x1="0.15" y1="-1.45" x2="-0.0911765" y2="-0.785294" style="stroke:rgb(246,147,147);stroke-width:0.01" />
<line x1="-0.302941" y1="-1.23824" x2="-0.0911765" y2="-0.785294" style="stroke:rgb(246,147,147);stroke-width:0.01" />
<line x1="0.361765" y1="-0.997059" x2="0.241176" y2="-0.664706" style="stroke:rgb(246,147,147);stroke-width:0.01" />
</g>
</svg>
