<svg xmlns="http://www.w3.org/2000/svg" viewBox="-1.5 -1.5 3 3">
<g transform="scale(1, -1)">
<path d="M-0.211765 -0.452941 L-0.105882 -0.226471 L0.120588 -0.332353 L0.452941 -0.211765 L0.226471 -0.105882 L0.332353 0.120588 L0.211765 0.452941 L0.105882 0.226471 L-0.120588 0.332353 L-0.452941 0.211765 L-0.226471 0.105882 L-0.332353 -0.120588 z " fill="rgb(245,195,195)" />
<path d="M-0.029412 1.117647 L0.970588 1.117647 L0.970588 2.117647 L-0.029412 2.117647  z" fill="none" stroke="rgb(128,128,128)" stroke-width="0.01" />
<line x1="0.120588" y1="-0.332353" x2="0.452941" y2="-0.211765" style="stroke:rgb(246,147,147);stroke-width:0.01" />
<line x1="0.120588" y1="-0.332353" x2="-0.332353" y2="-0.120588" style="stroke:rgb(246,147,147);stroke-width:0.01" />
<line x1="-0.332353" y1="-0.120588" x2="0.332353" y2="0.120588" style="stroke:rgb(246,147,147);stroke-width:0.01" />
<line x1="0.452941" y1="-0.211765" x2="-0.452941" y2="0.211765" style="stroke:rgb(246,147,147);stroke-width:0.01" />
<line x1="0.332353" y1="0.120588" x2="-0.120588" y2="0.332353" style="stroke:rgb(246,147,147);stroke-width:0.01" />
<line x1="-0.452941" y1="0.211765" x2="-0.120588" y2="0.332353" style="stroke:rgb(246,147,147);stroke-width:0.01" />
<line x1="0.120588" y1="-0.332353" x2="0.332353" y2="0.120588" style="stroke:rgb(246,147,147);stroke-width:0.01" />
<line x1="-0.211765" y1="-0.452941" x2="-0.332353" y2="-0.120588" style="stroke:rgb(246,147,147);stroke-width:0.01" />
<line x1="-0.211765" y1="-0.452941" x2="0.211765" y2="0.452941" style="stroke:rgb(246,147,147);stroke-width:0.01" />
<line x1="0.120588" y1="-0.332353" x2="-0.120588" y2="0.332353" style="stroke:rgb(246,147,147);stroke-width:0.01" />
<line x1="-0.332353" y1="-0.120588" x2="-0.120588" y2="0.332353" style="stroke:rgb(246,147,147);stroke-width:0.01" />
<line x1="0.332353" y1="0.120588" x2="0.211765" y2="0.452941" style="stroke:rgb(246,147,147);stroke-width:0.01" />
</g>
</svg>
