<svg xmlns="http://www.w3.org/2000/svg" viewBox="-1.5 -1.5 3 3">
<g transform="scale(1, -1)">
<path d="M-0.019759 0.623288 L1.000000 0.975833 L1.000000 1.000000 L0.981022 1.000000 L0.921509 1.075785 L0.910900 1.143447 L0.873038 1.137510 L0.752561 1.290929 L0.414553 1.065621 L0.151805 1.024424 L-0.047026 0.797188 L-0.041455 0.761659 L-0.082048 0.734600 z " fill="rgb(245,195,195)" />
<path d="M0.000000 0.000000 L1.000000 0.000000 L1.000000 1.000000 L0.000000 1.000000  z" fill="none" stroke="rgb(128,128,128)" stroke-width="0.01" />
<line x1="0.146619" y1="0.792851" x2="0.151805" y2="1.02442" style="stroke:rgb(246,147,147);stroke-width:0.01" />
<line x1="0" y1="0.630119" x2="0" y2="0.850932" style="stroke:rgb(246,147,147);stroke-width:0.01" />
<line x1="1" y1="0.975833" x2="1" y2="1" style="stroke:rgb(246,147,147);stroke-width:0.01" />
<line x1="-0.0197587" y1="0.623288" x2="-0.0470256" y2="0.797188" style="stroke:rgb(246,147,147);stroke-width:0.01" />
<line x1="0.147749" y1="0.87072" x2="0.130435" y2="1" style="stroke:rgb(246,147,147);stroke-width:0.01" />
<line x1="-0.0197587" y1="0.623288" x2="-0.0820476" y2="0.7346" style="stroke:rgb(246,147,147);stroke-width:0.01" />
<line x1="0.940411" y1="0.955233" x2="0.9109" y2="1.14345" style="stroke:rgb(246,147,147);stroke-width:0.01" />
<line x1="0" y1="0.630119" x2="-0.0820476" y2="0.7346" style="stroke:rgb(246,147,147);stroke-width:0.01" />
<line x1="-0.0470256" y1="0.797188" x2="0.151805" y2="1.02442" style="stroke:rgb(246,147,147);stroke-width:0.01" />
<line x1="-0.0820476" y1="0.7346" x2="0.752561" y2="1.29093" style="stroke:rgb(246,147,147);stroke-width:0.01" />
<line x1="-0.0197587" y1="0.623288" x2="1" y2="0.975833" style="stroke:rgb(246,147,147);stroke-width:0.01" />
<line x1="0.940411" y1="0.955233" x2="0.752561" y2="1.29093" style="stroke:rgb(246,147,147);stroke-width:0.01" />
<line x1="0.146619" y1="0.792851" x2="-0.0470256" y2="0.797188" style="stroke:rgb(246,147,147);stroke-width:0.01" />
<line x1="0" y1="0.850932" x2="0.147749" y2="0.87072" style="stroke:rgb(246,147,147);stroke-width:0.01" />
<line x1="1" y1="0.975833" x2="0.752561" y2="1.29093" style="stroke:rgb(246,147,147);stroke-width:0.01" />
<line x1="0.151805" y1="1.02442" x2="0.9109" y2="1.14345" style="stroke:rgb(246,147,147);stroke-width:0.01" />
<line x1="0.130435" y1="1" x2="1" y2="1" style="stroke:rgb(246,147,147);stroke-width:0.01" />
</g>
</svg>
