<svg xmlns="http://www.w3.org/2000/svg" viewBox="-1.5 -1.5 3 3">
<g transform="scale(1, -1)">
<path d="M-0.232948 -0.379620 L0.438913 0.103281 L0.466221 0.325642 L0.171163 0.399222 L0.161547 0.360662 L0.265182 0.189484 L0.170738 0.106846 L0.013292 0.137332 L-0.000239 0.110354 L-0.023991 -0.012315 L-0.074436 -0.037584 L-0.137087 -0.162500 L-0.153376 -0.176754 L-0.276371 -0.109395 L-0.308277 -0.118603 L-0.237708 -0.363126 L-0.242623 -0.372924 z " fill="rgb(245,195,195)" />
<path d="M-0.229686 -0.674358 L0.770314 -0.674358 L0.770314 0.325642 L-0.229686 0.325642  z" fill="none" stroke="rgb(128,128,128)" stroke-width="0.01" />
<line x1="0.438913" y1="0.103281" x2="0.466221" y2="0.325642" style="stroke:rgb(246,147,147);stroke-width:0.01" />
<line x1="0.385907" y1="0.0651828" x2="0.42079" y2="0.325642" style="stroke:rgb(246,147,147);stroke-width:0.01" />
<line x1="0.346428" y1="0.0368068" x2="0.378409" y2="0.288558" style="stroke:rgb(246,147,147);stroke-width:0.01" />
<line x1="0.161547" y1="0.360662" x2="0.171163" y2="0.399222" style="stroke:rgb(246,147,147);stroke-width:0.01" />
<line x1="-0.0284889" y1="-0.232665" x2="0.0380062" y2="0.0986982" style="stroke:rgb(246,147,147);stroke-width:0.01" />
<line x1="-0.0728272" y1="-0.264533" x2="-0.000238545" y2="0.110354" style="stroke:rgb(246,147,147);stroke-width:0.01" />
<line x1="-0.194291" y1="-0.351835" x2="-0.193341" y2="-0.211723" style="stroke:rgb(246,147,147);stroke-width:0.01" />
<line x1="-0.229686" y1="-0.377275" x2="-0.229686" y2="-0.243525" style="stroke:rgb(246,147,147);stroke-width:0.01" />
<line x1="-0.232948" y1="-0.37962" x2="-0.308277" y2="-0.118603" style="stroke:rgb(246,147,147);stroke-width:0.01" />
<line x1="-0.202807" y1="-0.357956" x2="-0.276371" y2="-0.109395" style="stroke:rgb(246,147,147);stroke-width:0.01" />
<line x1="-0.0383477" y1="-0.239751" x2="-0.0744356" y2="-0.0375839" style="stroke:rgb(246,147,147);stroke-width:0.01" />
<line x1="-0.242623" y1="-0.372924" x2="-0.0744356" y2="-0.0375839" style="stroke:rgb(246,147,147);stroke-width:0.01" />
<line x1="-0.000238545" y1="0.110354" x2="0.0132918" y2="0.137332" style="stroke:rgb(246,147,147);stroke-width:0.01" />
<line x1="-0.232948" y1="-0.37962" x2="0.438913" y2="0.103281" style="stroke:rgb(246,147,147);stroke-width:0.01" />
<line x1="-0.232948" y1="-0.37962" x2="-0.242623" y2="-0.372924" style="stroke:rgb(246,147,147);stroke-width:0.01" />
<line x1="-0.202807" y1="-0.357956" x2="-0.226702" y2="-0.34118" style="stroke:rgb(246,147,147);stroke-width:0.01" />
<line x1="-0.000238545" y1="0.110354" x2="0.0193225" y2="0.131842" style="stroke:rgb(246,147,147);stroke-width:0.01" />
<line x1="-0.229686" y1="-0.243525" x2="0.42079" y2="0.325642" style="stroke:rgb(246,147,147);stroke-width:0.01" />
<line x1="-0.229686" y1="-0.377275" x2="-0.242623" y2="-0.372924" style="stroke:rgb(246,147,147);stroke-width:0.01" />
<line x1="-0.194291" y1="-0.351835" x2="-0.226702" y2="-0.34118" style="stroke:rgb(246,147,147);stroke-width:0.01" />
<line x1="-0.0383477" y1="-0.239751" x2="-0.276371" y2="-0.109395" style="stroke:rgb(246,147,147);stroke-width:0.01" />
<line x1="-0.0728272" y1="-0.264533" x2="-0.229686" y2="-0.243525" style="stroke:rgb(246,147,147);stroke-width:0.01" />
<line x1="-0.0744356" y1="-0.0375839" x2="0.274185" y2="0.13705" style="stroke:rgb(246,147,147);stroke-width:0.01" />
<line x1="0.354224" y1="0.0424103" x2="0.161547" y2="0.360662" style="stroke:rgb(246,147,147);stroke-width:0.01" />
<line x1="-0.0284889" y1="-0.232665" x2="-0.193341" y2="-0.211723" style="stroke:rgb(246,147,147);stroke-width:0.01" />
<line x1="-0.308277" y1="-0.118603" x2="-0.276371" y2="-0.109395" style="stroke:rgb(246,147,147);stroke-width:0.01" />
<line x1="0.0193225" y1="0.131842" x2="0.0132918" y2="0.137332" style="stroke:rgb(246,147,147);stroke-width:0.01" />
<line x1="0.354224" y1="0.0424103" x2="0.274185" y2="0.13705" style="stroke:rgb(246,147,147);stroke-width:0.01" />
<line x1="0.346428" y1="0.0368068" x2="0.0380062" y2="0.0986982" style="stroke:rgb(246,147,147);stroke-width:0.01" />
<line x1="0.385907" y1="0.0651828" x2="0.0132918" y2="0.137332" style="stroke:rgb(246,147,147);stroke-width:0.01" />
<line x1="0.438913" y1="0.103281" x2="0.274185" y2="0.13705" style="stroke:rgb(246,147,147);stroke-width:0.01" />
<line x1="0.461597" y1="0.287994" x2="0.378409" y2="0.288558" style="stroke:rgb(246,147,147);stroke-width:0.01" />
<line x1="0.42079" y1="0.325642" x2="0.466221" y2="0.325642" style="stroke:rgb(246,147,147);stroke-width:0.01" />
<line x1="0.461597" y1="0.287994" x2="0.161547" y2="0.360662" style="stroke:rgb(246,147,147);stroke-width:0.01" />
<line x1="0.466221" y1="0.325642" x2="0.171163" y2="0.399222" style="stroke:rgb(246,147,147);stroke-width:0.01" />
</g>
</svg>
