<svg xmlns="http://www.w3.org/2000/svg" viewBox="-1.5 -1.5 3 3">
<g transform="scale(1, -1)">
<path d="M-0.087109 -0.185156 L0.112109 -0.185156 L0.174609 -0.122656 L0.174609 0.150781 L0.049609 0.150781 L0.049609 -0.122656 L-0.087109 -0.122656 L-0.087109 0.279687 L-0.149609 0.279687 L-0.149609 -0.122656 z " fill="rgb(245,195,195)" />
<path d="M-0.551953 -0.247656 L0.448047 -0.247656 L0.448047 0.752344 L-0.551953 0.752344  z" fill="none" stroke="rgb(128,128,128)" stroke-width="0.01" />
<line x1="0.112109" y1="-0.185156" x2="0.174609" y2="-0.122656" style="stroke:rgb(246,147,147);stroke-width:0.01" />
<line x1="-0.149609" y1="-0.122656" x2="-0.149609" y2="0.279687" style="stroke:rgb(246,147,147);stroke-width:0.01" />
<line x1="-0.0871094" y1="-0.185156" x2="-0.0871094" y2="0.279687" style="stroke:rgb(246,147,147);stroke-width:0.01" />
<line x1="0.0496094" y1="-0.185156" x2="0.0496094" y2="0.150781" style="stroke:rgb(246,147,147);stroke-width:0.01" />
<line x1="0.174609" y1="-0.122656" x2="0.174609" y2="0.150781" style="stroke:rgb(246,147,147);stroke-width:0.01" />
<line x1="-0.0871094" y1="-0.185156" x2="0.112109" y2="-0.185156" style="stroke:rgb(246,147,147);stroke-width:0.01" />
<line x1="-0.149609" y1="-0.122656" x2="0.174609" y2="-0.122656" style="stroke:rgb(246,147,147);stroke-width:0.01" />
<line x1="-0.0871094" y1="-0.185156" x2="-0.149609" y2="-0.122656" style="stroke:rgb(246,147,147);stroke-width:0.01" />
<line x1="0.112109" y1="-0.185156" x2="0.0496094" y2="-0.122656" style="stroke:rgb(246,147,147);stroke-width:0.01" />
<line x1="0.0496094" y1="0.150781" x2="0.174609" y2="0.150781" style="stroke:rgb(246,147,147);stroke-width:0.01" />
<line x1="-0.149609" y1="0.279687" x2="-0.0871094" y2="0.279687" style="stroke:rgb(246,147,147);stroke-width:0.01" />
</g>
</svg>
