<svg xmlns="http://www.w3.org/2000/svg" viewBox="-1.5 -1.5 3 3">
<g transform="scale(1, -1)">
<path d="M0.464844 0.062500 L0.664062 0.062500 L0.726562 0.125000 L0.726562 0.398438 L0.601562 0.398438 L0.601562 0.125000 L0.464844 0.125000 L0.464844 0.527344 L0.402344 0.527344 L0.402344 0.125000 z " fill="rgb(245,195,195)" />
<path d="M0.000000 0.000000 L1.000000 0.000000 L1.000000 1.000000 L0.000000 1.000000  z" fill="none" stroke="rgb(128,128,128)" stroke-width="0.01" />
<line x1="0.664062" y1="0.0625" x2="0.726562" y2="0.125" style="stroke:rgb(246,147,147);stroke-width:0.01" />
<line x1="0.402344" y1="0.125" x2="0.402344" y2="0.527344" style="stroke:rgb(246,147,147);stroke-width:0.01" />
<line x1="0.464844" y1="0.0625" x2="0.464844" y2="0.527344" style="stroke:rgb(246,147,147);stroke-width:0.01" />
<line x1="0.601562" y1="0.0625" x2="0.601562" y2="0.398438" style="stroke:rgb(246,147,147);stroke-width:0.01" />
<line x1="0.726562" y1="0.125" x2="0.726562" y2="0.398438" style="stroke:rgb(246,147,147);stroke-width:0.01" />
<line x1="0.464844" y1="0.0625" x2="0.664062" y2="0.0625" style="stroke:rgb(246,147,147);stroke-width:0.01" />
<line x1="0.402344" y1="0.125" x2="0.726562" y2="0.125" style="stroke:rgb(246,147,147);stroke-width:0.01" />
<line x1="0.464844" y1="0.0625" x2="0.402344" y2="0.125" style="stroke:rgb(246,147,147);stroke-width:0.01" />
<line x1="0.664062" y1="0.0625" x2="0.601562" y2="0.125" style="stroke:rgb(246,147,147);stroke-width:0.01" />
<line x1="0.601562" y1="0.398438" x2="0.726562" y2="0.398438" style="stroke:rgb(246,147,147);stroke-width:0.01" />
<line x1="0.402344" y1="0.527344" x2="0.464844" y2="0.527344" style="stroke:rgb(246,147,147);stroke-width:0.01" />
</g>
</svg>
