<svg xmlns="http://www.w3.org/2000/svg" viewBox="-1.5 -1.5 3 3">
<g transform="scale(1, -1)">
<path d="M-0.159745 -0.174342 L0.113692 -0.174342 L0.176192 -0.111842 L0.176192 -0.033717 L0.113692 0.028783 L0.055099 0.028783 L0.055099 0.087377 L-0.007401 0.149877 L-0.101151 0.149877 L-0.163651 0.087377 L-0.163651 -0.037623 L-0.101151 -0.037623 L-0.101151 0.087377 L-0.007401 0.087377 L-0.007401 0.028783 L0.055099 -0.033717 L0.113692 -0.033717 L0.113692 -0.049342 L-0.159745 -0.049342 z " fill="rgb(245,195,195)" />
<path d="M-0.409745 -0.096217 L0.590255 -0.096217 L0.590255 0.903783 L-0.409745 0.903783  z" fill="none" stroke="rgb(128,128,128)" stroke-width="0.01" />
<line x1="0.113692" y1="-0.174342" x2="0.176192" y2="-0.111842" style="stroke:rgb(246,147,147);stroke-width:0.01" />
<line x1="-0.159745" y1="-0.174342" x2="0.113692" y2="-0.174342" style="stroke:rgb(246,147,147);stroke-width:0.01" />
<line x1="-0.163651" y1="0.0873766" x2="-0.101151" y2="0.149877" style="stroke:rgb(246,147,147);stroke-width:0.01" />
<line x1="-0.163651" y1="-0.0376234" x2="-0.163651" y2="0.0873766" style="stroke:rgb(246,147,147);stroke-width:0.01" />
<line x1="-0.159745" y1="-0.174342" x2="-0.159745" y2="-0.0493421" style="stroke:rgb(246,147,147);stroke-width:0.01" />
<line x1="-0.101151" y1="-0.0376234" x2="-0.101151" y2="0.149877" style="stroke:rgb(246,147,147);stroke-width:0.01" />
<line x1="-0.00740132" y1="0.0287829" x2="-0.00740132" y2="0.149877" style="stroke:rgb(246,147,147);stroke-width:0.01" />
<line x1="0.0550987" y1="-0.0337171" x2="0.0550987" y2="0.0873766" style="stroke:rgb(246,147,147);stroke-width:0.01" />
<line x1="0.113692" y1="-0.174342" x2="0.113692" y2="0.0287829" style="stroke:rgb(246,147,147);stroke-width:0.01" />
<line x1="0.176192" y1="-0.111842" x2="0.176192" y2="-0.0337171" style="stroke:rgb(246,147,147);stroke-width:0.01" />
<line x1="-0.159745" y1="-0.0493421" x2="0.176192" y2="-0.0493421" style="stroke:rgb(246,147,147);stroke-width:0.01" />
<line x1="-0.163651" y1="-0.0376234" x2="-0.101151" y2="-0.0376234" style="stroke:rgb(246,147,147);stroke-width:0.01" />
<line x1="0.0550987" y1="-0.0337171" x2="0.176192" y2="-0.0337171" style="stroke:rgb(246,147,147);stroke-width:0.01" />
<line x1="-0.00740132" y1="0.0287829" x2="0.113692" y2="0.0287829" style="stroke:rgb(246,147,147);stroke-width:0.01" />
<line x1="-0.163651" y1="0.0873766" x2="0.0550987" y2="0.0873766" style="stroke:rgb(246,147,147);stroke-width:0.01" />
<line x1="-0.101151" y1="0.149877" x2="-0.00740132" y2="0.149877" style="stroke:rgb(246,147,147);stroke-width:0.01" />
<line x1="0.0550987" y1="-0.0337171" x2="-0.00740132" y2="0.0287829" style="stroke:rgb(246,147,147);stroke-width:0.01" />
<line x1="0.176192" y1="-0.111842" x2="0.113692" y2="-0.0493421" style="stroke:rgb(246,147,147);stroke-width:0.01" />
<line x1="0.176192" y1="-0.0337171" x2="0.113692" y2="0.0287829" style="stroke:rgb(246,147,147);stroke-width:0.01" />
<line x1="0.0550987" y1="0.0873766" x2="-0.00740132" y2="0.149877" style="stroke:rgb(246,147,147);stroke-width:0.01" />
</g>
</svg>
