<svg xmlns="http://www.w3.org/2000/svg" viewBox="-1.5 -1.5 3 3">
<g transform="scale(1, -1)">
<path d="M0.250000 -0.078125 L0.523438 -0.078125 L0.585938 -0.015625 L0.585938 0.062500 L0.523438 0.125000 L0.464844 0.125000 L0.464844 0.183594 L0.402344 0.246094 L0.308594 0.246094 L0.246094 0.183594 L0.246094 0.058594 L0.308594 0.058594 L0.308594 0.183594 L0.402344 0.183594 L0.402344 0.125000 L0.464844 0.062500 L0.523438 0.062500 L0.523438 0.046875 L0.250000 0.046875 z " fill="rgb(245,195,195)" />
<path d="M0.000000 0.000000 L1.000000 0.000000 L1.000000 1.000000 L0.000000 1.000000  z" fill="none" stroke="rgb(128,128,128)" stroke-width="0.01" />
<line x1="0.523438" y1="-0.078125" x2="0.585938" y2="-0.015625" style="stroke:rgb(246,147,147);stroke-width:0.01" />
<line x1="0.25" y1="-0.078125" x2="0.523438" y2="-0.078125" style="stroke:rgb(246,147,147);stroke-width:0.01" />
<line x1="0.246094" y1="0.183594" x2="0.308594" y2="0.246094" style="stroke:rgb(246,147,147);stroke-width:0.01" />
<line x1="0.246094" y1="0.0585938" x2="0.246094" y2="0.183594" style="stroke:rgb(246,147,147);stroke-width:0.01" />
<line x1="0.25" y1="-0.078125" x2="0.25" y2="0.046875" style="stroke:rgb(246,147,147);stroke-width:0.01" />
<line x1="0.308594" y1="0.0585938" x2="0.308594" y2="0.246094" style="stroke:rgb(246,147,147);stroke-width:0.01" />
<line x1="0.402344" y1="0.125" x2="0.402344" y2="0.246094" style="stroke:rgb(246,147,147);stroke-width:0.01" />
<line x1="0.464844" y1="0.0625" x2="0.464844" y2="0.183594" style="stroke:rgb(246,147,147);stroke-width:0.01" />
<line x1="0.523438" y1="-0.078125" x2="0.523438" y2="0.125" style="stroke:rgb(246,147,147);stroke-width:0.01" />
<line x1="0.585938" y1="-0.015625" x2="0.585938" y2="0.0625" style="stroke:rgb(246,147,147);stroke-width:0.01" />
<line x1="0.25" y1="0.046875" x2="0.585938" y2="0.046875" style="stroke:rgb(246,147,147);stroke-width:0.01" />
<line x1="0.246094" y1="0.0585938" x2="0.308594" y2="0.0585938" style="stroke:rgb(246,147,147);stroke-width:0.01" />
<line x1="0.464844" y1="0.0625" x2="0.585938" y2="0.0625" style="stroke:rgb(246,147,147);stroke-width:0.01" />
<line x1="0.402344" y1="0.125" x2="0.523438" y2="0.125" style="stroke:rgb(246,147,147);stroke-width:0.01" />
<line x1="0.246094" y1="0.183594" x2="0.464844" y2="0.183594" style="stroke:rgb(246,147,147);stroke-width:0.01" />
<line x1="0.308594" y1="0.246094" x2="0.402344" y2="0.246094" style="stroke:rgb(246,147,147);stroke-width:0.01" />
<line x1="0.464844" y1="0.0625" x2="0.402344" y2="0.125" style="stroke:rgb(246,147,147);stroke-width:0.01" />
<line x1="0.585938" y1="-0.015625" x2="0.523438" y2="0.046875" style="stroke:rgb(246,147,147);stroke-width:0.01" />
<line x1="0.585938" y1="0.0625" x2="0.523438" y2="0.125" style="stroke:rgb(246,147,147);stroke-width:0.01" />
<line x1="0.464844" y1="0.183594" x2="0.402344" y2="0.246094" style="stroke:rgb(246,147,147);stroke-width:0.01" />
</g>
</svg>
