<svg xmlns="http://www.w3.org/2000/svg" viewBox="-1.5 -1.5 3 3">
<g transform="scale(1, -1)">
<path d="M-0.002175 -0.313346 L0.069253 -0.170488 L0.081122 -0.054437 L0.096225 -0.047873 L0.197825 1.086654 L-0.357395 0.254951 L-0.034848 0.039628 L-0.070384 -0.120286 L0.012068 -0.213642 L0.010483 -0.224738 L-0.002175 -0.236423 z " fill="rgb(245,195,195)" />
<path d="M-0.002175 -0.313346 L0.997825 -0.313346 L0.997825 0.686654 L-0.002175 0.686654  z" fill="none" stroke="rgb(128,128,128)" stroke-width="0.01" />
<line x1="0.0962255" y1="-0.0478728" x2="0.197825" y2="1.08665" style="stroke:rgb(246,147,147);stroke-width:0.01" />
<line x1="0.0692535" y1="-0.170488" x2="0.197825" y2="1.08665" style="stroke:rgb(246,147,147);stroke-width:0.01" />
<line x1="-0.0021751" y1="-0.313346" x2="0.0692535" y2="-0.170488" style="stroke:rgb(246,147,147);stroke-width:0.01" />
<line x1="-0.0021751" y1="-0.313346" x2="0.197825" y2="1.08665" style="stroke:rgb(246,147,147);stroke-width:0.01" />
<line x1="-0.0021751" y1="-0.313346" x2="-0.0021751" y2="-0.236423" style="stroke:rgb(246,147,147);stroke-width:0.01" />
<line x1="-0.0703842" y1="-0.120286" x2="0.197825" y2="1.08665" style="stroke:rgb(246,147,147);stroke-width:0.01" />
<line x1="-0.0021751" y1="-0.236423" x2="0.0692535" y2="-0.170488" style="stroke:rgb(246,147,147);stroke-width:0.01" />
<line x1="0.0348049" y1="-0.239386" x2="-0.0703842" y2="-0.120286" style="stroke:rgb(246,147,147);stroke-width:0.01" />
<line x1="0.0348049" y1="-0.239386" x2="-0.0021751" y2="-0.236423" style="stroke:rgb(246,147,147);stroke-width:0.01" />
<line x1="-0.0703842" y1="-0.120286" x2="0.0962255" y2="-0.0478728" style="stroke:rgb(246,147,147);stroke-width:0.01" />
<line x1="0.0962255" y1="-0.0478728" x2="-0.357395" y2="0.254951" style="stroke:rgb(246,147,147);stroke-width:0.01" />
<line x1="-0.357395" y1="0.254951" x2="0.197825" y2="1.08665" style="stroke:rgb(246,147,147);stroke-width:0.01" />
</g>
</svg>
