<svg xmlns="http://www.w3.org/2000/svg" viewBox="-1.5 -1.5 3 3">
<g transform="scale(1, -1)">
<path d="M0.000000 0.000000 L1.100000 0.000000 L1.100000 0.200000 L0.000000 0.200000 z " fill="rgb(245,195,195)" />
<path d="M0.000000 0.000000 L1.000000 0.000000 L1.000000 1.000000 L0.000000 1.000000  z" fill="none" stroke="rgb(128,128,128)" stroke-width="0.01" />
<line x1="0.95" y1="0" x2="1.1" y2="0.2" style="stroke:rgb(246,147,147);stroke-width:0.01" />
<line x1="0.65" y1="0" x2="0.8" y2="0.2" style="stroke:rgb(246,147,147);stroke-width:0.01" />
<line x1="0.566667" y1="0" x2="0.833333" y2="0.2" style="stroke:rgb(246,147,147);stroke-width:0.01" />
<line x1="0.5" y1="0" x2="0.596" y2="0.072" style="stroke:rgb(246,147,147);stroke-width:0.01" />
<line x1="0.3" y1="0" x2="0.396" y2="0.128" style="stroke:rgb(246,147,147);stroke-width:0.01" />
<line x1="0.0333333" y1="0" x2="0.204" y2="0.128" style="stroke:rgb(246,147,147);stroke-width:0.01" />
<line x1="0" y1="0" x2="1.1" y2="0" style="stroke:rgb(246,147,147);stroke-width:0.01" />
<line x1="0" y1="0" x2="0.15" y2="0.2" style="stroke:rgb(246,147,147);stroke-width:0.01" />
<line x1="0" y1="0" x2="0" y2="0.2" style="stroke:rgb(246,147,147);stroke-width:0.01" />
<line x1="1.1" y1="0" x2="1.1" y2="0.2" style="stroke:rgb(246,147,147);stroke-width:0.01" />
<line x1="0" y1="0.025" x2="0.233333" y2="0.2" style="stroke:rgb(246,147,147);stroke-width:0.01" />
<line x1="0.0333333" y1="0" x2="0" y2="0.025" style="stroke:rgb(246,147,147);stroke-width:0.01" />
<line x1="0.3" y1="0" x2="0.15" y2="0.2" style="stroke:rgb(246,147,147);stroke-width:0.01" />
<line x1="0" y1="0.2" x2="1.1" y2="0.2" style="stroke:rgb(246,147,147);stroke-width:0.01" />
<line x1="0.5" y1="0" x2="0.233333" y2="0.2" style="stroke:rgb(246,147,147);stroke-width:0.01" />
<line x1="0.566667" y1="0" x2="0.396" y2="0.128" style="stroke:rgb(246,147,147);stroke-width:0.01" />
<line x1="0.65" y1="0" x2="0.596" y2="0.072" style="stroke:rgb(246,147,147);stroke-width:0.01" />
<line x1="0.95" y1="0" x2="0.8" y2="0.2" style="stroke:rgb(246,147,147);stroke-width:0.01" />
<line x1="1.1" y1="0" x2="0.833333" y2="0.2" style="stroke:rgb(246,147,147);stroke-width:0.01" />
</g>
</svg>
