<svg xmlns="http://www.w3.org/2000/svg" viewBox="-1.5 -1.5 3 3">
<g transform="scale(1, -1)">
<path d="M-0.550000 -0.100000 L0.550000 -0.100000 L0.550000 0.100000 L-0.550000 0.100000 z " fill="rgb(245,195,195)" />
<path d="M-0.550000 -0.100000 L0.450000 -0.100000 L0.450000 0.900000 L-0.550000 0.900000  z" fill="none" stroke="rgb(128,128,128)" stroke-width="0.01" />
<line x1="0.4" y1="-0.1" x2="0.55" y2="0.1" style="stroke:rgb(246,147,147);stroke-width:0.01" />
<line x1="0.1" y1="-0.1" x2="0.25" y2="0.1" style="stroke:rgb(246,147,147);stroke-width:0.01" />
<line x1="0.0166667" y1="-0.1" x2="0.283333" y2="0.1" style="stroke:rgb(246,147,147);stroke-width:0.01" />
<line x1="-0.05" y1="-0.1" x2="0.046" y2="-0.028" style="stroke:rgb(246,147,147);stroke-width:0.01" />
<line x1="-0.25" y1="-0.1" x2="-0.154" y2="0.028" style="stroke:rgb(246,147,147);stroke-width:0.01" />
<line x1="-0.516667" y1="-0.1" x2="-0.346" y2="0.028" style="stroke:rgb(246,147,147);stroke-width:0.01" />
<line x1="-0.55" y1="-0.1" x2="0.55" y2="-0.1" style="stroke:rgb(246,147,147);stroke-width:0.01" />
<line x1="-0.55" y1="-0.1" x2="-0.4" y2="0.1" style="stroke:rgb(246,147,147);stroke-width:0.01" />
<line x1="-0.55" y1="-0.1" x2="-0.55" y2="0.1" style="stroke:rgb(246,147,147);stroke-width:0.01" />
<line x1="0.55" y1="-0.1" x2="0.55" y2="0.1" style="stroke:rgb(246,147,147);stroke-width:0.01" />
<line x1="-0.55" y1="-0.075" x2="-0.316667" y2="0.1" style="stroke:rgb(246,147,147);stroke-width:0.01" />
<line x1="-0.516667" y1="-0.1" x2="-0.55" y2="-0.075" style="stroke:rgb(246,147,147);stroke-width:0.01" />
<line x1="-0.25" y1="-0.1" x2="-0.4" y2="0.1" style="stroke:rgb(246,147,147);stroke-width:0.01" />
<line x1="-0.55" y1="0.1" x2="0.55" y2="0.1" style="stroke:rgb(246,147,147);stroke-width:0.01" />
<line x1="-0.05" y1="-0.1" x2="-0.316667" y2="0.1" style="stroke:rgb(246,147,147);stroke-width:0.01" />
<line x1="0.0166667" y1="-0.1" x2="-0.154" y2="0.028" style="stroke:rgb(246,147,147);stroke-width:0.01" />
<line x1="0.1" y1="-0.1" x2="0.046" y2="-0.028" style="stroke:rgb(246,147,147);stroke-width:0.01" />
<line x1="0.4" y1="-0.1" x2="0.25" y2="0.1" style="stroke:rgb(246,147,147);stroke-width:0.01" />
<line x1="0.55" y1="-0.1" x2="0.283333" y2="0.1" style="stroke:rgb(246,147,147);stroke-width:0.01" />
</g>
</svg>
