<svg xmlns="http://www.w3.org/2000/svg" viewBox="-1.5 -1.5 3 3">
<g transform="scale(1, -1)">
<path d="M0.027759 -1.025217 L0.474818 -0.873248 L0.367020 -0.556132 L-0.481653 -0.142185 L-0.793819 -0.248300 L-0.592648 -0.840101 z " fill="rgb(245,195,195)" />
<path d="M0.000000 0.000000 L1.000000 0.000000 L1.000000 1.000000 L0.000000 1.000000  z" fill="none" stroke="rgb(128,128,128)" stroke-width="0.01" />
<line x1="0.0277589" y1="-1.02522" x2="-0.592648" y2="-0.840101" style="stroke:rgb(246,147,147);stroke-width:0.01" />
<line x1="0.0277589" y1="-1.02522" x2="0.474818" y2="-0.873248" style="stroke:rgb(246,147,147);stroke-width:0.01" />
<line x1="-0.260961" y1="-0.775102" x2="0.36702" y2="-0.556132" style="stroke:rgb(246,147,147);stroke-width:0.01" />
<line x1="0.0277589" y1="-1.02522" x2="-0.29718" y2="-0.609277" style="stroke:rgb(246,147,147);stroke-width:0.01" />
<line x1="0.36702" y1="-0.556132" x2="-0.481653" y2="-0.142185" style="stroke:rgb(246,147,147);stroke-width:0.01" />
<line x1="-0.592648" y1="-0.840101" x2="-0.793819" y2="-0.2483" style="stroke:rgb(246,147,147);stroke-width:0.01" />
<line x1="-0.592648" y1="-0.840101" x2="-0.29718" y2="-0.609277" style="stroke:rgb(246,147,147);stroke-width:0.01" />
<line x1="-0.260961" y1="-0.775102" x2="-0.481653" y2="-0.142185" style="stroke:rgb(246,147,147);stroke-width:0.01" />
<line x1="-0.793819" y1="-0.2483" x2="-0.481653" y2="-0.142185" style="stroke:rgb(246,147,147);stroke-width:0.01" />
<line x1="0.474818" y1="-0.873248" x2="0.36702" y2="-0.556132" style="stroke:rgb(246,147,147);stroke-width:0.01" />
</g>
</svg>
