<svg xmlns="http://www.w3.org/2000/svg" viewBox="-1.5 -1.5 3 3">
<g transform="scale(1, -1)">
<path d="M-0.120883 -0.319788 L0.028634 -0.298663 L0.222158 -0.182008 L0.295219 -0.028240 L0.243407 0.133476 L0.149559 0.293045 L-0.028607 0.304733 L-0.228018 0.176820 L-0.289305 0.045569 L-0.272164 -0.124943 z " fill="rgb(245,195,195)" />
<path d="M-2.984048 -0.676477 L-1.984048 -0.676477 L-1.984048 0.323523 L-2.984048 0.323523  z" fill="none" stroke="rgb(128,128,128)" stroke-width="0.01" />
<line x1="0.028634" y1="-0.298663" x2="0.198404" y2="-0.0639614" style="stroke:rgb(246,147,147);stroke-width:0.01" />
<line x1="-0.054076" y1="-0.29946" x2="0.0231451" y2="-0.232941" style="stroke:rgb(246,147,147);stroke-width:0.01" />
<line x1="-0.149759" y1="-0.282597" x2="-0.0645053" y2="-0.200886" style="stroke:rgb(246,147,147);stroke-width:0.01" />
<line x1="-0.13136" y1="-0.284382" x2="-0.0789589" y2="-0.238583" style="stroke:rgb(246,147,147);stroke-width:0.01" />
<line x1="0.130987" y1="0.269246" x2="0.149559" y2="0.293045" style="stroke:rgb(246,147,147);stroke-width:0.01" />
<line x1="0.222158" y1="-0.182008" x2="0.295219" y2="-0.0282405" style="stroke:rgb(246,147,147);stroke-width:0.01" />
<line x1="0.0614172" y1="0.211514" x2="0.118034" y2="0.295113" style="stroke:rgb(246,147,147);stroke-width:0.01" />
<line x1="0.208645" y1="-0.0869484" x2="0.295219" y2="-0.0282405" style="stroke:rgb(246,147,147);stroke-width:0.01" />
<line x1="-0.000774791" y1="-0.0186067" x2="0.114076" y2="0.0761158" style="stroke:rgb(246,147,147);stroke-width:0.01" />
<line x1="0.028634" y1="-0.298663" x2="0.222158" y2="-0.182008" style="stroke:rgb(246,147,147);stroke-width:0.01" />
<line x1="-0.272352" y1="-0.123067" x2="-0.028607" y2="0.304733" style="stroke:rgb(246,147,147);stroke-width:0.01" />
<line x1="-0.149759" y1="-0.282597" x2="-0.0789589" y2="-0.238583" style="stroke:rgb(246,147,147);stroke-width:0.01" />
<line x1="0.251109" y1="0.0466431" x2="0.261906" y2="0.075735" style="stroke:rgb(246,147,147);stroke-width:0.01" />
<line x1="-0.120883" y1="-0.319788" x2="0.0492016" y2="0.106713" style="stroke:rgb(246,147,147);stroke-width:0.01" />
<line x1="-0.0285074" y1="-0.306736" x2="0.114076" y2="0.0761158" style="stroke:rgb(246,147,147);stroke-width:0.01" />
<line x1="-0.289305" y1="0.0455691" x2="-0.228018" y2="0.17682" style="stroke:rgb(246,147,147);stroke-width:0.01" />
<line x1="0.210629" y1="-0.100906" x2="0.277727" y2="-0.0650541" style="stroke:rgb(246,147,147);stroke-width:0.01" />
<line x1="0.103018" y1="-0.19583" x2="0.228219" y2="-0.134793" style="stroke:rgb(246,147,147);stroke-width:0.01" />
<line x1="-0.228018" y1="0.17682" x2="-0.028607" y2="0.304733" style="stroke:rgb(246,147,147);stroke-width:0.01" />
<line x1="0.0944203" y1="-0.259007" x2="0.103018" y2="-0.19583" style="stroke:rgb(246,147,147);stroke-width:0.01" />
<line x1="0.218531" y1="-0.15649" x2="0.23638" y2="-0.152075" style="stroke:rgb(246,147,147);stroke-width:0.01" />
<line x1="0.218399" y1="-0.155566" x2="0.236638" y2="-0.151532" style="stroke:rgb(246,147,147);stroke-width:0.01" />
<line x1="-0.120883" y1="-0.319788" x2="0.028634" y2="-0.298663" style="stroke:rgb(246,147,147);stroke-width:0.01" />
<line x1="0.0492016" y1="0.106713" x2="0.236999" y2="0.143405" style="stroke:rgb(246,147,147);stroke-width:0.01" />
<line x1="0.0451643" y1="0.0965893" x2="0.108768" y2="0.107385" style="stroke:rgb(246,147,147);stroke-width:0.01" />
<line x1="-0.272164" y1="-0.124943" x2="-0.289305" y2="0.0455691" style="stroke:rgb(246,147,147);stroke-width:0.01" />
<line x1="0.251109" y1="0.0466431" x2="0.243407" y2="0.133476" style="stroke:rgb(246,147,147);stroke-width:0.01" />
<line x1="-0.054076" y1="-0.29946" x2="-0.0645053" y2="-0.200886" style="stroke:rgb(246,147,147);stroke-width:0.01" />
<line x1="0.218399" y1="-0.155566" x2="0.235241" y2="-0.154474" style="stroke:rgb(246,147,147);stroke-width:0.01" />
<line x1="-0.173348" y1="-0.252215" x2="-0.228018" y2="0.17682" style="stroke:rgb(246,147,147);stroke-width:0.01" />
<line x1="0.033281" y1="-0.295861" x2="-0.000774791" y2="-0.0186067" style="stroke:rgb(246,147,147);stroke-width:0.01" />
<line x1="0.218531" y1="-0.15649" x2="0.234588" y2="-0.155848" style="stroke:rgb(246,147,147);stroke-width:0.01" />
<line x1="0.222158" y1="-0.182008" x2="0.208645" y2="-0.0869484" style="stroke:rgb(246,147,147);stroke-width:0.01" />
<line x1="0.0332098" y1="-0.295904" x2="0.0231451" y2="-0.232941" style="stroke:rgb(246,147,147);stroke-width:0.01" />
<line x1="0.114076" y1="0.0761158" x2="0.108768" y2="0.107385" style="stroke:rgb(246,147,147);stroke-width:0.01" />
<line x1="0.277727" y1="-0.0650541" x2="0.236999" y2="0.143405" style="stroke:rgb(246,147,147);stroke-width:0.01" />
<line x1="0.295219" y1="-0.0282405" x2="0.243407" y2="0.133476" style="stroke:rgb(246,147,147);stroke-width:0.01" />
<line x1="0.149559" y1="0.293045" x2="-0.028607" y2="0.304733" style="stroke:rgb(246,147,147);stroke-width:0.01" />
<line x1="0.256123" y1="-0.110523" x2="0.210629" y2="-0.100906" style="stroke:rgb(246,147,147);stroke-width:0.01" />
<line x1="-0.054076" y1="-0.29946" x2="-0.173348" y2="-0.252215" style="stroke:rgb(246,147,147);stroke-width:0.01" />
<line x1="0.23638" y1="-0.152075" x2="0.228219" y2="-0.134793" style="stroke:rgb(246,147,147);stroke-width:0.01" />
<line x1="0.0944203" y1="-0.259007" x2="-0.272164" y2="-0.124943" style="stroke:rgb(246,147,147);stroke-width:0.01" />
<line x1="0.236638" y1="-0.151532" x2="0.228219" y2="-0.134793" style="stroke:rgb(246,147,147);stroke-width:0.01" />
<line x1="0.130987" y1="0.269246" x2="0.118034" y2="0.295113" style="stroke:rgb(246,147,147);stroke-width:0.01" />
<line x1="0.259493" y1="-0.103432" x2="0.208645" y2="-0.0869484" style="stroke:rgb(246,147,147);stroke-width:0.01" />
<line x1="-0.120883" y1="-0.319788" x2="-0.272164" y2="-0.124943" style="stroke:rgb(246,147,147);stroke-width:0.01" />
<line x1="-0.0285074" y1="-0.306736" x2="-0.289305" y2="0.0455691" style="stroke:rgb(246,147,147);stroke-width:0.01" />
<line x1="0.130987" y1="0.269246" x2="-0.028607" y2="0.304733" style="stroke:rgb(246,147,147);stroke-width:0.01" />
<line x1="-0.13136" y1="-0.284382" x2="-0.272352" y2="-0.123067" style="stroke:rgb(246,147,147);stroke-width:0.01" />
<line x1="0.295219" y1="-0.0282405" x2="0.251109" y2="0.0466431" style="stroke:rgb(246,147,147);stroke-width:0.01" />
<line x1="0.243407" y1="0.133476" x2="0.149559" y2="0.293045" style="stroke:rgb(246,147,147);stroke-width:0.01" />
<line x1="0.033281" y1="-0.295861" x2="0.0315379" y2="-0.294648" style="stroke:rgb(246,147,147);stroke-width:0.01" />
<line x1="0.0332098" y1="-0.295904" x2="0.0315379" y2="-0.294648" style="stroke:rgb(246,147,147);stroke-width:0.01" />
<line x1="0.235241" y1="-0.154474" x2="0.0492016" y2="0.106713" style="stroke:rgb(246,147,147);stroke-width:0.01" />
<line x1="0.234588" y1="-0.155848" x2="0.0451643" y2="0.0965893" style="stroke:rgb(246,147,147);stroke-width:0.01" />
<line x1="0.259493" y1="-0.103432" x2="0.198404" y2="-0.0639614" style="stroke:rgb(246,147,147);stroke-width:0.01" />
<line x1="0.256123" y1="-0.110523" x2="0.198404" y2="-0.0639614" style="stroke:rgb(246,147,147);stroke-width:0.01" />
<line x1="0.261906" y1="0.075735" x2="0.0614172" y2="0.211514" style="stroke:rgb(246,147,147);stroke-width:0.01" />
</g>
</svg>
