<svg xmlns="http://www.w3.org/2000/svg" viewBox="-1.5 -1.5 3 3">
<g transform="scale(1, -1)">
<path d="M0.115385 0.048077 L0.230769 0.096154 L0.298077 0.259615 L0.250000 0.375000 L0.086538 0.442308 L-0.028846 0.394231 L-0.096154 0.230769 L-0.048077 0.115385 z M0.067308 0.163462 L0.019231 0.278846 L0.134615 0.326923 L0.182692 0.211538 z " fill="rgb(245,195,195)" />
<path d="M0.000000 0.000000 L1.000000 0.000000 L1.000000 1.000000 L0.000000 1.000000  z" fill="none" stroke="rgb(128,128,128)" stroke-width="0.01" />
<line x1="0.230769" y1="0.0961538" x2="0.298077" y2="0.259615" style="stroke:rgb(246,147,147);stroke-width:0.01" />
<line x1="0.115385" y1="0.0480769" x2="0.230769" y2="0.0961538" style="stroke:rgb(246,147,147);stroke-width:0.01" />
<line x1="-0.0480769" y1="0.115385" x2="-0.0961538" y2="0.230769" style="stroke:rgb(246,147,147);stroke-width:0.01" />
<line x1="0.115385" y1="0.0480769" x2="-0.0288462" y2="0.394231" style="stroke:rgb(246,147,147);stroke-width:0.01" />
<line x1="-0.0961538" y1="0.230769" x2="-0.0288462" y2="0.394231" style="stroke:rgb(246,147,147);stroke-width:0.01" />
<line x1="0.115385" y1="0.0480769" x2="-0.0480769" y2="0.115385" style="stroke:rgb(246,147,147);stroke-width:0.01" />
<line x1="0.230769" y1="0.0961538" x2="0.0865385" y2="0.442308" style="stroke:rgb(246,147,147);stroke-width:0.01" />
<line x1="-0.0480769" y1="0.115385" x2="0.298077" y2="0.259615" style="stroke:rgb(246,147,147);stroke-width:0.01" />
<line x1="0.298077" y1="0.259615" x2="0.25" y2="0.375" style="stroke:rgb(246,147,147);stroke-width:0.01" />
<line x1="-0.0961538" y1="0.230769" x2="0.25" y2="0.375" style="stroke:rgb(246,147,147);stroke-width:0.01" />
<line x1="-0.0288462" y1="0.394231" x2="0.0865385" y2="0.442308" style="stroke:rgb(246,147,147);stroke-width:0.01" />
<line x1="0.25" y1="0.375" x2="0.0865385" y2="0.442308" style="stroke:rgb(246,147,147);stroke-width:0.01" />
</g>
</svg>
