<svg xmlns="http://www.w3.org/2000/svg" viewBox="-1.5 -1.5 3 3">
<g transform="scale(1, -1)">
<path d="M0.014423 -0.197115 L0.129808 -0.149038 L0.197115 0.014423 L0.149038 0.129808 L-0.014423 0.197115 L-0.129808 0.149038 L-0.197115 -0.014423 L-0.149038 -0.129808 z M-0.033654 -0.081731 L-0.081731 0.033654 L0.033654 0.081731 L0.081731 -0.033654 z " fill="rgb(245,195,195)" />
<path d="M-0.100962 -0.245192 L0.899038 -0.245192 L0.899038 0.754808 L-0.100962 0.754808  z" fill="none" stroke="rgb(128,128,128)" stroke-width="0.01" />
<line x1="0.129808" y1="-0.149038" x2="0.197115" y2="0.0144231" style="stroke:rgb(246,147,147);stroke-width:0.01" />
<line x1="0.0144231" y1="-0.197115" x2="0.129808" y2="-0.149038" style="stroke:rgb(246,147,147);stroke-width:0.01" />
<line x1="-0.149038" y1="-0.129808" x2="-0.197115" y2="-0.0144231" style="stroke:rgb(246,147,147);stroke-width:0.01" />
<line x1="0.0144231" y1="-0.197115" x2="-0.129808" y2="0.149038" style="stroke:rgb(246,147,147);stroke-width:0.01" />
<line x1="-0.197115" y1="-0.0144231" x2="-0.129808" y2="0.149038" style="stroke:rgb(246,147,147);stroke-width:0.01" />
<line x1="0.0144231" y1="-0.197115" x2="-0.149038" y2="-0.129808" style="stroke:rgb(246,147,147);stroke-width:0.01" />
<line x1="0.129808" y1="-0.149038" x2="-0.0144231" y2="0.197115" style="stroke:rgb(246,147,147);stroke-width:0.01" />
<line x1="-0.149038" y1="-0.129808" x2="0.197115" y2="0.0144231" style="stroke:rgb(246,147,147);stroke-width:0.01" />
<line x1="0.197115" y1="0.0144231" x2="0.149038" y2="0.129808" style="stroke:rgb(246,147,147);stroke-width:0.01" />
<line x1="-0.197115" y1="-0.0144231" x2="0.149038" y2="0.129808" style="stroke:rgb(246,147,147);stroke-width:0.01" />
<line x1="-0.129808" y1="0.149038" x2="-0.0144231" y2="0.197115" style="stroke:rgb(246,147,147);stroke-width:0.01" />
<line x1="0.149038" y1="0.129808" x2="-0.0144231" y2="0.197115" style="stroke:rgb(246,147,147);stroke-width:0.01" />
</g>
</svg>
