<svg xmlns="http://www.w3.org/2000/svg" viewBox="-1.5 -1.5 3 3">
<g transform="scale(1, -1)">
<path d="M-0.503550 -0.384813 L0.496450 -0.384813 L0.496450 0.095187 L0.503550 0.098146 L0.503550 0.598146 L-0.496450 0.598146 L-0.496450 -0.308521 L-0.503550 -0.311479 z " fill="rgb(245,195,195)" />
<path d="M0.503550 0.598146 L1.503550 0.598146 L1.503550 1.598146 L0.503550 1.598146  z" fill="none" stroke="rgb(128,128,128)" stroke-width="0.01" />
<line x1="-0.50355" y1="-0.384813" x2="0.49645" y2="-0.384813" style="stroke:rgb(246,147,147);stroke-width:0.01" />
<line x1="-0.49645" y1="-0.318521" x2="-0.50355" y2="-0.311479" style="stroke:rgb(246,147,147);stroke-width:0.01" />
<line x1="-0.49645" y1="-0.318521" x2="0.50355" y2="0.098146" style="stroke:rgb(246,147,147);stroke-width:0.01" />
<line x1="-0.50355" y1="-0.311479" x2="0.49645" y2="0.105187" style="stroke:rgb(246,147,147);stroke-width:0.01" />
<line x1="0.50355" y1="0.098146" x2="0.49645" y2="0.105187" style="stroke:rgb(246,147,147);stroke-width:0.01" />
<line x1="-0.50355" y1="-0.384813" x2="-0.50355" y2="-0.311479" style="stroke:rgb(246,147,147);stroke-width:0.01" />
<line x1="-0.49645" y1="-0.318521" x2="-0.49645" y2="0.598146" style="stroke:rgb(246,147,147);stroke-width:0.01" />
<line x1="0.49645" y1="-0.384813" x2="0.49645" y2="0.105187" style="stroke:rgb(246,147,147);stroke-width:0.01" />
<line x1="-0.49645" y1="0.598146" x2="0.50355" y2="0.598146" style="stroke:rgb(246,147,147);stroke-width:0.01" />
<line x1="0.50355" y1="0.098146" x2="0.50355" y2="0.598146" style="stroke:rgb(246,147,147);stroke-width:0.01" />
</g>
</svg>
