<svg xmlns="http://www.w3.org/2000/svg" viewBox="-1.5 -1.5 3 3">
<g transform="scale(1, -1)">
<path d="M0.582500 0.363333 L0.632500 0.400833 L0.530000 0.537500 L0.610000 0.597500 L0.572500 0.647500 L0.492500 0.587500 L0.432500 0.667500 L0.382500 0.630000 L0.462500 0.523333 L0.352500 0.440833 L0.390000 0.390833 L0.500000 0.473333 z " fill="rgb(245,195,195)" />
<path d="M0.000000 0.000000 L1.000000 0.000000 L1.000000 1.000000 L0.000000 1.000000  z" fill="none" stroke="rgb(128,128,128)" stroke-width="0.01" />
<line x1="0.5" y1="0.473333" x2="0.5125" y2="0.560833" style="stroke:rgb(246,147,147);stroke-width:0.01" />
<line x1="0.48" y1="0.5" x2="0.4925" y2="0.5875" style="stroke:rgb(246,147,147);stroke-width:0.01" />
<line x1="0.5825" y1="0.363333" x2="0.6325" y2="0.400833" style="stroke:rgb(246,147,147);stroke-width:0.01" />
<line x1="0.39" y1="0.390833" x2="0.5" y2="0.473333" style="stroke:rgb(246,147,147);stroke-width:0.01" />
<line x1="0.48" y1="0.5" x2="0.61" y2="0.5975" style="stroke:rgb(246,147,147);stroke-width:0.01" />
<line x1="0.3525" y1="0.440833" x2="0.5125" y2="0.560833" style="stroke:rgb(246,147,147);stroke-width:0.01" />
<line x1="0.4925" y1="0.5875" x2="0.5725" y2="0.6475" style="stroke:rgb(246,147,147);stroke-width:0.01" />
<line x1="0.3825" y1="0.63" x2="0.4325" y2="0.6675" style="stroke:rgb(246,147,147);stroke-width:0.01" />
<line x1="0.39" y1="0.390833" x2="0.3525" y2="0.440833" style="stroke:rgb(246,147,147);stroke-width:0.01" />
<line x1="0.5825" y1="0.363333" x2="0.3825" y2="0.63" style="stroke:rgb(246,147,147);stroke-width:0.01" />
<line x1="0.6325" y1="0.400833" x2="0.4325" y2="0.6675" style="stroke:rgb(246,147,147);stroke-width:0.01" />
<line x1="0.61" y1="0.5975" x2="0.5725" y2="0.6475" style="stroke:rgb(246,147,147);stroke-width:0.01" />
</g>
</svg>
