<svg xmlns="http://www.w3.org/2000/svg" viewBox="-1.5 -1.5 3 3">
<g transform="scale(1, -1)">
<path d="M0.087500 -0.158333 L0.137500 -0.120833 L0.035000 0.015833 L0.115000 0.075833 L0.077500 0.125833 L-0.002500 0.065833 L-0.062500 0.145833 L-0.112500 0.108333 L-0.032500 0.001667 L-0.142500 -0.080833 L-0.105000 -0.130833 L0.005000 -0.048333 z " fill="rgb(245,195,195)" />
<path d="M-0.495000 -0.521667 L0.505000 -0.521667 L0.505000 0.478333 L-0.495000 0.478333  z" fill="none" stroke="rgb(128,128,128)" stroke-width="0.01" />
<line x1="0.005" y1="-0.0483333" x2="0.0175" y2="0.0391667" style="stroke:rgb(246,147,147);stroke-width:0.01" />
<line x1="-0.015" y1="-0.0216667" x2="-0.0025" y2="0.0658333" style="stroke:rgb(246,147,147);stroke-width:0.01" />
<line x1="0.0875" y1="-0.158333" x2="0.1375" y2="-0.120833" style="stroke:rgb(246,147,147);stroke-width:0.01" />
<line x1="-0.105" y1="-0.130833" x2="0.005" y2="-0.0483333" style="stroke:rgb(246,147,147);stroke-width:0.01" />
<line x1="-0.015" y1="-0.0216667" x2="0.115" y2="0.0758333" style="stroke:rgb(246,147,147);stroke-width:0.01" />
<line x1="-0.1425" y1="-0.0808333" x2="0.0175" y2="0.0391667" style="stroke:rgb(246,147,147);stroke-width:0.01" />
<line x1="-0.0025" y1="0.0658333" x2="0.0775" y2="0.125833" style="stroke:rgb(246,147,147);stroke-width:0.01" />
<line x1="-0.1125" y1="0.108333" x2="-0.0625" y2="0.145833" style="stroke:rgb(246,147,147);stroke-width:0.01" />
<line x1="-0.105" y1="-0.130833" x2="-0.1425" y2="-0.0808333" style="stroke:rgb(246,147,147);stroke-width:0.01" />
<line x1="0.0875" y1="-0.158333" x2="-0.1125" y2="0.108333" style="stroke:rgb(246,147,147);stroke-width:0.01" />
<line x1="0.1375" y1="-0.120833" x2="-0.0625" y2="0.145833" style="stroke:rgb(246,147,147);stroke-width:0.01" />
<line x1="0.115" y1="0.0758333" x2="0.0775" y2="0.125833" style="stroke:rgb(246,147,147);stroke-width:0.01" />
</g>
</svg>
