<svg xmlns="http://www.w3.org/2000/svg" viewBox="-1.5 -1.5 3 3">
<g transform="scale(1, -1)">
<path d="M0.531667 0.079167 L0.893376 0.386619 L0.732051 0.585160 L0.714322 0.588054 L0.531667 0.793542 L0.440527 0.804301 L0.335925 0.281291 L0.405294 0.261548 L0.408475 0.272726 L0.462597 0.266337 L0.368897 0.131918 L0.347462 0.125635 L0.352511 0.108411 z " fill="rgb(245,195,195)" />
<path d="M0.000000 0.000000 L1.000000 0.000000 L1.000000 1.000000 L0.000000 1.000000  z" fill="none" stroke="rgb(128,128,128)" stroke-width="0.01" />
<line x1="0.712077" y1="0.232516" x2="0.823576" y2="0.465143" style="stroke:rgb(246,147,147);stroke-width:0.01" />
<line x1="0.531667" y1="0.0791667" x2="0.893376" y2="0.386619" style="stroke:rgb(246,147,147);stroke-width:0.01" />
<line x1="0.352511" y1="0.108411" x2="0.487939" y2="0.302692" style="stroke:rgb(246,147,147);stroke-width:0.01" />
<line x1="0.405294" y1="0.261548" x2="0.547078" y2="0.759719" style="stroke:rgb(246,147,147);stroke-width:0.01" />
<line x1="0.453534" y1="0.0919207" x2="0.539187" y2="0.616642" style="stroke:rgb(246,147,147);stroke-width:0.01" />
<line x1="0.335925" y1="0.281291" x2="0.440527" y2="0.804301" style="stroke:rgb(246,147,147);stroke-width:0.01" />
<line x1="0.71659" y1="0.236352" x2="0.732051" y2="0.58516" style="stroke:rgb(246,147,147);stroke-width:0.01" />
<line x1="0.531667" y1="0.0791667" x2="0.531667" y2="0.793542" style="stroke:rgb(246,147,147);stroke-width:0.01" />
<line x1="0.347462" y1="0.125635" x2="0.712077" y2="0.232516" style="stroke:rgb(246,147,147);stroke-width:0.01" />
<line x1="0.397877" y1="0.59105" x2="0.547078" y2="0.759719" style="stroke:rgb(246,147,147);stroke-width:0.01" />
<line x1="0.352511" y1="0.108411" x2="0.347462" y2="0.125635" style="stroke:rgb(246,147,147);stroke-width:0.01" />
<line x1="0.695571" y1="0.218486" x2="0.576285" y2="0.743346" style="stroke:rgb(246,147,147);stroke-width:0.01" />
<line x1="0.531667" y1="0.0791667" x2="0.352511" y2="0.108411" style="stroke:rgb(246,147,147);stroke-width:0.01" />
<line x1="0.480973" y1="0.348007" x2="0.823576" y2="0.465143" style="stroke:rgb(246,147,147);stroke-width:0.01" />
<line x1="0.480973" y1="0.348007" x2="0.397877" y2="0.59105" style="stroke:rgb(246,147,147);stroke-width:0.01" />
<line x1="0.71659" y1="0.236352" x2="0.335925" y2="0.281291" style="stroke:rgb(246,147,147);stroke-width:0.01" />
<line x1="0.405294" y1="0.261548" x2="0.335925" y2="0.281291" style="stroke:rgb(246,147,147);stroke-width:0.01" />
<line x1="0.695571" y1="0.218486" x2="0.487939" y2="0.302692" style="stroke:rgb(246,147,147);stroke-width:0.01" />
<line x1="0.893376" y1="0.386619" x2="0.732051" y2="0.58516" style="stroke:rgb(246,147,147);stroke-width:0.01" />
<line x1="0.893376" y1="0.386619" x2="0.531667" y2="0.793542" style="stroke:rgb(246,147,147);stroke-width:0.01" />
<line x1="0.732051" y1="0.58516" x2="0.539187" y2="0.616642" style="stroke:rgb(246,147,147);stroke-width:0.01" />
<line x1="0.492803" y1="0.789423" x2="0.43814" y2="0.792367" style="stroke:rgb(246,147,147);stroke-width:0.01" />
<line x1="0.547078" y1="0.759719" x2="0.492803" y2="0.789423" style="stroke:rgb(246,147,147);stroke-width:0.01" />
<line x1="0.576285" y1="0.743346" x2="0.43814" y2="0.792367" style="stroke:rgb(246,147,147);stroke-width:0.01" />
<line x1="0.531667" y1="0.793542" x2="0.440527" y2="0.804301" style="stroke:rgb(246,147,147);stroke-width:0.01" />
<line x1="0.492803" y1="0.789423" x2="0.440527" y2="0.804301" style="stroke:rgb(246,147,147);stroke-width:0.01" />
</g>
</svg>
