<svg xmlns="http://www.w3.org/2000/svg" viewBox="-1.5 -1.5 3 3">
<g transform="scale(1, -1)">
<path d="M0.029761 -0.281196 L0.391470 0.026257 L0.230146 0.224798 L0.212417 0.227692 L0.029761 0.433179 L-0.061378 0.443939 L-0.165980 -0.079071 L-0.096612 -0.098814 L-0.093430 -0.087636 L-0.039308 -0.094025 L-0.133008 -0.228444 L-0.154443 -0.234727 L-0.149394 -0.251951 z " fill="rgb(245,195,195)" />
<path d="M-0.501905 -0.360362 L0.498095 -0.360362 L0.498095 0.639638 L-0.501905 0.639638  z" fill="none" stroke="rgb(128,128,128)" stroke-width="0.01" />
<line x1="0.210172" y1="-0.127847" x2="0.321671" y2="0.104781" style="stroke:rgb(246,147,147);stroke-width:0.01" />
<line x1="0.0297613" y1="-0.281196" x2="0.39147" y2="0.0262569" style="stroke:rgb(246,147,147);stroke-width:0.01" />
<line x1="-0.149394" y1="-0.251951" x2="-0.013966" y2="-0.0576707" style="stroke:rgb(246,147,147);stroke-width:0.01" />
<line x1="-0.0966119" y1="-0.0988141" x2="0.045173" y2="0.399356" style="stroke:rgb(246,147,147);stroke-width:0.01" />
<line x1="-0.0483713" y1="-0.268442" x2="0.0372818" y2="0.25628" style="stroke:rgb(246,147,147);stroke-width:0.01" />
<line x1="-0.16598" y1="-0.0790711" x2="-0.0613785" y2="0.443939" style="stroke:rgb(246,147,147);stroke-width:0.01" />
<line x1="0.214685" y1="-0.124011" x2="0.230146" y2="0.224798" style="stroke:rgb(246,147,147);stroke-width:0.01" />
<line x1="0.0297613" y1="-0.281196" x2="0.0297613" y2="0.433179" style="stroke:rgb(246,147,147);stroke-width:0.01" />
<line x1="-0.154443" y1="-0.234727" x2="0.210172" y2="-0.127847" style="stroke:rgb(246,147,147);stroke-width:0.01" />
<line x1="-0.104029" y1="0.230688" x2="0.045173" y2="0.399356" style="stroke:rgb(246,147,147);stroke-width:0.01" />
<line x1="-0.149394" y1="-0.251951" x2="-0.154443" y2="-0.234727" style="stroke:rgb(246,147,147);stroke-width:0.01" />
<line x1="0.193666" y1="-0.141877" x2="0.0743796" y2="0.382984" style="stroke:rgb(246,147,147);stroke-width:0.01" />
<line x1="0.0297613" y1="-0.281196" x2="-0.149394" y2="-0.251951" style="stroke:rgb(246,147,147);stroke-width:0.01" />
<line x1="-0.0209321" y1="-0.0123553" x2="0.321671" y2="0.104781" style="stroke:rgb(246,147,147);stroke-width:0.01" />
<line x1="-0.0209321" y1="-0.0123553" x2="-0.104029" y2="0.230688" style="stroke:rgb(246,147,147);stroke-width:0.01" />
<line x1="0.214685" y1="-0.124011" x2="-0.16598" y2="-0.0790711" style="stroke:rgb(246,147,147);stroke-width:0.01" />
<line x1="-0.0966119" y1="-0.0988141" x2="-0.16598" y2="-0.0790711" style="stroke:rgb(246,147,147);stroke-width:0.01" />
<line x1="0.193666" y1="-0.141877" x2="-0.013966" y2="-0.0576707" style="stroke:rgb(246,147,147);stroke-width:0.01" />
<line x1="0.39147" y1="0.0262569" x2="0.230146" y2="0.224798" style="stroke:rgb(246,147,147);stroke-width:0.01" />
<line x1="0.39147" y1="0.0262569" x2="0.0297613" y2="0.433179" style="stroke:rgb(246,147,147);stroke-width:0.01" />
<line x1="0.230146" y1="0.224798" x2="0.0372818" y2="0.25628" style="stroke:rgb(246,147,147);stroke-width:0.01" />
<line x1="-0.00910222" y1="0.42906" x2="-0.0637654" y2="0.432004" style="stroke:rgb(246,147,147);stroke-width:0.01" />
<line x1="0.045173" y1="0.399356" x2="-0.00910222" y2="0.42906" style="stroke:rgb(246,147,147);stroke-width:0.01" />
<line x1="0.0743796" y1="0.382984" x2="-0.0637654" y2="0.432004" style="stroke:rgb(246,147,147);stroke-width:0.01" />
<line x1="0.0297613" y1="0.433179" x2="-0.0613785" y2="0.443939" style="stroke:rgb(246,147,147);stroke-width:0.01" />
<line x1="-0.00910222" y1="0.42906" x2="-0.0613785" y2="0.443939" style="stroke:rgb(246,147,147);stroke-width:0.01" />
</g>
</svg>
