<svg xmlns="http://www.w3.org/2000/svg" viewBox="-1.5 -1.5 3 3">
<g transform="scale(1, -1)">
<path d="M-0.203125 -0.234375 L0.046875 -0.234375 L0.296875 0.015625 L0.296875 0.265625 L0.046875 0.015625 L-0.203125 0.265625 L-0.203125 0.015625 L-0.078125 -0.109375 z " fill="rgb(245,195,195)" />
<path d="M-0.453125 -0.484375 L0.546875 -0.484375 L0.546875 0.515625 L-0.453125 0.515625  z" fill="none" stroke="rgb(128,128,128)" stroke-width="0.01" />
<line x1="0.046875" y1="-0.234375" x2="0.296875" y2="0.015625" style="stroke:rgb(246,147,147);stroke-width:0.01" />
<line x1="-0.203125" y1="-0.234375" x2="0.296875" y2="0.265625" style="stroke:rgb(246,147,147);stroke-width:0.01" />
<line x1="-0.203125" y1="0.015625" x2="-0.203125" y2="0.265625" style="stroke:rgb(246,147,147);stroke-width:0.01" />
<line x1="0.046875" y1="-0.234375" x2="0.046875" y2="0.015625" style="stroke:rgb(246,147,147);stroke-width:0.01" />
<line x1="0.296875" y1="0.015625" x2="0.296875" y2="0.265625" style="stroke:rgb(246,147,147);stroke-width:0.01" />
<line x1="-0.203125" y1="-0.234375" x2="0.046875" y2="-0.234375" style="stroke:rgb(246,147,147);stroke-width:0.01" />
<line x1="0.046875" y1="-0.234375" x2="-0.203125" y2="0.015625" style="stroke:rgb(246,147,147);stroke-width:0.01" />
<line x1="-0.203125" y1="0.015625" x2="0.296875" y2="0.015625" style="stroke:rgb(246,147,147);stroke-width:0.01" />
<line x1="0.046875" y1="0.015625" x2="-0.203125" y2="0.265625" style="stroke:rgb(246,147,147);stroke-width:0.01" />
</g>
</svg>
