<svg xmlns="http://www.w3.org/2000/svg" viewBox="-1.5 -1.5 3 3">
<g transform="scale(1, -1)">
<path d="M-0.198077 0.107692 L-0.046154 0.198077 L-0.015385 0.319231 L-0.105769 0.471154 L-0.226923 0.501923 L-0.378846 0.411538 L-0.409615 0.290385 L-0.319231 0.138462 z M-0.167308 0.228846 L-0.288462 0.259615 L-0.257692 0.380769 L-0.136538 0.350000 z " fill="rgb(245,195,195)" />
<path d="M0.000000 0.000000 L1.000000 0.000000 L1.000000 1.000000 L0.000000 1.000000  z" fill="none" stroke="rgb(128,128,128)" stroke-width="0.01" />
<line x1="-0.319231" y1="0.138462" x2="-0.409615" y2="0.290385" style="stroke:rgb(246,147,147);stroke-width:0.01" />
<line x1="-0.0461538" y1="0.198077" x2="-0.0153846" y2="0.319231" style="stroke:rgb(246,147,147);stroke-width:0.01" />
<line x1="-0.198077" y1="0.107692" x2="-0.105769" y2="0.471154" style="stroke:rgb(246,147,147);stroke-width:0.01" />
<line x1="-0.198077" y1="0.107692" x2="-0.319231" y2="0.138462" style="stroke:rgb(246,147,147);stroke-width:0.01" />
<line x1="-0.0153846" y1="0.319231" x2="-0.105769" y2="0.471154" style="stroke:rgb(246,147,147);stroke-width:0.01" />
<line x1="-0.319231" y1="0.138462" x2="-0.226923" y2="0.501923" style="stroke:rgb(246,147,147);stroke-width:0.01" />
<line x1="-0.409615" y1="0.290385" x2="-0.378846" y2="0.411538" style="stroke:rgb(246,147,147);stroke-width:0.01" />
<line x1="-0.198077" y1="0.107692" x2="-0.0461538" y2="0.198077" style="stroke:rgb(246,147,147);stroke-width:0.01" />
<line x1="-0.0461538" y1="0.198077" x2="-0.409615" y2="0.290385" style="stroke:rgb(246,147,147);stroke-width:0.01" />
<line x1="-0.0153846" y1="0.319231" x2="-0.378846" y2="0.411538" style="stroke:rgb(246,147,147);stroke-width:0.01" />
<line x1="-0.105769" y1="0.471154" x2="-0.226923" y2="0.501923" style="stroke:rgb(246,147,147);stroke-width:0.01" />
<line x1="-0.378846" y1="0.411538" x2="-0.226923" y2="0.501923" style="stroke:rgb(246,147,147);stroke-width:0.01" />
</g>
</svg>
