<svg xmlns="http://www.w3.org/2000/svg" viewBox="-1.5 -1.5 3 3">
<g transform="scale(1, -1)">
<path d="M0.014423 -0.197115 L0.166346 -0.106731 L0.197115 0.014423 L0.106731 0.166346 L-0.014423 0.197115 L-0.166346 0.106731 L-0.197115 -0.014423 L-0.106731 -0.166346 z M0.045192 -0.075962 L-0.075962 -0.045192 L-0.045192 0.075962 L0.075962 0.045192 z " fill="rgb(245,195,195)" />
<path d="M0.212500 -0.304808 L1.212500 -0.304808 L1.212500 0.695192 L0.212500 0.695192  z" fill="none" stroke="rgb(128,128,128)" stroke-width="0.01" />
<line x1="-0.106731" y1="-0.166346" x2="-0.197115" y2="-0.0144231" style="stroke:rgb(246,147,147);stroke-width:0.01" />
<line x1="0.166346" y1="-0.106731" x2="0.197115" y2="0.0144231" style="stroke:rgb(246,147,147);stroke-width:0.01" />
<line x1="0.0144231" y1="-0.197115" x2="0.106731" y2="0.166346" style="stroke:rgb(246,147,147);stroke-width:0.01" />
<line x1="0.0144231" y1="-0.197115" x2="-0.106731" y2="-0.166346" style="stroke:rgb(246,147,147);stroke-width:0.01" />
<line x1="0.197115" y1="0.0144231" x2="0.106731" y2="0.166346" style="stroke:rgb(246,147,147);stroke-width:0.01" />
<line x1="-0.106731" y1="-0.166346" x2="-0.0144231" y2="0.197115" style="stroke:rgb(246,147,147);stroke-width:0.01" />
<line x1="-0.197115" y1="-0.0144231" x2="-0.166346" y2="0.106731" style="stroke:rgb(246,147,147);stroke-width:0.01" />
<line x1="0.0144231" y1="-0.197115" x2="0.166346" y2="-0.106731" style="stroke:rgb(246,147,147);stroke-width:0.01" />
<line x1="0.166346" y1="-0.106731" x2="-0.197115" y2="-0.0144231" style="stroke:rgb(246,147,147);stroke-width:0.01" />
<line x1="0.197115" y1="0.0144231" x2="-0.166346" y2="0.106731" style="stroke:rgb(246,147,147);stroke-width:0.01" />
<line x1="0.106731" y1="0.166346" x2="-0.0144231" y2="0.197115" style="stroke:rgb(246,147,147);stroke-width:0.01" />
<line x1="-0.166346" y1="0.106731" x2="-0.0144231" y2="0.197115" style="stroke:rgb(246,147,147);stroke-width:0.01" />
</g>
</svg>
