<svg xmlns="http://www.w3.org/2000/svg" viewBox="-1.5 -1.5 3 3">
<g transform="scale(1, -1)">
<path d="M0.521445 -0.183303 L0.668487 0.000000 L1.000000 0.000000 L1.000000 1.000000 L0.805227 1.000000 L0.668114 0.848789 L0.457729 0.468778 L0.292940 0.000000 z " fill="rgb(245,195,195)" />
<path d="M0.000000 0.000000 L1.000000 0.000000 L1.000000 1.000000 L0.000000 1.000000  z" fill="none" stroke="rgb(128,128,128)" stroke-width="0.01" />
<line x1="0.521445" y1="-0.183303" x2="0.675489" y2="0.00872833" style="stroke:rgb(246,147,147);stroke-width:0.01" />
<line x1="0.675489" y1="0.00872833" x2="0.934469" y2="0.767366" style="stroke:rgb(246,147,147);stroke-width:0.01" />
<line x1="0.637422" y1="0.694098" x2="0.697186" y2="0.880849" style="stroke:rgb(246,147,147);stroke-width:0.01" />
<line x1="0.29294" y1="0" x2="0.457729" y2="0.468778" style="stroke:rgb(246,147,147);stroke-width:0.01" />
<line x1="0.457729" y1="0.468778" x2="0.668114" y2="0.848789" style="stroke:rgb(246,147,147);stroke-width:0.01" />
<line x1="0.457729" y1="0.468778" x2="0.637422" y2="0.694098" style="stroke:rgb(246,147,147);stroke-width:0.01" />
<line x1="0.29294" y1="0" x2="1" y2="0" style="stroke:rgb(246,147,147);stroke-width:0.01" />
<line x1="1" y1="0" x2="1" y2="1" style="stroke:rgb(246,147,147);stroke-width:0.01" />
<line x1="0.675489" y1="0.00872833" x2="0.661822" y2="0.762423" style="stroke:rgb(246,147,147);stroke-width:0.01" />
<line x1="0.637422" y1="0.694098" x2="0.632553" y2="0.784555" style="stroke:rgb(246,147,147);stroke-width:0.01" />
<line x1="0.668114" y1="0.848789" x2="0.805227" y2="1" style="stroke:rgb(246,147,147);stroke-width:0.01" />
<line x1="0.743904" y1="0.901012" x2="0.808428" y2="0.967348" style="stroke:rgb(246,147,147);stroke-width:0.01" />
<line x1="0.808428" y1="0.967348" x2="0.805227" y2="1" style="stroke:rgb(246,147,147);stroke-width:0.01" />
<line x1="0.521445" y1="-0.183303" x2="0.29294" y2="0" style="stroke:rgb(246,147,147);stroke-width:0.01" />
<line x1="0.79378" y1="0.873845" x2="0.777582" y2="0.969512" style="stroke:rgb(246,147,147);stroke-width:0.01" />
<line x1="0.668114" y1="0.848789" x2="0.743904" y2="0.901012" style="stroke:rgb(246,147,147);stroke-width:0.01" />
<line x1="0.632553" y1="0.784555" x2="0.79378" y2="0.873845" style="stroke:rgb(246,147,147);stroke-width:0.01" />
<line x1="0.697186" y1="0.880849" x2="0.743904" y2="0.901012" style="stroke:rgb(246,147,147);stroke-width:0.01" />
<line x1="0.661822" y1="0.762423" x2="0.934469" y2="0.767366" style="stroke:rgb(246,147,147);stroke-width:0.01" />
<line x1="0.752586" y1="0.909938" x2="0.737533" y2="0.925345" style="stroke:rgb(246,147,147);stroke-width:0.01" />
<line x1="0.752586" y1="0.909938" x2="0.736796" y2="0.924533" style="stroke:rgb(246,147,147);stroke-width:0.01" />
<line x1="0.79378" y1="0.873845" x2="0.736796" y2="0.924533" style="stroke:rgb(246,147,147);stroke-width:0.01" />
<line x1="0.934469" y1="0.767366" x2="0.737533" y2="0.925345" style="stroke:rgb(246,147,147);stroke-width:0.01" />
<line x1="0.805227" y1="1" x2="1" y2="1" style="stroke:rgb(246,147,147);stroke-width:0.01" />
<line x1="0.808428" y1="0.967348" x2="0.777582" y2="0.969512" style="stroke:rgb(246,147,147);stroke-width:0.01" />
</g>
</svg>
