<svg xmlns="http://www.w3.org/2000/svg" viewBox="-1.5 -1.5 3 3">
<g transform="scale(1, -1)">
<path d="M0.228730 -0.421113 L0.311964 -0.199494 L0.657261 0.115819 L0.570685 0.210627 L0.104368 0.216291 L-0.502308 0.099373 L-0.663279 0.048017 L-0.707422 -0.069519 z " fill="rgb(245,195,195)" />
<path d="M-0.930658 0.252783 L0.069342 0.252783 L0.069342 1.252783 L-0.930658 1.252783  z" fill="none" stroke="rgb(128,128,128)" stroke-width="0.01" />
<line x1="0.254196" y1="-0.252246" x2="0.657261" y2="0.115819" style="stroke:rgb(246,147,147);stroke-width:0.01" />
<line x1="0.494553" y1="0.131217" x2="0.570685" y2="0.210627" style="stroke:rgb(246,147,147);stroke-width:0.01" />
<line x1="0.22873" y1="-0.421113" x2="0.46647" y2="0.211893" style="stroke:rgb(246,147,147);stroke-width:0.01" />
<line x1="-0.523341" y1="-0.0742914" x2="0.085412" y2="0.169395" style="stroke:rgb(246,147,147);stroke-width:0.01" />
<line x1="-0.643872" y1="0.0349144" x2="-0.502308" y2="0.0993731" style="stroke:rgb(246,147,147);stroke-width:0.01" />
<line x1="-0.663279" y1="0.048017" x2="-0.502308" y2="0.0993731" style="stroke:rgb(246,147,147);stroke-width:0.01" />
<line x1="-0.502308" y1="0.0993731" x2="0.104368" y2="0.216291" style="stroke:rgb(246,147,147);stroke-width:0.01" />
<line x1="0.254196" y1="-0.252246" x2="-0.523341" y2="-0.0742914" style="stroke:rgb(246,147,147);stroke-width:0.01" />
<line x1="0.22873" y1="-0.421113" x2="-0.707422" y2="-0.0695195" style="stroke:rgb(246,147,147);stroke-width:0.01" />
<line x1="-0.707422" y1="-0.0695195" x2="-0.663279" y2="0.048017" style="stroke:rgb(246,147,147);stroke-width:0.01" />
<line x1="-0.643872" y1="0.0349144" x2="-0.641402" y2="0.0549965" style="stroke:rgb(246,147,147);stroke-width:0.01" />
<line x1="0.570685" y1="0.210627" x2="0.104368" y2="0.216291" style="stroke:rgb(246,147,147);stroke-width:0.01" />
<line x1="-0.643872" y1="0.0349144" x2="-0.663279" y2="0.048017" style="stroke:rgb(246,147,147);stroke-width:0.01" />
<line x1="-0.523341" y1="-0.0742914" x2="-0.641402" y2="0.0549965" style="stroke:rgb(246,147,147);stroke-width:0.01" />
<line x1="0.494553" y1="0.131217" x2="0.104368" y2="0.216291" style="stroke:rgb(246,147,147);stroke-width:0.01" />
<line x1="0.254196" y1="-0.252246" x2="0.085412" y2="0.169395" style="stroke:rgb(246,147,147);stroke-width:0.01" />
<line x1="0.494553" y1="0.131217" x2="0.46647" y2="0.211893" style="stroke:rgb(246,147,147);stroke-width:0.01" />
<line x1="0.657261" y1="0.115819" x2="0.570685" y2="0.210627" style="stroke:rgb(246,147,147);stroke-width:0.01" />
</g>
</svg>
