<svg xmlns="http://www.w3.org/2000/svg" viewBox="-1.5 -1.5 3 3">
<g transform="scale(1, -1)">
<path d="M-0.358584 -0.343323 L0.140706 -0.093013 L0.345554 -0.093013 L0.345554 0.009685 L0.535366 0.104844 L0.345554 0.483458 L0.207576 0.450808 L-0.561707 -0.093013 L-0.592642 -0.180440 L-0.407379 -0.245993 z " fill="rgb(245,195,195)" />
<path d="M-0.654446 -0.093013 L0.345554 -0.093013 L0.345554 0.906987 L-0.654446 0.906987  z" fill="none" stroke="rgb(128,128,128)" stroke-width="0.01" />
<line x1="-0.358584" y1="-0.343323" x2="0.535366" y2="0.104844" style="stroke:rgb(246,147,147);stroke-width:0.01" />
<line x1="-0.272266" y1="-0.2938" x2="0.207576" y2="0.450808" style="stroke:rgb(246,147,147);stroke-width:0.01" />
<line x1="-0.272266" y1="-0.2938" x2="-0.592642" y2="-0.18044" style="stroke:rgb(246,147,147);stroke-width:0.01" />
<line x1="-0.561707" y1="-0.0930127" x2="0.207576" y2="0.450808" style="stroke:rgb(246,147,147);stroke-width:0.01" />
<line x1="-0.592642" y1="-0.18044" x2="-0.561707" y2="-0.0930127" style="stroke:rgb(246,147,147);stroke-width:0.01" />
<line x1="-0.561707" y1="-0.0930127" x2="0.345554" y2="-0.0930127" style="stroke:rgb(246,147,147);stroke-width:0.01" />
<line x1="0.345554" y1="-0.0930127" x2="0.345554" y2="0.483458" style="stroke:rgb(246,147,147);stroke-width:0.01" />
<line x1="-0.358584" y1="-0.343323" x2="-0.504387" y2="-0.0524923" style="stroke:rgb(246,147,147);stroke-width:0.01" />
<line x1="-0.272266" y1="-0.2938" x2="-0.504387" y2="-0.0524923" style="stroke:rgb(246,147,147);stroke-width:0.01" />
<line x1="0.207576" y1="0.450808" x2="0.345554" y2="0.483458" style="stroke:rgb(246,147,147);stroke-width:0.01" />
<line x1="0.535366" y1="0.104844" x2="0.345554" y2="0.483458" style="stroke:rgb(246,147,147);stroke-width:0.01" />
</g>
</svg>
