<svg xmlns="http://www.w3.org/2000/svg" viewBox="-1.5 -1.5 3 3">
<g transform="scale(1, -1)">
<path d="M0.322489 -0.357260 L1.215613 0.092553 L1.000000 0.520661 L0.268409 0.346833 L0.000000 0.205429 L0.000000 0.000000 L0.142559 0.000000 z " fill="rgb(245,195,195)" />
<path d="M0.000000 0.000000 L1.000000 0.000000 L1.000000 1.000000 L0.000000 1.000000  z" fill="none" stroke="rgb(128,128,128)" stroke-width="0.01" />
<line x1="0.322489" y1="-0.35726" x2="1.21561" y2="0.0925526" style="stroke:rgb(246,147,147);stroke-width:0.01" />
<line x1="0" y1="0" x2="1" y2="0" style="stroke:rgb(246,147,147);stroke-width:0.01" />
<line x1="0" y1="0" x2="0" y2="0.205429" style="stroke:rgb(246,147,147);stroke-width:0.01" />
<line x1="1" y1="0" x2="1" y2="0.520661" style="stroke:rgb(246,147,147);stroke-width:0.01" />
<line x1="0.0640241" y1="0.161529" x2="0.268409" y2="0.346833" style="stroke:rgb(246,147,147);stroke-width:0.01" />
<line x1="0.322489" y1="-0.35726" x2="0.0308987" y2="0.221707" style="stroke:rgb(246,147,147);stroke-width:0.01" />
<line x1="0.0640241" y1="0.161529" x2="0.0308987" y2="0.221707" style="stroke:rgb(246,147,147);stroke-width:0.01" />
<line x1="0.0640241" y1="0.161529" x2="0" y2="0.205429" style="stroke:rgb(246,147,147);stroke-width:0.01" />
<line x1="0" y1="0.205429" x2="0.268409" y2="0.346833" style="stroke:rgb(246,147,147);stroke-width:0.01" />
<line x1="0.268409" y1="0.346833" x2="1" y2="0.520661" style="stroke:rgb(246,147,147);stroke-width:0.01" />
<line x1="1.21561" y1="0.0925526" x2="1" y2="0.520661" style="stroke:rgb(246,147,147);stroke-width:0.01" />
</g>
</svg>
