<svg xmlns="http://www.w3.org/2000/svg" viewBox="-1.5 -1.5 3 3">
<g transform="scale(1, -1)">
<path d="M-0.218688 -0.361886 L-0.218383 -0.361058 L0.480162 -0.361058 L0.480162 0.638942 L0.095507 0.638942 L-0.154392 0.339252 L-0.229732 -0.172076 L-0.234637 -0.361058 z " fill="rgb(245,195,195)" />
<path d="M-0.519838 -0.361058 L0.480162 -0.361058 L0.480162 0.638942 L-0.519838 0.638942  z" fill="none" stroke="rgb(128,128,128)" stroke-width="0.01" />
<line x1="0.243504" y1="0.393137" x2="0.28196" y2="0.520804" style="stroke:rgb(246,147,147);stroke-width:0.01" />
<line x1="-0.234347" y1="-0.349876" x2="-0.0287664" y2="-0.208506" style="stroke:rgb(246,147,147);stroke-width:0.01" />
<line x1="-0.233398" y1="-0.313342" x2="0.243504" y2="0.393137" style="stroke:rgb(246,147,147);stroke-width:0.01" />
<line x1="-0.218688" y1="-0.361886" x2="-0.213177" y2="-0.346933" style="stroke:rgb(246,147,147);stroke-width:0.01" />
<line x1="-0.229732" y1="-0.172076" x2="-0.154392" y2="0.339252" style="stroke:rgb(246,147,147);stroke-width:0.01" />
<line x1="-0.234637" y1="-0.361058" x2="-0.229732" y2="-0.172076" style="stroke:rgb(246,147,147);stroke-width:0.01" />
<line x1="-0.234637" y1="-0.361058" x2="0.480162" y2="-0.361058" style="stroke:rgb(246,147,147);stroke-width:0.01" />
<line x1="0.480162" y1="-0.361058" x2="0.480162" y2="0.638942" style="stroke:rgb(246,147,147);stroke-width:0.01" />
<line x1="-0.218688" y1="-0.361886" x2="-0.234637" y2="-0.361058" style="stroke:rgb(246,147,147);stroke-width:0.01" />
<line x1="-0.213177" y1="-0.346933" x2="-0.229732" y2="-0.172076" style="stroke:rgb(246,147,147);stroke-width:0.01" />
<line x1="0.0941131" y1="0.423535" x2="0.121277" y2="0.453597" style="stroke:rgb(246,147,147);stroke-width:0.01" />
<line x1="-0.198691" y1="0.0385981" x2="0.243504" y2="0.393137" style="stroke:rgb(246,147,147);stroke-width:0.01" />
<line x1="-0.154392" y1="0.339252" x2="0.0955074" y2="0.638942" style="stroke:rgb(246,147,147);stroke-width:0.01" />
<line x1="-0.213177" y1="-0.346933" x2="-0.233398" y2="-0.313342" style="stroke:rgb(246,147,147);stroke-width:0.01" />
<line x1="0.130491" y1="0.447447" x2="0.0955074" y2="0.638942" style="stroke:rgb(246,147,147);stroke-width:0.01" />
<line x1="-0.218688" y1="-0.361886" x2="-0.234347" y2="-0.349876" style="stroke:rgb(246,147,147);stroke-width:0.01" />
<line x1="0.0941131" y1="0.423535" x2="0.130491" y2="0.447447" style="stroke:rgb(246,147,147);stroke-width:0.01" />
<line x1="-0.0287664" y1="-0.208506" x2="-0.198691" y2="0.0385981" style="stroke:rgb(246,147,147);stroke-width:0.01" />
<line x1="0.127806" y1="0.445682" x2="0.0542038" y2="0.589409" style="stroke:rgb(246,147,147);stroke-width:0.01" />
<line x1="-0.154392" y1="0.339252" x2="0.0941131" y2="0.423535" style="stroke:rgb(246,147,147);stroke-width:0.01" />
<line x1="0.127806" y1="0.445682" x2="0.121277" y2="0.453597" style="stroke:rgb(246,147,147);stroke-width:0.01" />
<line x1="0.130491" y1="0.447447" x2="0.121277" y2="0.453597" style="stroke:rgb(246,147,147);stroke-width:0.01" />
<line x1="0.0955074" y1="0.638942" x2="0.480162" y2="0.638942" style="stroke:rgb(246,147,147);stroke-width:0.01" />
<line x1="0.28196" y1="0.520804" x2="0.0542038" y2="0.589409" style="stroke:rgb(246,147,147);stroke-width:0.01" />
</g>
</svg>
