<svg xmlns="http://www.w3.org/2000/svg" viewBox="-1.5 -1.5 3 3">
<g transform="scale(1, -1)">
<path d="M0.301150 -0.000828 L0.301455 0.000000 L1.000000 0.000000 L1.000000 1.000000 L0.615345 1.000000 L0.365445 0.700310 L0.290105 0.188982 L0.285201 0.000000 z " fill="rgb(245,195,195)" />
<path d="M0.000000 0.000000 L1.000000 0.000000 L1.000000 1.000000 L0.000000 1.000000  z" fill="none" stroke="rgb(128,128,128)" stroke-width="0.01" />
<line x1="0.763341" y1="0.754195" x2="0.801798" y2="0.881862" style="stroke:rgb(246,147,147);stroke-width:0.01" />
<line x1="0.285491" y1="0.0111817" x2="0.491071" y2="0.152552" style="stroke:rgb(246,147,147);stroke-width:0.01" />
<line x1="0.286439" y1="0.0477158" x2="0.763341" y2="0.754195" style="stroke:rgb(246,147,147);stroke-width:0.01" />
<line x1="0.30115" y1="-0.000828345" x2="0.306661" y2="0.0141253" style="stroke:rgb(246,147,147);stroke-width:0.01" />
<line x1="0.290105" y1="0.188982" x2="0.365445" y2="0.70031" style="stroke:rgb(246,147,147);stroke-width:0.01" />
<line x1="0.285201" y1="0" x2="0.290105" y2="0.188982" style="stroke:rgb(246,147,147);stroke-width:0.01" />
<line x1="0.285201" y1="0" x2="1" y2="0" style="stroke:rgb(246,147,147);stroke-width:0.01" />
<line x1="1" y1="0" x2="1" y2="1" style="stroke:rgb(246,147,147);stroke-width:0.01" />
<line x1="0.30115" y1="-0.000828345" x2="0.285201" y2="0" style="stroke:rgb(246,147,147);stroke-width:0.01" />
<line x1="0.306661" y1="0.0141253" x2="0.290105" y2="0.188982" style="stroke:rgb(246,147,147);stroke-width:0.01" />
<line x1="0.613951" y1="0.784593" x2="0.641114" y2="0.814655" style="stroke:rgb(246,147,147);stroke-width:0.01" />
<line x1="0.321146" y1="0.399656" x2="0.763341" y2="0.754195" style="stroke:rgb(246,147,147);stroke-width:0.01" />
<line x1="0.365445" y1="0.70031" x2="0.615345" y2="1" style="stroke:rgb(246,147,147);stroke-width:0.01" />
<line x1="0.306661" y1="0.0141253" x2="0.286439" y2="0.0477158" style="stroke:rgb(246,147,147);stroke-width:0.01" />
<line x1="0.650329" y1="0.808505" x2="0.615345" y2="1" style="stroke:rgb(246,147,147);stroke-width:0.01" />
<line x1="0.30115" y1="-0.000828345" x2="0.285491" y2="0.0111817" style="stroke:rgb(246,147,147);stroke-width:0.01" />
<line x1="0.613951" y1="0.784593" x2="0.650329" y2="0.808505" style="stroke:rgb(246,147,147);stroke-width:0.01" />
<line x1="0.491071" y1="0.152552" x2="0.321146" y2="0.399656" style="stroke:rgb(246,147,147);stroke-width:0.01" />
<line x1="0.647643" y1="0.80674" x2="0.574041" y2="0.950467" style="stroke:rgb(246,147,147);stroke-width:0.01" />
<line x1="0.365445" y1="0.70031" x2="0.613951" y2="0.784593" style="stroke:rgb(246,147,147);stroke-width:0.01" />
<line x1="0.647643" y1="0.80674" x2="0.641114" y2="0.814655" style="stroke:rgb(246,147,147);stroke-width:0.01" />
<line x1="0.650329" y1="0.808505" x2="0.641114" y2="0.814655" style="stroke:rgb(246,147,147);stroke-width:0.01" />
<line x1="0.615345" y1="1" x2="1" y2="1" style="stroke:rgb(246,147,147);stroke-width:0.01" />
<line x1="0.801798" y1="0.881862" x2="0.574041" y2="0.950467" style="stroke:rgb(246,147,147);stroke-width:0.01" />
</g>
</svg>
