<svg xmlns="http://www.w3.org/2000/svg" viewBox="-1.5 -1.5 3 3">
<g transform="scale(1, -1)">
<path d="M0.089822 -0.117782 L0.817956 0.000000 L1.000000 0.000000 L1.000000 0.029447 L1.076990 0.041901 L1.000000 0.517857 L0.533453 0.480367 L0.000000 0.310666 L0.000000 0.000000 L0.070769 0.000000 z " fill="rgb(245,195,195)" />
<path d="M0.000000 0.000000 L1.000000 0.000000 L1.000000 1.000000 L0.000000 1.000000  z" fill="none" stroke="rgb(128,128,128)" stroke-width="0.01" />
<line x1="0.0898218" y1="-0.117782" x2="1.07699" y2="0.041901" style="stroke:rgb(246,147,147);stroke-width:0.01" />
<line x1="0.0716027" y1="0.209514" x2="0.0718712" y2="0.212405" style="stroke:rgb(246,147,147);stroke-width:0.01" />
<line x1="0" y1="0" x2="1" y2="0" style="stroke:rgb(246,147,147);stroke-width:0.01" />
<line x1="0" y1="0" x2="0" y2="0.310666" style="stroke:rgb(246,147,147);stroke-width:0.01" />
<line x1="1" y1="0" x2="1" y2="0.517857" style="stroke:rgb(246,147,147);stroke-width:0.01" />
<line x1="0.0720591" y1="0.209636" x2="0.0718712" y2="0.212405" style="stroke:rgb(246,147,147);stroke-width:0.01" />
<line x1="0.0898218" y1="-0.117782" x2="0.0195124" y2="0.316873" style="stroke:rgb(246,147,147);stroke-width:0.01" />
<line x1="0.0720591" y1="0.209636" x2="0.0195124" y2="0.316873" style="stroke:rgb(246,147,147);stroke-width:0.01" />
<line x1="0.0716027" y1="0.209514" x2="0" y2="0.310666" style="stroke:rgb(246,147,147);stroke-width:0.01" />
<line x1="0.0819295" y1="0.21228" x2="0.533453" y2="0.480367" style="stroke:rgb(246,147,147);stroke-width:0.01" />
<line x1="1.07699" y1="0.041901" x2="1" y2="0.517857" style="stroke:rgb(246,147,147);stroke-width:0.01" />
<line x1="0.0716027" y1="0.209514" x2="0.0819295" y2="0.21228" style="stroke:rgb(246,147,147);stroke-width:0.01" />
<line x1="0.0819295" y1="0.21228" x2="0.0718712" y2="0.212405" style="stroke:rgb(246,147,147);stroke-width:0.01" />
<line x1="0" y1="0.310666" x2="0.533453" y2="0.480367" style="stroke:rgb(246,147,147);stroke-width:0.01" />
<line x1="0.533453" y1="0.480367" x2="1" y2="0.517857" style="stroke:rgb(246,147,147);stroke-width:0.01" />
</g>
</svg>
