<svg xmlns="http://www.w3.org/2000/svg" viewBox="-1.5 -1.5 3 3">
<g transform="scale(1, -1)">
<path d="M-0.469077 -0.244028 L0.259057 -0.126246 L0.441101 -0.126246 L0.441101 -0.096798 L0.518091 -0.084345 L0.441101 0.391612 L-0.025446 0.354121 L-0.558899 0.184421 L-0.558899 -0.126246 L-0.488130 -0.126246 z " fill="rgb(245,195,195)" />
<path d="M-0.558899 -0.126246 L0.441101 -0.126246 L0.441101 0.873754 L-0.558899 0.873754  z" fill="none" stroke="rgb(128,128,128)" stroke-width="0.01" />
<line x1="-0.469077" y1="-0.244028" x2="0.518091" y2="-0.0843446" style="stroke:rgb(246,147,147);stroke-width:0.01" />
<line x1="-0.487296" y1="0.0832681" x2="-0.487028" y2="0.086159" style="stroke:rgb(246,147,147);stroke-width:0.01" />
<line x1="-0.558899" y1="-0.126246" x2="0.441101" y2="-0.126246" style="stroke:rgb(246,147,147);stroke-width:0.01" />
<line x1="-0.558899" y1="-0.126246" x2="-0.558899" y2="0.184421" style="stroke:rgb(246,147,147);stroke-width:0.01" />
<line x1="0.441101" y1="-0.126246" x2="0.441101" y2="0.391612" style="stroke:rgb(246,147,147);stroke-width:0.01" />
<line x1="-0.48684" y1="0.0833904" x2="-0.487028" y2="0.086159" style="stroke:rgb(246,147,147);stroke-width:0.01" />
<line x1="-0.469077" y1="-0.244028" x2="-0.539387" y2="0.190628" style="stroke:rgb(246,147,147);stroke-width:0.01" />
<line x1="-0.48684" y1="0.0833904" x2="-0.539387" y2="0.190628" style="stroke:rgb(246,147,147);stroke-width:0.01" />
<line x1="-0.487296" y1="0.0832681" x2="-0.558899" y2="0.184421" style="stroke:rgb(246,147,147);stroke-width:0.01" />
<line x1="-0.47697" y1="0.0860339" x2="-0.0254458" y2="0.354121" style="stroke:rgb(246,147,147);stroke-width:0.01" />
<line x1="0.518091" y1="-0.0843446" x2="0.441101" y2="0.391612" style="stroke:rgb(246,147,147);stroke-width:0.01" />
<line x1="-0.487296" y1="0.0832681" x2="-0.47697" y2="0.0860339" style="stroke:rgb(246,147,147);stroke-width:0.01" />
<line x1="-0.47697" y1="0.0860339" x2="-0.487028" y2="0.086159" style="stroke:rgb(246,147,147);stroke-width:0.01" />
<line x1="-0.558899" y1="0.184421" x2="-0.0254458" y2="0.354121" style="stroke:rgb(246,147,147);stroke-width:0.01" />
<line x1="-0.0254458" y1="0.354121" x2="0.441101" y2="0.391612" style="stroke:rgb(246,147,147);stroke-width:0.01" />
</g>
</svg>
