<svg xmlns="http://www.w3.org/2000/svg" viewBox="-1.5 -1.5 3 3">
<g transform="scale(1, -1)">
<path d="M-0.050247 -0.749124 L0.350541 -0.749124 L0.350541 0.250876 L0.024698 0.250876 L0.002096 0.374388 L-0.028010 0.375304 L-0.028422 0.361757 L-0.208188 0.287361 L-0.231816 -0.073805 L-0.181193 -0.328510 z " fill="rgb(245,195,195)" />
<path d="M-0.649459 -0.749124 L0.350541 -0.749124 L0.350541 0.250876 L-0.649459 0.250876  z" fill="none" stroke="rgb(128,128,128)" stroke-width="0.01" />
<line x1="-0.0502465" y1="-0.749124" x2="-0.011265" y2="-0.722247" style="stroke:rgb(246,147,147);stroke-width:0.01" />
<line x1="-0.0556507" y1="-0.731765" x2="0.186196" y2="-0.631676" style="stroke:rgb(246,147,147);stroke-width:0.01" />
<line x1="-0.0556507" y1="-0.731765" x2="-0.011265" y2="-0.722247" style="stroke:rgb(246,147,147);stroke-width:0.01" />
<line x1="-0.231816" y1="-0.0738052" x2="-0.125533" y2="0.239701" style="stroke:rgb(246,147,147);stroke-width:0.01" />
<line x1="-0.231816" y1="-0.0738052" x2="-0.208188" y2="0.287361" style="stroke:rgb(246,147,147);stroke-width:0.01" />
<line x1="-0.0584193" y1="-0.624234" x2="-0.0280104" y2="0.375304" style="stroke:rgb(246,147,147);stroke-width:0.01" />
<line x1="-0.0502465" y1="-0.749124" x2="0.350541" y2="-0.749124" style="stroke:rgb(246,147,147);stroke-width:0.01" />
<line x1="0.350541" y1="-0.749124" x2="0.350541" y2="0.250876" style="stroke:rgb(246,147,147);stroke-width:0.01" />
<line x1="-0.181193" y1="-0.32851" x2="-0.231816" y2="-0.0738052" style="stroke:rgb(246,147,147);stroke-width:0.01" />
<line x1="0.186196" y1="-0.631676" x2="-0.0584193" y2="-0.624234" style="stroke:rgb(246,147,147);stroke-width:0.01" />
<line x1="0.186196" y1="-0.631676" x2="0.00209619" y2="0.374388" style="stroke:rgb(246,147,147);stroke-width:0.01" />
<line x1="-0.0502465" y1="-0.749124" x2="-0.181193" y2="-0.32851" style="stroke:rgb(246,147,147);stroke-width:0.01" />
<line x1="-0.011265" y1="-0.722247" x2="-0.181193" y2="-0.32851" style="stroke:rgb(246,147,147);stroke-width:0.01" />
<line x1="-0.208188" y1="0.287361" x2="0.00209619" y2="0.374388" style="stroke:rgb(246,147,147);stroke-width:0.01" />
<line x1="-0.125533" y1="0.239701" x2="-0.208188" y2="0.287361" style="stroke:rgb(246,147,147);stroke-width:0.01" />
<line x1="-0.210575" y1="0.250876" x2="0.350541" y2="0.250876" style="stroke:rgb(246,147,147);stroke-width:0.01" />
<line x1="-0.125533" y1="0.239701" x2="-0.210575" y2="0.250876" style="stroke:rgb(246,147,147);stroke-width:0.01" />
<line x1="0.00209619" y1="0.374388" x2="-0.0280104" y2="0.375304" style="stroke:rgb(246,147,147);stroke-width:0.01" />
</g>
</svg>
