<svg xmlns="http://www.w3.org/2000/svg" viewBox="-1.5 -1.5 3 3">
<path d="M0.096997 -0.482171 L0.191681 -0.457044 L0.137859 0.563288 L0.081227 0.572079 L0.077371 0.547235 L-0.025053 0.520054 L-0.456763 -0.056202 L-0.063287 -0.358876 L-0.072168 -0.416086 L0.032135 -0.432277 z " fill="rgb(245,195,195)" />
<path d="M-0.903003 -0.847142 L0.096997 -0.847142 L0.096997 0.152858 L-0.903003 0.152858  z" fill="none" stroke="rgb(128,128,128)" stroke-width="0.01" />
<line x1="-0.072168" y1="-0.416086" x2="0.0812273" y2="0.572079" style="stroke:rgb(246,147,147);stroke-width:0.01" />
<line x1="0.0969975" y1="-0.482171" x2="0.0969975" y2="0.152858" style="stroke:rgb(246,147,147);stroke-width:0.01" />
<line x1="-0.00534555" y1="-0.253835" x2="-0.0250528" y2="0.520054" style="stroke:rgb(246,147,147);stroke-width:0.01" />
<line x1="0.191681" y1="-0.457044" x2="0.137859" y2="0.563288" style="stroke:rgb(246,147,147);stroke-width:0.01" />
<line x1="-0.456763" y1="-0.056202" x2="-0.0250528" y2="0.520054" style="stroke:rgb(246,147,147);stroke-width:0.01" />
<line x1="0.0969975" y1="-0.482171" x2="0.191681" y2="-0.457044" style="stroke:rgb(246,147,147);stroke-width:0.01" />
<line x1="-0.179751" y1="-0.258276" x2="-0.300142" y2="0.152858" style="stroke:rgb(246,147,147);stroke-width:0.01" />
<line x1="0.191681" y1="-0.457044" x2="-0.072168" y2="-0.416086" style="stroke:rgb(246,147,147);stroke-width:0.01" />
<line x1="-0.179751" y1="-0.258276" x2="-0.00534555" y2="-0.253835" style="stroke:rgb(246,147,147);stroke-width:0.01" />
<line x1="0.0969975" y1="-0.482171" x2="-0.456763" y2="-0.056202" style="stroke:rgb(246,147,147);stroke-width:0.01" />
<line x1="-0.179751" y1="-0.258276" x2="-0.456763" y2="-0.056202" style="stroke:rgb(246,147,147);stroke-width:0.01" />
<line x1="-0.300142" y1="0.152858" x2="0.0969975" y2="0.152858" style="stroke:rgb(246,147,147);stroke-width:0.01" />
<line x1="-0.0250528" y1="0.520054" x2="0.137859" y2="0.563288" style="stroke:rgb(246,147,147);stroke-width:0.01" />
<line x1="0.137859" y1="0.563288" x2="0.0812273" y2="0.572079" style="stroke:rgb(246,147,147);stroke-width:0.01" />
</svg>
