<svg xmlns="http://www.w3.org/2000/svg" viewBox="-1 -1 3 3">
<path d="M1.000000 0.364970 L1.094684 0.390098 L1.040861 1.410430 L0.984230 1.419221 L0.980373 1.394377 L0.877950 1.367196 L0.446240 0.790940 L0.839715 0.488266 L0.830835 0.431056 L0.935137 0.414865 z " fill="rgb(245,195,195)" />
<path d="M0 0 L0 1 L1 1 L1 0 z" fill="none" stroke="rgb(128,128,128)" stroke-width="0.01" />
<line x1="0.830835" y1="0.431056" x2="0.98423" y2="1.41922" style="stroke:rgb(246,147,147);stroke-width:0.01" />
<line x1="1" y1="0.36497" x2="1" y2="1" style="stroke:rgb(246,147,147);stroke-width:0.01" />
<line x1="0.897657" y1="0.593307" x2="0.87795" y2="1.3672" style="stroke:rgb(246,147,147);stroke-width:0.01" />
<line x1="1.09468" y1="0.390098" x2="1.04086" y2="1.41043" style="stroke:rgb(246,147,147);stroke-width:0.01" />
<line x1="0.44624" y1="0.79094" x2="0.87795" y2="1.3672" style="stroke:rgb(246,147,147);stroke-width:0.01" />
<line x1="1" y1="0.36497" x2="1.09468" y2="0.390098" style="stroke:rgb(246,147,147);stroke-width:0.01" />
<line x1="0.723252" y1="0.588866" x2="0.60286" y2="1" style="stroke:rgb(246,147,147);stroke-width:0.01" />
<line x1="1.09468" y1="0.390098" x2="0.830835" y2="0.431056" style="stroke:rgb(246,147,147);stroke-width:0.01" />
<line x1="0.723252" y1="0.588866" x2="0.897657" y2="0.593307" style="stroke:rgb(246,147,147);stroke-width:0.01" />
<line x1="1" y1="0.36497" x2="0.44624" y2="0.79094" style="stroke:rgb(246,147,147);stroke-width:0.01" />
<line x1="0.723252" y1="0.588866" x2="0.44624" y2="0.79094" style="stroke:rgb(246,147,147);stroke-width:0.01" />
<line x1="0.60286" y1="1" x2="1" y2="1" style="stroke:rgb(246,147,147);stroke-width:0.01" />
<line x1="0.87795" y1="1.3672" x2="1.04086" y2="1.41043" style="stroke:rgb(246,147,147);stroke-width:0.01" />
<line x1="1.04086" y1="1.41043" x2="0.98423" y2="1.41922" style="stroke:rgb(246,147,147);stroke-width:0.01" />
</svg>
