<svg xmlns="http://www.w3.org/2000/svg" viewBox="-1.5 -1.5 3 3">
<g transform="scale(1, -1)">
<path d="M-0.360917 -0.488685 L-0.223090 -0.418807 L-0.224069 -0.341233 L0.278677 -0.341233 L0.278677 0.116459 L0.319115 0.147689 L0.278677 0.200052 L0.278677 0.658767 L0.035881 0.658767 L-0.260194 0.216996 L-0.401432 -0.408774 z " fill="rgb(245,195,195)" />
<path d="M-0.721323 -0.341233 L0.278677 -0.341233 L0.278677 0.658767 L-0.721323 0.658767  z" fill="none" stroke="rgb(128,128,128)" stroke-width="0.01" />
<line x1="-0.360917" y1="-0.488685" x2="-0.22309" y2="-0.418807" style="stroke:rgb(246,147,147);stroke-width:0.01" />
<line x1="-0.401432" y1="-0.408774" x2="0.319115" y2="0.147689" style="stroke:rgb(246,147,147);stroke-width:0.01" />
<line x1="-0.104143" y1="0.34951" x2="0.039748" y2="0.649358" style="stroke:rgb(246,147,147);stroke-width:0.01" />
<line x1="-0.104143" y1="0.34951" x2="-0.0808882" y2="0.484537" style="stroke:rgb(246,147,147);stroke-width:0.01" />
<line x1="-0.401432" y1="-0.408774" x2="-0.260194" y2="0.216996" style="stroke:rgb(246,147,147);stroke-width:0.01" />
<line x1="-0.260194" y1="0.216996" x2="0.0358811" y2="0.658767" style="stroke:rgb(246,147,147);stroke-width:0.01" />
<line x1="-0.157826" y1="0.288831" x2="-0.104143" y2="0.34951" style="stroke:rgb(246,147,147);stroke-width:0.01" />
<line x1="-0.386187" y1="-0.341233" x2="0.278677" y2="-0.341233" style="stroke:rgb(246,147,147);stroke-width:0.01" />
<line x1="0.278677" y1="-0.341233" x2="0.278677" y2="0.658767" style="stroke:rgb(246,147,147);stroke-width:0.01" />
<line x1="-0.22309" y1="-0.418807" x2="-0.231658" y2="0.259574" style="stroke:rgb(246,147,147);stroke-width:0.01" />
<line x1="0.036209" y1="0.558026" x2="0.0270769" y2="0.645631" style="stroke:rgb(246,147,147);stroke-width:0.01" />
<line x1="-0.360917" y1="-0.488685" x2="-0.401432" y2="-0.408774" style="stroke:rgb(246,147,147);stroke-width:0.01" />
<line x1="-0.22309" y1="-0.418807" x2="-0.386187" y2="-0.341233" style="stroke:rgb(246,147,147);stroke-width:0.01" />
<line x1="-0.260194" y1="0.216996" x2="-0.157826" y2="0.288831" style="stroke:rgb(246,147,147);stroke-width:0.01" />
<line x1="-0.0808882" y1="0.484537" x2="0.036209" y2="0.558026" style="stroke:rgb(246,147,147);stroke-width:0.01" />
<line x1="-0.231658" y1="0.259574" x2="-0.157826" y2="0.288831" style="stroke:rgb(246,147,147);stroke-width:0.01" />
<line x1="0.039748" y1="0.649358" x2="0.0358811" y2="0.658767" style="stroke:rgb(246,147,147);stroke-width:0.01" />
<line x1="0.319115" y1="0.147689" x2="-0.0159054" y2="0.581497" style="stroke:rgb(246,147,147);stroke-width:0.01" />
<line x1="0.0270769" y1="0.645631" x2="0.039748" y2="0.649358" style="stroke:rgb(246,147,147);stroke-width:0.01" />
<line x1="0.00449754" y1="0.575901" x2="-0.0117595" y2="0.587683" style="stroke:rgb(246,147,147);stroke-width:0.01" />
<line x1="0.036209" y1="0.558026" x2="-0.0117595" y2="0.587683" style="stroke:rgb(246,147,147);stroke-width:0.01" />
<line x1="0.0358811" y1="0.658767" x2="0.278677" y2="0.658767" style="stroke:rgb(246,147,147);stroke-width:0.01" />
<line x1="0.00449754" y1="0.575901" x2="-0.0159054" y2="0.581497" style="stroke:rgb(246,147,147);stroke-width:0.01" />
</g>
</svg>
