<svg xmlns="http://www.w3.org/2000/svg" viewBox="-1.5 -1.5 3 3">
<g transform="scale(1, -1)">
<path d="M-0.272369 -0.572115 L0.068674 -0.315010 L0.211823 -0.315010 L0.211823 -0.207093 L0.526141 0.029865 L0.211823 0.446800 L0.211823 0.684990 L0.176272 0.684990 L-0.189676 0.239747 L-0.365358 -0.112709 L-0.381353 -0.174402 L-0.409622 -0.390053 z " fill="rgb(245,195,195)" />
<path d="M-0.788177 -0.315010 L0.211823 -0.315010 L0.211823 0.684990 L-0.788177 0.684990  z" fill="none" stroke="rgb(128,128,128)" stroke-width="0.01" />
<line x1="-0.272369" y1="-0.572115" x2="0.526141" y2="0.0298653" style="stroke:rgb(246,147,147);stroke-width:0.01" />
<line x1="-0.409622" y1="-0.390053" x2="-0.382718" y2="-0.368994" style="stroke:rgb(246,147,147);stroke-width:0.01" />
<line x1="-0.404556" y1="-0.351402" x2="-0.375513" y2="-0.33852" style="stroke:rgb(246,147,147);stroke-width:0.01" />
<line x1="0.00750133" y1="0.391924" x2="0.150554" y2="0.595018" style="stroke:rgb(246,147,147);stroke-width:0.01" />
<line x1="-0.365358" y1="-0.112709" x2="-0.189676" y2="0.239747" style="stroke:rgb(246,147,147);stroke-width:0.01" />
<line x1="-0.401009" y1="-0.324347" x2="-0.382372" y2="-0.319655" style="stroke:rgb(246,147,147);stroke-width:0.01" />
<line x1="-0.381353" y1="-0.174402" x2="-0.365358" y2="-0.112709" style="stroke:rgb(246,147,147);stroke-width:0.01" />
<line x1="-0.189676" y1="0.239747" x2="0.176272" y2="0.68499" style="stroke:rgb(246,147,147);stroke-width:0.01" />
<line x1="0.00750133" y1="0.391924" x2="0.19538" y2="0.588186" style="stroke:rgb(246,147,147);stroke-width:0.01" />
<line x1="-0.409622" y1="-0.390053" x2="-0.381353" y2="-0.174402" style="stroke:rgb(246,147,147);stroke-width:0.01" />
<line x1="-0.375513" y1="-0.33852" x2="-0.365358" y2="-0.112709" style="stroke:rgb(246,147,147);stroke-width:0.01" />
<line x1="-0.382718" y1="-0.368994" x2="-0.381353" y2="-0.174402" style="stroke:rgb(246,147,147);stroke-width:0.01" />
<line x1="-0.399785" y1="-0.31501" x2="0.211823" y2="-0.31501" style="stroke:rgb(246,147,147);stroke-width:0.01" />
<line x1="0.211823" y1="-0.31501" x2="0.211823" y2="0.68499" style="stroke:rgb(246,147,147);stroke-width:0.01" />
<line x1="-0.189676" y1="0.239747" x2="0.00750133" y2="0.391924" style="stroke:rgb(246,147,147);stroke-width:0.01" />
<line x1="-0.382372" y1="-0.319655" x2="-0.399785" y2="-0.31501" style="stroke:rgb(246,147,147);stroke-width:0.01" />
<line x1="-0.272369" y1="-0.572115" x2="-0.409622" y2="-0.390053" style="stroke:rgb(246,147,147);stroke-width:0.01" />
<line x1="-0.375513" y1="-0.33852" x2="-0.401009" y2="-0.324347" style="stroke:rgb(246,147,147);stroke-width:0.01" />
<line x1="-0.382718" y1="-0.368994" x2="-0.404556" y2="-0.351402" style="stroke:rgb(246,147,147);stroke-width:0.01" />
<line x1="0.19538" y1="0.588186" x2="0.176272" y2="0.68499" style="stroke:rgb(246,147,147);stroke-width:0.01" />
<line x1="0.169068" y1="0.5607" x2="0.150554" y2="0.595018" style="stroke:rgb(246,147,147);stroke-width:0.01" />
<line x1="0.526141" y1="0.0298653" x2="0.101155" y2="0.593597" style="stroke:rgb(246,147,147);stroke-width:0.01" />
<line x1="0.176272" y1="0.68499" x2="0.211823" y2="0.68499" style="stroke:rgb(246,147,147);stroke-width:0.01" />
<line x1="0.19538" y1="0.588186" x2="0.150554" y2="0.595018" style="stroke:rgb(246,147,147);stroke-width:0.01" />
<line x1="0.169068" y1="0.5607" x2="0.101155" y2="0.593597" style="stroke:rgb(246,147,147);stroke-width:0.01" />
</g>
</svg>
