<svg xmlns="http://www.w3.org/2000/svg" viewBox="-1.5 -1.5 3 3">
<g transform="scale(1, -1)">
<path d="M-0.544492 -0.309418 L-0.424553 -0.268917 L-0.420504 -0.250545 L0.373490 -0.250545 L0.373490 0.173415 L0.577526 0.286132 L0.612683 0.352744 L0.373490 0.478989 L-0.356759 0.038692 L-0.564372 -0.250545 z " fill="rgb(245,195,195)" />
<path d="M-0.626510 -0.250545 L0.373490 -0.250545 L0.373490 0.749455 L-0.626510 0.749455  z" fill="none" stroke="rgb(128,128,128)" stroke-width="0.01" />
<line x1="0.577526" y1="0.286132" x2="0.612683" y2="0.352744" style="stroke:rgb(246,147,147);stroke-width:0.01" />
<line x1="-0.0703348" y1="-0.0986238" x2="0.11219" y2="0.321441" style="stroke:rgb(246,147,147);stroke-width:0.01" />
<line x1="-0.390384" y1="-0.248579" x2="0.577526" y2="0.286132" style="stroke:rgb(246,147,147);stroke-width:0.01" />
<line x1="-0.544492" y1="-0.309418" x2="-0.424553" y2="-0.268917" style="stroke:rgb(246,147,147);stroke-width:0.01" />
<line x1="-0.424553" y1="-0.268917" x2="-0.356759" y2="0.0386916" style="stroke:rgb(246,147,147);stroke-width:0.01" />
<line x1="-0.564372" y1="-0.250545" x2="-0.356759" y2="0.0386916" style="stroke:rgb(246,147,147);stroke-width:0.01" />
<line x1="-0.390384" y1="-0.248579" x2="-0.369985" y2="0.0202654" style="stroke:rgb(246,147,147);stroke-width:0.01" />
<line x1="-0.564372" y1="-0.250545" x2="0.37349" y2="-0.250545" style="stroke:rgb(246,147,147);stroke-width:0.01" />
<line x1="0.37349" y1="-0.250545" x2="0.37349" y2="0.478989" style="stroke:rgb(246,147,147);stroke-width:0.01" />
<line x1="-0.544492" y1="-0.309418" x2="-0.564372" y2="-0.250545" style="stroke:rgb(246,147,147);stroke-width:0.01" />
<line x1="-0.424553" y1="-0.268917" x2="-0.515544" y2="-0.182521" style="stroke:rgb(246,147,147);stroke-width:0.01" />
<line x1="-0.356759" y1="0.0386916" x2="0.37349" y2="0.478989" style="stroke:rgb(246,147,147);stroke-width:0.01" />
<line x1="-0.390384" y1="-0.248579" x2="-0.515544" y2="-0.182521" style="stroke:rgb(246,147,147);stroke-width:0.01" />
<line x1="-0.369985" y1="0.0202654" x2="-0.359874" y2="0.0245568" style="stroke:rgb(246,147,147);stroke-width:0.01" />
<line x1="-0.359874" y1="0.0245568" x2="-0.363795" y2="0.0288894" style="stroke:rgb(246,147,147);stroke-width:0.01" />
<line x1="-0.0703348" y1="-0.0986238" x2="-0.363795" y2="0.0288894" style="stroke:rgb(246,147,147);stroke-width:0.01" />
<line x1="0.577526" y1="0.286132" x2="0.11219" y2="0.321441" style="stroke:rgb(246,147,147);stroke-width:0.01" />
<line x1="0.612683" y1="0.352744" x2="0.37349" y2="0.478989" style="stroke:rgb(246,147,147);stroke-width:0.01" />
</g>
</svg>
