<svg xmlns="http://www.w3.org/2000/svg" viewBox="-1.5 -1.5 3 3">
<g transform="scale(1, -1)">
<path d="M-0.560890 -0.263840 L-0.376042 -0.204265 L-0.179392 -0.003546 L0.235250 -0.003546 L0.235250 0.017054 L0.564032 -0.031164 L0.589525 -0.010696 L0.311186 0.335988 L0.244980 0.432125 L-0.469727 -0.022900 L-0.594171 -0.245210 z " fill="rgb(245,195,195)" />
<path d="M-0.764750 -0.003546 L0.235250 -0.003546 L0.235250 0.996454 L-0.764750 0.996454  z" fill="none" stroke="rgb(128,128,128)" stroke-width="0.01" />
<line x1="0.564032" y1="-0.0311636" x2="0.589525" y2="-0.0106964" style="stroke:rgb(246,147,147);stroke-width:0.01" />
<line x1="-0.56089" y1="-0.26384" x2="-0.376042" y2="-0.204265" style="stroke:rgb(246,147,147);stroke-width:0.01" />
<line x1="-0.376042" y1="-0.204265" x2="0.245903" y2="0.430551" style="stroke:rgb(246,147,147);stroke-width:0.01" />
<line x1="-0.469727" y1="-0.0229002" x2="0.24498" y2="0.432125" style="stroke:rgb(246,147,147);stroke-width:0.01" />
<line x1="-0.594171" y1="-0.24521" x2="-0.469727" y2="-0.0229002" style="stroke:rgb(246,147,147);stroke-width:0.01" />
<line x1="-0.56089" y1="-0.26384" x2="-0.439327" y2="-0.00354553" style="stroke:rgb(246,147,147);stroke-width:0.01" />
<line x1="-0.376042" y1="-0.204265" x2="-0.286732" y2="0.0936054" style="stroke:rgb(246,147,147);stroke-width:0.01" />
<line x1="-0.56089" y1="-0.26384" x2="-0.594171" y2="-0.24521" style="stroke:rgb(246,147,147);stroke-width:0.01" />
<line x1="-0.469727" y1="-0.0229002" x2="0.273496" y2="0.0317514" style="stroke:rgb(246,147,147);stroke-width:0.01" />
<line x1="-0.439327" y1="-0.00354553" x2="0.23525" y2="-0.00354553" style="stroke:rgb(246,147,147);stroke-width:0.01" />
<line x1="0.23525" y1="-0.00354553" x2="0.23525" y2="0.425931" style="stroke:rgb(246,147,147);stroke-width:0.01" />
<line x1="0.273496" y1="0.0317514" x2="0.244096" y2="0.431562" style="stroke:rgb(246,147,147);stroke-width:0.01" />
<line x1="0.564032" y1="-0.0311636" x2="-0.286732" y2="0.0936054" style="stroke:rgb(246,147,147);stroke-width:0.01" />
<line x1="0.239454" y1="0.423968" x2="0.237715" y2="0.4275" style="stroke:rgb(246,147,147);stroke-width:0.01" />
<line x1="0.245903" y1="0.430551" x2="0.24498" y2="0.432125" style="stroke:rgb(246,147,147);stroke-width:0.01" />
<line x1="0.564032" y1="-0.0311636" x2="0.24498" y2="0.432125" style="stroke:rgb(246,147,147);stroke-width:0.01" />
<line x1="0.589525" y1="-0.0106964" x2="0.237715" y2="0.4275" style="stroke:rgb(246,147,147);stroke-width:0.01" />
<line x1="0.239454" y1="0.423968" x2="0.23525" y2="0.425931" style="stroke:rgb(246,147,147);stroke-width:0.01" />
<line x1="0.245903" y1="0.430551" x2="0.244096" y2="0.431562" style="stroke:rgb(246,147,147);stroke-width:0.01" />
</g>
</svg>
