<svg xmlns="http://www.w3.org/2000/svg" viewBox="-1.5 -1.5 3 3">
<g transform="scale(1, -1)">
<path d="M-0.265805 -0.387215 L-0.218081 -0.331029 L-0.156172 -0.199253 L0.222559 -0.199253 L0.222559 0.115400 L0.352583 0.113517 L0.475255 0.433061 L0.222559 0.530070 L-0.368358 0.123956 L-0.487097 -0.199253 z " fill="rgb(245,195,195)" />
<path d="M-0.777441 -0.199253 L0.222559 -0.199253 L0.222559 0.800747 L-0.777441 0.800747  z" fill="none" stroke="rgb(128,128,128)" stroke-width="0.01" />
<line x1="0.352583" y1="0.113517" x2="0.475255" y2="0.433061" style="stroke:rgb(246,147,147);stroke-width:0.01" />
<line x1="-0.265805" y1="-0.387215" x2="-0.218081" y2="-0.331029" style="stroke:rgb(246,147,147);stroke-width:0.01" />
<line x1="-0.218081" y1="-0.331029" x2="0.169266" y2="0.493444" style="stroke:rgb(246,147,147);stroke-width:0.01" />
<line x1="0.169952" y1="0.250313" x2="0.217974" y2="0.496989" style="stroke:rgb(246,147,147);stroke-width:0.01" />
<line x1="-0.218081" y1="-0.331029" x2="-0.106261" y2="0.304085" style="stroke:rgb(246,147,147);stroke-width:0.01" />
<line x1="-0.487097" y1="-0.199253" x2="-0.368358" y2="0.123956" style="stroke:rgb(246,147,147);stroke-width:0.01" />
<line x1="-0.487097" y1="-0.199253" x2="0.222559" y2="-0.199253" style="stroke:rgb(246,147,147);stroke-width:0.01" />
<line x1="0.222559" y1="-0.199253" x2="0.222559" y2="0.53007" style="stroke:rgb(246,147,147);stroke-width:0.01" />
<line x1="-0.368358" y1="0.123956" x2="0.222559" y2="0.53007" style="stroke:rgb(246,147,147);stroke-width:0.01" />
<line x1="-0.265805" y1="-0.387215" x2="-0.487097" y2="-0.199253" style="stroke:rgb(246,147,147);stroke-width:0.01" />
<line x1="0.352583" y1="0.113517" x2="-0.368358" y2="0.123956" style="stroke:rgb(246,147,147);stroke-width:0.01" />
<line x1="0.352583" y1="0.113517" x2="0.217974" y2="0.496989" style="stroke:rgb(246,147,147);stroke-width:0.01" />
<line x1="0.169952" y1="0.250313" x2="-0.106261" y2="0.304085" style="stroke:rgb(246,147,147);stroke-width:0.01" />
<line x1="0.169266" y1="0.493444" x2="0.217974" y2="0.496989" style="stroke:rgb(246,147,147);stroke-width:0.01" />
<line x1="0.475255" y1="0.433061" x2="0.222559" y2="0.53007" style="stroke:rgb(246,147,147);stroke-width:0.01" />
</g>
</svg>
