<svg xmlns="http://www.w3.org/2000/svg" viewBox="-1.5 -1.5 3 3">
<g transform="scale(1, -1)">
<path d="M0.021220 -0.245358 L0.025531 -0.068634 L0.116048 0.017573 L0.202255 -0.072944 L0.383289 0.099469 L0.206565 0.103780 L0.034151 0.284814 L0.038462 0.461538 L-0.323607 0.116711 L-0.151194 -0.064324 L-0.332228 -0.236737 L-0.155504 -0.241048 L-0.064987 -0.154841 z " fill="rgb(245,195,195)" />
<path d="M-0.688550 -0.429266 L0.311450 -0.429266 L0.311450 0.570734 L-0.688550 0.570734  z" fill="none" stroke="rgb(128,128,128)" stroke-width="0.01" />
<line x1="0.202255" y1="-0.0729443" x2="0.383289" y2="0.0994695" style="stroke:rgb(246,147,147);stroke-width:0.01" />
<line x1="-0.155504" y1="-0.241048" x2="0.206565" y2="0.10378" style="stroke:rgb(246,147,147);stroke-width:0.01" />
<line x1="-0.332228" y1="-0.236737" x2="0.0298408" y2="0.10809" style="stroke:rgb(246,147,147);stroke-width:0.01" />
<line x1="0.202255" y1="-0.0729443" x2="0.206565" y2="0.10378" style="stroke:rgb(246,147,147);stroke-width:0.01" />
<line x1="0.0212202" y1="-0.245358" x2="0.0255305" y2="-0.068634" style="stroke:rgb(246,147,147);stroke-width:0.01" />
<line x1="0.0298408" y1="0.10809" x2="0.0384615" y2="0.461538" style="stroke:rgb(246,147,147);stroke-width:0.01" />
<line x1="-0.155504" y1="-0.241048" x2="-0.142573" y2="0.289125" style="stroke:rgb(246,147,147);stroke-width:0.01" />
<line x1="-0.146883" y1="0.112401" x2="0.0341512" y2="0.284814" style="stroke:rgb(246,147,147);stroke-width:0.01" />
<line x1="-0.323607" y1="0.116711" x2="0.0384615" y2="0.461538" style="stroke:rgb(246,147,147);stroke-width:0.01" />
<line x1="-0.155504" y1="-0.241048" x2="-0.332228" y2="-0.236737" style="stroke:rgb(246,147,147);stroke-width:0.01" />
<line x1="0.0255305" y1="-0.068634" x2="-0.151194" y2="-0.0643236" style="stroke:rgb(246,147,147);stroke-width:0.01" />
<line x1="0.0212202" y1="-0.245358" x2="-0.323607" y2="0.116711" style="stroke:rgb(246,147,147);stroke-width:0.01" />
<line x1="0.0255305" y1="-0.068634" x2="-0.23309" y2="0.202918" style="stroke:rgb(246,147,147);stroke-width:0.01" />
<line x1="0.383289" y1="0.0994695" x2="-0.323607" y2="0.116711" style="stroke:rgb(246,147,147);stroke-width:0.01" />
<line x1="0.202255" y1="-0.0729443" x2="-0.142573" y2="0.289125" style="stroke:rgb(246,147,147);stroke-width:0.01" />
<line x1="0.206565" y1="0.10378" x2="-0.0520557" y2="0.375332" style="stroke:rgb(246,147,147);stroke-width:0.01" />
<line x1="0.0341512" y1="0.284814" x2="-0.142573" y2="0.289125" style="stroke:rgb(246,147,147);stroke-width:0.01" />
</g>
</svg>
