<svg xmlns="http://www.w3.org/2000/svg" viewBox="-1.5 -1.5 3 3">
<g transform="scale(1, -1)">
<path d="M0.709770 0.183908 L0.714080 0.360632 L0.804598 0.446839 L0.890805 0.356322 L1.071839 0.528736 L0.895115 0.533046 L0.722701 0.714080 L0.727011 0.890805 L0.364943 0.545977 L0.537356 0.364943 L0.356322 0.192529 L0.533046 0.188218 L0.623563 0.274425 z " fill="rgb(245,195,195)" />
<path d="M0.000000 0.000000 L1.000000 0.000000 L1.000000 1.000000 L0.000000 1.000000  z" fill="none" stroke="rgb(128,128,128)" stroke-width="0.01" />
<line x1="0.890805" y1="0.356322" x2="1.07184" y2="0.528736" style="stroke:rgb(246,147,147);stroke-width:0.01" />
<line x1="0.533046" y1="0.188218" x2="0.895115" y2="0.533046" style="stroke:rgb(246,147,147);stroke-width:0.01" />
<line x1="0.356322" y1="0.192529" x2="0.718391" y2="0.537356" style="stroke:rgb(246,147,147);stroke-width:0.01" />
<line x1="0.890805" y1="0.356322" x2="0.895115" y2="0.533046" style="stroke:rgb(246,147,147);stroke-width:0.01" />
<line x1="0.70977" y1="0.183908" x2="0.71408" y2="0.360632" style="stroke:rgb(246,147,147);stroke-width:0.01" />
<line x1="0.718391" y1="0.537356" x2="0.727011" y2="0.890805" style="stroke:rgb(246,147,147);stroke-width:0.01" />
<line x1="0.533046" y1="0.188218" x2="0.545977" y2="0.718391" style="stroke:rgb(246,147,147);stroke-width:0.01" />
<line x1="0.541667" y1="0.541667" x2="0.722701" y2="0.71408" style="stroke:rgb(246,147,147);stroke-width:0.01" />
<line x1="0.364943" y1="0.545977" x2="0.727011" y2="0.890805" style="stroke:rgb(246,147,147);stroke-width:0.01" />
<line x1="0.533046" y1="0.188218" x2="0.356322" y2="0.192529" style="stroke:rgb(246,147,147);stroke-width:0.01" />
<line x1="0.71408" y1="0.360632" x2="0.537356" y2="0.364943" style="stroke:rgb(246,147,147);stroke-width:0.01" />
<line x1="0.70977" y1="0.183908" x2="0.364943" y2="0.545977" style="stroke:rgb(246,147,147);stroke-width:0.01" />
<line x1="0.71408" y1="0.360632" x2="0.45546" y2="0.632184" style="stroke:rgb(246,147,147);stroke-width:0.01" />
<line x1="1.07184" y1="0.528736" x2="0.364943" y2="0.545977" style="stroke:rgb(246,147,147);stroke-width:0.01" />
<line x1="0.890805" y1="0.356322" x2="0.545977" y2="0.718391" style="stroke:rgb(246,147,147);stroke-width:0.01" />
<line x1="0.895115" y1="0.533046" x2="0.636494" y2="0.804598" style="stroke:rgb(246,147,147);stroke-width:0.01" />
<line x1="0.722701" y1="0.71408" x2="0.545977" y2="0.718391" style="stroke:rgb(246,147,147);stroke-width:0.01" />
</g>
</svg>
