<svg xmlns="http://www.w3.org/2000/svg" viewBox="-1.5 -1.5 3 3">
<g transform="scale(1, -1)">
<path d="M-0.378127 -1.991867 L0.113730 -1.901998 L-0.018489 -1.419797 L-0.233941 -1.478873 L-0.249393 -1.460068 L-0.273523 -1.463252 L-0.390563 -1.272960 L-0.816455 -1.534907 L-0.518532 -1.936457 L-0.422456 -1.865175 L-0.412544 -1.873483 L-0.399629 -1.874183 z " fill="rgb(245,195,195)" />
<path d="M0.000000 0.000000 L1.000000 0.000000 L1.000000 1.000000 L0.000000 1.000000  z" fill="none" stroke="rgb(128,128,128)" stroke-width="0.01" />
<line x1="0.11373" y1="-1.902" x2="-0.412544" y2="-1.87348" style="stroke:rgb(246,147,147);stroke-width:0.01" />
<line x1="-0.378127" y1="-1.99187" x2="0.11373" y2="-1.902" style="stroke:rgb(246,147,147);stroke-width:0.01" />
<line x1="-0.216131" y1="-1.7121" x2="-0.445806" y2="-1.62146" style="stroke:rgb(246,147,147);stroke-width:0.01" />
<line x1="-0.186826" y1="-1.60421" x2="-0.393534" y2="-1.52263" style="stroke:rgb(246,147,147);stroke-width:0.01" />
<line x1="-0.816455" y1="-1.53491" x2="-0.249393" y2="-1.46007" style="stroke:rgb(246,147,147);stroke-width:0.01" />
<line x1="-0.393534" y1="-1.52263" x2="-0.0184889" y2="-1.4198" style="stroke:rgb(246,147,147);stroke-width:0.01" />
<line x1="-0.412544" y1="-1.87348" x2="-0.816455" y2="-1.53491" style="stroke:rgb(246,147,147);stroke-width:0.01" />
<line x1="-0.518532" y1="-1.93646" x2="-0.216131" y2="-1.7121" style="stroke:rgb(246,147,147);stroke-width:0.01" />
<line x1="-0.518532" y1="-1.93646" x2="-0.816455" y2="-1.53491" style="stroke:rgb(246,147,147);stroke-width:0.01" />
<line x1="-0.816455" y1="-1.53491" x2="-0.390563" y2="-1.27296" style="stroke:rgb(246,147,147);stroke-width:0.01" />
<line x1="-0.445806" y1="-1.62146" x2="-0.249393" y2="-1.46007" style="stroke:rgb(246,147,147);stroke-width:0.01" />
<line x1="0.11373" y1="-1.902" x2="-0.249393" y2="-1.46007" style="stroke:rgb(246,147,147);stroke-width:0.01" />
<line x1="-0.412544" y1="-1.87348" x2="-0.186826" y2="-1.60421" style="stroke:rgb(246,147,147);stroke-width:0.01" />
<line x1="-0.186826" y1="-1.60421" x2="-0.390563" y2="-1.27296" style="stroke:rgb(246,147,147);stroke-width:0.01" />
<line x1="-0.378127" y1="-1.99187" x2="-0.445806" y2="-1.62146" style="stroke:rgb(246,147,147);stroke-width:0.01" />
<line x1="0.11373" y1="-1.902" x2="-0.0184889" y2="-1.4198" style="stroke:rgb(246,147,147);stroke-width:0.01" />
<line x1="-0.216131" y1="-1.7121" x2="-0.249393" y2="-1.46007" style="stroke:rgb(246,147,147);stroke-width:0.01" />
<line x1="-0.412544" y1="-1.87348" x2="-0.393534" y2="-1.52263" style="stroke:rgb(246,147,147);stroke-width:0.01" />
</g>
</svg>
