<svg xmlns="http://www.w3.org/2000/svg" viewBox="-1.5 -1.5 3 3">
<g transform="scale(1, -1)">
<path d="M-0.044800 -0.319115 L0.447057 -0.229246 L0.314838 0.252955 L0.099386 0.193878 L0.083934 0.212684 L0.059804 0.209499 L-0.057236 0.399791 L-0.483128 0.137844 L-0.185205 -0.263705 L-0.089129 -0.192423 L-0.079217 -0.200732 L-0.066303 -0.201431 z " fill="rgb(245,195,195)" />
<path d="M0.333327 1.672752 L1.333327 1.672752 L1.333327 2.672752 L0.333327 2.672752  z" fill="none" stroke="rgb(128,128,128)" stroke-width="0.01" />
<line x1="0.447057" y1="-0.229246" x2="-0.0792172" y2="-0.200732" style="stroke:rgb(246,147,147);stroke-width:0.01" />
<line x1="-0.0448001" y1="-0.319115" x2="0.447057" y2="-0.229246" style="stroke:rgb(246,147,147);stroke-width:0.01" />
<line x1="0.117196" y1="-0.0393437" x2="-0.112479" y2="0.0512959" style="stroke:rgb(246,147,147);stroke-width:0.01" />
<line x1="0.1465" y1="0.0685422" x2="-0.0602077" y2="0.150118" style="stroke:rgb(246,147,147);stroke-width:0.01" />
<line x1="-0.483128" y1="0.137844" x2="0.0839341" y2="0.212684" style="stroke:rgb(246,147,147);stroke-width:0.01" />
<line x1="-0.0602077" y1="0.150118" x2="0.314838" y2="0.252955" style="stroke:rgb(246,147,147);stroke-width:0.01" />
<line x1="-0.0792172" y1="-0.200732" x2="-0.483128" y2="0.137844" style="stroke:rgb(246,147,147);stroke-width:0.01" />
<line x1="-0.185205" y1="-0.263705" x2="0.117196" y2="-0.0393437" style="stroke:rgb(246,147,147);stroke-width:0.01" />
<line x1="-0.185205" y1="-0.263705" x2="-0.483128" y2="0.137844" style="stroke:rgb(246,147,147);stroke-width:0.01" />
<line x1="-0.483128" y1="0.137844" x2="-0.0572364" y2="0.399791" style="stroke:rgb(246,147,147);stroke-width:0.01" />
<line x1="-0.112479" y1="0.0512959" x2="0.0839341" y2="0.212684" style="stroke:rgb(246,147,147);stroke-width:0.01" />
<line x1="0.447057" y1="-0.229246" x2="0.0839341" y2="0.212684" style="stroke:rgb(246,147,147);stroke-width:0.01" />
<line x1="-0.0792172" y1="-0.200732" x2="0.1465" y2="0.0685422" style="stroke:rgb(246,147,147);stroke-width:0.01" />
<line x1="0.1465" y1="0.0685422" x2="-0.0572364" y2="0.399791" style="stroke:rgb(246,147,147);stroke-width:0.01" />
<line x1="-0.0448001" y1="-0.319115" x2="-0.112479" y2="0.0512959" style="stroke:rgb(246,147,147);stroke-width:0.01" />
<line x1="0.447057" y1="-0.229246" x2="0.314838" y2="0.252955" style="stroke:rgb(246,147,147);stroke-width:0.01" />
<line x1="0.117196" y1="-0.0393437" x2="0.0839341" y2="0.212684" style="stroke:rgb(246,147,147);stroke-width:0.01" />
<line x1="-0.0792172" y1="-0.200732" x2="-0.0602077" y2="0.150118" style="stroke:rgb(246,147,147);stroke-width:0.01" />
</g>
</svg>
