<svg xmlns="http://www.w3.org/2000/svg" viewBox="-1.5 -1.5 3 3">
<g transform="scale(1, -1)">
<path d="M-0.000659 -0.322244 L0.474249 -0.165838 L0.277214 0.293703 L0.071888 0.205666 L0.054005 0.222178 L0.030539 0.215717 L-0.111468 0.388180 L-0.497457 0.070356 L-0.147332 -0.286592 L-0.061927 -0.202819 L-0.050970 -0.209692 L-0.038081 -0.208616 z " fill="rgb(245,195,195)" />
<path d="M0.384446 1.584503 L1.384446 1.584503 L1.384446 2.584503 L0.384446 2.584503  z" fill="none" stroke="rgb(128,128,128)" stroke-width="0.01" />
<line x1="-0.0509701" y1="-0.209692" x2="0.474249" y2="-0.165838" style="stroke:rgb(246,147,147);stroke-width:0.01" />
<line x1="-0.000658975" y1="-0.322244" x2="0.474249" y2="-0.165838" style="stroke:rgb(246,147,147);stroke-width:0.01" />
<line x1="0.121481" y1="-0.0229169" x2="-0.118446" y2="0.0354026" style="stroke:rgb(246,147,147);stroke-width:0.01" />
<line x1="-0.0509701" y1="-0.209692" x2="-0.497457" y2="0.0703562" style="stroke:rgb(246,147,147);stroke-width:0.01" />
<line x1="0.135729" y1="0.0879664" x2="-0.0802061" y2="0.140454" style="stroke:rgb(246,147,147);stroke-width:0.01" />
<line x1="-0.147332" y1="-0.286592" x2="-0.497457" y2="0.0703562" style="stroke:rgb(246,147,147);stroke-width:0.01" />
<line x1="-0.497457" y1="0.0703562" x2="0.054005" y2="0.222178" style="stroke:rgb(246,147,147);stroke-width:0.01" />
<line x1="-0.0802061" y1="0.140454" x2="0.277214" y2="0.293703" style="stroke:rgb(246,147,147);stroke-width:0.01" />
<line x1="0.474249" y1="-0.165838" x2="0.054005" y2="0.222178" style="stroke:rgb(246,147,147);stroke-width:0.01" />
<line x1="0.135729" y1="0.0879664" x2="-0.111468" y2="0.38818" style="stroke:rgb(246,147,147);stroke-width:0.01" />
<line x1="-0.147332" y1="-0.286592" x2="0.121481" y2="-0.0229169" style="stroke:rgb(246,147,147);stroke-width:0.01" />
<line x1="-0.497457" y1="0.0703562" x2="-0.111468" y2="0.38818" style="stroke:rgb(246,147,147);stroke-width:0.01" />
<line x1="-0.118446" y1="0.0354026" x2="0.054005" y2="0.222178" style="stroke:rgb(246,147,147);stroke-width:0.01" />
<line x1="-0.0509701" y1="-0.209692" x2="0.135729" y2="0.0879664" style="stroke:rgb(246,147,147);stroke-width:0.01" />
<line x1="-0.000658975" y1="-0.322244" x2="-0.118446" y2="0.0354026" style="stroke:rgb(246,147,147);stroke-width:0.01" />
<line x1="0.474249" y1="-0.165838" x2="0.277214" y2="0.293703" style="stroke:rgb(246,147,147);stroke-width:0.01" />
<line x1="0.121481" y1="-0.0229169" x2="0.054005" y2="0.222178" style="stroke:rgb(246,147,147);stroke-width:0.01" />
<line x1="-0.0509701" y1="-0.209692" x2="-0.0802061" y2="0.140454" style="stroke:rgb(246,147,147);stroke-width:0.01" />
</g>
</svg>
