<svg xmlns="http://www.w3.org/2000/svg" viewBox="-1.5 -1.5 3 3">
<g transform="scale(1, -1)">
<path d="M0.370521 -0.339305 L0.370521 0.160695 L0.147117 0.160695 L0.137188 0.182918 L0.113075 0.186227 L0.050521 0.400695 L-0.429479 0.260695 L-0.248346 -0.205342 L-0.136841 -0.162004 L-0.129479 -0.172638 L-0.117209 -0.176728 L-0.127592 -0.295908 z " fill="rgb(245,195,195)" />
<path d="M0.270521 1.860695 L1.270521 1.860695 L1.270521 2.860695 L0.270521 2.860695  z" fill="none" stroke="rgb(128,128,128)" stroke-width="0.01" />
<line x1="0.370521" y1="-0.339305" x2="-0.127592" y2="-0.295908" style="stroke:rgb(246,147,147);stroke-width:0.01" />
<line x1="0.370521" y1="-0.339305" x2="-0.129479" y2="-0.172638" style="stroke:rgb(246,147,147);stroke-width:0.01" />
<line x1="-0.0183674" y1="0.160695" x2="0.370521" y2="0.160695" style="stroke:rgb(246,147,147);stroke-width:0.01" />
<line x1="0.137188" y1="0.182918" x2="-0.429479" y2="0.260695" style="stroke:rgb(246,147,147);stroke-width:0.01" />
<line x1="-0.248346" y1="-0.205342" x2="0.10262" y2="-0.0689343" style="stroke:rgb(246,147,147);stroke-width:0.01" />
<line x1="-0.0949106" y1="0.0792138" x2="0.137188" y2="0.182918" style="stroke:rgb(246,147,147);stroke-width:0.01" />
<line x1="0.10262" y1="-0.0689343" x2="-0.0949106" y2="0.0792138" style="stroke:rgb(246,147,147);stroke-width:0.01" />
<line x1="-0.429479" y1="0.260695" x2="0.0505215" y2="0.400695" style="stroke:rgb(246,147,147);stroke-width:0.01" />
<line x1="0.15941" y1="0.027362" x2="-0.0183674" y2="0.160695" style="stroke:rgb(246,147,147);stroke-width:0.01" />
<line x1="-0.129479" y1="-0.172638" x2="0.15941" y2="0.027362" style="stroke:rgb(246,147,147);stroke-width:0.01" />
<line x1="-0.129479" y1="-0.172638" x2="-0.429479" y2="0.260695" style="stroke:rgb(246,147,147);stroke-width:0.01" />
<line x1="-0.248346" y1="-0.205342" x2="-0.429479" y2="0.260695" style="stroke:rgb(246,147,147);stroke-width:0.01" />
<line x1="0.370521" y1="-0.339305" x2="0.137188" y2="0.182918" style="stroke:rgb(246,147,147);stroke-width:0.01" />
<line x1="0.15941" y1="0.027362" x2="0.0505215" y2="0.400695" style="stroke:rgb(246,147,147);stroke-width:0.01" />
<line x1="-0.129479" y1="-0.172638" x2="-0.0183674" y2="0.160695" style="stroke:rgb(246,147,147);stroke-width:0.01" />
<line x1="0.10262" y1="-0.0689343" x2="0.137188" y2="0.182918" style="stroke:rgb(246,147,147);stroke-width:0.01" />
<line x1="0.370521" y1="-0.339305" x2="0.370521" y2="0.160695" style="stroke:rgb(246,147,147);stroke-width:0.01" />
<line x1="-0.127592" y1="-0.295908" x2="-0.0949106" y2="0.0792138" style="stroke:rgb(246,147,147);stroke-width:0.01" />
</g>
</svg>
