<svg xmlns="http://www.w3.org/2000/svg" viewBox="-1.5 -1.5 3 3">
<g transform="scale(1, -1)">
<path d="M0.100000 -2.200000 L0.100000 -1.700000 L-0.123404 -1.700000 L-0.133333 -1.677778 L-0.157447 -1.674468 L-0.220000 -1.460000 L-0.700000 -1.600000 L-0.518868 -2.066038 L-0.407362 -2.022699 L-0.400000 -2.033333 L-0.387730 -2.037423 L-0.398113 -2.156604 z " fill="rgb(245,195,195)" />
<path d="M0.000000 0.000000 L1.000000 0.000000 L1.000000 1.000000 L0.000000 1.000000  z" fill="none" stroke="rgb(128,128,128)" stroke-width="0.01" />
<line x1="0.1" y1="-2.2" x2="-0.398113" y2="-2.1566" style="stroke:rgb(246,147,147);stroke-width:0.01" />
<line x1="0.1" y1="-2.2" x2="-0.4" y2="-2.03333" style="stroke:rgb(246,147,147);stroke-width:0.01" />
<line x1="-0.288889" y1="-1.7" x2="0.1" y2="-1.7" style="stroke:rgb(246,147,147);stroke-width:0.01" />
<line x1="-0.133333" y1="-1.67778" x2="-0.7" y2="-1.6" style="stroke:rgb(246,147,147);stroke-width:0.01" />
<line x1="-0.518868" y1="-2.06604" x2="-0.167901" y2="-1.92963" style="stroke:rgb(246,147,147);stroke-width:0.01" />
<line x1="-0.365432" y1="-1.78148" x2="-0.133333" y2="-1.67778" style="stroke:rgb(246,147,147);stroke-width:0.01" />
<line x1="-0.167901" y1="-1.92963" x2="-0.365432" y2="-1.78148" style="stroke:rgb(246,147,147);stroke-width:0.01" />
<line x1="-0.7" y1="-1.6" x2="-0.22" y2="-1.46" style="stroke:rgb(246,147,147);stroke-width:0.01" />
<line x1="-0.111111" y1="-1.83333" x2="-0.288889" y2="-1.7" style="stroke:rgb(246,147,147);stroke-width:0.01" />
<line x1="-0.4" y1="-2.03333" x2="-0.111111" y2="-1.83333" style="stroke:rgb(246,147,147);stroke-width:0.01" />
<line x1="-0.4" y1="-2.03333" x2="-0.7" y2="-1.6" style="stroke:rgb(246,147,147);stroke-width:0.01" />
<line x1="-0.518868" y1="-2.06604" x2="-0.7" y2="-1.6" style="stroke:rgb(246,147,147);stroke-width:0.01" />
<line x1="0.1" y1="-2.2" x2="-0.133333" y2="-1.67778" style="stroke:rgb(246,147,147);stroke-width:0.01" />
<line x1="-0.111111" y1="-1.83333" x2="-0.22" y2="-1.46" style="stroke:rgb(246,147,147);stroke-width:0.01" />
<line x1="-0.4" y1="-2.03333" x2="-0.288889" y2="-1.7" style="stroke:rgb(246,147,147);stroke-width:0.01" />
<line x1="-0.167901" y1="-1.92963" x2="-0.133333" y2="-1.67778" style="stroke:rgb(246,147,147);stroke-width:0.01" />
<line x1="0.1" y1="-2.2" x2="0.1" y2="-1.7" style="stroke:rgb(246,147,147);stroke-width:0.01" />
<line x1="-0.398113" y1="-2.1566" x2="-0.365432" y2="-1.78148" style="stroke:rgb(246,147,147);stroke-width:0.01" />
</g>
</svg>
