<svg xmlns="http://www.w3.org/2000/svg" viewBox="-1.5 -1.5 3 3">
<g transform="scale(1, -1)">
<path d="M-0.018601 -0.321707 L0.464279 -0.191987 L0.293138 0.277812 L0.083228 0.201344 L0.066292 0.218826 L0.042502 0.213682 L-0.089681 0.393785 L-0.492768 0.097946 L-0.163061 -0.277944 L-0.073124 -0.199057 L-0.062567 -0.206528 L-0.049638 -0.206172 z " fill="rgb(245,195,195)" />
<path d="M0.362265 1.619422 L1.362265 1.619422 L1.362265 2.619422 L0.362265 2.619422  z" fill="none" stroke="rgb(128,128,128)" stroke-width="0.01" />
<line x1="-0.0625668" y1="-0.206528" x2="0.464279" y2="-0.191987" style="stroke:rgb(246,147,147);stroke-width:0.01" />
<line x1="-0.0186007" y1="-0.321707" x2="0.464279" y2="-0.191987" style="stroke:rgb(246,147,147);stroke-width:0.01" />
<line x1="0.120017" y1="-0.0296455" x2="-0.116291" y2="0.0419429" style="stroke:rgb(246,147,147);stroke-width:0.01" />
<line x1="0.140416" y1="0.0802725" x2="-0.0722611" y2="0.144702" style="stroke:rgb(246,147,147);stroke-width:0.01" />
<line x1="-0.0625668" y1="-0.206528" x2="-0.492768" y2="0.0979459" style="stroke:rgb(246,147,147);stroke-width:0.01" />
<line x1="-0.492768" y1="0.0979459" x2="0.0662923" y2="0.218826" style="stroke:rgb(246,147,147);stroke-width:0.01" />
<line x1="-0.0722611" y1="0.144702" x2="0.293138" y2="0.277812" style="stroke:rgb(246,147,147);stroke-width:0.01" />
<line x1="-0.163061" y1="-0.277944" x2="-0.492768" y2="0.0979459" style="stroke:rgb(246,147,147);stroke-width:0.01" />
<line x1="0.464279" y1="-0.191987" x2="0.0662923" y2="0.218826" style="stroke:rgb(246,147,147);stroke-width:0.01" />
<line x1="-0.163061" y1="-0.277944" x2="0.120017" y2="-0.0296455" style="stroke:rgb(246,147,147);stroke-width:0.01" />
<line x1="0.140416" y1="0.0802725" x2="-0.0896809" y2="0.393785" style="stroke:rgb(246,147,147);stroke-width:0.01" />
<line x1="-0.492768" y1="0.0979459" x2="-0.0896809" y2="0.393785" style="stroke:rgb(246,147,147);stroke-width:0.01" />
<line x1="-0.116291" y1="0.0419429" x2="0.0662923" y2="0.218826" style="stroke:rgb(246,147,147);stroke-width:0.01" />
<line x1="-0.0625668" y1="-0.206528" x2="0.140416" y2="0.0802725" style="stroke:rgb(246,147,147);stroke-width:0.01" />
<line x1="-0.0186007" y1="-0.321707" x2="-0.116291" y2="0.0419429" style="stroke:rgb(246,147,147);stroke-width:0.01" />
<line x1="0.464279" y1="-0.191987" x2="0.293138" y2="0.277812" style="stroke:rgb(246,147,147);stroke-width:0.01" />
<line x1="0.120017" y1="-0.0296455" x2="0.0662923" y2="0.218826" style="stroke:rgb(246,147,147);stroke-width:0.01" />
<line x1="-0.0625668" y1="-0.206528" x2="-0.0722611" y2="0.144702" style="stroke:rgb(246,147,147);stroke-width:0.01" />
</g>
</svg>
