<svg xmlns="http://www.w3.org/2000/svg" viewBox="-1.5 -1.5 3 3">
<g transform="scale(1, -1)">
<path d="M-0.380866 -1.941130 L0.102013 -1.811409 L-0.069128 -1.341611 L-0.279038 -1.418078 L-0.295973 -1.400597 L-0.319763 -1.405740 L-0.451946 -1.225638 L-0.855034 -1.521477 L-0.525326 -1.897366 L-0.435389 -1.818479 L-0.424832 -1.825951 L-0.411903 -1.825594 z " fill="rgb(245,195,195)" />
<path d="M0.000000 0.000000 L1.000000 0.000000 L1.000000 1.000000 L0.000000 1.000000  z" fill="none" stroke="rgb(128,128,128)" stroke-width="0.01" />
<line x1="-0.424832" y1="-1.82595" x2="0.102013" y2="-1.81141" style="stroke:rgb(246,147,147);stroke-width:0.01" />
<line x1="-0.380866" y1="-1.94113" x2="0.102013" y2="-1.81141" style="stroke:rgb(246,147,147);stroke-width:0.01" />
<line x1="-0.242249" y1="-1.64907" x2="-0.478557" y2="-1.57748" style="stroke:rgb(246,147,147);stroke-width:0.01" />
<line x1="-0.221849" y1="-1.53915" x2="-0.434526" y2="-1.47472" style="stroke:rgb(246,147,147);stroke-width:0.01" />
<line x1="-0.424832" y1="-1.82595" x2="-0.855034" y2="-1.52148" style="stroke:rgb(246,147,147);stroke-width:0.01" />
<line x1="-0.855034" y1="-1.52148" x2="-0.295973" y2="-1.4006" style="stroke:rgb(246,147,147);stroke-width:0.01" />
<line x1="-0.434526" y1="-1.47472" x2="-0.0691275" y2="-1.34161" style="stroke:rgb(246,147,147);stroke-width:0.01" />
<line x1="-0.525326" y1="-1.89737" x2="-0.855034" y2="-1.52148" style="stroke:rgb(246,147,147);stroke-width:0.01" />
<line x1="0.102013" y1="-1.81141" x2="-0.295973" y2="-1.4006" style="stroke:rgb(246,147,147);stroke-width:0.01" />
<line x1="-0.525326" y1="-1.89737" x2="-0.242249" y2="-1.64907" style="stroke:rgb(246,147,147);stroke-width:0.01" />
<line x1="-0.221849" y1="-1.53915" x2="-0.451946" y2="-1.22564" style="stroke:rgb(246,147,147);stroke-width:0.01" />
<line x1="-0.855034" y1="-1.52148" x2="-0.451946" y2="-1.22564" style="stroke:rgb(246,147,147);stroke-width:0.01" />
<line x1="-0.478557" y1="-1.57748" x2="-0.295973" y2="-1.4006" style="stroke:rgb(246,147,147);stroke-width:0.01" />
<line x1="-0.424832" y1="-1.82595" x2="-0.221849" y2="-1.53915" style="stroke:rgb(246,147,147);stroke-width:0.01" />
<line x1="-0.380866" y1="-1.94113" x2="-0.478557" y2="-1.57748" style="stroke:rgb(246,147,147);stroke-width:0.01" />
<line x1="0.102013" y1="-1.81141" x2="-0.0691275" y2="-1.34161" style="stroke:rgb(246,147,147);stroke-width:0.01" />
<line x1="-0.242249" y1="-1.64907" x2="-0.295973" y2="-1.4006" style="stroke:rgb(246,147,147);stroke-width:0.01" />
<line x1="-0.424832" y1="-1.82595" x2="-0.434526" y2="-1.47472" style="stroke:rgb(246,147,147);stroke-width:0.01" />
</g>
</svg>
