<svg xmlns="http://www.w3.org/2000/svg" viewBox="-1.5 -1.5 3 3">
<g transform="scale(1, -1)">
<path d="M0.011621 -0.322035 L0.480223 -0.147646 L0.265821 0.304053 L0.063998 0.208256 L0.045500 0.224074 L0.022296 0.216724 L-0.126179 0.383651 L-0.499777 0.051349 L-0.136304 -0.291998 L-0.054153 -0.205032 L-0.042943 -0.211482 L-0.030104 -0.209915 z " fill="rgb(245,195,195)" />
<path d="M0.400725 1.561349 L1.400725 1.561349 L1.400725 2.561349 L0.400725 2.561349  z" fill="none" stroke="rgb(128,128,128)" stroke-width="0.01" />
<line x1="-0.0429426" y1="-0.211482" x2="0.480223" y2="-0.147646" style="stroke:rgb(246,147,147);stroke-width:0.01" />
<line x1="0.122266" y1="-0.0182711" x2="-0.119709" y2="0.0308635" style="stroke:rgb(246,147,147);stroke-width:0.01" />
<line x1="0.0116208" y1="-0.322035" x2="0.480223" y2="-0.147646" style="stroke:rgb(246,147,147);stroke-width:0.01" />
<line x1="-0.0429426" y1="-0.211482" x2="-0.499777" y2="0.0513492" style="stroke:rgb(246,147,147);stroke-width:0.01" />
<line x1="0.132278" y1="0.0930746" x2="-0.0854999" y2="0.137296" style="stroke:rgb(246,147,147);stroke-width:0.01" />
<line x1="-0.136304" y1="-0.291998" x2="-0.499777" y2="0.0513492" style="stroke:rgb(246,147,147);stroke-width:0.01" />
<line x1="-0.499777" y1="0.0513492" x2="0.0454996" y2="0.224074" style="stroke:rgb(246,147,147);stroke-width:0.01" />
<line x1="-0.0854999" y1="0.137296" x2="0.265821" y2="0.304053" style="stroke:rgb(246,147,147);stroke-width:0.01" />
<line x1="0.480223" y1="-0.147646" x2="0.0454996" y2="0.224074" style="stroke:rgb(246,147,147);stroke-width:0.01" />
<line x1="0.132278" y1="0.0930746" x2="-0.126179" y2="0.383651" style="stroke:rgb(246,147,147);stroke-width:0.01" />
<line x1="-0.136304" y1="-0.291998" x2="0.122266" y2="-0.0182711" style="stroke:rgb(246,147,147);stroke-width:0.01" />
<line x1="-0.499777" y1="0.0513492" x2="-0.126179" y2="0.383651" style="stroke:rgb(246,147,147);stroke-width:0.01" />
<line x1="-0.119709" y1="0.0308635" x2="0.0454996" y2="0.224074" style="stroke:rgb(246,147,147);stroke-width:0.01" />
<line x1="0.0116208" y1="-0.322035" x2="-0.119709" y2="0.0308635" style="stroke:rgb(246,147,147);stroke-width:0.01" />
<line x1="0.480223" y1="-0.147646" x2="0.265821" y2="0.304053" style="stroke:rgb(246,147,147);stroke-width:0.01" />
<line x1="-0.0429426" y1="-0.211482" x2="0.132278" y2="0.0930746" style="stroke:rgb(246,147,147);stroke-width:0.01" />
<line x1="0.122266" y1="-0.0182711" x2="0.0454996" y2="0.224074" style="stroke:rgb(246,147,147);stroke-width:0.01" />
<line x1="-0.0429426" y1="-0.211482" x2="-0.0854999" y2="0.137296" style="stroke:rgb(246,147,147);stroke-width:0.01" />
</g>
</svg>
