<svg xmlns="http://www.w3.org/2000/svg" viewBox="-1.5 -1.5 3 3">
<g transform="scale(1, -1)">
<path d="M-0.050000 -0.350000 L-0.025000 -0.175000 L0.075000 -0.100000 L0.150000 -0.200000 L0.350000 -0.050000 L0.175000 -0.025000 L0.025000 0.175000 L0.050000 0.350000 L-0.350000 0.050000 L-0.200000 -0.150000 L-0.400000 -0.300000 L-0.225000 -0.325000 L-0.125000 -0.250000 z " fill="rgb(245,195,195)" />
<path d="M0.000000 0.000000 L1.000000 0.000000 L1.000000 1.000000 L0.000000 1.000000  z" fill="none" stroke="rgb(128,128,128)" stroke-width="0.01" />
<line x1="-0.225" y1="-0.325" x2="-0.4" y2="-0.3" style="stroke:rgb(246,147,147);stroke-width:0.01" />
<line x1="0.15" y1="-0.2" x2="0.35" y2="-0.05" style="stroke:rgb(246,147,147);stroke-width:0.01" />
<line x1="-0.025" y1="-0.175" x2="-0.2" y2="-0.15" style="stroke:rgb(246,147,147);stroke-width:0.01" />
<line x1="-0.05" y1="-0.35" x2="-0.35" y2="0.05" style="stroke:rgb(246,147,147);stroke-width:0.01" />
<line x1="-0.225" y1="-0.325" x2="0.175" y2="-0.025" style="stroke:rgb(246,147,147);stroke-width:0.01" />
<line x1="-0.025" y1="-0.175" x2="-0.25" y2="0.125" style="stroke:rgb(246,147,147);stroke-width:0.01" />
<line x1="0.15" y1="-0.2" x2="0.175" y2="-0.025" style="stroke:rgb(246,147,147);stroke-width:0.01" />
<line x1="-0.4" y1="-0.3" x2="0" y2="0" style="stroke:rgb(246,147,147);stroke-width:0.01" />
<line x1="-0.05" y1="-0.35" x2="-0.025" y2="-0.175" style="stroke:rgb(246,147,147);stroke-width:0.01" />
<line x1="0" y1="0" x2="0.05" y2="0.35" style="stroke:rgb(246,147,147);stroke-width:0.01" />
<line x1="0.15" y1="-0.2" x2="-0.15" y2="0.2" style="stroke:rgb(246,147,147);stroke-width:0.01" />
<line x1="0.35" y1="-0.05" x2="-0.35" y2="0.05" style="stroke:rgb(246,147,147);stroke-width:0.01" />
<line x1="-0.225" y1="-0.325" x2="-0.15" y2="0.2" style="stroke:rgb(246,147,147);stroke-width:0.01" />
<line x1="0.175" y1="-0.025" x2="-0.05" y2="0.275" style="stroke:rgb(246,147,147);stroke-width:0.01" />
<line x1="-0.175" y1="0.025" x2="0.025" y2="0.175" style="stroke:rgb(246,147,147);stroke-width:0.01" />
<line x1="0.025" y1="0.175" x2="-0.15" y2="0.2" style="stroke:rgb(246,147,147);stroke-width:0.01" />
<line x1="-0.35" y1="0.05" x2="0.05" y2="0.35" style="stroke:rgb(246,147,147);stroke-width:0.01" />
</g>
</svg>
