<svg xmlns="http://www.w3.org/2000/svg" viewBox="-1.5 -1.5 3 3">
<g transform="scale(1, -1)">
<path d="M-0.007692 -0.246154 L0.017308 -0.071154 L0.117308 0.003846 L0.192308 -0.096154 L0.392308 0.053846 L0.217308 0.078846 L0.067308 0.278846 L0.092308 0.453846 L-0.307692 0.153846 L-0.157692 -0.046154 L-0.357692 -0.196154 L-0.182692 -0.221154 L-0.082692 -0.146154 z " fill="rgb(245,195,195)" />
<path d="M0.042308 0.103846 L1.042308 0.103846 L1.042308 1.103846 L0.042308 1.103846  z" fill="none" stroke="rgb(128,128,128)" stroke-width="0.01" />
<line x1="-0.182692" y1="-0.221154" x2="-0.357692" y2="-0.196154" style="stroke:rgb(246,147,147);stroke-width:0.01" />
<line x1="0.192308" y1="-0.0961538" x2="0.392308" y2="0.0538462" style="stroke:rgb(246,147,147);stroke-width:0.01" />
<line x1="0.0173077" y1="-0.0711538" x2="-0.157692" y2="-0.0461538" style="stroke:rgb(246,147,147);stroke-width:0.01" />
<line x1="-0.00769231" y1="-0.246154" x2="-0.307692" y2="0.153846" style="stroke:rgb(246,147,147);stroke-width:0.01" />
<line x1="-0.182692" y1="-0.221154" x2="0.217308" y2="0.0788462" style="stroke:rgb(246,147,147);stroke-width:0.01" />
<line x1="0.0173077" y1="-0.0711538" x2="-0.207692" y2="0.228846" style="stroke:rgb(246,147,147);stroke-width:0.01" />
<line x1="0.192308" y1="-0.0961538" x2="0.217308" y2="0.0788462" style="stroke:rgb(246,147,147);stroke-width:0.01" />
<line x1="-0.357692" y1="-0.196154" x2="0.0423077" y2="0.103846" style="stroke:rgb(246,147,147);stroke-width:0.01" />
<line x1="-0.00769231" y1="-0.246154" x2="0.0173077" y2="-0.0711538" style="stroke:rgb(246,147,147);stroke-width:0.01" />
<line x1="0.0423077" y1="0.103846" x2="0.0923077" y2="0.453846" style="stroke:rgb(246,147,147);stroke-width:0.01" />
<line x1="0.192308" y1="-0.0961538" x2="-0.107692" y2="0.303846" style="stroke:rgb(246,147,147);stroke-width:0.01" />
<line x1="0.392308" y1="0.0538462" x2="-0.307692" y2="0.153846" style="stroke:rgb(246,147,147);stroke-width:0.01" />
<line x1="-0.182692" y1="-0.221154" x2="-0.107692" y2="0.303846" style="stroke:rgb(246,147,147);stroke-width:0.01" />
<line x1="0.217308" y1="0.0788462" x2="-0.00769231" y2="0.378846" style="stroke:rgb(246,147,147);stroke-width:0.01" />
<line x1="-0.132692" y1="0.128846" x2="0.0673077" y2="0.278846" style="stroke:rgb(246,147,147);stroke-width:0.01" />
<line x1="0.0673077" y1="0.278846" x2="-0.107692" y2="0.303846" style="stroke:rgb(246,147,147);stroke-width:0.01" />
<line x1="-0.307692" y1="0.153846" x2="0.0923077" y2="0.453846" style="stroke:rgb(246,147,147);stroke-width:0.01" />
</g>
</svg>
