<svg xmlns="http://www.w3.org/2000/svg" viewBox="-1.5 -1.5 3 3">
<g transform="scale(1, -1)">
<path d="M-0.033795 -0.320467 L0.454679 -0.213731 L0.305949 0.263636 L0.092658 0.197183 L0.076568 0.215446 L0.052561 0.211433 L-0.070956 0.397586 L-0.487584 0.121142 L-0.176024 -0.269921 L-0.082457 -0.195375 L-0.072265 -0.203338 L-0.059334 -0.203593 z " fill="rgb(245,195,195)" />
<path d="M0.344979 1.650011 L1.344979 1.650011 L1.344979 2.650011 L0.344979 2.650011  z" fill="none" stroke="rgb(128,128,128)" stroke-width="0.01" />
<line x1="0.454679" y1="-0.213731" x2="-0.0722648" y2="-0.203338" style="stroke:rgb(246,147,147);stroke-width:0.01" />
<line x1="-0.0337954" y1="-0.320467" x2="0.454679" y2="-0.213731" style="stroke:rgb(246,147,147);stroke-width:0.01" />
<line x1="0.11848" y1="-0.0352886" x2="-0.114177" y2="0.0473961" style="stroke:rgb(246,147,147);stroke-width:0.01" />
<line x1="0.144055" y1="0.0735415" x2="-0.0653364" y2="0.147958" style="stroke:rgb(246,147,147);stroke-width:0.01" />
<line x1="-0.0722648" y1="-0.203338" x2="-0.487584" y2="0.121142" style="stroke:rgb(246,147,147);stroke-width:0.01" />
<line x1="-0.487584" y1="0.121142" x2="0.0765677" y2="0.215446" style="stroke:rgb(246,147,147);stroke-width:0.01" />
<line x1="-0.0653364" y1="0.147958" x2="0.305949" y2="0.263636" style="stroke:rgb(246,147,147);stroke-width:0.01" />
<line x1="-0.176024" y1="-0.269921" x2="-0.487584" y2="0.121142" style="stroke:rgb(246,147,147);stroke-width:0.01" />
<line x1="-0.176024" y1="-0.269921" x2="0.11848" y2="-0.0352886" style="stroke:rgb(246,147,147);stroke-width:0.01" />
<line x1="0.454679" y1="-0.213731" x2="0.0765677" y2="0.215446" style="stroke:rgb(246,147,147);stroke-width:0.01" />
<line x1="-0.487584" y1="0.121142" x2="-0.0709561" y2="0.397586" style="stroke:rgb(246,147,147);stroke-width:0.01" />
<line x1="-0.114177" y1="0.0473961" x2="0.0765677" y2="0.215446" style="stroke:rgb(246,147,147);stroke-width:0.01" />
<line x1="0.144055" y1="0.0735415" x2="-0.0709561" y2="0.397586" style="stroke:rgb(246,147,147);stroke-width:0.01" />
<line x1="-0.0722648" y1="-0.203338" x2="0.144055" y2="0.0735415" style="stroke:rgb(246,147,147);stroke-width:0.01" />
<line x1="-0.0337954" y1="-0.320467" x2="-0.114177" y2="0.0473961" style="stroke:rgb(246,147,147);stroke-width:0.01" />
<line x1="0.454679" y1="-0.213731" x2="0.305949" y2="0.263636" style="stroke:rgb(246,147,147);stroke-width:0.01" />
<line x1="0.11848" y1="-0.0352886" x2="0.0765677" y2="0.215446" style="stroke:rgb(246,147,147);stroke-width:0.01" />
<line x1="-0.0722648" y1="-0.203338" x2="-0.0653364" y2="0.147958" style="stroke:rgb(246,147,147);stroke-width:0.01" />
</g>
</svg>
