<svg xmlns="http://www.w3.org/2000/svg" viewBox="-1.5 -1.5 3 3">
<g transform="scale(1, -1)">
<path d="M-0.002693 -0.322233 L0.473192 -0.168828 L0.279063 0.291947 L0.073185 0.205208 L0.055407 0.221832 L0.031900 0.215520 L-0.109015 0.388876 L-0.497003 0.073495 L-0.149138 -0.285656 L-0.063206 -0.202424 L-0.052293 -0.209366 L-0.039397 -0.208371 z " fill="rgb(245,195,195)" />
<path d="M0.381835 1.588397 L1.381835 1.588397 L1.381835 2.588397 L0.381835 2.588397  z" fill="none" stroke="rgb(128,128,128)" stroke-width="0.01" />
<line x1="-0.0522928" y1="-0.209366" x2="0.473192" y2="-0.168828" style="stroke:rgb(246,147,147);stroke-width:0.01" />
<line x1="-0.00269325" y1="-0.322233" x2="0.473192" y2="-0.168828" style="stroke:rgb(246,147,147);stroke-width:0.01" />
<line x1="0.121334" y1="-0.0236833" x2="-0.11822" y2="0.0361497" style="stroke:rgb(246,147,147);stroke-width:0.01" />
<line x1="-0.0522928" y1="-0.209366" x2="-0.497003" y2="0.0734952" style="stroke:rgb(246,147,147);stroke-width:0.01" />
<line x1="0.136281" y1="0.0871078" x2="-0.0793178" y2="0.140958" style="stroke:rgb(246,147,147);stroke-width:0.01" />
<line x1="-0.497003" y1="0.0734952" x2="0.0554065" y2="0.221832" style="stroke:rgb(246,147,147);stroke-width:0.01" />
<line x1="-0.149138" y1="-0.285656" x2="-0.497003" y2="0.0734952" style="stroke:rgb(246,147,147);stroke-width:0.01" />
<line x1="-0.0793178" y1="0.140958" x2="0.279063" y2="0.291947" style="stroke:rgb(246,147,147);stroke-width:0.01" />
<line x1="0.473192" y1="-0.168828" x2="0.0554065" y2="0.221832" style="stroke:rgb(246,147,147);stroke-width:0.01" />
<line x1="0.136281" y1="0.0871078" x2="-0.109015" y2="0.388876" style="stroke:rgb(246,147,147);stroke-width:0.01" />
<line x1="-0.149138" y1="-0.285656" x2="0.121334" y2="-0.0236833" style="stroke:rgb(246,147,147);stroke-width:0.01" />
<line x1="-0.497003" y1="0.0734952" x2="-0.109015" y2="0.388876" style="stroke:rgb(246,147,147);stroke-width:0.01" />
<line x1="-0.11822" y1="0.0361497" x2="0.0554065" y2="0.221832" style="stroke:rgb(246,147,147);stroke-width:0.01" />
<line x1="-0.0522928" y1="-0.209366" x2="0.136281" y2="0.0871078" style="stroke:rgb(246,147,147);stroke-width:0.01" />
<line x1="-0.00269325" y1="-0.322233" x2="-0.11822" y2="0.0361497" style="stroke:rgb(246,147,147);stroke-width:0.01" />
<line x1="0.473192" y1="-0.168828" x2="0.279063" y2="0.291947" style="stroke:rgb(246,147,147);stroke-width:0.01" />
<line x1="0.121334" y1="-0.0236833" x2="0.0554065" y2="0.221832" style="stroke:rgb(246,147,147);stroke-width:0.01" />
<line x1="-0.0522928" y1="-0.209366" x2="-0.0793178" y2="0.140958" style="stroke:rgb(246,147,147);stroke-width:0.01" />
</g>
</svg>
