<svg xmlns="http://www.w3.org/2000/svg" viewBox="-1.5 -1.5 3 3">
<g transform="scale(1, -1)">
<path d="M-0.081692 -0.311718 L0.417288 -0.279794 L0.342177 0.214532 L0.121308 0.180972 L0.108153 0.201450 L0.083816 0.201100 L-0.010245 0.403738 L-0.463767 0.193220 L-0.214681 -0.240319 L-0.110951 -0.180722 L-0.102075 -0.190130 L-0.089330 -0.192330 z " fill="rgb(245,195,195)" />
<path d="M0.299726 1.752692 L1.299726 1.752692 L1.299726 2.752692 L0.299726 2.752692  z" fill="none" stroke="rgb(128,128,128)" stroke-width="0.01" />
<line x1="-0.0816919" y1="-0.311718" x2="0.417288" y2="-0.279794" style="stroke:rgb(246,147,147);stroke-width:0.01" />
<line x1="0.417288" y1="-0.279794" x2="-0.102075" y2="-0.19013" style="stroke:rgb(246,147,147);stroke-width:0.01" />
<line x1="-0.463767" y1="0.19322" x2="0.108153" y2="0.20145" style="stroke:rgb(246,147,147);stroke-width:0.01" />
<line x1="-0.042299" y1="0.156113" x2="0.342177" y2="0.214532" style="stroke:rgb(246,147,147);stroke-width:0.01" />
<line x1="0.111811" y1="-0.0527363" x2="-0.105733" y2="0.0640572" style="stroke:rgb(246,147,147);stroke-width:0.01" />
<line x1="0.153491" y1="0.0509984" x2="-0.042299" y2="0.156113" style="stroke:rgb(246,147,147);stroke-width:0.01" />
<line x1="-0.214681" y1="-0.240319" x2="0.111811" y2="-0.0527363" style="stroke:rgb(246,147,147);stroke-width:0.01" />
<line x1="-0.102075" y1="-0.19013" x2="-0.463767" y2="0.19322" style="stroke:rgb(246,147,147);stroke-width:0.01" />
<line x1="-0.105733" y1="0.0640572" x2="0.108153" y2="0.20145" style="stroke:rgb(246,147,147);stroke-width:0.01" />
<line x1="-0.463767" y1="0.19322" x2="-0.0102451" y2="0.403738" style="stroke:rgb(246,147,147);stroke-width:0.01" />
<line x1="-0.102075" y1="-0.19013" x2="0.153491" y2="0.0509984" style="stroke:rgb(246,147,147);stroke-width:0.01" />
<line x1="-0.214681" y1="-0.240319" x2="-0.463767" y2="0.19322" style="stroke:rgb(246,147,147);stroke-width:0.01" />
<line x1="0.417288" y1="-0.279794" x2="0.108153" y2="0.20145" style="stroke:rgb(246,147,147);stroke-width:0.01" />
<line x1="0.153491" y1="0.0509984" x2="-0.0102451" y2="0.403738" style="stroke:rgb(246,147,147);stroke-width:0.01" />
<line x1="-0.0816919" y1="-0.311718" x2="-0.105733" y2="0.0640572" style="stroke:rgb(246,147,147);stroke-width:0.01" />
<line x1="0.417288" y1="-0.279794" x2="0.342177" y2="0.214532" style="stroke:rgb(246,147,147);stroke-width:0.01" />
<line x1="0.111811" y1="-0.0527363" x2="0.108153" y2="0.20145" style="stroke:rgb(246,147,147);stroke-width:0.01" />
<line x1="-0.102075" y1="-0.19013" x2="-0.042299" y2="0.156113" style="stroke:rgb(246,147,147);stroke-width:0.01" />
</g>
</svg>
