<svg xmlns="http://www.w3.org/2000/svg" viewBox="-1.5 -1.5 3 3">
<g transform="scale(1, -1)">
<path d="M-0.080834 -0.311941 L0.418056 -0.278645 L0.341585 0.215473 L0.120809 0.181305 L0.107599 0.201747 L0.083263 0.201330 L-0.011356 0.403708 L-0.464297 0.191943 L-0.214019 -0.240909 L-0.110454 -0.181027 L-0.101552 -0.190410 L-0.088801 -0.192575 z " fill="rgb(245,195,195)" />
<path d="M0.300409 1.750767 L1.300409 1.750767 L1.300409 2.750767 L0.300409 2.750767  z" fill="none" stroke="rgb(128,128,128)" stroke-width="0.01" />
<line x1="-0.0808341" y1="-0.311941" x2="0.418056" y2="-0.278645" style="stroke:rgb(246,147,147);stroke-width:0.01" />
<line x1="0.418056" y1="-0.278645" x2="-0.101552" y2="-0.19041" style="stroke:rgb(246,147,147);stroke-width:0.01" />
<line x1="-0.464297" y1="0.191943" x2="0.107599" y2="0.201747" style="stroke:rgb(246,147,147);stroke-width:0.01" />
<line x1="-0.0427283" y1="0.155996" x2="0.341585" y2="0.215473" style="stroke:rgb(246,147,147);stroke-width:0.01" />
<line x1="0.111956" y1="-0.0524285" x2="-0.105909" y2="0.0637661" style="stroke:rgb(246,147,147);stroke-width:0.01" />
<line x1="0.15335" y1="0.0514205" x2="-0.0427283" y2="0.155996" style="stroke:rgb(246,147,147);stroke-width:0.01" />
<line x1="-0.214019" y1="-0.240909" x2="0.111956" y2="-0.0524285" style="stroke:rgb(246,147,147);stroke-width:0.01" />
<line x1="-0.101552" y1="-0.19041" x2="-0.464297" y2="0.191943" style="stroke:rgb(246,147,147);stroke-width:0.01" />
<line x1="-0.105909" y1="0.0637661" x2="0.107599" y2="0.201747" style="stroke:rgb(246,147,147);stroke-width:0.01" />
<line x1="-0.464297" y1="0.191943" x2="-0.0113557" y2="0.403708" style="stroke:rgb(246,147,147);stroke-width:0.01" />
<line x1="-0.101552" y1="-0.19041" x2="0.15335" y2="0.0514205" style="stroke:rgb(246,147,147);stroke-width:0.01" />
<line x1="-0.214019" y1="-0.240909" x2="-0.464297" y2="0.191943" style="stroke:rgb(246,147,147);stroke-width:0.01" />
<line x1="0.418056" y1="-0.278645" x2="0.107599" y2="0.201747" style="stroke:rgb(246,147,147);stroke-width:0.01" />
<line x1="0.15335" y1="0.0514205" x2="-0.0113557" y2="0.403708" style="stroke:rgb(246,147,147);stroke-width:0.01" />
<line x1="-0.0808341" y1="-0.311941" x2="-0.105909" y2="0.0637661" style="stroke:rgb(246,147,147);stroke-width:0.01" />
<line x1="0.418056" y1="-0.278645" x2="0.341585" y2="0.215473" style="stroke:rgb(246,147,147);stroke-width:0.01" />
<line x1="0.111956" y1="-0.0524285" x2="0.107599" y2="0.201747" style="stroke:rgb(246,147,147);stroke-width:0.01" />
<line x1="-0.101552" y1="-0.19041" x2="-0.0427283" y2="0.155996" style="stroke:rgb(246,147,147);stroke-width:0.01" />
</g>
</svg>
