<svg xmlns="http://www.w3.org/2000/svg" viewBox="-1.5 -1.5 3 3">
<g transform="scale(1, -1)">
<path d="M29891004711953247981023526912.000000 -0.335417 L29891004711953247981023526912.000000 -0.335417 L29891004711953247981023526912.000000 -0.002083 L29891004711953247981023526912.000000 0.264583 L29891004711953247981023526912.000000 0.414583 L29891004711953247981023526912.000000 0.164583 z " fill="rgb(245,195,195)" />
<path d="M0.000000 0.000000 L1.000000 0.000000 L1.000000 1.000000 L0.000000 1.000000  z" fill="none" stroke="rgb(128,128,128)" stroke-width="0.01" />
<line x1="2.9891e+28" y1="-0.335417" x2="2.9891e+28" y2="0.164583" style="stroke:rgb(246,147,147);stroke-width:0.01" />
<line x1="2.9891e+28" y1="-0.00208333" x2="2.9891e+28" y2="0.264583" style="stroke:rgb(246,147,147);stroke-width:0.01" />
<line x1="2.9891e+28" y1="0.164583" x2="2.9891e+28" y2="0.414583" style="stroke:rgb(246,147,147);stroke-width:0.01" />
<line x1="2.9891e+28" y1="-0.335417" x2="2.9891e+28" y2="-0.335417" style="stroke:rgb(246,147,147);stroke-width:0.01" />
<line x1="2.9891e+28" y1="-0.335417" x2="2.9891e+28" y2="0.414583" style="stroke:rgb(246,147,147);stroke-width:0.01" />
<line x1="2.9891e+28" y1="0.164583" x2="2.9891e+28" y2="0.164583" style="stroke:rgb(246,147,147);stroke-width:0.01" />
<line x1="2.9891e+28" y1="-0.00208333" x2="2.9891e+28" y2="0.164583" style="stroke:rgb(246,147,147);stroke-width:0.01" />
<line x1="2.9891e+28" y1="0.264583" x2="2.9891e+28" y2="0.414583" style="stroke:rgb(246,147,147);stroke-width:0.01" />
</g>
</svg>
