<svg xmlns="http://www.w3.org/2000/svg" viewBox="-1.5 -1.5 3 3">
<g transform="scale(1, -1)">
<path d="M0.074713 -0.159004 L0.155172 -0.082375 L0.078544 -0.001916 L0.159004 0.074713 L0.082375 0.155172 L0.001916 0.078544 L-0.074713 0.159004 L-0.155172 0.082375 L-0.078544 0.001916 L-0.159004 -0.074713 L-0.082375 -0.155172 L-0.001916 -0.078544 z " fill="rgb(245,195,195)" />
<path d="M-0.498084 -0.425287 L0.501916 -0.425287 L0.501916 0.574713 L-0.498084 0.574713  z" fill="none" stroke="rgb(128,128,128)" stroke-width="0.01" />
<line x1="0.0747126" y1="-0.159004" x2="0.155172" y2="-0.0823755" style="stroke:rgb(246,147,147);stroke-width:0.01" />
<line x1="-0.0823755" y1="-0.155172" x2="0.159004" y2="0.0747126" style="stroke:rgb(246,147,147);stroke-width:0.01" />
<line x1="-0.00191571" y1="-0.0785441" x2="0.00191571" y2="0.0785441" style="stroke:rgb(246,147,147);stroke-width:0.01" />
<line x1="-0.159004" y1="-0.0747126" x2="0.0823755" y2="0.155172" style="stroke:rgb(246,147,147);stroke-width:0.01" />
<line x1="-0.155172" y1="0.0823755" x2="-0.0747126" y2="0.159004" style="stroke:rgb(246,147,147);stroke-width:0.01" />
<line x1="-0.0823755" y1="-0.155172" x2="-0.159004" y2="-0.0747126" style="stroke:rgb(246,147,147);stroke-width:0.01" />
<line x1="0.0747126" y1="-0.159004" x2="-0.155172" y2="0.0823755" style="stroke:rgb(246,147,147);stroke-width:0.01" />
<line x1="0.155172" y1="-0.0823755" x2="-0.0747126" y2="0.159004" style="stroke:rgb(246,147,147);stroke-width:0.01" />
<line x1="0.159004" y1="0.0747126" x2="0.0823755" y2="0.155172" style="stroke:rgb(246,147,147);stroke-width:0.01" />
</g>
</svg>
