<svg xmlns="http://www.w3.org/2000/svg" viewBox="-1.5 -1.5 3 3">
<g transform="scale(1, -1)">
<path d="M0.572797 0.266284 L0.653257 0.342912 L0.576628 0.423372 L0.657088 0.500000 L0.580460 0.580460 L0.500000 0.503831 L0.423372 0.584291 L0.342912 0.507663 L0.419540 0.427203 L0.339080 0.350575 L0.415709 0.270115 L0.496169 0.346743 z " fill="rgb(245,195,195)" />
<path d="M0.000000 0.000000 L1.000000 0.000000 L1.000000 1.000000 L0.000000 1.000000  z" fill="none" stroke="rgb(128,128,128)" stroke-width="0.01" />
<line x1="0.572797" y1="0.266284" x2="0.653257" y2="0.342912" style="stroke:rgb(246,147,147);stroke-width:0.01" />
<line x1="0.415709" y1="0.270115" x2="0.657088" y2="0.5" style="stroke:rgb(246,147,147);stroke-width:0.01" />
<line x1="0.496169" y1="0.346743" x2="0.5" y2="0.503831" style="stroke:rgb(246,147,147);stroke-width:0.01" />
<line x1="0.33908" y1="0.350575" x2="0.58046" y2="0.58046" style="stroke:rgb(246,147,147);stroke-width:0.01" />
<line x1="0.342912" y1="0.507663" x2="0.423372" y2="0.584291" style="stroke:rgb(246,147,147);stroke-width:0.01" />
<line x1="0.415709" y1="0.270115" x2="0.33908" y2="0.350575" style="stroke:rgb(246,147,147);stroke-width:0.01" />
<line x1="0.572797" y1="0.266284" x2="0.342912" y2="0.507663" style="stroke:rgb(246,147,147);stroke-width:0.01" />
<line x1="0.653257" y1="0.342912" x2="0.423372" y2="0.584291" style="stroke:rgb(246,147,147);stroke-width:0.01" />
<line x1="0.657088" y1="0.5" x2="0.58046" y2="0.58046" style="stroke:rgb(246,147,147);stroke-width:0.01" />
</g>
</svg>
