<svg xmlns="http://www.w3.org/2000/svg" viewBox="-1.5 -1.5 3 3">
<g transform="scale(1, -1)">
<path d="M-0.380000 -0.600657 L0.120000 -0.600657 L0.120000 -0.009747 L0.170000 -0.000657 L0.240000 0.239343 L0.120000 0.274343 L0.120000 0.399343 L-0.130000 0.399343 L-0.380000 -0.100657 z " fill="rgb(245,195,195)" />
<path d="M-807213306755972420104880128.000000 -0.065657 L-807213306755972420104880128.000000 -0.065657 L-807213306755972420104880128.000000 0.934343 L-807213306755972420104880128.000000 0.934343  z" fill="none" stroke="rgb(128,128,128)" stroke-width="0.01" />
<line x1="-0.38" y1="-0.100657" x2="0.12" y2="0.274343" style="stroke:rgb(246,147,147);stroke-width:0.01" />
<line x1="-0.38" y1="-0.100657" x2="-0.13" y2="0.399343" style="stroke:rgb(246,147,147);stroke-width:0.01" />
<line x1="0.17" y1="-0.000656566" x2="0.24" y2="0.239343" style="stroke:rgb(246,147,147);stroke-width:0.01" />
<line x1="-0.38" y1="-0.100657" x2="0.17" y2="-0.000656566" style="stroke:rgb(246,147,147);stroke-width:0.01" />
<line x1="-0.38" y1="-0.600657" x2="0.12" y2="-0.600657" style="stroke:rgb(246,147,147);stroke-width:0.01" />
<line x1="-0.38" y1="-0.600657" x2="-0.38" y2="-0.100657" style="stroke:rgb(246,147,147);stroke-width:0.01" />
<line x1="0.12" y1="-0.600657" x2="0.12" y2="0.399343" style="stroke:rgb(246,147,147);stroke-width:0.01" />
<line x1="-0.13" y1="0.399343" x2="0.12" y2="0.399343" style="stroke:rgb(246,147,147);stroke-width:0.01" />
<line x1="0.24" y1="0.239343" x2="0.12" y2="0.274343" style="stroke:rgb(246,147,147);stroke-width:0.01" />
<line x1="0.17" y1="-0.000656566" x2="-0.13" y2="0.399343" style="stroke:rgb(246,147,147);stroke-width:0.01" />
</g>
</svg>
