<svg xmlns="http://www.w3.org/2000/svg" viewBox="-1.5 -1.5 3 3">
<g transform="scale(1, -1)">
<path d="M807213306755972420104880128.000000 -0.535000 L807213306755972420104880128.000000 -0.535000 L807213306755972420104880128.000000 0.055909 L807213306755972420104880128.000000 0.065000 L807213306755972420104880128.000000 0.305000 L807213306755972420104880128.000000 0.340000 L807213306755972420104880128.000000 0.465000 L807213306755972420104880128.000000 0.465000 L807213306755972420104880128.000000 -0.035000 z " fill="rgb(245,195,195)" />
<path d="M0.000000 0.000000 L1.000000 0.000000 L1.000000 1.000000 L0.000000 1.000000  z" fill="none" stroke="rgb(128,128,128)" stroke-width="0.01" />
<line x1="8.07213e+26" y1="-0.035" x2="8.07213e+26" y2="0.34" style="stroke:rgb(246,147,147);stroke-width:0.01" />
<line x1="8.07213e+26" y1="-0.035" x2="8.07213e+26" y2="0.465" style="stroke:rgb(246,147,147);stroke-width:0.01" />
<line x1="8.07213e+26" y1="0.065" x2="8.07213e+26" y2="0.305" style="stroke:rgb(246,147,147);stroke-width:0.01" />
<line x1="8.07213e+26" y1="-0.035" x2="8.07213e+26" y2="0.065" style="stroke:rgb(246,147,147);stroke-width:0.01" />
<line x1="8.07213e+26" y1="-0.535" x2="8.07213e+26" y2="-0.535" style="stroke:rgb(246,147,147);stroke-width:0.01" />
<line x1="8.07213e+26" y1="-0.535" x2="8.07213e+26" y2="-0.035" style="stroke:rgb(246,147,147);stroke-width:0.01" />
<line x1="8.07213e+26" y1="-0.535" x2="8.07213e+26" y2="0.465" style="stroke:rgb(246,147,147);stroke-width:0.01" />
<line x1="8.07213e+26" y1="0.465" x2="8.07213e+26" y2="0.465" style="stroke:rgb(246,147,147);stroke-width:0.01" />
<line x1="8.07213e+26" y1="0.305" x2="8.07213e+26" y2="0.34" style="stroke:rgb(246,147,147);stroke-width:0.01" />
<line x1="8.07213e+26" y1="0.065" x2="8.07213e+26" y2="0.465" style="stroke:rgb(246,147,147);stroke-width:0.01" />
</g>
</svg>
