<svg xmlns="http://www.w3.org/2000/svg" viewBox="-1.5 -1.5 3 3">
<g transform="scale(1, -1)">
<path d="M0.108911 -0.089109 L0.550000 0.000000 L0.543415 0.065847 L0.769669 0.408998 L0.761236 0.414558 L0.664454 0.394689 L0.691807 0.460336 L0.690877 0.460949 L0.511299 0.387006 L0.500000 0.500000 L0.300000 0.300000 L0.316368 0.275448 L0.060960 -0.036876 L0.061917 -0.046424 L0.142619 -0.038334 z " fill="rgb(245,195,195)" />
<path d="M0.000000 0.000000 L1.000000 0.000000 L1.000000 1.000000 L0.000000 1.000000  z" fill="none" stroke="rgb(128,128,128)" stroke-width="0.01" />
<line x1="0.5" y1="0" x2="0.769669" y2="0.408998" style="stroke:rgb(246,147,147);stroke-width:0.01" />
<line x1="0.5" y1="0" x2="0.691807" y2="0.460336" style="stroke:rgb(246,147,147);stroke-width:0.01" />
<line x1="0.690899" y1="0.459402" x2="0.691807" y2="0.460336" style="stroke:rgb(246,147,147);stroke-width:0.01" />
<line x1="0.108911" y1="-0.0891089" x2="0.55" y2="0" style="stroke:rgb(246,147,147);stroke-width:0.01" />
<line x1="0.108911" y1="-0.0891089" x2="0.5" y2="0.5" style="stroke:rgb(246,147,147);stroke-width:0.01" />
<line x1="0.0619172" y1="-0.0464243" x2="0.525" y2="0" style="stroke:rgb(246,147,147);stroke-width:0.01" />
<line x1="0.0619172" y1="-0.0464243" x2="0.0662126" y2="-0.0411717" style="stroke:rgb(246,147,147);stroke-width:0.01" />
<line x1="0.06096" y1="-0.0368762" x2="0.5" y2="0.5" style="stroke:rgb(246,147,147);stroke-width:0.01" />
<line x1="0.5" y1="0" x2="0.55" y2="0" style="stroke:rgb(246,147,147);stroke-width:0.01" />
<line x1="0.3" y1="0.3" x2="0.5" y2="0.5" style="stroke:rgb(246,147,147);stroke-width:0.01" />
<line x1="0.5" y1="0" x2="0.5" y2="0.5" style="stroke:rgb(246,147,147);stroke-width:0.01" />
<line x1="0.0619172" y1="-0.0464243" x2="0.06096" y2="-0.0368762" style="stroke:rgb(246,147,147);stroke-width:0.01" />
<line x1="0.0666912" y1="-0.0459457" x2="0.0662126" y2="-0.0411717" style="stroke:rgb(246,147,147);stroke-width:0.01" />
<line x1="0.0662126" y1="-0.0411717" x2="0.06096" y2="-0.0368762" style="stroke:rgb(246,147,147);stroke-width:0.01" />
<line x1="0.690899" y1="0.459402" x2="0.690877" y2="0.460949" style="stroke:rgb(246,147,147);stroke-width:0.01" />
<line x1="0.525" y1="0" x2="0.5" y2="0.5" style="stroke:rgb(246,147,147);stroke-width:0.01" />
<line x1="0.55" y1="0" x2="0.5" y2="0.5" style="stroke:rgb(246,147,147);stroke-width:0.01" />
<line x1="0.3" y1="0.3" x2="0.690877" y2="0.460949" style="stroke:rgb(246,147,147);stroke-width:0.01" />
<line x1="0.762673" y1="0.407562" x2="0.761236" y2="0.414558" style="stroke:rgb(246,147,147);stroke-width:0.01" />
<line x1="0.5" y1="0" x2="0.325" y2="0.325" style="stroke:rgb(246,147,147);stroke-width:0.01" />
<line x1="0.5" y1="0" x2="0.3" y2="0.3" style="stroke:rgb(246,147,147);stroke-width:0.01" />
<line x1="0.762673" y1="0.407562" x2="0.769669" y2="0.408998" style="stroke:rgb(246,147,147);stroke-width:0.01" />
<line x1="0.325" y1="0.325" x2="0.761236" y2="0.414558" style="stroke:rgb(246,147,147);stroke-width:0.01" />
<line x1="0.766889" y1="0.404782" x2="0.762673" y2="0.407562" style="stroke:rgb(246,147,147);stroke-width:0.01" />
<line x1="0.769669" y1="0.408998" x2="0.761236" y2="0.414558" style="stroke:rgb(246,147,147);stroke-width:0.01" />
<line x1="0.691807" y1="0.460336" x2="0.690877" y2="0.460949" style="stroke:rgb(246,147,147);stroke-width:0.01" />
</g>
</svg>
