<svg xmlns="http://www.w3.org/2000/svg" viewBox="-1.5 -1.5 3 3">
<g transform="scale(1, -1)">
<path d="M-0.335991 -0.319581 L0.105098 -0.230473 L0.098513 -0.164626 L0.324767 0.178526 L0.316334 0.184086 L0.219552 0.164217 L0.246905 0.229864 L0.245975 0.230477 L0.066397 0.156533 L0.055098 0.269527 L-0.144902 0.069527 L-0.128534 0.044975 L-0.383942 -0.267349 L-0.382985 -0.276897 L-0.302284 -0.268806 z " fill="rgb(245,195,195)" />
<path d="M-0.444902 -0.230473 L0.555098 -0.230473 L0.555098 0.769527 L-0.444902 0.769527  z" fill="none" stroke="rgb(128,128,128)" stroke-width="0.01" />
<line x1="0.0550978" y1="-0.230473" x2="0.324767" y2="0.178526" style="stroke:rgb(246,147,147);stroke-width:0.01" />
<line x1="0.0550978" y1="-0.230473" x2="0.246905" y2="0.229864" style="stroke:rgb(246,147,147);stroke-width:0.01" />
<line x1="0.245997" y1="0.228929" x2="0.246905" y2="0.229864" style="stroke:rgb(246,147,147);stroke-width:0.01" />
<line x1="-0.335991" y1="-0.319581" x2="0.105098" y2="-0.230473" style="stroke:rgb(246,147,147);stroke-width:0.01" />
<line x1="-0.335991" y1="-0.319581" x2="0.0550978" y2="0.269527" style="stroke:rgb(246,147,147);stroke-width:0.01" />
<line x1="-0.382985" y1="-0.276897" x2="0.0800978" y2="-0.230473" style="stroke:rgb(246,147,147);stroke-width:0.01" />
<line x1="-0.382985" y1="-0.276897" x2="-0.37869" y2="-0.271644" style="stroke:rgb(246,147,147);stroke-width:0.01" />
<line x1="-0.383942" y1="-0.267349" x2="0.0550978" y2="0.269527" style="stroke:rgb(246,147,147);stroke-width:0.01" />
<line x1="0.0550978" y1="-0.230473" x2="0.105098" y2="-0.230473" style="stroke:rgb(246,147,147);stroke-width:0.01" />
<line x1="-0.144902" y1="0.0695275" x2="0.0550978" y2="0.269527" style="stroke:rgb(246,147,147);stroke-width:0.01" />
<line x1="0.0550978" y1="-0.230473" x2="0.0550978" y2="0.269527" style="stroke:rgb(246,147,147);stroke-width:0.01" />
<line x1="-0.382985" y1="-0.276897" x2="-0.383942" y2="-0.267349" style="stroke:rgb(246,147,147);stroke-width:0.01" />
<line x1="-0.378211" y1="-0.276418" x2="-0.37869" y2="-0.271644" style="stroke:rgb(246,147,147);stroke-width:0.01" />
<line x1="-0.37869" y1="-0.271644" x2="-0.383942" y2="-0.267349" style="stroke:rgb(246,147,147);stroke-width:0.01" />
<line x1="0.245997" y1="0.228929" x2="0.245975" y2="0.230477" style="stroke:rgb(246,147,147);stroke-width:0.01" />
<line x1="0.0800978" y1="-0.230473" x2="0.0550978" y2="0.269527" style="stroke:rgb(246,147,147);stroke-width:0.01" />
<line x1="0.105098" y1="-0.230473" x2="0.0550978" y2="0.269527" style="stroke:rgb(246,147,147);stroke-width:0.01" />
<line x1="-0.144902" y1="0.0695275" x2="0.245975" y2="0.230477" style="stroke:rgb(246,147,147);stroke-width:0.01" />
<line x1="0.31777" y1="0.177089" x2="0.316334" y2="0.184086" style="stroke:rgb(246,147,147);stroke-width:0.01" />
<line x1="0.0550978" y1="-0.230473" x2="-0.119902" y2="0.0945275" style="stroke:rgb(246,147,147);stroke-width:0.01" />
<line x1="0.0550978" y1="-0.230473" x2="-0.144902" y2="0.0695275" style="stroke:rgb(246,147,147);stroke-width:0.01" />
<line x1="0.31777" y1="0.177089" x2="0.324767" y2="0.178526" style="stroke:rgb(246,147,147);stroke-width:0.01" />
<line x1="-0.119902" y1="0.0945275" x2="0.316334" y2="0.184086" style="stroke:rgb(246,147,147);stroke-width:0.01" />
<line x1="0.321987" y1="0.174309" x2="0.31777" y2="0.177089" style="stroke:rgb(246,147,147);stroke-width:0.01" />
<line x1="0.324767" y1="0.178526" x2="0.316334" y2="0.184086" style="stroke:rgb(246,147,147);stroke-width:0.01" />
<line x1="0.246905" y1="0.229864" x2="0.245975" y2="0.230477" style="stroke:rgb(246,147,147);stroke-width:0.01" />
</g>
</svg>
