<svg xmlns="http://www.w3.org/2000/svg" viewBox="-1.5 -1.5 3 3">
<g transform="scale(1, -1)">
<path d="M0.093846 -0.227692 L0.128846 -0.107692 L0.248846 -0.142692 L0.403846 -0.057692 L0.163846 0.012308 L0.233846 0.252308 L-0.246154 0.392308 L-0.161154 0.237308 L-0.231154 -0.002692 L-0.386154 -0.087692 L-0.146154 -0.157692 L-0.111154 -0.037692 L0.008846 -0.072692 z " fill="rgb(245,195,195)" />
<path d="M-0.076154 0.082308 L0.923846 0.082308 L0.923846 1.082308 L-0.076154 1.082308  z" fill="none" stroke="rgb(128,128,128)" stroke-width="0.01" />
<line x1="0.248846" y1="-0.142692" x2="0.403846" y2="-0.0576923" style="stroke:rgb(246,147,147);stroke-width:0.01" />
<line x1="-0.146154" y1="-0.157692" x2="-0.386154" y2="-0.0876923" style="stroke:rgb(246,147,147);stroke-width:0.01" />
<line x1="0.00884615" y1="-0.0726923" x2="0.163846" y2="0.0123077" style="stroke:rgb(246,147,147);stroke-width:0.01" />
<line x1="0.248846" y1="-0.142692" x2="-0.231154" y2="-0.00269231" style="stroke:rgb(246,147,147);stroke-width:0.01" />
<line x1="-0.146154" y1="-0.157692" x2="-0.231154" y2="-0.00269231" style="stroke:rgb(246,147,147);stroke-width:0.01" />
<line x1="0.0938462" y1="-0.227692" x2="0.233846" y2="0.252308" style="stroke:rgb(246,147,147);stroke-width:0.01" />
<line x1="0.00884615" y1="-0.0726923" x2="0.113846" y2="0.287308" style="stroke:rgb(246,147,147);stroke-width:0.01" />
<line x1="-0.386154" y1="-0.0876923" x2="0.233846" y2="0.252308" style="stroke:rgb(246,147,147);stroke-width:0.01" />
<line x1="-0.146154" y1="-0.157692" x2="-0.00615385" y2="0.322308" style="stroke:rgb(246,147,147);stroke-width:0.01" />
<line x1="0.0938462" y1="-0.227692" x2="0.00884615" y2="-0.0726923" style="stroke:rgb(246,147,147);stroke-width:0.01" />
<line x1="-0.0761538" y1="0.0823077" x2="-0.246154" y2="0.392308" style="stroke:rgb(246,147,147);stroke-width:0.01" />
<line x1="0.403846" y1="-0.0576923" x2="-0.0761538" y2="0.0823077" style="stroke:rgb(246,147,147);stroke-width:0.01" />
<line x1="-0.231154" y1="-0.00269231" x2="-0.126154" y2="0.357308" style="stroke:rgb(246,147,147);stroke-width:0.01" />
<line x1="0.248846" y1="-0.142692" x2="-0.00615385" y2="0.322308" style="stroke:rgb(246,147,147);stroke-width:0.01" />
<line x1="0.0788462" y1="0.167308" x2="-0.161154" y2="0.237308" style="stroke:rgb(246,147,147);stroke-width:0.01" />
<line x1="-0.161154" y1="0.237308" x2="-0.00615385" y2="0.322308" style="stroke:rgb(246,147,147);stroke-width:0.01" />
<line x1="0.233846" y1="0.252308" x2="-0.246154" y2="0.392308" style="stroke:rgb(246,147,147);stroke-width:0.01" />
</g>
</svg>
