<svg xmlns="http://www.w3.org/2000/svg" viewBox="-1.5 -1.5 3 3">
<g transform="scale(1, -1)">
<path d="M0.170000 -0.310000 L0.205000 -0.190000 L0.325000 -0.225000 L0.480000 -0.140000 L0.240000 -0.070000 L0.310000 0.170000 L-0.170000 0.310000 L-0.085000 0.155000 L-0.155000 -0.085000 L-0.310000 -0.170000 L-0.070000 -0.240000 L-0.035000 -0.120000 L0.085000 -0.155000 z " fill="rgb(245,195,195)" />
<path d="M0.000000 0.000000 L1.000000 0.000000 L1.000000 1.000000 L0.000000 1.000000  z" fill="none" stroke="rgb(128,128,128)" stroke-width="0.01" />
<line x1="0.325" y1="-0.225" x2="0.48" y2="-0.14" style="stroke:rgb(246,147,147);stroke-width:0.01" />
<line x1="-0.07" y1="-0.24" x2="-0.31" y2="-0.17" style="stroke:rgb(246,147,147);stroke-width:0.01" />
<line x1="0.085" y1="-0.155" x2="0.24" y2="-0.07" style="stroke:rgb(246,147,147);stroke-width:0.01" />
<line x1="0.325" y1="-0.225" x2="-0.155" y2="-0.085" style="stroke:rgb(246,147,147);stroke-width:0.01" />
<line x1="-0.07" y1="-0.24" x2="-0.155" y2="-0.085" style="stroke:rgb(246,147,147);stroke-width:0.01" />
<line x1="0.17" y1="-0.31" x2="0.31" y2="0.17" style="stroke:rgb(246,147,147);stroke-width:0.01" />
<line x1="0.085" y1="-0.155" x2="0.19" y2="0.205" style="stroke:rgb(246,147,147);stroke-width:0.01" />
<line x1="-0.31" y1="-0.17" x2="0.31" y2="0.17" style="stroke:rgb(246,147,147);stroke-width:0.01" />
<line x1="-0.07" y1="-0.24" x2="0.07" y2="0.24" style="stroke:rgb(246,147,147);stroke-width:0.01" />
<line x1="0.17" y1="-0.31" x2="0.085" y2="-0.155" style="stroke:rgb(246,147,147);stroke-width:0.01" />
<line x1="0" y1="0" x2="-0.17" y2="0.31" style="stroke:rgb(246,147,147);stroke-width:0.01" />
<line x1="0.48" y1="-0.14" x2="0" y2="0" style="stroke:rgb(246,147,147);stroke-width:0.01" />
<line x1="-0.155" y1="-0.085" x2="-0.05" y2="0.275" style="stroke:rgb(246,147,147);stroke-width:0.01" />
<line x1="0.325" y1="-0.225" x2="0.07" y2="0.24" style="stroke:rgb(246,147,147);stroke-width:0.01" />
<line x1="0.155" y1="0.085" x2="-0.085" y2="0.155" style="stroke:rgb(246,147,147);stroke-width:0.01" />
<line x1="-0.085" y1="0.155" x2="0.07" y2="0.24" style="stroke:rgb(246,147,147);stroke-width:0.01" />
<line x1="0.31" y1="0.17" x2="-0.17" y2="0.31" style="stroke:rgb(246,147,147);stroke-width:0.01" />
</g>
</svg>
