<svg xmlns="http://www.w3.org/2000/svg" viewBox="-1.5 -1.5 3 3">
<g transform="scale(1, -1)">
<path d="M0.048889 -0.400000 L0.115556 -0.400000 L0.115556 -0.333333 L0.182222 -0.266667 L0.182222 0.000000 L0.115556 0.066667 L0.115556 0.266667 L-0.017778 0.400000 L-0.084444 0.400000 L-0.217778 0.266667 L-0.217778 0.066667 L-0.151111 0.066667 L-0.151111 0.000000 L-0.084444 0.000000 L0.048889 -0.133333 z " fill="rgb(245,195,195)" />
<path d="M-0.684444 -0.400000 L0.315556 -0.400000 L0.315556 0.600000 L-0.684444 0.600000  z" fill="none" stroke="rgb(128,128,128)" stroke-width="0.01" />
<line x1="0.0488889" y1="-0.4" x2="0.182222" y2="-0.266667" style="stroke:rgb(246,147,147);stroke-width:0.01" />
<line x1="0.0488889" y1="0.0666667" x2="0.115556" y2="0.133333" style="stroke:rgb(246,147,147);stroke-width:0.01" />
<line x1="-0.151111" y1="0.0666667" x2="0.0822222" y2="0.3" style="stroke:rgb(246,147,147);stroke-width:0.01" />
<line x1="0.0488889" y1="-0.4" x2="0.115556" y2="-0.4" style="stroke:rgb(246,147,147);stroke-width:0.01" />
<line x1="-0.217778" y1="0.0666667" x2="-0.217778" y2="0.266667" style="stroke:rgb(246,147,147);stroke-width:0.01" />
<line x1="-0.151111" y1="0" x2="-0.151111" y2="0.333333" style="stroke:rgb(246,147,147);stroke-width:0.01" />
<line x1="0.0488889" y1="-0.4" x2="0.0488889" y2="0.333333" style="stroke:rgb(246,147,147);stroke-width:0.01" />
<line x1="0.115556" y1="-0.4" x2="0.115556" y2="0.266667" style="stroke:rgb(246,147,147);stroke-width:0.01" />
<line x1="0.182222" y1="-0.266667" x2="0.182222" y2="0" style="stroke:rgb(246,147,147);stroke-width:0.01" />
<line x1="-0.0511111" y1="0.366667" x2="-0.0177778" y2="0.4" style="stroke:rgb(246,147,147);stroke-width:0.01" />
<line x1="-0.217778" y1="0.266667" x2="-0.0844444" y2="0.4" style="stroke:rgb(246,147,147);stroke-width:0.01" />
<line x1="-0.151111" y1="0" x2="0.182222" y2="0" style="stroke:rgb(246,147,147);stroke-width:0.01" />
<line x1="-0.217778" y1="0.0666667" x2="0.115556" y2="0.0666667" style="stroke:rgb(246,147,147);stroke-width:0.01" />
<line x1="0.182222" y1="-0.266667" x2="-0.151111" y2="0.0666667" style="stroke:rgb(246,147,147);stroke-width:0.01" />
<line x1="-0.151111" y1="0.133333" x2="0.115556" y2="0.133333" style="stroke:rgb(246,147,147);stroke-width:0.01" />
<line x1="0.182222" y1="0" x2="-0.151111" y2="0.333333" style="stroke:rgb(246,147,147);stroke-width:0.01" />
<line x1="-0.217778" y1="0.266667" x2="0.115556" y2="0.266667" style="stroke:rgb(246,147,147);stroke-width:0.01" />
<line x1="-0.0511111" y1="0.366667" x2="-0.0844444" y2="0.4" style="stroke:rgb(246,147,147);stroke-width:0.01" />
<line x1="-0.151111" y1="0.333333" x2="0.0488889" y2="0.333333" style="stroke:rgb(246,147,147);stroke-width:0.01" />
<line x1="0.115556" y1="0.266667" x2="-0.0177778" y2="0.4" style="stroke:rgb(246,147,147);stroke-width:0.01" />
<line x1="-0.0844444" y1="0.4" x2="-0.0177778" y2="0.4" style="stroke:rgb(246,147,147);stroke-width:0.01" />
</g>
</svg>
