<svg xmlns="http://www.w3.org/2000/svg" viewBox="-1.5 -1.5 3 3">
<g transform="scale(1, -1)">
<path d="M0.040670 -0.700836 L0.624220 0.111241 L-0.025442 0.578081 L-0.298442 0.438081 L-0.341006 -0.426567 z " fill="rgb(245,195,195)" />
<path d="M-1.025442 0.378081 L-0.025442 0.378081 L-0.025442 1.378081 L-1.025442 1.378081  z" fill="none" stroke="rgb(128,128,128)" stroke-width="0.01" />
<line x1="-0.341006" y1="-0.426567" x2="0.11769" y2="-0.161054" style="stroke:rgb(246,147,147);stroke-width:0.01" />
<line x1="0.0406698" y1="-0.700836" x2="0.62422" y2="0.111241" style="stroke:rgb(246,147,147);stroke-width:0.01" />
<line x1="-0.298442" y1="0.438081" x2="-0.0254416" y2="0.578081" style="stroke:rgb(246,147,147);stroke-width:0.01" />
<line x1="0.0406698" y1="-0.700836" x2="-0.341006" y2="-0.426567" style="stroke:rgb(246,147,147);stroke-width:0.01" />
<line x1="-0.341006" y1="-0.426567" x2="-0.298442" y2="0.438081" style="stroke:rgb(246,147,147);stroke-width:0.01" />
<line x1="-0.301395" y1="0.378081" x2="-0.0254416" y2="0.378081" style="stroke:rgb(246,147,147);stroke-width:0.01" />
<line x1="-0.0254416" y1="0.378081" x2="-0.0254416" y2="0.578081" style="stroke:rgb(246,147,147);stroke-width:0.01" />
<line x1="-0.1879" y1="0.36688" x2="-0.301395" y2="0.378081" style="stroke:rgb(246,147,147);stroke-width:0.01" />
<line x1="0.11769" y1="-0.161054" x2="-0.1879" y2="0.36688" style="stroke:rgb(246,147,147);stroke-width:0.01" />
<line x1="-0.1879" y1="0.36688" x2="-0.298442" y2="0.438081" style="stroke:rgb(246,147,147);stroke-width:0.01" />
<line x1="0.62422" y1="0.111241" x2="-0.0254416" y2="0.578081" style="stroke:rgb(246,147,147);stroke-width:0.01" />
</g>
</svg>
