<svg xmlns="http://www.w3.org/2000/svg" viewBox="-1.5 -1.5 3 3">
<g transform="scale(1, -1)">
<path d="M-0.669988 -0.506075 L0.330012 -0.506075 L0.330012 0.313016 L0.382576 0.363720 L0.330012 0.418213 L-0.032636 0.271810 L-0.669988 -0.354610 z " fill="rgb(245,195,195)" />
<path d="M-0.669988 -0.506075 L0.330012 -0.506075 L0.330012 0.493925 L-0.669988 0.493925  z" fill="none" stroke="rgb(128,128,128)" stroke-width="0.01" />
<line x1="-0.300924" y1="-0.360995" x2="-0.0326359" y2="0.27181" style="stroke:rgb(246,147,147);stroke-width:0.01" />
<line x1="-0.337149" y1="-0.330539" x2="0.382576" y2="0.36372" style="stroke:rgb(246,147,147);stroke-width:0.01" />
<line x1="-0.669988" y1="-0.506075" x2="0.330012" y2="-0.506075" style="stroke:rgb(246,147,147);stroke-width:0.01" />
<line x1="-0.669988" y1="-0.506075" x2="-0.669988" y2="-0.35461" style="stroke:rgb(246,147,147);stroke-width:0.01" />
<line x1="0.330012" y1="-0.506075" x2="0.330012" y2="0.418213" style="stroke:rgb(246,147,147);stroke-width:0.01" />
<line x1="-0.669988" y1="-0.35461" x2="-0.0326359" y2="0.27181" style="stroke:rgb(246,147,147);stroke-width:0.01" />
<line x1="-0.300924" y1="-0.360995" x2="-0.669988" y2="-0.35461" style="stroke:rgb(246,147,147);stroke-width:0.01" />
<line x1="-0.337149" y1="-0.330539" x2="-0.487213" y2="-0.17497" style="stroke:rgb(246,147,147);stroke-width:0.01" />
<line x1="-0.300924" y1="-0.360995" x2="-0.487213" y2="-0.17497" style="stroke:rgb(246,147,147);stroke-width:0.01" />
<line x1="-0.0326359" y1="0.27181" x2="0.330012" y2="0.418213" style="stroke:rgb(246,147,147);stroke-width:0.01" />
<line x1="0.382576" y1="0.36372" x2="0.330012" y2="0.418213" style="stroke:rgb(246,147,147);stroke-width:0.01" />
</g>
</svg>
