<svg xmlns="http://www.w3.org/2000/svg" viewBox="-1.5 -1.5 3 3">
<g transform="scale(1, -1)">
<path d="M0.000000 0.000000 L0.258455 0.000000 L0.730392 0.825503 L0.558899 0.929322 L0.552970 0.921127 L0.471672 0.964944 L0.162421 1.000000 L0.000000 1.000000 z " fill="rgb(245,195,195)" />
<path d="M0.000000 0.000000 L1.000000 0.000000 L1.000000 1.000000 L0.000000 1.000000  z" fill="none" stroke="rgb(128,128,128)" stroke-width="0.01" />
<line x1="0.258455" y1="0" x2="0.730392" y2="0.825503" style="stroke:rgb(246,147,147);stroke-width:0.01" />
<line x1="0.571015" y1="0.546723" x2="0.643125" y2="0.878333" style="stroke:rgb(246,147,147);stroke-width:0.01" />
<line x1="0.47299" y1="0.756932" x2="0.558899" y2="0.929322" style="stroke:rgb(246,147,147);stroke-width:0.01" />
<line x1="0" y1="0" x2="0.258455" y2="0" style="stroke:rgb(246,147,147);stroke-width:0.01" />
<line x1="0" y1="0" x2="0" y2="1" style="stroke:rgb(246,147,147);stroke-width:0.01" />
<line x1="0.307338" y1="0.302937" x2="0.571015" y2="0.546723" style="stroke:rgb(246,147,147);stroke-width:0.01" />
<line x1="0.484611" y1="0.745848" x2="0.541985" y2="0.821499" style="stroke:rgb(246,147,147);stroke-width:0.01" />
<line x1="0.091554" y1="0.283487" x2="0.558899" y2="0.929322" style="stroke:rgb(246,147,147);stroke-width:0.01" />
<line x1="0.258455" y1="0" x2="0.091554" y2="0.283487" style="stroke:rgb(246,147,147);stroke-width:0.01" />
<line x1="0.484611" y1="0.745848" x2="0.643125" y2="0.878333" style="stroke:rgb(246,147,147);stroke-width:0.01" />
<line x1="0.384148" y1="0.219861" x2="0.091554" y2="0.283487" style="stroke:rgb(246,147,147);stroke-width:0.01" />
<line x1="0.384148" y1="0.219861" x2="0.307338" y2="0.302937" style="stroke:rgb(246,147,147);stroke-width:0.01" />
<line x1="0.672447" y1="0.724148" x2="0.471672" y2="0.964944" style="stroke:rgb(246,147,147);stroke-width:0.01" />
<line x1="0.484611" y1="0.745848" x2="0.47299" y2="0.756932" style="stroke:rgb(246,147,147);stroke-width:0.01" />
<line x1="0.708435" y1="0.787096" x2="0.587964" y2="0.902267" style="stroke:rgb(246,147,147);stroke-width:0.01" />
<line x1="0.541985" y1="0.821499" x2="0.515265" y2="0.841763" style="stroke:rgb(246,147,147);stroke-width:0.01" />
<line x1="0.672447" y1="0.724148" x2="0.47299" y2="0.756932" style="stroke:rgb(246,147,147);stroke-width:0.01" />
<line x1="0.708435" y1="0.787096" x2="0.515265" y2="0.841763" style="stroke:rgb(246,147,147);stroke-width:0.01" />
<line x1="0.730392" y1="0.825503" x2="0.558899" y2="0.929322" style="stroke:rgb(246,147,147);stroke-width:0.01" />
<line x1="0.730392" y1="0.825503" x2="0.471672" y2="0.964944" style="stroke:rgb(246,147,147);stroke-width:0.01" />
<line x1="0.587964" y1="0.902267" x2="0.162421" y2="1" style="stroke:rgb(246,147,147);stroke-width:0.01" />
<line x1="0" y1="1" x2="0.162421" y2="1" style="stroke:rgb(246,147,147);stroke-width:0.01" />
<line x1="0.471672" y1="0.964944" x2="0.162421" y2="1" style="stroke:rgb(246,147,147);stroke-width:0.01" />
</g>
</svg>
