<svg xmlns="http://www.w3.org/2000/svg" viewBox="-1.5 -1.5 3 3">
<g transform="scale(1, -1)">
<path d="M-0.341851 -0.705112 L-0.083396 -0.705112 L0.388541 0.120391 L0.217048 0.224210 L0.211119 0.216015 L0.129821 0.259832 L-0.179430 0.294888 L-0.341851 0.294888 z " fill="rgb(245,195,195)" />
<path d="M-0.341851 -0.705112 L0.658149 -0.705112 L0.658149 0.294888 L-0.341851 0.294888  z" fill="none" stroke="rgb(128,128,128)" stroke-width="0.01" />
<line x1="-0.0833965" y1="-0.705112" x2="0.388541" y2="0.120391" style="stroke:rgb(246,147,147);stroke-width:0.01" />
<line x1="0.229163" y1="-0.158389" x2="0.301274" y2="0.173221" style="stroke:rgb(246,147,147);stroke-width:0.01" />
<line x1="0.131139" y1="0.05182" x2="0.217048" y2="0.22421" style="stroke:rgb(246,147,147);stroke-width:0.01" />
<line x1="-0.341851" y1="-0.705112" x2="-0.0833965" y2="-0.705112" style="stroke:rgb(246,147,147);stroke-width:0.01" />
<line x1="-0.341851" y1="-0.705112" x2="-0.341851" y2="0.294888" style="stroke:rgb(246,147,147);stroke-width:0.01" />
<line x1="-0.0345127" y1="-0.402175" x2="0.229163" y2="-0.158389" style="stroke:rgb(246,147,147);stroke-width:0.01" />
<line x1="0.14276" y1="0.040736" x2="0.200134" y2="0.116387" style="stroke:rgb(246,147,147);stroke-width:0.01" />
<line x1="-0.250297" y1="-0.421625" x2="0.217048" y2="0.22421" style="stroke:rgb(246,147,147);stroke-width:0.01" />
<line x1="-0.0833965" y1="-0.705112" x2="-0.250297" y2="-0.421625" style="stroke:rgb(246,147,147);stroke-width:0.01" />
<line x1="0.14276" y1="0.040736" x2="0.301274" y2="0.173221" style="stroke:rgb(246,147,147);stroke-width:0.01" />
<line x1="0.0422971" y1="-0.485251" x2="-0.250297" y2="-0.421625" style="stroke:rgb(246,147,147);stroke-width:0.01" />
<line x1="0.0422971" y1="-0.485251" x2="-0.0345127" y2="-0.402175" style="stroke:rgb(246,147,147);stroke-width:0.01" />
<line x1="0.330596" y1="0.0190355" x2="0.129821" y2="0.259832" style="stroke:rgb(246,147,147);stroke-width:0.01" />
<line x1="0.14276" y1="0.040736" x2="0.131139" y2="0.05182" style="stroke:rgb(246,147,147);stroke-width:0.01" />
<line x1="0.366584" y1="0.0819843" x2="0.246113" y2="0.197155" style="stroke:rgb(246,147,147);stroke-width:0.01" />
<line x1="0.200134" y1="0.116387" x2="0.173414" y2="0.136651" style="stroke:rgb(246,147,147);stroke-width:0.01" />
<line x1="0.330596" y1="0.0190355" x2="0.131139" y2="0.05182" style="stroke:rgb(246,147,147);stroke-width:0.01" />
<line x1="0.366584" y1="0.0819843" x2="0.173414" y2="0.136651" style="stroke:rgb(246,147,147);stroke-width:0.01" />
<line x1="0.388541" y1="0.120391" x2="0.217048" y2="0.22421" style="stroke:rgb(246,147,147);stroke-width:0.01" />
<line x1="0.388541" y1="0.120391" x2="0.129821" y2="0.259832" style="stroke:rgb(246,147,147);stroke-width:0.01" />
<line x1="0.246113" y1="0.197155" x2="-0.17943" y2="0.294888" style="stroke:rgb(246,147,147);stroke-width:0.01" />
<line x1="-0.341851" y1="0.294888" x2="-0.17943" y2="0.294888" style="stroke:rgb(246,147,147);stroke-width:0.01" />
<line x1="0.129821" y1="0.259832" x2="-0.17943" y2="0.294888" style="stroke:rgb(246,147,147);stroke-width:0.01" />
</g>
</svg>
