<svg xmlns="http://www.w3.org/2000/svg" viewBox="-1.5 -1.5 3 3">
<g transform="scale(1, -1)">
<path d="M0.185635 -0.072928 L0.454934 0.216917 L0.630472 0.060473 L0.664858 0.063056 L0.650810 0.250029 L0.622107 0.269977 L0.617250 0.391618 L0.258105 0.524501 L-0.119565 0.159420 L0.000000 0.000000 L0.007184 0.057468 L0.044982 0.027065 L0.060583 0.043260 z " fill="rgb(245,195,195)" />
<path d="M0.000000 0.000000 L1.000000 0.000000 L1.000000 1.000000 L0.000000 1.000000  z" fill="none" stroke="rgb(128,128,128)" stroke-width="0.01" />
<line x1="0.185635" y1="-0.0729282" x2="0.61725" y2="0.391618" style="stroke:rgb(246,147,147);stroke-width:0.01" />
<line x1="0.392119" y1="0.2729" x2="0.439197" y2="0.397088" style="stroke:rgb(246,147,147);stroke-width:0.01" />
<line x1="0.474813" y1="0.199201" x2="0.496213" y2="0.326728" style="stroke:rgb(246,147,147);stroke-width:0.01" />
<line x1="0.345097" y1="0.314807" x2="0.416048" y2="0.41772" style="stroke:rgb(246,147,147);stroke-width:0.01" />
<line x1="0.347145" y1="0.340738" x2="0.355005" y2="0.488648" style="stroke:rgb(246,147,147);stroke-width:0.01" />
<line x1="0.0449819" y1="0.0270646" x2="0.347145" y2="0.340738" style="stroke:rgb(246,147,147);stroke-width:0.01" />
<line x1="0" y1="0" x2="0.0390995" y2="0.312796" style="stroke:rgb(246,147,147);stroke-width:0.01" />
<line x1="0" y1="0" x2="0.00742574" y2="0.282178" style="stroke:rgb(246,147,147);stroke-width:0.01" />
<line x1="0" y1="0" x2="0.00102983" y2="0.275996" style="stroke:rgb(246,147,147);stroke-width:0.01" />
<line x1="0" y1="0" x2="0" y2="0.275" style="stroke:rgb(246,147,147);stroke-width:0.01" />
<line x1="0" y1="0" x2="-0.119565" y2="0.15942" style="stroke:rgb(246,147,147);stroke-width:0.01" />
<line x1="0.345097" y1="0.314807" x2="0.439197" y2="0.397088" style="stroke:rgb(246,147,147);stroke-width:0.01" />
<line x1="0.271642" y1="0.380273" x2="0.355005" y2="0.488648" style="stroke:rgb(246,147,147);stroke-width:0.01" />
<line x1="0.630472" y1="0.0604728" x2="0.664858" y2="0.0630563" style="stroke:rgb(246,147,147);stroke-width:0.01" />
<line x1="0.288679" y1="0.280045" x2="0.278012" y2="0.517136" style="stroke:rgb(246,147,147);stroke-width:0.01" />
<line x1="0.276764" y1="0.267676" x2="0.259425" y2="0.524013" style="stroke:rgb(246,147,147);stroke-width:0.01" />
<line x1="0.274842" y1="0.265681" x2="0.256477" y2="0.522927" style="stroke:rgb(246,147,147);stroke-width:0.01" />
<line x1="0.630472" y1="0.0604728" x2="0.61725" y2="0.391618" style="stroke:rgb(246,147,147);stroke-width:0.01" />
<line x1="0.271642" y1="0.380273" x2="0.258105" y2="0.524501" style="stroke:rgb(246,147,147);stroke-width:0.01" />
<line x1="0.0449819" y1="0.0270646" x2="-0.0925491" y2="0.185536" style="stroke:rgb(246,147,147);stroke-width:0.01" />
<line x1="0.0449819" y1="0.0270646" x2="-0.119565" y2="0.15942" style="stroke:rgb(246,147,147);stroke-width:0.01" />
<line x1="0.664858" y1="0.0630563" x2="0.65081" y2="0.250029" style="stroke:rgb(246,147,147);stroke-width:0.01" />
<line x1="0.185635" y1="-0.0729282" x2="-0.0925491" y2="0.185536" style="stroke:rgb(246,147,147);stroke-width:0.01" />
<line x1="0.392119" y1="0.2729" x2="0.496213" y2="0.326728" style="stroke:rgb(246,147,147);stroke-width:0.01" />
<line x1="0.474813" y1="0.199201" x2="0.65081" y2="0.250029" style="stroke:rgb(246,147,147);stroke-width:0.01" />
<line x1="0.260543" y1="0.498523" x2="0.278012" y2="0.517136" style="stroke:rgb(246,147,147);stroke-width:0.01" />
<line x1="0.258262" y1="0.522829" x2="0.259425" y2="0.524013" style="stroke:rgb(246,147,147);stroke-width:0.01" />
<line x1="-0.119565" y1="0.15942" x2="0.258105" y2="0.524501" style="stroke:rgb(246,147,147);stroke-width:0.01" />
<line x1="0.274842" y1="0.265681" x2="0" y2="0.275" style="stroke:rgb(246,147,147);stroke-width:0.01" />
<line x1="0.276764" y1="0.267676" x2="0.00102983" y2="0.275996" style="stroke:rgb(246,147,147);stroke-width:0.01" />
<line x1="0.288679" y1="0.280045" x2="0.00742574" y2="0.282178" style="stroke:rgb(246,147,147);stroke-width:0.01" />
<line x1="0.0390995" y1="0.312796" x2="0.347145" y2="0.340738" style="stroke:rgb(246,147,147);stroke-width:0.01" />
<line x1="0.630472" y1="0.0604728" x2="0.271642" y2="0.380273" style="stroke:rgb(246,147,147);stroke-width:0.01" />
<line x1="0.496213" y1="0.326728" x2="0.260543" y2="0.498523" style="stroke:rgb(246,147,147);stroke-width:0.01" />
<line x1="0.65081" y1="0.250029" x2="0.258262" y2="0.522829" style="stroke:rgb(246,147,147);stroke-width:0.01" />
<line x1="0.416048" y1="0.41772" x2="0.264706" y2="0.522059" style="stroke:rgb(246,147,147);stroke-width:0.01" />
<line x1="0.264706" y1="0.522059" x2="0.256477" y2="0.522927" style="stroke:rgb(246,147,147);stroke-width:0.01" />
<line x1="0.61725" y1="0.391618" x2="0.258105" y2="0.524501" style="stroke:rgb(246,147,147);stroke-width:0.01" />
</g>
</svg>
