<svg xmlns="http://www.w3.org/2000/svg" viewBox="-1.5 -1.5 3 3">
<g transform="scale(1, -1)">
<path d="M-0.015722 -0.266296 L0.109362 -0.238661 L0.273250 0.119845 L0.205043 0.206224 L0.212209 0.211398 L0.161851 0.281144 L-0.126982 0.198312 L-0.120937 0.102148 L-0.185529 0.099248 L-0.265340 -0.122735 L-0.103137 -0.181053 L-0.101938 -0.200124 L-0.042129 -0.209449 z " fill="rgb(245,195,195)" />
<path d="M-0.015722 -0.905249 L0.984278 -0.905249 L0.984278 0.094751 L-0.015722 0.094751  z" fill="none" stroke="rgb(128,128,128)" stroke-width="0.01" />
<line x1="0.130123" y1="-0.193245" x2="0.161851" y2="0.281144" style="stroke:rgb(246,147,147);stroke-width:0.01" />
<line x1="0.102679" y1="-0.141239" x2="0.148834" y2="0.27741" style="stroke:rgb(246,147,147);stroke-width:0.01" />
<line x1="-0.101938" y1="-0.200124" x2="-0.126982" y2="0.198312" style="stroke:rgb(246,147,147);stroke-width:0.01" />
<line x1="-0.0157215" y1="-0.266296" x2="-0.0157215" y2="0.0947509" style="stroke:rgb(246,147,147);stroke-width:0.01" />
<line x1="0.0365052" y1="-0.221709" x2="0.112709" y2="0.26705" style="stroke:rgb(246,147,147);stroke-width:0.01" />
<line x1="0.109362" y1="-0.238661" x2="0.27325" y2="0.119845" style="stroke:rgb(246,147,147);stroke-width:0.01" />
<line x1="-0.0157215" y1="-0.266296" x2="-0.185529" y2="0.099248" style="stroke:rgb(246,147,147);stroke-width:0.01" />
<line x1="-0.26534" y1="-0.122735" x2="-0.185529" y2="0.099248" style="stroke:rgb(246,147,147);stroke-width:0.01" />
<line x1="0.109362" y1="-0.238661" x2="-0.126982" y2="0.198312" style="stroke:rgb(246,147,147);stroke-width:0.01" />
<line x1="0.0769858" y1="-0.245814" x2="0.130123" y2="-0.193245" style="stroke:rgb(246,147,147);stroke-width:0.01" />
<line x1="0.212209" y1="0.211398" x2="0.161851" y2="0.281144" style="stroke:rgb(246,147,147);stroke-width:0.01" />
<line x1="0.27325" y1="0.119845" x2="0.148834" y2="0.27741" style="stroke:rgb(246,147,147);stroke-width:0.01" />
<line x1="0.261778" y1="0.0947509" x2="0.112709" y2="0.26705" style="stroke:rgb(246,147,147);stroke-width:0.01" />
<line x1="-0.0157215" y1="-0.266296" x2="0.109362" y2="-0.238661" style="stroke:rgb(246,147,147);stroke-width:0.01" />
<line x1="0.0769858" y1="-0.245814" x2="-0.26534" y2="-0.122735" style="stroke:rgb(246,147,147);stroke-width:0.01" />
<line x1="-0.113044" y1="-0.0234419" x2="0.212209" y2="0.211398" style="stroke:rgb(246,147,147);stroke-width:0.01" />
<line x1="0.102679" y1="-0.141239" x2="-0.113044" y2="-0.0234419" style="stroke:rgb(246,147,147);stroke-width:0.01" />
<line x1="-0.101938" y1="-0.200124" x2="0.102679" y2="-0.141239" style="stroke:rgb(246,147,147);stroke-width:0.01" />
<line x1="0.0365052" y1="-0.221709" x2="-0.101938" y2="-0.200124" style="stroke:rgb(246,147,147);stroke-width:0.01" />
<line x1="-0.0157215" y1="0.0947509" x2="0.261778" y2="0.0947509" style="stroke:rgb(246,147,147);stroke-width:0.01" />
<line x1="-0.185529" y1="0.099248" x2="0.27325" y2="0.119845" style="stroke:rgb(246,147,147);stroke-width:0.01" />
<line x1="-0.126982" y1="0.198312" x2="0.161851" y2="0.281144" style="stroke:rgb(246,147,147);stroke-width:0.01" />
</g>
</svg>
