<svg xmlns="http://www.w3.org/2000/svg" viewBox="-1.5 -1.5 3 3">
<g transform="scale(1, -1)">
<path d="M0.118519 0.048839 L0.707967 0.270533 L0.718583 0.288748 L0.810130 0.305023 L0.825236 0.295458 L0.828170 0.262092 L0.869775 0.228692 L0.907210 0.261419 L0.813653 0.427147 L0.711447 0.501774 L0.000000 0.377368 L0.000000 0.332509 L-0.055491 0.312135 L0.000000 0.161000 L0.069741 0.173398 z " fill="rgb(245,195,195)" />
<path d="M0.000000 0.000000 L1.000000 0.000000 L1.000000 1.000000 L0.000000 1.000000  z" fill="none" stroke="rgb(128,128,128)" stroke-width="0.01" />
<line x1="0.869775" y1="0.228692" x2="0.897288" y2="0.278994" style="stroke:rgb(246,147,147);stroke-width:0.01" />
<line x1="0.869775" y1="0.228692" x2="0.90721" y2="0.261419" style="stroke:rgb(246,147,147);stroke-width:0.01" />
<line x1="0.82817" y1="0.262092" x2="0.875985" y2="0.316731" style="stroke:rgb(246,147,147);stroke-width:0.01" />
<line x1="0.819894" y1="0.356186" x2="0.840469" y2="0.379645" style="stroke:rgb(246,147,147);stroke-width:0.01" />
<line x1="0.819338" y1="0.362508" x2="0.838477" y2="0.383174" style="stroke:rgb(246,147,147);stroke-width:0.01" />
<line x1="0.707967" y1="0.270533" x2="0.803547" y2="0.434527" style="stroke:rgb(246,147,147);stroke-width:0.01" />
<line x1="0.731616" y1="0.35474" x2="0.803547" y2="0.434527" style="stroke:rgb(246,147,147);stroke-width:0.01" />
<line x1="0.734712" y1="0.47934" x2="0.735564" y2="0.484165" style="stroke:rgb(246,147,147);stroke-width:0.01" />
<line x1="0.888458" y1="0.255424" x2="0.90721" y2="0.261419" style="stroke:rgb(246,147,147);stroke-width:0.01" />
<line x1="0" y1="0.161" x2="0" y2="0.377368" style="stroke:rgb(246,147,147);stroke-width:0.01" />
<line x1="0.118519" y1="0.048839" x2="0.707967" y2="0.270533" style="stroke:rgb(246,147,147);stroke-width:0.01" />
<line x1="0" y1="0.161" x2="-0.0554907" y2="0.312135" style="stroke:rgb(246,147,147);stroke-width:0.01" />
<line x1="0.118519" y1="0.048839" x2="0" y2="0.377368" style="stroke:rgb(246,147,147);stroke-width:0.01" />
<line x1="0.118519" y1="0.048839" x2="0.0188333" y2="0.303394" style="stroke:rgb(246,147,147);stroke-width:0.01" />
<line x1="0.82817" y1="0.262092" x2="0.813653" y2="0.427147" style="stroke:rgb(246,147,147);stroke-width:0.01" />
<line x1="0.715323" y1="0.473517" x2="0.735564" y2="0.484165" style="stroke:rgb(246,147,147);stroke-width:0.01" />
<line x1="0.87838" y1="0.272375" x2="0.87316" y2="0.321735" style="stroke:rgb(246,147,147);stroke-width:0.01" />
<line x1="0.731616" y1="0.35474" x2="0.711447" y2="0.501774" style="stroke:rgb(246,147,147);stroke-width:0.01" />
<line x1="0.707967" y1="0.270533" x2="0.67274" y2="0.495005" style="stroke:rgb(246,147,147);stroke-width:0.01" />
<line x1="0.888458" y1="0.255424" x2="0.881624" y2="0.306741" style="stroke:rgb(246,147,147);stroke-width:0.01" />
<line x1="0.699847" y1="0.354484" x2="0.67274" y2="0.495005" style="stroke:rgb(246,147,147);stroke-width:0.01" />
<line x1="0" y1="0.161" x2="0.875985" y2="0.316731" style="stroke:rgb(246,147,147);stroke-width:0.01" />
<line x1="0.864078" y1="0.270862" x2="0.87838" y2="0.272375" style="stroke:rgb(246,147,147);stroke-width:0.01" />
<line x1="0.699847" y1="0.354484" x2="0.838477" y2="0.383174" style="stroke:rgb(246,147,147);stroke-width:0.01" />
<line x1="0.699847" y1="0.354484" x2="0.840469" y2="0.379645" style="stroke:rgb(246,147,147);stroke-width:0.01" />
<line x1="0.0188333" y1="0.303394" x2="0.37532" y2="0.442998" style="stroke:rgb(246,147,147);stroke-width:0.01" />
<line x1="-0.0554907" y1="0.312135" x2="0.233281" y2="0.41816" style="stroke:rgb(246,147,147);stroke-width:0.01" />
<line x1="0.864078" y1="0.270862" x2="0.807962" y2="0.431303" style="stroke:rgb(246,147,147);stroke-width:0.01" />
<line x1="0.897288" y1="0.278994" x2="0.847925" y2="0.281091" style="stroke:rgb(246,147,147);stroke-width:0.01" />
<line x1="0" y1="0.377368" x2="0.711447" y2="0.501774" style="stroke:rgb(246,147,147);stroke-width:0.01" />
<line x1="0.847925" y1="0.281091" x2="0.744552" y2="0.477602" style="stroke:rgb(246,147,147);stroke-width:0.01" />
<line x1="0.792167" y1="0.415001" x2="0.233281" y2="0.41816" style="stroke:rgb(246,147,147);stroke-width:0.01" />
<line x1="0.792167" y1="0.415001" x2="0.764665" y2="0.462917" style="stroke:rgb(246,147,147);stroke-width:0.01" />
<line x1="0.90721" y1="0.261419" x2="0.813653" y2="0.427147" style="stroke:rgb(246,147,147);stroke-width:0.01" />
<line x1="0.807962" y1="0.431303" x2="0.37532" y2="0.442998" style="stroke:rgb(246,147,147);stroke-width:0.01" />
<line x1="0.869775" y1="0.228692" x2="0.82817" y2="0.262092" style="stroke:rgb(246,147,147);stroke-width:0.01" />
<line x1="0.888458" y1="0.255424" x2="0.731616" y2="0.35474" style="stroke:rgb(246,147,147);stroke-width:0.01" />
<line x1="0.744552" y1="0.477602" x2="0.734712" y2="0.47934" style="stroke:rgb(246,147,147);stroke-width:0.01" />
<line x1="0.764665" y1="0.462917" x2="0.715323" y2="0.473517" style="stroke:rgb(246,147,147);stroke-width:0.01" />
<line x1="0.881624" y1="0.306741" x2="0.819894" y2="0.356186" style="stroke:rgb(246,147,147);stroke-width:0.01" />
<line x1="0.87316" y1="0.321735" x2="0.819338" y2="0.362508" style="stroke:rgb(246,147,147);stroke-width:0.01" />
<line x1="0.813653" y1="0.427147" x2="0.711447" y2="0.501774" style="stroke:rgb(246,147,147);stroke-width:0.01" />
</g>
</svg>
