<svg xmlns="http://www.w3.org/2000/svg" viewBox="-1.5 -1.5 3 3">
<g transform="scale(1, -1)">
<path d="M-0.369810 -0.234237 L0.219637 -0.012543 L0.230254 0.005672 L0.321801 0.021947 L0.336906 0.012382 L0.339841 -0.020984 L0.381445 -0.054384 L0.418880 -0.021656 L0.325324 0.144072 L0.223118 0.218698 L-0.488329 0.094292 L-0.488329 0.049433 L-0.543820 0.029059 L-0.488329 -0.122076 L-0.418588 -0.109677 z " fill="rgb(245,195,195)" />
<path d="M-0.488329 -0.283076 L0.511671 -0.283076 L0.511671 0.716924 L-0.488329 0.716924  z" fill="none" stroke="rgb(128,128,128)" stroke-width="0.01" />
<line x1="0.381445" y1="-0.0543841" x2="0.408959" y2="-0.00408163" style="stroke:rgb(246,147,147);stroke-width:0.01" />
<line x1="0.381445" y1="-0.0543841" x2="0.41888" y2="-0.0216565" style="stroke:rgb(246,147,147);stroke-width:0.01" />
<line x1="0.339841" y1="-0.0209837" x2="0.387656" y2="0.033655" style="stroke:rgb(246,147,147);stroke-width:0.01" />
<line x1="0.331565" y1="0.0731103" x2="0.35214" y2="0.0965688" style="stroke:rgb(246,147,147);stroke-width:0.01" />
<line x1="0.331009" y1="0.0794322" x2="0.350148" y2="0.100098" style="stroke:rgb(246,147,147);stroke-width:0.01" />
<line x1="0.219637" y1="-0.0125428" x2="0.315218" y2="0.151451" style="stroke:rgb(246,147,147);stroke-width:0.01" />
<line x1="0.243287" y1="0.0716643" x2="0.315218" y2="0.151451" style="stroke:rgb(246,147,147);stroke-width:0.01" />
<line x1="0.246383" y1="0.196265" x2="0.247235" y2="0.201089" style="stroke:rgb(246,147,147);stroke-width:0.01" />
<line x1="0.400129" y1="-0.0276514" x2="0.41888" y2="-0.0216565" style="stroke:rgb(246,147,147);stroke-width:0.01" />
<line x1="-0.488329" y1="-0.122076" x2="-0.488329" y2="0.0942922" style="stroke:rgb(246,147,147);stroke-width:0.01" />
<line x1="-0.36981" y1="-0.234237" x2="0.219637" y2="-0.0125428" style="stroke:rgb(246,147,147);stroke-width:0.01" />
<line x1="-0.488329" y1="-0.122076" x2="-0.54382" y2="0.0290593" style="stroke:rgb(246,147,147);stroke-width:0.01" />
<line x1="-0.36981" y1="-0.234237" x2="-0.488329" y2="0.0942922" style="stroke:rgb(246,147,147);stroke-width:0.01" />
<line x1="-0.36981" y1="-0.234237" x2="-0.469496" y2="0.0203186" style="stroke:rgb(246,147,147);stroke-width:0.01" />
<line x1="0.339841" y1="-0.0209837" x2="0.325324" y2="0.144072" style="stroke:rgb(246,147,147);stroke-width:0.01" />
<line x1="0.226994" y1="0.190442" x2="0.247235" y2="0.201089" style="stroke:rgb(246,147,147);stroke-width:0.01" />
<line x1="0.390051" y1="-0.0107008" x2="0.384831" y2="0.0386597" style="stroke:rgb(246,147,147);stroke-width:0.01" />
<line x1="0.243287" y1="0.0716643" x2="0.223118" y2="0.218698" style="stroke:rgb(246,147,147);stroke-width:0.01" />
<line x1="0.219637" y1="-0.0125428" x2="0.18441" y2="0.21193" style="stroke:rgb(246,147,147);stroke-width:0.01" />
<line x1="0.400129" y1="-0.0276514" x2="0.393295" y2="0.0236657" style="stroke:rgb(246,147,147);stroke-width:0.01" />
<line x1="0.211518" y1="0.071408" x2="0.18441" y2="0.21193" style="stroke:rgb(246,147,147);stroke-width:0.01" />
<line x1="-0.488329" y1="-0.122076" x2="0.387656" y2="0.033655" style="stroke:rgb(246,147,147);stroke-width:0.01" />
<line x1="0.375748" y1="-0.0122132" x2="0.390051" y2="-0.0107008" style="stroke:rgb(246,147,147);stroke-width:0.01" />
<line x1="0.211518" y1="0.071408" x2="0.350148" y2="0.100098" style="stroke:rgb(246,147,147);stroke-width:0.01" />
<line x1="0.211518" y1="0.071408" x2="0.35214" y2="0.0965688" style="stroke:rgb(246,147,147);stroke-width:0.01" />
<line x1="-0.469496" y1="0.0203186" x2="-0.113009" y2="0.159922" style="stroke:rgb(246,147,147);stroke-width:0.01" />
<line x1="-0.54382" y1="0.0290593" x2="-0.255049" y2="0.135085" style="stroke:rgb(246,147,147);stroke-width:0.01" />
<line x1="0.375748" y1="-0.0122132" x2="0.319633" y2="0.148227" style="stroke:rgb(246,147,147);stroke-width:0.01" />
<line x1="0.408959" y1="-0.00408163" x2="0.359596" y2="-0.00198513" style="stroke:rgb(246,147,147);stroke-width:0.01" />
<line x1="-0.488329" y1="0.0942922" x2="0.223118" y2="0.218698" style="stroke:rgb(246,147,147);stroke-width:0.01" />
<line x1="0.359596" y1="-0.00198513" x2="0.256223" y2="0.194526" style="stroke:rgb(246,147,147);stroke-width:0.01" />
<line x1="0.303837" y1="0.131925" x2="-0.255049" y2="0.135085" style="stroke:rgb(246,147,147);stroke-width:0.01" />
<line x1="0.303837" y1="0.131925" x2="0.276335" y2="0.179841" style="stroke:rgb(246,147,147);stroke-width:0.01" />
<line x1="0.41888" y1="-0.0216565" x2="0.325324" y2="0.144072" style="stroke:rgb(246,147,147);stroke-width:0.01" />
<line x1="0.319633" y1="0.148227" x2="-0.113009" y2="0.159922" style="stroke:rgb(246,147,147);stroke-width:0.01" />
<line x1="0.381445" y1="-0.0543841" x2="0.339841" y2="-0.0209837" style="stroke:rgb(246,147,147);stroke-width:0.01" />
<line x1="0.400129" y1="-0.0276514" x2="0.243287" y2="0.0716643" style="stroke:rgb(246,147,147);stroke-width:0.01" />
<line x1="0.256223" y1="0.194526" x2="0.246383" y2="0.196265" style="stroke:rgb(246,147,147);stroke-width:0.01" />
<line x1="0.276335" y1="0.179841" x2="0.226994" y2="0.190442" style="stroke:rgb(246,147,147);stroke-width:0.01" />
<line x1="0.393295" y1="0.0236657" x2="0.331565" y2="0.0731103" style="stroke:rgb(246,147,147);stroke-width:0.01" />
<line x1="0.384831" y1="0.0386597" x2="0.331009" y2="0.0794322" style="stroke:rgb(246,147,147);stroke-width:0.01" />
<line x1="0.325324" y1="0.144072" x2="0.223118" y2="0.218698" style="stroke:rgb(246,147,147);stroke-width:0.01" />
</g>
</svg>
