<svg xmlns="http://www.w3.org/2000/svg" viewBox="-1.5 -1.5 3 3">
<g transform="scale(1, -1)">
<path d="M0.630770 0.407631 L0.812845 0.711994 L0.806610 0.785250 L0.778098 0.799295 L0.772466 0.787863 L0.705131 0.797005 L0.583333 1.000000 L0.000000 1.000000 L0.000000 0.892729 L0.334296 0.509985 z " fill="rgb(245,195,195)" />
<path d="M0.000000 0.000000 L1.000000 0.000000 L1.000000 1.000000 L0.000000 1.000000  z" fill="none" stroke="rgb(128,128,128)" stroke-width="0.01" />
<line x1="0.63077" y1="0.407631" x2="0.812845" y2="0.711994" style="stroke:rgb(246,147,147);stroke-width:0.01" />
<line x1="0.763459" y1="0.769577" x2="0.778098" y2="0.799295" style="stroke:rgb(246,147,147);stroke-width:0.01" />
<line x1="0.479121" y1="0.547717" x2="0.6581" y2="0.840763" style="stroke:rgb(246,147,147);stroke-width:0.01" />
<line x1="0.387255" y1="0.632353" x2="0.583333" y2="1" style="stroke:rgb(246,147,147);stroke-width:0.01" />
<line x1="0.343842" y1="0.672682" x2="0.456378" y2="0.929245" style="stroke:rgb(246,147,147);stroke-width:0.01" />
<line x1="0" y1="0.892729" x2="0" y2="1" style="stroke:rgb(246,147,147);stroke-width:0.01" />
<line x1="0.812845" y1="0.711994" x2="0.80661" y2="0.78525" style="stroke:rgb(246,147,147);stroke-width:0.01" />
<line x1="0.479121" y1="0.547717" x2="0.80661" y2="0.78525" style="stroke:rgb(246,147,147);stroke-width:0.01" />
<line x1="0.737941" y1="0.586782" x2="0.6581" y2="0.840763" style="stroke:rgb(246,147,147);stroke-width:0.01" />
<line x1="0.343842" y1="0.672682" x2="0.36622" y2="0.684692" style="stroke:rgb(246,147,147);stroke-width:0.01" />
<line x1="0.334296" y1="0.509985" x2="0" y2="0.892729" style="stroke:rgb(246,147,147);stroke-width:0.01" />
<line x1="0.334296" y1="0.509985" x2="0.737941" y2="0.586782" style="stroke:rgb(246,147,147);stroke-width:0.01" />
<line x1="0.763459" y1="0.769577" x2="0.806784" y2="0.783205" style="stroke:rgb(246,147,147);stroke-width:0.01" />
<line x1="0.784533" y1="0.664667" x2="0.583333" y2="1" style="stroke:rgb(246,147,147);stroke-width:0.01" />
<line x1="0.63077" y1="0.407631" x2="0.343842" y2="0.672682" style="stroke:rgb(246,147,147);stroke-width:0.01" />
<line x1="0.63077" y1="0.407631" x2="0.334296" y2="0.509985" style="stroke:rgb(246,147,147);stroke-width:0.01" />
<line x1="0.673785" y1="0.479537" x2="0.36622" y2="0.684692" style="stroke:rgb(246,147,147);stroke-width:0.01" />
<line x1="0.673785" y1="0.479537" x2="0.387255" y2="0.632353" style="stroke:rgb(246,147,147);stroke-width:0.01" />
<line x1="0.784533" y1="0.664667" x2="0.36622" y2="0.684692" style="stroke:rgb(246,147,147);stroke-width:0.01" />
<line x1="0.812845" y1="0.711994" x2="0.763459" y2="0.769577" style="stroke:rgb(246,147,147);stroke-width:0.01" />
<line x1="0.806784" y1="0.783205" x2="0" y2="0.892729" style="stroke:rgb(246,147,147);stroke-width:0.01" />
<line x1="0.6581" y1="0.840763" x2="0.456378" y2="0.929245" style="stroke:rgb(246,147,147);stroke-width:0.01" />
<line x1="0.80661" y1="0.78525" x2="0.778098" y2="0.799295" style="stroke:rgb(246,147,147);stroke-width:0.01" />
<line x1="0" y1="1" x2="0.583333" y2="1" style="stroke:rgb(246,147,147);stroke-width:0.01" />
</g>
</svg>
