<svg xmlns="http://www.w3.org/2000/svg" viewBox="-1.5 -1.5 3 3">
<g transform="scale(1, -1)">
<path d="M0.088415 -0.361544 L0.270490 -0.057181 L0.264255 0.016075 L0.235743 0.030120 L0.230112 0.018688 L0.162776 0.027829 L0.040978 0.230825 L-0.542355 0.230825 L-0.542355 0.123554 L-0.208059 -0.259190 z " fill="rgb(245,195,195)" />
<path d="M-0.542355 -0.769175 L0.457645 -0.769175 L0.457645 0.230825 L-0.542355 0.230825  z" fill="none" stroke="rgb(128,128,128)" stroke-width="0.01" />
<line x1="0.0884154" y1="-0.361544" x2="0.27049" y2="-0.0571814" style="stroke:rgb(246,147,147);stroke-width:0.01" />
<line x1="0.221104" y1="0.000402286" x2="0.235743" y2="0.0301197" style="stroke:rgb(246,147,147);stroke-width:0.01" />
<line x1="-0.0632334" y1="-0.221458" x2="0.115745" y2="0.0715882" style="stroke:rgb(246,147,147);stroke-width:0.01" />
<line x1="-0.1551" y1="-0.136822" x2="0.0409785" y2="0.230825" style="stroke:rgb(246,147,147);stroke-width:0.01" />
<line x1="-0.198513" y1="-0.0964934" x2="-0.0859766" y2="0.160069" style="stroke:rgb(246,147,147);stroke-width:0.01" />
<line x1="-0.542355" y1="0.123554" x2="-0.542355" y2="0.230825" style="stroke:rgb(246,147,147);stroke-width:0.01" />
<line x1="0.27049" y1="-0.0571814" x2="0.264255" y2="0.0160745" style="stroke:rgb(246,147,147);stroke-width:0.01" />
<line x1="-0.0632334" y1="-0.221458" x2="0.264255" y2="0.0160745" style="stroke:rgb(246,147,147);stroke-width:0.01" />
<line x1="0.195586" y1="-0.182393" x2="0.115745" y2="0.0715882" style="stroke:rgb(246,147,147);stroke-width:0.01" />
<line x1="-0.198513" y1="-0.0964934" x2="-0.176135" y2="-0.0844831" style="stroke:rgb(246,147,147);stroke-width:0.01" />
<line x1="-0.208059" y1="-0.25919" x2="-0.542355" y2="0.123554" style="stroke:rgb(246,147,147);stroke-width:0.01" />
<line x1="-0.208059" y1="-0.25919" x2="0.195586" y2="-0.182393" style="stroke:rgb(246,147,147);stroke-width:0.01" />
<line x1="0.221104" y1="0.000402286" x2="0.264429" y2="0.0140294" style="stroke:rgb(246,147,147);stroke-width:0.01" />
<line x1="0.242178" y1="-0.104508" x2="0.0409785" y2="0.230825" style="stroke:rgb(246,147,147);stroke-width:0.01" />
<line x1="0.0884154" y1="-0.361544" x2="-0.198513" y2="-0.0964934" style="stroke:rgb(246,147,147);stroke-width:0.01" />
<line x1="0.0884154" y1="-0.361544" x2="-0.208059" y2="-0.25919" style="stroke:rgb(246,147,147);stroke-width:0.01" />
<line x1="0.131431" y1="-0.289638" x2="-0.176135" y2="-0.0844831" style="stroke:rgb(246,147,147);stroke-width:0.01" />
<line x1="0.131431" y1="-0.289638" x2="-0.1551" y2="-0.136822" style="stroke:rgb(246,147,147);stroke-width:0.01" />
<line x1="0.242178" y1="-0.104508" x2="-0.176135" y2="-0.0844831" style="stroke:rgb(246,147,147);stroke-width:0.01" />
<line x1="0.27049" y1="-0.0571814" x2="0.221104" y2="0.000402286" style="stroke:rgb(246,147,147);stroke-width:0.01" />
<line x1="0.264429" y1="0.0140294" x2="-0.542355" y2="0.123554" style="stroke:rgb(246,147,147);stroke-width:0.01" />
<line x1="0.115745" y1="0.0715882" x2="-0.0859766" y2="0.160069" style="stroke:rgb(246,147,147);stroke-width:0.01" />
<line x1="0.264255" y1="0.0160745" x2="0.235743" y2="0.0301197" style="stroke:rgb(246,147,147);stroke-width:0.01" />
<line x1="-0.542355" y1="0.230825" x2="0.0409785" y2="0.230825" style="stroke:rgb(246,147,147);stroke-width:0.01" />
</g>
</svg>
