<svg xmlns="http://www.w3.org/2000/svg" viewBox="-1.5 -1.5 3 3">
<g transform="scale(1, -1)">
<path d="M-0.120161 -0.170717 L-0.119977 -0.165062 L0.043116 -0.165062 L0.043348 -0.145551 L0.053289 -0.152919 L0.192983 -0.112277 L0.142500 0.069272 L0.144590 0.069887 L0.103840 0.208298 L0.049175 0.192652 L0.048275 0.268271 L-0.286966 0.268271 L-0.294012 -0.165062 z " fill="rgb(245,195,195)" />
<path d="M-0.467955 -0.165062 L0.532045 -0.165062 L0.532045 0.834938 L-0.467955 0.834938  z" fill="none" stroke="rgb(128,128,128)" stroke-width="0.01" />
<line x1="0.0532891" y1="-0.152919" x2="0.192983" y2="-0.112277" style="stroke:rgb(246,147,147);stroke-width:0.01" />
<line x1="-0.120161" y1="-0.170717" x2="-0.105881" y2="0.268271" style="stroke:rgb(246,147,147);stroke-width:0.01" />
<line x1="0.0431162" y1="-0.165062" x2="0.0482749" y2="0.268271" style="stroke:rgb(246,147,147);stroke-width:0.01" />
<line x1="-0.142052" y1="-0.15836" x2="-0.138337" y2="0.268271" style="stroke:rgb(246,147,147);stroke-width:0.01" />
<line x1="-0.294012" y1="-0.165062" x2="-0.286966" y2="0.268271" style="stroke:rgb(246,147,147);stroke-width:0.01" />
<line x1="-0.294012" y1="-0.165062" x2="0.0431162" y2="-0.165062" style="stroke:rgb(246,147,147);stroke-width:0.01" />
<line x1="-0.13589" y1="-0.012689" x2="-0.138337" y2="0.268271" style="stroke:rgb(246,147,147);stroke-width:0.01" />
<line x1="-0.284185" y1="0.0972362" x2="-0.286966" y2="0.268271" style="stroke:rgb(246,147,147);stroke-width:0.01" />
<line x1="-0.120161" y1="-0.170717" x2="-0.294012" y2="-0.165062" style="stroke:rgb(246,147,147);stroke-width:0.01" />
<line x1="0.0532891" y1="-0.152919" x2="0.0482749" y2="0.268271" style="stroke:rgb(246,147,147);stroke-width:0.01" />
<line x1="-0.142052" y1="-0.15836" x2="-0.293882" y2="-0.157037" style="stroke:rgb(246,147,147);stroke-width:0.01" />
<line x1="0.0431162" y1="-0.165062" x2="-0.293882" y2="-0.157037" style="stroke:rgb(246,147,147);stroke-width:0.01" />
<line x1="-0.0957746" y1="-0.0424246" x2="-0.105881" y2="0.268271" style="stroke:rgb(246,147,147);stroke-width:0.01" />
<line x1="-0.0957746" y1="-0.0424246" x2="0.145583" y2="0.0224313" style="stroke:rgb(246,147,147);stroke-width:0.01" />
<line x1="-0.13589" y1="-0.012689" x2="0.14459" y2="0.069887" style="stroke:rgb(246,147,147);stroke-width:0.01" />
<line x1="0.145583" y1="0.0224313" x2="0.0962235" y2="0.206118" style="stroke:rgb(246,147,147);stroke-width:0.01" />
<line x1="0.192983" y1="-0.112277" x2="0.10384" y2="0.208298" style="stroke:rgb(246,147,147);stroke-width:0.01" />
<line x1="0.14459" y1="0.069887" x2="0.10384" y2="0.208298" style="stroke:rgb(246,147,147);stroke-width:0.01" />
<line x1="0.192983" y1="-0.112277" x2="0.0962235" y2="0.206118" style="stroke:rgb(246,147,147);stroke-width:0.01" />
<line x1="-0.284185" y1="0.0972362" x2="0.10384" y2="0.208298" style="stroke:rgb(246,147,147);stroke-width:0.01" />
<line x1="0.0532891" y1="-0.152919" x2="-0.284185" y2="0.0972362" style="stroke:rgb(246,147,147);stroke-width:0.01" />
<line x1="-0.286966" y1="0.268271" x2="0.0482749" y2="0.268271" style="stroke:rgb(246,147,147);stroke-width:0.01" />
</g>
</svg>
