<svg xmlns="http://www.w3.org/2000/svg" viewBox="-1.5 -1.5 3 3">
<g transform="scale(1, -1)">
<path d="M0.347794 -0.005655 L0.347978 0.000000 L0.511071 0.000000 L0.511304 0.019511 L0.521244 0.012143 L0.660939 0.052786 L0.610455 0.234334 L0.612545 0.234949 L0.571795 0.373361 L0.517130 0.357714 L0.516230 0.433333 L0.180989 0.433333 L0.173943 0.000000 z " fill="rgb(245,195,195)" />
<path d="M0.000000 0.000000 L1.000000 0.000000 L1.000000 1.000000 L0.000000 1.000000  z" fill="none" stroke="rgb(128,128,128)" stroke-width="0.01" />
<line x1="0.521244" y1="0.0121429" x2="0.660939" y2="0.0527858" style="stroke:rgb(246,147,147);stroke-width:0.01" />
<line x1="0.347794" y1="-0.00565519" x2="0.362074" y2="0.433333" style="stroke:rgb(246,147,147);stroke-width:0.01" />
<line x1="0.511071" y1="0" x2="0.51623" y2="0.433333" style="stroke:rgb(246,147,147);stroke-width:0.01" />
<line x1="0.325903" y1="0.00670257" x2="0.329619" y2="0.433333" style="stroke:rgb(246,147,147);stroke-width:0.01" />
<line x1="0.173943" y1="0" x2="0.180989" y2="0.433333" style="stroke:rgb(246,147,147);stroke-width:0.01" />
<line x1="0.173943" y1="0" x2="0.511071" y2="0" style="stroke:rgb(246,147,147);stroke-width:0.01" />
<line x1="0.332066" y1="0.152373" x2="0.329619" y2="0.433333" style="stroke:rgb(246,147,147);stroke-width:0.01" />
<line x1="0.18377" y1="0.262299" x2="0.180989" y2="0.433333" style="stroke:rgb(246,147,147);stroke-width:0.01" />
<line x1="0.347794" y1="-0.00565519" x2="0.173943" y2="0" style="stroke:rgb(246,147,147);stroke-width:0.01" />
<line x1="0.521244" y1="0.0121429" x2="0.51623" y2="0.433333" style="stroke:rgb(246,147,147);stroke-width:0.01" />
<line x1="0.325903" y1="0.00670257" x2="0.174074" y2="0.0080249" style="stroke:rgb(246,147,147);stroke-width:0.01" />
<line x1="0.511071" y1="0" x2="0.174074" y2="0.0080249" style="stroke:rgb(246,147,147);stroke-width:0.01" />
<line x1="0.372181" y1="0.122638" x2="0.362074" y2="0.433333" style="stroke:rgb(246,147,147);stroke-width:0.01" />
<line x1="0.372181" y1="0.122638" x2="0.613538" y2="0.187494" style="stroke:rgb(246,147,147);stroke-width:0.01" />
<line x1="0.332066" y1="0.152373" x2="0.612545" y2="0.234949" style="stroke:rgb(246,147,147);stroke-width:0.01" />
<line x1="0.613538" y1="0.187494" x2="0.564179" y2="0.371181" style="stroke:rgb(246,147,147);stroke-width:0.01" />
<line x1="0.660939" y1="0.0527858" x2="0.571795" y2="0.373361" style="stroke:rgb(246,147,147);stroke-width:0.01" />
<line x1="0.612545" y1="0.234949" x2="0.571795" y2="0.373361" style="stroke:rgb(246,147,147);stroke-width:0.01" />
<line x1="0.660939" y1="0.0527858" x2="0.564179" y2="0.371181" style="stroke:rgb(246,147,147);stroke-width:0.01" />
<line x1="0.18377" y1="0.262299" x2="0.571795" y2="0.373361" style="stroke:rgb(246,147,147);stroke-width:0.01" />
<line x1="0.521244" y1="0.0121429" x2="0.18377" y2="0.262299" style="stroke:rgb(246,147,147);stroke-width:0.01" />
<line x1="0.180989" y1="0.433333" x2="0.51623" y2="0.433333" style="stroke:rgb(246,147,147);stroke-width:0.01" />
</g>
</svg>
