<svg xmlns="http://www.w3.org/2000/svg" viewBox="-1.5 -1.5 3 3">
<g transform="scale(1, -1)">
<path d="M0.188930 -0.252611 L0.585081 -0.252611 L0.585081 -0.245111 L-0.017052 0.362304 L-0.422135 0.079812 L-0.423410 0.025645 L-0.184961 0.020034 L-0.128819 0.073018 L-0.094970 0.084582 L-0.087744 0.104938 z " fill="rgb(245,195,195)" />
<path d="M-0.414919 -0.252611 L0.585081 -0.252611 L0.585081 0.747389 L-0.414919 0.747389  z" fill="none" stroke="rgb(128,128,128)" stroke-width="0.01" />
<line x1="0.18893" y1="-0.252611" x2="0.272597" y2="0.0701143" style="stroke:rgb(246,147,147);stroke-width:0.01" />
<line x1="0.00290007" y1="-0.0122028" x2="0.0476215" y2="0.152931" style="stroke:rgb(246,147,147);stroke-width:0.01" />
<line x1="-0.0949703" y1="0.0845822" x2="-0.00530837" y2="0.337155" style="stroke:rgb(246,147,147);stroke-width:0.01" />
<line x1="-0.0360095" y1="0.189463" x2="0.0015186" y2="0.34357" style="stroke:rgb(246,147,147);stroke-width:0.01" />
<line x1="0.345888" y1="-0.243022" x2="0.350473" y2="-0.00844515" style="stroke:rgb(246,147,147);stroke-width:0.01" />
<line x1="-0.184961" y1="0.0200342" x2="-0.177036" y2="0.250737" style="stroke:rgb(246,147,147);stroke-width:0.01" />
<line x1="0.18893" y1="-0.252611" x2="0.585081" y2="-0.252611" style="stroke:rgb(246,147,147);stroke-width:0.01" />
<line x1="0.585081" y1="-0.252611" x2="0.585081" y2="-0.245111" style="stroke:rgb(246,147,147);stroke-width:0.01" />
<line x1="-0.42341" y1="0.0256455" x2="-0.422135" y2="0.0798124" style="stroke:rgb(246,147,147);stroke-width:0.01" />
<line x1="-0.035889" y1="0.149706" x2="-0.0364922" y2="0.348748" style="stroke:rgb(246,147,147);stroke-width:0.01" />
<line x1="-0.170616" y1="0.212034" x2="-0.17108" y2="0.25489" style="stroke:rgb(246,147,147);stroke-width:0.01" />
<line x1="-0.035889" y1="0.149706" x2="0.077086" y2="0.26734" style="stroke:rgb(246,147,147);stroke-width:0.01" />
<line x1="-0.265569" y1="0.0262978" x2="-0.0669031" y2="0.32754" style="stroke:rgb(246,147,147);stroke-width:0.01" />
<line x1="0.585081" y1="-0.245111" x2="0.345888" y2="-0.243022" style="stroke:rgb(246,147,147);stroke-width:0.01" />
<line x1="-0.184961" y1="0.0200342" x2="0.077086" y2="0.26734" style="stroke:rgb(246,147,147);stroke-width:0.01" />
<line x1="0.010214" y1="0.00453189" x2="-0.0360095" y2="0.189463" style="stroke:rgb(246,147,147);stroke-width:0.01" />
<line x1="0.010214" y1="0.00453189" x2="0.272597" y2="0.0701143" style="stroke:rgb(246,147,147);stroke-width:0.01" />
<line x1="-0.265569" y1="0.0262978" x2="-0.0949703" y2="0.0845822" style="stroke:rgb(246,147,147);stroke-width:0.01" />
<line x1="-0.422135" y1="0.0798124" x2="-0.0170524" y2="0.362304" style="stroke:rgb(246,147,147);stroke-width:0.01" />
<line x1="0.00290007" y1="-0.0122028" x2="0.350473" y2="-0.00844515" style="stroke:rgb(246,147,147);stroke-width:0.01" />
<line x1="-0.0949703" y1="0.0845822" x2="-0.192318" y2="0.240079" style="stroke:rgb(246,147,147);stroke-width:0.01" />
<line x1="-0.00530837" y1="0.337155" x2="-0.0170524" y2="0.362304" style="stroke:rgb(246,147,147);stroke-width:0.01" />
<line x1="-0.184961" y1="0.0200342" x2="-0.42341" y2="0.0256455" style="stroke:rgb(246,147,147);stroke-width:0.01" />
<line x1="0.18893" y1="-0.252611" x2="-0.192318" y2="0.240079" style="stroke:rgb(246,147,147);stroke-width:0.01" />
<line x1="-0.265569" y1="0.0262978" x2="-0.422135" y2="0.0798124" style="stroke:rgb(246,147,147);stroke-width:0.01" />
<line x1="0.345888" y1="-0.243022" x2="-0.035889" y2="0.149706" style="stroke:rgb(246,147,147);stroke-width:0.01" />
<line x1="-0.0669031" y1="0.32754" x2="0.0015186" y2="0.34357" style="stroke:rgb(246,147,147);stroke-width:0.01" />
<line x1="0.0476215" y1="0.152931" x2="-0.170616" y2="0.212034" style="stroke:rgb(246,147,147);stroke-width:0.01" />
<line x1="0.585081" y1="-0.245111" x2="-0.0170524" y2="0.362304" style="stroke:rgb(246,147,147);stroke-width:0.01" />
<line x1="-0.0507683" y1="0.209097" x2="-0.17108" y2="0.25489" style="stroke:rgb(246,147,147);stroke-width:0.01" />
<line x1="-0.0507683" y1="0.209097" x2="-0.177036" y2="0.250737" style="stroke:rgb(246,147,147);stroke-width:0.01" />
<line x1="-0.00530837" y1="0.337155" x2="-0.0364922" y2="0.348748" style="stroke:rgb(246,147,147);stroke-width:0.01" />
</g>
</svg>
