<svg xmlns="http://www.w3.org/2000/svg" viewBox="-1.5 -1.5 3 3">
<g transform="scale(1, -1)">
<path d="M0.341042 0.024399 L0.383882 0.047855 L0.878562 0.718421 L0.822672 0.822928 L0.611560 0.741028 L0.639256 0.669636 L0.419212 0.509486 L0.378137 0.343121 L0.155593 0.243565 L0.167653 0.157387 L0.222069 0.165002 z " fill="rgb(245,195,195)" />
<path d="M0.000000 0.000000 L1.000000 0.000000 L1.000000 1.000000 L0.000000 1.000000  z" fill="none" stroke="rgb(128,128,128)" stroke-width="0.01" />
<line x1="0.383882" y1="0.0478548" x2="0.878562" y2="0.718421" style="stroke:rgb(246,147,147);stroke-width:0.01" />
<line x1="0.341042" y1="0.0243987" x2="0.383882" y2="0.0478548" style="stroke:rgb(246,147,147);stroke-width:0.01" />
<line x1="0.711823" y1="0.492397" x2="0.74252" y2="0.744793" style="stroke:rgb(246,147,147);stroke-width:0.01" />
<line x1="0.383882" y1="0.0478548" x2="0.488364" y2="0.559815" style="stroke:rgb(246,147,147);stroke-width:0.01" />
<line x1="0.314021" y1="0.0834299" x2="0.419212" y2="0.509486" style="stroke:rgb(246,147,147);stroke-width:0.01" />
<line x1="0.590804" y1="0.489962" x2="0.860253" y2="0.752656" style="stroke:rgb(246,147,147);stroke-width:0.01" />
<line x1="0.167653" y1="0.157387" x2="0.155593" y2="0.243565" style="stroke:rgb(246,147,147);stroke-width:0.01" />
<line x1="0.49888" y1="0.203741" x2="0.446179" y2="0.529112" style="stroke:rgb(246,147,147);stroke-width:0.01" />
<line x1="0.341042" y1="0.0243987" x2="0.25904" y2="0.289842" style="stroke:rgb(246,147,147);stroke-width:0.01" />
<line x1="0.167653" y1="0.157387" x2="0.49888" y2="0.203741" style="stroke:rgb(246,147,147);stroke-width:0.01" />
<line x1="0.419212" y1="0.509486" x2="0.74252" y2="0.744793" style="stroke:rgb(246,147,147);stroke-width:0.01" />
<line x1="0.155593" y1="0.243565" x2="0.711823" y2="0.492397" style="stroke:rgb(246,147,147);stroke-width:0.01" />
<line x1="0.395319" y1="0.0633578" x2="0.314021" y2="0.0834299" style="stroke:rgb(246,147,147);stroke-width:0.01" />
<line x1="0.662782" y1="0.710672" x2="0.822672" y2="0.822928" style="stroke:rgb(246,147,147);stroke-width:0.01" />
<line x1="0.341042" y1="0.0243987" x2="0.155593" y2="0.243565" style="stroke:rgb(246,147,147);stroke-width:0.01" />
<line x1="0.395319" y1="0.0633578" x2="0.25904" y2="0.289842" style="stroke:rgb(246,147,147);stroke-width:0.01" />
<line x1="0.709327" y1="0.489014" x2="0.61156" y2="0.741028" style="stroke:rgb(246,147,147);stroke-width:0.01" />
<line x1="0.740769" y1="0.531635" x2="0.662782" y2="0.710672" style="stroke:rgb(246,147,147);stroke-width:0.01" />
<line x1="0.61156" y1="0.741028" x2="0.822672" y2="0.822928" style="stroke:rgb(246,147,147);stroke-width:0.01" />
<line x1="0.878562" y1="0.718421" x2="0.822672" y2="0.822928" style="stroke:rgb(246,147,147);stroke-width:0.01" />
<line x1="0.658672" y1="0.420348" x2="0.590804" y2="0.489962" style="stroke:rgb(246,147,147);stroke-width:0.01" />
<line x1="0.709327" y1="0.489014" x2="0.419212" y2="0.509486" style="stroke:rgb(246,147,147);stroke-width:0.01" />
<line x1="0.662782" y1="0.710672" x2="0.860253" y2="0.752656" style="stroke:rgb(246,147,147);stroke-width:0.01" />
<line x1="0.658672" y1="0.420348" x2="0.446179" y2="0.529112" style="stroke:rgb(246,147,147);stroke-width:0.01" />
<line x1="0.740769" y1="0.531635" x2="0.488364" y2="0.559815" style="stroke:rgb(246,147,147);stroke-width:0.01" />
<line x1="0.878562" y1="0.718421" x2="0.74252" y2="0.744793" style="stroke:rgb(246,147,147);stroke-width:0.01" />
</g>
</svg>
