<svg xmlns="http://www.w3.org/2000/svg" viewBox="-1.5 -1.5 3 3">
<g transform="scale(1, -1)">
<path d="M-0.115289 -0.379495 L-0.072449 -0.356039 L0.422231 0.314528 L0.366341 0.419035 L0.155229 0.337135 L0.182925 0.265743 L-0.037119 0.105592 L-0.078193 -0.060772 L-0.300738 -0.160329 L-0.288677 -0.246507 L-0.234262 -0.238891 z " fill="rgb(245,195,195)" />
<path d="M-0.456331 -0.403893 L0.543669 -0.403893 L0.543669 0.596107 L-0.456331 0.596107  z" fill="none" stroke="rgb(128,128,128)" stroke-width="0.01" />
<line x1="-0.0724488" y1="-0.356039" x2="0.422231" y2="0.314528" style="stroke:rgb(246,147,147);stroke-width:0.01" />
<line x1="-0.115289" y1="-0.379495" x2="-0.0724488" y2="-0.356039" style="stroke:rgb(246,147,147);stroke-width:0.01" />
<line x1="0.255492" y1="0.0885038" x2="0.286189" y2="0.340899" style="stroke:rgb(246,147,147);stroke-width:0.01" />
<line x1="-0.0724488" y1="-0.356039" x2="0.0320329" y2="0.155921" style="stroke:rgb(246,147,147);stroke-width:0.01" />
<line x1="-0.14231" y1="-0.320464" x2="-0.0371188" y2="0.105592" style="stroke:rgb(246,147,147);stroke-width:0.01" />
<line x1="0.134473" y1="0.0860683" x2="0.403922" y2="0.348763" style="stroke:rgb(246,147,147);stroke-width:0.01" />
<line x1="-0.288677" y1="-0.246507" x2="-0.300738" y2="-0.160329" style="stroke:rgb(246,147,147);stroke-width:0.01" />
<line x1="0.0425496" y1="-0.200152" x2="-0.0101521" y2="0.125219" style="stroke:rgb(246,147,147);stroke-width:0.01" />
<line x1="-0.115289" y1="-0.379495" x2="-0.197291" y2="-0.114051" style="stroke:rgb(246,147,147);stroke-width:0.01" />
<line x1="-0.288677" y1="-0.246507" x2="0.0425496" y2="-0.200152" style="stroke:rgb(246,147,147);stroke-width:0.01" />
<line x1="-0.0371188" y1="0.105592" x2="0.286189" y2="0.340899" style="stroke:rgb(246,147,147);stroke-width:0.01" />
<line x1="-0.300738" y1="-0.160329" x2="0.255492" y2="0.0885038" style="stroke:rgb(246,147,147);stroke-width:0.01" />
<line x1="-0.0610121" y1="-0.340536" x2="-0.14231" y2="-0.320464" style="stroke:rgb(246,147,147);stroke-width:0.01" />
<line x1="0.206452" y1="0.306778" x2="0.366341" y2="0.419035" style="stroke:rgb(246,147,147);stroke-width:0.01" />
<line x1="-0.115289" y1="-0.379495" x2="-0.300738" y2="-0.160329" style="stroke:rgb(246,147,147);stroke-width:0.01" />
<line x1="-0.0610121" y1="-0.340536" x2="-0.197291" y2="-0.114051" style="stroke:rgb(246,147,147);stroke-width:0.01" />
<line x1="0.252997" y1="0.0851208" x2="0.155229" y2="0.337135" style="stroke:rgb(246,147,147);stroke-width:0.01" />
<line x1="0.284439" y1="0.127742" x2="0.206452" y2="0.306778" style="stroke:rgb(246,147,147);stroke-width:0.01" />
<line x1="0.155229" y1="0.337135" x2="0.366341" y2="0.419035" style="stroke:rgb(246,147,147);stroke-width:0.01" />
<line x1="0.422231" y1="0.314528" x2="0.366341" y2="0.419035" style="stroke:rgb(246,147,147);stroke-width:0.01" />
<line x1="0.202341" y1="0.0164547" x2="0.134473" y2="0.0860683" style="stroke:rgb(246,147,147);stroke-width:0.01" />
<line x1="0.252997" y1="0.0851208" x2="-0.0371188" y2="0.105592" style="stroke:rgb(246,147,147);stroke-width:0.01" />
<line x1="0.206452" y1="0.306778" x2="0.403922" y2="0.348763" style="stroke:rgb(246,147,147);stroke-width:0.01" />
<line x1="0.202341" y1="0.0164547" x2="-0.0101521" y2="0.125219" style="stroke:rgb(246,147,147);stroke-width:0.01" />
<line x1="0.284439" y1="0.127742" x2="0.0320329" y2="0.155921" style="stroke:rgb(246,147,147);stroke-width:0.01" />
<line x1="0.422231" y1="0.314528" x2="0.286189" y2="0.340899" style="stroke:rgb(246,147,147);stroke-width:0.01" />
</g>
</svg>
