<svg xmlns="http://www.w3.org/2000/svg" viewBox="-1.5 -1.5 3 3">
<g transform="scale(1, -1)">
<path d="M-0.206715 -0.224682 L0.217423 -0.214338 L0.355354 -0.069510 L0.353630 0.001180 L0.208802 0.139111 L0.138113 0.137387 L0.069147 0.064973 L-0.003267 0.133938 L-0.072232 0.061525 L-0.144646 0.130490 L-0.215336 0.128766 L-0.353267 -0.016062 L-0.351543 -0.086751 z M-0.210163 -0.083303 L-0.211887 -0.012613 L-0.141198 -0.010889 z M0.213975 -0.072958 L0.141561 -0.003993 L0.212250 -0.002269 z " fill="rgb(245,195,195)" />
<path d="M-0.353267 -0.224682 L0.646733 -0.224682 L0.646733 0.775318 L-0.353267 0.775318  z" fill="none" stroke="rgb(128,128,128)" stroke-width="0.01" />
<line x1="0.217423" y1="-0.214338" x2="0.355354" y2="-0.06951" style="stroke:rgb(246,147,147);stroke-width:0.01" />
<line x1="0.0760436" y1="-0.217786" x2="0.28294" y2="-0.000544465" style="stroke:rgb(246,147,147);stroke-width:0.01" />
<line x1="-0.0653358" y1="-0.221234" x2="0.00362976" y2="-0.14882" style="stroke:rgb(246,147,147);stroke-width:0.01" />
<line x1="0.141561" y1="-0.00399274" x2="0.245009" y2="0.104628" style="stroke:rgb(246,147,147);stroke-width:0.01" />
<line x1="0.069147" y1="0.0649728" x2="0.138113" y2="0.137387" style="stroke:rgb(246,147,147);stroke-width:0.01" />
<line x1="-0.279129" y1="-0.155717" x2="-0.00326679" y2="0.133938" style="stroke:rgb(246,147,147);stroke-width:0.01" />
<line x1="-0.206715" y1="-0.224682" x2="0.217423" y2="-0.214338" style="stroke:rgb(246,147,147);stroke-width:0.01" />
<line x1="-0.351543" y1="-0.0867514" x2="-0.353267" y2="-0.0160617" style="stroke:rgb(246,147,147);stroke-width:0.01" />
<line x1="-0.279129" y1="-0.155717" x2="-0.284301" y2="0.0563521" style="stroke:rgb(246,147,147);stroke-width:0.01" />
<line x1="-0.206715" y1="-0.224682" x2="-0.215336" y2="0.128766" style="stroke:rgb(246,147,147);stroke-width:0.01" />
<line x1="0.217423" y1="-0.214338" x2="0.208802" y2="0.139111" style="stroke:rgb(246,147,147);stroke-width:0.01" />
<line x1="0.286388" y1="-0.141924" x2="0.281216" y2="0.0701452" style="stroke:rgb(246,147,147);stroke-width:0.01" />
<line x1="0.355354" y1="-0.06951" x2="0.35363" y2="0.00117967" style="stroke:rgb(246,147,147);stroke-width:0.01" />
<line x1="-0.282577" y1="-0.0143376" x2="-0.144646" y2="0.13049" style="stroke:rgb(246,147,147);stroke-width:0.01" />
<line x1="-0.279129" y1="-0.155717" x2="0.286388" y2="-0.141924" style="stroke:rgb(246,147,147);stroke-width:0.01" />
<line x1="-0.206715" y1="-0.224682" x2="-0.351543" y2="-0.0867514" style="stroke:rgb(246,147,147);stroke-width:0.01" />
<line x1="-0.353267" y1="-0.0160617" x2="-0.215336" y2="0.128766" style="stroke:rgb(246,147,147);stroke-width:0.01" />
<line x1="-0.351543" y1="-0.0867514" x2="0.355354" y2="-0.06951" style="stroke:rgb(246,147,147);stroke-width:0.01" />
<line x1="-0.0653358" y1="-0.221234" x2="-0.282577" y2="-0.0143376" style="stroke:rgb(246,147,147);stroke-width:0.01" />
<line x1="-0.353267" y1="-0.0160617" x2="-0.141198" y2="-0.0108893" style="stroke:rgb(246,147,147);stroke-width:0.01" />
<line x1="0.141561" y1="-0.00399274" x2="0.35363" y2="0.00117967" style="stroke:rgb(246,147,147);stroke-width:0.01" />
<line x1="0.0760436" y1="-0.217786" x2="0.00362976" y2="-0.14882" style="stroke:rgb(246,147,147);stroke-width:0.01" />
<line x1="-0.141198" y1="-0.0108893" x2="-0.249819" y2="0.092559" style="stroke:rgb(246,147,147);stroke-width:0.01" />
<line x1="-0.284301" y1="0.0563521" x2="-0.213612" y2="0.0580762" style="stroke:rgb(246,147,147);stroke-width:0.01" />
<line x1="0.210526" y1="0.0684211" x2="0.281216" y2="0.0701452" style="stroke:rgb(246,147,147);stroke-width:0.01" />
<line x1="-0.0722323" y1="0.0615245" x2="-0.144646" y2="0.13049" style="stroke:rgb(246,147,147);stroke-width:0.01" />
<line x1="-0.215336" y1="0.128766" x2="-0.144646" y2="0.13049" style="stroke:rgb(246,147,147);stroke-width:0.01" />
<line x1="0.138113" y1="0.137387" x2="0.208802" y2="0.139111" style="stroke:rgb(246,147,147);stroke-width:0.01" />
<line x1="0.286388" y1="-0.141924" x2="-0.00326679" y2="0.133938" style="stroke:rgb(246,147,147);stroke-width:0.01" />
<line x1="0.28294" y1="-0.000544465" x2="0.138113" y2="0.137387" style="stroke:rgb(246,147,147);stroke-width:0.01" />
<line x1="0.35363" y1="0.00117967" x2="0.208802" y2="0.139111" style="stroke:rgb(246,147,147);stroke-width:0.01" />
</g>
</svg>
