<svg xmlns="http://www.w3.org/2000/svg" viewBox="-1.5 -1.5 3 3">
<g transform="scale(1, -1)">
<path d="M-0.116221 -0.446932 L0.408268 -0.184687 L0.261141 0.335916 L0.253392 0.338979 L0.242194 0.310653 L0.172891 0.218249 L0.190375 0.179562 L0.163289 0.111040 L0.084897 0.053975 L-0.229609 0.264534 L-0.325715 0.235010 L-0.205221 -0.157219 L-0.284897 -0.215219 L-0.216626 -0.309004 L-0.230276 -0.358894 L-0.167882 -0.375964 z " fill="rgb(245,195,195)" />
<path d="M-0.255192 -0.614751 L0.744808 -0.614751 L0.744808 0.385249 L-0.255192 0.385249  z" fill="none" stroke="rgb(128,128,128)" stroke-width="0.01" />
<line x1="-0.0427541" y1="-0.410198" x2="0.253392" y2="0.338979" style="stroke:rgb(246,147,147);stroke-width:0.01" />
<line x1="-0.211621" y1="0.0713252" x2="-0.229609" y2="0.264534" style="stroke:rgb(246,147,147);stroke-width:0.01" />
<line x1="-0.230276" y1="-0.358894" x2="-0.0860125" y2="0.168397" style="stroke:rgb(246,147,147);stroke-width:0.01" />
<line x1="-0.116221" y1="-0.446932" x2="-0.325715" y2="0.23501" style="stroke:rgb(246,147,147);stroke-width:0.01" />
<line x1="-0.116221" y1="-0.446932" x2="0.408268" y2="-0.184687" style="stroke:rgb(246,147,147);stroke-width:0.01" />
<line x1="0.172891" y1="0.218249" x2="0.261141" y2="0.335916" style="stroke:rgb(246,147,147);stroke-width:0.01" />
<line x1="-0.116221" y1="-0.446932" x2="-0.284897" y2="-0.215219" style="stroke:rgb(246,147,147);stroke-width:0.01" />
<line x1="0.408268" y1="-0.184687" x2="0.261141" y2="0.335916" style="stroke:rgb(246,147,147);stroke-width:0.01" />
<line x1="-0.0427541" y1="-0.410198" x2="-0.230276" y2="-0.358894" style="stroke:rgb(246,147,147);stroke-width:0.01" />
<line x1="-0.284897" y1="-0.215219" x2="0.297154" y2="0.208488" style="stroke:rgb(246,147,147);stroke-width:0.01" />
<line x1="0.364808" y1="-0.206417" x2="0.172891" y2="0.218249" style="stroke:rgb(246,147,147);stroke-width:0.01" />
<line x1="0.364808" y1="-0.206417" x2="0.301262" y2="-0.0908798" style="stroke:rgb(246,147,147);stroke-width:0.01" />
<line x1="-0.211621" y1="0.0713252" x2="-0.0860125" y2="0.168397" style="stroke:rgb(246,147,147);stroke-width:0.01" />
<line x1="0.408268" y1="-0.184687" x2="0.373677" y2="-0.139361" style="stroke:rgb(246,147,147);stroke-width:0.01" />
<line x1="0.301262" y1="-0.0908798" x2="0.112828" y2="-0.0696944" style="stroke:rgb(246,147,147);stroke-width:0.01" />
<line x1="0.112828" y1="-0.0696944" x2="-0.211621" y2="0.0713252" style="stroke:rgb(246,147,147);stroke-width:0.01" />
<line x1="0.373677" y1="-0.139361" x2="0.112828" y2="-0.0696944" style="stroke:rgb(246,147,147);stroke-width:0.01" />
<line x1="0.373677" y1="-0.139361" x2="-0.229609" y2="0.264534" style="stroke:rgb(246,147,147);stroke-width:0.01" />
<line x1="-0.325715" y1="0.23501" x2="-0.229609" y2="0.264534" style="stroke:rgb(246,147,147);stroke-width:0.01" />
<line x1="0.297154" y1="0.208488" x2="0.172891" y2="0.218249" style="stroke:rgb(246,147,147);stroke-width:0.01" />
<line x1="0.261141" y1="0.335916" x2="0.253392" y2="0.338979" style="stroke:rgb(246,147,147);stroke-width:0.01" />
</g>
</svg>
