<svg xmlns="http://www.w3.org/2000/svg" viewBox="-1.5 -1.5 3 3">
<g transform="scale(1, -1)">
<path d="M0.021627 -0.527721 L0.216808 -0.457980 L0.451362 0.128405 L0.393830 0.280289 L0.284784 0.265572 L0.141922 0.181160 L0.127730 0.102113 L0.073072 0.065514 L0.106277 -0.017381 L0.102362 -0.039191 L0.024658 -0.076506 L0.075641 -0.188029 L0.016987 -0.514733 z " fill="rgb(245,195,195)" />
<path d="M0.000000 0.000000 L1.000000 0.000000 L1.000000 1.000000 L0.000000 1.000000  z" fill="none" stroke="rgb(128,128,128)" stroke-width="0.01" />
<line x1="0.0216274" y1="-0.527721" x2="0.216808" y2="-0.45798" style="stroke:rgb(246,147,147);stroke-width:0.01" />
<line x1="0.176661" y1="-0.409008" x2="0.249765" y2="-0.375588" style="stroke:rgb(246,147,147);stroke-width:0.01" />
<line x1="0.183934" y1="-0.195366" x2="0.359414" y2="-0.101464" style="stroke:rgb(246,147,147);stroke-width:0.01" />
<line x1="0.0169868" y1="-0.514733" x2="0.355252" y2="-0.11187" style="stroke:rgb(246,147,147);stroke-width:0.01" />
<line x1="0.183934" y1="-0.195366" x2="0.326027" y2="-0.184932" style="stroke:rgb(246,147,147);stroke-width:0.01" />
<line x1="0.265678" y1="-0.118371" x2="0.283899" y2="-0.10185" style="stroke:rgb(246,147,147);stroke-width:0.01" />
<line x1="0.237505" y1="-0.182799" x2="0.327266" y2="-0.181835" style="stroke:rgb(246,147,147);stroke-width:0.01" />
<line x1="0.216808" y1="-0.45798" x2="0.451362" y2="0.128405" style="stroke:rgb(246,147,147);stroke-width:0.01" />
<line x1="0.283899" y1="-0.10185" x2="0.363348" y2="-0.0916294" style="stroke:rgb(246,147,147);stroke-width:0.01" />
<line x1="0.0246577" y1="-0.0765058" x2="0.451362" y2="0.128405" style="stroke:rgb(246,147,147);stroke-width:0.01" />
<line x1="0.366781" y1="-0.0830482" x2="0.0981062" y2="-0.0628951" style="stroke:rgb(246,147,147);stroke-width:0.01" />
<line x1="0.0216274" y1="-0.527721" x2="0.0169868" y2="-0.514733" style="stroke:rgb(246,147,147);stroke-width:0.01" />
<line x1="0.116228" y1="0.038046" x2="0.284784" y2="0.265572" style="stroke:rgb(246,147,147);stroke-width:0.01" />
<line x1="0.346255" y1="-0.134362" x2="0.0981062" y2="-0.0628951" style="stroke:rgb(246,147,147);stroke-width:0.01" />
<line x1="0.355252" y1="-0.11187" x2="0.356464" y2="-0.092515" style="stroke:rgb(246,147,147);stroke-width:0.01" />
<line x1="0.0169868" y1="-0.514733" x2="0.141922" y2="0.18116" style="stroke:rgb(246,147,147);stroke-width:0.01" />
<line x1="0.216808" y1="-0.45798" x2="0.0246577" y2="-0.0765058" style="stroke:rgb(246,147,147);stroke-width:0.01" />
<line x1="0.176661" y1="-0.409008" x2="0.0246577" y2="-0.0765058" style="stroke:rgb(246,147,147);stroke-width:0.01" />
<line x1="0.237505" y1="-0.182799" x2="0.235277" y2="0.0246369" style="stroke:rgb(246,147,147);stroke-width:0.01" />
<line x1="0.0730719" y1="0.0655143" x2="0.39383" y2="0.280289" style="stroke:rgb(246,147,147);stroke-width:0.01" />
<line x1="0.183934" y1="-0.195366" x2="0.116228" y2="0.038046" style="stroke:rgb(246,147,147);stroke-width:0.01" />
<line x1="0.249765" y1="-0.375588" x2="0.0730719" y2="0.0655143" style="stroke:rgb(246,147,147);stroke-width:0.01" />
<line x1="0.346255" y1="-0.134362" x2="0.283899" y2="-0.10185" style="stroke:rgb(246,147,147);stroke-width:0.01" />
<line x1="0.327266" y1="-0.181835" x2="0.0730719" y2="0.0655143" style="stroke:rgb(246,147,147);stroke-width:0.01" />
<line x1="0.141922" y1="0.18116" x2="0.284784" y2="0.265572" style="stroke:rgb(246,147,147);stroke-width:0.01" />
<line x1="0.326027" y1="-0.184932" x2="0.265678" y2="-0.118371" style="stroke:rgb(246,147,147);stroke-width:0.01" />
<line x1="0.359414" y1="-0.101464" x2="0.356464" y2="-0.092515" style="stroke:rgb(246,147,147);stroke-width:0.01" />
<line x1="0.366781" y1="-0.0830482" x2="0.235277" y2="0.0246369" style="stroke:rgb(246,147,147);stroke-width:0.01" />
<line x1="0.363348" y1="-0.0916294" x2="0.141922" y2="0.18116" style="stroke:rgb(246,147,147);stroke-width:0.01" />
<line x1="0.451362" y1="0.128405" x2="0.39383" y2="0.280289" style="stroke:rgb(246,147,147);stroke-width:0.01" />
<line x1="0.284784" y1="0.265572" x2="0.39383" y2="0.280289" style="stroke:rgb(246,147,147);stroke-width:0.01" />
</g>
</svg>
