<svg xmlns="http://www.w3.org/2000/svg" viewBox="-1.5 -1.5 3 3">
<g transform="scale(1, -1)">
<path d="M-0.522321 -0.253706 L-0.201077 -0.253706 L0.055763 -0.062757 L0.184165 -0.117193 L0.247848 0.033019 L0.221961 0.060804 L0.379997 0.178297 L0.378790 0.180991 L0.039555 0.332385 L-0.262361 0.132905 L-0.522321 -0.231039 z " fill="rgb(245,195,195)" />
<path d="M-0.522321 -0.253706 L0.477679 -0.253706 L0.477679 0.746294 L-0.522321 0.746294  z" fill="none" stroke="rgb(128,128,128)" stroke-width="0.01" />
<line x1="0.184165" y1="-0.117193" x2="0.247848" y2="0.033019" style="stroke:rgb(246,147,147);stroke-width:0.01" />
<line x1="0.214965" y1="0.0556025" x2="0.291614" y2="0.219896" style="stroke:rgb(246,147,147);stroke-width:0.01" />
<line x1="0.258601" y1="0.142459" x2="0.291614" y2="0.219896" style="stroke:rgb(246,147,147);stroke-width:0.01" />
<line x1="-0.201077" y1="-0.253706" x2="0.379997" y2="0.178297" style="stroke:rgb(246,147,147);stroke-width:0.01" />
<line x1="-0.042138" y1="-0.021251" x2="0.0327072" y2="0.263932" style="stroke:rgb(246,147,147);stroke-width:0.01" />
<line x1="-0.201077" y1="-0.253706" x2="-0.0407335" y2="0.279337" style="stroke:rgb(246,147,147);stroke-width:0.01" />
<line x1="-0.118511" y1="0.164649" x2="-0.0963748" y2="0.242574" style="stroke:rgb(246,147,147);stroke-width:0.01" />
<line x1="-0.157676" y1="0.156006" x2="-0.102571" y2="0.23848" style="stroke:rgb(246,147,147);stroke-width:0.01" />
<line x1="-0.522321" y1="-0.253706" x2="-0.201077" y2="-0.253706" style="stroke:rgb(246,147,147);stroke-width:0.01" />
<line x1="-0.522321" y1="-0.253706" x2="-0.522321" y2="-0.231039" style="stroke:rgb(246,147,147);stroke-width:0.01" />
<line x1="-0.522321" y1="-0.231039" x2="-0.262361" y2="0.132905" style="stroke:rgb(246,147,147);stroke-width:0.01" />
<line x1="0.0417664" y1="0.200018" x2="0.0395555" y2="0.332385" style="stroke:rgb(246,147,147);stroke-width:0.01" />
<line x1="-0.522321" y1="-0.231039" x2="0.247848" y2="0.033019" style="stroke:rgb(246,147,147);stroke-width:0.01" />
<line x1="-0.168046" y1="-6.34003e-05" x2="-0.193941" y2="0.17811" style="stroke:rgb(246,147,147);stroke-width:0.01" />
<line x1="0.000720884" y1="0.264492" x2="-0.00487721" y2="0.303028" style="stroke:rgb(246,147,147);stroke-width:0.01" />
<line x1="0.258601" y1="0.142459" x2="0.37879" y2="0.180991" style="stroke:rgb(246,147,147);stroke-width:0.01" />
<line x1="-0.262361" y1="0.132905" x2="0.0395555" y2="0.332385" style="stroke:rgb(246,147,147);stroke-width:0.01" />
<line x1="-0.168046" y1="-6.34003e-05" x2="0.214965" y2="0.0556025" style="stroke:rgb(246,147,147);stroke-width:0.01" />
<line x1="-0.042138" y1="-0.021251" x2="-0.153264" y2="0.204987" style="stroke:rgb(246,147,147);stroke-width:0.01" />
<line x1="0.0417664" y1="0.200018" x2="-0.00415987" y2="0.303502" style="stroke:rgb(246,147,147);stroke-width:0.01" />
<line x1="-0.262361" y1="0.132905" x2="0.0417664" y2="0.200018" style="stroke:rgb(246,147,147);stroke-width:0.01" />
<line x1="0.184165" y1="-0.117193" x2="-0.042138" y2="-0.021251" style="stroke:rgb(246,147,147);stroke-width:0.01" />
<line x1="-0.118511" y1="0.164649" x2="-0.153264" y2="0.204987" style="stroke:rgb(246,147,147);stroke-width:0.01" />
<line x1="-0.102571" y1="0.23848" x2="0.0327072" y2="0.263932" style="stroke:rgb(246,147,147);stroke-width:0.01" />
<line x1="0.379997" y1="0.178297" x2="0.37879" y2="0.180991" style="stroke:rgb(246,147,147);stroke-width:0.01" />
<line x1="0.000720884" y1="0.264492" x2="0.0405927" y2="0.270284" style="stroke:rgb(246,147,147);stroke-width:0.01" />
<line x1="-0.157676" y1="0.156006" x2="-0.193941" y2="0.17811" style="stroke:rgb(246,147,147);stroke-width:0.01" />
<line x1="0.247848" y1="0.033019" x2="-0.00415987" y2="0.303502" style="stroke:rgb(246,147,147);stroke-width:0.01" />
<line x1="0.374849" y1="0.18275" x2="-0.0963748" y2="0.242574" style="stroke:rgb(246,147,147);stroke-width:0.01" />
<line x1="0.0405927" y1="0.270284" x2="-0.0407335" y2="0.279337" style="stroke:rgb(246,147,147);stroke-width:0.01" />
<line x1="0.258601" y1="0.142459" x2="-0.00487721" y2="0.303028" style="stroke:rgb(246,147,147);stroke-width:0.01" />
<line x1="0.379997" y1="0.178297" x2="0.374849" y2="0.18275" style="stroke:rgb(246,147,147);stroke-width:0.01" />
<line x1="0.37879" y1="0.180991" x2="0.0395555" y2="0.332385" style="stroke:rgb(246,147,147);stroke-width:0.01" />
</g>
</svg>
