<svg xmlns="http://www.w3.org/2000/svg" viewBox="-1.5 -1.5 3 3">
<g transform="scale(1, -1)">
<path d="M0.096937 -0.266906 L0.236734 -0.250033 L0.474171 0.069279 L0.439572 0.261677 L0.081975 0.197369 L0.116195 0.007083 L-0.041372 0.007083 L-0.082331 0.049931 L-0.127155 0.007083 L-0.132680 0.007083 L-0.140687 0.014633 L-0.147805 0.007083 L-0.255965 0.007083 L-0.255965 -0.004821 L-0.261622 -0.113629 z " fill="rgb(245,195,195)" />
<path d="M-0.255965 -0.719583 L0.744035 -0.719583 L0.744035 0.280417 L-0.255965 0.280417  z" fill="none" stroke="rgb(128,128,128)" stroke-width="0.01" />
<line x1="0.181559" y1="-0.25337" x2="0.191955" y2="-0.229357" style="stroke:rgb(246,147,147);stroke-width:0.01" />
<line x1="0.203187" y1="-0.254082" x2="0.411389" y2="0.0620847" style="stroke:rgb(246,147,147);stroke-width:0.01" />
<line x1="0.236734" y1="-0.250033" x2="0.474171" y2="0.0692789" style="stroke:rgb(246,147,147);stroke-width:0.01" />
<line x1="0.202691" y1="-0.254142" x2="0.203544" y2="-0.249131" style="stroke:rgb(246,147,147);stroke-width:0.01" />
<line x1="0.15099" y1="-0.260382" x2="0.183586" y2="-0.210036" style="stroke:rgb(246,147,147);stroke-width:0.01" />
<line x1="0.172945" y1="-0.226008" x2="0.174774" y2="-0.208445" style="stroke:rgb(246,147,147);stroke-width:0.01" />
<line x1="-0.255965" y1="-0.116046" x2="-0.255965" y2="0.00708327" style="stroke:rgb(246,147,147);stroke-width:0.01" />
<line x1="-0.261622" y1="-0.113629" x2="-0.255965" y2="-0.00482149" style="stroke:rgb(246,147,147);stroke-width:0.01" />
<line x1="0.201831" y1="-0.254246" x2="0.201486" y2="-0.220871" style="stroke:rgb(246,147,147);stroke-width:0.01" />
<line x1="0.164012" y1="-0.25881" x2="0.161493" y2="-0.21842" style="stroke:rgb(246,147,147);stroke-width:0.01" />
<line x1="0.164012" y1="-0.25881" x2="0.0819747" y2="0.197369" style="stroke:rgb(246,147,147);stroke-width:0.01" />
<line x1="0.0969369" y1="-0.266906" x2="0.180902" y2="-0.203841" style="stroke:rgb(246,147,147);stroke-width:0.01" />
<line x1="0.201831" y1="-0.254246" x2="0.0992648" y2="0.184063" style="stroke:rgb(246,147,147);stroke-width:0.01" />
<line x1="0.474171" y1="0.0692789" x2="0.439572" y2="0.261677" style="stroke:rgb(246,147,147);stroke-width:0.01" />
<line x1="0.447973" y1="0.0340462" x2="0.402291" y2="0.254973" style="stroke:rgb(246,147,147);stroke-width:0.01" />
<line x1="0.190904" y1="-0.255565" x2="0.203544" y2="-0.249131" style="stroke:rgb(246,147,147);stroke-width:0.01" />
<line x1="0.202691" y1="-0.254142" x2="0.180902" y2="-0.203841" style="stroke:rgb(246,147,147);stroke-width:0.01" />
<line x1="0.427923" y1="0.00708327" x2="0.411389" y2="0.0620847" style="stroke:rgb(246,147,147);stroke-width:0.01" />
<line x1="0.406281" y1="-0.0220227" x2="0.389525" y2="0.0288822" style="stroke:rgb(246,147,147);stroke-width:0.01" />
<line x1="0.181559" y1="-0.25337" x2="0.163305" y2="-0.217059" style="stroke:rgb(246,147,147);stroke-width:0.01" />
<line x1="-0.261622" y1="-0.113629" x2="-0.140687" y2="0.0146327" style="stroke:rgb(246,147,147);stroke-width:0.01" />
<line x1="-0.255965" y1="-0.116046" x2="-0.0823306" y2="0.0499315" style="stroke:rgb(246,147,147);stroke-width:0.01" />
<line x1="0.172945" y1="-0.226008" x2="0.201486" y2="-0.220871" style="stroke:rgb(246,147,147);stroke-width:0.01" />
<line x1="0.0969369" y1="-0.266906" x2="0.236734" y2="-0.250033" style="stroke:rgb(246,147,147);stroke-width:0.01" />
<line x1="0.15099" y1="-0.260382" x2="-0.140687" y2="0.0146327" style="stroke:rgb(246,147,147);stroke-width:0.01" />
<line x1="0.203544" y1="-0.249131" x2="-0.0823306" y2="0.0499315" style="stroke:rgb(246,147,147);stroke-width:0.01" />
<line x1="0.203187" y1="-0.254082" x2="0.163305" y2="-0.217059" style="stroke:rgb(246,147,147);stroke-width:0.01" />
<line x1="0.0969369" y1="-0.266906" x2="-0.261622" y2="-0.113629" style="stroke:rgb(246,147,147);stroke-width:0.01" />
<line x1="0.236734" y1="-0.250033" x2="0.180902" y2="-0.203841" style="stroke:rgb(246,147,147);stroke-width:0.01" />
<line x1="0.190904" y1="-0.255565" x2="0.181559" y2="-0.25337" style="stroke:rgb(246,147,147);stroke-width:0.01" />
<line x1="0.183586" y1="-0.210036" x2="0.174774" y2="-0.208445" style="stroke:rgb(246,147,147);stroke-width:0.01" />
<line x1="0.191955" y1="-0.229357" x2="0.161493" y2="-0.21842" style="stroke:rgb(246,147,147);stroke-width:0.01" />
<line x1="0.389525" y1="0.0288822" x2="0.447973" y2="0.0340462" style="stroke:rgb(246,147,147);stroke-width:0.01" />
<line x1="0.411389" y1="0.0620847" x2="0.474171" y2="0.0692789" style="stroke:rgb(246,147,147);stroke-width:0.01" />
<line x1="0.406281" y1="-0.0220227" x2="-0.255965" y2="-0.00482149" style="stroke:rgb(246,147,147);stroke-width:0.01" />
<line x1="-0.255965" y1="0.00708327" x2="0.427923" y2="0.00708327" style="stroke:rgb(246,147,147);stroke-width:0.01" />
<line x1="0.0992648" y1="0.184063" x2="0.402291" y2="0.254973" style="stroke:rgb(246,147,147);stroke-width:0.01" />
<line x1="0.0819747" y1="0.197369" x2="0.439572" y2="0.261677" style="stroke:rgb(246,147,147);stroke-width:0.01" />
</g>
</svg>
