<svg xmlns="http://www.w3.org/2000/svg" viewBox="-1.5 -1.5 3 3">
<g transform="scale(1, -1)">
<path d="M-0.245571 -0.279119 L0.200254 -0.084331 L0.209865 -0.087901 L0.238466 -0.119242 L0.260855 -0.106841 L0.283055 -0.115087 L0.314414 -0.077175 L-0.201193 0.544039 L-0.406368 0.501791 L-0.290298 -0.061902 L-0.363478 -0.114231 z " fill="rgb(245,195,195)" />
<path d="M-0.506910 -0.485219 L0.493090 -0.485219 L0.493090 0.514781 L-0.506910 0.514781  z" fill="none" stroke="rgb(128,128,128)" stroke-width="0.01" />
<line x1="0.283055" y1="-0.115087" x2="0.314414" y2="-0.0771751" style="stroke:rgb(246,147,147);stroke-width:0.01" />
<line x1="0.238466" y1="-0.119242" x2="0.288391" y2="-0.0458224" style="stroke:rgb(246,147,147);stroke-width:0.01" />
<line x1="0.192426" y1="-0.0877511" x2="0.241904" y2="0.0101869" style="stroke:rgb(246,147,147);stroke-width:0.01" />
<line x1="0.145809" y1="-0.0177091" x2="0.184085" y2="0.0798479" style="stroke:rgb(246,147,147);stroke-width:0.01" />
<line x1="-0.168965" y1="0.0158415" x2="-0.0646974" y2="0.379586" style="stroke:rgb(246,147,147);stroke-width:0.01" />
<line x1="0.238466" y1="-0.119242" x2="0.314414" y2="-0.0771751" style="stroke:rgb(246,147,147);stroke-width:0.01" />
<line x1="-0.204718" y1="0.366399" x2="-0.191412" y2="0.437401" style="stroke:rgb(246,147,147);stroke-width:0.01" />
<line x1="-0.252463" y1="0.418717" x2="-0.201193" y2="0.544039" style="stroke:rgb(246,147,147);stroke-width:0.01" />
<line x1="-0.245571" y1="-0.279119" x2="-0.406368" y2="0.501791" style="stroke:rgb(246,147,147);stroke-width:0.01" />
<line x1="0.00790541" y1="0.133406" x2="0.0812319" y2="0.203767" style="stroke:rgb(246,147,147);stroke-width:0.01" />
<line x1="-0.245571" y1="-0.279119" x2="0.288391" y2="-0.0458224" style="stroke:rgb(246,147,147);stroke-width:0.01" />
<line x1="0.00790541" y1="0.133406" x2="0.0844827" y2="0.199851" style="stroke:rgb(246,147,147);stroke-width:0.01" />
<line x1="-0.11156" y1="0.0442598" x2="0.0844827" y2="0.199851" style="stroke:rgb(246,147,147);stroke-width:0.01" />
<line x1="-0.363478" y1="-0.114231" x2="0.0812319" y2="0.203767" style="stroke:rgb(246,147,147);stroke-width:0.01" />
<line x1="-0.245571" y1="-0.279119" x2="-0.363478" y2="-0.114231" style="stroke:rgb(246,147,147);stroke-width:0.01" />
<line x1="0.145809" y1="-0.0177091" x2="0.241904" y2="0.0101869" style="stroke:rgb(246,147,147);stroke-width:0.01" />
<line x1="-0.0971894" y1="0.0261534" x2="-0.11156" y2="0.0442598" style="stroke:rgb(246,147,147);stroke-width:0.01" />
<line x1="-0.0971894" y1="0.0261534" x2="0.184085" y2="0.0798479" style="stroke:rgb(246,147,147);stroke-width:0.01" />
<line x1="0.283055" y1="-0.115087" x2="0.113849" y2="0.164469" style="stroke:rgb(246,147,147);stroke-width:0.01" />
<line x1="0.238466" y1="-0.119242" x2="-0.252463" y2="0.418717" style="stroke:rgb(246,147,147);stroke-width:0.01" />
<line x1="0.192426" y1="-0.0877511" x2="-0.168965" y2="0.0158415" style="stroke:rgb(246,147,147);stroke-width:0.01" />
<line x1="0.314414" y1="-0.0771751" x2="-0.201193" y2="0.544039" style="stroke:rgb(246,147,147);stroke-width:0.01" />
<line x1="0.283055" y1="-0.115087" x2="-0.0971894" y2="0.0261534" style="stroke:rgb(246,147,147);stroke-width:0.01" />
<line x1="0.113849" y1="0.164469" x2="-0.191412" y2="0.437401" style="stroke:rgb(246,147,147);stroke-width:0.01" />
<line x1="-0.252463" y1="0.418717" x2="-0.191412" y2="0.437401" style="stroke:rgb(246,147,147);stroke-width:0.01" />
<line x1="-0.204718" y1="0.366399" x2="-0.0646974" y2="0.379586" style="stroke:rgb(246,147,147);stroke-width:0.01" />
<line x1="-0.406368" y1="0.501791" x2="-0.201193" y2="0.544039" style="stroke:rgb(246,147,147);stroke-width:0.01" />
</g>
</svg>
