<svg xmlns="http://www.w3.org/2000/svg" viewBox="-1.5 -1.5 3 3">
<g transform="scale(1, -1)">
<path d="M0.056949 -0.298437 L0.083037 -0.271923 L0.080704 -0.261555 L0.393738 0.224472 L0.392292 0.248543 L-0.049780 0.300584 L-0.104214 0.128507 L-0.164707 0.113882 L-0.159815 0.012062 L-0.174378 0.006474 L-0.174378 -0.093291 L-0.179448 -0.109319 z " fill="rgb(245,195,195)" />
<path d="M-0.174378 -0.329708 L0.825622 -0.329708 L0.825622 0.670292 L-0.174378 0.670292  z" fill="none" stroke="rgb(128,128,128)" stroke-width="0.01" />
<line x1="0.0569493" y1="-0.298437" x2="0.0830369" y2="-0.271923" style="stroke:rgb(246,147,147);stroke-width:0.01" />
<line x1="0.0569493" y1="-0.298437" x2="0.393738" y2="0.224472" style="stroke:rgb(246,147,147);stroke-width:0.01" />
<line x1="-0.174378" y1="-0.113375" x2="-0.174378" y2="0.00647374" style="stroke:rgb(246,147,147);stroke-width:0.01" />
<line x1="-0.152965" y1="-0.130506" x2="-0.164707" y2="0.113882" style="stroke:rgb(246,147,147);stroke-width:0.01" />
<line x1="-0.0142991" y1="-0.191223" x2="-0.0497795" y2="0.300584" style="stroke:rgb(246,147,147);stroke-width:0.01" />
<line x1="-0.0857617" y1="-0.184268" x2="-0.0968917" y2="-0.12069" style="stroke:rgb(246,147,147);stroke-width:0.01" />
<line x1="-0.179448" y1="-0.109319" x2="-0.0497795" y2="0.300584" style="stroke:rgb(246,147,147);stroke-width:0.01" />
<line x1="0.393738" y1="0.224472" x2="0.392292" y2="0.248543" style="stroke:rgb(246,147,147);stroke-width:0.01" />
<line x1="0.0830369" y1="-0.271923" x2="0.0366789" y2="-0.0658873" style="stroke:rgb(246,147,147);stroke-width:0.01" />
<line x1="0.00299338" y1="-0.255272" x2="-0.164707" y2="0.113882" style="stroke:rgb(246,147,147);stroke-width:0.01" />
<line x1="-0.0124883" y1="-0.242887" x2="-0.11293" y2="-0.0705504" style="stroke:rgb(246,147,147);stroke-width:0.01" />
<line x1="0.0830369" y1="-0.271923" x2="0.00299338" y2="-0.255272" style="stroke:rgb(246,147,147);stroke-width:0.01" />
<line x1="0.132839" y1="-0.180608" x2="0.0340269" y2="0.0864431" style="stroke:rgb(246,147,147);stroke-width:0.01" />
<line x1="0.0749187" y1="-0.270537" x2="-0.0124883" y2="-0.242887" style="stroke:rgb(246,147,147);stroke-width:0.01" />
<line x1="-0.0142991" y1="-0.191223" x2="0.132839" y2="-0.180608" style="stroke:rgb(246,147,147);stroke-width:0.01" />
<line x1="0.137387" y1="-0.173546" x2="0.0340269" y2="0.0864431" style="stroke:rgb(246,147,147);stroke-width:0.01" />
<line x1="0.0569493" y1="-0.298437" x2="-0.179448" y2="-0.109319" style="stroke:rgb(246,147,147);stroke-width:0.01" />
<line x1="-0.0857617" y1="-0.184268" x2="0.137387" y2="-0.173546" style="stroke:rgb(246,147,147);stroke-width:0.01" />
<line x1="0.0749187" y1="-0.270537" x2="-0.174378" y2="0.00647374" style="stroke:rgb(246,147,147);stroke-width:0.01" />
<line x1="-0.179448" y1="-0.109319" x2="-0.11293" y2="-0.0705504" style="stroke:rgb(246,147,147);stroke-width:0.01" />
<line x1="-0.152965" y1="-0.130506" x2="-0.0968917" y2="-0.12069" style="stroke:rgb(246,147,147);stroke-width:0.01" />
<line x1="-0.174378" y1="-0.113375" x2="0.0366789" y2="-0.0658873" style="stroke:rgb(246,147,147);stroke-width:0.01" />
<line x1="-0.174378" y1="0.00647374" x2="0.393738" y2="0.224472" style="stroke:rgb(246,147,147);stroke-width:0.01" />
<line x1="-0.164707" y1="0.113882" x2="0.392292" y2="0.248543" style="stroke:rgb(246,147,147);stroke-width:0.01" />
<line x1="0.392292" y1="0.248543" x2="-0.0497795" y2="0.300584" style="stroke:rgb(246,147,147);stroke-width:0.01" />
</g>
</svg>
