<svg xmlns="http://www.w3.org/2000/svg" viewBox="-1.5 -1.5 3 3">
<g transform="scale(1, -1)">
<path d="M0.075000 -0.220833 L0.208333 -0.220833 L0.241667 -0.187500 L0.275000 -0.220833 L0.408333 -0.087500 L0.408333 0.045833 L0.275000 0.179167 L-0.125000 0.179167 L-0.191667 0.112500 L-0.258333 0.112500 L-0.325000 0.179167 L-0.458333 0.179167 L-0.458333 0.112500 L-0.325000 -0.020833 L0.075000 -0.020833 L0.175000 -0.120833 z " fill="rgb(245,195,195)" />
<path d="M-0.458333 -0.420833 L0.541667 -0.420833 L0.541667 0.579167 L-0.458333 0.579167  z" fill="none" stroke="rgb(128,128,128)" stroke-width="0.01" />
<line x1="0.275" y1="-0.220833" x2="0.408333" y2="-0.0875" style="stroke:rgb(246,147,147);stroke-width:0.01" />
<line x1="0.208333" y1="-0.220833" x2="0.341667" y2="-0.0875" style="stroke:rgb(246,147,147);stroke-width:0.01" />
<line x1="0.141667" y1="-0.220833" x2="0.208333" y2="-0.154167" style="stroke:rgb(246,147,147);stroke-width:0.01" />
<line x1="0.341667" y1="-0.0208333" x2="0.408333" y2="0.0458333" style="stroke:rgb(246,147,147);stroke-width:0.01" />
<line x1="0.075" y1="-0.220833" x2="0.208333" y2="-0.0875" style="stroke:rgb(246,147,147);stroke-width:0.01" />
<line x1="0.075" y1="-0.0208333" x2="0.275" y2="0.179167" style="stroke:rgb(246,147,147);stroke-width:0.01" />
<line x1="-0.458333" y1="0.1125" x2="-0.458333" y2="0.179167" style="stroke:rgb(246,147,147);stroke-width:0.01" />
<line x1="-0.325" y1="-0.0208333" x2="-0.325" y2="0.179167" style="stroke:rgb(246,147,147);stroke-width:0.01" />
<line x1="-0.0583333" y1="-0.0208333" x2="-0.0583333" y2="0.179167" style="stroke:rgb(246,147,147);stroke-width:0.01" />
<line x1="0.075" y1="-0.0208333" x2="0.075" y2="0.179167" style="stroke:rgb(246,147,147);stroke-width:0.01" />
<line x1="0.141667" y1="-0.220833" x2="0.141667" y2="-0.154167" style="stroke:rgb(246,147,147);stroke-width:0.01" />
<line x1="0.208333" y1="-0.220833" x2="0.208333" y2="-0.0875" style="stroke:rgb(246,147,147);stroke-width:0.01" />
<line x1="0.341667" y1="-0.154167" x2="0.341667" y2="0.1125" style="stroke:rgb(246,147,147);stroke-width:0.01" />
<line x1="0.408333" y1="-0.0875" x2="0.408333" y2="0.0458333" style="stroke:rgb(246,147,147);stroke-width:0.01" />
<line x1="-0.125" y1="-0.0208333" x2="0.075" y2="0.179167" style="stroke:rgb(246,147,147);stroke-width:0.01" />
<line x1="-0.325" y1="-0.0208333" x2="-0.125" y2="0.179167" style="stroke:rgb(246,147,147);stroke-width:0.01" />
<line x1="0.075" y1="-0.220833" x2="0.208333" y2="-0.220833" style="stroke:rgb(246,147,147);stroke-width:0.01" />
<line x1="0.141667" y1="-0.154167" x2="0.341667" y2="-0.154167" style="stroke:rgb(246,147,147);stroke-width:0.01" />
<line x1="-0.325" y1="-0.0208333" x2="-0.458333" y2="0.1125" style="stroke:rgb(246,147,147);stroke-width:0.01" />
<line x1="0.208333" y1="-0.0875" x2="0.408333" y2="-0.0875" style="stroke:rgb(246,147,147);stroke-width:0.01" />
<line x1="-0.125" y1="-0.0208333" x2="-0.325" y2="0.179167" style="stroke:rgb(246,147,147);stroke-width:0.01" />
<line x1="-0.325" y1="-0.0208333" x2="0.408333" y2="-0.0208333" style="stroke:rgb(246,147,147);stroke-width:0.01" />
<line x1="0.275" y1="-0.220833" x2="-0.125" y2="0.179167" style="stroke:rgb(246,147,147);stroke-width:0.01" />
<line x1="-0.458333" y1="0.1125" x2="0.341667" y2="0.1125" style="stroke:rgb(246,147,147);stroke-width:0.01" />
<line x1="0.375" y1="-0.120833" x2="0.075" y2="0.179167" style="stroke:rgb(246,147,147);stroke-width:0.01" />
<line x1="-0.458333" y1="0.179167" x2="-0.325" y2="0.179167" style="stroke:rgb(246,147,147);stroke-width:0.01" />
<line x1="-0.125" y1="0.179167" x2="0.275" y2="0.179167" style="stroke:rgb(246,147,147);stroke-width:0.01" />
<line x1="0.408333" y1="0.0458333" x2="0.275" y2="0.179167" style="stroke:rgb(246,147,147);stroke-width:0.01" />
</g>
</svg>
