<svg xmlns="http://www.w3.org/2000/svg" viewBox="-1.5 -1.5 3 3">
<path d="M0.591949 -0.239494 L0.765809 0.022324 L0.516459 0.187904 L0.515946 0.190806 L-0.496034 0.171000 L-0.508512 0.079609 L-0.479185 0.075605 L-0.465011 -0.004645 L-0.311155 -0.051077 L-0.146293 -0.085472 L-0.051747 -0.216426 L0.067774 -0.130134 z " fill="rgb(245,195,195)" />
<path d="M-0.454589 -0.707989 L0.545411 -0.707989 L0.545411 0.292011 L-0.454589 0.292011  z" fill="none" stroke="rgb(128,128,128)" stroke-width="0.01" />
<line x1="0.591949" y1="-0.239494" x2="0.765809" y2="0.0223236" style="stroke:rgb(246,147,147);stroke-width:0.01" />
<line x1="0.482297" y1="-0.0556617" x2="0.515946" y2="0.190806" style="stroke:rgb(246,147,147);stroke-width:0.01" />
<line x1="-0.454589" y1="-0.00779043" x2="-0.454589" y2="0.00629688" style="stroke:rgb(246,147,147);stroke-width:0.01" />
<line x1="-0.465011" y1="-0.00464544" x2="-0.496034" y2="0.171" style="stroke:rgb(246,147,147);stroke-width:0.01" />
<line x1="-0.508512" y1="0.0796089" x2="-0.496034" y2="0.171" style="stroke:rgb(246,147,147);stroke-width:0.01" />
<line x1="-0.0517473" y1="-0.216426" x2="0.5122" y2="0.190733" style="stroke:rgb(246,147,147);stroke-width:0.01" />
<line x1="0.591949" y1="-0.239494" x2="0.515946" y2="0.190806" style="stroke:rgb(246,147,147);stroke-width:0.01" />
<line x1="-0.454589" y1="-0.00779043" x2="-0.333754" y2="0.174176" style="stroke:rgb(246,147,147);stroke-width:0.01" />
<line x1="-0.465011" y1="-0.00464544" x2="-0.454589" y2="0.00629688" style="stroke:rgb(246,147,147);stroke-width:0.01" />
<line x1="-0.0517473" y1="-0.216426" x2="-0.333754" y2="0.174176" style="stroke:rgb(246,147,147);stroke-width:0.01" />
<line x1="-0.311155" y1="-0.0510769" x2="-0.454589" y2="0.00629688" style="stroke:rgb(246,147,147);stroke-width:0.01" />
<line x1="-0.311155" y1="-0.0510769" x2="-0.465011" y2="-0.00464544" style="stroke:rgb(246,147,147);stroke-width:0.01" />
<line x1="0.591949" y1="-0.239494" x2="-0.311155" y2="-0.0510769" style="stroke:rgb(246,147,147);stroke-width:0.01" />
<line x1="0.482297" y1="-0.0556617" x2="-0.508512" y2="0.0796089" style="stroke:rgb(246,147,147);stroke-width:0.01" />
<line x1="-0.496034" y1="0.171" x2="0.515946" y2="0.190806" style="stroke:rgb(246,147,147);stroke-width:0.01" />
<line x1="0.765809" y1="0.0223236" x2="0.5122" y2="0.190733" style="stroke:rgb(246,147,147);stroke-width:0.01" />
</svg>
