<svg xmlns="http://www.w3.org/2000/svg" viewBox="-1.5 -1.5 3 3">
<g transform="scale(1, -1)">
<path d="M0.364583 0.000000 L0.635417 0.000000 L0.697917 0.125000 L0.578125 0.284722 L0.583333 0.291667 L0.559524 0.309524 L0.516667 0.366667 L0.500000 0.354167 L0.483333 0.366667 L0.440476 0.309524 L0.416667 0.291667 L0.421875 0.284722 L0.302083 0.125000 z M0.458333 0.125000 L0.500000 0.180556 L0.541667 0.125000 z " fill="rgb(245,195,195)" />
<path d="M0.000000 0.000000 L1.000000 0.000000 L1.000000 1.000000 L0.000000 1.000000  z" fill="none" stroke="rgb(128,128,128)" stroke-width="0.01" />
<line x1="0.635417" y1="0" x2="0.697917" y2="0.125" style="stroke:rgb(246,147,147);stroke-width:0.01" />
<line x1="0.364583" y1="0" x2="0.583333" y2="0.291667" style="stroke:rgb(246,147,147);stroke-width:0.01" />
<line x1="0.302083" y1="0.125" x2="0.483333" y2="0.366667" style="stroke:rgb(246,147,147);stroke-width:0.01" />
<line x1="0.416667" y1="0.291667" x2="0.516667" y2="0.366667" style="stroke:rgb(246,147,147);stroke-width:0.01" />
<line x1="0.364583" y1="0" x2="0.635417" y2="0" style="stroke:rgb(246,147,147);stroke-width:0.01" />
<line x1="0.302083" y1="0.125" x2="0.697917" y2="0.125" style="stroke:rgb(246,147,147);stroke-width:0.01" />
<line x1="0.364583" y1="0" x2="0.302083" y2="0.125" style="stroke:rgb(246,147,147);stroke-width:0.01" />
<line x1="0.635417" y1="0" x2="0.416667" y2="0.291667" style="stroke:rgb(246,147,147);stroke-width:0.01" />
<line x1="0.697917" y1="0.125" x2="0.516667" y2="0.366667" style="stroke:rgb(246,147,147);stroke-width:0.01" />
<line x1="0.583333" y1="0.291667" x2="0.483333" y2="0.366667" style="stroke:rgb(246,147,147);stroke-width:0.01" />
</g>
</svg>
