<svg xmlns="http://www.w3.org/2000/svg" viewBox="-1.5 -1.5 3 3">
<g transform="scale(1, -1)">
<path d="M-0.033333 -0.366667 L0.233333 -0.366667 L0.300000 -0.300000 L0.366667 -0.300000 L0.366667 -0.233333 L0.166667 -0.233333 L0.166667 -0.100000 L0.100000 -0.033333 L0.100000 0.166667 L-0.100000 0.166667 L-0.166667 0.233333 L-0.233333 0.233333 L-0.233333 0.366667 L-0.300000 0.433333 L-0.366667 0.366667 L-0.366667 -0.033333 z " fill="rgb(245,195,195)" />
<path d="M-0.633333 -0.566667 L0.366667 -0.566667 L0.366667 0.433333 L-0.633333 0.433333  z" fill="none" stroke="rgb(128,128,128)" stroke-width="0.01" />
<line x1="0.233333" y1="-0.366667" x2="0.366667" y2="-0.233333" style="stroke:rgb(246,147,147);stroke-width:0.01" />
<line x1="-0.0333333" y1="-0.366667" x2="0.1" y2="-0.233333" style="stroke:rgb(246,147,147);stroke-width:0.01" />
<line x1="-0.366667" y1="-0.0333333" x2="-0.366667" y2="0.366667" style="stroke:rgb(246,147,147);stroke-width:0.01" />
<line x1="-0.3" y1="0.0333333" x2="-0.3" y2="0.433333" style="stroke:rgb(246,147,147);stroke-width:0.01" />
<line x1="-0.233333" y1="0.233333" x2="-0.233333" y2="0.366667" style="stroke:rgb(246,147,147);stroke-width:0.01" />
<line x1="-0.166667" y1="-0.1" x2="-0.166667" y2="0.233333" style="stroke:rgb(246,147,147);stroke-width:0.01" />
<line x1="0.1" y1="-0.366667" x2="0.1" y2="0.166667" style="stroke:rgb(246,147,147);stroke-width:0.01" />
<line x1="0.166667" y1="-0.366667" x2="0.166667" y2="-0.1" style="stroke:rgb(246,147,147);stroke-width:0.01" />
<line x1="0.366667" y1="-0.3" x2="0.366667" y2="-0.233333" style="stroke:rgb(246,147,147);stroke-width:0.01" />
<line x1="-0.366667" y1="-0.0333333" x2="-0.3" y2="0.0333333" style="stroke:rgb(246,147,147);stroke-width:0.01" />
<line x1="-0.366667" y1="0.1" x2="-0.233333" y2="0.233333" style="stroke:rgb(246,147,147);stroke-width:0.01" />
<line x1="-0.0333333" y1="-0.366667" x2="0.233333" y2="-0.366667" style="stroke:rgb(246,147,147);stroke-width:0.01" />
<line x1="-0.366667" y1="0.233333" x2="-0.3" y2="0.3" style="stroke:rgb(246,147,147);stroke-width:0.01" />
<line x1="0.166667" y1="-0.3" x2="0.366667" y2="-0.3" style="stroke:rgb(246,147,147);stroke-width:0.01" />
<line x1="-0.366667" y1="0.366667" x2="-0.3" y2="0.433333" style="stroke:rgb(246,147,147);stroke-width:0.01" />
<line x1="0.1" y1="-0.233333" x2="0.366667" y2="-0.233333" style="stroke:rgb(246,147,147);stroke-width:0.01" />
<line x1="-0.0333333" y1="-0.366667" x2="-0.366667" y2="-0.0333333" style="stroke:rgb(246,147,147);stroke-width:0.01" />
<line x1="-0.166667" y1="-0.1" x2="0.166667" y2="-0.1" style="stroke:rgb(246,147,147);stroke-width:0.01" />
<line x1="-0.3" y1="0.0333333" x2="-0.366667" y2="0.1" style="stroke:rgb(246,147,147);stroke-width:0.01" />
<line x1="0.233333" y1="-0.366667" x2="-0.366667" y2="0.233333" style="stroke:rgb(246,147,147);stroke-width:0.01" />
<line x1="-0.3" y1="0.3" x2="-0.366667" y2="0.366667" style="stroke:rgb(246,147,147);stroke-width:0.01" />
<line x1="0.166667" y1="-0.1" x2="-0.166667" y2="0.233333" style="stroke:rgb(246,147,147);stroke-width:0.01" />
<line x1="-0.233333" y1="0.366667" x2="-0.3" y2="0.433333" style="stroke:rgb(246,147,147);stroke-width:0.01" />
<line x1="-0.366667" y1="0.166667" x2="0.1" y2="0.166667" style="stroke:rgb(246,147,147);stroke-width:0.01" />
<line x1="-0.366667" y1="0.233333" x2="-0.166667" y2="0.233333" style="stroke:rgb(246,147,147);stroke-width:0.01" />
<line x1="-0.3" y1="0.366667" x2="-0.233333" y2="0.366667" style="stroke:rgb(246,147,147);stroke-width:0.01" />
</g>
</svg>
