<svg xmlns="http://www.w3.org/2000/svg" viewBox="-1.5 -1.5 3 3">
<g transform="scale(1, -1)">
<path d="M0.600000 0.200000 L0.866667 0.200000 L0.933333 0.266667 L1.000000 0.266667 L1.000000 0.333333 L0.800000 0.333333 L0.800000 0.466667 L0.733333 0.533333 L0.733333 0.733333 L0.533333 0.733333 L0.466667 0.800000 L0.400000 0.800000 L0.400000 0.933333 L0.333333 1.000000 L0.266667 0.933333 L0.266667 0.533333 z " fill="rgb(245,195,195)" />
<path d="M0.000000 0.000000 L1.000000 0.000000 L1.000000 1.000000 L0.000000 1.000000  z" fill="none" stroke="rgb(128,128,128)" stroke-width="0.01" />
<line x1="0.866667" y1="0.2" x2="1" y2="0.333333" style="stroke:rgb(246,147,147);stroke-width:0.01" />
<line x1="0.6" y1="0.2" x2="0.733333" y2="0.333333" style="stroke:rgb(246,147,147);stroke-width:0.01" />
<line x1="0.266667" y1="0.533333" x2="0.266667" y2="0.933333" style="stroke:rgb(246,147,147);stroke-width:0.01" />
<line x1="0.333333" y1="0.6" x2="0.333333" y2="1" style="stroke:rgb(246,147,147);stroke-width:0.01" />
<line x1="0.4" y1="0.8" x2="0.4" y2="0.933333" style="stroke:rgb(246,147,147);stroke-width:0.01" />
<line x1="0.466667" y1="0.466667" x2="0.466667" y2="0.8" style="stroke:rgb(246,147,147);stroke-width:0.01" />
<line x1="0.733333" y1="0.2" x2="0.733333" y2="0.733333" style="stroke:rgb(246,147,147);stroke-width:0.01" />
<line x1="0.8" y1="0.2" x2="0.8" y2="0.466667" style="stroke:rgb(246,147,147);stroke-width:0.01" />
<line x1="1" y1="0.266667" x2="1" y2="0.333333" style="stroke:rgb(246,147,147);stroke-width:0.01" />
<line x1="0.266667" y1="0.533333" x2="0.333333" y2="0.6" style="stroke:rgb(246,147,147);stroke-width:0.01" />
<line x1="0.266667" y1="0.666667" x2="0.4" y2="0.8" style="stroke:rgb(246,147,147);stroke-width:0.01" />
<line x1="0.6" y1="0.2" x2="0.866667" y2="0.2" style="stroke:rgb(246,147,147);stroke-width:0.01" />
<line x1="0.266667" y1="0.8" x2="0.333333" y2="0.866667" style="stroke:rgb(246,147,147);stroke-width:0.01" />
<line x1="0.8" y1="0.266667" x2="1" y2="0.266667" style="stroke:rgb(246,147,147);stroke-width:0.01" />
<line x1="0.266667" y1="0.933333" x2="0.333333" y2="1" style="stroke:rgb(246,147,147);stroke-width:0.01" />
<line x1="0.733333" y1="0.333333" x2="1" y2="0.333333" style="stroke:rgb(246,147,147);stroke-width:0.01" />
<line x1="0.6" y1="0.2" x2="0.266667" y2="0.533333" style="stroke:rgb(246,147,147);stroke-width:0.01" />
<line x1="0.466667" y1="0.466667" x2="0.8" y2="0.466667" style="stroke:rgb(246,147,147);stroke-width:0.01" />
<line x1="0.333333" y1="0.6" x2="0.266667" y2="0.666667" style="stroke:rgb(246,147,147);stroke-width:0.01" />
<line x1="0.866667" y1="0.2" x2="0.266667" y2="0.8" style="stroke:rgb(246,147,147);stroke-width:0.01" />
<line x1="0.333333" y1="0.866667" x2="0.266667" y2="0.933333" style="stroke:rgb(246,147,147);stroke-width:0.01" />
<line x1="0.8" y1="0.466667" x2="0.466667" y2="0.8" style="stroke:rgb(246,147,147);stroke-width:0.01" />
<line x1="0.4" y1="0.933333" x2="0.333333" y2="1" style="stroke:rgb(246,147,147);stroke-width:0.01" />
<line x1="0.266667" y1="0.733333" x2="0.733333" y2="0.733333" style="stroke:rgb(246,147,147);stroke-width:0.01" />
<line x1="0.266667" y1="0.8" x2="0.466667" y2="0.8" style="stroke:rgb(246,147,147);stroke-width:0.01" />
<line x1="0.333333" y1="0.933333" x2="0.4" y2="0.933333" style="stroke:rgb(246,147,147);stroke-width:0.01" />
</g>
</svg>
