<svg xmlns="http://www.w3.org/2000/svg" viewBox="-1.5 -1.5 3 3">
<g transform="scale(1, -1)">
<path d="M0.248388 0.029455 L0.500000 0.191027 L0.751612 0.029455 L0.886696 0.239817 L0.527060 0.470757 L0.518479 0.500000 L0.481521 0.500000 L0.472940 0.470757 L0.113304 0.239817 z " fill="rgb(245,195,195)" />
<path d="M0.000000 0.000000 L1.000000 0.000000 L1.000000 1.000000 L0.000000 1.000000  z" fill="none" stroke="rgb(128,128,128)" stroke-width="0.01" />
<line x1="0.751612" y1="0.0294548" x2="0.886696" y2="0.239817" style="stroke:rgb(246,147,147);stroke-width:0.01" />
<line x1="0.248388" y1="0.0294548" x2="0.591837" y2="0.25" style="stroke:rgb(246,147,147);stroke-width:0.01" />
<line x1="0.408163" y1="0.25" x2="0.481521" y2="0.5" style="stroke:rgb(246,147,147);stroke-width:0.01" />
<line x1="0.113304" y1="0.239817" x2="0.518479" y2="0.5" style="stroke:rgb(246,147,147);stroke-width:0.01" />
<line x1="0.248388" y1="0.0294548" x2="0.113304" y2="0.239817" style="stroke:rgb(246,147,147);stroke-width:0.01" />
<line x1="0.591837" y1="0.25" x2="0.518479" y2="0.5" style="stroke:rgb(246,147,147);stroke-width:0.01" />
<line x1="0.408163" y1="0.25" x2="0.591837" y2="0.25" style="stroke:rgb(246,147,147);stroke-width:0.01" />
<line x1="0.751612" y1="0.0294548" x2="0.408163" y2="0.25" style="stroke:rgb(246,147,147);stroke-width:0.01" />
<line x1="0.481521" y1="0.5" x2="0.518479" y2="0.5" style="stroke:rgb(246,147,147);stroke-width:0.01" />
<line x1="0.886696" y1="0.239817" x2="0.481521" y2="0.5" style="stroke:rgb(246,147,147);stroke-width:0.01" />
</g>
</svg>
