<svg xmlns="http://www.w3.org/2000/svg" viewBox="-1.5 -1.5 3 3">
<g transform="scale(1, -1)">
<path d="M0.081250 -0.310417 L0.147917 -0.310417 L0.147917 -0.243750 L0.214583 -0.177083 L0.214583 0.022917 L0.147917 0.022917 L0.147917 0.089583 L0.014583 0.222917 L-0.118750 0.222917 L-0.118750 0.289583 L-0.252083 0.289583 L-0.352083 0.189583 L-0.118750 -0.043750 L-0.052083 -0.043750 L-0.018750 -0.077083 L-0.085417 -0.143750 z " fill="rgb(245,195,195)" />
<path d="M-0.718750 -0.777083 L0.281250 -0.777083 L0.281250 0.222917 L-0.718750 0.222917  z" fill="none" stroke="rgb(128,128,128)" stroke-width="0.01" />
<line x1="0.08125" y1="-0.310417" x2="0.214583" y2="-0.177083" style="stroke:rgb(246,147,147);stroke-width:0.01" />
<line x1="-0.01875" y1="-0.210417" x2="0.147917" y2="-0.04375" style="stroke:rgb(246,147,147);stroke-width:0.01" />
<line x1="-0.0854167" y1="-0.14375" x2="0.147917" y2="0.0895833" style="stroke:rgb(246,147,147);stroke-width:0.01" />
<line x1="-0.252083" y1="0.0895833" x2="-0.252083" y2="0.289583" style="stroke:rgb(246,147,147);stroke-width:0.01" />
<line x1="-0.11875" y1="-0.04375" x2="-0.11875" y2="0.289583" style="stroke:rgb(246,147,147);stroke-width:0.01" />
<line x1="0.0145833" y1="-0.24375" x2="0.0145833" y2="0.222917" style="stroke:rgb(246,147,147);stroke-width:0.01" />
<line x1="0.08125" y1="-0.310417" x2="0.08125" y2="0.15625" style="stroke:rgb(246,147,147);stroke-width:0.01" />
<line x1="0.147917" y1="-0.310417" x2="0.147917" y2="0.0895833" style="stroke:rgb(246,147,147);stroke-width:0.01" />
<line x1="0.214583" y1="-0.177083" x2="0.214583" y2="0.0229167" style="stroke:rgb(246,147,147);stroke-width:0.01" />
<line x1="-0.252083" y1="0.0895833" x2="-0.11875" y2="0.222917" style="stroke:rgb(246,147,147);stroke-width:0.01" />
<line x1="-0.352083" y1="0.189583" x2="-0.252083" y2="0.289583" style="stroke:rgb(246,147,147);stroke-width:0.01" />
<line x1="0.08125" y1="-0.310417" x2="0.147917" y2="-0.310417" style="stroke:rgb(246,147,147);stroke-width:0.01" />
<line x1="0.0145833" y1="-0.24375" x2="0.08125" y2="-0.24375" style="stroke:rgb(246,147,147);stroke-width:0.01" />
<line x1="0.08125" y1="-0.310417" x2="-0.0854167" y2="-0.14375" style="stroke:rgb(246,147,147);stroke-width:0.01" />
<line x1="0.08125" y1="-0.110417" x2="0.214583" y2="-0.110417" style="stroke:rgb(246,147,147);stroke-width:0.01" />
<line x1="-0.11875" y1="-0.04375" x2="-0.352083" y2="0.189583" style="stroke:rgb(246,147,147);stroke-width:0.01" />
<line x1="0.147917" y1="-0.24375" x2="-0.31875" y2="0.222917" style="stroke:rgb(246,147,147);stroke-width:0.01" />
<line x1="-0.11875" y1="-0.04375" x2="0.147917" y2="-0.04375" style="stroke:rgb(246,147,147);stroke-width:0.01" />
<line x1="0.214583" y1="-0.177083" x2="0.147917" y2="-0.110417" style="stroke:rgb(246,147,147);stroke-width:0.01" />
<line x1="0.08125" y1="0.0229167" x2="0.214583" y2="0.0229167" style="stroke:rgb(246,147,147);stroke-width:0.01" />
<line x1="0.147917" y1="-0.04375" x2="-0.11875" y2="0.222917" style="stroke:rgb(246,147,147);stroke-width:0.01" />
<line x1="0.147917" y1="0.0895833" x2="0.0145833" y2="0.222917" style="stroke:rgb(246,147,147);stroke-width:0.01" />
<line x1="-0.252083" y1="0.15625" x2="0.08125" y2="0.15625" style="stroke:rgb(246,147,147);stroke-width:0.01" />
<line x1="-0.31875" y1="0.222917" x2="0.0145833" y2="0.222917" style="stroke:rgb(246,147,147);stroke-width:0.01" />
<line x1="-0.252083" y1="0.289583" x2="-0.11875" y2="0.289583" style="stroke:rgb(246,147,147);stroke-width:0.01" />
</g>
</svg>
