<svg xmlns="http://www.w3.org/2000/svg" viewBox="-1.5 -1.5 3 3">
<g transform="scale(1, -1)">
<path d="M0.035556 -0.328889 L0.235556 -0.328889 L0.302222 -0.262222 L0.302222 0.071111 L0.035556 0.337778 L-0.164444 0.337778 L-0.164444 0.404444 L-0.231111 0.404444 L-0.231111 0.271111 L0.035556 0.004444 L0.035556 -0.128889 L-0.097778 -0.128889 L-0.097778 -0.195556 L-0.031111 -0.195556 L0.035556 -0.262222 z " fill="rgb(245,195,195)" />
<path d="M-0.297778 -0.595556 L0.702222 -0.595556 L0.702222 0.404444 L-0.297778 0.404444  z" fill="none" stroke="rgb(128,128,128)" stroke-width="0.01" />
<line x1="0.235556" y1="-0.328889" x2="0.302222" y2="-0.262222" style="stroke:rgb(246,147,147);stroke-width:0.01" />
<line x1="0.102222" y1="-0.328889" x2="0.302222" y2="-0.128889" style="stroke:rgb(246,147,147);stroke-width:0.01" />
<line x1="-0.231111" y1="0.271111" x2="-0.231111" y2="0.404444" style="stroke:rgb(246,147,147);stroke-width:0.01" />
<line x1="-0.164444" y1="0.337778" x2="-0.164444" y2="0.404444" style="stroke:rgb(246,147,147);stroke-width:0.01" />
<line x1="-0.0977778" y1="-0.195556" x2="-0.0977778" y2="-0.128889" style="stroke:rgb(246,147,147);stroke-width:0.01" />
<line x1="0.0355556" y1="-0.328889" x2="0.0355556" y2="0.337778" style="stroke:rgb(246,147,147);stroke-width:0.01" />
<line x1="0.102222" y1="-0.328889" x2="0.102222" y2="0.271111" style="stroke:rgb(246,147,147);stroke-width:0.01" />
<line x1="0.302222" y1="-0.262222" x2="0.302222" y2="0.0711111" style="stroke:rgb(246,147,147);stroke-width:0.01" />
<line x1="0.0355556" y1="-0.328889" x2="0.235556" y2="-0.328889" style="stroke:rgb(246,147,147);stroke-width:0.01" />
<line x1="0.102222" y1="-0.328889" x2="-0.0977778" y2="-0.128889" style="stroke:rgb(246,147,147);stroke-width:0.01" />
<line x1="-0.231111" y1="0.271111" x2="-0.164444" y2="0.337778" style="stroke:rgb(246,147,147);stroke-width:0.01" />
<line x1="-0.0977778" y1="-0.195556" x2="0.102222" y2="-0.195556" style="stroke:rgb(246,147,147);stroke-width:0.01" />
<line x1="0.235556" y1="-0.328889" x2="0.0355556" y2="-0.128889" style="stroke:rgb(246,147,147);stroke-width:0.01" />
<line x1="-0.0977778" y1="-0.128889" x2="0.0355556" y2="-0.128889" style="stroke:rgb(246,147,147);stroke-width:0.01" />
<line x1="0.302222" y1="-0.262222" x2="-0.231111" y2="0.271111" style="stroke:rgb(246,147,147);stroke-width:0.01" />
<line x1="0.302222" y1="-0.128889" x2="-0.231111" y2="0.404444" style="stroke:rgb(246,147,147);stroke-width:0.01" />
<line x1="0.302222" y1="0.0711111" x2="0.0355556" y2="0.337778" style="stroke:rgb(246,147,147);stroke-width:0.01" />
<line x1="0.0355556" y1="0.0711111" x2="0.302222" y2="0.0711111" style="stroke:rgb(246,147,147);stroke-width:0.01" />
<line x1="-0.231111" y1="0.271111" x2="0.102222" y2="0.271111" style="stroke:rgb(246,147,147);stroke-width:0.01" />
<line x1="-0.231111" y1="0.337778" x2="0.0355556" y2="0.337778" style="stroke:rgb(246,147,147);stroke-width:0.01" />
<line x1="-0.231111" y1="0.404444" x2="-0.164444" y2="0.404444" style="stroke:rgb(246,147,147);stroke-width:0.01" />
</g>
</svg>
