<svg xmlns="http://www.w3.org/2000/svg" viewBox="-1.5 -1.5 3 3">
<g transform="scale(1, -1)">
<path d="M-0.300907 -0.297180 L-0.200443 -0.171241 L0.035042 -0.087132 L0.139772 -0.123039 L0.168416 -0.039494 L0.468912 0.067836 L0.334366 0.444528 L-0.266272 0.440698 L-0.378884 -0.234976 z " fill="rgb(245,195,195)" />
<path d="M-0.833201 0.039123 L0.166799 0.039123 L0.166799 1.039123 L-0.833201 1.039123  z" fill="none" stroke="rgb(128,128,128)" stroke-width="0.01" />
<line x1="-0.300907" y1="-0.29718" x2="0.166799" y2="0.289123" style="stroke:rgb(246,147,147);stroke-width:0.01" />
<line x1="-0.378884" y1="-0.234976" x2="0.468912" y2="0.0678355" style="stroke:rgb(246,147,147);stroke-width:0.01" />
<line x1="0.139772" y1="-0.123039" x2="0.334366" y2="0.444528" style="stroke:rgb(246,147,147);stroke-width:0.01" />
<line x1="-0.378884" y1="-0.234976" x2="-0.266272" y2="0.440698" style="stroke:rgb(246,147,147);stroke-width:0.01" />
<line x1="-0.333201" y1="0.0391231" x2="0.166799" y2="0.0391231" style="stroke:rgb(246,147,147);stroke-width:0.01" />
<line x1="0.166799" y1="0.0391231" x2="0.166799" y2="0.289123" style="stroke:rgb(246,147,147);stroke-width:0.01" />
<line x1="-0.300907" y1="-0.29718" x2="-0.378884" y2="-0.234976" style="stroke:rgb(246,147,147);stroke-width:0.01" />
<line x1="0.139772" y1="-0.123039" x2="-0.333201" y2="0.0391231" style="stroke:rgb(246,147,147);stroke-width:0.01" />
<line x1="-0.266272" y1="0.440698" x2="0.334366" y2="0.444528" style="stroke:rgb(246,147,147);stroke-width:0.01" />
<line x1="0.468912" y1="0.0678355" x2="0.334366" y2="0.444528" style="stroke:rgb(246,147,147);stroke-width:0.01" />
<line x1="0.166799" y1="0.289123" x2="-0.266272" y2="0.440698" style="stroke:rgb(246,147,147);stroke-width:0.01" />
</g>
</svg>
