<svg xmlns="http://www.w3.org/2000/svg" viewBox="-1.5 -1.5 3 3">
<g transform="scale(1, -1)">
<path d="M0.532294 -0.336303 L0.632758 -0.210364 L0.868243 -0.126255 L0.972973 -0.162162 L1.001617 -0.078617 L1.302113 0.028712 L1.167568 0.405405 L0.566929 0.401575 L0.454317 -0.274099 z " fill="rgb(245,195,195)" />
<path d="M0.000000 0.000000 L1.000000 0.000000 L1.000000 1.000000 L0.000000 1.000000  z" fill="none" stroke="rgb(128,128,128)" stroke-width="0.01" />
<line x1="0.532294" y1="-0.336303" x2="1" y2="0.25" style="stroke:rgb(246,147,147);stroke-width:0.01" />
<line x1="0.454317" y1="-0.274099" x2="1.30211" y2="0.0287125" style="stroke:rgb(246,147,147);stroke-width:0.01" />
<line x1="0.972973" y1="-0.162162" x2="1.16757" y2="0.405405" style="stroke:rgb(246,147,147);stroke-width:0.01" />
<line x1="0.454317" y1="-0.274099" x2="0.566929" y2="0.401575" style="stroke:rgb(246,147,147);stroke-width:0.01" />
<line x1="0.5" y1="0" x2="1" y2="0" style="stroke:rgb(246,147,147);stroke-width:0.01" />
<line x1="1" y1="0" x2="1" y2="0.25" style="stroke:rgb(246,147,147);stroke-width:0.01" />
<line x1="0.532294" y1="-0.336303" x2="0.454317" y2="-0.274099" style="stroke:rgb(246,147,147);stroke-width:0.01" />
<line x1="0.972973" y1="-0.162162" x2="0.5" y2="0" style="stroke:rgb(246,147,147);stroke-width:0.01" />
<line x1="0.566929" y1="0.401575" x2="1.16757" y2="0.405405" style="stroke:rgb(246,147,147);stroke-width:0.01" />
<line x1="1.30211" y1="0.0287125" x2="1.16757" y2="0.405405" style="stroke:rgb(246,147,147);stroke-width:0.01" />
<line x1="1" y1="0.25" x2="0.566929" y2="0.401575" style="stroke:rgb(246,147,147);stroke-width:0.01" />
</g>
</svg>
