<svg xmlns="http://www.w3.org/2000/svg" viewBox="-1.5 -1.5 3 3">
<g transform="scale(1, -1)">
<path d="M-0.500000 -0.500000 L-0.166667 -0.500000 L0.500000 -0.166667 L0.500000 0.500000 L0.166667 0.500000 L-0.500000 0.166667 z " fill="rgb(245,195,195)" />
<path d="M-999999999999957120.000000 -1000000000000030464.000000 L-999999999999957120.000000 -1000000000000030464.000000 L-999999999999957120.000000 -1000000000000030464.000000 L-999999999999957120.000000 -1000000000000030464.000000  z" fill="none" stroke="rgb(128,128,128)" stroke-width="0.01" />
<line x1="-0.166667" y1="-0.5" x2="0.233333" y2="0.0333333" style="stroke:rgb(246,147,147);stroke-width:0.01" />
<line x1="-0.233333" y1="-0.0333333" x2="0.166667" y2="0.5" style="stroke:rgb(246,147,147);stroke-width:0.01" />
<line x1="-0.5" y1="-0.5" x2="-0.5" y2="0.166667" style="stroke:rgb(246,147,147);stroke-width:0.01" />
<line x1="0.5" y1="-0.166667" x2="0.5" y2="0.5" style="stroke:rgb(246,147,147);stroke-width:0.01" />
<line x1="-0.166667" y1="-0.5" x2="0.5" y2="-0.166667" style="stroke:rgb(246,147,147);stroke-width:0.01" />
<line x1="-0.5" y1="0.166667" x2="0.166667" y2="0.5" style="stroke:rgb(246,147,147);stroke-width:0.01" />
<line x1="-0.5" y1="-0.5" x2="-0.166667" y2="-0.5" style="stroke:rgb(246,147,147);stroke-width:0.01" />
<line x1="0.166667" y1="0.5" x2="0.5" y2="0.5" style="stroke:rgb(246,147,147);stroke-width:0.01" />
<line x1="-0.233333" y1="-0.0333333" x2="-0.5" y2="0.166667" style="stroke:rgb(246,147,147);stroke-width:0.01" />
<line x1="0.5" y1="-0.166667" x2="0.233333" y2="0.0333333" style="stroke:rgb(246,147,147);stroke-width:0.01" />
</g>
</svg>
