<svg xmlns="http://www.w3.org/2000/svg" viewBox="-1.5 -1.5 3 3">
<g transform="scale(1, -1)">
<path d="M-0.144582 -0.313102 L-0.131115 -0.275368 L-0.062942 -0.262719 L0.104355 -0.103765 L-0.018646 0.025690 L-0.023955 0.024880 L0.034560 0.188831 L0.110740 0.188831 L0.347711 0.089526 L0.365946 0.132730 L0.093199 0.353131 L-0.130916 0.290098 L-0.359539 -0.026357 L-0.184816 -0.312405 z " fill="rgb(245,195,195)" />
<path d="M-0.490979 0.188831 L0.509021 0.188831 L0.509021 1.188831 L-0.490979 1.188831  z" fill="none" stroke="rgb(128,128,128)" stroke-width="0.01" />
<line x1="-0.199669" y1="-0.288088" x2="-0.0629417" y2="-0.262719" style="stroke:rgb(246,147,147);stroke-width:0.01" />
<line x1="-0.144582" y1="-0.313102" x2="-0.184816" y2="-0.312405" style="stroke:rgb(246,147,147);stroke-width:0.01" />
<line x1="-0.138714" y1="-0.29666" x2="-0.167707" y2="-0.294844" style="stroke:rgb(246,147,147);stroke-width:0.01" />
<line x1="-0.0629417" y1="-0.262719" x2="0.104355" y2="-0.103765" style="stroke:rgb(246,147,147);stroke-width:0.01" />
<line x1="0.362346" y1="0.130209" x2="0.365946" y2="0.13273" style="stroke:rgb(246,147,147);stroke-width:0.01" />
<line x1="0.314889" y1="0.10328" x2="0.363892" y2="0.134389" style="stroke:rgb(246,147,147);stroke-width:0.01" />
<line x1="-0.199669" y1="-0.288088" x2="-0.0806461" y2="-0.133961" style="stroke:rgb(246,147,147);stroke-width:0.01" />
<line x1="0.347711" y1="0.0895261" x2="0.365946" y2="0.13273" style="stroke:rgb(246,147,147);stroke-width:0.01" />
<line x1="0.347711" y1="0.0895261" x2="0.352018" y2="0.0998778" style="stroke:rgb(246,147,147);stroke-width:0.01" />
<line x1="0.362346" y1="0.130209" x2="0.363892" y2="0.134389" style="stroke:rgb(246,147,147);stroke-width:0.01" />
<line x1="-0.354521" y1="-0.0345723" x2="-0.2686" y2="-0.0212293" style="stroke:rgb(246,147,147);stroke-width:0.01" />
<line x1="-0.0629417" y1="-0.262719" x2="-0.266766" y2="-0.17824" style="stroke:rgb(246,147,147);stroke-width:0.01" />
<line x1="-0.359539" y1="-0.0263568" x2="-0.0186455" y2="0.0256904" style="stroke:rgb(246,147,147);stroke-width:0.01" />
<line x1="-0.184816" y1="-0.312405" x2="-0.0186455" y2="0.0256904" style="stroke:rgb(246,147,147);stroke-width:0.01" />
<line x1="0.0090208" y1="0.188831" x2="0.0804101" y2="0.349534" style="stroke:rgb(246,147,147);stroke-width:0.01" />
<line x1="-0.167707" y1="-0.294844" x2="0.078652" y2="0.349039" style="stroke:rgb(246,147,147);stroke-width:0.01" />
<line x1="-0.144582" y1="-0.313102" x2="0.0931993" y2="0.353131" style="stroke:rgb(246,147,147);stroke-width:0.01" />
<line x1="-0.054606" y1="0.25812" x2="0.0649029" y2="0.345172" style="stroke:rgb(246,147,147);stroke-width:0.01" />
<line x1="-0.138714" y1="-0.29666" x2="-0.238021" y2="-0.2253" style="stroke:rgb(246,147,147);stroke-width:0.01" />
<line x1="-0.354521" y1="-0.0345723" x2="-0.115561" y2="0.294417" style="stroke:rgb(246,147,147);stroke-width:0.01" />
<line x1="-0.144582" y1="-0.313102" x2="-0.167707" y2="-0.294844" style="stroke:rgb(246,147,147);stroke-width:0.01" />
<line x1="-0.359539" y1="-0.0263568" x2="-0.130916" y2="0.290098" style="stroke:rgb(246,147,147);stroke-width:0.01" />
<line x1="-0.241057" y1="0.137644" x2="-0.0277465" y2="0.228015" style="stroke:rgb(246,147,147);stroke-width:0.01" />
<line x1="-0.266766" y1="-0.17824" x2="-0.241057" y2="0.137644" style="stroke:rgb(246,147,147);stroke-width:0.01" />
<line x1="-0.0806461" y1="-0.133961" x2="-0.0682579" y2="0.307721" style="stroke:rgb(246,147,147);stroke-width:0.01" />
<line x1="0.0090208" y1="0.188831" x2="0.296521" y2="0.188831" style="stroke:rgb(246,147,147);stroke-width:0.01" />
<line x1="-0.130916" y1="0.290098" x2="0.0931993" y2="0.353131" style="stroke:rgb(246,147,147);stroke-width:0.01" />
<line x1="-0.184816" y1="-0.312405" x2="-0.359539" y2="-0.0263568" style="stroke:rgb(246,147,147);stroke-width:0.01" />
<line x1="-0.238021" y1="-0.2253" x2="-0.269929" y2="-0.0126752" style="stroke:rgb(246,147,147);stroke-width:0.01" />
<line x1="-0.2686" y1="-0.0212293" x2="-0.269929" y2="-0.0126752" style="stroke:rgb(246,147,147);stroke-width:0.01" />
<line x1="-0.054606" y1="0.25812" x2="-0.0622327" y2="0.309416" style="stroke:rgb(246,147,147);stroke-width:0.01" />
<line x1="0.104355" y1="-0.103765" x2="-0.0186455" y2="0.0256904" style="stroke:rgb(246,147,147);stroke-width:0.01" />
<line x1="0.314889" y1="0.10328" x2="0.296521" y2="0.188831" style="stroke:rgb(246,147,147);stroke-width:0.01" />
<line x1="-0.0277465" y1="0.228015" x2="-0.0622327" y2="0.309416" style="stroke:rgb(246,147,147);stroke-width:0.01" />
<line x1="0.0896404" y1="0.343159" x2="0.0649029" y2="0.345172" style="stroke:rgb(246,147,147);stroke-width:0.01" />
<line x1="0.347711" y1="0.0895261" x2="-0.130916" y2="0.290098" style="stroke:rgb(246,147,147);stroke-width:0.01" />
<line x1="0.352018" y1="0.0998778" x2="-0.115561" y2="0.294417" style="stroke:rgb(246,147,147);stroke-width:0.01" />
<line x1="0.0090208" y1="0.188831" x2="-0.0682579" y2="0.307721" style="stroke:rgb(246,147,147);stroke-width:0.01" />
<line x1="0.362346" y1="0.130209" x2="0.078652" y2="0.349039" style="stroke:rgb(246,147,147);stroke-width:0.01" />
<line x1="0.0896404" y1="0.343159" x2="0.0804101" y2="0.349534" style="stroke:rgb(246,147,147);stroke-width:0.01" />
<line x1="0.365946" y1="0.13273" x2="0.0931993" y2="0.353131" style="stroke:rgb(246,147,147);stroke-width:0.01" />
</g>
</svg>
