<svg xmlns="http://www.w3.org/2000/svg" viewBox="-1.5 -1.5 3 3">
<g transform="scale(1, -1)">
<path d="M0.346397 -0.501932 L0.359864 -0.464199 L0.428037 -0.451550 L0.595334 -0.292596 L0.472334 -0.163140 L0.467024 -0.163951 L0.525539 0.000000 L0.601719 0.000000 L0.838690 -0.099305 L0.856925 -0.056101 L0.584178 0.164300 L0.360063 0.101268 L0.131440 -0.215187 L0.306163 -0.501236 z " fill="rgb(245,195,195)" />
<path d="M0.000000 0.000000 L1.000000 0.000000 L1.000000 1.000000 L0.000000 1.000000  z" fill="none" stroke="rgb(128,128,128)" stroke-width="0.01" />
<line x1="0.29131" y1="-0.476919" x2="0.428037" y2="-0.45155" style="stroke:rgb(246,147,147);stroke-width:0.01" />
<line x1="0.346397" y1="-0.501932" x2="0.306163" y2="-0.501236" style="stroke:rgb(246,147,147);stroke-width:0.01" />
<line x1="0.352265" y1="-0.48549" x2="0.323272" y2="-0.483674" style="stroke:rgb(246,147,147);stroke-width:0.01" />
<line x1="0.428037" y1="-0.45155" x2="0.595334" y2="-0.292596" style="stroke:rgb(246,147,147);stroke-width:0.01" />
<line x1="0.853326" y1="-0.0586214" x2="0.856925" y2="-0.056101" style="stroke:rgb(246,147,147);stroke-width:0.01" />
<line x1="0.805868" y1="-0.0855503" x2="0.854871" y2="-0.0544413" style="stroke:rgb(246,147,147);stroke-width:0.01" />
<line x1="0.29131" y1="-0.476919" x2="0.410333" y2="-0.322792" style="stroke:rgb(246,147,147);stroke-width:0.01" />
<line x1="0.83869" y1="-0.0993045" x2="0.856925" y2="-0.056101" style="stroke:rgb(246,147,147);stroke-width:0.01" />
<line x1="0.83869" y1="-0.0993045" x2="0.842997" y2="-0.0889528" style="stroke:rgb(246,147,147);stroke-width:0.01" />
<line x1="0.853326" y1="-0.0586214" x2="0.854871" y2="-0.0544413" style="stroke:rgb(246,147,147);stroke-width:0.01" />
<line x1="0.136458" y1="-0.223403" x2="0.222379" y2="-0.21006" style="stroke:rgb(246,147,147);stroke-width:0.01" />
<line x1="0.428037" y1="-0.45155" x2="0.224213" y2="-0.367071" style="stroke:rgb(246,147,147);stroke-width:0.01" />
<line x1="0.13144" y1="-0.215187" x2="0.472334" y2="-0.16314" style="stroke:rgb(246,147,147);stroke-width:0.01" />
<line x1="0.306163" y1="-0.501236" x2="0.472334" y2="-0.16314" style="stroke:rgb(246,147,147);stroke-width:0.01" />
<line x1="0.5" y1="0" x2="0.571389" y2="0.160703" style="stroke:rgb(246,147,147);stroke-width:0.01" />
<line x1="0.323272" y1="-0.483674" x2="0.569631" y2="0.160209" style="stroke:rgb(246,147,147);stroke-width:0.01" />
<line x1="0.346397" y1="-0.501932" x2="0.584178" y2="0.1643" style="stroke:rgb(246,147,147);stroke-width:0.01" />
<line x1="0.436373" y1="0.0692895" x2="0.555882" y2="0.156342" style="stroke:rgb(246,147,147);stroke-width:0.01" />
<line x1="0.352265" y1="-0.48549" x2="0.252958" y2="-0.414131" style="stroke:rgb(246,147,147);stroke-width:0.01" />
<line x1="0.136458" y1="-0.223403" x2="0.375418" y2="0.105586" style="stroke:rgb(246,147,147);stroke-width:0.01" />
<line x1="0.346397" y1="-0.501932" x2="0.323272" y2="-0.483674" style="stroke:rgb(246,147,147);stroke-width:0.01" />
<line x1="0.13144" y1="-0.215187" x2="0.360063" y2="0.101268" style="stroke:rgb(246,147,147);stroke-width:0.01" />
<line x1="0.249922" y1="-0.0511868" x2="0.463233" y2="0.0391845" style="stroke:rgb(246,147,147);stroke-width:0.01" />
<line x1="0.224213" y1="-0.367071" x2="0.249922" y2="-0.0511868" style="stroke:rgb(246,147,147);stroke-width:0.01" />
<line x1="0.410333" y1="-0.322792" x2="0.422721" y2="0.11889" style="stroke:rgb(246,147,147);stroke-width:0.01" />
<line x1="0.5" y1="0" x2="0.7875" y2="0" style="stroke:rgb(246,147,147);stroke-width:0.01" />
<line x1="0.360063" y1="0.101268" x2="0.584178" y2="0.1643" style="stroke:rgb(246,147,147);stroke-width:0.01" />
<line x1="0.306163" y1="-0.501236" x2="0.13144" y2="-0.215187" style="stroke:rgb(246,147,147);stroke-width:0.01" />
<line x1="0.252958" y1="-0.414131" x2="0.221051" y2="-0.201506" style="stroke:rgb(246,147,147);stroke-width:0.01" />
<line x1="0.222379" y1="-0.21006" x2="0.221051" y2="-0.201506" style="stroke:rgb(246,147,147);stroke-width:0.01" />
<line x1="0.436373" y1="0.0692895" x2="0.428747" y2="0.120585" style="stroke:rgb(246,147,147);stroke-width:0.01" />
<line x1="0.595334" y1="-0.292596" x2="0.472334" y2="-0.16314" style="stroke:rgb(246,147,147);stroke-width:0.01" />
<line x1="0.805868" y1="-0.0855503" x2="0.7875" y2="0" style="stroke:rgb(246,147,147);stroke-width:0.01" />
<line x1="0.463233" y1="0.0391845" x2="0.428747" y2="0.120585" style="stroke:rgb(246,147,147);stroke-width:0.01" />
<line x1="0.58062" y1="0.154328" x2="0.555882" y2="0.156342" style="stroke:rgb(246,147,147);stroke-width:0.01" />
<line x1="0.83869" y1="-0.0993045" x2="0.360063" y2="0.101268" style="stroke:rgb(246,147,147);stroke-width:0.01" />
<line x1="0.842997" y1="-0.0889528" x2="0.375418" y2="0.105586" style="stroke:rgb(246,147,147);stroke-width:0.01" />
<line x1="0.5" y1="0" x2="0.422721" y2="0.11889" style="stroke:rgb(246,147,147);stroke-width:0.01" />
<line x1="0.853326" y1="-0.0586214" x2="0.569631" y2="0.160209" style="stroke:rgb(246,147,147);stroke-width:0.01" />
<line x1="0.58062" y1="0.154328" x2="0.571389" y2="0.160703" style="stroke:rgb(246,147,147);stroke-width:0.01" />
<line x1="0.856925" y1="-0.056101" x2="0.584178" y2="0.1643" style="stroke:rgb(246,147,147);stroke-width:0.01" />
</g>
</svg>
