<svg xmlns="http://www.w3.org/2000/svg" viewBox="-1.5 -1.5 3 3">
<g transform="scale(1, -1)">
<path d="M0.634748 -0.219122 L0.819557 -0.033095 L0.866423 -0.026818 L0.870750 0.449168 L0.686791 0.577655 L0.310424 0.370706 L0.447441 0.121521 L0.347280 -0.063506 z " fill="rgb(245,195,195)" />
<path d="M0.000000 0.000000 L1.000000 0.000000 L1.000000 1.000000 L0.000000 1.000000  z" fill="none" stroke="rgb(128,128,128)" stroke-width="0.01" />
<line x1="0.634748" y1="-0.219122" x2="0.866798" y2="0.014458" style="stroke:rgb(246,147,147);stroke-width:0.01" />
<line x1="0.756988" y1="-0.0414748" x2="0.867142" y2="0.0522575" style="stroke:rgb(246,147,147);stroke-width:0.01" />
<line x1="0.34728" y1="-0.0635057" x2="0.692285" y2="0.573818" style="stroke:rgb(246,147,147);stroke-width:0.01" />
<line x1="0.756988" y1="-0.0414748" x2="0.866423" y2="-0.0268184" style="stroke:rgb(246,147,147);stroke-width:0.01" />
<line x1="0.614962" y1="0.277345" x2="0.87075" y2="0.449168" style="stroke:rgb(246,147,147);stroke-width:0.01" />
<line x1="0.510102" y1="0.36744" x2="0.692285" y2="0.573818" style="stroke:rgb(246,147,147);stroke-width:0.01" />
<line x1="0.600795" y1="0.0136855" x2="0.686791" y2="0.577655" style="stroke:rgb(246,147,147);stroke-width:0.01" />
<line x1="0.866423" y1="-0.0268184" x2="0.87075" y2="0.449168" style="stroke:rgb(246,147,147);stroke-width:0.01" />
<line x1="0.634748" y1="-0.219122" x2="0.34728" y2="-0.0635057" style="stroke:rgb(246,147,147);stroke-width:0.01" />
<line x1="0.866423" y1="-0.0268184" x2="0.600795" y2="0.0136855" style="stroke:rgb(246,147,147);stroke-width:0.01" />
<line x1="0.310424" y1="0.370706" x2="0.686791" y2="0.577655" style="stroke:rgb(246,147,147);stroke-width:0.01" />
<line x1="0.634748" y1="-0.219122" x2="0.310424" y2="0.370706" style="stroke:rgb(246,147,147);stroke-width:0.01" />
<line x1="0.756988" y1="-0.0414748" x2="0.614962" y2="0.277345" style="stroke:rgb(246,147,147);stroke-width:0.01" />
<line x1="0.866798" y1="0.014458" x2="0.614962" y2="0.277345" style="stroke:rgb(246,147,147);stroke-width:0.01" />
<line x1="0.867142" y1="0.0522575" x2="0.510102" y2="0.36744" style="stroke:rgb(246,147,147);stroke-width:0.01" />
<line x1="0.87075" y1="0.449168" x2="0.686791" y2="0.577655" style="stroke:rgb(246,147,147);stroke-width:0.01" />
</g>
</svg>
