<svg xmlns="http://www.w3.org/2000/svg" viewBox="-1.5 -1.5 3 3">
<g transform="scale(1, -1)">
<path d="M-0.021553 -0.467241 L0.406048 0.216920 L0.309297 0.391200 L0.144749 0.299851 L0.123940 0.231940 L-0.393485 0.259488 L-0.411126 -0.071855 L-0.073992 -0.414019 L-0.083878 -0.446283 z " fill="rgb(245,195,195)" />
<path d="M-0.513563 -0.683029 L0.486437 -0.683029 L0.486437 0.316971 L-0.513563 0.316971  z" fill="none" stroke="rgb(128,128,128)" stroke-width="0.01" />
<line x1="-0.0215525" y1="-0.467241" x2="0.406048" y2="0.21692" style="stroke:rgb(246,147,147);stroke-width:0.01" />
<line x1="-0.0291639" y1="-0.461441" x2="0.193901" y2="0.202931" style="stroke:rgb(246,147,147);stroke-width:0.01" />
<line x1="-0.0838776" y1="-0.446283" x2="0.144749" y2="0.299851" style="stroke:rgb(246,147,147);stroke-width:0.01" />
<line x1="-0.0291639" y1="-0.461441" x2="0.0356278" y2="-0.167013" style="stroke:rgb(246,147,147);stroke-width:0.01" />
<line x1="-0.133664" y1="-0.353457" x2="-0.112138" y2="-0.041699" style="stroke:rgb(246,147,147);stroke-width:0.01" />
<line x1="-0.411126" y1="-0.0718549" x2="-0.393485" y2="0.259488" style="stroke:rgb(246,147,147);stroke-width:0.01" />
<line x1="-0.00675118" y1="-0.194577" x2="0.0356278" y2="-0.167013" style="stroke:rgb(246,147,147);stroke-width:0.01" />
<line x1="0.0559848" y1="-0.343181" x2="-0.00675118" y2="-0.194577" style="stroke:rgb(246,147,147);stroke-width:0.01" />
<line x1="0.0128194" y1="-0.130707" x2="0.235024" y2="-0.0327489" style="stroke:rgb(246,147,147);stroke-width:0.01" />
<line x1="-0.133664" y1="-0.353457" x2="0.0559848" y2="-0.343181" style="stroke:rgb(246,147,147);stroke-width:0.01" />
<line x1="-0.0291639" y1="-0.461441" x2="-0.0838776" y2="-0.446283" style="stroke:rgb(246,147,147);stroke-width:0.01" />
<line x1="-0.0215525" y1="-0.467241" x2="-0.0838776" y2="-0.446283" style="stroke:rgb(246,147,147);stroke-width:0.01" />
<line x1="-0.0215525" y1="-0.467241" x2="-0.411126" y2="-0.0718549" style="stroke:rgb(246,147,147);stroke-width:0.01" />
<line x1="0.24122" y1="-0.0468047" x2="0.235024" y2="-0.0327489" style="stroke:rgb(246,147,147);stroke-width:0.01" />
<line x1="0.0356278" y1="-0.167013" x2="0.0128194" y2="-0.130707" style="stroke:rgb(246,147,147);stroke-width:0.01" />
<line x1="0.101204" y1="0.157741" x2="0.193901" y2="0.202931" style="stroke:rgb(246,147,147);stroke-width:0.01" />
<line x1="0.193901" y1="0.202931" x2="0.144749" y2="0.299851" style="stroke:rgb(246,147,147);stroke-width:0.01" />
<line x1="0.144749" y1="0.299851" x2="0.309297" y2="0.3912" style="stroke:rgb(246,147,147);stroke-width:0.01" />
<line x1="0.229661" y1="-0.0652994" x2="0.101204" y2="0.157741" style="stroke:rgb(246,147,147);stroke-width:0.01" />
<line x1="0.406048" y1="0.21692" x2="0.309297" y2="0.3912" style="stroke:rgb(246,147,147);stroke-width:0.01" />
<line x1="-0.411126" y1="-0.0718549" x2="0.24122" y2="-0.0468047" style="stroke:rgb(246,147,147);stroke-width:0.01" />
<line x1="0.229661" y1="-0.0652994" x2="-0.112138" y2="-0.041699" style="stroke:rgb(246,147,147);stroke-width:0.01" />
<line x1="0.406048" y1="0.21692" x2="-0.393485" y2="0.259488" style="stroke:rgb(246,147,147);stroke-width:0.01" />
</g>
</svg>
