<svg xmlns="http://www.w3.org/2000/svg" viewBox="-1.5 -1.5 3 3">
<g transform="scale(1, -1)">
<path d="M0.492011 0.215788 L0.919611 0.899949 L0.822860 1.074229 L0.658312 0.982880 L0.637503 0.914969 L0.120078 0.942517 L0.102437 0.611174 L0.439571 0.269010 L0.429685 0.236747 z " fill="rgb(245,195,195)" />
<path d="M0.000000 0.000000 L1.000000 0.000000 L1.000000 1.000000 L0.000000 1.000000  z" fill="none" stroke="rgb(128,128,128)" stroke-width="0.01" />
<line x1="0.492011" y1="0.215788" x2="0.919611" y2="0.899949" style="stroke:rgb(246,147,147);stroke-width:0.01" />
<line x1="0.484399" y1="0.221588" x2="0.707464" y2="0.88596" style="stroke:rgb(246,147,147);stroke-width:0.01" />
<line x1="0.429685" y1="0.236747" x2="0.658312" y2="0.98288" style="stroke:rgb(246,147,147);stroke-width:0.01" />
<line x1="0.484399" y1="0.221588" x2="0.549191" y2="0.516016" style="stroke:rgb(246,147,147);stroke-width:0.01" />
<line x1="0.379899" y1="0.329572" x2="0.401425" y2="0.64133" style="stroke:rgb(246,147,147);stroke-width:0.01" />
<line x1="0.102437" y1="0.611174" x2="0.120078" y2="0.942517" style="stroke:rgb(246,147,147);stroke-width:0.01" />
<line x1="0.506812" y1="0.488453" x2="0.549191" y2="0.516016" style="stroke:rgb(246,147,147);stroke-width:0.01" />
<line x1="0.569548" y1="0.339848" x2="0.506812" y2="0.488453" style="stroke:rgb(246,147,147);stroke-width:0.01" />
<line x1="0.526382" y1="0.552322" x2="0.748587" y2="0.65028" style="stroke:rgb(246,147,147);stroke-width:0.01" />
<line x1="0.379899" y1="0.329572" x2="0.569548" y2="0.339848" style="stroke:rgb(246,147,147);stroke-width:0.01" />
<line x1="0.484399" y1="0.221588" x2="0.429685" y2="0.236747" style="stroke:rgb(246,147,147);stroke-width:0.01" />
<line x1="0.492011" y1="0.215788" x2="0.429685" y2="0.236747" style="stroke:rgb(246,147,147);stroke-width:0.01" />
<line x1="0.492011" y1="0.215788" x2="0.102437" y2="0.611174" style="stroke:rgb(246,147,147);stroke-width:0.01" />
<line x1="0.754783" y1="0.636225" x2="0.748587" y2="0.65028" style="stroke:rgb(246,147,147);stroke-width:0.01" />
<line x1="0.549191" y1="0.516016" x2="0.526382" y2="0.552322" style="stroke:rgb(246,147,147);stroke-width:0.01" />
<line x1="0.614767" y1="0.84077" x2="0.707464" y2="0.88596" style="stroke:rgb(246,147,147);stroke-width:0.01" />
<line x1="0.707464" y1="0.88596" x2="0.658312" y2="0.98288" style="stroke:rgb(246,147,147);stroke-width:0.01" />
<line x1="0.658312" y1="0.98288" x2="0.82286" y2="1.07423" style="stroke:rgb(246,147,147);stroke-width:0.01" />
<line x1="0.743224" y1="0.61773" x2="0.614767" y2="0.84077" style="stroke:rgb(246,147,147);stroke-width:0.01" />
<line x1="0.919611" y1="0.899949" x2="0.82286" y2="1.07423" style="stroke:rgb(246,147,147);stroke-width:0.01" />
<line x1="0.102437" y1="0.611174" x2="0.754783" y2="0.636225" style="stroke:rgb(246,147,147);stroke-width:0.01" />
<line x1="0.743224" y1="0.61773" x2="0.401425" y2="0.64133" style="stroke:rgb(246,147,147);stroke-width:0.01" />
<line x1="0.919611" y1="0.899949" x2="0.120078" y2="0.942517" style="stroke:rgb(246,147,147);stroke-width:0.01" />
</g>
</svg>
