<svg xmlns="http://www.w3.org/2000/svg" viewBox="-1.5 -1.5 3 3">
<g transform="scale(1, -1)">
<path d="M-0.051841 -0.555449 L0.561397 0.234449 L0.520001 0.266587 L-0.280871 0.199847 L-0.330413 0.125535 L-0.418274 -0.270968 z " fill="rgb(245,195,195)" />
<path d="M-0.558182 -0.216119 L0.441818 -0.216119 L0.441818 0.783881 L-0.558182 0.783881  z" fill="none" stroke="rgb(128,128,128)" stroke-width="0.01" />
<line x1="-0.0518412" y1="-0.555449" x2="0.561397" y2="0.234449" style="stroke:rgb(246,147,147);stroke-width:0.01" />
<line x1="0.386132" y1="0.121253" x2="0.520001" y2="0.266587" style="stroke:rgb(246,147,147);stroke-width:0.01" />
<line x1="-0.0215617" y1="-0.255594" x2="0.2793" y2="0.246528" style="stroke:rgb(246,147,147);stroke-width:0.01" />
<line x1="-0.418274" y1="-0.270968" x2="0.104431" y2="-0.151873" style="stroke:rgb(246,147,147);stroke-width:0.01" />
<line x1="-0.418274" y1="-0.270968" x2="-0.330413" y2="0.125535" style="stroke:rgb(246,147,147);stroke-width:0.01" />
<line x1="-0.217879" y1="0.132809" x2="-0.214809" y2="0.204017" style="stroke:rgb(246,147,147);stroke-width:0.01" />
<line x1="-0.330413" y1="0.125535" x2="-0.280871" y2="0.199847" style="stroke:rgb(246,147,147);stroke-width:0.01" />
<line x1="-0.0518412" y1="-0.555449" x2="-0.418274" y2="-0.270968" style="stroke:rgb(246,147,147);stroke-width:0.01" />
<line x1="-0.253146" y1="0.170342" x2="-0.218621" y2="0.205035" style="stroke:rgb(246,147,147);stroke-width:0.01" />
<line x1="-0.253146" y1="0.170342" x2="-0.214809" y2="0.204017" style="stroke:rgb(246,147,147);stroke-width:0.01" />
<line x1="-0.330413" y1="0.125535" x2="-0.217185" y2="0.205155" style="stroke:rgb(246,147,147);stroke-width:0.01" />
<line x1="0.104431" y1="-0.151873" x2="0.070254" y2="-0.00187106" style="stroke:rgb(246,147,147);stroke-width:0.01" />
<line x1="-0.368767" y1="-0.0475542" x2="0.070254" y2="-0.00187106" style="stroke:rgb(246,147,147);stroke-width:0.01" />
<line x1="-0.0215617" y1="-0.255594" x2="-0.368767" y2="-0.0475542" style="stroke:rgb(246,147,147);stroke-width:0.01" />
<line x1="-0.217879" y1="0.132809" x2="-0.280871" y2="0.199847" style="stroke:rgb(246,147,147);stroke-width:0.01" />
<line x1="0.386132" y1="0.121253" x2="-0.217879" y2="0.132809" style="stroke:rgb(246,147,147);stroke-width:0.01" />
<line x1="-0.280871" y1="0.199847" x2="0.520001" y2="0.266587" style="stroke:rgb(246,147,147);stroke-width:0.01" />
<line x1="0.070254" y1="-0.00187106" x2="-0.218621" y2="0.205035" style="stroke:rgb(246,147,147);stroke-width:0.01" />
<line x1="-0.214809" y1="0.204017" x2="-0.217185" y2="0.205155" style="stroke:rgb(246,147,147);stroke-width:0.01" />
<line x1="0.386132" y1="0.121253" x2="0.2793" y2="0.246528" style="stroke:rgb(246,147,147);stroke-width:0.01" />
<line x1="0.561397" y1="0.234449" x2="0.520001" y2="0.266587" style="stroke:rgb(246,147,147);stroke-width:0.01" />
</g>
</svg>
