<svg xmlns="http://www.w3.org/2000/svg" viewBox="-1.5 -1.5 3 3">
<g transform="scale(1, -1)">
<path d="M0.210100 -0.381520 L0.448755 -0.010279 L-0.044322 0.375254 L-0.135982 0.258025 L-0.193124 0.289992 L-0.271745 0.149455 L-0.045414 -0.314813 L0.031733 -0.366114 z " fill="rgb(245,195,195)" />
<path d="M-0.589707 -0.890622 L0.410293 -0.890622 L0.410293 0.109378 L-0.589707 0.109378  z" fill="none" stroke="rgb(128,128,128)" stroke-width="0.01" />
<line x1="0.2101" y1="-0.38152" x2="0.448755" y2="-0.0102787" style="stroke:rgb(246,147,147);stroke-width:0.01" />
<line x1="0.0143417" y1="-0.0350426" x2="0.116777" y2="0.162162" style="stroke:rgb(246,147,147);stroke-width:0.01" />
<line x1="-0.0454144" y1="-0.314813" x2="-0.0127844" y2="0.109378" style="stroke:rgb(246,147,147);stroke-width:0.01" />
<line x1="0.0372691" y1="-0.0756224" x2="0.181927" y2="0.121692" style="stroke:rgb(246,147,147);stroke-width:0.01" />
<line x1="0.294262" y1="-0.250601" x2="0.291566" y2="-0.0525746" style="stroke:rgb(246,147,147);stroke-width:0.01" />
<line x1="-0.271745" y1="0.149455" x2="-0.193124" y2="0.289992" style="stroke:rgb(246,147,147);stroke-width:0.01" />
<line x1="0.0317331" y1="-0.366114" x2="0.294262" y2="-0.250601" style="stroke:rgb(246,147,147);stroke-width:0.01" />
<line x1="-0.252207" y1="0.109378" x2="-0.0443218" y2="0.375254" style="stroke:rgb(246,147,147);stroke-width:0.01" />
<line x1="-0.0454144" y1="-0.314813" x2="-0.271745" y2="0.149455" style="stroke:rgb(246,147,147);stroke-width:0.01" />
<line x1="0.2101" y1="-0.38152" x2="0.0143417" y2="-0.0350426" style="stroke:rgb(246,147,147);stroke-width:0.01" />
<line x1="0.2101" y1="-0.38152" x2="0.0317331" y2="-0.366114" style="stroke:rgb(246,147,147);stroke-width:0.01" />
<line x1="0.0317331" y1="-0.366114" x2="-0.0454144" y2="-0.314813" style="stroke:rgb(246,147,147);stroke-width:0.01" />
<line x1="0.0372691" y1="-0.0756224" x2="0.291566" y2="-0.0525746" style="stroke:rgb(246,147,147);stroke-width:0.01" />
<line x1="0.291566" y1="-0.0525746" x2="0.0143417" y2="-0.0350426" style="stroke:rgb(246,147,147);stroke-width:0.01" />
<line x1="-0.252207" y1="0.109378" x2="-0.0127844" y2="0.109378" style="stroke:rgb(246,147,147);stroke-width:0.01" />
<line x1="0.420945" y1="-0.0535391" x2="0.181927" y2="0.121692" style="stroke:rgb(246,147,147);stroke-width:0.01" />
<line x1="0.448755" y1="-0.0102787" x2="-0.0443218" y2="0.375254" style="stroke:rgb(246,147,147);stroke-width:0.01" />
<line x1="-0.0127844" y1="0.109378" x2="-0.271745" y2="0.149455" style="stroke:rgb(246,147,147);stroke-width:0.01" />
<line x1="0.420945" y1="-0.0535391" x2="-0.193124" y2="0.289992" style="stroke:rgb(246,147,147);stroke-width:0.01" />
<line x1="0.448755" y1="-0.0102787" x2="0.116777" y2="0.162162" style="stroke:rgb(246,147,147);stroke-width:0.01" />
</g>
</svg>
