<svg xmlns="http://www.w3.org/2000/svg" viewBox="-1.5 -1.5 3 3">
<g transform="scale(1, -1)">
<path d="M-0.335374 -0.318803 L0.105715 -0.229694 L0.099130 -0.163848 L0.324981 0.178693 L0.323441 0.186196 L0.220169 0.164995 L0.244818 0.224152 L0.237125 0.227357 L0.067015 0.157311 L0.055715 0.270306 L-0.144285 0.070306 L-0.127917 0.045753 L-0.384828 -0.268409 L-0.384039 -0.276286 L-0.301666 -0.268028 z " fill="rgb(245,195,195)" />
<path d="M-0.444285 -0.229694 L0.555715 -0.229694 L0.555715 0.770306 L-0.444285 0.770306  z" fill="none" stroke="rgb(128,128,128)" stroke-width="0.01" />
<line x1="0.0557151" y1="-0.229694" x2="0.324981" y2="0.178693" style="stroke:rgb(246,147,147);stroke-width:0.01" />
<line x1="0.320459" y1="0.181674" x2="0.323441" y2="0.186196" style="stroke:rgb(246,147,147);stroke-width:0.01" />
<line x1="0.0557151" y1="-0.229694" x2="0.244818" y2="0.224152" style="stroke:rgb(246,147,147);stroke-width:0.01" />
<line x1="-0.335374" y1="-0.318803" x2="0.105715" y2="-0.229694" style="stroke:rgb(246,147,147);stroke-width:0.01" />
<line x1="-0.335374" y1="-0.318803" x2="0.0557151" y2="0.270306" style="stroke:rgb(246,147,147);stroke-width:0.01" />
<line x1="-0.384039" y1="-0.276286" x2="0.0807151" y2="-0.229694" style="stroke:rgb(246,147,147);stroke-width:0.01" />
<line x1="-0.384039" y1="-0.276286" x2="-0.380495" y2="-0.271953" style="stroke:rgb(246,147,147);stroke-width:0.01" />
<line x1="-0.384828" y1="-0.268409" x2="0.0557151" y2="0.270306" style="stroke:rgb(246,147,147);stroke-width:0.01" />
<line x1="0.0557151" y1="-0.229694" x2="0.105715" y2="-0.229694" style="stroke:rgb(246,147,147);stroke-width:0.01" />
<line x1="-0.144285" y1="0.0703057" x2="0.0557151" y2="0.270306" style="stroke:rgb(246,147,147);stroke-width:0.01" />
<line x1="0.0557151" y1="-0.229694" x2="0.0557151" y2="0.270306" style="stroke:rgb(246,147,147);stroke-width:0.01" />
<line x1="-0.384039" y1="-0.276286" x2="-0.384828" y2="-0.268409" style="stroke:rgb(246,147,147);stroke-width:0.01" />
<line x1="-0.3801" y1="-0.275891" x2="-0.380495" y2="-0.271953" style="stroke:rgb(246,147,147);stroke-width:0.01" />
<line x1="-0.380495" y1="-0.271953" x2="-0.384828" y2="-0.268409" style="stroke:rgb(246,147,147);stroke-width:0.01" />
<line x1="0.0807151" y1="-0.229694" x2="0.0557151" y2="0.270306" style="stroke:rgb(246,147,147);stroke-width:0.01" />
<line x1="0.105715" y1="-0.229694" x2="0.0557151" y2="0.270306" style="stroke:rgb(246,147,147);stroke-width:0.01" />
<line x1="0.239369" y1="0.221908" x2="0.244818" y2="0.224152" style="stroke:rgb(246,147,147);stroke-width:0.01" />
<line x1="-0.144285" y1="0.0703057" x2="0.237125" y2="0.227357" style="stroke:rgb(246,147,147);stroke-width:0.01" />
<line x1="0.320459" y1="0.181674" x2="0.319689" y2="0.185426" style="stroke:rgb(246,147,147);stroke-width:0.01" />
<line x1="0.324981" y1="0.178693" x2="0.323441" y2="0.186196" style="stroke:rgb(246,147,147);stroke-width:0.01" />
<line x1="0.0557151" y1="-0.229694" x2="-0.119285" y2="0.0953057" style="stroke:rgb(246,147,147);stroke-width:0.01" />
<line x1="0.0557151" y1="-0.229694" x2="-0.144285" y2="0.0703057" style="stroke:rgb(246,147,147);stroke-width:0.01" />
<line x1="-0.119285" y1="0.0953057" x2="0.323441" y2="0.186196" style="stroke:rgb(246,147,147);stroke-width:0.01" />
<line x1="0.239369" y1="0.221908" x2="0.237125" y2="0.227357" style="stroke:rgb(246,147,147);stroke-width:0.01" />
<line x1="0.243215" y1="0.220306" x2="0.239369" y2="0.221908" style="stroke:rgb(246,147,147);stroke-width:0.01" />
<line x1="0.244818" y1="0.224152" x2="0.237125" y2="0.227357" style="stroke:rgb(246,147,147);stroke-width:0.01" />
<line x1="0.324981" y1="0.178693" x2="0.320459" y2="0.181674" style="stroke:rgb(246,147,147);stroke-width:0.01" />
</g>
</svg>
