<svg xmlns="http://www.w3.org/2000/svg" viewBox="-1.5 -1.5 3 3">
<g transform="scale(1, -1)">
<path d="M-0.343549 -0.307835 L0.097540 -0.218726 L0.092789 -0.171215 L0.384322 0.134895 L0.384121 0.143142 L0.196411 0.138563 L0.236643 0.235120 L0.228951 0.238325 L0.058840 0.168280 L0.047540 0.281274 L-0.152460 0.081274 L-0.136091 0.056722 L-0.393003 -0.257441 L-0.392213 -0.265318 L-0.309841 -0.257060 z " fill="rgb(245,195,195)" />
<path d="M-0.452460 -0.218726 L0.547540 -0.218726 L0.547540 0.781274 L-0.452460 0.781274  z" fill="none" stroke="rgb(128,128,128)" stroke-width="0.01" />
<line x1="0.0475404" y1="-0.218726" x2="0.384322" y2="0.134895" style="stroke:rgb(246,147,147);stroke-width:0.01" />
<line x1="0.380098" y1="0.138918" x2="0.384121" y2="0.143142" style="stroke:rgb(246,147,147);stroke-width:0.01" />
<line x1="0.0475404" y1="-0.218726" x2="0.236643" y2="0.23512" style="stroke:rgb(246,147,147);stroke-width:0.01" />
<line x1="-0.343549" y1="-0.307835" x2="0.0975404" y2="-0.218726" style="stroke:rgb(246,147,147);stroke-width:0.01" />
<line x1="-0.343549" y1="-0.307835" x2="0.0475404" y2="0.281274" style="stroke:rgb(246,147,147);stroke-width:0.01" />
<line x1="-0.392213" y1="-0.265318" x2="0.0725404" y2="-0.218726" style="stroke:rgb(246,147,147);stroke-width:0.01" />
<line x1="-0.392213" y1="-0.265318" x2="-0.38867" y2="-0.260984" style="stroke:rgb(246,147,147);stroke-width:0.01" />
<line x1="-0.393003" y1="-0.257441" x2="0.0475404" y2="0.281274" style="stroke:rgb(246,147,147);stroke-width:0.01" />
<line x1="0.0475404" y1="-0.218726" x2="0.0975404" y2="-0.218726" style="stroke:rgb(246,147,147);stroke-width:0.01" />
<line x1="-0.15246" y1="0.081274" x2="0.0475404" y2="0.281274" style="stroke:rgb(246,147,147);stroke-width:0.01" />
<line x1="0.0475404" y1="-0.218726" x2="0.0475404" y2="0.281274" style="stroke:rgb(246,147,147);stroke-width:0.01" />
<line x1="-0.392213" y1="-0.265318" x2="-0.393003" y2="-0.257441" style="stroke:rgb(246,147,147);stroke-width:0.01" />
<line x1="-0.388275" y1="-0.264923" x2="-0.38867" y2="-0.260984" style="stroke:rgb(246,147,147);stroke-width:0.01" />
<line x1="-0.38867" y1="-0.260984" x2="-0.393003" y2="-0.257441" style="stroke:rgb(246,147,147);stroke-width:0.01" />
<line x1="0.380098" y1="0.138918" x2="0.379997" y2="0.143041" style="stroke:rgb(246,147,147);stroke-width:0.01" />
<line x1="0.384322" y1="0.134895" x2="0.384121" y2="0.143142" style="stroke:rgb(246,147,147);stroke-width:0.01" />
<line x1="0.0725404" y1="-0.218726" x2="0.0475404" y2="0.281274" style="stroke:rgb(246,147,147);stroke-width:0.01" />
<line x1="0.0975404" y1="-0.218726" x2="0.0475404" y2="0.281274" style="stroke:rgb(246,147,147);stroke-width:0.01" />
<line x1="0.231194" y1="0.232877" x2="0.236643" y2="0.23512" style="stroke:rgb(246,147,147);stroke-width:0.01" />
<line x1="-0.15246" y1="0.081274" x2="0.228951" y2="0.238325" style="stroke:rgb(246,147,147);stroke-width:0.01" />
<line x1="0.0475404" y1="-0.218726" x2="-0.10246" y2="0.131274" style="stroke:rgb(246,147,147);stroke-width:0.01" />
<line x1="0.0475404" y1="-0.218726" x2="-0.15246" y2="0.081274" style="stroke:rgb(246,147,147);stroke-width:0.01" />
<line x1="0.231194" y1="0.232877" x2="0.228951" y2="0.238325" style="stroke:rgb(246,147,147);stroke-width:0.01" />
<line x1="-0.10246" y1="0.131274" x2="0.384121" y2="0.143142" style="stroke:rgb(246,147,147);stroke-width:0.01" />
<line x1="0.384322" y1="0.134895" x2="0.380098" y2="0.138918" style="stroke:rgb(246,147,147);stroke-width:0.01" />
<line x1="0.23504" y1="0.231274" x2="0.231194" y2="0.232877" style="stroke:rgb(246,147,147);stroke-width:0.01" />
<line x1="0.236643" y1="0.23512" x2="0.228951" y2="0.238325" style="stroke:rgb(246,147,147);stroke-width:0.01" />
</g>
</svg>
