<svg xmlns="http://www.w3.org/2000/svg" viewBox="-1.5 -1.5 3 3">
<g transform="scale(1, -1)">
<path d="M-0.246649 -0.352459 L0.107198 -0.205024 L0.089842 -0.118247 L0.343979 0.148597 L0.343778 0.156844 L0.156068 0.152266 L0.196300 0.248823 L0.188608 0.252028 L0.028937 0.186281 L0.007198 0.294976 L-0.192802 0.094976 L-0.159118 0.044450 L-0.383891 -0.294132 L-0.221902 -0.261407 L-0.257546 -0.347972 z " fill="rgb(245,195,195)" />
<path d="M-0.492802 -0.205024 L0.507198 -0.205024 L0.507198 0.794976 L-0.492802 0.794976  z" fill="none" stroke="rgb(128,128,128)" stroke-width="0.01" />
<line x1="0.00719763" y1="-0.205024" x2="0.343979" y2="0.148597" style="stroke:rgb(246,147,147);stroke-width:0.01" />
<line x1="0.339755" y1="0.15262" x2="0.343778" y2="0.156844" style="stroke:rgb(246,147,147);stroke-width:0.01" />
<line x1="-0.246649" y1="-0.352459" x2="0.107198" y2="-0.205024" style="stroke:rgb(246,147,147);stroke-width:0.01" />
<line x1="-0.257546" y1="-0.347972" x2="-0.249854" y2="-0.344767" style="stroke:rgb(246,147,147);stroke-width:0.01" />
<line x1="0.00719763" y1="-0.205024" x2="0.1963" y2="0.248823" style="stroke:rgb(246,147,147);stroke-width:0.01" />
<line x1="-0.383891" y1="-0.294132" x2="0.0571976" y2="-0.205024" style="stroke:rgb(246,147,147);stroke-width:0.01" />
<line x1="-0.257546" y1="-0.347972" x2="0.00719763" y2="0.294976" style="stroke:rgb(246,147,147);stroke-width:0.01" />
<line x1="-0.383891" y1="-0.294132" x2="0.00719763" y2="0.294976" style="stroke:rgb(246,147,147);stroke-width:0.01" />
<line x1="-0.246649" y1="-0.352459" x2="-0.257546" y2="-0.347972" style="stroke:rgb(246,147,147);stroke-width:0.01" />
<line x1="-0.249854" y1="-0.344767" x2="-0.255302" y2="-0.342524" style="stroke:rgb(246,147,147);stroke-width:0.01" />
<line x1="0.00719763" y1="-0.205024" x2="0.107198" y2="-0.205024" style="stroke:rgb(246,147,147);stroke-width:0.01" />
<line x1="-0.192802" y1="0.0949765" x2="0.00719763" y2="0.294976" style="stroke:rgb(246,147,147);stroke-width:0.01" />
<line x1="0.00719763" y1="-0.205024" x2="0.00719763" y2="0.294976" style="stroke:rgb(246,147,147);stroke-width:0.01" />
<line x1="0.339755" y1="0.15262" x2="0.339655" y2="0.156744" style="stroke:rgb(246,147,147);stroke-width:0.01" />
<line x1="0.343979" y1="0.148597" x2="0.343778" y2="0.156844" style="stroke:rgb(246,147,147);stroke-width:0.01" />
<line x1="0.0571976" y1="-0.205024" x2="0.00719763" y2="0.294976" style="stroke:rgb(246,147,147);stroke-width:0.01" />
<line x1="-0.246649" y1="-0.352459" x2="-0.249854" y2="-0.344767" style="stroke:rgb(246,147,147);stroke-width:0.01" />
<line x1="0.107198" y1="-0.205024" x2="0.00719763" y2="0.294976" style="stroke:rgb(246,147,147);stroke-width:0.01" />
<line x1="0.190851" y1="0.246579" x2="0.1963" y2="0.248823" style="stroke:rgb(246,147,147);stroke-width:0.01" />
<line x1="-0.192802" y1="0.0949765" x2="0.188608" y2="0.252028" style="stroke:rgb(246,147,147);stroke-width:0.01" />
<line x1="0.00719763" y1="-0.205024" x2="-0.142802" y2="0.144976" style="stroke:rgb(246,147,147);stroke-width:0.01" />
<line x1="0.00719763" y1="-0.205024" x2="-0.192802" y2="0.0949765" style="stroke:rgb(246,147,147);stroke-width:0.01" />
<line x1="0.190851" y1="0.246579" x2="0.188608" y2="0.252028" style="stroke:rgb(246,147,147);stroke-width:0.01" />
<line x1="-0.142802" y1="0.144976" x2="0.343778" y2="0.156844" style="stroke:rgb(246,147,147);stroke-width:0.01" />
<line x1="0.343979" y1="0.148597" x2="0.339755" y2="0.15262" style="stroke:rgb(246,147,147);stroke-width:0.01" />
<line x1="0.194698" y1="0.244976" x2="0.190851" y2="0.246579" style="stroke:rgb(246,147,147);stroke-width:0.01" />
<line x1="0.1963" y1="0.248823" x2="0.188608" y2="0.252028" style="stroke:rgb(246,147,147);stroke-width:0.01" />
</g>
</svg>
