<svg xmlns="http://www.w3.org/2000/svg" viewBox="-1.5 -1.5 3 3">
<g transform="scale(1, -1)">
<path d="M-0.279906 -0.344887 L0.110456 -0.225083 L0.096556 -0.132415 L0.306099 0.185391 L0.299141 0.189978 L0.199910 0.169606 L0.224559 0.228763 L0.216867 0.231968 L0.052077 0.164114 L0.035456 0.274917 L-0.164544 0.074917 L-0.148175 0.050365 L-0.412175 -0.272464 L-0.246003 -0.255806 L-0.290318 -0.339366 z " fill="rgb(245,195,195)" />
<path d="M-0.464544 -0.225083 L0.535456 -0.225083 L0.535456 0.774917 L-0.464544 0.774917  z" fill="none" stroke="rgb(128,128,128)" stroke-width="0.01" />
<line x1="0.0354563" y1="-0.225083" x2="0.306099" y2="0.185391" style="stroke:rgb(246,147,147);stroke-width:0.01" />
<line x1="0.0354563" y1="-0.225083" x2="0.224559" y2="0.228763" style="stroke:rgb(246,147,147);stroke-width:0.01" />
<line x1="-0.279906" y1="-0.344887" x2="0.110456" y2="-0.225083" style="stroke:rgb(246,147,147);stroke-width:0.01" />
<line x1="-0.290318" y1="-0.339366" x2="-0.282351" y2="-0.336921" style="stroke:rgb(246,147,147);stroke-width:0.01" />
<line x1="-0.290318" y1="-0.339366" x2="0.0354563" y2="0.274917" style="stroke:rgb(246,147,147);stroke-width:0.01" />
<line x1="-0.412175" y1="-0.272464" x2="0.0604563" y2="-0.225083" style="stroke:rgb(246,147,147);stroke-width:0.01" />
<line x1="-0.412175" y1="-0.272464" x2="0.0354563" y2="0.274917" style="stroke:rgb(246,147,147);stroke-width:0.01" />
<line x1="-0.279906" y1="-0.344887" x2="-0.290318" y2="-0.339366" style="stroke:rgb(246,147,147);stroke-width:0.01" />
<line x1="-0.282351" y1="-0.336921" x2="-0.287557" y2="-0.33416" style="stroke:rgb(246,147,147);stroke-width:0.01" />
<line x1="0.0354563" y1="-0.225083" x2="0.110456" y2="-0.225083" style="stroke:rgb(246,147,147);stroke-width:0.01" />
<line x1="-0.164544" y1="0.0749172" x2="0.0354563" y2="0.274917" style="stroke:rgb(246,147,147);stroke-width:0.01" />
<line x1="0.0354563" y1="-0.225083" x2="0.0354563" y2="0.274917" style="stroke:rgb(246,147,147);stroke-width:0.01" />
<line x1="0.0604563" y1="-0.225083" x2="0.0354563" y2="0.274917" style="stroke:rgb(246,147,147);stroke-width:0.01" />
<line x1="-0.279906" y1="-0.344887" x2="-0.282351" y2="-0.336921" style="stroke:rgb(246,147,147);stroke-width:0.01" />
<line x1="0.110456" y1="-0.225083" x2="0.0354563" y2="0.274917" style="stroke:rgb(246,147,147);stroke-width:0.01" />
<line x1="0.21911" y1="0.22652" x2="0.224559" y2="0.228763" style="stroke:rgb(246,147,147);stroke-width:0.01" />
<line x1="-0.164544" y1="0.0749172" x2="0.216867" y2="0.231968" style="stroke:rgb(246,147,147);stroke-width:0.01" />
<line x1="0.300326" y1="0.184206" x2="0.299141" y2="0.189978" style="stroke:rgb(246,147,147);stroke-width:0.01" />
<line x1="0.0354563" y1="-0.225083" x2="-0.139544" y2="0.0999172" style="stroke:rgb(246,147,147);stroke-width:0.01" />
<line x1="0.0354563" y1="-0.225083" x2="-0.164544" y2="0.0749172" style="stroke:rgb(246,147,147);stroke-width:0.01" />
<line x1="0.300326" y1="0.184206" x2="0.306099" y2="0.185391" style="stroke:rgb(246,147,147);stroke-width:0.01" />
<line x1="-0.139544" y1="0.0999172" x2="0.299141" y2="0.189978" style="stroke:rgb(246,147,147);stroke-width:0.01" />
<line x1="0.21911" y1="0.22652" x2="0.216867" y2="0.231968" style="stroke:rgb(246,147,147);stroke-width:0.01" />
<line x1="0.222956" y1="0.224917" x2="0.21911" y2="0.22652" style="stroke:rgb(246,147,147);stroke-width:0.01" />
<line x1="0.224559" y1="0.228763" x2="0.216867" y2="0.231968" style="stroke:rgb(246,147,147);stroke-width:0.01" />
<line x1="0.303805" y1="0.181913" x2="0.300326" y2="0.184206" style="stroke:rgb(246,147,147);stroke-width:0.01" />
<line x1="0.306099" y1="0.185391" x2="0.299141" y2="0.189978" style="stroke:rgb(246,147,147);stroke-width:0.01" />
</g>
</svg>
