<svg xmlns="http://www.w3.org/2000/svg" viewBox="-1.5 -1.5 3 3">
<g transform="scale(1, -1)">
<path d="M-0.070662 -0.317289 L-0.031228 -0.301461 L-0.042679 -0.272931 L0.212300 -0.224030 L0.338969 0.060976 L0.243110 0.423364 L-0.079139 0.338122 L-0.103632 0.297258 L0.013743 0.103589 L-0.136151 0.140149 L-0.172316 0.050047 L-0.172316 -0.297794 z " fill="rgb(245,195,195)" />
<path d="M-0.172316 -0.339415 L0.827684 -0.339415 L0.827684 0.660585 L-0.172316 0.660585  z" fill="none" stroke="rgb(128,128,128)" stroke-width="0.01" />
<line x1="0.2123" y1="-0.22403" x2="0.338969" y2="0.0609763" style="stroke:rgb(246,147,147);stroke-width:0.01" />
<line x1="0.0797931" y1="-0.249443" x2="0.194457" y2="0.0595106" style="stroke:rgb(246,147,147);stroke-width:0.01" />
<line x1="0.179109" y1="-0.0645436" x2="0.194457" y2="0.0595106" style="stroke:rgb(246,147,147);stroke-width:0.01" />
<line x1="-0.070662" y1="-0.317289" x2="-0.0312277" y2="-0.301461" style="stroke:rgb(246,147,147);stroke-width:0.01" />
<line x1="-0.172316" y1="-0.297794" x2="-0.172316" y2="0.0500471" style="stroke:rgb(246,147,147);stroke-width:0.01" />
<line x1="-0.172316" y1="-0.232356" x2="-0.136151" y2="0.140149" style="stroke:rgb(246,147,147);stroke-width:0.01" />
<line x1="-0.165842" y1="-0.299035" x2="-0.172316" y2="-0.232356" style="stroke:rgb(246,147,147);stroke-width:0.01" />
<line x1="-0.165842" y1="-0.299035" x2="-0.127875" y2="-0.225345" style="stroke:rgb(246,147,147);stroke-width:0.01" />
<line x1="-0.172316" y1="-0.297794" x2="0.2123" y2="-0.22403" style="stroke:rgb(246,147,147);stroke-width:0.01" />
<line x1="-0.070662" y1="-0.317289" x2="-0.172316" y2="-0.297794" style="stroke:rgb(246,147,147);stroke-width:0.01" />
<line x1="-0.172316" y1="0.0500471" x2="-0.136151" y2="0.140149" style="stroke:rgb(246,147,147);stroke-width:0.01" />
<line x1="-0.0312277" y1="-0.301461" x2="-0.172316" y2="0.0500471" style="stroke:rgb(246,147,147);stroke-width:0.01" />
<line x1="-0.0476043" y1="0.204811" x2="-0.0791394" y2="0.338122" style="stroke:rgb(246,147,147);stroke-width:0.01" />
<line x1="-0.172316" y1="-0.220544" x2="-0.0507465" y2="-0.104845" style="stroke:rgb(246,147,147);stroke-width:0.01" />
<line x1="-0.070662" y1="-0.317289" x2="-0.172316" y2="-0.220544" style="stroke:rgb(246,147,147);stroke-width:0.01" />
<line x1="-0.0386258" y1="0.189997" x2="-0.0744376" y2="0.298979" style="stroke:rgb(246,147,147);stroke-width:0.01" />
<line x1="-0.172316" y1="-0.202448" x2="0.338969" y2="0.0609763" style="stroke:rgb(246,147,147);stroke-width:0.01" />
<line x1="-0.127875" y1="-0.225345" x2="-0.172316" y2="-0.202448" style="stroke:rgb(246,147,147);stroke-width:0.01" />
<line x1="-0.103632" y1="0.297258" x2="-0.0791394" y2="0.338122" style="stroke:rgb(246,147,147);stroke-width:0.01" />
<line x1="0.338969" y1="0.0609763" x2="0.24311" y2="0.423364" style="stroke:rgb(246,147,147);stroke-width:0.01" />
<line x1="0.0797931" y1="-0.249443" x2="-0.0507465" y2="-0.104845" style="stroke:rgb(246,147,147);stroke-width:0.01" />
<line x1="0.2123" y1="-0.22403" x2="-0.103632" y2="0.297258" style="stroke:rgb(246,147,147);stroke-width:0.01" />
<line x1="0.260034" y1="-0.116628" x2="-0.0507465" y2="-0.104845" style="stroke:rgb(246,147,147);stroke-width:0.01" />
<line x1="0.277758" y1="-0.0767487" x2="0.179109" y2="-0.0645436" style="stroke:rgb(246,147,147);stroke-width:0.01" />
<line x1="0.260034" y1="-0.116628" x2="-0.0386258" y2="0.189997" style="stroke:rgb(246,147,147);stroke-width:0.01" />
<line x1="0.277758" y1="-0.0767487" x2="-0.0476043" y2="0.204811" style="stroke:rgb(246,147,147);stroke-width:0.01" />
<line x1="0.324248" y1="0.0278533" x2="-0.136151" y2="0.140149" style="stroke:rgb(246,147,147);stroke-width:0.01" />
<line x1="0.324248" y1="0.0278533" x2="-0.0744376" y2="0.298979" style="stroke:rgb(246,147,147);stroke-width:0.01" />
<line x1="-0.0791394" y1="0.338122" x2="0.24311" y2="0.423364" style="stroke:rgb(246,147,147);stroke-width:0.01" />
<line x1="-0.103632" y1="0.297258" x2="-0.0744376" y2="0.298979" style="stroke:rgb(246,147,147);stroke-width:0.01" />
</g>
</svg>
