<svg xmlns="http://www.w3.org/2000/svg" viewBox="-1.5 -1.5 3 3">
<g transform="scale(1, -1)">
<path d="M-0.280084 -0.344803 L0.110279 -0.224999 L0.096379 -0.132331 L0.304545 0.183388 L0.303004 0.190892 L0.199733 0.169690 L0.224381 0.228847 L0.216689 0.232052 L0.051899 0.164198 L0.035279 0.275001 L-0.164721 0.075001 L-0.148353 0.050449 L-0.412352 -0.272381 L-0.246181 -0.255722 L-0.290496 -0.339282 z " fill="rgb(245,195,195)" />
<path d="M-0.464721 -0.224999 L0.535279 -0.224999 L0.535279 0.775001 L-0.464721 0.775001  z" fill="none" stroke="rgb(128,128,128)" stroke-width="0.01" />
<line x1="0.0352787" y1="-0.224999" x2="0.304545" y2="0.183388" style="stroke:rgb(246,147,147);stroke-width:0.01" />
<line x1="0.300023" y1="0.18637" x2="0.303004" y2="0.190892" style="stroke:rgb(246,147,147);stroke-width:0.01" />
<line x1="0.0352787" y1="-0.224999" x2="0.224381" y2="0.228847" style="stroke:rgb(246,147,147);stroke-width:0.01" />
<line x1="-0.280084" y1="-0.344803" x2="0.110279" y2="-0.224999" style="stroke:rgb(246,147,147);stroke-width:0.01" />
<line x1="-0.290496" y1="-0.339282" x2="-0.282529" y2="-0.336837" style="stroke:rgb(246,147,147);stroke-width:0.01" />
<line x1="-0.290496" y1="-0.339282" x2="0.0352787" y2="0.275001" style="stroke:rgb(246,147,147);stroke-width:0.01" />
<line x1="-0.412352" y1="-0.272381" x2="0.0602787" y2="-0.224999" style="stroke:rgb(246,147,147);stroke-width:0.01" />
<line x1="-0.412352" y1="-0.272381" x2="0.0352787" y2="0.275001" style="stroke:rgb(246,147,147);stroke-width:0.01" />
<line x1="-0.280084" y1="-0.344803" x2="-0.290496" y2="-0.339282" style="stroke:rgb(246,147,147);stroke-width:0.01" />
<line x1="-0.282529" y1="-0.336837" x2="-0.287735" y2="-0.334076" style="stroke:rgb(246,147,147);stroke-width:0.01" />
<line x1="0.0352787" y1="-0.224999" x2="0.110279" y2="-0.224999" style="stroke:rgb(246,147,147);stroke-width:0.01" />
<line x1="-0.164721" y1="0.075001" x2="0.0352787" y2="0.275001" style="stroke:rgb(246,147,147);stroke-width:0.01" />
<line x1="0.0352787" y1="-0.224999" x2="0.0352787" y2="0.275001" style="stroke:rgb(246,147,147);stroke-width:0.01" />
<line x1="0.0602787" y1="-0.224999" x2="0.0352787" y2="0.275001" style="stroke:rgb(246,147,147);stroke-width:0.01" />
<line x1="-0.280084" y1="-0.344803" x2="-0.282529" y2="-0.336837" style="stroke:rgb(246,147,147);stroke-width:0.01" />
<line x1="0.110279" y1="-0.224999" x2="0.0352787" y2="0.275001" style="stroke:rgb(246,147,147);stroke-width:0.01" />
<line x1="0.218933" y1="0.226604" x2="0.224381" y2="0.228847" style="stroke:rgb(246,147,147);stroke-width:0.01" />
<line x1="-0.164721" y1="0.075001" x2="0.216689" y2="0.232052" style="stroke:rgb(246,147,147);stroke-width:0.01" />
<line x1="0.300023" y1="0.18637" x2="0.299252" y2="0.190121" style="stroke:rgb(246,147,147);stroke-width:0.01" />
<line x1="0.304545" y1="0.183388" x2="0.303004" y2="0.190892" style="stroke:rgb(246,147,147);stroke-width:0.01" />
<line x1="0.0352787" y1="-0.224999" x2="-0.139721" y2="0.100001" style="stroke:rgb(246,147,147);stroke-width:0.01" />
<line x1="0.0352787" y1="-0.224999" x2="-0.164721" y2="0.075001" style="stroke:rgb(246,147,147);stroke-width:0.01" />
<line x1="-0.139721" y1="0.100001" x2="0.303004" y2="0.190892" style="stroke:rgb(246,147,147);stroke-width:0.01" />
<line x1="0.218933" y1="0.226604" x2="0.216689" y2="0.232052" style="stroke:rgb(246,147,147);stroke-width:0.01" />
<line x1="0.222779" y1="0.225001" x2="0.218933" y2="0.226604" style="stroke:rgb(246,147,147);stroke-width:0.01" />
<line x1="0.224381" y1="0.228847" x2="0.216689" y2="0.232052" style="stroke:rgb(246,147,147);stroke-width:0.01" />
<line x1="0.304545" y1="0.183388" x2="0.300023" y2="0.18637" style="stroke:rgb(246,147,147);stroke-width:0.01" />
</g>
</svg>
