<svg xmlns="http://www.w3.org/2000/svg" viewBox="-1.5 -1.5 3 3">
<g transform="scale(1, -1)">
<path d="M-0.288383 -0.333415 L0.101980 -0.213611 L0.091775 -0.145576 L0.363761 0.140010 L0.363560 0.148257 L0.175851 0.143679 L0.216082 0.240235 L0.208390 0.243440 L0.043600 0.175586 L0.026980 0.286389 L-0.173020 0.086389 L-0.156652 0.061837 L-0.420651 -0.260992 L-0.254480 -0.244334 L-0.298794 -0.327894 z " fill="rgb(245,195,195)" />
<path d="M-0.473020 -0.213611 L0.526980 -0.213611 L0.526980 0.786389 L-0.473020 0.786389  z" fill="none" stroke="rgb(128,128,128)" stroke-width="0.01" />
<line x1="0.0269799" y1="-0.213611" x2="0.363761" y2="0.14001" style="stroke:rgb(246,147,147);stroke-width:0.01" />
<line x1="0.359537" y1="0.144033" x2="0.36356" y2="0.148257" style="stroke:rgb(246,147,147);stroke-width:0.01" />
<line x1="0.0269799" y1="-0.213611" x2="0.216082" y2="0.240235" style="stroke:rgb(246,147,147);stroke-width:0.01" />
<line x1="-0.288383" y1="-0.333415" x2="0.10198" y2="-0.213611" style="stroke:rgb(246,147,147);stroke-width:0.01" />
<line x1="-0.298794" y1="-0.327894" x2="-0.290828" y2="-0.325449" style="stroke:rgb(246,147,147);stroke-width:0.01" />
<line x1="-0.298794" y1="-0.327894" x2="0.0269799" y2="0.286389" style="stroke:rgb(246,147,147);stroke-width:0.01" />
<line x1="-0.420651" y1="-0.260992" x2="0.0519799" y2="-0.213611" style="stroke:rgb(246,147,147);stroke-width:0.01" />
<line x1="-0.420651" y1="-0.260992" x2="0.0269799" y2="0.286389" style="stroke:rgb(246,147,147);stroke-width:0.01" />
<line x1="-0.288383" y1="-0.333415" x2="-0.298794" y2="-0.327894" style="stroke:rgb(246,147,147);stroke-width:0.01" />
<line x1="-0.290828" y1="-0.325449" x2="-0.296034" y2="-0.322688" style="stroke:rgb(246,147,147);stroke-width:0.01" />
<line x1="0.0269799" y1="-0.213611" x2="0.10198" y2="-0.213611" style="stroke:rgb(246,147,147);stroke-width:0.01" />
<line x1="-0.17302" y1="0.0863891" x2="0.0269799" y2="0.286389" style="stroke:rgb(246,147,147);stroke-width:0.01" />
<line x1="0.0269799" y1="-0.213611" x2="0.0269799" y2="0.286389" style="stroke:rgb(246,147,147);stroke-width:0.01" />
<line x1="0.359537" y1="0.144033" x2="0.359437" y2="0.148156" style="stroke:rgb(246,147,147);stroke-width:0.01" />
<line x1="0.363761" y1="0.14001" x2="0.36356" y2="0.148257" style="stroke:rgb(246,147,147);stroke-width:0.01" />
<line x1="0.0519799" y1="-0.213611" x2="0.0269799" y2="0.286389" style="stroke:rgb(246,147,147);stroke-width:0.01" />
<line x1="-0.288383" y1="-0.333415" x2="-0.290828" y2="-0.325449" style="stroke:rgb(246,147,147);stroke-width:0.01" />
<line x1="0.10198" y1="-0.213611" x2="0.0269799" y2="0.286389" style="stroke:rgb(246,147,147);stroke-width:0.01" />
<line x1="0.210634" y1="0.237992" x2="0.216082" y2="0.240235" style="stroke:rgb(246,147,147);stroke-width:0.01" />
<line x1="-0.17302" y1="0.0863891" x2="0.20839" y2="0.24344" style="stroke:rgb(246,147,147);stroke-width:0.01" />
<line x1="0.0269799" y1="-0.213611" x2="-0.12302" y2="0.136389" style="stroke:rgb(246,147,147);stroke-width:0.01" />
<line x1="0.0269799" y1="-0.213611" x2="-0.17302" y2="0.0863891" style="stroke:rgb(246,147,147);stroke-width:0.01" />
<line x1="0.210634" y1="0.237992" x2="0.20839" y2="0.24344" style="stroke:rgb(246,147,147);stroke-width:0.01" />
<line x1="-0.12302" y1="0.136389" x2="0.36356" y2="0.148257" style="stroke:rgb(246,147,147);stroke-width:0.01" />
<line x1="0.363761" y1="0.14001" x2="0.359537" y2="0.144033" style="stroke:rgb(246,147,147);stroke-width:0.01" />
<line x1="0.21448" y1="0.236389" x2="0.210634" y2="0.237992" style="stroke:rgb(246,147,147);stroke-width:0.01" />
<line x1="0.216082" y1="0.240235" x2="0.20839" y2="0.24344" style="stroke:rgb(246,147,147);stroke-width:0.01" />
</g>
</svg>
