<svg xmlns="http://www.w3.org/2000/svg" viewBox="-1.5 -1.5 3 3">
<g transform="scale(1, -1)">
<path d="M-0.303269 -0.333126 L0.103026 -0.208432 L0.092821 -0.140397 L0.364808 0.145189 L0.364607 0.153436 L0.176897 0.148858 L0.217129 0.245414 L0.209437 0.248619 L0.044647 0.180765 L0.028026 0.291568 L-0.171974 0.091568 L-0.138289 0.041042 L-0.357196 -0.288704 L-0.355711 -0.296056 L-0.274958 -0.279742 z " fill="rgb(245,195,195)" />
<path d="M-0.471974 -0.208432 L0.528026 -0.208432 L0.528026 0.791568 L-0.471974 0.791568  z" fill="none" stroke="rgb(128,128,128)" stroke-width="0.01" />
<line x1="0.0280264" y1="-0.208432" x2="0.364808" y2="0.145189" style="stroke:rgb(246,147,147);stroke-width:0.01" />
<line x1="0.360584" y1="0.149212" x2="0.364607" y2="0.153436" style="stroke:rgb(246,147,147);stroke-width:0.01" />
<line x1="0.0280264" y1="-0.208432" x2="0.217129" y2="0.245414" style="stroke:rgb(246,147,147);stroke-width:0.01" />
<line x1="-0.303269" y1="-0.333126" x2="0.103026" y2="-0.208432" style="stroke:rgb(246,147,147);stroke-width:0.01" />
<line x1="-0.355711" y1="-0.296056" x2="0.0780264" y2="-0.208432" style="stroke:rgb(246,147,147);stroke-width:0.01" />
<line x1="-0.303269" y1="-0.333126" x2="0.0280264" y2="0.291568" style="stroke:rgb(246,147,147);stroke-width:0.01" />
<line x1="-0.355711" y1="-0.296056" x2="-0.352778" y2="-0.291637" style="stroke:rgb(246,147,147);stroke-width:0.01" />
<line x1="-0.357196" y1="-0.288704" x2="0.0280264" y2="0.291568" style="stroke:rgb(246,147,147);stroke-width:0.01" />
<line x1="-0.352778" y1="-0.291637" x2="-0.357196" y2="-0.288704" style="stroke:rgb(246,147,147);stroke-width:0.01" />
<line x1="0.0280264" y1="-0.208432" x2="0.103026" y2="-0.208432" style="stroke:rgb(246,147,147);stroke-width:0.01" />
<line x1="-0.171974" y1="0.091568" x2="0.0280264" y2="0.291568" style="stroke:rgb(246,147,147);stroke-width:0.01" />
<line x1="0.0280264" y1="-0.208432" x2="0.0280264" y2="0.291568" style="stroke:rgb(246,147,147);stroke-width:0.01" />
<line x1="-0.355711" y1="-0.296056" x2="-0.357196" y2="-0.288704" style="stroke:rgb(246,147,147);stroke-width:0.01" />
<line x1="-0.352036" y1="-0.295313" x2="-0.352778" y2="-0.291637" style="stroke:rgb(246,147,147);stroke-width:0.01" />
<line x1="0.360584" y1="0.149212" x2="0.360483" y2="0.153335" style="stroke:rgb(246,147,147);stroke-width:0.01" />
<line x1="0.364808" y1="0.145189" x2="0.364607" y2="0.153436" style="stroke:rgb(246,147,147);stroke-width:0.01" />
<line x1="0.0780264" y1="-0.208432" x2="0.0280264" y2="0.291568" style="stroke:rgb(246,147,147);stroke-width:0.01" />
<line x1="0.103026" y1="-0.208432" x2="0.0280264" y2="0.291568" style="stroke:rgb(246,147,147);stroke-width:0.01" />
<line x1="0.21168" y1="0.243171" x2="0.217129" y2="0.245414" style="stroke:rgb(246,147,147);stroke-width:0.01" />
<line x1="-0.171974" y1="0.091568" x2="0.209437" y2="0.248619" style="stroke:rgb(246,147,147);stroke-width:0.01" />
<line x1="0.0280264" y1="-0.208432" x2="-0.121974" y2="0.141568" style="stroke:rgb(246,147,147);stroke-width:0.01" />
<line x1="0.0280264" y1="-0.208432" x2="-0.171974" y2="0.091568" style="stroke:rgb(246,147,147);stroke-width:0.01" />
<line x1="0.21168" y1="0.243171" x2="0.209437" y2="0.248619" style="stroke:rgb(246,147,147);stroke-width:0.01" />
<line x1="-0.121974" y1="0.141568" x2="0.364607" y2="0.153436" style="stroke:rgb(246,147,147);stroke-width:0.01" />
<line x1="0.364808" y1="0.145189" x2="0.360584" y2="0.149212" style="stroke:rgb(246,147,147);stroke-width:0.01" />
<line x1="0.215526" y1="0.241568" x2="0.21168" y2="0.243171" style="stroke:rgb(246,147,147);stroke-width:0.01" />
<line x1="0.217129" y1="0.245414" x2="0.209437" y2="0.248619" style="stroke:rgb(246,147,147);stroke-width:0.01" />
</g>
</svg>
