<svg xmlns="http://www.w3.org/2000/svg" viewBox="-1.5 -1.5 3 3">
<g transform="scale(1, -1)">
<path d="M0.233963 -0.489355 L0.471269 -0.386749 L0.469692 -0.364291 L0.451679 -0.365555 L0.301210 -0.202773 L0.230998 0.274438 L-0.095501 0.226401 L-0.192237 0.331053 L-0.246536 0.280863 L-0.294246 0.344476 L-0.403322 0.299027 L-0.378645 0.239804 L-0.429019 0.177331 L-0.119305 -0.364669 z " fill="rgb(245,195,195)" />
<path d="M-0.172552 -0.854819 L0.827448 -0.854819 L0.827448 0.145181 L-0.172552 0.145181  z" fill="none" stroke="rgb(128,128,128)" stroke-width="0.01" />
<line x1="0.233963" y1="-0.489355" x2="0.26497" y2="-0.419034" style="stroke:rgb(246,147,147);stroke-width:0.01" />
<line x1="0.26497" y1="-0.419034" x2="0.301364" y2="-0.37611" style="stroke:rgb(246,147,147);stroke-width:0.01" />
<line x1="-0.119305" y1="-0.364669" x2="-0.0454628" y2="0.0127653" style="stroke:rgb(246,147,147);stroke-width:0.01" />
<line x1="0.471269" y1="-0.386749" x2="0.469692" y2="-0.364291" style="stroke:rgb(246,147,147);stroke-width:0.01" />
<line x1="0.303063" y1="-0.394101" x2="0.301364" y2="-0.37611" style="stroke:rgb(246,147,147);stroke-width:0.01" />
<line x1="0.33683" y1="-0.444877" x2="0.230998" y2="0.274438" style="stroke:rgb(246,147,147);stroke-width:0.01" />
<line x1="-0.293432" y1="0.035291" x2="-0.403322" y2="0.299027" style="stroke:rgb(246,147,147);stroke-width:0.01" />
<line x1="0.26497" y1="-0.419034" x2="0.303063" y2="-0.394101" style="stroke:rgb(246,147,147);stroke-width:0.01" />
<line x1="-0.119305" y1="-0.364669" x2="-0.429019" y2="0.177331" style="stroke:rgb(246,147,147);stroke-width:0.01" />
<line x1="0.233963" y1="-0.489355" x2="0.471269" y2="-0.386749" style="stroke:rgb(246,147,147);stroke-width:0.01" />
<line x1="-0.293432" y1="0.035291" x2="-0.186197" y2="0.200411" style="stroke:rgb(246,147,147);stroke-width:0.01" />
<line x1="-0.0454628" y1="0.0127653" x2="-0.294246" y2="0.344476" style="stroke:rgb(246,147,147);stroke-width:0.01" />
<line x1="0.33683" y1="-0.444877" x2="0.291528" y2="-0.387711" style="stroke:rgb(246,147,147);stroke-width:0.01" />
<line x1="0.301364" y1="-0.37611" x2="0.469692" y2="-0.364291" style="stroke:rgb(246,147,147);stroke-width:0.01" />
<line x1="0.233963" y1="-0.489355" x2="-0.119305" y2="-0.364669" style="stroke:rgb(246,147,147);stroke-width:0.01" />
<line x1="-0.429019" y1="0.177331" x2="-0.294246" y2="0.344476" style="stroke:rgb(246,147,147);stroke-width:0.01" />
<line x1="0.471269" y1="-0.386749" x2="-0.192237" y2="0.331053" style="stroke:rgb(246,147,147);stroke-width:0.01" />
<line x1="0.303063" y1="-0.394101" x2="0.291528" y2="-0.387711" style="stroke:rgb(246,147,147);stroke-width:0.01" />
<line x1="-0.404659" y1="0.1347" x2="-0.192237" y2="0.331053" style="stroke:rgb(246,147,147);stroke-width:0.01" />
<line x1="-0.0454628" y1="0.0127653" x2="-0.293432" y2="0.035291" style="stroke:rgb(246,147,147);stroke-width:0.01" />
<line x1="-0.404659" y1="0.1347" x2="-0.186197" y2="0.200411" style="stroke:rgb(246,147,147);stroke-width:0.01" />
<line x1="-0.429019" y1="0.177331" x2="0.230998" y2="0.274438" style="stroke:rgb(246,147,147);stroke-width:0.01" />
<line x1="-0.403322" y1="0.299027" x2="-0.294246" y2="0.344476" style="stroke:rgb(246,147,147);stroke-width:0.01" />
</g>
</svg>
