<svg xmlns="http://www.w3.org/2000/svg" viewBox="-1.5 -1.5 3 3">
<g transform="scale(1, -1)">
<path d="M-0.001689 -0.197635 L0.157095 -0.119932 L0.197635 -0.001689 L0.119932 0.157095 L0.001689 0.197635 L-0.157095 0.119932 L-0.197635 0.001689 L-0.119932 -0.157095 z M0.038851 -0.079392 L-0.079392 -0.038851 L-0.038851 0.079392 L0.079392 0.038851 z " fill="rgb(245,195,195)" />
<path d="M0.259411 -0.315099 L1.259411 -0.315099 L1.259411 0.684901 L0.259411 0.684901  z" fill="none" stroke="rgb(128,128,128)" stroke-width="0.01" />
<line x1="-0.119932" y1="-0.157095" x2="-0.197635" y2="0.00168919" style="stroke:rgb(246,147,147);stroke-width:0.01" />
<line x1="-0.00168919" y1="-0.197635" x2="-0.119932" y2="-0.157095" style="stroke:rgb(246,147,147);stroke-width:0.01" />
<line x1="0.197635" y1="-0.00168919" x2="0.119932" y2="0.157095" style="stroke:rgb(246,147,147);stroke-width:0.01" />
<line x1="0.157095" y1="-0.119932" x2="0.197635" y2="-0.00168919" style="stroke:rgb(246,147,147);stroke-width:0.01" />
<line x1="-0.00168919" y1="-0.197635" x2="0.119932" y2="0.157095" style="stroke:rgb(246,147,147);stroke-width:0.01" />
<line x1="-0.119932" y1="-0.157095" x2="0.00168919" y2="0.197635" style="stroke:rgb(246,147,147);stroke-width:0.01" />
<line x1="0.157095" y1="-0.119932" x2="-0.197635" y2="0.00168919" style="stroke:rgb(246,147,147);stroke-width:0.01" />
<line x1="-0.197635" y1="0.00168919" x2="-0.157095" y2="0.119932" style="stroke:rgb(246,147,147);stroke-width:0.01" />
<line x1="-0.00168919" y1="-0.197635" x2="0.157095" y2="-0.119932" style="stroke:rgb(246,147,147);stroke-width:0.01" />
<line x1="0.197635" y1="-0.00168919" x2="-0.157095" y2="0.119932" style="stroke:rgb(246,147,147);stroke-width:0.01" />
<line x1="0.119932" y1="0.157095" x2="0.00168919" y2="0.197635" style="stroke:rgb(246,147,147);stroke-width:0.01" />
<line x1="-0.157095" y1="0.119932" x2="0.00168919" y2="0.197635" style="stroke:rgb(246,147,147);stroke-width:0.01" />
</g>
</svg>
