<svg xmlns="http://www.w3.org/2000/svg" viewBox="-1.5 -1.5 3 3">
<g transform="scale(1, -1)">
<path d="M-0.261100 0.117464 L-0.102317 0.195166 L-0.061776 0.313410 L-0.139479 0.472193 L-0.257722 0.512734 L-0.416506 0.435031 L-0.457046 0.316788 L-0.379344 0.158004 z M-0.220560 0.235707 L-0.338803 0.276247 L-0.298263 0.394491 L-0.180019 0.353950 z " fill="rgb(245,195,195)" />
<path d="M0.000000 0.000000 L1.000000 0.000000 L1.000000 1.000000 L0.000000 1.000000  z" fill="none" stroke="rgb(128,128,128)" stroke-width="0.01" />
<line x1="-0.379344" y1="0.158004" x2="-0.457046" y2="0.316788" style="stroke:rgb(246,147,147);stroke-width:0.01" />
<line x1="-0.2611" y1="0.117464" x2="-0.379344" y2="0.158004" style="stroke:rgb(246,147,147);stroke-width:0.01" />
<line x1="-0.0617761" y1="0.31341" x2="-0.139479" y2="0.472193" style="stroke:rgb(246,147,147);stroke-width:0.01" />
<line x1="-0.102317" y1="0.195166" x2="-0.0617761" y2="0.31341" style="stroke:rgb(246,147,147);stroke-width:0.01" />
<line x1="-0.2611" y1="0.117464" x2="-0.139479" y2="0.472193" style="stroke:rgb(246,147,147);stroke-width:0.01" />
<line x1="-0.379344" y1="0.158004" x2="-0.257722" y2="0.512734" style="stroke:rgb(246,147,147);stroke-width:0.01" />
<line x1="-0.102317" y1="0.195166" x2="-0.457046" y2="0.316788" style="stroke:rgb(246,147,147);stroke-width:0.01" />
<line x1="-0.457046" y1="0.316788" x2="-0.416506" y2="0.435031" style="stroke:rgb(246,147,147);stroke-width:0.01" />
<line x1="-0.2611" y1="0.117464" x2="-0.102317" y2="0.195166" style="stroke:rgb(246,147,147);stroke-width:0.01" />
<line x1="-0.0617761" y1="0.31341" x2="-0.416506" y2="0.435031" style="stroke:rgb(246,147,147);stroke-width:0.01" />
<line x1="-0.139479" y1="0.472193" x2="-0.257722" y2="0.512734" style="stroke:rgb(246,147,147);stroke-width:0.01" />
<line x1="-0.416506" y1="0.435031" x2="-0.257722" y2="0.512734" style="stroke:rgb(246,147,147);stroke-width:0.01" />
</g>
</svg>
