<svg xmlns="http://www.w3.org/2000/svg" viewBox="-1.5 -1.5 3 3">
<g transform="scale(1, -1)">
<path d="M-0.108038 -0.409039 L0.185811 -0.185898 L0.274869 -0.258988 L0.376374 -0.135308 L0.465214 0.026274 L0.480230 0.037677 L0.498324 0.086496 L-0.373956 0.485293 L-0.447379 0.437257 L-0.498131 0.375417 L-0.341904 0.247201 L-0.265402 -0.321081 L-0.246011 -0.385300 z " fill="rgb(245,195,195)" />
<path d="M-0.451141 -1.519729 L0.548859 -1.519729 L0.548859 -0.519729 L-0.451141 -0.519729  z" fill="none" stroke="rgb(128,128,128)" stroke-width="0.01" />
<line x1="0.48023" y1="0.0376772" x2="0.498324" y2="0.0864957" style="stroke:rgb(246,147,147);stroke-width:0.01" />
<line x1="0.376374" y1="-0.135308" x2="0.451449" y2="0.0926471" style="stroke:rgb(246,147,147);stroke-width:0.01" />
<line x1="0.376374" y1="-0.135308" x2="0.498324" y2="0.0864957" style="stroke:rgb(246,147,147);stroke-width:0.01" />
<line x1="-0.108038" y1="-0.409039" x2="-0.0513211" y2="0.148081" style="stroke:rgb(246,147,147);stroke-width:0.01" />
<line x1="-0.265402" y1="-0.321081" x2="-0.249934" y2="0.282459" style="stroke:rgb(246,147,147);stroke-width:0.01" />
<line x1="-0.265402" y1="-0.321081" x2="-0.373956" y2="0.485293" style="stroke:rgb(246,147,147);stroke-width:0.01" />
<line x1="0.274869" y1="-0.258988" x2="0.376374" y2="-0.135308" style="stroke:rgb(246,147,147);stroke-width:0.01" />
<line x1="-0.246011" y1="-0.3853" x2="-0.265402" y2="-0.321081" style="stroke:rgb(246,147,147);stroke-width:0.01" />
<line x1="0.48023" y1="0.0376772" x2="0.466642" y2="0.100981" style="stroke:rgb(246,147,147);stroke-width:0.01" />
<line x1="-0.327133" y1="0.137472" x2="-0.249934" y2="0.282459" style="stroke:rgb(246,147,147);stroke-width:0.01" />
<line x1="-0.249934" y1="0.282459" x2="-0.337027" y2="0.468409" style="stroke:rgb(246,147,147);stroke-width:0.01" />
<line x1="-0.246011" y1="-0.3853" x2="-0.027921" y2="-0.179298" style="stroke:rgb(246,147,147);stroke-width:0.01" />
<line x1="-0.108038" y1="-0.409039" x2="0.48023" y2="0.0376772" style="stroke:rgb(246,147,147);stroke-width:0.01" />
<line x1="-0.498131" y1="0.375417" x2="-0.447379" y2="0.437257" style="stroke:rgb(246,147,147);stroke-width:0.01" />
<line x1="-0.027921" y1="-0.179298" x2="-0.327133" y2="0.137472" style="stroke:rgb(246,147,147);stroke-width:0.01" />
<line x1="0.451449" y1="0.0926471" x2="0.466642" y2="0.100981" style="stroke:rgb(246,147,147);stroke-width:0.01" />
<line x1="0.274869" y1="-0.258988" x2="-0.498131" y2="0.375417" style="stroke:rgb(246,147,147);stroke-width:0.01" />
<line x1="-0.108038" y1="-0.409039" x2="-0.246011" y2="-0.3853" style="stroke:rgb(246,147,147);stroke-width:0.01" />
<line x1="0.495537" y1="0.0814265" x2="0.482485" y2="0.0937371" style="stroke:rgb(246,147,147);stroke-width:0.01" />
<line x1="-0.447379" y1="0.437257" x2="-0.373956" y2="0.485293" style="stroke:rgb(246,147,147);stroke-width:0.01" />
<line x1="0.498324" y1="0.0864957" x2="-0.373956" y2="0.485293" style="stroke:rgb(246,147,147);stroke-width:0.01" />
<line x1="0.482485" y1="0.0937371" x2="-0.0513211" y2="0.148081" style="stroke:rgb(246,147,147);stroke-width:0.01" />
<line x1="0.495537" y1="0.0814265" x2="0.451449" y2="0.0926471" style="stroke:rgb(246,147,147);stroke-width:0.01" />
<line x1="-0.447379" y1="0.437257" x2="-0.337027" y2="0.468409" style="stroke:rgb(246,147,147);stroke-width:0.01" />
</g>
</svg>
