<svg xmlns="http://www.w3.org/2000/svg" viewBox="-1.5 -1.5 3 3">
<g transform="scale(1, -1)">
<path d="M0.343103 1.110690 L0.636952 1.333832 L0.726011 1.260741 L0.827516 1.384421 L0.916355 1.546003 L0.931372 1.557407 L0.949466 1.606225 L0.077185 2.005022 L0.003763 1.956987 L-0.046990 1.895146 L0.109237 1.766930 L0.185739 1.198648 L0.205130 1.134430 z " fill="rgb(245,195,195)" />
<path d="M0.000000 0.000000 L1.000000 0.000000 L1.000000 1.000000 L0.000000 1.000000  z" fill="none" stroke="rgb(128,128,128)" stroke-width="0.01" />
<line x1="0.931372" y1="1.55741" x2="0.949466" y2="1.60623" style="stroke:rgb(246,147,147);stroke-width:0.01" />
<line x1="0.827516" y1="1.38442" x2="0.902591" y2="1.61238" style="stroke:rgb(246,147,147);stroke-width:0.01" />
<line x1="0.827516" y1="1.38442" x2="0.949466" y2="1.60623" style="stroke:rgb(246,147,147);stroke-width:0.01" />
<line x1="0.343103" y1="1.11069" x2="0.39982" y2="1.66781" style="stroke:rgb(246,147,147);stroke-width:0.01" />
<line x1="0.185739" y1="1.19865" x2="0.201207" y2="1.80219" style="stroke:rgb(246,147,147);stroke-width:0.01" />
<line x1="0.185739" y1="1.19865" x2="0.0771851" y2="2.00502" style="stroke:rgb(246,147,147);stroke-width:0.01" />
<line x1="0.726011" y1="1.26074" x2="0.827516" y2="1.38442" style="stroke:rgb(246,147,147);stroke-width:0.01" />
<line x1="0.20513" y1="1.13443" x2="0.185739" y2="1.19865" style="stroke:rgb(246,147,147);stroke-width:0.01" />
<line x1="0.931372" y1="1.55741" x2="0.917783" y2="1.62071" style="stroke:rgb(246,147,147);stroke-width:0.01" />
<line x1="0.124009" y1="1.6572" x2="0.201207" y2="1.80219" style="stroke:rgb(246,147,147);stroke-width:0.01" />
<line x1="0.201207" y1="1.80219" x2="0.114114" y2="1.98814" style="stroke:rgb(246,147,147);stroke-width:0.01" />
<line x1="0.20513" y1="1.13443" x2="0.42322" y2="1.34043" style="stroke:rgb(246,147,147);stroke-width:0.01" />
<line x1="0.343103" y1="1.11069" x2="0.931372" y2="1.55741" style="stroke:rgb(246,147,147);stroke-width:0.01" />
<line x1="-0.0469896" y1="1.89515" x2="0.00376286" y2="1.95699" style="stroke:rgb(246,147,147);stroke-width:0.01" />
<line x1="0.42322" y1="1.34043" x2="0.124009" y2="1.6572" style="stroke:rgb(246,147,147);stroke-width:0.01" />
<line x1="0.902591" y1="1.61238" x2="0.917783" y2="1.62071" style="stroke:rgb(246,147,147);stroke-width:0.01" />
<line x1="0.726011" y1="1.26074" x2="-0.0469896" y2="1.89515" style="stroke:rgb(246,147,147);stroke-width:0.01" />
<line x1="0.343103" y1="1.11069" x2="0.20513" y2="1.13443" style="stroke:rgb(246,147,147);stroke-width:0.01" />
<line x1="0.946678" y1="1.60116" x2="0.933626" y2="1.61347" style="stroke:rgb(246,147,147);stroke-width:0.01" />
<line x1="0.00376286" y1="1.95699" x2="0.0771851" y2="2.00502" style="stroke:rgb(246,147,147);stroke-width:0.01" />
<line x1="0.949466" y1="1.60623" x2="0.0771851" y2="2.00502" style="stroke:rgb(246,147,147);stroke-width:0.01" />
<line x1="0.933626" y1="1.61347" x2="0.39982" y2="1.66781" style="stroke:rgb(246,147,147);stroke-width:0.01" />
<line x1="0.946678" y1="1.60116" x2="0.902591" y2="1.61238" style="stroke:rgb(246,147,147);stroke-width:0.01" />
<line x1="0.00376286" y1="1.95699" x2="0.114114" y2="1.98814" style="stroke:rgb(246,147,147);stroke-width:0.01" />
</g>
</svg>
