<svg xmlns="http://www.w3.org/2000/svg" viewBox="-1.5 -1.5 3 3">
<g transform="scale(1, -1)">
<path d="M0.101124 0.063625 L0.213483 0.118400 L0.271067 0.285535 L0.216292 0.397895 L0.049157 0.455479 L-0.063202 0.400703 L-0.120787 0.233569 L-0.066011 0.121209 z M0.046348 0.175984 L-0.008427 0.288344 L0.103933 0.343119 L0.158708 0.230760 z " fill="rgb(245,195,195)" />
<path d="M0.000000 0.000000 L1.000000 0.000000 L1.000000 1.000000 L0.000000 1.000000  z" fill="none" stroke="rgb(128,128,128)" stroke-width="0.01" />
<line x1="0.213483" y1="0.1184" x2="0.271067" y2="0.285535" style="stroke:rgb(246,147,147);stroke-width:0.01" />
<line x1="-0.0660112" y1="0.121209" x2="-0.120787" y2="0.233569" style="stroke:rgb(246,147,147);stroke-width:0.01" />
<line x1="0.101124" y1="0.0636248" x2="0.213483" y2="0.1184" style="stroke:rgb(246,147,147);stroke-width:0.01" />
<line x1="0.101124" y1="0.0636248" x2="-0.0632022" y2="0.400703" style="stroke:rgb(246,147,147);stroke-width:0.01" />
<line x1="-0.120787" y1="0.233569" x2="-0.0632022" y2="0.400703" style="stroke:rgb(246,147,147);stroke-width:0.01" />
<line x1="0.101124" y1="0.0636248" x2="-0.0660112" y2="0.121209" style="stroke:rgb(246,147,147);stroke-width:0.01" />
<line x1="0.213483" y1="0.1184" x2="0.0491573" y2="0.455479" style="stroke:rgb(246,147,147);stroke-width:0.01" />
<line x1="-0.0660112" y1="0.121209" x2="0.271067" y2="0.285535" style="stroke:rgb(246,147,147);stroke-width:0.01" />
<line x1="0.271067" y1="0.285535" x2="0.216292" y2="0.397895" style="stroke:rgb(246,147,147);stroke-width:0.01" />
<line x1="-0.120787" y1="0.233569" x2="0.216292" y2="0.397895" style="stroke:rgb(246,147,147);stroke-width:0.01" />
<line x1="-0.0632022" y1="0.400703" x2="0.0491573" y2="0.455479" style="stroke:rgb(246,147,147);stroke-width:0.01" />
<line x1="0.216292" y1="0.397895" x2="0.0491573" y2="0.455479" style="stroke:rgb(246,147,147);stroke-width:0.01" />
</g>
</svg>
