<svg xmlns="http://www.w3.org/2000/svg" viewBox="-1.5 -1.5 3 3">
<g transform="scale(1, -1)">
<path d="M0.025983 -0.195927 L0.138343 -0.141152 L0.195927 0.025983 L0.141152 0.138343 L-0.025983 0.195927 L-0.138343 0.141152 L-0.195927 -0.025983 L-0.141152 -0.138343 z M-0.028792 -0.083567 L-0.083567 0.028792 L0.028792 0.083567 L0.083567 -0.028792 z " fill="rgb(245,195,195)" />
<path d="M-0.075140 -0.259552 L0.924860 -0.259552 L0.924860 0.740448 L-0.075140 0.740448  z" fill="none" stroke="rgb(128,128,128)" stroke-width="0.01" />
<line x1="0.138343" y1="-0.141152" x2="0.195927" y2="0.0259831" style="stroke:rgb(246,147,147);stroke-width:0.01" />
<line x1="-0.141152" y1="-0.138343" x2="-0.195927" y2="-0.0259831" style="stroke:rgb(246,147,147);stroke-width:0.01" />
<line x1="0.0259831" y1="-0.195927" x2="0.138343" y2="-0.141152" style="stroke:rgb(246,147,147);stroke-width:0.01" />
<line x1="0.0259831" y1="-0.195927" x2="-0.138343" y2="0.141152" style="stroke:rgb(246,147,147);stroke-width:0.01" />
<line x1="-0.195927" y1="-0.0259831" x2="-0.138343" y2="0.141152" style="stroke:rgb(246,147,147);stroke-width:0.01" />
<line x1="0.0259831" y1="-0.195927" x2="-0.141152" y2="-0.138343" style="stroke:rgb(246,147,147);stroke-width:0.01" />
<line x1="0.138343" y1="-0.141152" x2="-0.0259831" y2="0.195927" style="stroke:rgb(246,147,147);stroke-width:0.01" />
<line x1="-0.141152" y1="-0.138343" x2="0.195927" y2="0.0259831" style="stroke:rgb(246,147,147);stroke-width:0.01" />
<line x1="0.195927" y1="0.0259831" x2="0.141152" y2="0.138343" style="stroke:rgb(246,147,147);stroke-width:0.01" />
<line x1="-0.195927" y1="-0.0259831" x2="0.141152" y2="0.138343" style="stroke:rgb(246,147,147);stroke-width:0.01" />
<line x1="-0.138343" y1="0.141152" x2="-0.0259831" y2="0.195927" style="stroke:rgb(246,147,147);stroke-width:0.01" />
<line x1="0.141152" y1="0.138343" x2="-0.0259831" y2="0.195927" style="stroke:rgb(246,147,147);stroke-width:0.01" />
</g>
</svg>
