<svg xmlns="http://www.w3.org/2000/svg" viewBox="-1.5 -1.5 3 3">
<g transform="scale(1, -1)">
<path d="M0.035633 -0.428333 L0.278530 -0.058952 L0.239159 0.017575 L0.214340 0.113250 L0.192812 0.107665 L0.112935 0.262926 L-0.043006 0.298733 L-0.294823 0.274472 L-0.366436 -0.037412 L-0.187441 -0.211444 L-0.181704 -0.338480 z " fill="rgb(245,195,195)" />
<path d="M0.436012 -1.121689 L1.436012 -1.121689 L1.436012 -0.121689 L0.436012 -0.121689  z" fill="none" stroke="rgb(128,128,128)" stroke-width="0.01" />
<line x1="-0.0965977" y1="-0.299768" x2="-0.10604" y2="-0.278789" style="stroke:rgb(246,147,147);stroke-width:0.01" />
<line x1="-0.262363" y1="0.201353" x2="-0.294823" y2="0.274472" style="stroke:rgb(246,147,147);stroke-width:0.01" />
<line x1="-0.181704" y1="-0.33848" x2="-0.19578" y2="-0.0267814" style="stroke:rgb(246,147,147);stroke-width:0.01" />
<line x1="0.264533" y1="-0.0802375" x2="0.21434" y2="0.11325" style="stroke:rgb(246,147,147);stroke-width:0.01" />
<line x1="-0.00697597" y1="-0.410717" x2="0.0667811" y2="-0.110855" style="stroke:rgb(246,147,147);stroke-width:0.01" />
<line x1="-0.208731" y1="-0.0977199" x2="-0.19578" y2="-0.0267814" style="stroke:rgb(246,147,147);stroke-width:0.01" />
<line x1="0.0356333" y1="-0.428333" x2="-0.366436" y2="-0.0374117" style="stroke:rgb(246,147,147);stroke-width:0.01" />
<line x1="0.27853" y1="-0.0589524" x2="0.112935" y2="0.262926" style="stroke:rgb(246,147,147);stroke-width:0.01" />
<line x1="0.0735545" y1="-0.370665" x2="-0.208731" y2="-0.0977199" style="stroke:rgb(246,147,147);stroke-width:0.01" />
<line x1="-0.366436" y1="-0.0374117" x2="-0.294823" y2="0.274472" style="stroke:rgb(246,147,147);stroke-width:0.01" />
<line x1="-0.114335" y1="-0.282523" x2="0.112935" y2="0.262926" style="stroke:rgb(246,147,147);stroke-width:0.01" />
<line x1="-0.00697597" y1="-0.410717" x2="0.143458" y2="-0.161383" style="stroke:rgb(246,147,147);stroke-width:0.01" />
<line x1="0.0356333" y1="-0.428333" x2="0.27853" y2="-0.0589524" style="stroke:rgb(246,147,147);stroke-width:0.01" />
<line x1="0.0356333" y1="-0.428333" x2="-0.181704" y2="-0.33848" style="stroke:rgb(246,147,147);stroke-width:0.01" />
<line x1="0.0735545" y1="-0.370665" x2="-0.0965977" y2="-0.299768" style="stroke:rgb(246,147,147);stroke-width:0.01" />
<line x1="0.143458" y1="-0.161383" x2="-0.0649253" y2="-0.0356569" style="stroke:rgb(246,147,147);stroke-width:0.01" />
<line x1="-0.181704" y1="-0.33848" x2="0.0667811" y2="-0.110855" style="stroke:rgb(246,147,147);stroke-width:0.01" />
<line x1="-0.114335" y1="-0.282523" x2="-0.10604" y2="-0.278789" style="stroke:rgb(246,147,147);stroke-width:0.01" />
<line x1="0.0667811" y1="-0.110855" x2="0.264533" y2="-0.0802375" style="stroke:rgb(246,147,147);stroke-width:0.01" />
<line x1="0.27853" y1="-0.0589524" x2="-0.19578" y2="-0.0267814" style="stroke:rgb(246,147,147);stroke-width:0.01" />
<line x1="-0.208731" y1="-0.0977199" x2="-0.0649253" y2="-0.0356569" style="stroke:rgb(246,147,147);stroke-width:0.01" />
<line x1="-0.366436" y1="-0.0374117" x2="0.21434" y2="0.11325" style="stroke:rgb(246,147,147);stroke-width:0.01" />
<line x1="0.112935" y1="0.262926" x2="-0.0430064" y2="0.298733" style="stroke:rgb(246,147,147);stroke-width:0.01" />
<line x1="-0.262363" y1="0.201353" x2="-0.0430064" y2="0.298733" style="stroke:rgb(246,147,147);stroke-width:0.01" />
<line x1="-0.294823" y1="0.274472" x2="-0.0430064" y2="0.298733" style="stroke:rgb(246,147,147);stroke-width:0.01" />
</g>
</svg>
