<svg xmlns="http://www.w3.org/2000/svg" viewBox="-1.5 -1.5 3 3">
<g transform="scale(1, -1)">
<path d="M0.490820 -0.146437 L0.991281 0.601587 L0.682877 0.807923 L0.705309 0.940950 L0.409485 0.990834 L0.339650 0.815149 L0.268490 -0.034814 z " fill="rgb(245,195,195)" />
<path d="M0.000000 0.000000 L1.000000 0.000000 L1.000000 1.000000 L0.000000 1.000000  z" fill="none" stroke="rgb(128,128,128)" stroke-width="0.01" />
<line x1="0.49082" y1="-0.146437" x2="0.991281" y2="0.601587" style="stroke:rgb(246,147,147);stroke-width:0.01" />
<line x1="0.49082" y1="-0.146437" x2="0.524257" y2="-0.0521927" style="stroke:rgb(246,147,147);stroke-width:0.01" />
<line x1="0.36" y1="0.02" x2="0.393846" y2="0.0492308" style="stroke:rgb(246,147,147);stroke-width:0.01" />
<line x1="0.382857" y1="0.0228571" x2="0.393846" y2="0.0492308" style="stroke:rgb(246,147,147);stroke-width:0.01" />
<line x1="0.26849" y1="-0.0348143" x2="0.506286" y2="0.0382857" style="stroke:rgb(246,147,147);stroke-width:0.01" />
<line x1="0.572286" y1="0.152087" x2="0.705309" y2="0.94095" style="stroke:rgb(246,147,147);stroke-width:0.01" />
<line x1="0.284318" y1="0.154243" x2="0.434467" y2="0.297021" style="stroke:rgb(246,147,147);stroke-width:0.01" />
<line x1="0.393846" y1="0.0492308" x2="0.498251" y2="0.0757462" style="stroke:rgb(246,147,147);stroke-width:0.01" />
<line x1="0.36" y1="0.02" x2="0.506286" y2="0.0382857" style="stroke:rgb(246,147,147);stroke-width:0.01" />
<line x1="0.26849" y1="-0.0348143" x2="0.33965" y2="0.815149" style="stroke:rgb(246,147,147);stroke-width:0.01" />
<line x1="0.276571" y1="0.0617144" x2="0.572286" y2="0.152087" style="stroke:rgb(246,147,147);stroke-width:0.01" />
<line x1="0.274455" y1="0.036435" x2="0.498251" y2="0.0757462" style="stroke:rgb(246,147,147);stroke-width:0.01" />
<line x1="0.33965" y1="0.815149" x2="0.409485" y2="0.990834" style="stroke:rgb(246,147,147);stroke-width:0.01" />
<line x1="0.49082" y1="-0.146437" x2="0.26849" y2="-0.0348143" style="stroke:rgb(246,147,147);stroke-width:0.01" />
<line x1="0.506286" y1="0.0382857" x2="0.33965" y2="0.815149" style="stroke:rgb(246,147,147);stroke-width:0.01" />
<line x1="0.524257" y1="-0.0521927" x2="0.274455" y2="0.036435" style="stroke:rgb(246,147,147);stroke-width:0.01" />
<line x1="0.36" y1="0.02" x2="0.276571" y2="0.0617144" style="stroke:rgb(246,147,147);stroke-width:0.01" />
<line x1="0.382857" y1="0.0228571" x2="0.284318" y2="0.154243" style="stroke:rgb(246,147,147);stroke-width:0.01" />
<line x1="0.572286" y1="0.152087" x2="0.434467" y2="0.297021" style="stroke:rgb(246,147,147);stroke-width:0.01" />
<line x1="0.991281" y1="0.601587" x2="0.409485" y2="0.990834" style="stroke:rgb(246,147,147);stroke-width:0.01" />
<line x1="0.705309" y1="0.94095" x2="0.409485" y2="0.990834" style="stroke:rgb(246,147,147);stroke-width:0.01" />
</g>
</svg>
