<svg xmlns="http://www.w3.org/2000/svg" viewBox="-1.5 -1.5 3 3">
<g transform="scale(1, -1)">
<path d="M0.080308 -0.440205 L0.571118 0.189038 L0.571118 0.199010 L-0.428882 0.199010 L-0.428882 0.013112 L-0.364780 -0.159965 z " fill="rgb(245,195,195)" />
<path d="M-0.428882 -0.800990 L0.571118 -0.800990 L0.571118 0.199010 L-0.428882 0.199010  z" fill="none" stroke="rgb(128,128,128)" stroke-width="0.01" />
<line x1="0.0803081" y1="-0.440205" x2="0.127177" y2="-0.345942" style="stroke:rgb(246,147,147);stroke-width:0.01" />
<line x1="0.0803081" y1="-0.440205" x2="0.571118" y2="0.189038" style="stroke:rgb(246,147,147);stroke-width:0.01" />
<line x1="0.00508922" y1="-0.392845" x2="0.0839675" y2="-0.245414" style="stroke:rgb(246,147,147);stroke-width:0.01" />
<line x1="0.00508922" y1="-0.392845" x2="0.0518162" y2="-0.329103" style="stroke:rgb(246,147,147);stroke-width:0.01" />
<line x1="-0.172863" y1="-0.203272" x2="-0.152369" y2="-0.140315" style="stroke:rgb(246,147,147);stroke-width:0.01" />
<line x1="-0.237431" y1="-0.240147" x2="-0.23542" y2="-0.212235" style="stroke:rgb(246,147,147);stroke-width:0.01" />
<line x1="0.0870414" y1="-0.431573" x2="0.0882034" y2="-0.288075" style="stroke:rgb(246,147,147);stroke-width:0.01" />
<line x1="-0.254842" y1="-0.229184" x2="-0.232243" y2="-0.147704" style="stroke:rgb(246,147,147);stroke-width:0.01" />
<line x1="-0.428882" y1="0.0131122" x2="-0.428882" y2="0.19901" style="stroke:rgb(246,147,147);stroke-width:0.01" />
<line x1="0.571118" y1="0.189038" x2="0.571118" y2="0.19901" style="stroke:rgb(246,147,147);stroke-width:0.01" />
<line x1="-0.36478" y1="-0.159965" x2="-0.428882" y2="0.0131122" style="stroke:rgb(246,147,147);stroke-width:0.01" />
<line x1="0.0725669" y1="-0.435331" x2="0.0518162" y2="-0.329103" style="stroke:rgb(246,147,147);stroke-width:0.01" />
<line x1="-0.172863" y1="-0.203272" x2="-0.119101" y2="-0.137237" style="stroke:rgb(246,147,147);stroke-width:0.01" />
<line x1="-0.360873" y1="-0.0449155" x2="-0.347343" y2="-0.0191273" style="stroke:rgb(246,147,147);stroke-width:0.01" />
<line x1="0.125879" y1="-0.381781" x2="0.0839675" y2="-0.245414" style="stroke:rgb(246,147,147);stroke-width:0.01" />
<line x1="-0.164561" y1="-0.286028" x2="-0.232243" y2="-0.147704" style="stroke:rgb(246,147,147);stroke-width:0.01" />
<line x1="0.0725669" y1="-0.435331" x2="0.0870414" y2="-0.431573" style="stroke:rgb(246,147,147);stroke-width:0.01" />
<line x1="-0.254842" y1="-0.229184" x2="-0.23542" y2="-0.212235" style="stroke:rgb(246,147,147);stroke-width:0.01" />
<line x1="-0.0250116" y1="-0.373893" x2="-0.152369" y2="-0.140315" style="stroke:rgb(246,147,147);stroke-width:0.01" />
<line x1="-0.177542" y1="-0.277855" x2="-0.360873" y2="-0.0449155" style="stroke:rgb(246,147,147);stroke-width:0.01" />
<line x1="-0.237431" y1="-0.240147" x2="-0.172863" y2="-0.203272" style="stroke:rgb(246,147,147);stroke-width:0.01" />
<line x1="-0.23542" y1="-0.212235" x2="-0.428882" y2="0.0131122" style="stroke:rgb(246,147,147);stroke-width:0.01" />
<line x1="0.125879" y1="-0.381781" x2="-0.0250116" y2="-0.373893" style="stroke:rgb(246,147,147);stroke-width:0.01" />
<line x1="0.0803081" y1="-0.440205" x2="-0.36478" y2="-0.159965" style="stroke:rgb(246,147,147);stroke-width:0.01" />
<line x1="0.0882034" y1="-0.288075" x2="-0.164561" y2="-0.286028" style="stroke:rgb(246,147,147);stroke-width:0.01" />
<line x1="0.127177" y1="-0.345942" x2="-0.119101" y2="-0.137237" style="stroke:rgb(246,147,147);stroke-width:0.01" />
<line x1="0.127177" y1="-0.345942" x2="-0.177542" y2="-0.277855" style="stroke:rgb(246,147,147);stroke-width:0.01" />
<line x1="-0.36478" y1="-0.159965" x2="-0.119101" y2="-0.137237" style="stroke:rgb(246,147,147);stroke-width:0.01" />
<line x1="0.0839675" y1="-0.245414" x2="-0.347343" y2="-0.0191273" style="stroke:rgb(246,147,147);stroke-width:0.01" />
<line x1="-0.360873" y1="-0.0449155" x2="0.571118" y2="0.189038" style="stroke:rgb(246,147,147);stroke-width:0.01" />
<line x1="-0.428882" y1="0.19901" x2="0.571118" y2="0.19901" style="stroke:rgb(246,147,147);stroke-width:0.01" />
</g>
</svg>
