<svg xmlns="http://www.w3.org/2000/svg" viewBox="-1.5 -1.5 3 3">
<g transform="scale(1, -1)">
<path d="M-0.394845 -0.586598 L-0.067698 -0.522680 L0.522680 -0.067698 L0.394845 0.586598 L0.067698 0.522680 L-0.522680 0.067698 z " fill="rgb(245,195,195)" />
<path d="M-789690721649467392.000000 -1173195876288720128.000000 L-789690721649467392.000000 -1173195876288720128.000000 L-789690721649467392.000000 -1173195876288720128.000000 L-789690721649467392.000000 -1173195876288720128.000000  z" fill="none" stroke="rgb(128,128,128)" stroke-width="0.01" />
<line x1="-0.0676976" y1="-0.52268" x2="0.222612" y2="0.077457" style="stroke:rgb(246,147,147);stroke-width:0.01" />
<line x1="-0.222612" y1="-0.077457" x2="0.0676976" y2="0.52268" style="stroke:rgb(246,147,147);stroke-width:0.01" />
<line x1="-0.394845" y1="-0.586598" x2="-0.52268" y2="0.0676976" style="stroke:rgb(246,147,147);stroke-width:0.01" />
<line x1="0.52268" y1="-0.0676976" x2="0.394845" y2="0.586598" style="stroke:rgb(246,147,147);stroke-width:0.01" />
<line x1="-0.0676976" y1="-0.52268" x2="0.52268" y2="-0.0676976" style="stroke:rgb(246,147,147);stroke-width:0.01" />
<line x1="-0.52268" y1="0.0676976" x2="0.0676976" y2="0.52268" style="stroke:rgb(246,147,147);stroke-width:0.01" />
<line x1="-0.394845" y1="-0.586598" x2="-0.0676976" y2="-0.52268" style="stroke:rgb(246,147,147);stroke-width:0.01" />
<line x1="0.0676976" y1="0.52268" x2="0.394845" y2="0.586598" style="stroke:rgb(246,147,147);stroke-width:0.01" />
<line x1="-0.222612" y1="-0.077457" x2="-0.52268" y2="0.0676976" style="stroke:rgb(246,147,147);stroke-width:0.01" />
<line x1="0.52268" y1="-0.0676976" x2="0.222612" y2="0.077457" style="stroke:rgb(246,147,147);stroke-width:0.01" />
</g>
</svg>
