<svg xmlns="http://www.w3.org/2000/svg" viewBox="-1.5 -1.5 3 3">
<g transform="scale(1, -1)">
<path d="M0.147346 -0.390023 L0.235928 -0.345916 L0.062001 0.003395 L0.068945 0.040616 L0.047564 0.185379 L0.023658 0.181848 L0.051754 0.356973 L-0.102081 0.381653 L-0.326594 -0.119818 L-0.208521 -0.294106 z " fill="rgb(245,195,195)" />
<path d="M-0.779719 -0.522596 L0.220281 -0.522596 L0.220281 0.477404 L-0.779719 0.477404  z" fill="none" stroke="rgb(128,128,128)" stroke-width="0.01" />
<line x1="0.147346" y1="-0.390023" x2="0.235928" y2="-0.345916" style="stroke:rgb(246,147,147);stroke-width:0.01" />
<line x1="0.00311778" y1="-0.0755511" x2="0.0689453" y2="0.0406156" style="stroke:rgb(246,147,147);stroke-width:0.01" />
<line x1="-0.0591602" y1="-0.334363" x2="0.0485536" y2="-0.0545556" style="stroke:rgb(246,147,147);stroke-width:0.01" />
<line x1="-0.0134743" y1="-0.0588615" x2="0.00926149" y2="0.0112796" style="stroke:rgb(246,147,147);stroke-width:0.01" />
<line x1="0.0129767" y1="-0.0742274" x2="0.0391121" y2="-0.0502989" style="stroke:rgb(246,147,147);stroke-width:0.01" />
<line x1="0.0484057" y1="-0.0694707" x2="0.0689453" y2="0.0406156" style="stroke:rgb(246,147,147);stroke-width:0.01" />
<line x1="-0.0591602" y1="-0.334363" x2="0.0517536" y2="0.356973" style="stroke:rgb(246,147,147);stroke-width:0.01" />
<line x1="-0.179451" y1="-0.100063" x2="-0.0813654" y2="0.364804" style="stroke:rgb(246,147,147);stroke-width:0.01" />
<line x1="-0.326594" y1="-0.119818" x2="-0.102081" y2="0.381653" style="stroke:rgb(246,147,147);stroke-width:0.01" />
<line x1="-0.208521" y1="-0.294106" x2="-0.166287" y2="0.0663381" style="stroke:rgb(246,147,147);stroke-width:0.01" />
<line x1="0.0689453" y1="0.0406156" x2="0.0475644" y2="0.185379" style="stroke:rgb(246,147,147);stroke-width:0.01" />
<line x1="-0.0134743" y1="-0.0588615" x2="0.0391121" y2="-0.0502989" style="stroke:rgb(246,147,147);stroke-width:0.01" />
<line x1="-0.179451" y1="-0.100063" x2="-0.253374" y2="0.0437267" style="stroke:rgb(246,147,147);stroke-width:0.01" />
<line x1="-0.326594" y1="-0.119818" x2="0.0484057" y2="-0.0694707" style="stroke:rgb(246,147,147);stroke-width:0.01" />
<line x1="-0.208521" y1="-0.294106" x2="-0.326594" y2="-0.119818" style="stroke:rgb(246,147,147);stroke-width:0.01" />
<line x1="0.147346" y1="-0.390023" x2="-0.208521" y2="-0.294106" style="stroke:rgb(246,147,147);stroke-width:0.01" />
<line x1="-0.253374" y1="0.0437267" x2="-0.166287" y2="0.0663381" style="stroke:rgb(246,147,147);stroke-width:0.01" />
<line x1="0.0484057" y1="-0.0694707" x2="0.00926149" y2="0.0112796" style="stroke:rgb(246,147,147);stroke-width:0.01" />
<line x1="0.235928" y1="-0.345916" x2="-0.113567" y2="0.355999" style="stroke:rgb(246,147,147);stroke-width:0.01" />
<line x1="0.147346" y1="-0.390023" x2="-0.206773" y2="0.147814" style="stroke:rgb(246,147,147);stroke-width:0.01" />
<line x1="-0.206773" y1="0.147814" x2="0.0475644" y2="0.185379" style="stroke:rgb(246,147,147);stroke-width:0.01" />
<line x1="0.00311778" y1="-0.0755511" x2="-0.0134743" y2="-0.0588615" style="stroke:rgb(246,147,147);stroke-width:0.01" />
<line x1="-0.113567" y1="0.355999" x2="-0.0813654" y2="0.364804" style="stroke:rgb(246,147,147);stroke-width:0.01" />
<line x1="0.0129767" y1="-0.0742274" x2="-0.24652" y2="0.0590352" style="stroke:rgb(246,147,147);stroke-width:0.01" />
<line x1="0.0485536" y1="-0.0545556" x2="-0.24652" y2="0.0590352" style="stroke:rgb(246,147,147);stroke-width:0.01" />
<line x1="-0.166287" y1="0.0663381" x2="-0.228492" y2="0.099303" style="stroke:rgb(246,147,147);stroke-width:0.01" />
<line x1="0.00926149" y1="0.0112796" x2="-0.228492" y2="0.099303" style="stroke:rgb(246,147,147);stroke-width:0.01" />
<line x1="-0.0813654" y1="0.364804" x2="-0.102081" y2="0.381653" style="stroke:rgb(246,147,147);stroke-width:0.01" />
<line x1="0.0517536" y1="0.356973" x2="-0.102081" y2="0.381653" style="stroke:rgb(246,147,147);stroke-width:0.01" />
</g>
</svg>
