<svg xmlns="http://www.w3.org/2000/svg" viewBox="-1.5 -1.5 3 3">
<g transform="scale(1, -1)">
<path d="M0.927065 0.132573 L1.015648 0.176679 L0.841720 0.525990 L0.848665 0.563211 L0.827284 0.707975 L0.803377 0.704444 L0.831473 0.879568 L0.677638 0.904249 L0.453125 0.402778 L0.571199 0.228490 z " fill="rgb(245,195,195)" />
<path d="M0.000000 0.000000 L1.000000 0.000000 L1.000000 1.000000 L0.000000 1.000000  z" fill="none" stroke="rgb(128,128,128)" stroke-width="0.01" />
<line x1="0.927065" y1="0.132573" x2="1.01565" y2="0.176679" style="stroke:rgb(246,147,147);stroke-width:0.01" />
<line x1="0.782837" y1="0.447045" x2="0.848665" y2="0.563211" style="stroke:rgb(246,147,147);stroke-width:0.01" />
<line x1="0.720559" y1="0.188233" x2="0.828273" y2="0.46804" style="stroke:rgb(246,147,147);stroke-width:0.01" />
<line x1="0.766245" y1="0.463734" x2="0.788981" y2="0.533875" style="stroke:rgb(246,147,147);stroke-width:0.01" />
<line x1="0.792696" y1="0.448368" x2="0.818831" y2="0.472297" style="stroke:rgb(246,147,147);stroke-width:0.01" />
<line x1="0.828125" y1="0.453125" x2="0.848665" y2="0.563211" style="stroke:rgb(246,147,147);stroke-width:0.01" />
<line x1="0.720559" y1="0.188233" x2="0.831473" y2="0.879568" style="stroke:rgb(246,147,147);stroke-width:0.01" />
<line x1="0.600268" y1="0.422533" x2="0.698354" y2="0.8874" style="stroke:rgb(246,147,147);stroke-width:0.01" />
<line x1="0.453125" y1="0.402778" x2="0.677638" y2="0.904249" style="stroke:rgb(246,147,147);stroke-width:0.01" />
<line x1="0.571199" y1="0.22849" x2="0.613432" y2="0.588934" style="stroke:rgb(246,147,147);stroke-width:0.01" />
<line x1="0.848665" y1="0.563211" x2="0.827284" y2="0.707975" style="stroke:rgb(246,147,147);stroke-width:0.01" />
<line x1="0.766245" y1="0.463734" x2="0.818831" y2="0.472297" style="stroke:rgb(246,147,147);stroke-width:0.01" />
<line x1="0.600268" y1="0.422533" x2="0.526345" y2="0.566322" style="stroke:rgb(246,147,147);stroke-width:0.01" />
<line x1="0.453125" y1="0.402778" x2="0.828125" y2="0.453125" style="stroke:rgb(246,147,147);stroke-width:0.01" />
<line x1="0.571199" y1="0.22849" x2="0.453125" y2="0.402778" style="stroke:rgb(246,147,147);stroke-width:0.01" />
<line x1="0.927065" y1="0.132573" x2="0.571199" y2="0.22849" style="stroke:rgb(246,147,147);stroke-width:0.01" />
<line x1="0.526345" y1="0.566322" x2="0.613432" y2="0.588934" style="stroke:rgb(246,147,147);stroke-width:0.01" />
<line x1="0.828125" y1="0.453125" x2="0.788981" y2="0.533875" style="stroke:rgb(246,147,147);stroke-width:0.01" />
<line x1="1.01565" y1="0.176679" x2="0.666153" y2="0.878595" style="stroke:rgb(246,147,147);stroke-width:0.01" />
<line x1="0.927065" y1="0.132573" x2="0.572946" y2="0.67041" style="stroke:rgb(246,147,147);stroke-width:0.01" />
<line x1="0.572946" y1="0.67041" x2="0.827284" y2="0.707975" style="stroke:rgb(246,147,147);stroke-width:0.01" />
<line x1="0.782837" y1="0.447045" x2="0.766245" y2="0.463734" style="stroke:rgb(246,147,147);stroke-width:0.01" />
<line x1="0.666153" y1="0.878595" x2="0.698354" y2="0.8874" style="stroke:rgb(246,147,147);stroke-width:0.01" />
<line x1="0.792696" y1="0.448368" x2="0.533199" y2="0.581631" style="stroke:rgb(246,147,147);stroke-width:0.01" />
<line x1="0.828273" y1="0.46804" x2="0.533199" y2="0.581631" style="stroke:rgb(246,147,147);stroke-width:0.01" />
<line x1="0.613432" y1="0.588934" x2="0.551227" y2="0.621899" style="stroke:rgb(246,147,147);stroke-width:0.01" />
<line x1="0.788981" y1="0.533875" x2="0.551227" y2="0.621899" style="stroke:rgb(246,147,147);stroke-width:0.01" />
<line x1="0.698354" y1="0.8874" x2="0.677638" y2="0.904249" style="stroke:rgb(246,147,147);stroke-width:0.01" />
<line x1="0.831473" y1="0.879568" x2="0.677638" y2="0.904249" style="stroke:rgb(246,147,147);stroke-width:0.01" />
</g>
</svg>
