<svg xmlns="http://www.w3.org/2000/svg" viewBox="-1.5 -1.5 3 3">
<g transform="scale(1, -1)">
<path d="M-0.347805 -0.271515 L-0.007647 -0.162637 L0.040679 -0.050093 L0.131929 -0.009186 L0.234112 -0.075980 L0.336448 0.080577 L0.080081 0.379490 L-0.106763 0.339525 L-0.361035 -0.230182 z " fill="rgb(245,195,195)" />
<path d="M-0.615237 -0.244633 L0.384763 -0.244633 L0.384763 0.755367 L-0.615237 0.755367  z" fill="none" stroke="rgb(128,128,128)" stroke-width="0.01" />
<line x1="0.234112" y1="-0.0759798" x2="0.336448" y2="0.0805768" style="stroke:rgb(246,147,147);stroke-width:0.01" />
<line x1="0.333488" y1="0.0792332" x2="0.335256" y2="0.0819664" style="stroke:rgb(246,147,147);stroke-width:0.01" />
<line x1="-0.0076474" y1="-0.162637" x2="0.0731837" y2="0.0256034" style="stroke:rgb(246,147,147);stroke-width:0.01" />
<line x1="0.0784556" y1="0.375219" x2="0.080081" y2="0.37949" style="stroke:rgb(246,147,147);stroke-width:0.01" />
<line x1="-0.0533818" y1="-0.0899943" x2="0.0832022" y2="0.375851" style="stroke:rgb(246,147,147);stroke-width:0.01" />
<line x1="-0.0227498" y1="0.0375807" x2="0.00618822" y2="0.142479" style="stroke:rgb(246,147,147);stroke-width:0.01" />
<line x1="-0.0749712" y1="0.228804" x2="-0.0585907" y2="0.255487" style="stroke:rgb(246,147,147);stroke-width:0.01" />
<line x1="-0.347805" y1="-0.271515" x2="-0.0076474" y2="-0.162637" style="stroke:rgb(246,147,147);stroke-width:0.01" />
<line x1="-0.361035" y1="-0.230182" x2="-0.106763" y2="0.339525" style="stroke:rgb(246,147,147);stroke-width:0.01" />
<line x1="0.333488" y1="0.0792332" x2="0.336448" y2="0.0805768" style="stroke:rgb(246,147,147);stroke-width:0.01" />
<line x1="-0.361035" y1="-0.230182" x2="0.335256" y2="0.0819664" style="stroke:rgb(246,147,147);stroke-width:0.01" />
<line x1="-0.0533818" y1="-0.0899943" x2="0.0934141" y2="-0.0235116" style="stroke:rgb(246,147,147);stroke-width:0.01" />
<line x1="-0.0227498" y1="0.0375807" x2="-0.0260968" y2="0.198801" style="stroke:rgb(246,147,147);stroke-width:0.01" />
<line x1="-0.347805" y1="-0.271515" x2="-0.361035" y2="-0.230182" style="stroke:rgb(246,147,147);stroke-width:0.01" />
<line x1="0.0934141" y1="-0.0235116" x2="0.0378732" y2="0.370462" style="stroke:rgb(246,147,147);stroke-width:0.01" />
<line x1="0.0708201" y1="0.256482" x2="0.0378732" y2="0.370462" style="stroke:rgb(246,147,147);stroke-width:0.01" />
<line x1="-0.0076474" y1="-0.162637" x2="-0.175621" y2="0.185246" style="stroke:rgb(246,147,147);stroke-width:0.01" />
<line x1="-0.175621" y1="0.185246" x2="0.0708201" y2="0.256482" style="stroke:rgb(246,147,147);stroke-width:0.01" />
<line x1="0.0731837" y1="0.0256034" x2="-0.229979" y2="0.0634534" style="stroke:rgb(246,147,147);stroke-width:0.01" />
<line x1="0.0731837" y1="0.0256034" x2="-0.106763" y2="0.339525" style="stroke:rgb(246,147,147);stroke-width:0.01" />
<line x1="-0.0533818" y1="-0.0899943" x2="-0.229979" y2="0.0634534" style="stroke:rgb(246,147,147);stroke-width:0.01" />
<line x1="0.0934141" y1="-0.0235116" x2="-0.145072" y2="0.253692" style="stroke:rgb(246,147,147);stroke-width:0.01" />
<line x1="-0.106763" y1="0.339525" x2="0.080081" y2="0.37949" style="stroke:rgb(246,147,147);stroke-width:0.01" />
<line x1="-0.145072" y1="0.253692" x2="-0.0585907" y2="0.255487" style="stroke:rgb(246,147,147);stroke-width:0.01" />
<line x1="0.234112" y1="-0.0759798" x2="-0.173339" y2="0.190358" style="stroke:rgb(246,147,147);stroke-width:0.01" />
<line x1="0.00618822" y1="0.142479" x2="-0.173339" y2="0.190358" style="stroke:rgb(246,147,147);stroke-width:0.01" />
<line x1="0.0784556" y1="0.375219" x2="0.0832022" y2="0.375851" style="stroke:rgb(246,147,147);stroke-width:0.01" />
<line x1="-0.0260968" y1="0.198801" x2="-0.0749712" y2="0.228804" style="stroke:rgb(246,147,147);stroke-width:0.01" />
<line x1="0.333488" y1="0.0792332" x2="0.0784556" y2="0.375219" style="stroke:rgb(246,147,147);stroke-width:0.01" />
<line x1="0.336448" y1="0.0805768" x2="0.080081" y2="0.37949" style="stroke:rgb(246,147,147);stroke-width:0.01" />
</g>
</svg>
