<svg xmlns="http://www.w3.org/2000/svg" viewBox="-1.5 -1.5 3 3">
<g transform="scale(1, -1)">
<path d="M-0.202081 -0.327143 L-0.003867 -0.327143 L-0.003867 -0.045974 L0.064784 -0.061420 L0.065881 -0.056542 L0.068197 -0.041220 L0.068553 -0.041248 L0.070105 -0.030983 L0.070461 -0.031011 L0.072028 -0.020645 L0.072384 -0.020673 L0.073966 -0.010207 L0.074322 -0.010235 L0.103851 0.185140 L-0.061644 0.350635 L-0.133867 0.292857 L-0.144041 0.247640 L-0.235014 0.133923 z M-0.003867 -0.038887 L-0.003867 0.007357 L0.001499 0.006150 L-0.000090 -0.004367 L0.000258 -0.004445 L-0.001316 -0.014861 L-0.000968 -0.014939 L-0.002527 -0.025255 L-0.002178 -0.025333 L-0.003722 -0.035548 L-0.003374 -0.035626 z " fill="rgb(245,195,195)" />
<path d="M-1.003867 -0.327143 L-0.003867 -0.327143 L-0.003867 0.672857 L-1.003867 0.672857  z" fill="none" stroke="rgb(128,128,128)" stroke-width="0.01" />
<line x1="0.0647839" y1="-0.0614201" x2="0.0658815" y2="-0.056542" style="stroke:rgb(246,147,147);stroke-width:0.01" />
<line x1="-0.235014" y1="0.133923" x2="-0.0616444" y2="0.350635" style="stroke:rgb(246,147,147);stroke-width:0.01" />
<line x1="-0.188745" y1="0.048955" x2="-0.133867" y2="0.292857" style="stroke:rgb(246,147,147);stroke-width:0.01" />
<line x1="0.0743216" y1="-0.0102348" x2="0.103851" y2="0.18514" style="stroke:rgb(246,147,147);stroke-width:0.01" />
<line x1="0.0723836" y1="-0.0206732" x2="0.103538" y2="0.185453" style="stroke:rgb(246,147,147);stroke-width:0.01" />
<line x1="0.0704609" y1="-0.0310109" x2="0.103225" y2="0.185766" style="stroke:rgb(246,147,147);stroke-width:0.01" />
<line x1="0.0685533" y1="-0.0412479" x2="0.102912" y2="0.186079" style="stroke:rgb(246,147,147);stroke-width:0.01" />
<line x1="0.0658815" y1="-0.056542" x2="0.102599" y2="0.186392" style="stroke:rgb(246,147,147);stroke-width:0.01" />
<line x1="-0.00490252" y1="-0.0457406" x2="0.0396907" y2="0.2493" style="stroke:rgb(246,147,147);stroke-width:0.01" />
<line x1="-0.00372227" y1="-0.0355481" x2="0.0393777" y2="0.249613" style="stroke:rgb(246,147,147);stroke-width:0.01" />
<line x1="-0.00252681" y1="-0.0252549" x2="0.0390647" y2="0.249926" style="stroke:rgb(246,147,147);stroke-width:0.01" />
<line x1="-0.00131614" y1="-0.014861" x2="0.0387517" y2="0.250239" style="stroke:rgb(246,147,147);stroke-width:0.01" />
<line x1="-9.02636e-05" y1="-0.00436655" x2="0.0384387" y2="0.250552" style="stroke:rgb(246,147,147);stroke-width:0.01" />
<line x1="-0.202081" y1="-0.327143" x2="-0.128196" y2="-0.316533" style="stroke:rgb(246,147,147);stroke-width:0.01" />
<line x1="-0.202482" y1="-0.316533" x2="-0.129304" y2="-0.306026" style="stroke:rgb(246,147,147);stroke-width:0.01" />
<line x1="-0.202875" y1="-0.306026" x2="-0.130404" y2="-0.29562" style="stroke:rgb(246,147,147);stroke-width:0.01" />
<line x1="0.0658815" y1="-0.056542" x2="0.0863233" y2="0.202668" style="stroke:rgb(246,147,147);stroke-width:0.01" />
<line x1="-0.203261" y1="-0.29562" x2="-0.131497" y2="-0.285315" style="stroke:rgb(246,147,147);stroke-width:0.01" />
<line x1="-0.20364" y1="-0.285315" x2="-0.132583" y2="-0.275112" style="stroke:rgb(246,147,147);stroke-width:0.01" />
<line x1="-0.204369" y1="-0.275112" x2="-0.134019" y2="-0.265011" style="stroke:rgb(246,147,147);stroke-width:0.01" />
<line x1="-0.133867" y1="0.292857" x2="-0.0616444" y2="0.350635" style="stroke:rgb(246,147,147);stroke-width:0.01" />
<line x1="-0.202081" y1="-0.327143" x2="-0.00386659" y2="-0.327143" style="stroke:rgb(246,147,147);stroke-width:0.01" />
<line x1="-0.00386659" y1="-0.327143" x2="-0.00386659" y2="0.292857" style="stroke:rgb(246,147,147);stroke-width:0.01" />
<line x1="-0.202482" y1="-0.316533" x2="-0.128196" y2="-0.316533" style="stroke:rgb(246,147,147);stroke-width:0.01" />
<line x1="-0.202875" y1="-0.306026" x2="-0.129304" y2="-0.306026" style="stroke:rgb(246,147,147);stroke-width:0.01" />
<line x1="-0.203261" y1="-0.29562" x2="-0.130404" y2="-0.29562" style="stroke:rgb(246,147,147);stroke-width:0.01" />
<line x1="-0.20364" y1="-0.285315" x2="-0.131497" y2="-0.285315" style="stroke:rgb(246,147,147);stroke-width:0.01" />
<line x1="-0.204369" y1="-0.275112" x2="-0.132583" y2="-0.275112" style="stroke:rgb(246,147,147);stroke-width:0.01" />
<line x1="-0.202081" y1="-0.327143" x2="-0.235014" y2="0.133923" style="stroke:rgb(246,147,147);stroke-width:0.01" />
<line x1="-0.202482" y1="-0.316533" x2="-0.234686" y2="0.134333" style="stroke:rgb(246,147,147);stroke-width:0.01" />
<line x1="-0.202875" y1="-0.306026" x2="-0.234358" y2="0.134743" style="stroke:rgb(246,147,147);stroke-width:0.01" />
<line x1="-0.203261" y1="-0.29562" x2="-0.234031" y2="0.135153" style="stroke:rgb(246,147,147);stroke-width:0.01" />
<line x1="-0.20364" y1="-0.285315" x2="-0.233703" y2="0.135562" style="stroke:rgb(246,147,147);stroke-width:0.01" />
<line x1="-0.132583" y1="-0.275112" x2="-0.167801" y2="0.217939" style="stroke:rgb(246,147,147);stroke-width:0.01" />
<line x1="-0.131497" y1="-0.285315" x2="-0.167473" y2="0.218349" style="stroke:rgb(246,147,147);stroke-width:0.01" />
<line x1="-0.130404" y1="-0.29562" x2="-0.167145" y2="0.218759" style="stroke:rgb(246,147,147);stroke-width:0.01" />
<line x1="-0.129304" y1="-0.306026" x2="-0.166817" y2="0.219169" style="stroke:rgb(246,147,147);stroke-width:0.01" />
<line x1="-0.128196" y1="-0.316533" x2="-0.16649" y2="0.219579" style="stroke:rgb(246,147,147);stroke-width:0.01" />
<line x1="-0.134019" y1="-0.265011" x2="-0.197954" y2="0.180249" style="stroke:rgb(246,147,147);stroke-width:0.01" />
<line x1="-0.235014" y1="0.133923" x2="0.103851" y2="0.18514" style="stroke:rgb(246,147,147);stroke-width:0.01" />
<line x1="-0.234686" y1="0.134333" x2="0.103538" y2="0.185453" style="stroke:rgb(246,147,147);stroke-width:0.01" />
<line x1="-0.234358" y1="0.134743" x2="0.103225" y2="0.185766" style="stroke:rgb(246,147,147);stroke-width:0.01" />
<line x1="-0.234031" y1="0.135153" x2="0.102912" y2="0.186079" style="stroke:rgb(246,147,147);stroke-width:0.01" />
<line x1="-0.233703" y1="0.135562" x2="0.102599" y2="0.186392" style="stroke:rgb(246,147,147);stroke-width:0.01" />
<line x1="0.066661" y1="-0.0513843" x2="-0.00490252" y2="-0.0457406" style="stroke:rgb(246,147,147);stroke-width:0.01" />
<line x1="0.0685533" y1="-0.0412479" x2="-0.00372227" y2="-0.0355481" style="stroke:rgb(246,147,147);stroke-width:0.01" />
<line x1="0.0704609" y1="-0.0310109" x2="-0.00252681" y2="-0.0252549" style="stroke:rgb(246,147,147);stroke-width:0.01" />
<line x1="0.0723836" y1="-0.0206732" x2="-0.00131614" y2="-0.014861" style="stroke:rgb(246,147,147);stroke-width:0.01" />
<line x1="0.0743216" y1="-0.0102348" x2="-9.02636e-05" y2="-0.00436655" style="stroke:rgb(246,147,147);stroke-width:0.01" />
<line x1="-0.167801" y1="0.217939" x2="0.0396907" y2="0.2493" style="stroke:rgb(246,147,147);stroke-width:0.01" />
<line x1="-0.167473" y1="0.218349" x2="0.0393777" y2="0.249613" style="stroke:rgb(246,147,147);stroke-width:0.01" />
<line x1="-0.167145" y1="0.218759" x2="0.0390647" y2="0.249926" style="stroke:rgb(246,147,147);stroke-width:0.01" />
<line x1="-0.166817" y1="0.219169" x2="0.0387517" y2="0.250239" style="stroke:rgb(246,147,147);stroke-width:0.01" />
<line x1="-0.16649" y1="0.219579" x2="0.0384387" y2="0.250552" style="stroke:rgb(246,147,147);stroke-width:0.01" />
<line x1="-0.197954" y1="0.180249" x2="0.0863233" y2="0.202668" style="stroke:rgb(246,147,147);stroke-width:0.01" />
<line x1="0.0647839" y1="-0.0614201" x2="-0.00490252" y2="-0.0457406" style="stroke:rgb(246,147,147);stroke-width:0.01" />
<line x1="0.066661" y1="-0.0513843" x2="-0.00372227" y2="-0.0355481" style="stroke:rgb(246,147,147);stroke-width:0.01" />
<line x1="0.0685533" y1="-0.0412479" x2="-0.00252681" y2="-0.0252549" style="stroke:rgb(246,147,147);stroke-width:0.01" />
<line x1="0.0704609" y1="-0.0310109" x2="-0.00131614" y2="-0.014861" style="stroke:rgb(246,147,147);stroke-width:0.01" />
<line x1="0.0723836" y1="-0.0206732" x2="-9.02636e-05" y2="-0.00436655" style="stroke:rgb(246,147,147);stroke-width:0.01" />
<line x1="0.0743216" y1="-0.0102348" x2="-0.188745" y2="0.048955" style="stroke:rgb(246,147,147);stroke-width:0.01" />
<line x1="-0.133867" y1="0.292857" x2="-0.00386659" y2="0.292857" style="stroke:rgb(246,147,147);stroke-width:0.01" />
<line x1="0.103851" y1="0.18514" x2="-0.0616444" y2="0.350635" style="stroke:rgb(246,147,147);stroke-width:0.01" />
</g>
</svg>
