<svg xmlns="http://www.w3.org/2000/svg" viewBox="-1.5 -1.5 3 3">
<g transform="scale(1, -1)">
<path d="M0.356665 -0.388371 L0.445666 -0.229516 L0.246381 -0.117863 L0.047885 0.369016 L-0.040147 0.333126 L-0.050469 0.354554 L-0.387905 0.227100 L-0.380717 0.064594 L-0.238475 -0.096837 L-0.173259 -0.039373 L-0.131513 -0.091199 L0.305888 -0.385230 z " fill="rgb(245,195,195)" />
<path d="M-0.489945 -0.431063 L0.510055 -0.431063 L0.510055 0.568937 L-0.489945 0.568937  z" fill="none" stroke="rgb(128,128,128)" stroke-width="0.01" />
<line x1="0.356665" y1="-0.388371" x2="0.445666" y2="-0.229516" style="stroke:rgb(246,147,147);stroke-width:0.01" />
<line x1="-0.380717" y1="0.0645939" x2="-0.387905" y2="0.2271" style="stroke:rgb(246,147,147);stroke-width:0.01" />
<line x1="-0.274367" y1="0.225893" x2="-0.277625" y2="0.268754" style="stroke:rgb(246,147,147);stroke-width:0.01" />
<line x1="-0.386829" y1="0.202775" x2="-0.376812" y2="0.23129" style="stroke:rgb(246,147,147);stroke-width:0.01" />
<line x1="-0.238475" y1="-0.0968372" x2="0.0137787" y2="0.125431" style="stroke:rgb(246,147,147);stroke-width:0.01" />
<line x1="-0.265744" y1="0.221002" x2="-0.276071" y2="0.269341" style="stroke:rgb(246,147,147);stroke-width:0.01" />
<line x1="0.356665" y1="-0.388371" x2="0.305888" y2="-0.38523" style="stroke:rgb(246,147,147);stroke-width:0.01" />
<line x1="-0.380717" y1="0.0645939" x2="-0.265744" y2="0.221002" style="stroke:rgb(246,147,147);stroke-width:0.01" />
<line x1="-0.366226" y1="0.200187" x2="-0.33368" y2="0.247582" style="stroke:rgb(246,147,147);stroke-width:0.01" />
<line x1="-0.375662" y1="0.178183" x2="-0.386829" y2="0.202775" style="stroke:rgb(246,147,147);stroke-width:0.01" />
<line x1="-0.131513" y1="-0.091199" x2="-0.270252" y2="0.258982" style="stroke:rgb(246,147,147);stroke-width:0.01" />
<line x1="0.0137787" y1="0.125431" x2="-0.050469" y2="0.354554" style="stroke:rgb(246,147,147);stroke-width:0.01" />
<line x1="-0.270252" y1="0.258982" x2="-0.276071" y2="0.269341" style="stroke:rgb(246,147,147);stroke-width:0.01" />
<line x1="-0.238475" y1="-0.0968372" x2="-0.380717" y2="0.0645939" style="stroke:rgb(246,147,147);stroke-width:0.01" />
<line x1="-0.274367" y1="0.225893" x2="-0.267881" y2="0.231007" style="stroke:rgb(246,147,147);stroke-width:0.01" />
<line x1="0.356665" y1="-0.388371" x2="0.0478852" y2="0.369016" style="stroke:rgb(246,147,147);stroke-width:0.01" />
<line x1="-0.131513" y1="-0.091199" x2="-0.387905" y2="0.2271" style="stroke:rgb(246,147,147);stroke-width:0.01" />
<line x1="0.305888" y1="-0.38523" x2="-0.050469" y2="0.354554" style="stroke:rgb(246,147,147);stroke-width:0.01" />
<line x1="-0.270252" y1="0.258982" x2="-0.277625" y2="0.268754" style="stroke:rgb(246,147,147);stroke-width:0.01" />
<line x1="0.305888" y1="-0.38523" x2="-0.131513" y2="-0.091199" style="stroke:rgb(246,147,147);stroke-width:0.01" />
<line x1="-0.375662" y1="0.178183" x2="-0.267125" y2="0.227465" style="stroke:rgb(246,147,147);stroke-width:0.01" />
<line x1="-0.366226" y1="0.200187" x2="0.0478852" y2="0.369016" style="stroke:rgb(246,147,147);stroke-width:0.01" />
<line x1="-0.387905" y1="0.2271" x2="-0.050469" y2="0.354554" style="stroke:rgb(246,147,147);stroke-width:0.01" />
<line x1="0.445666" y1="-0.229516" x2="-0.376812" y2="0.23129" style="stroke:rgb(246,147,147);stroke-width:0.01" />
<line x1="-0.386548" y1="0.196426" x2="-0.267374" y2="0.22863" style="stroke:rgb(246,147,147);stroke-width:0.01" />
<line x1="-0.265744" y1="0.221002" x2="-0.274367" y2="0.225893" style="stroke:rgb(246,147,147);stroke-width:0.01" />
<line x1="-0.274489" y1="0.227503" x2="-0.267374" y2="0.22863" style="stroke:rgb(246,147,147);stroke-width:0.01" />
<line x1="0.0137787" y1="0.125431" x2="-0.386548" y2="0.196426" style="stroke:rgb(246,147,147);stroke-width:0.01" />
<line x1="-0.267125" y1="0.227465" x2="-0.274489" y2="0.227503" style="stroke:rgb(246,147,147);stroke-width:0.01" />
<line x1="-0.267881" y1="0.231007" x2="-0.33368" y2="0.247582" style="stroke:rgb(246,147,147);stroke-width:0.01" />
</g>
</svg>
