<svg xmlns="http://www.w3.org/2000/svg" viewBox="-1.5 -1.5 3 3">
<g transform="scale(1, -1)">
<path d="M-0.497123 -0.179499 L0.502877 -0.179499 L0.502877 0.014440 L-0.011506 0.397327 L-0.497123 -0.052769 z " fill="rgb(245,195,195)" />
<path d="M-0.497123 -0.179499 L0.502877 -0.179499 L0.502877 0.820501 L-0.497123 0.820501  z" fill="none" stroke="rgb(128,128,128)" stroke-width="0.01" />
<line x1="0.0895074" y1="-0.0948453" x2="0.172782" y2="0.105975" style="stroke:rgb(246,147,147);stroke-width:0.01" />
<line x1="-0.0128903" y1="-0.0518546" x2="0.182869" y2="0.0900283" style="stroke:rgb(246,147,147);stroke-width:0.01" />
<line x1="0.143372" y1="-0.115547" x2="0.182869" y2="0.0900283" style="stroke:rgb(246,147,147);stroke-width:0.01" />
<line x1="-0.013675" y1="-0.113549" x2="-0.0128903" y2="-0.0518546" style="stroke:rgb(246,147,147);stroke-width:0.01" />
<line x1="-0.302908" y1="0.035535" x2="-0.300448" y2="0.129521" style="stroke:rgb(246,147,147);stroke-width:0.01" />
<line x1="-0.497123" y1="-0.179499" x2="0.502877" y2="-0.179499" style="stroke:rgb(246,147,147);stroke-width:0.01" />
<line x1="-0.497123" y1="-0.179499" x2="-0.497123" y2="-0.0527692" style="stroke:rgb(246,147,147);stroke-width:0.01" />
<line x1="0.502877" y1="-0.179499" x2="0.502877" y2="0.0144404" style="stroke:rgb(246,147,147);stroke-width:0.01" />
<line x1="-0.497123" y1="-0.0527692" x2="-0.0115063" y2="0.397327" style="stroke:rgb(246,147,147);stroke-width:0.01" />
<line x1="0.143372" y1="-0.115547" x2="-0.013675" y2="-0.113549" style="stroke:rgb(246,147,147);stroke-width:0.01" />
<line x1="0.146038" y1="-0.10167" x2="-0.497123" y2="-0.0527692" style="stroke:rgb(246,147,147);stroke-width:0.01" />
<line x1="0.502877" y1="0.0144404" x2="-0.302908" y2="0.035535" style="stroke:rgb(246,147,147);stroke-width:0.01" />
<line x1="0.0895074" y1="-0.0948453" x2="-0.0903527" y2="0.324248" style="stroke:rgb(246,147,147);stroke-width:0.01" />
<line x1="0.146038" y1="-0.10167" x2="-0.0128903" y2="-0.0518546" style="stroke:rgb(246,147,147);stroke-width:0.01" />
<line x1="0.143372" y1="-0.115547" x2="0.0895074" y2="-0.0948453" style="stroke:rgb(246,147,147);stroke-width:0.01" />
<line x1="0.172782" y1="0.105975" x2="-0.300448" y2="0.129521" style="stroke:rgb(246,147,147);stroke-width:0.01" />
<line x1="0.182869" y1="0.0900283" x2="-0.0115063" y2="0.397327" style="stroke:rgb(246,147,147);stroke-width:0.01" />
<line x1="0.502877" y1="0.0144404" x2="-0.0903527" y2="0.324248" style="stroke:rgb(246,147,147);stroke-width:0.01" />
<line x1="0.502877" y1="0.0144404" x2="-0.0115063" y2="0.397327" style="stroke:rgb(246,147,147);stroke-width:0.01" />
</g>
</svg>
