<svg xmlns="http://www.w3.org/2000/svg" viewBox="-1.5 -1.5 3 3">
<g transform="scale(1, -1)">
<path d="M0.178242 -0.547000 L0.423931 0.280114 L0.423931 0.414207 L-0.480836 0.414207 L-0.507366 -0.023562 L-0.037902 -0.537965 z " fill="rgb(245,195,195)" />
<path d="M-0.576069 -0.585793 L0.423931 -0.585793 L0.423931 0.414207 L-0.576069 0.414207  z" fill="none" stroke="rgb(128,128,128)" stroke-width="0.01" />
<line x1="0.10231" y1="-0.543826" x2="0.169996" y2="-0.507381" style="stroke:rgb(246,147,147);stroke-width:0.01" />
<line x1="0.178242" y1="-0.547" x2="0.423931" y2="0.280114" style="stroke:rgb(246,147,147);stroke-width:0.01" />
<line x1="-0.0487842" y1="-0.445376" x2="0.423931" y2="0.280114" style="stroke:rgb(246,147,147);stroke-width:0.01" />
<line x1="-0.037902" y1="-0.537965" x2="-0.0131652" y2="-0.0387682" style="stroke:rgb(246,147,147);stroke-width:0.01" />
<line x1="-0.0838537" y1="-0.0738119" x2="-0.0818532" y2="-0.0366547" style="stroke:rgb(246,147,147);stroke-width:0.01" />
<line x1="-0.446298" y1="-0.0904759" x2="-0.386301" y2="0.402706" style="stroke:rgb(246,147,147);stroke-width:0.01" />
<line x1="-0.0136315" y1="-0.0775924" x2="-0.0131652" y2="-0.0387682" style="stroke:rgb(246,147,147);stroke-width:0.01" />
<line x1="-0.0853295" y1="-0.485998" x2="-0.0818532" y2="-0.0366547" style="stroke:rgb(246,147,147);stroke-width:0.01" />
<line x1="-0.507366" y1="-0.0235616" x2="-0.480836" y2="0.414207" style="stroke:rgb(246,147,147);stroke-width:0.01" />
<line x1="0.423931" y1="0.280114" x2="0.423931" y2="0.414207" style="stroke:rgb(246,147,147);stroke-width:0.01" />
<line x1="0.178242" y1="-0.547" x2="-0.037902" y2="-0.537965" style="stroke:rgb(246,147,147);stroke-width:0.01" />
<line x1="0.169996" y1="-0.507381" x2="-0.0853295" y2="-0.485998" style="stroke:rgb(246,147,147);stroke-width:0.01" />
<line x1="0.178242" y1="-0.547" x2="0.169996" y2="-0.507381" style="stroke:rgb(246,147,147);stroke-width:0.01" />
<line x1="-0.037902" y1="-0.537965" x2="-0.507366" y2="-0.0235616" style="stroke:rgb(246,147,147);stroke-width:0.01" />
<line x1="0.10231" y1="-0.543826" x2="-0.0487842" y2="-0.445376" style="stroke:rgb(246,147,147);stroke-width:0.01" />
<line x1="-0.446298" y1="-0.0904759" x2="-0.0136315" y2="-0.0775924" style="stroke:rgb(246,147,147);stroke-width:0.01" />
<line x1="-0.0136315" y1="-0.0775924" x2="-0.0838537" y2="-0.0738119" style="stroke:rgb(246,147,147);stroke-width:0.01" />
<line x1="-0.0131652" y1="-0.0387682" x2="-0.507366" y2="-0.0235616" style="stroke:rgb(246,147,147);stroke-width:0.01" />
<line x1="-0.386301" y1="0.402706" x2="-0.480836" y2="0.414207" style="stroke:rgb(246,147,147);stroke-width:0.01" />
<line x1="-0.480836" y1="0.414207" x2="0.423931" y2="0.414207" style="stroke:rgb(246,147,147);stroke-width:0.01" />
</g>
</svg>
