<svg xmlns="http://www.w3.org/2000/svg" viewBox="-1.5 -1.5 3 3">
<g transform="scale(1, -1)">
<path d="M0.428521 -0.401271 L0.467843 -0.361757 L0.140944 0.370216 L-0.032039 0.348446 L-0.258806 0.095433 L-0.217882 0.058754 L-0.270510 0.013073 L-0.258070 -0.122893 z " fill="rgb(245,195,195)" />
<path d="M-0.387627 -0.515498 L0.612373 -0.515498 L0.612373 0.484502 L-0.387627 0.484502  z" fill="none" stroke="rgb(128,128,128)" stroke-width="0.01" />
<line x1="0.428521" y1="-0.401271" x2="0.467843" y2="-0.361757" style="stroke:rgb(246,147,147);stroke-width:0.01" />
<line x1="0.267299" y1="-0.335904" x2="0.401894" y2="-0.214087" style="stroke:rgb(246,147,147);stroke-width:0.01" />
<line x1="0.190168" y1="-0.0959245" x2="0.213692" y2="-0.0257786" style="stroke:rgb(246,147,147);stroke-width:0.01" />
<line x1="0.190168" y1="-0.0959245" x2="0.228523" y2="0.174114" style="stroke:rgb(246,147,147);stroke-width:0.01" />
<line x1="0.428521" y1="-0.401271" x2="0.427401" y2="-0.312298" style="stroke:rgb(246,147,147);stroke-width:0.01" />
<line x1="-0.25807" y1="-0.122893" x2="-0.27051" y2="0.0130731" style="stroke:rgb(246,147,147);stroke-width:0.01" />
<line x1="-0.0336714" y1="-0.136288" x2="0.048126" y2="-0.0642026" style="stroke:rgb(246,147,147);stroke-width:0.01" />
<line x1="0.267299" y1="-0.335904" x2="0.266445" y2="-0.322742" style="stroke:rgb(246,147,147);stroke-width:0.01" />
<line x1="-0.115672" y1="-0.180629" x2="-0.167858" y2="0.102176" style="stroke:rgb(246,147,147);stroke-width:0.01" />
<line x1="-0.115672" y1="-0.180629" x2="0.048126" y2="-0.0642026" style="stroke:rgb(246,147,147);stroke-width:0.01" />
<line x1="0.346682" y1="-0.36809" x2="0.467843" y2="-0.361757" style="stroke:rgb(246,147,147);stroke-width:0.01" />
<line x1="0.266445" y1="-0.322742" x2="0.427401" y2="-0.312298" style="stroke:rgb(246,147,147);stroke-width:0.01" />
<line x1="-0.25807" y1="-0.122893" x2="-0.0481283" y2="0.0572543" style="stroke:rgb(246,147,147);stroke-width:0.01" />
<line x1="-0.258806" y1="0.095433" x2="-0.0320387" y2="0.348446" style="stroke:rgb(246,147,147);stroke-width:0.01" />
<line x1="0.0562164" y1="-0.250321" x2="0.401894" y2="-0.214087" style="stroke:rgb(246,147,147);stroke-width:0.01" />
<line x1="0.427401" y1="-0.312298" x2="0.185405" y2="-0.3027" style="stroke:rgb(246,147,147);stroke-width:0.01" />
<line x1="-0.27051" y1="0.0130731" x2="0.140944" y2="0.370216" style="stroke:rgb(246,147,147);stroke-width:0.01" />
<line x1="0.0562164" y1="-0.250321" x2="-0.137017" y2="-0.0190193" style="stroke:rgb(246,147,147);stroke-width:0.01" />
<line x1="-0.0336714" y1="-0.136288" x2="-0.137017" y2="-0.0190193" style="stroke:rgb(246,147,147);stroke-width:0.01" />
<line x1="0.467843" y1="-0.361757" x2="0.140944" y2="0.370216" style="stroke:rgb(246,147,147);stroke-width:0.01" />
<line x1="0.428521" y1="-0.401271" x2="-0.25807" y2="-0.122893" style="stroke:rgb(246,147,147);stroke-width:0.01" />
<line x1="0.048126" y1="-0.0642026" x2="-0.0481283" y2="0.0572543" style="stroke:rgb(246,147,147);stroke-width:0.01" />
<line x1="0.185405" y1="-0.3027" x2="-0.258806" y2="0.095433" style="stroke:rgb(246,147,147);stroke-width:0.01" />
<line x1="0.346682" y1="-0.36809" x2="-0.0481283" y2="0.0572543" style="stroke:rgb(246,147,147);stroke-width:0.01" />
<line x1="0.190168" y1="-0.0959245" x2="-0.27051" y2="0.0130731" style="stroke:rgb(246,147,147);stroke-width:0.01" />
<line x1="0.213692" y1="-0.0257786" x2="-0.167858" y2="0.102176" style="stroke:rgb(246,147,147);stroke-width:0.01" />
<line x1="0.228523" y1="0.174114" x2="-0.0320387" y2="0.348446" style="stroke:rgb(246,147,147);stroke-width:0.01" />
<line x1="-0.0320387" y1="0.348446" x2="0.140944" y2="0.370216" style="stroke:rgb(246,147,147);stroke-width:0.01" />
</g>
</svg>
