<svg xmlns="http://www.w3.org/2000/svg" viewBox="-1.5 -1.5 3 3">
<g transform="scale(1, -1)">
<path d="M-0.046944 -0.539428 L0.315353 0.315685 L0.188487 0.369891 L0.188065 0.369160 L0.071312 0.418209 L-0.037026 0.425853 L-0.132819 -0.187770 L-0.205530 -0.313967 L-0.159880 -0.361112 L-0.181018 -0.496521 z " fill="rgb(245,195,195)" />
<path d="M-0.443419 -0.496521 L0.556581 -0.496521 L0.556581 0.503479 L-0.443419 0.503479  z" fill="none" stroke="rgb(128,128,128)" stroke-width="0.01" />
<line x1="-0.0469439" y1="-0.539428" x2="0.315353" y2="0.315685" style="stroke:rgb(246,147,147);stroke-width:0.01" />
<line x1="0.256652" y1="0.255806" x2="0.28101" y2="0.330359" style="stroke:rgb(246,147,147);stroke-width:0.01" />
<line x1="0.219849" y1="0.206077" x2="0.268884" y2="0.315067" style="stroke:rgb(246,147,147);stroke-width:0.01" />
<line x1="0.259991" y1="0.185018" x2="0.294706" y2="0.324507" style="stroke:rgb(246,147,147);stroke-width:0.01" />
<line x1="-0.0557196" y1="-0.321248" x2="0.259991" y2="0.185018" style="stroke:rgb(246,147,147);stroke-width:0.01" />
<line x1="-0.154158" y1="-0.481994" x2="0.28101" y2="0.330359" style="stroke:rgb(246,147,147);stroke-width:0.01" />
<line x1="0.151306" y1="0.242922" x2="0.188487" y2="0.369891" style="stroke:rgb(246,147,147);stroke-width:0.01" />
<line x1="0.219849" y1="0.206077" x2="0.294706" y2="0.324507" style="stroke:rgb(246,147,147);stroke-width:0.01" />
<line x1="-0.20553" y1="-0.313967" x2="0.188487" y2="0.369891" style="stroke:rgb(246,147,147);stroke-width:0.01" />
<line x1="-0.181018" y1="-0.496521" x2="-0.0370263" y2="0.425853" style="stroke:rgb(246,147,147);stroke-width:0.01" />
<line x1="-0.181018" y1="-0.496521" x2="-0.0287652" y2="-0.496521" style="stroke:rgb(246,147,147);stroke-width:0.01" />
<line x1="-0.0359291" y1="0.347295" x2="-0.0370263" y2="0.425853" style="stroke:rgb(246,147,147);stroke-width:0.01" />
<line x1="-0.0469439" y1="-0.539428" x2="-0.181018" y2="-0.496521" style="stroke:rgb(246,147,147);stroke-width:0.01" />
<line x1="-0.0469439" y1="-0.539428" x2="-0.154158" y2="-0.481994" style="stroke:rgb(246,147,147);stroke-width:0.01" />
<line x1="-0.0287652" y1="-0.496521" x2="-0.20553" y2="-0.313967" style="stroke:rgb(246,147,147);stroke-width:0.01" />
<line x1="0.024342" y1="-0.371175" x2="-0.20553" y2="-0.313967" style="stroke:rgb(246,147,147);stroke-width:0.01" />
<line x1="0.024342" y1="-0.371175" x2="-0.0557196" y2="-0.321248" style="stroke:rgb(246,147,147);stroke-width:0.01" />
<line x1="0.235183" y1="0.27303" x2="0.160439" y2="0.380766" style="stroke:rgb(246,147,147);stroke-width:0.01" />
<line x1="-0.0359291" y1="0.347295" x2="0.160439" y2="0.380766" style="stroke:rgb(246,147,147);stroke-width:0.01" />
<line x1="0.280333" y1="0.23303" x2="0.0713124" y2="0.418209" style="stroke:rgb(246,147,147);stroke-width:0.01" />
<line x1="0.280333" y1="0.23303" x2="0.151306" y2="0.242922" style="stroke:rgb(246,147,147);stroke-width:0.01" />
<line x1="0.219849" y1="0.206077" x2="0.151306" y2="0.242922" style="stroke:rgb(246,147,147);stroke-width:0.01" />
<line x1="0.308073" y1="0.298504" x2="0.250068" y2="0.343579" style="stroke:rgb(246,147,147);stroke-width:0.01" />
<line x1="0.28593" y1="0.24624" x2="0.235183" y2="0.27303" style="stroke:rgb(246,147,147);stroke-width:0.01" />
<line x1="0.308073" y1="0.298504" x2="-0.0359291" y2="0.347295" style="stroke:rgb(246,147,147);stroke-width:0.01" />
<line x1="0.28593" y1="0.24624" x2="0.256652" y2="0.255806" style="stroke:rgb(246,147,147);stroke-width:0.01" />
<line x1="0.250068" y1="0.343579" x2="0.18366" y2="0.35341" style="stroke:rgb(246,147,147);stroke-width:0.01" />
<line x1="0.268884" y1="0.315067" x2="0.18366" y2="0.35341" style="stroke:rgb(246,147,147);stroke-width:0.01" />
<line x1="0.0713124" y1="0.418209" x2="-0.0370263" y2="0.425853" style="stroke:rgb(246,147,147);stroke-width:0.01" />
<line x1="0.315353" y1="0.315685" x2="0.188487" y2="0.369891" style="stroke:rgb(246,147,147);stroke-width:0.01" />
<line x1="0.315353" y1="0.315685" x2="0.0713124" y2="0.418209" style="stroke:rgb(246,147,147);stroke-width:0.01" />
</g>
</svg>
