<svg xmlns="http://www.w3.org/2000/svg" viewBox="-1.5 -1.5 3 3">
<g transform="scale(1, -1)">
<path d="M0.936562 -0.039321 L0.956095 0.000000 L0.786804 0.273123 L0.926478 0.451940 L0.657091 0.662358 L0.273073 0.615810 L0.182879 0.197971 L0.250213 0.145015 L0.318010 0.231219 L0.426219 0.257842 L0.434794 0.284282 L0.573468 0.000000 L0.857406 0.000000 z " fill="rgb(245,195,195)" />
<path d="M0.000000 0.000000 L1.000000 0.000000 L1.000000 1.000000 L0.000000 1.000000  z" fill="none" stroke="rgb(128,128,128)" stroke-width="0.01" />
<line x1="0.936562" y1="-0.0393208" x2="0.956095" y2="0" style="stroke:rgb(246,147,147);stroke-width:0.01" />
<line x1="0.573468" y1="0" x2="0.926478" y2="0.45194" style="stroke:rgb(246,147,147);stroke-width:0.01" />
<line x1="0.426219" y1="0.257842" x2="0.553338" y2="0.649781" style="stroke:rgb(246,147,147);stroke-width:0.01" />
<line x1="0.482661" y1="0.186154" x2="0.578259" y2="0.652802" style="stroke:rgb(246,147,147);stroke-width:0.01" />
<line x1="0.250213" y1="0.145015" x2="0.657091" y2="0.662358" style="stroke:rgb(246,147,147);stroke-width:0.01" />
<line x1="0.182879" y1="0.197971" x2="0.273073" y2="0.61581" style="stroke:rgb(246,147,147);stroke-width:0.01" />
<line x1="0.573468" y1="0" x2="0.956095" y2="0" style="stroke:rgb(246,147,147);stroke-width:0.01" />
<line x1="0.182879" y1="0.197971" x2="0.426219" y2="0.257842" style="stroke:rgb(246,147,147);stroke-width:0.01" />
<line x1="0.250213" y1="0.145015" x2="0.182879" y2="0.197971" style="stroke:rgb(246,147,147);stroke-width:0.01" />
<line x1="0.573468" y1="0" x2="0.273073" y2="0.61581" style="stroke:rgb(246,147,147);stroke-width:0.01" />
<line x1="0.242633" y1="0.474792" x2="0.585483" y2="0.637588" style="stroke:rgb(246,147,147);stroke-width:0.01" />
<line x1="0.426219" y1="0.257842" x2="0.242633" y2="0.474792" style="stroke:rgb(246,147,147);stroke-width:0.01" />
<line x1="0.936562" y1="-0.0393208" x2="0.482661" y2="0.186154" style="stroke:rgb(246,147,147);stroke-width:0.01" />
<line x1="0.585483" y1="0.637588" x2="0.578259" y2="0.652802" style="stroke:rgb(246,147,147);stroke-width:0.01" />
<line x1="0.956095" y1="0" x2="0.553338" y2="0.649781" style="stroke:rgb(246,147,147);stroke-width:0.01" />
<line x1="0.273073" y1="0.61581" x2="0.657091" y2="0.662358" style="stroke:rgb(246,147,147);stroke-width:0.01" />
<line x1="0.926478" y1="0.45194" x2="0.657091" y2="0.662358" style="stroke:rgb(246,147,147);stroke-width:0.01" />
</g>
</svg>
