<svg xmlns="http://www.w3.org/2000/svg" viewBox="-1.5 -1.5 3 3">
<g transform="scale(1, -1)">
<path d="M0.353555 -0.276262 L0.373088 -0.236941 L0.203797 0.036182 L0.343471 0.214999 L0.074084 0.425416 L-0.309934 0.378869 L-0.400128 -0.038970 L-0.332794 -0.091927 L-0.264997 -0.005723 L-0.156788 0.020901 L-0.148213 0.047340 L-0.009539 -0.236941 L0.274399 -0.236941 z " fill="rgb(245,195,195)" />
<path d="M-0.583007 -0.236941 L0.416993 -0.236941 L0.416993 0.763059 L-0.583007 0.763059  z" fill="none" stroke="rgb(128,128,128)" stroke-width="0.01" />
<line x1="0.353555" y1="-0.276262" x2="0.373088" y2="-0.236941" style="stroke:rgb(246,147,147);stroke-width:0.01" />
<line x1="-0.00953891" y1="-0.236941" x2="0.343471" y2="0.214999" style="stroke:rgb(246,147,147);stroke-width:0.01" />
<line x1="-0.156788" y1="0.0209007" x2="-0.0296692" y2="0.41284" style="stroke:rgb(246,147,147);stroke-width:0.01" />
<line x1="-0.100346" y1="-0.050787" x2="-0.00474825" y2="0.415861" style="stroke:rgb(246,147,147);stroke-width:0.01" />
<line x1="-0.332794" y1="-0.0919268" x2="0.0740839" y2="0.425416" style="stroke:rgb(246,147,147);stroke-width:0.01" />
<line x1="-0.400128" y1="-0.0389704" x2="-0.309934" y2="0.378869" style="stroke:rgb(246,147,147);stroke-width:0.01" />
<line x1="-0.00953891" y1="-0.236941" x2="0.373088" y2="-0.236941" style="stroke:rgb(246,147,147);stroke-width:0.01" />
<line x1="-0.400128" y1="-0.0389704" x2="-0.156788" y2="0.0209007" style="stroke:rgb(246,147,147);stroke-width:0.01" />
<line x1="-0.332794" y1="-0.0919268" x2="-0.400128" y2="-0.0389704" style="stroke:rgb(246,147,147);stroke-width:0.01" />
<line x1="-0.00953891" y1="-0.236941" x2="-0.309934" y2="0.378869" style="stroke:rgb(246,147,147);stroke-width:0.01" />
<line x1="-0.340374" y1="0.237851" x2="0.00247575" y2="0.400647" style="stroke:rgb(246,147,147);stroke-width:0.01" />
<line x1="-0.156788" y1="0.0209007" x2="-0.340374" y2="0.237851" style="stroke:rgb(246,147,147);stroke-width:0.01" />
<line x1="0.353555" y1="-0.276262" x2="-0.100346" y2="-0.050787" style="stroke:rgb(246,147,147);stroke-width:0.01" />
<line x1="0.00247575" y1="0.400647" x2="-0.00474825" y2="0.415861" style="stroke:rgb(246,147,147);stroke-width:0.01" />
<line x1="0.373088" y1="-0.236941" x2="-0.0296692" y2="0.41284" style="stroke:rgb(246,147,147);stroke-width:0.01" />
<line x1="-0.309934" y1="0.378869" x2="0.0740839" y2="0.425416" style="stroke:rgb(246,147,147);stroke-width:0.01" />
<line x1="0.343471" y1="0.214999" x2="0.0740839" y2="0.425416" style="stroke:rgb(246,147,147);stroke-width:0.01" />
</g>
</svg>
