<svg xmlns="http://www.w3.org/2000/svg" viewBox="-1.5 -1.5 3 3">
<g transform="scale(1, -1)">
<path d="M-0.028147 -0.351153 L0.401609 0.112029 L0.398888 0.121688 L0.357205 0.121019 L-0.196894 0.233198 L-0.321596 0.079191 L-0.237666 0.011232 L-0.155749 -0.015708 L-0.217650 -0.311495 z " fill="rgb(245,195,195)" />
<path d="M0.010200 0.216079 L1.010200 0.216079 L1.010200 1.216079 L0.010200 1.216079  z" fill="none" stroke="rgb(128,128,128)" stroke-width="0.01" />
<line x1="-0.0281471" y1="-0.351153" x2="-0.21765" y2="-0.311495" style="stroke:rgb(246,147,147);stroke-width:0.01" />
<line x1="-0.0184549" y1="-0.340707" x2="-0.116085" y2="-0.324594" style="stroke:rgb(246,147,147);stroke-width:0.01" />
<line x1="0.140864" y1="-0.0305761" x2="0.309605" y2="0.0128683" style="stroke:rgb(246,147,147);stroke-width:0.01" />
<line x1="0.180493" y1="-0.126286" x2="-0.237666" y2="0.0112318" style="stroke:rgb(246,147,147);stroke-width:0.01" />
<line x1="-0.237666" y1="0.0112318" x2="-0.321596" y2="0.0791912" style="stroke:rgb(246,147,147);stroke-width:0.01" />
<line x1="-0.0281471" y1="-0.351153" x2="0.401609" y2="0.112029" style="stroke:rgb(246,147,147);stroke-width:0.01" />
<line x1="0.140864" y1="-0.0305761" x2="0.398888" y2="0.121688" style="stroke:rgb(246,147,147);stroke-width:0.01" />
<line x1="-0.237666" y1="0.0112318" x2="0.313776" y2="0.0361682" style="stroke:rgb(246,147,147);stroke-width:0.01" />
<line x1="-0.128768" y1="0.113217" x2="0.398888" y2="0.121688" style="stroke:rgb(246,147,147);stroke-width:0.01" />
<line x1="0.309605" y1="0.0128683" x2="0.313776" y2="0.0361682" style="stroke:rgb(246,147,147);stroke-width:0.01" />
<line x1="-0.0281471" y1="-0.351153" x2="-0.196894" y2="0.233198" style="stroke:rgb(246,147,147);stroke-width:0.01" />
<line x1="0.313776" y1="0.0361682" x2="0.000550528" y2="0.168416" style="stroke:rgb(246,147,147);stroke-width:0.01" />
<line x1="-0.0184549" y1="-0.340707" x2="-0.128768" y2="0.113217" style="stroke:rgb(246,147,147);stroke-width:0.01" />
<line x1="0.401609" y1="0.112029" x2="-0.196894" y2="0.233198" style="stroke:rgb(246,147,147);stroke-width:0.01" />
<line x1="-0.0867674" y1="-0.0383935" x2="0.000550528" y2="0.168416" style="stroke:rgb(246,147,147);stroke-width:0.01" />
<line x1="-0.116085" y1="-0.324594" x2="-0.0296142" y2="0.199332" style="stroke:rgb(246,147,147);stroke-width:0.01" />
<line x1="-0.0867674" y1="-0.0383935" x2="-0.0296142" y2="0.199332" style="stroke:rgb(246,147,147);stroke-width:0.01" />
<line x1="0.180493" y1="-0.126286" x2="0.140864" y2="-0.0305761" style="stroke:rgb(246,147,147);stroke-width:0.01" />
<line x1="-0.21765" y1="-0.311495" x2="-0.128768" y2="0.113217" style="stroke:rgb(246,147,147);stroke-width:0.01" />
<line x1="0.401609" y1="0.112029" x2="0.398888" y2="0.121688" style="stroke:rgb(246,147,147);stroke-width:0.01" />
<line x1="-0.321596" y1="0.0791912" x2="-0.196894" y2="0.233198" style="stroke:rgb(246,147,147);stroke-width:0.01" />
</g>
</svg>
