<svg xmlns="http://www.w3.org/2000/svg" viewBox="-1.5 -1.5 3 3">
<g transform="scale(1, -1)">
<path d="M0.251124 -0.711645 L0.694901 0.184492 L0.318523 0.370879 L0.169931 0.357192 L-0.233207 0.155591 L-0.556258 -0.088641 L-0.645013 -0.267868 z " fill="rgb(245,195,195)" />
<path d="M-0.825477 -0.337121 L0.174523 -0.337121 L0.174523 0.662879 L-0.825477 0.662879  z" fill="none" stroke="rgb(128,128,128)" stroke-width="0.01" />
<line x1="0.251124" y1="-0.711645" x2="0.694901" y2="0.184492" style="stroke:rgb(246,147,147);stroke-width:0.01" />
<line x1="0.0589772" y1="0.256979" x2="0.125814" y2="0.33513" style="stroke:rgb(246,147,147);stroke-width:0.01" />
<line x1="0.151469" y1="0.336778" x2="0.169931" y2="0.357192" style="stroke:rgb(246,147,147);stroke-width:0.01" />
<line x1="0.0759455" y1="0.300309" x2="0.0779206" y2="0.31118" style="stroke:rgb(246,147,147);stroke-width:0.01" />
<line x1="0.0589772" y1="0.256979" x2="0.0663984" y2="0.305418" style="stroke:rgb(246,147,147);stroke-width:0.01" />
<line x1="0.174523" y1="0.262879" x2="0.318523" y2="0.370879" style="stroke:rgb(246,147,147);stroke-width:0.01" />
<line x1="-0.645013" y1="-0.267868" x2="-0.556258" y2="-0.0886407" style="stroke:rgb(246,147,147);stroke-width:0.01" />
<line x1="0.174523" y1="0.262879" x2="0.174523" y2="0.357615" style="stroke:rgb(246,147,147);stroke-width:0.01" />
<line x1="-0.556258" y1="-0.0886407" x2="-0.233207" y2="0.155591" style="stroke:rgb(246,147,147);stroke-width:0.01" />
<line x1="-0.209813" y1="0.16232" x2="-0.186513" y2="0.178942" style="stroke:rgb(246,147,147);stroke-width:0.01" />
<line x1="0.251124" y1="-0.711645" x2="-0.645013" y2="-0.267868" style="stroke:rgb(246,147,147);stroke-width:0.01" />
<line x1="-0.233207" y1="0.155591" x2="0.169931" y2="0.357192" style="stroke:rgb(246,147,147);stroke-width:0.01" />
<line x1="-0.209813" y1="0.16232" x2="0.151469" y2="0.336778" style="stroke:rgb(246,147,147);stroke-width:0.01" />
<line x1="-0.556258" y1="-0.0886407" x2="0.230283" y2="0.057488" style="stroke:rgb(246,147,147);stroke-width:0.01" />
<line x1="0.230283" y1="0.057488" x2="0.174523" y2="0.357615" style="stroke:rgb(246,147,147);stroke-width:0.01" />
<line x1="-0.186513" y1="0.178942" x2="0.0589772" y2="0.256979" style="stroke:rgb(246,147,147);stroke-width:0.01" />
<line x1="-0.233207" y1="0.155591" x2="-0.209813" y2="0.16232" style="stroke:rgb(246,147,147);stroke-width:0.01" />
<line x1="0.169931" y1="0.357192" x2="0.318523" y2="0.370879" style="stroke:rgb(246,147,147);stroke-width:0.01" />
<line x1="0.125814" y1="0.33513" x2="0.151469" y2="0.336778" style="stroke:rgb(246,147,147);stroke-width:0.01" />
<line x1="0.0759455" y1="0.300309" x2="0.0663984" y2="0.305418" style="stroke:rgb(246,147,147);stroke-width:0.01" />
<line x1="0.174523" y1="0.262879" x2="0.0779206" y2="0.31118" style="stroke:rgb(246,147,147);stroke-width:0.01" />
<line x1="0.694901" y1="0.184492" x2="0.318523" y2="0.370879" style="stroke:rgb(246,147,147);stroke-width:0.01" />
</g>
</svg>
