<svg xmlns="http://www.w3.org/2000/svg" viewBox="-1.5 -1.5 3 3">
<g transform="scale(1, -1)">
<path d="M-0.004440 -0.223713 L0.144868 -0.144083 L0.133149 -0.097208 L0.089290 -0.076702 L0.248990 0.173779 L-0.004517 0.117673 L-0.012485 0.132204 L-0.171280 0.045123 L-0.197963 0.057598 L-0.225610 0.015329 z " fill="rgb(245,195,195)" />
<path d="M-0.464507 0.355917 L0.535493 0.355917 L0.535493 1.355917 L-0.464507 1.355917  z" fill="none" stroke="rgb(128,128,128)" stroke-width="0.01" />
<line x1="-0.00444013" y1="-0.223713" x2="0.144868" y2="-0.144083" style="stroke:rgb(246,147,147);stroke-width:0.01" />
<line x1="-0.0426756" y1="-0.182388" x2="0.133149" y2="-0.0972077" style="stroke:rgb(246,147,147);stroke-width:0.01" />
<line x1="0.0354926" y1="-0.144083" x2="0.144868" y2="-0.144083" style="stroke:rgb(246,147,147);stroke-width:0.01" />
<line x1="-0.127584" y1="-0.0906189" x2="0.11459" y2="-0.0370209" style="stroke:rgb(246,147,147);stroke-width:0.01" />
<line x1="-0.0768603" y1="-0.145441" x2="0.0354926" y2="-0.0515502" style="stroke:rgb(246,147,147);stroke-width:0.01" />
<line x1="-0.148267" y1="-0.0682647" x2="0.0406397" y2="0.0353291" style="stroke:rgb(246,147,147);stroke-width:0.01" />
<line x1="-0.0768603" y1="-0.145441" x2="0.0618897" y2="-0.00342091" style="stroke:rgb(246,147,147);stroke-width:0.01" />
<line x1="-0.179204" y1="-0.0348272" x2="0.0193897" y2="0.0740791" style="stroke:rgb(246,147,147);stroke-width:0.01" />
<line x1="-0.20086" y1="-0.0114209" x2="-0.0968603" y2="0.0103291" style="stroke:rgb(246,147,147);stroke-width:0.01" />
<line x1="-0.00444013" y1="-0.223713" x2="0.24899" y2="0.173779" style="stroke:rgb(246,147,147);stroke-width:0.01" />
<line x1="-0.22561" y1="0.0153291" x2="-0.0124853" y2="0.132204" style="stroke:rgb(246,147,147);stroke-width:0.01" />
<line x1="-0.190167" y1="-0.0229779" x2="-0.147669" y2="0.0133858" style="stroke:rgb(246,147,147);stroke-width:0.01" />
<line x1="-0.190167" y1="-0.0229779" x2="-0.0623068" y2="0.104883" style="stroke:rgb(246,147,147);stroke-width:0.01" />
<line x1="-0.0623068" y1="0.104883" x2="0.24899" y2="0.173779" style="stroke:rgb(246,147,147);stroke-width:0.01" />
<line x1="-0.0426756" y1="-0.182388" x2="0.0618897" y2="-0.00342091" style="stroke:rgb(246,147,147);stroke-width:0.01" />
<line x1="-0.148267" y1="-0.0682647" x2="-0.0968603" y2="0.0103291" style="stroke:rgb(246,147,147);stroke-width:0.01" />
<line x1="-0.179204" y1="-0.0348272" x2="-0.147669" y2="0.0133858" style="stroke:rgb(246,147,147);stroke-width:0.01" />
<line x1="-0.0968603" y1="0.0103291" x2="-0.18686" y2="0.0365791" style="stroke:rgb(246,147,147);stroke-width:0.01" />
<line x1="-0.22561" y1="0.0153291" x2="-0.197963" y2="0.057598" style="stroke:rgb(246,147,147);stroke-width:0.01" />
<line x1="0.0618897" y1="-0.00342091" x2="0.00188966" y2="0.0140791" style="stroke:rgb(246,147,147);stroke-width:0.01" />
<line x1="0.00188966" y1="0.0140791" x2="0.0193897" y2="0.0740791" style="stroke:rgb(246,147,147);stroke-width:0.01" />
<line x1="0.133149" y1="-0.0972077" x2="-0.197963" y2="0.057598" style="stroke:rgb(246,147,147);stroke-width:0.01" />
<line x1="-0.127584" y1="-0.0906189" x2="-0.0968603" y2="0.0103291" style="stroke:rgb(246,147,147);stroke-width:0.01" />
<line x1="0.0193897" y1="0.0740791" x2="-0.0706103" y2="0.100329" style="stroke:rgb(246,147,147);stroke-width:0.01" />
<line x1="-0.0968603" y1="0.0103291" x2="-0.0706103" y2="0.100329" style="stroke:rgb(246,147,147);stroke-width:0.01" />
<line x1="-0.20086" y1="-0.0114209" x2="-0.18686" y2="0.0365791" style="stroke:rgb(246,147,147);stroke-width:0.01" />
<line x1="-0.00444013" y1="-0.223713" x2="-0.22561" y2="0.0153291" style="stroke:rgb(246,147,147);stroke-width:0.01" />
<line x1="-0.147669" y1="0.0133858" x2="-0.197963" y2="0.057598" style="stroke:rgb(246,147,147);stroke-width:0.01" />
<line x1="0.0354926" y1="-0.144083" x2="0.0354926" y2="-0.0515502" style="stroke:rgb(246,147,147);stroke-width:0.01" />
<line x1="0.11459" y1="-0.0370209" x2="0.0763897" y2="0.135579" style="stroke:rgb(246,147,147);stroke-width:0.01" />
<line x1="0.144868" y1="-0.144083" x2="0.133149" y2="-0.0972077" style="stroke:rgb(246,147,147);stroke-width:0.01" />
<line x1="0.00188966" y1="0.0140791" x2="-0.0512353" y2="0.110954" style="stroke:rgb(246,147,147);stroke-width:0.01" />
<line x1="0.0618897" y1="-0.00342091" x2="-0.0124853" y2="0.132204" style="stroke:rgb(246,147,147);stroke-width:0.01" />
</g>
</svg>
