<svg xmlns="http://www.w3.org/2000/svg" viewBox="-1.5 -1.5 3 3">
<g transform="scale(1, -1)">
<path d="M0.460067 -0.579631 L0.609375 -0.500000 L0.597656 -0.453125 L0.553797 -0.432620 L0.713497 -0.182138 L0.459991 -0.238244 L0.452022 -0.223713 L0.293227 -0.310794 L0.266544 -0.298319 L0.238897 -0.340588 z " fill="rgb(245,195,195)" />
<path d="M0.000000 0.000000 L1.000000 0.000000 L1.000000 1.000000 L0.000000 1.000000  z" fill="none" stroke="rgb(128,128,128)" stroke-width="0.01" />
<line x1="0.460067" y1="-0.579631" x2="0.609375" y2="-0.5" style="stroke:rgb(246,147,147);stroke-width:0.01" />
<line x1="0.421832" y1="-0.538306" x2="0.597656" y2="-0.453125" style="stroke:rgb(246,147,147);stroke-width:0.01" />
<line x1="0.5" y1="-0.5" x2="0.609375" y2="-0.5" style="stroke:rgb(246,147,147);stroke-width:0.01" />
<line x1="0.336924" y1="-0.446536" x2="0.579097" y2="-0.392938" style="stroke:rgb(246,147,147);stroke-width:0.01" />
<line x1="0.387647" y1="-0.501358" x2="0.5" y2="-0.407468" style="stroke:rgb(246,147,147);stroke-width:0.01" />
<line x1="0.316241" y1="-0.424182" x2="0.505147" y2="-0.320588" style="stroke:rgb(246,147,147);stroke-width:0.01" />
<line x1="0.387647" y1="-0.501358" x2="0.526397" y2="-0.359338" style="stroke:rgb(246,147,147);stroke-width:0.01" />
<line x1="0.285303" y1="-0.390744" x2="0.483897" y2="-0.281838" style="stroke:rgb(246,147,147);stroke-width:0.01" />
<line x1="0.263647" y1="-0.367338" x2="0.367647" y2="-0.345588" style="stroke:rgb(246,147,147);stroke-width:0.01" />
<line x1="0.460067" y1="-0.579631" x2="0.713497" y2="-0.182138" style="stroke:rgb(246,147,147);stroke-width:0.01" />
<line x1="0.238897" y1="-0.340588" x2="0.452022" y2="-0.223713" style="stroke:rgb(246,147,147);stroke-width:0.01" />
<line x1="0.27434" y1="-0.378895" x2="0.316838" y2="-0.342532" style="stroke:rgb(246,147,147);stroke-width:0.01" />
<line x1="0.27434" y1="-0.378895" x2="0.402201" y2="-0.251035" style="stroke:rgb(246,147,147);stroke-width:0.01" />
<line x1="0.402201" y1="-0.251035" x2="0.713497" y2="-0.182138" style="stroke:rgb(246,147,147);stroke-width:0.01" />
<line x1="0.421832" y1="-0.538306" x2="0.526397" y2="-0.359338" style="stroke:rgb(246,147,147);stroke-width:0.01" />
<line x1="0.316241" y1="-0.424182" x2="0.367647" y2="-0.345588" style="stroke:rgb(246,147,147);stroke-width:0.01" />
<line x1="0.285303" y1="-0.390744" x2="0.316838" y2="-0.342532" style="stroke:rgb(246,147,147);stroke-width:0.01" />
<line x1="0.367647" y1="-0.345588" x2="0.277647" y2="-0.319338" style="stroke:rgb(246,147,147);stroke-width:0.01" />
<line x1="0.238897" y1="-0.340588" x2="0.266544" y2="-0.298319" style="stroke:rgb(246,147,147);stroke-width:0.01" />
<line x1="0.526397" y1="-0.359338" x2="0.466397" y2="-0.341838" style="stroke:rgb(246,147,147);stroke-width:0.01" />
<line x1="0.466397" y1="-0.341838" x2="0.483897" y2="-0.281838" style="stroke:rgb(246,147,147);stroke-width:0.01" />
<line x1="0.597656" y1="-0.453125" x2="0.266544" y2="-0.298319" style="stroke:rgb(246,147,147);stroke-width:0.01" />
<line x1="0.336924" y1="-0.446536" x2="0.367647" y2="-0.345588" style="stroke:rgb(246,147,147);stroke-width:0.01" />
<line x1="0.483897" y1="-0.281838" x2="0.393897" y2="-0.255588" style="stroke:rgb(246,147,147);stroke-width:0.01" />
<line x1="0.367647" y1="-0.345588" x2="0.393897" y2="-0.255588" style="stroke:rgb(246,147,147);stroke-width:0.01" />
<line x1="0.263647" y1="-0.367338" x2="0.277647" y2="-0.319338" style="stroke:rgb(246,147,147);stroke-width:0.01" />
<line x1="0.460067" y1="-0.579631" x2="0.238897" y2="-0.340588" style="stroke:rgb(246,147,147);stroke-width:0.01" />
<line x1="0.316838" y1="-0.342532" x2="0.266544" y2="-0.298319" style="stroke:rgb(246,147,147);stroke-width:0.01" />
<line x1="0.5" y1="-0.5" x2="0.5" y2="-0.407468" style="stroke:rgb(246,147,147);stroke-width:0.01" />
<line x1="0.579097" y1="-0.392938" x2="0.540897" y2="-0.220338" style="stroke:rgb(246,147,147);stroke-width:0.01" />
<line x1="0.609375" y1="-0.5" x2="0.597656" y2="-0.453125" style="stroke:rgb(246,147,147);stroke-width:0.01" />
<line x1="0.466397" y1="-0.341838" x2="0.413272" y2="-0.244963" style="stroke:rgb(246,147,147);stroke-width:0.01" />
<line x1="0.526397" y1="-0.359338" x2="0.452022" y2="-0.223713" style="stroke:rgb(246,147,147);stroke-width:0.01" />
</g>
</svg>
