<svg xmlns="http://www.w3.org/2000/svg" viewBox="-1.5 -1.5 3 3">
<g transform="scale(1, -1)">
<path d="M0.129431 0.954014 L0.238155 1.183967 L-0.034305 1.312788 L-0.041130 1.305269 L-0.047794 1.308824 L-0.061881 1.282410 L-0.212746 1.116219 L-0.108444 1.021535 L0.042524 1.028833 L0.075470 1.000470 L0.077276 0.963103 z " fill="rgb(245,195,195)" />
<path d="M0.000000 0.000000 L1.000000 0.000000 L1.000000 1.000000 L0.000000 1.000000  z" fill="none" stroke="rgb(128,128,128)" stroke-width="0.01" />
<line x1="0.0417714" y1="1.0288" x2="0.0295023" y2="1.28262" style="stroke:rgb(246,147,147);stroke-width:0.01" />
<line x1="0.0772763" y1="0.963103" x2="0.0625878" y2="1.26698" style="stroke:rgb(246,147,147);stroke-width:0.01" />
<line x1="0.196051" y1="1.09492" x2="0.190661" y2="1.20642" style="stroke:rgb(246,147,147);stroke-width:0.01" />
<line x1="0.0779828" y1="1.10839" x2="0.0988143" y2="1.24985" style="stroke:rgb(246,147,147);stroke-width:0.01" />
<line x1="-0.0627727" y1="1.11948" x2="-0.034305" y2="1.31279" style="stroke:rgb(246,147,147);stroke-width:0.01" />
<line x1="0.0772763" y1="0.963103" x2="0.16975" y2="1.18594" style="stroke:rgb(246,147,147);stroke-width:0.01" />
<line x1="0.129431" y1="0.954014" x2="0.238155" y2="1.18397" style="stroke:rgb(246,147,147);stroke-width:0.01" />
<line x1="0.142754" y1="1.0553" x2="0.186166" y2="1.14712" style="stroke:rgb(246,147,147);stroke-width:0.01" />
<line x1="0.0728939" y1="1.05377" x2="0.129663" y2="1.17383" style="stroke:rgb(246,147,147);stroke-width:0.01" />
<line x1="0.072464" y1="1.00306" x2="0.172794" y2="1.19118" style="stroke:rgb(246,147,147);stroke-width:0.01" />
<line x1="-0.0565421" y1="1.21866" x2="-0.0398453" y2="1.25398" style="stroke:rgb(246,147,147);stroke-width:0.01" />
<line x1="-0.121714" y1="1.17022" x2="-0.0477941" y2="1.30882" style="stroke:rgb(246,147,147);stroke-width:0.01" />
<line x1="0.167666" y1="1.03488" x2="0.0191528" y2="1.23469" style="stroke:rgb(246,147,147);stroke-width:0.01" />
<line x1="-0.108444" y1="1.02154" x2="-0.212746" y2="1.11622" style="stroke:rgb(246,147,147);stroke-width:0.01" />
<line x1="0.21592" y1="1.13694" x2="0.173665" y2="1.19379" style="stroke:rgb(246,147,147);stroke-width:0.01" />
<line x1="-0.108444" y1="1.02154" x2="0.0988143" y2="1.24985" style="stroke:rgb(246,147,147);stroke-width:0.01" />
<line x1="-0.212746" y1="1.11622" x2="-0.034305" y2="1.31279" style="stroke:rgb(246,147,147);stroke-width:0.01" />
<line x1="0.072464" y1="1.00306" x2="0.196051" y2="1.09492" style="stroke:rgb(246,147,147);stroke-width:0.01" />
<line x1="0.129431" y1="0.954014" x2="-0.121714" y2="1.17022" style="stroke:rgb(246,147,147);stroke-width:0.01" />
<line x1="0.0937202" y1="1.13437" x2="0.190661" y2="1.20642" style="stroke:rgb(246,147,147);stroke-width:0.01" />
<line x1="0.167666" y1="1.03488" x2="-0.0565421" y2="1.21866" style="stroke:rgb(246,147,147);stroke-width:0.01" />
<line x1="0.0191528" y1="1.23469" x2="0.0625878" y2="1.26698" style="stroke:rgb(246,147,147);stroke-width:0.01" />
<line x1="-0.121714" y1="1.17022" x2="0.0295023" y2="1.28262" style="stroke:rgb(246,147,147);stroke-width:0.01" />
<line x1="0.129431" y1="0.954014" x2="0.0772763" y2="0.963103" style="stroke:rgb(246,147,147);stroke-width:0.01" />
<line x1="0.0779828" y1="1.10839" x2="0.186166" y2="1.14712" style="stroke:rgb(246,147,147);stroke-width:0.01" />
<line x1="0.227714" y1="1.16189" x2="-0.0477941" y2="1.30882" style="stroke:rgb(246,147,147);stroke-width:0.01" />
<line x1="0.214417" y1="1.13376" x2="-0.0398453" y2="1.25398" style="stroke:rgb(246,147,147);stroke-width:0.01" />
<line x1="-0.108444" y1="1.02154" x2="0.167666" y2="1.03488" style="stroke:rgb(246,147,147);stroke-width:0.01" />
<line x1="0.167666" y1="1.03488" x2="0.0728939" y2="1.05377" style="stroke:rgb(246,147,147);stroke-width:0.01" />
<line x1="-0.0627727" y1="1.11948" x2="0.172794" y2="1.19118" style="stroke:rgb(246,147,147);stroke-width:0.01" />
<line x1="0.238155" y1="1.18397" x2="-0.034305" y2="1.31279" style="stroke:rgb(246,147,147);stroke-width:0.01" />
<line x1="0.227714" y1="1.16189" x2="0.16975" y2="1.18594" style="stroke:rgb(246,147,147);stroke-width:0.01" />
<line x1="-0.212746" y1="1.11622" x2="0.21592" y2="1.13694" style="stroke:rgb(246,147,147);stroke-width:0.01" />
</g>
</svg>
