<svg xmlns="http://www.w3.org/2000/svg" viewBox="-1.5 -1.5 3 3">
<g transform="scale(1, -1)">
<path d="M0.124290 -0.180298 L0.233013 0.049655 L-0.039446 0.178476 L-0.046271 0.170957 L-0.052936 0.174512 L-0.067023 0.148098 L-0.217888 -0.018093 L-0.113585 -0.112777 L0.037382 -0.105479 L0.070329 -0.133842 L0.072135 -0.171209 z " fill="rgb(245,195,195)" />
<path d="M-0.005141 -1.134312 L0.994859 -1.134312 L0.994859 -0.134312 L-0.005141 -0.134312  z" fill="none" stroke="rgb(128,128,128)" stroke-width="0.01" />
<line x1="0.03663" y1="-0.105516" x2="0.0243609" y2="0.148307" style="stroke:rgb(246,147,147);stroke-width:0.01" />
<line x1="0.0721348" y1="-0.171209" x2="0.0574464" y2="0.132664" style="stroke:rgb(246,147,147);stroke-width:0.01" />
<line x1="0.190909" y1="-0.0393959" x2="0.185519" y2="0.0721102" style="stroke:rgb(246,147,147);stroke-width:0.01" />
<line x1="0.0728414" y1="-0.025917" x2="0.0936729" y2="0.115536" style="stroke:rgb(246,147,147);stroke-width:0.01" />
<line x1="-0.0679141" y1="-0.0148297" x2="-0.0394465" y2="0.178476" style="stroke:rgb(246,147,147);stroke-width:0.01" />
<line x1="0.0721348" y1="-0.171209" x2="0.164609" y2="0.0516279" style="stroke:rgb(246,147,147);stroke-width:0.01" />
<line x1="0.12429" y1="-0.180298" x2="0.233013" y2="0.0496548" style="stroke:rgb(246,147,147);stroke-width:0.01" />
<line x1="0.137613" y1="-0.0790098" x2="0.181024" y2="0.0128072" style="stroke:rgb(246,147,147);stroke-width:0.01" />
<line x1="0.0677525" y1="-0.0805463" x2="0.124522" y2="0.0395221" style="stroke:rgb(246,147,147);stroke-width:0.01" />
<line x1="0.0673226" y1="-0.131255" x2="0.167653" y2="0.0568645" style="stroke:rgb(246,147,147);stroke-width:0.01" />
<line x1="-0.0616835" y1="0.0843526" x2="-0.0449867" y2="0.119667" style="stroke:rgb(246,147,147);stroke-width:0.01" />
<line x1="-0.126855" y1="0.0359124" x2="-0.0529355" y2="0.174512" style="stroke:rgb(246,147,147);stroke-width:0.01" />
<line x1="0.162525" y1="-0.0994301" x2="0.0140114" y2="0.10038" style="stroke:rgb(246,147,147);stroke-width:0.01" />
<line x1="-0.113585" y1="-0.112777" x2="-0.217888" y2="-0.0180926" style="stroke:rgb(246,147,147);stroke-width:0.01" />
<line x1="0.210779" y1="0.00262802" x2="0.168524" y2="0.0594777" style="stroke:rgb(246,147,147);stroke-width:0.01" />
<line x1="-0.113585" y1="-0.112777" x2="0.0936729" y2="0.115536" style="stroke:rgb(246,147,147);stroke-width:0.01" />
<line x1="-0.217888" y1="-0.0180926" x2="-0.0394465" y2="0.178476" style="stroke:rgb(246,147,147);stroke-width:0.01" />
<line x1="0.0673226" y1="-0.131255" x2="0.190909" y2="-0.0393959" style="stroke:rgb(246,147,147);stroke-width:0.01" />
<line x1="0.12429" y1="-0.180298" x2="-0.126855" y2="0.0359124" style="stroke:rgb(246,147,147);stroke-width:0.01" />
<line x1="0.0885788" y1="5.69e-05" x2="0.185519" y2="0.0721102" style="stroke:rgb(246,147,147);stroke-width:0.01" />
<line x1="0.162525" y1="-0.0994301" x2="-0.0616835" y2="0.0843526" style="stroke:rgb(246,147,147);stroke-width:0.01" />
<line x1="0.0140114" y1="0.10038" x2="0.0574464" y2="0.132664" style="stroke:rgb(246,147,147);stroke-width:0.01" />
<line x1="-0.126855" y1="0.0359124" x2="0.0243609" y2="0.148307" style="stroke:rgb(246,147,147);stroke-width:0.01" />
<line x1="0.12429" y1="-0.180298" x2="0.0721348" y2="-0.171209" style="stroke:rgb(246,147,147);stroke-width:0.01" />
<line x1="0.0728414" y1="-0.025917" x2="0.181024" y2="0.0128072" style="stroke:rgb(246,147,147);stroke-width:0.01" />
<line x1="0.222573" y1="0.0275737" x2="-0.0529355" y2="0.174512" style="stroke:rgb(246,147,147);stroke-width:0.01" />
<line x1="0.209276" y1="-0.000550257" x2="-0.0449867" y2="0.119667" style="stroke:rgb(246,147,147);stroke-width:0.01" />
<line x1="-0.113585" y1="-0.112777" x2="0.162525" y2="-0.0994301" style="stroke:rgb(246,147,147);stroke-width:0.01" />
<line x1="0.162525" y1="-0.0994301" x2="0.0677525" y2="-0.0805463" style="stroke:rgb(246,147,147);stroke-width:0.01" />
<line x1="-0.0679141" y1="-0.0148297" x2="0.167653" y2="0.0568645" style="stroke:rgb(246,147,147);stroke-width:0.01" />
<line x1="0.233013" y1="0.0496548" x2="-0.0394465" y2="0.178476" style="stroke:rgb(246,147,147);stroke-width:0.01" />
<line x1="0.222573" y1="0.0275737" x2="0.164609" y2="0.0516279" style="stroke:rgb(246,147,147);stroke-width:0.01" />
<line x1="-0.217888" y1="-0.0180926" x2="0.210779" y2="0.00262802" style="stroke:rgb(246,147,147);stroke-width:0.01" />
</g>
</svg>
