<svg xmlns="http://www.w3.org/2000/svg" viewBox="-1.5 -1.5 3 3">
<g transform="scale(1, -1)">
<path d="M-0.058274 -0.195784 L-0.040212 -0.150119 L0.129589 -0.076571 L0.127780 -0.065246 L0.167977 0.036380 L0.029026 0.091340 L0.048889 0.154377 L-0.102536 0.202091 L-0.122617 0.151320 L-0.179622 -0.147787 z " fill="rgb(245,195,195)" />
<path d="M-0.685117 -0.598680 L0.314883 -0.598680 L0.314883 0.401320 L-0.685117 0.401320  z" fill="none" stroke="rgb(128,128,128)" stroke-width="0.01" />
<line x1="0.122001" y1="-0.0798573" x2="0.167977" y2="0.0363805" style="stroke:rgb(246,147,147);stroke-width:0.01" />
<line x1="-0.0610948" y1="-0.194669" x2="-0.0426753" y2="-0.156346" style="stroke:rgb(246,147,147);stroke-width:0.01" />
<line x1="-0.0582742" y1="-0.195784" x2="0.0517393" y2="0.0823563" style="stroke:rgb(246,147,147);stroke-width:0.01" />
<line x1="-0.0610948" y1="-0.194669" x2="0.048889" y2="0.154377" style="stroke:rgb(246,147,147);stroke-width:0.01" />
<line x1="-0.1542" y1="-0.157842" x2="-0.133273" y2="-0.11" style="stroke:rgb(246,147,147);stroke-width:0.01" />
<line x1="-0.1542" y1="-0.157842" x2="-0.0959446" y2="0.00634732" style="stroke:rgb(246,147,147);stroke-width:0.01" />
<line x1="-0.171098" y1="-0.151159" x2="-0.0338435" y2="0.134401" style="stroke:rgb(246,147,147);stroke-width:0.01" />
<line x1="-0.174512" y1="-0.149808" x2="-0.0644985" y2="0.128332" style="stroke:rgb(246,147,147);stroke-width:0.01" />
<line x1="-0.171098" y1="-0.151159" x2="-0.155629" y2="-0.102068" style="stroke:rgb(246,147,147);stroke-width:0.01" />
<line x1="-0.122617" y1="0.15132" x2="-0.102536" y2="0.202091" style="stroke:rgb(246,147,147);stroke-width:0.01" />
<line x1="-0.179622" y1="-0.147787" x2="-0.122617" y2="0.15132" style="stroke:rgb(246,147,147);stroke-width:0.01" />
<line x1="0.0805851" y1="-0.0977966" x2="0.127596" y2="-0.06409" style="stroke:rgb(246,147,147);stroke-width:0.01" />
<line x1="-0.122617" y1="-0.147787" x2="-0.122617" y2="0.15132" style="stroke:rgb(246,147,147);stroke-width:0.01" />
<line x1="0.129589" y1="-0.0765706" x2="0.127596" y2="-0.06409" style="stroke:rgb(246,147,147);stroke-width:0.01" />
<line x1="-0.103939" y1="-0.177722" x2="0.129589" y2="-0.0765706" style="stroke:rgb(246,147,147);stroke-width:0.01" />
<line x1="-0.0159455" y1="-0.116908" x2="-0.0766367" y2="0.189642" style="stroke:rgb(246,147,147);stroke-width:0.01" />
<line x1="-0.103939" y1="-0.177722" x2="-0.133273" y2="-0.11" style="stroke:rgb(246,147,147);stroke-width:0.01" />
<line x1="-0.0159455" y1="-0.116908" x2="0.0805851" y2="-0.0977966" style="stroke:rgb(246,147,147);stroke-width:0.01" />
<line x1="-0.179622" y1="-0.147787" x2="-0.122617" y2="-0.147787" style="stroke:rgb(246,147,147);stroke-width:0.01" />
<line x1="-0.17059" y1="-0.100393" x2="-0.122617" y2="-0.09868" style="stroke:rgb(246,147,147);stroke-width:0.01" />
<line x1="-0.170263" y1="-0.09868" x2="-0.122617" y2="-0.09868" style="stroke:rgb(246,147,147);stroke-width:0.01" />
<line x1="-0.122617" y1="-0.09868" x2="-0.169941" y2="-0.0969899" style="stroke:rgb(246,147,147);stroke-width:0.01" />
<line x1="-0.0582742" y1="-0.195784" x2="-0.179622" y2="-0.147787" style="stroke:rgb(246,147,147);stroke-width:0.01" />
<line x1="-0.0644985" y1="0.128332" x2="-0.0338435" y2="0.134401" style="stroke:rgb(246,147,147);stroke-width:0.01" />
<line x1="0.129589" y1="-0.0765706" x2="-0.0766367" y2="0.189642" style="stroke:rgb(246,147,147);stroke-width:0.01" />
<line x1="-0.0426753" y1="-0.156346" x2="-0.17059" y2="-0.100393" style="stroke:rgb(246,147,147);stroke-width:0.01" />
<line x1="-0.133273" y1="-0.11" x2="-0.169941" y2="-0.0969899" style="stroke:rgb(246,147,147);stroke-width:0.01" />
<line x1="-0.0402123" y1="-0.150119" x2="-0.170263" y2="-0.09868" style="stroke:rgb(246,147,147);stroke-width:0.01" />
<line x1="0.127596" y1="-0.06409" x2="-0.0959446" y2="0.00634732" style="stroke:rgb(246,147,147);stroke-width:0.01" />
<line x1="0.122001" y1="-0.0798573" x2="-0.0959446" y2="0.00634732" style="stroke:rgb(246,147,147);stroke-width:0.01" />
<line x1="0.167977" y1="0.0363805" x2="-0.122617" y2="0.15132" style="stroke:rgb(246,147,147);stroke-width:0.01" />
<line x1="-0.0766367" y1="0.189642" x2="-0.102536" y2="0.202091" style="stroke:rgb(246,147,147);stroke-width:0.01" />
<line x1="0.048889" y1="0.154377" x2="-0.102536" y2="0.202091" style="stroke:rgb(246,147,147);stroke-width:0.01" />
</g>
</svg>
