<svg xmlns="http://www.w3.org/2000/svg" viewBox="-1.5 -1.5 3 3">
<g transform="scale(1, -1)">
<path d="M0.281695 -0.410105 L0.460862 -0.171217 L0.168947 0.412612 L-0.082615 0.495156 L-0.311012 0.034425 L-0.240527 -0.018439 L-0.240527 -0.171217 L-0.036823 -0.171217 z " fill="rgb(245,195,195)" />
<path d="M-0.240527 -0.171217 L0.759473 -0.171217 L0.759473 0.828783 L-0.240527 0.828783  z" fill="none" stroke="rgb(128,128,128)" stroke-width="0.01" />
<line x1="0.281695" y1="-0.410105" x2="0.460862" y2="-0.171217" style="stroke:rgb(246,147,147);stroke-width:0.01" />
<line x1="-0.0617691" y1="-0.0364223" x2="0.0611673" y2="0.396072" style="stroke:rgb(246,147,147);stroke-width:0.01" />
<line x1="-0.0253611" y1="0.130512" x2="0.0542333" y2="0.400851" style="stroke:rgb(246,147,147);stroke-width:0.01" />
<line x1="-0.240527" y1="-0.171217" x2="0.460862" y2="-0.171217" style="stroke:rgb(246,147,147);stroke-width:0.01" />
<line x1="-0.240527" y1="-0.171217" x2="-0.240527" y2="0.17661" style="stroke:rgb(246,147,147);stroke-width:0.01" />
<line x1="-0.218551" y1="0.187392" x2="-0.222966" y2="0.212034" style="stroke:rgb(246,147,147);stroke-width:0.01" />
<line x1="-0.311012" y1="0.0344248" x2="-0.082615" y2="0.495156" style="stroke:rgb(246,147,147);stroke-width:0.01" />
<line x1="0.281695" y1="-0.410105" x2="-0.311012" y2="0.0344248" style="stroke:rgb(246,147,147);stroke-width:0.01" />
<line x1="-0.0617691" y1="-0.0364223" x2="-0.311012" y2="0.0344248" style="stroke:rgb(246,147,147);stroke-width:0.01" />
<line x1="-0.218551" y1="0.187392" x2="0.0611673" y2="0.396072" style="stroke:rgb(246,147,147);stroke-width:0.01" />
<line x1="-0.240527" y1="0.17661" x2="0.0542333" y2="0.400851" style="stroke:rgb(246,147,147);stroke-width:0.01" />
<line x1="0.460862" y1="-0.171217" x2="0.168947" y2="0.412612" style="stroke:rgb(246,147,147);stroke-width:0.01" />
<line x1="-0.222966" y1="0.212034" x2="0.168947" y2="0.412612" style="stroke:rgb(246,147,147);stroke-width:0.01" />
<line x1="-0.0253611" y1="0.130512" x2="-0.218551" y2="0.187392" style="stroke:rgb(246,147,147);stroke-width:0.01" />
<line x1="0.0611673" y1="0.396072" x2="-0.082615" y2="0.495156" style="stroke:rgb(246,147,147);stroke-width:0.01" />
<line x1="0.168947" y1="0.412612" x2="-0.082615" y2="0.495156" style="stroke:rgb(246,147,147);stroke-width:0.01" />
</g>
</svg>
