<svg xmlns="http://www.w3.org/2000/svg" viewBox="-1.5 -1.5 3 3">
<g transform="scale(1, -1)">
<path d="M0.877786 -0.149516 L0.924407 -0.131302 L0.878920 -0.014872 L0.945857 0.226000 L0.784091 0.270954 L0.718605 0.475316 L0.667775 0.485365 L0.565096 0.335012 z " fill="rgb(245,195,195)" />
<path d="M0.000000 0.000000 L1.000000 0.000000 L1.000000 1.000000 L0.000000 1.000000  z" fill="none" stroke="rgb(128,128,128)" stroke-width="0.01" />
<line x1="0.877786" y1="-0.149516" x2="0.909042" y2="-0.11898" style="stroke:rgb(246,147,147);stroke-width:0.01" />
<line x1="0.877786" y1="-0.149516" x2="0.924407" y2="-0.131302" style="stroke:rgb(246,147,147);stroke-width:0.01" />
<line x1="0.852424" y1="-0.110218" x2="0.945857" y2="0.226" style="stroke:rgb(246,147,147);stroke-width:0.01" />
<line x1="0.65483" y1="0.316761" x2="0.724757" y2="0.396" style="stroke:rgb(246,147,147);stroke-width:0.01" />
<line x1="0.601116" y1="0.279198" x2="0.738454" y2="0.413373" style="stroke:rgb(246,147,147);stroke-width:0.01" />
<line x1="0.580365" y1="0.311351" x2="0.718605" y2="0.475316" style="stroke:rgb(246,147,147);stroke-width:0.01" />
<line x1="0.565096" y1="0.335012" x2="0.667775" y2="0.485365" style="stroke:rgb(246,147,147);stroke-width:0.01" />
<line x1="0.666509" y1="0.271195" x2="0.708345" y2="0.42174" style="stroke:rgb(246,147,147);stroke-width:0.01" />
<line x1="0.580365" y1="0.311351" x2="0.586199" y2="0.342052" style="stroke:rgb(246,147,147);stroke-width:0.01" />
<line x1="0.593118" y1="0.29159" x2="0.610018" y2="0.400792" style="stroke:rgb(246,147,147);stroke-width:0.01" />
<line x1="0.567613" y1="0.331112" x2="0.569131" y2="0.340921" style="stroke:rgb(246,147,147);stroke-width:0.01" />
<line x1="0.579783" y1="0.332025" x2="0.708345" y2="0.42174" style="stroke:rgb(246,147,147);stroke-width:0.01" />
<line x1="0.843018" y1="-0.095642" x2="0.845071" y2="0.0806526" style="stroke:rgb(246,147,147);stroke-width:0.01" />
<line x1="0.569131" y1="0.340921" x2="0.708345" y2="0.42174" style="stroke:rgb(246,147,147);stroke-width:0.01" />
<line x1="0.909042" y1="-0.11898" x2="0.852424" y2="-0.110218" style="stroke:rgb(246,147,147);stroke-width:0.01" />
<line x1="0.610018" y1="0.400792" x2="0.657073" y2="0.428109" style="stroke:rgb(246,147,147);stroke-width:0.01" />
<line x1="0.601116" y1="0.279198" x2="0.74246" y2="0.334418" style="stroke:rgb(246,147,147);stroke-width:0.01" />
<line x1="0.67183" y1="0.336026" x2="0.657073" y2="0.428109" style="stroke:rgb(246,147,147);stroke-width:0.01" />
<line x1="0.65483" y1="0.316761" x2="0.621309" y2="0.417324" style="stroke:rgb(246,147,147);stroke-width:0.01" />
<line x1="0.924407" y1="-0.131302" x2="0.843018" y2="-0.095642" style="stroke:rgb(246,147,147);stroke-width:0.01" />
<line x1="0.909042" y1="-0.11898" x2="0.718605" y2="0.475316" style="stroke:rgb(246,147,147);stroke-width:0.01" />
<line x1="0.580365" y1="0.311351" x2="0.568211" y2="0.339573" style="stroke:rgb(246,147,147);stroke-width:0.01" />
<line x1="0.924407" y1="-0.131302" x2="0.708345" y2="0.42174" style="stroke:rgb(246,147,147);stroke-width:0.01" />
<line x1="0.579783" y1="0.332025" x2="0.571775" y2="0.344793" style="stroke:rgb(246,147,147);stroke-width:0.01" />
<line x1="0.877786" y1="-0.149516" x2="0.565096" y2="0.335012" style="stroke:rgb(246,147,147);stroke-width:0.01" />
<line x1="0.67183" y1="0.336026" x2="0.568211" y2="0.339573" style="stroke:rgb(246,147,147);stroke-width:0.01" />
<line x1="0.653448" y1="0.389871" x2="0.630066" y2="0.430147" style="stroke:rgb(246,147,147);stroke-width:0.01" />
<line x1="0.621309" y1="0.417324" x2="0.708345" y2="0.42174" style="stroke:rgb(246,147,147);stroke-width:0.01" />
<line x1="0.666509" y1="0.271195" x2="0.593118" y2="0.29159" style="stroke:rgb(246,147,147);stroke-width:0.01" />
<line x1="0.845071" y1="0.0806526" x2="0.610368" y2="0.401304" style="stroke:rgb(246,147,147);stroke-width:0.01" />
<line x1="0.65483" y1="0.316761" x2="0.565096" y2="0.335012" style="stroke:rgb(246,147,147);stroke-width:0.01" />
<line x1="0.586199" y1="0.342052" x2="0.571775" y2="0.344793" style="stroke:rgb(246,147,147);stroke-width:0.01" />
<line x1="0.724757" y1="0.396" x2="0.667775" y2="0.485365" style="stroke:rgb(246,147,147);stroke-width:0.01" />
<line x1="0.945857" y1="0.226" x2="0.567613" y2="0.331112" style="stroke:rgb(246,147,147);stroke-width:0.01" />
<line x1="0.738454" y1="0.413373" x2="0.630066" y2="0.430147" style="stroke:rgb(246,147,147);stroke-width:0.01" />
<line x1="0.653448" y1="0.389871" x2="0.610368" y2="0.401304" style="stroke:rgb(246,147,147);stroke-width:0.01" />
<line x1="0.718605" y1="0.475316" x2="0.667775" y2="0.485365" style="stroke:rgb(246,147,147);stroke-width:0.01" />
<line x1="0.724757" y1="0.396" x2="0.657073" y2="0.428109" style="stroke:rgb(246,147,147);stroke-width:0.01" />
</g>
</svg>
