<svg xmlns="http://www.w3.org/2000/svg" viewBox="-1.5 -1.5 3 3">
<g transform="scale(1, -1)">
<path d="M0.082469 -0.336636 L0.129090 -0.318422 L0.083603 -0.201992 L0.150540 0.038880 L-0.011226 0.083834 L-0.076712 0.288196 L-0.127542 0.298245 L-0.230221 0.147893 z " fill="rgb(245,195,195)" />
<path d="M-0.795317 -0.187120 L0.204683 -0.187120 L0.204683 0.812880 L-0.795317 0.812880  z" fill="none" stroke="rgb(128,128,128)" stroke-width="0.01" />
<line x1="0.0824686" y1="-0.336636" x2="0.113725" y2="-0.306099" style="stroke:rgb(246,147,147);stroke-width:0.01" />
<line x1="0.0824686" y1="-0.336636" x2="0.12909" y2="-0.318422" style="stroke:rgb(246,147,147);stroke-width:0.01" />
<line x1="0.0571072" y1="-0.297337" x2="0.15054" y2="0.0388804" style="stroke:rgb(246,147,147);stroke-width:0.01" />
<line x1="-0.140487" y1="0.129642" x2="-0.0705598" y2="0.208881" style="stroke:rgb(246,147,147);stroke-width:0.01" />
<line x1="-0.194201" y1="0.092078" x2="-0.0568634" y2="0.226254" style="stroke:rgb(246,147,147);stroke-width:0.01" />
<line x1="-0.214952" y1="0.124232" x2="-0.0767125" y2="0.288196" style="stroke:rgb(246,147,147);stroke-width:0.01" />
<line x1="-0.230221" y1="0.147893" x2="-0.127542" y2="0.298245" style="stroke:rgb(246,147,147);stroke-width:0.01" />
<line x1="-0.128808" y1="0.0840756" x2="-0.0869725" y2="0.234621" style="stroke:rgb(246,147,147);stroke-width:0.01" />
<line x1="-0.214952" y1="0.124232" x2="-0.209118" y2="0.154932" style="stroke:rgb(246,147,147);stroke-width:0.01" />
<line x1="-0.202199" y1="0.104471" x2="-0.185299" y2="0.213673" style="stroke:rgb(246,147,147);stroke-width:0.01" />
<line x1="-0.227704" y1="0.143993" x2="-0.226186" y2="0.153801" style="stroke:rgb(246,147,147);stroke-width:0.01" />
<line x1="-0.215534" y1="0.144906" x2="-0.0869725" y2="0.234621" style="stroke:rgb(246,147,147);stroke-width:0.01" />
<line x1="0.0477009" y1="-0.282762" x2="0.0497542" y2="-0.106467" style="stroke:rgb(246,147,147);stroke-width:0.01" />
<line x1="-0.226186" y1="0.153801" x2="-0.0869725" y2="0.234621" style="stroke:rgb(246,147,147);stroke-width:0.01" />
<line x1="0.113725" y1="-0.306099" x2="0.0571072" y2="-0.297337" style="stroke:rgb(246,147,147);stroke-width:0.01" />
<line x1="-0.185299" y1="0.213673" x2="-0.138244" y2="0.24099" style="stroke:rgb(246,147,147);stroke-width:0.01" />
<line x1="-0.194201" y1="0.092078" x2="-0.0528573" y2="0.147298" style="stroke:rgb(246,147,147);stroke-width:0.01" />
<line x1="-0.123487" y1="0.148906" x2="-0.138244" y2="0.24099" style="stroke:rgb(246,147,147);stroke-width:0.01" />
<line x1="-0.140487" y1="0.129642" x2="-0.174008" y2="0.230205" style="stroke:rgb(246,147,147);stroke-width:0.01" />
<line x1="0.12909" y1="-0.318422" x2="0.0477009" y2="-0.282762" style="stroke:rgb(246,147,147);stroke-width:0.01" />
<line x1="0.113725" y1="-0.306099" x2="-0.0767125" y2="0.288196" style="stroke:rgb(246,147,147);stroke-width:0.01" />
<line x1="-0.214952" y1="0.124232" x2="-0.227106" y2="0.152454" style="stroke:rgb(246,147,147);stroke-width:0.01" />
<line x1="0.12909" y1="-0.318422" x2="-0.0869725" y2="0.234621" style="stroke:rgb(246,147,147);stroke-width:0.01" />
<line x1="-0.215534" y1="0.144906" x2="-0.223542" y2="0.157673" style="stroke:rgb(246,147,147);stroke-width:0.01" />
<line x1="0.0824686" y1="-0.336636" x2="-0.230221" y2="0.147893" style="stroke:rgb(246,147,147);stroke-width:0.01" />
<line x1="-0.123487" y1="0.148906" x2="-0.227106" y2="0.152454" style="stroke:rgb(246,147,147);stroke-width:0.01" />
<line x1="-0.141869" y1="0.202751" x2="-0.165251" y2="0.243028" style="stroke:rgb(246,147,147);stroke-width:0.01" />
<line x1="-0.174008" y1="0.230205" x2="-0.0869725" y2="0.234621" style="stroke:rgb(246,147,147);stroke-width:0.01" />
<line x1="-0.128808" y1="0.0840756" x2="-0.202199" y2="0.104471" style="stroke:rgb(246,147,147);stroke-width:0.01" />
<line x1="0.0497542" y1="-0.106467" x2="-0.184949" y2="0.214184" style="stroke:rgb(246,147,147);stroke-width:0.01" />
<line x1="-0.140487" y1="0.129642" x2="-0.230221" y2="0.147893" style="stroke:rgb(246,147,147);stroke-width:0.01" />
<line x1="-0.209118" y1="0.154932" x2="-0.223542" y2="0.157673" style="stroke:rgb(246,147,147);stroke-width:0.01" />
<line x1="-0.0705598" y1="0.208881" x2="-0.127542" y2="0.298245" style="stroke:rgb(246,147,147);stroke-width:0.01" />
<line x1="0.15054" y1="0.0388804" x2="-0.227704" y2="0.143993" style="stroke:rgb(246,147,147);stroke-width:0.01" />
<line x1="-0.0568634" y1="0.226254" x2="-0.165251" y2="0.243028" style="stroke:rgb(246,147,147);stroke-width:0.01" />
<line x1="-0.141869" y1="0.202751" x2="-0.184949" y2="0.214184" style="stroke:rgb(246,147,147);stroke-width:0.01" />
<line x1="-0.0767125" y1="0.288196" x2="-0.127542" y2="0.298245" style="stroke:rgb(246,147,147);stroke-width:0.01" />
<line x1="-0.0705598" y1="0.208881" x2="-0.138244" y2="0.24099" style="stroke:rgb(246,147,147);stroke-width:0.01" />
</g>
</svg>
