<svg xmlns="http://www.w3.org/2000/svg" viewBox="-1.5 -1.5 3 3">
<g transform="scale(1, -1)">
<path d="M-0.023956 -0.339366 L-0.021164 -0.334969 L0.011909 -0.209481 L0.078068 -0.162638 L0.058250 -0.033656 L0.111166 0.167119 L0.018344 0.226060 L0.017933 0.228740 L0.012722 0.229630 L-0.046119 0.266994 L-0.115394 0.251529 L-0.101758 -0.289963 z " fill="rgb(245,195,195)" />
<path d="M0.163766 -0.344177 L1.163766 -0.344177 L1.163766 0.655823 L0.163766 0.655823  z" fill="none" stroke="rgb(128,128,128)" stroke-width="0.01" />
<line x1="-0.100462" y1="-0.289045" x2="-0.10183" y2="-0.287113" style="stroke:rgb(246,147,147);stroke-width:0.01" />
<line x1="-0.0239564" y1="-0.339366" x2="-0.101758" y2="-0.289963" style="stroke:rgb(246,147,147);stroke-width:0.01" />
<line x1="-0.0246965" y1="-0.072367" x2="-0.113126" y2="0.161471" style="stroke:rgb(246,147,147);stroke-width:0.01" />
<line x1="-0.0211645" y1="-0.334969" x2="-0.0460681" y2="0.159195" style="stroke:rgb(246,147,147);stroke-width:0.01" />
<line x1="0.0780679" y1="-0.162638" x2="0.0179326" y2="0.22874" style="stroke:rgb(246,147,147);stroke-width:0.01" />
<line x1="0.00510263" y1="-0.235307" x2="-0.0148577" y2="0.160768" style="stroke:rgb(246,147,147);stroke-width:0.01" />
<line x1="-0.101758" y1="-0.289963" x2="-0.115394" y2="0.251529" style="stroke:rgb(246,147,147);stroke-width:0.01" />
<line x1="0.0576369" y1="-0.0359813" x2="0.0475631" y2="0.163914" style="stroke:rgb(246,147,147);stroke-width:0.01" />
<line x1="-0.0408932" y1="0.0594542" x2="-0.113126" y2="0.161471" style="stroke:rgb(246,147,147);stroke-width:0.01" />
<line x1="-0.0211645" y1="-0.334969" x2="0.111166" y2="0.167119" style="stroke:rgb(246,147,147);stroke-width:0.01" />
<line x1="-0.0239564" y1="-0.339366" x2="-0.0211645" y2="-0.334969" style="stroke:rgb(246,147,147);stroke-width:0.01" />
<line x1="-0.0503372" y1="-0.322614" x2="0.00510263" y2="-0.235307" style="stroke:rgb(246,147,147);stroke-width:0.01" />
<line x1="-0.10183" y1="-0.287113" x2="0.0576369" y2="-0.0359813" style="stroke:rgb(246,147,147);stroke-width:0.01" />
<line x1="0.0780679" y1="-0.162638" x2="-0.106459" y2="-0.103287" style="stroke:rgb(246,147,147);stroke-width:0.01" />
<line x1="-0.101758" y1="-0.289963" x2="0.0780679" y2="-0.162638" style="stroke:rgb(246,147,147);stroke-width:0.01" />
<line x1="-0.113126" y1="0.161471" x2="-0.0461194" y2="0.266994" style="stroke:rgb(246,147,147);stroke-width:0.01" />
<line x1="-0.106459" y1="-0.103287" x2="-0.0246965" y2="-0.072367" style="stroke:rgb(246,147,147);stroke-width:0.01" />
<line x1="0.111166" y1="0.167119" x2="-0.0461194" y2="0.266994" style="stroke:rgb(246,147,147);stroke-width:0.01" />
<line x1="-0.0408932" y1="0.0594542" x2="0.0356195" y2="0.113629" style="stroke:rgb(246,147,147);stroke-width:0.01" />
<line x1="0.0356195" y1="0.113629" x2="-0.113126" y2="0.161471" style="stroke:rgb(246,147,147);stroke-width:0.01" />
<line x1="-0.0460681" y1="0.159195" x2="0.111166" y2="0.167119" style="stroke:rgb(246,147,147);stroke-width:0.01" />
<line x1="-0.113126" y1="0.161471" x2="0.0179326" y2="0.22874" style="stroke:rgb(246,147,147);stroke-width:0.01" />
<line x1="0.0179326" y1="0.22874" x2="-0.115394" y2="0.251529" style="stroke:rgb(246,147,147);stroke-width:0.01" />
<line x1="-0.115394" y1="0.251529" x2="-0.0461194" y2="0.266994" style="stroke:rgb(246,147,147);stroke-width:0.01" />
</g>
</svg>
