<svg xmlns="http://www.w3.org/2000/svg" viewBox="-1.5 -1.5 3 3">
<g transform="scale(1, -1)">
<path d="M-0.111768 -0.203599 L0.086612 -0.203599 L0.160686 -0.078599 L0.085283 0.059135 L0.106982 0.088068 L0.043294 0.135834 L-0.013610 0.239777 L-0.123255 0.179751 L-0.063022 0.069728 L-0.174268 -0.078599 z M-0.018018 -0.078599 L0.002906 -0.050700 L0.018180 -0.078599 z " fill="rgb(245,195,195)" />
<path d="M-0.476351 -0.203599 L0.523649 -0.203599 L0.523649 0.796401 L-0.476351 0.796401  z" fill="none" stroke="rgb(128,128,128)" stroke-width="0.01" />
<line x1="0.0866116" y1="-0.203599" x2="0.160686" y2="-0.0785989" style="stroke:rgb(246,147,147);stroke-width:0.01" />
<line x1="-0.111768" y1="-0.203599" x2="0.106982" y2="0.0880677" style="stroke:rgb(246,147,147);stroke-width:0.01" />
<line x1="-0.174268" y1="-0.0785989" x2="0.00698198" y2="0.163068" style="stroke:rgb(246,147,147);stroke-width:0.01" />
<line x1="-0.111768" y1="-0.203599" x2="0.0866116" y2="-0.203599" style="stroke:rgb(246,147,147);stroke-width:0.01" />
<line x1="-0.174268" y1="-0.0785989" x2="0.160686" y2="-0.0785989" style="stroke:rgb(246,147,147);stroke-width:0.01" />
<line x1="-0.111768" y1="-0.203599" x2="-0.174268" y2="-0.0785989" style="stroke:rgb(246,147,147);stroke-width:0.01" />
<line x1="-0.123255" y1="0.179751" x2="-0.0136102" y2="0.239777" style="stroke:rgb(246,147,147);stroke-width:0.01" />
<line x1="0.0866116" y1="-0.203599" x2="-0.123255" y2="0.179751" style="stroke:rgb(246,147,147);stroke-width:0.01" />
<line x1="0.160686" y1="-0.0785989" x2="-0.0136102" y2="0.239777" style="stroke:rgb(246,147,147);stroke-width:0.01" />
<line x1="0.106982" y1="0.0880677" x2="0.00698198" y2="0.163068" style="stroke:rgb(246,147,147);stroke-width:0.01" />
</g>
</svg>
