<svg xmlns="http://www.w3.org/2000/svg" viewBox="-1.5 -1.5 3 3">
<g transform="scale(1, -1)">
<path d="M0.364583 0.000000 L0.562963 0.000000 L0.637037 0.125000 L0.561634 0.262734 L0.583333 0.291667 L0.519645 0.339433 L0.462741 0.443376 L0.353096 0.383350 L0.413329 0.273327 L0.302083 0.125000 z M0.458333 0.125000 L0.479258 0.152899 L0.494531 0.125000 z " fill="rgb(245,195,195)" />
<path d="M0.000000 0.000000 L1.000000 0.000000 L1.000000 1.000000 L0.000000 1.000000  z" fill="none" stroke="rgb(128,128,128)" stroke-width="0.01" />
<line x1="0.562963" y1="0" x2="0.637037" y2="0.125" style="stroke:rgb(246,147,147);stroke-width:0.01" />
<line x1="0.364583" y1="0" x2="0.583333" y2="0.291667" style="stroke:rgb(246,147,147);stroke-width:0.01" />
<line x1="0.302083" y1="0.125" x2="0.483333" y2="0.366667" style="stroke:rgb(246,147,147);stroke-width:0.01" />
<line x1="0.364583" y1="0" x2="0.562963" y2="0" style="stroke:rgb(246,147,147);stroke-width:0.01" />
<line x1="0.302083" y1="0.125" x2="0.637037" y2="0.125" style="stroke:rgb(246,147,147);stroke-width:0.01" />
<line x1="0.364583" y1="0" x2="0.302083" y2="0.125" style="stroke:rgb(246,147,147);stroke-width:0.01" />
<line x1="0.353096" y1="0.38335" x2="0.462741" y2="0.443376" style="stroke:rgb(246,147,147);stroke-width:0.01" />
<line x1="0.562963" y1="0" x2="0.353096" y2="0.38335" style="stroke:rgb(246,147,147);stroke-width:0.01" />
<line x1="0.637037" y1="0.125" x2="0.462741" y2="0.443376" style="stroke:rgb(246,147,147);stroke-width:0.01" />
<line x1="0.583333" y1="0.291667" x2="0.483333" y2="0.366667" style="stroke:rgb(246,147,147);stroke-width:0.01" />
</g>
</svg>
