<svg xmlns="http://www.w3.org/2000/svg" viewBox="-1.5 -1.5 3 3">
<g transform="scale(1, -1)">
<path d="M-0.097757 -0.211934 L0.145407 -0.130879 L0.145407 -0.070193 L0.240971 -0.070193 L0.037846 0.132932 L-0.032467 0.109495 L-0.042093 0.119121 L-0.072896 0.096018 L-0.082062 0.092963 L-0.242358 -0.067333 z " fill="rgb(245,195,195)" />
<path d="M-0.114498 0.074339 L0.885502 0.074339 L0.885502 1.074339 L-0.114498 1.074339  z" fill="none" stroke="rgb(128,128,128)" stroke-width="0.01" />
<line x1="-0.116311" y1="-0.193379" x2="-0.0420926" y2="-0.193379" style="stroke:rgb(246,147,147);stroke-width:0.01" />
<line x1="-0.0977567" y1="-0.211934" x2="0.145407" y2="-0.130879" style="stroke:rgb(246,147,147);stroke-width:0.01" />
<line x1="-0.0420926" y1="-0.193379" x2="0.107907" y2="-0.0808789" style="stroke:rgb(246,147,147);stroke-width:0.01" />
<line x1="-0.16221" y1="-0.14748" x2="-0.0655301" y2="-0.115254" style="stroke:rgb(246,147,147);stroke-width:0.01" />
<line x1="-0.239498" y1="-0.0701925" x2="0.240971" y2="-0.0701925" style="stroke:rgb(246,147,147);stroke-width:0.01" />
<line x1="-0.229593" y1="-0.0683789" x2="0.145407" y2="-0.0683789" style="stroke:rgb(246,147,147);stroke-width:0.01" />
<line x1="-0.239498" y1="-0.0644727" x2="-0.116311" y2="-0.0644727" style="stroke:rgb(246,147,147);stroke-width:0.01" />
<line x1="-0.0977567" y1="-0.211934" x2="-0.242358" y2="-0.0673326" style="stroke:rgb(246,147,147);stroke-width:0.01" />
<line x1="-0.203225" y1="-0.106465" x2="0.028471" y2="0.0673075" style="stroke:rgb(246,147,147);stroke-width:0.01" />
<line x1="-0.0655301" y1="-0.115254" x2="-0.177905" y2="-0.00287946" style="stroke:rgb(246,147,147);stroke-width:0.01" />
<line x1="-0.221641" y1="-0.0880497" x2="-0.14798" y2="-0.0328041" style="stroke:rgb(246,147,147);stroke-width:0.01" />
<line x1="-0.0977567" y1="-0.211934" x2="-0.0655301" y2="-0.115254" style="stroke:rgb(246,147,147);stroke-width:0.01" />
<line x1="-0.203225" y1="-0.106465" x2="-0.14798" y2="-0.0328041" style="stroke:rgb(246,147,147);stroke-width:0.01" />
<line x1="0.028471" y1="0.0673075" x2="0.037846" y2="0.132932" style="stroke:rgb(246,147,147);stroke-width:0.01" />
<line x1="-0.235452" y1="-0.0742383" x2="-0.0420926" y2="0.119121" style="stroke:rgb(246,147,147);stroke-width:0.01" />
<line x1="-0.16221" y1="-0.14748" x2="-0.0820619" y2="0.0929632" style="stroke:rgb(246,147,147);stroke-width:0.01" />
<line x1="-0.221641" y1="-0.0880497" x2="-0.0973382" y2="0.0776869" style="stroke:rgb(246,147,147);stroke-width:0.01" />
<line x1="-0.242358" y1="-0.0673326" x2="-0.0820619" y2="0.0929632" style="stroke:rgb(246,147,147);stroke-width:0.01" />
<line x1="-0.0973382" y1="0.0776869" x2="-0.0420926" y2="0.119121" style="stroke:rgb(246,147,147);stroke-width:0.01" />
<line x1="-0.239498" y1="-0.0701925" x2="-0.239498" y2="-0.0644727" style="stroke:rgb(246,147,147);stroke-width:0.01" />
<line x1="-0.116311" y1="-0.193379" x2="-0.116311" y2="-0.0644727" style="stroke:rgb(246,147,147);stroke-width:0.01" />
<line x1="0.145407" y1="-0.130879" x2="0.145407" y2="-0.0683789" style="stroke:rgb(246,147,147);stroke-width:0.01" />
<line x1="-0.0889676" y1="0.0722461" x2="-0.0906941" y2="0.0843311" style="stroke:rgb(246,147,147);stroke-width:0.01" />
<line x1="-0.0820619" y1="0.0929632" x2="0.037846" y2="0.132932" style="stroke:rgb(246,147,147);stroke-width:0.01" />
<line x1="0.028471" y1="0.0673075" x2="-0.0906941" y2="0.0843311" style="stroke:rgb(246,147,147);stroke-width:0.01" />
<line x1="0.145407" y1="-0.130879" x2="-0.0420926" y2="0.119121" style="stroke:rgb(246,147,147);stroke-width:0.01" />
<line x1="0.145407" y1="-0.0683789" x2="-0.0420926" y2="0.119121" style="stroke:rgb(246,147,147);stroke-width:0.01" />
<line x1="0.240971" y1="-0.0701925" x2="0.037846" y2="0.132932" style="stroke:rgb(246,147,147);stroke-width:0.01" />
</g>
</svg>
