<svg xmlns="http://www.w3.org/2000/svg" viewBox="-1.5 -1.5 3 3">
<g transform="scale(1, -1)">
<path d="M-0.077436 -0.339289 L0.016314 -0.339289 L0.105377 -0.279914 L0.227252 -0.097101 L0.227252 0.004461 L-0.043582 0.410711 L-0.077436 0.410711 L-0.077436 0.329461 L-0.222869 -0.019577 L-0.077436 -0.080174 z " fill="rgb(245,195,195)" />
<path d="M-0.671186 -0.245539 L0.328814 -0.245539 L0.328814 0.754461 L-0.671186 0.754461  z" fill="none" stroke="rgb(128,128,128)" stroke-width="0.01" />
<line x1="0.0163141" y1="-0.339289" x2="0.105377" y2="-0.279914" style="stroke:rgb(246,147,147);stroke-width:0.01" />
<line x1="0.105377" y1="-0.279914" x2="0.227252" y2="-0.0971014" style="stroke:rgb(246,147,147);stroke-width:0.01" />
<line x1="0.133502" y1="-0.136164" x2="0.227252" y2="0.00446114" style="stroke:rgb(246,147,147);stroke-width:0.01" />
<line x1="0.0163141" y1="-0.339289" x2="0.172564" y2="0.0357111" style="stroke:rgb(246,147,147);stroke-width:0.01" />
<line x1="0.131699" y1="-0.145379" x2="0.219439" y2="-0.10882" style="stroke:rgb(246,147,147);stroke-width:0.01" />
<line x1="0.133502" y1="-0.136164" x2="0.227252" y2="-0.0971014" style="stroke:rgb(246,147,147);stroke-width:0.01" />
<line x1="0.105377" y1="-0.279914" x2="0.133502" y2="-0.136164" style="stroke:rgb(246,147,147);stroke-width:0.01" />
<line x1="-0.222869" y1="-0.0195773" x2="-0.0435817" y2="0.410711" style="stroke:rgb(246,147,147);stroke-width:0.01" />
<line x1="-0.0774359" y1="-0.339289" x2="0.0163141" y2="-0.339289" style="stroke:rgb(246,147,147);stroke-width:0.01" />
<line x1="-0.0774359" y1="-0.339289" x2="-0.0774359" y2="0.410711" style="stroke:rgb(246,147,147);stroke-width:0.01" />
<line x1="0.219439" y1="-0.10882" x2="0.219439" y2="0.0161799" style="stroke:rgb(246,147,147);stroke-width:0.01" />
<line x1="0.227252" y1="-0.0971014" x2="0.227252" y2="0.00446114" style="stroke:rgb(246,147,147);stroke-width:0.01" />
<line x1="0.156939" y1="-0.151789" x2="0.190793" y2="-0.151789" style="stroke:rgb(246,147,147);stroke-width:0.01" />
<line x1="-0.0774359" y1="-0.0892889" x2="0.227252" y2="-0.0892889" style="stroke:rgb(246,147,147);stroke-width:0.01" />
<line x1="0.156939" y1="-0.151789" x2="0.147925" y2="-0.130154" style="stroke:rgb(246,147,147);stroke-width:0.01" />
<line x1="0.190793" y1="-0.151789" x2="0.164752" y2="-0.0892889" style="stroke:rgb(246,147,147);stroke-width:0.01" />
<line x1="0.169847" y1="-0.183209" x2="-0.222869" y2="-0.0195773" style="stroke:rgb(246,147,147);stroke-width:0.01" />
<line x1="0.180377" y1="-0.167414" x2="0.133502" y2="-0.136164" style="stroke:rgb(246,147,147);stroke-width:0.01" />
<line x1="0.169847" y1="-0.183209" x2="0.131699" y2="-0.145379" style="stroke:rgb(246,147,147);stroke-width:0.01" />
<line x1="0.227252" y1="0.00446114" x2="-0.0435817" y2="0.410711" style="stroke:rgb(246,147,147);stroke-width:0.01" />
<line x1="0.219439" y1="0.0161799" x2="0.172564" y2="0.0357111" style="stroke:rgb(246,147,147);stroke-width:0.01" />
<line x1="-0.0774359" y1="0.410711" x2="-0.0435817" y2="0.410711" style="stroke:rgb(246,147,147);stroke-width:0.01" />
</g>
</svg>
