<svg xmlns="http://www.w3.org/2000/svg" viewBox="-1.5 -1.5 3 3">
<g transform="scale(1, -1)">
<path d="M-0.109721 -0.261193 L0.184163 -0.255195 L0.306587 -0.127670 L0.303653 0.016050 L0.124439 0.118664 L-0.067160 0.114754 L-0.058419 0.191967 L-0.157665 0.112906 L-0.198411 0.112075 L-0.327465 -0.022358 z " fill="rgb(245,195,195)" />
<path d="M-0.006341 0.289258 L0.993659 0.289258 L0.993659 1.289258 L-0.006341 1.289258  z" fill="none" stroke="rgb(128,128,128)" stroke-width="0.01" />
<line x1="-0.109721" y1="-0.261193" x2="0.184163" y2="-0.255195" style="stroke:rgb(246,147,147);stroke-width:0.01" />
<line x1="-0.100603" y1="-0.180653" x2="-0.192649" y2="-0.170233" style="stroke:rgb(246,147,147);stroke-width:0.01" />
<line x1="0.120401" y1="-0.193983" x2="-0.207493" y2="-0.15395" style="stroke:rgb(246,147,147);stroke-width:0.01" />
<line x1="-0.221624" y1="-0.138451" x2="0.306587" y2="-0.12767" style="stroke:rgb(246,147,147);stroke-width:0.01" />
<line x1="0.184163" y1="-0.255195" x2="0.306587" y2="-0.12767" style="stroke:rgb(246,147,147);stroke-width:0.01" />
<line x1="0.120401" y1="-0.193983" x2="-0.30043" y2="0.00580415" style="stroke:rgb(246,147,147);stroke-width:0.01" />
<line x1="0.210943" y1="-0.0358528" x2="0.303653" y2="0.0160499" style="stroke:rgb(246,147,147);stroke-width:0.01" />
<line x1="-0.306655" y1="-0.0451833" x2="-0.210748" y2="-0.042385" style="stroke:rgb(246,147,147);stroke-width:0.01" />
<line x1="-0.109721" y1="-0.261193" x2="-0.327465" y2="-0.0223576" style="stroke:rgb(246,147,147);stroke-width:0.01" />
<line x1="-0.0724803" y1="0.0677603" x2="-0.196687" y2="0.0818216" style="stroke:rgb(246,147,147);stroke-width:0.01" />
<line x1="0.184163" y1="-0.255195" x2="0.120401" y2="-0.193983" style="stroke:rgb(246,147,147);stroke-width:0.01" />
<line x1="-0.0865416" y1="-0.0564463" x2="-0.196687" y2="0.0818216" style="stroke:rgb(246,147,147);stroke-width:0.01" />
<line x1="-0.198411" y1="0.112075" x2="0.124439" y2="0.118664" style="stroke:rgb(246,147,147);stroke-width:0.01" />
<line x1="-0.208102" y1="-0.153282" x2="-0.0865416" y2="-0.0564463" style="stroke:rgb(246,147,147);stroke-width:0.01" />
<line x1="-0.260816" y1="-0.0954624" x2="-0.195222" y2="-0.0441427" style="stroke:rgb(246,147,147);stroke-width:0.01" />
<line x1="-0.208102" y1="-0.153282" x2="-0.132098" y2="-0.0741108" style="stroke:rgb(246,147,147);stroke-width:0.01" />
<line x1="0.303653" y1="0.0160499" x2="0.124439" y2="0.118664" style="stroke:rgb(246,147,147);stroke-width:0.01" />
<line x1="-0.260816" y1="-0.0954624" x2="-0.210748" y2="-0.042385" style="stroke:rgb(246,147,147);stroke-width:0.01" />
<line x1="-0.327465" y1="-0.0223576" x2="-0.058419" y2="0.191967" style="stroke:rgb(246,147,147);stroke-width:0.01" />
<line x1="-0.207493" y1="-0.15395" x2="-0.210748" y2="-0.042385" style="stroke:rgb(246,147,147);stroke-width:0.01" />
<line x1="-0.192649" y1="-0.170233" x2="-0.198411" y2="0.112075" style="stroke:rgb(246,147,147);stroke-width:0.01" />
<line x1="-0.109721" y1="-0.261193" x2="-0.058419" y2="0.191967" style="stroke:rgb(246,147,147);stroke-width:0.01" />
<line x1="0.306587" y1="-0.12767" x2="0.303653" y2="0.0160499" style="stroke:rgb(246,147,147);stroke-width:0.01" />
<line x1="-0.14281" y1="-0.161848" x2="-0.132098" y2="-0.0741108" style="stroke:rgb(246,147,147);stroke-width:0.01" />
<line x1="-0.327465" y1="-0.0223576" x2="-0.198411" y2="0.112075" style="stroke:rgb(246,147,147);stroke-width:0.01" />
<line x1="0.210943" y1="-0.0358528" x2="0.124439" y2="0.118664" style="stroke:rgb(246,147,147);stroke-width:0.01" />
<line x1="-0.221624" y1="-0.138451" x2="-0.196687" y2="0.0818216" style="stroke:rgb(246,147,147);stroke-width:0.01" />
<line x1="-0.306655" y1="-0.0451833" x2="-0.30043" y2="0.00580415" style="stroke:rgb(246,147,147);stroke-width:0.01" />
</g>
</svg>
