<svg xmlns="http://www.w3.org/2000/svg" viewBox="-1.5 -1.5 3 3">
<g transform="scale(1, -1)">
<path d="M-0.417647 0.570588 L-0.379412 0.817647 L-0.132353 0.779412 L0.152941 0.988235 L-0.094118 1.026471 L-0.055882 1.273529 L-0.264706 1.558824 L-0.302941 1.311765 L-0.550000 1.350000 L-0.835294 1.141176 L-0.588235 1.102941 L-0.626471 0.855882 z " fill="rgb(245,195,195)" />
<path d="M0.000000 0.000000 L1.000000 0.000000 L1.000000 1.000000 L0.000000 1.000000  z" fill="none" stroke="rgb(128,128,128)" stroke-width="0.01" />
<line x1="-0.417647" y1="0.570588" x2="-0.626471" y2="0.855882" style="stroke:rgb(246,147,147);stroke-width:0.01" />
<line x1="-0.132353" y1="0.779412" x2="-0.0558824" y2="1.27353" style="stroke:rgb(246,147,147);stroke-width:0.01" />
<line x1="-0.417647" y1="0.570588" x2="-0.264706" y2="1.55882" style="stroke:rgb(246,147,147);stroke-width:0.01" />
<line x1="-0.626471" y1="0.855882" x2="-0.55" y2="1.35" style="stroke:rgb(246,147,147);stroke-width:0.01" />
<line x1="-0.132353" y1="0.779412" x2="-0.55" y2="1.35" style="stroke:rgb(246,147,147);stroke-width:0.01" />
<line x1="-0.0558824" y1="1.27353" x2="-0.264706" y2="1.55882" style="stroke:rgb(246,147,147);stroke-width:0.01" />
<line x1="-0.132353" y1="0.779412" x2="0.152941" y2="0.988235" style="stroke:rgb(246,147,147);stroke-width:0.01" />
<line x1="-0.132353" y1="0.779412" x2="-0.626471" y2="0.855882" style="stroke:rgb(246,147,147);stroke-width:0.01" />
<line x1="-0.626471" y1="0.855882" x2="-0.0558824" y2="1.27353" style="stroke:rgb(246,147,147);stroke-width:0.01" />
<line x1="0.152941" y1="0.988235" x2="-0.835294" y2="1.14118" style="stroke:rgb(246,147,147);stroke-width:0.01" />
<line x1="-0.835294" y1="1.14118" x2="-0.55" y2="1.35" style="stroke:rgb(246,147,147);stroke-width:0.01" />
<line x1="-0.0558824" y1="1.27353" x2="-0.55" y2="1.35" style="stroke:rgb(246,147,147);stroke-width:0.01" />
</g>
</svg>
