<svg xmlns="http://www.w3.org/2000/svg" viewBox="-1.5 -1.5 3 3">
<g transform="scale(1, -1)">
<path d="M-0.076471 -0.494118 L-0.038235 -0.247059 L0.208824 -0.285294 L0.494118 -0.076471 L0.247059 -0.038235 L0.285294 0.208824 L0.076471 0.494118 L0.038235 0.247059 L-0.208824 0.285294 L-0.494118 0.076471 L-0.247059 0.038235 L-0.285294 -0.208824 z " fill="rgb(245,195,195)" />
<path d="M0.341176 -1.064706 L1.341176 -1.064706 L1.341176 -0.064706 L0.341176 -0.064706  z" fill="none" stroke="rgb(128,128,128)" stroke-width="0.01" />
<line x1="-0.0764706" y1="-0.494118" x2="-0.285294" y2="-0.208824" style="stroke:rgb(246,147,147);stroke-width:0.01" />
<line x1="0.208824" y1="-0.285294" x2="0.285294" y2="0.208824" style="stroke:rgb(246,147,147);stroke-width:0.01" />
<line x1="-0.0764706" y1="-0.494118" x2="0.0764706" y2="0.494118" style="stroke:rgb(246,147,147);stroke-width:0.01" />
<line x1="-0.285294" y1="-0.208824" x2="-0.208824" y2="0.285294" style="stroke:rgb(246,147,147);stroke-width:0.01" />
<line x1="0.208824" y1="-0.285294" x2="-0.208824" y2="0.285294" style="stroke:rgb(246,147,147);stroke-width:0.01" />
<line x1="0.285294" y1="0.208824" x2="0.0764706" y2="0.494118" style="stroke:rgb(246,147,147);stroke-width:0.01" />
<line x1="0.208824" y1="-0.285294" x2="0.494118" y2="-0.0764706" style="stroke:rgb(246,147,147);stroke-width:0.01" />
<line x1="0.208824" y1="-0.285294" x2="-0.285294" y2="-0.208824" style="stroke:rgb(246,147,147);stroke-width:0.01" />
<line x1="-0.285294" y1="-0.208824" x2="0.285294" y2="0.208824" style="stroke:rgb(246,147,147);stroke-width:0.01" />
<line x1="0.494118" y1="-0.0764706" x2="-0.494118" y2="0.0764706" style="stroke:rgb(246,147,147);stroke-width:0.01" />
<line x1="-0.494118" y1="0.0764706" x2="-0.208824" y2="0.285294" style="stroke:rgb(246,147,147);stroke-width:0.01" />
<line x1="0.285294" y1="0.208824" x2="-0.208824" y2="0.285294" style="stroke:rgb(246,147,147);stroke-width:0.01" />
</g>
</svg>
