<svg xmlns="http://www.w3.org/2000/svg" viewBox="-1.5 -1.5 3 3">
<g transform="scale(1, -1)">
<path d="M-0.185271 -0.059714 L-0.157493 -0.059714 L-0.127401 -0.029621 L-0.127401 0.021305 L-0.046382 -0.059714 L0.254544 -0.059714 L0.287337 -0.026920 L0.287337 0.137046 L-0.185271 0.137046 z " fill="rgb(245,195,195)" />
<path d="M0.169667 0.067601 L1.169667 0.067601 L1.169667 1.067601 L0.169667 1.067601  z" fill="none" stroke="rgb(128,128,128)" stroke-width="0.01" />
<line x1="-0.157493" y1="-0.0597136" x2="-0.185271" y2="-0.0319359" style="stroke:rgb(246,147,147);stroke-width:0.01" />
<line x1="-0.127401" y1="-0.0296211" x2="-0.185271" y2="0.0282493" style="stroke:rgb(246,147,147);stroke-width:0.01" />
<line x1="-0.046382" y1="-0.0597136" x2="-0.185271" y2="0.0791752" style="stroke:rgb(246,147,147);stroke-width:0.01" />
<line x1="-0.185271" y1="-0.0597136" x2="-0.157493" y2="-0.0597136" style="stroke:rgb(246,147,147);stroke-width:0.01" />
<line x1="-0.046382" y1="-0.0597136" x2="0.254544" y2="-0.0597136" style="stroke:rgb(246,147,147);stroke-width:0.01" />
<line x1="0.254544" y1="-0.0597136" x2="0.287337" y2="-0.0269204" style="stroke:rgb(246,147,147);stroke-width:0.01" />
<line x1="0.120285" y1="-0.0597136" x2="-0.0764746" y2="0.137046" style="stroke:rgb(246,147,147);stroke-width:0.01" />
<line x1="0.120285" y1="-0.0597136" x2="0.187414" y2="0.00741598" style="stroke:rgb(246,147,147);stroke-width:0.01" />
<line x1="0.254544" y1="-0.0597136" x2="0.104081" y2="0.0907493" style="stroke:rgb(246,147,147);stroke-width:0.01" />
<line x1="-0.185271" y1="-0.0597136" x2="-0.185271" y2="0.137046" style="stroke:rgb(246,147,147);stroke-width:0.01" />
<line x1="-0.173697" y1="-0.0597136" x2="-0.173697" y2="0.0676012" style="stroke:rgb(246,147,147);stroke-width:0.01" />
<line x1="-0.127401" y1="-0.0296211" x2="-0.127401" y2="0.137046" style="stroke:rgb(246,147,147);stroke-width:0.01" />
<line x1="-0.185271" y1="0.0676012" x2="0.287337" y2="0.0676012" style="stroke:rgb(246,147,147);stroke-width:0.01" />
<line x1="0.287337" y1="-0.0269204" x2="0.287337" y2="0.137046" style="stroke:rgb(246,147,147);stroke-width:0.01" />
<line x1="0.287337" y1="-0.0269204" x2="0.123371" y2="0.137046" style="stroke:rgb(246,147,147);stroke-width:0.01" />
<line x1="-0.046382" y1="-0.0597136" x2="0.104081" y2="0.0907493" style="stroke:rgb(246,147,147);stroke-width:0.01" />
<line x1="0.0539266" y1="0.0676012" x2="0.123371" y2="0.137046" style="stroke:rgb(246,147,147);stroke-width:0.01" />
<line x1="-0.185271" y1="0.137046" x2="0.287337" y2="0.137046" style="stroke:rgb(246,147,147);stroke-width:0.01" />
<line x1="-0.157493" y1="-0.0597136" x2="-0.127401" y2="-0.0296211" style="stroke:rgb(246,147,147);stroke-width:0.01" />
<line x1="-0.185271" y1="-0.0319359" x2="-0.173697" y2="-0.0203618" style="stroke:rgb(246,147,147);stroke-width:0.01" />
<line x1="-0.185271" y1="0.0282493" x2="-0.0764746" y2="0.137046" style="stroke:rgb(246,147,147);stroke-width:0.01" />
<line x1="-0.185271" y1="0.0791752" x2="-0.127401" y2="0.137046" style="stroke:rgb(246,147,147);stroke-width:0.01" />
</g>
</svg>
