<svg xmlns="http://www.w3.org/2000/svg" viewBox="-1.5 -1.5 3 3">
<g transform="scale(1, -1)">
<path d="M-0.095679 -0.158951 L0.359568 -0.158951 L0.359568 0.063272 L-0.083333 0.063272 L-0.092593 0.072531 L-0.175926 0.072531 L-0.175926 0.063272 L-0.095679 -0.016975 z " fill="rgb(245,195,195)" />
<path d="M0.657407 -1.223765 L1.657407 -1.223765 L1.657407 -0.223765 L0.657407 -0.223765  z" fill="none" stroke="rgb(128,128,128)" stroke-width="0.01" />
<line x1="-0.175926" y1="0.0632716" x2="-0.175926" y2="0.0725309" style="stroke:rgb(246,147,147);stroke-width:0.01" />
<line x1="-0.095679" y1="-0.158951" x2="-0.095679" y2="0.0632716" style="stroke:rgb(246,147,147);stroke-width:0.01" />
<line x1="-0.0925926" y1="-0.0200617" x2="-0.0925926" y2="0.0725309" style="stroke:rgb(246,147,147);stroke-width:0.01" />
<line x1="-0.0462963" y1="-0.066358" x2="-0.0462963" y2="-0.0200617" style="stroke:rgb(246,147,147);stroke-width:0.01" />
<line x1="0.0462963" y1="-0.158951" x2="0.0462963" y2="-0.066358" style="stroke:rgb(246,147,147);stroke-width:0.01" />
<line x1="0.12037" y1="-0.131173" x2="0.12037" y2="-0.0848765" style="stroke:rgb(246,147,147);stroke-width:0.01" />
<line x1="0.148148" y1="-0.158951" x2="0.148148" y2="-0.0570988" style="stroke:rgb(246,147,147);stroke-width:0.01" />
<line x1="0.212963" y1="-0.0848765" x2="0.212963" y2="0.00771605" style="stroke:rgb(246,147,147);stroke-width:0.01" />
<line x1="0.222222" y1="-0.0756173" x2="0.222222" y2="0.0169753" style="stroke:rgb(246,147,147);stroke-width:0.01" />
<line x1="0.287037" y1="-0.158951" x2="0.287037" y2="0.0169753" style="stroke:rgb(246,147,147);stroke-width:0.01" />
<line x1="0.29321" y1="-0.158951" x2="0.29321" y2="-0.0385802" style="stroke:rgb(246,147,147);stroke-width:0.01" />
<line x1="0.359568" y1="-0.158951" x2="0.359568" y2="0.0632716" style="stroke:rgb(246,147,147);stroke-width:0.01" />
<line x1="0.0462963" y1="-0.158951" x2="-0.175926" y2="0.0632716" style="stroke:rgb(246,147,147);stroke-width:0.01" />
<line x1="0.0925926" y1="-0.158951" x2="-0.0462963" y2="-0.0200617" style="stroke:rgb(246,147,147);stroke-width:0.01" />
<line x1="0.138889" y1="-0.158951" x2="-0.0925926" y2="0.0725309" style="stroke:rgb(246,147,147);stroke-width:0.01" />
<line x1="0.148148" y1="-0.158951" x2="0.0972222" y2="-0.108025" style="stroke:rgb(246,147,147);stroke-width:0.01" />
<line x1="0.305556" y1="-0.158951" x2="0.175926" y2="-0.029321" style="stroke:rgb(246,147,147);stroke-width:0.01" />
<line x1="0.359568" y1="-0.104938" x2="0.29321" y2="-0.0385802" style="stroke:rgb(246,147,147);stroke-width:0.01" />
<line x1="0.359568" y1="-0.0740741" x2="0.268519" y2="0.0169753" style="stroke:rgb(246,147,147);stroke-width:0.01" />
<line x1="0.305556" y1="-0.158951" x2="0.359568" y2="-0.104938" style="stroke:rgb(246,147,147);stroke-width:0.01" />
<line x1="0.29321" y1="-0.140432" x2="0.359568" y2="-0.0740741" style="stroke:rgb(246,147,147);stroke-width:0.01" />
<line x1="0.138889" y1="-0.158951" x2="0.222222" y2="-0.0756173" style="stroke:rgb(246,147,147);stroke-width:0.01" />
<line x1="0.0925926" y1="-0.158951" x2="0.268519" y2="0.0169753" style="stroke:rgb(246,147,147);stroke-width:0.01" />
<line x1="0.0462963" y1="-0.158951" x2="0.222222" y2="0.0169753" style="stroke:rgb(246,147,147);stroke-width:0.01" />
<line x1="-0.095679" y1="-0.158951" x2="0.359568" y2="-0.158951" style="stroke:rgb(246,147,147);stroke-width:0.01" />
<line x1="0.287037" y1="-0.140432" x2="0.359568" y2="-0.140432" style="stroke:rgb(246,147,147);stroke-width:0.01" />
<line x1="0.12037" y1="-0.0848765" x2="0.212963" y2="-0.0848765" style="stroke:rgb(246,147,147);stroke-width:0.01" />
<line x1="-0.0462963" y1="-0.066358" x2="0.0462963" y2="-0.066358" style="stroke:rgb(246,147,147);stroke-width:0.01" />
<line x1="0.148148" y1="-0.0570988" x2="0.212963" y2="-0.0570988" style="stroke:rgb(246,147,147);stroke-width:0.01" />
<line x1="-0.095679" y1="-0.0385802" x2="0.29321" y2="-0.0385802" style="stroke:rgb(246,147,147);stroke-width:0.01" />
<line x1="-0.0925926" y1="-0.0200617" x2="-0.0462963" y2="-0.0200617" style="stroke:rgb(246,147,147);stroke-width:0.01" />
<line x1="-0.095679" y1="0.00771605" x2="0.359568" y2="0.00771605" style="stroke:rgb(246,147,147);stroke-width:0.01" />
<line x1="-0.095679" y1="0.0169753" x2="0.359568" y2="0.0169753" style="stroke:rgb(246,147,147);stroke-width:0.01" />
<line x1="-0.175926" y1="0.0632716" x2="0.359568" y2="0.0632716" style="stroke:rgb(246,147,147);stroke-width:0.01" />
<line x1="-0.175926" y1="0.0725309" x2="-0.0925926" y2="0.0725309" style="stroke:rgb(246,147,147);stroke-width:0.01" />
</g>
</svg>
