<svg xmlns="http://www.w3.org/2000/svg" viewBox="-1.5 -1.5 3 3">
<g transform="scale(1, -1)">
<path d="M-0.652221 -0.206856 L-0.390683 -0.099164 L-0.206068 -0.176087 L0.177697 0.079756 L0.339634 -0.116358 L0.421614 -0.124184 L0.440991 -0.187852 L0.472364 -0.129028 L0.312114 0.169368 L0.049488 0.235024 L0.022504 0.223913 L-0.206068 0.223913 L-0.206068 0.129795 L-0.575298 -0.022241 z " fill="rgb(245,195,195)" />
<path d="M-0.206068 -0.776087 L0.793932 -0.776087 L0.793932 0.223913 L-0.206068 0.223913  z" fill="none" stroke="rgb(128,128,128)" stroke-width="0.01" />
<line x1="0.440991" y1="-0.187852" x2="0.472364" y2="-0.129028" style="stroke:rgb(246,147,147);stroke-width:0.01" />
<line x1="0.339634" y1="-0.116358" x2="0.358638" y2="0.0827366" style="stroke:rgb(246,147,147);stroke-width:0.01" />
<line x1="-0.206068" y1="-0.176087" x2="-0.206068" y2="0.223913" style="stroke:rgb(246,147,147);stroke-width:0.01" />
<line x1="0.440991" y1="-0.187852" x2="0.358638" y2="0.0827366" style="stroke:rgb(246,147,147);stroke-width:0.01" />
<line x1="-0.652221" y1="-0.206856" x2="-0.575298" y2="-0.0222408" style="stroke:rgb(246,147,147);stroke-width:0.01" />
<line x1="-0.206068" y1="-0.176087" x2="0.312114" y2="0.169368" style="stroke:rgb(246,147,147);stroke-width:0.01" />
<line x1="0.472364" y1="-0.129028" x2="0.312114" y2="0.169368" style="stroke:rgb(246,147,147);stroke-width:0.01" />
<line x1="-0.206068" y1="-0.176087" x2="-0.575298" y2="-0.0222408" style="stroke:rgb(246,147,147);stroke-width:0.01" />
<line x1="0.339634" y1="-0.116358" x2="0.0494879" y2="0.235024" style="stroke:rgb(246,147,147);stroke-width:0.01" />
<line x1="0.358638" y1="0.0827366" x2="0.280599" y2="0.177246" style="stroke:rgb(246,147,147);stroke-width:0.01" />
<line x1="-0.652221" y1="-0.206856" x2="0.280599" y2="0.177246" style="stroke:rgb(246,147,147);stroke-width:0.01" />
<line x1="0.472364" y1="-0.129028" x2="0.339634" y2="-0.116358" style="stroke:rgb(246,147,147);stroke-width:0.01" />
<line x1="-0.575298" y1="-0.0222408" x2="0.0494879" y2="0.235024" style="stroke:rgb(246,147,147);stroke-width:0.01" />
<line x1="0.358638" y1="0.0827366" x2="0.0939324" y2="0.223913" style="stroke:rgb(246,147,147);stroke-width:0.01" />
<line x1="-0.206068" y1="0.223913" x2="0.0939324" y2="0.223913" style="stroke:rgb(246,147,147);stroke-width:0.01" />
<line x1="0.312114" y1="0.169368" x2="0.0494879" y2="0.235024" style="stroke:rgb(246,147,147);stroke-width:0.01" />
</g>
</svg>
