<svg xmlns="http://www.w3.org/2000/svg" viewBox="-1.5 -1.5 3 3">
<g transform="scale(1, -1)">
<path d="M-0.446154 0.569231 L-0.184615 0.676923 L0.000000 0.600000 L0.383764 0.855843 L0.545701 0.659729 L0.627682 0.651903 L0.647059 0.588235 L0.678431 0.647059 L0.518182 0.945455 L0.255556 1.011111 L0.228571 1.000000 L0.000000 1.000000 L0.000000 0.905882 L-0.369231 0.753846 z " fill="rgb(245,195,195)" />
<path d="M0.000000 0.000000 L1.000000 0.000000 L1.000000 1.000000 L0.000000 1.000000  z" fill="none" stroke="rgb(128,128,128)" stroke-width="0.01" />
<line x1="0.647059" y1="0.588235" x2="0.678431" y2="0.647059" style="stroke:rgb(246,147,147);stroke-width:0.01" />
<line x1="0.545701" y1="0.659729" x2="0.564706" y2="0.858824" style="stroke:rgb(246,147,147);stroke-width:0.01" />
<line x1="0" y1="0.6" x2="0" y2="1" style="stroke:rgb(246,147,147);stroke-width:0.01" />
<line x1="0.647059" y1="0.588235" x2="0.564706" y2="0.858824" style="stroke:rgb(246,147,147);stroke-width:0.01" />
<line x1="-0.446154" y1="0.569231" x2="-0.369231" y2="0.753846" style="stroke:rgb(246,147,147);stroke-width:0.01" />
<line x1="0" y1="0.6" x2="0.518182" y2="0.945455" style="stroke:rgb(246,147,147);stroke-width:0.01" />
<line x1="0.678431" y1="0.647059" x2="0.518182" y2="0.945455" style="stroke:rgb(246,147,147);stroke-width:0.01" />
<line x1="0" y1="0.6" x2="-0.369231" y2="0.753846" style="stroke:rgb(246,147,147);stroke-width:0.01" />
<line x1="0.545701" y1="0.659729" x2="0.255556" y2="1.01111" style="stroke:rgb(246,147,147);stroke-width:0.01" />
<line x1="0.564706" y1="0.858824" x2="0.486667" y2="0.953333" style="stroke:rgb(246,147,147);stroke-width:0.01" />
<line x1="-0.446154" y1="0.569231" x2="0.486667" y2="0.953333" style="stroke:rgb(246,147,147);stroke-width:0.01" />
<line x1="0.678431" y1="0.647059" x2="0.545701" y2="0.659729" style="stroke:rgb(246,147,147);stroke-width:0.01" />
<line x1="-0.369231" y1="0.753846" x2="0.255556" y2="1.01111" style="stroke:rgb(246,147,147);stroke-width:0.01" />
<line x1="0.564706" y1="0.858824" x2="0.3" y2="1" style="stroke:rgb(246,147,147);stroke-width:0.01" />
<line x1="0" y1="1" x2="0.3" y2="1" style="stroke:rgb(246,147,147);stroke-width:0.01" />
<line x1="0.518182" y1="0.945455" x2="0.255556" y2="1.01111" style="stroke:rgb(246,147,147);stroke-width:0.01" />
</g>
</svg>
