<svg xmlns="http://www.w3.org/2000/svg" viewBox="-1.5 -1.5 3 3">
<g transform="scale(1, -1)">
<path d="M-0.067951 -0.625761 L0.098377 -0.621704 L0.625761 -0.067951 L0.621704 0.098377 L0.067951 0.625761 L-0.098377 0.621704 L-0.625761 0.067951 L-0.621704 -0.098377 z " fill="rgb(245,195,195)" />
<path d="M-0.625761 -0.625761 L0.374239 -0.625761 L0.374239 0.374239 L-0.625761 0.374239  z" fill="none" stroke="rgb(128,128,128)" stroke-width="0.01" />
<line x1="0.0983773" y1="-0.621704" x2="0.625761" y2="-0.0679513" style="stroke:rgb(246,147,147);stroke-width:0.01" />
<line x1="-0.0679513" y1="-0.625761" x2="0.0131846" y2="-0.540568" style="stroke:rgb(246,147,147);stroke-width:0.01" />
<line x1="0.540568" y1="0.0131846" x2="0.621704" y2="0.0983773" style="stroke:rgb(246,147,147);stroke-width:0.01" />
<line x1="-0.0679513" y1="-0.625761" x2="0.0983773" y2="-0.621704" style="stroke:rgb(246,147,147);stroke-width:0.01" />
<line x1="-0.621704" y1="-0.0983773" x2="-0.625761" y2="0.0679513" style="stroke:rgb(246,147,147);stroke-width:0.01" />
<line x1="0.625761" y1="-0.0679513" x2="0.621704" y2="0.0983773" style="stroke:rgb(246,147,147);stroke-width:0.01" />
<line x1="-0.621704" y1="-0.0983773" x2="-0.540568" y2="-0.0131846" style="stroke:rgb(246,147,147);stroke-width:0.01" />
<line x1="-0.0131846" y1="0.540568" x2="0.0679513" y2="0.625761" style="stroke:rgb(246,147,147);stroke-width:0.01" />
<line x1="-0.0679513" y1="-0.625761" x2="-0.621704" y2="-0.0983773" style="stroke:rgb(246,147,147);stroke-width:0.01" />
<line x1="-0.625761" y1="0.0679513" x2="-0.0983773" y2="0.621704" style="stroke:rgb(246,147,147);stroke-width:0.01" />
<line x1="0.0983773" y1="-0.621704" x2="0.0131846" y2="-0.540568" style="stroke:rgb(246,147,147);stroke-width:0.01" />
<line x1="-0.540568" y1="-0.0131846" x2="-0.625761" y2="0.0679513" style="stroke:rgb(246,147,147);stroke-width:0.01" />
<line x1="0.625761" y1="-0.0679513" x2="0.540568" y2="0.0131846" style="stroke:rgb(246,147,147);stroke-width:0.01" />
<line x1="-0.0131846" y1="0.540568" x2="-0.0983773" y2="0.621704" style="stroke:rgb(246,147,147);stroke-width:0.01" />
<line x1="0.621704" y1="0.0983773" x2="0.0679513" y2="0.625761" style="stroke:rgb(246,147,147);stroke-width:0.01" />
<line x1="-0.0983773" y1="0.621704" x2="0.0679513" y2="0.625761" style="stroke:rgb(246,147,147);stroke-width:0.01" />
</g>
</svg>
