<svg xmlns="http://www.w3.org/2000/svg" viewBox="-1.5 -1.5 3 3">
<g transform="scale(1, -1)">
<path d="M0.557809 0.000000 L0.724138 0.004057 L1.251521 0.557809 L1.247465 0.724138 L0.693712 1.251521 L0.527383 1.247465 L0.000000 0.693712 L0.004057 0.527383 z " fill="rgb(245,195,195)" />
<path d="M0.000000 0.000000 L1.000000 0.000000 L1.000000 1.000000 L0.000000 1.000000  z" fill="none" stroke="rgb(128,128,128)" stroke-width="0.01" />
<line x1="0.724138" y1="0.0040568" x2="1.25152" y2="0.557809" style="stroke:rgb(246,147,147);stroke-width:0.01" />
<line x1="0.557809" y1="0" x2="0.638945" y2="0.0851927" style="stroke:rgb(246,147,147);stroke-width:0.01" />
<line x1="1.16633" y1="0.638945" x2="1.24746" y2="0.724138" style="stroke:rgb(246,147,147);stroke-width:0.01" />
<line x1="0.557809" y1="0" x2="0.724138" y2="0.0040568" style="stroke:rgb(246,147,147);stroke-width:0.01" />
<line x1="0.0040568" y1="0.527383" x2="0" y2="0.693712" style="stroke:rgb(246,147,147);stroke-width:0.01" />
<line x1="1.25152" y1="0.557809" x2="1.24746" y2="0.724138" style="stroke:rgb(246,147,147);stroke-width:0.01" />
<line x1="0.0040568" y1="0.527383" x2="0.0851927" y2="0.612576" style="stroke:rgb(246,147,147);stroke-width:0.01" />
<line x1="0.612576" y1="1.16633" x2="0.693712" y2="1.25152" style="stroke:rgb(246,147,147);stroke-width:0.01" />
<line x1="0.557809" y1="0" x2="0.0040568" y2="0.527383" style="stroke:rgb(246,147,147);stroke-width:0.01" />
<line x1="0" y1="0.693712" x2="0.527383" y2="1.24746" style="stroke:rgb(246,147,147);stroke-width:0.01" />
<line x1="0.724138" y1="0.0040568" x2="0.638945" y2="0.0851927" style="stroke:rgb(246,147,147);stroke-width:0.01" />
<line x1="0.0851927" y1="0.612576" x2="0" y2="0.693712" style="stroke:rgb(246,147,147);stroke-width:0.01" />
<line x1="1.25152" y1="0.557809" x2="1.16633" y2="0.638945" style="stroke:rgb(246,147,147);stroke-width:0.01" />
<line x1="0.612576" y1="1.16633" x2="0.527383" y2="1.24746" style="stroke:rgb(246,147,147);stroke-width:0.01" />
<line x1="1.24746" y1="0.724138" x2="0.693712" y2="1.25152" style="stroke:rgb(246,147,147);stroke-width:0.01" />
<line x1="0.527383" y1="1.24746" x2="0.693712" y2="1.25152" style="stroke:rgb(246,147,147);stroke-width:0.01" />
</g>
</svg>
