<svg xmlns="http://www.w3.org/2000/svg" viewBox="-1.5 -1.5 3 3">
<g transform="scale(1, -1)">
<path d="M0.044092 -0.338183 L0.062610 -0.319665 L0.062610 0.421076 L-0.005291 0.421076 L-0.005291 0.328483 L-0.153439 0.180335 L-0.005291 0.180335 L-0.042328 0.143298 L-0.042328 -0.004850 L-0.005291 -0.041887 L-0.005291 -0.177690 L0.025573 -0.208554 L0.025573 -0.282628 L0.044092 -0.301146 z " fill="rgb(245,195,195)" />
<path d="M0.235450 0.124780 L1.235450 0.124780 L1.235450 1.124780 L0.235450 1.124780  z" fill="none" stroke="rgb(128,128,128)" stroke-width="0.01" />
<line x1="0.0626102" y1="-0.319665" x2="0.0255732" y2="-0.282628" style="stroke:rgb(246,147,147);stroke-width:0.01" />
<line x1="0.0626102" y1="-0.245591" x2="-0.00529101" y2="-0.17769" style="stroke:rgb(246,147,147);stroke-width:0.01" />
<line x1="0.0626102" y1="-0.109788" x2="-0.042328" y2="-0.00485009" style="stroke:rgb(246,147,147);stroke-width:0.01" />
<line x1="0.0440917" y1="-0.338183" x2="0.0626102" y2="-0.319665" style="stroke:rgb(246,147,147);stroke-width:0.01" />
<line x1="0.0626102" y1="0.100088" x2="-0.00529101" y2="0.167989" style="stroke:rgb(246,147,147);stroke-width:0.01" />
<line x1="0.0255732" y1="-0.282628" x2="0.0626102" y2="-0.245591" style="stroke:rgb(246,147,147);stroke-width:0.01" />
<line x1="0.0626102" y1="0.143298" x2="0.0255732" y2="0.180335" style="stroke:rgb(246,147,147);stroke-width:0.01" />
<line x1="0.0626102" y1="0.217372" x2="-0.00529101" y2="0.285273" style="stroke:rgb(246,147,147);stroke-width:0.01" />
<line x1="0.0626102" y1="0.235891" x2="0.0255732" y2="0.272928" style="stroke:rgb(246,147,147);stroke-width:0.01" />
<line x1="-0.00529101" y1="-0.17769" x2="0.0626102" y2="-0.109788" style="stroke:rgb(246,147,147);stroke-width:0.01" />
<line x1="0.0626102" y1="0.248236" x2="-0.00529101" y2="0.316138" style="stroke:rgb(246,147,147);stroke-width:0.01" />
<line x1="-0.042328" y1="-0.00485009" x2="-0.042328" y2="0.143298" style="stroke:rgb(246,147,147);stroke-width:0.01" />
<line x1="-0.00529101" y1="-0.17769" x2="-0.00529101" y2="0.421076" style="stroke:rgb(246,147,147);stroke-width:0.01" />
<line x1="0.0255732" y1="-0.282628" x2="0.0255732" y2="0.421076" style="stroke:rgb(246,147,147);stroke-width:0.01" />
<line x1="0.0440917" y1="-0.338183" x2="0.0440917" y2="0.421076" style="stroke:rgb(246,147,147);stroke-width:0.01" />
<line x1="0.0626102" y1="-0.319665" x2="0.0626102" y2="0.421076" style="stroke:rgb(246,147,147);stroke-width:0.01" />
<line x1="0.0626102" y1="0.309965" x2="-0.00529101" y2="0.377866" style="stroke:rgb(246,147,147);stroke-width:0.01" />
<line x1="-0.042328" y1="0.143298" x2="0.0626102" y2="0.143298" style="stroke:rgb(246,147,147);stroke-width:0.01" />
<line x1="0.0626102" y1="0.353175" x2="-0.00529101" y2="0.421076" style="stroke:rgb(246,147,147);stroke-width:0.01" />
<line x1="0.0626102" y1="0.384039" x2="0.0255732" y2="0.421076" style="stroke:rgb(246,147,147);stroke-width:0.01" />
<line x1="0.0626102" y1="0.396384" x2="0.0379189" y2="0.421076" style="stroke:rgb(246,147,147);stroke-width:0.01" />
<line x1="-0.153439" y1="0.180335" x2="-0.00529101" y2="0.180335" style="stroke:rgb(246,147,147);stroke-width:0.01" />
<line x1="-0.042328" y1="-0.00485009" x2="0.0626102" y2="0.100088" style="stroke:rgb(246,147,147);stroke-width:0.01" />
<line x1="0.0255732" y1="0.180335" x2="0.0626102" y2="0.217372" style="stroke:rgb(246,147,147);stroke-width:0.01" />
<line x1="-0.00529101" y1="0.167989" x2="0.0626102" y2="0.235891" style="stroke:rgb(246,147,147);stroke-width:0.01" />
<line x1="-0.042328" y1="0.143298" x2="0.0626102" y2="0.248236" style="stroke:rgb(246,147,147);stroke-width:0.01" />
<line x1="0.0255732" y1="0.272928" x2="0.0626102" y2="0.309965" style="stroke:rgb(246,147,147);stroke-width:0.01" />
<line x1="-0.00529101" y1="0.285273" x2="0.0626102" y2="0.353175" style="stroke:rgb(246,147,147);stroke-width:0.01" />
<line x1="-0.00529101" y1="0.316138" x2="0.0626102" y2="0.384039" style="stroke:rgb(246,147,147);stroke-width:0.01" />
<line x1="-0.153439" y1="0.180335" x2="0.0626102" y2="0.396384" style="stroke:rgb(246,147,147);stroke-width:0.01" />
<line x1="-0.00529101" y1="0.36552" x2="0.0626102" y2="0.36552" style="stroke:rgb(246,147,147);stroke-width:0.01" />
<line x1="-0.00529101" y1="0.377866" x2="0.0379189" y2="0.421076" style="stroke:rgb(246,147,147);stroke-width:0.01" />
<line x1="0.0255732" y1="0.384039" x2="0.0626102" y2="0.384039" style="stroke:rgb(246,147,147);stroke-width:0.01" />
<line x1="-0.00529101" y1="0.421076" x2="0.0626102" y2="0.421076" style="stroke:rgb(246,147,147);stroke-width:0.01" />
</g>
</svg>
