<svg xmlns="http://www.w3.org/2000/svg" viewBox="-1.5 -1.5 3 3">
<g transform="scale(1, -1)">
<path d="M0.000000 0.000000 L0.468085 0.000000 L0.493726 0.025641 L0.493726 0.261261 L0.738739 0.261261 L0.738739 0.286902 L0.493726 0.286902 L0.468085 0.261261 L0.468085 0.025641 L0.000000 0.025641 z " fill="rgb(245,195,195)" />
<path d="M0.000000 0.000000 L1.000000 0.000000 L1.000000 1.000000 L0.000000 1.000000  z" fill="none" stroke="rgb(128,128,128)" stroke-width="0.01" />
<line x1="0.468085" y1="0" x2="0.493726" y2="0.025641" style="stroke:rgb(246,147,147);stroke-width:0.01" />
<line x1="0.468085" y1="0.261261" x2="0.493726" y2="0.286902" style="stroke:rgb(246,147,147);stroke-width:0.01" />
<line x1="0" y1="0" x2="0.468085" y2="0" style="stroke:rgb(246,147,147);stroke-width:0.01" />
<line x1="0" y1="0" x2="0" y2="0.025641" style="stroke:rgb(246,147,147);stroke-width:0.01" />
<line x1="0.468085" y1="0" x2="0.468085" y2="0.261261" style="stroke:rgb(246,147,147);stroke-width:0.01" />
<line x1="0.493726" y1="0.025641" x2="0.493726" y2="0.286902" style="stroke:rgb(246,147,147);stroke-width:0.01" />
<line x1="0.738739" y1="0.261261" x2="0.738739" y2="0.286902" style="stroke:rgb(246,147,147);stroke-width:0.01" />
<line x1="0" y1="0.025641" x2="0.493726" y2="0.025641" style="stroke:rgb(246,147,147);stroke-width:0.01" />
<line x1="0.468085" y1="0.261261" x2="0.738739" y2="0.261261" style="stroke:rgb(246,147,147);stroke-width:0.01" />
<line x1="0.493726" y1="0.286902" x2="0.738739" y2="0.286902" style="stroke:rgb(246,147,147);stroke-width:0.01" />
</g>
</svg>
