<svg xmlns="http://www.w3.org/2000/svg" viewBox="-1.5 -1.5 3 3">
<g transform="scale(1, -1)">
<path d="M-0.436291 -0.143451 L0.031794 -0.143451 L0.057435 -0.117810 L0.057435 0.117810 L0.302448 0.117810 L0.302448 0.143451 L0.057435 0.143451 L0.031794 0.117810 L0.031794 -0.117810 L-0.436291 -0.117810 z " fill="rgb(245,195,195)" />
<path d="M-0.436291 -0.143451 L0.563709 -0.143451 L0.563709 0.856549 L-0.436291 0.856549  z" fill="none" stroke="rgb(128,128,128)" stroke-width="0.01" />
<line x1="0.031794" y1="-0.143451" x2="0.057435" y2="-0.11781" style="stroke:rgb(246,147,147);stroke-width:0.01" />
<line x1="0.031794" y1="0.11781" x2="0.057435" y2="0.143451" style="stroke:rgb(246,147,147);stroke-width:0.01" />
<line x1="-0.436291" y1="-0.143451" x2="0.031794" y2="-0.143451" style="stroke:rgb(246,147,147);stroke-width:0.01" />
<line x1="-0.436291" y1="-0.143451" x2="-0.436291" y2="-0.11781" style="stroke:rgb(246,147,147);stroke-width:0.01" />
<line x1="0.031794" y1="-0.143451" x2="0.031794" y2="0.11781" style="stroke:rgb(246,147,147);stroke-width:0.01" />
<line x1="0.057435" y1="-0.11781" x2="0.057435" y2="0.143451" style="stroke:rgb(246,147,147);stroke-width:0.01" />
<line x1="0.302448" y1="0.11781" x2="0.302448" y2="0.143451" style="stroke:rgb(246,147,147);stroke-width:0.01" />
<line x1="-0.436291" y1="-0.11781" x2="0.057435" y2="-0.11781" style="stroke:rgb(246,147,147);stroke-width:0.01" />
<line x1="0.031794" y1="0.11781" x2="0.302448" y2="0.11781" style="stroke:rgb(246,147,147);stroke-width:0.01" />
<line x1="0.057435" y1="0.143451" x2="0.302448" y2="0.143451" style="stroke:rgb(246,147,147);stroke-width:0.01" />
</g>
</svg>
