<svg xmlns="http://www.w3.org/2000/svg" viewBox="-1.5 -1.5 3 3">
<g transform="scale(1, -1)">
<path d="M0.107849 -0.182276 L0.191764 -0.097656 L0.902344 -0.097656 L0.902344 0.000000 L0.594191 0.308152 L0.811991 0.527783 L0.742650 0.596547 L0.307617 0.594727 L0.022518 -0.097656 z " fill="rgb(245,195,195)" />
<path d="M0.000000 0.000000 L1.000000 0.000000 L1.000000 1.000000 L0.000000 1.000000  z" fill="none" stroke="rgb(128,128,128)" stroke-width="0.01" />
<line x1="0.107849" y1="-0.182276" x2="0.811991" y2="0.527783" style="stroke:rgb(246,147,147);stroke-width:0.01" />
<line x1="0.0225184" y1="-0.0976562" x2="0.902344" y2="-0.0976562" style="stroke:rgb(246,147,147);stroke-width:0.01" />
<line x1="0.107272" y1="-0.0441707" x2="0.74265" y2="0.596547" style="stroke:rgb(246,147,147);stroke-width:0.01" />
<line x1="0.107849" y1="-0.182276" x2="0.0225184" y2="-0.0976562" style="stroke:rgb(246,147,147);stroke-width:0.01" />
<line x1="0.0225184" y1="-0.0976562" x2="0.307617" y2="0.594727" style="stroke:rgb(246,147,147);stroke-width:0.01" />
<line x1="0.0627298" y1="0" x2="0.902344" y2="0" style="stroke:rgb(246,147,147);stroke-width:0.01" />
<line x1="0.902344" y1="-0.0976562" x2="0.902344" y2="0" style="stroke:rgb(246,147,147);stroke-width:0.01" />
<line x1="0.107272" y1="-0.0441707" x2="0.0627298" y2="0" style="stroke:rgb(246,147,147);stroke-width:0.01" />
<line x1="0.902344" y1="0" x2="0.307617" y2="0.594727" style="stroke:rgb(246,147,147);stroke-width:0.01" />
<line x1="0.307617" y1="0.594727" x2="0.74265" y2="0.596547" style="stroke:rgb(246,147,147);stroke-width:0.01" />
<line x1="0.811991" y1="0.527783" x2="0.74265" y2="0.596547" style="stroke:rgb(246,147,147);stroke-width:0.01" />
</g>
</svg>
