<svg xmlns="http://www.w3.org/2000/svg" viewBox="-1.5 -1.5 3 3">
<g transform="scale(1, -1)">
<path d="M-0.095744 -0.241079 L0.041756 -0.216079 L0.097659 -0.024412 L0.106339 -0.024412 L0.106339 0.005350 L0.126339 0.073921 L0.106339 0.079754 L0.106339 0.100588 L0.034911 0.100588 L0.006339 0.108921 L0.003909 0.100588 L-0.195744 0.100588 L-0.258244 -0.024412 z M-0.051994 -0.091079 L-0.101994 -0.024412 L-0.032550 -0.024412 z " fill="rgb(245,195,195)" />
<path d="M-0.676994 -0.132746 L0.323006 -0.132746 L0.323006 0.867254 L-0.676994 0.867254  z" fill="none" stroke="rgb(128,128,128)" stroke-width="0.01" />
<line x1="-0.095744" y1="-0.241079" x2="0.041756" y2="-0.216079" style="stroke:rgb(246,147,147);stroke-width:0.01" />
<line x1="0.041756" y1="-0.216079" x2="0.126339" y2="0.0739211" style="stroke:rgb(246,147,147);stroke-width:0.01" />
<line x1="-0.095744" y1="-0.241079" x2="0.00633929" y2="0.108921" style="stroke:rgb(246,147,147);stroke-width:0.01" />
<line x1="-0.258244" y1="-0.0244122" x2="-0.195744" y2="0.100588" style="stroke:rgb(246,147,147);stroke-width:0.01" />
<line x1="0.106339" y1="-0.0244122" x2="0.106339" y2="0.100588" style="stroke:rgb(246,147,147);stroke-width:0.01" />
<line x1="-0.258244" y1="-0.0244122" x2="0.106339" y2="-0.0244122" style="stroke:rgb(246,147,147);stroke-width:0.01" />
<line x1="-0.195744" y1="0.100588" x2="0.106339" y2="0.100588" style="stroke:rgb(246,147,147);stroke-width:0.01" />
<line x1="-0.095744" y1="-0.241079" x2="-0.258244" y2="-0.0244122" style="stroke:rgb(246,147,147);stroke-width:0.01" />
<line x1="0.041756" y1="-0.216079" x2="-0.195744" y2="0.100588" style="stroke:rgb(246,147,147);stroke-width:0.01" />
<line x1="0.126339" y1="0.0739211" x2="0.00633929" y2="0.108921" style="stroke:rgb(246,147,147);stroke-width:0.01" />
</g>
</svg>
