<svg xmlns="http://www.w3.org/2000/svg" viewBox="-1.5 -1.5 3 3">
<g transform="scale(1, -1)">
<path d="M0.581250 -0.108333 L0.718750 -0.083333 L0.774653 0.108333 L0.783333 0.108333 L0.783333 0.138095 L0.803333 0.206667 L0.783333 0.212500 L0.783333 0.233333 L0.711905 0.233333 L0.683333 0.241667 L0.680903 0.233333 L0.481250 0.233333 L0.418750 0.108333 z M0.625000 0.041667 L0.575000 0.108333 L0.644444 0.108333 z " fill="rgb(245,195,195)" />
<path d="M0.000000 0.000000 L1.000000 0.000000 L1.000000 1.000000 L0.000000 1.000000  z" fill="none" stroke="rgb(128,128,128)" stroke-width="0.01" />
<line x1="0.58125" y1="-0.108333" x2="0.71875" y2="-0.0833333" style="stroke:rgb(246,147,147);stroke-width:0.01" />
<line x1="0.71875" y1="-0.0833333" x2="0.803333" y2="0.206667" style="stroke:rgb(246,147,147);stroke-width:0.01" />
<line x1="0.58125" y1="-0.108333" x2="0.683333" y2="0.241667" style="stroke:rgb(246,147,147);stroke-width:0.01" />
<line x1="0.41875" y1="0.108333" x2="0.48125" y2="0.233333" style="stroke:rgb(246,147,147);stroke-width:0.01" />
<line x1="0.783333" y1="0.108333" x2="0.783333" y2="0.233333" style="stroke:rgb(246,147,147);stroke-width:0.01" />
<line x1="0.41875" y1="0.108333" x2="0.783333" y2="0.108333" style="stroke:rgb(246,147,147);stroke-width:0.01" />
<line x1="0.48125" y1="0.233333" x2="0.783333" y2="0.233333" style="stroke:rgb(246,147,147);stroke-width:0.01" />
<line x1="0.58125" y1="-0.108333" x2="0.41875" y2="0.108333" style="stroke:rgb(246,147,147);stroke-width:0.01" />
<line x1="0.71875" y1="-0.0833333" x2="0.48125" y2="0.233333" style="stroke:rgb(246,147,147);stroke-width:0.01" />
<line x1="0.803333" y1="0.206667" x2="0.683333" y2="0.241667" style="stroke:rgb(246,147,147);stroke-width:0.01" />
</g>
</svg>
