<svg xmlns="http://www.w3.org/2000/svg" viewBox="-1.5 -1.5 3 3">
<g transform="scale(1, -1)">
<path d="M-0.044389 -0.545987 L0.205611 -0.545987 L0.205611 0.004794 L0.154830 0.055575 L0.154830 0.153232 L0.057173 0.153232 L-0.048295 0.258700 L-0.048295 0.454013 L-0.296342 0.454013 L-0.296342 -0.094815 L-0.044389 -0.346768 z " fill="rgb(245,195,195)" />
<path d="M-0.544389 -0.545987 L0.455611 -0.545987 L0.455611 0.454013 L-0.544389 0.454013  z" fill="none" stroke="rgb(128,128,128)" stroke-width="0.01" />
<line x1="-0.0443892" y1="-0.245206" x2="0.205611" y2="0.00479403" style="stroke:rgb(246,147,147);stroke-width:0.01" />
<line x1="-0.0443892" y1="-0.545987" x2="0.205611" y2="-0.545987" style="stroke:rgb(246,147,147);stroke-width:0.01" />
<line x1="-0.296342" y1="-0.0948153" x2="-0.296342" y2="0.454013" style="stroke:rgb(246,147,147);stroke-width:0.01" />
<line x1="-0.243608" y1="-0.14755" x2="-0.243608" y2="0.454013" style="stroke:rgb(246,147,147);stroke-width:0.01" />
<line x1="-0.145952" y1="-0.245206" x2="-0.145952" y2="-0.14755" style="stroke:rgb(246,147,147);stroke-width:0.01" />
<line x1="-0.0482955" y1="0.153232" x2="-0.0482955" y2="0.454013" style="stroke:rgb(246,147,147);stroke-width:0.01" />
<line x1="-0.0443892" y1="-0.545987" x2="-0.0443892" y2="-0.245206" style="stroke:rgb(246,147,147);stroke-width:0.01" />
<line x1="0.15483" y1="-0.545987" x2="0.15483" y2="0.153232" style="stroke:rgb(246,147,147);stroke-width:0.01" />
<line x1="0.205611" y1="-0.545987" x2="0.205611" y2="0.00479403" style="stroke:rgb(246,147,147);stroke-width:0.01" />
<line x1="-0.296342" y1="-0.0948153" x2="-0.0482955" y2="0.153232" style="stroke:rgb(246,147,147);stroke-width:0.01" />
<line x1="-0.145952" y1="-0.245206" x2="0.205611" y2="-0.245206" style="stroke:rgb(246,147,147);stroke-width:0.01" />
<line x1="0.15483" y1="-0.545987" x2="-0.296342" y2="-0.0948153" style="stroke:rgb(246,147,147);stroke-width:0.01" />
<line x1="-0.243608" y1="-0.14755" x2="-0.145952" y2="-0.14755" style="stroke:rgb(246,147,147);stroke-width:0.01" />
<line x1="0.205611" y1="0.00479403" x2="-0.243608" y2="0.454013" style="stroke:rgb(246,147,147);stroke-width:0.01" />
<line x1="-0.296342" y1="0.153232" x2="0.15483" y2="0.153232" style="stroke:rgb(246,147,147);stroke-width:0.01" />
<line x1="-0.296342" y1="0.454013" x2="-0.0482955" y2="0.454013" style="stroke:rgb(246,147,147);stroke-width:0.01" />
</g>
</svg>
