<svg xmlns="http://www.w3.org/2000/svg" viewBox="-1.5 -1.5 3 3">
<g transform="scale(1, -1)">
<path d="M1.404605 -0.587793 L1.564327 -0.468001 L1.571272 -0.473209 L1.589129 -0.449400 L1.646272 -0.406543 L1.633772 -0.389876 L1.646272 -0.373209 L1.589129 -0.330352 L1.571272 -0.306543 L1.564327 -0.311751 L1.404605 -0.191959 L1.279605 -0.254459 L1.279605 -0.525293 z M1.404605 -0.431543 L1.404605 -0.348209 L1.460161 -0.389876 z " fill="rgb(245,195,195)" />
<path d="M0.000000 0.000000 L1.000000 0.000000 L1.000000 1.000000 L0.000000 1.000000  z" fill="none" stroke="rgb(128,128,128)" stroke-width="0.01" />
<line x1="1.40461" y1="-0.587793" x2="1.64627" y2="-0.406543" style="stroke:rgb(246,147,147);stroke-width:0.01" />
<line x1="1.27961" y1="-0.525293" x2="1.57127" y2="-0.306543" style="stroke:rgb(246,147,147);stroke-width:0.01" />
<line x1="1.57127" y1="-0.473209" x2="1.64627" y2="-0.373209" style="stroke:rgb(246,147,147);stroke-width:0.01" />
<line x1="1.27961" y1="-0.254459" x2="1.40461" y2="-0.191959" style="stroke:rgb(246,147,147);stroke-width:0.01" />
<line x1="1.27961" y1="-0.525293" x2="1.27961" y2="-0.254459" style="stroke:rgb(246,147,147);stroke-width:0.01" />
<line x1="1.40461" y1="-0.587793" x2="1.40461" y2="-0.191959" style="stroke:rgb(246,147,147);stroke-width:0.01" />
<line x1="1.40461" y1="-0.587793" x2="1.27961" y2="-0.525293" style="stroke:rgb(246,147,147);stroke-width:0.01" />
<line x1="1.57127" y1="-0.473209" x2="1.27961" y2="-0.254459" style="stroke:rgb(246,147,147);stroke-width:0.01" />
<line x1="1.64627" y1="-0.373209" x2="1.40461" y2="-0.191959" style="stroke:rgb(246,147,147);stroke-width:0.01" />
<line x1="1.64627" y1="-0.406543" x2="1.57127" y2="-0.306543" style="stroke:rgb(246,147,147);stroke-width:0.01" />
</g>
</svg>
