<svg xmlns="http://www.w3.org/2000/svg" viewBox="-1.5 -1.5 3 3">
<g transform="scale(1, -1)">
<path d="M-0.096243 -0.197917 L0.063480 -0.078125 L0.070424 -0.083333 L0.088281 -0.059524 L0.145424 -0.016667 L0.132924 0.000000 L0.145424 0.016667 L0.088281 0.059524 L0.070424 0.083333 L0.063480 0.078125 L-0.096243 0.197917 L-0.221243 0.135417 L-0.221243 -0.135417 z M-0.096243 -0.041667 L-0.096243 0.041667 L-0.040687 0.000000 z " fill="rgb(245,195,195)" />
<path d="M-1.500848 0.389876 L-0.500848 0.389876 L-0.500848 1.389876 L-1.500848 1.389876  z" fill="none" stroke="rgb(128,128,128)" stroke-width="0.01" />
<line x1="-0.0962426" y1="-0.197917" x2="0.145424" y2="-0.0166667" style="stroke:rgb(246,147,147);stroke-width:0.01" />
<line x1="-0.221243" y1="-0.135417" x2="0.0704241" y2="0.0833333" style="stroke:rgb(246,147,147);stroke-width:0.01" />
<line x1="0.0704241" y1="-0.0833333" x2="0.145424" y2="0.0166667" style="stroke:rgb(246,147,147);stroke-width:0.01" />
<line x1="-0.221243" y1="0.135417" x2="-0.0962426" y2="0.197917" style="stroke:rgb(246,147,147);stroke-width:0.01" />
<line x1="-0.221243" y1="-0.135417" x2="-0.221243" y2="0.135417" style="stroke:rgb(246,147,147);stroke-width:0.01" />
<line x1="-0.0962426" y1="-0.197917" x2="-0.0962426" y2="0.197917" style="stroke:rgb(246,147,147);stroke-width:0.01" />
<line x1="-0.0962426" y1="-0.197917" x2="-0.221243" y2="-0.135417" style="stroke:rgb(246,147,147);stroke-width:0.01" />
<line x1="0.0704241" y1="-0.0833333" x2="-0.221243" y2="0.135417" style="stroke:rgb(246,147,147);stroke-width:0.01" />
<line x1="0.145424" y1="0.0166667" x2="-0.0962426" y2="0.197917" style="stroke:rgb(246,147,147);stroke-width:0.01" />
<line x1="0.145424" y1="-0.0166667" x2="0.0704241" y2="0.0833333" style="stroke:rgb(246,147,147);stroke-width:0.01" />
</g>
</svg>
