<svg xmlns="http://www.w3.org/2000/svg" viewBox="-1.5 -1.5 3 3">
<g transform="scale(1, -1)">
<path d="M-0.135417 -0.221243 L0.135417 -0.221243 L0.197917 -0.096243 L0.078125 0.063480 L0.083333 0.070424 L0.059524 0.088281 L0.016667 0.145424 L0.000000 0.132924 L-0.016667 0.145424 L-0.059524 0.088281 L-0.083333 0.070424 L-0.078125 0.063480 L-0.197917 -0.096243 z M-0.041667 -0.096243 L0.000000 -0.040687 L0.041667 -0.096243 z " fill="rgb(245,195,195)" />
<path d="M-0.499900 -0.063348 L0.500100 -0.063348 L0.500100 0.936652 L-0.499900 0.936652  z" fill="none" stroke="rgb(128,128,128)" stroke-width="0.01" />
<line x1="0.135417" y1="-0.221243" x2="0.197917" y2="-0.0962426" style="stroke:rgb(246,147,147);stroke-width:0.01" />
<line x1="-0.135417" y1="-0.221243" x2="0.0833333" y2="0.0704241" style="stroke:rgb(246,147,147);stroke-width:0.01" />
<line x1="-0.135417" y1="-0.221243" x2="0.135417" y2="-0.221243" style="stroke:rgb(246,147,147);stroke-width:0.01" />
<line x1="-0.197917" y1="-0.0962426" x2="-0.0166667" y2="0.145424" style="stroke:rgb(246,147,147);stroke-width:0.01" />
<line x1="-0.0833333" y1="0.0704241" x2="0.0166667" y2="0.145424" style="stroke:rgb(246,147,147);stroke-width:0.01" />
<line x1="-0.197917" y1="-0.0962426" x2="0.197917" y2="-0.0962426" style="stroke:rgb(246,147,147);stroke-width:0.01" />
<line x1="-0.135417" y1="-0.221243" x2="-0.197917" y2="-0.0962426" style="stroke:rgb(246,147,147);stroke-width:0.01" />
<line x1="0.135417" y1="-0.221243" x2="-0.0833333" y2="0.0704241" style="stroke:rgb(246,147,147);stroke-width:0.01" />
<line x1="0.197917" y1="-0.0962426" x2="0.0166667" y2="0.145424" style="stroke:rgb(246,147,147);stroke-width:0.01" />
<line x1="0.0833333" y1="0.0704241" x2="-0.0166667" y2="0.145424" style="stroke:rgb(246,147,147);stroke-width:0.01" />
</g>
</svg>
