<svg xmlns="http://www.w3.org/2000/svg" viewBox="-1.5 -1.5 3 3">
<g transform="scale(1, -1)">
<path d="M0.364484 -0.157895 L0.635317 -0.157895 L0.697817 -0.032895 L0.578025 0.126827 L0.583234 0.133772 L0.559424 0.151629 L0.516567 0.208772 L0.499900 0.196272 L0.483234 0.208772 L0.440376 0.151629 L0.416567 0.133772 L0.421775 0.126827 L0.301984 -0.032895 z M0.458234 -0.032895 L0.499900 0.022661 L0.541567 -0.032895 z " fill="rgb(245,195,195)" />
<path d="M0.000000 0.000000 L1.000000 0.000000 L1.000000 1.000000 L0.000000 1.000000  z" fill="none" stroke="rgb(128,128,128)" stroke-width="0.01" />
<line x1="0.635317" y1="-0.157895" x2="0.697817" y2="-0.0328947" style="stroke:rgb(246,147,147);stroke-width:0.01" />
<line x1="0.364484" y1="-0.157895" x2="0.583234" y2="0.133772" style="stroke:rgb(246,147,147);stroke-width:0.01" />
<line x1="0.364484" y1="-0.157895" x2="0.635317" y2="-0.157895" style="stroke:rgb(246,147,147);stroke-width:0.01" />
<line x1="0.301984" y1="-0.0328947" x2="0.483234" y2="0.208772" style="stroke:rgb(246,147,147);stroke-width:0.01" />
<line x1="0.416567" y1="0.133772" x2="0.516567" y2="0.208772" style="stroke:rgb(246,147,147);stroke-width:0.01" />
<line x1="0.301984" y1="-0.0328947" x2="0.697817" y2="-0.0328947" style="stroke:rgb(246,147,147);stroke-width:0.01" />
<line x1="0.364484" y1="-0.157895" x2="0.301984" y2="-0.0328947" style="stroke:rgb(246,147,147);stroke-width:0.01" />
<line x1="0.635317" y1="-0.157895" x2="0.416567" y2="0.133772" style="stroke:rgb(246,147,147);stroke-width:0.01" />
<line x1="0.697817" y1="-0.0328947" x2="0.516567" y2="0.208772" style="stroke:rgb(246,147,147);stroke-width:0.01" />
<line x1="0.583234" y1="0.133772" x2="0.483234" y2="0.208772" style="stroke:rgb(246,147,147);stroke-width:0.01" />
</g>
</svg>
