<svg xmlns="http://www.w3.org/2000/svg" viewBox="-1.5 -1.5 3 3">
<g transform="scale(1, -1)">
<path d="M0.250000 0.195775 L1.000000 0.929645 L1.000000 1.000000 L0.699219 1.000000 L0.398438 0.699219 L0.300781 0.699219 L0.300781 0.601562 L0.250000 0.550781 L0.250000 0.445834 L0.059706 0.449971 L0.054272 0.200030 z " fill="rgb(245,195,195)" />
<path d="M0.000000 0.000000 L1.000000 0.000000 L1.000000 1.000000 L0.000000 1.000000  z" fill="none" stroke="rgb(128,128,128)" stroke-width="0.01" />
<line x1="0.25" y1="0.195775" x2="1" y2="0.929645" style="stroke:rgb(246,147,147);stroke-width:0.01" />
<line x1="0.764509" y1="0.699219" x2="0.769628" y2="0.934654" style="stroke:rgb(246,147,147);stroke-width:0.01" />
<line x1="0.460257" y1="0.542849" x2="0.46238" y2="0.640482" style="stroke:rgb(246,147,147);stroke-width:0.01" />
<line x1="0.357315" y1="0.300781" x2="0.362624" y2="0.544971" style="stroke:rgb(246,147,147);stroke-width:0.01" />
<line x1="0.0542717" y1="0.20003" x2="0.0597059" y2="0.449971" style="stroke:rgb(246,147,147);stroke-width:0.01" />
<line x1="0.25" y1="0.195775" x2="0.25" y2="0.550781" style="stroke:rgb(246,147,147);stroke-width:0.01" />
<line x1="0.300781" y1="0.245464" x2="0.300781" y2="0.699219" style="stroke:rgb(246,147,147);stroke-width:0.01" />
<line x1="0.699219" y1="0.635333" x2="0.699219" y2="1" style="stroke:rgb(246,147,147);stroke-width:0.01" />
<line x1="1" y1="0.929645" x2="1" y2="1" style="stroke:rgb(246,147,147);stroke-width:0.01" />
<line x1="0.0553755" y1="0.250799" x2="0.769628" y2="0.934654" style="stroke:rgb(246,147,147);stroke-width:0.01" />
<line x1="0.25" y1="0.550781" x2="0.699219" y2="1" style="stroke:rgb(246,147,147);stroke-width:0.01" />
<line x1="0.25" y1="0.195775" x2="0.0542717" y2="0.20003" style="stroke:rgb(246,147,147);stroke-width:0.01" />
<line x1="0.300781" y1="0.245464" x2="0.0553755" y2="0.250799" style="stroke:rgb(246,147,147);stroke-width:0.01" />
<line x1="0.25" y1="0.300781" x2="0.357315" y2="0.300781" style="stroke:rgb(246,147,147);stroke-width:0.01" />
<line x1="0.429433" y1="0.371349" x2="0.360416" y2="0.443433" style="stroke:rgb(246,147,147);stroke-width:0.01" />
<line x1="0.429433" y1="0.371349" x2="0.25" y2="0.550781" style="stroke:rgb(246,147,147);stroke-width:0.01" />
<line x1="0.360416" y1="0.443433" x2="0.0597059" y2="0.449971" style="stroke:rgb(246,147,147);stroke-width:0.01" />
<line x1="0.460257" y1="0.542849" x2="0.362624" y2="0.544971" style="stroke:rgb(246,147,147);stroke-width:0.01" />
<line x1="0.699219" y1="0.635333" x2="0.46238" y2="0.640482" style="stroke:rgb(246,147,147);stroke-width:0.01" />
<line x1="0.300781" y1="0.699219" x2="0.764509" y2="0.699219" style="stroke:rgb(246,147,147);stroke-width:0.01" />
<line x1="1" y1="0.929645" x2="0.769628" y2="0.934654" style="stroke:rgb(246,147,147);stroke-width:0.01" />
<line x1="0.699219" y1="1" x2="1" y2="1" style="stroke:rgb(246,147,147);stroke-width:0.01" />
</g>
</svg>
