<svg xmlns="http://www.w3.org/2000/svg" viewBox="-1.5 -1.5 3 3">
<g transform="scale(1, -1)">
<path d="M-0.164836 -0.419865 L0.585164 0.314006 L0.585164 0.384360 L0.284383 0.384360 L-0.016399 0.083579 L-0.114055 0.083579 L-0.114055 -0.014077 L-0.164836 -0.064858 L-0.164836 -0.169806 L-0.355130 -0.165669 L-0.360564 -0.415610 z " fill="rgb(245,195,195)" />
<path d="M-0.414836 -0.615640 L0.585164 -0.615640 L0.585164 0.384360 L-0.414836 0.384360  z" fill="none" stroke="rgb(128,128,128)" stroke-width="0.01" />
<line x1="-0.164836" y1="-0.419865" x2="0.585164" y2="0.314006" style="stroke:rgb(246,147,147);stroke-width:0.01" />
<line x1="0.349673" y1="0.0835791" x2="0.354792" y2="0.319015" style="stroke:rgb(246,147,147);stroke-width:0.01" />
<line x1="0.0454208" y1="-0.0727908" x2="0.0475435" y2="0.0248423" style="stroke:rgb(246,147,147);stroke-width:0.01" />
<line x1="-0.0575215" y1="-0.314858" x2="-0.0522124" y2="-0.0706681" style="stroke:rgb(246,147,147);stroke-width:0.01" />
<line x1="-0.360564" y1="-0.41561" x2="-0.35513" y2="-0.165669" style="stroke:rgb(246,147,147);stroke-width:0.01" />
<line x1="-0.164836" y1="-0.419865" x2="-0.164836" y2="-0.0648584" style="stroke:rgb(246,147,147);stroke-width:0.01" />
<line x1="-0.114055" y1="-0.370176" x2="-0.114055" y2="0.0835791" style="stroke:rgb(246,147,147);stroke-width:0.01" />
<line x1="0.284383" y1="0.019693" x2="0.284383" y2="0.38436" style="stroke:rgb(246,147,147);stroke-width:0.01" />
<line x1="0.585164" y1="0.314006" x2="0.585164" y2="0.38436" style="stroke:rgb(246,147,147);stroke-width:0.01" />
<line x1="-0.35946" y1="-0.36484" x2="0.354792" y2="0.319015" style="stroke:rgb(246,147,147);stroke-width:0.01" />
<line x1="-0.164836" y1="-0.0648584" x2="0.284383" y2="0.38436" style="stroke:rgb(246,147,147);stroke-width:0.01" />
<line x1="-0.164836" y1="-0.419865" x2="-0.360564" y2="-0.41561" style="stroke:rgb(246,147,147);stroke-width:0.01" />
<line x1="-0.114055" y1="-0.370176" x2="-0.35946" y2="-0.36484" style="stroke:rgb(246,147,147);stroke-width:0.01" />
<line x1="-0.164836" y1="-0.314858" x2="-0.0575215" y2="-0.314858" style="stroke:rgb(246,147,147);stroke-width:0.01" />
<line x1="0.0145967" y1="-0.244291" x2="-0.05442" y2="-0.172207" style="stroke:rgb(246,147,147);stroke-width:0.01" />
<line x1="0.0145967" y1="-0.244291" x2="-0.164836" y2="-0.0648584" style="stroke:rgb(246,147,147);stroke-width:0.01" />
<line x1="-0.05442" y1="-0.172207" x2="-0.35513" y2="-0.165669" style="stroke:rgb(246,147,147);stroke-width:0.01" />
<line x1="0.0454208" y1="-0.0727908" x2="-0.0522124" y2="-0.0706681" style="stroke:rgb(246,147,147);stroke-width:0.01" />
<line x1="0.284383" y1="0.019693" x2="0.0475435" y2="0.0248423" style="stroke:rgb(246,147,147);stroke-width:0.01" />
<line x1="-0.114055" y1="0.0835791" x2="0.349673" y2="0.0835791" style="stroke:rgb(246,147,147);stroke-width:0.01" />
<line x1="0.585164" y1="0.314006" x2="0.354792" y2="0.319015" style="stroke:rgb(246,147,147);stroke-width:0.01" />
<line x1="0.284383" y1="0.38436" x2="0.585164" y2="0.38436" style="stroke:rgb(246,147,147);stroke-width:0.01" />
</g>
</svg>
