<svg xmlns="http://www.w3.org/2000/svg" viewBox="-1.5 -1.5 3 3">
<g transform="scale(1, -1)">
<path d="M0.018280 -0.269079 L0.143280 -0.269079 L0.143280 0.136658 L-0.077286 0.183664 L-0.146049 0.124049 L-0.122579 -0.021041 L0.018280 -0.079521 z M0.018280 0.055824 L-0.013768 0.069129 L0.018280 0.069396 z " fill="rgb(245,195,195)" />
<path d="M-0.356720 -0.269079 L0.643280 -0.269079 L0.643280 0.730921 L-0.356720 0.730921  z" fill="none" stroke="rgb(128,128,128)" stroke-width="0.01" />
<line x1="0.113601" y1="0.0701887" x2="0.14328" y2="0.136658" style="stroke:rgb(246,147,147);stroke-width:0.01" />
<line x1="0.0340608" y1="-0.0860729" x2="0.0819907" y2="0.0293728" style="stroke:rgb(246,147,147);stroke-width:0.01" />
<line x1="-0.023804" y1="0.0690458" x2="0.0182804" y2="0.163298" style="stroke:rgb(246,147,147);stroke-width:0.01" />
<line x1="0.0182804" y1="-0.269079" x2="0.14328" y2="-0.269079" style="stroke:rgb(246,147,147);stroke-width:0.01" />
<line x1="0.0182804" y1="-0.269079" x2="0.0182804" y2="0.163298" style="stroke:rgb(246,147,147);stroke-width:0.01" />
<line x1="0.14328" y1="-0.269079" x2="0.14328" y2="0.136658" style="stroke:rgb(246,147,147);stroke-width:0.01" />
<line x1="-0.122579" y1="-0.0210405" x2="0.0758835" y2="0.151022" style="stroke:rgb(246,147,147);stroke-width:0.01" />
<line x1="-0.122579" y1="-0.0210405" x2="-0.146049" y2="0.124049" style="stroke:rgb(246,147,147);stroke-width:0.01" />
<line x1="-0.146049" y1="0.124049" x2="-0.0772863" y2="0.183664" style="stroke:rgb(246,147,147);stroke-width:0.01" />
<line x1="-0.023804" y1="0.0690458" x2="-0.0772863" y2="0.183664" style="stroke:rgb(246,147,147);stroke-width:0.01" />
<line x1="0.113601" y1="0.0701887" x2="0.0758835" y2="0.151022" style="stroke:rgb(246,147,147);stroke-width:0.01" />
<line x1="0.0340608" y1="-0.0860729" x2="-0.122579" y2="-0.0210405" style="stroke:rgb(246,147,147);stroke-width:0.01" />
<line x1="-0.023804" y1="0.0690458" x2="0.113601" y2="0.0701887" style="stroke:rgb(246,147,147);stroke-width:0.01" />
<line x1="0.0819907" y1="0.0293728" x2="-0.146049" y2="0.124049" style="stroke:rgb(246,147,147);stroke-width:0.01" />
<line x1="0.14328" y1="0.136658" x2="-0.0772863" y2="0.183664" style="stroke:rgb(246,147,147);stroke-width:0.01" />
</g>
</svg>
