<svg xmlns="http://www.w3.org/2000/svg" viewBox="-1.5 -1.5 3 3">
<g transform="scale(1, -1)">
<path d="M0.375000 0.000000 L0.500000 0.000000 L0.500000 0.405738 L0.279433 0.452744 L0.210670 0.393128 L0.234141 0.248039 L0.375000 0.189558 z M0.375000 0.324903 L0.342951 0.338209 L0.375000 0.338475 z " fill="rgb(245,195,195)" />
<path d="M0.000000 0.000000 L1.000000 0.000000 L1.000000 1.000000 L0.000000 1.000000  z" fill="none" stroke="rgb(128,128,128)" stroke-width="0.01" />
<line x1="0.470321" y1="0.339268" x2="0.5" y2="0.405738" style="stroke:rgb(246,147,147);stroke-width:0.01" />
<line x1="0.39078" y1="0.183006" x2="0.43871" y2="0.298452" style="stroke:rgb(246,147,147);stroke-width:0.01" />
<line x1="0.332916" y1="0.338125" x2="0.375" y2="0.432377" style="stroke:rgb(246,147,147);stroke-width:0.01" />
<line x1="0.375" y1="0" x2="0.5" y2="0" style="stroke:rgb(246,147,147);stroke-width:0.01" />
<line x1="0.375" y1="0" x2="0.375" y2="0.432377" style="stroke:rgb(246,147,147);stroke-width:0.01" />
<line x1="0.5" y1="0" x2="0.5" y2="0.405738" style="stroke:rgb(246,147,147);stroke-width:0.01" />
<line x1="0.234141" y1="0.248039" x2="0.432603" y2="0.420101" style="stroke:rgb(246,147,147);stroke-width:0.01" />
<line x1="0.234141" y1="0.248039" x2="0.21067" y2="0.393128" style="stroke:rgb(246,147,147);stroke-width:0.01" />
<line x1="0.21067" y1="0.393128" x2="0.279433" y2="0.452744" style="stroke:rgb(246,147,147);stroke-width:0.01" />
<line x1="0.332916" y1="0.338125" x2="0.279433" y2="0.452744" style="stroke:rgb(246,147,147);stroke-width:0.01" />
<line x1="0.470321" y1="0.339268" x2="0.432603" y2="0.420101" style="stroke:rgb(246,147,147);stroke-width:0.01" />
<line x1="0.39078" y1="0.183006" x2="0.234141" y2="0.248039" style="stroke:rgb(246,147,147);stroke-width:0.01" />
<line x1="0.332916" y1="0.338125" x2="0.470321" y2="0.339268" style="stroke:rgb(246,147,147);stroke-width:0.01" />
<line x1="0.43871" y1="0.298452" x2="0.21067" y2="0.393128" style="stroke:rgb(246,147,147);stroke-width:0.01" />
<line x1="0.5" y1="0.405738" x2="0.279433" y2="0.452744" style="stroke:rgb(246,147,147);stroke-width:0.01" />
</g>
</svg>
