<svg xmlns="http://www.w3.org/2000/svg" viewBox="-1.5 -1.5 3 3">
<g transform="scale(1, -1)">
<path d="M-0.400195 -0.406009 L-0.398153 -0.406009 L0.599805 0.024483 L0.599805 0.593991 L-0.001067 0.593991 L-0.400195 -0.400447 z " fill="rgb(245,195,195)" />
<path d="M-0.400195 -0.406009 L0.599805 -0.406009 L0.599805 0.593991 L-0.400195 0.593991  z" fill="none" stroke="rgb(128,128,128)" stroke-width="0.01" />
<line x1="-0.398153" y1="-0.406009" x2="0.286669" y2="0.319896" style="stroke:rgb(246,147,147);stroke-width:0.01" />
<line x1="-0.398153" y1="-0.406009" x2="0.599805" y2="0.0244829" style="stroke:rgb(246,147,147);stroke-width:0.01" />
<line x1="-0.400195" y1="-0.406009" x2="-0.398153" y2="-0.406009" style="stroke:rgb(246,147,147);stroke-width:0.01" />
<line x1="-0.400195" y1="-0.406009" x2="-0.400195" y2="-0.400447" style="stroke:rgb(246,147,147);stroke-width:0.01" />
<line x1="0.599805" y1="0.0244829" x2="0.599805" y2="0.593991" style="stroke:rgb(246,147,147);stroke-width:0.01" />
<line x1="-0.400195" y1="-0.400447" x2="-0.00106665" y2="0.593991" style="stroke:rgb(246,147,147);stroke-width:0.01" />
<line x1="-0.400195" y1="-0.400447" x2="0.287311" y2="0.318053" style="stroke:rgb(246,147,147);stroke-width:0.01" />
<line x1="0.287311" y1="0.318053" x2="-0.00106665" y2="0.593991" style="stroke:rgb(246,147,147);stroke-width:0.01" />
<line x1="0.599805" y1="0.0244829" x2="0.286669" y2="0.319896" style="stroke:rgb(246,147,147);stroke-width:0.01" />
<line x1="-0.00106665" y1="0.593991" x2="0.599805" y2="0.593991" style="stroke:rgb(246,147,147);stroke-width:0.01" />
</g>
</svg>
