<svg xmlns="http://www.w3.org/2000/svg" viewBox="-1.5 -1.5 3 3">
<g transform="scale(1, -1)">
<path d="M-0.110524 -0.204277 L0.028398 -0.189052 L0.092756 -0.015171 L0.217863 -0.006158 L0.208881 0.118519 L0.090688 0.110004 L0.016028 0.137638 L0.003474 0.103721 L-0.153143 0.092438 L-0.218044 -0.037562 z M-0.056288 -0.057742 L-0.075907 -0.027322 L-0.044183 -0.025036 z " fill="rgb(245,195,195)" />
<path d="M-0.475750 -0.203927 L0.524250 -0.203927 L0.524250 0.796073 L-0.475750 0.796073  z" fill="none" stroke="rgb(128,128,128)" stroke-width="0.01" />
<line x1="0.0283982" y1="-0.189052" x2="0.133255" y2="0.0942487" style="stroke:rgb(246,147,147);stroke-width:0.01" />
<line x1="-0.110524" y1="-0.204277" x2="0.0160276" y2="0.137638" style="stroke:rgb(246,147,147);stroke-width:0.01" />
<line x1="-0.218044" y1="-0.0375616" x2="-0.153143" y2="0.0924379" style="stroke:rgb(246,147,147);stroke-width:0.01" />
<line x1="-0.110524" y1="-0.204277" x2="0.0283982" y2="-0.189052" style="stroke:rgb(246,147,147);stroke-width:0.01" />
<line x1="0.217863" y1="-0.00615807" x2="0.208881" y2="0.118519" style="stroke:rgb(246,147,147);stroke-width:0.01" />
<line x1="-0.218044" y1="-0.0375616" x2="0.217863" y2="-0.00615807" style="stroke:rgb(246,147,147);stroke-width:0.01" />
<line x1="-0.110524" y1="-0.204277" x2="-0.218044" y2="-0.0375616" style="stroke:rgb(246,147,147);stroke-width:0.01" />
<line x1="0.0283982" y1="-0.189052" x2="-0.153143" y2="0.0924379" style="stroke:rgb(246,147,147);stroke-width:0.01" />
<line x1="-0.153143" y1="0.0924379" x2="0.208881" y2="0.118519" style="stroke:rgb(246,147,147);stroke-width:0.01" />
<line x1="0.133255" y1="0.0942487" x2="0.0160276" y2="0.137638" style="stroke:rgb(246,147,147);stroke-width:0.01" />
</g>
</svg>
