<svg xmlns="http://www.w3.org/2000/svg" viewBox="-1.5 -1.5 3 3">
<g transform="scale(1, -1)">
<path d="M-0.076229 -0.219394 L0.058436 -0.182023 L0.093989 -0.000054 L0.216017 0.028964 L0.187099 0.150573 L0.071814 0.123158 L-0.006319 0.138424 L-0.013254 0.102929 L-0.166017 0.066602 L-0.209164 -0.072143 z M-0.046268 -0.066044 L-0.070524 -0.039175 L-0.039580 -0.031817 z " fill="rgb(245,195,195)" />
<path d="M-0.895150 -0.164688 L0.104850 -0.164688 L0.104850 0.835312 L-0.895150 0.835312  z" fill="none" stroke="rgb(128,128,128)" stroke-width="0.01" />
<line x1="-0.0762289" y1="-0.219394" x2="0.0584361" y2="-0.182023" style="stroke:rgb(246,147,147);stroke-width:0.01" />
<line x1="-0.209164" y1="-0.0721433" x2="-0.166017" y2="0.0666025" style="stroke:rgb(246,147,147);stroke-width:0.01" />
<line x1="0.0584361" y1="-0.182023" x2="0.116361" y2="0.114455" style="stroke:rgb(246,147,147);stroke-width:0.01" />
<line x1="-0.0762289" y1="-0.219394" x2="-0.0063191" y2="0.138424" style="stroke:rgb(246,147,147);stroke-width:0.01" />
<line x1="-0.209164" y1="-0.0721433" x2="0.216017" y2="0.0289637" style="stroke:rgb(246,147,147);stroke-width:0.01" />
<line x1="-0.166017" y1="0.0666025" x2="0.187099" y2="0.150573" style="stroke:rgb(246,147,147);stroke-width:0.01" />
<line x1="0.216017" y1="0.0289637" x2="0.187099" y2="0.150573" style="stroke:rgb(246,147,147);stroke-width:0.01" />
<line x1="-0.0762289" y1="-0.219394" x2="-0.209164" y2="-0.0721433" style="stroke:rgb(246,147,147);stroke-width:0.01" />
<line x1="0.116361" y1="0.114455" x2="-0.0063191" y2="0.138424" style="stroke:rgb(246,147,147);stroke-width:0.01" />
<line x1="0.0584361" y1="-0.182023" x2="-0.166017" y2="0.0666025" style="stroke:rgb(246,147,147);stroke-width:0.01" />
</g>
</svg>
