<svg xmlns="http://www.w3.org/2000/svg" viewBox="-1.5 -1.5 3 3">
<g transform="scale(1, -1)">
<path d="M-0.230457 -0.357865 L-0.032243 -0.357865 L-0.032243 0.018097 L0.006969 0.009274 L0.005379 -0.001242 L0.005728 -0.001321 L0.004154 -0.011737 L0.004502 -0.011815 L0.002943 -0.022131 L0.003291 -0.022209 L0.001747 -0.032424 L0.002096 -0.032502 L0.000567 -0.042617 L0.070254 -0.058296 L0.071351 -0.053418 L0.073667 -0.038096 L0.074023 -0.038124 L0.075575 -0.027859 L0.075931 -0.027887 L0.077497 -0.017521 L0.077853 -0.017549 L0.079435 -0.007083 L0.079791 -0.007111 L0.104877 0.158862 L-0.074978 0.338717 L-0.128397 0.295982 L-0.135922 0.262537 L-0.263391 0.103201 z " fill="rgb(245,195,195)" />
<path d="M-1.032243 -0.357865 L-0.032243 -0.357865 L-0.032243 0.642135 L-1.032243 0.642135  z" fill="none" stroke="rgb(128,128,128)" stroke-width="0.01" />
<line x1="0.0702536" y1="-0.058296" x2="0.0713512" y2="-0.0534179" style="stroke:rgb(246,147,147);stroke-width:0.01" />
<line x1="-0.263391" y1="0.103201" x2="-0.0749781" y2="0.338717" style="stroke:rgb(246,147,147);stroke-width:0.01" />
<line x1="-0.183275" y1="0.0520792" x2="-0.128397" y2="0.295982" style="stroke:rgb(246,147,147);stroke-width:0.01" />
<line x1="0.0797913" y1="-0.00711071" x2="0.104877" y2="0.158862" style="stroke:rgb(246,147,147);stroke-width:0.01" />
<line x1="0.0778533" y1="-0.017549" x2="0.104564" y2="0.159175" style="stroke:rgb(246,147,147);stroke-width:0.01" />
<line x1="0.0759306" y1="-0.0278867" x2="0.104251" y2="0.159488" style="stroke:rgb(246,147,147);stroke-width:0.01" />
<line x1="0.0740231" y1="-0.0381238" x2="0.103938" y2="0.159801" style="stroke:rgb(246,147,147);stroke-width:0.01" />
<line x1="0.0713512" y1="-0.0534179" x2="0.103625" y2="0.160114" style="stroke:rgb(246,147,147);stroke-width:0.01" />
<line x1="0.000567213" y1="-0.0426165" x2="0.0407165" y2="0.223022" style="stroke:rgb(246,147,147);stroke-width:0.01" />
<line x1="0.00174746" y1="-0.0324239" x2="0.0404035" y2="0.223335" style="stroke:rgb(246,147,147);stroke-width:0.01" />
<line x1="0.00294292" y1="-0.0221307" x2="0.0400905" y2="0.223648" style="stroke:rgb(246,147,147);stroke-width:0.01" />
<line x1="0.00415359" y1="-0.0117369" x2="0.0397775" y2="0.223961" style="stroke:rgb(246,147,147);stroke-width:0.01" />
<line x1="0.00537947" y1="-0.00124242" x2="0.0394646" y2="0.224274" style="stroke:rgb(246,147,147);stroke-width:0.01" />
<line x1="-0.230457" y1="-0.357865" x2="-0.156572" y2="-0.347255" style="stroke:rgb(246,147,147);stroke-width:0.01" />
<line x1="-0.230858" y1="-0.347255" x2="-0.15768" y2="-0.336748" style="stroke:rgb(246,147,147);stroke-width:0.01" />
<line x1="-0.231251" y1="-0.336748" x2="-0.15878" y2="-0.326342" style="stroke:rgb(246,147,147);stroke-width:0.01" />
<line x1="0.0713512" y1="-0.0534179" x2="0.089319" y2="0.17442" style="stroke:rgb(246,147,147);stroke-width:0.01" />
<line x1="-0.231638" y1="-0.326342" x2="-0.159874" y2="-0.316037" style="stroke:rgb(246,147,147);stroke-width:0.01" />
<line x1="-0.232016" y1="-0.316037" x2="-0.160959" y2="-0.305834" style="stroke:rgb(246,147,147);stroke-width:0.01" />
<line x1="-0.232745" y1="-0.305834" x2="-0.162395" y2="-0.295733" style="stroke:rgb(246,147,147);stroke-width:0.01" />
<line x1="-0.128397" y1="0.295982" x2="-0.0749781" y2="0.338717" style="stroke:rgb(246,147,147);stroke-width:0.01" />
<line x1="-0.230457" y1="-0.357865" x2="-0.032243" y2="-0.357865" style="stroke:rgb(246,147,147);stroke-width:0.01" />
<line x1="-0.032243" y1="-0.357865" x2="-0.032243" y2="0.295982" style="stroke:rgb(246,147,147);stroke-width:0.01" />
<line x1="-0.230858" y1="-0.347255" x2="-0.156572" y2="-0.347255" style="stroke:rgb(246,147,147);stroke-width:0.01" />
<line x1="-0.231251" y1="-0.336748" x2="-0.15768" y2="-0.336748" style="stroke:rgb(246,147,147);stroke-width:0.01" />
<line x1="-0.231638" y1="-0.326342" x2="-0.15878" y2="-0.326342" style="stroke:rgb(246,147,147);stroke-width:0.01" />
<line x1="-0.232016" y1="-0.316037" x2="-0.159874" y2="-0.316037" style="stroke:rgb(246,147,147);stroke-width:0.01" />
<line x1="-0.232745" y1="-0.305834" x2="-0.160959" y2="-0.305834" style="stroke:rgb(246,147,147);stroke-width:0.01" />
<line x1="-0.230457" y1="-0.357865" x2="-0.263391" y2="0.103201" style="stroke:rgb(246,147,147);stroke-width:0.01" />
<line x1="-0.230858" y1="-0.347255" x2="-0.263063" y2="0.103611" style="stroke:rgb(246,147,147);stroke-width:0.01" />
<line x1="-0.231251" y1="-0.336748" x2="-0.262735" y2="0.104021" style="stroke:rgb(246,147,147);stroke-width:0.01" />
<line x1="-0.231638" y1="-0.326342" x2="-0.262407" y2="0.104431" style="stroke:rgb(246,147,147);stroke-width:0.01" />
<line x1="-0.232016" y1="-0.316037" x2="-0.262079" y2="0.10484" style="stroke:rgb(246,147,147);stroke-width:0.01" />
<line x1="-0.160959" y1="-0.305834" x2="-0.196177" y2="0.187217" style="stroke:rgb(246,147,147);stroke-width:0.01" />
<line x1="-0.159874" y1="-0.316037" x2="-0.19585" y2="0.187627" style="stroke:rgb(246,147,147);stroke-width:0.01" />
<line x1="-0.15878" y1="-0.326342" x2="-0.195522" y2="0.188037" style="stroke:rgb(246,147,147);stroke-width:0.01" />
<line x1="-0.15768" y1="-0.336748" x2="-0.195194" y2="0.188447" style="stroke:rgb(246,147,147);stroke-width:0.01" />
<line x1="-0.156572" y1="-0.347255" x2="-0.194866" y2="0.188857" style="stroke:rgb(246,147,147);stroke-width:0.01" />
<line x1="-0.162395" y1="-0.295733" x2="-0.22633" y2="0.149527" style="stroke:rgb(246,147,147);stroke-width:0.01" />
<line x1="-0.263391" y1="0.103201" x2="0.104877" y2="0.158862" style="stroke:rgb(246,147,147);stroke-width:0.01" />
<line x1="-0.263063" y1="0.103611" x2="0.104564" y2="0.159175" style="stroke:rgb(246,147,147);stroke-width:0.01" />
<line x1="-0.262735" y1="0.104021" x2="0.104251" y2="0.159488" style="stroke:rgb(246,147,147);stroke-width:0.01" />
<line x1="-0.262407" y1="0.104431" x2="0.103938" y2="0.159801" style="stroke:rgb(246,147,147);stroke-width:0.01" />
<line x1="-0.262079" y1="0.10484" x2="0.103625" y2="0.160114" style="stroke:rgb(246,147,147);stroke-width:0.01" />
<line x1="0.0721307" y1="-0.0482602" x2="0.000567213" y2="-0.0426165" style="stroke:rgb(246,147,147);stroke-width:0.01" />
<line x1="0.0740231" y1="-0.0381238" x2="0.00174746" y2="-0.0324239" style="stroke:rgb(246,147,147);stroke-width:0.01" />
<line x1="-0.196177" y1="0.187217" x2="0.0407165" y2="0.223022" style="stroke:rgb(246,147,147);stroke-width:0.01" />
<line x1="-0.19585" y1="0.187627" x2="0.0404035" y2="0.223335" style="stroke:rgb(246,147,147);stroke-width:0.01" />
<line x1="-0.195522" y1="0.188037" x2="0.0400905" y2="0.223648" style="stroke:rgb(246,147,147);stroke-width:0.01" />
<line x1="-0.195194" y1="0.188447" x2="0.0397775" y2="0.223961" style="stroke:rgb(246,147,147);stroke-width:0.01" />
<line x1="-0.194866" y1="0.188857" x2="0.0394646" y2="0.224274" style="stroke:rgb(246,147,147);stroke-width:0.01" />
<line x1="0.0759306" y1="-0.0278867" x2="0.00294292" y2="-0.0221307" style="stroke:rgb(246,147,147);stroke-width:0.01" />
<line x1="0.0778533" y1="-0.017549" x2="0.00415359" y2="-0.0117369" style="stroke:rgb(246,147,147);stroke-width:0.01" />
<line x1="0.0797913" y1="-0.00711071" x2="0.00537947" y2="-0.00124242" style="stroke:rgb(246,147,147);stroke-width:0.01" />
<line x1="-0.22633" y1="0.149527" x2="0.089319" y2="0.17442" style="stroke:rgb(246,147,147);stroke-width:0.01" />
<line x1="0.0702536" y1="-0.058296" x2="0.000567213" y2="-0.0426165" style="stroke:rgb(246,147,147);stroke-width:0.01" />
<line x1="0.0721307" y1="-0.0482602" x2="0.00174746" y2="-0.0324239" style="stroke:rgb(246,147,147);stroke-width:0.01" />
<line x1="0.0740231" y1="-0.0381238" x2="0.00294292" y2="-0.0221307" style="stroke:rgb(246,147,147);stroke-width:0.01" />
<line x1="0.0759306" y1="-0.0278867" x2="0.00415359" y2="-0.0117369" style="stroke:rgb(246,147,147);stroke-width:0.01" />
<line x1="0.0778533" y1="-0.017549" x2="0.00537947" y2="-0.00124242" style="stroke:rgb(246,147,147);stroke-width:0.01" />
<line x1="0.0797913" y1="-0.00711071" x2="-0.183275" y2="0.0520792" style="stroke:rgb(246,147,147);stroke-width:0.01" />
<line x1="-0.128397" y1="0.295982" x2="-0.032243" y2="0.295982" style="stroke:rgb(246,147,147);stroke-width:0.01" />
<line x1="0.104877" y1="0.158862" x2="-0.0749781" y2="0.338717" style="stroke:rgb(246,147,147);stroke-width:0.01" />
</g>
</svg>
