<svg xmlns="http://www.w3.org/2000/svg" viewBox="-1.5 -1.5 3 3">
<path d="M0.182352 -0.320449 L0.189954 -0.317602 L0.185855 -0.306656 L0.185879 -0.306560 L0.185763 -0.306410 L0.158959 -0.234831 L0.146157 -0.118489 L0.075603 -0.082688 L0.286039 0.398242 L-0.630098 0.799108 L-0.676334 0.693440 L-0.290129 0.102895 z " fill="rgb(245,195,195)" />
<path d="M-0.791674 -0.306560 L0.208326 -0.306560 L0.208326 0.693440 L-0.791674 0.693440  z" fill="none" stroke="rgb(128,128,128)" stroke-width="0.01" />
<line x1="0.182352" y1="-0.320449" x2="0.189954" y2="-0.317602" style="stroke:rgb(246,147,147);stroke-width:0.01" />
<line x1="0.030933" y1="-0.184777" x2="0.286039" y2="0.398242" style="stroke:rgb(246,147,147);stroke-width:0.01" />
<line x1="0.030933" y1="-0.184777" x2="0.146157" y2="-0.118489" style="stroke:rgb(246,147,147);stroke-width:0.01" />
<line x1="0.182352" y1="-0.320449" x2="0.185879" y2="-0.30656" style="stroke:rgb(246,147,147);stroke-width:0.01" />
<line x1="-0.0233911" y1="-0.136103" x2="0.0793388" y2="0.485633" style="stroke:rgb(246,147,147);stroke-width:0.01" />
<line x1="-0.0233911" y1="-0.136103" x2="0.108175" y2="-0.0992161" style="stroke:rgb(246,147,147);stroke-width:0.01" />
<line x1="0.166851" y1="-0.30656" x2="0.185879" y2="-0.30656" style="stroke:rgb(246,147,147);stroke-width:0.01" />
<line x1="-0.615516" y1="0.600444" x2="-0.591898" y2="0.69344" style="stroke:rgb(246,147,147);stroke-width:0.01" />
<line x1="0.166851" y1="-0.30656" x2="0.146157" y2="-0.118489" style="stroke:rgb(246,147,147);stroke-width:0.01" />
<line x1="-0.676334" y1="0.69344" x2="-0.630098" y2="0.799108" style="stroke:rgb(246,147,147);stroke-width:0.01" />
<line x1="0.189954" y1="-0.317602" x2="0.108175" y2="-0.0992161" style="stroke:rgb(246,147,147);stroke-width:0.01" />
<line x1="-0.290129" y1="0.102895" x2="-0.676334" y2="0.69344" style="stroke:rgb(246,147,147);stroke-width:0.01" />
<line x1="0.185879" y1="-0.30656" x2="-0.591898" y2="0.69344" style="stroke:rgb(246,147,147);stroke-width:0.01" />
<line x1="0.182352" y1="-0.320449" x2="-0.290129" y2="0.102895" style="stroke:rgb(246,147,147);stroke-width:0.01" />
<line x1="0.146157" y1="-0.118489" x2="-0.290129" y2="0.102895" style="stroke:rgb(246,147,147);stroke-width:0.01" />
<line x1="0.0793388" y1="0.485633" x2="-0.615516" y2="0.600444" style="stroke:rgb(246,147,147);stroke-width:0.01" />
<line x1="0.286039" y1="0.398242" x2="-0.630098" y2="0.799108" style="stroke:rgb(246,147,147);stroke-width:0.01" />
<line x1="-0.676334" y1="0.69344" x2="-0.591898" y2="0.69344" style="stroke:rgb(246,147,147);stroke-width:0.01" />
</svg>
