<svg xmlns="http://www.w3.org/2000/svg" viewBox="-1.5 -1.5 3 3">
<g transform="scale(1, -1)">
<path d="M-0.213321 -0.340092 L-0.015106 -0.340092 L-0.015106 0.010741 L0.003593 0.006534 L0.002003 -0.003983 L0.002352 -0.004061 L0.000777 -0.014477 L0.001126 -0.014555 L-0.000433 -0.024871 L-0.000085 -0.024949 L-0.001629 -0.035164 L-0.001280 -0.035243 L-0.002809 -0.045357 L0.066877 -0.061036 L0.067975 -0.056158 L0.070291 -0.040836 L0.070647 -0.040864 L0.072198 -0.030599 L0.072554 -0.030627 L0.074121 -0.020261 L0.074477 -0.020289 L0.076059 -0.009823 L0.076415 -0.009851 L0.104194 0.173941 L-0.066958 0.345093 L-0.131773 0.293241 L-0.140904 0.252662 L-0.246254 0.120974 z " fill="rgb(245,195,195)" />
<path d="M-1.015106 -0.340092 L-0.015106 -0.340092 L-0.015106 0.659908 L-1.015106 0.659908  z" fill="none" stroke="rgb(128,128,128)" stroke-width="0.01" />
<line x1="0.0668774" y1="-0.0610361" x2="0.0679749" y2="-0.0561581" style="stroke:rgb(246,147,147);stroke-width:0.01" />
<line x1="-0.246254" y1="0.120974" x2="-0.0669583" y2="0.345093" style="stroke:rgb(246,147,147);stroke-width:0.01" />
<line x1="-0.186651" y1="0.049339" x2="-0.131773" y2="0.293241" style="stroke:rgb(246,147,147);stroke-width:0.01" />
<line x1="0.076415" y1="-0.00985088" x2="0.104194" y2="0.173941" style="stroke:rgb(246,147,147);stroke-width:0.01" />
<line x1="0.0744771" y1="-0.0202892" x2="0.103881" y2="0.174254" style="stroke:rgb(246,147,147);stroke-width:0.01" />
<line x1="0.0725543" y1="-0.0306269" x2="0.103568" y2="0.174567" style="stroke:rgb(246,147,147);stroke-width:0.01" />
<line x1="0.0706468" y1="-0.0408639" x2="0.103255" y2="0.17488" style="stroke:rgb(246,147,147);stroke-width:0.01" />
<line x1="0.0679749" y1="-0.0561581" x2="0.102942" y2="0.175193" style="stroke:rgb(246,147,147);stroke-width:0.01" />
<line x1="-0.00280904" y1="-0.0453567" x2="0.0400335" y2="0.238102" style="stroke:rgb(246,147,147);stroke-width:0.01" />
<line x1="-0.0016288" y1="-0.0351641" x2="0.0397205" y2="0.238414" style="stroke:rgb(246,147,147);stroke-width:0.01" />
<line x1="-0.000433339" y1="-0.0248709" x2="0.0394075" y2="0.238727" style="stroke:rgb(246,147,147);stroke-width:0.01" />
<line x1="0.000777329" y1="-0.0144771" x2="0.0390946" y2="0.23904" style="stroke:rgb(246,147,147);stroke-width:0.01" />
<line x1="0.00200321" y1="-0.00398258" x2="0.0387816" y2="0.239353" style="stroke:rgb(246,147,147);stroke-width:0.01" />
<line x1="-0.213321" y1="-0.340092" x2="-0.139436" y2="-0.329483" style="stroke:rgb(246,147,147);stroke-width:0.01" />
<line x1="-0.213721" y1="-0.329483" x2="-0.140543" y2="-0.318975" style="stroke:rgb(246,147,147);stroke-width:0.01" />
<line x1="-0.214115" y1="-0.318975" x2="-0.141644" y2="-0.308569" style="stroke:rgb(246,147,147);stroke-width:0.01" />
<line x1="0.0679749" y1="-0.0561581" x2="0.0874422" y2="0.190693" style="stroke:rgb(246,147,147);stroke-width:0.01" />
<line x1="-0.214501" y1="-0.308569" x2="-0.142737" y2="-0.298264" style="stroke:rgb(246,147,147);stroke-width:0.01" />
<line x1="-0.21488" y1="-0.298264" x2="-0.143823" y2="-0.288061" style="stroke:rgb(246,147,147);stroke-width:0.01" />
<line x1="-0.215609" y1="-0.288061" x2="-0.145259" y2="-0.27796" style="stroke:rgb(246,147,147);stroke-width:0.01" />
<line x1="-0.131773" y1="0.293241" x2="-0.0669583" y2="0.345093" style="stroke:rgb(246,147,147);stroke-width:0.01" />
<line x1="-0.213321" y1="-0.340092" x2="-0.0151065" y2="-0.340092" style="stroke:rgb(246,147,147);stroke-width:0.01" />
<line x1="-0.0151065" y1="-0.340092" x2="-0.0151065" y2="0.293241" style="stroke:rgb(246,147,147);stroke-width:0.01" />
<line x1="-0.213721" y1="-0.329483" x2="-0.139436" y2="-0.329483" style="stroke:rgb(246,147,147);stroke-width:0.01" />
<line x1="-0.214115" y1="-0.318975" x2="-0.140543" y2="-0.318975" style="stroke:rgb(246,147,147);stroke-width:0.01" />
<line x1="-0.214501" y1="-0.308569" x2="-0.141644" y2="-0.308569" style="stroke:rgb(246,147,147);stroke-width:0.01" />
<line x1="-0.21488" y1="-0.298264" x2="-0.142737" y2="-0.298264" style="stroke:rgb(246,147,147);stroke-width:0.01" />
<line x1="-0.215609" y1="-0.288061" x2="-0.143823" y2="-0.288061" style="stroke:rgb(246,147,147);stroke-width:0.01" />
<line x1="-0.213321" y1="-0.340092" x2="-0.246254" y2="0.120974" style="stroke:rgb(246,147,147);stroke-width:0.01" />
<line x1="-0.213721" y1="-0.329483" x2="-0.245926" y2="0.121384" style="stroke:rgb(246,147,147);stroke-width:0.01" />
<line x1="-0.214115" y1="-0.318975" x2="-0.245598" y2="0.121793" style="stroke:rgb(246,147,147);stroke-width:0.01" />
<line x1="-0.214501" y1="-0.308569" x2="-0.24527" y2="0.122203" style="stroke:rgb(246,147,147);stroke-width:0.01" />
<line x1="-0.21488" y1="-0.298264" x2="-0.244943" y2="0.122613" style="stroke:rgb(246,147,147);stroke-width:0.01" />
<line x1="-0.143823" y1="-0.288061" x2="-0.179041" y2="0.20499" style="stroke:rgb(246,147,147);stroke-width:0.01" />
<line x1="-0.142737" y1="-0.298264" x2="-0.178713" y2="0.2054" style="stroke:rgb(246,147,147);stroke-width:0.01" />
<line x1="-0.141644" y1="-0.308569" x2="-0.178385" y2="0.20581" style="stroke:rgb(246,147,147);stroke-width:0.01" />
<line x1="-0.140543" y1="-0.318975" x2="-0.178057" y2="0.20622" style="stroke:rgb(246,147,147);stroke-width:0.01" />
<line x1="-0.139436" y1="-0.329483" x2="-0.177729" y2="0.206629" style="stroke:rgb(246,147,147);stroke-width:0.01" />
<line x1="-0.145259" y1="-0.27796" x2="-0.209193" y2="0.167299" style="stroke:rgb(246,147,147);stroke-width:0.01" />
<line x1="-0.246254" y1="0.120974" x2="0.104194" y2="0.173941" style="stroke:rgb(246,147,147);stroke-width:0.01" />
<line x1="-0.245926" y1="0.121384" x2="0.103881" y2="0.174254" style="stroke:rgb(246,147,147);stroke-width:0.01" />
<line x1="-0.245598" y1="0.121793" x2="0.103568" y2="0.174567" style="stroke:rgb(246,147,147);stroke-width:0.01" />
<line x1="-0.24527" y1="0.122203" x2="0.103255" y2="0.17488" style="stroke:rgb(246,147,147);stroke-width:0.01" />
<line x1="-0.244943" y1="0.122613" x2="0.102942" y2="0.175193" style="stroke:rgb(246,147,147);stroke-width:0.01" />
<line x1="0.0687545" y1="-0.0510003" x2="-0.00280904" y2="-0.0453567" style="stroke:rgb(246,147,147);stroke-width:0.01" />
<line x1="0.0706468" y1="-0.0408639" x2="-0.0016288" y2="-0.0351641" style="stroke:rgb(246,147,147);stroke-width:0.01" />
<line x1="0.0725543" y1="-0.0306269" x2="-0.000433339" y2="-0.0248709" style="stroke:rgb(246,147,147);stroke-width:0.01" />
<line x1="0.0744771" y1="-0.0202892" x2="0.000777329" y2="-0.0144771" style="stroke:rgb(246,147,147);stroke-width:0.01" />
<line x1="-0.179041" y1="0.20499" x2="0.0400335" y2="0.238102" style="stroke:rgb(246,147,147);stroke-width:0.01" />
<line x1="-0.178713" y1="0.2054" x2="0.0397205" y2="0.238414" style="stroke:rgb(246,147,147);stroke-width:0.01" />
<line x1="-0.178385" y1="0.20581" x2="0.0394075" y2="0.238727" style="stroke:rgb(246,147,147);stroke-width:0.01" />
<line x1="-0.178057" y1="0.20622" x2="0.0390946" y2="0.23904" style="stroke:rgb(246,147,147);stroke-width:0.01" />
<line x1="-0.177729" y1="0.206629" x2="0.0387816" y2="0.239353" style="stroke:rgb(246,147,147);stroke-width:0.01" />
<line x1="0.076415" y1="-0.00985088" x2="0.00200321" y2="-0.00398258" style="stroke:rgb(246,147,147);stroke-width:0.01" />
<line x1="-0.209193" y1="0.167299" x2="0.0874422" y2="0.190693" style="stroke:rgb(246,147,147);stroke-width:0.01" />
<line x1="0.0668774" y1="-0.0610361" x2="-0.00280904" y2="-0.0453567" style="stroke:rgb(246,147,147);stroke-width:0.01" />
<line x1="0.0687545" y1="-0.0510003" x2="-0.0016288" y2="-0.0351641" style="stroke:rgb(246,147,147);stroke-width:0.01" />
<line x1="0.0706468" y1="-0.0408639" x2="-0.000433339" y2="-0.0248709" style="stroke:rgb(246,147,147);stroke-width:0.01" />
<line x1="0.0725543" y1="-0.0306269" x2="0.000777329" y2="-0.0144771" style="stroke:rgb(246,147,147);stroke-width:0.01" />
<line x1="0.0744771" y1="-0.0202892" x2="0.00200321" y2="-0.00398258" style="stroke:rgb(246,147,147);stroke-width:0.01" />
<line x1="0.076415" y1="-0.00985088" x2="-0.186651" y2="0.049339" style="stroke:rgb(246,147,147);stroke-width:0.01" />
<line x1="-0.131773" y1="0.293241" x2="-0.0151065" y2="0.293241" style="stroke:rgb(246,147,147);stroke-width:0.01" />
<line x1="0.104194" y1="0.173941" x2="-0.0669583" y2="0.345093" style="stroke:rgb(246,147,147);stroke-width:0.01" />
</g>
</svg>
