<svg xmlns="http://www.w3.org/2000/svg" viewBox="-1.5 -1.5 3 3">
<g transform="scale(1, -1)">
<path d="M-0.444751 -0.549724 L-0.113260 -0.514733 L0.514733 -0.113260 L0.444751 0.549724 L0.113260 0.514733 L-0.514733 0.113260 z " fill="rgb(245,195,195)" />
<path d="M-889502762430900736.000000 -1099447513812212224.000000 L-889502762430900736.000000 -1099447513812212224.000000 L-889502762430900736.000000 -1099447513812212224.000000 L-889502762430900736.000000 -1099447513812212224.000000  z" fill="none" stroke="rgb(128,128,128)" stroke-width="0.01" />
<line x1="-0.11326" y1="-0.514733" x2="0.228545" y2="0.0576427" style="stroke:rgb(246,147,147);stroke-width:0.01" />
<line x1="-0.228545" y1="-0.0576427" x2="0.11326" y2="0.514733" style="stroke:rgb(246,147,147);stroke-width:0.01" />
<line x1="-0.444751" y1="-0.549724" x2="-0.514733" y2="0.11326" style="stroke:rgb(246,147,147);stroke-width:0.01" />
<line x1="0.514733" y1="-0.11326" x2="0.444751" y2="0.549724" style="stroke:rgb(246,147,147);stroke-width:0.01" />
<line x1="-0.11326" y1="-0.514733" x2="0.514733" y2="-0.11326" style="stroke:rgb(246,147,147);stroke-width:0.01" />
<line x1="-0.514733" y1="0.11326" x2="0.11326" y2="0.514733" style="stroke:rgb(246,147,147);stroke-width:0.01" />
<line x1="-0.444751" y1="-0.549724" x2="-0.11326" y2="-0.514733" style="stroke:rgb(246,147,147);stroke-width:0.01" />
<line x1="0.11326" y1="0.514733" x2="0.444751" y2="0.549724" style="stroke:rgb(246,147,147);stroke-width:0.01" />
<line x1="-0.228545" y1="-0.0576427" x2="-0.514733" y2="0.11326" style="stroke:rgb(246,147,147);stroke-width:0.01" />
<line x1="0.514733" y1="-0.11326" x2="0.228545" y2="0.0576427" style="stroke:rgb(246,147,147);stroke-width:0.01" />
</g>
</svg>
