<svg xmlns="http://www.w3.org/2000/svg" viewBox="-1.5 -1.5 3 3">
<g transform="scale(1, -1)">
<path d="M889502762430900736.000000 1099447513812212224.000000 L889502762430900736.000000 1099447513812212224.000000 L889502762430900736.000000 1099447513812212224.000000 L889502762430900736.000000 1099447513812212224.000000 L889502762430900736.000000 1099447513812212224.000000 L889502762430900736.000000 1099447513812212224.000000 z " fill="rgb(245,195,195)" />
<path d="M0.000000 0.000000 L1.000000 0.000000 L1.000000 1.000000 L0.000000 1.000000  z" fill="none" stroke="rgb(128,128,128)" stroke-width="0.01" />
<line x1="8.89503e+17" y1="1.09945e+18" x2="8.89503e+17" y2="1.09945e+18" style="stroke:rgb(246,147,147);stroke-width:0.01" />
<line x1="8.89503e+17" y1="1.09945e+18" x2="8.89503e+17" y2="1.09945e+18" style="stroke:rgb(246,147,147);stroke-width:0.01" />
<line x1="8.89503e+17" y1="1.09945e+18" x2="8.89503e+17" y2="1.09945e+18" style="stroke:rgb(246,147,147);stroke-width:0.01" />
<line x1="8.89503e+17" y1="1.09945e+18" x2="8.89503e+17" y2="1.09945e+18" style="stroke:rgb(246,147,147);stroke-width:0.01" />
<line x1="8.89503e+17" y1="1.09945e+18" x2="8.89503e+17" y2="1.09945e+18" style="stroke:rgb(246,147,147);stroke-width:0.01" />
<line x1="8.89503e+17" y1="1.09945e+18" x2="8.89503e+17" y2="1.09945e+18" style="stroke:rgb(246,147,147);stroke-width:0.01" />
<line x1="8.89503e+17" y1="1.09945e+18" x2="8.89503e+17" y2="1.09945e+18" style="stroke:rgb(246,147,147);stroke-width:0.01" />
<line x1="8.89503e+17" y1="1.09945e+18" x2="8.89503e+17" y2="1.09945e+18" style="stroke:rgb(246,147,147);stroke-width:0.01" />
<line x1="8.89503e+17" y1="1.09945e+18" x2="8.89503e+17" y2="1.09945e+18" style="stroke:rgb(246,147,147);stroke-width:0.01" />
<line x1="8.89503e+17" y1="1.09945e+18" x2="8.89503e+17" y2="1.09945e+18" style="stroke:rgb(246,147,147);stroke-width:0.01" />
</g>
</svg>
