<svg xmlns="http://www.w3.org/2000/svg" viewBox="-1.5 -1.5 3 3">
<g transform="scale(1, -1)">
<path d="M-0.445739 -0.117909 L0.019910 -0.117909 L0.046937 -0.090882 L0.046937 0.090882 L0.345470 0.090882 L0.345470 0.117909 L0.046937 0.117909 L0.019910 0.090882 L0.019910 -0.090882 L-0.445739 -0.090882 z " fill="rgb(245,195,195)" />
<path d="M-0.445739 -0.117909 L0.554261 -0.117909 L0.554261 0.882091 L-0.445739 0.882091  z" fill="none" stroke="rgb(128,128,128)" stroke-width="0.01" />
<line x1="0.0199097" y1="-0.117909" x2="0.0469367" y2="-0.0908821" style="stroke:rgb(246,147,147);stroke-width:0.01" />
<line x1="0.0199097" y1="0.0908821" x2="0.0469367" y2="0.117909" style="stroke:rgb(246,147,147);stroke-width:0.01" />
<line x1="-0.445739" y1="-0.117909" x2="0.0199097" y2="-0.117909" style="stroke:rgb(246,147,147);stroke-width:0.01" />
<line x1="-0.445739" y1="-0.117909" x2="-0.445739" y2="-0.0908821" style="stroke:rgb(246,147,147);stroke-width:0.01" />
<line x1="0.0199097" y1="-0.117909" x2="0.0199097" y2="0.0908821" style="stroke:rgb(246,147,147);stroke-width:0.01" />
<line x1="0.0469367" y1="-0.0908821" x2="0.0469367" y2="0.117909" style="stroke:rgb(246,147,147);stroke-width:0.01" />
<line x1="0.34547" y1="0.0908821" x2="0.34547" y2="0.117909" style="stroke:rgb(246,147,147);stroke-width:0.01" />
<line x1="-0.445739" y1="-0.0908821" x2="0.0469367" y2="-0.0908821" style="stroke:rgb(246,147,147);stroke-width:0.01" />
<line x1="0.0199097" y1="0.0908821" x2="0.34547" y2="0.0908821" style="stroke:rgb(246,147,147);stroke-width:0.01" />
<line x1="0.0469367" y1="0.117909" x2="0.34547" y2="0.117909" style="stroke:rgb(246,147,147);stroke-width:0.01" />
</g>
</svg>
