<svg xmlns="http://www.w3.org/2000/svg" viewBox="-1.5 -1.5 3 3">
<g transform="scale(1, -1)">
<path d="M0.000000 0.000000 L0.465649 0.000000 L0.492676 0.027027 L0.492676 0.208791 L0.791209 0.208791 L0.791209 0.235818 L0.492676 0.235818 L0.465649 0.208791 L0.465649 0.027027 L0.000000 0.027027 z " fill="rgb(245,195,195)" />
<path d="M0.000000 0.000000 L1.000000 0.000000 L1.000000 1.000000 L0.000000 1.000000  z" fill="none" stroke="rgb(128,128,128)" stroke-width="0.01" />
<line x1="0.465649" y1="0" x2="0.492676" y2="0.027027" style="stroke:rgb(246,147,147);stroke-width:0.01" />
<line x1="0.465649" y1="0.208791" x2="0.492676" y2="0.235818" style="stroke:rgb(246,147,147);stroke-width:0.01" />
<line x1="0" y1="0" x2="0.465649" y2="0" style="stroke:rgb(246,147,147);stroke-width:0.01" />
<line x1="0" y1="0" x2="0" y2="0.027027" style="stroke:rgb(246,147,147);stroke-width:0.01" />
<line x1="0.465649" y1="0" x2="0.465649" y2="0.208791" style="stroke:rgb(246,147,147);stroke-width:0.01" />
<line x1="0.492676" y1="0.027027" x2="0.492676" y2="0.235818" style="stroke:rgb(246,147,147);stroke-width:0.01" />
<line x1="0.791209" y1="0.208791" x2="0.791209" y2="0.235818" style="stroke:rgb(246,147,147);stroke-width:0.01" />
<line x1="0" y1="0.027027" x2="0.492676" y2="0.027027" style="stroke:rgb(246,147,147);stroke-width:0.01" />
<line x1="0.465649" y1="0.208791" x2="0.791209" y2="0.208791" style="stroke:rgb(246,147,147);stroke-width:0.01" />
<line x1="0.492676" y1="0.235818" x2="0.791209" y2="0.235818" style="stroke:rgb(246,147,147);stroke-width:0.01" />
</g>
</svg>
