<svg xmlns="http://www.w3.org/2000/svg" viewBox="-1.5 -1.5 3 3">
<g transform="scale(1, -1)">
<path d="M0.115315 -0.272329 L0.318719 -0.060222 L0.368420 -0.047966 L0.428138 0.053879 L-0.114651 0.464279 L-0.152210 0.465278 L-0.158440 0.231081 L-0.342202 0.128259 L-0.169391 -0.180587 L-0.075708 -0.157485 L-0.085353 -0.197927 L-0.063645 -0.203105 L-0.068994 -0.223156 z " fill="rgb(245,195,195)" />
<path d="M-0.130798 -0.582060 L0.869202 -0.582060 L0.869202 0.417940 L-0.130798 0.417940  z" fill="none" stroke="rgb(128,128,128)" stroke-width="0.01" />
<line x1="0.36842" y1="-0.0479658" x2="0.428138" y2="0.0538786" style="stroke:rgb(246,147,147);stroke-width:0.01" />
<line x1="-0.169391" y1="-0.180587" x2="-0.15221" y2="0.465278" style="stroke:rgb(246,147,147);stroke-width:0.01" />
<line x1="-0.0689944" y1="-0.223156" x2="0.0266649" y2="0.135396" style="stroke:rgb(246,147,147);stroke-width:0.01" />
<line x1="-0.0853531" y1="-0.197927" x2="0.0439771" y2="0.344341" style="stroke:rgb(246,147,147);stroke-width:0.01" />
<line x1="0.115315" y1="-0.272329" x2="0.428138" y2="0.0538786" style="stroke:rgb(246,147,147);stroke-width:0.01" />
<line x1="-0.169391" y1="-0.180587" x2="-0.342202" y2="0.128259" style="stroke:rgb(246,147,147);stroke-width:0.01" />
<line x1="0.136031" y1="-0.250727" x2="0.0266649" y2="0.135396" style="stroke:rgb(246,147,147);stroke-width:0.01" />
<line x1="0.115315" y1="-0.272329" x2="-0.114651" y2="0.464279" style="stroke:rgb(246,147,147);stroke-width:0.01" />
<line x1="0.36842" y1="-0.0479658" x2="0.317384" y2="0.137619" style="stroke:rgb(246,147,147);stroke-width:0.01" />
<line x1="0.115315" y1="-0.272329" x2="-0.0689944" y2="-0.223156" style="stroke:rgb(246,147,147);stroke-width:0.01" />
<line x1="0.136031" y1="-0.250727" x2="-0.0853531" y2="-0.197927" style="stroke:rgb(246,147,147);stroke-width:0.01" />
<line x1="-0.169391" y1="-0.180587" x2="0.36842" y2="-0.0479658" style="stroke:rgb(246,147,147);stroke-width:0.01" />
<line x1="-0.342202" y1="0.128259" x2="0.0439771" y2="0.344341" style="stroke:rgb(246,147,147);stroke-width:0.01" />
<line x1="0.428138" y1="0.0538786" x2="-0.114651" y2="0.464279" style="stroke:rgb(246,147,147);stroke-width:0.01" />
<line x1="0.0266649" y1="0.135396" x2="0.317384" y2="0.137619" style="stroke:rgb(246,147,147);stroke-width:0.01" />
<line x1="-0.114651" y1="0.464279" x2="-0.15221" y2="0.465278" style="stroke:rgb(246,147,147);stroke-width:0.01" />
</g>
</svg>
