<svg xmlns="http://www.w3.org/2000/svg" viewBox="-1.5 -1.5 3 3">
<g transform="scale(1, -1)">
<path d="M0.246113 0.309731 L0.449517 0.521838 L0.499218 0.534094 L0.558935 0.635938 L0.016147 1.046339 L-0.021412 1.047338 L-0.027642 0.813141 L-0.211404 0.710319 L-0.038593 0.401473 L0.055090 0.424575 L0.045445 0.384132 L0.067153 0.378955 L0.061803 0.358903 z " fill="rgb(245,195,195)" />
<path d="M0.000000 0.000000 L1.000000 0.000000 L1.000000 1.000000 L0.000000 1.000000  z" fill="none" stroke="rgb(128,128,128)" stroke-width="0.01" />
<line x1="0.499218" y1="0.534094" x2="0.558935" y2="0.635938" style="stroke:rgb(246,147,147);stroke-width:0.01" />
<line x1="-0.038593" y1="0.401473" x2="-0.0214118" y2="1.04734" style="stroke:rgb(246,147,147);stroke-width:0.01" />
<line x1="0.0618034" y1="0.358903" x2="0.157463" y2="0.717456" style="stroke:rgb(246,147,147);stroke-width:0.01" />
<line x1="0.0454447" y1="0.384132" x2="0.174775" y2="0.926401" style="stroke:rgb(246,147,147);stroke-width:0.01" />
<line x1="0.246113" y1="0.309731" x2="0.558935" y2="0.635938" style="stroke:rgb(246,147,147);stroke-width:0.01" />
<line x1="-0.038593" y1="0.401473" x2="-0.211404" y2="0.710319" style="stroke:rgb(246,147,147);stroke-width:0.01" />
<line x1="0.266829" y1="0.331333" x2="0.157463" y2="0.717456" style="stroke:rgb(246,147,147);stroke-width:0.01" />
<line x1="0.246113" y1="0.309731" x2="0.0161473" y2="1.04634" style="stroke:rgb(246,147,147);stroke-width:0.01" />
<line x1="0.499218" y1="0.534094" x2="0.448182" y2="0.719679" style="stroke:rgb(246,147,147);stroke-width:0.01" />
<line x1="0.246113" y1="0.309731" x2="0.0618034" y2="0.358903" style="stroke:rgb(246,147,147);stroke-width:0.01" />
<line x1="0.266829" y1="0.331333" x2="0.0454447" y2="0.384132" style="stroke:rgb(246,147,147);stroke-width:0.01" />
<line x1="-0.038593" y1="0.401473" x2="0.499218" y2="0.534094" style="stroke:rgb(246,147,147);stroke-width:0.01" />
<line x1="-0.211404" y1="0.710319" x2="0.174775" y2="0.926401" style="stroke:rgb(246,147,147);stroke-width:0.01" />
<line x1="0.558935" y1="0.635938" x2="0.0161473" y2="1.04634" style="stroke:rgb(246,147,147);stroke-width:0.01" />
<line x1="0.157463" y1="0.717456" x2="0.448182" y2="0.719679" style="stroke:rgb(246,147,147);stroke-width:0.01" />
<line x1="0.0161473" y1="1.04634" x2="-0.0214118" y2="1.04734" style="stroke:rgb(246,147,147);stroke-width:0.01" />
</g>
</svg>
