<svg xmlns="http://www.w3.org/2000/svg" viewBox="-1.5 -1.5 3 3">
<g transform="scale(1, -1)">
<path d="M0.128205 0.000000 L0.230769 0.042735 L0.260684 0.115385 L0.333333 0.085470 L0.435897 0.128205 L0.393162 0.230769 L0.320513 0.260684 L0.350427 0.333333 L0.307692 0.435897 L0.205128 0.393162 L0.175214 0.320513 L0.102564 0.350427 L0.000000 0.307692 L0.042735 0.205128 L0.115385 0.175214 L0.085470 0.102564 z " fill="rgb(245,195,195)" />
<path d="M0.000000 0.000000 L1.000000 0.000000 L1.000000 1.000000 L0.000000 1.000000  z" fill="none" stroke="rgb(128,128,128)" stroke-width="0.01" />
<line x1="0.230769" y1="0.042735" x2="0.350427" y2="0.333333" style="stroke:rgb(246,147,147);stroke-width:0.01" />
<line x1="0.128205" y1="0" x2="0.230769" y2="0.042735" style="stroke:rgb(246,147,147);stroke-width:0.01" />
<line x1="0.333333" y1="0.0854701" x2="0.435897" y2="0.128205" style="stroke:rgb(246,147,147);stroke-width:0.01" />
<line x1="0.128205" y1="0" x2="0.15812" y2="0.0726496" style="stroke:rgb(246,147,147);stroke-width:0.01" />
<line x1="0.277778" y1="0.363248" x2="0.307692" y2="0.435897" style="stroke:rgb(246,147,147);stroke-width:0.01" />
<line x1="0.0854701" y1="0.102564" x2="0.205128" y2="0.393162" style="stroke:rgb(246,147,147);stroke-width:0.01" />
<line x1="0.128205" y1="0" x2="0.0854701" y2="0.102564" style="stroke:rgb(246,147,147);stroke-width:0.01" />
<line x1="0.042735" y1="0.205128" x2="0" y2="0.307692" style="stroke:rgb(246,147,147);stroke-width:0.01" />
<line x1="0.0854701" y1="0.102564" x2="0.393162" y2="0.230769" style="stroke:rgb(246,147,147);stroke-width:0.01" />
<line x1="0.230769" y1="0.042735" x2="0.102564" y2="0.350427" style="stroke:rgb(246,147,147);stroke-width:0.01" />
<line x1="0.260684" y1="0.115385" x2="0.175214" y2="0.320513" style="stroke:rgb(246,147,147);stroke-width:0.01" />
<line x1="0.230769" y1="0.042735" x2="0.0854701" y2="0.102564" style="stroke:rgb(246,147,147);stroke-width:0.01" />
<line x1="0.333333" y1="0.0854701" x2="0.205128" y2="0.393162" style="stroke:rgb(246,147,147);stroke-width:0.01" />
<line x1="0.042735" y1="0.205128" x2="0.350427" y2="0.333333" style="stroke:rgb(246,147,147);stroke-width:0.01" />
<line x1="0.435897" y1="0.128205" x2="0.393162" y2="0.230769" style="stroke:rgb(246,147,147);stroke-width:0.01" />
<line x1="0.350427" y1="0.333333" x2="0.307692" y2="0.435897" style="stroke:rgb(246,147,147);stroke-width:0.01" />
<line x1="0.333333" y1="0.0854701" x2="0.042735" y2="0.205128" style="stroke:rgb(246,147,147);stroke-width:0.01" />
<line x1="0" y1="0.307692" x2="0.102564" y2="0.350427" style="stroke:rgb(246,147,147);stroke-width:0.01" />
<line x1="0.205128" y1="0.393162" x2="0.307692" y2="0.435897" style="stroke:rgb(246,147,147);stroke-width:0.01" />
<line x1="0.393162" y1="0.230769" x2="0.102564" y2="0.350427" style="stroke:rgb(246,147,147);stroke-width:0.01" />
<line x1="0.350427" y1="0.333333" x2="0.205128" y2="0.393162" style="stroke:rgb(246,147,147);stroke-width:0.01" />
</g>
</svg>
