<svg xmlns="http://www.w3.org/2000/svg" viewBox="-1.5 -1.5 3 3">
<g transform="scale(1, -1)">
<path d="M-0.089744 -0.217949 L0.012821 -0.175214 L0.042735 -0.102564 L0.115385 -0.132479 L0.217949 -0.089744 L0.175214 0.012821 L0.102564 0.042735 L0.132479 0.115385 L0.089744 0.217949 L-0.012821 0.175214 L-0.042735 0.102564 L-0.115385 0.132479 L-0.217949 0.089744 L-0.175214 -0.012821 L-0.102564 -0.042735 L-0.132479 -0.115385 z " fill="rgb(245,195,195)" />
<path d="M-0.217949 -0.217949 L0.782051 -0.217949 L0.782051 0.782051 L-0.217949 0.782051  z" fill="none" stroke="rgb(128,128,128)" stroke-width="0.01" />
<line x1="0.0128205" y1="-0.175214" x2="0.132479" y2="0.115385" style="stroke:rgb(246,147,147);stroke-width:0.01" />
<line x1="-0.0897436" y1="-0.217949" x2="0.0128205" y2="-0.175214" style="stroke:rgb(246,147,147);stroke-width:0.01" />
<line x1="0.115385" y1="-0.132479" x2="0.217949" y2="-0.0897436" style="stroke:rgb(246,147,147);stroke-width:0.01" />
<line x1="-0.0897436" y1="-0.217949" x2="-0.0598291" y2="-0.145299" style="stroke:rgb(246,147,147);stroke-width:0.01" />
<line x1="0.0598291" y1="0.145299" x2="0.0897436" y2="0.217949" style="stroke:rgb(246,147,147);stroke-width:0.01" />
<line x1="-0.132479" y1="-0.115385" x2="-0.0128205" y2="0.175214" style="stroke:rgb(246,147,147);stroke-width:0.01" />
<line x1="-0.0897436" y1="-0.217949" x2="-0.132479" y2="-0.115385" style="stroke:rgb(246,147,147);stroke-width:0.01" />
<line x1="-0.175214" y1="-0.0128205" x2="-0.217949" y2="0.0897436" style="stroke:rgb(246,147,147);stroke-width:0.01" />
<line x1="-0.132479" y1="-0.115385" x2="0.175214" y2="0.0128205" style="stroke:rgb(246,147,147);stroke-width:0.01" />
<line x1="0.0128205" y1="-0.175214" x2="-0.115385" y2="0.132479" style="stroke:rgb(246,147,147);stroke-width:0.01" />
<line x1="0.042735" y1="-0.102564" x2="-0.042735" y2="0.102564" style="stroke:rgb(246,147,147);stroke-width:0.01" />
<line x1="0.0128205" y1="-0.175214" x2="-0.132479" y2="-0.115385" style="stroke:rgb(246,147,147);stroke-width:0.01" />
<line x1="0.115385" y1="-0.132479" x2="-0.0128205" y2="0.175214" style="stroke:rgb(246,147,147);stroke-width:0.01" />
<line x1="-0.175214" y1="-0.0128205" x2="0.132479" y2="0.115385" style="stroke:rgb(246,147,147);stroke-width:0.01" />
<line x1="0.217949" y1="-0.0897436" x2="0.175214" y2="0.0128205" style="stroke:rgb(246,147,147);stroke-width:0.01" />
<line x1="0.132479" y1="0.115385" x2="0.0897436" y2="0.217949" style="stroke:rgb(246,147,147);stroke-width:0.01" />
<line x1="0.115385" y1="-0.132479" x2="-0.175214" y2="-0.0128205" style="stroke:rgb(246,147,147);stroke-width:0.01" />
<line x1="-0.217949" y1="0.0897436" x2="-0.115385" y2="0.132479" style="stroke:rgb(246,147,147);stroke-width:0.01" />
<line x1="-0.0128205" y1="0.175214" x2="0.0897436" y2="0.217949" style="stroke:rgb(246,147,147);stroke-width:0.01" />
<line x1="0.175214" y1="0.0128205" x2="-0.115385" y2="0.132479" style="stroke:rgb(246,147,147);stroke-width:0.01" />
<line x1="0.132479" y1="0.115385" x2="-0.0128205" y2="0.175214" style="stroke:rgb(246,147,147);stroke-width:0.01" />
</g>
</svg>
