<svg xmlns="http://www.w3.org/2000/svg" viewBox="-1.5 -1.5 3 3">
<g transform="scale(1, -1)">
<path d="M-61821970731448372779586420736.000000 -0.357143 L-61821970731448372779586420736.000000 -0.357143 L-61821970731448372779586420736.000000 -0.142857 L-61821970731448372779586420736.000000 0.071429 L-61821970731448372779586420736.000000 0.214286 L-61821970731448372779586420736.000000 0.214286 L-61821970731448372779586420736.000000 0.357143 L-61821970731448372779586420736.000000 0.357143 L-61821970731448372779586420736.000000 0.142857 L-61821970731448372779586420736.000000 -0.071429 L-61821970731448372779586420736.000000 -0.214286 L-61821970731448372779586420736.000000 -0.214286 z " fill="rgb(245,195,195)" />
<path d="M0.000000 0.000000 L1.000000 0.000000 L1.000000 1.000000 L0.000000 1.000000  z" fill="none" stroke="rgb(128,128,128)" stroke-width="0.01" />
<line x1="-6.1822e+28" y1="-0.357143" x2="-6.1822e+28" y2="-0.0714286" style="stroke:rgb(246,147,147);stroke-width:0.01" />
<line x1="-6.1822e+28" y1="0.0714286" x2="-6.1822e+28" y2="0.357143" style="stroke:rgb(246,147,147);stroke-width:0.01" />
<line x1="-6.1822e+28" y1="-0.214286" x2="-6.1822e+28" y2="0.0714286" style="stroke:rgb(246,147,147);stroke-width:0.01" />
<line x1="-6.1822e+28" y1="-0.0714286" x2="-6.1822e+28" y2="0.214286" style="stroke:rgb(246,147,147);stroke-width:0.01" />
<line x1="-6.1822e+28" y1="-0.357143" x2="-6.1822e+28" y2="0.0384615" style="stroke:rgb(246,147,147);stroke-width:0.01" />
<line x1="-6.1822e+28" y1="-0.0384615" x2="-6.1822e+28" y2="0.357143" style="stroke:rgb(246,147,147);stroke-width:0.01" />
<line x1="-6.1822e+28" y1="-0.214286" x2="-6.1822e+28" y2="-0.0714286" style="stroke:rgb(246,147,147);stroke-width:0.01" />
<line x1="-6.1822e+28" y1="0.0714286" x2="-6.1822e+28" y2="0.357143" style="stroke:rgb(246,147,147);stroke-width:0.01" />
<line x1="-6.1822e+28" y1="-0.214286" x2="-6.1822e+28" y2="0.357143" style="stroke:rgb(246,147,147);stroke-width:0.01" />
<line x1="-6.1822e+28" y1="-0.357143" x2="-6.1822e+28" y2="0.214286" style="stroke:rgb(246,147,147);stroke-width:0.01" />
<line x1="-6.1822e+28" y1="-0.357143" x2="-6.1822e+28" y2="-0.0714286" style="stroke:rgb(246,147,147);stroke-width:0.01" />
<line x1="-6.1822e+28" y1="0.0714286" x2="-6.1822e+28" y2="0.214286" style="stroke:rgb(246,147,147);stroke-width:0.01" />
<line x1="-6.1822e+28" y1="-0.357143" x2="-6.1822e+28" y2="-0.357143" style="stroke:rgb(246,147,147);stroke-width:0.01" />
<line x1="-6.1822e+28" y1="-0.214286" x2="-6.1822e+28" y2="-0.214286" style="stroke:rgb(246,147,147);stroke-width:0.01" />
<line x1="-6.1822e+28" y1="-0.0714286" x2="-6.1822e+28" y2="-0.0714286" style="stroke:rgb(246,147,147);stroke-width:0.01" />
<line x1="-6.1822e+28" y1="0.0714286" x2="-6.1822e+28" y2="0.0714286" style="stroke:rgb(246,147,147);stroke-width:0.01" />
<line x1="-6.1822e+28" y1="0.214286" x2="-6.1822e+28" y2="0.214286" style="stroke:rgb(246,147,147);stroke-width:0.01" />
<line x1="-6.1822e+28" y1="0.357143" x2="-6.1822e+28" y2="0.357143" style="stroke:rgb(246,147,147);stroke-width:0.01" />
<line x1="-6.1822e+28" y1="-0.0934066" x2="-6.1822e+28" y2="0.0714286" style="stroke:rgb(246,147,147);stroke-width:0.01" />
<line x1="-6.1822e+28" y1="-0.0714286" x2="-6.1822e+28" y2="0.0934066" style="stroke:rgb(246,147,147);stroke-width:0.01" />
<line x1="-6.1822e+28" y1="-0.214286" x2="-6.1822e+28" y2="-0.0714286" style="stroke:rgb(246,147,147);stroke-width:0.01" />
<line x1="-6.1822e+28" y1="0.0714286" x2="-6.1822e+28" y2="0.214286" style="stroke:rgb(246,147,147);stroke-width:0.01" />
<line x1="-6.1822e+28" y1="-0.357143" x2="-6.1822e+28" y2="0.0714286" style="stroke:rgb(246,147,147);stroke-width:0.01" />
<line x1="-6.1822e+28" y1="-0.0714286" x2="-6.1822e+28" y2="0.357143" style="stroke:rgb(246,147,147);stroke-width:0.01" />
</g>
</svg>
