<svg xmlns="http://www.w3.org/2000/svg" viewBox="-1.5 -1.5 3 3">
<g transform="scale(1, -1)">
<path d="M0.690712 0.474014 L0.697845 0.581197 L0.697133 0.581244 L0.706501 0.737693 L0.705623 0.737748 L0.711773 0.837688 L0.365844 0.858977 L0.366011 0.862224 L0.039744 0.879046 L0.019240 0.516460 z " fill="rgb(245,195,195)" />
<path d="M0.000000 0.000000 L1.000000 0.000000 L1.000000 1.000000 L0.000000 1.000000  z" fill="none" stroke="rgb(128,128,128)" stroke-width="0.01" />
<line x1="0.641202" y1="0.477144" x2="0.692881" y2="0.581527" style="stroke:rgb(246,147,147);stroke-width:0.01" />
<line x1="0.442325" y1="0.534776" x2="0.544722" y2="0.747785" style="stroke:rgb(246,147,147);stroke-width:0.01" />
<line x1="0.442736" y1="0.535087" x2="0.547516" y2="0.747611" style="stroke:rgb(246,147,147);stroke-width:0.01" />
<line x1="0.690712" y1="0.474014" x2="0.697845" y2="0.581197" style="stroke:rgb(246,147,147);stroke-width:0.01" />
<line x1="0.689397" y1="0.474097" x2="0.706501" y2="0.737693" style="stroke:rgb(246,147,147);stroke-width:0.01" />
<line x1="0.689397" y1="0.474097" x2="0.711773" y2="0.837688" style="stroke:rgb(246,147,147);stroke-width:0.01" />
<line x1="0.690712" y1="0.474014" x2="0.706501" y2="0.737693" style="stroke:rgb(246,147,147);stroke-width:0.01" />
<line x1="0.347115" y1="0.495734" x2="0.366821" y2="0.758883" style="stroke:rgb(246,147,147);stroke-width:0.01" />
<line x1="0.347115" y1="0.495734" x2="0.366011" y2="0.862224" style="stroke:rgb(246,147,147);stroke-width:0.01" />
<line x1="0.359371" y1="0.609596" x2="0.366821" y2="0.758883" style="stroke:rgb(246,147,147);stroke-width:0.01" />
<line x1="0.0192403" y1="0.51646" x2="0.0397445" y2="0.879046" style="stroke:rgb(246,147,147);stroke-width:0.01" />
<line x1="0.0192403" y1="0.51646" x2="0.0326531" y2="0.70839" style="stroke:rgb(246,147,147);stroke-width:0.01" />
<line x1="0.421556" y1="0.519049" x2="0.419442" y2="0.530765" style="stroke:rgb(246,147,147);stroke-width:0.01" />
<line x1="0.421556" y1="0.519049" x2="0.442736" y2="0.535087" style="stroke:rgb(246,147,147);stroke-width:0.01" />
<line x1="0.524376" y1="0.484529" x2="0.692881" y2="0.581527" style="stroke:rgb(246,147,147);stroke-width:0.01" />
<line x1="0.567642" y1="0.679425" x2="0.544722" y2="0.747785" style="stroke:rgb(246,147,147);stroke-width:0.01" />
<line x1="0.641202" y1="0.477144" x2="0.547516" y2="0.747611" style="stroke:rgb(246,147,147);stroke-width:0.01" />
<line x1="0.419442" y1="0.530765" x2="0.442736" y2="0.535087" style="stroke:rgb(246,147,147);stroke-width:0.01" />
<line x1="0.359371" y1="0.609596" x2="0.567642" y2="0.679425" style="stroke:rgb(246,147,147);stroke-width:0.01" />
<line x1="0.419442" y1="0.530765" x2="0.442325" y2="0.534776" style="stroke:rgb(246,147,147);stroke-width:0.01" />
<line x1="0.690712" y1="0.474014" x2="0.0192403" y2="0.51646" style="stroke:rgb(246,147,147);stroke-width:0.01" />
<line x1="0.0326531" y1="0.70839" x2="0.14408" y2="0.772778" style="stroke:rgb(246,147,147);stroke-width:0.01" />
<line x1="0.524376" y1="0.484529" x2="0.14408" y2="0.772778" style="stroke:rgb(246,147,147);stroke-width:0.01" />
<line x1="0.421556" y1="0.519049" x2="0.0326531" y2="0.70839" style="stroke:rgb(246,147,147);stroke-width:0.01" />
<line x1="0.697845" y1="0.581197" x2="0.692881" y2="0.581527" style="stroke:rgb(246,147,147);stroke-width:0.01" />
<line x1="0.706501" y1="0.737693" x2="0.14408" y2="0.772778" style="stroke:rgb(246,147,147);stroke-width:0.01" />
<line x1="0.711773" y1="0.837688" x2="0.0397445" y2="0.879046" style="stroke:rgb(246,147,147);stroke-width:0.01" />
<line x1="0.366011" y1="0.862224" x2="0.0397445" y2="0.879046" style="stroke:rgb(246,147,147);stroke-width:0.01" />
</g>
</svg>
