<svg xmlns="http://www.w3.org/2000/svg" viewBox="-1.5 -1.5 3 3">
<g transform="scale(1, -1)">
<path d="M0.190669 -0.232615 L0.197802 -0.125432 L0.197090 -0.125385 L0.206458 0.031064 L0.205580 0.031119 L0.211731 0.131059 L-0.134199 0.152348 L-0.134032 0.155595 L-0.460298 0.172417 L-0.480802 -0.190169 z " fill="rgb(245,195,195)" />
<path d="M-0.500043 -0.706629 L0.499957 -0.706629 L0.499957 0.293371 L-0.500043 0.293371  z" fill="none" stroke="rgb(128,128,128)" stroke-width="0.01" />
<line x1="0.141159" y1="-0.229485" x2="0.192838" y2="-0.125102" style="stroke:rgb(246,147,147);stroke-width:0.01" />
<line x1="-0.0577178" y1="-0.171853" x2="0.0446798" y2="0.0411561" style="stroke:rgb(246,147,147);stroke-width:0.01" />
<line x1="-0.0573066" y1="-0.171542" x2="0.0474734" y2="0.0409818" style="stroke:rgb(246,147,147);stroke-width:0.01" />
<line x1="0.190669" y1="-0.232615" x2="0.197802" y2="-0.125432" style="stroke:rgb(246,147,147);stroke-width:0.01" />
<line x1="0.189354" y1="-0.232532" x2="0.206458" y2="0.031064" style="stroke:rgb(246,147,147);stroke-width:0.01" />
<line x1="0.189354" y1="-0.232532" x2="0.211731" y2="0.131059" style="stroke:rgb(246,147,147);stroke-width:0.01" />
<line x1="0.190669" y1="-0.232615" x2="0.206458" y2="0.031064" style="stroke:rgb(246,147,147);stroke-width:0.01" />
<line x1="-0.152928" y1="-0.210895" x2="-0.133222" y2="0.052254" style="stroke:rgb(246,147,147);stroke-width:0.01" />
<line x1="-0.152928" y1="-0.210895" x2="-0.134032" y2="0.155595" style="stroke:rgb(246,147,147);stroke-width:0.01" />
<line x1="-0.140671" y1="-0.097033" x2="-0.133222" y2="0.052254" style="stroke:rgb(246,147,147);stroke-width:0.01" />
<line x1="-0.480802" y1="-0.190169" x2="-0.460298" y2="0.172417" style="stroke:rgb(246,147,147);stroke-width:0.01" />
<line x1="-0.480802" y1="-0.190169" x2="-0.467389" y2="0.00176074" style="stroke:rgb(246,147,147);stroke-width:0.01" />
<line x1="-0.0784866" y1="-0.18758" x2="-0.0806001" y2="-0.175864" style="stroke:rgb(246,147,147);stroke-width:0.01" />
<line x1="-0.0784866" y1="-0.18758" x2="-0.0573066" y2="-0.171542" style="stroke:rgb(246,147,147);stroke-width:0.01" />
<line x1="0.0243337" y1="-0.2221" x2="0.192838" y2="-0.125102" style="stroke:rgb(246,147,147);stroke-width:0.01" />
<line x1="0.0675995" y1="-0.0272042" x2="0.0446798" y2="0.0411561" style="stroke:rgb(246,147,147);stroke-width:0.01" />
<line x1="0.141159" y1="-0.229485" x2="0.0474734" y2="0.0409818" style="stroke:rgb(246,147,147);stroke-width:0.01" />
<line x1="-0.0806001" y1="-0.175864" x2="-0.0573066" y2="-0.171542" style="stroke:rgb(246,147,147);stroke-width:0.01" />
<line x1="-0.140671" y1="-0.097033" x2="0.0675995" y2="-0.0272042" style="stroke:rgb(246,147,147);stroke-width:0.01" />
<line x1="-0.0806001" y1="-0.175864" x2="-0.0577178" y2="-0.171853" style="stroke:rgb(246,147,147);stroke-width:0.01" />
<line x1="0.190669" y1="-0.232615" x2="-0.480802" y2="-0.190169" style="stroke:rgb(246,147,147);stroke-width:0.01" />
<line x1="-0.467389" y1="0.00176074" x2="-0.355962" y2="0.066149" style="stroke:rgb(246,147,147);stroke-width:0.01" />
<line x1="0.0243337" y1="-0.2221" x2="-0.355962" y2="0.066149" style="stroke:rgb(246,147,147);stroke-width:0.01" />
<line x1="-0.0784866" y1="-0.18758" x2="-0.467389" y2="0.00176074" style="stroke:rgb(246,147,147);stroke-width:0.01" />
<line x1="0.197802" y1="-0.125432" x2="0.192838" y2="-0.125102" style="stroke:rgb(246,147,147);stroke-width:0.01" />
<line x1="0.206458" y1="0.031064" x2="-0.355962" y2="0.066149" style="stroke:rgb(246,147,147);stroke-width:0.01" />
<line x1="0.211731" y1="0.131059" x2="-0.460298" y2="0.172417" style="stroke:rgb(246,147,147);stroke-width:0.01" />
<line x1="-0.134032" y1="0.155595" x2="-0.460298" y2="0.172417" style="stroke:rgb(246,147,147);stroke-width:0.01" />
</g>
</svg>
