<svg xmlns="http://www.w3.org/2000/svg" viewBox="-1.5 -1.5 3 3">
<g transform="scale(1, -1)">
<path d="M-61821970731448372779586420736.000000 -0.372727 L-61821970731448372779586420736.000000 -0.227273 L-61821970731448372779586420736.000000 -0.075758 L-61821970731448372779586420736.000000 0.118182 L-61821970731448372779586420736.000000 0.227273 L-61821970731448372779586420736.000000 0.227273 L-61821970731448372779586420736.000000 0.372727 L-61821970731448372779586420736.000000 0.227273 L-61821970731448372779586420736.000000 0.075758 L-61821970731448372779586420736.000000 -0.118182 L-61821970731448372779586420736.000000 -0.227273 L-61821970731448372779586420736.000000 -0.227273 z " fill="rgb(245,195,195)" />
<path d="M0.000000 0.000000 L1.000000 0.000000 L1.000000 1.000000 L0.000000 1.000000  z" fill="none" stroke="rgb(128,128,128)" stroke-width="0.01" />
<line x1="-6.1822e+28" y1="-0.0636364" x2="-6.1822e+28" y2="0.227273" style="stroke:rgb(246,147,147);stroke-width:0.01" />
<line x1="-6.1822e+28" y1="-0.227273" x2="-6.1822e+28" y2="0.0636364" style="stroke:rgb(246,147,147);stroke-width:0.01" />
<line x1="-6.1822e+28" y1="-0.227273" x2="-6.1822e+28" y2="-0.118182" style="stroke:rgb(246,147,147);stroke-width:0.01" />
<line x1="-6.1822e+28" y1="-0.372727" x2="-6.1822e+28" y2="-0.209091" style="stroke:rgb(246,147,147);stroke-width:0.01" />
<line x1="-6.1822e+28" y1="-0.227273" x2="-6.1822e+28" y2="0.1" style="stroke:rgb(246,147,147);stroke-width:0.01" />
<line x1="-6.1822e+28" y1="-0.1" x2="-6.1822e+28" y2="0.227273" style="stroke:rgb(246,147,147);stroke-width:0.01" />
<line x1="-6.1822e+28" y1="0.209091" x2="-6.1822e+28" y2="0.372727" style="stroke:rgb(246,147,147);stroke-width:0.01" />
<line x1="-6.1822e+28" y1="0.118182" x2="-6.1822e+28" y2="0.227273" style="stroke:rgb(246,147,147);stroke-width:0.01" />
<line x1="-6.1822e+28" y1="-0.209091" x2="-6.1822e+28" y2="0.1" style="stroke:rgb(246,147,147);stroke-width:0.01" />
<line x1="-6.1822e+28" y1="-0.1" x2="-6.1822e+28" y2="0.209091" style="stroke:rgb(246,147,147);stroke-width:0.01" />
<line x1="-6.1822e+28" y1="-0.227273" x2="-6.1822e+28" y2="0.227273" style="stroke:rgb(246,147,147);stroke-width:0.01" />
<line x1="-6.1822e+28" y1="-0.227273" x2="-6.1822e+28" y2="0.227273" style="stroke:rgb(246,147,147);stroke-width:0.01" />
<line x1="-6.1822e+28" y1="-0.227273" x2="-6.1822e+28" y2="-0.227273" style="stroke:rgb(246,147,147);stroke-width:0.01" />
<line x1="-6.1822e+28" y1="0.227273" x2="-6.1822e+28" y2="0.227273" style="stroke:rgb(246,147,147);stroke-width:0.01" />
<line x1="-6.1822e+28" y1="-0.209091" x2="-6.1822e+28" y2="-0.1" style="stroke:rgb(246,147,147);stroke-width:0.01" />
<line x1="-6.1822e+28" y1="0.1" x2="-6.1822e+28" y2="0.209091" style="stroke:rgb(246,147,147);stroke-width:0.01" />
<line x1="-6.1822e+28" y1="-0.372727" x2="-6.1822e+28" y2="-0.227273" style="stroke:rgb(246,147,147);stroke-width:0.01" />
<line x1="-6.1822e+28" y1="-0.1" x2="-6.1822e+28" y2="0.118182" style="stroke:rgb(246,147,147);stroke-width:0.01" />
<line x1="-6.1822e+28" y1="-0.209091" x2="-6.1822e+28" y2="0.227273" style="stroke:rgb(246,147,147);stroke-width:0.01" />
<line x1="-6.1822e+28" y1="-0.227273" x2="-6.1822e+28" y2="0.209091" style="stroke:rgb(246,147,147);stroke-width:0.01" />
<line x1="-6.1822e+28" y1="-0.118182" x2="-6.1822e+28" y2="0.1" style="stroke:rgb(246,147,147);stroke-width:0.01" />
<line x1="-6.1822e+28" y1="0.227273" x2="-6.1822e+28" y2="0.372727" style="stroke:rgb(246,147,147);stroke-width:0.01" />
<line x1="-6.1822e+28" y1="-0.227273" x2="-6.1822e+28" y2="-0.00909091" style="stroke:rgb(246,147,147);stroke-width:0.01" />
<line x1="-6.1822e+28" y1="0.00909091" x2="-6.1822e+28" y2="0.227273" style="stroke:rgb(246,147,147);stroke-width:0.01" />
</g>
</svg>
