<svg xmlns="http://www.w3.org/2000/svg" viewBox="-1.5 -1.5 3 3">
<g transform="scale(1, -1)">
<path d="M460674157303312448.000000 1337078651685382144.000000 L460674157303312448.000000 1337078651685382144.000000 L460674157303312448.000000 1337078651685382144.000000 L460674157303312448.000000 1337078651685382144.000000 L460674157303312448.000000 1337078651685382144.000000 L460674157303312448.000000 1337078651685382144.000000 z " fill="rgb(245,195,195)" />
<path d="M0.000000 0.000000 L1.000000 0.000000 L1.000000 1.000000 L0.000000 1.000000  z" fill="none" stroke="rgb(128,128,128)" stroke-width="0.01" />
<line x1="4.60674e+17" y1="1.33708e+18" x2="4.60674e+17" y2="1.33708e+18" style="stroke:rgb(246,147,147);stroke-width:0.01" />
<line x1="4.60674e+17" y1="1.33708e+18" x2="4.60674e+17" y2="1.33708e+18" style="stroke:rgb(246,147,147);stroke-width:0.01" />
<line x1="4.60674e+17" y1="1.33708e+18" x2="4.60674e+17" y2="1.33708e+18" style="stroke:rgb(246,147,147);stroke-width:0.01" />
<line x1="4.60674e+17" y1="1.33708e+18" x2="4.60674e+17" y2="1.33708e+18" style="stroke:rgb(246,147,147);stroke-width:0.01" />
<line x1="4.60674e+17" y1="1.33708e+18" x2="4.60674e+17" y2="1.33708e+18" style="stroke:rgb(246,147,147);stroke-width:0.01" />
<line x1="4.60674e+17" y1="1.33708e+18" x2="4.60674e+17" y2="1.33708e+18" style="stroke:rgb(246,147,147);stroke-width:0.01" />
<line x1="4.60674e+17" y1="1.33708e+18" x2="4.60674e+17" y2="1.33708e+18" style="stroke:rgb(246,147,147);stroke-width:0.01" />
<line x1="4.60674e+17" y1="1.33708e+18" x2="4.60674e+17" y2="1.33708e+18" style="stroke:rgb(246,147,147);stroke-width:0.01" />
<line x1="4.60674e+17" y1="1.33708e+18" x2="4.60674e+17" y2="1.33708e+18" style="stroke:rgb(246,147,147);stroke-width:0.01" />
<line x1="4.60674e+17" y1="1.33708e+18" x2="4.60674e+17" y2="1.33708e+18" style="stroke:rgb(246,147,147);stroke-width:0.01" />
</g>
</svg>
