<svg xmlns="http://www.w3.org/2000/svg" viewBox="-1.5 -1.5 3 3">
<g transform="scale(1, -1)">
<path d="M-0.230337 -0.668539 L0.069288 -0.522472 L0.522472 0.069288 L0.230337 0.668539 L-0.069288 0.522472 L-0.522472 -0.069288 z " fill="rgb(245,195,195)" />
<path d="M-460674157303312448.000000 -1337078651685382144.000000 L-460674157303312448.000000 -1337078651685382144.000000 L-460674157303312448.000000 -1337078651685382144.000000 L-460674157303312448.000000 -1337078651685382144.000000  z" fill="none" stroke="rgb(128,128,128)" stroke-width="0.01" />
<line x1="0.0692884" y1="-0.522472" x2="0.195131" y2="0.13221" style="stroke:rgb(246,147,147);stroke-width:0.01" />
<line x1="-0.195131" y1="-0.13221" x2="-0.0692884" y2="0.522472" style="stroke:rgb(246,147,147);stroke-width:0.01" />
<line x1="0.0692884" y1="-0.522472" x2="0.522472" y2="0.0692884" style="stroke:rgb(246,147,147);stroke-width:0.01" />
<line x1="-0.522472" y1="-0.0692884" x2="-0.0692884" y2="0.522472" style="stroke:rgb(246,147,147);stroke-width:0.01" />
<line x1="-0.230337" y1="-0.668539" x2="-0.522472" y2="-0.0692884" style="stroke:rgb(246,147,147);stroke-width:0.01" />
<line x1="0.522472" y1="0.0692884" x2="0.230337" y2="0.668539" style="stroke:rgb(246,147,147);stroke-width:0.01" />
<line x1="-0.230337" y1="-0.668539" x2="0.0692884" y2="-0.522472" style="stroke:rgb(246,147,147);stroke-width:0.01" />
<line x1="-0.0692884" y1="0.522472" x2="0.230337" y2="0.668539" style="stroke:rgb(246,147,147);stroke-width:0.01" />
<line x1="-0.195131" y1="-0.13221" x2="-0.522472" y2="-0.0692884" style="stroke:rgb(246,147,147);stroke-width:0.01" />
<line x1="0.522472" y1="0.0692884" x2="0.195131" y2="0.13221" style="stroke:rgb(246,147,147);stroke-width:0.01" />
</g>
</svg>
