<svg xmlns="http://www.w3.org/2000/svg" viewBox="-1.5 -1.5 3 3">
<g transform="scale(1, -1)">
<path d="M-0.125000 -0.281250 L0.125000 -0.281250 L0.125000 -0.156250 L0.250000 -0.031250 L0.250000 0.468750 L-0.250000 0.468750 L-0.250000 -0.031250 L-0.125000 -0.156250 z " fill="rgb(245,195,195)" />
<path d="M0.000000 -0.531250 L1.000000 -0.531250 L1.000000 0.468750 L0.000000 0.468750  z" fill="none" stroke="rgb(128,128,128)" stroke-width="0.01" />
<line x1="-0.25" y1="-0.03125" x2="-0.25" y2="0.46875" style="stroke:rgb(246,147,147);stroke-width:0.01" />
<line x1="-0.125" y1="-0.28125" x2="-0.125" y2="-0.15625" style="stroke:rgb(246,147,147);stroke-width:0.01" />
<line x1="0" y1="-0.28125" x2="0" y2="-0.03125" style="stroke:rgb(246,147,147);stroke-width:0.01" />
<line x1="0.125" y1="-0.28125" x2="0.125" y2="-0.15625" style="stroke:rgb(246,147,147);stroke-width:0.01" />
<line x1="0.25" y1="-0.03125" x2="0.25" y2="0.46875" style="stroke:rgb(246,147,147);stroke-width:0.01" />
<line x1="0" y1="-0.28125" x2="0.25" y2="-0.03125" style="stroke:rgb(246,147,147);stroke-width:0.01" />
<line x1="0" y1="-0.28125" x2="-0.25" y2="-0.03125" style="stroke:rgb(246,147,147);stroke-width:0.01" />
<line x1="-0.125" y1="-0.15625" x2="0" y2="-0.03125" style="stroke:rgb(246,147,147);stroke-width:0.01" />
<line x1="-0.125" y1="-0.28125" x2="0.125" y2="-0.28125" style="stroke:rgb(246,147,147);stroke-width:0.01" />
<line x1="0.125" y1="-0.15625" x2="0" y2="-0.03125" style="stroke:rgb(246,147,147);stroke-width:0.01" />
<line x1="-0.125" y1="-0.15625" x2="0.125" y2="-0.15625" style="stroke:rgb(246,147,147);stroke-width:0.01" />
<line x1="-0.25" y1="-0.03125" x2="0.25" y2="-0.03125" style="stroke:rgb(246,147,147);stroke-width:0.01" />
<line x1="-0.25" y1="0.46875" x2="0.25" y2="0.46875" style="stroke:rgb(246,147,147);stroke-width:0.01" />
</g>
</svg>
