<svg xmlns="http://www.w3.org/2000/svg" viewBox="-1.5 -1.5 3 3">
<g transform="scale(1, -1)">
<path d="M0.241262 -0.323950 L0.351280 -0.132741 L0.622414 -0.018591 L0.560075 0.290140 L-0.520631 0.357031 L-0.625501 0.174770 L-0.385841 0.036874 L-0.300767 -0.165197 L0.057708 -0.218336 z " fill="rgb(245,195,195)" />
<path d="M0.530150 -0.018591 L1.530150 -0.018591 L1.530150 0.981409 L0.530150 0.981409  z" fill="none" stroke="rgb(128,128,128)" stroke-width="0.01" />
<line x1="0.241262" y1="-0.32395" x2="-0.625501" y2="0.17477" style="stroke:rgb(246,147,147);stroke-width:0.01" />
<line x1="0.124466" y1="-0.228233" x2="-0.158271" y2="0.0064657" style="stroke:rgb(246,147,147);stroke-width:0.01" />
<line x1="-0.300767" y1="-0.165197" x2="-0.520631" y2="0.357031" style="stroke:rgb(246,147,147);stroke-width:0.01" />
<line x1="0.124466" y1="-0.228233" x2="-0.300767" y2="-0.165197" style="stroke:rgb(246,147,147);stroke-width:0.01" />
<line x1="0.124466" y1="-0.228233" x2="0.622414" y2="-0.0185905" style="stroke:rgb(246,147,147);stroke-width:0.01" />
<line x1="0.53015" y1="-0.0185905" x2="0.622414" y2="-0.0185905" style="stroke:rgb(246,147,147);stroke-width:0.01" />
<line x1="0.53015" y1="-0.0185905" x2="0.53015" y2="0.291993" style="stroke:rgb(246,147,147);stroke-width:0.01" />
<line x1="0.512103" y1="0.146764" x2="0.53015" y2="0.291993" style="stroke:rgb(246,147,147);stroke-width:0.01" />
<line x1="0.622414" y1="-0.0185905" x2="0.560075" y2="0.29014" style="stroke:rgb(246,147,147);stroke-width:0.01" />
<line x1="0.512103" y1="0.146764" x2="0.560075" y2="0.29014" style="stroke:rgb(246,147,147);stroke-width:0.01" />
<line x1="0.241262" y1="-0.32395" x2="0.512103" y2="0.146764" style="stroke:rgb(246,147,147);stroke-width:0.01" />
<line x1="0.560075" y1="0.29014" x2="-0.520631" y2="0.357031" style="stroke:rgb(246,147,147);stroke-width:0.01" />
<line x1="-0.300767" y1="-0.165197" x2="-0.158271" y2="0.0064657" style="stroke:rgb(246,147,147);stroke-width:0.01" />
<line x1="-0.625501" y1="0.17477" x2="-0.520631" y2="0.357031" style="stroke:rgb(246,147,147);stroke-width:0.01" />
</g>
</svg>
