<svg xmlns="http://www.w3.org/2000/svg" viewBox="-1.5 -1.5 3 3">
<g transform="scale(1, -1)">
<path d="M0.003451 -0.499988 L0.001725 -0.249994 L0.251720 -0.248269 L0.499988 0.003451 L0.249994 0.001725 L0.248269 0.251720 L-0.003451 0.499988 L-0.001725 0.249994 L-0.251720 0.248269 L-0.499988 -0.003451 L-0.249994 -0.001725 L-0.248269 -0.251720 z " fill="rgb(245,195,195)" />
<path d="M0.000000 0.000000 L1.000000 0.000000 L1.000000 1.000000 L0.000000 1.000000  z" fill="none" stroke="rgb(128,128,128)" stroke-width="0.01" />
<line x1="0.00345097" y1="-0.499988" x2="-0.248269" y2="-0.25172" style="stroke:rgb(246,147,147);stroke-width:0.01" />
<line x1="-0.248269" y1="-0.25172" x2="0.25172" y2="-0.248269" style="stroke:rgb(246,147,147);stroke-width:0.01" />
<line x1="0.25172" y1="-0.248269" x2="0.499988" y2="0.00345097" style="stroke:rgb(246,147,147);stroke-width:0.01" />
<line x1="-0.248269" y1="-0.25172" x2="-0.25172" y2="0.248269" style="stroke:rgb(246,147,147);stroke-width:0.01" />
<line x1="-0.499988" y1="-0.00345097" x2="0.499988" y2="0.00345097" style="stroke:rgb(246,147,147);stroke-width:0.01" />
<line x1="-0.248269" y1="-0.25172" x2="0.248269" y2="0.25172" style="stroke:rgb(246,147,147);stroke-width:0.01" />
<line x1="0.00345097" y1="-0.499988" x2="-0.00345097" y2="0.499988" style="stroke:rgb(246,147,147);stroke-width:0.01" />
<line x1="0.25172" y1="-0.248269" x2="-0.25172" y2="0.248269" style="stroke:rgb(246,147,147);stroke-width:0.01" />
<line x1="0.25172" y1="-0.248269" x2="0.248269" y2="0.25172" style="stroke:rgb(246,147,147);stroke-width:0.01" />
<line x1="-0.499988" y1="-0.00345097" x2="-0.25172" y2="0.248269" style="stroke:rgb(246,147,147);stroke-width:0.01" />
<line x1="-0.25172" y1="0.248269" x2="0.248269" y2="0.25172" style="stroke:rgb(246,147,147);stroke-width:0.01" />
<line x1="0.248269" y1="0.25172" x2="-0.00345097" y2="0.499988" style="stroke:rgb(246,147,147);stroke-width:0.01" />
</g>
</svg>
