<svg xmlns="http://www.w3.org/2000/svg" viewBox="-1.5 -1.5 3 3">
<g transform="scale(1, -1)">
<path d="M0.144768 -0.091450 L0.160447 -0.021763 L0.150653 -0.018813 L0.150732 -0.018464 L0.140840 -0.015484 L0.140918 -0.015136 L0.130929 -0.012126 L0.131008 -0.011778 L0.120921 -0.008739 L0.120999 -0.008391 L0.110815 -0.005322 L0.153620 0.184921 L-0.529306 0.338580 L-0.600735 0.281437 L-0.600735 0.038580 L-0.473949 0.038580 L-0.470138 0.091943 L0.094430 -0.078145 L0.094558 -0.077811 L0.104693 -0.080864 L0.104820 -0.080531 L0.114858 -0.083555 L0.114985 -0.083221 L0.124925 -0.086216 L0.125052 -0.085882 L0.139890 -0.090352 z " fill="rgb(245,195,195)" />
<path d="M-1.529306 0.038580 L-0.529306 0.038580 L-0.529306 1.038580 L-1.529306 1.038580  z" fill="none" stroke="rgb(128,128,128)" stroke-width="0.01" />
<line x1="0.134895" y1="-0.0888474" x2="0.160447" y2="-0.0217633" style="stroke:rgb(246,147,147);stroke-width:0.01" />
<line x1="0.124925" y1="-0.0862158" x2="0.150732" y2="-0.0184641" style="stroke:rgb(246,147,147);stroke-width:0.01" />
<line x1="0.114858" y1="-0.0835548" x2="0.140918" y2="-0.0151356" style="stroke:rgb(246,147,147);stroke-width:0.01" />
<line x1="0.104693" y1="-0.0808644" x2="0.131008" y2="-0.0117778" style="stroke:rgb(246,147,147);stroke-width:0.01" />
<line x1="0.0944304" y1="-0.0781447" x2="0.120999" y2="-0.00839055" style="stroke:rgb(246,147,147);stroke-width:0.01" />
<line x1="0.144768" y1="-0.0914497" x2="0.160447" y2="-0.0217633" style="stroke:rgb(246,147,147);stroke-width:0.01" />
<line x1="0.134895" y1="-0.0888474" x2="0.150732" y2="-0.0184641" style="stroke:rgb(246,147,147);stroke-width:0.01" />
<line x1="0.124925" y1="-0.0862158" x2="0.140918" y2="-0.0151356" style="stroke:rgb(246,147,147);stroke-width:0.01" />
<line x1="0.114858" y1="-0.0835548" x2="0.131008" y2="-0.0117778" style="stroke:rgb(246,147,147);stroke-width:0.01" />
<line x1="0.104693" y1="-0.0808644" x2="0.120999" y2="-0.00839055" style="stroke:rgb(246,147,147);stroke-width:0.01" />
<line x1="0.0944304" y1="-0.0781447" x2="0.15362" y2="0.184921" style="stroke:rgb(246,147,147);stroke-width:0.01" />
<line x1="-0.600735" y1="0.281437" x2="-0.529306" y2="0.33858" style="stroke:rgb(246,147,147);stroke-width:0.01" />
<line x1="-0.600735" y1="0.191749" x2="-0.524786" y2="0.220678" style="stroke:rgb(246,147,147);stroke-width:0.01" />
<line x1="-0.600735" y1="0.131288" x2="-0.464393" y2="0.172364" style="stroke:rgb(246,147,147);stroke-width:0.01" />
<line x1="-0.600735" y1="0.13166" x2="-0.464731" y2="0.172634" style="stroke:rgb(246,147,147);stroke-width:0.01" />
<line x1="-0.600735" y1="0.132032" x2="-0.465069" y2="0.172904" style="stroke:rgb(246,147,147);stroke-width:0.01" />
<line x1="-0.600735" y1="0.132404" x2="-0.465407" y2="0.173175" style="stroke:rgb(246,147,147);stroke-width:0.01" />
<line x1="-0.600735" y1="0.132776" x2="-0.465745" y2="0.173445" style="stroke:rgb(246,147,147);stroke-width:0.01" />
<line x1="-0.542011" y1="0.100712" x2="-0.524786" y2="0.220678" style="stroke:rgb(246,147,147);stroke-width:0.01" />
<line x1="-0.600735" y1="0.207559" x2="-0.53365" y2="0.227769" style="stroke:rgb(246,147,147);stroke-width:0.01" />
<line x1="-0.600735" y1="0.207931" x2="-0.533988" y2="0.228039" style="stroke:rgb(246,147,147);stroke-width:0.01" />
<line x1="-0.600735" y1="0.208303" x2="-0.534326" y2="0.22831" style="stroke:rgb(246,147,147);stroke-width:0.01" />
<line x1="-0.600735" y1="0.208675" x2="-0.534664" y2="0.22858" style="stroke:rgb(246,147,147);stroke-width:0.01" />
<line x1="-0.600735" y1="0.209047" x2="-0.535001" y2="0.22885" style="stroke:rgb(246,147,147);stroke-width:0.01" />
<line x1="-0.473949" y1="0.03858" x2="-0.464393" y2="0.172364" style="stroke:rgb(246,147,147);stroke-width:0.01" />
<line x1="-0.473549" y1="0.0491892" x2="-0.464731" y2="0.172634" style="stroke:rgb(246,147,147);stroke-width:0.01" />
<line x1="-0.473155" y1="0.0596968" x2="-0.465069" y2="0.172904" style="stroke:rgb(246,147,147);stroke-width:0.01" />
<line x1="-0.472769" y1="0.0701029" x2="-0.465407" y2="0.173175" style="stroke:rgb(246,147,147);stroke-width:0.01" />
<line x1="-0.47239" y1="0.0804074" x2="-0.465745" y2="0.173445" style="stroke:rgb(246,147,147);stroke-width:0.01" />
<line x1="-0.543447" y1="0.0906105" x2="-0.53365" y2="0.227769" style="stroke:rgb(246,147,147);stroke-width:0.01" />
<line x1="-0.544533" y1="0.0804074" x2="-0.533988" y2="0.228039" style="stroke:rgb(246,147,147);stroke-width:0.01" />
<line x1="-0.545626" y1="0.0701029" x2="-0.534326" y2="0.22831" style="stroke:rgb(246,147,147);stroke-width:0.01" />
<line x1="-0.546727" y1="0.0596968" x2="-0.534664" y2="0.22858" style="stroke:rgb(246,147,147);stroke-width:0.01" />
<line x1="-0.547834" y1="0.0491892" x2="-0.535001" y2="0.22885" style="stroke:rgb(246,147,147);stroke-width:0.01" />
<line x1="-0.600735" y1="0.03858" x2="-0.473949" y2="0.03858" style="stroke:rgb(246,147,147);stroke-width:0.01" />
<line x1="-0.600735" y1="0.03858" x2="-0.600735" y2="0.281437" style="stroke:rgb(246,147,147);stroke-width:0.01" />
<line x1="-0.529306" y1="0.03858" x2="-0.529306" y2="0.33858" style="stroke:rgb(246,147,147);stroke-width:0.01" />
<line x1="-0.547834" y1="0.0491892" x2="-0.473549" y2="0.0491892" style="stroke:rgb(246,147,147);stroke-width:0.01" />
<line x1="-0.546727" y1="0.0596968" x2="-0.473155" y2="0.0596968" style="stroke:rgb(246,147,147);stroke-width:0.01" />
<line x1="-0.545626" y1="0.0701029" x2="-0.472769" y2="0.0701029" style="stroke:rgb(246,147,147);stroke-width:0.01" />
<line x1="-0.544533" y1="0.0804074" x2="-0.47239" y2="0.0804074" style="stroke:rgb(246,147,147);stroke-width:0.01" />
<line x1="-0.543447" y1="0.0906105" x2="-0.471661" y2="0.0906105" style="stroke:rgb(246,147,147);stroke-width:0.01" />
<line x1="-0.473949" y1="0.03858" x2="-0.547834" y2="0.0491892" style="stroke:rgb(246,147,147);stroke-width:0.01" />
<line x1="-0.473549" y1="0.0491892" x2="-0.546727" y2="0.0596968" style="stroke:rgb(246,147,147);stroke-width:0.01" />
<line x1="-0.473155" y1="0.0596968" x2="-0.545626" y2="0.0701029" style="stroke:rgb(246,147,147);stroke-width:0.01" />
<line x1="-0.472769" y1="0.0701029" x2="-0.544533" y2="0.0804074" style="stroke:rgb(246,147,147);stroke-width:0.01" />
<line x1="-0.47239" y1="0.0804074" x2="-0.543447" y2="0.0906105" style="stroke:rgb(246,147,147);stroke-width:0.01" />
<line x1="-0.471661" y1="0.0906105" x2="-0.542011" y2="0.100712" style="stroke:rgb(246,147,147);stroke-width:0.01" />
<line x1="0.144768" y1="-0.0914497" x2="0.13989" y2="-0.0903521" style="stroke:rgb(246,147,147);stroke-width:0.01" />
<line x1="0.0944304" y1="-0.0781447" x2="-0.600735" y2="0.131288" style="stroke:rgb(246,147,147);stroke-width:0.01" />
<line x1="0.104693" y1="-0.0808644" x2="-0.600735" y2="0.13166" style="stroke:rgb(246,147,147);stroke-width:0.01" />
<line x1="0.114858" y1="-0.0835548" x2="-0.600735" y2="0.132032" style="stroke:rgb(246,147,147);stroke-width:0.01" />
<line x1="0.124925" y1="-0.0862158" x2="-0.600735" y2="0.132404" style="stroke:rgb(246,147,147);stroke-width:0.01" />
<line x1="0.13989" y1="-0.0903521" x2="-0.600735" y2="0.132776" style="stroke:rgb(246,147,147);stroke-width:0.01" />
<line x1="0.160447" y1="-0.0217633" x2="-0.600735" y2="0.207559" style="stroke:rgb(246,147,147);stroke-width:0.01" />
<line x1="0.150732" y1="-0.0184641" x2="-0.600735" y2="0.207931" style="stroke:rgb(246,147,147);stroke-width:0.01" />
<line x1="0.140918" y1="-0.0151356" x2="-0.600735" y2="0.208303" style="stroke:rgb(246,147,147);stroke-width:0.01" />
<line x1="0.131008" y1="-0.0117778" x2="-0.600735" y2="0.208675" style="stroke:rgb(246,147,147);stroke-width:0.01" />
<line x1="0.120999" y1="-0.00839055" x2="-0.600735" y2="0.209047" style="stroke:rgb(246,147,147);stroke-width:0.01" />
<line x1="0.13989" y1="-0.0903521" x2="-0.600735" y2="0.191749" style="stroke:rgb(246,147,147);stroke-width:0.01" />
<line x1="0.15362" y1="0.184921" x2="-0.529306" y2="0.33858" style="stroke:rgb(246,147,147);stroke-width:0.01" />
<line x1="-0.464393" y1="0.172364" x2="-0.600735" y2="0.281437" style="stroke:rgb(246,147,147);stroke-width:0.01" />
</g>
</svg>
