<svg xmlns="http://www.w3.org/2000/svg" viewBox="-1.5 -1.5 3 3">
<g transform="scale(1, -1)">
<path d="M1.674075 -0.130030 L1.689754 -0.060343 L1.679960 -0.057393 L1.680038 -0.057044 L1.670146 -0.054064 L1.670225 -0.053716 L1.660236 -0.050706 L1.660314 -0.050358 L1.650228 -0.047319 L1.650306 -0.046971 L1.640122 -0.043902 L1.682927 0.146341 L1.000000 0.300000 L0.928571 0.242857 L0.928571 0.000000 L1.055357 0.000000 L1.059169 0.053363 L1.623737 -0.116725 L1.623864 -0.116391 L1.633999 -0.119444 L1.634126 -0.119111 L1.644164 -0.122135 L1.644291 -0.121801 L1.654232 -0.124796 L1.654359 -0.124462 L1.669196 -0.128932 z " fill="rgb(245,195,195)" />
<path d="M0.000000 0.000000 L1.000000 0.000000 L1.000000 1.000000 L0.000000 1.000000  z" fill="none" stroke="rgb(128,128,128)" stroke-width="0.01" />
<line x1="1.6642" y1="-0.127427" x2="1.68975" y2="-0.0603433" style="stroke:rgb(246,147,147);stroke-width:0.01" />
<line x1="1.65423" y1="-0.124796" x2="1.68004" y2="-0.0570442" style="stroke:rgb(246,147,147);stroke-width:0.01" />
<line x1="1.64416" y1="-0.122135" x2="1.67022" y2="-0.0537157" style="stroke:rgb(246,147,147);stroke-width:0.01" />
<line x1="1.634" y1="-0.119444" x2="1.66031" y2="-0.0503578" style="stroke:rgb(246,147,147);stroke-width:0.01" />
<line x1="1.62374" y1="-0.116725" x2="1.65031" y2="-0.0469706" style="stroke:rgb(246,147,147);stroke-width:0.01" />
<line x1="1.67407" y1="-0.13003" x2="1.68975" y2="-0.0603433" style="stroke:rgb(246,147,147);stroke-width:0.01" />
<line x1="1.6642" y1="-0.127427" x2="1.68004" y2="-0.0570442" style="stroke:rgb(246,147,147);stroke-width:0.01" />
<line x1="1.65423" y1="-0.124796" x2="1.67022" y2="-0.0537157" style="stroke:rgb(246,147,147);stroke-width:0.01" />
<line x1="1.64416" y1="-0.122135" x2="1.66031" y2="-0.0503578" style="stroke:rgb(246,147,147);stroke-width:0.01" />
<line x1="1.634" y1="-0.119444" x2="1.65031" y2="-0.0469706" style="stroke:rgb(246,147,147);stroke-width:0.01" />
<line x1="1.62374" y1="-0.116725" x2="1.68293" y2="0.146341" style="stroke:rgb(246,147,147);stroke-width:0.01" />
<line x1="0.928571" y1="0.242857" x2="1" y2="0.3" style="stroke:rgb(246,147,147);stroke-width:0.01" />
<line x1="0.928571" y1="0.153169" x2="1.00452" y2="0.182098" style="stroke:rgb(246,147,147);stroke-width:0.01" />
<line x1="0.928571" y1="0.0927081" x2="1.06491" y2="0.133784" style="stroke:rgb(246,147,147);stroke-width:0.01" />
<line x1="0.928571" y1="0.0930801" x2="1.06458" y2="0.134054" style="stroke:rgb(246,147,147);stroke-width:0.01" />
<line x1="0.928571" y1="0.0934522" x2="1.06424" y2="0.134324" style="stroke:rgb(246,147,147);stroke-width:0.01" />
<line x1="0.928571" y1="0.0938242" x2="1.0639" y2="0.134595" style="stroke:rgb(246,147,147);stroke-width:0.01" />
<line x1="0.928571" y1="0.0941963" x2="1.06356" y2="0.134865" style="stroke:rgb(246,147,147);stroke-width:0.01" />
<line x1="0.987295" y1="0.062132" x2="1.00452" y2="0.182098" style="stroke:rgb(246,147,147);stroke-width:0.01" />
<line x1="0.928571" y1="0.168978" x2="0.995656" y2="0.189189" style="stroke:rgb(246,147,147);stroke-width:0.01" />
<line x1="0.928571" y1="0.169351" x2="0.995319" y2="0.189459" style="stroke:rgb(246,147,147);stroke-width:0.01" />
<line x1="0.928571" y1="0.169723" x2="0.994981" y2="0.18973" style="stroke:rgb(246,147,147);stroke-width:0.01" />
<line x1="0.928571" y1="0.170095" x2="0.994643" y2="0.19" style="stroke:rgb(246,147,147);stroke-width:0.01" />
<line x1="0.928571" y1="0.170467" x2="0.994305" y2="0.19027" style="stroke:rgb(246,147,147);stroke-width:0.01" />
<line x1="1.05536" y1="0" x2="1.06491" y2="0.133784" style="stroke:rgb(246,147,147);stroke-width:0.01" />
<line x1="1.05576" y1="0.0106091" x2="1.06458" y2="0.134054" style="stroke:rgb(246,147,147);stroke-width:0.01" />
<line x1="1.05615" y1="0.0211168" x2="1.06424" y2="0.134324" style="stroke:rgb(246,147,147);stroke-width:0.01" />
<line x1="1.05654" y1="0.0315228" x2="1.0639" y2="0.134595" style="stroke:rgb(246,147,147);stroke-width:0.01" />
<line x1="1.05692" y1="0.0418274" x2="1.06356" y2="0.134865" style="stroke:rgb(246,147,147);stroke-width:0.01" />
<line x1="0.985859" y1="0.0520305" x2="0.995656" y2="0.189189" style="stroke:rgb(246,147,147);stroke-width:0.01" />
<line x1="0.984773" y1="0.0418274" x2="0.995319" y2="0.189459" style="stroke:rgb(246,147,147);stroke-width:0.01" />
<line x1="0.98368" y1="0.0315228" x2="0.994981" y2="0.18973" style="stroke:rgb(246,147,147);stroke-width:0.01" />
<line x1="0.98258" y1="0.0211168" x2="0.994643" y2="0.19" style="stroke:rgb(246,147,147);stroke-width:0.01" />
<line x1="0.981472" y1="0.0106091" x2="0.994305" y2="0.19027" style="stroke:rgb(246,147,147);stroke-width:0.01" />
<line x1="0.928571" y1="0" x2="1.05536" y2="0" style="stroke:rgb(246,147,147);stroke-width:0.01" />
<line x1="0.928571" y1="0" x2="0.928571" y2="0.242857" style="stroke:rgb(246,147,147);stroke-width:0.01" />
<line x1="1" y1="0" x2="1" y2="0.3" style="stroke:rgb(246,147,147);stroke-width:0.01" />
<line x1="0.981472" y1="0.0106091" x2="1.05576" y2="0.0106091" style="stroke:rgb(246,147,147);stroke-width:0.01" />
<line x1="0.98258" y1="0.0211168" x2="1.05615" y2="0.0211168" style="stroke:rgb(246,147,147);stroke-width:0.01" />
<line x1="0.98368" y1="0.0315228" x2="1.05654" y2="0.0315228" style="stroke:rgb(246,147,147);stroke-width:0.01" />
<line x1="0.984773" y1="0.0418274" x2="1.05692" y2="0.0418274" style="stroke:rgb(246,147,147);stroke-width:0.01" />
<line x1="0.985859" y1="0.0520305" x2="1.05765" y2="0.0520305" style="stroke:rgb(246,147,147);stroke-width:0.01" />
<line x1="1.05536" y1="0" x2="0.981472" y2="0.0106091" style="stroke:rgb(246,147,147);stroke-width:0.01" />
<line x1="1.05576" y1="0.0106091" x2="0.98258" y2="0.0211168" style="stroke:rgb(246,147,147);stroke-width:0.01" />
<line x1="1.05615" y1="0.0211168" x2="0.98368" y2="0.0315228" style="stroke:rgb(246,147,147);stroke-width:0.01" />
<line x1="1.05654" y1="0.0315228" x2="0.984773" y2="0.0418274" style="stroke:rgb(246,147,147);stroke-width:0.01" />
<line x1="1.05692" y1="0.0418274" x2="0.985859" y2="0.0520305" style="stroke:rgb(246,147,147);stroke-width:0.01" />
<line x1="1.05765" y1="0.0520305" x2="0.987295" y2="0.062132" style="stroke:rgb(246,147,147);stroke-width:0.01" />
<line x1="1.67407" y1="-0.13003" x2="1.6692" y2="-0.128932" style="stroke:rgb(246,147,147);stroke-width:0.01" />
<line x1="1.62374" y1="-0.116725" x2="0.928571" y2="0.0927081" style="stroke:rgb(246,147,147);stroke-width:0.01" />
<line x1="1.634" y1="-0.119444" x2="0.928571" y2="0.0930801" style="stroke:rgb(246,147,147);stroke-width:0.01" />
<line x1="1.64416" y1="-0.122135" x2="0.928571" y2="0.0934522" style="stroke:rgb(246,147,147);stroke-width:0.01" />
<line x1="1.65423" y1="-0.124796" x2="0.928571" y2="0.0938242" style="stroke:rgb(246,147,147);stroke-width:0.01" />
<line x1="1.6692" y1="-0.128932" x2="0.928571" y2="0.0941963" style="stroke:rgb(246,147,147);stroke-width:0.01" />
<line x1="1.68975" y1="-0.0603433" x2="0.928571" y2="0.168978" style="stroke:rgb(246,147,147);stroke-width:0.01" />
<line x1="1.68004" y1="-0.0570442" x2="0.928571" y2="0.169351" style="stroke:rgb(246,147,147);stroke-width:0.01" />
<line x1="1.67022" y1="-0.0537157" x2="0.928571" y2="0.169723" style="stroke:rgb(246,147,147);stroke-width:0.01" />
<line x1="1.66031" y1="-0.0503578" x2="0.928571" y2="0.170095" style="stroke:rgb(246,147,147);stroke-width:0.01" />
<line x1="1.65031" y1="-0.0469706" x2="0.928571" y2="0.170467" style="stroke:rgb(246,147,147);stroke-width:0.01" />
<line x1="1.6692" y1="-0.128932" x2="0.928571" y2="0.153169" style="stroke:rgb(246,147,147);stroke-width:0.01" />
<line x1="1.68293" y1="0.146341" x2="1" y2="0.3" style="stroke:rgb(246,147,147);stroke-width:0.01" />
<line x1="1.06491" y1="0.133784" x2="0.928571" y2="0.242857" style="stroke:rgb(246,147,147);stroke-width:0.01" />
</g>
</svg>
