<svg xmlns="http://www.w3.org/2000/svg" viewBox="-1.5 -1.5 3 3">
<g transform="scale(1, -1)">
<path d="M-0.080982 -0.154012 L0.000697 -0.070707 L0.084002 -0.152386 L0.154012 -0.080982 L0.070707 0.000697 L0.152386 0.084002 L0.080982 0.154012 L-0.000697 0.070707 L-0.084002 0.152386 L-0.154012 0.080982 L-0.070707 -0.000697 L-0.152386 -0.084002 z " fill="rgb(245,195,195)" />
<path d="M-0.356096 0.228800 L0.643904 0.228800 L0.643904 1.228800 L-0.356096 1.228800  z" fill="none" stroke="rgb(128,128,128)" stroke-width="0.01" />
<line x1="0.084002" y1="-0.152386" x2="0.154012" y2="-0.0809815" style="stroke:rgb(246,147,147);stroke-width:0.01" />
<line x1="-0.0809815" y1="-0.154012" x2="0.152386" y2="0.084002" style="stroke:rgb(246,147,147);stroke-width:0.01" />
<line x1="-0.152386" y1="-0.084002" x2="0.0809815" y2="0.154012" style="stroke:rgb(246,147,147);stroke-width:0.01" />
<line x1="-0.154012" y1="0.0809815" x2="-0.084002" y2="0.152386" style="stroke:rgb(246,147,147);stroke-width:0.01" />
<line x1="-0.0809815" y1="-0.154012" x2="-0.152386" y2="-0.084002" style="stroke:rgb(246,147,147);stroke-width:0.01" />
<line x1="0.000697042" y1="-0.0707072" x2="-0.000697042" y2="0.0707072" style="stroke:rgb(246,147,147);stroke-width:0.01" />
<line x1="0.084002" y1="-0.152386" x2="-0.154012" y2="0.0809815" style="stroke:rgb(246,147,147);stroke-width:0.01" />
<line x1="0.154012" y1="-0.0809815" x2="-0.084002" y2="0.152386" style="stroke:rgb(246,147,147);stroke-width:0.01" />
<line x1="0.152386" y1="0.084002" x2="0.0809815" y2="0.154012" style="stroke:rgb(246,147,147);stroke-width:0.01" />
</g>
</svg>
