<svg xmlns="http://www.w3.org/2000/svg" viewBox="-1.5 -1.5 3 3">
<g transform="scale(1, -1)">
<path d="M0.275114 -0.382812 L0.356793 -0.299507 L0.440098 -0.381186 L0.510108 -0.309781 L0.426803 -0.228103 L0.508482 -0.144798 L0.437077 -0.074787 L0.355399 -0.158092 L0.272094 -0.076414 L0.202084 -0.147818 L0.285389 -0.229497 L0.203710 -0.312802 z " fill="rgb(245,195,195)" />
<path d="M0.000000 0.000000 L1.000000 0.000000 L1.000000 1.000000 L0.000000 1.000000  z" fill="none" stroke="rgb(128,128,128)" stroke-width="0.01" />
<line x1="0.440098" y1="-0.381186" x2="0.510108" y2="-0.309781" style="stroke:rgb(246,147,147);stroke-width:0.01" />
<line x1="0.275114" y1="-0.382812" x2="0.508482" y2="-0.144798" style="stroke:rgb(246,147,147);stroke-width:0.01" />
<line x1="0.20371" y1="-0.312802" x2="0.437077" y2="-0.0747875" style="stroke:rgb(246,147,147);stroke-width:0.01" />
<line x1="0.202084" y1="-0.147818" x2="0.272094" y2="-0.0764139" style="stroke:rgb(246,147,147);stroke-width:0.01" />
<line x1="0.275114" y1="-0.382812" x2="0.20371" y2="-0.312802" style="stroke:rgb(246,147,147);stroke-width:0.01" />
<line x1="0.356793" y1="-0.299507" x2="0.355399" y2="-0.158092" style="stroke:rgb(246,147,147);stroke-width:0.01" />
<line x1="0.440098" y1="-0.381186" x2="0.202084" y2="-0.147818" style="stroke:rgb(246,147,147);stroke-width:0.01" />
<line x1="0.510108" y1="-0.309781" x2="0.272094" y2="-0.0764139" style="stroke:rgb(246,147,147);stroke-width:0.01" />
<line x1="0.508482" y1="-0.144798" x2="0.437077" y2="-0.0747875" style="stroke:rgb(246,147,147);stroke-width:0.01" />
</g>
</svg>
