<svg xmlns="http://www.w3.org/2000/svg" viewBox="-1.5 -1.5 3 3">
<g transform="scale(1, -1)">
<path d="M-0.003621 -0.194331 L0.169765 -0.094645 L0.136536 -0.036850 L0.194331 -0.003621 L0.094645 0.169765 L0.036850 0.136536 L0.003621 0.194331 L-0.169765 0.094645 L-0.136536 0.036850 L-0.194331 0.003621 L-0.094645 -0.169765 L-0.036850 -0.136536 z " fill="rgb(245,195,195)" />
<path d="M0.196684 -0.671226 L1.196684 -0.671226 L1.196684 0.328774 L0.196684 0.328774  z" fill="none" stroke="rgb(128,128,128)" stroke-width="0.01" />
<line x1="-0.0946448" y1="-0.169765" x2="-0.194331" y2="0.00362071" style="stroke:rgb(246,147,147);stroke-width:0.01" />
<line x1="-0.00362071" y1="-0.194331" x2="-0.169765" y2="0.0946448" style="stroke:rgb(246,147,147);stroke-width:0.01" />
<line x1="0.169765" y1="-0.0946448" x2="0.00362071" y2="0.194331" style="stroke:rgb(246,147,147);stroke-width:0.01" />
<line x1="0.194331" y1="-0.00362071" x2="0.0946448" y2="0.169765" style="stroke:rgb(246,147,147);stroke-width:0.01" />
<line x1="-0.00362071" y1="-0.194331" x2="0.169765" y2="-0.0946448" style="stroke:rgb(246,147,147);stroke-width:0.01" />
<line x1="-0.0946448" y1="-0.169765" x2="0.194331" y2="-0.00362071" style="stroke:rgb(246,147,147);stroke-width:0.01" />
<line x1="0.136536" y1="-0.0368496" x2="-0.136536" y2="0.0368496" style="stroke:rgb(246,147,147);stroke-width:0.01" />
<line x1="-0.194331" y1="0.00362071" x2="0.0946448" y2="0.169765" style="stroke:rgb(246,147,147);stroke-width:0.01" />
<line x1="-0.169765" y1="0.0946448" x2="0.00362071" y2="0.194331" style="stroke:rgb(246,147,147);stroke-width:0.01" />
</g>
</svg>
