<svg xmlns="http://www.w3.org/2000/svg" viewBox="-1.5 -1.5 3 3">
<g transform="scale(1, -1)">
<path d="M0.079947 -0.154552 L0.151819 -0.085022 L0.070701 -0.001171 L0.154552 0.079947 L0.085022 0.151819 L0.001171 0.070701 L-0.079947 0.154552 L-0.151819 0.085022 L-0.070701 0.001171 L-0.154552 -0.079947 L-0.085022 -0.151819 L-0.001171 -0.070701 z " fill="rgb(245,195,195)" />
<path d="M-0.902675 -0.154269 L0.097325 -0.154269 L0.097325 0.845731 L-0.902675 0.845731  z" fill="none" stroke="rgb(128,128,128)" stroke-width="0.01" />
<line x1="0.0799468" y1="-0.154552" x2="0.151819" y2="-0.0850221" style="stroke:rgb(246,147,147);stroke-width:0.01" />
<line x1="-0.0850221" y1="-0.151819" x2="0.154552" y2="0.0799468" style="stroke:rgb(246,147,147);stroke-width:0.01" />
<line x1="-0.154552" y1="-0.0799468" x2="0.0850221" y2="0.151819" style="stroke:rgb(246,147,147);stroke-width:0.01" />
<line x1="-0.151819" y1="0.0850221" x2="-0.0799468" y2="0.154552" style="stroke:rgb(246,147,147);stroke-width:0.01" />
<line x1="-0.00117121" y1="-0.070701" x2="0.00117121" y2="0.070701" style="stroke:rgb(246,147,147);stroke-width:0.01" />
<line x1="-0.0850221" y1="-0.151819" x2="-0.154552" y2="-0.0799468" style="stroke:rgb(246,147,147);stroke-width:0.01" />
<line x1="0.0799468" y1="-0.154552" x2="-0.151819" y2="0.0850221" style="stroke:rgb(246,147,147);stroke-width:0.01" />
<line x1="0.151819" y1="-0.0850221" x2="-0.0799468" y2="0.154552" style="stroke:rgb(246,147,147);stroke-width:0.01" />
<line x1="0.154552" y1="0.0799468" x2="0.0850221" y2="0.151819" style="stroke:rgb(246,147,147);stroke-width:0.01" />
</g>
</svg>
