<svg xmlns="http://www.w3.org/2000/svg" viewBox="-1.5 -1.5 3 3">
<g transform="scale(1, -1)">
<path d="M0.389686 -0.154575 L0.483827 -0.076841 L0.293814 -0.058703 L0.028749 0.206362 L-0.093407 0.084207 L-0.396635 0.113152 L-0.406657 0.008160 L-0.299376 -0.121763 z " fill="rgb(245,195,195)" />
<path d="M-0.020080 -0.744809 L0.979920 -0.744809 L0.979920 0.255191 L-0.020080 0.255191  z" fill="none" stroke="rgb(128,128,128)" stroke-width="0.01" />
<line x1="-0.0200796" y1="-0.135062" x2="-0.0200796" y2="0.157534" style="stroke:rgb(246,147,147);stroke-width:0.01" />
<line x1="-0.0200796" y1="-0.135062" x2="-4.0859e-07" y2="0.075291" style="stroke:rgb(246,147,147);stroke-width:0.01" />
<line x1="-0.406657" y1="0.00816007" x2="-0.396635" y2="0.113152" style="stroke:rgb(246,147,147);stroke-width:0.01" />
<line x1="-0.299376" y1="-0.121763" x2="-0.406657" y2="0.00816007" style="stroke:rgb(246,147,147);stroke-width:0.01" />
<line x1="0.389686" y1="-0.154575" x2="0.483827" y2="-0.0768406" style="stroke:rgb(246,147,147);stroke-width:0.01" />
<line x1="0.181625" y1="-0.144667" x2="0.280702" y2="-0.0455906" style="stroke:rgb(246,147,147);stroke-width:0.01" />
<line x1="0.181625" y1="-0.144667" x2="-4.0859e-07" y2="0.075291" style="stroke:rgb(246,147,147);stroke-width:0.01" />
<line x1="-0.299376" y1="-0.121763" x2="0.0287485" y2="0.206362" style="stroke:rgb(246,147,147);stroke-width:0.01" />
<line x1="0.389686" y1="-0.154575" x2="0.0287485" y2="0.206362" style="stroke:rgb(246,147,147);stroke-width:0.01" />
<line x1="0.389686" y1="-0.154575" x2="-0.299376" y2="-0.121763" style="stroke:rgb(246,147,147);stroke-width:0.01" />
<line x1="0.483827" y1="-0.0768406" x2="-0.406657" y2="0.00816007" style="stroke:rgb(246,147,147);stroke-width:0.01" />
<line x1="-4.0859e-07" y1="0.075291" x2="-0.396635" y2="0.113152" style="stroke:rgb(246,147,147);stroke-width:0.01" />
<line x1="-0.0200796" y1="0.157534" x2="0.0775767" y2="0.157534" style="stroke:rgb(246,147,147);stroke-width:0.01" />
</g>
</svg>
