<svg xmlns="http://www.w3.org/2000/svg" viewBox="-1.5 -1.5 3 3">
<g transform="scale(1, -1)">
<path d="M-0.044993 -0.163493 L0.014384 -0.041788 L0.136089 -0.101164 L0.163493 -0.044993 L0.041788 0.014384 L0.101164 0.136089 L0.044993 0.163493 L-0.014384 0.041788 L-0.136089 0.101164 L-0.163493 0.044993 L-0.041788 -0.014384 L-0.101164 -0.136089 z " fill="rgb(245,195,195)" />
<path d="M-0.145469 -0.994613 L0.854531 -0.994613 L0.854531 0.005387 L-0.145469 0.005387  z" fill="none" stroke="rgb(128,128,128)" stroke-width="0.01" />
<line x1="0.136089" y1="-0.101164" x2="0.163493" y2="-0.0449926" style="stroke:rgb(246,147,147);stroke-width:0.01" />
<line x1="-0.0449926" y1="-0.163493" x2="0.101164" y2="0.136089" style="stroke:rgb(246,147,147);stroke-width:0.01" />
<line x1="-0.101164" y1="-0.136089" x2="0.0449926" y2="0.163493" style="stroke:rgb(246,147,147);stroke-width:0.01" />
<line x1="-0.163493" y1="0.0449926" x2="-0.136089" y2="0.101164" style="stroke:rgb(246,147,147);stroke-width:0.01" />
<line x1="-0.0449926" y1="-0.163493" x2="-0.101164" y2="-0.136089" style="stroke:rgb(246,147,147);stroke-width:0.01" />
<line x1="0.136089" y1="-0.101164" x2="-0.163493" y2="0.0449926" style="stroke:rgb(246,147,147);stroke-width:0.01" />
<line x1="-0.041788" y1="-0.0143836" x2="0.041788" y2="0.0143836" style="stroke:rgb(246,147,147);stroke-width:0.01" />
<line x1="0.163493" y1="-0.0449926" x2="-0.136089" y2="0.101164" style="stroke:rgb(246,147,147);stroke-width:0.01" />
<line x1="0.101164" y1="0.136089" x2="0.0449926" y2="0.163493" style="stroke:rgb(246,147,147);stroke-width:0.01" />
</g>
</svg>
