<svg xmlns="http://www.w3.org/2000/svg" viewBox="-1.5 -1.5 3 3">
<g transform="scale(1, -1)">
<path d="M-0.178907 -0.336996 L-0.010765 -0.336996 L0.014876 -0.311355 L0.014876 0.311355 L0.172741 0.311355 L0.172741 0.336996 L0.014876 0.336996 L-0.010765 0.311355 L-0.010765 -0.311355 L-0.178907 -0.311355 z " fill="rgb(245,195,195)" />
<path d="M-0.178907 -0.336996 L0.821093 -0.336996 L0.821093 0.663004 L-0.178907 0.663004  z" fill="none" stroke="rgb(128,128,128)" stroke-width="0.01" />
<line x1="-0.0107653" y1="-0.336996" x2="0.0148757" y2="-0.311355" style="stroke:rgb(246,147,147);stroke-width:0.01" />
<line x1="-0.178907" y1="-0.336996" x2="-0.0107653" y2="-0.336996" style="stroke:rgb(246,147,147);stroke-width:0.01" />
<line x1="-0.178907" y1="-0.336996" x2="-0.178907" y2="-0.311355" style="stroke:rgb(246,147,147);stroke-width:0.01" />
<line x1="-0.0107653" y1="-0.336996" x2="-0.0107653" y2="0.311355" style="stroke:rgb(246,147,147);stroke-width:0.01" />
<line x1="0.0148757" y1="-0.311355" x2="0.0148757" y2="0.336996" style="stroke:rgb(246,147,147);stroke-width:0.01" />
<line x1="0.172741" y1="0.311355" x2="0.172741" y2="0.336996" style="stroke:rgb(246,147,147);stroke-width:0.01" />
<line x1="-0.178907" y1="-0.311355" x2="0.0148757" y2="-0.311355" style="stroke:rgb(246,147,147);stroke-width:0.01" />
<line x1="-0.0107653" y1="0.311355" x2="0.0148757" y2="0.336996" style="stroke:rgb(246,147,147);stroke-width:0.01" />
<line x1="-0.0107653" y1="0.311355" x2="0.172741" y2="0.311355" style="stroke:rgb(246,147,147);stroke-width:0.01" />
<line x1="0.0148757" y1="0.336996" x2="0.172741" y2="0.336996" style="stroke:rgb(246,147,147);stroke-width:0.01" />
</g>
</svg>
