<svg xmlns="http://www.w3.org/2000/svg" viewBox="-1.5 -1.5 3 3">
<g transform="scale(1, -1)">
<path d="M0.000000 0.000000 L0.168142 0.000000 L0.193783 0.025641 L0.193783 0.648352 L0.351648 0.648352 L0.351648 0.673993 L0.193783 0.673993 L0.168142 0.648352 L0.168142 0.025641 L0.000000 0.025641 z " fill="rgb(245,195,195)" />
<path d="M0.000000 0.000000 L1.000000 0.000000 L1.000000 1.000000 L0.000000 1.000000  z" fill="none" stroke="rgb(128,128,128)" stroke-width="0.01" />
<line x1="0.168142" y1="0" x2="0.193783" y2="0.025641" style="stroke:rgb(246,147,147);stroke-width:0.01" />
<line x1="0" y1="0" x2="0.168142" y2="0" style="stroke:rgb(246,147,147);stroke-width:0.01" />
<line x1="0" y1="0" x2="0" y2="0.025641" style="stroke:rgb(246,147,147);stroke-width:0.01" />
<line x1="0.168142" y1="0" x2="0.168142" y2="0.648352" style="stroke:rgb(246,147,147);stroke-width:0.01" />
<line x1="0.193783" y1="0.025641" x2="0.193783" y2="0.673993" style="stroke:rgb(246,147,147);stroke-width:0.01" />
<line x1="0.351648" y1="0.648352" x2="0.351648" y2="0.673993" style="stroke:rgb(246,147,147);stroke-width:0.01" />
<line x1="0" y1="0.025641" x2="0.193783" y2="0.025641" style="stroke:rgb(246,147,147);stroke-width:0.01" />
<line x1="0.168142" y1="0.648352" x2="0.193783" y2="0.673993" style="stroke:rgb(246,147,147);stroke-width:0.01" />
<line x1="0.168142" y1="0.648352" x2="0.351648" y2="0.648352" style="stroke:rgb(246,147,147);stroke-width:0.01" />
<line x1="0.193783" y1="0.673993" x2="0.351648" y2="0.673993" style="stroke:rgb(246,147,147);stroke-width:0.01" />
</g>
</svg>
