<svg xmlns="http://www.w3.org/2000/svg" viewBox="-1.5 -1.5 3 3">
<g transform="scale(1, -1)">
<path d="M-5.215854 -2.303137 L-4.850672 -1.726396 L-4.849294 -1.727696 L-4.846429 -1.725596 L-4.744574 -1.758687 L-4.698642 -1.617306 L-4.752571 -1.578291 L-4.677012 -1.461577 L-4.680987 -1.458406 L-5.066078 -1.523101 L-5.420004 -2.200575 L-5.402549 -2.210050 L-5.402249 -2.209495 z " fill="rgb(245,195,195)" />
<path d="M0.000000 0.000000 L1.000000 0.000000 L1.000000 1.000000 L0.000000 1.000000  z" fill="none" stroke="rgb(128,128,128)" stroke-width="0.01" />
<line x1="-5.40255" y1="-2.21005" x2="-5.42" y2="-2.20058" style="stroke:rgb(246,147,147);stroke-width:0.01" />
<line x1="-5.21585" y1="-2.30314" x2="-5.39886" y2="-2.16011" style="stroke:rgb(246,147,147);stroke-width:0.01" />
<line x1="-5.21585" y1="-2.30314" x2="-5.42" y2="-2.20058" style="stroke:rgb(246,147,147);stroke-width:0.01" />
<line x1="-5.35295" y1="-2.17429" x2="-5.39886" y2="-2.16011" style="stroke:rgb(246,147,147);stroke-width:0.01" />
<line x1="-5.35295" y1="-2.17429" x2="-5.38447" y2="-2.13257" style="stroke:rgb(246,147,147);stroke-width:0.01" />
<line x1="-4.84929" y1="-1.7277" x2="-5.06608" y2="-1.5231" style="stroke:rgb(246,147,147);stroke-width:0.01" />
<line x1="-4.8705" y1="-1.65855" x2="-5.02603" y2="-1.51637" style="stroke:rgb(246,147,147);stroke-width:0.01" />
<line x1="-4.69864" y1="-1.61731" x2="-4.87357" y2="-1.49076" style="stroke:rgb(246,147,147);stroke-width:0.01" />
<line x1="-4.67701" y1="-1.46158" x2="-4.68099" y2="-1.45841" style="stroke:rgb(246,147,147);stroke-width:0.01" />
<line x1="-4.74457" y1="-1.75869" x2="-4.85419" y2="-1.72307" style="stroke:rgb(246,147,147);stroke-width:0.01" />
<line x1="-5.11453" y1="-2.14312" x2="-5.18343" y2="-2.01109" style="stroke:rgb(246,147,147);stroke-width:0.01" />
<line x1="-5.11453" y1="-2.14312" x2="-5.38447" y2="-2.13257" style="stroke:rgb(246,147,147);stroke-width:0.01" />
<line x1="-4.85419" y1="-1.72307" x2="-4.94044" y2="-1.50199" style="stroke:rgb(246,147,147);stroke-width:0.01" />
<line x1="-5.06608" y1="-1.5231" x2="-4.68099" y2="-1.45841" style="stroke:rgb(246,147,147);stroke-width:0.01" />
<line x1="-4.95569" y1="-1.89226" x2="-4.94044" y2="-1.50199" style="stroke:rgb(246,147,147);stroke-width:0.01" />
<line x1="-5.18343" y1="-2.01109" x2="-4.95569" y2="-1.89226" style="stroke:rgb(246,147,147);stroke-width:0.01" />
<line x1="-4.84929" y1="-1.7277" x2="-4.69864" y2="-1.61731" style="stroke:rgb(246,147,147);stroke-width:0.01" />
<line x1="-4.74457" y1="-1.75869" x2="-4.69864" y2="-1.61731" style="stroke:rgb(246,147,147);stroke-width:0.01" />
<line x1="-4.89461" y1="-1.68493" x2="-4.67701" y2="-1.46158" style="stroke:rgb(246,147,147);stroke-width:0.01" />
<line x1="-4.89461" y1="-1.68493" x2="-4.8705" y2="-1.65855" style="stroke:rgb(246,147,147);stroke-width:0.01" />
<line x1="-5.21585" y1="-2.30314" x2="-4.68099" y2="-1.45841" style="stroke:rgb(246,147,147);stroke-width:0.01" />
<line x1="-4.84929" y1="-1.7277" x2="-4.67701" y2="-1.46158" style="stroke:rgb(246,147,147);stroke-width:0.01" />
<line x1="-5.42" y1="-2.20058" x2="-5.06608" y2="-1.5231" style="stroke:rgb(246,147,147);stroke-width:0.01" />
<line x1="-5.40255" y1="-2.21005" x2="-5.02603" y2="-1.51637" style="stroke:rgb(246,147,147);stroke-width:0.01" />
<line x1="-5.35295" y1="-2.17429" x2="-4.87357" y2="-1.49076" style="stroke:rgb(246,147,147);stroke-width:0.01" />
</g>
</svg>
