<svg xmlns="http://www.w3.org/2000/svg" viewBox="-1.5 -1.5 3 3">
<g transform="scale(1, -1)">
<path d="M-0.246091 -0.495421 L0.119090 0.081321 L0.120468 0.080020 L0.123334 0.082120 L0.225188 0.049029 L0.271121 0.190411 L0.217191 0.229425 L0.292751 0.346139 L0.288776 0.349311 L-0.096315 0.284615 L-0.450241 -0.392859 L-0.432787 -0.402333 L-0.432486 -0.401779 z " fill="rgb(245,195,195)" />
<path d="M4.969763 1.807716 L5.969763 1.807716 L5.969763 2.807716 L4.969763 2.807716  z" fill="none" stroke="rgb(128,128,128)" stroke-width="0.01" />
<line x1="-0.432787" y1="-0.402333" x2="-0.450241" y2="-0.392859" style="stroke:rgb(246,147,147);stroke-width:0.01" />
<line x1="-0.246091" y1="-0.495421" x2="-0.429102" y2="-0.352394" style="stroke:rgb(246,147,147);stroke-width:0.01" />
<line x1="-0.246091" y1="-0.495421" x2="-0.450241" y2="-0.392859" style="stroke:rgb(246,147,147);stroke-width:0.01" />
<line x1="-0.383192" y1="-0.36657" x2="-0.429102" y2="-0.352394" style="stroke:rgb(246,147,147);stroke-width:0.01" />
<line x1="-0.383192" y1="-0.36657" x2="-0.414712" y2="-0.32485" style="stroke:rgb(246,147,147);stroke-width:0.01" />
<line x1="0.120468" y1="0.0800202" x2="-0.0963149" y2="0.284615" style="stroke:rgb(246,147,147);stroke-width:0.01" />
<line x1="0.0992626" y1="0.149162" x2="-0.0562626" y2="0.291344" style="stroke:rgb(246,147,147);stroke-width:0.01" />
<line x1="0.271121" y1="0.190411" x2="0.0961952" y2="0.316957" style="stroke:rgb(246,147,147);stroke-width:0.01" />
<line x1="0.292751" y1="0.346139" x2="0.288776" y2="0.349311" style="stroke:rgb(246,147,147);stroke-width:0.01" />
<line x1="0.225188" y1="0.0490292" x2="0.115571" y2="0.0846421" style="stroke:rgb(246,147,147);stroke-width:0.01" />
<line x1="-0.14477" y1="-0.335401" x2="-0.213662" y2="-0.203376" style="stroke:rgb(246,147,147);stroke-width:0.01" />
<line x1="-0.14477" y1="-0.335401" x2="-0.414712" y2="-0.32485" style="stroke:rgb(246,147,147);stroke-width:0.01" />
<line x1="0.115571" y1="0.0846421" x2="0.0293233" y2="0.305723" style="stroke:rgb(246,147,147);stroke-width:0.01" />
<line x1="-0.0963149" y1="0.284615" x2="0.288776" y2="0.349311" style="stroke:rgb(246,147,147);stroke-width:0.01" />
<line x1="0.0140687" y1="-0.0845428" x2="0.0293233" y2="0.305723" style="stroke:rgb(246,147,147);stroke-width:0.01" />
<line x1="-0.213662" y1="-0.203376" x2="0.0140687" y2="-0.0845428" style="stroke:rgb(246,147,147);stroke-width:0.01" />
<line x1="0.120468" y1="0.0800202" x2="0.271121" y2="0.190411" style="stroke:rgb(246,147,147);stroke-width:0.01" />
<line x1="0.225188" y1="0.0490292" x2="0.271121" y2="0.190411" style="stroke:rgb(246,147,147);stroke-width:0.01" />
<line x1="0.0751522" y1="0.122789" x2="0.292751" y2="0.346139" style="stroke:rgb(246,147,147);stroke-width:0.01" />
<line x1="0.0751522" y1="0.122789" x2="0.0992626" y2="0.149162" style="stroke:rgb(246,147,147);stroke-width:0.01" />
<line x1="-0.246091" y1="-0.495421" x2="0.288776" y2="0.349311" style="stroke:rgb(246,147,147);stroke-width:0.01" />
<line x1="0.120468" y1="0.0800202" x2="0.292751" y2="0.346139" style="stroke:rgb(246,147,147);stroke-width:0.01" />
<line x1="-0.450241" y1="-0.392859" x2="-0.0963149" y2="0.284615" style="stroke:rgb(246,147,147);stroke-width:0.01" />
<line x1="-0.432787" y1="-0.402333" x2="-0.0562626" y2="0.291344" style="stroke:rgb(246,147,147);stroke-width:0.01" />
<line x1="-0.383192" y1="-0.36657" x2="0.0961952" y2="0.316957" style="stroke:rgb(246,147,147);stroke-width:0.01" />
</g>
</svg>
