<svg xmlns="http://www.w3.org/2000/svg" viewBox="-1.5 -1.5 3 3">
<g transform="scale(1, -1)">
<path d="M-0.372993 -0.600730 L-0.048418 -0.524818 L0.524818 -0.048418 L0.372993 0.600730 L0.048418 0.524818 L-0.524818 0.048418 z " fill="rgb(245,195,195)" />
<path d="M-745985401459816192.000000 -1201459854014627840.000000 L-745985401459816192.000000 -1201459854014627840.000000 L-745985401459816192.000000 -1201459854014627840.000000 L-745985401459816192.000000 -1201459854014627840.000000  z" fill="none" stroke="rgb(128,128,128)" stroke-width="0.01" />
<line x1="-0.0484185" y1="-0.524818" x2="0.219611" y2="0.0855961" style="stroke:rgb(246,147,147);stroke-width:0.01" />
<line x1="-0.219611" y1="-0.0855961" x2="0.0484185" y2="0.524818" style="stroke:rgb(246,147,147);stroke-width:0.01" />
<line x1="-0.372993" y1="-0.60073" x2="-0.524818" y2="0.0484185" style="stroke:rgb(246,147,147);stroke-width:0.01" />
<line x1="0.524818" y1="-0.0484185" x2="0.372993" y2="0.60073" style="stroke:rgb(246,147,147);stroke-width:0.01" />
<line x1="-0.0484185" y1="-0.524818" x2="0.524818" y2="-0.0484185" style="stroke:rgb(246,147,147);stroke-width:0.01" />
<line x1="-0.524818" y1="0.0484185" x2="0.0484185" y2="0.524818" style="stroke:rgb(246,147,147);stroke-width:0.01" />
<line x1="-0.372993" y1="-0.60073" x2="-0.0484185" y2="-0.524818" style="stroke:rgb(246,147,147);stroke-width:0.01" />
<line x1="0.0484185" y1="0.524818" x2="0.372993" y2="0.60073" style="stroke:rgb(246,147,147);stroke-width:0.01" />
<line x1="-0.219611" y1="-0.0855961" x2="-0.524818" y2="0.0484185" style="stroke:rgb(246,147,147);stroke-width:0.01" />
<line x1="0.524818" y1="-0.0484185" x2="0.219611" y2="0.0855961" style="stroke:rgb(246,147,147);stroke-width:0.01" />
</g>
</svg>
