<svg xmlns="http://www.w3.org/2000/svg" viewBox="-1.5 -1.5 3 3">
<g transform="scale(1, -1)">
<path d="M-0.404219 -0.171428 L0.540800 -0.151164 L0.592655 -0.123700 L0.584987 0.120589 L0.270888 0.110730 L0.218769 0.147789 L0.190323 0.108202 L-0.000654 0.102207 L-0.121461 -0.023891 L-0.310724 -0.027480 L-0.340141 -0.013659 L-0.406793 -0.015088 L-0.406534 -0.030849 L-0.407896 -0.032257 z " fill="rgb(245,195,195)" />
<path d="M3.558682 -0.169704 L4.558682 -0.169704 L4.558682 0.830296 L3.558682 0.830296  z" fill="none" stroke="rgb(128,128,128)" stroke-width="0.01" />
<line x1="-0.259841" y1="-0.168332" x2="-0.405004" y2="-0.0292678" style="stroke:rgb(246,147,147);stroke-width:0.01" />
<line x1="-0.218081" y1="-0.167437" x2="-0.340141" y2="-0.0136592" style="stroke:rgb(246,147,147);stroke-width:0.01" />
<line x1="-0.138904" y1="-0.165739" x2="-0.315023" y2="-0.0397214" style="stroke:rgb(246,147,147);stroke-width:0.01" />
<line x1="-0.00444732" y1="-0.162856" x2="-0.113745" y2="-0.0237452" style="stroke:rgb(246,147,147);stroke-width:0.01" />
<line x1="0.363671" y1="-0.154962" x2="0.256172" y2="-0.0167311" style="stroke:rgb(246,147,147);stroke-width:0.01" />
<line x1="0.592655" y1="-0.1237" x2="0.218769" y2="0.147789" style="stroke:rgb(246,147,147);stroke-width:0.01" />
<line x1="-0.0217937" y1="-0.163228" x2="-0.340141" y2="-0.0136592" style="stroke:rgb(246,147,147);stroke-width:0.01" />
<line x1="0.457992" y1="-0.0223087" x2="0.218769" y2="0.147789" style="stroke:rgb(246,147,147);stroke-width:0.01" />
<line x1="0.5408" y1="-0.151164" x2="0.258237" y2="-0.0166919" style="stroke:rgb(246,147,147);stroke-width:0.01" />
<line x1="-0.375851" y1="-0.17082" x2="-0.402897" y2="-0.162533" style="stroke:rgb(246,147,147);stroke-width:0.01" />
<line x1="0.00238687" y1="-0.162709" x2="-0.00204498" y2="-0.0216272" style="stroke:rgb(246,147,147);stroke-width:0.01" />
<line x1="-0.404219" y1="-0.171428" x2="-0.407896" y2="-0.0322569" style="stroke:rgb(246,147,147);stroke-width:0.01" />
<line x1="-0.402897" y1="-0.162533" x2="-0.406793" y2="-0.0150885" style="stroke:rgb(246,147,147);stroke-width:0.01" />
<line x1="0.592655" y1="-0.1237" x2="0.584987" y2="0.120589" style="stroke:rgb(246,147,147);stroke-width:0.01" />
<line x1="-0.404219" y1="-0.171428" x2="-0.406793" y2="-0.0150885" style="stroke:rgb(246,147,147);stroke-width:0.01" />
<line x1="0.00238687" y1="-0.162709" x2="-0.000653912" y2="0.102207" style="stroke:rgb(246,147,147);stroke-width:0.01" />
<line x1="-0.00199296" y1="-0.0296123" x2="-0.00204498" y2="-0.0216272" style="stroke:rgb(246,147,147);stroke-width:0.01" />
<line x1="-0.404219" y1="-0.171428" x2="0.5408" y2="-0.151164" style="stroke:rgb(246,147,147);stroke-width:0.01" />
<line x1="-0.407896" y1="-0.0322569" x2="-0.00199296" y2="-0.0296123" style="stroke:rgb(246,147,147);stroke-width:0.01" />
<line x1="0.0449804" y1="-0.021858" x2="0.254973" y2="-0.0184001" style="stroke:rgb(246,147,147);stroke-width:0.01" />
<line x1="-0.405004" y1="-0.0292678" x2="0.258237" y2="-0.0166919" style="stroke:rgb(246,147,147);stroke-width:0.01" />
<line x1="-0.406793" y1="-0.0150885" x2="-0.340141" y2="-0.0136592" style="stroke:rgb(246,147,147);stroke-width:0.01" />
<line x1="-0.000653912" y1="0.102207" x2="0.584987" y2="0.120589" style="stroke:rgb(246,147,147);stroke-width:0.01" />
<line x1="-0.375851" y1="-0.17082" x2="0.0449804" y2="-0.021858" style="stroke:rgb(246,147,147);stroke-width:0.01" />
<line x1="0.5408" y1="-0.151164" x2="0.592655" y2="-0.1237" style="stroke:rgb(246,147,147);stroke-width:0.01" />
<line x1="-0.0217937" y1="-0.163228" x2="0.258237" y2="-0.0166919" style="stroke:rgb(246,147,147);stroke-width:0.01" />
<line x1="0.363671" y1="-0.154962" x2="0.457992" y2="-0.0223087" style="stroke:rgb(246,147,147);stroke-width:0.01" />
<line x1="0.254973" y1="-0.0184001" x2="0.256172" y2="-0.0167311" style="stroke:rgb(246,147,147);stroke-width:0.01" />
<line x1="-0.00444732" y1="-0.162856" x2="0.218769" y2="0.147789" style="stroke:rgb(246,147,147);stroke-width:0.01" />
<line x1="-0.218081" y1="-0.167437" x2="-0.113745" y2="-0.0237452" style="stroke:rgb(246,147,147);stroke-width:0.01" />
<line x1="-0.138904" y1="-0.165739" x2="0.0449804" y2="-0.021858" style="stroke:rgb(246,147,147);stroke-width:0.01" />
<line x1="-0.402897" y1="-0.162533" x2="-0.315023" y2="-0.0397214" style="stroke:rgb(246,147,147);stroke-width:0.01" />
<line x1="-0.259841" y1="-0.168332" x2="-0.000653912" y2="0.102207" style="stroke:rgb(246,147,147);stroke-width:0.01" />
<line x1="-0.407896" y1="-0.0322569" x2="-0.405004" y2="-0.0292678" style="stroke:rgb(246,147,147);stroke-width:0.01" />
</g>
</svg>
