<svg xmlns="http://www.w3.org/2000/svg" viewBox="-1.5 -1.5 3 3">
<g transform="scale(1, -1)">
<path d="M0.399050 -0.736141 L0.490531 -0.614343 L0.172031 0.289282 L0.025417 0.431526 L-0.107308 0.325408 L-0.095291 0.292560 L-0.086953 0.281916 L-0.398776 -0.133247 L-0.398702 -0.136961 z " fill="rgb(245,195,195)" />
<path d="M-1.159807 0.593831 L-0.159807 0.593831 L-0.159807 1.593831 L-1.159807 1.593831  z" fill="none" stroke="rgb(128,128,128)" stroke-width="0.01" />
<line x1="0.185214" y1="-0.536755" x2="0.405131" y2="-0.372053" style="stroke:rgb(246,147,147);stroke-width:0.01" />
<line x1="0.39905" y1="-0.736141" x2="0.490531" y2="-0.614343" style="stroke:rgb(246,147,147);stroke-width:0.01" />
<line x1="0.247442" y1="-0.377564" x2="0.405131" y2="-0.372053" style="stroke:rgb(246,147,147);stroke-width:0.01" />
<line x1="0.247442" y1="-0.377564" x2="0.34754" y2="-0.376049" style="stroke:rgb(246,147,147);stroke-width:0.01" />
<line x1="0.143379" y1="0.0571002" x2="0.230035" y2="0.124718" style="stroke:rgb(246,147,147);stroke-width:0.01" />
<line x1="0.161762" y1="0.206069" x2="0.192682" y2="0.230692" style="stroke:rgb(246,147,147);stroke-width:0.01" />
<line x1="0.0169538" y1="0.199071" x2="0.0582377" y2="0.229989" style="stroke:rgb(246,147,147);stroke-width:0.01" />
<line x1="-0.398702" y1="-0.136961" x2="-0.396927" y2="-0.135513" style="stroke:rgb(246,147,147);stroke-width:0.01" />
<line x1="0.490531" y1="-0.614343" x2="0.185214" y2="-0.536755" style="stroke:rgb(246,147,147);stroke-width:0.01" />
<line x1="-0.0447479" y1="0.312324" x2="-0.0177032" y2="0.327825" style="stroke:rgb(246,147,147);stroke-width:0.01" />
<line x1="-0.107308" y1="0.325408" x2="0.0254169" y2="0.431526" style="stroke:rgb(246,147,147);stroke-width:0.01" />
<line x1="0.114081" y1="-0.180319" x2="0.242234" y2="0.0901075" style="stroke:rgb(246,147,147);stroke-width:0.01" />
<line x1="-0.398776" y1="-0.133247" x2="0.0254169" y2="0.431526" style="stroke:rgb(246,147,147);stroke-width:0.01" />
<line x1="0.202477" y1="0.124301" x2="0.230035" y2="0.124718" style="stroke:rgb(246,147,147);stroke-width:0.01" />
<line x1="-0.0458448" y1="0.229445" x2="0.192682" y2="0.230692" style="stroke:rgb(246,147,147);stroke-width:0.01" />
<line x1="-0.107308" y1="0.325408" x2="-0.0177032" y2="0.327825" style="stroke:rgb(246,147,147);stroke-width:0.01" />
<line x1="0.114081" y1="-0.180319" x2="0.172031" y2="0.289282" style="stroke:rgb(246,147,147);stroke-width:0.01" />
<line x1="0.39905" y1="-0.736141" x2="-0.398702" y2="-0.136961" style="stroke:rgb(246,147,147);stroke-width:0.01" />
<line x1="0.202477" y1="0.124301" x2="0.11172" y2="0.153234" style="stroke:rgb(246,147,147);stroke-width:0.01" />
<line x1="-0.398702" y1="-0.136961" x2="-0.398776" y2="-0.133247" style="stroke:rgb(246,147,147);stroke-width:0.01" />
<line x1="0.34754" y1="-0.376049" x2="0.344894" y2="-0.201151" style="stroke:rgb(246,147,147);stroke-width:0.01" />
<line x1="0.0169538" y1="0.199071" x2="0.0167952" y2="0.204948" style="stroke:rgb(246,147,147);stroke-width:0.01" />
<line x1="0.247442" y1="-0.377564" x2="0.235236" y2="0.109962" style="stroke:rgb(246,147,147);stroke-width:0.01" />
<line x1="-0.396927" y1="-0.135513" x2="-0.398776" y2="-0.133247" style="stroke:rgb(246,147,147);stroke-width:0.01" />
<line x1="0.242234" y1="0.0901075" x2="-0.0458448" y2="0.229445" style="stroke:rgb(246,147,147);stroke-width:0.01" />
<line x1="0.185214" y1="-0.536755" x2="0.114081" y2="-0.180319" style="stroke:rgb(246,147,147);stroke-width:0.01" />
<line x1="0.0167952" y1="0.204948" x2="-0.0177032" y2="0.327825" style="stroke:rgb(246,147,147);stroke-width:0.01" />
<line x1="0.11172" y1="0.153234" x2="-0.095291" y2="0.29256" style="stroke:rgb(246,147,147);stroke-width:0.01" />
<line x1="-0.095291" y1="0.29256" x2="-0.107308" y2="0.325408" style="stroke:rgb(246,147,147);stroke-width:0.01" />
<line x1="0.202477" y1="0.124301" x2="0.0582377" y2="0.229989" style="stroke:rgb(246,147,147);stroke-width:0.01" />
<line x1="0.490531" y1="-0.614343" x2="0.172031" y2="0.289282" style="stroke:rgb(246,147,147);stroke-width:0.01" />
<line x1="-0.0458448" y1="0.229445" x2="-0.095291" y2="0.29256" style="stroke:rgb(246,147,147);stroke-width:0.01" />
<line x1="0.0167952" y1="0.204948" x2="-0.0447479" y2="0.312324" style="stroke:rgb(246,147,147);stroke-width:0.01" />
<line x1="0.344894" y1="-0.201151" x2="0.143379" y2="0.0571002" style="stroke:rgb(246,147,147);stroke-width:0.01" />
<line x1="0.235236" y1="0.109962" x2="0.161762" y2="0.206069" style="stroke:rgb(246,147,147);stroke-width:0.01" />
<line x1="0.172031" y1="0.289282" x2="0.0254169" y2="0.431526" style="stroke:rgb(246,147,147);stroke-width:0.01" />
</g>
</svg>
