<svg xmlns="http://www.w3.org/2000/svg" viewBox="-1.5 -1.5 3 3">
<g transform="scale(1, -1)">
<path d="M0.200000 -0.266667 L0.233333 -0.033333 L0.133333 0.100000 L0.266667 0.200000 L0.033333 0.233333 L-0.100000 0.133333 L-0.200000 0.266667 L-0.233333 0.033333 L-0.133333 -0.100000 L-0.266667 -0.200000 L-0.033333 -0.233333 L0.100000 -0.133333 z " fill="rgb(245,195,195)" />
<path d="M-0.700000 0.100000 L0.300000 0.100000 L0.300000 1.100000 L-0.700000 1.100000  z" fill="none" stroke="rgb(128,128,128)" stroke-width="0.01" />
<line x1="-0.0333333" y1="-0.233333" x2="0.233333" y2="-0.0333333" style="stroke:rgb(246,147,147);stroke-width:0.01" />
<line x1="-0.266667" y1="-0.2" x2="0.266667" y2="0.2" style="stroke:rgb(246,147,147);stroke-width:0.01" />
<line x1="-0.233333" y1="0.0333333" x2="0.0333333" y2="0.233333" style="stroke:rgb(246,147,147);stroke-width:0.01" />
<line x1="-0.0333333" y1="-0.233333" x2="-0.266667" y2="-0.2" style="stroke:rgb(246,147,147);stroke-width:0.01" />
<line x1="0.2" y1="-0.266667" x2="0.233333" y2="-0.0333333" style="stroke:rgb(246,147,147);stroke-width:0.01" />
<line x1="0.216667" y1="-0.15" x2="-0.133333" y2="-0.1" style="stroke:rgb(246,147,147);stroke-width:0.01" />
<line x1="0.1" y1="-0.133333" x2="0.15" y2="0.216667" style="stroke:rgb(246,147,147);stroke-width:0.01" />
<line x1="-0.0333333" y1="-0.233333" x2="0.0333333" y2="0.233333" style="stroke:rgb(246,147,147);stroke-width:0.01" />
<line x1="-0.15" y1="-0.216667" x2="-0.1" y2="0.133333" style="stroke:rgb(246,147,147);stroke-width:0.01" />
<line x1="-0.233333" y1="0.0333333" x2="-0.2" y2="0.266667" style="stroke:rgb(246,147,147);stroke-width:0.01" />
<line x1="0.233333" y1="-0.0333333" x2="-0.233333" y2="0.0333333" style="stroke:rgb(246,147,147);stroke-width:0.01" />
<line x1="0.133333" y1="0.1" x2="-0.216667" y2="0.15" style="stroke:rgb(246,147,147);stroke-width:0.01" />
<line x1="-0.0333333" y1="-0.233333" x2="-0.233333" y2="0.0333333" style="stroke:rgb(246,147,147);stroke-width:0.01" />
<line x1="0.266667" y1="0.2" x2="0.0333333" y2="0.233333" style="stroke:rgb(246,147,147);stroke-width:0.01" />
<line x1="0.2" y1="-0.266667" x2="-0.2" y2="0.266667" style="stroke:rgb(246,147,147);stroke-width:0.01" />
<line x1="0.233333" y1="-0.0333333" x2="0.0333333" y2="0.233333" style="stroke:rgb(246,147,147);stroke-width:0.01" />
</g>
</svg>
