<svg xmlns="http://www.w3.org/2000/svg" viewBox="-1.5 -1.5 3 3">
<g transform="scale(1, -1)">
<path d="M0.900000 -0.366667 L0.933333 -0.133333 L0.833333 0.000000 L0.966667 0.100000 L0.733333 0.133333 L0.600000 0.033333 L0.500000 0.166667 L0.466667 -0.066667 L0.566667 -0.200000 L0.433333 -0.300000 L0.666667 -0.333333 L0.800000 -0.233333 z " fill="rgb(245,195,195)" />
<path d="M0.000000 0.000000 L1.000000 0.000000 L1.000000 1.000000 L0.000000 1.000000  z" fill="none" stroke="rgb(128,128,128)" stroke-width="0.01" />
<line x1="0.666667" y1="-0.333333" x2="0.933333" y2="-0.133333" style="stroke:rgb(246,147,147);stroke-width:0.01" />
<line x1="0.433333" y1="-0.3" x2="0.966667" y2="0.1" style="stroke:rgb(246,147,147);stroke-width:0.01" />
<line x1="0.466667" y1="-0.0666667" x2="0.733333" y2="0.133333" style="stroke:rgb(246,147,147);stroke-width:0.01" />
<line x1="0.666667" y1="-0.333333" x2="0.433333" y2="-0.3" style="stroke:rgb(246,147,147);stroke-width:0.01" />
<line x1="0.9" y1="-0.366667" x2="0.933333" y2="-0.133333" style="stroke:rgb(246,147,147);stroke-width:0.01" />
<line x1="0.916667" y1="-0.25" x2="0.566667" y2="-0.2" style="stroke:rgb(246,147,147);stroke-width:0.01" />
<line x1="0.8" y1="-0.233333" x2="0.85" y2="0.116667" style="stroke:rgb(246,147,147);stroke-width:0.01" />
<line x1="0.666667" y1="-0.333333" x2="0.733333" y2="0.133333" style="stroke:rgb(246,147,147);stroke-width:0.01" />
<line x1="0.55" y1="-0.316667" x2="0.6" y2="0.0333333" style="stroke:rgb(246,147,147);stroke-width:0.01" />
<line x1="0.466667" y1="-0.0666667" x2="0.5" y2="0.166667" style="stroke:rgb(246,147,147);stroke-width:0.01" />
<line x1="0.933333" y1="-0.133333" x2="0.466667" y2="-0.0666667" style="stroke:rgb(246,147,147);stroke-width:0.01" />
<line x1="0.833333" y1="0" x2="0.483333" y2="0.05" style="stroke:rgb(246,147,147);stroke-width:0.01" />
<line x1="0.666667" y1="-0.333333" x2="0.466667" y2="-0.0666667" style="stroke:rgb(246,147,147);stroke-width:0.01" />
<line x1="0.966667" y1="0.1" x2="0.733333" y2="0.133333" style="stroke:rgb(246,147,147);stroke-width:0.01" />
<line x1="0.9" y1="-0.366667" x2="0.5" y2="0.166667" style="stroke:rgb(246,147,147);stroke-width:0.01" />
<line x1="0.933333" y1="-0.133333" x2="0.733333" y2="0.133333" style="stroke:rgb(246,147,147);stroke-width:0.01" />
</g>
</svg>
