<svg xmlns="http://www.w3.org/2000/svg" viewBox="-1.5 -1.5 3 3">
<g transform="scale(1, -1)">
<path d="M0.252219 -0.508170 L0.290187 -0.011803 L0.397801 0.111427 L0.305761 0.191803 L-0.047575 0.047263 L-0.039350 0.181017 L-0.209786 0.192349 L-0.209899 0.190654 L-0.244768 0.192624 L-0.414322 -0.102762 L-0.080270 -0.484401 z " fill="rgb(245,195,195)" />
<path d="M-0.800259 -1.264223 L0.199741 -1.264223 L0.199741 -0.264223 L-0.800259 -0.264223  z" fill="none" stroke="rgb(128,128,128)" stroke-width="0.01" />
<line x1="-0.205082" y1="-0.335689" x2="-0.191085" y2="-0.292681" style="stroke:rgb(246,147,147);stroke-width:0.01" />
<line x1="0.252219" y1="-0.50817" x2="0.305761" y2="0.191803" style="stroke:rgb(246,147,147);stroke-width:0.01" />
<line x1="0.252219" y1="-0.50817" x2="0.263882" y2="-0.33277" style="stroke:rgb(246,147,147);stroke-width:0.01" />
<line x1="-0.0802697" y1="-0.484401" x2="-0.0393497" y2="0.181017" style="stroke:rgb(246,147,147);stroke-width:0.01" />
<line x1="-0.242463" y1="-0.299103" x2="-0.209786" y2="0.192349" style="stroke:rgb(246,147,147);stroke-width:0.01" />
<line x1="-0.101419" y1="-0.460239" x2="0.397801" y2="0.111427" style="stroke:rgb(246,147,147);stroke-width:0.01" />
<line x1="-0.414322" y1="-0.102762" x2="-0.244768" y2="0.192624" style="stroke:rgb(246,147,147);stroke-width:0.01" />
<line x1="-0.219805" y1="-0.283334" x2="-0.0561462" y2="-0.0921182" style="stroke:rgb(246,147,147);stroke-width:0.01" />
<line x1="-0.205082" y1="-0.335689" x2="-0.219805" y2="-0.283334" style="stroke:rgb(246,147,147);stroke-width:0.01" />
<line x1="-0.101419" y1="-0.460239" x2="-0.0778226" y2="-0.444608" style="stroke:rgb(246,147,147);stroke-width:0.01" />
<line x1="-0.0802697" y1="-0.484401" x2="-0.414322" y2="-0.102762" style="stroke:rgb(246,147,147);stroke-width:0.01" />
<line x1="-0.0561462" y1="-0.0921182" x2="-0.244768" y2="0.192624" style="stroke:rgb(246,147,147);stroke-width:0.01" />
<line x1="0.252219" y1="-0.50817" x2="-0.0802697" y2="-0.484401" style="stroke:rgb(246,147,147);stroke-width:0.01" />
<line x1="-0.0778226" y1="-0.444608" x2="-0.205082" y2="-0.335689" style="stroke:rgb(246,147,147);stroke-width:0.01" />
<line x1="-0.414322" y1="-0.102762" x2="0.305761" y2="0.191803" style="stroke:rgb(246,147,147);stroke-width:0.01" />
<line x1="0.263882" y1="-0.33277" x2="-0.242463" y2="-0.299103" style="stroke:rgb(246,147,147);stroke-width:0.01" />
<line x1="-0.191085" y1="-0.292681" x2="-0.219805" y2="-0.283334" style="stroke:rgb(246,147,147);stroke-width:0.01" />
<line x1="0.397801" y1="0.111427" x2="0.305761" y2="0.191803" style="stroke:rgb(246,147,147);stroke-width:0.01" />
<line x1="-0.0393497" y1="0.181017" x2="-0.244768" y2="0.192624" style="stroke:rgb(246,147,147);stroke-width:0.01" />
<line x1="-0.0393497" y1="0.181017" x2="-0.209786" y2="0.192349" style="stroke:rgb(246,147,147);stroke-width:0.01" />
</g>
</svg>
