<svg xmlns="http://www.w3.org/2000/svg" viewBox="-1.5 -1.5 3 3">
<g transform="scale(1, -1)">
<path d="M-0.072797 -0.233716 L0.084291 -0.229885 L0.160920 -0.149425 L0.157088 0.007663 L-0.003831 0.160920 L-0.157088 0.000000 L-0.153257 -0.157088 z M0.003831 -0.153257 L-0.076628 -0.076628 L0.000000 0.003831 L0.080460 -0.072797 z " fill="rgb(245,195,195)" />
<path d="M0.000000 0.000000 L1.000000 0.000000 L1.000000 1.000000 L0.000000 1.000000  z" fill="none" stroke="rgb(128,128,128)" stroke-width="0.01" />
<line x1="-0.0727969" y1="-0.233716" x2="0.0842912" y2="-0.229885" style="stroke:rgb(246,147,147);stroke-width:0.01" />
<line x1="-0.0727969" y1="-0.233716" x2="-0.153257" y2="-0.157088" style="stroke:rgb(246,147,147);stroke-width:0.01" />
<line x1="0.0842912" y1="-0.229885" x2="0.16092" y2="-0.149425" style="stroke:rgb(246,147,147);stroke-width:0.01" />
<line x1="0.0842912" y1="-0.229885" x2="-0.157088" y2="0" style="stroke:rgb(246,147,147);stroke-width:0.01" />
<line x1="-0.0727969" y1="-0.233716" x2="0.157088" y2="0.00766284" style="stroke:rgb(246,147,147);stroke-width:0.01" />
<line x1="-0.153257" y1="-0.157088" x2="-0.157088" y2="0" style="stroke:rgb(246,147,147);stroke-width:0.01" />
<line x1="0" y1="0.00383142" x2="-0.00383142" y2="0.16092" style="stroke:rgb(246,147,147);stroke-width:0.01" />
<line x1="-0.153257" y1="-0.157088" x2="0.0766284" y2="0.0842912" style="stroke:rgb(246,147,147);stroke-width:0.01" />
<line x1="0.16092" y1="-0.149425" x2="-0.0804598" y2="0.0804598" style="stroke:rgb(246,147,147);stroke-width:0.01" />
<line x1="0.16092" y1="-0.149425" x2="0.157088" y2="0.00766284" style="stroke:rgb(246,147,147);stroke-width:0.01" />
<line x1="-0.157088" y1="0" x2="-0.00383142" y2="0.16092" style="stroke:rgb(246,147,147);stroke-width:0.01" />
<line x1="0.157088" y1="0.00766284" x2="-0.00383142" y2="0.16092" style="stroke:rgb(246,147,147);stroke-width:0.01" />
</g>
</svg>
