<svg xmlns="http://www.w3.org/2000/svg" viewBox="-1.5 -1.5 3 3">
<g transform="scale(1, -1)">
<path d="M-0.074887 -0.151863 L0.082201 -0.148032 L0.158830 -0.067572 L0.154998 0.089516 L-0.005921 0.242773 L-0.159178 0.081853 L-0.155347 -0.075235 z M0.001742 -0.071404 L-0.078718 0.005225 L-0.002090 0.085684 L0.078370 0.009056 z " fill="rgb(245,195,195)" />
<path d="M-0.002090 0.081853 L0.997910 0.081853 L0.997910 1.081853 L-0.002090 1.081853  z" fill="none" stroke="rgb(128,128,128)" stroke-width="0.01" />
<line x1="-0.0748868" y1="-0.151863" x2="0.0822013" y2="-0.148032" style="stroke:rgb(246,147,147);stroke-width:0.01" />
<line x1="-0.0748868" y1="-0.151863" x2="-0.155347" y2="-0.0752351" style="stroke:rgb(246,147,147);stroke-width:0.01" />
<line x1="0.0822013" y1="-0.148032" x2="0.15883" y2="-0.0675723" style="stroke:rgb(246,147,147);stroke-width:0.01" />
<line x1="0.0822013" y1="-0.148032" x2="-0.159178" y2="0.081853" style="stroke:rgb(246,147,147);stroke-width:0.01" />
<line x1="-0.0748868" y1="-0.151863" x2="0.154998" y2="0.0895158" style="stroke:rgb(246,147,147);stroke-width:0.01" />
<line x1="-0.155347" y1="-0.0752351" x2="-0.159178" y2="0.081853" style="stroke:rgb(246,147,147);stroke-width:0.01" />
<line x1="-0.00208986" y1="0.0856844" x2="-0.00592128" y2="0.242773" style="stroke:rgb(246,147,147);stroke-width:0.01" />
<line x1="-0.155347" y1="-0.0752351" x2="0.0745385" y2="0.166144" style="stroke:rgb(246,147,147);stroke-width:0.01" />
<line x1="0.15883" y1="-0.0675723" x2="-0.0825496" y2="0.162313" style="stroke:rgb(246,147,147);stroke-width:0.01" />
<line x1="0.15883" y1="-0.0675723" x2="0.154998" y2="0.0895158" style="stroke:rgb(246,147,147);stroke-width:0.01" />
<line x1="-0.159178" y1="0.081853" x2="-0.00592128" y2="0.242773" style="stroke:rgb(246,147,147);stroke-width:0.01" />
<line x1="0.154998" y1="0.0895158" x2="-0.00592128" y2="0.242773" style="stroke:rgb(246,147,147);stroke-width:0.01" />
</g>
</svg>
