<svg xmlns="http://www.w3.org/2000/svg" viewBox="-1.5 -1.5 3 3">
<g transform="scale(1, -1)">
<path d="M-0.144198 -0.156970 L0.043302 0.030530 L0.105802 -0.031970 L0.230802 0.093030 L0.480802 0.093030 L0.355802 0.218030 L-0.144198 0.218030 L-0.144198 -0.031970 L-0.254435 -0.142206 L-0.268092 -0.140377 L-0.261386 -0.149157 z " fill="rgb(245,195,195)" />
<path d="M-0.144198 -0.281970 L0.855802 -0.281970 L0.855802 0.718030 L-0.144198 0.718030  z" fill="none" stroke="rgb(128,128,128)" stroke-width="0.01" />
<line x1="-0.261386" y1="-0.149157" x2="-0.268092" y2="-0.140377" style="stroke:rgb(246,147,147);stroke-width:0.01" />
<line x1="0.105802" y1="-0.0319699" x2="0.355802" y2="0.21803" style="stroke:rgb(246,147,147);stroke-width:0.01" />
<line x1="-0.144198" y1="-0.15697" x2="-0.144198" y2="0.21803" style="stroke:rgb(246,147,147);stroke-width:0.01" />
<line x1="-0.144198" y1="-0.15697" x2="0.230802" y2="0.21803" style="stroke:rgb(246,147,147);stroke-width:0.01" />
<line x1="-0.144198" y1="-0.15697" x2="-0.268092" y2="-0.140377" style="stroke:rgb(246,147,147);stroke-width:0.01" />
<line x1="-0.144198" y1="-0.15697" x2="-0.261386" y2="-0.149157" style="stroke:rgb(246,147,147);stroke-width:0.01" />
<line x1="-0.261386" y1="-0.149157" x2="0.105802" y2="0.21803" style="stroke:rgb(246,147,147);stroke-width:0.01" />
<line x1="-0.144198" y1="0.0930301" x2="-0.0191984" y2="0.21803" style="stroke:rgb(246,147,147);stroke-width:0.01" />
<line x1="0.105802" y1="-0.0319699" x2="-0.144198" y2="0.21803" style="stroke:rgb(246,147,147);stroke-width:0.01" />
<line x1="0.168302" y1="0.0305301" x2="-0.0191984" y2="0.21803" style="stroke:rgb(246,147,147);stroke-width:0.01" />
<line x1="-0.144198" y1="0.0930301" x2="0.480802" y2="0.0930301" style="stroke:rgb(246,147,147);stroke-width:0.01" />
<line x1="0.230802" y1="0.0930301" x2="0.105802" y2="0.21803" style="stroke:rgb(246,147,147);stroke-width:0.01" />
<line x1="0.293302" y1="0.15553" x2="0.230802" y2="0.21803" style="stroke:rgb(246,147,147);stroke-width:0.01" />
<line x1="-0.144198" y1="0.21803" x2="0.355802" y2="0.21803" style="stroke:rgb(246,147,147);stroke-width:0.01" />
<line x1="0.480802" y1="0.0930301" x2="0.355802" y2="0.21803" style="stroke:rgb(246,147,147);stroke-width:0.01" />
</g>
</svg>
