<svg xmlns="http://www.w3.org/2000/svg" viewBox="-1.5 -1.5 3 3">
<g transform="scale(1, -1)">
<path d="M0.115082 -0.126370 L0.133374 -0.045069 L0.120067 -0.040888 L0.120210 -0.040252 L0.106696 -0.036006 L0.106839 -0.035371 L0.093119 -0.031060 L0.093261 -0.030424 L0.079335 -0.026048 L0.129211 0.195623 L-0.321832 0.297108 L-0.387049 0.349282 L-0.470382 0.330532 L-0.470382 0.054877 L0.060042 -0.111795 L0.060288 -0.111193 L0.074111 -0.115536 L0.074357 -0.114933 L0.087974 -0.119212 L0.088220 -0.118610 L0.107460 -0.124655 z " fill="rgb(245,195,195)" />
<path d="M-1.220382 0.049282 L-0.220382 0.049282 L-0.220382 1.049282 L-1.220382 1.049282  z" fill="none" stroke="rgb(128,128,128)" stroke-width="0.01" />
<line x1="0.101631" y1="-0.122824" x2="0.133374" y2="-0.0450691" style="stroke:rgb(246,147,147);stroke-width:0.01" />
<line x1="0.0879744" y1="-0.119212" x2="0.12021" y2="-0.0402524" style="stroke:rgb(246,147,147);stroke-width:0.01" />
<line x1="0.0741113" y1="-0.115536" x2="0.106839" y2="-0.0353708" style="stroke:rgb(246,147,147);stroke-width:0.01" />
<line x1="0.0600419" y1="-0.111795" x2="0.0932614" y2="-0.0304244" style="stroke:rgb(246,147,147);stroke-width:0.01" />
<line x1="-0.461105" y1="0.156704" x2="-0.303716" y2="0.282615" style="stroke:rgb(246,147,147);stroke-width:0.01" />
<line x1="0.115082" y1="-0.12637" x2="0.133374" y2="-0.0450691" style="stroke:rgb(246,147,147);stroke-width:0.01" />
<line x1="0.101631" y1="-0.122824" x2="0.12021" y2="-0.0402524" style="stroke:rgb(246,147,147);stroke-width:0.01" />
<line x1="0.0879744" y1="-0.119212" x2="0.106839" y2="-0.0353708" style="stroke:rgb(246,147,147);stroke-width:0.01" />
<line x1="0.0741113" y1="-0.115536" x2="0.0932614" y2="-0.0304244" style="stroke:rgb(246,147,147);stroke-width:0.01" />
<line x1="0.0600419" y1="-0.111795" x2="0.129211" y2="0.195623" style="stroke:rgb(246,147,147);stroke-width:0.01" />
<line x1="-0.470382" y1="0.0548773" x2="-0.303716" y2="0.107248" style="stroke:rgb(246,147,147);stroke-width:0.01" />
<line x1="-0.470382" y1="0.111248" x2="-0.303716" y2="0.17929" style="stroke:rgb(246,147,147);stroke-width:0.01" />
<line x1="-0.470382" y1="0.0555573" x2="-0.303716" y2="0.107928" style="stroke:rgb(246,147,147);stroke-width:0.01" />
<line x1="-0.470382" y1="0.0562374" x2="-0.303716" y2="0.108608" style="stroke:rgb(246,147,147);stroke-width:0.01" />
<line x1="-0.470382" y1="0.0569175" x2="-0.303716" y2="0.109288" style="stroke:rgb(246,147,147);stroke-width:0.01" />
<line x1="-0.470382" y1="0.144646" x2="-0.303716" y2="0.197017" style="stroke:rgb(246,147,147);stroke-width:0.01" />
<line x1="-0.470382" y1="0.145326" x2="-0.303716" y2="0.197697" style="stroke:rgb(246,147,147);stroke-width:0.01" />
<line x1="-0.470382" y1="0.146007" x2="-0.303716" y2="0.198377" style="stroke:rgb(246,147,147);stroke-width:0.01" />
<line x1="-0.470382" y1="0.146687" x2="-0.303716" y2="0.199057" style="stroke:rgb(246,147,147);stroke-width:0.01" />
<line x1="-0.452153" y1="0.0492819" x2="-0.365475" y2="0.0638293" style="stroke:rgb(246,147,147);stroke-width:0.01" />
<line x1="-0.452714" y1="0.0638293" x2="-0.36732" y2="0.0781612" style="stroke:rgb(246,147,147);stroke-width:0.01" />
<line x1="-0.453258" y1="0.0781612" x2="-0.369148" y2="0.0922776" style="stroke:rgb(246,147,147);stroke-width:0.01" />
<line x1="-0.453783" y1="0.0922776" x2="-0.370957" y2="0.106178" style="stroke:rgb(246,147,147);stroke-width:0.01" />
<line x1="-0.454941" y1="0.106178" x2="-0.3734" y2="0.119864" style="stroke:rgb(246,147,147);stroke-width:0.01" />
<line x1="-0.452153" y1="0.0492819" x2="-0.303716" y2="0.0492819" style="stroke:rgb(246,147,147);stroke-width:0.01" />
<line x1="-0.470382" y1="0.0548773" x2="-0.470382" y2="0.330532" style="stroke:rgb(246,147,147);stroke-width:0.01" />
<line x1="-0.387049" y1="0.0492819" x2="-0.387049" y2="0.349282" style="stroke:rgb(246,147,147);stroke-width:0.01" />
<line x1="-0.303716" y1="0.0492819" x2="-0.303716" y2="0.282615" style="stroke:rgb(246,147,147);stroke-width:0.01" />
<line x1="-0.452714" y1="0.0638293" x2="-0.365475" y2="0.0638293" style="stroke:rgb(246,147,147);stroke-width:0.01" />
<line x1="-0.453258" y1="0.0781612" x2="-0.36732" y2="0.0781612" style="stroke:rgb(246,147,147);stroke-width:0.01" />
<line x1="-0.453783" y1="0.0922776" x2="-0.369148" y2="0.0922776" style="stroke:rgb(246,147,147);stroke-width:0.01" />
<line x1="-0.454941" y1="0.106178" x2="-0.370957" y2="0.106178" style="stroke:rgb(246,147,147);stroke-width:0.01" />
<line x1="-0.452153" y1="0.0492819" x2="-0.461105" y2="0.156704" style="stroke:rgb(246,147,147);stroke-width:0.01" />
<line x1="-0.452714" y1="0.0638293" x2="-0.460495" y2="0.157192" style="stroke:rgb(246,147,147);stroke-width:0.01" />
<line x1="-0.453258" y1="0.0781612" x2="-0.459884" y2="0.15768" style="stroke:rgb(246,147,147);stroke-width:0.01" />
<line x1="-0.453783" y1="0.0922776" x2="-0.459274" y2="0.158169" style="stroke:rgb(246,147,147);stroke-width:0.01" />
<line x1="-0.370957" y1="0.106178" x2="-0.380539" y2="0.221157" style="stroke:rgb(246,147,147);stroke-width:0.01" />
<line x1="-0.369148" y1="0.0922776" x2="-0.379928" y2="0.221645" style="stroke:rgb(246,147,147);stroke-width:0.01" />
<line x1="-0.36732" y1="0.0781612" x2="-0.379318" y2="0.222133" style="stroke:rgb(246,147,147);stroke-width:0.01" />
<line x1="-0.365475" y1="0.0638293" x2="-0.378708" y2="0.222622" style="stroke:rgb(246,147,147);stroke-width:0.01" />
<line x1="-0.470382" y1="0.330532" x2="-0.387049" y2="0.349282" style="stroke:rgb(246,147,147);stroke-width:0.01" />
<line x1="0.115082" y1="-0.12637" x2="0.10746" y2="-0.124655" style="stroke:rgb(246,147,147);stroke-width:0.01" />
<line x1="-0.3734" y1="0.119864" x2="-0.389233" y2="0.214202" style="stroke:rgb(246,147,147);stroke-width:0.01" />
<line x1="0.0600419" y1="-0.111795" x2="-0.470382" y2="0.0548773" style="stroke:rgb(246,147,147);stroke-width:0.01" />
<line x1="0.0741113" y1="-0.115536" x2="-0.470382" y2="0.0555573" style="stroke:rgb(246,147,147);stroke-width:0.01" />
<line x1="0.0879744" y1="-0.119212" x2="-0.470382" y2="0.0562374" style="stroke:rgb(246,147,147);stroke-width:0.01" />
<line x1="0.10746" y1="-0.124655" x2="-0.470382" y2="0.0569175" style="stroke:rgb(246,147,147);stroke-width:0.01" />
<line x1="0.133374" y1="-0.0450691" x2="-0.470382" y2="0.144646" style="stroke:rgb(246,147,147);stroke-width:0.01" />
<line x1="0.12021" y1="-0.0402524" x2="-0.470382" y2="0.145326" style="stroke:rgb(246,147,147);stroke-width:0.01" />
<line x1="0.106839" y1="-0.0353708" x2="-0.470382" y2="0.146007" style="stroke:rgb(246,147,147);stroke-width:0.01" />
<line x1="0.0932614" y1="-0.0304244" x2="-0.470382" y2="0.146687" style="stroke:rgb(246,147,147);stroke-width:0.01" />
<line x1="-0.303716" y1="0.107248" x2="-0.461105" y2="0.156704" style="stroke:rgb(246,147,147);stroke-width:0.01" />
<line x1="-0.303716" y1="0.107928" x2="-0.460495" y2="0.157192" style="stroke:rgb(246,147,147);stroke-width:0.01" />
<line x1="0.10746" y1="-0.124655" x2="-0.470382" y2="0.111248" style="stroke:rgb(246,147,147);stroke-width:0.01" />
<line x1="-0.303716" y1="0.108608" x2="-0.459884" y2="0.15768" style="stroke:rgb(246,147,147);stroke-width:0.01" />
<line x1="-0.303716" y1="0.109288" x2="-0.459274" y2="0.158169" style="stroke:rgb(246,147,147);stroke-width:0.01" />
<line x1="-0.303716" y1="0.197017" x2="-0.380539" y2="0.221157" style="stroke:rgb(246,147,147);stroke-width:0.01" />
<line x1="-0.303716" y1="0.197697" x2="-0.379928" y2="0.221645" style="stroke:rgb(246,147,147);stroke-width:0.01" />
<line x1="-0.303716" y1="0.198377" x2="-0.379318" y2="0.222133" style="stroke:rgb(246,147,147);stroke-width:0.01" />
<line x1="-0.303716" y1="0.199057" x2="-0.378708" y2="0.222622" style="stroke:rgb(246,147,147);stroke-width:0.01" />
<line x1="0.129211" y1="0.195623" x2="-0.470382" y2="0.330532" style="stroke:rgb(246,147,147);stroke-width:0.01" />
<line x1="-0.303716" y1="0.17929" x2="-0.389233" y2="0.214202" style="stroke:rgb(246,147,147);stroke-width:0.01" />
<line x1="-0.303716" y1="0.282615" x2="-0.387049" y2="0.349282" style="stroke:rgb(246,147,147);stroke-width:0.01" />
</g>
</svg>
