<svg xmlns="http://www.w3.org/2000/svg" viewBox="-1.5 -1.5 3 3">
<g transform="scale(1, -1)">
<path d="M0.000000 0.000000 L0.203540 0.000000 L0.230567 0.027027 L0.230567 0.560440 L0.439560 0.560440 L0.439560 0.587467 L0.230567 0.587467 L0.203540 0.560440 L0.203540 0.027027 L0.000000 0.027027 z " fill="rgb(245,195,195)" />
<path d="M0.000000 0.000000 L1.000000 0.000000 L1.000000 1.000000 L0.000000 1.000000  z" fill="none" stroke="rgb(128,128,128)" stroke-width="0.01" />
<line x1="0.20354" y1="0" x2="0.230567" y2="0.027027" style="stroke:rgb(246,147,147);stroke-width:0.01" />
<line x1="0" y1="0" x2="0.20354" y2="0" style="stroke:rgb(246,147,147);stroke-width:0.01" />
<line x1="0" y1="0" x2="0" y2="0.027027" style="stroke:rgb(246,147,147);stroke-width:0.01" />
<line x1="0.20354" y1="0" x2="0.20354" y2="0.56044" style="stroke:rgb(246,147,147);stroke-width:0.01" />
<line x1="0.230567" y1="0.027027" x2="0.230567" y2="0.587467" style="stroke:rgb(246,147,147);stroke-width:0.01" />
<line x1="0.43956" y1="0.56044" x2="0.43956" y2="0.587467" style="stroke:rgb(246,147,147);stroke-width:0.01" />
<line x1="0" y1="0.027027" x2="0.230567" y2="0.027027" style="stroke:rgb(246,147,147);stroke-width:0.01" />
<line x1="0.20354" y1="0.56044" x2="0.230567" y2="0.587467" style="stroke:rgb(246,147,147);stroke-width:0.01" />
<line x1="0.20354" y1="0.56044" x2="0.43956" y2="0.56044" style="stroke:rgb(246,147,147);stroke-width:0.01" />
<line x1="0.230567" y1="0.587467" x2="0.43956" y2="0.587467" style="stroke:rgb(246,147,147);stroke-width:0.01" />
</g>
</svg>
