<svg xmlns="http://www.w3.org/2000/svg" viewBox="-1.5 -1.5 3 3">
<g transform="scale(1, -1)">
<path d="M-0.218144 -0.293733 L-0.014604 -0.293733 L0.012423 -0.266706 L0.012423 0.266706 L0.221416 0.266706 L0.221416 0.293733 L0.012423 0.293733 L-0.014604 0.266706 L-0.014604 -0.266706 L-0.218144 -0.266706 z " fill="rgb(245,195,195)" />
<path d="M-0.218144 -0.293733 L0.781856 -0.293733 L0.781856 0.706267 L-0.218144 0.706267  z" fill="none" stroke="rgb(128,128,128)" stroke-width="0.01" />
<line x1="-0.0146043" y1="-0.293733" x2="0.0124228" y2="-0.266706" style="stroke:rgb(246,147,147);stroke-width:0.01" />
<line x1="-0.218144" y1="-0.293733" x2="-0.0146043" y2="-0.293733" style="stroke:rgb(246,147,147);stroke-width:0.01" />
<line x1="-0.218144" y1="-0.293733" x2="-0.218144" y2="-0.266706" style="stroke:rgb(246,147,147);stroke-width:0.01" />
<line x1="-0.0146043" y1="-0.293733" x2="-0.0146043" y2="0.266706" style="stroke:rgb(246,147,147);stroke-width:0.01" />
<line x1="0.0124228" y1="-0.266706" x2="0.0124228" y2="0.293733" style="stroke:rgb(246,147,147);stroke-width:0.01" />
<line x1="0.221416" y1="0.266706" x2="0.221416" y2="0.293733" style="stroke:rgb(246,147,147);stroke-width:0.01" />
<line x1="-0.218144" y1="-0.266706" x2="0.0124228" y2="-0.266706" style="stroke:rgb(246,147,147);stroke-width:0.01" />
<line x1="-0.0146043" y1="0.266706" x2="0.0124228" y2="0.293733" style="stroke:rgb(246,147,147);stroke-width:0.01" />
<line x1="-0.0146043" y1="0.266706" x2="0.221416" y2="0.266706" style="stroke:rgb(246,147,147);stroke-width:0.01" />
<line x1="0.0124228" y1="0.293733" x2="0.221416" y2="0.293733" style="stroke:rgb(246,147,147);stroke-width:0.01" />
</g>
</svg>
