<svg xmlns="http://www.w3.org/2000/svg" viewBox="-1.5 -1.5 3 3">
<g transform="scale(1, -1)">
<path d="M-0.066391 -0.302932 L0.306895 -0.215379 L0.315132 -0.192242 L0.224332 -0.009363 L0.221140 0.013452 L0.212183 0.015107 L0.103345 0.234316 L0.026383 0.197487 L-0.032709 0.181568 L-0.029760 0.170621 L-0.100120 0.136951 L-0.217836 0.131140 L-0.214844 0.070534 L-0.249455 0.052719 L-0.210200 -0.023546 L-0.201665 -0.196430 L-0.086430 -0.264002 z " fill="rgb(245,195,195)" />
<path d="M-0.468171 -0.458475 L0.531829 -0.458475 L0.531829 0.541525 L-0.468171 0.541525  z" fill="none" stroke="rgb(128,128,128)" stroke-width="0.01" />
<line x1="0.306895" y1="-0.215379" x2="0.315132" y2="-0.192242" style="stroke:rgb(246,147,147);stroke-width:0.01" />
<line x1="0.0939772" y1="-0.265318" x2="0.214762" y2="-0.107274" style="stroke:rgb(246,147,147);stroke-width:0.01" />
<line x1="-0.0332837" y1="-0.295167" x2="0.10921" y2="-0.0775226" style="stroke:rgb(246,147,147);stroke-width:0.01" />
<line x1="-0.0231102" y1="-0.207675" x2="0.0581357" y2="-0.117292" style="stroke:rgb(246,147,147);stroke-width:0.01" />
<line x1="0.083847" y1="-0.267694" x2="0.246657" y2="-0.168919" style="stroke:rgb(246,147,147);stroke-width:0.01" />
<line x1="0.0702364" y1="-0.26654" x2="0.10921" y2="-0.0775226" style="stroke:rgb(246,147,147);stroke-width:0.01" />
<line x1="-0.0231102" y1="-0.207675" x2="0.0244698" y2="0.049796" style="stroke:rgb(246,147,147);stroke-width:0.01" />
<line x1="-0.0663914" y1="-0.302932" x2="-0.0599415" y2="0.138934" style="stroke:rgb(246,147,147);stroke-width:0.01" />
<line x1="-0.201665" y1="-0.19643" x2="-0.217836" y2="0.13114" style="stroke:rgb(246,147,147);stroke-width:0.01" />
<line x1="0.0702364" y1="-0.26654" x2="0.315132" y2="-0.192242" style="stroke:rgb(246,147,147);stroke-width:0.01" />
<line x1="-0.0663914" y1="-0.302932" x2="0.306895" y2="-0.215379" style="stroke:rgb(246,147,147);stroke-width:0.01" />
<line x1="0.254865" y1="-0.227582" x2="0.22114" y2="0.0134519" style="stroke:rgb(246,147,147);stroke-width:0.01" />
<line x1="-0.201665" y1="-0.19643" x2="0.22114" y2="0.0134519" style="stroke:rgb(246,147,147);stroke-width:0.01" />
<line x1="0.0880534" y1="-0.266707" x2="0.0581357" y2="-0.117292" style="stroke:rgb(246,147,147);stroke-width:0.01" />
<line x1="0.0880534" y1="-0.266707" x2="-0.032709" y2="0.181568" style="stroke:rgb(246,147,147);stroke-width:0.01" />
<line x1="-0.0663914" y1="-0.302932" x2="-0.249455" y2="0.0527189" style="stroke:rgb(246,147,147);stroke-width:0.01" />
<line x1="0.0702364" y1="-0.26654" x2="-0.10559" y2="0.134333" style="stroke:rgb(246,147,147);stroke-width:0.01" />
<line x1="0.083847" y1="-0.267694" x2="0.0702364" y2="-0.26654" style="stroke:rgb(246,147,147);stroke-width:0.01" />
<line x1="0.254865" y1="-0.227582" x2="0.106023" y2="0.218941" style="stroke:rgb(246,147,147);stroke-width:0.01" />
<line x1="-0.0332837" y1="-0.295167" x2="-0.201665" y2="-0.19643" style="stroke:rgb(246,147,147);stroke-width:0.01" />
<line x1="-0.249455" y1="0.0527189" x2="0.103345" y2="0.234316" style="stroke:rgb(246,147,147);stroke-width:0.01" />
<line x1="-0.10559" y1="0.134333" x2="0.103345" y2="0.234316" style="stroke:rgb(246,147,147);stroke-width:0.01" />
<line x1="0.315132" y1="-0.192242" x2="0.103345" y2="0.234316" style="stroke:rgb(246,147,147);stroke-width:0.01" />
<line x1="0.0939772" y1="-0.265318" x2="-0.0231102" y2="-0.207675" style="stroke:rgb(246,147,147);stroke-width:0.01" />
<line x1="-0.10559" y1="0.134333" x2="0.106023" y2="0.218941" style="stroke:rgb(246,147,147);stroke-width:0.01" />
<line x1="0.246657" y1="-0.168919" x2="0.0581357" y2="-0.117292" style="stroke:rgb(246,147,147);stroke-width:0.01" />
<line x1="-0.032709" y1="0.181568" x2="0.106023" y2="0.218941" style="stroke:rgb(246,147,147);stroke-width:0.01" />
<line x1="0.214762" y1="-0.107274" x2="0.10921" y2="-0.0775226" style="stroke:rgb(246,147,147);stroke-width:0.01" />
<line x1="0.306895" y1="-0.215379" x2="-0.0599415" y2="0.138934" style="stroke:rgb(246,147,147);stroke-width:0.01" />
<line x1="0.315132" y1="-0.192242" x2="0.10921" y2="-0.0775226" style="stroke:rgb(246,147,147);stroke-width:0.01" />
<line x1="-0.217836" y1="0.13114" x2="-0.0599415" y2="0.138934" style="stroke:rgb(246,147,147);stroke-width:0.01" />
<line x1="0.22114" y1="0.0134519" x2="0.0244698" y2="0.049796" style="stroke:rgb(246,147,147);stroke-width:0.01" />
</g>
</svg>
