<svg xmlns="http://www.w3.org/2000/svg" viewBox="-1.5 -1.5 3 3">
<g transform="scale(1, -1)">
<path d="M0.131558 -0.270986 L0.311534 -0.270986 L0.311534 -0.113018 L0.226204 -0.068123 L0.268168 0.012164 L0.114398 0.159778 L0.132669 0.283949 L0.036779 0.419375 L-0.088237 0.330857 L-0.107383 0.232208 L-0.128238 0.246813 L-0.275006 0.134617 L-0.195867 0.031092 L-0.197292 0.026547 L-0.196999 0.026344 L-0.267318 -0.038130 L-0.155718 -0.231930 L-0.064673 -0.179501 L-0.048965 -0.190459 L0.044292 -0.150181 L0.047598 -0.151163 L0.100962 -0.239269 z " fill="rgb(245,195,195)" />
<path d="M-0.688466 -0.270986 L0.311534 -0.270986 L0.311534 0.729014 L-0.688466 0.729014  z" fill="none" stroke="rgb(128,128,128)" stroke-width="0.01" />
<line x1="0.232144" y1="-0.167578" x2="0.311534" y2="-0.113018" style="stroke:rgb(246,147,147);stroke-width:0.01" />
<line x1="0.124173" y1="-0.26333" x2="0.268168" y2="0.012164" style="stroke:rgb(246,147,147);stroke-width:0.01" />
<line x1="0.0677626" y1="-0.157152" x2="0.217876" y2="0.00441429" style="stroke:rgb(246,147,147);stroke-width:0.01" />
<line x1="0.0879034" y1="-0.131345" x2="0.217876" y2="0.00441429" style="stroke:rgb(246,147,147);stroke-width:0.01" />
<line x1="0.124173" y1="-0.26333" x2="0.131967" y2="-0.259607" style="stroke:rgb(246,147,147);stroke-width:0.01" />
<line x1="-0.155718" y1="-0.23193" x2="0.268168" y2="0.012164" style="stroke:rgb(246,147,147);stroke-width:0.01" />
<line x1="-0.0489651" y1="-0.190459" x2="0.0879034" y2="-0.131345" style="stroke:rgb(246,147,147);stroke-width:0.01" />
<line x1="-0.169287" y1="-0.0867455" x2="-0.109762" y2="0.108644" style="stroke:rgb(246,147,147);stroke-width:0.01" />
<line x1="-0.197292" y1="0.0265475" x2="-0.128238" y2="0.246813" style="stroke:rgb(246,147,147);stroke-width:0.01" />
<line x1="0.0677626" y1="-0.157152" x2="0.132669" y2="0.283949" style="stroke:rgb(246,147,147);stroke-width:0.01" />
<line x1="-0.0489651" y1="-0.190459" x2="-0.0404129" y2="-0.132402" style="stroke:rgb(246,147,147);stroke-width:0.01" />
<line x1="-0.169287" y1="-0.0867455" x2="-0.0882366" y2="0.330857" style="stroke:rgb(246,147,147);stroke-width:0.01" />
<line x1="-0.267318" y1="-0.0381295" x2="0.0333679" y2="0.237564" style="stroke:rgb(246,147,147);stroke-width:0.01" />
<line x1="-0.109762" y1="0.108644" x2="0.0333679" y2="0.237564" style="stroke:rgb(246,147,147);stroke-width:0.01" />
<line x1="-0.197292" y1="0.0265475" x2="0.132669" y2="0.283949" style="stroke:rgb(246,147,147);stroke-width:0.01" />
<line x1="0.131558" y1="-0.270986" x2="0.131967" y2="-0.259607" style="stroke:rgb(246,147,147);stroke-width:0.01" />
<line x1="0.131558" y1="-0.270986" x2="0.311534" y2="-0.270986" style="stroke:rgb(246,147,147);stroke-width:0.01" />
<line x1="0.311534" y1="-0.270986" x2="0.311534" y2="-0.113018" style="stroke:rgb(246,147,147);stroke-width:0.01" />
<line x1="-0.275006" y1="0.134617" x2="-0.128238" y2="0.246813" style="stroke:rgb(246,147,147);stroke-width:0.01" />
<line x1="-0.0320787" y1="-0.183166" x2="-0.0404129" y2="-0.132402" style="stroke:rgb(246,147,147);stroke-width:0.01" />
<line x1="-0.0882366" y1="0.330857" x2="0.0367793" y2="0.419375" style="stroke:rgb(246,147,147);stroke-width:0.01" />
<line x1="-0.0404129" y1="-0.132402" x2="0.0879034" y2="-0.131345" style="stroke:rgb(246,147,147);stroke-width:0.01" />
<line x1="-0.155718" y1="-0.23193" x2="-0.267318" y2="-0.0381295" style="stroke:rgb(246,147,147);stroke-width:0.01" />
<line x1="0.232144" y1="-0.167578" x2="-0.169287" y2="-0.0867455" style="stroke:rgb(246,147,147);stroke-width:0.01" />
<line x1="0.0677626" y1="-0.157152" x2="-0.169287" y2="-0.0867455" style="stroke:rgb(246,147,147);stroke-width:0.01" />
<line x1="-0.0320787" y1="-0.183166" x2="-0.275006" y2="0.134617" style="stroke:rgb(246,147,147);stroke-width:0.01" />
<line x1="-0.0489651" y1="-0.190459" x2="-0.267318" y2="-0.0381295" style="stroke:rgb(246,147,147);stroke-width:0.01" />
<line x1="0.100962" y1="-0.239269" x2="-0.109762" y2="0.108644" style="stroke:rgb(246,147,147);stroke-width:0.01" />
<line x1="0.131967" y1="-0.259607" x2="0.100962" y2="-0.239269" style="stroke:rgb(246,147,147);stroke-width:0.01" />
<line x1="0.131558" y1="-0.270986" x2="0.100962" y2="-0.239269" style="stroke:rgb(246,147,147);stroke-width:0.01" />
<line x1="0.0677626" y1="-0.157152" x2="-0.197292" y2="0.0265475" style="stroke:rgb(246,147,147);stroke-width:0.01" />
<line x1="0.232144" y1="-0.167578" x2="-0.0882366" y2="0.330857" style="stroke:rgb(246,147,147);stroke-width:0.01" />
<line x1="0.311534" y1="-0.113018" x2="-0.109762" y2="0.108644" style="stroke:rgb(246,147,147);stroke-width:0.01" />
<line x1="0.217876" y1="0.00441429" x2="0.0333679" y2="0.237564" style="stroke:rgb(246,147,147);stroke-width:0.01" />
<line x1="0.132669" y1="0.283949" x2="0.0367793" y2="0.419375" style="stroke:rgb(246,147,147);stroke-width:0.01" />
<line x1="0.217876" y1="0.00441429" x2="-0.128238" y2="0.246813" style="stroke:rgb(246,147,147);stroke-width:0.01" />
<line x1="0.268168" y1="0.012164" x2="0.0333679" y2="0.237564" style="stroke:rgb(246,147,147);stroke-width:0.01" />
</g>
</svg>
