<svg xmlns="http://www.w3.org/2000/svg" viewBox="-1.5 -1.5 3 3">
<g transform="scale(1, -1)">
<path d="M-0.064876 -0.435867 L0.015212 -0.403643 L0.184388 -0.152241 L0.199009 -0.146067 L0.196338 -0.134482 L0.321974 0.052218 L0.199869 0.210618 L0.127513 0.154840 L0.065504 0.415814 L0.040206 0.427348 L-0.005192 0.327764 L-0.126542 0.176625 L-0.104816 0.109232 L-0.169524 -0.032710 L-0.310530 -0.045380 L-0.380012 -0.224996 L-0.188519 -0.299072 z " fill="rgb(245,195,195)" />
<path d="M-0.564599 -0.583794 L0.435401 -0.583794 L0.435401 0.416206 L-0.564599 0.416206  z" fill="none" stroke="rgb(128,128,128)" stroke-width="0.01" />
<line x1="0.0152125" y1="-0.403643" x2="0.321974" y2="0.052218" style="stroke:rgb(246,147,147);stroke-width:0.01" />
<line x1="-0.208679" y1="-0.118598" x2="0.0402058" y2="0.427348" style="stroke:rgb(246,147,147);stroke-width:0.01" />
<line x1="-0.0648762" y1="-0.435867" x2="0.0152125" y2="-0.403643" style="stroke:rgb(246,147,147);stroke-width:0.01" />
<line x1="0.00402843" y1="-0.228402" x2="0.0138324" y2="-0.0225197" style="stroke:rgb(246,147,147);stroke-width:0.01" />
<line x1="-0.380012" y1="-0.224996" x2="-0.31053" y2="-0.0453803" style="stroke:rgb(246,147,147);stroke-width:0.01" />
<line x1="0.164758" y1="-0.181413" x2="0.165926" y2="-0.00256805" style="stroke:rgb(246,147,147);stroke-width:0.01" />
<line x1="0.0152125" y1="-0.403643" x2="0.0138324" y2="-0.0225197" style="stroke:rgb(246,147,147);stroke-width:0.01" />
<line x1="-0.0648762" y1="-0.435867" x2="-0.0696167" y2="-0.278489" style="stroke:rgb(246,147,147);stroke-width:0.01" />
<line x1="-0.208679" y1="-0.118598" x2="-0.212339" y2="-0.0598521" style="stroke:rgb(246,147,147);stroke-width:0.01" />
<line x1="-0.239365" y1="-0.242818" x2="0.141214" y2="0.101172" style="stroke:rgb(246,147,147);stroke-width:0.01" />
<line x1="-0.126542" y1="0.176625" x2="0.0655044" y2="0.415814" style="stroke:rgb(246,147,147);stroke-width:0.01" />
<line x1="-0.0696167" y1="-0.278489" x2="0.164758" y2="-0.181413" style="stroke:rgb(246,147,147);stroke-width:0.01" />
<line x1="0.00402843" y1="-0.228402" x2="0.199009" y2="-0.146067" style="stroke:rgb(246,147,147);stroke-width:0.01" />
<line x1="-0.0350966" y1="0.0294907" x2="0.199869" y2="0.210618" style="stroke:rgb(246,147,147);stroke-width:0.01" />
<line x1="-0.273078" y1="-0.106696" x2="-0.212339" y2="-0.0598521" style="stroke:rgb(246,147,147);stroke-width:0.01" />
<line x1="0.199009" y1="-0.146067" x2="0.165926" y2="-0.00256805" style="stroke:rgb(246,147,147);stroke-width:0.01" />
<line x1="0.199009" y1="-0.146067" x2="0.0655044" y2="0.415814" style="stroke:rgb(246,147,147);stroke-width:0.01" />
<line x1="0.00402843" y1="-0.228402" x2="-0.126542" y2="0.176625" style="stroke:rgb(246,147,147);stroke-width:0.01" />
<line x1="-0.273078" y1="-0.106696" x2="-0.31053" y2="-0.0453803" style="stroke:rgb(246,147,147);stroke-width:0.01" />
<line x1="-0.0648762" y1="-0.435867" x2="-0.239365" y2="-0.242818" style="stroke:rgb(246,147,147);stroke-width:0.01" />
<line x1="-0.0350966" y1="0.0294907" x2="0.141214" y2="0.101172" style="stroke:rgb(246,147,147);stroke-width:0.01" />
<line x1="0.0289673" y1="-0.383203" x2="-0.380012" y2="-0.224996" style="stroke:rgb(246,147,147);stroke-width:0.01" />
<line x1="0.122303" y1="-0.244501" x2="-0.0350966" y2="0.0294907" style="stroke:rgb(246,147,147);stroke-width:0.01" />
<line x1="0.00374071" y1="-0.157856" x2="0.199009" y2="-0.146067" style="stroke:rgb(246,147,147);stroke-width:0.01" />
<line x1="0.0289673" y1="-0.383203" x2="-0.0696167" y2="-0.278489" style="stroke:rgb(246,147,147);stroke-width:0.01" />
<line x1="0.122303" y1="-0.244501" x2="0.00402843" y2="-0.228402" style="stroke:rgb(246,147,147);stroke-width:0.01" />
<line x1="0.0138324" y1="-0.0225197" x2="0.165926" y2="-0.00256805" style="stroke:rgb(246,147,147);stroke-width:0.01" />
<line x1="0.24435" y1="-0.0631339" x2="0.141214" y2="0.101172" style="stroke:rgb(246,147,147);stroke-width:0.01" />
<line x1="-0.31053" y1="-0.0453803" x2="0.165926" y2="-0.00256805" style="stroke:rgb(246,147,147);stroke-width:0.01" />
<line x1="0.00374071" y1="-0.157856" x2="-0.273078" y2="-0.106696" style="stroke:rgb(246,147,147);stroke-width:0.01" />
<line x1="0.00374071" y1="-0.157856" x2="-0.212339" y2="-0.0598521" style="stroke:rgb(246,147,147);stroke-width:0.01" />
<line x1="0.24435" y1="-0.0631339" x2="0.0138324" y2="-0.0225197" style="stroke:rgb(246,147,147);stroke-width:0.01" />
<line x1="0.321974" y1="0.052218" x2="0.199869" y2="0.210618" style="stroke:rgb(246,147,147);stroke-width:0.01" />
<line x1="0.321974" y1="0.052218" x2="-0.126542" y2="0.176625" style="stroke:rgb(246,147,147);stroke-width:0.01" />
<line x1="0.0655044" y1="0.415814" x2="0.0402058" y2="0.427348" style="stroke:rgb(246,147,147);stroke-width:0.01" />
</g>
</svg>
