<svg xmlns="http://www.w3.org/2000/svg" viewBox="-1.5 -1.5 3 3">
<g transform="scale(1, -1)">
<path d="M0.047274 -0.299129 L0.330092 -0.218957 L0.359177 0.110776 L0.115652 0.372897 L-0.110914 0.241615 L-0.132254 0.220802 L-0.121453 0.189523 L-0.283356 0.024696 L-0.167962 -0.166191 L-0.073106 -0.207090 L0.036851 -0.268942 z " fill="rgb(245,195,195)" />
<path d="M-0.849009 -0.136361 L0.150991 -0.136361 L0.150991 0.863639 L-0.849009 0.863639  z" fill="none" stroke="rgb(128,128,128)" stroke-width="0.01" />
<line x1="0.20678" y1="-0.0308079" x2="0.359177" y2="0.110776" style="stroke:rgb(246,147,147);stroke-width:0.01" />
<line x1="0.0472739" y1="-0.299129" x2="0.0722959" y2="-0.288881" style="stroke:rgb(246,147,147);stroke-width:0.01" />
<line x1="0.0722959" y1="-0.288881" x2="0.080372" y2="-0.273266" style="stroke:rgb(246,147,147);stroke-width:0.01" />
<line x1="-0.00892824" y1="-0.136361" x2="0.0226136" y2="-0.111631" style="stroke:rgb(246,147,147);stroke-width:0.01" />
<line x1="0.0472739" y1="-0.299129" x2="0.330092" y2="-0.218957" style="stroke:rgb(246,147,147);stroke-width:0.01" />
<line x1="-0.113941" y1="-0.18412" x2="0.00285635" y2="-0.100777" style="stroke:rgb(246,147,147);stroke-width:0.01" />
<line x1="-0.0205077" y1="-0.102826" x2="0.243423" y2="0.0691335" style="stroke:rgb(246,147,147);stroke-width:0.01" />
<line x1="0.0921785" y1="0.0665468" x2="0.170582" y2="0.211624" style="stroke:rgb(246,147,147);stroke-width:0.01" />
<line x1="0.0921785" y1="0.0665468" x2="0.150991" y2="0.110647" style="stroke:rgb(246,147,147);stroke-width:0.01" />
<line x1="-0.167962" y1="-0.166191" x2="-0.0348965" y2="0.0493098" style="stroke:rgb(246,147,147);stroke-width:0.01" />
<line x1="-0.194113" y1="-0.0781834" x2="-0.0951553" y2="0.0700331" style="stroke:rgb(246,147,147);stroke-width:0.01" />
<line x1="-0.167962" y1="-0.166191" x2="0.0146947" y2="-0.0894699" style="stroke:rgb(246,147,147);stroke-width:0.01" />
<line x1="-0.118119" y1="-0.128921" x2="-0.0380325" y2="0.0580858" style="stroke:rgb(246,147,147);stroke-width:0.01" />
<line x1="-0.283356" y1="0.0246964" x2="-0.0947239" y2="0.216735" style="stroke:rgb(246,147,147);stroke-width:0.01" />
<line x1="-0.118119" y1="-0.128921" x2="0.0146947" y2="-0.0894699" style="stroke:rgb(246,147,147);stroke-width:0.01" />
<line x1="-0.132254" y1="0.220802" x2="-0.110914" y2="0.241615" style="stroke:rgb(246,147,147);stroke-width:0.01" />
<line x1="0.160359" y1="-0.206719" x2="0.210648" y2="0.123877" style="stroke:rgb(246,147,147);stroke-width:0.01" />
<line x1="0.330092" y1="-0.218957" x2="0.359177" y2="0.110776" style="stroke:rgb(246,147,147);stroke-width:0.01" />
<line x1="-0.160272" y1="-0.115553" x2="-0.12669" y2="0.104217" style="stroke:rgb(246,147,147);stroke-width:0.01" />
<line x1="-0.283356" y1="0.0246964" x2="-0.12669" y2="0.104217" style="stroke:rgb(246,147,147);stroke-width:0.01" />
<line x1="-0.0133511" y1="0.293495" x2="0.115652" y2="0.372897" style="stroke:rgb(246,147,147);stroke-width:0.01" />
<line x1="-0.113941" y1="-0.18412" x2="-0.0951553" y2="0.0700331" style="stroke:rgb(246,147,147);stroke-width:0.01" />
<line x1="-0.0285458" y1="-0.0193792" x2="-0.0133511" y2="0.293495" style="stroke:rgb(246,147,147);stroke-width:0.01" />
<line x1="-0.0205077" y1="-0.102826" x2="0.00285635" y2="-0.100777" style="stroke:rgb(246,147,147);stroke-width:0.01" />
<line x1="-0.110914" y1="0.241615" x2="0.115652" y2="0.372897" style="stroke:rgb(246,147,147);stroke-width:0.01" />
<line x1="0.20678" y1="-0.0308079" x2="0.210648" y2="0.123877" style="stroke:rgb(246,147,147);stroke-width:0.01" />
<line x1="-0.00892824" y1="-0.136361" x2="0.150991" y2="-0.136361" style="stroke:rgb(246,147,147);stroke-width:0.01" />
<line x1="0.150991" y1="-0.136361" x2="0.150991" y2="0.110647" style="stroke:rgb(246,147,147);stroke-width:0.01" />
<line x1="0.330092" y1="-0.218957" x2="0.160359" y2="-0.206719" style="stroke:rgb(246,147,147);stroke-width:0.01" />
<line x1="-0.160272" y1="-0.115553" x2="0.0226136" y2="-0.111631" style="stroke:rgb(246,147,147);stroke-width:0.01" />
<line x1="0.160359" y1="-0.206719" x2="0.158432" y2="0.0685385" style="stroke:rgb(246,147,147);stroke-width:0.01" />
<line x1="0.20678" y1="-0.0308079" x2="-0.0285458" y2="-0.0193792" style="stroke:rgb(246,147,147);stroke-width:0.01" />
<line x1="0.158432" y1="0.0685385" x2="0.243423" y2="0.0691335" style="stroke:rgb(246,147,147);stroke-width:0.01" />
<line x1="0.080372" y1="-0.273266" x2="-0.167962" y2="-0.166191" style="stroke:rgb(246,147,147);stroke-width:0.01" />
<line x1="0.0472739" y1="-0.299129" x2="-0.132254" y2="0.220802" style="stroke:rgb(246,147,147);stroke-width:0.01" />
<line x1="0.0722959" y1="-0.288881" x2="-0.113941" y2="-0.18412" style="stroke:rgb(246,147,147);stroke-width:0.01" />
<line x1="0.080372" y1="-0.273266" x2="-0.0947239" y2="0.216735" style="stroke:rgb(246,147,147);stroke-width:0.01" />
<line x1="0.0722959" y1="-0.288881" x2="0.00285635" y2="-0.100777" style="stroke:rgb(246,147,147);stroke-width:0.01" />
<line x1="-0.167962" y1="-0.166191" x2="-0.283356" y2="0.0246964" style="stroke:rgb(246,147,147);stroke-width:0.01" />
<line x1="0.330092" y1="-0.218957" x2="0.243423" y2="0.0691335" style="stroke:rgb(246,147,147);stroke-width:0.01" />
<line x1="-0.118119" y1="-0.128921" x2="-0.194113" y2="-0.0781834" style="stroke:rgb(246,147,147);stroke-width:0.01" />
<line x1="0.170582" y1="0.211624" x2="0.115652" y2="0.372897" style="stroke:rgb(246,147,147);stroke-width:0.01" />
<line x1="-0.160272" y1="-0.115553" x2="-0.283356" y2="0.0246964" style="stroke:rgb(246,147,147);stroke-width:0.01" />
<line x1="0.359177" y1="0.110776" x2="0.210648" y2="0.123877" style="stroke:rgb(246,147,147);stroke-width:0.01" />
<line x1="-0.0348965" y1="0.0493098" x2="-0.0951553" y2="0.0700331" style="stroke:rgb(246,147,147);stroke-width:0.01" />
<line x1="-0.0947239" y1="0.216735" x2="-0.132254" y2="0.220802" style="stroke:rgb(246,147,147);stroke-width:0.01" />
<line x1="-0.0380325" y1="0.0580858" x2="-0.12669" y2="0.104217" style="stroke:rgb(246,147,147);stroke-width:0.01" />
<line x1="0.0921785" y1="0.0665468" x2="-0.110914" y2="0.241615" style="stroke:rgb(246,147,147);stroke-width:0.01" />
<line x1="0.150991" y1="0.110647" x2="-0.110914" y2="0.241615" style="stroke:rgb(246,147,147);stroke-width:0.01" />
<line x1="0.170582" y1="0.211624" x2="-0.0133511" y2="0.293495" style="stroke:rgb(246,147,147);stroke-width:0.01" />
<line x1="0.359177" y1="0.110776" x2="0.115652" y2="0.372897" style="stroke:rgb(246,147,147);stroke-width:0.01" />
</g>
</svg>
