<svg xmlns="http://www.w3.org/2000/svg" viewBox="-1.5 -1.5 3 3">
<path d="M-0.152895 -0.440907 L-0.046935 -0.354319 L0.152892 -0.345995 L0.146649 -0.196125 L0.417667 0.025346 L0.133614 0.372946 L0.120027 0.442992 L-0.195780 0.405999 L-0.213933 0.365567 L-0.361306 -0.275502 z " fill="rgb(245,195,195)" />
<path d="M-0.446755 0.092794 L0.553245 0.092794 L0.553245 1.092794 L-0.446755 1.092794  z" fill="none" stroke="rgb(128,128,128)" stroke-width="0.01" />
<line x1="-0.23608" y1="-0.374888" x2="-0.167308" y2="-0.356668" style="stroke:rgb(246,147,147);stroke-width:0.01" />
<line x1="-0.152895" y1="-0.440907" x2="0.417667" y2="0.0253455" style="stroke:rgb(246,147,147);stroke-width:0.01" />
<line x1="-0.251272" y1="-0.36283" x2="0.152892" y2="-0.345995" style="stroke:rgb(246,147,147);stroke-width:0.01" />
<line x1="-0.361306" y1="-0.275502" x2="-0.126626" y2="-0.160676" style="stroke:rgb(246,147,147);stroke-width:0.01" />
<line x1="-0.152895" y1="-0.440907" x2="-0.0369976" y2="-0.204642" style="stroke:rgb(246,147,147);stroke-width:0.01" />
<line x1="-0.152895" y1="-0.440907" x2="-0.361306" y2="-0.275502" style="stroke:rgb(246,147,147);stroke-width:0.01" />
<line x1="-0.0362641" y1="0.198429" x2="0.0801872" y2="0.438325" style="stroke:rgb(246,147,147);stroke-width:0.01" />
<line x1="-0.0369976" y1="-0.204642" x2="-0.126626" y2="-0.160676" style="stroke:rgb(246,147,147);stroke-width:0.01" />
<line x1="-0.167308" y1="-0.356668" x2="-0.126626" y2="-0.160676" style="stroke:rgb(246,147,147);stroke-width:0.01" />
<line x1="-0.167308" y1="-0.356668" x2="-0.275774" y2="-0.233653" style="stroke:rgb(246,147,147);stroke-width:0.01" />
<line x1="-0.213933" y1="0.365567" x2="-0.19578" y2="0.405999" style="stroke:rgb(246,147,147);stroke-width:0.01" />
<line x1="-0.361306" y1="-0.275502" x2="-0.213933" y2="0.365567" style="stroke:rgb(246,147,147);stroke-width:0.01" />
<line x1="-0.23608" y1="-0.374888" x2="-0.213933" y2="0.365567" style="stroke:rgb(246,147,147);stroke-width:0.01" />
<line x1="-0.251272" y1="-0.36283" x2="-0.275774" y2="-0.233653" style="stroke:rgb(246,147,147);stroke-width:0.01" />
<line x1="0.152892" y1="-0.345995" x2="0.120027" y2="0.442992" style="stroke:rgb(246,147,147);stroke-width:0.01" />
<line x1="-0.0362641" y1="0.198429" x2="0.160077" y2="0.236511" style="stroke:rgb(246,147,147);stroke-width:0.01" />
<line x1="0.160077" y1="0.236511" x2="0.120027" y2="0.442992" style="stroke:rgb(246,147,147);stroke-width:0.01" />
<line x1="-0.0362641" y1="0.198429" x2="-0.19578" y2="0.405999" style="stroke:rgb(246,147,147);stroke-width:0.01" />
<line x1="-0.19578" y1="0.405999" x2="0.120027" y2="0.442992" style="stroke:rgb(246,147,147);stroke-width:0.01" />
<line x1="0.417667" y1="0.0253455" x2="0.0801872" y2="0.438325" style="stroke:rgb(246,147,147);stroke-width:0.01" />
</svg>
