<svg xmlns="http://www.w3.org/2000/svg" viewBox="-1.5 -1.5 3 3">
<g transform="scale(1, -1)">
<path d="M-0.229215 -0.334971 L0.017538 -0.334971 L0.047841 -0.304668 L0.047841 0.304668 L0.131145 0.304668 L0.131145 0.334971 L0.047841 0.334971 L0.017538 0.304668 L0.017538 -0.304668 L-0.229215 -0.304668 z " fill="rgb(245,195,195)" />
<path d="M-0.229215 -0.334971 L0.770785 -0.334971 L0.770785 0.665029 L-0.229215 0.665029  z" fill="none" stroke="rgb(128,128,128)" stroke-width="0.01" />
<line x1="0.0175383" y1="-0.334971" x2="0.0478413" y2="-0.304668" style="stroke:rgb(246,147,147);stroke-width:0.01" />
<line x1="-0.229215" y1="-0.334971" x2="0.0175383" y2="-0.334971" style="stroke:rgb(246,147,147);stroke-width:0.01" />
<line x1="-0.229215" y1="-0.334971" x2="-0.229215" y2="-0.304668" style="stroke:rgb(246,147,147);stroke-width:0.01" />
<line x1="0.0175383" y1="-0.334971" x2="0.0175383" y2="0.304668" style="stroke:rgb(246,147,147);stroke-width:0.01" />
<line x1="0.0478413" y1="-0.304668" x2="0.0478413" y2="0.334971" style="stroke:rgb(246,147,147);stroke-width:0.01" />
<line x1="0.131145" y1="0.304668" x2="0.131145" y2="0.334971" style="stroke:rgb(246,147,147);stroke-width:0.01" />
<line x1="-0.229215" y1="-0.304668" x2="0.0478413" y2="-0.304668" style="stroke:rgb(246,147,147);stroke-width:0.01" />
<line x1="0.0175383" y1="0.304668" x2="0.0478413" y2="0.334971" style="stroke:rgb(246,147,147);stroke-width:0.01" />
<line x1="0.0175383" y1="0.304668" x2="0.131145" y2="0.304668" style="stroke:rgb(246,147,147);stroke-width:0.01" />
<line x1="0.0478413" y1="0.334971" x2="0.131145" y2="0.334971" style="stroke:rgb(246,147,147);stroke-width:0.01" />
</g>
</svg>
