<svg xmlns="http://www.w3.org/2000/svg" viewBox="-1.5 -1.5 3 3">
<g transform="scale(1, -1)">
<path d="M-0.420828 -0.244436 L0.085666 -0.244436 L0.115078 -0.215024 L0.115078 0.215024 L0.119713 0.215024 L0.119713 0.244436 L0.115078 0.244436 L0.085666 0.215024 L0.085666 -0.215024 L-0.420828 -0.215024 z " fill="rgb(245,195,195)" />
<path d="M-0.420828 -0.244436 L0.579172 -0.244436 L0.579172 0.755564 L-0.420828 0.755564  z" fill="none" stroke="rgb(128,128,128)" stroke-width="0.01" />
<line x1="0.0856658" y1="-0.244436" x2="0.115078" y2="-0.215024" style="stroke:rgb(246,147,147);stroke-width:0.01" />
<line x1="0.0856658" y1="0.215024" x2="0.115078" y2="0.244436" style="stroke:rgb(246,147,147);stroke-width:0.01" />
<line x1="-0.420828" y1="-0.244436" x2="0.0856658" y2="-0.244436" style="stroke:rgb(246,147,147);stroke-width:0.01" />
<line x1="-0.420828" y1="-0.244436" x2="-0.420828" y2="-0.215024" style="stroke:rgb(246,147,147);stroke-width:0.01" />
<line x1="0.0856658" y1="-0.244436" x2="0.0856658" y2="0.215024" style="stroke:rgb(246,147,147);stroke-width:0.01" />
<line x1="0.115078" y1="-0.215024" x2="0.115078" y2="0.244436" style="stroke:rgb(246,147,147);stroke-width:0.01" />
<line x1="0.119713" y1="0.215024" x2="0.119713" y2="0.244436" style="stroke:rgb(246,147,147);stroke-width:0.01" />
<line x1="-0.420828" y1="-0.215024" x2="0.115078" y2="-0.215024" style="stroke:rgb(246,147,147);stroke-width:0.01" />
<line x1="0.0856658" y1="0.215024" x2="0.119713" y2="0.215024" style="stroke:rgb(246,147,147);stroke-width:0.01" />
<line x1="0.115078" y1="0.244436" x2="0.119713" y2="0.244436" style="stroke:rgb(246,147,147);stroke-width:0.01" />
</g>
</svg>
