<svg xmlns="http://www.w3.org/2000/svg" viewBox="-1.5 -1.5 3 3">
<g transform="scale(1, -1)">
<path d="M-0.338418 -0.293565 L0.064179 -0.293565 L0.092751 -0.264994 L0.092751 0.264994 L0.103023 0.264994 L0.103023 0.293565 L0.092751 0.293565 L0.064179 0.264994 L0.064179 -0.264994 L-0.338418 -0.264994 z " fill="rgb(245,195,195)" />
<path d="M-0.338418 -0.293565 L0.661582 -0.293565 L0.661582 0.706435 L-0.338418 0.706435  z" fill="none" stroke="rgb(128,128,128)" stroke-width="0.01" />
<line x1="0.0641792" y1="-0.293565" x2="0.0927507" y2="-0.264994" style="stroke:rgb(246,147,147);stroke-width:0.01" />
<line x1="-0.338418" y1="-0.293565" x2="0.0641792" y2="-0.293565" style="stroke:rgb(246,147,147);stroke-width:0.01" />
<line x1="-0.338418" y1="-0.293565" x2="-0.338418" y2="-0.264994" style="stroke:rgb(246,147,147);stroke-width:0.01" />
<line x1="0.0641792" y1="-0.293565" x2="0.0641792" y2="0.264994" style="stroke:rgb(246,147,147);stroke-width:0.01" />
<line x1="0.0927507" y1="-0.264994" x2="0.0927507" y2="0.293565" style="stroke:rgb(246,147,147);stroke-width:0.01" />
<line x1="0.103023" y1="0.264994" x2="0.103023" y2="0.293565" style="stroke:rgb(246,147,147);stroke-width:0.01" />
<line x1="-0.338418" y1="-0.264994" x2="0.0927507" y2="-0.264994" style="stroke:rgb(246,147,147);stroke-width:0.01" />
<line x1="0.0641792" y1="0.264994" x2="0.0927507" y2="0.293565" style="stroke:rgb(246,147,147);stroke-width:0.01" />
<line x1="0.0641792" y1="0.264994" x2="0.103023" y2="0.264994" style="stroke:rgb(246,147,147);stroke-width:0.01" />
<line x1="0.0927507" y1="0.293565" x2="0.103023" y2="0.293565" style="stroke:rgb(246,147,147);stroke-width:0.01" />
</g>
</svg>
