<svg xmlns="http://www.w3.org/2000/svg" viewBox="-1.5 -1.5 3 3">
<g transform="scale(1, -1)">
<path d="M-0.589419 -0.109848 L0.109697 -0.109848 L0.137474 -0.082071 L0.137474 0.082071 L0.218662 0.082071 L0.218662 0.109848 L0.137474 0.109848 L0.109697 0.082071 L0.109697 -0.082071 L-0.589419 -0.082071 z " fill="rgb(245,195,195)" />
<path d="M-0.589419 -0.109848 L0.410581 -0.109848 L0.410581 0.890152 L-0.589419 0.890152  z" fill="none" stroke="rgb(128,128,128)" stroke-width="0.01" />
<line x1="0.109697" y1="-0.109848" x2="0.137474" y2="-0.0820707" style="stroke:rgb(246,147,147);stroke-width:0.01" />
<line x1="0.109697" y1="0.0820707" x2="0.137474" y2="0.109848" style="stroke:rgb(246,147,147);stroke-width:0.01" />
<line x1="-0.589419" y1="-0.109848" x2="0.109697" y2="-0.109848" style="stroke:rgb(246,147,147);stroke-width:0.01" />
<line x1="-0.589419" y1="-0.109848" x2="-0.589419" y2="-0.0820707" style="stroke:rgb(246,147,147);stroke-width:0.01" />
<line x1="0.109697" y1="-0.109848" x2="0.109697" y2="0.0820707" style="stroke:rgb(246,147,147);stroke-width:0.01" />
<line x1="0.137474" y1="-0.0820707" x2="0.137474" y2="0.109848" style="stroke:rgb(246,147,147);stroke-width:0.01" />
<line x1="0.218662" y1="0.0820707" x2="0.218662" y2="0.109848" style="stroke:rgb(246,147,147);stroke-width:0.01" />
<line x1="-0.589419" y1="-0.0820707" x2="0.137474" y2="-0.0820707" style="stroke:rgb(246,147,147);stroke-width:0.01" />
<line x1="0.109697" y1="0.0820707" x2="0.218662" y2="0.0820707" style="stroke:rgb(246,147,147);stroke-width:0.01" />
<line x1="0.137474" y1="0.109848" x2="0.218662" y2="0.109848" style="stroke:rgb(246,147,147);stroke-width:0.01" />
</g>
</svg>
