<svg xmlns="http://www.w3.org/2000/svg" viewBox="-1.5 -1.5 3 3">
<g transform="scale(1, -1)">
<path d="M-0.409699 -0.159978 L0.023929 -0.159978 L0.050956 -0.132951 L0.050956 0.132951 L0.297371 0.132951 L0.297371 0.159978 L0.050956 0.159978 L0.023929 0.132951 L0.023929 -0.132951 L-0.409699 -0.132951 z " fill="rgb(245,195,195)" />
<path d="M-0.409699 -0.159978 L0.590301 -0.159978 L0.590301 0.840022 L-0.409699 0.840022  z" fill="none" stroke="rgb(128,128,128)" stroke-width="0.01" />
<line x1="0.0239291" y1="-0.159978" x2="0.0509561" y2="-0.132951" style="stroke:rgb(246,147,147);stroke-width:0.01" />
<line x1="0.0239291" y1="0.132951" x2="0.0509561" y2="0.159978" style="stroke:rgb(246,147,147);stroke-width:0.01" />
<line x1="-0.409699" y1="-0.159978" x2="0.0239291" y2="-0.159978" style="stroke:rgb(246,147,147);stroke-width:0.01" />
<line x1="-0.409699" y1="-0.159978" x2="-0.409699" y2="-0.132951" style="stroke:rgb(246,147,147);stroke-width:0.01" />
<line x1="0.0239291" y1="-0.159978" x2="0.0239291" y2="0.132951" style="stroke:rgb(246,147,147);stroke-width:0.01" />
<line x1="0.0509561" y1="-0.132951" x2="0.0509561" y2="0.159978" style="stroke:rgb(246,147,147);stroke-width:0.01" />
<line x1="0.297371" y1="0.132951" x2="0.297371" y2="0.159978" style="stroke:rgb(246,147,147);stroke-width:0.01" />
<line x1="-0.409699" y1="-0.132951" x2="0.0509561" y2="-0.132951" style="stroke:rgb(246,147,147);stroke-width:0.01" />
<line x1="0.0239291" y1="0.132951" x2="0.297371" y2="0.132951" style="stroke:rgb(246,147,147);stroke-width:0.01" />
<line x1="0.0509561" y1="0.159978" x2="0.297371" y2="0.159978" style="stroke:rgb(246,147,147);stroke-width:0.01" />
</g>
</svg>
