<svg xmlns="http://www.w3.org/2000/svg" viewBox="-1.5 -1.5 3 3">
<g transform="scale(1, -1)">
<path d="M-0.442179 -0.209790 L0.079945 -0.209790 L0.105586 -0.184149 L0.105586 0.184149 L0.163882 0.184149 L0.163882 0.209790 L0.105586 0.209790 L0.079945 0.184149 L0.079945 -0.184149 L-0.442179 -0.184149 z " fill="rgb(245,195,195)" />
<path d="M-0.442179 -0.209790 L0.557821 -0.209790 L0.557821 0.790210 L-0.442179 0.790210  z" fill="none" stroke="rgb(128,128,128)" stroke-width="0.01" />
<line x1="0.0799451" y1="-0.20979" x2="0.105586" y2="-0.184149" style="stroke:rgb(246,147,147);stroke-width:0.01" />
<line x1="0.0799451" y1="0.184149" x2="0.105586" y2="0.20979" style="stroke:rgb(246,147,147);stroke-width:0.01" />
<line x1="-0.442179" y1="-0.20979" x2="0.0799451" y2="-0.20979" style="stroke:rgb(246,147,147);stroke-width:0.01" />
<line x1="-0.442179" y1="-0.20979" x2="-0.442179" y2="-0.184149" style="stroke:rgb(246,147,147);stroke-width:0.01" />
<line x1="0.0799451" y1="-0.20979" x2="0.0799451" y2="0.184149" style="stroke:rgb(246,147,147);stroke-width:0.01" />
<line x1="0.105586" y1="-0.184149" x2="0.105586" y2="0.20979" style="stroke:rgb(246,147,147);stroke-width:0.01" />
<line x1="0.163882" y1="0.184149" x2="0.163882" y2="0.20979" style="stroke:rgb(246,147,147);stroke-width:0.01" />
<line x1="-0.442179" y1="-0.184149" x2="0.105586" y2="-0.184149" style="stroke:rgb(246,147,147);stroke-width:0.01" />
<line x1="0.0799451" y1="0.184149" x2="0.163882" y2="0.184149" style="stroke:rgb(246,147,147);stroke-width:0.01" />
<line x1="0.105586" y1="0.20979" x2="0.163882" y2="0.20979" style="stroke:rgb(246,147,147);stroke-width:0.01" />
</g>
</svg>
