<svg xmlns="http://www.w3.org/2000/svg" viewBox="-1.5 -1.5 3 3">
<g transform="scale(1, -1)">
<path d="M-0.515681 -0.159623 L0.094939 -0.159623 L0.121255 -0.133307 L0.121255 0.133307 L0.191390 0.133307 L0.191390 0.159623 L0.121255 0.159623 L0.094939 0.133307 L0.094939 -0.133307 L-0.515681 -0.133307 z " fill="rgb(245,195,195)" />
<path d="M-0.515681 -0.159623 L0.484319 -0.159623 L0.484319 0.840377 L-0.515681 0.840377  z" fill="none" stroke="rgb(128,128,128)" stroke-width="0.01" />
<line x1="0.0949389" y1="-0.159623" x2="0.121255" y2="-0.133307" style="stroke:rgb(246,147,147);stroke-width:0.01" />
<line x1="0.0949389" y1="0.133307" x2="0.121255" y2="0.159623" style="stroke:rgb(246,147,147);stroke-width:0.01" />
<line x1="-0.515681" y1="-0.159623" x2="0.0949389" y2="-0.159623" style="stroke:rgb(246,147,147);stroke-width:0.01" />
<line x1="-0.515681" y1="-0.159623" x2="-0.515681" y2="-0.133307" style="stroke:rgb(246,147,147);stroke-width:0.01" />
<line x1="0.0949389" y1="-0.159623" x2="0.0949389" y2="0.133307" style="stroke:rgb(246,147,147);stroke-width:0.01" />
<line x1="0.121255" y1="-0.133307" x2="0.121255" y2="0.159623" style="stroke:rgb(246,147,147);stroke-width:0.01" />
<line x1="0.19139" y1="0.133307" x2="0.19139" y2="0.159623" style="stroke:rgb(246,147,147);stroke-width:0.01" />
<line x1="-0.515681" y1="-0.133307" x2="0.121255" y2="-0.133307" style="stroke:rgb(246,147,147);stroke-width:0.01" />
<line x1="0.0949389" y1="0.133307" x2="0.19139" y2="0.133307" style="stroke:rgb(246,147,147);stroke-width:0.01" />
<line x1="0.121255" y1="0.159623" x2="0.19139" y2="0.159623" style="stroke:rgb(246,147,147);stroke-width:0.01" />
</g>
</svg>
