<svg xmlns="http://www.w3.org/2000/svg" viewBox="-1.5 -1.5 3 3">
<g transform="scale(1, -1)">
<path d="M0.004445 -0.200320 L0.007763 -0.197002 L0.257763 -0.197002 L0.132763 -0.072002 L0.046444 -0.072002 L0.057974 -0.036774 L-0.026029 -0.009280 L0.056456 0.242730 L-0.000053 0.354228 L-0.055042 0.186222 L-0.278038 0.073205 L-0.204446 -0.072002 z " fill="rgb(245,195,195)" />
<path d="M-0.367237 -0.572002 L0.632763 -0.572002 L0.632763 0.427998 L-0.367237 0.427998  z" fill="none" stroke="rgb(128,128,128)" stroke-width="0.01" />
<line x1="0.00444463" y1="-0.20032" x2="0.0579744" y2="-0.0367745" style="stroke:rgb(246,147,147);stroke-width:0.01" />
<line x1="-0.072989" y1="-0.152754" x2="0.0564556" y2="0.24273" style="stroke:rgb(246,147,147);stroke-width:0.01" />
<line x1="-0.150423" y1="-0.105188" x2="-5.2756e-05" y2="0.354228" style="stroke:rgb(246,147,147);stroke-width:0.01" />
<line x1="0.00444463" y1="-0.20032" x2="0.132763" y2="-0.0720019" style="stroke:rgb(246,147,147);stroke-width:0.01" />
<line x1="-0.22153" y1="-0.0382932" x2="-0.16654" y2="0.129713" style="stroke:rgb(246,147,147);stroke-width:0.01" />
<line x1="-0.072989" y1="-0.152754" x2="0.00776322" y2="-0.0720019" style="stroke:rgb(246,147,147);stroke-width:0.01" />
<line x1="-0.150423" y1="-0.105188" x2="-0.117237" y2="-0.0720019" style="stroke:rgb(246,147,147);stroke-width:0.01" />
<line x1="-0.204446" y1="-0.0720019" x2="-0.278038" y2="0.0732048" style="stroke:rgb(246,147,147);stroke-width:0.01" />
<line x1="-0.000957713" y1="-0.197002" x2="-0.16654" y2="0.129713" style="stroke:rgb(246,147,147);stroke-width:0.01" />
<line x1="0.0564556" y1="0.24273" x2="-5.2756e-05" y2="0.354228" style="stroke:rgb(246,147,147);stroke-width:0.01" />
<line x1="-0.000957713" y1="-0.197002" x2="0.257763" y2="-0.197002" style="stroke:rgb(246,147,147);stroke-width:0.01" />
<line x1="0.00776322" y1="-0.197002" x2="-0.117237" y2="-0.0720019" style="stroke:rgb(246,147,147);stroke-width:0.01" />
<line x1="0.00444463" y1="-0.20032" x2="-0.204446" y2="-0.0720019" style="stroke:rgb(246,147,147);stroke-width:0.01" />
<line x1="0.0702632" y1="-0.134502" x2="0.00776322" y2="-0.0720019" style="stroke:rgb(246,147,147);stroke-width:0.01" />
<line x1="-0.278038" y1="0.0732048" x2="0.0564556" y2="0.24273" style="stroke:rgb(246,147,147);stroke-width:0.01" />
<line x1="-0.204446" y1="-0.0720019" x2="0.132763" y2="-0.0720019" style="stroke:rgb(246,147,147);stroke-width:0.01" />
<line x1="0.257763" y1="-0.197002" x2="0.132763" y2="-0.0720019" style="stroke:rgb(246,147,147);stroke-width:0.01" />
<line x1="0.0304795" y1="-0.120778" x2="-0.22153" y2="-0.0382932" style="stroke:rgb(246,147,147);stroke-width:0.01" />
<line x1="0.0579744" y1="-0.0367745" x2="-0.278038" y2="0.0732048" style="stroke:rgb(246,147,147);stroke-width:0.01" />
</g>
</svg>
