<svg xmlns="http://www.w3.org/2000/svg" viewBox="-1.5 -1.5 3 3">
<g transform="scale(1, -1)">
<path d="M-0.128007 -0.226071 L0.141291 0.063775 L0.316829 -0.092670 L0.351215 -0.090086 L0.337167 0.096887 L0.308464 0.116834 L0.303607 0.238475 L-0.055538 0.371358 L-0.433208 0.006278 L-0.313642 -0.153143 L-0.306459 -0.095675 L-0.268661 -0.126078 L-0.253060 -0.109883 z " fill="rgb(245,195,195)" />
<path d="M-0.313642 -0.153143 L0.686358 -0.153143 L0.686358 0.846857 L-0.313642 0.846857  z" fill="none" stroke="rgb(128,128,128)" stroke-width="0.01" />
<line x1="-0.128007" y1="-0.226071" x2="0.303607" y2="0.238475" style="stroke:rgb(246,147,147);stroke-width:0.01" />
<line x1="0.0784768" y1="0.119757" x2="0.125555" y2="0.243946" style="stroke:rgb(246,147,147);stroke-width:0.01" />
<line x1="0.161171" y1="0.0460578" x2="0.18257" y2="0.173585" style="stroke:rgb(246,147,147);stroke-width:0.01" />
<line x1="0.0314549" y1="0.161664" x2="0.102406" y2="0.264577" style="stroke:rgb(246,147,147);stroke-width:0.01" />
<line x1="0.033503" y1="0.187596" x2="0.041362" y2="0.335506" style="stroke:rgb(246,147,147);stroke-width:0.01" />
<line x1="-0.268661" y1="-0.126078" x2="0.033503" y2="0.187596" style="stroke:rgb(246,147,147);stroke-width:0.01" />
<line x1="-0.313642" y1="-0.153143" x2="-0.274543" y2="0.159653" style="stroke:rgb(246,147,147);stroke-width:0.01" />
<line x1="-0.313642" y1="-0.153143" x2="-0.306217" y2="0.129035" style="stroke:rgb(246,147,147);stroke-width:0.01" />
<line x1="-0.313642" y1="-0.153143" x2="-0.312613" y2="0.122853" style="stroke:rgb(246,147,147);stroke-width:0.01" />
<line x1="-0.313642" y1="-0.153143" x2="-0.313642" y2="0.121857" style="stroke:rgb(246,147,147);stroke-width:0.01" />
<line x1="-0.313642" y1="-0.153143" x2="-0.433208" y2="0.00627753" style="stroke:rgb(246,147,147);stroke-width:0.01" />
<line x1="0.0314549" y1="0.161664" x2="0.125555" y2="0.243946" style="stroke:rgb(246,147,147);stroke-width:0.01" />
<line x1="-0.0420004" y1="0.22713" x2="0.041362" y2="0.335506" style="stroke:rgb(246,147,147);stroke-width:0.01" />
<line x1="0.316829" y1="-0.0926699" x2="0.351215" y2="-0.0900864" style="stroke:rgb(246,147,147);stroke-width:0.01" />
<line x1="-0.0249634" y1="0.126902" x2="-0.0356305" y2="0.363993" style="stroke:rgb(246,147,147);stroke-width:0.01" />
<line x1="-0.0368785" y1="0.114533" x2="-0.0542178" y2="0.37087" style="stroke:rgb(246,147,147);stroke-width:0.01" />
<line x1="-0.0388004" y1="0.112538" x2="-0.0571658" y2="0.369785" style="stroke:rgb(246,147,147);stroke-width:0.01" />
<line x1="0.316829" y1="-0.0926699" x2="0.303607" y2="0.238475" style="stroke:rgb(246,147,147);stroke-width:0.01" />
<line x1="-0.0420004" y1="0.22713" x2="-0.0555377" y2="0.371358" style="stroke:rgb(246,147,147);stroke-width:0.01" />
<line x1="-0.268661" y1="-0.126078" x2="-0.406192" y2="0.0323931" style="stroke:rgb(246,147,147);stroke-width:0.01" />
<line x1="-0.268661" y1="-0.126078" x2="-0.433208" y2="0.00627753" style="stroke:rgb(246,147,147);stroke-width:0.01" />
<line x1="0.351215" y1="-0.0900864" x2="0.337167" y2="0.0968866" style="stroke:rgb(246,147,147);stroke-width:0.01" />
<line x1="-0.128007" y1="-0.226071" x2="-0.406192" y2="0.0323931" style="stroke:rgb(246,147,147);stroke-width:0.01" />
<line x1="0.0784768" y1="0.119757" x2="0.18257" y2="0.173585" style="stroke:rgb(246,147,147);stroke-width:0.01" />
<line x1="0.161171" y1="0.0460578" x2="0.337167" y2="0.0968866" style="stroke:rgb(246,147,147);stroke-width:0.01" />
<line x1="-0.0530994" y1="0.345381" x2="-0.0356305" y2="0.363993" style="stroke:rgb(246,147,147);stroke-width:0.01" />
<line x1="-0.0553807" y1="0.369686" x2="-0.0542178" y2="0.37087" style="stroke:rgb(246,147,147);stroke-width:0.01" />
<line x1="-0.433208" y1="0.00627753" x2="-0.0555377" y2="0.371358" style="stroke:rgb(246,147,147);stroke-width:0.01" />
<line x1="-0.0388004" y1="0.112538" x2="-0.313642" y2="0.121857" style="stroke:rgb(246,147,147);stroke-width:0.01" />
<line x1="-0.0368785" y1="0.114533" x2="-0.312613" y2="0.122853" style="stroke:rgb(246,147,147);stroke-width:0.01" />
<line x1="-0.0249634" y1="0.126902" x2="-0.306217" y2="0.129035" style="stroke:rgb(246,147,147);stroke-width:0.01" />
<line x1="-0.274543" y1="0.159653" x2="0.033503" y2="0.187596" style="stroke:rgb(246,147,147);stroke-width:0.01" />
<line x1="0.316829" y1="-0.0926699" x2="-0.0420004" y2="0.22713" style="stroke:rgb(246,147,147);stroke-width:0.01" />
<line x1="0.18257" y1="0.173585" x2="-0.0530994" y2="0.345381" style="stroke:rgb(246,147,147);stroke-width:0.01" />
<line x1="0.337167" y1="0.0968866" x2="-0.0553807" y2="0.369686" style="stroke:rgb(246,147,147);stroke-width:0.01" />
<line x1="0.102406" y1="0.264577" x2="-0.0489366" y2="0.368916" style="stroke:rgb(246,147,147);stroke-width:0.01" />
<line x1="-0.0489366" y1="0.368916" x2="-0.0571658" y2="0.369785" style="stroke:rgb(246,147,147);stroke-width:0.01" />
<line x1="0.303607" y1="0.238475" x2="-0.0555377" y2="0.371358" style="stroke:rgb(246,147,147);stroke-width:0.01" />
</g>
</svg>
