<svg xmlns="http://www.w3.org/2000/svg" viewBox="-1.5 -1.5 3 3">
<g transform="scale(1, -1)">
<path d="M-0.312500 -0.500000 L0.312500 -0.500000 L0.375000 -0.437500 L0.437500 -0.437500 L0.437500 -0.375000 L0.500000 -0.312500 L0.500000 0.312500 L0.437500 0.375000 L0.437500 0.437500 L0.375000 0.437500 L0.312500 0.500000 L-0.312500 0.500000 L-0.375000 0.437500 L-0.437500 0.437500 L-0.437500 0.375000 L-0.500000 0.312500 L-0.500000 -0.312500 L-0.437500 -0.375000 L-0.437500 -0.437500 L-0.375000 -0.437500 z " fill="rgb(245,195,195)" />
<path d="M-0.500000 -0.500000 L0.500000 -0.500000 L0.500000 0.500000 L-0.500000 0.500000  z" fill="none" stroke="rgb(128,128,128)" stroke-width="0.01" />
<line x1="0.3125" y1="-0.5" x2="0.5" y2="-0.3125" style="stroke:rgb(246,147,147);stroke-width:0.01" />
<line x1="0.3125" y1="-0.4375" x2="0.4375" y2="-0.3125" style="stroke:rgb(246,147,147);stroke-width:0.01" />
<line x1="-0.3125" y1="-0.5" x2="0.3125" y2="-0.5" style="stroke:rgb(246,147,147);stroke-width:0.01" />
<line x1="-0.5" y1="-0.3125" x2="-0.5" y2="0.3125" style="stroke:rgb(246,147,147);stroke-width:0.01" />
<line x1="-0.4375" y1="-0.4375" x2="-0.4375" y2="-0.3125" style="stroke:rgb(246,147,147);stroke-width:0.01" />
<line x1="-0.4375" y1="0.3125" x2="-0.4375" y2="0.4375" style="stroke:rgb(246,147,147);stroke-width:0.01" />
<line x1="-0.3125" y1="-0.5" x2="-0.3125" y2="-0.4375" style="stroke:rgb(246,147,147);stroke-width:0.01" />
<line x1="-0.3125" y1="0.4375" x2="-0.3125" y2="0.5" style="stroke:rgb(246,147,147);stroke-width:0.01" />
<line x1="0.3125" y1="-0.5" x2="0.3125" y2="-0.4375" style="stroke:rgb(246,147,147);stroke-width:0.01" />
<line x1="0.3125" y1="0.4375" x2="0.3125" y2="0.5" style="stroke:rgb(246,147,147);stroke-width:0.01" />
<line x1="0.4375" y1="-0.4375" x2="0.4375" y2="-0.3125" style="stroke:rgb(246,147,147);stroke-width:0.01" />
<line x1="0.4375" y1="0.3125" x2="0.4375" y2="0.4375" style="stroke:rgb(246,147,147);stroke-width:0.01" />
<line x1="0.5" y1="-0.3125" x2="0.5" y2="0.3125" style="stroke:rgb(246,147,147);stroke-width:0.01" />
<line x1="-0.4375" y1="-0.4375" x2="-0.3125" y2="-0.4375" style="stroke:rgb(246,147,147);stroke-width:0.01" />
<line x1="0.3125" y1="-0.4375" x2="0.4375" y2="-0.4375" style="stroke:rgb(246,147,147);stroke-width:0.01" />
<line x1="-0.3125" y1="-0.5" x2="-0.5" y2="-0.3125" style="stroke:rgb(246,147,147);stroke-width:0.01" />
<line x1="-0.3125" y1="-0.4375" x2="-0.4375" y2="-0.3125" style="stroke:rgb(246,147,147);stroke-width:0.01" />
<line x1="-0.5" y1="-0.3125" x2="-0.4375" y2="-0.3125" style="stroke:rgb(246,147,147);stroke-width:0.01" />
<line x1="0.4375" y1="-0.3125" x2="0.5" y2="-0.3125" style="stroke:rgb(246,147,147);stroke-width:0.01" />
<line x1="-0.4375" y1="0.3125" x2="-0.3125" y2="0.4375" style="stroke:rgb(246,147,147);stroke-width:0.01" />
<line x1="-0.5" y1="0.3125" x2="-0.3125" y2="0.5" style="stroke:rgb(246,147,147);stroke-width:0.01" />
<line x1="-0.5" y1="0.3125" x2="-0.4375" y2="0.3125" style="stroke:rgb(246,147,147);stroke-width:0.01" />
<line x1="0.4375" y1="0.3125" x2="0.5" y2="0.3125" style="stroke:rgb(246,147,147);stroke-width:0.01" />
<line x1="0.4375" y1="0.3125" x2="0.3125" y2="0.4375" style="stroke:rgb(246,147,147);stroke-width:0.01" />
<line x1="0.5" y1="0.3125" x2="0.3125" y2="0.5" style="stroke:rgb(246,147,147);stroke-width:0.01" />
<line x1="-0.4375" y1="0.4375" x2="-0.3125" y2="0.4375" style="stroke:rgb(246,147,147);stroke-width:0.01" />
<line x1="0.3125" y1="0.4375" x2="0.4375" y2="0.4375" style="stroke:rgb(246,147,147);stroke-width:0.01" />
<line x1="-0.3125" y1="0.5" x2="0.3125" y2="0.5" style="stroke:rgb(246,147,147);stroke-width:0.01" />
</g>
</svg>
