<svg xmlns="http://www.w3.org/2000/svg" viewBox="-1.5 -1.5 3 3">
<g transform="scale(1, -1)">
<path d="M-0.121498 -0.139948 L0.001187 -0.017263 L0.063687 -0.079763 L0.188687 0.045237 L0.438687 0.045237 L0.313687 0.170237 L-0.186313 0.170237 L-0.186313 -0.050965 L-0.282285 -0.020039 L-0.229523 -0.122973 z " fill="rgb(245,195,195)" />
<path d="M-0.186313 -0.329763 L0.813687 -0.329763 L0.813687 0.670237 L-0.186313 0.670237  z" fill="none" stroke="rgb(128,128,128)" stroke-width="0.01" />
<line x1="0.0636867" y1="-0.0797627" x2="0.313687" y2="0.170237" style="stroke:rgb(246,147,147);stroke-width:0.01" />
<line x1="-0.186313" y1="-0.129763" x2="-0.186313" y2="0.170237" style="stroke:rgb(246,147,147);stroke-width:0.01" />
<line x1="-0.186313" y1="-0.129763" x2="-0.16331" y2="-0.0583775" style="stroke:rgb(246,147,147);stroke-width:0.01" />
<line x1="-0.229523" y1="-0.122973" x2="-0.282285" y2="-0.0200385" style="stroke:rgb(246,147,147);stroke-width:0.01" />
<line x1="-0.121498" y1="-0.139948" x2="0.188687" y2="0.170237" style="stroke:rgb(246,147,147);stroke-width:0.01" />
<line x1="-0.121498" y1="-0.139948" x2="-0.16331" y2="-0.0583775" style="stroke:rgb(246,147,147);stroke-width:0.01" />
<line x1="-0.229523" y1="-0.122973" x2="0.0636867" y2="0.170237" style="stroke:rgb(246,147,147);stroke-width:0.01" />
<line x1="-0.186313" y1="0.0452373" x2="-0.0613133" y2="0.170237" style="stroke:rgb(246,147,147);stroke-width:0.01" />
<line x1="-0.121498" y1="-0.139948" x2="-0.229523" y2="-0.122973" style="stroke:rgb(246,147,147);stroke-width:0.01" />
<line x1="0.0636867" y1="-0.0797627" x2="-0.186313" y2="0.170237" style="stroke:rgb(246,147,147);stroke-width:0.01" />
<line x1="-0.16331" y1="-0.0583775" x2="-0.282285" y2="-0.0200385" style="stroke:rgb(246,147,147);stroke-width:0.01" />
<line x1="0.126187" y1="-0.0172627" x2="-0.0613133" y2="0.170237" style="stroke:rgb(246,147,147);stroke-width:0.01" />
<line x1="-0.186313" y1="0.0452373" x2="0.438687" y2="0.0452373" style="stroke:rgb(246,147,147);stroke-width:0.01" />
<line x1="0.188687" y1="0.0452373" x2="0.0636867" y2="0.170237" style="stroke:rgb(246,147,147);stroke-width:0.01" />
<line x1="0.251187" y1="0.107737" x2="0.188687" y2="0.170237" style="stroke:rgb(246,147,147);stroke-width:0.01" />
<line x1="-0.186313" y1="0.170237" x2="0.313687" y2="0.170237" style="stroke:rgb(246,147,147);stroke-width:0.01" />
<line x1="0.438687" y1="0.0452373" x2="0.313687" y2="0.170237" style="stroke:rgb(246,147,147);stroke-width:0.01" />
</g>
</svg>
