<svg xmlns="http://www.w3.org/2000/svg" viewBox="-1.5 -1.5 3 3">
<g transform="scale(1, -1)">
<path d="M0.111852 -0.125815 L0.130144 -0.044514 L0.116837 -0.040333 L0.116980 -0.039697 L0.103466 -0.035451 L0.103609 -0.034816 L0.089889 -0.030505 L0.090032 -0.029870 L0.076105 -0.025493 L0.125981 0.196178 L-0.297235 0.291402 L-0.370279 0.349837 L-0.463612 0.328837 L-0.463612 0.052290 L0.056812 -0.111240 L0.057058 -0.110638 L0.070881 -0.114981 L0.071128 -0.114379 L0.084745 -0.118657 L0.084991 -0.118055 L0.104230 -0.124100 z " fill="rgb(245,195,195)" />
<path d="M-1.203612 0.049837 L-0.203612 0.049837 L-0.203612 1.049837 L-1.203612 1.049837  z" fill="none" stroke="rgb(128,128,128)" stroke-width="0.01" />
<line x1="0.0984013" y1="-0.122269" x2="0.130144" y2="-0.0445142" style="stroke:rgb(246,147,147);stroke-width:0.01" />
<line x1="0.0847446" y1="-0.118657" x2="0.11698" y2="-0.0396975" style="stroke:rgb(246,147,147);stroke-width:0.01" />
<line x1="0.0708815" y1="-0.114981" x2="0.103609" y2="-0.0348159" style="stroke:rgb(246,147,147);stroke-width:0.01" />
<line x1="0.0568121" y1="-0.11124" x2="0.0900316" y2="-0.0298695" style="stroke:rgb(246,147,147);stroke-width:0.01" />
<line x1="-0.444335" y1="0.157259" x2="-0.286946" y2="0.28317" style="stroke:rgb(246,147,147);stroke-width:0.01" />
<line x1="0.111852" y1="-0.125815" x2="0.130144" y2="-0.0445142" style="stroke:rgb(246,147,147);stroke-width:0.01" />
<line x1="0.0984013" y1="-0.122269" x2="0.11698" y2="-0.0396975" style="stroke:rgb(246,147,147);stroke-width:0.01" />
<line x1="0.0847446" y1="-0.118657" x2="0.103609" y2="-0.0348159" style="stroke:rgb(246,147,147);stroke-width:0.01" />
<line x1="0.0708815" y1="-0.114981" x2="0.0900316" y2="-0.0298695" style="stroke:rgb(246,147,147);stroke-width:0.01" />
<line x1="0.0568121" y1="-0.11124" x2="0.125981" y2="0.196178" style="stroke:rgb(246,147,147);stroke-width:0.01" />
<line x1="-0.463612" y1="0.0522899" x2="-0.286946" y2="0.107803" style="stroke:rgb(246,147,147);stroke-width:0.01" />
<line x1="-0.463612" y1="0.107721" x2="-0.286946" y2="0.179845" style="stroke:rgb(246,147,147);stroke-width:0.01" />
<line x1="-0.463612" y1="0.05297" x2="-0.286946" y2="0.108483" style="stroke:rgb(246,147,147);stroke-width:0.01" />
<line x1="-0.463612" y1="0.0536501" x2="-0.286946" y2="0.109163" style="stroke:rgb(246,147,147);stroke-width:0.01" />
<line x1="-0.463612" y1="0.0543301" x2="-0.286946" y2="0.109843" style="stroke:rgb(246,147,147);stroke-width:0.01" />
<line x1="-0.463612" y1="0.142059" x2="-0.286946" y2="0.197572" style="stroke:rgb(246,147,147);stroke-width:0.01" />
<line x1="-0.463612" y1="0.142739" x2="-0.286946" y2="0.198252" style="stroke:rgb(246,147,147);stroke-width:0.01" />
<line x1="-0.463612" y1="0.143419" x2="-0.286946" y2="0.198932" style="stroke:rgb(246,147,147);stroke-width:0.01" />
<line x1="-0.463612" y1="0.144099" x2="-0.286946" y2="0.199612" style="stroke:rgb(246,147,147);stroke-width:0.01" />
<line x1="-0.435383" y1="0.0498368" x2="-0.348705" y2="0.0643842" style="stroke:rgb(246,147,147);stroke-width:0.01" />
<line x1="-0.435944" y1="0.0643842" x2="-0.35055" y2="0.0787161" style="stroke:rgb(246,147,147);stroke-width:0.01" />
<line x1="-0.436488" y1="0.0787161" x2="-0.352377" y2="0.0928325" style="stroke:rgb(246,147,147);stroke-width:0.01" />
<line x1="-0.437013" y1="0.0928325" x2="-0.354187" y2="0.106733" style="stroke:rgb(246,147,147);stroke-width:0.01" />
<line x1="-0.438171" y1="0.106733" x2="-0.356629" y2="0.120419" style="stroke:rgb(246,147,147);stroke-width:0.01" />
<line x1="-0.435383" y1="0.0498368" x2="-0.286946" y2="0.0498368" style="stroke:rgb(246,147,147);stroke-width:0.01" />
<line x1="-0.463612" y1="0.0522899" x2="-0.463612" y2="0.328837" style="stroke:rgb(246,147,147);stroke-width:0.01" />
<line x1="-0.370279" y1="0.0498368" x2="-0.370279" y2="0.349837" style="stroke:rgb(246,147,147);stroke-width:0.01" />
<line x1="-0.286946" y1="0.0498368" x2="-0.286946" y2="0.28317" style="stroke:rgb(246,147,147);stroke-width:0.01" />
<line x1="-0.435944" y1="0.0643842" x2="-0.348705" y2="0.0643842" style="stroke:rgb(246,147,147);stroke-width:0.01" />
<line x1="-0.436488" y1="0.0787161" x2="-0.35055" y2="0.0787161" style="stroke:rgb(246,147,147);stroke-width:0.01" />
<line x1="-0.437013" y1="0.0928325" x2="-0.352377" y2="0.0928325" style="stroke:rgb(246,147,147);stroke-width:0.01" />
<line x1="-0.438171" y1="0.106733" x2="-0.354187" y2="0.106733" style="stroke:rgb(246,147,147);stroke-width:0.01" />
<line x1="-0.435383" y1="0.0498368" x2="-0.444335" y2="0.157259" style="stroke:rgb(246,147,147);stroke-width:0.01" />
<line x1="-0.435944" y1="0.0643842" x2="-0.443725" y2="0.157747" style="stroke:rgb(246,147,147);stroke-width:0.01" />
<line x1="-0.436488" y1="0.0787161" x2="-0.443114" y2="0.158235" style="stroke:rgb(246,147,147);stroke-width:0.01" />
<line x1="-0.437013" y1="0.0928325" x2="-0.442504" y2="0.158724" style="stroke:rgb(246,147,147);stroke-width:0.01" />
<line x1="-0.354187" y1="0.106733" x2="-0.363768" y2="0.221712" style="stroke:rgb(246,147,147);stroke-width:0.01" />
<line x1="-0.352377" y1="0.0928325" x2="-0.363158" y2="0.2222" style="stroke:rgb(246,147,147);stroke-width:0.01" />
<line x1="-0.35055" y1="0.0787161" x2="-0.362548" y2="0.222688" style="stroke:rgb(246,147,147);stroke-width:0.01" />
<line x1="-0.348705" y1="0.0643842" x2="-0.361937" y2="0.223177" style="stroke:rgb(246,147,147);stroke-width:0.01" />
<line x1="-0.463612" y1="0.328837" x2="-0.370279" y2="0.349837" style="stroke:rgb(246,147,147);stroke-width:0.01" />
<line x1="0.111852" y1="-0.125815" x2="0.10423" y2="-0.1241" style="stroke:rgb(246,147,147);stroke-width:0.01" />
<line x1="-0.356629" y1="0.120419" x2="-0.372462" y2="0.214757" style="stroke:rgb(246,147,147);stroke-width:0.01" />
<line x1="0.0568121" y1="-0.11124" x2="-0.463612" y2="0.0522899" style="stroke:rgb(246,147,147);stroke-width:0.01" />
<line x1="0.0708815" y1="-0.114981" x2="-0.463612" y2="0.05297" style="stroke:rgb(246,147,147);stroke-width:0.01" />
<line x1="0.0847446" y1="-0.118657" x2="-0.463612" y2="0.0536501" style="stroke:rgb(246,147,147);stroke-width:0.01" />
<line x1="0.10423" y1="-0.1241" x2="-0.463612" y2="0.0543301" style="stroke:rgb(246,147,147);stroke-width:0.01" />
<line x1="0.130144" y1="-0.0445142" x2="-0.463612" y2="0.142059" style="stroke:rgb(246,147,147);stroke-width:0.01" />
<line x1="0.11698" y1="-0.0396975" x2="-0.463612" y2="0.142739" style="stroke:rgb(246,147,147);stroke-width:0.01" />
<line x1="0.103609" y1="-0.0348159" x2="-0.463612" y2="0.143419" style="stroke:rgb(246,147,147);stroke-width:0.01" />
<line x1="0.0900316" y1="-0.0298695" x2="-0.463612" y2="0.144099" style="stroke:rgb(246,147,147);stroke-width:0.01" />
<line x1="0.10423" y1="-0.1241" x2="-0.463612" y2="0.107721" style="stroke:rgb(246,147,147);stroke-width:0.01" />
<line x1="-0.286946" y1="0.107803" x2="-0.444335" y2="0.157259" style="stroke:rgb(246,147,147);stroke-width:0.01" />
<line x1="-0.286946" y1="0.108483" x2="-0.443725" y2="0.157747" style="stroke:rgb(246,147,147);stroke-width:0.01" />
<line x1="-0.286946" y1="0.109163" x2="-0.443114" y2="0.158235" style="stroke:rgb(246,147,147);stroke-width:0.01" />
<line x1="-0.286946" y1="0.109843" x2="-0.442504" y2="0.158724" style="stroke:rgb(246,147,147);stroke-width:0.01" />
<line x1="-0.286946" y1="0.197572" x2="-0.363768" y2="0.221712" style="stroke:rgb(246,147,147);stroke-width:0.01" />
<line x1="-0.286946" y1="0.198252" x2="-0.363158" y2="0.2222" style="stroke:rgb(246,147,147);stroke-width:0.01" />
<line x1="-0.286946" y1="0.198932" x2="-0.362548" y2="0.222688" style="stroke:rgb(246,147,147);stroke-width:0.01" />
<line x1="-0.286946" y1="0.199612" x2="-0.361937" y2="0.223177" style="stroke:rgb(246,147,147);stroke-width:0.01" />
<line x1="0.125981" y1="0.196178" x2="-0.463612" y2="0.328837" style="stroke:rgb(246,147,147);stroke-width:0.01" />
<line x1="-0.286946" y1="0.179845" x2="-0.372462" y2="0.214757" style="stroke:rgb(246,147,147);stroke-width:0.01" />
<line x1="-0.286946" y1="0.28317" x2="-0.370279" y2="0.349837" style="stroke:rgb(246,147,147);stroke-width:0.01" />
</g>
</svg>
