<svg xmlns="http://www.w3.org/2000/svg" viewBox="-1.5 -1.5 3 3">
<g transform="scale(1, -1)">
<path d="M0.111819 -0.125809 L0.130112 -0.044509 L0.116804 -0.040327 L0.116947 -0.039692 L0.103433 -0.035445 L0.103576 -0.034810 L0.089856 -0.030499 L0.089999 -0.029864 L0.076073 -0.025488 L0.125949 0.196184 L-0.296987 0.291344 L-0.370109 0.349842 L-0.463544 0.328820 L-0.463544 0.052264 L0.056779 -0.111235 L0.057026 -0.110632 L0.070849 -0.114976 L0.071095 -0.114373 L0.084712 -0.118652 L0.084958 -0.118049 L0.104197 -0.124094 z " fill="rgb(245,195,195)" />
<path d="M-1.203443 0.049842 L-0.203443 0.049842 L-0.203443 1.049842 L-1.203443 1.049842  z" fill="none" stroke="rgb(128,128,128)" stroke-width="0.01" />
<line x1="0.0983687" y1="-0.122263" x2="0.130112" y2="-0.0445086" style="stroke:rgb(246,147,147);stroke-width:0.01" />
<line x1="0.0847119" y1="-0.118652" x2="0.116947" y2="-0.0396919" style="stroke:rgb(246,147,147);stroke-width:0.01" />
<line x1="0.0708488" y1="-0.114976" x2="0.103576" y2="-0.0348103" style="stroke:rgb(246,147,147);stroke-width:0.01" />
<line x1="0.0567794" y1="-0.111235" x2="0.089999" y2="-0.0298639" style="stroke:rgb(246,147,147);stroke-width:0.01" />
<line x1="-0.444165" y1="0.157264" x2="-0.286776" y2="0.283176" style="stroke:rgb(246,147,147);stroke-width:0.01" />
<line x1="0.111819" y1="-0.125809" x2="0.130112" y2="-0.0445086" style="stroke:rgb(246,147,147);stroke-width:0.01" />
<line x1="0.0983687" y1="-0.122263" x2="0.116947" y2="-0.0396919" style="stroke:rgb(246,147,147);stroke-width:0.01" />
<line x1="0.0847119" y1="-0.118652" x2="0.103576" y2="-0.0348103" style="stroke:rgb(246,147,147);stroke-width:0.01" />
<line x1="0.0708488" y1="-0.114976" x2="0.089999" y2="-0.0298639" style="stroke:rgb(246,147,147);stroke-width:0.01" />
<line x1="0.0567794" y1="-0.111235" x2="0.125949" y2="0.196184" style="stroke:rgb(246,147,147);stroke-width:0.01" />
<line x1="-0.463544" y1="0.0522638" x2="-0.286776" y2="0.107809" style="stroke:rgb(246,147,147);stroke-width:0.01" />
<line x1="-0.463544" y1="0.107685" x2="-0.286776" y2="0.17985" style="stroke:rgb(246,147,147);stroke-width:0.01" />
<line x1="-0.463544" y1="0.0529439" x2="-0.286776" y2="0.108489" style="stroke:rgb(246,147,147);stroke-width:0.01" />
<line x1="-0.463544" y1="0.0536239" x2="-0.286776" y2="0.109169" style="stroke:rgb(246,147,147);stroke-width:0.01" />
<line x1="-0.463544" y1="0.054304" x2="-0.286776" y2="0.109849" style="stroke:rgb(246,147,147);stroke-width:0.01" />
<line x1="-0.463544" y1="0.142033" x2="-0.286776" y2="0.197578" style="stroke:rgb(246,147,147);stroke-width:0.01" />
<line x1="-0.463544" y1="0.142713" x2="-0.286776" y2="0.198258" style="stroke:rgb(246,147,147);stroke-width:0.01" />
<line x1="-0.463544" y1="0.143393" x2="-0.286776" y2="0.198938" style="stroke:rgb(246,147,147);stroke-width:0.01" />
<line x1="-0.463544" y1="0.144073" x2="-0.286776" y2="0.199618" style="stroke:rgb(246,147,147);stroke-width:0.01" />
<line x1="-0.435214" y1="0.0498424" x2="-0.348535" y2="0.0643898" style="stroke:rgb(246,147,147);stroke-width:0.01" />
<line x1="-0.435775" y1="0.0643898" x2="-0.350381" y2="0.0787217" style="stroke:rgb(246,147,147);stroke-width:0.01" />
<line x1="-0.436318" y1="0.0787217" x2="-0.352208" y2="0.0928381" style="stroke:rgb(246,147,147);stroke-width:0.01" />
<line x1="-0.436844" y1="0.0928381" x2="-0.354018" y2="0.106739" style="stroke:rgb(246,147,147);stroke-width:0.01" />
<line x1="-0.438002" y1="0.106739" x2="-0.35646" y2="0.120424" style="stroke:rgb(246,147,147);stroke-width:0.01" />
<line x1="-0.435214" y1="0.0498424" x2="-0.286776" y2="0.0498424" style="stroke:rgb(246,147,147);stroke-width:0.01" />
<line x1="-0.463544" y1="0.0522638" x2="-0.463544" y2="0.32882" style="stroke:rgb(246,147,147);stroke-width:0.01" />
<line x1="-0.370109" y1="0.0498424" x2="-0.370109" y2="0.349842" style="stroke:rgb(246,147,147);stroke-width:0.01" />
<line x1="-0.286776" y1="0.0498424" x2="-0.286776" y2="0.283176" style="stroke:rgb(246,147,147);stroke-width:0.01" />
<line x1="-0.435775" y1="0.0643898" x2="-0.348535" y2="0.0643898" style="stroke:rgb(246,147,147);stroke-width:0.01" />
<line x1="-0.436318" y1="0.0787217" x2="-0.350381" y2="0.0787217" style="stroke:rgb(246,147,147);stroke-width:0.01" />
<line x1="-0.436844" y1="0.0928381" x2="-0.352208" y2="0.0928381" style="stroke:rgb(246,147,147);stroke-width:0.01" />
<line x1="-0.438002" y1="0.106739" x2="-0.354018" y2="0.106739" style="stroke:rgb(246,147,147);stroke-width:0.01" />
<line x1="-0.435214" y1="0.0498424" x2="-0.444165" y2="0.157264" style="stroke:rgb(246,147,147);stroke-width:0.01" />
<line x1="-0.435775" y1="0.0643898" x2="-0.443555" y2="0.157753" style="stroke:rgb(246,147,147);stroke-width:0.01" />
<line x1="-0.436318" y1="0.0787217" x2="-0.442945" y2="0.158241" style="stroke:rgb(246,147,147);stroke-width:0.01" />
<line x1="-0.436844" y1="0.0928381" x2="-0.442334" y2="0.158729" style="stroke:rgb(246,147,147);stroke-width:0.01" />
<line x1="-0.354018" y1="0.106739" x2="-0.363599" y2="0.221717" style="stroke:rgb(246,147,147);stroke-width:0.01" />
<line x1="-0.352208" y1="0.0928381" x2="-0.362989" y2="0.222206" style="stroke:rgb(246,147,147);stroke-width:0.01" />
<line x1="-0.350381" y1="0.0787217" x2="-0.362378" y2="0.222694" style="stroke:rgb(246,147,147);stroke-width:0.01" />
<line x1="-0.348535" y1="0.0643898" x2="-0.361768" y2="0.223182" style="stroke:rgb(246,147,147);stroke-width:0.01" />
<line x1="-0.463544" y1="0.32882" x2="-0.370109" y2="0.349842" style="stroke:rgb(246,147,147);stroke-width:0.01" />
<line x1="0.111819" y1="-0.125809" x2="0.104197" y2="-0.124094" style="stroke:rgb(246,147,147);stroke-width:0.01" />
<line x1="-0.35646" y1="0.120424" x2="-0.372293" y2="0.214762" style="stroke:rgb(246,147,147);stroke-width:0.01" />
<line x1="0.0567794" y1="-0.111235" x2="-0.463544" y2="0.0522638" style="stroke:rgb(246,147,147);stroke-width:0.01" />
<line x1="0.0708488" y1="-0.114976" x2="-0.463544" y2="0.0529439" style="stroke:rgb(246,147,147);stroke-width:0.01" />
<line x1="0.0847119" y1="-0.118652" x2="-0.463544" y2="0.0536239" style="stroke:rgb(246,147,147);stroke-width:0.01" />
<line x1="0.104197" y1="-0.124094" x2="-0.463544" y2="0.054304" style="stroke:rgb(246,147,147);stroke-width:0.01" />
<line x1="0.130112" y1="-0.0445086" x2="-0.463544" y2="0.142033" style="stroke:rgb(246,147,147);stroke-width:0.01" />
<line x1="0.116947" y1="-0.0396919" x2="-0.463544" y2="0.142713" style="stroke:rgb(246,147,147);stroke-width:0.01" />
<line x1="0.103576" y1="-0.0348103" x2="-0.463544" y2="0.143393" style="stroke:rgb(246,147,147);stroke-width:0.01" />
<line x1="0.089999" y1="-0.0298639" x2="-0.463544" y2="0.144073" style="stroke:rgb(246,147,147);stroke-width:0.01" />
<line x1="0.104197" y1="-0.124094" x2="-0.463544" y2="0.107685" style="stroke:rgb(246,147,147);stroke-width:0.01" />
<line x1="-0.286776" y1="0.107809" x2="-0.444165" y2="0.157264" style="stroke:rgb(246,147,147);stroke-width:0.01" />
<line x1="-0.286776" y1="0.108489" x2="-0.443555" y2="0.157753" style="stroke:rgb(246,147,147);stroke-width:0.01" />
<line x1="-0.286776" y1="0.109169" x2="-0.442945" y2="0.158241" style="stroke:rgb(246,147,147);stroke-width:0.01" />
<line x1="-0.286776" y1="0.109849" x2="-0.442334" y2="0.158729" style="stroke:rgb(246,147,147);stroke-width:0.01" />
<line x1="-0.286776" y1="0.197578" x2="-0.363599" y2="0.221717" style="stroke:rgb(246,147,147);stroke-width:0.01" />
<line x1="-0.286776" y1="0.198258" x2="-0.362989" y2="0.222206" style="stroke:rgb(246,147,147);stroke-width:0.01" />
<line x1="-0.286776" y1="0.198938" x2="-0.362378" y2="0.222694" style="stroke:rgb(246,147,147);stroke-width:0.01" />
<line x1="-0.286776" y1="0.199618" x2="-0.361768" y2="0.223182" style="stroke:rgb(246,147,147);stroke-width:0.01" />
<line x1="0.125949" y1="0.196184" x2="-0.463544" y2="0.32882" style="stroke:rgb(246,147,147);stroke-width:0.01" />
<line x1="-0.286776" y1="0.17985" x2="-0.372293" y2="0.214762" style="stroke:rgb(246,147,147);stroke-width:0.01" />
<line x1="-0.286776" y1="0.283176" x2="-0.370109" y2="0.349842" style="stroke:rgb(246,147,147);stroke-width:0.01" />
</g>
</svg>
