<svg xmlns="http://www.w3.org/2000/svg" viewBox="-1.5 -1.5 3 3">
<g transform="scale(1, -1)">
<path d="M0.111786 -0.125804 L0.130079 -0.044503 L0.116771 -0.040321 L0.116914 -0.039686 L0.103400 -0.035440 L0.103543 -0.034805 L0.089823 -0.030493 L0.089966 -0.029858 L0.076039 -0.025482 L0.125915 0.196190 L-0.296733 0.291286 L-0.369937 0.349848 L-0.463474 0.328802 L-0.463474 0.052237 L0.056746 -0.111229 L0.056992 -0.110626 L0.070816 -0.114970 L0.071062 -0.114367 L0.084679 -0.118646 L0.084925 -0.118043 L0.104164 -0.124089 z " fill="rgb(245,195,195)" />
<path d="M-1.203270 0.049848 L-0.203270 0.049848 L-0.203270 1.049848 L-1.203270 1.049848  z" fill="none" stroke="rgb(128,128,128)" stroke-width="0.01" />
<line x1="0.0983354" y1="-0.122257" x2="0.130079" y2="-0.0445029" style="stroke:rgb(246,147,147);stroke-width:0.01" />
<line x1="0.0846786" y1="-0.118646" x2="0.116914" y2="-0.0396861" style="stroke:rgb(246,147,147);stroke-width:0.01" />
<line x1="0.0708156" y1="-0.11497" x2="0.103543" y2="-0.0348046" style="stroke:rgb(246,147,147);stroke-width:0.01" />
<line x1="0.0567462" y1="-0.111229" x2="0.0899657" y2="-0.0298582" style="stroke:rgb(246,147,147);stroke-width:0.01" />
<line x1="-0.443993" y1="0.15727" x2="-0.286603" y2="0.283181" style="stroke:rgb(246,147,147);stroke-width:0.01" />
<line x1="0.111786" y1="-0.125804" x2="0.130079" y2="-0.0445029" style="stroke:rgb(246,147,147);stroke-width:0.01" />
<line x1="0.0983354" y1="-0.122257" x2="0.116914" y2="-0.0396861" style="stroke:rgb(246,147,147);stroke-width:0.01" />
<line x1="0.0846786" y1="-0.118646" x2="0.103543" y2="-0.0348046" style="stroke:rgb(246,147,147);stroke-width:0.01" />
<line x1="0.0708156" y1="-0.11497" x2="0.0899657" y2="-0.0298582" style="stroke:rgb(246,147,147);stroke-width:0.01" />
<line x1="0.0567462" y1="-0.111229" x2="0.125915" y2="0.19619" style="stroke:rgb(246,147,147);stroke-width:0.01" />
<line x1="-0.463474" y1="0.0522371" x2="-0.286603" y2="0.107814" style="stroke:rgb(246,147,147);stroke-width:0.01" />
<line x1="-0.463474" y1="0.107649" x2="-0.286603" y2="0.179856" style="stroke:rgb(246,147,147);stroke-width:0.01" />
<line x1="-0.463474" y1="0.0529172" x2="-0.286603" y2="0.108494" style="stroke:rgb(246,147,147);stroke-width:0.01" />
<line x1="-0.463474" y1="0.0535973" x2="-0.286603" y2="0.109174" style="stroke:rgb(246,147,147);stroke-width:0.01" />
<line x1="-0.463474" y1="0.0542773" x2="-0.286603" y2="0.109855" style="stroke:rgb(246,147,147);stroke-width:0.01" />
<line x1="-0.463474" y1="0.142006" x2="-0.286603" y2="0.197583" style="stroke:rgb(246,147,147);stroke-width:0.01" />
<line x1="-0.463474" y1="0.142686" x2="-0.286603" y2="0.198264" style="stroke:rgb(246,147,147);stroke-width:0.01" />
<line x1="-0.463474" y1="0.143366" x2="-0.286603" y2="0.198944" style="stroke:rgb(246,147,147);stroke-width:0.01" />
<line x1="-0.463474" y1="0.144046" x2="-0.286603" y2="0.199624" style="stroke:rgb(246,147,147);stroke-width:0.01" />
<line x1="-0.435041" y1="0.0498481" x2="-0.348362" y2="0.0643956" style="stroke:rgb(246,147,147);stroke-width:0.01" />
<line x1="-0.435602" y1="0.0643956" x2="-0.350208" y2="0.0787275" style="stroke:rgb(246,147,147);stroke-width:0.01" />
<line x1="-0.436145" y1="0.0787275" x2="-0.352035" y2="0.0928438" style="stroke:rgb(246,147,147);stroke-width:0.01" />
<line x1="-0.436671" y1="0.0928438" x2="-0.353845" y2="0.106745" style="stroke:rgb(246,147,147);stroke-width:0.01" />
<line x1="-0.437829" y1="0.106745" x2="-0.356287" y2="0.12043" style="stroke:rgb(246,147,147);stroke-width:0.01" />
<line x1="-0.435041" y1="0.0498481" x2="-0.286603" y2="0.0498481" style="stroke:rgb(246,147,147);stroke-width:0.01" />
<line x1="-0.463474" y1="0.0522371" x2="-0.463474" y2="0.328802" style="stroke:rgb(246,147,147);stroke-width:0.01" />
<line x1="-0.369937" y1="0.0498481" x2="-0.369937" y2="0.349848" style="stroke:rgb(246,147,147);stroke-width:0.01" />
<line x1="-0.286603" y1="0.0498481" x2="-0.286603" y2="0.283181" style="stroke:rgb(246,147,147);stroke-width:0.01" />
<line x1="-0.435602" y1="0.0643956" x2="-0.348362" y2="0.0643956" style="stroke:rgb(246,147,147);stroke-width:0.01" />
<line x1="-0.436145" y1="0.0787275" x2="-0.350208" y2="0.0787275" style="stroke:rgb(246,147,147);stroke-width:0.01" />
<line x1="-0.436671" y1="0.0928438" x2="-0.352035" y2="0.0928438" style="stroke:rgb(246,147,147);stroke-width:0.01" />
<line x1="-0.437829" y1="0.106745" x2="-0.353845" y2="0.106745" style="stroke:rgb(246,147,147);stroke-width:0.01" />
<line x1="-0.435041" y1="0.0498481" x2="-0.443993" y2="0.15727" style="stroke:rgb(246,147,147);stroke-width:0.01" />
<line x1="-0.435602" y1="0.0643956" x2="-0.443382" y2="0.157758" style="stroke:rgb(246,147,147);stroke-width:0.01" />
<line x1="-0.436145" y1="0.0787275" x2="-0.442772" y2="0.158247" style="stroke:rgb(246,147,147);stroke-width:0.01" />
<line x1="-0.436671" y1="0.0928438" x2="-0.442162" y2="0.158735" style="stroke:rgb(246,147,147);stroke-width:0.01" />
<line x1="-0.353845" y1="0.106745" x2="-0.363426" y2="0.221723" style="stroke:rgb(246,147,147);stroke-width:0.01" />
<line x1="-0.352035" y1="0.0928438" x2="-0.362816" y2="0.222211" style="stroke:rgb(246,147,147);stroke-width:0.01" />
<line x1="-0.350208" y1="0.0787275" x2="-0.362206" y2="0.2227" style="stroke:rgb(246,147,147);stroke-width:0.01" />
<line x1="-0.348362" y1="0.0643956" x2="-0.361595" y2="0.223188" style="stroke:rgb(246,147,147);stroke-width:0.01" />
<line x1="-0.463474" y1="0.328802" x2="-0.369937" y2="0.349848" style="stroke:rgb(246,147,147);stroke-width:0.01" />
<line x1="0.111786" y1="-0.125804" x2="0.104164" y2="-0.124089" style="stroke:rgb(246,147,147);stroke-width:0.01" />
<line x1="-0.356287" y1="0.12043" x2="-0.37212" y2="0.214768" style="stroke:rgb(246,147,147);stroke-width:0.01" />
<line x1="0.0567462" y1="-0.111229" x2="-0.463474" y2="0.0522371" style="stroke:rgb(246,147,147);stroke-width:0.01" />
<line x1="0.0708156" y1="-0.11497" x2="-0.463474" y2="0.0529172" style="stroke:rgb(246,147,147);stroke-width:0.01" />
<line x1="0.0846786" y1="-0.118646" x2="-0.463474" y2="0.0535973" style="stroke:rgb(246,147,147);stroke-width:0.01" />
<line x1="0.104164" y1="-0.124089" x2="-0.463474" y2="0.0542773" style="stroke:rgb(246,147,147);stroke-width:0.01" />
<line x1="0.130079" y1="-0.0445029" x2="-0.463474" y2="0.142006" style="stroke:rgb(246,147,147);stroke-width:0.01" />
<line x1="0.116914" y1="-0.0396861" x2="-0.463474" y2="0.142686" style="stroke:rgb(246,147,147);stroke-width:0.01" />
<line x1="0.103543" y1="-0.0348046" x2="-0.463474" y2="0.143366" style="stroke:rgb(246,147,147);stroke-width:0.01" />
<line x1="0.0899657" y1="-0.0298582" x2="-0.463474" y2="0.144046" style="stroke:rgb(246,147,147);stroke-width:0.01" />
<line x1="0.104164" y1="-0.124089" x2="-0.463474" y2="0.107649" style="stroke:rgb(246,147,147);stroke-width:0.01" />
<line x1="-0.286603" y1="0.107814" x2="-0.443993" y2="0.15727" style="stroke:rgb(246,147,147);stroke-width:0.01" />
<line x1="-0.286603" y1="0.108494" x2="-0.443382" y2="0.157758" style="stroke:rgb(246,147,147);stroke-width:0.01" />
<line x1="-0.286603" y1="0.109174" x2="-0.442772" y2="0.158247" style="stroke:rgb(246,147,147);stroke-width:0.01" />
<line x1="-0.286603" y1="0.109855" x2="-0.442162" y2="0.158735" style="stroke:rgb(246,147,147);stroke-width:0.01" />
<line x1="-0.286603" y1="0.197583" x2="-0.363426" y2="0.221723" style="stroke:rgb(246,147,147);stroke-width:0.01" />
<line x1="-0.286603" y1="0.198264" x2="-0.362816" y2="0.222211" style="stroke:rgb(246,147,147);stroke-width:0.01" />
<line x1="-0.286603" y1="0.198944" x2="-0.362206" y2="0.2227" style="stroke:rgb(246,147,147);stroke-width:0.01" />
<line x1="-0.286603" y1="0.199624" x2="-0.361595" y2="0.223188" style="stroke:rgb(246,147,147);stroke-width:0.01" />
<line x1="0.125915" y1="0.19619" x2="-0.463474" y2="0.328802" style="stroke:rgb(246,147,147);stroke-width:0.01" />
<line x1="-0.286603" y1="0.179856" x2="-0.37212" y2="0.214768" style="stroke:rgb(246,147,147);stroke-width:0.01" />
<line x1="-0.286603" y1="0.283181" x2="-0.369937" y2="0.349848" style="stroke:rgb(246,147,147);stroke-width:0.01" />
</g>
</svg>
