<svg xmlns="http://www.w3.org/2000/svg" viewBox="-1.5 -1.5 3 3">
<g transform="scale(1, -1)">
<path d="M0.111752 -0.125798 L0.130045 -0.044497 L0.116737 -0.040315 L0.116880 -0.039680 L0.103366 -0.035434 L0.103509 -0.034799 L0.089789 -0.030488 L0.089932 -0.029852 L0.076005 -0.025476 L0.125881 0.196195 L-0.296475 0.291226 L-0.369760 0.349854 L-0.463403 0.328784 L-0.463403 0.052210 L0.056712 -0.111223 L0.056958 -0.110621 L0.070782 -0.114964 L0.071028 -0.114361 L0.084645 -0.118640 L0.084891 -0.118037 L0.104130 -0.124083 z " fill="rgb(245,195,195)" />
<path d="M-1.203094 0.049854 L-0.203094 0.049854 L-0.203094 1.049854 L-1.203094 1.049854  z" fill="none" stroke="rgb(128,128,128)" stroke-width="0.01" />
<line x1="0.0983014" y1="-0.122251" x2="0.130045" y2="-0.044497" style="stroke:rgb(246,147,147);stroke-width:0.01" />
<line x1="0.0846447" y1="-0.11864" x2="0.11688" y2="-0.0396803" style="stroke:rgb(246,147,147);stroke-width:0.01" />
<line x1="0.0707816" y1="-0.114964" x2="0.103509" y2="-0.0347987" style="stroke:rgb(246,147,147);stroke-width:0.01" />
<line x1="0.0567122" y1="-0.111223" x2="0.0899317" y2="-0.0298524" style="stroke:rgb(246,147,147);stroke-width:0.01" />
<line x1="-0.443816" y1="0.157276" x2="-0.286427" y2="0.283187" style="stroke:rgb(246,147,147);stroke-width:0.01" />
<line x1="0.111752" y1="-0.125798" x2="0.130045" y2="-0.044497" style="stroke:rgb(246,147,147);stroke-width:0.01" />
<line x1="0.0983014" y1="-0.122251" x2="0.11688" y2="-0.0396803" style="stroke:rgb(246,147,147);stroke-width:0.01" />
<line x1="0.0846447" y1="-0.11864" x2="0.103509" y2="-0.0347987" style="stroke:rgb(246,147,147);stroke-width:0.01" />
<line x1="0.0707816" y1="-0.114964" x2="0.0899317" y2="-0.0298524" style="stroke:rgb(246,147,147);stroke-width:0.01" />
<line x1="0.0567122" y1="-0.111223" x2="0.125881" y2="0.196195" style="stroke:rgb(246,147,147);stroke-width:0.01" />
<line x1="-0.463403" y1="0.0522099" x2="-0.286427" y2="0.10782" style="stroke:rgb(246,147,147);stroke-width:0.01" />
<line x1="-0.463403" y1="0.107612" x2="-0.286427" y2="0.179862" style="stroke:rgb(246,147,147);stroke-width:0.01" />
<line x1="-0.463403" y1="0.05289" x2="-0.286427" y2="0.1085" style="stroke:rgb(246,147,147);stroke-width:0.01" />
<line x1="-0.463403" y1="0.05357" x2="-0.286427" y2="0.10918" style="stroke:rgb(246,147,147);stroke-width:0.01" />
<line x1="-0.463403" y1="0.0542501" x2="-0.286427" y2="0.10986" style="stroke:rgb(246,147,147);stroke-width:0.01" />
<line x1="-0.463403" y1="0.141979" x2="-0.286427" y2="0.197589" style="stroke:rgb(246,147,147);stroke-width:0.01" />
<line x1="-0.463403" y1="0.142659" x2="-0.286427" y2="0.198269" style="stroke:rgb(246,147,147);stroke-width:0.01" />
<line x1="-0.463403" y1="0.143339" x2="-0.286427" y2="0.198949" style="stroke:rgb(246,147,147);stroke-width:0.01" />
<line x1="-0.463403" y1="0.144019" x2="-0.286427" y2="0.19963" style="stroke:rgb(246,147,147);stroke-width:0.01" />
<line x1="-0.434864" y1="0.049854" x2="-0.348186" y2="0.0644014" style="stroke:rgb(246,147,147);stroke-width:0.01" />
<line x1="-0.435426" y1="0.0644014" x2="-0.350031" y2="0.0787333" style="stroke:rgb(246,147,147);stroke-width:0.01" />
<line x1="-0.435969" y1="0.0787333" x2="-0.351859" y2="0.0928497" style="stroke:rgb(246,147,147);stroke-width:0.01" />
<line x1="-0.436494" y1="0.0928497" x2="-0.353668" y2="0.106751" style="stroke:rgb(246,147,147);stroke-width:0.01" />
<line x1="-0.437653" y1="0.106751" x2="-0.356111" y2="0.120436" style="stroke:rgb(246,147,147);stroke-width:0.01" />
<line x1="-0.434864" y1="0.049854" x2="-0.286427" y2="0.049854" style="stroke:rgb(246,147,147);stroke-width:0.01" />
<line x1="-0.463403" y1="0.0522099" x2="-0.463403" y2="0.328784" style="stroke:rgb(246,147,147);stroke-width:0.01" />
<line x1="-0.36976" y1="0.049854" x2="-0.36976" y2="0.349854" style="stroke:rgb(246,147,147);stroke-width:0.01" />
<line x1="-0.286427" y1="0.049854" x2="-0.286427" y2="0.283187" style="stroke:rgb(246,147,147);stroke-width:0.01" />
<line x1="-0.435426" y1="0.0644014" x2="-0.348186" y2="0.0644014" style="stroke:rgb(246,147,147);stroke-width:0.01" />
<line x1="-0.435969" y1="0.0787333" x2="-0.350031" y2="0.0787333" style="stroke:rgb(246,147,147);stroke-width:0.01" />
<line x1="-0.436494" y1="0.0928497" x2="-0.351859" y2="0.0928497" style="stroke:rgb(246,147,147);stroke-width:0.01" />
<line x1="-0.437653" y1="0.106751" x2="-0.353668" y2="0.106751" style="stroke:rgb(246,147,147);stroke-width:0.01" />
<line x1="-0.434864" y1="0.049854" x2="-0.443816" y2="0.157276" style="stroke:rgb(246,147,147);stroke-width:0.01" />
<line x1="-0.435426" y1="0.0644014" x2="-0.443206" y2="0.157764" style="stroke:rgb(246,147,147);stroke-width:0.01" />
<line x1="-0.435969" y1="0.0787333" x2="-0.442596" y2="0.158252" style="stroke:rgb(246,147,147);stroke-width:0.01" />
<line x1="-0.436494" y1="0.0928497" x2="-0.441985" y2="0.158741" style="stroke:rgb(246,147,147);stroke-width:0.01" />
<line x1="-0.353668" y1="0.106751" x2="-0.36325" y2="0.221729" style="stroke:rgb(246,147,147);stroke-width:0.01" />
<line x1="-0.351859" y1="0.0928497" x2="-0.362639" y2="0.222217" style="stroke:rgb(246,147,147);stroke-width:0.01" />
<line x1="-0.350031" y1="0.0787333" x2="-0.362029" y2="0.222706" style="stroke:rgb(246,147,147);stroke-width:0.01" />
<line x1="-0.348186" y1="0.0644014" x2="-0.361419" y2="0.223194" style="stroke:rgb(246,147,147);stroke-width:0.01" />
<line x1="-0.463403" y1="0.328784" x2="-0.36976" y2="0.349854" style="stroke:rgb(246,147,147);stroke-width:0.01" />
<line x1="0.111752" y1="-0.125798" x2="0.10413" y2="-0.124083" style="stroke:rgb(246,147,147);stroke-width:0.01" />
<line x1="-0.356111" y1="0.120436" x2="-0.371944" y2="0.214774" style="stroke:rgb(246,147,147);stroke-width:0.01" />
<line x1="0.0567122" y1="-0.111223" x2="-0.463403" y2="0.0522099" style="stroke:rgb(246,147,147);stroke-width:0.01" />
<line x1="0.0707816" y1="-0.114964" x2="-0.463403" y2="0.05289" style="stroke:rgb(246,147,147);stroke-width:0.01" />
<line x1="0.0846447" y1="-0.11864" x2="-0.463403" y2="0.05357" style="stroke:rgb(246,147,147);stroke-width:0.01" />
<line x1="0.10413" y1="-0.124083" x2="-0.463403" y2="0.0542501" style="stroke:rgb(246,147,147);stroke-width:0.01" />
<line x1="0.130045" y1="-0.044497" x2="-0.463403" y2="0.141979" style="stroke:rgb(246,147,147);stroke-width:0.01" />
<line x1="0.11688" y1="-0.0396803" x2="-0.463403" y2="0.142659" style="stroke:rgb(246,147,147);stroke-width:0.01" />
<line x1="0.103509" y1="-0.0347987" x2="-0.463403" y2="0.143339" style="stroke:rgb(246,147,147);stroke-width:0.01" />
<line x1="0.0899317" y1="-0.0298524" x2="-0.463403" y2="0.144019" style="stroke:rgb(246,147,147);stroke-width:0.01" />
<line x1="0.10413" y1="-0.124083" x2="-0.463403" y2="0.107612" style="stroke:rgb(246,147,147);stroke-width:0.01" />
<line x1="-0.286427" y1="0.10782" x2="-0.443816" y2="0.157276" style="stroke:rgb(246,147,147);stroke-width:0.01" />
<line x1="-0.286427" y1="0.1085" x2="-0.443206" y2="0.157764" style="stroke:rgb(246,147,147);stroke-width:0.01" />
<line x1="-0.286427" y1="0.10918" x2="-0.442596" y2="0.158252" style="stroke:rgb(246,147,147);stroke-width:0.01" />
<line x1="-0.286427" y1="0.10986" x2="-0.441985" y2="0.158741" style="stroke:rgb(246,147,147);stroke-width:0.01" />
<line x1="-0.286427" y1="0.197589" x2="-0.36325" y2="0.221729" style="stroke:rgb(246,147,147);stroke-width:0.01" />
<line x1="-0.286427" y1="0.198269" x2="-0.362639" y2="0.222217" style="stroke:rgb(246,147,147);stroke-width:0.01" />
<line x1="-0.286427" y1="0.198949" x2="-0.362029" y2="0.222706" style="stroke:rgb(246,147,147);stroke-width:0.01" />
<line x1="-0.286427" y1="0.19963" x2="-0.361419" y2="0.223194" style="stroke:rgb(246,147,147);stroke-width:0.01" />
<line x1="0.125881" y1="0.196195" x2="-0.463403" y2="0.328784" style="stroke:rgb(246,147,147);stroke-width:0.01" />
<line x1="-0.286427" y1="0.179862" x2="-0.371944" y2="0.214774" style="stroke:rgb(246,147,147);stroke-width:0.01" />
<line x1="-0.286427" y1="0.283187" x2="-0.36976" y2="0.349854" style="stroke:rgb(246,147,147);stroke-width:0.01" />
</g>
</svg>
