<svg xmlns="http://www.w3.org/2000/svg" viewBox="-1.5 -1.5 3 3">
<g transform="scale(1, -1)">
<path d="M0.111682 -0.125786 L0.129974 -0.044485 L0.116667 -0.040303 L0.116810 -0.039668 L0.103296 -0.035422 L0.103439 -0.034787 L0.089719 -0.030475 L0.089862 -0.029840 L0.075935 -0.025464 L0.125811 0.196207 L-0.295941 0.291102 L-0.369396 0.349866 L-0.463256 0.328748 L-0.463256 0.052154 L0.056642 -0.111211 L0.056888 -0.110608 L0.070711 -0.114952 L0.070958 -0.114349 L0.084575 -0.118628 L0.084821 -0.118025 L0.104060 -0.124071 z " fill="rgb(245,195,195)" />
<path d="M-1.202730 0.049866 L-0.202730 0.049866 L-0.202730 1.049866 L-1.202730 1.049866  z" fill="none" stroke="rgb(128,128,128)" stroke-width="0.01" />
<line x1="0.0982313" y1="-0.122239" x2="0.129974" y2="-0.044485" style="stroke:rgb(246,147,147);stroke-width:0.01" />
<line x1="0.0845746" y1="-0.118628" x2="0.11681" y2="-0.0396683" style="stroke:rgb(246,147,147);stroke-width:0.01" />
<line x1="0.0707115" y1="-0.114952" x2="0.103439" y2="-0.0347867" style="stroke:rgb(246,147,147);stroke-width:0.01" />
<line x1="0.0566421" y1="-0.111211" x2="0.0898616" y2="-0.0298403" style="stroke:rgb(246,147,147);stroke-width:0.01" />
<line x1="-0.443452" y1="0.157288" x2="-0.286063" y2="0.283199" style="stroke:rgb(246,147,147);stroke-width:0.01" />
<line x1="0.111682" y1="-0.125786" x2="0.129974" y2="-0.044485" style="stroke:rgb(246,147,147);stroke-width:0.01" />
<line x1="0.0982313" y1="-0.122239" x2="0.11681" y2="-0.0396683" style="stroke:rgb(246,147,147);stroke-width:0.01" />
<line x1="0.0845746" y1="-0.118628" x2="0.103439" y2="-0.0347867" style="stroke:rgb(246,147,147);stroke-width:0.01" />
<line x1="0.0707115" y1="-0.114952" x2="0.0898616" y2="-0.0298403" style="stroke:rgb(246,147,147);stroke-width:0.01" />
<line x1="0.0566421" y1="-0.111211" x2="0.125811" y2="0.196207" style="stroke:rgb(246,147,147);stroke-width:0.01" />
<line x1="-0.463256" y1="0.0521538" x2="-0.286063" y2="0.107832" style="stroke:rgb(246,147,147);stroke-width:0.01" />
<line x1="-0.463256" y1="0.107535" x2="-0.286063" y2="0.179874" style="stroke:rgb(246,147,147);stroke-width:0.01" />
<line x1="-0.463256" y1="0.0528338" x2="-0.286063" y2="0.108512" style="stroke:rgb(246,147,147);stroke-width:0.01" />
<line x1="-0.463256" y1="0.0535139" x2="-0.286063" y2="0.109192" style="stroke:rgb(246,147,147);stroke-width:0.01" />
<line x1="-0.463256" y1="0.054194" x2="-0.286063" y2="0.109872" style="stroke:rgb(246,147,147);stroke-width:0.01" />
<line x1="-0.463256" y1="0.141923" x2="-0.286063" y2="0.197601" style="stroke:rgb(246,147,147);stroke-width:0.01" />
<line x1="-0.463256" y1="0.142603" x2="-0.286063" y2="0.198281" style="stroke:rgb(246,147,147);stroke-width:0.01" />
<line x1="-0.463256" y1="0.143283" x2="-0.286063" y2="0.198961" style="stroke:rgb(246,147,147);stroke-width:0.01" />
<line x1="-0.463256" y1="0.143963" x2="-0.286063" y2="0.199642" style="stroke:rgb(246,147,147);stroke-width:0.01" />
<line x1="-0.4345" y1="0.049866" x2="-0.347822" y2="0.0644134" style="stroke:rgb(246,147,147);stroke-width:0.01" />
<line x1="-0.435062" y1="0.0644134" x2="-0.349667" y2="0.0787453" style="stroke:rgb(246,147,147);stroke-width:0.01" />
<line x1="-0.435605" y1="0.0787453" x2="-0.351495" y2="0.0928617" style="stroke:rgb(246,147,147);stroke-width:0.01" />
<line x1="-0.43613" y1="0.0928617" x2="-0.353304" y2="0.106763" style="stroke:rgb(246,147,147);stroke-width:0.01" />
<line x1="-0.437289" y1="0.106763" x2="-0.355747" y2="0.120448" style="stroke:rgb(246,147,147);stroke-width:0.01" />
<line x1="-0.4345" y1="0.049866" x2="-0.286063" y2="0.049866" style="stroke:rgb(246,147,147);stroke-width:0.01" />
<line x1="-0.463256" y1="0.0521538" x2="-0.463256" y2="0.328748" style="stroke:rgb(246,147,147);stroke-width:0.01" />
<line x1="-0.369396" y1="0.049866" x2="-0.369396" y2="0.349866" style="stroke:rgb(246,147,147);stroke-width:0.01" />
<line x1="-0.286063" y1="0.049866" x2="-0.286063" y2="0.283199" style="stroke:rgb(246,147,147);stroke-width:0.01" />
<line x1="-0.435062" y1="0.0644134" x2="-0.347822" y2="0.0644134" style="stroke:rgb(246,147,147);stroke-width:0.01" />
<line x1="-0.435605" y1="0.0787453" x2="-0.349667" y2="0.0787453" style="stroke:rgb(246,147,147);stroke-width:0.01" />
<line x1="-0.43613" y1="0.0928617" x2="-0.351495" y2="0.0928617" style="stroke:rgb(246,147,147);stroke-width:0.01" />
<line x1="-0.437289" y1="0.106763" x2="-0.353304" y2="0.106763" style="stroke:rgb(246,147,147);stroke-width:0.01" />
<line x1="-0.4345" y1="0.049866" x2="-0.443452" y2="0.157288" style="stroke:rgb(246,147,147);stroke-width:0.01" />
<line x1="-0.435062" y1="0.0644134" x2="-0.442842" y2="0.157776" style="stroke:rgb(246,147,147);stroke-width:0.01" />
<line x1="-0.435605" y1="0.0787453" x2="-0.442232" y2="0.158264" style="stroke:rgb(246,147,147);stroke-width:0.01" />
<line x1="-0.43613" y1="0.0928617" x2="-0.441621" y2="0.158753" style="stroke:rgb(246,147,147);stroke-width:0.01" />
<line x1="-0.353304" y1="0.106763" x2="-0.362886" y2="0.221741" style="stroke:rgb(246,147,147);stroke-width:0.01" />
<line x1="-0.351495" y1="0.0928617" x2="-0.362275" y2="0.222229" style="stroke:rgb(246,147,147);stroke-width:0.01" />
<line x1="-0.349667" y1="0.0787453" x2="-0.361665" y2="0.222718" style="stroke:rgb(246,147,147);stroke-width:0.01" />
<line x1="-0.347822" y1="0.0644134" x2="-0.361055" y2="0.223206" style="stroke:rgb(246,147,147);stroke-width:0.01" />
<line x1="-0.463256" y1="0.328748" x2="-0.369396" y2="0.349866" style="stroke:rgb(246,147,147);stroke-width:0.01" />
<line x1="0.111682" y1="-0.125786" x2="0.10406" y2="-0.124071" style="stroke:rgb(246,147,147);stroke-width:0.01" />
<line x1="-0.355747" y1="0.120448" x2="-0.37158" y2="0.214786" style="stroke:rgb(246,147,147);stroke-width:0.01" />
<line x1="0.0566421" y1="-0.111211" x2="-0.463256" y2="0.0521538" style="stroke:rgb(246,147,147);stroke-width:0.01" />
<line x1="0.0707115" y1="-0.114952" x2="-0.463256" y2="0.0528338" style="stroke:rgb(246,147,147);stroke-width:0.01" />
<line x1="0.0845746" y1="-0.118628" x2="-0.463256" y2="0.0535139" style="stroke:rgb(246,147,147);stroke-width:0.01" />
<line x1="0.10406" y1="-0.124071" x2="-0.463256" y2="0.054194" style="stroke:rgb(246,147,147);stroke-width:0.01" />
<line x1="0.129974" y1="-0.044485" x2="-0.463256" y2="0.141923" style="stroke:rgb(246,147,147);stroke-width:0.01" />
<line x1="0.11681" y1="-0.0396683" x2="-0.463256" y2="0.142603" style="stroke:rgb(246,147,147);stroke-width:0.01" />
<line x1="0.103439" y1="-0.0347867" x2="-0.463256" y2="0.143283" style="stroke:rgb(246,147,147);stroke-width:0.01" />
<line x1="0.0898616" y1="-0.0298403" x2="-0.463256" y2="0.143963" style="stroke:rgb(246,147,147);stroke-width:0.01" />
<line x1="0.10406" y1="-0.124071" x2="-0.463256" y2="0.107535" style="stroke:rgb(246,147,147);stroke-width:0.01" />
<line x1="-0.286063" y1="0.107832" x2="-0.443452" y2="0.157288" style="stroke:rgb(246,147,147);stroke-width:0.01" />
<line x1="-0.286063" y1="0.108512" x2="-0.442842" y2="0.157776" style="stroke:rgb(246,147,147);stroke-width:0.01" />
<line x1="-0.286063" y1="0.109192" x2="-0.442232" y2="0.158264" style="stroke:rgb(246,147,147);stroke-width:0.01" />
<line x1="-0.286063" y1="0.109872" x2="-0.441621" y2="0.158753" style="stroke:rgb(246,147,147);stroke-width:0.01" />
<line x1="-0.286063" y1="0.197601" x2="-0.362886" y2="0.221741" style="stroke:rgb(246,147,147);stroke-width:0.01" />
<line x1="-0.286063" y1="0.198281" x2="-0.362275" y2="0.222229" style="stroke:rgb(246,147,147);stroke-width:0.01" />
<line x1="-0.286063" y1="0.198961" x2="-0.361665" y2="0.222718" style="stroke:rgb(246,147,147);stroke-width:0.01" />
<line x1="-0.286063" y1="0.199642" x2="-0.361055" y2="0.223206" style="stroke:rgb(246,147,147);stroke-width:0.01" />
<line x1="0.125811" y1="0.196207" x2="-0.463256" y2="0.328748" style="stroke:rgb(246,147,147);stroke-width:0.01" />
<line x1="-0.286063" y1="0.179874" x2="-0.37158" y2="0.214786" style="stroke:rgb(246,147,147);stroke-width:0.01" />
<line x1="-0.286063" y1="0.283199" x2="-0.369396" y2="0.349866" style="stroke:rgb(246,147,147);stroke-width:0.01" />
</g>
</svg>
