<svg xmlns="http://www.w3.org/2000/svg" viewBox="-1.5 -1.5 3 3">
<g transform="scale(1, -1)">
<path d="M-0.132761 -0.403248 L0.122096 -0.328915 L0.233096 0.094085 L0.049655 0.281850 L0.230607 0.458636 L0.230304 0.482443 L-0.213258 0.476792 L-0.218581 0.019791 L-0.019424 -0.184060 L-0.053476 -0.249915 L-0.074904 -0.256165 L-0.153353 -0.391294 z " fill="rgb(245,195,195)" />
<path d="M0.190096 -0.829915 L1.190096 -0.829915 L1.190096 0.170085 L0.190096 0.170085  z" fill="none" stroke="rgb(128,128,128)" stroke-width="0.01" />
<line x1="-0.132024" y1="-0.00712582" x2="-0.138154" y2="0.474085" style="stroke:rgb(246,147,147);stroke-width:0.01" />
<line x1="0.0602988" y1="0.292249" x2="0.0580999" y2="0.464854" style="stroke:rgb(246,147,147);stroke-width:0.01" />
<line x1="0.146762" y1="-0.234915" x2="0.141375" y2="0.187967" style="stroke:rgb(246,147,147);stroke-width:0.01" />
<line x1="0.230607" y1="0.458636" x2="0.230304" y2="0.482443" style="stroke:rgb(246,147,147);stroke-width:0.01" />
<line x1="-0.218581" y1="0.019791" x2="-0.213258" y2="0.476792" style="stroke:rgb(246,147,147);stroke-width:0.01" />
<line x1="0.0227022" y1="0.192245" x2="0.0267764" y2="0.305267" style="stroke:rgb(246,147,147);stroke-width:0.01" />
<line x1="0.122096" y1="-0.328915" x2="0.233096" y2="0.0940851" style="stroke:rgb(246,147,147);stroke-width:0.01" />
<line x1="0.0860957" y1="-0.339415" x2="0.146762" y2="-0.234915" style="stroke:rgb(246,147,147);stroke-width:0.01" />
<line x1="-0.132761" y1="-0.403248" x2="-0.153353" y2="-0.391294" style="stroke:rgb(246,147,147);stroke-width:0.01" />
<line x1="0.122096" y1="-0.328915" x2="-0.218581" y2="0.019791" style="stroke:rgb(246,147,147);stroke-width:0.01" />
<line x1="-0.132761" y1="-0.403248" x2="0.105096" y2="0.0567518" style="stroke:rgb(246,147,147);stroke-width:0.01" />
<line x1="-0.153353" y1="-0.391294" x2="-0.0749043" y2="-0.256165" style="stroke:rgb(246,147,147);stroke-width:0.01" />
<line x1="0.159096" y1="-0.187915" x2="-0.216522" y2="0.196556" style="stroke:rgb(246,147,147);stroke-width:0.01" />
<line x1="0.0860957" y1="-0.339415" x2="-0.0749043" y2="-0.256165" style="stroke:rgb(246,147,147);stroke-width:0.01" />
<line x1="0.233096" y1="0.0940851" x2="-0.138154" y2="0.474085" style="stroke:rgb(246,147,147);stroke-width:0.01" />
<line x1="-0.132761" y1="-0.403248" x2="0.122096" y2="-0.328915" style="stroke:rgb(246,147,147);stroke-width:0.01" />
<line x1="-0.0749043" y1="-0.256165" x2="0.159096" y2="-0.187915" style="stroke:rgb(246,147,147);stroke-width:0.01" />
<line x1="0.207672" y1="-0.0027983" x2="0.105096" y2="0.0567518" style="stroke:rgb(246,147,147);stroke-width:0.01" />
<line x1="-0.218581" y1="0.019791" x2="0.230607" y2="0.458636" style="stroke:rgb(246,147,147);stroke-width:0.01" />
<line x1="-0.216522" y1="0.196556" x2="0.0580999" y2="0.464854" style="stroke:rgb(246,147,147);stroke-width:0.01" />
<line x1="-0.132024" y1="-0.00712582" x2="0.207672" y2="-0.0027983" style="stroke:rgb(246,147,147);stroke-width:0.01" />
<line x1="0.105096" y1="0.0567518" x2="0.233096" y2="0.0940851" style="stroke:rgb(246,147,147);stroke-width:0.01" />
<line x1="0.141375" y1="0.187967" x2="0.0227022" y2="0.192245" style="stroke:rgb(246,147,147);stroke-width:0.01" />
<line x1="0.0602988" y1="0.292249" x2="-0.215292" y2="0.302183" style="stroke:rgb(246,147,147);stroke-width:0.01" />
<line x1="-0.215292" y1="0.302183" x2="0.0267764" y2="0.305267" style="stroke:rgb(246,147,147);stroke-width:0.01" />
<line x1="0.230607" y1="0.458636" x2="0.0580999" y2="0.464854" style="stroke:rgb(246,147,147);stroke-width:0.01" />
<line x1="-0.138154" y1="0.474085" x2="-0.213258" y2="0.476792" style="stroke:rgb(246,147,147);stroke-width:0.01" />
<line x1="-0.213258" y1="0.476792" x2="0.230304" y2="0.482443" style="stroke:rgb(246,147,147);stroke-width:0.01" />
</g>
</svg>
