<svg xmlns="http://www.w3.org/2000/svg" viewBox="-1.5 -1.5 3 3">
<g transform="scale(1, -1)">
<path d="M0.201108 -0.667565 L0.552191 0.152949 L-0.207383 0.664487 L-0.213442 0.658831 L-0.210895 0.655313 L-0.512985 -0.133820 L0.195726 -0.663543 L0.195680 -0.666652 z " fill="rgb(245,195,195)" />
<path d="M0.195680 0.080149 L1.195680 0.080149 L1.195680 1.080149 L0.195680 1.080149  z" fill="none" stroke="rgb(128,128,128)" stroke-width="0.01" />
<line x1="0.204793" y1="-0.658953" x2="0.195796" y2="-0.658819" style="stroke:rgb(246,147,147);stroke-width:0.01" />
<line x1="0.201108" y1="-0.667565" x2="0.19568" y2="-0.666652" style="stroke:rgb(246,147,147);stroke-width:0.01" />
<line x1="0.201108" y1="-0.667565" x2="-0.512985" y2="-0.13382" style="stroke:rgb(246,147,147);stroke-width:0.01" />
<line x1="0.204793" y1="-0.658953" x2="-0.398032" y2="-0.0459471" style="stroke:rgb(246,147,147);stroke-width:0.01" />
<line x1="-0.331872" y1="-0.159302" x2="-0.398032" y2="-0.0459471" style="stroke:rgb(246,147,147);stroke-width:0.01" />
<line x1="0.480019" y1="0.080149" x2="0.552191" y2="0.152949" style="stroke:rgb(246,147,147);stroke-width:0.01" />
<line x1="0.201108" y1="-0.667565" x2="0.552191" y2="0.152949" style="stroke:rgb(246,147,147);stroke-width:0.01" />
<line x1="0.19568" y1="-0.666652" x2="0.481724" y2="0.200405" style="stroke:rgb(246,147,147);stroke-width:0.01" />
<line x1="0.421399" y1="0.149171" x2="0.481724" y2="0.200405" style="stroke:rgb(246,147,147);stroke-width:0.01" />
<line x1="0.19568" y1="-0.666652" x2="0.195796" y2="-0.658819" style="stroke:rgb(246,147,147);stroke-width:0.01" />
<line x1="-0.209776" y1="0.653768" x2="-0.213442" y2="0.658831" style="stroke:rgb(246,147,147);stroke-width:0.01" />
<line x1="-0.414427" y1="-0.207486" x2="-0.331872" y2="-0.159302" style="stroke:rgb(246,147,147);stroke-width:0.01" />
<line x1="-0.414427" y1="-0.207486" x2="-0.200953" y2="0.660157" style="stroke:rgb(246,147,147);stroke-width:0.01" />
<line x1="0.480019" y1="0.080149" x2="-0.213442" y2="0.658831" style="stroke:rgb(246,147,147);stroke-width:0.01" />
<line x1="0.480019" y1="0.080149" x2="0.421399" y2="0.149171" style="stroke:rgb(246,147,147);stroke-width:0.01" />
<line x1="-0.512985" y1="-0.13382" x2="-0.398032" y2="-0.0459471" style="stroke:rgb(246,147,147);stroke-width:0.01" />
<line x1="-0.512985" y1="-0.13382" x2="-0.207383" y2="0.664487" style="stroke:rgb(246,147,147);stroke-width:0.01" />
<line x1="0.552191" y1="0.152949" x2="-0.207383" y2="0.664487" style="stroke:rgb(246,147,147);stroke-width:0.01" />
<line x1="-0.213442" y1="0.658831" x2="-0.207383" y2="0.664487" style="stroke:rgb(246,147,147);stroke-width:0.01" />
<line x1="-0.209776" y1="0.653768" x2="-0.200953" y2="0.660157" style="stroke:rgb(246,147,147);stroke-width:0.01" />
</g>
</svg>
