<svg xmlns="http://www.w3.org/2000/svg" viewBox="-1.5 -1.5 3 3">
<g transform="scale(1, -1)">
<path d="M0.005428 -0.747714 L0.356511 0.072800 L-0.403063 0.584338 L-0.409121 0.578682 L-0.406574 0.575164 L-0.708664 -0.213969 L0.000046 -0.743692 L0.000000 -0.746801 z " fill="rgb(245,195,195)" />
<path d="M0.000000 0.000000 L1.000000 0.000000 L1.000000 1.000000 L0.000000 1.000000  z" fill="none" stroke="rgb(128,128,128)" stroke-width="0.01" />
<line x1="0.00911322" y1="-0.739102" x2="0.00011629" y2="-0.738968" style="stroke:rgb(246,147,147);stroke-width:0.01" />
<line x1="0.00542808" y1="-0.747714" x2="0" y2="-0.746801" style="stroke:rgb(246,147,147);stroke-width:0.01" />
<line x1="0.00542808" y1="-0.747714" x2="-0.708664" y2="-0.213969" style="stroke:rgb(246,147,147);stroke-width:0.01" />
<line x1="0.00911322" y1="-0.739102" x2="-0.593712" y2="-0.126096" style="stroke:rgb(246,147,147);stroke-width:0.01" />
<line x1="-0.527551" y1="-0.239451" x2="-0.593712" y2="-0.126096" style="stroke:rgb(246,147,147);stroke-width:0.01" />
<line x1="0.284339" y1="0" x2="0.356511" y2="0.0727997" style="stroke:rgb(246,147,147);stroke-width:0.01" />
<line x1="0.00542808" y1="-0.747714" x2="0.356511" y2="0.0727997" style="stroke:rgb(246,147,147);stroke-width:0.01" />
<line x1="0" y1="-0.746801" x2="0.286045" y2="0.120256" style="stroke:rgb(246,147,147);stroke-width:0.01" />
<line x1="0.225719" y1="0.069022" x2="0.286045" y2="0.120256" style="stroke:rgb(246,147,147);stroke-width:0.01" />
<line x1="0" y1="-0.746801" x2="0.00011629" y2="-0.738968" style="stroke:rgb(246,147,147);stroke-width:0.01" />
<line x1="-0.405456" y1="0.573619" x2="-0.409121" y2="0.578682" style="stroke:rgb(246,147,147);stroke-width:0.01" />
<line x1="-0.610107" y1="-0.287635" x2="-0.527551" y2="-0.239451" style="stroke:rgb(246,147,147);stroke-width:0.01" />
<line x1="-0.610107" y1="-0.287635" x2="-0.396633" y2="0.580008" style="stroke:rgb(246,147,147);stroke-width:0.01" />
<line x1="0.284339" y1="0" x2="-0.409121" y2="0.578682" style="stroke:rgb(246,147,147);stroke-width:0.01" />
<line x1="0.284339" y1="0" x2="0.225719" y2="0.069022" style="stroke:rgb(246,147,147);stroke-width:0.01" />
<line x1="-0.708664" y1="-0.213969" x2="-0.593712" y2="-0.126096" style="stroke:rgb(246,147,147);stroke-width:0.01" />
<line x1="-0.708664" y1="-0.213969" x2="-0.403063" y2="0.584338" style="stroke:rgb(246,147,147);stroke-width:0.01" />
<line x1="0.356511" y1="0.0727997" x2="-0.403063" y2="0.584338" style="stroke:rgb(246,147,147);stroke-width:0.01" />
<line x1="-0.409121" y1="0.578682" x2="-0.403063" y2="0.584338" style="stroke:rgb(246,147,147);stroke-width:0.01" />
<line x1="-0.405456" y1="0.573619" x2="-0.396633" y2="0.580008" style="stroke:rgb(246,147,147);stroke-width:0.01" />
</g>
</svg>
