<svg xmlns="http://www.w3.org/2000/svg" viewBox="-1.5 -1.5 3 3">
<g transform="scale(1, -1)">
<path d="M0.375084 -0.538721 L0.525084 -0.338721 L0.025084 0.661279 L-0.224916 0.661279 L-0.224916 0.327946 L-0.424916 0.061279 L-0.134007 -0.156902 L-0.024916 -0.338721 L0.108418 -0.338721 z " fill="rgb(245,195,195)" />
<path d="M-0.224916 -0.338721 L0.775084 -0.338721 L0.775084 0.661279 L-0.224916 0.661279  z" fill="none" stroke="rgb(128,128,128)" stroke-width="0.01" />
<line x1="0.375084" y1="-0.538721" x2="0.525084" y2="-0.338721" style="stroke:rgb(246,147,147);stroke-width:0.01" />
<line x1="-0.0249158" y1="-0.338721" x2="0.0692018" y2="-0.16225" style="stroke:rgb(246,147,147);stroke-width:0.01" />
<line x1="-0.0249158" y1="-0.338721" x2="0.525084" y2="-0.338721" style="stroke:rgb(246,147,147);stroke-width:0.01" />
<line x1="-0.224916" y1="-0.00538721" x2="-0.224916" y2="0.661279" style="stroke:rgb(246,147,147);stroke-width:0.01" />
<line x1="-0.0249158" y1="-0.338721" x2="-0.224916" y2="-0.00538721" style="stroke:rgb(246,147,147);stroke-width:0.01" />
<line x1="0.375084" y1="-0.538721" x2="-0.424916" y2="0.0612795" style="stroke:rgb(246,147,147);stroke-width:0.01" />
<line x1="-0.424916" y1="0.0612795" x2="0.0250842" y2="0.661279" style="stroke:rgb(246,147,147);stroke-width:0.01" />
<line x1="0.0692018" y1="-0.16225" x2="-0.224916" y2="-0.00538721" style="stroke:rgb(246,147,147);stroke-width:0.01" />
<line x1="0.525084" y1="-0.338721" x2="0.0250842" y2="0.661279" style="stroke:rgb(246,147,147);stroke-width:0.01" />
<line x1="-0.224916" y1="0.661279" x2="0.0250842" y2="0.661279" style="stroke:rgb(246,147,147);stroke-width:0.01" />
</g>
</svg>
