<svg xmlns="http://www.w3.org/2000/svg" viewBox="-1.5 -1.5 3 3">
<g transform="scale(1, -1)">
<path d="M-0.398660 -0.356176 L-0.375720 -0.349801 L-0.256673 -0.126586 L-0.025055 -0.250116 L0.349945 -0.025116 L0.349945 0.240360 L0.332704 0.256781 L0.224945 0.143634 L0.224945 0.121313 L0.171259 0.070183 L-0.080202 0.204296 L-0.517433 0.071226 z " fill="rgb(245,195,195)" />
<path d="M0.849945 0.049884 L1.849945 0.049884 L1.849945 1.049884 L0.849945 1.049884  z" fill="none" stroke="rgb(128,128,128)" stroke-width="0.01" />
<line x1="-0.0250549" y1="-0.250116" x2="-0.493805" y2="-0.000115699" style="stroke:rgb(246,147,147);stroke-width:0.01" />
<line x1="0.0608346" y1="-0.198582" x2="-0.0250549" y2="-0.116782" style="stroke:rgb(246,147,147);stroke-width:0.01" />
<line x1="-0.493805" y1="-0.000115699" x2="-0.517433" y2="0.0712258" style="stroke:rgb(246,147,147);stroke-width:0.01" />
<line x1="-0.37572" y1="-0.349801" x2="-0.429992" y2="-0.185935" style="stroke:rgb(246,147,147);stroke-width:0.01" />
<line x1="0.224945" y1="-0.100116" x2="-0.24932" y2="0.152825" style="stroke:rgb(246,147,147);stroke-width:0.01" />
<line x1="-0.39866" y1="-0.356176" x2="-0.517433" y2="0.0712258" style="stroke:rgb(246,147,147);stroke-width:0.01" />
<line x1="-0.263675" y1="-0.139717" x2="-0.350378" y2="0.122069" style="stroke:rgb(246,147,147);stroke-width:0.01" />
<line x1="-0.140864" y1="-0.188351" x2="-0.178199" y2="-0.0756228" style="stroke:rgb(246,147,147);stroke-width:0.01" />
<line x1="-0.285559" y1="-0.11118" x2="-0.350378" y2="0.122069" style="stroke:rgb(246,147,147);stroke-width:0.01" />
<line x1="0.349945" y1="0.0123843" x2="0.224945" y2="0.143634" style="stroke:rgb(246,147,147);stroke-width:0.01" />
<line x1="0.349945" y1="-0.0251157" x2="-0.080202" y2="0.204296" style="stroke:rgb(246,147,147);stroke-width:0.01" />
<line x1="0.0608346" y1="-0.198582" x2="-0.0301259" y2="0.128738" style="stroke:rgb(246,147,147);stroke-width:0.01" />
<line x1="0.349945" y1="0.24036" x2="0.332704" y2="0.256781" style="stroke:rgb(246,147,147);stroke-width:0.01" />
<line x1="-0.39866" y1="-0.356176" x2="-0.37572" y2="-0.349801" style="stroke:rgb(246,147,147);stroke-width:0.01" />
<line x1="-0.0250549" y1="-0.250116" x2="-0.0250549" y2="-0.116782" style="stroke:rgb(246,147,147);stroke-width:0.01" />
<line x1="0.224945" y1="-0.100116" x2="0.224945" y2="0.143634" style="stroke:rgb(246,147,147);stroke-width:0.01" />
<line x1="0.349945" y1="-0.0251157" x2="0.349945" y2="0.24036" style="stroke:rgb(246,147,147);stroke-width:0.01" />
<line x1="-0.140864" y1="-0.188351" x2="0.266612" y2="-0.0751157" style="stroke:rgb(246,147,147);stroke-width:0.01" />
<line x1="-0.429992" y1="-0.185935" x2="-0.263675" y2="-0.139717" style="stroke:rgb(246,147,147);stroke-width:0.01" />
<line x1="-0.0250549" y1="-0.250116" x2="0.349945" y2="-0.0251157" style="stroke:rgb(246,147,147);stroke-width:0.01" />
<line x1="-0.285559" y1="-0.11118" x2="-0.178199" y2="-0.0756228" style="stroke:rgb(246,147,147);stroke-width:0.01" />
<line x1="0.266612" y1="-0.0751157" x2="0.349945" y2="0.0123843" style="stroke:rgb(246,147,147);stroke-width:0.01" />
<line x1="-0.493805" y1="-0.000115699" x2="-0.0301259" y2="0.128738" style="stroke:rgb(246,147,147);stroke-width:0.01" />
<line x1="-0.0250549" y1="-0.116782" x2="0.349945" y2="0.24036" style="stroke:rgb(246,147,147);stroke-width:0.01" />
<line x1="0.224945" y1="0.143634" x2="0.332704" y2="0.256781" style="stroke:rgb(246,147,147);stroke-width:0.01" />
<line x1="-0.517433" y1="0.0712258" x2="-0.080202" y2="0.204296" style="stroke:rgb(246,147,147);stroke-width:0.01" />
<line x1="-0.37572" y1="-0.349801" x2="-0.080202" y2="0.204296" style="stroke:rgb(246,147,147);stroke-width:0.01" />
<line x1="-0.429992" y1="-0.185935" x2="-0.24932" y2="0.152825" style="stroke:rgb(246,147,147);stroke-width:0.01" />
</g>
</svg>
