<svg xmlns="http://www.w3.org/2000/svg" viewBox="-1.5 -1.5 3 3">
<g transform="scale(1, -1)">
<path d="M-0.164784 -0.663240 L0.195207 -0.633653 L0.224352 -0.588185 L0.326951 0.377447 L-0.084579 0.483715 L-0.125906 0.347077 L-0.124544 0.343439 L-0.246697 0.333399 z " fill="rgb(245,195,195)" />
<path d="M-0.248378 0.374356 L0.751622 0.374356 L0.751622 1.374356 L-0.248378 1.374356  z" fill="none" stroke="rgb(128,128,128)" stroke-width="0.01" />
<line x1="-0.164784" y1="-0.66324" x2="0.195207" y2="-0.633653" style="stroke:rgb(246,147,147);stroke-width:0.01" />
<line x1="0.195207" y1="-0.633653" x2="0.224352" y2="-0.588185" style="stroke:rgb(246,147,147);stroke-width:0.01" />
<line x1="-0.0230609" y1="-0.0333033" x2="0.295619" y2="0.0825582" style="stroke:rgb(246,147,147);stroke-width:0.01" />
<line x1="0.224352" y1="-0.588185" x2="0.326951" y2="0.377447" style="stroke:rgb(246,147,147);stroke-width:0.01" />
<line x1="-0.246697" y1="0.333399" x2="0.251622" y2="0.374356" style="stroke:rgb(246,147,147);stroke-width:0.01" />
<line x1="-0.125906" y1="0.347077" x2="-0.0845787" y2="0.483715" style="stroke:rgb(246,147,147);stroke-width:0.01" />
<line x1="-0.088889" y1="0.46366" x2="-0.0845787" y2="0.483715" style="stroke:rgb(246,147,147);stroke-width:0.01" />
<line x1="0.251622" y1="0.374356" x2="0.326951" y2="0.377447" style="stroke:rgb(246,147,147);stroke-width:0.01" />
<line x1="-0.164784" y1="-0.66324" x2="-0.246697" y2="0.333399" style="stroke:rgb(246,147,147);stroke-width:0.01" />
<line x1="0.251622" y1="0.374356" x2="0.326622" y2="0.374356" style="stroke:rgb(246,147,147);stroke-width:0.01" />
<line x1="0.195207" y1="-0.633653" x2="-0.0230609" y2="-0.0333033" style="stroke:rgb(246,147,147);stroke-width:0.01" />
<line x1="0.295619" y1="0.0825582" x2="-0.125906" y2="0.347077" style="stroke:rgb(246,147,147);stroke-width:0.01" />
<line x1="0.224352" y1="-0.588185" x2="-0.125906" y2="0.347077" style="stroke:rgb(246,147,147);stroke-width:0.01" />
<line x1="0.326622" y1="0.374356" x2="-0.088889" y2="0.46366" style="stroke:rgb(246,147,147);stroke-width:0.01" />
<line x1="0.326951" y1="0.377447" x2="-0.0845787" y2="0.483715" style="stroke:rgb(246,147,147);stroke-width:0.01" />
</g>
</svg>
