<svg xmlns="http://www.w3.org/2000/svg" viewBox="-1.5 -1.5 3 3">
<g transform="scale(1, -1)">
<path d="M-0.416206 -0.281611 L-0.136384 -0.173218 L0.143437 -0.281611 L0.233740 -0.048490 L0.228506 -0.031873 L0.507896 0.076354 L0.363411 0.449347 L0.045352 0.549540 L-0.526348 -0.022160 L-0.443406 -0.236277 z " fill="rgb(245,195,195)" />
<path d="M-0.949802 1.244576 L0.050198 1.244576 L0.050198 2.244576 L-0.949802 2.244576  z" fill="none" stroke="rgb(128,128,128)" stroke-width="0.01" />
<line x1="-0.416206" y1="-0.281611" x2="0.507896" y2="0.0763537" style="stroke:rgb(246,147,147);stroke-width:0.01" />
<line x1="-0.134858" y1="0.115091" x2="0.363411" y2="0.449347" style="stroke:rgb(246,147,147);stroke-width:0.01" />
<line x1="-0.416206" y1="-0.281611" x2="-0.409396" y2="-0.275744" style="stroke:rgb(246,147,147);stroke-width:0.01" />
<line x1="0.143437" y1="-0.281611" x2="-0.526348" y2="-0.0221598" style="stroke:rgb(246,147,147);stroke-width:0.01" />
<line x1="-0.526348" y1="-0.0221598" x2="0.0453523" y2="0.54954" style="stroke:rgb(246,147,147);stroke-width:0.01" />
<line x1="0.143437" y1="-0.281611" x2="0.23374" y2="-0.0484905" style="stroke:rgb(246,147,147);stroke-width:0.01" />
<line x1="-0.409396" y1="-0.275744" x2="-0.443406" y2="-0.236277" style="stroke:rgb(246,147,147);stroke-width:0.01" />
<line x1="0.363411" y1="0.449347" x2="0.0453523" y2="0.54954" style="stroke:rgb(246,147,147);stroke-width:0.01" />
<line x1="0.23374" y1="-0.0484905" x2="-0.236934" y2="0.267254" style="stroke:rgb(246,147,147);stroke-width:0.01" />
<line x1="-0.416206" y1="-0.281611" x2="-0.443406" y2="-0.236277" style="stroke:rgb(246,147,147);stroke-width:0.01" />
<line x1="-0.443406" y1="-0.236277" x2="-0.526348" y2="-0.0221598" style="stroke:rgb(246,147,147);stroke-width:0.01" />
<line x1="-0.134858" y1="0.115091" x2="-0.236934" y2="0.267254" style="stroke:rgb(246,147,147);stroke-width:0.01" />
<line x1="0.23374" y1="-0.0484905" x2="0.0453523" y2="0.54954" style="stroke:rgb(246,147,147);stroke-width:0.01" />
<line x1="0.507896" y1="0.0763537" x2="0.363411" y2="0.449347" style="stroke:rgb(246,147,147);stroke-width:0.01" />
</g>
</svg>
