<svg xmlns="http://www.w3.org/2000/svg" viewBox="-1.5 -1.5 3 3">
<g transform="scale(1, -1)">
<path d="M0.533597 -1.526188 L0.813418 -1.417795 L1.093240 -1.526188 L1.183543 -1.293067 L1.178308 -1.276449 L1.457699 -1.168223 L1.313214 -0.795229 L0.995155 -0.695036 L0.423455 -1.266736 L0.506396 -1.480854 z " fill="rgb(245,195,195)" />
<path d="M0.000000 0.000000 L1.000000 0.000000 L1.000000 1.000000 L0.000000 1.000000  z" fill="none" stroke="rgb(128,128,128)" stroke-width="0.01" />
<line x1="0.533597" y1="-1.52619" x2="1.4577" y2="-1.16822" style="stroke:rgb(246,147,147);stroke-width:0.01" />
<line x1="0.814944" y1="-1.12949" x2="1.31321" y2="-0.795229" style="stroke:rgb(246,147,147);stroke-width:0.01" />
<line x1="0.533597" y1="-1.52619" x2="0.540406" y2="-1.52032" style="stroke:rgb(246,147,147);stroke-width:0.01" />
<line x1="1.09324" y1="-1.52619" x2="0.423455" y2="-1.26674" style="stroke:rgb(246,147,147);stroke-width:0.01" />
<line x1="0.423455" y1="-1.26674" x2="0.995155" y2="-0.695036" style="stroke:rgb(246,147,147);stroke-width:0.01" />
<line x1="1.09324" y1="-1.52619" x2="1.18354" y2="-1.29307" style="stroke:rgb(246,147,147);stroke-width:0.01" />
<line x1="0.540406" y1="-1.52032" x2="0.506396" y2="-1.48085" style="stroke:rgb(246,147,147);stroke-width:0.01" />
<line x1="1.31321" y1="-0.795229" x2="0.995155" y2="-0.695036" style="stroke:rgb(246,147,147);stroke-width:0.01" />
<line x1="1.18354" y1="-1.29307" x2="0.712868" y2="-0.977323" style="stroke:rgb(246,147,147);stroke-width:0.01" />
<line x1="0.533597" y1="-1.52619" x2="0.506396" y2="-1.48085" style="stroke:rgb(246,147,147);stroke-width:0.01" />
<line x1="0.506396" y1="-1.48085" x2="0.423455" y2="-1.26674" style="stroke:rgb(246,147,147);stroke-width:0.01" />
<line x1="0.814944" y1="-1.12949" x2="0.712868" y2="-0.977323" style="stroke:rgb(246,147,147);stroke-width:0.01" />
<line x1="1.18354" y1="-1.29307" x2="0.995155" y2="-0.695036" style="stroke:rgb(246,147,147);stroke-width:0.01" />
<line x1="1.4577" y1="-1.16822" x2="1.31321" y2="-0.795229" style="stroke:rgb(246,147,147);stroke-width:0.01" />
</g>
</svg>
