<svg xmlns="http://www.w3.org/2000/svg" viewBox="-1.5 -1.5 3 3">
<g transform="scale(1, -1)">
<path d="M-0.021771 -0.467935 L0.168705 -0.467935 L0.168705 0.393512 L0.147364 0.399443 L0.143420 0.386486 L-0.237354 0.280670 L-0.230979 0.257730 L-0.007765 0.138683 L-0.131295 -0.092935 L0.039160 -0.377026 L-0.038191 -0.450694 z " fill="rgb(245,195,195)" />
<path d="M0.168705 -0.967935 L1.168705 -0.967935 L1.168705 0.032065 L0.168705 0.032065  z" fill="none" stroke="rgb(128,128,128)" stroke-width="0.01" />
<line x1="-0.230979" y1="0.25773" x2="-0.237354" y2="0.28067" style="stroke:rgb(246,147,147);stroke-width:0.01" />
<line x1="0.168705" y1="-0.467935" x2="0.168705" y2="0.393512" style="stroke:rgb(246,147,147);stroke-width:0.01" />
<line x1="0.0437054" y1="-0.384602" x2="-0.0695298" y2="0.0228738" style="stroke:rgb(246,147,147);stroke-width:0.01" />
<line x1="-0.0208954" y1="0.145685" x2="-0.0671139" y2="0.312002" style="stroke:rgb(246,147,147);stroke-width:0.01" />
<line x1="0.0431983" y1="0.060209" x2="0.00764102" y2="0.167569" style="stroke:rgb(246,147,147);stroke-width:0.01" />
<line x1="0.0898515" y1="-0.087864" x2="0.168705" y2="0.195891" style="stroke:rgb(246,147,147);stroke-width:0.01" />
<line x1="0.168705" y1="0.195891" x2="0.118705" y2="0.375815" style="stroke:rgb(246,147,147);stroke-width:0.01" />
<line x1="0.0937054" y1="-0.467935" x2="-0.131295" y2="-0.092935" style="stroke:rgb(246,147,147);stroke-width:0.01" />
<line x1="0.0142937" y1="-0.0377879" x2="0.147364" y2="0.399443" style="stroke:rgb(246,147,147);stroke-width:0.01" />
<line x1="0.0937054" y1="-0.467935" x2="0.168705" y2="-0.32731" style="stroke:rgb(246,147,147);stroke-width:0.01" />
<line x1="0.168705" y1="-0.32731" x2="0.0142937" y2="-0.0377879" style="stroke:rgb(246,147,147);stroke-width:0.01" />
<line x1="-0.0217707" y1="-0.467935" x2="-0.0381911" y2="-0.450694" style="stroke:rgb(246,147,147);stroke-width:0.01" />
<line x1="0.0187054" y1="-0.342935" x2="0.168705" y2="-0.061685" style="stroke:rgb(246,147,147);stroke-width:0.01" />
<line x1="0.168705" y1="-0.061685" x2="0.0657643" y2="0.13133" style="stroke:rgb(246,147,147);stroke-width:0.01" />
<line x1="0.131205" y1="-0.467935" x2="0.0437054" y2="-0.384602" style="stroke:rgb(246,147,147);stroke-width:0.01" />
<line x1="0.131205" y1="-0.467935" x2="0.168705" y2="-0.432221" style="stroke:rgb(246,147,147);stroke-width:0.01" />
<line x1="0.168705" y1="-0.432221" x2="0.0749554" y2="-0.342935" style="stroke:rgb(246,147,147);stroke-width:0.01" />
<line x1="-0.131295" y1="-0.092935" x2="0.118705" y2="0.375815" style="stroke:rgb(246,147,147);stroke-width:0.01" />
<line x1="-0.0217707" y1="-0.467935" x2="0.168705" y2="-0.267935" style="stroke:rgb(246,147,147);stroke-width:0.01" />
<line x1="0.168705" y1="-0.267935" x2="0.00203878" y2="-0.092935" style="stroke:rgb(246,147,147);stroke-width:0.01" />
<line x1="-0.0381911" y1="-0.450694" x2="0.0749554" y2="-0.342935" style="stroke:rgb(246,147,147);stroke-width:0.01" />
<line x1="-0.0797608" y1="-0.178825" x2="0.00203878" y2="-0.092935" style="stroke:rgb(246,147,147);stroke-width:0.01" />
<line x1="-0.0217707" y1="-0.467935" x2="0.168705" y2="-0.467935" style="stroke:rgb(246,147,147);stroke-width:0.01" />
<line x1="0.0187054" y1="-0.342935" x2="0.168705" y2="-0.342935" style="stroke:rgb(246,147,147);stroke-width:0.01" />
<line x1="0.0142937" y1="-0.0377879" x2="0.168705" y2="0.044565" style="stroke:rgb(246,147,147);stroke-width:0.01" />
<line x1="0.168705" y1="0.044565" x2="-0.230979" y2="0.25773" style="stroke:rgb(246,147,147);stroke-width:0.01" />
<line x1="-0.0797608" y1="-0.178825" x2="0.168705" y2="-0.109777" style="stroke:rgb(246,147,147);stroke-width:0.01" />
<line x1="0.168705" y1="-0.109777" x2="0.0898515" y2="-0.087864" style="stroke:rgb(246,147,147);stroke-width:0.01" />
<line x1="-0.131295" y1="-0.092935" x2="0.00203878" y2="-0.092935" style="stroke:rgb(246,147,147);stroke-width:0.01" />
<line x1="0.0657643" y1="0.13133" x2="0.168705" y2="0.186232" style="stroke:rgb(246,147,147);stroke-width:0.01" />
<line x1="0.168705" y1="0.186232" x2="-0.0671139" y2="0.312002" style="stroke:rgb(246,147,147);stroke-width:0.01" />
<line x1="-0.0695298" y1="0.0228738" x2="0.0431983" y2="0.060209" style="stroke:rgb(246,147,147);stroke-width:0.01" />
<line x1="-0.0208954" y1="0.145685" x2="0.168705" y2="0.208481" style="stroke:rgb(246,147,147);stroke-width:0.01" />
<line x1="0.168705" y1="0.208481" x2="0.0965211" y2="0.232388" style="stroke:rgb(246,147,147);stroke-width:0.01" />
<line x1="0.00764102" y1="0.167569" x2="0.168705" y2="0.212328" style="stroke:rgb(246,147,147);stroke-width:0.01" />
<line x1="0.168705" y1="0.212328" x2="0.0965211" y2="0.232388" style="stroke:rgb(246,147,147);stroke-width:0.01" />
<line x1="-0.230979" y1="0.25773" x2="-0.0671139" y2="0.312002" style="stroke:rgb(246,147,147);stroke-width:0.01" />
<line x1="0.118705" y1="0.375815" x2="0.168705" y2="0.392375" style="stroke:rgb(246,147,147);stroke-width:0.01" />
<line x1="0.168705" y1="0.392375" x2="0.147364" y2="0.399443" style="stroke:rgb(246,147,147);stroke-width:0.01" />
<line x1="-0.237354" y1="0.28067" x2="0.168705" y2="0.393512" style="stroke:rgb(246,147,147);stroke-width:0.01" />
<line x1="0.168705" y1="0.393512" x2="0.147364" y2="0.399443" style="stroke:rgb(246,147,147);stroke-width:0.01" />
</g>
</svg>
