<svg xmlns="http://www.w3.org/2000/svg" viewBox="-1.5 -1.5 3 3">
<g transform="scale(1, -1)">
<path d="M0.106466 -0.528664 L0.287500 -0.356250 L0.298276 0.085560 L0.082759 0.311853 L0.037500 0.268750 L-0.139224 0.273060 L-0.143534 0.096336 L-0.188793 0.053233 L-0.102586 -0.037284 L-0.238362 -0.166595 z " fill="rgb(245,195,195)" />
<path d="M-0.376293 -0.321767 L0.623707 -0.321767 L0.623707 0.678233 L-0.376293 0.678233  z" fill="none" stroke="rgb(128,128,128)" stroke-width="0.01" />
<line x1="0.106466" y1="-0.528664" x2="0.2875" y2="-0.35625" style="stroke:rgb(246,147,147);stroke-width:0.01" />
<line x1="0.115086" y1="-0.175216" x2="0.205603" y2="-0.0890086" style="stroke:rgb(246,147,147);stroke-width:0.01" />
<line x1="0.2875" y1="-0.35625" x2="0.298276" y2="0.0855603" style="stroke:rgb(246,147,147);stroke-width:0.01" />
<line x1="0.205603" y1="-0.0890086" x2="0.212069" y2="0.176078" style="stroke:rgb(246,147,147);stroke-width:0.01" />
<line x1="0.115086" y1="-0.175216" x2="0.125862" y2="0.266595" style="stroke:rgb(246,147,147);stroke-width:0.01" />
<line x1="0.0267241" y1="-0.17306" x2="0.0331897" y2="0.0920259" style="stroke:rgb(246,147,147);stroke-width:0.01" />
<line x1="-0.0594828" y1="-0.0825431" x2="-0.0530172" y2="0.182543" style="stroke:rgb(246,147,147);stroke-width:0.01" />
<line x1="-0.14569" y1="0.00797414" x2="-0.139224" y2="0.27306" style="stroke:rgb(246,147,147);stroke-width:0.01" />
<line x1="-0.238362" y1="-0.166595" x2="0.168966" y2="0.221336" style="stroke:rgb(246,147,147);stroke-width:0.01" />
<line x1="-0.188793" y1="0.0532328" x2="0.0827586" y2="0.311853" style="stroke:rgb(246,147,147);stroke-width:0.01" />
<line x1="0.106466" y1="-0.528664" x2="-0.238362" y2="-0.166595" style="stroke:rgb(246,147,147);stroke-width:0.01" />
<line x1="0.29181" y1="-0.179526" x2="0.0267241" y2="-0.17306" style="stroke:rgb(246,147,147);stroke-width:0.01" />
<line x1="0.205603" y1="-0.0890086" x2="-0.0594828" y2="-0.0825431" style="stroke:rgb(246,147,147);stroke-width:0.01" />
<line x1="0.0267241" y1="-0.17306" x2="-0.188793" y2="0.0532328" style="stroke:rgb(246,147,147);stroke-width:0.01" />
<line x1="0.2875" y1="-0.35625" x2="0.115086" y2="-0.175216" style="stroke:rgb(246,147,147);stroke-width:0.01" />
<line x1="0.119397" y1="0.00150862" x2="-0.14569" y2="0.00797414" style="stroke:rgb(246,147,147);stroke-width:0.01" />
<line x1="0.29181" y1="-0.179526" x2="-0.139224" y2="0.27306" style="stroke:rgb(246,147,147);stroke-width:0.01" />
<line x1="0.298276" y1="0.0855603" x2="0.0331897" y2="0.0920259" style="stroke:rgb(246,147,147);stroke-width:0.01" />
<line x1="0.212069" y1="0.176078" x2="-0.0530172" y2="0.182543" style="stroke:rgb(246,147,147);stroke-width:0.01" />
<line x1="0.298276" y1="0.0855603" x2="0.0827586" y2="0.311853" style="stroke:rgb(246,147,147);stroke-width:0.01" />
<line x1="0.125862" y1="0.266595" x2="-0.139224" y2="0.27306" style="stroke:rgb(246,147,147);stroke-width:0.01" />
</g>
</svg>
