<svg xmlns="http://www.w3.org/2000/svg" viewBox="-1.5 -1.5 3 3">
<g transform="scale(1, -1)">
<path d="M0.150833 -0.368333 L0.278333 -0.135833 L0.190833 0.164167 L0.130833 0.146667 L-0.024167 0.231667 L-0.109167 0.076667 L-0.169167 0.059167 L-0.134167 -0.060833 L-0.314167 -0.113333 z " fill="rgb(245,195,195)" />
<path d="M-0.174167 -0.593333 L0.825833 -0.593333 L0.825833 0.406667 L-0.174167 0.406667  z" fill="none" stroke="rgb(128,128,128)" stroke-width="0.01" />
<line x1="0.150833" y1="-0.368333" x2="0.278333" y2="-0.135833" style="stroke:rgb(246,147,147);stroke-width:0.01" />
<line x1="0.115833" y1="-0.248333" x2="0.243333" y2="-0.0158333" style="stroke:rgb(246,147,147);stroke-width:0.01" />
<line x1="-0.00416667" y1="-0.283333" x2="0.208333" y2="0.104167" style="stroke:rgb(246,147,147);stroke-width:0.01" />
<line x1="-0.0816667" y1="-0.240833" x2="0.0458333" y2="-0.00833333" style="stroke:rgb(246,147,147);stroke-width:0.01" />
<line x1="-0.0816667" y1="-0.240833" x2="-0.169167" y2="0.0591667" style="stroke:rgb(246,147,147);stroke-width:0.01" />
<line x1="-0.116667" y1="-0.120833" x2="0.0108333" y2="0.111667" style="stroke:rgb(246,147,147);stroke-width:0.01" />
<line x1="0.150833" y1="-0.368333" x2="-0.0241667" y2="0.231667" style="stroke:rgb(246,147,147);stroke-width:0.01" />
<line x1="-0.151667" y1="-0.000833333" x2="-0.0241667" y2="0.231667" style="stroke:rgb(246,147,147);stroke-width:0.01" />
<line x1="0.235833" y1="-0.213333" x2="0.165833" y2="0.0266667" style="stroke:rgb(246,147,147);stroke-width:0.01" />
<line x1="0.278333" y1="-0.135833" x2="0.190833" y2="0.164167" style="stroke:rgb(246,147,147);stroke-width:0.01" />
<line x1="-0.00416667" y1="-0.283333" x2="0.235833" y2="-0.213333" style="stroke:rgb(246,147,147);stroke-width:0.01" />
<line x1="0.150833" y1="-0.368333" x2="-0.314167" y2="-0.113333" style="stroke:rgb(246,147,147);stroke-width:0.01" />
<line x1="0.115833" y1="-0.248333" x2="-0.116667" y2="-0.120833" style="stroke:rgb(246,147,147);stroke-width:0.01" />
<line x1="0.0808333" y1="-0.128333" x2="-0.151667" y2="-0.000833333" style="stroke:rgb(246,147,147);stroke-width:0.01" />
<line x1="-0.314167" y1="-0.113333" x2="0.225833" y2="0.0441667" style="stroke:rgb(246,147,147);stroke-width:0.01" />
<line x1="0.278333" y1="-0.135833" x2="0.0458333" y2="-0.00833333" style="stroke:rgb(246,147,147);stroke-width:0.01" />
<line x1="-0.169167" y1="0.0591667" x2="0.190833" y2="0.164167" style="stroke:rgb(246,147,147);stroke-width:0.01" />
<line x1="0.243333" y1="-0.0158333" x2="0.0108333" y2="0.111667" style="stroke:rgb(246,147,147);stroke-width:0.01" />
<line x1="0.208333" y1="0.104167" x2="-0.0241667" y2="0.231667" style="stroke:rgb(246,147,147);stroke-width:0.01" />
</g>
</svg>
