<svg xmlns="http://www.w3.org/2000/svg" viewBox="-1.5 -1.5 3 3">
<g transform="scale(1, -1)">
<path d="M0.231042 -0.394893 L0.309643 -0.157571 L0.237414 -0.133649 L0.241818 0.046917 L0.026301 0.273210 L-0.018958 0.230107 L-0.195682 0.234417 L-0.199992 0.057693 L-0.245251 0.014590 L-0.182032 -0.051790 L-0.204303 -0.119031 z " fill="rgb(245,195,195)" />
<path d="M-0.432751 -0.360410 L0.567249 -0.360410 L0.567249 0.639590 L-0.432751 0.639590  z" fill="none" stroke="rgb(128,128,128)" stroke-width="0.01" />
<line x1="0.231042" y1="-0.394893" x2="0.309643" y2="-0.157571" style="stroke:rgb(246,147,147);stroke-width:0.01" />
<line x1="0.0586284" y1="-0.213859" x2="0.149146" y2="-0.127652" style="stroke:rgb(246,147,147);stroke-width:0.01" />
<line x1="-0.204303" y1="-0.119031" x2="-0.165002" y2="-0.000369902" style="stroke:rgb(246,147,147);stroke-width:0.01" />
<line x1="0.231042" y1="-0.394893" x2="0.241818" y2="0.0469171" style="stroke:rgb(246,147,147);stroke-width:0.01" />
<line x1="0.149146" y1="-0.127652" x2="0.155611" y2="0.137434" style="stroke:rgb(246,147,147);stroke-width:0.01" />
<line x1="0.0586284" y1="-0.213859" x2="0.0694043" y2="0.227952" style="stroke:rgb(246,147,147);stroke-width:0.01" />
<line x1="-0.0297336" y1="-0.211704" x2="-0.0232681" y2="0.0533826" style="stroke:rgb(246,147,147);stroke-width:0.01" />
<line x1="-0.115941" y1="-0.121186" x2="-0.109475" y2="0.1439" style="stroke:rgb(246,147,147);stroke-width:0.01" />
<line x1="-0.202147" y1="-0.0306691" x2="-0.195682" y2="0.234417" style="stroke:rgb(246,147,147);stroke-width:0.01" />
<line x1="-0.204303" y1="-0.119031" x2="0.112508" y2="0.182693" style="stroke:rgb(246,147,147);stroke-width:0.01" />
<line x1="-0.245251" y1="0.0145895" x2="0.0263009" y2="0.27321" style="stroke:rgb(246,147,147);stroke-width:0.01" />
<line x1="0.235353" y1="-0.218169" x2="-0.0297336" y2="-0.211704" style="stroke:rgb(246,147,147);stroke-width:0.01" />
<line x1="0.149146" y1="-0.127652" x2="-0.115941" y2="-0.121186" style="stroke:rgb(246,147,147);stroke-width:0.01" />
<line x1="-0.0297336" y1="-0.211704" x2="-0.245251" y2="0.0145895" style="stroke:rgb(246,147,147);stroke-width:0.01" />
<line x1="0.231042" y1="-0.394893" x2="-0.204303" y2="-0.119031" style="stroke:rgb(246,147,147);stroke-width:0.01" />
<line x1="0.231042" y1="-0.394893" x2="0.0586284" y2="-0.213859" style="stroke:rgb(246,147,147);stroke-width:0.01" />
<line x1="0.0629388" y1="-0.0371346" x2="-0.202147" y2="-0.0306691" style="stroke:rgb(246,147,147);stroke-width:0.01" />
<line x1="0.235353" y1="-0.218169" x2="-0.195682" y2="0.234417" style="stroke:rgb(246,147,147);stroke-width:0.01" />
<line x1="0.309643" y1="-0.157571" x2="-0.165002" y2="-0.000369902" style="stroke:rgb(246,147,147);stroke-width:0.01" />
<line x1="0.241818" y1="0.0469171" x2="-0.0232681" y2="0.0533826" style="stroke:rgb(246,147,147);stroke-width:0.01" />
<line x1="0.155611" y1="0.137434" x2="-0.109475" y2="0.1439" style="stroke:rgb(246,147,147);stroke-width:0.01" />
<line x1="0.241818" y1="0.0469171" x2="0.0263009" y2="0.27321" style="stroke:rgb(246,147,147);stroke-width:0.01" />
<line x1="0.0694043" y1="0.227952" x2="-0.195682" y2="0.234417" style="stroke:rgb(246,147,147);stroke-width:0.01" />
</g>
</svg>
