<svg xmlns="http://www.w3.org/2000/svg" viewBox="-1.5 -1.5 3 3">
<g transform="scale(1, -1)">
<path d="M0.166595 -0.238362 L0.528664 0.106466 L0.356250 0.287500 L-0.085560 0.298276 L-0.311853 0.082759 L-0.268750 0.037500 L-0.273060 -0.139224 L-0.096336 -0.143534 L-0.053233 -0.188793 L0.037284 -0.102586 z " fill="rgb(245,195,195)" />
<path d="M-0.678233 -0.376293 L0.321767 -0.376293 L0.321767 0.623707 L-0.678233 0.623707  z" fill="none" stroke="rgb(128,128,128)" stroke-width="0.01" />
<line x1="0.166595" y1="-0.238362" x2="0.528664" y2="0.106466" style="stroke:rgb(246,147,147);stroke-width:0.01" />
<line x1="-0.0532328" y1="-0.188793" x2="0.17306" y2="0.0267241" style="stroke:rgb(246,147,147);stroke-width:0.01" />
<line x1="0.175216" y1="0.115086" x2="0.35625" y2="0.2875" style="stroke:rgb(246,147,147);stroke-width:0.01" />
<line x1="-0.27306" y1="-0.139224" x2="0.179526" y2="0.29181" style="stroke:rgb(246,147,147);stroke-width:0.01" />
<line x1="0.17306" y1="0.0267241" x2="0.179526" y2="0.29181" style="stroke:rgb(246,147,147);stroke-width:0.01" />
<line x1="0.0825431" y1="-0.0594828" x2="0.0890086" y2="0.205603" style="stroke:rgb(246,147,147);stroke-width:0.01" />
<line x1="-0.00797414" y1="-0.14569" x2="-0.00150862" y2="0.119397" style="stroke:rgb(246,147,147);stroke-width:0.01" />
<line x1="-0.0920259" y1="0.0331897" x2="-0.0855603" y2="0.298276" style="stroke:rgb(246,147,147);stroke-width:0.01" />
<line x1="-0.182543" y1="-0.0530172" x2="-0.176078" y2="0.212069" style="stroke:rgb(246,147,147);stroke-width:0.01" />
<line x1="-0.27306" y1="-0.139224" x2="-0.266595" y2="0.125862" style="stroke:rgb(246,147,147);stroke-width:0.01" />
<line x1="-0.311853" y1="0.0827586" x2="-0.0855603" y2="0.298276" style="stroke:rgb(246,147,147);stroke-width:0.01" />
<line x1="-0.00797414" y1="-0.14569" x2="-0.27306" y2="-0.139224" style="stroke:rgb(246,147,147);stroke-width:0.01" />
<line x1="0.0825431" y1="-0.0594828" x2="-0.182543" y2="-0.0530172" style="stroke:rgb(246,147,147);stroke-width:0.01" />
<line x1="-0.0532328" y1="-0.188793" x2="-0.311853" y2="0.0827586" style="stroke:rgb(246,147,147);stroke-width:0.01" />
<line x1="0.17306" y1="0.0267241" x2="-0.0920259" y2="0.0331897" style="stroke:rgb(246,147,147);stroke-width:0.01" />
<line x1="0.166595" y1="-0.238362" x2="-0.221336" y2="0.168966" style="stroke:rgb(246,147,147);stroke-width:0.01" />
<line x1="0.175216" y1="0.115086" x2="-0.266595" y2="0.125862" style="stroke:rgb(246,147,147);stroke-width:0.01" />
<line x1="0.0890086" y1="0.205603" x2="-0.176078" y2="0.212069" style="stroke:rgb(246,147,147);stroke-width:0.01" />
<line x1="0.175216" y1="0.115086" x2="0.0890086" y2="0.205603" style="stroke:rgb(246,147,147);stroke-width:0.01" />
<line x1="0.35625" y1="0.2875" x2="-0.0855603" y2="0.298276" style="stroke:rgb(246,147,147);stroke-width:0.01" />
<line x1="0.528664" y1="0.106466" x2="0.35625" y2="0.2875" style="stroke:rgb(246,147,147);stroke-width:0.01" />
</g>
</svg>
