<svg xmlns="http://www.w3.org/2000/svg" viewBox="-1.5 -1.5 3 3">
<g transform="scale(1, -1)">
<path d="M0.145953 -0.265015 L0.162647 -0.150269 L0.318992 -0.140039 L0.306244 0.054795 L-0.075791 0.412651 L-0.243429 0.310623 L-0.189095 0.195755 L-0.262730 0.054795 L-0.128049 -0.138726 L-0.054946 -0.087850 L0.020202 -0.246719 z " fill="rgb(245,195,195)" />
<path d="M-0.498504 0.054795 L0.501496 0.054795 L0.501496 1.054795 L-0.498504 1.054795  z" fill="none" stroke="rgb(128,128,128)" stroke-width="0.01" />
<line x1="-0.0197748" y1="-0.162205" x2="0.240791" y2="0.116106" style="stroke:rgb(246,147,147);stroke-width:0.01" />
<line x1="0.0498289" y1="-0.087656" x2="0.240791" y2="0.116106" style="stroke:rgb(246,147,147);stroke-width:0.01" />
<line x1="0.0202017" y1="-0.246719" x2="0.239651" y2="0.117174" style="stroke:rgb(246,147,147);stroke-width:0.01" />
<line x1="-0.128049" y1="-0.138726" x2="0.239651" y2="0.117174" style="stroke:rgb(246,147,147);stroke-width:0.01" />
<line x1="-0.0197748" y1="-0.162205" x2="0.318992" y2="-0.140039" style="stroke:rgb(246,147,147);stroke-width:0.01" />
<line x1="0.145953" y1="-0.265015" x2="0.0202017" y2="-0.246719" style="stroke:rgb(246,147,147);stroke-width:0.01" />
<line x1="0.145953" y1="-0.265015" x2="0.206127" y2="0.148576" style="stroke:rgb(246,147,147);stroke-width:0.01" />
<line x1="-0.26273" y1="0.0547952" x2="-0.0757906" y2="0.412651" style="stroke:rgb(246,147,147);stroke-width:0.01" />
<line x1="-0.126629" y1="0.0777166" x2="-0.0421395" y2="0.381129" style="stroke:rgb(246,147,147);stroke-width:0.01" />
<line x1="-0.126629" y1="0.0777166" x2="0.206127" y2="0.148576" style="stroke:rgb(246,147,147);stroke-width:0.01" />
<line x1="-0.26273" y1="0.0547952" x2="0.306244" y2="0.0547952" style="stroke:rgb(246,147,147);stroke-width:0.01" />
<line x1="0.318992" y1="-0.140039" x2="0.306244" y2="0.0547952" style="stroke:rgb(246,147,147);stroke-width:0.01" />
<line x1="-0.243429" y1="0.310623" x2="-0.0757906" y2="0.412651" style="stroke:rgb(246,147,147);stroke-width:0.01" />
<line x1="-0.128049" y1="-0.138726" x2="-0.26273" y2="0.0547952" style="stroke:rgb(246,147,147);stroke-width:0.01" />
<line x1="0.0202017" y1="-0.246719" x2="-0.243429" y2="0.310623" style="stroke:rgb(246,147,147);stroke-width:0.01" />
<line x1="-0.243429" y1="0.310623" x2="-0.0421395" y2="0.381129" style="stroke:rgb(246,147,147);stroke-width:0.01" />
<line x1="0.0498289" y1="-0.087656" x2="-0.126629" y2="0.0777166" style="stroke:rgb(246,147,147);stroke-width:0.01" />
<line x1="0.306244" y1="0.0547952" x2="-0.0757906" y2="0.412651" style="stroke:rgb(246,147,147);stroke-width:0.01" />
</g>
</svg>
