<svg xmlns="http://www.w3.org/2000/svg" viewBox="-1.5 -1.5 3 3">
<g transform="scale(1, -1)">
<path d="M0.196585 -0.618226 L0.668826 0.263243 L0.606242 0.296772 L-0.172005 0.219299 L-0.614765 -0.015103 L-0.684884 -0.145985 z " fill="rgb(245,195,195)" />
<path d="M-0.364636 -0.441505 L0.635364 -0.441505 L0.635364 0.558495 L-0.364636 0.558495  z" fill="none" stroke="rgb(128,128,128)" stroke-width="0.01" />
<line x1="0.196585" y1="-0.618226" x2="0.668826" y2="0.263243" style="stroke:rgb(246,147,147);stroke-width:0.01" />
<line x1="0.00022858" y1="-0.130695" x2="0.2679" y2="0.263091" style="stroke:rgb(246,147,147);stroke-width:0.01" />
<line x1="0.403964" y1="0.129732" x2="0.606242" y2="0.296772" style="stroke:rgb(246,147,147);stroke-width:0.01" />
<line x1="-0.364636" y1="-0.0415055" x2="-0.364636" y2="0.117318" style="stroke:rgb(246,147,147);stroke-width:0.01" />
<line x1="0.196585" y1="-0.618226" x2="-0.684884" y2="-0.145985" style="stroke:rgb(246,147,147);stroke-width:0.01" />
<line x1="-0.684884" y1="-0.145985" x2="-0.614765" y2="-0.015103" style="stroke:rgb(246,147,147);stroke-width:0.01" />
<line x1="-0.364636" y1="-0.0415055" x2="-0.0627708" y2="0.230173" style="stroke:rgb(246,147,147);stroke-width:0.01" />
<line x1="0.00022858" y1="-0.130695" x2="-0.364636" y2="0.117318" style="stroke:rgb(246,147,147);stroke-width:0.01" />
<line x1="-0.364636" y1="-0.0415055" x2="-0.614765" y2="-0.015103" style="stroke:rgb(246,147,147);stroke-width:0.01" />
<line x1="-0.614765" y1="-0.015103" x2="-0.172005" y2="0.219299" style="stroke:rgb(246,147,147);stroke-width:0.01" />
<line x1="0.403964" y1="0.129732" x2="0.0839296" y2="0.143355" style="stroke:rgb(246,147,147);stroke-width:0.01" />
<line x1="0.0839296" y1="0.143355" x2="-0.0627708" y2="0.230173" style="stroke:rgb(246,147,147);stroke-width:0.01" />
<line x1="-0.172005" y1="0.219299" x2="0.606242" y2="0.296772" style="stroke:rgb(246,147,147);stroke-width:0.01" />
<line x1="0.0839296" y1="0.143355" x2="-0.172005" y2="0.219299" style="stroke:rgb(246,147,147);stroke-width:0.01" />
<line x1="0.403964" y1="0.129732" x2="0.2679" y2="0.263091" style="stroke:rgb(246,147,147);stroke-width:0.01" />
<line x1="0.668826" y1="0.263243" x2="0.606242" y2="0.296772" style="stroke:rgb(246,147,147);stroke-width:0.01" />
</g>
</svg>
