<svg xmlns="http://www.w3.org/2000/svg" viewBox="-1.5 -1.5 3 3">
<g transform="scale(1, -1)">
<path d="M0.006034 -0.239674 L0.131034 -0.181340 L0.131034 0.088104 L0.006034 0.188104 L-0.074552 0.169972 L-0.177038 -0.086242 z M0.006034 -0.076578 L-0.046469 -0.032576 L0.006034 0.002462 z M0.006034 0.049215 L-0.000212 0.058574 L0.006034 0.059979 z " fill="rgb(245,195,195)" />
<path d="M-0.368966 -0.545229 L0.631034 -0.545229 L0.631034 0.454771 L-0.368966 0.454771  z" fill="none" stroke="rgb(128,128,128)" stroke-width="0.01" />
<line x1="-0.110482" y1="-0.0904722" x2="-0.102553" y2="0.0342761" style="stroke:rgb(246,147,147);stroke-width:0.01" />
<line x1="-0.177038" y1="-0.0862421" x2="-0.0745522" y2="0.169972" style="stroke:rgb(246,147,147);stroke-width:0.01" />
<line x1="0.00603389" y1="-0.239674" x2="0.00603389" y2="0.188104" style="stroke:rgb(246,147,147);stroke-width:0.01" />
<line x1="0.131034" y1="-0.18134" x2="0.131034" y2="0.0881041" style="stroke:rgb(246,147,147);stroke-width:0.01" />
<line x1="0.00603389" y1="-0.239674" x2="0.131034" y2="-0.18134" style="stroke:rgb(246,147,147);stroke-width:0.01" />
<line x1="-0.0763533" y1="-0.0525183" x2="0.0276207" y2="0.0168677" style="stroke:rgb(246,147,147);stroke-width:0.01" />
<line x1="-0.0763533" y1="-0.0525183" x2="-0.130871" y2="0.0291755" style="stroke:rgb(246,147,147);stroke-width:0.01" />
<line x1="0.0276207" y1="0.0168677" x2="-0.0745522" y2="0.169972" style="stroke:rgb(246,147,147);stroke-width:0.01" />
<line x1="0.00603389" y1="-0.239674" x2="-0.177038" y2="-0.0862421" style="stroke:rgb(246,147,147);stroke-width:0.01" />
<line x1="0.131034" y1="-0.18134" x2="-0.128179" y2="0.0359048" style="stroke:rgb(246,147,147);stroke-width:0.01" />
<line x1="-0.110482" y1="-0.0904722" x2="-0.177038" y2="-0.0862421" style="stroke:rgb(246,147,147);stroke-width:0.01" />
<line x1="-0.130871" y1="0.0291755" x2="0.131034" y2="0.0881041" style="stroke:rgb(246,147,147);stroke-width:0.01" />
<line x1="-0.102553" y1="0.0342761" x2="-0.128179" y2="0.0359048" style="stroke:rgb(246,147,147);stroke-width:0.01" />
<line x1="-0.0745522" y1="0.169972" x2="0.00603389" y2="0.188104" style="stroke:rgb(246,147,147);stroke-width:0.01" />
<line x1="0.131034" y1="0.0881041" x2="0.00603389" y2="0.188104" style="stroke:rgb(246,147,147);stroke-width:0.01" />
</g>
</svg>
