<svg xmlns="http://www.w3.org/2000/svg" viewBox="-1.5 -1.5 3 3">
<g transform="scale(1, -1)">
<path d="M-0.205838 -0.320993 L-0.128136 -0.162209 L0.108351 -0.081128 L0.049697 0.089948 L0.057675 0.097926 L0.307675 0.097926 L0.182675 0.222926 L0.004104 0.222926 L-0.129825 0.035426 L-0.246379 -0.202749 z " fill="rgb(245,195,195)" />
<path d="M-0.317325 -0.277074 L0.682675 -0.277074 L0.682675 0.722926 L-0.317325 0.722926  z" fill="none" stroke="rgb(128,128,128)" stroke-width="0.01" />
<line x1="-0.00989228" y1="-0.121668" x2="0.0678104" y2="0.0371154" style="stroke:rgb(246,147,147);stroke-width:0.01" />
<line x1="-0.205838" y1="-0.320993" x2="0.0272699" y2="0.155359" style="stroke:rgb(246,147,147);stroke-width:0.01" />
<line x1="-0.246379" y1="-0.202749" x2="-0.129825" y2="0.0354263" style="stroke:rgb(246,147,147);stroke-width:0.01" />
<line x1="-0.0673247" y1="-0.0270737" x2="0.182675" y2="0.222926" style="stroke:rgb(246,147,147);stroke-width:0.01" />
<line x1="-0.129825" y1="0.0354263" x2="0.00410386" y2="0.222926" style="stroke:rgb(246,147,147);stroke-width:0.01" />
<line x1="-0.205838" y1="-0.320993" x2="-0.246379" y2="-0.202749" style="stroke:rgb(246,147,147);stroke-width:0.01" />
<line x1="-0.246379" y1="-0.202749" x2="0.108351" y2="-0.0811278" style="stroke:rgb(246,147,147);stroke-width:0.01" />
<line x1="-0.129825" y1="0.0354263" x2="0.0576753" y2="0.222926" style="stroke:rgb(246,147,147);stroke-width:0.01" />
<line x1="-0.00989228" y1="-0.121668" x2="-0.0851819" y2="0.0979263" style="stroke:rgb(246,147,147);stroke-width:0.01" />
<line x1="0.108351" y1="-0.0811278" x2="0.00410386" y2="0.222926" style="stroke:rgb(246,147,147);stroke-width:0.01" />
<line x1="-0.0673247" y1="-0.0270737" x2="-0.129825" y2="0.0354263" style="stroke:rgb(246,147,147);stroke-width:0.01" />
<line x1="-0.00482471" y1="0.0354263" x2="-0.0777414" y2="0.108343" style="stroke:rgb(246,147,147);stroke-width:0.01" />
<line x1="0.108351" y1="-0.0811278" x2="-0.129825" y2="0.0354263" style="stroke:rgb(246,147,147);stroke-width:0.01" />
<line x1="-0.0851819" y1="0.0979263" x2="0.307675" y2="0.0979263" style="stroke:rgb(246,147,147);stroke-width:0.01" />
<line x1="0.0576753" y1="0.0979263" x2="-0.025658" y2="0.18126" style="stroke:rgb(246,147,147);stroke-width:0.01" />
<line x1="0.0678104" y1="0.0371154" x2="-0.0777414" y2="0.108343" style="stroke:rgb(246,147,147);stroke-width:0.01" />
<line x1="0.120175" y1="0.160426" x2="0.0576753" y2="0.222926" style="stroke:rgb(246,147,147);stroke-width:0.01" />
<line x1="0.0272699" y1="0.155359" x2="-0.025658" y2="0.18126" style="stroke:rgb(246,147,147);stroke-width:0.01" />
<line x1="0.00410386" y1="0.222926" x2="0.182675" y2="0.222926" style="stroke:rgb(246,147,147);stroke-width:0.01" />
<line x1="0.307675" y1="0.0979263" x2="0.182675" y2="0.222926" style="stroke:rgb(246,147,147);stroke-width:0.01" />
</g>
</svg>
