<svg xmlns="http://www.w3.org/2000/svg" viewBox="-1.5 -1.5 3 3">
<g transform="scale(1, -1)">
<path d="M0.195334 -0.433935 L0.512198 0.516657 L0.049417 0.704250 L-0.318055 -0.202283 L-0.211549 -0.262463 L-0.227344 -0.322225 z " fill="rgb(245,195,195)" />
<path d="M-0.254964 -1.534828 L0.745036 -1.534828 L0.745036 -0.534828 L-0.254964 -0.534828  z" fill="none" stroke="rgb(128,128,128)" stroke-width="0.01" />
<line x1="0.195334" y1="-0.433935" x2="0.512198" y2="0.516657" style="stroke:rgb(246,147,147);stroke-width:0.01" />
<line x1="-0.227344" y1="-0.322225" x2="0.0281726" y2="0.644579" style="stroke:rgb(246,147,147);stroke-width:0.01" />
<line x1="-0.318055" y1="-0.202283" x2="0.0494175" y2="0.70425" style="stroke:rgb(246,147,147);stroke-width:0.01" />
<line x1="-0.318055" y1="-0.202283" x2="-0.304964" y2="-0.184828" style="stroke:rgb(246,147,147);stroke-width:0.01" />
<line x1="-0.170606" y1="-0.285597" x2="-0.304964" y2="-0.184828" style="stroke:rgb(246,147,147);stroke-width:0.01" />
<line x1="-0.170606" y1="-0.285597" x2="-0.318055" y2="-0.202283" style="stroke:rgb(246,147,147);stroke-width:0.01" />
<line x1="0.195334" y1="-0.433935" x2="-0.170606" y2="-0.285597" style="stroke:rgb(246,147,147);stroke-width:0.01" />
<line x1="0.195334" y1="-0.433935" x2="-0.227344" y2="-0.322225" style="stroke:rgb(246,147,147);stroke-width:0.01" />
<line x1="0.512198" y1="0.516657" x2="0.0494175" y2="0.70425" style="stroke:rgb(246,147,147);stroke-width:0.01" />
<line x1="0.512198" y1="0.516657" x2="0.0281726" y2="0.644579" style="stroke:rgb(246,147,147);stroke-width:0.01" />
</g>
</svg>
