<svg xmlns="http://www.w3.org/2000/svg" viewBox="-1.5 -1.5 3 3">
<g transform="scale(1, -1)">
<path d="M-0.003566 -0.208342 L0.121434 -0.208342 L0.168309 -0.161467 L0.204768 0.166658 L-0.201737 0.258121 L-0.351127 0.163609 L-0.107224 0.108731 L-0.012712 -0.040659 L0.061983 0.006597 L0.119872 -0.084905 z " fill="rgb(245,195,195)" />
<path d="M0.121434 -0.333342 L1.121434 -0.333342 L1.121434 0.666658 L0.121434 0.666658  z" fill="none" stroke="rgb(128,128,128)" stroke-width="0.01" />
<line x1="0.168309" y1="-0.161467" x2="0.204768" y2="0.166658" style="stroke:rgb(246,147,147);stroke-width:0.01" />
<line x1="0.121434" y1="-0.208342" x2="0.121434" y2="0.166658" style="stroke:rgb(246,147,147);stroke-width:0.01" />
<line x1="-0.0127121" y1="-0.0406593" x2="-0.201737" y2="0.258121" style="stroke:rgb(246,147,147);stroke-width:0.01" />
<line x1="0.121434" y1="-0.208342" x2="0.168309" y2="-0.161467" style="stroke:rgb(246,147,147);stroke-width:0.01" />
<line x1="0.168309" y1="-0.161467" x2="-0.0797853" y2="0.230682" style="stroke:rgb(246,147,147);stroke-width:0.01" />
<line x1="0.183934" y1="-0.0208422" x2="0.0421659" y2="0.203243" style="stroke:rgb(246,147,147);stroke-width:0.01" />
<line x1="-0.0035658" y1="-0.208342" x2="0.183934" y2="-0.0208422" style="stroke:rgb(246,147,147);stroke-width:0.01" />
<line x1="-0.0035658" y1="-0.208342" x2="0.121434" y2="-0.208342" style="stroke:rgb(246,147,147);stroke-width:0.01" />
<line x1="0.199559" y1="0.119783" x2="0.164117" y2="0.175804" style="stroke:rgb(246,147,147);stroke-width:0.01" />
<line x1="0.121434" y1="0.0416578" x2="0.199559" y2="0.119783" style="stroke:rgb(246,147,147);stroke-width:0.01" />
<line x1="0.196434" y1="0.0916578" x2="0.121434" y2="0.166658" style="stroke:rgb(246,147,147);stroke-width:0.01" />
<line x1="-0.0127121" y1="-0.0406593" x2="0.196434" y2="0.0916578" style="stroke:rgb(246,147,147);stroke-width:0.01" />
<line x1="-0.0599682" y1="0.0340358" x2="0.164117" y2="0.175804" style="stroke:rgb(246,147,147);stroke-width:0.01" />
<line x1="0.190879" y1="0.0416578" x2="-0.351127" y2="0.163609" style="stroke:rgb(246,147,147);stroke-width:0.01" />
<line x1="0.121434" y1="0.0416578" x2="0.190879" y2="0.0416578" style="stroke:rgb(246,147,147);stroke-width:0.01" />
<line x1="-0.107224" y1="0.108731" x2="0.0421659" y2="0.203243" style="stroke:rgb(246,147,147);stroke-width:0.01" />
<line x1="-0.15448" y1="0.183426" x2="-0.0797853" y2="0.230682" style="stroke:rgb(246,147,147);stroke-width:0.01" />
<line x1="0.204768" y1="0.166658" x2="-0.201737" y2="0.258121" style="stroke:rgb(246,147,147);stroke-width:0.01" />
<line x1="0.121434" y1="0.166658" x2="0.204768" y2="0.166658" style="stroke:rgb(246,147,147);stroke-width:0.01" />
<line x1="-0.351127" y1="0.163609" x2="-0.201737" y2="0.258121" style="stroke:rgb(246,147,147);stroke-width:0.01" />
</g>
</svg>
