<svg xmlns="http://www.w3.org/2000/svg" viewBox="-1.5 -1.5 3 3">
<g transform="scale(1, -1)">
<path d="M-0.086859 -0.216469 L-0.056336 -0.157200 L0.176973 -0.153842 L0.294764 0.347905 L0.020243 0.423114 L-0.102216 -0.011575 L-0.104144 -0.044078 L-0.142424 -0.187854 z " fill="rgb(245,195,195)" />
<path d="M-0.628168 0.002266 L0.371832 0.002266 L0.371832 1.002266 L-0.628168 1.002266  z" fill="none" stroke="rgb(128,128,128)" stroke-width="0.01" />
<line x1="-0.086859" y1="-0.216469" x2="0.215035" y2="0.369748" style="stroke:rgb(246,147,147);stroke-width:0.01" />
<line x1="0.14038" y1="-0.143817" x2="0.294764" y2="0.347905" style="stroke:rgb(246,147,147);stroke-width:0.01" />
<line x1="-0.102216" y1="-0.0115746" x2="0.0777145" y2="0.325796" style="stroke:rgb(246,147,147);stroke-width:0.01" />
<line x1="-0.0342873" y1="0.218302" x2="0.0777145" y2="0.407369" style="stroke:rgb(246,147,147);stroke-width:0.01" />
<line x1="0.176973" y1="-0.153842" x2="0.294764" y2="0.347905" style="stroke:rgb(246,147,147);stroke-width:0.01" />
<line x1="-0.0799865" y1="-0.190657" x2="-0.142424" y2="-0.187854" style="stroke:rgb(246,147,147);stroke-width:0.01" />
<line x1="-0.134562" y1="-0.158326" x2="0.176973" y2="-0.153842" style="stroke:rgb(246,147,147);stroke-width:0.01" />
<line x1="-0.0799865" y1="-0.190657" x2="0.0968005" y2="0.40214" style="stroke:rgb(246,147,147);stroke-width:0.01" />
<line x1="-0.00316786" y1="0.00226627" x2="0.0968005" y2="0.40214" style="stroke:rgb(246,147,147);stroke-width:0.01" />
<line x1="-0.102216" y1="-0.0115746" x2="0.0202426" y2="0.423114" style="stroke:rgb(246,147,147);stroke-width:0.01" />
<line x1="-0.142424" y1="-0.187854" x2="0.0202426" y2="0.423114" style="stroke:rgb(246,147,147);stroke-width:0.01" />
<line x1="0.14038" y1="-0.143817" x2="-0.109182" y2="-0.129015" style="stroke:rgb(246,147,147);stroke-width:0.01" />
<line x1="0.194868" y1="0.0297319" x2="0.215035" y2="0.369748" style="stroke:rgb(246,147,147);stroke-width:0.01" />
<line x1="-0.109182" y1="-0.129015" x2="-0.102216" y2="-0.0115746" style="stroke:rgb(246,147,147);stroke-width:0.01" />
<line x1="-0.0983171" y1="0.00226627" x2="-0.00316786" y2="0.00226627" style="stroke:rgb(246,147,147);stroke-width:0.01" />
<line x1="0.0777145" y1="0.325796" x2="0.0777145" y2="0.407369" style="stroke:rgb(246,147,147);stroke-width:0.01" />
<line x1="-0.0280013" y1="-0.0163414" x2="-0.0959476" y2="-0.013292" style="stroke:rgb(246,147,147);stroke-width:0.01" />
<line x1="-0.0314279" y1="0.0196469" x2="-0.0342873" y2="0.218302" style="stroke:rgb(246,147,147);stroke-width:0.01" />
<line x1="-0.0873923" y1="0.0188414" x2="-0.0314279" y2="0.0196469" style="stroke:rgb(246,147,147);stroke-width:0.01" />
<line x1="-0.086859" y1="-0.216469" x2="-0.142424" y2="-0.187854" style="stroke:rgb(246,147,147);stroke-width:0.01" />
<line x1="0.194868" y1="0.0297319" x2="-0.0858884" y2="0.0463839" style="stroke:rgb(246,147,147);stroke-width:0.01" />
<line x1="-0.0799865" y1="-0.190657" x2="-0.134562" y2="-0.158326" style="stroke:rgb(246,147,147);stroke-width:0.01" />
<line x1="0.176973" y1="-0.153842" x2="-0.0959476" y2="-0.013292" style="stroke:rgb(246,147,147);stroke-width:0.01" />
<line x1="0.14038" y1="-0.143817" x2="-0.0983171" y2="0.00226627" style="stroke:rgb(246,147,147);stroke-width:0.01" />
<line x1="-0.0280013" y1="-0.0163414" x2="-0.0873923" y2="0.0188414" style="stroke:rgb(246,147,147);stroke-width:0.01" />
<line x1="-0.00316786" y1="0.00226627" x2="-0.0858884" y2="0.0463839" style="stroke:rgb(246,147,147);stroke-width:0.01" />
<line x1="0.294764" y1="0.347905" x2="0.0202426" y2="0.423114" style="stroke:rgb(246,147,147);stroke-width:0.01" />
</g>
</svg>
