<svg xmlns="http://www.w3.org/2000/svg" viewBox="-1 -1 3 3">
<path d="M1.190173 0.145449 L1.327082 0.314686 L1.000000 0.579289 L0.527264 0.353665 L0.026863 0.412370 L0.019948 0.366745 L0.022895 0.364748 L0.022224 0.356691 L0.036540 0.355498 L0.240879 0.216981 z " fill="rgb(245,195,195)" />
<path d="M0 0 L0 1 L1 1 L1 0 z" fill="none" stroke="rgb(128,128,128)" stroke-width="0.01" />
<line x1="1.19017" y1="0.145449" x2="1.32708" y2="0.314686" style="stroke:rgb(246,147,147);stroke-width:0.01" />
<line x1="1.07832" y1="0.153878" x2="1.15274" y2="0.209375" style="stroke:rgb(246,147,147);stroke-width:0.01" />
<line x1="1" y1="0.159779" x2="1.02061" y2="0.295788" style="stroke:rgb(246,147,147);stroke-width:0.01" />
<line x1="1.01877" y1="0.273647" x2="1.02061" y2="0.295788" style="stroke:rgb(246,147,147);stroke-width:0.01" />
<line x1="0.264925" y1="0.21517" x2="0.29092" y2="0.240864" style="stroke:rgb(246,147,147);stroke-width:0.01" />
<line x1="1" y1="0.159779" x2="1" y2="0.579289" style="stroke:rgb(246,147,147);stroke-width:0.01" />
<line x1="0.0222235" y1="0.356691" x2="0.0268633" y2="0.41237" style="stroke:rgb(246,147,147);stroke-width:0.01" />
<line x1="0.0199482" y1="0.366745" x2="0.0268633" y2="0.41237" style="stroke:rgb(246,147,147);stroke-width:0.01" />
<line x1="0.240879" y1="0.216981" x2="1" y2="0.579289" style="stroke:rgb(246,147,147);stroke-width:0.01" />
<line x1="0.786689" y1="0.29612" x2="0.767496" y2="0.468321" style="stroke:rgb(246,147,147);stroke-width:0.01" />
<line x1="0.10759" y1="0.384781" x2="0.12659" y2="0.40067" style="stroke:rgb(246,147,147);stroke-width:0.01" />
<line x1="0.264925" y1="0.21517" x2="0.12659" y2="0.40067" style="stroke:rgb(246,147,147);stroke-width:0.01" />
<line x1="0.29092" y1="0.240864" x2="0.786689" y2="0.29612" style="stroke:rgb(246,147,147);stroke-width:0.01" />
<line x1="1.19017" y1="0.145449" x2="0.240879" y2="0.216981" style="stroke:rgb(246,147,147);stroke-width:0.01" />
<line x1="0.10759" y1="0.384781" x2="0.0860083" y2="0.405431" style="stroke:rgb(246,147,147);stroke-width:0.01" />
<line x1="0.240879" y1="0.216981" x2="0.0199482" y2="0.366745" style="stroke:rgb(246,147,147);stroke-width:0.01" />
<line x1="0.0199482" y1="0.366745" x2="0.0860083" y2="0.405431" style="stroke:rgb(246,147,147);stroke-width:0.01" />
<line x1="1.01877" y1="0.273647" x2="0.0222235" y2="0.356691" style="stroke:rgb(246,147,147);stroke-width:0.01" />
<line x1="0.32362" y1="0.377556" x2="0.10759" y2="0.384781" style="stroke:rgb(246,147,147);stroke-width:0.01" />
<line x1="1.02061" y1="0.295788" x2="0.0268633" y2="0.41237" style="stroke:rgb(246,147,147);stroke-width:0.01" />
<line x1="1.15274" y1="0.209375" x2="0.32362" y2="0.377556" style="stroke:rgb(246,147,147);stroke-width:0.01" />
<line x1="1.19017" y1="0.145449" x2="1.15274" y2="0.209375" style="stroke:rgb(246,147,147);stroke-width:0.01" />
<line x1="1.07832" y1="0.153878" x2="0.767496" y2="0.468321" style="stroke:rgb(246,147,147);stroke-width:0.01" />
<line x1="1.32708" y1="0.314686" x2="1" y2="0.579289" style="stroke:rgb(246,147,147);stroke-width:0.01" />
</svg>
