<svg xmlns="http://www.w3.org/2000/svg" viewBox="-1.5 -1.5 3 3">
<g transform="scale(1, -1)">
<path d="M0.001294 -0.246196 L0.009076 -0.246196 L0.009076 -0.246165 L0.009107 -0.246165 L0.009076 -0.242274 L0.009076 0.182376 L0.294790 0.468090 L0.009076 0.468090 L-0.350572 0.108441 z " fill="rgb(245,195,195)" />
<path d="M-0.990924 -0.246196 L0.009076 -0.246196 L0.009076 0.753804 L-0.990924 0.753804  z" fill="none" stroke="rgb(128,128,128)" stroke-width="0.01" />
<line x1="-0.207155" y1="-0.0338556" x2="0.29479" y2="0.46809" style="stroke:rgb(246,147,147);stroke-width:0.01" />
<line x1="-0.350572" y1="0.108441" x2="0.00907619" y2="0.46809" style="stroke:rgb(246,147,147);stroke-width:0.01" />
<line x1="0.00907619" y1="-0.246165" x2="0.00910671" y2="-0.246165" style="stroke:rgb(246,147,147);stroke-width:0.01" />
<line x1="0.00129421" y1="-0.246196" x2="0.00687931" y2="0.465893" style="stroke:rgb(246,147,147);stroke-width:0.01" />
<line x1="0.00129421" y1="-0.246196" x2="0.00907619" y2="-0.246196" style="stroke:rgb(246,147,147);stroke-width:0.01" />
<line x1="0.00907619" y1="-0.246196" x2="0.00907619" y2="0.46809" style="stroke:rgb(246,147,147);stroke-width:0.01" />
<line x1="0.00910671" y1="-0.246165" x2="0.00354798" y2="0.462562" style="stroke:rgb(246,147,147);stroke-width:0.01" />
<line x1="0.287039" y1="0.460338" x2="0.286978" y2="0.46809" style="stroke:rgb(246,147,147);stroke-width:0.01" />
<line x1="0.00129421" y1="-0.246196" x2="-0.350572" y2="0.108441" style="stroke:rgb(246,147,147);stroke-width:0.01" />
<line x1="-0.207155" y1="-0.0338556" x2="-0.349452" y2="0.109562" style="stroke:rgb(246,147,147);stroke-width:0.01" />
<line x1="-0.207155" y1="-0.0338556" x2="-0.350572" y2="0.108441" style="stroke:rgb(246,147,147);stroke-width:0.01" />
<line x1="0.00907619" y1="-0.246165" x2="-0.349452" y2="0.109562" style="stroke:rgb(246,147,147);stroke-width:0.01" />
<line x1="0.00687931" y1="0.465893" x2="0.286978" y2="0.46809" style="stroke:rgb(246,147,147);stroke-width:0.01" />
<line x1="0.00907619" y1="0.46809" x2="0.29479" y2="0.46809" style="stroke:rgb(246,147,147);stroke-width:0.01" />
<line x1="0.287039" y1="0.460338" x2="0.00354798" y2="0.462562" style="stroke:rgb(246,147,147);stroke-width:0.01" />
</g>
</svg>
