<svg xmlns="http://www.w3.org/2000/svg" viewBox="-1.5 -1.5 3 3">
<g transform="scale(1, -1)">
<path d="M-0.107026 -0.699129 L0.137307 0.693818 L0.101714 0.668848 L-0.131995 -0.663536 z " fill="rgb(245,195,195)" />
<path d="M-2.471060 -1.720266 L-1.471060 -1.720266 L-1.471060 -0.720266 L-2.471060 -0.720266  z" fill="none" stroke="rgb(128,128,128)" stroke-width="0.01" />
<line x1="-0.131995" y1="-0.663536" x2="-0.0964024" y2="-0.638566" style="stroke:rgb(246,147,147);stroke-width:0.01" />
<line x1="-0.107026" y1="-0.699129" x2="0.137307" y2="0.693818" style="stroke:rgb(246,147,147);stroke-width:0.01" />
<line x1="-0.131995" y1="-0.663536" x2="0.101714" y2="0.668848" style="stroke:rgb(246,147,147);stroke-width:0.01" />
<line x1="-0.121372" y1="-0.602973" x2="-0.0857792" y2="-0.578004" style="stroke:rgb(246,147,147);stroke-width:0.01" />
<line x1="-0.110749" y1="-0.54241" x2="-0.0751561" y2="-0.517441" style="stroke:rgb(246,147,147);stroke-width:0.01" />
<line x1="-0.100126" y1="-0.481848" x2="-0.0645329" y2="-0.456878" style="stroke:rgb(246,147,147);stroke-width:0.01" />
<line x1="-0.0895028" y1="-0.421285" x2="-0.0539098" y2="-0.396315" style="stroke:rgb(246,147,147);stroke-width:0.01" />
<line x1="-0.0788796" y1="-0.360722" x2="-0.0432866" y2="-0.335752" style="stroke:rgb(246,147,147);stroke-width:0.01" />
<line x1="-0.0682565" y1="-0.300159" x2="-0.0326635" y2="-0.275189" style="stroke:rgb(246,147,147);stroke-width:0.01" />
<line x1="-0.0576333" y1="-0.239596" x2="-0.0220403" y2="-0.214626" style="stroke:rgb(246,147,147);stroke-width:0.01" />
<line x1="-0.0470102" y1="-0.179033" x2="-0.0114172" y2="-0.154063" style="stroke:rgb(246,147,147);stroke-width:0.01" />
<line x1="-0.036387" y1="-0.11847" x2="-0.000793998" y2="-0.0935002" style="stroke:rgb(246,147,147);stroke-width:0.01" />
<line x1="-0.0257639" y1="-0.0579071" x2="0.00982915" y2="-0.0329372" style="stroke:rgb(246,147,147);stroke-width:0.01" />
<line x1="-0.0151407" y1="0.00265579" x2="0.0204523" y2="0.0276257" style="stroke:rgb(246,147,147);stroke-width:0.01" />
<line x1="-0.00451758" y1="0.0632187" x2="0.0310755" y2="0.0881886" style="stroke:rgb(246,147,147);stroke-width:0.01" />
<line x1="0.00610557" y1="0.123782" x2="0.0416986" y2="0.148752" style="stroke:rgb(246,147,147);stroke-width:0.01" />
<line x1="0.0167287" y1="0.184345" x2="0.0523218" y2="0.209314" style="stroke:rgb(246,147,147);stroke-width:0.01" />
<line x1="0.0273519" y1="0.244907" x2="0.0629449" y2="0.269877" style="stroke:rgb(246,147,147);stroke-width:0.01" />
<line x1="0.037975" y1="0.30547" x2="0.0735681" y2="0.33044" style="stroke:rgb(246,147,147);stroke-width:0.01" />
<line x1="0.0485982" y1="0.366033" x2="0.0841912" y2="0.391003" style="stroke:rgb(246,147,147);stroke-width:0.01" />
<line x1="0.0592213" y1="0.426596" x2="0.0948144" y2="0.451566" style="stroke:rgb(246,147,147);stroke-width:0.01" />
<line x1="0.0698445" y1="0.487159" x2="0.105438" y2="0.512129" style="stroke:rgb(246,147,147);stroke-width:0.01" />
<line x1="0.0804676" y1="0.547722" x2="0.116061" y2="0.572692" style="stroke:rgb(246,147,147);stroke-width:0.01" />
<line x1="0.0910908" y1="0.608285" x2="0.126684" y2="0.633255" style="stroke:rgb(246,147,147);stroke-width:0.01" />
<line x1="0.101714" y1="0.668848" x2="0.137307" y2="0.693818" style="stroke:rgb(246,147,147);stroke-width:0.01" />
<line x1="-0.107026" y1="-0.699129" x2="-0.131995" y2="-0.663536" style="stroke:rgb(246,147,147);stroke-width:0.01" />
<line x1="-0.0964024" y1="-0.638566" x2="-0.121372" y2="-0.602973" style="stroke:rgb(246,147,147);stroke-width:0.01" />
<line x1="-0.0857792" y1="-0.578004" x2="-0.110749" y2="-0.54241" style="stroke:rgb(246,147,147);stroke-width:0.01" />
<line x1="-0.0751561" y1="-0.517441" x2="-0.100126" y2="-0.481848" style="stroke:rgb(246,147,147);stroke-width:0.01" />
<line x1="-0.0645329" y1="-0.456878" x2="-0.0895028" y2="-0.421285" style="stroke:rgb(246,147,147);stroke-width:0.01" />
<line x1="-0.0539098" y1="-0.396315" x2="-0.0788796" y2="-0.360722" style="stroke:rgb(246,147,147);stroke-width:0.01" />
<line x1="-0.0432866" y1="-0.335752" x2="-0.0682565" y2="-0.300159" style="stroke:rgb(246,147,147);stroke-width:0.01" />
<line x1="-0.0326635" y1="-0.275189" x2="-0.0576333" y2="-0.239596" style="stroke:rgb(246,147,147);stroke-width:0.01" />
<line x1="-0.0220403" y1="-0.214626" x2="-0.0470102" y2="-0.179033" style="stroke:rgb(246,147,147);stroke-width:0.01" />
<line x1="-0.0114172" y1="-0.154063" x2="-0.036387" y2="-0.11847" style="stroke:rgb(246,147,147);stroke-width:0.01" />
<line x1="-0.000793998" y1="-0.0935002" x2="-0.0257639" y2="-0.0579071" style="stroke:rgb(246,147,147);stroke-width:0.01" />
<line x1="0.00982915" y1="-0.0329372" x2="-0.0151407" y2="0.00265579" style="stroke:rgb(246,147,147);stroke-width:0.01" />
<line x1="0.0204523" y1="0.0276257" x2="-0.00451758" y2="0.0632187" style="stroke:rgb(246,147,147);stroke-width:0.01" />
<line x1="0.0310755" y1="0.0881886" x2="0.00610557" y2="0.123782" style="stroke:rgb(246,147,147);stroke-width:0.01" />
<line x1="0.0416986" y1="0.148752" x2="0.0167287" y2="0.184345" style="stroke:rgb(246,147,147);stroke-width:0.01" />
<line x1="0.0523218" y1="0.209314" x2="0.0273519" y2="0.244907" style="stroke:rgb(246,147,147);stroke-width:0.01" />
<line x1="0.0629449" y1="0.269877" x2="0.037975" y2="0.30547" style="stroke:rgb(246,147,147);stroke-width:0.01" />
<line x1="0.0735681" y1="0.33044" x2="0.0485982" y2="0.366033" style="stroke:rgb(246,147,147);stroke-width:0.01" />
<line x1="0.0841912" y1="0.391003" x2="0.0592213" y2="0.426596" style="stroke:rgb(246,147,147);stroke-width:0.01" />
<line x1="0.0948144" y1="0.451566" x2="0.0698445" y2="0.487159" style="stroke:rgb(246,147,147);stroke-width:0.01" />
<line x1="0.105438" y1="0.512129" x2="0.0804676" y2="0.547722" style="stroke:rgb(246,147,147);stroke-width:0.01" />
<line x1="0.116061" y1="0.572692" x2="0.0910908" y2="0.608285" style="stroke:rgb(246,147,147);stroke-width:0.01" />
<line x1="0.126684" y1="0.633255" x2="0.101714" y2="0.668848" style="stroke:rgb(246,147,147);stroke-width:0.01" />
</g>
</svg>
