<svg xmlns="http://www.w3.org/2000/svg" viewBox="-1.5 -1.5 3 3">
<g transform="scale(1, -1)">
<path d="M-0.032051 -0.208333 L0.259615 -0.208333 L0.259615 -0.125000 L0.301282 -0.083333 L0.301282 0.083333 L0.259615 0.083333 L0.259615 0.125000 L0.176282 0.208333 L-0.448718 0.208333 L-0.448718 0.000000 L-0.365385 -0.083333 L-0.282051 0.000000 L-0.240385 0.000000 z " fill="rgb(245,195,195)" />
<path d="M-0.657051 -0.500000 L0.342949 -0.500000 L0.342949 0.500000 L-0.657051 0.500000  z" fill="none" stroke="rgb(128,128,128)" stroke-width="0.01" />
<line x1="0.176282" y1="-0.208333" x2="0.301282" y2="-0.0833333" style="stroke:rgb(246,147,147);stroke-width:0.01" />
<line x1="-0.0320513" y1="-0.208333" x2="0.259615" y2="0.0833333" style="stroke:rgb(246,147,147);stroke-width:0.01" />
<line x1="-0.0320513" y1="0" x2="0.176282" y2="0.208333" style="stroke:rgb(246,147,147);stroke-width:0.01" />
<line x1="-0.448718" y1="0" x2="-0.448718" y2="0.208333" style="stroke:rgb(246,147,147);stroke-width:0.01" />
<line x1="-0.365385" y1="-0.0833333" x2="-0.365385" y2="0.125" style="stroke:rgb(246,147,147);stroke-width:0.01" />
<line x1="-0.282051" y1="0" x2="-0.282051" y2="0.0416667" style="stroke:rgb(246,147,147);stroke-width:0.01" />
<line x1="-0.0320513" y1="0" x2="-0.0320513" y2="0.208333" style="stroke:rgb(246,147,147);stroke-width:0.01" />
<line x1="0.0929487" y1="0.125" x2="0.0929487" y2="0.166667" style="stroke:rgb(246,147,147);stroke-width:0.01" />
<line x1="0.134615" y1="-0.208333" x2="0.134615" y2="0.208333" style="stroke:rgb(246,147,147);stroke-width:0.01" />
<line x1="0.259615" y1="-0.208333" x2="0.259615" y2="0.125" style="stroke:rgb(246,147,147);stroke-width:0.01" />
<line x1="0.301282" y1="-0.0833333" x2="0.301282" y2="0.0833333" style="stroke:rgb(246,147,147);stroke-width:0.01" />
<line x1="-0.365385" y1="-0.0833333" x2="-0.261218" y2="0.0208333" style="stroke:rgb(246,147,147);stroke-width:0.01" />
<line x1="-0.448718" y1="0" x2="-0.240385" y2="0.208333" style="stroke:rgb(246,147,147);stroke-width:0.01" />
<line x1="-0.0320513" y1="-0.208333" x2="0.259615" y2="-0.208333" style="stroke:rgb(246,147,147);stroke-width:0.01" />
<line x1="-0.365385" y1="-0.0833333" x2="-0.448718" y2="0" style="stroke:rgb(246,147,147);stroke-width:0.01" />
<line x1="0.134615" y1="-0.0416667" x2="0.301282" y2="-0.0416667" style="stroke:rgb(246,147,147);stroke-width:0.01" />
<line x1="-0.0320513" y1="-0.208333" x2="-0.448718" y2="0.208333" style="stroke:rgb(246,147,147);stroke-width:0.01" />
<line x1="-0.448718" y1="0" x2="-0.0320513" y2="0" style="stroke:rgb(246,147,147);stroke-width:0.01" />
<line x1="-0.365385" y1="0.0416667" x2="-0.282051" y2="0.0416667" style="stroke:rgb(246,147,147);stroke-width:0.01" />
<line x1="0.176282" y1="-0.208333" x2="-0.240385" y2="0.208333" style="stroke:rgb(246,147,147);stroke-width:0.01" />
<line x1="0.259615" y1="0.0833333" x2="0.301282" y2="0.0833333" style="stroke:rgb(246,147,147);stroke-width:0.01" />
<line x1="-0.448718" y1="0.125" x2="0.259615" y2="0.125" style="stroke:rgb(246,147,147);stroke-width:0.01" />
<line x1="0.0929487" y1="0.166667" x2="0.134615" y2="0.166667" style="stroke:rgb(246,147,147);stroke-width:0.01" />
<line x1="0.301282" y1="-0.0833333" x2="0.259615" y2="-0.0416667" style="stroke:rgb(246,147,147);stroke-width:0.01" />
<line x1="-0.448718" y1="0.208333" x2="0.176282" y2="0.208333" style="stroke:rgb(246,147,147);stroke-width:0.01" />
<line x1="0.259615" y1="0.125" x2="0.176282" y2="0.208333" style="stroke:rgb(246,147,147);stroke-width:0.01" />
</g>
</svg>
