<svg xmlns="http://www.w3.org/2000/svg" viewBox="-1.5 -1.5 3 3">
<g transform="scale(1, -1)">
<path d="M0.128205 -0.307692 L0.217949 -0.089744 L0.153846 0.064103 L0.307692 0.128205 L0.089744 0.217949 L-0.064103 0.153846 L-0.128205 0.307692 L-0.217949 0.089744 L-0.153846 -0.064103 L-0.307692 -0.128205 L-0.089744 -0.217949 L0.064103 -0.153846 z " fill="rgb(245,195,195)" />
<path d="M-0.653846 0.269231 L0.346154 0.269231 L0.346154 1.269231 L-0.653846 1.269231  z" fill="none" stroke="rgb(128,128,128)" stroke-width="0.01" />
<line x1="-0.0897436" y1="-0.217949" x2="0.217949" y2="-0.0897436" style="stroke:rgb(246,147,147);stroke-width:0.01" />
<line x1="-0.307692" y1="-0.128205" x2="0.307692" y2="0.128205" style="stroke:rgb(246,147,147);stroke-width:0.01" />
<line x1="0.128205" y1="-0.307692" x2="0.217949" y2="-0.0897436" style="stroke:rgb(246,147,147);stroke-width:0.01" />
<line x1="0.0641026" y1="-0.153846" x2="0.198718" y2="0.173077" style="stroke:rgb(246,147,147);stroke-width:0.01" />
<line x1="-0.217949" y1="0.0897436" x2="0.0897436" y2="0.217949" style="stroke:rgb(246,147,147);stroke-width:0.01" />
<line x1="-0.0897436" y1="-0.217949" x2="0.0897436" y2="0.217949" style="stroke:rgb(246,147,147);stroke-width:0.01" />
<line x1="-0.198718" y1="-0.173077" x2="-0.0641026" y2="0.153846" style="stroke:rgb(246,147,147);stroke-width:0.01" />
<line x1="-0.0897436" y1="-0.217949" x2="-0.307692" y2="-0.128205" style="stroke:rgb(246,147,147);stroke-width:0.01" />
<line x1="-0.217949" y1="0.0897436" x2="-0.128205" y2="0.307692" style="stroke:rgb(246,147,147);stroke-width:0.01" />
<line x1="0.173077" y1="-0.198718" x2="-0.153846" y2="-0.0641026" style="stroke:rgb(246,147,147);stroke-width:0.01" />
<line x1="0.217949" y1="-0.0897436" x2="-0.217949" y2="0.0897436" style="stroke:rgb(246,147,147);stroke-width:0.01" />
<line x1="0.153846" y1="0.0641026" x2="-0.173077" y2="0.198718" style="stroke:rgb(246,147,147);stroke-width:0.01" />
<line x1="-0.0897436" y1="-0.217949" x2="-0.217949" y2="0.0897436" style="stroke:rgb(246,147,147);stroke-width:0.01" />
<line x1="0.128205" y1="-0.307692" x2="-0.128205" y2="0.307692" style="stroke:rgb(246,147,147);stroke-width:0.01" />
<line x1="0.307692" y1="0.128205" x2="0.0897436" y2="0.217949" style="stroke:rgb(246,147,147);stroke-width:0.01" />
<line x1="0.217949" y1="-0.0897436" x2="0.0897436" y2="0.217949" style="stroke:rgb(246,147,147);stroke-width:0.01" />
</g>
</svg>
