<svg xmlns="http://www.w3.org/2000/svg" viewBox="-1.5 -1.5 3 3">
<g transform="scale(1, -1)">
<path d="M-0.156863 -0.294118 L0.068627 -0.225490 L0.147059 -0.078431 L0.294118 -0.156863 L0.225490 0.068627 L0.078431 0.147059 L0.156863 0.294118 L-0.068627 0.225490 L-0.147059 0.078431 L-0.294118 0.156863 L-0.225490 -0.068627 L-0.078431 -0.147059 z " fill="rgb(245,195,195)" />
<path d="M-0.676471 -0.205882 L0.323529 -0.205882 L0.323529 0.794118 L-0.676471 0.794118  z" fill="none" stroke="rgb(128,128,128)" stroke-width="0.01" />
<line x1="0.0686275" y1="-0.22549" x2="0.22549" y2="0.0686275" style="stroke:rgb(246,147,147);stroke-width:0.01" />
<line x1="-0.156863" y1="-0.294118" x2="0.156863" y2="0.294118" style="stroke:rgb(246,147,147);stroke-width:0.01" />
<line x1="-0.156863" y1="-0.294118" x2="0.0686275" y2="-0.22549" style="stroke:rgb(246,147,147);stroke-width:0.01" />
<line x1="-0.22549" y1="-0.0686275" x2="-0.0686275" y2="0.22549" style="stroke:rgb(246,147,147);stroke-width:0.01" />
<line x1="-0.0784314" y1="-0.147059" x2="0.259804" y2="-0.0441176" style="stroke:rgb(246,147,147);stroke-width:0.01" />
<line x1="-0.22549" y1="-0.0686275" x2="0.22549" y2="0.0686275" style="stroke:rgb(246,147,147);stroke-width:0.01" />
<line x1="-0.259804" y1="0.0441176" x2="0.0784314" y2="0.147059" style="stroke:rgb(246,147,147);stroke-width:0.01" />
<line x1="-0.22549" y1="-0.0686275" x2="-0.294118" y2="0.156863" style="stroke:rgb(246,147,147);stroke-width:0.01" />
<line x1="-0.0441176" y1="-0.259804" x2="-0.147059" y2="0.0784314" style="stroke:rgb(246,147,147);stroke-width:0.01" />
<line x1="0.0686275" y1="-0.22549" x2="-0.0686275" y2="0.22549" style="stroke:rgb(246,147,147);stroke-width:0.01" />
<line x1="-0.0686275" y1="0.22549" x2="0.156863" y2="0.294118" style="stroke:rgb(246,147,147);stroke-width:0.01" />
<line x1="0.147059" y1="-0.0784314" x2="0.0441176" y2="0.259804" style="stroke:rgb(246,147,147);stroke-width:0.01" />
<line x1="0.294118" y1="-0.156863" x2="0.22549" y2="0.0686275" style="stroke:rgb(246,147,147);stroke-width:0.01" />
<line x1="0.0686275" y1="-0.22549" x2="-0.22549" y2="-0.0686275" style="stroke:rgb(246,147,147);stroke-width:0.01" />
<line x1="0.294118" y1="-0.156863" x2="-0.294118" y2="0.156863" style="stroke:rgb(246,147,147);stroke-width:0.01" />
<line x1="0.22549" y1="0.0686275" x2="-0.0686275" y2="0.22549" style="stroke:rgb(246,147,147);stroke-width:0.01" />
</g>
</svg>
