<svg xmlns="http://www.w3.org/2000/svg" viewBox="-1.5 -1.5 3 3">
<g transform="scale(1, -1)">
<path d="M0.133448 -0.135287 L0.205862 -0.066322 L0.209310 0.075057 L0.140345 0.147471 L-0.142414 0.154368 L-0.214828 0.085402 L-0.218276 -0.055977 L-0.149310 -0.128391 z M0.135172 -0.064598 L0.064483 -0.062874 L-0.004483 0.009540 L-0.006207 -0.061149 L-0.147586 -0.057701 L-0.144138 0.083678 L0.138621 0.076782 z " fill="rgb(245,195,195)" />
<path d="M-0.007931 0.075057 L0.992069 0.075057 L0.992069 1.075057 L-0.007931 1.075057  z" fill="none" stroke="rgb(128,128,128)" stroke-width="0.01" />
<line x1="0.133448" y1="-0.135287" x2="-0.14931" y2="-0.128391" style="stroke:rgb(246,147,147);stroke-width:0.01" />
<line x1="0.133448" y1="-0.135287" x2="0.205862" y2="-0.0663218" style="stroke:rgb(246,147,147);stroke-width:0.01" />
<line x1="-0.14931" y1="-0.128391" x2="-0.218276" y2="-0.055977" style="stroke:rgb(246,147,147);stroke-width:0.01" />
<line x1="0.205862" y1="-0.0663218" x2="-0.218276" y2="-0.055977" style="stroke:rgb(246,147,147);stroke-width:0.01" />
<line x1="-0.00793103" y1="-0.131839" x2="0.0644828" y2="-0.0628736" style="stroke:rgb(246,147,147);stroke-width:0.01" />
<line x1="0.136897" y1="0.00609195" x2="0.20931" y2="0.0750575" style="stroke:rgb(246,147,147);stroke-width:0.01" />
<line x1="-0.00793103" y1="-0.131839" x2="-0.0768966" y2="-0.0594253" style="stroke:rgb(246,147,147);stroke-width:0.01" />
<line x1="-0.145862" y1="0.0129885" x2="-0.214828" y2="0.0854023" style="stroke:rgb(246,147,147);stroke-width:0.01" />
<line x1="-0.14931" y1="-0.128391" x2="-0.0768966" y2="-0.0594253" style="stroke:rgb(246,147,147);stroke-width:0.01" />
<line x1="0.067931" y1="0.0785057" x2="0.140345" y2="0.147471" style="stroke:rgb(246,147,147);stroke-width:0.01" />
<line x1="0.133448" y1="-0.135287" x2="-0.00448276" y2="0.00954023" style="stroke:rgb(246,147,147);stroke-width:0.01" />
<line x1="-0.0734483" y1="0.081954" x2="-0.142414" y2="0.154368" style="stroke:rgb(246,147,147);stroke-width:0.01" />
<line x1="0.205862" y1="-0.0663218" x2="0.20931" y2="0.0750575" style="stroke:rgb(246,147,147);stroke-width:0.01" />
<line x1="0.133448" y1="-0.135287" x2="0.140345" y2="0.147471" style="stroke:rgb(246,147,147);stroke-width:0.01" />
<line x1="-0.00793103" y1="-0.131839" x2="-0.00448276" y2="0.00954023" style="stroke:rgb(246,147,147);stroke-width:0.01" />
<line x1="-0.14931" y1="-0.128391" x2="-0.142414" y2="0.154368" style="stroke:rgb(246,147,147);stroke-width:0.01" />
<line x1="-0.218276" y1="-0.055977" x2="-0.214828" y2="0.0854023" style="stroke:rgb(246,147,147);stroke-width:0.01" />
<line x1="0.20931" y1="0.0750575" x2="-0.214828" y2="0.0854023" style="stroke:rgb(246,147,147);stroke-width:0.01" />
<line x1="-0.218276" y1="-0.055977" x2="-0.145862" y2="0.0129885" style="stroke:rgb(246,147,147);stroke-width:0.01" />
<line x1="-0.0734483" y1="0.081954" x2="-0.00103448" y2="0.15092" style="stroke:rgb(246,147,147);stroke-width:0.01" />
<line x1="0.205862" y1="-0.0663218" x2="0.136897" y2="0.00609195" style="stroke:rgb(246,147,147);stroke-width:0.01" />
<line x1="0.067931" y1="0.0785057" x2="-0.00103448" y2="0.15092" style="stroke:rgb(246,147,147);stroke-width:0.01" />
<line x1="0.140345" y1="0.147471" x2="-0.142414" y2="0.154368" style="stroke:rgb(246,147,147);stroke-width:0.01" />
<line x1="0.20931" y1="0.0750575" x2="0.140345" y2="0.147471" style="stroke:rgb(246,147,147);stroke-width:0.01" />
<line x1="-0.214828" y1="0.0854023" x2="-0.142414" y2="0.154368" style="stroke:rgb(246,147,147);stroke-width:0.01" />
</g>
</svg>
