<svg xmlns="http://www.w3.org/2000/svg" viewBox="-1.5 -1.5 3 3">
<g transform="scale(1, -1)">
<path d="M0.022873 -0.289062 L0.222873 -0.189062 L0.272873 -0.132812 L0.272873 0.044272 L0.022873 0.044272 L0.022873 0.023438 L-0.115259 0.127037 L-0.106614 0.141707 L-0.238238 0.219272 L-0.377127 0.010938 z " fill="rgb(245,195,195)" />
<path d="M0.289540 0.510938 L1.289540 0.510938 L1.289540 1.510938 L0.289540 1.510938  z" fill="none" stroke="rgb(128,128,128)" stroke-width="0.01" />
<line x1="-0.233537" y1="-0.0736772" x2="-0.377127" y2="0.0109382" style="stroke:rgb(246,147,147);stroke-width:0.01" />
<line x1="0.022873" y1="-0.289062" x2="-0.377127" y2="0.0109382" style="stroke:rgb(246,147,147);stroke-width:0.01" />
<line x1="0.241839" y1="-0.136476" x2="0.272873" y2="-0.132812" style="stroke:rgb(246,147,147);stroke-width:0.01" />
<line x1="0.022873" y1="-0.289062" x2="0.222873" y2="-0.189062" style="stroke:rgb(246,147,147);stroke-width:0.01" />
<line x1="0.022873" y1="0.0442715" x2="0.272873" y2="0.0442715" style="stroke:rgb(246,147,147);stroke-width:0.01" />
<line x1="-0.106614" y1="0.141707" x2="-0.238238" y2="0.219272" style="stroke:rgb(246,147,147);stroke-width:0.01" />
<line x1="0.256206" y1="-0.151562" x2="-0.238238" y2="0.219272" style="stroke:rgb(246,147,147);stroke-width:0.01" />
<line x1="0.256206" y1="-0.151562" x2="0.241839" y2="-0.136476" style="stroke:rgb(246,147,147);stroke-width:0.01" />
<line x1="0.222873" y1="-0.189062" x2="0.272873" y2="-0.132812" style="stroke:rgb(246,147,147);stroke-width:0.01" />
<line x1="0.222873" y1="-0.189062" x2="0.241839" y2="-0.136476" style="stroke:rgb(246,147,147);stroke-width:0.01" />
<line x1="0.022873" y1="-0.289062" x2="0.022873" y2="0.0442715" style="stroke:rgb(246,147,147);stroke-width:0.01" />
<line x1="0.272873" y1="-0.132812" x2="0.272873" y2="0.0442715" style="stroke:rgb(246,147,147);stroke-width:0.01" />
<line x1="-0.233537" y1="-0.0736772" x2="-0.106614" y2="0.141707" style="stroke:rgb(246,147,147);stroke-width:0.01" />
<line x1="-0.377127" y1="0.0109382" x2="-0.238238" y2="0.219272" style="stroke:rgb(246,147,147);stroke-width:0.01" />
</g>
</svg>
