<svg xmlns="http://www.w3.org/2000/svg" viewBox="-1.5 -1.5 3 3">
<g transform="scale(1, -1)">
<path d="M-0.055644 -0.082844 L0.344356 -0.082844 L0.344356 0.117156 L0.125156 0.336356 L-0.263644 -0.052444 L-0.263644 -0.074844 L-0.103644 -0.074844 L-0.071644 -0.042844 L-0.055644 -0.042844 z " fill="rgb(245,195,195)" />
<path d="M-0.495644 0.357156 L0.504356 0.357156 L0.504356 1.357156 L-0.495644 1.357156  z" fill="none" stroke="rgb(128,128,128)" stroke-width="0.01" />
<line x1="-0.0556444" y1="-0.0828444" x2="0.344356" y2="-0.0828444" style="stroke:rgb(246,147,147);stroke-width:0.01" />
<line x1="-0.263644" y1="-0.0748444" x2="-0.103644" y2="-0.0748444" style="stroke:rgb(246,147,147);stroke-width:0.01" />
<line x1="-0.103644" y1="-0.0748444" x2="0.216356" y2="0.245156" style="stroke:rgb(246,147,147);stroke-width:0.01" />
<line x1="-0.263644" y1="-0.0524444" x2="-0.254044" y2="-0.0524444" style="stroke:rgb(246,147,147);stroke-width:0.01" />
<line x1="-0.254044" y1="-0.0428444" x2="0.104356" y2="-0.0428444" style="stroke:rgb(246,147,147);stroke-width:0.01" />
<line x1="-0.254044" y1="-0.0524444" x2="0.129956" y2="0.331556" style="stroke:rgb(246,147,147);stroke-width:0.01" />
<line x1="-0.263644" y1="-0.0524444" x2="0.125156" y2="0.336356" style="stroke:rgb(246,147,147);stroke-width:0.01" />
<line x1="-0.103644" y1="0.107556" x2="-0.0940444" y2="0.107556" style="stroke:rgb(246,147,147);stroke-width:0.01" />
<line x1="-0.0956444" y1="0.115556" x2="-0.0860444" y2="0.115556" style="stroke:rgb(246,147,147);stroke-width:0.01" />
<line x1="-0.0940444" y1="0.117156" x2="0.344356" y2="0.117156" style="stroke:rgb(246,147,147);stroke-width:0.01" />
<line x1="-0.0860444" y1="0.125156" x2="0.0963556" y2="0.125156" style="stroke:rgb(246,147,147);stroke-width:0.01" />
<line x1="-0.0556444" y1="0.155556" x2="-0.0460444" y2="0.155556" style="stroke:rgb(246,147,147);stroke-width:0.01" />
<line x1="-0.0460444" y1="0.165156" x2="0.136356" y2="0.165156" style="stroke:rgb(246,147,147);stroke-width:0.01" />
<line x1="0.0963556" y1="0.307556" x2="0.105956" y2="0.307556" style="stroke:rgb(246,147,147);stroke-width:0.01" />
<line x1="0.104356" y1="0.315556" x2="0.113956" y2="0.315556" style="stroke:rgb(246,147,147);stroke-width:0.01" />
<line x1="0.105956" y1="0.317156" x2="0.144356" y2="0.317156" style="stroke:rgb(246,147,147);stroke-width:0.01" />
<line x1="0.113956" y1="0.325156" x2="0.136356" y2="0.325156" style="stroke:rgb(246,147,147);stroke-width:0.01" />
<line x1="-0.263644" y1="-0.0748444" x2="-0.263644" y2="-0.0524444" style="stroke:rgb(246,147,147);stroke-width:0.01" />
<line x1="-0.254044" y1="-0.0524444" x2="-0.254044" y2="-0.0428444" style="stroke:rgb(246,147,147);stroke-width:0.01" />
<line x1="-0.103644" y1="-0.0748444" x2="-0.103644" y2="0.107556" style="stroke:rgb(246,147,147);stroke-width:0.01" />
<line x1="-0.0956444" y1="-0.0428444" x2="-0.0956444" y2="0.115556" style="stroke:rgb(246,147,147);stroke-width:0.01" />
<line x1="-0.0940444" y1="0.107556" x2="-0.0940444" y2="0.117156" style="stroke:rgb(246,147,147);stroke-width:0.01" />
<line x1="-0.0860444" y1="0.115556" x2="-0.0860444" y2="0.125156" style="stroke:rgb(246,147,147);stroke-width:0.01" />
<line x1="-0.0556444" y1="-0.0828444" x2="-0.0556444" y2="0.155556" style="stroke:rgb(246,147,147);stroke-width:0.01" />
<line x1="-0.0460444" y1="0.155556" x2="-0.0460444" y2="0.165156" style="stroke:rgb(246,147,147);stroke-width:0.01" />
<line x1="0.0963556" y1="0.125156" x2="0.0963556" y2="0.307556" style="stroke:rgb(246,147,147);stroke-width:0.01" />
<line x1="0.104356" y1="-0.0428444" x2="0.104356" y2="0.315556" style="stroke:rgb(246,147,147);stroke-width:0.01" />
<line x1="0.105956" y1="0.307556" x2="0.105956" y2="0.317156" style="stroke:rgb(246,147,147);stroke-width:0.01" />
<line x1="0.113956" y1="0.315556" x2="0.113956" y2="0.325156" style="stroke:rgb(246,147,147);stroke-width:0.01" />
<line x1="0.136356" y1="0.165156" x2="0.136356" y2="0.325156" style="stroke:rgb(246,147,147);stroke-width:0.01" />
<line x1="0.144356" y1="-0.0828444" x2="0.144356" y2="0.317156" style="stroke:rgb(246,147,147);stroke-width:0.01" />
<line x1="0.344356" y1="-0.0828444" x2="0.344356" y2="0.117156" style="stroke:rgb(246,147,147);stroke-width:0.01" />
<line x1="0.344356" y1="0.117156" x2="0.125156" y2="0.336356" style="stroke:rgb(246,147,147);stroke-width:0.01" />
</g>
</svg>
