<svg xmlns="http://www.w3.org/2000/svg" viewBox="-1.5 -1.5 3 3">
<g transform="scale(1, -1)">
<path d="M-0.588141 -0.254808 L-0.463141 -0.254808 L-0.379808 -0.171474 L0.036859 -0.171474 L0.224359 0.016026 L0.245192 -0.004808 L0.328526 -0.004808 L0.411859 0.078526 L0.370192 0.078526 L0.245192 0.203526 L0.245192 0.328526 L-0.088141 0.328526 L-0.588141 -0.171474 z " fill="rgb(245,195,195)" />
<path d="M-0.588141 -0.254808 L0.411859 -0.254808 L0.411859 0.745192 L-0.588141 0.745192  z" fill="none" stroke="rgb(128,128,128)" stroke-width="0.01" />
<line x1="0.328526" y1="-0.00480769" x2="0.411859" y2="0.0785256" style="stroke:rgb(246,147,147);stroke-width:0.01" />
<line x1="0.328526" y1="0.036859" x2="0.370192" y2="0.0785256" style="stroke:rgb(246,147,147);stroke-width:0.01" />
<line x1="0.036859" y1="-0.171474" x2="0.245192" y2="0.036859" style="stroke:rgb(246,147,147);stroke-width:0.01" />
<line x1="-0.129808" y1="-0.0464744" x2="0.203526" y2="0.286859" style="stroke:rgb(246,147,147);stroke-width:0.01" />
<line x1="-0.463141" y1="-0.254808" x2="0.120192" y2="0.328526" style="stroke:rgb(246,147,147);stroke-width:0.01" />
<line x1="-0.588141" y1="-0.254808" x2="-0.463141" y2="-0.254808" style="stroke:rgb(246,147,147);stroke-width:0.01" />
<line x1="-0.588141" y1="-0.254808" x2="-0.588141" y2="-0.171474" style="stroke:rgb(246,147,147);stroke-width:0.01" />
<line x1="-0.463141" y1="-0.254808" x2="-0.463141" y2="-0.0464744" style="stroke:rgb(246,147,147);stroke-width:0.01" />
<line x1="-0.129808" y1="-0.0464744" x2="-0.129808" y2="0.286859" style="stroke:rgb(246,147,147);stroke-width:0.01" />
<line x1="0.036859" y1="-0.171474" x2="0.036859" y2="0.120192" style="stroke:rgb(246,147,147);stroke-width:0.01" />
<line x1="0.161859" y1="0.0785256" x2="0.161859" y2="0.328526" style="stroke:rgb(246,147,147);stroke-width:0.01" />
<line x1="0.203526" y1="0.036859" x2="0.203526" y2="0.328526" style="stroke:rgb(246,147,147);stroke-width:0.01" />
<line x1="0.245192" y1="-0.00480769" x2="0.245192" y2="0.328526" style="stroke:rgb(246,147,147);stroke-width:0.01" />
<line x1="0.328526" y1="-0.00480769" x2="0.328526" y2="0.036859" style="stroke:rgb(246,147,147);stroke-width:0.01" />
<line x1="0.370192" y1="0.036859" x2="0.370192" y2="0.0785256" style="stroke:rgb(246,147,147);stroke-width:0.01" />
<line x1="-0.588141" y1="-0.171474" x2="-0.088141" y2="0.328526" style="stroke:rgb(246,147,147);stroke-width:0.01" />
<line x1="-0.588141" y1="-0.171474" x2="0.036859" y2="-0.171474" style="stroke:rgb(246,147,147);stroke-width:0.01" />
<line x1="-0.463141" y1="-0.0464744" x2="-0.129808" y2="-0.0464744" style="stroke:rgb(246,147,147);stroke-width:0.01" />
<line x1="0.245192" y1="-0.00480769" x2="0.328526" y2="-0.00480769" style="stroke:rgb(246,147,147);stroke-width:0.01" />
<line x1="0.203526" y1="0.036859" x2="0.370192" y2="0.036859" style="stroke:rgb(246,147,147);stroke-width:0.01" />
<line x1="0.161859" y1="0.0785256" x2="0.411859" y2="0.0785256" style="stroke:rgb(246,147,147);stroke-width:0.01" />
<line x1="0.036859" y1="0.120192" x2="0.245192" y2="0.120192" style="stroke:rgb(246,147,147);stroke-width:0.01" />
<line x1="-0.129808" y1="0.286859" x2="0.203526" y2="0.286859" style="stroke:rgb(246,147,147);stroke-width:0.01" />
<line x1="0.245192" y1="-0.00480769" x2="-0.088141" y2="0.328526" style="stroke:rgb(246,147,147);stroke-width:0.01" />
<line x1="0.245192" y1="0.036859" x2="0.161859" y2="0.120192" style="stroke:rgb(246,147,147);stroke-width:0.01" />
<line x1="-0.088141" y1="0.328526" x2="0.245192" y2="0.328526" style="stroke:rgb(246,147,147);stroke-width:0.01" />
<line x1="0.391026" y1="0.0576923" x2="0.120192" y2="0.328526" style="stroke:rgb(246,147,147);stroke-width:0.01" />
</g>
</svg>
