<svg xmlns="http://www.w3.org/2000/svg" viewBox="-1.5 -1.5 3 3">
<g transform="scale(1, -1)">
<path d="M-0.377797 -0.597902 L-0.337351 -0.587888 L0.362581 0.572672 L0.352567 0.613118 z " fill="rgb(245,195,195)" />
<path d="M10625.014349 -61843.013494 L10626.014349 -61843.013494 L10626.014349 -61842.013494 L10625.014349 -61842.013494  z" fill="none" stroke="rgb(128,128,128)" stroke-width="0.01" />
<line x1="-0.337351" y1="-0.587888" x2="-0.347365" y2="-0.547443" style="stroke:rgb(246,147,147);stroke-width:0.01" />
<line x1="-0.306919" y1="-0.537429" x2="-0.316933" y2="-0.496984" style="stroke:rgb(246,147,147);stroke-width:0.01" />
<line x1="-0.276487" y1="-0.48697" x2="-0.286501" y2="-0.446525" style="stroke:rgb(246,147,147);stroke-width:0.01" />
<line x1="-0.246056" y1="-0.436511" x2="-0.256069" y2="-0.396065" style="stroke:rgb(246,147,147);stroke-width:0.01" />
<line x1="-0.215624" y1="-0.386052" x2="-0.225637" y2="-0.345606" style="stroke:rgb(246,147,147);stroke-width:0.01" />
<line x1="-0.185192" y1="-0.335593" x2="-0.195206" y2="-0.295147" style="stroke:rgb(246,147,147);stroke-width:0.01" />
<line x1="-0.15476" y1="-0.285133" x2="-0.164774" y2="-0.244688" style="stroke:rgb(246,147,147);stroke-width:0.01" />
<line x1="-0.124328" y1="-0.234674" x2="-0.134342" y2="-0.194229" style="stroke:rgb(246,147,147);stroke-width:0.01" />
<line x1="-0.0938965" y1="-0.184215" x2="-0.10391" y2="-0.14377" style="stroke:rgb(246,147,147);stroke-width:0.01" />
<line x1="-0.0634647" y1="-0.133756" x2="-0.0734784" y2="-0.0933104" style="stroke:rgb(246,147,147);stroke-width:0.01" />
<line x1="-0.0330329" y1="-0.0832967" x2="-0.0430466" y2="-0.0428512" style="stroke:rgb(246,147,147);stroke-width:0.01" />
<line x1="-0.00260111" y1="-0.0328375" x2="-0.0126148" y2="0.00760795" style="stroke:rgb(246,147,147);stroke-width:0.01" />
<line x1="0.0278307" y1="0.0176216" x2="0.017817" y2="0.0580671" style="stroke:rgb(246,147,147);stroke-width:0.01" />
<line x1="0.0582625" y1="0.0680808" x2="0.0482488" y2="0.108526" style="stroke:rgb(246,147,147);stroke-width:0.01" />
<line x1="0.0886943" y1="0.11854" x2="0.0786806" y2="0.158985" style="stroke:rgb(246,147,147);stroke-width:0.01" />
<line x1="0.119126" y1="0.168999" x2="0.109112" y2="0.209445" style="stroke:rgb(246,147,147);stroke-width:0.01" />
<line x1="0.149558" y1="0.219458" x2="0.139544" y2="0.259904" style="stroke:rgb(246,147,147);stroke-width:0.01" />
<line x1="0.17999" y1="0.269917" x2="0.169976" y2="0.310363" style="stroke:rgb(246,147,147);stroke-width:0.01" />
<line x1="0.210422" y1="0.320377" x2="0.200408" y2="0.360822" style="stroke:rgb(246,147,147);stroke-width:0.01" />
<line x1="0.240853" y1="0.370836" x2="0.23084" y2="0.411281" style="stroke:rgb(246,147,147);stroke-width:0.01" />
<line x1="0.271285" y1="0.421295" x2="0.261271" y2="0.46174" style="stroke:rgb(246,147,147);stroke-width:0.01" />
<line x1="0.301717" y1="0.471754" x2="0.291703" y2="0.5122" style="stroke:rgb(246,147,147);stroke-width:0.01" />
<line x1="0.332149" y1="0.522213" x2="0.322135" y2="0.562659" style="stroke:rgb(246,147,147);stroke-width:0.01" />
<line x1="0.362581" y1="0.572672" x2="0.352567" y2="0.613118" style="stroke:rgb(246,147,147);stroke-width:0.01" />
<line x1="-0.337351" y1="-0.587888" x2="0.362581" y2="0.572672" style="stroke:rgb(246,147,147);stroke-width:0.01" />
<line x1="-0.377797" y1="-0.597902" x2="0.352567" y2="0.613118" style="stroke:rgb(246,147,147);stroke-width:0.01" />
<line x1="-0.377797" y1="-0.597902" x2="-0.337351" y2="-0.587888" style="stroke:rgb(246,147,147);stroke-width:0.01" />
<line x1="-0.347365" y1="-0.547443" x2="-0.306919" y2="-0.537429" style="stroke:rgb(246,147,147);stroke-width:0.01" />
<line x1="-0.316933" y1="-0.496984" x2="-0.276487" y2="-0.48697" style="stroke:rgb(246,147,147);stroke-width:0.01" />
<line x1="-0.286501" y1="-0.446525" x2="-0.246056" y2="-0.436511" style="stroke:rgb(246,147,147);stroke-width:0.01" />
<line x1="-0.256069" y1="-0.396065" x2="-0.215624" y2="-0.386052" style="stroke:rgb(246,147,147);stroke-width:0.01" />
<line x1="-0.225637" y1="-0.345606" x2="-0.185192" y2="-0.335593" style="stroke:rgb(246,147,147);stroke-width:0.01" />
<line x1="-0.195206" y1="-0.295147" x2="-0.15476" y2="-0.285133" style="stroke:rgb(246,147,147);stroke-width:0.01" />
<line x1="-0.164774" y1="-0.244688" x2="-0.124328" y2="-0.234674" style="stroke:rgb(246,147,147);stroke-width:0.01" />
<line x1="-0.134342" y1="-0.194229" x2="-0.0938965" y2="-0.184215" style="stroke:rgb(246,147,147);stroke-width:0.01" />
<line x1="-0.10391" y1="-0.14377" x2="-0.0634647" y2="-0.133756" style="stroke:rgb(246,147,147);stroke-width:0.01" />
<line x1="-0.0734784" y1="-0.0933104" x2="-0.0330329" y2="-0.0832967" style="stroke:rgb(246,147,147);stroke-width:0.01" />
<line x1="-0.0430466" y1="-0.0428512" x2="-0.00260111" y2="-0.0328375" style="stroke:rgb(246,147,147);stroke-width:0.01" />
<line x1="-0.0126148" y1="0.00760795" x2="0.0278307" y2="0.0176216" style="stroke:rgb(246,147,147);stroke-width:0.01" />
<line x1="0.017817" y1="0.0580671" x2="0.0582625" y2="0.0680808" style="stroke:rgb(246,147,147);stroke-width:0.01" />
<line x1="0.0482488" y1="0.108526" x2="0.0886943" y2="0.11854" style="stroke:rgb(246,147,147);stroke-width:0.01" />
<line x1="0.0786806" y1="0.158985" x2="0.119126" y2="0.168999" style="stroke:rgb(246,147,147);stroke-width:0.01" />
<line x1="0.109112" y1="0.209445" x2="0.149558" y2="0.219458" style="stroke:rgb(246,147,147);stroke-width:0.01" />
<line x1="0.139544" y1="0.259904" x2="0.17999" y2="0.269917" style="stroke:rgb(246,147,147);stroke-width:0.01" />
<line x1="0.169976" y1="0.310363" x2="0.210422" y2="0.320377" style="stroke:rgb(246,147,147);stroke-width:0.01" />
<line x1="0.200408" y1="0.360822" x2="0.240853" y2="0.370836" style="stroke:rgb(246,147,147);stroke-width:0.01" />
<line x1="0.23084" y1="0.411281" x2="0.271285" y2="0.421295" style="stroke:rgb(246,147,147);stroke-width:0.01" />
<line x1="0.261271" y1="0.46174" x2="0.301717" y2="0.471754" style="stroke:rgb(246,147,147);stroke-width:0.01" />
<line x1="0.291703" y1="0.5122" x2="0.332149" y2="0.522213" style="stroke:rgb(246,147,147);stroke-width:0.01" />
<line x1="0.322135" y1="0.562659" x2="0.362581" y2="0.572672" style="stroke:rgb(246,147,147);stroke-width:0.01" />
</g>
</svg>
