<svg xmlns="http://www.w3.org/2000/svg" viewBox="-1.5 -1.5 3 3">
<g transform="scale(1, -1)">
<path d="M-0.267703 -0.654639 L-0.229624 -0.637723 L0.257121 0.627142 L0.240206 0.665220 z " fill="rgb(245,195,195)" />
<path d="M-50191.772975 -21332.701212 L-50190.772975 -21332.701212 L-50190.772975 -21331.701212 L-50191.772975 -21331.701212  z" fill="none" stroke="rgb(128,128,128)" stroke-width="0.01" />
<line x1="-0.229624" y1="-0.637723" x2="0.257121" y2="0.627142" style="stroke:rgb(246,147,147);stroke-width:0.01" />
<line x1="-0.267703" y1="-0.654639" x2="0.240206" y2="0.66522" style="stroke:rgb(246,147,147);stroke-width:0.01" />
<line x1="-0.267703" y1="-0.654639" x2="-0.229624" y2="-0.637723" style="stroke:rgb(246,147,147);stroke-width:0.01" />
<line x1="-0.24654" y1="-0.599645" x2="-0.208461" y2="-0.582729" style="stroke:rgb(246,147,147);stroke-width:0.01" />
<line x1="-0.225377" y1="-0.544651" x2="-0.187299" y2="-0.527735" style="stroke:rgb(246,147,147);stroke-width:0.01" />
<line x1="-0.204214" y1="-0.489657" x2="-0.166136" y2="-0.472741" style="stroke:rgb(246,147,147);stroke-width:0.01" />
<line x1="-0.183051" y1="-0.434662" x2="-0.144973" y2="-0.417747" style="stroke:rgb(246,147,147);stroke-width:0.01" />
<line x1="-0.161889" y1="-0.379668" x2="-0.12381" y2="-0.362753" style="stroke:rgb(246,147,147);stroke-width:0.01" />
<line x1="-0.140726" y1="-0.324674" x2="-0.102647" y2="-0.307758" style="stroke:rgb(246,147,147);stroke-width:0.01" />
<line x1="-0.119563" y1="-0.26968" x2="-0.0814843" y2="-0.252764" style="stroke:rgb(246,147,147);stroke-width:0.01" />
<line x1="-0.0984" y1="-0.214686" x2="-0.0603215" y2="-0.19777" style="stroke:rgb(246,147,147);stroke-width:0.01" />
<line x1="-0.0772371" y1="-0.159692" x2="-0.0391586" y2="-0.142776" style="stroke:rgb(246,147,147);stroke-width:0.01" />
<line x1="-0.0560743" y1="-0.104698" x2="-0.0179958" y2="-0.0877819" style="stroke:rgb(246,147,147);stroke-width:0.01" />
<line x1="-0.0349114" y1="-0.0497034" x2="0.00316711" y2="-0.0327878" style="stroke:rgb(246,147,147);stroke-width:0.01" />
<line x1="-0.0137485" y1="0.00529071" x2="0.02433" y2="0.0222064" style="stroke:rgb(246,147,147);stroke-width:0.01" />
<line x1="0.00741432" y1="0.0602849" x2="0.0454928" y2="0.0772005" style="stroke:rgb(246,147,147);stroke-width:0.01" />
<line x1="0.0285772" y1="0.115279" x2="0.0666557" y2="0.132195" style="stroke:rgb(246,147,147);stroke-width:0.01" />
<line x1="0.04974" y1="0.170273" x2="0.0878185" y2="0.187189" style="stroke:rgb(246,147,147);stroke-width:0.01" />
<line x1="0.0709029" y1="0.225267" x2="0.108981" y2="0.242183" style="stroke:rgb(246,147,147);stroke-width:0.01" />
<line x1="0.0920658" y1="0.280261" x2="0.130144" y2="0.297177" style="stroke:rgb(246,147,147);stroke-width:0.01" />
<line x1="0.113229" y1="0.335256" x2="0.151307" y2="0.352171" style="stroke:rgb(246,147,147);stroke-width:0.01" />
<line x1="0.134391" y1="0.39025" x2="0.17247" y2="0.407165" style="stroke:rgb(246,147,147);stroke-width:0.01" />
<line x1="0.155554" y1="0.445244" x2="0.193633" y2="0.462159" style="stroke:rgb(246,147,147);stroke-width:0.01" />
<line x1="0.176717" y1="0.500238" x2="0.214796" y2="0.517154" style="stroke:rgb(246,147,147);stroke-width:0.01" />
<line x1="0.19788" y1="0.555232" x2="0.235959" y2="0.572148" style="stroke:rgb(246,147,147);stroke-width:0.01" />
<line x1="0.219043" y1="0.610226" x2="0.257121" y2="0.627142" style="stroke:rgb(246,147,147);stroke-width:0.01" />
<line x1="-0.229624" y1="-0.637723" x2="-0.24654" y2="-0.599645" style="stroke:rgb(246,147,147);stroke-width:0.01" />
<line x1="-0.208461" y1="-0.582729" x2="-0.225377" y2="-0.544651" style="stroke:rgb(246,147,147);stroke-width:0.01" />
<line x1="-0.187299" y1="-0.527735" x2="-0.204214" y2="-0.489657" style="stroke:rgb(246,147,147);stroke-width:0.01" />
<line x1="-0.166136" y1="-0.472741" x2="-0.183051" y2="-0.434662" style="stroke:rgb(246,147,147);stroke-width:0.01" />
<line x1="-0.144973" y1="-0.417747" x2="-0.161889" y2="-0.379668" style="stroke:rgb(246,147,147);stroke-width:0.01" />
<line x1="-0.12381" y1="-0.362753" x2="-0.140726" y2="-0.324674" style="stroke:rgb(246,147,147);stroke-width:0.01" />
<line x1="-0.102647" y1="-0.307758" x2="-0.119563" y2="-0.26968" style="stroke:rgb(246,147,147);stroke-width:0.01" />
<line x1="-0.0814843" y1="-0.252764" x2="-0.0984" y2="-0.214686" style="stroke:rgb(246,147,147);stroke-width:0.01" />
<line x1="-0.0603215" y1="-0.19777" x2="-0.0772371" y2="-0.159692" style="stroke:rgb(246,147,147);stroke-width:0.01" />
<line x1="-0.0391586" y1="-0.142776" x2="-0.0560743" y2="-0.104698" style="stroke:rgb(246,147,147);stroke-width:0.01" />
<line x1="-0.0179958" y1="-0.0877819" x2="-0.0349114" y2="-0.0497034" style="stroke:rgb(246,147,147);stroke-width:0.01" />
<line x1="0.00316711" y1="-0.0327878" x2="-0.0137485" y2="0.00529071" style="stroke:rgb(246,147,147);stroke-width:0.01" />
<line x1="0.02433" y1="0.0222064" x2="0.00741432" y2="0.0602849" style="stroke:rgb(246,147,147);stroke-width:0.01" />
<line x1="0.0454928" y1="0.0772005" x2="0.0285772" y2="0.115279" style="stroke:rgb(246,147,147);stroke-width:0.01" />
<line x1="0.0666557" y1="0.132195" x2="0.04974" y2="0.170273" style="stroke:rgb(246,147,147);stroke-width:0.01" />
<line x1="0.0878185" y1="0.187189" x2="0.0709029" y2="0.225267" style="stroke:rgb(246,147,147);stroke-width:0.01" />
<line x1="0.108981" y1="0.242183" x2="0.0920658" y2="0.280261" style="stroke:rgb(246,147,147);stroke-width:0.01" />
<line x1="0.130144" y1="0.297177" x2="0.113229" y2="0.335256" style="stroke:rgb(246,147,147);stroke-width:0.01" />
<line x1="0.151307" y1="0.352171" x2="0.134391" y2="0.39025" style="stroke:rgb(246,147,147);stroke-width:0.01" />
<line x1="0.17247" y1="0.407165" x2="0.155554" y2="0.445244" style="stroke:rgb(246,147,147);stroke-width:0.01" />
<line x1="0.193633" y1="0.462159" x2="0.176717" y2="0.500238" style="stroke:rgb(246,147,147);stroke-width:0.01" />
<line x1="0.214796" y1="0.517154" x2="0.19788" y2="0.555232" style="stroke:rgb(246,147,147);stroke-width:0.01" />
<line x1="0.235959" y1="0.572148" x2="0.219043" y2="0.610226" style="stroke:rgb(246,147,147);stroke-width:0.01" />
<line x1="0.257121" y1="0.627142" x2="0.240206" y2="0.66522" style="stroke:rgb(246,147,147);stroke-width:0.01" />
</g>
</svg>
