<svg xmlns="http://www.w3.org/2000/svg" viewBox="-1.5 -1.5 3 3">
<g transform="scale(1, -1)">
<path d="M-0.492929 -0.507186 L-0.451288 -0.505724 L0.472840 0.485635 L0.471378 0.527276 z " fill="rgb(245,195,195)" />
<path d="M27951.314763 -34128.545647 L27952.314763 -34128.545647 L27952.314763 -34127.545647 L27951.314763 -34127.545647  z" fill="none" stroke="rgb(128,128,128)" stroke-width="0.01" />
<line x1="-0.451288" y1="-0.505724" x2="-0.45275" y2="-0.464083" style="stroke:rgb(246,147,147);stroke-width:0.01" />
<line x1="-0.411109" y1="-0.462622" x2="-0.412571" y2="-0.420981" style="stroke:rgb(246,147,147);stroke-width:0.01" />
<line x1="-0.370929" y1="-0.419519" x2="-0.372391" y2="-0.377878" style="stroke:rgb(246,147,147);stroke-width:0.01" />
<line x1="-0.33075" y1="-0.376417" x2="-0.332212" y2="-0.334776" style="stroke:rgb(246,147,147);stroke-width:0.01" />
<line x1="-0.290571" y1="-0.333314" x2="-0.292032" y2="-0.291673" style="stroke:rgb(246,147,147);stroke-width:0.01" />
<line x1="-0.250391" y1="-0.290212" x2="-0.251853" y2="-0.248571" style="stroke:rgb(246,147,147);stroke-width:0.01" />
<line x1="-0.210212" y1="-0.247109" x2="-0.211673" y2="-0.205468" style="stroke:rgb(246,147,147);stroke-width:0.01" />
<line x1="-0.170032" y1="-0.204006" x2="-0.171494" y2="-0.162365" style="stroke:rgb(246,147,147);stroke-width:0.01" />
<line x1="-0.129853" y1="-0.160904" x2="-0.131314" y2="-0.119263" style="stroke:rgb(246,147,147);stroke-width:0.01" />
<line x1="-0.0896731" y1="-0.117801" x2="-0.0911346" y2="-0.0761603" style="stroke:rgb(246,147,147);stroke-width:0.01" />
<line x1="-0.0494936" y1="-0.0746987" x2="-0.0509551" y2="-0.0330577" style="stroke:rgb(246,147,147);stroke-width:0.01" />
<line x1="-0.0093141" y1="-0.0315962" x2="-0.0107756" y2="0.0100449" style="stroke:rgb(246,147,147);stroke-width:0.01" />
<line x1="0.0308654" y1="0.0115064" x2="0.0294038" y2="0.0531474" style="stroke:rgb(246,147,147);stroke-width:0.01" />
<line x1="0.0710449" y1="0.054609" x2="0.0695833" y2="0.09625" style="stroke:rgb(246,147,147);stroke-width:0.01" />
<line x1="0.111224" y1="0.0977115" x2="0.109763" y2="0.139353" style="stroke:rgb(246,147,147);stroke-width:0.01" />
<line x1="0.151404" y1="0.140814" x2="0.149942" y2="0.182455" style="stroke:rgb(246,147,147);stroke-width:0.01" />
<line x1="0.191583" y1="0.183917" x2="0.190122" y2="0.225558" style="stroke:rgb(246,147,147);stroke-width:0.01" />
<line x1="0.231763" y1="0.227019" x2="0.230301" y2="0.26866" style="stroke:rgb(246,147,147);stroke-width:0.01" />
<line x1="0.271942" y1="0.270122" x2="0.270481" y2="0.311763" style="stroke:rgb(246,147,147);stroke-width:0.01" />
<line x1="0.312122" y1="0.313224" x2="0.31066" y2="0.354865" style="stroke:rgb(246,147,147);stroke-width:0.01" />
<line x1="0.352301" y1="0.356327" x2="0.35084" y2="0.397968" style="stroke:rgb(246,147,147);stroke-width:0.01" />
<line x1="0.392481" y1="0.399429" x2="0.391019" y2="0.441071" style="stroke:rgb(246,147,147);stroke-width:0.01" />
<line x1="0.43266" y1="0.442532" x2="0.431199" y2="0.484173" style="stroke:rgb(246,147,147);stroke-width:0.01" />
<line x1="0.47284" y1="0.485635" x2="0.471378" y2="0.527276" style="stroke:rgb(246,147,147);stroke-width:0.01" />
<line x1="-0.451288" y1="-0.505724" x2="0.47284" y2="0.485635" style="stroke:rgb(246,147,147);stroke-width:0.01" />
<line x1="-0.492929" y1="-0.507186" x2="0.471378" y2="0.527276" style="stroke:rgb(246,147,147);stroke-width:0.01" />
<line x1="-0.492929" y1="-0.507186" x2="-0.451288" y2="-0.505724" style="stroke:rgb(246,147,147);stroke-width:0.01" />
<line x1="-0.45275" y1="-0.464083" x2="-0.411109" y2="-0.462622" style="stroke:rgb(246,147,147);stroke-width:0.01" />
<line x1="-0.412571" y1="-0.420981" x2="-0.370929" y2="-0.419519" style="stroke:rgb(246,147,147);stroke-width:0.01" />
<line x1="-0.372391" y1="-0.377878" x2="-0.33075" y2="-0.376417" style="stroke:rgb(246,147,147);stroke-width:0.01" />
<line x1="-0.332212" y1="-0.334776" x2="-0.290571" y2="-0.333314" style="stroke:rgb(246,147,147);stroke-width:0.01" />
<line x1="-0.292032" y1="-0.291673" x2="-0.250391" y2="-0.290212" style="stroke:rgb(246,147,147);stroke-width:0.01" />
<line x1="-0.251853" y1="-0.248571" x2="-0.210212" y2="-0.247109" style="stroke:rgb(246,147,147);stroke-width:0.01" />
<line x1="-0.211673" y1="-0.205468" x2="-0.170032" y2="-0.204006" style="stroke:rgb(246,147,147);stroke-width:0.01" />
<line x1="-0.171494" y1="-0.162365" x2="-0.129853" y2="-0.160904" style="stroke:rgb(246,147,147);stroke-width:0.01" />
<line x1="-0.131314" y1="-0.119263" x2="-0.0896731" y2="-0.117801" style="stroke:rgb(246,147,147);stroke-width:0.01" />
<line x1="-0.0911346" y1="-0.0761603" x2="-0.0494936" y2="-0.0746987" style="stroke:rgb(246,147,147);stroke-width:0.01" />
<line x1="-0.0509551" y1="-0.0330577" x2="-0.0093141" y2="-0.0315962" style="stroke:rgb(246,147,147);stroke-width:0.01" />
<line x1="-0.0107756" y1="0.0100449" x2="0.0308654" y2="0.0115064" style="stroke:rgb(246,147,147);stroke-width:0.01" />
<line x1="0.0294038" y1="0.0531474" x2="0.0710449" y2="0.054609" style="stroke:rgb(246,147,147);stroke-width:0.01" />
<line x1="0.0695833" y1="0.09625" x2="0.111224" y2="0.0977115" style="stroke:rgb(246,147,147);stroke-width:0.01" />
<line x1="0.109763" y1="0.139353" x2="0.151404" y2="0.140814" style="stroke:rgb(246,147,147);stroke-width:0.01" />
<line x1="0.149942" y1="0.182455" x2="0.191583" y2="0.183917" style="stroke:rgb(246,147,147);stroke-width:0.01" />
<line x1="0.190122" y1="0.225558" x2="0.231763" y2="0.227019" style="stroke:rgb(246,147,147);stroke-width:0.01" />
<line x1="0.230301" y1="0.26866" x2="0.271942" y2="0.270122" style="stroke:rgb(246,147,147);stroke-width:0.01" />
<line x1="0.270481" y1="0.311763" x2="0.312122" y2="0.313224" style="stroke:rgb(246,147,147);stroke-width:0.01" />
<line x1="0.31066" y1="0.354865" x2="0.352301" y2="0.356327" style="stroke:rgb(246,147,147);stroke-width:0.01" />
<line x1="0.35084" y1="0.397968" x2="0.392481" y2="0.399429" style="stroke:rgb(246,147,147);stroke-width:0.01" />
<line x1="0.391019" y1="0.441071" x2="0.43266" y2="0.442532" style="stroke:rgb(246,147,147);stroke-width:0.01" />
<line x1="0.431199" y1="0.484173" x2="0.47284" y2="0.485635" style="stroke:rgb(246,147,147);stroke-width:0.01" />
</g>
</svg>
