<svg xmlns="http://www.w3.org/2000/svg" viewBox="-1.5 -1.5 3 3">
<g transform="scale(1, -1)">
<path d="M-0.014224 -0.707117 L0.015218 -0.677633 L0.014245 0.677654 L-0.015239 0.707096 z " fill="rgb(245,195,195)" />
<path d="M56777.369025 -14110.572599 L56778.369025 -14110.572599 L56778.369025 -14109.572599 L56777.369025 -14109.572599  z" fill="none" stroke="rgb(128,128,128)" stroke-width="0.01" />
<line x1="0.0152179" y1="-0.677633" x2="-0.0142661" y2="-0.648192" style="stroke:rgb(246,147,147);stroke-width:0.01" />
<line x1="0.0151755" y1="-0.618708" x2="-0.0143084" y2="-0.589266" style="stroke:rgb(246,147,147);stroke-width:0.01" />
<line x1="0.0151332" y1="-0.559782" x2="-0.0143507" y2="-0.530341" style="stroke:rgb(246,147,147);stroke-width:0.01" />
<line x1="0.0150909" y1="-0.500857" x2="-0.014393" y2="-0.471415" style="stroke:rgb(246,147,147);stroke-width:0.01" />
<line x1="0.0150486" y1="-0.441931" x2="-0.0144353" y2="-0.412489" style="stroke:rgb(246,147,147);stroke-width:0.01" />
<line x1="0.0150063" y1="-0.383005" x2="-0.0144776" y2="-0.353564" style="stroke:rgb(246,147,147);stroke-width:0.01" />
<line x1="0.014964" y1="-0.32408" x2="-0.0145199" y2="-0.294638" style="stroke:rgb(246,147,147);stroke-width:0.01" />
<line x1="0.0149217" y1="-0.265154" x2="-0.0145622" y2="-0.235713" style="stroke:rgb(246,147,147);stroke-width:0.01" />
<line x1="0.0148794" y1="-0.206229" x2="-0.0146045" y2="-0.176787" style="stroke:rgb(246,147,147);stroke-width:0.01" />
<line x1="0.0148371" y1="-0.147303" x2="-0.0146468" y2="-0.117862" style="stroke:rgb(246,147,147);stroke-width:0.01" />
<line x1="0.0147948" y1="-0.0883777" x2="-0.0146891" y2="-0.0589361" style="stroke:rgb(246,147,147);stroke-width:0.01" />
<line x1="0.0147525" y1="-0.0294522" x2="-0.0147314" y2="-1.05753e-05" style="stroke:rgb(246,147,147);stroke-width:0.01" />
<line x1="0.0147102" y1="0.0294734" x2="-0.0147737" y2="0.058915" style="stroke:rgb(246,147,147);stroke-width:0.01" />
<line x1="0.0146679" y1="0.0883989" x2="-0.014816" y2="0.117841" style="stroke:rgb(246,147,147);stroke-width:0.01" />
<line x1="0.0146256" y1="0.147324" x2="-0.0148583" y2="0.176766" style="stroke:rgb(246,147,147);stroke-width:0.01" />
<line x1="0.0145833" y1="0.20625" x2="-0.0149006" y2="0.235692" style="stroke:rgb(246,147,147);stroke-width:0.01" />
<line x1="0.014541" y1="0.265176" x2="-0.0149429" y2="0.294617" style="stroke:rgb(246,147,147);stroke-width:0.01" />
<line x1="0.0144987" y1="0.324101" x2="-0.0149852" y2="0.353543" style="stroke:rgb(246,147,147);stroke-width:0.01" />
<line x1="0.0144564" y1="0.383027" x2="-0.0150275" y2="0.412468" style="stroke:rgb(246,147,147);stroke-width:0.01" />
<line x1="0.0144141" y1="0.441952" x2="-0.0150698" y2="0.471394" style="stroke:rgb(246,147,147);stroke-width:0.01" />
<line x1="0.0143718" y1="0.500878" x2="-0.0151121" y2="0.530319" style="stroke:rgb(246,147,147);stroke-width:0.01" />
<line x1="0.0143295" y1="0.559803" x2="-0.0151544" y2="0.589245" style="stroke:rgb(246,147,147);stroke-width:0.01" />
<line x1="0.0142872" y1="0.618729" x2="-0.0151967" y2="0.64817" style="stroke:rgb(246,147,147);stroke-width:0.01" />
<line x1="0.0142449" y1="0.677654" x2="-0.015239" y2="0.707096" style="stroke:rgb(246,147,147);stroke-width:0.01" />
<line x1="-0.0142238" y1="-0.707117" x2="-0.015239" y2="0.707096" style="stroke:rgb(246,147,147);stroke-width:0.01" />
<line x1="0.0152179" y1="-0.677633" x2="0.0142449" y2="0.677654" style="stroke:rgb(246,147,147);stroke-width:0.01" />
<line x1="-0.0142238" y1="-0.707117" x2="0.0152179" y2="-0.677633" style="stroke:rgb(246,147,147);stroke-width:0.01" />
<line x1="-0.0142661" y1="-0.648192" x2="0.0151755" y2="-0.618708" style="stroke:rgb(246,147,147);stroke-width:0.01" />
<line x1="-0.0143084" y1="-0.589266" x2="0.0151332" y2="-0.559782" style="stroke:rgb(246,147,147);stroke-width:0.01" />
<line x1="-0.0143507" y1="-0.530341" x2="0.0150909" y2="-0.500857" style="stroke:rgb(246,147,147);stroke-width:0.01" />
<line x1="-0.014393" y1="-0.471415" x2="0.0150486" y2="-0.441931" style="stroke:rgb(246,147,147);stroke-width:0.01" />
<line x1="-0.0144353" y1="-0.412489" x2="0.0150063" y2="-0.383005" style="stroke:rgb(246,147,147);stroke-width:0.01" />
<line x1="-0.0144776" y1="-0.353564" x2="0.014964" y2="-0.32408" style="stroke:rgb(246,147,147);stroke-width:0.01" />
<line x1="-0.0145199" y1="-0.294638" x2="0.0149217" y2="-0.265154" style="stroke:rgb(246,147,147);stroke-width:0.01" />
<line x1="-0.0145622" y1="-0.235713" x2="0.0148794" y2="-0.206229" style="stroke:rgb(246,147,147);stroke-width:0.01" />
<line x1="-0.0146045" y1="-0.176787" x2="0.0148371" y2="-0.147303" style="stroke:rgb(246,147,147);stroke-width:0.01" />
<line x1="-0.0146468" y1="-0.117862" x2="0.0147948" y2="-0.0883777" style="stroke:rgb(246,147,147);stroke-width:0.01" />
<line x1="-0.0146891" y1="-0.0589361" x2="0.0147525" y2="-0.0294522" style="stroke:rgb(246,147,147);stroke-width:0.01" />
<line x1="-0.0147314" y1="-1.05753e-05" x2="0.0147102" y2="0.0294734" style="stroke:rgb(246,147,147);stroke-width:0.01" />
<line x1="-0.0147737" y1="0.058915" x2="0.0146679" y2="0.0883989" style="stroke:rgb(246,147,147);stroke-width:0.01" />
<line x1="-0.014816" y1="0.117841" x2="0.0146256" y2="0.147324" style="stroke:rgb(246,147,147);stroke-width:0.01" />
<line x1="-0.0148583" y1="0.176766" x2="0.0145833" y2="0.20625" style="stroke:rgb(246,147,147);stroke-width:0.01" />
<line x1="-0.0149006" y1="0.235692" x2="0.014541" y2="0.265176" style="stroke:rgb(246,147,147);stroke-width:0.01" />
<line x1="-0.0149429" y1="0.294617" x2="0.0144987" y2="0.324101" style="stroke:rgb(246,147,147);stroke-width:0.01" />
<line x1="-0.0149852" y1="0.353543" x2="0.0144564" y2="0.383027" style="stroke:rgb(246,147,147);stroke-width:0.01" />
<line x1="-0.0150275" y1="0.412468" x2="0.0144141" y2="0.441952" style="stroke:rgb(246,147,147);stroke-width:0.01" />
<line x1="-0.0150698" y1="0.471394" x2="0.0143718" y2="0.500878" style="stroke:rgb(246,147,147);stroke-width:0.01" />
<line x1="-0.0151121" y1="0.530319" x2="0.0143295" y2="0.559803" style="stroke:rgb(246,147,147);stroke-width:0.01" />
<line x1="-0.0151544" y1="0.589245" x2="0.0142872" y2="0.618729" style="stroke:rgb(246,147,147);stroke-width:0.01" />
<line x1="-0.0151967" y1="0.64817" x2="0.0142449" y2="0.677654" style="stroke:rgb(246,147,147);stroke-width:0.01" />
</g>
</svg>
