<svg xmlns="http://www.w3.org/2000/svg" viewBox="-1.5 -1.5 3 3">
<g transform="scale(1, -1)">
<path d="M0.222080 -0.427271 L0.222080 -0.113671 L-0.052160 0.160569 L-0.052160 0.252729 L-0.175040 0.252729 L-0.175040 0.052729 L-0.033920 0.052729 L0.022080 -0.003271 L0.022080 -0.227271 z " fill="rgb(245,195,195)" />
<path d="M-0.297920 0.052729 L0.702080 0.052729 L0.702080 1.052729 L-0.297920 1.052729  z" fill="none" stroke="rgb(128,128,128)" stroke-width="0.01" />
<line x1="0.02208" y1="-0.227271" x2="0.22208" y2="-0.227271" style="stroke:rgb(246,147,147);stroke-width:0.01" />
<line x1="0.18368" y1="-0.113671" x2="0.22208" y2="-0.113671" style="stroke:rgb(246,147,147);stroke-width:0.01" />
<line x1="0.09408" y1="-0.0752711" x2="0.18368" y2="-0.0752711" style="stroke:rgb(246,147,147);stroke-width:0.01" />
<line x1="0.05568" y1="0.0143289" x2="0.09408" y2="0.0143289" style="stroke:rgb(246,147,147);stroke-width:0.01" />
<line x1="-0.17504" y1="0.0527289" x2="0.05568" y2="0.0527289" style="stroke:rgb(246,147,147);stroke-width:0.01" />
<line x1="-0.17504" y1="0.0527289" x2="-0.17504" y2="0.252729" style="stroke:rgb(246,147,147);stroke-width:0.01" />
<line x1="-0.14432" y1="0.214329" x2="-0.14432" y2="0.252729" style="stroke:rgb(246,147,147);stroke-width:0.01" />
<line x1="-0.10592" y1="0.124729" x2="-0.10592" y2="0.214329" style="stroke:rgb(246,147,147);stroke-width:0.01" />
<line x1="-0.05216" y1="0.0527289" x2="-0.05216" y2="0.252729" style="stroke:rgb(246,147,147);stroke-width:0.01" />
<line x1="-0.01632" y1="0.0863289" x2="-0.01632" y2="0.124729" style="stroke:rgb(246,147,147);stroke-width:0.01" />
<line x1="0.02208" y1="-0.227271" x2="0.02208" y2="0.0863289" style="stroke:rgb(246,147,147);stroke-width:0.01" />
<line x1="0.05568" y1="0.0143289" x2="0.05568" y2="0.0527289" style="stroke:rgb(246,147,147);stroke-width:0.01" />
<line x1="0.09408" y1="-0.0752711" x2="0.09408" y2="0.0143289" style="stroke:rgb(246,147,147);stroke-width:0.01" />
<line x1="0.18368" y1="-0.113671" x2="0.18368" y2="-0.0752711" style="stroke:rgb(246,147,147);stroke-width:0.01" />
<line x1="0.22208" y1="-0.427271" x2="0.22208" y2="-0.113671" style="stroke:rgb(246,147,147);stroke-width:0.01" />
<line x1="0.22208" y1="-0.427271" x2="0.02208" y2="-0.227271" style="stroke:rgb(246,147,147);stroke-width:0.01" />
<line x1="-0.01632" y1="0.0863289" x2="0.02208" y2="0.0863289" style="stroke:rgb(246,147,147);stroke-width:0.01" />
<line x1="-0.10592" y1="0.124729" x2="-0.01632" y2="0.124729" style="stroke:rgb(246,147,147);stroke-width:0.01" />
<line x1="0.09408" y1="-0.0752711" x2="-0.10592" y2="0.124729" style="stroke:rgb(246,147,147);stroke-width:0.01" />
<line x1="0.18368" y1="-0.113671" x2="-0.14432" y2="0.214329" style="stroke:rgb(246,147,147);stroke-width:0.01" />
<line x1="-0.14432" y1="0.214329" x2="-0.10592" y2="0.214329" style="stroke:rgb(246,147,147);stroke-width:0.01" />
<line x1="0.22208" y1="-0.113671" x2="-0.14432" y2="0.252729" style="stroke:rgb(246,147,147);stroke-width:0.01" />
<line x1="-0.17504" y1="0.252729" x2="-0.05216" y2="0.252729" style="stroke:rgb(246,147,147);stroke-width:0.01" />
</g>
</svg>
