<svg xmlns="http://www.w3.org/2000/svg" viewBox="-1.5 -1.5 3 3">
<g transform="scale(1, -1)">
<path d="M-0.416667 -0.458333 L0.083333 -0.458333 L0.333333 -0.208333 L0.333333 0.041667 L0.083333 0.541667 L-0.416667 0.541667 z " fill="rgb(245,195,195)" />
<path d="M-12351235123512451072.000000 -4523732452352352256.000000 L-12351235123512451072.000000 -4523732452352352256.000000 L-12351235123512451072.000000 -4523732452352352256.000000 L-12351235123512451072.000000 -4523732452352352256.000000  z" fill="none" stroke="rgb(128,128,128)" stroke-width="0.01" />
<line x1="-0.0666667" y1="0.341667" x2="0.0833333" y2="0.541667" style="stroke:rgb(246,147,147);stroke-width:0.01" />
<line x1="0.0833333" y1="-0.458333" x2="0.333333" y2="-0.208333" style="stroke:rgb(246,147,147);stroke-width:0.01" />
<line x1="-0.416667" y1="-0.458333" x2="-0.416667" y2="0.541667" style="stroke:rgb(246,147,147);stroke-width:0.01" />
<line x1="-0.166667" y1="-0.458333" x2="-0.166667" y2="0.541667" style="stroke:rgb(246,147,147);stroke-width:0.01" />
<line x1="0.0833333" y1="-0.458333" x2="0.0833333" y2="-0.208333" style="stroke:rgb(246,147,147);stroke-width:0.01" />
<line x1="0.333333" y1="-0.208333" x2="0.333333" y2="0.0416667" style="stroke:rgb(246,147,147);stroke-width:0.01" />
<line x1="-0.416667" y1="-0.458333" x2="0.0833333" y2="-0.458333" style="stroke:rgb(246,147,147);stroke-width:0.01" />
<line x1="0.0833333" y1="-0.208333" x2="0.333333" y2="-0.208333" style="stroke:rgb(246,147,147);stroke-width:0.01" />
<line x1="-0.416667" y1="0.541667" x2="0.0833333" y2="0.541667" style="stroke:rgb(246,147,147);stroke-width:0.01" />
<line x1="0.333333" y1="0.0416667" x2="0.0833333" y2="0.541667" style="stroke:rgb(246,147,147);stroke-width:0.01" />
<line x1="0.333333" y1="0.0416667" x2="-0.0666667" y2="0.341667" style="stroke:rgb(246,147,147);stroke-width:0.01" />
</g>
</svg>
