<svg xmlns="http://www.w3.org/2000/svg" viewBox="-1.5 -1.5 3 3">
<g transform="scale(1, -1)">
<path d="M0.118481 -0.554722 L0.121739 -0.489925 L0.122627 -0.489718 L0.148722 0.548875 L-0.096269 0.583722 L-0.110637 0.482715 L-0.197503 0.462430 L-0.107160 -0.543376 z " fill="rgb(245,195,195)" />
<path d="M0.123503 -0.554848 L1.123503 -0.554848 L1.123503 0.445152 L0.123503 0.445152  z" fill="none" stroke="rgb(128,128,128)" stroke-width="0.01" />
<line x1="-0.00373354" y1="-0.385352" x2="-0.164997" y2="0.100537" style="stroke:rgb(246,147,147);stroke-width:0.01" />
<line x1="-0.10716" y1="-0.543376" x2="-0.197503" y2="0.46243" style="stroke:rgb(246,147,147);stroke-width:0.01" />
<line x1="0.118481" y1="-0.554722" x2="-0.10716" y2="-0.543376" style="stroke:rgb(246,147,147);stroke-width:0.01" />
<line x1="0.123503" y1="-0.454848" x2="0.123503" y2="0.445152" style="stroke:rgb(246,147,147);stroke-width:0.01" />
<line x1="0.122627" y1="-0.489718" x2="0.148722" y2="0.548875" style="stroke:rgb(246,147,147);stroke-width:0.01" />
<line x1="0.118481" y1="-0.554722" x2="0.123503" y2="-0.454848" style="stroke:rgb(246,147,147);stroke-width:0.01" />
<line x1="0.0379439" y1="-0.465399" x2="0.133742" y2="0.547507" style="stroke:rgb(246,147,147);stroke-width:0.01" />
<line x1="-0.164997" y1="0.100537" x2="-0.0962693" y2="0.583722" style="stroke:rgb(246,147,147);stroke-width:0.01" />
<line x1="0.122627" y1="-0.489718" x2="0.0379439" y2="-0.465399" style="stroke:rgb(246,147,147);stroke-width:0.01" />
<line x1="-0.10716" y1="-0.543376" x2="0.122627" y2="-0.489718" style="stroke:rgb(246,147,147);stroke-width:0.01" />
<line x1="0.123434" y1="-0.457594" x2="-0.117949" y2="-0.42326" style="stroke:rgb(246,147,147);stroke-width:0.01" />
<line x1="0.0379439" y1="-0.465399" x2="0.123434" y2="-0.457594" style="stroke:rgb(246,147,147);stroke-width:0.01" />
<line x1="-0.117949" y1="-0.42326" x2="-0.00373354" y2="-0.385352" style="stroke:rgb(246,147,147);stroke-width:0.01" />
<line x1="0.146116" y1="0.445152" x2="-0.197503" y2="0.46243" style="stroke:rgb(246,147,147);stroke-width:0.01" />
<line x1="0.123503" y1="0.445152" x2="0.146116" y2="0.445152" style="stroke:rgb(246,147,147);stroke-width:0.01" />
<line x1="0.148581" y1="0.543246" x2="0.133742" y2="0.547507" style="stroke:rgb(246,147,147);stroke-width:0.01" />
<line x1="-0.197503" y1="0.46243" x2="0.148581" y2="0.543246" style="stroke:rgb(246,147,147);stroke-width:0.01" />
<line x1="0.148722" y1="0.548875" x2="-0.0962693" y2="0.583722" style="stroke:rgb(246,147,147);stroke-width:0.01" />
<line x1="0.133742" y1="0.547507" x2="0.148722" y2="0.548875" style="stroke:rgb(246,147,147);stroke-width:0.01" />
</g>
</svg>
