<svg xmlns="http://www.w3.org/2000/svg" viewBox="-1.5 -1.5 3 3">
<g transform="scale(1, -1)">
<path d="M0.327891 -0.302738 L0.387103 -0.131991 L0.408296 -0.134273 L0.473978 0.118528 L0.491711 0.169663 L0.489488 0.178221 L-0.563743 0.178221 L-0.616912 0.024901 L-0.496039 -0.017015 L-0.488878 -0.037667 L-0.412895 -0.045848 z " fill="rgb(245,195,195)" />
<path d="M1.163044 -0.071779 L2.163044 -0.071779 L2.163044 0.928221 L1.163044 0.928221  z" fill="none" stroke="rgb(128,128,128)" stroke-width="0.01" />
<line x1="-0.364145" y1="-0.0510977" x2="-0.438364" y2="0.0450322" style="stroke:rgb(246,147,147);stroke-width:0.01" />
<line x1="-0.488878" y1="-0.0376665" x2="-0.563743" y2="0.178221" style="stroke:rgb(246,147,147);stroke-width:0.01" />
<line x1="0.197164" y1="-0.111539" x2="-0.0462964" y2="0.178221" style="stroke:rgb(246,147,147);stroke-width:0.01" />
<line x1="0.1617" y1="-0.10772" x2="0.12782" y2="-0.0610241" style="stroke:rgb(246,147,147);stroke-width:0.01" />
<line x1="-0.0648855" y1="0.156096" x2="-0.0912172" y2="0.178221" style="stroke:rgb(246,147,147);stroke-width:0.01" />
<line x1="0.327891" y1="-0.302738" x2="-0.616912" y2="0.0249007" style="stroke:rgb(246,147,147);stroke-width:0.01" />
<line x1="0.402415" y1="0.0469298" x2="0.331992" y2="0.0871137" style="stroke:rgb(246,147,147);stroke-width:0.01" />
<line x1="0.491711" y1="0.169663" x2="0.482122" y2="0.178221" style="stroke:rgb(246,147,147);stroke-width:0.01" />
<line x1="0.491711" y1="0.169663" x2="0.489488" y2="0.178221" style="stroke:rgb(246,147,147);stroke-width:0.01" />
<line x1="0.408296" y1="-0.134273" x2="-0.488878" y2="-0.0376665" style="stroke:rgb(246,147,147);stroke-width:0.01" />
<line x1="0.402415" y1="0.0469298" x2="0.399363" y2="0.0907939" style="stroke:rgb(246,147,147);stroke-width:0.01" />
<line x1="0.408296" y1="-0.134273" x2="0.399363" y2="0.0907939" style="stroke:rgb(246,147,147);stroke-width:0.01" />
<line x1="0.408296" y1="-0.134273" x2="0.489488" y2="0.178221" style="stroke:rgb(246,147,147);stroke-width:0.01" />
<line x1="-0.438364" y1="0.0450322" x2="0.399363" y2="0.0907939" style="stroke:rgb(246,147,147);stroke-width:0.01" />
<line x1="0.327891" y1="-0.302738" x2="0.491711" y2="0.169663" style="stroke:rgb(246,147,147);stroke-width:0.01" />
<line x1="-0.563743" y1="0.178221" x2="0.489488" y2="0.178221" style="stroke:rgb(246,147,147);stroke-width:0.01" />
<line x1="0.197164" y1="-0.111539" x2="0.402415" y2="0.0469298" style="stroke:rgb(246,147,147);stroke-width:0.01" />
<line x1="0.1617" y1="-0.10772" x2="0.482122" y2="0.178221" style="stroke:rgb(246,147,147);stroke-width:0.01" />
<line x1="0.12782" y1="-0.0610241" x2="0.331992" y2="0.0871137" style="stroke:rgb(246,147,147);stroke-width:0.01" />
<line x1="-0.616912" y1="0.0249007" x2="-0.563743" y2="0.178221" style="stroke:rgb(246,147,147);stroke-width:0.01" />
<line x1="-0.0648855" y1="0.156096" x2="-0.0462964" y2="0.178221" style="stroke:rgb(246,147,147);stroke-width:0.01" />
<line x1="-0.488878" y1="-0.0376665" x2="-0.438364" y2="0.0450322" style="stroke:rgb(246,147,147);stroke-width:0.01" />
<line x1="-0.364145" y1="-0.0510977" x2="-0.0912172" y2="0.178221" style="stroke:rgb(246,147,147);stroke-width:0.01" />
</g>
</svg>
