<svg xmlns="http://www.w3.org/2000/svg" viewBox="-1.5 -1.5 3 3">
<g transform="scale(1, -1)">
<path d="M-0.207471 -0.193678 L0.075287 -0.186782 L0.144253 -0.114368 L0.071839 -0.045402 L0.209770 0.099425 L0.064943 0.237356 L-0.076437 0.233908 L-0.214368 0.089080 z M0.002874 -0.117816 L-0.069540 -0.048851 L-0.072989 0.092529 L0.071839 -0.045402 z " fill="rgb(245,195,195)" />
<path d="M-0.076437 0.089080 L0.923563 0.089080 L0.923563 1.089080 L-0.076437 1.089080  z" fill="none" stroke="rgb(128,128,128)" stroke-width="0.01" />
<line x1="-0.207471" y1="-0.193678" x2="0.0752874" y2="-0.186782" style="stroke:rgb(246,147,147);stroke-width:0.01" />
<line x1="0.0752874" y1="-0.186782" x2="0.144253" y2="-0.114368" style="stroke:rgb(246,147,147);stroke-width:0.01" />
<line x1="-0.066092" y1="-0.19023" x2="-0.21092" y2="-0.0522989" style="stroke:rgb(246,147,147);stroke-width:0.01" />
<line x1="-0.066092" y1="-0.19023" x2="0.20977" y2="0.0994253" style="stroke:rgb(246,147,147);stroke-width:0.01" />
<line x1="-0.207471" y1="-0.193678" x2="-0.0695402" y2="-0.0488506" style="stroke:rgb(246,147,147);stroke-width:0.01" />
<line x1="0.0752874" y1="-0.186782" x2="-0.214368" y2="0.0890805" style="stroke:rgb(246,147,147);stroke-width:0.01" />
<line x1="-0.207471" y1="-0.193678" x2="-0.214368" y2="0.0890805" style="stroke:rgb(246,147,147);stroke-width:0.01" />
<line x1="-0.21092" y1="-0.0522989" x2="0.0649425" y2="0.237356" style="stroke:rgb(246,147,147);stroke-width:0.01" />
<line x1="-0.0695402" y1="-0.0488506" x2="-0.0764368" y2="0.233908" style="stroke:rgb(246,147,147);stroke-width:0.01" />
<line x1="-0.214368" y1="0.0890805" x2="0.20977" y2="0.0994253" style="stroke:rgb(246,147,147);stroke-width:0.01" />
<line x1="0.144253" y1="-0.114368" x2="-0.145402" y2="0.161494" style="stroke:rgb(246,147,147);stroke-width:0.01" />
<line x1="0.0752874" y1="-0.186782" x2="0.0718391" y2="-0.0454023" style="stroke:rgb(246,147,147);stroke-width:0.01" />
<line x1="-0.214368" y1="0.0890805" x2="-0.0764368" y2="0.233908" style="stroke:rgb(246,147,147);stroke-width:0.01" />
<line x1="-0.0764368" y1="0.233908" x2="0.0649425" y2="0.237356" style="stroke:rgb(246,147,147);stroke-width:0.01" />
<line x1="0.20977" y1="0.0994253" x2="0.0649425" y2="0.237356" style="stroke:rgb(246,147,147);stroke-width:0.01" />
</g>
</svg>
