<svg xmlns="http://www.w3.org/2000/svg" viewBox="-1.5 -1.5 3 3">
<g transform="scale(1, -1)">
<path d="M0.466839 -0.318096 L0.536853 -0.298640 L0.585033 -0.243354 L0.283234 0.019654 L0.154486 0.256492 L0.039179 0.232341 L-0.168861 0.413642 L-0.408593 0.138553 L-0.458628 0.128073 L-0.463059 0.076054 L-0.420556 0.058038 L-0.219826 -0.311214 L0.073898 -0.151543 z " fill="rgb(245,195,195)" />
<path d="M1.978016 -0.769390 L2.978016 -0.769390 L2.978016 0.230610 L1.978016 0.230610  z" fill="none" stroke="rgb(128,128,128)" stroke-width="0.01" />
<line x1="-0.219826" y1="-0.311214" x2="-0.458628" y2="0.128073" style="stroke:rgb(246,147,147);stroke-width:0.01" />
<line x1="-0.133182" y1="-0.0434183" x2="-0.137583" y2="-0.0375826" style="stroke:rgb(246,147,147);stroke-width:0.01" />
<line x1="-0.00876203" y1="-0.149771" x2="-0.0125513" y2="-0.144552" style="stroke:rgb(246,147,147);stroke-width:0.01" />
<line x1="-0.0912723" y1="-0.0604444" x2="-0.0998954" y2="-0.0509849" style="stroke:rgb(246,147,147);stroke-width:0.01" />
<line x1="-0.00876203" y1="-0.149771" x2="-0.0912723" y2="-0.0604444" style="stroke:rgb(246,147,147);stroke-width:0.01" />
<line x1="-0.0125513" y1="-0.144552" x2="-0.0912723" y2="-0.0604444" style="stroke:rgb(246,147,147);stroke-width:0.01" />
<line x1="-0.0110259" y1="-0.14732" x2="-0.0125513" y2="-0.144552" style="stroke:rgb(246,147,147);stroke-width:0.01" />
<line x1="0.024638" y1="-0.178321" x2="-0.138518" y2="-0.0388566" style="stroke:rgb(246,147,147);stroke-width:0.01" />
<line x1="0.466839" y1="-0.318096" x2="0.154486" y2="0.256492" style="stroke:rgb(246,147,147);stroke-width:0.01" />
<line x1="0.0130508" y1="-0.163195" x2="-0.0110259" y2="-0.14732" style="stroke:rgb(246,147,147);stroke-width:0.01" />
<line x1="0.0374539" y1="-0.142282" x2="-0.0998954" y2="-0.0509849" style="stroke:rgb(246,147,147);stroke-width:0.01" />
<line x1="0.585033" y1="-0.243354" x2="-0.168861" y2="0.413642" style="stroke:rgb(246,147,147);stroke-width:0.01" />
<line x1="0.0527216" y1="-0.142567" x2="-0.133182" y2="-0.0434183" style="stroke:rgb(246,147,147);stroke-width:0.01" />
<line x1="0.466839" y1="-0.318096" x2="-0.463059" y2="0.076054" style="stroke:rgb(246,147,147);stroke-width:0.01" />
<line x1="-0.0998954" y1="-0.0509849" x2="-0.137583" y2="-0.0375826" style="stroke:rgb(246,147,147);stroke-width:0.01" />
<line x1="0.536853" y1="-0.29864" x2="0.0527216" y2="-0.142567" style="stroke:rgb(246,147,147);stroke-width:0.01" />
<line x1="-0.463059" y1="0.076054" x2="-0.458628" y2="0.128073" style="stroke:rgb(246,147,147);stroke-width:0.01" />
<line x1="0.024638" y1="-0.178321" x2="0.0374539" y2="-0.142282" style="stroke:rgb(246,147,147);stroke-width:0.01" />
<line x1="0.466839" y1="-0.318096" x2="0.536853" y2="-0.29864" style="stroke:rgb(246,147,147);stroke-width:0.01" />
<line x1="0.536853" y1="-0.29864" x2="0.585033" y2="-0.243354" style="stroke:rgb(246,147,147);stroke-width:0.01" />
<line x1="0.010849" y1="-0.166534" x2="0.0130508" y2="-0.163195" style="stroke:rgb(246,147,147);stroke-width:0.01" />
<line x1="-0.138518" y1="-0.0388566" x2="-0.137583" y2="-0.0375826" style="stroke:rgb(246,147,147);stroke-width:0.01" />
<line x1="-0.219826" y1="-0.311214" x2="0.30732" y2="-0.024652" style="stroke:rgb(246,147,147);stroke-width:0.01" />
<line x1="0.010849" y1="-0.166534" x2="0.0374539" y2="-0.142282" style="stroke:rgb(246,147,147);stroke-width:0.01" />
<line x1="-0.458628" y1="0.128073" x2="0.154486" y2="0.256492" style="stroke:rgb(246,147,147);stroke-width:0.01" />
<line x1="-0.138518" y1="-0.0388566" x2="0.154486" y2="0.256492" style="stroke:rgb(246,147,147);stroke-width:0.01" />
<line x1="-0.463059" y1="0.076054" x2="-0.168861" y2="0.413642" style="stroke:rgb(246,147,147);stroke-width:0.01" />
</g>
</svg>
