<svg xmlns="http://www.w3.org/2000/svg" viewBox="-1.5 -1.5 3 3">
<g transform="scale(1, -1)">
<path d="M0.024114 -0.260028 L0.078523 -0.236312 L0.071066 -0.033389 L0.123724 0.019268 L0.123724 0.171612 L0.076849 0.218487 L-0.225886 0.218487 L-0.225886 -0.010028 z M0.021134 -0.178923 L-0.026667 -0.131122 L0.047469 -0.056987 L0.017826 -0.088892 z M-0.077448 -0.029560 L-0.077448 0.064190 L-0.022761 0.118878 L0.024114 0.118878 L0.047552 0.095440 z " fill="rgb(245,195,195)" />
<path d="M-0.554011 -0.158466 L0.445989 -0.158466 L0.445989 0.841534 L-0.554011 0.841534  z" fill="none" stroke="rgb(128,128,128)" stroke-width="0.01" />
<line x1="0.02168" y1="-0.193782" x2="0.072198" y2="-0.139409" style="stroke:rgb(246,147,147);stroke-width:0.01" />
<line x1="0.0241144" y1="-0.260028" x2="0.0785229" y2="-0.236312" style="stroke:rgb(246,147,147);stroke-width:0.01" />
<line x1="0.0178256" y1="-0.0888915" x2="0.0710024" y2="-0.0316574" style="stroke:rgb(246,147,147);stroke-width:0.01" />
<line x1="-0.0657293" y1="-0.170185" x2="0.123724" y2="0.0192684" style="stroke:rgb(246,147,147);stroke-width:0.01" />
<line x1="0.0709894" y1="-0.0295597" x2="0.123724" y2="0.0231747" style="stroke:rgb(246,147,147);stroke-width:0.01" />
<line x1="-0.0774481" y1="-0.0295597" x2="0.123724" y2="0.171612" style="stroke:rgb(246,147,147);stroke-width:0.01" />
<line x1="-0.188776" y1="-0.0471378" x2="0.0768488" y2="0.218487" style="stroke:rgb(246,147,147);stroke-width:0.01" />
<line x1="-0.00322931" y1="-0.232685" x2="0.0709894" y2="-0.232685" style="stroke:rgb(246,147,147);stroke-width:0.01" />
<line x1="-0.225886" y1="0.0641903" x2="-0.0715887" y2="0.218487" style="stroke:rgb(246,147,147);stroke-width:0.01" />
<line x1="-0.225886" y1="0.0680966" x2="-0.0754949" y2="0.218487" style="stroke:rgb(246,147,147);stroke-width:0.01" />
<line x1="-0.0774481" y1="-0.158466" x2="-0.00322931" y2="-0.158466" style="stroke:rgb(246,147,147);stroke-width:0.01" />
<line x1="-0.225886" y1="-0.0100284" x2="-0.225886" y2="0.218487" style="stroke:rgb(246,147,147);stroke-width:0.01" />
<line x1="-0.0774481" y1="-0.158466" x2="-0.0774481" y2="0.218487" style="stroke:rgb(246,147,147);stroke-width:0.01" />
<line x1="-0.00322931" y1="-0.232685" x2="-0.00322931" y2="-0.158466" style="stroke:rgb(246,147,147);stroke-width:0.01" />
<line x1="0.0709894" y1="-0.239596" x2="0.0709894" y2="-0.232685" style="stroke:rgb(246,147,147);stroke-width:0.01" />
<line x1="0.0709894" y1="-0.0295597" x2="0.0709894" y2="0.118878" style="stroke:rgb(246,147,147);stroke-width:0.01" />
<line x1="0.123724" y1="0.0192684" x2="0.123724" y2="0.171612" style="stroke:rgb(246,147,147);stroke-width:0.01" />
<line x1="0.0241144" y1="-0.260028" x2="0.0178256" y2="-0.0888915" style="stroke:rgb(246,147,147);stroke-width:0.01" />
<line x1="0.0758025" y1="-0.237498" x2="0.072198" y2="-0.139409" style="stroke:rgb(246,147,147);stroke-width:0.01" />
<line x1="0.0785229" y1="-0.236312" x2="0.0710024" y2="-0.0316574" style="stroke:rgb(246,147,147);stroke-width:0.01" />
<line x1="-0.0774481" y1="-0.0295597" x2="0.0709894" y2="-0.0295597" style="stroke:rgb(246,147,147);stroke-width:0.01" />
<line x1="-0.225886" y1="-0.0100284" x2="-0.151667" y2="-0.0100284" style="stroke:rgb(246,147,147);stroke-width:0.01" />
<line x1="0.0241144" y1="-0.260028" x2="-0.225886" y2="-0.0100284" style="stroke:rgb(246,147,147);stroke-width:0.01" />
<line x1="0.0709894" y1="-0.239596" x2="0.02168" y2="-0.193782" style="stroke:rgb(246,147,147);stroke-width:0.01" />
<line x1="0.0758025" y1="-0.237498" x2="-0.225886" y2="0.0641903" style="stroke:rgb(246,147,147);stroke-width:0.01" />
<line x1="-0.225886" y1="0.118878" x2="0.123724" y2="0.118878" style="stroke:rgb(246,147,147);stroke-width:0.01" />
<line x1="0.0785229" y1="-0.236312" x2="-0.225886" y2="0.0680966" style="stroke:rgb(246,147,147);stroke-width:0.01" />
<line x1="0.072198" y1="-0.139409" x2="0.0178256" y2="-0.0888915" style="stroke:rgb(246,147,147);stroke-width:0.01" />
<line x1="-0.225886" y1="0.218487" x2="0.0768488" y2="0.218487" style="stroke:rgb(246,147,147);stroke-width:0.01" />
<line x1="0.123724" y1="0.0192684" x2="-0.0754949" y2="0.218487" style="stroke:rgb(246,147,147);stroke-width:0.01" />
<line x1="0.123724" y1="0.0231747" x2="-0.0715887" y2="0.218487" style="stroke:rgb(246,147,147);stroke-width:0.01" />
<line x1="0.123724" y1="0.171612" x2="0.0768488" y2="0.218487" style="stroke:rgb(246,147,147);stroke-width:0.01" />
</g>
</svg>
