<svg xmlns="http://www.w3.org/2000/svg" viewBox="-1.5 -1.5 3 3">
<g transform="scale(1, -1)">
<path d="M-0.243056 -0.291667 L-0.118056 -0.291667 L-0.149306 -0.260417 L0.256944 0.145833 L0.256944 0.333333 L0.225694 0.333333 L0.006944 0.114583 L0.006944 0.083333 L-0.243056 -0.166667 z " fill="rgb(245,195,195)" />
<path d="M-1.305556 -0.479167 L-0.305556 -0.479167 L-0.305556 0.520833 L-1.305556 0.520833  z" fill="none" stroke="rgb(128,128,128)" stroke-width="0.01" />
<line x1="-0.180556" y1="-0.291667" x2="0.256944" y2="0.145833" style="stroke:rgb(246,147,147);stroke-width:0.01" />
<line x1="-0.243056" y1="-0.166667" x2="0.0694444" y2="0.145833" style="stroke:rgb(246,147,147);stroke-width:0.01" />
<line x1="0.00694444" y1="0.114583" x2="0.225694" y2="0.333333" style="stroke:rgb(246,147,147);stroke-width:0.01" />
<line x1="-0.243056" y1="-0.291667" x2="-0.243056" y2="-0.166667" style="stroke:rgb(246,147,147);stroke-width:0.01" />
<line x1="-0.180556" y1="-0.291667" x2="-0.180556" y2="-0.104167" style="stroke:rgb(246,147,147);stroke-width:0.01" />
<line x1="-0.0555556" y1="-0.104167" x2="-0.0555556" y2="0.0208333" style="stroke:rgb(246,147,147);stroke-width:0.01" />
<line x1="0.00694444" y1="-0.104167" x2="0.00694444" y2="0.114583" style="stroke:rgb(246,147,147);stroke-width:0.01" />
<line x1="0.0694444" y1="-0.0416667" x2="0.0694444" y2="0.145833" style="stroke:rgb(246,147,147);stroke-width:0.01" />
<line x1="0.225694" y1="0.114583" x2="0.225694" y2="0.333333" style="stroke:rgb(246,147,147);stroke-width:0.01" />
<line x1="0.256944" y1="0.145833" x2="0.256944" y2="0.333333" style="stroke:rgb(246,147,147);stroke-width:0.01" />
<line x1="-0.243056" y1="-0.291667" x2="-0.118056" y2="-0.291667" style="stroke:rgb(246,147,147);stroke-width:0.01" />
<line x1="-0.180556" y1="-0.104167" x2="0.00694444" y2="-0.104167" style="stroke:rgb(246,147,147);stroke-width:0.01" />
<line x1="-0.118056" y1="-0.0416667" x2="0.0694444" y2="-0.0416667" style="stroke:rgb(246,147,147);stroke-width:0.01" />
<line x1="-0.0555556" y1="0.0208333" x2="0.0694444" y2="0.0208333" style="stroke:rgb(246,147,147);stroke-width:0.01" />
<line x1="0.00694444" y1="0.114583" x2="0.225694" y2="0.114583" style="stroke:rgb(246,147,147);stroke-width:0.01" />
<line x1="0.0694444" y1="0.145833" x2="0.256944" y2="0.145833" style="stroke:rgb(246,147,147);stroke-width:0.01" />
<line x1="-0.118056" y1="-0.291667" x2="-0.243056" y2="-0.166667" style="stroke:rgb(246,147,147);stroke-width:0.01" />
<line x1="0.225694" y1="0.333333" x2="0.256944" y2="0.333333" style="stroke:rgb(246,147,147);stroke-width:0.01" />
<line x1="-0.0243056" y1="-0.135417" x2="-0.118056" y2="-0.0416667" style="stroke:rgb(246,147,147);stroke-width:0.01" />
</g>
</svg>
