<svg xmlns="http://www.w3.org/2000/svg" viewBox="-1.5 -1.5 3 3">
<g transform="scale(1, -1)">
<path d="M-0.122457 -0.126843 L-0.020894 -0.126843 L0.041606 -0.064343 L0.041606 -0.031372 L0.132407 -0.011113 L0.179797 0.063498 L0.176945 0.076282 L0.098963 0.138782 L0.041606 0.138782 L-0.020894 0.076282 L-0.020894 0.018720 L-0.292953 -0.041982 L-0.279343 -0.102982 L-0.122457 -0.067977 z M-0.106168 -0.064343 L-0.020894 -0.045317 L-0.020894 -0.064343 z M0.041606 0.032665 L0.041606 0.076282 L0.112908 0.076282 L0.118797 0.049887 z " fill="rgb(245,195,195)" />
<path d="M-0.122457 -0.126843 L0.877543 -0.126843 L0.877543 0.873157 L-0.122457 0.873157  z" fill="none" stroke="rgb(128,128,128)" stroke-width="0.01" />
<line x1="0.132407" y1="-0.0111128" x2="0.179797" y2="0.0634976" style="stroke:rgb(246,147,147);stroke-width:0.01" />
<line x1="-0.020894" y1="-0.126843" x2="0.041606" y2="-0.0643433" style="stroke:rgb(246,147,147);stroke-width:0.01" />
<line x1="-0.279343" y1="-0.102982" x2="-0.292953" y2="-0.0419816" style="stroke:rgb(246,147,147);stroke-width:0.01" />
<line x1="-0.122457" y1="-0.126843" x2="-0.020894" y2="-0.126843" style="stroke:rgb(246,147,147);stroke-width:0.01" />
<line x1="-0.122457" y1="-0.126843" x2="-0.122457" y2="-0.0643433" style="stroke:rgb(246,147,147);stroke-width:0.01" />
<line x1="-0.020894" y1="-0.126843" x2="-0.020894" y2="0.0762817" style="stroke:rgb(246,147,147);stroke-width:0.01" />
<line x1="0.041606" y1="-0.0643433" x2="0.041606" y2="0.138782" style="stroke:rgb(246,147,147);stroke-width:0.01" />
<line x1="-0.020894" y1="0.0762817" x2="0.041606" y2="0.138782" style="stroke:rgb(246,147,147);stroke-width:0.01" />
<line x1="-0.279343" y1="-0.102982" x2="0.132407" y2="-0.0111128" style="stroke:rgb(246,147,147);stroke-width:0.01" />
<line x1="0.132407" y1="-0.0111128" x2="0.0989633" y2="0.138782" style="stroke:rgb(246,147,147);stroke-width:0.01" />
<line x1="-0.122457" y1="-0.0643433" x2="0.041606" y2="-0.0643433" style="stroke:rgb(246,147,147);stroke-width:0.01" />
<line x1="0.179797" y1="0.0634976" x2="0.176945" y2="0.0762817" style="stroke:rgb(246,147,147);stroke-width:0.01" />
<line x1="-0.292953" y1="-0.0419816" x2="0.179797" y2="0.0634976" style="stroke:rgb(246,147,147);stroke-width:0.01" />
<line x1="-0.020894" y1="0.0762817" x2="0.176945" y2="0.0762817" style="stroke:rgb(246,147,147);stroke-width:0.01" />
<line x1="0.041606" y1="0.138782" x2="0.0989633" y2="0.138782" style="stroke:rgb(246,147,147);stroke-width:0.01" />
<line x1="0.176945" y1="0.0762817" x2="0.0989633" y2="0.138782" style="stroke:rgb(246,147,147);stroke-width:0.01" />
</g>
</svg>
