<svg xmlns="http://www.w3.org/2000/svg" viewBox="-1.5 -1.5 3 3">
<g transform="scale(1, -1)">
<path d="M0.410394 -0.534825 L0.460261 -0.448146 L-0.007603 0.743955 L-0.084012 0.767653 L-0.228632 0.359754 L-0.456401 -0.036161 L-0.061804 -0.263172 L-0.052540 -0.278631 L0.020337 -0.310426 z " fill="rgb(245,195,195)" />
<path d="M2.214659 -0.729115 L3.214659 -0.729115 L3.214659 0.270885 L2.214659 0.270885  z" fill="none" stroke="rgb(128,128,128)" stroke-width="0.01" />
<line x1="-0.0525399" y1="-0.278631" x2="-0.300907" y2="0.135846" style="stroke:rgb(246,147,147);stroke-width:0.01" />
<line x1="0.410394" y1="-0.534825" x2="-0.456401" y2="-0.036161" style="stroke:rgb(246,147,147);stroke-width:0.01" />
<line x1="0.0304583" y1="-0.314843" x2="-0.0630901" y2="-0.261024" style="stroke:rgb(246,147,147);stroke-width:0.01" />
<line x1="0.460261" y1="-0.448146" x2="-0.00760279" y2="0.743955" style="stroke:rgb(246,147,147);stroke-width:0.01" />
<line x1="0.0304583" y1="-0.314843" x2="-0.0525399" y2="-0.278631" style="stroke:rgb(246,147,147);stroke-width:0.01" />
<line x1="-0.0453314" y1="-0.188364" x2="-0.083677" y2="0.0805774" style="stroke:rgb(246,147,147);stroke-width:0.01" />
<line x1="0.460261" y1="-0.448146" x2="0.0304583" y2="-0.314843" style="stroke:rgb(246,147,147);stroke-width:0.01" />
<line x1="-0.0630901" y1="-0.261024" x2="-0.0736818" y2="0.0808871" style="stroke:rgb(246,147,147);stroke-width:0.01" />
<line x1="-0.0453314" y1="-0.188364" x2="-0.0539004" y2="0.0882531" style="stroke:rgb(246,147,147);stroke-width:0.01" />
<line x1="-0.0525399" y1="-0.278631" x2="-0.0453314" y2="-0.188364" style="stroke:rgb(246,147,147);stroke-width:0.01" />
<line x1="-0.0539004" y1="0.0882531" x2="-0.300907" y2="0.135846" style="stroke:rgb(246,147,147);stroke-width:0.01" />
<line x1="-0.0728713" y1="0.763194" x2="-0.0840121" y2="0.767653" style="stroke:rgb(246,147,147);stroke-width:0.01" />
<line x1="-0.0728713" y1="0.763194" x2="-0.0804464" y2="0.765767" style="stroke:rgb(246,147,147);stroke-width:0.01" />
<line x1="-0.00760279" y1="0.743955" x2="-0.0840121" y2="0.767653" style="stroke:rgb(246,147,147);stroke-width:0.01" />
<line x1="-0.300907" y1="0.135846" x2="-0.251229" y2="0.296019" style="stroke:rgb(246,147,147);stroke-width:0.01" />
<line x1="0.410394" y1="-0.534825" x2="0.460261" y2="-0.448146" style="stroke:rgb(246,147,147);stroke-width:0.01" />
<line x1="-0.176915" y1="0.4817" x2="-0.0804464" y2="0.765767" style="stroke:rgb(246,147,147);stroke-width:0.01" />
<line x1="-0.083677" y1="0.0805774" x2="-0.0536914" y2="0.0815063" style="stroke:rgb(246,147,147);stroke-width:0.01" />
<line x1="-0.251229" y1="0.296019" x2="-0.0840121" y2="0.767653" style="stroke:rgb(246,147,147);stroke-width:0.01" />
<line x1="-0.176915" y1="0.4817" x2="-0.0728713" y2="0.763194" style="stroke:rgb(246,147,147);stroke-width:0.01" />
<line x1="-0.251229" y1="0.296019" x2="-0.176915" y2="0.4817" style="stroke:rgb(246,147,147);stroke-width:0.01" />
<line x1="-0.083677" y1="0.0805774" x2="-0.0539004" y2="0.0882531" style="stroke:rgb(246,147,147);stroke-width:0.01" />
<line x1="-0.456401" y1="-0.036161" x2="-0.00760279" y2="0.743955" style="stroke:rgb(246,147,147);stroke-width:0.01" />
</g>
</svg>
