<svg xmlns="http://www.w3.org/2000/svg" viewBox="-1.5 -1.5 3 3">
<g transform="scale(1, -1)">
<path d="M-0.230769 -0.269231 L0.102564 -0.269231 L0.352564 -0.019231 L0.352564 0.230769 L0.269231 0.230769 L0.185897 0.147436 L0.185897 0.064103 L0.102564 -0.019231 L-0.147436 -0.019231 L-0.230769 0.064103 L-0.314103 0.064103 L-0.397436 -0.019231 L-0.230769 -0.185897 z " fill="rgb(245,195,195)" />
<path d="M-0.480769 -0.685897 L0.519231 -0.685897 L0.519231 0.314103 L-0.480769 0.314103  z" fill="none" stroke="rgb(128,128,128)" stroke-width="0.01" />
<line x1="0.102564" y1="-0.269231" x2="0.352564" y2="-0.0192308" style="stroke:rgb(246,147,147);stroke-width:0.01" />
<line x1="-0.314103" y1="-0.102564" x2="-0.314103" y2="-0.0192308" style="stroke:rgb(246,147,147);stroke-width:0.01" />
<line x1="-0.230769" y1="-0.269231" x2="-0.230769" y2="0.0641026" style="stroke:rgb(246,147,147);stroke-width:0.01" />
<line x1="-0.147436" y1="-0.269231" x2="-0.147436" y2="-0.0192308" style="stroke:rgb(246,147,147);stroke-width:0.01" />
<line x1="-0.0641026" y1="-0.269231" x2="-0.0641026" y2="-0.0192308" style="stroke:rgb(246,147,147);stroke-width:0.01" />
<line x1="0.185897" y1="-0.185897" x2="0.185897" y2="0.147436" style="stroke:rgb(246,147,147);stroke-width:0.01" />
<line x1="0.269231" y1="-0.102564" x2="0.269231" y2="0.230769" style="stroke:rgb(246,147,147);stroke-width:0.01" />
<line x1="0.352564" y1="-0.0192308" x2="0.352564" y2="0.230769" style="stroke:rgb(246,147,147);stroke-width:0.01" />
<line x1="-0.147436" y1="-0.269231" x2="0.352564" y2="0.230769" style="stroke:rgb(246,147,147);stroke-width:0.01" />
<line x1="0.185897" y1="0.147436" x2="0.269231" y2="0.230769" style="stroke:rgb(246,147,147);stroke-width:0.01" />
<line x1="-0.230769" y1="-0.102564" x2="-0.147436" y2="-0.0192308" style="stroke:rgb(246,147,147);stroke-width:0.01" />
<line x1="-0.397436" y1="-0.0192308" x2="-0.314103" y2="0.0641026" style="stroke:rgb(246,147,147);stroke-width:0.01" />
<line x1="-0.147436" y1="-0.269231" x2="-0.397436" y2="-0.0192308" style="stroke:rgb(246,147,147);stroke-width:0.01" />
<line x1="-0.230769" y1="-0.269231" x2="0.102564" y2="-0.269231" style="stroke:rgb(246,147,147);stroke-width:0.01" />
<line x1="-0.147436" y1="-0.185897" x2="-0.230769" y2="-0.102564" style="stroke:rgb(246,147,147);stroke-width:0.01" />
<line x1="-0.230769" y1="-0.0192308" x2="-0.314103" y2="0.0641026" style="stroke:rgb(246,147,147);stroke-width:0.01" />
<line x1="-0.147436" y1="-0.185897" x2="0.185897" y2="-0.185897" style="stroke:rgb(246,147,147);stroke-width:0.01" />
<line x1="0.102564" y1="-0.269231" x2="-0.230769" y2="0.0641026" style="stroke:rgb(246,147,147);stroke-width:0.01" />
<line x1="-0.314103" y1="-0.102564" x2="0.269231" y2="-0.102564" style="stroke:rgb(246,147,147);stroke-width:0.01" />
<line x1="-0.397436" y1="-0.0192308" x2="0.352564" y2="-0.0192308" style="stroke:rgb(246,147,147);stroke-width:0.01" />
<line x1="-0.314103" y1="0.0641026" x2="-0.230769" y2="0.0641026" style="stroke:rgb(246,147,147);stroke-width:0.01" />
<line x1="0.185897" y1="0.147436" x2="0.352564" y2="0.147436" style="stroke:rgb(246,147,147);stroke-width:0.01" />
<line x1="0.269231" y1="0.230769" x2="0.352564" y2="0.230769" style="stroke:rgb(246,147,147);stroke-width:0.01" />
</g>
</svg>
