<svg xmlns="http://www.w3.org/2000/svg" viewBox="-1.5 -1.5 3 3">
<g transform="scale(1, -1)">
<path d="M-0.004259 -0.636277 L0.254965 0.136186 L0.358833 0.244885 L0.310408 0.301401 L0.314141 0.312523 L0.294458 0.320016 L0.293435 0.318562 L-0.056571 0.420648 L-0.168663 0.582731 L-0.300259 0.491723 L-0.230203 0.059333 L-0.380821 -0.083741 L-0.169937 -0.312630 L-0.160359 -0.371749 L-0.228556 -0.550889 L-0.064754 -0.613247 L-0.061859 -0.619477 z " fill="rgb(245,195,195)" />
<path d="M1.906141 -0.943477 L2.906141 -0.943477 L2.906141 0.056523 L1.906141 0.056523  z" fill="none" stroke="rgb(128,128,128)" stroke-width="0.01" />
<line x1="-0.00516533" y1="-0.49147" x2="-0.380821" y2="-0.0837412" style="stroke:rgb(246,147,147);stroke-width:0.01" />
<line x1="-0.376902" y1="-0.0877422" x2="-0.380821" y2="-0.0837412" style="stroke:rgb(246,147,147);stroke-width:0.01" />
<line x1="-0.0618591" y1="-0.619477" x2="-0.151459" y2="-0.426677" style="stroke:rgb(246,147,147);stroke-width:0.01" />
<line x1="-0.0549031" y1="0.418236" x2="-0.168663" y2="0.582731" style="stroke:rgb(246,147,147);stroke-width:0.01" />
<line x1="-0.00425913" y1="-0.636277" x2="-0.228556" y2="-0.550889" style="stroke:rgb(246,147,147);stroke-width:0.01" />
<line x1="-0.151459" y1="-0.426677" x2="-0.300259" y2="0.491723" style="stroke:rgb(246,147,147);stroke-width:0.01" />
<line x1="-0.00516533" y1="-0.49147" x2="-0.114371" y2="0.169363" style="stroke:rgb(246,147,147);stroke-width:0.01" />
<line x1="0.358833" y1="0.244885" x2="0.294458" y2="0.320016" style="stroke:rgb(246,147,147);stroke-width:0.01" />
<line x1="-0.00425913" y1="-0.636277" x2="-0.0618591" y2="-0.619477" style="stroke:rgb(246,147,147);stroke-width:0.01" />
<line x1="0.358833" y1="0.244885" x2="0.295782" y2="0.294124" style="stroke:rgb(246,147,147);stroke-width:0.01" />
<line x1="-0.114371" y1="0.169363" x2="-0.258363" y2="0.233136" style="stroke:rgb(246,147,147);stroke-width:0.01" />
<line x1="-0.151459" y1="-0.426677" x2="-0.0549031" y2="0.418236" style="stroke:rgb(246,147,147);stroke-width:0.01" />
<line x1="0.314141" y1="0.312523" x2="0.294458" y2="0.320016" style="stroke:rgb(246,147,147);stroke-width:0.01" />
<line x1="-0.00425913" y1="-0.636277" x2="0.314141" y2="0.312523" style="stroke:rgb(246,147,147);stroke-width:0.01" />
<line x1="0.314141" y1="0.312523" x2="-0.300259" y2="0.491723" style="stroke:rgb(246,147,147);stroke-width:0.01" />
<line x1="-0.228556" y1="-0.550889" x2="-0.157399" y2="-0.363975" style="stroke:rgb(246,147,147);stroke-width:0.01" />
<line x1="-0.0618591" y1="-0.619477" x2="-0.00516533" y2="-0.49147" style="stroke:rgb(246,147,147);stroke-width:0.01" />
<line x1="-0.157399" y1="-0.363975" x2="-0.0855207" y2="-0.220137" style="stroke:rgb(246,147,147);stroke-width:0.01" />
<line x1="-0.157399" y1="-0.363975" x2="0.0988252" y2="0.0419178" style="stroke:rgb(246,147,147);stroke-width:0.01" />
<line x1="-0.0855207" y1="-0.220137" x2="0.294458" y2="0.320016" style="stroke:rgb(246,147,147);stroke-width:0.01" />
<line x1="0.0988252" y1="0.0419178" x2="0.295782" y2="0.294124" style="stroke:rgb(246,147,147);stroke-width:0.01" />
<line x1="-0.0855207" y1="-0.220137" x2="0.358833" y2="0.244885" style="stroke:rgb(246,147,147);stroke-width:0.01" />
<line x1="-0.376902" y1="-0.0877422" x2="-0.114371" y2="0.169363" style="stroke:rgb(246,147,147);stroke-width:0.01" />
<line x1="-0.380821" y1="-0.0837412" x2="-0.114371" y2="0.169363" style="stroke:rgb(246,147,147);stroke-width:0.01" />
<line x1="-0.258363" y1="0.233136" x2="-0.0549031" y2="0.418236" style="stroke:rgb(246,147,147);stroke-width:0.01" />
<line x1="-0.300259" y1="0.491723" x2="-0.168663" y2="0.582731" style="stroke:rgb(246,147,147);stroke-width:0.01" />
</g>
</svg>
