<svg xmlns="http://www.w3.org/2000/svg" viewBox="-1.5 -1.5 3 3">
<g transform="scale(1, -1)">
<path d="M-0.062385 -0.642085 L0.747237 0.103645 L0.673291 0.331969 L0.231129 0.398996 L-0.237537 0.247212 L-0.237848 0.246471 L-0.281845 0.232608 L-0.283412 0.137753 L-0.284223 0.042888 L-0.109734 -0.495883 L-0.154672 -0.603575 z " fill="rgb(245,195,195)" />
<path d="M1.071453 -1.003058 L2.071453 -1.003058 L2.071453 -0.003058 L1.071453 -0.003058  z" fill="none" stroke="rgb(128,128,128)" stroke-width="0.01" />
<line x1="-0.0623849" y1="-0.642085" x2="-0.284223" y2="0.042888" style="stroke:rgb(246,147,147);stroke-width:0.01" />
<line x1="-0.237259" y1="0.246657" x2="-0.237537" y2="0.247212" style="stroke:rgb(246,147,147);stroke-width:0.01" />
<line x1="-0.0623849" y1="-0.642085" x2="-0.154672" y2="-0.603575" style="stroke:rgb(246,147,147);stroke-width:0.01" />
<line x1="0.525356" y1="0.191558" x2="0.520689" y2="0.2151" style="stroke:rgb(246,147,147);stroke-width:0.01" />
<line x1="0.747237" y1="0.103645" x2="0.673291" y2="0.331969" style="stroke:rgb(246,147,147);stroke-width:0.01" />
<line x1="-0.284223" y1="0.042888" x2="-0.283412" y2="0.137753" style="stroke:rgb(246,147,147);stroke-width:0.01" />
<line x1="-0.283412" y1="0.137753" x2="-0.281845" y2="0.232608" style="stroke:rgb(246,147,147);stroke-width:0.01" />
<line x1="0.531202" y1="0.203039" x2="0.520689" y2="0.2151" style="stroke:rgb(246,147,147);stroke-width:0.01" />
<line x1="-0.248225" y1="0.220781" x2="-0.248547" y2="0.220942" style="stroke:rgb(246,147,147);stroke-width:0.01" />
<line x1="-0.154672" y1="-0.603575" x2="0.230427" y2="0.3193" style="stroke:rgb(246,147,147);stroke-width:0.01" />
<line x1="-0.284223" y1="0.042888" x2="-0.225844" y2="0.213158" style="stroke:rgb(246,147,147);stroke-width:0.01" />
<line x1="0.525356" y1="0.191558" x2="0.231129" y2="0.398996" style="stroke:rgb(246,147,147);stroke-width:0.01" />
<line x1="0.615669" y1="0.250239" x2="0.673291" y2="0.331969" style="stroke:rgb(246,147,147);stroke-width:0.01" />
<line x1="-0.283412" y1="0.137753" x2="-0.237537" y2="0.247212" style="stroke:rgb(246,147,147);stroke-width:0.01" />
<line x1="-0.283412" y1="0.137753" x2="-0.237259" y2="0.246657" style="stroke:rgb(246,147,147);stroke-width:0.01" />
<line x1="-0.248225" y1="0.220781" x2="-0.281845" y2="0.232608" style="stroke:rgb(246,147,147);stroke-width:0.01" />
<line x1="-0.225844" y1="0.213158" x2="-0.248547" y2="0.220942" style="stroke:rgb(246,147,147);stroke-width:0.01" />
<line x1="-0.0623849" y1="-0.642085" x2="0.747237" y2="0.103645" style="stroke:rgb(246,147,147);stroke-width:0.01" />
<line x1="0.747237" y1="0.103645" x2="0.230427" y2="0.3193" style="stroke:rgb(246,147,147);stroke-width:0.01" />
<line x1="0.531202" y1="0.203039" x2="0.576433" y2="0.242462" style="stroke:rgb(246,147,147);stroke-width:0.01" />
<line x1="0.525356" y1="0.191558" x2="0.615669" y2="0.250239" style="stroke:rgb(246,147,147);stroke-width:0.01" />
<line x1="0.520689" y1="0.2151" x2="0.576433" y2="0.242462" style="stroke:rgb(246,147,147);stroke-width:0.01" />
<line x1="0.673291" y1="0.331969" x2="0.231129" y2="0.398996" style="stroke:rgb(246,147,147);stroke-width:0.01" />
<line x1="0.576433" y1="0.242462" x2="0.615669" y2="0.250239" style="stroke:rgb(246,147,147);stroke-width:0.01" />
<line x1="-0.281845" y1="0.232608" x2="-0.237259" y2="0.246657" style="stroke:rgb(246,147,147);stroke-width:0.01" />
<line x1="-0.237537" y1="0.247212" x2="0.231129" y2="0.398996" style="stroke:rgb(246,147,147);stroke-width:0.01" />
</g>
</svg>
