<svg xmlns="http://www.w3.org/2000/svg" viewBox="-1.5 -1.5 3 3">
<g transform="scale(1, -1)">
<path d="M-0.100000 -0.170833 L-0.016667 -0.170833 L-0.016667 -0.045833 L0.025000 -0.004167 L0.025000 0.037500 L0.066667 0.037500 L0.233333 0.204167 L0.025000 0.204167 L-0.120833 0.058333 L-0.120833 -0.150000 z " fill="rgb(245,195,195)" />
<path d="M-1.141667 0.037500 L-0.141667 0.037500 L-0.141667 1.037500 L-1.141667 1.037500  z" fill="none" stroke="rgb(128,128,128)" stroke-width="0.01" />
<line x1="-0.120833" y1="-0.15" x2="0.025" y2="-0.00416667" style="stroke:rgb(246,147,147);stroke-width:0.01" />
<line x1="0.0666667" y1="0.0375" x2="0.233333" y2="0.204167" style="stroke:rgb(246,147,147);stroke-width:0.01" />
<line x1="-0.120833" y1="0.0583333" x2="0.025" y2="0.204167" style="stroke:rgb(246,147,147);stroke-width:0.01" />
<line x1="-0.1" y1="-0.170833" x2="-0.0166667" y2="-0.170833" style="stroke:rgb(246,147,147);stroke-width:0.01" />
<line x1="-0.120833" y1="-0.0458333" x2="-0.0166667" y2="-0.0458333" style="stroke:rgb(246,147,147);stroke-width:0.01" />
<line x1="-0.120833" y1="0.0375" x2="0.0666667" y2="0.0375" style="stroke:rgb(246,147,147);stroke-width:0.01" />
<line x1="-0.120833" y1="-0.15" x2="-0.120833" y2="0.0583333" style="stroke:rgb(246,147,147);stroke-width:0.01" />
<line x1="-0.1" y1="-0.170833" x2="-0.1" y2="0.0791667" style="stroke:rgb(246,147,147);stroke-width:0.01" />
<line x1="-0.0583333" y1="0.0791667" x2="-0.0583333" y2="0.120833" style="stroke:rgb(246,147,147);stroke-width:0.01" />
<line x1="-0.0166667" y1="-0.170833" x2="-0.0166667" y2="0.1625" style="stroke:rgb(246,147,147);stroke-width:0.01" />
<line x1="0.025" y1="-0.00416667" x2="0.025" y2="0.204167" style="stroke:rgb(246,147,147);stroke-width:0.01" />
<line x1="0.0666667" y1="0.0375" x2="0.0666667" y2="0.204167" style="stroke:rgb(246,147,147);stroke-width:0.01" />
<line x1="-0.1" y1="0.0791667" x2="0.025" y2="0.0791667" style="stroke:rgb(246,147,147);stroke-width:0.01" />
<line x1="-0.0583333" y1="0.120833" x2="-0.0166667" y2="0.120833" style="stroke:rgb(246,147,147);stroke-width:0.01" />
<line x1="-0.0166667" y1="0.1625" x2="0.025" y2="0.1625" style="stroke:rgb(246,147,147);stroke-width:0.01" />
<line x1="0.025" y1="0.204167" x2="0.233333" y2="0.204167" style="stroke:rgb(246,147,147);stroke-width:0.01" />
<line x1="-0.1" y1="-0.170833" x2="-0.120833" y2="-0.15" style="stroke:rgb(246,147,147);stroke-width:0.01" />
<line x1="-0.0166667" y1="-0.0458333" x2="-0.120833" y2="0.0583333" style="stroke:rgb(246,147,147);stroke-width:0.01" />
<line x1="0.025" y1="-0.00416667" x2="-0.0791667" y2="0.1" style="stroke:rgb(246,147,147);stroke-width:0.01" />
</g>
</svg>
