<svg xmlns="http://www.w3.org/2000/svg" viewBox="-1.5 -1.5 3 3">
<g transform="scale(1, -1)">
<path d="M-0.040278 -0.181944 L0.009722 -0.181944 L0.009722 -0.056944 L0.184722 0.118056 L0.072222 0.230556 L-0.040278 0.118056 L-0.040278 0.068056 L-0.077778 0.030556 L-0.077778 -0.144444 z " fill="rgb(245,195,195)" />
<path d="M-0.690278 0.143056 L0.309722 0.143056 L0.309722 1.143056 L-0.690278 1.143056  z" fill="none" stroke="rgb(128,128,128)" stroke-width="0.01" />
<line x1="-0.0777778" y1="-0.144444" x2="0.184722" y2="0.118056" style="stroke:rgb(246,147,147);stroke-width:0.01" />
<line x1="-0.0777778" y1="0.0305556" x2="0.00972222" y2="0.118056" style="stroke:rgb(246,147,147);stroke-width:0.01" />
<line x1="-0.0402778" y1="0.118056" x2="0.0722222" y2="0.230556" style="stroke:rgb(246,147,147);stroke-width:0.01" />
<line x1="-0.0402778" y1="-0.181944" x2="0.00972222" y2="-0.181944" style="stroke:rgb(246,147,147);stroke-width:0.01" />
<line x1="-0.0777778" y1="-0.0569444" x2="0.00972222" y2="-0.0569444" style="stroke:rgb(246,147,147);stroke-width:0.01" />
<line x1="-0.0777778" y1="-0.0319444" x2="0.0347222" y2="-0.0319444" style="stroke:rgb(246,147,147);stroke-width:0.01" />
<line x1="-0.0402778" y1="-0.00694444" x2="0.0597222" y2="-0.00694444" style="stroke:rgb(246,147,147);stroke-width:0.01" />
<line x1="0.0597222" y1="0.0930556" x2="0.159722" y2="0.0930556" style="stroke:rgb(246,147,147);stroke-width:0.01" />
<line x1="-0.0402778" y1="0.118056" x2="0.184722" y2="0.118056" style="stroke:rgb(246,147,147);stroke-width:0.01" />
<line x1="-0.0152778" y1="0.143056" x2="0.159722" y2="0.143056" style="stroke:rgb(246,147,147);stroke-width:0.01" />
<line x1="-0.0777778" y1="-0.144444" x2="-0.0777778" y2="0.0305556" style="stroke:rgb(246,147,147);stroke-width:0.01" />
<line x1="-0.0402778" y1="-0.181944" x2="-0.0402778" y2="-0.0319444" style="stroke:rgb(246,147,147);stroke-width:0.01" />
<line x1="-0.0402778" y1="-0.00694444" x2="-0.0402778" y2="0.118056" style="stroke:rgb(246,147,147);stroke-width:0.01" />
<line x1="-0.0152778" y1="-0.0319444" x2="-0.0152778" y2="0.143056" style="stroke:rgb(246,147,147);stroke-width:0.01" />
<line x1="0.00972222" y1="-0.181944" x2="0.00972222" y2="0.118056" style="stroke:rgb(246,147,147);stroke-width:0.01" />
<line x1="0.0347222" y1="-0.0319444" x2="0.0347222" y2="0.118056" style="stroke:rgb(246,147,147);stroke-width:0.01" />
<line x1="0.0597222" y1="-0.00694444" x2="0.0597222" y2="0.0930556" style="stroke:rgb(246,147,147);stroke-width:0.01" />
<line x1="0.159722" y1="0.0930556" x2="0.159722" y2="0.143056" style="stroke:rgb(246,147,147);stroke-width:0.01" />
<line x1="-0.0402778" y1="-0.181944" x2="-0.0777778" y2="-0.144444" style="stroke:rgb(246,147,147);stroke-width:0.01" />
<line x1="0.00972222" y1="-0.0569444" x2="-0.0777778" y2="0.0305556" style="stroke:rgb(246,147,147);stroke-width:0.01" />
<line x1="0.184722" y1="0.118056" x2="0.0722222" y2="0.230556" style="stroke:rgb(246,147,147);stroke-width:0.01" />
</g>
</svg>
