<svg xmlns="http://www.w3.org/2000/svg" viewBox="-1.5 -1.5 3 3">
<g transform="scale(1, -1)">
<path d="M0.024933 -0.189357 L0.149933 -0.189357 L0.186698 -0.152593 L0.205489 0.185643 L-0.236220 0.234874 L-0.374297 0.124489 L-0.125836 0.096797 L-0.015451 -0.041280 L0.053587 0.013912 L0.131164 -0.083127 z " fill="rgb(245,195,195)" />
<path d="M0.149933 -0.314357 L1.149933 -0.314357 L1.149933 0.685643 L0.149933 0.685643  z" fill="none" stroke="rgb(128,128,128)" stroke-width="0.01" />
<line x1="0.186698" y1="-0.152593" x2="0.205489" y2="0.185643" style="stroke:rgb(246,147,147);stroke-width:0.01" />
<line x1="0.149933" y1="-0.189357" x2="0.149933" y2="0.185643" style="stroke:rgb(246,147,147);stroke-width:0.01" />
<line x1="-0.0154512" y1="-0.0412803" x2="-0.23622" y2="0.234874" style="stroke:rgb(246,147,147);stroke-width:0.01" />
<line x1="0.149933" y1="-0.189357" x2="0.186698" y2="-0.152593" style="stroke:rgb(246,147,147);stroke-width:0.01" />
<line x1="0.186698" y1="-0.152593" x2="-0.11199" y2="0.221027" style="stroke:rgb(246,147,147);stroke-width:0.01" />
<line x1="0.0249334" y1="-0.189357" x2="0.194051" y2="-0.0202396" style="stroke:rgb(246,147,147);stroke-width:0.01" />
<line x1="0.0249334" y1="-0.189357" x2="0.149933" y2="-0.189357" style="stroke:rgb(246,147,147);stroke-width:0.01" />
<line x1="0.194051" y1="-0.0202396" x2="0.0122411" y2="0.207181" style="stroke:rgb(246,147,147);stroke-width:0.01" />
<line x1="0.149933" y1="0.0606428" x2="0.201404" y2="0.112113" style="stroke:rgb(246,147,147);stroke-width:0.01" />
<line x1="0.201404" y1="0.112113" x2="0.136472" y2="0.193335" style="stroke:rgb(246,147,147);stroke-width:0.01" />
<line x1="-0.0154512" y1="-0.0412803" x2="0.202565" y2="0.133011" style="stroke:rgb(246,147,147);stroke-width:0.01" />
<line x1="0.202565" y1="0.133011" x2="0.149933" y2="0.185643" style="stroke:rgb(246,147,147);stroke-width:0.01" />
<line x1="-0.0706436" y1="0.0277582" x2="0.136472" y2="0.193335" style="stroke:rgb(246,147,147);stroke-width:0.01" />
<line x1="0.149933" y1="0.0606428" x2="0.198544" y2="0.0606428" style="stroke:rgb(246,147,147);stroke-width:0.01" />
<line x1="0.198544" y1="0.0606428" x2="-0.374297" y2="0.124489" style="stroke:rgb(246,147,147);stroke-width:0.01" />
<line x1="-0.125836" y1="0.0967966" x2="0.0122411" y2="0.207181" style="stroke:rgb(246,147,147);stroke-width:0.01" />
<line x1="-0.181028" y1="0.165835" x2="-0.11199" y2="0.221027" style="stroke:rgb(246,147,147);stroke-width:0.01" />
<line x1="0.205489" y1="0.185643" x2="-0.23622" y2="0.234874" style="stroke:rgb(246,147,147);stroke-width:0.01" />
<line x1="0.149933" y1="0.185643" x2="0.205489" y2="0.185643" style="stroke:rgb(246,147,147);stroke-width:0.01" />
<line x1="-0.374297" y1="0.124489" x2="-0.23622" y2="0.234874" style="stroke:rgb(246,147,147);stroke-width:0.01" />
</g>
</svg>
