<svg xmlns="http://www.w3.org/2000/svg" viewBox="-1.5 -1.5 3 3">
<path d="M-0.292496 -0.261354 L-0.271102 -0.204465 L-0.062528 -0.204465 L-0.032093 -0.151203 L0.026557 -0.174777 L0.275544 0.180130 L0.424506 0.194995 L0.404646 0.394007 L0.377442 0.432225 L-0.406708 -0.000628 L-0.443769 -0.204465 z " fill="rgb(245,195,195)" />
<path d="M-0.605385 -0.204465 L0.394615 -0.204465 L0.394615 0.795535 L-0.605385 0.795535  z" fill="none" stroke="rgb(128,128,128)" stroke-width="0.01" />
<line x1="0.0265573" y1="-0.174777" x2="0.405144" y2="0.364861" style="stroke:rgb(246,147,147);stroke-width:0.01" />
<line x1="-0.0625279" y1="-0.204465" x2="0.266209" y2="0.370824" style="stroke:rgb(246,147,147);stroke-width:0.01" />
<line x1="0.331644" y1="0.260094" x2="0.352162" y2="0.41827" style="stroke:rgb(246,147,147);stroke-width:0.01" />
<line x1="-0.292496" y1="-0.261354" x2="-0.138838" y2="0.147237" style="stroke:rgb(246,147,147);stroke-width:0.01" />
<line x1="-0.201544" y1="0.0803949" x2="-0.157546" y2="0.13691" style="stroke:rgb(246,147,147);stroke-width:0.01" />
<line x1="-0.443769" y1="-0.204465" x2="-0.406708" y2="-0.00062818" style="stroke:rgb(246,147,147);stroke-width:0.01" />
<line x1="-0.186192" y1="-0.00703722" x2="0.331644" y2="0.260094" style="stroke:rgb(246,147,147);stroke-width:0.01" />
<line x1="-0.443769" y1="-0.204465" x2="-0.0625279" y2="-0.204465" style="stroke:rgb(246,147,147);stroke-width:0.01" />
<line x1="-0.201544" y1="0.0803949" x2="0.0913162" y2="0.259783" style="stroke:rgb(246,147,147);stroke-width:0.01" />
<line x1="-0.292496" y1="-0.261354" x2="-0.443769" y2="-0.204465" style="stroke:rgb(246,147,147);stroke-width:0.01" />
<line x1="-0.406708" y1="-0.00062818" x2="0.377442" y2="0.432225" style="stroke:rgb(246,147,147);stroke-width:0.01" />
<line x1="0.424506" y1="0.194995" x2="0.404646" y2="0.394007" style="stroke:rgb(246,147,147);stroke-width:0.01" />
<line x1="-0.186192" y1="-0.00703722" x2="-0.237641" y2="0.0926971" style="stroke:rgb(246,147,147);stroke-width:0.01" />
<line x1="-0.0625279" y1="-0.204465" x2="-0.237641" y2="0.0926971" style="stroke:rgb(246,147,147);stroke-width:0.01" />
<line x1="0.0265573" y1="-0.174777" x2="-0.406708" y2="-0.00062818" style="stroke:rgb(246,147,147);stroke-width:0.01" />
<line x1="-0.157546" y1="0.13691" x2="0.424506" y2="0.194995" style="stroke:rgb(246,147,147);stroke-width:0.01" />
<line x1="0.0265573" y1="-0.174777" x2="-0.201544" y2="0.0803949" style="stroke:rgb(246,147,147);stroke-width:0.01" />
<line x1="0.203238" y1="0.0770644" x2="-0.138838" y2="0.147237" style="stroke:rgb(246,147,147);stroke-width:0.01" />
<line x1="0.203238" y1="0.0770644" x2="0.0913162" y2="0.259783" style="stroke:rgb(246,147,147);stroke-width:0.01" />
<line x1="0.405144" y1="0.364861" x2="0.377442" y2="0.432225" style="stroke:rgb(246,147,147);stroke-width:0.01" />
<line x1="0.405144" y1="0.364861" x2="0.266209" y2="0.370824" style="stroke:rgb(246,147,147);stroke-width:0.01" />
<line x1="0.404646" y1="0.394007" x2="0.377442" y2="0.432225" style="stroke:rgb(246,147,147);stroke-width:0.01" />
<line x1="0.404646" y1="0.394007" x2="0.352162" y2="0.41827" style="stroke:rgb(246,147,147);stroke-width:0.01" />
</svg>
