<svg xmlns="http://www.w3.org/2000/svg" viewBox="-1.5 -1.5 3 3">
<g transform="scale(1, -1)">
<path d="M0.392365 -0.434843 L0.143402 -0.001233 L0.033995 0.028364 L0.272033 0.266402 L-0.227967 0.266402 L-0.359546 0.134823 L-0.254283 -0.259914 z " fill="rgb(245,195,195)" />
<path d="M-0.727967 -0.733598 L0.272033 -0.733598 L0.272033 0.266402 L-0.727967 0.266402  z" fill="none" stroke="rgb(128,128,128)" stroke-width="0.01" />
<line x1="-0.254283" y1="-0.259914" x2="0.272033" y2="0.266402" style="stroke:rgb(246,147,147);stroke-width:0.01" />
<line x1="-0.227967" y1="-0.233598" x2="-0.227967" y2="0.266402" style="stroke:rgb(246,147,147);stroke-width:0.01" />
<line x1="-0.254283" y1="-0.259914" x2="-0.359546" y2="0.134823" style="stroke:rgb(246,147,147);stroke-width:0.01" />
<line x1="-0.2613" y1="-0.233598" x2="0.143402" y2="-0.00123304" style="stroke:rgb(246,147,147);stroke-width:0.01" />
<line x1="-0.359546" y1="0.134823" x2="-0.227967" y2="0.266402" style="stroke:rgb(246,147,147);stroke-width:0.01" />
<line x1="-0.2613" y1="-0.233598" x2="-0.227967" y2="-0.233598" style="stroke:rgb(246,147,147);stroke-width:0.01" />
<line x1="0.392365" y1="-0.434843" x2="0.143402" y2="-0.00123304" style="stroke:rgb(246,147,147);stroke-width:0.01" />
<line x1="0.392365" y1="-0.434843" x2="-0.254283" y2="-0.259914" style="stroke:rgb(246,147,147);stroke-width:0.01" />
<line x1="0.143402" y1="-0.00123304" x2="-0.359546" y2="0.134823" style="stroke:rgb(246,147,147);stroke-width:0.01" />
<line x1="-0.227967" y1="0.266402" x2="0.272033" y2="0.266402" style="stroke:rgb(246,147,147);stroke-width:0.01" />
</g>
</svg>
