<svg xmlns="http://www.w3.org/2000/svg" viewBox="-1.5 -1.5 3 3">
<g transform="scale(1, -1)">
<path d="M0.054688 -0.579518 L0.090191 -0.544310 L0.092558 0.021370 L0.199067 0.126991 L0.093446 0.233500 L0.093889 0.339565 L-0.012176 0.340009 L-0.012915 0.163234 L-0.189690 0.163974 L-0.225193 0.128766 L-0.154779 0.057761 L-0.013359 0.057169 L-0.015726 -0.508512 z " fill="rgb(245,195,195)" />
<path d="M-0.012176 0.162790 L0.987824 0.162790 L0.987824 1.162790 L-0.012176 1.162790  z" fill="none" stroke="rgb(128,128,128)" stroke-width="0.01" />
<line x1="0.0546882" y1="-0.579518" x2="0.0901912" y2="-0.54431" style="stroke:rgb(246,147,147);stroke-width:0.01" />
<line x1="-0.015726" y1="-0.508512" x2="0.0552799" y2="-0.438097" style="stroke:rgb(246,147,147);stroke-width:0.01" />
<line x1="0.0546882" y1="-0.579518" x2="-0.015726" y2="-0.508512" style="stroke:rgb(246,147,147);stroke-width:0.01" />
<line x1="-0.0154301" y1="-0.437802" x2="0.0555758" y2="-0.367387" style="stroke:rgb(246,147,147);stroke-width:0.01" />
<line x1="0.0901912" y1="-0.54431" x2="-0.0154301" y2="-0.437802" style="stroke:rgb(246,147,147);stroke-width:0.01" />
<line x1="-0.0151343" y1="-0.367091" x2="0.0558716" y2="-0.296677" style="stroke:rgb(246,147,147);stroke-width:0.01" />
<line x1="0.0552799" y1="-0.438097" x2="-0.0151343" y2="-0.367091" style="stroke:rgb(246,147,147);stroke-width:0.01" />
<line x1="-0.0148384" y1="-0.296381" x2="0.0561675" y2="-0.225967" style="stroke:rgb(246,147,147);stroke-width:0.01" />
<line x1="0.0555758" y1="-0.367387" x2="-0.0148384" y2="-0.296381" style="stroke:rgb(246,147,147);stroke-width:0.01" />
<line x1="-0.0145426" y1="-0.225671" x2="0.0564634" y2="-0.155257" style="stroke:rgb(246,147,147);stroke-width:0.01" />
<line x1="0.0558716" y1="-0.296677" x2="-0.0145426" y2="-0.225671" style="stroke:rgb(246,147,147);stroke-width:0.01" />
<line x1="-0.0142467" y1="-0.154961" x2="0.0567592" y2="-0.0845471" style="stroke:rgb(246,147,147);stroke-width:0.01" />
<line x1="0.0561675" y1="-0.225967" x2="-0.0142467" y2="-0.154961" style="stroke:rgb(246,147,147);stroke-width:0.01" />
<line x1="-0.0139508" y1="-0.0842513" x2="0.199067" y2="0.126991" style="stroke:rgb(246,147,147);stroke-width:0.01" />
<line x1="0.0564634" y1="-0.155257" x2="-0.0139508" y2="-0.0842513" style="stroke:rgb(246,147,147);stroke-width:0.01" />
<line x1="-0.154779" y1="0.0577606" x2="-0.225193" y2="0.128766" style="stroke:rgb(246,147,147);stroke-width:0.01" />
<line x1="-0.0133591" y1="0.0571689" x2="-0.154779" y2="0.0577606" style="stroke:rgb(246,147,147);stroke-width:0.01" />
<line x1="0.0567592" y1="-0.0845471" x2="-0.013655" y2="-0.0135412" style="stroke:rgb(246,147,147);stroke-width:0.01" />
<line x1="-0.0840692" y1="0.0574647" x2="-0.18969" y2="0.163974" style="stroke:rgb(246,147,147);stroke-width:0.01" />
<line x1="-0.013655" y1="-0.0135412" x2="0.128357" y2="0.127287" style="stroke:rgb(246,147,147);stroke-width:0.01" />
<line x1="-0.0133591" y1="0.0571689" x2="-0.0837733" y2="0.128175" style="stroke:rgb(246,147,147);stroke-width:0.01" />
<line x1="-0.0133591" y1="0.0571689" x2="0.0931497" y2="0.16279" style="stroke:rgb(246,147,147);stroke-width:0.01" />
<line x1="0.0576468" y1="0.127583" x2="-0.0837733" y2="0.128175" style="stroke:rgb(246,147,147);stroke-width:0.01" />
<line x1="0.0221438" y1="0.092376" x2="-0.0130633" y2="0.127879" style="stroke:rgb(246,147,147);stroke-width:0.01" />
<line x1="-0.0840692" y1="0.0574647" x2="0.0579426" y2="0.198293" style="stroke:rgb(246,147,147);stroke-width:0.01" />
<line x1="0.0901912" y1="-0.54431" x2="0.0938894" y2="0.339565" style="stroke:rgb(246,147,147);stroke-width:0.01" />
<line x1="0.0552799" y1="-0.438097" x2="0.0585344" y2="0.339713" style="stroke:rgb(246,147,147);stroke-width:0.01" />
<line x1="-0.015726" y1="-0.508512" x2="-0.0121757" y2="0.340009" style="stroke:rgb(246,147,147);stroke-width:0.01" />
<line x1="0.0931497" y1="0.16279" x2="-0.18969" y2="0.163974" style="stroke:rgb(246,147,147);stroke-width:0.01" />
<line x1="0.0576468" y1="0.127583" x2="-0.0127674" y2="0.198589" style="stroke:rgb(246,147,147);stroke-width:0.01" />
<line x1="-0.154779" y1="0.0577606" x2="-0.0837733" y2="0.128175" style="stroke:rgb(246,147,147);stroke-width:0.01" />
<line x1="-0.0127674" y1="0.198589" x2="0.0582385" y2="0.269003" style="stroke:rgb(246,147,147);stroke-width:0.01" />
<line x1="0.128357" y1="0.127287" x2="-0.0124716" y2="0.269299" style="stroke:rgb(246,147,147);stroke-width:0.01" />
<line x1="-0.0124716" y1="0.269299" x2="0.0585344" y2="0.339713" style="stroke:rgb(246,147,147);stroke-width:0.01" />
<line x1="0.199067" y1="0.126991" x2="-0.0121757" y2="0.340009" style="stroke:rgb(246,147,147);stroke-width:0.01" />
<line x1="-0.225193" y1="0.128766" x2="-0.18969" y2="0.163974" style="stroke:rgb(246,147,147);stroke-width:0.01" />
<line x1="0.0938894" y1="0.339565" x2="-0.0121757" y2="0.340009" style="stroke:rgb(246,147,147);stroke-width:0.01" />
</g>
</svg>
