<svg xmlns="http://www.w3.org/2000/svg" viewBox="-1.5 -1.5 3 3">
<g transform="scale(1, -1)">
<path d="M0.018104 -0.272154 L0.118458 -0.272154 L0.159250 0.031644 L0.320608 0.059194 L0.327812 0.120389 L0.284182 0.133574 L0.196875 0.311853 L-0.694071 0.167197 L-0.749323 -0.034832 L0.018104 -0.244710 z " fill="rgb(245,195,195)" />
<path d="M0.018104 -0.272154 L1.018104 -0.272154 L1.018104 0.727846 L0.018104 0.727846  z" fill="none" stroke="rgb(128,128,128)" stroke-width="0.01" />
<line x1="-0.525451" y1="-0.0852596" x2="-0.694071" y2="0.167197" style="stroke:rgb(246,147,147);stroke-width:0.01" />
<line x1="-0.464047" y1="-0.0747757" x2="-0.509697" y2="-0.0237319" style="stroke:rgb(246,147,147);stroke-width:0.01" />
<line x1="0.320608" y1="0.0591939" x2="0.327812" y2="0.120389" style="stroke:rgb(246,147,147);stroke-width:0.01" />
<line x1="0.118458" y1="-0.272154" x2="0.196875" y2="0.311853" style="stroke:rgb(246,147,147);stroke-width:0.01" />
<line x1="0.0181042" y1="-0.272154" x2="0.118458" y2="-0.272154" style="stroke:rgb(246,147,147);stroke-width:0.01" />
<line x1="0.0181042" y1="-0.272154" x2="0.0181042" y2="0.282827" style="stroke:rgb(246,147,147);stroke-width:0.01" />
<line x1="0.104968" y1="0.0223762" x2="0.103587" y2="0.107115" style="stroke:rgb(246,147,147);stroke-width:0.01" />
<line x1="0.112132" y1="0.0235994" x2="0.103587" y2="0.107115" style="stroke:rgb(246,147,147);stroke-width:0.01" />
<line x1="0.118458" y1="-0.272154" x2="-0.749323" y2="-0.0348321" style="stroke:rgb(246,147,147);stroke-width:0.01" />
<line x1="0.112132" y1="0.0235994" x2="0.11172" y2="0.0253132" style="stroke:rgb(246,147,147);stroke-width:0.01" />
<line x1="0.104968" y1="0.0223762" x2="0.0181042" y2="0.282827" style="stroke:rgb(246,147,147);stroke-width:0.01" />
<line x1="0.288129" y1="0.0536486" x2="0.31342" y2="0.0738721" style="stroke:rgb(246,147,147);stroke-width:0.01" />
<line x1="0.0776403" y1="0.0177103" x2="0.209018" y2="0.145744" style="stroke:rgb(246,147,147);stroke-width:0.01" />
<line x1="-0.525451" y1="-0.0852596" x2="-0.509697" y2="-0.0237319" style="stroke:rgb(246,147,147);stroke-width:0.01" />
<line x1="-0.0251658" y1="0.000157525" x2="0.0903402" y2="0.122796" style="stroke:rgb(246,147,147);stroke-width:0.01" />
<line x1="0.320608" y1="0.0591939" x2="0.196875" y2="0.311853" style="stroke:rgb(246,147,147);stroke-width:0.01" />
<line x1="-0.0251658" y1="0.000157525" x2="-0.364644" y2="0.175655" style="stroke:rgb(246,147,147);stroke-width:0.01" />
<line x1="-0.464047" y1="-0.0747757" x2="-0.344963" y2="0.213726" style="stroke:rgb(246,147,147);stroke-width:0.01" />
<line x1="-0.749323" y1="-0.0348321" x2="-0.694071" y2="0.167197" style="stroke:rgb(246,147,147);stroke-width:0.01" />
<line x1="-0.364644" y1="0.175655" x2="-0.344963" y2="0.213726" style="stroke:rgb(246,147,147);stroke-width:0.01" />
<line x1="0.11172" y1="0.0253132" x2="0.31342" y2="0.0738721" style="stroke:rgb(246,147,147);stroke-width:0.01" />
<line x1="0.0776403" y1="0.0177103" x2="-0.344963" y2="0.213726" style="stroke:rgb(246,147,147);stroke-width:0.01" />
<line x1="-0.525451" y1="-0.0852596" x2="0.320608" y2="0.0591939" style="stroke:rgb(246,147,147);stroke-width:0.01" />
<line x1="0.217654" y1="0.138098" x2="0.241353" y2="0.146518" style="stroke:rgb(246,147,147);stroke-width:0.01" />
<line x1="0.217654" y1="0.138098" x2="0.209018" y2="0.145744" style="stroke:rgb(246,147,147);stroke-width:0.01" />
<line x1="-0.509697" y1="-0.0237319" x2="0.181629" y2="0.145088" style="stroke:rgb(246,147,147);stroke-width:0.01" />
<line x1="0.103587" y1="0.107115" x2="0.327812" y2="0.120389" style="stroke:rgb(246,147,147);stroke-width:0.01" />
<line x1="0.288129" y1="0.0536486" x2="0.0903402" y2="0.122796" style="stroke:rgb(246,147,147);stroke-width:0.01" />
<line x1="0.181629" y1="0.145088" x2="0.241353" y2="0.146518" style="stroke:rgb(246,147,147);stroke-width:0.01" />
<line x1="0.217654" y1="0.138098" x2="0.181629" y2="0.145088" style="stroke:rgb(246,147,147);stroke-width:0.01" />
<line x1="0.327812" y1="0.120389" x2="0.241353" y2="0.146518" style="stroke:rgb(246,147,147);stroke-width:0.01" />
<line x1="-0.694071" y1="0.167197" x2="0.196875" y2="0.311853" style="stroke:rgb(246,147,147);stroke-width:0.01" />
</g>
</svg>
