<svg xmlns="http://www.w3.org/2000/svg" viewBox="-1.5 -1.5 3 3">
<g transform="scale(1, -1)">
<path d="M-0.193182 -0.193182 L0.056818 -0.193182 L0.181818 -0.068182 L0.181818 0.056818 L0.056818 0.181818 L-0.068182 0.181818 L-0.193182 0.056818 z M-0.068182 -0.068182 L-0.068182 0.056818 L0.056818 0.056818 L0.056818 -0.068182 z " fill="rgb(245,195,195)" />
<path d="M-1000000000000000000.000000 -0.193182 L-1000000000000000000.000000 -0.193182 L-1000000000000000000.000000 0.806818 L-1000000000000000000.000000 0.806818  z" fill="none" stroke="rgb(128,128,128)" stroke-width="0.01" />
<line x1="0.0568182" y1="-0.193182" x2="0.181818" y2="-0.0681818" style="stroke:rgb(246,147,147);stroke-width:0.01" />
<line x1="-0.193182" y1="0.0568182" x2="-0.0681818" y2="0.181818" style="stroke:rgb(246,147,147);stroke-width:0.01" />
<line x1="-0.193182" y1="-0.193182" x2="0.0568182" y2="-0.193182" style="stroke:rgb(246,147,147);stroke-width:0.01" />
<line x1="-0.193182" y1="-0.193182" x2="-0.193182" y2="0.0568182" style="stroke:rgb(246,147,147);stroke-width:0.01" />
<line x1="-0.0681818" y1="-0.0681818" x2="-0.0681818" y2="0.181818" style="stroke:rgb(246,147,147);stroke-width:0.01" />
<line x1="0.0568182" y1="-0.193182" x2="0.0568182" y2="0.181818" style="stroke:rgb(246,147,147);stroke-width:0.01" />
<line x1="0.181818" y1="-0.0681818" x2="0.181818" y2="0.0568182" style="stroke:rgb(246,147,147);stroke-width:0.01" />
<line x1="-0.193182" y1="-0.0681818" x2="0.181818" y2="-0.0681818" style="stroke:rgb(246,147,147);stroke-width:0.01" />
<line x1="-0.193182" y1="0.0568182" x2="0.181818" y2="0.0568182" style="stroke:rgb(246,147,147);stroke-width:0.01" />
<line x1="-0.0681818" y1="0.181818" x2="0.0568182" y2="0.181818" style="stroke:rgb(246,147,147);stroke-width:0.01" />
<line x1="0.181818" y1="0.0568182" x2="0.0568182" y2="0.181818" style="stroke:rgb(246,147,147);stroke-width:0.01" />
</g>
</svg>
