<svg xmlns="http://www.w3.org/2000/svg" viewBox="-1.5 -1.5 3 3">
<g transform="scale(1, -1)">
<path d="M-0.288719 -0.321232 L0.028180 -0.113267 L0.086770 0.024372 L0.252788 0.034132 L0.274796 0.048575 L0.280783 0.213759 L0.444305 0.272127 L0.451176 0.298016 L0.383672 0.315933 L0.287017 0.385766 L-0.115633 0.189048 L-0.431089 -0.261603 L-0.419384 -0.270122 L-0.419031 -0.269718 L-0.409841 -0.275902 L-0.405791 -0.269884 z " fill="rgb(245,195,195)" />
<path d="M-0.507882 -0.371308 L0.492118 -0.371308 L0.492118 0.628692 L-0.507882 0.628692  z" fill="none" stroke="rgb(128,128,128)" stroke-width="0.01" />
<line x1="0.252788" y1="0.0341323" x2="0.262518" y2="0.0533807" style="stroke:rgb(246,147,147);stroke-width:0.01" />
<line x1="0.444305" y1="0.272127" x2="0.451176" y2="0.298016" style="stroke:rgb(246,147,147);stroke-width:0.01" />
<line x1="0.0281799" y1="-0.113267" x2="0.228424" y2="0.35714" style="stroke:rgb(246,147,147);stroke-width:0.01" />
<line x1="-0.217694" y1="-0.274622" x2="-0.194199" y2="-0.194449" style="stroke:rgb(246,147,147);stroke-width:0.01" />
<line x1="-0.288719" y1="-0.321232" x2="0.0281799" y2="-0.113267" style="stroke:rgb(246,147,147);stroke-width:0.01" />
<line x1="0.252788" y1="0.0341323" x2="0.274796" y2="0.048575" style="stroke:rgb(246,147,147);stroke-width:0.01" />
<line x1="0.194564" y1="0.182984" x2="0.296598" y2="0.27904" style="stroke:rgb(246,147,147);stroke-width:0.01" />
<line x1="-0.232666" y1="-0.272753" x2="-0.228801" y2="-0.250155" style="stroke:rgb(246,147,147);stroke-width:0.01" />
<line x1="-0.129054" y1="0.0618322" x2="-0.115633" y2="0.189048" style="stroke:rgb(246,147,147);stroke-width:0.01" />
<line x1="0.274796" y1="0.048575" x2="0.287017" y2="0.385766" style="stroke:rgb(246,147,147);stroke-width:0.01" />
<line x1="-0.409841" y1="-0.275902" x2="-0.0877913" y2="0.20265" style="stroke:rgb(246,147,147);stroke-width:0.01" />
<line x1="-0.231271" y1="-0.283532" x2="-0.230095" y2="-0.111502" style="stroke:rgb(246,147,147);stroke-width:0.01" />
<line x1="-0.419384" y1="-0.270122" x2="-0.129054" y2="0.0618322" style="stroke:rgb(246,147,147);stroke-width:0.01" />
<line x1="-0.431089" y1="-0.261603" x2="-0.115633" y2="0.189048" style="stroke:rgb(246,147,147);stroke-width:0.01" />
<line x1="-0.288719" y1="-0.321232" x2="-0.289224" y2="-0.196563" style="stroke:rgb(246,147,147);stroke-width:0.01" />
<line x1="-0.224091" y1="-0.0468307" x2="-0.224613" y2="0.0333628" style="stroke:rgb(246,147,147);stroke-width:0.01" />
<line x1="-0.187493" y1="-0.254803" x2="-0.220211" y2="0.0396514" style="stroke:rgb(246,147,147);stroke-width:0.01" />
<line x1="-0.267475" y1="-0.30729" x2="-0.289224" y2="-0.196563" style="stroke:rgb(246,147,147);stroke-width:0.01" />
<line x1="-0.240721" y1="-0.256518" x2="-0.286313" y2="-0.0547806" style="stroke:rgb(246,147,147);stroke-width:0.01" />
<line x1="-0.419384" y1="-0.270122" x2="-0.429581" y2="-0.25945" style="stroke:rgb(246,147,147);stroke-width:0.01" />
<line x1="-0.219733" y1="-0.27596" x2="-0.228801" y2="-0.250155" style="stroke:rgb(246,147,147);stroke-width:0.01" />
<line x1="-0.227803" y1="-0.0510739" x2="-0.244542" y2="0.00489295" style="stroke:rgb(246,147,147);stroke-width:0.01" />
<line x1="-0.419384" y1="-0.270122" x2="-0.431089" y2="-0.261603" style="stroke:rgb(246,147,147);stroke-width:0.01" />
<line x1="-0.409841" y1="-0.275902" x2="-0.431089" y2="-0.261603" style="stroke:rgb(246,147,147);stroke-width:0.01" />
<line x1="-0.288719" y1="-0.321232" x2="-0.429581" y2="-0.25945" style="stroke:rgb(246,147,147);stroke-width:0.01" />
<line x1="0.27251" y1="0.0470747" x2="0.224759" y2="0.355349" style="stroke:rgb(246,147,147);stroke-width:0.01" />
<line x1="-0.382757" y1="-0.228244" x2="-0.397042" y2="-0.212965" style="stroke:rgb(246,147,147);stroke-width:0.01" />
<line x1="-0.217694" y1="-0.274622" x2="-0.232666" y2="-0.272753" style="stroke:rgb(246,147,147);stroke-width:0.01" />
<line x1="-0.226829" y1="-0.280616" x2="-0.240721" y2="-0.256518" style="stroke:rgb(246,147,147);stroke-width:0.01" />
<line x1="-0.382757" y1="-0.228244" x2="-0.399435" y2="-0.216383" style="stroke:rgb(246,147,147);stroke-width:0.01" />
<line x1="-0.267475" y1="-0.30729" x2="-0.399435" y2="-0.216383" style="stroke:rgb(246,147,147);stroke-width:0.01" />
<line x1="-0.226829" y1="-0.280616" x2="-0.289224" y2="-0.196563" style="stroke:rgb(246,147,147);stroke-width:0.01" />
<line x1="-0.231271" y1="-0.283532" x2="-0.397042" y2="-0.212965" style="stroke:rgb(246,147,147);stroke-width:0.01" />
<line x1="-0.194199" y1="-0.194449" x2="-0.278139" y2="-0.0431034" style="stroke:rgb(246,147,147);stroke-width:0.01" />
<line x1="-0.219733" y1="-0.27596" x2="-0.240721" y2="-0.256518" style="stroke:rgb(246,147,147);stroke-width:0.01" />
<line x1="-0.228801" y1="-0.250155" x2="-0.289224" y2="-0.196563" style="stroke:rgb(246,147,147);stroke-width:0.01" />
<line x1="-0.187493" y1="-0.254803" x2="-0.289224" y2="-0.196563" style="stroke:rgb(246,147,147);stroke-width:0.01" />
<line x1="0.0281799" y1="-0.113267" x2="-0.230095" y2="-0.111502" style="stroke:rgb(246,147,147);stroke-width:0.01" />
<line x1="-0.224613" y1="0.0333628" x2="0.444305" y2="0.272127" style="stroke:rgb(246,147,147);stroke-width:0.01" />
<line x1="-0.286313" y1="-0.0547806" x2="-0.224091" y2="-0.0468307" style="stroke:rgb(246,147,147);stroke-width:0.01" />
<line x1="-0.115633" y1="0.189048" x2="0.287017" y2="0.385766" style="stroke:rgb(246,147,147);stroke-width:0.01" />
<line x1="-0.220211" y1="0.0396514" x2="-0.129054" y2="0.0618322" style="stroke:rgb(246,147,147);stroke-width:0.01" />
<line x1="-0.227803" y1="-0.0510739" x2="-0.278139" y2="-0.0431034" style="stroke:rgb(246,147,147);stroke-width:0.01" />
<line x1="-0.244542" y1="0.00489295" x2="0.252788" y2="0.0341323" style="stroke:rgb(246,147,147);stroke-width:0.01" />
<line x1="0.194564" y1="0.182984" x2="-0.0877913" y2="0.20265" style="stroke:rgb(246,147,147);stroke-width:0.01" />
<line x1="0.274796" y1="0.048575" x2="0.262518" y2="0.0533807" style="stroke:rgb(246,147,147);stroke-width:0.01" />
<line x1="0.27251" y1="0.0470747" x2="0.262518" y2="0.0533807" style="stroke:rgb(246,147,147);stroke-width:0.01" />
<line x1="0.296598" y1="0.27904" x2="0.224759" y2="0.355349" style="stroke:rgb(246,147,147);stroke-width:0.01" />
<line x1="0.451176" y1="0.298016" x2="0.228424" y2="0.35714" style="stroke:rgb(246,147,147);stroke-width:0.01" />
<line x1="0.444305" y1="0.272127" x2="0.287017" y2="0.385766" style="stroke:rgb(246,147,147);stroke-width:0.01" />
</g>
</svg>
