<svg xmlns="http://www.w3.org/2000/svg" viewBox="-1.5 -1.5 3 3">
<g transform="scale(1, -1)">
<path d="M-0.117508 -0.143541 L-0.114200 -0.140315 L-0.114223 -0.138425 L-0.103409 -0.121584 L-0.056141 -0.100609 L-0.072690 -0.053520 L0.184349 0.020887 L0.221742 0.071878 L0.260224 0.085756 L0.266264 0.132590 L-0.042094 0.255933 L-0.125107 0.217619 L-0.187207 -0.086669 z " fill="rgb(245,195,195)" />
<path d="M-0.369474 -0.279782 L0.630526 -0.279782 L0.630526 0.720218 L-0.369474 0.720218  z" fill="none" stroke="rgb(128,128,128)" stroke-width="0.01" />
<line x1="0.184349" y1="0.0208866" x2="0.266264" y2="0.13259" style="stroke:rgb(246,147,147);stroke-width:0.01" />
<line x1="0.000215339" y1="-0.0324152" x2="0.0441731" y2="0.0759832" style="stroke:rgb(246,147,147);stroke-width:0.01" />
<line x1="0.00323999" y1="-0.0315396" x2="0.0441731" y2="0.0759832" style="stroke:rgb(246,147,147);stroke-width:0.01" />
<line x1="-0.117508" y1="-0.143541" x2="-0.0956764" y2="-0.109543" style="stroke:rgb(246,147,147);stroke-width:0.01" />
<line x1="0.260224" y1="0.0857564" x2="0.266264" y2="0.13259" style="stroke:rgb(246,147,147);stroke-width:0.01" />
<line x1="-0.026531" y1="-0.0401575" x2="0.154074" y2="0.177466" style="stroke:rgb(246,147,147);stroke-width:0.01" />
<line x1="-0.0272655" y1="0.0986521" x2="-0.0246314" y2="0.106637" style="stroke:rgb(246,147,147);stroke-width:0.01" />
<line x1="-0.117508" y1="-0.143541" x2="-0.1142" y2="-0.140315" style="stroke:rgb(246,147,147);stroke-width:0.01" />
<line x1="-0.0635762" y1="0.192276" x2="-0.0420935" y2="0.255933" style="stroke:rgb(246,147,147);stroke-width:0.01" />
<line x1="-0.129972" y1="-0.133371" x2="-0.126052" y2="-0.115477" style="stroke:rgb(246,147,147);stroke-width:0.01" />
<line x1="-0.136056" y1="0.0565667" x2="-0.113126" y2="0.13781" style="stroke:rgb(246,147,147);stroke-width:0.01" />
<line x1="0.142535" y1="0.00878247" x2="0.154074" y2="0.177466" style="stroke:rgb(246,147,147);stroke-width:0.01" />
<line x1="-0.183738" y1="-0.0894991" x2="-0.179071" y2="-0.0820877" style="stroke:rgb(246,147,147);stroke-width:0.01" />
<line x1="-0.187207" y1="-0.0866689" x2="-0.125107" y2="0.217619" style="stroke:rgb(246,147,147);stroke-width:0.01" />
<line x1="0.0507048" y1="0.087706" x2="0.0570367" y2="0.216281" style="stroke:rgb(246,147,147);stroke-width:0.01" />
<line x1="-0.160075" y1="0.0462759" x2="-0.113126" y2="0.13781" style="stroke:rgb(246,147,147);stroke-width:0.01" />
<line x1="-0.142247" y1="-0.123355" x2="-0.123158" y2="0.215466" style="stroke:rgb(246,147,147);stroke-width:0.01" />
<line x1="-0.136056" y1="0.0565667" x2="-0.135299" y2="0.146525" style="stroke:rgb(246,147,147);stroke-width:0.01" />
<line x1="-0.181907" y1="-0.0606996" x2="0.0570367" y2="0.216281" style="stroke:rgb(246,147,147);stroke-width:0.01" />
<line x1="-0.1142" y1="-0.140315" x2="-0.118416" y2="0.210228" style="stroke:rgb(246,147,147);stroke-width:0.01" />
<line x1="-0.183738" y1="-0.0894991" x2="-0.0912031" y2="-0.000842375" style="stroke:rgb(246,147,147);stroke-width:0.01" />
<line x1="-0.136745" y1="0.160593" x2="-0.0929033" y2="0.232482" style="stroke:rgb(246,147,147);stroke-width:0.01" />
<line x1="-0.148315" y1="-0.118403" x2="-0.160075" y2="0.0462759" style="stroke:rgb(246,147,147);stroke-width:0.01" />
<line x1="-0.129972" y1="-0.133371" x2="-0.0561415" y2="-0.100609" style="stroke:rgb(246,147,147);stroke-width:0.01" />
<line x1="-0.132783" y1="0.133461" x2="-0.136745" y2="0.160593" style="stroke:rgb(246,147,147);stroke-width:0.01" />
<line x1="-0.151752" y1="0.0870598" x2="-0.0813607" y2="0.169298" style="stroke:rgb(246,147,147);stroke-width:0.01" />
<line x1="-0.168819" y1="-0.101672" x2="-0.181907" y2="-0.0606996" style="stroke:rgb(246,147,147);stroke-width:0.01" />
<line x1="-0.140857" y1="0.140445" x2="-0.135299" y2="0.146525" style="stroke:rgb(246,147,147);stroke-width:0.01" />
<line x1="-0.104542" y1="-0.0627397" x2="-0.136056" y2="0.0565667" style="stroke:rgb(246,147,147);stroke-width:0.01" />
<line x1="-0.142247" y1="-0.123355" x2="-0.0561415" y2="-0.100609" style="stroke:rgb(246,147,147);stroke-width:0.01" />
<line x1="-0.167289" y1="0.0109294" x2="0.0334288" y2="0.157844" style="stroke:rgb(246,147,147);stroke-width:0.01" />
<line x1="-0.104542" y1="-0.0627397" x2="-0.151752" y2="0.0870598" style="stroke:rgb(246,147,147);stroke-width:0.01" />
<line x1="-0.0561415" y1="-0.100609" x2="-0.140857" y2="0.140445" style="stroke:rgb(246,147,147);stroke-width:0.01" />
<line x1="-0.184771" y1="-0.0747336" x2="0.260224" y2="0.0857564" style="stroke:rgb(246,147,147);stroke-width:0.01" />
<line x1="-0.187207" y1="-0.0866689" x2="0.184349" y2="0.0208866" style="stroke:rgb(246,147,147);stroke-width:0.01" />
<line x1="-0.148315" y1="-0.118403" x2="-0.126052" y2="-0.115477" style="stroke:rgb(246,147,147);stroke-width:0.01" />
<line x1="-0.0956764" y1="-0.109543" x2="-0.167289" y2="0.0109294" style="stroke:rgb(246,147,147);stroke-width:0.01" />
<line x1="-0.132783" y1="0.133461" x2="-0.0813607" y2="0.169298" style="stroke:rgb(246,147,147);stroke-width:0.01" />
<line x1="-0.0956764" y1="-0.109543" x2="-0.168819" y2="-0.101672" style="stroke:rgb(246,147,147);stroke-width:0.01" />
<line x1="-0.1142" y1="-0.140315" x2="-0.184771" y2="-0.0747336" style="stroke:rgb(246,147,147);stroke-width:0.01" />
<line x1="-0.117508" y1="-0.143541" x2="-0.187207" y2="-0.0866689" style="stroke:rgb(246,147,147);stroke-width:0.01" />
<line x1="-0.126052" y1="-0.115477" x2="-0.179071" y2="-0.0820877" style="stroke:rgb(246,147,147);stroke-width:0.01" />
<line x1="-0.152169" y1="0.0850169" x2="-0.130203" y2="0.0904124" style="stroke:rgb(246,147,147);stroke-width:0.01" />
<line x1="-0.153626" y1="0.0778777" x2="-0.0246314" y2="0.106637" style="stroke:rgb(246,147,147);stroke-width:0.01" />
<line x1="-0.0912031" y1="-0.000842375" x2="-0.168301" y2="0.00596682" style="stroke:rgb(246,147,147);stroke-width:0.01" />
<line x1="-0.125107" y1="0.217619" x2="-0.0420935" y2="0.255933" style="stroke:rgb(246,147,147);stroke-width:0.01" />
<line x1="-0.026531" y1="-0.0401575" x2="-0.168301" y2="0.00596682" style="stroke:rgb(246,147,147);stroke-width:0.01" />
<line x1="0.00323999" y1="-0.0315396" x2="-0.152169" y2="0.0850169" style="stroke:rgb(246,147,147);stroke-width:0.01" />
<line x1="0.000215339" y1="-0.0324152" x2="-0.153626" y2="0.0778777" style="stroke:rgb(246,147,147);stroke-width:0.01" />
<line x1="0.142535" y1="0.00878247" x2="0.0334288" y2="0.157844" style="stroke:rgb(246,147,147);stroke-width:0.01" />
<line x1="-0.0246314" y1="0.106637" x2="-0.125107" y2="0.217619" style="stroke:rgb(246,147,147);stroke-width:0.01" />
<line x1="0.0507048" y1="0.087706" x2="-0.149607" y2="0.0975707" style="stroke:rgb(246,147,147);stroke-width:0.01" />
<line x1="-0.130203" y1="0.0904124" x2="-0.149607" y2="0.0975707" style="stroke:rgb(246,147,147);stroke-width:0.01" />
<line x1="-0.0272655" y1="0.0986521" x2="-0.132783" y2="0.133461" style="stroke:rgb(246,147,147);stroke-width:0.01" />
<line x1="0.184349" y1="0.0208866" x2="-0.135299" y2="0.146525" style="stroke:rgb(246,147,147);stroke-width:0.01" />
<line x1="-0.123158" y1="0.215466" x2="-0.125526" y2="0.215568" style="stroke:rgb(246,147,147);stroke-width:0.01" />
<line x1="-0.118416" y1="0.210228" x2="-0.126433" y2="0.211124" style="stroke:rgb(246,147,147);stroke-width:0.01" />
<line x1="-0.0635762" y1="0.192276" x2="-0.125526" y2="0.215568" style="stroke:rgb(246,147,147);stroke-width:0.01" />
<line x1="-0.0635762" y1="0.192276" x2="-0.126433" y2="0.211124" style="stroke:rgb(246,147,147);stroke-width:0.01" />
<line x1="0.260224" y1="0.0857564" x2="0.0892522" y2="0.203394" style="stroke:rgb(246,147,147);stroke-width:0.01" />
<line x1="0.0892522" y1="0.203394" x2="-0.0929033" y2="0.232482" style="stroke:rgb(246,147,147);stroke-width:0.01" />
<line x1="0.266264" y1="0.13259" x2="-0.0420935" y2="0.255933" style="stroke:rgb(246,147,147);stroke-width:0.01" />
</g>
</svg>
