<svg xmlns="http://www.w3.org/2000/svg" viewBox="-1.5 -1.5 3 3">
<g transform="scale(1, -1)">
<path d="M0.157262 -0.393657 L0.372101 0.231328 L0.300117 0.269877 L0.287293 0.245931 L0.124074 0.274037 L-0.575348 0.140797 L-0.617773 -0.105577 L-0.023278 -0.326550 L-0.024449 -0.336187 z " fill="rgb(245,195,195)" />
<path d="M-0.674340 -1.267409 L0.325660 -1.267409 L0.325660 -0.267409 L-0.674340 -0.267409  z" fill="none" stroke="rgb(128,128,128)" stroke-width="0.01" />
<line x1="0.157262" y1="-0.393657" x2="0.372101" y2="0.231328" style="stroke:rgb(246,147,147);stroke-width:0.01" />
<line x1="-0.0244489" y1="-0.336187" x2="-0.0123357" y2="-0.236541" style="stroke:rgb(246,147,147);stroke-width:0.01" />
<line x1="-0.0244489" y1="-0.336187" x2="0.300117" y2="0.269877" style="stroke:rgb(246,147,147);stroke-width:0.01" />
<line x1="-0.544474" y1="-0.132822" x2="-0.542466" y2="-0.105637" style="stroke:rgb(246,147,147);stroke-width:0.01" />
<line x1="-0.540392" y1="-0.134339" x2="-0.542466" y2="-0.105637" style="stroke:rgb(246,147,147);stroke-width:0.01" />
<line x1="-0.617773" y1="-0.105577" x2="-0.575348" y2="0.140797" style="stroke:rgb(246,147,147);stroke-width:0.01" />
<line x1="-0.00596155" y1="-0.342034" x2="0.00101871" y2="-0.333277" style="stroke:rgb(246,147,147);stroke-width:0.01" />
<line x1="-0.00596155" y1="-0.342034" x2="-0.0123357" y2="-0.236541" style="stroke:rgb(246,147,147);stroke-width:0.01" />
<line x1="-0.544474" y1="-0.132822" x2="-0.447523" y2="-0.00206571" style="stroke:rgb(246,147,147);stroke-width:0.01" />
<line x1="-0.445313" y1="-0.0727231" x2="-0.575348" y2="0.140797" style="stroke:rgb(246,147,147);stroke-width:0.01" />
<line x1="-0.370456" y1="-0.197504" x2="-0.459537" y2="-0.053239" style="stroke:rgb(246,147,147);stroke-width:0.01" />
<line x1="-0.0532542" y1="-0.270936" x2="0.00484613" y2="-0.237062" style="stroke:rgb(246,147,147);stroke-width:0.01" />
<line x1="-0.540392" y1="-0.134339" x2="-0.459537" y2="-0.053239" style="stroke:rgb(246,147,147);stroke-width:0.01" />
<line x1="-0.0131237" y1="-0.339768" x2="0.00101871" y2="-0.333277" style="stroke:rgb(246,147,147);stroke-width:0.01" />
<line x1="-0.0131237" y1="-0.339768" x2="-0.0532542" y2="-0.270936" style="stroke:rgb(246,147,147);stroke-width:0.01" />
<line x1="0.0124228" y1="-0.347848" x2="0.191671" y2="-0.293558" style="stroke:rgb(246,147,147);stroke-width:0.01" />
<line x1="0.0124228" y1="-0.347848" x2="0.00101871" y2="-0.333277" style="stroke:rgb(246,147,147);stroke-width:0.01" />
<line x1="0.191671" y1="-0.293558" x2="0.0997671" y2="-0.163319" style="stroke:rgb(246,147,147);stroke-width:0.01" />
<line x1="-0.445313" y1="-0.0727231" x2="0.124074" y2="0.274037" style="stroke:rgb(246,147,147);stroke-width:0.01" />
<line x1="-0.370456" y1="-0.197504" x2="-0.0807118" y2="-0.106008" style="stroke:rgb(246,147,147);stroke-width:0.01" />
<line x1="0.00356193" y1="-0.336527" x2="-0.447523" y2="-0.00206571" style="stroke:rgb(246,147,147);stroke-width:0.01" />
<line x1="0.172608" y1="-0.349014" x2="0.00356193" y2="-0.336527" style="stroke:rgb(246,147,147);stroke-width:0.01" />
<line x1="0.172608" y1="-0.349014" x2="0.00484613" y2="-0.237062" style="stroke:rgb(246,147,147);stroke-width:0.01" />
<line x1="-0.617773" y1="-0.105577" x2="-0.459537" y2="-0.053239" style="stroke:rgb(246,147,147);stroke-width:0.01" />
<line x1="0.157262" y1="-0.393657" x2="-0.0244489" y2="-0.336187" style="stroke:rgb(246,147,147);stroke-width:0.01" />
<line x1="0.157262" y1="-0.393657" x2="-0.617773" y2="-0.105577" style="stroke:rgb(246,147,147);stroke-width:0.01" />
<line x1="0.208964" y1="-0.243251" x2="-0.0123357" y2="-0.236541" style="stroke:rgb(246,147,147);stroke-width:0.01" />
<line x1="0.208964" y1="-0.243251" x2="0.0997671" y2="-0.163319" style="stroke:rgb(246,147,147);stroke-width:0.01" />
<line x1="-0.0807118" y1="-0.106008" x2="-0.617773" y2="-0.105577" style="stroke:rgb(246,147,147);stroke-width:0.01" />
<line x1="0.0997671" y1="-0.163319" x2="-0.0807118" y2="-0.106008" style="stroke:rgb(246,147,147);stroke-width:0.01" />
<line x1="-0.575348" y1="0.140797" x2="0.124074" y2="0.274037" style="stroke:rgb(246,147,147);stroke-width:0.01" />
<line x1="0.372101" y1="0.231328" x2="0.300117" y2="0.269877" style="stroke:rgb(246,147,147);stroke-width:0.01" />
<line x1="0.372101" y1="0.231328" x2="0.124074" y2="0.274037" style="stroke:rgb(246,147,147);stroke-width:0.01" />
</g>
</svg>
