<svg xmlns="http://www.w3.org/2000/svg" viewBox="-1.5 -1.5 3 3">
<g transform="scale(1, -1)">
<path d="M-0.050591 -0.450094 L-0.022250 -0.398699 L0.075084 -0.305616 L0.077952 -0.216991 L0.121836 -0.137410 L0.122852 -0.136963 L0.122618 -0.135991 L0.142843 -0.099315 L0.099751 -0.040756 L0.053095 0.153551 L-0.044657 0.294528 L-0.101583 0.482260 L-0.171444 0.477382 L-0.172549 0.478976 L-0.186255 0.476348 L-0.066702 -0.441210 z " fill="rgb(245,195,195)" />
<path d="M0.000459 0.286947 L1.000459 0.286947 L1.000459 1.286947 L0.000459 1.286947  z" fill="none" stroke="rgb(128,128,128)" stroke-width="0.01" />
<line x1="-0.050591" y1="-0.450094" x2="-0.066702" y2="-0.44121" style="stroke:rgb(246,147,147);stroke-width:0.01" />
<line x1="0.0554483" y1="-0.248695" x2="-0.0928401" y2="-0.240602" style="stroke:rgb(246,147,147);stroke-width:0.01" />
<line x1="-0.0928401" y1="-0.240602" x2="0.0789912" y2="-0.184866" style="stroke:rgb(246,147,147);stroke-width:0.01" />
<line x1="-0.104647" y1="-0.149986" x2="0.122852" y2="-0.136963" style="stroke:rgb(246,147,147);stroke-width:0.01" />
<line x1="0.0139782" y1="-0.184819" x2="0.122852" y2="-0.136963" style="stroke:rgb(246,147,147);stroke-width:0.01" />
<line x1="-0.104647" y1="-0.149986" x2="0.142843" y2="-0.099315" style="stroke:rgb(246,147,147);stroke-width:0.01" />
<line x1="0.0789912" y1="-0.184866" x2="-0.101898" y2="-0.112964" style="stroke:rgb(246,147,147);stroke-width:0.01" />
<line x1="-0.066702" y1="-0.44121" x2="0.0750842" y2="-0.305616" style="stroke:rgb(246,147,147);stroke-width:0.01" />
<line x1="0.069073" y1="0.000933062" x2="-0.130893" y2="0.0514551" style="stroke:rgb(246,147,147);stroke-width:0.01" />
<line x1="0.0750842" y1="-0.305616" x2="-0.101898" y2="-0.112964" style="stroke:rgb(246,147,147);stroke-width:0.01" />
<line x1="-0.050591" y1="-0.450094" x2="0.142843" y2="-0.099315" style="stroke:rgb(246,147,147);stroke-width:0.01" />
<line x1="0.0530945" y1="0.153551" x2="-0.145108" y2="0.160549" style="stroke:rgb(246,147,147);stroke-width:0.01" />
<line x1="-0.130893" y1="0.0514551" x2="0.0530945" y2="0.153551" style="stroke:rgb(246,147,147);stroke-width:0.01" />
<line x1="0.0604727" y1="0.122824" x2="0.0141519" y2="0.147915" style="stroke:rgb(246,147,147);stroke-width:0.01" />
<line x1="-0.101898" y1="-0.112964" x2="0.0604727" y2="0.122824" style="stroke:rgb(246,147,147);stroke-width:0.01" />
<line x1="-0.145108" y1="0.160549" x2="-0.0159094" y2="0.199726" style="stroke:rgb(246,147,147);stroke-width:0.01" />
<line x1="0.0139782" y1="-0.184819" x2="-0.148174" y2="0.184086" style="stroke:rgb(246,147,147);stroke-width:0.01" />
<line x1="0.0179356" y1="0.204258" x2="-0.0538751" y2="0.225781" style="stroke:rgb(246,147,147);stroke-width:0.01" />
<line x1="0.142843" y1="-0.099315" x2="-0.165918" y2="0.32027" style="stroke:rgb(246,147,147);stroke-width:0.01" />
<line x1="0.0530945" y1="0.153551" x2="-0.163228" y2="0.299619" style="stroke:rgb(246,147,147);stroke-width:0.01" />
<line x1="-0.0538751" y1="0.225781" x2="-0.173037" y2="0.374906" style="stroke:rgb(246,147,147);stroke-width:0.01" />
<line x1="0.0855655" y1="0.0183211" x2="0.0141519" y2="0.147915" style="stroke:rgb(246,147,147);stroke-width:0.01" />
<line x1="-0.066702" y1="-0.44121" x2="-0.186255" y2="0.476348" style="stroke:rgb(246,147,147);stroke-width:0.01" />
<line x1="0.0530945" y1="0.153551" x2="-0.172549" y2="0.478976" style="stroke:rgb(246,147,147);stroke-width:0.01" />
<line x1="-0.0159094" y1="0.199726" x2="-0.101583" y2="0.48226" style="stroke:rgb(246,147,147);stroke-width:0.01" />
<line x1="0.0554483" y1="-0.248695" x2="0.069073" y2="0.000933062" style="stroke:rgb(246,147,147);stroke-width:0.01" />
<line x1="0.0750842" y1="-0.305616" x2="0.0855655" y2="0.0183211" style="stroke:rgb(246,147,147);stroke-width:0.01" />
<line x1="-0.096499" y1="0.376046" x2="-0.184124" y2="0.459998" style="stroke:rgb(246,147,147);stroke-width:0.01" />
<line x1="0.0141519" y1="0.147915" x2="0.0179356" y2="0.204258" style="stroke:rgb(246,147,147);stroke-width:0.01" />
<line x1="0.122852" y1="-0.136963" x2="0.0530945" y2="0.153551" style="stroke:rgb(246,147,147);stroke-width:0.01" />
<line x1="-0.096499" y1="0.376046" x2="-0.152814" y2="0.420801" style="stroke:rgb(246,147,147);stroke-width:0.01" />
<line x1="-0.148174" y1="0.184086" x2="-0.101583" y2="0.48226" style="stroke:rgb(246,147,147);stroke-width:0.01" />
<line x1="-0.165918" y1="0.32027" x2="-0.128452" y2="0.415378" style="stroke:rgb(246,147,147);stroke-width:0.01" />
<line x1="-0.173037" y1="0.374906" x2="-0.152814" y2="0.420801" style="stroke:rgb(246,147,147);stroke-width:0.01" />
<line x1="-0.163228" y1="0.299619" x2="-0.096499" y2="0.376046" style="stroke:rgb(246,147,147);stroke-width:0.01" />
<line x1="-0.184124" y1="0.459998" x2="-0.172549" y2="0.478976" style="stroke:rgb(246,147,147);stroke-width:0.01" />
<line x1="-0.1782" y1="0.414532" x2="-0.128452" y2="0.415378" style="stroke:rgb(246,147,147);stroke-width:0.01" />
<line x1="-0.1782" y1="0.414532" x2="-0.152814" y2="0.420801" style="stroke:rgb(246,147,147);stroke-width:0.01" />
<line x1="-0.186255" y1="0.476348" x2="-0.101583" y2="0.48226" style="stroke:rgb(246,147,147);stroke-width:0.01" />
<line x1="-0.186255" y1="0.476348" x2="-0.172549" y2="0.478976" style="stroke:rgb(246,147,147);stroke-width:0.01" />
</g>
</svg>
