<svg xmlns="http://www.w3.org/2000/svg" viewBox="-1.5 -1.5 3 3">
<g transform="scale(1, -1)">
<path d="M0.216226 -0.355735 L0.239520 -0.316658 L0.294705 -0.344424 L0.345704 -0.331580 L0.311524 -0.195869 L0.245104 -0.186141 L0.279150 -0.155042 L-0.332919 0.515016 L-0.343583 0.528508 L-0.345314 0.528585 L-0.395286 0.583291 L-0.450115 0.533207 L-0.213480 -0.118982 L0.067659 -0.348230 L0.081106 -0.335947 z " fill="rgb(245,195,195)" />
<path d="M-0.478774 -0.006665 L0.521226 -0.006665 L0.521226 0.993335 L-0.478774 0.993335  z" fill="none" stroke="rgb(128,128,128)" stroke-width="0.01" />
<line x1="0.294705" y1="-0.344424" x2="0.345704" y2="-0.33158" style="stroke:rgb(246,147,147);stroke-width:0.01" />
<line x1="0.151333" y1="-0.27146" x2="0.155682" y2="-0.268209" style="stroke:rgb(246,147,147);stroke-width:0.01" />
<line x1="0.0676589" y1="-0.34823" x2="0.27915" y2="-0.155042" style="stroke:rgb(246,147,147);stroke-width:0.01" />
<line x1="0.0223497" y1="-0.311284" x2="0.158829" y2="-0.269146" style="stroke:rgb(246,147,147);stroke-width:0.01" />
<line x1="0.158829" y1="-0.269146" x2="0.228305" y2="-0.183681" style="stroke:rgb(246,147,147);stroke-width:0.01" />
<line x1="0.216226" y1="-0.355735" x2="0.311524" y2="-0.195869" style="stroke:rgb(246,147,147);stroke-width:0.01" />
<line x1="0.00290786" y1="-0.29543" x2="0.155682" y2="-0.268209" style="stroke:rgb(246,147,147);stroke-width:0.01" />
<line x1="0.0676589" y1="-0.34823" x2="0.170771" y2="-0.175255" style="stroke:rgb(246,147,147);stroke-width:0.01" />
<line x1="-0.0471972" y1="-0.202514" x2="-0.00722638" y2="-0.183184" style="stroke:rgb(246,147,147);stroke-width:0.01" />
<line x1="-0.0535954" y1="-0.194811" x2="-0.00722638" y2="-0.183184" style="stroke:rgb(246,147,147);stroke-width:0.01" />
<line x1="0.216226" y1="-0.355735" x2="0.0463542" y2="-0.330857" style="stroke:rgb(246,147,147);stroke-width:0.01" />
<line x1="-0.0750122" y1="-0.175115" x2="-0.0301312" y2="-0.165822" style="stroke:rgb(246,147,147);stroke-width:0.01" />
<line x1="0.151333" y1="-0.27146" x2="-0.0364029" y2="-0.263375" style="stroke:rgb(246,147,147);stroke-width:0.01" />
<line x1="-0.0535954" y1="-0.194811" x2="-0.0220901" y2="-0.142218" style="stroke:rgb(246,147,147);stroke-width:0.01" />
<line x1="-0.0471972" y1="-0.202514" x2="-0.0301312" y2="-0.165822" style="stroke:rgb(246,147,147);stroke-width:0.01" />
<line x1="-0.185828" y1="-0.14153" x2="-0.128665" y2="-0.131403" style="stroke:rgb(246,147,147);stroke-width:0.01" />
<line x1="-0.102477" y1="0.0363482" x2="-0.0916726" y2="0.0495579" style="stroke:rgb(246,147,147);stroke-width:0.01" />
<line x1="-0.112152" y1="0.0279735" x2="-0.0881402" y2="0.0398222" style="stroke:rgb(246,147,147);stroke-width:0.01" />
<line x1="-0.0750122" y1="-0.175115" x2="-0.0573859" y2="-0.0830121" style="stroke:rgb(246,147,147);stroke-width:0.01" />
<line x1="0.311524" y1="-0.195869" x2="-0.21348" y2="-0.118982" style="stroke:rgb(246,147,147);stroke-width:0.01" />
<line x1="0.158829" y1="-0.269146" x2="0.155682" y2="-0.268209" style="stroke:rgb(246,147,147);stroke-width:0.01" />
<line x1="-0.288284" y1="0.0871846" x2="-0.245871" y2="0.139038" style="stroke:rgb(246,147,147);stroke-width:0.01" />
<line x1="0.0223497" y1="-0.311284" x2="0.0259187" y2="-0.274535" style="stroke:rgb(246,147,147);stroke-width:0.01" />
<line x1="-0.102477" y1="0.0363482" x2="-0.0881402" y2="0.0398222" style="stroke:rgb(246,147,147);stroke-width:0.01" />
<line x1="-0.302015" y1="0.125029" x2="-0.279065" y2="0.20098" style="stroke:rgb(246,147,147);stroke-width:0.01" />
<line x1="-0.258799" y1="0.0059212" x2="-0.237702" y2="0.223147" style="stroke:rgb(246,147,147);stroke-width:0.01" />
<line x1="-0.379781" y1="0.339359" x2="-0.343583" y2="0.528508" style="stroke:rgb(246,147,147);stroke-width:0.01" />
<line x1="-0.185828" y1="-0.14153" x2="-0.199137" y2="0.345741" style="stroke:rgb(246,147,147);stroke-width:0.01" />
<line x1="0.00290786" y1="-0.29543" x2="0.000514948" y2="-0.20452" style="stroke:rgb(246,147,147);stroke-width:0.01" />
<line x1="-0.0220901" y1="-0.142218" x2="-0.15558" y2="-0.0957533" style="stroke:rgb(246,147,147);stroke-width:0.01" />
<line x1="0.294705" y1="-0.344424" x2="-0.128665" y2="-0.131403" style="stroke:rgb(246,147,147);stroke-width:0.01" />
<line x1="-0.0573859" y1="-0.0830121" x2="-0.0656171" y2="-0.0222536" style="stroke:rgb(246,147,147);stroke-width:0.01" />
<line x1="0.0676589" y1="-0.34823" x2="-0.21348" y2="-0.118982" style="stroke:rgb(246,147,147);stroke-width:0.01" />
<line x1="-0.21348" y1="-0.118982" x2="-0.450115" y2="0.533207" style="stroke:rgb(246,147,147);stroke-width:0.01" />
<line x1="-0.279065" y1="0.20098" x2="-0.237702" y2="0.223147" style="stroke:rgb(246,147,147);stroke-width:0.01" />
<line x1="-0.0364029" y1="-0.263375" x2="-0.0535954" y2="-0.194811" style="stroke:rgb(246,147,147);stroke-width:0.01" />
<line x1="-0.15558" y1="-0.0957533" x2="-0.215412" y2="0.0681375" style="stroke:rgb(246,147,147);stroke-width:0.01" />
<line x1="0.0259187" y1="-0.274535" x2="-0.258799" y2="0.0059212" style="stroke:rgb(246,147,147);stroke-width:0.01" />
<line x1="-0.0916726" y1="0.0495579" x2="-0.288284" y2="0.0871846" style="stroke:rgb(246,147,147);stroke-width:0.01" />
<line x1="-0.245871" y1="0.139038" x2="-0.279065" y2="0.20098" style="stroke:rgb(246,147,147);stroke-width:0.01" />
<line x1="0.0463542" y1="-0.330857" x2="-0.199137" y2="0.345741" style="stroke:rgb(246,147,147);stroke-width:0.01" />
<line x1="0.216226" y1="-0.355735" x2="0.170771" y2="-0.175255" style="stroke:rgb(246,147,147);stroke-width:0.01" />
<line x1="-0.0573859" y1="-0.0830121" x2="-0.112152" y2="0.0279735" style="stroke:rgb(246,147,147);stroke-width:0.01" />
<line x1="0.000514948" y1="-0.20452" x2="-0.215412" y2="0.0681375" style="stroke:rgb(246,147,147);stroke-width:0.01" />
<line x1="-0.215412" y1="0.0681375" x2="-0.302015" y2="0.125029" style="stroke:rgb(246,147,147);stroke-width:0.01" />
<line x1="0.345704" y1="-0.33158" x2="0.311524" y2="-0.195869" style="stroke:rgb(246,147,147);stroke-width:0.01" />
<line x1="-0.0656171" y1="-0.0222536" x2="-0.102477" y2="0.0363482" style="stroke:rgb(246,147,147);stroke-width:0.01" />
<line x1="0.294705" y1="-0.344424" x2="0.228305" y2="-0.183681" style="stroke:rgb(246,147,147);stroke-width:0.01" />
<line x1="-0.237702" y1="0.223147" x2="-0.379781" y2="0.339359" style="stroke:rgb(246,147,147);stroke-width:0.01" />
<line x1="-0.199137" y1="0.345741" x2="-0.343583" y2="0.528508" style="stroke:rgb(246,147,147);stroke-width:0.01" />
<line x1="-0.450115" y1="0.533207" x2="-0.395286" y2="0.583291" style="stroke:rgb(246,147,147);stroke-width:0.01" />
<line x1="0.27915" y1="-0.155042" x2="-0.395286" y2="0.583291" style="stroke:rgb(246,147,147);stroke-width:0.01" />
<line x1="-0.343583" y1="0.528508" x2="-0.450115" y2="0.533207" style="stroke:rgb(246,147,147);stroke-width:0.01" />
</g>
</svg>
