<svg xmlns="http://www.w3.org/2000/svg" viewBox="-1.5 -1.5 3 3">
<g transform="scale(1, -1)">
<path d="M-0.356061 -0.446970 L-0.189394 -0.446970 L0.393939 0.136364 L0.393939 0.219697 L0.310606 0.303030 L0.227273 0.303030 L0.060606 0.136364 L-0.106061 0.136364 L-0.189394 0.053030 L-0.189394 -0.113636 L-0.356061 -0.280303 z " fill="rgb(245,195,195)" />
<path d="M-0.606061 -0.530303 L0.393939 -0.530303 L0.393939 0.469697 L-0.606061 0.469697  z" fill="none" stroke="rgb(128,128,128)" stroke-width="0.01" />
<line x1="-0.189394" y1="-0.44697" x2="0.393939" y2="0.136364" style="stroke:rgb(246,147,147);stroke-width:0.01" />
<line x1="0.0606061" y1="-0.030303" x2="0.102273" y2="0.0113636" style="stroke:rgb(246,147,147);stroke-width:0.01" />
<line x1="0.268939" y1="0.261364" x2="0.310606" y2="0.30303" style="stroke:rgb(246,147,147);stroke-width:0.01" />
<line x1="-0.356061" y1="-0.280303" x2="0.227273" y2="0.30303" style="stroke:rgb(246,147,147);stroke-width:0.01" />
<line x1="-0.356061" y1="-0.44697" x2="-0.356061" y2="-0.280303" style="stroke:rgb(246,147,147);stroke-width:0.01" />
<line x1="-0.272727" y1="-0.44697" x2="-0.272727" y2="-0.19697" style="stroke:rgb(246,147,147);stroke-width:0.01" />
<line x1="-0.189394" y1="-0.44697" x2="-0.189394" y2="0.0530303" style="stroke:rgb(246,147,147);stroke-width:0.01" />
<line x1="-0.106061" y1="-0.363636" x2="-0.106061" y2="0.136364" style="stroke:rgb(246,147,147);stroke-width:0.01" />
<line x1="-0.0227273" y1="-0.280303" x2="-0.0227273" y2="0.0530303" style="stroke:rgb(246,147,147);stroke-width:0.01" />
<line x1="0.0606061" y1="-0.19697" x2="0.0606061" y2="0.0530303" style="stroke:rgb(246,147,147);stroke-width:0.01" />
<line x1="0.143939" y1="-0.113636" x2="0.143939" y2="-0.030303" style="stroke:rgb(246,147,147);stroke-width:0.01" />
<line x1="0.227273" y1="-0.030303" x2="0.227273" y2="0.30303" style="stroke:rgb(246,147,147);stroke-width:0.01" />
<line x1="0.310606" y1="0.0530303" x2="0.310606" y2="0.30303" style="stroke:rgb(246,147,147);stroke-width:0.01" />
<line x1="0.393939" y1="0.136364" x2="0.393939" y2="0.219697" style="stroke:rgb(246,147,147);stroke-width:0.01" />
<line x1="-0.189394" y1="0.0530303" x2="-0.106061" y2="0.136364" style="stroke:rgb(246,147,147);stroke-width:0.01" />
<line x1="-0.356061" y1="-0.44697" x2="-0.189394" y2="-0.44697" style="stroke:rgb(246,147,147);stroke-width:0.01" />
<line x1="-0.356061" y1="-0.363636" x2="-0.106061" y2="-0.363636" style="stroke:rgb(246,147,147);stroke-width:0.01" />
<line x1="-0.356061" y1="-0.280303" x2="-0.0227273" y2="-0.280303" style="stroke:rgb(246,147,147);stroke-width:0.01" />
<line x1="-0.272727" y1="-0.19697" x2="0.0606061" y2="-0.19697" style="stroke:rgb(246,147,147);stroke-width:0.01" />
<line x1="-0.189394" y1="-0.113636" x2="0.143939" y2="-0.113636" style="stroke:rgb(246,147,147);stroke-width:0.01" />
<line x1="-0.189394" y1="-0.030303" x2="-0.106061" y2="-0.030303" style="stroke:rgb(246,147,147);stroke-width:0.01" />
<line x1="-0.0227273" y1="-0.030303" x2="0.227273" y2="-0.030303" style="stroke:rgb(246,147,147);stroke-width:0.01" />
<line x1="-0.106061" y1="-0.030303" x2="-0.189394" y2="0.0530303" style="stroke:rgb(246,147,147);stroke-width:0.01" />
<line x1="-0.0227273" y1="0.0530303" x2="0.310606" y2="0.0530303" style="stroke:rgb(246,147,147);stroke-width:0.01" />
<line x1="0.143939" y1="-0.030303" x2="0.0606061" y2="0.0530303" style="stroke:rgb(246,147,147);stroke-width:0.01" />
<line x1="-0.106061" y1="0.136364" x2="0.393939" y2="0.136364" style="stroke:rgb(246,147,147);stroke-width:0.01" />
<line x1="0.227273" y1="0.219697" x2="0.393939" y2="0.219697" style="stroke:rgb(246,147,147);stroke-width:0.01" />
<line x1="0.227273" y1="0.30303" x2="0.310606" y2="0.30303" style="stroke:rgb(246,147,147);stroke-width:0.01" />
<line x1="0.268939" y1="0.261364" x2="0.227273" y2="0.30303" style="stroke:rgb(246,147,147);stroke-width:0.01" />
<line x1="0.393939" y1="0.219697" x2="0.310606" y2="0.30303" style="stroke:rgb(246,147,147);stroke-width:0.01" />
</g>
</svg>
