<svg xmlns="http://www.w3.org/2000/svg" viewBox="-1.5 -1.5 3 3">
<g transform="scale(1, -1)">
<path d="M-0.276515 -0.200758 L0.140152 -0.200758 L0.306818 -0.034091 L0.306818 0.049242 L0.223485 0.132576 L-0.026515 0.132576 L-0.026515 0.049242 L-0.068182 0.007576 L-0.109848 0.049242 L-0.193182 0.049242 L-0.276515 -0.034091 z " fill="rgb(245,195,195)" />
<path d="M-0.276515 -0.534091 L0.723485 -0.534091 L0.723485 0.465909 L-0.276515 0.465909  z" fill="none" stroke="rgb(128,128,128)" stroke-width="0.01" />
<line x1="0.140152" y1="-0.200758" x2="0.306818" y2="-0.0340909" style="stroke:rgb(246,147,147);stroke-width:0.01" />
<line x1="-0.276515" y1="-0.200758" x2="-0.276515" y2="-0.0340909" style="stroke:rgb(246,147,147);stroke-width:0.01" />
<line x1="-0.109848" y1="-0.200758" x2="-0.109848" y2="0.0492424" style="stroke:rgb(246,147,147);stroke-width:0.01" />
<line x1="-0.0265152" y1="-0.200758" x2="-0.0265152" y2="0.132576" style="stroke:rgb(246,147,147);stroke-width:0.01" />
<line x1="0.0568182" y1="-0.117424" x2="0.0568182" y2="0.132576" style="stroke:rgb(246,147,147);stroke-width:0.01" />
<line x1="0.140152" y1="-0.200758" x2="0.140152" y2="0.132576" style="stroke:rgb(246,147,147);stroke-width:0.01" />
<line x1="0.223485" y1="-0.117424" x2="0.223485" y2="-0.0340909" style="stroke:rgb(246,147,147);stroke-width:0.01" />
<line x1="0.223485" y1="0.0492424" x2="0.223485" y2="0.132576" style="stroke:rgb(246,147,147);stroke-width:0.01" />
<line x1="0.306818" y1="-0.0340909" x2="0.306818" y2="0.0492424" style="stroke:rgb(246,147,147);stroke-width:0.01" />
<line x1="0.0568182" y1="-0.117424" x2="0.140152" y2="-0.0340909" style="stroke:rgb(246,147,147);stroke-width:0.01" />
<line x1="-0.109848" y1="-0.0340909" x2="0.0568182" y2="0.132576" style="stroke:rgb(246,147,147);stroke-width:0.01" />
<line x1="-0.276515" y1="-0.0340909" x2="-0.193182" y2="0.0492424" style="stroke:rgb(246,147,147);stroke-width:0.01" />
<line x1="-0.276515" y1="-0.200758" x2="0.140152" y2="-0.200758" style="stroke:rgb(246,147,147);stroke-width:0.01" />
<line x1="-0.109848" y1="-0.0340909" x2="-0.193182" y2="0.0492424" style="stroke:rgb(246,147,147);stroke-width:0.01" />
<line x1="0.140152" y1="-0.200758" x2="-0.109848" y2="0.0492424" style="stroke:rgb(246,147,147);stroke-width:0.01" />
<line x1="-0.109848" y1="-0.117424" x2="0.223485" y2="-0.117424" style="stroke:rgb(246,147,147);stroke-width:0.01" />
<line x1="-0.276515" y1="-0.0340909" x2="0.306818" y2="-0.0340909" style="stroke:rgb(246,147,147);stroke-width:0.01" />
<line x1="-0.193182" y1="0.0492424" x2="-0.109848" y2="0.0492424" style="stroke:rgb(246,147,147);stroke-width:0.01" />
<line x1="-0.0265152" y1="0.0492424" x2="0.0568182" y2="0.0492424" style="stroke:rgb(246,147,147);stroke-width:0.01" />
<line x1="0.223485" y1="0.0492424" x2="0.306818" y2="0.0492424" style="stroke:rgb(246,147,147);stroke-width:0.01" />
<line x1="0.306818" y1="0.0492424" x2="0.223485" y2="0.132576" style="stroke:rgb(246,147,147);stroke-width:0.01" />
<line x1="-0.0265152" y1="0.132576" x2="0.223485" y2="0.132576" style="stroke:rgb(246,147,147);stroke-width:0.01" />
</g>
</svg>
