<svg xmlns="http://www.w3.org/2000/svg" viewBox="-1.5 -1.5 3 3">
<g transform="scale(1, -1)">
<path d="M-0.386364 -0.196970 L-0.303030 -0.196970 L-0.219697 -0.113636 L0.030303 -0.113636 L0.030303 -0.030303 L0.280303 -0.030303 L0.363636 0.053030 L0.363636 0.136364 L0.196970 0.303030 L0.030303 0.303030 L-0.386364 -0.113636 z " fill="rgb(245,195,195)" />
<path d="M-0.553030 -0.196970 L0.446970 -0.196970 L0.446970 0.803030 L-0.553030 0.803030  z" fill="none" stroke="rgb(128,128,128)" stroke-width="0.01" />
<line x1="0.280303" y1="-0.030303" x2="0.363636" y2="0.0530303" style="stroke:rgb(246,147,147);stroke-width:0.01" />
<line x1="-0.30303" y1="-0.19697" x2="0.19697" y2="0.30303" style="stroke:rgb(246,147,147);stroke-width:0.01" />
<line x1="-0.386364" y1="-0.19697" x2="-0.219697" y2="-0.030303" style="stroke:rgb(246,147,147);stroke-width:0.01" />
<line x1="-0.136364" y1="0.0530303" x2="-0.0530303" y2="0.136364" style="stroke:rgb(246,147,147);stroke-width:0.01" />
<line x1="-0.386364" y1="-0.113636" x2="0.030303" y2="0.30303" style="stroke:rgb(246,147,147);stroke-width:0.01" />
<line x1="-0.386364" y1="-0.19697" x2="-0.30303" y2="-0.19697" style="stroke:rgb(246,147,147);stroke-width:0.01" />
<line x1="-0.386364" y1="-0.19697" x2="-0.386364" y2="-0.113636" style="stroke:rgb(246,147,147);stroke-width:0.01" />
<line x1="-0.30303" y1="-0.19697" x2="-0.30303" y2="-0.030303" style="stroke:rgb(246,147,147);stroke-width:0.01" />
<line x1="-0.219697" y1="-0.113636" x2="-0.219697" y2="0.0530303" style="stroke:rgb(246,147,147);stroke-width:0.01" />
<line x1="-0.136364" y1="0.0530303" x2="-0.136364" y2="0.136364" style="stroke:rgb(246,147,147);stroke-width:0.01" />
<line x1="-0.0530303" y1="-0.030303" x2="-0.0530303" y2="0.219697" style="stroke:rgb(246,147,147);stroke-width:0.01" />
<line x1="0.030303" y1="-0.113636" x2="0.030303" y2="0.30303" style="stroke:rgb(246,147,147);stroke-width:0.01" />
<line x1="0.19697" y1="-0.030303" x2="0.19697" y2="0.0530303" style="stroke:rgb(246,147,147);stroke-width:0.01" />
<line x1="0.280303" y1="-0.030303" x2="0.280303" y2="0.219697" style="stroke:rgb(246,147,147);stroke-width:0.01" />
<line x1="0.363636" y1="0.0530303" x2="0.363636" y2="0.136364" style="stroke:rgb(246,147,147);stroke-width:0.01" />
<line x1="-0.386364" y1="-0.113636" x2="0.030303" y2="-0.113636" style="stroke:rgb(246,147,147);stroke-width:0.01" />
<line x1="-0.30303" y1="-0.030303" x2="0.280303" y2="-0.030303" style="stroke:rgb(246,147,147);stroke-width:0.01" />
<line x1="-0.219697" y1="0.0530303" x2="0.363636" y2="0.0530303" style="stroke:rgb(246,147,147);stroke-width:0.01" />
<line x1="-0.136364" y1="0.136364" x2="0.363636" y2="0.136364" style="stroke:rgb(246,147,147);stroke-width:0.01" />
<line x1="-0.0530303" y1="-0.030303" x2="-0.136364" y2="0.0530303" style="stroke:rgb(246,147,147);stroke-width:0.01" />
<line x1="-0.0530303" y1="0.219697" x2="0.280303" y2="0.219697" style="stroke:rgb(246,147,147);stroke-width:0.01" />
<line x1="0.030303" y1="0.30303" x2="0.19697" y2="0.30303" style="stroke:rgb(246,147,147);stroke-width:0.01" />
<line x1="0.280303" y1="-0.030303" x2="0.19697" y2="0.0530303" style="stroke:rgb(246,147,147);stroke-width:0.01" />
<line x1="0.363636" y1="0.136364" x2="0.19697" y2="0.30303" style="stroke:rgb(246,147,147);stroke-width:0.01" />
</g>
</svg>
