<svg xmlns="http://www.w3.org/2000/svg" viewBox="-1.5 -1.5 3 3">
<g transform="scale(1, -1)">
<path d="M-0.613792 -0.327130 L0.386208 -0.327130 L0.279065 -0.126237 L0.361818 -0.107618 L0.309285 0.125861 L-0.013792 0.422870 L-0.444242 0.229963 L-0.264551 0.109421 z " fill="rgb(245,195,195)" />
<path d="M-0.613792 -0.327130 L0.386208 -0.327130 L0.386208 0.672870 L-0.613792 0.672870  z" fill="none" stroke="rgb(128,128,128)" stroke-width="0.01" />
<line x1="-0.613792" y1="-0.32713" x2="0.386208" y2="-0.32713" style="stroke:rgb(246,147,147);stroke-width:0.01" />
<line x1="-0.613792" y1="-0.32713" x2="0.361818" y2="-0.107618" style="stroke:rgb(246,147,147);stroke-width:0.01" />
<line x1="-0.613792" y1="-0.32713" x2="-0.0137918" y2="0.42287" style="stroke:rgb(246,147,147);stroke-width:0.01" />
<line x1="0.361818" y1="-0.107618" x2="0.309285" y2="0.125861" style="stroke:rgb(246,147,147);stroke-width:0.01" />
<line x1="-0.444242" y1="0.229963" x2="-0.0137918" y2="0.42287" style="stroke:rgb(246,147,147);stroke-width:0.01" />
<line x1="0.386208" y1="-0.32713" x2="-0.0137918" y2="0.42287" style="stroke:rgb(246,147,147);stroke-width:0.01" />
<line x1="0.386208" y1="-0.32713" x2="-0.444242" y2="0.229963" style="stroke:rgb(246,147,147);stroke-width:0.01" />
<line x1="0.309285" y1="0.125861" x2="-0.444242" y2="0.229963" style="stroke:rgb(246,147,147);stroke-width:0.01" />
<line x1="0.309285" y1="0.125861" x2="-0.0137918" y2="0.42287" style="stroke:rgb(246,147,147);stroke-width:0.01" />
</g>
</svg>
