<svg xmlns="http://www.w3.org/2000/svg" viewBox="-1.5 -1.5 3 3">
<g transform="scale(1, -1)">
<path d="M-0.228741 -0.546166 L-0.157561 -0.546166 L-0.157561 -0.487053 L0.343584 0.245133 L0.358645 0.232509 L0.422007 0.113869 L0.495143 0.103821 L0.496902 0.116625 L0.409906 0.342033 L-0.010225 0.390962 L-0.324835 0.343717 L-0.291302 0.120414 L-0.302197 0.114938 L-0.290329 0.008123 L-0.267668 -0.036966 L-0.236440 -0.244912 L-0.259328 -0.270881 z " fill="rgb(245,195,195)" />
<path d="M-1.157561 -0.546166 L-0.157561 -0.546166 L-0.157561 0.453834 L-1.157561 0.453834  z" fill="none" stroke="rgb(128,128,128)" stroke-width="0.01" />
<line x1="0.422007" y1="0.113869" x2="0.464383" y2="0.200883" style="stroke:rgb(246,147,147);stroke-width:0.01" />
<line x1="-0.192428" y1="-0.537995" x2="0.409906" y2="0.342033" style="stroke:rgb(246,147,147);stroke-width:0.01" />
<line x1="-0.259328" y1="-0.270881" x2="0.292872" y2="0.355663" style="stroke:rgb(246,147,147);stroke-width:0.01" />
<line x1="0.495143" y1="0.103821" x2="0.496902" y2="0.116625" style="stroke:rgb(246,147,147);stroke-width:0.01" />
<line x1="-0.228741" y1="-0.546166" x2="-0.192428" y2="-0.537995" style="stroke:rgb(246,147,147);stroke-width:0.01" />
<line x1="-0.290329" y1="0.008123" x2="-0.265946" y2="0.105898" style="stroke:rgb(246,147,147);stroke-width:0.01" />
<line x1="-0.247847" y1="-0.374211" x2="-0.157561" y2="-0.344626" style="stroke:rgb(246,147,147);stroke-width:0.01" />
<line x1="-0.228741" y1="-0.546166" x2="-0.157561" y2="-0.546166" style="stroke:rgb(246,147,147);stroke-width:0.01" />
<line x1="-0.157561" y1="-0.546166" x2="-0.157561" y2="-0.344626" style="stroke:rgb(246,147,147);stroke-width:0.01" />
<line x1="-0.228741" y1="-0.546166" x2="-0.259328" y2="-0.270881" style="stroke:rgb(246,147,147);stroke-width:0.01" />
<line x1="-0.290329" y1="0.008123" x2="-0.302197" y2="0.114938" style="stroke:rgb(246,147,147);stroke-width:0.01" />
<line x1="-0.192428" y1="-0.537995" x2="-0.324835" y2="0.343717" style="stroke:rgb(246,147,147);stroke-width:0.01" />
<line x1="-0.302197" y1="0.114938" x2="0.198618" y2="0.36664" style="stroke:rgb(246,147,147);stroke-width:0.01" />
<line x1="-0.0906174" y1="-0.389247" x2="-0.247847" y2="-0.374211" style="stroke:rgb(246,147,147);stroke-width:0.01" />
<line x1="-0.0906174" y1="-0.389247" x2="-0.290329" y2="0.008123" style="stroke:rgb(246,147,147);stroke-width:0.01" />
<line x1="-0.157561" y1="-0.344626" x2="-0.259328" y2="-0.270881" style="stroke:rgb(246,147,147);stroke-width:0.01" />
<line x1="0.496902" y1="0.116625" x2="0.409906" y2="0.342033" style="stroke:rgb(246,147,147);stroke-width:0.01" />
<line x1="-0.324835" y1="0.343717" x2="-0.0102252" y2="0.390962" style="stroke:rgb(246,147,147);stroke-width:0.01" />
<line x1="0.422007" y1="0.113869" x2="0.292872" y2="0.355663" style="stroke:rgb(246,147,147);stroke-width:0.01" />
<line x1="-0.265946" y1="0.105898" x2="-0.302197" y2="0.114938" style="stroke:rgb(246,147,147);stroke-width:0.01" />
<line x1="0.495143" y1="0.103821" x2="0.422007" y2="0.113869" style="stroke:rgb(246,147,147);stroke-width:0.01" />
<line x1="0.409906" y1="0.342033" x2="-0.0102252" y2="0.390962" style="stroke:rgb(246,147,147);stroke-width:0.01" />
<line x1="0.464383" y1="0.200883" x2="-0.0102252" y2="0.390962" style="stroke:rgb(246,147,147);stroke-width:0.01" />
<line x1="0.496902" y1="0.116625" x2="0.198618" y2="0.36664" style="stroke:rgb(246,147,147);stroke-width:0.01" />
</g>
</svg>
