<svg xmlns="http://www.w3.org/2000/svg" viewBox="-1.5 -1.5 3 3">
<g transform="scale(1, -1)">
<path d="M-0.455357 -0.241071 L0.357143 -0.241071 L0.544643 -0.053571 L0.544643 0.196429 L-0.205357 0.196429 L-0.330357 0.071429 L-0.455357 0.071429 z " fill="rgb(245,195,195)" />
<path d="M-0.455357 -0.553571 L0.544643 -0.553571 L0.544643 0.446429 L-0.455357 0.446429  z" fill="none" stroke="rgb(128,128,128)" stroke-width="0.01" />
<line x1="0.357143" y1="-0.241071" x2="0.544643" y2="-0.0535714" style="stroke:rgb(246,147,147);stroke-width:0.01" />
<line x1="-0.455357" y1="-0.241071" x2="-0.455357" y2="0.0714286" style="stroke:rgb(246,147,147);stroke-width:0.01" />
<line x1="0.0446429" y1="-0.241071" x2="0.0446429" y2="0.196429" style="stroke:rgb(246,147,147);stroke-width:0.01" />
<line x1="0.544643" y1="-0.0535714" x2="0.544643" y2="0.196429" style="stroke:rgb(246,147,147);stroke-width:0.01" />
<line x1="-0.455357" y1="-0.0535714" x2="-0.205357" y2="0.196429" style="stroke:rgb(246,147,147);stroke-width:0.01" />
<line x1="-0.455357" y1="-0.241071" x2="0.357143" y2="-0.241071" style="stroke:rgb(246,147,147);stroke-width:0.01" />
<line x1="-0.455357" y1="-0.0535714" x2="0.544643" y2="-0.0535714" style="stroke:rgb(246,147,147);stroke-width:0.01" />
<line x1="0.0446429" y1="-0.0535714" x2="-0.205357" y2="0.196429" style="stroke:rgb(246,147,147);stroke-width:0.01" />
<line x1="0.357143" y1="-0.241071" x2="0.0446429" y2="0.0714286" style="stroke:rgb(246,147,147);stroke-width:0.01" />
<line x1="-0.455357" y1="0.0714286" x2="0.0446429" y2="0.0714286" style="stroke:rgb(246,147,147);stroke-width:0.01" />
<line x1="-0.205357" y1="0.196429" x2="0.544643" y2="0.196429" style="stroke:rgb(246,147,147);stroke-width:0.01" />
</g>
</svg>
