<svg xmlns="http://www.w3.org/2000/svg" viewBox="-1.5 -1.5 3 3">
<g transform="scale(1, -1)">
<path d="M-0.086538 -0.269231 L-0.024038 -0.206731 L-0.024038 0.105769 L0.100962 0.105769 L0.100962 -0.019231 L0.163462 -0.019231 L0.163462 0.105769 L0.100962 0.168269 L-0.024038 0.168269 L-0.086538 0.105769 L-0.086538 -0.019231 L-0.149038 -0.019231 L-0.149038 -0.206731 z " fill="rgb(245,195,195)" />
<path d="M-0.086538 -0.519231 L0.913462 -0.519231 L0.913462 0.480769 L-0.086538 0.480769  z" fill="none" stroke="rgb(128,128,128)" stroke-width="0.01" />
<line x1="-0.149038" y1="-0.206731" x2="-0.149038" y2="-0.0192308" style="stroke:rgb(246,147,147);stroke-width:0.01" />
<line x1="-0.0865385" y1="-0.269231" x2="-0.0865385" y2="0.105769" style="stroke:rgb(246,147,147);stroke-width:0.01" />
<line x1="-0.0240385" y1="-0.206731" x2="-0.0240385" y2="0.168269" style="stroke:rgb(246,147,147);stroke-width:0.01" />
<line x1="0.100962" y1="-0.0192308" x2="0.100962" y2="0.168269" style="stroke:rgb(246,147,147);stroke-width:0.01" />
<line x1="0.163462" y1="-0.0192308" x2="0.163462" y2="0.105769" style="stroke:rgb(246,147,147);stroke-width:0.01" />
<line x1="-0.0865385" y1="-0.269231" x2="-0.0240385" y2="-0.206731" style="stroke:rgb(246,147,147);stroke-width:0.01" />
<line x1="-0.0865385" y1="-0.269231" x2="-0.149038" y2="-0.206731" style="stroke:rgb(246,147,147);stroke-width:0.01" />
<line x1="-0.0865385" y1="0.105769" x2="-0.0240385" y2="0.168269" style="stroke:rgb(246,147,147);stroke-width:0.01" />
<line x1="-0.149038" y1="-0.206731" x2="-0.0240385" y2="-0.206731" style="stroke:rgb(246,147,147);stroke-width:0.01" />
<line x1="0.163462" y1="0.105769" x2="0.100962" y2="0.168269" style="stroke:rgb(246,147,147);stroke-width:0.01" />
<line x1="-0.149038" y1="-0.0192308" x2="-0.0865385" y2="-0.0192308" style="stroke:rgb(246,147,147);stroke-width:0.01" />
<line x1="0.100962" y1="-0.0192308" x2="0.163462" y2="-0.0192308" style="stroke:rgb(246,147,147);stroke-width:0.01" />
<line x1="-0.0865385" y1="0.105769" x2="0.163462" y2="0.105769" style="stroke:rgb(246,147,147);stroke-width:0.01" />
<line x1="-0.0240385" y1="0.168269" x2="0.100962" y2="0.168269" style="stroke:rgb(246,147,147);stroke-width:0.01" />
</g>
</svg>
