<svg xmlns="http://www.w3.org/2000/svg" viewBox="-1.5 -1.5 3 3">
<g transform="scale(1, -1)">
<path d="M-0.463003 -0.632875 L0.166408 -0.632875 L0.250138 0.316057 L0.256043 0.317454 L0.253417 0.335519 L-0.463003 0.296719 z " fill="rgb(245,195,195)" />
<path d="M-0.463003 -0.632875 L0.536997 -0.632875 L0.536997 0.367125 L-0.463003 0.367125  z" fill="none" stroke="rgb(128,128,128)" stroke-width="0.01" />
<line x1="0.166408" y1="-0.632875" x2="0.251848" y2="0.335434" style="stroke:rgb(246,147,147);stroke-width:0.01" />
<line x1="-0.198454" y1="-0.567982" x2="-0.0405935" y2="0.319596" style="stroke:rgb(246,147,147);stroke-width:0.01" />
<line x1="-0.0364836" y1="0.305528" x2="-0.0346885" y2="0.319916" style="stroke:rgb(246,147,147);stroke-width:0.01" />
<line x1="0.253173" y1="0.328764" x2="0.253417" y2="0.335519" style="stroke:rgb(246,147,147);stroke-width:0.01" />
<line x1="-0.463003" y1="-0.632875" x2="0.166408" y2="-0.632875" style="stroke:rgb(246,147,147);stroke-width:0.01" />
<line x1="-0.463003" y1="-0.632875" x2="-0.463003" y2="0.296719" style="stroke:rgb(246,147,147);stroke-width:0.01" />
<line x1="-0.460267" y1="0.271531" x2="-0.461579" y2="0.296796" style="stroke:rgb(246,147,147);stroke-width:0.01" />
<line x1="-0.460466" y1="0.277056" x2="-0.461579" y2="0.296796" style="stroke:rgb(246,147,147);stroke-width:0.01" />
<line x1="-0.460267" y1="0.271531" x2="-0.463003" y2="0.296719" style="stroke:rgb(246,147,147);stroke-width:0.01" />
<line x1="0.166408" y1="-0.632875" x2="-0.198454" y2="-0.567982" style="stroke:rgb(246,147,147);stroke-width:0.01" />
<line x1="0.256043" y1="0.317454" x2="0.253417" y2="0.335519" style="stroke:rgb(246,147,147);stroke-width:0.01" />
<line x1="-0.0187234" y1="0.252442" x2="-0.0346885" y2="0.319916" style="stroke:rgb(246,147,147);stroke-width:0.01" />
<line x1="0.253173" y1="0.328764" x2="0.251848" y2="0.335434" style="stroke:rgb(246,147,147);stroke-width:0.01" />
<line x1="-0.0364836" y1="0.305528" x2="-0.0405935" y2="0.319596" style="stroke:rgb(246,147,147);stroke-width:0.01" />
<line x1="-0.0187234" y1="0.252442" x2="0.256043" y2="0.317454" style="stroke:rgb(246,147,147);stroke-width:0.01" />
<line x1="-0.460267" y1="0.271531" x2="0.253173" y2="0.328764" style="stroke:rgb(246,147,147);stroke-width:0.01" />
<line x1="-0.460466" y1="0.277056" x2="0.256043" y2="0.317454" style="stroke:rgb(246,147,147);stroke-width:0.01" />
<line x1="-0.463003" y1="0.296719" x2="0.253417" y2="0.335519" style="stroke:rgb(246,147,147);stroke-width:0.01" />
</g>
</svg>
