<svg xmlns="http://www.w3.org/2000/svg" viewBox="-1.5 -1.5 3 3">
<g transform="scale(1, -1)">
<path d="M-0.351785 -0.610845 L0.207434 -0.333830 L0.291218 0.120126 L0.290883 0.222576 L0.252165 0.224632 L0.249718 0.220120 L-0.269051 0.189171 L-0.670581 -0.031951 z " fill="rgb(245,195,195)" />
<path d="M-0.732603 0.209243 L0.267397 0.209243 L0.267397 1.209243 L-0.732603 1.209243  z" fill="none" stroke="rgb(128,128,128)" stroke-width="0.01" />
<line x1="-0.351785" y1="-0.610845" x2="0.207434" y2="-0.33383" style="stroke:rgb(246,147,147);stroke-width:0.01" />
<line x1="0.142967" y1="-0.26405" x2="0.221599" y2="-0.257083" style="stroke:rgb(246,147,147);stroke-width:0.01" />
<line x1="-0.488978" y1="-0.300703" x2="0.276003" y2="0.0376897" style="stroke:rgb(246,147,147);stroke-width:0.01" />
<line x1="0.0391694" y1="-0.168194" x2="0.252165" y2="0.224632" style="stroke:rgb(246,147,147);stroke-width:0.01" />
<line x1="0.281265" y1="0.105363" x2="0.291186" y2="0.129901" style="stroke:rgb(246,147,147);stroke-width:0.01" />
<line x1="0.142967" y1="-0.26405" x2="0.291218" y2="0.120126" style="stroke:rgb(246,147,147);stroke-width:0.01" />
<line x1="0.0391694" y1="-0.168194" x2="0.157003" y2="0.102961" style="stroke:rgb(246,147,147);stroke-width:0.01" />
<line x1="-0.670581" y1="-0.0319513" x2="-0.269051" y2="0.189171" style="stroke:rgb(246,147,147);stroke-width:0.01" />
<line x1="0.264002" y1="0.0495981" x2="0.27832" y2="0.0502417" style="stroke:rgb(246,147,147);stroke-width:0.01" />
<line x1="0.207434" y1="-0.33383" x2="0.291218" y2="0.120126" style="stroke:rgb(246,147,147);stroke-width:0.01" />
<line x1="-0.230475" y1="0.173575" x2="0.0673973" y2="0.209243" style="stroke:rgb(246,147,147);stroke-width:0.01" />
<line x1="-0.269051" y1="0.189171" x2="0.290883" y2="0.222576" style="stroke:rgb(246,147,147);stroke-width:0.01" />
<line x1="-0.351785" y1="-0.610845" x2="-0.670581" y2="-0.0319513" style="stroke:rgb(246,147,147);stroke-width:0.01" />
<line x1="0.221599" y1="-0.257083" x2="0.0391694" y2="-0.168194" style="stroke:rgb(246,147,147);stroke-width:0.01" />
<line x1="0.0673973" y1="0.209243" x2="0.267397" y2="0.209243" style="stroke:rgb(246,147,147);stroke-width:0.01" />
<line x1="0.267397" y1="0.209243" x2="0.267397" y2="0.221175" style="stroke:rgb(246,147,147);stroke-width:0.01" />
<line x1="0.291218" y1="0.120126" x2="0.290883" y2="0.222576" style="stroke:rgb(246,147,147);stroke-width:0.01" />
<line x1="-0.351785" y1="-0.610845" x2="-0.488978" y2="-0.300703" style="stroke:rgb(246,147,147);stroke-width:0.01" />
<line x1="0.281265" y1="0.105363" x2="-0.230475" y2="0.173575" style="stroke:rgb(246,147,147);stroke-width:0.01" />
<line x1="0.290883" y1="0.222576" x2="0.252165" y2="0.224632" style="stroke:rgb(246,147,147);stroke-width:0.01" />
<line x1="0.281265" y1="0.105363" x2="0.267397" y2="0.221175" style="stroke:rgb(246,147,147);stroke-width:0.01" />
<line x1="-0.230475" y1="0.173575" x2="-0.269051" y2="0.189171" style="stroke:rgb(246,147,147);stroke-width:0.01" />
<line x1="0.207434" y1="-0.33383" x2="0.142967" y2="-0.26405" style="stroke:rgb(246,147,147);stroke-width:0.01" />
<line x1="0.27832" y1="0.0502417" x2="0.157003" y2="0.102961" style="stroke:rgb(246,147,147);stroke-width:0.01" />
<line x1="0.291186" y1="0.129901" x2="0.252165" y2="0.224632" style="stroke:rgb(246,147,147);stroke-width:0.01" />
<line x1="0.276003" y1="0.0376897" x2="0.264002" y2="0.0495981" style="stroke:rgb(246,147,147);stroke-width:0.01" />
</g>
</svg>
