<svg xmlns="http://www.w3.org/2000/svg" viewBox="-1.5 -1.5 3 3">
<g transform="scale(1, -1)">
<path d="M-0.056818 -0.173295 L0.068182 -0.173295 L0.099432 -0.142045 L0.099432 0.201705 L-0.056818 0.201705 L-0.088068 0.170455 L-0.088068 -0.142045 z M-0.056818 -0.142045 L-0.056818 0.170455 L0.068182 0.170455 L0.068182 -0.142045 z " fill="rgb(245,195,195)" />
<path d="M0.068182 -0.798295 L1.068182 -0.798295 L1.068182 0.201705 L0.068182 0.201705  z" fill="none" stroke="rgb(128,128,128)" stroke-width="0.01" />
<line x1="-0.0880682" y1="-0.142045" x2="-0.0880682" y2="0.170455" style="stroke:rgb(246,147,147);stroke-width:0.01" />
<line x1="-0.0568182" y1="-0.173295" x2="-0.0568182" y2="0.201705" style="stroke:rgb(246,147,147);stroke-width:0.01" />
<line x1="0.0681818" y1="-0.173295" x2="0.0681818" y2="0.201705" style="stroke:rgb(246,147,147);stroke-width:0.01" />
<line x1="0.0994318" y1="-0.142045" x2="0.0994318" y2="0.201705" style="stroke:rgb(246,147,147);stroke-width:0.01" />
<line x1="-0.0568182" y1="-0.173295" x2="-0.0880682" y2="-0.142045" style="stroke:rgb(246,147,147);stroke-width:0.01" />
<line x1="0.0681818" y1="-0.173295" x2="0.0994318" y2="-0.142045" style="stroke:rgb(246,147,147);stroke-width:0.01" />
<line x1="-0.0880682" y1="0.170455" x2="-0.0568182" y2="0.201705" style="stroke:rgb(246,147,147);stroke-width:0.01" />
<line x1="-0.0568182" y1="-0.173295" x2="0.0681818" y2="-0.173295" style="stroke:rgb(246,147,147);stroke-width:0.01" />
<line x1="-0.0880682" y1="-0.142045" x2="0.0994318" y2="-0.142045" style="stroke:rgb(246,147,147);stroke-width:0.01" />
<line x1="-0.0880682" y1="0.170455" x2="0.0681818" y2="0.170455" style="stroke:rgb(246,147,147);stroke-width:0.01" />
<line x1="-0.0568182" y1="0.201705" x2="0.0994318" y2="0.201705" style="stroke:rgb(246,147,147);stroke-width:0.01" />
</g>
</svg>
