<svg xmlns="http://www.w3.org/2000/svg" viewBox="-1.5 -1.5 3 3">
<g transform="scale(1, -1)">
<path d="M0.306724 -0.349352 L0.373565 -0.337079 L0.387163 -0.036038 L0.334212 0.278091 L-0.229313 0.300937 L-0.278803 0.116847 L-0.288441 0.116847 L-0.288441 0.080998 L-0.186455 0.067529 L-0.130211 -0.238781 z " fill="rgb(245,195,195)" />
<path d="M-0.288441 -0.883153 L0.711559 -0.883153 L0.711559 0.116847 L-0.288441 0.116847  z" fill="none" stroke="rgb(128,128,128)" stroke-width="0.01" />
<line x1="0.31244" y1="-0.320039" x2="0.387163" y2="-0.0360382" style="stroke:rgb(246,147,147);stroke-width:0.01" />
<line x1="0.265762" y1="0.00780182" x2="0.334212" y2="0.278091" style="stroke:rgb(246,147,147);stroke-width:0.01" />
<line x1="0.373565" y1="-0.337079" x2="0.387163" y2="-0.0360382" style="stroke:rgb(246,147,147);stroke-width:0.01" />
<line x1="-0.288441" y1="0.0809984" x2="-0.288441" y2="0.116847" style="stroke:rgb(246,147,147);stroke-width:0.01" />
<line x1="-0.154325" y1="0.168205" x2="-0.123783" y2="0.296659" style="stroke:rgb(246,147,147);stroke-width:0.01" />
<line x1="-0.130211" y1="-0.238781" x2="-0.229313" y2="0.300937" style="stroke:rgb(246,147,147);stroke-width:0.01" />
<line x1="-0.0379603" y1="-0.262126" x2="-0.123783" y2="0.296659" style="stroke:rgb(246,147,147);stroke-width:0.01" />
<line x1="-0.288441" y1="0.0809984" x2="-0.229313" y2="0.300937" style="stroke:rgb(246,147,147);stroke-width:0.01" />
<line x1="-0.0379603" y1="-0.262126" x2="0.043358" y2="-0.154736" style="stroke:rgb(246,147,147);stroke-width:0.01" />
<line x1="0.387163" y1="-0.0360382" x2="0.334212" y2="0.278091" style="stroke:rgb(246,147,147);stroke-width:0.01" />
<line x1="-0.130211" y1="-0.238781" x2="-0.0126037" y2="-0.0925428" style="stroke:rgb(246,147,147);stroke-width:0.01" />
<line x1="-0.154325" y1="0.168205" x2="-0.0856422" y2="0.295112" style="stroke:rgb(246,147,147);stroke-width:0.01" />
<line x1="-0.0761167" y1="0.273494" x2="-0.0856422" y2="0.295112" style="stroke:rgb(246,147,147);stroke-width:0.01" />
<line x1="0.306724" y1="-0.349352" x2="0.373565" y2="-0.337079" style="stroke:rgb(246,147,147);stroke-width:0.01" />
<line x1="0.297179" y1="-0.346936" x2="0.37365" y2="-0.335192" style="stroke:rgb(246,147,147);stroke-width:0.01" />
<line x1="0.306724" y1="-0.349352" x2="-0.0126037" y2="-0.0925428" style="stroke:rgb(246,147,147);stroke-width:0.01" />
<line x1="0.297179" y1="-0.346936" x2="0.043358" y2="-0.154736" style="stroke:rgb(246,147,147);stroke-width:0.01" />
<line x1="0.306724" y1="-0.349352" x2="-0.130211" y2="-0.238781" style="stroke:rgb(246,147,147);stroke-width:0.01" />
<line x1="0.37365" y1="-0.335192" x2="0.31244" y2="-0.320039" style="stroke:rgb(246,147,147);stroke-width:0.01" />
<line x1="0.373565" y1="-0.337079" x2="0.31244" y2="-0.320039" style="stroke:rgb(246,147,147);stroke-width:0.01" />
<line x1="-0.0761167" y1="0.273494" x2="-0.0319902" y2="0.292937" style="stroke:rgb(246,147,147);stroke-width:0.01" />
<line x1="0.265762" y1="0.00780182" x2="-0.288441" y2="0.0809984" style="stroke:rgb(246,147,147);stroke-width:0.01" />
<line x1="0.265762" y1="0.00780182" x2="-0.154325" y2="0.168205" style="stroke:rgb(246,147,147);stroke-width:0.01" />
<line x1="-0.288441" y1="0.116847" x2="0.293377" y2="0.116847" style="stroke:rgb(246,147,147);stroke-width:0.01" />
<line x1="0.293377" y1="0.116847" x2="-0.0319902" y2="0.292937" style="stroke:rgb(246,147,147);stroke-width:0.01" />
<line x1="0.334212" y1="0.278091" x2="-0.229313" y2="0.300937" style="stroke:rgb(246,147,147);stroke-width:0.01" />
</g>
</svg>
