<svg xmlns="http://www.w3.org/2000/svg" viewBox="-1.5 -1.5 3 3">
<g transform="scale(1, -1)">
<path d="M-0.244051 -0.310392 L-0.156005 -0.294543 L-0.093505 -0.219788 L-0.093505 -0.062526 L0.030038 -0.043174 L0.082113 0.028245 L0.068368 0.115996 L0.187233 0.115996 L0.239487 0.178496 L0.220972 0.281351 L0.159461 0.270279 L0.175982 0.178496 L0.058578 0.178496 L0.005106 0.115996 L0.020366 0.018573 L-0.093505 0.000736 L-0.156005 -0.072316 L-0.156005 -0.231039 L-0.255123 -0.248881 z " fill="rgb(245,195,195)" />
<path d="M-0.156005 -0.384004 L0.843995 -0.384004 L0.843995 0.615996 L-0.156005 0.615996  z" fill="none" stroke="rgb(128,128,128)" stroke-width="0.01" />
<line x1="-0.244051" y1="-0.310392" x2="-0.255123" y2="-0.248881" style="stroke:rgb(246,147,147);stroke-width:0.01" />
<line x1="-0.156005" y1="-0.294543" x2="-0.156005" y2="-0.0723157" style="stroke:rgb(246,147,147);stroke-width:0.01" />
<line x1="-0.0935051" y1="-0.219788" x2="-0.0935051" y2="0.000736213" style="stroke:rgb(246,147,147);stroke-width:0.01" />
<line x1="0.0300381" y1="-0.0431743" x2="0.0821133" y2="0.0282447" style="stroke:rgb(246,147,147);stroke-width:0.01" />
<line x1="0.0300381" y1="-0.0431743" x2="0.00510603" y2="0.115996" style="stroke:rgb(246,147,147);stroke-width:0.01" />
<line x1="-0.156005" y1="-0.294543" x2="-0.0935051" y2="-0.219788" style="stroke:rgb(246,147,147);stroke-width:0.01" />
<line x1="0.187233" y1="0.115996" x2="0.239487" y2="0.178496" style="stroke:rgb(246,147,147);stroke-width:0.01" />
<line x1="0.0821133" y1="0.0282447" x2="0.0585783" y2="0.178496" style="stroke:rgb(246,147,147);stroke-width:0.01" />
<line x1="0.187233" y1="0.115996" x2="0.159461" y2="0.270279" style="stroke:rgb(246,147,147);stroke-width:0.01" />
<line x1="0.239487" y1="0.178496" x2="0.220972" y2="0.281351" style="stroke:rgb(246,147,147);stroke-width:0.01" />
<line x1="-0.244051" y1="-0.310392" x2="-0.156005" y2="-0.294543" style="stroke:rgb(246,147,147);stroke-width:0.01" />
<line x1="-0.156005" y1="-0.0723157" x2="-0.0935051" y2="0.000736213" style="stroke:rgb(246,147,147);stroke-width:0.01" />
<line x1="0.00510603" y1="0.115996" x2="0.0585783" y2="0.178496" style="stroke:rgb(246,147,147);stroke-width:0.01" />
<line x1="-0.255123" y1="-0.248881" x2="-0.0935051" y2="-0.219788" style="stroke:rgb(246,147,147);stroke-width:0.01" />
<line x1="-0.156005" y1="-0.0723157" x2="0.0300381" y2="-0.0431743" style="stroke:rgb(246,147,147);stroke-width:0.01" />
<line x1="-0.0935051" y1="0.000736213" x2="0.0821133" y2="0.0282447" style="stroke:rgb(246,147,147);stroke-width:0.01" />
<line x1="0.00510603" y1="0.115996" x2="0.187233" y2="0.115996" style="stroke:rgb(246,147,147);stroke-width:0.01" />
<line x1="0.0585783" y1="0.178496" x2="0.239487" y2="0.178496" style="stroke:rgb(246,147,147);stroke-width:0.01" />
<line x1="0.159461" y1="0.270279" x2="0.220972" y2="0.281351" style="stroke:rgb(246,147,147);stroke-width:0.01" />
</g>
</svg>
