<svg xmlns="http://www.w3.org/2000/svg" viewBox="-1.5 -1.5 3 3">
<g transform="scale(1, -1)">
<path d="M0.002000 -0.262367 L0.064500 -0.262367 L0.064500 -0.039385 L0.087937 -0.046221 L0.087937 -0.113930 L0.150437 -0.113930 L0.150437 -0.064451 L0.087937 0.018883 L0.064500 0.025719 L0.064500 0.050133 L0.002000 0.133466 L-0.098000 0.162633 L-0.175500 0.120133 L-0.182062 0.097633 L-0.139562 0.020133 L0.002000 -0.021156 z M0.002000 0.043948 L-0.122062 0.080133 L-0.115500 0.102633 L0.002000 0.068362 z " fill="rgb(245,195,195)" />
<path d="M0.002000 -0.262367 L1.002000 -0.262367 L1.002000 0.737633 L0.002000 0.737633  z" fill="none" stroke="rgb(128,128,128)" stroke-width="0.01" />
<line x1="0.002" y1="-0.262367" x2="0.0645" y2="-0.262367" style="stroke:rgb(246,147,147);stroke-width:0.01" />
<line x1="0.002" y1="-0.262367" x2="0.002" y2="0.133466" style="stroke:rgb(246,147,147);stroke-width:0.01" />
<line x1="0.0645" y1="-0.262367" x2="0.0645" y2="0.0501328" style="stroke:rgb(246,147,147);stroke-width:0.01" />
<line x1="0.0879375" y1="-0.11393" x2="0.0879375" y2="0.0188828" style="stroke:rgb(246,147,147);stroke-width:0.01" />
<line x1="0.150437" y1="-0.11393" x2="0.150437" y2="-0.0644505" style="stroke:rgb(246,147,147);stroke-width:0.01" />
<line x1="-0.139562" y1="0.0201328" x2="-0.182062" y2="0.0976328" style="stroke:rgb(246,147,147);stroke-width:0.01" />
<line x1="-0.139562" y1="0.0201328" x2="-0.098" y2="0.162633" style="stroke:rgb(246,147,147);stroke-width:0.01" />
<line x1="-0.182062" y1="0.0976328" x2="-0.1755" y2="0.120133" style="stroke:rgb(246,147,147);stroke-width:0.01" />
<line x1="0.150437" y1="-0.0644505" x2="0.0879375" y2="0.0188828" style="stroke:rgb(246,147,147);stroke-width:0.01" />
<line x1="0.0645" y1="0.0501328" x2="0.002" y2="0.133466" style="stroke:rgb(246,147,147);stroke-width:0.01" />
<line x1="0.0879375" y1="-0.11393" x2="0.150437" y2="-0.11393" style="stroke:rgb(246,147,147);stroke-width:0.01" />
<line x1="0.150437" y1="-0.0644505" x2="-0.139562" y2="0.0201328" style="stroke:rgb(246,147,147);stroke-width:0.01" />
<line x1="0.0879375" y1="0.0188828" x2="-0.182062" y2="0.0976328" style="stroke:rgb(246,147,147);stroke-width:0.01" />
<line x1="0.0645" y1="0.0501328" x2="-0.1755" y2="0.120133" style="stroke:rgb(246,147,147);stroke-width:0.01" />
<line x1="0.002" y1="0.133466" x2="-0.098" y2="0.162633" style="stroke:rgb(246,147,147);stroke-width:0.01" />
<line x1="-0.1755" y1="0.120133" x2="-0.098" y2="0.162633" style="stroke:rgb(246,147,147);stroke-width:0.01" />
</g>
</svg>
