<svg xmlns="http://www.w3.org/2000/svg" viewBox="-1.5 -1.5 3 3">
<g transform="scale(1, -1)">
<path d="M0.048686 -0.135260 L0.111186 -0.100104 L0.111186 -0.006354 L0.212748 -0.006354 L0.212748 0.056146 L-0.123189 0.056146 L-0.123189 0.042312 L-0.235995 0.110857 L-0.268451 0.057444 z M0.048686 -0.062126 L-0.043100 -0.006354 L0.048686 -0.006354 z " fill="rgb(245,195,195)" />
<path d="M0.048686 -0.506354 L1.048686 -0.506354 L1.048686 0.493646 L0.048686 0.493646  z" fill="none" stroke="rgb(128,128,128)" stroke-width="0.01" />
<line x1="-0.123189" y1="-0.00635379" x2="-0.123189" y2="0.0561462" style="stroke:rgb(246,147,147);stroke-width:0.01" />
<line x1="0.0486857" y1="-0.13526" x2="0.0486857" y2="-0.00635379" style="stroke:rgb(246,147,147);stroke-width:0.01" />
<line x1="0.111186" y1="-0.100104" x2="0.111186" y2="0.0561462" style="stroke:rgb(246,147,147);stroke-width:0.01" />
<line x1="0.212748" y1="-0.00635379" x2="0.212748" y2="0.0561462" style="stroke:rgb(246,147,147);stroke-width:0.01" />
<line x1="0.0486857" y1="-0.00635379" x2="0.111186" y2="0.0561462" style="stroke:rgb(246,147,147);stroke-width:0.01" />
<line x1="0.0486857" y1="-0.13526" x2="-0.268451" y2="0.0574444" style="stroke:rgb(246,147,147);stroke-width:0.01" />
<line x1="0.0486857" y1="-0.13526" x2="0.111186" y2="-0.100104" style="stroke:rgb(246,147,147);stroke-width:0.01" />
<line x1="-0.268451" y1="0.0574444" x2="-0.235995" y2="0.110857" style="stroke:rgb(246,147,147);stroke-width:0.01" />
<line x1="0.111186" y1="-0.100104" x2="-0.235995" y2="0.110857" style="stroke:rgb(246,147,147);stroke-width:0.01" />
<line x1="-0.123189" y1="-0.00635379" x2="0.212748" y2="-0.00635379" style="stroke:rgb(246,147,147);stroke-width:0.01" />
<line x1="-0.123189" y1="0.0561462" x2="0.212748" y2="0.0561462" style="stroke:rgb(246,147,147);stroke-width:0.01" />
</g>
</svg>
