<svg xmlns="http://www.w3.org/2000/svg" viewBox="-1.5 -1.5 3 3">
<g transform="scale(1, -1)">
<path d="M-0.027778 -0.125000 L0.159722 -0.125000 L0.159722 0.062500 L0.034722 0.062500 L0.034722 0.000000 L-0.027778 0.000000 L-0.027778 0.062500 L-0.152778 0.062500 L-0.152778 0.000000 z " fill="rgb(245,195,195)" />
<path d="M-0.027778 -0.125000 L0.972222 -0.125000 L0.972222 0.875000 L-0.027778 0.875000  z" fill="none" stroke="rgb(128,128,128)" stroke-width="0.01" />
<line x1="0.0347222" y1="-0.125" x2="0.159722" y2="0" style="stroke:rgb(246,147,147);stroke-width:0.01" />
<line x1="-0.152778" y1="0" x2="-0.152778" y2="0.0625" style="stroke:rgb(246,147,147);stroke-width:0.01" />
<line x1="-0.0277778" y1="-0.125" x2="0.159722" y2="-0.125" style="stroke:rgb(246,147,147);stroke-width:0.01" />
<line x1="-0.0277778" y1="-0.125" x2="-0.0277778" y2="0.0625" style="stroke:rgb(246,147,147);stroke-width:0.01" />
<line x1="-0.0277778" y1="-0.125" x2="-0.152778" y2="0" style="stroke:rgb(246,147,147);stroke-width:0.01" />
<line x1="0.0347222" y1="-0.125" x2="0.0347222" y2="0.0625" style="stroke:rgb(246,147,147);stroke-width:0.01" />
<line x1="0.159722" y1="-0.125" x2="0.159722" y2="0.0625" style="stroke:rgb(246,147,147);stroke-width:0.01" />
<line x1="-0.152778" y1="0" x2="0.159722" y2="0" style="stroke:rgb(246,147,147);stroke-width:0.01" />
<line x1="-0.152778" y1="0.0625" x2="-0.0277778" y2="0.0625" style="stroke:rgb(246,147,147);stroke-width:0.01" />
<line x1="0.0347222" y1="0.0625" x2="0.159722" y2="0.0625" style="stroke:rgb(246,147,147);stroke-width:0.01" />
</g>
</svg>
