<svg xmlns="http://www.w3.org/2000/svg" viewBox="-1.5 -1.5 3 3">
<g transform="scale(1, -1)">
<path d="M0.111816 -0.336447 L0.251514 -0.292233 L0.307580 -0.252851 L0.162933 0.204176 L0.084922 0.179486 L-0.088915 0.309863 L-0.325415 0.124679 L-0.262914 0.027125 L-0.241522 0.036202 z " fill="rgb(245,195,195)" />
<path d="M1.237239 -2.434752 L2.237239 -2.434752 L2.237239 -1.434752 L1.237239 -1.434752  z" fill="none" stroke="rgb(128,128,128)" stroke-width="0.01" />
<line x1="-0.0794273" y1="-0.134752" x2="-0.137761" y2="0.0652479" style="stroke:rgb(246,147,147);stroke-width:0.01" />
<line x1="-0.0401041" y1="-0.148529" x2="-0.075414" y2="0.12874" style="stroke:rgb(246,147,147);stroke-width:0.01" />
<line x1="0.30758" y1="-0.252851" x2="0.162933" y2="0.204176" style="stroke:rgb(246,147,147);stroke-width:0.01" />
<line x1="-0.0137952" y1="0.132834" x2="-0.0889145" y2="0.309863" style="stroke:rgb(246,147,147);stroke-width:0.01" />
<line x1="-0.209121" y1="0.00202949" x2="-0.207829" y2="0.0868317" style="stroke:rgb(246,147,147);stroke-width:0.01" />
<line x1="-0.262914" y1="0.0271249" x2="-0.325415" y2="0.124679" style="stroke:rgb(246,147,147);stroke-width:0.01" />
<line x1="0.0473517" y1="-0.26846" x2="0.0572393" y2="-0.00808545" style="stroke:rgb(246,147,147);stroke-width:0.01" />
<line x1="0.299936" y1="-0.258221" x2="0.291191" y2="-0.240324" style="stroke:rgb(246,147,147);stroke-width:0.01" />
<line x1="0.00189465" y1="0.0133563" x2="-0.159655" y2="0.254472" style="stroke:rgb(246,147,147);stroke-width:0.01" />
<line x1="0.0572393" y1="-0.00808545" x2="-0.136878" y2="0.272307" style="stroke:rgb(246,147,147);stroke-width:0.01" />
<line x1="-0.301916" y1="0.0998958" x2="-0.292761" y2="0.150248" style="stroke:rgb(246,147,147);stroke-width:0.01" />
<line x1="0.111816" y1="-0.336447" x2="-0.325415" y2="0.124679" style="stroke:rgb(246,147,147);stroke-width:0.01" />
<line x1="-0.0137952" y1="0.132834" x2="-0.136878" y2="0.272307" style="stroke:rgb(246,147,147);stroke-width:0.01" />
<line x1="0.280307" y1="-0.272008" x2="0.291191" y2="-0.240324" style="stroke:rgb(246,147,147);stroke-width:0.01" />
<line x1="-0.0932578" y1="0.181504" x2="-0.159655" y2="0.254472" style="stroke:rgb(246,147,147);stroke-width:0.01" />
<line x1="0.299936" y1="-0.258221" x2="-0.075414" y2="0.12874" style="stroke:rgb(246,147,147);stroke-width:0.01" />
<line x1="0.111816" y1="-0.336447" x2="0.213239" y2="-0.0667521" style="stroke:rgb(246,147,147);stroke-width:0.01" />
<line x1="0.30758" y1="-0.252851" x2="0.291191" y2="-0.240324" style="stroke:rgb(246,147,147);stroke-width:0.01" />
<line x1="0.157239" y1="0.125248" x2="-0.0889145" y2="0.309863" style="stroke:rgb(246,147,147);stroke-width:0.01" />
<line x1="0.251514" y1="-0.292233" x2="0.291191" y2="-0.240324" style="stroke:rgb(246,147,147);stroke-width:0.01" />
<line x1="-0.0561627" y1="-0.159288" x2="0.157239" y2="0.125248" style="stroke:rgb(246,147,147);stroke-width:0.01" />
<line x1="-0.0977742" y1="-0.115403" x2="0.00189465" y2="0.0133563" style="stroke:rgb(246,147,147);stroke-width:0.01" />
<line x1="-0.0401041" y1="-0.148529" x2="-0.0794273" y2="-0.134752" style="stroke:rgb(246,147,147);stroke-width:0.01" />
<line x1="0.213239" y1="-0.0667521" x2="-0.137761" y2="0.0652479" style="stroke:rgb(246,147,147);stroke-width:0.01" />
<line x1="0.00189465" y1="0.0133563" x2="-0.207829" y2="0.0868317" style="stroke:rgb(246,147,147);stroke-width:0.01" />
<line x1="0.251514" y1="-0.292233" x2="0.30758" y2="-0.252851" style="stroke:rgb(246,147,147);stroke-width:0.01" />
<line x1="-0.207647" y1="0.000475156" x2="-0.075414" y2="0.12874" style="stroke:rgb(246,147,147);stroke-width:0.01" />
<line x1="-0.207647" y1="0.000475156" x2="-0.137761" y2="0.0652479" style="stroke:rgb(246,147,147);stroke-width:0.01" />
<line x1="-0.262914" y1="0.0271249" x2="-0.0932578" y2="0.181504" style="stroke:rgb(246,147,147);stroke-width:0.01" />
<line x1="0.280307" y1="-0.272008" x2="0.0473517" y2="-0.26846" style="stroke:rgb(246,147,147);stroke-width:0.01" />
<line x1="-0.0561627" y1="-0.159288" x2="-0.0401041" y2="-0.148529" style="stroke:rgb(246,147,147);stroke-width:0.01" />
<line x1="-0.0977742" y1="-0.115403" x2="0.0572393" y2="-0.00808545" style="stroke:rgb(246,147,147);stroke-width:0.01" />
<line x1="0.111816" y1="-0.336447" x2="0.251514" y2="-0.292233" style="stroke:rgb(246,147,147);stroke-width:0.01" />
<line x1="-0.325415" y1="0.124679" x2="-0.0889145" y2="0.309863" style="stroke:rgb(246,147,147);stroke-width:0.01" />
<line x1="0.0572393" y1="-0.00808545" x2="-0.209121" y2="0.00202949" style="stroke:rgb(246,147,147);stroke-width:0.01" />
<line x1="-0.0137952" y1="0.132834" x2="-0.292761" y2="0.150248" style="stroke:rgb(246,147,147);stroke-width:0.01" />
<line x1="-0.262914" y1="0.0271249" x2="-0.0137952" y2="0.132834" style="stroke:rgb(246,147,147);stroke-width:0.01" />
<line x1="-0.301916" y1="0.0998958" x2="-0.075414" y2="0.12874" style="stroke:rgb(246,147,147);stroke-width:0.01" />
<line x1="-0.207829" y1="0.0868317" x2="0.162933" y2="0.204176" style="stroke:rgb(246,147,147);stroke-width:0.01" />
</g>
</svg>
