<svg xmlns="http://www.w3.org/2000/svg" viewBox="-1.5 -1.5 3 3">
<g transform="scale(1, -1)">
<path d="M-0.086351 -0.205460 L0.055029 -0.202011 L0.192960 -0.057184 L0.120546 0.011782 L0.113649 0.294540 L0.077443 0.329023 L-0.232902 0.003161 L-0.231178 -0.067529 z M-0.089799 -0.064080 L-0.091523 0.006609 L0.120546 0.011782 L0.051580 -0.060632 z " fill="rgb(245,195,195)" />
<path d="M-0.232902 -0.205460 L0.767098 -0.205460 L0.767098 0.794540 L-0.232902 0.794540  z" fill="none" stroke="rgb(128,128,128)" stroke-width="0.01" />
<line x1="0.0550287" y1="-0.202011" x2="0.19296" y2="-0.0571839" style="stroke:rgb(246,147,147);stroke-width:0.01" />
<line x1="-0.0863506" y1="-0.20546" x2="0.120546" y2="0.0117816" style="stroke:rgb(246,147,147);stroke-width:0.01" />
<line x1="-0.158764" y1="-0.136494" x2="-0.0897989" y2="-0.0640805" style="stroke:rgb(246,147,147);stroke-width:0.01" />
<line x1="-0.0208333" y1="0.00833333" x2="0.117098" y2="0.153161" style="stroke:rgb(246,147,147);stroke-width:0.01" />
<line x1="-0.0863506" y1="-0.20546" x2="0.0550287" y2="-0.202011" style="stroke:rgb(246,147,147);stroke-width:0.01" />
<line x1="-0.231178" y1="-0.0675287" x2="-0.232902" y2="0.00316092" style="stroke:rgb(246,147,147);stroke-width:0.01" />
<line x1="-0.0863506" y1="-0.20546" x2="-0.0949713" y2="0.147989" style="stroke:rgb(246,147,147);stroke-width:0.01" />
<line x1="0.120546" y1="0.0117816" x2="0.113649" y2="0.29454" style="stroke:rgb(246,147,147);stroke-width:0.01" />
<line x1="-0.231178" y1="-0.0675287" x2="0.113649" y2="0.29454" style="stroke:rgb(246,147,147);stroke-width:0.01" />
<line x1="-0.0863506" y1="-0.20546" x2="-0.231178" y2="-0.0675287" style="stroke:rgb(246,147,147);stroke-width:0.01" />
<line x1="-0.232902" y1="0.00316092" x2="0.0774425" y2="0.329023" style="stroke:rgb(246,147,147);stroke-width:0.01" />
<line x1="-0.231178" y1="-0.0675287" x2="0.19296" y2="-0.0571839" style="stroke:rgb(246,147,147);stroke-width:0.01" />
<line x1="0.0550287" y1="-0.202011" x2="-0.19842" y2="0.0393678" style="stroke:rgb(246,147,147);stroke-width:0.01" />
<line x1="-0.232902" y1="0.00316092" x2="0.120546" y2="0.0117816" style="stroke:rgb(246,147,147);stroke-width:0.01" />
<line x1="-0.0208333" y1="0.00833333" x2="-0.129454" y2="0.111782" style="stroke:rgb(246,147,147);stroke-width:0.01" />
<line x1="0.19296" y1="-0.0571839" x2="0.120546" y2="0.0117816" style="stroke:rgb(246,147,147);stroke-width:0.01" />
<line x1="-0.0949713" y1="0.147989" x2="0.117098" y2="0.153161" style="stroke:rgb(246,147,147);stroke-width:0.01" />
<line x1="0.117098" y1="0.153161" x2="0.00847701" y2="0.256609" style="stroke:rgb(246,147,147);stroke-width:0.01" />
<line x1="0.113649" y1="0.29454" x2="0.0774425" y2="0.329023" style="stroke:rgb(246,147,147);stroke-width:0.01" />
</g>
</svg>
