<svg xmlns="http://www.w3.org/2000/svg" viewBox="-1.5 -1.5 3 3">
<g transform="scale(1, -1)">
<path d="M0.116047 -0.136128 L0.218731 -0.033328 L0.169458 0.158835 L0.032852 0.188329 L-0.083197 0.043729 L-0.204732 0.074746 L-0.235643 -0.046371 L-0.120824 -0.075675 L-0.058736 -0.125504 L-0.036100 -0.097298 z M0.080651 0.001912 L0.049833 0.009777 L0.071661 0.036976 z " fill="rgb(245,195,195)" />
<path d="M-2.042594 -1.853974 L-1.042594 -1.853974 L-1.042594 -0.853974 L-2.042594 -0.853974  z" fill="none" stroke="rgb(128,128,128)" stroke-width="0.01" />
<line x1="-0.235643" y1="-0.0463712" x2="-0.204732" y2="0.0747465" style="stroke:rgb(246,147,147);stroke-width:0.01" />
<line x1="-0.0587361" y1="-0.125504" x2="0.169458" y2="0.158835" style="stroke:rgb(246,147,147);stroke-width:0.01" />
<line x1="0.116047" y1="-0.136128" x2="0.218731" y2="-0.0333283" style="stroke:rgb(246,147,147);stroke-width:0.01" />
<line x1="-0.156224" y1="-0.0472654" x2="0.0328518" y2="0.188329" style="stroke:rgb(246,147,147);stroke-width:0.01" />
<line x1="0.116047" y1="-0.136128" x2="0.0328518" y2="0.188329" style="stroke:rgb(246,147,147);stroke-width:0.01" />
<line x1="0.218731" y1="-0.0333283" x2="0.169458" y2="0.158835" style="stroke:rgb(246,147,147);stroke-width:0.01" />
<line x1="-0.0587361" y1="-0.125504" x2="-0.156224" y2="-0.0472654" style="stroke:rgb(246,147,147);stroke-width:0.01" />
<line x1="0.116047" y1="-0.136128" x2="-0.235643" y2="-0.0463712" style="stroke:rgb(246,147,147);stroke-width:0.01" />
<line x1="0.218731" y1="-0.0333283" x2="-0.204732" y2="0.0747465" style="stroke:rgb(246,147,147);stroke-width:0.01" />
<line x1="0.169458" y1="0.158835" x2="0.0328518" y2="0.188329" style="stroke:rgb(246,147,147);stroke-width:0.01" />
</g>
</svg>
