<svg xmlns="http://www.w3.org/2000/svg" viewBox="-1.5 -1.5 3 3">
<g transform="scale(1, -1)">
<path d="M0.092836 -0.212899 L0.166419 -0.094085 L0.069088 0.063723 L0.139054 0.167828 L0.035307 0.237553 L-0.030792 0.139202 L-0.098551 0.097410 L-0.079566 0.066628 L-0.167154 -0.063697 L-0.104725 -0.194902 z M0.010813 -0.079909 L-0.025236 -0.076626 L-0.007494 -0.050227 z " fill="rgb(245,195,195)" />
<path d="M0.090601 0.446263 L1.090601 0.446263 L1.090601 1.446263 L0.090601 1.446263  z" fill="none" stroke="rgb(128,128,128)" stroke-width="0.01" />
<line x1="0.0928363" y1="-0.212899" x2="-0.104725" y2="-0.194902" style="stroke:rgb(246,147,147);stroke-width:0.01" />
<line x1="0.166419" y1="-0.0940847" x2="-0.167154" y2="-0.0636972" style="stroke:rgb(246,147,147);stroke-width:0.01" />
<line x1="-0.104725" y1="-0.194902" x2="-0.167154" y2="-0.0636972" style="stroke:rgb(246,147,147);stroke-width:0.01" />
<line x1="0.0928363" y1="-0.212899" x2="0.166419" y2="-0.0940847" style="stroke:rgb(246,147,147);stroke-width:0.01" />
<line x1="0.0928363" y1="-0.212899" x2="-0.0985512" y2="0.0974101" style="stroke:rgb(246,147,147);stroke-width:0.01" />
<line x1="0.139054" y1="0.167828" x2="0.035307" y2="0.237553" style="stroke:rgb(246,147,147);stroke-width:0.01" />
<line x1="-0.0985512" y1="0.0974101" x2="0.00784059" y2="0.163029" style="stroke:rgb(246,147,147);stroke-width:0.01" />
<line x1="0.166419" y1="-0.0940847" x2="0.00784059" y2="0.163029" style="stroke:rgb(246,147,147);stroke-width:0.01" />
<line x1="-0.104725" y1="-0.194902" x2="0.139054" y2="0.167828" style="stroke:rgb(246,147,147);stroke-width:0.01" />
<line x1="-0.167154" y1="-0.0636972" x2="0.035307" y2="0.237553" style="stroke:rgb(246,147,147);stroke-width:0.01" />
</g>
</svg>
