<svg xmlns="http://www.w3.org/2000/svg" viewBox="-1.5 -1.5 3 3">
<g transform="scale(1, -1)">
<path d="M-0.010089 -0.232041 L0.108196 -0.157610 L0.090054 0.026910 L0.198630 0.089714 L0.136042 0.197916 L0.033466 0.138583 L-0.045762 0.130793 L-0.042223 0.094801 L-0.178146 0.016179 L-0.179678 -0.129112 z M-0.025378 -0.076540 L-0.056322 -0.057759 L-0.028790 -0.041834 z " fill="rgb(245,195,195)" />
<path d="M-0.393653 -0.160688 L0.606347 -0.160688 L0.606347 0.839312 L-0.393653 0.839312  z" fill="none" stroke="rgb(128,128,128)" stroke-width="0.01" />
<line x1="-0.0100892" y1="-0.232041" x2="0.108196" y2="-0.15761" style="stroke:rgb(246,147,147);stroke-width:0.01" />
<line x1="-0.179678" y1="-0.129112" x2="0.19863" y2="0.0897136" style="stroke:rgb(246,147,147);stroke-width:0.01" />
<line x1="-0.179678" y1="-0.129112" x2="-0.178146" y2="0.0161791" style="stroke:rgb(246,147,147);stroke-width:0.01" />
<line x1="-0.0100892" y1="-0.232041" x2="-0.0457621" y2="0.130793" style="stroke:rgb(246,147,147);stroke-width:0.01" />
<line x1="-0.178146" y1="0.0161791" x2="0.136042" y2="0.197916" style="stroke:rgb(246,147,147);stroke-width:0.01" />
<line x1="0.108196" y1="-0.15761" x2="0.0786381" y2="0.143024" style="stroke:rgb(246,147,147);stroke-width:0.01" />
<line x1="-0.0100892" y1="-0.232041" x2="-0.179678" y2="-0.129112" style="stroke:rgb(246,147,147);stroke-width:0.01" />
<line x1="0.108196" y1="-0.15761" x2="-0.178146" y2="0.0161791" style="stroke:rgb(246,147,147);stroke-width:0.01" />
<line x1="-0.0457621" y1="0.130793" x2="0.0786381" y2="0.143024" style="stroke:rgb(246,147,147);stroke-width:0.01" />
<line x1="0.19863" y1="0.0897136" x2="0.136042" y2="0.197916" style="stroke:rgb(246,147,147);stroke-width:0.01" />
</g>
</svg>
