<svg xmlns="http://www.w3.org/2000/svg" viewBox="-1.5 -1.5 3 3">
<g transform="scale(1, -1)">
<path d="M0.114831 -0.546006 L0.227364 -0.504337 L0.161458 0.537611 L-0.228164 0.628135 L-0.281882 0.396931 L0.006392 -0.512334 z " fill="rgb(245,195,195)" />
<path d="M-0.062839 -0.422334 L0.937161 -0.422334 L0.937161 0.577666 L-0.062839 0.577666  z" fill="none" stroke="rgb(128,128,128)" stroke-width="0.01" />
<line x1="0.114831" y1="-0.546006" x2="0.227364" y2="-0.504337" style="stroke:rgb(246,147,147);stroke-width:0.01" />
<line x1="0.00639166" y1="-0.512334" x2="0.0132818" y2="-0.506969" style="stroke:rgb(246,147,147);stroke-width:0.01" />
<line x1="0.0927866" y1="-0.514734" x2="0.0132818" y2="-0.506969" style="stroke:rgb(246,147,147);stroke-width:0.01" />
<line x1="0.0871109" y1="-0.537398" x2="0.115037" y2="-0.462471" style="stroke:rgb(246,147,147);stroke-width:0.01" />
<line x1="0.114831" y1="-0.546006" x2="0.00639166" y2="-0.512334" style="stroke:rgb(246,147,147);stroke-width:0.01" />
<line x1="0.0121973" y1="-0.514137" x2="0.203112" y2="-0.120911" style="stroke:rgb(246,147,147);stroke-width:0.01" />
<line x1="0.0871109" y1="-0.537398" x2="0.0927866" y2="-0.514734" style="stroke:rgb(246,147,147);stroke-width:0.01" />
<line x1="0.0121973" y1="-0.514137" x2="0.0132818" y2="-0.506969" style="stroke:rgb(246,147,147);stroke-width:0.01" />
<line x1="-0.14207" y1="-0.0440604" x2="-0.173888" y2="0.615525" style="stroke:rgb(246,147,147);stroke-width:0.01" />
<line x1="-0.167394" y1="0.0358158" x2="-0.163787" y2="0.246881" style="stroke:rgb(246,147,147);stroke-width:0.01" />
<line x1="0.00639166" y1="-0.512334" x2="-0.281882" y2="0.396931" style="stroke:rgb(246,147,147);stroke-width:0.01" />
<line x1="0.227364" y1="-0.504337" x2="0.161458" y2="0.537611" style="stroke:rgb(246,147,147);stroke-width:0.01" />
<line x1="0.227364" y1="-0.504337" x2="0.115037" y2="-0.462471" style="stroke:rgb(246,147,147);stroke-width:0.01" />
<line x1="0.167013" y1="-0.0656108" x2="0.197404" y2="-0.0306779" style="stroke:rgb(246,147,147);stroke-width:0.01" />
<line x1="0.114831" y1="-0.546006" x2="0.0927866" y2="-0.514734" style="stroke:rgb(246,147,147);stroke-width:0.01" />
<line x1="-0.0266744" y1="-0.225758" x2="-0.14207" y2="-0.0440604" style="stroke:rgb(246,147,147);stroke-width:0.01" />
<line x1="-0.281882" y1="0.396931" x2="-0.228164" y2="0.628135" style="stroke:rgb(246,147,147);stroke-width:0.01" />
<line x1="0.227364" y1="-0.504337" x2="-0.167394" y2="0.0358158" style="stroke:rgb(246,147,147);stroke-width:0.01" />
<line x1="-0.0266744" y1="-0.225758" x2="0.200613" y2="-0.081408" style="stroke:rgb(246,147,147);stroke-width:0.01" />
<line x1="0.203112" y1="-0.120911" x2="0.167013" y2="-0.0656108" style="stroke:rgb(246,147,147);stroke-width:0.01" />
<line x1="-0.234052" y1="0.506637" x2="-0.173888" y2="0.615525" style="stroke:rgb(246,147,147);stroke-width:0.01" />
<line x1="0.197404" y1="-0.0306779" x2="-0.281882" y2="0.396931" style="stroke:rgb(246,147,147);stroke-width:0.01" />
<line x1="0.200613" y1="-0.081408" x2="0.167013" y2="-0.0656108" style="stroke:rgb(246,147,147);stroke-width:0.01" />
<line x1="-0.234694" y1="0.248093" x2="0.161458" y2="0.537611" style="stroke:rgb(246,147,147);stroke-width:0.01" />
<line x1="-0.234052" y1="0.506637" x2="-0.253851" y2="0.517576" style="stroke:rgb(246,147,147);stroke-width:0.01" />
<line x1="-0.163787" y1="0.246881" x2="-0.234694" y2="0.248093" style="stroke:rgb(246,147,147);stroke-width:0.01" />
<line x1="-0.253851" y1="0.517576" x2="0.161458" y2="0.537611" style="stroke:rgb(246,147,147);stroke-width:0.01" />
<line x1="0.161458" y1="0.537611" x2="-0.228164" y2="0.628135" style="stroke:rgb(246,147,147);stroke-width:0.01" />
</g>
</svg>
