<svg xmlns="http://www.w3.org/2000/svg" viewBox="-1.5 -1.5 3 3">
<g transform="scale(1, -1)">
<path d="M0.370572 -0.316708 L0.454693 -0.160551 L0.011518 0.315151 L-0.176089 0.315151 L-0.176089 0.281936 L-0.411254 0.261448 L-0.399464 0.126116 L-0.133493 -0.037683 L-0.147262 -0.066137 L0.132598 -0.201556 L0.230241 -0.261690 L0.244030 -0.255476 z " fill="rgb(245,195,195)" />
<path d="M-0.176089 -0.684849 L0.823911 -0.684849 L0.823911 0.315151 L-0.176089 0.315151  z" fill="none" stroke="rgb(128,128,128)" stroke-width="0.01" />
<line x1="0.370572" y1="-0.316708" x2="0.454693" y2="-0.160551" style="stroke:rgb(246,147,147);stroke-width:0.01" />
<line x1="-0.399464" y1="0.126116" x2="-0.411254" y2="0.261448" style="stroke:rgb(246,147,147);stroke-width:0.01" />
<line x1="-0.00217441" y1="0.121992" x2="0.0115177" y2="0.315151" style="stroke:rgb(246,147,147);stroke-width:0.01" />
<line x1="-0.00217441" y1="0.121992" x2="0.0260547" y2="0.299547" style="stroke:rgb(246,147,147);stroke-width:0.01" />
<line x1="-0.176089" y1="-0.01145" x2="-0.176089" y2="0.315151" style="stroke:rgb(246,147,147);stroke-width:0.01" />
<line x1="0.230241" y1="-0.26169" x2="0.21464" y2="0.0971197" style="stroke:rgb(246,147,147);stroke-width:0.01" />
<line x1="0.00575005" y1="-0.0992245" x2="0.158635" y2="0.157236" style="stroke:rgb(246,147,147);stroke-width:0.01" />
<line x1="-0.147262" y1="-0.0661367" x2="0.0284449" y2="0.296981" style="stroke:rgb(246,147,147);stroke-width:0.01" />
<line x1="0.230241" y1="-0.26169" x2="0.454693" y2="-0.160551" style="stroke:rgb(246,147,147);stroke-width:0.01" />
<line x1="0.230241" y1="-0.26169" x2="-0.399464" y2="0.126116" style="stroke:rgb(246,147,147);stroke-width:0.01" />
<line x1="0.370572" y1="-0.316708" x2="0.00575005" y2="-0.0992245" style="stroke:rgb(246,147,147);stroke-width:0.01" />
<line x1="0.370572" y1="-0.316708" x2="-0.147262" y2="-0.0661367" style="stroke:rgb(246,147,147);stroke-width:0.01" />
<line x1="-0.176089" y1="-0.01145" x2="0.158635" y2="0.157236" style="stroke:rgb(246,147,147);stroke-width:0.01" />
<line x1="0.454693" y1="-0.160551" x2="0.0115177" y2="0.315151" style="stroke:rgb(246,147,147);stroke-width:0.01" />
<line x1="-0.399464" y1="0.126116" x2="0.0284449" y2="0.296981" style="stroke:rgb(246,147,147);stroke-width:0.01" />
<line x1="0.21464" y1="0.0971197" x2="-0.00217441" y2="0.121992" style="stroke:rgb(246,147,147);stroke-width:0.01" />
<line x1="-0.411254" y1="0.261448" x2="0.0260547" y2="0.299547" style="stroke:rgb(246,147,147);stroke-width:0.01" />
<line x1="-0.176089" y1="0.315151" x2="0.0115177" y2="0.315151" style="stroke:rgb(246,147,147);stroke-width:0.01" />
</g>
</svg>
