<svg xmlns="http://www.w3.org/2000/svg" viewBox="-1.5 -1.5 3 3">
<g transform="scale(1, -1)">
<path d="M0.023361 -0.506107 L0.252557 -0.383084 L0.155294 -0.197491 L0.212745 -0.070274 L0.050140 0.003158 L-0.000076 0.098977 L0.143900 0.252561 L0.086029 0.363510 L-0.002559 0.317303 L-0.148244 0.381703 L-0.211653 0.502696 L-0.309143 0.452828 L-0.290363 -0.210681 L0.017087 -0.503531 L0.020925 -0.501568 z " fill="rgb(245,195,195)" />
<path d="M-1.166494 -0.681106 L-0.166494 -0.681106 L-0.166494 0.318894 L-1.166494 0.318894  z" fill="none" stroke="rgb(128,128,128)" stroke-width="0.01" />
<line x1="0.0170874" y1="-0.503531" x2="0.212745" y2="-0.0702742" style="stroke:rgb(246,147,147);stroke-width:0.01" />
<line x1="0.0233609" y1="-0.506107" x2="0.252557" y2="-0.383084" style="stroke:rgb(246,147,147);stroke-width:0.01" />
<line x1="0.0170874" y1="-0.503531" x2="0.252557" y2="-0.383084" style="stroke:rgb(246,147,147);stroke-width:0.01" />
<line x1="-0.290363" y1="-0.210681" x2="0.1439" y2="0.252561" style="stroke:rgb(246,147,147);stroke-width:0.01" />
<line x1="-0.299" y1="0.0944661" x2="-0.164536" y2="0.383059" style="stroke:rgb(246,147,147);stroke-width:0.01" />
<line x1="-0.290363" y1="-0.210681" x2="-0.309143" y2="0.452828" style="stroke:rgb(246,147,147);stroke-width:0.01" />
<line x1="-0.300903" y1="0.161687" x2="0.0860295" y2="0.36351" style="stroke:rgb(246,147,147);stroke-width:0.01" />
<line x1="-0.309075" y1="0.450404" x2="-0.211653" y2="0.502696" style="stroke:rgb(246,147,147);stroke-width:0.01" />
<line x1="0.0233609" y1="-0.506107" x2="-0.299" y2="0.0944661" style="stroke:rgb(246,147,147);stroke-width:0.01" />
<line x1="-0.309143" y1="0.452828" x2="-0.211653" y2="0.502696" style="stroke:rgb(246,147,147);stroke-width:0.01" />
<line x1="0.252557" y1="-0.383084" x2="-0.211653" y2="0.502696" style="stroke:rgb(246,147,147);stroke-width:0.01" />
<line x1="0.0170874" y1="-0.503531" x2="-0.290363" y2="-0.210681" style="stroke:rgb(246,147,147);stroke-width:0.01" />
<line x1="0.1439" y1="0.252561" x2="0.0860295" y2="0.36351" style="stroke:rgb(246,147,147);stroke-width:0.01" />
<line x1="0.212745" y1="-0.0702742" x2="-0.300903" y2="0.161687" style="stroke:rgb(246,147,147);stroke-width:0.01" />
<line x1="-0.164536" y1="0.383059" x2="-0.309075" y2="0.450404" style="stroke:rgb(246,147,147);stroke-width:0.01" />
<line x1="0.1439" y1="0.252561" x2="-0.309143" y2="0.452828" style="stroke:rgb(246,147,147);stroke-width:0.01" />
</g>
</svg>
