<svg xmlns="http://www.w3.org/2000/svg" viewBox="-1.5 -1.5 3 3">
<g transform="scale(1, -1)">
<path d="M-0.205688 -0.676530 L-0.205275 -0.675173 L0.675307 -0.205528 L0.205663 0.675055 L0.206076 0.676412 L-0.235100 0.441117 L-0.440983 -0.235353 z " fill="rgb(245,195,195)" />
<path d="M-0.205688 -0.676530 L0.794312 -0.676530 L0.794312 0.323470 L-0.205688 0.323470  z" fill="none" stroke="rgb(128,128,128)" stroke-width="0.01" />
<line x1="-0.205688" y1="-0.67653" x2="0.206076" y2="0.676412" style="stroke:rgb(246,147,147);stroke-width:0.01" />
<line x1="-0.205688" y1="-0.67653" x2="-0.440983" y2="-0.235353" style="stroke:rgb(246,147,147);stroke-width:0.01" />
<line x1="-0.20616" y1="-0.675645" x2="0.205191" y2="0.67594" style="stroke:rgb(246,147,147);stroke-width:0.01" />
<line x1="-0.20616" y1="-0.675645" x2="0.675307" y2="-0.205528" style="stroke:rgb(246,147,147);stroke-width:0.01" />
<line x1="-0.440983" y1="-0.235353" x2="-0.2351" y2="0.441117" style="stroke:rgb(246,147,147);stroke-width:0.01" />
<line x1="0.000193859" y1="-5.90005e-05" x2="-0.2351" y2="0.441117" style="stroke:rgb(246,147,147);stroke-width:0.01" />
<line x1="-0.440983" y1="-0.235353" x2="0.000193859" y2="-5.90005e-05" style="stroke:rgb(246,147,147);stroke-width:0.01" />
<line x1="0.675307" y1="-0.205528" x2="0.205191" y2="0.67594" style="stroke:rgb(246,147,147);stroke-width:0.01" />
<line x1="-0.2351" y1="0.441117" x2="0.206076" y2="0.676412" style="stroke:rgb(246,147,147);stroke-width:0.01" />
</g>
</svg>
