<svg xmlns="http://www.w3.org/2000/svg" viewBox="-1.5 -1.5 3 3">
<g transform="scale(1, -1)">
<path d="M-0.357143 -0.294643 L0.017857 -0.294643 L0.017857 -0.211310 L0.184524 -0.044643 L0.184524 0.038690 L0.142857 0.038690 L0.059524 -0.044643 L0.017857 -0.044643 L0.017857 0.122024 L0.142857 0.247024 L0.142857 0.288690 L0.059524 0.288690 L-0.273810 -0.044643 L-0.357143 -0.044643 z " fill="rgb(245,195,195)" />
<path d="M-0.315476 -0.294643 L0.684524 -0.294643 L0.684524 0.705357 L-0.315476 0.705357  z" fill="none" stroke="rgb(128,128,128)" stroke-width="0.01" />
<line x1="-0.0654762" y1="-0.294643" x2="0.184524" y2="-0.0446429" style="stroke:rgb(246,147,147);stroke-width:0.01" />
<line x1="-0.190476" y1="-0.294643" x2="0.142857" y2="0.0386905" style="stroke:rgb(246,147,147);stroke-width:0.01" />
<line x1="-0.357143" y1="-0.294643" x2="-0.357143" y2="-0.0446429" style="stroke:rgb(246,147,147);stroke-width:0.01" />
<line x1="-0.357143" y1="-0.294643" x2="0.0178571" y2="-0.294643" style="stroke:rgb(246,147,147);stroke-width:0.01" />
<line x1="-0.107143" y1="-0.294643" x2="-0.107143" y2="0.122024" style="stroke:rgb(246,147,147);stroke-width:0.01" />
<line x1="-0.0654762" y1="-0.294643" x2="-0.0654762" y2="0.16369" style="stroke:rgb(246,147,147);stroke-width:0.01" />
<line x1="0.0178571" y1="-0.294643" x2="0.0178571" y2="0.247024" style="stroke:rgb(246,147,147);stroke-width:0.01" />
<line x1="0.0595238" y1="0.16369" x2="0.0595238" y2="0.28869" style="stroke:rgb(246,147,147);stroke-width:0.01" />
<line x1="0.142857" y1="-0.0863095" x2="0.142857" y2="0.0386905" style="stroke:rgb(246,147,147);stroke-width:0.01" />
<line x1="0.142857" y1="0.247024" x2="0.142857" y2="0.28869" style="stroke:rgb(246,147,147);stroke-width:0.01" />
<line x1="0.184524" y1="-0.0446429" x2="0.184524" y2="0.0386905" style="stroke:rgb(246,147,147);stroke-width:0.01" />
<line x1="-0.232143" y1="-0.127976" x2="0.142857" y2="0.247024" style="stroke:rgb(246,147,147);stroke-width:0.01" />
<line x1="-0.190476" y1="-0.294643" x2="-0.357143" y2="-0.127976" style="stroke:rgb(246,147,147);stroke-width:0.01" />
<line x1="-0.357143" y1="-0.127976" x2="0.0595238" y2="0.28869" style="stroke:rgb(246,147,147);stroke-width:0.01" />
<line x1="-0.0654762" y1="-0.294643" x2="-0.294643" y2="-0.0654762" style="stroke:rgb(246,147,147);stroke-width:0.01" />
<line x1="-0.357143" y1="-0.127976" x2="-0.232143" y2="-0.127976" style="stroke:rgb(246,147,147);stroke-width:0.01" />
<line x1="-0.357143" y1="-0.0863095" x2="0.142857" y2="-0.0863095" style="stroke:rgb(246,147,147);stroke-width:0.01" />
<line x1="-0.357143" y1="-0.0446429" x2="0.184524" y2="-0.0446429" style="stroke:rgb(246,147,147);stroke-width:0.01" />
<line x1="0.142857" y1="0.0386905" x2="0.184524" y2="0.0386905" style="stroke:rgb(246,147,147);stroke-width:0.01" />
<line x1="-0.107143" y1="0.122024" x2="0.0178571" y2="0.122024" style="stroke:rgb(246,147,147);stroke-width:0.01" />
<line x1="-0.0654762" y1="0.16369" x2="0.0595238" y2="0.16369" style="stroke:rgb(246,147,147);stroke-width:0.01" />
<line x1="0.0178571" y1="0.247024" x2="0.142857" y2="0.247024" style="stroke:rgb(246,147,147);stroke-width:0.01" />
<line x1="0.0595238" y1="0.28869" x2="0.142857" y2="0.28869" style="stroke:rgb(246,147,147);stroke-width:0.01" />
</g>
</svg>
