<svg xmlns="http://www.w3.org/2000/svg" viewBox="-1.5 -1.5 3 3">
<g transform="scale(1, -1)">
<path d="M-0.082122 -0.302040 L0.058682 -0.223816 L0.260247 0.110387 L0.165907 0.169087 L0.164276 0.166466 L0.140330 0.180459 L-0.066520 -0.173531 L-0.166323 0.164390 L-0.286204 0.128984 L-0.188273 -0.220386 z " fill="rgb(245,195,195)" />
<path d="M-0.551074 -0.340347 L0.448926 -0.340347 L0.448926 0.659653 L-0.551074 0.659653  z" fill="none" stroke="rgb(128,128,128)" stroke-width="0.01" />
<line x1="0.0586822" y1="-0.223816" x2="0.260247" y2="0.110387" style="stroke:rgb(246,147,147);stroke-width:0.01" />
<line x1="-0.112635" y1="-0.278569" x2="-0.0627839" y2="-0.22557" style="stroke:rgb(246,147,147);stroke-width:0.01" />
<line x1="-0.112635" y1="-0.278569" x2="0.165907" y2="0.169087" style="stroke:rgb(246,147,147);stroke-width:0.01" />
<line x1="-0.123164" y1="-0.27047" x2="-0.0574176" y2="-0.20435" style="stroke:rgb(246,147,147);stroke-width:0.01" />
<line x1="-0.0821223" y1="-0.30204" x2="0.0586822" y2="-0.223816" style="stroke:rgb(246,147,147);stroke-width:0.01" />
<line x1="-0.123164" y1="-0.27047" x2="0.14033" y2="0.180459" style="stroke:rgb(246,147,147);stroke-width:0.01" />
<line x1="-0.0821223" y1="-0.30204" x2="-0.0574176" y2="-0.20435" style="stroke:rgb(246,147,147);stroke-width:0.01" />
<line x1="-0.188273" y1="-0.220386" x2="-0.286204" y2="0.128984" style="stroke:rgb(246,147,147);stroke-width:0.01" />
<line x1="0.0586822" y1="-0.223816" x2="-0.188273" y2="-0.220386" style="stroke:rgb(246,147,147);stroke-width:0.01" />
<line x1="-0.0627839" y1="-0.22557" x2="-0.165386" y2="0.161047" style="stroke:rgb(246,147,147);stroke-width:0.01" />
<line x1="-0.0574176" y1="-0.20435" x2="-0.166323" y2="0.16439" style="stroke:rgb(246,147,147);stroke-width:0.01" />
<line x1="-0.0821223" y1="-0.30204" x2="-0.188273" y2="-0.220386" style="stroke:rgb(246,147,147);stroke-width:0.01" />
<line x1="-0.286204" y1="0.128984" x2="-0.166323" y2="0.16439" style="stroke:rgb(246,147,147);stroke-width:0.01" />
<line x1="-0.286204" y1="0.128984" x2="-0.165386" y2="0.161047" style="stroke:rgb(246,147,147);stroke-width:0.01" />
<line x1="0.260247" y1="0.110387" x2="0.165907" y2="0.169087" style="stroke:rgb(246,147,147);stroke-width:0.01" />
<line x1="0.260247" y1="0.110387" x2="0.14033" y2="0.180459" style="stroke:rgb(246,147,147);stroke-width:0.01" />
</g>
</svg>
