<svg xmlns="http://www.w3.org/2000/svg" viewBox="-1.5 -1.5 3 3">
<path d="M0.029072 -0.654009 L0.218055 -0.417780 L0.350086 0.286384 L0.115150 0.377695 L-0.035632 0.390725 L-0.058126 0.347143 L-0.057302 0.343045 L-0.022844 0.349968 L-0.002893 0.286384 L-0.221958 0.286384 L-0.221958 -0.410586 L-0.049076 -0.578230 L-0.042575 -0.607123 z " fill="rgb(245,195,195)" />
<path d="M-0.221958 -0.713616 L0.778042 -0.713616 L0.778042 0.286384 L-0.221958 0.286384  z" fill="none" stroke="rgb(128,128,128)" stroke-width="0.01" />
<line x1="0.0290719" y1="-0.654009" x2="0.218055" y2="-0.41778" style="stroke:rgb(246,147,147);stroke-width:0.01" />
<line x1="0.218055" y1="-0.41778" x2="0.350086" y2="0.286384" style="stroke:rgb(246,147,147);stroke-width:0.01" />
<line x1="-0.221958" y1="-0.410586" x2="-0.221958" y2="0.286384" style="stroke:rgb(246,147,147);stroke-width:0.01" />
<line x1="0.086498" y1="-0.582227" x2="0.0809286" y2="-0.401264" style="stroke:rgb(246,147,147);stroke-width:0.01" />
<line x1="-0.0425747" y1="-0.607123" x2="-0.193489" y2="0.0636086" style="stroke:rgb(246,147,147);stroke-width:0.01" />
<line x1="-0.0425747" y1="-0.607123" x2="0.086498" y2="-0.582227" style="stroke:rgb(246,147,147);stroke-width:0.01" />
<line x1="-0.0573022" y1="0.343045" x2="-0.0581257" y2="0.347143" style="stroke:rgb(246,147,147);stroke-width:0.01" />
<line x1="0.218055" y1="-0.41778" x2="-0.0356324" y2="0.390725" style="stroke:rgb(246,147,147);stroke-width:0.01" />
<line x1="0.0290719" y1="-0.654009" x2="-0.221958" y2="-0.410586" style="stroke:rgb(246,147,147);stroke-width:0.01" />
<line x1="-0.0581257" y1="0.347143" x2="-0.0356324" y2="0.390725" style="stroke:rgb(246,147,147);stroke-width:0.01" />
<line x1="0.0290719" y1="-0.654009" x2="-0.0425747" y2="-0.607123" style="stroke:rgb(246,147,147);stroke-width:0.01" />
<line x1="-0.221958" y1="-0.410586" x2="0.0809286" y2="-0.401264" style="stroke:rgb(246,147,147);stroke-width:0.01" />
<line x1="-0.193489" y1="0.0636086" x2="0.330418" y2="0.181488" style="stroke:rgb(246,147,147);stroke-width:0.01" />
<line x1="-0.0581257" y1="0.347143" x2="0.027367" y2="0.385281" style="stroke:rgb(246,147,147);stroke-width:0.01" />
<line x1="0.330418" y1="0.181488" x2="0.027367" y2="0.385281" style="stroke:rgb(246,147,147);stroke-width:0.01" />
<line x1="-0.0573022" y1="0.343045" x2="0.11515" y2="0.377695" style="stroke:rgb(246,147,147);stroke-width:0.01" />
<line x1="-0.221958" y1="0.286384" x2="0.350086" y2="0.286384" style="stroke:rgb(246,147,147);stroke-width:0.01" />
<line x1="0.350086" y1="0.286384" x2="0.11515" y2="0.377695" style="stroke:rgb(246,147,147);stroke-width:0.01" />
<line x1="0.11515" y1="0.377695" x2="-0.0356324" y2="0.390725" style="stroke:rgb(246,147,147);stroke-width:0.01" />
</svg>
