<svg xmlns="http://www.w3.org/2000/svg" viewBox="-1.5 -1.5 3 3">
<g transform="scale(1, -1)">
<path d="M0.100000 -0.183333 L0.183333 -0.100000 L-0.066667 0.150000 L-0.108333 0.108333 L-0.108333 0.025000 z " fill="rgb(245,195,195)" />
<path d="M-0.275000 -0.475000 L0.725000 -0.475000 L0.725000 0.525000 L-0.275000 0.525000  z" fill="none" stroke="rgb(128,128,128)" stroke-width="0.01" />
<line x1="0.1" y1="-0.183333" x2="0.183333" y2="-0.1" style="stroke:rgb(246,147,147);stroke-width:0.01" />
<line x1="-0.108333" y1="0.025" x2="-0.108333" y2="0.108333" style="stroke:rgb(246,147,147);stroke-width:0.01" />
<line x1="-0.025" y1="-0.0583333" x2="-0.025" y2="0.108333" style="stroke:rgb(246,147,147);stroke-width:0.01" />
<line x1="0.141667" y1="-0.141667" x2="0.141667" y2="-0.0583333" style="stroke:rgb(246,147,147);stroke-width:0.01" />
<line x1="-0.108333" y1="0.025" x2="-0.0666667" y2="0.0666667" style="stroke:rgb(246,147,147);stroke-width:0.01" />
<line x1="-0.108333" y1="0.108333" x2="-0.0666667" y2="0.15" style="stroke:rgb(246,147,147);stroke-width:0.01" />
<line x1="0.1" y1="-0.183333" x2="-0.108333" y2="0.025" style="stroke:rgb(246,147,147);stroke-width:0.01" />
<line x1="0.141667" y1="-0.141667" x2="-0.108333" y2="0.108333" style="stroke:rgb(246,147,147);stroke-width:0.01" />
<line x1="-0.025" y1="-0.0583333" x2="0.141667" y2="-0.0583333" style="stroke:rgb(246,147,147);stroke-width:0.01" />
<line x1="0.183333" y1="-0.1" x2="-0.0666667" y2="0.15" style="stroke:rgb(246,147,147);stroke-width:0.01" />
<line x1="-0.108333" y1="0.108333" x2="-0.025" y2="0.108333" style="stroke:rgb(246,147,147);stroke-width:0.01" />
</g>
</svg>
