<svg xmlns="http://www.w3.org/2000/svg" viewBox="-1.5 -1.5 3 3">
<g transform="scale(1, -1)">
<path d="M-0.015625 -0.135417 L0.026042 -0.135417 L0.026042 -0.010417 L0.067708 -0.052083 L0.151042 0.031250 L0.026042 0.156250 L-0.140625 0.156250 L-0.140625 -0.010417 z " fill="rgb(245,195,195)" />
<path d="M-0.307292 -0.510417 L0.692708 -0.510417 L0.692708 0.489583 L-0.307292 0.489583  z" fill="none" stroke="rgb(128,128,128)" stroke-width="0.01" />
<line x1="-0.140625" y1="-0.0104167" x2="-0.140625" y2="0.15625" style="stroke:rgb(246,147,147);stroke-width:0.01" />
<line x1="-0.0989583" y1="0.03125" x2="-0.0989583" y2="0.15625" style="stroke:rgb(246,147,147);stroke-width:0.01" />
<line x1="-0.0572917" y1="-0.0104167" x2="-0.0572917" y2="0.15625" style="stroke:rgb(246,147,147);stroke-width:0.01" />
<line x1="-0.015625" y1="-0.135417" x2="-0.015625" y2="0.03125" style="stroke:rgb(246,147,147);stroke-width:0.01" />
<line x1="0.0260417" y1="-0.135417" x2="0.0260417" y2="0.15625" style="stroke:rgb(246,147,147);stroke-width:0.01" />
<line x1="0.0677083" y1="0.0729167" x2="0.0677083" y2="0.114583" style="stroke:rgb(246,147,147);stroke-width:0.01" />
<line x1="0.109375" y1="-0.0104167" x2="0.109375" y2="0.0729167" style="stroke:rgb(246,147,147);stroke-width:0.01" />
<line x1="0.0677083" y1="-0.0520833" x2="0.151042" y2="0.03125" style="stroke:rgb(246,147,147);stroke-width:0.01" />
<line x1="-0.0572917" y1="-0.09375" x2="0.0260417" y2="-0.0104167" style="stroke:rgb(246,147,147);stroke-width:0.01" />
<line x1="-0.140625" y1="-0.0104167" x2="0.0260417" y2="0.15625" style="stroke:rgb(246,147,147);stroke-width:0.01" />
<line x1="-0.015625" y1="-0.135417" x2="-0.140625" y2="-0.0104167" style="stroke:rgb(246,147,147);stroke-width:0.01" />
<line x1="-0.015625" y1="-0.135417" x2="0.0260417" y2="-0.135417" style="stroke:rgb(246,147,147);stroke-width:0.01" />
<line x1="0.0677083" y1="-0.0520833" x2="-0.140625" y2="0.15625" style="stroke:rgb(246,147,147);stroke-width:0.01" />
<line x1="0.109375" y1="-0.0104167" x2="-0.015625" y2="0.114583" style="stroke:rgb(246,147,147);stroke-width:0.01" />
<line x1="-0.140625" y1="-0.0104167" x2="0.109375" y2="-0.0104167" style="stroke:rgb(246,147,147);stroke-width:0.01" />
<line x1="0.151042" y1="0.03125" x2="0.0260417" y2="0.15625" style="stroke:rgb(246,147,147);stroke-width:0.01" />
<line x1="-0.140625" y1="0.03125" x2="-0.015625" y2="0.03125" style="stroke:rgb(246,147,147);stroke-width:0.01" />
<line x1="-0.0572917" y1="0.0729167" x2="0.109375" y2="0.0729167" style="stroke:rgb(246,147,147);stroke-width:0.01" />
<line x1="-0.0989583" y1="0.114583" x2="0.0677083" y2="0.114583" style="stroke:rgb(246,147,147);stroke-width:0.01" />
<line x1="-0.140625" y1="0.15625" x2="0.0260417" y2="0.15625" style="stroke:rgb(246,147,147);stroke-width:0.01" />
</g>
</svg>
