<svg xmlns="http://www.w3.org/2000/svg" viewBox="-1.5 -1.5 3 3">
<g transform="scale(1, -1)">
<path d="M-0.166667 -0.369048 L0.166667 -0.369048 L0.166667 -0.285714 L0.333333 -0.119048 L0.333333 0.130952 L0.250000 0.130952 L0.166667 0.214286 L0.166667 0.297619 L-0.166667 0.297619 L-0.166667 0.214286 L-0.250000 0.130952 L-0.333333 0.130952 L-0.333333 -0.119048 L-0.166667 -0.285714 z " fill="rgb(245,195,195)" />
<path d="M-0.333333 -0.369048 L0.666667 -0.369048 L0.666667 0.630952 L-0.333333 0.630952  z" fill="none" stroke="rgb(128,128,128)" stroke-width="0.01" />
<line x1="0.0833333" y1="-0.369048" x2="0.333333" y2="-0.119048" style="stroke:rgb(246,147,147);stroke-width:0.01" />
<line x1="-0.166667" y1="-0.369048" x2="0.166667" y2="-0.369048" style="stroke:rgb(246,147,147);stroke-width:0.01" />
<line x1="-0.333333" y1="-0.119048" x2="-0.333333" y2="0.130952" style="stroke:rgb(246,147,147);stroke-width:0.01" />
<line x1="-0.166667" y1="-0.369048" x2="-0.166667" y2="0.297619" style="stroke:rgb(246,147,147);stroke-width:0.01" />
<line x1="-0.0833333" y1="-0.369048" x2="-0.0833333" y2="0.297619" style="stroke:rgb(246,147,147);stroke-width:0.01" />
<line x1="0.0833333" y1="-0.369048" x2="0.0833333" y2="0.297619" style="stroke:rgb(246,147,147);stroke-width:0.01" />
<line x1="0.166667" y1="-0.369048" x2="0.166667" y2="0.297619" style="stroke:rgb(246,147,147);stroke-width:0.01" />
<line x1="0.333333" y1="-0.119048" x2="0.333333" y2="0.130952" style="stroke:rgb(246,147,147);stroke-width:0.01" />
<line x1="-0.0833333" y1="-0.369048" x2="-0.333333" y2="-0.119048" style="stroke:rgb(246,147,147);stroke-width:0.01" />
<line x1="-0.333333" y1="0.047619" x2="-0.0833333" y2="0.297619" style="stroke:rgb(246,147,147);stroke-width:0.01" />
<line x1="-0.333333" y1="-0.119048" x2="-0.0833333" y2="-0.119048" style="stroke:rgb(246,147,147);stroke-width:0.01" />
<line x1="0.0833333" y1="-0.119048" x2="0.333333" y2="-0.119048" style="stroke:rgb(246,147,147);stroke-width:0.01" />
<line x1="-0.333333" y1="-0.0357143" x2="0.333333" y2="-0.0357143" style="stroke:rgb(246,147,147);stroke-width:0.01" />
<line x1="-0.333333" y1="0.047619" x2="-0.0833333" y2="0.047619" style="stroke:rgb(246,147,147);stroke-width:0.01" />
<line x1="0.0833333" y1="0.047619" x2="0.333333" y2="0.047619" style="stroke:rgb(246,147,147);stroke-width:0.01" />
<line x1="-0.333333" y1="0.130952" x2="0.333333" y2="0.130952" style="stroke:rgb(246,147,147);stroke-width:0.01" />
<line x1="0.333333" y1="0.047619" x2="0.0833333" y2="0.297619" style="stroke:rgb(246,147,147);stroke-width:0.01" />
<line x1="-0.166667" y1="0.297619" x2="0.166667" y2="0.297619" style="stroke:rgb(246,147,147);stroke-width:0.01" />
</g>
</svg>
