<svg xmlns="http://www.w3.org/2000/svg" viewBox="-1.5 -1.5 3 3">
<g transform="scale(1, -1)">
<path d="M0.141395 -0.212149 L0.141430 0.070693 L0.212149 0.141395 L0.070746 0.282834 L-0.070676 0.282851 L-0.212115 0.141447 L-0.141413 0.070728 L-0.141447 -0.212115 z M-0.000026 -0.212132 L-0.070728 -0.141413 L-0.000009 -0.070711 L0.070693 -0.141430 z " fill="rgb(245,195,195)" />
<path d="M-0.499991 -0.429289 L0.500009 -0.429289 L0.500009 0.570711 L-0.499991 0.570711  z" fill="none" stroke="rgb(128,128,128)" stroke-width="0.01" />
<line x1="-2.61279e-05" y1="-0.212132" x2="0.141413" y2="-0.0707281" style="stroke:rgb(246,147,147);stroke-width:0.01" />
<line x1="-0.141447" y1="-0.212115" x2="0.212149" y2="0.141395" style="stroke:rgb(246,147,147);stroke-width:0.01" />
<line x1="0.141395" y1="-0.212149" x2="0.141447" y2="0.212115" style="stroke:rgb(246,147,147);stroke-width:0.01" />
<line x1="-0.141447" y1="-0.212115" x2="-0.141395" y2="0.212149" style="stroke:rgb(246,147,147);stroke-width:0.01" />
<line x1="-0.14143" y1="-0.0706933" x2="0.141447" y2="0.212115" style="stroke:rgb(246,147,147);stroke-width:0.01" />
<line x1="2.61279e-05" y1="0.212132" x2="0.0707455" y2="0.282834" style="stroke:rgb(246,147,147);stroke-width:0.01" />
<line x1="-0.212115" y1="0.141447" x2="-0.0706758" y2="0.282851" style="stroke:rgb(246,147,147);stroke-width:0.01" />
<line x1="0.141395" y1="-0.212149" x2="-0.141447" y2="-0.212115" style="stroke:rgb(246,147,147);stroke-width:0.01" />
<line x1="-2.61279e-05" y1="-0.212132" x2="-0.14143" y2="-0.0706933" style="stroke:rgb(246,147,147);stroke-width:0.01" />
<line x1="0.141395" y1="-0.212149" x2="-0.212115" y2="0.141447" style="stroke:rgb(246,147,147);stroke-width:0.01" />
<line x1="0.141413" y1="-0.0707281" x2="-0.141395" y2="0.212149" style="stroke:rgb(246,147,147);stroke-width:0.01" />
<line x1="2.61279e-05" y1="0.212132" x2="-0.0706758" y2="0.282851" style="stroke:rgb(246,147,147);stroke-width:0.01" />
<line x1="0.212149" y1="0.141395" x2="0.0707455" y2="0.282834" style="stroke:rgb(246,147,147);stroke-width:0.01" />
<line x1="0.141447" y1="0.212115" x2="-0.141395" y2="0.212149" style="stroke:rgb(246,147,147);stroke-width:0.01" />
<line x1="0.0707455" y1="0.282834" x2="-0.0706758" y2="0.282851" style="stroke:rgb(246,147,147);stroke-width:0.01" />
</g>
</svg>
