<svg xmlns="http://www.w3.org/2000/svg" viewBox="-1.5 -1.5 3 3">
<g transform="scale(1, -1)">
<path d="M-0.113754 -0.298113 L0.085613 -0.187354 L0.285791 0.134360 L0.181825 0.203647 L-0.046291 -0.138642 L0.006121 0.104199 L-0.024314 0.110768 L-0.022993 0.117974 L-0.145944 0.140515 L-0.206053 -0.187354 z " fill="rgb(245,195,195)" />
<path d="M-0.539387 -0.312354 L0.460613 -0.312354 L0.460613 0.687646 L-0.539387 0.687646  z" fill="none" stroke="rgb(128,128,128)" stroke-width="0.01" />
<line x1="0.0856135" y1="-0.187354" x2="0.285791" y2="0.13436" style="stroke:rgb(246,147,147);stroke-width:0.01" />
<line x1="-0.113754" y1="-0.298113" x2="-0.0689576" y2="-0.243662" style="stroke:rgb(246,147,147);stroke-width:0.01" />
<line x1="-0.117323" y1="-0.29383" x2="0.177595" y2="0.19708" style="stroke:rgb(246,147,147);stroke-width:0.01" />
<line x1="-0.123356" y1="-0.286591" x2="0.177595" y2="0.19708" style="stroke:rgb(246,147,147);stroke-width:0.01" />
<line x1="-0.135321" y1="-0.272232" x2="0.181825" y2="0.203647" style="stroke:rgb(246,147,147);stroke-width:0.01" />
<line x1="-0.113754" y1="-0.298113" x2="0.0856135" y2="-0.187354" style="stroke:rgb(246,147,147);stroke-width:0.01" />
<line x1="-0.117323" y1="-0.29383" x2="-0.107053" y2="-0.289969" style="stroke:rgb(246,147,147);stroke-width:0.01" />
<line x1="-0.123356" y1="-0.286591" x2="-0.0951242" y2="-0.275469" style="stroke:rgb(246,147,147);stroke-width:0.01" />
<line x1="-0.135321" y1="-0.272232" x2="-0.0689576" y2="-0.243662" style="stroke:rgb(246,147,147);stroke-width:0.01" />
<line x1="-0.0689576" y1="-0.243662" x2="0.00612057" y2="0.104199" style="stroke:rgb(246,147,147);stroke-width:0.01" />
<line x1="-0.0951242" y1="-0.275469" x2="-0.0229931" y2="0.117974" style="stroke:rgb(246,147,147);stroke-width:0.01" />
<line x1="-0.107053" y1="-0.289969" x2="-0.0383619" y2="0.120792" style="stroke:rgb(246,147,147);stroke-width:0.01" />
<line x1="-0.206053" y1="-0.187354" x2="-0.145944" y2="0.140515" style="stroke:rgb(246,147,147);stroke-width:0.01" />
<line x1="-0.206053" y1="-0.187354" x2="0.0856135" y2="-0.187354" style="stroke:rgb(246,147,147);stroke-width:0.01" />
<line x1="-0.113754" y1="-0.298113" x2="-0.206053" y2="-0.187354" style="stroke:rgb(246,147,147);stroke-width:0.01" />
<line x1="-0.0383619" y1="0.120792" x2="-0.14656" y2="0.137152" style="stroke:rgb(246,147,147);stroke-width:0.01" />
<line x1="-0.0229931" y1="0.117974" x2="-0.145944" y2="0.140515" style="stroke:rgb(246,147,147);stroke-width:0.01" />
<line x1="0.00612057" y1="0.104199" x2="-0.14656" y2="0.137152" style="stroke:rgb(246,147,147);stroke-width:0.01" />
<line x1="0.283727" y1="0.131042" x2="0.177595" y2="0.19708" style="stroke:rgb(246,147,147);stroke-width:0.01" />
<line x1="0.285791" y1="0.13436" x2="0.181825" y2="0.203647" style="stroke:rgb(246,147,147);stroke-width:0.01" />
<line x1="0.285791" y1="0.13436" x2="0.177595" y2="0.19708" style="stroke:rgb(246,147,147);stroke-width:0.01" />
</g>
</svg>
