<svg xmlns="http://www.w3.org/2000/svg" viewBox="-1.5 -1.5 3 3">
<g transform="scale(1, -1)">
<path d="M-0.301791 -0.370138 L-0.219903 -0.326045 L-0.218185 -0.320319 L0.026204 -0.308555 L0.533790 0.108351 L0.452733 0.467476 L0.071612 0.381454 L0.017799 0.337255 L-0.025669 0.356539 L-0.336589 -0.326018 z " fill="rgb(245,195,195)" />
<path d="M-1.337142 -0.134201 L-0.337142 -0.134201 L-0.337142 0.865799 L-1.337142 0.865799  z" fill="none" stroke="rgb(128,128,128)" stroke-width="0.01" />
<line x1="0.0262042" y1="-0.308555" x2="0.53379" y2="0.108351" style="stroke:rgb(246,147,147);stroke-width:0.01" />
<line x1="-0.301791" y1="-0.370138" x2="-0.115172" y2="-0.161221" style="stroke:rgb(246,147,147);stroke-width:0.01" />
<line x1="-0.301791" y1="-0.370138" x2="-0.219903" y2="-0.326045" style="stroke:rgb(246,147,147);stroke-width:0.01" />
<line x1="0.0262841" y1="0.279277" x2="0.0716117" y2="0.381454" style="stroke:rgb(246,147,147);stroke-width:0.01" />
<line x1="-0.328012" y1="-0.336893" x2="-0.0077306" y2="0.348152" style="stroke:rgb(246,147,147);stroke-width:0.01" />
<line x1="-0.336589" y1="-0.326018" x2="-0.0256689" y2="0.356539" style="stroke:rgb(246,147,147);stroke-width:0.01" />
<line x1="-0.328012" y1="-0.336893" x2="-0.0891963" y2="-0.287939" style="stroke:rgb(246,147,147);stroke-width:0.01" />
<line x1="-0.0656899" y1="0.268681" x2="0.0716117" y2="0.381454" style="stroke:rgb(246,147,147);stroke-width:0.01" />
<line x1="-0.219903" y1="-0.326045" x2="-0.0636027" y2="0.194942" style="stroke:rgb(246,147,147);stroke-width:0.01" />
<line x1="-0.283121" y1="-0.20864" x2="0.0721124" y2="-0.128461" style="stroke:rgb(246,147,147);stroke-width:0.01" />
<line x1="-0.336589" y1="-0.326018" x2="0.0262042" y2="-0.308555" style="stroke:rgb(246,147,147);stroke-width:0.01" />
<line x1="-0.0794207" y1="0.238538" x2="0.0262841" y2="0.279277" style="stroke:rgb(246,147,147);stroke-width:0.01" />
<line x1="-0.0636027" y1="0.194942" x2="-0.0656899" y2="0.268681" style="stroke:rgb(246,147,147);stroke-width:0.01" />
<line x1="0.0716117" y1="0.381454" x2="0.452733" y2="0.467476" style="stroke:rgb(246,147,147);stroke-width:0.01" />
<line x1="-0.0891963" y1="-0.287939" x2="-0.115172" y2="-0.161221" style="stroke:rgb(246,147,147);stroke-width:0.01" />
<line x1="-0.115172" y1="-0.161221" x2="-0.245507" y2="-0.126067" style="stroke:rgb(246,147,147);stroke-width:0.01" />
<line x1="0.0721124" y1="-0.128461" x2="-0.0250583" y2="0.302054" style="stroke:rgb(246,147,147);stroke-width:0.01" />
<line x1="-0.301791" y1="-0.370138" x2="-0.336589" y2="-0.326018" style="stroke:rgb(246,147,147);stroke-width:0.01" />
<line x1="0.53379" y1="0.108351" x2="0.452733" y2="0.467476" style="stroke:rgb(246,147,147);stroke-width:0.01" />
<line x1="-0.219903" y1="-0.326045" x2="-0.283121" y2="-0.20864" style="stroke:rgb(246,147,147);stroke-width:0.01" />
<line x1="-0.0636027" y1="0.194942" x2="-0.0794207" y2="0.238538" style="stroke:rgb(246,147,147);stroke-width:0.01" />
<line x1="0.0262042" y1="-0.308555" x2="-0.245507" y2="-0.126067" style="stroke:rgb(246,147,147);stroke-width:0.01" />
<line x1="0.0262841" y1="0.279277" x2="-0.0250583" y2="0.302054" style="stroke:rgb(246,147,147);stroke-width:0.01" />
<line x1="0.53379" y1="0.108351" x2="-0.0256689" y2="0.356539" style="stroke:rgb(246,147,147);stroke-width:0.01" />
<line x1="-0.0077306" y1="0.348152" x2="-0.0256689" y2="0.356539" style="stroke:rgb(246,147,147);stroke-width:0.01" />
</g>
</svg>
