<svg xmlns="http://www.w3.org/2000/svg" viewBox="-1.5 -1.5 3 3">
<g transform="scale(1, -1)">
<path d="M-0.172422 -0.265210 L0.146953 -0.152914 L0.163863 -0.160616 L0.305957 0.147291 L-0.151150 0.363782 L-0.293201 0.067667 z " fill="rgb(245,195,195)" />
<path d="M-1.612022 -0.423244 L-0.612022 -0.423244 L-0.612022 0.576756 L-1.612022 0.576756  z" fill="none" stroke="rgb(128,128,128)" stroke-width="0.01" />
<line x1="-0.135484" y1="-0.25139" x2="0.00296836" y2="-0.0781063" style="stroke:rgb(246,147,147);stroke-width:0.01" />
<line x1="0.162812" y1="-0.147338" x2="0.305957" y2="0.147291" style="stroke:rgb(246,147,147);stroke-width:0.01" />
<line x1="0.163863" y1="-0.160616" x2="0.305957" y2="0.147291" style="stroke:rgb(246,147,147);stroke-width:0.01" />
<line x1="-0.125137" y1="-0.175479" x2="0.00296836" y2="-0.0781063" style="stroke:rgb(246,147,147);stroke-width:0.01" />
<line x1="0.00296836" y1="-0.0781063" x2="0.00707227" y2="-0.0690959" style="stroke:rgb(246,147,147);stroke-width:0.01" />
<line x1="-0.211616" y1="-0.157187" x2="0.00322601" y2="0.290668" style="stroke:rgb(246,147,147);stroke-width:0.01" />
<line x1="-0.0687582" y1="0.136701" x2="0.00322601" y2="0.290668" style="stroke:rgb(246,147,147);stroke-width:0.01" />
<line x1="-0.286825" y1="0.0500951" x2="-0.282611" y2="0.0591088" style="stroke:rgb(246,147,147);stroke-width:0.01" />
<line x1="-0.293201" y1="0.0676673" x2="-0.15115" y2="0.363782" style="stroke:rgb(246,147,147);stroke-width:0.01" />
<line x1="-0.284371" y1="0.0435381" x2="-0.21357" y2="0.198986" style="stroke:rgb(246,147,147);stroke-width:0.01" />
<line x1="-0.291624" y1="0.063323" x2="-0.15115" y2="0.363782" style="stroke:rgb(246,147,147);stroke-width:0.01" />
<line x1="-0.172422" y1="-0.26521" x2="-0.135484" y2="-0.25139" style="stroke:rgb(246,147,147);stroke-width:0.01" />
<line x1="-0.172422" y1="-0.26521" x2="0.162812" y2="-0.147338" style="stroke:rgb(246,147,147);stroke-width:0.01" />
<line x1="-0.135484" y1="-0.25139" x2="-0.125137" y2="-0.175479" style="stroke:rgb(246,147,147);stroke-width:0.01" />
<line x1="-0.21357" y1="0.198986" x2="0.0156949" y2="0.284762" style="stroke:rgb(246,147,147);stroke-width:0.01" />
<line x1="-0.172422" y1="-0.26521" x2="-0.293201" y2="0.0676673" style="stroke:rgb(246,147,147);stroke-width:0.01" />
<line x1="0.162812" y1="-0.147338" x2="0.0156949" y2="0.284762" style="stroke:rgb(246,147,147);stroke-width:0.01" />
<line x1="-0.100612" y1="-0.207745" x2="-0.211616" y2="-0.157187" style="stroke:rgb(246,147,147);stroke-width:0.01" />
<line x1="-0.100612" y1="-0.207745" x2="-0.125137" y2="-0.175479" style="stroke:rgb(246,147,147);stroke-width:0.01" />
<line x1="0.163863" y1="-0.160616" x2="-0.284371" y2="0.0435381" style="stroke:rgb(246,147,147);stroke-width:0.01" />
<line x1="0.163863" y1="-0.160616" x2="-0.286825" y2="0.0500951" style="stroke:rgb(246,147,147);stroke-width:0.01" />
<line x1="0.00707227" y1="-0.0690959" x2="-0.293201" y2="0.0676673" style="stroke:rgb(246,147,147);stroke-width:0.01" />
<line x1="-0.282611" y1="0.0591088" x2="-0.291624" y2="0.063323" style="stroke:rgb(246,147,147);stroke-width:0.01" />
<line x1="0.235437" y1="-0.00552005" x2="-0.21357" y2="0.198986" style="stroke:rgb(246,147,147);stroke-width:0.01" />
<line x1="0.235437" y1="-0.00552005" x2="-0.0687582" y2="0.136701" style="stroke:rgb(246,147,147);stroke-width:0.01" />
<line x1="0.305957" y1="0.147291" x2="-0.15115" y2="0.363782" style="stroke:rgb(246,147,147);stroke-width:0.01" />
</g>
</svg>
