<svg xmlns="http://www.w3.org/2000/svg" viewBox="-1.5 -1.5 3 3">
<g transform="scale(1, -1)">
<path d="M0.169267 -0.188454 L0.213167 -0.079084 L0.114962 0.150820 L0.077334 0.057075 L-0.108243 0.164218 L-0.449749 0.072713 L-0.016737 -0.177288 z " fill="rgb(245,195,195)" />
<path d="M0.550251 -1.927287 L1.550251 -1.927287 L1.550251 -0.927287 L0.550251 -0.927287  z" fill="none" stroke="rgb(128,128,128)" stroke-width="0.01" />
<line x1="0.169267" y1="-0.188454" x2="0.108263" y2="0.0392175" style="stroke:rgb(246,147,147);stroke-width:0.01" />
<line x1="0.213167" y1="-0.0790841" x2="0.114962" y2="0.15082" style="stroke:rgb(246,147,147);stroke-width:0.01" />
<line x1="0.169267" y1="-0.188454" x2="0.213167" y2="-0.0790841" style="stroke:rgb(246,147,147);stroke-width:0.01" />
<line x1="-0.0167375" y1="-0.177288" x2="0.114962" y2="0.15082" style="stroke:rgb(246,147,147);stroke-width:0.01" />
<line x1="-0.0167375" y1="-0.177288" x2="0.108263" y2="0.0392175" style="stroke:rgb(246,147,147);stroke-width:0.01" />
<line x1="-0.233243" y1="-0.0522877" x2="-0.108243" y2="0.164218" style="stroke:rgb(246,147,147);stroke-width:0.01" />
<line x1="-0.0167375" y1="-0.177288" x2="-0.449749" y2="0.072713" style="stroke:rgb(246,147,147);stroke-width:0.01" />
<line x1="0.108263" y1="0.0392175" x2="-0.108243" y2="0.164218" style="stroke:rgb(246,147,147);stroke-width:0.01" />
<line x1="-0.0167375" y1="-0.177288" x2="0.213167" y2="-0.0790841" style="stroke:rgb(246,147,147);stroke-width:0.01" />
<line x1="0.169267" y1="-0.188454" x2="-0.0167375" y2="-0.177288" style="stroke:rgb(246,147,147);stroke-width:0.01" />
<line x1="-0.449749" y1="0.072713" x2="-0.108243" y2="0.164218" style="stroke:rgb(246,147,147);stroke-width:0.01" />
</g>
</svg>
