<svg xmlns="http://www.w3.org/2000/svg" viewBox="-1.5 -1.5 3 3">
<g transform="scale(1, -1)">
<path d="M0.391258 -0.588997 L0.390473 -0.587815 L0.588096 0.390417 L-0.390136 0.588039 L-0.390920 0.589221 L-0.489930 0.099122 L-0.098841 -0.489987 z " fill="rgb(245,195,195)" />
<path d="M0.391258 -0.588997 L1.391258 -0.588997 L1.391258 0.411003 L0.391258 0.411003  z" fill="none" stroke="rgb(128,128,128)" stroke-width="0.01" />
<line x1="-0.0988411" y1="-0.489987" x2="-0.48993" y2="0.099122" style="stroke:rgb(246,147,147);stroke-width:0.01" />
<line x1="0.390275" y1="-0.588798" x2="-0.391119" y2="0.588238" style="stroke:rgb(246,147,147);stroke-width:0.01" />
<line x1="0.391258" y1="-0.588997" x2="-0.39092" y2="0.589221" style="stroke:rgb(246,147,147);stroke-width:0.01" />
<line x1="0.391258" y1="-0.588997" x2="-0.0988411" y2="-0.489987" style="stroke:rgb(246,147,147);stroke-width:0.01" />
<line x1="0.390275" y1="-0.588798" x2="0.588096" y2="0.390417" style="stroke:rgb(246,147,147);stroke-width:0.01" />
<line x1="-0.0988411" y1="-0.489987" x2="0.000168823" y2="0.000112076" style="stroke:rgb(246,147,147);stroke-width:0.01" />
<line x1="-0.48993" y1="0.099122" x2="-0.39092" y2="0.589221" style="stroke:rgb(246,147,147);stroke-width:0.01" />
<line x1="0.000168823" y1="0.000112076" x2="-0.48993" y2="0.099122" style="stroke:rgb(246,147,147);stroke-width:0.01" />
<line x1="0.588096" y1="0.390417" x2="-0.391119" y2="0.588238" style="stroke:rgb(246,147,147);stroke-width:0.01" />
</g>
</svg>
