<svg xmlns="http://www.w3.org/2000/svg" viewBox="-1.5 -1.5 3 3">
<g transform="scale(1, -1)">
<path d="M0.020346 -0.128165 L0.151925 -0.121586 L0.153335 -0.120176 L0.172977 0.174467 L-0.223483 0.227564 L-0.363970 0.120263 L-0.116182 0.087077 L-0.008881 -0.053409 L0.061362 0.000241 L0.072977 -0.014966 L0.072977 -0.057025 L0.065496 -0.050907 L-0.058880 -0.063376 z " fill="rgb(245,195,195)" />
<path d="M0.072977 -0.325533 L1.072977 -0.325533 L1.072977 0.674467 L0.072977 0.674467  z" fill="none" stroke="rgb(128,128,128)" stroke-width="0.01" />
<line x1="0.153335" y1="-0.120176" x2="0.172977" y2="0.174467" style="stroke:rgb(246,147,147);stroke-width:0.01" />
<line x1="0.0729774" y1="-0.125533" x2="0.0729774" y2="0.174467" style="stroke:rgb(246,147,147);stroke-width:0.01" />
<line x1="0.0729774" y1="-0.125533" x2="0.0654961" y2="-0.0509074" style="stroke:rgb(246,147,147);stroke-width:0.01" />
<line x1="-0.00888102" y1="-0.0534095" x2="-0.223483" y2="0.227564" style="stroke:rgb(246,147,147);stroke-width:0.01" />
<line x1="0.151925" y1="-0.121586" x2="0.153335" y2="-0.120176" style="stroke:rgb(246,147,147);stroke-width:0.01" />
<line x1="0.0203458" y1="-0.128165" x2="-0.0588805" y2="-0.0633762" style="stroke:rgb(246,147,147);stroke-width:0.01" />
<line x1="0.153335" y1="-0.120176" x2="-0.099589" y2="0.210971" style="stroke:rgb(246,147,147);stroke-width:0.01" />
<line x1="0.0203458" y1="-0.128165" x2="0.162263" y2="0.0137524" style="stroke:rgb(246,147,147);stroke-width:0.01" />
<line x1="0.151925" y1="-0.121586" x2="0.0654961" y2="-0.0509074" style="stroke:rgb(246,147,147);stroke-width:0.01" />
<line x1="0.162263" y1="0.0137524" x2="0.0243048" y2="0.194378" style="stroke:rgb(246,147,147);stroke-width:0.01" />
<line x1="0.0729774" y1="0.0494666" x2="0.171192" y2="0.147681" style="stroke:rgb(246,147,147);stroke-width:0.01" />
<line x1="0.0203458" y1="-0.128165" x2="0.151925" y2="-0.121586" style="stroke:rgb(246,147,147);stroke-width:0.01" />
<line x1="-0.00888102" y1="-0.0534095" x2="0.166727" y2="0.0807166" style="stroke:rgb(246,147,147);stroke-width:0.01" />
<line x1="0.171192" y1="0.147681" x2="0.148199" y2="0.177785" style="stroke:rgb(246,147,147);stroke-width:0.01" />
<line x1="0.166727" y1="0.0807166" x2="0.0729774" y2="0.174467" style="stroke:rgb(246,147,147);stroke-width:0.01" />
<line x1="-0.0588805" y1="-0.0633762" x2="0.0654961" y2="-0.0509074" style="stroke:rgb(246,147,147);stroke-width:0.01" />
<line x1="-0.0625315" y1="0.0168339" x2="0.148199" y2="0.177785" style="stroke:rgb(246,147,147);stroke-width:0.01" />
<line x1="-0.116182" y1="0.0870773" x2="0.0243048" y2="0.194378" style="stroke:rgb(246,147,147);stroke-width:0.01" />
<line x1="0.0729774" y1="0.0494666" x2="0.164644" y2="0.0494666" style="stroke:rgb(246,147,147);stroke-width:0.01" />
<line x1="0.164644" y1="0.0494666" x2="-0.36397" y2="0.120263" style="stroke:rgb(246,147,147);stroke-width:0.01" />
<line x1="-0.169832" y1="0.157321" x2="-0.099589" y2="0.210971" style="stroke:rgb(246,147,147);stroke-width:0.01" />
<line x1="-0.36397" y1="0.120263" x2="-0.223483" y2="0.227564" style="stroke:rgb(246,147,147);stroke-width:0.01" />
<line x1="0.0729774" y1="0.174467" x2="0.172977" y2="0.174467" style="stroke:rgb(246,147,147);stroke-width:0.01" />
<line x1="0.172977" y1="0.174467" x2="-0.223483" y2="0.227564" style="stroke:rgb(246,147,147);stroke-width:0.01" />
</g>
</svg>
