<svg xmlns="http://www.w3.org/2000/svg" viewBox="-1.5 -1.5 3 3">
<g transform="scale(1, -1)">
<path d="M-0.000162 -0.365338 L0.282806 -0.082621 L0.282869 0.058800 L0.141510 0.200284 L0.000026 0.058926 L-0.141332 0.200410 L-0.282817 0.059051 L-0.282879 -0.082370 z M0.141385 -0.082559 L-0.141458 -0.082433 L-0.141395 0.058988 L0.141448 0.058863 z " fill="rgb(245,195,195)" />
<path d="M-0.500099 -0.582621 L0.499901 -0.582621 L0.499901 0.417379 L-0.500099 0.417379  z" fill="none" stroke="rgb(128,128,128)" stroke-width="0.01" />
<line x1="-0.000162216" y1="-0.365338" x2="0.282806" y2="-0.0826214" style="stroke:rgb(246,147,147);stroke-width:0.01" />
<line x1="-0.0708415" y1="-0.294596" x2="0.282869" y2="0.0588" style="stroke:rgb(246,147,147);stroke-width:0.01" />
<line x1="0.282806" y1="-0.0826214" x2="0.282869" y2="0.0588" style="stroke:rgb(246,147,147);stroke-width:0.01" />
<line x1="0.141322" y1="-0.22398" x2="0.14151" y2="0.200284" style="stroke:rgb(246,147,147);stroke-width:0.01" />
<line x1="-0.141521" y1="-0.223854" x2="-0.141332" y2="0.20041" style="stroke:rgb(246,147,147);stroke-width:0.01" />
<line x1="-0.282879" y1="-0.0823702" x2="-0.282817" y2="0.0590511" style="stroke:rgb(246,147,147);stroke-width:0.01" />
<line x1="2.61638e-05" y1="0.0589256" x2="0.14151" y2="0.200284" style="stroke:rgb(246,147,147);stroke-width:0.01" />
<line x1="-0.282817" y1="0.0590511" x2="-0.141332" y2="0.20041" style="stroke:rgb(246,147,147);stroke-width:0.01" />
<line x1="-0.000162216" y1="-0.365338" x2="-0.282879" y2="-0.0823702" style="stroke:rgb(246,147,147);stroke-width:0.01" />
<line x1="0.141322" y1="-0.22398" x2="-0.141521" y2="-0.223854" style="stroke:rgb(246,147,147);stroke-width:0.01" />
<line x1="0.0705799" y1="-0.294659" x2="-0.282817" y2="0.0590511" style="stroke:rgb(246,147,147);stroke-width:0.01" />
<line x1="0.282806" y1="-0.0826214" x2="-0.282879" y2="-0.0823702" style="stroke:rgb(246,147,147);stroke-width:0.01" />
<line x1="2.61638e-05" y1="0.0589256" x2="-0.141332" y2="0.20041" style="stroke:rgb(246,147,147);stroke-width:0.01" />
<line x1="0.282869" y1="0.0588" x2="-0.282817" y2="0.0590511" style="stroke:rgb(246,147,147);stroke-width:0.01" />
<line x1="0.282869" y1="0.0588" x2="0.14151" y2="0.200284" style="stroke:rgb(246,147,147);stroke-width:0.01" />
</g>
</svg>
