<svg xmlns="http://www.w3.org/2000/svg" viewBox="-1.5 -1.5 3 3">
<g transform="scale(1, -1)">
<path d="M-0.097143 -0.552143 L0.502857 0.247857 L0.202857 0.205000 L0.202857 0.347857 L-0.047143 0.347857 L-0.347143 -0.052143 L-0.277143 -0.292143 L-0.140000 -0.252143 z " fill="rgb(245,195,195)" />
<path d="M-0.797143 -0.652143 L0.202857 -0.652143 L0.202857 0.347857 L-0.797143 0.347857  z" fill="none" stroke="rgb(128,128,128)" stroke-width="0.01" />
<line x1="-0.0971429" y1="-0.552143" x2="0.502857" y2="0.247857" style="stroke:rgb(246,147,147);stroke-width:0.01" />
<line x1="-0.147143" y1="-0.202143" x2="0.152857" y2="0.197857" style="stroke:rgb(246,147,147);stroke-width:0.01" />
<line x1="-0.347143" y1="-0.0521429" x2="-0.0471429" y2="0.347857" style="stroke:rgb(246,147,147);stroke-width:0.01" />
<line x1="0.202857" y1="-0.152143" x2="0.202857" y2="0.347857" style="stroke:rgb(246,147,147);stroke-width:0.01" />
<line x1="-0.0971429" y1="-0.552143" x2="-0.147143" y2="-0.202143" style="stroke:rgb(246,147,147);stroke-width:0.01" />
<line x1="0.202857" y1="-0.152143" x2="0.152857" y2="0.197857" style="stroke:rgb(246,147,147);stroke-width:0.01" />
<line x1="-0.277143" y1="-0.292143" x2="-0.347143" y2="-0.0521429" style="stroke:rgb(246,147,147);stroke-width:0.01" />
<line x1="-0.277143" y1="-0.292143" x2="0.202857" y2="-0.152143" style="stroke:rgb(246,147,147);stroke-width:0.01" />
<line x1="-0.147143" y1="-0.202143" x2="0.202857" y2="-0.152143" style="stroke:rgb(246,147,147);stroke-width:0.01" />
<line x1="0.202857" y1="-0.152143" x2="-0.0471429" y2="0.347857" style="stroke:rgb(246,147,147);stroke-width:0.01" />
<line x1="0.0528571" y1="-0.352143" x2="-0.347143" y2="-0.0521429" style="stroke:rgb(246,147,147);stroke-width:0.01" />
<line x1="0.202857" y1="-0.152143" x2="-0.347143" y2="-0.0521429" style="stroke:rgb(246,147,147);stroke-width:0.01" />
<line x1="0.152857" y1="0.197857" x2="0.502857" y2="0.247857" style="stroke:rgb(246,147,147);stroke-width:0.01" />
<line x1="-0.0471429" y1="0.347857" x2="0.202857" y2="0.347857" style="stroke:rgb(246,147,147);stroke-width:0.01" />
<line x1="0.352857" y1="0.0478571" x2="-0.0471429" y2="0.347857" style="stroke:rgb(246,147,147);stroke-width:0.01" />
</g>
</svg>
