<svg xmlns="http://www.w3.org/2000/svg" viewBox="-1.5 -1.5 3 3">
<g transform="scale(1, -1)">
<path d="M0.003874 -0.707107 L0.003878 -0.679378 L0.683338 -0.000084 L0.004045 0.679377 L0.004048 0.707106 L-0.349548 0.353596 L-0.349636 -0.353510 z " fill="rgb(245,195,195)" />
<path d="M0.003874 -0.707107 L1.003874 -0.707107 L1.003874 0.292893 L0.003874 0.292893  z" fill="none" stroke="rgb(128,128,128)" stroke-width="0.01" />
<line x1="0.00387429" y1="-0.707107" x2="0.00404848" y2="0.707106" style="stroke:rgb(246,147,147);stroke-width:0.01" />
<line x1="0.00387429" y1="-0.707107" x2="-0.349636" y2="-0.35351" style="stroke:rgb(246,147,147);stroke-width:0.01" />
<line x1="-0.00998884" y1="-0.693241" x2="-0.00981807" y2="0.693243" style="stroke:rgb(246,147,147);stroke-width:0.01" />
<line x1="-0.349636" y1="-0.35351" x2="-0.349548" y2="0.353596" style="stroke:rgb(246,147,147);stroke-width:0.01" />
<line x1="-0.00998884" y1="-0.693241" x2="0.683338" y2="-8.41654e-05" style="stroke:rgb(246,147,147);stroke-width:0.01" />
<line x1="0.00396138" y1="-4.87915e-07" x2="-0.349548" y2="0.353596" style="stroke:rgb(246,147,147);stroke-width:0.01" />
<line x1="-0.349636" y1="-0.35351" x2="0.00396138" y2="-4.87915e-07" style="stroke:rgb(246,147,147);stroke-width:0.01" />
<line x1="0.683338" y1="-8.41654e-05" x2="-0.00981807" y2="0.693243" style="stroke:rgb(246,147,147);stroke-width:0.01" />
<line x1="-0.349548" y1="0.353596" x2="0.00404848" y2="0.707106" style="stroke:rgb(246,147,147);stroke-width:0.01" />
</g>
</svg>
