<svg xmlns="http://www.w3.org/2000/svg" viewBox="-1.5 -1.5 3 3">
<g transform="scale(1, -1)">
<path d="M-0.040977 -0.176243 L-0.005977 -0.171243 L0.176782 -0.079864 L0.194023 0.178757 L-0.202437 0.231854 L-0.342923 0.124553 L-0.095136 0.091367 L0.012165 -0.049119 L0.082408 0.004531 L0.094023 -0.010676 L0.094023 -0.067672 L0.034023 -0.076243 z " fill="rgb(245,195,195)" />
<path d="M0.094023 -0.321243 L1.094023 -0.321243 L1.094023 0.678757 L0.094023 0.678757  z" fill="none" stroke="rgb(128,128,128)" stroke-width="0.01" />
<line x1="0.176782" y1="-0.0798641" x2="0.194023" y2="0.178757" style="stroke:rgb(246,147,147);stroke-width:0.01" />
<line x1="0.0940234" y1="-0.121243" x2="0.0940234" y2="0.178757" style="stroke:rgb(246,147,147);stroke-width:0.01" />
<line x1="0.155135" y1="-0.0906878" x2="0.146523" y2="-0.0601719" style="stroke:rgb(246,147,147);stroke-width:0.01" />
<line x1="0.012165" y1="-0.0491195" x2="-0.202437" y2="0.231854" style="stroke:rgb(246,147,147);stroke-width:0.01" />
<line x1="0.155135" y1="-0.0906878" x2="-0.0785429" y2="0.215261" style="stroke:rgb(246,147,147);stroke-width:0.01" />
<line x1="-0.0409766" y1="-0.176243" x2="0.0340234" y2="-0.0762434" style="stroke:rgb(246,147,147);stroke-width:0.01" />
<line x1="-0.00597657" y1="-0.171243" x2="0.183309" y2="0.0180423" style="stroke:rgb(246,147,147);stroke-width:0.01" />
<line x1="0.0940234" y1="-0.121243" x2="0.0340234" y2="-0.0762434" style="stroke:rgb(246,147,147);stroke-width:0.01" />
<line x1="-0.00597657" y1="-0.171243" x2="0.176782" y2="-0.0798641" style="stroke:rgb(246,147,147);stroke-width:0.01" />
<line x1="-0.0409766" y1="-0.176243" x2="-0.00597657" y2="-0.171243" style="stroke:rgb(246,147,147);stroke-width:0.01" />
<line x1="0.183309" y1="0.0180423" x2="0.0453509" y2="0.198668" style="stroke:rgb(246,147,147);stroke-width:0.01" />
<line x1="0.0940234" y1="0.0537566" x2="0.192238" y2="0.151971" style="stroke:rgb(246,147,147);stroke-width:0.01" />
<line x1="0.176782" y1="-0.0798641" x2="0.146523" y2="-0.0601719" style="stroke:rgb(246,147,147);stroke-width:0.01" />
<line x1="0.012165" y1="-0.0491195" x2="0.187773" y2="0.0850066" style="stroke:rgb(246,147,147);stroke-width:0.01" />
<line x1="0.192238" y1="0.151971" x2="0.169245" y2="0.182075" style="stroke:rgb(246,147,147);stroke-width:0.01" />
<line x1="0.0340234" y1="-0.0762434" x2="0.146523" y2="-0.0601719" style="stroke:rgb(246,147,147);stroke-width:0.01" />
<line x1="0.187773" y1="0.0850066" x2="0.0940234" y2="0.178757" style="stroke:rgb(246,147,147);stroke-width:0.01" />
<line x1="-0.0414854" y1="0.0211239" x2="0.169245" y2="0.182075" style="stroke:rgb(246,147,147);stroke-width:0.01" />
<line x1="-0.0951359" y1="0.0913673" x2="0.0453509" y2="0.198668" style="stroke:rgb(246,147,147);stroke-width:0.01" />
<line x1="0.0940234" y1="0.0537566" x2="0.18569" y2="0.0537566" style="stroke:rgb(246,147,147);stroke-width:0.01" />
<line x1="0.18569" y1="0.0537566" x2="-0.342923" y2="0.124553" style="stroke:rgb(246,147,147);stroke-width:0.01" />
<line x1="-0.148786" y1="0.161611" x2="-0.0785429" y2="0.215261" style="stroke:rgb(246,147,147);stroke-width:0.01" />
<line x1="-0.342923" y1="0.124553" x2="-0.202437" y2="0.231854" style="stroke:rgb(246,147,147);stroke-width:0.01" />
<line x1="0.0940234" y1="0.178757" x2="0.194023" y2="0.178757" style="stroke:rgb(246,147,147);stroke-width:0.01" />
<line x1="0.194023" y1="0.178757" x2="-0.202437" y2="0.231854" style="stroke:rgb(246,147,147);stroke-width:0.01" />
</g>
</svg>
