<svg xmlns="http://www.w3.org/2000/svg" viewBox="-1.5 -1.5 3 3">
<g transform="scale(1, -1)">
<path d="M-0.378599 -0.220736 L0.697777 -0.125058 L0.697777 0.286053 L-0.302223 0.286053 L-0.302223 -0.091359 L-0.412508 -0.134954 z " fill="rgb(245,195,195)" />
<path d="M-0.302223 -0.713947 L0.697777 -0.713947 L0.697777 0.286053 L-0.302223 0.286053  z" fill="none" stroke="rgb(128,128,128)" stroke-width="0.01" />
<line x1="0.660195" y1="-0.128399" x2="0.67342" y2="-0.0628646" style="stroke:rgb(246,147,147);stroke-width:0.01" />
<line x1="0.684045" y1="-0.0966067" x2="0.686508" y2="-0.0621709" style="stroke:rgb(246,147,147);stroke-width:0.01" />
<line x1="-0.302223" y1="-0.213947" x2="-0.302223" y2="0.286053" style="stroke:rgb(246,147,147);stroke-width:0.01" />
<line x1="0.697777" y1="-0.125058" x2="0.697777" y2="0.286053" style="stroke:rgb(246,147,147);stroke-width:0.01" />
<line x1="-0.326996" y1="-0.21526" x2="-0.319862" y2="-0.115515" style="stroke:rgb(246,147,147);stroke-width:0.01" />
<line x1="-0.302223" y1="-0.213947" x2="-0.319862" y2="-0.115515" style="stroke:rgb(246,147,147);stroke-width:0.01" />
<line x1="-0.378599" y1="-0.220736" x2="-0.35777" y2="-0.117524" style="stroke:rgb(246,147,147);stroke-width:0.01" />
<line x1="-0.326996" y1="-0.21526" x2="-0.35777" y2="-0.117524" style="stroke:rgb(246,147,147);stroke-width:0.01" />
<line x1="-0.378599" y1="-0.220736" x2="-0.412508" y2="-0.134954" style="stroke:rgb(246,147,147);stroke-width:0.01" />
<line x1="0.697777" y1="-0.125058" x2="0.686508" y2="-0.0621709" style="stroke:rgb(246,147,147);stroke-width:0.01" />
<line x1="0.684045" y1="-0.0966067" x2="0.67342" y2="-0.0628646" style="stroke:rgb(246,147,147);stroke-width:0.01" />
<line x1="0.660195" y1="-0.128399" x2="0.51747" y2="0.232661" style="stroke:rgb(246,147,147);stroke-width:0.01" />
<line x1="-0.326996" y1="-0.21526" x2="0.684045" y2="-0.0966067" style="stroke:rgb(246,147,147);stroke-width:0.01" />
<line x1="-0.378599" y1="-0.220736" x2="0.697777" y2="-0.125058" style="stroke:rgb(246,147,147);stroke-width:0.01" />
<line x1="-0.412508" y1="-0.134954" x2="0.51747" y2="0.232661" style="stroke:rgb(246,147,147);stroke-width:0.01" />
<line x1="-0.35777" y1="-0.117524" x2="0.686508" y2="-0.0621709" style="stroke:rgb(246,147,147);stroke-width:0.01" />
<line x1="-0.302223" y1="0.286053" x2="0.697777" y2="0.286053" style="stroke:rgb(246,147,147);stroke-width:0.01" />
</g>
</svg>
