<svg xmlns="http://www.w3.org/2000/svg" viewBox="-1.5 -1.5 3 3">
<g transform="scale(1, -1)">
<path d="M-0.242785 -0.300502 L0.066672 -0.188850 L0.157234 -0.233974 L0.320312 0.062911 L0.140097 0.178131 L0.094193 0.168194 L-0.177524 0.294708 L-0.358199 0.019382 z " fill="rgb(245,195,195)" />
<path d="M0.396553 -0.258066 L1.396553 -0.258066 L1.396553 0.741934 L0.396553 0.741934  z" fill="none" stroke="rgb(128,128,128)" stroke-width="0.01" />
<line x1="-0.242785" y1="-0.300502" x2="-0.358199" y2="0.0193819" style="stroke:rgb(246,147,147);stroke-width:0.01" />
<line x1="-0.0225875" y1="-0.15956" x2="-0.331275" y2="0.0604103" style="stroke:rgb(246,147,147);stroke-width:0.01" />
<line x1="0.00852532" y1="-0.0449244" x2="-0.192674" y2="0.271621" style="stroke:rgb(246,147,147);stroke-width:0.01" />
<line x1="-0.0225875" y1="-0.15956" x2="-0.142572" y2="0.263697" style="stroke:rgb(246,147,147);stroke-width:0.01" />
<line x1="0.157234" y1="-0.233974" x2="-0.331275" y2="0.0604103" style="stroke:rgb(246,147,147);stroke-width:0.01" />
<line x1="0.157234" y1="-0.233974" x2="0.0141169" y2="-0.162663" style="stroke:rgb(246,147,147);stroke-width:0.01" />
<line x1="0.0141169" y1="-0.162663" x2="-0.0507111" y2="0.136828" style="stroke:rgb(246,147,147);stroke-width:0.01" />
<line x1="0.210531" y1="-0.136946" x2="0.140097" y2="0.178131" style="stroke:rgb(246,147,147);stroke-width:0.01" />
<line x1="0.111464" y1="-0.152005" x2="0.100173" y2="0.0483251" style="stroke:rgb(246,147,147);stroke-width:0.01" />
<line x1="0.258465" y1="-0.0496818" x2="0.238277" y2="0.101108" style="stroke:rgb(246,147,147);stroke-width:0.01" />
<line x1="0.100173" y1="0.0483251" x2="-0.177524" y2="0.294708" style="stroke:rgb(246,147,147);stroke-width:0.01" />
<line x1="0.157234" y1="-0.233974" x2="0.320312" y2="0.0629115" style="stroke:rgb(246,147,147);stroke-width:0.01" />
<line x1="-0.0225875" y1="-0.15956" x2="0.111464" y2="-0.152005" style="stroke:rgb(246,147,147);stroke-width:0.01" />
<line x1="-0.242785" y1="-0.300502" x2="0.210531" y2="-0.136946" style="stroke:rgb(246,147,147);stroke-width:0.01" />
<line x1="0.320312" y1="0.0629115" x2="0.140097" y2="0.178131" style="stroke:rgb(246,147,147);stroke-width:0.01" />
<line x1="0.0141169" y1="-0.162663" x2="0.258465" y2="-0.0496818" style="stroke:rgb(246,147,147);stroke-width:0.01" />
<line x1="0.320312" y1="0.0629115" x2="-0.177524" y2="0.294708" style="stroke:rgb(246,147,147);stroke-width:0.01" />
<line x1="-0.358199" y1="0.0193819" x2="0.100173" y2="0.0483251" style="stroke:rgb(246,147,147);stroke-width:0.01" />
<line x1="0.00852532" y1="-0.0449244" x2="0.238277" y2="0.101108" style="stroke:rgb(246,147,147);stroke-width:0.01" />
<line x1="-0.142572" y1="0.263697" x2="-0.192674" y2="0.271621" style="stroke:rgb(246,147,147);stroke-width:0.01" />
<line x1="-0.358199" y1="0.0193819" x2="-0.177524" y2="0.294708" style="stroke:rgb(246,147,147);stroke-width:0.01" />
<line x1="-0.0507111" y1="0.136828" x2="0.140097" y2="0.178131" style="stroke:rgb(246,147,147);stroke-width:0.01" />
</g>
</svg>
