<svg xmlns="http://www.w3.org/2000/svg" viewBox="-1.5 -1.5 3 3">
<g transform="scale(1, -1)">
<path d="M0.093553 -0.401730 L0.013365 -0.057390 L0.277516 0.367138 L-0.066824 0.286950 L-0.198899 0.074686 L-0.118711 -0.269654 z " fill="rgb(245,195,195)" />
<path d="M0.244497 -1.873428 L1.244497 -1.873428 L1.244497 -0.873428 L0.244497 -0.873428  z" fill="none" stroke="rgb(128,128,128)" stroke-width="0.01" />
<line x1="-0.103616" y1="0.133176" x2="-0.110849" y2="0.216195" style="stroke:rgb(246,147,147);stroke-width:0.01" />
<line x1="-0.118711" y1="-0.269654" x2="-0.198899" y2="0.0746855" style="stroke:rgb(246,147,147);stroke-width:0.01" />
<line x1="0.0935535" y1="-0.40173" x2="0.0133648" y2="-0.0573899" style="stroke:rgb(246,147,147);stroke-width:0.01" />
<line x1="-0.052673" y1="-0.163522" x2="-0.165881" y2="0.127752" style="stroke:rgb(246,147,147);stroke-width:0.01" />
<line x1="0.0935535" y1="-0.40173" x2="-0.0196541" y2="-0.110456" style="stroke:rgb(246,147,147);stroke-width:0.01" />
<line x1="0.0935535" y1="-0.40173" x2="-0.198899" y2="0.0746855" style="stroke:rgb(246,147,147);stroke-width:0.01" />
<line x1="-0.118711" y1="-0.269654" x2="0.277516" y2="0.367138" style="stroke:rgb(246,147,147);stroke-width:0.01" />
<line x1="-0.198899" y1="0.0746855" x2="-0.0668239" y2="0.28695" style="stroke:rgb(246,147,147);stroke-width:0.01" />
<line x1="0.0935535" y1="-0.40173" x2="-0.118711" y2="-0.269654" style="stroke:rgb(246,147,147);stroke-width:0.01" />
<line x1="0.0133648" y1="-0.0573899" x2="-0.198899" y2="0.0746855" style="stroke:rgb(246,147,147);stroke-width:0.01" />
<line x1="0.14544" y1="0.154874" x2="-0.0668239" y2="0.28695" style="stroke:rgb(246,147,147);stroke-width:0.01" />
<line x1="-0.141622" y1="-0.171271" x2="0.0248203" y2="-0.106581" style="stroke:rgb(246,147,147);stroke-width:0.01" />
<line x1="-0.198899" y1="0.0746855" x2="0.277516" y2="0.367138" style="stroke:rgb(246,147,147);stroke-width:0.01" />
<line x1="-0.141622" y1="-0.171271" x2="-0.052673" y2="-0.163522" style="stroke:rgb(246,147,147);stroke-width:0.01" />
<line x1="-0.0196541" y1="-0.110456" x2="0.0248203" y2="-0.106581" style="stroke:rgb(246,147,147);stroke-width:0.01" />
<line x1="-0.110849" y1="0.216195" x2="0.277516" y2="0.367138" style="stroke:rgb(246,147,147);stroke-width:0.01" />
<line x1="-0.165881" y1="0.127752" x2="-0.103616" y2="0.133176" style="stroke:rgb(246,147,147);stroke-width:0.01" />
<line x1="-0.0668239" y1="0.28695" x2="0.277516" y2="0.367138" style="stroke:rgb(246,147,147);stroke-width:0.01" />
</g>
</svg>
