<svg xmlns="http://www.w3.org/2000/svg" viewBox="-1.5 -1.5 3 3">
<g transform="scale(1, -1)">
<path d="M-0.225178 -0.205002 L0.148407 -0.172455 L0.375765 0.098300 L-0.026965 0.063214 L0.016357 0.175505 L-0.288386 0.040438 z " fill="rgb(245,195,195)" />
<path d="M1.088029 -3.783776 L2.088029 -3.783776 L2.088029 -2.783776 L1.088029 -2.783776  z" fill="none" stroke="rgb(128,128,128)" stroke-width="0.01" />
<line x1="-0.225178" y1="-0.205002" x2="-0.288386" y2="0.0404382" style="stroke:rgb(246,147,147);stroke-width:0.01" />
<line x1="0.148407" y1="-0.172455" x2="0.126709" y2="0.0766017" style="stroke:rgb(246,147,147);stroke-width:0.01" />
<line x1="-0.1109" y1="-0.154352" x2="-0.2122" y2="0.074205" style="stroke:rgb(246,147,147);stroke-width:0.01" />
<line x1="-0.1109" y1="-0.154352" x2="0.0163567" y2="0.175505" style="stroke:rgb(246,147,147);stroke-width:0.01" />
<line x1="-0.263103" y1="-0.0577379" x2="-0.2122" y2="0.074205" style="stroke:rgb(246,147,147);stroke-width:0.01" />
<line x1="-0.10065" y1="-0.194153" x2="-0.263103" y2="-0.0577379" style="stroke:rgb(246,147,147);stroke-width:0.01" />
<line x1="0.262086" y1="-0.0370775" x2="0.126709" y2="0.0766017" style="stroke:rgb(246,147,147);stroke-width:0.01" />
<line x1="0.148407" y1="-0.172455" x2="0.375765" y2="0.0982998" style="stroke:rgb(246,147,147);stroke-width:0.01" />
<line x1="-0.10065" y1="-0.194153" x2="0.126709" y2="0.0766017" style="stroke:rgb(246,147,147);stroke-width:0.01" />
<line x1="-0.225178" y1="-0.205002" x2="-0.1109" y2="-0.154352" style="stroke:rgb(246,147,147);stroke-width:0.01" />
<line x1="-0.225178" y1="-0.205002" x2="0.148407" y2="-0.172455" style="stroke:rgb(246,147,147);stroke-width:0.01" />
<line x1="-0.288386" y1="0.0404382" x2="0.0163567" y2="0.175505" style="stroke:rgb(246,147,147);stroke-width:0.01" />
<line x1="-0.288386" y1="0.0404382" x2="0.375765" y2="0.0982998" style="stroke:rgb(246,147,147);stroke-width:0.01" />
</g>
</svg>
