<svg xmlns="http://www.w3.org/2000/svg" viewBox="-1.5 -1.5 3 3">
<g transform="scale(1, -1)">
<path d="M-0.026101 -0.252073 L0.267940 -0.214819 L0.265085 -0.105916 L0.243052 -0.106494 L0.180373 0.166311 L0.049042 0.136136 L-0.126453 0.267757 L-0.336684 0.103142 L-0.264706 0.000187 L-0.251547 0.005770 z " fill="rgb(245,195,195)" />
<path d="M1.199701 -2.476858 L2.199701 -2.476858 L2.199701 -1.476858 L1.199701 -1.476858  z" fill="none" stroke="rgb(128,128,128)" stroke-width="0.01" />
<line x1="-0.12953" y1="-0.133781" x2="-0.175299" y2="0.0231416" style="stroke:rgb(246,147,147);stroke-width:0.01" />
<line x1="0.012219" y1="-0.247218" x2="-0.00113207" y2="-0.202479" style="stroke:rgb(246,147,147);stroke-width:0.01" />
<line x1="0.26794" y1="-0.214819" x2="0.180373" y2="0.166311" style="stroke:rgb(246,147,147);stroke-width:0.01" />
<line x1="-0.0513334" y1="0.0907278" x2="-0.126453" y2="0.267757" style="stroke:rgb(246,147,147);stroke-width:0.01" />
<line x1="-0.0504301" y1="-0.168884" x2="-0.063279" y2="0.110329" style="stroke:rgb(246,147,147);stroke-width:0.01" />
<line x1="0.26794" y1="-0.214819" x2="0.265085" y2="-0.105916" style="stroke:rgb(246,147,147);stroke-width:0.01" />
<line x1="0.012219" y1="-0.247218" x2="0.019701" y2="-0.0501917" style="stroke:rgb(246,147,147);stroke-width:0.01" />
<line x1="0.00447894" y1="-0.0109099" x2="-0.14371" y2="0.254244" style="stroke:rgb(246,147,147);stroke-width:0.01" />
<line x1="-0.264706" y1="0.000186625" x2="-0.336684" y2="0.103142" style="stroke:rgb(246,147,147);stroke-width:0.01" />
<line x1="-0.210252" y1="-0.0414593" x2="-0.198641" y2="0.0792288" style="stroke:rgb(246,147,147);stroke-width:0.01" />
<line x1="0.019701" y1="-0.0501917" x2="-0.174417" y2="0.2302" style="stroke:rgb(246,147,147);stroke-width:0.01" />
<line x1="0.129244" y1="-0.232391" x2="0.0445729" y2="-0.111698" style="stroke:rgb(246,147,147);stroke-width:0.01" />
<line x1="-0.332151" y1="0.0979565" x2="-0.330299" y2="0.108142" style="stroke:rgb(246,147,147);stroke-width:0.01" />
<line x1="-0.0261009" y1="-0.252073" x2="-0.336684" y2="0.103142" style="stroke:rgb(246,147,147);stroke-width:0.01" />
<line x1="0.210769" y1="-0.222062" x2="-0.063279" y2="0.110329" style="stroke:rgb(246,147,147);stroke-width:0.01" />
<line x1="-0.0513334" y1="0.0907278" x2="-0.174417" y2="0.2302" style="stroke:rgb(246,147,147);stroke-width:0.01" />
<line x1="0.129244" y1="-0.232391" x2="0.175701" y2="-0.108858" style="stroke:rgb(246,147,147);stroke-width:0.01" />
<line x1="0.210769" y1="-0.222062" x2="0.265085" y2="-0.105916" style="stroke:rgb(246,147,147);stroke-width:0.01" />
<line x1="-0.0815241" y1="0.1961" x2="-0.14371" y2="0.254244" style="stroke:rgb(246,147,147);stroke-width:0.01" />
<line x1="-0.0261009" y1="-0.252073" x2="0.0445729" y2="-0.111698" style="stroke:rgb(246,147,147);stroke-width:0.01" />
<line x1="0.119701" y1="0.0831416" x2="-0.126453" y2="0.267757" style="stroke:rgb(246,147,147);stroke-width:0.01" />
<line x1="-0.082948" y1="-0.187057" x2="0.119701" y2="0.0831416" style="stroke:rgb(246,147,147);stroke-width:0.01" />
<line x1="-0.0504301" y1="-0.168884" x2="-0.12953" y2="-0.133781" style="stroke:rgb(246,147,147);stroke-width:0.01" />
<line x1="0.00447894" y1="-0.0109099" x2="-0.198641" y2="0.0792288" style="stroke:rgb(246,147,147);stroke-width:0.01" />
<line x1="-0.118787" y1="-0.146068" x2="0.00447894" y2="-0.0109099" style="stroke:rgb(246,147,147);stroke-width:0.01" />
<line x1="0.175701" y1="-0.108858" x2="-0.175299" y2="0.0231416" style="stroke:rgb(246,147,147);stroke-width:0.01" />
<line x1="-0.264706" y1="0.000186625" x2="-0.0815241" y2="0.1961" style="stroke:rgb(246,147,147);stroke-width:0.01" />
<line x1="-0.225806" y1="-0.02367" x2="-0.175299" y2="0.0231416" style="stroke:rgb(246,147,147);stroke-width:0.01" />
<line x1="-0.225806" y1="-0.02367" x2="-0.063279" y2="0.110329" style="stroke:rgb(246,147,147);stroke-width:0.01" />
<line x1="-0.118787" y1="-0.146068" x2="0.019701" y2="-0.0501917" style="stroke:rgb(246,147,147);stroke-width:0.01" />
<line x1="-0.082948" y1="-0.187057" x2="-0.0504301" y2="-0.168884" style="stroke:rgb(246,147,147);stroke-width:0.01" />
<line x1="-0.0261009" y1="-0.252073" x2="0.26794" y2="-0.214819" style="stroke:rgb(246,147,147);stroke-width:0.01" />
<line x1="-0.336684" y1="0.103142" x2="-0.126453" y2="0.267757" style="stroke:rgb(246,147,147);stroke-width:0.01" />
<line x1="0.019701" y1="-0.0501917" x2="-0.210252" y2="-0.0414593" style="stroke:rgb(246,147,147);stroke-width:0.01" />
<line x1="0.0445729" y1="-0.111698" x2="0.265085" y2="-0.105916" style="stroke:rgb(246,147,147);stroke-width:0.01" />
<line x1="-0.00113207" y1="-0.202479" x2="0.265085" y2="-0.105916" style="stroke:rgb(246,147,147);stroke-width:0.01" />
<line x1="-0.0513334" y1="0.0907278" x2="-0.330299" y2="0.108142" style="stroke:rgb(246,147,147);stroke-width:0.01" />
<line x1="-0.264706" y1="0.000186625" x2="-0.0513334" y2="0.0907278" style="stroke:rgb(246,147,147);stroke-width:0.01" />
<line x1="-0.332151" y1="0.0979565" x2="-0.063279" y2="0.110329" style="stroke:rgb(246,147,147);stroke-width:0.01" />
<line x1="-0.198641" y1="0.0792288" x2="0.180373" y2="0.166311" style="stroke:rgb(246,147,147);stroke-width:0.01" />
</g>
</svg>
