<svg xmlns="http://www.w3.org/2000/svg" viewBox="-1.5 -1.5 3 3">
<g transform="scale(1, -1)">
<path d="M0.037157 -0.319500 L0.365530 0.018675 L0.277185 0.181565 L0.153600 0.125676 L-0.012208 0.209390 L-0.087904 0.059461 L-0.075556 0.022043 L-0.321244 -0.089066 L-0.336560 -0.208243 z " fill="rgb(245,195,195)" />
<path d="M-0.210271 -1.493904 L0.789729 -1.493904 L0.789729 -0.493904 L-0.210271 -0.493904  z" fill="none" stroke="rgb(128,128,128)" stroke-width="0.01" />
<line x1="-0.140514" y1="-0.211007" x2="-0.146427" y2="-0.0100074" style="stroke:rgb(246,147,147);stroke-width:0.01" />
<line x1="-0.33656" y1="-0.208243" x2="-0.321244" y2="-0.0890658" style="stroke:rgb(246,147,147);stroke-width:0.01" />
<line x1="0.124531" y1="-0.0454669" x2="0.159658" y2="0.0594592" style="stroke:rgb(246,147,147);stroke-width:0.01" />
<line x1="0.116744" y1="-0.237537" x2="0.0609019" y2="0.083754" style="stroke:rgb(246,147,147);stroke-width:0.01" />
<line x1="0.0371569" y1="-0.3195" x2="-0.0879045" y2="0.0594612" style="stroke:rgb(246,147,147);stroke-width:0.01" />
<line x1="0.167699" y1="-0.185062" x2="0.124531" y2="-0.0454669" style="stroke:rgb(246,147,147);stroke-width:0.01" />
<line x1="-0.0879045" y1="0.0594612" x2="-0.0122076" y2="0.20939" style="stroke:rgb(246,147,147);stroke-width:0.01" />
<line x1="-0.33656" y1="-0.208243" x2="-0.266982" y2="-0.0645269" style="stroke:rgb(246,147,147);stroke-width:0.01" />
<line x1="0.19816" y1="-0.0857354" x2="0.124782" y2="0.112643" style="stroke:rgb(246,147,147);stroke-width:0.01" />
<line x1="0.34491" y1="-0.00255993" x2="0.277185" y2="0.181565" style="stroke:rgb(246,147,147);stroke-width:0.01" />
<line x1="0.0371569" y1="-0.3195" x2="0.36553" y2="0.0186751" style="stroke:rgb(246,147,147);stroke-width:0.01" />
<line x1="0.243429" y1="-0.10707" x2="0.124782" y2="0.112643" style="stroke:rgb(246,147,147);stroke-width:0.01" />
<line x1="0.00480122" y1="-0.221456" x2="0.043948" y2="-0.182714" style="stroke:rgb(246,147,147);stroke-width:0.01" />
<line x1="0.36553" y1="0.0186751" x2="0.277185" y2="0.181565" style="stroke:rgb(246,147,147);stroke-width:0.01" />
<line x1="0.227538" y1="-0.123436" x2="0.0609019" y2="0.083754" style="stroke:rgb(246,147,147);stroke-width:0.01" />
<line x1="0.107562" y1="-0.246994" x2="0.043948" y2="-0.182714" style="stroke:rgb(246,147,147);stroke-width:0.01" />
<line x1="0.107562" y1="-0.246994" x2="-0.146427" y2="-0.0100074" style="stroke:rgb(246,147,147);stroke-width:0.01" />
<line x1="-0.140514" y1="-0.211007" x2="-0.321244" y2="-0.0890658" style="stroke:rgb(246,147,147);stroke-width:0.01" />
<line x1="0.227538" y1="-0.123436" x2="0.124531" y2="-0.0454669" style="stroke:rgb(246,147,147);stroke-width:0.01" />
<line x1="-0.140514" y1="-0.211007" x2="0.19816" y2="-0.0857354" style="stroke:rgb(246,147,147);stroke-width:0.01" />
<line x1="0.0371569" y1="-0.3195" x2="-0.33656" y2="-0.208243" style="stroke:rgb(246,147,147);stroke-width:0.01" />
<line x1="-0.321244" y1="-0.0890658" x2="0.277185" y2="0.181565" style="stroke:rgb(246,147,147);stroke-width:0.01" />
<line x1="0.116744" y1="-0.237537" x2="0.00480122" y2="-0.221456" style="stroke:rgb(246,147,147);stroke-width:0.01" />
<line x1="0.243429" y1="-0.10707" x2="-0.0879045" y2="0.0594612" style="stroke:rgb(246,147,147);stroke-width:0.01" />
<line x1="0.167699" y1="-0.185062" x2="-0.266982" y2="-0.0645269" style="stroke:rgb(246,147,147);stroke-width:0.01" />
<line x1="0.36553" y1="0.0186751" x2="-0.0122076" y2="0.20939" style="stroke:rgb(246,147,147);stroke-width:0.01" />
<line x1="0.34491" y1="-0.00255993" x2="0.159658" y2="0.0594592" style="stroke:rgb(246,147,147);stroke-width:0.01" />
</g>
</svg>
