<svg xmlns="http://www.w3.org/2000/svg" viewBox="-1.5 -1.5 3 3">
<g transform="scale(1, -1)">
<path d="M-0.008925 -0.365923 L0.280730 -0.090061 L0.284178 0.051318 L0.215213 0.123732 L0.073834 0.127181 L0.001420 0.058215 L-0.067546 0.130629 L-0.208925 0.134077 L-0.281339 0.065112 L-0.284787 -0.076268 z M0.139351 -0.086613 L-0.143408 -0.079716 L-0.212373 -0.007302 L-0.070994 -0.010751 L0.001420 0.058215 L0.070385 -0.014199 L0.211765 -0.017647 z " fill="rgb(245,195,195)" />
<path d="M-0.498580 -0.576268 L0.501420 -0.576268 L0.501420 0.423732 L-0.498580 0.423732  z" fill="none" stroke="rgb(128,128,128)" stroke-width="0.01" />
<line x1="-0.00892495" y1="-0.365923" x2="0.28073" y2="-0.0900609" style="stroke:rgb(246,147,147);stroke-width:0.01" />
<line x1="-0.0778905" y1="-0.293509" x2="0.284178" y2="0.0513185" style="stroke:rgb(246,147,147);stroke-width:0.01" />
<line x1="0.28073" y1="-0.0900609" x2="0.284178" y2="0.0513185" style="stroke:rgb(246,147,147);stroke-width:0.01" />
<line x1="0.208316" y1="-0.159026" x2="0.215213" y2="0.123732" style="stroke:rgb(246,147,147);stroke-width:0.01" />
<line x1="-0.215822" y1="-0.148682" x2="-0.208925" y2="0.134077" style="stroke:rgb(246,147,147);stroke-width:0.01" />
<line x1="-0.284787" y1="-0.0762677" x2="-0.281339" y2="0.0651116" style="stroke:rgb(246,147,147);stroke-width:0.01" />
<line x1="0.0703854" y1="-0.0141988" x2="0.215213" y2="0.123732" style="stroke:rgb(246,147,147);stroke-width:0.01" />
<line x1="-0.0709939" y1="-0.0107505" x2="0.0738337" y2="0.127181" style="stroke:rgb(246,147,147);stroke-width:0.01" />
<line x1="-0.284787" y1="-0.0762677" x2="-0.0675456" y2="0.130629" style="stroke:rgb(246,147,147);stroke-width:0.01" />
<line x1="-0.281339" y1="0.0651116" x2="-0.208925" y2="0.134077" style="stroke:rgb(246,147,147);stroke-width:0.01" />
<line x1="-0.00892495" y1="-0.365923" x2="-0.284787" y2="-0.0762677" style="stroke:rgb(246,147,147);stroke-width:0.01" />
<line x1="0.0634888" y1="-0.296957" x2="-0.281339" y2="0.0651116" style="stroke:rgb(246,147,147);stroke-width:0.01" />
<line x1="0.208316" y1="-0.159026" x2="-0.215822" y2="-0.148682" style="stroke:rgb(246,147,147);stroke-width:0.01" />
<line x1="-0.0709939" y1="-0.0107505" x2="-0.208925" y2="0.134077" style="stroke:rgb(246,147,147);stroke-width:0.01" />
<line x1="0.28073" y1="-0.0900609" x2="-0.284787" y2="-0.0762677" style="stroke:rgb(246,147,147);stroke-width:0.01" />
<line x1="0.0703854" y1="-0.0141988" x2="-0.0675456" y2="0.130629" style="stroke:rgb(246,147,147);stroke-width:0.01" />
<line x1="0.282454" y1="-0.0193712" x2="0.0703854" y2="-0.0141988" style="stroke:rgb(246,147,147);stroke-width:0.01" />
<line x1="-0.0709939" y1="-0.0107505" x2="-0.283063" y2="-0.00557809" style="stroke:rgb(246,147,147);stroke-width:0.01" />
<line x1="0.28073" y1="-0.0900609" x2="0.0738337" y2="0.127181" style="stroke:rgb(246,147,147);stroke-width:0.01" />
<line x1="0.284178" y1="0.0513185" x2="0.215213" y2="0.123732" style="stroke:rgb(246,147,147);stroke-width:0.01" />
<line x1="0.215213" y1="0.123732" x2="0.0738337" y2="0.127181" style="stroke:rgb(246,147,147);stroke-width:0.01" />
<line x1="-0.0675456" y1="0.130629" x2="-0.208925" y2="0.134077" style="stroke:rgb(246,147,147);stroke-width:0.01" />
</g>
</svg>
