<svg xmlns="http://www.w3.org/2000/svg" viewBox="-1.5 -1.5 3 3">
<g transform="scale(1, -1)">
<path d="M0.001882 -0.272721 L0.126017 -0.146861 L0.251014 -0.145998 L0.249288 0.103996 L0.124291 0.103133 L0.123428 0.228130 L-0.126566 0.226405 L-0.125703 0.101408 L-0.250700 0.100545 L-0.248974 -0.149449 L-0.123977 -0.148586 z " fill="rgb(245,195,195)" />
<path d="M0.000058 -0.008441 L1.000058 -0.008441 L1.000058 0.991559 L0.000058 0.991559  z" fill="none" stroke="rgb(128,128,128)" stroke-width="0.01" />
<line x1="-0.248974" y1="-0.149449" x2="-0.123977" y2="-0.148586" style="stroke:rgb(246,147,147);stroke-width:0.01" />
<line x1="0.126017" y1="-0.146861" x2="0.251014" y2="-0.145998" style="stroke:rgb(246,147,147);stroke-width:0.01" />
<line x1="0.00188235" y1="-0.272721" x2="-0.249837" y2="-0.0244522" style="stroke:rgb(246,147,147);stroke-width:0.01" />
<line x1="0.00188235" y1="-0.272721" x2="0.250151" y2="-0.0210012" style="stroke:rgb(246,147,147);stroke-width:0.01" />
<line x1="-0.249837" y1="-0.0244522" x2="0.250151" y2="-0.0210012" style="stroke:rgb(246,147,147);stroke-width:0.01" />
<line x1="0.126017" y1="-0.146861" x2="-0.125703" y2="0.101408" style="stroke:rgb(246,147,147);stroke-width:0.01" />
<line x1="-0.123977" y1="-0.148586" x2="0.124291" y2="0.103133" style="stroke:rgb(246,147,147);stroke-width:0.01" />
<line x1="-0.248974" y1="-0.149449" x2="-0.2507" y2="0.100545" style="stroke:rgb(246,147,147);stroke-width:0.01" />
<line x1="-0.123977" y1="-0.148586" x2="-0.126566" y2="0.226405" style="stroke:rgb(246,147,147);stroke-width:0.01" />
<line x1="0.00188235" y1="-0.272721" x2="-0.00156862" y2="0.227267" style="stroke:rgb(246,147,147);stroke-width:0.01" />
<line x1="0.126017" y1="-0.146861" x2="0.123428" y2="0.22813" style="stroke:rgb(246,147,147);stroke-width:0.01" />
<line x1="0.251014" y1="-0.145998" x2="0.249288" y2="0.103996" style="stroke:rgb(246,147,147);stroke-width:0.01" />
<line x1="-0.2507" y1="0.100545" x2="0.249288" y2="0.103996" style="stroke:rgb(246,147,147);stroke-width:0.01" />
<line x1="-0.249837" y1="-0.0244522" x2="-0.00156862" y2="0.227267" style="stroke:rgb(246,147,147);stroke-width:0.01" />
<line x1="0.250151" y1="-0.0210012" x2="-0.00156862" y2="0.227267" style="stroke:rgb(246,147,147);stroke-width:0.01" />
<line x1="-0.126566" y1="0.226405" x2="0.123428" y2="0.22813" style="stroke:rgb(246,147,147);stroke-width:0.01" />
</g>
</svg>
