<svg xmlns="http://www.w3.org/2000/svg" viewBox="-1.5 -1.5 3 3">
<g transform="scale(1, -1)">
<path d="M0.073958 -0.491502 L0.216898 -0.464700 L0.341126 0.385851 L-0.239963 0.551645 L-0.392019 0.018707 z " fill="rgb(245,195,195)" />
<path d="M-0.554567 -0.109350 L0.445433 -0.109350 L0.445433 0.890650 L-0.554567 0.890650  z" fill="none" stroke="rgb(128,128,128)" stroke-width="0.01" />
<line x1="0.0739575" y1="-0.491502" x2="0.165237" y2="-0.408135" style="stroke:rgb(246,147,147);stroke-width:0.01" />
<line x1="0.0739575" y1="-0.491502" x2="0.216898" y2="-0.4647" style="stroke:rgb(246,147,147);stroke-width:0.01" />
<line x1="0.306155" y1="0.305573" x2="0.341126" y2="0.385851" style="stroke:rgb(246,147,147);stroke-width:0.01" />
<line x1="-0.174737" y1="-0.2192" x2="-0.0612342" y2="-0.208284" style="stroke:rgb(246,147,147);stroke-width:0.01" />
<line x1="0.136513" y1="0.430624" x2="0.1448" y2="0.441866" style="stroke:rgb(246,147,147);stroke-width:0.01" />
<line x1="0.216898" y1="-0.4647" x2="0.341126" y2="0.385851" style="stroke:rgb(246,147,147);stroke-width:0.01" />
<line x1="-0.0977044" y1="0.345815" x2="-0.0400883" y2="0.494617" style="stroke:rgb(246,147,147);stroke-width:0.01" />
<line x1="-0.174737" y1="-0.2192" x2="-0.0400883" y2="0.494617" style="stroke:rgb(246,147,147);stroke-width:0.01" />
<line x1="-0.392019" y1="0.0187067" x2="-0.239963" y2="0.551645" style="stroke:rgb(246,147,147);stroke-width:0.01" />
<line x1="-0.0612342" y1="-0.208284" x2="-0.0885979" y2="0.0762338" style="stroke:rgb(246,147,147);stroke-width:0.01" />
<line x1="0.216898" y1="-0.4647" x2="0.1448" y2="0.441866" style="stroke:rgb(246,147,147);stroke-width:0.01" />
<line x1="-0.392019" y1="0.0187067" x2="-0.0885979" y2="0.0762338" style="stroke:rgb(246,147,147);stroke-width:0.01" />
<line x1="0.0739575" y1="-0.491502" x2="-0.0885979" y2="0.0762338" style="stroke:rgb(246,147,147);stroke-width:0.01" />
<line x1="0.0739575" y1="-0.491502" x2="-0.392019" y2="0.0187067" style="stroke:rgb(246,147,147);stroke-width:0.01" />
<line x1="0.216898" y1="-0.4647" x2="0.165237" y2="-0.408135" style="stroke:rgb(246,147,147);stroke-width:0.01" />
<line x1="-0.0977044" y1="0.345815" x2="-0.278695" y2="0.415894" style="stroke:rgb(246,147,147);stroke-width:0.01" />
<line x1="0.306155" y1="0.305573" x2="-0.278695" y2="0.415894" style="stroke:rgb(246,147,147);stroke-width:0.01" />
<line x1="0.306155" y1="0.305573" x2="0.136513" y2="0.430624" style="stroke:rgb(246,147,147);stroke-width:0.01" />
<line x1="0.341126" y1="0.385851" x2="-0.239963" y2="0.551645" style="stroke:rgb(246,147,147);stroke-width:0.01" />
</g>
</svg>
