<svg xmlns="http://www.w3.org/2000/svg" viewBox="-1.5 -1.5 3 3">
<g transform="scale(1, -1)">
<path d="M0.281811 -0.219895 L0.178120 0.181346 L0.185160 0.308069 L0.126365 0.381613 L-0.235187 0.200836 L-0.261881 -0.038665 L-0.171632 -0.048723 L-0.308958 -0.186049 L-0.208958 -0.186049 L-0.108958 -0.086049 L0.163264 -0.086049 L0.165197 -0.051258 L0.195657 -0.169126 z " fill="rgb(245,195,195)" />
<path d="M1.691042 0.413951 L2.691042 0.413951 L2.691042 1.413951 L1.691042 1.413951  z" fill="none" stroke="rgb(128,128,128)" stroke-width="0.01" />
<line x1="0.281811" y1="-0.219895" x2="0.195657" y2="-0.169126" style="stroke:rgb(246,147,147);stroke-width:0.01" />
<line x1="0.246427" y1="-0.0829722" x2="-0.235187" y2="0.200836" style="stroke:rgb(246,147,147);stroke-width:0.01" />
<line x1="0.211042" y1="0.0539509" x2="0.124888" y2="0.10472" style="stroke:rgb(246,147,147);stroke-width:0.01" />
<line x1="0.175657" y1="0.190874" x2="0.0895036" y2="0.241643" style="stroke:rgb(246,147,147);stroke-width:0.01" />
<line x1="0.179277" y1="0.202186" x2="0.0616888" y2="0.349274" style="stroke:rgb(246,147,147);stroke-width:0.01" />
<line x1="0.18516" y1="0.308069" x2="0.126365" y2="0.381613" style="stroke:rgb(246,147,147);stroke-width:0.01" />
<line x1="0.140273" y1="0.327797" x2="0.0844846" y2="0.360672" style="stroke:rgb(246,147,147);stroke-width:0.01" />
<line x1="0.163264" y1="-0.0860491" x2="-0.261881" y2="-0.0386645" style="stroke:rgb(246,147,147);stroke-width:0.01" />
<line x1="-0.308958" y1="-0.186049" x2="-0.208958" y2="-0.186049" style="stroke:rgb(246,147,147);stroke-width:0.01" />
<line x1="-0.208958" y1="-0.0860491" x2="0.163264" y2="-0.0860491" style="stroke:rgb(246,147,147);stroke-width:0.01" />
<line x1="-0.108958" y1="0.0139509" x2="-0.00895798" y2="0.0139509" style="stroke:rgb(246,147,147);stroke-width:0.01" />
<line x1="0.195657" y1="-0.169126" x2="0.0616888" y2="0.349274" style="stroke:rgb(246,147,147);stroke-width:0.01" />
<line x1="0.281811" y1="-0.219895" x2="0.126365" y2="0.381613" style="stroke:rgb(246,147,147);stroke-width:0.01" />
<line x1="0.179931" y1="0.213951" x2="0.0695036" y2="0.226259" style="stroke:rgb(246,147,147);stroke-width:0.01" />
<line x1="-0.00895798" y1="0.113951" x2="0.091042" y2="0.113951" style="stroke:rgb(246,147,147);stroke-width:0.01" />
<line x1="0.091042" y1="0.213951" x2="0.179931" y2="0.213951" style="stroke:rgb(246,147,147);stroke-width:0.01" />
<line x1="-0.208958" y1="-0.186049" x2="-0.208958" y2="-0.0860491" style="stroke:rgb(246,147,147);stroke-width:0.01" />
<line x1="-0.108958" y1="-0.0860491" x2="-0.108958" y2="0.0139509" style="stroke:rgb(246,147,147);stroke-width:0.01" />
<line x1="-0.00895798" y1="0.0139509" x2="-0.00895798" y2="0.113951" style="stroke:rgb(246,147,147);stroke-width:0.01" />
<line x1="0.091042" y1="0.113951" x2="0.091042" y2="0.213951" style="stroke:rgb(246,147,147);stroke-width:0.01" />
<line x1="0.163264" y1="-0.0860491" x2="0.18516" y2="0.308069" style="stroke:rgb(246,147,147);stroke-width:0.01" />
<line x1="0.0695036" y1="0.226259" x2="0.0844846" y2="0.360672" style="stroke:rgb(246,147,147);stroke-width:0.01" />
<line x1="-0.261881" y1="-0.0386645" x2="-0.235187" y2="0.200836" style="stroke:rgb(246,147,147);stroke-width:0.01" />
<line x1="0.195657" y1="-0.169126" x2="0.246427" y2="-0.0829722" style="stroke:rgb(246,147,147);stroke-width:0.01" />
<line x1="0.160273" y1="-0.032203" x2="0.211042" y2="0.0539509" style="stroke:rgb(246,147,147);stroke-width:0.01" />
<line x1="-0.235187" y1="0.200836" x2="0.126365" y2="0.381613" style="stroke:rgb(246,147,147);stroke-width:0.01" />
<line x1="0.124888" y1="0.10472" x2="0.175657" y2="0.190874" style="stroke:rgb(246,147,147);stroke-width:0.01" />
<line x1="-0.208958" y1="-0.186049" x2="0.179277" y2="0.202186" style="stroke:rgb(246,147,147);stroke-width:0.01" />
<line x1="0.0895036" y1="0.241643" x2="0.140273" y2="0.327797" style="stroke:rgb(246,147,147);stroke-width:0.01" />
<line x1="-0.308958" y1="-0.186049" x2="0.18516" y2="0.308069" style="stroke:rgb(246,147,147);stroke-width:0.01" />
</g>
</svg>
