<svg xmlns="http://www.w3.org/2000/svg" viewBox="-1 -1 3 3">
<path d="M-0.654427 -0.154731 L-0.123960 0.318256 L-0.115993 0.469512 L-0.416349 0.561519 L-0.529930 0.343383 L-1.039697 0.374936 L-1.156238 0.156050 L-0.904611 0.022076 L-0.850592 -0.119028 z " fill="rgb(245,195,195)" />
<path d="M0 0 L0 1 L1 1 L1 0 z" fill="none" stroke="rgb(128,128,128)" stroke-width="0.01" />
<line x1="-0.623809" y1="-0.127431" x2="-1.15624" y2="0.15605" style="stroke:rgb(246,147,147);stroke-width:0.01" />
<line x1="-0.56453" y1="-0.0745748" x2="-0.702532" y2="0.0478589" style="stroke:rgb(246,147,147);stroke-width:0.01" />
<line x1="-0.850592" y1="-0.119028" x2="-1.0397" y2="0.374936" style="stroke:rgb(246,147,147);stroke-width:0.01" />
<line x1="-0.56453" y1="-0.0745748" x2="-0.669535" y2="0.0752663" style="stroke:rgb(246,147,147);stroke-width:0.01" />
<line x1="-0.654427" y1="-0.154731" x2="-0.850592" y2="-0.119028" style="stroke:rgb(246,147,147);stroke-width:0.01" />
<line x1="-0.623809" y1="-0.127431" x2="-0.769079" y2="0.241828" style="stroke:rgb(246,147,147);stroke-width:0.01" />
<line x1="-0.654427" y1="-0.154731" x2="-0.669535" y2="0.0752663" style="stroke:rgb(246,147,147);stroke-width:0.01" />
<line x1="-0.12396" y1="0.318256" x2="-0.115993" y2="0.469512" style="stroke:rgb(246,147,147);stroke-width:0.01" />
<line x1="-0.425978" y1="0.477747" x2="-0.416349" y2="0.561519" style="stroke:rgb(246,147,147);stroke-width:0.01" />
<line x1="-0.654427" y1="-0.154731" x2="-0.12396" y2="0.318256" style="stroke:rgb(246,147,147);stroke-width:0.01" />
<line x1="-0.669535" y1="0.0752663" x2="-0.416349" y2="0.561519" style="stroke:rgb(246,147,147);stroke-width:0.01" />
<line x1="-0.12396" y1="0.318256" x2="-1.0397" y2="0.374936" style="stroke:rgb(246,147,147);stroke-width:0.01" />
<line x1="-0.850592" y1="-0.119028" x2="-0.702532" y2="0.0478589" style="stroke:rgb(246,147,147);stroke-width:0.01" />
<line x1="-0.115993" y1="0.469512" x2="-0.416349" y2="0.561519" style="stroke:rgb(246,147,147);stroke-width:0.01" />
<line x1="-0.117427" y1="0.442281" x2="-0.425978" y2="0.477747" style="stroke:rgb(246,147,147);stroke-width:0.01" />
<line x1="-0.262954" y1="0.440943" x2="-0.117427" y2="0.442281" style="stroke:rgb(246,147,147);stroke-width:0.01" />
<line x1="-0.769079" y1="0.241828" x2="-0.262954" y2="0.440943" style="stroke:rgb(246,147,147);stroke-width:0.01" />
<line x1="-0.262954" y1="0.440943" x2="-0.115993" y2="0.469512" style="stroke:rgb(246,147,147);stroke-width:0.01" />
<line x1="-1.15624" y1="0.15605" x2="-1.0397" y2="0.374936" style="stroke:rgb(246,147,147);stroke-width:0.01" />
</svg>
