<svg xmlns="http://www.w3.org/2000/svg" viewBox="-1.5 -1.5 3 3">
<path d="M-0.010894 -0.373839 L0.519573 0.099148 L0.527540 0.250404 L0.227184 0.342411 L0.113603 0.124275 L-0.396164 0.155828 L-0.512705 -0.063058 L-0.261078 -0.197032 L-0.207059 -0.338136 z " fill="rgb(245,195,195)" />
<path d="M0.643533 -0.219108 L1.643533 -0.219108 L1.643533 0.780892 L0.643533 0.780892  z" fill="none" stroke="rgb(128,128,128)" stroke-width="0.01" />
<line x1="0.0197236" y1="-0.346539" x2="-0.512705" y2="-0.0630582" style="stroke:rgb(246,147,147);stroke-width:0.01" />
<line x1="0.0790031" y1="-0.293683" x2="-0.0589991" y2="-0.171249" style="stroke:rgb(246,147,147);stroke-width:0.01" />
<line x1="-0.207059" y1="-0.338136" x2="-0.396164" y2="0.155828" style="stroke:rgb(246,147,147);stroke-width:0.01" />
<line x1="0.0790031" y1="-0.293683" x2="-0.0260025" y2="-0.143842" style="stroke:rgb(246,147,147);stroke-width:0.01" />
<line x1="-0.0108943" y1="-0.373839" x2="-0.207059" y2="-0.338136" style="stroke:rgb(246,147,147);stroke-width:0.01" />
<line x1="0.0197236" y1="-0.346539" x2="-0.125546" y2="0.0227204" style="stroke:rgb(246,147,147);stroke-width:0.01" />
<line x1="-0.0108943" y1="-0.373839" x2="-0.0260025" y2="-0.143842" style="stroke:rgb(246,147,147);stroke-width:0.01" />
<line x1="0.519573" y1="0.0991475" x2="0.52754" y2="0.250404" style="stroke:rgb(246,147,147);stroke-width:0.01" />
<line x1="0.217555" y1="0.258639" x2="0.227184" y2="0.342411" style="stroke:rgb(246,147,147);stroke-width:0.01" />
<line x1="-0.0108943" y1="-0.373839" x2="0.519573" y2="0.0991475" style="stroke:rgb(246,147,147);stroke-width:0.01" />
<line x1="-0.0260025" y1="-0.143842" x2="0.227184" y2="0.342411" style="stroke:rgb(246,147,147);stroke-width:0.01" />
<line x1="0.519573" y1="0.0991475" x2="-0.396164" y2="0.155828" style="stroke:rgb(246,147,147);stroke-width:0.01" />
<line x1="-0.207059" y1="-0.338136" x2="-0.0589991" y2="-0.171249" style="stroke:rgb(246,147,147);stroke-width:0.01" />
<line x1="0.52754" y1="0.250404" x2="0.227184" y2="0.342411" style="stroke:rgb(246,147,147);stroke-width:0.01" />
<line x1="0.526106" y1="0.223173" x2="0.217555" y2="0.258639" style="stroke:rgb(246,147,147);stroke-width:0.01" />
<line x1="0.380579" y1="0.221835" x2="0.526106" y2="0.223173" style="stroke:rgb(246,147,147);stroke-width:0.01" />
<line x1="-0.125546" y1="0.0227204" x2="0.380579" y2="0.221835" style="stroke:rgb(246,147,147);stroke-width:0.01" />
<line x1="0.380579" y1="0.221835" x2="0.52754" y2="0.250404" style="stroke:rgb(246,147,147);stroke-width:0.01" />
<line x1="-0.512705" y1="-0.0630582" x2="-0.396164" y2="0.155828" style="stroke:rgb(246,147,147);stroke-width:0.01" />
</svg>
