<svg xmlns="http://www.w3.org/2000/svg" viewBox="-1.5 -1.5 3 3">
<path d="M-0.264548 -0.287370 L0.376156 -0.173841 L0.453586 -0.115296 L0.366128 0.141766 L0.133550 0.062639 L0.112039 0.078216 L0.114223 0.081495 L0.030474 0.137282 L-0.087264 -0.032189 L-0.574605 0.116774 L-0.659740 -0.009477 z " fill="rgb(245,195,195)" />
<path d="M-0.574605 -0.610752 L0.425395 -0.610752 L0.425395 0.389248 L-0.574605 0.389248  z" fill="none" stroke="rgb(128,128,128)" stroke-width="0.01" />
<line x1="0.376156" y1="-0.173841" x2="0.453586" y2="-0.115296" style="stroke:rgb(246,147,147);stroke-width:0.01" />
<line x1="0.22622" y1="-0.200409" x2="0.391493" y2="-0.0724559" style="stroke:rgb(246,147,147);stroke-width:0.01" />
<line x1="-0.113674" y1="-0.260636" x2="0.114223" y2="0.0814952" style="stroke:rgb(246,147,147);stroke-width:0.01" />
<line x1="-0.264548" y1="-0.28737" x2="0.030474" y2="0.137282" style="stroke:rgb(246,147,147);stroke-width:0.01" />
<line x1="-0.574605" y1="0.0543992" x2="-0.574605" y2="0.116774" style="stroke:rgb(246,147,147);stroke-width:0.01" />
<line x1="-0.533647" y1="-0.0981431" x2="-0.538298" y2="0.105677" style="stroke:rgb(246,147,147);stroke-width:0.01" />
<line x1="-0.0623533" y1="-0.251542" x2="-0.069339" y2="-0.00638798" style="stroke:rgb(246,147,147);stroke-width:0.01" />
<line x1="-0.177692" y1="-0.0438664" x2="-0.141089" y2="-0.0157366" style="stroke:rgb(246,147,147);stroke-width:0.01" />
<line x1="-0.0623533" y1="-0.251542" x2="-0.141089" y2="-0.0157366" style="stroke:rgb(246,147,147);stroke-width:0.01" />
<line x1="-0.574605" y1="0.0543992" x2="-0.538298" y2="0.105677" style="stroke:rgb(246,147,147);stroke-width:0.01" />
<line x1="-0.65974" y1="-0.00947653" x2="-0.574605" y2="0.116774" style="stroke:rgb(246,147,147);stroke-width:0.01" />
<line x1="-0.65974" y1="-0.00947653" x2="-0.588689" y2="0.0874759" style="stroke:rgb(246,147,147);stroke-width:0.01" />
<line x1="-0.264548" y1="-0.28737" x2="0.376156" y2="-0.173841" style="stroke:rgb(246,147,147);stroke-width:0.01" />
<line x1="-0.264548" y1="-0.28737" x2="-0.65974" y2="-0.00947653" style="stroke:rgb(246,147,147);stroke-width:0.01" />
<line x1="0.453586" y1="-0.115296" x2="0.366128" y2="0.141766" style="stroke:rgb(246,147,147);stroke-width:0.01" />
<line x1="0.417226" y1="-0.142788" x2="0.391493" y2="-0.0724559" style="stroke:rgb(246,147,147);stroke-width:0.01" />
<line x1="-0.069339" y1="-0.00638798" x2="0.366128" y2="0.141766" style="stroke:rgb(246,147,147);stroke-width:0.01" />
<line x1="-0.177692" y1="-0.0438664" x2="-0.217186" y2="0.0075236" style="stroke:rgb(246,147,147);stroke-width:0.01" />
<line x1="-0.113674" y1="-0.260636" x2="-0.588689" y2="0.0874759" style="stroke:rgb(246,147,147);stroke-width:0.01" />
<line x1="-0.533647" y1="-0.0981431" x2="-0.217186" y2="0.0075236" style="stroke:rgb(246,147,147);stroke-width:0.01" />
<line x1="0.22622" y1="-0.200409" x2="-0.574605" y2="0.0543992" style="stroke:rgb(246,147,147);stroke-width:0.01" />
<line x1="0.376156" y1="-0.173841" x2="-0.574605" y2="0.116774" style="stroke:rgb(246,147,147);stroke-width:0.01" />
<line x1="0.417226" y1="-0.142788" x2="0.030474" y2="0.137282" style="stroke:rgb(246,147,147);stroke-width:0.01" />
<line x1="0.114223" y1="0.0814952" x2="0.030474" y2="0.137282" style="stroke:rgb(246,147,147);stroke-width:0.01" />
<line x1="0.453586" y1="-0.115296" x2="0.391493" y2="-0.0724559" style="stroke:rgb(246,147,147);stroke-width:0.01" />
</svg>
