<svg xmlns="http://www.w3.org/2000/svg" viewBox="-1 -1 3 3">
<path d="M0.310056 0.323382 L0.950761 0.436912 L1.028190 0.495456 L0.940733 0.752519 L0.708154 0.673391 L0.686644 0.688968 L0.688828 0.692248 L0.605079 0.748034 L0.487341 0.578563 L0.000000 0.727527 L-0.085135 0.601276 z " fill="rgb(245,195,195)" />
<path d="M0 0 L0 1 L1 1 L1 0 z" fill="none" stroke="rgb(128,128,128)" stroke-width="0.01" />
<line x1="0.950761" y1="0.436912" x2="1.02819" y2="0.495456" style="stroke:rgb(246,147,147);stroke-width:0.01" />
<line x1="0.800824" y1="0.410344" x2="0.966098" y2="0.538296" style="stroke:rgb(246,147,147);stroke-width:0.01" />
<line x1="0.460931" y1="0.350117" x2="0.688828" y2="0.692248" style="stroke:rgb(246,147,147);stroke-width:0.01" />
<line x1="0.310056" y1="0.323382" x2="0.605079" y2="0.748034" style="stroke:rgb(246,147,147);stroke-width:0.01" />
<line x1="0" y1="0.665152" x2="0" y2="0.727527" style="stroke:rgb(246,147,147);stroke-width:0.01" />
<line x1="0.0409573" y1="0.512609" x2="0.0363067" y2="0.716429" style="stroke:rgb(246,147,147);stroke-width:0.01" />
<line x1="0.512251" y1="0.35921" x2="0.505266" y2="0.604364" style="stroke:rgb(246,147,147);stroke-width:0.01" />
<line x1="0.396913" y1="0.566886" x2="0.433516" y2="0.595016" style="stroke:rgb(246,147,147);stroke-width:0.01" />
<line x1="0.512251" y1="0.35921" x2="0.433516" y2="0.595016" style="stroke:rgb(246,147,147);stroke-width:0.01" />
<line x1="0" y1="0.665152" x2="0.0363067" y2="0.716429" style="stroke:rgb(246,147,147);stroke-width:0.01" />
<line x1="-0.0851352" y1="0.601276" x2="0" y2="0.727527" style="stroke:rgb(246,147,147);stroke-width:0.01" />
<line x1="-0.0851352" y1="0.601276" x2="-0.0140843" y2="0.698228" style="stroke:rgb(246,147,147);stroke-width:0.01" />
<line x1="0.310056" y1="0.323382" x2="0.950761" y2="0.436912" style="stroke:rgb(246,147,147);stroke-width:0.01" />
<line x1="0.310056" y1="0.323382" x2="-0.0851352" y2="0.601276" style="stroke:rgb(246,147,147);stroke-width:0.01" />
<line x1="1.02819" y1="0.495456" x2="0.940733" y2="0.752519" style="stroke:rgb(246,147,147);stroke-width:0.01" />
<line x1="0.991831" y1="0.467965" x2="0.966098" y2="0.538296" style="stroke:rgb(246,147,147);stroke-width:0.01" />
<line x1="0.505266" y1="0.604364" x2="0.940733" y2="0.752519" style="stroke:rgb(246,147,147);stroke-width:0.01" />
<line x1="0.396913" y1="0.566886" x2="0.357419" y2="0.618276" style="stroke:rgb(246,147,147);stroke-width:0.01" />
<line x1="0.460931" y1="0.350117" x2="-0.0140843" y2="0.698228" style="stroke:rgb(246,147,147);stroke-width:0.01" />
<line x1="0.0409573" y1="0.512609" x2="0.357419" y2="0.618276" style="stroke:rgb(246,147,147);stroke-width:0.01" />
<line x1="0.800824" y1="0.410344" x2="0" y2="0.665152" style="stroke:rgb(246,147,147);stroke-width:0.01" />
<line x1="0.950761" y1="0.436912" x2="0" y2="0.727527" style="stroke:rgb(246,147,147);stroke-width:0.01" />
<line x1="0.991831" y1="0.467965" x2="0.605079" y2="0.748034" style="stroke:rgb(246,147,147);stroke-width:0.01" />
<line x1="0.688828" y1="0.692248" x2="0.605079" y2="0.748034" style="stroke:rgb(246,147,147);stroke-width:0.01" />
<line x1="1.02819" y1="0.495456" x2="0.966098" y2="0.538296" style="stroke:rgb(246,147,147);stroke-width:0.01" />
</svg>
