<svg xmlns="http://www.w3.org/2000/svg" viewBox="-1.5 -1.5 3 3">
<g transform="scale(1, -1)">
<path d="M0.000000 123456789012345670356319606483911229676122426202597038751744.000000 L0.125000 123456789012345670356319606483911229676122426202597038751744.000000 L0.375000 123456789012345670356319606483911229676122426202597038751744.000000 L0.500000 123456789012345670356319606483911229676122426202597038751744.000000 L0.500000 123456789012345670356319606483911229676122426202597038751744.000000 L0.375000 123456789012345670356319606483911229676122426202597038751744.000000 L0.125000 123456789012345670356319606483911229676122426202597038751744.000000 L0.000000 123456789012345670356319606483911229676122426202597038751744.000000 z " fill="rgb(245,195,195)" />
<path d="M0.000000 0.000000 L1.000000 0.000000 L1.000000 1.000000 L0.000000 1.000000  z" fill="none" stroke="rgb(128,128,128)" stroke-width="0.01" />
<line x1="0" y1="1.23457e+59" x2="0" y2="1.23457e+59" style="stroke:rgb(246,147,147);stroke-width:0.01" />
<line x1="0.25" y1="1.23457e+59" x2="0.25" y2="1.23457e+59" style="stroke:rgb(246,147,147);stroke-width:0.01" />
<line x1="0.5" y1="1.23457e+59" x2="0.5" y2="1.23457e+59" style="stroke:rgb(246,147,147);stroke-width:0.01" />
<line x1="0.375" y1="1.23457e+59" x2="0.5" y2="1.23457e+59" style="stroke:rgb(246,147,147);stroke-width:0.01" />
<line x1="0" y1="1.23457e+59" x2="0.5" y2="1.23457e+59" style="stroke:rgb(246,147,147);stroke-width:0.01" />
<line x1="0" y1="1.23457e+59" x2="0.125" y2="1.23457e+59" style="stroke:rgb(246,147,147);stroke-width:0.01" />
<line x1="0.125" y1="1.23457e+59" x2="0" y2="1.23457e+59" style="stroke:rgb(246,147,147);stroke-width:0.01" />
<line x1="0.5" y1="1.23457e+59" x2="0" y2="1.23457e+59" style="stroke:rgb(246,147,147);stroke-width:0.01" />
<line x1="0.5" y1="1.23457e+59" x2="0.375" y2="1.23457e+59" style="stroke:rgb(246,147,147);stroke-width:0.01" />
<line x1="0" y1="1.23457e+59" x2="0.5" y2="1.23457e+59" style="stroke:rgb(246,147,147);stroke-width:0.01" />
<line x1="0" y1="1.23457e+59" x2="0.5" y2="1.23457e+59" style="stroke:rgb(246,147,147);stroke-width:0.01" />
<line x1="0" y1="1.23457e+59" x2="0.5" y2="1.23457e+59" style="stroke:rgb(246,147,147);stroke-width:0.01" />
</g>
</svg>
