<svg xmlns="http://www.w3.org/2000/svg" viewBox="-1.5 -1.5 3 3">
<path d="M-0.428124 -0.527075 L0.047169 -0.503311 L0.418315 -0.294546 L0.140270 0.199769 L0.196904 0.239322 L0.195221 0.294489 L0.259533 0.397871 L0.255606 0.408369 L0.215818 0.393488 L0.192274 0.391128 L-0.159043 -0.009271 L-0.330011 -0.338272 L-0.478848 -0.273146 L-0.525084 -0.378814 z " fill="rgb(245,195,195)" />
<path d="M-0.640424 -1.378814 L0.359576 -1.378814 L0.359576 -0.378814 L-0.640424 -0.378814  z" fill="none" stroke="rgb(128,128,128)" stroke-width="0.01" />
<line x1="0.14207" y1="0.201026" x2="0.183858" y2="0.381535" style="stroke:rgb(246,147,147);stroke-width:0.01" />
<line x1="-0.451637" y1="-0.491123" x2="-0.422003" y2="-0.378814" style="stroke:rgb(246,147,147);stroke-width:0.01" />
<line x1="0.196904" y1="0.239322" x2="0.192274" y2="0.391128" style="stroke:rgb(246,147,147);stroke-width:0.01" />
<line x1="-0.31225" y1="-0.521282" x2="0.259533" y2="0.397871" style="stroke:rgb(246,147,147);stroke-width:0.01" />
<line x1="-0.428124" y1="-0.527075" x2="-0.159043" y2="-0.0092708" style="stroke:rgb(246,147,147);stroke-width:0.01" />
<line x1="-0.525084" y1="-0.378814" x2="-0.478848" y2="-0.273146" style="stroke:rgb(246,147,147);stroke-width:0.01" />
<line x1="0.196076" y1="-0.397727" x2="0.0369702" y2="0.214126" style="stroke:rgb(246,147,147);stroke-width:0.01" />
<line x1="-0.428124" y1="-0.527075" x2="-0.525084" y2="-0.378814" style="stroke:rgb(246,147,147);stroke-width:0.01" />
<line x1="-0.159043" y1="-0.0092708" x2="0.192274" y2="0.391128" style="stroke:rgb(246,147,147);stroke-width:0.01" />
<line x1="0.0471687" y1="-0.503311" x2="0.418315" y2="-0.294546" style="stroke:rgb(246,147,147);stroke-width:0.01" />
<line x1="-0.31225" y1="-0.521282" x2="-0.422003" y2="-0.378814" style="stroke:rgb(246,147,147);stroke-width:0.01" />
<line x1="0.259533" y1="0.397871" x2="0.255606" y2="0.408369" style="stroke:rgb(246,147,147);stroke-width:0.01" />
<line x1="-0.159043" y1="-0.0092708" x2="0.196904" y2="0.239322" style="stroke:rgb(246,147,147);stroke-width:0.01" />
<line x1="0.418315" y1="-0.294546" x2="0.094996" y2="0.280259" style="stroke:rgb(246,147,147);stroke-width:0.01" />
<line x1="-0.271165" y1="-0.519227" x2="0.196076" y2="-0.397727" style="stroke:rgb(246,147,147);stroke-width:0.01" />
<line x1="-0.428124" y1="-0.527075" x2="0.0471687" y2="-0.503311" style="stroke:rgb(246,147,147);stroke-width:0.01" />
<line x1="-0.271165" y1="-0.519227" x2="-0.451637" y2="-0.491123" style="stroke:rgb(246,147,147);stroke-width:0.01" />
<line x1="0.0471687" y1="-0.503311" x2="-0.478848" y2="-0.273146" style="stroke:rgb(246,147,147);stroke-width:0.01" />
<line x1="-0.525084" y1="-0.378814" x2="-0.422003" y2="-0.378814" style="stroke:rgb(246,147,147);stroke-width:0.01" />
<line x1="0.183858" y1="0.381535" x2="0.255606" y2="0.408369" style="stroke:rgb(246,147,147);stroke-width:0.01" />
<line x1="0.14207" y1="0.201026" x2="0.0369702" y2="0.214126" style="stroke:rgb(246,147,147);stroke-width:0.01" />
<line x1="0.192274" y1="0.391128" x2="0.259533" y2="0.397871" style="stroke:rgb(246,147,147);stroke-width:0.01" />
<line x1="0.196904" y1="0.239322" x2="0.094996" y2="0.280259" style="stroke:rgb(246,147,147);stroke-width:0.01" />
</svg>
