<svg xmlns="http://www.w3.org/2000/svg" viewBox="-1.5 -1.5 3 3">
<g transform="scale(1, -1)">
<path d="M0.069444 -0.430556 L0.319444 -0.430556 L0.319444 0.152778 L0.152778 0.319444 L-0.430556 0.319444 L-0.430556 0.069444 z " fill="rgb(245,195,195)" />
<path d="M-0.430556 -0.430556 L0.569444 -0.430556 L0.569444 0.569444 L-0.430556 0.569444  z" fill="none" stroke="rgb(128,128,128)" stroke-width="0.01" />
<line x1="0.0694444" y1="-0.0972222" x2="0.319444" y2="0.152778" style="stroke:rgb(246,147,147);stroke-width:0.01" />
<line x1="0.0694444" y1="-0.430556" x2="0.319444" y2="-0.430556" style="stroke:rgb(246,147,147);stroke-width:0.01" />
<line x1="-0.430556" y1="0.0694444" x2="-0.430556" y2="0.319444" style="stroke:rgb(246,147,147);stroke-width:0.01" />
<line x1="-0.0972222" y1="-0.0972222" x2="-0.0972222" y2="0.319444" style="stroke:rgb(246,147,147);stroke-width:0.01" />
<line x1="0.0694444" y1="-0.430556" x2="0.0694444" y2="0.0694444" style="stroke:rgb(246,147,147);stroke-width:0.01" />
<line x1="0.319444" y1="-0.430556" x2="0.319444" y2="0.152778" style="stroke:rgb(246,147,147);stroke-width:0.01" />
<line x1="-0.0972222" y1="0.0694444" x2="0.152778" y2="0.319444" style="stroke:rgb(246,147,147);stroke-width:0.01" />
<line x1="0.0694444" y1="-0.430556" x2="-0.430556" y2="0.0694444" style="stroke:rgb(246,147,147);stroke-width:0.01" />
<line x1="-0.0972222" y1="-0.0972222" x2="0.319444" y2="-0.0972222" style="stroke:rgb(246,147,147);stroke-width:0.01" />
<line x1="-0.430556" y1="0.0694444" x2="0.0694444" y2="0.0694444" style="stroke:rgb(246,147,147);stroke-width:0.01" />
<line x1="0.319444" y1="0.152778" x2="0.152778" y2="0.319444" style="stroke:rgb(246,147,147);stroke-width:0.01" />
<line x1="-0.430556" y1="0.319444" x2="0.152778" y2="0.319444" style="stroke:rgb(246,147,147);stroke-width:0.01" />
</g>
</svg>
