<svg xmlns="http://www.w3.org/2000/svg" viewBox="-1.5 -1.5 3 3">
<path d="M-0.245301 -0.351147 L-0.152553 -0.341870 L0.020270 -0.053226 L0.135190 -0.124090 L0.170465 -0.111466 L0.257025 0.229642 L0.281831 0.237900 L0.266457 0.284079 L-0.154296 0.251353 L-0.302966 0.021871 L-0.276122 -0.043046 z " fill="rgb(245,195,195)" />
<path d="M0.477900 -0.117038 L1.477900 -0.117038 L1.477900 0.882962 L0.477900 0.882962  z" fill="none" stroke="rgb(128,128,128)" stroke-width="0.01" />
<line x1="-0.152553" y1="-0.34187" x2="-0.302966" y2="0.0218714" style="stroke:rgb(246,147,147);stroke-width:0.01" />
<line x1="-0.245301" y1="-0.351147" x2="-0.152553" y2="-0.34187" style="stroke:rgb(246,147,147);stroke-width:0.01" />
<line x1="0.13519" y1="-0.12409" x2="-0.169927" y2="0.0640585" style="stroke:rgb(246,147,147);stroke-width:0.01" />
<line x1="0.170465" y1="-0.111466" x2="-0.154296" y2="0.251353" style="stroke:rgb(246,147,147);stroke-width:0.01" />
<line x1="-0.102428" y1="0.0302254" x2="-0.16697" y2="0.0652363" style="stroke:rgb(246,147,147);stroke-width:0.01" />
<line x1="-0.245301" y1="-0.351147" x2="-0.285338" y2="0.0490822" style="stroke:rgb(246,147,147);stroke-width:0.01" />
<line x1="0.17726" y1="-0.0846889" x2="-0.181258" y2="0.0214928" style="stroke:rgb(246,147,147);stroke-width:0.01" />
<line x1="0.0270265" y1="0.0263432" x2="0.00690299" y2="0.263891" style="stroke:rgb(246,147,147);stroke-width:0.01" />
<line x1="0.139284" y1="-0.0766305" x2="0.104879" y2="0.271512" style="stroke:rgb(246,147,147);stroke-width:0.01" />
<line x1="0.0217237" y1="0.0547059" x2="0.00690299" y2="0.263891" style="stroke:rgb(246,147,147);stroke-width:0.01" />
<line x1="0.17726" y1="-0.0846889" x2="0.139284" y2="-0.0766305" style="stroke:rgb(246,147,147);stroke-width:0.01" />
<line x1="0.281831" y1="0.2379" x2="0.266457" y2="0.284079" style="stroke:rgb(246,147,147);stroke-width:0.01" />
<line x1="0.118366" y1="0.0340809" x2="0.104879" y2="0.271512" style="stroke:rgb(246,147,147);stroke-width:0.01" />
<line x1="0.258286" y1="0.234611" x2="0.220069" y2="0.280471" style="stroke:rgb(246,147,147);stroke-width:0.01" />
<line x1="0.204146" y1="0.0212617" x2="-0.060415" y2="0.107676" style="stroke:rgb(246,147,147);stroke-width:0.01" />
<line x1="0.257924" y1="0.233185" x2="0.266457" y2="0.284079" style="stroke:rgb(246,147,147);stroke-width:0.01" />
<line x1="0.170465" y1="-0.111466" x2="0.258286" y2="0.234611" style="stroke:rgb(246,147,147);stroke-width:0.01" />
<line x1="0.204146" y1="0.0212617" x2="0.0217237" y2="0.0547059" style="stroke:rgb(246,147,147);stroke-width:0.01" />
<line x1="0.13519" y1="-0.12409" x2="0.170465" y2="-0.111466" style="stroke:rgb(246,147,147);stroke-width:0.01" />
<line x1="0.13519" y1="-0.12409" x2="0.257924" y2="0.233185" style="stroke:rgb(246,147,147);stroke-width:0.01" />
<line x1="-0.302966" y1="0.0218714" x2="0.118366" y2="0.0340809" style="stroke:rgb(246,147,147);stroke-width:0.01" />
<line x1="-0.181258" y1="0.0214928" x2="-0.169927" y2="0.0640585" style="stroke:rgb(246,147,147);stroke-width:0.01" />
<line x1="0.0270265" y1="0.0263432" x2="0.118366" y2="0.0340809" style="stroke:rgb(246,147,147);stroke-width:0.01" />
<line x1="-0.181258" y1="0.0214928" x2="-0.16697" y2="0.0652363" style="stroke:rgb(246,147,147);stroke-width:0.01" />
<line x1="-0.152553" y1="-0.34187" x2="0.220069" y2="0.280471" style="stroke:rgb(246,147,147);stroke-width:0.01" />
<line x1="-0.102428" y1="0.0302254" x2="-0.060415" y2="0.107676" style="stroke:rgb(246,147,147);stroke-width:0.01" />
<line x1="-0.285338" y1="0.0490822" x2="0.281831" y2="0.2379" style="stroke:rgb(246,147,147);stroke-width:0.01" />
<line x1="-0.169927" y1="0.0640585" x2="0.258286" y2="0.234611" style="stroke:rgb(246,147,147);stroke-width:0.01" />
<line x1="-0.302966" y1="0.0218714" x2="-0.154296" y2="0.251353" style="stroke:rgb(246,147,147);stroke-width:0.01" />
<line x1="-0.154296" y1="0.251353" x2="0.266457" y2="0.284079" style="stroke:rgb(246,147,147);stroke-width:0.01" />
</svg>
