<svg xmlns="http://www.w3.org/2000/svg" viewBox="-1.5 -1.5 3 3">
<g transform="scale(1, -1)">
<path d="M-0.723202 -0.234109 L-0.630453 -0.224831 L-0.457630 0.063812 L-0.342711 -0.007052 L-0.307435 0.005572 L-0.220876 0.346680 L-0.196069 0.354939 L-0.211443 0.401117 L-0.632197 0.368392 L-0.780866 0.138910 L-0.754022 0.073993 z " fill="rgb(245,195,195)" />
<path d="M0.000000 0.000000 L1.000000 0.000000 L1.000000 1.000000 L0.000000 1.000000  z" fill="none" stroke="rgb(128,128,128)" stroke-width="0.01" />
<line x1="-0.630453" y1="-0.224831" x2="-0.780866" y2="0.13891" style="stroke:rgb(246,147,147);stroke-width:0.01" />
<line x1="-0.723202" y1="-0.234109" x2="-0.630453" y2="-0.224831" style="stroke:rgb(246,147,147);stroke-width:0.01" />
<line x1="-0.342711" y1="-0.00705197" x2="-0.647828" y2="0.181097" style="stroke:rgb(246,147,147);stroke-width:0.01" />
<line x1="-0.307435" y1="0.00557202" x2="-0.632197" y2="0.368392" style="stroke:rgb(246,147,147);stroke-width:0.01" />
<line x1="-0.580329" y1="0.147264" x2="-0.644871" y2="0.182275" style="stroke:rgb(246,147,147);stroke-width:0.01" />
<line x1="-0.723202" y1="-0.234109" x2="-0.763238" y2="0.166121" style="stroke:rgb(246,147,147);stroke-width:0.01" />
<line x1="-0.30064" y1="0.0323495" x2="-0.659159" y2="0.138531" style="stroke:rgb(246,147,147);stroke-width:0.01" />
<line x1="-0.450874" y1="0.143382" x2="-0.470997" y2="0.38093" style="stroke:rgb(246,147,147);stroke-width:0.01" />
<line x1="-0.338617" y1="0.0404079" x2="-0.373021" y2="0.38855" style="stroke:rgb(246,147,147);stroke-width:0.01" />
<line x1="-0.456177" y1="0.171744" x2="-0.470997" y2="0.38093" style="stroke:rgb(246,147,147);stroke-width:0.01" />
<line x1="-0.30064" y1="0.0323495" x2="-0.338617" y2="0.0404079" style="stroke:rgb(246,147,147);stroke-width:0.01" />
<line x1="-0.196069" y1="0.354939" x2="-0.211443" y2="0.401117" style="stroke:rgb(246,147,147);stroke-width:0.01" />
<line x1="-0.359534" y1="0.151119" x2="-0.373021" y2="0.38855" style="stroke:rgb(246,147,147);stroke-width:0.01" />
<line x1="-0.219615" y1="0.35165" x2="-0.257831" y2="0.397509" style="stroke:rgb(246,147,147);stroke-width:0.01" />
<line x1="-0.273754" y1="0.1383" x2="-0.538315" y2="0.224714" style="stroke:rgb(246,147,147);stroke-width:0.01" />
<line x1="-0.219977" y1="0.350224" x2="-0.211443" y2="0.401117" style="stroke:rgb(246,147,147);stroke-width:0.01" />
<line x1="-0.307435" y1="0.00557202" x2="-0.219615" y2="0.35165" style="stroke:rgb(246,147,147);stroke-width:0.01" />
<line x1="-0.273754" y1="0.1383" x2="-0.456177" y2="0.171744" style="stroke:rgb(246,147,147);stroke-width:0.01" />
<line x1="-0.342711" y1="-0.00705197" x2="-0.307435" y2="0.00557202" style="stroke:rgb(246,147,147);stroke-width:0.01" />
<line x1="-0.342711" y1="-0.00705197" x2="-0.219977" y2="0.350224" style="stroke:rgb(246,147,147);stroke-width:0.01" />
<line x1="-0.780866" y1="0.13891" x2="-0.359534" y2="0.151119" style="stroke:rgb(246,147,147);stroke-width:0.01" />
<line x1="-0.659159" y1="0.138531" x2="-0.647828" y2="0.181097" style="stroke:rgb(246,147,147);stroke-width:0.01" />
<line x1="-0.450874" y1="0.143382" x2="-0.359534" y2="0.151119" style="stroke:rgb(246,147,147);stroke-width:0.01" />
<line x1="-0.659159" y1="0.138531" x2="-0.644871" y2="0.182275" style="stroke:rgb(246,147,147);stroke-width:0.01" />
<line x1="-0.630453" y1="-0.224831" x2="-0.257831" y2="0.397509" style="stroke:rgb(246,147,147);stroke-width:0.01" />
<line x1="-0.580329" y1="0.147264" x2="-0.538315" y2="0.224714" style="stroke:rgb(246,147,147);stroke-width:0.01" />
<line x1="-0.763238" y1="0.166121" x2="-0.196069" y2="0.354939" style="stroke:rgb(246,147,147);stroke-width:0.01" />
<line x1="-0.647828" y1="0.181097" x2="-0.219615" y2="0.35165" style="stroke:rgb(246,147,147);stroke-width:0.01" />
<line x1="-0.780866" y1="0.13891" x2="-0.632197" y2="0.368392" style="stroke:rgb(246,147,147);stroke-width:0.01" />
<line x1="-0.632197" y1="0.368392" x2="-0.211443" y2="0.401117" style="stroke:rgb(246,147,147);stroke-width:0.01" />
</g>
</svg>
