<svg xmlns="http://www.w3.org/2000/svg" viewBox="-1.5 -1.5 3 3">
<g transform="scale(1, -1)">
<path d="M0.288900 -0.174861 L0.343597 0.000000 L0.656403 0.000000 L0.711100 -0.174861 L0.802632 0.000000 L0.720146 0.136281 L0.808824 0.191176 L0.722951 0.447541 L0.666259 0.333741 L0.500000 0.500000 L0.333741 0.333741 L0.277049 0.447541 L0.191176 0.191176 L0.279854 0.136281 L0.197368 0.000000 z " fill="rgb(245,195,195)" />
<path d="M0.000000 0.000000 L1.000000 0.000000 L1.000000 1.000000 L0.000000 1.000000  z" fill="none" stroke="rgb(128,128,128)" stroke-width="0.01" />
<line x1="0.7111" y1="-0.174861" x2="0.802632" y2="0" style="stroke:rgb(246,147,147);stroke-width:0.01" />
<line x1="0.5" y1="0" x2="0.808824" y2="0.191176" style="stroke:rgb(246,147,147);stroke-width:0.01" />
<line x1="0.5" y1="0" x2="0.722951" y2="0.447541" style="stroke:rgb(246,147,147);stroke-width:0.01" />
<line x1="0.2889" y1="-0.174861" x2="0.5" y2="0.5" style="stroke:rgb(246,147,147);stroke-width:0.01" />
<line x1="0.197368" y1="0" x2="0.5" y2="0.5" style="stroke:rgb(246,147,147);stroke-width:0.01" />
<line x1="0.191176" y1="0.191176" x2="0.277049" y2="0.447541" style="stroke:rgb(246,147,147);stroke-width:0.01" />
<line x1="0.197368" y1="0" x2="0.802632" y2="0" style="stroke:rgb(246,147,147);stroke-width:0.01" />
<line x1="0.191176" y1="0.191176" x2="0.5" y2="0.5" style="stroke:rgb(246,147,147);stroke-width:0.01" />
<line x1="0.5" y1="0" x2="0.5" y2="0.5" style="stroke:rgb(246,147,147);stroke-width:0.01" />
<line x1="0.2889" y1="-0.174861" x2="0.197368" y2="0" style="stroke:rgb(246,147,147);stroke-width:0.01" />
<line x1="0.7111" y1="-0.174861" x2="0.5" y2="0.5" style="stroke:rgb(246,147,147);stroke-width:0.01" />
<line x1="0.5" y1="0" x2="0.277049" y2="0.447541" style="stroke:rgb(246,147,147);stroke-width:0.01" />
<line x1="0.5" y1="0" x2="0.191176" y2="0.191176" style="stroke:rgb(246,147,147);stroke-width:0.01" />
<line x1="0.808824" y1="0.191176" x2="0.722951" y2="0.447541" style="stroke:rgb(246,147,147);stroke-width:0.01" />
<line x1="0.802632" y1="0" x2="0.5" y2="0.5" style="stroke:rgb(246,147,147);stroke-width:0.01" />
<line x1="0.808824" y1="0.191176" x2="0.5" y2="0.5" style="stroke:rgb(246,147,147);stroke-width:0.01" />
</g>
</svg>
