<svg xmlns="http://www.w3.org/2000/svg" viewBox="-1.5 -1.5 3 3">
<g transform="scale(1, -1)">
<path d="M-0.307639 -0.301814 L-0.241597 -0.165136 L0.241597 -0.165136 L0.307639 -0.301814 L0.355263 -0.165136 L0.246736 -0.012395 L0.308824 0.026040 L0.222951 0.282405 L0.166259 0.168605 L0.000000 0.334864 L-0.166259 0.168605 L-0.222951 0.282405 L-0.308824 0.026040 L-0.246736 -0.012395 L-0.355263 -0.165136 z " fill="rgb(245,195,195)" />
<path d="M-0.500000 -0.165136 L0.500000 -0.165136 L0.500000 0.834864 L-0.500000 0.834864  z" fill="none" stroke="rgb(128,128,128)" stroke-width="0.01" />
<line x1="0.307639" y1="-0.301814" x2="0.355263" y2="-0.165136" style="stroke:rgb(246,147,147);stroke-width:0.01" />
<line x1="0" y1="-0.165136" x2="0.308824" y2="0.0260402" style="stroke:rgb(246,147,147);stroke-width:0.01" />
<line x1="0" y1="-0.165136" x2="0.222951" y2="0.282405" style="stroke:rgb(246,147,147);stroke-width:0.01" />
<line x1="-0.307639" y1="-0.301814" x2="0" y2="0.334864" style="stroke:rgb(246,147,147);stroke-width:0.01" />
<line x1="-0.355263" y1="-0.165136" x2="0" y2="0.334864" style="stroke:rgb(246,147,147);stroke-width:0.01" />
<line x1="-0.308824" y1="0.0260402" x2="-0.222951" y2="0.282405" style="stroke:rgb(246,147,147);stroke-width:0.01" />
<line x1="-0.355263" y1="-0.165136" x2="0.355263" y2="-0.165136" style="stroke:rgb(246,147,147);stroke-width:0.01" />
<line x1="-0.308824" y1="0.0260402" x2="0" y2="0.334864" style="stroke:rgb(246,147,147);stroke-width:0.01" />
<line x1="0" y1="-0.165136" x2="0" y2="0.334864" style="stroke:rgb(246,147,147);stroke-width:0.01" />
<line x1="-0.307639" y1="-0.301814" x2="-0.355263" y2="-0.165136" style="stroke:rgb(246,147,147);stroke-width:0.01" />
<line x1="0" y1="-0.165136" x2="-0.222951" y2="0.282405" style="stroke:rgb(246,147,147);stroke-width:0.01" />
<line x1="0" y1="-0.165136" x2="-0.308824" y2="0.0260402" style="stroke:rgb(246,147,147);stroke-width:0.01" />
<line x1="0.308824" y1="0.0260402" x2="0.222951" y2="0.282405" style="stroke:rgb(246,147,147);stroke-width:0.01" />
<line x1="0.307639" y1="-0.301814" x2="0" y2="0.334864" style="stroke:rgb(246,147,147);stroke-width:0.01" />
<line x1="0.355263" y1="-0.165136" x2="0" y2="0.334864" style="stroke:rgb(246,147,147);stroke-width:0.01" />
<line x1="0.308824" y1="0.0260402" x2="0" y2="0.334864" style="stroke:rgb(246,147,147);stroke-width:0.01" />
</g>
</svg>
