<svg xmlns="http://www.w3.org/2000/svg" viewBox="-1.5 -1.5 3 3">
<g transform="scale(1, -1)">
<path d="M0.192361 -0.136677 L0.258403 0.000000 L0.741597 0.000000 L0.807639 -0.136677 L0.855263 0.000000 L0.746736 0.152742 L0.808824 0.191176 L0.722951 0.447541 L0.666259 0.333741 L0.500000 0.500000 L0.333741 0.333741 L0.277049 0.447541 L0.191176 0.191176 L0.253264 0.152742 L0.144737 0.000000 z " fill="rgb(245,195,195)" />
<path d="M0.000000 0.000000 L1.000000 0.000000 L1.000000 1.000000 L0.000000 1.000000  z" fill="none" stroke="rgb(128,128,128)" stroke-width="0.01" />
<line x1="0.807639" y1="-0.136677" x2="0.855263" y2="0" style="stroke:rgb(246,147,147);stroke-width:0.01" />
<line x1="0.5" y1="0" x2="0.808824" y2="0.191176" style="stroke:rgb(246,147,147);stroke-width:0.01" />
<line x1="0.5" y1="0" x2="0.722951" y2="0.447541" style="stroke:rgb(246,147,147);stroke-width:0.01" />
<line x1="0.192361" y1="-0.136677" x2="0.5" y2="0.5" style="stroke:rgb(246,147,147);stroke-width:0.01" />
<line x1="0.144737" y1="0" x2="0.5" y2="0.5" style="stroke:rgb(246,147,147);stroke-width:0.01" />
<line x1="0.191176" y1="0.191176" x2="0.277049" y2="0.447541" style="stroke:rgb(246,147,147);stroke-width:0.01" />
<line x1="0.144737" y1="0" x2="0.855263" y2="0" style="stroke:rgb(246,147,147);stroke-width:0.01" />
<line x1="0.191176" y1="0.191176" x2="0.5" y2="0.5" style="stroke:rgb(246,147,147);stroke-width:0.01" />
<line x1="0.5" y1="0" x2="0.5" y2="0.5" style="stroke:rgb(246,147,147);stroke-width:0.01" />
<line x1="0.192361" y1="-0.136677" x2="0.144737" y2="0" style="stroke:rgb(246,147,147);stroke-width:0.01" />
<line x1="0.5" y1="0" x2="0.277049" y2="0.447541" style="stroke:rgb(246,147,147);stroke-width:0.01" />
<line x1="0.5" y1="0" x2="0.191176" y2="0.191176" style="stroke:rgb(246,147,147);stroke-width:0.01" />
<line x1="0.808824" y1="0.191176" x2="0.722951" y2="0.447541" style="stroke:rgb(246,147,147);stroke-width:0.01" />
<line x1="0.807639" y1="-0.136677" x2="0.5" y2="0.5" style="stroke:rgb(246,147,147);stroke-width:0.01" />
<line x1="0.855263" y1="0" x2="0.5" y2="0.5" style="stroke:rgb(246,147,147);stroke-width:0.01" />
<line x1="0.808824" y1="0.191176" x2="0.5" y2="0.5" style="stroke:rgb(246,147,147);stroke-width:0.01" />
</g>
</svg>
