<svg xmlns="http://www.w3.org/2000/svg" viewBox="-1.5 -1.5 3 3">
<g transform="scale(1, -1)">
<path d="M-0.457287 -0.221298 L-0.423932 -0.181958 L0.423932 -0.181958 L0.457287 -0.221298 L0.460526 -0.181958 L0.293296 -0.000393 L0.308824 0.009219 L0.222951 0.265583 L0.166259 0.151783 L0.000000 0.318042 L-0.166259 0.151783 L-0.222951 0.265583 L-0.308824 0.009219 L-0.293296 -0.000393 L-0.460526 -0.181958 z " fill="rgb(245,195,195)" />
<path d="M-0.500000 -0.181958 L0.500000 -0.181958 L0.500000 0.818042 L-0.500000 0.818042  z" fill="none" stroke="rgb(128,128,128)" stroke-width="0.01" />
<line x1="0" y1="-0.181958" x2="0.308824" y2="0.00921888" style="stroke:rgb(246,147,147);stroke-width:0.01" />
<line x1="0" y1="-0.181958" x2="0.222951" y2="0.265583" style="stroke:rgb(246,147,147);stroke-width:0.01" />
<line x1="0.457287" y1="-0.221298" x2="0.460526" y2="-0.181958" style="stroke:rgb(246,147,147);stroke-width:0.01" />
<line x1="-0.308824" y1="0.00921888" x2="-0.222951" y2="0.265583" style="stroke:rgb(246,147,147);stroke-width:0.01" />
<line x1="-0.457287" y1="-0.221298" x2="0" y2="0.318042" style="stroke:rgb(246,147,147);stroke-width:0.01" />
<line x1="-0.460526" y1="-0.181958" x2="0" y2="0.318042" style="stroke:rgb(246,147,147);stroke-width:0.01" />
<line x1="-0.460526" y1="-0.181958" x2="0.460526" y2="-0.181958" style="stroke:rgb(246,147,147);stroke-width:0.01" />
<line x1="-0.308824" y1="0.00921888" x2="0" y2="0.318042" style="stroke:rgb(246,147,147);stroke-width:0.01" />
<line x1="0" y1="-0.181958" x2="0" y2="0.318042" style="stroke:rgb(246,147,147);stroke-width:0.01" />
<line x1="-0.457287" y1="-0.221298" x2="-0.460526" y2="-0.181958" style="stroke:rgb(246,147,147);stroke-width:0.01" />
<line x1="0" y1="-0.181958" x2="-0.222951" y2="0.265583" style="stroke:rgb(246,147,147);stroke-width:0.01" />
<line x1="0" y1="-0.181958" x2="-0.308824" y2="0.00921888" style="stroke:rgb(246,147,147);stroke-width:0.01" />
<line x1="0.308824" y1="0.00921888" x2="0.222951" y2="0.265583" style="stroke:rgb(246,147,147);stroke-width:0.01" />
<line x1="0.457287" y1="-0.221298" x2="0" y2="0.318042" style="stroke:rgb(246,147,147);stroke-width:0.01" />
<line x1="0.460526" y1="-0.181958" x2="0" y2="0.318042" style="stroke:rgb(246,147,147);stroke-width:0.01" />
<line x1="0.308824" y1="0.00921888" x2="0" y2="0.318042" style="stroke:rgb(246,147,147);stroke-width:0.01" />
</g>
</svg>
