<svg xmlns="http://www.w3.org/2000/svg" viewBox="-1.5 -1.5 3 3">
<g transform="scale(1, -1)">
<path d="M-0.211100 -0.287128 L-0.156403 -0.112267 L0.156403 -0.112267 L0.211100 -0.287128 L0.302632 -0.112267 L0.248487 -0.022812 L0.367647 0.020086 L0.385269 0.206430 L0.273642 0.114091 L0.000000 0.387733 L-0.273642 0.114091 L-0.385269 0.206430 L-0.367647 0.020086 L-0.248487 -0.022812 L-0.302632 -0.112267 z " fill="rgb(245,195,195)" />
<path d="M-0.500000 -0.112267 L0.500000 -0.112267 L0.500000 0.887733 L-0.500000 0.887733  z" fill="none" stroke="rgb(128,128,128)" stroke-width="0.01" />
<line x1="0.2111" y1="-0.287128" x2="0.302632" y2="-0.112267" style="stroke:rgb(246,147,147);stroke-width:0.01" />
<line x1="0" y1="-0.112267" x2="0.385269" y2="0.20643" style="stroke:rgb(246,147,147);stroke-width:0.01" />
<line x1="0" y1="-0.112267" x2="0.367647" y2="0.0200859" style="stroke:rgb(246,147,147);stroke-width:0.01" />
<line x1="-0.2111" y1="-0.287128" x2="0" y2="0.387733" style="stroke:rgb(246,147,147);stroke-width:0.01" />
<line x1="-0.302632" y1="-0.112267" x2="0" y2="0.387733" style="stroke:rgb(246,147,147);stroke-width:0.01" />
<line x1="0.367647" y1="0.0200859" x2="0.385269" y2="0.20643" style="stroke:rgb(246,147,147);stroke-width:0.01" />
<line x1="-0.302632" y1="-0.112267" x2="0.302632" y2="-0.112267" style="stroke:rgb(246,147,147);stroke-width:0.01" />
<line x1="-0.367647" y1="0.0200859" x2="0" y2="0.387733" style="stroke:rgb(246,147,147);stroke-width:0.01" />
<line x1="0" y1="-0.112267" x2="0" y2="0.387733" style="stroke:rgb(246,147,147);stroke-width:0.01" />
<line x1="-0.367647" y1="0.0200859" x2="-0.385269" y2="0.20643" style="stroke:rgb(246,147,147);stroke-width:0.01" />
<line x1="-0.2111" y1="-0.287128" x2="-0.302632" y2="-0.112267" style="stroke:rgb(246,147,147);stroke-width:0.01" />
<line x1="0" y1="-0.112267" x2="-0.367647" y2="0.0200859" style="stroke:rgb(246,147,147);stroke-width:0.01" />
<line x1="0.2111" y1="-0.287128" x2="0" y2="0.387733" style="stroke:rgb(246,147,147);stroke-width:0.01" />
<line x1="0" y1="-0.112267" x2="-0.385269" y2="0.20643" style="stroke:rgb(246,147,147);stroke-width:0.01" />
<line x1="0.302632" y1="-0.112267" x2="0" y2="0.387733" style="stroke:rgb(246,147,147);stroke-width:0.01" />
<line x1="0.367647" y1="0.0200859" x2="0" y2="0.387733" style="stroke:rgb(246,147,147);stroke-width:0.01" />
</g>
</svg>
