<svg xmlns="http://www.w3.org/2000/svg" viewBox="-1.5 -1.5 3 3">
<g transform="scale(1, -1)">
<path d="M0.288900 -0.174861 L0.343597 0.000000 L0.656403 0.000000 L0.711100 -0.174861 L0.802632 0.000000 L0.748487 0.089455 L0.867647 0.132353 L0.885269 0.318697 L0.773642 0.226358 L0.500000 0.500000 L0.226358 0.226358 L0.114731 0.318697 L0.132353 0.132353 L0.251513 0.089455 L0.197368 0.000000 z " fill="rgb(245,195,195)" />
<path d="M0.000000 0.000000 L1.000000 0.000000 L1.000000 1.000000 L0.000000 1.000000  z" fill="none" stroke="rgb(128,128,128)" stroke-width="0.01" />
<line x1="0.7111" y1="-0.174861" x2="0.802632" y2="0" style="stroke:rgb(246,147,147);stroke-width:0.01" />
<line x1="0.5" y1="0" x2="0.885269" y2="0.318697" style="stroke:rgb(246,147,147);stroke-width:0.01" />
<line x1="0.5" y1="0" x2="0.867647" y2="0.132353" style="stroke:rgb(246,147,147);stroke-width:0.01" />
<line x1="0.2889" y1="-0.174861" x2="0.5" y2="0.5" style="stroke:rgb(246,147,147);stroke-width:0.01" />
<line x1="0.197368" y1="0" x2="0.5" y2="0.5" style="stroke:rgb(246,147,147);stroke-width:0.01" />
<line x1="0.867647" y1="0.132353" x2="0.885269" y2="0.318697" style="stroke:rgb(246,147,147);stroke-width:0.01" />
<line x1="0.197368" y1="0" x2="0.802632" y2="0" style="stroke:rgb(246,147,147);stroke-width:0.01" />
<line x1="0.132353" y1="0.132353" x2="0.5" y2="0.5" style="stroke:rgb(246,147,147);stroke-width:0.01" />
<line x1="0.5" y1="0" x2="0.5" y2="0.5" style="stroke:rgb(246,147,147);stroke-width:0.01" />
<line x1="0.132353" y1="0.132353" x2="0.114731" y2="0.318697" style="stroke:rgb(246,147,147);stroke-width:0.01" />
<line x1="0.2889" y1="-0.174861" x2="0.197368" y2="0" style="stroke:rgb(246,147,147);stroke-width:0.01" />
<line x1="0.5" y1="0" x2="0.132353" y2="0.132353" style="stroke:rgb(246,147,147);stroke-width:0.01" />
<line x1="0.7111" y1="-0.174861" x2="0.5" y2="0.5" style="stroke:rgb(246,147,147);stroke-width:0.01" />
<line x1="0.5" y1="0" x2="0.114731" y2="0.318697" style="stroke:rgb(246,147,147);stroke-width:0.01" />
<line x1="0.802632" y1="0" x2="0.5" y2="0.5" style="stroke:rgb(246,147,147);stroke-width:0.01" />
<line x1="0.867647" y1="0.132353" x2="0.5" y2="0.5" style="stroke:rgb(246,147,147);stroke-width:0.01" />
</g>
</svg>
