<svg xmlns="http://www.w3.org/2000/svg" viewBox="-1.5 -1.5 3 3">
<g transform="scale(1, -1)">
<path d="M-0.115596 -0.258922 L-0.070201 -0.131189 L0.019524 -0.079699 L0.025000 -0.083856 L0.434970 -0.009458 L0.407331 0.142853 L0.314956 0.185794 L-0.263597 0.208632 L-0.273803 0.148695 L-0.253567 0.097183 L-0.225017 -0.220034 z " fill="rgb(245,195,195)" />
<path d="M-0.911998 -0.130685 L0.088002 -0.130685 L0.088002 0.869315 L-0.911998 0.869315  z" fill="none" stroke="rgb(128,128,128)" stroke-width="0.01" />
<line x1="-0.225017" y1="-0.220034" x2="0.407331" y2="0.142853" style="stroke:rgb(246,147,147);stroke-width:0.01" />
<line x1="-0.108313" y1="0.0282891" x2="0.0204282" y2="0.197421" style="stroke:rgb(246,147,147);stroke-width:0.01" />
<line x1="0.106592" y1="0.0634992" x2="0.327603" y2="0.179916" style="stroke:rgb(246,147,147);stroke-width:0.01" />
<line x1="-0.115596" y1="-0.258922" x2="-0.0476644" y2="-0.0677769" style="stroke:rgb(246,147,147);stroke-width:0.01" />
<line x1="-0.234254" y1="0.054829" x2="-0.148114" y2="0.159883" style="stroke:rgb(246,147,147);stroke-width:0.01" />
<line x1="-0.256507" y1="0.12985" x2="-0.206707" y2="0.184177" style="stroke:rgb(246,147,147);stroke-width:0.01" />
<line x1="-0.27167" y1="0.161225" x2="-0.234603" y2="0.207488" style="stroke:rgb(246,147,147);stroke-width:0.01" />
<line x1="-0.273803" y1="0.148695" x2="-0.223479" y2="0.207048" style="stroke:rgb(246,147,147);stroke-width:0.01" />
<line x1="-0.0252992" y1="0.0591798" x2="-0.00120479" y2="0.198275" style="stroke:rgb(246,147,147);stroke-width:0.01" />
<line x1="-0.211428" y1="-0.0100817" x2="0.314956" y2="0.185794" style="stroke:rgb(246,147,147);stroke-width:0.01" />
<line x1="0.0249995" y1="-0.0838556" x2="0.43497" y2="-0.00945827" style="stroke:rgb(246,147,147);stroke-width:0.01" />
<line x1="-0.273803" y1="0.148695" x2="-0.263597" y2="0.208632" style="stroke:rgb(246,147,147);stroke-width:0.01" />
<line x1="-0.239345" y1="-0.0608404" x2="0.351967" y2="0.0687136" style="stroke:rgb(246,147,147);stroke-width:0.01" />
<line x1="-0.259192" y1="0.159683" x2="-0.206707" y2="0.184177" style="stroke:rgb(246,147,147);stroke-width:0.01" />
<line x1="-0.225017" y1="-0.220034" x2="-0.263597" y2="0.208632" style="stroke:rgb(246,147,147);stroke-width:0.01" />
<line x1="0.0249995" y1="-0.0838556" x2="-0.00120479" y2="0.198275" style="stroke:rgb(246,147,147);stroke-width:0.01" />
<line x1="-0.0476644" y1="-0.0677769" x2="-0.239345" y2="-0.0608404" style="stroke:rgb(246,147,147);stroke-width:0.01" />
<line x1="-0.115596" y1="-0.258922" x2="-0.225017" y2="-0.220034" style="stroke:rgb(246,147,147);stroke-width:0.01" />
<line x1="-0.211428" y1="-0.0100817" x2="-0.27167" y2="0.161225" style="stroke:rgb(246,147,147);stroke-width:0.01" />
<line x1="0.43497" y1="-0.00945827" x2="0.407331" y2="0.142853" style="stroke:rgb(246,147,147);stroke-width:0.01" />
<line x1="-0.211428" y1="-0.0100817" x2="-0.273803" y2="0.148695" style="stroke:rgb(246,147,147);stroke-width:0.01" />
<line x1="0.351967" y1="0.0687136" x2="0.327603" y2="0.179916" style="stroke:rgb(246,147,147);stroke-width:0.01" />
<line x1="-0.108313" y1="0.0282891" x2="-0.234254" y2="0.054829" style="stroke:rgb(246,147,147);stroke-width:0.01" />
<line x1="0.314956" y1="0.185794" x2="-0.263597" y2="0.208632" style="stroke:rgb(246,147,147);stroke-width:0.01" />
<line x1="-0.0476644" y1="-0.0677769" x2="-0.234603" y2="0.207488" style="stroke:rgb(246,147,147);stroke-width:0.01" />
<line x1="0.106592" y1="0.0634992" x2="-0.259192" y2="0.159683" style="stroke:rgb(246,147,147);stroke-width:0.01" />
<line x1="-0.206707" y1="0.184177" x2="-0.223479" y2="0.207048" style="stroke:rgb(246,147,147);stroke-width:0.01" />
<line x1="0.0249995" y1="-0.0838556" x2="-0.256507" y2="0.12985" style="stroke:rgb(246,147,147);stroke-width:0.01" />
<line x1="0.106592" y1="0.0634992" x2="0.0204282" y2="0.197421" style="stroke:rgb(246,147,147);stroke-width:0.01" />
<line x1="-0.0252992" y1="0.0591798" x2="-0.148114" y2="0.159883" style="stroke:rgb(246,147,147);stroke-width:0.01" />
<line x1="0.407331" y1="0.142853" x2="0.314956" y2="0.185794" style="stroke:rgb(246,147,147);stroke-width:0.01" />
</g>
</svg>
