<svg xmlns="http://www.w3.org/2000/svg" viewBox="-1 -1 3 3">
<path d="M0.796402 -0.128236 L0.841797 -0.000504 L0.931522 0.050987 L0.936997 0.046830 L1.346968 0.121227 L1.319328 0.273538 L1.226954 0.316480 L0.648401 0.339318 L0.638195 0.279381 L0.658431 0.227868 L0.686981 -0.089349 z " fill="rgb(245,195,195)" />
<path d="M0 0 L0 1 L1 1 L1 0 z" fill="none" stroke="rgb(128,128,128)" stroke-width="0.01" />
<line x1="0.686981" y1="-0.0893488" x2="1.31933" y2="0.273538" style="stroke:rgb(246,147,147);stroke-width:0.01" />
<line x1="0.803685" y1="0.158975" x2="0.932426" y2="0.328106" style="stroke:rgb(246,147,147);stroke-width:0.01" />
<line x1="1.01859" y1="0.194185" x2="1.2396" y2="0.310601" style="stroke:rgb(246,147,147);stroke-width:0.01" />
<line x1="0.796402" y1="-0.128236" x2="0.864333" y2="0.0629085" style="stroke:rgb(246,147,147);stroke-width:0.01" />
<line x1="0.677743" y1="0.185514" x2="0.763884" y2="0.290569" style="stroke:rgb(246,147,147);stroke-width:0.01" />
<line x1="0.655491" y1="0.260536" x2="0.705291" y2="0.314863" style="stroke:rgb(246,147,147);stroke-width:0.01" />
<line x1="0.640328" y1="0.29191" x2="0.677395" y2="0.338173" style="stroke:rgb(246,147,147);stroke-width:0.01" />
<line x1="0.638195" y1="0.279381" x2="0.688519" y2="0.337734" style="stroke:rgb(246,147,147);stroke-width:0.01" />
<line x1="0.886699" y1="0.189865" x2="0.910793" y2="0.32896" style="stroke:rgb(246,147,147);stroke-width:0.01" />
<line x1="0.70057" y1="0.120604" x2="1.22695" y2="0.31648" style="stroke:rgb(246,147,147);stroke-width:0.01" />
<line x1="0.936997" y1="0.0468298" x2="1.34697" y2="0.121227" style="stroke:rgb(246,147,147);stroke-width:0.01" />
<line x1="0.638195" y1="0.279381" x2="0.648401" y2="0.339318" style="stroke:rgb(246,147,147);stroke-width:0.01" />
<line x1="0.672653" y1="0.069845" x2="1.26396" y2="0.199399" style="stroke:rgb(246,147,147);stroke-width:0.01" />
<line x1="0.652806" y1="0.290369" x2="0.705291" y2="0.314863" style="stroke:rgb(246,147,147);stroke-width:0.01" />
<line x1="0.686981" y1="-0.0893488" x2="0.648401" y2="0.339318" style="stroke:rgb(246,147,147);stroke-width:0.01" />
<line x1="0.936997" y1="0.0468298" x2="0.910793" y2="0.32896" style="stroke:rgb(246,147,147);stroke-width:0.01" />
<line x1="0.864333" y1="0.0629085" x2="0.672653" y2="0.069845" style="stroke:rgb(246,147,147);stroke-width:0.01" />
<line x1="0.796402" y1="-0.128236" x2="0.686981" y2="-0.0893488" style="stroke:rgb(246,147,147);stroke-width:0.01" />
<line x1="0.70057" y1="0.120604" x2="0.640328" y2="0.29191" style="stroke:rgb(246,147,147);stroke-width:0.01" />
<line x1="1.34697" y1="0.121227" x2="1.31933" y2="0.273538" style="stroke:rgb(246,147,147);stroke-width:0.01" />
<line x1="0.70057" y1="0.120604" x2="0.638195" y2="0.279381" style="stroke:rgb(246,147,147);stroke-width:0.01" />
<line x1="1.26396" y1="0.199399" x2="1.2396" y2="0.310601" style="stroke:rgb(246,147,147);stroke-width:0.01" />
<line x1="0.803685" y1="0.158975" x2="0.677743" y2="0.185514" style="stroke:rgb(246,147,147);stroke-width:0.01" />
<line x1="1.22695" y1="0.31648" x2="0.648401" y2="0.339318" style="stroke:rgb(246,147,147);stroke-width:0.01" />
<line x1="0.864333" y1="0.0629085" x2="0.677395" y2="0.338173" style="stroke:rgb(246,147,147);stroke-width:0.01" />
<line x1="1.01859" y1="0.194185" x2="0.652806" y2="0.290369" style="stroke:rgb(246,147,147);stroke-width:0.01" />
<line x1="0.705291" y1="0.314863" x2="0.688519" y2="0.337734" style="stroke:rgb(246,147,147);stroke-width:0.01" />
<line x1="0.936997" y1="0.0468298" x2="0.655491" y2="0.260536" style="stroke:rgb(246,147,147);stroke-width:0.01" />
<line x1="1.01859" y1="0.194185" x2="0.932426" y2="0.328106" style="stroke:rgb(246,147,147);stroke-width:0.01" />
<line x1="0.886699" y1="0.189865" x2="0.763884" y2="0.290569" style="stroke:rgb(246,147,147);stroke-width:0.01" />
<line x1="1.31933" y1="0.273538" x2="1.22695" y2="0.31648" style="stroke:rgb(246,147,147);stroke-width:0.01" />
</svg>
