<svg xmlns="http://www.w3.org/2000/svg" viewBox="-1.5 -1.5 3 3">
<g transform="scale(1, -1)">
<path d="M-0.307639 -0.255687 L-0.241597 -0.119010 L0.241597 -0.119010 L0.307639 -0.255687 L0.355263 -0.119010 L0.282900 -0.017166 L0.367647 0.013343 L0.385269 0.199687 L0.273642 0.107348 L0.000000 0.380990 L-0.273642 0.107348 L-0.385269 0.199687 L-0.367647 0.013343 L-0.282900 -0.017166 L-0.355263 -0.119010 z " fill="rgb(245,195,195)" />
<path d="M-0.500000 -0.119010 L0.500000 -0.119010 L0.500000 0.880990 L-0.500000 0.880990  z" fill="none" stroke="rgb(128,128,128)" stroke-width="0.01" />
<line x1="0.307639" y1="-0.255687" x2="0.355263" y2="-0.11901" style="stroke:rgb(246,147,147);stroke-width:0.01" />
<line x1="0" y1="-0.11901" x2="0.385269" y2="0.199687" style="stroke:rgb(246,147,147);stroke-width:0.01" />
<line x1="0" y1="-0.11901" x2="0.367647" y2="0.013343" style="stroke:rgb(246,147,147);stroke-width:0.01" />
<line x1="-0.307639" y1="-0.255687" x2="0" y2="0.38099" style="stroke:rgb(246,147,147);stroke-width:0.01" />
<line x1="0.367647" y1="0.013343" x2="0.385269" y2="0.199687" style="stroke:rgb(246,147,147);stroke-width:0.01" />
<line x1="-0.355263" y1="-0.11901" x2="0" y2="0.38099" style="stroke:rgb(246,147,147);stroke-width:0.01" />
<line x1="-0.355263" y1="-0.11901" x2="0.355263" y2="-0.11901" style="stroke:rgb(246,147,147);stroke-width:0.01" />
<line x1="-0.367647" y1="0.013343" x2="0" y2="0.38099" style="stroke:rgb(246,147,147);stroke-width:0.01" />
<line x1="0" y1="-0.11901" x2="0" y2="0.38099" style="stroke:rgb(246,147,147);stroke-width:0.01" />
<line x1="-0.367647" y1="0.013343" x2="-0.385269" y2="0.199687" style="stroke:rgb(246,147,147);stroke-width:0.01" />
<line x1="-0.307639" y1="-0.255687" x2="-0.355263" y2="-0.11901" style="stroke:rgb(246,147,147);stroke-width:0.01" />
<line x1="0" y1="-0.11901" x2="-0.367647" y2="0.013343" style="stroke:rgb(246,147,147);stroke-width:0.01" />
<line x1="0" y1="-0.11901" x2="-0.385269" y2="0.199687" style="stroke:rgb(246,147,147);stroke-width:0.01" />
<line x1="0.307639" y1="-0.255687" x2="0" y2="0.38099" style="stroke:rgb(246,147,147);stroke-width:0.01" />
<line x1="0.355263" y1="-0.11901" x2="0" y2="0.38099" style="stroke:rgb(246,147,147);stroke-width:0.01" />
<line x1="0.367647" y1="0.013343" x2="0" y2="0.38099" style="stroke:rgb(246,147,147);stroke-width:0.01" />
</g>
</svg>
