<svg xmlns="http://www.w3.org/2000/svg" viewBox="-1.5 -1.5 3 3">
<g transform="scale(1, -1)">
<path d="M-0.211100 -0.240788 L-0.156403 -0.065927 L0.156403 -0.065927 L0.211100 -0.240788 L0.302632 -0.065927 L0.274035 -0.018680 L0.426471 0.007602 L0.471132 0.101509 L0.368897 0.065176 L0.000000 0.434073 L-0.368897 0.065176 L-0.471132 0.101509 L-0.426471 0.007602 L-0.274035 -0.018680 L-0.302632 -0.065927 z " fill="rgb(245,195,195)" />
<path d="M-0.500000 -0.065927 L0.500000 -0.065927 L0.500000 0.934073 L-0.500000 0.934073  z" fill="none" stroke="rgb(128,128,128)" stroke-width="0.01" />
<line x1="0.426471" y1="0.00760199" x2="0.471132" y2="0.101509" style="stroke:rgb(246,147,147);stroke-width:0.01" />
<line x1="0.2111" y1="-0.240788" x2="0.302632" y2="-0.0659274" style="stroke:rgb(246,147,147);stroke-width:0.01" />
<line x1="0" y1="-0.0659274" x2="0.471132" y2="0.101509" style="stroke:rgb(246,147,147);stroke-width:0.01" />
<line x1="-0.2111" y1="-0.240788" x2="0" y2="0.434073" style="stroke:rgb(246,147,147);stroke-width:0.01" />
<line x1="-0.302632" y1="-0.0659274" x2="0" y2="0.434073" style="stroke:rgb(246,147,147);stroke-width:0.01" />
<line x1="0" y1="-0.0659274" x2="0.426471" y2="0.00760199" style="stroke:rgb(246,147,147);stroke-width:0.01" />
<line x1="-0.302632" y1="-0.0659274" x2="0.302632" y2="-0.0659274" style="stroke:rgb(246,147,147);stroke-width:0.01" />
<line x1="-0.426471" y1="0.00760199" x2="0" y2="0.434073" style="stroke:rgb(246,147,147);stroke-width:0.01" />
<line x1="0" y1="-0.0659274" x2="0" y2="0.434073" style="stroke:rgb(246,147,147);stroke-width:0.01" />
<line x1="-0.426471" y1="0.00760199" x2="-0.471132" y2="0.101509" style="stroke:rgb(246,147,147);stroke-width:0.01" />
<line x1="-0.2111" y1="-0.240788" x2="-0.302632" y2="-0.0659274" style="stroke:rgb(246,147,147);stroke-width:0.01" />
<line x1="0" y1="-0.0659274" x2="-0.426471" y2="0.00760199" style="stroke:rgb(246,147,147);stroke-width:0.01" />
<line x1="0" y1="-0.0659274" x2="-0.471132" y2="0.101509" style="stroke:rgb(246,147,147);stroke-width:0.01" />
<line x1="0.2111" y1="-0.240788" x2="0" y2="0.434073" style="stroke:rgb(246,147,147);stroke-width:0.01" />
<line x1="0.302632" y1="-0.0659274" x2="0" y2="0.434073" style="stroke:rgb(246,147,147);stroke-width:0.01" />
<line x1="0.426471" y1="0.00760199" x2="0" y2="0.434073" style="stroke:rgb(246,147,147);stroke-width:0.01" />
</g>
</svg>
