<svg xmlns="http://www.w3.org/2000/svg" viewBox="-1.5 -1.5 3 3">
<g transform="scale(1, -1)">
<path d="M-0.307639 -0.208672 L-0.241597 -0.071995 L0.241597 -0.071995 L0.307639 -0.208672 L0.355263 -0.071995 L0.316492 -0.017427 L0.426471 0.001535 L0.471132 0.095442 L0.368897 0.059109 L0.000000 0.428005 L-0.368897 0.059109 L-0.471132 0.095442 L-0.426471 0.001535 L-0.316492 -0.017427 L-0.355263 -0.071995 z " fill="rgb(245,195,195)" />
<path d="M-0.500000 -0.071995 L0.500000 -0.071995 L0.500000 0.928005 L-0.500000 0.928005  z" fill="none" stroke="rgb(128,128,128)" stroke-width="0.01" />
<line x1="0.426471" y1="0.00153487" x2="0.471132" y2="0.0954419" style="stroke:rgb(246,147,147);stroke-width:0.01" />
<line x1="0.307639" y1="-0.208672" x2="0.355263" y2="-0.0719945" style="stroke:rgb(246,147,147);stroke-width:0.01" />
<line x1="0" y1="-0.0719945" x2="0.471132" y2="0.0954419" style="stroke:rgb(246,147,147);stroke-width:0.01" />
<line x1="-0.307639" y1="-0.208672" x2="0" y2="0.428005" style="stroke:rgb(246,147,147);stroke-width:0.01" />
<line x1="0" y1="-0.0719945" x2="0.426471" y2="0.00153487" style="stroke:rgb(246,147,147);stroke-width:0.01" />
<line x1="-0.355263" y1="-0.0719945" x2="0" y2="0.428005" style="stroke:rgb(246,147,147);stroke-width:0.01" />
<line x1="-0.355263" y1="-0.0719945" x2="0.355263" y2="-0.0719945" style="stroke:rgb(246,147,147);stroke-width:0.01" />
<line x1="-0.426471" y1="0.00153487" x2="0" y2="0.428005" style="stroke:rgb(246,147,147);stroke-width:0.01" />
<line x1="0" y1="-0.0719945" x2="0" y2="0.428005" style="stroke:rgb(246,147,147);stroke-width:0.01" />
<line x1="-0.426471" y1="0.00153487" x2="-0.471132" y2="0.0954419" style="stroke:rgb(246,147,147);stroke-width:0.01" />
<line x1="-0.307639" y1="-0.208672" x2="-0.355263" y2="-0.0719945" style="stroke:rgb(246,147,147);stroke-width:0.01" />
<line x1="0" y1="-0.0719945" x2="-0.426471" y2="0.00153487" style="stroke:rgb(246,147,147);stroke-width:0.01" />
<line x1="0" y1="-0.0719945" x2="-0.471132" y2="0.0954419" style="stroke:rgb(246,147,147);stroke-width:0.01" />
<line x1="0.307639" y1="-0.208672" x2="0" y2="0.428005" style="stroke:rgb(246,147,147);stroke-width:0.01" />
<line x1="0.355263" y1="-0.0719945" x2="0" y2="0.428005" style="stroke:rgb(246,147,147);stroke-width:0.01" />
<line x1="0.426471" y1="0.00153487" x2="0" y2="0.428005" style="stroke:rgb(246,147,147);stroke-width:0.01" />
</g>
</svg>
