<svg xmlns="http://www.w3.org/2000/svg" viewBox="-1.5 -1.5 3 3">
<g transform="scale(1, -1)">
<path d="M0.110603 -0.090229 L0.170130 0.000000 L0.829870 0.000000 L0.889397 -0.090229 L0.907895 0.000000 L0.857597 0.061655 L0.926471 0.073529 L0.971132 0.167436 L0.868897 0.131103 L0.500000 0.500000 L0.131103 0.131103 L0.028868 0.167436 L0.073529 0.073529 L0.142403 0.061655 L0.092105 0.000000 z " fill="rgb(245,195,195)" />
<path d="M0.000000 0.000000 L1.000000 0.000000 L1.000000 1.000000 L0.000000 1.000000  z" fill="none" stroke="rgb(128,128,128)" stroke-width="0.01" />
<line x1="0.926471" y1="0.0735294" x2="0.971132" y2="0.167436" style="stroke:rgb(246,147,147);stroke-width:0.01" />
<line x1="0.889397" y1="-0.0902287" x2="0.907895" y2="0" style="stroke:rgb(246,147,147);stroke-width:0.01" />
<line x1="0.5" y1="0" x2="0.971132" y2="0.167436" style="stroke:rgb(246,147,147);stroke-width:0.01" />
<line x1="0.5" y1="0" x2="0.926471" y2="0.0735294" style="stroke:rgb(246,147,147);stroke-width:0.01" />
<line x1="0.110603" y1="-0.0902287" x2="0.5" y2="0.5" style="stroke:rgb(246,147,147);stroke-width:0.01" />
<line x1="0.0921053" y1="0" x2="0.5" y2="0.5" style="stroke:rgb(246,147,147);stroke-width:0.01" />
<line x1="0.0921053" y1="0" x2="0.907895" y2="0" style="stroke:rgb(246,147,147);stroke-width:0.01" />
<line x1="0.0735294" y1="0.0735294" x2="0.5" y2="0.5" style="stroke:rgb(246,147,147);stroke-width:0.01" />
<line x1="0.5" y1="0" x2="0.5" y2="0.5" style="stroke:rgb(246,147,147);stroke-width:0.01" />
<line x1="0.110603" y1="-0.0902287" x2="0.0921053" y2="0" style="stroke:rgb(246,147,147);stroke-width:0.01" />
<line x1="0.0735294" y1="0.0735294" x2="0.0288684" y2="0.167436" style="stroke:rgb(246,147,147);stroke-width:0.01" />
<line x1="0.5" y1="0" x2="0.0735294" y2="0.0735294" style="stroke:rgb(246,147,147);stroke-width:0.01" />
<line x1="0.5" y1="0" x2="0.0288684" y2="0.167436" style="stroke:rgb(246,147,147);stroke-width:0.01" />
<line x1="0.889397" y1="-0.0902287" x2="0.5" y2="0.5" style="stroke:rgb(246,147,147);stroke-width:0.01" />
<line x1="0.907895" y1="0" x2="0.5" y2="0.5" style="stroke:rgb(246,147,147);stroke-width:0.01" />
<line x1="0.926471" y1="0.0735294" x2="0.5" y2="0.5" style="stroke:rgb(246,147,147);stroke-width:0.01" />
</g>
</svg>
