<svg xmlns="http://www.w3.org/2000/svg" viewBox="-1.5 -1.5 3 3">
<g transform="scale(1, -1)">
<path d="M0.288900 -0.174861 L0.343597 0.000000 L0.656403 0.000000 L0.711100 -0.174861 L0.802632 0.000000 L0.797181 0.009005 L0.985294 0.014706 L0.999083 0.030275 L0.971404 0.028596 L0.500000 0.500000 L0.028596 0.028596 L0.000917 0.030275 L0.014706 0.014706 L0.202819 0.009005 L0.197368 0.000000 z " fill="rgb(245,195,195)" />
<path d="M0.000000 0.000000 L1.000000 0.000000 L1.000000 1.000000 L0.000000 1.000000  z" fill="none" stroke="rgb(128,128,128)" stroke-width="0.01" />
<line x1="0.985294" y1="0.0147059" x2="0.999083" y2="0.0302752" style="stroke:rgb(246,147,147);stroke-width:0.01" />
<line x1="0.7111" y1="-0.174861" x2="0.802632" y2="0" style="stroke:rgb(246,147,147);stroke-width:0.01" />
<line x1="0.2889" y1="-0.174861" x2="0.5" y2="0.5" style="stroke:rgb(246,147,147);stroke-width:0.01" />
<line x1="0.197368" y1="0" x2="0.5" y2="0.5" style="stroke:rgb(246,147,147);stroke-width:0.01" />
<line x1="0.5" y1="0" x2="0.999083" y2="0.0302752" style="stroke:rgb(246,147,147);stroke-width:0.01" />
<line x1="0.5" y1="0" x2="0.985294" y2="0.0147059" style="stroke:rgb(246,147,147);stroke-width:0.01" />
<line x1="0.197368" y1="0" x2="0.802632" y2="0" style="stroke:rgb(246,147,147);stroke-width:0.01" />
<line x1="0.0147059" y1="0.0147059" x2="0.5" y2="0.5" style="stroke:rgb(246,147,147);stroke-width:0.01" />
<line x1="0.5" y1="0" x2="0.5" y2="0.5" style="stroke:rgb(246,147,147);stroke-width:0.01" />
<line x1="0.0147059" y1="0.0147059" x2="0.000917431" y2="0.0302752" style="stroke:rgb(246,147,147);stroke-width:0.01" />
<line x1="0.5" y1="0" x2="0.0147059" y2="0.0147059" style="stroke:rgb(246,147,147);stroke-width:0.01" />
<line x1="0.5" y1="0" x2="0.000917431" y2="0.0302752" style="stroke:rgb(246,147,147);stroke-width:0.01" />
<line x1="0.2889" y1="-0.174861" x2="0.197368" y2="0" style="stroke:rgb(246,147,147);stroke-width:0.01" />
<line x1="0.7111" y1="-0.174861" x2="0.5" y2="0.5" style="stroke:rgb(246,147,147);stroke-width:0.01" />
<line x1="0.802632" y1="0" x2="0.5" y2="0.5" style="stroke:rgb(246,147,147);stroke-width:0.01" />
<line x1="0.985294" y1="0.0147059" x2="0.5" y2="0.5" style="stroke:rgb(246,147,147);stroke-width:0.01" />
</g>
</svg>
