<svg xmlns="http://www.w3.org/2000/svg" viewBox="-1.5 -1.5 3 3">
<g transform="scale(1, -1)">
<path d="M-0.307639 -0.163003 L-0.241597 -0.026325 L0.241597 -0.026325 L0.307639 -0.163003 L0.355263 -0.026325 L0.347775 -0.015786 L0.485294 -0.011619 L0.499083 0.003950 L0.471404 0.002271 L0.000000 0.473675 L-0.471404 0.002271 L-0.499083 0.003950 L-0.485294 -0.011619 L-0.347775 -0.015786 L-0.355263 -0.026325 z " fill="rgb(245,195,195)" />
<path d="M-0.500000 -0.026325 L0.500000 -0.026325 L0.500000 0.973675 L-0.500000 0.973675  z" fill="none" stroke="rgb(128,128,128)" stroke-width="0.01" />
<line x1="0.485294" y1="-0.0116193" x2="0.499083" y2="0.00395009" style="stroke:rgb(246,147,147);stroke-width:0.01" />
<line x1="0.307639" y1="-0.163003" x2="0.355263" y2="-0.0263251" style="stroke:rgb(246,147,147);stroke-width:0.01" />
<line x1="-0.307639" y1="-0.163003" x2="0" y2="0.473675" style="stroke:rgb(246,147,147);stroke-width:0.01" />
<line x1="-0.355263" y1="-0.0263251" x2="0" y2="0.473675" style="stroke:rgb(246,147,147);stroke-width:0.01" />
<line x1="0" y1="-0.0263251" x2="0.499083" y2="0.00395009" style="stroke:rgb(246,147,147);stroke-width:0.01" />
<line x1="0" y1="-0.0263251" x2="0.485294" y2="-0.0116193" style="stroke:rgb(246,147,147);stroke-width:0.01" />
<line x1="-0.355263" y1="-0.0263251" x2="0.355263" y2="-0.0263251" style="stroke:rgb(246,147,147);stroke-width:0.01" />
<line x1="-0.485294" y1="-0.0116193" x2="0" y2="0.473675" style="stroke:rgb(246,147,147);stroke-width:0.01" />
<line x1="0" y1="-0.0263251" x2="0" y2="0.473675" style="stroke:rgb(246,147,147);stroke-width:0.01" />
<line x1="-0.485294" y1="-0.0116193" x2="-0.499083" y2="0.00395009" style="stroke:rgb(246,147,147);stroke-width:0.01" />
<line x1="0" y1="-0.0263251" x2="-0.485294" y2="-0.0116193" style="stroke:rgb(246,147,147);stroke-width:0.01" />
<line x1="0" y1="-0.0263251" x2="-0.499083" y2="0.00395009" style="stroke:rgb(246,147,147);stroke-width:0.01" />
<line x1="-0.307639" y1="-0.163003" x2="-0.355263" y2="-0.0263251" style="stroke:rgb(246,147,147);stroke-width:0.01" />
<line x1="0.307639" y1="-0.163003" x2="0" y2="0.473675" style="stroke:rgb(246,147,147);stroke-width:0.01" />
<line x1="0.355263" y1="-0.0263251" x2="0" y2="0.473675" style="stroke:rgb(246,147,147);stroke-width:0.01" />
<line x1="0.485294" y1="-0.0116193" x2="0" y2="0.473675" style="stroke:rgb(246,147,147);stroke-width:0.01" />
</g>
</svg>
