<svg xmlns="http://www.w3.org/2000/svg" viewBox="-1.5 -1.5 3 3">
<g transform="scale(1, -1)">
<path d="M0.192361 -0.136677 L0.258403 0.000000 L0.741597 0.000000 L0.807639 -0.136677 L0.855263 0.000000 L0.847775 0.010539 L0.985294 0.014706 L0.999083 0.030275 L0.971404 0.028596 L0.500000 0.500000 L0.028596 0.028596 L0.000917 0.030275 L0.014706 0.014706 L0.152225 0.010539 L0.144737 0.000000 z " fill="rgb(245,195,195)" />
<path d="M0.000000 0.000000 L1.000000 0.000000 L1.000000 1.000000 L0.000000 1.000000  z" fill="none" stroke="rgb(128,128,128)" stroke-width="0.01" />
<line x1="0.985294" y1="0.0147059" x2="0.999083" y2="0.0302752" style="stroke:rgb(246,147,147);stroke-width:0.01" />
<line x1="0.807639" y1="-0.136677" x2="0.855263" y2="0" style="stroke:rgb(246,147,147);stroke-width:0.01" />
<line x1="0.192361" y1="-0.136677" x2="0.5" y2="0.5" style="stroke:rgb(246,147,147);stroke-width:0.01" />
<line x1="0.144737" y1="0" x2="0.5" y2="0.5" style="stroke:rgb(246,147,147);stroke-width:0.01" />
<line x1="0.5" y1="0" x2="0.999083" y2="0.0302752" style="stroke:rgb(246,147,147);stroke-width:0.01" />
<line x1="0.5" y1="0" x2="0.985294" y2="0.0147059" style="stroke:rgb(246,147,147);stroke-width:0.01" />
<line x1="0.144737" y1="0" x2="0.855263" y2="0" style="stroke:rgb(246,147,147);stroke-width:0.01" />
<line x1="0.0147059" y1="0.0147059" x2="0.5" y2="0.5" style="stroke:rgb(246,147,147);stroke-width:0.01" />
<line x1="0.5" y1="0" x2="0.5" y2="0.5" style="stroke:rgb(246,147,147);stroke-width:0.01" />
<line x1="0.0147059" y1="0.0147059" x2="0.000917431" y2="0.0302752" style="stroke:rgb(246,147,147);stroke-width:0.01" />
<line x1="0.5" y1="0" x2="0.0147059" y2="0.0147059" style="stroke:rgb(246,147,147);stroke-width:0.01" />
<line x1="0.5" y1="0" x2="0.000917431" y2="0.0302752" style="stroke:rgb(246,147,147);stroke-width:0.01" />
<line x1="0.192361" y1="-0.136677" x2="0.144737" y2="0" style="stroke:rgb(246,147,147);stroke-width:0.01" />
<line x1="0.807639" y1="-0.136677" x2="0.5" y2="0.5" style="stroke:rgb(246,147,147);stroke-width:0.01" />
<line x1="0.855263" y1="0" x2="0.5" y2="0.5" style="stroke:rgb(246,147,147);stroke-width:0.01" />
<line x1="0.985294" y1="0.0147059" x2="0.5" y2="0.5" style="stroke:rgb(246,147,147);stroke-width:0.01" />
</g>
</svg>
