<svg xmlns="http://www.w3.org/2000/svg" viewBox="-1.5 -1.5 3 3">
<g transform="scale(1, -1)">
<path d="M-0.389397 -0.122950 L-0.329870 -0.032721 L0.329870 -0.032721 L0.389397 -0.122950 L0.407895 -0.032721 L0.398054 -0.020659 L0.485294 -0.018016 L0.499083 -0.002446 L0.471404 -0.004125 L0.000000 0.467279 L-0.471404 -0.004125 L-0.499083 -0.002446 L-0.485294 -0.018016 L-0.398054 -0.020659 L-0.407895 -0.032721 z " fill="rgb(245,195,195)" />
<path d="M-0.500000 -0.032721 L0.500000 -0.032721 L0.500000 0.967279 L-0.500000 0.967279  z" fill="none" stroke="rgb(128,128,128)" stroke-width="0.01" />
<line x1="0.485294" y1="-0.0180156" x2="0.499083" y2="-0.00244622" style="stroke:rgb(246,147,147);stroke-width:0.01" />
<line x1="0.389397" y1="-0.12295" x2="0.407895" y2="-0.0327214" style="stroke:rgb(246,147,147);stroke-width:0.01" />
<line x1="-0.389397" y1="-0.12295" x2="0" y2="0.467279" style="stroke:rgb(246,147,147);stroke-width:0.01" />
<line x1="-0.407895" y1="-0.0327214" x2="0" y2="0.467279" style="stroke:rgb(246,147,147);stroke-width:0.01" />
<line x1="0" y1="-0.0327214" x2="0.499083" y2="-0.00244622" style="stroke:rgb(246,147,147);stroke-width:0.01" />
<line x1="0" y1="-0.0327214" x2="0.485294" y2="-0.0180156" style="stroke:rgb(246,147,147);stroke-width:0.01" />
<line x1="-0.407895" y1="-0.0327214" x2="0.407895" y2="-0.0327214" style="stroke:rgb(246,147,147);stroke-width:0.01" />
<line x1="-0.485294" y1="-0.0180156" x2="0" y2="0.467279" style="stroke:rgb(246,147,147);stroke-width:0.01" />
<line x1="0" y1="-0.0327214" x2="0" y2="0.467279" style="stroke:rgb(246,147,147);stroke-width:0.01" />
<line x1="-0.485294" y1="-0.0180156" x2="-0.499083" y2="-0.00244622" style="stroke:rgb(246,147,147);stroke-width:0.01" />
<line x1="0" y1="-0.0327214" x2="-0.485294" y2="-0.0180156" style="stroke:rgb(246,147,147);stroke-width:0.01" />
<line x1="-0.389397" y1="-0.12295" x2="-0.407895" y2="-0.0327214" style="stroke:rgb(246,147,147);stroke-width:0.01" />
<line x1="0" y1="-0.0327214" x2="-0.499083" y2="-0.00244622" style="stroke:rgb(246,147,147);stroke-width:0.01" />
<line x1="0.389397" y1="-0.12295" x2="0" y2="0.467279" style="stroke:rgb(246,147,147);stroke-width:0.01" />
<line x1="0.407895" y1="-0.0327214" x2="0" y2="0.467279" style="stroke:rgb(246,147,147);stroke-width:0.01" />
<line x1="0.485294" y1="-0.0180156" x2="0" y2="0.467279" style="stroke:rgb(246,147,147);stroke-width:0.01" />
</g>
</svg>
