<svg xmlns="http://www.w3.org/2000/svg" viewBox="-1.5 -1.5 3 3">
<path d="M0.081281 -0.259827 L0.092923 -0.249200 L0.086439 -0.222646 L0.102272 -0.108510 L0.057037 -0.102235 L-0.002098 0.139947 L0.115718 0.255007 L0.085236 0.286220 L-0.296026 0.308452 L-0.322784 -0.047209 z " fill="rgb(245,195,195)" />
<path d="M-0.966134 -0.818434 L0.033866 -0.818434 L0.033866 0.181566 L-0.966134 0.181566  z" fill="none" stroke="rgb(128,128,128)" stroke-width="0.01" />
<line x1="0.0812813" y1="-0.259827" x2="0.092923" y2="-0.2492" style="stroke:rgb(246,147,147);stroke-width:0.01" />
<line x1="0.0812813" y1="-0.259827" x2="0.102272" y2="-0.10851" style="stroke:rgb(246,147,147);stroke-width:0.01" />
<line x1="-0.187086" y1="-9.16246e-05" x2="-0.157871" y2="0.159289" style="stroke:rgb(246,147,147);stroke-width:0.01" />
<line x1="-0.30385" y1="0.20445" x2="-0.302687" y2="0.210585" style="stroke:rgb(246,147,147);stroke-width:0.01" />
<line x1="-0.322784" y1="-0.047209" x2="-0.296026" y2="0.308452" style="stroke:rgb(246,147,147);stroke-width:0.01" />
<line x1="-0.0872045" y1="-0.169489" x2="0.0489746" y2="-0.0692148" style="stroke:rgb(246,147,147);stroke-width:0.01" />
<line x1="-0.0100232" y1="0.132208" x2="0.115718" y2="0.255007" style="stroke:rgb(246,147,147);stroke-width:0.01" />
<line x1="-0.293899" y1="-0.0624083" x2="-0.30385" y2="0.20445" style="stroke:rgb(246,147,147);stroke-width:0.01" />
<line x1="-0.217669" y1="-0.0107107" x2="-0.18425" y2="0.0153796" style="stroke:rgb(246,147,147);stroke-width:0.01" />
<line x1="-0.309292" y1="0.132121" x2="-0.142107" y2="0.299477" style="stroke:rgb(246,147,147);stroke-width:0.01" />
<line x1="-0.322545" y1="-0.0440378" x2="0.0852363" y2="0.28622" style="stroke:rgb(246,147,147);stroke-width:0.01" />
<line x1="-0.293899" y1="-0.0624083" x2="0.00159699" y2="0.124814" style="stroke:rgb(246,147,147);stroke-width:0.01" />
<line x1="0.092923" y1="-0.2492" x2="-0.0374212" y2="0.284609" style="stroke:rgb(246,147,147);stroke-width:0.01" />
<line x1="-0.302687" y1="0.210585" x2="-0.235703" y2="0.261561" style="stroke:rgb(246,147,147);stroke-width:0.01" />
<line x1="-0.314603" y1="0.0615275" x2="-0.157871" y2="0.159289" style="stroke:rgb(246,147,147);stroke-width:0.01" />
<line x1="-0.311041" y1="0.10887" x2="-0.0374212" y2="0.284609" style="stroke:rgb(246,147,147);stroke-width:0.01" />
<line x1="-0.322784" y1="-0.047209" x2="-0.187086" y2="-9.16246e-05" style="stroke:rgb(246,147,147);stroke-width:0.01" />
<line x1="-0.18425" y1="0.0153796" x2="-0.302687" y2="0.210585" style="stroke:rgb(246,147,147);stroke-width:0.01" />
<line x1="-0.0872045" y1="-0.169489" x2="-0.309292" y2="0.132121" style="stroke:rgb(246,147,147);stroke-width:0.01" />
<line x1="-0.316754" y1="-0.0503819" x2="-0.322545" y2="-0.0440378" style="stroke:rgb(246,147,147);stroke-width:0.01" />
<line x1="-0.157871" y1="0.159289" x2="-0.235703" y2="0.261561" style="stroke:rgb(246,147,147);stroke-width:0.01" />
<line x1="0.092923" y1="-0.2492" x2="0.028297" y2="-0.231947" style="stroke:rgb(246,147,147);stroke-width:0.01" />
<line x1="-0.32008" y1="-0.0112771" x2="-0.217669" y2="-0.0107107" style="stroke:rgb(246,147,147);stroke-width:0.01" />
<line x1="0.028297" y1="-0.231947" x2="-0.314603" y2="0.0615275" style="stroke:rgb(246,147,147);stroke-width:0.01" />
<line x1="-0.0100232" y1="0.132208" x2="-0.142107" y2="0.299477" style="stroke:rgb(246,147,147);stroke-width:0.01" />
<line x1="0.102272" y1="-0.10851" x2="-0.316754" y2="-0.0503819" style="stroke:rgb(246,147,147);stroke-width:0.01" />
<line x1="-0.187086" y1="-9.16246e-05" x2="-0.311041" y2="0.10887" style="stroke:rgb(246,147,147);stroke-width:0.01" />
<line x1="0.0812813" y1="-0.259827" x2="-0.322784" y2="-0.047209" style="stroke:rgb(246,147,147);stroke-width:0.01" />
<line x1="0.0489746" y1="-0.0692148" x2="-0.32008" y2="-0.0112771" style="stroke:rgb(246,147,147);stroke-width:0.01" />
<line x1="-0.0100232" y1="0.132208" x2="-0.30784" y2="0.151419" style="stroke:rgb(246,147,147);stroke-width:0.01" />
<line x1="0.00159699" y1="0.124814" x2="-0.30784" y2="0.151419" style="stroke:rgb(246,147,147);stroke-width:0.01" />
<line x1="0.115718" y1="0.255007" x2="0.0852363" y2="0.28622" style="stroke:rgb(246,147,147);stroke-width:0.01" />
<line x1="0.0852363" y1="0.28622" x2="-0.296026" y2="0.308452" style="stroke:rgb(246,147,147);stroke-width:0.01" />
<line x1="-0.0374212" y1="0.284609" x2="-0.296026" y2="0.308452" style="stroke:rgb(246,147,147);stroke-width:0.01" />
</svg>
