<svg xmlns="http://www.w3.org/2000/svg" viewBox="-1.5 -1.5 3 3">
<g transform="scale(1, -1)">
<path d="M1.047416 0.558607 L1.059057 0.569234 L1.052574 0.595788 L1.068407 0.709924 L1.023172 0.716199 L0.964036 0.958381 L1.081853 1.073442 L1.051371 1.104654 L0.670109 1.126886 L0.643351 0.771225 z " fill="rgb(245,195,195)" />
<path d="M0.000000 0.000000 L1.000000 0.000000 L1.000000 1.000000 L0.000000 1.000000  z" fill="none" stroke="rgb(128,128,128)" stroke-width="0.01" />
<line x1="1.04742" y1="0.558607" x2="1.05906" y2="0.569234" style="stroke:rgb(246,147,147);stroke-width:0.01" />
<line x1="1.04742" y1="0.558607" x2="1.06841" y2="0.709924" style="stroke:rgb(246,147,147);stroke-width:0.01" />
<line x1="0.779049" y1="0.818343" x2="0.808263" y2="0.977723" style="stroke:rgb(246,147,147);stroke-width:0.01" />
<line x1="0.662284" y1="1.02288" x2="0.663448" y2="1.02902" style="stroke:rgb(246,147,147);stroke-width:0.01" />
<line x1="0.643351" y1="0.771225" x2="0.670109" y2="1.12689" style="stroke:rgb(246,147,147);stroke-width:0.01" />
<line x1="0.87893" y1="0.648945" x2="1.01511" y2="0.749219" style="stroke:rgb(246,147,147);stroke-width:0.01" />
<line x1="0.956111" y1="0.950642" x2="1.08185" y2="1.07344" style="stroke:rgb(246,147,147);stroke-width:0.01" />
<line x1="0.672236" y1="0.756026" x2="0.662284" y2="1.02288" style="stroke:rgb(246,147,147);stroke-width:0.01" />
<line x1="0.748466" y1="0.807723" x2="0.781885" y2="0.833814" style="stroke:rgb(246,147,147);stroke-width:0.01" />
<line x1="0.656843" y1="0.950555" x2="0.824028" y2="1.11791" style="stroke:rgb(246,147,147);stroke-width:0.01" />
<line x1="0.643589" y1="0.774396" x2="1.05137" y2="1.10465" style="stroke:rgb(246,147,147);stroke-width:0.01" />
<line x1="0.672236" y1="0.756026" x2="0.967731" y2="0.943248" style="stroke:rgb(246,147,147);stroke-width:0.01" />
<line x1="1.05906" y1="0.569234" x2="0.928713" y2="1.10304" style="stroke:rgb(246,147,147);stroke-width:0.01" />
<line x1="0.663448" y1="1.02902" x2="0.730432" y2="1.08" style="stroke:rgb(246,147,147);stroke-width:0.01" />
<line x1="0.651531" y1="0.879962" x2="0.808263" y2="0.977723" style="stroke:rgb(246,147,147);stroke-width:0.01" />
<line x1="0.655093" y1="0.927304" x2="0.928713" y2="1.10304" style="stroke:rgb(246,147,147);stroke-width:0.01" />
<line x1="0.643351" y1="0.771225" x2="0.779049" y2="0.818343" style="stroke:rgb(246,147,147);stroke-width:0.01" />
<line x1="0.781885" y1="0.833814" x2="0.663448" y2="1.02902" style="stroke:rgb(246,147,147);stroke-width:0.01" />
<line x1="0.87893" y1="0.648945" x2="0.656843" y2="0.950555" style="stroke:rgb(246,147,147);stroke-width:0.01" />
<line x1="0.64938" y1="0.768052" x2="0.643589" y2="0.774396" style="stroke:rgb(246,147,147);stroke-width:0.01" />
<line x1="0.808263" y1="0.977723" x2="0.730432" y2="1.08" style="stroke:rgb(246,147,147);stroke-width:0.01" />
<line x1="1.05906" y1="0.569234" x2="0.994431" y2="0.586487" style="stroke:rgb(246,147,147);stroke-width:0.01" />
<line x1="0.646054" y1="0.807157" x2="0.748466" y2="0.807723" style="stroke:rgb(246,147,147);stroke-width:0.01" />
<line x1="0.994431" y1="0.586487" x2="0.651531" y2="0.879962" style="stroke:rgb(246,147,147);stroke-width:0.01" />
<line x1="0.956111" y1="0.950642" x2="0.824028" y2="1.11791" style="stroke:rgb(246,147,147);stroke-width:0.01" />
<line x1="1.06841" y1="0.709924" x2="0.64938" y2="0.768052" style="stroke:rgb(246,147,147);stroke-width:0.01" />
<line x1="0.779049" y1="0.818343" x2="0.655093" y2="0.927304" style="stroke:rgb(246,147,147);stroke-width:0.01" />
<line x1="1.04742" y1="0.558607" x2="0.643351" y2="0.771225" style="stroke:rgb(246,147,147);stroke-width:0.01" />
<line x1="1.01511" y1="0.749219" x2="0.646054" y2="0.807157" style="stroke:rgb(246,147,147);stroke-width:0.01" />
<line x1="0.956111" y1="0.950642" x2="0.658294" y2="0.969854" style="stroke:rgb(246,147,147);stroke-width:0.01" />
<line x1="0.967731" y1="0.943248" x2="0.658294" y2="0.969854" style="stroke:rgb(246,147,147);stroke-width:0.01" />
<line x1="1.08185" y1="1.07344" x2="1.05137" y2="1.10465" style="stroke:rgb(246,147,147);stroke-width:0.01" />
<line x1="1.05137" y1="1.10465" x2="0.670109" y2="1.12689" style="stroke:rgb(246,147,147);stroke-width:0.01" />
<line x1="0.928713" y1="1.10304" x2="0.670109" y2="1.12689" style="stroke:rgb(246,147,147);stroke-width:0.01" />
</g>
</svg>
