<svg xmlns="http://www.w3.org/2000/svg" viewBox="-1.5 -1.5 3 3">
<g transform="scale(1, -1)">
<path d="M0.009063 -0.470689 L0.124440 -0.458082 L0.370660 0.305590 L0.314026 0.410114 L-0.188714 0.385222 L-0.370229 0.286870 L-0.168652 -0.194399 L-0.090593 -0.264626 z " fill="rgb(245,195,195)" />
<path d="M-1.250760 0.540380 L-0.250760 0.540380 L-0.250760 1.540380 L-1.250760 1.540380  z" fill="none" stroke="rgb(128,128,128)" stroke-width="0.01" />
<line x1="0.009063" y1="-0.470689" x2="0.12444" y2="-0.458082" style="stroke:rgb(246,147,147);stroke-width:0.01" />
<line x1="-0.226656" y1="0.016718" x2="0.37066" y2="0.30559" style="stroke:rgb(246,147,147);stroke-width:0.01" />
<line x1="-0.288663" y1="0.0921288" x2="-0.224951" y2="0.122167" style="stroke:rgb(246,147,147);stroke-width:0.01" />
<line x1="-0.288663" y1="0.0921288" x2="-0.153551" y2="0.141867" style="stroke:rgb(246,147,147);stroke-width:0.01" />
<line x1="-0.339833" y1="0.214299" x2="-0.299036" y2="0.24827" style="stroke:rgb(246,147,147);stroke-width:0.01" />
<line x1="0.229761" y1="0.209472" x2="0.314026" y2="0.410114" style="stroke:rgb(246,147,147);stroke-width:0.01" />
<line x1="-0.370229" y1="0.28687" x2="-0.188714" y2="0.385222" style="stroke:rgb(246,147,147);stroke-width:0.01" />
<line x1="0.12444" y1="-0.458082" x2="0.37066" y2="0.30559" style="stroke:rgb(246,147,147);stroke-width:0.01" />
<line x1="-0.370229" y1="0.28687" x2="-0.357243" y2="0.290841" style="stroke:rgb(246,147,147);stroke-width:0.01" />
<line x1="-0.339833" y1="0.214299" x2="-0.235129" y2="0.224693" style="stroke:rgb(246,147,147);stroke-width:0.01" />
<line x1="-0.326153" y1="0.181637" x2="-0.299036" y2="0.24827" style="stroke:rgb(246,147,147);stroke-width:0.01" />
<line x1="0.009063" y1="-0.470689" x2="0.114849" y2="-0.0244717" style="stroke:rgb(246,147,147);stroke-width:0.01" />
<line x1="0.253635" y1="-0.0573739" x2="0.114849" y2="-0.0244717" style="stroke:rgb(246,147,147);stroke-width:0.01" />
<line x1="-0.188714" y1="0.385222" x2="0.314026" y2="0.410114" style="stroke:rgb(246,147,147);stroke-width:0.01" />
<line x1="-0.168652" y1="-0.194399" x2="-0.153551" y2="0.141867" style="stroke:rgb(246,147,147);stroke-width:0.01" />
<line x1="-0.356844" y1="0.254912" x2="-0.357243" y2="0.290841" style="stroke:rgb(246,147,147);stroke-width:0.01" />
<line x1="0.253635" y1="-0.0573739" x2="-0.326153" y2="0.181637" style="stroke:rgb(246,147,147);stroke-width:0.01" />
<line x1="-0.224951" y1="0.122167" x2="-0.235129" y2="0.224693" style="stroke:rgb(246,147,147);stroke-width:0.01" />
<line x1="0.12444" y1="-0.458082" x2="-0.168652" y2="-0.194399" style="stroke:rgb(246,147,147);stroke-width:0.01" />
<line x1="0.229761" y1="0.209472" x2="-0.188714" y2="0.385222" style="stroke:rgb(246,147,147);stroke-width:0.01" />
<line x1="-0.153551" y1="0.141867" x2="-0.357243" y2="0.290841" style="stroke:rgb(246,147,147);stroke-width:0.01" />
<line x1="-0.168652" y1="-0.194399" x2="-0.370229" y2="0.28687" style="stroke:rgb(246,147,147);stroke-width:0.01" />
<line x1="0.009063" y1="-0.470689" x2="-0.226656" y2="0.016718" style="stroke:rgb(246,147,147);stroke-width:0.01" />
<line x1="-0.224951" y1="0.122167" x2="-0.356844" y2="0.254912" style="stroke:rgb(246,147,147);stroke-width:0.01" />
<line x1="0.37066" y1="0.30559" x2="0.314026" y2="0.410114" style="stroke:rgb(246,147,147);stroke-width:0.01" />
</g>
</svg>
