<svg xmlns="http://www.w3.org/2000/svg" viewBox="-1.5 -1.5 3 3">
<path d="M-0.335656 -0.323971 L0.372707 -0.156540 L0.366109 -0.097003 L0.343018 -0.076161 L0.167475 0.399089 L0.037194 0.433081 L-0.152120 0.078843 L-0.081591 0.041150 L-0.116378 -0.008843 L-0.253790 0.028165 L-0.346968 -0.317811 z " fill="rgb(245,195,195)" />
<path d="M-0.632054 -0.491366 L0.367946 -0.491366 L0.367946 0.508634 L-0.632054 0.508634  z" fill="none" stroke="rgb(128,128,128)" stroke-width="0.01" />
<line x1="0.314197" y1="-0.17037" x2="0.366109" y2="-0.0970027" style="stroke:rgb(246,147,147);stroke-width:0.01" />
<line x1="0.121823" y1="-0.155034" x2="0.244349" y2="0.172556" style="stroke:rgb(246,147,147);stroke-width:0.01" />
<line x1="0.166668" y1="-0.20524" x2="0.19704" y2="-0.0932514" style="stroke:rgb(246,147,147);stroke-width:0.01" />
<line x1="0.0665431" y1="0.232586" x2="0.0858665" y2="0.281807" style="stroke:rgb(246,147,147);stroke-width:0.01" />
<line x1="-0.335656" y1="-0.323971" x2="0.167475" y2="0.399089" style="stroke:rgb(246,147,147);stroke-width:0.01" />
<line x1="-0.15212" y1="0.0788433" x2="0.0371938" y2="0.433081" style="stroke:rgb(246,147,147);stroke-width:0.01" />
<line x1="-0.346968" y1="-0.317811" x2="0.082989" y2="0.158542" style="stroke:rgb(246,147,147);stroke-width:0.01" />
<line x1="-0.346968" y1="-0.317811" x2="-0.25379" y2="0.028165" style="stroke:rgb(246,147,147);stroke-width:0.01" />
<line x1="0.250053" y1="-0.185531" x2="0.267962" y2="0.127039" style="stroke:rgb(246,147,147);stroke-width:0.01" />
<line x1="0.0359314" y1="0.36879" x2="0.0371938" y2="0.433081" style="stroke:rgb(246,147,147);stroke-width:0.01" />
<line x1="0.0858665" y1="0.281807" x2="0.179804" y2="0.365712" style="stroke:rgb(246,147,147);stroke-width:0.01" />
<line x1="-0.335656" y1="-0.323971" x2="0.372707" y2="-0.15654" style="stroke:rgb(246,147,147);stroke-width:0.01" />
<line x1="0.372707" y1="-0.15654" x2="0.366109" y2="-0.0970027" style="stroke:rgb(246,147,147);stroke-width:0.01" />
<line x1="0.121823" y1="-0.155034" x2="0.0496008" y2="0.229689" style="stroke:rgb(246,147,147);stroke-width:0.01" />
<line x1="-0.335656" y1="-0.323971" x2="-0.346968" y2="-0.317811" style="stroke:rgb(246,147,147);stroke-width:0.01" />
<line x1="0.372707" y1="-0.15654" x2="0.167475" y2="0.399089" style="stroke:rgb(246,147,147);stroke-width:0.01" />
<line x1="0.250053" y1="-0.185531" x2="0.19704" y2="-0.0932514" style="stroke:rgb(246,147,147);stroke-width:0.01" />
<line x1="0.166668" y1="-0.20524" x2="0.121823" y2="-0.155034" style="stroke:rgb(246,147,147);stroke-width:0.01" />
<line x1="0.19704" y1="-0.0932514" x2="-0.25379" y2="0.028165" style="stroke:rgb(246,147,147);stroke-width:0.01" />
<line x1="0.0496008" y1="0.229689" x2="0.0665431" y2="0.232586" style="stroke:rgb(246,147,147);stroke-width:0.01" />
<line x1="0.314197" y1="-0.17037" x2="-0.15212" y2="0.0788433" style="stroke:rgb(246,147,147);stroke-width:0.01" />
<line x1="0.0665431" y1="0.232586" x2="0.0582733" y2="0.242152" style="stroke:rgb(246,147,147);stroke-width:0.01" />
<line x1="0.366109" y1="-0.0970027" x2="0.082989" y2="0.158542" style="stroke:rgb(246,147,147);stroke-width:0.01" />
<line x1="0.267962" y1="0.127039" x2="0.0359314" y2="0.36879" style="stroke:rgb(246,147,147);stroke-width:0.01" />
<line x1="0.244349" y1="0.172556" x2="0.0582733" y2="0.242152" style="stroke:rgb(246,147,147);stroke-width:0.01" />
<line x1="0.179804" y1="0.365712" x2="0.0359314" y2="0.36879" style="stroke:rgb(246,147,147);stroke-width:0.01" />
<line x1="0.167475" y1="0.399089" x2="0.0371938" y2="0.433081" style="stroke:rgb(246,147,147);stroke-width:0.01" />
</svg>
