<svg xmlns="http://www.w3.org/2000/svg" viewBox="-1.5 -1.5 3 3">
<g transform="scale(1, -1)">
<path d="M-0.120744 -0.350321 L0.361800 -0.155800 L0.773418 -0.043563 L0.760227 0.004813 L-0.438512 0.599775 L-0.494625 0.577155 L-0.302154 0.099696 L-0.236710 -0.140312 L-0.159097 -0.297834 L-0.143605 -0.293610 z " fill="rgb(245,195,195)" />
<path d="M-0.554646 0.886582 L0.445354 0.886582 L0.445354 1.886582 L-0.554646 1.886582  z" fill="none" stroke="rgb(128,128,128)" stroke-width="0.01" />
<line x1="-0.120744" y1="-0.350321" x2="0.760227" y2="0.00481299" style="stroke:rgb(246,147,147);stroke-width:0.01" />
<line x1="-0.159097" y1="-0.297834" x2="0.773418" y2="-0.0435626" style="stroke:rgb(246,147,147);stroke-width:0.01" />
<line x1="-0.159097" y1="-0.297834" x2="-0.132464" y2="-0.277613" style="stroke:rgb(246,147,147);stroke-width:0.01" />
<line x1="-0.494625" y1="0.577155" x2="-0.438512" y2="0.599775" style="stroke:rgb(246,147,147);stroke-width:0.01" />
<line x1="-0.132464" y1="-0.277613" x2="-0.23671" y2="-0.140312" style="stroke:rgb(246,147,147);stroke-width:0.01" />
<line x1="0.760227" y1="0.00481299" x2="-0.438512" y2="0.599775" style="stroke:rgb(246,147,147);stroke-width:0.01" />
<line x1="-0.159097" y1="-0.297834" x2="-0.23671" y2="-0.140312" style="stroke:rgb(246,147,147);stroke-width:0.01" />
<line x1="-0.120744" y1="-0.350321" x2="-0.494625" y2="0.577155" style="stroke:rgb(246,147,147);stroke-width:0.01" />
<line x1="-0.23671" y1="-0.140312" x2="-0.438512" y2="0.599775" style="stroke:rgb(246,147,147);stroke-width:0.01" />
<line x1="0.773418" y1="-0.0435626" x2="0.760227" y2="0.00481299" style="stroke:rgb(246,147,147);stroke-width:0.01" />
</g>
</svg>
