<svg xmlns="http://www.w3.org/2000/svg" viewBox="-1.5 -1.5 3 3">
<g transform="scale(1, -1)">
<path d="M0.433902 -1.236904 L0.916447 -1.042382 L1.328064 -0.930145 L1.314874 -0.881769 L0.116135 -0.286807 L0.060021 -0.309427 L0.252493 -0.786886 L0.317936 -1.026894 L0.395549 -1.184417 L0.411041 -1.180193 z " fill="rgb(245,195,195)" />
<path d="M0.000000 0.000000 L1.000000 0.000000 L1.000000 1.000000 L0.000000 1.000000  z" fill="none" stroke="rgb(128,128,128)" stroke-width="0.01" />
<line x1="0.433902" y1="-1.2369" x2="1.31487" y2="-0.881769" style="stroke:rgb(246,147,147);stroke-width:0.01" />
<line x1="0.395549" y1="-1.18442" x2="1.32806" y2="-0.930145" style="stroke:rgb(246,147,147);stroke-width:0.01" />
<line x1="0.395549" y1="-1.18442" x2="0.422182" y2="-1.1642" style="stroke:rgb(246,147,147);stroke-width:0.01" />
<line x1="0.060021" y1="-0.309427" x2="0.116135" y2="-0.286807" style="stroke:rgb(246,147,147);stroke-width:0.01" />
<line x1="0.422182" y1="-1.1642" x2="0.317936" y2="-1.02689" style="stroke:rgb(246,147,147);stroke-width:0.01" />
<line x1="1.31487" y1="-0.881769" x2="0.116135" y2="-0.286807" style="stroke:rgb(246,147,147);stroke-width:0.01" />
<line x1="0.395549" y1="-1.18442" x2="0.317936" y2="-1.02689" style="stroke:rgb(246,147,147);stroke-width:0.01" />
<line x1="0.433902" y1="-1.2369" x2="0.060021" y2="-0.309427" style="stroke:rgb(246,147,147);stroke-width:0.01" />
<line x1="0.317936" y1="-1.02689" x2="0.116135" y2="-0.286807" style="stroke:rgb(246,147,147);stroke-width:0.01" />
<line x1="1.32806" y1="-0.930145" x2="1.31487" y2="-0.881769" style="stroke:rgb(246,147,147);stroke-width:0.01" />
</g>
</svg>
