<svg xmlns="http://www.w3.org/2000/svg" viewBox="-1.5 -1.5 3 3">
<g transform="scale(1, -1)">
<path d="M-0.552516 -0.497658 L-0.343464 -0.436498 L0.365869 -0.436498 L0.365869 0.463913 L0.393439 0.518799 L0.365869 0.532648 L-0.024657 0.291792 L-0.570408 -0.436498 z " fill="rgb(245,195,195)" />
<path d="M-0.634131 -0.436498 L0.365869 -0.436498 L0.365869 0.563502 L-0.634131 0.563502  z" fill="none" stroke="rgb(128,128,128)" stroke-width="0.01" />
<line x1="0.309537" y1="0.351771" x2="0.393439" y2="0.518799" style="stroke:rgb(246,147,147);stroke-width:0.01" />
<line x1="-0.0477759" y1="-0.349993" x2="0.240933" y2="0.351639" style="stroke:rgb(246,147,147);stroke-width:0.01" />
<line x1="-0.171542" y1="-0.0144527" x2="-0.13621" y2="0.142927" style="stroke:rgb(246,147,147);stroke-width:0.01" />
<line x1="-0.552516" y1="-0.497658" x2="-0.0477759" y2="-0.349993" style="stroke:rgb(246,147,147);stroke-width:0.01" />
<line x1="-0.570408" y1="-0.436498" x2="-0.024657" y2="0.291792" style="stroke:rgb(246,147,147);stroke-width:0.01" />
<line x1="-0.570408" y1="-0.436498" x2="0.365869" y2="-0.436498" style="stroke:rgb(246,147,147);stroke-width:0.01" />
<line x1="0.365869" y1="-0.436498" x2="0.365869" y2="0.532648" style="stroke:rgb(246,147,147);stroke-width:0.01" />
<line x1="-0.552516" y1="-0.497658" x2="-0.570408" y2="-0.436498" style="stroke:rgb(246,147,147);stroke-width:0.01" />
<line x1="-0.13621" y1="0.142927" x2="0.240933" y2="0.351639" style="stroke:rgb(246,147,147);stroke-width:0.01" />
<line x1="-0.024657" y1="0.291792" x2="0.365869" y2="0.532648" style="stroke:rgb(246,147,147);stroke-width:0.01" />
<line x1="-0.0477759" y1="-0.349993" x2="-0.242249" y2="0.00142106" style="stroke:rgb(246,147,147);stroke-width:0.01" />
<line x1="0.240933" y1="0.351639" x2="0.215169" y2="0.439705" style="stroke:rgb(246,147,147);stroke-width:0.01" />
<line x1="-0.171542" y1="-0.0144527" x2="-0.242249" y2="0.00142106" style="stroke:rgb(246,147,147);stroke-width:0.01" />
<line x1="-0.024657" y1="0.291792" x2="0.309537" y2="0.351771" style="stroke:rgb(246,147,147);stroke-width:0.01" />
<line x1="0.309537" y1="0.351771" x2="0.215169" y2="0.439705" style="stroke:rgb(246,147,147);stroke-width:0.01" />
<line x1="0.393439" y1="0.518799" x2="0.365869" y2="0.532648" style="stroke:rgb(246,147,147);stroke-width:0.01" />
</g>
</svg>
