<svg xmlns="http://www.w3.org/2000/svg" viewBox="-1.5 -1.5 3 3">
<g transform="scale(1, -1)">
<path d="M0.081616 -0.061159 L0.290668 0.000000 L1.000000 0.000000 L1.000000 0.900411 L1.027571 0.955297 L1.000000 0.969146 L0.609474 0.728290 L0.063723 0.000000 z " fill="rgb(245,195,195)" />
<path d="M0.000000 0.000000 L1.000000 0.000000 L1.000000 1.000000 L0.000000 1.000000  z" fill="none" stroke="rgb(128,128,128)" stroke-width="0.01" />
<line x1="0.943668" y1="0.788269" x2="1.02757" y2="0.955297" style="stroke:rgb(246,147,147);stroke-width:0.01" />
<line x1="0.586356" y1="0.0865052" x2="0.875065" y2="0.788137" style="stroke:rgb(246,147,147);stroke-width:0.01" />
<line x1="0.462589" y1="0.422045" x2="0.497921" y2="0.579425" style="stroke:rgb(246,147,147);stroke-width:0.01" />
<line x1="0.0816156" y1="-0.0611595" x2="0.586356" y2="0.0865052" style="stroke:rgb(246,147,147);stroke-width:0.01" />
<line x1="0.063723" y1="0" x2="0.609474" y2="0.72829" style="stroke:rgb(246,147,147);stroke-width:0.01" />
<line x1="0.063723" y1="0" x2="1" y2="0" style="stroke:rgb(246,147,147);stroke-width:0.01" />
<line x1="1" y1="0" x2="1" y2="0.969146" style="stroke:rgb(246,147,147);stroke-width:0.01" />
<line x1="0.0816156" y1="-0.0611595" x2="0.063723" y2="0" style="stroke:rgb(246,147,147);stroke-width:0.01" />
<line x1="0.497921" y1="0.579425" x2="0.875065" y2="0.788137" style="stroke:rgb(246,147,147);stroke-width:0.01" />
<line x1="0.609474" y1="0.72829" x2="1" y2="0.969146" style="stroke:rgb(246,147,147);stroke-width:0.01" />
<line x1="0.586356" y1="0.0865052" x2="0.391882" y2="0.437919" style="stroke:rgb(246,147,147);stroke-width:0.01" />
<line x1="0.875065" y1="0.788137" x2="0.849301" y2="0.876203" style="stroke:rgb(246,147,147);stroke-width:0.01" />
<line x1="0.462589" y1="0.422045" x2="0.391882" y2="0.437919" style="stroke:rgb(246,147,147);stroke-width:0.01" />
<line x1="0.609474" y1="0.72829" x2="0.943668" y2="0.788269" style="stroke:rgb(246,147,147);stroke-width:0.01" />
<line x1="0.943668" y1="0.788269" x2="0.849301" y2="0.876203" style="stroke:rgb(246,147,147);stroke-width:0.01" />
<line x1="1.02757" y1="0.955297" x2="1" y2="0.969146" style="stroke:rgb(246,147,147);stroke-width:0.01" />
</g>
</svg>
