<svg xmlns="http://www.w3.org/2000/svg" viewBox="-1.5 -1.5 3 3">
<g transform="scale(1, -1)">
<path d="M0.684193 -0.008444 L0.687551 0.000000 L1.000000 0.000000 L1.000000 0.785586 L1.020152 0.836253 L1.047123 0.844749 L1.063721 0.900175 L1.047507 0.905031 L0.691202 0.732634 L0.588077 0.662667 L0.000000 0.036400 L0.000000 0.000000 L0.662962 0.000000 z " fill="rgb(245,195,195)" />
<path d="M0.000000 0.000000 L1.000000 0.000000 L1.000000 1.000000 L0.000000 1.000000  z" fill="none" stroke="rgb(128,128,128)" stroke-width="0.01" />
<line x1="0.684193" y1="-0.00844402" x2="1.04751" y2="0.905031" style="stroke:rgb(246,147,147);stroke-width:0.01" />
<line x1="1.04712" y1="0.844749" x2="1.06372" y2="0.900175" style="stroke:rgb(246,147,147);stroke-width:0.01" />
<line x1="0.226829" y1="0.0506812" x2="0.588077" y2="0.662667" style="stroke:rgb(246,147,147);stroke-width:0.01" />
<line x1="0" y1="0" x2="1" y2="0" style="stroke:rgb(246,147,147);stroke-width:0.01" />
<line x1="0" y1="0" x2="0" y2="0.0364002" style="stroke:rgb(246,147,147);stroke-width:0.01" />
<line x1="1" y1="0" x2="1" y2="0.882045" style="stroke:rgb(246,147,147);stroke-width:0.01" />
<line x1="0" y1="0.0364002" x2="0.588077" y2="0.662667" style="stroke:rgb(246,147,147);stroke-width:0.01" />
<line x1="0" y1="0.0364002" x2="0.226829" y2="0.0506812" style="stroke:rgb(246,147,147);stroke-width:0.01" />
<line x1="0.226829" y1="0.0506812" x2="0.155386" y2="0.201877" style="stroke:rgb(246,147,147);stroke-width:0.01" />
<line x1="0.588077" y1="0.662667" x2="0.691202" y2="0.732634" style="stroke:rgb(246,147,147);stroke-width:0.01" />
<line x1="0.684193" y1="-0.00844402" x2="0.155386" y2="0.201877" style="stroke:rgb(246,147,147);stroke-width:0.01" />
<line x1="0.691202" y1="0.732634" x2="1.04751" y2="0.905031" style="stroke:rgb(246,147,147);stroke-width:0.01" />
<line x1="0.691202" y1="0.732634" x2="1.04712" y2="0.844749" style="stroke:rgb(246,147,147);stroke-width:0.01" />
<line x1="1.04712" y1="0.844749" x2="1" y2="0.882045" style="stroke:rgb(246,147,147);stroke-width:0.01" />
<line x1="1.06372" y1="0.900175" x2="1.04751" y2="0.905031" style="stroke:rgb(246,147,147);stroke-width:0.01" />
</g>
</svg>
