<svg xmlns="http://www.w3.org/2000/svg" viewBox="-1.5 -1.5 3 3">
<g transform="scale(1, -1)">
<path d="M-0.045999 -0.446525 L-0.042640 -0.438081 L0.269809 -0.438081 L0.269809 0.347505 L0.289960 0.398172 L0.316932 0.406668 L0.333530 0.462094 L0.317315 0.466950 L-0.038989 0.294553 L-0.142114 0.224586 L-0.730191 -0.401681 L-0.730191 -0.438081 L-0.067229 -0.438081 z " fill="rgb(245,195,195)" />
<path d="M-0.730191 -0.438081 L0.269809 -0.438081 L0.269809 0.561919 L-0.730191 0.561919  z" fill="none" stroke="rgb(128,128,128)" stroke-width="0.01" />
<line x1="-0.0459985" y1="-0.446525" x2="0.317315" y2="0.46695" style="stroke:rgb(246,147,147);stroke-width:0.01" />
<line x1="0.316932" y1="0.406668" x2="0.33353" y2="0.462094" style="stroke:rgb(246,147,147);stroke-width:0.01" />
<line x1="-0.503363" y1="-0.3874" x2="-0.142114" y2="0.224586" style="stroke:rgb(246,147,147);stroke-width:0.01" />
<line x1="-0.730191" y1="-0.438081" x2="0.269809" y2="-0.438081" style="stroke:rgb(246,147,147);stroke-width:0.01" />
<line x1="-0.730191" y1="-0.438081" x2="-0.730191" y2="-0.401681" style="stroke:rgb(246,147,147);stroke-width:0.01" />
<line x1="0.269809" y1="-0.438081" x2="0.269809" y2="0.443964" style="stroke:rgb(246,147,147);stroke-width:0.01" />
<line x1="-0.730191" y1="-0.401681" x2="-0.142114" y2="0.224586" style="stroke:rgb(246,147,147);stroke-width:0.01" />
<line x1="-0.730191" y1="-0.401681" x2="-0.503363" y2="-0.3874" style="stroke:rgb(246,147,147);stroke-width:0.01" />
<line x1="-0.503363" y1="-0.3874" x2="-0.574806" y2="-0.236204" style="stroke:rgb(246,147,147);stroke-width:0.01" />
<line x1="-0.142114" y1="0.224586" x2="-0.0389892" y2="0.294553" style="stroke:rgb(246,147,147);stroke-width:0.01" />
<line x1="-0.0459985" y1="-0.446525" x2="-0.574806" y2="-0.236204" style="stroke:rgb(246,147,147);stroke-width:0.01" />
<line x1="-0.0389892" y1="0.294553" x2="0.317315" y2="0.46695" style="stroke:rgb(246,147,147);stroke-width:0.01" />
<line x1="-0.0389892" y1="0.294553" x2="0.316932" y2="0.406668" style="stroke:rgb(246,147,147);stroke-width:0.01" />
<line x1="0.316932" y1="0.406668" x2="0.269809" y2="0.443964" style="stroke:rgb(246,147,147);stroke-width:0.01" />
<line x1="0.33353" y1="0.462094" x2="0.317315" y2="0.46695" style="stroke:rgb(246,147,147);stroke-width:0.01" />
</g>
</svg>
