<svg xmlns="http://www.w3.org/2000/svg" viewBox="-1.5 -1.5 3 3">
<g transform="scale(1, -1)">
<path d="M0.058984 -0.552170 L0.077459 -0.462925 L0.187613 -0.462925 L0.187613 0.069199 L0.261695 0.427069 L0.187613 0.442405 L0.187613 0.537075 L0.037993 0.537075 L-0.178315 0.191275 L-0.333398 -0.084736 L-0.342157 -0.170255 L-0.332712 -0.471085 z " fill="rgb(245,195,195)" />
<path d="M-0.812387 -0.462925 L0.187613 -0.462925 L0.187613 0.537075 L-0.812387 0.537075  z" fill="none" stroke="rgb(128,128,128)" stroke-width="0.01" />
<line x1="0.0589845" y1="-0.55217" x2="0.261695" y2="0.427069" style="stroke:rgb(246,147,147);stroke-width:0.01" />
<line x1="-0.332712" y1="-0.471085" x2="-0.306918" y2="-0.464033" style="stroke:rgb(246,147,147);stroke-width:0.01" />
<line x1="-0.319527" y1="-0.459174" x2="-0.303744" y2="-0.401186" style="stroke:rgb(246,147,147);stroke-width:0.01" />
<line x1="-0.333398" y1="-0.0847361" x2="-0.178315" y2="0.191275" style="stroke:rgb(246,147,147);stroke-width:0.01" />
<line x1="-0.178315" y1="0.191275" x2="0.037993" y2="0.537075" style="stroke:rgb(246,147,147);stroke-width:0.01" />
<line x1="-0.178315" y1="0.191275" x2="0.0476236" y2="0.517282" style="stroke:rgb(246,147,147);stroke-width:0.01" />
<line x1="-0.342157" y1="-0.170255" x2="-0.333398" y2="-0.0847361" style="stroke:rgb(246,147,147);stroke-width:0.01" />
<line x1="-0.332968" y1="-0.462925" x2="-0.306779" y2="-0.461279" style="stroke:rgb(246,147,147);stroke-width:0.01" />
<line x1="-0.306918" y1="-0.464033" x2="-0.303744" y2="-0.401186" style="stroke:rgb(246,147,147);stroke-width:0.01" />
<line x1="-0.332968" y1="-0.462925" x2="0.187613" y2="-0.462925" style="stroke:rgb(246,147,147);stroke-width:0.01" />
<line x1="0.187613" y1="-0.462925" x2="0.187613" y2="0.537075" style="stroke:rgb(246,147,147);stroke-width:0.01" />
<line x1="-0.333398" y1="-0.0847361" x2="0.164571" y2="0.293062" style="stroke:rgb(246,147,147);stroke-width:0.01" />
<line x1="-0.332712" y1="-0.471085" x2="-0.342157" y2="-0.170255" style="stroke:rgb(246,147,147);stroke-width:0.01" />
<line x1="-0.306779" y1="-0.461279" x2="-0.319527" y2="-0.459174" style="stroke:rgb(246,147,147);stroke-width:0.01" />
<line x1="-0.303744" y1="-0.401186" x2="-0.342157" y2="-0.170255" style="stroke:rgb(246,147,147);stroke-width:0.01" />
<line x1="0.0589845" y1="-0.55217" x2="-0.332712" y2="-0.471085" style="stroke:rgb(246,147,147);stroke-width:0.01" />
<line x1="-0.306918" y1="-0.464033" x2="-0.319527" y2="-0.459174" style="stroke:rgb(246,147,147);stroke-width:0.01" />
<line x1="0.0476236" y1="0.517282" x2="0.037993" y2="0.537075" style="stroke:rgb(246,147,147);stroke-width:0.01" />
<line x1="0.164571" y1="0.293062" x2="0.0268393" y2="0.519244" style="stroke:rgb(246,147,147);stroke-width:0.01" />
<line x1="0.0130084" y1="0.467335" x2="0.00271634" y2="0.48068" style="stroke:rgb(246,147,147);stroke-width:0.01" />
<line x1="0.164571" y1="0.293062" x2="-0.00262477" y2="0.472141" style="stroke:rgb(246,147,147);stroke-width:0.01" />
<line x1="0.037993" y1="0.537075" x2="0.187613" y2="0.537075" style="stroke:rgb(246,147,147);stroke-width:0.01" />
<line x1="0.0476236" y1="0.517282" x2="0.0268393" y2="0.519244" style="stroke:rgb(246,147,147);stroke-width:0.01" />
<line x1="0.261695" y1="0.427069" x2="0.00271634" y2="0.48068" style="stroke:rgb(246,147,147);stroke-width:0.01" />
<line x1="0.0130084" y1="0.467335" x2="-0.00262477" y2="0.472141" style="stroke:rgb(246,147,147);stroke-width:0.01" />
</g>
</svg>
