<svg xmlns="http://www.w3.org/2000/svg" viewBox="-1.5 -1.5 3 3">
<g transform="scale(1, -1)">
<path d="M0.871372 -0.089244 L0.889846 0.000000 L1.000000 0.000000 L1.000000 0.532124 L1.074082 0.889994 L1.000000 0.905330 L1.000000 1.000000 L0.850380 1.000000 L0.634073 0.654200 L0.478990 0.378189 L0.470231 0.292670 L0.479675 -0.008160 z " fill="rgb(245,195,195)" />
<path d="M0.000000 0.000000 L1.000000 0.000000 L1.000000 1.000000 L0.000000 1.000000  z" fill="none" stroke="rgb(128,128,128)" stroke-width="0.01" />
<line x1="0.871372" y1="-0.0892443" x2="1.07408" y2="0.889994" style="stroke:rgb(246,147,147);stroke-width:0.01" />
<line x1="0.479675" y1="-0.00816004" x2="0.50547" y2="-0.00110738" style="stroke:rgb(246,147,147);stroke-width:0.01" />
<line x1="0.49286" y1="0.00375161" x2="0.508644" y2="0.061739" style="stroke:rgb(246,147,147);stroke-width:0.01" />
<line x1="0.47899" y1="0.378189" x2="0.634073" y2="0.6542" style="stroke:rgb(246,147,147);stroke-width:0.01" />
<line x1="0.634073" y1="0.6542" x2="0.85038" y2="1" style="stroke:rgb(246,147,147);stroke-width:0.01" />
<line x1="0.634073" y1="0.6542" x2="0.860011" y2="0.980207" style="stroke:rgb(246,147,147);stroke-width:0.01" />
<line x1="0.470231" y1="0.29267" x2="0.47899" y2="0.378189" style="stroke:rgb(246,147,147);stroke-width:0.01" />
<line x1="0.479419" y1="0" x2="0.505609" y2="0.00164604" style="stroke:rgb(246,147,147);stroke-width:0.01" />
<line x1="0.50547" y1="-0.00110738" x2="0.508644" y2="0.061739" style="stroke:rgb(246,147,147);stroke-width:0.01" />
<line x1="0.479419" y1="0" x2="1" y2="0" style="stroke:rgb(246,147,147);stroke-width:0.01" />
<line x1="1" y1="0" x2="1" y2="1" style="stroke:rgb(246,147,147);stroke-width:0.01" />
<line x1="0.47899" y1="0.378189" x2="0.976959" y2="0.755987" style="stroke:rgb(246,147,147);stroke-width:0.01" />
<line x1="0.479675" y1="-0.00816004" x2="0.470231" y2="0.29267" style="stroke:rgb(246,147,147);stroke-width:0.01" />
<line x1="0.505609" y1="0.00164604" x2="0.49286" y2="0.00375161" style="stroke:rgb(246,147,147);stroke-width:0.01" />
<line x1="0.508644" y1="0.061739" x2="0.470231" y2="0.29267" style="stroke:rgb(246,147,147);stroke-width:0.01" />
<line x1="0.871372" y1="-0.0892443" x2="0.479675" y2="-0.00816004" style="stroke:rgb(246,147,147);stroke-width:0.01" />
<line x1="0.50547" y1="-0.00110738" x2="0.49286" y2="0.00375161" style="stroke:rgb(246,147,147);stroke-width:0.01" />
<line x1="0.860011" y1="0.980207" x2="0.85038" y2="1" style="stroke:rgb(246,147,147);stroke-width:0.01" />
<line x1="0.976959" y1="0.755987" x2="0.839227" y2="0.982169" style="stroke:rgb(246,147,147);stroke-width:0.01" />
<line x1="0.825396" y1="0.93026" x2="0.815104" y2="0.943605" style="stroke:rgb(246,147,147);stroke-width:0.01" />
<line x1="0.976959" y1="0.755987" x2="0.809763" y2="0.935066" style="stroke:rgb(246,147,147);stroke-width:0.01" />
<line x1="0.85038" y1="1" x2="1" y2="1" style="stroke:rgb(246,147,147);stroke-width:0.01" />
<line x1="0.860011" y1="0.980207" x2="0.839227" y2="0.982169" style="stroke:rgb(246,147,147);stroke-width:0.01" />
<line x1="1.07408" y1="0.889994" x2="0.815104" y2="0.943605" style="stroke:rgb(246,147,147);stroke-width:0.01" />
<line x1="0.825396" y1="0.93026" x2="0.809763" y2="0.935066" style="stroke:rgb(246,147,147);stroke-width:0.01" />
</g>
</svg>
