<svg xmlns="http://www.w3.org/2000/svg" viewBox="-1.5 -1.5 3 3">
<g transform="scale(1, -1)">
<path d="M0.922367 -0.699273 L0.941636 -0.488825 L1.021949 -0.430028 L0.962697 -0.340819 L0.440621 -0.162355 L-0.038843 -0.229944 L-0.073468 -0.608091 L0.115162 -0.625363 L0.115758 -0.626894 L0.119197 -0.625732 z " fill="rgb(245,195,195)" />
<path d="M0.000000 0.000000 L1.000000 0.000000 L1.000000 1.000000 L0.000000 1.000000  z" fill="none" stroke="rgb(128,128,128)" stroke-width="0.01" />
<line x1="0.819513" y1="-0.551549" x2="1.02195" y2="-0.430028" style="stroke:rgb(246,147,147);stroke-width:0.01" />
<line x1="0.902055" y1="-0.517802" x2="1.02195" y2="-0.430028" style="stroke:rgb(246,147,147);stroke-width:0.01" />
<line x1="0.922367" y1="-0.699273" x2="-0.0734675" y2="-0.608091" style="stroke:rgb(246,147,147);stroke-width:0.01" />
<line x1="0.115758" y1="-0.626894" x2="0.962697" y2="-0.340819" style="stroke:rgb(246,147,147);stroke-width:0.01" />
<line x1="0.819513" y1="-0.551549" x2="0.955416" y2="-0.33833" style="stroke:rgb(246,147,147);stroke-width:0.01" />
<line x1="0.0620521" y1="-0.440189" x2="0.708996" y2="-0.254095" style="stroke:rgb(246,147,147);stroke-width:0.01" />
<line x1="-0.038843" y1="-0.229944" x2="0.440621" y2="-0.162355" style="stroke:rgb(246,147,147);stroke-width:0.01" />
<line x1="0.922367" y1="-0.699273" x2="0.955416" y2="-0.33833" style="stroke:rgb(246,147,147);stroke-width:0.01" />
<line x1="0.115758" y1="-0.626894" x2="-0.038843" y2="-0.229944" style="stroke:rgb(246,147,147);stroke-width:0.01" />
<line x1="0.115758" y1="-0.626894" x2="0.0620521" y2="-0.440189" style="stroke:rgb(246,147,147);stroke-width:0.01" />
<line x1="0.962697" y1="-0.340819" x2="0.440621" y2="-0.162355" style="stroke:rgb(246,147,147);stroke-width:0.01" />
<line x1="-0.0734675" y1="-0.608091" x2="-0.038843" y2="-0.229944" style="stroke:rgb(246,147,147);stroke-width:0.01" />
<line x1="0.819513" y1="-0.551549" x2="0.440621" y2="-0.162355" style="stroke:rgb(246,147,147);stroke-width:0.01" />
<line x1="0.902055" y1="-0.517802" x2="0.708996" y2="-0.254095" style="stroke:rgb(246,147,147);stroke-width:0.01" />
<line x1="1.02195" y1="-0.430028" x2="0.962697" y2="-0.340819" style="stroke:rgb(246,147,147);stroke-width:0.01" />
</g>
</svg>
