<svg xmlns="http://www.w3.org/2000/svg" viewBox="-1 -1 3 3">
<path d="M-0.426910 -0.410502 L-0.301875 -0.358546 L-0.318285 -0.260137 L-0.259897 -0.179314 L-0.284206 -0.126193 L-0.340176 -0.128853 L-0.388452 0.160668 L-0.811435 0.369462 L-0.898101 0.330171 L-0.779811 0.069255 L-0.791942 0.050714 L-0.743866 -0.010030 L-0.743055 -0.011818 L-0.742470 -0.011793 L-0.730429 -0.027007 L-0.717433 -0.035510 L-0.714832 -0.046713 z " fill="rgb(245,195,195)" />
<path d="M0 0 L0 1 L1 1 L1 0 z" fill="none" stroke="rgb(128,128,128)" stroke-width="0.01" />
<line x1="-0.381952" y1="-0.391821" x2="-0.448128" y2="-0.383694" style="stroke:rgb(246,147,147);stroke-width:0.01" />
<line x1="-0.42691" y1="-0.410502" x2="-0.714832" y2="-0.0467132" style="stroke:rgb(246,147,147);stroke-width:0.01" />
<line x1="-0.730429" y1="-0.0270066" x2="-0.791942" y2="0.0507145" style="stroke:rgb(246,147,147);stroke-width:0.01" />
<line x1="-0.311446" y1="-0.301151" x2="-0.730429" y2="-0.0270066" style="stroke:rgb(246,147,147);stroke-width:0.01" />
<line x1="-0.309228" y1="-0.2476" x2="-0.714832" y2="-0.0467132" style="stroke:rgb(246,147,147);stroke-width:0.01" />
<line x1="-0.743055" y1="-0.0118184" x2="-0.898101" y2="0.330171" style="stroke:rgb(246,147,147);stroke-width:0.01" />
<line x1="-0.309228" y1="-0.2476" x2="-0.326783" y2="-0.229834" style="stroke:rgb(246,147,147);stroke-width:0.01" />
<line x1="-0.301875" y1="-0.358546" x2="-0.348885" y2="-0.293034" style="stroke:rgb(246,147,147);stroke-width:0.01" />
<line x1="-0.730429" y1="-0.0270066" x2="-0.76246" y2="0.0613965" style="stroke:rgb(246,147,147);stroke-width:0.01" />
<line x1="-0.259897" y1="-0.179314" x2="-0.423658" y2="-0.161295" style="stroke:rgb(246,147,147);stroke-width:0.01" />
<line x1="-0.42691" y1="-0.410502" x2="-0.301875" y2="-0.358546" style="stroke:rgb(246,147,147);stroke-width:0.01" />
<line x1="-0.714832" y1="-0.0467132" x2="-0.811435" y2="0.369462" style="stroke:rgb(246,147,147);stroke-width:0.01" />
<line x1="-0.259897" y1="-0.179314" x2="-0.284206" y2="-0.126193" style="stroke:rgb(246,147,147);stroke-width:0.01" />
<line x1="-0.638594" y1="-0.143041" x2="-0.284206" y2="-0.126193" style="stroke:rgb(246,147,147);stroke-width:0.01" />
<line x1="-0.301875" y1="-0.358546" x2="-0.388452" y2="0.160668" style="stroke:rgb(246,147,147);stroke-width:0.01" />
<line x1="-0.463207" y1="-0.364641" x2="-0.348885" y2="-0.293034" style="stroke:rgb(246,147,147);stroke-width:0.01" />
<line x1="-0.388452" y1="0.160668" x2="-0.811435" y2="0.369462" style="stroke:rgb(246,147,147);stroke-width:0.01" />
<line x1="-0.45271" y1="-0.377905" x2="-0.342201" y2="-0.293244" style="stroke:rgb(246,147,147);stroke-width:0.01" />
<line x1="-0.45271" y1="-0.377905" x2="-0.348885" y2="-0.293034" style="stroke:rgb(246,147,147);stroke-width:0.01" />
<line x1="-0.743055" y1="-0.0118184" x2="-0.710285" y2="-0.010376" style="stroke:rgb(246,147,147);stroke-width:0.01" />
<line x1="-0.381952" y1="-0.391821" x2="-0.311446" y2="-0.301151" style="stroke:rgb(246,147,147);stroke-width:0.01" />
<line x1="-0.448128" y1="-0.383694" x2="-0.423658" y2="-0.161295" style="stroke:rgb(246,147,147);stroke-width:0.01" />
<line x1="-0.463207" y1="-0.364641" x2="-0.326783" y2="-0.229834" style="stroke:rgb(246,147,147);stroke-width:0.01" />
<line x1="-0.42691" y1="-0.410502" x2="-0.259897" y2="-0.179314" style="stroke:rgb(246,147,147);stroke-width:0.01" />
<line x1="-0.342201" y1="-0.293244" x2="-0.284206" y2="-0.126193" style="stroke:rgb(246,147,147);stroke-width:0.01" />
<line x1="-0.638594" y1="-0.143041" x2="-0.531277" y2="0.23117" style="stroke:rgb(246,147,147);stroke-width:0.01" />
<line x1="-0.743055" y1="-0.0118184" x2="-0.639057" y2="0.284373" style="stroke:rgb(246,147,147);stroke-width:0.01" />
<line x1="-0.710285" y1="-0.010376" x2="-0.388452" y2="0.160668" style="stroke:rgb(246,147,147);stroke-width:0.01" />
<line x1="-0.791942" y1="0.0507145" x2="-0.76246" y2="0.0613965" style="stroke:rgb(246,147,147);stroke-width:0.01" />
<line x1="-0.710285" y1="-0.010376" x2="-0.531277" y2="0.23117" style="stroke:rgb(246,147,147);stroke-width:0.01" />
<line x1="-0.791942" y1="0.0507145" x2="-0.639057" y2="0.284373" style="stroke:rgb(246,147,147);stroke-width:0.01" />
<line x1="-0.898101" y1="0.330171" x2="-0.811435" y2="0.369462" style="stroke:rgb(246,147,147);stroke-width:0.01" />
</svg>
