<svg xmlns="http://www.w3.org/2000/svg" viewBox="-1.5 -1.5 3 3">
<path d="M0.160923 -0.373670 L0.285958 -0.321714 L0.269549 -0.223305 L0.327937 -0.142482 L0.303628 -0.089360 L0.247658 -0.092021 L0.199382 0.197500 L-0.223601 0.406294 L-0.310267 0.367003 L-0.191977 0.106087 L-0.204108 0.087547 L-0.156032 0.026802 L-0.155221 0.025014 L-0.154637 0.025039 L-0.142596 0.009825 L-0.129599 0.001322 L-0.126999 -0.009881 z " fill="rgb(245,195,195)" />
<path d="M0.587834 0.036832 L1.587834 0.036832 L1.587834 1.036832 L0.587834 1.036832  z" fill="none" stroke="rgb(128,128,128)" stroke-width="0.01" />
<line x1="0.205881" y1="-0.354989" x2="0.139706" y2="-0.346862" style="stroke:rgb(246,147,147);stroke-width:0.01" />
<line x1="0.160923" y1="-0.37367" x2="-0.126999" y2="-0.00988111" style="stroke:rgb(246,147,147);stroke-width:0.01" />
<line x1="-0.142596" y1="0.00982549" x2="-0.204108" y2="0.0875466" style="stroke:rgb(246,147,147);stroke-width:0.01" />
<line x1="0.276388" y1="-0.264319" x2="-0.142596" y2="0.00982549" style="stroke:rgb(246,147,147);stroke-width:0.01" />
<line x1="0.278606" y1="-0.210768" x2="-0.126999" y2="-0.00988111" style="stroke:rgb(246,147,147);stroke-width:0.01" />
<line x1="-0.155221" y1="0.0250137" x2="-0.310267" y2="0.367003" style="stroke:rgb(246,147,147);stroke-width:0.01" />
<line x1="0.278606" y1="-0.210768" x2="0.261051" y2="-0.193001" style="stroke:rgb(246,147,147);stroke-width:0.01" />
<line x1="0.285958" y1="-0.321714" x2="0.238949" y2="-0.256202" style="stroke:rgb(246,147,147);stroke-width:0.01" />
<line x1="-0.142596" y1="0.00982549" x2="-0.174627" y2="0.0982286" style="stroke:rgb(246,147,147);stroke-width:0.01" />
<line x1="0.327937" y1="-0.142482" x2="0.164176" y2="-0.124463" style="stroke:rgb(246,147,147);stroke-width:0.01" />
<line x1="0.160923" y1="-0.37367" x2="0.285958" y2="-0.321714" style="stroke:rgb(246,147,147);stroke-width:0.01" />
<line x1="-0.126999" y1="-0.00988111" x2="-0.223601" y2="0.406294" style="stroke:rgb(246,147,147);stroke-width:0.01" />
<line x1="0.327937" y1="-0.142482" x2="0.303628" y2="-0.0893604" style="stroke:rgb(246,147,147);stroke-width:0.01" />
<line x1="-0.05076" y1="-0.106209" x2="0.303628" y2="-0.0893604" style="stroke:rgb(246,147,147);stroke-width:0.01" />
<line x1="0.285958" y1="-0.321714" x2="0.199382" y2="0.1975" style="stroke:rgb(246,147,147);stroke-width:0.01" />
<line x1="0.124626" y1="-0.327809" x2="0.238949" y2="-0.256202" style="stroke:rgb(246,147,147);stroke-width:0.01" />
<line x1="0.199382" y1="0.1975" x2="-0.223601" y2="0.406294" style="stroke:rgb(246,147,147);stroke-width:0.01" />
<line x1="0.135124" y1="-0.341073" x2="0.245633" y2="-0.256411" style="stroke:rgb(246,147,147);stroke-width:0.01" />
<line x1="0.135124" y1="-0.341073" x2="0.238949" y2="-0.256202" style="stroke:rgb(246,147,147);stroke-width:0.01" />
<line x1="-0.155221" y1="0.0250137" x2="-0.122452" y2="0.0264561" style="stroke:rgb(246,147,147);stroke-width:0.01" />
<line x1="0.205881" y1="-0.354989" x2="0.276388" y2="-0.264319" style="stroke:rgb(246,147,147);stroke-width:0.01" />
<line x1="0.139706" y1="-0.346862" x2="0.164176" y2="-0.124463" style="stroke:rgb(246,147,147);stroke-width:0.01" />
<line x1="0.124626" y1="-0.327809" x2="0.261051" y2="-0.193001" style="stroke:rgb(246,147,147);stroke-width:0.01" />
<line x1="0.160923" y1="-0.37367" x2="0.327937" y2="-0.142482" style="stroke:rgb(246,147,147);stroke-width:0.01" />
<line x1="0.245633" y1="-0.256411" x2="0.303628" y2="-0.0893604" style="stroke:rgb(246,147,147);stroke-width:0.01" />
<line x1="-0.05076" y1="-0.106209" x2="0.0565572" y2="0.268002" style="stroke:rgb(246,147,147);stroke-width:0.01" />
<line x1="-0.155221" y1="0.0250137" x2="-0.0512235" y2="0.321205" style="stroke:rgb(246,147,147);stroke-width:0.01" />
<line x1="-0.122452" y1="0.0264561" x2="0.199382" y2="0.1975" style="stroke:rgb(246,147,147);stroke-width:0.01" />
<line x1="-0.204108" y1="0.0875466" x2="-0.174627" y2="0.0982286" style="stroke:rgb(246,147,147);stroke-width:0.01" />
<line x1="-0.122452" y1="0.0264561" x2="0.0565572" y2="0.268002" style="stroke:rgb(246,147,147);stroke-width:0.01" />
<line x1="-0.204108" y1="0.0875466" x2="-0.0512235" y2="0.321205" style="stroke:rgb(246,147,147);stroke-width:0.01" />
<line x1="-0.310267" y1="0.367003" x2="-0.223601" y2="0.406294" style="stroke:rgb(246,147,147);stroke-width:0.01" />
</svg>
