<svg xmlns="http://www.w3.org/2000/svg" viewBox="-1.5 -1.5 3 3">
<g transform="scale(1, -1)">
<path d="M0.237977 -0.416875 L0.463843 -0.137292 L0.690267 -0.137292 L0.690267 0.142982 L0.087492 0.356043 L-0.507808 0.185620 L-0.521317 0.146642 L-0.413157 0.109155 L-0.309733 0.025602 L-0.309733 -0.137292 L-0.108099 -0.137292 z " fill="rgb(245,195,195)" />
<path d="M-0.309733 -0.137292 L0.690267 -0.137292 L0.690267 0.862708 L-0.309733 0.862708  z" fill="none" stroke="rgb(128,128,128)" stroke-width="0.01" />
<line x1="0.237977" y1="-0.416875" x2="0.690267" y2="0.142982" style="stroke:rgb(246,147,147);stroke-width:0.01" />
<line x1="-0.175253" y1="0.0267005" x2="0.087492" y2="0.356043" style="stroke:rgb(246,147,147);stroke-width:0.01" />
<line x1="-0.309733" y1="-0.137292" x2="0.690267" y2="-0.137292" style="stroke:rgb(246,147,147);stroke-width:0.01" />
<line x1="-0.309733" y1="-0.137292" x2="-0.309733" y2="0.242325" style="stroke:rgb(246,147,147);stroke-width:0.01" />
<line x1="0.690267" y1="-0.137292" x2="0.690267" y2="0.142982" style="stroke:rgb(246,147,147);stroke-width:0.01" />
<line x1="-0.521317" y1="0.146642" x2="-0.507808" y2="0.18562" style="stroke:rgb(246,147,147);stroke-width:0.01" />
<line x1="0.237977" y1="-0.416875" x2="-0.507808" y2="0.18562" style="stroke:rgb(246,147,147);stroke-width:0.01" />
<line x1="-0.175253" y1="0.0267005" x2="-0.309733" y2="0.242325" style="stroke:rgb(246,147,147);stroke-width:0.01" />
<line x1="-0.175253" y1="0.0267005" x2="-0.521317" y2="0.146642" style="stroke:rgb(246,147,147);stroke-width:0.01" />
<line x1="-0.507808" y1="0.18562" x2="0.087492" y2="0.356043" style="stroke:rgb(246,147,147);stroke-width:0.01" />
<line x1="0.690267" y1="0.142982" x2="0.087492" y2="0.356043" style="stroke:rgb(246,147,147);stroke-width:0.01" />
</g>
</svg>
