<svg xmlns="http://www.w3.org/2000/svg" viewBox="-1.5 -1.5 3 3">
<g transform="scale(1, -1)">
<path d="M0.547710 -0.279584 L0.773576 0.000000 L1.000000 0.000000 L1.000000 0.280273 L0.397225 0.493334 L-0.198075 0.322912 L-0.211584 0.283933 L-0.103424 0.246447 L0.000000 0.162893 L0.000000 0.000000 L0.201634 0.000000 z " fill="rgb(245,195,195)" />
<path d="M0.000000 0.000000 L1.000000 0.000000 L1.000000 1.000000 L0.000000 1.000000  z" fill="none" stroke="rgb(128,128,128)" stroke-width="0.01" />
<line x1="0.54771" y1="-0.279584" x2="1" y2="0.280273" style="stroke:rgb(246,147,147);stroke-width:0.01" />
<line x1="0.13448" y1="0.163992" x2="0.397225" y2="0.493334" style="stroke:rgb(246,147,147);stroke-width:0.01" />
<line x1="0" y1="0" x2="1" y2="0" style="stroke:rgb(246,147,147);stroke-width:0.01" />
<line x1="0" y1="0" x2="0" y2="0.379617" style="stroke:rgb(246,147,147);stroke-width:0.01" />
<line x1="1" y1="0" x2="1" y2="0.280273" style="stroke:rgb(246,147,147);stroke-width:0.01" />
<line x1="-0.211584" y1="0.283933" x2="-0.198075" y2="0.322912" style="stroke:rgb(246,147,147);stroke-width:0.01" />
<line x1="0.54771" y1="-0.279584" x2="-0.198075" y2="0.322912" style="stroke:rgb(246,147,147);stroke-width:0.01" />
<line x1="0.13448" y1="0.163992" x2="0" y2="0.379617" style="stroke:rgb(246,147,147);stroke-width:0.01" />
<line x1="0.13448" y1="0.163992" x2="-0.211584" y2="0.283933" style="stroke:rgb(246,147,147);stroke-width:0.01" />
<line x1="-0.198075" y1="0.322912" x2="0.397225" y2="0.493334" style="stroke:rgb(246,147,147);stroke-width:0.01" />
<line x1="1" y1="0.280273" x2="0.397225" y2="0.493334" style="stroke:rgb(246,147,147);stroke-width:0.01" />
</g>
</svg>
