<svg xmlns="http://www.w3.org/2000/svg" viewBox="-1.5 -1.5 3 3">
<g transform="scale(1, -1)">
<path d="M0.122663 -0.548220 L0.807982 -0.270837 L0.796142 -0.241583 L-0.265475 0.377816 L-0.300101 0.359473 L-0.268300 0.291195 L-0.262028 0.251624 L-0.250372 0.252702 L-0.243027 0.236933 L-0.164142 -0.367012 L0.026657 -0.342091 z " fill="rgb(245,195,195)" />
<path d="M-0.287970 0.537095 L0.712030 0.537095 L0.712030 1.537095 L-0.287970 1.537095  z" fill="none" stroke="rgb(128,128,128)" stroke-width="0.01" />
<line x1="0.122663" y1="-0.54822" x2="0.807982" y2="-0.270837" style="stroke:rgb(246,147,147);stroke-width:0.01" />
<line x1="0.154662" y1="-0.515299" x2="0.256734" y2="-0.477196" style="stroke:rgb(246,147,147);stroke-width:0.01" />
<line x1="0.122663" y1="-0.54822" x2="0.256734" y2="-0.477196" style="stroke:rgb(246,147,147);stroke-width:0.01" />
<line x1="-0.164142" y1="-0.367012" x2="0.796142" y2="-0.241583" style="stroke:rgb(246,147,147);stroke-width:0.01" />
<line x1="-0.262028" y1="0.251624" x2="-0.0783184" y2="0.26862" style="stroke:rgb(246,147,147);stroke-width:0.01" />
<line x1="-0.268903" y1="0.295002" x2="-0.154591" y2="0.313121" style="stroke:rgb(246,147,147);stroke-width:0.01" />
<line x1="-0.300101" y1="0.359473" x2="-0.261095" y2="0.37526" style="stroke:rgb(246,147,147);stroke-width:0.01" />
<line x1="-0.300101" y1="0.359473" x2="-0.265475" y2="0.377816" style="stroke:rgb(246,147,147);stroke-width:0.01" />
<line x1="0.796142" y1="-0.241583" x2="-0.265475" y2="0.377816" style="stroke:rgb(246,147,147);stroke-width:0.01" />
<line x1="0.122663" y1="-0.54822" x2="-0.300101" y2="0.359473" style="stroke:rgb(246,147,147);stroke-width:0.01" />
<line x1="-0.262028" y1="0.251624" x2="-0.268903" y2="0.295002" style="stroke:rgb(246,147,147);stroke-width:0.01" />
<line x1="-0.262028" y1="0.251624" x2="-0.265475" y2="0.377816" style="stroke:rgb(246,147,147);stroke-width:0.01" />
<line x1="-0.164142" y1="-0.367012" x2="-0.261095" y2="0.37526" style="stroke:rgb(246,147,147);stroke-width:0.01" />
<line x1="0.154662" y1="-0.515299" x2="-0.154591" y2="0.313121" style="stroke:rgb(246,147,147);stroke-width:0.01" />
<line x1="0.256734" y1="-0.477196" x2="-0.0783184" y2="0.26862" style="stroke:rgb(246,147,147);stroke-width:0.01" />
<line x1="0.807982" y1="-0.270837" x2="0.796142" y2="-0.241583" style="stroke:rgb(246,147,147);stroke-width:0.01" />
</g>
</svg>
