<svg xmlns="http://www.w3.org/2000/svg" viewBox="-1.5 -1.5 3 3">
<g transform="scale(1, -1)">
<path d="M0.509959 -0.604852 L0.592310 -0.348206 L-0.110873 0.481974 L-0.192968 0.547581 L-0.275183 0.535556 L-0.243607 0.319664 L-0.264783 0.253671 L-0.224227 0.187153 L-0.130465 -0.453917 L0.142306 -0.414022 L0.197532 -0.504602 z " fill="rgb(245,195,195)" />
<path d="M0.139640 0.015464 L1.139640 0.015464 L1.139640 1.015464 L0.139640 1.015464  z" fill="none" stroke="rgb(128,128,128)" stroke-width="0.01" />
<line x1="0.509959" y1="-0.604852" x2="0.197532" y2="-0.504602" style="stroke:rgb(246,147,147);stroke-width:0.01" />
<line x1="-0.130465" y1="-0.453917" x2="0.59231" y2="-0.348206" style="stroke:rgb(246,147,147);stroke-width:0.01" />
<line x1="0.509959" y1="-0.604852" x2="0.59231" y2="-0.348206" style="stroke:rgb(246,147,147);stroke-width:0.01" />
<line x1="0.197532" y1="-0.504602" x2="-0.264783" y2="0.253671" style="stroke:rgb(246,147,147);stroke-width:0.01" />
<line x1="-0.130465" y1="-0.453917" x2="-0.275183" y2="0.535556" style="stroke:rgb(246,147,147);stroke-width:0.01" />
<line x1="0.197532" y1="-0.504602" x2="0.284273" y2="0.0154637" style="stroke:rgb(246,147,147);stroke-width:0.01" />
<line x1="-0.19113" y1="0.5238" x2="-0.192968" y2="0.547581" style="stroke:rgb(246,147,147);stroke-width:0.01" />
<line x1="0.13964" y1="0.0154637" x2="0.284273" y2="0.0154637" style="stroke:rgb(246,147,147);stroke-width:0.01" />
<line x1="0.13964" y1="0.0154637" x2="0.13964" y2="0.186218" style="stroke:rgb(246,147,147);stroke-width:0.01" />
<line x1="0.59231" y1="-0.348206" x2="-0.110873" y2="0.481974" style="stroke:rgb(246,147,147);stroke-width:0.01" />
<line x1="-0.264783" y1="0.253671" x2="-0.175065" y2="0.533274" style="stroke:rgb(246,147,147);stroke-width:0.01" />
<line x1="-0.110873" y1="0.481974" x2="-0.192968" y2="0.547581" style="stroke:rgb(246,147,147);stroke-width:0.01" />
<line x1="0.13964" y1="0.186218" x2="-0.264783" y2="0.253671" style="stroke:rgb(246,147,147);stroke-width:0.01" />
<line x1="-0.110873" y1="0.481974" x2="-0.19113" y2="0.5238" style="stroke:rgb(246,147,147);stroke-width:0.01" />
<line x1="-0.19113" y1="0.5238" x2="-0.175065" y2="0.533274" style="stroke:rgb(246,147,147);stroke-width:0.01" />
<line x1="-0.275183" y1="0.535556" x2="-0.192968" y2="0.547581" style="stroke:rgb(246,147,147);stroke-width:0.01" />
</g>
</svg>
