<svg xmlns="http://www.w3.org/2000/svg" viewBox="-1.5 -1.5 3 3">
<g transform="scale(1, -1)">
<path d="M0.538960 -0.011922 L0.553775 0.000000 L1.000000 0.000000 L1.000000 0.077321 L1.016376 0.079912 L1.002195 0.169536 L1.419913 0.434264 L1.430151 0.504693 L1.362397 0.514541 L1.360772 0.643737 L1.000000 0.639199 L0.651049 0.285831 L0.527717 0.000000 z " fill="rgb(245,195,195)" />
<path d="M0.000000 0.000000 L1.000000 0.000000 L1.000000 1.000000 L0.000000 1.000000  z" fill="none" stroke="rgb(128,128,128)" stroke-width="0.01" />
<line x1="0.903702" y1="0.107116" x2="1.41991" y2="0.434264" style="stroke:rgb(246,147,147);stroke-width:0.01" />
<line x1="0.903702" y1="0.107116" x2="1.07418" y2="0.539971" style="stroke:rgb(246,147,147);stroke-width:0.01" />
<line x1="0.53896" y1="-0.0119222" x2="0.64344" y2="0.0721583" style="stroke:rgb(246,147,147);stroke-width:0.01" />
<line x1="1.41991" y1="0.434264" x2="1.43015" y2="0.504693" style="stroke:rgb(246,147,147);stroke-width:0.01" />
<line x1="0.527717" y1="0" x2="0.651049" y2="0.285831" style="stroke:rgb(246,147,147);stroke-width:0.01" />
<line x1="0.651049" y1="0.285831" x2="1" y2="0.639199" style="stroke:rgb(246,147,147);stroke-width:0.01" />
<line x1="0.528918" y1="0.00278291" x2="1.01638" y2="0.0799116" style="stroke:rgb(246,147,147);stroke-width:0.01" />
<line x1="0.64344" y1="0.0721583" x2="0.651049" y2="0.285831" style="stroke:rgb(246,147,147);stroke-width:0.01" />
<line x1="0.527717" y1="0" x2="1" y2="0" style="stroke:rgb(246,147,147);stroke-width:0.01" />
<line x1="1" y1="0" x2="1" y2="0.639199" style="stroke:rgb(246,147,147);stroke-width:0.01" />
<line x1="1.36385" y1="0.398737" x2="1.36077" y2="0.643737" style="stroke:rgb(246,147,147);stroke-width:0.01" />
<line x1="1.01638" y1="0.0799116" x2="0.937842" y2="0.576254" style="stroke:rgb(246,147,147);stroke-width:0.01" />
<line x1="0.903702" y1="0.107116" x2="0.583064" y2="0.128271" style="stroke:rgb(246,147,147);stroke-width:0.01" />
<line x1="0.53896" y1="-0.0119222" x2="0.528918" y2="0.00278291" style="stroke:rgb(246,147,147);stroke-width:0.01" />
<line x1="0.53896" y1="-0.0119222" x2="0.527717" y2="0" style="stroke:rgb(246,147,147);stroke-width:0.01" />
<line x1="0.64344" y1="0.0721583" x2="0.583064" y2="0.128271" style="stroke:rgb(246,147,147);stroke-width:0.01" />
<line x1="1" y1="0.639199" x2="1.36077" y2="0.643737" style="stroke:rgb(246,147,147);stroke-width:0.01" />
<line x1="1.43015" y1="0.504693" x2="0.937842" y2="0.576254" style="stroke:rgb(246,147,147);stroke-width:0.01" />
<line x1="1.41991" y1="0.434264" x2="1.07418" y2="0.539971" style="stroke:rgb(246,147,147);stroke-width:0.01" />
<line x1="1.36385" y1="0.398737" x2="1.07418" y2="0.539971" style="stroke:rgb(246,147,147);stroke-width:0.01" />
</g>
</svg>
