<svg xmlns="http://www.w3.org/2000/svg" viewBox="-1.5 -1.5 3 3">
<g transform="scale(1, -1)">
<path d="M-0.136373 -0.224695 L-0.064661 -0.134438 L0.337375 -0.134438 L0.337375 -0.046702 L0.429481 0.000153 L0.337375 0.181213 L0.337375 0.291317 L-0.002723 0.325579 L-0.662625 0.010887 L-0.662625 -0.134438 L-0.249972 -0.134438 z " fill="rgb(245,195,195)" />
<path d="M-0.662625 -0.134438 L0.337375 -0.134438 L0.337375 0.865562 L-0.662625 0.865562  z" fill="none" stroke="rgb(128,128,128)" stroke-width="0.01" />
<line x1="0.260625" y1="-0.085746" x2="0.429481" y2="0.000153127" style="stroke:rgb(246,147,147);stroke-width:0.01" />
<line x1="-0.136373" y1="-0.224695" x2="0.278338" y2="0.297265" style="stroke:rgb(246,147,147);stroke-width:0.01" />
<line x1="0.260625" y1="-0.085746" x2="0.337375" y2="0.291317" style="stroke:rgb(246,147,147);stroke-width:0.01" />
<line x1="-0.17879" y1="0.0570992" x2="-0.00272289" y2="0.325579" style="stroke:rgb(246,147,147);stroke-width:0.01" />
<line x1="-0.520784" y1="-0.104012" x2="-0.17879" y2="0.0570992" style="stroke:rgb(246,147,147);stroke-width:0.01" />
<line x1="-0.17879" y1="0.0570992" x2="-0.173109" y2="0.244326" style="stroke:rgb(246,147,147);stroke-width:0.01" />
<line x1="-0.520784" y1="-0.104012" x2="-0.519052" y2="0.0793535" style="stroke:rgb(246,147,147);stroke-width:0.01" />
<line x1="-0.662625" y1="-0.134438" x2="0.337375" y2="-0.134438" style="stroke:rgb(246,147,147);stroke-width:0.01" />
<line x1="-0.662625" y1="-0.134438" x2="-0.662625" y2="0.0108868" style="stroke:rgb(246,147,147);stroke-width:0.01" />
<line x1="0.337375" y1="-0.134438" x2="0.337375" y2="0.291317" style="stroke:rgb(246,147,147);stroke-width:0.01" />
<line x1="-0.520784" y1="-0.104012" x2="-0.662625" y2="0.0108868" style="stroke:rgb(246,147,147);stroke-width:0.01" />
<line x1="-0.662625" y1="0.0108868" x2="-0.00272289" y2="0.325579" style="stroke:rgb(246,147,147);stroke-width:0.01" />
<line x1="-0.136373" y1="-0.224695" x2="-0.519052" y2="0.0793535" style="stroke:rgb(246,147,147);stroke-width:0.01" />
<line x1="0.429481" y1="0.000153127" x2="0.278338" y2="0.297265" style="stroke:rgb(246,147,147);stroke-width:0.01" />
<line x1="0.260625" y1="-0.085746" x2="-0.173109" y2="0.244326" style="stroke:rgb(246,147,147);stroke-width:0.01" />
<line x1="0.337375" y1="0.291317" x2="-0.00272289" y2="0.325579" style="stroke:rgb(246,147,147);stroke-width:0.01" />
</g>
</svg>
