<svg xmlns="http://www.w3.org/2000/svg" viewBox="-1.5 -1.5 3 3">
<g transform="scale(1, -1)">
<path d="M0.907692 0.054795 L0.532468 0.984375 L0.101449 0.263889 z " fill="rgb(245,195,195)" />
<path d="M0.000000 0.000000 L1.000000 0.000000 L1.000000 1.000000 L0.000000 1.000000  z" fill="none" stroke="rgb(128,128,128)" stroke-width="0.01" />
<line x1="0.836827" y1="0.073173" x2="0.858762" y2="0.087923" style="stroke:rgb(246,147,147);stroke-width:0.01" />
<line x1="0.816959" y1="0.112159" x2="0.873008" y2="0.140722" style="stroke:rgb(246,147,147);stroke-width:0.01" />
<line x1="0.854605" y1="0.0685624" x2="0.87506" y2="0.135638" style="stroke:rgb(246,147,147);stroke-width:0.01" />
<line x1="0.854605" y1="0.0685624" x2="0.858762" y2="0.087923" style="stroke:rgb(246,147,147);stroke-width:0.01" />
<line x1="0.736675" y1="0.099147" x2="0.873008" y2="0.140722" style="stroke:rgb(246,147,147);stroke-width:0.01" />
<line x1="0.420667" y1="0.530138" x2="0.542026" y2="0.960694" style="stroke:rgb(246,147,147);stroke-width:0.01" />
<line x1="0.529686" y1="0.967756" x2="0.532468" y2="0.984375" style="stroke:rgb(246,147,147);stroke-width:0.01" />
<line x1="0.278435" y1="0.351785" x2="0.329385" y2="0.431145" style="stroke:rgb(246,147,147);stroke-width:0.01" />
<line x1="0.101449" y1="0.263889" x2="0.532468" y2="0.984375" style="stroke:rgb(246,147,147);stroke-width:0.01" />
<line x1="0.246088" y1="0.226378" x2="0.732961" y2="0.487672" style="stroke:rgb(246,147,147);stroke-width:0.01" />
<line x1="0.101449" y1="0.263889" x2="0.278435" y2="0.351785" style="stroke:rgb(246,147,147);stroke-width:0.01" />
<line x1="0.246088" y1="0.226378" x2="0.1596" y2="0.361094" style="stroke:rgb(246,147,147);stroke-width:0.01" />
<line x1="0.661885" y1="0.467638" x2="0.521433" y2="0.96593" style="stroke:rgb(246,147,147);stroke-width:0.01" />
<line x1="0.661885" y1="0.467638" x2="0.732961" y2="0.487672" style="stroke:rgb(246,147,147);stroke-width:0.01" />
<line x1="0.907692" y1="0.0547945" x2="0.101449" y2="0.263889" style="stroke:rgb(246,147,147);stroke-width:0.01" />
<line x1="0.907692" y1="0.0547945" x2="0.532468" y2="0.984375" style="stroke:rgb(246,147,147);stroke-width:0.01" />
<line x1="0.836827" y1="0.073173" x2="0.816959" y2="0.112159" style="stroke:rgb(246,147,147);stroke-width:0.01" />
<line x1="0.278435" y1="0.351785" x2="0.1596" y2="0.361094" style="stroke:rgb(246,147,147);stroke-width:0.01" />
<line x1="0.736675" y1="0.099147" x2="0.283806" y2="0.568714" style="stroke:rgb(246,147,147);stroke-width:0.01" />
<line x1="0.329385" y1="0.431145" x2="0.236992" y2="0.490461" style="stroke:rgb(246,147,147);stroke-width:0.01" />
<line x1="0.907692" y1="0.0547945" x2="0.858762" y2="0.087923" style="stroke:rgb(246,147,147);stroke-width:0.01" />
<line x1="0.87506" y1="0.135638" x2="0.236992" y2="0.490461" style="stroke:rgb(246,147,147);stroke-width:0.01" />
<line x1="0.420667" y1="0.530138" x2="0.283806" y2="0.568714" style="stroke:rgb(246,147,147);stroke-width:0.01" />
<line x1="0.521433" y1="0.96593" x2="0.529686" y2="0.967756" style="stroke:rgb(246,147,147);stroke-width:0.01" />
<line x1="0.529686" y1="0.967756" x2="0.524446" y2="0.970966" style="stroke:rgb(246,147,147);stroke-width:0.01" />
<line x1="0.542026" y1="0.960694" x2="0.524446" y2="0.970966" style="stroke:rgb(246,147,147);stroke-width:0.01" />
</g>
</svg>
