<svg xmlns="http://www.w3.org/2000/svg" viewBox="-1.5 -1.5 3 3">
<g transform="scale(1, -1)">
<path d="M0.123605 -0.210713 L0.158519 -0.130690 L0.416472 -0.130690 L0.416472 0.134040 L0.440754 0.126281 L0.670982 0.232750 L0.634898 0.310779 L-0.025312 0.275223 L-0.192761 0.201062 L-0.583528 -0.129603 L-0.583528 -0.130690 L-0.577049 -0.130690 L-0.428100 -0.155681 L-0.411614 -0.130690 L-0.059811 -0.130690 z " fill="rgb(245,195,195)" />
<path d="M-0.583528 -0.130690 L0.416472 -0.130690 L0.416472 0.869310 L-0.583528 0.869310  z" fill="none" stroke="rgb(128,128,128)" stroke-width="0.01" />
<line x1="0.434931" y1="0.128142" x2="0.595247" y2="0.308643" style="stroke:rgb(246,147,147);stroke-width:0.01" />
<line x1="0.625047" y1="0.281599" x2="0.634898" y2="0.310779" style="stroke:rgb(246,147,147);stroke-width:0.01" />
<line x1="0.123605" y1="-0.210713" x2="0.344301" y2="0.295129" style="stroke:rgb(246,147,147);stroke-width:0.01" />
<line x1="0.440754" y1="0.126281" x2="0.670982" y2="0.23275" style="stroke:rgb(246,147,147);stroke-width:0.01" />
<line x1="-0.4281" y1="-0.155681" x2="-0.192761" y2="0.201062" style="stroke:rgb(246,147,147);stroke-width:0.01" />
<line x1="-0.465813" y1="-0.0969362" x2="-0.417681" y2="0.0107363" style="stroke:rgb(246,147,147);stroke-width:0.01" />
<line x1="-0.583528" y1="-0.13069" x2="0.416472" y2="-0.13069" style="stroke:rgb(246,147,147);stroke-width:0.01" />
<line x1="-0.583528" y1="-0.13069" x2="-0.583528" y2="-0.129603" style="stroke:rgb(246,147,147);stroke-width:0.01" />
<line x1="0.416472" y1="-0.13069" x2="0.416472" y2="0.299016" style="stroke:rgb(246,147,147);stroke-width:0.01" />
<line x1="-0.583528" y1="-0.129603" x2="-0.192761" y2="0.201062" style="stroke:rgb(246,147,147);stroke-width:0.01" />
<line x1="-0.4281" y1="-0.155681" x2="-0.583528" y2="-0.129603" style="stroke:rgb(246,147,147);stroke-width:0.01" />
<line x1="-0.465813" y1="-0.0969362" x2="-0.380281" y2="-0.0831928" style="stroke:rgb(246,147,147);stroke-width:0.01" />
<line x1="-0.380281" y1="-0.0831928" x2="-0.40621" y2="0.0204425" style="stroke:rgb(246,147,147);stroke-width:0.01" />
<line x1="-0.4281" y1="-0.155681" x2="-0.465813" y2="-0.0969362" style="stroke:rgb(246,147,147);stroke-width:0.01" />
<line x1="-0.417681" y1="0.0107363" x2="0.625047" y2="0.281599" style="stroke:rgb(246,147,147);stroke-width:0.01" />
<line x1="0.434931" y1="0.128142" x2="0.416472" y2="0.299016" style="stroke:rgb(246,147,147);stroke-width:0.01" />
<line x1="-0.192761" y1="0.201062" x2="-0.0253117" y2="0.275223" style="stroke:rgb(246,147,147);stroke-width:0.01" />
<line x1="0.123605" y1="-0.210713" x2="-0.40621" y2="0.0204425" style="stroke:rgb(246,147,147);stroke-width:0.01" />
<line x1="-0.0253117" y1="0.275223" x2="0.634898" y2="0.310779" style="stroke:rgb(246,147,147);stroke-width:0.01" />
<line x1="0.440754" y1="0.126281" x2="0.344301" y2="0.295129" style="stroke:rgb(246,147,147);stroke-width:0.01" />
<line x1="0.440754" y1="0.126281" x2="-0.0253117" y2="0.275223" style="stroke:rgb(246,147,147);stroke-width:0.01" />
<line x1="0.670982" y1="0.23275" x2="0.634898" y2="0.310779" style="stroke:rgb(246,147,147);stroke-width:0.01" />
<line x1="0.625047" y1="0.281599" x2="0.595247" y2="0.308643" style="stroke:rgb(246,147,147);stroke-width:0.01" />
</g>
</svg>
