<svg xmlns="http://www.w3.org/2000/svg" viewBox="-1.5 -1.5 3 3">
<g transform="scale(1, -1)">
<path d="M0.707133 -0.080023 L0.742047 0.000000 L1.000000 0.000000 L1.000000 0.264730 L1.024282 0.256970 L1.254510 0.363439 L1.218425 0.441468 L0.558216 0.405913 L0.390767 0.331752 L0.000000 0.001087 L0.000000 0.000000 L0.006478 0.000000 L0.155427 -0.024991 L0.171914 0.000000 L0.523717 0.000000 z " fill="rgb(245,195,195)" />
<path d="M0.000000 0.000000 L1.000000 0.000000 L1.000000 1.000000 L0.000000 1.000000  z" fill="none" stroke="rgb(128,128,128)" stroke-width="0.01" />
<line x1="1.01846" y1="0.258831" x2="1.17877" y2="0.439333" style="stroke:rgb(246,147,147);stroke-width:0.01" />
<line x1="1.20858" y1="0.412288" x2="1.21843" y2="0.441468" style="stroke:rgb(246,147,147);stroke-width:0.01" />
<line x1="0.707133" y1="-0.0800234" x2="0.927829" y2="0.425818" style="stroke:rgb(246,147,147);stroke-width:0.01" />
<line x1="1.02428" y1="0.25697" x2="1.25451" y2="0.363439" style="stroke:rgb(246,147,147);stroke-width:0.01" />
<line x1="0.155427" y1="-0.024991" x2="0.390767" y2="0.331752" style="stroke:rgb(246,147,147);stroke-width:0.01" />
<line x1="0.117714" y1="0.0337535" x2="0.165847" y2="0.141426" style="stroke:rgb(246,147,147);stroke-width:0.01" />
<line x1="0" y1="0" x2="1" y2="0" style="stroke:rgb(246,147,147);stroke-width:0.01" />
<line x1="0" y1="0" x2="0" y2="0.00108696" style="stroke:rgb(246,147,147);stroke-width:0.01" />
<line x1="1" y1="0" x2="1" y2="0.429705" style="stroke:rgb(246,147,147);stroke-width:0.01" />
<line x1="0" y1="0.00108696" x2="0.390767" y2="0.331752" style="stroke:rgb(246,147,147);stroke-width:0.01" />
<line x1="0.155427" y1="-0.024991" x2="0" y2="0.00108696" style="stroke:rgb(246,147,147);stroke-width:0.01" />
<line x1="0.117714" y1="0.0337535" x2="0.203247" y2="0.0474969" style="stroke:rgb(246,147,147);stroke-width:0.01" />
<line x1="0.203247" y1="0.0474969" x2="0.177317" y2="0.151132" style="stroke:rgb(246,147,147);stroke-width:0.01" />
<line x1="0.155427" y1="-0.024991" x2="0.117714" y2="0.0337535" style="stroke:rgb(246,147,147);stroke-width:0.01" />
<line x1="0.165847" y1="0.141426" x2="1.20858" y2="0.412288" style="stroke:rgb(246,147,147);stroke-width:0.01" />
<line x1="1.01846" y1="0.258831" x2="1" y2="0.429705" style="stroke:rgb(246,147,147);stroke-width:0.01" />
<line x1="0.390767" y1="0.331752" x2="0.558216" y2="0.405913" style="stroke:rgb(246,147,147);stroke-width:0.01" />
<line x1="0.707133" y1="-0.0800234" x2="0.177317" y2="0.151132" style="stroke:rgb(246,147,147);stroke-width:0.01" />
<line x1="0.558216" y1="0.405913" x2="1.21843" y2="0.441468" style="stroke:rgb(246,147,147);stroke-width:0.01" />
<line x1="1.02428" y1="0.25697" x2="0.927829" y2="0.425818" style="stroke:rgb(246,147,147);stroke-width:0.01" />
<line x1="1.02428" y1="0.25697" x2="0.558216" y2="0.405913" style="stroke:rgb(246,147,147);stroke-width:0.01" />
<line x1="1.25451" y1="0.363439" x2="1.21843" y2="0.441468" style="stroke:rgb(246,147,147);stroke-width:0.01" />
<line x1="1.20858" y1="0.412288" x2="1.17877" y2="0.439333" style="stroke:rgb(246,147,147);stroke-width:0.01" />
</g>
</svg>
