<svg xmlns="http://www.w3.org/2000/svg" viewBox="-1.5 -1.5 3 3">
<g transform="scale(1, -1)">
<path d="M-0.238574 -0.319285 L-0.121463 -0.140269 L0.079518 -0.140269 L0.371267 -0.228640 L0.577938 0.084223 L0.373263 0.219426 L0.374052 0.396392 L0.230039 0.397034 L-0.156678 0.189017 L-0.502590 -0.146567 L-0.496587 -0.156380 L-0.490186 -0.154682 z " fill="rgb(245,195,195)" />
<path d="M-0.839213 -0.140269 L0.160787 -0.140269 L0.160787 0.859731 L-0.839213 0.859731  z" fill="none" stroke="rgb(128,128,128)" stroke-width="0.01" />
<line x1="0.371267" y1="-0.22864" x2="0.577938" y2="0.084223" style="stroke:rgb(246,147,147);stroke-width:0.01" />
<line x1="-0.238574" y1="-0.319285" x2="0.230039" y2="0.397034" style="stroke:rgb(246,147,147);stroke-width:0.01" />
<line x1="-0.330782" y1="-0.112387" x2="-0.156678" y2="0.189017" style="stroke:rgb(246,147,147);stroke-width:0.01" />
<line x1="-0.50259" y1="-0.146567" x2="-0.156678" y2="0.189017" style="stroke:rgb(246,147,147);stroke-width:0.01" />
<line x1="-0.496587" y1="-0.15638" x2="-0.330782" y2="-0.112387" style="stroke:rgb(246,147,147);stroke-width:0.01" />
<line x1="-0.156678" y1="0.189017" x2="0.230039" y2="0.397034" style="stroke:rgb(246,147,147);stroke-width:0.01" />
<line x1="-0.496587" y1="-0.15638" x2="-0.496098" y2="-0.140269" style="stroke:rgb(246,147,147);stroke-width:0.01" />
<line x1="0.371267" y1="-0.22864" x2="0.374052" y2="0.396392" style="stroke:rgb(246,147,147);stroke-width:0.01" />
<line x1="-0.496098" y1="-0.140269" x2="0.160787" y2="-0.140269" style="stroke:rgb(246,147,147);stroke-width:0.01" />
<line x1="0.160787" y1="-0.140269" x2="0.160787" y2="0.359783" style="stroke:rgb(246,147,147);stroke-width:0.01" />
<line x1="-0.330782" y1="-0.112387" x2="-0.359139" y2="-0.00739981" style="stroke:rgb(246,147,147);stroke-width:0.01" />
<line x1="-0.496587" y1="-0.15638" x2="-0.50259" y2="-0.146567" style="stroke:rgb(246,147,147);stroke-width:0.01" />
<line x1="-0.238574" y1="-0.319285" x2="-0.50259" y2="-0.146567" style="stroke:rgb(246,147,147);stroke-width:0.01" />
<line x1="0.371267" y1="-0.22864" x2="-0.359139" y2="-0.00739981" style="stroke:rgb(246,147,147);stroke-width:0.01" />
<line x1="0.374052" y1="0.396392" x2="0.230039" y2="0.397034" style="stroke:rgb(246,147,147);stroke-width:0.01" />
<line x1="0.577938" y1="0.084223" x2="0.160787" y2="0.359783" style="stroke:rgb(246,147,147);stroke-width:0.01" />
</g>
</svg>
