<svg xmlns="http://www.w3.org/2000/svg" viewBox="-1.5 -1.5 3 3">
<g transform="scale(1, -1)">
<path d="M0.600638 -0.179016 L0.717750 0.000000 L0.918731 0.000000 L1.210480 -0.088371 L1.417150 0.224492 L1.212476 0.359695 L1.213265 0.536662 L1.069252 0.537303 L0.682535 0.329286 L0.336623 -0.006298 L0.342626 -0.016111 L0.349027 -0.014412 z " fill="rgb(245,195,195)" />
<path d="M0.000000 0.000000 L1.000000 0.000000 L1.000000 1.000000 L0.000000 1.000000  z" fill="none" stroke="rgb(128,128,128)" stroke-width="0.01" />
<line x1="1.21048" y1="-0.0883708" x2="1.41715" y2="0.224492" style="stroke:rgb(246,147,147);stroke-width:0.01" />
<line x1="0.600638" y1="-0.179016" x2="1.06925" y2="0.537303" style="stroke:rgb(246,147,147);stroke-width:0.01" />
<line x1="0.50843" y1="0.0278819" x2="0.682535" y2="0.329286" style="stroke:rgb(246,147,147);stroke-width:0.01" />
<line x1="0.336623" y1="-0.00629766" x2="0.682535" y2="0.329286" style="stroke:rgb(246,147,147);stroke-width:0.01" />
<line x1="0.342626" y1="-0.0161106" x2="0.50843" y2="0.0278819" style="stroke:rgb(246,147,147);stroke-width:0.01" />
<line x1="0.682535" y1="0.329286" x2="1.06925" y2="0.537303" style="stroke:rgb(246,147,147);stroke-width:0.01" />
<line x1="0.342626" y1="-0.0161106" x2="0.343114" y2="0" style="stroke:rgb(246,147,147);stroke-width:0.01" />
<line x1="1.21048" y1="-0.0883708" x2="1.21326" y2="0.536662" style="stroke:rgb(246,147,147);stroke-width:0.01" />
<line x1="0.343114" y1="0" x2="1" y2="0" style="stroke:rgb(246,147,147);stroke-width:0.01" />
<line x1="1" y1="0" x2="1" y2="0.500052" style="stroke:rgb(246,147,147);stroke-width:0.01" />
<line x1="0.50843" y1="0.0278819" x2="0.480073" y2="0.13287" style="stroke:rgb(246,147,147);stroke-width:0.01" />
<line x1="0.342626" y1="-0.0161106" x2="0.336623" y2="-0.00629766" style="stroke:rgb(246,147,147);stroke-width:0.01" />
<line x1="0.600638" y1="-0.179016" x2="0.336623" y2="-0.00629766" style="stroke:rgb(246,147,147);stroke-width:0.01" />
<line x1="1.21048" y1="-0.0883708" x2="0.480073" y2="0.13287" style="stroke:rgb(246,147,147);stroke-width:0.01" />
<line x1="1.21326" y1="0.536662" x2="1.06925" y2="0.537303" style="stroke:rgb(246,147,147);stroke-width:0.01" />
<line x1="1.41715" y1="0.224492" x2="1" y2="0.500052" style="stroke:rgb(246,147,147);stroke-width:0.01" />
</g>
</svg>
