<svg xmlns="http://www.w3.org/2000/svg" viewBox="-1.5 -1.5 3 3">
<g transform="scale(1, -1)">
<path d="M0.290318 -0.102699 L0.345358 -0.034638 L0.345416 0.000000 L1.000000 0.000000 L1.000000 0.837556 L1.029028 0.963521 L1.000000 0.970211 L0.313200 0.423681 L0.163324 0.000000 z " fill="rgb(245,195,195)" />
<path d="M0.000000 0.000000 L1.000000 0.000000 L1.000000 1.000000 L0.000000 1.000000  z" fill="none" stroke="rgb(128,128,128)" stroke-width="0.01" />
<line x1="0.290318" y1="-0.102699" x2="0.345358" y2="-0.0346384" style="stroke:rgb(246,147,147);stroke-width:0.01" />
<line x1="0.969601" y1="0.705643" x2="1.02903" y2="0.963521" style="stroke:rgb(246,147,147);stroke-width:0.01" />
<line x1="0.163324" y1="0" x2="0.3132" y2="0.423681" style="stroke:rgb(246,147,147);stroke-width:0.01" />
<line x1="0.345358" y1="-0.0346384" x2="0.345883" y2="0.276577" style="stroke:rgb(246,147,147);stroke-width:0.01" />
<line x1="0.163324" y1="0" x2="1" y2="0" style="stroke:rgb(246,147,147);stroke-width:0.01" />
<line x1="1" y1="0" x2="1" y2="0.970211" style="stroke:rgb(246,147,147);stroke-width:0.01" />
<line x1="0.290318" y1="-0.102699" x2="0.163324" y2="0" style="stroke:rgb(246,147,147);stroke-width:0.01" />
<line x1="0.210479" y1="0.133304" x2="0.891629" y2="0.281432" style="stroke:rgb(246,147,147);stroke-width:0.01" />
<line x1="0.345883" y1="0.276577" x2="0.3132" y2="0.423681" style="stroke:rgb(246,147,147);stroke-width:0.01" />
<line x1="0.3132" y1="0.423681" x2="1" y2="0.970211" style="stroke:rgb(246,147,147);stroke-width:0.01" />
<line x1="0.345358" y1="-0.0346384" x2="0.210479" y2="0.133304" style="stroke:rgb(246,147,147);stroke-width:0.01" />
<line x1="0.345883" y1="0.276577" x2="0.297567" y2="0.379489" style="stroke:rgb(246,147,147);stroke-width:0.01" />
<line x1="0.297567" y1="0.379489" x2="0.969601" y2="0.705643" style="stroke:rgb(246,147,147);stroke-width:0.01" />
<line x1="0.891629" y1="0.281432" x2="0.779926" y2="0.795084" style="stroke:rgb(246,147,147);stroke-width:0.01" />
<line x1="0.969601" y1="0.705643" x2="0.779926" y2="0.795084" style="stroke:rgb(246,147,147);stroke-width:0.01" />
<line x1="1.02903" y1="0.963521" x2="1" y2="0.970211" style="stroke:rgb(246,147,147);stroke-width:0.01" />
</g>
</svg>
