<svg xmlns="http://www.w3.org/2000/svg" viewBox="-1.5 -1.5 3 3">
<g transform="scale(1, -1)">
<path d="M-0.319309 -0.442436 L-0.264269 -0.374375 L-0.264211 -0.339737 L0.390373 -0.339737 L0.390373 0.497819 L0.419401 0.623784 L0.390373 0.630474 L-0.296427 0.083944 L-0.446303 -0.339737 z " fill="rgb(245,195,195)" />
<path d="M-0.609627 -0.339737 L0.390373 -0.339737 L0.390373 0.660263 L-0.609627 0.660263  z" fill="none" stroke="rgb(128,128,128)" stroke-width="0.01" />
<line x1="-0.319309" y1="-0.442436" x2="-0.264269" y2="-0.374375" style="stroke:rgb(246,147,147);stroke-width:0.01" />
<line x1="0.359974" y1="0.365906" x2="0.419401" y2="0.623784" style="stroke:rgb(246,147,147);stroke-width:0.01" />
<line x1="-0.446303" y1="-0.339737" x2="-0.296427" y2="0.0839444" style="stroke:rgb(246,147,147);stroke-width:0.01" />
<line x1="-0.264269" y1="-0.374375" x2="-0.263744" y2="-0.0631601" style="stroke:rgb(246,147,147);stroke-width:0.01" />
<line x1="-0.446303" y1="-0.339737" x2="0.390373" y2="-0.339737" style="stroke:rgb(246,147,147);stroke-width:0.01" />
<line x1="0.390373" y1="-0.339737" x2="0.390373" y2="0.630474" style="stroke:rgb(246,147,147);stroke-width:0.01" />
<line x1="-0.319309" y1="-0.442436" x2="-0.446303" y2="-0.339737" style="stroke:rgb(246,147,147);stroke-width:0.01" />
<line x1="-0.399148" y1="-0.206433" x2="0.282002" y2="-0.0583048" style="stroke:rgb(246,147,147);stroke-width:0.01" />
<line x1="-0.263744" y1="-0.0631601" x2="-0.296427" y2="0.0839444" style="stroke:rgb(246,147,147);stroke-width:0.01" />
<line x1="-0.296427" y1="0.0839444" x2="0.390373" y2="0.630474" style="stroke:rgb(246,147,147);stroke-width:0.01" />
<line x1="-0.264269" y1="-0.374375" x2="-0.399148" y2="-0.206433" style="stroke:rgb(246,147,147);stroke-width:0.01" />
<line x1="-0.263744" y1="-0.0631601" x2="-0.31206" y2="0.0397525" style="stroke:rgb(246,147,147);stroke-width:0.01" />
<line x1="-0.31206" y1="0.0397525" x2="0.359974" y2="0.365906" style="stroke:rgb(246,147,147);stroke-width:0.01" />
<line x1="0.282002" y1="-0.0583048" x2="0.170299" y2="0.455347" style="stroke:rgb(246,147,147);stroke-width:0.01" />
<line x1="0.359974" y1="0.365906" x2="0.170299" y2="0.455347" style="stroke:rgb(246,147,147);stroke-width:0.01" />
<line x1="0.419401" y1="0.623784" x2="0.390373" y2="0.630474" style="stroke:rgb(246,147,147);stroke-width:0.01" />
</g>
</svg>
