<svg xmlns="http://www.w3.org/2000/svg" viewBox="-1.5 -1.5 3 3">
<g transform="scale(1, -1)">
<path d="M0.411483 -0.056551 L0.709686 0.000000 L1.000000 0.000000 L1.000000 0.092969 L1.161123 0.797895 L1.000000 0.834722 L0.000000 0.037500 L0.000000 0.000000 L0.164066 0.000000 z " fill="rgb(245,195,195)" />
<path d="M0.000000 0.000000 L1.000000 0.000000 L1.000000 1.000000 L0.000000 1.000000  z" fill="none" stroke="rgb(128,128,128)" stroke-width="0.01" />
<line x1="0.411483" y1="-0.0565514" x2="0.85764" y2="0.248378" style="stroke:rgb(246,147,147);stroke-width:0.01" />
<line x1="0.990942" y1="0.0533376" x2="1.16112" y2="0.797895" style="stroke:rgb(246,147,147);stroke-width:0.01" />
<line x1="0.411483" y1="-0.0565514" x2="0.990942" y2="0.0533376" style="stroke:rgb(246,147,147);stroke-width:0.01" />
<line x1="0" y1="0" x2="1" y2="0" style="stroke:rgb(246,147,147);stroke-width:0.01" />
<line x1="0" y1="0" x2="0" y2="0.0375" style="stroke:rgb(246,147,147);stroke-width:0.01" />
<line x1="1" y1="0" x2="1" y2="0.834722" style="stroke:rgb(246,147,147);stroke-width:0.01" />
<line x1="0" y1="0.0375" x2="1" y2="0.834722" style="stroke:rgb(246,147,147);stroke-width:0.01" />
<line x1="0.411483" y1="-0.0565514" x2="0" y2="0.0375" style="stroke:rgb(246,147,147);stroke-width:0.01" />
<line x1="0.990942" y1="0.0533376" x2="0.85764" y2="0.248378" style="stroke:rgb(246,147,147);stroke-width:0.01" />
<line x1="1.16112" y1="0.797895" x2="1" y2="0.834722" style="stroke:rgb(246,147,147);stroke-width:0.01" />
</g>
</svg>
