<svg xmlns="http://www.w3.org/2000/svg" viewBox="-1.5 -1.5 3 3">
<g transform="scale(1, -1)">
<path d="M-0.193667 -0.246166 L0.104535 -0.189615 L0.394849 -0.189615 L0.394849 -0.096646 L0.555972 0.608280 L0.394849 0.645107 L-0.605151 -0.152115 L-0.605151 -0.189615 L-0.441085 -0.189615 z " fill="rgb(245,195,195)" />
<path d="M-0.605151 -0.189615 L0.394849 -0.189615 L0.394849 0.810385 L-0.605151 0.810385  z" fill="none" stroke="rgb(128,128,128)" stroke-width="0.01" />
<line x1="-0.193667" y1="-0.246166" x2="0.252489" y2="0.0587628" style="stroke:rgb(246,147,147);stroke-width:0.01" />
<line x1="0.385791" y1="-0.136277" x2="0.555972" y2="0.60828" style="stroke:rgb(246,147,147);stroke-width:0.01" />
<line x1="-0.193667" y1="-0.246166" x2="0.385791" y2="-0.136277" style="stroke:rgb(246,147,147);stroke-width:0.01" />
<line x1="-0.605151" y1="-0.189615" x2="0.394849" y2="-0.189615" style="stroke:rgb(246,147,147);stroke-width:0.01" />
<line x1="-0.605151" y1="-0.189615" x2="-0.605151" y2="-0.152115" style="stroke:rgb(246,147,147);stroke-width:0.01" />
<line x1="0.394849" y1="-0.189615" x2="0.394849" y2="0.645107" style="stroke:rgb(246,147,147);stroke-width:0.01" />
<line x1="-0.605151" y1="-0.152115" x2="0.394849" y2="0.645107" style="stroke:rgb(246,147,147);stroke-width:0.01" />
<line x1="-0.193667" y1="-0.246166" x2="-0.605151" y2="-0.152115" style="stroke:rgb(246,147,147);stroke-width:0.01" />
<line x1="0.385791" y1="-0.136277" x2="0.252489" y2="0.0587628" style="stroke:rgb(246,147,147);stroke-width:0.01" />
<line x1="0.555972" y1="0.60828" x2="0.394849" y2="0.645107" style="stroke:rgb(246,147,147);stroke-width:0.01" />
</g>
</svg>
