<svg xmlns="http://www.w3.org/2000/svg" viewBox="-1.5 -1.5 3 3">
<g transform="scale(1, -1)">
<path d="M0.451486 -0.359054 L0.740640 -0.292236 L0.760438 -0.109877 L1.226234 -0.149243 L1.264724 -0.073536 L1.191008 -0.036058 L1.146027 0.108473 L1.001853 0.113307 L1.000000 0.122443 L0.419546 0.064167 L0.301839 -0.083842 L0.423275 -0.236972 z " fill="rgb(245,195,195)" />
<path d="M0.000000 0.000000 L1.000000 0.000000 L1.000000 1.000000 L0.000000 1.000000  z" fill="none" stroke="rgb(128,128,128)" stroke-width="0.01" />
<line x1="1.22623" y1="-0.149243" x2="1.26472" y2="-0.0735357" style="stroke:rgb(246,147,147);stroke-width:0.01" />
<line x1="0.451486" y1="-0.359054" x2="0.74064" y2="-0.292236" style="stroke:rgb(246,147,147);stroke-width:0.01" />
<line x1="0.852832" y1="-0.117685" x2="0.972684" y2="0.114285" style="stroke:rgb(246,147,147);stroke-width:0.01" />
<line x1="1.05212" y1="-0.134528" x2="1.14603" y2="0.108473" style="stroke:rgb(246,147,147);stroke-width:0.01" />
<line x1="0.436955" y1="-0.254222" x2="0.89916" y2="0.112319" style="stroke:rgb(246,147,147);stroke-width:0.01" />
<line x1="0.611714" y1="-0.0973074" x2="0.972684" y2="0.114285" style="stroke:rgb(246,147,147);stroke-width:0.01" />
<line x1="0.301839" y1="-0.0838418" x2="0.419546" y2="0.0641669" style="stroke:rgb(246,147,147);stroke-width:0.01" />
<line x1="0.74064" y1="-0.292236" x2="0.783299" y2="0.100687" style="stroke:rgb(246,147,147);stroke-width:0.01" />
<line x1="1.22623" y1="-0.149243" x2="0.611714" y2="-0.0973074" style="stroke:rgb(246,147,147);stroke-width:0.01" />
<line x1="0.368516" y1="0" x2="1" y2="0" style="stroke:rgb(246,147,147);stroke-width:0.01" />
<line x1="1" y1="0" x2="1" y2="0.122443" style="stroke:rgb(246,147,147);stroke-width:0.01" />
<line x1="0.419546" y1="0.0641669" x2="1" y2="0.122443" style="stroke:rgb(246,147,147);stroke-width:0.01" />
<line x1="0.74064" y1="-0.292236" x2="0.301839" y2="-0.0838418" style="stroke:rgb(246,147,147);stroke-width:0.01" />
<line x1="0.451486" y1="-0.359054" x2="0.368516" y2="0" style="stroke:rgb(246,147,147);stroke-width:0.01" />
<line x1="0.436955" y1="-0.254222" x2="0.301839" y2="-0.0838418" style="stroke:rgb(246,147,147);stroke-width:0.01" />
<line x1="1.14603" y1="0.108473" x2="0.972684" y2="0.114285" style="stroke:rgb(246,147,147);stroke-width:0.01" />
<line x1="1.05212" y1="-0.134528" x2="1" y2="0.122443" style="stroke:rgb(246,147,147);stroke-width:0.01" />
<line x1="0.852832" y1="-0.117685" x2="0.783299" y2="0.100687" style="stroke:rgb(246,147,147);stroke-width:0.01" />
<line x1="0.611714" y1="-0.0973074" x2="0.419546" y2="0.0641669" style="stroke:rgb(246,147,147);stroke-width:0.01" />
<line x1="1.22623" y1="-0.149243" x2="1.14603" y2="0.108473" style="stroke:rgb(246,147,147);stroke-width:0.01" />
<line x1="1.26472" y1="-0.0735357" x2="0.89916" y2="0.112319" style="stroke:rgb(246,147,147);stroke-width:0.01" />
</g>
</svg>
