<svg xmlns="http://www.w3.org/2000/svg" viewBox="-1.5 -1.5 3 3">
<g transform="scale(1, -1)">
<path d="M-0.375770 -0.281352 L-0.086616 -0.214534 L-0.066817 -0.032174 L0.398978 -0.071541 L0.437468 0.004167 L0.363752 0.041644 L0.318771 0.186175 L0.174597 0.191009 L0.172744 0.200145 L-0.407710 0.141869 L-0.525417 -0.006140 L-0.403981 -0.159270 z " fill="rgb(245,195,195)" />
<path d="M-0.827256 0.077702 L0.172744 0.077702 L0.172744 1.077702 L-0.827256 1.077702  z" fill="none" stroke="rgb(128,128,128)" stroke-width="0.01" />
<line x1="0.398978" y1="-0.0715406" x2="0.437468" y2="0.00416658" style="stroke:rgb(246,147,147);stroke-width:0.01" />
<line x1="-0.37577" y1="-0.281352" x2="-0.0866156" y2="-0.214534" style="stroke:rgb(246,147,147);stroke-width:0.01" />
<line x1="0.0255764" y1="-0.039983" x2="0.145428" y2="0.191987" style="stroke:rgb(246,147,147);stroke-width:0.01" />
<line x1="0.224868" y1="-0.0568259" x2="0.318771" y2="0.186175" style="stroke:rgb(246,147,147);stroke-width:0.01" />
<line x1="-0.390301" y1="-0.17652" x2="0.0719045" y2="0.190021" style="stroke:rgb(246,147,147);stroke-width:0.01" />
<line x1="-0.215542" y1="-0.0196052" x2="0.145428" y2="0.191987" style="stroke:rgb(246,147,147);stroke-width:0.01" />
<line x1="-0.525417" y1="-0.00613953" x2="-0.40771" y2="0.141869" style="stroke:rgb(246,147,147);stroke-width:0.01" />
<line x1="-0.0866156" y1="-0.214534" x2="-0.0439574" y2="0.178389" style="stroke:rgb(246,147,147);stroke-width:0.01" />
<line x1="0.398978" y1="-0.0715406" x2="-0.215542" y2="-0.0196052" style="stroke:rgb(246,147,147);stroke-width:0.01" />
<line x1="-0.45874" y1="0.0777022" x2="0.172744" y2="0.0777022" style="stroke:rgb(246,147,147);stroke-width:0.01" />
<line x1="0.172744" y1="0.0777022" x2="0.172744" y2="0.200145" style="stroke:rgb(246,147,147);stroke-width:0.01" />
<line x1="-0.40771" y1="0.141869" x2="0.172744" y2="0.200145" style="stroke:rgb(246,147,147);stroke-width:0.01" />
<line x1="-0.0866156" y1="-0.214534" x2="-0.525417" y2="-0.00613953" style="stroke:rgb(246,147,147);stroke-width:0.01" />
<line x1="-0.37577" y1="-0.281352" x2="-0.45874" y2="0.0777022" style="stroke:rgb(246,147,147);stroke-width:0.01" />
<line x1="-0.390301" y1="-0.17652" x2="-0.525417" y2="-0.00613953" style="stroke:rgb(246,147,147);stroke-width:0.01" />
<line x1="0.318771" y1="0.186175" x2="0.145428" y2="0.191987" style="stroke:rgb(246,147,147);stroke-width:0.01" />
<line x1="0.224868" y1="-0.0568259" x2="0.172744" y2="0.200145" style="stroke:rgb(246,147,147);stroke-width:0.01" />
<line x1="0.0255764" y1="-0.039983" x2="-0.0439574" y2="0.178389" style="stroke:rgb(246,147,147);stroke-width:0.01" />
<line x1="-0.215542" y1="-0.0196052" x2="-0.40771" y2="0.141869" style="stroke:rgb(246,147,147);stroke-width:0.01" />
<line x1="0.398978" y1="-0.0715406" x2="0.318771" y2="0.186175" style="stroke:rgb(246,147,147);stroke-width:0.01" />
<line x1="0.437468" y1="0.00416658" x2="0.0719045" y2="0.190021" style="stroke:rgb(246,147,147);stroke-width:0.01" />
</g>
</svg>
