<svg xmlns="http://www.w3.org/2000/svg" viewBox="-1.5 -1.5 3 3">
<g transform="scale(1, -1)">
<path d="M-0.378632 -0.399675 L-0.130568 -0.122075 L-0.105898 -0.122075 L-0.105898 -0.094468 L-0.069635 -0.053887 L0.190881 -0.136771 L0.224415 -0.040582 L0.390844 0.028573 L0.313455 0.214818 L0.292031 0.214192 L0.308848 0.272544 L0.239838 0.292433 L-0.493870 0.081085 L-0.675811 -0.134115 z " fill="rgb(245,195,195)" />
<path d="M-1.105898 -0.122075 L-0.105898 -0.122075 L-0.105898 0.877925 L-1.105898 0.877925  z" fill="none" stroke="rgb(128,128,128)" stroke-width="0.01" />
<line x1="-0.378632" y1="-0.399675" x2="0.239838" y2="0.292433" style="stroke:rgb(246,147,147);stroke-width:0.01" />
<line x1="0.190881" y1="-0.136771" x2="0.313455" y2="0.214818" style="stroke:rgb(246,147,147);stroke-width:0.01" />
<line x1="0.0787685" y1="-0.101102" x2="0.390844" y2="0.0285735" style="stroke:rgb(246,147,147);stroke-width:0.01" />
<line x1="0.190881" y1="-0.136771" x2="0.308848" y2="0.272544" style="stroke:rgb(246,147,147);stroke-width:0.01" />
<line x1="-0.675811" y1="-0.134115" x2="-0.49387" y2="0.0810853" style="stroke:rgb(246,147,147);stroke-width:0.01" />
<line x1="-0.661697" y1="-0.145399" x2="-0.0682966" y2="0.203674" style="stroke:rgb(246,147,147);stroke-width:0.01" />
<line x1="-0.665631" y1="-0.122075" x2="-0.105898" y2="-0.122075" style="stroke:rgb(246,147,147);stroke-width:0.01" />
<line x1="-0.105898" y1="-0.122075" x2="-0.105898" y2="0.192842" style="stroke:rgb(246,147,147);stroke-width:0.01" />
<line x1="-0.49387" y1="0.0810853" x2="0.239838" y2="0.292433" style="stroke:rgb(246,147,147);stroke-width:0.01" />
<line x1="-0.661697" y1="-0.145399" x2="-0.665631" y2="-0.122075" style="stroke:rgb(246,147,147);stroke-width:0.01" />
<line x1="-0.661697" y1="-0.145399" x2="-0.675811" y2="-0.134115" style="stroke:rgb(246,147,147);stroke-width:0.01" />
<line x1="-0.378632" y1="-0.399675" x2="-0.675811" y2="-0.134115" style="stroke:rgb(246,147,147);stroke-width:0.01" />
<line x1="-0.0682966" y1="0.203674" x2="0.313455" y2="0.214818" style="stroke:rgb(246,147,147);stroke-width:0.01" />
<line x1="0.190881" y1="-0.136771" x2="-0.49387" y2="0.0810853" style="stroke:rgb(246,147,147);stroke-width:0.01" />
<line x1="0.0787685" y1="-0.101102" x2="-0.105898" y2="0.192842" style="stroke:rgb(246,147,147);stroke-width:0.01" />
<line x1="0.390844" y1="0.0285735" x2="0.313455" y2="0.214818" style="stroke:rgb(246,147,147);stroke-width:0.01" />
<line x1="0.308848" y1="0.272544" x2="0.239838" y2="0.292433" style="stroke:rgb(246,147,147);stroke-width:0.01" />
</g>
</svg>
