<svg xmlns="http://www.w3.org/2000/svg" viewBox="-1.5 -1.5 3 3">
<path d="M-0.527754 -0.307169 L0.440996 -0.178106 L0.086758 0.485275 z " fill="rgb(245,195,195)" />
<path d="M-0.543379 -0.356188 L0.456621 -0.356188 L0.456621 0.643812 L-0.543379 0.643812  z" fill="none" stroke="rgb(128,128,128)" stroke-width="0.01" />
<line x1="0.417569" y1="-0.181227" x2="0.433119" y2="-0.163355" style="stroke:rgb(246,147,147);stroke-width:0.01" />
<line x1="0.388459" y1="-0.0902098" x2="0.392251" y2="-0.0868212" style="stroke:rgb(246,147,147);stroke-width:0.01" />
<line x1="0.312314" y1="-0.0540157" x2="0.354932" y2="-0.0169344" style="stroke:rgb(246,147,147);stroke-width:0.01" />
<line x1="0.024964" y1="0.316509" x2="0.086758" y2="0.485275" style="stroke:rgb(246,147,147);stroke-width:0.01" />
<line x1="-0.0415028" y1="0.103854" x2="0.166283" y2="0.336348" style="stroke:rgb(246,147,147);stroke-width:0.01" />
<line x1="-0.478643" y1="-0.300626" x2="-0.477875" y2="-0.242847" style="stroke:rgb(246,147,147);stroke-width:0.01" />
<line x1="-0.512068" y1="-0.305079" x2="-0.511568" y2="-0.286297" style="stroke:rgb(246,147,147);stroke-width:0.01" />
<line x1="-0.512179" y1="-0.305094" x2="-0.51219" y2="-0.304672" style="stroke:rgb(246,147,147);stroke-width:0.01" />
<line x1="-0.512179" y1="-0.305094" x2="-0.51551" y2="-0.29138" style="stroke:rgb(246,147,147);stroke-width:0.01" />
<line x1="-0.527754" y1="-0.307169" x2="0.086758" y2="0.485275" style="stroke:rgb(246,147,147);stroke-width:0.01" />
<line x1="-0.512068" y1="-0.305079" x2="-0.51219" y2="-0.304672" style="stroke:rgb(246,147,147);stroke-width:0.01" />
<line x1="-0.478643" y1="-0.300626" x2="-0.48491" y2="-0.278683" style="stroke:rgb(246,147,147);stroke-width:0.01" />
<line x1="-0.397457" y1="-0.28981" x2="0.392251" y2="-0.0868212" style="stroke:rgb(246,147,147);stroke-width:0.01" />
<line x1="-0.527754" y1="-0.307169" x2="-0.51219" y2="-0.304672" style="stroke:rgb(246,147,147);stroke-width:0.01" />
<line x1="-0.527754" y1="-0.307169" x2="0.440996" y2="-0.178106" style="stroke:rgb(246,147,147);stroke-width:0.01" />
<line x1="-0.511568" y1="-0.286297" x2="-0.48491" y2="-0.278683" style="stroke:rgb(246,147,147);stroke-width:0.01" />
<line x1="-0.51551" y1="-0.29138" x2="-0.397457" y2="-0.28981" style="stroke:rgb(246,147,147);stroke-width:0.01" />
<line x1="0.410001" y1="-0.166288" x2="0.433119" y2="-0.163355" style="stroke:rgb(246,147,147);stroke-width:0.01" />
<line x1="-0.477875" y1="-0.242847" x2="0.354932" y2="-0.0169344" style="stroke:rgb(246,147,147);stroke-width:0.01" />
<line x1="0.440996" y1="-0.178106" x2="0.086758" y2="0.485275" style="stroke:rgb(246,147,147);stroke-width:0.01" />
<line x1="0.440996" y1="-0.178106" x2="0.410001" y2="-0.166288" style="stroke:rgb(246,147,147);stroke-width:0.01" />
<line x1="-0.0415028" y1="0.103854" x2="-0.140447" y2="0.192283" style="stroke:rgb(246,147,147);stroke-width:0.01" />
<line x1="0.410001" y1="-0.166288" x2="0.312314" y2="-0.0540157" style="stroke:rgb(246,147,147);stroke-width:0.01" />
<line x1="0.417569" y1="-0.181227" x2="-0.140447" y2="0.192283" style="stroke:rgb(246,147,147);stroke-width:0.01" />
<line x1="0.388459" y1="-0.0902098" x2="0.024964" y2="0.316509" style="stroke:rgb(246,147,147);stroke-width:0.01" />
<line x1="0.024964" y1="0.316509" x2="0.166283" y2="0.336348" style="stroke:rgb(246,147,147);stroke-width:0.01" />
</svg>
