<svg xmlns="http://www.w3.org/2000/svg" viewBox="-1 -1 3 3">
<path d="M0.015625 0.049020 L0.984375 0.178082 L0.630137 0.841463 z " fill="rgb(245,195,195)" />
<path d="M0 0 L0 1 L1 1 L1 0 z" fill="none" stroke="rgb(128,128,128)" stroke-width="0.01" />
<line x1="0.960948" y1="0.174961" x2="0.976498" y2="0.192833" style="stroke:rgb(246,147,147);stroke-width:0.01" />
<line x1="0.931838" y1="0.265979" x2="0.93563" y2="0.269367" style="stroke:rgb(246,147,147);stroke-width:0.01" />
<line x1="0.855693" y1="0.302173" x2="0.898311" y2="0.339254" style="stroke:rgb(246,147,147);stroke-width:0.01" />
<line x1="0.568343" y1="0.672697" x2="0.630137" y2="0.841463" style="stroke:rgb(246,147,147);stroke-width:0.01" />
<line x1="0.501876" y1="0.460043" x2="0.709662" y2="0.692537" style="stroke:rgb(246,147,147);stroke-width:0.01" />
<line x1="0.0647359" y1="0.0555625" x2="0.0655042" y2="0.113341" style="stroke:rgb(246,147,147);stroke-width:0.01" />
<line x1="0.0313111" y1="0.0511094" x2="0.0318107" y2="0.0698919" style="stroke:rgb(246,147,147);stroke-width:0.01" />
<line x1="0.0312003" y1="0.0510946" x2="0.0311891" y2="0.051516" style="stroke:rgb(246,147,147);stroke-width:0.01" />
<line x1="0.0312003" y1="0.0510946" x2="0.027869" y2="0.0648088" style="stroke:rgb(246,147,147);stroke-width:0.01" />
<line x1="0.015625" y1="0.0490196" x2="0.630137" y2="0.841463" style="stroke:rgb(246,147,147);stroke-width:0.01" />
<line x1="0.0313111" y1="0.0511094" x2="0.0311891" y2="0.051516" style="stroke:rgb(246,147,147);stroke-width:0.01" />
<line x1="0.0647359" y1="0.0555625" x2="0.0584692" y2="0.0775054" style="stroke:rgb(246,147,147);stroke-width:0.01" />
<line x1="0.145922" y1="0.0663785" x2="0.93563" y2="0.269367" style="stroke:rgb(246,147,147);stroke-width:0.01" />
<line x1="0.015625" y1="0.0490196" x2="0.0311891" y2="0.051516" style="stroke:rgb(246,147,147);stroke-width:0.01" />
<line x1="0.015625" y1="0.0490196" x2="0.984375" y2="0.178082" style="stroke:rgb(246,147,147);stroke-width:0.01" />
<line x1="0.0318107" y1="0.0698919" x2="0.0584692" y2="0.0775054" style="stroke:rgb(246,147,147);stroke-width:0.01" />
<line x1="0.027869" y1="0.0648088" x2="0.145922" y2="0.0663785" style="stroke:rgb(246,147,147);stroke-width:0.01" />
<line x1="0.95338" y1="0.189901" x2="0.976498" y2="0.192833" style="stroke:rgb(246,147,147);stroke-width:0.01" />
<line x1="0.0655042" y1="0.113341" x2="0.898311" y2="0.339254" style="stroke:rgb(246,147,147);stroke-width:0.01" />
<line x1="0.984375" y1="0.178082" x2="0.630137" y2="0.841463" style="stroke:rgb(246,147,147);stroke-width:0.01" />
<line x1="0.984375" y1="0.178082" x2="0.95338" y2="0.189901" style="stroke:rgb(246,147,147);stroke-width:0.01" />
<line x1="0.501876" y1="0.460043" x2="0.402932" y2="0.548472" style="stroke:rgb(246,147,147);stroke-width:0.01" />
<line x1="0.95338" y1="0.189901" x2="0.855693" y2="0.302173" style="stroke:rgb(246,147,147);stroke-width:0.01" />
<line x1="0.960948" y1="0.174961" x2="0.402932" y2="0.548472" style="stroke:rgb(246,147,147);stroke-width:0.01" />
<line x1="0.931838" y1="0.265979" x2="0.568343" y2="0.672697" style="stroke:rgb(246,147,147);stroke-width:0.01" />
<line x1="0.568343" y1="0.672697" x2="0.709662" y2="0.692537" style="stroke:rgb(246,147,147);stroke-width:0.01" />
</svg>
