<svg xmlns="http://www.w3.org/2000/svg" viewBox="-1.5 -1.5 3 3">
<g transform="scale(1, -1)">
<path d="M-0.081561 -0.597614 L0.309209 -0.441276 L0.332816 0.064293 L-0.061368 0.487526 L-0.453013 0.330838 z " fill="rgb(245,195,195)" />
<path d="M0.000000 0.000000 L1.000000 0.000000 L1.000000 1.000000 L0.000000 1.000000  z" fill="none" stroke="rgb(128,128,128)" stroke-width="0.01" />
<line x1="-0.0815605" y1="-0.597614" x2="0.309209" y2="-0.441276" style="stroke:rgb(246,147,147);stroke-width:0.01" />
<line x1="0.309209" y1="-0.441276" x2="-0.206089" y2="-0.176996" style="stroke:rgb(246,147,147);stroke-width:0.01" />
<line x1="-0.0815605" y1="-0.597614" x2="-0.453013" y2="0.330838" style="stroke:rgb(246,147,147);stroke-width:0.01" />
<line x1="0.116988" y1="0.0695574" x2="0.203291" y2="0.203363" style="stroke:rgb(246,147,147);stroke-width:0.01" />
<line x1="0.309209" y1="-0.441276" x2="0.332816" y2="0.0642932" style="stroke:rgb(246,147,147);stroke-width:0.01" />
<line x1="0" y1="0" x2="0.329814" y2="0" style="stroke:rgb(246,147,147);stroke-width:0.01" />
<line x1="0" y1="0" x2="0" y2="0.421635" style="stroke:rgb(246,147,147);stroke-width:0.01" />
<line x1="0.329814" y1="0" x2="-0.0949262" y2="0.0397511" style="stroke:rgb(246,147,147);stroke-width:0.01" />
<line x1="-0.206089" y1="-0.176996" x2="-0.0949262" y2="0.0397511" style="stroke:rgb(246,147,147);stroke-width:0.01" />
<line x1="0.116988" y1="0.0695574" x2="-0.0902145" y2="0.428055" style="stroke:rgb(246,147,147);stroke-width:0.01" />
<line x1="-0.0949262" y1="0.0397511" x2="0.203291" y2="0.203363" style="stroke:rgb(246,147,147);stroke-width:0.01" />
<line x1="0.332816" y1="0.0642932" x2="0.116988" y2="0.0695574" style="stroke:rgb(246,147,147);stroke-width:0.01" />
<line x1="-0.0902145" y1="0.428055" x2="-0.0613682" y2="0.487526" style="stroke:rgb(246,147,147);stroke-width:0.01" />
<line x1="0.332816" y1="0.0642932" x2="-0.0613682" y2="0.487526" style="stroke:rgb(246,147,147);stroke-width:0.01" />
<line x1="0" y1="0.421635" x2="-0.0902145" y2="0.428055" style="stroke:rgb(246,147,147);stroke-width:0.01" />
<line x1="-0.453013" y1="0.330838" x2="-0.0613682" y2="0.487526" style="stroke:rgb(246,147,147);stroke-width:0.01" />
</g>
</svg>
