<svg xmlns="http://www.w3.org/2000/svg" viewBox="-1.5 -1.5 3 3">
<g transform="scale(1, -1)">
<path d="M-0.490468 -0.313594 L-0.057313 -0.313594 L-0.057313 -0.186902 L0.017069 -0.184921 L0.313579 -0.080044 L0.306669 0.301331 L0.298531 0.301184 L0.297015 0.344312 L-0.057313 0.331859 L-0.570455 -0.199632 z " fill="rgb(245,195,195)" />
<path d="M-1.057313 -0.313594 L-0.057313 -0.313594 L-0.057313 0.686406 L-1.057313 0.686406  z" fill="none" stroke="rgb(128,128,128)" stroke-width="0.01" />
<line x1="0.017069" y1="-0.184921" x2="0.253997" y2="-0.00356301" style="stroke:rgb(246,147,147);stroke-width:0.01" />
<line x1="-0.0509671" y1="-0.186733" x2="0.114319" y2="0.297846" style="stroke:rgb(246,147,147);stroke-width:0.01" />
<line x1="0.017069" y1="-0.184921" x2="0.313579" y2="-0.0800442" style="stroke:rgb(246,147,147);stroke-width:0.01" />
<line x1="-0.570455" y1="-0.199632" x2="-0.0573132" y2="0.331859" style="stroke:rgb(246,147,147);stroke-width:0.01" />
<line x1="-0.490468" y1="-0.313594" x2="-0.376766" y2="0.000982346" style="stroke:rgb(246,147,147);stroke-width:0.01" />
<line x1="-0.569076" y1="-0.200529" x2="0.114319" y2="0.297846" style="stroke:rgb(246,147,147);stroke-width:0.01" />
<line x1="-0.490468" y1="-0.313594" x2="-0.0573132" y2="-0.313594" style="stroke:rgb(246,147,147);stroke-width:0.01" />
<line x1="-0.0573132" y1="-0.313594" x2="-0.0573132" y2="0.331859" style="stroke:rgb(246,147,147);stroke-width:0.01" />
<line x1="0.313579" y1="-0.0800442" x2="0.306669" y2="0.301331" style="stroke:rgb(246,147,147);stroke-width:0.01" />
<line x1="-0.376766" y1="0.000982346" x2="-0.16116" y2="0.0875895" style="stroke:rgb(246,147,147);stroke-width:0.01" />
<line x1="0.311949" y1="-0.0806207" x2="0.297015" y2="0.344312" style="stroke:rgb(246,147,147);stroke-width:0.01" />
<line x1="-0.569076" y1="-0.200529" x2="0.017069" y2="-0.184921" style="stroke:rgb(246,147,147);stroke-width:0.01" />
<line x1="-0.490468" y1="-0.313594" x2="-0.570455" y2="-0.199632" style="stroke:rgb(246,147,147);stroke-width:0.01" />
<line x1="-0.569076" y1="-0.200529" x2="-0.570455" y2="-0.199632" style="stroke:rgb(246,147,147);stroke-width:0.01" />
<line x1="-0.0509671" y1="-0.186733" x2="-0.16116" y2="0.0875895" style="stroke:rgb(246,147,147);stroke-width:0.01" />
<line x1="0.114319" y1="0.297846" x2="0.306669" y2="0.301331" style="stroke:rgb(246,147,147);stroke-width:0.01" />
<line x1="-0.0573132" y1="0.331859" x2="0.297015" y2="0.344312" style="stroke:rgb(246,147,147);stroke-width:0.01" />
<line x1="0.311949" y1="-0.0806207" x2="0.253997" y2="-0.00356301" style="stroke:rgb(246,147,147);stroke-width:0.01" />
<line x1="0.313579" y1="-0.0800442" x2="0.253997" y2="-0.00356301" style="stroke:rgb(246,147,147);stroke-width:0.01" />
</g>
</svg>
