<svg xmlns="http://www.w3.org/2000/svg" viewBox="-1.5 -1.5 3 3">
<g transform="scale(1, -1)">
<path d="M0.477741 -0.729750 L1.335991 -0.216519 L1.091896 0.191669 L0.102953 -0.103012 L0.107783 -0.222939 L0.073175 -0.245573 L0.109588 -0.301250 L0.157036 -0.288721 L0.204855 -0.273418 z " fill="rgb(245,195,195)" />
<path d="M0.000000 0.000000 L1.000000 0.000000 L1.000000 1.000000 L0.000000 1.000000  z" fill="none" stroke="rgb(128,128,128)" stroke-width="0.01" />
<line x1="0.477741" y1="-0.72975" x2="1.33599" y2="-0.216519" style="stroke:rgb(246,147,147);stroke-width:0.01" />
<line x1="0.109588" y1="-0.30125" x2="0.157036" y2="-0.288721" style="stroke:rgb(246,147,147);stroke-width:0.01" />
<line x1="0.109753" y1="-0.298631" x2="0.157036" y2="-0.288721" style="stroke:rgb(246,147,147);stroke-width:0.01" />
<line x1="0.157036" y1="-0.288721" x2="1.0991" y2="0.0127607" style="stroke:rgb(246,147,147);stroke-width:0.01" />
<line x1="0.0731748" y1="-0.245573" x2="0.448658" y2="0" style="stroke:rgb(246,147,147);stroke-width:0.01" />
<line x1="0.102953" y1="-0.103012" x2="1.0919" y2="0.191669" style="stroke:rgb(246,147,147);stroke-width:0.01" />
<line x1="0.109588" y1="-0.30125" x2="0.0731748" y2="-0.245573" style="stroke:rgb(246,147,147);stroke-width:0.01" />
<line x1="0.110922" y1="-0.300898" x2="0.109753" y2="-0.298631" style="stroke:rgb(246,147,147);stroke-width:0.01" />
<line x1="0.109588" y1="-0.30125" x2="0.109753" y2="-0.298631" style="stroke:rgb(246,147,147);stroke-width:0.01" />
<line x1="0.448658" y1="0" x2="1" y2="0" style="stroke:rgb(246,147,147);stroke-width:0.01" />
<line x1="1" y1="0" x2="1" y2="0.164286" style="stroke:rgb(246,147,147);stroke-width:0.01" />
<line x1="0.110922" y1="-0.300898" x2="0.102953" y2="-0.103012" style="stroke:rgb(246,147,147);stroke-width:0.01" />
<line x1="0.477741" y1="-0.72975" x2="0.102953" y2="-0.103012" style="stroke:rgb(246,147,147);stroke-width:0.01" />
<line x1="1.0991" y1="0.0127607" x2="1.0919" y2="0.191669" style="stroke:rgb(246,147,147);stroke-width:0.01" />
<line x1="1.0991" y1="0.0127607" x2="1" y2="0.164286" style="stroke:rgb(246,147,147);stroke-width:0.01" />
<line x1="1.33599" y1="-0.216519" x2="1.0919" y2="0.191669" style="stroke:rgb(246,147,147);stroke-width:0.01" />
</g>
</svg>
