<svg xmlns="http://www.w3.org/2000/svg" viewBox="-1.5 -1.5 3 3">
<g transform="scale(1, -1)">
<path d="M0.070961 -0.486471 L0.929211 0.026760 L0.685116 0.434948 L-0.303827 0.140268 L-0.298997 0.020340 L-0.333605 -0.002294 L-0.297191 -0.057971 L-0.249743 -0.045442 L-0.201924 -0.030139 z " fill="rgb(245,195,195)" />
<path d="M-0.406780 0.243279 L0.593220 0.243279 L0.593220 1.243279 L-0.406780 1.243279  z" fill="none" stroke="rgb(128,128,128)" stroke-width="0.01" />
<line x1="0.0709608" y1="-0.486471" x2="0.929211" y2="0.0267601" style="stroke:rgb(246,147,147);stroke-width:0.01" />
<line x1="-0.297191" y1="-0.0579705" x2="-0.249743" y2="-0.0454421" style="stroke:rgb(246,147,147);stroke-width:0.01" />
<line x1="-0.297026" y1="-0.0553514" x2="-0.249743" y2="-0.0454421" style="stroke:rgb(246,147,147);stroke-width:0.01" />
<line x1="-0.249743" y1="-0.0454421" x2="0.692321" y2="0.25604" style="stroke:rgb(246,147,147);stroke-width:0.01" />
<line x1="-0.333605" y1="-0.00229407" x2="0.0418779" y2="0.243279" style="stroke:rgb(246,147,147);stroke-width:0.01" />
<line x1="-0.303827" y1="0.140268" x2="0.685116" y2="0.434948" style="stroke:rgb(246,147,147);stroke-width:0.01" />
<line x1="-0.297191" y1="-0.0579705" x2="-0.333605" y2="-0.00229407" style="stroke:rgb(246,147,147);stroke-width:0.01" />
<line x1="-0.295858" y1="-0.0576183" x2="-0.297026" y2="-0.0553514" style="stroke:rgb(246,147,147);stroke-width:0.01" />
<line x1="-0.297191" y1="-0.0579705" x2="-0.297026" y2="-0.0553514" style="stroke:rgb(246,147,147);stroke-width:0.01" />
<line x1="0.0418779" y1="0.243279" x2="0.59322" y2="0.243279" style="stroke:rgb(246,147,147);stroke-width:0.01" />
<line x1="0.59322" y1="0.243279" x2="0.59322" y2="0.407566" style="stroke:rgb(246,147,147);stroke-width:0.01" />
<line x1="-0.295858" y1="-0.0576183" x2="-0.303827" y2="0.140268" style="stroke:rgb(246,147,147);stroke-width:0.01" />
<line x1="0.0709608" y1="-0.486471" x2="-0.303827" y2="0.140268" style="stroke:rgb(246,147,147);stroke-width:0.01" />
<line x1="0.692321" y1="0.25604" x2="0.685116" y2="0.434948" style="stroke:rgb(246,147,147);stroke-width:0.01" />
<line x1="0.692321" y1="0.25604" x2="0.59322" y2="0.407566" style="stroke:rgb(246,147,147);stroke-width:0.01" />
<line x1="0.929211" y1="0.0267601" x2="0.685116" y2="0.434948" style="stroke:rgb(246,147,147);stroke-width:0.01" />
</g>
</svg>
