<svg xmlns="http://www.w3.org/2000/svg" viewBox="-1.5 -1.5 3 3">
<g transform="scale(1, -1)">
<path d="M-0.254287 -0.498544 L-0.254284 -0.497591 L0.188662 -0.497591 L0.188662 0.004660 L0.257414 0.078197 L0.188662 0.374628 L0.188662 0.389869 L0.234771 0.423746 L0.235891 0.453361 L0.188662 0.455147 L-0.097415 0.179684 L-0.532590 -0.367974 L-0.532812 -0.497591 z " fill="rgb(245,195,195)" />
<path d="M-0.811338 -0.497591 L0.188662 -0.497591 L0.188662 0.502409 L-0.811338 0.502409  z" fill="none" stroke="rgb(128,128,128)" stroke-width="0.01" />
<line x1="-0.0554577" y1="-0.256451" x2="0.257414" y2="0.0781971" style="stroke:rgb(246,147,147);stroke-width:0.01" />
<line x1="-0.0554577" y1="-0.256451" x2="0.00603825" y2="0.118936" style="stroke:rgb(246,147,147);stroke-width:0.01" />
<line x1="-0.53259" y1="-0.367974" x2="-0.0974151" y2="0.179684" style="stroke:rgb(246,147,147);stroke-width:0.01" />
<line x1="0.234771" y1="0.423746" x2="0.235891" y2="0.453361" style="stroke:rgb(246,147,147);stroke-width:0.01" />
<line x1="-0.0974151" y1="0.179684" x2="0.188662" y2="0.455147" style="stroke:rgb(246,147,147);stroke-width:0.01" />
<line x1="-0.254287" y1="-0.498544" x2="-0.252636" y2="-0.0156581" style="stroke:rgb(246,147,147);stroke-width:0.01" />
<line x1="-0.532812" y1="-0.497591" x2="-0.53259" y2="-0.367974" style="stroke:rgb(246,147,147);stroke-width:0.01" />
<line x1="-0.532812" y1="-0.497591" x2="0.188662" y2="-0.497591" style="stroke:rgb(246,147,147);stroke-width:0.01" />
<line x1="0.188662" y1="-0.497591" x2="0.188662" y2="0.455147" style="stroke:rgb(246,147,147);stroke-width:0.01" />
<line x1="-0.254287" y1="-0.498544" x2="-0.532812" y2="-0.497591" style="stroke:rgb(246,147,147);stroke-width:0.01" />
<line x1="-0.53259" y1="-0.367974" x2="-0.0554577" y2="-0.256451" style="stroke:rgb(246,147,147);stroke-width:0.01" />
<line x1="-0.0974151" y1="0.179684" x2="0.234771" y2="0.423746" style="stroke:rgb(246,147,147);stroke-width:0.01" />
<line x1="0.257414" y1="0.0781971" x2="0.173397" y2="0.440448" style="stroke:rgb(246,147,147);stroke-width:0.01" />
<line x1="0.2567" y1="0.0774327" x2="0.250702" y2="0.102898" style="stroke:rgb(246,147,147);stroke-width:0.01" />
<line x1="-0.252636" y1="-0.0156581" x2="0.250702" y2="0.102898" style="stroke:rgb(246,147,147);stroke-width:0.01" />
<line x1="0.257414" y1="0.0781971" x2="0.00603825" y2="0.118936" style="stroke:rgb(246,147,147);stroke-width:0.01" />
<line x1="0.2567" y1="0.0774327" x2="0.00603825" y2="0.118936" style="stroke:rgb(246,147,147);stroke-width:0.01" />
<line x1="0.235891" y1="0.453361" x2="0.188662" y2="0.455147" style="stroke:rgb(246,147,147);stroke-width:0.01" />
<line x1="0.234771" y1="0.423746" x2="0.173397" y2="0.440448" style="stroke:rgb(246,147,147);stroke-width:0.01" />
</g>
</svg>
