<svg xmlns="http://www.w3.org/2000/svg" viewBox="-1.5 -1.5 3 3">
<g transform="scale(1, -1)">
<path d="M-0.374065 -0.310233 L-0.211342 -0.309411 L-0.076991 -0.115182 L0.316770 -0.172073 L0.529153 0.409026 L0.274908 0.501948 L-0.062472 0.204408 L-0.395962 -0.208483 z " fill="rgb(245,195,195)" />
<path d="M-1.328654 -0.208483 L-0.328654 -0.208483 L-0.328654 0.791517 L-1.328654 0.791517  z" fill="none" stroke="rgb(128,128,128)" stroke-width="0.01" />
<line x1="-0.211342" y1="-0.309411" x2="0.280476" y2="0.401603" style="stroke:rgb(246,147,147);stroke-width:0.01" />
<line x1="0.31677" y1="-0.172073" x2="0.529153" y2="0.409026" style="stroke:rgb(246,147,147);stroke-width:0.01" />
<line x1="-0.395962" y1="-0.208483" x2="-0.0624721" y2="0.204408" style="stroke:rgb(246,147,147);stroke-width:0.01" />
<line x1="-0.0624721" y1="0.204408" x2="0.274908" y2="0.501948" style="stroke:rgb(246,147,147);stroke-width:0.01" />
<line x1="-0.338745" y1="-0.137643" x2="0.258627" y2="0.124718" style="stroke:rgb(246,147,147);stroke-width:0.01" />
<line x1="-0.0624721" y1="0.204408" x2="0.292715" y2="0.424174" style="stroke:rgb(246,147,147);stroke-width:0.01" />
<line x1="-0.374065" y1="-0.310233" x2="-0.338745" y2="-0.137643" style="stroke:rgb(246,147,147);stroke-width:0.01" />
<line x1="-0.328654" y1="-0.12515" x2="-0.0410782" y2="-0.0632634" style="stroke:rgb(246,147,147);stroke-width:0.01" />
<line x1="-0.374065" y1="-0.310233" x2="-0.211342" y2="-0.309411" style="stroke:rgb(246,147,147);stroke-width:0.01" />
<line x1="-0.395962" y1="-0.208483" x2="-0.328654" y2="-0.208483" style="stroke:rgb(246,147,147);stroke-width:0.01" />
<line x1="-0.328654" y1="-0.208483" x2="-0.328654" y2="-0.12515" style="stroke:rgb(246,147,147);stroke-width:0.01" />
<line x1="0.31677" y1="-0.172073" x2="0.292601" y2="0.208467" style="stroke:rgb(246,147,147);stroke-width:0.01" />
<line x1="0.188346" y1="0.359598" x2="0.183605" y2="0.421427" style="stroke:rgb(246,147,147);stroke-width:0.01" />
<line x1="-0.0410782" y1="-0.0632634" x2="-0.0782167" y2="0.184915" style="stroke:rgb(246,147,147);stroke-width:0.01" />
<line x1="-0.374065" y1="-0.310233" x2="-0.395962" y2="-0.208483" style="stroke:rgb(246,147,147);stroke-width:0.01" />
<line x1="0.31677" y1="-0.172073" x2="-0.295145" y2="-0.0836628" style="stroke:rgb(246,147,147);stroke-width:0.01" />
<line x1="-0.0782167" y1="0.184915" x2="0.292601" y2="0.208467" style="stroke:rgb(246,147,147);stroke-width:0.01" />
<line x1="-0.211342" y1="-0.309411" x2="-0.295145" y2="-0.0836628" style="stroke:rgb(246,147,147);stroke-width:0.01" />
<line x1="0.292715" y1="0.424174" x2="0.274908" y2="0.501948" style="stroke:rgb(246,147,147);stroke-width:0.01" />
<line x1="0.258627" y1="0.124718" x2="0.143751" y2="0.386279" style="stroke:rgb(246,147,147);stroke-width:0.01" />
<line x1="0.280476" y1="0.401603" x2="0.237837" y2="0.469255" style="stroke:rgb(246,147,147);stroke-width:0.01" />
<line x1="0.280476" y1="0.401603" x2="0.183605" y2="0.421427" style="stroke:rgb(246,147,147);stroke-width:0.01" />
<line x1="0.188346" y1="0.359598" x2="0.143751" y2="0.386279" style="stroke:rgb(246,147,147);stroke-width:0.01" />
<line x1="0.529153" y1="0.409026" x2="0.274908" y2="0.501948" style="stroke:rgb(246,147,147);stroke-width:0.01" />
<line x1="0.292715" y1="0.424174" x2="0.237837" y2="0.469255" style="stroke:rgb(246,147,147);stroke-width:0.01" />
</g>
</svg>
