<svg xmlns="http://www.w3.org/2000/svg" viewBox="-1.5 -1.5 3 3">
<path d="M0.263891 -0.206161 L0.291363 0.498802 L-0.277627 -0.094948 L-0.277627 -0.197694 z " fill="rgb(245,195,195)" />
<path d="M-0.293252 -0.485573 L0.706748 -0.485573 L0.706748 0.514427 L-0.293252 0.514427  z" fill="none" stroke="rgb(128,128,128)" stroke-width="0.01" />
<line x1="0.287043" y1="0.483774" x2="0.291363" y2="0.498802" style="stroke:rgb(246,147,147);stroke-width:0.01" />
<line x1="0.194179" y1="0.0946444" x2="0.271195" y2="0.477756" style="stroke:rgb(246,147,147);stroke-width:0.01" />
<line x1="0.207464" y1="-0.0641853" x2="0.273348" y2="0.480003" style="stroke:rgb(246,147,147);stroke-width:0.01" />
<line x1="0.263891" y1="-0.206161" x2="0.291363" y2="0.498802" style="stroke:rgb(246,147,147);stroke-width:0.01" />
<line x1="-0.179772" y1="-0.199224" x2="-0.162233" y2="0.025468" style="stroke:rgb(246,147,147);stroke-width:0.01" />
<line x1="-0.134176" y1="-0.00264004" x2="-0.133942" y2="0.0549898" style="stroke:rgb(246,147,147);stroke-width:0.01" />
<line x1="-0.277627" y1="-0.197694" x2="-0.277627" y2="-0.0949476" style="stroke:rgb(246,147,147);stroke-width:0.01" />
<line x1="-0.262002" y1="-0.19745" x2="-0.262002" y2="-0.0786427" style="stroke:rgb(246,147,147);stroke-width:0.01" />
<line x1="-0.262002" y1="-0.19745" x2="-0.265601" y2="-0.082398" style="stroke:rgb(246,147,147);stroke-width:0.01" />
<line x1="-0.0925216" y1="-0.0870607" x2="-0.0925965" y2="-0.0804407" style="stroke:rgb(246,147,147);stroke-width:0.01" />
<line x1="0.263891" y1="-0.206161" x2="0.261743" y2="0.0734547" style="stroke:rgb(246,147,147);stroke-width:0.01" />
<line x1="-0.179772" y1="-0.199224" x2="-0.188956" y2="-0.00241817" style="stroke:rgb(246,147,147);stroke-width:0.01" />
<line x1="-0.0925216" y1="-0.0870607" x2="-0.105247" y2="0.0849338" style="stroke:rgb(246,147,147);stroke-width:0.01" />
<line x1="-0.277627" y1="-0.0949476" x2="0.291363" y2="0.498802" style="stroke:rgb(246,147,147);stroke-width:0.01" />
<line x1="-0.277627" y1="-0.197694" x2="-0.262002" y2="-0.19745" style="stroke:rgb(246,147,147);stroke-width:0.01" />
<line x1="0.263891" y1="-0.206161" x2="-0.277627" y2="-0.197694" style="stroke:rgb(246,147,147);stroke-width:0.01" />
<line x1="-0.277627" y1="-0.0949476" x2="0.269133" y2="-0.0716515" style="stroke:rgb(246,147,147);stroke-width:0.01" />
<line x1="-0.265601" y1="-0.082398" x2="-0.0925965" y2="-0.0804407" style="stroke:rgb(246,147,147);stroke-width:0.01" />
<line x1="-0.262002" y1="-0.0786427" x2="0.269743" y2="-0.0559863" style="stroke:rgb(246,147,147);stroke-width:0.01" />
<line x1="0.269133" y1="-0.0716515" x2="0.207464" y2="-0.0641853" style="stroke:rgb(246,147,147);stroke-width:0.01" />
<line x1="-0.134176" y1="-0.00264004" x2="-0.188956" y2="-0.00241817" style="stroke:rgb(246,147,147);stroke-width:0.01" />
<line x1="-0.162233" y1="0.025468" x2="0.27498" y2="0.078401" style="stroke:rgb(246,147,147);stroke-width:0.01" />
<line x1="0.269743" y1="-0.0559863" x2="0.209342" y2="-0.0486735" style="stroke:rgb(246,147,147);stroke-width:0.01" />
<line x1="-0.133942" y1="0.0549898" x2="0.261743" y2="0.0734547" style="stroke:rgb(246,147,147);stroke-width:0.01" />
<line x1="0.261743" y1="0.0734547" x2="-0.105247" y2="0.0849338" style="stroke:rgb(246,147,147);stroke-width:0.01" />
<line x1="0.27498" y1="0.078401" x2="0.194179" y2="0.0946444" style="stroke:rgb(246,147,147);stroke-width:0.01" />
<line x1="0.271195" y1="0.477756" x2="0.29073" y2="0.482557" style="stroke:rgb(246,147,147);stroke-width:0.01" />
<line x1="0.273348" y1="0.480003" x2="0.290742" y2="0.482865" style="stroke:rgb(246,147,147);stroke-width:0.01" />
<line x1="0.29073" y1="0.482557" x2="0.287043" y2="0.483774" style="stroke:rgb(246,147,147);stroke-width:0.01" />
<line x1="0.290742" y1="0.482865" x2="0.287043" y2="0.483774" style="stroke:rgb(246,147,147);stroke-width:0.01" />
</svg>
