<svg xmlns="http://www.w3.org/2000/svg" viewBox="-1.5 -1.5 3 3">
<g transform="scale(1, -1)">
<path d="M0.557143 0.279412 L0.584615 0.984375 L0.015625 0.390625 L0.015625 0.287879 z " fill="rgb(245,195,195)" />
<path d="M0.000000 0.000000 L1.000000 0.000000 L1.000000 1.000000 L0.000000 1.000000  z" fill="none" stroke="rgb(128,128,128)" stroke-width="0.01" />
<line x1="0.580295" y1="0.969347" x2="0.584615" y2="0.984375" style="stroke:rgb(246,147,147);stroke-width:0.01" />
<line x1="0.487431" y1="0.580217" x2="0.564447" y2="0.963329" style="stroke:rgb(246,147,147);stroke-width:0.01" />
<line x1="0.500716" y1="0.421387" x2="0.5666" y2="0.965576" style="stroke:rgb(246,147,147);stroke-width:0.01" />
<line x1="0.557143" y1="0.279412" x2="0.584615" y2="0.984375" style="stroke:rgb(246,147,147);stroke-width:0.01" />
<line x1="0.11348" y1="0.286349" x2="0.131019" y2="0.511041" style="stroke:rgb(246,147,147);stroke-width:0.01" />
<line x1="0.159077" y1="0.482933" x2="0.15931" y2="0.540562" style="stroke:rgb(246,147,147);stroke-width:0.01" />
<line x1="0.015625" y1="0.287879" x2="0.015625" y2="0.390625" style="stroke:rgb(246,147,147);stroke-width:0.01" />
<line x1="0.03125" y1="0.288123" x2="0.03125" y2="0.40693" style="stroke:rgb(246,147,147);stroke-width:0.01" />
<line x1="0.03125" y1="0.288123" x2="0.0276513" y2="0.403175" style="stroke:rgb(246,147,147);stroke-width:0.01" />
<line x1="0.20073" y1="0.398512" x2="0.200656" y2="0.405132" style="stroke:rgb(246,147,147);stroke-width:0.01" />
<line x1="0.557143" y1="0.279412" x2="0.554995" y2="0.559027" style="stroke:rgb(246,147,147);stroke-width:0.01" />
<line x1="0.11348" y1="0.286349" x2="0.104296" y2="0.483154" style="stroke:rgb(246,147,147);stroke-width:0.01" />
<line x1="0.20073" y1="0.398512" x2="0.188005" y2="0.570506" style="stroke:rgb(246,147,147);stroke-width:0.01" />
<line x1="0.015625" y1="0.390625" x2="0.584615" y2="0.984375" style="stroke:rgb(246,147,147);stroke-width:0.01" />
<line x1="0.015625" y1="0.287879" x2="0.03125" y2="0.288123" style="stroke:rgb(246,147,147);stroke-width:0.01" />
<line x1="0.557143" y1="0.279412" x2="0.015625" y2="0.287879" style="stroke:rgb(246,147,147);stroke-width:0.01" />
<line x1="0.015625" y1="0.390625" x2="0.562385" y2="0.413921" style="stroke:rgb(246,147,147);stroke-width:0.01" />
<line x1="0.0276513" y1="0.403175" x2="0.200656" y2="0.405132" style="stroke:rgb(246,147,147);stroke-width:0.01" />
<line x1="0.03125" y1="0.40693" x2="0.562995" y2="0.429586" style="stroke:rgb(246,147,147);stroke-width:0.01" />
<line x1="0.562385" y1="0.413921" x2="0.500716" y2="0.421387" style="stroke:rgb(246,147,147);stroke-width:0.01" />
<line x1="0.159077" y1="0.482933" x2="0.104296" y2="0.483154" style="stroke:rgb(246,147,147);stroke-width:0.01" />
<line x1="0.131019" y1="0.511041" x2="0.568232" y2="0.563974" style="stroke:rgb(246,147,147);stroke-width:0.01" />
<line x1="0.562995" y1="0.429586" x2="0.502594" y2="0.436899" style="stroke:rgb(246,147,147);stroke-width:0.01" />
<line x1="0.15931" y1="0.540562" x2="0.554995" y2="0.559027" style="stroke:rgb(246,147,147);stroke-width:0.01" />
<line x1="0.554995" y1="0.559027" x2="0.188005" y2="0.570506" style="stroke:rgb(246,147,147);stroke-width:0.01" />
<line x1="0.568232" y1="0.563974" x2="0.487431" y2="0.580217" style="stroke:rgb(246,147,147);stroke-width:0.01" />
<line x1="0.564447" y1="0.963329" x2="0.583982" y2="0.96813" style="stroke:rgb(246,147,147);stroke-width:0.01" />
<line x1="0.5666" y1="0.965576" x2="0.583994" y2="0.968438" style="stroke:rgb(246,147,147);stroke-width:0.01" />
<line x1="0.583982" y1="0.96813" x2="0.580295" y2="0.969347" style="stroke:rgb(246,147,147);stroke-width:0.01" />
<line x1="0.583994" y1="0.968438" x2="0.580295" y2="0.969347" style="stroke:rgb(246,147,147);stroke-width:0.01" />
</g>
</svg>
