<svg xmlns="http://www.w3.org/2000/svg" viewBox="-1.5 -1.5 3 3">
<g transform="scale(1, -1)">
<path d="M0.000000 0.000000 L1.100000 0.000000 L1.100000 0.200000 L0.000000 0.200000 z " fill="rgb(245,195,195)" />
<path d="M0.000000 0.000000 L1.000000 0.000000 L1.000000 1.000000 L0.000000 1.000000  z" fill="none" stroke="rgb(128,128,128)" stroke-width="0.01" />
<line x1="0.983333" y1="0" x2="1.1" y2="0.0875" style="stroke:rgb(246,147,147);stroke-width:0.01" />
<line x1="0.8" y1="0" x2="0.95" y2="0.2" style="stroke:rgb(246,147,147);stroke-width:0.01" />
<line x1="0.45" y1="0" x2="0.716667" y2="0.2" style="stroke:rgb(246,147,147);stroke-width:0.01" />
<line x1="0.383333" y1="0" x2="0.65" y2="0.2" style="stroke:rgb(246,147,147);stroke-width:0.01" />
<line x1="0.15" y1="0" x2="0.3" y2="0.2" style="stroke:rgb(246,147,147);stroke-width:0.01" />
<line x1="0" y1="0" x2="1.1" y2="0" style="stroke:rgb(246,147,147);stroke-width:0.01" />
<line x1="0" y1="0" x2="0" y2="0.2" style="stroke:rgb(246,147,147);stroke-width:0.01" />
<line x1="1.1" y1="0" x2="1.1" y2="0.2" style="stroke:rgb(246,147,147);stroke-width:0.01" />
<line x1="0" y1="0.1125" x2="0.116667" y2="0.2" style="stroke:rgb(246,147,147);stroke-width:0.01" />
<line x1="0.15" y1="0" x2="0" y2="0.1125" style="stroke:rgb(246,147,147);stroke-width:0.01" />
<line x1="0.15" y1="0" x2="0" y2="0.2" style="stroke:rgb(246,147,147);stroke-width:0.01" />
<line x1="0.383333" y1="0" x2="0.116667" y2="0.2" style="stroke:rgb(246,147,147);stroke-width:0.01" />
<line x1="0" y1="0.2" x2="1.1" y2="0.2" style="stroke:rgb(246,147,147);stroke-width:0.01" />
<line x1="0.45" y1="0" x2="0.3" y2="0.2" style="stroke:rgb(246,147,147);stroke-width:0.01" />
<line x1="0.8" y1="0" x2="0.65" y2="0.2" style="stroke:rgb(246,147,147);stroke-width:0.01" />
<line x1="0.983333" y1="0" x2="0.716667" y2="0.2" style="stroke:rgb(246,147,147);stroke-width:0.01" />
<line x1="1.1" y1="0" x2="0.95" y2="0.2" style="stroke:rgb(246,147,147);stroke-width:0.01" />
<line x1="1.1" y1="0.0875" x2="0.95" y2="0.2" style="stroke:rgb(246,147,147);stroke-width:0.01" />
</g>
</svg>
