<svg xmlns="http://www.w3.org/2000/svg" viewBox="-1 -1 3 3">
<path d="M0.151163 0.015625 L0.803030 0.431579 L0.984375 0.708861 L0.269663 0.984375 z " fill="rgb(245,195,195)" />
<path d="M0 0 L0 1 L1 1 L1 0 z" fill="none" stroke="rgb(128,128,128)" stroke-width="0.01" />
<line x1="0.929568" y1="0.625059" x2="0.969774" y2="0.714489" style="stroke:rgb(246,147,147);stroke-width:0.01" />
<line x1="0.80303" y1="0.431579" x2="0.984375" y2="0.708861" style="stroke:rgb(246,147,147);stroke-width:0.01" />
<line x1="0.967654" y1="0.707947" x2="0.969774" y2="0.714489" style="stroke:rgb(246,147,147);stroke-width:0.01" />
<line x1="0.800535" y1="0.482567" x2="0.929568" y2="0.625059" style="stroke:rgb(246,147,147);stroke-width:0.01" />
<line x1="0.80303" y1="0.431579" x2="0.839227" y2="0.662412" style="stroke:rgb(246,147,147);stroke-width:0.01" />
<line x1="0.33625" y1="0.133729" x2="0.523241" y2="0.886623" style="stroke:rgb(246,147,147);stroke-width:0.01" />
<line x1="0.151163" y1="0.015625" x2="0.158773" y2="0.0294046" style="stroke:rgb(246,147,147);stroke-width:0.01" />
<line x1="0.151163" y1="0.015625" x2="0.80303" y2="0.431579" style="stroke:rgb(246,147,147);stroke-width:0.01" />
<line x1="0.157321" y1="0.06597" x2="0.494604" y2="0.792038" style="stroke:rgb(246,147,147);stroke-width:0.01" />
<line x1="0.499899" y1="0.843117" x2="0.523241" y2="0.886623" style="stroke:rgb(246,147,147);stroke-width:0.01" />
<line x1="0.151163" y1="0.015625" x2="0.269663" y2="0.984375" style="stroke:rgb(246,147,147);stroke-width:0.01" />
<line x1="0.167346" y1="0.0259517" x2="0.174623" y2="0.165771" style="stroke:rgb(246,147,147);stroke-width:0.01" />
<line x1="0.165327" y1="0.024663" x2="0.157321" y2="0.06597" style="stroke:rgb(246,147,147);stroke-width:0.01" />
<line x1="0.167346" y1="0.0259517" x2="0.158773" y2="0.0294046" style="stroke:rgb(246,147,147);stroke-width:0.01" />
<line x1="0.165327" y1="0.024663" x2="0.158773" y2="0.0294046" style="stroke:rgb(246,147,147);stroke-width:0.01" />
<line x1="0.174623" y1="0.165771" x2="0.169561" y2="0.166035" style="stroke:rgb(246,147,147);stroke-width:0.01" />
<line x1="0.33625" y1="0.133729" x2="0.169561" y2="0.166035" style="stroke:rgb(246,147,147);stroke-width:0.01" />
<line x1="0.275366" y1="0.969703" x2="0.269663" y2="0.984375" style="stroke:rgb(246,147,147);stroke-width:0.01" />
<line x1="0.839227" y1="0.662412" x2="0.963652" y2="0.716849" style="stroke:rgb(246,147,147);stroke-width:0.01" />
<line x1="0.967654" y1="0.707947" x2="0.963652" y2="0.716849" style="stroke:rgb(246,147,147);stroke-width:0.01" />
<line x1="0.267342" y1="0.965398" x2="0.275366" y2="0.969703" style="stroke:rgb(246,147,147);stroke-width:0.01" />
<line x1="0.967654" y1="0.707947" x2="0.984375" y2="0.708861" style="stroke:rgb(246,147,147);stroke-width:0.01" />
<line x1="0.800535" y1="0.482567" x2="0.267342" y2="0.965398" style="stroke:rgb(246,147,147);stroke-width:0.01" />
<line x1="0.911973" y1="0.598156" x2="0.839227" y2="0.662412" style="stroke:rgb(246,147,147);stroke-width:0.01" />
<line x1="0.911973" y1="0.598156" x2="0.494604" y2="0.792038" style="stroke:rgb(246,147,147);stroke-width:0.01" />
<line x1="0.267627" y1="0.967735" x2="0.275366" y2="0.969703" style="stroke:rgb(246,147,147);stroke-width:0.01" />
<line x1="0.499899" y1="0.843117" x2="0.267627" y2="0.967735" style="stroke:rgb(246,147,147);stroke-width:0.01" />
<line x1="0.984375" y1="0.708861" x2="0.269663" y2="0.984375" style="stroke:rgb(246,147,147);stroke-width:0.01" />
</svg>
