<svg xmlns="http://www.w3.org/2000/svg" viewBox="-1.5 -1.5 3 3">
<path d="M-0.400895 -0.519485 L0.250973 -0.103531 L0.432317 0.173751 L-0.282395 0.449265 z " fill="rgb(245,195,195)" />
<path d="M-0.552058 -0.535110 L0.447942 -0.535110 L0.447942 0.464890 L-0.552058 0.464890  z" fill="none" stroke="rgb(128,128,128)" stroke-width="0.01" />
<line x1="0.37751" y1="0.0899487" x2="0.417716" y2="0.179379" style="stroke:rgb(246,147,147);stroke-width:0.01" />
<line x1="0.250973" y1="-0.103531" x2="0.432317" y2="0.173751" style="stroke:rgb(246,147,147);stroke-width:0.01" />
<line x1="0.415596" y1="0.172837" x2="0.417716" y2="0.179379" style="stroke:rgb(246,147,147);stroke-width:0.01" />
<line x1="0.248477" y1="-0.0525431" x2="0.37751" y2="0.0899487" style="stroke:rgb(246,147,147);stroke-width:0.01" />
<line x1="0.250973" y1="-0.103531" x2="0.287169" y2="0.127302" style="stroke:rgb(246,147,147);stroke-width:0.01" />
<line x1="-0.215807" y1="-0.401381" x2="-0.0288172" y2="0.351513" style="stroke:rgb(246,147,147);stroke-width:0.01" />
<line x1="-0.400895" y1="-0.519485" x2="-0.393285" y2="-0.505705" style="stroke:rgb(246,147,147);stroke-width:0.01" />
<line x1="-0.400895" y1="-0.519485" x2="0.250973" y2="-0.103531" style="stroke:rgb(246,147,147);stroke-width:0.01" />
<line x1="-0.394737" y1="-0.46914" x2="-0.0574538" y2="0.256928" style="stroke:rgb(246,147,147);stroke-width:0.01" />
<line x1="-0.0521591" y1="0.308007" x2="-0.0288172" y2="0.351513" style="stroke:rgb(246,147,147);stroke-width:0.01" />
<line x1="-0.400895" y1="-0.519485" x2="-0.282395" y2="0.449265" style="stroke:rgb(246,147,147);stroke-width:0.01" />
<line x1="-0.384711" y1="-0.509158" x2="-0.377434" y2="-0.369339" style="stroke:rgb(246,147,147);stroke-width:0.01" />
<line x1="-0.386731" y1="-0.510447" x2="-0.394737" y2="-0.46914" style="stroke:rgb(246,147,147);stroke-width:0.01" />
<line x1="-0.384711" y1="-0.509158" x2="-0.393285" y2="-0.505705" style="stroke:rgb(246,147,147);stroke-width:0.01" />
<line x1="-0.386731" y1="-0.510447" x2="-0.393285" y2="-0.505705" style="stroke:rgb(246,147,147);stroke-width:0.01" />
<line x1="-0.377434" y1="-0.369339" x2="-0.382496" y2="-0.369075" style="stroke:rgb(246,147,147);stroke-width:0.01" />
<line x1="-0.215807" y1="-0.401381" x2="-0.382496" y2="-0.369075" style="stroke:rgb(246,147,147);stroke-width:0.01" />
<line x1="-0.276692" y1="0.434593" x2="-0.282395" y2="0.449265" style="stroke:rgb(246,147,147);stroke-width:0.01" />
<line x1="0.287169" y1="0.127302" x2="0.411594" y2="0.181739" style="stroke:rgb(246,147,147);stroke-width:0.01" />
<line x1="0.415596" y1="0.172837" x2="0.411594" y2="0.181739" style="stroke:rgb(246,147,147);stroke-width:0.01" />
<line x1="-0.284716" y1="0.430288" x2="-0.276692" y2="0.434593" style="stroke:rgb(246,147,147);stroke-width:0.01" />
<line x1="0.415596" y1="0.172837" x2="0.432317" y2="0.173751" style="stroke:rgb(246,147,147);stroke-width:0.01" />
<line x1="0.248477" y1="-0.0525431" x2="-0.284716" y2="0.430288" style="stroke:rgb(246,147,147);stroke-width:0.01" />
<line x1="0.359915" y1="0.063046" x2="0.287169" y2="0.127302" style="stroke:rgb(246,147,147);stroke-width:0.01" />
<line x1="0.359915" y1="0.063046" x2="-0.0574538" y2="0.256928" style="stroke:rgb(246,147,147);stroke-width:0.01" />
<line x1="-0.28443" y1="0.432625" x2="-0.276692" y2="0.434593" style="stroke:rgb(246,147,147);stroke-width:0.01" />
<line x1="-0.0521591" y1="0.308007" x2="-0.28443" y2="0.432625" style="stroke:rgb(246,147,147);stroke-width:0.01" />
<line x1="0.432317" y1="0.173751" x2="-0.282395" y2="0.449265" style="stroke:rgb(246,147,147);stroke-width:0.01" />
</svg>
