<svg xmlns="http://www.w3.org/2000/svg" viewBox="-1.5 -1.5 3 3">
<g transform="scale(1, -1)">
<path d="M-0.042157 -0.416667 L0.124510 -0.416667 L0.124510 -0.116667 L0.207843 -0.033333 L0.157843 0.016667 L0.191176 0.050000 L0.191176 0.250000 L-0.008824 0.250000 L-0.042157 0.216667 L-0.042157 0.183333 L-0.008824 0.183333 L-0.075490 0.116667 L-0.142157 0.116667 L-0.208824 0.050000 L-0.208824 -0.050000 L-0.108824 -0.050000 L-0.108824 -0.350000 z " fill="rgb(245,195,195)" />
<path d="M-0.208824 -0.416667 L0.791176 -0.416667 L0.791176 0.583333 L-0.208824 0.583333  z" fill="none" stroke="rgb(128,128,128)" stroke-width="0.01" />
<line x1="-0.108824" y1="-0.35" x2="0.207843" y2="-0.0333333" style="stroke:rgb(246,147,147);stroke-width:0.01" />
<line x1="-0.0421569" y1="-0.416667" x2="0.12451" y2="-0.416667" style="stroke:rgb(246,147,147);stroke-width:0.01" />
<line x1="-0.208824" y1="-0.05" x2="-0.208824" y2="0.05" style="stroke:rgb(246,147,147);stroke-width:0.01" />
<line x1="-0.108824" y1="-0.35" x2="-0.108824" y2="0.116667" style="stroke:rgb(246,147,147);stroke-width:0.01" />
<line x1="-0.0754902" y1="-0.0833333" x2="-0.0754902" y2="0.116667" style="stroke:rgb(246,147,147);stroke-width:0.01" />
<line x1="-0.0421569" y1="-0.416667" x2="-0.0421569" y2="0.0166667" style="stroke:rgb(246,147,147);stroke-width:0.01" />
<line x1="-0.0421569" y1="0.183333" x2="-0.0421569" y2="0.216667" style="stroke:rgb(246,147,147);stroke-width:0.01" />
<line x1="-0.00882353" y1="-0.05" x2="-0.00882353" y2="0.183333" style="stroke:rgb(246,147,147);stroke-width:0.01" />
<line x1="0.0911765" y1="-0.416667" x2="0.0911765" y2="0.216667" style="stroke:rgb(246,147,147);stroke-width:0.01" />
<line x1="0.12451" y1="-0.416667" x2="0.12451" y2="0.25" style="stroke:rgb(246,147,147);stroke-width:0.01" />
<line x1="0.157843" y1="-0.0833333" x2="0.157843" y2="0.0166667" style="stroke:rgb(246,147,147);stroke-width:0.01" />
<line x1="0.191176" y1="0.05" x2="0.191176" y2="0.25" style="stroke:rgb(246,147,147);stroke-width:0.01" />
<line x1="0.157843" y1="0.0166667" x2="0.191176" y2="0.05" style="stroke:rgb(246,147,147);stroke-width:0.01" />
<line x1="-0.108824" y1="-0.35" x2="-0.0421569" y2="-0.35" style="stroke:rgb(246,147,147);stroke-width:0.01" />
<line x1="-0.0421569" y1="-0.416667" x2="-0.108824" y2="-0.35" style="stroke:rgb(246,147,147);stroke-width:0.01" />
<line x1="-0.0754902" y1="-0.0833333" x2="0.191176" y2="0.183333" style="stroke:rgb(246,147,147);stroke-width:0.01" />
<line x1="-0.108824" y1="-0.05" x2="0.0578431" y2="0.116667" style="stroke:rgb(246,147,147);stroke-width:0.01" />
<line x1="-0.108824" y1="0.0166667" x2="0.12451" y2="0.25" style="stroke:rgb(246,147,147);stroke-width:0.01" />
<line x1="-0.0754902" y1="0.116667" x2="-0.00882353" y2="0.183333" style="stroke:rgb(246,147,147);stroke-width:0.01" />
<line x1="-0.208824" y1="0.05" x2="-0.142157" y2="0.116667" style="stroke:rgb(246,147,147);stroke-width:0.01" />
<line x1="-0.0421569" y1="0.216667" x2="-0.00882353" y2="0.25" style="stroke:rgb(246,147,147);stroke-width:0.01" />
<line x1="-0.00882353" y1="-0.0166667" x2="-0.142157" y2="0.116667" style="stroke:rgb(246,147,147);stroke-width:0.01" />
<line x1="-0.108824" y1="-0.0833333" x2="0.157843" y2="-0.0833333" style="stroke:rgb(246,147,147);stroke-width:0.01" />
<line x1="-0.208824" y1="-0.05" x2="-0.00882353" y2="-0.05" style="stroke:rgb(246,147,147);stroke-width:0.01" />
<line x1="-0.00882353" y1="0.116667" x2="-0.0421569" y2="0.15" style="stroke:rgb(246,147,147);stroke-width:0.01" />
<line x1="0.207843" y1="-0.0333333" x2="0.0245098" y2="0.15" style="stroke:rgb(246,147,147);stroke-width:0.01" />
<line x1="-0.108824" y1="0.0166667" x2="0.157843" y2="0.0166667" style="stroke:rgb(246,147,147);stroke-width:0.01" />
<line x1="0.191176" y1="0.05" x2="-0.00882353" y2="0.25" style="stroke:rgb(246,147,147);stroke-width:0.01" />
<line x1="-0.208824" y1="0.05" x2="-0.0754902" y2="0.05" style="stroke:rgb(246,147,147);stroke-width:0.01" />
<line x1="0.191176" y1="0.183333" x2="0.12451" y2="0.25" style="stroke:rgb(246,147,147);stroke-width:0.01" />
<line x1="-0.142157" y1="0.116667" x2="0.0578431" y2="0.116667" style="stroke:rgb(246,147,147);stroke-width:0.01" />
<line x1="-0.0421569" y1="0.183333" x2="0.191176" y2="0.183333" style="stroke:rgb(246,147,147);stroke-width:0.01" />
<line x1="-0.0421569" y1="0.216667" x2="0.191176" y2="0.216667" style="stroke:rgb(246,147,147);stroke-width:0.01" />
<line x1="-0.00882353" y1="0.25" x2="0.191176" y2="0.25" style="stroke:rgb(246,147,147);stroke-width:0.01" />
</g>
</svg>
