<svg xmlns="http://www.w3.org/2000/svg" viewBox="-1 -1 3 3">
<path d="M0.602941 0.015625 L0.984375 0.276923 L0.707692 0.557522 L0.376812 0.661538 L0.015625 0.177215 z " fill="rgb(245,195,195)" />
<path d="M0 0 L0 1 L1 1 L1 0 z" fill="none" stroke="rgb(128,128,128)" stroke-width="0.01" />
<line x1="0.962023" y1="0.261611" x2="0.966001" y2="0.272327" style="stroke:rgb(246,147,147);stroke-width:0.01" />
<line x1="0.602941" y1="0.015625" x2="0.984375" y2="0.276923" style="stroke:rgb(246,147,147);stroke-width:0.01" />
<line x1="0.587799" y1="0.0197912" x2="0.731792" y2="0.39152" style="stroke:rgb(246,147,147);stroke-width:0.01" />
<line x1="0.460788" y1="0.162048" x2="0.597822" y2="0.334165" style="stroke:rgb(246,147,147);stroke-width:0.01" />
<line x1="0.587799" y1="0.0197912" x2="0.591335" y2="0.0407186" style="stroke:rgb(246,147,147);stroke-width:0.01" />
<line x1="0.26115" y1="0.271462" x2="0.264516" y2="0.510959" style="stroke:rgb(246,147,147);stroke-width:0.01" />
<line x1="0.248471" y1="0.331086" x2="0.44115" y2="0.566236" style="stroke:rgb(246,147,147);stroke-width:0.01" />
<line x1="0.0325751" y1="0.172552" x2="0.0300285" y2="0.184642" style="stroke:rgb(246,147,147);stroke-width:0.01" />
<line x1="0.966001" y1="0.272327" x2="0.984375" y2="0.276923" style="stroke:rgb(246,147,147);stroke-width:0.01" />
<line x1="0.248471" y1="0.331086" x2="0.233729" y2="0.469676" style="stroke:rgb(246,147,147);stroke-width:0.01" />
<line x1="0.015625" y1="0.177215" x2="0.376812" y2="0.661538" style="stroke:rgb(246,147,147);stroke-width:0.01" />
<line x1="0.0325751" y1="0.172552" x2="0.147207" y2="0.296946" style="stroke:rgb(246,147,147);stroke-width:0.01" />
<line x1="0.0440896" y1="0.169384" x2="0.0300285" y2="0.184642" style="stroke:rgb(246,147,147);stroke-width:0.01" />
<line x1="0.015625" y1="0.177215" x2="0.0300285" y2="0.184642" style="stroke:rgb(246,147,147);stroke-width:0.01" />
<line x1="0.0440896" y1="0.169384" x2="0.597822" y2="0.334165" style="stroke:rgb(246,147,147);stroke-width:0.01" />
<line x1="0.602941" y1="0.015625" x2="0.015625" y2="0.177215" style="stroke:rgb(246,147,147);stroke-width:0.01" />
<line x1="0.602941" y1="0.015625" x2="0.591335" y2="0.0407186" style="stroke:rgb(246,147,147);stroke-width:0.01" />
<line x1="0.147207" y1="0.296946" x2="0.122141" y2="0.320045" style="stroke:rgb(246,147,147);stroke-width:0.01" />
<line x1="0.962023" y1="0.261611" x2="0.26115" y2="0.271462" style="stroke:rgb(246,147,147);stroke-width:0.01" />
<line x1="0.591335" y1="0.0407186" x2="0.122141" y2="0.320045" style="stroke:rgb(246,147,147);stroke-width:0.01" />
<line x1="0.460788" y1="0.162048" x2="0.248471" y2="0.331086" style="stroke:rgb(246,147,147);stroke-width:0.01" />
<line x1="0.971087" y1="0.267821" x2="0.957642" y2="0.304035" style="stroke:rgb(246,147,147);stroke-width:0.01" />
<line x1="0.597822" y1="0.334165" x2="0.376812" y2="0.661538" style="stroke:rgb(246,147,147);stroke-width:0.01" />
<line x1="0.264516" y1="0.510959" x2="0.44115" y2="0.566236" style="stroke:rgb(246,147,147);stroke-width:0.01" />
<line x1="0.233729" y1="0.469676" x2="0.707692" y2="0.557522" style="stroke:rgb(246,147,147);stroke-width:0.01" />
<line x1="0.957642" y1="0.304035" x2="0.731792" y2="0.39152" style="stroke:rgb(246,147,147);stroke-width:0.01" />
<line x1="0.984375" y1="0.276923" x2="0.707692" y2="0.557522" style="stroke:rgb(246,147,147);stroke-width:0.01" />
<line x1="0.971087" y1="0.267821" x2="0.966001" y2="0.272327" style="stroke:rgb(246,147,147);stroke-width:0.01" />
<line x1="0.707692" y1="0.557522" x2="0.376812" y2="0.661538" style="stroke:rgb(246,147,147);stroke-width:0.01" />
</svg>
