<svg xmlns="http://www.w3.org/2000/svg" viewBox="-1.5 -1.5 3 3">
<g transform="scale(1, -1)">
<path d="M0.065452 -0.322140 L0.446886 -0.060842 L0.170203 0.219757 L-0.160677 0.323774 L-0.521864 -0.160550 z " fill="rgb(245,195,195)" />
<path d="M-0.537489 -0.337765 L0.462511 -0.337765 L0.462511 0.662235 L-0.537489 0.662235  z" fill="none" stroke="rgb(128,128,128)" stroke-width="0.01" />
<line x1="0.424534" y1="-0.0761541" x2="0.428512" y2="-0.0654376" style="stroke:rgb(246,147,147);stroke-width:0.01" />
<line x1="0.0654522" y1="-0.32214" x2="0.446886" y2="-0.0608417" style="stroke:rgb(246,147,147);stroke-width:0.01" />
<line x1="0.0503097" y1="-0.317974" x2="0.194303" y2="0.0537555" style="stroke:rgb(246,147,147);stroke-width:0.01" />
<line x1="-0.0767013" y1="-0.175717" x2="0.0603325" y2="-0.00359955" style="stroke:rgb(246,147,147);stroke-width:0.01" />
<line x1="0.0503097" y1="-0.317974" x2="0.0538464" y2="-0.297046" style="stroke:rgb(246,147,147);stroke-width:0.01" />
<line x1="-0.276339" y1="-0.0663027" x2="-0.272973" y2="0.173194" style="stroke:rgb(246,147,147);stroke-width:0.01" />
<line x1="-0.289018" y1="-0.00667834" x2="-0.0963389" y2="0.228472" style="stroke:rgb(246,147,147);stroke-width:0.01" />
<line x1="-0.504914" y1="-0.165213" x2="-0.507461" y2="-0.153122" style="stroke:rgb(246,147,147);stroke-width:0.01" />
<line x1="0.428512" y1="-0.0654376" x2="0.446886" y2="-0.0608417" style="stroke:rgb(246,147,147);stroke-width:0.01" />
<line x1="-0.289018" y1="-0.00667834" x2="-0.30376" y2="0.131911" style="stroke:rgb(246,147,147);stroke-width:0.01" />
<line x1="-0.521864" y1="-0.16055" x2="-0.160677" y2="0.323774" style="stroke:rgb(246,147,147);stroke-width:0.01" />
<line x1="-0.504914" y1="-0.165213" x2="-0.390282" y2="-0.0408186" style="stroke:rgb(246,147,147);stroke-width:0.01" />
<line x1="-0.493399" y1="-0.168381" x2="-0.507461" y2="-0.153122" style="stroke:rgb(246,147,147);stroke-width:0.01" />
<line x1="-0.521864" y1="-0.16055" x2="-0.507461" y2="-0.153122" style="stroke:rgb(246,147,147);stroke-width:0.01" />
<line x1="-0.493399" y1="-0.168381" x2="0.0603325" y2="-0.00359955" style="stroke:rgb(246,147,147);stroke-width:0.01" />
<line x1="0.0654522" y1="-0.32214" x2="-0.521864" y2="-0.16055" style="stroke:rgb(246,147,147);stroke-width:0.01" />
<line x1="0.0654522" y1="-0.32214" x2="0.0538464" y2="-0.297046" style="stroke:rgb(246,147,147);stroke-width:0.01" />
<line x1="-0.390282" y1="-0.0408186" x2="-0.415348" y2="-0.0177198" style="stroke:rgb(246,147,147);stroke-width:0.01" />
<line x1="0.424534" y1="-0.0761541" x2="-0.276339" y2="-0.0663027" style="stroke:rgb(246,147,147);stroke-width:0.01" />
<line x1="0.0538464" y1="-0.297046" x2="-0.415348" y2="-0.0177198" style="stroke:rgb(246,147,147);stroke-width:0.01" />
<line x1="-0.0767013" y1="-0.175717" x2="-0.289018" y2="-0.00667834" style="stroke:rgb(246,147,147);stroke-width:0.01" />
<line x1="0.433598" y1="-0.0699442" x2="0.420153" y2="-0.0337299" style="stroke:rgb(246,147,147);stroke-width:0.01" />
<line x1="0.0603325" y1="-0.00359955" x2="-0.160677" y2="0.323774" style="stroke:rgb(246,147,147);stroke-width:0.01" />
<line x1="-0.272973" y1="0.173194" x2="-0.0963389" y2="0.228472" style="stroke:rgb(246,147,147);stroke-width:0.01" />
<line x1="-0.30376" y1="0.131911" x2="0.170203" y2="0.219757" style="stroke:rgb(246,147,147);stroke-width:0.01" />
<line x1="0.420153" y1="-0.0337299" x2="0.194303" y2="0.0537555" style="stroke:rgb(246,147,147);stroke-width:0.01" />
<line x1="0.446886" y1="-0.0608417" x2="0.170203" y2="0.219757" style="stroke:rgb(246,147,147);stroke-width:0.01" />
<line x1="0.433598" y1="-0.0699442" x2="0.428512" y2="-0.0654376" style="stroke:rgb(246,147,147);stroke-width:0.01" />
<line x1="0.170203" y1="0.219757" x2="-0.160677" y2="0.323774" style="stroke:rgb(246,147,147);stroke-width:0.01" />
</g>
</svg>
