<svg xmlns="http://www.w3.org/2000/svg" viewBox="-1.5 -1.5 3 3">
<g transform="scale(1, -1)">
<path d="M0.153570 -0.298433 L0.479121 0.057866 L0.378804 0.109080 L-0.248497 0.187413 L-0.489629 0.063227 L-0.273370 -0.119152 z " fill="rgb(245,195,195)" />
<path d="M-0.505254 -0.588288 L0.494746 -0.588288 L0.494746 0.411712 L-0.505254 0.411712  z" fill="none" stroke="rgb(128,128,128)" stroke-width="0.01" />
<line x1="0.427029" y1="0.000853622" x2="0.45695" y2="0.0511562" style="stroke:rgb(246,147,147);stroke-width:0.01" />
<line x1="0.15357" y1="-0.298433" x2="0.479121" y2="0.0578656" style="stroke:rgb(246,147,147);stroke-width:0.01" />
<line x1="-0.062865" y1="0.0232682" x2="-0.0202152" y2="0.117768" style="stroke:rgb(246,147,147);stroke-width:0.01" />
<line x1="0.201687" y1="-0.16232" x2="0.427029" y2="0.000853622" style="stroke:rgb(246,147,147);stroke-width:0.01" />
<line x1="-0.04585" y1="0.0852569" x2="-0.0346325" y2="0.160707" style="stroke:rgb(246,147,147);stroke-width:0.01" />
<line x1="-0.0497191" y1="0.011644" x2="-0.0346325" y2="0.160707" style="stroke:rgb(246,147,147);stroke-width:0.01" />
<line x1="-0.210498" y1="-0.145554" x2="-0.209143" y2="-0.137915" style="stroke:rgb(246,147,147);stroke-width:0.01" />
<line x1="0.15357" y1="-0.298433" x2="0.17507" y2="0.0936062" style="stroke:rgb(246,147,147);stroke-width:0.01" />
<line x1="-0.210498" y1="-0.145554" x2="-0.04585" y2="0.0852569" style="stroke:rgb(246,147,147);stroke-width:0.01" />
<line x1="-0.472911" y1="0.057805" x2="-0.475025" y2="0.0707478" style="stroke:rgb(246,147,147);stroke-width:0.01" />
<line x1="-0.127625" y1="0.0805321" x2="-0.07283" y2="0.165477" style="stroke:rgb(246,147,147);stroke-width:0.01" />
<line x1="-0.148947" y1="-0.1714" x2="-0.165816" y2="0.0152703" style="stroke:rgb(246,147,147);stroke-width:0.01" />
<line x1="-0.148947" y1="-0.1714" x2="0.17507" y2="0.0936062" style="stroke:rgb(246,147,147);stroke-width:0.01" />
<line x1="-0.451427" y1="0.0310103" x2="-0.408478" y2="0.0929734" style="stroke:rgb(246,147,147);stroke-width:0.01" />
<line x1="-0.04585" y1="0.0852569" x2="-0.07283" y2="0.165477" style="stroke:rgb(246,147,147);stroke-width:0.01" />
<line x1="-0.127625" y1="0.0805321" x2="-0.0319819" y2="0.160376" style="stroke:rgb(246,147,147);stroke-width:0.01" />
<line x1="-0.27337" y1="-0.119152" x2="-0.408478" y2="0.0929734" style="stroke:rgb(246,147,147);stroke-width:0.01" />
<line x1="-0.062865" y1="0.0232682" x2="0.129343" y2="0.140231" style="stroke:rgb(246,147,147);stroke-width:0.01" />
<line x1="-0.451427" y1="0.0310103" x2="-0.340009" y2="0.140283" style="stroke:rgb(246,147,147);stroke-width:0.01" />
<line x1="-0.472911" y1="0.057805" x2="-0.443519" y2="0.0869739" style="stroke:rgb(246,147,147);stroke-width:0.01" />
<line x1="0.45695" y1="0.0511562" x2="0.479121" y2="0.0578656" style="stroke:rgb(246,147,147);stroke-width:0.01" />
<line x1="-0.341981" y1="-0.0612897" x2="-0.475025" y2="0.0707478" style="stroke:rgb(246,147,147);stroke-width:0.01" />
<line x1="-0.27337" y1="-0.119152" x2="-0.489629" y2="0.0632269" style="stroke:rgb(246,147,147);stroke-width:0.01" />
<line x1="-0.242973" y1="-0.131916" x2="-0.341981" y2="-0.0612897" style="stroke:rgb(246,147,147);stroke-width:0.01" />
<line x1="-0.0497191" y1="0.011644" x2="0.378804" y2="0.10908" style="stroke:rgb(246,147,147);stroke-width:0.01" />
<line x1="0.15357" y1="-0.298433" x2="-0.27337" y2="-0.119152" style="stroke:rgb(246,147,147);stroke-width:0.01" />
<line x1="0.201687" y1="-0.16232" x2="-0.0319819" y2="0.160376" style="stroke:rgb(246,147,147);stroke-width:0.01" />
<line x1="-0.209143" y1="-0.137915" x2="-0.242973" y2="-0.131916" style="stroke:rgb(246,147,147);stroke-width:0.01" />
<line x1="-0.489629" y1="0.0632269" x2="-0.248497" y2="0.187413" style="stroke:rgb(246,147,147);stroke-width:0.01" />
<line x1="-0.0497191" y1="0.011644" x2="-0.248497" y2="0.187413" style="stroke:rgb(246,147,147);stroke-width:0.01" />
<line x1="-0.165816" y1="0.0152703" x2="0.453013" y2="0.0711948" style="stroke:rgb(246,147,147);stroke-width:0.01" />
<line x1="0.46811" y1="0.045814" x2="0.453013" y2="0.0711948" style="stroke:rgb(246,147,147);stroke-width:0.01" />
<line x1="-0.472911" y1="0.057805" x2="-0.489629" y2="0.0632269" style="stroke:rgb(246,147,147);stroke-width:0.01" />
<line x1="-0.443519" y1="0.0869739" x2="-0.408478" y2="0.0929734" style="stroke:rgb(246,147,147);stroke-width:0.01" />
<line x1="0.17507" y1="0.0936062" x2="0.129343" y2="0.140231" style="stroke:rgb(246,147,147);stroke-width:0.01" />
<line x1="-0.340009" y1="0.140283" x2="-0.146235" y2="0.174643" style="stroke:rgb(246,147,147);stroke-width:0.01" />
<line x1="-0.0202152" y1="0.117768" x2="-0.146235" y2="0.174643" style="stroke:rgb(246,147,147);stroke-width:0.01" />
<line x1="0.378804" y1="0.10908" x2="-0.248497" y2="0.187413" style="stroke:rgb(246,147,147);stroke-width:0.01" />
<line x1="0.46811" y1="0.045814" x2="0.45695" y2="0.0511562" style="stroke:rgb(246,147,147);stroke-width:0.01" />
<line x1="0.479121" y1="0.0578656" x2="0.378804" y2="0.10908" style="stroke:rgb(246,147,147);stroke-width:0.01" />
</g>
</svg>
