<svg xmlns="http://www.w3.org/2000/svg" viewBox="-1 -1 3 3">
<path d="M0.658824 0.289855 L0.984375 0.646154 L0.884058 0.697368 L0.256757 0.775701 L0.015625 0.651515 L0.231884 0.469136 z " fill="rgb(245,195,195)" />
<path d="M0 0 L0 1 L1 1 L1 0 z" fill="none" stroke="rgb(128,128,128)" stroke-width="0.01" />
<line x1="0.932283" y1="0.589142" x2="0.962204" y2="0.639444" style="stroke:rgb(246,147,147);stroke-width:0.01" />
<line x1="0.658824" y1="0.289855" x2="0.984375" y2="0.646154" style="stroke:rgb(246,147,147);stroke-width:0.01" />
<line x1="0.442389" y1="0.611556" x2="0.485038" y2="0.706056" style="stroke:rgb(246,147,147);stroke-width:0.01" />
<line x1="0.706941" y1="0.425968" x2="0.932283" y2="0.589142" style="stroke:rgb(246,147,147);stroke-width:0.01" />
<line x1="0.459404" y1="0.673545" x2="0.470621" y2="0.748995" style="stroke:rgb(246,147,147);stroke-width:0.01" />
<line x1="0.455535" y1="0.599932" x2="0.470621" y2="0.748995" style="stroke:rgb(246,147,147);stroke-width:0.01" />
<line x1="0.294756" y1="0.442734" x2="0.296111" y2="0.450373" style="stroke:rgb(246,147,147);stroke-width:0.01" />
<line x1="0.658824" y1="0.289855" x2="0.680323" y2="0.681894" style="stroke:rgb(246,147,147);stroke-width:0.01" />
<line x1="0.294756" y1="0.442734" x2="0.459404" y2="0.673545" style="stroke:rgb(246,147,147);stroke-width:0.01" />
<line x1="0.0323432" y1="0.646093" x2="0.0302283" y2="0.659036" style="stroke:rgb(246,147,147);stroke-width:0.01" />
<line x1="0.377629" y1="0.66882" x2="0.432424" y2="0.753765" style="stroke:rgb(246,147,147);stroke-width:0.01" />
<line x1="0.356307" y1="0.416888" x2="0.339437" y2="0.603558" style="stroke:rgb(246,147,147);stroke-width:0.01" />
<line x1="0.356307" y1="0.416888" x2="0.680323" y2="0.681894" style="stroke:rgb(246,147,147);stroke-width:0.01" />
<line x1="0.0538264" y1="0.619298" x2="0.0967754" y2="0.681262" style="stroke:rgb(246,147,147);stroke-width:0.01" />
<line x1="0.459404" y1="0.673545" x2="0.432424" y2="0.753765" style="stroke:rgb(246,147,147);stroke-width:0.01" />
<line x1="0.377629" y1="0.66882" x2="0.473272" y2="0.748664" style="stroke:rgb(246,147,147);stroke-width:0.01" />
<line x1="0.231884" y1="0.469136" x2="0.0967754" y2="0.681262" style="stroke:rgb(246,147,147);stroke-width:0.01" />
<line x1="0.442389" y1="0.611556" x2="0.634597" y2="0.728519" style="stroke:rgb(246,147,147);stroke-width:0.01" />
<line x1="0.0538264" y1="0.619298" x2="0.165245" y2="0.728571" style="stroke:rgb(246,147,147);stroke-width:0.01" />
<line x1="0.0323432" y1="0.646093" x2="0.0617345" y2="0.675262" style="stroke:rgb(246,147,147);stroke-width:0.01" />
<line x1="0.962204" y1="0.639444" x2="0.984375" y2="0.646154" style="stroke:rgb(246,147,147);stroke-width:0.01" />
<line x1="0.163273" y1="0.526998" x2="0.0302283" y2="0.659036" style="stroke:rgb(246,147,147);stroke-width:0.01" />
<line x1="0.231884" y1="0.469136" x2="0.015625" y2="0.651515" style="stroke:rgb(246,147,147);stroke-width:0.01" />
<line x1="0.26228" y1="0.456372" x2="0.163273" y2="0.526998" style="stroke:rgb(246,147,147);stroke-width:0.01" />
<line x1="0.455535" y1="0.599932" x2="0.884058" y2="0.697368" style="stroke:rgb(246,147,147);stroke-width:0.01" />
<line x1="0.658824" y1="0.289855" x2="0.231884" y2="0.469136" style="stroke:rgb(246,147,147);stroke-width:0.01" />
<line x1="0.706941" y1="0.425968" x2="0.473272" y2="0.748664" style="stroke:rgb(246,147,147);stroke-width:0.01" />
<line x1="0.296111" y1="0.450373" x2="0.26228" y2="0.456372" style="stroke:rgb(246,147,147);stroke-width:0.01" />
<line x1="0.015625" y1="0.651515" x2="0.256757" y2="0.775701" style="stroke:rgb(246,147,147);stroke-width:0.01" />
<line x1="0.455535" y1="0.599932" x2="0.256757" y2="0.775701" style="stroke:rgb(246,147,147);stroke-width:0.01" />
<line x1="0.339437" y1="0.603558" x2="0.958266" y2="0.659483" style="stroke:rgb(246,147,147);stroke-width:0.01" />
<line x1="0.973363" y1="0.634102" x2="0.958266" y2="0.659483" style="stroke:rgb(246,147,147);stroke-width:0.01" />
<line x1="0.0323432" y1="0.646093" x2="0.015625" y2="0.651515" style="stroke:rgb(246,147,147);stroke-width:0.01" />
<line x1="0.0617345" y1="0.675262" x2="0.0967754" y2="0.681262" style="stroke:rgb(246,147,147);stroke-width:0.01" />
<line x1="0.680323" y1="0.681894" x2="0.634597" y2="0.728519" style="stroke:rgb(246,147,147);stroke-width:0.01" />
<line x1="0.165245" y1="0.728571" x2="0.359019" y2="0.762931" style="stroke:rgb(246,147,147);stroke-width:0.01" />
<line x1="0.485038" y1="0.706056" x2="0.359019" y2="0.762931" style="stroke:rgb(246,147,147);stroke-width:0.01" />
<line x1="0.884058" y1="0.697368" x2="0.256757" y2="0.775701" style="stroke:rgb(246,147,147);stroke-width:0.01" />
<line x1="0.973363" y1="0.634102" x2="0.962204" y2="0.639444" style="stroke:rgb(246,147,147);stroke-width:0.01" />
<line x1="0.984375" y1="0.646154" x2="0.884058" y2="0.697368" style="stroke:rgb(246,147,147);stroke-width:0.01" />
</svg>
