<svg xmlns="http://www.w3.org/2000/svg" viewBox="-1.5 -1.5 3 3">
<g transform="scale(1, -1)">
<path d="M0.260877 -0.623684 L0.519701 -0.138390 L0.148648 0.480031 L-0.307750 0.435139 L-0.621476 -0.153096 z " fill="rgb(245,195,195)" />
<path d="M0.069701 -0.138390 L1.069701 -0.138390 L1.069701 0.861610 L0.069701 0.861610  z" fill="none" stroke="rgb(128,128,128)" stroke-width="0.01" />
<line x1="0.260877" y1="-0.623684" x2="-0.621476" y2="-0.153096" style="stroke:rgb(246,147,147);stroke-width:0.01" />
<line x1="0.260877" y1="-0.623684" x2="0.519701" y2="-0.13839" style="stroke:rgb(246,147,147);stroke-width:0.01" />
<line x1="0.0697007" y1="-0.13839" x2="0.519701" y2="-0.13839" style="stroke:rgb(246,147,147);stroke-width:0.01" />
<line x1="0.0697007" y1="-0.13839" x2="0.0697007" y2="0.36161" style="stroke:rgb(246,147,147);stroke-width:0.01" />
<line x1="-0.0965889" y1="0.177221" x2="-0.30775" y2="0.435139" style="stroke:rgb(246,147,147);stroke-width:0.01" />
<line x1="0.0697007" y1="0.36161" x2="0.148648" y2="0.480031" style="stroke:rgb(246,147,147);stroke-width:0.01" />
<line x1="0.519701" y1="-0.13839" x2="0.148648" y2="0.480031" style="stroke:rgb(246,147,147);stroke-width:0.01" />
<line x1="-0.0965889" y1="0.177221" x2="0.189701" y2="0.41161" style="stroke:rgb(246,147,147);stroke-width:0.01" />
<line x1="-0.621476" y1="-0.153096" x2="-0.30775" y2="0.435139" style="stroke:rgb(246,147,147);stroke-width:0.01" />
<line x1="0.0697007" y1="0.36161" x2="0.189701" y2="0.41161" style="stroke:rgb(246,147,147);stroke-width:0.01" />
<line x1="-0.30775" y1="0.435139" x2="0.148648" y2="0.480031" style="stroke:rgb(246,147,147);stroke-width:0.01" />
</g>
</svg>
