<svg xmlns="http://www.w3.org/2000/svg" viewBox="-1.5 -1.5 3 3">
<path d="M-0.325593 -0.455495 L0.190107 -0.323986 L0.489551 -0.212500 L0.489551 0.381187 L0.349332 0.406658 L-0.234550 0.406658 L-0.479199 0.142871 L-0.479199 -0.345394 z " fill="rgb(245,195,195)" />
<path d="M-0.494824 -0.577717 L0.505176 -0.577717 L0.505176 0.422283 L-0.494824 0.422283  z" fill="none" stroke="rgb(128,128,128)" stroke-width="0.01" />
<line x1="0.190107" y1="-0.323986" x2="0.46658" y2="-0.185927" style="stroke:rgb(246,147,147);stroke-width:0.01" />
<line x1="-0.325593" y1="-0.455495" x2="-0.23443" y2="-0.266541" style="stroke:rgb(246,147,147);stroke-width:0.01" />
<line x1="-0.220059" y1="0.391033" x2="-0.218881" y2="0.406658" style="stroke:rgb(246,147,147);stroke-width:0.01" />
<line x1="0.190107" y1="-0.323986" x2="0.489551" y2="-0.2125" style="stroke:rgb(246,147,147);stroke-width:0.01" />
<line x1="-0.479199" y1="-0.345394" x2="-0.479199" y2="0.142871" style="stroke:rgb(246,147,147);stroke-width:0.01" />
<line x1="-0.463574" y1="-0.334194" x2="-0.463574" y2="0.159718" style="stroke:rgb(246,147,147);stroke-width:0.01" />
<line x1="0.473926" y1="-0.218317" x2="0.473926" y2="0.378349" style="stroke:rgb(246,147,147);stroke-width:0.01" />
<line x1="0.489551" y1="-0.2125" x2="0.489551" y2="0.381187" style="stroke:rgb(246,147,147);stroke-width:0.01" />
<line x1="-0.200578" y1="0.163876" x2="-0.218881" y2="0.406658" style="stroke:rgb(246,147,147);stroke-width:0.01" />
<line x1="-0.206806" y1="-0.425203" x2="-0.23443" y2="-0.266541" style="stroke:rgb(246,147,147);stroke-width:0.01" />
<line x1="-0.325593" y1="-0.455495" x2="0.190107" y2="-0.323986" style="stroke:rgb(246,147,147);stroke-width:0.01" />
<line x1="-0.206806" y1="-0.425203" x2="-0.264206" y2="-0.255973" style="stroke:rgb(246,147,147);stroke-width:0.01" />
<line x1="-0.23443" y1="-0.266541" x2="0.331476" y2="0.0421574" style="stroke:rgb(246,147,147);stroke-width:0.01" />
<line x1="-0.479199" y1="-0.345394" x2="-0.463574" y2="-0.334194" style="stroke:rgb(246,147,147);stroke-width:0.01" />
<line x1="-0.325593" y1="-0.455495" x2="-0.479199" y2="-0.345394" style="stroke:rgb(246,147,147);stroke-width:0.01" />
<line x1="0.458831" y1="-0.223937" x2="0.452154" y2="-0.193131" style="stroke:rgb(246,147,147);stroke-width:0.01" />
<line x1="0.473625" y1="-0.218429" x2="0.46658" y2="-0.185927" style="stroke:rgb(246,147,147);stroke-width:0.01" />
<line x1="-0.479199" y1="-0.328895" x2="-0.264206" y2="-0.255973" style="stroke:rgb(246,147,147);stroke-width:0.01" />
<line x1="-0.463574" y1="-0.334194" x2="-0.479199" y2="-0.328895" style="stroke:rgb(246,147,147);stroke-width:0.01" />
<line x1="-0.479199" y1="0.142871" x2="-0.23455" y2="0.406658" style="stroke:rgb(246,147,147);stroke-width:0.01" />
<line x1="0.489377" y1="0.337221" x2="0.473926" y2="0.378349" style="stroke:rgb(246,147,147);stroke-width:0.01" />
<line x1="0.489377" y1="0.337221" x2="0.489551" y2="0.337287" style="stroke:rgb(246,147,147);stroke-width:0.01" />
<line x1="0.458831" y1="-0.223937" x2="0.31776" y2="0.034675" style="stroke:rgb(246,147,147);stroke-width:0.01" />
<line x1="0.473625" y1="-0.218429" x2="0.331476" y2="0.0421574" style="stroke:rgb(246,147,147);stroke-width:0.01" />
<line x1="-0.220059" y1="0.391033" x2="-0.23455" y2="0.406658" style="stroke:rgb(246,147,147);stroke-width:0.01" />
<line x1="0.263315" y1="0.391033" x2="0.304904" y2="0.406658" style="stroke:rgb(246,147,147);stroke-width:0.01" />
<line x1="0.473926" y1="-0.218317" x2="0.452154" y2="-0.193131" style="stroke:rgb(246,147,147);stroke-width:0.01" />
<line x1="0.489551" y1="-0.2125" x2="0.46658" y2="-0.185927" style="stroke:rgb(246,147,147);stroke-width:0.01" />
<line x1="-0.479199" y1="0.142871" x2="-0.200578" y2="0.163876" style="stroke:rgb(246,147,147);stroke-width:0.01" />
<line x1="-0.463574" y1="0.159718" x2="-0.201752" y2="0.179457" style="stroke:rgb(246,147,147);stroke-width:0.01" />
<line x1="0.473926" y1="0.378349" x2="0.489551" y2="0.381187" style="stroke:rgb(246,147,147);stroke-width:0.01" />
<line x1="0.263315" y1="0.391033" x2="0.349332" y2="0.406658" style="stroke:rgb(246,147,147);stroke-width:0.01" />
<line x1="-0.220059" y1="0.391033" x2="0.263315" y2="0.391033" style="stroke:rgb(246,147,147);stroke-width:0.01" />
<line x1="-0.23455" y1="0.406658" x2="0.349332" y2="0.406658" style="stroke:rgb(246,147,147);stroke-width:0.01" />
<line x1="0.489551" y1="0.381187" x2="0.349332" y2="0.406658" style="stroke:rgb(246,147,147);stroke-width:0.01" />
<line x1="0.489551" y1="0.337287" x2="0.304904" y2="0.406658" style="stroke:rgb(246,147,147);stroke-width:0.01" />
</svg>
