<svg xmlns="http://www.w3.org/2000/svg" viewBox="-1.5 -1.5 3 3">
<g transform="scale(1, -1)">
<path d="M0.169231 0.122222 L0.684932 0.253731 L0.984375 0.365217 L0.984375 0.958904 L0.844156 0.984375 L0.260274 0.984375 L0.015625 0.720588 L0.015625 0.232323 z " fill="rgb(245,195,195)" />
<path d="M0.000000 0.000000 L1.000000 0.000000 L1.000000 1.000000 L0.000000 1.000000  z" fill="none" stroke="rgb(128,128,128)" stroke-width="0.01" />
<line x1="0.684932" y1="0.253731" x2="0.961404" y2="0.39179" style="stroke:rgb(246,147,147);stroke-width:0.01" />
<line x1="0.169231" y1="0.122222" x2="0.260394" y2="0.311176" style="stroke:rgb(246,147,147);stroke-width:0.01" />
<line x1="0.274765" y1="0.96875" x2="0.275943" y2="0.984375" style="stroke:rgb(246,147,147);stroke-width:0.01" />
<line x1="0.684932" y1="0.253731" x2="0.984375" y2="0.365217" style="stroke:rgb(246,147,147);stroke-width:0.01" />
<line x1="0.015625" y1="0.232323" x2="0.015625" y2="0.720588" style="stroke:rgb(246,147,147);stroke-width:0.01" />
<line x1="0.03125" y1="0.243523" x2="0.03125" y2="0.737436" style="stroke:rgb(246,147,147);stroke-width:0.01" />
<line x1="0.96875" y1="0.3594" x2="0.96875" y2="0.956066" style="stroke:rgb(246,147,147);stroke-width:0.01" />
<line x1="0.984375" y1="0.365217" x2="0.984375" y2="0.958904" style="stroke:rgb(246,147,147);stroke-width:0.01" />
<line x1="0.294246" y1="0.741593" x2="0.275943" y2="0.984375" style="stroke:rgb(246,147,147);stroke-width:0.01" />
<line x1="0.288018" y1="0.152514" x2="0.260394" y2="0.311176" style="stroke:rgb(246,147,147);stroke-width:0.01" />
<line x1="0.169231" y1="0.122222" x2="0.684932" y2="0.253731" style="stroke:rgb(246,147,147);stroke-width:0.01" />
<line x1="0.288018" y1="0.152514" x2="0.230618" y2="0.321744" style="stroke:rgb(246,147,147);stroke-width:0.01" />
<line x1="0.260394" y1="0.311176" x2="0.8263" y2="0.619875" style="stroke:rgb(246,147,147);stroke-width:0.01" />
<line x1="0.015625" y1="0.232323" x2="0.03125" y2="0.243523" style="stroke:rgb(246,147,147);stroke-width:0.01" />
<line x1="0.169231" y1="0.122222" x2="0.015625" y2="0.232323" style="stroke:rgb(246,147,147);stroke-width:0.01" />
<line x1="0.953655" y1="0.35378" x2="0.946978" y2="0.384586" style="stroke:rgb(246,147,147);stroke-width:0.01" />
<line x1="0.968449" y1="0.359288" x2="0.961404" y2="0.39179" style="stroke:rgb(246,147,147);stroke-width:0.01" />
<line x1="0.015625" y1="0.248823" x2="0.230618" y2="0.321744" style="stroke:rgb(246,147,147);stroke-width:0.01" />
<line x1="0.03125" y1="0.243523" x2="0.015625" y2="0.248823" style="stroke:rgb(246,147,147);stroke-width:0.01" />
<line x1="0.015625" y1="0.720588" x2="0.260274" y2="0.984375" style="stroke:rgb(246,147,147);stroke-width:0.01" />
<line x1="0.984201" y1="0.914938" x2="0.96875" y2="0.956066" style="stroke:rgb(246,147,147);stroke-width:0.01" />
<line x1="0.984201" y1="0.914938" x2="0.984375" y2="0.915004" style="stroke:rgb(246,147,147);stroke-width:0.01" />
<line x1="0.953655" y1="0.35378" x2="0.812584" y2="0.612392" style="stroke:rgb(246,147,147);stroke-width:0.01" />
<line x1="0.968449" y1="0.359288" x2="0.8263" y2="0.619875" style="stroke:rgb(246,147,147);stroke-width:0.01" />
<line x1="0.274765" y1="0.96875" x2="0.260274" y2="0.984375" style="stroke:rgb(246,147,147);stroke-width:0.01" />
<line x1="0.758139" y1="0.96875" x2="0.799728" y2="0.984375" style="stroke:rgb(246,147,147);stroke-width:0.01" />
<line x1="0.96875" y1="0.3594" x2="0.946978" y2="0.384586" style="stroke:rgb(246,147,147);stroke-width:0.01" />
<line x1="0.984375" y1="0.365217" x2="0.961404" y2="0.39179" style="stroke:rgb(246,147,147);stroke-width:0.01" />
<line x1="0.015625" y1="0.720588" x2="0.294246" y2="0.741593" style="stroke:rgb(246,147,147);stroke-width:0.01" />
<line x1="0.03125" y1="0.737436" x2="0.293072" y2="0.757174" style="stroke:rgb(246,147,147);stroke-width:0.01" />
<line x1="0.96875" y1="0.956066" x2="0.984375" y2="0.958904" style="stroke:rgb(246,147,147);stroke-width:0.01" />
<line x1="0.758139" y1="0.96875" x2="0.844156" y2="0.984375" style="stroke:rgb(246,147,147);stroke-width:0.01" />
<line x1="0.274765" y1="0.96875" x2="0.758139" y2="0.96875" style="stroke:rgb(246,147,147);stroke-width:0.01" />
<line x1="0.260274" y1="0.984375" x2="0.844156" y2="0.984375" style="stroke:rgb(246,147,147);stroke-width:0.01" />
<line x1="0.984375" y1="0.958904" x2="0.844156" y2="0.984375" style="stroke:rgb(246,147,147);stroke-width:0.01" />
<line x1="0.984375" y1="0.915004" x2="0.799728" y2="0.984375" style="stroke:rgb(246,147,147);stroke-width:0.01" />
</g>
</svg>
