<svg xmlns="http://www.w3.org/2000/svg" viewBox="-1.5 -1.5 3 3">
<g transform="scale(1, -1)">
<path d="M0.766667 0.800000 L0.883333 0.816667 L0.866667 0.933333 L0.733333 1.033333 L0.700000 1.266667 L0.600000 1.133333 L0.566667 1.366667 L0.366667 1.100000 z " fill="rgb(245,195,195)" />
<path d="M0.000000 0.000000 L1.000000 0.000000 L1.000000 1.000000 L0.000000 1.000000  z" fill="none" stroke="rgb(128,128,128)" stroke-width="0.01" />
<line x1="0.633333" y1="0.9" x2="0.566667" y2="1.36667" style="stroke:rgb(246,147,147);stroke-width:0.01" />
<line x1="0.5" y1="1" x2="0.7" y2="1.26667" style="stroke:rgb(246,147,147);stroke-width:0.01" />
<line x1="0.766667" y1="0.8" x2="0.7" y2="1.26667" style="stroke:rgb(246,147,147);stroke-width:0.01" />
<line x1="0.883333" y1="0.816667" x2="0.866667" y2="0.933333" style="stroke:rgb(246,147,147);stroke-width:0.01" />
<line x1="0.366667" y1="1.1" x2="0.566667" y2="1.36667" style="stroke:rgb(246,147,147);stroke-width:0.01" />
<line x1="0.766667" y1="0.8" x2="0.883333" y2="0.816667" style="stroke:rgb(246,147,147);stroke-width:0.01" />
<line x1="0.633333" y1="0.9" x2="0.866667" y2="0.933333" style="stroke:rgb(246,147,147);stroke-width:0.01" />
<line x1="0.766667" y1="0.8" x2="0.366667" y2="1.1" style="stroke:rgb(246,147,147);stroke-width:0.01" />
<line x1="0.75" y1="0.916667" x2="0.416667" y2="1.16667" style="stroke:rgb(246,147,147);stroke-width:0.01" />
<line x1="0.866667" y1="0.933333" x2="0.466667" y2="1.23333" style="stroke:rgb(246,147,147);stroke-width:0.01" />
</g>
</svg>
