<svg xmlns="http://www.w3.org/2000/svg" viewBox="-1.5 -1.5 3 3">
<g transform="scale(1, -1)">
<path d="M-0.338257 -0.483291 L0.138523 -0.483291 L0.425529 -0.360454 L0.425529 -0.039732 L0.419649 0.010344 L0.271924 0.402493 L0.009056 0.485459 L-0.265512 0.485459 L-0.543221 0.353357 L-0.543221 -0.370344 z " fill="rgb(245,195,195)" />
<path d="M-0.558846 -0.498916 L0.441154 -0.498916 L0.441154 0.501084 L-0.558846 0.501084  z" fill="none" stroke="rgb(128,128,128)" stroke-width="0.01" />
<line x1="0.409904" y1="-0.353767" x2="0.425529" y2="-0.338857" style="stroke:rgb(246,147,147);stroke-width:0.01" />
<line x1="0.116925" y1="-0.483291" x2="0.336145" y2="-0.253561" style="stroke:rgb(246,147,147);stroke-width:0.01" />
<line x1="0.411954" y1="-0.0501732" x2="0.424068" y2="-0.0272834" style="stroke:rgb(246,147,147);stroke-width:0.01" />
<line x1="0.138523" y1="-0.483291" x2="0.425529" y2="-0.360454" style="stroke:rgb(246,147,147);stroke-width:0.01" />
<line x1="0.409904" y1="-0.17279" x2="0.425529" y2="-0.107178" style="stroke:rgb(246,147,147);stroke-width:0.01" />
<line x1="0.198705" y1="0.3525" x2="0.202855" y2="0.368673" style="stroke:rgb(246,147,147);stroke-width:0.01" />
<line x1="0.411954" y1="-0.0501732" x2="0.419649" y2="0.0103436" style="stroke:rgb(246,147,147);stroke-width:0.01" />
<line x1="0.409904" y1="-0.17279" x2="0.425529" y2="-0.039732" style="stroke:rgb(246,147,147);stroke-width:0.01" />
<line x1="-0.543221" y1="-0.370344" x2="-0.543221" y2="0.353357" style="stroke:rgb(246,147,147);stroke-width:0.01" />
<line x1="-0.527596" y1="-0.378955" x2="-0.527596" y2="0.345924" style="stroke:rgb(246,147,147);stroke-width:0.01" />
<line x1="0.409904" y1="-0.353767" x2="0.409904" y2="-0.17279" style="stroke:rgb(246,147,147);stroke-width:0.01" />
<line x1="0.425529" y1="-0.360454" x2="0.425529" y2="-0.039732" style="stroke:rgb(246,147,147);stroke-width:0.01" />
<line x1="-0.338257" y1="-0.483291" x2="0.138523" y2="-0.483291" style="stroke:rgb(246,147,147);stroke-width:0.01" />
<line x1="-0.366612" y1="-0.467666" x2="0.102015" y2="-0.467666" style="stroke:rgb(246,147,147);stroke-width:0.01" />
<line x1="-0.527596" y1="-0.378955" x2="-0.43939" y2="-0.323225" style="stroke:rgb(246,147,147);stroke-width:0.01" />
<line x1="-0.543221" y1="-0.370344" x2="-0.447736" y2="-0.310015" style="stroke:rgb(246,147,147);stroke-width:0.01" />
<line x1="-0.366612" y1="-0.467666" x2="-0.460945" y2="-0.318361" style="stroke:rgb(246,147,147);stroke-width:0.01" />
<line x1="-0.338257" y1="-0.483291" x2="-0.447736" y2="-0.310015" style="stroke:rgb(246,147,147);stroke-width:0.01" />
<line x1="-0.338257" y1="-0.483291" x2="-0.543221" y2="-0.370344" style="stroke:rgb(246,147,147);stroke-width:0.01" />
<line x1="0.425529" y1="-0.039732" x2="0.419649" y2="0.0103436" style="stroke:rgb(246,147,147);stroke-width:0.01" />
<line x1="0.0797053" y1="0.364924" x2="0.162006" y2="0.437185" style="stroke:rgb(246,147,147);stroke-width:0.01" />
<line x1="0.179314" y1="0.366095" x2="0.162006" y2="0.437185" style="stroke:rgb(246,147,147);stroke-width:0.01" />
<line x1="0.198705" y1="0.3525" x2="0.271924" y2="0.402493" style="stroke:rgb(246,147,147);stroke-width:0.01" />
<line x1="-0.438469" y1="0.248026" x2="-0.245372" y2="0.485459" style="stroke:rgb(246,147,147);stroke-width:0.01" />
<line x1="0.425529" y1="-0.107178" x2="0.411954" y2="-0.0501732" style="stroke:rgb(246,147,147);stroke-width:0.01" />
<line x1="0.138523" y1="-0.483291" x2="0.102015" y2="-0.467666" style="stroke:rgb(246,147,147);stroke-width:0.01" />
<line x1="0.116925" y1="-0.483291" x2="0.102015" y2="-0.467666" style="stroke:rgb(246,147,147);stroke-width:0.01" />
<line x1="0.419649" y1="0.0103436" x2="0.271924" y2="0.402493" style="stroke:rgb(246,147,147);stroke-width:0.01" />
<line x1="0.425529" y1="-0.360454" x2="0.409904" y2="-0.353767" style="stroke:rgb(246,147,147);stroke-width:0.01" />
<line x1="-0.543221" y1="0.333217" x2="-0.527596" y2="0.345924" style="stroke:rgb(246,147,147);stroke-width:0.01" />
<line x1="-0.438469" y1="0.248026" x2="-0.543221" y2="0.333217" style="stroke:rgb(246,147,147);stroke-width:0.01" />
<line x1="-0.232665" y1="0.469834" x2="-0.245372" y2="0.485459" style="stroke:rgb(246,147,147);stroke-width:0.01" />
<line x1="0.425529" y1="-0.338857" x2="0.336145" y2="-0.253561" style="stroke:rgb(246,147,147);stroke-width:0.01" />
<line x1="-0.543221" y1="0.353357" x2="-0.265512" y2="0.485459" style="stroke:rgb(246,147,147);stroke-width:0.01" />
<line x1="0.424068" y1="-0.0272834" x2="0.0797053" y2="0.364924" style="stroke:rgb(246,147,147);stroke-width:0.01" />
<line x1="-0.527596" y1="0.345924" x2="-0.543221" y2="0.353357" style="stroke:rgb(246,147,147);stroke-width:0.01" />
<line x1="0.179314" y1="0.366095" x2="0.202855" y2="0.368673" style="stroke:rgb(246,147,147);stroke-width:0.01" />
<line x1="-0.232665" y1="0.469834" x2="-0.265512" y2="0.485459" style="stroke:rgb(246,147,147);stroke-width:0.01" />
<line x1="0.198705" y1="0.3525" x2="0.00905573" y2="0.485459" style="stroke:rgb(246,147,147);stroke-width:0.01" />
<line x1="0.202855" y1="0.368673" x2="0.0585614" y2="0.469834" style="stroke:rgb(246,147,147);stroke-width:0.01" />
<line x1="-0.232665" y1="0.469834" x2="0.0585614" y2="0.469834" style="stroke:rgb(246,147,147);stroke-width:0.01" />
<line x1="-0.265512" y1="0.485459" x2="0.00905573" y2="0.485459" style="stroke:rgb(246,147,147);stroke-width:0.01" />
<line x1="0.271924" y1="0.402493" x2="0.00905573" y2="0.485459" style="stroke:rgb(246,147,147);stroke-width:0.01" />
</g>
</svg>
