<svg xmlns="http://www.w3.org/2000/svg" viewBox="-1.5 -1.5 3 3">
<g transform="scale(1, -1)">
<path d="M0.220588 0.015625 L0.697368 0.015625 L0.984375 0.138462 L0.984375 0.459184 L0.978495 0.509259 L0.830769 0.901408 L0.567901 0.984375 L0.293333 0.984375 L0.015625 0.852273 L0.015625 0.128571 z " fill="rgb(245,195,195)" />
<path d="M0.000000 0.000000 L1.000000 0.000000 L1.000000 1.000000 L0.000000 1.000000  z" fill="none" stroke="rgb(128,128,128)" stroke-width="0.01" />
<line x1="0.96875" y1="0.145149" x2="0.984375" y2="0.160059" style="stroke:rgb(246,147,147);stroke-width:0.01" />
<line x1="0.675771" y1="0.015625" x2="0.89499" y2="0.245354" style="stroke:rgb(246,147,147);stroke-width:0.01" />
<line x1="0.9708" y1="0.448742" x2="0.982913" y2="0.471632" style="stroke:rgb(246,147,147);stroke-width:0.01" />
<line x1="0.697368" y1="0.015625" x2="0.984375" y2="0.138462" style="stroke:rgb(246,147,147);stroke-width:0.01" />
<line x1="0.96875" y1="0.326126" x2="0.984375" y2="0.391737" style="stroke:rgb(246,147,147);stroke-width:0.01" />
<line x1="0.75755" y1="0.851416" x2="0.7617" y2="0.867589" style="stroke:rgb(246,147,147);stroke-width:0.01" />
<line x1="0.9708" y1="0.448742" x2="0.978495" y2="0.509259" style="stroke:rgb(246,147,147);stroke-width:0.01" />
<line x1="0.96875" y1="0.326126" x2="0.984375" y2="0.459184" style="stroke:rgb(246,147,147);stroke-width:0.01" />
<line x1="0.015625" y1="0.128571" x2="0.015625" y2="0.852273" style="stroke:rgb(246,147,147);stroke-width:0.01" />
<line x1="0.03125" y1="0.119961" x2="0.03125" y2="0.84484" style="stroke:rgb(246,147,147);stroke-width:0.01" />
<line x1="0.96875" y1="0.145149" x2="0.96875" y2="0.326126" style="stroke:rgb(246,147,147);stroke-width:0.01" />
<line x1="0.984375" y1="0.138462" x2="0.984375" y2="0.459184" style="stroke:rgb(246,147,147);stroke-width:0.01" />
<line x1="0.220588" y1="0.015625" x2="0.697368" y2="0.015625" style="stroke:rgb(246,147,147);stroke-width:0.01" />
<line x1="0.192234" y1="0.03125" x2="0.660861" y2="0.03125" style="stroke:rgb(246,147,147);stroke-width:0.01" />
<line x1="0.03125" y1="0.119961" x2="0.119456" y2="0.175691" style="stroke:rgb(246,147,147);stroke-width:0.01" />
<line x1="0.015625" y1="0.128571" x2="0.11111" y2="0.1889" style="stroke:rgb(246,147,147);stroke-width:0.01" />
<line x1="0.192234" y1="0.03125" x2="0.0979003" y2="0.180554" style="stroke:rgb(246,147,147);stroke-width:0.01" />
<line x1="0.220588" y1="0.015625" x2="0.11111" y2="0.1889" style="stroke:rgb(246,147,147);stroke-width:0.01" />
<line x1="0.220588" y1="0.015625" x2="0.015625" y2="0.128571" style="stroke:rgb(246,147,147);stroke-width:0.01" />
<line x1="0.984375" y1="0.459184" x2="0.978495" y2="0.509259" style="stroke:rgb(246,147,147);stroke-width:0.01" />
<line x1="0.638551" y1="0.86384" x2="0.720852" y2="0.936101" style="stroke:rgb(246,147,147);stroke-width:0.01" />
<line x1="0.738159" y1="0.86501" x2="0.720852" y2="0.936101" style="stroke:rgb(246,147,147);stroke-width:0.01" />
<line x1="0.75755" y1="0.851416" x2="0.830769" y2="0.901408" style="stroke:rgb(246,147,147);stroke-width:0.01" />
<line x1="0.120377" y1="0.746942" x2="0.313473" y2="0.984375" style="stroke:rgb(246,147,147);stroke-width:0.01" />
<line x1="0.984375" y1="0.391737" x2="0.9708" y2="0.448742" style="stroke:rgb(246,147,147);stroke-width:0.01" />
<line x1="0.697368" y1="0.015625" x2="0.660861" y2="0.03125" style="stroke:rgb(246,147,147);stroke-width:0.01" />
<line x1="0.675771" y1="0.015625" x2="0.660861" y2="0.03125" style="stroke:rgb(246,147,147);stroke-width:0.01" />
<line x1="0.978495" y1="0.509259" x2="0.830769" y2="0.901408" style="stroke:rgb(246,147,147);stroke-width:0.01" />
<line x1="0.984375" y1="0.138462" x2="0.96875" y2="0.145149" style="stroke:rgb(246,147,147);stroke-width:0.01" />
<line x1="0.015625" y1="0.832133" x2="0.03125" y2="0.84484" style="stroke:rgb(246,147,147);stroke-width:0.01" />
<line x1="0.120377" y1="0.746942" x2="0.015625" y2="0.832133" style="stroke:rgb(246,147,147);stroke-width:0.01" />
<line x1="0.326181" y1="0.96875" x2="0.313473" y2="0.984375" style="stroke:rgb(246,147,147);stroke-width:0.01" />
<line x1="0.984375" y1="0.160059" x2="0.89499" y2="0.245354" style="stroke:rgb(246,147,147);stroke-width:0.01" />
<line x1="0.015625" y1="0.852273" x2="0.293333" y2="0.984375" style="stroke:rgb(246,147,147);stroke-width:0.01" />
<line x1="0.982913" y1="0.471632" x2="0.638551" y2="0.86384" style="stroke:rgb(246,147,147);stroke-width:0.01" />
<line x1="0.03125" y1="0.84484" x2="0.015625" y2="0.852273" style="stroke:rgb(246,147,147);stroke-width:0.01" />
<line x1="0.738159" y1="0.86501" x2="0.7617" y2="0.867589" style="stroke:rgb(246,147,147);stroke-width:0.01" />
<line x1="0.326181" y1="0.96875" x2="0.293333" y2="0.984375" style="stroke:rgb(246,147,147);stroke-width:0.01" />
<line x1="0.75755" y1="0.851416" x2="0.567901" y2="0.984375" style="stroke:rgb(246,147,147);stroke-width:0.01" />
<line x1="0.7617" y1="0.867589" x2="0.617407" y2="0.96875" style="stroke:rgb(246,147,147);stroke-width:0.01" />
<line x1="0.326181" y1="0.96875" x2="0.617407" y2="0.96875" style="stroke:rgb(246,147,147);stroke-width:0.01" />
<line x1="0.293333" y1="0.984375" x2="0.567901" y2="0.984375" style="stroke:rgb(246,147,147);stroke-width:0.01" />
<line x1="0.830769" y1="0.901408" x2="0.567901" y2="0.984375" style="stroke:rgb(246,147,147);stroke-width:0.01" />
</g>
</svg>
