<svg xmlns="http://www.w3.org/2000/svg" viewBox="-1.5 -1.5 3 3">
<path d="M-0.065896 -0.461767 L0.092281 -0.461767 L0.500569 -0.051649 L0.464246 0.224989 L0.458223 0.247246 L0.221322 0.506983 L0.068433 0.506983 L-0.265415 0.367679 L-0.468181 0.197307 L-0.468181 -0.270870 L-0.364403 -0.361450 L-0.172995 -0.443684 z " fill="rgb(245,195,195)" />
<path d="M-0.483806 -0.477392 L0.516194 -0.477392 L0.516194 0.522608 L-0.483806 0.522608  z" fill="none" stroke="rgb(128,128,128)" stroke-width="0.01" />
<line x1="0.0922807" y1="-0.461767" x2="0.500569" y2="-0.0516493" style="stroke:rgb(246,147,147);stroke-width:0.01" />
<line x1="0.463615" y1="0.0261211" x2="0.481694" y2="0.0921001" style="stroke:rgb(246,147,147);stroke-width:0.01" />
<line x1="-0.103362" y1="-0.455441" x2="-0.0945372" y2="-0.446142" style="stroke:rgb(246,147,147);stroke-width:0.01" />
<line x1="-0.117659" y1="-0.453027" x2="-0.106955" y2="-0.447495" style="stroke:rgb(246,147,147);stroke-width:0.01" />
<line x1="-0.112565" y1="-0.453887" x2="-0.0945372" y2="-0.446142" style="stroke:rgb(246,147,147);stroke-width:0.01" />
<line x1="0.221203" y1="0.335429" x2="0.289993" y2="0.431692" style="stroke:rgb(246,147,147);stroke-width:0.01" />
<line x1="0.221203" y1="0.335429" x2="0.235573" y2="0.491358" style="stroke:rgb(246,147,147);stroke-width:0.01" />
<line x1="0.206032" y1="0.341074" x2="0.221322" y2="0.506983" style="stroke:rgb(246,147,147);stroke-width:0.01" />
<line x1="0.206032" y1="0.341074" x2="0.279225" y2="0.443498" style="stroke:rgb(246,147,147);stroke-width:0.01" />
<line x1="0.463615" y1="0.0261211" x2="0.464246" y2="0.224989" style="stroke:rgb(246,147,147);stroke-width:0.01" />
<line x1="-0.468181" y1="-0.27087" x2="-0.468181" y2="0.197307" style="stroke:rgb(246,147,147);stroke-width:0.01" />
<line x1="-0.452556" y1="-0.257232" x2="-0.452556" y2="0.184178" style="stroke:rgb(246,147,147);stroke-width:0.01" />
<line x1="0.0922807" y1="-0.461767" x2="0.0903854" y2="-0.037858" style="stroke:rgb(246,147,147);stroke-width:0.01" />
<line x1="0.107836" y1="-0.446142" x2="0.10601" y2="-0.0377882" style="stroke:rgb(246,147,147);stroke-width:0.01" />
<line x1="-0.172995" y1="-0.443684" x2="-0.127302" y2="-0.440423" style="stroke:rgb(246,147,147);stroke-width:0.01" />
<line x1="-0.0658958" y1="-0.461767" x2="0.0922807" y2="-0.461767" style="stroke:rgb(246,147,147);stroke-width:0.01" />
<line x1="-0.0945372" y1="-0.446142" x2="0.107836" y2="-0.446142" style="stroke:rgb(246,147,147);stroke-width:0.01" />
<line x1="-0.454759" y1="-0.282585" x2="-0.431373" y2="-0.250078" style="stroke:rgb(246,147,147);stroke-width:0.01" />
<line x1="-0.364403" y1="-0.36145" x2="-0.431373" y2="-0.250078" style="stroke:rgb(246,147,147);stroke-width:0.01" />
<line x1="-0.0658958" y1="-0.461767" x2="-0.172995" y2="-0.443684" style="stroke:rgb(246,147,147);stroke-width:0.01" />
<line x1="-0.454759" y1="-0.282585" x2="-0.362495" y2="-0.195029" style="stroke:rgb(246,147,147);stroke-width:0.01" />
<line x1="-0.468181" y1="-0.27087" x2="-0.452556" y2="-0.257232" style="stroke:rgb(246,147,147);stroke-width:0.01" />
<line x1="-0.364403" y1="-0.36145" x2="-0.468181" y2="-0.27087" style="stroke:rgb(246,147,147);stroke-width:0.01" />
<line x1="0.500569" y1="-0.0516493" x2="0.464246" y2="0.224989" style="stroke:rgb(246,147,147);stroke-width:0.01" />
<line x1="-0.172995" y1="-0.443684" x2="-0.364403" y2="-0.36145" style="stroke:rgb(246,147,147);stroke-width:0.01" />
<line x1="-0.0658958" y1="-0.461767" x2="-0.127302" y2="-0.440423" style="stroke:rgb(246,147,147);stroke-width:0.01" />
<line x1="-0.392816" y1="0.168259" x2="-0.265415" y2="0.367679" style="stroke:rgb(246,147,147);stroke-width:0.01" />
<line x1="-0.103362" y1="-0.455441" x2="-0.106955" y2="-0.447495" style="stroke:rgb(246,147,147);stroke-width:0.01" />
<line x1="-0.117659" y1="-0.453027" x2="-0.362495" y2="-0.195029" style="stroke:rgb(246,147,147);stroke-width:0.01" />
<line x1="-0.112565" y1="-0.453887" x2="-0.127302" y2="-0.440423" style="stroke:rgb(246,147,147);stroke-width:0.01" />
<line x1="-0.308913" y1="0.103471" x2="0.0904154" y2="0.506983" style="stroke:rgb(246,147,147);stroke-width:0.01" />
<line x1="-0.468181" y1="-0.2551" x2="-0.431373" y2="-0.250078" style="stroke:rgb(246,147,147);stroke-width:0.01" />
<line x1="-0.452556" y1="-0.257232" x2="-0.468181" y2="-0.2551" style="stroke:rgb(246,147,147);stroke-width:0.01" />
<line x1="-0.392816" y1="0.168259" x2="-0.433326" y2="0.226594" style="stroke:rgb(246,147,147);stroke-width:0.01" />
<line x1="0.487818" y1="-0.0644572" x2="0.463615" y2="0.0261211" style="stroke:rgb(246,147,147);stroke-width:0.01" />
<line x1="0.464246" y1="0.224989" x2="0.458223" y2="0.247246" style="stroke:rgb(246,147,147);stroke-width:0.01" />
<line x1="0.285058" y1="0.42881" x2="0.289993" y2="0.431692" style="stroke:rgb(246,147,147);stroke-width:0.01" />
<line x1="0.277179" y1="0.442303" x2="0.279225" y2="0.443498" style="stroke:rgb(246,147,147);stroke-width:0.01" />
<line x1="-0.308913" y1="0.103471" x2="-0.433326" y2="0.226594" style="stroke:rgb(246,147,147);stroke-width:0.01" />
<line x1="-0.468181" y1="0.197307" x2="-0.265415" y2="0.367679" style="stroke:rgb(246,147,147);stroke-width:0.01" />
<line x1="-0.452556" y1="0.184178" x2="-0.468181" y2="0.197307" style="stroke:rgb(246,147,147);stroke-width:0.01" />
<line x1="0.0903854" y1="-0.037858" x2="0.381499" y2="-0.0365565" style="stroke:rgb(246,147,147);stroke-width:0.01" />
<line x1="0.500569" y1="-0.0516493" x2="0.381499" y2="-0.0365565" style="stroke:rgb(246,147,147);stroke-width:0.01" />
<line x1="0.481694" y1="0.0921001" x2="0.277179" y2="0.442303" style="stroke:rgb(246,147,147);stroke-width:0.01" />
<line x1="0.487818" y1="-0.0644572" x2="0.381499" y2="-0.0365565" style="stroke:rgb(246,147,147);stroke-width:0.01" />
<line x1="-0.468181" y1="0.181445" x2="-0.452556" y2="0.184178" style="stroke:rgb(246,147,147);stroke-width:0.01" />
<line x1="-0.392816" y1="0.168259" x2="-0.468181" y2="0.181445" style="stroke:rgb(246,147,147);stroke-width:0.01" />
<line x1="-0.265415" y1="0.367679" x2="0.0684326" y2="0.506983" style="stroke:rgb(246,147,147);stroke-width:0.01" />
<line x1="0.105878" y1="0.491358" x2="0.0904154" y2="0.506983" style="stroke:rgb(246,147,147);stroke-width:0.01" />
<line x1="0.458223" y1="0.247246" x2="0.221322" y2="0.506983" style="stroke:rgb(246,147,147);stroke-width:0.01" />
<line x1="0.458223" y1="0.247246" x2="0.206032" y2="0.341074" style="stroke:rgb(246,147,147);stroke-width:0.01" />
<line x1="0.105878" y1="0.491358" x2="0.235573" y2="0.491358" style="stroke:rgb(246,147,147);stroke-width:0.01" />
<line x1="0.0684326" y1="0.506983" x2="0.221322" y2="0.506983" style="stroke:rgb(246,147,147);stroke-width:0.01" />
<line x1="0.105878" y1="0.491358" x2="0.0684326" y2="0.506983" style="stroke:rgb(246,147,147);stroke-width:0.01" />
</svg>
