<svg xmlns="http://www.w3.org/2000/svg" viewBox="-1 -1 3 3">
<path d="M0.397059 0.183099 L0.602941 0.183099 L0.770270 0.303797 L0.830769 0.500000 L0.770270 0.696203 L0.602941 0.816901 L0.397059 0.816901 L0.229730 0.696203 L0.169231 0.500000 L0.229730 0.303797 z " fill="rgb(245,195,195)" />
<path d="M0 0 L0 1 L1 1 L1 0 z" fill="none" stroke="rgb(128,128,128)" stroke-width="0.01" />
<line x1="0.77027" y1="0.303797" x2="0.830769" y2="0.5" style="stroke:rgb(246,147,147);stroke-width:0.01" />
<line x1="0.728685" y1="0.58146" x2="0.77027" y2="0.696203" style="stroke:rgb(246,147,147);stroke-width:0.01" />
<line x1="0.602941" y1="0.183099" x2="0.77027" y2="0.303797" style="stroke:rgb(246,147,147);stroke-width:0.01" />
<line x1="0.738099" y1="0.581254" x2="0.773181" y2="0.686762" style="stroke:rgb(246,147,147);stroke-width:0.01" />
<line x1="0.523287" y1="0.183099" x2="0.555674" y2="0.286374" style="stroke:rgb(246,147,147);stroke-width:0.01" />
<line x1="0.41001" y1="0.183099" x2="0.763175" y2="0.70132" style="stroke:rgb(246,147,147);stroke-width:0.01" />
<line x1="0.488757" y1="0.183099" x2="0.508201" y2="0.251438" style="stroke:rgb(246,147,147);stroke-width:0.01" />
<line x1="0.648794" y1="0.551356" x2="0.763175" y2="0.70132" style="stroke:rgb(246,147,147);stroke-width:0.01" />
<line x1="0.409986" y1="0.183099" x2="0.452435" y2="0.310761" style="stroke:rgb(246,147,147);stroke-width:0.01" />
<line x1="0.417545" y1="0.183099" x2="0.555674" y2="0.286374" style="stroke:rgb(246,147,147);stroke-width:0.01" />
<line x1="0.397059" y1="0.183099" x2="0.5" y2="0.257353" style="stroke:rgb(246,147,147);stroke-width:0.01" />
<line x1="0.409348" y1="0.18407" x2="0.508201" y2="0.251438" style="stroke:rgb(246,147,147);stroke-width:0.01" />
<line x1="0.22973" y1="0.303797" x2="0.271315" y2="0.41854" style="stroke:rgb(246,147,147);stroke-width:0.01" />
<line x1="0.356006" y1="0.693436" x2="0.397059" y2="0.816901" style="stroke:rgb(246,147,147);stroke-width:0.01" />
<line x1="0.236825" y1="0.29868" x2="0.58999" y2="0.816901" style="stroke:rgb(246,147,147);stroke-width:0.01" />
<line x1="0.236825" y1="0.29868" x2="0.462246" y2="0.594229" style="stroke:rgb(246,147,147);stroke-width:0.01" />
<line x1="0.169231" y1="0.5" x2="0.22973" y2="0.696203" style="stroke:rgb(246,147,147);stroke-width:0.01" />
<line x1="0.705657" y1="0.507986" x2="0.806175" y2="0.579762" style="stroke:rgb(246,147,147);stroke-width:0.01" />
<line x1="0.733926" y1="0.595922" x2="0.789511" y2="0.633803" style="stroke:rgb(246,147,147);stroke-width:0.01" />
<line x1="0.22973" y1="0.303797" x2="0.169231" y2="0.5" style="stroke:rgb(246,147,147);stroke-width:0.01" />
<line x1="0.409986" y1="0.183099" x2="0.407485" y2="0.19062" style="stroke:rgb(246,147,147);stroke-width:0.01" />
<line x1="0.488757" y1="0.183099" x2="0.452435" y2="0.310761" style="stroke:rgb(246,147,147);stroke-width:0.01" />
<line x1="0.323406" y1="0.633803" x2="0.290621" y2="0.740125" style="stroke:rgb(246,147,147);stroke-width:0.01" />
<line x1="0.523287" y1="0.183099" x2="0.5" y2="0.257353" style="stroke:rgb(246,147,147);stroke-width:0.01" />
<line x1="0.397059" y1="0.183099" x2="0.602941" y2="0.183099" style="stroke:rgb(246,147,147);stroke-width:0.01" />
<line x1="0.193825" y1="0.420238" x2="0.450275" y2="0.60336" style="stroke:rgb(246,147,147);stroke-width:0.01" />
<line x1="0.555674" y1="0.286374" x2="0.450275" y2="0.60336" style="stroke:rgb(246,147,147);stroke-width:0.01" />
<line x1="0.738099" y1="0.581254" x2="0.733926" y2="0.595922" style="stroke:rgb(246,147,147);stroke-width:0.01" />
<line x1="0.41001" y1="0.183099" x2="0.409348" y2="0.18407" style="stroke:rgb(246,147,147);stroke-width:0.01" />
<line x1="0.705657" y1="0.507986" x2="0.602941" y2="0.816901" style="stroke:rgb(246,147,147);stroke-width:0.01" />
<line x1="0.830769" y1="0.5" x2="0.77027" y2="0.696203" style="stroke:rgb(246,147,147);stroke-width:0.01" />
<line x1="0.323406" y1="0.633803" x2="0.590652" y2="0.81593" style="stroke:rgb(246,147,147);stroke-width:0.01" />
<line x1="0.397059" y1="0.183099" x2="0.22973" y2="0.303797" style="stroke:rgb(246,147,147);stroke-width:0.01" />
<line x1="0.417545" y1="0.183099" x2="0.407485" y2="0.19062" style="stroke:rgb(246,147,147);stroke-width:0.01" />
<line x1="0.77027" y1="0.303797" x2="0.452435" y2="0.310761" style="stroke:rgb(246,147,147);stroke-width:0.01" />
<line x1="0.22973" y1="0.696203" x2="0.397059" y2="0.816901" style="stroke:rgb(246,147,147);stroke-width:0.01" />
<line x1="0.271315" y1="0.41854" x2="0.169231" y2="0.5" style="stroke:rgb(246,147,147);stroke-width:0.01" />
<line x1="0.602941" y1="0.183099" x2="0.5" y2="0.257353" style="stroke:rgb(246,147,147);stroke-width:0.01" />
<line x1="0.271315" y1="0.41854" x2="0.193825" y2="0.420238" style="stroke:rgb(246,147,147);stroke-width:0.01" />
<line x1="0.590652" y1="0.81593" x2="0.58999" y2="0.816901" style="stroke:rgb(246,147,147);stroke-width:0.01" />
<line x1="0.806175" y1="0.579762" x2="0.728685" y2="0.58146" style="stroke:rgb(246,147,147);stroke-width:0.01" />
<line x1="0.462246" y1="0.594229" x2="0.450275" y2="0.60336" style="stroke:rgb(246,147,147);stroke-width:0.01" />
<line x1="0.356006" y1="0.693436" x2="0.290621" y2="0.740125" style="stroke:rgb(246,147,147);stroke-width:0.01" />
<line x1="0.323406" y1="0.633803" x2="0.789511" y2="0.633803" style="stroke:rgb(246,147,147);stroke-width:0.01" />
<line x1="0.705657" y1="0.507986" x2="0.648794" y2="0.551356" style="stroke:rgb(246,147,147);stroke-width:0.01" />
<line x1="0.356006" y1="0.693436" x2="0.22973" y2="0.696203" style="stroke:rgb(246,147,147);stroke-width:0.01" />
<line x1="0.830769" y1="0.5" x2="0.728685" y2="0.58146" style="stroke:rgb(246,147,147);stroke-width:0.01" />
<line x1="0.773181" y1="0.686762" x2="0.759835" y2="0.696941" style="stroke:rgb(246,147,147);stroke-width:0.01" />
<line x1="0.397059" y1="0.816901" x2="0.602941" y2="0.816901" style="stroke:rgb(246,147,147);stroke-width:0.01" />
<line x1="0.77027" y1="0.696203" x2="0.602941" y2="0.816901" style="stroke:rgb(246,147,147);stroke-width:0.01" />
</svg>
