<svg xmlns="http://www.w3.org/2000/svg" viewBox="-1 -1 3 3">
<path d="M0.062500 0.437500 L0.812500 0.437500 L0.937500 0.562500 L0.937500 0.687500 L0.625000 1.000000 L0.437500 0.812500 L0.375000 0.875000 L0.000000 0.500000 z " fill="rgb(245,195,195)" />
<path d="M0 0 L0 1 L1 1 L1 0 z" fill="none" stroke="rgb(128,128,128)" stroke-width="0.01" />
<line x1="0.8125" y1="0.4375" x2="0.9375" y2="0.5625" style="stroke:rgb(246,147,147);stroke-width:0.01" />
<line x1="0.875" y1="0.625" x2="0.9375" y2="0.6875" style="stroke:rgb(246,147,147);stroke-width:0.01" />
<line x1="0.375" y1="0.4375" x2="0.375" y2="0.875" style="stroke:rgb(246,147,147);stroke-width:0.01" />
<line x1="0.625" y1="0.4375" x2="0.625" y2="1" style="stroke:rgb(246,147,147);stroke-width:0.01" />
<line x1="0.9375" y1="0.5625" x2="0.9375" y2="0.6875" style="stroke:rgb(246,147,147);stroke-width:0.01" />
<line x1="0.0625" y1="0.4375" x2="0.625" y2="1" style="stroke:rgb(246,147,147);stroke-width:0.01" />
<line x1="0" y1="0.5" x2="0.375" y2="0.875" style="stroke:rgb(246,147,147);stroke-width:0.01" />
<line x1="0.0625" y1="0.4375" x2="0" y2="0.5" style="stroke:rgb(246,147,147);stroke-width:0.01" />
<line x1="0.0625" y1="0.4375" x2="0.8125" y2="0.4375" style="stroke:rgb(246,147,147);stroke-width:0.01" />
<line x1="0" y1="0.5" x2="0.625" y2="0.5" style="stroke:rgb(246,147,147);stroke-width:0.01" />
<line x1="0.375" y1="0.625" x2="0.9375" y2="0.625" style="stroke:rgb(246,147,147);stroke-width:0.01" />
<line x1="0.8125" y1="0.4375" x2="0.375" y2="0.875" style="stroke:rgb(246,147,147);stroke-width:0.01" />
<line x1="0.9375" y1="0.5625" x2="0.875" y2="0.625" style="stroke:rgb(246,147,147);stroke-width:0.01" />
<line x1="0.9375" y1="0.6875" x2="0.625" y2="1" style="stroke:rgb(246,147,147);stroke-width:0.01" />
</svg>
