<svg xmlns="http://www.w3.org/2000/svg" viewBox="-1.5 -1.5 3 3">
<path d="M-0.460938 -0.226562 L0.289062 -0.226562 L0.414062 -0.101562 L0.414062 0.023438 L0.101562 0.335938 L-0.085938 0.148438 L-0.148438 0.210938 L-0.523438 -0.164062 z " fill="rgb(245,195,195)" />
<path d="M-0.523438 -0.664062 L0.476562 -0.664062 L0.476562 0.335938 L-0.523438 0.335938  z" fill="none" stroke="rgb(128,128,128)" stroke-width="0.01" />
<line x1="0.289062" y1="-0.226562" x2="0.414062" y2="-0.101562" style="stroke:rgb(246,147,147);stroke-width:0.01" />
<line x1="0.351562" y1="-0.0390625" x2="0.414062" y2="0.0234375" style="stroke:rgb(246,147,147);stroke-width:0.01" />
<line x1="-0.148438" y1="-0.226562" x2="-0.148438" y2="0.210938" style="stroke:rgb(246,147,147);stroke-width:0.01" />
<line x1="0.101562" y1="-0.226562" x2="0.101562" y2="0.335938" style="stroke:rgb(246,147,147);stroke-width:0.01" />
<line x1="0.414062" y1="-0.101562" x2="0.414062" y2="0.0234375" style="stroke:rgb(246,147,147);stroke-width:0.01" />
<line x1="-0.460938" y1="-0.226562" x2="0.101562" y2="0.335938" style="stroke:rgb(246,147,147);stroke-width:0.01" />
<line x1="-0.523438" y1="-0.164062" x2="-0.148438" y2="0.210938" style="stroke:rgb(246,147,147);stroke-width:0.01" />
<line x1="-0.460938" y1="-0.226562" x2="-0.523438" y2="-0.164062" style="stroke:rgb(246,147,147);stroke-width:0.01" />
<line x1="-0.460938" y1="-0.226562" x2="0.289062" y2="-0.226562" style="stroke:rgb(246,147,147);stroke-width:0.01" />
<line x1="-0.523438" y1="-0.164062" x2="0.101562" y2="-0.164062" style="stroke:rgb(246,147,147);stroke-width:0.01" />
<line x1="-0.148438" y1="-0.0390625" x2="0.414062" y2="-0.0390625" style="stroke:rgb(246,147,147);stroke-width:0.01" />
<line x1="0.289062" y1="-0.226562" x2="-0.148438" y2="0.210938" style="stroke:rgb(246,147,147);stroke-width:0.01" />
<line x1="0.414062" y1="-0.101562" x2="0.351562" y2="-0.0390625" style="stroke:rgb(246,147,147);stroke-width:0.01" />
<line x1="0.414062" y1="0.0234375" x2="0.101562" y2="0.335938" style="stroke:rgb(246,147,147);stroke-width:0.01" />
</svg>
