<svg xmlns="http://www.w3.org/2000/svg" viewBox="-1.5 -1.5 3 3">
<g transform="scale(1, -1)">
<path d="M143165576.466667 0.111111 L143165577.466667 0.444444 L143165577.466667 1.000000 L143165576.466667 0.666667 L143165576.466667 0.250000 L143165576.400000 0.200000 z " fill="rgb(245,195,195)" />
<path d="M0.000000 0.000000 L1.000000 0.000000 L1.000000 1.000000 L0.000000 1.000000  z" fill="none" stroke="rgb(128,128,128)" stroke-width="0.01" />
<line x1="1.43166e+08" y1="0.2" x2="1.43166e+08" y2="1" style="stroke:rgb(246,147,147);stroke-width:0.01" />
<line x1="1.43166e+08" y1="0.111111" x2="1.43166e+08" y2="0.444444" style="stroke:rgb(246,147,147);stroke-width:0.01" />
<line x1="1.43166e+08" y1="0.666667" x2="1.43166e+08" y2="1" style="stroke:rgb(246,147,147);stroke-width:0.01" />
<line x1="1.43166e+08" y1="0.111111" x2="1.43166e+08" y2="0.666667" style="stroke:rgb(246,147,147);stroke-width:0.01" />
<line x1="1.43166e+08" y1="0.444444" x2="1.43166e+08" y2="1" style="stroke:rgb(246,147,147);stroke-width:0.01" />
<line x1="1.43166e+08" y1="0.111111" x2="1.43166e+08" y2="0.2" style="stroke:rgb(246,147,147);stroke-width:0.01" />
<line x1="1.43166e+08" y1="0.4" x2="1.43166e+08" y2="0.666667" style="stroke:rgb(246,147,147);stroke-width:0.01" />
<line x1="1.43166e+08" y1="0.444444" x2="1.43166e+08" y2="0.8" style="stroke:rgb(246,147,147);stroke-width:0.01" />
</g>
</svg>
