<svg xmlns="http://www.w3.org/2000/svg" viewBox="-1 -1 3 3">
<path d="M0.437500 0.437500 L0.562500 0.437500 L0.812500 0.687500 L0.812500 0.875000 L0.625000 0.875000 L0.562500 0.937500 L0.437500 0.937500 L0.375000 0.875000 L0.187500 0.875000 L0.187500 0.687500 z " fill="rgb(245,195,195)" />
<path d="M0 0 L0 1 L1 1 L1 0 z" fill="none" stroke="rgb(128,128,128)" stroke-width="0.01" />
<line x1="0.5625" y1="0.4375" x2="0.8125" y2="0.6875" style="stroke:rgb(246,147,147);stroke-width:0.01" />
<line x1="0.4375" y1="0.4375" x2="0.5" y2="0.5" style="stroke:rgb(246,147,147);stroke-width:0.01" />
<line x1="0.1875" y1="0.6875" x2="0.1875" y2="0.875" style="stroke:rgb(246,147,147);stroke-width:0.01" />
<line x1="0.25" y1="0.75" x2="0.25" y2="0.875" style="stroke:rgb(246,147,147);stroke-width:0.01" />
<line x1="0.375" y1="0.5" x2="0.375" y2="0.875" style="stroke:rgb(246,147,147);stroke-width:0.01" />
<line x1="0.5" y1="0.5" x2="0.5" y2="0.9375" style="stroke:rgb(246,147,147);stroke-width:0.01" />
<line x1="0.625" y1="0.5" x2="0.625" y2="0.875" style="stroke:rgb(246,147,147);stroke-width:0.01" />
<line x1="0.75" y1="0.75" x2="0.75" y2="0.875" style="stroke:rgb(246,147,147);stroke-width:0.01" />
<line x1="0.8125" y1="0.6875" x2="0.8125" y2="0.875" style="stroke:rgb(246,147,147);stroke-width:0.01" />
<line x1="0.5" y1="0.875" x2="0.5625" y2="0.9375" style="stroke:rgb(246,147,147);stroke-width:0.01" />
<line x1="0.1875" y1="0.6875" x2="0.4375" y2="0.9375" style="stroke:rgb(246,147,147);stroke-width:0.01" />
<line x1="0.4375" y1="0.4375" x2="0.5625" y2="0.4375" style="stroke:rgb(246,147,147);stroke-width:0.01" />
<line x1="0.4375" y1="0.4375" x2="0.1875" y2="0.6875" style="stroke:rgb(246,147,147);stroke-width:0.01" />
<line x1="0.375" y1="0.5" x2="0.625" y2="0.5" style="stroke:rgb(246,147,147);stroke-width:0.01" />
<line x1="0.5625" y1="0.4375" x2="0.5" y2="0.5" style="stroke:rgb(246,147,147);stroke-width:0.01" />
<line x1="0.5" y1="0.875" x2="0.4375" y2="0.9375" style="stroke:rgb(246,147,147);stroke-width:0.01" />
<line x1="0.1875" y1="0.75" x2="0.8125" y2="0.75" style="stroke:rgb(246,147,147);stroke-width:0.01" />
<line x1="0.8125" y1="0.6875" x2="0.5625" y2="0.9375" style="stroke:rgb(246,147,147);stroke-width:0.01" />
<line x1="0.1875" y1="0.875" x2="0.8125" y2="0.875" style="stroke:rgb(246,147,147);stroke-width:0.01" />
<line x1="0.4375" y1="0.9375" x2="0.5625" y2="0.9375" style="stroke:rgb(246,147,147);stroke-width:0.01" />
</svg>
