<svg xmlns="http://www.w3.org/2000/svg" viewBox="-1.5 -1.5 3 3">
<path d="M-0.062500 -0.325000 L0.062500 -0.325000 L0.312500 -0.075000 L0.312500 0.112500 L0.125000 0.112500 L0.062500 0.175000 L-0.062500 0.175000 L-0.125000 0.112500 L-0.312500 0.112500 L-0.312500 -0.075000 z " fill="rgb(245,195,195)" />
<path d="M-0.500000 -0.762500 L0.500000 -0.762500 L0.500000 0.237500 L-0.500000 0.237500  z" fill="none" stroke="rgb(128,128,128)" stroke-width="0.01" />
<line x1="0.0625" y1="-0.325" x2="0.3125" y2="-0.075" style="stroke:rgb(246,147,147);stroke-width:0.01" />
<line x1="-0.0625" y1="-0.325" x2="0" y2="-0.2625" style="stroke:rgb(246,147,147);stroke-width:0.01" />
<line x1="-0.3125" y1="-0.075" x2="-0.3125" y2="0.1125" style="stroke:rgb(246,147,147);stroke-width:0.01" />
<line x1="-0.25" y1="-0.0125" x2="-0.25" y2="0.1125" style="stroke:rgb(246,147,147);stroke-width:0.01" />
<line x1="-0.125" y1="-0.2625" x2="-0.125" y2="0.1125" style="stroke:rgb(246,147,147);stroke-width:0.01" />
<line x1="0" y1="-0.2625" x2="0" y2="0.175" style="stroke:rgb(246,147,147);stroke-width:0.01" />
<line x1="0.125" y1="-0.2625" x2="0.125" y2="0.1125" style="stroke:rgb(246,147,147);stroke-width:0.01" />
<line x1="0.25" y1="-0.0125" x2="0.25" y2="0.1125" style="stroke:rgb(246,147,147);stroke-width:0.01" />
<line x1="0.3125" y1="-0.075" x2="0.3125" y2="0.1125" style="stroke:rgb(246,147,147);stroke-width:0.01" />
<line x1="0" y1="0.1125" x2="0.0625" y2="0.175" style="stroke:rgb(246,147,147);stroke-width:0.01" />
<line x1="-0.3125" y1="-0.075" x2="-0.0625" y2="0.175" style="stroke:rgb(246,147,147);stroke-width:0.01" />
<line x1="-0.0625" y1="-0.325" x2="0.0625" y2="-0.325" style="stroke:rgb(246,147,147);stroke-width:0.01" />
<line x1="-0.0625" y1="-0.325" x2="-0.3125" y2="-0.075" style="stroke:rgb(246,147,147);stroke-width:0.01" />
<line x1="-0.125" y1="-0.2625" x2="0.125" y2="-0.2625" style="stroke:rgb(246,147,147);stroke-width:0.01" />
<line x1="0.0625" y1="-0.325" x2="0" y2="-0.2625" style="stroke:rgb(246,147,147);stroke-width:0.01" />
<line x1="0" y1="0.1125" x2="-0.0625" y2="0.175" style="stroke:rgb(246,147,147);stroke-width:0.01" />
<line x1="-0.3125" y1="-0.0125" x2="0.3125" y2="-0.0125" style="stroke:rgb(246,147,147);stroke-width:0.01" />
<line x1="0.3125" y1="-0.075" x2="0.0625" y2="0.175" style="stroke:rgb(246,147,147);stroke-width:0.01" />
<line x1="-0.3125" y1="0.1125" x2="0.3125" y2="0.1125" style="stroke:rgb(246,147,147);stroke-width:0.01" />
<line x1="-0.0625" y1="0.175" x2="0.0625" y2="0.175" style="stroke:rgb(246,147,147);stroke-width:0.01" />
</svg>
