<svg xmlns="http://www.w3.org/2000/svg" viewBox="-1.5 -1.5 3 3">
<g transform="scale(1, -1)">
<path d="M0.974026 -0.013889 L0.981628 -0.011042 L0.977529 -0.000096 L0.977553 0.000000 L0.977437 0.000150 L0.950633 0.071729 L0.937831 0.188071 L0.867277 0.223872 L1.077713 0.704802 L0.161576 1.105667 L0.115340 1.000000 L0.501545 0.409455 z " fill="rgb(245,195,195)" />
<path d="M0.000000 0.000000 L1.000000 0.000000 L1.000000 1.000000 L0.000000 1.000000  z" fill="none" stroke="rgb(128,128,128)" stroke-width="0.01" />
<line x1="0.974026" y1="-0.0138886" x2="0.981628" y2="-0.011042" style="stroke:rgb(246,147,147);stroke-width:0.01" />
<line x1="0.822607" y1="0.121783" x2="1.07771" y2="0.704802" style="stroke:rgb(246,147,147);stroke-width:0.01" />
<line x1="0.822607" y1="0.121783" x2="0.937831" y2="0.188071" style="stroke:rgb(246,147,147);stroke-width:0.01" />
<line x1="0.974026" y1="-0.0138886" x2="0.977553" y2="0" style="stroke:rgb(246,147,147);stroke-width:0.01" />
<line x1="0.768283" y1="0.170457" x2="0.871013" y2="0.792193" style="stroke:rgb(246,147,147);stroke-width:0.01" />
<line x1="0.768283" y1="0.170457" x2="0.899849" y2="0.207344" style="stroke:rgb(246,147,147);stroke-width:0.01" />
<line x1="0.958525" y1="0" x2="0.977553" y2="0" style="stroke:rgb(246,147,147);stroke-width:0.01" />
<line x1="0.176158" y1="0.907004" x2="0.199776" y2="1" style="stroke:rgb(246,147,147);stroke-width:0.01" />
<line x1="0.958525" y1="0" x2="0.937831" y2="0.188071" style="stroke:rgb(246,147,147);stroke-width:0.01" />
<line x1="0.11534" y1="1" x2="0.161576" y2="1.10567" style="stroke:rgb(246,147,147);stroke-width:0.01" />
<line x1="0.981628" y1="-0.011042" x2="0.899849" y2="0.207344" style="stroke:rgb(246,147,147);stroke-width:0.01" />
<line x1="0.501545" y1="0.409455" x2="0.11534" y2="1" style="stroke:rgb(246,147,147);stroke-width:0.01" />
<line x1="0.977553" y1="0" x2="0.199776" y2="1" style="stroke:rgb(246,147,147);stroke-width:0.01" />
<line x1="0.974026" y1="-0.0138886" x2="0.501545" y2="0.409455" style="stroke:rgb(246,147,147);stroke-width:0.01" />
<line x1="0.937831" y1="0.188071" x2="0.501545" y2="0.409455" style="stroke:rgb(246,147,147);stroke-width:0.01" />
<line x1="0.871013" y1="0.792193" x2="0.176158" y2="0.907004" style="stroke:rgb(246,147,147);stroke-width:0.01" />
<line x1="1.07771" y1="0.704802" x2="0.161576" y2="1.10567" style="stroke:rgb(246,147,147);stroke-width:0.01" />
<line x1="0.11534" y1="1" x2="0.199776" y2="1" style="stroke:rgb(246,147,147);stroke-width:0.01" />
</g>
</svg>
