<svg xmlns="http://www.w3.org/2000/svg" viewBox="-1.5 -1.5 3 3">
<path d="M-0.034392 -0.500000 L0.076720 -0.500000 L0.076720 -0.388889 L0.021164 -0.333333 L0.076720 -0.277778 L0.076720 -0.055556 L0.021164 0.000000 L0.076720 0.055556 L0.076720 0.277778 L0.021164 0.333333 L0.076720 0.388889 L0.076720 0.500000 L-0.034392 0.500000 L-0.089947 0.444444 L-0.089947 0.222222 L-0.034392 0.166667 L-0.089947 0.111111 L-0.089947 -0.111111 L-0.034392 -0.166667 L-0.089947 -0.222222 L-0.089947 -0.444444 z " fill="rgb(245,195,195)" />
<path d="M-0.589947 -0.500000 L0.410053 -0.500000 L0.410053 0.500000 L-0.589947 0.500000  z" fill="none" stroke="rgb(128,128,128)" stroke-width="0.01" />
<line x1="-0.0899471" y1="-0.444444" x2="0.0767196" y2="-0.277778" style="stroke:rgb(246,147,147);stroke-width:0.01" />
<line x1="-0.0899471" y1="-0.222222" x2="0.0767196" y2="-0.0555556" style="stroke:rgb(246,147,147);stroke-width:0.01" />
<line x1="-0.0899471" y1="-0.111111" x2="0.0767196" y2="0.0555556" style="stroke:rgb(246,147,147);stroke-width:0.01" />
<line x1="-0.0343915" y1="-0.5" x2="0.0767196" y2="-0.5" style="stroke:rgb(246,147,147);stroke-width:0.01" />
<line x1="-0.0899471" y1="-0.444444" x2="-0.0899471" y2="-0.222222" style="stroke:rgb(246,147,147);stroke-width:0.01" />
<line x1="-0.0899471" y1="-0.111111" x2="-0.0899471" y2="0.111111" style="stroke:rgb(246,147,147);stroke-width:0.01" />
<line x1="-0.0899471" y1="0.222222" x2="-0.0899471" y2="0.444444" style="stroke:rgb(246,147,147);stroke-width:0.01" />
<line x1="-0.0343915" y1="-0.5" x2="-0.0343915" y2="0.5" style="stroke:rgb(246,147,147);stroke-width:0.01" />
<line x1="0.0767196" y1="-0.5" x2="0.0767196" y2="-0.388889" style="stroke:rgb(246,147,147);stroke-width:0.01" />
<line x1="0.0767196" y1="-0.277778" x2="0.0767196" y2="-0.0555556" style="stroke:rgb(246,147,147);stroke-width:0.01" />
<line x1="0.0767196" y1="0.0555556" x2="0.0767196" y2="0.277778" style="stroke:rgb(246,147,147);stroke-width:0.01" />
<line x1="0.0767196" y1="0.388889" x2="0.0767196" y2="0.5" style="stroke:rgb(246,147,147);stroke-width:0.01" />
<line x1="-0.0899471" y1="0.111111" x2="0.0767196" y2="0.277778" style="stroke:rgb(246,147,147);stroke-width:0.01" />
<line x1="-0.0899471" y1="0.222222" x2="0.0767196" y2="0.388889" style="stroke:rgb(246,147,147);stroke-width:0.01" />
<line x1="-0.0899471" y1="-0.388889" x2="0.0767196" y2="-0.388889" style="stroke:rgb(246,147,147);stroke-width:0.01" />
<line x1="-0.0899471" y1="0.444444" x2="-0.0343915" y2="0.5" style="stroke:rgb(246,147,147);stroke-width:0.01" />
<line x1="-0.0899471" y1="-0.277778" x2="0.0767196" y2="-0.277778" style="stroke:rgb(246,147,147);stroke-width:0.01" />
<line x1="-0.0343915" y1="-0.5" x2="-0.0899471" y2="-0.444444" style="stroke:rgb(246,147,147);stroke-width:0.01" />
<line x1="-0.0343915" y1="-0.166667" x2="0.0767196" y2="-0.166667" style="stroke:rgb(246,147,147);stroke-width:0.01" />
<line x1="0.0767196" y1="-0.388889" x2="-0.0899471" y2="-0.222222" style="stroke:rgb(246,147,147);stroke-width:0.01" />
<line x1="-0.0899471" y1="-0.0555556" x2="0.0767196" y2="-0.0555556" style="stroke:rgb(246,147,147);stroke-width:0.01" />
<line x1="0.0767196" y1="-0.277778" x2="-0.0899471" y2="-0.111111" style="stroke:rgb(246,147,147);stroke-width:0.01" />
<line x1="-0.0899471" y1="0.0555556" x2="0.0767196" y2="0.0555556" style="stroke:rgb(246,147,147);stroke-width:0.01" />
<line x1="0.0767196" y1="-0.0555556" x2="-0.0899471" y2="0.111111" style="stroke:rgb(246,147,147);stroke-width:0.01" />
<line x1="0.0767196" y1="0.0555556" x2="-0.0899471" y2="0.222222" style="stroke:rgb(246,147,147);stroke-width:0.01" />
<line x1="-0.0343915" y1="0.166667" x2="0.0767196" y2="0.166667" style="stroke:rgb(246,147,147);stroke-width:0.01" />
<line x1="0.0767196" y1="0.277778" x2="-0.0899471" y2="0.444444" style="stroke:rgb(246,147,147);stroke-width:0.01" />
<line x1="-0.0899471" y1="0.277778" x2="0.0767196" y2="0.277778" style="stroke:rgb(246,147,147);stroke-width:0.01" />
<line x1="-0.0899471" y1="0.388889" x2="0.0767196" y2="0.388889" style="stroke:rgb(246,147,147);stroke-width:0.01" />
<line x1="-0.0343915" y1="0.5" x2="0.0767196" y2="0.5" style="stroke:rgb(246,147,147);stroke-width:0.01" />
</svg>
