<svg xmlns="http://www.w3.org/2000/svg" viewBox="-1.5 -1.5 3 3">
<g transform="scale(1, -1)">
<path d="M0.045455 -0.204545 L0.295455 0.045455 L0.045455 0.295455 L-0.204545 0.045455 L-0.142045 -0.017045 L-0.079545 0.045455 L-0.017045 0.045455 L-0.017045 -0.017045 L0.045455 -0.017045 L0.045455 -0.079545 L-0.017045 -0.142045 z " fill="rgb(245,195,195)" />
<path d="M-0.204545 -0.204545 L0.795455 -0.204545 L0.795455 0.795455 L-0.204545 0.795455  z" fill="none" stroke="rgb(128,128,128)" stroke-width="0.01" />
<line x1="0.0454545" y1="-0.204545" x2="0.295455" y2="0.0454545" style="stroke:rgb(246,147,147);stroke-width:0.01" />
<line x1="-0.0170455" y1="-0.142045" x2="0.232955" y2="0.107955" style="stroke:rgb(246,147,147);stroke-width:0.01" />
<line x1="-0.0170455" y1="-0.0170455" x2="-0.0170455" y2="0.232955" style="stroke:rgb(246,147,147);stroke-width:0.01" />
<line x1="0.0454545" y1="-0.204545" x2="0.0454545" y2="0.295455" style="stroke:rgb(246,147,147);stroke-width:0.01" />
<line x1="0.232955" y1="-0.0170455" x2="0.232955" y2="0.107955" style="stroke:rgb(246,147,147);stroke-width:0.01" />
<line x1="-0.142045" y1="-0.0170455" x2="0.107955" y2="0.232955" style="stroke:rgb(246,147,147);stroke-width:0.01" />
<line x1="-0.204545" y1="0.0454545" x2="0.0454545" y2="0.295455" style="stroke:rgb(246,147,147);stroke-width:0.01" />
<line x1="0.0454545" y1="-0.204545" x2="-0.0170455" y2="-0.142045" style="stroke:rgb(246,147,147);stroke-width:0.01" />
<line x1="-0.142045" y1="-0.0170455" x2="-0.204545" y2="0.0454545" style="stroke:rgb(246,147,147);stroke-width:0.01" />
<line x1="-0.0170455" y1="-0.0170455" x2="0.232955" y2="-0.0170455" style="stroke:rgb(246,147,147);stroke-width:0.01" />
<line x1="-0.204545" y1="0.0454545" x2="0.295455" y2="0.0454545" style="stroke:rgb(246,147,147);stroke-width:0.01" />
<line x1="0.295455" y1="0.0454545" x2="0.0454545" y2="0.295455" style="stroke:rgb(246,147,147);stroke-width:0.01" />
<line x1="-0.0170455" y1="0.232955" x2="0.107955" y2="0.232955" style="stroke:rgb(246,147,147);stroke-width:0.01" />
</g>
</svg>
