<svg xmlns="http://www.w3.org/2000/svg" viewBox="-1.5 -1.5 3 3">
<g transform="scale(1, -1)">
<path d="M0.000000 0.000000 L0.200000 0.000000 L0.200000 1.100000 L0.000000 1.100000 z " fill="rgb(245,195,195)" />
<path d="M0.000000 0.000000 L1.000000 0.000000 L1.000000 1.000000 L0.000000 1.000000  z" fill="none" stroke="rgb(128,128,128)" stroke-width="0.01" />
<line x1="0.1125" y1="0" x2="0.2" y2="0.116667" style="stroke:rgb(246,147,147);stroke-width:0.01" />
<line x1="0" y1="0" x2="0.2" y2="0" style="stroke:rgb(246,147,147);stroke-width:0.01" />
<line x1="0" y1="0" x2="0" y2="1.1" style="stroke:rgb(246,147,147);stroke-width:0.01" />
<line x1="0.2" y1="0" x2="0.2" y2="1.1" style="stroke:rgb(246,147,147);stroke-width:0.01" />
<line x1="0.1125" y1="0" x2="0" y2="0.15" style="stroke:rgb(246,147,147);stroke-width:0.01" />
<line x1="0" y1="0.15" x2="0.2" y2="0.3" style="stroke:rgb(246,147,147);stroke-width:0.01" />
<line x1="0.2" y1="0" x2="0" y2="0.15" style="stroke:rgb(246,147,147);stroke-width:0.01" />
<line x1="0" y1="0.383333" x2="0.2" y2="0.65" style="stroke:rgb(246,147,147);stroke-width:0.01" />
<line x1="0.2" y1="0.116667" x2="0" y2="0.383333" style="stroke:rgb(246,147,147);stroke-width:0.01" />
<line x1="0" y1="0.45" x2="0.2" y2="0.716667" style="stroke:rgb(246,147,147);stroke-width:0.01" />
<line x1="0.2" y1="0.3" x2="0" y2="0.45" style="stroke:rgb(246,147,147);stroke-width:0.01" />
<line x1="0" y1="0.983333" x2="0.0875" y2="1.1" style="stroke:rgb(246,147,147);stroke-width:0.01" />
<line x1="0.2" y1="0.716667" x2="0" y2="0.983333" style="stroke:rgb(246,147,147);stroke-width:0.01" />
<line x1="0.2" y1="0.95" x2="0.0875" y2="1.1" style="stroke:rgb(246,147,147);stroke-width:0.01" />
<line x1="0" y1="0.8" x2="0.2" y2="0.95" style="stroke:rgb(246,147,147);stroke-width:0.01" />
<line x1="0.2" y1="0.65" x2="0" y2="0.8" style="stroke:rgb(246,147,147);stroke-width:0.01" />
<line x1="0.2" y1="0.95" x2="0" y2="1.1" style="stroke:rgb(246,147,147);stroke-width:0.01" />
<line x1="0" y1="1.1" x2="0.2" y2="1.1" style="stroke:rgb(246,147,147);stroke-width:0.01" />
</g>
</svg>
