<svg xmlns="http://www.w3.org/2000/svg" viewBox="-1.5 -1.5 3 3">
<path d="M-0.176136 -0.232955 L0.198864 -0.232955 L0.198864 -0.107955 L0.261364 -0.045455 L0.261364 0.079545 L0.136364 0.204545 L0.011364 0.204545 L-0.051136 0.142045 L-0.113636 0.204545 L-0.426136 -0.107955 L-0.301136 -0.107955 z " fill="rgb(245,195,195)" />
<path d="M-0.676136 -0.482955 L0.323864 -0.482955 L0.323864 0.517045 L-0.676136 0.517045  z" fill="none" stroke="rgb(128,128,128)" stroke-width="0.01" />
<line x1="0.198864" y1="-0.107955" x2="0.261364" y2="-0.0454545" style="stroke:rgb(246,147,147);stroke-width:0.01" />
<line x1="-0.176136" y1="-0.232955" x2="-0.113636" y2="-0.170455" style="stroke:rgb(246,147,147);stroke-width:0.01" />
<line x1="-0.301136" y1="-0.107955" x2="0.0113636" y2="0.204545" style="stroke:rgb(246,147,147);stroke-width:0.01" />
<line x1="-0.301136" y1="-0.107955" x2="-0.301136" y2="0.0170455" style="stroke:rgb(246,147,147);stroke-width:0.01" />
<line x1="-0.176136" y1="0.0170455" x2="-0.176136" y2="0.142045" style="stroke:rgb(246,147,147);stroke-width:0.01" />
<line x1="-0.0511364" y1="-0.232955" x2="-0.0511364" y2="0.142045" style="stroke:rgb(246,147,147);stroke-width:0.01" />
<line x1="0.0738636" y1="-0.107955" x2="0.0738636" y2="0.204545" style="stroke:rgb(246,147,147);stroke-width:0.01" />
<line x1="0.136364" y1="0.0795455" x2="0.136364" y2="0.204545" style="stroke:rgb(246,147,147);stroke-width:0.01" />
<line x1="0.198864" y1="-0.232955" x2="0.198864" y2="-0.107955" style="stroke:rgb(246,147,147);stroke-width:0.01" />
<line x1="0.198864" y1="0.0170455" x2="0.198864" y2="0.142045" style="stroke:rgb(246,147,147);stroke-width:0.01" />
<line x1="0.261364" y1="-0.0454545" x2="0.261364" y2="0.0795455" style="stroke:rgb(246,147,147);stroke-width:0.01" />
<line x1="-0.426136" y1="-0.107955" x2="-0.113636" y2="0.204545" style="stroke:rgb(246,147,147);stroke-width:0.01" />
<line x1="-0.176136" y1="-0.232955" x2="0.198864" y2="-0.232955" style="stroke:rgb(246,147,147);stroke-width:0.01" />
<line x1="-0.113636" y1="-0.170455" x2="0.198864" y2="-0.170455" style="stroke:rgb(246,147,147);stroke-width:0.01" />
<line x1="-0.426136" y1="-0.107955" x2="0.198864" y2="-0.107955" style="stroke:rgb(246,147,147);stroke-width:0.01" />
<line x1="-0.176136" y1="-0.232955" x2="-0.363636" y2="-0.0454545" style="stroke:rgb(246,147,147);stroke-width:0.01" />
<line x1="-0.0511364" y1="-0.232955" x2="-0.113636" y2="-0.170455" style="stroke:rgb(246,147,147);stroke-width:0.01" />
<line x1="-0.301136" y1="0.0170455" x2="0.261364" y2="0.0170455" style="stroke:rgb(246,147,147);stroke-width:0.01" />
<line x1="0.136364" y1="0.0795455" x2="0.261364" y2="0.0795455" style="stroke:rgb(246,147,147);stroke-width:0.01" />
<line x1="-0.176136" y1="0.142045" x2="-0.0511364" y2="0.142045" style="stroke:rgb(246,147,147);stroke-width:0.01" />
<line x1="0.0738636" y1="0.142045" x2="0.198864" y2="0.142045" style="stroke:rgb(246,147,147);stroke-width:0.01" />
<line x1="0.198864" y1="-0.107955" x2="-0.113636" y2="0.204545" style="stroke:rgb(246,147,147);stroke-width:0.01" />
<line x1="0.0113636" y1="0.204545" x2="0.136364" y2="0.204545" style="stroke:rgb(246,147,147);stroke-width:0.01" />
<line x1="0.261364" y1="-0.0454545" x2="0.198864" y2="0.0170455" style="stroke:rgb(246,147,147);stroke-width:0.01" />
<line x1="0.0738636" y1="0.142045" x2="0.0113636" y2="0.204545" style="stroke:rgb(246,147,147);stroke-width:0.01" />
<line x1="0.261364" y1="0.0795455" x2="0.136364" y2="0.204545" style="stroke:rgb(246,147,147);stroke-width:0.01" />
</svg>
