<svg xmlns="http://www.w3.org/2000/svg" viewBox="-1.5 -1.5 3 3">
<g transform="scale(1, -1)">
<path d="M0.500000 0.000000 L0.500000 0.100000 L0.550000 0.150000 L0.550000 0.450000 L0.600000 0.500000 L0.600000 1.000000 L0.350000 0.750000 L0.400000 0.700000 L0.400000 0.300000 L0.450000 0.250000 L0.450000 0.050000 z " fill="rgb(245,195,195)" />
<path d="M0.000000 0.000000 L1.000000 0.000000 L1.000000 1.000000 L0.000000 1.000000  z" fill="none" stroke="rgb(128,128,128)" stroke-width="0.01" />
<line x1="0.45" y1="0.05" x2="0.55" y2="0.15" style="stroke:rgb(246,147,147);stroke-width:0.01" />
<line x1="0.4" y1="0.3" x2="0.6" y2="0.5" style="stroke:rgb(246,147,147);stroke-width:0.01" />
<line x1="0.4" y1="0.3" x2="0.4" y2="0.8" style="stroke:rgb(246,147,147);stroke-width:0.01" />
<line x1="0.45" y1="0.05" x2="0.45" y2="0.85" style="stroke:rgb(246,147,147);stroke-width:0.01" />
<line x1="0.5" y1="0" x2="0.5" y2="0.9" style="stroke:rgb(246,147,147);stroke-width:0.01" />
<line x1="0.55" y1="0.15" x2="0.55" y2="0.95" style="stroke:rgb(246,147,147);stroke-width:0.01" />
<line x1="0.6" y1="0.5" x2="0.6" y2="1" style="stroke:rgb(246,147,147);stroke-width:0.01" />
<line x1="0.35" y1="0.75" x2="0.6" y2="1" style="stroke:rgb(246,147,147);stroke-width:0.01" />
<line x1="0.5" y1="0" x2="0.45" y2="0.05" style="stroke:rgb(246,147,147);stroke-width:0.01" />
<line x1="0.55" y1="0.15" x2="0.4" y2="0.3" style="stroke:rgb(246,147,147);stroke-width:0.01" />
<line x1="0.6" y1="0.5" x2="0.35" y2="0.75" style="stroke:rgb(246,147,147);stroke-width:0.01" />
<line x1="0.35" y1="0.75" x2="0.6" y2="0.75" style="stroke:rgb(246,147,147);stroke-width:0.01" />
<line x1="0.4" y1="0.8" x2="0.6" y2="0.8" style="stroke:rgb(246,147,147);stroke-width:0.01" />
<line x1="0.45" y1="0.85" x2="0.6" y2="0.85" style="stroke:rgb(246,147,147);stroke-width:0.01" />
<line x1="0.5" y1="0.9" x2="0.6" y2="0.9" style="stroke:rgb(246,147,147);stroke-width:0.01" />
<line x1="0.55" y1="0.95" x2="0.6" y2="0.95" style="stroke:rgb(246,147,147);stroke-width:0.01" />
</g>
</svg>
