<svg xmlns="http://www.w3.org/2000/svg" viewBox="-1.5 -1.5 3 3">
<g transform="scale(1, -1)">
<path d="M-0.048077 -0.360577 L0.076923 -0.360577 L0.264423 -0.173077 L0.264423 -0.048077 L0.139423 0.076923 L0.076923 0.014423 L0.076923 0.139423 L-0.048077 0.264423 L-0.173077 0.264423 L-0.235577 0.201923 L-0.173077 0.139423 L-0.110577 0.139423 L-0.110577 -0.298077 z " fill="rgb(245,195,195)" />
<path d="M-0.485577 -0.548077 L0.514423 -0.548077 L0.514423 0.451923 L-0.485577 0.451923  z" fill="none" stroke="rgb(128,128,128)" stroke-width="0.01" />
<line x1="0.0769231" y1="-0.360577" x2="0.264423" y2="-0.173077" style="stroke:rgb(246,147,147);stroke-width:0.01" />
<line x1="0.0769231" y1="0.0144231" x2="0.139423" y2="0.0769231" style="stroke:rgb(246,147,147);stroke-width:0.01" />
<line x1="-0.110577" y1="-0.298077" x2="-0.110577" y2="0.264423" style="stroke:rgb(246,147,147);stroke-width:0.01" />
<line x1="-0.0480769" y1="-0.360577" x2="-0.0480769" y2="-0.298077" style="stroke:rgb(246,147,147);stroke-width:0.01" />
<line x1="0.0144231" y1="-0.360577" x2="0.0144231" y2="0.201923" style="stroke:rgb(246,147,147);stroke-width:0.01" />
<line x1="0.0769231" y1="-0.360577" x2="0.0769231" y2="0.139423" style="stroke:rgb(246,147,147);stroke-width:0.01" />
<line x1="0.139423" y1="-0.298077" x2="0.139423" y2="0.0769231" style="stroke:rgb(246,147,147);stroke-width:0.01" />
<line x1="0.264423" y1="-0.173077" x2="0.264423" y2="-0.0480769" style="stroke:rgb(246,147,147);stroke-width:0.01" />
<line x1="-0.173077" y1="0.139423" x2="-0.0480769" y2="0.264423" style="stroke:rgb(246,147,147);stroke-width:0.01" />
<line x1="-0.0480769" y1="-0.360577" x2="0.0769231" y2="-0.360577" style="stroke:rgb(246,147,147);stroke-width:0.01" />
<line x1="-0.235577" y1="0.201923" x2="-0.173077" y2="0.264423" style="stroke:rgb(246,147,147);stroke-width:0.01" />
<line x1="-0.110577" y1="-0.298077" x2="0.139423" y2="-0.298077" style="stroke:rgb(246,147,147);stroke-width:0.01" />
<line x1="-0.0480769" y1="-0.360577" x2="-0.110577" y2="-0.298077" style="stroke:rgb(246,147,147);stroke-width:0.01" />
<line x1="-0.110577" y1="-0.173077" x2="0.264423" y2="-0.173077" style="stroke:rgb(246,147,147);stroke-width:0.01" />
<line x1="0.139423" y1="-0.0480769" x2="0.264423" y2="-0.0480769" style="stroke:rgb(246,147,147);stroke-width:0.01" />
<line x1="-0.173077" y1="0.139423" x2="-0.235577" y2="0.201923" style="stroke:rgb(246,147,147);stroke-width:0.01" />
<line x1="0.264423" y1="-0.173077" x2="-0.173077" y2="0.264423" style="stroke:rgb(246,147,147);stroke-width:0.01" />
<line x1="0.264423" y1="-0.0480769" x2="0.139423" y2="0.0769231" style="stroke:rgb(246,147,147);stroke-width:0.01" />
<line x1="0.0769231" y1="0.139423" x2="-0.0480769" y2="0.264423" style="stroke:rgb(246,147,147);stroke-width:0.01" />
<line x1="-0.173077" y1="0.139423" x2="0.0769231" y2="0.139423" style="stroke:rgb(246,147,147);stroke-width:0.01" />
<line x1="-0.235577" y1="0.201923" x2="0.0144231" y2="0.201923" style="stroke:rgb(246,147,147);stroke-width:0.01" />
<line x1="-0.173077" y1="0.264423" x2="-0.0480769" y2="0.264423" style="stroke:rgb(246,147,147);stroke-width:0.01" />
</g>
</svg>
