<svg xmlns="http://www.w3.org/2000/svg" viewBox="-1.5 -1.5 3 3">
<g transform="scale(1, -1)">
<path d="M-0.182733 -0.136937 L0.122823 -0.136937 L0.175375 -0.118919 L0.067267 0.196396 L-0.182733 0.196396 z " fill="rgb(245,195,195)" />
<path d="M-0.932733 -0.803604 L0.067267 -0.803604 L0.067267 0.196396 L-0.932733 0.196396  z" fill="none" stroke="rgb(128,128,128)" stroke-width="0.01" />
<line x1="0.0101244" y1="-0.136937" x2="0.0672673" y2="0.0297297" style="stroke:rgb(246,147,147);stroke-width:0.01" />
<line x1="-0.182733" y1="-0.136937" x2="-0.182733" y2="0.196396" style="stroke:rgb(246,147,147);stroke-width:0.01" />
<line x1="0.0672673" y1="-0.136937" x2="0.0672673" y2="0.196396" style="stroke:rgb(246,147,147);stroke-width:0.01" />
<line x1="0.122823" y1="-0.136937" x2="0.175375" y2="-0.118919" style="stroke:rgb(246,147,147);stroke-width:0.01" />
<line x1="0.0101244" y1="-0.136937" x2="-0.0948949" y2="0.169369" style="stroke:rgb(246,147,147);stroke-width:0.01" />
<line x1="0.175375" y1="-0.118919" x2="0.0672673" y2="0.196396" style="stroke:rgb(246,147,147);stroke-width:0.01" />
<line x1="-0.182733" y1="-0.032175" x2="0.0672673" y2="0.0535393" style="stroke:rgb(246,147,147);stroke-width:0.01" />
<line x1="-0.182733" y1="0.139254" x2="-0.0948949" y2="0.169369" style="stroke:rgb(246,147,147);stroke-width:0.01" />
<line x1="-0.182733" y1="-0.136937" x2="0.122823" y2="-0.136937" style="stroke:rgb(246,147,147);stroke-width:0.01" />
<line x1="-0.182733" y1="0.0713964" x2="0.0672673" y2="0.113063" style="stroke:rgb(246,147,147);stroke-width:0.01" />
<line x1="-0.182733" y1="0.15473" x2="0.0672673" y2="0.196396" style="stroke:rgb(246,147,147);stroke-width:0.01" />
<line x1="0.122823" y1="-0.136937" x2="-0.182733" y2="-0.032175" style="stroke:rgb(246,147,147);stroke-width:0.01" />
<line x1="0.0672673" y1="0.0297297" x2="-0.182733" y2="0.0713964" style="stroke:rgb(246,147,147);stroke-width:0.01" />
<line x1="-0.182733" y1="0.196396" x2="0.0672673" y2="0.196396" style="stroke:rgb(246,147,147);stroke-width:0.01" />
<line x1="0.0672673" y1="0.113063" x2="-0.182733" y2="0.15473" style="stroke:rgb(246,147,147);stroke-width:0.01" />
<line x1="0.0672673" y1="0.0535393" x2="-0.182733" y2="0.139254" style="stroke:rgb(246,147,147);stroke-width:0.01" />
</g>
</svg>
