<svg xmlns="http://www.w3.org/2000/svg" viewBox="-1.5 -1.5 3 3">
<g transform="scale(1, -1)">
<path d="M-0.017449 -0.079229 L-0.010529 -0.073097 L-0.010529 -0.067571 L0.089471 -0.061532 L0.089471 -0.013226 L0.206371 -0.006167 L0.301114 0.100753 L0.194194 0.195496 L-0.310529 0.165019 L-0.310529 -0.037379 L-0.110529 -0.049456 L-0.110529 -0.073609 z " fill="rgb(245,195,195)" />
<path d="M-1.110529 0.015514 L-0.110529 0.015514 L-0.110529 1.015514 L-1.110529 1.015514  z" fill="none" stroke="rgb(128,128,128)" stroke-width="0.01" />
<line x1="0.206371" y1="-0.00616739" x2="0.301114" y2="0.100753" style="stroke:rgb(246,147,147);stroke-width:0.01" />
<line x1="-0.0174488" y1="-0.0792295" x2="-0.0105287" y2="-0.0730975" style="stroke:rgb(246,147,147);stroke-width:0.01" />
<line x1="-0.00194535" y1="-0.0670524" x2="0.0894713" y2="0.0361137" style="stroke:rgb(246,147,147);stroke-width:0.01" />
<line x1="-0.0207752" y1="-0.0548754" x2="0.0894713" y2="0.0428152" style="stroke:rgb(246,147,147);stroke-width:0.01" />
<line x1="0.00470745" y1="-0.0183444" x2="0.194194" y2="0.195496" style="stroke:rgb(246,147,147);stroke-width:0.01" />
<line x1="-0.110529" y1="0.0258137" x2="-0.0141224" y2="0.134611" style="stroke:rgb(246,147,147);stroke-width:0.01" />
<line x1="-0.110529" y1="0.0291644" x2="-0.0533858" y2="0.0797994" style="stroke:rgb(246,147,147);stroke-width:0.01" />
<line x1="-0.196956" y1="-0.0305214" x2="-0.00746956" y2="0.183319" style="stroke:rgb(246,147,147);stroke-width:0.01" />
<line x1="-0.222438" y1="-0.0426984" x2="-0.00859816" y2="0.146788" style="stroke:rgb(246,147,147);stroke-width:0.01" />
<line x1="-0.110529" y1="0.0726565" x2="-0.0507884" y2="0.132397" style="stroke:rgb(246,147,147);stroke-width:0.01" />
<line x1="-0.310529" y1="0.0567138" x2="-0.209133" y2="0.171142" style="stroke:rgb(246,147,147);stroke-width:0.01" />
<line x1="-0.110529" y1="0.0155136" x2="-0.0105287" y2="0.0605136" style="stroke:rgb(246,147,147);stroke-width:0.01" />
<line x1="-0.310529" y1="0.0701168" x2="-0.210261" y2="0.158965" style="stroke:rgb(246,147,147);stroke-width:0.01" />
<line x1="-0.110529" y1="0.105514" x2="-0.0507884" y2="0.132397" style="stroke:rgb(246,147,147);stroke-width:0.01" />
<line x1="-0.110529" y1="-0.073609" x2="0.0894713" y2="-0.0615324" style="stroke:rgb(246,147,147);stroke-width:0.01" />
<line x1="-0.310529" y1="-0.0373793" x2="0.206371" y2="-0.00616739" style="stroke:rgb(246,147,147);stroke-width:0.01" />
<line x1="-0.108865" y1="0.0276906" x2="0.0894713" y2="0.0396668" style="stroke:rgb(246,147,147);stroke-width:0.01" />
<line x1="-0.0174488" y1="-0.0792295" x2="-0.110529" y2="-0.073609" style="stroke:rgb(246,147,147);stroke-width:0.01" />
<line x1="0.0894713" y1="-0.0615324" x2="-0.310529" y2="-0.0373793" style="stroke:rgb(246,147,147);stroke-width:0.01" />
<line x1="-0.110529" y1="0.0155136" x2="-0.0105287" y2="0.0155136" style="stroke:rgb(246,147,147);stroke-width:0.01" />
<line x1="-0.310529" y1="0.06382" x2="0.0994505" y2="0.0885757" style="stroke:rgb(246,147,147);stroke-width:0.01" />
<line x1="-0.310529" y1="-0.0373793" x2="-0.310529" y2="0.165019" style="stroke:rgb(246,147,147);stroke-width:0.01" />
<line x1="-0.110529" y1="-0.073609" x2="-0.110529" y2="0.105514" style="stroke:rgb(246,147,147);stroke-width:0.01" />
<line x1="-0.0533858" y1="0.0155136" x2="-0.0533858" y2="0.0797994" style="stroke:rgb(246,147,147);stroke-width:0.01" />
<line x1="-0.0105287" y1="-0.0730975" x2="-0.0105287" y2="0.0605136" style="stroke:rgb(246,147,147);stroke-width:0.01" />
<line x1="0.0894713" y1="-0.0615324" x2="0.0894713" y2="0.140866" style="stroke:rgb(246,147,147);stroke-width:0.01" />
<line x1="-0.0507884" y1="0.132397" x2="0.0894713" y2="0.140866" style="stroke:rgb(246,147,147);stroke-width:0.01" />
<line x1="0.0894713" y1="0.0396668" x2="-0.310529" y2="0.06382" style="stroke:rgb(246,147,147);stroke-width:0.01" />
<line x1="-0.310529" y1="0.165019" x2="0.194194" y2="0.195496" style="stroke:rgb(246,147,147);stroke-width:0.01" />
<line x1="0.0894713" y1="0.140866" x2="-0.310529" y2="0.165019" style="stroke:rgb(246,147,147);stroke-width:0.01" />
<line x1="-0.222438" y1="-0.0426984" x2="-0.310529" y2="0.0567138" style="stroke:rgb(246,147,147);stroke-width:0.01" />
<line x1="-0.196956" y1="-0.0305214" x2="-0.310529" y2="0.0701168" style="stroke:rgb(246,147,147);stroke-width:0.01" />
<line x1="-0.0105287" y1="0.0605136" x2="-0.110529" y2="0.105514" style="stroke:rgb(246,147,147);stroke-width:0.01" />
<line x1="-0.0105287" y1="-0.0730975" x2="-0.110529" y2="0.0155136" style="stroke:rgb(246,147,147);stroke-width:0.01" />
<line x1="-0.0174488" y1="-0.0792295" x2="-0.110529" y2="0.0258137" style="stroke:rgb(246,147,147);stroke-width:0.01" />
<line x1="-0.00194535" y1="-0.0670524" x2="-0.110529" y2="0.0291644" style="stroke:rgb(246,147,147);stroke-width:0.01" />
<line x1="-0.0207752" y1="-0.0548754" x2="-0.210261" y2="0.158965" style="stroke:rgb(246,147,147);stroke-width:0.01" />
<line x1="-0.0533858" y1="0.0155136" x2="-0.110529" y2="0.0726565" style="stroke:rgb(246,147,147);stroke-width:0.01" />
<line x1="0.00470745" y1="-0.0183444" x2="-0.209133" y2="0.171142" style="stroke:rgb(246,147,147);stroke-width:0.01" />
<line x1="0.0894713" y1="0.0361137" x2="-0.00859816" y2="0.146788" style="stroke:rgb(246,147,147);stroke-width:0.01" />
<line x1="0.0894713" y1="0.0428152" x2="-0.0141224" y2="0.134611" style="stroke:rgb(246,147,147);stroke-width:0.01" />
<line x1="0.206371" y1="-0.00616739" x2="-0.00746956" y2="0.183319" style="stroke:rgb(246,147,147);stroke-width:0.01" />
<line x1="0.301114" y1="0.100753" x2="0.194194" y2="0.195496" style="stroke:rgb(246,147,147);stroke-width:0.01" />
</g>
</svg>
