<svg xmlns="http://www.w3.org/2000/svg" viewBox="-1.5 -1.5 3 3">
<path d="M-0.252500 -0.250000 L-0.190000 -0.250000 L-0.190000 -0.187500 L-0.127500 -0.187500 L-0.065000 -0.125000 L-0.065000 -0.062500 L-0.002500 -0.062500 L0.060000 0.000000 L0.060000 0.062500 L0.122500 0.062500 L0.185000 0.125000 L0.185000 0.187500 L0.247500 0.187500 L0.310000 0.250000 L0.185000 0.250000 L0.122500 0.187500 L0.122500 0.125000 L0.060000 0.125000 L-0.002500 0.062500 L-0.002500 0.000000 L-0.065000 0.000000 L-0.127500 -0.062500 L-0.127500 -0.125000 L-0.190000 -0.125000 L-0.252500 -0.187500 z " fill="rgb(245,195,195)" />
<path d="M-0.252500 -0.250000 L0.747500 -0.250000 L0.747500 0.750000 L-0.252500 0.750000  z" fill="none" stroke="rgb(128,128,128)" stroke-width="0.01" />
<line x1="-0.1275" y1="-0.1875" x2="-0.065" y2="-0.125" style="stroke:rgb(246,147,147);stroke-width:0.01" />
<line x1="-0.0025" y1="-0.0625" x2="0.06" y2="0" style="stroke:rgb(246,147,147);stroke-width:0.01" />
<line x1="0.1225" y1="0.0625" x2="0.185" y2="0.125" style="stroke:rgb(246,147,147);stroke-width:0.01" />
<line x1="0.2475" y1="0.1875" x2="0.31" y2="0.25" style="stroke:rgb(246,147,147);stroke-width:0.01" />
<line x1="-0.2525" y1="-0.25" x2="-0.19" y2="-0.25" style="stroke:rgb(246,147,147);stroke-width:0.01" />
<line x1="-0.2525" y1="-0.25" x2="-0.2525" y2="-0.1875" style="stroke:rgb(246,147,147);stroke-width:0.01" />
<line x1="-0.19" y1="-0.25" x2="-0.19" y2="-0.125" style="stroke:rgb(246,147,147);stroke-width:0.01" />
<line x1="-0.1275" y1="-0.1875" x2="-0.1275" y2="-0.0625" style="stroke:rgb(246,147,147);stroke-width:0.01" />
<line x1="-0.065" y1="-0.125" x2="-0.065" y2="0" style="stroke:rgb(246,147,147);stroke-width:0.01" />
<line x1="-0.0025" y1="-0.0625" x2="-0.0025" y2="0.0625" style="stroke:rgb(246,147,147);stroke-width:0.01" />
<line x1="0.06" y1="0" x2="0.06" y2="0.125" style="stroke:rgb(246,147,147);stroke-width:0.01" />
<line x1="0.1225" y1="0.0625" x2="0.1225" y2="0.1875" style="stroke:rgb(246,147,147);stroke-width:0.01" />
<line x1="0.185" y1="0.125" x2="0.185" y2="0.25" style="stroke:rgb(246,147,147);stroke-width:0.01" />
<line x1="0.2475" y1="0.1875" x2="0.2475" y2="0.25" style="stroke:rgb(246,147,147);stroke-width:0.01" />
<line x1="-0.2525" y1="-0.1875" x2="-0.19" y2="-0.125" style="stroke:rgb(246,147,147);stroke-width:0.01" />
<line x1="-0.1275" y1="-0.0625" x2="-0.065" y2="0" style="stroke:rgb(246,147,147);stroke-width:0.01" />
<line x1="-0.0025" y1="0.0625" x2="0.06" y2="0.125" style="stroke:rgb(246,147,147);stroke-width:0.01" />
<line x1="0.1225" y1="0.1875" x2="0.185" y2="0.25" style="stroke:rgb(246,147,147);stroke-width:0.01" />
<line x1="-0.2525" y1="-0.1875" x2="-0.1275" y2="-0.1875" style="stroke:rgb(246,147,147);stroke-width:0.01" />
<line x1="-0.19" y1="-0.125" x2="-0.065" y2="-0.125" style="stroke:rgb(246,147,147);stroke-width:0.01" />
<line x1="-0.1275" y1="-0.0625" x2="-0.0025" y2="-0.0625" style="stroke:rgb(246,147,147);stroke-width:0.01" />
<line x1="-0.065" y1="0" x2="0.06" y2="0" style="stroke:rgb(246,147,147);stroke-width:0.01" />
<line x1="-0.0025" y1="0.0625" x2="0.1225" y2="0.0625" style="stroke:rgb(246,147,147);stroke-width:0.01" />
<line x1="0.06" y1="0.125" x2="0.185" y2="0.125" style="stroke:rgb(246,147,147);stroke-width:0.01" />
<line x1="0.1225" y1="0.1875" x2="0.2475" y2="0.1875" style="stroke:rgb(246,147,147);stroke-width:0.01" />
<line x1="0.185" y1="0.25" x2="0.31" y2="0.25" style="stroke:rgb(246,147,147);stroke-width:0.01" />
</svg>
