<svg xmlns="http://www.w3.org/2000/svg" viewBox="-1.5 -1.5 3 3">
<g transform="scale(1, -1)">
<path d="M0.862069 0.844828 L0.665025 1.051724 L0.727586 1.131034 L0.603448 1.116379 L0.517241 1.206897 L0.426724 1.120690 L0.303448 1.141379 L0.362069 1.059113 L0.155172 0.862069 z " fill="rgb(245,195,195)" />
<path d="M0.000000 0.000000 L1.000000 0.000000 L1.000000 1.000000 L0.000000 1.000000  z" fill="none" stroke="rgb(128,128,128)" stroke-width="0.01" />
<line x1="0.508621" y1="0.853448" x2="0.603448" y2="1.11638" style="stroke:rgb(246,147,147);stroke-width:0.01" />
<line x1="0.508621" y1="0.853448" x2="0.517241" y2="1.2069" style="stroke:rgb(246,147,147);stroke-width:0.01" />
<line x1="0.508621" y1="0.853448" x2="0.727586" y2="1.13103" style="stroke:rgb(246,147,147);stroke-width:0.01" />
<line x1="0.685345" y1="0.849138" x2="0.775862" y2="0.935345" style="stroke:rgb(246,147,147);stroke-width:0.01" />
<line x1="0.508621" y1="0.853448" x2="0.426724" y2="1.12069" style="stroke:rgb(246,147,147);stroke-width:0.01" />
<line x1="0.331897" y1="0.857759" x2="0.512931" y2="1.03017" style="stroke:rgb(246,147,147);stroke-width:0.01" />
<line x1="0.155172" y1="0.862069" x2="0.517241" y2="1.2069" style="stroke:rgb(246,147,147);stroke-width:0.01" />
<line x1="0.508621" y1="0.853448" x2="0.303448" y2="1.14138" style="stroke:rgb(246,147,147);stroke-width:0.01" />
<line x1="0.331897" y1="0.857759" x2="0.24569" y2="0.948276" style="stroke:rgb(246,147,147);stroke-width:0.01" />
<line x1="0.685345" y1="0.849138" x2="0.512931" y2="1.03017" style="stroke:rgb(246,147,147);stroke-width:0.01" />
<line x1="0.862069" y1="0.844828" x2="0.517241" y2="1.2069" style="stroke:rgb(246,147,147);stroke-width:0.01" />
<line x1="0.862069" y1="0.844828" x2="0.155172" y2="0.862069" style="stroke:rgb(246,147,147);stroke-width:0.01" />
<line x1="0.775862" y1="0.935345" x2="0.24569" y2="0.948276" style="stroke:rgb(246,147,147);stroke-width:0.01" />
<line x1="0.603448" y1="1.11638" x2="0.727586" y2="1.13103" style="stroke:rgb(246,147,147);stroke-width:0.01" />
<line x1="0.426724" y1="1.12069" x2="0.303448" y2="1.14138" style="stroke:rgb(246,147,147);stroke-width:0.01" />
</g>
</svg>
