<svg xmlns="http://www.w3.org/2000/svg" viewBox="-1.5 -1.5 3 3">
<path d="M-0.187500 -0.281250 L0.312500 -0.281250 L0.562500 -0.031250 L0.062500 -0.031250 L0.062500 0.468750 L-0.187500 0.218750 L-0.187500 -0.031250 L-0.437500 -0.031250 z " fill="rgb(245,195,195)" />
<path d="M-0.437500 -1.031250 L0.562500 -1.031250 L0.562500 -0.031250 L-0.437500 -0.031250  z" fill="none" stroke="rgb(128,128,128)" stroke-width="0.01" />
<line x1="0.3125" y1="-0.28125" x2="0.5625" y2="-0.03125" style="stroke:rgb(246,147,147);stroke-width:0.01" />
<line x1="-0.1875" y1="-0.28125" x2="-0.1875" y2="0.21875" style="stroke:rgb(246,147,147);stroke-width:0.01" />
<line x1="0.0625" y1="-0.03125" x2="0.0625" y2="0.46875" style="stroke:rgb(246,147,147);stroke-width:0.01" />
<line x1="-0.1875" y1="-0.28125" x2="0.0625" y2="-0.03125" style="stroke:rgb(246,147,147);stroke-width:0.01" />
<line x1="-0.1875" y1="0.21875" x2="0.0625" y2="0.46875" style="stroke:rgb(246,147,147);stroke-width:0.01" />
<line x1="-0.1875" y1="-0.28125" x2="-0.4375" y2="-0.03125" style="stroke:rgb(246,147,147);stroke-width:0.01" />
<line x1="-0.1875" y1="-0.28125" x2="0.3125" y2="-0.28125" style="stroke:rgb(246,147,147);stroke-width:0.01" />
<line x1="0.3125" y1="-0.28125" x2="-0.1875" y2="0.21875" style="stroke:rgb(246,147,147);stroke-width:0.01" />
<line x1="-0.4375" y1="-0.03125" x2="0.5625" y2="-0.03125" style="stroke:rgb(246,147,147);stroke-width:0.01" />
</svg>
