<svg xmlns="http://www.w3.org/2000/svg" viewBox="-1.5 -1.5 3 3">
<path d="M-0.250000 -0.277778 L0.000000 -0.027778 L0.250000 -0.277778 L0.250000 -0.027778 L0.125000 0.097222 L0.125000 0.222222 L-0.125000 0.222222 L-0.125000 0.097222 L-0.250000 -0.027778 z " fill="rgb(245,195,195)" />
<path d="M-0.250000 -0.277778 L0.750000 -0.277778 L0.750000 0.722222 L-0.250000 0.722222  z" fill="none" stroke="rgb(128,128,128)" stroke-width="0.01" />
<line x1="-0.25" y1="-0.277778" x2="0.125" y2="0.0972222" style="stroke:rgb(246,147,147);stroke-width:0.01" />
<line x1="-0.25" y1="-0.277778" x2="-0.25" y2="-0.0277778" style="stroke:rgb(246,147,147);stroke-width:0.01" />
<line x1="-0.125" y1="0.0972222" x2="-0.125" y2="0.222222" style="stroke:rgb(246,147,147);stroke-width:0.01" />
<line x1="0" y1="-0.0277778" x2="0" y2="0.222222" style="stroke:rgb(246,147,147);stroke-width:0.01" />
<line x1="0.125" y1="0.0972222" x2="0.125" y2="0.222222" style="stroke:rgb(246,147,147);stroke-width:0.01" />
<line x1="0.25" y1="-0.277778" x2="0.25" y2="-0.0277778" style="stroke:rgb(246,147,147);stroke-width:0.01" />
<line x1="-0.25" y1="-0.0277778" x2="0" y2="0.222222" style="stroke:rgb(246,147,147);stroke-width:0.01" />
<line x1="-0.25" y1="-0.0277778" x2="0.25" y2="-0.0277778" style="stroke:rgb(246,147,147);stroke-width:0.01" />
<line x1="0.25" y1="-0.277778" x2="-0.125" y2="0.0972222" style="stroke:rgb(246,147,147);stroke-width:0.01" />
<line x1="-0.125" y1="0.0972222" x2="0.125" y2="0.0972222" style="stroke:rgb(246,147,147);stroke-width:0.01" />
<line x1="0.25" y1="-0.0277778" x2="0" y2="0.222222" style="stroke:rgb(246,147,147);stroke-width:0.01" />
<line x1="-0.125" y1="0.222222" x2="0.125" y2="0.222222" style="stroke:rgb(246,147,147);stroke-width:0.01" />
</svg>
