<svg xmlns="http://www.w3.org/2000/svg" viewBox="-1 -1 3 3">
<path d="M0.500000 0.500000 L0.750000 0.750000 L0.750000 1.000000 L1.000000 1.000000 L0.750000 1.250000 L0.500000 1.250000 L0.500000 1.500000 L0.250000 1.250000 L0.250000 1.000000 L0.000000 1.000000 L0.250000 0.750000 L0.500000 0.750000 z " fill="rgb(245,195,195)" />
<path d="M0 0 L0 1 L1 1 L1 0 z" fill="none" stroke="rgb(128,128,128)" stroke-width="0.01" />
<line x1="0.5" y1="0.5" x2="0.75" y2="0.75" style="stroke:rgb(246,147,147);stroke-width:0.01" />
<line x1="0.25" y1="0.75" x2="0.25" y2="1.25" style="stroke:rgb(246,147,147);stroke-width:0.01" />
<line x1="0.5" y1="0.5" x2="0.5" y2="1.5" style="stroke:rgb(246,147,147);stroke-width:0.01" />
<line x1="0.75" y1="0.75" x2="0.75" y2="1.25" style="stroke:rgb(246,147,147);stroke-width:0.01" />
<line x1="0.25" y1="0.75" x2="0.75" y2="1.25" style="stroke:rgb(246,147,147);stroke-width:0.01" />
<line x1="0.25" y1="1.25" x2="0.5" y2="1.5" style="stroke:rgb(246,147,147);stroke-width:0.01" />
<line x1="0.25" y1="0.75" x2="0" y2="1" style="stroke:rgb(246,147,147);stroke-width:0.01" />
<line x1="0.25" y1="0.75" x2="0.75" y2="0.75" style="stroke:rgb(246,147,147);stroke-width:0.01" />
<line x1="0.75" y1="0.75" x2="0.25" y2="1.25" style="stroke:rgb(246,147,147);stroke-width:0.01" />
<line x1="0" y1="1" x2="1" y2="1" style="stroke:rgb(246,147,147);stroke-width:0.01" />
<line x1="1" y1="1" x2="0.75" y2="1.25" style="stroke:rgb(246,147,147);stroke-width:0.01" />
<line x1="0.25" y1="1.25" x2="0.75" y2="1.25" style="stroke:rgb(246,147,147);stroke-width:0.01" />
</svg>
