<svg xmlns="http://www.w3.org/2000/svg" viewBox="-1.5 -1.5 3 3">
<g transform="scale(1, -1)">
<path d="M0.059095 -0.489564 L0.231509 -0.308529 L0.222888 0.044919 L0.041854 0.217333 L-0.136307 0.271930 L-0.204698 0.175953 L-0.134255 0.187776 L-0.130560 0.036298 L0.050474 -0.136116 z " fill="rgb(245,195,195)" />
<path d="M-0.639181 -0.110254 L0.360819 -0.110254 L0.360819 0.889746 L-0.639181 0.889746  z" fill="none" stroke="rgb(128,128,128)" stroke-width="0.01" />
<line x1="0.0590951" y1="-0.489564" x2="0.231509" y2="-0.308529" style="stroke:rgb(246,147,147);stroke-width:0.01" />
<line x1="0.0504744" y1="-0.136116" x2="0.222888" y2="0.0449188" style="stroke:rgb(246,147,147);stroke-width:0.01" />
<line x1="-0.204698" y1="0.175953" x2="-0.136307" y2="0.27193" style="stroke:rgb(246,147,147);stroke-width:0.01" />
<line x1="-0.13056" y1="0.0362981" x2="-0.136307" y2="0.27193" style="stroke:rgb(246,147,147);stroke-width:0.01" />
<line x1="0.0590951" y1="-0.489564" x2="0.0504744" y2="-0.136116" style="stroke:rgb(246,147,147);stroke-width:0.01" />
<line x1="0.231509" y1="-0.308529" x2="0.222888" y2="0.0449188" style="stroke:rgb(246,147,147);stroke-width:0.01" />
<line x1="-0.13056" y1="0.0362981" x2="0.222888" y2="0.0449188" style="stroke:rgb(246,147,147);stroke-width:0.01" />
<line x1="-0.204698" y1="0.175953" x2="0.0418537" y2="0.217333" style="stroke:rgb(246,147,147);stroke-width:0.01" />
<line x1="0.231509" y1="-0.308529" x2="-0.13056" y2="0.0362981" style="stroke:rgb(246,147,147);stroke-width:0.01" />
<line x1="0.0418537" y1="0.217333" x2="-0.136307" y2="0.27193" style="stroke:rgb(246,147,147);stroke-width:0.01" />
<line x1="0.222888" y1="0.0449188" x2="0.0418537" y2="0.217333" style="stroke:rgb(246,147,147);stroke-width:0.01" />
</g>
</svg>
